{
    "track_id": "Thunder Blade (FM) - 04 - Type II",
    "mood": "angry",
    "instruments": {
        "Trumpet": [
            {
                "start_time": 3.6295454545454544,
                "end_time": 4.072727272727272,
                "pitch": 74,
                "velocity": 80,
                "duration": 0.4431818181818179,
                "tempo": 120.0
            },
            {
                "start_time": 4.088636363636364,
                "end_time": 4.547727272727273,
                "pitch": 74,
                "velocity": 80,
                "duration": 0.459090909090909,
                "tempo": 120.0
            },
            {
                "start_time": 4.5659090909090905,
                "end_time": 5.006818181818182,
                "pitch": 70,
                "velocity": 80,
                "duration": 0.44090909090909136,
                "tempo": 120.0
            },
            {
                "start_time": 5.0227272727272725,
                "end_time": 5.475,
                "pitch": 67,
                "velocity": 80,
                "duration": 0.45227272727272716,
                "tempo": 120.0
            },
            {
                "start_time": 5.493181818181818,
                "end_time": 6.404545454545454,
                "pitch": 60,
                "velocity": 80,
                "duration": 0.9113636363636362,
                "tempo": 120.0
            },
            {
                "start_time": 6.420454545454545,
                "end_time": 6.470454545454545,
                "pitch": 56,
                "velocity": 80,
                "duration": 0.04999999999999982,
                "tempo": 120.0
            },
            {
                "start_time": 6.486363636363636,
                "end_time": 6.536363636363636,
                "pitch": 60,
                "velocity": 80,
                "duration": 0.04999999999999982,
                "tempo": 120.0
            },
            {
                "start_time": 6.554545454545454,
                "end_time": 7.340909090909091,
                "pitch": 67,
                "velocity": 80,
                "duration": 0.786363636363637,
                "tempo": 120.0
            },
            {
                "start_time": 7.3568181818181815,
                "end_time": 7.406818181818181,
                "pitch": 56,
                "velocity": 80,
                "duration": 0.04999999999999982,
                "tempo": 120.0
            },
            {
                "start_time": 7.422727272727272,
                "end_time": 7.472727272727273,
                "pitch": 60,
                "velocity": 80,
                "duration": 0.05000000000000071,
                "tempo": 120.0
            },
            {
                "start_time": 7.488636363636363,
                "end_time": 9.195454545454545,
                "pitch": 65,
                "velocity": 80,
                "duration": 1.706818181818182,
                "tempo": 120.0
            },
            {
                "start_time": 10.384090909090908,
                "end_time": 10.502272727272727,
                "pitch": 65,
                "velocity": 80,
                "duration": 0.11818181818181905,
                "tempo": 120.0
            },
            {
                "start_time": 10.518181818181818,
                "end_time": 10.568181818181818,
                "pitch": 65,
                "velocity": 80,
                "duration": 0.05000000000000071,
                "tempo": 120.0
            },
            {
                "start_time": 11.536363636363635,
                "end_time": 11.997727272727273,
                "pitch": 73,
                "velocity": 80,
                "duration": 0.46136363636363775,
                "tempo": 120.0
            },
            {
                "start_time": 12.01590909090909,
                "end_time": 12.456818181818182,
                "pitch": 68,
                "velocity": 80,
                "duration": 0.44090909090909136,
                "tempo": 120.0
            },
            {
                "start_time": 12.472727272727273,
                "end_time": 12.924999999999999,
                "pitch": 65,
                "velocity": 80,
                "duration": 0.45227272727272627,
                "tempo": 120.0
            },
            {
                "start_time": 12.943181818181818,
                "end_time": 14.020454545454545,
                "pitch": 58,
                "velocity": 80,
                "duration": 1.0772727272727263,
                "tempo": 120.0
            },
            {
                "start_time": 15.26590909090909,
                "end_time": 15.718181818181817,
                "pitch": 62,
                "velocity": 80,
                "duration": 0.45227272727272627,
                "tempo": 120.0
            },
            {
                "start_time": 15.734090909090908,
                "end_time": 16.177272727272726,
                "pitch": 58,
                "velocity": 80,
                "duration": 0.44318181818181834,
                "tempo": 120.0
            },
            {
                "start_time": 16.193181818181817,
                "end_time": 16.645454545454545,
                "pitch": 55,
                "velocity": 80,
                "duration": 0.45227272727272805,
                "tempo": 120.0
            },
            {
                "start_time": 16.661363636363635,
                "end_time": 17.381818181818183,
                "pitch": 50,
                "velocity": 80,
                "duration": 0.7204545454545475,
                "tempo": 120.0
            },
            {
                "start_time": 18.986363636363635,
                "end_time": 19.438636363636363,
                "pitch": 73,
                "velocity": 80,
                "duration": 0.45227272727272805,
                "tempo": 120.0
            },
            {
                "start_time": 19.454545454545453,
                "end_time": 19.913636363636364,
                "pitch": 68,
                "velocity": 80,
                "duration": 0.45909090909091077,
                "tempo": 120.0
            },
            {
                "start_time": 19.93181818181818,
                "end_time": 20.37272727272727,
                "pitch": 65,
                "velocity": 80,
                "duration": 0.44090909090909136,
                "tempo": 120.0
            },
            {
                "start_time": 20.388636363636362,
                "end_time": 21.46818181818182,
                "pitch": 58,
                "velocity": 80,
                "duration": 1.0795454545454568,
                "tempo": 120.0
            },
            {
                "start_time": 22.71363636363636,
                "end_time": 23.154545454545453,
                "pitch": 62,
                "velocity": 80,
                "duration": 0.44090909090909136,
                "tempo": 120.0
            },
            {
                "start_time": 23.170454545454543,
                "end_time": 23.634090909090908,
                "pitch": 58,
                "velocity": 80,
                "duration": 0.46363636363636473,
                "tempo": 120.0
            },
            {
                "start_time": 23.65,
                "end_time": 24.09318181818182,
                "pitch": 55,
                "velocity": 80,
                "duration": 0.4431818181818201,
                "tempo": 120.0
            },
            {
                "start_time": 24.10909090909091,
                "end_time": 24.818181818181817,
                "pitch": 50,
                "velocity": 80,
                "duration": 0.7090909090909072,
                "tempo": 120.0
            },
            {
                "start_time": 26.43409090909091,
                "end_time": 26.884090909090908,
                "pitch": 74,
                "velocity": 80,
                "duration": 0.4499999999999993,
                "tempo": 120.0
            },
            {
                "start_time": 26.902272727272727,
                "end_time": 27.343181818181815,
                "pitch": 70,
                "velocity": 80,
                "duration": 0.4409090909090878,
                "tempo": 120.0
            },
            {
                "start_time": 27.35909090909091,
                "end_time": 27.811363636363634,
                "pitch": 67,
                "velocity": 80,
                "duration": 0.4522727272727245,
                "tempo": 120.0
            },
            {
                "start_time": 27.829545454545453,
                "end_time": 28.74090909090909,
                "pitch": 60,
                "velocity": 80,
                "duration": 0.9113636363636353,
                "tempo": 120.0
            },
            {
                "start_time": 28.75681818181818,
                "end_time": 28.80681818181818,
                "pitch": 56,
                "velocity": 80,
                "duration": 0.05000000000000071,
                "tempo": 120.0
            },
            {
                "start_time": 28.82272727272727,
                "end_time": 28.875,
                "pitch": 60,
                "velocity": 80,
                "duration": 0.05227272727272947,
                "tempo": 120.0
            },
            {
                "start_time": 28.89090909090909,
                "end_time": 29.677272727272726,
                "pitch": 67,
                "velocity": 80,
                "duration": 0.7863636363636353,
                "tempo": 120.0
            },
            {
                "start_time": 29.695454545454545,
                "end_time": 29.743181818181817,
                "pitch": 56,
                "velocity": 80,
                "duration": 0.04772727272727195,
                "tempo": 120.0
            },
            {
                "start_time": 29.759090909090908,
                "end_time": 29.80909090909091,
                "pitch": 60,
                "velocity": 80,
                "duration": 0.05000000000000071,
                "tempo": 120.0
            },
            {
                "start_time": 29.825,
                "end_time": 31.543181818181818,
                "pitch": 65,
                "velocity": 80,
                "duration": 1.7181818181818187,
                "tempo": 120.0
            },
            {
                "start_time": 33.87272727272727,
                "end_time": 34.33181818181818,
                "pitch": 73,
                "velocity": 80,
                "duration": 0.45909090909091077,
                "tempo": 120.0
            },
            {
                "start_time": 34.34772727272727,
                "end_time": 34.79090909090909,
                "pitch": 68,
                "velocity": 80,
                "duration": 0.4431818181818201,
                "tempo": 120.0
            },
            {
                "start_time": 34.80681818181818,
                "end_time": 35.25909090909091,
                "pitch": 65,
                "velocity": 80,
                "duration": 0.45227272727272805,
                "tempo": 120.0
            },
            {
                "start_time": 35.275,
                "end_time": 36.35454545454545,
                "pitch": 58,
                "velocity": 80,
                "duration": 1.0795454545454533,
                "tempo": 120.0
            },
            {
                "start_time": 37.6,
                "end_time": 38.05227272727272,
                "pitch": 62,
                "velocity": 80,
                "duration": 0.45227272727272094,
                "tempo": 120.0
            },
            {
                "start_time": 38.06818181818181,
                "end_time": 38.50909090909091,
                "pitch": 58,
                "velocity": 80,
                "duration": 0.4409090909090949,
                "tempo": 120.0
            },
            {
                "start_time": 38.527272727272724,
                "end_time": 38.97954545454545,
                "pitch": 55,
                "velocity": 80,
                "duration": 0.45227272727272805,
                "tempo": 120.0
            },
            {
                "start_time": 38.99545454545454,
                "end_time": 39.715909090909086,
                "pitch": 50,
                "velocity": 80,
                "duration": 0.7204545454545439,
                "tempo": 120.0
            },
            {
                "start_time": 41.31818181818181,
                "end_time": 41.777272727272724,
                "pitch": 73,
                "velocity": 80,
                "duration": 0.45909090909091077,
                "tempo": 120.0
            },
            {
                "start_time": 41.79545454545455,
                "end_time": 42.24772727272727,
                "pitch": 68,
                "velocity": 80,
                "duration": 0.45227272727272094,
                "tempo": 120.0
            },
            {
                "start_time": 42.26363636363636,
                "end_time": 42.695454545454545,
                "pitch": 65,
                "velocity": 80,
                "duration": 0.431818181818187,
                "tempo": 120.0
            },
            {
                "start_time": 42.711363636363636,
                "end_time": 43.8,
                "pitch": 58,
                "velocity": 80,
                "duration": 1.0886363636363612,
                "tempo": 120.0
            },
            {
                "start_time": 45.04545454545455,
                "end_time": 45.49772727272727,
                "pitch": 62,
                "velocity": 80,
                "duration": 0.45227272727272094,
                "tempo": 120.0
            },
            {
                "start_time": 45.51590909090909,
                "end_time": 45.96818181818182,
                "pitch": 58,
                "velocity": 80,
                "duration": 0.45227272727272805,
                "tempo": 120.0
            },
            {
                "start_time": 45.98409090909091,
                "end_time": 46.425,
                "pitch": 55,
                "velocity": 80,
                "duration": 0.4409090909090878,
                "tempo": 120.0
            },
            {
                "start_time": 46.44318181818181,
                "end_time": 47.152272727272724,
                "pitch": 50,
                "velocity": 80,
                "duration": 0.7090909090909108,
                "tempo": 120.0
            },
            {
                "start_time": 48.304545454545455,
                "end_time": 48.74545454545454,
                "pitch": 53,
                "velocity": 80,
                "duration": 0.4409090909090878,
                "tempo": 120.0
            },
            {
                "start_time": 48.76363636363636,
                "end_time": 49.21363636363636,
                "pitch": 53,
                "velocity": 80,
                "duration": 0.45000000000000284,
                "tempo": 120.0
            },
            {
                "start_time": 49.23181818181818,
                "end_time": 49.67272727272727,
                "pitch": 53,
                "velocity": 80,
                "duration": 0.4409090909090949,
                "tempo": 120.0
            },
            {
                "start_time": 49.68863636363636,
                "end_time": 50.14090909090909,
                "pitch": 53,
                "velocity": 80,
                "duration": 0.45227272727272805,
                "tempo": 120.0
            },
            {
                "start_time": 50.15909090909091,
                "end_time": 50.62045454545454,
                "pitch": 55,
                "velocity": 80,
                "duration": 0.461363636363636,
                "tempo": 120.0
            },
            {
                "start_time": 50.63863636363636,
                "end_time": 51.070454545454545,
                "pitch": 55,
                "velocity": 80,
                "duration": 0.431818181818187,
                "tempo": 120.0
            },
            {
                "start_time": 51.086363636363636,
                "end_time": 51.538636363636364,
                "pitch": 55,
                "velocity": 80,
                "duration": 0.45227272727272805,
                "tempo": 120.0
            },
            {
                "start_time": 51.554545454545455,
                "end_time": 52.00681818181818,
                "pitch": 55,
                "velocity": 80,
                "duration": 0.45227272727272805,
                "tempo": 120.0
            },
            {
                "start_time": 52.025,
                "end_time": 52.465909090909086,
                "pitch": 56,
                "velocity": 80,
                "duration": 0.4409090909090878,
                "tempo": 120.0
            },
            {
                "start_time": 52.48181818181818,
                "end_time": 52.934090909090905,
                "pitch": 56,
                "velocity": 80,
                "duration": 0.45227272727272805,
                "tempo": 120.0
            },
            {
                "start_time": 52.95227272727273,
                "end_time": 53.40454545454545,
                "pitch": 56,
                "velocity": 80,
                "duration": 0.45227272727272094,
                "tempo": 120.0
            },
            {
                "start_time": 53.42045454545454,
                "end_time": 53.861363636363635,
                "pitch": 56,
                "velocity": 80,
                "duration": 0.4409090909090949,
                "tempo": 120.0
            },
            {
                "start_time": 53.87954545454545,
                "end_time": 54.33863636363636,
                "pitch": 58,
                "velocity": 80,
                "duration": 0.45909090909091077,
                "tempo": 120.0
            },
            {
                "start_time": 54.35454545454545,
                "end_time": 54.79772727272727,
                "pitch": 58,
                "velocity": 80,
                "duration": 0.4431818181818201,
                "tempo": 120.0
            },
            {
                "start_time": 54.81363636363636,
                "end_time": 55.25454545454545,
                "pitch": 60,
                "velocity": 80,
                "duration": 0.4409090909090878,
                "tempo": 120.0
            },
            {
                "start_time": 55.27045454545454,
                "end_time": 55.72272727272727,
                "pitch": 60,
                "velocity": 80,
                "duration": 0.45227272727272805,
                "tempo": 120.0
            },
            {
                "start_time": 55.740909090909085,
                "end_time": 56.18181818181818,
                "pitch": 53,
                "velocity": 80,
                "duration": 0.4409090909090949,
                "tempo": 120.0
            },
            {
                "start_time": 56.19772727272727,
                "end_time": 56.65,
                "pitch": 53,
                "velocity": 80,
                "duration": 0.45227272727272805,
                "tempo": 120.0
            },
            {
                "start_time": 56.668181818181814,
                "end_time": 57.12045454545454,
                "pitch": 53,
                "velocity": 80,
                "duration": 0.45227272727272805,
                "tempo": 120.0
            },
            {
                "start_time": 57.13636363636363,
                "end_time": 57.58863636363636,
                "pitch": 53,
                "velocity": 80,
                "duration": 0.45227272727272805,
                "tempo": 120.0
            },
            {
                "start_time": 57.60454545454545,
                "end_time": 58.05681818181818,
                "pitch": 55,
                "velocity": 80,
                "duration": 0.45227272727272805,
                "tempo": 120.0
            },
            {
                "start_time": 58.074999999999996,
                "end_time": 58.51590909090909,
                "pitch": 55,
                "velocity": 80,
                "duration": 0.4409090909090949,
                "tempo": 120.0
            },
            {
                "start_time": 58.53181818181818,
                "end_time": 58.98409090909091,
                "pitch": 55,
                "velocity": 80,
                "duration": 0.45227272727272805,
                "tempo": 120.0
            },
            {
                "start_time": 59.002272727272725,
                "end_time": 59.44318181818181,
                "pitch": 55,
                "velocity": 80,
                "duration": 0.4409090909090878,
                "tempo": 120.0
            },
            {
                "start_time": 59.459090909090904,
                "end_time": 59.91136363636363,
                "pitch": 56,
                "velocity": 80,
                "duration": 0.45227272727272805,
                "tempo": 120.0
            },
            {
                "start_time": 59.929545454545455,
                "end_time": 60.381818181818176,
                "pitch": 56,
                "velocity": 80,
                "duration": 0.45227272727272094,
                "tempo": 120.0
            },
            {
                "start_time": 60.397727272727266,
                "end_time": 60.83863636363636,
                "pitch": 56,
                "velocity": 80,
                "duration": 0.4409090909090949,
                "tempo": 120.0
            },
            {
                "start_time": 60.85681818181818,
                "end_time": 61.309090909090905,
                "pitch": 56,
                "velocity": 80,
                "duration": 0.45227272727272805,
                "tempo": 120.0
            },
            {
                "start_time": 61.324999999999996,
                "end_time": 61.78409090909091,
                "pitch": 58,
                "velocity": 80,
                "duration": 0.45909090909091077,
                "tempo": 120.0
            },
            {
                "start_time": 61.8,
                "end_time": 62.23409090909091,
                "pitch": 58,
                "velocity": 80,
                "duration": 0.4340909090909122,
                "tempo": 120.0
            },
            {
                "start_time": 62.25,
                "end_time": 62.70227272727272,
                "pitch": 60,
                "velocity": 80,
                "duration": 0.45227272727272094,
                "tempo": 120.0
            },
            {
                "start_time": 62.71818181818181,
                "end_time": 63.17045454545454,
                "pitch": 60,
                "velocity": 80,
                "duration": 0.45227272727272805,
                "tempo": 120.0
            },
            {
                "start_time": 63.18636363636363,
                "end_time": 63.62954545454545,
                "pitch": 53,
                "velocity": 80,
                "duration": 0.4431818181818201,
                "tempo": 120.0
            },
            {
                "start_time": 63.64545454545454,
                "end_time": 64.09772727272727,
                "pitch": 53,
                "velocity": 80,
                "duration": 0.45227272727272805,
                "tempo": 120.0
            },
            {
                "start_time": 64.11363636363636,
                "end_time": 64.56590909090909,
                "pitch": 53,
                "velocity": 80,
                "duration": 0.45227272727272805,
                "tempo": 120.0
            },
            {
                "start_time": 64.5840909090909,
                "end_time": 65.02499999999999,
                "pitch": 53,
                "velocity": 80,
                "duration": 0.4409090909090878,
                "tempo": 120.0
            },
            {
                "start_time": 65.04090909090908,
                "end_time": 65.50454545454545,
                "pitch": 55,
                "velocity": 80,
                "duration": 0.4636363636363683,
                "tempo": 120.0
            },
            {
                "start_time": 65.52045454545454,
                "end_time": 65.96363636363635,
                "pitch": 55,
                "velocity": 80,
                "duration": 0.443181818181813,
                "tempo": 120.0
            },
            {
                "start_time": 65.97954545454544,
                "end_time": 66.42045454545455,
                "pitch": 55,
                "velocity": 80,
                "duration": 0.440909090909102,
                "tempo": 120.0
            },
            {
                "start_time": 66.43863636363636,
                "end_time": 66.89090909090909,
                "pitch": 55,
                "velocity": 80,
                "duration": 0.45227272727272805,
                "tempo": 120.0
            },
            {
                "start_time": 66.90681818181818,
                "end_time": 67.35909090909091,
                "pitch": 56,
                "velocity": 80,
                "duration": 0.45227272727272805,
                "tempo": 120.0
            },
            {
                "start_time": 67.375,
                "end_time": 67.81818181818181,
                "pitch": 56,
                "velocity": 80,
                "duration": 0.443181818181813,
                "tempo": 120.0
            },
            {
                "start_time": 67.8340909090909,
                "end_time": 68.28636363636363,
                "pitch": 56,
                "velocity": 80,
                "duration": 0.45227272727272805,
                "tempo": 120.0
            },
            {
                "start_time": 68.30227272727272,
                "end_time": 68.75454545454545,
                "pitch": 56,
                "velocity": 80,
                "duration": 0.45227272727272805,
                "tempo": 120.0
            },
            {
                "start_time": 68.77272727272727,
                "end_time": 69.23409090909091,
                "pitch": 58,
                "velocity": 80,
                "duration": 0.4613636363636431,
                "tempo": 120.0
            },
            {
                "start_time": 69.25227272727273,
                "end_time": 69.68409090909091,
                "pitch": 58,
                "velocity": 80,
                "duration": 0.431818181818187,
                "tempo": 120.0
            },
            {
                "start_time": 69.7,
                "end_time": 70.14090909090909,
                "pitch": 60,
                "velocity": 80,
                "duration": 0.4409090909090878,
                "tempo": 120.0
            },
            {
                "start_time": 70.1590909090909,
                "end_time": 70.61136363636363,
                "pitch": 60,
                "velocity": 80,
                "duration": 0.45227272727272805,
                "tempo": 120.0
            },
            {
                "start_time": 70.62727272727273,
                "end_time": 71.07954545454545,
                "pitch": 53,
                "velocity": 80,
                "duration": 0.45227272727272805,
                "tempo": 120.0
            },
            {
                "start_time": 71.09545454545454,
                "end_time": 71.54772727272727,
                "pitch": 53,
                "velocity": 80,
                "duration": 0.45227272727272805,
                "tempo": 120.0
            },
            {
                "start_time": 71.56590909090909,
                "end_time": 72.00681818181818,
                "pitch": 53,
                "velocity": 80,
                "duration": 0.4409090909090878,
                "tempo": 120.0
            },
            {
                "start_time": 72.02272727272727,
                "end_time": 72.475,
                "pitch": 53,
                "velocity": 80,
                "duration": 0.45227272727272805,
                "tempo": 120.0
            },
            {
                "start_time": 72.49318181818181,
                "end_time": 72.95454545454545,
                "pitch": 55,
                "velocity": 80,
                "duration": 0.4613636363636431,
                "tempo": 120.0
            },
            {
                "start_time": 72.97272727272727,
                "end_time": 73.40454545454546,
                "pitch": 55,
                "velocity": 80,
                "duration": 0.431818181818187,
                "tempo": 120.0
            },
            {
                "start_time": 73.42045454545455,
                "end_time": 73.87272727272727,
                "pitch": 55,
                "velocity": 80,
                "duration": 0.45227272727272805,
                "tempo": 120.0
            },
            {
                "start_time": 73.88863636363637,
                "end_time": 74.3409090909091,
                "pitch": 55,
                "velocity": 80,
                "duration": 0.45227272727272805,
                "tempo": 120.0
            },
            {
                "start_time": 74.35909090909091,
                "end_time": 74.8,
                "pitch": 56,
                "velocity": 80,
                "duration": 0.4409090909090878,
                "tempo": 120.0
            },
            {
                "start_time": 74.81590909090909,
                "end_time": 75.26818181818182,
                "pitch": 56,
                "velocity": 80,
                "duration": 0.45227272727272805,
                "tempo": 120.0
            },
            {
                "start_time": 75.28636363636363,
                "end_time": 75.73863636363636,
                "pitch": 56,
                "velocity": 80,
                "duration": 0.45227272727272805,
                "tempo": 120.0
            },
            {
                "start_time": 75.75454545454545,
                "end_time": 76.19545454545454,
                "pitch": 56,
                "velocity": 80,
                "duration": 0.4409090909090878,
                "tempo": 120.0
            },
            {
                "start_time": 76.21136363636363,
                "end_time": 76.675,
                "pitch": 58,
                "velocity": 80,
                "duration": 0.4636363636363683,
                "tempo": 120.0
            },
            {
                "start_time": 76.69318181818181,
                "end_time": 77.1340909090909,
                "pitch": 58,
                "velocity": 80,
                "duration": 0.4409090909090878,
                "tempo": 120.0
            },
            {
                "start_time": 77.14999999999999,
                "end_time": 77.59318181818182,
                "pitch": 60,
                "velocity": 80,
                "duration": 0.4431818181818272,
                "tempo": 120.0
            },
            {
                "start_time": 77.60909090909091,
                "end_time": 78.06136363636364,
                "pitch": 60,
                "velocity": 80,
                "duration": 0.45227272727272805,
                "tempo": 120.0
            },
            {
                "start_time": 85.52727272727272,
                "end_time": 85.74090909090908,
                "pitch": 70,
                "velocity": 80,
                "duration": 0.2136363636363683,
                "tempo": 120.0
            },
            {
                "start_time": 85.75681818181818,
                "end_time": 85.87045454545454,
                "pitch": 70,
                "velocity": 80,
                "duration": 0.11363636363635976,
                "tempo": 120.0
            },
            {
                "start_time": 85.88863636363637,
                "end_time": 85.97045454545454,
                "pitch": 68,
                "velocity": 80,
                "duration": 0.08181818181817846,
                "tempo": 120.0
            },
            {
                "start_time": 85.98636363636363,
                "end_time": 86.10227272727272,
                "pitch": 65,
                "velocity": 80,
                "duration": 0.11590909090908497,
                "tempo": 120.0
            },
            {
                "start_time": 86.12045454545454,
                "end_time": 86.20454545454545,
                "pitch": 63,
                "velocity": 80,
                "duration": 0.08409090909091788,
                "tempo": 120.0
            },
            {
                "start_time": 86.22045454545454,
                "end_time": 86.43863636363636,
                "pitch": 70,
                "velocity": 80,
                "duration": 0.2181818181818187,
                "tempo": 120.0
            },
            {
                "start_time": 86.45454545454545,
                "end_time": 86.57272727272726,
                "pitch": 70,
                "velocity": 80,
                "duration": 0.11818181818181017,
                "tempo": 120.0
            },
            {
                "start_time": 86.58863636363635,
                "end_time": 86.67272727272727,
                "pitch": 68,
                "velocity": 80,
                "duration": 0.08409090909091788,
                "tempo": 120.0
            },
            {
                "start_time": 86.68863636363636,
                "end_time": 86.80681818181817,
                "pitch": 65,
                "velocity": 80,
                "duration": 0.11818181818181017,
                "tempo": 120.0
            },
            {
                "start_time": 86.82272727272726,
                "end_time": 86.90681818181818,
                "pitch": 63,
                "velocity": 80,
                "duration": 0.08409090909091788,
                "tempo": 120.0
            },
            {
                "start_time": 86.925,
                "end_time": 87.13636363636363,
                "pitch": 70,
                "velocity": 80,
                "duration": 0.21136363636362887,
                "tempo": 120.0
            },
            {
                "start_time": 87.15227272727272,
                "end_time": 87.26818181818182,
                "pitch": 70,
                "velocity": 80,
                "duration": 0.11590909090909918,
                "tempo": 120.0
            },
            {
                "start_time": 87.2840909090909,
                "end_time": 87.36590909090908,
                "pitch": 68,
                "velocity": 80,
                "duration": 0.08181818181817846,
                "tempo": 120.0
            },
            {
                "start_time": 87.38181818181818,
                "end_time": 87.5,
                "pitch": 65,
                "velocity": 80,
                "duration": 0.11818181818182438,
                "tempo": 120.0
            },
            {
                "start_time": 87.51590909090909,
                "end_time": 87.6,
                "pitch": 63,
                "velocity": 80,
                "duration": 0.08409090909090366,
                "tempo": 120.0
            },
            {
                "start_time": 87.61590909090908,
                "end_time": 87.8340909090909,
                "pitch": 70,
                "velocity": 80,
                "duration": 0.2181818181818187,
                "tempo": 120.0
            },
            {
                "start_time": 87.85,
                "end_time": 87.96818181818182,
                "pitch": 70,
                "velocity": 80,
                "duration": 0.11818181818182438,
                "tempo": 120.0
            },
            {
                "start_time": 87.98409090909091,
                "end_time": 88.06818181818181,
                "pitch": 68,
                "velocity": 80,
                "duration": 0.08409090909090366,
                "tempo": 120.0
            },
            {
                "start_time": 88.08636363636363,
                "end_time": 88.20227272727273,
                "pitch": 65,
                "velocity": 80,
                "duration": 0.11590909090909918,
                "tempo": 120.0
            },
            {
                "start_time": 88.22045454545454,
                "end_time": 88.30227272727272,
                "pitch": 63,
                "velocity": 80,
                "duration": 0.08181818181817846,
                "tempo": 120.0
            },
            {
                "start_time": 88.32045454545454,
                "end_time": 88.53181818181818,
                "pitch": 70,
                "velocity": 80,
                "duration": 0.21136363636364308,
                "tempo": 120.0
            },
            {
                "start_time": 88.55,
                "end_time": 88.66363636363636,
                "pitch": 70,
                "velocity": 80,
                "duration": 0.11363636363635976,
                "tempo": 120.0
            },
            {
                "start_time": 88.67954545454545,
                "end_time": 88.76136363636363,
                "pitch": 68,
                "velocity": 80,
                "duration": 0.08181818181817846,
                "tempo": 120.0
            },
            {
                "start_time": 88.77727272727272,
                "end_time": 88.89545454545454,
                "pitch": 65,
                "velocity": 80,
                "duration": 0.11818181818182438,
                "tempo": 120.0
            },
            {
                "start_time": 88.91136363636363,
                "end_time": 88.99545454545454,
                "pitch": 63,
                "velocity": 80,
                "duration": 0.08409090909090366,
                "tempo": 120.0
            },
            {
                "start_time": 89.01363636363637,
                "end_time": 89.22954545454544,
                "pitch": 70,
                "velocity": 80,
                "duration": 0.21590909090907928,
                "tempo": 120.0
            },
            {
                "start_time": 89.24772727272727,
                "end_time": 89.36363636363636,
                "pitch": 70,
                "velocity": 80,
                "duration": 0.11590909090908497,
                "tempo": 120.0
            },
            {
                "start_time": 89.38181818181818,
                "end_time": 89.4659090909091,
                "pitch": 68,
                "velocity": 80,
                "duration": 0.08409090909091788,
                "tempo": 120.0
            },
            {
                "start_time": 89.48181818181818,
                "end_time": 89.6,
                "pitch": 65,
                "velocity": 80,
                "duration": 0.11818181818181017,
                "tempo": 120.0
            },
            {
                "start_time": 89.61590909090908,
                "end_time": 89.69999999999999,
                "pitch": 63,
                "velocity": 80,
                "duration": 0.08409090909090366,
                "tempo": 120.0
            },
            {
                "start_time": 89.7159090909091,
                "end_time": 89.92954545454545,
                "pitch": 70,
                "velocity": 80,
                "duration": 0.21363636363635408,
                "tempo": 120.0
            },
            {
                "start_time": 89.94545454545454,
                "end_time": 90.0590909090909,
                "pitch": 70,
                "velocity": 80,
                "duration": 0.11363636363635976,
                "tempo": 120.0
            },
            {
                "start_time": 90.07727272727273,
                "end_time": 90.1590909090909,
                "pitch": 68,
                "velocity": 80,
                "duration": 0.08181818181817846,
                "tempo": 120.0
            },
            {
                "start_time": 90.175,
                "end_time": 90.29090909090908,
                "pitch": 65,
                "velocity": 80,
                "duration": 0.11590909090908497,
                "tempo": 120.0
            },
            {
                "start_time": 90.3090909090909,
                "end_time": 90.39318181818182,
                "pitch": 63,
                "velocity": 80,
                "duration": 0.08409090909091788,
                "tempo": 120.0
            },
            {
                "start_time": 90.4090909090909,
                "end_time": 90.62727272727273,
                "pitch": 70,
                "velocity": 80,
                "duration": 0.2181818181818187,
                "tempo": 120.0
            },
            {
                "start_time": 90.64318181818182,
                "end_time": 90.76136363636363,
                "pitch": 70,
                "velocity": 80,
                "duration": 0.11818181818181017,
                "tempo": 120.0
            },
            {
                "start_time": 90.77727272727272,
                "end_time": 90.86136363636363,
                "pitch": 68,
                "velocity": 80,
                "duration": 0.08409090909091788,
                "tempo": 120.0
            },
            {
                "start_time": 90.87727272727273,
                "end_time": 90.99545454545454,
                "pitch": 65,
                "velocity": 80,
                "duration": 0.11818181818181017,
                "tempo": 120.0
            },
            {
                "start_time": 91.01136363636363,
                "end_time": 91.09545454545454,
                "pitch": 63,
                "velocity": 80,
                "duration": 0.08409090909091788,
                "tempo": 120.0
            },
            {
                "start_time": 91.11136363636363,
                "end_time": 91.32499999999999,
                "pitch": 70,
                "velocity": 80,
                "duration": 0.21363636363635408,
                "tempo": 120.0
            },
            {
                "start_time": 91.3409090909091,
                "end_time": 91.45681818181818,
                "pitch": 70,
                "velocity": 80,
                "duration": 0.11590909090908497,
                "tempo": 120.0
            },
            {
                "start_time": 91.47272727272727,
                "end_time": 91.55454545454545,
                "pitch": 68,
                "velocity": 80,
                "duration": 0.08181818181817846,
                "tempo": 120.0
            },
            {
                "start_time": 91.57045454545454,
                "end_time": 91.68863636363636,
                "pitch": 65,
                "velocity": 80,
                "duration": 0.11818181818182438,
                "tempo": 120.0
            },
            {
                "start_time": 91.70454545454545,
                "end_time": 91.78863636363636,
                "pitch": 63,
                "velocity": 80,
                "duration": 0.08409090909090366,
                "tempo": 120.0
            },
            {
                "start_time": 91.80454545454545,
                "end_time": 92.02272727272727,
                "pitch": 70,
                "velocity": 80,
                "duration": 0.2181818181818187,
                "tempo": 120.0
            },
            {
                "start_time": 92.03863636363636,
                "end_time": 92.15681818181818,
                "pitch": 70,
                "velocity": 80,
                "duration": 0.11818181818182438,
                "tempo": 120.0
            },
            {
                "start_time": 92.17272727272727,
                "end_time": 92.25681818181818,
                "pitch": 68,
                "velocity": 80,
                "duration": 0.08409090909090366,
                "tempo": 120.0
            },
            {
                "start_time": 92.27499999999999,
                "end_time": 92.39090909090909,
                "pitch": 65,
                "velocity": 80,
                "duration": 0.11590909090909918,
                "tempo": 120.0
            },
            {
                "start_time": 92.4090909090909,
                "end_time": 92.49090909090908,
                "pitch": 63,
                "velocity": 80,
                "duration": 0.08181818181817846,
                "tempo": 120.0
            },
            {
                "start_time": 92.5090909090909,
                "end_time": 92.72045454545454,
                "pitch": 70,
                "velocity": 80,
                "duration": 0.21136363636364308,
                "tempo": 120.0
            },
            {
                "start_time": 92.73863636363636,
                "end_time": 92.85227272727272,
                "pitch": 70,
                "velocity": 80,
                "duration": 0.11363636363635976,
                "tempo": 120.0
            },
            {
                "start_time": 92.86818181818181,
                "end_time": 92.9659090909091,
                "pitch": 68,
                "velocity": 80,
                "duration": 0.09772727272728332,
                "tempo": 120.0
            }
        ],
        "Clarinet": [
            {
                "start_time": 3.6295454545454544,
                "end_time": 3.843181818181818,
                "pitch": 72,
                "velocity": 51,
                "duration": 0.2136363636363634,
                "tempo": 120.0
            },
            {
                "start_time": 3.859090909090909,
                "end_time": 3.9749999999999996,
                "pitch": 84,
                "velocity": 51,
                "duration": 0.11590909090909074,
                "tempo": 120.0
            },
            {
                "start_time": 3.9909090909090907,
                "end_time": 4.072727272727272,
                "pitch": 72,
                "velocity": 51,
                "duration": 0.08181818181818157,
                "tempo": 120.0
            },
            {
                "start_time": 4.088636363636364,
                "end_time": 4.206818181818182,
                "pitch": 72,
                "velocity": 51,
                "duration": 0.11818181818181817,
                "tempo": 120.0
            },
            {
                "start_time": 4.225,
                "end_time": 4.309090909090909,
                "pitch": 84,
                "velocity": 51,
                "duration": 0.084090909090909,
                "tempo": 120.0
            },
            {
                "start_time": 4.327272727272727,
                "end_time": 4.445454545454545,
                "pitch": 72,
                "velocity": 51,
                "duration": 0.11818181818181817,
                "tempo": 120.0
            },
            {
                "start_time": 4.463636363636364,
                "end_time": 4.547727272727273,
                "pitch": 72,
                "velocity": 51,
                "duration": 0.084090909090909,
                "tempo": 120.0
            },
            {
                "start_time": 4.5659090909090905,
                "end_time": 4.679545454545455,
                "pitch": 84,
                "velocity": 51,
                "duration": 0.1136363636363642,
                "tempo": 120.0
            },
            {
                "start_time": 4.695454545454545,
                "end_time": 4.777272727272727,
                "pitch": 72,
                "velocity": 51,
                "duration": 0.08181818181818201,
                "tempo": 120.0
            },
            {
                "start_time": 4.793181818181818,
                "end_time": 4.909090909090909,
                "pitch": 72,
                "velocity": 51,
                "duration": 0.11590909090909118,
                "tempo": 120.0
            },
            {
                "start_time": 4.925,
                "end_time": 5.006818181818182,
                "pitch": 84,
                "velocity": 51,
                "duration": 0.08181818181818201,
                "tempo": 120.0
            },
            {
                "start_time": 5.0227272727272725,
                "end_time": 5.140909090909091,
                "pitch": 72,
                "velocity": 51,
                "duration": 0.11818181818181817,
                "tempo": 120.0
            },
            {
                "start_time": 5.156818181818181,
                "end_time": 5.24090909090909,
                "pitch": 72,
                "velocity": 51,
                "duration": 0.084090909090909,
                "tempo": 120.0
            },
            {
                "start_time": 5.256818181818182,
                "end_time": 5.375,
                "pitch": 84,
                "velocity": 51,
                "duration": 0.11818181818181817,
                "tempo": 120.0
            },
            {
                "start_time": 5.390909090909091,
                "end_time": 5.475,
                "pitch": 72,
                "velocity": 51,
                "duration": 0.084090909090909,
                "tempo": 120.0
            },
            {
                "start_time": 5.493181818181818,
                "end_time": 5.713636363636363,
                "pitch": 72,
                "velocity": 51,
                "duration": 0.2204545454545448,
                "tempo": 120.0
            },
            {
                "start_time": 5.7318181818181815,
                "end_time": 5.852272727272727,
                "pitch": 84,
                "velocity": 51,
                "duration": 0.12045454545454515,
                "tempo": 120.0
            },
            {
                "start_time": 5.868181818181818,
                "end_time": 5.954545454545454,
                "pitch": 72,
                "velocity": 51,
                "duration": 0.08636363636363598,
                "tempo": 120.0
            },
            {
                "start_time": 5.972727272727273,
                "end_time": 6.084090909090909,
                "pitch": 72,
                "velocity": 51,
                "duration": 0.11136363636363633,
                "tempo": 120.0
            },
            {
                "start_time": 6.1,
                "end_time": 6.179545454545455,
                "pitch": 84,
                "velocity": 51,
                "duration": 0.07954545454545503,
                "tempo": 120.0
            },
            {
                "start_time": 6.195454545454545,
                "end_time": 6.306818181818182,
                "pitch": 72,
                "velocity": 51,
                "duration": 0.11136363636363633,
                "tempo": 120.0
            },
            {
                "start_time": 6.322727272727272,
                "end_time": 6.404545454545454,
                "pitch": 72,
                "velocity": 51,
                "duration": 0.08181818181818201,
                "tempo": 120.0
            },
            {
                "start_time": 6.420454545454545,
                "end_time": 6.536363636363636,
                "pitch": 84,
                "velocity": 51,
                "duration": 0.11590909090909118,
                "tempo": 120.0
            },
            {
                "start_time": 6.554545454545454,
                "end_time": 6.636363636363636,
                "pitch": 72,
                "velocity": 51,
                "duration": 0.08181818181818201,
                "tempo": 120.0
            },
            {
                "start_time": 6.654545454545454,
                "end_time": 6.7704545454545455,
                "pitch": 72,
                "velocity": 51,
                "duration": 0.11590909090909118,
                "tempo": 120.0
            },
            {
                "start_time": 6.788636363636363,
                "end_time": 6.872727272727272,
                "pitch": 84,
                "velocity": 51,
                "duration": 0.084090909090909,
                "tempo": 120.0
            },
            {
                "start_time": 6.888636363636364,
                "end_time": 7.006818181818182,
                "pitch": 72,
                "velocity": 51,
                "duration": 0.11818181818181817,
                "tempo": 120.0
            },
            {
                "start_time": 7.0227272727272725,
                "end_time": 7.1068181818181815,
                "pitch": 72,
                "velocity": 51,
                "duration": 0.084090909090909,
                "tempo": 120.0
            },
            {
                "start_time": 7.122727272727272,
                "end_time": 7.24090909090909,
                "pitch": 84,
                "velocity": 51,
                "duration": 0.11818181818181817,
                "tempo": 120.0
            },
            {
                "start_time": 7.256818181818182,
                "end_time": 7.340909090909091,
                "pitch": 72,
                "velocity": 51,
                "duration": 0.084090909090909,
                "tempo": 120.0
            },
            {
                "start_time": 7.3568181818181815,
                "end_time": 7.570454545454545,
                "pitch": 68,
                "velocity": 51,
                "duration": 0.21363636363636385,
                "tempo": 120.0
            },
            {
                "start_time": 7.586363636363636,
                "end_time": 7.702272727272727,
                "pitch": 79,
                "velocity": 51,
                "duration": 0.11590909090909118,
                "tempo": 120.0
            },
            {
                "start_time": 7.718181818181818,
                "end_time": 7.8,
                "pitch": 72,
                "velocity": 51,
                "duration": 0.08181818181818201,
                "tempo": 120.0
            },
            {
                "start_time": 7.8159090909090905,
                "end_time": 7.934090909090909,
                "pitch": 68,
                "velocity": 51,
                "duration": 0.11818181818181817,
                "tempo": 120.0
            },
            {
                "start_time": 7.949999999999999,
                "end_time": 8.034090909090908,
                "pitch": 79,
                "velocity": 51,
                "duration": 0.084090909090909,
                "tempo": 120.0
            },
            {
                "start_time": 8.049999999999999,
                "end_time": 8.168181818181818,
                "pitch": 72,
                "velocity": 51,
                "duration": 0.11818181818181905,
                "tempo": 120.0
            },
            {
                "start_time": 8.184090909090909,
                "end_time": 8.268181818181818,
                "pitch": 68,
                "velocity": 51,
                "duration": 0.084090909090909,
                "tempo": 120.0
            },
            {
                "start_time": 8.284090909090908,
                "end_time": 8.402272727272727,
                "pitch": 79,
                "velocity": 51,
                "duration": 0.11818181818181905,
                "tempo": 120.0
            },
            {
                "start_time": 8.418181818181818,
                "end_time": 8.502272727272727,
                "pitch": 72,
                "velocity": 51,
                "duration": 0.084090909090909,
                "tempo": 120.0
            },
            {
                "start_time": 8.520454545454545,
                "end_time": 8.636363636363637,
                "pitch": 68,
                "velocity": 51,
                "duration": 0.11590909090909207,
                "tempo": 120.0
            },
            {
                "start_time": 8.654545454545454,
                "end_time": 8.736363636363636,
                "pitch": 79,
                "velocity": 51,
                "duration": 0.08181818181818201,
                "tempo": 120.0
            },
            {
                "start_time": 8.754545454545454,
                "end_time": 8.868181818181817,
                "pitch": 68,
                "velocity": 51,
                "duration": 0.11363636363636331,
                "tempo": 120.0
            },
            {
                "start_time": 8.884090909090908,
                "end_time": 8.96590909090909,
                "pitch": 79,
                "velocity": 51,
                "duration": 0.08181818181818201,
                "tempo": 120.0
            },
            {
                "start_time": 8.98409090909091,
                "end_time": 9.097727272727273,
                "pitch": 72,
                "velocity": 51,
                "duration": 0.11363636363636331,
                "tempo": 120.0
            },
            {
                "start_time": 9.113636363636363,
                "end_time": 9.195454545454545,
                "pitch": 68,
                "velocity": 51,
                "duration": 0.08181818181818201,
                "tempo": 120.0
            },
            {
                "start_time": 9.211363636363636,
                "end_time": 9.429545454545455,
                "pitch": 68,
                "velocity": 51,
                "duration": 0.2181818181818187,
                "tempo": 120.0
            },
            {
                "start_time": 9.445454545454545,
                "end_time": 9.563636363636363,
                "pitch": 79,
                "velocity": 51,
                "duration": 0.11818181818181728,
                "tempo": 120.0
            },
            {
                "start_time": 9.579545454545453,
                "end_time": 9.663636363636364,
                "pitch": 72,
                "velocity": 51,
                "duration": 0.08409090909091077,
                "tempo": 120.0
            },
            {
                "start_time": 9.681818181818182,
                "end_time": 9.797727272727272,
                "pitch": 68,
                "velocity": 51,
                "duration": 0.1159090909090903,
                "tempo": 120.0
            },
            {
                "start_time": 9.81590909090909,
                "end_time": 9.897727272727272,
                "pitch": 79,
                "velocity": 51,
                "duration": 0.08181818181818201,
                "tempo": 120.0
            },
            {
                "start_time": 9.915909090909091,
                "end_time": 10.031818181818181,
                "pitch": 72,
                "velocity": 51,
                "duration": 0.1159090909090903,
                "tempo": 120.0
            },
            {
                "start_time": 10.049999999999999,
                "end_time": 10.134090909090908,
                "pitch": 68,
                "velocity": 51,
                "duration": 0.084090909090909,
                "tempo": 120.0
            },
            {
                "start_time": 10.15,
                "end_time": 10.368181818181817,
                "pitch": 79,
                "velocity": 51,
                "duration": 0.21818181818181692,
                "tempo": 120.0
            },
            {
                "start_time": 10.384090909090908,
                "end_time": 10.502272727272727,
                "pitch": 60,
                "velocity": 51,
                "duration": 0.11818181818181905,
                "tempo": 120.0
            },
            {
                "start_time": 10.518181818181818,
                "end_time": 10.602272727272727,
                "pitch": 60,
                "velocity": 51,
                "duration": 0.084090909090909,
                "tempo": 120.0
            },
            {
                "start_time": 11.088636363636363,
                "end_time": 11.295454545454545,
                "pitch": 70,
                "velocity": 51,
                "duration": 0.206818181818182,
                "tempo": 120.0
            },
            {
                "start_time": 11.311363636363636,
                "end_time": 11.422727272727272,
                "pitch": 82,
                "velocity": 51,
                "duration": 0.11136363636363633,
                "tempo": 120.0
            },
            {
                "start_time": 11.438636363636363,
                "end_time": 11.520454545454545,
                "pitch": 70,
                "velocity": 51,
                "duration": 0.08181818181818201,
                "tempo": 120.0
            },
            {
                "start_time": 11.536363636363635,
                "end_time": 11.654545454545454,
                "pitch": 70,
                "velocity": 51,
                "duration": 0.11818181818181905,
                "tempo": 120.0
            },
            {
                "start_time": 11.672727272727272,
                "end_time": 11.759090909090908,
                "pitch": 82,
                "velocity": 51,
                "duration": 0.08636363636363598,
                "tempo": 120.0
            },
            {
                "start_time": 11.774999999999999,
                "end_time": 11.895454545454545,
                "pitch": 70,
                "velocity": 51,
                "duration": 0.12045454545454604,
                "tempo": 120.0
            },
            {
                "start_time": 11.913636363636362,
                "end_time": 11.997727272727273,
                "pitch": 70,
                "velocity": 51,
                "duration": 0.08409090909091077,
                "tempo": 120.0
            },
            {
                "start_time": 12.01590909090909,
                "end_time": 12.129545454545454,
                "pitch": 82,
                "velocity": 51,
                "duration": 0.11363636363636331,
                "tempo": 120.0
            },
            {
                "start_time": 12.145454545454545,
                "end_time": 12.227272727272727,
                "pitch": 70,
                "velocity": 51,
                "duration": 0.08181818181818201,
                "tempo": 120.0
            },
            {
                "start_time": 12.245454545454544,
                "end_time": 12.35909090909091,
                "pitch": 70,
                "velocity": 51,
                "duration": 0.11363636363636509,
                "tempo": 120.0
            },
            {
                "start_time": 12.375,
                "end_time": 12.456818181818182,
                "pitch": 82,
                "velocity": 51,
                "duration": 0.08181818181818201,
                "tempo": 120.0
            },
            {
                "start_time": 12.472727272727273,
                "end_time": 12.59090909090909,
                "pitch": 70,
                "velocity": 51,
                "duration": 0.11818181818181728,
                "tempo": 120.0
            },
            {
                "start_time": 12.60681818181818,
                "end_time": 12.69090909090909,
                "pitch": 70,
                "velocity": 51,
                "duration": 0.084090909090909,
                "tempo": 120.0
            },
            {
                "start_time": 12.709090909090909,
                "end_time": 12.825,
                "pitch": 82,
                "velocity": 51,
                "duration": 0.1159090909090903,
                "tempo": 120.0
            },
            {
                "start_time": 12.843181818181817,
                "end_time": 12.924999999999999,
                "pitch": 70,
                "velocity": 51,
                "duration": 0.08181818181818201,
                "tempo": 120.0
            },
            {
                "start_time": 12.943181818181818,
                "end_time": 13.154545454545454,
                "pitch": 70,
                "velocity": 51,
                "duration": 0.21136363636363598,
                "tempo": 120.0
            },
            {
                "start_time": 13.172727272727272,
                "end_time": 13.286363636363635,
                "pitch": 82,
                "velocity": 51,
                "duration": 0.11363636363636331,
                "tempo": 120.0
            },
            {
                "start_time": 13.302272727272726,
                "end_time": 13.384090909090908,
                "pitch": 70,
                "velocity": 51,
                "duration": 0.08181818181818201,
                "tempo": 120.0
            },
            {
                "start_time": 13.399999999999999,
                "end_time": 13.518181818181818,
                "pitch": 70,
                "velocity": 51,
                "duration": 0.11818181818181905,
                "tempo": 120.0
            },
            {
                "start_time": 13.534090909090908,
                "end_time": 13.618181818181817,
                "pitch": 82,
                "velocity": 51,
                "duration": 0.084090909090909,
                "tempo": 120.0
            },
            {
                "start_time": 13.636363636363635,
                "end_time": 13.752272727272727,
                "pitch": 70,
                "velocity": 51,
                "duration": 0.11590909090909207,
                "tempo": 120.0
            },
            {
                "start_time": 13.770454545454545,
                "end_time": 13.852272727272727,
                "pitch": 70,
                "velocity": 51,
                "duration": 0.08181818181818201,
                "tempo": 120.0
            },
            {
                "start_time": 13.870454545454544,
                "end_time": 13.986363636363636,
                "pitch": 82,
                "velocity": 51,
                "duration": 0.11590909090909207,
                "tempo": 120.0
            },
            {
                "start_time": 14.004545454545454,
                "end_time": 14.088636363636363,
                "pitch": 70,
                "velocity": 51,
                "duration": 0.084090909090909,
                "tempo": 120.0
            },
            {
                "start_time": 14.104545454545454,
                "end_time": 14.222727272727273,
                "pitch": 70,
                "velocity": 51,
                "duration": 0.11818181818181905,
                "tempo": 120.0
            },
            {
                "start_time": 14.238636363636363,
                "end_time": 14.322727272727272,
                "pitch": 82,
                "velocity": 51,
                "duration": 0.084090909090909,
                "tempo": 120.0
            },
            {
                "start_time": 14.338636363636363,
                "end_time": 14.454545454545453,
                "pitch": 70,
                "velocity": 51,
                "duration": 0.1159090909090903,
                "tempo": 120.0
            },
            {
                "start_time": 14.470454545454544,
                "end_time": 14.552272727272726,
                "pitch": 70,
                "velocity": 51,
                "duration": 0.08181818181818201,
                "tempo": 120.0
            },
            {
                "start_time": 14.568181818181818,
                "end_time": 14.681818181818182,
                "pitch": 82,
                "velocity": 51,
                "duration": 0.11363636363636331,
                "tempo": 120.0
            },
            {
                "start_time": 14.7,
                "end_time": 14.781818181818181,
                "pitch": 70,
                "velocity": 51,
                "duration": 0.08181818181818201,
                "tempo": 120.0
            },
            {
                "start_time": 14.797727272727272,
                "end_time": 15.01590909090909,
                "pitch": 67,
                "velocity": 51,
                "duration": 0.2181818181818187,
                "tempo": 120.0
            },
            {
                "start_time": 15.031818181818181,
                "end_time": 15.147727272727272,
                "pitch": 74,
                "velocity": 51,
                "duration": 0.1159090909090903,
                "tempo": 120.0
            },
            {
                "start_time": 15.165909090909091,
                "end_time": 15.25,
                "pitch": 70,
                "velocity": 51,
                "duration": 0.084090909090909,
                "tempo": 120.0
            },
            {
                "start_time": 15.26590909090909,
                "end_time": 15.384090909090908,
                "pitch": 67,
                "velocity": 51,
                "duration": 0.11818181818181728,
                "tempo": 120.0
            },
            {
                "start_time": 15.399999999999999,
                "end_time": 15.484090909090908,
                "pitch": 74,
                "velocity": 51,
                "duration": 0.084090909090909,
                "tempo": 120.0
            },
            {
                "start_time": 15.5,
                "end_time": 15.618181818181817,
                "pitch": 70,
                "velocity": 51,
                "duration": 0.11818181818181728,
                "tempo": 120.0
            },
            {
                "start_time": 15.634090909090908,
                "end_time": 15.718181818181817,
                "pitch": 67,
                "velocity": 51,
                "duration": 0.084090909090909,
                "tempo": 120.0
            },
            {
                "start_time": 15.734090909090908,
                "end_time": 15.85,
                "pitch": 74,
                "velocity": 51,
                "duration": 0.11590909090909207,
                "tempo": 120.0
            },
            {
                "start_time": 15.86590909090909,
                "end_time": 15.947727272727272,
                "pitch": 70,
                "velocity": 51,
                "duration": 0.08181818181818201,
                "tempo": 120.0
            },
            {
                "start_time": 15.963636363636363,
                "end_time": 16.079545454545453,
                "pitch": 67,
                "velocity": 51,
                "duration": 0.1159090909090903,
                "tempo": 120.0
            },
            {
                "start_time": 16.095454545454544,
                "end_time": 16.177272727272726,
                "pitch": 74,
                "velocity": 51,
                "duration": 0.08181818181818201,
                "tempo": 120.0
            },
            {
                "start_time": 16.193181818181817,
                "end_time": 16.311363636363634,
                "pitch": 67,
                "velocity": 51,
                "duration": 0.11818181818181728,
                "tempo": 120.0
            },
            {
                "start_time": 16.327272727272728,
                "end_time": 16.411363636363635,
                "pitch": 74,
                "velocity": 51,
                "duration": 0.08409090909090722,
                "tempo": 120.0
            },
            {
                "start_time": 16.427272727272726,
                "end_time": 16.545454545454543,
                "pitch": 70,
                "velocity": 51,
                "duration": 0.11818181818181728,
                "tempo": 120.0
            },
            {
                "start_time": 16.561363636363634,
                "end_time": 16.645454545454545,
                "pitch": 67,
                "velocity": 51,
                "duration": 0.08409090909091077,
                "tempo": 120.0
            },
            {
                "start_time": 16.661363636363635,
                "end_time": 16.879545454545454,
                "pitch": 67,
                "velocity": 51,
                "duration": 0.2181818181818187,
                "tempo": 120.0
            },
            {
                "start_time": 16.897727272727273,
                "end_time": 17.013636363636362,
                "pitch": 74,
                "velocity": 51,
                "duration": 0.11590909090908852,
                "tempo": 120.0
            },
            {
                "start_time": 17.03181818181818,
                "end_time": 17.113636363636363,
                "pitch": 70,
                "velocity": 51,
                "duration": 0.08181818181818201,
                "tempo": 120.0
            },
            {
                "start_time": 17.131818181818183,
                "end_time": 17.24772727272727,
                "pitch": 67,
                "velocity": 51,
                "duration": 0.11590909090908852,
                "tempo": 120.0
            },
            {
                "start_time": 17.26590909090909,
                "end_time": 17.349999999999998,
                "pitch": 74,
                "velocity": 51,
                "duration": 0.08409090909090722,
                "tempo": 120.0
            },
            {
                "start_time": 17.36590909090909,
                "end_time": 17.48409090909091,
                "pitch": 70,
                "velocity": 51,
                "duration": 0.11818181818182083,
                "tempo": 120.0
            },
            {
                "start_time": 17.5,
                "end_time": 17.584090909090907,
                "pitch": 67,
                "velocity": 51,
                "duration": 0.08409090909090722,
                "tempo": 120.0
            },
            {
                "start_time": 17.599999999999998,
                "end_time": 17.71590909090909,
                "pitch": 74,
                "velocity": 51,
                "duration": 0.11590909090909207,
                "tempo": 120.0
            },
            {
                "start_time": 17.73181818181818,
                "end_time": 17.813636363636363,
                "pitch": 70,
                "velocity": 51,
                "duration": 0.08181818181818201,
                "tempo": 120.0
            },
            {
                "start_time": 17.829545454545453,
                "end_time": 17.943181818181817,
                "pitch": 67,
                "velocity": 51,
                "duration": 0.11363636363636331,
                "tempo": 120.0
            },
            {
                "start_time": 17.961363636363636,
                "end_time": 18.043181818181818,
                "pitch": 74,
                "velocity": 51,
                "duration": 0.08181818181818201,
                "tempo": 120.0
            },
            {
                "start_time": 18.05909090909091,
                "end_time": 18.175,
                "pitch": 67,
                "velocity": 51,
                "duration": 0.11590909090909207,
                "tempo": 120.0
            },
            {
                "start_time": 18.193181818181817,
                "end_time": 18.277272727272727,
                "pitch": 74,
                "velocity": 51,
                "duration": 0.08409090909091077,
                "tempo": 120.0
            },
            {
                "start_time": 18.293181818181818,
                "end_time": 18.409090909090907,
                "pitch": 70,
                "velocity": 51,
                "duration": 0.11590909090908852,
                "tempo": 120.0
            },
            {
                "start_time": 18.427272727272726,
                "end_time": 18.511363636363637,
                "pitch": 67,
                "velocity": 51,
                "duration": 0.08409090909091077,
                "tempo": 120.0
            },
            {
                "start_time": 18.527272727272727,
                "end_time": 18.74090909090909,
                "pitch": 70,
                "velocity": 51,
                "duration": 0.21363636363636118,
                "tempo": 120.0
            },
            {
                "start_time": 18.75681818181818,
                "end_time": 18.870454545454546,
                "pitch": 82,
                "velocity": 51,
                "duration": 0.11363636363636687,
                "tempo": 120.0
            },
            {
                "start_time": 18.886363636363637,
                "end_time": 18.96818181818182,
                "pitch": 70,
                "velocity": 51,
                "duration": 0.08181818181818201,
                "tempo": 120.0
            },
            {
                "start_time": 18.986363636363635,
                "end_time": 19.102272727272727,
                "pitch": 70,
                "velocity": 51,
                "duration": 0.11590909090909207,
                "tempo": 120.0
            },
            {
                "start_time": 19.120454545454546,
                "end_time": 19.202272727272728,
                "pitch": 82,
                "velocity": 51,
                "duration": 0.08181818181818201,
                "tempo": 120.0
            },
            {
                "start_time": 19.220454545454544,
                "end_time": 19.336363636363636,
                "pitch": 70,
                "velocity": 51,
                "duration": 0.11590909090909207,
                "tempo": 120.0
            },
            {
                "start_time": 19.354545454545452,
                "end_time": 19.438636363636363,
                "pitch": 70,
                "velocity": 51,
                "duration": 0.08409090909091077,
                "tempo": 120.0
            },
            {
                "start_time": 19.454545454545453,
                "end_time": 19.57272727272727,
                "pitch": 82,
                "velocity": 51,
                "duration": 0.11818181818181728,
                "tempo": 120.0
            },
            {
                "start_time": 19.59090909090909,
                "end_time": 19.675,
                "pitch": 70,
                "velocity": 51,
                "duration": 0.08409090909091077,
                "tempo": 120.0
            },
            {
                "start_time": 19.693181818181817,
                "end_time": 19.811363636363634,
                "pitch": 70,
                "velocity": 51,
                "duration": 0.11818181818181728,
                "tempo": 120.0
            },
            {
                "start_time": 19.829545454545453,
                "end_time": 19.913636363636364,
                "pitch": 82,
                "velocity": 51,
                "duration": 0.08409090909091077,
                "tempo": 120.0
            },
            {
                "start_time": 19.93181818181818,
                "end_time": 20.045454545454543,
                "pitch": 70,
                "velocity": 51,
                "duration": 0.11363636363636331,
                "tempo": 120.0
            },
            {
                "start_time": 20.061363636363634,
                "end_time": 20.143181818181816,
                "pitch": 70,
                "velocity": 51,
                "duration": 0.08181818181818201,
                "tempo": 120.0
            },
            {
                "start_time": 20.161363636363635,
                "end_time": 20.275,
                "pitch": 82,
                "velocity": 51,
                "duration": 0.11363636363636331,
                "tempo": 120.0
            },
            {
                "start_time": 20.29090909090909,
                "end_time": 20.37272727272727,
                "pitch": 70,
                "velocity": 51,
                "duration": 0.08181818181818201,
                "tempo": 120.0
            },
            {
                "start_time": 20.388636363636362,
                "end_time": 20.602272727272727,
                "pitch": 70,
                "velocity": 51,
                "duration": 0.21363636363636473,
                "tempo": 120.0
            },
            {
                "start_time": 20.618181818181817,
                "end_time": 20.73409090909091,
                "pitch": 82,
                "velocity": 51,
                "duration": 0.11590909090909207,
                "tempo": 120.0
            },
            {
                "start_time": 20.75,
                "end_time": 20.831818181818182,
                "pitch": 70,
                "velocity": 51,
                "duration": 0.08181818181818201,
                "tempo": 120.0
            },
            {
                "start_time": 20.847727272727273,
                "end_time": 20.96363636363636,
                "pitch": 70,
                "velocity": 51,
                "duration": 0.11590909090908852,
                "tempo": 120.0
            },
            {
                "start_time": 20.98181818181818,
                "end_time": 21.06590909090909,
                "pitch": 82,
                "velocity": 51,
                "duration": 0.08409090909091077,
                "tempo": 120.0
            },
            {
                "start_time": 21.081818181818182,
                "end_time": 21.2,
                "pitch": 70,
                "velocity": 51,
                "duration": 0.11818181818181728,
                "tempo": 120.0
            },
            {
                "start_time": 21.21590909090909,
                "end_time": 21.3,
                "pitch": 70,
                "velocity": 51,
                "duration": 0.08409090909091077,
                "tempo": 120.0
            },
            {
                "start_time": 21.31590909090909,
                "end_time": 21.43409090909091,
                "pitch": 82,
                "velocity": 51,
                "duration": 0.11818181818181728,
                "tempo": 120.0
            },
            {
                "start_time": 21.45,
                "end_time": 21.534090909090907,
                "pitch": 70,
                "velocity": 51,
                "duration": 0.08409090909090722,
                "tempo": 120.0
            },
            {
                "start_time": 21.55,
                "end_time": 21.668181818181818,
                "pitch": 70,
                "velocity": 51,
                "duration": 0.11818181818181728,
                "tempo": 120.0
            },
            {
                "start_time": 21.68409090909091,
                "end_time": 21.768181818181816,
                "pitch": 82,
                "velocity": 51,
                "duration": 0.08409090909090722,
                "tempo": 120.0
            },
            {
                "start_time": 21.786363636363635,
                "end_time": 21.9,
                "pitch": 70,
                "velocity": 51,
                "duration": 0.11363636363636331,
                "tempo": 120.0
            },
            {
                "start_time": 21.91590909090909,
                "end_time": 21.99772727272727,
                "pitch": 70,
                "velocity": 51,
                "duration": 0.08181818181818201,
                "tempo": 120.0
            },
            {
                "start_time": 22.013636363636362,
                "end_time": 22.129545454545454,
                "pitch": 82,
                "velocity": 51,
                "duration": 0.11590909090909207,
                "tempo": 120.0
            },
            {
                "start_time": 22.145454545454545,
                "end_time": 22.227272727272727,
                "pitch": 70,
                "velocity": 51,
                "duration": 0.08181818181818201,
                "tempo": 120.0
            },
            {
                "start_time": 22.243181818181817,
                "end_time": 22.461363636363636,
                "pitch": 67,
                "velocity": 51,
                "duration": 0.2181818181818187,
                "tempo": 120.0
            },
            {
                "start_time": 22.477272727272727,
                "end_time": 22.595454545454544,
                "pitch": 74,
                "velocity": 51,
                "duration": 0.11818181818181728,
                "tempo": 120.0
            },
            {
                "start_time": 22.611363636363635,
                "end_time": 22.695454545454545,
                "pitch": 70,
                "velocity": 51,
                "duration": 0.08409090909091077,
                "tempo": 120.0
            },
            {
                "start_time": 22.71363636363636,
                "end_time": 22.827272727272724,
                "pitch": 67,
                "velocity": 51,
                "duration": 0.11363636363636331,
                "tempo": 120.0
            },
            {
                "start_time": 22.84318181818182,
                "end_time": 22.924999999999997,
                "pitch": 74,
                "velocity": 51,
                "duration": 0.08181818181817846,
                "tempo": 120.0
            },
            {
                "start_time": 22.94090909090909,
                "end_time": 23.05681818181818,
                "pitch": 70,
                "velocity": 51,
                "duration": 0.11590909090908852,
                "tempo": 120.0
            },
            {
                "start_time": 23.07272727272727,
                "end_time": 23.154545454545453,
                "pitch": 67,
                "velocity": 51,
                "duration": 0.08181818181818201,
                "tempo": 120.0
            },
            {
                "start_time": 23.170454545454543,
                "end_time": 23.29090909090909,
                "pitch": 74,
                "velocity": 51,
                "duration": 0.12045454545454604,
                "tempo": 120.0
            },
            {
                "start_time": 23.30681818181818,
                "end_time": 23.393181818181816,
                "pitch": 70,
                "velocity": 51,
                "duration": 0.08636363636363598,
                "tempo": 120.0
            },
            {
                "start_time": 23.411363636363635,
                "end_time": 23.529545454545453,
                "pitch": 67,
                "velocity": 51,
                "duration": 0.11818181818181728,
                "tempo": 120.0
            },
            {
                "start_time": 23.547727272727272,
                "end_time": 23.634090909090908,
                "pitch": 74,
                "velocity": 51,
                "duration": 0.08636363636363598,
                "tempo": 120.0
            },
            {
                "start_time": 23.65,
                "end_time": 23.76590909090909,
                "pitch": 67,
                "velocity": 51,
                "duration": 0.11590909090909207,
                "tempo": 120.0
            },
            {
                "start_time": 23.78181818181818,
                "end_time": 23.863636363636363,
                "pitch": 74,
                "velocity": 51,
                "duration": 0.08181818181818201,
                "tempo": 120.0
            },
            {
                "start_time": 23.879545454545454,
                "end_time": 23.995454545454546,
                "pitch": 70,
                "velocity": 51,
                "duration": 0.11590909090909207,
                "tempo": 120.0
            },
            {
                "start_time": 24.011363636363637,
                "end_time": 24.09318181818182,
                "pitch": 67,
                "velocity": 51,
                "duration": 0.08181818181818201,
                "tempo": 120.0
            },
            {
                "start_time": 24.10909090909091,
                "end_time": 24.32272727272727,
                "pitch": 67,
                "velocity": 51,
                "duration": 0.21363636363636118,
                "tempo": 120.0
            },
            {
                "start_time": 24.33863636363636,
                "end_time": 24.452272727272724,
                "pitch": 74,
                "velocity": 51,
                "duration": 0.11363636363636331,
                "tempo": 120.0
            },
            {
                "start_time": 24.46818181818182,
                "end_time": 24.549999999999997,
                "pitch": 70,
                "velocity": 51,
                "duration": 0.08181818181817846,
                "tempo": 120.0
            },
            {
                "start_time": 24.568181818181817,
                "end_time": 24.68409090909091,
                "pitch": 67,
                "velocity": 51,
                "duration": 0.11590909090909207,
                "tempo": 120.0
            },
            {
                "start_time": 24.702272727272724,
                "end_time": 24.784090909090907,
                "pitch": 74,
                "velocity": 51,
                "duration": 0.08181818181818201,
                "tempo": 120.0
            },
            {
                "start_time": 24.802272727272726,
                "end_time": 24.918181818181818,
                "pitch": 70,
                "velocity": 51,
                "duration": 0.11590909090909207,
                "tempo": 120.0
            },
            {
                "start_time": 24.936363636363634,
                "end_time": 25.020454545454545,
                "pitch": 67,
                "velocity": 51,
                "duration": 0.08409090909091077,
                "tempo": 120.0
            },
            {
                "start_time": 25.036363636363635,
                "end_time": 25.15681818181818,
                "pitch": 74,
                "velocity": 51,
                "duration": 0.12045454545454604,
                "tempo": 120.0
            },
            {
                "start_time": 25.172727272727272,
                "end_time": 25.259090909090908,
                "pitch": 70,
                "velocity": 51,
                "duration": 0.08636363636363598,
                "tempo": 120.0
            },
            {
                "start_time": 25.275,
                "end_time": 25.395454545454545,
                "pitch": 67,
                "velocity": 51,
                "duration": 0.12045454545454604,
                "tempo": 120.0
            },
            {
                "start_time": 25.413636363636364,
                "end_time": 25.5,
                "pitch": 74,
                "velocity": 51,
                "duration": 0.08636363636363598,
                "tempo": 120.0
            },
            {
                "start_time": 25.51590909090909,
                "end_time": 25.63181818181818,
                "pitch": 67,
                "velocity": 51,
                "duration": 0.11590909090908852,
                "tempo": 120.0
            },
            {
                "start_time": 25.64772727272727,
                "end_time": 25.729545454545452,
                "pitch": 74,
                "velocity": 51,
                "duration": 0.08181818181818201,
                "tempo": 120.0
            },
            {
                "start_time": 25.745454545454542,
                "end_time": 25.861363636363635,
                "pitch": 70,
                "velocity": 51,
                "duration": 0.11590909090909207,
                "tempo": 120.0
            },
            {
                "start_time": 25.877272727272725,
                "end_time": 25.959090909090907,
                "pitch": 67,
                "velocity": 51,
                "duration": 0.08181818181818201,
                "tempo": 120.0
            },
            {
                "start_time": 25.974999999999998,
                "end_time": 26.188636363636363,
                "pitch": 72,
                "velocity": 51,
                "duration": 0.21363636363636473,
                "tempo": 120.0
            },
            {
                "start_time": 26.204545454545453,
                "end_time": 26.318181818181817,
                "pitch": 84,
                "velocity": 51,
                "duration": 0.11363636363636331,
                "tempo": 120.0
            },
            {
                "start_time": 26.334090909090907,
                "end_time": 26.41590909090909,
                "pitch": 72,
                "velocity": 51,
                "duration": 0.08181818181818201,
                "tempo": 120.0
            },
            {
                "start_time": 26.43409090909091,
                "end_time": 26.549999999999997,
                "pitch": 72,
                "velocity": 51,
                "duration": 0.11590909090908852,
                "tempo": 120.0
            },
            {
                "start_time": 26.56590909090909,
                "end_time": 26.65,
                "pitch": 84,
                "velocity": 51,
                "duration": 0.08409090909090722,
                "tempo": 120.0
            },
            {
                "start_time": 26.668181818181818,
                "end_time": 26.784090909090907,
                "pitch": 72,
                "velocity": 51,
                "duration": 0.11590909090908852,
                "tempo": 120.0
            },
            {
                "start_time": 26.802272727272726,
                "end_time": 26.884090909090908,
                "pitch": 72,
                "velocity": 51,
                "duration": 0.08181818181818201,
                "tempo": 120.0
            },
            {
                "start_time": 26.902272727272727,
                "end_time": 27.01590909090909,
                "pitch": 84,
                "velocity": 51,
                "duration": 0.11363636363636331,
                "tempo": 120.0
            },
            {
                "start_time": 27.03181818181818,
                "end_time": 27.113636363636363,
                "pitch": 72,
                "velocity": 51,
                "duration": 0.08181818181818201,
                "tempo": 120.0
            },
            {
                "start_time": 27.13181818181818,
                "end_time": 27.245454545454542,
                "pitch": 72,
                "velocity": 51,
                "duration": 0.11363636363636331,
                "tempo": 120.0
            },
            {
                "start_time": 27.261363636363637,
                "end_time": 27.343181818181815,
                "pitch": 84,
                "velocity": 51,
                "duration": 0.08181818181817846,
                "tempo": 120.0
            },
            {
                "start_time": 27.35909090909091,
                "end_time": 27.477272727272727,
                "pitch": 72,
                "velocity": 51,
                "duration": 0.11818181818181728,
                "tempo": 120.0
            },
            {
                "start_time": 27.493181818181817,
                "end_time": 27.577272727272724,
                "pitch": 72,
                "velocity": 51,
                "duration": 0.08409090909090722,
                "tempo": 120.0
            },
            {
                "start_time": 27.595454545454544,
                "end_time": 27.711363636363636,
                "pitch": 84,
                "velocity": 51,
                "duration": 0.11590909090909207,
                "tempo": 120.0
            },
            {
                "start_time": 27.729545454545452,
                "end_time": 27.811363636363634,
                "pitch": 72,
                "velocity": 51,
                "duration": 0.08181818181818201,
                "tempo": 120.0
            },
            {
                "start_time": 27.829545454545453,
                "end_time": 28.052272727272726,
                "pitch": 72,
                "velocity": 51,
                "duration": 0.22272727272727266,
                "tempo": 120.0
            },
            {
                "start_time": 28.068181818181817,
                "end_time": 28.188636363636363,
                "pitch": 84,
                "velocity": 51,
                "duration": 0.12045454545454604,
                "tempo": 120.0
            },
            {
                "start_time": 28.206818181818182,
                "end_time": 28.29090909090909,
                "pitch": 72,
                "velocity": 51,
                "duration": 0.08409090909090722,
                "tempo": 120.0
            },
            {
                "start_time": 28.30909090909091,
                "end_time": 28.420454545454543,
                "pitch": 72,
                "velocity": 51,
                "duration": 0.11136363636363455,
                "tempo": 120.0
            },
            {
                "start_time": 28.436363636363634,
                "end_time": 28.51590909090909,
                "pitch": 84,
                "velocity": 51,
                "duration": 0.0795454545454568,
                "tempo": 120.0
            },
            {
                "start_time": 28.53181818181818,
                "end_time": 28.645454545454545,
                "pitch": 72,
                "velocity": 51,
                "duration": 0.11363636363636331,
                "tempo": 120.0
            },
            {
                "start_time": 28.661363636363635,
                "end_time": 28.74090909090909,
                "pitch": 72,
                "velocity": 51,
                "duration": 0.07954545454545325,
                "tempo": 120.0
            },
            {
                "start_time": 28.75681818181818,
                "end_time": 28.875,
                "pitch": 84,
                "velocity": 51,
                "duration": 0.11818181818182083,
                "tempo": 120.0
            },
            {
                "start_time": 28.89090909090909,
                "end_time": 28.974999999999998,
                "pitch": 72,
                "velocity": 51,
                "duration": 0.08409090909090722,
                "tempo": 120.0
            },
            {
                "start_time": 28.99090909090909,
                "end_time": 29.10909090909091,
                "pitch": 72,
                "velocity": 51,
                "duration": 0.11818181818182083,
                "tempo": 120.0
            },
            {
                "start_time": 29.125,
                "end_time": 29.209090909090907,
                "pitch": 84,
                "velocity": 51,
                "duration": 0.08409090909090722,
                "tempo": 120.0
            },
            {
                "start_time": 29.224999999999998,
                "end_time": 29.343181818181815,
                "pitch": 72,
                "velocity": 51,
                "duration": 0.11818181818181728,
                "tempo": 120.0
            },
            {
                "start_time": 29.35909090909091,
                "end_time": 29.443181818181817,
                "pitch": 72,
                "velocity": 51,
                "duration": 0.08409090909090722,
                "tempo": 120.0
            },
            {
                "start_time": 29.461363636363636,
                "end_time": 29.577272727272724,
                "pitch": 84,
                "velocity": 51,
                "duration": 0.11590909090908852,
                "tempo": 120.0
            },
            {
                "start_time": 29.595454545454544,
                "end_time": 29.677272727272726,
                "pitch": 72,
                "velocity": 51,
                "duration": 0.08181818181818201,
                "tempo": 120.0
            },
            {
                "start_time": 29.695454545454545,
                "end_time": 29.90681818181818,
                "pitch": 68,
                "velocity": 51,
                "duration": 0.21136363636363598,
                "tempo": 120.0
            },
            {
                "start_time": 29.922727272727272,
                "end_time": 30.03863636363636,
                "pitch": 79,
                "velocity": 51,
                "duration": 0.11590909090908852,
                "tempo": 120.0
            },
            {
                "start_time": 30.054545454545455,
                "end_time": 30.136363636363633,
                "pitch": 72,
                "velocity": 51,
                "duration": 0.08181818181817846,
                "tempo": 120.0
            },
            {
                "start_time": 30.152272727272727,
                "end_time": 30.270454545454545,
                "pitch": 68,
                "velocity": 51,
                "duration": 0.11818181818181728,
                "tempo": 120.0
            },
            {
                "start_time": 30.286363636363635,
                "end_time": 30.370454545454542,
                "pitch": 79,
                "velocity": 51,
                "duration": 0.08409090909090722,
                "tempo": 120.0
            },
            {
                "start_time": 30.386363636363633,
                "end_time": 30.504545454545454,
                "pitch": 72,
                "velocity": 51,
                "duration": 0.11818181818182083,
                "tempo": 120.0
            },
            {
                "start_time": 30.520454545454545,
                "end_time": 30.604545454545452,
                "pitch": 68,
                "velocity": 51,
                "duration": 0.08409090909090722,
                "tempo": 120.0
            },
            {
                "start_time": 30.62272727272727,
                "end_time": 30.738636363636363,
                "pitch": 79,
                "velocity": 51,
                "duration": 0.11590909090909207,
                "tempo": 120.0
            },
            {
                "start_time": 30.75681818181818,
                "end_time": 30.83863636363636,
                "pitch": 72,
                "velocity": 51,
                "duration": 0.08181818181818201,
                "tempo": 120.0
            },
            {
                "start_time": 30.85681818181818,
                "end_time": 30.972727272727273,
                "pitch": 68,
                "velocity": 51,
                "duration": 0.11590909090909207,
                "tempo": 120.0
            },
            {
                "start_time": 30.99090909090909,
                "end_time": 31.075,
                "pitch": 79,
                "velocity": 51,
                "duration": 0.08409090909091077,
                "tempo": 120.0
            },
            {
                "start_time": 31.09090909090909,
                "end_time": 31.209090909090907,
                "pitch": 68,
                "velocity": 51,
                "duration": 0.11818181818181728,
                "tempo": 120.0
            },
            {
                "start_time": 31.224999999999998,
                "end_time": 31.30909090909091,
                "pitch": 79,
                "velocity": 51,
                "duration": 0.08409090909091077,
                "tempo": 120.0
            },
            {
                "start_time": 31.325,
                "end_time": 31.443181818181817,
                "pitch": 72,
                "velocity": 51,
                "duration": 0.11818181818181728,
                "tempo": 120.0
            },
            {
                "start_time": 31.459090909090907,
                "end_time": 31.543181818181818,
                "pitch": 68,
                "velocity": 51,
                "duration": 0.08409090909091077,
                "tempo": 120.0
            },
            {
                "start_time": 31.55909090909091,
                "end_time": 31.777272727272727,
                "pitch": 68,
                "velocity": 51,
                "duration": 0.2181818181818187,
                "tempo": 120.0
            },
            {
                "start_time": 31.795454545454543,
                "end_time": 31.911363636363635,
                "pitch": 79,
                "velocity": 51,
                "duration": 0.11590909090909207,
                "tempo": 120.0
            },
            {
                "start_time": 31.929545454545455,
                "end_time": 32.01136363636363,
                "pitch": 72,
                "velocity": 51,
                "duration": 0.08181818181817846,
                "tempo": 120.0
            },
            {
                "start_time": 32.029545454545456,
                "end_time": 32.143181818181816,
                "pitch": 68,
                "velocity": 51,
                "duration": 0.11363636363635976,
                "tempo": 120.0
            },
            {
                "start_time": 32.15909090909091,
                "end_time": 32.24090909090909,
                "pitch": 79,
                "velocity": 51,
                "duration": 0.08181818181818556,
                "tempo": 120.0
            },
            {
                "start_time": 32.25909090909091,
                "end_time": 32.37272727272727,
                "pitch": 72,
                "velocity": 51,
                "duration": 0.11363636363635976,
                "tempo": 120.0
            },
            {
                "start_time": 32.388636363636365,
                "end_time": 32.470454545454544,
                "pitch": 68,
                "velocity": 51,
                "duration": 0.08181818181817846,
                "tempo": 120.0
            },
            {
                "start_time": 32.486363636363635,
                "end_time": 32.60227272727273,
                "pitch": 79,
                "velocity": 51,
                "duration": 0.11590909090909207,
                "tempo": 120.0
            },
            {
                "start_time": 32.61818181818182,
                "end_time": 32.699999999999996,
                "pitch": 72,
                "velocity": 51,
                "duration": 0.08181818181817846,
                "tempo": 120.0
            },
            {
                "start_time": 32.715909090909086,
                "end_time": 32.83181818181818,
                "pitch": 68,
                "velocity": 51,
                "duration": 0.11590909090909207,
                "tempo": 120.0
            },
            {
                "start_time": 32.84772727272727,
                "end_time": 32.929545454545455,
                "pitch": 79,
                "velocity": 51,
                "duration": 0.08181818181818556,
                "tempo": 120.0
            },
            {
                "start_time": 32.945454545454545,
                "end_time": 33.06363636363636,
                "pitch": 72,
                "velocity": 51,
                "duration": 0.11818181818181728,
                "tempo": 120.0
            },
            {
                "start_time": 33.07954545454545,
                "end_time": 33.163636363636364,
                "pitch": 68,
                "velocity": 51,
                "duration": 0.08409090909091077,
                "tempo": 120.0
            },
            {
                "start_time": 33.179545454545455,
                "end_time": 33.29772727272727,
                "pitch": 79,
                "velocity": 51,
                "duration": 0.11818181818181728,
                "tempo": 120.0
            },
            {
                "start_time": 33.31363636363636,
                "end_time": 33.39772727272727,
                "pitch": 72,
                "velocity": 51,
                "duration": 0.08409090909091077,
                "tempo": 120.0
            },
            {
                "start_time": 33.413636363636364,
                "end_time": 33.627272727272725,
                "pitch": 70,
                "velocity": 51,
                "duration": 0.21363636363636118,
                "tempo": 120.0
            },
            {
                "start_time": 33.643181818181816,
                "end_time": 33.75909090909091,
                "pitch": 82,
                "velocity": 51,
                "duration": 0.11590909090909207,
                "tempo": 120.0
            },
            {
                "start_time": 33.775,
                "end_time": 33.85681818181818,
                "pitch": 70,
                "velocity": 51,
                "duration": 0.08181818181817846,
                "tempo": 120.0
            },
            {
                "start_time": 33.87272727272727,
                "end_time": 33.99090909090909,
                "pitch": 70,
                "velocity": 51,
                "duration": 0.11818181818182438,
                "tempo": 120.0
            },
            {
                "start_time": 34.00909090909091,
                "end_time": 34.09318181818182,
                "pitch": 82,
                "velocity": 51,
                "duration": 0.08409090909091077,
                "tempo": 120.0
            },
            {
                "start_time": 34.111363636363635,
                "end_time": 34.22954545454545,
                "pitch": 70,
                "velocity": 51,
                "duration": 0.11818181818181728,
                "tempo": 120.0
            },
            {
                "start_time": 34.24772727272727,
                "end_time": 34.33181818181818,
                "pitch": 70,
                "velocity": 51,
                "duration": 0.08409090909091077,
                "tempo": 120.0
            },
            {
                "start_time": 34.34772727272727,
                "end_time": 34.46363636363636,
                "pitch": 82,
                "velocity": 51,
                "duration": 0.11590909090909207,
                "tempo": 120.0
            },
            {
                "start_time": 34.47954545454545,
                "end_time": 34.56136363636364,
                "pitch": 70,
                "velocity": 51,
                "duration": 0.08181818181818556,
                "tempo": 120.0
            },
            {
                "start_time": 34.57727272727273,
                "end_time": 34.69318181818181,
                "pitch": 70,
                "velocity": 51,
                "duration": 0.11590909090908497,
                "tempo": 120.0
            },
            {
                "start_time": 34.70909090909091,
                "end_time": 34.79090909090909,
                "pitch": 82,
                "velocity": 51,
                "duration": 0.08181818181817846,
                "tempo": 120.0
            },
            {
                "start_time": 34.80681818181818,
                "end_time": 34.925,
                "pitch": 70,
                "velocity": 51,
                "duration": 0.11818181818181728,
                "tempo": 120.0
            },
            {
                "start_time": 34.94090909090909,
                "end_time": 35.025,
                "pitch": 70,
                "velocity": 51,
                "duration": 0.08409090909091077,
                "tempo": 120.0
            },
            {
                "start_time": 35.04090909090909,
                "end_time": 35.15909090909091,
                "pitch": 82,
                "velocity": 51,
                "duration": 0.11818181818181728,
                "tempo": 120.0
            },
            {
                "start_time": 35.175,
                "end_time": 35.25909090909091,
                "pitch": 70,
                "velocity": 51,
                "duration": 0.08409090909091077,
                "tempo": 120.0
            },
            {
                "start_time": 35.275,
                "end_time": 35.48863636363636,
                "pitch": 70,
                "velocity": 51,
                "duration": 0.21363636363636118,
                "tempo": 120.0
            },
            {
                "start_time": 35.50454545454545,
                "end_time": 35.62045454545454,
                "pitch": 82,
                "velocity": 51,
                "duration": 0.11590909090909207,
                "tempo": 120.0
            },
            {
                "start_time": 35.63636363636363,
                "end_time": 35.71818181818182,
                "pitch": 70,
                "velocity": 51,
                "duration": 0.08181818181818556,
                "tempo": 120.0
            },
            {
                "start_time": 35.73409090909091,
                "end_time": 35.85227272727273,
                "pitch": 70,
                "velocity": 51,
                "duration": 0.11818181818181728,
                "tempo": 120.0
            },
            {
                "start_time": 35.86818181818182,
                "end_time": 35.95227272727273,
                "pitch": 82,
                "velocity": 51,
                "duration": 0.08409090909091077,
                "tempo": 120.0
            },
            {
                "start_time": 35.96818181818182,
                "end_time": 36.086363636363636,
                "pitch": 70,
                "velocity": 51,
                "duration": 0.11818181818181728,
                "tempo": 120.0
            },
            {
                "start_time": 36.10227272727273,
                "end_time": 36.18636363636364,
                "pitch": 70,
                "velocity": 51,
                "duration": 0.08409090909091077,
                "tempo": 120.0
            },
            {
                "start_time": 36.20227272727273,
                "end_time": 36.320454545454545,
                "pitch": 82,
                "velocity": 51,
                "duration": 0.11818181818181728,
                "tempo": 120.0
            },
            {
                "start_time": 36.336363636363636,
                "end_time": 36.42045454545455,
                "pitch": 70,
                "velocity": 51,
                "duration": 0.08409090909091077,
                "tempo": 120.0
            },
            {
                "start_time": 36.43863636363636,
                "end_time": 36.554545454545455,
                "pitch": 70,
                "velocity": 51,
                "duration": 0.11590909090909207,
                "tempo": 120.0
            },
            {
                "start_time": 36.57272727272727,
                "end_time": 36.654545454545456,
                "pitch": 82,
                "velocity": 51,
                "duration": 0.08181818181818556,
                "tempo": 120.0
            },
            {
                "start_time": 36.67272727272727,
                "end_time": 36.78636363636363,
                "pitch": 70,
                "velocity": 51,
                "duration": 0.11363636363635976,
                "tempo": 120.0
            },
            {
                "start_time": 36.80227272727272,
                "end_time": 36.88409090909091,
                "pitch": 70,
                "velocity": 51,
                "duration": 0.08181818181818556,
                "tempo": 120.0
            },
            {
                "start_time": 36.902272727272724,
                "end_time": 37.01590909090909,
                "pitch": 82,
                "velocity": 51,
                "duration": 0.11363636363636687,
                "tempo": 120.0
            },
            {
                "start_time": 37.03181818181818,
                "end_time": 37.11363636363636,
                "pitch": 70,
                "velocity": 51,
                "duration": 0.08181818181817846,
                "tempo": 120.0
            },
            {
                "start_time": 37.12954545454545,
                "end_time": 37.34772727272727,
                "pitch": 67,
                "velocity": 51,
                "duration": 0.2181818181818187,
                "tempo": 120.0
            },
            {
                "start_time": 37.36590909090909,
                "end_time": 37.48181818181818,
                "pitch": 74,
                "velocity": 51,
                "duration": 0.11590909090908497,
                "tempo": 120.0
            },
            {
                "start_time": 37.49772727272727,
                "end_time": 37.58181818181818,
                "pitch": 70,
                "velocity": 51,
                "duration": 0.08409090909091077,
                "tempo": 120.0
            },
            {
                "start_time": 37.6,
                "end_time": 37.715909090909086,
                "pitch": 67,
                "velocity": 51,
                "duration": 0.11590909090908497,
                "tempo": 120.0
            },
            {
                "start_time": 37.73409090909091,
                "end_time": 37.81818181818181,
                "pitch": 74,
                "velocity": 51,
                "duration": 0.08409090909090366,
                "tempo": 120.0
            },
            {
                "start_time": 37.83409090909091,
                "end_time": 37.949999999999996,
                "pitch": 70,
                "velocity": 51,
                "duration": 0.11590909090908497,
                "tempo": 120.0
            },
            {
                "start_time": 37.96818181818182,
                "end_time": 38.05227272727272,
                "pitch": 67,
                "velocity": 51,
                "duration": 0.08409090909090366,
                "tempo": 120.0
            },
            {
                "start_time": 38.06818181818181,
                "end_time": 38.18181818181818,
                "pitch": 74,
                "velocity": 51,
                "duration": 0.11363636363636687,
                "tempo": 120.0
            },
            {
                "start_time": 38.199999999999996,
                "end_time": 38.28181818181818,
                "pitch": 70,
                "velocity": 51,
                "duration": 0.08181818181818556,
                "tempo": 120.0
            },
            {
                "start_time": 38.29772727272727,
                "end_time": 38.41136363636363,
                "pitch": 67,
                "velocity": 51,
                "duration": 0.11363636363635976,
                "tempo": 120.0
            },
            {
                "start_time": 38.42727272727272,
                "end_time": 38.50909090909091,
                "pitch": 74,
                "velocity": 51,
                "duration": 0.08181818181818556,
                "tempo": 120.0
            },
            {
                "start_time": 38.527272727272724,
                "end_time": 38.643181818181816,
                "pitch": 67,
                "velocity": 51,
                "duration": 0.11590909090909207,
                "tempo": 120.0
            },
            {
                "start_time": 38.66136363636363,
                "end_time": 38.74318181818182,
                "pitch": 74,
                "velocity": 51,
                "duration": 0.08181818181818556,
                "tempo": 120.0
            },
            {
                "start_time": 38.76136363636363,
                "end_time": 38.877272727272725,
                "pitch": 70,
                "velocity": 51,
                "duration": 0.11590909090909207,
                "tempo": 120.0
            },
            {
                "start_time": 38.89545454545454,
                "end_time": 38.97954545454545,
                "pitch": 67,
                "velocity": 51,
                "duration": 0.08409090909091077,
                "tempo": 120.0
            },
            {
                "start_time": 38.99545454545454,
                "end_time": 39.21363636363636,
                "pitch": 67,
                "velocity": 51,
                "duration": 0.2181818181818187,
                "tempo": 120.0
            },
            {
                "start_time": 39.22954545454545,
                "end_time": 39.34772727272727,
                "pitch": 74,
                "velocity": 51,
                "duration": 0.11818181818181728,
                "tempo": 120.0
            },
            {
                "start_time": 39.36363636363636,
                "end_time": 39.44772727272727,
                "pitch": 70,
                "velocity": 51,
                "duration": 0.08409090909091077,
                "tempo": 120.0
            },
            {
                "start_time": 39.46363636363636,
                "end_time": 39.58181818181818,
                "pitch": 67,
                "velocity": 51,
                "duration": 0.11818181818181728,
                "tempo": 120.0
            },
            {
                "start_time": 39.59772727272727,
                "end_time": 39.68181818181818,
                "pitch": 74,
                "velocity": 51,
                "duration": 0.08409090909091077,
                "tempo": 120.0
            },
            {
                "start_time": 39.699999999999996,
                "end_time": 39.81590909090909,
                "pitch": 70,
                "velocity": 51,
                "duration": 0.11590909090909207,
                "tempo": 120.0
            },
            {
                "start_time": 39.834090909090904,
                "end_time": 39.91590909090909,
                "pitch": 67,
                "velocity": 51,
                "duration": 0.08181818181818556,
                "tempo": 120.0
            },
            {
                "start_time": 39.934090909090905,
                "end_time": 40.04772727272727,
                "pitch": 74,
                "velocity": 51,
                "duration": 0.11363636363636687,
                "tempo": 120.0
            },
            {
                "start_time": 40.06363636363636,
                "end_time": 40.14545454545454,
                "pitch": 70,
                "velocity": 51,
                "duration": 0.08181818181817846,
                "tempo": 120.0
            },
            {
                "start_time": 40.163636363636364,
                "end_time": 40.277272727272724,
                "pitch": 67,
                "velocity": 51,
                "duration": 0.11363636363635976,
                "tempo": 120.0
            },
            {
                "start_time": 40.293181818181814,
                "end_time": 40.375,
                "pitch": 74,
                "velocity": 51,
                "duration": 0.08181818181818556,
                "tempo": 120.0
            },
            {
                "start_time": 40.39090909090909,
                "end_time": 40.50909090909091,
                "pitch": 67,
                "velocity": 51,
                "duration": 0.11818181818181728,
                "tempo": 120.0
            },
            {
                "start_time": 40.525,
                "end_time": 40.60909090909091,
                "pitch": 74,
                "velocity": 51,
                "duration": 0.08409090909091077,
                "tempo": 120.0
            },
            {
                "start_time": 40.625,
                "end_time": 40.74318181818182,
                "pitch": 70,
                "velocity": 51,
                "duration": 0.11818181818181728,
                "tempo": 120.0
            },
            {
                "start_time": 40.75909090909091,
                "end_time": 40.84318181818182,
                "pitch": 67,
                "velocity": 51,
                "duration": 0.08409090909091077,
                "tempo": 120.0
            },
            {
                "start_time": 40.861363636363635,
                "end_time": 41.07272727272727,
                "pitch": 70,
                "velocity": 51,
                "duration": 0.21136363636363598,
                "tempo": 120.0
            },
            {
                "start_time": 41.08863636363636,
                "end_time": 41.20454545454545,
                "pitch": 82,
                "velocity": 51,
                "duration": 0.11590909090909207,
                "tempo": 120.0
            },
            {
                "start_time": 41.220454545454544,
                "end_time": 41.30227272727272,
                "pitch": 70,
                "velocity": 51,
                "duration": 0.08181818181817846,
                "tempo": 120.0
            },
            {
                "start_time": 41.31818181818181,
                "end_time": 41.43863636363636,
                "pitch": 70,
                "velocity": 51,
                "duration": 0.12045454545454959,
                "tempo": 120.0
            },
            {
                "start_time": 41.45454545454545,
                "end_time": 41.538636363636364,
                "pitch": 82,
                "velocity": 51,
                "duration": 0.08409090909091077,
                "tempo": 120.0
            },
            {
                "start_time": 41.55681818181818,
                "end_time": 41.675,
                "pitch": 70,
                "velocity": 51,
                "duration": 0.11818181818181728,
                "tempo": 120.0
            },
            {
                "start_time": 41.69318181818181,
                "end_time": 41.777272727272724,
                "pitch": 70,
                "velocity": 51,
                "duration": 0.08409090909091077,
                "tempo": 120.0
            },
            {
                "start_time": 41.79545454545455,
                "end_time": 41.91136363636363,
                "pitch": 82,
                "velocity": 51,
                "duration": 0.11590909090908497,
                "tempo": 120.0
            },
            {
                "start_time": 41.929545454545455,
                "end_time": 42.01363636363636,
                "pitch": 70,
                "velocity": 51,
                "duration": 0.08409090909090366,
                "tempo": 120.0
            },
            {
                "start_time": 42.02954545454545,
                "end_time": 42.14772727272727,
                "pitch": 70,
                "velocity": 51,
                "duration": 0.11818181818182438,
                "tempo": 120.0
            },
            {
                "start_time": 42.163636363636364,
                "end_time": 42.24772727272727,
                "pitch": 82,
                "velocity": 51,
                "duration": 0.08409090909090366,
                "tempo": 120.0
            },
            {
                "start_time": 42.26363636363636,
                "end_time": 42.375,
                "pitch": 70,
                "velocity": 51,
                "duration": 0.11136363636364166,
                "tempo": 120.0
            },
            {
                "start_time": 42.39090909090909,
                "end_time": 42.47272727272727,
                "pitch": 70,
                "velocity": 51,
                "duration": 0.08181818181817846,
                "tempo": 120.0
            },
            {
                "start_time": 42.48863636363636,
                "end_time": 42.6,
                "pitch": 82,
                "velocity": 51,
                "duration": 0.11136363636364166,
                "tempo": 120.0
            },
            {
                "start_time": 42.61590909090909,
                "end_time": 42.695454545454545,
                "pitch": 70,
                "velocity": 51,
                "duration": 0.07954545454545325,
                "tempo": 120.0
            },
            {
                "start_time": 42.711363636363636,
                "end_time": 42.929545454545455,
                "pitch": 70,
                "velocity": 51,
                "duration": 0.2181818181818187,
                "tempo": 120.0
            },
            {
                "start_time": 42.945454545454545,
                "end_time": 43.06363636363636,
                "pitch": 82,
                "velocity": 51,
                "duration": 0.11818181818181728,
                "tempo": 120.0
            },
            {
                "start_time": 43.07954545454545,
                "end_time": 43.163636363636364,
                "pitch": 70,
                "velocity": 51,
                "duration": 0.08409090909091077,
                "tempo": 120.0
            },
            {
                "start_time": 43.18181818181818,
                "end_time": 43.29772727272727,
                "pitch": 70,
                "velocity": 51,
                "duration": 0.11590909090909207,
                "tempo": 120.0
            },
            {
                "start_time": 43.31590909090909,
                "end_time": 43.39772727272727,
                "pitch": 82,
                "velocity": 51,
                "duration": 0.08181818181818556,
                "tempo": 120.0
            },
            {
                "start_time": 43.41590909090909,
                "end_time": 43.53181818181818,
                "pitch": 70,
                "velocity": 51,
                "duration": 0.11590909090909207,
                "tempo": 120.0
            },
            {
                "start_time": 43.55,
                "end_time": 43.63409090909091,
                "pitch": 70,
                "velocity": 51,
                "duration": 0.08409090909091077,
                "tempo": 120.0
            },
            {
                "start_time": 43.65,
                "end_time": 43.768181818181816,
                "pitch": 82,
                "velocity": 51,
                "duration": 0.11818181818181728,
                "tempo": 120.0
            },
            {
                "start_time": 43.78409090909091,
                "end_time": 43.86818181818182,
                "pitch": 70,
                "velocity": 51,
                "duration": 0.08409090909091077,
                "tempo": 120.0
            },
            {
                "start_time": 43.88409090909091,
                "end_time": 44.002272727272725,
                "pitch": 70,
                "velocity": 51,
                "duration": 0.11818181818181728,
                "tempo": 120.0
            },
            {
                "start_time": 44.018181818181816,
                "end_time": 44.10227272727273,
                "pitch": 82,
                "velocity": 51,
                "duration": 0.08409090909091077,
                "tempo": 120.0
            },
            {
                "start_time": 44.11818181818182,
                "end_time": 44.23409090909091,
                "pitch": 70,
                "velocity": 51,
                "duration": 0.11590909090909207,
                "tempo": 120.0
            },
            {
                "start_time": 44.25,
                "end_time": 44.33181818181818,
                "pitch": 70,
                "velocity": 51,
                "duration": 0.08181818181817846,
                "tempo": 120.0
            },
            {
                "start_time": 44.34772727272727,
                "end_time": 44.46363636363636,
                "pitch": 82,
                "velocity": 51,
                "duration": 0.11590909090909207,
                "tempo": 120.0
            },
            {
                "start_time": 44.47954545454545,
                "end_time": 44.56136363636364,
                "pitch": 70,
                "velocity": 51,
                "duration": 0.08181818181818556,
                "tempo": 120.0
            },
            {
                "start_time": 44.57727272727273,
                "end_time": 44.79545454545455,
                "pitch": 67,
                "velocity": 51,
                "duration": 0.2181818181818187,
                "tempo": 120.0
            },
            {
                "start_time": 44.81136363636364,
                "end_time": 44.929545454545455,
                "pitch": 74,
                "velocity": 51,
                "duration": 0.11818181818181728,
                "tempo": 120.0
            },
            {
                "start_time": 44.945454545454545,
                "end_time": 45.02954545454545,
                "pitch": 70,
                "velocity": 51,
                "duration": 0.08409090909090366,
                "tempo": 120.0
            },
            {
                "start_time": 45.04545454545455,
                "end_time": 45.163636363636364,
                "pitch": 67,
                "velocity": 51,
                "duration": 0.11818181818181728,
                "tempo": 120.0
            },
            {
                "start_time": 45.179545454545455,
                "end_time": 45.26363636363636,
                "pitch": 74,
                "velocity": 51,
                "duration": 0.08409090909090366,
                "tempo": 120.0
            },
            {
                "start_time": 45.27954545454545,
                "end_time": 45.39772727272727,
                "pitch": 70,
                "velocity": 51,
                "duration": 0.11818181818182438,
                "tempo": 120.0
            },
            {
                "start_time": 45.413636363636364,
                "end_time": 45.49772727272727,
                "pitch": 67,
                "velocity": 51,
                "duration": 0.08409090909090366,
                "tempo": 120.0
            },
            {
                "start_time": 45.51590909090909,
                "end_time": 45.63181818181818,
                "pitch": 74,
                "velocity": 51,
                "duration": 0.11590909090909207,
                "tempo": 120.0
            },
            {
                "start_time": 45.65,
                "end_time": 45.73181818181818,
                "pitch": 70,
                "velocity": 51,
                "duration": 0.08181818181817846,
                "tempo": 120.0
            },
            {
                "start_time": 45.75,
                "end_time": 45.86590909090909,
                "pitch": 67,
                "velocity": 51,
                "duration": 0.11590909090909207,
                "tempo": 120.0
            },
            {
                "start_time": 45.88409090909091,
                "end_time": 45.96818181818182,
                "pitch": 74,
                "velocity": 51,
                "duration": 0.08409090909091077,
                "tempo": 120.0
            },
            {
                "start_time": 45.98409090909091,
                "end_time": 46.09772727272727,
                "pitch": 67,
                "velocity": 51,
                "duration": 0.11363636363635976,
                "tempo": 120.0
            },
            {
                "start_time": 46.11590909090909,
                "end_time": 46.19772727272727,
                "pitch": 74,
                "velocity": 51,
                "duration": 0.08181818181817846,
                "tempo": 120.0
            },
            {
                "start_time": 46.21363636363636,
                "end_time": 46.32727272727273,
                "pitch": 70,
                "velocity": 51,
                "duration": 0.11363636363636687,
                "tempo": 120.0
            },
            {
                "start_time": 46.34318181818182,
                "end_time": 46.425,
                "pitch": 67,
                "velocity": 51,
                "duration": 0.08181818181817846,
                "tempo": 120.0
            },
            {
                "start_time": 46.44318181818181,
                "end_time": 46.65454545454545,
                "pitch": 67,
                "velocity": 51,
                "duration": 0.21136363636363598,
                "tempo": 120.0
            },
            {
                "start_time": 46.67045454545454,
                "end_time": 46.78636363636363,
                "pitch": 74,
                "velocity": 51,
                "duration": 0.11590909090909207,
                "tempo": 120.0
            },
            {
                "start_time": 46.80227272727272,
                "end_time": 46.88409090909091,
                "pitch": 70,
                "velocity": 51,
                "duration": 0.08181818181818556,
                "tempo": 120.0
            },
            {
                "start_time": 46.9,
                "end_time": 47.018181818181816,
                "pitch": 67,
                "velocity": 51,
                "duration": 0.11818181818181728,
                "tempo": 120.0
            },
            {
                "start_time": 47.03409090909091,
                "end_time": 47.11818181818182,
                "pitch": 74,
                "velocity": 51,
                "duration": 0.08409090909091077,
                "tempo": 120.0
            },
            {
                "start_time": 47.13409090909091,
                "end_time": 47.252272727272725,
                "pitch": 70,
                "velocity": 51,
                "duration": 0.11818181818181728,
                "tempo": 120.0
            },
            {
                "start_time": 47.268181818181816,
                "end_time": 47.35227272727273,
                "pitch": 67,
                "velocity": 51,
                "duration": 0.08409090909091077,
                "tempo": 120.0
            },
            {
                "start_time": 47.37045454545454,
                "end_time": 47.48863636363636,
                "pitch": 74,
                "velocity": 51,
                "duration": 0.11818181818181728,
                "tempo": 120.0
            },
            {
                "start_time": 47.50454545454545,
                "end_time": 47.590909090909086,
                "pitch": 70,
                "velocity": 51,
                "duration": 0.08636363636363598,
                "tempo": 120.0
            },
            {
                "start_time": 47.60681818181818,
                "end_time": 47.72727272727273,
                "pitch": 67,
                "velocity": 51,
                "duration": 0.12045454545454959,
                "tempo": 120.0
            },
            {
                "start_time": 47.74318181818182,
                "end_time": 47.82954545454545,
                "pitch": 74,
                "velocity": 51,
                "duration": 0.08636363636363598,
                "tempo": 120.0
            },
            {
                "start_time": 47.845454545454544,
                "end_time": 47.961363636363636,
                "pitch": 67,
                "velocity": 51,
                "duration": 0.11590909090909207,
                "tempo": 120.0
            },
            {
                "start_time": 47.97727272727273,
                "end_time": 48.059090909090905,
                "pitch": 74,
                "velocity": 51,
                "duration": 0.08181818181817846,
                "tempo": 120.0
            },
            {
                "start_time": 48.074999999999996,
                "end_time": 48.19090909090909,
                "pitch": 70,
                "velocity": 51,
                "duration": 0.11590909090909207,
                "tempo": 120.0
            },
            {
                "start_time": 48.20681818181818,
                "end_time": 48.288636363636364,
                "pitch": 67,
                "velocity": 51,
                "duration": 0.08181818181818556,
                "tempo": 120.0
            },
            {
                "start_time": 48.304545454545455,
                "end_time": 48.418181818181814,
                "pitch": 50,
                "velocity": 51,
                "duration": 0.11363636363635976,
                "tempo": 120.0
            },
            {
                "start_time": 48.43636363636364,
                "end_time": 48.518181818181816,
                "pitch": 51,
                "velocity": 51,
                "duration": 0.08181818181817846,
                "tempo": 120.0
            },
            {
                "start_time": 48.53409090909091,
                "end_time": 48.64772727272727,
                "pitch": 53,
                "velocity": 51,
                "duration": 0.11363636363636687,
                "tempo": 120.0
            },
            {
                "start_time": 48.663636363636364,
                "end_time": 48.74545454545454,
                "pitch": 55,
                "velocity": 51,
                "duration": 0.08181818181817846,
                "tempo": 120.0
            },
            {
                "start_time": 48.76363636363636,
                "end_time": 48.87954545454545,
                "pitch": 63,
                "velocity": 51,
                "duration": 0.11590909090909207,
                "tempo": 120.0
            },
            {
                "start_time": 48.89545454545454,
                "end_time": 48.97954545454545,
                "pitch": 62,
                "velocity": 51,
                "duration": 0.08409090909091077,
                "tempo": 120.0
            },
            {
                "start_time": 48.99772727272727,
                "end_time": 49.11363636363636,
                "pitch": 58,
                "velocity": 51,
                "duration": 0.11590909090909207,
                "tempo": 120.0
            },
            {
                "start_time": 49.13181818181818,
                "end_time": 49.21363636363636,
                "pitch": 60,
                "velocity": 51,
                "duration": 0.08181818181817846,
                "tempo": 120.0
            },
            {
                "start_time": 49.23181818181818,
                "end_time": 49.345454545454544,
                "pitch": 53,
                "velocity": 51,
                "duration": 0.11363636363636687,
                "tempo": 120.0
            },
            {
                "start_time": 49.361363636363635,
                "end_time": 49.44318181818181,
                "pitch": 55,
                "velocity": 51,
                "duration": 0.08181818181817846,
                "tempo": 120.0
            },
            {
                "start_time": 49.461363636363636,
                "end_time": 49.574999999999996,
                "pitch": 56,
                "velocity": 51,
                "duration": 0.11363636363635976,
                "tempo": 120.0
            },
            {
                "start_time": 49.590909090909086,
                "end_time": 49.67272727272727,
                "pitch": 58,
                "velocity": 51,
                "duration": 0.08181818181818556,
                "tempo": 120.0
            },
            {
                "start_time": 49.68863636363636,
                "end_time": 49.80681818181818,
                "pitch": 55,
                "velocity": 51,
                "duration": 0.11818181818181728,
                "tempo": 120.0
            },
            {
                "start_time": 49.82272727272727,
                "end_time": 49.90681818181818,
                "pitch": 55,
                "velocity": 51,
                "duration": 0.08409090909091077,
                "tempo": 120.0
            },
            {
                "start_time": 49.925,
                "end_time": 50.04090909090909,
                "pitch": 58,
                "velocity": 51,
                "duration": 0.11590909090909207,
                "tempo": 120.0
            },
            {
                "start_time": 50.059090909090905,
                "end_time": 50.14090909090909,
                "pitch": 56,
                "velocity": 51,
                "duration": 0.08181818181818556,
                "tempo": 120.0
            },
            {
                "start_time": 50.15909090909091,
                "end_time": 50.27954545454545,
                "pitch": 51,
                "velocity": 51,
                "duration": 0.12045454545454248,
                "tempo": 120.0
            },
            {
                "start_time": 50.29545454545454,
                "end_time": 50.38181818181818,
                "pitch": 52,
                "velocity": 51,
                "duration": 0.08636363636364308,
                "tempo": 120.0
            },
            {
                "start_time": 50.39772727272727,
                "end_time": 50.518181818181816,
                "pitch": 53,
                "velocity": 51,
                "duration": 0.12045454545454248,
                "tempo": 120.0
            },
            {
                "start_time": 50.53636363636363,
                "end_time": 50.62045454545454,
                "pitch": 58,
                "velocity": 51,
                "duration": 0.08409090909091077,
                "tempo": 120.0
            },
            {
                "start_time": 50.63863636363636,
                "end_time": 50.75,
                "pitch": 60,
                "velocity": 51,
                "duration": 0.11136363636364166,
                "tempo": 120.0
            },
            {
                "start_time": 50.76590909090909,
                "end_time": 50.845454545454544,
                "pitch": 53,
                "velocity": 51,
                "duration": 0.07954545454545325,
                "tempo": 120.0
            },
            {
                "start_time": 50.861363636363635,
                "end_time": 50.974999999999994,
                "pitch": 55,
                "velocity": 51,
                "duration": 0.11363636363635976,
                "tempo": 120.0
            },
            {
                "start_time": 50.990909090909085,
                "end_time": 51.070454545454545,
                "pitch": 63,
                "velocity": 51,
                "duration": 0.07954545454546036,
                "tempo": 120.0
            },
            {
                "start_time": 51.086363636363636,
                "end_time": 51.20454545454545,
                "pitch": 62,
                "velocity": 51,
                "duration": 0.11818181818181728,
                "tempo": 120.0
            },
            {
                "start_time": 51.220454545454544,
                "end_time": 51.304545454545455,
                "pitch": 60,
                "velocity": 51,
                "duration": 0.08409090909091077,
                "tempo": 120.0
            },
            {
                "start_time": 51.320454545454545,
                "end_time": 51.43863636363636,
                "pitch": 58,
                "velocity": 51,
                "duration": 0.11818181818181728,
                "tempo": 120.0
            },
            {
                "start_time": 51.45454545454545,
                "end_time": 51.538636363636364,
                "pitch": 65,
                "velocity": 51,
                "duration": 0.08409090909091077,
                "tempo": 120.0
            },
            {
                "start_time": 51.554545454545455,
                "end_time": 51.67272727272727,
                "pitch": 60,
                "velocity": 51,
                "duration": 0.11818181818181728,
                "tempo": 120.0
            },
            {
                "start_time": 51.68863636363636,
                "end_time": 51.77272727272727,
                "pitch": 62,
                "velocity": 51,
                "duration": 0.08409090909091077,
                "tempo": 120.0
            },
            {
                "start_time": 51.79090909090909,
                "end_time": 51.90681818181818,
                "pitch": 65,
                "velocity": 51,
                "duration": 0.11590909090909207,
                "tempo": 120.0
            },
            {
                "start_time": 51.925,
                "end_time": 52.00681818181818,
                "pitch": 63,
                "velocity": 51,
                "duration": 0.08181818181818556,
                "tempo": 120.0
            },
            {
                "start_time": 52.025,
                "end_time": 52.13863636363636,
                "pitch": 55,
                "velocity": 51,
                "duration": 0.11363636363635976,
                "tempo": 120.0
            },
            {
                "start_time": 52.15454545454545,
                "end_time": 52.236363636363635,
                "pitch": 56,
                "velocity": 51,
                "duration": 0.08181818181818556,
                "tempo": 120.0
            },
            {
                "start_time": 52.252272727272725,
                "end_time": 52.36818181818182,
                "pitch": 58,
                "velocity": 51,
                "duration": 0.11590909090909207,
                "tempo": 120.0
            },
            {
                "start_time": 52.38409090909091,
                "end_time": 52.465909090909086,
                "pitch": 63,
                "velocity": 51,
                "duration": 0.08181818181817846,
                "tempo": 120.0
            },
            {
                "start_time": 52.48181818181818,
                "end_time": 52.599999999999994,
                "pitch": 62,
                "velocity": 51,
                "duration": 0.11818181818181728,
                "tempo": 120.0
            },
            {
                "start_time": 52.615909090909085,
                "end_time": 52.699999999999996,
                "pitch": 60,
                "velocity": 51,
                "duration": 0.08409090909091077,
                "tempo": 120.0
            },
            {
                "start_time": 52.715909090909086,
                "end_time": 52.834090909090904,
                "pitch": 55,
                "velocity": 51,
                "duration": 0.11818181818181728,
                "tempo": 120.0
            },
            {
                "start_time": 52.849999999999994,
                "end_time": 52.934090909090905,
                "pitch": 60,
                "velocity": 51,
                "duration": 0.08409090909091077,
                "tempo": 120.0
            },
            {
                "start_time": 52.95227272727273,
                "end_time": 53.06818181818181,
                "pitch": 58,
                "velocity": 51,
                "duration": 0.11590909090908497,
                "tempo": 120.0
            },
            {
                "start_time": 53.086363636363636,
                "end_time": 53.168181818181814,
                "pitch": 56,
                "velocity": 51,
                "duration": 0.08181818181817846,
                "tempo": 120.0
            },
            {
                "start_time": 53.18636363636363,
                "end_time": 53.30227272727272,
                "pitch": 55,
                "velocity": 51,
                "duration": 0.11590909090909207,
                "tempo": 120.0
            },
            {
                "start_time": 53.320454545454545,
                "end_time": 53.40454545454545,
                "pitch": 56,
                "velocity": 51,
                "duration": 0.08409090909090366,
                "tempo": 120.0
            },
            {
                "start_time": 53.42045454545454,
                "end_time": 53.53409090909091,
                "pitch": 60,
                "velocity": 51,
                "duration": 0.11363636363636687,
                "tempo": 120.0
            },
            {
                "start_time": 53.55227272727272,
                "end_time": 53.63409090909091,
                "pitch": 51,
                "velocity": 51,
                "duration": 0.08181818181818556,
                "tempo": 120.0
            },
            {
                "start_time": 53.65,
                "end_time": 53.76363636363636,
                "pitch": 58,
                "velocity": 51,
                "duration": 0.11363636363635976,
                "tempo": 120.0
            },
            {
                "start_time": 53.77954545454545,
                "end_time": 53.861363636363635,
                "pitch": 57,
                "velocity": 51,
                "duration": 0.08181818181818556,
                "tempo": 120.0
            },
            {
                "start_time": 53.87954545454545,
                "end_time": 53.99772727272727,
                "pitch": 55,
                "velocity": 51,
                "duration": 0.11818181818181728,
                "tempo": 120.0
            },
            {
                "start_time": 54.01363636363636,
                "end_time": 54.099999999999994,
                "pitch": 53,
                "velocity": 51,
                "duration": 0.08636363636363598,
                "tempo": 120.0
            },
            {
                "start_time": 54.115909090909085,
                "end_time": 54.236363636363635,
                "pitch": 55,
                "velocity": 51,
                "duration": 0.12045454545454959,
                "tempo": 120.0
            },
            {
                "start_time": 54.252272727272725,
                "end_time": 54.33863636363636,
                "pitch": 57,
                "velocity": 51,
                "duration": 0.08636363636363598,
                "tempo": 120.0
            },
            {
                "start_time": 54.35454545454545,
                "end_time": 54.470454545454544,
                "pitch": 58,
                "velocity": 51,
                "duration": 0.11590909090909207,
                "tempo": 120.0
            },
            {
                "start_time": 54.486363636363635,
                "end_time": 54.56818181818181,
                "pitch": 60,
                "velocity": 51,
                "duration": 0.08181818181817846,
                "tempo": 120.0
            },
            {
                "start_time": 54.584090909090904,
                "end_time": 54.69772727272727,
                "pitch": 55,
                "velocity": 51,
                "duration": 0.11363636363636687,
                "tempo": 120.0
            },
            {
                "start_time": 54.715909090909086,
                "end_time": 54.79772727272727,
                "pitch": 62,
                "velocity": 51,
                "duration": 0.08181818181818556,
                "tempo": 120.0
            },
            {
                "start_time": 54.81363636363636,
                "end_time": 54.92727272727272,
                "pitch": 63,
                "velocity": 51,
                "duration": 0.11363636363635976,
                "tempo": 120.0
            },
            {
                "start_time": 54.94318181818181,
                "end_time": 55.025,
                "pitch": 56,
                "velocity": 51,
                "duration": 0.08181818181818556,
                "tempo": 120.0
            },
            {
                "start_time": 55.043181818181814,
                "end_time": 55.15681818181818,
                "pitch": 58,
                "velocity": 51,
                "duration": 0.11363636363636687,
                "tempo": 120.0
            },
            {
                "start_time": 55.17272727272727,
                "end_time": 55.25454545454545,
                "pitch": 60,
                "velocity": 51,
                "duration": 0.08181818181817846,
                "tempo": 120.0
            },
            {
                "start_time": 55.27045454545454,
                "end_time": 55.38863636363636,
                "pitch": 62,
                "velocity": 51,
                "duration": 0.11818181818181728,
                "tempo": 120.0
            },
            {
                "start_time": 55.40454545454545,
                "end_time": 55.48863636363636,
                "pitch": 63,
                "velocity": 51,
                "duration": 0.08409090909091077,
                "tempo": 120.0
            },
            {
                "start_time": 55.506818181818176,
                "end_time": 55.62272727272727,
                "pitch": 65,
                "velocity": 51,
                "duration": 0.11590909090909207,
                "tempo": 120.0
            },
            {
                "start_time": 55.64090909090909,
                "end_time": 55.72272727272727,
                "pitch": 67,
                "velocity": 51,
                "duration": 0.08181818181817846,
                "tempo": 120.0
            },
            {
                "start_time": 55.740909090909085,
                "end_time": 55.85454545454545,
                "pitch": 65,
                "velocity": 51,
                "duration": 0.11363636363636687,
                "tempo": 120.0
            },
            {
                "start_time": 55.87045454545454,
                "end_time": 55.95227272727273,
                "pitch": 63,
                "velocity": 51,
                "duration": 0.08181818181818556,
                "tempo": 120.0
            },
            {
                "start_time": 55.96818181818182,
                "end_time": 56.084090909090904,
                "pitch": 56,
                "velocity": 51,
                "duration": 0.11590909090908497,
                "tempo": 120.0
            },
            {
                "start_time": 56.099999999999994,
                "end_time": 56.18181818181818,
                "pitch": 58,
                "velocity": 51,
                "duration": 0.08181818181818556,
                "tempo": 120.0
            },
            {
                "start_time": 56.19772727272727,
                "end_time": 56.31590909090909,
                "pitch": 60,
                "velocity": 51,
                "duration": 0.11818181818181728,
                "tempo": 120.0
            },
            {
                "start_time": 56.33181818181818,
                "end_time": 56.41590909090909,
                "pitch": 55,
                "velocity": 51,
                "duration": 0.08409090909091077,
                "tempo": 120.0
            },
            {
                "start_time": 56.434090909090905,
                "end_time": 56.55,
                "pitch": 63,
                "velocity": 51,
                "duration": 0.11590909090909207,
                "tempo": 120.0
            },
            {
                "start_time": 56.56590909090909,
                "end_time": 56.65,
                "pitch": 62,
                "velocity": 51,
                "duration": 0.08409090909091077,
                "tempo": 120.0
            },
            {
                "start_time": 56.668181818181814,
                "end_time": 56.78409090909091,
                "pitch": 60,
                "velocity": 51,
                "duration": 0.11590909090909207,
                "tempo": 120.0
            },
            {
                "start_time": 56.80227272727272,
                "end_time": 56.88636363636363,
                "pitch": 62,
                "velocity": 51,
                "duration": 0.08409090909091077,
                "tempo": 120.0
            },
            {
                "start_time": 56.902272727272724,
                "end_time": 57.018181818181816,
                "pitch": 61,
                "velocity": 51,
                "duration": 0.11590909090909207,
                "tempo": 120.0
            },
            {
                "start_time": 57.03636363636363,
                "end_time": 57.12045454545454,
                "pitch": 60,
                "velocity": 51,
                "duration": 0.08409090909091077,
                "tempo": 120.0
            },
            {
                "start_time": 57.13636363636363,
                "end_time": 57.25454545454545,
                "pitch": 62,
                "velocity": 51,
                "duration": 0.11818181818181728,
                "tempo": 120.0
            },
            {
                "start_time": 57.27045454545454,
                "end_time": 57.35454545454545,
                "pitch": 63,
                "velocity": 51,
                "duration": 0.08409090909091077,
                "tempo": 120.0
            },
            {
                "start_time": 57.37045454545454,
                "end_time": 57.48863636363636,
                "pitch": 65,
                "velocity": 51,
                "duration": 0.11818181818181728,
                "tempo": 120.0
            },
            {
                "start_time": 57.50454545454545,
                "end_time": 57.58863636363636,
                "pitch": 62,
                "velocity": 51,
                "duration": 0.08409090909091077,
                "tempo": 120.0
            },
            {
                "start_time": 57.60454545454545,
                "end_time": 57.72272727272727,
                "pitch": 67,
                "velocity": 51,
                "duration": 0.11818181818181728,
                "tempo": 120.0
            },
            {
                "start_time": 57.73863636363636,
                "end_time": 57.82272727272727,
                "pitch": 60,
                "velocity": 51,
                "duration": 0.08409090909091077,
                "tempo": 120.0
            },
            {
                "start_time": 57.840909090909086,
                "end_time": 57.95681818181818,
                "pitch": 65,
                "velocity": 51,
                "duration": 0.11590909090909207,
                "tempo": 120.0
            },
            {
                "start_time": 57.974999999999994,
                "end_time": 58.05681818181818,
                "pitch": 58,
                "velocity": 51,
                "duration": 0.08181818181818556,
                "tempo": 120.0
            },
            {
                "start_time": 58.074999999999996,
                "end_time": 58.18863636363636,
                "pitch": 63,
                "velocity": 51,
                "duration": 0.11363636363636687,
                "tempo": 120.0
            },
            {
                "start_time": 58.20454545454545,
                "end_time": 58.28636363636363,
                "pitch": 60,
                "velocity": 51,
                "duration": 0.08181818181817846,
                "tempo": 120.0
            },
            {
                "start_time": 58.304545454545455,
                "end_time": 58.418181818181814,
                "pitch": 62,
                "velocity": 51,
                "duration": 0.11363636363635976,
                "tempo": 120.0
            },
            {
                "start_time": 58.434090909090905,
                "end_time": 58.51590909090909,
                "pitch": 60,
                "velocity": 51,
                "duration": 0.08181818181818556,
                "tempo": 120.0
            },
            {
                "start_time": 58.53181818181818,
                "end_time": 58.65,
                "pitch": 58,
                "velocity": 51,
                "duration": 0.11818181818181728,
                "tempo": 120.0
            },
            {
                "start_time": 58.66590909090909,
                "end_time": 58.75,
                "pitch": 65,
                "velocity": 51,
                "duration": 0.08409090909091077,
                "tempo": 120.0
            },
            {
                "start_time": 58.768181818181816,
                "end_time": 58.88409090909091,
                "pitch": 60,
                "velocity": 51,
                "duration": 0.11590909090909207,
                "tempo": 120.0
            },
            {
                "start_time": 58.902272727272724,
                "end_time": 58.98409090909091,
                "pitch": 63,
                "velocity": 51,
                "duration": 0.08181818181818556,
                "tempo": 120.0
            },
            {
                "start_time": 59.002272727272725,
                "end_time": 59.115909090909085,
                "pitch": 62,
                "velocity": 51,
                "duration": 0.11363636363635976,
                "tempo": 120.0
            },
            {
                "start_time": 59.131818181818176,
                "end_time": 59.21363636363636,
                "pitch": 58,
                "velocity": 51,
                "duration": 0.08181818181818556,
                "tempo": 120.0
            },
            {
                "start_time": 59.23181818181818,
                "end_time": 59.345454545454544,
                "pitch": 60,
                "velocity": 51,
                "duration": 0.11363636363636687,
                "tempo": 120.0
            },
            {
                "start_time": 59.361363636363635,
                "end_time": 59.44318181818181,
                "pitch": 58,
                "velocity": 51,
                "duration": 0.08181818181817846,
                "tempo": 120.0
            },
            {
                "start_time": 59.459090909090904,
                "end_time": 59.57727272727272,
                "pitch": 56,
                "velocity": 51,
                "duration": 0.11818181818181728,
                "tempo": 120.0
            },
            {
                "start_time": 59.59318181818182,
                "end_time": 59.67727272727272,
                "pitch": 55,
                "velocity": 51,
                "duration": 0.08409090909090366,
                "tempo": 120.0
            },
            {
                "start_time": 59.695454545454545,
                "end_time": 59.81136363636363,
                "pitch": 56,
                "velocity": 51,
                "duration": 0.11590909090908497,
                "tempo": 120.0
            },
            {
                "start_time": 59.82727272727272,
                "end_time": 59.91136363636363,
                "pitch": 58,
                "velocity": 51,
                "duration": 0.08409090909091077,
                "tempo": 120.0
            },
            {
                "start_time": 59.929545454545455,
                "end_time": 60.04545454545454,
                "pitch": 56,
                "velocity": 51,
                "duration": 0.11590909090908497,
                "tempo": 120.0
            },
            {
                "start_time": 60.06363636363636,
                "end_time": 60.147727272727266,
                "pitch": 58,
                "velocity": 51,
                "duration": 0.08409090909090366,
                "tempo": 120.0
            },
            {
                "start_time": 60.163636363636364,
                "end_time": 60.27954545454545,
                "pitch": 55,
                "velocity": 51,
                "duration": 0.11590909090908497,
                "tempo": 120.0
            },
            {
                "start_time": 60.29772727272727,
                "end_time": 60.381818181818176,
                "pitch": 60,
                "velocity": 51,
                "duration": 0.08409090909090366,
                "tempo": 120.0
            },
            {
                "start_time": 60.397727272727266,
                "end_time": 60.51136363636363,
                "pitch": 56,
                "velocity": 51,
                "duration": 0.11363636363636687,
                "tempo": 120.0
            },
            {
                "start_time": 60.52954545454545,
                "end_time": 60.611363636363635,
                "pitch": 62,
                "velocity": 51,
                "duration": 0.08181818181818556,
                "tempo": 120.0
            },
            {
                "start_time": 60.627272727272725,
                "end_time": 60.740909090909085,
                "pitch": 58,
                "velocity": 51,
                "duration": 0.11363636363635976,
                "tempo": 120.0
            },
            {
                "start_time": 60.756818181818176,
                "end_time": 60.83863636363636,
                "pitch": 63,
                "velocity": 51,
                "duration": 0.08181818181818556,
                "tempo": 120.0
            },
            {
                "start_time": 60.85681818181818,
                "end_time": 60.97272727272727,
                "pitch": 58,
                "velocity": 51,
                "duration": 0.11590909090909207,
                "tempo": 120.0
            },
            {
                "start_time": 60.990909090909085,
                "end_time": 61.07272727272727,
                "pitch": 65,
                "velocity": 51,
                "duration": 0.08181818181818556,
                "tempo": 120.0
            },
            {
                "start_time": 61.090909090909086,
                "end_time": 61.20681818181818,
                "pitch": 58,
                "velocity": 51,
                "duration": 0.11590909090909207,
                "tempo": 120.0
            },
            {
                "start_time": 61.224999999999994,
                "end_time": 61.309090909090905,
                "pitch": 61,
                "velocity": 51,
                "duration": 0.08409090909091077,
                "tempo": 120.0
            },
            {
                "start_time": 61.324999999999996,
                "end_time": 61.44318181818181,
                "pitch": 65,
                "velocity": 51,
                "duration": 0.11818181818181728,
                "tempo": 120.0
            },
            {
                "start_time": 61.461363636363636,
                "end_time": 61.54545454545454,
                "pitch": 67,
                "velocity": 51,
                "duration": 0.08409090909090366,
                "tempo": 120.0
            },
            {
                "start_time": 61.56363636363636,
                "end_time": 61.68181818181818,
                "pitch": 65,
                "velocity": 51,
                "duration": 0.11818181818181728,
                "tempo": 120.0
            },
            {
                "start_time": 61.699999999999996,
                "end_time": 61.78409090909091,
                "pitch": 65,
                "velocity": 51,
                "duration": 0.08409090909091077,
                "tempo": 120.0
            },
            {
                "start_time": 61.8,
                "end_time": 61.913636363636364,
                "pitch": 61,
                "velocity": 51,
                "duration": 0.11363636363636687,
                "tempo": 120.0
            },
            {
                "start_time": 61.929545454545455,
                "end_time": 62.00909090909091,
                "pitch": 60,
                "velocity": 51,
                "duration": 0.07954545454545325,
                "tempo": 120.0
            },
            {
                "start_time": 62.025,
                "end_time": 62.13636363636363,
                "pitch": 58,
                "velocity": 51,
                "duration": 0.11136363636363455,
                "tempo": 120.0
            },
            {
                "start_time": 62.152272727272724,
                "end_time": 62.23409090909091,
                "pitch": 63,
                "velocity": 51,
                "duration": 0.08181818181818556,
                "tempo": 120.0
            },
            {
                "start_time": 62.25,
                "end_time": 62.365909090909085,
                "pitch": 62,
                "velocity": 51,
                "duration": 0.11590909090908497,
                "tempo": 120.0
            },
            {
                "start_time": 62.38409090909091,
                "end_time": 62.465909090909086,
                "pitch": 58,
                "velocity": 51,
                "duration": 0.08181818181817846,
                "tempo": 120.0
            },
            {
                "start_time": 62.48409090909091,
                "end_time": 62.599999999999994,
                "pitch": 56,
                "velocity": 51,
                "duration": 0.11590909090908497,
                "tempo": 120.0
            },
            {
                "start_time": 62.61818181818182,
                "end_time": 62.70227272727272,
                "pitch": 60,
                "velocity": 51,
                "duration": 0.08409090909090366,
                "tempo": 120.0
            },
            {
                "start_time": 62.71818181818181,
                "end_time": 62.836363636363636,
                "pitch": 58,
                "velocity": 51,
                "duration": 0.11818181818182438,
                "tempo": 120.0
            },
            {
                "start_time": 62.85227272727273,
                "end_time": 62.93636363636363,
                "pitch": 55,
                "velocity": 51,
                "duration": 0.08409090909090366,
                "tempo": 120.0
            },
            {
                "start_time": 62.95227272727272,
                "end_time": 63.070454545454545,
                "pitch": 56,
                "velocity": 51,
                "duration": 0.11818181818182438,
                "tempo": 120.0
            },
            {
                "start_time": 63.086363636363636,
                "end_time": 63.17045454545454,
                "pitch": 53,
                "velocity": 51,
                "duration": 0.08409090909090366,
                "tempo": 120.0
            },
            {
                "start_time": 63.18636363636363,
                "end_time": 63.30227272727272,
                "pitch": 50,
                "velocity": 51,
                "duration": 0.11590909090909207,
                "tempo": 120.0
            },
            {
                "start_time": 63.31818181818181,
                "end_time": 63.4,
                "pitch": 51,
                "velocity": 51,
                "duration": 0.08181818181818556,
                "tempo": 120.0
            },
            {
                "start_time": 63.41590909090909,
                "end_time": 63.52954545454545,
                "pitch": 53,
                "velocity": 51,
                "duration": 0.11363636363635976,
                "tempo": 120.0
            },
            {
                "start_time": 63.54772727272727,
                "end_time": 63.62954545454545,
                "pitch": 55,
                "velocity": 51,
                "duration": 0.08181818181817846,
                "tempo": 120.0
            },
            {
                "start_time": 63.64545454545454,
                "end_time": 63.76136363636363,
                "pitch": 63,
                "velocity": 51,
                "duration": 0.11590909090909207,
                "tempo": 120.0
            },
            {
                "start_time": 63.77954545454545,
                "end_time": 63.86363636363636,
                "pitch": 62,
                "velocity": 51,
                "duration": 0.08409090909091077,
                "tempo": 120.0
            },
            {
                "start_time": 63.87954545454545,
                "end_time": 63.99772727272727,
                "pitch": 58,
                "velocity": 51,
                "duration": 0.11818181818181728,
                "tempo": 120.0
            },
            {
                "start_time": 64.01363636363637,
                "end_time": 64.09772727272727,
                "pitch": 60,
                "velocity": 51,
                "duration": 0.08409090909090366,
                "tempo": 120.0
            },
            {
                "start_time": 64.11363636363636,
                "end_time": 64.23181818181818,
                "pitch": 53,
                "velocity": 51,
                "duration": 0.11818181818182438,
                "tempo": 120.0
            },
            {
                "start_time": 64.24772727272727,
                "end_time": 64.33181818181818,
                "pitch": 55,
                "velocity": 51,
                "duration": 0.08409090909090366,
                "tempo": 120.0
            },
            {
                "start_time": 64.34772727272727,
                "end_time": 64.4659090909091,
                "pitch": 56,
                "velocity": 51,
                "duration": 0.11818181818182438,
                "tempo": 120.0
            },
            {
                "start_time": 64.48181818181818,
                "end_time": 64.56590909090909,
                "pitch": 58,
                "velocity": 51,
                "duration": 0.08409090909090366,
                "tempo": 120.0
            },
            {
                "start_time": 64.5840909090909,
                "end_time": 64.69772727272726,
                "pitch": 55,
                "velocity": 51,
                "duration": 0.11363636363635976,
                "tempo": 120.0
            },
            {
                "start_time": 64.71363636363635,
                "end_time": 64.79545454545455,
                "pitch": 55,
                "velocity": 51,
                "duration": 0.08181818181819267,
                "tempo": 120.0
            },
            {
                "start_time": 64.81136363636364,
                "end_time": 64.92727272727272,
                "pitch": 58,
                "velocity": 51,
                "duration": 0.11590909090908497,
                "tempo": 120.0
            },
            {
                "start_time": 64.94318181818181,
                "end_time": 65.02499999999999,
                "pitch": 56,
                "velocity": 51,
                "duration": 0.08181818181817846,
                "tempo": 120.0
            },
            {
                "start_time": 65.04090909090908,
                "end_time": 65.16136363636363,
                "pitch": 51,
                "velocity": 51,
                "duration": 0.12045454545454959,
                "tempo": 120.0
            },
            {
                "start_time": 65.17727272727272,
                "end_time": 65.26363636363637,
                "pitch": 52,
                "velocity": 51,
                "duration": 0.08636363636364308,
                "tempo": 120.0
            },
            {
                "start_time": 65.28181818181818,
                "end_time": 65.39999999999999,
                "pitch": 53,
                "velocity": 51,
                "duration": 0.11818181818181017,
                "tempo": 120.0
            },
            {
                "start_time": 65.41818181818182,
                "end_time": 65.50454545454545,
                "pitch": 58,
                "velocity": 51,
                "duration": 0.08636363636362887,
                "tempo": 120.0
            },
            {
                "start_time": 65.52045454545454,
                "end_time": 65.63636363636364,
                "pitch": 60,
                "velocity": 51,
                "duration": 0.11590909090909918,
                "tempo": 120.0
            },
            {
                "start_time": 65.65227272727273,
                "end_time": 65.73409090909091,
                "pitch": 53,
                "velocity": 51,
                "duration": 0.08181818181817846,
                "tempo": 120.0
            },
            {
                "start_time": 65.75,
                "end_time": 65.86590909090908,
                "pitch": 55,
                "velocity": 51,
                "duration": 0.11590909090908497,
                "tempo": 120.0
            },
            {
                "start_time": 65.88181818181818,
                "end_time": 65.96363636363635,
                "pitch": 63,
                "velocity": 51,
                "duration": 0.08181818181817846,
                "tempo": 120.0
            },
            {
                "start_time": 65.97954545454544,
                "end_time": 66.09318181818182,
                "pitch": 62,
                "velocity": 51,
                "duration": 0.11363636363637397,
                "tempo": 120.0
            },
            {
                "start_time": 66.11136363636363,
                "end_time": 66.19318181818181,
                "pitch": 60,
                "velocity": 51,
                "duration": 0.08181818181817846,
                "tempo": 120.0
            },
            {
                "start_time": 66.2090909090909,
                "end_time": 66.32272727272726,
                "pitch": 58,
                "velocity": 51,
                "duration": 0.11363636363635976,
                "tempo": 120.0
            },
            {
                "start_time": 66.33863636363635,
                "end_time": 66.42045454545455,
                "pitch": 65,
                "velocity": 51,
                "duration": 0.08181818181819267,
                "tempo": 120.0
            },
            {
                "start_time": 66.43863636363636,
                "end_time": 66.55454545454545,
                "pitch": 60,
                "velocity": 51,
                "duration": 0.11590909090908497,
                "tempo": 120.0
            },
            {
                "start_time": 66.57272727272726,
                "end_time": 66.65454545454546,
                "pitch": 62,
                "velocity": 51,
                "duration": 0.08181818181819267,
                "tempo": 120.0
            },
            {
                "start_time": 66.67272727272727,
                "end_time": 66.78863636363636,
                "pitch": 65,
                "velocity": 51,
                "duration": 0.11590909090908497,
                "tempo": 120.0
            },
            {
                "start_time": 66.80681818181817,
                "end_time": 66.89090909090909,
                "pitch": 63,
                "velocity": 51,
                "duration": 0.08409090909091788,
                "tempo": 120.0
            },
            {
                "start_time": 66.90681818181818,
                "end_time": 67.02499999999999,
                "pitch": 55,
                "velocity": 51,
                "duration": 0.11818181818181017,
                "tempo": 120.0
            },
            {
                "start_time": 67.04090909090908,
                "end_time": 67.125,
                "pitch": 56,
                "velocity": 51,
                "duration": 0.08409090909091788,
                "tempo": 120.0
            },
            {
                "start_time": 67.14090909090909,
                "end_time": 67.2590909090909,
                "pitch": 58,
                "velocity": 51,
                "duration": 0.11818181818181017,
                "tempo": 120.0
            },
            {
                "start_time": 67.27499999999999,
                "end_time": 67.35909090909091,
                "pitch": 63,
                "velocity": 51,
                "duration": 0.08409090909091788,
                "tempo": 120.0
            },
            {
                "start_time": 67.375,
                "end_time": 67.49090909090908,
                "pitch": 62,
                "velocity": 51,
                "duration": 0.11590909090908497,
                "tempo": 120.0
            },
            {
                "start_time": 67.50681818181818,
                "end_time": 67.58863636363635,
                "pitch": 60,
                "velocity": 51,
                "duration": 0.08181818181817846,
                "tempo": 120.0
            },
            {
                "start_time": 67.60454545454544,
                "end_time": 67.72045454545454,
                "pitch": 55,
                "velocity": 51,
                "duration": 0.11590909090909918,
                "tempo": 120.0
            },
            {
                "start_time": 67.73636363636363,
                "end_time": 67.81818181818181,
                "pitch": 60,
                "velocity": 51,
                "duration": 0.08181818181817846,
                "tempo": 120.0
            },
            {
                "start_time": 67.8340909090909,
                "end_time": 67.95227272727273,
                "pitch": 58,
                "velocity": 51,
                "duration": 0.11818181818182438,
                "tempo": 120.0
            },
            {
                "start_time": 67.96818181818182,
                "end_time": 68.05227272727272,
                "pitch": 56,
                "velocity": 51,
                "duration": 0.08409090909090366,
                "tempo": 120.0
            },
            {
                "start_time": 68.06818181818181,
                "end_time": 68.18636363636364,
                "pitch": 55,
                "velocity": 51,
                "duration": 0.11818181818182438,
                "tempo": 120.0
            },
            {
                "start_time": 68.20227272727273,
                "end_time": 68.28636363636363,
                "pitch": 56,
                "velocity": 51,
                "duration": 0.08409090909090366,
                "tempo": 120.0
            },
            {
                "start_time": 68.30227272727272,
                "end_time": 68.42045454545455,
                "pitch": 60,
                "velocity": 51,
                "duration": 0.11818181818182438,
                "tempo": 120.0
            },
            {
                "start_time": 68.43636363636364,
                "end_time": 68.52045454545454,
                "pitch": 51,
                "velocity": 51,
                "duration": 0.08409090909090366,
                "tempo": 120.0
            },
            {
                "start_time": 68.53636363636363,
                "end_time": 68.65454545454546,
                "pitch": 58,
                "velocity": 51,
                "duration": 0.11818181818182438,
                "tempo": 120.0
            },
            {
                "start_time": 68.67045454545455,
                "end_time": 68.75454545454545,
                "pitch": 57,
                "velocity": 51,
                "duration": 0.08409090909090366,
                "tempo": 120.0
            },
            {
                "start_time": 68.77272727272727,
                "end_time": 68.89090909090909,
                "pitch": 55,
                "velocity": 51,
                "duration": 0.11818181818182438,
                "tempo": 120.0
            },
            {
                "start_time": 68.9090909090909,
                "end_time": 68.99545454545454,
                "pitch": 53,
                "velocity": 51,
                "duration": 0.08636363636362887,
                "tempo": 120.0
            },
            {
                "start_time": 69.01136363636363,
                "end_time": 69.13181818181818,
                "pitch": 55,
                "velocity": 51,
                "duration": 0.12045454545454959,
                "tempo": 120.0
            },
            {
                "start_time": 69.14999999999999,
                "end_time": 69.23409090909091,
                "pitch": 57,
                "velocity": 51,
                "duration": 0.08409090909091788,
                "tempo": 120.0
            },
            {
                "start_time": 69.25227272727273,
                "end_time": 69.36363636363636,
                "pitch": 58,
                "velocity": 51,
                "duration": 0.11136363636363455,
                "tempo": 120.0
            },
            {
                "start_time": 69.37954545454545,
                "end_time": 69.4590909090909,
                "pitch": 60,
                "velocity": 51,
                "duration": 0.07954545454545325,
                "tempo": 120.0
            },
            {
                "start_time": 69.475,
                "end_time": 69.58863636363635,
                "pitch": 55,
                "velocity": 51,
                "duration": 0.11363636363635976,
                "tempo": 120.0
            },
            {
                "start_time": 69.60454545454544,
                "end_time": 69.68409090909091,
                "pitch": 62,
                "velocity": 51,
                "duration": 0.07954545454546746,
                "tempo": 120.0
            },
            {
                "start_time": 69.7,
                "end_time": 69.81363636363636,
                "pitch": 63,
                "velocity": 51,
                "duration": 0.11363636363635976,
                "tempo": 120.0
            },
            {
                "start_time": 69.83181818181818,
                "end_time": 69.91363636363636,
                "pitch": 56,
                "velocity": 51,
                "duration": 0.08181818181817846,
                "tempo": 120.0
            },
            {
                "start_time": 69.92954545454545,
                "end_time": 70.04318181818182,
                "pitch": 58,
                "velocity": 51,
                "duration": 0.11363636363637397,
                "tempo": 120.0
            },
            {
                "start_time": 70.05909090909091,
                "end_time": 70.14090909090909,
                "pitch": 60,
                "velocity": 51,
                "duration": 0.08181818181817846,
                "tempo": 120.0
            },
            {
                "start_time": 70.1590909090909,
                "end_time": 70.27499999999999,
                "pitch": 62,
                "velocity": 51,
                "duration": 0.11590909090908497,
                "tempo": 120.0
            },
            {
                "start_time": 70.29318181818182,
                "end_time": 70.375,
                "pitch": 63,
                "velocity": 51,
                "duration": 0.08181818181817846,
                "tempo": 120.0
            },
            {
                "start_time": 70.39318181818182,
                "end_time": 70.5090909090909,
                "pitch": 65,
                "velocity": 51,
                "duration": 0.11590909090908497,
                "tempo": 120.0
            },
            {
                "start_time": 70.52727272727273,
                "end_time": 70.61136363636363,
                "pitch": 67,
                "velocity": 51,
                "duration": 0.08409090909090366,
                "tempo": 120.0
            },
            {
                "start_time": 70.62727272727273,
                "end_time": 70.74545454545454,
                "pitch": 65,
                "velocity": 51,
                "duration": 0.11818181818181017,
                "tempo": 120.0
            },
            {
                "start_time": 70.76136363636363,
                "end_time": 70.84545454545454,
                "pitch": 63,
                "velocity": 51,
                "duration": 0.08409090909091788,
                "tempo": 120.0
            },
            {
                "start_time": 70.86136363636363,
                "end_time": 70.97954545454544,
                "pitch": 56,
                "velocity": 51,
                "duration": 0.11818181818181017,
                "tempo": 120.0
            },
            {
                "start_time": 70.99545454545454,
                "end_time": 71.07954545454545,
                "pitch": 58,
                "velocity": 51,
                "duration": 0.08409090909091788,
                "tempo": 120.0
            },
            {
                "start_time": 71.09545454545454,
                "end_time": 71.21363636363635,
                "pitch": 60,
                "velocity": 51,
                "duration": 0.11818181818181017,
                "tempo": 120.0
            },
            {
                "start_time": 71.22954545454544,
                "end_time": 71.31363636363636,
                "pitch": 55,
                "velocity": 51,
                "duration": 0.08409090909091788,
                "tempo": 120.0
            },
            {
                "start_time": 71.33181818181818,
                "end_time": 71.44772727272726,
                "pitch": 63,
                "velocity": 51,
                "duration": 0.11590909090908497,
                "tempo": 120.0
            },
            {
                "start_time": 71.4659090909091,
                "end_time": 71.54772727272727,
                "pitch": 62,
                "velocity": 51,
                "duration": 0.08181818181817846,
                "tempo": 120.0
            },
            {
                "start_time": 71.56590909090909,
                "end_time": 71.67954545454545,
                "pitch": 60,
                "velocity": 51,
                "duration": 0.11363636363635976,
                "tempo": 120.0
            },
            {
                "start_time": 71.69545454545454,
                "end_time": 71.77727272727273,
                "pitch": 62,
                "velocity": 51,
                "duration": 0.08181818181819267,
                "tempo": 120.0
            },
            {
                "start_time": 71.79545454545455,
                "end_time": 71.9090909090909,
                "pitch": 61,
                "velocity": 51,
                "duration": 0.11363636363635976,
                "tempo": 120.0
            },
            {
                "start_time": 71.925,
                "end_time": 72.00681818181818,
                "pitch": 60,
                "velocity": 51,
                "duration": 0.08181818181817846,
                "tempo": 120.0
            },
            {
                "start_time": 72.02272727272727,
                "end_time": 72.14090909090909,
                "pitch": 62,
                "velocity": 51,
                "duration": 0.11818181818182438,
                "tempo": 120.0
            },
            {
                "start_time": 72.15681818181818,
                "end_time": 72.24090909090908,
                "pitch": 63,
                "velocity": 51,
                "duration": 0.08409090909090366,
                "tempo": 120.0
            },
            {
                "start_time": 72.25681818181818,
                "end_time": 72.375,
                "pitch": 65,
                "velocity": 51,
                "duration": 0.11818181818182438,
                "tempo": 120.0
            },
            {
                "start_time": 72.39090909090909,
                "end_time": 72.475,
                "pitch": 62,
                "velocity": 51,
                "duration": 0.08409090909090366,
                "tempo": 120.0
            },
            {
                "start_time": 72.49318181818181,
                "end_time": 72.61136363636363,
                "pitch": 67,
                "velocity": 51,
                "duration": 0.11818181818182438,
                "tempo": 120.0
            },
            {
                "start_time": 72.62954545454545,
                "end_time": 72.7159090909091,
                "pitch": 60,
                "velocity": 51,
                "duration": 0.08636363636364308,
                "tempo": 120.0
            },
            {
                "start_time": 72.73181818181818,
                "end_time": 72.85227272727272,
                "pitch": 65,
                "velocity": 51,
                "duration": 0.12045454545453538,
                "tempo": 120.0
            },
            {
                "start_time": 72.87045454545454,
                "end_time": 72.95454545454545,
                "pitch": 58,
                "velocity": 51,
                "duration": 0.08409090909091788,
                "tempo": 120.0
            },
            {
                "start_time": 72.97272727272727,
                "end_time": 73.0840909090909,
                "pitch": 63,
                "velocity": 51,
                "duration": 0.11136363636363455,
                "tempo": 120.0
            },
            {
                "start_time": 73.1,
                "end_time": 73.17954545454545,
                "pitch": 60,
                "velocity": 51,
                "duration": 0.07954545454545325,
                "tempo": 120.0
            },
            {
                "start_time": 73.19545454545454,
                "end_time": 73.30909090909091,
                "pitch": 62,
                "velocity": 51,
                "duration": 0.11363636363637397,
                "tempo": 120.0
            },
            {
                "start_time": 73.325,
                "end_time": 73.40454545454546,
                "pitch": 60,
                "velocity": 51,
                "duration": 0.07954545454545325,
                "tempo": 120.0
            },
            {
                "start_time": 73.42045454545455,
                "end_time": 73.53636363636363,
                "pitch": 58,
                "velocity": 51,
                "duration": 0.11590909090908497,
                "tempo": 120.0
            },
            {
                "start_time": 73.55454545454545,
                "end_time": 73.63863636363637,
                "pitch": 65,
                "velocity": 51,
                "duration": 0.08409090909091788,
                "tempo": 120.0
            },
            {
                "start_time": 73.65454545454546,
                "end_time": 73.77272727272727,
                "pitch": 60,
                "velocity": 51,
                "duration": 0.11818181818181017,
                "tempo": 120.0
            },
            {
                "start_time": 73.78863636363636,
                "end_time": 73.87272727272727,
                "pitch": 63,
                "velocity": 51,
                "duration": 0.08409090909091788,
                "tempo": 120.0
            },
            {
                "start_time": 73.88863636363637,
                "end_time": 74.00681818181818,
                "pitch": 62,
                "velocity": 51,
                "duration": 0.11818181818181017,
                "tempo": 120.0
            },
            {
                "start_time": 74.02272727272727,
                "end_time": 74.10681818181818,
                "pitch": 58,
                "velocity": 51,
                "duration": 0.08409090909091788,
                "tempo": 120.0
            },
            {
                "start_time": 74.12272727272727,
                "end_time": 74.24090909090908,
                "pitch": 60,
                "velocity": 51,
                "duration": 0.11818181818181017,
                "tempo": 120.0
            },
            {
                "start_time": 74.25681818181818,
                "end_time": 74.3409090909091,
                "pitch": 58,
                "velocity": 51,
                "duration": 0.08409090909091788,
                "tempo": 120.0
            },
            {
                "start_time": 74.35909090909091,
                "end_time": 74.47272727272727,
                "pitch": 56,
                "velocity": 51,
                "duration": 0.11363636363635976,
                "tempo": 120.0
            },
            {
                "start_time": 74.48863636363636,
                "end_time": 74.57045454545454,
                "pitch": 55,
                "velocity": 51,
                "duration": 0.08181818181817846,
                "tempo": 120.0
            },
            {
                "start_time": 74.58636363636363,
                "end_time": 74.70227272727273,
                "pitch": 56,
                "velocity": 51,
                "duration": 0.11590909090909918,
                "tempo": 120.0
            },
            {
                "start_time": 74.71818181818182,
                "end_time": 74.8,
                "pitch": 58,
                "velocity": 51,
                "duration": 0.08181818181817846,
                "tempo": 120.0
            },
            {
                "start_time": 74.81590909090909,
                "end_time": 74.93409090909091,
                "pitch": 56,
                "velocity": 51,
                "duration": 0.11818181818182438,
                "tempo": 120.0
            },
            {
                "start_time": 74.95,
                "end_time": 75.0340909090909,
                "pitch": 58,
                "velocity": 51,
                "duration": 0.08409090909090366,
                "tempo": 120.0
            },
            {
                "start_time": 75.05,
                "end_time": 75.16818181818182,
                "pitch": 55,
                "velocity": 51,
                "duration": 0.11818181818182438,
                "tempo": 120.0
            },
            {
                "start_time": 75.18409090909091,
                "end_time": 75.26818181818182,
                "pitch": 60,
                "velocity": 51,
                "duration": 0.08409090909090366,
                "tempo": 120.0
            },
            {
                "start_time": 75.28636363636363,
                "end_time": 75.40227272727272,
                "pitch": 56,
                "velocity": 51,
                "duration": 0.11590909090908497,
                "tempo": 120.0
            },
            {
                "start_time": 75.42045454545455,
                "end_time": 75.50227272727273,
                "pitch": 62,
                "velocity": 51,
                "duration": 0.08181818181817846,
                "tempo": 120.0
            },
            {
                "start_time": 75.52045454545454,
                "end_time": 75.63636363636363,
                "pitch": 58,
                "velocity": 51,
                "duration": 0.11590909090908497,
                "tempo": 120.0
            },
            {
                "start_time": 75.65454545454546,
                "end_time": 75.73863636363636,
                "pitch": 63,
                "velocity": 51,
                "duration": 0.08409090909090366,
                "tempo": 120.0
            },
            {
                "start_time": 75.75454545454545,
                "end_time": 75.86818181818181,
                "pitch": 58,
                "velocity": 51,
                "duration": 0.11363636363635976,
                "tempo": 120.0
            },
            {
                "start_time": 75.8840909090909,
                "end_time": 75.9659090909091,
                "pitch": 65,
                "velocity": 51,
                "duration": 0.08181818181819267,
                "tempo": 120.0
            },
            {
                "start_time": 75.98409090909091,
                "end_time": 76.09772727272727,
                "pitch": 58,
                "velocity": 51,
                "duration": 0.11363636363635976,
                "tempo": 120.0
            },
            {
                "start_time": 76.11363636363636,
                "end_time": 76.19545454545454,
                "pitch": 61,
                "velocity": 51,
                "duration": 0.08181818181817846,
                "tempo": 120.0
            },
            {
                "start_time": 76.21136363636363,
                "end_time": 76.33181818181818,
                "pitch": 65,
                "velocity": 51,
                "duration": 0.12045454545454959,
                "tempo": 120.0
            },
            {
                "start_time": 76.35,
                "end_time": 76.43409090909091,
                "pitch": 67,
                "velocity": 51,
                "duration": 0.08409090909091788,
                "tempo": 120.0
            },
            {
                "start_time": 76.45227272727273,
                "end_time": 76.57272727272726,
                "pitch": 65,
                "velocity": 51,
                "duration": 0.12045454545453538,
                "tempo": 120.0
            },
            {
                "start_time": 76.58863636363635,
                "end_time": 76.675,
                "pitch": 65,
                "velocity": 51,
                "duration": 0.08636363636364308,
                "tempo": 120.0
            },
            {
                "start_time": 76.69318181818181,
                "end_time": 76.80681818181817,
                "pitch": 61,
                "velocity": 51,
                "duration": 0.11363636363635976,
                "tempo": 120.0
            },
            {
                "start_time": 76.82272727272726,
                "end_time": 76.90454545454546,
                "pitch": 60,
                "velocity": 51,
                "duration": 0.08181818181819267,
                "tempo": 120.0
            },
            {
                "start_time": 76.92272727272727,
                "end_time": 77.03636363636363,
                "pitch": 58,
                "velocity": 51,
                "duration": 0.11363636363635976,
                "tempo": 120.0
            },
            {
                "start_time": 77.05227272727272,
                "end_time": 77.1340909090909,
                "pitch": 63,
                "velocity": 51,
                "duration": 0.08181818181817846,
                "tempo": 120.0
            },
            {
                "start_time": 77.14999999999999,
                "end_time": 77.26590909090909,
                "pitch": 62,
                "velocity": 51,
                "duration": 0.11590909090909918,
                "tempo": 120.0
            },
            {
                "start_time": 77.28181818181818,
                "end_time": 77.36363636363636,
                "pitch": 58,
                "velocity": 51,
                "duration": 0.08181818181817846,
                "tempo": 120.0
            },
            {
                "start_time": 77.37954545454545,
                "end_time": 77.49545454545454,
                "pitch": 56,
                "velocity": 51,
                "duration": 0.11590909090908497,
                "tempo": 120.0
            },
            {
                "start_time": 77.51136363636363,
                "end_time": 77.59318181818182,
                "pitch": 60,
                "velocity": 51,
                "duration": 0.08181818181819267,
                "tempo": 120.0
            },
            {
                "start_time": 77.60909090909091,
                "end_time": 77.72727272727272,
                "pitch": 58,
                "velocity": 51,
                "duration": 0.11818181818181017,
                "tempo": 120.0
            },
            {
                "start_time": 77.74318181818181,
                "end_time": 77.82727272727273,
                "pitch": 55,
                "velocity": 51,
                "duration": 0.08409090909091788,
                "tempo": 120.0
            },
            {
                "start_time": 77.84318181818182,
                "end_time": 77.96136363636363,
                "pitch": 56,
                "velocity": 51,
                "duration": 0.11818181818181017,
                "tempo": 120.0
            },
            {
                "start_time": 77.97727272727272,
                "end_time": 78.06136363636364,
                "pitch": 53,
                "velocity": 51,
                "duration": 0.08409090909091788,
                "tempo": 120.0
            },
            {
                "start_time": 78.07727272727273,
                "end_time": 78.29090909090908,
                "pitch": 65,
                "velocity": 51,
                "duration": 0.21363636363635408,
                "tempo": 120.0
            },
            {
                "start_time": 78.30681818181817,
                "end_time": 78.42045454545455,
                "pitch": 65,
                "velocity": 51,
                "duration": 0.11363636363637397,
                "tempo": 120.0
            },
            {
                "start_time": 78.43863636363636,
                "end_time": 78.52045454545454,
                "pitch": 63,
                "velocity": 51,
                "duration": 0.08181818181817846,
                "tempo": 120.0
            },
            {
                "start_time": 78.53636363636363,
                "end_time": 78.65227272727272,
                "pitch": 60,
                "velocity": 51,
                "duration": 0.11590909090908497,
                "tempo": 120.0
            },
            {
                "start_time": 78.67045454545455,
                "end_time": 78.75454545454545,
                "pitch": 58,
                "velocity": 51,
                "duration": 0.08409090909090366,
                "tempo": 120.0
            },
            {
                "start_time": 78.77045454545454,
                "end_time": 78.98863636363636,
                "pitch": 65,
                "velocity": 51,
                "duration": 0.2181818181818187,
                "tempo": 120.0
            },
            {
                "start_time": 79.00454545454545,
                "end_time": 79.12272727272727,
                "pitch": 65,
                "velocity": 51,
                "duration": 0.11818181818182438,
                "tempo": 120.0
            },
            {
                "start_time": 79.13863636363637,
                "end_time": 79.22272727272727,
                "pitch": 63,
                "velocity": 51,
                "duration": 0.08409090909090366,
                "tempo": 120.0
            },
            {
                "start_time": 79.23863636363636,
                "end_time": 79.35681818181818,
                "pitch": 60,
                "velocity": 51,
                "duration": 0.11818181818182438,
                "tempo": 120.0
            },
            {
                "start_time": 79.37272727272727,
                "end_time": 79.45681818181818,
                "pitch": 58,
                "velocity": 51,
                "duration": 0.08409090909090366,
                "tempo": 120.0
            },
            {
                "start_time": 79.475,
                "end_time": 79.69090909090909,
                "pitch": 65,
                "velocity": 51,
                "duration": 0.2159090909090935,
                "tempo": 120.0
            },
            {
                "start_time": 79.7090909090909,
                "end_time": 79.825,
                "pitch": 65,
                "velocity": 51,
                "duration": 0.11590909090909918,
                "tempo": 120.0
            },
            {
                "start_time": 79.84318181818182,
                "end_time": 79.92727272727272,
                "pitch": 63,
                "velocity": 51,
                "duration": 0.08409090909090366,
                "tempo": 120.0
            },
            {
                "start_time": 79.94318181818181,
                "end_time": 80.05681818181817,
                "pitch": 60,
                "velocity": 51,
                "duration": 0.11363636363635976,
                "tempo": 120.0
            },
            {
                "start_time": 80.075,
                "end_time": 80.15681818181818,
                "pitch": 58,
                "velocity": 51,
                "duration": 0.08181818181817846,
                "tempo": 120.0
            },
            {
                "start_time": 80.17272727272727,
                "end_time": 80.3840909090909,
                "pitch": 65,
                "velocity": 51,
                "duration": 0.21136363636362887,
                "tempo": 120.0
            },
            {
                "start_time": 80.40227272727272,
                "end_time": 80.51818181818182,
                "pitch": 65,
                "velocity": 51,
                "duration": 0.11590909090909918,
                "tempo": 120.0
            },
            {
                "start_time": 80.53636363636363,
                "end_time": 80.61818181818181,
                "pitch": 63,
                "velocity": 51,
                "duration": 0.08181818181817846,
                "tempo": 120.0
            },
            {
                "start_time": 80.63636363636363,
                "end_time": 80.75227272727273,
                "pitch": 60,
                "velocity": 51,
                "duration": 0.11590909090909918,
                "tempo": 120.0
            },
            {
                "start_time": 80.77045454545454,
                "end_time": 80.85454545454544,
                "pitch": 58,
                "velocity": 51,
                "duration": 0.08409090909090366,
                "tempo": 120.0
            },
            {
                "start_time": 80.87045454545454,
                "end_time": 81.08863636363635,
                "pitch": 65,
                "velocity": 51,
                "duration": 0.2181818181818187,
                "tempo": 120.0
            },
            {
                "start_time": 81.10454545454544,
                "end_time": 81.22272727272727,
                "pitch": 65,
                "velocity": 51,
                "duration": 0.11818181818182438,
                "tempo": 120.0
            },
            {
                "start_time": 81.23863636363636,
                "end_time": 81.32272727272726,
                "pitch": 63,
                "velocity": 51,
                "duration": 0.08409090909090366,
                "tempo": 120.0
            },
            {
                "start_time": 81.33863636363635,
                "end_time": 81.45454545454545,
                "pitch": 60,
                "velocity": 51,
                "duration": 0.11590909090909918,
                "tempo": 120.0
            },
            {
                "start_time": 81.47045454545454,
                "end_time": 81.55227272727272,
                "pitch": 58,
                "velocity": 51,
                "duration": 0.08181818181817846,
                "tempo": 120.0
            },
            {
                "start_time": 81.56818181818181,
                "end_time": 81.78181818181818,
                "pitch": 65,
                "velocity": 51,
                "duration": 0.2136363636363683,
                "tempo": 120.0
            },
            {
                "start_time": 81.79772727272727,
                "end_time": 81.91363636363636,
                "pitch": 65,
                "velocity": 51,
                "duration": 0.11590909090908497,
                "tempo": 120.0
            },
            {
                "start_time": 81.93181818181817,
                "end_time": 82.01590909090909,
                "pitch": 63,
                "velocity": 51,
                "duration": 0.08409090909091788,
                "tempo": 120.0
            },
            {
                "start_time": 82.03181818181818,
                "end_time": 82.14999999999999,
                "pitch": 60,
                "velocity": 51,
                "duration": 0.11818181818181017,
                "tempo": 120.0
            },
            {
                "start_time": 82.16590909090908,
                "end_time": 82.25,
                "pitch": 58,
                "velocity": 51,
                "duration": 0.08409090909091788,
                "tempo": 120.0
            },
            {
                "start_time": 82.26590909090909,
                "end_time": 82.48409090909091,
                "pitch": 65,
                "velocity": 51,
                "duration": 0.2181818181818187,
                "tempo": 120.0
            },
            {
                "start_time": 82.5,
                "end_time": 82.61818181818181,
                "pitch": 65,
                "velocity": 51,
                "duration": 0.11818181818181017,
                "tempo": 120.0
            },
            {
                "start_time": 82.6340909090909,
                "end_time": 82.71818181818182,
                "pitch": 63,
                "velocity": 51,
                "duration": 0.08409090909091788,
                "tempo": 120.0
            },
            {
                "start_time": 82.73636363636363,
                "end_time": 82.85,
                "pitch": 60,
                "velocity": 51,
                "duration": 0.11363636363635976,
                "tempo": 120.0
            },
            {
                "start_time": 82.86590909090908,
                "end_time": 82.94772727272726,
                "pitch": 58,
                "velocity": 51,
                "duration": 0.08181818181817846,
                "tempo": 120.0
            },
            {
                "start_time": 82.96363636363635,
                "end_time": 83.17727272727272,
                "pitch": 65,
                "velocity": 51,
                "duration": 0.2136363636363683,
                "tempo": 120.0
            },
            {
                "start_time": 83.19318181818181,
                "end_time": 83.31136363636364,
                "pitch": 65,
                "velocity": 51,
                "duration": 0.11818181818182438,
                "tempo": 120.0
            },
            {
                "start_time": 83.32727272727273,
                "end_time": 83.41136363636363,
                "pitch": 63,
                "velocity": 51,
                "duration": 0.08409090909090366,
                "tempo": 120.0
            },
            {
                "start_time": 83.42727272727272,
                "end_time": 83.54545454545455,
                "pitch": 60,
                "velocity": 51,
                "duration": 0.11818181818182438,
                "tempo": 120.0
            },
            {
                "start_time": 83.56136363636364,
                "end_time": 83.64545454545454,
                "pitch": 58,
                "velocity": 51,
                "duration": 0.08409090909090366,
                "tempo": 120.0
            },
            {
                "start_time": 83.66363636363636,
                "end_time": 83.87954545454545,
                "pitch": 65,
                "velocity": 51,
                "duration": 0.2159090909090935,
                "tempo": 120.0
            },
            {
                "start_time": 83.89772727272727,
                "end_time": 84.01363636363637,
                "pitch": 65,
                "velocity": 51,
                "duration": 0.11590909090909918,
                "tempo": 120.0
            },
            {
                "start_time": 84.03181818181818,
                "end_time": 84.11590909090908,
                "pitch": 63,
                "velocity": 51,
                "duration": 0.08409090909090366,
                "tempo": 120.0
            },
            {
                "start_time": 84.13181818181818,
                "end_time": 84.24545454545454,
                "pitch": 60,
                "velocity": 51,
                "duration": 0.11363636363635976,
                "tempo": 120.0
            },
            {
                "start_time": 84.26136363636363,
                "end_time": 84.34318181818182,
                "pitch": 58,
                "velocity": 51,
                "duration": 0.08181818181819267,
                "tempo": 120.0
            },
            {
                "start_time": 84.36136363636363,
                "end_time": 84.57272727272726,
                "pitch": 65,
                "velocity": 51,
                "duration": 0.21136363636362887,
                "tempo": 120.0
            },
            {
                "start_time": 84.58863636363635,
                "end_time": 84.70681818181818,
                "pitch": 65,
                "velocity": 51,
                "duration": 0.11818181818182438,
                "tempo": 120.0
            },
            {
                "start_time": 84.72272727272727,
                "end_time": 84.80681818181817,
                "pitch": 63,
                "velocity": 51,
                "duration": 0.08409090909090366,
                "tempo": 120.0
            },
            {
                "start_time": 84.825,
                "end_time": 85.04090909090908,
                "pitch": 65,
                "velocity": 51,
                "duration": 0.21590909090907928,
                "tempo": 120.0
            },
            {
                "start_time": 85.0590909090909,
                "end_time": 85.175,
                "pitch": 65,
                "velocity": 51,
                "duration": 0.11590909090909918,
                "tempo": 120.0
            },
            {
                "start_time": 85.19318181818181,
                "end_time": 85.27727272727272,
                "pitch": 63,
                "velocity": 51,
                "duration": 0.08409090909090366,
                "tempo": 120.0
            },
            {
                "start_time": 85.29318181818181,
                "end_time": 85.41136363636363,
                "pitch": 60,
                "velocity": 51,
                "duration": 0.11818181818182438,
                "tempo": 120.0
            },
            {
                "start_time": 85.42727272727272,
                "end_time": 85.51136363636363,
                "pitch": 58,
                "velocity": 51,
                "duration": 0.08409090909090366,
                "tempo": 120.0
            },
            {
                "start_time": 85.52727272727272,
                "end_time": 85.74090909090908,
                "pitch": 65,
                "velocity": 51,
                "duration": 0.2136363636363683,
                "tempo": 120.0
            },
            {
                "start_time": 85.75681818181818,
                "end_time": 85.87045454545454,
                "pitch": 65,
                "velocity": 51,
                "duration": 0.11363636363635976,
                "tempo": 120.0
            },
            {
                "start_time": 85.88863636363637,
                "end_time": 85.97045454545454,
                "pitch": 63,
                "velocity": 51,
                "duration": 0.08181818181817846,
                "tempo": 120.0
            },
            {
                "start_time": 85.98636363636363,
                "end_time": 86.10227272727272,
                "pitch": 60,
                "velocity": 51,
                "duration": 0.11590909090908497,
                "tempo": 120.0
            },
            {
                "start_time": 86.12045454545454,
                "end_time": 86.20454545454545,
                "pitch": 58,
                "velocity": 51,
                "duration": 0.08409090909091788,
                "tempo": 120.0
            },
            {
                "start_time": 86.22045454545454,
                "end_time": 86.43863636363636,
                "pitch": 65,
                "velocity": 51,
                "duration": 0.2181818181818187,
                "tempo": 120.0
            },
            {
                "start_time": 86.45454545454545,
                "end_time": 86.57272727272726,
                "pitch": 65,
                "velocity": 51,
                "duration": 0.11818181818181017,
                "tempo": 120.0
            },
            {
                "start_time": 86.58863636363635,
                "end_time": 86.67272727272727,
                "pitch": 63,
                "velocity": 51,
                "duration": 0.08409090909091788,
                "tempo": 120.0
            },
            {
                "start_time": 86.68863636363636,
                "end_time": 86.80681818181817,
                "pitch": 60,
                "velocity": 51,
                "duration": 0.11818181818181017,
                "tempo": 120.0
            },
            {
                "start_time": 86.82272727272726,
                "end_time": 86.90681818181818,
                "pitch": 58,
                "velocity": 51,
                "duration": 0.08409090909091788,
                "tempo": 120.0
            },
            {
                "start_time": 86.925,
                "end_time": 87.13636363636363,
                "pitch": 65,
                "velocity": 51,
                "duration": 0.21136363636362887,
                "tempo": 120.0
            },
            {
                "start_time": 87.15227272727272,
                "end_time": 87.26818181818182,
                "pitch": 65,
                "velocity": 51,
                "duration": 0.11590909090909918,
                "tempo": 120.0
            },
            {
                "start_time": 87.2840909090909,
                "end_time": 87.36590909090908,
                "pitch": 63,
                "velocity": 51,
                "duration": 0.08181818181817846,
                "tempo": 120.0
            },
            {
                "start_time": 87.38181818181818,
                "end_time": 87.5,
                "pitch": 60,
                "velocity": 51,
                "duration": 0.11818181818182438,
                "tempo": 120.0
            },
            {
                "start_time": 87.51590909090909,
                "end_time": 87.6,
                "pitch": 58,
                "velocity": 51,
                "duration": 0.08409090909090366,
                "tempo": 120.0
            },
            {
                "start_time": 87.61590909090908,
                "end_time": 87.8340909090909,
                "pitch": 65,
                "velocity": 51,
                "duration": 0.2181818181818187,
                "tempo": 120.0
            },
            {
                "start_time": 87.85,
                "end_time": 87.96818181818182,
                "pitch": 65,
                "velocity": 51,
                "duration": 0.11818181818182438,
                "tempo": 120.0
            },
            {
                "start_time": 87.98409090909091,
                "end_time": 88.06818181818181,
                "pitch": 63,
                "velocity": 51,
                "duration": 0.08409090909090366,
                "tempo": 120.0
            },
            {
                "start_time": 88.08636363636363,
                "end_time": 88.20227272727273,
                "pitch": 60,
                "velocity": 51,
                "duration": 0.11590909090909918,
                "tempo": 120.0
            },
            {
                "start_time": 88.22045454545454,
                "end_time": 88.30227272727272,
                "pitch": 58,
                "velocity": 51,
                "duration": 0.08181818181817846,
                "tempo": 120.0
            },
            {
                "start_time": 88.32045454545454,
                "end_time": 88.53181818181818,
                "pitch": 65,
                "velocity": 51,
                "duration": 0.21136363636364308,
                "tempo": 120.0
            },
            {
                "start_time": 88.55,
                "end_time": 88.66363636363636,
                "pitch": 65,
                "velocity": 51,
                "duration": 0.11363636363635976,
                "tempo": 120.0
            },
            {
                "start_time": 88.67954545454545,
                "end_time": 88.76136363636363,
                "pitch": 63,
                "velocity": 51,
                "duration": 0.08181818181817846,
                "tempo": 120.0
            },
            {
                "start_time": 88.77727272727272,
                "end_time": 88.89545454545454,
                "pitch": 60,
                "velocity": 51,
                "duration": 0.11818181818182438,
                "tempo": 120.0
            },
            {
                "start_time": 88.91136363636363,
                "end_time": 88.99545454545454,
                "pitch": 58,
                "velocity": 51,
                "duration": 0.08409090909090366,
                "tempo": 120.0
            },
            {
                "start_time": 89.01363636363637,
                "end_time": 89.22954545454544,
                "pitch": 65,
                "velocity": 51,
                "duration": 0.21590909090907928,
                "tempo": 120.0
            },
            {
                "start_time": 89.24772727272727,
                "end_time": 89.36363636363636,
                "pitch": 65,
                "velocity": 51,
                "duration": 0.11590909090908497,
                "tempo": 120.0
            },
            {
                "start_time": 89.38181818181818,
                "end_time": 89.4659090909091,
                "pitch": 63,
                "velocity": 51,
                "duration": 0.08409090909091788,
                "tempo": 120.0
            },
            {
                "start_time": 89.48181818181818,
                "end_time": 89.6,
                "pitch": 60,
                "velocity": 51,
                "duration": 0.11818181818181017,
                "tempo": 120.0
            },
            {
                "start_time": 89.61590909090908,
                "end_time": 89.69999999999999,
                "pitch": 58,
                "velocity": 51,
                "duration": 0.08409090909090366,
                "tempo": 120.0
            },
            {
                "start_time": 89.7159090909091,
                "end_time": 89.92954545454545,
                "pitch": 65,
                "velocity": 51,
                "duration": 0.21363636363635408,
                "tempo": 120.0
            },
            {
                "start_time": 89.94545454545454,
                "end_time": 90.0590909090909,
                "pitch": 65,
                "velocity": 51,
                "duration": 0.11363636363635976,
                "tempo": 120.0
            },
            {
                "start_time": 90.07727272727273,
                "end_time": 90.1590909090909,
                "pitch": 63,
                "velocity": 51,
                "duration": 0.08181818181817846,
                "tempo": 120.0
            },
            {
                "start_time": 90.175,
                "end_time": 90.29090909090908,
                "pitch": 60,
                "velocity": 51,
                "duration": 0.11590909090908497,
                "tempo": 120.0
            },
            {
                "start_time": 90.3090909090909,
                "end_time": 90.39318181818182,
                "pitch": 58,
                "velocity": 51,
                "duration": 0.08409090909091788,
                "tempo": 120.0
            },
            {
                "start_time": 90.4090909090909,
                "end_time": 90.62727272727273,
                "pitch": 65,
                "velocity": 51,
                "duration": 0.2181818181818187,
                "tempo": 120.0
            },
            {
                "start_time": 90.64318181818182,
                "end_time": 90.76136363636363,
                "pitch": 65,
                "velocity": 51,
                "duration": 0.11818181818181017,
                "tempo": 120.0
            },
            {
                "start_time": 90.77727272727272,
                "end_time": 90.86136363636363,
                "pitch": 63,
                "velocity": 51,
                "duration": 0.08409090909091788,
                "tempo": 120.0
            },
            {
                "start_time": 90.87727272727273,
                "end_time": 90.99545454545454,
                "pitch": 60,
                "velocity": 51,
                "duration": 0.11818181818181017,
                "tempo": 120.0
            },
            {
                "start_time": 91.01136363636363,
                "end_time": 91.09545454545454,
                "pitch": 58,
                "velocity": 51,
                "duration": 0.08409090909091788,
                "tempo": 120.0
            },
            {
                "start_time": 91.11136363636363,
                "end_time": 91.32499999999999,
                "pitch": 65,
                "velocity": 51,
                "duration": 0.21363636363635408,
                "tempo": 120.0
            },
            {
                "start_time": 91.3409090909091,
                "end_time": 91.45681818181818,
                "pitch": 65,
                "velocity": 51,
                "duration": 0.11590909090908497,
                "tempo": 120.0
            },
            {
                "start_time": 91.47272727272727,
                "end_time": 91.55454545454545,
                "pitch": 63,
                "velocity": 51,
                "duration": 0.08181818181817846,
                "tempo": 120.0
            },
            {
                "start_time": 91.57045454545454,
                "end_time": 91.68863636363636,
                "pitch": 60,
                "velocity": 51,
                "duration": 0.11818181818182438,
                "tempo": 120.0
            },
            {
                "start_time": 91.70454545454545,
                "end_time": 91.78863636363636,
                "pitch": 58,
                "velocity": 51,
                "duration": 0.08409090909090366,
                "tempo": 120.0
            },
            {
                "start_time": 91.80454545454545,
                "end_time": 92.02272727272727,
                "pitch": 65,
                "velocity": 51,
                "duration": 0.2181818181818187,
                "tempo": 120.0
            },
            {
                "start_time": 92.03863636363636,
                "end_time": 92.15681818181818,
                "pitch": 65,
                "velocity": 51,
                "duration": 0.11818181818182438,
                "tempo": 120.0
            },
            {
                "start_time": 92.17272727272727,
                "end_time": 92.25681818181818,
                "pitch": 63,
                "velocity": 51,
                "duration": 0.08409090909090366,
                "tempo": 120.0
            },
            {
                "start_time": 92.27499999999999,
                "end_time": 92.49090909090908,
                "pitch": 65,
                "velocity": 51,
                "duration": 0.2159090909090935,
                "tempo": 120.0
            },
            {
                "start_time": 92.5090909090909,
                "end_time": 92.62272727272727,
                "pitch": 65,
                "velocity": 51,
                "duration": 0.11363636363637397,
                "tempo": 120.0
            },
            {
                "start_time": 92.63863636363637,
                "end_time": 92.72045454545454,
                "pitch": 63,
                "velocity": 51,
                "duration": 0.08181818181817846,
                "tempo": 120.0
            },
            {
                "start_time": 92.73863636363636,
                "end_time": 92.85227272727272,
                "pitch": 60,
                "velocity": 51,
                "duration": 0.11363636363635976,
                "tempo": 120.0
            },
            {
                "start_time": 92.86818181818181,
                "end_time": 92.9659090909091,
                "pitch": 58,
                "velocity": 51,
                "duration": 0.09772727272728332,
                "tempo": 120.0
            }
        ],
        "Acoustic Bass": [
            {
                "start_time": 3.6295454545454544,
                "end_time": 5.475,
                "pitch": 34,
                "velocity": 51,
                "duration": 1.8454545454545452,
                "tempo": 120.0
            },
            {
                "start_time": 6.420454545454545,
                "end_time": 7.340909090909091,
                "pitch": 36,
                "velocity": 51,
                "duration": 0.9204545454545459,
                "tempo": 120.0
            },
            {
                "start_time": 7.3568181818181815,
                "end_time": 9.195454545454545,
                "pitch": 36,
                "velocity": 51,
                "duration": 1.8386363636363638,
                "tempo": 120.0
            },
            {
                "start_time": 10.384090909090908,
                "end_time": 10.502272727272727,
                "pitch": 68,
                "velocity": 51,
                "duration": 0.11818181818181905,
                "tempo": 120.0
            },
            {
                "start_time": 10.518181818181818,
                "end_time": 10.602272727272727,
                "pitch": 68,
                "velocity": 51,
                "duration": 0.084090909090909,
                "tempo": 120.0
            },
            {
                "start_time": 11.088636363636363,
                "end_time": 11.422727272727272,
                "pitch": 34,
                "velocity": 51,
                "duration": 0.334090909090909,
                "tempo": 120.0
            },
            {
                "start_time": 11.438636363636363,
                "end_time": 11.520454545454545,
                "pitch": 41,
                "velocity": 51,
                "duration": 0.08181818181818201,
                "tempo": 120.0
            },
            {
                "start_time": 11.672727272727272,
                "end_time": 11.759090909090908,
                "pitch": 41,
                "velocity": 51,
                "duration": 0.08636363636363598,
                "tempo": 120.0
            },
            {
                "start_time": 11.913636363636362,
                "end_time": 11.997727272727273,
                "pitch": 41,
                "velocity": 51,
                "duration": 0.08409090909091077,
                "tempo": 120.0
            },
            {
                "start_time": 12.01590909090909,
                "end_time": 12.69090909090909,
                "pitch": 46,
                "velocity": 51,
                "duration": 0.6749999999999989,
                "tempo": 120.0
            },
            {
                "start_time": 12.709090909090909,
                "end_time": 12.825,
                "pitch": 46,
                "velocity": 51,
                "duration": 0.1159090909090903,
                "tempo": 120.0
            },
            {
                "start_time": 12.843181818181817,
                "end_time": 12.924999999999999,
                "pitch": 46,
                "velocity": 51,
                "duration": 0.08181818181818201,
                "tempo": 120.0
            },
            {
                "start_time": 12.943181818181818,
                "end_time": 13.286363636363635,
                "pitch": 34,
                "velocity": 51,
                "duration": 0.3431818181818169,
                "tempo": 120.0
            },
            {
                "start_time": 13.302272727272726,
                "end_time": 13.384090909090908,
                "pitch": 41,
                "velocity": 51,
                "duration": 0.08181818181818201,
                "tempo": 120.0
            },
            {
                "start_time": 13.534090909090908,
                "end_time": 13.618181818181817,
                "pitch": 41,
                "velocity": 51,
                "duration": 0.084090909090909,
                "tempo": 120.0
            },
            {
                "start_time": 13.770454545454545,
                "end_time": 13.852272727272727,
                "pitch": 41,
                "velocity": 51,
                "duration": 0.08181818181818201,
                "tempo": 120.0
            },
            {
                "start_time": 13.870454545454544,
                "end_time": 14.781818181818181,
                "pitch": 46,
                "velocity": 51,
                "duration": 0.911363636363637,
                "tempo": 120.0
            },
            {
                "start_time": 14.797727272727272,
                "end_time": 15.147727272727272,
                "pitch": 36,
                "velocity": 51,
                "duration": 0.34999999999999964,
                "tempo": 120.0
            },
            {
                "start_time": 15.165909090909091,
                "end_time": 15.25,
                "pitch": 43,
                "velocity": 51,
                "duration": 0.084090909090909,
                "tempo": 120.0
            },
            {
                "start_time": 15.399999999999999,
                "end_time": 15.484090909090908,
                "pitch": 43,
                "velocity": 51,
                "duration": 0.084090909090909,
                "tempo": 120.0
            },
            {
                "start_time": 15.634090909090908,
                "end_time": 15.718181818181817,
                "pitch": 43,
                "velocity": 51,
                "duration": 0.084090909090909,
                "tempo": 120.0
            },
            {
                "start_time": 15.734090909090908,
                "end_time": 16.411363636363635,
                "pitch": 48,
                "velocity": 51,
                "duration": 0.6772727272727277,
                "tempo": 120.0
            },
            {
                "start_time": 16.427272727272726,
                "end_time": 16.545454545454543,
                "pitch": 48,
                "velocity": 51,
                "duration": 0.11818181818181728,
                "tempo": 120.0
            },
            {
                "start_time": 16.561363636363634,
                "end_time": 16.645454545454545,
                "pitch": 48,
                "velocity": 51,
                "duration": 0.08409090909091077,
                "tempo": 120.0
            },
            {
                "start_time": 16.661363636363635,
                "end_time": 17.013636363636362,
                "pitch": 36,
                "velocity": 51,
                "duration": 0.3522727272727266,
                "tempo": 120.0
            },
            {
                "start_time": 17.03181818181818,
                "end_time": 17.113636363636363,
                "pitch": 43,
                "velocity": 51,
                "duration": 0.08181818181818201,
                "tempo": 120.0
            },
            {
                "start_time": 17.26590909090909,
                "end_time": 17.349999999999998,
                "pitch": 43,
                "velocity": 51,
                "duration": 0.08409090909090722,
                "tempo": 120.0
            },
            {
                "start_time": 17.5,
                "end_time": 17.584090909090907,
                "pitch": 43,
                "velocity": 51,
                "duration": 0.08409090909090722,
                "tempo": 120.0
            },
            {
                "start_time": 17.599999999999998,
                "end_time": 18.511363636363637,
                "pitch": 48,
                "velocity": 51,
                "duration": 0.9113636363636388,
                "tempo": 120.0
            },
            {
                "start_time": 18.527272727272727,
                "end_time": 18.870454545454546,
                "pitch": 34,
                "velocity": 51,
                "duration": 0.3431818181818187,
                "tempo": 120.0
            },
            {
                "start_time": 18.886363636363637,
                "end_time": 18.96818181818182,
                "pitch": 41,
                "velocity": 51,
                "duration": 0.08181818181818201,
                "tempo": 120.0
            },
            {
                "start_time": 18.986363636363635,
                "end_time": 19.438636363636363,
                "pitch": 41,
                "velocity": 51,
                "duration": 0.45227272727272805,
                "tempo": 120.0
            },
            {
                "start_time": 19.454545454545453,
                "end_time": 19.811363636363634,
                "pitch": 34,
                "velocity": 51,
                "duration": 0.3568181818181806,
                "tempo": 120.0
            },
            {
                "start_time": 19.829545454545453,
                "end_time": 19.913636363636364,
                "pitch": 41,
                "velocity": 51,
                "duration": 0.08409090909091077,
                "tempo": 120.0
            },
            {
                "start_time": 19.93181818181818,
                "end_time": 20.143181818181816,
                "pitch": 41,
                "velocity": 51,
                "duration": 0.21136363636363598,
                "tempo": 120.0
            },
            {
                "start_time": 20.161363636363635,
                "end_time": 20.275,
                "pitch": 46,
                "velocity": 51,
                "duration": 0.11363636363636331,
                "tempo": 120.0
            },
            {
                "start_time": 20.29090909090909,
                "end_time": 20.37272727272727,
                "pitch": 41,
                "velocity": 51,
                "duration": 0.08181818181818201,
                "tempo": 120.0
            },
            {
                "start_time": 20.388636363636362,
                "end_time": 20.73409090909091,
                "pitch": 34,
                "velocity": 51,
                "duration": 0.34545454545454746,
                "tempo": 120.0
            },
            {
                "start_time": 20.75,
                "end_time": 20.831818181818182,
                "pitch": 41,
                "velocity": 51,
                "duration": 0.08181818181818201,
                "tempo": 120.0
            },
            {
                "start_time": 20.847727272727273,
                "end_time": 21.3,
                "pitch": 41,
                "velocity": 51,
                "duration": 0.45227272727272805,
                "tempo": 120.0
            },
            {
                "start_time": 21.31590909090909,
                "end_time": 21.668181818181818,
                "pitch": 34,
                "velocity": 51,
                "duration": 0.3522727272727266,
                "tempo": 120.0
            },
            {
                "start_time": 21.68409090909091,
                "end_time": 21.768181818181816,
                "pitch": 41,
                "velocity": 51,
                "duration": 0.08409090909090722,
                "tempo": 120.0
            },
            {
                "start_time": 21.786363636363635,
                "end_time": 21.99772727272727,
                "pitch": 41,
                "velocity": 51,
                "duration": 0.21136363636363598,
                "tempo": 120.0
            },
            {
                "start_time": 22.013636363636362,
                "end_time": 22.227272727272727,
                "pitch": 34,
                "velocity": 51,
                "duration": 0.21363636363636473,
                "tempo": 120.0
            },
            {
                "start_time": 22.243181818181817,
                "end_time": 22.695454545454545,
                "pitch": 36,
                "velocity": 51,
                "duration": 0.45227272727272805,
                "tempo": 120.0
            },
            {
                "start_time": 22.71363636363636,
                "end_time": 23.154545454545453,
                "pitch": 43,
                "velocity": 51,
                "duration": 0.44090909090909136,
                "tempo": 120.0
            },
            {
                "start_time": 23.170454545454543,
                "end_time": 23.529545454545453,
                "pitch": 36,
                "velocity": 51,
                "duration": 0.35909090909090935,
                "tempo": 120.0
            },
            {
                "start_time": 23.547727272727272,
                "end_time": 23.634090909090908,
                "pitch": 43,
                "velocity": 51,
                "duration": 0.08636363636363598,
                "tempo": 120.0
            },
            {
                "start_time": 23.65,
                "end_time": 23.863636363636363,
                "pitch": 43,
                "velocity": 51,
                "duration": 0.21363636363636473,
                "tempo": 120.0
            },
            {
                "start_time": 23.879545454545454,
                "end_time": 23.995454545454546,
                "pitch": 48,
                "velocity": 51,
                "duration": 0.11590909090909207,
                "tempo": 120.0
            },
            {
                "start_time": 24.011363636363637,
                "end_time": 24.09318181818182,
                "pitch": 43,
                "velocity": 51,
                "duration": 0.08181818181818201,
                "tempo": 120.0
            },
            {
                "start_time": 24.10909090909091,
                "end_time": 24.549999999999997,
                "pitch": 36,
                "velocity": 51,
                "duration": 0.4409090909090878,
                "tempo": 120.0
            },
            {
                "start_time": 24.568181818181817,
                "end_time": 25.020454545454545,
                "pitch": 43,
                "velocity": 51,
                "duration": 0.45227272727272805,
                "tempo": 120.0
            },
            {
                "start_time": 25.036363636363635,
                "end_time": 25.395454545454545,
                "pitch": 36,
                "velocity": 51,
                "duration": 0.35909090909090935,
                "tempo": 120.0
            },
            {
                "start_time": 25.413636363636364,
                "end_time": 25.5,
                "pitch": 43,
                "velocity": 51,
                "duration": 0.08636363636363598,
                "tempo": 120.0
            },
            {
                "start_time": 25.51590909090909,
                "end_time": 25.729545454545452,
                "pitch": 43,
                "velocity": 51,
                "duration": 0.21363636363636118,
                "tempo": 120.0
            },
            {
                "start_time": 25.745454545454542,
                "end_time": 25.959090909090907,
                "pitch": 36,
                "velocity": 51,
                "duration": 0.21363636363636473,
                "tempo": 120.0
            },
            {
                "start_time": 25.974999999999998,
                "end_time": 27.811363636363634,
                "pitch": 34,
                "velocity": 51,
                "duration": 1.836363636363636,
                "tempo": 120.0
            },
            {
                "start_time": 28.75681818181818,
                "end_time": 29.677272727272726,
                "pitch": 36,
                "velocity": 51,
                "duration": 0.9204545454545467,
                "tempo": 120.0
            },
            {
                "start_time": 29.695454545454545,
                "end_time": 31.543181818181818,
                "pitch": 36,
                "velocity": 51,
                "duration": 1.8477272727272727,
                "tempo": 120.0
            },
            {
                "start_time": 33.413636363636364,
                "end_time": 33.75909090909091,
                "pitch": 34,
                "velocity": 51,
                "duration": 0.3454545454545439,
                "tempo": 120.0
            },
            {
                "start_time": 33.775,
                "end_time": 33.85681818181818,
                "pitch": 41,
                "velocity": 51,
                "duration": 0.08181818181817846,
                "tempo": 120.0
            },
            {
                "start_time": 34.00909090909091,
                "end_time": 34.09318181818182,
                "pitch": 41,
                "velocity": 51,
                "duration": 0.08409090909091077,
                "tempo": 120.0
            },
            {
                "start_time": 34.24772727272727,
                "end_time": 34.33181818181818,
                "pitch": 41,
                "velocity": 51,
                "duration": 0.08409090909091077,
                "tempo": 120.0
            },
            {
                "start_time": 34.34772727272727,
                "end_time": 35.025,
                "pitch": 46,
                "velocity": 51,
                "duration": 0.6772727272727295,
                "tempo": 120.0
            },
            {
                "start_time": 35.04090909090909,
                "end_time": 35.15909090909091,
                "pitch": 46,
                "velocity": 51,
                "duration": 0.11818181818181728,
                "tempo": 120.0
            },
            {
                "start_time": 35.175,
                "end_time": 35.25909090909091,
                "pitch": 46,
                "velocity": 51,
                "duration": 0.08409090909091077,
                "tempo": 120.0
            },
            {
                "start_time": 35.275,
                "end_time": 35.62045454545454,
                "pitch": 34,
                "velocity": 51,
                "duration": 0.3454545454545439,
                "tempo": 120.0
            },
            {
                "start_time": 35.63636363636363,
                "end_time": 35.71818181818182,
                "pitch": 41,
                "velocity": 51,
                "duration": 0.08181818181818556,
                "tempo": 120.0
            },
            {
                "start_time": 35.86818181818182,
                "end_time": 35.95227272727273,
                "pitch": 41,
                "velocity": 51,
                "duration": 0.08409090909091077,
                "tempo": 120.0
            },
            {
                "start_time": 36.10227272727273,
                "end_time": 36.18636363636364,
                "pitch": 41,
                "velocity": 51,
                "duration": 0.08409090909091077,
                "tempo": 120.0
            },
            {
                "start_time": 36.20227272727273,
                "end_time": 37.11363636363636,
                "pitch": 46,
                "velocity": 51,
                "duration": 0.9113636363636317,
                "tempo": 120.0
            },
            {
                "start_time": 37.12954545454545,
                "end_time": 37.48181818181818,
                "pitch": 36,
                "velocity": 51,
                "duration": 0.3522727272727266,
                "tempo": 120.0
            },
            {
                "start_time": 37.49772727272727,
                "end_time": 37.58181818181818,
                "pitch": 43,
                "velocity": 51,
                "duration": 0.08409090909091077,
                "tempo": 120.0
            },
            {
                "start_time": 37.73409090909091,
                "end_time": 37.81818181818181,
                "pitch": 43,
                "velocity": 51,
                "duration": 0.08409090909090366,
                "tempo": 120.0
            },
            {
                "start_time": 37.96818181818182,
                "end_time": 38.05227272727272,
                "pitch": 43,
                "velocity": 51,
                "duration": 0.08409090909090366,
                "tempo": 120.0
            },
            {
                "start_time": 38.06818181818181,
                "end_time": 38.74318181818182,
                "pitch": 48,
                "velocity": 51,
                "duration": 0.6750000000000043,
                "tempo": 120.0
            },
            {
                "start_time": 38.76136363636363,
                "end_time": 38.877272727272725,
                "pitch": 48,
                "velocity": 51,
                "duration": 0.11590909090909207,
                "tempo": 120.0
            },
            {
                "start_time": 38.89545454545454,
                "end_time": 38.97954545454545,
                "pitch": 48,
                "velocity": 51,
                "duration": 0.08409090909091077,
                "tempo": 120.0
            },
            {
                "start_time": 38.99545454545454,
                "end_time": 39.34772727272727,
                "pitch": 36,
                "velocity": 51,
                "duration": 0.3522727272727266,
                "tempo": 120.0
            },
            {
                "start_time": 39.36363636363636,
                "end_time": 39.44772727272727,
                "pitch": 43,
                "velocity": 51,
                "duration": 0.08409090909091077,
                "tempo": 120.0
            },
            {
                "start_time": 39.59772727272727,
                "end_time": 39.68181818181818,
                "pitch": 43,
                "velocity": 51,
                "duration": 0.08409090909091077,
                "tempo": 120.0
            },
            {
                "start_time": 39.834090909090904,
                "end_time": 39.91590909090909,
                "pitch": 43,
                "velocity": 51,
                "duration": 0.08181818181818556,
                "tempo": 120.0
            },
            {
                "start_time": 39.934090909090905,
                "end_time": 40.84318181818182,
                "pitch": 48,
                "velocity": 51,
                "duration": 0.9090909090909136,
                "tempo": 120.0
            },
            {
                "start_time": 40.861363636363635,
                "end_time": 41.20454545454545,
                "pitch": 34,
                "velocity": 51,
                "duration": 0.3431818181818187,
                "tempo": 120.0
            },
            {
                "start_time": 41.220454545454544,
                "end_time": 41.30227272727272,
                "pitch": 41,
                "velocity": 51,
                "duration": 0.08181818181817846,
                "tempo": 120.0
            },
            {
                "start_time": 41.31818181818181,
                "end_time": 41.777272727272724,
                "pitch": 41,
                "velocity": 51,
                "duration": 0.45909090909091077,
                "tempo": 120.0
            },
            {
                "start_time": 41.79545454545455,
                "end_time": 42.14772727272727,
                "pitch": 34,
                "velocity": 51,
                "duration": 0.3522727272727266,
                "tempo": 120.0
            },
            {
                "start_time": 42.163636363636364,
                "end_time": 42.24772727272727,
                "pitch": 41,
                "velocity": 51,
                "duration": 0.08409090909090366,
                "tempo": 120.0
            },
            {
                "start_time": 42.26363636363636,
                "end_time": 42.47272727272727,
                "pitch": 41,
                "velocity": 51,
                "duration": 0.20909090909091077,
                "tempo": 120.0
            },
            {
                "start_time": 42.48863636363636,
                "end_time": 42.6,
                "pitch": 46,
                "velocity": 51,
                "duration": 0.11136363636364166,
                "tempo": 120.0
            },
            {
                "start_time": 42.61590909090909,
                "end_time": 42.695454545454545,
                "pitch": 41,
                "velocity": 51,
                "duration": 0.07954545454545325,
                "tempo": 120.0
            },
            {
                "start_time": 42.711363636363636,
                "end_time": 43.06363636363636,
                "pitch": 34,
                "velocity": 51,
                "duration": 0.3522727272727266,
                "tempo": 120.0
            },
            {
                "start_time": 43.07954545454545,
                "end_time": 43.163636363636364,
                "pitch": 41,
                "velocity": 51,
                "duration": 0.08409090909091077,
                "tempo": 120.0
            },
            {
                "start_time": 43.18181818181818,
                "end_time": 43.63409090909091,
                "pitch": 41,
                "velocity": 51,
                "duration": 0.45227272727272805,
                "tempo": 120.0
            },
            {
                "start_time": 43.65,
                "end_time": 44.002272727272725,
                "pitch": 34,
                "velocity": 51,
                "duration": 0.3522727272727266,
                "tempo": 120.0
            },
            {
                "start_time": 44.018181818181816,
                "end_time": 44.10227272727273,
                "pitch": 41,
                "velocity": 51,
                "duration": 0.08409090909091077,
                "tempo": 120.0
            },
            {
                "start_time": 44.11818181818182,
                "end_time": 44.33181818181818,
                "pitch": 41,
                "velocity": 51,
                "duration": 0.21363636363636118,
                "tempo": 120.0
            },
            {
                "start_time": 44.34772727272727,
                "end_time": 44.56136363636364,
                "pitch": 34,
                "velocity": 51,
                "duration": 0.2136363636363683,
                "tempo": 120.0
            },
            {
                "start_time": 44.57727272727273,
                "end_time": 45.02954545454545,
                "pitch": 36,
                "velocity": 51,
                "duration": 0.45227272727272094,
                "tempo": 120.0
            },
            {
                "start_time": 45.04545454545455,
                "end_time": 45.49772727272727,
                "pitch": 43,
                "velocity": 51,
                "duration": 0.45227272727272094,
                "tempo": 120.0
            },
            {
                "start_time": 45.51590909090909,
                "end_time": 45.86590909090909,
                "pitch": 36,
                "velocity": 51,
                "duration": 0.3500000000000014,
                "tempo": 120.0
            },
            {
                "start_time": 45.88409090909091,
                "end_time": 45.96818181818182,
                "pitch": 43,
                "velocity": 51,
                "duration": 0.08409090909091077,
                "tempo": 120.0
            },
            {
                "start_time": 45.98409090909091,
                "end_time": 46.19772727272727,
                "pitch": 43,
                "velocity": 51,
                "duration": 0.21363636363636118,
                "tempo": 120.0
            },
            {
                "start_time": 46.21363636363636,
                "end_time": 46.32727272727273,
                "pitch": 48,
                "velocity": 51,
                "duration": 0.11363636363636687,
                "tempo": 120.0
            },
            {
                "start_time": 46.34318181818182,
                "end_time": 46.425,
                "pitch": 43,
                "velocity": 51,
                "duration": 0.08181818181817846,
                "tempo": 120.0
            },
            {
                "start_time": 46.44318181818181,
                "end_time": 46.88409090909091,
                "pitch": 36,
                "velocity": 51,
                "duration": 0.4409090909090949,
                "tempo": 120.0
            },
            {
                "start_time": 46.9,
                "end_time": 47.35227272727273,
                "pitch": 43,
                "velocity": 51,
                "duration": 0.45227272727272805,
                "tempo": 120.0
            },
            {
                "start_time": 47.37045454545454,
                "end_time": 47.72727272727273,
                "pitch": 36,
                "velocity": 51,
                "duration": 0.35681818181818414,
                "tempo": 120.0
            },
            {
                "start_time": 47.74318181818182,
                "end_time": 47.82954545454545,
                "pitch": 43,
                "velocity": 51,
                "duration": 0.08636363636363598,
                "tempo": 120.0
            },
            {
                "start_time": 47.845454545454544,
                "end_time": 48.059090909090905,
                "pitch": 43,
                "velocity": 51,
                "duration": 0.21363636363636118,
                "tempo": 120.0
            },
            {
                "start_time": 48.074999999999996,
                "end_time": 48.288636363636364,
                "pitch": 36,
                "velocity": 51,
                "duration": 0.2136363636363683,
                "tempo": 120.0
            },
            {
                "start_time": 48.53409090909091,
                "end_time": 48.64772727272727,
                "pitch": 41,
                "velocity": 51,
                "duration": 0.11363636363636687,
                "tempo": 120.0
            },
            {
                "start_time": 48.89545454545454,
                "end_time": 48.97954545454545,
                "pitch": 41,
                "velocity": 51,
                "duration": 0.08409090909091077,
                "tempo": 120.0
            },
            {
                "start_time": 49.23181818181818,
                "end_time": 50.14090909090909,
                "pitch": 41,
                "velocity": 51,
                "duration": 0.9090909090909136,
                "tempo": 120.0
            },
            {
                "start_time": 50.39772727272727,
                "end_time": 50.518181818181816,
                "pitch": 43,
                "velocity": 51,
                "duration": 0.12045454545454248,
                "tempo": 120.0
            },
            {
                "start_time": 50.76590909090909,
                "end_time": 50.845454545454544,
                "pitch": 43,
                "velocity": 51,
                "duration": 0.07954545454545325,
                "tempo": 120.0
            },
            {
                "start_time": 51.086363636363636,
                "end_time": 52.00681818181818,
                "pitch": 43,
                "velocity": 51,
                "duration": 0.9204545454545467,
                "tempo": 120.0
            },
            {
                "start_time": 52.252272727272725,
                "end_time": 52.36818181818182,
                "pitch": 44,
                "velocity": 51,
                "duration": 0.11590909090909207,
                "tempo": 120.0
            },
            {
                "start_time": 52.615909090909085,
                "end_time": 52.699999999999996,
                "pitch": 44,
                "velocity": 51,
                "duration": 0.08409090909091077,
                "tempo": 120.0
            },
            {
                "start_time": 52.95227272727273,
                "end_time": 53.861363636363635,
                "pitch": 44,
                "velocity": 51,
                "duration": 0.9090909090909065,
                "tempo": 120.0
            },
            {
                "start_time": 54.115909090909085,
                "end_time": 54.236363636363635,
                "pitch": 46,
                "velocity": 51,
                "duration": 0.12045454545454959,
                "tempo": 120.0
            },
            {
                "start_time": 54.486363636363635,
                "end_time": 54.56818181818181,
                "pitch": 46,
                "velocity": 51,
                "duration": 0.08181818181817846,
                "tempo": 120.0
            },
            {
                "start_time": 54.81363636363636,
                "end_time": 55.25454545454545,
                "pitch": 46,
                "velocity": 51,
                "duration": 0.4409090909090878,
                "tempo": 120.0
            },
            {
                "start_time": 55.506818181818176,
                "end_time": 55.62272727272727,
                "pitch": 46,
                "velocity": 51,
                "duration": 0.11590909090909207,
                "tempo": 120.0
            },
            {
                "start_time": 55.64090909090909,
                "end_time": 55.72272727272727,
                "pitch": 60,
                "velocity": 51,
                "duration": 0.08181818181817846,
                "tempo": 120.0
            },
            {
                "start_time": 55.96818181818182,
                "end_time": 56.084090909090904,
                "pitch": 41,
                "velocity": 51,
                "duration": 0.11590909090908497,
                "tempo": 120.0
            },
            {
                "start_time": 56.33181818181818,
                "end_time": 56.41590909090909,
                "pitch": 41,
                "velocity": 51,
                "duration": 0.08409090909091077,
                "tempo": 120.0
            },
            {
                "start_time": 56.668181818181814,
                "end_time": 57.58863636363636,
                "pitch": 41,
                "velocity": 51,
                "duration": 0.9204545454545467,
                "tempo": 120.0
            },
            {
                "start_time": 57.840909090909086,
                "end_time": 57.95681818181818,
                "pitch": 43,
                "velocity": 51,
                "duration": 0.11590909090909207,
                "tempo": 120.0
            },
            {
                "start_time": 58.20454545454545,
                "end_time": 58.28636363636363,
                "pitch": 43,
                "velocity": 51,
                "duration": 0.08181818181817846,
                "tempo": 120.0
            },
            {
                "start_time": 58.53181818181818,
                "end_time": 59.44318181818181,
                "pitch": 43,
                "velocity": 51,
                "duration": 0.9113636363636317,
                "tempo": 120.0
            },
            {
                "start_time": 59.695454545454545,
                "end_time": 59.81136363636363,
                "pitch": 44,
                "velocity": 51,
                "duration": 0.11590909090908497,
                "tempo": 120.0
            },
            {
                "start_time": 60.06363636363636,
                "end_time": 60.147727272727266,
                "pitch": 44,
                "velocity": 51,
                "duration": 0.08409090909090366,
                "tempo": 120.0
            },
            {
                "start_time": 60.397727272727266,
                "end_time": 61.309090909090905,
                "pitch": 44,
                "velocity": 51,
                "duration": 0.9113636363636388,
                "tempo": 120.0
            },
            {
                "start_time": 61.56363636363636,
                "end_time": 61.68181818181818,
                "pitch": 46,
                "velocity": 51,
                "duration": 0.11818181818181728,
                "tempo": 120.0
            },
            {
                "start_time": 61.929545454545455,
                "end_time": 62.00909090909091,
                "pitch": 46,
                "velocity": 51,
                "duration": 0.07954545454545325,
                "tempo": 120.0
            },
            {
                "start_time": 62.25,
                "end_time": 62.70227272727272,
                "pitch": 46,
                "velocity": 51,
                "duration": 0.45227272727272094,
                "tempo": 120.0
            },
            {
                "start_time": 62.95227272727272,
                "end_time": 63.070454545454545,
                "pitch": 46,
                "velocity": 51,
                "duration": 0.11818181818182438,
                "tempo": 120.0
            },
            {
                "start_time": 63.086363636363636,
                "end_time": 63.17045454545454,
                "pitch": 60,
                "velocity": 51,
                "duration": 0.08409090909090366,
                "tempo": 120.0
            },
            {
                "start_time": 63.41590909090909,
                "end_time": 63.52954545454545,
                "pitch": 41,
                "velocity": 51,
                "duration": 0.11363636363635976,
                "tempo": 120.0
            },
            {
                "start_time": 63.77954545454545,
                "end_time": 63.86363636363636,
                "pitch": 41,
                "velocity": 51,
                "duration": 0.08409090909091077,
                "tempo": 120.0
            },
            {
                "start_time": 64.11363636363636,
                "end_time": 65.02499999999999,
                "pitch": 41,
                "velocity": 51,
                "duration": 0.9113636363636317,
                "tempo": 120.0
            },
            {
                "start_time": 65.28181818181818,
                "end_time": 65.39999999999999,
                "pitch": 43,
                "velocity": 51,
                "duration": 0.11818181818181017,
                "tempo": 120.0
            },
            {
                "start_time": 65.65227272727273,
                "end_time": 65.73409090909091,
                "pitch": 43,
                "velocity": 51,
                "duration": 0.08181818181817846,
                "tempo": 120.0
            },
            {
                "start_time": 65.97954545454544,
                "end_time": 66.89090909090909,
                "pitch": 43,
                "velocity": 51,
                "duration": 0.9113636363636459,
                "tempo": 120.0
            },
            {
                "start_time": 67.14090909090909,
                "end_time": 67.2590909090909,
                "pitch": 44,
                "velocity": 51,
                "duration": 0.11818181818181017,
                "tempo": 120.0
            },
            {
                "start_time": 67.50681818181818,
                "end_time": 67.58863636363635,
                "pitch": 44,
                "velocity": 51,
                "duration": 0.08181818181817846,
                "tempo": 120.0
            },
            {
                "start_time": 67.8340909090909,
                "end_time": 68.75454545454545,
                "pitch": 44,
                "velocity": 51,
                "duration": 0.9204545454545467,
                "tempo": 120.0
            },
            {
                "start_time": 69.01136363636363,
                "end_time": 69.13181818181818,
                "pitch": 46,
                "velocity": 51,
                "duration": 0.12045454545454959,
                "tempo": 120.0
            },
            {
                "start_time": 69.37954545454545,
                "end_time": 69.4590909090909,
                "pitch": 46,
                "velocity": 51,
                "duration": 0.07954545454545325,
                "tempo": 120.0
            },
            {
                "start_time": 69.7,
                "end_time": 70.14090909090909,
                "pitch": 46,
                "velocity": 51,
                "duration": 0.4409090909090878,
                "tempo": 120.0
            },
            {
                "start_time": 70.39318181818182,
                "end_time": 70.5090909090909,
                "pitch": 46,
                "velocity": 51,
                "duration": 0.11590909090908497,
                "tempo": 120.0
            },
            {
                "start_time": 70.52727272727273,
                "end_time": 70.61136363636363,
                "pitch": 60,
                "velocity": 51,
                "duration": 0.08409090909090366,
                "tempo": 120.0
            },
            {
                "start_time": 70.86136363636363,
                "end_time": 70.97954545454544,
                "pitch": 41,
                "velocity": 51,
                "duration": 0.11818181818181017,
                "tempo": 120.0
            },
            {
                "start_time": 71.22954545454544,
                "end_time": 71.31363636363636,
                "pitch": 41,
                "velocity": 51,
                "duration": 0.08409090909091788,
                "tempo": 120.0
            },
            {
                "start_time": 71.56590909090909,
                "end_time": 72.475,
                "pitch": 41,
                "velocity": 51,
                "duration": 0.9090909090909065,
                "tempo": 120.0
            },
            {
                "start_time": 72.73181818181818,
                "end_time": 72.85227272727272,
                "pitch": 43,
                "velocity": 51,
                "duration": 0.12045454545453538,
                "tempo": 120.0
            },
            {
                "start_time": 73.1,
                "end_time": 73.17954545454545,
                "pitch": 43,
                "velocity": 51,
                "duration": 0.07954545454545325,
                "tempo": 120.0
            },
            {
                "start_time": 73.42045454545455,
                "end_time": 74.3409090909091,
                "pitch": 43,
                "velocity": 51,
                "duration": 0.9204545454545467,
                "tempo": 120.0
            },
            {
                "start_time": 74.58636363636363,
                "end_time": 74.70227272727273,
                "pitch": 44,
                "velocity": 51,
                "duration": 0.11590909090909918,
                "tempo": 120.0
            },
            {
                "start_time": 74.95,
                "end_time": 75.0340909090909,
                "pitch": 44,
                "velocity": 51,
                "duration": 0.08409090909090366,
                "tempo": 120.0
            },
            {
                "start_time": 75.28636363636363,
                "end_time": 76.19545454545454,
                "pitch": 44,
                "velocity": 51,
                "duration": 0.9090909090909065,
                "tempo": 120.0
            },
            {
                "start_time": 76.45227272727273,
                "end_time": 76.57272727272726,
                "pitch": 46,
                "velocity": 51,
                "duration": 0.12045454545453538,
                "tempo": 120.0
            },
            {
                "start_time": 76.82272727272726,
                "end_time": 76.90454545454546,
                "pitch": 46,
                "velocity": 51,
                "duration": 0.08181818181819267,
                "tempo": 120.0
            },
            {
                "start_time": 77.14999999999999,
                "end_time": 77.59318181818182,
                "pitch": 46,
                "velocity": 51,
                "duration": 0.4431818181818272,
                "tempo": 120.0
            },
            {
                "start_time": 77.84318181818182,
                "end_time": 77.96136363636363,
                "pitch": 46,
                "velocity": 51,
                "duration": 0.11818181818181017,
                "tempo": 120.0
            },
            {
                "start_time": 77.97727272727272,
                "end_time": 78.06136363636364,
                "pitch": 60,
                "velocity": 51,
                "duration": 0.08409090909091788,
                "tempo": 120.0
            },
            {
                "start_time": 78.07727272727273,
                "end_time": 78.52045454545454,
                "pitch": 36,
                "velocity": 51,
                "duration": 0.443181818181813,
                "tempo": 120.0
            },
            {
                "start_time": 78.53636363636363,
                "end_time": 78.98863636363636,
                "pitch": 38,
                "velocity": 51,
                "duration": 0.45227272727272805,
                "tempo": 120.0
            },
            {
                "start_time": 79.00454545454545,
                "end_time": 79.45681818181818,
                "pitch": 39,
                "velocity": 51,
                "duration": 0.45227272727272805,
                "tempo": 120.0
            },
            {
                "start_time": 79.475,
                "end_time": 79.92727272727272,
                "pitch": 41,
                "velocity": 51,
                "duration": 0.45227272727272805,
                "tempo": 120.0
            },
            {
                "start_time": 79.94318181818181,
                "end_time": 80.3840909090909,
                "pitch": 36,
                "velocity": 51,
                "duration": 0.4409090909090878,
                "tempo": 120.0
            },
            {
                "start_time": 80.40227272727272,
                "end_time": 80.85454545454544,
                "pitch": 38,
                "velocity": 51,
                "duration": 0.45227272727272805,
                "tempo": 120.0
            },
            {
                "start_time": 80.87045454545454,
                "end_time": 81.32272727272726,
                "pitch": 39,
                "velocity": 51,
                "duration": 0.45227272727272805,
                "tempo": 120.0
            },
            {
                "start_time": 81.33863636363635,
                "end_time": 81.78181818181818,
                "pitch": 41,
                "velocity": 51,
                "duration": 0.4431818181818272,
                "tempo": 120.0
            },
            {
                "start_time": 81.79772727272727,
                "end_time": 82.25,
                "pitch": 36,
                "velocity": 51,
                "duration": 0.45227272727272805,
                "tempo": 120.0
            },
            {
                "start_time": 82.26590909090909,
                "end_time": 82.71818181818182,
                "pitch": 38,
                "velocity": 51,
                "duration": 0.45227272727272805,
                "tempo": 120.0
            },
            {
                "start_time": 82.73636363636363,
                "end_time": 83.17727272727272,
                "pitch": 39,
                "velocity": 51,
                "duration": 0.4409090909090878,
                "tempo": 120.0
            },
            {
                "start_time": 83.19318181818181,
                "end_time": 83.64545454545454,
                "pitch": 41,
                "velocity": 51,
                "duration": 0.45227272727272805,
                "tempo": 120.0
            },
            {
                "start_time": 83.66363636363636,
                "end_time": 84.11590909090908,
                "pitch": 36,
                "velocity": 51,
                "duration": 0.45227272727272805,
                "tempo": 120.0
            },
            {
                "start_time": 84.13181818181818,
                "end_time": 84.57272727272726,
                "pitch": 38,
                "velocity": 51,
                "duration": 0.4409090909090878,
                "tempo": 120.0
            },
            {
                "start_time": 84.58863636363635,
                "end_time": 85.04090909090908,
                "pitch": 39,
                "velocity": 51,
                "duration": 0.45227272727272805,
                "tempo": 120.0
            },
            {
                "start_time": 85.0590909090909,
                "end_time": 85.51136363636363,
                "pitch": 41,
                "velocity": 51,
                "duration": 0.45227272727272805,
                "tempo": 120.0
            },
            {
                "start_time": 85.52727272727272,
                "end_time": 85.97045454545454,
                "pitch": 36,
                "velocity": 51,
                "duration": 0.4431818181818272,
                "tempo": 120.0
            },
            {
                "start_time": 85.98636363636363,
                "end_time": 86.43863636363636,
                "pitch": 38,
                "velocity": 51,
                "duration": 0.45227272727272805,
                "tempo": 120.0
            },
            {
                "start_time": 86.45454545454545,
                "end_time": 86.90681818181818,
                "pitch": 39,
                "velocity": 51,
                "duration": 0.45227272727272805,
                "tempo": 120.0
            },
            {
                "start_time": 86.925,
                "end_time": 87.36590909090908,
                "pitch": 41,
                "velocity": 51,
                "duration": 0.4409090909090878,
                "tempo": 120.0
            },
            {
                "start_time": 87.38181818181818,
                "end_time": 87.8340909090909,
                "pitch": 36,
                "velocity": 51,
                "duration": 0.45227272727272805,
                "tempo": 120.0
            },
            {
                "start_time": 87.85,
                "end_time": 88.30227272727272,
                "pitch": 38,
                "velocity": 51,
                "duration": 0.45227272727272805,
                "tempo": 120.0
            },
            {
                "start_time": 88.32045454545454,
                "end_time": 88.76136363636363,
                "pitch": 39,
                "velocity": 51,
                "duration": 0.4409090909090878,
                "tempo": 120.0
            },
            {
                "start_time": 88.77727272727272,
                "end_time": 89.22954545454544,
                "pitch": 41,
                "velocity": 51,
                "duration": 0.45227272727272805,
                "tempo": 120.0
            },
            {
                "start_time": 89.24772727272727,
                "end_time": 89.69999999999999,
                "pitch": 36,
                "velocity": 51,
                "duration": 0.45227272727271384,
                "tempo": 120.0
            },
            {
                "start_time": 89.7159090909091,
                "end_time": 90.1590909090909,
                "pitch": 38,
                "velocity": 51,
                "duration": 0.443181818181813,
                "tempo": 120.0
            },
            {
                "start_time": 90.175,
                "end_time": 90.62727272727273,
                "pitch": 39,
                "velocity": 51,
                "duration": 0.45227272727272805,
                "tempo": 120.0
            },
            {
                "start_time": 90.64318181818182,
                "end_time": 91.09545454545454,
                "pitch": 41,
                "velocity": 51,
                "duration": 0.45227272727272805,
                "tempo": 120.0
            },
            {
                "start_time": 91.11136363636363,
                "end_time": 91.55454545454545,
                "pitch": 36,
                "velocity": 51,
                "duration": 0.443181818181813,
                "tempo": 120.0
            },
            {
                "start_time": 91.57045454545454,
                "end_time": 92.02272727272727,
                "pitch": 38,
                "velocity": 51,
                "duration": 0.45227272727272805,
                "tempo": 120.0
            },
            {
                "start_time": 92.03863636363636,
                "end_time": 92.49090909090908,
                "pitch": 39,
                "velocity": 51,
                "duration": 0.45227272727272805,
                "tempo": 120.0
            },
            {
                "start_time": 92.5090909090909,
                "end_time": 92.9659090909091,
                "pitch": 41,
                "velocity": 51,
                "duration": 0.45681818181819267,
                "tempo": 120.0
            }
        ]
    }
}