{
    "track_id": "Thunder Blade (FM) - 01 - Title Screen",
    "mood": "angry",
    "instruments": {
        "Acoustic Bass": [
            {
                "start_time": 0.0,
                "end_time": 0.07272727272727272,
                "pitch": 38,
                "velocity": 80,
                "duration": 0.07272727272727272,
                "tempo": 120.0
            },
            {
                "start_time": 0.08636363636363636,
                "end_time": 0.1590909090909091,
                "pitch": 38,
                "velocity": 80,
                "duration": 0.07272727272727272,
                "tempo": 120.0
            },
            {
                "start_time": 0.175,
                "end_time": 0.27499999999999997,
                "pitch": 38,
                "velocity": 80,
                "duration": 0.09999999999999998,
                "tempo": 120.0
            },
            {
                "start_time": 0.2909090909090909,
                "end_time": 0.36136363636363633,
                "pitch": 38,
                "velocity": 80,
                "duration": 0.07045454545454544,
                "tempo": 120.0
            },
            {
                "start_time": 0.37727272727272726,
                "end_time": 0.46136363636363636,
                "pitch": 50,
                "velocity": 80,
                "duration": 0.0840909090909091,
                "tempo": 120.0
            },
            {
                "start_time": 0.5113636363636364,
                "end_time": 0.5954545454545455,
                "pitch": 38,
                "velocity": 80,
                "duration": 0.0840909090909091,
                "tempo": 120.0
            },
            {
                "start_time": 0.6113636363636363,
                "end_time": 0.6954545454545454,
                "pitch": 48,
                "velocity": 80,
                "duration": 0.0840909090909091,
                "tempo": 120.0
            },
            {
                "start_time": 0.7113636363636363,
                "end_time": 0.8295454545454545,
                "pitch": 38,
                "velocity": 80,
                "duration": 0.11818181818181817,
                "tempo": 120.0
            },
            {
                "start_time": 0.8454545454545455,
                "end_time": 0.9295454545454545,
                "pitch": 47,
                "velocity": 80,
                "duration": 0.084090909090909,
                "tempo": 120.0
            },
            {
                "start_time": 0.9454545454545454,
                "end_time": 1.0636363636363635,
                "pitch": 38,
                "velocity": 80,
                "duration": 0.11818181818181805,
                "tempo": 120.0
            },
            {
                "start_time": 1.0795454545454546,
                "end_time": 1.1636363636363636,
                "pitch": 45,
                "velocity": 80,
                "duration": 0.084090909090909,
                "tempo": 120.0
            },
            {
                "start_time": 1.1795454545454545,
                "end_time": 1.2636363636363637,
                "pitch": 38,
                "velocity": 80,
                "duration": 0.08409090909090922,
                "tempo": 120.0
            },
            {
                "start_time": 1.3136363636363635,
                "end_time": 1.4,
                "pitch": 47,
                "velocity": 80,
                "duration": 0.08636363636363642,
                "tempo": 120.0
            },
            {
                "start_time": 1.4159090909090908,
                "end_time": 1.5022727272727272,
                "pitch": 38,
                "velocity": 80,
                "duration": 0.08636363636363642,
                "tempo": 120.0
            },
            {
                "start_time": 1.518181818181818,
                "end_time": 1.6386363636363634,
                "pitch": 48,
                "velocity": 80,
                "duration": 0.12045454545454537,
                "tempo": 120.0
            },
            {
                "start_time": 1.6568181818181817,
                "end_time": 1.7409090909090907,
                "pitch": 38,
                "velocity": 80,
                "duration": 0.084090909090909,
                "tempo": 120.0
            },
            {
                "start_time": 1.759090909090909,
                "end_time": 1.8704545454545454,
                "pitch": 38,
                "velocity": 80,
                "duration": 0.11136363636363633,
                "tempo": 120.0
            },
            {
                "start_time": 1.8863636363636362,
                "end_time": 1.9659090909090908,
                "pitch": 38,
                "velocity": 80,
                "duration": 0.07954545454545459,
                "tempo": 120.0
            },
            {
                "start_time": 1.9818181818181817,
                "end_time": 2.061363636363636,
                "pitch": 38,
                "velocity": 80,
                "duration": 0.07954545454545436,
                "tempo": 120.0
            },
            {
                "start_time": 2.109090909090909,
                "end_time": 2.190909090909091,
                "pitch": 38,
                "velocity": 80,
                "duration": 0.08181818181818201,
                "tempo": 120.0
            },
            {
                "start_time": 2.2068181818181816,
                "end_time": 2.290909090909091,
                "pitch": 50,
                "velocity": 80,
                "duration": 0.08409090909090944,
                "tempo": 120.0
            },
            {
                "start_time": 2.3068181818181817,
                "end_time": 2.4227272727272724,
                "pitch": 38,
                "velocity": 80,
                "duration": 0.11590909090909074,
                "tempo": 120.0
            },
            {
                "start_time": 2.440909090909091,
                "end_time": 2.525,
                "pitch": 48,
                "velocity": 80,
                "duration": 0.084090909090909,
                "tempo": 120.0
            },
            {
                "start_time": 2.540909090909091,
                "end_time": 2.6568181818181817,
                "pitch": 38,
                "velocity": 80,
                "duration": 0.11590909090909074,
                "tempo": 120.0
            },
            {
                "start_time": 2.675,
                "end_time": 2.759090909090909,
                "pitch": 47,
                "velocity": 80,
                "duration": 0.084090909090909,
                "tempo": 120.0
            },
            {
                "start_time": 2.7772727272727273,
                "end_time": 2.8636363636363633,
                "pitch": 38,
                "velocity": 80,
                "duration": 0.08636363636363598,
                "tempo": 120.0
            },
            {
                "start_time": 2.9136363636363636,
                "end_time": 3.0,
                "pitch": 45,
                "velocity": 80,
                "duration": 0.08636363636363642,
                "tempo": 120.0
            },
            {
                "start_time": 3.0159090909090907,
                "end_time": 3.102272727272727,
                "pitch": 38,
                "velocity": 80,
                "duration": 0.08636363636363642,
                "tempo": 120.0
            },
            {
                "start_time": 3.120454545454545,
                "end_time": 3.2318181818181815,
                "pitch": 47,
                "velocity": 80,
                "duration": 0.11136363636363633,
                "tempo": 120.0
            },
            {
                "start_time": 3.2477272727272726,
                "end_time": 3.327272727272727,
                "pitch": 38,
                "velocity": 80,
                "duration": 0.07954545454545459,
                "tempo": 120.0
            },
            {
                "start_time": 3.343181818181818,
                "end_time": 3.4545454545454546,
                "pitch": 48,
                "velocity": 80,
                "duration": 0.11136363636363678,
                "tempo": 120.0
            },
            {
                "start_time": 3.4704545454545452,
                "end_time": 3.5522727272727272,
                "pitch": 38,
                "velocity": 80,
                "duration": 0.08181818181818201,
                "tempo": 120.0
            },
            {
                "start_time": 3.568181818181818,
                "end_time": 3.65,
                "pitch": 36,
                "velocity": 80,
                "duration": 0.08181818181818201,
                "tempo": 120.0
            },
            {
                "start_time": 3.702272727272727,
                "end_time": 3.7840909090909087,
                "pitch": 36,
                "velocity": 80,
                "duration": 0.08181818181818157,
                "tempo": 120.0
            },
            {
                "start_time": 3.8022727272727272,
                "end_time": 3.884090909090909,
                "pitch": 36,
                "velocity": 80,
                "duration": 0.08181818181818157,
                "tempo": 120.0
            },
            {
                "start_time": 3.902272727272727,
                "end_time": 4.018181818181818,
                "pitch": 36,
                "velocity": 80,
                "duration": 0.11590909090909074,
                "tempo": 120.0
            },
            {
                "start_time": 4.036363636363636,
                "end_time": 4.120454545454545,
                "pitch": 48,
                "velocity": 80,
                "duration": 0.084090909090909,
                "tempo": 120.0
            },
            {
                "start_time": 4.138636363636364,
                "end_time": 4.259090909090909,
                "pitch": 36,
                "velocity": 80,
                "duration": 0.12045454545454515,
                "tempo": 120.0
            },
            {
                "start_time": 4.2749999999999995,
                "end_time": 4.361363636363636,
                "pitch": 46,
                "velocity": 80,
                "duration": 0.08636363636363686,
                "tempo": 120.0
            },
            {
                "start_time": 4.377272727272727,
                "end_time": 4.463636363636364,
                "pitch": 36,
                "velocity": 80,
                "duration": 0.08636363636363686,
                "tempo": 120.0
            },
            {
                "start_time": 4.513636363636364,
                "end_time": 4.597727272727273,
                "pitch": 45,
                "velocity": 80,
                "duration": 0.084090909090909,
                "tempo": 120.0
            },
            {
                "start_time": 4.61590909090909,
                "end_time": 4.697727272727272,
                "pitch": 36,
                "velocity": 80,
                "duration": 0.08181818181818201,
                "tempo": 120.0
            },
            {
                "start_time": 4.715909090909091,
                "end_time": 4.831818181818182,
                "pitch": 43,
                "velocity": 80,
                "duration": 0.11590909090909118,
                "tempo": 120.0
            },
            {
                "start_time": 4.85,
                "end_time": 4.931818181818182,
                "pitch": 36,
                "velocity": 80,
                "duration": 0.08181818181818201,
                "tempo": 120.0
            },
            {
                "start_time": 4.95,
                "end_time": 5.0613636363636365,
                "pitch": 45,
                "velocity": 80,
                "duration": 0.11136363636363633,
                "tempo": 120.0
            },
            {
                "start_time": 5.077272727272727,
                "end_time": 5.156818181818181,
                "pitch": 36,
                "velocity": 80,
                "duration": 0.07954545454545414,
                "tempo": 120.0
            },
            {
                "start_time": 5.172727272727273,
                "end_time": 5.252272727272727,
                "pitch": 46,
                "velocity": 80,
                "duration": 0.07954545454545414,
                "tempo": 120.0
            },
            {
                "start_time": 5.3,
                "end_time": 5.381818181818182,
                "pitch": 36,
                "velocity": 80,
                "duration": 0.08181818181818201,
                "tempo": 120.0
            },
            {
                "start_time": 5.3977272727272725,
                "end_time": 5.4818181818181815,
                "pitch": 36,
                "velocity": 80,
                "duration": 0.084090909090909,
                "tempo": 120.0
            },
            {
                "start_time": 5.5,
                "end_time": 5.618181818181818,
                "pitch": 36,
                "velocity": 80,
                "duration": 0.11818181818181817,
                "tempo": 120.0
            },
            {
                "start_time": 5.636363636363636,
                "end_time": 5.722727272727273,
                "pitch": 36,
                "velocity": 80,
                "duration": 0.08636363636363686,
                "tempo": 120.0
            },
            {
                "start_time": 5.738636363636363,
                "end_time": 5.8590909090909085,
                "pitch": 36,
                "velocity": 80,
                "duration": 0.12045454545454515,
                "tempo": 120.0
            },
            {
                "start_time": 5.875,
                "end_time": 5.959090909090909,
                "pitch": 48,
                "velocity": 80,
                "duration": 0.084090909090909,
                "tempo": 120.0
            },
            {
                "start_time": 5.975,
                "end_time": 6.059090909090909,
                "pitch": 36,
                "velocity": 80,
                "duration": 0.084090909090909,
                "tempo": 120.0
            },
            {
                "start_time": 6.1090909090909085,
                "end_time": 6.1931818181818175,
                "pitch": 46,
                "velocity": 80,
                "duration": 0.084090909090909,
                "tempo": 120.0
            },
            {
                "start_time": 6.209090909090909,
                "end_time": 6.293181818181818,
                "pitch": 36,
                "velocity": 80,
                "duration": 0.084090909090909,
                "tempo": 120.0
            },
            {
                "start_time": 6.311363636363636,
                "end_time": 6.422727272727273,
                "pitch": 45,
                "velocity": 80,
                "duration": 0.11136363636363722,
                "tempo": 120.0
            },
            {
                "start_time": 6.4386363636363635,
                "end_time": 6.518181818181818,
                "pitch": 36,
                "velocity": 80,
                "duration": 0.07954545454545414,
                "tempo": 120.0
            },
            {
                "start_time": 6.534090909090909,
                "end_time": 6.6454545454545455,
                "pitch": 43,
                "velocity": 80,
                "duration": 0.11136363636363633,
                "tempo": 120.0
            },
            {
                "start_time": 6.661363636363636,
                "end_time": 6.74090909090909,
                "pitch": 36,
                "velocity": 80,
                "duration": 0.07954545454545414,
                "tempo": 120.0
            },
            {
                "start_time": 6.759090909090909,
                "end_time": 6.840909090909091,
                "pitch": 45,
                "velocity": 80,
                "duration": 0.08181818181818201,
                "tempo": 120.0
            },
            {
                "start_time": 6.890909090909091,
                "end_time": 6.975,
                "pitch": 36,
                "velocity": 80,
                "duration": 0.084090909090909,
                "tempo": 120.0
            },
            {
                "start_time": 6.993181818181818,
                "end_time": 7.074999999999999,
                "pitch": 46,
                "velocity": 80,
                "duration": 0.08181818181818112,
                "tempo": 120.0
            },
            {
                "start_time": 7.093181818181818,
                "end_time": 7.209090909090909,
                "pitch": 36,
                "velocity": 80,
                "duration": 0.11590909090909118,
                "tempo": 120.0
            },
            {
                "start_time": 7.227272727272727,
                "end_time": 7.461363636363636,
                "pitch": 38,
                "velocity": 80,
                "duration": 0.23409090909090935,
                "tempo": 120.0
            },
            {
                "start_time": 7.561363636363636,
                "end_time": 7.7749999999999995,
                "pitch": 38,
                "velocity": 80,
                "duration": 0.21363636363636385,
                "tempo": 120.0
            },
            {
                "start_time": 7.79090909090909,
                "end_time": 8.004545454545454,
                "pitch": 38,
                "velocity": 80,
                "duration": 0.21363636363636385,
                "tempo": 120.0
            },
            {
                "start_time": 8.020454545454545,
                "end_time": 9.038636363636364,
                "pitch": 38,
                "velocity": 80,
                "duration": 1.0181818181818194,
                "tempo": 120.0
            }
        ],
        "Trumpet": [
            {
                "start_time": 0.0,
                "end_time": 0.1590909090909091,
                "pitch": 77,
                "velocity": 64,
                "duration": 0.1590909090909091,
                "tempo": 120.0
            },
            {
                "start_time": 0.175,
                "end_time": 0.36136363636363633,
                "pitch": 79,
                "velocity": 64,
                "duration": 0.18636363636363634,
                "tempo": 120.0
            },
            {
                "start_time": 0.37727272727272726,
                "end_time": 0.5954545454545455,
                "pitch": 86,
                "velocity": 64,
                "duration": 0.2181818181818182,
                "tempo": 120.0
            },
            {
                "start_time": 0.6113636363636363,
                "end_time": 0.8295454545454545,
                "pitch": 76,
                "velocity": 64,
                "duration": 0.21818181818181814,
                "tempo": 120.0
            },
            {
                "start_time": 0.8454545454545455,
                "end_time": 1.0636363636363635,
                "pitch": 77,
                "velocity": 64,
                "duration": 0.21818181818181803,
                "tempo": 120.0
            },
            {
                "start_time": 1.0795454545454546,
                "end_time": 1.2636363636363637,
                "pitch": 79,
                "velocity": 64,
                "duration": 0.18409090909090908,
                "tempo": 120.0
            },
            {
                "start_time": 1.3136363636363635,
                "end_time": 1.5022727272727272,
                "pitch": 86,
                "velocity": 64,
                "duration": 0.1886363636363637,
                "tempo": 120.0
            },
            {
                "start_time": 1.518181818181818,
                "end_time": 1.7409090909090907,
                "pitch": 76,
                "velocity": 64,
                "duration": 0.22272727272727266,
                "tempo": 120.0
            },
            {
                "start_time": 1.759090909090909,
                "end_time": 1.934090909090909,
                "pitch": 77,
                "velocity": 64,
                "duration": 0.17500000000000004,
                "tempo": 120.0
            },
            {
                "start_time": 1.95,
                "end_time": 2.190909090909091,
                "pitch": 77,
                "velocity": 64,
                "duration": 0.24090909090909096,
                "tempo": 120.0
            },
            {
                "start_time": 2.2068181818181816,
                "end_time": 2.4227272727272724,
                "pitch": 86,
                "velocity": 64,
                "duration": 0.21590909090909083,
                "tempo": 120.0
            },
            {
                "start_time": 2.440909090909091,
                "end_time": 2.6568181818181817,
                "pitch": 76,
                "velocity": 64,
                "duration": 0.21590909090909083,
                "tempo": 120.0
            },
            {
                "start_time": 2.675,
                "end_time": 2.8636363636363633,
                "pitch": 77,
                "velocity": 64,
                "duration": 0.1886363636363635,
                "tempo": 120.0
            },
            {
                "start_time": 2.9136363636363636,
                "end_time": 3.102272727272727,
                "pitch": 79,
                "velocity": 64,
                "duration": 0.1886363636363635,
                "tempo": 120.0
            },
            {
                "start_time": 3.120454545454545,
                "end_time": 3.327272727272727,
                "pitch": 86,
                "velocity": 64,
                "duration": 0.206818181818182,
                "tempo": 120.0
            },
            {
                "start_time": 3.343181818181818,
                "end_time": 3.5522727272727272,
                "pitch": 77,
                "velocity": 64,
                "duration": 0.20909090909090944,
                "tempo": 120.0
            },
            {
                "start_time": 3.568181818181818,
                "end_time": 3.7840909090909087,
                "pitch": 76,
                "velocity": 64,
                "duration": 0.21590909090909083,
                "tempo": 120.0
            },
            {
                "start_time": 3.8022727272727272,
                "end_time": 4.018181818181818,
                "pitch": 77,
                "velocity": 64,
                "duration": 0.21590909090909038,
                "tempo": 120.0
            },
            {
                "start_time": 4.036363636363636,
                "end_time": 4.259090909090909,
                "pitch": 84,
                "velocity": 64,
                "duration": 0.22272727272727266,
                "tempo": 120.0
            },
            {
                "start_time": 4.2749999999999995,
                "end_time": 4.463636363636364,
                "pitch": 74,
                "velocity": 64,
                "duration": 0.18863636363636438,
                "tempo": 120.0
            },
            {
                "start_time": 4.513636363636364,
                "end_time": 4.697727272727272,
                "pitch": 76,
                "velocity": 64,
                "duration": 0.18409090909090864,
                "tempo": 120.0
            },
            {
                "start_time": 4.715909090909091,
                "end_time": 4.931818181818182,
                "pitch": 77,
                "velocity": 64,
                "duration": 0.21590909090909083,
                "tempo": 120.0
            },
            {
                "start_time": 4.95,
                "end_time": 5.156818181818181,
                "pitch": 84,
                "velocity": 64,
                "duration": 0.20681818181818112,
                "tempo": 120.0
            },
            {
                "start_time": 5.172727272727273,
                "end_time": 5.381818181818182,
                "pitch": 74,
                "velocity": 64,
                "duration": 0.209090909090909,
                "tempo": 120.0
            },
            {
                "start_time": 5.3977272727272725,
                "end_time": 5.618181818181818,
                "pitch": 76,
                "velocity": 64,
                "duration": 0.22045454545454568,
                "tempo": 120.0
            },
            {
                "start_time": 5.636363636363636,
                "end_time": 5.8590909090909085,
                "pitch": 77,
                "velocity": 64,
                "duration": 0.22272727272727266,
                "tempo": 120.0
            },
            {
                "start_time": 5.875,
                "end_time": 6.059090909090909,
                "pitch": 84,
                "velocity": 64,
                "duration": 0.18409090909090864,
                "tempo": 120.0
            },
            {
                "start_time": 6.1090909090909085,
                "end_time": 6.293181818181818,
                "pitch": 74,
                "velocity": 64,
                "duration": 0.18409090909090953,
                "tempo": 120.0
            },
            {
                "start_time": 6.311363636363636,
                "end_time": 6.518181818181818,
                "pitch": 76,
                "velocity": 64,
                "duration": 0.206818181818182,
                "tempo": 120.0
            },
            {
                "start_time": 6.534090909090909,
                "end_time": 6.74090909090909,
                "pitch": 77,
                "velocity": 64,
                "duration": 0.20681818181818112,
                "tempo": 120.0
            },
            {
                "start_time": 6.759090909090909,
                "end_time": 6.975,
                "pitch": 84,
                "velocity": 64,
                "duration": 0.21590909090909083,
                "tempo": 120.0
            },
            {
                "start_time": 6.993181818181818,
                "end_time": 7.209090909090909,
                "pitch": 74,
                "velocity": 64,
                "duration": 0.21590909090909083,
                "tempo": 120.0
            },
            {
                "start_time": 7.227272727272727,
                "end_time": 7.461363636363636,
                "pitch": 69,
                "velocity": 64,
                "duration": 0.23409090909090935,
                "tempo": 120.0
            },
            {
                "start_time": 7.561363636363636,
                "end_time": 7.7749999999999995,
                "pitch": 69,
                "velocity": 64,
                "duration": 0.21363636363636385,
                "tempo": 120.0
            },
            {
                "start_time": 7.79090909090909,
                "end_time": 8.004545454545454,
                "pitch": 69,
                "velocity": 64,
                "duration": 0.21363636363636385,
                "tempo": 120.0
            },
            {
                "start_time": 8.020454545454545,
                "end_time": 9.038636363636364,
                "pitch": 69,
                "velocity": 64,
                "duration": 1.0181818181818194,
                "tempo": 120.0
            }
        ],
        "French Horn": [
            {
                "start_time": 0.0,
                "end_time": 0.029545454545454545,
                "pitch": 55,
                "velocity": 64,
                "duration": 0.029545454545454545,
                "tempo": 120.0
            },
            {
                "start_time": 0.029545454545454545,
                "end_time": 1.434090909090909,
                "pitch": 65,
                "velocity": 64,
                "duration": 1.4045454545454545,
                "tempo": 120.0
            },
            {
                "start_time": 1.45,
                "end_time": 1.5363636363636364,
                "pitch": 67,
                "velocity": 64,
                "duration": 0.08636363636363642,
                "tempo": 120.0
            },
            {
                "start_time": 1.5863636363636362,
                "end_time": 1.6727272727272726,
                "pitch": 69,
                "velocity": 64,
                "duration": 0.08636363636363642,
                "tempo": 120.0
            },
            {
                "start_time": 1.690909090909091,
                "end_time": 1.775,
                "pitch": 71,
                "velocity": 64,
                "duration": 0.084090909090909,
                "tempo": 120.0
            },
            {
                "start_time": 1.7909090909090908,
                "end_time": 3.1363636363636362,
                "pitch": 72,
                "velocity": 64,
                "duration": 1.3454545454545455,
                "tempo": 120.0
            },
            {
                "start_time": 3.184090909090909,
                "end_time": 3.2636363636363637,
                "pitch": 71,
                "velocity": 64,
                "duration": 0.07954545454545459,
                "tempo": 120.0
            },
            {
                "start_time": 3.2795454545454543,
                "end_time": 3.359090909090909,
                "pitch": 69,
                "velocity": 64,
                "duration": 0.07954545454545459,
                "tempo": 120.0
            },
            {
                "start_time": 3.375,
                "end_time": 3.4863636363636363,
                "pitch": 71,
                "velocity": 64,
                "duration": 0.11136363636363633,
                "tempo": 120.0
            },
            {
                "start_time": 3.502272727272727,
                "end_time": 3.584090909090909,
                "pitch": 72,
                "velocity": 64,
                "duration": 0.08181818181818201,
                "tempo": 120.0
            },
            {
                "start_time": 3.5999999999999996,
                "end_time": 4.293181818181818,
                "pitch": 67,
                "velocity": 64,
                "duration": 0.6931818181818183,
                "tempo": 120.0
            },
            {
                "start_time": 4.309090909090909,
                "end_time": 5.413636363636363,
                "pitch": 67,
                "velocity": 64,
                "duration": 1.1045454545454545,
                "tempo": 120.0
            },
            {
                "start_time": 5.431818181818182,
                "end_time": 6.127272727272727,
                "pitch": 71,
                "velocity": 64,
                "duration": 0.6954545454545453,
                "tempo": 120.0
            },
            {
                "start_time": 6.143181818181818,
                "end_time": 7.243181818181818,
                "pitch": 79,
                "velocity": 64,
                "duration": 1.1000000000000005,
                "tempo": 120.0
            },
            {
                "start_time": 7.259090909090909,
                "end_time": 7.493181818181818,
                "pitch": 79,
                "velocity": 64,
                "duration": 0.23409090909090935,
                "tempo": 120.0
            },
            {
                "start_time": 7.593181818181818,
                "end_time": 7.809090909090909,
                "pitch": 79,
                "velocity": 64,
                "duration": 0.21590909090909083,
                "tempo": 120.0
            },
            {
                "start_time": 7.824999999999999,
                "end_time": 8.036363636363635,
                "pitch": 79,
                "velocity": 64,
                "duration": 0.21136363636363598,
                "tempo": 120.0
            },
            {
                "start_time": 8.052272727272728,
                "end_time": 9.070454545454545,
                "pitch": 79,
                "velocity": 64,
                "duration": 1.0181818181818176,
                "tempo": 120.0
            }
        ],
        "Harpsichord": [
            {
                "start_time": 0.0,
                "end_time": 0.07272727272727272,
                "pitch": 62,
                "velocity": 64,
                "duration": 0.07272727272727272,
                "tempo": 120.0
            },
            {
                "start_time": 0.08636363636363636,
                "end_time": 0.1590909090909091,
                "pitch": 62,
                "velocity": 64,
                "duration": 0.07272727272727272,
                "tempo": 120.0
            },
            {
                "start_time": 0.175,
                "end_time": 0.27499999999999997,
                "pitch": 62,
                "velocity": 64,
                "duration": 0.09999999999999998,
                "tempo": 120.0
            },
            {
                "start_time": 0.2909090909090909,
                "end_time": 0.36136363636363633,
                "pitch": 62,
                "velocity": 64,
                "duration": 0.07045454545454544,
                "tempo": 120.0
            },
            {
                "start_time": 0.37727272727272726,
                "end_time": 0.46136363636363636,
                "pitch": 74,
                "velocity": 64,
                "duration": 0.0840909090909091,
                "tempo": 120.0
            },
            {
                "start_time": 0.5113636363636364,
                "end_time": 0.5954545454545455,
                "pitch": 62,
                "velocity": 64,
                "duration": 0.0840909090909091,
                "tempo": 120.0
            },
            {
                "start_time": 0.6113636363636363,
                "end_time": 0.6954545454545454,
                "pitch": 72,
                "velocity": 64,
                "duration": 0.0840909090909091,
                "tempo": 120.0
            },
            {
                "start_time": 0.7113636363636363,
                "end_time": 0.8295454545454545,
                "pitch": 62,
                "velocity": 64,
                "duration": 0.11818181818181817,
                "tempo": 120.0
            },
            {
                "start_time": 0.8454545454545455,
                "end_time": 0.9295454545454545,
                "pitch": 71,
                "velocity": 64,
                "duration": 0.084090909090909,
                "tempo": 120.0
            },
            {
                "start_time": 0.9454545454545454,
                "end_time": 1.0636363636363635,
                "pitch": 62,
                "velocity": 64,
                "duration": 0.11818181818181805,
                "tempo": 120.0
            },
            {
                "start_time": 1.0795454545454546,
                "end_time": 1.1636363636363636,
                "pitch": 69,
                "velocity": 64,
                "duration": 0.084090909090909,
                "tempo": 120.0
            },
            {
                "start_time": 1.1795454545454545,
                "end_time": 1.2636363636363637,
                "pitch": 62,
                "velocity": 64,
                "duration": 0.08409090909090922,
                "tempo": 120.0
            },
            {
                "start_time": 1.3136363636363635,
                "end_time": 1.4,
                "pitch": 71,
                "velocity": 64,
                "duration": 0.08636363636363642,
                "tempo": 120.0
            },
            {
                "start_time": 1.4159090909090908,
                "end_time": 1.5022727272727272,
                "pitch": 62,
                "velocity": 64,
                "duration": 0.08636363636363642,
                "tempo": 120.0
            },
            {
                "start_time": 1.518181818181818,
                "end_time": 1.6386363636363634,
                "pitch": 72,
                "velocity": 64,
                "duration": 0.12045454545454537,
                "tempo": 120.0
            },
            {
                "start_time": 1.6568181818181817,
                "end_time": 1.7409090909090907,
                "pitch": 62,
                "velocity": 64,
                "duration": 0.084090909090909,
                "tempo": 120.0
            },
            {
                "start_time": 1.759090909090909,
                "end_time": 1.8704545454545454,
                "pitch": 62,
                "velocity": 64,
                "duration": 0.11136363636363633,
                "tempo": 120.0
            },
            {
                "start_time": 1.8863636363636362,
                "end_time": 1.9659090909090908,
                "pitch": 62,
                "velocity": 64,
                "duration": 0.07954545454545459,
                "tempo": 120.0
            },
            {
                "start_time": 1.9818181818181817,
                "end_time": 2.061363636363636,
                "pitch": 62,
                "velocity": 64,
                "duration": 0.07954545454545436,
                "tempo": 120.0
            },
            {
                "start_time": 2.109090909090909,
                "end_time": 2.190909090909091,
                "pitch": 62,
                "velocity": 64,
                "duration": 0.08181818181818201,
                "tempo": 120.0
            },
            {
                "start_time": 2.2068181818181816,
                "end_time": 2.290909090909091,
                "pitch": 74,
                "velocity": 64,
                "duration": 0.08409090909090944,
                "tempo": 120.0
            },
            {
                "start_time": 2.3068181818181817,
                "end_time": 2.4227272727272724,
                "pitch": 62,
                "velocity": 64,
                "duration": 0.11590909090909074,
                "tempo": 120.0
            },
            {
                "start_time": 2.440909090909091,
                "end_time": 2.525,
                "pitch": 72,
                "velocity": 64,
                "duration": 0.084090909090909,
                "tempo": 120.0
            },
            {
                "start_time": 2.540909090909091,
                "end_time": 2.6568181818181817,
                "pitch": 62,
                "velocity": 64,
                "duration": 0.11590909090909074,
                "tempo": 120.0
            },
            {
                "start_time": 2.675,
                "end_time": 2.759090909090909,
                "pitch": 71,
                "velocity": 64,
                "duration": 0.084090909090909,
                "tempo": 120.0
            },
            {
                "start_time": 2.7772727272727273,
                "end_time": 2.8636363636363633,
                "pitch": 62,
                "velocity": 64,
                "duration": 0.08636363636363598,
                "tempo": 120.0
            },
            {
                "start_time": 2.9136363636363636,
                "end_time": 3.0,
                "pitch": 69,
                "velocity": 64,
                "duration": 0.08636363636363642,
                "tempo": 120.0
            },
            {
                "start_time": 3.0159090909090907,
                "end_time": 3.102272727272727,
                "pitch": 62,
                "velocity": 64,
                "duration": 0.08636363636363642,
                "tempo": 120.0
            },
            {
                "start_time": 3.120454545454545,
                "end_time": 3.2318181818181815,
                "pitch": 71,
                "velocity": 64,
                "duration": 0.11136363636363633,
                "tempo": 120.0
            },
            {
                "start_time": 3.2477272727272726,
                "end_time": 3.327272727272727,
                "pitch": 62,
                "velocity": 64,
                "duration": 0.07954545454545459,
                "tempo": 120.0
            },
            {
                "start_time": 3.343181818181818,
                "end_time": 3.4545454545454546,
                "pitch": 72,
                "velocity": 64,
                "duration": 0.11136363636363678,
                "tempo": 120.0
            },
            {
                "start_time": 3.4704545454545452,
                "end_time": 3.5522727272727272,
                "pitch": 62,
                "velocity": 64,
                "duration": 0.08181818181818201,
                "tempo": 120.0
            },
            {
                "start_time": 3.568181818181818,
                "end_time": 3.65,
                "pitch": 60,
                "velocity": 64,
                "duration": 0.08181818181818201,
                "tempo": 120.0
            },
            {
                "start_time": 3.702272727272727,
                "end_time": 3.7840909090909087,
                "pitch": 60,
                "velocity": 64,
                "duration": 0.08181818181818157,
                "tempo": 120.0
            },
            {
                "start_time": 3.8022727272727272,
                "end_time": 3.884090909090909,
                "pitch": 60,
                "velocity": 64,
                "duration": 0.08181818181818157,
                "tempo": 120.0
            },
            {
                "start_time": 3.902272727272727,
                "end_time": 4.018181818181818,
                "pitch": 60,
                "velocity": 64,
                "duration": 0.11590909090909074,
                "tempo": 120.0
            },
            {
                "start_time": 4.036363636363636,
                "end_time": 4.120454545454545,
                "pitch": 72,
                "velocity": 64,
                "duration": 0.084090909090909,
                "tempo": 120.0
            },
            {
                "start_time": 4.138636363636364,
                "end_time": 4.259090909090909,
                "pitch": 60,
                "velocity": 64,
                "duration": 0.12045454545454515,
                "tempo": 120.0
            },
            {
                "start_time": 4.2749999999999995,
                "end_time": 4.361363636363636,
                "pitch": 70,
                "velocity": 64,
                "duration": 0.08636363636363686,
                "tempo": 120.0
            },
            {
                "start_time": 4.377272727272727,
                "end_time": 4.463636363636364,
                "pitch": 60,
                "velocity": 64,
                "duration": 0.08636363636363686,
                "tempo": 120.0
            },
            {
                "start_time": 4.513636363636364,
                "end_time": 4.597727272727273,
                "pitch": 69,
                "velocity": 64,
                "duration": 0.084090909090909,
                "tempo": 120.0
            },
            {
                "start_time": 4.61590909090909,
                "end_time": 4.697727272727272,
                "pitch": 60,
                "velocity": 64,
                "duration": 0.08181818181818201,
                "tempo": 120.0
            },
            {
                "start_time": 4.715909090909091,
                "end_time": 4.831818181818182,
                "pitch": 67,
                "velocity": 64,
                "duration": 0.11590909090909118,
                "tempo": 120.0
            },
            {
                "start_time": 4.85,
                "end_time": 4.931818181818182,
                "pitch": 60,
                "velocity": 64,
                "duration": 0.08181818181818201,
                "tempo": 120.0
            },
            {
                "start_time": 4.95,
                "end_time": 5.0613636363636365,
                "pitch": 69,
                "velocity": 64,
                "duration": 0.11136363636363633,
                "tempo": 120.0
            },
            {
                "start_time": 5.077272727272727,
                "end_time": 5.156818181818181,
                "pitch": 60,
                "velocity": 64,
                "duration": 0.07954545454545414,
                "tempo": 120.0
            },
            {
                "start_time": 5.172727272727273,
                "end_time": 5.252272727272727,
                "pitch": 70,
                "velocity": 64,
                "duration": 0.07954545454545414,
                "tempo": 120.0
            },
            {
                "start_time": 5.3,
                "end_time": 5.381818181818182,
                "pitch": 60,
                "velocity": 64,
                "duration": 0.08181818181818201,
                "tempo": 120.0
            },
            {
                "start_time": 5.3977272727272725,
                "end_time": 5.4818181818181815,
                "pitch": 60,
                "velocity": 64,
                "duration": 0.084090909090909,
                "tempo": 120.0
            },
            {
                "start_time": 5.5,
                "end_time": 5.618181818181818,
                "pitch": 60,
                "velocity": 64,
                "duration": 0.11818181818181817,
                "tempo": 120.0
            },
            {
                "start_time": 5.636363636363636,
                "end_time": 5.722727272727273,
                "pitch": 60,
                "velocity": 64,
                "duration": 0.08636363636363686,
                "tempo": 120.0
            },
            {
                "start_time": 5.738636363636363,
                "end_time": 5.8590909090909085,
                "pitch": 60,
                "velocity": 64,
                "duration": 0.12045454545454515,
                "tempo": 120.0
            },
            {
                "start_time": 5.875,
                "end_time": 5.959090909090909,
                "pitch": 72,
                "velocity": 64,
                "duration": 0.084090909090909,
                "tempo": 120.0
            },
            {
                "start_time": 5.975,
                "end_time": 6.059090909090909,
                "pitch": 60,
                "velocity": 64,
                "duration": 0.084090909090909,
                "tempo": 120.0
            },
            {
                "start_time": 6.1090909090909085,
                "end_time": 6.1931818181818175,
                "pitch": 70,
                "velocity": 64,
                "duration": 0.084090909090909,
                "tempo": 120.0
            },
            {
                "start_time": 6.209090909090909,
                "end_time": 6.293181818181818,
                "pitch": 60,
                "velocity": 64,
                "duration": 0.084090909090909,
                "tempo": 120.0
            },
            {
                "start_time": 6.311363636363636,
                "end_time": 6.422727272727273,
                "pitch": 69,
                "velocity": 64,
                "duration": 0.11136363636363722,
                "tempo": 120.0
            },
            {
                "start_time": 6.4386363636363635,
                "end_time": 6.518181818181818,
                "pitch": 60,
                "velocity": 64,
                "duration": 0.07954545454545414,
                "tempo": 120.0
            },
            {
                "start_time": 6.534090909090909,
                "end_time": 6.6454545454545455,
                "pitch": 67,
                "velocity": 64,
                "duration": 0.11136363636363633,
                "tempo": 120.0
            },
            {
                "start_time": 6.661363636363636,
                "end_time": 6.74090909090909,
                "pitch": 60,
                "velocity": 64,
                "duration": 0.07954545454545414,
                "tempo": 120.0
            },
            {
                "start_time": 6.759090909090909,
                "end_time": 6.840909090909091,
                "pitch": 69,
                "velocity": 64,
                "duration": 0.08181818181818201,
                "tempo": 120.0
            },
            {
                "start_time": 6.890909090909091,
                "end_time": 6.975,
                "pitch": 60,
                "velocity": 64,
                "duration": 0.084090909090909,
                "tempo": 120.0
            },
            {
                "start_time": 6.993181818181818,
                "end_time": 7.074999999999999,
                "pitch": 70,
                "velocity": 64,
                "duration": 0.08181818181818112,
                "tempo": 120.0
            },
            {
                "start_time": 7.093181818181818,
                "end_time": 7.209090909090909,
                "pitch": 60,
                "velocity": 64,
                "duration": 0.11590909090909118,
                "tempo": 120.0
            },
            {
                "start_time": 7.227272727272727,
                "end_time": 7.461363636363636,
                "pitch": 62,
                "velocity": 64,
                "duration": 0.23409090909090935,
                "tempo": 120.0
            },
            {
                "start_time": 7.561363636363636,
                "end_time": 7.7749999999999995,
                "pitch": 62,
                "velocity": 64,
                "duration": 0.21363636363636385,
                "tempo": 120.0
            },
            {
                "start_time": 7.79090909090909,
                "end_time": 8.004545454545454,
                "pitch": 62,
                "velocity": 64,
                "duration": 0.21363636363636385,
                "tempo": 120.0
            },
            {
                "start_time": 8.020454545454545,
                "end_time": 9.038636363636364,
                "pitch": 62,
                "velocity": 64,
                "duration": 1.0181818181818194,
                "tempo": 120.0
            }
        ]
    }
}