{
    "track_id": "Wonder Boy III (FM) - 01 - The Last Dungeon",
    "mood": "angry",
    "instruments": {
        "Synth Bass 1": [
            {
                "start_time": 0.22954545454545452,
                "end_time": 0.32954545454545453,
                "pitch": 55,
                "velocity": 80,
                "duration": 0.1,
                "tempo": 120.0
            },
            {
                "start_time": 0.4295454545454545,
                "end_time": 0.5386363636363636,
                "pitch": 55,
                "velocity": 80,
                "duration": 0.10909090909090907,
                "tempo": 120.0
            },
            {
                "start_time": 0.6454545454545454,
                "end_time": 0.7,
                "pitch": 55,
                "velocity": 80,
                "duration": 0.054545454545454564,
                "tempo": 120.0
            },
            {
                "start_time": 0.7545454545454545,
                "end_time": 0.7886363636363636,
                "pitch": 55,
                "velocity": 80,
                "duration": 0.03409090909090906,
                "tempo": 120.0
            },
            {
                "start_time": 0.8613636363636363,
                "end_time": 0.9454545454545454,
                "pitch": 57,
                "velocity": 80,
                "duration": 0.0840909090909091,
                "tempo": 120.0
            },
            {
                "start_time": 1.0613636363636363,
                "end_time": 1.1454545454545455,
                "pitch": 57,
                "velocity": 80,
                "duration": 0.08409090909090922,
                "tempo": 120.0
            },
            {
                "start_time": 1.2613636363636362,
                "end_time": 1.3454545454545455,
                "pitch": 57,
                "velocity": 80,
                "duration": 0.08409090909090922,
                "tempo": 120.0
            },
            {
                "start_time": 1.4613636363636362,
                "end_time": 1.5113636363636362,
                "pitch": 57,
                "velocity": 80,
                "duration": 0.050000000000000044,
                "tempo": 120.0
            },
            {
                "start_time": 1.5613636363636363,
                "end_time": 1.6113636363636363,
                "pitch": 57,
                "velocity": 80,
                "duration": 0.050000000000000044,
                "tempo": 120.0
            },
            {
                "start_time": 1.6613636363636364,
                "end_time": 1.7454545454545454,
                "pitch": 58,
                "velocity": 80,
                "duration": 0.084090909090909,
                "tempo": 120.0
            },
            {
                "start_time": 1.8613636363636363,
                "end_time": 1.9454545454545453,
                "pitch": 58,
                "velocity": 80,
                "duration": 0.084090909090909,
                "tempo": 120.0
            },
            {
                "start_time": 2.061363636363636,
                "end_time": 2.1454545454545455,
                "pitch": 58,
                "velocity": 80,
                "duration": 0.08409090909090944,
                "tempo": 120.0
            },
            {
                "start_time": 2.2613636363636362,
                "end_time": 2.311363636363636,
                "pitch": 58,
                "velocity": 80,
                "duration": 0.04999999999999982,
                "tempo": 120.0
            },
            {
                "start_time": 2.3613636363636363,
                "end_time": 2.411363636363636,
                "pitch": 58,
                "velocity": 80,
                "duration": 0.04999999999999982,
                "tempo": 120.0
            },
            {
                "start_time": 2.4613636363636364,
                "end_time": 2.561363636363636,
                "pitch": 60,
                "velocity": 80,
                "duration": 0.09999999999999964,
                "tempo": 120.0
            },
            {
                "start_time": 2.6636363636363636,
                "end_time": 2.7136363636363634,
                "pitch": 60,
                "velocity": 80,
                "duration": 0.04999999999999982,
                "tempo": 120.0
            },
            {
                "start_time": 2.7636363636363637,
                "end_time": 2.8136363636363635,
                "pitch": 60,
                "velocity": 80,
                "duration": 0.04999999999999982,
                "tempo": 120.0
            },
            {
                "start_time": 2.8636363636363633,
                "end_time": 2.9636363636363634,
                "pitch": 62,
                "velocity": 80,
                "duration": 0.10000000000000009,
                "tempo": 120.0
            },
            {
                "start_time": 3.0636363636363635,
                "end_time": 3.1136363636363633,
                "pitch": 62,
                "velocity": 80,
                "duration": 0.04999999999999982,
                "tempo": 120.0
            },
            {
                "start_time": 3.1636363636363636,
                "end_time": 3.2136363636363634,
                "pitch": 62,
                "velocity": 80,
                "duration": 0.04999999999999982,
                "tempo": 120.0
            },
            {
                "start_time": 3.2636363636363637,
                "end_time": 3.3636363636363633,
                "pitch": 55,
                "velocity": 80,
                "duration": 0.09999999999999964,
                "tempo": 120.0
            },
            {
                "start_time": 3.4636363636363634,
                "end_time": 3.5636363636363635,
                "pitch": 55,
                "velocity": 80,
                "duration": 0.10000000000000009,
                "tempo": 120.0
            },
            {
                "start_time": 3.6636363636363636,
                "end_time": 3.7636363636363637,
                "pitch": 55,
                "velocity": 80,
                "duration": 0.10000000000000009,
                "tempo": 120.0
            },
            {
                "start_time": 3.8636363636363633,
                "end_time": 3.9136363636363636,
                "pitch": 55,
                "velocity": 80,
                "duration": 0.050000000000000266,
                "tempo": 120.0
            },
            {
                "start_time": 3.9636363636363634,
                "end_time": 4.013636363636364,
                "pitch": 55,
                "velocity": 80,
                "duration": 0.050000000000000266,
                "tempo": 120.0
            },
            {
                "start_time": 4.0636363636363635,
                "end_time": 4.165909090909091,
                "pitch": 57,
                "velocity": 80,
                "duration": 0.10227272727272751,
                "tempo": 120.0
            },
            {
                "start_time": 4.265909090909091,
                "end_time": 4.36590909090909,
                "pitch": 57,
                "velocity": 80,
                "duration": 0.09999999999999964,
                "tempo": 120.0
            },
            {
                "start_time": 4.465909090909091,
                "end_time": 4.5659090909090905,
                "pitch": 57,
                "velocity": 80,
                "duration": 0.09999999999999964,
                "tempo": 120.0
            },
            {
                "start_time": 4.665909090909091,
                "end_time": 4.715909090909091,
                "pitch": 57,
                "velocity": 80,
                "duration": 0.04999999999999982,
                "tempo": 120.0
            },
            {
                "start_time": 4.765909090909091,
                "end_time": 4.8159090909090905,
                "pitch": 57,
                "velocity": 80,
                "duration": 0.04999999999999982,
                "tempo": 120.0
            },
            {
                "start_time": 4.86590909090909,
                "end_time": 4.968181818181818,
                "pitch": 58,
                "velocity": 80,
                "duration": 0.10227272727272751,
                "tempo": 120.0
            },
            {
                "start_time": 5.068181818181818,
                "end_time": 5.168181818181818,
                "pitch": 58,
                "velocity": 80,
                "duration": 0.09999999999999964,
                "tempo": 120.0
            },
            {
                "start_time": 5.2704545454545455,
                "end_time": 5.370454545454545,
                "pitch": 58,
                "velocity": 80,
                "duration": 0.09999999999999964,
                "tempo": 120.0
            },
            {
                "start_time": 5.470454545454545,
                "end_time": 5.5204545454545455,
                "pitch": 58,
                "velocity": 80,
                "duration": 0.05000000000000071,
                "tempo": 120.0
            },
            {
                "start_time": 5.572727272727272,
                "end_time": 5.622727272727272,
                "pitch": 58,
                "velocity": 80,
                "duration": 0.04999999999999982,
                "tempo": 120.0
            },
            {
                "start_time": 5.672727272727273,
                "end_time": 5.7727272727272725,
                "pitch": 60,
                "velocity": 80,
                "duration": 0.09999999999999964,
                "tempo": 120.0
            },
            {
                "start_time": 5.872727272727272,
                "end_time": 5.922727272727273,
                "pitch": 60,
                "velocity": 80,
                "duration": 0.05000000000000071,
                "tempo": 120.0
            },
            {
                "start_time": 5.972727272727273,
                "end_time": 6.0227272727272725,
                "pitch": 60,
                "velocity": 80,
                "duration": 0.04999999999999982,
                "tempo": 120.0
            },
            {
                "start_time": 6.072727272727272,
                "end_time": 6.172727272727273,
                "pitch": 62,
                "velocity": 80,
                "duration": 0.10000000000000053,
                "tempo": 120.0
            },
            {
                "start_time": 6.2727272727272725,
                "end_time": 6.324999999999999,
                "pitch": 62,
                "velocity": 80,
                "duration": 0.052272727272726804,
                "tempo": 120.0
            },
            {
                "start_time": 6.375,
                "end_time": 6.425,
                "pitch": 62,
                "velocity": 80,
                "duration": 0.04999999999999982,
                "tempo": 120.0
            },
            {
                "start_time": 6.475,
                "end_time": 6.5249999999999995,
                "pitch": 55,
                "velocity": 80,
                "duration": 0.04999999999999982,
                "tempo": 120.0
            },
            {
                "start_time": 6.574999999999999,
                "end_time": 6.625,
                "pitch": 55,
                "velocity": 80,
                "duration": 0.05000000000000071,
                "tempo": 120.0
            },
            {
                "start_time": 6.675,
                "end_time": 6.725,
                "pitch": 55,
                "velocity": 80,
                "duration": 0.04999999999999982,
                "tempo": 120.0
            },
            {
                "start_time": 6.875,
                "end_time": 6.975,
                "pitch": 55,
                "velocity": 80,
                "duration": 0.09999999999999964,
                "tempo": 120.0
            },
            {
                "start_time": 7.077272727272727,
                "end_time": 7.127272727272727,
                "pitch": 60,
                "velocity": 80,
                "duration": 0.04999999999999982,
                "tempo": 120.0
            },
            {
                "start_time": 7.177272727272727,
                "end_time": 7.227272727272727,
                "pitch": 62,
                "velocity": 80,
                "duration": 0.04999999999999982,
                "tempo": 120.0
            },
            {
                "start_time": 7.277272727272727,
                "end_time": 7.327272727272727,
                "pitch": 53,
                "velocity": 80,
                "duration": 0.04999999999999982,
                "tempo": 120.0
            },
            {
                "start_time": 7.377272727272727,
                "end_time": 7.429545454545454,
                "pitch": 53,
                "velocity": 80,
                "duration": 0.052272727272726804,
                "tempo": 120.0
            },
            {
                "start_time": 7.4795454545454545,
                "end_time": 7.579545454545454,
                "pitch": 55,
                "velocity": 80,
                "duration": 0.09999999999999964,
                "tempo": 120.0
            },
            {
                "start_time": 7.679545454545454,
                "end_time": 7.7295454545454545,
                "pitch": 58,
                "velocity": 80,
                "duration": 0.05000000000000071,
                "tempo": 120.0
            },
            {
                "start_time": 7.879545454545454,
                "end_time": 7.929545454545454,
                "pitch": 55,
                "velocity": 80,
                "duration": 0.04999999999999982,
                "tempo": 120.0
            },
            {
                "start_time": 7.9795454545454545,
                "end_time": 8.029545454545454,
                "pitch": 55,
                "velocity": 80,
                "duration": 0.04999999999999982,
                "tempo": 120.0
            },
            {
                "start_time": 8.279545454545454,
                "end_time": 8.329545454545453,
                "pitch": 55,
                "velocity": 80,
                "duration": 0.049999999999998934,
                "tempo": 120.0
            },
            {
                "start_time": 8.379545454545454,
                "end_time": 8.429545454545455,
                "pitch": 55,
                "velocity": 80,
                "duration": 0.05000000000000071,
                "tempo": 120.0
            },
            {
                "start_time": 8.681818181818182,
                "end_time": 8.73181818181818,
                "pitch": 55,
                "velocity": 80,
                "duration": 0.049999999999998934,
                "tempo": 120.0
            },
            {
                "start_time": 8.781818181818181,
                "end_time": 8.831818181818182,
                "pitch": 55,
                "velocity": 80,
                "duration": 0.05000000000000071,
                "tempo": 120.0
            },
            {
                "start_time": 8.884090909090908,
                "end_time": 8.98409090909091,
                "pitch": 53,
                "velocity": 80,
                "duration": 0.10000000000000142,
                "tempo": 120.0
            },
            {
                "start_time": 9.084090909090909,
                "end_time": 9.184090909090909,
                "pitch": 55,
                "velocity": 80,
                "duration": 0.09999999999999964,
                "tempo": 120.0
            },
            {
                "start_time": 9.286363636363635,
                "end_time": 9.336363636363636,
                "pitch": 62,
                "velocity": 80,
                "duration": 0.05000000000000071,
                "tempo": 120.0
            },
            {
                "start_time": 9.386363636363637,
                "end_time": 9.436363636363636,
                "pitch": 60,
                "velocity": 80,
                "duration": 0.049999999999998934,
                "tempo": 120.0
            },
            {
                "start_time": 9.486363636363636,
                "end_time": 9.536363636363635,
                "pitch": 58,
                "velocity": 80,
                "duration": 0.049999999999998934,
                "tempo": 120.0
            },
            {
                "start_time": 9.588636363636363,
                "end_time": 9.638636363636364,
                "pitch": 55,
                "velocity": 80,
                "duration": 0.05000000000000071,
                "tempo": 120.0
            },
            {
                "start_time": 9.688636363636363,
                "end_time": 9.788636363636364,
                "pitch": 62,
                "velocity": 80,
                "duration": 0.10000000000000142,
                "tempo": 120.0
            },
            {
                "start_time": 9.888636363636364,
                "end_time": 9.99090909090909,
                "pitch": 62,
                "velocity": 80,
                "duration": 0.10227272727272663,
                "tempo": 120.0
            },
            {
                "start_time": 10.09090909090909,
                "end_time": 10.19090909090909,
                "pitch": 60,
                "velocity": 80,
                "duration": 0.09999999999999964,
                "tempo": 120.0
            },
            {
                "start_time": 10.290909090909091,
                "end_time": 10.39090909090909,
                "pitch": 60,
                "velocity": 80,
                "duration": 0.09999999999999964,
                "tempo": 120.0
            },
            {
                "start_time": 10.49090909090909,
                "end_time": 10.59090909090909,
                "pitch": 58,
                "velocity": 80,
                "duration": 0.09999999999999964,
                "tempo": 120.0
            },
            {
                "start_time": 10.693181818181818,
                "end_time": 10.793181818181818,
                "pitch": 58,
                "velocity": 80,
                "duration": 0.09999999999999964,
                "tempo": 120.0
            },
            {
                "start_time": 10.893181818181818,
                "end_time": 10.995454545454544,
                "pitch": 57,
                "velocity": 80,
                "duration": 0.10227272727272663,
                "tempo": 120.0
            },
            {
                "start_time": 11.095454545454546,
                "end_time": 11.195454545454545,
                "pitch": 57,
                "velocity": 80,
                "duration": 0.09999999999999964,
                "tempo": 120.0
            },
            {
                "start_time": 11.295454545454545,
                "end_time": 11.347727272727273,
                "pitch": 55,
                "velocity": 80,
                "duration": 0.05227272727272769,
                "tempo": 120.0
            },
            {
                "start_time": 11.397727272727272,
                "end_time": 11.447727272727272,
                "pitch": 55,
                "velocity": 80,
                "duration": 0.05000000000000071,
                "tempo": 120.0
            },
            {
                "start_time": 11.497727272727273,
                "end_time": 11.547727272727272,
                "pitch": 55,
                "velocity": 80,
                "duration": 0.049999999999998934,
                "tempo": 120.0
            },
            {
                "start_time": 11.7,
                "end_time": 11.799999999999999,
                "pitch": 55,
                "velocity": 80,
                "duration": 0.09999999999999964,
                "tempo": 120.0
            },
            {
                "start_time": 11.899999999999999,
                "end_time": 11.95,
                "pitch": 53,
                "velocity": 80,
                "duration": 0.05000000000000071,
                "tempo": 120.0
            },
            {
                "start_time": 12.002272727272727,
                "end_time": 12.052272727272726,
                "pitch": 53,
                "velocity": 80,
                "duration": 0.049999999999998934,
                "tempo": 120.0
            },
            {
                "start_time": 12.102272727272727,
                "end_time": 12.202272727272726,
                "pitch": 55,
                "velocity": 80,
                "duration": 0.09999999999999964,
                "tempo": 120.0
            },
            {
                "start_time": 12.302272727272726,
                "end_time": 12.402272727272727,
                "pitch": 60,
                "velocity": 80,
                "duration": 0.10000000000000142,
                "tempo": 120.0
            },
            {
                "start_time": 12.502272727272727,
                "end_time": 12.602272727272727,
                "pitch": 60,
                "velocity": 80,
                "duration": 0.09999999999999964,
                "tempo": 120.0
            },
            {
                "start_time": 12.702272727272726,
                "end_time": 12.804545454545455,
                "pitch": 62,
                "velocity": 80,
                "duration": 0.1022727272727284,
                "tempo": 120.0
            },
            {
                "start_time": 12.904545454545454,
                "end_time": 12.954545454545453,
                "pitch": 55,
                "velocity": 80,
                "duration": 0.049999999999998934,
                "tempo": 120.0
            },
            {
                "start_time": 13.004545454545454,
                "end_time": 13.054545454545455,
                "pitch": 55,
                "velocity": 80,
                "duration": 0.05000000000000071,
                "tempo": 120.0
            },
            {
                "start_time": 13.10681818181818,
                "end_time": 13.156818181818181,
                "pitch": 55,
                "velocity": 80,
                "duration": 0.05000000000000071,
                "tempo": 120.0
            },
            {
                "start_time": 13.306818181818182,
                "end_time": 13.406818181818181,
                "pitch": 55,
                "velocity": 80,
                "duration": 0.09999999999999964,
                "tempo": 120.0
            },
            {
                "start_time": 13.509090909090908,
                "end_time": 13.559090909090909,
                "pitch": 60,
                "velocity": 80,
                "duration": 0.05000000000000071,
                "tempo": 120.0
            },
            {
                "start_time": 13.609090909090908,
                "end_time": 13.659090909090908,
                "pitch": 62,
                "velocity": 80,
                "duration": 0.05000000000000071,
                "tempo": 120.0
            },
            {
                "start_time": 13.709090909090909,
                "end_time": 13.759090909090908,
                "pitch": 53,
                "velocity": 80,
                "duration": 0.049999999999998934,
                "tempo": 120.0
            },
            {
                "start_time": 13.811363636363636,
                "end_time": 13.861363636363636,
                "pitch": 53,
                "velocity": 80,
                "duration": 0.05000000000000071,
                "tempo": 120.0
            },
            {
                "start_time": 13.911363636363635,
                "end_time": 14.011363636363635,
                "pitch": 55,
                "velocity": 80,
                "duration": 0.09999999999999964,
                "tempo": 120.0
            },
            {
                "start_time": 14.113636363636363,
                "end_time": 14.163636363636362,
                "pitch": 58,
                "velocity": 80,
                "duration": 0.049999999999998934,
                "tempo": 120.0
            },
            {
                "start_time": 14.313636363636363,
                "end_time": 14.363636363636363,
                "pitch": 55,
                "velocity": 80,
                "duration": 0.05000000000000071,
                "tempo": 120.0
            },
            {
                "start_time": 14.413636363636362,
                "end_time": 14.463636363636363,
                "pitch": 55,
                "velocity": 80,
                "duration": 0.05000000000000071,
                "tempo": 120.0
            },
            {
                "start_time": 14.713636363636363,
                "end_time": 14.763636363636364,
                "pitch": 55,
                "velocity": 80,
                "duration": 0.05000000000000071,
                "tempo": 120.0
            },
            {
                "start_time": 14.813636363636363,
                "end_time": 14.86590909090909,
                "pitch": 55,
                "velocity": 80,
                "duration": 0.05227272727272769,
                "tempo": 120.0
            },
            {
                "start_time": 15.11590909090909,
                "end_time": 15.165909090909091,
                "pitch": 55,
                "velocity": 80,
                "duration": 0.05000000000000071,
                "tempo": 120.0
            },
            {
                "start_time": 15.218181818181817,
                "end_time": 15.268181818181818,
                "pitch": 55,
                "velocity": 80,
                "duration": 0.05000000000000071,
                "tempo": 120.0
            },
            {
                "start_time": 15.318181818181817,
                "end_time": 15.418181818181818,
                "pitch": 53,
                "velocity": 80,
                "duration": 0.10000000000000142,
                "tempo": 120.0
            },
            {
                "start_time": 15.518181818181818,
                "end_time": 15.620454545454544,
                "pitch": 55,
                "velocity": 80,
                "duration": 0.10227272727272663,
                "tempo": 120.0
            },
            {
                "start_time": 15.720454545454544,
                "end_time": 15.770454545454545,
                "pitch": 62,
                "velocity": 80,
                "duration": 0.05000000000000071,
                "tempo": 120.0
            },
            {
                "start_time": 15.820454545454545,
                "end_time": 15.872727272727271,
                "pitch": 60,
                "velocity": 80,
                "duration": 0.052272727272725916,
                "tempo": 120.0
            },
            {
                "start_time": 15.922727272727272,
                "end_time": 15.972727272727273,
                "pitch": 58,
                "velocity": 80,
                "duration": 0.05000000000000071,
                "tempo": 120.0
            },
            {
                "start_time": 16.022727272727273,
                "end_time": 16.07272727272727,
                "pitch": 55,
                "velocity": 80,
                "duration": 0.04999999999999716,
                "tempo": 120.0
            },
            {
                "start_time": 16.12272727272727,
                "end_time": 16.224999999999998,
                "pitch": 62,
                "velocity": 80,
                "duration": 0.10227272727272663,
                "tempo": 120.0
            },
            {
                "start_time": 16.325,
                "end_time": 16.425,
                "pitch": 62,
                "velocity": 80,
                "duration": 0.10000000000000142,
                "tempo": 120.0
            },
            {
                "start_time": 16.525,
                "end_time": 16.625,
                "pitch": 60,
                "velocity": 80,
                "duration": 0.10000000000000142,
                "tempo": 120.0
            },
            {
                "start_time": 16.724999999999998,
                "end_time": 16.825,
                "pitch": 60,
                "velocity": 80,
                "duration": 0.10000000000000142,
                "tempo": 120.0
            },
            {
                "start_time": 16.925,
                "end_time": 17.025,
                "pitch": 58,
                "velocity": 80,
                "duration": 0.09999999999999787,
                "tempo": 120.0
            },
            {
                "start_time": 17.125,
                "end_time": 17.224999999999998,
                "pitch": 58,
                "velocity": 80,
                "duration": 0.09999999999999787,
                "tempo": 120.0
            },
            {
                "start_time": 17.325,
                "end_time": 17.427272727272726,
                "pitch": 57,
                "velocity": 80,
                "duration": 0.10227272727272663,
                "tempo": 120.0
            },
            {
                "start_time": 17.527272727272727,
                "end_time": 17.627272727272725,
                "pitch": 57,
                "velocity": 80,
                "duration": 0.09999999999999787,
                "tempo": 120.0
            },
            {
                "start_time": 17.727272727272727,
                "end_time": 17.777272727272727,
                "pitch": 55,
                "velocity": 80,
                "duration": 0.05000000000000071,
                "tempo": 120.0
            },
            {
                "start_time": 17.827272727272728,
                "end_time": 17.875,
                "pitch": 55,
                "velocity": 80,
                "duration": 0.04772727272727195,
                "tempo": 120.0
            },
            {
                "start_time": 17.925,
                "end_time": 17.972727272727273,
                "pitch": 55,
                "velocity": 80,
                "duration": 0.04772727272727195,
                "tempo": 120.0
            },
            {
                "start_time": 18.120454545454546,
                "end_time": 18.222727272727273,
                "pitch": 55,
                "velocity": 80,
                "duration": 0.10227272727272663,
                "tempo": 120.0
            },
            {
                "start_time": 18.325,
                "end_time": 18.377272727272725,
                "pitch": 53,
                "velocity": 80,
                "duration": 0.052272727272725916,
                "tempo": 120.0
            },
            {
                "start_time": 18.429545454545455,
                "end_time": 18.479545454545455,
                "pitch": 53,
                "velocity": 80,
                "duration": 0.05000000000000071,
                "tempo": 120.0
            },
            {
                "start_time": 18.53181818181818,
                "end_time": 18.63181818181818,
                "pitch": 55,
                "velocity": 80,
                "duration": 0.09999999999999787,
                "tempo": 120.0
            },
            {
                "start_time": 18.73181818181818,
                "end_time": 18.831818181818182,
                "pitch": 53,
                "velocity": 80,
                "duration": 0.10000000000000142,
                "tempo": 120.0
            },
            {
                "start_time": 18.93181818181818,
                "end_time": 19.03181818181818,
                "pitch": 55,
                "velocity": 80,
                "duration": 0.10000000000000142,
                "tempo": 120.0
            },
            {
                "start_time": 19.13181818181818,
                "end_time": 19.23181818181818,
                "pitch": 53,
                "velocity": 80,
                "duration": 0.10000000000000142,
                "tempo": 120.0
            },
            {
                "start_time": 19.331818181818182,
                "end_time": 19.43181818181818,
                "pitch": 51,
                "velocity": 80,
                "duration": 0.09999999999999787,
                "tempo": 120.0
            },
            {
                "start_time": 19.53181818181818,
                "end_time": 19.634090909090908,
                "pitch": 51,
                "velocity": 80,
                "duration": 0.10227272727272663,
                "tempo": 120.0
            },
            {
                "start_time": 19.73409090909091,
                "end_time": 19.834090909090907,
                "pitch": 51,
                "velocity": 80,
                "duration": 0.09999999999999787,
                "tempo": 120.0
            },
            {
                "start_time": 19.93409090909091,
                "end_time": 20.034090909090907,
                "pitch": 51,
                "velocity": 80,
                "duration": 0.09999999999999787,
                "tempo": 120.0
            },
            {
                "start_time": 20.134090909090908,
                "end_time": 20.18409090909091,
                "pitch": 50,
                "velocity": 80,
                "duration": 0.05000000000000071,
                "tempo": 120.0
            },
            {
                "start_time": 20.23409090909091,
                "end_time": 20.284090909090907,
                "pitch": 50,
                "velocity": 80,
                "duration": 0.04999999999999716,
                "tempo": 120.0
            },
            {
                "start_time": 20.336363636363636,
                "end_time": 20.436363636363634,
                "pitch": 51,
                "velocity": 80,
                "duration": 0.09999999999999787,
                "tempo": 120.0
            },
            {
                "start_time": 20.536363636363635,
                "end_time": 20.636363636363637,
                "pitch": 51,
                "velocity": 80,
                "duration": 0.10000000000000142,
                "tempo": 120.0
            },
            {
                "start_time": 20.736363636363635,
                "end_time": 20.836363636363636,
                "pitch": 51,
                "velocity": 80,
                "duration": 0.10000000000000142,
                "tempo": 120.0
            },
            {
                "start_time": 20.936363636363634,
                "end_time": 21.036363636363635,
                "pitch": 50,
                "velocity": 80,
                "duration": 0.10000000000000142,
                "tempo": 120.0
            },
            {
                "start_time": 21.136363636363637,
                "end_time": 21.236363636363635,
                "pitch": 50,
                "velocity": 80,
                "duration": 0.09999999999999787,
                "tempo": 120.0
            },
            {
                "start_time": 21.336363636363636,
                "end_time": 21.438636363636363,
                "pitch": 57,
                "velocity": 80,
                "duration": 0.10227272727272663,
                "tempo": 120.0
            },
            {
                "start_time": 21.538636363636364,
                "end_time": 21.638636363636362,
                "pitch": 57,
                "velocity": 80,
                "duration": 0.09999999999999787,
                "tempo": 120.0
            },
            {
                "start_time": 21.738636363636363,
                "end_time": 21.83863636363636,
                "pitch": 55,
                "velocity": 80,
                "duration": 0.09999999999999787,
                "tempo": 120.0
            },
            {
                "start_time": 21.938636363636363,
                "end_time": 22.038636363636364,
                "pitch": 55,
                "velocity": 80,
                "duration": 0.10000000000000142,
                "tempo": 120.0
            },
            {
                "start_time": 22.138636363636362,
                "end_time": 22.24090909090909,
                "pitch": 53,
                "velocity": 80,
                "duration": 0.10227272727272663,
                "tempo": 120.0
            },
            {
                "start_time": 22.34090909090909,
                "end_time": 22.39090909090909,
                "pitch": 55,
                "velocity": 80,
                "duration": 0.05000000000000071,
                "tempo": 120.0
            },
            {
                "start_time": 22.44090909090909,
                "end_time": 22.49090909090909,
                "pitch": 57,
                "velocity": 80,
                "duration": 0.04999999999999716,
                "tempo": 120.0
            },
            {
                "start_time": 22.543181818181818,
                "end_time": 22.643181818181816,
                "pitch": 58,
                "velocity": 80,
                "duration": 0.09999999999999787,
                "tempo": 120.0
            },
            {
                "start_time": 22.743181818181817,
                "end_time": 22.84318181818182,
                "pitch": 57,
                "velocity": 80,
                "duration": 0.10000000000000142,
                "tempo": 120.0
            },
            {
                "start_time": 23.143181818181816,
                "end_time": 23.193181818181817,
                "pitch": 58,
                "velocity": 80,
                "duration": 0.05000000000000071,
                "tempo": 120.0
            },
            {
                "start_time": 23.243181818181817,
                "end_time": 23.293181818181818,
                "pitch": 57,
                "velocity": 80,
                "duration": 0.05000000000000071,
                "tempo": 120.0
            },
            {
                "start_time": 23.34318181818182,
                "end_time": 23.443181818181817,
                "pitch": 53,
                "velocity": 80,
                "duration": 0.09999999999999787,
                "tempo": 120.0
            },
            {
                "start_time": 23.543181818181818,
                "end_time": 23.643181818181816,
                "pitch": 53,
                "velocity": 80,
                "duration": 0.09999999999999787,
                "tempo": 120.0
            },
            {
                "start_time": 23.945454545454545,
                "end_time": 23.995454545454546,
                "pitch": 58,
                "velocity": 80,
                "duration": 0.05000000000000071,
                "tempo": 120.0
            },
            {
                "start_time": 24.045454545454543,
                "end_time": 24.095454545454544,
                "pitch": 58,
                "velocity": 80,
                "duration": 0.05000000000000071,
                "tempo": 120.0
            },
            {
                "start_time": 24.145454545454545,
                "end_time": 24.245454545454546,
                "pitch": 60,
                "velocity": 80,
                "duration": 0.10000000000000142,
                "tempo": 120.0
            },
            {
                "start_time": 24.345454545454544,
                "end_time": 24.44772727272727,
                "pitch": 60,
                "velocity": 80,
                "duration": 0.10227272727272663,
                "tempo": 120.0
            },
            {
                "start_time": 24.74772727272727,
                "end_time": 24.797727272727272,
                "pitch": 60,
                "velocity": 80,
                "duration": 0.05000000000000071,
                "tempo": 120.0
            },
            {
                "start_time": 24.847727272727273,
                "end_time": 24.89772727272727,
                "pitch": 58,
                "velocity": 80,
                "duration": 0.04999999999999716,
                "tempo": 120.0
            },
            {
                "start_time": 24.94772727272727,
                "end_time": 24.99772727272727,
                "pitch": 55,
                "velocity": 80,
                "duration": 0.05000000000000071,
                "tempo": 120.0
            },
            {
                "start_time": 25.047727272727272,
                "end_time": 25.097727272727273,
                "pitch": 55,
                "velocity": 80,
                "duration": 0.05000000000000071,
                "tempo": 120.0
            },
            {
                "start_time": 25.14772727272727,
                "end_time": 25.19772727272727,
                "pitch": 55,
                "velocity": 80,
                "duration": 0.05000000000000071,
                "tempo": 120.0
            },
            {
                "start_time": 25.549999999999997,
                "end_time": 25.65,
                "pitch": 53,
                "velocity": 80,
                "duration": 0.10000000000000142,
                "tempo": 120.0
            },
            {
                "start_time": 25.75,
                "end_time": 25.849999999999998,
                "pitch": 51,
                "velocity": 80,
                "duration": 0.09999999999999787,
                "tempo": 120.0
            },
            {
                "start_time": 25.95,
                "end_time": 26.049999999999997,
                "pitch": 51,
                "velocity": 80,
                "duration": 0.09999999999999787,
                "tempo": 120.0
            },
            {
                "start_time": 26.15,
                "end_time": 26.25,
                "pitch": 51,
                "velocity": 80,
                "duration": 0.10000000000000142,
                "tempo": 120.0
            },
            {
                "start_time": 26.352272727272727,
                "end_time": 26.452272727272724,
                "pitch": 51,
                "velocity": 80,
                "duration": 0.09999999999999787,
                "tempo": 120.0
            },
            {
                "start_time": 26.552272727272726,
                "end_time": 26.602272727272727,
                "pitch": 50,
                "velocity": 80,
                "duration": 0.05000000000000071,
                "tempo": 120.0
            },
            {
                "start_time": 26.652272727272727,
                "end_time": 26.702272727272724,
                "pitch": 50,
                "velocity": 80,
                "duration": 0.04999999999999716,
                "tempo": 120.0
            },
            {
                "start_time": 26.752272727272725,
                "end_time": 26.852272727272727,
                "pitch": 51,
                "velocity": 80,
                "duration": 0.10000000000000142,
                "tempo": 120.0
            },
            {
                "start_time": 26.952272727272724,
                "end_time": 27.052272727272726,
                "pitch": 51,
                "velocity": 80,
                "duration": 0.10000000000000142,
                "tempo": 120.0
            },
            {
                "start_time": 27.15681818181818,
                "end_time": 27.238636363636363,
                "pitch": 51,
                "velocity": 80,
                "duration": 0.08181818181818201,
                "tempo": 120.0
            },
            {
                "start_time": 27.34090909090909,
                "end_time": 27.438636363636363,
                "pitch": 50,
                "velocity": 80,
                "duration": 0.09772727272727266,
                "tempo": 120.0
            },
            {
                "start_time": 27.536363636363635,
                "end_time": 27.636363636363637,
                "pitch": 50,
                "velocity": 80,
                "duration": 0.10000000000000142,
                "tempo": 120.0
            },
            {
                "start_time": 27.73409090909091,
                "end_time": 27.834090909090907,
                "pitch": 57,
                "velocity": 80,
                "duration": 0.09999999999999787,
                "tempo": 120.0
            },
            {
                "start_time": 27.93409090909091,
                "end_time": 28.036363636363635,
                "pitch": 57,
                "velocity": 80,
                "duration": 0.10227272727272663,
                "tempo": 120.0
            },
            {
                "start_time": 28.15,
                "end_time": 28.236363636363635,
                "pitch": 55,
                "velocity": 80,
                "duration": 0.08636363636363598,
                "tempo": 120.0
            },
            {
                "start_time": 28.35681818181818,
                "end_time": 28.440909090909088,
                "pitch": 55,
                "velocity": 80,
                "duration": 0.08409090909090722,
                "tempo": 120.0
            },
            {
                "start_time": 28.561363636363634,
                "end_time": 28.645454545454545,
                "pitch": 53,
                "velocity": 80,
                "duration": 0.08409090909091077,
                "tempo": 120.0
            },
            {
                "start_time": 28.761363636363637,
                "end_time": 28.811363636363634,
                "pitch": 55,
                "velocity": 80,
                "duration": 0.04999999999999716,
                "tempo": 120.0
            },
            {
                "start_time": 28.861363636363635,
                "end_time": 28.911363636363635,
                "pitch": 57,
                "velocity": 80,
                "duration": 0.05000000000000071,
                "tempo": 120.0
            },
            {
                "start_time": 28.961363636363636,
                "end_time": 29.045454545454543,
                "pitch": 55,
                "velocity": 80,
                "duration": 0.08409090909090722,
                "tempo": 120.0
            },
            {
                "start_time": 29.161363636363635,
                "end_time": 29.245454545454542,
                "pitch": 55,
                "velocity": 80,
                "duration": 0.08409090909090722,
                "tempo": 120.0
            },
            {
                "start_time": 29.563636363636363,
                "end_time": 29.645454545454545,
                "pitch": 55,
                "velocity": 80,
                "duration": 0.08181818181818201,
                "tempo": 120.0
            },
            {
                "start_time": 29.763636363636362,
                "end_time": 29.847727272727273,
                "pitch": 57,
                "velocity": 80,
                "duration": 0.08409090909091077,
                "tempo": 120.0
            },
            {
                "start_time": 29.96363636363636,
                "end_time": 30.047727272727272,
                "pitch": 57,
                "velocity": 80,
                "duration": 0.08409090909091077,
                "tempo": 120.0
            },
            {
                "start_time": 30.36590909090909,
                "end_time": 30.45,
                "pitch": 57,
                "velocity": 80,
                "duration": 0.08409090909091077,
                "tempo": 120.0
            },
            {
                "start_time": 30.565909090909088,
                "end_time": 30.65,
                "pitch": 58,
                "velocity": 80,
                "duration": 0.08409090909091077,
                "tempo": 120.0
            },
            {
                "start_time": 30.76590909090909,
                "end_time": 30.849999999999998,
                "pitch": 58,
                "velocity": 80,
                "duration": 0.08409090909090722,
                "tempo": 120.0
            },
            {
                "start_time": 31.16590909090909,
                "end_time": 31.26590909090909,
                "pitch": 58,
                "velocity": 80,
                "duration": 0.10000000000000142,
                "tempo": 120.0
            },
            {
                "start_time": 31.36590909090909,
                "end_time": 31.468181818181815,
                "pitch": 60,
                "velocity": 80,
                "duration": 0.10227272727272663,
                "tempo": 120.0
            },
            {
                "start_time": 31.568181818181817,
                "end_time": 31.668181818181818,
                "pitch": 60,
                "velocity": 80,
                "duration": 0.10000000000000142,
                "tempo": 120.0
            },
            {
                "start_time": 31.770454545454545,
                "end_time": 31.820454545454545,
                "pitch": 62,
                "velocity": 80,
                "duration": 0.05000000000000071,
                "tempo": 120.0
            },
            {
                "start_time": 31.870454545454542,
                "end_time": 31.920454545454543,
                "pitch": 60,
                "velocity": 80,
                "duration": 0.05000000000000071,
                "tempo": 120.0
            },
            {
                "start_time": 31.970454545454544,
                "end_time": 32.02045454545454,
                "pitch": 58,
                "velocity": 80,
                "duration": 0.04999999999999716,
                "tempo": 120.0
            },
            {
                "start_time": 32.070454545454545,
                "end_time": 32.12045454545454,
                "pitch": 57,
                "velocity": 80,
                "duration": 0.04999999999999716,
                "tempo": 120.0
            },
            {
                "start_time": 32.17045454545455,
                "end_time": 32.220454545454544,
                "pitch": 55,
                "velocity": 80,
                "duration": 0.04999999999999716,
                "tempo": 120.0
            },
            {
                "start_time": 32.27045454545454,
                "end_time": 32.320454545454545,
                "pitch": 55,
                "velocity": 80,
                "duration": 0.05000000000000426,
                "tempo": 120.0
            },
            {
                "start_time": 32.37045454545454,
                "end_time": 32.42045454545455,
                "pitch": 55,
                "velocity": 80,
                "duration": 0.05000000000000426,
                "tempo": 120.0
            },
            {
                "start_time": 32.57272727272727,
                "end_time": 32.67272727272727,
                "pitch": 55,
                "velocity": 80,
                "duration": 0.10000000000000142,
                "tempo": 120.0
            },
            {
                "start_time": 32.77272727272727,
                "end_time": 32.82272727272727,
                "pitch": 60,
                "velocity": 80,
                "duration": 0.04999999999999716,
                "tempo": 120.0
            },
            {
                "start_time": 32.87272727272727,
                "end_time": 32.92272727272727,
                "pitch": 62,
                "velocity": 80,
                "duration": 0.05000000000000426,
                "tempo": 120.0
            },
            {
                "start_time": 32.97272727272727,
                "end_time": 33.02272727272727,
                "pitch": 53,
                "velocity": 80,
                "duration": 0.05000000000000426,
                "tempo": 120.0
            },
            {
                "start_time": 33.07272727272727,
                "end_time": 33.12272727272727,
                "pitch": 53,
                "velocity": 80,
                "duration": 0.04999999999999716,
                "tempo": 120.0
            },
            {
                "start_time": 33.17272727272727,
                "end_time": 33.27272727272727,
                "pitch": 55,
                "velocity": 80,
                "duration": 0.10000000000000142,
                "tempo": 120.0
            },
            {
                "start_time": 33.37272727272727,
                "end_time": 33.42272727272727,
                "pitch": 58,
                "velocity": 80,
                "duration": 0.05000000000000426,
                "tempo": 120.0
            },
            {
                "start_time": 33.57272727272727,
                "end_time": 33.62272727272727,
                "pitch": 55,
                "velocity": 80,
                "duration": 0.04999999999999716,
                "tempo": 120.0
            },
            {
                "start_time": 33.67272727272727,
                "end_time": 33.72272727272727,
                "pitch": 55,
                "velocity": 80,
                "duration": 0.04999999999999716,
                "tempo": 120.0
            },
            {
                "start_time": 33.97272727272727,
                "end_time": 34.02272727272727,
                "pitch": 55,
                "velocity": 80,
                "duration": 0.05000000000000426,
                "tempo": 120.0
            },
            {
                "start_time": 34.074999999999996,
                "end_time": 34.125,
                "pitch": 55,
                "velocity": 80,
                "duration": 0.05000000000000426,
                "tempo": 120.0
            },
            {
                "start_time": 34.375,
                "end_time": 34.425,
                "pitch": 55,
                "velocity": 80,
                "duration": 0.04999999999999716,
                "tempo": 120.0
            },
            {
                "start_time": 34.475,
                "end_time": 34.525,
                "pitch": 55,
                "velocity": 80,
                "duration": 0.04999999999999716,
                "tempo": 120.0
            },
            {
                "start_time": 34.574999999999996,
                "end_time": 34.675,
                "pitch": 53,
                "velocity": 80,
                "duration": 0.10000000000000142,
                "tempo": 120.0
            },
            {
                "start_time": 34.775,
                "end_time": 34.875,
                "pitch": 55,
                "velocity": 80,
                "duration": 0.10000000000000142,
                "tempo": 120.0
            },
            {
                "start_time": 34.975,
                "end_time": 35.025,
                "pitch": 62,
                "velocity": 80,
                "duration": 0.04999999999999716,
                "tempo": 120.0
            },
            {
                "start_time": 35.074999999999996,
                "end_time": 35.125,
                "pitch": 60,
                "velocity": 80,
                "duration": 0.05000000000000426,
                "tempo": 120.0
            },
            {
                "start_time": 35.175,
                "end_time": 35.225,
                "pitch": 58,
                "velocity": 80,
                "duration": 0.05000000000000426,
                "tempo": 120.0
            },
            {
                "start_time": 35.275,
                "end_time": 35.324999999999996,
                "pitch": 55,
                "velocity": 80,
                "duration": 0.04999999999999716,
                "tempo": 120.0
            },
            {
                "start_time": 35.375,
                "end_time": 35.475,
                "pitch": 62,
                "velocity": 80,
                "duration": 0.10000000000000142,
                "tempo": 120.0
            },
            {
                "start_time": 35.574999999999996,
                "end_time": 35.675,
                "pitch": 62,
                "velocity": 80,
                "duration": 0.10000000000000142,
                "tempo": 120.0
            },
            {
                "start_time": 35.775,
                "end_time": 35.875,
                "pitch": 60,
                "velocity": 80,
                "duration": 0.10000000000000142,
                "tempo": 120.0
            },
            {
                "start_time": 35.975,
                "end_time": 36.07727272727273,
                "pitch": 60,
                "velocity": 80,
                "duration": 0.10227272727272663,
                "tempo": 120.0
            },
            {
                "start_time": 36.17727272727272,
                "end_time": 36.277272727272724,
                "pitch": 58,
                "velocity": 80,
                "duration": 0.10000000000000142,
                "tempo": 120.0
            },
            {
                "start_time": 36.377272727272725,
                "end_time": 36.47727272727273,
                "pitch": 58,
                "velocity": 80,
                "duration": 0.10000000000000142,
                "tempo": 120.0
            },
            {
                "start_time": 36.57727272727273,
                "end_time": 36.67727272727272,
                "pitch": 57,
                "velocity": 80,
                "duration": 0.09999999999999432,
                "tempo": 120.0
            },
            {
                "start_time": 36.777272727272724,
                "end_time": 36.877272727272725,
                "pitch": 57,
                "velocity": 80,
                "duration": 0.10000000000000142,
                "tempo": 120.0
            },
            {
                "start_time": 36.97727272727273,
                "end_time": 37.027272727272724,
                "pitch": 55,
                "velocity": 80,
                "duration": 0.04999999999999716,
                "tempo": 120.0
            },
            {
                "start_time": 37.07727272727273,
                "end_time": 37.127272727272725,
                "pitch": 55,
                "velocity": 80,
                "duration": 0.04999999999999716,
                "tempo": 120.0
            },
            {
                "start_time": 37.17727272727272,
                "end_time": 37.22727272727273,
                "pitch": 55,
                "velocity": 80,
                "duration": 0.05000000000000426,
                "tempo": 120.0
            },
            {
                "start_time": 37.377272727272725,
                "end_time": 37.47727272727273,
                "pitch": 55,
                "velocity": 80,
                "duration": 0.10000000000000142,
                "tempo": 120.0
            },
            {
                "start_time": 37.57727272727273,
                "end_time": 37.627272727272725,
                "pitch": 53,
                "velocity": 80,
                "duration": 0.04999999999999716,
                "tempo": 120.0
            },
            {
                "start_time": 37.67727272727272,
                "end_time": 37.72727272727273,
                "pitch": 53,
                "velocity": 80,
                "duration": 0.05000000000000426,
                "tempo": 120.0
            },
            {
                "start_time": 37.777272727272724,
                "end_time": 37.877272727272725,
                "pitch": 55,
                "velocity": 80,
                "duration": 0.10000000000000142,
                "tempo": 120.0
            },
            {
                "start_time": 37.97954545454545,
                "end_time": 38.07954545454545,
                "pitch": 60,
                "velocity": 80,
                "duration": 0.10000000000000142,
                "tempo": 120.0
            },
            {
                "start_time": 38.179545454545455,
                "end_time": 38.279545454545456,
                "pitch": 60,
                "velocity": 80,
                "duration": 0.10000000000000142,
                "tempo": 120.0
            },
            {
                "start_time": 38.37954545454545,
                "end_time": 38.47954545454545,
                "pitch": 62,
                "velocity": 80,
                "duration": 0.10000000000000142,
                "tempo": 120.0
            },
            {
                "start_time": 38.57954545454545,
                "end_time": 38.679545454545455,
                "pitch": 63,
                "velocity": 80,
                "duration": 0.10000000000000142,
                "tempo": 120.0
            },
            {
                "start_time": 38.779545454545456,
                "end_time": 38.82954545454545,
                "pitch": 75,
                "velocity": 80,
                "duration": 0.04999999999999716,
                "tempo": 120.0
            },
            {
                "start_time": 38.87954545454545,
                "end_time": 38.929545454545455,
                "pitch": 75,
                "velocity": 80,
                "duration": 0.05000000000000426,
                "tempo": 120.0
            },
            {
                "start_time": 38.97954545454545,
                "end_time": 39.07954545454545,
                "pitch": 62,
                "velocity": 80,
                "duration": 0.10000000000000142,
                "tempo": 120.0
            },
            {
                "start_time": 39.179545454545455,
                "end_time": 39.22954545454545,
                "pitch": 74,
                "velocity": 80,
                "duration": 0.04999999999999716,
                "tempo": 120.0
            },
            {
                "start_time": 39.279545454545456,
                "end_time": 39.32954545454545,
                "pitch": 74,
                "velocity": 80,
                "duration": 0.04999999999999716,
                "tempo": 120.0
            },
            {
                "start_time": 39.37954545454545,
                "end_time": 39.429545454545455,
                "pitch": 61,
                "velocity": 80,
                "duration": 0.05000000000000426,
                "tempo": 120.0
            },
            {
                "start_time": 39.47727272727273,
                "end_time": 39.527272727272724,
                "pitch": 61,
                "velocity": 80,
                "duration": 0.04999999999999716,
                "tempo": 120.0
            },
            {
                "start_time": 39.574999999999996,
                "end_time": 39.625,
                "pitch": 61,
                "velocity": 80,
                "duration": 0.05000000000000426,
                "tempo": 120.0
            },
            {
                "start_time": 39.675,
                "end_time": 39.72272727272727,
                "pitch": 61,
                "velocity": 80,
                "duration": 0.04772727272727195,
                "tempo": 120.0
            },
            {
                "start_time": 39.77272727272727,
                "end_time": 39.875,
                "pitch": 60,
                "velocity": 80,
                "duration": 0.10227272727272663,
                "tempo": 120.0
            },
            {
                "start_time": 39.97954545454545,
                "end_time": 40.03181818181818,
                "pitch": 72,
                "velocity": 80,
                "duration": 0.05227272727272947,
                "tempo": 120.0
            },
            {
                "start_time": 40.08181818181818,
                "end_time": 40.13409090909091,
                "pitch": 72,
                "velocity": 80,
                "duration": 0.05227272727272947,
                "tempo": 120.0
            },
            {
                "start_time": 40.184090909090905,
                "end_time": 40.268181818181816,
                "pitch": 63,
                "velocity": 80,
                "duration": 0.08409090909091077,
                "tempo": 120.0
            },
            {
                "start_time": 40.38409090909091,
                "end_time": 40.434090909090905,
                "pitch": 75,
                "velocity": 80,
                "duration": 0.04999999999999716,
                "tempo": 120.0
            },
            {
                "start_time": 40.48409090909091,
                "end_time": 40.53409090909091,
                "pitch": 75,
                "velocity": 80,
                "duration": 0.04999999999999716,
                "tempo": 120.0
            },
            {
                "start_time": 40.584090909090904,
                "end_time": 40.668181818181814,
                "pitch": 62,
                "velocity": 80,
                "duration": 0.08409090909091077,
                "tempo": 120.0
            },
            {
                "start_time": 40.78409090909091,
                "end_time": 40.834090909090904,
                "pitch": 74,
                "velocity": 80,
                "duration": 0.04999999999999716,
                "tempo": 120.0
            },
            {
                "start_time": 40.88409090909091,
                "end_time": 40.934090909090905,
                "pitch": 74,
                "velocity": 80,
                "duration": 0.04999999999999716,
                "tempo": 120.0
            },
            {
                "start_time": 40.98409090909091,
                "end_time": 41.03409090909091,
                "pitch": 61,
                "velocity": 80,
                "duration": 0.04999999999999716,
                "tempo": 120.0
            },
            {
                "start_time": 41.084090909090904,
                "end_time": 41.13409090909091,
                "pitch": 61,
                "velocity": 80,
                "duration": 0.05000000000000426,
                "tempo": 120.0
            },
            {
                "start_time": 41.184090909090905,
                "end_time": 41.23409090909091,
                "pitch": 61,
                "velocity": 80,
                "duration": 0.05000000000000426,
                "tempo": 120.0
            },
            {
                "start_time": 41.28409090909091,
                "end_time": 41.334090909090904,
                "pitch": 61,
                "velocity": 80,
                "duration": 0.04999999999999716,
                "tempo": 120.0
            },
            {
                "start_time": 41.38409090909091,
                "end_time": 41.46818181818182,
                "pitch": 60,
                "velocity": 80,
                "duration": 0.08409090909091077,
                "tempo": 120.0
            },
            {
                "start_time": 41.584090909090904,
                "end_time": 41.63409090909091,
                "pitch": 72,
                "velocity": 80,
                "duration": 0.05000000000000426,
                "tempo": 120.0
            },
            {
                "start_time": 41.684090909090905,
                "end_time": 41.73409090909091,
                "pitch": 72,
                "velocity": 80,
                "duration": 0.05000000000000426,
                "tempo": 120.0
            },
            {
                "start_time": 41.78409090909091,
                "end_time": 41.86818181818182,
                "pitch": 62,
                "velocity": 80,
                "duration": 0.08409090909091077,
                "tempo": 120.0
            },
            {
                "start_time": 41.986363636363635,
                "end_time": 42.03636363636363,
                "pitch": 74,
                "velocity": 80,
                "duration": 0.04999999999999716,
                "tempo": 120.0
            },
            {
                "start_time": 42.086363636363636,
                "end_time": 42.13636363636363,
                "pitch": 74,
                "velocity": 80,
                "duration": 0.04999999999999716,
                "tempo": 120.0
            },
            {
                "start_time": 42.18636363636364,
                "end_time": 42.28636363636363,
                "pitch": 61,
                "velocity": 80,
                "duration": 0.09999999999999432,
                "tempo": 120.0
            },
            {
                "start_time": 42.38636363636363,
                "end_time": 42.43636363636364,
                "pitch": 73,
                "velocity": 80,
                "duration": 0.05000000000000426,
                "tempo": 120.0
            },
            {
                "start_time": 42.486363636363635,
                "end_time": 42.53636363636363,
                "pitch": 73,
                "velocity": 80,
                "duration": 0.04999999999999716,
                "tempo": 120.0
            },
            {
                "start_time": 42.586363636363636,
                "end_time": 42.63636363636363,
                "pitch": 60,
                "velocity": 80,
                "duration": 0.04999999999999716,
                "tempo": 120.0
            },
            {
                "start_time": 42.684090909090905,
                "end_time": 42.73409090909091,
                "pitch": 60,
                "velocity": 80,
                "duration": 0.05000000000000426,
                "tempo": 120.0
            },
            {
                "start_time": 42.78409090909091,
                "end_time": 42.83181818181818,
                "pitch": 60,
                "velocity": 80,
                "duration": 0.04772727272727195,
                "tempo": 120.0
            },
            {
                "start_time": 42.88181818181818,
                "end_time": 42.929545454545455,
                "pitch": 60,
                "velocity": 80,
                "duration": 0.04772727272727195,
                "tempo": 120.0
            },
            {
                "start_time": 42.97954545454545,
                "end_time": 43.06590909090909,
                "pitch": 58,
                "velocity": 80,
                "duration": 0.08636363636363598,
                "tempo": 120.0
            },
            {
                "start_time": 43.184090909090905,
                "end_time": 43.236363636363635,
                "pitch": 70,
                "velocity": 80,
                "duration": 0.05227272727272947,
                "tempo": 120.0
            },
            {
                "start_time": 43.288636363636364,
                "end_time": 43.33863636363636,
                "pitch": 70,
                "velocity": 80,
                "duration": 0.04999999999999716,
                "tempo": 120.0
            },
            {
                "start_time": 43.39090909090909,
                "end_time": 43.47272727272727,
                "pitch": 55,
                "velocity": 80,
                "duration": 0.08181818181817846,
                "tempo": 120.0
            },
            {
                "start_time": 43.590909090909086,
                "end_time": 43.64090909090909,
                "pitch": 67,
                "velocity": 80,
                "duration": 0.05000000000000426,
                "tempo": 120.0
            },
            {
                "start_time": 43.69090909090909,
                "end_time": 43.74090909090909,
                "pitch": 67,
                "velocity": 80,
                "duration": 0.05000000000000426,
                "tempo": 120.0
            },
            {
                "start_time": 43.79090909090909,
                "end_time": 43.875,
                "pitch": 57,
                "velocity": 80,
                "duration": 0.08409090909091077,
                "tempo": 120.0
            },
            {
                "start_time": 43.99090909090909,
                "end_time": 44.04090909090909,
                "pitch": 69,
                "velocity": 80,
                "duration": 0.04999999999999716,
                "tempo": 120.0
            },
            {
                "start_time": 44.09318181818182,
                "end_time": 44.143181818181816,
                "pitch": 69,
                "velocity": 80,
                "duration": 0.04999999999999716,
                "tempo": 120.0
            },
            {
                "start_time": 44.19318181818181,
                "end_time": 44.277272727272724,
                "pitch": 58,
                "velocity": 80,
                "duration": 0.08409090909091077,
                "tempo": 120.0
            },
            {
                "start_time": 44.393181818181816,
                "end_time": 44.44318181818181,
                "pitch": 70,
                "velocity": 80,
                "duration": 0.04999999999999716,
                "tempo": 120.0
            },
            {
                "start_time": 44.49318181818182,
                "end_time": 44.543181818181814,
                "pitch": 70,
                "velocity": 80,
                "duration": 0.04999999999999716,
                "tempo": 120.0
            },
            {
                "start_time": 44.59318181818182,
                "end_time": 44.67727272727272,
                "pitch": 60,
                "velocity": 80,
                "duration": 0.08409090909090366,
                "tempo": 120.0
            },
            {
                "start_time": 44.793181818181814,
                "end_time": 44.84318181818182,
                "pitch": 72,
                "velocity": 80,
                "duration": 0.05000000000000426,
                "tempo": 120.0
            },
            {
                "start_time": 44.893181818181816,
                "end_time": 44.94318181818181,
                "pitch": 72,
                "velocity": 80,
                "duration": 0.04999999999999716,
                "tempo": 120.0
            },
            {
                "start_time": 44.99318181818182,
                "end_time": 45.07727272727273,
                "pitch": 60,
                "velocity": 80,
                "duration": 0.08409090909091077,
                "tempo": 120.0
            },
            {
                "start_time": 45.19318181818181,
                "end_time": 45.24318181818182,
                "pitch": 72,
                "velocity": 80,
                "duration": 0.05000000000000426,
                "tempo": 120.0
            },
            {
                "start_time": 45.293181818181814,
                "end_time": 45.34318181818182,
                "pitch": 72,
                "velocity": 80,
                "duration": 0.05000000000000426,
                "tempo": 120.0
            },
            {
                "start_time": 45.393181818181816,
                "end_time": 45.47727272727273,
                "pitch": 60,
                "velocity": 80,
                "duration": 0.08409090909091077,
                "tempo": 120.0
            },
            {
                "start_time": 45.59318181818182,
                "end_time": 45.643181818181816,
                "pitch": 72,
                "velocity": 80,
                "duration": 0.04999999999999716,
                "tempo": 120.0
            },
            {
                "start_time": 45.69318181818181,
                "end_time": 45.74318181818182,
                "pitch": 72,
                "velocity": 80,
                "duration": 0.05000000000000426,
                "tempo": 120.0
            },
            {
                "start_time": 45.793181818181814,
                "end_time": 45.84318181818182,
                "pitch": 60,
                "velocity": 80,
                "duration": 0.05000000000000426,
                "tempo": 120.0
            },
            {
                "start_time": 45.893181818181816,
                "end_time": 45.94318181818181,
                "pitch": 60,
                "velocity": 80,
                "duration": 0.04999999999999716,
                "tempo": 120.0
            },
            {
                "start_time": 45.99545454545454,
                "end_time": 46.04545454545455,
                "pitch": 60,
                "velocity": 80,
                "duration": 0.05000000000000426,
                "tempo": 120.0
            },
            {
                "start_time": 46.095454545454544,
                "end_time": 46.14545454545454,
                "pitch": 60,
                "velocity": 80,
                "duration": 0.04999999999999716,
                "tempo": 120.0
            },
            {
                "start_time": 46.195454545454545,
                "end_time": 46.27954545454545,
                "pitch": 72,
                "velocity": 80,
                "duration": 0.08409090909090366,
                "tempo": 120.0
            },
            {
                "start_time": 46.39545454545454,
                "end_time": 46.445454545454545,
                "pitch": 60,
                "velocity": 80,
                "duration": 0.05000000000000426,
                "tempo": 120.0
            },
            {
                "start_time": 46.49545454545454,
                "end_time": 46.54545454545455,
                "pitch": 60,
                "velocity": 80,
                "duration": 0.05000000000000426,
                "tempo": 120.0
            },
            {
                "start_time": 46.595454545454544,
                "end_time": 46.679545454545455,
                "pitch": 62,
                "velocity": 80,
                "duration": 0.08409090909091077,
                "tempo": 120.0
            },
            {
                "start_time": 46.79545454545454,
                "end_time": 46.845454545454544,
                "pitch": 74,
                "velocity": 80,
                "duration": 0.05000000000000426,
                "tempo": 120.0
            },
            {
                "start_time": 46.89545454545454,
                "end_time": 46.945454545454545,
                "pitch": 74,
                "velocity": 80,
                "duration": 0.05000000000000426,
                "tempo": 120.0
            },
            {
                "start_time": 46.99545454545454,
                "end_time": 47.07954545454545,
                "pitch": 62,
                "velocity": 80,
                "duration": 0.08409090909091077,
                "tempo": 120.0
            },
            {
                "start_time": 47.195454545454545,
                "end_time": 47.24545454545454,
                "pitch": 74,
                "velocity": 80,
                "duration": 0.04999999999999716,
                "tempo": 120.0
            },
            {
                "start_time": 47.29545454545454,
                "end_time": 47.345454545454544,
                "pitch": 74,
                "velocity": 80,
                "duration": 0.05000000000000426,
                "tempo": 120.0
            },
            {
                "start_time": 47.39545454545454,
                "end_time": 47.445454545454545,
                "pitch": 62,
                "velocity": 80,
                "duration": 0.05000000000000426,
                "tempo": 120.0
            },
            {
                "start_time": 47.49545454545454,
                "end_time": 47.54545454545454,
                "pitch": 62,
                "velocity": 80,
                "duration": 0.04999999999999716,
                "tempo": 120.0
            },
            {
                "start_time": 47.595454545454544,
                "end_time": 47.64545454545454,
                "pitch": 62,
                "velocity": 80,
                "duration": 0.04999999999999716,
                "tempo": 120.0
            },
            {
                "start_time": 47.695454545454545,
                "end_time": 47.74545454545454,
                "pitch": 62,
                "velocity": 80,
                "duration": 0.04999999999999716,
                "tempo": 120.0
            },
            {
                "start_time": 47.79545454545454,
                "end_time": 47.87954545454545,
                "pitch": 74,
                "velocity": 80,
                "duration": 0.08409090909091077,
                "tempo": 120.0
            },
            {
                "start_time": 47.99772727272727,
                "end_time": 48.04772727272727,
                "pitch": 62,
                "velocity": 80,
                "duration": 0.05000000000000426,
                "tempo": 120.0
            },
            {
                "start_time": 48.09772727272727,
                "end_time": 48.14772727272727,
                "pitch": 62,
                "velocity": 80,
                "duration": 0.05000000000000426,
                "tempo": 120.0
            },
            {
                "start_time": 48.19772727272727,
                "end_time": 48.28181818181818,
                "pitch": 63,
                "velocity": 80,
                "duration": 0.08409090909091077,
                "tempo": 120.0
            },
            {
                "start_time": 48.39772727272727,
                "end_time": 48.44772727272727,
                "pitch": 75,
                "velocity": 80,
                "duration": 0.04999999999999716,
                "tempo": 120.0
            },
            {
                "start_time": 48.49772727272727,
                "end_time": 48.54772727272727,
                "pitch": 75,
                "velocity": 80,
                "duration": 0.05000000000000426,
                "tempo": 120.0
            },
            {
                "start_time": 48.59772727272727,
                "end_time": 48.69772727272727,
                "pitch": 63,
                "velocity": 80,
                "duration": 0.10000000000000142,
                "tempo": 120.0
            },
            {
                "start_time": 48.79772727272727,
                "end_time": 48.84772727272727,
                "pitch": 75,
                "velocity": 80,
                "duration": 0.04999999999999716,
                "tempo": 120.0
            },
            {
                "start_time": 48.89772727272727,
                "end_time": 48.94772727272727,
                "pitch": 75,
                "velocity": 80,
                "duration": 0.04999999999999716,
                "tempo": 120.0
            },
            {
                "start_time": 48.99772727272727,
                "end_time": 49.09772727272727,
                "pitch": 63,
                "velocity": 80,
                "duration": 0.10000000000000142,
                "tempo": 120.0
            },
            {
                "start_time": 49.19772727272727,
                "end_time": 49.29772727272727,
                "pitch": 75,
                "velocity": 80,
                "duration": 0.10000000000000142,
                "tempo": 120.0
            },
            {
                "start_time": 49.39772727272727,
                "end_time": 49.49772727272727,
                "pitch": 63,
                "velocity": 80,
                "duration": 0.09999999999999432,
                "tempo": 120.0
            },
            {
                "start_time": 49.59772727272727,
                "end_time": 49.64772727272727,
                "pitch": 62,
                "velocity": 80,
                "duration": 0.05000000000000426,
                "tempo": 120.0
            },
            {
                "start_time": 49.69772727272727,
                "end_time": 49.74772727272727,
                "pitch": 63,
                "velocity": 80,
                "duration": 0.04999999999999716,
                "tempo": 120.0
            },
            {
                "start_time": 49.79772727272727,
                "end_time": 49.84772727272727,
                "pitch": 62,
                "velocity": 80,
                "duration": 0.04999999999999716,
                "tempo": 120.0
            },
            {
                "start_time": 49.9,
                "end_time": 49.949999999999996,
                "pitch": 62,
                "velocity": 80,
                "duration": 0.04999999999999716,
                "tempo": 120.0
            },
            {
                "start_time": 50.0,
                "end_time": 50.05,
                "pitch": 62,
                "velocity": 80,
                "duration": 0.04999999999999716,
                "tempo": 120.0
            },
            {
                "start_time": 50.099999999999994,
                "end_time": 50.15,
                "pitch": 62,
                "velocity": 80,
                "duration": 0.05000000000000426,
                "tempo": 120.0
            },
            {
                "start_time": 50.199999999999996,
                "end_time": 50.25,
                "pitch": 62,
                "velocity": 80,
                "duration": 0.05000000000000426,
                "tempo": 120.0
            },
            {
                "start_time": 50.4,
                "end_time": 50.449999999999996,
                "pitch": 62,
                "velocity": 80,
                "duration": 0.04999999999999716,
                "tempo": 120.0
            },
            {
                "start_time": 50.5,
                "end_time": 50.55,
                "pitch": 62,
                "velocity": 80,
                "duration": 0.04999999999999716,
                "tempo": 120.0
            },
            {
                "start_time": 50.599999999999994,
                "end_time": 50.699999999999996,
                "pitch": 62,
                "velocity": 80,
                "duration": 0.10000000000000142,
                "tempo": 120.0
            },
            {
                "start_time": 50.8,
                "end_time": 50.9,
                "pitch": 60,
                "velocity": 80,
                "duration": 0.10000000000000142,
                "tempo": 120.0
            },
            {
                "start_time": 51.0,
                "end_time": 51.099999999999994,
                "pitch": 58,
                "velocity": 80,
                "duration": 0.09999999999999432,
                "tempo": 120.0
            },
            {
                "start_time": 51.199999999999996,
                "end_time": 51.3,
                "pitch": 57,
                "velocity": 80,
                "duration": 0.10000000000000142,
                "tempo": 120.0
            }
        ],
        "Clarinet": [
            {
                "start_time": 0.22954545454545452,
                "end_time": 0.4295454545454545,
                "pitch": 79,
                "velocity": 51,
                "duration": 0.19999999999999998,
                "tempo": 120.0
            },
            {
                "start_time": 0.4295454545454545,
                "end_time": 0.6454545454545454,
                "pitch": 79,
                "velocity": 51,
                "duration": 0.21590909090909088,
                "tempo": 120.0
            },
            {
                "start_time": 0.6454545454545454,
                "end_time": 0.8613636363636363,
                "pitch": 81,
                "velocity": 51,
                "duration": 0.21590909090909094,
                "tempo": 120.0
            },
            {
                "start_time": 0.8613636363636363,
                "end_time": 1.2613636363636362,
                "pitch": 84,
                "velocity": 51,
                "duration": 0.3999999999999999,
                "tempo": 120.0
            },
            {
                "start_time": 1.2613636363636362,
                "end_time": 1.4613636363636362,
                "pitch": 87,
                "velocity": 51,
                "duration": 0.19999999999999996,
                "tempo": 120.0
            },
            {
                "start_time": 1.4613636363636362,
                "end_time": 1.6613636363636364,
                "pitch": 84,
                "velocity": 51,
                "duration": 0.20000000000000018,
                "tempo": 120.0
            },
            {
                "start_time": 1.6613636363636364,
                "end_time": 1.8613636363636363,
                "pitch": 89,
                "velocity": 51,
                "duration": 0.19999999999999996,
                "tempo": 120.0
            },
            {
                "start_time": 1.8613636363636363,
                "end_time": 2.2613636363636362,
                "pitch": 86,
                "velocity": 51,
                "duration": 0.3999999999999999,
                "tempo": 120.0
            },
            {
                "start_time": 2.2613636363636362,
                "end_time": 2.3613636363636363,
                "pitch": 82,
                "velocity": 51,
                "duration": 0.10000000000000009,
                "tempo": 120.0
            },
            {
                "start_time": 2.3613636363636363,
                "end_time": 2.4613636363636364,
                "pitch": 84,
                "velocity": 51,
                "duration": 0.10000000000000009,
                "tempo": 120.0
            },
            {
                "start_time": 2.4613636363636364,
                "end_time": 2.5954545454545452,
                "pitch": 84,
                "velocity": 51,
                "duration": 0.13409090909090882,
                "tempo": 120.0
            },
            {
                "start_time": 2.5954545454545452,
                "end_time": 2.6636363636363636,
                "pitch": 86,
                "velocity": 51,
                "duration": 0.06818181818181834,
                "tempo": 120.0
            },
            {
                "start_time": 2.6636363636363636,
                "end_time": 2.8636363636363633,
                "pitch": 98,
                "velocity": 51,
                "duration": 0.19999999999999973,
                "tempo": 120.0
            },
            {
                "start_time": 2.8636363636363633,
                "end_time": 3.0636363636363635,
                "pitch": 86,
                "velocity": 51,
                "duration": 0.20000000000000018,
                "tempo": 120.0
            },
            {
                "start_time": 3.0636363636363635,
                "end_time": 3.2636363636363637,
                "pitch": 98,
                "velocity": 51,
                "duration": 0.20000000000000018,
                "tempo": 120.0
            },
            {
                "start_time": 3.2636363636363637,
                "end_time": 3.4636363636363634,
                "pitch": 82,
                "velocity": 51,
                "duration": 0.19999999999999973,
                "tempo": 120.0
            },
            {
                "start_time": 3.4636363636363634,
                "end_time": 3.6636363636363636,
                "pitch": 79,
                "velocity": 51,
                "duration": 0.20000000000000018,
                "tempo": 120.0
            },
            {
                "start_time": 3.6636363636363636,
                "end_time": 3.8636363636363633,
                "pitch": 79,
                "velocity": 51,
                "duration": 0.19999999999999973,
                "tempo": 120.0
            },
            {
                "start_time": 3.8636363636363633,
                "end_time": 4.0636363636363635,
                "pitch": 81,
                "velocity": 51,
                "duration": 0.20000000000000018,
                "tempo": 120.0
            },
            {
                "start_time": 4.0636363636363635,
                "end_time": 4.465909090909091,
                "pitch": 84,
                "velocity": 51,
                "duration": 0.40227272727272734,
                "tempo": 120.0
            },
            {
                "start_time": 4.465909090909091,
                "end_time": 4.665909090909091,
                "pitch": 87,
                "velocity": 51,
                "duration": 0.20000000000000018,
                "tempo": 120.0
            },
            {
                "start_time": 4.665909090909091,
                "end_time": 4.86590909090909,
                "pitch": 84,
                "velocity": 51,
                "duration": 0.1999999999999993,
                "tempo": 120.0
            },
            {
                "start_time": 4.86590909090909,
                "end_time": 5.068181818181818,
                "pitch": 89,
                "velocity": 51,
                "duration": 0.20227272727272805,
                "tempo": 120.0
            },
            {
                "start_time": 5.068181818181818,
                "end_time": 5.470454545454545,
                "pitch": 86,
                "velocity": 51,
                "duration": 0.40227272727272645,
                "tempo": 120.0
            },
            {
                "start_time": 5.470454545454545,
                "end_time": 5.572727272727272,
                "pitch": 82,
                "velocity": 51,
                "duration": 0.10227272727272751,
                "tempo": 120.0
            },
            {
                "start_time": 5.572727272727272,
                "end_time": 5.672727272727273,
                "pitch": 84,
                "velocity": 51,
                "duration": 0.10000000000000053,
                "tempo": 120.0
            },
            {
                "start_time": 5.672727272727273,
                "end_time": 5.804545454545455,
                "pitch": 84,
                "velocity": 51,
                "duration": 0.13181818181818183,
                "tempo": 120.0
            },
            {
                "start_time": 5.804545454545455,
                "end_time": 5.872727272727272,
                "pitch": 86,
                "velocity": 51,
                "duration": 0.06818181818181746,
                "tempo": 120.0
            },
            {
                "start_time": 5.872727272727272,
                "end_time": 6.072727272727272,
                "pitch": 98,
                "velocity": 51,
                "duration": 0.20000000000000018,
                "tempo": 120.0
            },
            {
                "start_time": 6.072727272727272,
                "end_time": 6.2727272727272725,
                "pitch": 86,
                "velocity": 51,
                "duration": 0.20000000000000018,
                "tempo": 120.0
            },
            {
                "start_time": 6.2727272727272725,
                "end_time": 6.475,
                "pitch": 98,
                "velocity": 51,
                "duration": 0.20227272727272716,
                "tempo": 120.0
            },
            {
                "start_time": 6.475,
                "end_time": 6.675,
                "pitch": 79,
                "velocity": 51,
                "duration": 0.20000000000000018,
                "tempo": 120.0
            },
            {
                "start_time": 6.675,
                "end_time": 6.875,
                "pitch": 82,
                "velocity": 51,
                "duration": 0.20000000000000018,
                "tempo": 120.0
            },
            {
                "start_time": 6.875,
                "end_time": 7.077272727272727,
                "pitch": 87,
                "velocity": 51,
                "duration": 0.20227272727272716,
                "tempo": 120.0
            },
            {
                "start_time": 7.077272727272727,
                "end_time": 7.4795454545454545,
                "pitch": 88,
                "velocity": 51,
                "duration": 0.40227272727272734,
                "tempo": 120.0
            },
            {
                "start_time": 7.4795454545454545,
                "end_time": 7.679545454545454,
                "pitch": 79,
                "velocity": 51,
                "duration": 0.1999999999999993,
                "tempo": 120.0
            },
            {
                "start_time": 7.679545454545454,
                "end_time": 7.879545454545454,
                "pitch": 82,
                "velocity": 51,
                "duration": 0.20000000000000018,
                "tempo": 120.0
            },
            {
                "start_time": 7.879545454545454,
                "end_time": 8.681818181818182,
                "pitch": 84,
                "velocity": 51,
                "duration": 0.8022727272727277,
                "tempo": 120.0
            },
            {
                "start_time": 8.681818181818182,
                "end_time": 9.084090909090909,
                "pitch": 79,
                "velocity": 51,
                "duration": 0.40227272727272734,
                "tempo": 120.0
            },
            {
                "start_time": 9.084090909090909,
                "end_time": 9.486363636363636,
                "pitch": 79,
                "velocity": 51,
                "duration": 0.40227272727272734,
                "tempo": 120.0
            },
            {
                "start_time": 9.486363636363636,
                "end_time": 9.688636363636363,
                "pitch": 77,
                "velocity": 51,
                "duration": 0.20227272727272627,
                "tempo": 120.0
            },
            {
                "start_time": 9.888636363636364,
                "end_time": 10.09090909090909,
                "pitch": 82,
                "velocity": 51,
                "duration": 0.20227272727272627,
                "tempo": 120.0
            },
            {
                "start_time": 10.09090909090909,
                "end_time": 10.290909090909091,
                "pitch": 79,
                "velocity": 51,
                "duration": 0.20000000000000107,
                "tempo": 120.0
            },
            {
                "start_time": 10.290909090909091,
                "end_time": 10.49090909090909,
                "pitch": 82,
                "velocity": 51,
                "duration": 0.1999999999999993,
                "tempo": 120.0
            },
            {
                "start_time": 10.49090909090909,
                "end_time": 10.693181818181818,
                "pitch": 77,
                "velocity": 51,
                "duration": 0.20227272727272805,
                "tempo": 120.0
            },
            {
                "start_time": 10.693181818181818,
                "end_time": 10.893181818181818,
                "pitch": 82,
                "velocity": 51,
                "duration": 0.1999999999999993,
                "tempo": 120.0
            },
            {
                "start_time": 10.893181818181818,
                "end_time": 11.095454545454546,
                "pitch": 75,
                "velocity": 51,
                "duration": 0.20227272727272805,
                "tempo": 120.0
            },
            {
                "start_time": 11.095454545454546,
                "end_time": 11.295454545454545,
                "pitch": 82,
                "velocity": 51,
                "duration": 0.1999999999999993,
                "tempo": 120.0
            },
            {
                "start_time": 11.295454545454545,
                "end_time": 12.102272727272727,
                "pitch": 79,
                "velocity": 51,
                "duration": 0.8068181818181817,
                "tempo": 120.0
            },
            {
                "start_time": 12.102272727272727,
                "end_time": 12.302272727272726,
                "pitch": 55,
                "velocity": 51,
                "duration": 0.1999999999999993,
                "tempo": 120.0
            },
            {
                "start_time": 12.302272727272726,
                "end_time": 12.502272727272727,
                "pitch": 67,
                "velocity": 51,
                "duration": 0.20000000000000107,
                "tempo": 120.0
            },
            {
                "start_time": 12.502272727272727,
                "end_time": 12.702272727272726,
                "pitch": 55,
                "velocity": 51,
                "duration": 0.1999999999999993,
                "tempo": 120.0
            },
            {
                "start_time": 12.702272727272726,
                "end_time": 12.904545454545454,
                "pitch": 67,
                "velocity": 51,
                "duration": 0.20227272727272805,
                "tempo": 120.0
            },
            {
                "start_time": 12.904545454545454,
                "end_time": 13.10681818181818,
                "pitch": 79,
                "velocity": 51,
                "duration": 0.20227272727272627,
                "tempo": 120.0
            },
            {
                "start_time": 13.10681818181818,
                "end_time": 13.306818181818182,
                "pitch": 82,
                "velocity": 51,
                "duration": 0.20000000000000107,
                "tempo": 120.0
            },
            {
                "start_time": 13.306818181818182,
                "end_time": 13.509090909090908,
                "pitch": 87,
                "velocity": 51,
                "duration": 0.20227272727272627,
                "tempo": 120.0
            },
            {
                "start_time": 13.509090909090908,
                "end_time": 13.911363636363635,
                "pitch": 88,
                "velocity": 51,
                "duration": 0.40227272727272734,
                "tempo": 120.0
            },
            {
                "start_time": 13.911363636363635,
                "end_time": 14.113636363636363,
                "pitch": 79,
                "velocity": 51,
                "duration": 0.20227272727272805,
                "tempo": 120.0
            },
            {
                "start_time": 14.113636363636363,
                "end_time": 14.313636363636363,
                "pitch": 82,
                "velocity": 51,
                "duration": 0.1999999999999993,
                "tempo": 120.0
            },
            {
                "start_time": 14.313636363636363,
                "end_time": 15.11590909090909,
                "pitch": 84,
                "velocity": 51,
                "duration": 0.8022727272727277,
                "tempo": 120.0
            },
            {
                "start_time": 15.11590909090909,
                "end_time": 15.518181818181818,
                "pitch": 79,
                "velocity": 51,
                "duration": 0.40227272727272734,
                "tempo": 120.0
            },
            {
                "start_time": 15.518181818181818,
                "end_time": 15.922727272727272,
                "pitch": 79,
                "velocity": 51,
                "duration": 0.4045454545454543,
                "tempo": 120.0
            },
            {
                "start_time": 15.922727272727272,
                "end_time": 16.12272727272727,
                "pitch": 77,
                "velocity": 51,
                "duration": 0.1999999999999993,
                "tempo": 120.0
            },
            {
                "start_time": 16.325,
                "end_time": 16.525,
                "pitch": 82,
                "velocity": 51,
                "duration": 0.1999999999999993,
                "tempo": 120.0
            },
            {
                "start_time": 16.525,
                "end_time": 16.724999999999998,
                "pitch": 79,
                "velocity": 51,
                "duration": 0.1999999999999993,
                "tempo": 120.0
            },
            {
                "start_time": 16.724999999999998,
                "end_time": 16.925,
                "pitch": 82,
                "velocity": 51,
                "duration": 0.20000000000000284,
                "tempo": 120.0
            },
            {
                "start_time": 16.925,
                "end_time": 17.125,
                "pitch": 77,
                "velocity": 51,
                "duration": 0.1999999999999993,
                "tempo": 120.0
            },
            {
                "start_time": 17.125,
                "end_time": 17.325,
                "pitch": 82,
                "velocity": 51,
                "duration": 0.1999999999999993,
                "tempo": 120.0
            },
            {
                "start_time": 17.325,
                "end_time": 17.527272727272727,
                "pitch": 75,
                "velocity": 51,
                "duration": 0.20227272727272805,
                "tempo": 120.0
            },
            {
                "start_time": 17.527272727272727,
                "end_time": 17.727272727272727,
                "pitch": 82,
                "velocity": 51,
                "duration": 0.1999999999999993,
                "tempo": 120.0
            },
            {
                "start_time": 17.727272727272727,
                "end_time": 18.53181818181818,
                "pitch": 79,
                "velocity": 51,
                "duration": 0.8045454545454547,
                "tempo": 120.0
            },
            {
                "start_time": 18.73181818181818,
                "end_time": 18.93181818181818,
                "pitch": 79,
                "velocity": 51,
                "duration": 0.1999999999999993,
                "tempo": 120.0
            },
            {
                "start_time": 18.93181818181818,
                "end_time": 19.13181818181818,
                "pitch": 77,
                "velocity": 51,
                "duration": 0.1999999999999993,
                "tempo": 120.0
            },
            {
                "start_time": 19.13181818181818,
                "end_time": 19.331818181818182,
                "pitch": 74,
                "velocity": 51,
                "duration": 0.20000000000000284,
                "tempo": 120.0
            },
            {
                "start_time": 19.53181818181818,
                "end_time": 19.73409090909091,
                "pitch": 79,
                "velocity": 51,
                "duration": 0.20227272727272805,
                "tempo": 120.0
            },
            {
                "start_time": 19.73409090909091,
                "end_time": 19.93409090909091,
                "pitch": 85,
                "velocity": 51,
                "duration": 0.1999999999999993,
                "tempo": 120.0
            },
            {
                "start_time": 19.93409090909091,
                "end_time": 20.134090909090908,
                "pitch": 79,
                "velocity": 51,
                "duration": 0.1999999999999993,
                "tempo": 120.0
            },
            {
                "start_time": 20.134090909090908,
                "end_time": 20.336363636363636,
                "pitch": 82,
                "velocity": 51,
                "duration": 0.20227272727272805,
                "tempo": 120.0
            },
            {
                "start_time": 20.336363636363636,
                "end_time": 20.736363636363635,
                "pitch": 84,
                "velocity": 51,
                "duration": 0.3999999999999986,
                "tempo": 120.0
            },
            {
                "start_time": 20.736363636363635,
                "end_time": 20.870454545454546,
                "pitch": 84,
                "velocity": 51,
                "duration": 0.13409090909091148,
                "tempo": 120.0
            },
            {
                "start_time": 20.870454545454546,
                "end_time": 20.936363636363634,
                "pitch": 86,
                "velocity": 51,
                "duration": 0.06590909090908781,
                "tempo": 120.0
            },
            {
                "start_time": 20.936363636363634,
                "end_time": 21.136363636363637,
                "pitch": 84,
                "velocity": 51,
                "duration": 0.20000000000000284,
                "tempo": 120.0
            },
            {
                "start_time": 21.136363636363637,
                "end_time": 21.320454545454545,
                "pitch": 84,
                "velocity": 51,
                "duration": 0.18409090909090864,
                "tempo": 120.0
            },
            {
                "start_time": 21.320454545454545,
                "end_time": 21.336363636363636,
                "pitch": 86,
                "velocity": 51,
                "duration": 0.01590909090909065,
                "tempo": 120.0
            },
            {
                "start_time": 21.336363636363636,
                "end_time": 21.538636363636364,
                "pitch": 89,
                "velocity": 51,
                "duration": 0.20227272727272805,
                "tempo": 120.0
            },
            {
                "start_time": 21.538636363636364,
                "end_time": 21.938636363636363,
                "pitch": 86,
                "velocity": 51,
                "duration": 0.3999999999999986,
                "tempo": 120.0
            },
            {
                "start_time": 21.938636363636363,
                "end_time": 22.038636363636364,
                "pitch": 86,
                "velocity": 51,
                "duration": 0.10000000000000142,
                "tempo": 120.0
            },
            {
                "start_time": 22.038636363636364,
                "end_time": 22.138636363636362,
                "pitch": 86,
                "velocity": 51,
                "duration": 0.09999999999999787,
                "tempo": 120.0
            },
            {
                "start_time": 22.138636363636362,
                "end_time": 22.24090909090909,
                "pitch": 82,
                "velocity": 51,
                "duration": 0.10227272727272663,
                "tempo": 120.0
            },
            {
                "start_time": 22.24090909090909,
                "end_time": 22.34090909090909,
                "pitch": 84,
                "velocity": 51,
                "duration": 0.10000000000000142,
                "tempo": 120.0
            },
            {
                "start_time": 22.34090909090909,
                "end_time": 22.44090909090909,
                "pitch": 79,
                "velocity": 51,
                "duration": 0.10000000000000142,
                "tempo": 120.0
            },
            {
                "start_time": 22.44090909090909,
                "end_time": 22.543181818181818,
                "pitch": 82,
                "velocity": 51,
                "duration": 0.10227272727272663,
                "tempo": 120.0
            },
            {
                "start_time": 22.743181818181817,
                "end_time": 22.943181818181817,
                "pitch": 79,
                "velocity": 51,
                "duration": 0.1999999999999993,
                "tempo": 120.0
            },
            {
                "start_time": 22.943181818181817,
                "end_time": 23.143181818181816,
                "pitch": 82,
                "velocity": 51,
                "duration": 0.1999999999999993,
                "tempo": 120.0
            },
            {
                "start_time": 23.143181818181816,
                "end_time": 23.34318181818182,
                "pitch": 79,
                "velocity": 51,
                "duration": 0.20000000000000284,
                "tempo": 120.0
            },
            {
                "start_time": 23.34318181818182,
                "end_time": 23.543181818181818,
                "pitch": 79,
                "velocity": 51,
                "duration": 0.1999999999999993,
                "tempo": 120.0
            },
            {
                "start_time": 23.543181818181818,
                "end_time": 23.945454545454545,
                "pitch": 77,
                "velocity": 51,
                "duration": 0.40227272727272734,
                "tempo": 120.0
            },
            {
                "start_time": 23.945454545454545,
                "end_time": 24.145454545454545,
                "pitch": 84,
                "velocity": 51,
                "duration": 0.1999999999999993,
                "tempo": 120.0
            },
            {
                "start_time": 24.145454545454545,
                "end_time": 24.329545454545453,
                "pitch": 84,
                "velocity": 51,
                "duration": 0.18409090909090864,
                "tempo": 120.0
            },
            {
                "start_time": 24.329545454545453,
                "end_time": 24.74772727272727,
                "pitch": 86,
                "velocity": 51,
                "duration": 0.418181818181818,
                "tempo": 120.0
            },
            {
                "start_time": 24.74772727272727,
                "end_time": 24.847727272727273,
                "pitch": 84,
                "velocity": 51,
                "duration": 0.10000000000000142,
                "tempo": 120.0
            },
            {
                "start_time": 24.847727272727273,
                "end_time": 24.94772727272727,
                "pitch": 82,
                "velocity": 51,
                "duration": 0.09999999999999787,
                "tempo": 120.0
            },
            {
                "start_time": 24.94772727272727,
                "end_time": 25.347727272727273,
                "pitch": 79,
                "velocity": 51,
                "duration": 0.40000000000000213,
                "tempo": 120.0
            },
            {
                "start_time": 25.95,
                "end_time": 26.15,
                "pitch": 91,
                "velocity": 51,
                "duration": 0.1999999999999993,
                "tempo": 120.0
            },
            {
                "start_time": 26.15,
                "end_time": 26.552272727272726,
                "pitch": 91,
                "velocity": 51,
                "duration": 0.40227272727272734,
                "tempo": 120.0
            },
            {
                "start_time": 26.552272727272726,
                "end_time": 26.752272727272725,
                "pitch": 85,
                "velocity": 51,
                "duration": 0.1999999999999993,
                "tempo": 120.0
            },
            {
                "start_time": 26.752272727272725,
                "end_time": 26.952272727272724,
                "pitch": 85,
                "velocity": 51,
                "duration": 0.1999999999999993,
                "tempo": 120.0
            },
            {
                "start_time": 26.952272727272724,
                "end_time": 27.052272727272726,
                "pitch": 81,
                "velocity": 51,
                "duration": 0.10000000000000142,
                "tempo": 120.0
            },
            {
                "start_time": 27.052272727272726,
                "end_time": 27.15681818181818,
                "pitch": 81,
                "velocity": 51,
                "duration": 0.10454545454545539,
                "tempo": 120.0
            },
            {
                "start_time": 27.15681818181818,
                "end_time": 27.35681818181818,
                "pitch": 79,
                "velocity": 51,
                "duration": 0.1999999999999993,
                "tempo": 120.0
            },
            {
                "start_time": 27.35681818181818,
                "end_time": 27.536363636363635,
                "pitch": 86,
                "velocity": 51,
                "duration": 0.17954545454545467,
                "tempo": 120.0
            },
            {
                "start_time": 27.536363636363635,
                "end_time": 27.93409090909091,
                "pitch": 89,
                "velocity": 51,
                "duration": 0.3977272727272734,
                "tempo": 120.0
            },
            {
                "start_time": 27.93409090909091,
                "end_time": 27.952272727272724,
                "pitch": 89,
                "velocity": 51,
                "duration": 0.018181818181815856,
                "tempo": 120.0
            },
            {
                "start_time": 27.952272727272724,
                "end_time": 28.036363636363635,
                "pitch": 84,
                "velocity": 51,
                "duration": 0.08409090909091077,
                "tempo": 120.0
            },
            {
                "start_time": 28.036363636363635,
                "end_time": 28.15,
                "pitch": 82,
                "velocity": 51,
                "duration": 0.11363636363636331,
                "tempo": 120.0
            },
            {
                "start_time": 28.15,
                "end_time": 28.561363636363634,
                "pitch": 84,
                "velocity": 51,
                "duration": 0.41136363636363527,
                "tempo": 120.0
            },
            {
                "start_time": 28.561363636363634,
                "end_time": 28.695454545454545,
                "pitch": 84,
                "velocity": 51,
                "duration": 0.13409090909091148,
                "tempo": 120.0
            },
            {
                "start_time": 28.695454545454545,
                "end_time": 28.761363636363637,
                "pitch": 86,
                "velocity": 51,
                "duration": 0.06590909090909136,
                "tempo": 120.0
            },
            {
                "start_time": 28.761363636363637,
                "end_time": 28.861363636363635,
                "pitch": 82,
                "velocity": 51,
                "duration": 0.09999999999999787,
                "tempo": 120.0
            },
            {
                "start_time": 28.861363636363635,
                "end_time": 28.961363636363636,
                "pitch": 79,
                "velocity": 51,
                "duration": 0.10000000000000142,
                "tempo": 120.0
            },
            {
                "start_time": 28.961363636363636,
                "end_time": 29.161363636363635,
                "pitch": 82,
                "velocity": 51,
                "duration": 0.1999999999999993,
                "tempo": 120.0
            },
            {
                "start_time": 29.161363636363635,
                "end_time": 29.361363636363635,
                "pitch": 79,
                "velocity": 51,
                "duration": 0.1999999999999993,
                "tempo": 120.0
            },
            {
                "start_time": 29.361363636363635,
                "end_time": 29.563636363636363,
                "pitch": 79,
                "velocity": 51,
                "duration": 0.20227272727272805,
                "tempo": 120.0
            },
            {
                "start_time": 29.563636363636363,
                "end_time": 29.763636363636362,
                "pitch": 81,
                "velocity": 51,
                "duration": 0.1999999999999993,
                "tempo": 120.0
            },
            {
                "start_time": 29.763636363636362,
                "end_time": 30.16363636363636,
                "pitch": 84,
                "velocity": 51,
                "duration": 0.3999999999999986,
                "tempo": 120.0
            },
            {
                "start_time": 30.16363636363636,
                "end_time": 30.36590909090909,
                "pitch": 87,
                "velocity": 51,
                "duration": 0.20227272727272805,
                "tempo": 120.0
            },
            {
                "start_time": 30.36590909090909,
                "end_time": 30.565909090909088,
                "pitch": 84,
                "velocity": 51,
                "duration": 0.1999999999999993,
                "tempo": 120.0
            },
            {
                "start_time": 30.565909090909088,
                "end_time": 30.76590909090909,
                "pitch": 89,
                "velocity": 51,
                "duration": 0.20000000000000284,
                "tempo": 120.0
            },
            {
                "start_time": 30.76590909090909,
                "end_time": 31.16590909090909,
                "pitch": 86,
                "velocity": 51,
                "duration": 0.3999999999999986,
                "tempo": 120.0
            },
            {
                "start_time": 31.16590909090909,
                "end_time": 31.26590909090909,
                "pitch": 82,
                "velocity": 51,
                "duration": 0.10000000000000142,
                "tempo": 120.0
            },
            {
                "start_time": 31.26590909090909,
                "end_time": 31.36590909090909,
                "pitch": 84,
                "velocity": 51,
                "duration": 0.09999999999999787,
                "tempo": 120.0
            },
            {
                "start_time": 31.36590909090909,
                "end_time": 31.5,
                "pitch": 84,
                "velocity": 51,
                "duration": 0.13409090909091148,
                "tempo": 120.0
            },
            {
                "start_time": 31.5,
                "end_time": 31.568181818181817,
                "pitch": 86,
                "velocity": 51,
                "duration": 0.06818181818181657,
                "tempo": 120.0
            },
            {
                "start_time": 31.568181818181817,
                "end_time": 31.770454545454545,
                "pitch": 98,
                "velocity": 51,
                "duration": 0.20227272727272805,
                "tempo": 120.0
            },
            {
                "start_time": 31.770454545454545,
                "end_time": 31.970454545454544,
                "pitch": 86,
                "velocity": 51,
                "duration": 0.1999999999999993,
                "tempo": 120.0
            },
            {
                "start_time": 31.970454545454544,
                "end_time": 32.17045454545455,
                "pitch": 98,
                "velocity": 51,
                "duration": 0.20000000000000284,
                "tempo": 120.0
            },
            {
                "start_time": 32.17045454545455,
                "end_time": 32.37045454545454,
                "pitch": 79,
                "velocity": 51,
                "duration": 0.19999999999999574,
                "tempo": 120.0
            },
            {
                "start_time": 32.37045454545454,
                "end_time": 32.57272727272727,
                "pitch": 82,
                "velocity": 51,
                "duration": 0.20227272727272805,
                "tempo": 120.0
            },
            {
                "start_time": 32.57272727272727,
                "end_time": 32.77272727272727,
                "pitch": 87,
                "velocity": 51,
                "duration": 0.20000000000000284,
                "tempo": 120.0
            },
            {
                "start_time": 32.77272727272727,
                "end_time": 33.17272727272727,
                "pitch": 88,
                "velocity": 51,
                "duration": 0.3999999999999986,
                "tempo": 120.0
            },
            {
                "start_time": 33.17272727272727,
                "end_time": 33.37272727272727,
                "pitch": 79,
                "velocity": 51,
                "duration": 0.19999999999999574,
                "tempo": 120.0
            },
            {
                "start_time": 33.37272727272727,
                "end_time": 33.57272727272727,
                "pitch": 82,
                "velocity": 51,
                "duration": 0.20000000000000284,
                "tempo": 120.0
            },
            {
                "start_time": 33.57272727272727,
                "end_time": 34.375,
                "pitch": 84,
                "velocity": 51,
                "duration": 0.8022727272727295,
                "tempo": 120.0
            },
            {
                "start_time": 34.375,
                "end_time": 34.775,
                "pitch": 79,
                "velocity": 51,
                "duration": 0.3999999999999986,
                "tempo": 120.0
            },
            {
                "start_time": 34.775,
                "end_time": 35.175,
                "pitch": 79,
                "velocity": 51,
                "duration": 0.3999999999999986,
                "tempo": 120.0
            },
            {
                "start_time": 35.175,
                "end_time": 35.375,
                "pitch": 77,
                "velocity": 51,
                "duration": 0.20000000000000284,
                "tempo": 120.0
            },
            {
                "start_time": 35.574999999999996,
                "end_time": 35.775,
                "pitch": 82,
                "velocity": 51,
                "duration": 0.20000000000000284,
                "tempo": 120.0
            },
            {
                "start_time": 35.775,
                "end_time": 35.975,
                "pitch": 79,
                "velocity": 51,
                "duration": 0.20000000000000284,
                "tempo": 120.0
            },
            {
                "start_time": 35.975,
                "end_time": 36.17727272727272,
                "pitch": 82,
                "velocity": 51,
                "duration": 0.20227272727272094,
                "tempo": 120.0
            },
            {
                "start_time": 36.17727272727272,
                "end_time": 36.377272727272725,
                "pitch": 77,
                "velocity": 51,
                "duration": 0.20000000000000284,
                "tempo": 120.0
            },
            {
                "start_time": 36.377272727272725,
                "end_time": 36.57727272727273,
                "pitch": 82,
                "velocity": 51,
                "duration": 0.20000000000000284,
                "tempo": 120.0
            },
            {
                "start_time": 36.57727272727273,
                "end_time": 36.777272727272724,
                "pitch": 75,
                "velocity": 51,
                "duration": 0.19999999999999574,
                "tempo": 120.0
            },
            {
                "start_time": 36.777272727272724,
                "end_time": 36.97727272727273,
                "pitch": 82,
                "velocity": 51,
                "duration": 0.20000000000000284,
                "tempo": 120.0
            },
            {
                "start_time": 36.97727272727273,
                "end_time": 37.777272727272724,
                "pitch": 79,
                "velocity": 51,
                "duration": 0.7999999999999972,
                "tempo": 120.0
            },
            {
                "start_time": 37.777272727272724,
                "end_time": 37.97954545454545,
                "pitch": 55,
                "velocity": 51,
                "duration": 0.20227272727272805,
                "tempo": 120.0
            },
            {
                "start_time": 37.97954545454545,
                "end_time": 38.179545454545455,
                "pitch": 67,
                "velocity": 51,
                "duration": 0.20000000000000284,
                "tempo": 120.0
            },
            {
                "start_time": 38.179545454545455,
                "end_time": 38.37954545454545,
                "pitch": 55,
                "velocity": 51,
                "duration": 0.19999999999999574,
                "tempo": 120.0
            },
            {
                "start_time": 38.37954545454545,
                "end_time": 38.57954545454545,
                "pitch": 67,
                "velocity": 51,
                "duration": 0.20000000000000284,
                "tempo": 120.0
            },
            {
                "start_time": 38.57954545454545,
                "end_time": 38.779545454545456,
                "pitch": 86,
                "velocity": 51,
                "duration": 0.20000000000000284,
                "tempo": 120.0
            },
            {
                "start_time": 38.779545454545456,
                "end_time": 38.87954545454545,
                "pitch": 84,
                "velocity": 51,
                "duration": 0.09999999999999432,
                "tempo": 120.0
            },
            {
                "start_time": 38.87954545454545,
                "end_time": 38.97954545454545,
                "pitch": 82,
                "velocity": 51,
                "duration": 0.10000000000000142,
                "tempo": 120.0
            },
            {
                "start_time": 38.97954545454545,
                "end_time": 39.179545454545455,
                "pitch": 84,
                "velocity": 51,
                "duration": 0.20000000000000284,
                "tempo": 120.0
            },
            {
                "start_time": 39.179545454545455,
                "end_time": 39.279545454545456,
                "pitch": 79,
                "velocity": 51,
                "duration": 0.10000000000000142,
                "tempo": 120.0
            },
            {
                "start_time": 39.574999999999996,
                "end_time": 39.675,
                "pitch": 79,
                "velocity": 51,
                "duration": 0.10000000000000142,
                "tempo": 120.0
            },
            {
                "start_time": 39.675,
                "end_time": 39.77272727272727,
                "pitch": 77,
                "velocity": 51,
                "duration": 0.09772727272727622,
                "tempo": 120.0
            },
            {
                "start_time": 39.77272727272727,
                "end_time": 39.875,
                "pitch": 79,
                "velocity": 51,
                "duration": 0.10227272727272663,
                "tempo": 120.0
            },
            {
                "start_time": 39.875,
                "end_time": 39.97954545454545,
                "pitch": 81,
                "velocity": 51,
                "duration": 0.10454545454545183,
                "tempo": 120.0
            },
            {
                "start_time": 39.97954545454545,
                "end_time": 40.08181818181818,
                "pitch": 81,
                "velocity": 51,
                "duration": 0.10227272727272663,
                "tempo": 120.0
            },
            {
                "start_time": 40.08181818181818,
                "end_time": 40.184090909090905,
                "pitch": 84,
                "velocity": 51,
                "duration": 0.10227272727272663,
                "tempo": 120.0
            },
            {
                "start_time": 40.184090909090905,
                "end_time": 40.28409090909091,
                "pitch": 77,
                "velocity": 51,
                "duration": 0.10000000000000142,
                "tempo": 120.0
            },
            {
                "start_time": 40.28409090909091,
                "end_time": 40.38409090909091,
                "pitch": 79,
                "velocity": 51,
                "duration": 0.10000000000000142,
                "tempo": 120.0
            },
            {
                "start_time": 40.48409090909091,
                "end_time": 40.584090909090904,
                "pitch": 77,
                "velocity": 51,
                "duration": 0.09999999999999432,
                "tempo": 120.0
            },
            {
                "start_time": 40.584090909090904,
                "end_time": 40.684090909090905,
                "pitch": 79,
                "velocity": 51,
                "duration": 0.10000000000000142,
                "tempo": 120.0
            },
            {
                "start_time": 40.78409090909091,
                "end_time": 40.88409090909091,
                "pitch": 79,
                "velocity": 51,
                "duration": 0.10000000000000142,
                "tempo": 120.0
            },
            {
                "start_time": 40.88409090909091,
                "end_time": 40.98409090909091,
                "pitch": 81,
                "velocity": 51,
                "duration": 0.10000000000000142,
                "tempo": 120.0
            },
            {
                "start_time": 41.084090909090904,
                "end_time": 41.184090909090905,
                "pitch": 84,
                "velocity": 51,
                "duration": 0.10000000000000142,
                "tempo": 120.0
            },
            {
                "start_time": 41.184090909090905,
                "end_time": 41.28409090909091,
                "pitch": 84,
                "velocity": 51,
                "duration": 0.10000000000000142,
                "tempo": 120.0
            },
            {
                "start_time": 41.38409090909091,
                "end_time": 41.584090909090904,
                "pitch": 86,
                "velocity": 51,
                "duration": 0.19999999999999574,
                "tempo": 120.0
            },
            {
                "start_time": 41.584090909090904,
                "end_time": 41.684090909090905,
                "pitch": 89,
                "velocity": 51,
                "duration": 0.10000000000000142,
                "tempo": 120.0
            },
            {
                "start_time": 41.78409090909091,
                "end_time": 41.986363636363635,
                "pitch": 89,
                "velocity": 51,
                "duration": 0.20227272727272805,
                "tempo": 120.0
            },
            {
                "start_time": 41.986363636363635,
                "end_time": 42.086363636363636,
                "pitch": 89,
                "velocity": 51,
                "duration": 0.10000000000000142,
                "tempo": 120.0
            },
            {
                "start_time": 42.18636363636364,
                "end_time": 42.28636363636363,
                "pitch": 86,
                "velocity": 51,
                "duration": 0.09999999999999432,
                "tempo": 120.0
            },
            {
                "start_time": 42.28636363636363,
                "end_time": 42.38636363636363,
                "pitch": 86,
                "velocity": 51,
                "duration": 0.10000000000000142,
                "tempo": 120.0
            },
            {
                "start_time": 42.486363636363635,
                "end_time": 42.684090909090905,
                "pitch": 86,
                "velocity": 51,
                "duration": 0.19772727272727053,
                "tempo": 120.0
            },
            {
                "start_time": 42.684090909090905,
                "end_time": 42.78409090909091,
                "pitch": 86,
                "velocity": 51,
                "duration": 0.10000000000000142,
                "tempo": 120.0
            },
            {
                "start_time": 42.78409090909091,
                "end_time": 42.88181818181818,
                "pitch": 86,
                "velocity": 51,
                "duration": 0.09772727272727622,
                "tempo": 120.0
            },
            {
                "start_time": 42.97954545454545,
                "end_time": 43.184090909090905,
                "pitch": 77,
                "velocity": 51,
                "duration": 0.20454545454545325,
                "tempo": 120.0
            },
            {
                "start_time": 43.184090909090905,
                "end_time": 43.39090909090909,
                "pitch": 79,
                "velocity": 51,
                "duration": 0.20681818181818556,
                "tempo": 120.0
            },
            {
                "start_time": 43.39090909090909,
                "end_time": 43.79090909090909,
                "pitch": 91,
                "velocity": 51,
                "duration": 0.3999999999999986,
                "tempo": 120.0
            },
            {
                "start_time": 43.79090909090909,
                "end_time": 44.19318181818181,
                "pitch": 89,
                "velocity": 51,
                "duration": 0.4022727272727238,
                "tempo": 120.0
            },
            {
                "start_time": 44.19318181818181,
                "end_time": 44.59318181818182,
                "pitch": 87,
                "velocity": 51,
                "duration": 0.4000000000000057,
                "tempo": 120.0
            },
            {
                "start_time": 44.59318181818182,
                "end_time": 44.99318181818182,
                "pitch": 87,
                "velocity": 51,
                "duration": 0.3999999999999986,
                "tempo": 120.0
            },
            {
                "start_time": 44.99318181818182,
                "end_time": 45.19318181818181,
                "pitch": 86,
                "velocity": 51,
                "duration": 0.19999999999999574,
                "tempo": 120.0
            },
            {
                "start_time": 45.19318181818181,
                "end_time": 45.293181818181814,
                "pitch": 84,
                "velocity": 51,
                "duration": 0.10000000000000142,
                "tempo": 120.0
            },
            {
                "start_time": 45.293181818181814,
                "end_time": 46.595454545454544,
                "pitch": 86,
                "velocity": 51,
                "duration": 1.3022727272727295,
                "tempo": 120.0
            },
            {
                "start_time": 46.595454545454544,
                "end_time": 46.79545454545454,
                "pitch": 87,
                "velocity": 51,
                "duration": 0.19999999999999574,
                "tempo": 120.0
            },
            {
                "start_time": 46.79545454545454,
                "end_time": 46.89545454545454,
                "pitch": 86,
                "velocity": 51,
                "duration": 0.10000000000000142,
                "tempo": 120.0
            },
            {
                "start_time": 46.89545454545454,
                "end_time": 48.19772727272727,
                "pitch": 89,
                "velocity": 51,
                "duration": 1.3022727272727295,
                "tempo": 120.0
            },
            {
                "start_time": 48.19772727272727,
                "end_time": 48.39772727272727,
                "pitch": 87,
                "velocity": 51,
                "duration": 0.20000000000000284,
                "tempo": 120.0
            },
            {
                "start_time": 48.39772727272727,
                "end_time": 48.49772727272727,
                "pitch": 88,
                "velocity": 51,
                "duration": 0.09999999999999432,
                "tempo": 120.0
            },
            {
                "start_time": 48.49772727272727,
                "end_time": 48.79772727272727,
                "pitch": 91,
                "velocity": 51,
                "duration": 0.30000000000000426,
                "tempo": 120.0
            },
            {
                "start_time": 48.79772727272727,
                "end_time": 48.89772727272727,
                "pitch": 87,
                "velocity": 51,
                "duration": 0.10000000000000142,
                "tempo": 120.0
            },
            {
                "start_time": 48.89772727272727,
                "end_time": 48.99772727272727,
                "pitch": 87,
                "velocity": 51,
                "duration": 0.09999999999999432,
                "tempo": 120.0
            },
            {
                "start_time": 48.99772727272727,
                "end_time": 49.09772727272727,
                "pitch": 91,
                "velocity": 51,
                "duration": 0.10000000000000142,
                "tempo": 120.0
            },
            {
                "start_time": 49.19772727272727,
                "end_time": 49.39772727272727,
                "pitch": 82,
                "velocity": 51,
                "duration": 0.20000000000000284,
                "tempo": 120.0
            },
            {
                "start_time": 49.39772727272727,
                "end_time": 49.59772727272727,
                "pitch": 87,
                "velocity": 51,
                "duration": 0.19999999999999574,
                "tempo": 120.0
            },
            {
                "start_time": 49.59772727272727,
                "end_time": 49.79772727272727,
                "pitch": 91,
                "velocity": 51,
                "duration": 0.20000000000000284,
                "tempo": 120.0
            },
            {
                "start_time": 49.79772727272727,
                "end_time": 49.9,
                "pitch": 91,
                "velocity": 51,
                "duration": 0.10227272727272663,
                "tempo": 120.0
            },
            {
                "start_time": 49.9,
                "end_time": 50.0,
                "pitch": 93,
                "velocity": 51,
                "duration": 0.10000000000000142,
                "tempo": 120.0
            },
            {
                "start_time": 50.0,
                "end_time": 50.099999999999994,
                "pitch": 94,
                "velocity": 51,
                "duration": 0.09999999999999432,
                "tempo": 120.0
            },
            {
                "start_time": 50.099999999999994,
                "end_time": 50.199999999999996,
                "pitch": 93,
                "velocity": 51,
                "duration": 0.10000000000000142,
                "tempo": 120.0
            },
            {
                "start_time": 50.199999999999996,
                "end_time": 50.334090909090904,
                "pitch": 91,
                "velocity": 51,
                "duration": 0.13409090909090793,
                "tempo": 120.0
            },
            {
                "start_time": 50.334090909090904,
                "end_time": 50.4,
                "pitch": 93,
                "velocity": 51,
                "duration": 0.06590909090909491,
                "tempo": 120.0
            },
            {
                "start_time": 50.4,
                "end_time": 50.599999999999994,
                "pitch": 91,
                "velocity": 51,
                "duration": 0.19999999999999574,
                "tempo": 120.0
            },
            {
                "start_time": 50.599999999999994,
                "end_time": 50.8,
                "pitch": 90,
                "velocity": 51,
                "duration": 0.20000000000000284,
                "tempo": 120.0
            },
            {
                "start_time": 50.8,
                "end_time": 51.0,
                "pitch": 86,
                "velocity": 51,
                "duration": 0.20000000000000284,
                "tempo": 120.0
            },
            {
                "start_time": 51.0,
                "end_time": 51.199999999999996,
                "pitch": 84,
                "velocity": 51,
                "duration": 0.19999999999999574,
                "tempo": 120.0
            },
            {
                "start_time": 51.199999999999996,
                "end_time": 51.4,
                "pitch": 82,
                "velocity": 51,
                "duration": 0.20000000000000284,
                "tempo": 120.0
            }
        ],
        "Electric Guitar (clean)": [
            {
                "start_time": 0.0,
                "end_time": 0.24545454545454545,
                "pitch": 19,
                "velocity": 4,
                "duration": 0.24545454545454545,
                "tempo": 120.0
            },
            {
                "start_time": 0.24545454545454545,
                "end_time": 0.4477272727272727,
                "pitch": 100,
                "velocity": 4,
                "duration": 0.20227272727272724,
                "tempo": 120.0
            },
            {
                "start_time": 0.4477272727272727,
                "end_time": 0.6636363636363636,
                "pitch": 108,
                "velocity": 4,
                "duration": 0.21590909090909088,
                "tempo": 120.0
            },
            {
                "start_time": 0.6636363636363636,
                "end_time": 1.0772727272727272,
                "pitch": 21,
                "velocity": 4,
                "duration": 0.4136363636363636,
                "tempo": 120.0
            },
            {
                "start_time": 1.0772727272727272,
                "end_time": 1.2772727272727271,
                "pitch": 100,
                "velocity": 4,
                "duration": 0.19999999999999996,
                "tempo": 120.0
            },
            {
                "start_time": 1.2772727272727271,
                "end_time": 1.4772727272727273,
                "pitch": 108,
                "velocity": 4,
                "duration": 0.20000000000000018,
                "tempo": 120.0
            },
            {
                "start_time": 1.4772727272727273,
                "end_time": 1.8772727272727272,
                "pitch": 21,
                "velocity": 4,
                "duration": 0.3999999999999999,
                "tempo": 120.0
            },
            {
                "start_time": 1.8772727272727272,
                "end_time": 2.077272727272727,
                "pitch": 100,
                "velocity": 4,
                "duration": 0.19999999999999996,
                "tempo": 120.0
            },
            {
                "start_time": 2.077272727272727,
                "end_time": 2.2772727272727273,
                "pitch": 108,
                "velocity": 4,
                "duration": 0.20000000000000018,
                "tempo": 120.0
            },
            {
                "start_time": 2.2772727272727273,
                "end_time": 2.881818181818182,
                "pitch": 19,
                "velocity": 4,
                "duration": 0.6045454545454545,
                "tempo": 120.0
            },
            {
                "start_time": 2.881818181818182,
                "end_time": 3.0818181818181816,
                "pitch": 13,
                "velocity": 4,
                "duration": 0.19999999999999973,
                "tempo": 120.0
            },
            {
                "start_time": 3.0818181818181816,
                "end_time": 3.2818181818181817,
                "pitch": 100,
                "velocity": 4,
                "duration": 0.20000000000000018,
                "tempo": 120.0
            },
            {
                "start_time": 3.2818181818181817,
                "end_time": 3.4818181818181815,
                "pitch": 19,
                "velocity": 4,
                "duration": 0.19999999999999973,
                "tempo": 120.0
            },
            {
                "start_time": 3.4818181818181815,
                "end_time": 3.6818181818181817,
                "pitch": 100,
                "velocity": 4,
                "duration": 0.20000000000000018,
                "tempo": 120.0
            },
            {
                "start_time": 3.6818181818181817,
                "end_time": 3.881818181818182,
                "pitch": 108,
                "velocity": 4,
                "duration": 0.20000000000000018,
                "tempo": 120.0
            },
            {
                "start_time": 3.881818181818182,
                "end_time": 4.281818181818181,
                "pitch": 21,
                "velocity": 4,
                "duration": 0.39999999999999947,
                "tempo": 120.0
            },
            {
                "start_time": 4.281818181818181,
                "end_time": 4.4840909090909085,
                "pitch": 100,
                "velocity": 4,
                "duration": 0.20227272727272716,
                "tempo": 120.0
            },
            {
                "start_time": 4.4840909090909085,
                "end_time": 4.684090909090909,
                "pitch": 108,
                "velocity": 4,
                "duration": 0.20000000000000018,
                "tempo": 120.0
            },
            {
                "start_time": 4.684090909090909,
                "end_time": 4.8999999999999995,
                "pitch": 21,
                "velocity": 4,
                "duration": 0.21590909090909083,
                "tempo": 120.0
            },
            {
                "start_time": 4.8999999999999995,
                "end_time": 5.084090909090909,
                "pitch": 30,
                "velocity": 4,
                "duration": 0.18409090909090953,
                "tempo": 120.0
            },
            {
                "start_time": 5.084090909090909,
                "end_time": 5.286363636363636,
                "pitch": 14,
                "velocity": 4,
                "duration": 0.20227272727272716,
                "tempo": 120.0
            },
            {
                "start_time": 5.286363636363636,
                "end_time": 5.488636363636363,
                "pitch": 21,
                "velocity": 4,
                "duration": 0.20227272727272716,
                "tempo": 120.0
            },
            {
                "start_time": 5.488636363636363,
                "end_time": 6.088636363636363,
                "pitch": 30,
                "velocity": 4,
                "duration": 0.5999999999999996,
                "tempo": 120.0
            },
            {
                "start_time": 6.088636363636363,
                "end_time": 6.290909090909091,
                "pitch": 23,
                "velocity": 4,
                "duration": 0.20227272727272805,
                "tempo": 120.0
            },
            {
                "start_time": 6.290909090909091,
                "end_time": 6.475,
                "pitch": 14,
                "velocity": 4,
                "duration": 0.18409090909090864,
                "tempo": 120.0
            },
            {
                "start_time": 6.475,
                "end_time": 6.49090909090909,
                "pitch": 14,
                "velocity": 4,
                "duration": 0.01590909090909065,
                "tempo": 120.0
            },
            {
                "start_time": 6.49090909090909,
                "end_time": 6.6909090909090905,
                "pitch": 30,
                "velocity": 4,
                "duration": 0.20000000000000018,
                "tempo": 120.0
            },
            {
                "start_time": 6.6909090909090905,
                "end_time": 6.890909090909091,
                "pitch": 14,
                "velocity": 4,
                "duration": 0.20000000000000018,
                "tempo": 120.0
            },
            {
                "start_time": 6.890909090909091,
                "end_time": 7.093181818181818,
                "pitch": 21,
                "velocity": 4,
                "duration": 0.20227272727272716,
                "tempo": 120.0
            },
            {
                "start_time": 7.093181818181818,
                "end_time": 7.495454545454545,
                "pitch": 31,
                "velocity": 4,
                "duration": 0.40227272727272734,
                "tempo": 120.0
            },
            {
                "start_time": 7.495454545454545,
                "end_time": 7.697727272727272,
                "pitch": 14,
                "velocity": 4,
                "duration": 0.20227272727272716,
                "tempo": 120.0
            },
            {
                "start_time": 7.697727272727272,
                "end_time": 7.8977272727272725,
                "pitch": 21,
                "velocity": 4,
                "duration": 0.20000000000000018,
                "tempo": 120.0
            },
            {
                "start_time": 7.8977272727272725,
                "end_time": 8.297727272727272,
                "pitch": 31,
                "velocity": 4,
                "duration": 0.39999999999999947,
                "tempo": 120.0
            },
            {
                "start_time": 8.297727272727272,
                "end_time": 8.497727272727273,
                "pitch": 14,
                "velocity": 4,
                "duration": 0.20000000000000107,
                "tempo": 120.0
            },
            {
                "start_time": 8.497727272727273,
                "end_time": 8.697727272727272,
                "pitch": 21,
                "velocity": 4,
                "duration": 0.1999999999999993,
                "tempo": 120.0
            },
            {
                "start_time": 8.697727272727272,
                "end_time": 8.76590909090909,
                "pitch": 30,
                "velocity": 4,
                "duration": 0.06818181818181834,
                "tempo": 120.0
            },
            {
                "start_time": 8.76590909090909,
                "end_time": 8.9,
                "pitch": 36,
                "velocity": 4,
                "duration": 0.1340909090909097,
                "tempo": 120.0
            },
            {
                "start_time": 8.9,
                "end_time": 9.302272727272728,
                "pitch": 37,
                "velocity": 4,
                "duration": 0.40227272727272734,
                "tempo": 120.0
            },
            {
                "start_time": 9.302272727272728,
                "end_time": 9.504545454545454,
                "pitch": 29,
                "velocity": 4,
                "duration": 0.20227272727272627,
                "tempo": 120.0
            },
            {
                "start_time": 9.504545454545454,
                "end_time": 9.704545454545453,
                "pitch": 19,
                "velocity": 4,
                "duration": 0.1999999999999993,
                "tempo": 120.0
            },
            {
                "start_time": 9.704545454545453,
                "end_time": 9.906818181818181,
                "pitch": 36,
                "velocity": 4,
                "duration": 0.20227272727272805,
                "tempo": 120.0
            },
            {
                "start_time": 9.906818181818181,
                "end_time": 10.10681818181818,
                "pitch": 19,
                "velocity": 4,
                "duration": 0.1999999999999993,
                "tempo": 120.0
            },
            {
                "start_time": 10.10681818181818,
                "end_time": 10.306818181818182,
                "pitch": 29,
                "velocity": 4,
                "duration": 0.20000000000000107,
                "tempo": 120.0
            },
            {
                "start_time": 10.306818181818182,
                "end_time": 10.406818181818181,
                "pitch": 37,
                "velocity": 4,
                "duration": 0.09999999999999964,
                "tempo": 120.0
            },
            {
                "start_time": 10.406818181818181,
                "end_time": 10.674999999999999,
                "pitch": 39,
                "velocity": 4,
                "duration": 0.26818181818181763,
                "tempo": 120.0
            },
            {
                "start_time": 10.674999999999999,
                "end_time": 10.709090909090909,
                "pitch": 91,
                "velocity": 4,
                "duration": 0.03409090909091006,
                "tempo": 120.0
            },
            {
                "start_time": 10.709090909090909,
                "end_time": 10.911363636363635,
                "pitch": 75,
                "velocity": 4,
                "duration": 0.20227272727272627,
                "tempo": 120.0
            },
            {
                "start_time": 10.911363636363635,
                "end_time": 11.111363636363636,
                "pitch": 83,
                "velocity": 4,
                "duration": 0.20000000000000107,
                "tempo": 120.0
            },
            {
                "start_time": 11.111363636363636,
                "end_time": 11.513636363636364,
                "pitch": 92,
                "velocity": 4,
                "duration": 0.40227272727272734,
                "tempo": 120.0
            },
            {
                "start_time": 11.513636363636364,
                "end_time": 11.71590909090909,
                "pitch": 75,
                "velocity": 4,
                "duration": 0.20227272727272627,
                "tempo": 120.0
            },
            {
                "start_time": 11.71590909090909,
                "end_time": 11.799999999999999,
                "pitch": 83,
                "velocity": 4,
                "duration": 0.084090909090909,
                "tempo": 120.0
            },
            {
                "start_time": 11.799999999999999,
                "end_time": 11.918181818181818,
                "pitch": 105,
                "velocity": 4,
                "duration": 0.11818181818181905,
                "tempo": 120.0
            },
            {
                "start_time": 11.918181818181818,
                "end_time": 12.518181818181818,
                "pitch": 17,
                "velocity": 4,
                "duration": 0.5999999999999996,
                "tempo": 120.0
            },
            {
                "start_time": 12.518181818181818,
                "end_time": 12.720454545454546,
                "pitch": 106,
                "velocity": 4,
                "duration": 0.20227272727272805,
                "tempo": 120.0
            },
            {
                "start_time": 12.720454545454546,
                "end_time": 12.920454545454545,
                "pitch": 97,
                "velocity": 4,
                "duration": 0.1999999999999993,
                "tempo": 120.0
            },
            {
                "start_time": 12.920454545454545,
                "end_time": 13.122727272727271,
                "pitch": 17,
                "velocity": 4,
                "duration": 0.20227272727272627,
                "tempo": 120.0
            },
            {
                "start_time": 13.122727272727271,
                "end_time": 13.325,
                "pitch": 97,
                "velocity": 4,
                "duration": 0.20227272727272805,
                "tempo": 120.0
            },
            {
                "start_time": 13.325,
                "end_time": 13.524999999999999,
                "pitch": 105,
                "velocity": 4,
                "duration": 0.1999999999999993,
                "tempo": 120.0
            },
            {
                "start_time": 13.524999999999999,
                "end_time": 13.843181818181817,
                "pitch": 18,
                "velocity": 4,
                "duration": 0.31818181818181834,
                "tempo": 120.0
            },
            {
                "start_time": 13.843181818181817,
                "end_time": 13.927272727272726,
                "pitch": 45,
                "velocity": 4,
                "duration": 0.084090909090909,
                "tempo": 120.0
            },
            {
                "start_time": 13.927272727272726,
                "end_time": 14.129545454545454,
                "pitch": 29,
                "velocity": 4,
                "duration": 0.20227272727272805,
                "tempo": 120.0
            },
            {
                "start_time": 14.129545454545454,
                "end_time": 14.329545454545453,
                "pitch": 37,
                "velocity": 4,
                "duration": 0.1999999999999993,
                "tempo": 120.0
            },
            {
                "start_time": 14.329545454545453,
                "end_time": 14.729545454545454,
                "pitch": 46,
                "velocity": 4,
                "duration": 0.40000000000000036,
                "tempo": 120.0
            },
            {
                "start_time": 14.729545454545454,
                "end_time": 14.931818181818182,
                "pitch": 29,
                "velocity": 4,
                "duration": 0.20227272727272805,
                "tempo": 120.0
            },
            {
                "start_time": 14.931818181818182,
                "end_time": 15.134090909090908,
                "pitch": 37,
                "velocity": 4,
                "duration": 0.20227272727272627,
                "tempo": 120.0
            },
            {
                "start_time": 15.134090909090908,
                "end_time": 15.736363636363636,
                "pitch": 45,
                "velocity": 4,
                "duration": 0.6022727272727284,
                "tempo": 120.0
            },
            {
                "start_time": 15.736363636363636,
                "end_time": 15.938636363636363,
                "pitch": 38,
                "velocity": 4,
                "duration": 0.20227272727272627,
                "tempo": 120.0
            },
            {
                "start_time": 15.938636363636363,
                "end_time": 16.14090909090909,
                "pitch": 29,
                "velocity": 4,
                "duration": 0.20227272727272805,
                "tempo": 120.0
            },
            {
                "start_time": 16.14090909090909,
                "end_time": 16.34090909090909,
                "pitch": 45,
                "velocity": 4,
                "duration": 0.1999999999999993,
                "tempo": 120.0
            },
            {
                "start_time": 16.34090909090909,
                "end_time": 16.543181818181818,
                "pitch": 29,
                "velocity": 4,
                "duration": 0.20227272727272805,
                "tempo": 120.0
            },
            {
                "start_time": 16.543181818181818,
                "end_time": 16.743181818181817,
                "pitch": 37,
                "velocity": 4,
                "duration": 0.1999999999999993,
                "tempo": 120.0
            },
            {
                "start_time": 16.743181818181817,
                "end_time": 17.143181818181816,
                "pitch": 46,
                "velocity": 4,
                "duration": 0.3999999999999986,
                "tempo": 120.0
            },
            {
                "start_time": 17.143181818181816,
                "end_time": 17.34318181818182,
                "pitch": 29,
                "velocity": 4,
                "duration": 0.20000000000000284,
                "tempo": 120.0
            },
            {
                "start_time": 17.34318181818182,
                "end_time": 17.543181818181818,
                "pitch": 37,
                "velocity": 4,
                "duration": 0.1999999999999993,
                "tempo": 120.0
            },
            {
                "start_time": 17.543181818181818,
                "end_time": 17.94090909090909,
                "pitch": 46,
                "velocity": 4,
                "duration": 0.3977272727272734,
                "tempo": 120.0
            },
            {
                "start_time": 17.94090909090909,
                "end_time": 17.972727272727273,
                "pitch": 29,
                "velocity": 4,
                "duration": 0.0318181818181813,
                "tempo": 120.0
            },
            {
                "start_time": 17.972727272727273,
                "end_time": 17.99090909090909,
                "pitch": 13,
                "velocity": 4,
                "duration": 0.018181818181815856,
                "tempo": 120.0
            },
            {
                "start_time": 17.99090909090909,
                "end_time": 18.138636363636362,
                "pitch": 100,
                "velocity": 4,
                "duration": 0.14772727272727337,
                "tempo": 120.0
            },
            {
                "start_time": 18.138636363636362,
                "end_time": 18.34318181818182,
                "pitch": 108,
                "velocity": 4,
                "duration": 0.2045454545454568,
                "tempo": 120.0
            },
            {
                "start_time": 18.34318181818182,
                "end_time": 18.94772727272727,
                "pitch": 19,
                "velocity": 4,
                "duration": 0.6045454545454518,
                "tempo": 120.0
            },
            {
                "start_time": 18.94772727272727,
                "end_time": 19.147727272727273,
                "pitch": 13,
                "velocity": 4,
                "duration": 0.20000000000000284,
                "tempo": 120.0
            },
            {
                "start_time": 19.147727272727273,
                "end_time": 19.347727272727273,
                "pitch": 100,
                "velocity": 4,
                "duration": 0.1999999999999993,
                "tempo": 120.0
            },
            {
                "start_time": 19.347727272727273,
                "end_time": 19.55,
                "pitch": 19,
                "velocity": 4,
                "duration": 0.20227272727272805,
                "tempo": 120.0
            },
            {
                "start_time": 19.55,
                "end_time": 19.75,
                "pitch": 100,
                "velocity": 4,
                "duration": 0.1999999999999993,
                "tempo": 120.0
            },
            {
                "start_time": 19.75,
                "end_time": 19.95,
                "pitch": 108,
                "velocity": 4,
                "duration": 0.1999999999999993,
                "tempo": 120.0
            },
            {
                "start_time": 19.95,
                "end_time": 20.352272727272727,
                "pitch": 21,
                "velocity": 4,
                "duration": 0.40227272727272734,
                "tempo": 120.0
            },
            {
                "start_time": 20.352272727272727,
                "end_time": 20.554545454545455,
                "pitch": 100,
                "velocity": 4,
                "duration": 0.20227272727272805,
                "tempo": 120.0
            },
            {
                "start_time": 20.554545454545455,
                "end_time": 20.754545454545454,
                "pitch": 108,
                "velocity": 4,
                "duration": 0.1999999999999993,
                "tempo": 120.0
            },
            {
                "start_time": 20.754545454545454,
                "end_time": 21.154545454545453,
                "pitch": 21,
                "velocity": 4,
                "duration": 0.3999999999999986,
                "tempo": 120.0
            },
            {
                "start_time": 21.154545454545453,
                "end_time": 21.354545454545452,
                "pitch": 100,
                "velocity": 4,
                "duration": 0.1999999999999993,
                "tempo": 120.0
            },
            {
                "start_time": 21.354545454545452,
                "end_time": 21.554545454545455,
                "pitch": 108,
                "velocity": 4,
                "duration": 0.20000000000000284,
                "tempo": 120.0
            },
            {
                "start_time": 21.554545454545455,
                "end_time": 22.15681818181818,
                "pitch": 19,
                "velocity": 4,
                "duration": 0.6022727272727266,
                "tempo": 120.0
            },
            {
                "start_time": 22.15681818181818,
                "end_time": 22.35681818181818,
                "pitch": 13,
                "velocity": 4,
                "duration": 0.1999999999999993,
                "tempo": 120.0
            },
            {
                "start_time": 22.35681818181818,
                "end_time": 22.55909090909091,
                "pitch": 100,
                "velocity": 4,
                "duration": 0.20227272727272805,
                "tempo": 120.0
            },
            {
                "start_time": 22.55909090909091,
                "end_time": 22.759090909090908,
                "pitch": 19,
                "velocity": 4,
                "duration": 0.1999999999999993,
                "tempo": 120.0
            },
            {
                "start_time": 22.759090909090908,
                "end_time": 22.793181818181818,
                "pitch": 100,
                "velocity": 4,
                "duration": 0.03409090909091006,
                "tempo": 120.0
            },
            {
                "start_time": 22.793181818181818,
                "end_time": 22.959090909090907,
                "pitch": 14,
                "velocity": 4,
                "duration": 0.16590909090908923,
                "tempo": 120.0
            },
            {
                "start_time": 22.959090909090907,
                "end_time": 23.159090909090907,
                "pitch": 21,
                "velocity": 4,
                "duration": 0.1999999999999993,
                "tempo": 120.0
            },
            {
                "start_time": 23.159090909090907,
                "end_time": 23.561363636363634,
                "pitch": 31,
                "velocity": 4,
                "duration": 0.40227272727272734,
                "tempo": 120.0
            },
            {
                "start_time": 23.561363636363634,
                "end_time": 23.761363636363637,
                "pitch": 14,
                "velocity": 4,
                "duration": 0.20000000000000284,
                "tempo": 120.0
            },
            {
                "start_time": 23.761363636363637,
                "end_time": 23.961363636363636,
                "pitch": 21,
                "velocity": 4,
                "duration": 0.1999999999999993,
                "tempo": 120.0
            },
            {
                "start_time": 23.961363636363636,
                "end_time": 24.363636363636363,
                "pitch": 31,
                "velocity": 4,
                "duration": 0.40227272727272734,
                "tempo": 120.0
            },
            {
                "start_time": 24.363636363636363,
                "end_time": 24.563636363636363,
                "pitch": 14,
                "velocity": 4,
                "duration": 0.1999999999999993,
                "tempo": 120.0
            },
            {
                "start_time": 24.563636363636363,
                "end_time": 24.763636363636362,
                "pitch": 21,
                "velocity": 4,
                "duration": 0.1999999999999993,
                "tempo": 120.0
            },
            {
                "start_time": 24.763636363636362,
                "end_time": 25.363636363636363,
                "pitch": 30,
                "velocity": 4,
                "duration": 0.6000000000000014,
                "tempo": 120.0
            },
            {
                "start_time": 25.363636363636363,
                "end_time": 25.56590909090909,
                "pitch": 23,
                "velocity": 4,
                "duration": 0.20227272727272805,
                "tempo": 120.0
            },
            {
                "start_time": 25.56590909090909,
                "end_time": 25.76590909090909,
                "pitch": 14,
                "velocity": 4,
                "duration": 0.1999999999999993,
                "tempo": 120.0
            },
            {
                "start_time": 25.76590909090909,
                "end_time": 25.96590909090909,
                "pitch": 30,
                "velocity": 4,
                "duration": 0.1999999999999993,
                "tempo": 120.0
            },
            {
                "start_time": 25.96590909090909,
                "end_time": 26.168181818181818,
                "pitch": 14,
                "velocity": 4,
                "duration": 0.20227272727272805,
                "tempo": 120.0
            },
            {
                "start_time": 26.168181818181818,
                "end_time": 26.368181818181817,
                "pitch": 21,
                "velocity": 4,
                "duration": 0.1999999999999993,
                "tempo": 120.0
            },
            {
                "start_time": 26.368181818181817,
                "end_time": 26.652272727272727,
                "pitch": 31,
                "velocity": 4,
                "duration": 0.28409090909091006,
                "tempo": 120.0
            },
            {
                "start_time": 26.652272727272727,
                "end_time": 26.770454545454545,
                "pitch": 36,
                "velocity": 4,
                "duration": 0.11818181818181728,
                "tempo": 120.0
            },
            {
                "start_time": 26.770454545454545,
                "end_time": 26.970454545454544,
                "pitch": 19,
                "velocity": 4,
                "duration": 0.1999999999999993,
                "tempo": 120.0
            },
            {
                "start_time": 26.970454545454544,
                "end_time": 27.172727272727272,
                "pitch": 29,
                "velocity": 4,
                "duration": 0.20227272727272805,
                "tempo": 120.0
            },
            {
                "start_time": 27.172727272727272,
                "end_time": 27.37272727272727,
                "pitch": 37,
                "velocity": 4,
                "duration": 0.1999999999999993,
                "tempo": 120.0
            },
            {
                "start_time": 27.37272727272727,
                "end_time": 27.570454545454545,
                "pitch": 36,
                "velocity": 4,
                "duration": 0.19772727272727408,
                "tempo": 120.0
            },
            {
                "start_time": 27.570454545454545,
                "end_time": 27.76590909090909,
                "pitch": 19,
                "velocity": 4,
                "duration": 0.19545454545454533,
                "tempo": 120.0
            },
            {
                "start_time": 27.76590909090909,
                "end_time": 27.968181818181815,
                "pitch": 29,
                "velocity": 4,
                "duration": 0.2022727272727245,
                "tempo": 120.0
            },
            {
                "start_time": 27.968181818181815,
                "end_time": 28.168181818181818,
                "pitch": 36,
                "velocity": 4,
                "duration": 0.20000000000000284,
                "tempo": 120.0
            },
            {
                "start_time": 28.168181818181818,
                "end_time": 28.33863636363636,
                "pitch": 37,
                "velocity": 4,
                "duration": 0.1704545454545432,
                "tempo": 120.0
            },
            {
                "start_time": 28.33863636363636,
                "end_time": 28.577272727272724,
                "pitch": 39,
                "velocity": 4,
                "duration": 0.2386363636363633,
                "tempo": 120.0
            },
            {
                "start_time": 28.577272727272724,
                "end_time": 28.777272727272727,
                "pitch": 84,
                "velocity": 4,
                "duration": 0.20000000000000284,
                "tempo": 120.0
            },
            {
                "start_time": 28.777272727272727,
                "end_time": 28.977272727272727,
                "pitch": 75,
                "velocity": 4,
                "duration": 0.1999999999999993,
                "tempo": 120.0
            },
            {
                "start_time": 28.977272727272727,
                "end_time": 29.177272727272726,
                "pitch": 91,
                "velocity": 4,
                "duration": 0.1999999999999993,
                "tempo": 120.0
            },
            {
                "start_time": 29.177272727272726,
                "end_time": 29.377272727272725,
                "pitch": 75,
                "velocity": 4,
                "duration": 0.1999999999999993,
                "tempo": 120.0
            },
            {
                "start_time": 29.377272727272725,
                "end_time": 29.579545454545453,
                "pitch": 83,
                "velocity": 4,
                "duration": 0.20227272727272805,
                "tempo": 120.0
            },
            {
                "start_time": 29.579545454545453,
                "end_time": 29.679545454545455,
                "pitch": 92,
                "velocity": 4,
                "duration": 0.10000000000000142,
                "tempo": 120.0
            },
            {
                "start_time": 29.679545454545455,
                "end_time": 29.979545454545452,
                "pitch": 18,
                "velocity": 4,
                "duration": 0.29999999999999716,
                "tempo": 120.0
            },
            {
                "start_time": 29.979545454545452,
                "end_time": 30.18181818181818,
                "pitch": 97,
                "velocity": 4,
                "duration": 0.20227272727272805,
                "tempo": 120.0
            },
            {
                "start_time": 30.18181818181818,
                "end_time": 30.38181818181818,
                "pitch": 105,
                "velocity": 4,
                "duration": 0.1999999999999993,
                "tempo": 120.0
            },
            {
                "start_time": 30.38181818181818,
                "end_time": 30.784090909090907,
                "pitch": 18,
                "velocity": 4,
                "duration": 0.40227272727272734,
                "tempo": 120.0
            },
            {
                "start_time": 30.784090909090907,
                "end_time": 30.98409090909091,
                "pitch": 97,
                "velocity": 4,
                "duration": 0.20000000000000284,
                "tempo": 120.0
            },
            {
                "start_time": 30.98409090909091,
                "end_time": 31.18409090909091,
                "pitch": 105,
                "velocity": 4,
                "duration": 0.1999999999999993,
                "tempo": 120.0
            },
            {
                "start_time": 31.18409090909091,
                "end_time": 31.736363636363635,
                "pitch": 17,
                "velocity": 4,
                "duration": 0.5522727272727259,
                "tempo": 120.0
            },
            {
                "start_time": 31.736363636363635,
                "end_time": 31.786363636363635,
                "pitch": 46,
                "velocity": 4,
                "duration": 0.05000000000000071,
                "tempo": 120.0
            },
            {
                "start_time": 31.786363636363635,
                "end_time": 31.986363636363635,
                "pitch": 38,
                "velocity": 4,
                "duration": 0.1999999999999993,
                "tempo": 120.0
            },
            {
                "start_time": 31.986363636363635,
                "end_time": 32.18636363636364,
                "pitch": 29,
                "velocity": 4,
                "duration": 0.20000000000000284,
                "tempo": 120.0
            },
            {
                "start_time": 32.18636363636364,
                "end_time": 32.388636363636365,
                "pitch": 45,
                "velocity": 4,
                "duration": 0.20227272727272805,
                "tempo": 120.0
            },
            {
                "start_time": 32.388636363636365,
                "end_time": 32.58863636363636,
                "pitch": 29,
                "velocity": 4,
                "duration": 0.19999999999999574,
                "tempo": 120.0
            },
            {
                "start_time": 32.58863636363636,
                "end_time": 32.788636363636364,
                "pitch": 37,
                "velocity": 4,
                "duration": 0.20000000000000284,
                "tempo": 120.0
            },
            {
                "start_time": 32.788636363636364,
                "end_time": 33.18863636363636,
                "pitch": 46,
                "velocity": 4,
                "duration": 0.3999999999999986,
                "tempo": 120.0
            },
            {
                "start_time": 33.18863636363636,
                "end_time": 33.388636363636365,
                "pitch": 29,
                "velocity": 4,
                "duration": 0.20000000000000284,
                "tempo": 120.0
            },
            {
                "start_time": 33.388636363636365,
                "end_time": 33.58863636363636,
                "pitch": 37,
                "velocity": 4,
                "duration": 0.19999999999999574,
                "tempo": 120.0
            },
            {
                "start_time": 33.58863636363636,
                "end_time": 33.99090909090909,
                "pitch": 46,
                "velocity": 4,
                "duration": 0.4022727272727309,
                "tempo": 120.0
            },
            {
                "start_time": 33.99090909090909,
                "end_time": 34.19090909090909,
                "pitch": 29,
                "velocity": 4,
                "duration": 0.19999999999999574,
                "tempo": 120.0
            },
            {
                "start_time": 34.19090909090909,
                "end_time": 34.39090909090909,
                "pitch": 37,
                "velocity": 4,
                "duration": 0.20000000000000284,
                "tempo": 120.0
            },
            {
                "start_time": 34.39090909090909,
                "end_time": 34.99090909090909,
                "pitch": 45,
                "velocity": 4,
                "duration": 0.6000000000000014,
                "tempo": 120.0
            },
            {
                "start_time": 34.99090909090909,
                "end_time": 35.19090909090909,
                "pitch": 38,
                "velocity": 4,
                "duration": 0.19999999999999574,
                "tempo": 120.0
            },
            {
                "start_time": 35.19090909090909,
                "end_time": 35.39090909090909,
                "pitch": 29,
                "velocity": 4,
                "duration": 0.20000000000000284,
                "tempo": 120.0
            },
            {
                "start_time": 35.39090909090909,
                "end_time": 35.590909090909086,
                "pitch": 45,
                "velocity": 4,
                "duration": 0.19999999999999574,
                "tempo": 120.0
            },
            {
                "start_time": 35.590909090909086,
                "end_time": 35.79090909090909,
                "pitch": 29,
                "velocity": 4,
                "duration": 0.20000000000000284,
                "tempo": 120.0
            },
            {
                "start_time": 35.79090909090909,
                "end_time": 35.840909090909086,
                "pitch": 37,
                "velocity": 4,
                "duration": 0.04999999999999716,
                "tempo": 120.0
            },
            {
                "start_time": 35.840909090909086,
                "end_time": 35.85909090909091,
                "pitch": 21,
                "velocity": 4,
                "duration": 0.018181818181822962,
                "tempo": 120.0
            },
            {
                "start_time": 35.85909090909091,
                "end_time": 35.99318181818182,
                "pitch": 108,
                "velocity": 4,
                "duration": 0.13409090909090793,
                "tempo": 120.0
            },
            {
                "start_time": 35.99318181818182,
                "end_time": 36.393181818181816,
                "pitch": 21,
                "velocity": 4,
                "duration": 0.3999999999999986,
                "tempo": 120.0
            },
            {
                "start_time": 36.393181818181816,
                "end_time": 36.59318181818182,
                "pitch": 100,
                "velocity": 4,
                "duration": 0.20000000000000284,
                "tempo": 120.0
            },
            {
                "start_time": 36.59318181818182,
                "end_time": 36.793181818181814,
                "pitch": 108,
                "velocity": 4,
                "duration": 0.19999999999999574,
                "tempo": 120.0
            },
            {
                "start_time": 36.793181818181814,
                "end_time": 37.19318181818181,
                "pitch": 21,
                "velocity": 4,
                "duration": 0.3999999999999986,
                "tempo": 120.0
            },
            {
                "start_time": 37.19318181818181,
                "end_time": 37.393181818181816,
                "pitch": 100,
                "velocity": 4,
                "duration": 0.20000000000000284,
                "tempo": 120.0
            },
            {
                "start_time": 37.393181818181816,
                "end_time": 37.59318181818182,
                "pitch": 108,
                "velocity": 4,
                "duration": 0.20000000000000284,
                "tempo": 120.0
            },
            {
                "start_time": 37.59318181818182,
                "end_time": 38.19772727272727,
                "pitch": 19,
                "velocity": 4,
                "duration": 0.6045454545454518,
                "tempo": 120.0
            },
            {
                "start_time": 38.19772727272727,
                "end_time": 38.39772727272727,
                "pitch": 13,
                "velocity": 4,
                "duration": 0.20000000000000284,
                "tempo": 120.0
            },
            {
                "start_time": 38.39772727272727,
                "end_time": 38.59772727272727,
                "pitch": 100,
                "velocity": 4,
                "duration": 0.19999999999999574,
                "tempo": 120.0
            },
            {
                "start_time": 38.59772727272727,
                "end_time": 38.69772727272727,
                "pitch": 19,
                "velocity": 4,
                "duration": 0.10000000000000142,
                "tempo": 120.0
            },
            {
                "start_time": 38.69772727272727,
                "end_time": 38.99772727272727,
                "pitch": 100,
                "velocity": 4,
                "duration": 0.29999999999999716,
                "tempo": 120.0
            },
            {
                "start_time": 38.99772727272727,
                "end_time": 39.09772727272727,
                "pitch": 13,
                "velocity": 4,
                "duration": 0.10000000000000142,
                "tempo": 120.0
            },
            {
                "start_time": 39.09772727272727,
                "end_time": 39.29772727272727,
                "pitch": 100,
                "velocity": 4,
                "duration": 0.20000000000000284,
                "tempo": 120.0
            },
            {
                "start_time": 39.29772727272727,
                "end_time": 39.49318181818182,
                "pitch": 21,
                "velocity": 4,
                "duration": 0.19545454545454533,
                "tempo": 120.0
            },
            {
                "start_time": 39.49318181818182,
                "end_time": 39.788636363636364,
                "pitch": 100,
                "velocity": 4,
                "duration": 0.29545454545454675,
                "tempo": 120.0
            },
            {
                "start_time": 39.788636363636364,
                "end_time": 39.89090909090909,
                "pitch": 13,
                "velocity": 4,
                "duration": 0.10227272727272663,
                "tempo": 120.0
            },
            {
                "start_time": 39.89090909090909,
                "end_time": 40.1,
                "pitch": 100,
                "velocity": 4,
                "duration": 0.20909090909091077,
                "tempo": 120.0
            },
            {
                "start_time": 40.1,
                "end_time": 40.30227272727272,
                "pitch": 21,
                "velocity": 4,
                "duration": 0.20227272727272094,
                "tempo": 120.0
            },
            {
                "start_time": 40.30227272727272,
                "end_time": 40.402272727272724,
                "pitch": 100,
                "velocity": 4,
                "duration": 0.10000000000000142,
                "tempo": 120.0
            },
            {
                "start_time": 40.402272727272724,
                "end_time": 40.502272727272725,
                "pitch": 19,
                "velocity": 4,
                "duration": 0.10000000000000142,
                "tempo": 120.0
            },
            {
                "start_time": 40.502272727272725,
                "end_time": 40.60227272727273,
                "pitch": 100,
                "velocity": 4,
                "duration": 0.10000000000000142,
                "tempo": 120.0
            },
            {
                "start_time": 40.60227272727273,
                "end_time": 40.70227272727273,
                "pitch": 29,
                "velocity": 4,
                "duration": 0.10000000000000142,
                "tempo": 120.0
            },
            {
                "start_time": 40.70227272727273,
                "end_time": 40.80227272727272,
                "pitch": 19,
                "velocity": 4,
                "duration": 0.09999999999999432,
                "tempo": 120.0
            },
            {
                "start_time": 40.80227272727272,
                "end_time": 40.902272727272724,
                "pitch": 100,
                "velocity": 4,
                "duration": 0.10000000000000142,
                "tempo": 120.0
            },
            {
                "start_time": 40.902272727272724,
                "end_time": 41.10227272727273,
                "pitch": 21,
                "velocity": 4,
                "duration": 0.20000000000000284,
                "tempo": 120.0
            },
            {
                "start_time": 41.10227272727273,
                "end_time": 41.21818181818182,
                "pitch": 100,
                "velocity": 4,
                "duration": 0.11590909090909207,
                "tempo": 120.0
            },
            {
                "start_time": 41.21818181818182,
                "end_time": 41.402272727272724,
                "pitch": 14,
                "velocity": 4,
                "duration": 0.18409090909090509,
                "tempo": 120.0
            },
            {
                "start_time": 41.402272727272724,
                "end_time": 41.502272727272725,
                "pitch": 26,
                "velocity": 4,
                "duration": 0.10000000000000142,
                "tempo": 120.0
            },
            {
                "start_time": 41.502272727272725,
                "end_time": 41.60227272727273,
                "pitch": 14,
                "velocity": 4,
                "duration": 0.10000000000000142,
                "tempo": 120.0
            },
            {
                "start_time": 41.60227272727273,
                "end_time": 41.70227272727273,
                "pitch": 30,
                "velocity": 4,
                "duration": 0.10000000000000142,
                "tempo": 120.0
            },
            {
                "start_time": 41.70227272727273,
                "end_time": 41.80227272727272,
                "pitch": 14,
                "velocity": 4,
                "duration": 0.09999999999999432,
                "tempo": 120.0
            },
            {
                "start_time": 41.80227272727272,
                "end_time": 41.902272727272724,
                "pitch": 30,
                "velocity": 4,
                "duration": 0.10000000000000142,
                "tempo": 120.0
            },
            {
                "start_time": 41.902272727272724,
                "end_time": 42.20454545454545,
                "pitch": 14,
                "velocity": 4,
                "duration": 0.30227272727272947,
                "tempo": 120.0
            },
            {
                "start_time": 42.20454545454545,
                "end_time": 42.304545454545455,
                "pitch": 23,
                "velocity": 4,
                "duration": 0.10000000000000142,
                "tempo": 120.0
            },
            {
                "start_time": 42.304545454545455,
                "end_time": 42.50454545454545,
                "pitch": 14,
                "velocity": 4,
                "duration": 0.19999999999999574,
                "tempo": 120.0
            },
            {
                "start_time": 42.50454545454545,
                "end_time": 42.70227272727273,
                "pitch": 31,
                "velocity": 4,
                "duration": 0.19772727272727764,
                "tempo": 120.0
            },
            {
                "start_time": 42.70227272727273,
                "end_time": 42.99545454545454,
                "pitch": 14,
                "velocity": 4,
                "duration": 0.29318181818181444,
                "tempo": 120.0
            },
            {
                "start_time": 42.99545454545454,
                "end_time": 43.1,
                "pitch": 23,
                "velocity": 4,
                "duration": 0.10454545454545894,
                "tempo": 120.0
            },
            {
                "start_time": 43.1,
                "end_time": 43.304545454545455,
                "pitch": 14,
                "velocity": 4,
                "duration": 0.20454545454545325,
                "tempo": 120.0
            },
            {
                "start_time": 43.304545454545455,
                "end_time": 43.50681818181818,
                "pitch": 31,
                "velocity": 4,
                "duration": 0.20227272727272805,
                "tempo": 120.0
            },
            {
                "start_time": 43.50681818181818,
                "end_time": 43.60681818181818,
                "pitch": 14,
                "velocity": 4,
                "duration": 0.09999999999999432,
                "tempo": 120.0
            },
            {
                "start_time": 43.60681818181818,
                "end_time": 43.70681818181818,
                "pitch": 30,
                "velocity": 4,
                "duration": 0.10000000000000142,
                "tempo": 120.0
            },
            {
                "start_time": 43.70681818181818,
                "end_time": 43.80681818181818,
                "pitch": 14,
                "velocity": 4,
                "duration": 0.10000000000000142,
                "tempo": 120.0
            },
            {
                "start_time": 43.80681818181818,
                "end_time": 43.90681818181818,
                "pitch": 39,
                "velocity": 4,
                "duration": 0.10000000000000142,
                "tempo": 120.0
            },
            {
                "start_time": 43.90681818181818,
                "end_time": 44.00909090909091,
                "pitch": 30,
                "velocity": 4,
                "duration": 0.10227272727272663,
                "tempo": 120.0
            },
            {
                "start_time": 44.00909090909091,
                "end_time": 44.10909090909091,
                "pitch": 14,
                "velocity": 4,
                "duration": 0.10000000000000142,
                "tempo": 120.0
            },
            {
                "start_time": 44.10909090909091,
                "end_time": 44.309090909090905,
                "pitch": 31,
                "velocity": 4,
                "duration": 0.19999999999999574,
                "tempo": 120.0
            },
            {
                "start_time": 44.309090909090905,
                "end_time": 44.60909090909091,
                "pitch": 14,
                "velocity": 4,
                "duration": 0.30000000000000426,
                "tempo": 120.0
            },
            {
                "start_time": 44.60909090909091,
                "end_time": 44.709090909090904,
                "pitch": 26,
                "velocity": 4,
                "duration": 0.09999999999999432,
                "tempo": 120.0
            },
            {
                "start_time": 44.709090909090904,
                "end_time": 44.809090909090905,
                "pitch": 14,
                "velocity": 4,
                "duration": 0.10000000000000142,
                "tempo": 120.0
            },
            {
                "start_time": 44.809090909090905,
                "end_time": 44.90909090909091,
                "pitch": 30,
                "velocity": 4,
                "duration": 0.10000000000000142,
                "tempo": 120.0
            },
            {
                "start_time": 44.90909090909091,
                "end_time": 45.00909090909091,
                "pitch": 14,
                "velocity": 4,
                "duration": 0.10000000000000142,
                "tempo": 120.0
            },
            {
                "start_time": 45.00909090909091,
                "end_time": 45.10909090909091,
                "pitch": 30,
                "velocity": 4,
                "duration": 0.10000000000000142,
                "tempo": 120.0
            },
            {
                "start_time": 45.10909090909091,
                "end_time": 45.209090909090904,
                "pitch": 14,
                "velocity": 4,
                "duration": 0.09999999999999432,
                "tempo": 120.0
            },
            {
                "start_time": 45.209090909090904,
                "end_time": 45.309090909090905,
                "pitch": 30,
                "velocity": 4,
                "duration": 0.10000000000000142,
                "tempo": 120.0
            },
            {
                "start_time": 45.309090909090905,
                "end_time": 45.40909090909091,
                "pitch": 14,
                "velocity": 4,
                "duration": 0.10000000000000142,
                "tempo": 120.0
            },
            {
                "start_time": 45.40909090909091,
                "end_time": 45.50909090909091,
                "pitch": 39,
                "velocity": 4,
                "duration": 0.10000000000000142,
                "tempo": 120.0
            },
            {
                "start_time": 45.50909090909091,
                "end_time": 45.60909090909091,
                "pitch": 30,
                "velocity": 4,
                "duration": 0.10000000000000142,
                "tempo": 120.0
            },
            {
                "start_time": 45.60909090909091,
                "end_time": 45.709090909090904,
                "pitch": 14,
                "velocity": 4,
                "duration": 0.09999999999999432,
                "tempo": 120.0
            },
            {
                "start_time": 45.709090909090904,
                "end_time": 45.809090909090905,
                "pitch": 31,
                "velocity": 4,
                "duration": 0.10000000000000142,
                "tempo": 120.0
            },
            {
                "start_time": 45.809090909090905,
                "end_time": 46.027272727272724,
                "pitch": 36,
                "velocity": 4,
                "duration": 0.2181818181818187,
                "tempo": 120.0
            },
            {
                "start_time": 46.027272727272724,
                "end_time": 46.211363636363636,
                "pitch": 43,
                "velocity": 4,
                "duration": 0.1840909090909122,
                "tempo": 120.0
            },
            {
                "start_time": 46.211363636363636,
                "end_time": 46.611363636363635,
                "pitch": 27,
                "velocity": 4,
                "duration": 0.3999999999999986,
                "tempo": 120.0
            },
            {
                "start_time": 46.611363636363635,
                "end_time": 46.711363636363636,
                "pitch": 36,
                "velocity": 4,
                "duration": 0.10000000000000142,
                "tempo": 120.0
            },
            {
                "start_time": 46.711363636363636,
                "end_time": 47.01136363636363,
                "pitch": 19,
                "velocity": 4,
                "duration": 0.29999999999999716,
                "tempo": 120.0
            },
            {
                "start_time": 47.01136363636363,
                "end_time": 47.111363636363635,
                "pitch": 30,
                "velocity": 4,
                "duration": 0.10000000000000142,
                "tempo": 120.0
            },
            {
                "start_time": 47.111363636363635,
                "end_time": 47.31136363636364,
                "pitch": 19,
                "velocity": 4,
                "duration": 0.20000000000000284,
                "tempo": 120.0
            },
            {
                "start_time": 47.31136363636364,
                "end_time": 47.41136363636363,
                "pitch": 37,
                "velocity": 4,
                "duration": 0.09999999999999432,
                "tempo": 120.0
            },
            {
                "start_time": 47.41136363636363,
                "end_time": 47.51136363636363,
                "pitch": 36,
                "velocity": 4,
                "duration": 0.10000000000000142,
                "tempo": 120.0
            },
            {
                "start_time": 47.51136363636363,
                "end_time": 47.81136363636364,
                "pitch": 19,
                "velocity": 4,
                "duration": 0.30000000000000426,
                "tempo": 120.0
            },
            {
                "start_time": 47.81136363636364,
                "end_time": 47.913636363636364,
                "pitch": 30,
                "velocity": 4,
                "duration": 0.10227272727272663,
                "tempo": 120.0
            },
            {
                "start_time": 47.913636363636364,
                "end_time": 48.01363636363636,
                "pitch": 19,
                "velocity": 4,
                "duration": 0.09999999999999432,
                "tempo": 120.0
            },
            {
                "start_time": 48.01363636363636,
                "end_time": 48.11363636363636,
                "pitch": 22,
                "velocity": 4,
                "duration": 0.10000000000000142,
                "tempo": 120.0
            },
            {
                "start_time": 48.11363636363636,
                "end_time": 48.31590909090909,
                "pitch": 39,
                "velocity": 4,
                "duration": 0.20227272727272805,
                "tempo": 120.0
            },
            {
                "start_time": 48.31590909090909,
                "end_time": 48.33181818181818,
                "pitch": 22,
                "velocity": 4,
                "duration": 0.01590909090909065,
                "tempo": 120.0
            },
            {
                "start_time": 48.33181818181818,
                "end_time": 48.61590909090909,
                "pitch": 75,
                "velocity": 4,
                "duration": 0.2840909090909136,
                "tempo": 120.0
            },
            {
                "start_time": 48.61590909090909,
                "end_time": 48.715909090909086,
                "pitch": 84,
                "velocity": 4,
                "duration": 0.09999999999999432,
                "tempo": 120.0
            },
            {
                "start_time": 48.715909090909086,
                "end_time": 48.91590909090909,
                "pitch": 75,
                "velocity": 4,
                "duration": 0.20000000000000284,
                "tempo": 120.0
            },
            {
                "start_time": 48.91590909090909,
                "end_time": 49.11590909090909,
                "pitch": 92,
                "velocity": 4,
                "duration": 0.20000000000000284,
                "tempo": 120.0
            },
            {
                "start_time": 49.11590909090909,
                "end_time": 49.41590909090909,
                "pitch": 75,
                "velocity": 4,
                "duration": 0.29999999999999716,
                "tempo": 120.0
            },
            {
                "start_time": 49.41590909090909,
                "end_time": 49.51590909090909,
                "pitch": 84,
                "velocity": 4,
                "duration": 0.10000000000000142,
                "tempo": 120.0
            },
            {
                "start_time": 49.51590909090909,
                "end_time": 49.715909090909086,
                "pitch": 75,
                "velocity": 4,
                "duration": 0.19999999999999574,
                "tempo": 120.0
            },
            {
                "start_time": 49.715909090909086,
                "end_time": 49.73181818181818,
                "pitch": 92,
                "velocity": 4,
                "duration": 0.01590909090909065,
                "tempo": 120.0
            },
            {
                "start_time": 49.73181818181818,
                "end_time": 49.91590909090909,
                "pitch": 18,
                "velocity": 4,
                "duration": 0.1840909090909122,
                "tempo": 120.0
            },
            {
                "start_time": 49.91590909090909,
                "end_time": 50.01590909090909,
                "pitch": 97,
                "velocity": 4,
                "duration": 0.10000000000000142,
                "tempo": 120.0
            },
            {
                "start_time": 50.01590909090909,
                "end_time": 50.11818181818182,
                "pitch": 17,
                "velocity": 4,
                "duration": 0.10227272727272663,
                "tempo": 120.0
            },
            {
                "start_time": 50.11818181818182,
                "end_time": 50.21818181818182,
                "pitch": 97,
                "velocity": 4,
                "duration": 0.10000000000000142,
                "tempo": 120.0
            },
            {
                "start_time": 50.21818181818182,
                "end_time": 50.31818181818181,
                "pitch": 26,
                "velocity": 4,
                "duration": 0.09999999999999432,
                "tempo": 120.0
            },
            {
                "start_time": 50.31818181818181,
                "end_time": 50.418181818181814,
                "pitch": 17,
                "velocity": 4,
                "duration": 0.10000000000000142,
                "tempo": 120.0
            },
            {
                "start_time": 50.418181818181814,
                "end_time": 50.518181818181816,
                "pitch": 97,
                "velocity": 4,
                "duration": 0.10000000000000142,
                "tempo": 120.0
            },
            {
                "start_time": 50.518181818181816,
                "end_time": 50.71818181818182,
                "pitch": 18,
                "velocity": 4,
                "duration": 0.20000000000000284,
                "tempo": 120.0
            },
            {
                "start_time": 50.71818181818182,
                "end_time": 51.018181818181816,
                "pitch": 97,
                "velocity": 4,
                "duration": 0.29999999999999716,
                "tempo": 120.0
            },
            {
                "start_time": 51.018181818181816,
                "end_time": 51.11818181818182,
                "pitch": 13,
                "velocity": 4,
                "duration": 0.10000000000000142,
                "tempo": 120.0
            },
            {
                "start_time": 51.11818181818182,
                "end_time": 51.21818181818182,
                "pitch": 97,
                "velocity": 4,
                "duration": 0.10000000000000142,
                "tempo": 120.0
            },
            {
                "start_time": 51.21818181818182,
                "end_time": 51.31818181818181,
                "pitch": 17,
                "velocity": 4,
                "duration": 0.09999999999999432,
                "tempo": 120.0
            },
            {
                "start_time": 51.31818181818181,
                "end_time": 51.4,
                "pitch": 97,
                "velocity": 4,
                "duration": 0.08181818181818556,
                "tempo": 120.0
            }
        ]
    }
}