{
    "track_id": "Wonder Boy in Monster Land (FM) - 05 - Cave _ Castle",
    "mood": "angry",
    "instruments": {
        "Trumpet": [
            {
                "start_time": 12.818181818181818,
                "end_time": 12.902272727272727,
                "pitch": 57,
                "velocity": 64,
                "duration": 0.084090909090909,
                "tempo": 120.0
            },
            {
                "start_time": 13.418181818181818,
                "end_time": 13.502272727272727,
                "pitch": 59,
                "velocity": 64,
                "duration": 0.084090909090909,
                "tempo": 120.0
            },
            {
                "start_time": 14.625,
                "end_time": 14.809090909090909,
                "pitch": 60,
                "velocity": 64,
                "duration": 0.18409090909090864,
                "tempo": 120.0
            },
            {
                "start_time": 15.022727272727272,
                "end_time": 15.202272727272726,
                "pitch": 59,
                "velocity": 64,
                "duration": 0.17954545454545467,
                "tempo": 120.0
            },
            {
                "start_time": 15.218181818181817,
                "end_time": 15.304545454545455,
                "pitch": 60,
                "velocity": 64,
                "duration": 0.08636363636363775,
                "tempo": 120.0
            },
            {
                "start_time": 15.422727272727272,
                "end_time": 15.509090909090908,
                "pitch": 59,
                "velocity": 64,
                "duration": 0.08636363636363598,
                "tempo": 120.0
            },
            {
                "start_time": 15.629545454545454,
                "end_time": 15.713636363636363,
                "pitch": 57,
                "velocity": 64,
                "duration": 0.084090909090909,
                "tempo": 120.0
            },
            {
                "start_time": 15.829545454545453,
                "end_time": 15.913636363636362,
                "pitch": 55,
                "velocity": 64,
                "duration": 0.084090909090909,
                "tempo": 120.0
            },
            {
                "start_time": 16.03181818181818,
                "end_time": 16.11590909090909,
                "pitch": 57,
                "velocity": 64,
                "duration": 0.08409090909090722,
                "tempo": 120.0
            },
            {
                "start_time": 16.629545454545454,
                "end_time": 16.711363636363636,
                "pitch": 59,
                "velocity": 64,
                "duration": 0.08181818181818201,
                "tempo": 120.0
            },
            {
                "start_time": 17.834090909090907,
                "end_time": 17.920454545454543,
                "pitch": 60,
                "velocity": 64,
                "duration": 0.08636363636363598,
                "tempo": 120.0
            },
            {
                "start_time": 18.04090909090909,
                "end_time": 18.222727272727273,
                "pitch": 59,
                "velocity": 64,
                "duration": 0.18181818181818343,
                "tempo": 120.0
            },
            {
                "start_time": 18.44090909090909,
                "end_time": 18.522727272727273,
                "pitch": 62,
                "velocity": 64,
                "duration": 0.08181818181818201,
                "tempo": 120.0
            },
            {
                "start_time": 18.831818181818182,
                "end_time": 18.91590909090909,
                "pitch": 62,
                "velocity": 64,
                "duration": 0.08409090909090722,
                "tempo": 120.0
            },
            {
                "start_time": 19.034090909090907,
                "end_time": 19.118181818181817,
                "pitch": 62,
                "velocity": 64,
                "duration": 0.08409090909091077,
                "tempo": 120.0
            },
            {
                "start_time": 19.23409090909091,
                "end_time": 19.320454545454545,
                "pitch": 57,
                "velocity": 64,
                "duration": 0.08636363636363598,
                "tempo": 120.0
            },
            {
                "start_time": 19.84090909090909,
                "end_time": 19.922727272727272,
                "pitch": 59,
                "velocity": 64,
                "duration": 0.08181818181818201,
                "tempo": 120.0
            },
            {
                "start_time": 21.052272727272726,
                "end_time": 21.23409090909091,
                "pitch": 60,
                "velocity": 64,
                "duration": 0.18181818181818343,
                "tempo": 120.0
            },
            {
                "start_time": 21.44772727272727,
                "end_time": 21.627272727272725,
                "pitch": 59,
                "velocity": 64,
                "duration": 0.17954545454545467,
                "tempo": 120.0
            },
            {
                "start_time": 21.643181818181816,
                "end_time": 21.729545454545452,
                "pitch": 60,
                "velocity": 64,
                "duration": 0.08636363636363598,
                "tempo": 120.0
            },
            {
                "start_time": 21.847727272727273,
                "end_time": 21.93409090909091,
                "pitch": 59,
                "velocity": 64,
                "duration": 0.08636363636363598,
                "tempo": 120.0
            },
            {
                "start_time": 22.054545454545455,
                "end_time": 22.138636363636362,
                "pitch": 57,
                "velocity": 64,
                "duration": 0.08409090909090722,
                "tempo": 120.0
            },
            {
                "start_time": 22.254545454545454,
                "end_time": 22.33863636363636,
                "pitch": 55,
                "velocity": 64,
                "duration": 0.08409090909090722,
                "tempo": 120.0
            },
            {
                "start_time": 22.454545454545453,
                "end_time": 22.538636363636364,
                "pitch": 57,
                "velocity": 64,
                "duration": 0.08409090909091077,
                "tempo": 120.0
            },
            {
                "start_time": 23.05681818181818,
                "end_time": 23.136363636363637,
                "pitch": 59,
                "velocity": 64,
                "duration": 0.0795454545454568,
                "tempo": 120.0
            },
            {
                "start_time": 24.261363636363637,
                "end_time": 24.34318181818182,
                "pitch": 60,
                "velocity": 64,
                "duration": 0.08181818181818201,
                "tempo": 120.0
            },
            {
                "start_time": 24.461363636363636,
                "end_time": 24.645454545454545,
                "pitch": 59,
                "velocity": 64,
                "duration": 0.18409090909090864,
                "tempo": 120.0
            },
            {
                "start_time": 24.863636363636363,
                "end_time": 24.945454545454545,
                "pitch": 62,
                "velocity": 64,
                "duration": 0.08181818181818201,
                "tempo": 120.0
            },
            {
                "start_time": 25.254545454545454,
                "end_time": 25.33863636363636,
                "pitch": 62,
                "velocity": 64,
                "duration": 0.08409090909090722,
                "tempo": 120.0
            },
            {
                "start_time": 25.454545454545453,
                "end_time": 25.538636363636364,
                "pitch": 62,
                "velocity": 64,
                "duration": 0.08409090909091077,
                "tempo": 120.0
            },
            {
                "start_time": 25.654545454545453,
                "end_time": 25.84318181818182,
                "pitch": 62,
                "velocity": 64,
                "duration": 0.18863636363636616,
                "tempo": 120.0
            },
            {
                "start_time": 26.261363636363637,
                "end_time": 27.243181818181817,
                "pitch": 60,
                "velocity": 64,
                "duration": 0.9818181818181806,
                "tempo": 120.0
            },
            {
                "start_time": 27.46590909090909,
                "end_time": 27.552272727272726,
                "pitch": 65,
                "velocity": 64,
                "duration": 0.08636363636363598,
                "tempo": 120.0
            },
            {
                "start_time": 27.670454545454543,
                "end_time": 27.754545454545454,
                "pitch": 65,
                "velocity": 64,
                "duration": 0.08409090909091077,
                "tempo": 120.0
            },
            {
                "start_time": 28.070454545454545,
                "end_time": 28.154545454545453,
                "pitch": 64,
                "velocity": 64,
                "duration": 0.08409090909090722,
                "tempo": 120.0
            },
            {
                "start_time": 28.270454545454545,
                "end_time": 28.659090909090907,
                "pitch": 62,
                "velocity": 64,
                "duration": 0.3886363636363619,
                "tempo": 120.0
            },
            {
                "start_time": 28.677272727272726,
                "end_time": 28.761363636363637,
                "pitch": 60,
                "velocity": 64,
                "duration": 0.08409090909091077,
                "tempo": 120.0
            },
            {
                "start_time": 28.779545454545453,
                "end_time": 28.863636363636363,
                "pitch": 60,
                "velocity": 64,
                "duration": 0.08409090909091077,
                "tempo": 120.0
            },
            {
                "start_time": 28.88181818181818,
                "end_time": 29.061363636363634,
                "pitch": 62,
                "velocity": 64,
                "duration": 0.17954545454545467,
                "tempo": 120.0
            },
            {
                "start_time": 29.470454545454544,
                "end_time": 30.05909090909091,
                "pitch": 60,
                "velocity": 64,
                "duration": 0.5886363636363647,
                "tempo": 120.0
            },
            {
                "start_time": 30.077272727272724,
                "end_time": 30.25681818181818,
                "pitch": 57,
                "velocity": 64,
                "duration": 0.17954545454545467,
                "tempo": 120.0
            },
            {
                "start_time": 30.27272727272727,
                "end_time": 30.354545454545452,
                "pitch": 59,
                "velocity": 64,
                "duration": 0.08181818181818201,
                "tempo": 120.0
            },
            {
                "start_time": 30.468181818181815,
                "end_time": 30.863636363636363,
                "pitch": 72,
                "velocity": 64,
                "duration": 0.39545454545454817,
                "tempo": 120.0
            },
            {
                "start_time": 31.079545454545453,
                "end_time": 31.263636363636362,
                "pitch": 71,
                "velocity": 64,
                "duration": 0.18409090909090864,
                "tempo": 120.0
            },
            {
                "start_time": 31.474999999999998,
                "end_time": 31.65681818181818,
                "pitch": 69,
                "velocity": 64,
                "duration": 0.18181818181818343,
                "tempo": 120.0
            },
            {
                "start_time": 31.672727272727272,
                "end_time": 31.75681818181818,
                "pitch": 67,
                "velocity": 64,
                "duration": 0.08409090909090722,
                "tempo": 120.0
            },
            {
                "start_time": 32.28181818181818,
                "end_time": 32.36590909090909,
                "pitch": 59,
                "velocity": 64,
                "duration": 0.08409090909091077,
                "tempo": 120.0
            },
            {
                "start_time": 32.48181818181818,
                "end_time": 32.56590909090909,
                "pitch": 57,
                "velocity": 64,
                "duration": 0.08409090909091077,
                "tempo": 120.0
            },
            {
                "start_time": 32.88636363636363,
                "end_time": 32.96818181818182,
                "pitch": 59,
                "velocity": 64,
                "duration": 0.08181818181818556,
                "tempo": 120.0
            },
            {
                "start_time": 33.086363636363636,
                "end_time": 33.168181818181814,
                "pitch": 57,
                "velocity": 64,
                "duration": 0.08181818181817846,
                "tempo": 120.0
            },
            {
                "start_time": 33.28636363636363,
                "end_time": 33.36818181818182,
                "pitch": 64,
                "velocity": 64,
                "duration": 0.08181818181818556,
                "tempo": 120.0
            },
            {
                "start_time": 33.486363636363635,
                "end_time": 33.56818181818181,
                "pitch": 64,
                "velocity": 64,
                "duration": 0.08181818181817846,
                "tempo": 120.0
            },
            {
                "start_time": 33.68636363636364,
                "end_time": 33.87045454545454,
                "pitch": 65,
                "velocity": 64,
                "duration": 0.18409090909090509,
                "tempo": 120.0
            },
            {
                "start_time": 33.88636363636363,
                "end_time": 33.970454545454544,
                "pitch": 64,
                "velocity": 64,
                "duration": 0.08409090909091077,
                "tempo": 120.0
            },
            {
                "start_time": 34.28409090909091,
                "end_time": 34.36590909090909,
                "pitch": 62,
                "velocity": 64,
                "duration": 0.08181818181818556,
                "tempo": 120.0
            },
            {
                "start_time": 34.88409090909091,
                "end_time": 34.965909090909086,
                "pitch": 69,
                "velocity": 64,
                "duration": 0.08181818181817846,
                "tempo": 120.0
            },
            {
                "start_time": 35.48863636363636,
                "end_time": 35.574999999999996,
                "pitch": 59,
                "velocity": 64,
                "duration": 0.08636363636363598,
                "tempo": 120.0
            },
            {
                "start_time": 35.69318181818181,
                "end_time": 35.777272727272724,
                "pitch": 57,
                "velocity": 64,
                "duration": 0.08409090909091077,
                "tempo": 120.0
            },
            {
                "start_time": 36.09772727272727,
                "end_time": 36.18181818181818,
                "pitch": 59,
                "velocity": 64,
                "duration": 0.08409090909091077,
                "tempo": 120.0
            },
            {
                "start_time": 36.30227272727272,
                "end_time": 36.38636363636363,
                "pitch": 57,
                "velocity": 64,
                "duration": 0.08409090909091077,
                "tempo": 120.0
            },
            {
                "start_time": 36.50681818181818,
                "end_time": 36.58863636363636,
                "pitch": 64,
                "velocity": 64,
                "duration": 0.08181818181817846,
                "tempo": 120.0
            },
            {
                "start_time": 36.70454545454545,
                "end_time": 36.78636363636363,
                "pitch": 64,
                "velocity": 64,
                "duration": 0.08181818181817846,
                "tempo": 120.0
            },
            {
                "start_time": 36.9,
                "end_time": 37.08181818181818,
                "pitch": 69,
                "velocity": 64,
                "duration": 0.18181818181817988,
                "tempo": 120.0
            },
            {
                "start_time": 37.5,
                "end_time": 37.68181818181818,
                "pitch": 71,
                "velocity": 64,
                "duration": 0.18181818181817988,
                "tempo": 120.0
            },
            {
                "start_time": 38.10227272727273,
                "end_time": 38.28181818181818,
                "pitch": 72,
                "velocity": 64,
                "duration": 0.17954545454545467,
                "tempo": 120.0
            },
            {
                "start_time": 38.29772727272727,
                "end_time": 38.47727272727273,
                "pitch": 74,
                "velocity": 64,
                "duration": 0.17954545454545467,
                "tempo": 120.0
            }
        ],
        "Electric Guitar (clean)": [
            {
                "start_time": 0.0,
                "end_time": 1.5522727272727272,
                "pitch": 38,
                "velocity": 51,
                "duration": 1.5522727272727272,
                "tempo": 120.0
            },
            {
                "start_time": 1.5681818181818181,
                "end_time": 1.6522727272727271,
                "pitch": 37,
                "velocity": 51,
                "duration": 0.084090909090909,
                "tempo": 120.0
            },
            {
                "start_time": 1.7704545454545453,
                "end_time": 1.8545454545454545,
                "pitch": 37,
                "velocity": 51,
                "duration": 0.08409090909090922,
                "tempo": 120.0
            },
            {
                "start_time": 2.9636363636363634,
                "end_time": 3.0477272727272724,
                "pitch": 37,
                "velocity": 51,
                "duration": 0.084090909090909,
                "tempo": 120.0
            },
            {
                "start_time": 3.1636363636363636,
                "end_time": 4.761363636363636,
                "pitch": 41,
                "velocity": 51,
                "duration": 1.5977272727272722,
                "tempo": 120.0
            },
            {
                "start_time": 4.777272727272727,
                "end_time": 4.861363636363636,
                "pitch": 40,
                "velocity": 51,
                "duration": 0.084090909090909,
                "tempo": 120.0
            },
            {
                "start_time": 4.977272727272727,
                "end_time": 5.0613636363636365,
                "pitch": 40,
                "velocity": 51,
                "duration": 0.08409090909090988,
                "tempo": 120.0
            },
            {
                "start_time": 5.179545454545455,
                "end_time": 5.263636363636364,
                "pitch": 40,
                "velocity": 51,
                "duration": 0.084090909090909,
                "tempo": 120.0
            },
            {
                "start_time": 6.377272727272727,
                "end_time": 6.561363636363636,
                "pitch": 38,
                "velocity": 51,
                "duration": 0.18409090909090864,
                "tempo": 120.0
            },
            {
                "start_time": 6.577272727272727,
                "end_time": 6.761363636363636,
                "pitch": 37,
                "velocity": 51,
                "duration": 0.18409090909090864,
                "tempo": 120.0
            },
            {
                "start_time": 6.777272727272727,
                "end_time": 6.965909090909091,
                "pitch": 41,
                "velocity": 51,
                "duration": 0.1886363636363635,
                "tempo": 120.0
            },
            {
                "start_time": 6.9818181818181815,
                "end_time": 7.170454545454545,
                "pitch": 40,
                "velocity": 51,
                "duration": 0.1886363636363635,
                "tempo": 120.0
            },
            {
                "start_time": 7.384090909090909,
                "end_time": 7.465909090909091,
                "pitch": 33,
                "velocity": 51,
                "duration": 0.08181818181818201,
                "tempo": 120.0
            },
            {
                "start_time": 7.579545454545454,
                "end_time": 7.663636363636363,
                "pitch": 33,
                "velocity": 51,
                "duration": 0.084090909090909,
                "tempo": 120.0
            },
            {
                "start_time": 7.781818181818181,
                "end_time": 7.86590909090909,
                "pitch": 33,
                "velocity": 51,
                "duration": 0.084090909090909,
                "tempo": 120.0
            },
            {
                "start_time": 7.9818181818181815,
                "end_time": 8.168181818181818,
                "pitch": 41,
                "velocity": 51,
                "duration": 0.1863636363636365,
                "tempo": 120.0
            },
            {
                "start_time": 8.184090909090909,
                "end_time": 8.368181818181817,
                "pitch": 38,
                "velocity": 51,
                "duration": 0.18409090909090864,
                "tempo": 120.0
            },
            {
                "start_time": 8.386363636363637,
                "end_time": 8.572727272727272,
                "pitch": 45,
                "velocity": 51,
                "duration": 0.18636363636363562,
                "tempo": 120.0
            },
            {
                "start_time": 8.59090909090909,
                "end_time": 8.779545454545454,
                "pitch": 43,
                "velocity": 51,
                "duration": 0.18863636363636438,
                "tempo": 120.0
            },
            {
                "start_time": 8.993181818181817,
                "end_time": 9.072727272727272,
                "pitch": 40,
                "velocity": 51,
                "duration": 0.07954545454545503,
                "tempo": 120.0
            },
            {
                "start_time": 9.188636363636363,
                "end_time": 9.272727272727272,
                "pitch": 40,
                "velocity": 51,
                "duration": 0.084090909090909,
                "tempo": 120.0
            },
            {
                "start_time": 9.393181818181818,
                "end_time": 9.479545454545454,
                "pitch": 40,
                "velocity": 51,
                "duration": 0.08636363636363598,
                "tempo": 120.0
            },
            {
                "start_time": 9.597727272727273,
                "end_time": 9.98409090909091,
                "pitch": 45,
                "velocity": 51,
                "duration": 0.3863636363636367,
                "tempo": 120.0
            },
            {
                "start_time": 10.002272727272727,
                "end_time": 10.388636363636364,
                "pitch": 43,
                "velocity": 51,
                "duration": 0.3863636363636367,
                "tempo": 120.0
            },
            {
                "start_time": 10.404545454545454,
                "end_time": 10.790909090909091,
                "pitch": 41,
                "velocity": 51,
                "duration": 0.3863636363636367,
                "tempo": 120.0
            },
            {
                "start_time": 10.806818181818182,
                "end_time": 11.19090909090909,
                "pitch": 40,
                "velocity": 51,
                "duration": 0.38409090909090793,
                "tempo": 120.0
            },
            {
                "start_time": 11.206818181818182,
                "end_time": 11.39090909090909,
                "pitch": 33,
                "velocity": 51,
                "duration": 0.18409090909090864,
                "tempo": 120.0
            },
            {
                "start_time": 11.409090909090908,
                "end_time": 11.593181818181817,
                "pitch": 45,
                "velocity": 51,
                "duration": 0.18409090909090864,
                "tempo": 120.0
            },
            {
                "start_time": 11.60909090909091,
                "end_time": 11.793181818181818,
                "pitch": 31,
                "velocity": 51,
                "duration": 0.18409090909090864,
                "tempo": 120.0
            },
            {
                "start_time": 11.811363636363636,
                "end_time": 11.995454545454544,
                "pitch": 43,
                "velocity": 51,
                "duration": 0.18409090909090864,
                "tempo": 120.0
            },
            {
                "start_time": 12.011363636363635,
                "end_time": 12.197727272727272,
                "pitch": 29,
                "velocity": 51,
                "duration": 0.1863636363636374,
                "tempo": 120.0
            },
            {
                "start_time": 12.213636363636363,
                "end_time": 12.397727272727272,
                "pitch": 41,
                "velocity": 51,
                "duration": 0.18409090909090864,
                "tempo": 120.0
            },
            {
                "start_time": 12.415909090909091,
                "end_time": 12.6,
                "pitch": 28,
                "velocity": 51,
                "duration": 0.18409090909090864,
                "tempo": 120.0
            },
            {
                "start_time": 12.61590909090909,
                "end_time": 12.799999999999999,
                "pitch": 40,
                "velocity": 51,
                "duration": 0.18409090909090864,
                "tempo": 120.0
            },
            {
                "start_time": 12.818181818181818,
                "end_time": 13.002272727272727,
                "pitch": 38,
                "velocity": 51,
                "duration": 0.18409090909090864,
                "tempo": 120.0
            },
            {
                "start_time": 13.018181818181818,
                "end_time": 13.202272727272726,
                "pitch": 38,
                "velocity": 51,
                "duration": 0.18409090909090864,
                "tempo": 120.0
            },
            {
                "start_time": 13.218181818181817,
                "end_time": 13.402272727272727,
                "pitch": 50,
                "velocity": 51,
                "duration": 0.18409090909091042,
                "tempo": 120.0
            },
            {
                "start_time": 13.418181818181818,
                "end_time": 13.809090909090909,
                "pitch": 38,
                "velocity": 51,
                "duration": 0.39090909090909065,
                "tempo": 120.0
            },
            {
                "start_time": 13.825,
                "end_time": 14.013636363636364,
                "pitch": 38,
                "velocity": 51,
                "duration": 0.18863636363636438,
                "tempo": 120.0
            },
            {
                "start_time": 14.031818181818181,
                "end_time": 14.406818181818181,
                "pitch": 50,
                "velocity": 51,
                "duration": 0.375,
                "tempo": 120.0
            },
            {
                "start_time": 14.422727272727272,
                "end_time": 14.60681818181818,
                "pitch": 38,
                "velocity": 51,
                "duration": 0.18409090909090864,
                "tempo": 120.0
            },
            {
                "start_time": 14.625,
                "end_time": 14.709090909090909,
                "pitch": 48,
                "velocity": 51,
                "duration": 0.084090909090909,
                "tempo": 120.0
            },
            {
                "start_time": 14.725,
                "end_time": 14.809090909090909,
                "pitch": 48,
                "velocity": 51,
                "duration": 0.084090909090909,
                "tempo": 120.0
            },
            {
                "start_time": 14.825,
                "end_time": 14.906818181818181,
                "pitch": 48,
                "velocity": 51,
                "duration": 0.08181818181818201,
                "tempo": 120.0
            },
            {
                "start_time": 15.022727272727272,
                "end_time": 15.104545454545454,
                "pitch": 47,
                "velocity": 51,
                "duration": 0.08181818181818201,
                "tempo": 120.0
            },
            {
                "start_time": 15.120454545454544,
                "end_time": 15.202272727272726,
                "pitch": 47,
                "velocity": 51,
                "duration": 0.08181818181818201,
                "tempo": 120.0
            },
            {
                "start_time": 15.218181818181817,
                "end_time": 15.304545454545455,
                "pitch": 47,
                "velocity": 51,
                "duration": 0.08636363636363775,
                "tempo": 120.0
            },
            {
                "start_time": 15.422727272727272,
                "end_time": 15.611363636363636,
                "pitch": 45,
                "velocity": 51,
                "duration": 0.18863636363636438,
                "tempo": 120.0
            },
            {
                "start_time": 15.629545454545454,
                "end_time": 15.813636363636363,
                "pitch": 43,
                "velocity": 51,
                "duration": 0.18409090909090864,
                "tempo": 120.0
            },
            {
                "start_time": 15.829545454545453,
                "end_time": 16.01590909090909,
                "pitch": 45,
                "velocity": 51,
                "duration": 0.1863636363636374,
                "tempo": 120.0
            },
            {
                "start_time": 16.03181818181818,
                "end_time": 16.21590909090909,
                "pitch": 38,
                "velocity": 51,
                "duration": 0.18409090909090864,
                "tempo": 120.0
            },
            {
                "start_time": 16.23181818181818,
                "end_time": 16.418181818181818,
                "pitch": 38,
                "velocity": 51,
                "duration": 0.1863636363636374,
                "tempo": 120.0
            },
            {
                "start_time": 16.43409090909091,
                "end_time": 16.613636363636363,
                "pitch": 50,
                "velocity": 51,
                "duration": 0.17954545454545467,
                "tempo": 120.0
            },
            {
                "start_time": 16.629545454545454,
                "end_time": 17.018181818181816,
                "pitch": 38,
                "velocity": 51,
                "duration": 0.3886363636363619,
                "tempo": 120.0
            },
            {
                "start_time": 17.036363636363635,
                "end_time": 17.229545454545455,
                "pitch": 38,
                "velocity": 51,
                "duration": 0.19318181818182012,
                "tempo": 120.0
            },
            {
                "start_time": 17.24772727272727,
                "end_time": 17.613636363636363,
                "pitch": 50,
                "velocity": 51,
                "duration": 0.36590909090909207,
                "tempo": 120.0
            },
            {
                "start_time": 17.629545454545454,
                "end_time": 17.818181818181817,
                "pitch": 38,
                "velocity": 51,
                "duration": 0.1886363636363626,
                "tempo": 120.0
            },
            {
                "start_time": 17.834090909090907,
                "end_time": 17.920454545454543,
                "pitch": 48,
                "velocity": 51,
                "duration": 0.08636363636363598,
                "tempo": 120.0
            },
            {
                "start_time": 17.936363636363634,
                "end_time": 18.022727272727273,
                "pitch": 48,
                "velocity": 51,
                "duration": 0.08636363636363953,
                "tempo": 120.0
            },
            {
                "start_time": 18.04090909090909,
                "end_time": 18.12272727272727,
                "pitch": 48,
                "velocity": 51,
                "duration": 0.08181818181818201,
                "tempo": 120.0
            },
            {
                "start_time": 18.24090909090909,
                "end_time": 18.32272727272727,
                "pitch": 47,
                "velocity": 51,
                "duration": 0.08181818181818201,
                "tempo": 120.0
            },
            {
                "start_time": 18.34090909090909,
                "end_time": 18.422727272727272,
                "pitch": 47,
                "velocity": 51,
                "duration": 0.08181818181818201,
                "tempo": 120.0
            },
            {
                "start_time": 18.44090909090909,
                "end_time": 18.522727272727273,
                "pitch": 47,
                "velocity": 51,
                "duration": 0.08181818181818201,
                "tempo": 120.0
            },
            {
                "start_time": 18.636363636363637,
                "end_time": 18.81590909090909,
                "pitch": 45,
                "velocity": 51,
                "duration": 0.17954545454545467,
                "tempo": 120.0
            },
            {
                "start_time": 18.831818181818182,
                "end_time": 19.01590909090909,
                "pitch": 43,
                "velocity": 51,
                "duration": 0.18409090909090864,
                "tempo": 120.0
            },
            {
                "start_time": 19.034090909090907,
                "end_time": 19.21818181818182,
                "pitch": 45,
                "velocity": 51,
                "duration": 0.1840909090909122,
                "tempo": 120.0
            },
            {
                "start_time": 19.23409090909091,
                "end_time": 19.422727272727272,
                "pitch": 38,
                "velocity": 51,
                "duration": 0.1886363636363626,
                "tempo": 120.0
            },
            {
                "start_time": 19.44090909090909,
                "end_time": 19.629545454545454,
                "pitch": 38,
                "velocity": 51,
                "duration": 0.1886363636363626,
                "tempo": 120.0
            },
            {
                "start_time": 19.645454545454545,
                "end_time": 19.825,
                "pitch": 50,
                "velocity": 51,
                "duration": 0.17954545454545467,
                "tempo": 120.0
            },
            {
                "start_time": 19.84090909090909,
                "end_time": 20.229545454545452,
                "pitch": 38,
                "velocity": 51,
                "duration": 0.3886363636363619,
                "tempo": 120.0
            },
            {
                "start_time": 20.24772727272727,
                "end_time": 20.44090909090909,
                "pitch": 38,
                "velocity": 51,
                "duration": 0.19318181818182012,
                "tempo": 120.0
            },
            {
                "start_time": 20.459090909090907,
                "end_time": 20.836363636363636,
                "pitch": 50,
                "velocity": 51,
                "duration": 0.37727272727272876,
                "tempo": 120.0
            },
            {
                "start_time": 20.852272727272727,
                "end_time": 21.034090909090907,
                "pitch": 38,
                "velocity": 51,
                "duration": 0.18181818181817988,
                "tempo": 120.0
            },
            {
                "start_time": 21.052272727272726,
                "end_time": 21.134090909090908,
                "pitch": 48,
                "velocity": 51,
                "duration": 0.08181818181818201,
                "tempo": 120.0
            },
            {
                "start_time": 21.152272727272727,
                "end_time": 21.23409090909091,
                "pitch": 48,
                "velocity": 51,
                "duration": 0.08181818181818201,
                "tempo": 120.0
            },
            {
                "start_time": 21.252272727272725,
                "end_time": 21.334090909090907,
                "pitch": 48,
                "velocity": 51,
                "duration": 0.08181818181818201,
                "tempo": 120.0
            },
            {
                "start_time": 21.44772727272727,
                "end_time": 21.529545454545453,
                "pitch": 47,
                "velocity": 51,
                "duration": 0.08181818181818201,
                "tempo": 120.0
            },
            {
                "start_time": 21.545454545454543,
                "end_time": 21.627272727272725,
                "pitch": 47,
                "velocity": 51,
                "duration": 0.08181818181818201,
                "tempo": 120.0
            },
            {
                "start_time": 21.643181818181816,
                "end_time": 21.729545454545452,
                "pitch": 47,
                "velocity": 51,
                "duration": 0.08636363636363598,
                "tempo": 120.0
            },
            {
                "start_time": 21.847727272727273,
                "end_time": 22.036363636363635,
                "pitch": 45,
                "velocity": 51,
                "duration": 0.1886363636363626,
                "tempo": 120.0
            },
            {
                "start_time": 22.054545454545455,
                "end_time": 22.238636363636363,
                "pitch": 43,
                "velocity": 51,
                "duration": 0.18409090909090864,
                "tempo": 120.0
            },
            {
                "start_time": 22.254545454545454,
                "end_time": 22.438636363636363,
                "pitch": 45,
                "velocity": 51,
                "duration": 0.18409090909090864,
                "tempo": 120.0
            },
            {
                "start_time": 22.454545454545453,
                "end_time": 22.643181818181816,
                "pitch": 38,
                "velocity": 51,
                "duration": 0.1886363636363626,
                "tempo": 120.0
            },
            {
                "start_time": 22.659090909090907,
                "end_time": 22.847727272727273,
                "pitch": 38,
                "velocity": 51,
                "duration": 0.18863636363636616,
                "tempo": 120.0
            },
            {
                "start_time": 22.863636363636363,
                "end_time": 23.04090909090909,
                "pitch": 50,
                "velocity": 51,
                "duration": 0.17727272727272592,
                "tempo": 120.0
            },
            {
                "start_time": 23.05681818181818,
                "end_time": 23.438636363636363,
                "pitch": 38,
                "velocity": 51,
                "duration": 0.3818181818181827,
                "tempo": 120.0
            },
            {
                "start_time": 23.456818181818182,
                "end_time": 23.65,
                "pitch": 38,
                "velocity": 51,
                "duration": 0.19318181818181657,
                "tempo": 120.0
            },
            {
                "start_time": 23.668181818181818,
                "end_time": 24.043181818181818,
                "pitch": 50,
                "velocity": 51,
                "duration": 0.375,
                "tempo": 120.0
            },
            {
                "start_time": 24.061363636363634,
                "end_time": 24.243181818181817,
                "pitch": 38,
                "velocity": 51,
                "duration": 0.18181818181818343,
                "tempo": 120.0
            },
            {
                "start_time": 24.261363636363637,
                "end_time": 24.34318181818182,
                "pitch": 48,
                "velocity": 51,
                "duration": 0.08181818181818201,
                "tempo": 120.0
            },
            {
                "start_time": 24.361363636363635,
                "end_time": 24.443181818181817,
                "pitch": 48,
                "velocity": 51,
                "duration": 0.08181818181818201,
                "tempo": 120.0
            },
            {
                "start_time": 24.461363636363636,
                "end_time": 24.543181818181818,
                "pitch": 48,
                "velocity": 51,
                "duration": 0.08181818181818201,
                "tempo": 120.0
            },
            {
                "start_time": 24.661363636363635,
                "end_time": 24.745454545454542,
                "pitch": 47,
                "velocity": 51,
                "duration": 0.08409090909090722,
                "tempo": 120.0
            },
            {
                "start_time": 24.761363636363637,
                "end_time": 24.845454545454544,
                "pitch": 47,
                "velocity": 51,
                "duration": 0.08409090909090722,
                "tempo": 120.0
            },
            {
                "start_time": 24.863636363636363,
                "end_time": 24.945454545454545,
                "pitch": 47,
                "velocity": 51,
                "duration": 0.08181818181818201,
                "tempo": 120.0
            },
            {
                "start_time": 25.05909090909091,
                "end_time": 25.238636363636363,
                "pitch": 45,
                "velocity": 51,
                "duration": 0.17954545454545467,
                "tempo": 120.0
            },
            {
                "start_time": 25.254545454545454,
                "end_time": 25.438636363636363,
                "pitch": 43,
                "velocity": 51,
                "duration": 0.18409090909090864,
                "tempo": 120.0
            },
            {
                "start_time": 25.454545454545453,
                "end_time": 25.638636363636362,
                "pitch": 45,
                "velocity": 51,
                "duration": 0.18409090909090864,
                "tempo": 120.0
            },
            {
                "start_time": 25.654545454545453,
                "end_time": 25.84318181818182,
                "pitch": 31,
                "velocity": 51,
                "duration": 0.18863636363636616,
                "tempo": 120.0
            },
            {
                "start_time": 25.861363636363635,
                "end_time": 26.047727272727272,
                "pitch": 31,
                "velocity": 51,
                "duration": 0.1863636363636374,
                "tempo": 120.0
            },
            {
                "start_time": 26.06590909090909,
                "end_time": 26.245454545454542,
                "pitch": 43,
                "velocity": 51,
                "duration": 0.17954545454545112,
                "tempo": 120.0
            },
            {
                "start_time": 26.261363636363637,
                "end_time": 26.645454545454545,
                "pitch": 31,
                "velocity": 51,
                "duration": 0.38409090909090793,
                "tempo": 120.0
            },
            {
                "start_time": 26.663636363636364,
                "end_time": 26.852272727272727,
                "pitch": 31,
                "velocity": 51,
                "duration": 0.1886363636363626,
                "tempo": 120.0
            },
            {
                "start_time": 26.868181818181817,
                "end_time": 27.243181818181817,
                "pitch": 43,
                "velocity": 51,
                "duration": 0.375,
                "tempo": 120.0
            },
            {
                "start_time": 27.261363636363637,
                "end_time": 27.44772727272727,
                "pitch": 31,
                "velocity": 51,
                "duration": 0.18636363636363384,
                "tempo": 120.0
            },
            {
                "start_time": 27.46590909090909,
                "end_time": 27.552272727272726,
                "pitch": 41,
                "velocity": 51,
                "duration": 0.08636363636363598,
                "tempo": 120.0
            },
            {
                "start_time": 27.568181818181817,
                "end_time": 27.654545454545453,
                "pitch": 41,
                "velocity": 51,
                "duration": 0.08636363636363598,
                "tempo": 120.0
            },
            {
                "start_time": 27.670454545454543,
                "end_time": 27.754545454545454,
                "pitch": 41,
                "velocity": 51,
                "duration": 0.08409090909091077,
                "tempo": 120.0
            },
            {
                "start_time": 27.870454545454542,
                "end_time": 27.954545454545453,
                "pitch": 40,
                "velocity": 51,
                "duration": 0.08409090909091077,
                "tempo": 120.0
            },
            {
                "start_time": 27.970454545454544,
                "end_time": 28.054545454545455,
                "pitch": 40,
                "velocity": 51,
                "duration": 0.08409090909091077,
                "tempo": 120.0
            },
            {
                "start_time": 28.070454545454545,
                "end_time": 28.154545454545453,
                "pitch": 40,
                "velocity": 51,
                "duration": 0.08409090909090722,
                "tempo": 120.0
            },
            {
                "start_time": 28.270454545454545,
                "end_time": 28.454545454545453,
                "pitch": 38,
                "velocity": 51,
                "duration": 0.18409090909090864,
                "tempo": 120.0
            },
            {
                "start_time": 28.470454545454544,
                "end_time": 28.659090909090907,
                "pitch": 36,
                "velocity": 51,
                "duration": 0.1886363636363626,
                "tempo": 120.0
            },
            {
                "start_time": 28.677272727272726,
                "end_time": 28.863636363636363,
                "pitch": 38,
                "velocity": 51,
                "duration": 0.1863636363636374,
                "tempo": 120.0
            },
            {
                "start_time": 28.88181818181818,
                "end_time": 29.061363636363634,
                "pitch": 31,
                "velocity": 51,
                "duration": 0.17954545454545467,
                "tempo": 120.0
            },
            {
                "start_time": 29.077272727272724,
                "end_time": 29.259090909090908,
                "pitch": 31,
                "velocity": 51,
                "duration": 0.18181818181818343,
                "tempo": 120.0
            },
            {
                "start_time": 29.275,
                "end_time": 29.454545454545453,
                "pitch": 43,
                "velocity": 51,
                "duration": 0.17954545454545467,
                "tempo": 120.0
            },
            {
                "start_time": 29.470454545454544,
                "end_time": 29.854545454545452,
                "pitch": 31,
                "velocity": 51,
                "duration": 0.38409090909090793,
                "tempo": 120.0
            },
            {
                "start_time": 29.87272727272727,
                "end_time": 30.05909090909091,
                "pitch": 31,
                "velocity": 51,
                "duration": 0.1863636363636374,
                "tempo": 120.0
            },
            {
                "start_time": 30.077272727272724,
                "end_time": 30.452272727272724,
                "pitch": 43,
                "velocity": 51,
                "duration": 0.375,
                "tempo": 120.0
            },
            {
                "start_time": 30.468181818181815,
                "end_time": 30.65681818181818,
                "pitch": 31,
                "velocity": 51,
                "duration": 0.18863636363636616,
                "tempo": 120.0
            },
            {
                "start_time": 30.674999999999997,
                "end_time": 30.759090909090908,
                "pitch": 41,
                "velocity": 51,
                "duration": 0.08409090909091077,
                "tempo": 120.0
            },
            {
                "start_time": 30.777272727272727,
                "end_time": 30.863636363636363,
                "pitch": 41,
                "velocity": 51,
                "duration": 0.08636363636363598,
                "tempo": 120.0
            },
            {
                "start_time": 30.879545454545454,
                "end_time": 30.96363636363636,
                "pitch": 41,
                "velocity": 51,
                "duration": 0.08409090909090722,
                "tempo": 120.0
            },
            {
                "start_time": 31.079545454545453,
                "end_time": 31.16363636363636,
                "pitch": 40,
                "velocity": 51,
                "duration": 0.08409090909090722,
                "tempo": 120.0
            },
            {
                "start_time": 31.179545454545455,
                "end_time": 31.263636363636362,
                "pitch": 40,
                "velocity": 51,
                "duration": 0.08409090909090722,
                "tempo": 120.0
            },
            {
                "start_time": 31.279545454545453,
                "end_time": 31.361363636363635,
                "pitch": 40,
                "velocity": 51,
                "duration": 0.08181818181818201,
                "tempo": 120.0
            },
            {
                "start_time": 31.474999999999998,
                "end_time": 31.65681818181818,
                "pitch": 38,
                "velocity": 51,
                "duration": 0.18181818181818343,
                "tempo": 120.0
            },
            {
                "start_time": 31.672727272727272,
                "end_time": 31.859090909090906,
                "pitch": 36,
                "velocity": 51,
                "duration": 0.18636363636363384,
                "tempo": 120.0
            },
            {
                "start_time": 31.877272727272725,
                "end_time": 32.06590909090909,
                "pitch": 38,
                "velocity": 51,
                "duration": 0.1886363636363626,
                "tempo": 120.0
            },
            {
                "start_time": 32.08181818181818,
                "end_time": 32.26590909090909,
                "pitch": 38,
                "velocity": 51,
                "duration": 0.1840909090909122,
                "tempo": 120.0
            },
            {
                "start_time": 32.28181818181818,
                "end_time": 32.465909090909086,
                "pitch": 38,
                "velocity": 51,
                "duration": 0.18409090909090509,
                "tempo": 120.0
            },
            {
                "start_time": 32.48181818181818,
                "end_time": 32.668181818181814,
                "pitch": 50,
                "velocity": 51,
                "duration": 0.1863636363636374,
                "tempo": 120.0
            },
            {
                "start_time": 32.684090909090905,
                "end_time": 33.06818181818182,
                "pitch": 38,
                "velocity": 51,
                "duration": 0.38409090909091503,
                "tempo": 120.0
            },
            {
                "start_time": 33.086363636363636,
                "end_time": 33.268181818181816,
                "pitch": 38,
                "velocity": 51,
                "duration": 0.18181818181817988,
                "tempo": 120.0
            },
            {
                "start_time": 33.28636363636363,
                "end_time": 33.668181818181814,
                "pitch": 50,
                "velocity": 51,
                "duration": 0.3818181818181827,
                "tempo": 120.0
            },
            {
                "start_time": 33.68636363636364,
                "end_time": 33.87045454545454,
                "pitch": 38,
                "velocity": 51,
                "duration": 0.18409090909090509,
                "tempo": 120.0
            },
            {
                "start_time": 33.88636363636363,
                "end_time": 33.970454545454544,
                "pitch": 48,
                "velocity": 51,
                "duration": 0.08409090909091077,
                "tempo": 120.0
            },
            {
                "start_time": 33.98863636363636,
                "end_time": 34.070454545454545,
                "pitch": 48,
                "velocity": 51,
                "duration": 0.08181818181818556,
                "tempo": 120.0
            },
            {
                "start_time": 34.08863636363636,
                "end_time": 34.17045454545455,
                "pitch": 48,
                "velocity": 51,
                "duration": 0.08181818181818556,
                "tempo": 120.0
            },
            {
                "start_time": 34.28409090909091,
                "end_time": 34.36590909090909,
                "pitch": 47,
                "velocity": 51,
                "duration": 0.08181818181818556,
                "tempo": 120.0
            },
            {
                "start_time": 34.38181818181818,
                "end_time": 34.46363636363636,
                "pitch": 47,
                "velocity": 51,
                "duration": 0.08181818181817846,
                "tempo": 120.0
            },
            {
                "start_time": 34.47954545454545,
                "end_time": 34.56363636363636,
                "pitch": 47,
                "velocity": 51,
                "duration": 0.08409090909091077,
                "tempo": 120.0
            },
            {
                "start_time": 34.68181818181818,
                "end_time": 34.86590909090909,
                "pitch": 45,
                "velocity": 51,
                "duration": 0.1840909090909122,
                "tempo": 120.0
            },
            {
                "start_time": 34.88409090909091,
                "end_time": 35.06590909090909,
                "pitch": 43,
                "velocity": 51,
                "duration": 0.18181818181817988,
                "tempo": 120.0
            },
            {
                "start_time": 35.08409090909091,
                "end_time": 35.26590909090909,
                "pitch": 45,
                "velocity": 51,
                "duration": 0.18181818181817988,
                "tempo": 120.0
            },
            {
                "start_time": 35.28409090909091,
                "end_time": 35.470454545454544,
                "pitch": 38,
                "velocity": 51,
                "duration": 0.1863636363636374,
                "tempo": 120.0
            },
            {
                "start_time": 35.48863636363636,
                "end_time": 35.67727272727272,
                "pitch": 38,
                "velocity": 51,
                "duration": 0.1886363636363626,
                "tempo": 120.0
            },
            {
                "start_time": 35.69318181818181,
                "end_time": 35.87954545454545,
                "pitch": 50,
                "velocity": 51,
                "duration": 0.1863636363636374,
                "tempo": 120.0
            },
            {
                "start_time": 35.89545454545454,
                "end_time": 36.28409090909091,
                "pitch": 38,
                "velocity": 51,
                "duration": 0.38863636363636545,
                "tempo": 120.0
            },
            {
                "start_time": 36.30227272727272,
                "end_time": 36.49090909090909,
                "pitch": 38,
                "velocity": 51,
                "duration": 0.1886363636363697,
                "tempo": 120.0
            },
            {
                "start_time": 36.50681818181818,
                "end_time": 36.88409090909091,
                "pitch": 50,
                "velocity": 51,
                "duration": 0.3772727272727252,
                "tempo": 120.0
            },
            {
                "start_time": 36.9,
                "end_time": 37.08181818181818,
                "pitch": 38,
                "velocity": 51,
                "duration": 0.18181818181817988,
                "tempo": 120.0
            },
            {
                "start_time": 37.1,
                "end_time": 37.18181818181818,
                "pitch": 48,
                "velocity": 51,
                "duration": 0.08181818181817846,
                "tempo": 120.0
            },
            {
                "start_time": 37.199999999999996,
                "end_time": 37.28181818181818,
                "pitch": 48,
                "velocity": 51,
                "duration": 0.08181818181818556,
                "tempo": 120.0
            },
            {
                "start_time": 37.3,
                "end_time": 37.38181818181818,
                "pitch": 48,
                "velocity": 51,
                "duration": 0.08181818181818556,
                "tempo": 120.0
            },
            {
                "start_time": 37.5,
                "end_time": 37.58181818181818,
                "pitch": 47,
                "velocity": 51,
                "duration": 0.08181818181817846,
                "tempo": 120.0
            },
            {
                "start_time": 37.6,
                "end_time": 37.68181818181818,
                "pitch": 47,
                "velocity": 51,
                "duration": 0.08181818181817846,
                "tempo": 120.0
            },
            {
                "start_time": 37.699999999999996,
                "end_time": 37.78409090909091,
                "pitch": 47,
                "velocity": 51,
                "duration": 0.08409090909091077,
                "tempo": 120.0
            },
            {
                "start_time": 37.9,
                "end_time": 38.086363636363636,
                "pitch": 45,
                "velocity": 51,
                "duration": 0.1863636363636374,
                "tempo": 120.0
            },
            {
                "start_time": 38.10227272727273,
                "end_time": 38.28181818181818,
                "pitch": 43,
                "velocity": 51,
                "duration": 0.17954545454545467,
                "tempo": 120.0
            },
            {
                "start_time": 38.29772727272727,
                "end_time": 38.47727272727273,
                "pitch": 45,
                "velocity": 51,
                "duration": 0.17954545454545467,
                "tempo": 120.0
            }
        ],
        "Lead 2 (sawtooth)": [
            {
                "start_time": 0.0,
                "end_time": 0.16363636363636364,
                "pitch": 62,
                "velocity": 40,
                "duration": 0.16363636363636364,
                "tempo": 120.0
            },
            {
                "start_time": 0.5659090909090909,
                "end_time": 0.6454545454545454,
                "pitch": 57,
                "velocity": 40,
                "duration": 0.07954545454545447,
                "tempo": 120.0
            },
            {
                "start_time": 0.6613636363636364,
                "end_time": 0.7409090909090909,
                "pitch": 60,
                "velocity": 40,
                "duration": 0.07954545454545447,
                "tempo": 120.0
            },
            {
                "start_time": 0.7568181818181818,
                "end_time": 0.9454545454545454,
                "pitch": 62,
                "velocity": 40,
                "duration": 0.1886363636363636,
                "tempo": 120.0
            },
            {
                "start_time": 0.9636363636363636,
                "end_time": 1.1522727272727271,
                "pitch": 64,
                "velocity": 40,
                "duration": 0.1886363636363635,
                "tempo": 120.0
            },
            {
                "start_time": 1.1681818181818182,
                "end_time": 1.5522727272727272,
                "pitch": 65,
                "velocity": 40,
                "duration": 0.38409090909090904,
                "tempo": 120.0
            },
            {
                "start_time": 1.5681818181818181,
                "end_time": 1.7522727272727272,
                "pitch": 57,
                "velocity": 40,
                "duration": 0.18409090909090908,
                "tempo": 120.0
            },
            {
                "start_time": 3.1636363636363636,
                "end_time": 3.3477272727272727,
                "pitch": 62,
                "velocity": 40,
                "duration": 0.18409090909090908,
                "tempo": 120.0
            },
            {
                "start_time": 3.7659090909090907,
                "end_time": 3.8499999999999996,
                "pitch": 57,
                "velocity": 40,
                "duration": 0.084090909090909,
                "tempo": 120.0
            },
            {
                "start_time": 3.8659090909090907,
                "end_time": 3.9499999999999997,
                "pitch": 60,
                "velocity": 40,
                "duration": 0.084090909090909,
                "tempo": 120.0
            },
            {
                "start_time": 3.965909090909091,
                "end_time": 4.154545454545454,
                "pitch": 62,
                "velocity": 40,
                "duration": 0.1886363636363635,
                "tempo": 120.0
            },
            {
                "start_time": 4.170454545454545,
                "end_time": 4.3590909090909085,
                "pitch": 64,
                "velocity": 40,
                "duration": 0.1886363636363635,
                "tempo": 120.0
            },
            {
                "start_time": 4.377272727272727,
                "end_time": 4.761363636363636,
                "pitch": 65,
                "velocity": 40,
                "duration": 0.3840909090909088,
                "tempo": 120.0
            },
            {
                "start_time": 4.777272727272727,
                "end_time": 4.961363636363636,
                "pitch": 67,
                "velocity": 40,
                "duration": 0.18409090909090864,
                "tempo": 120.0
            },
            {
                "start_time": 6.377272727272727,
                "end_time": 6.461363636363636,
                "pitch": 74,
                "velocity": 40,
                "duration": 0.084090909090909,
                "tempo": 120.0
            },
            {
                "start_time": 6.477272727272727,
                "end_time": 6.561363636363636,
                "pitch": 72,
                "velocity": 40,
                "duration": 0.084090909090909,
                "tempo": 120.0
            },
            {
                "start_time": 6.577272727272727,
                "end_time": 6.661363636363636,
                "pitch": 69,
                "velocity": 40,
                "duration": 0.084090909090909,
                "tempo": 120.0
            },
            {
                "start_time": 6.677272727272727,
                "end_time": 6.761363636363636,
                "pitch": 65,
                "velocity": 40,
                "duration": 0.084090909090909,
                "tempo": 120.0
            },
            {
                "start_time": 6.777272727272727,
                "end_time": 6.863636363636363,
                "pitch": 67,
                "velocity": 40,
                "duration": 0.08636363636363598,
                "tempo": 120.0
            },
            {
                "start_time": 6.879545454545454,
                "end_time": 6.965909090909091,
                "pitch": 65,
                "velocity": 40,
                "duration": 0.08636363636363686,
                "tempo": 120.0
            },
            {
                "start_time": 6.9818181818181815,
                "end_time": 7.0681818181818175,
                "pitch": 62,
                "velocity": 40,
                "duration": 0.08636363636363598,
                "tempo": 120.0
            },
            {
                "start_time": 7.084090909090909,
                "end_time": 7.170454545454545,
                "pitch": 60,
                "velocity": 40,
                "duration": 0.08636363636363598,
                "tempo": 120.0
            },
            {
                "start_time": 7.384090909090909,
                "end_time": 7.465909090909091,
                "pitch": 60,
                "velocity": 40,
                "duration": 0.08181818181818201,
                "tempo": 120.0
            },
            {
                "start_time": 7.4818181818181815,
                "end_time": 7.5636363636363635,
                "pitch": 62,
                "velocity": 40,
                "duration": 0.08181818181818201,
                "tempo": 120.0
            },
            {
                "start_time": 7.579545454545454,
                "end_time": 7.663636363636363,
                "pitch": 65,
                "velocity": 40,
                "duration": 0.084090909090909,
                "tempo": 120.0
            },
            {
                "start_time": 7.679545454545454,
                "end_time": 7.763636363636364,
                "pitch": 67,
                "velocity": 40,
                "duration": 0.08409090909090988,
                "tempo": 120.0
            },
            {
                "start_time": 7.9818181818181815,
                "end_time": 8.065909090909091,
                "pitch": 62,
                "velocity": 40,
                "duration": 0.08409090909090988,
                "tempo": 120.0
            },
            {
                "start_time": 8.084090909090909,
                "end_time": 8.168181818181818,
                "pitch": 65,
                "velocity": 40,
                "duration": 0.084090909090909,
                "tempo": 120.0
            },
            {
                "start_time": 8.184090909090909,
                "end_time": 8.268181818181818,
                "pitch": 67,
                "velocity": 40,
                "duration": 0.084090909090909,
                "tempo": 120.0
            },
            {
                "start_time": 8.284090909090908,
                "end_time": 8.368181818181817,
                "pitch": 65,
                "velocity": 40,
                "duration": 0.084090909090909,
                "tempo": 120.0
            },
            {
                "start_time": 8.386363636363637,
                "end_time": 8.470454545454546,
                "pitch": 67,
                "velocity": 40,
                "duration": 0.084090909090909,
                "tempo": 120.0
            },
            {
                "start_time": 8.488636363636363,
                "end_time": 8.572727272727272,
                "pitch": 69,
                "velocity": 40,
                "duration": 0.084090909090909,
                "tempo": 120.0
            },
            {
                "start_time": 8.59090909090909,
                "end_time": 8.677272727272728,
                "pitch": 72,
                "velocity": 40,
                "duration": 0.08636363636363775,
                "tempo": 120.0
            },
            {
                "start_time": 8.693181818181818,
                "end_time": 8.779545454545454,
                "pitch": 74,
                "velocity": 40,
                "duration": 0.08636363636363598,
                "tempo": 120.0
            },
            {
                "start_time": 8.993181818181817,
                "end_time": 9.072727272727272,
                "pitch": 74,
                "velocity": 40,
                "duration": 0.07954545454545503,
                "tempo": 120.0
            },
            {
                "start_time": 9.09090909090909,
                "end_time": 9.172727272727272,
                "pitch": 74,
                "velocity": 40,
                "duration": 0.08181818181818201,
                "tempo": 120.0
            },
            {
                "start_time": 9.188636363636363,
                "end_time": 9.377272727272727,
                "pitch": 74,
                "velocity": 40,
                "duration": 0.18863636363636438,
                "tempo": 120.0
            },
            {
                "start_time": 9.393181818181818,
                "end_time": 9.479545454545454,
                "pitch": 74,
                "velocity": 40,
                "duration": 0.08636363636363598,
                "tempo": 120.0
            },
            {
                "start_time": 9.495454545454544,
                "end_time": 9.581818181818182,
                "pitch": 74,
                "velocity": 40,
                "duration": 0.08636363636363775,
                "tempo": 120.0
            },
            {
                "start_time": 9.597727272727273,
                "end_time": 9.784090909090908,
                "pitch": 69,
                "velocity": 40,
                "duration": 0.18636363636363562,
                "tempo": 120.0
            },
            {
                "start_time": 9.799999999999999,
                "end_time": 9.98409090909091,
                "pitch": 65,
                "velocity": 40,
                "duration": 0.18409090909091042,
                "tempo": 120.0
            },
            {
                "start_time": 10.002272727272727,
                "end_time": 10.186363636363636,
                "pitch": 67,
                "velocity": 40,
                "duration": 0.18409090909090864,
                "tempo": 120.0
            },
            {
                "start_time": 10.202272727272726,
                "end_time": 10.388636363636364,
                "pitch": 64,
                "velocity": 40,
                "duration": 0.1863636363636374,
                "tempo": 120.0
            },
            {
                "start_time": 10.404545454545454,
                "end_time": 10.588636363636363,
                "pitch": 65,
                "velocity": 40,
                "duration": 0.18409090909090864,
                "tempo": 120.0
            },
            {
                "start_time": 10.604545454545454,
                "end_time": 10.790909090909091,
                "pitch": 62,
                "velocity": 40,
                "duration": 0.1863636363636374,
                "tempo": 120.0
            },
            {
                "start_time": 10.806818181818182,
                "end_time": 10.99090909090909,
                "pitch": 64,
                "velocity": 40,
                "duration": 0.18409090909090864,
                "tempo": 120.0
            },
            {
                "start_time": 11.006818181818181,
                "end_time": 11.19090909090909,
                "pitch": 60,
                "velocity": 40,
                "duration": 0.18409090909090864,
                "tempo": 120.0
            },
            {
                "start_time": 11.206818181818182,
                "end_time": 11.39090909090909,
                "pitch": 65,
                "velocity": 40,
                "duration": 0.18409090909090864,
                "tempo": 120.0
            },
            {
                "start_time": 11.409090909090908,
                "end_time": 11.593181818181817,
                "pitch": 62,
                "velocity": 40,
                "duration": 0.18409090909090864,
                "tempo": 120.0
            },
            {
                "start_time": 11.60909090909091,
                "end_time": 11.793181818181818,
                "pitch": 67,
                "velocity": 40,
                "duration": 0.18409090909090864,
                "tempo": 120.0
            },
            {
                "start_time": 11.811363636363636,
                "end_time": 11.995454545454544,
                "pitch": 62,
                "velocity": 40,
                "duration": 0.18409090909090864,
                "tempo": 120.0
            },
            {
                "start_time": 12.011363636363635,
                "end_time": 12.197727272727272,
                "pitch": 69,
                "velocity": 40,
                "duration": 0.1863636363636374,
                "tempo": 120.0
            },
            {
                "start_time": 12.213636363636363,
                "end_time": 12.397727272727272,
                "pitch": 60,
                "velocity": 40,
                "duration": 0.18409090909090864,
                "tempo": 120.0
            },
            {
                "start_time": 12.415909090909091,
                "end_time": 12.6,
                "pitch": 67,
                "velocity": 40,
                "duration": 0.18409090909090864,
                "tempo": 120.0
            },
            {
                "start_time": 12.61590909090909,
                "end_time": 12.799999999999999,
                "pitch": 60,
                "velocity": 40,
                "duration": 0.18409090909090864,
                "tempo": 120.0
            },
            {
                "start_time": 12.818181818181818,
                "end_time": 13.002272727272727,
                "pitch": 50,
                "velocity": 40,
                "duration": 0.18409090909090864,
                "tempo": 120.0
            },
            {
                "start_time": 13.018181818181818,
                "end_time": 13.102272727272727,
                "pitch": 57,
                "velocity": 40,
                "duration": 0.084090909090909,
                "tempo": 120.0
            },
            {
                "start_time": 13.218181818181817,
                "end_time": 13.302272727272726,
                "pitch": 65,
                "velocity": 40,
                "duration": 0.084090909090909,
                "tempo": 120.0
            },
            {
                "start_time": 13.418181818181818,
                "end_time": 13.604545454545454,
                "pitch": 67,
                "velocity": 40,
                "duration": 0.18636363636363562,
                "tempo": 120.0
            },
            {
                "start_time": 13.620454545454544,
                "end_time": 13.809090909090909,
                "pitch": 53,
                "velocity": 40,
                "duration": 0.18863636363636438,
                "tempo": 120.0
            },
            {
                "start_time": 13.825,
                "end_time": 13.911363636363635,
                "pitch": 57,
                "velocity": 40,
                "duration": 0.08636363636363598,
                "tempo": 120.0
            },
            {
                "start_time": 14.031818181818181,
                "end_time": 14.113636363636363,
                "pitch": 65,
                "velocity": 40,
                "duration": 0.08181818181818201,
                "tempo": 120.0
            },
            {
                "start_time": 14.227272727272727,
                "end_time": 14.406818181818181,
                "pitch": 67,
                "velocity": 40,
                "duration": 0.17954545454545467,
                "tempo": 120.0
            },
            {
                "start_time": 14.422727272727272,
                "end_time": 14.60681818181818,
                "pitch": 52,
                "velocity": 40,
                "duration": 0.18409090909090864,
                "tempo": 120.0
            },
            {
                "start_time": 14.625,
                "end_time": 14.709090909090909,
                "pitch": 57,
                "velocity": 40,
                "duration": 0.084090909090909,
                "tempo": 120.0
            },
            {
                "start_time": 14.825,
                "end_time": 14.906818181818181,
                "pitch": 60,
                "velocity": 40,
                "duration": 0.08181818181818201,
                "tempo": 120.0
            },
            {
                "start_time": 15.022727272727272,
                "end_time": 15.406818181818181,
                "pitch": 65,
                "velocity": 40,
                "duration": 0.3840909090909097,
                "tempo": 120.0
            },
            {
                "start_time": 15.422727272727272,
                "end_time": 15.509090909090908,
                "pitch": 64,
                "velocity": 40,
                "duration": 0.08636363636363598,
                "tempo": 120.0
            },
            {
                "start_time": 15.629545454545454,
                "end_time": 15.713636363636363,
                "pitch": 62,
                "velocity": 40,
                "duration": 0.084090909090909,
                "tempo": 120.0
            },
            {
                "start_time": 15.829545454545453,
                "end_time": 15.913636363636362,
                "pitch": 60,
                "velocity": 40,
                "duration": 0.084090909090909,
                "tempo": 120.0
            },
            {
                "start_time": 16.03181818181818,
                "end_time": 16.21590909090909,
                "pitch": 50,
                "velocity": 40,
                "duration": 0.18409090909090864,
                "tempo": 120.0
            },
            {
                "start_time": 16.23181818181818,
                "end_time": 16.31590909090909,
                "pitch": 57,
                "velocity": 40,
                "duration": 0.08409090909091077,
                "tempo": 120.0
            },
            {
                "start_time": 16.43409090909091,
                "end_time": 16.51590909090909,
                "pitch": 65,
                "velocity": 40,
                "duration": 0.08181818181818201,
                "tempo": 120.0
            },
            {
                "start_time": 16.629545454545454,
                "end_time": 16.80909090909091,
                "pitch": 67,
                "velocity": 40,
                "duration": 0.17954545454545467,
                "tempo": 120.0
            },
            {
                "start_time": 16.827272727272728,
                "end_time": 17.018181818181816,
                "pitch": 53,
                "velocity": 40,
                "duration": 0.1909090909090878,
                "tempo": 120.0
            },
            {
                "start_time": 17.036363636363635,
                "end_time": 17.125,
                "pitch": 57,
                "velocity": 40,
                "duration": 0.08863636363636473,
                "tempo": 120.0
            },
            {
                "start_time": 17.24772727272727,
                "end_time": 17.327272727272728,
                "pitch": 65,
                "velocity": 40,
                "duration": 0.0795454545454568,
                "tempo": 120.0
            },
            {
                "start_time": 17.438636363636363,
                "end_time": 17.613636363636363,
                "pitch": 67,
                "velocity": 40,
                "duration": 0.1750000000000007,
                "tempo": 120.0
            },
            {
                "start_time": 17.629545454545454,
                "end_time": 17.818181818181817,
                "pitch": 52,
                "velocity": 40,
                "duration": 0.1886363636363626,
                "tempo": 120.0
            },
            {
                "start_time": 17.834090909090907,
                "end_time": 17.920454545454543,
                "pitch": 57,
                "velocity": 40,
                "duration": 0.08636363636363598,
                "tempo": 120.0
            },
            {
                "start_time": 18.04090909090909,
                "end_time": 18.12272727272727,
                "pitch": 60,
                "velocity": 40,
                "duration": 0.08181818181818201,
                "tempo": 120.0
            },
            {
                "start_time": 18.24090909090909,
                "end_time": 18.620454545454546,
                "pitch": 65,
                "velocity": 40,
                "duration": 0.3795454545454575,
                "tempo": 120.0
            },
            {
                "start_time": 18.636363636363637,
                "end_time": 18.71818181818182,
                "pitch": 64,
                "velocity": 40,
                "duration": 0.08181818181818201,
                "tempo": 120.0
            },
            {
                "start_time": 18.831818181818182,
                "end_time": 18.91590909090909,
                "pitch": 62,
                "velocity": 40,
                "duration": 0.08409090909090722,
                "tempo": 120.0
            },
            {
                "start_time": 19.034090909090907,
                "end_time": 19.118181818181817,
                "pitch": 60,
                "velocity": 40,
                "duration": 0.08409090909091077,
                "tempo": 120.0
            },
            {
                "start_time": 19.23409090909091,
                "end_time": 19.422727272727272,
                "pitch": 50,
                "velocity": 40,
                "duration": 0.1886363636363626,
                "tempo": 120.0
            },
            {
                "start_time": 19.44090909090909,
                "end_time": 19.525,
                "pitch": 57,
                "velocity": 40,
                "duration": 0.08409090909090722,
                "tempo": 120.0
            },
            {
                "start_time": 19.645454545454545,
                "end_time": 19.727272727272727,
                "pitch": 65,
                "velocity": 40,
                "duration": 0.08181818181818201,
                "tempo": 120.0
            },
            {
                "start_time": 19.84090909090909,
                "end_time": 20.020454545454545,
                "pitch": 67,
                "velocity": 40,
                "duration": 0.17954545454545467,
                "tempo": 120.0
            },
            {
                "start_time": 20.038636363636364,
                "end_time": 20.229545454545452,
                "pitch": 53,
                "velocity": 40,
                "duration": 0.1909090909090878,
                "tempo": 120.0
            },
            {
                "start_time": 20.24772727272727,
                "end_time": 20.336363636363636,
                "pitch": 57,
                "velocity": 40,
                "duration": 0.08863636363636473,
                "tempo": 120.0
            },
            {
                "start_time": 20.459090909090907,
                "end_time": 20.54090909090909,
                "pitch": 65,
                "velocity": 40,
                "duration": 0.08181818181818201,
                "tempo": 120.0
            },
            {
                "start_time": 20.654545454545453,
                "end_time": 20.836363636363636,
                "pitch": 67,
                "velocity": 40,
                "duration": 0.18181818181818343,
                "tempo": 120.0
            },
            {
                "start_time": 20.852272727272727,
                "end_time": 21.034090909090907,
                "pitch": 52,
                "velocity": 40,
                "duration": 0.18181818181817988,
                "tempo": 120.0
            },
            {
                "start_time": 21.052272727272726,
                "end_time": 21.134090909090908,
                "pitch": 57,
                "velocity": 40,
                "duration": 0.08181818181818201,
                "tempo": 120.0
            },
            {
                "start_time": 21.252272727272725,
                "end_time": 21.334090909090907,
                "pitch": 60,
                "velocity": 40,
                "duration": 0.08181818181818201,
                "tempo": 120.0
            },
            {
                "start_time": 21.44772727272727,
                "end_time": 21.831818181818182,
                "pitch": 65,
                "velocity": 40,
                "duration": 0.3840909090909115,
                "tempo": 120.0
            },
            {
                "start_time": 21.847727272727273,
                "end_time": 21.93409090909091,
                "pitch": 64,
                "velocity": 40,
                "duration": 0.08636363636363598,
                "tempo": 120.0
            },
            {
                "start_time": 22.054545454545455,
                "end_time": 22.138636363636362,
                "pitch": 62,
                "velocity": 40,
                "duration": 0.08409090909090722,
                "tempo": 120.0
            },
            {
                "start_time": 22.254545454545454,
                "end_time": 22.33863636363636,
                "pitch": 60,
                "velocity": 40,
                "duration": 0.08409090909090722,
                "tempo": 120.0
            },
            {
                "start_time": 22.454545454545453,
                "end_time": 22.643181818181816,
                "pitch": 50,
                "velocity": 40,
                "duration": 0.1886363636363626,
                "tempo": 120.0
            },
            {
                "start_time": 22.659090909090907,
                "end_time": 22.745454545454546,
                "pitch": 57,
                "velocity": 40,
                "duration": 0.08636363636363953,
                "tempo": 120.0
            },
            {
                "start_time": 22.863636363636363,
                "end_time": 22.945454545454545,
                "pitch": 65,
                "velocity": 40,
                "duration": 0.08181818181818201,
                "tempo": 120.0
            },
            {
                "start_time": 23.05681818181818,
                "end_time": 23.23181818181818,
                "pitch": 67,
                "velocity": 40,
                "duration": 0.1750000000000007,
                "tempo": 120.0
            },
            {
                "start_time": 23.24772727272727,
                "end_time": 23.438636363636363,
                "pitch": 53,
                "velocity": 40,
                "duration": 0.19090909090909136,
                "tempo": 120.0
            },
            {
                "start_time": 23.456818181818182,
                "end_time": 23.545454545454543,
                "pitch": 57,
                "velocity": 40,
                "duration": 0.08863636363636118,
                "tempo": 120.0
            },
            {
                "start_time": 23.668181818181818,
                "end_time": 23.75,
                "pitch": 65,
                "velocity": 40,
                "duration": 0.08181818181818201,
                "tempo": 120.0
            },
            {
                "start_time": 23.863636363636363,
                "end_time": 24.043181818181818,
                "pitch": 67,
                "velocity": 40,
                "duration": 0.17954545454545467,
                "tempo": 120.0
            },
            {
                "start_time": 24.061363636363634,
                "end_time": 24.243181818181817,
                "pitch": 52,
                "velocity": 40,
                "duration": 0.18181818181818343,
                "tempo": 120.0
            },
            {
                "start_time": 24.261363636363637,
                "end_time": 24.34318181818182,
                "pitch": 57,
                "velocity": 40,
                "duration": 0.08181818181818201,
                "tempo": 120.0
            },
            {
                "start_time": 24.461363636363636,
                "end_time": 24.543181818181818,
                "pitch": 60,
                "velocity": 40,
                "duration": 0.08181818181818201,
                "tempo": 120.0
            },
            {
                "start_time": 24.661363636363635,
                "end_time": 25.043181818181818,
                "pitch": 65,
                "velocity": 40,
                "duration": 0.3818181818181827,
                "tempo": 120.0
            },
            {
                "start_time": 25.05909090909091,
                "end_time": 25.14090909090909,
                "pitch": 64,
                "velocity": 40,
                "duration": 0.08181818181818201,
                "tempo": 120.0
            },
            {
                "start_time": 25.254545454545454,
                "end_time": 25.33863636363636,
                "pitch": 62,
                "velocity": 40,
                "duration": 0.08409090909090722,
                "tempo": 120.0
            },
            {
                "start_time": 25.454545454545453,
                "end_time": 25.538636363636364,
                "pitch": 60,
                "velocity": 40,
                "duration": 0.08409090909091077,
                "tempo": 120.0
            },
            {
                "start_time": 25.654545454545453,
                "end_time": 25.84318181818182,
                "pitch": 55,
                "velocity": 40,
                "duration": 0.18863636363636616,
                "tempo": 120.0
            },
            {
                "start_time": 25.861363636363635,
                "end_time": 25.945454545454545,
                "pitch": 62,
                "velocity": 40,
                "duration": 0.08409090909091077,
                "tempo": 120.0
            },
            {
                "start_time": 26.06590909090909,
                "end_time": 26.14772727272727,
                "pitch": 69,
                "velocity": 40,
                "duration": 0.08181818181817846,
                "tempo": 120.0
            },
            {
                "start_time": 26.261363636363637,
                "end_time": 26.44090909090909,
                "pitch": 71,
                "velocity": 40,
                "duration": 0.17954545454545467,
                "tempo": 120.0
            },
            {
                "start_time": 26.456818181818182,
                "end_time": 26.645454545454545,
                "pitch": 59,
                "velocity": 40,
                "duration": 0.1886363636363626,
                "tempo": 120.0
            },
            {
                "start_time": 26.663636363636364,
                "end_time": 26.74772727272727,
                "pitch": 62,
                "velocity": 40,
                "duration": 0.08409090909090722,
                "tempo": 120.0
            },
            {
                "start_time": 26.868181818181817,
                "end_time": 26.95,
                "pitch": 71,
                "velocity": 40,
                "duration": 0.08181818181818201,
                "tempo": 120.0
            },
            {
                "start_time": 27.063636363636363,
                "end_time": 27.243181818181817,
                "pitch": 72,
                "velocity": 40,
                "duration": 0.17954545454545467,
                "tempo": 120.0
            },
            {
                "start_time": 27.261363636363637,
                "end_time": 27.44772727272727,
                "pitch": 55,
                "velocity": 40,
                "duration": 0.18636363636363384,
                "tempo": 120.0
            },
            {
                "start_time": 27.46590909090909,
                "end_time": 27.552272727272726,
                "pitch": 62,
                "velocity": 40,
                "duration": 0.08636363636363598,
                "tempo": 120.0
            },
            {
                "start_time": 27.670454545454543,
                "end_time": 27.754545454545454,
                "pitch": 65,
                "velocity": 40,
                "duration": 0.08409090909091077,
                "tempo": 120.0
            },
            {
                "start_time": 27.870454545454542,
                "end_time": 28.254545454545454,
                "pitch": 69,
                "velocity": 40,
                "duration": 0.3840909090909115,
                "tempo": 120.0
            },
            {
                "start_time": 28.270454545454545,
                "end_time": 28.354545454545452,
                "pitch": 72,
                "velocity": 40,
                "duration": 0.08409090909090722,
                "tempo": 120.0
            },
            {
                "start_time": 28.470454545454544,
                "end_time": 28.55681818181818,
                "pitch": 71,
                "velocity": 40,
                "duration": 0.08636363636363598,
                "tempo": 120.0
            },
            {
                "start_time": 28.677272727272726,
                "end_time": 28.761363636363637,
                "pitch": 67,
                "velocity": 40,
                "duration": 0.08409090909091077,
                "tempo": 120.0
            },
            {
                "start_time": 28.88181818181818,
                "end_time": 29.061363636363634,
                "pitch": 55,
                "velocity": 40,
                "duration": 0.17954545454545467,
                "tempo": 120.0
            },
            {
                "start_time": 29.077272727272724,
                "end_time": 29.159090909090907,
                "pitch": 62,
                "velocity": 40,
                "duration": 0.08181818181818201,
                "tempo": 120.0
            },
            {
                "start_time": 29.275,
                "end_time": 29.35681818181818,
                "pitch": 69,
                "velocity": 40,
                "duration": 0.08181818181818201,
                "tempo": 120.0
            },
            {
                "start_time": 29.470454545454544,
                "end_time": 29.65,
                "pitch": 71,
                "velocity": 40,
                "duration": 0.17954545454545467,
                "tempo": 120.0
            },
            {
                "start_time": 29.66590909090909,
                "end_time": 29.854545454545452,
                "pitch": 59,
                "velocity": 40,
                "duration": 0.1886363636363626,
                "tempo": 120.0
            },
            {
                "start_time": 29.87272727272727,
                "end_time": 29.956818181818182,
                "pitch": 62,
                "velocity": 40,
                "duration": 0.08409090909091077,
                "tempo": 120.0
            },
            {
                "start_time": 30.077272727272724,
                "end_time": 30.159090909090907,
                "pitch": 71,
                "velocity": 40,
                "duration": 0.08181818181818201,
                "tempo": 120.0
            },
            {
                "start_time": 30.27272727272727,
                "end_time": 30.452272727272724,
                "pitch": 72,
                "velocity": 40,
                "duration": 0.17954545454545467,
                "tempo": 120.0
            },
            {
                "start_time": 30.468181818181815,
                "end_time": 30.65681818181818,
                "pitch": 55,
                "velocity": 40,
                "duration": 0.18863636363636616,
                "tempo": 120.0
            },
            {
                "start_time": 30.674999999999997,
                "end_time": 30.759090909090908,
                "pitch": 62,
                "velocity": 40,
                "duration": 0.08409090909091077,
                "tempo": 120.0
            },
            {
                "start_time": 30.879545454545454,
                "end_time": 30.96363636363636,
                "pitch": 65,
                "velocity": 40,
                "duration": 0.08409090909090722,
                "tempo": 120.0
            },
            {
                "start_time": 31.079545454545453,
                "end_time": 31.459090909090907,
                "pitch": 69,
                "velocity": 40,
                "duration": 0.37954545454545396,
                "tempo": 120.0
            },
            {
                "start_time": 31.474999999999998,
                "end_time": 31.55681818181818,
                "pitch": 72,
                "velocity": 40,
                "duration": 0.08181818181818201,
                "tempo": 120.0
            },
            {
                "start_time": 31.672727272727272,
                "end_time": 31.75681818181818,
                "pitch": 71,
                "velocity": 40,
                "duration": 0.08409090909090722,
                "tempo": 120.0
            },
            {
                "start_time": 31.877272727272725,
                "end_time": 31.96363636363636,
                "pitch": 67,
                "velocity": 40,
                "duration": 0.08636363636363598,
                "tempo": 120.0
            },
            {
                "start_time": 32.08181818181818,
                "end_time": 32.26590909090909,
                "pitch": 50,
                "velocity": 40,
                "duration": 0.1840909090909122,
                "tempo": 120.0
            },
            {
                "start_time": 32.28181818181818,
                "end_time": 32.36590909090909,
                "pitch": 57,
                "velocity": 40,
                "duration": 0.08409090909091077,
                "tempo": 120.0
            },
            {
                "start_time": 32.48181818181818,
                "end_time": 32.56590909090909,
                "pitch": 65,
                "velocity": 40,
                "duration": 0.08409090909091077,
                "tempo": 120.0
            },
            {
                "start_time": 32.684090909090905,
                "end_time": 32.86818181818182,
                "pitch": 67,
                "velocity": 40,
                "duration": 0.1840909090909122,
                "tempo": 120.0
            },
            {
                "start_time": 32.88636363636363,
                "end_time": 33.06818181818182,
                "pitch": 53,
                "velocity": 40,
                "duration": 0.18181818181818699,
                "tempo": 120.0
            },
            {
                "start_time": 33.086363636363636,
                "end_time": 33.168181818181814,
                "pitch": 57,
                "velocity": 40,
                "duration": 0.08181818181817846,
                "tempo": 120.0
            },
            {
                "start_time": 33.28636363636363,
                "end_time": 33.36818181818182,
                "pitch": 65,
                "velocity": 40,
                "duration": 0.08181818181818556,
                "tempo": 120.0
            },
            {
                "start_time": 33.486363636363635,
                "end_time": 33.668181818181814,
                "pitch": 67,
                "velocity": 40,
                "duration": 0.18181818181817988,
                "tempo": 120.0
            },
            {
                "start_time": 33.68636363636364,
                "end_time": 33.87045454545454,
                "pitch": 52,
                "velocity": 40,
                "duration": 0.18409090909090509,
                "tempo": 120.0
            },
            {
                "start_time": 33.88636363636363,
                "end_time": 33.970454545454544,
                "pitch": 57,
                "velocity": 40,
                "duration": 0.08409090909091077,
                "tempo": 120.0
            },
            {
                "start_time": 34.08863636363636,
                "end_time": 34.17045454545455,
                "pitch": 60,
                "velocity": 40,
                "duration": 0.08181818181818556,
                "tempo": 120.0
            },
            {
                "start_time": 34.28409090909091,
                "end_time": 34.66590909090909,
                "pitch": 65,
                "velocity": 40,
                "duration": 0.3818181818181827,
                "tempo": 120.0
            },
            {
                "start_time": 34.68181818181818,
                "end_time": 34.76590909090909,
                "pitch": 64,
                "velocity": 40,
                "duration": 0.08409090909091077,
                "tempo": 120.0
            },
            {
                "start_time": 34.88409090909091,
                "end_time": 34.965909090909086,
                "pitch": 62,
                "velocity": 40,
                "duration": 0.08181818181817846,
                "tempo": 120.0
            },
            {
                "start_time": 35.08409090909091,
                "end_time": 35.16590909090909,
                "pitch": 60,
                "velocity": 40,
                "duration": 0.08181818181817846,
                "tempo": 120.0
            },
            {
                "start_time": 35.28409090909091,
                "end_time": 35.470454545454544,
                "pitch": 50,
                "velocity": 40,
                "duration": 0.1863636363636374,
                "tempo": 120.0
            },
            {
                "start_time": 35.48863636363636,
                "end_time": 35.574999999999996,
                "pitch": 57,
                "velocity": 40,
                "duration": 0.08636363636363598,
                "tempo": 120.0
            },
            {
                "start_time": 35.69318181818181,
                "end_time": 35.777272727272724,
                "pitch": 65,
                "velocity": 40,
                "duration": 0.08409090909091077,
                "tempo": 120.0
            },
            {
                "start_time": 35.89545454545454,
                "end_time": 36.07954545454545,
                "pitch": 67,
                "velocity": 40,
                "duration": 0.1840909090909122,
                "tempo": 120.0
            },
            {
                "start_time": 36.09772727272727,
                "end_time": 36.28409090909091,
                "pitch": 53,
                "velocity": 40,
                "duration": 0.1863636363636374,
                "tempo": 120.0
            },
            {
                "start_time": 36.30227272727272,
                "end_time": 36.38636363636363,
                "pitch": 57,
                "velocity": 40,
                "duration": 0.08409090909091077,
                "tempo": 120.0
            },
            {
                "start_time": 36.50681818181818,
                "end_time": 36.58863636363636,
                "pitch": 65,
                "velocity": 40,
                "duration": 0.08181818181817846,
                "tempo": 120.0
            },
            {
                "start_time": 36.70454545454545,
                "end_time": 36.88409090909091,
                "pitch": 67,
                "velocity": 40,
                "duration": 0.17954545454545467,
                "tempo": 120.0
            },
            {
                "start_time": 36.9,
                "end_time": 37.08181818181818,
                "pitch": 52,
                "velocity": 40,
                "duration": 0.18181818181817988,
                "tempo": 120.0
            },
            {
                "start_time": 37.1,
                "end_time": 37.18181818181818,
                "pitch": 57,
                "velocity": 40,
                "duration": 0.08181818181817846,
                "tempo": 120.0
            },
            {
                "start_time": 37.3,
                "end_time": 37.38181818181818,
                "pitch": 60,
                "velocity": 40,
                "duration": 0.08181818181818556,
                "tempo": 120.0
            },
            {
                "start_time": 37.5,
                "end_time": 37.88409090909091,
                "pitch": 65,
                "velocity": 40,
                "duration": 0.38409090909090793,
                "tempo": 120.0
            },
            {
                "start_time": 37.9,
                "end_time": 37.98409090909091,
                "pitch": 64,
                "velocity": 40,
                "duration": 0.08409090909091077,
                "tempo": 120.0
            },
            {
                "start_time": 38.10227272727273,
                "end_time": 38.184090909090905,
                "pitch": 62,
                "velocity": 40,
                "duration": 0.08181818181817846,
                "tempo": 120.0
            },
            {
                "start_time": 38.29772727272727,
                "end_time": 38.37954545454545,
                "pitch": 60,
                "velocity": 40,
                "duration": 0.08181818181817846,
                "tempo": 120.0
            }
        ]
    }
}