{
    "track_id": "Wonder Boy III (FM) - 05 - Shop (The Dragon_s Trap)",
    "mood": "angry",
    "instruments": {
        "Acoustic Bass": [
            {
                "start_time": 0.09999999999999999,
                "end_time": 0.1340909090909091,
                "pitch": 33,
                "velocity": 80,
                "duration": 0.0340909090909091,
                "tempo": 120.0
            },
            {
                "start_time": 0.19999999999999998,
                "end_time": 0.23409090909090907,
                "pitch": 33,
                "velocity": 80,
                "duration": 0.03409090909090909,
                "tempo": 120.0
            },
            {
                "start_time": 0.6,
                "end_time": 0.634090909090909,
                "pitch": 36,
                "velocity": 80,
                "duration": 0.03409090909090906,
                "tempo": 120.0
            },
            {
                "start_time": 0.8022727272727272,
                "end_time": 0.8340909090909091,
                "pitch": 35,
                "velocity": 80,
                "duration": 0.03181818181818186,
                "tempo": 120.0
            },
            {
                "start_time": 1.0954545454545455,
                "end_time": 1.5022727272727272,
                "pitch": 31,
                "velocity": 80,
                "duration": 0.40681818181818175,
                "tempo": 120.0
            },
            {
                "start_time": 1.5022727272727272,
                "end_time": 1.7022727272727272,
                "pitch": 33,
                "velocity": 80,
                "duration": 0.19999999999999996,
                "tempo": 120.0
            },
            {
                "start_time": 1.7022727272727272,
                "end_time": 1.734090909090909,
                "pitch": 33,
                "velocity": 80,
                "duration": 0.031818181818181746,
                "tempo": 120.0
            },
            {
                "start_time": 1.7999999999999998,
                "end_time": 1.834090909090909,
                "pitch": 33,
                "velocity": 80,
                "duration": 0.03409090909090917,
                "tempo": 120.0
            },
            {
                "start_time": 1.9977272727272726,
                "end_time": 2.0795454545454546,
                "pitch": 35,
                "velocity": 80,
                "duration": 0.08181818181818201,
                "tempo": 120.0
            },
            {
                "start_time": 2.1977272727272728,
                "end_time": 2.2977272727272724,
                "pitch": 36,
                "velocity": 80,
                "duration": 0.09999999999999964,
                "tempo": 120.0
            },
            {
                "start_time": 2.3977272727272725,
                "end_time": 2.4318181818181817,
                "pitch": 35,
                "velocity": 80,
                "duration": 0.03409090909090917,
                "tempo": 120.0
            },
            {
                "start_time": 3.006818181818182,
                "end_time": 3.1068181818181815,
                "pitch": 31,
                "velocity": 80,
                "duration": 0.09999999999999964,
                "tempo": 120.0
            },
            {
                "start_time": 3.2068181818181816,
                "end_time": 3.259090909090909,
                "pitch": 29,
                "velocity": 80,
                "duration": 0.05227272727272725,
                "tempo": 120.0
            },
            {
                "start_time": 3.309090909090909,
                "end_time": 3.359090909090909,
                "pitch": 29,
                "velocity": 80,
                "duration": 0.04999999999999982,
                "tempo": 120.0
            },
            {
                "start_time": 3.4090909090909087,
                "end_time": 3.459090909090909,
                "pitch": 29,
                "velocity": 80,
                "duration": 0.050000000000000266,
                "tempo": 120.0
            },
            {
                "start_time": 3.8068181818181817,
                "end_time": 3.8545454545454545,
                "pitch": 33,
                "velocity": 80,
                "duration": 0.04772727272727284,
                "tempo": 120.0
            },
            {
                "start_time": 4.002272727272727,
                "end_time": 4.052272727272727,
                "pitch": 31,
                "velocity": 80,
                "duration": 0.04999999999999982,
                "tempo": 120.0
            },
            {
                "start_time": 4.713636363636364,
                "end_time": 4.8159090909090905,
                "pitch": 29,
                "velocity": 80,
                "duration": 0.10227272727272663,
                "tempo": 120.0
            },
            {
                "start_time": 4.913636363636363,
                "end_time": 4.963636363636363,
                "pitch": 29,
                "velocity": 80,
                "duration": 0.04999999999999982,
                "tempo": 120.0
            },
            {
                "start_time": 5.011363636363636,
                "end_time": 5.0613636363636365,
                "pitch": 29,
                "velocity": 80,
                "duration": 0.05000000000000071,
                "tempo": 120.0
            },
            {
                "start_time": 5.209090909090909,
                "end_time": 5.309090909090909,
                "pitch": 31,
                "velocity": 80,
                "duration": 0.09999999999999964,
                "tempo": 120.0
            },
            {
                "start_time": 5.409090909090909,
                "end_time": 5.509090909090909,
                "pitch": 33,
                "velocity": 80,
                "duration": 0.09999999999999964,
                "tempo": 120.0
            },
            {
                "start_time": 5.611363636363636,
                "end_time": 5.661363636363636,
                "pitch": 31,
                "velocity": 80,
                "duration": 0.04999999999999982,
                "tempo": 120.0
            },
            {
                "start_time": 5.8113636363636365,
                "end_time": 6.211363636363636,
                "pitch": 36,
                "velocity": 80,
                "duration": 0.39999999999999947,
                "tempo": 120.0
            },
            {
                "start_time": 6.211363636363636,
                "end_time": 6.413636363636363,
                "pitch": 35,
                "velocity": 80,
                "duration": 0.20227272727272716,
                "tempo": 120.0
            }
        ],
        "Harpsichord": [
            {
                "start_time": 0.09999999999999999,
                "end_time": 0.1659090909090909,
                "pitch": 51,
                "velocity": 51,
                "duration": 0.0659090909090909,
                "tempo": 120.0
            },
            {
                "start_time": 0.19999999999999998,
                "end_time": 0.2659090909090909,
                "pitch": 52,
                "velocity": 51,
                "duration": 0.06590909090909089,
                "tempo": 120.0
            },
            {
                "start_time": 0.39999999999999997,
                "end_time": 0.46818181818181814,
                "pitch": 50,
                "velocity": 51,
                "duration": 0.06818181818181818,
                "tempo": 120.0
            },
            {
                "start_time": 0.6,
                "end_time": 0.6840909090909091,
                "pitch": 51,
                "velocity": 51,
                "duration": 0.0840909090909091,
                "tempo": 120.0
            },
            {
                "start_time": 0.8022727272727272,
                "end_time": 0.8681818181818182,
                "pitch": 52,
                "velocity": 51,
                "duration": 0.06590909090909092,
                "tempo": 120.0
            },
            {
                "start_time": 1.5022727272727272,
                "end_time": 1.6522727272727271,
                "pitch": 55,
                "velocity": 51,
                "duration": 0.1499999999999999,
                "tempo": 120.0
            },
            {
                "start_time": 1.7022727272727272,
                "end_time": 1.784090909090909,
                "pitch": 55,
                "velocity": 51,
                "duration": 0.08181818181818179,
                "tempo": 120.0
            },
            {
                "start_time": 1.7999999999999998,
                "end_time": 1.8818181818181818,
                "pitch": 55,
                "velocity": 51,
                "duration": 0.08181818181818201,
                "tempo": 120.0
            },
            {
                "start_time": 1.9977272727272726,
                "end_time": 2.1477272727272725,
                "pitch": 57,
                "velocity": 51,
                "duration": 0.1499999999999999,
                "tempo": 120.0
            },
            {
                "start_time": 2.1977272727272728,
                "end_time": 2.3477272727272727,
                "pitch": 58,
                "velocity": 51,
                "duration": 0.1499999999999999,
                "tempo": 120.0
            },
            {
                "start_time": 2.3977272727272725,
                "end_time": 2.4818181818181815,
                "pitch": 59,
                "velocity": 51,
                "duration": 0.084090909090909,
                "tempo": 120.0
            },
            {
                "start_time": 3.1068181818181815,
                "end_time": 3.259090909090909,
                "pitch": 55,
                "velocity": 51,
                "duration": 0.15227272727272734,
                "tempo": 120.0
            },
            {
                "start_time": 3.309090909090909,
                "end_time": 3.393181818181818,
                "pitch": 57,
                "velocity": 51,
                "duration": 0.084090909090909,
                "tempo": 120.0
            },
            {
                "start_time": 3.4090909090909087,
                "end_time": 3.493181818181818,
                "pitch": 57,
                "velocity": 51,
                "duration": 0.08409090909090944,
                "tempo": 120.0
            },
            {
                "start_time": 3.609090909090909,
                "end_time": 3.690909090909091,
                "pitch": 55,
                "velocity": 51,
                "duration": 0.08181818181818201,
                "tempo": 120.0
            },
            {
                "start_time": 3.8068181818181817,
                "end_time": 3.8886363636363637,
                "pitch": 57,
                "velocity": 51,
                "duration": 0.08181818181818201,
                "tempo": 120.0
            },
            {
                "start_time": 4.002272727272727,
                "end_time": 4.086363636363636,
                "pitch": 55,
                "velocity": 51,
                "duration": 0.084090909090909,
                "tempo": 120.0
            },
            {
                "start_time": 4.713636363636364,
                "end_time": 4.863636363636363,
                "pitch": 57,
                "velocity": 51,
                "duration": 0.14999999999999947,
                "tempo": 120.0
            },
            {
                "start_time": 4.913636363636363,
                "end_time": 4.995454545454545,
                "pitch": 57,
                "velocity": 51,
                "duration": 0.08181818181818201,
                "tempo": 120.0
            },
            {
                "start_time": 5.011363636363636,
                "end_time": 5.093181818181818,
                "pitch": 57,
                "velocity": 51,
                "duration": 0.08181818181818201,
                "tempo": 120.0
            },
            {
                "start_time": 5.209090909090909,
                "end_time": 5.3590909090909085,
                "pitch": 55,
                "velocity": 51,
                "duration": 0.14999999999999947,
                "tempo": 120.0
            },
            {
                "start_time": 5.409090909090909,
                "end_time": 5.493181818181818,
                "pitch": 57,
                "velocity": 51,
                "duration": 0.084090909090909,
                "tempo": 120.0
            },
            {
                "start_time": 5.611363636363636,
                "end_time": 5.693181818181818,
                "pitch": 59,
                "velocity": 51,
                "duration": 0.08181818181818201,
                "tempo": 120.0
            },
            {
                "start_time": 6.011363636363636,
                "end_time": 6.3136363636363635,
                "pitch": 57,
                "velocity": 51,
                "duration": 0.3022727272727277,
                "tempo": 120.0
            }
        ],
        "Electric Guitar (clean)": [
            {
                "start_time": 0.0,
                "end_time": 0.1159090909090909,
                "pitch": 52,
                "velocity": 4,
                "duration": 0.1159090909090909,
                "tempo": 120.0
            },
            {
                "start_time": 0.1159090909090909,
                "end_time": 0.23409090909090907,
                "pitch": 36,
                "velocity": 4,
                "duration": 0.11818181818181817,
                "tempo": 120.0
            },
            {
                "start_time": 0.23409090909090907,
                "end_time": 0.3159090909090909,
                "pitch": 46,
                "velocity": 4,
                "duration": 0.08181818181818185,
                "tempo": 120.0
            },
            {
                "start_time": 0.3159090909090909,
                "end_time": 0.4159090909090909,
                "pitch": 30,
                "velocity": 4,
                "duration": 0.09999999999999998,
                "tempo": 120.0
            },
            {
                "start_time": 0.4159090909090909,
                "end_time": 0.6181818181818182,
                "pitch": 38,
                "velocity": 4,
                "duration": 0.20227272727272727,
                "tempo": 120.0
            },
            {
                "start_time": 0.6181818181818182,
                "end_time": 0.7181818181818181,
                "pitch": 46,
                "velocity": 4,
                "duration": 0.09999999999999998,
                "tempo": 120.0
            },
            {
                "start_time": 0.7181818181818181,
                "end_time": 0.8181818181818181,
                "pitch": 30,
                "velocity": 4,
                "duration": 0.09999999999999998,
                "tempo": 120.0
            },
            {
                "start_time": 0.8181818181818181,
                "end_time": 1.0136363636363637,
                "pitch": 46,
                "velocity": 4,
                "duration": 0.19545454545454555,
                "tempo": 120.0
            },
            {
                "start_time": 1.0136363636363637,
                "end_time": 1.1113636363636363,
                "pitch": 30,
                "velocity": 4,
                "duration": 0.09772727272727266,
                "tempo": 120.0
            },
            {
                "start_time": 1.1113636363636363,
                "end_time": 1.2113636363636362,
                "pitch": 54,
                "velocity": 4,
                "duration": 0.09999999999999987,
                "tempo": 120.0
            },
            {
                "start_time": 1.2113636363636362,
                "end_time": 1.518181818181818,
                "pitch": 30,
                "velocity": 4,
                "duration": 0.3068181818181819,
                "tempo": 120.0
            },
            {
                "start_time": 1.518181818181818,
                "end_time": 1.718181818181818,
                "pitch": 47,
                "velocity": 4,
                "duration": 0.19999999999999996,
                "tempo": 120.0
            },
            {
                "start_time": 1.718181818181818,
                "end_time": 1.9159090909090908,
                "pitch": 45,
                "velocity": 4,
                "duration": 0.19772727272727275,
                "tempo": 120.0
            },
            {
                "start_time": 1.9159090909090908,
                "end_time": 2.0136363636363637,
                "pitch": 30,
                "velocity": 4,
                "duration": 0.09772727272727288,
                "tempo": 120.0
            },
            {
                "start_time": 2.0136363636363637,
                "end_time": 2.2136363636363634,
                "pitch": 54,
                "velocity": 4,
                "duration": 0.19999999999999973,
                "tempo": 120.0
            },
            {
                "start_time": 2.2136363636363634,
                "end_time": 2.3136363636363635,
                "pitch": 46,
                "velocity": 4,
                "duration": 0.10000000000000009,
                "tempo": 120.0
            },
            {
                "start_time": 2.3136363636363635,
                "end_time": 2.4136363636363636,
                "pitch": 30,
                "velocity": 4,
                "duration": 0.10000000000000009,
                "tempo": 120.0
            },
            {
                "start_time": 2.4136363636363636,
                "end_time": 2.618181818181818,
                "pitch": 46,
                "velocity": 4,
                "duration": 0.20454545454545459,
                "tempo": 120.0
            },
            {
                "start_time": 2.618181818181818,
                "end_time": 2.8249999999999997,
                "pitch": 30,
                "velocity": 4,
                "duration": 0.20681818181818157,
                "tempo": 120.0
            },
            {
                "start_time": 2.8249999999999997,
                "end_time": 3.025,
                "pitch": 39,
                "velocity": 4,
                "duration": 0.20000000000000018,
                "tempo": 120.0
            },
            {
                "start_time": 3.025,
                "end_time": 3.125,
                "pitch": 46,
                "velocity": 4,
                "duration": 0.10000000000000009,
                "tempo": 120.0
            },
            {
                "start_time": 3.125,
                "end_time": 3.2249999999999996,
                "pitch": 30,
                "velocity": 4,
                "duration": 0.09999999999999964,
                "tempo": 120.0
            },
            {
                "start_time": 3.2249999999999996,
                "end_time": 3.527272727272727,
                "pitch": 46,
                "velocity": 4,
                "duration": 0.30227272727272725,
                "tempo": 120.0
            },
            {
                "start_time": 3.527272727272727,
                "end_time": 3.627272727272727,
                "pitch": 30,
                "velocity": 4,
                "duration": 0.10000000000000009,
                "tempo": 120.0
            },
            {
                "start_time": 3.627272727272727,
                "end_time": 3.8227272727272728,
                "pitch": 38,
                "velocity": 4,
                "duration": 0.19545454545454577,
                "tempo": 120.0
            },
            {
                "start_time": 3.8227272727272728,
                "end_time": 3.9204545454545454,
                "pitch": 46,
                "velocity": 4,
                "duration": 0.09772727272727266,
                "tempo": 120.0
            },
            {
                "start_time": 3.9204545454545454,
                "end_time": 3.952272727272727,
                "pitch": 30,
                "velocity": 4,
                "duration": 0.031818181818181746,
                "tempo": 120.0
            },
            {
                "start_time": 3.952272727272727,
                "end_time": 4.018181818181818,
                "pitch": 100,
                "velocity": 4,
                "duration": 0.06590909090909047,
                "tempo": 120.0
            },
            {
                "start_time": 4.018181818181818,
                "end_time": 4.220454545454546,
                "pitch": 19,
                "velocity": 4,
                "duration": 0.20227272727272805,
                "tempo": 120.0
            },
            {
                "start_time": 4.220454545454546,
                "end_time": 4.320454545454545,
                "pitch": 100,
                "velocity": 4,
                "duration": 0.09999999999999964,
                "tempo": 120.0
            },
            {
                "start_time": 4.320454545454545,
                "end_time": 4.422727272727273,
                "pitch": 28,
                "velocity": 4,
                "duration": 0.10227272727272751,
                "tempo": 120.0
            },
            {
                "start_time": 4.422727272727273,
                "end_time": 4.7295454545454545,
                "pitch": 100,
                "velocity": 4,
                "duration": 0.30681818181818166,
                "tempo": 120.0
            },
            {
                "start_time": 4.7295454545454545,
                "end_time": 4.929545454545455,
                "pitch": 21,
                "velocity": 4,
                "duration": 0.20000000000000018,
                "tempo": 120.0
            },
            {
                "start_time": 4.929545454545455,
                "end_time": 5.127272727272727,
                "pitch": 19,
                "velocity": 4,
                "duration": 0.1977272727272723,
                "tempo": 120.0
            },
            {
                "start_time": 5.127272727272727,
                "end_time": 5.225,
                "pitch": 100,
                "velocity": 4,
                "duration": 0.09772727272727266,
                "tempo": 120.0
            },
            {
                "start_time": 5.225,
                "end_time": 5.427272727272727,
                "pitch": 28,
                "velocity": 4,
                "duration": 0.20227272727272716,
                "tempo": 120.0
            },
            {
                "start_time": 5.427272727272727,
                "end_time": 5.527272727272727,
                "pitch": 19,
                "velocity": 4,
                "duration": 0.10000000000000053,
                "tempo": 120.0
            },
            {
                "start_time": 5.527272727272727,
                "end_time": 5.627272727272727,
                "pitch": 100,
                "velocity": 4,
                "duration": 0.09999999999999964,
                "tempo": 120.0
            },
            {
                "start_time": 5.627272727272727,
                "end_time": 5.727272727272727,
                "pitch": 28,
                "velocity": 4,
                "duration": 0.09999999999999964,
                "tempo": 120.0
            },
            {
                "start_time": 5.727272727272727,
                "end_time": 5.927272727272727,
                "pitch": 107,
                "velocity": 4,
                "duration": 0.20000000000000018,
                "tempo": 120.0
            },
            {
                "start_time": 5.927272727272727,
                "end_time": 6.027272727272727,
                "pitch": 100,
                "velocity": 4,
                "duration": 0.10000000000000053,
                "tempo": 120.0
            },
            {
                "start_time": 6.027272727272727,
                "end_time": 6.127272727272727,
                "pitch": 13,
                "velocity": 4,
                "duration": 0.09999999999999964,
                "tempo": 120.0
            },
            {
                "start_time": 6.127272727272727,
                "end_time": 6.2295454545454545,
                "pitch": 107,
                "velocity": 4,
                "duration": 0.10227272727272751,
                "tempo": 120.0
            },
            {
                "start_time": 6.2295454545454545,
                "end_time": 6.329545454545454,
                "pitch": 28,
                "velocity": 4,
                "duration": 0.09999999999999964,
                "tempo": 120.0
            },
            {
                "start_time": 6.329545454545454,
                "end_time": 6.413636363636363,
                "pitch": 100,
                "velocity": 4,
                "duration": 0.084090909090909,
                "tempo": 120.0
            }
        ]
    }
}