{
    "track_id": "Wonder Boy in Monster Land (FM) - 02 - Boss",
    "mood": "angry",
    "instruments": {
        "Acoustic Grand Piano": [
            {
                "start_time": 0.0,
                "end_time": 2.190909090909091,
                "pitch": 65,
                "velocity": 64,
                "duration": 2.190909090909091,
                "tempo": 120.0
            },
            {
                "start_time": 2.225,
                "end_time": 2.5977272727272727,
                "pitch": 65,
                "velocity": 64,
                "duration": 0.3727272727272726,
                "tempo": 120.0
            },
            {
                "start_time": 2.631818181818182,
                "end_time": 5.454545454545454,
                "pitch": 64,
                "velocity": 64,
                "duration": 2.8227272727272723,
                "tempo": 120.0
            },
            {
                "start_time": 5.488636363636363,
                "end_time": 5.863636363636363,
                "pitch": 64,
                "velocity": 64,
                "duration": 0.375,
                "tempo": 120.0
            },
            {
                "start_time": 5.8977272727272725,
                "end_time": 8.71590909090909,
                "pitch": 63,
                "velocity": 64,
                "duration": 2.8181818181818175,
                "tempo": 120.0
            },
            {
                "start_time": 8.75,
                "end_time": 9.122727272727273,
                "pitch": 63,
                "velocity": 64,
                "duration": 0.372727272727273,
                "tempo": 120.0
            },
            {
                "start_time": 9.154545454545454,
                "end_time": 11.956818181818182,
                "pitch": 62,
                "velocity": 64,
                "duration": 2.8022727272727277,
                "tempo": 120.0
            },
            {
                "start_time": 11.99090909090909,
                "end_time": 12.361363636363636,
                "pitch": 62,
                "velocity": 64,
                "duration": 0.37045454545454604,
                "tempo": 120.0
            },
            {
                "start_time": 12.395454545454545,
                "end_time": 15.218181818181817,
                "pitch": 65,
                "velocity": 64,
                "duration": 2.8227272727272723,
                "tempo": 120.0
            },
            {
                "start_time": 15.252272727272727,
                "end_time": 15.625,
                "pitch": 65,
                "velocity": 64,
                "duration": 0.372727272727273,
                "tempo": 120.0
            },
            {
                "start_time": 15.656818181818181,
                "end_time": 18.48181818181818,
                "pitch": 64,
                "velocity": 64,
                "duration": 2.8249999999999993,
                "tempo": 120.0
            },
            {
                "start_time": 18.51590909090909,
                "end_time": 18.886363636363637,
                "pitch": 64,
                "velocity": 64,
                "duration": 0.37045454545454604,
                "tempo": 120.0
            },
            {
                "start_time": 18.920454545454543,
                "end_time": 21.743181818181817,
                "pitch": 63,
                "velocity": 64,
                "duration": 2.822727272727274,
                "tempo": 120.0
            },
            {
                "start_time": 21.777272727272727,
                "end_time": 22.147727272727273,
                "pitch": 63,
                "velocity": 64,
                "duration": 0.37045454545454604,
                "tempo": 120.0
            },
            {
                "start_time": 22.18181818181818,
                "end_time": 22.75681818181818,
                "pitch": 62,
                "velocity": 64,
                "duration": 0.5749999999999993,
                "tempo": 120.0
            },
            {
                "start_time": 22.788636363636364,
                "end_time": 22.959090909090907,
                "pitch": 62,
                "velocity": 64,
                "duration": 0.1704545454545432,
                "tempo": 120.0
            },
            {
                "start_time": 22.993181818181817,
                "end_time": 23.363636363636363,
                "pitch": 62,
                "velocity": 64,
                "duration": 0.37045454545454604,
                "tempo": 120.0
            },
            {
                "start_time": 25.45,
                "end_time": 28.288636363636364,
                "pitch": 65,
                "velocity": 64,
                "duration": 2.8386363636363647,
                "tempo": 120.0
            },
            {
                "start_time": 28.32272727272727,
                "end_time": 28.695454545454545,
                "pitch": 65,
                "velocity": 64,
                "duration": 0.3727272727272748,
                "tempo": 120.0
            },
            {
                "start_time": 28.727272727272727,
                "end_time": 31.549999999999997,
                "pitch": 64,
                "velocity": 64,
                "duration": 2.8227272727272705,
                "tempo": 120.0
            },
            {
                "start_time": 31.584090909090907,
                "end_time": 31.956818181818182,
                "pitch": 64,
                "velocity": 64,
                "duration": 0.3727272727272748,
                "tempo": 120.0
            },
            {
                "start_time": 31.99090909090909,
                "end_time": 34.81363636363636,
                "pitch": 63,
                "velocity": 64,
                "duration": 2.822727272727274,
                "tempo": 120.0
            },
            {
                "start_time": 34.84772727272727,
                "end_time": 35.21818181818182,
                "pitch": 63,
                "velocity": 64,
                "duration": 0.3704545454545496,
                "tempo": 120.0
            },
            {
                "start_time": 35.252272727272725,
                "end_time": 38.074999999999996,
                "pitch": 62,
                "velocity": 64,
                "duration": 2.8227272727272705,
                "tempo": 120.0
            },
            {
                "start_time": 38.10909090909091,
                "end_time": 38.47954545454545,
                "pitch": 62,
                "velocity": 64,
                "duration": 0.3704545454545425,
                "tempo": 120.0
            },
            {
                "start_time": 38.51363636363636,
                "end_time": 41.336363636363636,
                "pitch": 65,
                "velocity": 64,
                "duration": 2.8227272727272776,
                "tempo": 120.0
            },
            {
                "start_time": 41.37045454545454,
                "end_time": 41.74772727272727,
                "pitch": 65,
                "velocity": 64,
                "duration": 0.3772727272727252,
                "tempo": 120.0
            },
            {
                "start_time": 41.78181818181818,
                "end_time": 44.62045454545454,
                "pitch": 64,
                "velocity": 64,
                "duration": 2.838636363636361,
                "tempo": 120.0
            },
            {
                "start_time": 44.65454545454545,
                "end_time": 45.03181818181818,
                "pitch": 64,
                "velocity": 64,
                "duration": 0.3772727272727323,
                "tempo": 120.0
            },
            {
                "start_time": 45.06590909090909,
                "end_time": 47.88409090909091,
                "pitch": 63,
                "velocity": 64,
                "duration": 2.81818181818182,
                "tempo": 120.0
            },
            {
                "start_time": 47.918181818181814,
                "end_time": 48.288636363636364,
                "pitch": 63,
                "velocity": 64,
                "duration": 0.3704545454545496,
                "tempo": 120.0
            },
            {
                "start_time": 48.32272727272727,
                "end_time": 48.89772727272727,
                "pitch": 62,
                "velocity": 64,
                "duration": 0.5750000000000028,
                "tempo": 120.0
            },
            {
                "start_time": 48.93181818181818,
                "end_time": 49.099999999999994,
                "pitch": 62,
                "velocity": 64,
                "duration": 0.16818181818181444,
                "tempo": 120.0
            },
            {
                "start_time": 49.13409090909091,
                "end_time": 49.50454545454545,
                "pitch": 62,
                "velocity": 64,
                "duration": 0.3704545454545425,
                "tempo": 120.0
            },
            {
                "start_time": 51.56818181818181,
                "end_time": 51.740909090909085,
                "pitch": 58,
                "velocity": 64,
                "duration": 0.17272727272727195,
                "tempo": 120.0
            },
            {
                "start_time": 51.97954545454545,
                "end_time": 52.15,
                "pitch": 58,
                "velocity": 64,
                "duration": 0.17045454545454675,
                "tempo": 120.0
            },
            {
                "start_time": 53.62045454545454,
                "end_time": 53.793181818181814,
                "pitch": 58,
                "velocity": 64,
                "duration": 0.17272727272727195,
                "tempo": 120.0
            },
            {
                "start_time": 54.03181818181818,
                "end_time": 54.20227272727273,
                "pitch": 58,
                "velocity": 64,
                "duration": 0.17045454545454675,
                "tempo": 120.0
            },
            {
                "start_time": 54.236363636363635,
                "end_time": 54.81363636363636,
                "pitch": 62,
                "velocity": 64,
                "duration": 0.577272727272728,
                "tempo": 120.0
            },
            {
                "start_time": 54.84772727272727,
                "end_time": 55.01590909090909,
                "pitch": 57,
                "velocity": 64,
                "duration": 0.16818181818182154,
                "tempo": 120.0
            },
            {
                "start_time": 55.252272727272725,
                "end_time": 55.42045454545454,
                "pitch": 57,
                "velocity": 64,
                "duration": 0.16818181818181444,
                "tempo": 120.0
            },
            {
                "start_time": 56.88409090909091,
                "end_time": 57.054545454545455,
                "pitch": 57,
                "velocity": 64,
                "duration": 0.17045454545454675,
                "tempo": 120.0
            },
            {
                "start_time": 57.293181818181814,
                "end_time": 57.465909090909086,
                "pitch": 57,
                "velocity": 64,
                "duration": 0.17272727272727195,
                "tempo": 120.0
            },
            {
                "start_time": 57.5,
                "end_time": 58.08181818181818,
                "pitch": 62,
                "velocity": 64,
                "duration": 0.5818181818181785,
                "tempo": 120.0
            },
            {
                "start_time": 58.115909090909085,
                "end_time": 58.28636363636363,
                "pitch": 56,
                "velocity": 64,
                "duration": 0.17045454545454675,
                "tempo": 120.0
            },
            {
                "start_time": 58.525,
                "end_time": 58.69772727272727,
                "pitch": 56,
                "velocity": 64,
                "duration": 0.17272727272727195,
                "tempo": 120.0
            },
            {
                "start_time": 60.168181818181814,
                "end_time": 60.33863636363636,
                "pitch": 56,
                "velocity": 64,
                "duration": 0.17045454545454675,
                "tempo": 120.0
            },
            {
                "start_time": 60.57954545454545,
                "end_time": 60.75,
                "pitch": 56,
                "velocity": 64,
                "duration": 0.17045454545454675,
                "tempo": 120.0
            },
            {
                "start_time": 60.78409090909091,
                "end_time": 61.361363636363635,
                "pitch": 60,
                "velocity": 64,
                "duration": 0.577272727272728,
                "tempo": 120.0
            },
            {
                "start_time": 61.393181818181816,
                "end_time": 61.56363636363636,
                "pitch": 55,
                "velocity": 64,
                "duration": 0.17045454545454675,
                "tempo": 120.0
            },
            {
                "start_time": 61.8,
                "end_time": 61.96818181818182,
                "pitch": 55,
                "velocity": 64,
                "duration": 0.16818181818182154,
                "tempo": 120.0
            },
            {
                "start_time": 64.64090909090909,
                "end_time": 64.81136363636364,
                "pitch": 58,
                "velocity": 64,
                "duration": 0.17045454545454675,
                "tempo": 120.0
            },
            {
                "start_time": 65.05,
                "end_time": 65.22045454545454,
                "pitch": 58,
                "velocity": 64,
                "duration": 0.17045454545454675,
                "tempo": 120.0
            },
            {
                "start_time": 66.68181818181817,
                "end_time": 66.85,
                "pitch": 58,
                "velocity": 64,
                "duration": 0.16818181818182154,
                "tempo": 120.0
            },
            {
                "start_time": 67.08636363636363,
                "end_time": 67.25454545454545,
                "pitch": 58,
                "velocity": 64,
                "duration": 0.16818181818182154,
                "tempo": 120.0
            },
            {
                "start_time": 67.28863636363636,
                "end_time": 67.86818181818181,
                "pitch": 62,
                "velocity": 64,
                "duration": 0.5795454545454533,
                "tempo": 120.0
            },
            {
                "start_time": 67.90227272727273,
                "end_time": 68.07272727272726,
                "pitch": 57,
                "velocity": 64,
                "duration": 0.17045454545453254,
                "tempo": 120.0
            },
            {
                "start_time": 68.31363636363636,
                "end_time": 68.48409090909091,
                "pitch": 57,
                "velocity": 64,
                "duration": 0.17045454545454675,
                "tempo": 120.0
            },
            {
                "start_time": 69.95454545454545,
                "end_time": 70.125,
                "pitch": 57,
                "velocity": 64,
                "duration": 0.17045454545454675,
                "tempo": 120.0
            },
            {
                "start_time": 70.36590909090908,
                "end_time": 70.53636363636363,
                "pitch": 57,
                "velocity": 64,
                "duration": 0.17045454545454675,
                "tempo": 120.0
            },
            {
                "start_time": 70.57045454545454,
                "end_time": 71.15227272727273,
                "pitch": 62,
                "velocity": 64,
                "duration": 0.5818181818181927,
                "tempo": 120.0
            },
            {
                "start_time": 71.18636363636364,
                "end_time": 71.35681818181818,
                "pitch": 56,
                "velocity": 64,
                "duration": 0.17045454545454675,
                "tempo": 120.0
            },
            {
                "start_time": 71.59772727272727,
                "end_time": 71.76818181818182,
                "pitch": 56,
                "velocity": 64,
                "duration": 0.17045454545454675,
                "tempo": 120.0
            },
            {
                "start_time": 73.23863636363636,
                "end_time": 73.4090909090909,
                "pitch": 56,
                "velocity": 64,
                "duration": 0.17045454545454675,
                "tempo": 120.0
            },
            {
                "start_time": 73.64999999999999,
                "end_time": 73.82045454545454,
                "pitch": 56,
                "velocity": 64,
                "duration": 0.17045454545454675,
                "tempo": 120.0
            },
            {
                "start_time": 73.85454545454544,
                "end_time": 74.43181818181817,
                "pitch": 60,
                "velocity": 64,
                "duration": 0.577272727272728,
                "tempo": 120.0
            },
            {
                "start_time": 74.4659090909091,
                "end_time": 74.6340909090909,
                "pitch": 55,
                "velocity": 64,
                "duration": 0.16818181818180733,
                "tempo": 120.0
            },
            {
                "start_time": 74.87045454545454,
                "end_time": 75.03863636363636,
                "pitch": 55,
                "velocity": 64,
                "duration": 0.16818181818182154,
                "tempo": 120.0
            }
        ],
        "Electric Guitar (clean)": [
            {
                "start_time": 0.0,
                "end_time": 0.27045454545454545,
                "pitch": 31,
                "velocity": 51,
                "duration": 0.27045454545454545,
                "tempo": 120.0
            },
            {
                "start_time": 0.2863636363636364,
                "end_time": 0.3704545454545454,
                "pitch": 33,
                "velocity": 51,
                "duration": 0.08409090909090905,
                "tempo": 120.0
            },
            {
                "start_time": 0.3886363636363636,
                "end_time": 0.5727272727272728,
                "pitch": 34,
                "velocity": 51,
                "duration": 0.18409090909090914,
                "tempo": 120.0
            },
            {
                "start_time": 0.5909090909090908,
                "end_time": 1.1659090909090908,
                "pitch": 31,
                "velocity": 51,
                "duration": 0.575,
                "tempo": 120.0
            },
            {
                "start_time": 1.2,
                "end_time": 1.3704545454545454,
                "pitch": 33,
                "velocity": 51,
                "duration": 0.17045454545454541,
                "tempo": 120.0
            },
            {
                "start_time": 1.4045454545454545,
                "end_time": 1.7818181818181817,
                "pitch": 34,
                "velocity": 51,
                "duration": 0.3772727272727272,
                "tempo": 120.0
            },
            {
                "start_time": 1.815909090909091,
                "end_time": 2.190909090909091,
                "pitch": 31,
                "velocity": 51,
                "duration": 0.375,
                "tempo": 120.0
            },
            {
                "start_time": 2.225,
                "end_time": 2.5977272727272727,
                "pitch": 33,
                "velocity": 51,
                "duration": 0.3727272727272726,
                "tempo": 120.0
            },
            {
                "start_time": 2.631818181818182,
                "end_time": 3.2045454545454546,
                "pitch": 31,
                "velocity": 51,
                "duration": 0.5727272727272728,
                "tempo": 120.0
            },
            {
                "start_time": 3.2386363636363633,
                "end_time": 3.4068181818181817,
                "pitch": 33,
                "velocity": 51,
                "duration": 0.16818181818181843,
                "tempo": 120.0
            },
            {
                "start_time": 3.440909090909091,
                "end_time": 3.811363636363636,
                "pitch": 34,
                "velocity": 51,
                "duration": 0.37045454545454515,
                "tempo": 120.0
            },
            {
                "start_time": 3.8454545454545452,
                "end_time": 4.427272727272727,
                "pitch": 31,
                "velocity": 51,
                "duration": 0.5818181818181816,
                "tempo": 120.0
            },
            {
                "start_time": 4.461363636363636,
                "end_time": 4.631818181818182,
                "pitch": 33,
                "velocity": 51,
                "duration": 0.17045454545454586,
                "tempo": 120.0
            },
            {
                "start_time": 4.665909090909091,
                "end_time": 5.043181818181818,
                "pitch": 34,
                "velocity": 51,
                "duration": 0.377272727272727,
                "tempo": 120.0
            },
            {
                "start_time": 5.077272727272727,
                "end_time": 5.454545454545454,
                "pitch": 31,
                "velocity": 51,
                "duration": 0.377272727272727,
                "tempo": 120.0
            },
            {
                "start_time": 5.488636363636363,
                "end_time": 5.863636363636363,
                "pitch": 33,
                "velocity": 51,
                "duration": 0.375,
                "tempo": 120.0
            },
            {
                "start_time": 5.8977272727272725,
                "end_time": 6.4795454545454545,
                "pitch": 31,
                "velocity": 51,
                "duration": 0.581818181818182,
                "tempo": 120.0
            },
            {
                "start_time": 6.513636363636364,
                "end_time": 6.686363636363636,
                "pitch": 33,
                "velocity": 51,
                "duration": 0.17272727272727195,
                "tempo": 120.0
            },
            {
                "start_time": 6.720454545454545,
                "end_time": 7.095454545454545,
                "pitch": 34,
                "velocity": 51,
                "duration": 0.375,
                "tempo": 120.0
            },
            {
                "start_time": 7.129545454545454,
                "end_time": 7.704545454545454,
                "pitch": 31,
                "velocity": 51,
                "duration": 0.5750000000000002,
                "tempo": 120.0
            },
            {
                "start_time": 7.738636363636363,
                "end_time": 7.906818181818181,
                "pitch": 33,
                "velocity": 51,
                "duration": 0.168181818181818,
                "tempo": 120.0
            },
            {
                "start_time": 7.9409090909090905,
                "end_time": 8.311363636363636,
                "pitch": 34,
                "velocity": 51,
                "duration": 0.37045454545454515,
                "tempo": 120.0
            },
            {
                "start_time": 8.345454545454546,
                "end_time": 8.71590909090909,
                "pitch": 31,
                "velocity": 51,
                "duration": 0.37045454545454426,
                "tempo": 120.0
            },
            {
                "start_time": 8.75,
                "end_time": 9.122727272727273,
                "pitch": 33,
                "velocity": 51,
                "duration": 0.372727272727273,
                "tempo": 120.0
            },
            {
                "start_time": 9.154545454545454,
                "end_time": 9.729545454545454,
                "pitch": 31,
                "velocity": 51,
                "duration": 0.5749999999999993,
                "tempo": 120.0
            },
            {
                "start_time": 9.763636363636364,
                "end_time": 9.931818181818182,
                "pitch": 33,
                "velocity": 51,
                "duration": 0.168181818181818,
                "tempo": 120.0
            },
            {
                "start_time": 9.96590909090909,
                "end_time": 10.336363636363636,
                "pitch": 34,
                "velocity": 51,
                "duration": 0.37045454545454604,
                "tempo": 120.0
            },
            {
                "start_time": 10.370454545454544,
                "end_time": 10.945454545454545,
                "pitch": 31,
                "velocity": 51,
                "duration": 0.5750000000000011,
                "tempo": 120.0
            },
            {
                "start_time": 10.977272727272727,
                "end_time": 11.147727272727272,
                "pitch": 33,
                "velocity": 51,
                "duration": 0.17045454545454497,
                "tempo": 120.0
            },
            {
                "start_time": 11.181818181818182,
                "end_time": 11.552272727272726,
                "pitch": 34,
                "velocity": 51,
                "duration": 0.37045454545454426,
                "tempo": 120.0
            },
            {
                "start_time": 11.586363636363636,
                "end_time": 11.956818181818182,
                "pitch": 31,
                "velocity": 51,
                "duration": 0.37045454545454604,
                "tempo": 120.0
            },
            {
                "start_time": 11.99090909090909,
                "end_time": 12.361363636363636,
                "pitch": 33,
                "velocity": 51,
                "duration": 0.37045454545454604,
                "tempo": 120.0
            },
            {
                "start_time": 12.395454545454545,
                "end_time": 12.970454545454546,
                "pitch": 31,
                "velocity": 51,
                "duration": 0.5750000000000011,
                "tempo": 120.0
            },
            {
                "start_time": 13.004545454545454,
                "end_time": 13.172727272727272,
                "pitch": 33,
                "velocity": 51,
                "duration": 0.168181818181818,
                "tempo": 120.0
            },
            {
                "start_time": 13.206818181818182,
                "end_time": 13.577272727272726,
                "pitch": 34,
                "velocity": 51,
                "duration": 0.37045454545454426,
                "tempo": 120.0
            },
            {
                "start_time": 13.611363636363636,
                "end_time": 14.193181818181818,
                "pitch": 31,
                "velocity": 51,
                "duration": 0.581818181818182,
                "tempo": 120.0
            },
            {
                "start_time": 14.227272727272727,
                "end_time": 14.397727272727272,
                "pitch": 33,
                "velocity": 51,
                "duration": 0.17045454545454497,
                "tempo": 120.0
            },
            {
                "start_time": 14.431818181818182,
                "end_time": 14.809090909090909,
                "pitch": 34,
                "velocity": 51,
                "duration": 0.377272727272727,
                "tempo": 120.0
            },
            {
                "start_time": 14.843181818181817,
                "end_time": 15.218181818181817,
                "pitch": 31,
                "velocity": 51,
                "duration": 0.375,
                "tempo": 120.0
            },
            {
                "start_time": 15.252272727272727,
                "end_time": 15.625,
                "pitch": 33,
                "velocity": 51,
                "duration": 0.372727272727273,
                "tempo": 120.0
            },
            {
                "start_time": 15.656818181818181,
                "end_time": 16.23181818181818,
                "pitch": 31,
                "velocity": 51,
                "duration": 0.5749999999999993,
                "tempo": 120.0
            },
            {
                "start_time": 16.26590909090909,
                "end_time": 16.43409090909091,
                "pitch": 33,
                "velocity": 51,
                "duration": 0.168181818181818,
                "tempo": 120.0
            },
            {
                "start_time": 16.46818181818182,
                "end_time": 16.83863636363636,
                "pitch": 34,
                "velocity": 51,
                "duration": 0.3704545454545425,
                "tempo": 120.0
            },
            {
                "start_time": 16.87272727272727,
                "end_time": 17.454545454545453,
                "pitch": 31,
                "velocity": 51,
                "duration": 0.581818181818182,
                "tempo": 120.0
            },
            {
                "start_time": 17.488636363636363,
                "end_time": 17.659090909090907,
                "pitch": 33,
                "velocity": 51,
                "duration": 0.1704545454545432,
                "tempo": 120.0
            },
            {
                "start_time": 17.693181818181817,
                "end_time": 18.070454545454545,
                "pitch": 34,
                "velocity": 51,
                "duration": 0.37727272727272876,
                "tempo": 120.0
            },
            {
                "start_time": 18.104545454545455,
                "end_time": 18.48181818181818,
                "pitch": 31,
                "velocity": 51,
                "duration": 0.3772727272727252,
                "tempo": 120.0
            },
            {
                "start_time": 18.51590909090909,
                "end_time": 18.886363636363637,
                "pitch": 33,
                "velocity": 51,
                "duration": 0.37045454545454604,
                "tempo": 120.0
            },
            {
                "start_time": 18.920454545454543,
                "end_time": 19.493181818181817,
                "pitch": 31,
                "velocity": 51,
                "duration": 0.5727272727272741,
                "tempo": 120.0
            },
            {
                "start_time": 19.527272727272727,
                "end_time": 19.695454545454545,
                "pitch": 33,
                "velocity": 51,
                "duration": 0.168181818181818,
                "tempo": 120.0
            },
            {
                "start_time": 19.729545454545452,
                "end_time": 20.102272727272727,
                "pitch": 34,
                "velocity": 51,
                "duration": 0.3727272727272748,
                "tempo": 120.0
            },
            {
                "start_time": 20.134090909090908,
                "end_time": 20.71590909090909,
                "pitch": 31,
                "velocity": 51,
                "duration": 0.581818181818182,
                "tempo": 120.0
            },
            {
                "start_time": 20.75,
                "end_time": 20.922727272727272,
                "pitch": 33,
                "velocity": 51,
                "duration": 0.17272727272727195,
                "tempo": 120.0
            },
            {
                "start_time": 20.956818181818182,
                "end_time": 21.331818181818182,
                "pitch": 34,
                "velocity": 51,
                "duration": 0.375,
                "tempo": 120.0
            },
            {
                "start_time": 21.36590909090909,
                "end_time": 21.743181818181817,
                "pitch": 31,
                "velocity": 51,
                "duration": 0.37727272727272876,
                "tempo": 120.0
            },
            {
                "start_time": 21.777272727272727,
                "end_time": 22.147727272727273,
                "pitch": 33,
                "velocity": 51,
                "duration": 0.37045454545454604,
                "tempo": 120.0
            },
            {
                "start_time": 22.18181818181818,
                "end_time": 22.75681818181818,
                "pitch": 31,
                "velocity": 51,
                "duration": 0.5749999999999993,
                "tempo": 120.0
            },
            {
                "start_time": 22.788636363636364,
                "end_time": 22.959090909090907,
                "pitch": 33,
                "velocity": 51,
                "duration": 0.1704545454545432,
                "tempo": 120.0
            },
            {
                "start_time": 22.993181818181817,
                "end_time": 23.363636363636363,
                "pitch": 34,
                "velocity": 51,
                "duration": 0.37045454545454604,
                "tempo": 120.0
            },
            {
                "start_time": 23.39772727272727,
                "end_time": 23.979545454545452,
                "pitch": 31,
                "velocity": 51,
                "duration": 0.581818181818182,
                "tempo": 120.0
            },
            {
                "start_time": 24.013636363636362,
                "end_time": 24.18409090909091,
                "pitch": 33,
                "velocity": 51,
                "duration": 0.17045454545454675,
                "tempo": 120.0
            },
            {
                "start_time": 24.21818181818182,
                "end_time": 24.59318181818182,
                "pitch": 34,
                "velocity": 51,
                "duration": 0.375,
                "tempo": 120.0
            },
            {
                "start_time": 24.629545454545454,
                "end_time": 25.004545454545454,
                "pitch": 31,
                "velocity": 51,
                "duration": 0.375,
                "tempo": 120.0
            },
            {
                "start_time": 25.038636363636364,
                "end_time": 25.41590909090909,
                "pitch": 31,
                "velocity": 51,
                "duration": 0.3772727272727252,
                "tempo": 120.0
            },
            {
                "start_time": 25.45,
                "end_time": 26.03181818181818,
                "pitch": 31,
                "velocity": 51,
                "duration": 0.581818181818182,
                "tempo": 120.0
            },
            {
                "start_time": 26.06590909090909,
                "end_time": 26.236363636363635,
                "pitch": 33,
                "velocity": 51,
                "duration": 0.1704545454545432,
                "tempo": 120.0
            },
            {
                "start_time": 26.270454545454545,
                "end_time": 26.64772727272727,
                "pitch": 34,
                "velocity": 51,
                "duration": 0.3772727272727252,
                "tempo": 120.0
            },
            {
                "start_time": 26.68181818181818,
                "end_time": 27.263636363636362,
                "pitch": 31,
                "velocity": 51,
                "duration": 0.581818181818182,
                "tempo": 120.0
            },
            {
                "start_time": 27.297727272727272,
                "end_time": 27.468181818181815,
                "pitch": 33,
                "velocity": 51,
                "duration": 0.1704545454545432,
                "tempo": 120.0
            },
            {
                "start_time": 27.502272727272725,
                "end_time": 27.879545454545454,
                "pitch": 34,
                "velocity": 51,
                "duration": 0.37727272727272876,
                "tempo": 120.0
            },
            {
                "start_time": 27.913636363636364,
                "end_time": 28.288636363636364,
                "pitch": 31,
                "velocity": 51,
                "duration": 0.375,
                "tempo": 120.0
            },
            {
                "start_time": 28.32272727272727,
                "end_time": 28.695454545454545,
                "pitch": 33,
                "velocity": 51,
                "duration": 0.3727272727272748,
                "tempo": 120.0
            },
            {
                "start_time": 28.727272727272727,
                "end_time": 29.302272727272726,
                "pitch": 31,
                "velocity": 51,
                "duration": 0.5749999999999993,
                "tempo": 120.0
            },
            {
                "start_time": 29.336363636363636,
                "end_time": 29.504545454545454,
                "pitch": 33,
                "velocity": 51,
                "duration": 0.168181818181818,
                "tempo": 120.0
            },
            {
                "start_time": 29.53863636363636,
                "end_time": 29.909090909090907,
                "pitch": 34,
                "velocity": 51,
                "duration": 0.37045454545454604,
                "tempo": 120.0
            },
            {
                "start_time": 29.943181818181817,
                "end_time": 30.525,
                "pitch": 31,
                "velocity": 51,
                "duration": 0.581818181818182,
                "tempo": 120.0
            },
            {
                "start_time": 30.55909090909091,
                "end_time": 30.729545454545452,
                "pitch": 33,
                "velocity": 51,
                "duration": 0.1704545454545432,
                "tempo": 120.0
            },
            {
                "start_time": 30.763636363636362,
                "end_time": 31.14090909090909,
                "pitch": 34,
                "velocity": 51,
                "duration": 0.37727272727272876,
                "tempo": 120.0
            },
            {
                "start_time": 31.174999999999997,
                "end_time": 31.549999999999997,
                "pitch": 31,
                "velocity": 51,
                "duration": 0.375,
                "tempo": 120.0
            },
            {
                "start_time": 31.584090909090907,
                "end_time": 31.956818181818182,
                "pitch": 33,
                "velocity": 51,
                "duration": 0.3727272727272748,
                "tempo": 120.0
            },
            {
                "start_time": 31.99090909090909,
                "end_time": 32.56363636363636,
                "pitch": 31,
                "velocity": 51,
                "duration": 0.5727272727272741,
                "tempo": 120.0
            },
            {
                "start_time": 32.59772727272727,
                "end_time": 32.76590909090909,
                "pitch": 33,
                "velocity": 51,
                "duration": 0.16818181818182154,
                "tempo": 120.0
            },
            {
                "start_time": 32.8,
                "end_time": 33.17272727272727,
                "pitch": 34,
                "velocity": 51,
                "duration": 0.3727272727272748,
                "tempo": 120.0
            },
            {
                "start_time": 33.20454545454545,
                "end_time": 33.78636363636363,
                "pitch": 31,
                "velocity": 51,
                "duration": 0.5818181818181785,
                "tempo": 120.0
            },
            {
                "start_time": 33.820454545454545,
                "end_time": 33.99318181818182,
                "pitch": 33,
                "velocity": 51,
                "duration": 0.17272727272727195,
                "tempo": 120.0
            },
            {
                "start_time": 34.027272727272724,
                "end_time": 34.402272727272724,
                "pitch": 34,
                "velocity": 51,
                "duration": 0.375,
                "tempo": 120.0
            },
            {
                "start_time": 34.43636363636364,
                "end_time": 34.81363636363636,
                "pitch": 31,
                "velocity": 51,
                "duration": 0.3772727272727252,
                "tempo": 120.0
            },
            {
                "start_time": 34.84772727272727,
                "end_time": 35.21818181818182,
                "pitch": 33,
                "velocity": 51,
                "duration": 0.3704545454545496,
                "tempo": 120.0
            },
            {
                "start_time": 35.252272727272725,
                "end_time": 35.824999999999996,
                "pitch": 31,
                "velocity": 51,
                "duration": 0.5727272727272705,
                "tempo": 120.0
            },
            {
                "start_time": 35.85909090909091,
                "end_time": 36.029545454545456,
                "pitch": 33,
                "velocity": 51,
                "duration": 0.17045454545454675,
                "tempo": 120.0
            },
            {
                "start_time": 36.06136363636364,
                "end_time": 36.434090909090905,
                "pitch": 34,
                "velocity": 51,
                "duration": 0.3727272727272677,
                "tempo": 120.0
            },
            {
                "start_time": 36.46818181818182,
                "end_time": 37.04772727272727,
                "pitch": 31,
                "velocity": 51,
                "duration": 0.5795454545454533,
                "tempo": 120.0
            },
            {
                "start_time": 37.08409090909091,
                "end_time": 37.25454545454545,
                "pitch": 33,
                "velocity": 51,
                "duration": 0.17045454545453964,
                "tempo": 120.0
            },
            {
                "start_time": 37.288636363636364,
                "end_time": 37.663636363636364,
                "pitch": 34,
                "velocity": 51,
                "duration": 0.375,
                "tempo": 120.0
            },
            {
                "start_time": 37.69772727272727,
                "end_time": 38.074999999999996,
                "pitch": 31,
                "velocity": 51,
                "duration": 0.3772727272727252,
                "tempo": 120.0
            },
            {
                "start_time": 38.10909090909091,
                "end_time": 38.47954545454545,
                "pitch": 33,
                "velocity": 51,
                "duration": 0.3704545454545425,
                "tempo": 120.0
            },
            {
                "start_time": 38.51363636363636,
                "end_time": 39.08863636363636,
                "pitch": 31,
                "velocity": 51,
                "duration": 0.5750000000000028,
                "tempo": 120.0
            },
            {
                "start_time": 39.12272727272727,
                "end_time": 39.29090909090909,
                "pitch": 33,
                "velocity": 51,
                "duration": 0.16818181818182154,
                "tempo": 120.0
            },
            {
                "start_time": 39.324999999999996,
                "end_time": 39.695454545454545,
                "pitch": 34,
                "velocity": 51,
                "duration": 0.3704545454545496,
                "tempo": 120.0
            },
            {
                "start_time": 39.72954545454545,
                "end_time": 40.31136363636364,
                "pitch": 31,
                "velocity": 51,
                "duration": 0.5818181818181856,
                "tempo": 120.0
            },
            {
                "start_time": 40.345454545454544,
                "end_time": 40.51590909090909,
                "pitch": 33,
                "velocity": 51,
                "duration": 0.17045454545454675,
                "tempo": 120.0
            },
            {
                "start_time": 40.55,
                "end_time": 40.92727272727272,
                "pitch": 34,
                "velocity": 51,
                "duration": 0.3772727272727252,
                "tempo": 120.0
            },
            {
                "start_time": 40.961363636363636,
                "end_time": 41.336363636363636,
                "pitch": 31,
                "velocity": 51,
                "duration": 0.375,
                "tempo": 120.0
            },
            {
                "start_time": 41.37045454545454,
                "end_time": 41.74772727272727,
                "pitch": 33,
                "velocity": 51,
                "duration": 0.3772727272727252,
                "tempo": 120.0
            },
            {
                "start_time": 41.78181818181818,
                "end_time": 42.36363636363636,
                "pitch": 31,
                "velocity": 51,
                "duration": 0.5818181818181785,
                "tempo": 120.0
            },
            {
                "start_time": 42.39772727272727,
                "end_time": 42.56818181818181,
                "pitch": 33,
                "velocity": 51,
                "duration": 0.17045454545453964,
                "tempo": 120.0
            },
            {
                "start_time": 42.60227272727273,
                "end_time": 42.97954545454545,
                "pitch": 34,
                "velocity": 51,
                "duration": 0.3772727272727252,
                "tempo": 120.0
            },
            {
                "start_time": 43.01363636363636,
                "end_time": 43.595454545454544,
                "pitch": 31,
                "velocity": 51,
                "duration": 0.5818181818181856,
                "tempo": 120.0
            },
            {
                "start_time": 43.62954545454545,
                "end_time": 43.8,
                "pitch": 33,
                "velocity": 51,
                "duration": 0.17045454545454675,
                "tempo": 120.0
            },
            {
                "start_time": 43.834090909090904,
                "end_time": 44.211363636363636,
                "pitch": 34,
                "velocity": 51,
                "duration": 0.3772727272727323,
                "tempo": 120.0
            },
            {
                "start_time": 44.24545454545454,
                "end_time": 44.62045454545454,
                "pitch": 31,
                "velocity": 51,
                "duration": 0.375,
                "tempo": 120.0
            },
            {
                "start_time": 44.65454545454545,
                "end_time": 45.03181818181818,
                "pitch": 33,
                "velocity": 51,
                "duration": 0.3772727272727323,
                "tempo": 120.0
            },
            {
                "start_time": 45.06590909090909,
                "end_time": 45.64772727272727,
                "pitch": 31,
                "velocity": 51,
                "duration": 0.5818181818181856,
                "tempo": 120.0
            },
            {
                "start_time": 45.68181818181818,
                "end_time": 45.85227272727273,
                "pitch": 33,
                "velocity": 51,
                "duration": 0.17045454545454675,
                "tempo": 120.0
            },
            {
                "start_time": 45.88636363636363,
                "end_time": 46.26363636363636,
                "pitch": 34,
                "velocity": 51,
                "duration": 0.3772727272727252,
                "tempo": 120.0
            },
            {
                "start_time": 46.29772727272727,
                "end_time": 46.87272727272727,
                "pitch": 31,
                "velocity": 51,
                "duration": 0.5749999999999957,
                "tempo": 120.0
            },
            {
                "start_time": 46.90454545454545,
                "end_time": 47.074999999999996,
                "pitch": 33,
                "velocity": 51,
                "duration": 0.17045454545454675,
                "tempo": 120.0
            },
            {
                "start_time": 47.10909090909091,
                "end_time": 47.47954545454545,
                "pitch": 34,
                "velocity": 51,
                "duration": 0.3704545454545425,
                "tempo": 120.0
            },
            {
                "start_time": 47.51363636363636,
                "end_time": 47.88409090909091,
                "pitch": 31,
                "velocity": 51,
                "duration": 0.3704545454545496,
                "tempo": 120.0
            },
            {
                "start_time": 47.918181818181814,
                "end_time": 48.288636363636364,
                "pitch": 33,
                "velocity": 51,
                "duration": 0.3704545454545496,
                "tempo": 120.0
            },
            {
                "start_time": 48.32272727272727,
                "end_time": 48.89772727272727,
                "pitch": 31,
                "velocity": 51,
                "duration": 0.5750000000000028,
                "tempo": 120.0
            },
            {
                "start_time": 48.93181818181818,
                "end_time": 49.099999999999994,
                "pitch": 33,
                "velocity": 51,
                "duration": 0.16818181818181444,
                "tempo": 120.0
            },
            {
                "start_time": 49.13409090909091,
                "end_time": 49.50454545454545,
                "pitch": 34,
                "velocity": 51,
                "duration": 0.3704545454545425,
                "tempo": 120.0
            },
            {
                "start_time": 49.538636363636364,
                "end_time": 50.111363636363635,
                "pitch": 31,
                "velocity": 51,
                "duration": 0.5727272727272705,
                "tempo": 120.0
            },
            {
                "start_time": 50.14545454545454,
                "end_time": 50.31363636363636,
                "pitch": 33,
                "velocity": 51,
                "duration": 0.16818181818182154,
                "tempo": 120.0
            },
            {
                "start_time": 50.34772727272727,
                "end_time": 50.720454545454544,
                "pitch": 34,
                "velocity": 51,
                "duration": 0.3727272727272748,
                "tempo": 120.0
            },
            {
                "start_time": 50.75454545454545,
                "end_time": 51.125,
                "pitch": 31,
                "velocity": 51,
                "duration": 0.3704545454545496,
                "tempo": 120.0
            },
            {
                "start_time": 51.15909090909091,
                "end_time": 51.53409090909091,
                "pitch": 31,
                "velocity": 51,
                "duration": 0.375,
                "tempo": 120.0
            },
            {
                "start_time": 51.56818181818181,
                "end_time": 51.945454545454545,
                "pitch": 36,
                "velocity": 51,
                "duration": 0.3772727272727323,
                "tempo": 120.0
            },
            {
                "start_time": 51.97954545454545,
                "end_time": 52.35454545454545,
                "pitch": 37,
                "velocity": 51,
                "duration": 0.375,
                "tempo": 120.0
            },
            {
                "start_time": 52.39090909090909,
                "end_time": 52.76590909090909,
                "pitch": 36,
                "velocity": 51,
                "duration": 0.375,
                "tempo": 120.0
            },
            {
                "start_time": 52.8,
                "end_time": 53.17727272727272,
                "pitch": 37,
                "velocity": 51,
                "duration": 0.3772727272727252,
                "tempo": 120.0
            },
            {
                "start_time": 53.211363636363636,
                "end_time": 53.586363636363636,
                "pitch": 36,
                "velocity": 51,
                "duration": 0.375,
                "tempo": 120.0
            },
            {
                "start_time": 53.62045454545454,
                "end_time": 53.793181818181814,
                "pitch": 37,
                "velocity": 51,
                "duration": 0.17272727272727195,
                "tempo": 120.0
            },
            {
                "start_time": 53.82727272727273,
                "end_time": 54.20227272727273,
                "pitch": 36,
                "velocity": 51,
                "duration": 0.375,
                "tempo": 120.0
            },
            {
                "start_time": 54.236363636363635,
                "end_time": 54.40909090909091,
                "pitch": 36,
                "velocity": 51,
                "duration": 0.17272727272727195,
                "tempo": 120.0
            },
            {
                "start_time": 54.44318181818181,
                "end_time": 54.81363636363636,
                "pitch": 37,
                "velocity": 51,
                "duration": 0.3704545454545496,
                "tempo": 120.0
            },
            {
                "start_time": 54.84772727272727,
                "end_time": 55.21818181818182,
                "pitch": 36,
                "velocity": 51,
                "duration": 0.3704545454545496,
                "tempo": 120.0
            },
            {
                "start_time": 55.252272727272725,
                "end_time": 55.625,
                "pitch": 37,
                "velocity": 51,
                "duration": 0.3727272727272748,
                "tempo": 120.0
            },
            {
                "start_time": 55.65681818181818,
                "end_time": 56.02954545454545,
                "pitch": 36,
                "velocity": 51,
                "duration": 0.3727272727272677,
                "tempo": 120.0
            },
            {
                "start_time": 56.06363636363636,
                "end_time": 56.43863636363636,
                "pitch": 37,
                "velocity": 51,
                "duration": 0.375,
                "tempo": 120.0
            },
            {
                "start_time": 56.47272727272727,
                "end_time": 56.849999999999994,
                "pitch": 36,
                "velocity": 51,
                "duration": 0.3772727272727252,
                "tempo": 120.0
            },
            {
                "start_time": 56.88409090909091,
                "end_time": 57.054545454545455,
                "pitch": 37,
                "velocity": 51,
                "duration": 0.17045454545454675,
                "tempo": 120.0
            },
            {
                "start_time": 57.08863636363636,
                "end_time": 57.465909090909086,
                "pitch": 36,
                "velocity": 51,
                "duration": 0.3772727272727252,
                "tempo": 120.0
            },
            {
                "start_time": 57.5,
                "end_time": 57.67045454545454,
                "pitch": 36,
                "velocity": 51,
                "duration": 0.17045454545453964,
                "tempo": 120.0
            },
            {
                "start_time": 57.70454545454545,
                "end_time": 58.08181818181818,
                "pitch": 37,
                "velocity": 51,
                "duration": 0.3772727272727252,
                "tempo": 120.0
            },
            {
                "start_time": 58.115909090909085,
                "end_time": 58.490909090909085,
                "pitch": 36,
                "velocity": 51,
                "duration": 0.375,
                "tempo": 120.0
            },
            {
                "start_time": 58.525,
                "end_time": 58.902272727272724,
                "pitch": 37,
                "velocity": 51,
                "duration": 0.3772727272727252,
                "tempo": 120.0
            },
            {
                "start_time": 58.93636363636363,
                "end_time": 59.31363636363636,
                "pitch": 36,
                "velocity": 51,
                "duration": 0.3772727272727323,
                "tempo": 120.0
            },
            {
                "start_time": 59.34772727272727,
                "end_time": 59.72272727272727,
                "pitch": 37,
                "velocity": 51,
                "duration": 0.375,
                "tempo": 120.0
            },
            {
                "start_time": 59.756818181818176,
                "end_time": 60.13409090909091,
                "pitch": 36,
                "velocity": 51,
                "duration": 0.3772727272727323,
                "tempo": 120.0
            },
            {
                "start_time": 60.168181818181814,
                "end_time": 60.33863636363636,
                "pitch": 37,
                "velocity": 51,
                "duration": 0.17045454545454675,
                "tempo": 120.0
            },
            {
                "start_time": 60.37272727272727,
                "end_time": 60.75,
                "pitch": 36,
                "velocity": 51,
                "duration": 0.3772727272727323,
                "tempo": 120.0
            },
            {
                "start_time": 60.78409090909091,
                "end_time": 60.95454545454545,
                "pitch": 36,
                "velocity": 51,
                "duration": 0.17045454545454675,
                "tempo": 120.0
            },
            {
                "start_time": 60.98863636363636,
                "end_time": 61.361363636363635,
                "pitch": 37,
                "velocity": 51,
                "duration": 0.3727272727272748,
                "tempo": 120.0
            },
            {
                "start_time": 61.393181818181816,
                "end_time": 61.76590909090909,
                "pitch": 36,
                "velocity": 51,
                "duration": 0.3727272727272748,
                "tempo": 120.0
            },
            {
                "start_time": 61.8,
                "end_time": 62.17045454545454,
                "pitch": 37,
                "velocity": 51,
                "duration": 0.3704545454545425,
                "tempo": 120.0
            },
            {
                "start_time": 62.20454545454545,
                "end_time": 62.574999999999996,
                "pitch": 36,
                "velocity": 51,
                "duration": 0.3704545454545425,
                "tempo": 120.0
            },
            {
                "start_time": 62.60909090909091,
                "end_time": 62.98181818181818,
                "pitch": 37,
                "velocity": 51,
                "duration": 0.3727272727272677,
                "tempo": 120.0
            },
            {
                "start_time": 63.01363636363636,
                "end_time": 63.38636363636363,
                "pitch": 36,
                "velocity": 51,
                "duration": 0.3727272727272748,
                "tempo": 120.0
            },
            {
                "start_time": 63.42045454545454,
                "end_time": 63.58863636363636,
                "pitch": 37,
                "velocity": 51,
                "duration": 0.16818181818182154,
                "tempo": 120.0
            },
            {
                "start_time": 63.62272727272727,
                "end_time": 63.99318181818182,
                "pitch": 36,
                "velocity": 51,
                "duration": 0.3704545454545496,
                "tempo": 120.0
            },
            {
                "start_time": 64.02727272727273,
                "end_time": 64.19545454545454,
                "pitch": 36,
                "velocity": 51,
                "duration": 0.16818181818180733,
                "tempo": 120.0
            },
            {
                "start_time": 64.22954545454544,
                "end_time": 64.60681818181818,
                "pitch": 37,
                "velocity": 51,
                "duration": 0.3772727272727394,
                "tempo": 120.0
            },
            {
                "start_time": 64.64090909090909,
                "end_time": 65.01590909090909,
                "pitch": 36,
                "velocity": 51,
                "duration": 0.375,
                "tempo": 120.0
            },
            {
                "start_time": 65.05,
                "end_time": 65.42727272727272,
                "pitch": 37,
                "velocity": 51,
                "duration": 0.3772727272727252,
                "tempo": 120.0
            },
            {
                "start_time": 65.46136363636363,
                "end_time": 65.83636363636363,
                "pitch": 36,
                "velocity": 51,
                "duration": 0.375,
                "tempo": 120.0
            },
            {
                "start_time": 65.87045454545454,
                "end_time": 66.24318181818181,
                "pitch": 37,
                "velocity": 51,
                "duration": 0.3727272727272748,
                "tempo": 120.0
            },
            {
                "start_time": 66.27727272727273,
                "end_time": 66.64772727272727,
                "pitch": 36,
                "velocity": 51,
                "duration": 0.3704545454545354,
                "tempo": 120.0
            },
            {
                "start_time": 66.68181818181817,
                "end_time": 66.85,
                "pitch": 37,
                "velocity": 51,
                "duration": 0.16818181818182154,
                "tempo": 120.0
            },
            {
                "start_time": 66.8840909090909,
                "end_time": 67.25454545454545,
                "pitch": 36,
                "velocity": 51,
                "duration": 0.3704545454545496,
                "tempo": 120.0
            },
            {
                "start_time": 67.28863636363636,
                "end_time": 67.45681818181818,
                "pitch": 36,
                "velocity": 51,
                "duration": 0.16818181818182154,
                "tempo": 120.0
            },
            {
                "start_time": 67.49090909090908,
                "end_time": 67.86818181818181,
                "pitch": 37,
                "velocity": 51,
                "duration": 0.3772727272727252,
                "tempo": 120.0
            },
            {
                "start_time": 67.90227272727273,
                "end_time": 68.27954545454546,
                "pitch": 36,
                "velocity": 51,
                "duration": 0.3772727272727252,
                "tempo": 120.0
            },
            {
                "start_time": 68.31363636363636,
                "end_time": 68.68863636363636,
                "pitch": 37,
                "velocity": 51,
                "duration": 0.375,
                "tempo": 120.0
            },
            {
                "start_time": 68.72272727272727,
                "end_time": 69.1,
                "pitch": 36,
                "velocity": 51,
                "duration": 0.3772727272727252,
                "tempo": 120.0
            },
            {
                "start_time": 69.1340909090909,
                "end_time": 69.5090909090909,
                "pitch": 37,
                "velocity": 51,
                "duration": 0.375,
                "tempo": 120.0
            },
            {
                "start_time": 69.54545454545455,
                "end_time": 69.92045454545455,
                "pitch": 36,
                "velocity": 51,
                "duration": 0.375,
                "tempo": 120.0
            },
            {
                "start_time": 69.95454545454545,
                "end_time": 70.125,
                "pitch": 37,
                "velocity": 51,
                "duration": 0.17045454545454675,
                "tempo": 120.0
            },
            {
                "start_time": 70.1590909090909,
                "end_time": 70.53636363636363,
                "pitch": 36,
                "velocity": 51,
                "duration": 0.3772727272727252,
                "tempo": 120.0
            },
            {
                "start_time": 70.57045454545454,
                "end_time": 70.74090909090908,
                "pitch": 36,
                "velocity": 51,
                "duration": 0.17045454545454675,
                "tempo": 120.0
            },
            {
                "start_time": 70.77499999999999,
                "end_time": 71.15227272727273,
                "pitch": 37,
                "velocity": 51,
                "duration": 0.3772727272727394,
                "tempo": 120.0
            },
            {
                "start_time": 71.18636363636364,
                "end_time": 71.56363636363636,
                "pitch": 36,
                "velocity": 51,
                "duration": 0.3772727272727252,
                "tempo": 120.0
            },
            {
                "start_time": 71.59772727272727,
                "end_time": 71.97272727272727,
                "pitch": 37,
                "velocity": 51,
                "duration": 0.375,
                "tempo": 120.0
            },
            {
                "start_time": 72.00681818181818,
                "end_time": 72.3840909090909,
                "pitch": 36,
                "velocity": 51,
                "duration": 0.3772727272727252,
                "tempo": 120.0
            },
            {
                "start_time": 72.41818181818182,
                "end_time": 72.79545454545455,
                "pitch": 37,
                "velocity": 51,
                "duration": 0.3772727272727252,
                "tempo": 120.0
            },
            {
                "start_time": 72.82954545454545,
                "end_time": 73.20454545454545,
                "pitch": 36,
                "velocity": 51,
                "duration": 0.375,
                "tempo": 120.0
            },
            {
                "start_time": 73.23863636363636,
                "end_time": 73.4090909090909,
                "pitch": 37,
                "velocity": 51,
                "duration": 0.17045454545454675,
                "tempo": 120.0
            },
            {
                "start_time": 73.44545454545454,
                "end_time": 73.82045454545454,
                "pitch": 36,
                "velocity": 51,
                "duration": 0.375,
                "tempo": 120.0
            },
            {
                "start_time": 73.85454545454544,
                "end_time": 74.02499999999999,
                "pitch": 36,
                "velocity": 51,
                "duration": 0.17045454545454675,
                "tempo": 120.0
            },
            {
                "start_time": 74.05909090909091,
                "end_time": 74.43181818181817,
                "pitch": 37,
                "velocity": 51,
                "duration": 0.3727272727272606,
                "tempo": 120.0
            },
            {
                "start_time": 74.4659090909091,
                "end_time": 74.83636363636363,
                "pitch": 36,
                "velocity": 51,
                "duration": 0.3704545454545354,
                "tempo": 120.0
            },
            {
                "start_time": 74.87045454545454,
                "end_time": 75.24090909090908,
                "pitch": 37,
                "velocity": 51,
                "duration": 0.3704545454545496,
                "tempo": 120.0
            },
            {
                "start_time": 75.27499999999999,
                "end_time": 75.64772727272727,
                "pitch": 36,
                "velocity": 51,
                "duration": 0.3727272727272748,
                "tempo": 120.0
            },
            {
                "start_time": 75.67954545454545,
                "end_time": 76.05227272727272,
                "pitch": 37,
                "velocity": 51,
                "duration": 0.3727272727272748,
                "tempo": 120.0
            },
            {
                "start_time": 76.08636363636363,
                "end_time": 76.45681818181818,
                "pitch": 36,
                "velocity": 51,
                "duration": 0.3704545454545496,
                "tempo": 120.0
            },
            {
                "start_time": 76.49090909090908,
                "end_time": 76.86136363636363,
                "pitch": 37,
                "velocity": 51,
                "duration": 0.3704545454545496,
                "tempo": 120.0
            },
            {
                "start_time": 76.89545454545454,
                "end_time": 77.06363636363636,
                "pitch": 36,
                "velocity": 51,
                "duration": 0.16818181818182154,
                "tempo": 120.0
            },
            {
                "start_time": 77.09772727272727,
                "end_time": 77.26590909090909,
                "pitch": 34,
                "velocity": 51,
                "duration": 0.16818181818182154,
                "tempo": 120.0
            },
            {
                "start_time": 77.3,
                "end_time": 77.47045454545454,
                "pitch": 32,
                "velocity": 51,
                "duration": 0.17045454545454675,
                "tempo": 120.0
            },
            {
                "start_time": 77.50227272727273,
                "end_time": 77.67272727272727,
                "pitch": 31,
                "velocity": 51,
                "duration": 0.17045454545454675,
                "tempo": 120.0
            }
        ],
        "Harpsichord": [
            {
                "start_time": 0.0,
                "end_time": 2.190909090909091,
                "pitch": 62,
                "velocity": 40,
                "duration": 2.190909090909091,
                "tempo": 120.0
            },
            {
                "start_time": 2.225,
                "end_time": 2.5977272727272727,
                "pitch": 62,
                "velocity": 40,
                "duration": 0.3727272727272726,
                "tempo": 120.0
            },
            {
                "start_time": 2.631818181818182,
                "end_time": 5.454545454545454,
                "pitch": 61,
                "velocity": 40,
                "duration": 2.8227272727272723,
                "tempo": 120.0
            },
            {
                "start_time": 5.488636363636363,
                "end_time": 5.863636363636363,
                "pitch": 61,
                "velocity": 40,
                "duration": 0.375,
                "tempo": 120.0
            },
            {
                "start_time": 5.8977272727272725,
                "end_time": 8.71590909090909,
                "pitch": 60,
                "velocity": 40,
                "duration": 2.8181818181818175,
                "tempo": 120.0
            },
            {
                "start_time": 8.75,
                "end_time": 9.122727272727273,
                "pitch": 60,
                "velocity": 40,
                "duration": 0.372727272727273,
                "tempo": 120.0
            },
            {
                "start_time": 9.154545454545454,
                "end_time": 11.956818181818182,
                "pitch": 59,
                "velocity": 40,
                "duration": 2.8022727272727277,
                "tempo": 120.0
            },
            {
                "start_time": 11.99090909090909,
                "end_time": 12.361363636363636,
                "pitch": 59,
                "velocity": 40,
                "duration": 0.37045454545454604,
                "tempo": 120.0
            },
            {
                "start_time": 12.395454545454545,
                "end_time": 15.218181818181817,
                "pitch": 62,
                "velocity": 40,
                "duration": 2.8227272727272723,
                "tempo": 120.0
            },
            {
                "start_time": 15.252272727272727,
                "end_time": 15.625,
                "pitch": 62,
                "velocity": 40,
                "duration": 0.372727272727273,
                "tempo": 120.0
            },
            {
                "start_time": 15.656818181818181,
                "end_time": 18.48181818181818,
                "pitch": 61,
                "velocity": 40,
                "duration": 2.8249999999999993,
                "tempo": 120.0
            },
            {
                "start_time": 18.51590909090909,
                "end_time": 18.886363636363637,
                "pitch": 61,
                "velocity": 40,
                "duration": 0.37045454545454604,
                "tempo": 120.0
            },
            {
                "start_time": 18.920454545454543,
                "end_time": 21.743181818181817,
                "pitch": 60,
                "velocity": 40,
                "duration": 2.822727272727274,
                "tempo": 120.0
            },
            {
                "start_time": 21.777272727272727,
                "end_time": 22.147727272727273,
                "pitch": 60,
                "velocity": 40,
                "duration": 0.37045454545454604,
                "tempo": 120.0
            },
            {
                "start_time": 22.18181818181818,
                "end_time": 22.75681818181818,
                "pitch": 59,
                "velocity": 40,
                "duration": 0.5749999999999993,
                "tempo": 120.0
            },
            {
                "start_time": 22.788636363636364,
                "end_time": 22.959090909090907,
                "pitch": 59,
                "velocity": 40,
                "duration": 0.1704545454545432,
                "tempo": 120.0
            },
            {
                "start_time": 22.993181818181817,
                "end_time": 23.363636363636363,
                "pitch": 59,
                "velocity": 40,
                "duration": 0.37045454545454604,
                "tempo": 120.0
            },
            {
                "start_time": 25.45,
                "end_time": 28.288636363636364,
                "pitch": 62,
                "velocity": 40,
                "duration": 2.8386363636363647,
                "tempo": 120.0
            },
            {
                "start_time": 28.32272727272727,
                "end_time": 28.695454545454545,
                "pitch": 62,
                "velocity": 40,
                "duration": 0.3727272727272748,
                "tempo": 120.0
            },
            {
                "start_time": 28.727272727272727,
                "end_time": 31.549999999999997,
                "pitch": 61,
                "velocity": 40,
                "duration": 2.8227272727272705,
                "tempo": 120.0
            },
            {
                "start_time": 31.584090909090907,
                "end_time": 31.956818181818182,
                "pitch": 61,
                "velocity": 40,
                "duration": 0.3727272727272748,
                "tempo": 120.0
            },
            {
                "start_time": 31.99090909090909,
                "end_time": 34.81363636363636,
                "pitch": 60,
                "velocity": 40,
                "duration": 2.822727272727274,
                "tempo": 120.0
            },
            {
                "start_time": 34.84772727272727,
                "end_time": 35.21818181818182,
                "pitch": 60,
                "velocity": 40,
                "duration": 0.3704545454545496,
                "tempo": 120.0
            },
            {
                "start_time": 35.252272727272725,
                "end_time": 38.074999999999996,
                "pitch": 59,
                "velocity": 40,
                "duration": 2.8227272727272705,
                "tempo": 120.0
            },
            {
                "start_time": 38.10909090909091,
                "end_time": 38.47954545454545,
                "pitch": 59,
                "velocity": 40,
                "duration": 0.3704545454545425,
                "tempo": 120.0
            },
            {
                "start_time": 38.51363636363636,
                "end_time": 41.336363636363636,
                "pitch": 62,
                "velocity": 40,
                "duration": 2.8227272727272776,
                "tempo": 120.0
            },
            {
                "start_time": 41.37045454545454,
                "end_time": 41.74772727272727,
                "pitch": 62,
                "velocity": 40,
                "duration": 0.3772727272727252,
                "tempo": 120.0
            },
            {
                "start_time": 41.78181818181818,
                "end_time": 44.62045454545454,
                "pitch": 61,
                "velocity": 40,
                "duration": 2.838636363636361,
                "tempo": 120.0
            },
            {
                "start_time": 44.65454545454545,
                "end_time": 45.03181818181818,
                "pitch": 61,
                "velocity": 40,
                "duration": 0.3772727272727323,
                "tempo": 120.0
            },
            {
                "start_time": 45.06590909090909,
                "end_time": 47.88409090909091,
                "pitch": 60,
                "velocity": 40,
                "duration": 2.81818181818182,
                "tempo": 120.0
            },
            {
                "start_time": 47.918181818181814,
                "end_time": 48.288636363636364,
                "pitch": 60,
                "velocity": 40,
                "duration": 0.3704545454545496,
                "tempo": 120.0
            },
            {
                "start_time": 48.32272727272727,
                "end_time": 48.89772727272727,
                "pitch": 59,
                "velocity": 40,
                "duration": 0.5750000000000028,
                "tempo": 120.0
            },
            {
                "start_time": 48.93181818181818,
                "end_time": 49.099999999999994,
                "pitch": 59,
                "velocity": 40,
                "duration": 0.16818181818181444,
                "tempo": 120.0
            },
            {
                "start_time": 49.13409090909091,
                "end_time": 49.50454545454545,
                "pitch": 59,
                "velocity": 40,
                "duration": 0.3704545454545425,
                "tempo": 120.0
            },
            {
                "start_time": 51.56818181818181,
                "end_time": 51.740909090909085,
                "pitch": 55,
                "velocity": 40,
                "duration": 0.17272727272727195,
                "tempo": 120.0
            },
            {
                "start_time": 51.97954545454545,
                "end_time": 52.15,
                "pitch": 55,
                "velocity": 40,
                "duration": 0.17045454545454675,
                "tempo": 120.0
            },
            {
                "start_time": 53.62045454545454,
                "end_time": 53.793181818181814,
                "pitch": 55,
                "velocity": 40,
                "duration": 0.17272727272727195,
                "tempo": 120.0
            },
            {
                "start_time": 54.03181818181818,
                "end_time": 54.20227272727273,
                "pitch": 55,
                "velocity": 40,
                "duration": 0.17045454545454675,
                "tempo": 120.0
            },
            {
                "start_time": 54.236363636363635,
                "end_time": 54.81363636363636,
                "pitch": 58,
                "velocity": 40,
                "duration": 0.577272727272728,
                "tempo": 120.0
            },
            {
                "start_time": 54.84772727272727,
                "end_time": 55.01590909090909,
                "pitch": 54,
                "velocity": 40,
                "duration": 0.16818181818182154,
                "tempo": 120.0
            },
            {
                "start_time": 55.252272727272725,
                "end_time": 55.42045454545454,
                "pitch": 54,
                "velocity": 40,
                "duration": 0.16818181818181444,
                "tempo": 120.0
            },
            {
                "start_time": 56.88409090909091,
                "end_time": 57.054545454545455,
                "pitch": 54,
                "velocity": 40,
                "duration": 0.17045454545454675,
                "tempo": 120.0
            },
            {
                "start_time": 57.293181818181814,
                "end_time": 57.465909090909086,
                "pitch": 54,
                "velocity": 40,
                "duration": 0.17272727272727195,
                "tempo": 120.0
            },
            {
                "start_time": 57.5,
                "end_time": 58.08181818181818,
                "pitch": 57,
                "velocity": 40,
                "duration": 0.5818181818181785,
                "tempo": 120.0
            },
            {
                "start_time": 58.115909090909085,
                "end_time": 58.28636363636363,
                "pitch": 53,
                "velocity": 40,
                "duration": 0.17045454545454675,
                "tempo": 120.0
            },
            {
                "start_time": 58.525,
                "end_time": 58.69772727272727,
                "pitch": 53,
                "velocity": 40,
                "duration": 0.17272727272727195,
                "tempo": 120.0
            },
            {
                "start_time": 60.168181818181814,
                "end_time": 60.33863636363636,
                "pitch": 53,
                "velocity": 40,
                "duration": 0.17045454545454675,
                "tempo": 120.0
            },
            {
                "start_time": 60.57954545454545,
                "end_time": 60.75,
                "pitch": 53,
                "velocity": 40,
                "duration": 0.17045454545454675,
                "tempo": 120.0
            },
            {
                "start_time": 60.78409090909091,
                "end_time": 61.361363636363635,
                "pitch": 56,
                "velocity": 40,
                "duration": 0.577272727272728,
                "tempo": 120.0
            },
            {
                "start_time": 61.393181818181816,
                "end_time": 61.56363636363636,
                "pitch": 52,
                "velocity": 40,
                "duration": 0.17045454545454675,
                "tempo": 120.0
            },
            {
                "start_time": 61.8,
                "end_time": 61.96818181818182,
                "pitch": 52,
                "velocity": 40,
                "duration": 0.16818181818182154,
                "tempo": 120.0
            },
            {
                "start_time": 64.64090909090909,
                "end_time": 64.81136363636364,
                "pitch": 55,
                "velocity": 40,
                "duration": 0.17045454545454675,
                "tempo": 120.0
            },
            {
                "start_time": 65.05,
                "end_time": 65.22045454545454,
                "pitch": 55,
                "velocity": 40,
                "duration": 0.17045454545454675,
                "tempo": 120.0
            },
            {
                "start_time": 66.68181818181817,
                "end_time": 66.85,
                "pitch": 55,
                "velocity": 40,
                "duration": 0.16818181818182154,
                "tempo": 120.0
            },
            {
                "start_time": 67.08636363636363,
                "end_time": 67.25454545454545,
                "pitch": 55,
                "velocity": 40,
                "duration": 0.16818181818182154,
                "tempo": 120.0
            },
            {
                "start_time": 67.28863636363636,
                "end_time": 67.86818181818181,
                "pitch": 58,
                "velocity": 40,
                "duration": 0.5795454545454533,
                "tempo": 120.0
            },
            {
                "start_time": 67.90227272727273,
                "end_time": 68.07272727272726,
                "pitch": 54,
                "velocity": 40,
                "duration": 0.17045454545453254,
                "tempo": 120.0
            },
            {
                "start_time": 68.31363636363636,
                "end_time": 68.48409090909091,
                "pitch": 54,
                "velocity": 40,
                "duration": 0.17045454545454675,
                "tempo": 120.0
            },
            {
                "start_time": 69.95454545454545,
                "end_time": 70.125,
                "pitch": 54,
                "velocity": 40,
                "duration": 0.17045454545454675,
                "tempo": 120.0
            },
            {
                "start_time": 70.36590909090908,
                "end_time": 70.53636363636363,
                "pitch": 54,
                "velocity": 40,
                "duration": 0.17045454545454675,
                "tempo": 120.0
            },
            {
                "start_time": 70.57045454545454,
                "end_time": 71.15227272727273,
                "pitch": 57,
                "velocity": 40,
                "duration": 0.5818181818181927,
                "tempo": 120.0
            },
            {
                "start_time": 71.18636363636364,
                "end_time": 71.35681818181818,
                "pitch": 53,
                "velocity": 40,
                "duration": 0.17045454545454675,
                "tempo": 120.0
            },
            {
                "start_time": 71.59772727272727,
                "end_time": 71.76818181818182,
                "pitch": 53,
                "velocity": 40,
                "duration": 0.17045454545454675,
                "tempo": 120.0
            },
            {
                "start_time": 73.23863636363636,
                "end_time": 73.4090909090909,
                "pitch": 53,
                "velocity": 40,
                "duration": 0.17045454545454675,
                "tempo": 120.0
            },
            {
                "start_time": 73.64999999999999,
                "end_time": 73.82045454545454,
                "pitch": 53,
                "velocity": 40,
                "duration": 0.17045454545454675,
                "tempo": 120.0
            },
            {
                "start_time": 73.85454545454544,
                "end_time": 74.43181818181817,
                "pitch": 56,
                "velocity": 40,
                "duration": 0.577272727272728,
                "tempo": 120.0
            },
            {
                "start_time": 74.4659090909091,
                "end_time": 74.6340909090909,
                "pitch": 52,
                "velocity": 40,
                "duration": 0.16818181818180733,
                "tempo": 120.0
            },
            {
                "start_time": 74.87045454545454,
                "end_time": 75.03863636363636,
                "pitch": 52,
                "velocity": 40,
                "duration": 0.16818181818182154,
                "tempo": 120.0
            }
        ]
    }
}