{
    "track_id": "Wonder Boy III (FM) - 02 - Vs. Dragon",
    "mood": "angry",
    "instruments": {
        "Acoustic Bass": [
            {
                "start_time": 0.09545454545454544,
                "end_time": 0.16136363636363635,
                "pitch": 41,
                "velocity": 80,
                "duration": 0.0659090909090909,
                "tempo": 120.0
            },
            {
                "start_time": 0.19545454545454544,
                "end_time": 0.2954545454545454,
                "pitch": 43,
                "velocity": 80,
                "duration": 0.09999999999999998,
                "tempo": 120.0
            },
            {
                "start_time": 0.31136363636363634,
                "end_time": 0.3795454545454545,
                "pitch": 40,
                "velocity": 80,
                "duration": 0.06818181818181818,
                "tempo": 120.0
            },
            {
                "start_time": 0.39545454545454545,
                "end_time": 0.46136363636363636,
                "pitch": 38,
                "velocity": 80,
                "duration": 0.06590909090909092,
                "tempo": 120.0
            },
            {
                "start_time": 0.47727272727272724,
                "end_time": 0.5409090909090909,
                "pitch": 36,
                "velocity": 80,
                "duration": 0.06363636363636366,
                "tempo": 120.0
            },
            {
                "start_time": 0.5590909090909091,
                "end_time": 0.6227272727272727,
                "pitch": 35,
                "velocity": 80,
                "duration": 0.0636363636363636,
                "tempo": 120.0
            },
            {
                "start_time": 0.6386363636363636,
                "end_time": 0.7045454545454545,
                "pitch": 34,
                "velocity": 80,
                "duration": 0.06590909090909092,
                "tempo": 120.0
            },
            {
                "start_time": 0.7204545454545455,
                "end_time": 0.7363636363636363,
                "pitch": 33,
                "velocity": 80,
                "duration": 0.015909090909090873,
                "tempo": 120.0
            },
            {
                "start_time": 0.7363636363636363,
                "end_time": 0.8568181818181818,
                "pitch": 33,
                "velocity": 80,
                "duration": 0.12045454545454548,
                "tempo": 120.0
            },
            {
                "start_time": 1.2249999999999999,
                "end_time": 1.3545454545454545,
                "pitch": 33,
                "velocity": 80,
                "duration": 0.12954545454545463,
                "tempo": 120.0
            },
            {
                "start_time": 1.3886363636363637,
                "end_time": 1.5227272727272727,
                "pitch": 33,
                "velocity": 80,
                "duration": 0.13409090909090904,
                "tempo": 120.0
            },
            {
                "start_time": 1.8909090909090909,
                "end_time": 2.025,
                "pitch": 33,
                "velocity": 80,
                "duration": 0.13409090909090904,
                "tempo": 120.0
            },
            {
                "start_time": 2.234090909090909,
                "end_time": 2.375,
                "pitch": 33,
                "velocity": 80,
                "duration": 0.1409090909090911,
                "tempo": 120.0
            },
            {
                "start_time": 2.5727272727272728,
                "end_time": 2.702272727272727,
                "pitch": 33,
                "velocity": 80,
                "duration": 0.1295454545454544,
                "tempo": 120.0
            },
            {
                "start_time": 2.7363636363636363,
                "end_time": 2.870454545454545,
                "pitch": 33,
                "velocity": 80,
                "duration": 0.13409090909090882,
                "tempo": 120.0
            },
            {
                "start_time": 3.4159090909090906,
                "end_time": 3.55,
                "pitch": 31,
                "velocity": 80,
                "duration": 0.13409090909090926,
                "tempo": 120.0
            },
            {
                "start_time": 3.918181818181818,
                "end_time": 4.052272727272727,
                "pitch": 31,
                "velocity": 80,
                "duration": 0.13409090909090882,
                "tempo": 120.0
            },
            {
                "start_time": 4.084090909090909,
                "end_time": 4.218181818181818,
                "pitch": 31,
                "velocity": 80,
                "duration": 0.13409090909090882,
                "tempo": 120.0
            },
            {
                "start_time": 4.590909090909091,
                "end_time": 4.7295454545454545,
                "pitch": 31,
                "velocity": 80,
                "duration": 0.13863636363636367,
                "tempo": 120.0
            },
            {
                "start_time": 4.9363636363636365,
                "end_time": 5.075,
                "pitch": 31,
                "velocity": 80,
                "duration": 0.13863636363636367,
                "tempo": 120.0
            },
            {
                "start_time": 5.2749999999999995,
                "end_time": 5.409090909090909,
                "pitch": 31,
                "velocity": 80,
                "duration": 0.1340909090909097,
                "tempo": 120.0
            },
            {
                "start_time": 5.443181818181818,
                "end_time": 5.577272727272727,
                "pitch": 31,
                "velocity": 80,
                "duration": 0.13409090909090882,
                "tempo": 120.0
            },
            {
                "start_time": 5.777272727272727,
                "end_time": 5.847727272727273,
                "pitch": 38,
                "velocity": 80,
                "duration": 0.07045454545454533,
                "tempo": 120.0
            },
            {
                "start_time": 5.863636363636363,
                "end_time": 5.934090909090909,
                "pitch": 36,
                "velocity": 80,
                "duration": 0.07045454545454533,
                "tempo": 120.0
            },
            {
                "start_time": 5.949999999999999,
                "end_time": 6.018181818181818,
                "pitch": 35,
                "velocity": 80,
                "duration": 0.06818181818181834,
                "tempo": 120.0
            },
            {
                "start_time": 6.036363636363636,
                "end_time": 6.1045454545454545,
                "pitch": 34,
                "velocity": 80,
                "duration": 0.06818181818181834,
                "tempo": 120.0
            },
            {
                "start_time": 6.122727272727272,
                "end_time": 6.256818181818182,
                "pitch": 33,
                "velocity": 80,
                "duration": 0.1340909090909097,
                "tempo": 120.0
            },
            {
                "start_time": 6.643181818181818,
                "end_time": 6.761363636363636,
                "pitch": 33,
                "velocity": 80,
                "duration": 0.11818181818181817,
                "tempo": 120.0
            },
            {
                "start_time": 6.795454545454545,
                "end_time": 6.936363636363636,
                "pitch": 33,
                "velocity": 80,
                "duration": 0.14090909090909065,
                "tempo": 120.0
            },
            {
                "start_time": 7.331818181818181,
                "end_time": 7.465909090909091,
                "pitch": 33,
                "velocity": 80,
                "duration": 0.1340909090909097,
                "tempo": 120.0
            },
            {
                "start_time": 7.670454545454545,
                "end_time": 7.809090909090909,
                "pitch": 33,
                "velocity": 80,
                "duration": 0.13863636363636367,
                "tempo": 120.0
            },
            {
                "start_time": 8.011363636363637,
                "end_time": 8.145454545454545,
                "pitch": 33,
                "velocity": 80,
                "duration": 0.13409090909090793,
                "tempo": 120.0
            },
            {
                "start_time": 8.179545454545455,
                "end_time": 8.311363636363636,
                "pitch": 33,
                "velocity": 80,
                "duration": 0.13181818181818095,
                "tempo": 120.0
            },
            {
                "start_time": 8.85681818181818,
                "end_time": 8.99090909090909,
                "pitch": 31,
                "velocity": 80,
                "duration": 0.1340909090909097,
                "tempo": 120.0
            },
            {
                "start_time": 9.35909090909091,
                "end_time": 9.493181818181817,
                "pitch": 31,
                "velocity": 80,
                "duration": 0.13409090909090793,
                "tempo": 120.0
            },
            {
                "start_time": 9.527272727272727,
                "end_time": 9.661363636363635,
                "pitch": 31,
                "velocity": 80,
                "duration": 0.13409090909090793,
                "tempo": 120.0
            },
            {
                "start_time": 10.034090909090908,
                "end_time": 10.172727272727272,
                "pitch": 31,
                "velocity": 80,
                "duration": 0.13863636363636367,
                "tempo": 120.0
            },
            {
                "start_time": 10.379545454545454,
                "end_time": 10.51590909090909,
                "pitch": 31,
                "velocity": 80,
                "duration": 0.1363636363636367,
                "tempo": 120.0
            },
            {
                "start_time": 10.718181818181817,
                "end_time": 10.852272727272727,
                "pitch": 31,
                "velocity": 80,
                "duration": 0.1340909090909097,
                "tempo": 120.0
            },
            {
                "start_time": 10.886363636363637,
                "end_time": 11.020454545454545,
                "pitch": 31,
                "velocity": 80,
                "duration": 0.13409090909090793,
                "tempo": 120.0
            },
            {
                "start_time": 11.220454545454546,
                "end_time": 11.288636363636362,
                "pitch": 38,
                "velocity": 80,
                "duration": 0.06818181818181657,
                "tempo": 120.0
            },
            {
                "start_time": 11.304545454545455,
                "end_time": 11.372727272727273,
                "pitch": 36,
                "velocity": 80,
                "duration": 0.06818181818181834,
                "tempo": 120.0
            },
            {
                "start_time": 11.388636363636364,
                "end_time": 11.454545454545453,
                "pitch": 35,
                "velocity": 80,
                "duration": 0.06590909090908958,
                "tempo": 120.0
            },
            {
                "start_time": 11.472727272727273,
                "end_time": 11.538636363636362,
                "pitch": 34,
                "velocity": 80,
                "duration": 0.06590909090908958,
                "tempo": 120.0
            },
            {
                "start_time": 11.556818181818182,
                "end_time": 11.693181818181818,
                "pitch": 28,
                "velocity": 80,
                "duration": 0.1363636363636367,
                "tempo": 120.0
            },
            {
                "start_time": 11.727272727272727,
                "end_time": 11.86590909090909,
                "pitch": 28,
                "velocity": 80,
                "duration": 0.13863636363636367,
                "tempo": 120.0
            },
            {
                "start_time": 11.899999999999999,
                "end_time": 12.034090909090908,
                "pitch": 35,
                "velocity": 80,
                "duration": 0.1340909090909097,
                "tempo": 120.0
            },
            {
                "start_time": 12.068181818181818,
                "end_time": 12.202272727272726,
                "pitch": 35,
                "velocity": 80,
                "duration": 0.13409090909090793,
                "tempo": 120.0
            },
            {
                "start_time": 12.236363636363636,
                "end_time": 12.368181818181817,
                "pitch": 28,
                "velocity": 80,
                "duration": 0.13181818181818095,
                "tempo": 120.0
            },
            {
                "start_time": 12.402272727272727,
                "end_time": 12.536363636363635,
                "pitch": 35,
                "velocity": 80,
                "duration": 0.13409090909090793,
                "tempo": 120.0
            },
            {
                "start_time": 12.570454545454545,
                "end_time": 12.709090909090909,
                "pitch": 36,
                "velocity": 80,
                "duration": 0.13863636363636367,
                "tempo": 120.0
            },
            {
                "start_time": 12.727272727272727,
                "end_time": 13.11590909090909,
                "pitch": 38,
                "velocity": 80,
                "duration": 0.38863636363636367,
                "tempo": 120.0
            },
            {
                "start_time": 13.25,
                "end_time": 13.484090909090908,
                "pitch": 38,
                "velocity": 80,
                "duration": 0.23409090909090757,
                "tempo": 120.0
            },
            {
                "start_time": 13.584090909090909,
                "end_time": 13.825,
                "pitch": 38,
                "velocity": 80,
                "duration": 0.2409090909090903,
                "tempo": 120.0
            },
            {
                "start_time": 13.929545454545455,
                "end_time": 14.163636363636362,
                "pitch": 38,
                "velocity": 80,
                "duration": 0.23409090909090757,
                "tempo": 120.0
            },
            {
                "start_time": 14.26590909090909,
                "end_time": 14.384090909090908,
                "pitch": 28,
                "velocity": 80,
                "duration": 0.11818181818181728,
                "tempo": 120.0
            },
            {
                "start_time": 14.434090909090909,
                "end_time": 14.549999999999999,
                "pitch": 28,
                "velocity": 80,
                "duration": 0.1159090909090903,
                "tempo": 120.0
            },
            {
                "start_time": 14.6,
                "end_time": 14.722727272727273,
                "pitch": 35,
                "velocity": 80,
                "duration": 0.12272727272727302,
                "tempo": 120.0
            },
            {
                "start_time": 14.772727272727272,
                "end_time": 14.893181818181818,
                "pitch": 35,
                "velocity": 80,
                "duration": 0.12045454545454604,
                "tempo": 120.0
            },
            {
                "start_time": 14.945454545454545,
                "end_time": 15.079545454545453,
                "pitch": 28,
                "velocity": 80,
                "duration": 0.13409090909090793,
                "tempo": 120.0
            },
            {
                "start_time": 15.113636363636363,
                "end_time": 15.229545454545454,
                "pitch": 35,
                "velocity": 80,
                "duration": 0.1159090909090903,
                "tempo": 120.0
            },
            {
                "start_time": 15.279545454545454,
                "end_time": 15.418181818181818,
                "pitch": 36,
                "velocity": 80,
                "duration": 0.13863636363636367,
                "tempo": 120.0
            },
            {
                "start_time": 15.452272727272726,
                "end_time": 15.827272727272726,
                "pitch": 33,
                "velocity": 80,
                "duration": 0.375,
                "tempo": 120.0
            },
            {
                "start_time": 15.943181818181817,
                "end_time": 16.195454545454545,
                "pitch": 33,
                "velocity": 80,
                "duration": 0.25227272727272876,
                "tempo": 120.0
            },
            {
                "start_time": 16.279545454545453,
                "end_time": 16.536363636363635,
                "pitch": 33,
                "velocity": 80,
                "duration": 0.2568181818181827,
                "tempo": 120.0
            },
            {
                "start_time": 16.638636363636362,
                "end_time": 16.87272727272727,
                "pitch": 33,
                "velocity": 80,
                "duration": 0.23409090909090935,
                "tempo": 120.0
            },
            {
                "start_time": 16.974999999999998,
                "end_time": 17.09090909090909,
                "pitch": 28,
                "velocity": 80,
                "duration": 0.11590909090909207,
                "tempo": 120.0
            },
            {
                "start_time": 17.14090909090909,
                "end_time": 17.259090909090908,
                "pitch": 28,
                "velocity": 80,
                "duration": 0.11818181818181728,
                "tempo": 120.0
            },
            {
                "start_time": 17.30909090909091,
                "end_time": 17.429545454545455,
                "pitch": 35,
                "velocity": 80,
                "duration": 0.12045454545454604,
                "tempo": 120.0
            },
            {
                "start_time": 17.48181818181818,
                "end_time": 17.602272727272727,
                "pitch": 35,
                "velocity": 80,
                "duration": 0.12045454545454604,
                "tempo": 120.0
            },
            {
                "start_time": 17.652272727272727,
                "end_time": 17.786363636363635,
                "pitch": 28,
                "velocity": 80,
                "duration": 0.13409090909090793,
                "tempo": 120.0
            },
            {
                "start_time": 17.820454545454545,
                "end_time": 17.938636363636363,
                "pitch": 35,
                "velocity": 80,
                "duration": 0.11818181818181728,
                "tempo": 120.0
            },
            {
                "start_time": 17.988636363636363,
                "end_time": 18.125,
                "pitch": 36,
                "velocity": 80,
                "duration": 0.1363636363636367,
                "tempo": 120.0
            },
            {
                "start_time": 18.159090909090907,
                "end_time": 18.527272727272727,
                "pitch": 38,
                "velocity": 80,
                "duration": 0.36818181818182083,
                "tempo": 120.0
            },
            {
                "start_time": 18.64090909090909,
                "end_time": 18.897727272727273,
                "pitch": 38,
                "velocity": 80,
                "duration": 0.2568181818181827,
                "tempo": 120.0
            },
            {
                "start_time": 18.98409090909091,
                "end_time": 19.243181818181817,
                "pitch": 38,
                "velocity": 80,
                "duration": 0.25909090909090793,
                "tempo": 120.0
            },
            {
                "start_time": 19.345454545454544,
                "end_time": 19.636363636363637,
                "pitch": 38,
                "velocity": 80,
                "duration": 0.2909090909090928,
                "tempo": 120.0
            },
            {
                "start_time": 19.74090909090909,
                "end_time": 19.868181818181817,
                "pitch": 28,
                "velocity": 80,
                "duration": 0.12727272727272876,
                "tempo": 120.0
            },
            {
                "start_time": 19.922727272727272,
                "end_time": 20.05,
                "pitch": 28,
                "velocity": 80,
                "duration": 0.12727272727272876,
                "tempo": 120.0
            },
            {
                "start_time": 20.104545454545452,
                "end_time": 20.243181818181817,
                "pitch": 35,
                "velocity": 80,
                "duration": 0.13863636363636545,
                "tempo": 120.0
            },
            {
                "start_time": 20.277272727272727,
                "end_time": 20.413636363636364,
                "pitch": 35,
                "velocity": 80,
                "duration": 0.1363636363636367,
                "tempo": 120.0
            },
            {
                "start_time": 20.45,
                "end_time": 20.584090909090907,
                "pitch": 28,
                "velocity": 80,
                "duration": 0.13409090909090793,
                "tempo": 120.0
            },
            {
                "start_time": 20.61590909090909,
                "end_time": 20.75,
                "pitch": 35,
                "velocity": 80,
                "duration": 0.13409090909091148,
                "tempo": 120.0
            },
            {
                "start_time": 20.784090909090907,
                "end_time": 20.922727272727272,
                "pitch": 36,
                "velocity": 80,
                "duration": 0.13863636363636545,
                "tempo": 120.0
            },
            {
                "start_time": 20.959090909090907,
                "end_time": 21.331818181818182,
                "pitch": 33,
                "velocity": 80,
                "duration": 0.3727272727272748,
                "tempo": 120.0
            },
            {
                "start_time": 21.46590909090909,
                "end_time": 21.706818181818182,
                "pitch": 33,
                "velocity": 80,
                "duration": 0.24090909090909207,
                "tempo": 120.0
            },
            {
                "start_time": 21.80909090909091,
                "end_time": 22.045454545454543,
                "pitch": 33,
                "velocity": 80,
                "duration": 0.23636363636363455,
                "tempo": 120.0
            },
            {
                "start_time": 22.145454545454545,
                "end_time": 22.211363636363636,
                "pitch": 38,
                "velocity": 80,
                "duration": 0.06590909090909136,
                "tempo": 120.0
            },
            {
                "start_time": 22.211363636363636,
                "end_time": 22.279545454545453,
                "pitch": 36,
                "velocity": 80,
                "duration": 0.06818181818181657,
                "tempo": 120.0
            },
            {
                "start_time": 22.311363636363634,
                "end_time": 22.379545454545454,
                "pitch": 35,
                "velocity": 80,
                "duration": 0.06818181818182012,
                "tempo": 120.0
            },
            {
                "start_time": 22.379545454545454,
                "end_time": 22.445454545454545,
                "pitch": 35,
                "velocity": 80,
                "duration": 0.06590909090909136,
                "tempo": 120.0
            }
        ],
        "Violin": [
            {
                "start_time": 0.0,
                "end_time": 0.07727272727272727,
                "pitch": 71,
                "velocity": 101,
                "duration": 0.07727272727272727,
                "tempo": 120.0
            },
            {
                "start_time": 0.09545454545454544,
                "end_time": 0.16136363636363635,
                "pitch": 69,
                "velocity": 101,
                "duration": 0.0659090909090909,
                "tempo": 120.0
            },
            {
                "start_time": 0.19545454545454544,
                "end_time": 0.2954545454545454,
                "pitch": 67,
                "velocity": 101,
                "duration": 0.09999999999999998,
                "tempo": 120.0
            },
            {
                "start_time": 0.31136363636363634,
                "end_time": 0.3795454545454545,
                "pitch": 65,
                "velocity": 101,
                "duration": 0.06818181818181818,
                "tempo": 120.0
            },
            {
                "start_time": 0.39545454545454545,
                "end_time": 0.46136363636363636,
                "pitch": 64,
                "velocity": 101,
                "duration": 0.06590909090909092,
                "tempo": 120.0
            },
            {
                "start_time": 0.47727272727272724,
                "end_time": 0.5409090909090909,
                "pitch": 62,
                "velocity": 101,
                "duration": 0.06363636363636366,
                "tempo": 120.0
            },
            {
                "start_time": 0.5590909090909091,
                "end_time": 0.6227272727272727,
                "pitch": 60,
                "velocity": 101,
                "duration": 0.0636363636363636,
                "tempo": 120.0
            },
            {
                "start_time": 0.6386363636363636,
                "end_time": 0.7045454545454545,
                "pitch": 59,
                "velocity": 101,
                "duration": 0.06590909090909092,
                "tempo": 120.0
            },
            {
                "start_time": 0.7204545454545455,
                "end_time": 0.7363636363636363,
                "pitch": 57,
                "velocity": 101,
                "duration": 0.015909090909090873,
                "tempo": 120.0
            },
            {
                "start_time": 0.7363636363636363,
                "end_time": 0.7545454545454545,
                "pitch": 57,
                "velocity": 25,
                "duration": 0.018181818181818188,
                "tempo": 120.0
            },
            {
                "start_time": 0.8909090909090909,
                "end_time": 0.9249999999999999,
                "pitch": 69,
                "velocity": 25,
                "duration": 0.03409090909090906,
                "tempo": 120.0
            },
            {
                "start_time": 1.0636363636363635,
                "end_time": 1.0954545454545455,
                "pitch": 70,
                "velocity": 25,
                "duration": 0.03181818181818197,
                "tempo": 120.0
            },
            {
                "start_time": 1.2249999999999999,
                "end_time": 1.259090909090909,
                "pitch": 71,
                "velocity": 25,
                "duration": 0.03409090909090917,
                "tempo": 120.0
            },
            {
                "start_time": 1.3886363636363637,
                "end_time": 1.4204545454545454,
                "pitch": 57,
                "velocity": 25,
                "duration": 0.031818181818181746,
                "tempo": 120.0
            },
            {
                "start_time": 1.5545454545454545,
                "end_time": 1.5886363636363636,
                "pitch": 69,
                "velocity": 51,
                "duration": 0.03409090909090917,
                "tempo": 120.0
            },
            {
                "start_time": 1.7227272727272727,
                "end_time": 1.7568181818181818,
                "pitch": 70,
                "velocity": 51,
                "duration": 0.03409090909090917,
                "tempo": 120.0
            },
            {
                "start_time": 1.8909090909090909,
                "end_time": 1.9227272727272726,
                "pitch": 71,
                "velocity": 51,
                "duration": 0.031818181818181746,
                "tempo": 120.0
            },
            {
                "start_time": 2.0568181818181817,
                "end_time": 2.0931818181818183,
                "pitch": 57,
                "velocity": 51,
                "duration": 0.0363636363636366,
                "tempo": 120.0
            },
            {
                "start_time": 2.234090909090909,
                "end_time": 2.2704545454545455,
                "pitch": 69,
                "velocity": 80,
                "duration": 0.0363636363636366,
                "tempo": 120.0
            },
            {
                "start_time": 2.411363636363636,
                "end_time": 2.443181818181818,
                "pitch": 70,
                "velocity": 80,
                "duration": 0.031818181818181746,
                "tempo": 120.0
            },
            {
                "start_time": 2.5727272727272728,
                "end_time": 2.6068181818181815,
                "pitch": 71,
                "velocity": 80,
                "duration": 0.03409090909090873,
                "tempo": 120.0
            },
            {
                "start_time": 2.7363636363636363,
                "end_time": 2.768181818181818,
                "pitch": 57,
                "velocity": 80,
                "duration": 0.031818181818181746,
                "tempo": 120.0
            },
            {
                "start_time": 2.9022727272727273,
                "end_time": 2.936363636363636,
                "pitch": 69,
                "velocity": 127,
                "duration": 0.03409090909090873,
                "tempo": 120.0
            },
            {
                "start_time": 3.0704545454545453,
                "end_time": 3.1045454545454545,
                "pitch": 70,
                "velocity": 127,
                "duration": 0.03409090909090917,
                "tempo": 120.0
            },
            {
                "start_time": 3.243181818181818,
                "end_time": 3.277272727272727,
                "pitch": 71,
                "velocity": 127,
                "duration": 0.03409090909090873,
                "tempo": 120.0
            },
            {
                "start_time": 3.4159090909090906,
                "end_time": 3.4477272727272728,
                "pitch": 69,
                "velocity": 127,
                "duration": 0.03181818181818219,
                "tempo": 120.0
            },
            {
                "start_time": 3.5818181818181816,
                "end_time": 3.6159090909090907,
                "pitch": 67,
                "velocity": 80,
                "duration": 0.03409090909090917,
                "tempo": 120.0
            },
            {
                "start_time": 3.75,
                "end_time": 3.7840909090909087,
                "pitch": 69,
                "velocity": 80,
                "duration": 0.03409090909090873,
                "tempo": 120.0
            },
            {
                "start_time": 3.918181818181818,
                "end_time": 3.9499999999999997,
                "pitch": 67,
                "velocity": 80,
                "duration": 0.031818181818181746,
                "tempo": 120.0
            },
            {
                "start_time": 4.084090909090909,
                "end_time": 4.118181818181818,
                "pitch": 69,
                "velocity": 80,
                "duration": 0.03409090909090917,
                "tempo": 120.0
            },
            {
                "start_time": 4.252272727272727,
                "end_time": 4.286363636363636,
                "pitch": 67,
                "velocity": 80,
                "duration": 0.03409090909090917,
                "tempo": 120.0
            },
            {
                "start_time": 4.420454545454545,
                "end_time": 4.454545454545454,
                "pitch": 57,
                "velocity": 80,
                "duration": 0.03409090909090917,
                "tempo": 120.0
            },
            {
                "start_time": 4.590909090909091,
                "end_time": 4.627272727272727,
                "pitch": 57,
                "velocity": 80,
                "duration": 0.036363636363636154,
                "tempo": 120.0
            },
            {
                "start_time": 4.763636363636364,
                "end_time": 4.797727272727273,
                "pitch": 69,
                "velocity": 80,
                "duration": 0.03409090909090917,
                "tempo": 120.0
            },
            {
                "start_time": 4.9363636363636365,
                "end_time": 4.970454545454545,
                "pitch": 67,
                "velocity": 80,
                "duration": 0.034090909090908283,
                "tempo": 120.0
            },
            {
                "start_time": 5.1090909090909085,
                "end_time": 5.143181818181818,
                "pitch": 69,
                "velocity": 80,
                "duration": 0.03409090909090917,
                "tempo": 120.0
            },
            {
                "start_time": 5.2749999999999995,
                "end_time": 5.309090909090909,
                "pitch": 67,
                "velocity": 80,
                "duration": 0.03409090909090917,
                "tempo": 120.0
            },
            {
                "start_time": 5.443181818181818,
                "end_time": 5.477272727272727,
                "pitch": 69,
                "velocity": 80,
                "duration": 0.034090909090908283,
                "tempo": 120.0
            },
            {
                "start_time": 5.611363636363636,
                "end_time": 5.6454545454545455,
                "pitch": 67,
                "velocity": 80,
                "duration": 0.03409090909090917,
                "tempo": 120.0
            },
            {
                "start_time": 5.777272727272727,
                "end_time": 5.795454545454545,
                "pitch": 64,
                "velocity": 80,
                "duration": 0.018181818181817633,
                "tempo": 120.0
            },
            {
                "start_time": 5.863636363636363,
                "end_time": 5.881818181818182,
                "pitch": 62,
                "velocity": 127,
                "duration": 0.01818181818181852,
                "tempo": 120.0
            },
            {
                "start_time": 5.949999999999999,
                "end_time": 5.968181818181818,
                "pitch": 60,
                "velocity": 127,
                "duration": 0.01818181818181852,
                "tempo": 120.0
            },
            {
                "start_time": 6.036363636363636,
                "end_time": 6.054545454545455,
                "pitch": 59,
                "velocity": 127,
                "duration": 0.01818181818181852,
                "tempo": 120.0
            },
            {
                "start_time": 6.122727272727272,
                "end_time": 6.156818181818181,
                "pitch": 57,
                "velocity": 127,
                "duration": 0.03409090909090917,
                "tempo": 120.0
            },
            {
                "start_time": 6.290909090909091,
                "end_time": 6.322727272727272,
                "pitch": 69,
                "velocity": 25,
                "duration": 0.0318181818181813,
                "tempo": 120.0
            },
            {
                "start_time": 6.456818181818181,
                "end_time": 6.49090909090909,
                "pitch": 70,
                "velocity": 25,
                "duration": 0.03409090909090917,
                "tempo": 120.0
            },
            {
                "start_time": 6.643181818181818,
                "end_time": 6.675,
                "pitch": 71,
                "velocity": 25,
                "duration": 0.03181818181818219,
                "tempo": 120.0
            },
            {
                "start_time": 6.811363636363636,
                "end_time": 6.847727272727273,
                "pitch": 57,
                "velocity": 25,
                "duration": 0.03636363636363704,
                "tempo": 120.0
            },
            {
                "start_time": 6.988636363636363,
                "end_time": 7.006818181818182,
                "pitch": 69,
                "velocity": 51,
                "duration": 0.01818181818181852,
                "tempo": 120.0
            },
            {
                "start_time": 7.163636363636363,
                "end_time": 7.197727272727272,
                "pitch": 70,
                "velocity": 51,
                "duration": 0.03409090909090917,
                "tempo": 120.0
            },
            {
                "start_time": 7.331818181818181,
                "end_time": 7.36590909090909,
                "pitch": 71,
                "velocity": 51,
                "duration": 0.03409090909090917,
                "tempo": 120.0
            },
            {
                "start_time": 7.5,
                "end_time": 7.534090909090908,
                "pitch": 57,
                "velocity": 51,
                "duration": 0.034090909090908283,
                "tempo": 120.0
            },
            {
                "start_time": 7.670454545454545,
                "end_time": 7.706818181818181,
                "pitch": 69,
                "velocity": 80,
                "duration": 0.036363636363636154,
                "tempo": 120.0
            },
            {
                "start_time": 7.843181818181818,
                "end_time": 7.877272727272727,
                "pitch": 70,
                "velocity": 80,
                "duration": 0.03409090909090917,
                "tempo": 120.0
            },
            {
                "start_time": 8.011363636363637,
                "end_time": 8.045454545454545,
                "pitch": 71,
                "velocity": 80,
                "duration": 0.034090909090908283,
                "tempo": 120.0
            },
            {
                "start_time": 8.179545454545455,
                "end_time": 8.211363636363636,
                "pitch": 57,
                "velocity": 80,
                "duration": 0.0318181818181813,
                "tempo": 120.0
            },
            {
                "start_time": 8.345454545454546,
                "end_time": 8.379545454545454,
                "pitch": 69,
                "velocity": 127,
                "duration": 0.034090909090908283,
                "tempo": 120.0
            },
            {
                "start_time": 8.513636363636364,
                "end_time": 8.547727272727272,
                "pitch": 70,
                "velocity": 127,
                "duration": 0.034090909090908283,
                "tempo": 120.0
            },
            {
                "start_time": 8.686363636363636,
                "end_time": 8.720454545454546,
                "pitch": 71,
                "velocity": 127,
                "duration": 0.03409090909091006,
                "tempo": 120.0
            },
            {
                "start_time": 8.85681818181818,
                "end_time": 8.89090909090909,
                "pitch": 69,
                "velocity": 127,
                "duration": 0.03409090909091006,
                "tempo": 120.0
            },
            {
                "start_time": 9.025,
                "end_time": 9.059090909090909,
                "pitch": 67,
                "velocity": 80,
                "duration": 0.034090909090908283,
                "tempo": 120.0
            },
            {
                "start_time": 9.193181818181818,
                "end_time": 9.225,
                "pitch": 69,
                "velocity": 80,
                "duration": 0.0318181818181813,
                "tempo": 120.0
            },
            {
                "start_time": 9.35909090909091,
                "end_time": 9.393181818181818,
                "pitch": 67,
                "velocity": 80,
                "duration": 0.034090909090908283,
                "tempo": 120.0
            },
            {
                "start_time": 9.527272727272727,
                "end_time": 9.561363636363636,
                "pitch": 69,
                "velocity": 80,
                "duration": 0.034090909090908283,
                "tempo": 120.0
            },
            {
                "start_time": 9.695454545454545,
                "end_time": 9.729545454545454,
                "pitch": 67,
                "velocity": 80,
                "duration": 0.034090909090908283,
                "tempo": 120.0
            },
            {
                "start_time": 9.861363636363636,
                "end_time": 9.897727272727272,
                "pitch": 57,
                "velocity": 80,
                "duration": 0.036363636363635266,
                "tempo": 120.0
            },
            {
                "start_time": 10.034090909090908,
                "end_time": 10.068181818181818,
                "pitch": 57,
                "velocity": 80,
                "duration": 0.03409090909091006,
                "tempo": 120.0
            },
            {
                "start_time": 10.206818181818182,
                "end_time": 10.24090909090909,
                "pitch": 69,
                "velocity": 80,
                "duration": 0.034090909090908283,
                "tempo": 120.0
            },
            {
                "start_time": 10.379545454545454,
                "end_time": 10.413636363636362,
                "pitch": 67,
                "velocity": 80,
                "duration": 0.034090909090908283,
                "tempo": 120.0
            },
            {
                "start_time": 10.552272727272726,
                "end_time": 10.584090909090909,
                "pitch": 69,
                "velocity": 80,
                "duration": 0.03181818181818308,
                "tempo": 120.0
            },
            {
                "start_time": 10.718181818181817,
                "end_time": 10.752272727272727,
                "pitch": 67,
                "velocity": 80,
                "duration": 0.03409090909091006,
                "tempo": 120.0
            },
            {
                "start_time": 10.886363636363637,
                "end_time": 10.920454545454545,
                "pitch": 69,
                "velocity": 80,
                "duration": 0.034090909090908283,
                "tempo": 120.0
            },
            {
                "start_time": 11.054545454545455,
                "end_time": 11.086363636363636,
                "pitch": 67,
                "velocity": 80,
                "duration": 0.0318181818181813,
                "tempo": 120.0
            },
            {
                "start_time": 11.220454545454546,
                "end_time": 11.238636363636363,
                "pitch": 64,
                "velocity": 80,
                "duration": 0.018181818181817633,
                "tempo": 120.0
            },
            {
                "start_time": 11.304545454545455,
                "end_time": 11.322727272727272,
                "pitch": 62,
                "velocity": 127,
                "duration": 0.018181818181817633,
                "tempo": 120.0
            },
            {
                "start_time": 11.388636363636364,
                "end_time": 11.404545454545454,
                "pitch": 60,
                "velocity": 127,
                "duration": 0.01590909090909065,
                "tempo": 120.0
            },
            {
                "start_time": 11.472727272727273,
                "end_time": 11.488636363636363,
                "pitch": 59,
                "velocity": 127,
                "duration": 0.01590909090909065,
                "tempo": 120.0
            },
            {
                "start_time": 11.556818181818182,
                "end_time": 12.368181818181817,
                "pitch": 59,
                "velocity": 127,
                "duration": 0.8113636363636356,
                "tempo": 120.0
            },
            {
                "start_time": 12.402272727272727,
                "end_time": 12.536363636363635,
                "pitch": 59,
                "velocity": 80,
                "duration": 0.13409090909090793,
                "tempo": 120.0
            },
            {
                "start_time": 12.570454545454545,
                "end_time": 12.709090909090909,
                "pitch": 60,
                "velocity": 80,
                "duration": 0.13863636363636367,
                "tempo": 120.0
            },
            {
                "start_time": 12.743181818181817,
                "end_time": 13.670454545454545,
                "pitch": 62,
                "velocity": 80,
                "duration": 0.9272727272727277,
                "tempo": 120.0
            },
            {
                "start_time": 13.929545454545455,
                "end_time": 13.995454545454544,
                "pitch": 84,
                "velocity": 80,
                "duration": 0.06590909090908958,
                "tempo": 120.0
            },
            {
                "start_time": 14.013636363636364,
                "end_time": 14.079545454545453,
                "pitch": 84,
                "velocity": 80,
                "duration": 0.06590909090908958,
                "tempo": 120.0
            },
            {
                "start_time": 14.095454545454544,
                "end_time": 14.23181818181818,
                "pitch": 84,
                "velocity": 80,
                "duration": 0.1363636363636367,
                "tempo": 120.0
            },
            {
                "start_time": 14.26590909090909,
                "end_time": 15.079545454545453,
                "pitch": 59,
                "velocity": 80,
                "duration": 0.8136363636363626,
                "tempo": 120.0
            },
            {
                "start_time": 15.113636363636363,
                "end_time": 15.247727272727271,
                "pitch": 59,
                "velocity": 80,
                "duration": 0.13409090909090793,
                "tempo": 120.0
            },
            {
                "start_time": 15.279545454545454,
                "end_time": 15.418181818181818,
                "pitch": 58,
                "velocity": 80,
                "duration": 0.13863636363636367,
                "tempo": 120.0
            },
            {
                "start_time": 15.452272727272726,
                "end_time": 16.363636363636363,
                "pitch": 57,
                "velocity": 80,
                "duration": 0.911363636363637,
                "tempo": 120.0
            },
            {
                "start_time": 16.638636363636362,
                "end_time": 16.772727272727273,
                "pitch": 67,
                "velocity": 80,
                "duration": 0.13409090909091148,
                "tempo": 120.0
            },
            {
                "start_time": 16.80681818181818,
                "end_time": 16.94090909090909,
                "pitch": 69,
                "velocity": 80,
                "duration": 0.13409090909091148,
                "tempo": 120.0
            },
            {
                "start_time": 16.974999999999998,
                "end_time": 17.786363636363635,
                "pitch": 71,
                "velocity": 80,
                "duration": 0.8113636363636374,
                "tempo": 120.0
            },
            {
                "start_time": 17.820454545454545,
                "end_time": 17.954545454545453,
                "pitch": 71,
                "velocity": 80,
                "duration": 0.13409090909090793,
                "tempo": 120.0
            },
            {
                "start_time": 17.988636363636363,
                "end_time": 18.125,
                "pitch": 72,
                "velocity": 80,
                "duration": 0.1363636363636367,
                "tempo": 120.0
            },
            {
                "start_time": 18.159090909090907,
                "end_time": 19.070454545454545,
                "pitch": 74,
                "velocity": 80,
                "duration": 0.9113636363636388,
                "tempo": 120.0
            },
            {
                "start_time": 19.345454545454544,
                "end_time": 19.429545454545455,
                "pitch": 84,
                "velocity": 80,
                "duration": 0.08409090909091077,
                "tempo": 120.0
            },
            {
                "start_time": 19.445454545454545,
                "end_time": 19.53181818181818,
                "pitch": 84,
                "velocity": 80,
                "duration": 0.08636363636363598,
                "tempo": 120.0
            },
            {
                "start_time": 19.55,
                "end_time": 19.704545454545453,
                "pitch": 84,
                "velocity": 80,
                "duration": 0.15454545454545254,
                "tempo": 120.0
            },
            {
                "start_time": 19.74090909090909,
                "end_time": 20.584090909090907,
                "pitch": 71,
                "velocity": 80,
                "duration": 0.8431818181818187,
                "tempo": 120.0
            },
            {
                "start_time": 20.61590909090909,
                "end_time": 20.75,
                "pitch": 71,
                "velocity": 80,
                "duration": 0.13409090909091148,
                "tempo": 120.0
            },
            {
                "start_time": 20.784090909090907,
                "end_time": 20.922727272727272,
                "pitch": 70,
                "velocity": 80,
                "duration": 0.13863636363636545,
                "tempo": 120.0
            },
            {
                "start_time": 20.959090909090907,
                "end_time": 21.36590909090909,
                "pitch": 69,
                "velocity": 80,
                "duration": 0.4068181818181813,
                "tempo": 120.0
            },
            {
                "start_time": 21.46590909090909,
                "end_time": 21.706818181818182,
                "pitch": 67,
                "velocity": 80,
                "duration": 0.24090909090909207,
                "tempo": 120.0
            },
            {
                "start_time": 21.80909090909091,
                "end_time": 22.045454545454543,
                "pitch": 65,
                "velocity": 80,
                "duration": 0.23636363636363455,
                "tempo": 120.0
            },
            {
                "start_time": 22.145454545454545,
                "end_time": 22.211363636363636,
                "pitch": 62,
                "velocity": 80,
                "duration": 0.06590909090909136,
                "tempo": 120.0
            },
            {
                "start_time": 22.227272727272727,
                "end_time": 22.279545454545453,
                "pitch": 60,
                "velocity": 80,
                "duration": 0.052272727272725916,
                "tempo": 120.0
            },
            {
                "start_time": 22.311363636363634,
                "end_time": 22.379545454545454,
                "pitch": 59,
                "velocity": 80,
                "duration": 0.06818181818182012,
                "tempo": 120.0
            },
            {
                "start_time": 22.379545454545454,
                "end_time": 22.445454545454545,
                "pitch": 59,
                "velocity": 80,
                "duration": 0.06590909090909136,
                "tempo": 120.0
            }
        ],
        "Electric Guitar (clean)": [
            {
                "start_time": 0.0,
                "end_time": 0.7363636363636363,
                "pitch": 40,
                "velocity": 4,
                "duration": 0.7363636363636363,
                "tempo": 120.0
            },
            {
                "start_time": 0.7363636363636363,
                "end_time": 0.7545454545454545,
                "pitch": 40,
                "velocity": 4,
                "duration": 0.018181818181818188,
                "tempo": 120.0
            },
            {
                "start_time": 0.7545454545454545,
                "end_time": 1.0795454545454546,
                "pitch": 31,
                "velocity": 4,
                "duration": 0.32500000000000007,
                "tempo": 120.0
            },
            {
                "start_time": 1.0795454545454546,
                "end_time": 1.2409090909090907,
                "pitch": 23,
                "velocity": 4,
                "duration": 0.16136363636363615,
                "tempo": 120.0
            },
            {
                "start_time": 1.2409090909090907,
                "end_time": 1.7386363636363635,
                "pitch": 31,
                "velocity": 4,
                "duration": 0.4977272727272728,
                "tempo": 120.0
            },
            {
                "start_time": 1.7386363636363635,
                "end_time": 1.9068181818181817,
                "pitch": 23,
                "velocity": 4,
                "duration": 0.1681818181818182,
                "tempo": 120.0
            },
            {
                "start_time": 1.9068181818181817,
                "end_time": 2.4272727272727272,
                "pitch": 31,
                "velocity": 4,
                "duration": 0.5204545454545455,
                "tempo": 120.0
            },
            {
                "start_time": 2.4272727272727272,
                "end_time": 2.5886363636363634,
                "pitch": 23,
                "velocity": 4,
                "duration": 0.16136363636363615,
                "tempo": 120.0
            },
            {
                "start_time": 2.5886363636363634,
                "end_time": 2.686363636363636,
                "pitch": 31,
                "velocity": 4,
                "duration": 0.09772727272727266,
                "tempo": 120.0
            },
            {
                "start_time": 2.686363636363636,
                "end_time": 3.0886363636363634,
                "pitch": 86,
                "velocity": 4,
                "duration": 0.40227272727272734,
                "tempo": 120.0
            },
            {
                "start_time": 3.0886363636363634,
                "end_time": 3.4318181818181817,
                "pitch": 78,
                "velocity": 4,
                "duration": 0.34318181818181825,
                "tempo": 120.0
            },
            {
                "start_time": 3.4318181818181817,
                "end_time": 3.7659090909090907,
                "pitch": 86,
                "velocity": 4,
                "duration": 0.334090909090909,
                "tempo": 120.0
            },
            {
                "start_time": 3.7659090909090907,
                "end_time": 3.934090909090909,
                "pitch": 78,
                "velocity": 4,
                "duration": 0.16818181818181843,
                "tempo": 120.0
            },
            {
                "start_time": 3.934090909090909,
                "end_time": 4.4363636363636365,
                "pitch": 86,
                "velocity": 4,
                "duration": 0.5022727272727274,
                "tempo": 120.0
            },
            {
                "start_time": 4.4363636363636365,
                "end_time": 4.6090909090909085,
                "pitch": 78,
                "velocity": 4,
                "duration": 0.17272727272727195,
                "tempo": 120.0
            },
            {
                "start_time": 4.6090909090909085,
                "end_time": 5.125,
                "pitch": 86,
                "velocity": 4,
                "duration": 0.5159090909090915,
                "tempo": 120.0
            },
            {
                "start_time": 5.125,
                "end_time": 5.293181818181818,
                "pitch": 78,
                "velocity": 4,
                "duration": 0.168181818181818,
                "tempo": 120.0
            },
            {
                "start_time": 5.293181818181818,
                "end_time": 5.795454545454545,
                "pitch": 86,
                "velocity": 4,
                "duration": 0.502272727272727,
                "tempo": 120.0
            },
            {
                "start_time": 5.795454545454545,
                "end_time": 6.138636363636364,
                "pitch": 78,
                "velocity": 4,
                "duration": 0.3431818181818187,
                "tempo": 120.0
            },
            {
                "start_time": 6.138636363636364,
                "end_time": 6.475,
                "pitch": 86,
                "velocity": 4,
                "duration": 0.336363636363636,
                "tempo": 120.0
            },
            {
                "start_time": 6.475,
                "end_time": 6.659090909090909,
                "pitch": 78,
                "velocity": 4,
                "duration": 0.18409090909090953,
                "tempo": 120.0
            },
            {
                "start_time": 6.659090909090909,
                "end_time": 7.181818181818182,
                "pitch": 86,
                "velocity": 4,
                "duration": 0.5227272727272725,
                "tempo": 120.0
            },
            {
                "start_time": 7.181818181818182,
                "end_time": 7.347727272727273,
                "pitch": 78,
                "velocity": 4,
                "duration": 0.165909090909091,
                "tempo": 120.0
            },
            {
                "start_time": 7.347727272727273,
                "end_time": 7.620454545454545,
                "pitch": 86,
                "velocity": 4,
                "duration": 0.2727272727272725,
                "tempo": 120.0
            },
            {
                "start_time": 7.620454545454545,
                "end_time": 7.861363636363636,
                "pitch": 100,
                "velocity": 4,
                "duration": 0.24090909090909118,
                "tempo": 120.0
            },
            {
                "start_time": 7.861363636363636,
                "end_time": 8.027272727272727,
                "pitch": 92,
                "velocity": 4,
                "duration": 0.165909090909091,
                "tempo": 120.0
            },
            {
                "start_time": 8.027272727272727,
                "end_time": 8.529545454545454,
                "pitch": 101,
                "velocity": 4,
                "duration": 0.502272727272727,
                "tempo": 120.0
            },
            {
                "start_time": 8.529545454545454,
                "end_time": 8.875,
                "pitch": 92,
                "velocity": 4,
                "duration": 0.3454545454545457,
                "tempo": 120.0
            },
            {
                "start_time": 8.875,
                "end_time": 9.159090909090908,
                "pitch": 101,
                "velocity": 4,
                "duration": 0.2840909090909083,
                "tempo": 120.0
            },
            {
                "start_time": 9.159090909090908,
                "end_time": 9.209090909090909,
                "pitch": 67,
                "velocity": 4,
                "duration": 0.05000000000000071,
                "tempo": 120.0
            },
            {
                "start_time": 9.209090909090909,
                "end_time": 9.377272727272727,
                "pitch": 59,
                "velocity": 4,
                "duration": 0.168181818181818,
                "tempo": 120.0
            },
            {
                "start_time": 9.377272727272727,
                "end_time": 9.879545454545454,
                "pitch": 67,
                "velocity": 4,
                "duration": 0.502272727272727,
                "tempo": 120.0
            },
            {
                "start_time": 9.879545454545454,
                "end_time": 10.052272727272726,
                "pitch": 59,
                "velocity": 4,
                "duration": 0.17272727272727195,
                "tempo": 120.0
            },
            {
                "start_time": 10.052272727272726,
                "end_time": 10.568181818181818,
                "pitch": 67,
                "velocity": 4,
                "duration": 0.5159090909090924,
                "tempo": 120.0
            },
            {
                "start_time": 10.568181818181818,
                "end_time": 10.736363636363636,
                "pitch": 59,
                "velocity": 4,
                "duration": 0.168181818181818,
                "tempo": 120.0
            },
            {
                "start_time": 10.736363636363636,
                "end_time": 11.238636363636363,
                "pitch": 67,
                "velocity": 4,
                "duration": 0.502272727272727,
                "tempo": 120.0
            },
            {
                "start_time": 11.238636363636363,
                "end_time": 11.572727272727272,
                "pitch": 59,
                "velocity": 4,
                "duration": 0.334090909090909,
                "tempo": 120.0
            },
            {
                "start_time": 11.572727272727272,
                "end_time": 11.831818181818182,
                "pitch": 67,
                "velocity": 4,
                "duration": 0.2590909090909097,
                "tempo": 120.0
            },
            {
                "start_time": 11.831818181818182,
                "end_time": 11.918181818181818,
                "pitch": 61,
                "velocity": 4,
                "duration": 0.08636363636363598,
                "tempo": 120.0
            },
            {
                "start_time": 11.918181818181818,
                "end_time": 12.252272727272727,
                "pitch": 53,
                "velocity": 4,
                "duration": 0.334090909090909,
                "tempo": 120.0
            },
            {
                "start_time": 12.252272727272727,
                "end_time": 12.586363636363636,
                "pitch": 61,
                "velocity": 4,
                "duration": 0.334090909090909,
                "tempo": 120.0
            },
            {
                "start_time": 12.586363636363636,
                "end_time": 12.743181818181817,
                "pitch": 53,
                "velocity": 4,
                "duration": 0.1568181818181813,
                "tempo": 120.0
            },
            {
                "start_time": 12.743181818181817,
                "end_time": 13.26590909090909,
                "pitch": 61,
                "velocity": 4,
                "duration": 0.5227272727272734,
                "tempo": 120.0
            },
            {
                "start_time": 13.26590909090909,
                "end_time": 13.602272727272727,
                "pitch": 53,
                "velocity": 4,
                "duration": 0.336363636363636,
                "tempo": 120.0
            },
            {
                "start_time": 13.602272727272727,
                "end_time": 13.945454545454545,
                "pitch": 61,
                "velocity": 4,
                "duration": 0.3431818181818187,
                "tempo": 120.0
            },
            {
                "start_time": 13.945454545454545,
                "end_time": 14.26590909090909,
                "pitch": 53,
                "velocity": 4,
                "duration": 0.3204545454545453,
                "tempo": 120.0
            },
            {
                "start_time": 14.26590909090909,
                "end_time": 14.6,
                "pitch": 61,
                "velocity": 4,
                "duration": 0.334090909090909,
                "tempo": 120.0
            },
            {
                "start_time": 14.6,
                "end_time": 14.945454545454545,
                "pitch": 21,
                "velocity": 4,
                "duration": 0.3454545454545457,
                "tempo": 120.0
            },
            {
                "start_time": 14.945454545454545,
                "end_time": 15.279545454545454,
                "pitch": 30,
                "velocity": 4,
                "duration": 0.334090909090909,
                "tempo": 120.0
            },
            {
                "start_time": 15.279545454545454,
                "end_time": 15.452272727272726,
                "pitch": 20,
                "velocity": 4,
                "duration": 0.17272727272727195,
                "tempo": 120.0
            },
            {
                "start_time": 15.452272727272726,
                "end_time": 15.961363636363636,
                "pitch": 30,
                "velocity": 4,
                "duration": 0.5090909090909097,
                "tempo": 120.0
            },
            {
                "start_time": 15.961363636363636,
                "end_time": 16.195454545454545,
                "pitch": 20,
                "velocity": 4,
                "duration": 0.23409090909090935,
                "tempo": 120.0
            },
            {
                "start_time": 16.195454545454545,
                "end_time": 16.295454545454543,
                "pitch": 54,
                "velocity": 4,
                "duration": 0.09999999999999787,
                "tempo": 120.0
            },
            {
                "start_time": 16.295454545454543,
                "end_time": 16.638636363636362,
                "pitch": 62,
                "velocity": 4,
                "duration": 0.3431818181818187,
                "tempo": 120.0
            },
            {
                "start_time": 16.638636363636362,
                "end_time": 16.87272727272727,
                "pitch": 54,
                "velocity": 4,
                "duration": 0.23409090909090935,
                "tempo": 120.0
            },
            {
                "start_time": 16.87272727272727,
                "end_time": 16.974999999999998,
                "pitch": 48,
                "velocity": 4,
                "duration": 0.10227272727272663,
                "tempo": 120.0
            },
            {
                "start_time": 16.974999999999998,
                "end_time": 17.075,
                "pitch": 56,
                "velocity": 4,
                "duration": 0.10000000000000142,
                "tempo": 120.0
            },
            {
                "start_time": 17.075,
                "end_time": 17.30909090909091,
                "pitch": 75,
                "velocity": 4,
                "duration": 0.23409090909090935,
                "tempo": 120.0
            },
            {
                "start_time": 17.30909090909091,
                "end_time": 17.652272727272727,
                "pitch": 68,
                "velocity": 4,
                "duration": 0.3431818181818187,
                "tempo": 120.0
            },
            {
                "start_time": 17.652272727272727,
                "end_time": 17.988636363636363,
                "pitch": 77,
                "velocity": 4,
                "duration": 0.336363636363636,
                "tempo": 120.0
            },
            {
                "start_time": 17.988636363636363,
                "end_time": 18.159090909090907,
                "pitch": 68,
                "velocity": 4,
                "duration": 0.1704545454545432,
                "tempo": 120.0
            },
            {
                "start_time": 18.159090909090907,
                "end_time": 18.65681818181818,
                "pitch": 77,
                "velocity": 4,
                "duration": 0.4977272727272748,
                "tempo": 120.0
            },
            {
                "start_time": 18.65681818181818,
                "end_time": 19.002272727272725,
                "pitch": 68,
                "velocity": 4,
                "duration": 0.3454545454545439,
                "tempo": 120.0
            },
            {
                "start_time": 19.002272727272725,
                "end_time": 19.363636363636363,
                "pitch": 77,
                "velocity": 4,
                "duration": 0.3613636363636381,
                "tempo": 120.0
            },
            {
                "start_time": 19.363636363636363,
                "end_time": 19.759090909090908,
                "pitch": 68,
                "velocity": 4,
                "duration": 0.3954545454545446,
                "tempo": 120.0
            },
            {
                "start_time": 19.759090909090908,
                "end_time": 20.12272727272727,
                "pitch": 77,
                "velocity": 4,
                "duration": 0.3636363636363633,
                "tempo": 120.0
            },
            {
                "start_time": 20.12272727272727,
                "end_time": 20.46590909090909,
                "pitch": 68,
                "velocity": 4,
                "duration": 0.3431818181818187,
                "tempo": 120.0
            },
            {
                "start_time": 20.46590909090909,
                "end_time": 20.802272727272726,
                "pitch": 77,
                "velocity": 4,
                "duration": 0.336363636363636,
                "tempo": 120.0
            },
            {
                "start_time": 20.802272727272726,
                "end_time": 20.959090909090907,
                "pitch": 68,
                "velocity": 4,
                "duration": 0.1568181818181813,
                "tempo": 120.0
            },
            {
                "start_time": 20.959090909090907,
                "end_time": 21.13181818181818,
                "pitch": 77,
                "velocity": 4,
                "duration": 0.17272727272727195,
                "tempo": 120.0
            },
            {
                "start_time": 21.13181818181818,
                "end_time": 21.80909090909091,
                "pitch": 68,
                "velocity": 4,
                "duration": 0.6772727272727295,
                "tempo": 120.0
            },
            {
                "start_time": 21.80909090909091,
                "end_time": 21.909090909090907,
                "pitch": 19,
                "velocity": 4,
                "duration": 0.09999999999999787,
                "tempo": 120.0
            },
            {
                "start_time": 21.909090909090907,
                "end_time": 22.245454545454546,
                "pitch": 68,
                "velocity": 4,
                "duration": 0.33636363636363953,
                "tempo": 120.0
            },
            {
                "start_time": 22.245454545454546,
                "end_time": 22.479545454545452,
                "pitch": 21,
                "velocity": 4,
                "duration": 0.2340909090909058,
                "tempo": 120.0
            }
        ]
    }
}