{
    "track_id": "Wonder Boy III (FM) - 12 - The Monster_s Lair",
    "mood": "angry",
    "instruments": {
        "Acoustic Bass": [
            {
                "start_time": 0.3977272727272727,
                "end_time": 0.5499999999999999,
                "pitch": 31,
                "velocity": 64,
                "duration": 0.15227272727272723,
                "tempo": 120.0
            },
            {
                "start_time": 0.6022727272727273,
                "end_time": 1.0522727272727272,
                "pitch": 33,
                "velocity": 64,
                "duration": 0.44999999999999996,
                "tempo": 120.0
            },
            {
                "start_time": 1.2,
                "end_time": 1.3522727272727273,
                "pitch": 31,
                "velocity": 64,
                "duration": 0.15227272727272734,
                "tempo": 120.0
            },
            {
                "start_time": 1.4045454545454545,
                "end_time": 1.8545454545454545,
                "pitch": 33,
                "velocity": 64,
                "duration": 0.44999999999999996,
                "tempo": 120.0
            },
            {
                "start_time": 2.002272727272727,
                "end_time": 2.1522727272727273,
                "pitch": 31,
                "velocity": 64,
                "duration": 0.15000000000000036,
                "tempo": 120.0
            },
            {
                "start_time": 2.202272727272727,
                "end_time": 2.4909090909090907,
                "pitch": 36,
                "velocity": 64,
                "duration": 0.2886363636363636,
                "tempo": 120.0
            },
            {
                "start_time": 2.5931818181818183,
                "end_time": 2.7477272727272726,
                "pitch": 35,
                "velocity": 64,
                "duration": 0.15454545454545432,
                "tempo": 120.0
            },
            {
                "start_time": 2.7977272727272724,
                "end_time": 2.9499999999999997,
                "pitch": 33,
                "velocity": 64,
                "duration": 0.15227272727272734,
                "tempo": 120.0
            },
            {
                "start_time": 3.0,
                "end_time": 3.15,
                "pitch": 31,
                "velocity": 64,
                "duration": 0.1499999999999999,
                "tempo": 120.0
            },
            {
                "start_time": 3.1999999999999997,
                "end_time": 3.5,
                "pitch": 33,
                "velocity": 64,
                "duration": 0.30000000000000027,
                "tempo": 120.0
            },
            {
                "start_time": 3.5999999999999996,
                "end_time": 3.75,
                "pitch": 31,
                "velocity": 64,
                "duration": 0.15000000000000036,
                "tempo": 120.0
            },
            {
                "start_time": 3.8,
                "end_time": 4.25,
                "pitch": 33,
                "velocity": 64,
                "duration": 0.4500000000000002,
                "tempo": 120.0
            },
            {
                "start_time": 4.3999999999999995,
                "end_time": 4.55,
                "pitch": 31,
                "velocity": 64,
                "duration": 0.15000000000000036,
                "tempo": 120.0
            },
            {
                "start_time": 4.6,
                "end_time": 5.047727272727273,
                "pitch": 33,
                "velocity": 64,
                "duration": 0.4477272727272732,
                "tempo": 120.0
            },
            {
                "start_time": 5.195454545454545,
                "end_time": 5.345454545454545,
                "pitch": 31,
                "velocity": 64,
                "duration": 0.14999999999999947,
                "tempo": 120.0
            },
            {
                "start_time": 5.3954545454545455,
                "end_time": 5.697727272727272,
                "pitch": 36,
                "velocity": 64,
                "duration": 0.3022727272727268,
                "tempo": 120.0
            },
            {
                "start_time": 5.802272727272727,
                "end_time": 5.956818181818181,
                "pitch": 35,
                "velocity": 64,
                "duration": 0.15454545454545432,
                "tempo": 120.0
            },
            {
                "start_time": 6.006818181818182,
                "end_time": 6.156818181818181,
                "pitch": 33,
                "velocity": 64,
                "duration": 0.14999999999999947,
                "tempo": 120.0
            },
            {
                "start_time": 6.206818181818181,
                "end_time": 6.3568181818181815,
                "pitch": 31,
                "velocity": 64,
                "duration": 0.15000000000000036,
                "tempo": 120.0
            },
            {
                "start_time": 6.406818181818181,
                "end_time": 6.4409090909090905,
                "pitch": 33,
                "velocity": 64,
                "duration": 0.03409090909090917,
                "tempo": 120.0
            },
            {
                "start_time": 6.4409090909090905,
                "end_time": 6.49090909090909,
                "pitch": 33,
                "velocity": 64,
                "duration": 0.04999999999999982,
                "tempo": 120.0
            },
            {
                "start_time": 6.509090909090909,
                "end_time": 6.593181818181818,
                "pitch": 33,
                "velocity": 64,
                "duration": 0.084090909090909,
                "tempo": 120.0
            },
            {
                "start_time": 6.6090909090909085,
                "end_time": 6.759090909090909,
                "pitch": 31,
                "velocity": 64,
                "duration": 0.15000000000000036,
                "tempo": 120.0
            },
            {
                "start_time": 6.811363636363636,
                "end_time": 6.961363636363636,
                "pitch": 33,
                "velocity": 64,
                "duration": 0.15000000000000036,
                "tempo": 120.0
            },
            {
                "start_time": 7.011363636363636,
                "end_time": 7.093181818181818,
                "pitch": 36,
                "velocity": 64,
                "duration": 0.08181818181818201,
                "tempo": 120.0
            },
            {
                "start_time": 7.111363636363636,
                "end_time": 7.1931818181818175,
                "pitch": 33,
                "velocity": 64,
                "duration": 0.08181818181818112,
                "tempo": 120.0
            },
            {
                "start_time": 7.8181818181818175,
                "end_time": 7.913636363636363,
                "pitch": 33,
                "velocity": 64,
                "duration": 0.09545454545454568,
                "tempo": 120.0
            },
            {
                "start_time": 8.029545454545454,
                "end_time": 8.111363636363636,
                "pitch": 35,
                "velocity": 64,
                "duration": 0.08181818181818201,
                "tempo": 120.0
            },
            {
                "start_time": 8.127272727272727,
                "end_time": 8.211363636363636,
                "pitch": 35,
                "velocity": 64,
                "duration": 0.084090909090909,
                "tempo": 120.0
            },
            {
                "start_time": 8.227272727272727,
                "end_time": 8.377272727272727,
                "pitch": 33,
                "velocity": 64,
                "duration": 0.15000000000000036,
                "tempo": 120.0
            },
            {
                "start_time": 8.427272727272728,
                "end_time": 8.579545454545453,
                "pitch": 35,
                "velocity": 64,
                "duration": 0.15227272727272556,
                "tempo": 120.0
            },
            {
                "start_time": 8.629545454545454,
                "end_time": 8.713636363636363,
                "pitch": 36,
                "velocity": 64,
                "duration": 0.084090909090909,
                "tempo": 120.0
            },
            {
                "start_time": 8.729545454545454,
                "end_time": 8.813636363636363,
                "pitch": 35,
                "velocity": 64,
                "duration": 0.084090909090909,
                "tempo": 120.0
            },
            {
                "start_time": 9.438636363636363,
                "end_time": 9.520454545454545,
                "pitch": 35,
                "velocity": 64,
                "duration": 0.08181818181818201,
                "tempo": 120.0
            },
            {
                "start_time": 9.634090909090908,
                "end_time": 9.718181818181817,
                "pitch": 38,
                "velocity": 64,
                "duration": 0.084090909090909,
                "tempo": 120.0
            },
            {
                "start_time": 9.73409090909091,
                "end_time": 9.818181818181818,
                "pitch": 38,
                "velocity": 64,
                "duration": 0.084090909090909,
                "tempo": 120.0
            },
            {
                "start_time": 9.834090909090909,
                "end_time": 9.98409090909091,
                "pitch": 36,
                "velocity": 64,
                "duration": 0.15000000000000036,
                "tempo": 120.0
            },
            {
                "start_time": 10.034090909090908,
                "end_time": 10.184090909090909,
                "pitch": 38,
                "velocity": 64,
                "duration": 0.15000000000000036,
                "tempo": 120.0
            },
            {
                "start_time": 10.23409090909091,
                "end_time": 10.318181818181818,
                "pitch": 41,
                "velocity": 64,
                "duration": 0.084090909090909,
                "tempo": 120.0
            },
            {
                "start_time": 10.336363636363636,
                "end_time": 10.420454545454545,
                "pitch": 38,
                "velocity": 64,
                "duration": 0.084090909090909,
                "tempo": 120.0
            },
            {
                "start_time": 11.024999999999999,
                "end_time": 11.125,
                "pitch": 38,
                "velocity": 64,
                "duration": 0.10000000000000142,
                "tempo": 120.0
            },
            {
                "start_time": 11.24090909090909,
                "end_time": 11.325,
                "pitch": 33,
                "velocity": 64,
                "duration": 0.084090909090909,
                "tempo": 120.0
            },
            {
                "start_time": 11.343181818181817,
                "end_time": 11.427272727272726,
                "pitch": 33,
                "velocity": 64,
                "duration": 0.084090909090909,
                "tempo": 120.0
            },
            {
                "start_time": 11.443181818181818,
                "end_time": 11.595454545454546,
                "pitch": 31,
                "velocity": 64,
                "duration": 0.15227272727272734,
                "tempo": 120.0
            },
            {
                "start_time": 11.645454545454545,
                "end_time": 11.795454545454545,
                "pitch": 33,
                "velocity": 64,
                "duration": 0.15000000000000036,
                "tempo": 120.0
            },
            {
                "start_time": 11.845454545454546,
                "end_time": 11.995454545454544,
                "pitch": 36,
                "velocity": 64,
                "duration": 0.14999999999999858,
                "tempo": 120.0
            },
            {
                "start_time": 12.045454545454545,
                "end_time": 12.352272727272727,
                "pitch": 33,
                "velocity": 64,
                "duration": 0.30681818181818166,
                "tempo": 120.0
            },
            {
                "start_time": 12.454545454545453,
                "end_time": 12.75,
                "pitch": 31,
                "velocity": 64,
                "duration": 0.29545454545454675,
                "tempo": 120.0
            },
            {
                "start_time": 12.847727272727273,
                "end_time": 13.299999999999999,
                "pitch": 29,
                "velocity": 64,
                "duration": 0.45227272727272627,
                "tempo": 120.0
            },
            {
                "start_time": 13.452272727272726,
                "end_time": 13.752272727272727,
                "pitch": 41,
                "velocity": 64,
                "duration": 0.3000000000000007,
                "tempo": 120.0
            },
            {
                "start_time": 13.852272727272727,
                "end_time": 14.002272727272727,
                "pitch": 40,
                "velocity": 64,
                "duration": 0.15000000000000036,
                "tempo": 120.0
            },
            {
                "start_time": 14.052272727272726,
                "end_time": 14.204545454545453,
                "pitch": 38,
                "velocity": 64,
                "duration": 0.15227272727272734,
                "tempo": 120.0
            },
            {
                "start_time": 14.254545454545454,
                "end_time": 14.404545454545454,
                "pitch": 36,
                "velocity": 64,
                "duration": 0.15000000000000036,
                "tempo": 120.0
            },
            {
                "start_time": 14.454545454545453,
                "end_time": 14.909090909090908,
                "pitch": 28,
                "velocity": 64,
                "duration": 0.45454545454545503,
                "tempo": 120.0
            },
            {
                "start_time": 15.059090909090909,
                "end_time": 15.361363636363636,
                "pitch": 40,
                "velocity": 64,
                "duration": 0.3022727272727277,
                "tempo": 120.0
            },
            {
                "start_time": 15.461363636363636,
                "end_time": 15.613636363636363,
                "pitch": 38,
                "velocity": 64,
                "duration": 0.15227272727272734,
                "tempo": 120.0
            },
            {
                "start_time": 15.663636363636362,
                "end_time": 15.813636363636363,
                "pitch": 36,
                "velocity": 64,
                "duration": 0.15000000000000036,
                "tempo": 120.0
            },
            {
                "start_time": 15.863636363636363,
                "end_time": 16.013636363636362,
                "pitch": 35,
                "velocity": 64,
                "duration": 0.14999999999999858,
                "tempo": 120.0
            },
            {
                "start_time": 16.063636363636363,
                "end_time": 16.21363636363636,
                "pitch": 38,
                "velocity": 64,
                "duration": 0.14999999999999858,
                "tempo": 120.0
            },
            {
                "start_time": 16.26590909090909,
                "end_time": 16.41590909090909,
                "pitch": 38,
                "velocity": 64,
                "duration": 0.14999999999999858,
                "tempo": 120.0
            },
            {
                "start_time": 16.66590909090909,
                "end_time": 16.75,
                "pitch": 33,
                "velocity": 64,
                "duration": 0.08409090909091077,
                "tempo": 120.0
            },
            {
                "start_time": 17.06590909090909,
                "end_time": 17.15,
                "pitch": 38,
                "velocity": 64,
                "duration": 0.08409090909090722,
                "tempo": 120.0
            },
            {
                "start_time": 17.46818181818182,
                "end_time": 17.618181818181817,
                "pitch": 33,
                "velocity": 64,
                "duration": 0.14999999999999858,
                "tempo": 120.0
            },
            {
                "start_time": 17.668181818181818,
                "end_time": 17.818181818181817,
                "pitch": 28,
                "velocity": 64,
                "duration": 0.14999999999999858,
                "tempo": 120.0
            },
            {
                "start_time": 17.868181818181817,
                "end_time": 18.018181818181816,
                "pitch": 28,
                "velocity": 64,
                "duration": 0.14999999999999858,
                "tempo": 120.0
            },
            {
                "start_time": 18.068181818181817,
                "end_time": 18.370454545454546,
                "pitch": 40,
                "velocity": 64,
                "duration": 0.30227272727272947,
                "tempo": 120.0
            },
            {
                "start_time": 18.472727272727273,
                "end_time": 18.62272727272727,
                "pitch": 28,
                "velocity": 64,
                "duration": 0.14999999999999858,
                "tempo": 120.0
            },
            {
                "start_time": 18.672727272727272,
                "end_time": 18.82272727272727,
                "pitch": 28,
                "velocity": 64,
                "duration": 0.14999999999999858,
                "tempo": 120.0
            },
            {
                "start_time": 18.87272727272727,
                "end_time": 19.022727272727273,
                "pitch": 31,
                "velocity": 64,
                "duration": 0.15000000000000213,
                "tempo": 120.0
            },
            {
                "start_time": 19.07272727272727,
                "end_time": 19.222727272727273,
                "pitch": 32,
                "velocity": 64,
                "duration": 0.15000000000000213,
                "tempo": 120.0
            },
            {
                "start_time": 19.272727272727273,
                "end_time": 19.354545454545452,
                "pitch": 33,
                "velocity": 64,
                "duration": 0.08181818181817846,
                "tempo": 120.0
            },
            {
                "start_time": 19.370454545454546,
                "end_time": 19.452272727272728,
                "pitch": 33,
                "velocity": 64,
                "duration": 0.08181818181818201,
                "tempo": 120.0
            },
            {
                "start_time": 19.46818181818182,
                "end_time": 19.61590909090909,
                "pitch": 31,
                "velocity": 64,
                "duration": 0.14772727272726982,
                "tempo": 120.0
            },
            {
                "start_time": 19.663636363636364,
                "end_time": 19.818181818181817,
                "pitch": 33,
                "velocity": 64,
                "duration": 0.15454545454545254,
                "tempo": 120.0
            },
            {
                "start_time": 19.868181818181817,
                "end_time": 19.954545454545453,
                "pitch": 36,
                "velocity": 64,
                "duration": 0.08636363636363598,
                "tempo": 120.0
            },
            {
                "start_time": 19.972727272727273,
                "end_time": 20.05681818181818,
                "pitch": 33,
                "velocity": 64,
                "duration": 0.08409090909090722,
                "tempo": 120.0
            },
            {
                "start_time": 20.677272727272726,
                "end_time": 20.761363636363637,
                "pitch": 33,
                "velocity": 64,
                "duration": 0.08409090909091077,
                "tempo": 120.0
            },
            {
                "start_time": 20.877272727272725,
                "end_time": 20.961363636363636,
                "pitch": 35,
                "velocity": 64,
                "duration": 0.08409090909091077,
                "tempo": 120.0
            },
            {
                "start_time": 20.977272727272727,
                "end_time": 21.061363636363634,
                "pitch": 35,
                "velocity": 64,
                "duration": 0.08409090909090722,
                "tempo": 120.0
            },
            {
                "start_time": 21.077272727272724,
                "end_time": 21.227272727272727,
                "pitch": 33,
                "velocity": 64,
                "duration": 0.15000000000000213,
                "tempo": 120.0
            },
            {
                "start_time": 21.277272727272727,
                "end_time": 21.427272727272726,
                "pitch": 35,
                "velocity": 64,
                "duration": 0.14999999999999858,
                "tempo": 120.0
            },
            {
                "start_time": 21.479545454545452,
                "end_time": 21.563636363636363,
                "pitch": 36,
                "velocity": 64,
                "duration": 0.08409090909091077,
                "tempo": 120.0
            },
            {
                "start_time": 21.579545454545453,
                "end_time": 21.663636363636364,
                "pitch": 35,
                "velocity": 64,
                "duration": 0.08409090909091077,
                "tempo": 120.0
            },
            {
                "start_time": 22.286363636363635,
                "end_time": 22.368181818181817,
                "pitch": 35,
                "velocity": 64,
                "duration": 0.08181818181818201,
                "tempo": 120.0
            },
            {
                "start_time": 22.48409090909091,
                "end_time": 22.56590909090909,
                "pitch": 38,
                "velocity": 64,
                "duration": 0.08181818181818201,
                "tempo": 120.0
            },
            {
                "start_time": 22.584090909090907,
                "end_time": 22.66590909090909,
                "pitch": 38,
                "velocity": 64,
                "duration": 0.08181818181818201,
                "tempo": 120.0
            },
            {
                "start_time": 22.68409090909091,
                "end_time": 22.834090909090907,
                "pitch": 36,
                "velocity": 64,
                "duration": 0.14999999999999858,
                "tempo": 120.0
            },
            {
                "start_time": 22.884090909090908,
                "end_time": 23.034090909090907,
                "pitch": 38,
                "velocity": 64,
                "duration": 0.14999999999999858,
                "tempo": 120.0
            },
            {
                "start_time": 23.084090909090907,
                "end_time": 23.16590909090909,
                "pitch": 41,
                "velocity": 64,
                "duration": 0.08181818181818201,
                "tempo": 120.0
            },
            {
                "start_time": 23.18409090909091,
                "end_time": 23.26590909090909,
                "pitch": 38,
                "velocity": 64,
                "duration": 0.08181818181818201,
                "tempo": 120.0
            },
            {
                "start_time": 23.87272727272727,
                "end_time": 23.970454545454544,
                "pitch": 38,
                "velocity": 64,
                "duration": 0.09772727272727266,
                "tempo": 120.0
            },
            {
                "start_time": 24.086363636363636,
                "end_time": 24.170454545454543,
                "pitch": 33,
                "velocity": 64,
                "duration": 0.08409090909090722,
                "tempo": 120.0
            },
            {
                "start_time": 24.186363636363634,
                "end_time": 24.270454545454545,
                "pitch": 33,
                "velocity": 64,
                "duration": 0.08409090909091077,
                "tempo": 120.0
            },
            {
                "start_time": 24.288636363636364,
                "end_time": 24.438636363636363,
                "pitch": 31,
                "velocity": 64,
                "duration": 0.14999999999999858,
                "tempo": 120.0
            },
            {
                "start_time": 24.488636363636363,
                "end_time": 24.643181818181816,
                "pitch": 33,
                "velocity": 64,
                "duration": 0.15454545454545254,
                "tempo": 120.0
            },
            {
                "start_time": 24.695454545454545,
                "end_time": 24.847727272727273,
                "pitch": 36,
                "velocity": 64,
                "duration": 0.15227272727272734,
                "tempo": 120.0
            },
            {
                "start_time": 24.9,
                "end_time": 25.2,
                "pitch": 33,
                "velocity": 64,
                "duration": 0.3000000000000007,
                "tempo": 120.0
            },
            {
                "start_time": 25.299999999999997,
                "end_time": 25.595454545454544,
                "pitch": 31,
                "velocity": 64,
                "duration": 0.29545454545454675,
                "tempo": 120.0
            },
            {
                "start_time": 25.693181818181817,
                "end_time": 26.143181818181816,
                "pitch": 29,
                "velocity": 64,
                "duration": 0.4499999999999993,
                "tempo": 120.0
            },
            {
                "start_time": 26.293181818181818,
                "end_time": 26.597727272727273,
                "pitch": 41,
                "velocity": 64,
                "duration": 0.3045454545454547,
                "tempo": 120.0
            },
            {
                "start_time": 26.7,
                "end_time": 26.854545454545452,
                "pitch": 40,
                "velocity": 64,
                "duration": 0.15454545454545254,
                "tempo": 120.0
            },
            {
                "start_time": 26.90681818181818,
                "end_time": 27.05681818181818,
                "pitch": 38,
                "velocity": 64,
                "duration": 0.14999999999999858,
                "tempo": 120.0
            },
            {
                "start_time": 27.10681818181818,
                "end_time": 27.259090909090908,
                "pitch": 36,
                "velocity": 64,
                "duration": 0.15227272727272734,
                "tempo": 120.0
            },
            {
                "start_time": 27.29090909090909,
                "end_time": 27.73409090909091,
                "pitch": 31,
                "velocity": 64,
                "duration": 0.4431818181818201,
                "tempo": 120.0
            },
            {
                "start_time": 27.888636363636362,
                "end_time": 28.195454545454545,
                "pitch": 43,
                "velocity": 64,
                "duration": 0.30681818181818343,
                "tempo": 120.0
            },
            {
                "start_time": 28.295454545454543,
                "end_time": 28.445454545454545,
                "pitch": 41,
                "velocity": 64,
                "duration": 0.15000000000000213,
                "tempo": 120.0
            },
            {
                "start_time": 28.495454545454542,
                "end_time": 28.645454545454545,
                "pitch": 40,
                "velocity": 64,
                "duration": 0.15000000000000213,
                "tempo": 120.0
            },
            {
                "start_time": 28.695454545454545,
                "end_time": 28.847727272727273,
                "pitch": 38,
                "velocity": 64,
                "duration": 0.15227272727272734,
                "tempo": 120.0
            },
            {
                "start_time": 28.89772727272727,
                "end_time": 29.045454545454543,
                "pitch": 33,
                "velocity": 64,
                "duration": 0.14772727272727337,
                "tempo": 120.0
            },
            {
                "start_time": 29.093181818181815,
                "end_time": 29.24090909090909,
                "pitch": 33,
                "velocity": 64,
                "duration": 0.14772727272727337,
                "tempo": 120.0
            },
            {
                "start_time": 29.49090909090909,
                "end_time": 29.643181818181816,
                "pitch": 31,
                "velocity": 64,
                "duration": 0.15227272727272734,
                "tempo": 120.0
            },
            {
                "start_time": 29.693181818181817,
                "end_time": 29.845454545454544,
                "pitch": 31,
                "velocity": 64,
                "duration": 0.15227272727272734,
                "tempo": 120.0
            },
            {
                "start_time": 30.102272727272727,
                "end_time": 30.25,
                "pitch": 31,
                "velocity": 64,
                "duration": 0.14772727272727337,
                "tempo": 120.0
            },
            {
                "start_time": 30.299999999999997,
                "end_time": 30.44772727272727,
                "pitch": 33,
                "velocity": 64,
                "duration": 0.14772727272727337,
                "tempo": 120.0
            },
            {
                "start_time": 31.295454545454543,
                "end_time": 31.602272727272727,
                "pitch": 33,
                "velocity": 64,
                "duration": 0.30681818181818343,
                "tempo": 120.0
            },
            {
                "start_time": 31.704545454545453,
                "end_time": 32.0,
                "pitch": 31,
                "velocity": 64,
                "duration": 0.29545454545454675,
                "tempo": 120.0
            },
            {
                "start_time": 32.1,
                "end_time": 32.24545454545454,
                "pitch": 29,
                "velocity": 64,
                "duration": 0.14545454545454106,
                "tempo": 120.0
            },
            {
                "start_time": 32.49090909090909,
                "end_time": 32.643181818181816,
                "pitch": 41,
                "velocity": 64,
                "duration": 0.15227272727272378,
                "tempo": 120.0
            },
            {
                "start_time": 32.695454545454545,
                "end_time": 32.85,
                "pitch": 29,
                "velocity": 64,
                "duration": 0.1545454545454561,
                "tempo": 120.0
            },
            {
                "start_time": 32.9,
                "end_time": 33.054545454545455,
                "pitch": 29,
                "velocity": 64,
                "duration": 0.1545454545454561,
                "tempo": 120.0
            },
            {
                "start_time": 33.31136363636364,
                "end_time": 33.39545454545454,
                "pitch": 29,
                "velocity": 64,
                "duration": 0.08409090909090366,
                "tempo": 120.0
            },
            {
                "start_time": 33.413636363636364,
                "end_time": 33.49545454545454,
                "pitch": 31,
                "velocity": 64,
                "duration": 0.08181818181817846,
                "tempo": 120.0
            },
            {
                "start_time": 33.513636363636365,
                "end_time": 33.663636363636364,
                "pitch": 33,
                "velocity": 64,
                "duration": 0.14999999999999858,
                "tempo": 120.0
            },
            {
                "start_time": 33.71363636363636,
                "end_time": 33.861363636363635,
                "pitch": 31,
                "velocity": 64,
                "duration": 0.14772727272727337,
                "tempo": 120.0
            },
            {
                "start_time": 34.10681818181818,
                "end_time": 34.25454545454545,
                "pitch": 43,
                "velocity": 64,
                "duration": 0.14772727272727337,
                "tempo": 120.0
            },
            {
                "start_time": 34.304545454545455,
                "end_time": 34.45454545454545,
                "pitch": 31,
                "velocity": 64,
                "duration": 0.14999999999999858,
                "tempo": 120.0
            },
            {
                "start_time": 34.50454545454545,
                "end_time": 34.65909090909091,
                "pitch": 31,
                "velocity": 64,
                "duration": 0.1545454545454561,
                "tempo": 120.0
            },
            {
                "start_time": 34.91590909090909,
                "end_time": 35.0,
                "pitch": 36,
                "velocity": 64,
                "duration": 0.08409090909091077,
                "tempo": 120.0
            },
            {
                "start_time": 35.01590909090909,
                "end_time": 35.1,
                "pitch": 35,
                "velocity": 64,
                "duration": 0.08409090909091077,
                "tempo": 120.0
            },
            {
                "start_time": 35.11590909090909,
                "end_time": 35.26590909090909,
                "pitch": 31,
                "velocity": 64,
                "duration": 0.14999999999999858,
                "tempo": 120.0
            },
            {
                "start_time": 35.31590909090909,
                "end_time": 35.611363636363635,
                "pitch": 33,
                "velocity": 64,
                "duration": 0.29545454545454675,
                "tempo": 120.0
            },
            {
                "start_time": 35.70909090909091,
                "end_time": 35.861363636363635,
                "pitch": 31,
                "velocity": 64,
                "duration": 0.15227272727272378,
                "tempo": 120.0
            },
            {
                "start_time": 35.913636363636364,
                "end_time": 36.36363636363636,
                "pitch": 33,
                "velocity": 64,
                "duration": 0.44999999999999574,
                "tempo": 120.0
            },
            {
                "start_time": 36.51136363636363,
                "end_time": 36.66136363636363,
                "pitch": 31,
                "velocity": 64,
                "duration": 0.14999999999999858,
                "tempo": 120.0
            },
            {
                "start_time": 36.711363636363636,
                "end_time": 37.163636363636364,
                "pitch": 33,
                "velocity": 64,
                "duration": 0.45227272727272805,
                "tempo": 120.0
            },
            {
                "start_time": 37.31363636363636,
                "end_time": 37.461363636363636,
                "pitch": 31,
                "velocity": 64,
                "duration": 0.14772727272727337,
                "tempo": 120.0
            },
            {
                "start_time": 37.51136363636363,
                "end_time": 37.80681818181818,
                "pitch": 36,
                "velocity": 64,
                "duration": 0.29545454545454675,
                "tempo": 120.0
            },
            {
                "start_time": 37.91136363636363,
                "end_time": 38.06363636363636,
                "pitch": 35,
                "velocity": 64,
                "duration": 0.1522727272727309,
                "tempo": 120.0
            },
            {
                "start_time": 38.11590909090909,
                "end_time": 38.27045454545454,
                "pitch": 33,
                "velocity": 64,
                "duration": 0.154545454545449,
                "tempo": 120.0
            },
            {
                "start_time": 38.32272727272727,
                "end_time": 38.49318181818182,
                "pitch": 31,
                "velocity": 64,
                "duration": 0.17045454545454675,
                "tempo": 120.0
            },
            {
                "start_time": 38.527272727272724,
                "end_time": 38.67727272727272,
                "pitch": 26,
                "velocity": 64,
                "duration": 0.14999999999999858,
                "tempo": 120.0
            },
            {
                "start_time": 38.92727272727272,
                "end_time": 39.07727272727273,
                "pitch": 38,
                "velocity": 64,
                "duration": 0.15000000000000568,
                "tempo": 120.0
            },
            {
                "start_time": 39.127272727272725,
                "end_time": 39.277272727272724,
                "pitch": 26,
                "velocity": 64,
                "duration": 0.14999999999999858,
                "tempo": 120.0
            },
            {
                "start_time": 39.32727272727273,
                "end_time": 39.47727272727273,
                "pitch": 26,
                "velocity": 64,
                "duration": 0.14999999999999858,
                "tempo": 120.0
            },
            {
                "start_time": 39.72727272727273,
                "end_time": 39.81136363636364,
                "pitch": 29,
                "velocity": 64,
                "duration": 0.08409090909091077,
                "tempo": 120.0
            },
            {
                "start_time": 39.82727272727273,
                "end_time": 39.91136363636363,
                "pitch": 31,
                "velocity": 64,
                "duration": 0.08409090909090366,
                "tempo": 120.0
            },
            {
                "start_time": 39.92727272727272,
                "end_time": 40.07727272727273,
                "pitch": 33,
                "velocity": 64,
                "duration": 0.15000000000000568,
                "tempo": 120.0
            },
            {
                "start_time": 40.127272727272725,
                "end_time": 40.279545454545456,
                "pitch": 28,
                "velocity": 64,
                "duration": 0.1522727272727309,
                "tempo": 120.0
            },
            {
                "start_time": 40.53181818181818,
                "end_time": 40.68181818181818,
                "pitch": 40,
                "velocity": 64,
                "duration": 0.14999999999999858,
                "tempo": 120.0
            },
            {
                "start_time": 40.73181818181818,
                "end_time": 40.88181818181818,
                "pitch": 28,
                "velocity": 64,
                "duration": 0.15000000000000568,
                "tempo": 120.0
            },
            {
                "start_time": 40.93181818181818,
                "end_time": 41.08181818181818,
                "pitch": 28,
                "velocity": 64,
                "duration": 0.14999999999999858,
                "tempo": 120.0
            },
            {
                "start_time": 41.33181818181818,
                "end_time": 41.413636363636364,
                "pitch": 40,
                "velocity": 64,
                "duration": 0.08181818181818556,
                "tempo": 120.0
            },
            {
                "start_time": 41.43181818181818,
                "end_time": 41.51363636363636,
                "pitch": 38,
                "velocity": 64,
                "duration": 0.08181818181817846,
                "tempo": 120.0
            },
            {
                "start_time": 41.53181818181818,
                "end_time": 41.68181818181818,
                "pitch": 36,
                "velocity": 64,
                "duration": 0.14999999999999858,
                "tempo": 120.0
            },
            {
                "start_time": 41.73181818181818,
                "end_time": 42.03181818181818,
                "pitch": 33,
                "velocity": 64,
                "duration": 0.30000000000000426,
                "tempo": 120.0
            },
            {
                "start_time": 42.13181818181818,
                "end_time": 42.28181818181818,
                "pitch": 31,
                "velocity": 64,
                "duration": 0.14999999999999858,
                "tempo": 120.0
            },
            {
                "start_time": 42.33181818181818,
                "end_time": 42.77954545454545,
                "pitch": 33,
                "velocity": 64,
                "duration": 0.44772727272727053,
                "tempo": 120.0
            },
            {
                "start_time": 42.92727272727272,
                "end_time": 43.07727272727273,
                "pitch": 31,
                "velocity": 64,
                "duration": 0.15000000000000568,
                "tempo": 120.0
            },
            {
                "start_time": 43.127272727272725,
                "end_time": 43.57954545454545,
                "pitch": 33,
                "velocity": 64,
                "duration": 0.45227272727272805,
                "tempo": 120.0
            },
            {
                "start_time": 43.72727272727273,
                "end_time": 43.86818181818182,
                "pitch": 31,
                "velocity": 64,
                "duration": 0.14090909090909065,
                "tempo": 120.0
            },
            {
                "start_time": 43.913636363636364,
                "end_time": 44.20227272727273,
                "pitch": 37,
                "velocity": 64,
                "duration": 0.288636363636364,
                "tempo": 120.0
            },
            {
                "start_time": 44.31136363636364,
                "end_time": 44.47272727272727,
                "pitch": 38,
                "velocity": 64,
                "duration": 0.1613636363636317,
                "tempo": 120.0
            },
            {
                "start_time": 44.527272727272724,
                "end_time": 44.836363636363636,
                "pitch": 40,
                "velocity": 64,
                "duration": 0.3090909090909122,
                "tempo": 120.0
            },
            {
                "start_time": 44.93863636363636,
                "end_time": 45.090909090909086,
                "pitch": 29,
                "velocity": 64,
                "duration": 0.15227272727272378,
                "tempo": 120.0
            },
            {
                "start_time": 45.340909090909086,
                "end_time": 45.49090909090909,
                "pitch": 41,
                "velocity": 64,
                "duration": 0.15000000000000568,
                "tempo": 120.0
            },
            {
                "start_time": 45.54090909090909,
                "end_time": 45.69090909090909,
                "pitch": 29,
                "velocity": 64,
                "duration": 0.14999999999999858,
                "tempo": 120.0
            },
            {
                "start_time": 45.74090909090909,
                "end_time": 45.89090909090909,
                "pitch": 29,
                "velocity": 64,
                "duration": 0.14999999999999858,
                "tempo": 120.0
            },
            {
                "start_time": 46.14090909090909,
                "end_time": 46.224999999999994,
                "pitch": 29,
                "velocity": 64,
                "duration": 0.08409090909090366,
                "tempo": 120.0
            },
            {
                "start_time": 46.24090909090909,
                "end_time": 46.324999999999996,
                "pitch": 31,
                "velocity": 64,
                "duration": 0.08409090909090366,
                "tempo": 120.0
            },
            {
                "start_time": 46.340909090909086,
                "end_time": 46.49318181818182,
                "pitch": 33,
                "velocity": 64,
                "duration": 0.1522727272727309,
                "tempo": 120.0
            },
            {
                "start_time": 46.543181818181814,
                "end_time": 46.69318181818181,
                "pitch": 31,
                "velocity": 64,
                "duration": 0.14999999999999858,
                "tempo": 120.0
            },
            {
                "start_time": 46.94318181818181,
                "end_time": 47.09318181818182,
                "pitch": 43,
                "velocity": 64,
                "duration": 0.15000000000000568,
                "tempo": 120.0
            },
            {
                "start_time": 47.143181818181816,
                "end_time": 47.293181818181814,
                "pitch": 31,
                "velocity": 64,
                "duration": 0.14999999999999858,
                "tempo": 120.0
            },
            {
                "start_time": 47.34318181818182,
                "end_time": 47.49318181818182,
                "pitch": 31,
                "velocity": 64,
                "duration": 0.14999999999999858,
                "tempo": 120.0
            },
            {
                "start_time": 47.74318181818182,
                "end_time": 47.82727272727273,
                "pitch": 36,
                "velocity": 64,
                "duration": 0.08409090909091077,
                "tempo": 120.0
            },
            {
                "start_time": 47.84318181818182,
                "end_time": 47.92727272727272,
                "pitch": 35,
                "velocity": 64,
                "duration": 0.08409090909090366,
                "tempo": 120.0
            },
            {
                "start_time": 47.94318181818181,
                "end_time": 48.09318181818182,
                "pitch": 31,
                "velocity": 64,
                "duration": 0.15000000000000568,
                "tempo": 120.0
            },
            {
                "start_time": 48.143181818181816,
                "end_time": 48.595454545454544,
                "pitch": 28,
                "velocity": 64,
                "duration": 0.45227272727272805,
                "tempo": 120.0
            },
            {
                "start_time": 48.74545454545454,
                "end_time": 48.89545454545454,
                "pitch": 28,
                "velocity": 64,
                "duration": 0.14999999999999858,
                "tempo": 120.0
            },
            {
                "start_time": 48.945454545454545,
                "end_time": 49.39545454545454,
                "pitch": 28,
                "velocity": 64,
                "duration": 0.44999999999999574,
                "tempo": 120.0
            },
            {
                "start_time": 49.54545454545454,
                "end_time": 49.845454545454544,
                "pitch": 33,
                "velocity": 64,
                "duration": 0.30000000000000426,
                "tempo": 120.0
            },
            {
                "start_time": 49.945454545454545,
                "end_time": 50.095454545454544,
                "pitch": 33,
                "velocity": 64,
                "duration": 0.14999999999999858,
                "tempo": 120.0
            },
            {
                "start_time": 50.14545454545454,
                "end_time": 50.29772727272727,
                "pitch": 31,
                "velocity": 64,
                "duration": 0.1522727272727309,
                "tempo": 120.0
            },
            {
                "start_time": 50.54772727272727,
                "end_time": 50.699999999999996,
                "pitch": 33,
                "velocity": 64,
                "duration": 0.15227272727272378,
                "tempo": 120.0
            },
            {
                "start_time": 50.75,
                "end_time": 51.05,
                "pitch": 36,
                "velocity": 64,
                "duration": 0.29999999999999716,
                "tempo": 120.0
            },
            {
                "start_time": 51.15,
                "end_time": 51.31590909090909,
                "pitch": 36,
                "velocity": 64,
                "duration": 0.16590909090908923,
                "tempo": 120.0
            },
            {
                "start_time": 51.349999999999994,
                "end_time": 51.5,
                "pitch": 29,
                "velocity": 64,
                "duration": 0.15000000000000568,
                "tempo": 120.0
            },
            {
                "start_time": 51.75,
                "end_time": 51.9,
                "pitch": 41,
                "velocity": 64,
                "duration": 0.14999999999999858,
                "tempo": 120.0
            },
            {
                "start_time": 51.949999999999996,
                "end_time": 52.099999999999994,
                "pitch": 29,
                "velocity": 64,
                "duration": 0.14999999999999858,
                "tempo": 120.0
            },
            {
                "start_time": 52.15,
                "end_time": 52.3,
                "pitch": 29,
                "velocity": 64,
                "duration": 0.14999999999999858,
                "tempo": 120.0
            },
            {
                "start_time": 52.55227272727272,
                "end_time": 52.63409090909091,
                "pitch": 29,
                "velocity": 64,
                "duration": 0.08181818181818556,
                "tempo": 120.0
            },
            {
                "start_time": 52.652272727272724,
                "end_time": 52.73409090909091,
                "pitch": 31,
                "velocity": 64,
                "duration": 0.08181818181818556,
                "tempo": 120.0
            },
            {
                "start_time": 52.752272727272725,
                "end_time": 52.902272727272724,
                "pitch": 33,
                "velocity": 64,
                "duration": 0.14999999999999858,
                "tempo": 120.0
            },
            {
                "start_time": 52.95227272727273,
                "end_time": 53.10227272727273,
                "pitch": 31,
                "velocity": 64,
                "duration": 0.14999999999999858,
                "tempo": 120.0
            },
            {
                "start_time": 53.35227272727273,
                "end_time": 53.502272727272725,
                "pitch": 43,
                "velocity": 64,
                "duration": 0.14999999999999858,
                "tempo": 120.0
            },
            {
                "start_time": 53.55227272727272,
                "end_time": 53.70227272727273,
                "pitch": 31,
                "velocity": 64,
                "duration": 0.15000000000000568,
                "tempo": 120.0
            },
            {
                "start_time": 53.752272727272725,
                "end_time": 53.902272727272724,
                "pitch": 31,
                "velocity": 64,
                "duration": 0.14999999999999858,
                "tempo": 120.0
            },
            {
                "start_time": 54.152272727272724,
                "end_time": 54.236363636363635,
                "pitch": 36,
                "velocity": 64,
                "duration": 0.08409090909091077,
                "tempo": 120.0
            },
            {
                "start_time": 54.252272727272725,
                "end_time": 54.336363636363636,
                "pitch": 35,
                "velocity": 64,
                "duration": 0.08409090909091077,
                "tempo": 120.0
            },
            {
                "start_time": 54.35227272727273,
                "end_time": 54.50454545454545,
                "pitch": 31,
                "velocity": 64,
                "duration": 0.15227272727272378,
                "tempo": 120.0
            },
            {
                "start_time": 54.554545454545455,
                "end_time": 54.85454545454545,
                "pitch": 33,
                "velocity": 64,
                "duration": 0.29999999999999716,
                "tempo": 120.0
            },
            {
                "start_time": 54.95454545454545,
                "end_time": 55.10454545454545,
                "pitch": 31,
                "velocity": 64,
                "duration": 0.14999999999999858,
                "tempo": 120.0
            },
            {
                "start_time": 55.15454545454545,
                "end_time": 55.60454545454545,
                "pitch": 33,
                "velocity": 64,
                "duration": 0.45000000000000284,
                "tempo": 120.0
            },
            {
                "start_time": 55.75454545454545,
                "end_time": 55.902272727272724,
                "pitch": 31,
                "velocity": 64,
                "duration": 0.14772727272727337,
                "tempo": 120.0
            },
            {
                "start_time": 55.95227272727273,
                "end_time": 56.39772727272727,
                "pitch": 33,
                "velocity": 64,
                "duration": 0.4454545454545453,
                "tempo": 120.0
            },
            {
                "start_time": 56.54772727272727,
                "end_time": 56.69772727272727,
                "pitch": 31,
                "velocity": 64,
                "duration": 0.14999999999999858,
                "tempo": 120.0
            },
            {
                "start_time": 56.74772727272727,
                "end_time": 57.04772727272727,
                "pitch": 36,
                "velocity": 64,
                "duration": 0.30000000000000426,
                "tempo": 120.0
            },
            {
                "start_time": 57.152272727272724,
                "end_time": 57.32272727272727,
                "pitch": 35,
                "velocity": 64,
                "duration": 0.17045454545454675,
                "tempo": 120.0
            },
            {
                "start_time": 57.35681818181818,
                "end_time": 57.525,
                "pitch": 33,
                "velocity": 64,
                "duration": 0.16818181818182154,
                "tempo": 120.0
            },
            {
                "start_time": 57.55681818181818,
                "end_time": 57.724999999999994,
                "pitch": 31,
                "velocity": 64,
                "duration": 0.16818181818181444,
                "tempo": 120.0
            },
            {
                "start_time": 57.775,
                "end_time": 57.79090909090909,
                "pitch": 33,
                "velocity": 64,
                "duration": 0.01590909090909065,
                "tempo": 120.0
            }
        ],
        "Flute": [
            {
                "start_time": 6.4409090909090905,
                "end_time": 6.709090909090909,
                "pitch": 72,
                "velocity": 64,
                "duration": 0.2681818181818185,
                "tempo": 120.0
            },
            {
                "start_time": 6.709090909090909,
                "end_time": 6.811363636363636,
                "pitch": 72,
                "velocity": 64,
                "duration": 0.10227272727272663,
                "tempo": 120.0
            },
            {
                "start_time": 6.811363636363636,
                "end_time": 6.911363636363636,
                "pitch": 72,
                "velocity": 64,
                "duration": 0.10000000000000053,
                "tempo": 120.0
            },
            {
                "start_time": 6.911363636363636,
                "end_time": 7.011363636363636,
                "pitch": 72,
                "velocity": 64,
                "duration": 0.09999999999999964,
                "tempo": 120.0
            },
            {
                "start_time": 7.011363636363636,
                "end_time": 7.111363636363636,
                "pitch": 72,
                "velocity": 64,
                "duration": 0.10000000000000053,
                "tempo": 120.0
            },
            {
                "start_time": 7.111363636363636,
                "end_time": 7.211363636363636,
                "pitch": 72,
                "velocity": 64,
                "duration": 0.09999999999999964,
                "tempo": 120.0
            },
            {
                "start_time": 7.211363636363636,
                "end_time": 7.311363636363636,
                "pitch": 72,
                "velocity": 64,
                "duration": 0.09999999999999964,
                "tempo": 120.0
            },
            {
                "start_time": 7.311363636363636,
                "end_time": 7.381818181818182,
                "pitch": 72,
                "velocity": 64,
                "duration": 0.07045454545454621,
                "tempo": 120.0
            },
            {
                "start_time": 7.41590909090909,
                "end_time": 7.586363636363636,
                "pitch": 72,
                "velocity": 64,
                "duration": 0.17045454545454586,
                "tempo": 120.0
            },
            {
                "start_time": 7.620454545454545,
                "end_time": 7.786363636363636,
                "pitch": 69,
                "velocity": 64,
                "duration": 0.165909090909091,
                "tempo": 120.0
            },
            {
                "start_time": 7.8181818181818175,
                "end_time": 7.9795454545454545,
                "pitch": 72,
                "velocity": 64,
                "duration": 0.16136363636363704,
                "tempo": 120.0
            },
            {
                "start_time": 8.029545454545454,
                "end_time": 8.629545454545454,
                "pitch": 71,
                "velocity": 64,
                "duration": 0.5999999999999996,
                "tempo": 120.0
            },
            {
                "start_time": 8.831818181818182,
                "end_time": 9.138636363636364,
                "pitch": 67,
                "velocity": 64,
                "duration": 0.30681818181818166,
                "tempo": 120.0
            },
            {
                "start_time": 9.24090909090909,
                "end_time": 9.536363636363635,
                "pitch": 69,
                "velocity": 64,
                "duration": 0.29545454545454497,
                "tempo": 120.0
            },
            {
                "start_time": 9.634090909090908,
                "end_time": 10.586363636363636,
                "pitch": 71,
                "velocity": 64,
                "duration": 0.952272727272728,
                "tempo": 120.0
            },
            {
                "start_time": 10.638636363636364,
                "end_time": 10.788636363636362,
                "pitch": 72,
                "velocity": 64,
                "duration": 0.14999999999999858,
                "tempo": 120.0
            },
            {
                "start_time": 10.838636363636363,
                "end_time": 10.993181818181817,
                "pitch": 71,
                "velocity": 64,
                "duration": 0.15454545454545432,
                "tempo": 120.0
            },
            {
                "start_time": 11.024999999999999,
                "end_time": 11.845454545454546,
                "pitch": 69,
                "velocity": 64,
                "duration": 0.8204545454545471,
                "tempo": 120.0
            },
            {
                "start_time": 12.045454545454545,
                "end_time": 12.352272727272727,
                "pitch": 65,
                "velocity": 64,
                "duration": 0.30681818181818166,
                "tempo": 120.0
            },
            {
                "start_time": 12.454545454545453,
                "end_time": 12.75,
                "pitch": 67,
                "velocity": 64,
                "duration": 0.29545454545454675,
                "tempo": 120.0
            },
            {
                "start_time": 12.847727272727273,
                "end_time": 13.299999999999999,
                "pitch": 69,
                "velocity": 64,
                "duration": 0.45227272727272627,
                "tempo": 120.0
            },
            {
                "start_time": 13.452272727272726,
                "end_time": 13.902272727272727,
                "pitch": 65,
                "velocity": 64,
                "duration": 0.45000000000000107,
                "tempo": 120.0
            },
            {
                "start_time": 14.052272727272726,
                "end_time": 14.136363636363635,
                "pitch": 86,
                "velocity": 64,
                "duration": 0.084090909090909,
                "tempo": 120.0
            },
            {
                "start_time": 14.154545454545454,
                "end_time": 14.236363636363636,
                "pitch": 84,
                "velocity": 64,
                "duration": 0.08181818181818201,
                "tempo": 120.0
            },
            {
                "start_time": 14.254545454545454,
                "end_time": 14.338636363636363,
                "pitch": 83,
                "velocity": 64,
                "duration": 0.084090909090909,
                "tempo": 120.0
            },
            {
                "start_time": 14.354545454545454,
                "end_time": 14.438636363636363,
                "pitch": 81,
                "velocity": 64,
                "duration": 0.084090909090909,
                "tempo": 120.0
            },
            {
                "start_time": 14.454545454545453,
                "end_time": 14.909090909090908,
                "pitch": 71,
                "velocity": 64,
                "duration": 0.45454545454545503,
                "tempo": 120.0
            },
            {
                "start_time": 15.059090909090909,
                "end_time": 15.513636363636364,
                "pitch": 67,
                "velocity": 64,
                "duration": 0.45454545454545503,
                "tempo": 120.0
            },
            {
                "start_time": 15.663636363636362,
                "end_time": 15.747727272727271,
                "pitch": 88,
                "velocity": 64,
                "duration": 0.084090909090909,
                "tempo": 120.0
            },
            {
                "start_time": 15.763636363636364,
                "end_time": 15.847727272727273,
                "pitch": 86,
                "velocity": 64,
                "duration": 0.084090909090909,
                "tempo": 120.0
            },
            {
                "start_time": 15.863636363636363,
                "end_time": 15.947727272727272,
                "pitch": 84,
                "velocity": 64,
                "duration": 0.084090909090909,
                "tempo": 120.0
            },
            {
                "start_time": 15.963636363636363,
                "end_time": 16.047727272727272,
                "pitch": 83,
                "velocity": 64,
                "duration": 0.084090909090909,
                "tempo": 120.0
            },
            {
                "start_time": 16.063636363636363,
                "end_time": 16.36590909090909,
                "pitch": 72,
                "velocity": 64,
                "duration": 0.3022727272727259,
                "tempo": 120.0
            },
            {
                "start_time": 16.36590909090909,
                "end_time": 16.45,
                "pitch": 72,
                "velocity": 64,
                "duration": 0.08409090909091077,
                "tempo": 120.0
            },
            {
                "start_time": 16.45,
                "end_time": 16.51590909090909,
                "pitch": 72,
                "velocity": 64,
                "duration": 0.06590909090909136,
                "tempo": 120.0
            },
            {
                "start_time": 16.66590909090909,
                "end_time": 16.71590909090909,
                "pitch": 69,
                "velocity": 64,
                "duration": 0.05000000000000071,
                "tempo": 120.0
            },
            {
                "start_time": 17.06590909090909,
                "end_time": 17.11590909090909,
                "pitch": 71,
                "velocity": 64,
                "duration": 0.04999999999999716,
                "tempo": 120.0
            },
            {
                "start_time": 17.46818181818182,
                "end_time": 17.518181818181816,
                "pitch": 69,
                "velocity": 64,
                "duration": 0.04999999999999716,
                "tempo": 120.0
            },
            {
                "start_time": 17.668181818181818,
                "end_time": 18.62272727272727,
                "pitch": 68,
                "velocity": 64,
                "duration": 0.9545454545454533,
                "tempo": 120.0
            },
            {
                "start_time": 18.672727272727272,
                "end_time": 18.754545454545454,
                "pitch": 72,
                "velocity": 64,
                "duration": 0.08181818181818201,
                "tempo": 120.0
            },
            {
                "start_time": 18.87272727272727,
                "end_time": 18.954545454545453,
                "pitch": 72,
                "velocity": 64,
                "duration": 0.08181818181818201,
                "tempo": 120.0
            },
            {
                "start_time": 19.07272727272727,
                "end_time": 19.154545454545453,
                "pitch": 72,
                "velocity": 64,
                "duration": 0.08181818181818201,
                "tempo": 120.0
            },
            {
                "start_time": 19.272727272727273,
                "end_time": 19.56590909090909,
                "pitch": 72,
                "velocity": 64,
                "duration": 0.293181818181818,
                "tempo": 120.0
            },
            {
                "start_time": 19.56590909090909,
                "end_time": 19.647727272727273,
                "pitch": 72,
                "velocity": 64,
                "duration": 0.08181818181818201,
                "tempo": 120.0
            },
            {
                "start_time": 19.647727272727273,
                "end_time": 19.76590909090909,
                "pitch": 72,
                "velocity": 64,
                "duration": 0.11818181818181728,
                "tempo": 120.0
            },
            {
                "start_time": 19.76590909090909,
                "end_time": 19.852272727272727,
                "pitch": 72,
                "velocity": 64,
                "duration": 0.08636363636363598,
                "tempo": 120.0
            },
            {
                "start_time": 19.852272727272727,
                "end_time": 19.972727272727273,
                "pitch": 72,
                "velocity": 64,
                "duration": 0.12045454545454604,
                "tempo": 120.0
            },
            {
                "start_time": 19.972727272727273,
                "end_time": 20.05681818181818,
                "pitch": 72,
                "velocity": 64,
                "duration": 0.08409090909090722,
                "tempo": 120.0
            },
            {
                "start_time": 20.05681818181818,
                "end_time": 20.175,
                "pitch": 72,
                "velocity": 64,
                "duration": 0.11818181818182083,
                "tempo": 120.0
            },
            {
                "start_time": 20.175,
                "end_time": 20.224999999999998,
                "pitch": 72,
                "velocity": 64,
                "duration": 0.04999999999999716,
                "tempo": 120.0
            },
            {
                "start_time": 20.275,
                "end_time": 20.427272727272726,
                "pitch": 72,
                "velocity": 64,
                "duration": 0.15227272727272734,
                "tempo": 120.0
            },
            {
                "start_time": 20.477272727272727,
                "end_time": 20.627272727272725,
                "pitch": 69,
                "velocity": 64,
                "duration": 0.14999999999999858,
                "tempo": 120.0
            },
            {
                "start_time": 20.677272727272726,
                "end_time": 20.827272727272724,
                "pitch": 72,
                "velocity": 64,
                "duration": 0.14999999999999858,
                "tempo": 120.0
            },
            {
                "start_time": 20.877272727272725,
                "end_time": 21.479545454545452,
                "pitch": 71,
                "velocity": 64,
                "duration": 0.6022727272727266,
                "tempo": 120.0
            },
            {
                "start_time": 21.679545454545455,
                "end_time": 21.988636363636363,
                "pitch": 67,
                "velocity": 64,
                "duration": 0.30909090909090864,
                "tempo": 120.0
            },
            {
                "start_time": 22.09090909090909,
                "end_time": 22.384090909090908,
                "pitch": 69,
                "velocity": 64,
                "duration": 0.293181818181818,
                "tempo": 120.0
            },
            {
                "start_time": 22.48409090909091,
                "end_time": 23.43409090909091,
                "pitch": 71,
                "velocity": 64,
                "duration": 0.9499999999999993,
                "tempo": 120.0
            },
            {
                "start_time": 23.48409090909091,
                "end_time": 23.636363636363637,
                "pitch": 72,
                "velocity": 64,
                "duration": 0.15227272727272734,
                "tempo": 120.0
            },
            {
                "start_time": 23.686363636363634,
                "end_time": 23.83863636363636,
                "pitch": 71,
                "velocity": 64,
                "duration": 0.15227272727272734,
                "tempo": 120.0
            },
            {
                "start_time": 23.87272727272727,
                "end_time": 24.695454545454545,
                "pitch": 69,
                "velocity": 64,
                "duration": 0.8227272727272741,
                "tempo": 120.0
            },
            {
                "start_time": 24.9,
                "end_time": 25.2,
                "pitch": 65,
                "velocity": 64,
                "duration": 0.3000000000000007,
                "tempo": 120.0
            },
            {
                "start_time": 25.299999999999997,
                "end_time": 25.595454545454544,
                "pitch": 67,
                "velocity": 64,
                "duration": 0.29545454545454675,
                "tempo": 120.0
            },
            {
                "start_time": 25.693181818181817,
                "end_time": 26.579545454545453,
                "pitch": 69,
                "velocity": 64,
                "duration": 0.8863636363636367,
                "tempo": 120.0
            },
            {
                "start_time": 26.7,
                "end_time": 26.854545454545452,
                "pitch": 69,
                "velocity": 64,
                "duration": 0.15454545454545254,
                "tempo": 120.0
            },
            {
                "start_time": 26.90681818181818,
                "end_time": 27.05681818181818,
                "pitch": 71,
                "velocity": 64,
                "duration": 0.14999999999999858,
                "tempo": 120.0
            },
            {
                "start_time": 27.10681818181818,
                "end_time": 27.259090909090908,
                "pitch": 69,
                "velocity": 64,
                "duration": 0.15227272727272734,
                "tempo": 120.0
            },
            {
                "start_time": 27.30909090909091,
                "end_time": 27.888636363636362,
                "pitch": 74,
                "velocity": 64,
                "duration": 0.5795454545454533,
                "tempo": 120.0
            },
            {
                "start_time": 28.093181818181815,
                "end_time": 28.395454545454545,
                "pitch": 74,
                "velocity": 64,
                "duration": 0.30227272727272947,
                "tempo": 120.0
            },
            {
                "start_time": 28.511363636363637,
                "end_time": 28.797727272727272,
                "pitch": 71,
                "velocity": 64,
                "duration": 0.28636363636363527,
                "tempo": 120.0
            },
            {
                "start_time": 28.91363636363636,
                "end_time": 29.440909090909088,
                "pitch": 67,
                "velocity": 64,
                "duration": 0.5272727272727273,
                "tempo": 120.0
            },
            {
                "start_time": 29.440909090909088,
                "end_time": 29.643181818181816,
                "pitch": 67,
                "velocity": 64,
                "duration": 0.20227272727272805,
                "tempo": 120.0
            },
            {
                "start_time": 29.643181818181816,
                "end_time": 29.829545454545453,
                "pitch": 67,
                "velocity": 64,
                "duration": 0.1863636363636374,
                "tempo": 120.0
            },
            {
                "start_time": 29.829545454545453,
                "end_time": 29.863636363636363,
                "pitch": 67,
                "velocity": 64,
                "duration": 0.03409090909091006,
                "tempo": 120.0
            },
            {
                "start_time": 29.89772727272727,
                "end_time": 30.068181818181817,
                "pitch": 69,
                "velocity": 64,
                "duration": 0.17045454545454675,
                "tempo": 120.0
            },
            {
                "start_time": 30.120454545454542,
                "end_time": 30.268181818181816,
                "pitch": 67,
                "velocity": 64,
                "duration": 0.14772727272727337,
                "tempo": 120.0
            },
            {
                "start_time": 30.315909090909088,
                "end_time": 31.095454545454544,
                "pitch": 64,
                "velocity": 64,
                "duration": 0.7795454545454561,
                "tempo": 120.0
            },
            {
                "start_time": 32.11590909090909,
                "end_time": 35.513636363636365,
                "pitch": 88,
                "velocity": 64,
                "duration": 3.3977272727272734,
                "tempo": 120.0
            },
            {
                "start_time": 35.513636363636365,
                "end_time": 35.775,
                "pitch": 71,
                "velocity": 64,
                "duration": 0.26136363636363313,
                "tempo": 120.0
            },
            {
                "start_time": 35.929545454545455,
                "end_time": 36.08409090909091,
                "pitch": 72,
                "velocity": 64,
                "duration": 0.1545454545454561,
                "tempo": 120.0
            },
            {
                "start_time": 36.11818181818182,
                "end_time": 36.413636363636364,
                "pitch": 72,
                "velocity": 64,
                "duration": 0.29545454545454675,
                "tempo": 120.0
            },
            {
                "start_time": 36.413636363636364,
                "end_time": 36.51136363636363,
                "pitch": 72,
                "velocity": 64,
                "duration": 0.09772727272726911,
                "tempo": 120.0
            },
            {
                "start_time": 36.51136363636363,
                "end_time": 36.611363636363635,
                "pitch": 72,
                "velocity": 64,
                "duration": 0.10000000000000142,
                "tempo": 120.0
            },
            {
                "start_time": 36.611363636363635,
                "end_time": 36.711363636363636,
                "pitch": 72,
                "velocity": 64,
                "duration": 0.10000000000000142,
                "tempo": 120.0
            },
            {
                "start_time": 36.711363636363636,
                "end_time": 36.81136363636364,
                "pitch": 72,
                "velocity": 64,
                "duration": 0.10000000000000142,
                "tempo": 120.0
            },
            {
                "start_time": 36.81136363636364,
                "end_time": 36.91136363636363,
                "pitch": 72,
                "velocity": 64,
                "duration": 0.09999999999999432,
                "tempo": 120.0
            },
            {
                "start_time": 36.91136363636363,
                "end_time": 37.01136363636363,
                "pitch": 72,
                "velocity": 64,
                "duration": 0.10000000000000142,
                "tempo": 120.0
            },
            {
                "start_time": 37.01136363636363,
                "end_time": 37.111363636363635,
                "pitch": 72,
                "velocity": 64,
                "duration": 0.10000000000000142,
                "tempo": 120.0
            },
            {
                "start_time": 37.111363636363635,
                "end_time": 37.21363636363636,
                "pitch": 72,
                "velocity": 64,
                "duration": 0.10227272727272663,
                "tempo": 120.0
            },
            {
                "start_time": 37.21363636363636,
                "end_time": 37.31363636363636,
                "pitch": 72,
                "velocity": 64,
                "duration": 0.10000000000000142,
                "tempo": 120.0
            },
            {
                "start_time": 38.543181818181814,
                "end_time": 41.93181818181818,
                "pitch": 86,
                "velocity": 64,
                "duration": 3.3886363636363654,
                "tempo": 120.0
            },
            {
                "start_time": 41.93181818181818,
                "end_time": 42.33181818181818,
                "pitch": 64,
                "velocity": 64,
                "duration": 0.3999999999999986,
                "tempo": 120.0
            },
            {
                "start_time": 42.53409090909091,
                "end_time": 42.69772727272727,
                "pitch": 64,
                "velocity": 64,
                "duration": 0.16363636363636402,
                "tempo": 120.0
            },
            {
                "start_time": 42.72954545454545,
                "end_time": 43.195454545454545,
                "pitch": 69,
                "velocity": 64,
                "duration": 0.4659090909090935,
                "tempo": 120.0
            },
            {
                "start_time": 43.32954545454545,
                "end_time": 44.275,
                "pitch": 73,
                "velocity": 64,
                "duration": 0.9454545454545453,
                "tempo": 120.0
            },
            {
                "start_time": 44.54545454545455,
                "end_time": 44.836363636363636,
                "pitch": 76,
                "velocity": 64,
                "duration": 0.29090909090908923,
                "tempo": 120.0
            },
            {
                "start_time": 44.95681818181818,
                "end_time": 45.10681818181818,
                "pitch": 76,
                "velocity": 64,
                "duration": 0.14999999999999858,
                "tempo": 120.0
            },
            {
                "start_time": 45.14090909090909,
                "end_time": 45.30681818181818,
                "pitch": 72,
                "velocity": 64,
                "duration": 0.16590909090908923,
                "tempo": 120.0
            },
            {
                "start_time": 45.35681818181818,
                "end_time": 45.50681818181818,
                "pitch": 69,
                "velocity": 64,
                "duration": 0.15000000000000568,
                "tempo": 120.0
            },
            {
                "start_time": 45.55681818181818,
                "end_time": 46.00681818181818,
                "pitch": 65,
                "velocity": 64,
                "duration": 0.45000000000000284,
                "tempo": 120.0
            },
            {
                "start_time": 46.15681818181818,
                "end_time": 46.44318181818181,
                "pitch": 74,
                "velocity": 64,
                "duration": 0.2863636363636317,
                "tempo": 120.0
            },
            {
                "start_time": 46.559090909090905,
                "end_time": 46.709090909090904,
                "pitch": 74,
                "velocity": 64,
                "duration": 0.14999999999999858,
                "tempo": 120.0
            },
            {
                "start_time": 46.74318181818182,
                "end_time": 46.90909090909091,
                "pitch": 71,
                "velocity": 64,
                "duration": 0.16590909090908923,
                "tempo": 120.0
            },
            {
                "start_time": 46.959090909090904,
                "end_time": 47.10909090909091,
                "pitch": 67,
                "velocity": 64,
                "duration": 0.15000000000000568,
                "tempo": 120.0
            },
            {
                "start_time": 47.15909090909091,
                "end_time": 47.94318181818181,
                "pitch": 64,
                "velocity": 64,
                "duration": 0.7840909090909065,
                "tempo": 120.0
            },
            {
                "start_time": 48.15909090909091,
                "end_time": 48.445454545454545,
                "pitch": 71,
                "velocity": 64,
                "duration": 0.2863636363636388,
                "tempo": 120.0
            },
            {
                "start_time": 48.54545454545454,
                "end_time": 48.71363636363636,
                "pitch": 69,
                "velocity": 64,
                "duration": 0.16818181818182154,
                "tempo": 120.0
            },
            {
                "start_time": 48.76363636363636,
                "end_time": 49.21363636363636,
                "pitch": 71,
                "velocity": 64,
                "duration": 0.45000000000000284,
                "tempo": 120.0
            },
            {
                "start_time": 49.345454545454544,
                "end_time": 49.51363636363636,
                "pitch": 69,
                "velocity": 64,
                "duration": 0.16818181818181444,
                "tempo": 120.0
            },
            {
                "start_time": 49.54545454545454,
                "end_time": 49.845454545454544,
                "pitch": 72,
                "velocity": 64,
                "duration": 0.30000000000000426,
                "tempo": 120.0
            },
            {
                "start_time": 49.845454545454544,
                "end_time": 49.945454545454545,
                "pitch": 72,
                "velocity": 64,
                "duration": 0.10000000000000142,
                "tempo": 120.0
            },
            {
                "start_time": 49.945454545454545,
                "end_time": 50.04545454545454,
                "pitch": 72,
                "velocity": 64,
                "duration": 0.09999999999999432,
                "tempo": 120.0
            },
            {
                "start_time": 50.04545454545454,
                "end_time": 50.14545454545454,
                "pitch": 72,
                "velocity": 64,
                "duration": 0.10000000000000142,
                "tempo": 120.0
            },
            {
                "start_time": 50.14545454545454,
                "end_time": 50.24772727272727,
                "pitch": 72,
                "velocity": 64,
                "duration": 0.10227272727272663,
                "tempo": 120.0
            },
            {
                "start_time": 50.24772727272727,
                "end_time": 50.34772727272727,
                "pitch": 72,
                "velocity": 64,
                "duration": 0.10000000000000142,
                "tempo": 120.0
            },
            {
                "start_time": 50.56590909090909,
                "end_time": 50.715909090909086,
                "pitch": 65,
                "velocity": 64,
                "duration": 0.14999999999999858,
                "tempo": 120.0
            },
            {
                "start_time": 50.75,
                "end_time": 50.91590909090909,
                "pitch": 67,
                "velocity": 64,
                "duration": 0.16590909090908923,
                "tempo": 120.0
            },
            {
                "start_time": 50.949999999999996,
                "end_time": 51.115909090909085,
                "pitch": 69,
                "velocity": 64,
                "duration": 0.16590909090908923,
                "tempo": 120.0
            },
            {
                "start_time": 51.15,
                "end_time": 51.31590909090909,
                "pitch": 72,
                "velocity": 64,
                "duration": 0.16590909090908923,
                "tempo": 120.0
            },
            {
                "start_time": 51.365909090909085,
                "end_time": 51.65,
                "pitch": 72,
                "velocity": 64,
                "duration": 0.2840909090909136,
                "tempo": 120.0
            },
            {
                "start_time": 51.76590909090909,
                "end_time": 52.05,
                "pitch": 71,
                "velocity": 64,
                "duration": 0.2840909090909065,
                "tempo": 120.0
            },
            {
                "start_time": 52.16590909090909,
                "end_time": 52.449999999999996,
                "pitch": 69,
                "velocity": 64,
                "duration": 0.2840909090909065,
                "tempo": 120.0
            },
            {
                "start_time": 52.56818181818181,
                "end_time": 52.85227272727273,
                "pitch": 65,
                "velocity": 64,
                "duration": 0.2840909090909136,
                "tempo": 120.0
            },
            {
                "start_time": 52.96818181818182,
                "end_time": 53.502272727272725,
                "pitch": 67,
                "velocity": 64,
                "duration": 0.5340909090909065,
                "tempo": 120.0
            },
            {
                "start_time": 53.502272727272725,
                "end_time": 53.55227272727272,
                "pitch": 67,
                "velocity": 64,
                "duration": 0.04999999999999716,
                "tempo": 120.0
            },
            {
                "start_time": 53.768181818181816,
                "end_time": 54.05227272727272,
                "pitch": 69,
                "velocity": 64,
                "duration": 0.2840909090909065,
                "tempo": 120.0
            },
            {
                "start_time": 54.168181818181814,
                "end_time": 54.45454545454545,
                "pitch": 71,
                "velocity": 64,
                "duration": 0.2863636363636388,
                "tempo": 120.0
            },
            {
                "start_time": 54.570454545454545,
                "end_time": 55.75454545454545,
                "pitch": 69,
                "velocity": 64,
                "duration": 1.184090909090905,
                "tempo": 120.0
            },
            {
                "start_time": 57.775,
                "end_time": 57.79090909090909,
                "pitch": 72,
                "velocity": 64,
                "duration": 0.01590909090909065,
                "tempo": 120.0
            }
        ],
        "Violin": [
            {
                "start_time": 32.49090909090909,
                "end_time": 32.559090909090905,
                "pitch": 88,
                "velocity": 64,
                "duration": 0.06818181818181301,
                "tempo": 120.0
            },
            {
                "start_time": 32.918181818181814,
                "end_time": 32.970454545454544,
                "pitch": 88,
                "velocity": 64,
                "duration": 0.05227272727272947,
                "tempo": 120.0
            },
            {
                "start_time": 33.31136363636364,
                "end_time": 33.37954545454545,
                "pitch": 88,
                "velocity": 64,
                "duration": 0.06818181818181301,
                "tempo": 120.0
            },
            {
                "start_time": 33.72954545454545,
                "end_time": 33.779545454545456,
                "pitch": 88,
                "velocity": 64,
                "duration": 0.05000000000000426,
                "tempo": 120.0
            },
            {
                "start_time": 34.12272727272727,
                "end_time": 34.17272727272727,
                "pitch": 88,
                "velocity": 64,
                "duration": 0.05000000000000426,
                "tempo": 120.0
            },
            {
                "start_time": 34.52272727272727,
                "end_time": 34.57272727272727,
                "pitch": 88,
                "velocity": 64,
                "duration": 0.04999999999999716,
                "tempo": 120.0
            },
            {
                "start_time": 34.93181818181818,
                "end_time": 34.98409090909091,
                "pitch": 88,
                "velocity": 64,
                "duration": 0.05227272727272947,
                "tempo": 120.0
            },
            {
                "start_time": 35.33409090909091,
                "end_time": 38.595454545454544,
                "pitch": 71,
                "velocity": 64,
                "duration": 3.261363636363633,
                "tempo": 120.0
            },
            {
                "start_time": 38.92727272727272,
                "end_time": 38.99545454545454,
                "pitch": 86,
                "velocity": 64,
                "duration": 0.06818181818182012,
                "tempo": 120.0
            },
            {
                "start_time": 39.345454545454544,
                "end_time": 39.39545454545454,
                "pitch": 86,
                "velocity": 64,
                "duration": 0.04999999999999716,
                "tempo": 120.0
            },
            {
                "start_time": 39.72727272727273,
                "end_time": 39.79545454545455,
                "pitch": 86,
                "velocity": 64,
                "duration": 0.06818181818182012,
                "tempo": 120.0
            },
            {
                "start_time": 40.14545454545454,
                "end_time": 40.195454545454545,
                "pitch": 86,
                "velocity": 64,
                "duration": 0.05000000000000426,
                "tempo": 120.0
            },
            {
                "start_time": 40.54772727272727,
                "end_time": 40.59772727272727,
                "pitch": 86,
                "velocity": 64,
                "duration": 0.04999999999999716,
                "tempo": 120.0
            },
            {
                "start_time": 40.94772727272727,
                "end_time": 40.99772727272727,
                "pitch": 86,
                "velocity": 64,
                "duration": 0.04999999999999716,
                "tempo": 120.0
            },
            {
                "start_time": 41.34772727272727,
                "end_time": 41.39772727272727,
                "pitch": 86,
                "velocity": 64,
                "duration": 0.05000000000000426,
                "tempo": 120.0
            }
        ],
        "Electric Guitar (clean)": [
            {
                "start_time": 0.0,
                "end_time": 0.4318181818181818,
                "pitch": 70,
                "velocity": 4,
                "duration": 0.4318181818181818,
                "tempo": 120.0
            },
            {
                "start_time": 0.4318181818181818,
                "end_time": 0.6363636363636364,
                "pitch": 79,
                "velocity": 4,
                "duration": 0.20454545454545453,
                "tempo": 120.0
            },
            {
                "start_time": 0.6363636363636364,
                "end_time": 1.2340909090909091,
                "pitch": 71,
                "velocity": 4,
                "duration": 0.5977272727272728,
                "tempo": 120.0
            },
            {
                "start_time": 1.2340909090909091,
                "end_time": 1.4386363636363635,
                "pitch": 79,
                "velocity": 4,
                "duration": 0.20454545454545436,
                "tempo": 120.0
            },
            {
                "start_time": 1.4386363636363635,
                "end_time": 1.5068181818181818,
                "pitch": 71,
                "velocity": 4,
                "duration": 0.06818181818181834,
                "tempo": 120.0
            },
            {
                "start_time": 0.0,
                "end_time": 2.018181818181818,
                "pitch": 62,
                "velocity": 4,
                "duration": 2.018181818181818,
                "tempo": 120.0
            },
            {
                "start_time": 1.5068181818181818,
                "end_time": 2.018181818181818,
                "pitch": 62,
                "velocity": 4,
                "duration": 0.5113636363636362,
                "tempo": 120.0
            },
            {
                "start_time": 2.018181818181818,
                "end_time": 2.4204545454545454,
                "pitch": 68,
                "velocity": 4,
                "duration": 0.40227272727272734,
                "tempo": 120.0
            },
            {
                "start_time": 2.4204545454545454,
                "end_time": 3.2318181818181815,
                "pitch": 52,
                "velocity": 4,
                "duration": 0.8113636363636361,
                "tempo": 120.0
            },
            {
                "start_time": 3.2318181818181815,
                "end_time": 3.631818181818182,
                "pitch": 61,
                "velocity": 4,
                "duration": 0.40000000000000036,
                "tempo": 120.0
            },
            {
                "start_time": 3.631818181818182,
                "end_time": 3.8318181818181816,
                "pitch": 69,
                "velocity": 4,
                "duration": 0.19999999999999973,
                "tempo": 120.0
            },
            {
                "start_time": 3.8318181818181816,
                "end_time": 4.431818181818182,
                "pitch": 62,
                "velocity": 4,
                "duration": 0.6000000000000001,
                "tempo": 120.0
            },
            {
                "start_time": 4.431818181818182,
                "end_time": 4.634090909090909,
                "pitch": 69,
                "velocity": 4,
                "duration": 0.20227272727272716,
                "tempo": 120.0
            },
            {
                "start_time": 4.634090909090909,
                "end_time": 5.0636363636363635,
                "pitch": 62,
                "velocity": 4,
                "duration": 0.4295454545454547,
                "tempo": 120.0
            },
            {
                "start_time": 5.0636363636363635,
                "end_time": 5.227272727272727,
                "pitch": 47,
                "velocity": 4,
                "duration": 0.16363636363636314,
                "tempo": 120.0
            },
            {
                "start_time": 5.227272727272727,
                "end_time": 5.629545454545454,
                "pitch": 54,
                "velocity": 4,
                "duration": 0.40227272727272734,
                "tempo": 120.0
            },
            {
                "start_time": 5.629545454545454,
                "end_time": 5.870454545454545,
                "pitch": 37,
                "velocity": 4,
                "duration": 0.24090909090909118,
                "tempo": 120.0
            },
            {
                "start_time": 5.870454545454545,
                "end_time": 6.4409090909090905,
                "pitch": 19,
                "velocity": 4,
                "duration": 0.5704545454545453,
                "tempo": 120.0
            },
            {
                "start_time": 6.4409090909090905,
                "end_time": 6.459090909090909,
                "pitch": 0,
                "velocity": 4,
                "duration": 0.01818181818181852,
                "tempo": 120.0
            },
            {
                "start_time": 6.459090909090909,
                "end_time": 6.861363636363636,
                "pitch": 28,
                "velocity": 4,
                "duration": 0.40227272727272734,
                "tempo": 120.0
            },
            {
                "start_time": 6.861363636363636,
                "end_time": 7.061363636363636,
                "pitch": 20,
                "velocity": 4,
                "duration": 0.1999999999999993,
                "tempo": 120.0
            },
            {
                "start_time": 7.061363636363636,
                "end_time": 7.261363636363636,
                "pitch": 27,
                "velocity": 4,
                "duration": 0.20000000000000018,
                "tempo": 120.0
            },
            {
                "start_time": 7.261363636363636,
                "end_time": 7.670454545454545,
                "pitch": 12,
                "velocity": 4,
                "duration": 0.40909090909090917,
                "tempo": 120.0
            },
            {
                "start_time": 7.670454545454545,
                "end_time": 8.061363636363636,
                "pitch": 20,
                "velocity": 4,
                "duration": 0.39090909090909065,
                "tempo": 120.0
            },
            {
                "start_time": 8.061363636363636,
                "end_time": 8.161363636363635,
                "pitch": 30,
                "velocity": 4,
                "duration": 0.09999999999999964,
                "tempo": 120.0
            },
            {
                "start_time": 8.161363636363635,
                "end_time": 8.461363636363636,
                "pitch": 27,
                "velocity": 4,
                "duration": 0.3000000000000007,
                "tempo": 120.0
            },
            {
                "start_time": 8.461363636363636,
                "end_time": 8.663636363636364,
                "pitch": 20,
                "velocity": 4,
                "duration": 0.20227272727272805,
                "tempo": 120.0
            },
            {
                "start_time": 8.663636363636364,
                "end_time": 8.863636363636363,
                "pitch": 27,
                "velocity": 4,
                "duration": 0.1999999999999993,
                "tempo": 120.0
            },
            {
                "start_time": 8.863636363636363,
                "end_time": 9.275,
                "pitch": 12,
                "velocity": 4,
                "duration": 0.41136363636363704,
                "tempo": 120.0
            },
            {
                "start_time": 9.275,
                "end_time": 9.668181818181818,
                "pitch": 20,
                "velocity": 4,
                "duration": 0.39318181818181763,
                "tempo": 120.0
            },
            {
                "start_time": 9.668181818181818,
                "end_time": 9.768181818181818,
                "pitch": 30,
                "velocity": 4,
                "duration": 0.09999999999999964,
                "tempo": 120.0
            },
            {
                "start_time": 9.768181818181818,
                "end_time": 10.068181818181818,
                "pitch": 27,
                "velocity": 4,
                "duration": 0.3000000000000007,
                "tempo": 120.0
            },
            {
                "start_time": 10.068181818181818,
                "end_time": 10.268181818181818,
                "pitch": 20,
                "velocity": 4,
                "duration": 0.1999999999999993,
                "tempo": 120.0
            },
            {
                "start_time": 10.268181818181818,
                "end_time": 10.470454545454546,
                "pitch": 27,
                "velocity": 4,
                "duration": 0.20227272727272805,
                "tempo": 120.0
            },
            {
                "start_time": 10.470454545454546,
                "end_time": 10.872727272727273,
                "pitch": 12,
                "velocity": 4,
                "duration": 0.40227272727272734,
                "tempo": 120.0
            },
            {
                "start_time": 10.872727272727273,
                "end_time": 10.888636363636364,
                "pitch": 20,
                "velocity": 4,
                "duration": 0.01590909090909065,
                "tempo": 120.0
            },
            {
                "start_time": 10.888636363636364,
                "end_time": 11.274999999999999,
                "pitch": 30,
                "velocity": 4,
                "duration": 0.3863636363636349,
                "tempo": 120.0
            },
            {
                "start_time": 11.274999999999999,
                "end_time": 11.677272727272726,
                "pitch": 38,
                "velocity": 4,
                "duration": 0.40227272727272734,
                "tempo": 120.0
            },
            {
                "start_time": 11.677272727272726,
                "end_time": 11.877272727272727,
                "pitch": 30,
                "velocity": 4,
                "duration": 0.20000000000000107,
                "tempo": 120.0
            },
            {
                "start_time": 11.877272727272727,
                "end_time": 12.079545454545453,
                "pitch": 37,
                "velocity": 4,
                "duration": 0.20227272727272627,
                "tempo": 120.0
            },
            {
                "start_time": 12.079545454545453,
                "end_time": 12.488636363636363,
                "pitch": 22,
                "velocity": 4,
                "duration": 0.40909090909091006,
                "tempo": 120.0
            },
            {
                "start_time": 12.488636363636363,
                "end_time": 12.881818181818181,
                "pitch": 30,
                "velocity": 4,
                "duration": 0.39318181818181763,
                "tempo": 120.0
            },
            {
                "start_time": 12.881818181818181,
                "end_time": 13.284090909090908,
                "pitch": 38,
                "velocity": 4,
                "duration": 0.40227272727272734,
                "tempo": 120.0
            },
            {
                "start_time": 13.284090909090908,
                "end_time": 13.484090909090908,
                "pitch": 30,
                "velocity": 4,
                "duration": 0.1999999999999993,
                "tempo": 120.0
            },
            {
                "start_time": 13.484090909090908,
                "end_time": 13.686363636363636,
                "pitch": 37,
                "velocity": 4,
                "duration": 0.20227272727272805,
                "tempo": 120.0
            },
            {
                "start_time": 13.686363636363636,
                "end_time": 14.086363636363636,
                "pitch": 22,
                "velocity": 4,
                "duration": 0.40000000000000036,
                "tempo": 120.0
            },
            {
                "start_time": 14.086363636363636,
                "end_time": 14.488636363636363,
                "pitch": 30,
                "velocity": 4,
                "duration": 0.40227272727272734,
                "tempo": 120.0
            },
            {
                "start_time": 14.488636363636363,
                "end_time": 14.89090909090909,
                "pitch": 38,
                "velocity": 4,
                "duration": 0.40227272727272734,
                "tempo": 120.0
            },
            {
                "start_time": 14.89090909090909,
                "end_time": 15.093181818181817,
                "pitch": 30,
                "velocity": 4,
                "duration": 0.20227272727272627,
                "tempo": 120.0
            },
            {
                "start_time": 15.093181818181817,
                "end_time": 15.127272727272727,
                "pitch": 37,
                "velocity": 4,
                "duration": 0.03409090909091006,
                "tempo": 120.0
            },
            {
                "start_time": 15.127272727272727,
                "end_time": 15.295454545454545,
                "pitch": 31,
                "velocity": 4,
                "duration": 0.168181818181818,
                "tempo": 120.0
            },
            {
                "start_time": 15.295454545454545,
                "end_time": 15.697727272727272,
                "pitch": 15,
                "velocity": 4,
                "duration": 0.40227272727272734,
                "tempo": 120.0
            },
            {
                "start_time": 15.697727272727272,
                "end_time": 15.779545454545454,
                "pitch": 24,
                "velocity": 4,
                "duration": 0.08181818181818201,
                "tempo": 120.0
            },
            {
                "start_time": 15.779545454545454,
                "end_time": 16.097727272727273,
                "pitch": 36,
                "velocity": 4,
                "duration": 0.31818181818181834,
                "tempo": 120.0
            },
            {
                "start_time": 16.097727272727273,
                "end_time": 16.19772727272727,
                "pitch": 58,
                "velocity": 4,
                "duration": 0.09999999999999787,
                "tempo": 120.0
            },
            {
                "start_time": 16.19772727272727,
                "end_time": 16.297727272727272,
                "pitch": 65,
                "velocity": 4,
                "duration": 0.10000000000000142,
                "tempo": 120.0
            },
            {
                "start_time": 16.297727272727272,
                "end_time": 16.7,
                "pitch": 55,
                "velocity": 4,
                "duration": 0.40227272727272734,
                "tempo": 120.0
            },
            {
                "start_time": 16.7,
                "end_time": 16.9,
                "pitch": 65,
                "velocity": 4,
                "duration": 0.1999999999999993,
                "tempo": 120.0
            },
            {
                "start_time": 16.9,
                "end_time": 17.3,
                "pitch": 55,
                "velocity": 4,
                "duration": 0.40000000000000213,
                "tempo": 120.0
            },
            {
                "start_time": 17.3,
                "end_time": 17.502272727272725,
                "pitch": 65,
                "velocity": 4,
                "duration": 0.2022727272727245,
                "tempo": 120.0
            },
            {
                "start_time": 17.502272727272725,
                "end_time": 17.702272727272728,
                "pitch": 55,
                "velocity": 4,
                "duration": 0.20000000000000284,
                "tempo": 120.0
            },
            {
                "start_time": 17.702272727272728,
                "end_time": 18.102272727272727,
                "pitch": 65,
                "velocity": 4,
                "duration": 0.3999999999999986,
                "tempo": 120.0
            },
            {
                "start_time": 18.102272727272727,
                "end_time": 18.304545454545455,
                "pitch": 55,
                "velocity": 4,
                "duration": 0.20227272727272805,
                "tempo": 120.0
            },
            {
                "start_time": 18.304545454545455,
                "end_time": 18.504545454545454,
                "pitch": 65,
                "velocity": 4,
                "duration": 0.1999999999999993,
                "tempo": 120.0
            },
            {
                "start_time": 18.504545454545454,
                "end_time": 19.288636363636364,
                "pitch": 55,
                "velocity": 4,
                "duration": 0.7840909090909101,
                "tempo": 120.0
            },
            {
                "start_time": 19.288636363636364,
                "end_time": 19.402272727272727,
                "pitch": 66,
                "velocity": 4,
                "duration": 0.11363636363636331,
                "tempo": 120.0
            },
            {
                "start_time": 19.402272727272727,
                "end_time": 19.69772727272727,
                "pitch": 63,
                "velocity": 4,
                "duration": 0.2954545454545432,
                "tempo": 120.0
            },
            {
                "start_time": 19.69772727272727,
                "end_time": 19.902272727272727,
                "pitch": 56,
                "velocity": 4,
                "duration": 0.2045454545454568,
                "tempo": 120.0
            },
            {
                "start_time": 19.902272727272727,
                "end_time": 20.10909090909091,
                "pitch": 65,
                "velocity": 4,
                "duration": 0.206818181818182,
                "tempo": 120.0
            },
            {
                "start_time": 20.10909090909091,
                "end_time": 20.511363636363637,
                "pitch": 48,
                "velocity": 4,
                "duration": 0.40227272727272734,
                "tempo": 120.0
            },
            {
                "start_time": 20.511363636363637,
                "end_time": 20.911363636363635,
                "pitch": 56,
                "velocity": 4,
                "duration": 0.3999999999999986,
                "tempo": 120.0
            },
            {
                "start_time": 20.911363636363635,
                "end_time": 21.011363636363637,
                "pitch": 66,
                "velocity": 4,
                "duration": 0.10000000000000142,
                "tempo": 120.0
            },
            {
                "start_time": 21.011363636363637,
                "end_time": 21.311363636363634,
                "pitch": 63,
                "velocity": 4,
                "duration": 0.29999999999999716,
                "tempo": 120.0
            },
            {
                "start_time": 21.311363636363634,
                "end_time": 21.327272727272724,
                "pitch": 56,
                "velocity": 4,
                "duration": 0.01590909090909065,
                "tempo": 120.0
            },
            {
                "start_time": 21.327272727272724,
                "end_time": 21.511363636363637,
                "pitch": 14,
                "velocity": 4,
                "duration": 0.1840909090909122,
                "tempo": 120.0
            },
            {
                "start_time": 21.511363636363637,
                "end_time": 21.71363636363636,
                "pitch": 21,
                "velocity": 4,
                "duration": 0.2022727272727245,
                "tempo": 120.0
            },
            {
                "start_time": 21.71363636363636,
                "end_time": 21.74772727272727,
                "pitch": 70,
                "velocity": 4,
                "duration": 0.03409090909091006,
                "tempo": 120.0
            },
            {
                "start_time": 21.74772727272727,
                "end_time": 22.12272727272727,
                "pitch": 45,
                "velocity": 4,
                "duration": 0.375,
                "tempo": 120.0
            },
            {
                "start_time": 22.12272727272727,
                "end_time": 22.51590909090909,
                "pitch": 54,
                "velocity": 4,
                "duration": 0.3931818181818194,
                "tempo": 120.0
            },
            {
                "start_time": 22.51590909090909,
                "end_time": 22.91590909090909,
                "pitch": 61,
                "velocity": 4,
                "duration": 0.3999999999999986,
                "tempo": 120.0
            },
            {
                "start_time": 22.91590909090909,
                "end_time": 23.11590909090909,
                "pitch": 53,
                "velocity": 4,
                "duration": 0.1999999999999993,
                "tempo": 120.0
            },
            {
                "start_time": 23.11590909090909,
                "end_time": 23.31590909090909,
                "pitch": 60,
                "velocity": 4,
                "duration": 0.20000000000000284,
                "tempo": 120.0
            },
            {
                "start_time": 23.31590909090909,
                "end_time": 23.720454545454544,
                "pitch": 45,
                "velocity": 4,
                "duration": 0.40454545454545254,
                "tempo": 120.0
            },
            {
                "start_time": 23.720454545454544,
                "end_time": 24.120454545454546,
                "pitch": 54,
                "velocity": 4,
                "duration": 0.40000000000000213,
                "tempo": 120.0
            },
            {
                "start_time": 24.120454545454546,
                "end_time": 24.52272727272727,
                "pitch": 61,
                "velocity": 4,
                "duration": 0.4022727272727238,
                "tempo": 120.0
            },
            {
                "start_time": 24.52272727272727,
                "end_time": 24.729545454545452,
                "pitch": 53,
                "velocity": 4,
                "duration": 0.206818181818182,
                "tempo": 120.0
            },
            {
                "start_time": 24.729545454545452,
                "end_time": 24.93409090909091,
                "pitch": 60,
                "velocity": 4,
                "duration": 0.2045454545454568,
                "tempo": 120.0
            },
            {
                "start_time": 24.93409090909091,
                "end_time": 25.334090909090907,
                "pitch": 45,
                "velocity": 4,
                "duration": 0.3999999999999986,
                "tempo": 120.0
            },
            {
                "start_time": 25.334090909090907,
                "end_time": 25.677272727272726,
                "pitch": 54,
                "velocity": 4,
                "duration": 0.3431818181818187,
                "tempo": 120.0
            },
            {
                "start_time": 25.677272727272726,
                "end_time": 25.724999999999998,
                "pitch": 20,
                "velocity": 4,
                "duration": 0.04772727272727195,
                "tempo": 120.0
            },
            {
                "start_time": 25.724999999999998,
                "end_time": 25.825,
                "pitch": 30,
                "velocity": 4,
                "duration": 0.10000000000000142,
                "tempo": 120.0
            },
            {
                "start_time": 25.825,
                "end_time": 26.127272727272725,
                "pitch": 27,
                "velocity": 4,
                "duration": 0.3022727272727259,
                "tempo": 120.0
            },
            {
                "start_time": 26.127272727272725,
                "end_time": 26.327272727272724,
                "pitch": 20,
                "velocity": 4,
                "duration": 0.1999999999999993,
                "tempo": 120.0
            },
            {
                "start_time": 26.327272727272724,
                "end_time": 26.529545454545453,
                "pitch": 29,
                "velocity": 4,
                "duration": 0.20227272727272805,
                "tempo": 120.0
            },
            {
                "start_time": 26.529545454545453,
                "end_time": 26.938636363636363,
                "pitch": 12,
                "velocity": 4,
                "duration": 0.40909090909091006,
                "tempo": 120.0
            },
            {
                "start_time": 26.938636363636363,
                "end_time": 27.34090909090909,
                "pitch": 20,
                "velocity": 4,
                "duration": 0.40227272727272734,
                "tempo": 120.0
            },
            {
                "start_time": 27.34090909090909,
                "end_time": 27.438636363636363,
                "pitch": 30,
                "velocity": 4,
                "duration": 0.09772727272727266,
                "tempo": 120.0
            },
            {
                "start_time": 27.438636363636363,
                "end_time": 27.73409090909091,
                "pitch": 27,
                "velocity": 4,
                "duration": 0.29545454545454675,
                "tempo": 120.0
            },
            {
                "start_time": 27.73409090909091,
                "end_time": 27.940909090909088,
                "pitch": 20,
                "velocity": 4,
                "duration": 0.20681818181817846,
                "tempo": 120.0
            },
            {
                "start_time": 27.940909090909088,
                "end_time": 28.145454545454545,
                "pitch": 29,
                "velocity": 4,
                "duration": 0.2045454545454568,
                "tempo": 120.0
            },
            {
                "start_time": 28.145454545454545,
                "end_time": 28.545454545454543,
                "pitch": 12,
                "velocity": 4,
                "duration": 0.3999999999999986,
                "tempo": 120.0
            },
            {
                "start_time": 28.545454545454543,
                "end_time": 28.94772727272727,
                "pitch": 20,
                "velocity": 4,
                "duration": 0.40227272727272734,
                "tempo": 120.0
            },
            {
                "start_time": 28.94772727272727,
                "end_time": 28.96363636363636,
                "pitch": 29,
                "velocity": 4,
                "duration": 0.01590909090909065,
                "tempo": 120.0
            },
            {
                "start_time": 28.96363636363636,
                "end_time": 29.143181818181816,
                "pitch": 64,
                "velocity": 4,
                "duration": 0.17954545454545467,
                "tempo": 120.0
            },
            {
                "start_time": 29.143181818181816,
                "end_time": 29.54090909090909,
                "pitch": 56,
                "velocity": 4,
                "duration": 0.3977272727272734,
                "tempo": 120.0
            },
            {
                "start_time": 29.54090909090909,
                "end_time": 29.743181818181817,
                "pitch": 66,
                "velocity": 4,
                "duration": 0.20227272727272805,
                "tempo": 120.0
            },
            {
                "start_time": 29.743181818181817,
                "end_time": 30.152272727272727,
                "pitch": 56,
                "velocity": 4,
                "duration": 0.40909090909091006,
                "tempo": 120.0
            },
            {
                "start_time": 30.152272727272727,
                "end_time": 30.349999999999998,
                "pitch": 66,
                "velocity": 4,
                "duration": 0.19772727272727053,
                "tempo": 120.0
            },
            {
                "start_time": 30.349999999999998,
                "end_time": 30.545454545454543,
                "pitch": 56,
                "velocity": 4,
                "duration": 0.19545454545454533,
                "tempo": 120.0
            },
            {
                "start_time": 30.545454545454543,
                "end_time": 30.945454545454545,
                "pitch": 66,
                "velocity": 4,
                "duration": 0.40000000000000213,
                "tempo": 120.0
            },
            {
                "start_time": 30.945454545454545,
                "end_time": 31.145454545454545,
                "pitch": 56,
                "velocity": 4,
                "duration": 0.1999999999999993,
                "tempo": 120.0
            },
            {
                "start_time": 31.145454545454545,
                "end_time": 31.345454545454544,
                "pitch": 66,
                "velocity": 4,
                "duration": 0.1999999999999993,
                "tempo": 120.0
            },
            {
                "start_time": 31.345454545454544,
                "end_time": 31.804545454545455,
                "pitch": 56,
                "velocity": 4,
                "duration": 0.45909090909091077,
                "tempo": 120.0
            },
            {
                "start_time": 31.804545454545455,
                "end_time": 32.13181818181818,
                "pitch": 19,
                "velocity": 4,
                "duration": 0.32727272727272805,
                "tempo": 120.0
            },
            {
                "start_time": 32.13181818181818,
                "end_time": 32.24545454545454,
                "pitch": 30,
                "velocity": 4,
                "duration": 0.11363636363635976,
                "tempo": 120.0
            },
            {
                "start_time": 32.24545454545454,
                "end_time": 32.54090909090909,
                "pitch": 12,
                "velocity": 4,
                "duration": 0.29545454545454675,
                "tempo": 120.0
            },
            {
                "start_time": 32.54090909090909,
                "end_time": 32.74772727272727,
                "pitch": 21,
                "velocity": 4,
                "duration": 0.20681818181817846,
                "tempo": 120.0
            },
            {
                "start_time": 32.74772727272727,
                "end_time": 32.85,
                "pitch": 30,
                "velocity": 4,
                "duration": 0.10227272727273373,
                "tempo": 120.0
            },
            {
                "start_time": 32.85,
                "end_time": 32.95227272727273,
                "pitch": 12,
                "velocity": 4,
                "duration": 0.10227272727272663,
                "tempo": 120.0
            },
            {
                "start_time": 32.95227272727273,
                "end_time": 33.36363636363636,
                "pitch": 28,
                "velocity": 4,
                "duration": 0.4113636363636317,
                "tempo": 120.0
            },
            {
                "start_time": 33.36363636363636,
                "end_time": 33.763636363636365,
                "pitch": 19,
                "velocity": 4,
                "duration": 0.4000000000000057,
                "tempo": 120.0
            },
            {
                "start_time": 33.763636363636365,
                "end_time": 33.861363636363635,
                "pitch": 30,
                "velocity": 4,
                "duration": 0.09772727272726911,
                "tempo": 120.0
            },
            {
                "start_time": 33.861363636363635,
                "end_time": 34.154545454545456,
                "pitch": 12,
                "velocity": 4,
                "duration": 0.29318181818182154,
                "tempo": 120.0
            },
            {
                "start_time": 34.154545454545456,
                "end_time": 34.35454545454545,
                "pitch": 21,
                "velocity": 4,
                "duration": 0.19999999999999574,
                "tempo": 120.0
            },
            {
                "start_time": 34.35454545454545,
                "end_time": 34.45454545454545,
                "pitch": 30,
                "velocity": 4,
                "duration": 0.10000000000000142,
                "tempo": 120.0
            },
            {
                "start_time": 34.45454545454545,
                "end_time": 34.55681818181818,
                "pitch": 12,
                "velocity": 4,
                "duration": 0.10227272727272663,
                "tempo": 120.0
            },
            {
                "start_time": 34.55681818181818,
                "end_time": 34.965909090909086,
                "pitch": 28,
                "velocity": 4,
                "duration": 0.4090909090909065,
                "tempo": 120.0
            },
            {
                "start_time": 34.965909090909086,
                "end_time": 35.36590909090909,
                "pitch": 19,
                "velocity": 4,
                "duration": 0.4000000000000057,
                "tempo": 120.0
            },
            {
                "start_time": 35.36590909090909,
                "end_time": 35.75909090909091,
                "pitch": 30,
                "velocity": 4,
                "duration": 0.39318181818181586,
                "tempo": 120.0
            },
            {
                "start_time": 35.75909090909091,
                "end_time": 35.96363636363636,
                "pitch": 36,
                "velocity": 4,
                "duration": 0.20454545454545325,
                "tempo": 120.0
            },
            {
                "start_time": 35.96363636363636,
                "end_time": 36.56136363636364,
                "pitch": 30,
                "velocity": 4,
                "duration": 0.5977272727272762,
                "tempo": 120.0
            },
            {
                "start_time": 36.56136363636364,
                "end_time": 36.76136363636363,
                "pitch": 36,
                "velocity": 4,
                "duration": 0.19999999999999574,
                "tempo": 120.0
            },
            {
                "start_time": 36.76136363636363,
                "end_time": 36.877272727272725,
                "pitch": 30,
                "velocity": 4,
                "duration": 0.11590909090909207,
                "tempo": 120.0
            },
            {
                "start_time": 36.877272727272725,
                "end_time": 37.34772727272727,
                "pitch": 69,
                "velocity": 4,
                "duration": 0.4704545454545439,
                "tempo": 120.0
            },
            {
                "start_time": 37.34772727272727,
                "end_time": 37.75681818181818,
                "pitch": 75,
                "velocity": 4,
                "duration": 0.4090909090909136,
                "tempo": 120.0
            },
            {
                "start_time": 37.75681818181818,
                "end_time": 38.57727272727273,
                "pitch": 59,
                "velocity": 4,
                "duration": 0.8204545454545453,
                "tempo": 120.0
            },
            {
                "start_time": 38.57727272727273,
                "end_time": 38.67727272727272,
                "pitch": 68,
                "velocity": 4,
                "duration": 0.09999999999999432,
                "tempo": 120.0
            },
            {
                "start_time": 38.67727272727272,
                "end_time": 38.97727272727273,
                "pitch": 52,
                "velocity": 4,
                "duration": 0.30000000000000426,
                "tempo": 120.0
            },
            {
                "start_time": 38.97727272727273,
                "end_time": 39.17727272727272,
                "pitch": 61,
                "velocity": 4,
                "duration": 0.19999999999999574,
                "tempo": 120.0
            },
            {
                "start_time": 39.17727272727272,
                "end_time": 39.277272727272724,
                "pitch": 68,
                "velocity": 4,
                "duration": 0.10000000000000142,
                "tempo": 120.0
            },
            {
                "start_time": 39.277272727272724,
                "end_time": 39.377272727272725,
                "pitch": 52,
                "velocity": 4,
                "duration": 0.10000000000000142,
                "tempo": 120.0
            },
            {
                "start_time": 39.377272727272725,
                "end_time": 39.595454545454544,
                "pitch": 68,
                "velocity": 4,
                "duration": 0.2181818181818187,
                "tempo": 120.0
            },
            {
                "start_time": 39.595454545454544,
                "end_time": 39.777272727272724,
                "pitch": 80,
                "velocity": 4,
                "duration": 0.18181818181817988,
                "tempo": 120.0
            },
            {
                "start_time": 39.777272727272724,
                "end_time": 39.89545454545454,
                "pitch": 71,
                "velocity": 4,
                "duration": 0.11818181818181728,
                "tempo": 120.0
            },
            {
                "start_time": 39.89545454545454,
                "end_time": 40.179545454545455,
                "pitch": 22,
                "velocity": 4,
                "duration": 0.2840909090909136,
                "tempo": 120.0
            },
            {
                "start_time": 40.179545454545455,
                "end_time": 40.279545454545456,
                "pitch": 31,
                "velocity": 4,
                "duration": 0.10000000000000142,
                "tempo": 120.0
            },
            {
                "start_time": 40.279545454545456,
                "end_time": 40.58181818181818,
                "pitch": 15,
                "velocity": 4,
                "duration": 0.30227272727272236,
                "tempo": 120.0
            },
            {
                "start_time": 40.58181818181818,
                "end_time": 40.78181818181818,
                "pitch": 24,
                "velocity": 4,
                "duration": 0.20000000000000284,
                "tempo": 120.0
            },
            {
                "start_time": 40.78181818181818,
                "end_time": 40.88181818181818,
                "pitch": 31,
                "velocity": 4,
                "duration": 0.10000000000000142,
                "tempo": 120.0
            },
            {
                "start_time": 40.88181818181818,
                "end_time": 40.98181818181818,
                "pitch": 15,
                "velocity": 4,
                "duration": 0.09999999999999432,
                "tempo": 120.0
            },
            {
                "start_time": 40.98181818181818,
                "end_time": 41.38181818181818,
                "pitch": 31,
                "velocity": 4,
                "duration": 0.4000000000000057,
                "tempo": 120.0
            },
            {
                "start_time": 41.38181818181818,
                "end_time": 41.78181818181818,
                "pitch": 22,
                "velocity": 4,
                "duration": 0.3999999999999986,
                "tempo": 120.0
            },
            {
                "start_time": 41.78181818181818,
                "end_time": 42.18181818181818,
                "pitch": 31,
                "velocity": 4,
                "duration": 0.3999999999999986,
                "tempo": 120.0
            },
            {
                "start_time": 42.18181818181818,
                "end_time": 42.38181818181818,
                "pitch": 39,
                "velocity": 4,
                "duration": 0.20000000000000284,
                "tempo": 120.0
            },
            {
                "start_time": 42.38181818181818,
                "end_time": 42.97727272727273,
                "pitch": 32,
                "velocity": 4,
                "duration": 0.5954545454545439,
                "tempo": 120.0
            },
            {
                "start_time": 42.97727272727273,
                "end_time": 43.17727272727272,
                "pitch": 39,
                "velocity": 4,
                "duration": 0.19999999999999574,
                "tempo": 120.0
            },
            {
                "start_time": 43.17727272727272,
                "end_time": 43.75909090909091,
                "pitch": 32,
                "velocity": 4,
                "duration": 0.5818181818181856,
                "tempo": 120.0
            },
            {
                "start_time": 43.75909090909091,
                "end_time": 44.15,
                "pitch": 38,
                "velocity": 4,
                "duration": 0.39090909090909065,
                "tempo": 120.0
            },
            {
                "start_time": 44.15,
                "end_time": 44.80227272727272,
                "pitch": 22,
                "velocity": 4,
                "duration": 0.6522727272727238,
                "tempo": 120.0
            },
            {
                "start_time": 44.80227272727272,
                "end_time": 44.99090909090909,
                "pitch": 18,
                "velocity": 4,
                "duration": 0.1886363636363697,
                "tempo": 120.0
            },
            {
                "start_time": 44.99090909090909,
                "end_time": 45.090909090909086,
                "pitch": 27,
                "velocity": 4,
                "duration": 0.09999999999999432,
                "tempo": 120.0
            },
            {
                "start_time": 45.090909090909086,
                "end_time": 45.39090909090909,
                "pitch": 75,
                "velocity": 4,
                "duration": 0.30000000000000426,
                "tempo": 120.0
            },
            {
                "start_time": 45.39090909090909,
                "end_time": 45.590909090909086,
                "pitch": 19,
                "velocity": 4,
                "duration": 0.19999999999999574,
                "tempo": 120.0
            },
            {
                "start_time": 45.590909090909086,
                "end_time": 45.69090909090909,
                "pitch": 27,
                "velocity": 4,
                "duration": 0.10000000000000142,
                "tempo": 120.0
            },
            {
                "start_time": 45.69090909090909,
                "end_time": 45.79090909090909,
                "pitch": 75,
                "velocity": 4,
                "duration": 0.10000000000000142,
                "tempo": 120.0
            },
            {
                "start_time": 45.79090909090909,
                "end_time": 46.19090909090909,
                "pitch": 27,
                "velocity": 4,
                "duration": 0.3999999999999986,
                "tempo": 120.0
            },
            {
                "start_time": 46.19090909090909,
                "end_time": 46.59318181818182,
                "pitch": 18,
                "velocity": 4,
                "duration": 0.4022727272727309,
                "tempo": 120.0
            },
            {
                "start_time": 46.59318181818182,
                "end_time": 46.69318181818181,
                "pitch": 27,
                "velocity": 4,
                "duration": 0.09999999999999432,
                "tempo": 120.0
            },
            {
                "start_time": 46.69318181818181,
                "end_time": 46.99318181818182,
                "pitch": 75,
                "velocity": 4,
                "duration": 0.30000000000000426,
                "tempo": 120.0
            },
            {
                "start_time": 46.99318181818182,
                "end_time": 47.19318181818181,
                "pitch": 19,
                "velocity": 4,
                "duration": 0.19999999999999574,
                "tempo": 120.0
            },
            {
                "start_time": 47.19318181818181,
                "end_time": 47.293181818181814,
                "pitch": 27,
                "velocity": 4,
                "duration": 0.10000000000000142,
                "tempo": 120.0
            },
            {
                "start_time": 47.293181818181814,
                "end_time": 47.393181818181816,
                "pitch": 75,
                "velocity": 4,
                "duration": 0.10000000000000142,
                "tempo": 120.0
            },
            {
                "start_time": 47.393181818181816,
                "end_time": 47.793181818181814,
                "pitch": 27,
                "velocity": 4,
                "duration": 0.3999999999999986,
                "tempo": 120.0
            },
            {
                "start_time": 47.793181818181814,
                "end_time": 48.19318181818181,
                "pitch": 18,
                "velocity": 4,
                "duration": 0.3999999999999986,
                "tempo": 120.0
            },
            {
                "start_time": 48.19318181818181,
                "end_time": 48.293181818181814,
                "pitch": 27,
                "velocity": 4,
                "duration": 0.10000000000000142,
                "tempo": 120.0
            },
            {
                "start_time": 48.293181818181814,
                "end_time": 48.595454545454544,
                "pitch": 75,
                "velocity": 4,
                "duration": 0.30227272727272947,
                "tempo": 120.0
            },
            {
                "start_time": 48.595454545454544,
                "end_time": 48.79545454545454,
                "pitch": 19,
                "velocity": 4,
                "duration": 0.19999999999999574,
                "tempo": 120.0
            },
            {
                "start_time": 48.79545454545454,
                "end_time": 48.89545454545454,
                "pitch": 27,
                "velocity": 4,
                "duration": 0.10000000000000142,
                "tempo": 120.0
            },
            {
                "start_time": 48.89545454545454,
                "end_time": 48.99545454545454,
                "pitch": 75,
                "velocity": 4,
                "duration": 0.10000000000000142,
                "tempo": 120.0
            },
            {
                "start_time": 48.99545454545454,
                "end_time": 49.179545454545455,
                "pitch": 27,
                "velocity": 4,
                "duration": 0.1840909090909122,
                "tempo": 120.0
            },
            {
                "start_time": 49.179545454545455,
                "end_time": 49.39545454545454,
                "pitch": 63,
                "velocity": 4,
                "duration": 0.2159090909090864,
                "tempo": 120.0
            },
            {
                "start_time": 49.39545454545454,
                "end_time": 49.79545454545454,
                "pitch": 54,
                "velocity": 4,
                "duration": 0.3999999999999986,
                "tempo": 120.0
            },
            {
                "start_time": 49.79545454545454,
                "end_time": 49.89545454545454,
                "pitch": 63,
                "velocity": 4,
                "duration": 0.10000000000000142,
                "tempo": 120.0
            },
            {
                "start_time": 49.89545454545454,
                "end_time": 50.195454545454545,
                "pitch": 47,
                "velocity": 4,
                "duration": 0.30000000000000426,
                "tempo": 120.0
            },
            {
                "start_time": 50.195454545454545,
                "end_time": 50.39772727272727,
                "pitch": 56,
                "velocity": 4,
                "duration": 0.20227272727272805,
                "tempo": 120.0
            },
            {
                "start_time": 50.39772727272727,
                "end_time": 50.49772727272727,
                "pitch": 63,
                "velocity": 4,
                "duration": 0.09999999999999432,
                "tempo": 120.0
            },
            {
                "start_time": 50.49772727272727,
                "end_time": 50.599999999999994,
                "pitch": 47,
                "velocity": 4,
                "duration": 0.10227272727272663,
                "tempo": 120.0
            },
            {
                "start_time": 50.599999999999994,
                "end_time": 51.0,
                "pitch": 63,
                "velocity": 4,
                "duration": 0.4000000000000057,
                "tempo": 120.0
            },
            {
                "start_time": 51.0,
                "end_time": 51.4,
                "pitch": 54,
                "velocity": 4,
                "duration": 0.3999999999999986,
                "tempo": 120.0
            },
            {
                "start_time": 51.4,
                "end_time": 51.5,
                "pitch": 63,
                "velocity": 4,
                "duration": 0.10000000000000142,
                "tempo": 120.0
            },
            {
                "start_time": 51.5,
                "end_time": 51.8,
                "pitch": 47,
                "velocity": 4,
                "duration": 0.29999999999999716,
                "tempo": 120.0
            },
            {
                "start_time": 51.8,
                "end_time": 52.0,
                "pitch": 56,
                "velocity": 4,
                "duration": 0.20000000000000284,
                "tempo": 120.0
            },
            {
                "start_time": 52.0,
                "end_time": 52.099999999999994,
                "pitch": 63,
                "velocity": 4,
                "duration": 0.09999999999999432,
                "tempo": 120.0
            },
            {
                "start_time": 52.099999999999994,
                "end_time": 52.199999999999996,
                "pitch": 47,
                "velocity": 4,
                "duration": 0.10000000000000142,
                "tempo": 120.0
            },
            {
                "start_time": 52.199999999999996,
                "end_time": 52.60227272727273,
                "pitch": 63,
                "velocity": 4,
                "duration": 0.4022727272727309,
                "tempo": 120.0
            },
            {
                "start_time": 52.60227272727273,
                "end_time": 53.002272727272725,
                "pitch": 54,
                "velocity": 4,
                "duration": 0.3999999999999986,
                "tempo": 120.0
            },
            {
                "start_time": 53.002272727272725,
                "end_time": 53.10227272727273,
                "pitch": 63,
                "velocity": 4,
                "duration": 0.10000000000000142,
                "tempo": 120.0
            },
            {
                "start_time": 53.10227272727273,
                "end_time": 53.402272727272724,
                "pitch": 47,
                "velocity": 4,
                "duration": 0.29999999999999716,
                "tempo": 120.0
            },
            {
                "start_time": 53.402272727272724,
                "end_time": 53.60227272727273,
                "pitch": 56,
                "velocity": 4,
                "duration": 0.20000000000000284,
                "tempo": 120.0
            },
            {
                "start_time": 53.60227272727273,
                "end_time": 53.70227272727273,
                "pitch": 63,
                "velocity": 4,
                "duration": 0.10000000000000142,
                "tempo": 120.0
            },
            {
                "start_time": 53.70227272727273,
                "end_time": 53.80227272727272,
                "pitch": 47,
                "velocity": 4,
                "duration": 0.09999999999999432,
                "tempo": 120.0
            },
            {
                "start_time": 53.80227272727272,
                "end_time": 53.81818181818181,
                "pitch": 63,
                "velocity": 4,
                "duration": 0.01590909090909065,
                "tempo": 120.0
            },
            {
                "start_time": 53.81818181818181,
                "end_time": 54.20227272727273,
                "pitch": 29,
                "velocity": 4,
                "duration": 0.38409090909091503,
                "tempo": 120.0
            },
            {
                "start_time": 54.20227272727273,
                "end_time": 54.60454545454545,
                "pitch": 20,
                "velocity": 4,
                "duration": 0.4022727272727238,
                "tempo": 120.0
            },
            {
                "start_time": 54.60454545454545,
                "end_time": 55.00454545454545,
                "pitch": 30,
                "velocity": 4,
                "duration": 0.3999999999999986,
                "tempo": 120.0
            },
            {
                "start_time": 55.00454545454545,
                "end_time": 55.20454545454545,
                "pitch": 37,
                "velocity": 4,
                "duration": 0.20000000000000284,
                "tempo": 120.0
            },
            {
                "start_time": 55.20454545454545,
                "end_time": 55.804545454545455,
                "pitch": 30,
                "velocity": 4,
                "duration": 0.6000000000000014,
                "tempo": 120.0
            },
            {
                "start_time": 55.804545454545455,
                "end_time": 56.0,
                "pitch": 37,
                "velocity": 4,
                "duration": 0.19545454545454533,
                "tempo": 120.0
            },
            {
                "start_time": 56.0,
                "end_time": 56.57954545454545,
                "pitch": 30,
                "velocity": 4,
                "duration": 0.5795454545454533,
                "tempo": 120.0
            },
            {
                "start_time": 56.57954545454545,
                "end_time": 56.99772727272727,
                "pitch": 36,
                "velocity": 4,
                "duration": 0.41818181818181444,
                "tempo": 120.0
            },
            {
                "start_time": 56.99772727272727,
                "end_time": 57.45681818181818,
                "pitch": 20,
                "velocity": 4,
                "duration": 0.45909090909091077,
                "tempo": 120.0
            },
            {
                "start_time": 57.45681818181818,
                "end_time": 57.79090909090909,
                "pitch": 51,
                "velocity": 4,
                "duration": 0.33409090909091077,
                "tempo": 120.0
            }
        ]
    }
}