{
    "track_id": "Wonder Boy III (FM) - 07 - Mind of Hero",
    "mood": "angry",
    "instruments": {
        "Acoustic Bass": [
            {
                "start_time": 0.23409090909090907,
                "end_time": 0.3,
                "pitch": 43,
                "velocity": 80,
                "duration": 0.06590909090909092,
                "tempo": 120.0
            },
            {
                "start_time": 0.4340909090909091,
                "end_time": 0.5977272727272727,
                "pitch": 33,
                "velocity": 80,
                "duration": 0.16363636363636358,
                "tempo": 120.0
            },
            {
                "start_time": 0.65,
                "end_time": 0.7227272727272727,
                "pitch": 45,
                "velocity": 80,
                "duration": 0.07272727272727264,
                "tempo": 120.0
            },
            {
                "start_time": 0.8659090909090909,
                "end_time": 1.0,
                "pitch": 34,
                "velocity": 80,
                "duration": 0.13409090909090915,
                "tempo": 120.0
            },
            {
                "start_time": 1.065909090909091,
                "end_time": 1.1318181818181818,
                "pitch": 46,
                "velocity": 80,
                "duration": 0.06590909090909092,
                "tempo": 120.0
            },
            {
                "start_time": 1.2659090909090909,
                "end_time": 1.4159090909090908,
                "pitch": 36,
                "velocity": 80,
                "duration": 0.1499999999999999,
                "tempo": 120.0
            },
            {
                "start_time": 1.4659090909090908,
                "end_time": 1.5318181818181817,
                "pitch": 48,
                "velocity": 80,
                "duration": 0.06590909090909092,
                "tempo": 120.0
            },
            {
                "start_time": 1.6659090909090908,
                "end_time": 1.815909090909091,
                "pitch": 31,
                "velocity": 80,
                "duration": 0.15000000000000013,
                "tempo": 120.0
            },
            {
                "start_time": 1.8659090909090907,
                "end_time": 1.95,
                "pitch": 43,
                "velocity": 80,
                "duration": 0.08409090909090922,
                "tempo": 120.0
            },
            {
                "start_time": 2.065909090909091,
                "end_time": 2.2204545454545452,
                "pitch": 33,
                "velocity": 80,
                "duration": 0.15454545454545432,
                "tempo": 120.0
            },
            {
                "start_time": 2.2704545454545455,
                "end_time": 2.356818181818182,
                "pitch": 45,
                "velocity": 80,
                "duration": 0.08636363636363642,
                "tempo": 120.0
            },
            {
                "start_time": 2.477272727272727,
                "end_time": 2.6227272727272726,
                "pitch": 34,
                "velocity": 80,
                "duration": 0.1454545454545455,
                "tempo": 120.0
            },
            {
                "start_time": 2.6727272727272724,
                "end_time": 2.7545454545454544,
                "pitch": 46,
                "velocity": 80,
                "duration": 0.08181818181818201,
                "tempo": 120.0
            },
            {
                "start_time": 2.868181818181818,
                "end_time": 3.0227272727272725,
                "pitch": 36,
                "velocity": 80,
                "duration": 0.15454545454545432,
                "tempo": 120.0
            },
            {
                "start_time": 3.0749999999999997,
                "end_time": 3.143181818181818,
                "pitch": 48,
                "velocity": 80,
                "duration": 0.06818181818181834,
                "tempo": 120.0
            },
            {
                "start_time": 3.2840909090909087,
                "end_time": 3.4159090909090906,
                "pitch": 31,
                "velocity": 80,
                "duration": 0.13181818181818183,
                "tempo": 120.0
            },
            {
                "start_time": 3.484090909090909,
                "end_time": 3.55,
                "pitch": 43,
                "velocity": 80,
                "duration": 0.06590909090909092,
                "tempo": 120.0
            },
            {
                "start_time": 3.684090909090909,
                "end_time": 3.818181818181818,
                "pitch": 33,
                "velocity": 80,
                "duration": 0.13409090909090882,
                "tempo": 120.0
            },
            {
                "start_time": 3.884090909090909,
                "end_time": 3.952272727272727,
                "pitch": 45,
                "velocity": 80,
                "duration": 0.06818181818181834,
                "tempo": 120.0
            },
            {
                "start_time": 4.084090909090909,
                "end_time": 4.218181818181818,
                "pitch": 34,
                "velocity": 80,
                "duration": 0.13409090909090882,
                "tempo": 120.0
            },
            {
                "start_time": 4.284090909090909,
                "end_time": 4.352272727272727,
                "pitch": 46,
                "velocity": 80,
                "duration": 0.06818181818181746,
                "tempo": 120.0
            },
            {
                "start_time": 4.4840909090909085,
                "end_time": 4.618181818181818,
                "pitch": 36,
                "velocity": 80,
                "duration": 0.1340909090909097,
                "tempo": 120.0
            },
            {
                "start_time": 4.6863636363636365,
                "end_time": 4.752272727272727,
                "pitch": 48,
                "velocity": 80,
                "duration": 0.06590909090909047,
                "tempo": 120.0
            },
            {
                "start_time": 4.886363636363636,
                "end_time": 5.018181818181818,
                "pitch": 31,
                "velocity": 80,
                "duration": 0.13181818181818183,
                "tempo": 120.0
            },
            {
                "start_time": 5.084090909090909,
                "end_time": 5.1477272727272725,
                "pitch": 43,
                "velocity": 80,
                "duration": 0.06363636363636349,
                "tempo": 120.0
            },
            {
                "start_time": 5.279545454545454,
                "end_time": 5.415909090909091,
                "pitch": 33,
                "velocity": 80,
                "duration": 0.1363636363636367,
                "tempo": 120.0
            },
            {
                "start_time": 5.4840909090909085,
                "end_time": 5.554545454545455,
                "pitch": 45,
                "velocity": 80,
                "duration": 0.07045454545454621,
                "tempo": 120.0
            },
            {
                "start_time": 5.6909090909090905,
                "end_time": 5.822727272727272,
                "pitch": 34,
                "velocity": 80,
                "duration": 0.13181818181818183,
                "tempo": 120.0
            },
            {
                "start_time": 5.890909090909091,
                "end_time": 5.956818181818181,
                "pitch": 46,
                "velocity": 80,
                "duration": 0.06590909090909047,
                "tempo": 120.0
            },
            {
                "start_time": 6.090909090909091,
                "end_time": 6.225,
                "pitch": 36,
                "velocity": 80,
                "duration": 0.13409090909090882,
                "tempo": 120.0
            },
            {
                "start_time": 6.293181818181818,
                "end_time": 6.3590909090909085,
                "pitch": 48,
                "velocity": 80,
                "duration": 0.06590909090909047,
                "tempo": 120.0
            },
            {
                "start_time": 6.49090909090909,
                "end_time": 6.622727272727272,
                "pitch": 39,
                "velocity": 80,
                "duration": 0.13181818181818183,
                "tempo": 120.0
            },
            {
                "start_time": 6.6886363636363635,
                "end_time": 6.754545454545454,
                "pitch": 51,
                "velocity": 80,
                "duration": 0.06590909090909047,
                "tempo": 120.0
            },
            {
                "start_time": 6.886363636363636,
                "end_time": 7.0227272727272725,
                "pitch": 38,
                "velocity": 80,
                "duration": 0.1363636363636367,
                "tempo": 120.0
            },
            {
                "start_time": 7.090909090909091,
                "end_time": 7.159090909090909,
                "pitch": 50,
                "velocity": 80,
                "duration": 0.06818181818181834,
                "tempo": 120.0
            },
            {
                "start_time": 7.295454545454545,
                "end_time": 7.429545454545454,
                "pitch": 36,
                "velocity": 80,
                "duration": 0.13409090909090882,
                "tempo": 120.0
            },
            {
                "start_time": 7.497727272727272,
                "end_time": 7.5636363636363635,
                "pitch": 48,
                "velocity": 80,
                "duration": 0.06590909090909136,
                "tempo": 120.0
            },
            {
                "start_time": 7.699999999999999,
                "end_time": 7.831818181818181,
                "pitch": 34,
                "velocity": 80,
                "duration": 0.13181818181818183,
                "tempo": 120.0
            },
            {
                "start_time": 7.8999999999999995,
                "end_time": 7.965909090909091,
                "pitch": 46,
                "velocity": 80,
                "duration": 0.06590909090909136,
                "tempo": 120.0
            },
            {
                "start_time": 8.097727272727273,
                "end_time": 8.229545454545454,
                "pitch": 39,
                "velocity": 80,
                "duration": 0.13181818181818095,
                "tempo": 120.0
            },
            {
                "start_time": 8.295454545454545,
                "end_time": 8.35909090909091,
                "pitch": 51,
                "velocity": 80,
                "duration": 0.06363636363636438,
                "tempo": 120.0
            },
            {
                "start_time": 8.49090909090909,
                "end_time": 8.627272727272727,
                "pitch": 38,
                "velocity": 80,
                "duration": 0.1363636363636367,
                "tempo": 120.0
            },
            {
                "start_time": 8.695454545454545,
                "end_time": 8.76590909090909,
                "pitch": 50,
                "velocity": 80,
                "duration": 0.07045454545454533,
                "tempo": 120.0
            },
            {
                "start_time": 8.902272727272727,
                "end_time": 9.036363636363635,
                "pitch": 36,
                "velocity": 80,
                "duration": 0.13409090909090793,
                "tempo": 120.0
            },
            {
                "start_time": 9.104545454545454,
                "end_time": 9.170454545454545,
                "pitch": 48,
                "velocity": 80,
                "duration": 0.06590909090909136,
                "tempo": 120.0
            },
            {
                "start_time": 9.302272727272728,
                "end_time": 9.436363636363636,
                "pitch": 34,
                "velocity": 80,
                "duration": 0.13409090909090793,
                "tempo": 120.0
            },
            {
                "start_time": 9.504545454545454,
                "end_time": 9.572727272727272,
                "pitch": 46,
                "velocity": 80,
                "duration": 0.06818181818181834,
                "tempo": 120.0
            },
            {
                "start_time": 9.706818181818182,
                "end_time": 9.84090909090909,
                "pitch": 38,
                "velocity": 80,
                "duration": 0.13409090909090793,
                "tempo": 120.0
            },
            {
                "start_time": 9.909090909090908,
                "end_time": 9.975,
                "pitch": 50,
                "velocity": 80,
                "duration": 0.06590909090909136,
                "tempo": 120.0
            },
            {
                "start_time": 10.10909090909091,
                "end_time": 10.243181818181817,
                "pitch": 36,
                "velocity": 80,
                "duration": 0.13409090909090793,
                "tempo": 120.0
            },
            {
                "start_time": 10.309090909090909,
                "end_time": 10.377272727272727,
                "pitch": 48,
                "velocity": 80,
                "duration": 0.06818181818181834,
                "tempo": 120.0
            },
            {
                "start_time": 10.509090909090908,
                "end_time": 10.645454545454545,
                "pitch": 34,
                "velocity": 80,
                "duration": 0.1363636363636367,
                "tempo": 120.0
            },
            {
                "start_time": 10.711363636363636,
                "end_time": 10.779545454545454,
                "pitch": 46,
                "velocity": 80,
                "duration": 0.06818181818181834,
                "tempo": 120.0
            },
            {
                "start_time": 10.913636363636362,
                "end_time": 11.047727272727272,
                "pitch": 33,
                "velocity": 80,
                "duration": 0.1340909090909097,
                "tempo": 120.0
            },
            {
                "start_time": 11.113636363636363,
                "end_time": 11.181818181818182,
                "pitch": 45,
                "velocity": 80,
                "duration": 0.06818181818181834,
                "tempo": 120.0
            },
            {
                "start_time": 11.31590909090909,
                "end_time": 11.45,
                "pitch": 38,
                "velocity": 80,
                "duration": 0.1340909090909097,
                "tempo": 120.0
            },
            {
                "start_time": 11.51590909090909,
                "end_time": 11.584090909090909,
                "pitch": 50,
                "velocity": 80,
                "duration": 0.06818181818181834,
                "tempo": 120.0
            },
            {
                "start_time": 11.718181818181817,
                "end_time": 11.852272727272727,
                "pitch": 36,
                "velocity": 80,
                "duration": 0.1340909090909097,
                "tempo": 120.0
            },
            {
                "start_time": 11.920454545454545,
                "end_time": 11.986363636363636,
                "pitch": 48,
                "velocity": 80,
                "duration": 0.06590909090909136,
                "tempo": 120.0
            },
            {
                "start_time": 12.120454545454544,
                "end_time": 12.254545454545454,
                "pitch": 34,
                "velocity": 80,
                "duration": 0.1340909090909097,
                "tempo": 120.0
            },
            {
                "start_time": 12.320454545454545,
                "end_time": 12.388636363636364,
                "pitch": 46,
                "velocity": 80,
                "duration": 0.06818181818181834,
                "tempo": 120.0
            },
            {
                "start_time": 12.520454545454545,
                "end_time": 12.654545454545454,
                "pitch": 33,
                "velocity": 80,
                "duration": 0.1340909090909097,
                "tempo": 120.0
            },
            {
                "start_time": 12.722727272727273,
                "end_time": 12.788636363636362,
                "pitch": 45,
                "velocity": 80,
                "duration": 0.06590909090908958,
                "tempo": 120.0
            },
            {
                "start_time": 12.922727272727272,
                "end_time": 13.059090909090909,
                "pitch": 31,
                "velocity": 80,
                "duration": 0.1363636363636367,
                "tempo": 120.0
            },
            {
                "start_time": 13.125,
                "end_time": 13.193181818181818,
                "pitch": 43,
                "velocity": 80,
                "duration": 0.06818181818181834,
                "tempo": 120.0
            },
            {
                "start_time": 13.327272727272726,
                "end_time": 13.461363636363636,
                "pitch": 33,
                "velocity": 80,
                "duration": 0.1340909090909097,
                "tempo": 120.0
            },
            {
                "start_time": 13.527272727272727,
                "end_time": 13.595454545454546,
                "pitch": 45,
                "velocity": 80,
                "duration": 0.06818181818181834,
                "tempo": 120.0
            },
            {
                "start_time": 13.729545454545454,
                "end_time": 13.863636363636363,
                "pitch": 34,
                "velocity": 80,
                "duration": 0.1340909090909097,
                "tempo": 120.0
            },
            {
                "start_time": 13.929545454545455,
                "end_time": 13.997727272727271,
                "pitch": 46,
                "velocity": 80,
                "duration": 0.06818181818181657,
                "tempo": 120.0
            },
            {
                "start_time": 14.131818181818181,
                "end_time": 14.26590909090909,
                "pitch": 36,
                "velocity": 80,
                "duration": 0.1340909090909097,
                "tempo": 120.0
            },
            {
                "start_time": 14.33181818181818,
                "end_time": 14.397727272727272,
                "pitch": 48,
                "velocity": 80,
                "duration": 0.06590909090909136,
                "tempo": 120.0
            },
            {
                "start_time": 14.531818181818181,
                "end_time": 14.661363636363635,
                "pitch": 31,
                "velocity": 80,
                "duration": 0.12954545454545396,
                "tempo": 120.0
            },
            {
                "start_time": 14.727272727272727,
                "end_time": 14.793181818181818,
                "pitch": 43,
                "velocity": 80,
                "duration": 0.06590909090909136,
                "tempo": 120.0
            },
            {
                "start_time": 14.924999999999999,
                "end_time": 15.061363636363636,
                "pitch": 33,
                "velocity": 80,
                "duration": 0.1363636363636367,
                "tempo": 120.0
            },
            {
                "start_time": 15.129545454545454,
                "end_time": 15.197727272727272,
                "pitch": 45,
                "velocity": 80,
                "duration": 0.06818181818181834,
                "tempo": 120.0
            },
            {
                "start_time": 15.334090909090909,
                "end_time": 15.468181818181817,
                "pitch": 34,
                "velocity": 80,
                "duration": 0.13409090909090793,
                "tempo": 120.0
            },
            {
                "start_time": 15.536363636363635,
                "end_time": 15.604545454545454,
                "pitch": 46,
                "velocity": 80,
                "duration": 0.06818181818181834,
                "tempo": 120.0
            },
            {
                "start_time": 15.738636363636363,
                "end_time": 15.886363636363635,
                "pitch": 36,
                "velocity": 80,
                "duration": 0.1477272727272716,
                "tempo": 120.0
            },
            {
                "start_time": 15.936363636363636,
                "end_time": 16.004545454545454,
                "pitch": 48,
                "velocity": 80,
                "duration": 0.06818181818181834,
                "tempo": 120.0
            },
            {
                "start_time": 16.14090909090909,
                "end_time": 16.272727272727273,
                "pitch": 31,
                "velocity": 80,
                "duration": 0.13181818181818272,
                "tempo": 120.0
            },
            {
                "start_time": 16.34090909090909,
                "end_time": 16.40681818181818,
                "pitch": 43,
                "velocity": 80,
                "duration": 0.06590909090909136,
                "tempo": 120.0
            },
            {
                "start_time": 16.54090909090909,
                "end_time": 16.675,
                "pitch": 33,
                "velocity": 80,
                "duration": 0.13409090909091148,
                "tempo": 120.0
            },
            {
                "start_time": 16.74090909090909,
                "end_time": 16.80909090909091,
                "pitch": 45,
                "velocity": 80,
                "duration": 0.06818181818182012,
                "tempo": 120.0
            },
            {
                "start_time": 16.943181818181817,
                "end_time": 17.077272727272728,
                "pitch": 34,
                "velocity": 80,
                "duration": 0.13409090909091148,
                "tempo": 120.0
            },
            {
                "start_time": 17.143181818181816,
                "end_time": 17.209090909090907,
                "pitch": 46,
                "velocity": 80,
                "duration": 0.06590909090909136,
                "tempo": 120.0
            },
            {
                "start_time": 17.34318181818182,
                "end_time": 17.477272727272727,
                "pitch": 36,
                "velocity": 80,
                "duration": 0.13409090909090793,
                "tempo": 120.0
            },
            {
                "start_time": 17.543181818181818,
                "end_time": 17.60909090909091,
                "pitch": 48,
                "velocity": 80,
                "duration": 0.06590909090909136,
                "tempo": 120.0
            },
            {
                "start_time": 17.743181818181817,
                "end_time": 17.87272727272727,
                "pitch": 31,
                "velocity": 80,
                "duration": 0.12954545454545396,
                "tempo": 120.0
            },
            {
                "start_time": 17.938636363636363,
                "end_time": 18.004545454545454,
                "pitch": 43,
                "velocity": 80,
                "duration": 0.06590909090909136,
                "tempo": 120.0
            },
            {
                "start_time": 18.136363636363637,
                "end_time": 18.272727272727273,
                "pitch": 33,
                "velocity": 80,
                "duration": 0.1363636363636367,
                "tempo": 120.0
            },
            {
                "start_time": 18.34090909090909,
                "end_time": 18.409090909090907,
                "pitch": 45,
                "velocity": 80,
                "duration": 0.06818181818181657,
                "tempo": 120.0
            },
            {
                "start_time": 18.545454545454543,
                "end_time": 18.679545454545455,
                "pitch": 34,
                "velocity": 80,
                "duration": 0.13409090909091148,
                "tempo": 120.0
            },
            {
                "start_time": 18.74772727272727,
                "end_time": 18.813636363636363,
                "pitch": 46,
                "velocity": 80,
                "duration": 0.06590909090909136,
                "tempo": 120.0
            },
            {
                "start_time": 18.95,
                "end_time": 19.081818181818182,
                "pitch": 36,
                "velocity": 80,
                "duration": 0.13181818181818272,
                "tempo": 120.0
            },
            {
                "start_time": 19.15,
                "end_time": 19.21590909090909,
                "pitch": 48,
                "velocity": 80,
                "duration": 0.06590909090909136,
                "tempo": 120.0
            },
            {
                "start_time": 19.347727272727273,
                "end_time": 19.479545454545452,
                "pitch": 39,
                "velocity": 80,
                "duration": 0.13181818181817917,
                "tempo": 120.0
            },
            {
                "start_time": 19.55,
                "end_time": 19.61590909090909,
                "pitch": 51,
                "velocity": 80,
                "duration": 0.06590909090908781,
                "tempo": 120.0
            },
            {
                "start_time": 19.75,
                "end_time": 19.884090909090908,
                "pitch": 38,
                "velocity": 80,
                "duration": 0.13409090909090793,
                "tempo": 120.0
            },
            {
                "start_time": 19.95,
                "end_time": 20.018181818181816,
                "pitch": 50,
                "velocity": 80,
                "duration": 0.06818181818181657,
                "tempo": 120.0
            },
            {
                "start_time": 20.152272727272727,
                "end_time": 20.284090909090907,
                "pitch": 36,
                "velocity": 80,
                "duration": 0.13181818181817917,
                "tempo": 120.0
            },
            {
                "start_time": 20.352272727272727,
                "end_time": 20.418181818181818,
                "pitch": 48,
                "velocity": 80,
                "duration": 0.06590909090909136,
                "tempo": 120.0
            },
            {
                "start_time": 20.552272727272726,
                "end_time": 20.686363636363634,
                "pitch": 34,
                "velocity": 80,
                "duration": 0.13409090909090793,
                "tempo": 120.0
            },
            {
                "start_time": 20.752272727272725,
                "end_time": 20.820454545454545,
                "pitch": 46,
                "velocity": 80,
                "duration": 0.06818181818182012,
                "tempo": 120.0
            },
            {
                "start_time": 20.954545454545453,
                "end_time": 21.08863636363636,
                "pitch": 39,
                "velocity": 80,
                "duration": 0.13409090909090793,
                "tempo": 120.0
            },
            {
                "start_time": 21.154545454545453,
                "end_time": 21.220454545454544,
                "pitch": 51,
                "velocity": 80,
                "duration": 0.06590909090909136,
                "tempo": 120.0
            },
            {
                "start_time": 21.354545454545452,
                "end_time": 21.488636363636363,
                "pitch": 38,
                "velocity": 80,
                "duration": 0.13409090909091148,
                "tempo": 120.0
            },
            {
                "start_time": 21.554545454545455,
                "end_time": 21.620454545454546,
                "pitch": 50,
                "velocity": 80,
                "duration": 0.06590909090909136,
                "tempo": 120.0
            },
            {
                "start_time": 21.754545454545454,
                "end_time": 21.888636363636362,
                "pitch": 36,
                "velocity": 80,
                "duration": 0.13409090909090793,
                "tempo": 120.0
            },
            {
                "start_time": 21.956818181818182,
                "end_time": 22.022727272727273,
                "pitch": 48,
                "velocity": 80,
                "duration": 0.06590909090909136,
                "tempo": 120.0
            },
            {
                "start_time": 22.154545454545453,
                "end_time": 22.288636363636364,
                "pitch": 34,
                "velocity": 80,
                "duration": 0.13409090909091148,
                "tempo": 120.0
            },
            {
                "start_time": 22.354545454545452,
                "end_time": 22.424999999999997,
                "pitch": 46,
                "velocity": 80,
                "duration": 0.07045454545454533,
                "tempo": 120.0
            },
            {
                "start_time": 22.55681818181818,
                "end_time": 22.69090909090909,
                "pitch": 38,
                "velocity": 80,
                "duration": 0.13409090909091148,
                "tempo": 120.0
            },
            {
                "start_time": 22.759090909090908,
                "end_time": 22.825,
                "pitch": 50,
                "velocity": 80,
                "duration": 0.06590909090909136,
                "tempo": 120.0
            },
            {
                "start_time": 22.959090909090907,
                "end_time": 23.09318181818182,
                "pitch": 36,
                "velocity": 80,
                "duration": 0.13409090909091148,
                "tempo": 120.0
            },
            {
                "start_time": 23.159090909090907,
                "end_time": 23.227272727272727,
                "pitch": 48,
                "velocity": 80,
                "duration": 0.06818181818182012,
                "tempo": 120.0
            },
            {
                "start_time": 23.35909090909091,
                "end_time": 23.493181818181817,
                "pitch": 34,
                "velocity": 80,
                "duration": 0.13409090909090793,
                "tempo": 120.0
            },
            {
                "start_time": 23.55909090909091,
                "end_time": 23.627272727272725,
                "pitch": 46,
                "velocity": 80,
                "duration": 0.06818181818181657,
                "tempo": 120.0
            },
            {
                "start_time": 23.759090909090908,
                "end_time": 23.895454545454545,
                "pitch": 33,
                "velocity": 80,
                "duration": 0.1363636363636367,
                "tempo": 120.0
            },
            {
                "start_time": 23.961363636363636,
                "end_time": 24.029545454545453,
                "pitch": 45,
                "velocity": 80,
                "duration": 0.06818181818181657,
                "tempo": 120.0
            },
            {
                "start_time": 24.163636363636364,
                "end_time": 24.295454545454543,
                "pitch": 38,
                "velocity": 80,
                "duration": 0.13181818181817917,
                "tempo": 120.0
            },
            {
                "start_time": 24.363636363636363,
                "end_time": 24.429545454545455,
                "pitch": 50,
                "velocity": 80,
                "duration": 0.06590909090909136,
                "tempo": 120.0
            },
            {
                "start_time": 24.563636363636363,
                "end_time": 24.69772727272727,
                "pitch": 36,
                "velocity": 80,
                "duration": 0.13409090909090793,
                "tempo": 120.0
            },
            {
                "start_time": 24.763636363636362,
                "end_time": 24.831818181818182,
                "pitch": 48,
                "velocity": 80,
                "duration": 0.06818181818182012,
                "tempo": 120.0
            },
            {
                "start_time": 24.96590909090909,
                "end_time": 25.099999999999998,
                "pitch": 34,
                "velocity": 80,
                "duration": 0.13409090909090793,
                "tempo": 120.0
            },
            {
                "start_time": 25.16590909090909,
                "end_time": 25.23181818181818,
                "pitch": 46,
                "velocity": 80,
                "duration": 0.06590909090909136,
                "tempo": 120.0
            },
            {
                "start_time": 25.36590909090909,
                "end_time": 25.5,
                "pitch": 33,
                "velocity": 80,
                "duration": 0.13409090909091148,
                "tempo": 120.0
            },
            {
                "start_time": 25.56590909090909,
                "end_time": 25.63181818181818,
                "pitch": 45,
                "velocity": 80,
                "duration": 0.06590909090908781,
                "tempo": 120.0
            },
            {
                "start_time": 25.76590909090909,
                "end_time": 25.913636363636364,
                "pitch": 36,
                "velocity": 80,
                "duration": 0.14772727272727337,
                "tempo": 120.0
            },
            {
                "start_time": 25.96590909090909,
                "end_time": 26.11590909090909,
                "pitch": 36,
                "velocity": 80,
                "duration": 0.14999999999999858,
                "tempo": 120.0
            },
            {
                "start_time": 26.16590909090909,
                "end_time": 26.31590909090909,
                "pitch": 39,
                "velocity": 80,
                "duration": 0.15000000000000213,
                "tempo": 120.0
            },
            {
                "start_time": 26.36590909090909,
                "end_time": 26.45,
                "pitch": 43,
                "velocity": 80,
                "duration": 0.08409090909091077,
                "tempo": 120.0
            },
            {
                "start_time": 26.768181818181816,
                "end_time": 26.852272727272727,
                "pitch": 43,
                "velocity": 80,
                "duration": 0.08409090909091077,
                "tempo": 120.0
            },
            {
                "start_time": 26.868181818181817,
                "end_time": 26.952272727272724,
                "pitch": 43,
                "velocity": 80,
                "duration": 0.08409090909090722,
                "tempo": 120.0
            },
            {
                "start_time": 26.968181818181815,
                "end_time": 27.118181818181817,
                "pitch": 39,
                "velocity": 80,
                "duration": 0.15000000000000213,
                "tempo": 120.0
            },
            {
                "start_time": 27.168181818181818,
                "end_time": 27.318181818181817,
                "pitch": 36,
                "velocity": 80,
                "duration": 0.14999999999999858,
                "tempo": 120.0
            },
            {
                "start_time": 27.368181818181817,
                "end_time": 27.518181818181816,
                "pitch": 43,
                "velocity": 80,
                "duration": 0.14999999999999858,
                "tempo": 120.0
            },
            {
                "start_time": 27.568181818181817,
                "end_time": 27.718181818181815,
                "pitch": 43,
                "velocity": 80,
                "duration": 0.14999999999999858,
                "tempo": 120.0
            },
            {
                "start_time": 27.768181818181816,
                "end_time": 27.920454545454543,
                "pitch": 46,
                "velocity": 80,
                "duration": 0.15227272727272734,
                "tempo": 120.0
            },
            {
                "start_time": 27.970454545454544,
                "end_time": 28.054545454545455,
                "pitch": 50,
                "velocity": 80,
                "duration": 0.08409090909091077,
                "tempo": 120.0
            },
            {
                "start_time": 28.37272727272727,
                "end_time": 28.440909090909088,
                "pitch": 50,
                "velocity": 80,
                "duration": 0.06818181818181657,
                "tempo": 120.0
            },
            {
                "start_time": 28.472727272727273,
                "end_time": 28.54090909090909,
                "pitch": 50,
                "velocity": 80,
                "duration": 0.06818181818181657,
                "tempo": 120.0
            },
            {
                "start_time": 28.57272727272727,
                "end_time": 28.709090909090907,
                "pitch": 46,
                "velocity": 80,
                "duration": 0.1363636363636367,
                "tempo": 120.0
            },
            {
                "start_time": 28.775,
                "end_time": 28.909090909090907,
                "pitch": 43,
                "velocity": 80,
                "duration": 0.13409090909090793,
                "tempo": 120.0
            },
            {
                "start_time": 28.977272727272727,
                "end_time": 29.577272727272724,
                "pitch": 45,
                "velocity": 80,
                "duration": 0.5999999999999979,
                "tempo": 120.0
            },
            {
                "start_time": 29.777272727272727,
                "end_time": 30.379545454545454,
                "pitch": 38,
                "velocity": 80,
                "duration": 0.6022727272727266,
                "tempo": 120.0
            },
            {
                "start_time": 30.579545454545453,
                "end_time": 30.88181818181818,
                "pitch": 43,
                "velocity": 80,
                "duration": 0.3022727272727259,
                "tempo": 120.0
            },
            {
                "start_time": 30.98181818181818,
                "end_time": 31.28181818181818,
                "pitch": 45,
                "velocity": 80,
                "duration": 0.3000000000000007,
                "tempo": 120.0
            },
            {
                "start_time": 31.38181818181818,
                "end_time": 31.68181818181818,
                "pitch": 46,
                "velocity": 80,
                "duration": 0.3000000000000007,
                "tempo": 120.0
            },
            {
                "start_time": 31.78181818181818,
                "end_time": 32.08409090909091,
                "pitch": 50,
                "velocity": 80,
                "duration": 0.30227272727272947,
                "tempo": 120.0
            },
            {
                "start_time": 32.184090909090905,
                "end_time": 32.33181818181818,
                "pitch": 36,
                "velocity": 80,
                "duration": 0.14772727272727337,
                "tempo": 120.0
            },
            {
                "start_time": 32.38181818181818,
                "end_time": 32.53181818181818,
                "pitch": 36,
                "velocity": 80,
                "duration": 0.14999999999999858,
                "tempo": 120.0
            },
            {
                "start_time": 32.58181818181818,
                "end_time": 32.73181818181818,
                "pitch": 39,
                "velocity": 80,
                "duration": 0.14999999999999858,
                "tempo": 120.0
            },
            {
                "start_time": 32.78181818181818,
                "end_time": 32.86590909090909,
                "pitch": 43,
                "velocity": 80,
                "duration": 0.08409090909091077,
                "tempo": 120.0
            },
            {
                "start_time": 33.184090909090905,
                "end_time": 33.268181818181816,
                "pitch": 43,
                "velocity": 80,
                "duration": 0.08409090909091077,
                "tempo": 120.0
            },
            {
                "start_time": 33.28409090909091,
                "end_time": 33.36818181818182,
                "pitch": 43,
                "velocity": 80,
                "duration": 0.08409090909091077,
                "tempo": 120.0
            },
            {
                "start_time": 33.38636363636363,
                "end_time": 33.53636363636363,
                "pitch": 39,
                "velocity": 80,
                "duration": 0.14999999999999858,
                "tempo": 120.0
            },
            {
                "start_time": 33.586363636363636,
                "end_time": 33.736363636363635,
                "pitch": 36,
                "velocity": 80,
                "duration": 0.14999999999999858,
                "tempo": 120.0
            },
            {
                "start_time": 33.78636363636363,
                "end_time": 33.93636363636364,
                "pitch": 43,
                "velocity": 80,
                "duration": 0.15000000000000568,
                "tempo": 120.0
            },
            {
                "start_time": 33.986363636363635,
                "end_time": 34.13636363636363,
                "pitch": 43,
                "velocity": 80,
                "duration": 0.14999999999999858,
                "tempo": 120.0
            },
            {
                "start_time": 34.18636363636364,
                "end_time": 34.336363636363636,
                "pitch": 46,
                "velocity": 80,
                "duration": 0.14999999999999858,
                "tempo": 120.0
            },
            {
                "start_time": 34.38636363636363,
                "end_time": 34.46818181818182,
                "pitch": 50,
                "velocity": 80,
                "duration": 0.08181818181818556,
                "tempo": 120.0
            },
            {
                "start_time": 34.788636363636364,
                "end_time": 34.85454545454545,
                "pitch": 50,
                "velocity": 80,
                "duration": 0.06590909090908781,
                "tempo": 120.0
            },
            {
                "start_time": 34.888636363636365,
                "end_time": 34.95454545454545,
                "pitch": 50,
                "velocity": 80,
                "duration": 0.06590909090908781,
                "tempo": 120.0
            },
            {
                "start_time": 34.98863636363636,
                "end_time": 35.12272727272727,
                "pitch": 46,
                "velocity": 80,
                "duration": 0.13409090909090793,
                "tempo": 120.0
            },
            {
                "start_time": 35.18863636363636,
                "end_time": 35.32272727272727,
                "pitch": 43,
                "velocity": 80,
                "duration": 0.13409090909090793,
                "tempo": 120.0
            },
            {
                "start_time": 35.39090909090909,
                "end_time": 35.525,
                "pitch": 33,
                "velocity": 80,
                "duration": 0.13409090909090793,
                "tempo": 120.0
            },
            {
                "start_time": 35.590909090909086,
                "end_time": 35.725,
                "pitch": 33,
                "velocity": 80,
                "duration": 0.13409090909091503,
                "tempo": 120.0
            },
            {
                "start_time": 35.79090909090909,
                "end_time": 35.925,
                "pitch": 37,
                "velocity": 80,
                "duration": 0.13409090909090793,
                "tempo": 120.0
            },
            {
                "start_time": 35.99090909090909,
                "end_time": 36.05681818181818,
                "pitch": 40,
                "velocity": 80,
                "duration": 0.06590909090908781,
                "tempo": 120.0
            },
            {
                "start_time": 36.39090909090909,
                "end_time": 36.45681818181818,
                "pitch": 40,
                "velocity": 80,
                "duration": 0.06590909090908781,
                "tempo": 120.0
            },
            {
                "start_time": 36.49090909090909,
                "end_time": 36.55681818181818,
                "pitch": 40,
                "velocity": 80,
                "duration": 0.06590909090908781,
                "tempo": 120.0
            },
            {
                "start_time": 36.590909090909086,
                "end_time": 36.725,
                "pitch": 37,
                "velocity": 80,
                "duration": 0.13409090909091503,
                "tempo": 120.0
            },
            {
                "start_time": 36.79090909090909,
                "end_time": 36.925,
                "pitch": 33,
                "velocity": 80,
                "duration": 0.13409090909090793,
                "tempo": 120.0
            },
            {
                "start_time": 36.99090909090909,
                "end_time": 37.125,
                "pitch": 38,
                "velocity": 80,
                "duration": 0.13409090909090793,
                "tempo": 120.0
            },
            {
                "start_time": 37.19318181818181,
                "end_time": 37.25909090909091,
                "pitch": 50,
                "velocity": 80,
                "duration": 0.06590909090909491,
                "tempo": 120.0
            },
            {
                "start_time": 37.393181818181816,
                "end_time": 37.527272727272724,
                "pitch": 36,
                "velocity": 80,
                "duration": 0.13409090909090793,
                "tempo": 120.0
            },
            {
                "start_time": 37.59318181818182,
                "end_time": 37.65909090909091,
                "pitch": 48,
                "velocity": 80,
                "duration": 0.06590909090908781,
                "tempo": 120.0
            },
            {
                "start_time": 37.793181818181814,
                "end_time": 37.92727272727272,
                "pitch": 34,
                "velocity": 80,
                "duration": 0.13409090909090793,
                "tempo": 120.0
            },
            {
                "start_time": 37.99318181818182,
                "end_time": 38.059090909090905,
                "pitch": 46,
                "velocity": 80,
                "duration": 0.06590909090908781,
                "tempo": 120.0
            },
            {
                "start_time": 38.19318181818181,
                "end_time": 38.32727272727273,
                "pitch": 33,
                "velocity": 80,
                "duration": 0.13409090909091503,
                "tempo": 120.0
            },
            {
                "start_time": 38.393181818181816,
                "end_time": 38.45909090909091,
                "pitch": 45,
                "velocity": 80,
                "duration": 0.06590909090909491,
                "tempo": 120.0
            },
            {
                "start_time": 38.59318181818182,
                "end_time": 38.72727272727273,
                "pitch": 31,
                "velocity": 80,
                "duration": 0.13409090909090793,
                "tempo": 120.0
            },
            {
                "start_time": 38.793181818181814,
                "end_time": 38.92727272727272,
                "pitch": 31,
                "velocity": 80,
                "duration": 0.13409090909090793,
                "tempo": 120.0
            },
            {
                "start_time": 38.99318181818182,
                "end_time": 39.279545454545456,
                "pitch": 38,
                "velocity": 80,
                "duration": 0.2863636363636388,
                "tempo": 120.0
            },
            {
                "start_time": 39.39545454545454,
                "end_time": 39.543181818181814,
                "pitch": 36,
                "velocity": 80,
                "duration": 0.14772727272727337,
                "tempo": 120.0
            },
            {
                "start_time": 39.59318181818182,
                "end_time": 39.74318181818182,
                "pitch": 36,
                "velocity": 80,
                "duration": 0.14999999999999858,
                "tempo": 120.0
            },
            {
                "start_time": 39.793181818181814,
                "end_time": 40.09318181818182,
                "pitch": 43,
                "velocity": 80,
                "duration": 0.30000000000000426,
                "tempo": 120.0
            },
            {
                "start_time": 40.19318181818181,
                "end_time": 41.09772727272727,
                "pitch": 29,
                "velocity": 80,
                "duration": 0.9045454545454561,
                "tempo": 120.0
            },
            {
                "start_time": 41.40454545454545,
                "end_time": 41.55227272727272,
                "pitch": 34,
                "velocity": 80,
                "duration": 0.14772727272727337,
                "tempo": 120.0
            },
            {
                "start_time": 41.6,
                "end_time": 41.74772727272727,
                "pitch": 34,
                "velocity": 80,
                "duration": 0.14772727272726627,
                "tempo": 120.0
            },
            {
                "start_time": 41.79772727272727,
                "end_time": 42.1,
                "pitch": 48,
                "velocity": 80,
                "duration": 0.30227272727272947,
                "tempo": 120.0
            },
            {
                "start_time": 42.199999999999996,
                "end_time": 42.49772727272727,
                "pitch": 50,
                "velocity": 80,
                "duration": 0.29772727272727195,
                "tempo": 120.0
            },
            {
                "start_time": 42.59772727272727,
                "end_time": 42.9,
                "pitch": 51,
                "velocity": 80,
                "duration": 0.30227272727272947,
                "tempo": 120.0
            },
            {
                "start_time": 43.0,
                "end_time": 43.30227272727272,
                "pitch": 48,
                "velocity": 80,
                "duration": 0.30227272727272236,
                "tempo": 120.0
            },
            {
                "start_time": 43.402272727272724,
                "end_time": 43.699999999999996,
                "pitch": 50,
                "velocity": 80,
                "duration": 0.29772727272727195,
                "tempo": 120.0
            },
            {
                "start_time": 43.80227272727272,
                "end_time": 44.10227272727273,
                "pitch": 48,
                "velocity": 80,
                "duration": 0.30000000000000426,
                "tempo": 120.0
            },
            {
                "start_time": 44.20227272727273,
                "end_time": 44.502272727272725,
                "pitch": 46,
                "velocity": 80,
                "duration": 0.29999999999999716,
                "tempo": 120.0
            },
            {
                "start_time": 44.60227272727273,
                "end_time": 44.902272727272724,
                "pitch": 45,
                "velocity": 80,
                "duration": 0.29999999999999716,
                "tempo": 120.0
            },
            {
                "start_time": 45.002272727272725,
                "end_time": 45.13636363636363,
                "pitch": 31,
                "velocity": 80,
                "duration": 0.13409090909090793,
                "tempo": 120.0
            },
            {
                "start_time": 45.20454545454545,
                "end_time": 45.33863636363636,
                "pitch": 31,
                "velocity": 80,
                "duration": 0.13409090909090793,
                "tempo": 120.0
            },
            {
                "start_time": 45.40454545454545,
                "end_time": 45.68863636363636,
                "pitch": 38,
                "velocity": 80,
                "duration": 0.2840909090909136,
                "tempo": 120.0
            },
            {
                "start_time": 45.804545454545455,
                "end_time": 45.95227272727273,
                "pitch": 36,
                "velocity": 80,
                "duration": 0.14772727272727337,
                "tempo": 120.0
            },
            {
                "start_time": 46.002272727272725,
                "end_time": 46.152272727272724,
                "pitch": 36,
                "velocity": 80,
                "duration": 0.14999999999999858,
                "tempo": 120.0
            },
            {
                "start_time": 46.20227272727273,
                "end_time": 46.502272727272725,
                "pitch": 43,
                "velocity": 80,
                "duration": 0.29999999999999716,
                "tempo": 120.0
            },
            {
                "start_time": 46.60227272727273,
                "end_time": 47.50909090909091,
                "pitch": 29,
                "velocity": 80,
                "duration": 0.9068181818181813,
                "tempo": 120.0
            },
            {
                "start_time": 47.81590909090909,
                "end_time": 47.96363636363636,
                "pitch": 34,
                "velocity": 80,
                "duration": 0.14772727272727337,
                "tempo": 120.0
            },
            {
                "start_time": 48.01363636363636,
                "end_time": 48.15909090909091,
                "pitch": 34,
                "velocity": 80,
                "duration": 0.14545454545454817,
                "tempo": 120.0
            },
            {
                "start_time": 48.209090909090904,
                "end_time": 48.35909090909091,
                "pitch": 33,
                "velocity": 80,
                "duration": 0.15000000000000568,
                "tempo": 120.0
            },
            {
                "start_time": 48.40909090909091,
                "end_time": 48.49090909090909,
                "pitch": 45,
                "velocity": 80,
                "duration": 0.08181818181818556,
                "tempo": 120.0
            },
            {
                "start_time": 48.60909090909091,
                "end_time": 48.75909090909091,
                "pitch": 37,
                "velocity": 80,
                "duration": 0.14999999999999858,
                "tempo": 120.0
            },
            {
                "start_time": 48.809090909090905,
                "end_time": 48.89090909090909,
                "pitch": 49,
                "velocity": 80,
                "duration": 0.08181818181818556,
                "tempo": 120.0
            },
            {
                "start_time": 49.00909090909091,
                "end_time": 49.15909090909091,
                "pitch": 40,
                "velocity": 80,
                "duration": 0.14999999999999858,
                "tempo": 120.0
            },
            {
                "start_time": 49.209090909090904,
                "end_time": 49.293181818181814,
                "pitch": 52,
                "velocity": 80,
                "duration": 0.08409090909091077,
                "tempo": 120.0
            },
            {
                "start_time": 49.41136363636363,
                "end_time": 49.56136363636364,
                "pitch": 37,
                "velocity": 80,
                "duration": 0.15000000000000568,
                "tempo": 120.0
            },
            {
                "start_time": 49.611363636363635,
                "end_time": 49.695454545454545,
                "pitch": 49,
                "velocity": 80,
                "duration": 0.08409090909091077,
                "tempo": 120.0
            },
            {
                "start_time": 49.81136363636364,
                "end_time": 49.961363636363636,
                "pitch": 38,
                "velocity": 80,
                "duration": 0.14999999999999858,
                "tempo": 120.0
            },
            {
                "start_time": 50.01136363636363,
                "end_time": 50.07954545454545,
                "pitch": 50,
                "velocity": 80,
                "duration": 0.06818181818182012,
                "tempo": 120.0
            },
            {
                "start_time": 50.21363636363636,
                "end_time": 50.34772727272727,
                "pitch": 36,
                "velocity": 80,
                "duration": 0.13409090909090793,
                "tempo": 120.0
            },
            {
                "start_time": 50.413636363636364,
                "end_time": 50.47954545454545,
                "pitch": 48,
                "velocity": 80,
                "duration": 0.06590909090908781,
                "tempo": 120.0
            },
            {
                "start_time": 50.61363636363636,
                "end_time": 50.74772727272727,
                "pitch": 34,
                "velocity": 80,
                "duration": 0.13409090909090793,
                "tempo": 120.0
            },
            {
                "start_time": 50.81363636363636,
                "end_time": 50.87954545454545,
                "pitch": 46,
                "velocity": 80,
                "duration": 0.06590909090908781,
                "tempo": 120.0
            },
            {
                "start_time": 51.01363636363636,
                "end_time": 51.14772727272727,
                "pitch": 33,
                "velocity": 80,
                "duration": 0.13409090909091503,
                "tempo": 120.0
            },
            {
                "start_time": 51.215909090909086,
                "end_time": 51.28181818181818,
                "pitch": 45,
                "velocity": 80,
                "duration": 0.06590909090909491,
                "tempo": 120.0
            }
        ],
        "Trumpet": [
            {
                "start_time": 0.65,
                "end_time": 1.2659090909090909,
                "pitch": 58,
                "velocity": 51,
                "duration": 0.6159090909090909,
                "tempo": 120.0
            },
            {
                "start_time": 1.8659090909090907,
                "end_time": 1.95,
                "pitch": 58,
                "velocity": 51,
                "duration": 0.08409090909090922,
                "tempo": 120.0
            },
            {
                "start_time": 2.065909090909091,
                "end_time": 2.1522727272727273,
                "pitch": 58,
                "velocity": 51,
                "duration": 0.08636363636363642,
                "tempo": 120.0
            },
            {
                "start_time": 2.2704545454545455,
                "end_time": 2.356818181818182,
                "pitch": 58,
                "velocity": 51,
                "duration": 0.08636363636363642,
                "tempo": 120.0
            },
            {
                "start_time": 2.477272727272727,
                "end_time": 2.559090909090909,
                "pitch": 58,
                "velocity": 51,
                "duration": 0.08181818181818201,
                "tempo": 120.0
            },
            {
                "start_time": 2.6727272727272724,
                "end_time": 2.7545454545454544,
                "pitch": 58,
                "velocity": 51,
                "duration": 0.08181818181818201,
                "tempo": 120.0
            },
            {
                "start_time": 2.868181818181818,
                "end_time": 3.0227272727272725,
                "pitch": 57,
                "velocity": 51,
                "duration": 0.15454545454545432,
                "tempo": 120.0
            },
            {
                "start_time": 3.0749999999999997,
                "end_time": 3.1590909090909087,
                "pitch": 57,
                "velocity": 51,
                "duration": 0.084090909090909,
                "tempo": 120.0
            },
            {
                "start_time": 3.2840909090909087,
                "end_time": 3.3499999999999996,
                "pitch": 58,
                "velocity": 51,
                "duration": 0.06590909090909092,
                "tempo": 120.0
            },
            {
                "start_time": 3.884090909090909,
                "end_time": 4.4840909090909085,
                "pitch": 58,
                "velocity": 51,
                "duration": 0.5999999999999996,
                "tempo": 120.0
            },
            {
                "start_time": 5.084090909090909,
                "end_time": 5.1477272727272725,
                "pitch": 58,
                "velocity": 51,
                "duration": 0.06363636363636349,
                "tempo": 120.0
            },
            {
                "start_time": 5.279545454545454,
                "end_time": 5.347727272727273,
                "pitch": 58,
                "velocity": 51,
                "duration": 0.06818181818181834,
                "tempo": 120.0
            },
            {
                "start_time": 5.4840909090909085,
                "end_time": 5.554545454545455,
                "pitch": 58,
                "velocity": 51,
                "duration": 0.07045454545454621,
                "tempo": 120.0
            },
            {
                "start_time": 5.6909090909090905,
                "end_time": 5.756818181818182,
                "pitch": 58,
                "velocity": 51,
                "duration": 0.06590909090909136,
                "tempo": 120.0
            },
            {
                "start_time": 5.890909090909091,
                "end_time": 5.956818181818181,
                "pitch": 58,
                "velocity": 51,
                "duration": 0.06590909090909047,
                "tempo": 120.0
            },
            {
                "start_time": 6.090909090909091,
                "end_time": 6.156818181818181,
                "pitch": 60,
                "velocity": 51,
                "duration": 0.06590909090909047,
                "tempo": 120.0
            },
            {
                "start_time": 6.293181818181818,
                "end_time": 6.4409090909090905,
                "pitch": 62,
                "velocity": 51,
                "duration": 0.14772727272727249,
                "tempo": 120.0
            },
            {
                "start_time": 6.49090909090909,
                "end_time": 6.572727272727272,
                "pitch": 63,
                "velocity": 51,
                "duration": 0.08181818181818201,
                "tempo": 120.0
            },
            {
                "start_time": 7.090909090909091,
                "end_time": 7.699999999999999,
                "pitch": 63,
                "velocity": 51,
                "duration": 0.6090909090909085,
                "tempo": 120.0
            },
            {
                "start_time": 8.49090909090909,
                "end_time": 8.559090909090909,
                "pitch": 67,
                "velocity": 51,
                "duration": 0.06818181818181834,
                "tempo": 120.0
            },
            {
                "start_time": 8.695454545454545,
                "end_time": 8.834090909090909,
                "pitch": 65,
                "velocity": 51,
                "duration": 0.13863636363636367,
                "tempo": 120.0
            },
            {
                "start_time": 8.902272727272727,
                "end_time": 8.968181818181817,
                "pitch": 63,
                "velocity": 51,
                "duration": 0.06590909090908958,
                "tempo": 120.0
            },
            {
                "start_time": 9.104545454545454,
                "end_time": 9.252272727272727,
                "pitch": 62,
                "velocity": 51,
                "duration": 0.14772727272727337,
                "tempo": 120.0
            },
            {
                "start_time": 9.302272727272728,
                "end_time": 9.386363636363637,
                "pitch": 60,
                "velocity": 51,
                "duration": 0.084090909090909,
                "tempo": 120.0
            },
            {
                "start_time": 9.504545454545454,
                "end_time": 9.64090909090909,
                "pitch": 62,
                "velocity": 51,
                "duration": 0.1363636363636367,
                "tempo": 120.0
            },
            {
                "start_time": 9.706818181818182,
                "end_time": 10.611363636363636,
                "pitch": 62,
                "velocity": 51,
                "duration": 0.9045454545454543,
                "tempo": 120.0
            },
            {
                "start_time": 10.913636363636362,
                "end_time": 11.047727272727272,
                "pitch": 61,
                "velocity": 51,
                "duration": 0.1340909090909097,
                "tempo": 120.0
            },
            {
                "start_time": 11.113636363636363,
                "end_time": 11.181818181818182,
                "pitch": 60,
                "velocity": 51,
                "duration": 0.06818181818181834,
                "tempo": 120.0
            },
            {
                "start_time": 11.21590909090909,
                "end_time": 11.281818181818181,
                "pitch": 59,
                "velocity": 51,
                "duration": 0.06590909090909136,
                "tempo": 120.0
            },
            {
                "start_time": 11.31590909090909,
                "end_time": 12.520454545454545,
                "pitch": 58,
                "velocity": 51,
                "duration": 1.204545454545455,
                "tempo": 120.0
            },
            {
                "start_time": 12.922727272727272,
                "end_time": 12.99090909090909,
                "pitch": 58,
                "velocity": 51,
                "duration": 0.06818181818181834,
                "tempo": 120.0
            },
            {
                "start_time": 13.527272727272727,
                "end_time": 14.131818181818181,
                "pitch": 58,
                "velocity": 51,
                "duration": 0.6045454545454536,
                "tempo": 120.0
            },
            {
                "start_time": 14.727272727272727,
                "end_time": 14.793181818181818,
                "pitch": 58,
                "velocity": 51,
                "duration": 0.06590909090909136,
                "tempo": 120.0
            },
            {
                "start_time": 14.924999999999999,
                "end_time": 14.993181818181817,
                "pitch": 58,
                "velocity": 51,
                "duration": 0.06818181818181834,
                "tempo": 120.0
            },
            {
                "start_time": 15.129545454545454,
                "end_time": 15.197727272727272,
                "pitch": 58,
                "velocity": 51,
                "duration": 0.06818181818181834,
                "tempo": 120.0
            },
            {
                "start_time": 15.334090909090909,
                "end_time": 15.402272727272727,
                "pitch": 58,
                "velocity": 51,
                "duration": 0.06818181818181834,
                "tempo": 120.0
            },
            {
                "start_time": 15.536363636363635,
                "end_time": 15.604545454545454,
                "pitch": 58,
                "velocity": 51,
                "duration": 0.06818181818181834,
                "tempo": 120.0
            },
            {
                "start_time": 15.738636363636363,
                "end_time": 15.886363636363635,
                "pitch": 57,
                "velocity": 51,
                "duration": 0.1477272727272716,
                "tempo": 120.0
            },
            {
                "start_time": 15.936363636363636,
                "end_time": 16.020454545454545,
                "pitch": 57,
                "velocity": 51,
                "duration": 0.084090909090909,
                "tempo": 120.0
            },
            {
                "start_time": 16.14090909090909,
                "end_time": 16.206818181818182,
                "pitch": 58,
                "velocity": 51,
                "duration": 0.06590909090909136,
                "tempo": 120.0
            },
            {
                "start_time": 16.74090909090909,
                "end_time": 17.34318181818182,
                "pitch": 58,
                "velocity": 51,
                "duration": 0.6022727272727302,
                "tempo": 120.0
            },
            {
                "start_time": 17.938636363636363,
                "end_time": 18.004545454545454,
                "pitch": 58,
                "velocity": 51,
                "duration": 0.06590909090909136,
                "tempo": 120.0
            },
            {
                "start_time": 18.136363636363637,
                "end_time": 18.204545454545453,
                "pitch": 58,
                "velocity": 51,
                "duration": 0.06818181818181657,
                "tempo": 120.0
            },
            {
                "start_time": 18.34090909090909,
                "end_time": 18.409090909090907,
                "pitch": 58,
                "velocity": 51,
                "duration": 0.06818181818181657,
                "tempo": 120.0
            },
            {
                "start_time": 18.545454545454543,
                "end_time": 18.613636363636363,
                "pitch": 58,
                "velocity": 51,
                "duration": 0.06818181818182012,
                "tempo": 120.0
            },
            {
                "start_time": 18.74772727272727,
                "end_time": 18.813636363636363,
                "pitch": 58,
                "velocity": 51,
                "duration": 0.06590909090909136,
                "tempo": 120.0
            },
            {
                "start_time": 18.95,
                "end_time": 19.01590909090909,
                "pitch": 60,
                "velocity": 51,
                "duration": 0.06590909090909136,
                "tempo": 120.0
            },
            {
                "start_time": 19.15,
                "end_time": 19.297727272727272,
                "pitch": 62,
                "velocity": 51,
                "duration": 0.14772727272727337,
                "tempo": 120.0
            },
            {
                "start_time": 19.347727272727273,
                "end_time": 19.429545454545455,
                "pitch": 63,
                "velocity": 51,
                "duration": 0.08181818181818201,
                "tempo": 120.0
            },
            {
                "start_time": 19.95,
                "end_time": 20.552272727272726,
                "pitch": 63,
                "velocity": 51,
                "duration": 0.6022727272727266,
                "tempo": 120.0
            },
            {
                "start_time": 21.354545454545452,
                "end_time": 21.420454545454543,
                "pitch": 67,
                "velocity": 51,
                "duration": 0.06590909090909136,
                "tempo": 120.0
            },
            {
                "start_time": 21.554545454545455,
                "end_time": 21.688636363636363,
                "pitch": 65,
                "velocity": 51,
                "duration": 0.13409090909090793,
                "tempo": 120.0
            },
            {
                "start_time": 21.754545454545454,
                "end_time": 21.82272727272727,
                "pitch": 63,
                "velocity": 51,
                "duration": 0.06818181818181657,
                "tempo": 120.0
            },
            {
                "start_time": 21.956818181818182,
                "end_time": 22.104545454545452,
                "pitch": 62,
                "velocity": 51,
                "duration": 0.14772727272726982,
                "tempo": 120.0
            },
            {
                "start_time": 22.154545454545453,
                "end_time": 22.238636363636363,
                "pitch": 60,
                "velocity": 51,
                "duration": 0.08409090909091077,
                "tempo": 120.0
            },
            {
                "start_time": 22.354545454545452,
                "end_time": 22.49090909090909,
                "pitch": 62,
                "velocity": 51,
                "duration": 0.1363636363636367,
                "tempo": 120.0
            },
            {
                "start_time": 22.55681818181818,
                "end_time": 23.459090909090907,
                "pitch": 62,
                "velocity": 51,
                "duration": 0.9022727272727273,
                "tempo": 120.0
            },
            {
                "start_time": 23.759090909090908,
                "end_time": 23.895454545454545,
                "pitch": 61,
                "velocity": 51,
                "duration": 0.1363636363636367,
                "tempo": 120.0
            },
            {
                "start_time": 23.961363636363636,
                "end_time": 24.029545454545453,
                "pitch": 60,
                "velocity": 51,
                "duration": 0.06818181818181657,
                "tempo": 120.0
            },
            {
                "start_time": 24.061363636363634,
                "end_time": 24.129545454545454,
                "pitch": 59,
                "velocity": 51,
                "duration": 0.06818181818182012,
                "tempo": 120.0
            },
            {
                "start_time": 24.163636363636364,
                "end_time": 25.06590909090909,
                "pitch": 58,
                "velocity": 51,
                "duration": 0.9022727272727273,
                "tempo": 120.0
            },
            {
                "start_time": 25.36590909090909,
                "end_time": 25.66590909090909,
                "pitch": 58,
                "velocity": 51,
                "duration": 0.3000000000000007,
                "tempo": 120.0
            },
            {
                "start_time": 25.76590909090909,
                "end_time": 26.06590909090909,
                "pitch": 55,
                "velocity": 51,
                "duration": 0.3000000000000007,
                "tempo": 120.0
            },
            {
                "start_time": 26.36590909090909,
                "end_time": 26.66590909090909,
                "pitch": 60,
                "velocity": 51,
                "duration": 0.3000000000000007,
                "tempo": 120.0
            },
            {
                "start_time": 26.768181818181816,
                "end_time": 26.852272727272727,
                "pitch": 58,
                "velocity": 51,
                "duration": 0.08409090909091077,
                "tempo": 120.0
            },
            {
                "start_time": 26.968181818181815,
                "end_time": 27.268181818181816,
                "pitch": 55,
                "velocity": 51,
                "duration": 0.3000000000000007,
                "tempo": 120.0
            },
            {
                "start_time": 27.368181818181817,
                "end_time": 27.668181818181818,
                "pitch": 55,
                "velocity": 51,
                "duration": 0.3000000000000007,
                "tempo": 120.0
            },
            {
                "start_time": 27.970454545454544,
                "end_time": 28.054545454545455,
                "pitch": 55,
                "velocity": 51,
                "duration": 0.08409090909091077,
                "tempo": 120.0
            },
            {
                "start_time": 28.070454545454545,
                "end_time": 28.154545454545453,
                "pitch": 57,
                "velocity": 51,
                "duration": 0.08409090909090722,
                "tempo": 120.0
            },
            {
                "start_time": 28.170454545454543,
                "end_time": 28.30681818181818,
                "pitch": 58,
                "velocity": 51,
                "duration": 0.1363636363636367,
                "tempo": 120.0
            },
            {
                "start_time": 28.57272727272727,
                "end_time": 28.709090909090907,
                "pitch": 50,
                "velocity": 51,
                "duration": 0.1363636363636367,
                "tempo": 120.0
            },
            {
                "start_time": 28.977272727272727,
                "end_time": 29.043181818181818,
                "pitch": 54,
                "velocity": 51,
                "duration": 0.06590909090909136,
                "tempo": 120.0
            },
            {
                "start_time": 29.177272727272726,
                "end_time": 29.243181818181817,
                "pitch": 54,
                "velocity": 8,
                "duration": 0.06590909090909136,
                "tempo": 120.0
            },
            {
                "start_time": 29.377272727272725,
                "end_time": 29.443181818181817,
                "pitch": 54,
                "velocity": 10,
                "duration": 0.06590909090909136,
                "tempo": 120.0
            },
            {
                "start_time": 29.577272727272724,
                "end_time": 29.643181818181816,
                "pitch": 54,
                "velocity": 13,
                "duration": 0.06590909090909136,
                "tempo": 120.0
            },
            {
                "start_time": 29.777272727272727,
                "end_time": 29.843181818181815,
                "pitch": 54,
                "velocity": 16,
                "duration": 0.06590909090908781,
                "tempo": 120.0
            },
            {
                "start_time": 29.977272727272727,
                "end_time": 30.05909090909091,
                "pitch": 54,
                "velocity": 20,
                "duration": 0.08181818181818201,
                "tempo": 120.0
            },
            {
                "start_time": 30.179545454545455,
                "end_time": 30.245454545454542,
                "pitch": 54,
                "velocity": 25,
                "duration": 0.06590909090908781,
                "tempo": 120.0
            },
            {
                "start_time": 30.379545454545454,
                "end_time": 30.445454545454545,
                "pitch": 54,
                "velocity": 32,
                "duration": 0.06590909090909136,
                "tempo": 120.0
            },
            {
                "start_time": 30.579545454545453,
                "end_time": 30.64772727272727,
                "pitch": 55,
                "velocity": 51,
                "duration": 0.06818181818181657,
                "tempo": 120.0
            },
            {
                "start_time": 30.78181818181818,
                "end_time": 30.847727272727273,
                "pitch": 55,
                "velocity": 8,
                "duration": 0.06590909090909136,
                "tempo": 120.0
            },
            {
                "start_time": 30.98181818181818,
                "end_time": 31.049999999999997,
                "pitch": 55,
                "velocity": 10,
                "duration": 0.06818181818181657,
                "tempo": 120.0
            },
            {
                "start_time": 31.18181818181818,
                "end_time": 31.25,
                "pitch": 55,
                "velocity": 13,
                "duration": 0.06818181818182012,
                "tempo": 120.0
            },
            {
                "start_time": 31.38181818181818,
                "end_time": 31.45,
                "pitch": 55,
                "velocity": 16,
                "duration": 0.06818181818182012,
                "tempo": 120.0
            },
            {
                "start_time": 31.581818181818182,
                "end_time": 31.65,
                "pitch": 55,
                "velocity": 20,
                "duration": 0.06818181818181657,
                "tempo": 120.0
            },
            {
                "start_time": 31.78181818181818,
                "end_time": 32.08409090909091,
                "pitch": 58,
                "velocity": 25,
                "duration": 0.30227272727272947,
                "tempo": 120.0
            },
            {
                "start_time": 32.184090909090905,
                "end_time": 32.48181818181818,
                "pitch": 55,
                "velocity": 51,
                "duration": 0.29772727272727195,
                "tempo": 120.0
            },
            {
                "start_time": 32.78181818181818,
                "end_time": 33.08409090909091,
                "pitch": 60,
                "velocity": 51,
                "duration": 0.30227272727272947,
                "tempo": 120.0
            },
            {
                "start_time": 33.184090909090905,
                "end_time": 33.268181818181816,
                "pitch": 58,
                "velocity": 51,
                "duration": 0.08409090909091077,
                "tempo": 120.0
            },
            {
                "start_time": 33.38636363636363,
                "end_time": 33.68636363636364,
                "pitch": 55,
                "velocity": 51,
                "duration": 0.30000000000000426,
                "tempo": 120.0
            },
            {
                "start_time": 33.78636363636363,
                "end_time": 34.086363636363636,
                "pitch": 55,
                "velocity": 51,
                "duration": 0.30000000000000426,
                "tempo": 120.0
            },
            {
                "start_time": 34.38636363636363,
                "end_time": 34.46818181818182,
                "pitch": 55,
                "velocity": 51,
                "duration": 0.08181818181818556,
                "tempo": 120.0
            },
            {
                "start_time": 34.486363636363635,
                "end_time": 34.56818181818181,
                "pitch": 57,
                "velocity": 51,
                "duration": 0.08181818181817846,
                "tempo": 120.0
            },
            {
                "start_time": 34.586363636363636,
                "end_time": 34.720454545454544,
                "pitch": 58,
                "velocity": 51,
                "duration": 0.13409090909090793,
                "tempo": 120.0
            },
            {
                "start_time": 34.98863636363636,
                "end_time": 35.12272727272727,
                "pitch": 50,
                "velocity": 51,
                "duration": 0.13409090909090793,
                "tempo": 120.0
            },
            {
                "start_time": 35.39090909090909,
                "end_time": 35.69090909090909,
                "pitch": 57,
                "velocity": 51,
                "duration": 0.29999999999999716,
                "tempo": 120.0
            },
            {
                "start_time": 35.79090909090909,
                "end_time": 36.090909090909086,
                "pitch": 52,
                "velocity": 51,
                "duration": 0.29999999999999716,
                "tempo": 120.0
            },
            {
                "start_time": 36.19090909090909,
                "end_time": 36.49090909090909,
                "pitch": 50,
                "velocity": 51,
                "duration": 0.30000000000000426,
                "tempo": 120.0
            },
            {
                "start_time": 36.590909090909086,
                "end_time": 36.89090909090909,
                "pitch": 52,
                "velocity": 51,
                "duration": 0.30000000000000426,
                "tempo": 120.0
            },
            {
                "start_time": 36.99090909090909,
                "end_time": 38.19318181818181,
                "pitch": 57,
                "velocity": 51,
                "duration": 1.202272727272721,
                "tempo": 120.0
            },
            {
                "start_time": 38.59318181818182,
                "end_time": 38.72727272727273,
                "pitch": 43,
                "velocity": 51,
                "duration": 0.13409090909090793,
                "tempo": 120.0
            },
            {
                "start_time": 38.793181818181814,
                "end_time": 38.92727272727272,
                "pitch": 43,
                "velocity": 51,
                "duration": 0.13409090909090793,
                "tempo": 120.0
            },
            {
                "start_time": 38.99318181818182,
                "end_time": 39.29545454545455,
                "pitch": 58,
                "velocity": 51,
                "duration": 0.30227272727272947,
                "tempo": 120.0
            },
            {
                "start_time": 39.39545454545454,
                "end_time": 39.543181818181814,
                "pitch": 48,
                "velocity": 51,
                "duration": 0.14772727272727337,
                "tempo": 120.0
            },
            {
                "start_time": 39.59318181818182,
                "end_time": 39.74318181818182,
                "pitch": 48,
                "velocity": 51,
                "duration": 0.14999999999999858,
                "tempo": 120.0
            },
            {
                "start_time": 39.793181818181814,
                "end_time": 40.09318181818182,
                "pitch": 60,
                "velocity": 51,
                "duration": 0.30000000000000426,
                "tempo": 120.0
            },
            {
                "start_time": 40.19318181818181,
                "end_time": 40.34318181818182,
                "pitch": 62,
                "velocity": 51,
                "duration": 0.15000000000000568,
                "tempo": 120.0
            },
            {
                "start_time": 40.393181818181816,
                "end_time": 40.47727272727273,
                "pitch": 60,
                "velocity": 51,
                "duration": 0.08409090909091077,
                "tempo": 120.0
            },
            {
                "start_time": 40.793181818181814,
                "end_time": 40.877272727272725,
                "pitch": 62,
                "velocity": 51,
                "duration": 0.08409090909091077,
                "tempo": 120.0
            },
            {
                "start_time": 40.99318181818182,
                "end_time": 41.6,
                "pitch": 58,
                "velocity": 51,
                "duration": 0.6068181818181841,
                "tempo": 120.0
            },
            {
                "start_time": 41.79772727272727,
                "end_time": 41.87954545454545,
                "pitch": 60,
                "velocity": 51,
                "duration": 0.08181818181817846,
                "tempo": 120.0
            },
            {
                "start_time": 42.0,
                "end_time": 42.06590909090909,
                "pitch": 60,
                "velocity": 8,
                "duration": 0.06590909090908781,
                "tempo": 120.0
            },
            {
                "start_time": 42.199999999999996,
                "end_time": 42.26590909090909,
                "pitch": 60,
                "velocity": 10,
                "duration": 0.06590909090909491,
                "tempo": 120.0
            },
            {
                "start_time": 42.4,
                "end_time": 42.48181818181818,
                "pitch": 60,
                "velocity": 13,
                "duration": 0.08181818181817846,
                "tempo": 120.0
            },
            {
                "start_time": 42.59772727272727,
                "end_time": 42.68181818181818,
                "pitch": 60,
                "velocity": 16,
                "duration": 0.08409090909091077,
                "tempo": 120.0
            },
            {
                "start_time": 42.8,
                "end_time": 42.86590909090909,
                "pitch": 60,
                "velocity": 20,
                "duration": 0.06590909090909491,
                "tempo": 120.0
            },
            {
                "start_time": 43.0,
                "end_time": 43.06590909090909,
                "pitch": 60,
                "velocity": 25,
                "duration": 0.06590909090908781,
                "tempo": 120.0
            },
            {
                "start_time": 43.20227272727273,
                "end_time": 43.268181818181816,
                "pitch": 60,
                "velocity": 32,
                "duration": 0.06590909090908781,
                "tempo": 120.0
            },
            {
                "start_time": 43.402272727272724,
                "end_time": 43.46818181818182,
                "pitch": 57,
                "velocity": 51,
                "duration": 0.06590909090909491,
                "tempo": 120.0
            },
            {
                "start_time": 43.60227272727273,
                "end_time": 43.684090909090905,
                "pitch": 57,
                "velocity": 8,
                "duration": 0.08181818181817846,
                "tempo": 120.0
            },
            {
                "start_time": 43.80227272727272,
                "end_time": 43.86818181818182,
                "pitch": 57,
                "velocity": 10,
                "duration": 0.06590909090909491,
                "tempo": 120.0
            },
            {
                "start_time": 44.002272727272725,
                "end_time": 44.06818181818181,
                "pitch": 57,
                "velocity": 13,
                "duration": 0.06590909090908781,
                "tempo": 120.0
            },
            {
                "start_time": 44.20227272727273,
                "end_time": 44.268181818181816,
                "pitch": 57,
                "velocity": 16,
                "duration": 0.06590909090908781,
                "tempo": 120.0
            },
            {
                "start_time": 44.402272727272724,
                "end_time": 44.46818181818182,
                "pitch": 57,
                "velocity": 20,
                "duration": 0.06590909090909491,
                "tempo": 120.0
            },
            {
                "start_time": 44.60227272727273,
                "end_time": 44.668181818181814,
                "pitch": 57,
                "velocity": 25,
                "duration": 0.06590909090908781,
                "tempo": 120.0
            },
            {
                "start_time": 44.80227272727272,
                "end_time": 44.86818181818182,
                "pitch": 57,
                "velocity": 32,
                "duration": 0.06590909090909491,
                "tempo": 120.0
            },
            {
                "start_time": 45.002272727272725,
                "end_time": 45.13636363636363,
                "pitch": 43,
                "velocity": 51,
                "duration": 0.13409090909090793,
                "tempo": 120.0
            },
            {
                "start_time": 45.20454545454545,
                "end_time": 45.33863636363636,
                "pitch": 43,
                "velocity": 51,
                "duration": 0.13409090909090793,
                "tempo": 120.0
            },
            {
                "start_time": 45.40454545454545,
                "end_time": 45.70454545454545,
                "pitch": 58,
                "velocity": 51,
                "duration": 0.30000000000000426,
                "tempo": 120.0
            },
            {
                "start_time": 45.804545454545455,
                "end_time": 45.95227272727273,
                "pitch": 48,
                "velocity": 51,
                "duration": 0.14772727272727337,
                "tempo": 120.0
            },
            {
                "start_time": 46.002272727272725,
                "end_time": 46.152272727272724,
                "pitch": 48,
                "velocity": 51,
                "duration": 0.14999999999999858,
                "tempo": 120.0
            },
            {
                "start_time": 46.20227272727273,
                "end_time": 46.502272727272725,
                "pitch": 60,
                "velocity": 51,
                "duration": 0.29999999999999716,
                "tempo": 120.0
            },
            {
                "start_time": 46.60227272727273,
                "end_time": 46.752272727272725,
                "pitch": 62,
                "velocity": 51,
                "duration": 0.14999999999999858,
                "tempo": 120.0
            },
            {
                "start_time": 46.80227272727272,
                "end_time": 46.88636363636363,
                "pitch": 60,
                "velocity": 51,
                "duration": 0.08409090909091077,
                "tempo": 120.0
            },
            {
                "start_time": 47.20454545454545,
                "end_time": 47.288636363636364,
                "pitch": 62,
                "velocity": 51,
                "duration": 0.08409090909091077,
                "tempo": 120.0
            },
            {
                "start_time": 47.40681818181818,
                "end_time": 48.01363636363636,
                "pitch": 58,
                "velocity": 51,
                "duration": 0.606818181818177,
                "tempo": 120.0
            },
            {
                "start_time": 48.209090909090904,
                "end_time": 48.29090909090909,
                "pitch": 57,
                "velocity": 51,
                "duration": 0.08181818181818556,
                "tempo": 120.0
            },
            {
                "start_time": 48.40909090909091,
                "end_time": 48.49090909090909,
                "pitch": 57,
                "velocity": 51,
                "duration": 0.08181818181818556,
                "tempo": 120.0
            },
            {
                "start_time": 48.60909090909091,
                "end_time": 48.69090909090909,
                "pitch": 57,
                "velocity": 51,
                "duration": 0.08181818181817846,
                "tempo": 120.0
            },
            {
                "start_time": 48.809090909090905,
                "end_time": 48.89090909090909,
                "pitch": 57,
                "velocity": 51,
                "duration": 0.08181818181818556,
                "tempo": 120.0
            },
            {
                "start_time": 49.00909090909091,
                "end_time": 49.09318181818182,
                "pitch": 57,
                "velocity": 51,
                "duration": 0.08409090909091077,
                "tempo": 120.0
            },
            {
                "start_time": 49.209090909090904,
                "end_time": 49.293181818181814,
                "pitch": 57,
                "velocity": 51,
                "duration": 0.08409090909091077,
                "tempo": 120.0
            },
            {
                "start_time": 49.41136363636363,
                "end_time": 49.49545454545454,
                "pitch": 57,
                "velocity": 51,
                "duration": 0.08409090909091077,
                "tempo": 120.0
            },
            {
                "start_time": 49.611363636363635,
                "end_time": 49.695454545454545,
                "pitch": 57,
                "velocity": 51,
                "duration": 0.08409090909091077,
                "tempo": 120.0
            },
            {
                "start_time": 49.81136363636364,
                "end_time": 49.89545454545454,
                "pitch": 57,
                "velocity": 51,
                "duration": 0.08409090909090366,
                "tempo": 120.0
            },
            {
                "start_time": 50.01136363636363,
                "end_time": 50.07954545454545,
                "pitch": 57,
                "velocity": 51,
                "duration": 0.06818181818182012,
                "tempo": 120.0
            },
            {
                "start_time": 50.21363636363636,
                "end_time": 50.27954545454545,
                "pitch": 57,
                "velocity": 51,
                "duration": 0.06590909090908781,
                "tempo": 120.0
            },
            {
                "start_time": 50.413636363636364,
                "end_time": 50.47954545454545,
                "pitch": 57,
                "velocity": 51,
                "duration": 0.06590909090908781,
                "tempo": 120.0
            },
            {
                "start_time": 50.61363636363636,
                "end_time": 50.679545454545455,
                "pitch": 57,
                "velocity": 51,
                "duration": 0.06590909090909491,
                "tempo": 120.0
            },
            {
                "start_time": 50.81363636363636,
                "end_time": 50.87954545454545,
                "pitch": 57,
                "velocity": 51,
                "duration": 0.06590909090908781,
                "tempo": 120.0
            },
            {
                "start_time": 51.01363636363636,
                "end_time": 51.08181818181818,
                "pitch": 57,
                "velocity": 51,
                "duration": 0.06818181818182012,
                "tempo": 120.0
            },
            {
                "start_time": 51.215909090909086,
                "end_time": 51.28181818181818,
                "pitch": 57,
                "velocity": 51,
                "duration": 0.06590909090909491,
                "tempo": 120.0
            }
        ],
        "Electric Guitar (clean)": [
            {
                "start_time": 0.0,
                "end_time": 0.45227272727272727,
                "pitch": 19,
                "velocity": 4,
                "duration": 0.45227272727272727,
                "tempo": 120.0
            },
            {
                "start_time": 0.45227272727272727,
                "end_time": 0.6681818181818181,
                "pitch": 108,
                "velocity": 4,
                "duration": 0.21590909090909083,
                "tempo": 120.0
            },
            {
                "start_time": 0.6681818181818181,
                "end_time": 1.2818181818181817,
                "pitch": 19,
                "velocity": 4,
                "duration": 0.6136363636363636,
                "tempo": 120.0
            },
            {
                "start_time": 1.2818181818181817,
                "end_time": 1.6818181818181817,
                "pitch": 108,
                "velocity": 4,
                "duration": 0.3999999999999999,
                "tempo": 120.0
            },
            {
                "start_time": 1.6818181818181817,
                "end_time": 1.8818181818181818,
                "pitch": 19,
                "velocity": 4,
                "duration": 0.20000000000000018,
                "tempo": 120.0
            },
            {
                "start_time": 1.8818181818181818,
                "end_time": 2.2886363636363636,
                "pitch": 107,
                "velocity": 4,
                "duration": 0.40681818181818175,
                "tempo": 120.0
            },
            {
                "start_time": 2.2886363636363636,
                "end_time": 2.493181818181818,
                "pitch": 19,
                "velocity": 4,
                "duration": 0.20454545454545459,
                "tempo": 120.0
            },
            {
                "start_time": 2.493181818181818,
                "end_time": 2.6886363636363635,
                "pitch": 108,
                "velocity": 4,
                "duration": 0.19545454545454533,
                "tempo": 120.0
            },
            {
                "start_time": 2.6886363636363635,
                "end_time": 2.8863636363636362,
                "pitch": 19,
                "velocity": 4,
                "duration": 0.19772727272727275,
                "tempo": 120.0
            },
            {
                "start_time": 2.8863636363636362,
                "end_time": 3.090909090909091,
                "pitch": 108,
                "velocity": 4,
                "duration": 0.20454545454545459,
                "tempo": 120.0
            },
            {
                "start_time": 3.090909090909091,
                "end_time": 3.684090909090909,
                "pitch": 21,
                "velocity": 4,
                "duration": 0.5931818181818183,
                "tempo": 120.0
            },
            {
                "start_time": 3.684090909090909,
                "end_time": 3.884090909090909,
                "pitch": 108,
                "velocity": 4,
                "duration": 0.19999999999999973,
                "tempo": 120.0
            },
            {
                "start_time": 3.884090909090909,
                "end_time": 4.452272727272727,
                "pitch": 19,
                "velocity": 4,
                "duration": 0.5681818181818183,
                "tempo": 120.0
            },
            {
                "start_time": 4.452272727272727,
                "end_time": 4.4840909090909085,
                "pitch": 30,
                "velocity": 4,
                "duration": 0.0318181818181813,
                "tempo": 120.0
            },
            {
                "start_time": 4.4840909090909085,
                "end_time": 4.886363636363636,
                "pitch": 21,
                "velocity": 4,
                "duration": 0.40227272727272734,
                "tempo": 120.0
            },
            {
                "start_time": 4.886363636363636,
                "end_time": 5.084090909090909,
                "pitch": 30,
                "velocity": 4,
                "duration": 0.1977272727272732,
                "tempo": 120.0
            },
            {
                "start_time": 5.084090909090909,
                "end_time": 5.4840909090909085,
                "pitch": 20,
                "velocity": 4,
                "duration": 0.39999999999999947,
                "tempo": 120.0
            },
            {
                "start_time": 5.4840909090909085,
                "end_time": 5.6909090909090905,
                "pitch": 30,
                "velocity": 4,
                "duration": 0.206818181818182,
                "tempo": 120.0
            },
            {
                "start_time": 5.6909090909090905,
                "end_time": 5.890909090909091,
                "pitch": 21,
                "velocity": 4,
                "duration": 0.20000000000000018,
                "tempo": 120.0
            },
            {
                "start_time": 5.890909090909091,
                "end_time": 6.090909090909091,
                "pitch": 30,
                "velocity": 4,
                "duration": 0.20000000000000018,
                "tempo": 120.0
            },
            {
                "start_time": 6.090909090909091,
                "end_time": 6.293181818181818,
                "pitch": 21,
                "velocity": 4,
                "duration": 0.20227272727272716,
                "tempo": 120.0
            },
            {
                "start_time": 6.293181818181818,
                "end_time": 6.886363636363636,
                "pitch": 31,
                "velocity": 4,
                "duration": 0.5931818181818178,
                "tempo": 120.0
            },
            {
                "start_time": 6.886363636363636,
                "end_time": 7.090909090909091,
                "pitch": 21,
                "velocity": 4,
                "duration": 0.20454545454545503,
                "tempo": 120.0
            },
            {
                "start_time": 7.090909090909091,
                "end_time": 7.699999999999999,
                "pitch": 30,
                "velocity": 4,
                "duration": 0.6090909090909085,
                "tempo": 120.0
            },
            {
                "start_time": 7.699999999999999,
                "end_time": 8.097727272727273,
                "pitch": 21,
                "velocity": 4,
                "duration": 0.3977272727272734,
                "tempo": 120.0
            },
            {
                "start_time": 8.097727272727273,
                "end_time": 8.229545454545454,
                "pitch": 30,
                "velocity": 4,
                "duration": 0.13181818181818095,
                "tempo": 120.0
            },
            {
                "start_time": 8.229545454545454,
                "end_time": 8.49090909090909,
                "pitch": 36,
                "velocity": 4,
                "duration": 0.2613636363636367,
                "tempo": 120.0
            },
            {
                "start_time": 8.49090909090909,
                "end_time": 8.695454545454545,
                "pitch": 27,
                "velocity": 4,
                "duration": 0.20454545454545503,
                "tempo": 120.0
            },
            {
                "start_time": 8.695454545454545,
                "end_time": 9.320454545454545,
                "pitch": 35,
                "velocity": 4,
                "duration": 0.625,
                "tempo": 120.0
            },
            {
                "start_time": 9.320454545454545,
                "end_time": 9.706818181818182,
                "pitch": 27,
                "velocity": 4,
                "duration": 0.3863636363636367,
                "tempo": 120.0
            },
            {
                "start_time": 9.706818181818182,
                "end_time": 9.809090909090909,
                "pitch": 36,
                "velocity": 4,
                "duration": 0.10227272727272663,
                "tempo": 120.0
            },
            {
                "start_time": 9.809090909090909,
                "end_time": 10.043181818181818,
                "pitch": 38,
                "velocity": 4,
                "duration": 0.23409090909090935,
                "tempo": 120.0
            },
            {
                "start_time": 10.043181818181818,
                "end_time": 10.10909090909091,
                "pitch": 91,
                "velocity": 4,
                "duration": 0.06590909090909136,
                "tempo": 120.0
            },
            {
                "start_time": 10.10909090909091,
                "end_time": 10.309090909090909,
                "pitch": 83,
                "velocity": 4,
                "duration": 0.1999999999999993,
                "tempo": 120.0
            },
            {
                "start_time": 10.309090909090909,
                "end_time": 10.509090909090908,
                "pitch": 91,
                "velocity": 4,
                "duration": 0.1999999999999993,
                "tempo": 120.0
            },
            {
                "start_time": 10.509090909090908,
                "end_time": 10.913636363636362,
                "pitch": 91,
                "velocity": 4,
                "duration": 0.4045454545454543,
                "tempo": 120.0
            },
            {
                "start_time": 10.913636363636362,
                "end_time": 11.113636363636363,
                "pitch": 83,
                "velocity": 4,
                "duration": 0.20000000000000107,
                "tempo": 120.0
            },
            {
                "start_time": 11.113636363636363,
                "end_time": 11.31590909090909,
                "pitch": 105,
                "velocity": 4,
                "duration": 0.20227272727272627,
                "tempo": 120.0
            },
            {
                "start_time": 11.31590909090909,
                "end_time": 11.51590909090909,
                "pitch": 17,
                "velocity": 4,
                "duration": 0.20000000000000107,
                "tempo": 120.0
            },
            {
                "start_time": 11.51590909090909,
                "end_time": 11.920454545454545,
                "pitch": 104,
                "velocity": 4,
                "duration": 0.4045454545454543,
                "tempo": 120.0
            },
            {
                "start_time": 11.920454545454545,
                "end_time": 12.120454545454544,
                "pitch": 15,
                "velocity": 4,
                "duration": 0.1999999999999993,
                "tempo": 120.0
            },
            {
                "start_time": 12.120454545454544,
                "end_time": 12.320454545454545,
                "pitch": 105,
                "velocity": 4,
                "duration": 0.20000000000000107,
                "tempo": 120.0
            },
            {
                "start_time": 12.320454545454545,
                "end_time": 12.520454545454545,
                "pitch": 15,
                "velocity": 4,
                "duration": 0.1999999999999993,
                "tempo": 120.0
            },
            {
                "start_time": 12.520454545454545,
                "end_time": 12.722727272727273,
                "pitch": 105,
                "velocity": 4,
                "duration": 0.20227272727272805,
                "tempo": 120.0
            },
            {
                "start_time": 12.722727272727273,
                "end_time": 13.193181818181818,
                "pitch": 18,
                "velocity": 4,
                "duration": 0.4704545454545457,
                "tempo": 120.0
            },
            {
                "start_time": 13.193181818181818,
                "end_time": 13.327272727272726,
                "pitch": 45,
                "velocity": 4,
                "duration": 0.13409090909090793,
                "tempo": 120.0
            },
            {
                "start_time": 13.327272727272726,
                "end_time": 13.527272727272727,
                "pitch": 37,
                "velocity": 4,
                "duration": 0.20000000000000107,
                "tempo": 120.0
            },
            {
                "start_time": 13.527272727272727,
                "end_time": 14.131818181818181,
                "pitch": 44,
                "velocity": 4,
                "duration": 0.6045454545454536,
                "tempo": 120.0
            },
            {
                "start_time": 14.131818181818181,
                "end_time": 14.531818181818181,
                "pitch": 37,
                "velocity": 4,
                "duration": 0.40000000000000036,
                "tempo": 120.0
            },
            {
                "start_time": 14.531818181818181,
                "end_time": 14.727272727272727,
                "pitch": 45,
                "velocity": 4,
                "duration": 0.19545454545454533,
                "tempo": 120.0
            },
            {
                "start_time": 14.727272727272727,
                "end_time": 15.129545454545454,
                "pitch": 36,
                "velocity": 4,
                "duration": 0.40227272727272734,
                "tempo": 120.0
            },
            {
                "start_time": 15.129545454545454,
                "end_time": 15.334090909090909,
                "pitch": 44,
                "velocity": 4,
                "duration": 0.20454545454545503,
                "tempo": 120.0
            },
            {
                "start_time": 15.334090909090909,
                "end_time": 15.536363636363635,
                "pitch": 37,
                "velocity": 4,
                "duration": 0.20227272727272627,
                "tempo": 120.0
            },
            {
                "start_time": 15.536363636363635,
                "end_time": 15.738636363636363,
                "pitch": 44,
                "velocity": 4,
                "duration": 0.20227272727272805,
                "tempo": 120.0
            },
            {
                "start_time": 15.738636363636363,
                "end_time": 15.954545454545453,
                "pitch": 37,
                "velocity": 4,
                "duration": 0.21590909090908994,
                "tempo": 120.0
            },
            {
                "start_time": 15.954545454545453,
                "end_time": 16.54090909090909,
                "pitch": 46,
                "velocity": 4,
                "duration": 0.586363636363636,
                "tempo": 120.0
            },
            {
                "start_time": 16.54090909090909,
                "end_time": 16.74090909090909,
                "pitch": 37,
                "velocity": 4,
                "duration": 0.1999999999999993,
                "tempo": 120.0
            },
            {
                "start_time": 16.74090909090909,
                "end_time": 17.209090909090907,
                "pitch": 44,
                "velocity": 4,
                "duration": 0.4681818181818187,
                "tempo": 120.0
            },
            {
                "start_time": 17.209090909090907,
                "end_time": 17.243181818181817,
                "pitch": 29,
                "velocity": 4,
                "duration": 0.03409090909091006,
                "tempo": 120.0
            },
            {
                "start_time": 17.243181818181817,
                "end_time": 17.34318181818182,
                "pitch": 40,
                "velocity": 4,
                "duration": 0.10000000000000142,
                "tempo": 120.0
            },
            {
                "start_time": 17.34318181818182,
                "end_time": 17.743181818181817,
                "pitch": 32,
                "velocity": 4,
                "duration": 0.3999999999999986,
                "tempo": 120.0
            },
            {
                "start_time": 17.743181818181817,
                "end_time": 17.938636363636363,
                "pitch": 41,
                "velocity": 4,
                "duration": 0.19545454545454533,
                "tempo": 120.0
            },
            {
                "start_time": 17.938636363636363,
                "end_time": 18.34090909090909,
                "pitch": 31,
                "velocity": 4,
                "duration": 0.40227272727272734,
                "tempo": 120.0
            },
            {
                "start_time": 18.34090909090909,
                "end_time": 18.545454545454543,
                "pitch": 39,
                "velocity": 4,
                "duration": 0.20454545454545325,
                "tempo": 120.0
            },
            {
                "start_time": 18.545454545454543,
                "end_time": 18.647727272727273,
                "pitch": 32,
                "velocity": 4,
                "duration": 0.10227272727273018,
                "tempo": 120.0
            },
            {
                "start_time": 18.647727272727273,
                "end_time": 18.74772727272727,
                "pitch": 31,
                "velocity": 4,
                "duration": 0.09999999999999787,
                "tempo": 120.0
            },
            {
                "start_time": 18.74772727272727,
                "end_time": 18.91590909090909,
                "pitch": 39,
                "velocity": 4,
                "duration": 0.168181818181818,
                "tempo": 120.0
            },
            {
                "start_time": 18.91590909090909,
                "end_time": 18.95,
                "pitch": 62,
                "velocity": 4,
                "duration": 0.03409090909091006,
                "tempo": 120.0
            },
            {
                "start_time": 18.95,
                "end_time": 19.15,
                "pitch": 55,
                "velocity": 4,
                "duration": 0.1999999999999993,
                "tempo": 120.0
            },
            {
                "start_time": 19.15,
                "end_time": 19.75,
                "pitch": 64,
                "velocity": 4,
                "duration": 0.6000000000000014,
                "tempo": 120.0
            },
            {
                "start_time": 19.75,
                "end_time": 19.95,
                "pitch": 55,
                "velocity": 4,
                "duration": 0.1999999999999993,
                "tempo": 120.0
            },
            {
                "start_time": 19.95,
                "end_time": 20.552272727272726,
                "pitch": 62,
                "velocity": 4,
                "duration": 0.6022727272727266,
                "tempo": 120.0
            },
            {
                "start_time": 20.552272727272726,
                "end_time": 20.954545454545453,
                "pitch": 55,
                "velocity": 4,
                "duration": 0.40227272727272734,
                "tempo": 120.0
            },
            {
                "start_time": 20.954545454545453,
                "end_time": 21.354545454545452,
                "pitch": 63,
                "velocity": 4,
                "duration": 0.3999999999999986,
                "tempo": 120.0
            },
            {
                "start_time": 21.354545454545452,
                "end_time": 21.454545454545453,
                "pitch": 55,
                "velocity": 4,
                "duration": 0.10000000000000142,
                "tempo": 120.0
            },
            {
                "start_time": 21.454545454545453,
                "end_time": 21.554545454545455,
                "pitch": 62,
                "velocity": 4,
                "duration": 0.10000000000000142,
                "tempo": 120.0
            },
            {
                "start_time": 21.554545454545455,
                "end_time": 22.172727272727272,
                "pitch": 69,
                "velocity": 4,
                "duration": 0.6181818181818173,
                "tempo": 120.0
            },
            {
                "start_time": 22.172727272727272,
                "end_time": 22.55681818181818,
                "pitch": 62,
                "velocity": 4,
                "duration": 0.38409090909090793,
                "tempo": 120.0
            },
            {
                "start_time": 22.55681818181818,
                "end_time": 22.959090909090907,
                "pitch": 70,
                "velocity": 4,
                "duration": 0.40227272727272734,
                "tempo": 120.0
            },
            {
                "start_time": 22.959090909090907,
                "end_time": 23.159090909090907,
                "pitch": 62,
                "velocity": 4,
                "duration": 0.1999999999999993,
                "tempo": 120.0
            },
            {
                "start_time": 23.159090909090907,
                "end_time": 23.527272727272727,
                "pitch": 69,
                "velocity": 4,
                "duration": 0.36818181818182083,
                "tempo": 120.0
            },
            {
                "start_time": 23.527272727272727,
                "end_time": 23.759090909090908,
                "pitch": 29,
                "velocity": 4,
                "duration": 0.2318181818181806,
                "tempo": 120.0
            },
            {
                "start_time": 23.759090909090908,
                "end_time": 24.163636363636364,
                "pitch": 21,
                "velocity": 4,
                "duration": 0.4045454545454561,
                "tempo": 120.0
            },
            {
                "start_time": 24.163636363636364,
                "end_time": 24.363636363636363,
                "pitch": 30,
                "velocity": 4,
                "duration": 0.1999999999999993,
                "tempo": 120.0
            },
            {
                "start_time": 24.363636363636363,
                "end_time": 24.763636363636362,
                "pitch": 20,
                "velocity": 4,
                "duration": 0.3999999999999986,
                "tempo": 120.0
            },
            {
                "start_time": 24.763636363636362,
                "end_time": 24.93181818181818,
                "pitch": 30,
                "velocity": 4,
                "duration": 0.168181818181818,
                "tempo": 120.0
            },
            {
                "start_time": 24.93181818181818,
                "end_time": 24.96590909090909,
                "pitch": 83,
                "velocity": 4,
                "duration": 0.03409090909091006,
                "tempo": 120.0
            },
            {
                "start_time": 24.96590909090909,
                "end_time": 25.16590909090909,
                "pitch": 76,
                "velocity": 4,
                "duration": 0.1999999999999993,
                "tempo": 120.0
            },
            {
                "start_time": 25.16590909090909,
                "end_time": 25.331818181818182,
                "pitch": 83,
                "velocity": 4,
                "duration": 0.16590909090909278,
                "tempo": 120.0
            },
            {
                "start_time": 25.331818181818182,
                "end_time": 25.36590909090909,
                "pitch": 37,
                "velocity": 4,
                "duration": 0.03409090909090651,
                "tempo": 120.0
            },
            {
                "start_time": 25.36590909090909,
                "end_time": 25.56590909090909,
                "pitch": 30,
                "velocity": 4,
                "duration": 0.20000000000000284,
                "tempo": 120.0
            },
            {
                "start_time": 25.56590909090909,
                "end_time": 25.98181818181818,
                "pitch": 39,
                "velocity": 4,
                "duration": 0.41590909090908923,
                "tempo": 120.0
            },
            {
                "start_time": 25.98181818181818,
                "end_time": 26.584090909090907,
                "pitch": 61,
                "velocity": 4,
                "duration": 0.6022727272727266,
                "tempo": 120.0
            },
            {
                "start_time": 26.584090909090907,
                "end_time": 26.784090909090907,
                "pitch": 47,
                "velocity": 4,
                "duration": 0.1999999999999993,
                "tempo": 120.0
            },
            {
                "start_time": 26.784090909090907,
                "end_time": 26.986363636363635,
                "pitch": 61,
                "velocity": 4,
                "duration": 0.20227272727272805,
                "tempo": 120.0
            },
            {
                "start_time": 26.986363636363635,
                "end_time": 27.086363636363636,
                "pitch": 70,
                "velocity": 4,
                "duration": 0.10000000000000142,
                "tempo": 120.0
            },
            {
                "start_time": 27.086363636363636,
                "end_time": 27.186363636363634,
                "pitch": 53,
                "velocity": 4,
                "duration": 0.09999999999999787,
                "tempo": 120.0
            },
            {
                "start_time": 27.186363636363634,
                "end_time": 27.386363636363637,
                "pitch": 71,
                "velocity": 4,
                "duration": 0.20000000000000284,
                "tempo": 120.0
            },
            {
                "start_time": 27.386363636363637,
                "end_time": 28.188636363636363,
                "pitch": 62,
                "velocity": 4,
                "duration": 0.8022727272727259,
                "tempo": 120.0
            },
            {
                "start_time": 28.188636363636363,
                "end_time": 28.37272727272727,
                "pitch": 47,
                "velocity": 4,
                "duration": 0.18409090909090864,
                "tempo": 120.0
            },
            {
                "start_time": 28.37272727272727,
                "end_time": 28.57272727272727,
                "pitch": 61,
                "velocity": 4,
                "duration": 0.1999999999999993,
                "tempo": 120.0
            },
            {
                "start_time": 28.57272727272727,
                "end_time": 28.674999999999997,
                "pitch": 70,
                "velocity": 4,
                "duration": 0.10227272727272663,
                "tempo": 120.0
            },
            {
                "start_time": 28.674999999999997,
                "end_time": 28.775,
                "pitch": 53,
                "velocity": 4,
                "duration": 0.10000000000000142,
                "tempo": 120.0
            },
            {
                "start_time": 28.775,
                "end_time": 28.977272727272727,
                "pitch": 71,
                "velocity": 4,
                "duration": 0.20227272727272805,
                "tempo": 120.0
            },
            {
                "start_time": 28.977272727272727,
                "end_time": 29.577272727272724,
                "pitch": 62,
                "velocity": 4,
                "duration": 0.5999999999999979,
                "tempo": 120.0
            },
            {
                "start_time": 29.577272727272724,
                "end_time": 29.777272727272727,
                "pitch": 55,
                "velocity": 4,
                "duration": 0.20000000000000284,
                "tempo": 120.0
            },
            {
                "start_time": 29.777272727272727,
                "end_time": 30.379545454545454,
                "pitch": 62,
                "velocity": 4,
                "duration": 0.6022727272727266,
                "tempo": 120.0
            },
            {
                "start_time": 30.379545454545454,
                "end_time": 30.479545454545452,
                "pitch": 55,
                "velocity": 4,
                "duration": 0.09999999999999787,
                "tempo": 120.0
            },
            {
                "start_time": 30.479545454545452,
                "end_time": 30.579545454545453,
                "pitch": 66,
                "velocity": 4,
                "duration": 0.10000000000000142,
                "tempo": 120.0
            },
            {
                "start_time": 30.579545454545453,
                "end_time": 31.18181818181818,
                "pitch": 73,
                "velocity": 4,
                "duration": 0.6022727272727266,
                "tempo": 120.0
            },
            {
                "start_time": 31.18181818181818,
                "end_time": 31.38181818181818,
                "pitch": 66,
                "velocity": 4,
                "duration": 0.1999999999999993,
                "tempo": 120.0
            },
            {
                "start_time": 31.38181818181818,
                "end_time": 31.581818181818182,
                "pitch": 73,
                "velocity": 4,
                "duration": 0.20000000000000284,
                "tempo": 120.0
            },
            {
                "start_time": 31.581818181818182,
                "end_time": 31.78181818181818,
                "pitch": 66,
                "velocity": 4,
                "duration": 0.1999999999999993,
                "tempo": 120.0
            },
            {
                "start_time": 31.78181818181818,
                "end_time": 31.884090909090908,
                "pitch": 81,
                "velocity": 4,
                "duration": 0.10227272727272663,
                "tempo": 120.0
            },
            {
                "start_time": 31.884090909090908,
                "end_time": 32.184090909090905,
                "pitch": 64,
                "velocity": 4,
                "duration": 0.29999999999999716,
                "tempo": 120.0
            },
            {
                "start_time": 32.184090909090905,
                "end_time": 33.0,
                "pitch": 73,
                "velocity": 4,
                "duration": 0.8159090909090949,
                "tempo": 120.0
            },
            {
                "start_time": 33.0,
                "end_time": 33.05,
                "pitch": 58,
                "velocity": 4,
                "duration": 0.04999999999999716,
                "tempo": 120.0
            },
            {
                "start_time": 33.05,
                "end_time": 33.199999999999996,
                "pitch": 47,
                "velocity": 4,
                "duration": 0.14999999999999858,
                "tempo": 120.0
            },
            {
                "start_time": 33.199999999999996,
                "end_time": 33.402272727272724,
                "pitch": 61,
                "velocity": 4,
                "duration": 0.20227272727272805,
                "tempo": 120.0
            },
            {
                "start_time": 33.402272727272724,
                "end_time": 33.502272727272725,
                "pitch": 70,
                "velocity": 4,
                "duration": 0.10000000000000142,
                "tempo": 120.0
            },
            {
                "start_time": 33.502272727272725,
                "end_time": 33.60227272727273,
                "pitch": 53,
                "velocity": 4,
                "duration": 0.10000000000000142,
                "tempo": 120.0
            },
            {
                "start_time": 33.60227272727273,
                "end_time": 33.80227272727272,
                "pitch": 71,
                "velocity": 4,
                "duration": 0.19999999999999574,
                "tempo": 120.0
            },
            {
                "start_time": 33.80227272727272,
                "end_time": 34.60227272727273,
                "pitch": 62,
                "velocity": 4,
                "duration": 0.8000000000000043,
                "tempo": 120.0
            },
            {
                "start_time": 34.60227272727273,
                "end_time": 34.788636363636364,
                "pitch": 47,
                "velocity": 4,
                "duration": 0.1863636363636374,
                "tempo": 120.0
            },
            {
                "start_time": 34.788636363636364,
                "end_time": 34.98863636363636,
                "pitch": 61,
                "velocity": 4,
                "duration": 0.19999999999999574,
                "tempo": 120.0
            },
            {
                "start_time": 34.98863636363636,
                "end_time": 35.08863636363636,
                "pitch": 70,
                "velocity": 4,
                "duration": 0.10000000000000142,
                "tempo": 120.0
            },
            {
                "start_time": 35.08863636363636,
                "end_time": 35.18863636363636,
                "pitch": 53,
                "velocity": 4,
                "duration": 0.10000000000000142,
                "tempo": 120.0
            },
            {
                "start_time": 35.18863636363636,
                "end_time": 35.39090909090909,
                "pitch": 71,
                "velocity": 4,
                "duration": 0.20227272727272805,
                "tempo": 120.0
            },
            {
                "start_time": 35.39090909090909,
                "end_time": 35.99090909090909,
                "pitch": 62,
                "velocity": 4,
                "duration": 0.6000000000000014,
                "tempo": 120.0
            },
            {
                "start_time": 35.99090909090909,
                "end_time": 36.19090909090909,
                "pitch": 55,
                "velocity": 4,
                "duration": 0.19999999999999574,
                "tempo": 120.0
            },
            {
                "start_time": 36.19090909090909,
                "end_time": 36.79090909090909,
                "pitch": 62,
                "velocity": 4,
                "duration": 0.6000000000000014,
                "tempo": 120.0
            },
            {
                "start_time": 36.79090909090909,
                "end_time": 36.99090909090909,
                "pitch": 55,
                "velocity": 4,
                "duration": 0.20000000000000284,
                "tempo": 120.0
            },
            {
                "start_time": 36.99090909090909,
                "end_time": 37.49318181818182,
                "pitch": 62,
                "velocity": 4,
                "duration": 0.5022727272727252,
                "tempo": 120.0
            },
            {
                "start_time": 37.49318181818182,
                "end_time": 37.59318181818182,
                "pitch": 30,
                "velocity": 4,
                "duration": 0.10000000000000142,
                "tempo": 120.0
            },
            {
                "start_time": 37.59318181818182,
                "end_time": 37.793181818181814,
                "pitch": 23,
                "velocity": 4,
                "duration": 0.19999999999999574,
                "tempo": 120.0
            },
            {
                "start_time": 37.793181818181814,
                "end_time": 37.99318181818182,
                "pitch": 30,
                "velocity": 4,
                "duration": 0.20000000000000284,
                "tempo": 120.0
            },
            {
                "start_time": 37.99318181818182,
                "end_time": 38.19318181818181,
                "pitch": 23,
                "velocity": 4,
                "duration": 0.19999999999999574,
                "tempo": 120.0
            },
            {
                "start_time": 38.19318181818181,
                "end_time": 38.293181818181814,
                "pitch": 38,
                "velocity": 4,
                "duration": 0.10000000000000142,
                "tempo": 120.0
            },
            {
                "start_time": 38.293181818181814,
                "end_time": 38.59318181818182,
                "pitch": 21,
                "velocity": 4,
                "duration": 0.30000000000000426,
                "tempo": 120.0
            },
            {
                "start_time": 38.59318181818182,
                "end_time": 38.99318181818182,
                "pitch": 30,
                "velocity": 4,
                "duration": 0.3999999999999986,
                "tempo": 120.0
            },
            {
                "start_time": 38.99318181818182,
                "end_time": 39.195454545454545,
                "pitch": 21,
                "velocity": 4,
                "duration": 0.20227272727272805,
                "tempo": 120.0
            },
            {
                "start_time": 39.195454545454545,
                "end_time": 39.81136363636364,
                "pitch": 30,
                "velocity": 4,
                "duration": 0.6159090909090921,
                "tempo": 120.0
            },
            {
                "start_time": 39.81136363636364,
                "end_time": 40.01136363636363,
                "pitch": 21,
                "velocity": 4,
                "duration": 0.19999999999999574,
                "tempo": 120.0
            },
            {
                "start_time": 40.01136363636363,
                "end_time": 40.611363636363635,
                "pitch": 30,
                "velocity": 4,
                "duration": 0.6000000000000014,
                "tempo": 120.0
            },
            {
                "start_time": 40.611363636363635,
                "end_time": 40.81136363636364,
                "pitch": 21,
                "velocity": 4,
                "duration": 0.20000000000000284,
                "tempo": 120.0
            },
            {
                "start_time": 40.81136363636364,
                "end_time": 41.215909090909086,
                "pitch": 30,
                "velocity": 4,
                "duration": 0.404545454545449,
                "tempo": 120.0
            },
            {
                "start_time": 41.215909090909086,
                "end_time": 41.42045454545455,
                "pitch": 21,
                "velocity": 4,
                "duration": 0.20454545454546036,
                "tempo": 120.0
            },
            {
                "start_time": 41.42045454545455,
                "end_time": 41.81363636363636,
                "pitch": 15,
                "velocity": 4,
                "duration": 0.39318181818181586,
                "tempo": 120.0
            },
            {
                "start_time": 41.81363636363636,
                "end_time": 41.913636363636364,
                "pitch": 30,
                "velocity": 4,
                "duration": 0.10000000000000142,
                "tempo": 120.0
            },
            {
                "start_time": 41.913636363636364,
                "end_time": 42.199999999999996,
                "pitch": 14,
                "velocity": 4,
                "duration": 0.2863636363636317,
                "tempo": 120.0
            },
            {
                "start_time": 42.199999999999996,
                "end_time": 42.4,
                "pitch": 22,
                "velocity": 4,
                "duration": 0.20000000000000284,
                "tempo": 120.0
            },
            {
                "start_time": 42.4,
                "end_time": 42.51363636363636,
                "pitch": 30,
                "velocity": 4,
                "duration": 0.11363636363635976,
                "tempo": 120.0
            },
            {
                "start_time": 42.51363636363636,
                "end_time": 42.61363636363636,
                "pitch": 14,
                "velocity": 4,
                "duration": 0.10000000000000142,
                "tempo": 120.0
            },
            {
                "start_time": 42.61363636363636,
                "end_time": 42.64772727272727,
                "pitch": 30,
                "velocity": 4,
                "duration": 0.03409090909091361,
                "tempo": 120.0
            },
            {
                "start_time": 42.64772727272727,
                "end_time": 42.71363636363636,
                "pitch": 48,
                "velocity": 4,
                "duration": 0.06590909090908781,
                "tempo": 120.0
            },
            {
                "start_time": 42.71363636363636,
                "end_time": 43.0,
                "pitch": 32,
                "velocity": 4,
                "duration": 0.2863636363636388,
                "tempo": 120.0
            },
            {
                "start_time": 43.0,
                "end_time": 43.20227272727273,
                "pitch": 42,
                "velocity": 4,
                "duration": 0.20227272727272805,
                "tempo": 120.0
            },
            {
                "start_time": 43.20227272727273,
                "end_time": 43.30227272727272,
                "pitch": 48,
                "velocity": 4,
                "duration": 0.09999999999999432,
                "tempo": 120.0
            },
            {
                "start_time": 43.30227272727272,
                "end_time": 43.402272727272724,
                "pitch": 32,
                "velocity": 4,
                "duration": 0.10000000000000142,
                "tempo": 120.0
            },
            {
                "start_time": 43.402272727272724,
                "end_time": 43.502272727272725,
                "pitch": 48,
                "velocity": 4,
                "duration": 0.10000000000000142,
                "tempo": 120.0
            },
            {
                "start_time": 43.502272727272725,
                "end_time": 43.80227272727272,
                "pitch": 32,
                "velocity": 4,
                "duration": 0.29999999999999716,
                "tempo": 120.0
            },
            {
                "start_time": 43.80227272727272,
                "end_time": 44.002272727272725,
                "pitch": 42,
                "velocity": 4,
                "duration": 0.20000000000000284,
                "tempo": 120.0
            },
            {
                "start_time": 44.002272727272725,
                "end_time": 44.10227272727273,
                "pitch": 48,
                "velocity": 4,
                "duration": 0.10000000000000142,
                "tempo": 120.0
            },
            {
                "start_time": 44.10227272727273,
                "end_time": 44.20227272727273,
                "pitch": 32,
                "velocity": 4,
                "duration": 0.10000000000000142,
                "tempo": 120.0
            },
            {
                "start_time": 44.20227272727273,
                "end_time": 44.402272727272724,
                "pitch": 48,
                "velocity": 4,
                "duration": 0.19999999999999574,
                "tempo": 120.0
            },
            {
                "start_time": 44.402272727272724,
                "end_time": 44.60227272727273,
                "pitch": 32,
                "velocity": 4,
                "duration": 0.20000000000000284,
                "tempo": 120.0
            },
            {
                "start_time": 44.60227272727273,
                "end_time": 44.70227272727273,
                "pitch": 55,
                "velocity": 4,
                "duration": 0.10000000000000142,
                "tempo": 120.0
            },
            {
                "start_time": 44.70227272727273,
                "end_time": 45.002272727272725,
                "pitch": 39,
                "velocity": 4,
                "duration": 0.29999999999999716,
                "tempo": 120.0
            },
            {
                "start_time": 45.002272727272725,
                "end_time": 45.40454545454545,
                "pitch": 47,
                "velocity": 4,
                "duration": 0.4022727272727238,
                "tempo": 120.0
            },
            {
                "start_time": 45.40454545454545,
                "end_time": 45.60454545454545,
                "pitch": 39,
                "velocity": 4,
                "duration": 0.20000000000000284,
                "tempo": 120.0
            },
            {
                "start_time": 45.60454545454545,
                "end_time": 46.220454545454544,
                "pitch": 47,
                "velocity": 4,
                "duration": 0.6159090909090921,
                "tempo": 120.0
            },
            {
                "start_time": 46.220454545454544,
                "end_time": 46.42045454545455,
                "pitch": 39,
                "velocity": 4,
                "duration": 0.20000000000000284,
                "tempo": 120.0
            },
            {
                "start_time": 46.42045454545455,
                "end_time": 46.986363636363635,
                "pitch": 47,
                "velocity": 4,
                "duration": 0.5659090909090878,
                "tempo": 120.0
            },
            {
                "start_time": 46.986363636363635,
                "end_time": 47.02045454545454,
                "pitch": 37,
                "velocity": 4,
                "duration": 0.03409090909090651,
                "tempo": 120.0
            },
            {
                "start_time": 47.02045454545454,
                "end_time": 47.220454545454544,
                "pitch": 29,
                "velocity": 4,
                "duration": 0.20000000000000284,
                "tempo": 120.0
            },
            {
                "start_time": 47.220454545454544,
                "end_time": 47.627272727272725,
                "pitch": 37,
                "velocity": 4,
                "duration": 0.4068181818181813,
                "tempo": 120.0
            },
            {
                "start_time": 47.627272727272725,
                "end_time": 47.83181818181818,
                "pitch": 29,
                "velocity": 4,
                "duration": 0.20454545454545325,
                "tempo": 120.0
            },
            {
                "start_time": 47.83181818181818,
                "end_time": 48.224999999999994,
                "pitch": 23,
                "velocity": 4,
                "duration": 0.39318181818181586,
                "tempo": 120.0
            },
            {
                "start_time": 48.224999999999994,
                "end_time": 48.324999999999996,
                "pitch": 38,
                "velocity": 4,
                "duration": 0.10000000000000142,
                "tempo": 120.0
            },
            {
                "start_time": 48.324999999999996,
                "end_time": 48.625,
                "pitch": 22,
                "velocity": 4,
                "duration": 0.30000000000000426,
                "tempo": 120.0
            },
            {
                "start_time": 48.625,
                "end_time": 48.824999999999996,
                "pitch": 30,
                "velocity": 4,
                "duration": 0.19999999999999574,
                "tempo": 120.0
            },
            {
                "start_time": 48.824999999999996,
                "end_time": 48.925,
                "pitch": 38,
                "velocity": 4,
                "duration": 0.10000000000000142,
                "tempo": 120.0
            },
            {
                "start_time": 48.925,
                "end_time": 49.025,
                "pitch": 22,
                "velocity": 4,
                "duration": 0.10000000000000142,
                "tempo": 120.0
            },
            {
                "start_time": 49.025,
                "end_time": 49.125,
                "pitch": 38,
                "velocity": 4,
                "duration": 0.10000000000000142,
                "tempo": 120.0
            },
            {
                "start_time": 49.125,
                "end_time": 49.42727272727272,
                "pitch": 22,
                "velocity": 4,
                "duration": 0.30227272727272236,
                "tempo": 120.0
            },
            {
                "start_time": 49.42727272727272,
                "end_time": 49.627272727272725,
                "pitch": 30,
                "velocity": 4,
                "duration": 0.20000000000000284,
                "tempo": 120.0
            },
            {
                "start_time": 49.627272727272725,
                "end_time": 49.72727272727273,
                "pitch": 38,
                "velocity": 4,
                "duration": 0.10000000000000142,
                "tempo": 120.0
            },
            {
                "start_time": 49.72727272727273,
                "end_time": 49.82727272727273,
                "pitch": 22,
                "velocity": 4,
                "duration": 0.10000000000000142,
                "tempo": 120.0
            },
            {
                "start_time": 49.82727272727273,
                "end_time": 49.92727272727272,
                "pitch": 38,
                "velocity": 4,
                "duration": 0.09999999999999432,
                "tempo": 120.0
            },
            {
                "start_time": 49.92727272727272,
                "end_time": 50.21363636363636,
                "pitch": 22,
                "velocity": 4,
                "duration": 0.2863636363636388,
                "tempo": 120.0
            },
            {
                "start_time": 50.21363636363636,
                "end_time": 50.413636363636364,
                "pitch": 30,
                "velocity": 4,
                "duration": 0.20000000000000284,
                "tempo": 120.0
            },
            {
                "start_time": 50.413636363636364,
                "end_time": 50.51363636363636,
                "pitch": 38,
                "velocity": 4,
                "duration": 0.09999999999999432,
                "tempo": 120.0
            },
            {
                "start_time": 50.51363636363636,
                "end_time": 50.61363636363636,
                "pitch": 22,
                "velocity": 4,
                "duration": 0.10000000000000142,
                "tempo": 120.0
            },
            {
                "start_time": 50.61363636363636,
                "end_time": 50.81363636363636,
                "pitch": 38,
                "velocity": 4,
                "duration": 0.20000000000000284,
                "tempo": 120.0
            },
            {
                "start_time": 50.81363636363636,
                "end_time": 51.01363636363636,
                "pitch": 22,
                "velocity": 4,
                "duration": 0.19999999999999574,
                "tempo": 120.0
            },
            {
                "start_time": 51.01363636363636,
                "end_time": 51.11363636363636,
                "pitch": 45,
                "velocity": 4,
                "duration": 0.10000000000000142,
                "tempo": 120.0
            },
            {
                "start_time": 51.11363636363636,
                "end_time": 51.41590909090909,
                "pitch": 29,
                "velocity": 4,
                "duration": 0.30227272727272947,
                "tempo": 120.0
            }
        ]
    }
}