{
    "track_id": "Wonder Boy III (FM) - 14 - The Dragon_s Trap",
    "mood": "angry",
    "instruments": {
        "Acoustic Bass": [
            {
                "start_time": 0.09999999999999999,
                "end_time": 0.15,
                "pitch": 33,
                "velocity": 101,
                "duration": 0.05,
                "tempo": 120.0
            },
            {
                "start_time": 0.2159090909090909,
                "end_time": 0.25,
                "pitch": 33,
                "velocity": 101,
                "duration": 0.03409090909090909,
                "tempo": 120.0
            },
            {
                "start_time": 0.6272727272727272,
                "end_time": 0.6636363636363636,
                "pitch": 36,
                "velocity": 101,
                "duration": 0.036363636363636376,
                "tempo": 120.0
            },
            {
                "start_time": 0.8409090909090908,
                "end_time": 0.875,
                "pitch": 35,
                "velocity": 101,
                "duration": 0.03409090909090917,
                "tempo": 120.0
            },
            {
                "start_time": 1.1409090909090909,
                "end_time": 1.5409090909090908,
                "pitch": 31,
                "velocity": 101,
                "duration": 0.3999999999999999,
                "tempo": 120.0
            },
            {
                "start_time": 1.5409090909090908,
                "end_time": 1.7386363636363635,
                "pitch": 33,
                "velocity": 101,
                "duration": 0.19772727272727275,
                "tempo": 120.0
            },
            {
                "start_time": 1.7386363636363635,
                "end_time": 1.7704545454545453,
                "pitch": 33,
                "velocity": 101,
                "duration": 0.031818181818181746,
                "tempo": 120.0
            },
            {
                "start_time": 1.8363636363636362,
                "end_time": 1.8704545454545454,
                "pitch": 33,
                "velocity": 101,
                "duration": 0.03409090909090917,
                "tempo": 120.0
            },
            {
                "start_time": 2.034090909090909,
                "end_time": 2.118181818181818,
                "pitch": 35,
                "velocity": 101,
                "duration": 0.084090909090909,
                "tempo": 120.0
            },
            {
                "start_time": 2.2386363636363633,
                "end_time": 2.340909090909091,
                "pitch": 36,
                "velocity": 101,
                "duration": 0.10227272727272751,
                "tempo": 120.0
            },
            {
                "start_time": 2.4454545454545453,
                "end_time": 2.477272727272727,
                "pitch": 35,
                "velocity": 101,
                "duration": 0.031818181818181746,
                "tempo": 120.0
            },
            {
                "start_time": 3.043181818181818,
                "end_time": 3.143181818181818,
                "pitch": 31,
                "velocity": 101,
                "duration": 0.10000000000000009,
                "tempo": 120.0
            },
            {
                "start_time": 3.243181818181818,
                "end_time": 3.277272727272727,
                "pitch": 29,
                "velocity": 101,
                "duration": 0.03409090909090873,
                "tempo": 120.0
            },
            {
                "start_time": 3.3454545454545452,
                "end_time": 3.377272727272727,
                "pitch": 29,
                "velocity": 101,
                "duration": 0.031818181818181746,
                "tempo": 120.0
            },
            {
                "start_time": 3.4454545454545453,
                "end_time": 3.4795454545454545,
                "pitch": 29,
                "velocity": 101,
                "duration": 0.03409090909090917,
                "tempo": 120.0
            },
            {
                "start_time": 3.8477272727272727,
                "end_time": 3.8795454545454544,
                "pitch": 33,
                "velocity": 101,
                "duration": 0.031818181818181746,
                "tempo": 120.0
            },
            {
                "start_time": 4.047727272727273,
                "end_time": 4.079545454545454,
                "pitch": 31,
                "velocity": 101,
                "duration": 0.0318181818181813,
                "tempo": 120.0
            },
            {
                "start_time": 4.747727272727272,
                "end_time": 4.831818181818182,
                "pitch": 29,
                "velocity": 101,
                "duration": 0.08409090909090988,
                "tempo": 120.0
            },
            {
                "start_time": 4.947727272727272,
                "end_time": 4.9795454545454545,
                "pitch": 29,
                "velocity": 101,
                "duration": 0.03181818181818219,
                "tempo": 120.0
            },
            {
                "start_time": 5.045454545454545,
                "end_time": 5.077272727272727,
                "pitch": 29,
                "velocity": 101,
                "duration": 0.03181818181818219,
                "tempo": 120.0
            },
            {
                "start_time": 5.24090909090909,
                "end_time": 5.327272727272727,
                "pitch": 31,
                "velocity": 101,
                "duration": 0.08636363636363686,
                "tempo": 120.0
            },
            {
                "start_time": 5.447727272727272,
                "end_time": 5.55,
                "pitch": 33,
                "velocity": 101,
                "duration": 0.10227272727272751,
                "tempo": 120.0
            },
            {
                "start_time": 5.652272727272727,
                "end_time": 5.6863636363636365,
                "pitch": 31,
                "velocity": 101,
                "duration": 0.03409090909090917,
                "tempo": 120.0
            },
            {
                "start_time": 5.8545454545454545,
                "end_time": 6.2340909090909085,
                "pitch": 36,
                "velocity": 101,
                "duration": 0.37954545454545396,
                "tempo": 120.0
            },
            {
                "start_time": 6.2340909090909085,
                "end_time": 6.445454545454545,
                "pitch": 35,
                "velocity": 101,
                "duration": 0.21136363636363686,
                "tempo": 120.0
            },
            {
                "start_time": 6.445454545454545,
                "end_time": 6.4795454545454545,
                "pitch": 33,
                "velocity": 101,
                "duration": 0.03409090909090917,
                "tempo": 120.0
            },
            {
                "start_time": 6.531818181818181,
                "end_time": 6.584090909090909,
                "pitch": 33,
                "velocity": 101,
                "duration": 0.05227272727272769,
                "tempo": 120.0
            },
            {
                "start_time": 6.652272727272727,
                "end_time": 6.686363636363636,
                "pitch": 33,
                "velocity": 101,
                "duration": 0.034090909090908283,
                "tempo": 120.0
            },
            {
                "start_time": 7.052272727272727,
                "end_time": 7.084090909090909,
                "pitch": 36,
                "velocity": 101,
                "duration": 0.03181818181818219,
                "tempo": 120.0
            },
            {
                "start_time": 7.25,
                "end_time": 7.284090909090909,
                "pitch": 35,
                "velocity": 101,
                "duration": 0.03409090909090917,
                "tempo": 120.0
            },
            {
                "start_time": 7.559090909090909,
                "end_time": 7.963636363636363,
                "pitch": 31,
                "velocity": 101,
                "duration": 0.4045454545454543,
                "tempo": 120.0
            },
            {
                "start_time": 7.963636363636363,
                "end_time": 8.161363636363635,
                "pitch": 33,
                "velocity": 101,
                "duration": 0.1977272727272723,
                "tempo": 120.0
            },
            {
                "start_time": 8.161363636363635,
                "end_time": 8.193181818181818,
                "pitch": 33,
                "velocity": 101,
                "duration": 0.03181818181818308,
                "tempo": 120.0
            },
            {
                "start_time": 8.259090909090908,
                "end_time": 8.293181818181818,
                "pitch": 33,
                "velocity": 101,
                "duration": 0.03409090909091006,
                "tempo": 120.0
            },
            {
                "start_time": 8.456818181818182,
                "end_time": 8.538636363636364,
                "pitch": 35,
                "velocity": 101,
                "duration": 0.08181818181818201,
                "tempo": 120.0
            },
            {
                "start_time": 8.656818181818181,
                "end_time": 8.756818181818181,
                "pitch": 36,
                "velocity": 101,
                "duration": 0.09999999999999964,
                "tempo": 120.0
            },
            {
                "start_time": 8.85909090909091,
                "end_time": 8.893181818181818,
                "pitch": 35,
                "velocity": 101,
                "duration": 0.034090909090908283,
                "tempo": 120.0
            },
            {
                "start_time": 9.470454545454546,
                "end_time": 9.570454545454545,
                "pitch": 31,
                "velocity": 101,
                "duration": 0.09999999999999964,
                "tempo": 120.0
            },
            {
                "start_time": 9.672727272727272,
                "end_time": 9.704545454545453,
                "pitch": 29,
                "velocity": 101,
                "duration": 0.0318181818181813,
                "tempo": 120.0
            },
            {
                "start_time": 9.772727272727272,
                "end_time": 9.804545454545455,
                "pitch": 29,
                "velocity": 101,
                "duration": 0.03181818181818308,
                "tempo": 120.0
            },
            {
                "start_time": 9.872727272727273,
                "end_time": 9.904545454545454,
                "pitch": 29,
                "velocity": 101,
                "duration": 0.0318181818181813,
                "tempo": 120.0
            },
            {
                "start_time": 10.272727272727272,
                "end_time": 10.306818181818182,
                "pitch": 33,
                "velocity": 101,
                "duration": 0.03409090909091006,
                "tempo": 120.0
            },
            {
                "start_time": 10.475,
                "end_time": 10.509090909090908,
                "pitch": 31,
                "velocity": 101,
                "duration": 0.034090909090908283,
                "tempo": 120.0
            },
            {
                "start_time": 11.179545454545455,
                "end_time": 11.263636363636364,
                "pitch": 29,
                "velocity": 101,
                "duration": 0.084090909090909,
                "tempo": 120.0
            },
            {
                "start_time": 11.377272727272727,
                "end_time": 11.411363636363635,
                "pitch": 29,
                "velocity": 101,
                "duration": 0.034090909090908283,
                "tempo": 120.0
            },
            {
                "start_time": 11.477272727272727,
                "end_time": 11.509090909090908,
                "pitch": 29,
                "velocity": 101,
                "duration": 0.0318181818181813,
                "tempo": 120.0
            },
            {
                "start_time": 11.672727272727272,
                "end_time": 11.756818181818181,
                "pitch": 31,
                "velocity": 101,
                "duration": 0.084090909090909,
                "tempo": 120.0
            },
            {
                "start_time": 11.877272727272727,
                "end_time": 11.979545454545454,
                "pitch": 33,
                "velocity": 101,
                "duration": 0.10227272727272663,
                "tempo": 120.0
            },
            {
                "start_time": 12.084090909090909,
                "end_time": 12.11590909090909,
                "pitch": 31,
                "velocity": 101,
                "duration": 0.0318181818181813,
                "tempo": 120.0
            },
            {
                "start_time": 12.284090909090908,
                "end_time": 12.686363636363636,
                "pitch": 36,
                "velocity": 101,
                "duration": 0.40227272727272734,
                "tempo": 120.0
            },
            {
                "start_time": 12.686363636363636,
                "end_time": 12.886363636363635,
                "pitch": 35,
                "velocity": 101,
                "duration": 0.1999999999999993,
                "tempo": 120.0
            },
            {
                "start_time": 12.886363636363635,
                "end_time": 12.920454545454545,
                "pitch": 33,
                "velocity": 101,
                "duration": 0.03409090909091006,
                "tempo": 120.0
            },
            {
                "start_time": 12.986363636363636,
                "end_time": 13.020454545454545,
                "pitch": 33,
                "velocity": 101,
                "duration": 0.034090909090908283,
                "tempo": 120.0
            },
            {
                "start_time": 13.088636363636363,
                "end_time": 13.138636363636364,
                "pitch": 33,
                "velocity": 101,
                "duration": 0.05000000000000071,
                "tempo": 120.0
            },
            {
                "start_time": 13.486363636363636,
                "end_time": 13.518181818181818,
                "pitch": 36,
                "velocity": 101,
                "duration": 0.0318181818181813,
                "tempo": 120.0
            },
            {
                "start_time": 13.684090909090909,
                "end_time": 13.718181818181817,
                "pitch": 35,
                "velocity": 101,
                "duration": 0.034090909090908283,
                "tempo": 120.0
            },
            {
                "start_time": 13.99090909090909,
                "end_time": 14.395454545454545,
                "pitch": 31,
                "velocity": 101,
                "duration": 0.4045454545454543,
                "tempo": 120.0
            },
            {
                "start_time": 14.395454545454545,
                "end_time": 14.595454545454544,
                "pitch": 33,
                "velocity": 101,
                "duration": 0.1999999999999993,
                "tempo": 120.0
            },
            {
                "start_time": 14.595454545454544,
                "end_time": 14.627272727272727,
                "pitch": 33,
                "velocity": 101,
                "duration": 0.03181818181818308,
                "tempo": 120.0
            },
            {
                "start_time": 14.693181818181818,
                "end_time": 14.725,
                "pitch": 33,
                "velocity": 101,
                "duration": 0.0318181818181813,
                "tempo": 120.0
            },
            {
                "start_time": 14.888636363636364,
                "end_time": 14.975,
                "pitch": 35,
                "velocity": 101,
                "duration": 0.08636363636363598,
                "tempo": 120.0
            },
            {
                "start_time": 15.095454545454544,
                "end_time": 15.197727272727272,
                "pitch": 36,
                "velocity": 101,
                "duration": 0.1022727272727284,
                "tempo": 120.0
            },
            {
                "start_time": 15.299999999999999,
                "end_time": 15.334090909090909,
                "pitch": 35,
                "velocity": 101,
                "duration": 0.03409090909091006,
                "tempo": 120.0
            },
            {
                "start_time": 15.902272727272727,
                "end_time": 16.002272727272725,
                "pitch": 31,
                "velocity": 101,
                "duration": 0.09999999999999787,
                "tempo": 120.0
            },
            {
                "start_time": 16.102272727272727,
                "end_time": 16.136363636363637,
                "pitch": 29,
                "velocity": 101,
                "duration": 0.03409090909091006,
                "tempo": 120.0
            },
            {
                "start_time": 16.204545454545453,
                "end_time": 16.236363636363635,
                "pitch": 29,
                "velocity": 101,
                "duration": 0.0318181818181813,
                "tempo": 120.0
            },
            {
                "start_time": 16.304545454545455,
                "end_time": 16.33863636363636,
                "pitch": 29,
                "velocity": 101,
                "duration": 0.03409090909090651,
                "tempo": 120.0
            },
            {
                "start_time": 16.706818181818182,
                "end_time": 16.74090909090909,
                "pitch": 33,
                "velocity": 101,
                "duration": 0.03409090909090651,
                "tempo": 120.0
            },
            {
                "start_time": 16.909090909090907,
                "end_time": 16.94090909090909,
                "pitch": 31,
                "velocity": 101,
                "duration": 0.031818181818184854,
                "tempo": 120.0
            },
            {
                "start_time": 17.60909090909091,
                "end_time": 17.69090909090909,
                "pitch": 29,
                "velocity": 101,
                "duration": 0.08181818181818201,
                "tempo": 120.0
            },
            {
                "start_time": 17.80681818181818,
                "end_time": 17.83863636363636,
                "pitch": 29,
                "velocity": 101,
                "duration": 0.0318181818181813,
                "tempo": 120.0
            },
            {
                "start_time": 17.904545454545453,
                "end_time": 17.936363636363634,
                "pitch": 29,
                "velocity": 101,
                "duration": 0.0318181818181813,
                "tempo": 120.0
            },
            {
                "start_time": 18.099999999999998,
                "end_time": 18.186363636363634,
                "pitch": 31,
                "velocity": 101,
                "duration": 0.08636363636363598,
                "tempo": 120.0
            },
            {
                "start_time": 18.30681818181818,
                "end_time": 18.409090909090907,
                "pitch": 33,
                "velocity": 101,
                "duration": 0.10227272727272663,
                "tempo": 120.0
            },
            {
                "start_time": 18.511363636363637,
                "end_time": 18.545454545454543,
                "pitch": 31,
                "velocity": 101,
                "duration": 0.03409090909090651,
                "tempo": 120.0
            },
            {
                "start_time": 18.71363636363636,
                "end_time": 19.111363636363635,
                "pitch": 36,
                "velocity": 101,
                "duration": 0.3977272727272734,
                "tempo": 120.0
            },
            {
                "start_time": 19.111363636363635,
                "end_time": 19.311363636363634,
                "pitch": 35,
                "velocity": 101,
                "duration": 0.1999999999999993,
                "tempo": 120.0
            },
            {
                "start_time": 19.311363636363634,
                "end_time": 19.361363636363635,
                "pitch": 33,
                "velocity": 101,
                "duration": 0.05000000000000071,
                "tempo": 120.0
            },
            {
                "start_time": 19.429545454545455,
                "end_time": 19.461363636363636,
                "pitch": 33,
                "velocity": 101,
                "duration": 0.0318181818181813,
                "tempo": 120.0
            },
            {
                "start_time": 19.529545454545453,
                "end_time": 19.579545454545453,
                "pitch": 33,
                "velocity": 101,
                "duration": 0.05000000000000071,
                "tempo": 120.0
            },
            {
                "start_time": 19.93409090909091,
                "end_time": 19.96818181818182,
                "pitch": 36,
                "velocity": 101,
                "duration": 0.03409090909091006,
                "tempo": 120.0
            },
            {
                "start_time": 20.143181818181816,
                "end_time": 20.177272727272726,
                "pitch": 35,
                "velocity": 101,
                "duration": 0.03409090909091006,
                "tempo": 120.0
            },
            {
                "start_time": 20.45,
                "end_time": 20.854545454545452,
                "pitch": 31,
                "velocity": 101,
                "duration": 0.40454545454545254,
                "tempo": 120.0
            },
            {
                "start_time": 20.854545454545452,
                "end_time": 21.054545454545455,
                "pitch": 33,
                "velocity": 101,
                "duration": 0.20000000000000284,
                "tempo": 120.0
            },
            {
                "start_time": 21.054545454545455,
                "end_time": 21.086363636363636,
                "pitch": 33,
                "velocity": 101,
                "duration": 0.0318181818181813,
                "tempo": 120.0
            },
            {
                "start_time": 21.152272727272727,
                "end_time": 21.18409090909091,
                "pitch": 33,
                "velocity": 101,
                "duration": 0.0318181818181813,
                "tempo": 120.0
            },
            {
                "start_time": 21.347727272727273,
                "end_time": 21.43409090909091,
                "pitch": 35,
                "velocity": 101,
                "duration": 0.08636363636363598,
                "tempo": 120.0
            },
            {
                "start_time": 21.552272727272726,
                "end_time": 21.65681818181818,
                "pitch": 36,
                "velocity": 101,
                "duration": 0.10454545454545539,
                "tempo": 120.0
            },
            {
                "start_time": 21.759090909090908,
                "end_time": 21.793181818181818,
                "pitch": 35,
                "velocity": 101,
                "duration": 0.03409090909091006,
                "tempo": 120.0
            },
            {
                "start_time": 22.361363636363635,
                "end_time": 22.461363636363636,
                "pitch": 31,
                "velocity": 101,
                "duration": 0.10000000000000142,
                "tempo": 120.0
            },
            {
                "start_time": 22.561363636363634,
                "end_time": 22.595454545454544,
                "pitch": 29,
                "velocity": 101,
                "duration": 0.03409090909091006,
                "tempo": 120.0
            },
            {
                "start_time": 22.661363636363635,
                "end_time": 22.695454545454545,
                "pitch": 29,
                "velocity": 101,
                "duration": 0.03409090909091006,
                "tempo": 120.0
            },
            {
                "start_time": 22.763636363636362,
                "end_time": 22.795454545454543,
                "pitch": 29,
                "velocity": 101,
                "duration": 0.0318181818181813,
                "tempo": 120.0
            },
            {
                "start_time": 23.163636363636364,
                "end_time": 23.19772727272727,
                "pitch": 33,
                "velocity": 101,
                "duration": 0.03409090909090651,
                "tempo": 120.0
            },
            {
                "start_time": 23.363636363636363,
                "end_time": 23.39772727272727,
                "pitch": 31,
                "velocity": 101,
                "duration": 0.03409090909090651,
                "tempo": 120.0
            },
            {
                "start_time": 24.06590909090909,
                "end_time": 24.15,
                "pitch": 29,
                "velocity": 101,
                "duration": 0.08409090909090722,
                "tempo": 120.0
            },
            {
                "start_time": 24.26590909090909,
                "end_time": 24.297727272727272,
                "pitch": 29,
                "velocity": 101,
                "duration": 0.0318181818181813,
                "tempo": 120.0
            },
            {
                "start_time": 24.363636363636363,
                "end_time": 24.395454545454545,
                "pitch": 29,
                "velocity": 101,
                "duration": 0.0318181818181813,
                "tempo": 120.0
            },
            {
                "start_time": 24.55909090909091,
                "end_time": 24.645454545454545,
                "pitch": 31,
                "velocity": 101,
                "duration": 0.08636363636363598,
                "tempo": 120.0
            },
            {
                "start_time": 24.763636363636362,
                "end_time": 24.868181818181817,
                "pitch": 33,
                "velocity": 101,
                "duration": 0.10454545454545539,
                "tempo": 120.0
            },
            {
                "start_time": 24.970454545454544,
                "end_time": 25.002272727272725,
                "pitch": 31,
                "velocity": 101,
                "duration": 0.0318181818181813,
                "tempo": 120.0
            },
            {
                "start_time": 25.170454545454543,
                "end_time": 25.563636363636363,
                "pitch": 36,
                "velocity": 101,
                "duration": 0.3931818181818194,
                "tempo": 120.0
            },
            {
                "start_time": 25.563636363636363,
                "end_time": 25.777272727272727,
                "pitch": 35,
                "velocity": 101,
                "duration": 0.21363636363636473,
                "tempo": 120.0
            },
            {
                "start_time": 25.777272727272727,
                "end_time": 25.811363636363634,
                "pitch": 33,
                "velocity": 101,
                "duration": 0.03409090909090651,
                "tempo": 120.0
            },
            {
                "start_time": 25.88181818181818,
                "end_time": 25.918181818181818,
                "pitch": 33,
                "velocity": 101,
                "duration": 0.03636363636363882,
                "tempo": 120.0
            },
            {
                "start_time": 25.988636363636363,
                "end_time": 26.04090909090909,
                "pitch": 33,
                "velocity": 101,
                "duration": 0.052272727272725916,
                "tempo": 120.0
            },
            {
                "start_time": 26.4,
                "end_time": 26.43409090909091,
                "pitch": 36,
                "velocity": 101,
                "duration": 0.03409090909091006,
                "tempo": 120.0
            },
            {
                "start_time": 26.604545454545452,
                "end_time": 26.638636363636362,
                "pitch": 35,
                "velocity": 101,
                "duration": 0.03409090909091006,
                "tempo": 120.0
            },
            {
                "start_time": 26.904545454545453,
                "end_time": 27.311363636363634,
                "pitch": 31,
                "velocity": 101,
                "duration": 0.4068181818181813,
                "tempo": 120.0
            },
            {
                "start_time": 27.311363636363634,
                "end_time": 27.511363636363637,
                "pitch": 33,
                "velocity": 101,
                "duration": 0.20000000000000284,
                "tempo": 120.0
            },
            {
                "start_time": 27.511363636363637,
                "end_time": 27.545454545454543,
                "pitch": 33,
                "velocity": 101,
                "duration": 0.03409090909090651,
                "tempo": 120.0
            },
            {
                "start_time": 27.611363636363635,
                "end_time": 27.643181818181816,
                "pitch": 33,
                "velocity": 101,
                "duration": 0.0318181818181813,
                "tempo": 120.0
            },
            {
                "start_time": 27.80681818181818,
                "end_time": 27.89090909090909,
                "pitch": 35,
                "velocity": 101,
                "duration": 0.08409090909091077,
                "tempo": 120.0
            },
            {
                "start_time": 28.00681818181818,
                "end_time": 28.10681818181818,
                "pitch": 36,
                "velocity": 101,
                "duration": 0.10000000000000142,
                "tempo": 120.0
            },
            {
                "start_time": 28.206818181818182,
                "end_time": 28.24090909090909,
                "pitch": 35,
                "velocity": 101,
                "duration": 0.03409090909090651,
                "tempo": 120.0
            },
            {
                "start_time": 28.813636363636363,
                "end_time": 28.911363636363635,
                "pitch": 31,
                "velocity": 101,
                "duration": 0.09772727272727266,
                "tempo": 120.0
            },
            {
                "start_time": 29.009090909090908,
                "end_time": 29.043181818181818,
                "pitch": 29,
                "velocity": 101,
                "duration": 0.03409090909091006,
                "tempo": 120.0
            },
            {
                "start_time": 29.111363636363635,
                "end_time": 29.143181818181816,
                "pitch": 29,
                "velocity": 101,
                "duration": 0.0318181818181813,
                "tempo": 120.0
            },
            {
                "start_time": 29.211363636363636,
                "end_time": 29.245454545454542,
                "pitch": 29,
                "velocity": 101,
                "duration": 0.03409090909090651,
                "tempo": 120.0
            },
            {
                "start_time": 29.611363636363635,
                "end_time": 29.645454545454545,
                "pitch": 33,
                "velocity": 101,
                "duration": 0.03409090909091006,
                "tempo": 120.0
            },
            {
                "start_time": 29.811363636363634,
                "end_time": 29.845454545454544,
                "pitch": 31,
                "velocity": 101,
                "duration": 0.03409090909091006,
                "tempo": 120.0
            },
            {
                "start_time": 30.520454545454545,
                "end_time": 30.60681818181818,
                "pitch": 29,
                "velocity": 101,
                "duration": 0.08636363636363598,
                "tempo": 120.0
            },
            {
                "start_time": 30.718181818181815,
                "end_time": 30.75,
                "pitch": 29,
                "velocity": 101,
                "duration": 0.031818181818184854,
                "tempo": 120.0
            },
            {
                "start_time": 30.813636363636363,
                "end_time": 30.845454545454544,
                "pitch": 29,
                "velocity": 101,
                "duration": 0.0318181818181813,
                "tempo": 120.0
            },
            {
                "start_time": 31.004545454545454,
                "end_time": 31.09090909090909,
                "pitch": 31,
                "velocity": 101,
                "duration": 0.08636363636363598,
                "tempo": 120.0
            },
            {
                "start_time": 31.209090909090907,
                "end_time": 31.313636363636363,
                "pitch": 33,
                "velocity": 101,
                "duration": 0.10454545454545539,
                "tempo": 120.0
            },
            {
                "start_time": 31.41590909090909,
                "end_time": 31.45,
                "pitch": 31,
                "velocity": 101,
                "duration": 0.03409090909091006,
                "tempo": 120.0
            },
            {
                "start_time": 31.61590909090909,
                "end_time": 31.995454545454542,
                "pitch": 36,
                "velocity": 101,
                "duration": 0.37954545454545396,
                "tempo": 120.0
            },
            {
                "start_time": 31.995454545454542,
                "end_time": 32.19090909090909,
                "pitch": 35,
                "velocity": 101,
                "duration": 0.19545454545454533,
                "tempo": 120.0
            },
            {
                "start_time": 32.19090909090909,
                "end_time": 32.24090909090909,
                "pitch": 33,
                "velocity": 101,
                "duration": 0.05000000000000426,
                "tempo": 120.0
            },
            {
                "start_time": 32.293181818181814,
                "end_time": 32.345454545454544,
                "pitch": 33,
                "velocity": 101,
                "duration": 0.05227272727272947,
                "tempo": 120.0
            },
            {
                "start_time": 32.39545454545454,
                "end_time": 32.44772727272727,
                "pitch": 33,
                "velocity": 101,
                "duration": 0.05227272727272947,
                "tempo": 120.0
            },
            {
                "start_time": 32.81818181818182,
                "end_time": 32.85227272727273,
                "pitch": 36,
                "velocity": 101,
                "duration": 0.03409090909090651,
                "tempo": 120.0
            },
            {
                "start_time": 33.02272727272727,
                "end_time": 33.054545454545455,
                "pitch": 35,
                "velocity": 101,
                "duration": 0.0318181818181813,
                "tempo": 120.0
            },
            {
                "start_time": 33.320454545454545,
                "end_time": 33.72954545454545,
                "pitch": 31,
                "velocity": 101,
                "duration": 0.4090909090909065,
                "tempo": 120.0
            },
            {
                "start_time": 33.72954545454545,
                "end_time": 33.929545454545455,
                "pitch": 33,
                "velocity": 101,
                "duration": 0.20000000000000284,
                "tempo": 120.0
            },
            {
                "start_time": 33.929545454545455,
                "end_time": 33.96363636363636,
                "pitch": 33,
                "velocity": 101,
                "duration": 0.03409090909090651,
                "tempo": 120.0
            },
            {
                "start_time": 34.027272727272724,
                "end_time": 34.06136363636364,
                "pitch": 33,
                "velocity": 101,
                "duration": 0.03409090909091361,
                "tempo": 120.0
            },
            {
                "start_time": 34.225,
                "end_time": 34.30681818181818,
                "pitch": 35,
                "velocity": 101,
                "duration": 0.08181818181817846,
                "tempo": 120.0
            },
            {
                "start_time": 34.425,
                "end_time": 34.525,
                "pitch": 36,
                "velocity": 101,
                "duration": 0.10000000000000142,
                "tempo": 120.0
            },
            {
                "start_time": 34.625,
                "end_time": 34.65909090909091,
                "pitch": 35,
                "velocity": 101,
                "duration": 0.03409090909090651,
                "tempo": 120.0
            },
            {
                "start_time": 35.23181818181818,
                "end_time": 35.32954545454545,
                "pitch": 31,
                "velocity": 101,
                "duration": 0.09772727272727622,
                "tempo": 120.0
            },
            {
                "start_time": 35.42727272727272,
                "end_time": 35.461363636363636,
                "pitch": 29,
                "velocity": 101,
                "duration": 0.03409090909091361,
                "tempo": 120.0
            },
            {
                "start_time": 35.527272727272724,
                "end_time": 35.56136363636364,
                "pitch": 29,
                "velocity": 101,
                "duration": 0.03409090909091361,
                "tempo": 120.0
            },
            {
                "start_time": 35.627272727272725,
                "end_time": 35.66136363636363,
                "pitch": 29,
                "velocity": 101,
                "duration": 0.03409090909090651,
                "tempo": 120.0
            },
            {
                "start_time": 36.03181818181818,
                "end_time": 36.06590909090909,
                "pitch": 33,
                "velocity": 101,
                "duration": 0.03409090909090651,
                "tempo": 120.0
            },
            {
                "start_time": 36.23863636363636,
                "end_time": 36.27045454545454,
                "pitch": 31,
                "velocity": 101,
                "duration": 0.0318181818181813,
                "tempo": 120.0
            },
            {
                "start_time": 36.93863636363636,
                "end_time": 37.02272727272727,
                "pitch": 29,
                "velocity": 101,
                "duration": 0.08409090909091077,
                "tempo": 120.0
            },
            {
                "start_time": 37.13636363636363,
                "end_time": 37.168181818181814,
                "pitch": 29,
                "velocity": 101,
                "duration": 0.0318181818181813,
                "tempo": 120.0
            },
            {
                "start_time": 37.23181818181818,
                "end_time": 37.26363636363636,
                "pitch": 29,
                "velocity": 101,
                "duration": 0.0318181818181813,
                "tempo": 120.0
            },
            {
                "start_time": 37.42272727272727,
                "end_time": 37.525,
                "pitch": 31,
                "velocity": 101,
                "duration": 0.10227272727272663,
                "tempo": 120.0
            },
            {
                "start_time": 37.627272727272725,
                "end_time": 37.71363636363636,
                "pitch": 33,
                "velocity": 101,
                "duration": 0.08636363636363598,
                "tempo": 120.0
            },
            {
                "start_time": 37.83409090909091,
                "end_time": 37.86590909090909,
                "pitch": 31,
                "velocity": 101,
                "duration": 0.0318181818181813,
                "tempo": 120.0
            },
            {
                "start_time": 38.03409090909091,
                "end_time": 38.41136363636363,
                "pitch": 36,
                "velocity": 101,
                "duration": 0.3772727272727252,
                "tempo": 120.0
            },
            {
                "start_time": 38.42727272727272,
                "end_time": 38.62272727272727,
                "pitch": 35,
                "velocity": 101,
                "duration": 0.19545454545454533,
                "tempo": 120.0
            },
            {
                "start_time": 38.62272727272727,
                "end_time": 38.675,
                "pitch": 33,
                "velocity": 101,
                "duration": 0.05227272727272947,
                "tempo": 120.0
            },
            {
                "start_time": 38.72727272727273,
                "end_time": 38.777272727272724,
                "pitch": 33,
                "velocity": 101,
                "duration": 0.04999999999999716,
                "tempo": 120.0
            },
            {
                "start_time": 38.82954545454545,
                "end_time": 38.87954545454545,
                "pitch": 33,
                "velocity": 101,
                "duration": 0.04999999999999716,
                "tempo": 120.0
            },
            {
                "start_time": 39.23409090909091,
                "end_time": 39.28409090909091,
                "pitch": 36,
                "velocity": 101,
                "duration": 0.04999999999999716,
                "tempo": 120.0
            },
            {
                "start_time": 39.434090909090905,
                "end_time": 39.48409090909091,
                "pitch": 35,
                "velocity": 101,
                "duration": 0.05000000000000426,
                "tempo": 120.0
            },
            {
                "start_time": 39.73409090909091,
                "end_time": 40.143181818181816,
                "pitch": 31,
                "velocity": 101,
                "duration": 0.4090909090909065,
                "tempo": 120.0
            },
            {
                "start_time": 40.143181818181816,
                "end_time": 40.340909090909086,
                "pitch": 33,
                "velocity": 101,
                "duration": 0.19772727272727053,
                "tempo": 120.0
            },
            {
                "start_time": 40.340909090909086,
                "end_time": 40.38863636363636,
                "pitch": 33,
                "velocity": 101,
                "duration": 0.04772727272727195,
                "tempo": 120.0
            },
            {
                "start_time": 40.43636363636364,
                "end_time": 40.48409090909091,
                "pitch": 33,
                "velocity": 101,
                "duration": 0.04772727272727195,
                "tempo": 120.0
            },
            {
                "start_time": 40.627272727272725,
                "end_time": 40.72954545454545,
                "pitch": 35,
                "velocity": 101,
                "duration": 0.10227272727272663,
                "tempo": 120.0
            },
            {
                "start_time": 40.83181818181818,
                "end_time": 40.934090909090905,
                "pitch": 36,
                "velocity": 101,
                "duration": 0.10227272727272663,
                "tempo": 120.0
            },
            {
                "start_time": 41.04090909090909,
                "end_time": 41.074999999999996,
                "pitch": 35,
                "velocity": 101,
                "duration": 0.03409090909090651,
                "tempo": 120.0
            },
            {
                "start_time": 41.65,
                "end_time": 41.75,
                "pitch": 31,
                "velocity": 101,
                "duration": 0.10000000000000142,
                "tempo": 120.0
            },
            {
                "start_time": 41.85,
                "end_time": 41.88409090909091,
                "pitch": 29,
                "velocity": 101,
                "duration": 0.03409090909090651,
                "tempo": 120.0
            },
            {
                "start_time": 41.949999999999996,
                "end_time": 41.98409090909091,
                "pitch": 29,
                "velocity": 101,
                "duration": 0.03409090909091361,
                "tempo": 120.0
            },
            {
                "start_time": 42.05,
                "end_time": 42.084090909090904,
                "pitch": 29,
                "velocity": 101,
                "duration": 0.03409090909090651,
                "tempo": 120.0
            },
            {
                "start_time": 42.44772727272727,
                "end_time": 42.47954545454545,
                "pitch": 33,
                "velocity": 101,
                "duration": 0.0318181818181813,
                "tempo": 120.0
            },
            {
                "start_time": 42.643181818181816,
                "end_time": 42.67727272727272,
                "pitch": 31,
                "velocity": 101,
                "duration": 0.03409090909090651,
                "tempo": 120.0
            },
            {
                "start_time": 43.35454545454545,
                "end_time": 43.45681818181818,
                "pitch": 29,
                "velocity": 101,
                "duration": 0.10227272727272663,
                "tempo": 120.0
            },
            {
                "start_time": 43.554545454545455,
                "end_time": 43.586363636363636,
                "pitch": 29,
                "velocity": 101,
                "duration": 0.0318181818181813,
                "tempo": 120.0
            },
            {
                "start_time": 43.652272727272724,
                "end_time": 43.684090909090905,
                "pitch": 29,
                "velocity": 101,
                "duration": 0.0318181818181813,
                "tempo": 120.0
            },
            {
                "start_time": 43.84772727272727,
                "end_time": 43.94772727272727,
                "pitch": 31,
                "velocity": 101,
                "duration": 0.10000000000000142,
                "tempo": 120.0
            },
            {
                "start_time": 44.04772727272727,
                "end_time": 44.14772727272727,
                "pitch": 33,
                "velocity": 101,
                "duration": 0.10000000000000142,
                "tempo": 120.0
            },
            {
                "start_time": 44.24772727272727,
                "end_time": 44.3,
                "pitch": 31,
                "velocity": 101,
                "duration": 0.05227272727272947,
                "tempo": 120.0
            },
            {
                "start_time": 44.45454545454545,
                "end_time": 44.85454545454545,
                "pitch": 36,
                "velocity": 101,
                "duration": 0.3999999999999986,
                "tempo": 120.0
            },
            {
                "start_time": 44.85454545454545,
                "end_time": 45.05227272727272,
                "pitch": 35,
                "velocity": 101,
                "duration": 0.19772727272727053,
                "tempo": 120.0
            },
            {
                "start_time": 45.05227272727272,
                "end_time": 45.10227272727273,
                "pitch": 33,
                "velocity": 101,
                "duration": 0.05000000000000426,
                "tempo": 120.0
            },
            {
                "start_time": 45.152272727272724,
                "end_time": 45.20227272727273,
                "pitch": 33,
                "velocity": 101,
                "duration": 0.05000000000000426,
                "tempo": 120.0
            },
            {
                "start_time": 45.252272727272725,
                "end_time": 45.30227272727272,
                "pitch": 33,
                "velocity": 101,
                "duration": 0.04999999999999716,
                "tempo": 120.0
            },
            {
                "start_time": 45.652272727272724,
                "end_time": 45.70227272727273,
                "pitch": 36,
                "velocity": 101,
                "duration": 0.05000000000000426,
                "tempo": 120.0
            },
            {
                "start_time": 45.85227272727273,
                "end_time": 45.902272727272724,
                "pitch": 35,
                "velocity": 101,
                "duration": 0.04999999999999716,
                "tempo": 120.0
            },
            {
                "start_time": 46.152272727272724,
                "end_time": 46.559090909090905,
                "pitch": 31,
                "velocity": 101,
                "duration": 0.4068181818181813,
                "tempo": 120.0
            },
            {
                "start_time": 46.559090909090905,
                "end_time": 46.75909090909091,
                "pitch": 33,
                "velocity": 101,
                "duration": 0.20000000000000284,
                "tempo": 120.0
            },
            {
                "start_time": 46.75909090909091,
                "end_time": 46.809090909090905,
                "pitch": 33,
                "velocity": 101,
                "duration": 0.04999999999999716,
                "tempo": 120.0
            },
            {
                "start_time": 46.85909090909091,
                "end_time": 46.90681818181818,
                "pitch": 33,
                "velocity": 101,
                "duration": 0.04772727272727195,
                "tempo": 120.0
            },
            {
                "start_time": 47.054545454545455,
                "end_time": 47.15454545454545,
                "pitch": 35,
                "velocity": 101,
                "duration": 0.09999999999999432,
                "tempo": 120.0
            },
            {
                "start_time": 47.25454545454545,
                "end_time": 47.35454545454545,
                "pitch": 36,
                "velocity": 101,
                "duration": 0.10000000000000142,
                "tempo": 120.0
            },
            {
                "start_time": 47.45454545454545,
                "end_time": 47.48863636363636,
                "pitch": 35,
                "velocity": 101,
                "duration": 0.03409090909090651,
                "tempo": 120.0
            },
            {
                "start_time": 48.06590909090909,
                "end_time": 48.16590909090909,
                "pitch": 31,
                "velocity": 101,
                "duration": 0.10000000000000142,
                "tempo": 120.0
            },
            {
                "start_time": 48.26590909090909,
                "end_time": 48.3,
                "pitch": 29,
                "velocity": 101,
                "duration": 0.03409090909090651,
                "tempo": 120.0
            },
            {
                "start_time": 48.36590909090909,
                "end_time": 48.4,
                "pitch": 29,
                "velocity": 101,
                "duration": 0.03409090909090651,
                "tempo": 120.0
            },
            {
                "start_time": 48.465909090909086,
                "end_time": 48.5,
                "pitch": 29,
                "velocity": 101,
                "duration": 0.03409090909091361,
                "tempo": 120.0
            },
            {
                "start_time": 48.86363636363636,
                "end_time": 48.89772727272727,
                "pitch": 33,
                "velocity": 101,
                "duration": 0.03409090909091361,
                "tempo": 120.0
            },
            {
                "start_time": 49.06136363636364,
                "end_time": 49.095454545454544,
                "pitch": 31,
                "velocity": 101,
                "duration": 0.03409090909090651,
                "tempo": 120.0
            },
            {
                "start_time": 49.77045454545454,
                "end_time": 49.87045454545454,
                "pitch": 29,
                "velocity": 101,
                "duration": 0.10000000000000142,
                "tempo": 120.0
            },
            {
                "start_time": 49.96818181818182,
                "end_time": 50.002272727272725,
                "pitch": 29,
                "velocity": 101,
                "duration": 0.03409090909090651,
                "tempo": 120.0
            },
            {
                "start_time": 50.06818181818181,
                "end_time": 50.099999999999994,
                "pitch": 29,
                "velocity": 101,
                "duration": 0.0318181818181813,
                "tempo": 120.0
            },
            {
                "start_time": 50.26363636363636,
                "end_time": 50.36363636363636,
                "pitch": 31,
                "velocity": 101,
                "duration": 0.10000000000000142,
                "tempo": 120.0
            },
            {
                "start_time": 50.46363636363636,
                "end_time": 50.56363636363636,
                "pitch": 33,
                "velocity": 101,
                "duration": 0.10000000000000142,
                "tempo": 120.0
            },
            {
                "start_time": 50.663636363636364,
                "end_time": 50.71363636363636,
                "pitch": 31,
                "velocity": 101,
                "duration": 0.04999999999999716,
                "tempo": 120.0
            },
            {
                "start_time": 50.86818181818182,
                "end_time": 51.27045454545454,
                "pitch": 41,
                "velocity": 101,
                "duration": 0.4022727272727238,
                "tempo": 120.0
            },
            {
                "start_time": 51.27045454545454,
                "end_time": 51.465909090909086,
                "pitch": 41,
                "velocity": 101,
                "duration": 0.19545454545454533,
                "tempo": 120.0
            },
            {
                "start_time": 51.465909090909086,
                "end_time": 51.76590909090909,
                "pitch": 40,
                "velocity": 101,
                "duration": 0.30000000000000426,
                "tempo": 120.0
            },
            {
                "start_time": 52.06590909090909,
                "end_time": 52.215909090909086,
                "pitch": 36,
                "velocity": 101,
                "duration": 0.14999999999999858,
                "tempo": 120.0
            },
            {
                "start_time": 52.26590909090909,
                "end_time": 52.349999999999994,
                "pitch": 38,
                "velocity": 101,
                "duration": 0.08409090909090366,
                "tempo": 120.0
            },
            {
                "start_time": 52.465909090909086,
                "end_time": 52.615909090909085,
                "pitch": 31,
                "velocity": 101,
                "duration": 0.14999999999999858,
                "tempo": 120.0
            },
            {
                "start_time": 52.66590909090909,
                "end_time": 52.820454545454545,
                "pitch": 33,
                "velocity": 101,
                "duration": 0.1545454545454561,
                "tempo": 120.0
            },
            {
                "start_time": 52.87045454545454,
                "end_time": 53.025,
                "pitch": 36,
                "velocity": 101,
                "duration": 0.1545454545454561,
                "tempo": 120.0
            },
            {
                "start_time": 53.27272727272727,
                "end_time": 53.35454545454545,
                "pitch": 38,
                "velocity": 101,
                "duration": 0.08181818181817846,
                "tempo": 120.0
            },
            {
                "start_time": 53.675,
                "end_time": 53.74318181818182,
                "pitch": 36,
                "velocity": 101,
                "duration": 0.06818181818182012,
                "tempo": 120.0
            },
            {
                "start_time": 53.88181818181818,
                "end_time": 54.179545454545455,
                "pitch": 38,
                "velocity": 101,
                "duration": 0.29772727272727195,
                "tempo": 120.0
            },
            {
                "start_time": 54.27954545454545,
                "end_time": 54.58181818181818,
                "pitch": 40,
                "velocity": 101,
                "duration": 0.30227272727272947,
                "tempo": 120.0
            },
            {
                "start_time": 54.68181818181818,
                "end_time": 54.81590909090909,
                "pitch": 36,
                "velocity": 101,
                "duration": 0.13409090909090793,
                "tempo": 120.0
            },
            {
                "start_time": 54.88409090909091,
                "end_time": 55.01590909090909,
                "pitch": 33,
                "velocity": 101,
                "duration": 0.13181818181818272,
                "tempo": 120.0
            },
            {
                "start_time": 55.084090909090904,
                "end_time": 55.15,
                "pitch": 33,
                "velocity": 101,
                "duration": 0.06590909090909491,
                "tempo": 120.0
            },
            {
                "start_time": 55.28409090909091,
                "end_time": 55.349999999999994,
                "pitch": 31,
                "velocity": 101,
                "duration": 0.06590909090908781,
                "tempo": 120.0
            },
            {
                "start_time": 55.38409090909091,
                "end_time": 55.449999999999996,
                "pitch": 33,
                "velocity": 101,
                "duration": 0.06590909090908781,
                "tempo": 120.0
            },
            {
                "start_time": 56.074999999999996,
                "end_time": 56.14090909090909,
                "pitch": 36,
                "velocity": 101,
                "duration": 0.06590909090909491,
                "tempo": 120.0
            },
            {
                "start_time": 56.175,
                "end_time": 56.240909090909085,
                "pitch": 38,
                "velocity": 101,
                "duration": 0.06590909090908781,
                "tempo": 120.0
            },
            {
                "start_time": 56.275,
                "end_time": 56.40909090909091,
                "pitch": 40,
                "velocity": 101,
                "duration": 0.13409090909090793,
                "tempo": 120.0
            },
            {
                "start_time": 56.675,
                "end_time": 56.89772727272727,
                "pitch": 38,
                "velocity": 101,
                "duration": 0.22272727272727622,
                "tempo": 120.0
            },
            {
                "start_time": 56.98409090909091,
                "end_time": 57.05227272727272,
                "pitch": 36,
                "velocity": 101,
                "duration": 0.06818181818181301,
                "tempo": 120.0
            },
            {
                "start_time": 57.086363636363636,
                "end_time": 57.220454545454544,
                "pitch": 38,
                "velocity": 101,
                "duration": 0.13409090909090793,
                "tempo": 120.0
            },
            {
                "start_time": 57.28636363636363,
                "end_time": 57.42045454545454,
                "pitch": 36,
                "velocity": 101,
                "duration": 0.13409090909090793,
                "tempo": 120.0
            },
            {
                "start_time": 57.486363636363635,
                "end_time": 57.62045454545454,
                "pitch": 33,
                "velocity": 101,
                "duration": 0.13409090909090793,
                "tempo": 120.0
            },
            {
                "start_time": 57.68636363636363,
                "end_time": 57.820454545454545,
                "pitch": 36,
                "velocity": 101,
                "duration": 0.13409090909091503,
                "tempo": 120.0
            },
            {
                "start_time": 57.88636363636363,
                "end_time": 58.18636363636363,
                "pitch": 38,
                "velocity": 101,
                "duration": 0.29999999999999716,
                "tempo": 120.0
            },
            {
                "start_time": 58.48181818181818,
                "end_time": 58.61363636363636,
                "pitch": 36,
                "velocity": 101,
                "duration": 0.13181818181818272,
                "tempo": 120.0
            },
            {
                "start_time": 58.679545454545455,
                "end_time": 58.74772727272727,
                "pitch": 38,
                "velocity": 101,
                "duration": 0.06818181818181301,
                "tempo": 120.0
            },
            {
                "start_time": 58.88409090909091,
                "end_time": 59.02045454545454,
                "pitch": 31,
                "velocity": 101,
                "duration": 0.13636363636363313,
                "tempo": 120.0
            },
            {
                "start_time": 59.08863636363636,
                "end_time": 59.22272727272727,
                "pitch": 33,
                "velocity": 101,
                "duration": 0.13409090909090793,
                "tempo": 120.0
            },
            {
                "start_time": 59.288636363636364,
                "end_time": 59.42272727272727,
                "pitch": 36,
                "velocity": 101,
                "duration": 0.13409090909090793,
                "tempo": 120.0
            },
            {
                "start_time": 59.68863636363636,
                "end_time": 59.756818181818176,
                "pitch": 38,
                "velocity": 101,
                "duration": 0.06818181818181301,
                "tempo": 120.0
            },
            {
                "start_time": 60.08863636363636,
                "end_time": 60.15681818181818,
                "pitch": 36,
                "velocity": 101,
                "duration": 0.06818181818182012,
                "tempo": 120.0
            },
            {
                "start_time": 60.29090909090909,
                "end_time": 60.590909090909086,
                "pitch": 38,
                "velocity": 101,
                "duration": 0.29999999999999716,
                "tempo": 120.0
            },
            {
                "start_time": 60.69318181818181,
                "end_time": 60.99318181818182,
                "pitch": 40,
                "velocity": 101,
                "duration": 0.30000000000000426,
                "tempo": 120.0
            },
            {
                "start_time": 61.09318181818182,
                "end_time": 61.309090909090905,
                "pitch": 40,
                "velocity": 101,
                "duration": 0.2159090909090864,
                "tempo": 120.0
            },
            {
                "start_time": 61.393181818181816,
                "end_time": 61.459090909090904,
                "pitch": 40,
                "velocity": 101,
                "duration": 0.06590909090908781,
                "tempo": 120.0
            },
            {
                "start_time": 61.49318181818182,
                "end_time": 61.625,
                "pitch": 35,
                "velocity": 101,
                "duration": 0.13181818181818272,
                "tempo": 120.0
            },
            {
                "start_time": 61.69318181818181,
                "end_time": 61.824999999999996,
                "pitch": 40,
                "velocity": 101,
                "duration": 0.13181818181818272,
                "tempo": 120.0
            },
            {
                "start_time": 62.09318181818182,
                "end_time": 62.224999999999994,
                "pitch": 36,
                "velocity": 101,
                "duration": 0.13181818181817562,
                "tempo": 120.0
            },
            {
                "start_time": 62.293181818181814,
                "end_time": 62.42727272727272,
                "pitch": 38,
                "velocity": 101,
                "duration": 0.13409090909090793,
                "tempo": 120.0
            },
            {
                "start_time": 62.49318181818182,
                "end_time": 62.64545454545454,
                "pitch": 39,
                "velocity": 101,
                "duration": 0.15227272727272378,
                "tempo": 120.0
            },
            {
                "start_time": 62.695454545454545,
                "end_time": 62.92727272727272,
                "pitch": 40,
                "velocity": 101,
                "duration": 0.23181818181817704,
                "tempo": 120.0
            },
            {
                "start_time": 62.99545454545454,
                "end_time": 63.07727272727272,
                "pitch": 40,
                "velocity": 101,
                "duration": 0.08181818181817846,
                "tempo": 120.0
            },
            {
                "start_time": 63.095454545454544,
                "end_time": 63.24545454545454,
                "pitch": 35,
                "velocity": 101,
                "duration": 0.14999999999999858,
                "tempo": 120.0
            },
            {
                "start_time": 63.29545454545454,
                "end_time": 63.445454545454545,
                "pitch": 40,
                "velocity": 101,
                "duration": 0.15000000000000568,
                "tempo": 120.0
            },
            {
                "start_time": 63.695454545454545,
                "end_time": 63.845454545454544,
                "pitch": 38,
                "velocity": 101,
                "duration": 0.14999999999999858,
                "tempo": 120.0
            },
            {
                "start_time": 63.89545454545454,
                "end_time": 64.04090909090908,
                "pitch": 36,
                "velocity": 101,
                "duration": 0.14545454545454106,
                "tempo": 120.0
            },
            {
                "start_time": 64.0909090909091,
                "end_time": 64.23863636363636,
                "pitch": 35,
                "velocity": 101,
                "duration": 0.14772727272726627,
                "tempo": 120.0
            },
            {
                "start_time": 64.28636363636363,
                "end_time": 64.33863636363635,
                "pitch": 33,
                "velocity": 101,
                "duration": 0.052272727272722364,
                "tempo": 120.0
            },
            {
                "start_time": 64.38863636363637,
                "end_time": 64.44090909090909,
                "pitch": 33,
                "velocity": 101,
                "duration": 0.052272727272722364,
                "tempo": 120.0
            },
            {
                "start_time": 64.49318181818181,
                "end_time": 64.54318181818182,
                "pitch": 33,
                "velocity": 101,
                "duration": 0.05000000000001137,
                "tempo": 120.0
            },
            {
                "start_time": 64.89772727272727,
                "end_time": 64.94772727272726,
                "pitch": 36,
                "velocity": 101,
                "duration": 0.04999999999999716,
                "tempo": 120.0
            },
            {
                "start_time": 65.1,
                "end_time": 65.13181818181818,
                "pitch": 35,
                "velocity": 101,
                "duration": 0.0318181818181813,
                "tempo": 120.0
            },
            {
                "start_time": 65.39999999999999,
                "end_time": 65.80227272727272,
                "pitch": 31,
                "velocity": 101,
                "duration": 0.4022727272727309,
                "tempo": 120.0
            },
            {
                "start_time": 65.80227272727272,
                "end_time": 66.00227272727273,
                "pitch": 33,
                "velocity": 101,
                "duration": 0.20000000000000284,
                "tempo": 120.0
            },
            {
                "start_time": 66.00227272727273,
                "end_time": 66.0340909090909,
                "pitch": 33,
                "velocity": 101,
                "duration": 0.0318181818181813,
                "tempo": 120.0
            },
            {
                "start_time": 66.1,
                "end_time": 66.13181818181818,
                "pitch": 33,
                "velocity": 101,
                "duration": 0.0318181818181813,
                "tempo": 120.0
            },
            {
                "start_time": 66.29545454545455,
                "end_time": 66.37954545454545,
                "pitch": 35,
                "velocity": 101,
                "duration": 0.08409090909090366,
                "tempo": 120.0
            },
            {
                "start_time": 66.49545454545454,
                "end_time": 66.59545454545454,
                "pitch": 36,
                "velocity": 101,
                "duration": 0.10000000000000853,
                "tempo": 120.0
            },
            {
                "start_time": 66.69772727272726,
                "end_time": 66.73181818181818,
                "pitch": 35,
                "velocity": 101,
                "duration": 0.03409090909092072,
                "tempo": 120.0
            },
            {
                "start_time": 67.30909090909091,
                "end_time": 67.4090909090909,
                "pitch": 31,
                "velocity": 101,
                "duration": 0.09999999999999432,
                "tempo": 120.0
            },
            {
                "start_time": 67.5090909090909,
                "end_time": 67.54318181818182,
                "pitch": 29,
                "velocity": 101,
                "duration": 0.03409090909092072,
                "tempo": 120.0
            },
            {
                "start_time": 67.60909090909091,
                "end_time": 67.64318181818182,
                "pitch": 29,
                "velocity": 101,
                "duration": 0.03409090909090651,
                "tempo": 120.0
            },
            {
                "start_time": 67.71136363636363,
                "end_time": 67.74545454545454,
                "pitch": 29,
                "velocity": 101,
                "duration": 0.03409090909090651,
                "tempo": 120.0
            },
            {
                "start_time": 68.11136363636363,
                "end_time": 68.14545454545454,
                "pitch": 33,
                "velocity": 101,
                "duration": 0.03409090909090651,
                "tempo": 120.0
            },
            {
                "start_time": 68.31136363636364,
                "end_time": 68.34545454545454,
                "pitch": 31,
                "velocity": 101,
                "duration": 0.03409090909090651,
                "tempo": 120.0
            },
            {
                "start_time": 69.01590909090909,
                "end_time": 69.09772727272727,
                "pitch": 29,
                "velocity": 101,
                "duration": 0.08181818181817846,
                "tempo": 120.0
            },
            {
                "start_time": 69.21363636363635,
                "end_time": 69.24545454545454,
                "pitch": 29,
                "velocity": 101,
                "duration": 0.0318181818181813,
                "tempo": 120.0
            },
            {
                "start_time": 69.31136363636364,
                "end_time": 69.34318181818182,
                "pitch": 29,
                "velocity": 101,
                "duration": 0.0318181818181813,
                "tempo": 120.0
            },
            {
                "start_time": 69.50681818181818,
                "end_time": 69.60909090909091,
                "pitch": 31,
                "velocity": 101,
                "duration": 0.10227272727273373,
                "tempo": 120.0
            },
            {
                "start_time": 69.71136363636363,
                "end_time": 69.81590909090909,
                "pitch": 33,
                "velocity": 101,
                "duration": 0.10454545454545894,
                "tempo": 120.0
            },
            {
                "start_time": 69.91818181818182,
                "end_time": 69.96818181818182,
                "pitch": 31,
                "velocity": 101,
                "duration": 0.04999999999999716,
                "tempo": 120.0
            },
            {
                "start_time": 70.11818181818181,
                "end_time": 70.51818181818182,
                "pitch": 36,
                "velocity": 101,
                "duration": 0.4000000000000057,
                "tempo": 120.0
            },
            {
                "start_time": 70.51818181818182,
                "end_time": 70.72045454545454,
                "pitch": 35,
                "velocity": 101,
                "duration": 0.20227272727272805,
                "tempo": 120.0
            },
            {
                "start_time": 70.72045454545454,
                "end_time": 70.77045454545454,
                "pitch": 33,
                "velocity": 101,
                "duration": 0.04999999999999716,
                "tempo": 120.0
            },
            {
                "start_time": 70.82045454545454,
                "end_time": 70.87045454545454,
                "pitch": 33,
                "velocity": 101,
                "duration": 0.04999999999999716,
                "tempo": 120.0
            },
            {
                "start_time": 70.92045454545455,
                "end_time": 70.97045454545454,
                "pitch": 33,
                "velocity": 101,
                "duration": 0.04999999999999716,
                "tempo": 120.0
            },
            {
                "start_time": 71.32272727272726,
                "end_time": 71.37272727272727,
                "pitch": 36,
                "velocity": 101,
                "duration": 0.05000000000001137,
                "tempo": 120.0
            },
            {
                "start_time": 71.52499999999999,
                "end_time": 71.55681818181817,
                "pitch": 35,
                "velocity": 101,
                "duration": 0.0318181818181813,
                "tempo": 120.0
            },
            {
                "start_time": 71.825,
                "end_time": 72.22727272727272,
                "pitch": 31,
                "velocity": 101,
                "duration": 0.4022727272727167,
                "tempo": 120.0
            },
            {
                "start_time": 72.22727272727272,
                "end_time": 72.425,
                "pitch": 33,
                "velocity": 101,
                "duration": 0.19772727272727764,
                "tempo": 120.0
            },
            {
                "start_time": 72.425,
                "end_time": 72.45681818181818,
                "pitch": 33,
                "velocity": 101,
                "duration": 0.0318181818181813,
                "tempo": 120.0
            },
            {
                "start_time": 72.52272727272727,
                "end_time": 72.55454545454545,
                "pitch": 33,
                "velocity": 101,
                "duration": 0.0318181818181813,
                "tempo": 120.0
            },
            {
                "start_time": 72.71818181818182,
                "end_time": 72.80454545454545,
                "pitch": 35,
                "velocity": 101,
                "duration": 0.08636363636362887,
                "tempo": 120.0
            },
            {
                "start_time": 72.92272727272727,
                "end_time": 73.02727272727272,
                "pitch": 36,
                "velocity": 101,
                "duration": 0.10454545454544473,
                "tempo": 120.0
            },
            {
                "start_time": 73.12954545454545,
                "end_time": 73.16363636363636,
                "pitch": 35,
                "velocity": 101,
                "duration": 0.03409090909090651,
                "tempo": 120.0
            },
            {
                "start_time": 73.73409090909091,
                "end_time": 73.8340909090909,
                "pitch": 31,
                "velocity": 101,
                "duration": 0.09999999999999432,
                "tempo": 120.0
            },
            {
                "start_time": 73.93409090909091,
                "end_time": 73.96818181818182,
                "pitch": 29,
                "velocity": 101,
                "duration": 0.03409090909090651,
                "tempo": 120.0
            },
            {
                "start_time": 74.0340909090909,
                "end_time": 74.06818181818181,
                "pitch": 29,
                "velocity": 101,
                "duration": 0.03409090909090651,
                "tempo": 120.0
            },
            {
                "start_time": 74.1340909090909,
                "end_time": 74.16818181818182,
                "pitch": 29,
                "velocity": 101,
                "duration": 0.03409090909092072,
                "tempo": 120.0
            },
            {
                "start_time": 74.53636363636363,
                "end_time": 74.57045454545454,
                "pitch": 33,
                "velocity": 101,
                "duration": 0.03409090909090651,
                "tempo": 120.0
            },
            {
                "start_time": 74.73636363636363,
                "end_time": 74.77045454545454,
                "pitch": 31,
                "velocity": 101,
                "duration": 0.03409090909090651,
                "tempo": 120.0
            },
            {
                "start_time": 75.43863636363636,
                "end_time": 75.52272727272727,
                "pitch": 29,
                "velocity": 101,
                "duration": 0.08409090909090366,
                "tempo": 120.0
            },
            {
                "start_time": 75.63863636363637,
                "end_time": 75.67045454545455,
                "pitch": 29,
                "velocity": 101,
                "duration": 0.0318181818181813,
                "tempo": 120.0
            },
            {
                "start_time": 75.73636363636363,
                "end_time": 75.76818181818182,
                "pitch": 29,
                "velocity": 101,
                "duration": 0.0318181818181813,
                "tempo": 120.0
            },
            {
                "start_time": 75.93181818181817,
                "end_time": 76.03181818181818,
                "pitch": 31,
                "velocity": 101,
                "duration": 0.10000000000000853,
                "tempo": 120.0
            },
            {
                "start_time": 76.1340909090909,
                "end_time": 76.23409090909091,
                "pitch": 33,
                "velocity": 101,
                "duration": 0.10000000000000853,
                "tempo": 120.0
            },
            {
                "start_time": 76.3340909090909,
                "end_time": 76.38636363636363,
                "pitch": 31,
                "velocity": 101,
                "duration": 0.052272727272722364,
                "tempo": 120.0
            },
            {
                "start_time": 76.54090909090908,
                "end_time": 76.94545454545454,
                "pitch": 36,
                "velocity": 101,
                "duration": 0.4045454545454561,
                "tempo": 120.0
            },
            {
                "start_time": 76.94545454545454,
                "end_time": 77.14545454545454,
                "pitch": 35,
                "velocity": 101,
                "duration": 0.20000000000000284,
                "tempo": 120.0
            },
            {
                "start_time": 77.14545454545454,
                "end_time": 77.19545454545454,
                "pitch": 33,
                "velocity": 101,
                "duration": 0.04999999999999716,
                "tempo": 120.0
            },
            {
                "start_time": 77.24545454545454,
                "end_time": 77.29772727272727,
                "pitch": 33,
                "velocity": 101,
                "duration": 0.052272727272736574,
                "tempo": 120.0
            },
            {
                "start_time": 77.34772727272727,
                "end_time": 77.39772727272727,
                "pitch": 33,
                "velocity": 101,
                "duration": 0.04999999999999716,
                "tempo": 120.0
            },
            {
                "start_time": 77.74545454545454,
                "end_time": 77.79318181818181,
                "pitch": 36,
                "velocity": 101,
                "duration": 0.04772727272727195,
                "tempo": 120.0
            },
            {
                "start_time": 77.94090909090909,
                "end_time": 77.99090909090908,
                "pitch": 35,
                "velocity": 101,
                "duration": 0.04999999999999716,
                "tempo": 120.0
            },
            {
                "start_time": 78.24318181818181,
                "end_time": 78.65227272727272,
                "pitch": 31,
                "velocity": 101,
                "duration": 0.4090909090909065,
                "tempo": 120.0
            },
            {
                "start_time": 78.65227272727272,
                "end_time": 78.85227272727272,
                "pitch": 33,
                "velocity": 101,
                "duration": 0.20000000000000284,
                "tempo": 120.0
            },
            {
                "start_time": 78.85227272727272,
                "end_time": 78.89999999999999,
                "pitch": 33,
                "velocity": 101,
                "duration": 0.04772727272727195,
                "tempo": 120.0
            },
            {
                "start_time": 78.95,
                "end_time": 79.0,
                "pitch": 33,
                "velocity": 101,
                "duration": 0.04999999999999716,
                "tempo": 120.0
            },
            {
                "start_time": 79.14545454545454,
                "end_time": 79.24545454545454,
                "pitch": 35,
                "velocity": 101,
                "duration": 0.09999999999999432,
                "tempo": 120.0
            },
            {
                "start_time": 79.34545454545454,
                "end_time": 79.44545454545454,
                "pitch": 36,
                "velocity": 101,
                "duration": 0.09999999999999432,
                "tempo": 120.0
            },
            {
                "start_time": 79.54545454545455,
                "end_time": 79.59772727272727,
                "pitch": 35,
                "velocity": 101,
                "duration": 0.052272727272722364,
                "tempo": 120.0
            },
            {
                "start_time": 80.15681818181818,
                "end_time": 80.25681818181818,
                "pitch": 31,
                "velocity": 101,
                "duration": 0.09999999999999432,
                "tempo": 120.0
            },
            {
                "start_time": 80.35681818181818,
                "end_time": 80.40681818181818,
                "pitch": 29,
                "velocity": 101,
                "duration": 0.04999999999999716,
                "tempo": 120.0
            },
            {
                "start_time": 80.45681818181818,
                "end_time": 80.5090909090909,
                "pitch": 29,
                "velocity": 101,
                "duration": 0.052272727272722364,
                "tempo": 120.0
            },
            {
                "start_time": 80.55909090909091,
                "end_time": 80.60909090909091,
                "pitch": 29,
                "velocity": 101,
                "duration": 0.04999999999999716,
                "tempo": 120.0
            },
            {
                "start_time": 80.9590909090909,
                "end_time": 81.0090909090909,
                "pitch": 33,
                "velocity": 101,
                "duration": 0.04999999999999716,
                "tempo": 120.0
            },
            {
                "start_time": 81.1590909090909,
                "end_time": 81.21136363636363,
                "pitch": 31,
                "velocity": 101,
                "duration": 0.052272727272722364,
                "tempo": 120.0
            },
            {
                "start_time": 81.86363636363636,
                "end_time": 81.9659090909091,
                "pitch": 29,
                "velocity": 101,
                "duration": 0.10227272727273373,
                "tempo": 120.0
            },
            {
                "start_time": 82.06363636363636,
                "end_time": 82.11136363636363,
                "pitch": 29,
                "velocity": 101,
                "duration": 0.04772727272727195,
                "tempo": 120.0
            },
            {
                "start_time": 82.16136363636363,
                "end_time": 82.2090909090909,
                "pitch": 29,
                "velocity": 101,
                "duration": 0.04772727272727195,
                "tempo": 120.0
            },
            {
                "start_time": 82.35681818181818,
                "end_time": 82.4590909090909,
                "pitch": 31,
                "velocity": 101,
                "duration": 0.10227272727271952,
                "tempo": 120.0
            },
            {
                "start_time": 82.56363636363636,
                "end_time": 82.66590909090908,
                "pitch": 33,
                "velocity": 101,
                "duration": 0.10227272727271952,
                "tempo": 120.0
            },
            {
                "start_time": 82.76818181818182,
                "end_time": 82.81818181818181,
                "pitch": 31,
                "velocity": 101,
                "duration": 0.04999999999999716,
                "tempo": 120.0
            },
            {
                "start_time": 82.96818181818182,
                "end_time": 83.37045454545454,
                "pitch": 36,
                "velocity": 101,
                "duration": 0.4022727272727167,
                "tempo": 120.0
            },
            {
                "start_time": 83.37045454545454,
                "end_time": 83.57045454545454,
                "pitch": 35,
                "velocity": 101,
                "duration": 0.20000000000000284,
                "tempo": 120.0
            },
            {
                "start_time": 83.57045454545454,
                "end_time": 83.62045454545454,
                "pitch": 33,
                "velocity": 101,
                "duration": 0.04999999999999716,
                "tempo": 120.0
            },
            {
                "start_time": 83.67045454545455,
                "end_time": 83.72272727272727,
                "pitch": 33,
                "velocity": 101,
                "duration": 0.052272727272722364,
                "tempo": 120.0
            },
            {
                "start_time": 83.77272727272727,
                "end_time": 83.82272727272726,
                "pitch": 33,
                "velocity": 101,
                "duration": 0.04999999999999716,
                "tempo": 120.0
            },
            {
                "start_time": 84.17045454545455,
                "end_time": 84.21818181818182,
                "pitch": 36,
                "velocity": 101,
                "duration": 0.04772727272727195,
                "tempo": 120.0
            },
            {
                "start_time": 84.36590909090908,
                "end_time": 84.41590909090908,
                "pitch": 35,
                "velocity": 101,
                "duration": 0.04999999999999716,
                "tempo": 120.0
            },
            {
                "start_time": 84.67272727272727,
                "end_time": 85.07727272727273,
                "pitch": 31,
                "velocity": 101,
                "duration": 0.4045454545454561,
                "tempo": 120.0
            },
            {
                "start_time": 85.07727272727273,
                "end_time": 85.27499999999999,
                "pitch": 33,
                "velocity": 101,
                "duration": 0.19772727272726343,
                "tempo": 120.0
            },
            {
                "start_time": 85.27499999999999,
                "end_time": 85.32272727272726,
                "pitch": 33,
                "velocity": 101,
                "duration": 0.04772727272727195,
                "tempo": 120.0
            },
            {
                "start_time": 85.37272727272727,
                "end_time": 85.42045454545455,
                "pitch": 33,
                "velocity": 101,
                "duration": 0.04772727272727195,
                "tempo": 120.0
            },
            {
                "start_time": 85.56818181818181,
                "end_time": 85.66818181818181,
                "pitch": 35,
                "velocity": 101,
                "duration": 0.09999999999999432,
                "tempo": 120.0
            },
            {
                "start_time": 85.77045454545454,
                "end_time": 85.87045454545454,
                "pitch": 36,
                "velocity": 101,
                "duration": 0.09999999999999432,
                "tempo": 120.0
            },
            {
                "start_time": 85.97045454545454,
                "end_time": 86.02272727272727,
                "pitch": 35,
                "velocity": 101,
                "duration": 0.052272727272722364,
                "tempo": 120.0
            },
            {
                "start_time": 86.5840909090909,
                "end_time": 86.6840909090909,
                "pitch": 31,
                "velocity": 101,
                "duration": 0.09999999999999432,
                "tempo": 120.0
            },
            {
                "start_time": 86.7840909090909,
                "end_time": 86.8340909090909,
                "pitch": 29,
                "velocity": 101,
                "duration": 0.04999999999999716,
                "tempo": 120.0
            },
            {
                "start_time": 86.8840909090909,
                "end_time": 86.9340909090909,
                "pitch": 29,
                "velocity": 101,
                "duration": 0.04999999999999716,
                "tempo": 120.0
            },
            {
                "start_time": 86.98409090909091,
                "end_time": 87.0340909090909,
                "pitch": 29,
                "velocity": 101,
                "duration": 0.04999999999999716,
                "tempo": 120.0
            },
            {
                "start_time": 87.38636363636363,
                "end_time": 87.43636363636364,
                "pitch": 33,
                "velocity": 101,
                "duration": 0.05000000000001137,
                "tempo": 120.0
            },
            {
                "start_time": 87.58863636363635,
                "end_time": 87.63863636363637,
                "pitch": 31,
                "velocity": 101,
                "duration": 0.05000000000001137,
                "tempo": 120.0
            },
            {
                "start_time": 88.29090909090908,
                "end_time": 88.39090909090909,
                "pitch": 29,
                "velocity": 101,
                "duration": 0.10000000000000853,
                "tempo": 120.0
            },
            {
                "start_time": 88.48863636363636,
                "end_time": 88.53636363636363,
                "pitch": 29,
                "velocity": 101,
                "duration": 0.04772727272727195,
                "tempo": 120.0
            },
            {
                "start_time": 88.58636363636363,
                "end_time": 88.6340909090909,
                "pitch": 29,
                "velocity": 101,
                "duration": 0.04772727272727195,
                "tempo": 120.0
            },
            {
                "start_time": 88.78181818181818,
                "end_time": 88.8840909090909,
                "pitch": 31,
                "velocity": 101,
                "duration": 0.10227272727271952,
                "tempo": 120.0
            },
            {
                "start_time": 88.98863636363636,
                "end_time": 89.0909090909091,
                "pitch": 33,
                "velocity": 101,
                "duration": 0.10227272727273373,
                "tempo": 120.0
            },
            {
                "start_time": 89.19318181818181,
                "end_time": 89.24318181818181,
                "pitch": 31,
                "velocity": 101,
                "duration": 0.04999999999999716,
                "tempo": 120.0
            },
            {
                "start_time": 89.39545454545454,
                "end_time": 89.79090909090908,
                "pitch": 36,
                "velocity": 101,
                "duration": 0.39545454545454106,
                "tempo": 120.0
            },
            {
                "start_time": 89.79090909090908,
                "end_time": 89.98863636363636,
                "pitch": 35,
                "velocity": 101,
                "duration": 0.19772727272727764,
                "tempo": 120.0
            },
            {
                "start_time": 89.98863636363636,
                "end_time": 90.03863636363636,
                "pitch": 33,
                "velocity": 101,
                "duration": 0.04999999999999716,
                "tempo": 120.0
            },
            {
                "start_time": 90.0909090909091,
                "end_time": 90.14090909090909,
                "pitch": 33,
                "velocity": 101,
                "duration": 0.04999999999999716,
                "tempo": 120.0
            },
            {
                "start_time": 90.19318181818181,
                "end_time": 90.24545454545454,
                "pitch": 33,
                "velocity": 101,
                "duration": 0.052272727272722364,
                "tempo": 120.0
            },
            {
                "start_time": 90.6,
                "end_time": 90.64999999999999,
                "pitch": 36,
                "velocity": 101,
                "duration": 0.04999999999999716,
                "tempo": 120.0
            },
            {
                "start_time": 90.80454545454545,
                "end_time": 90.83636363636363,
                "pitch": 35,
                "velocity": 101,
                "duration": 0.0318181818181813,
                "tempo": 120.0
            },
            {
                "start_time": 91.10227272727272,
                "end_time": 91.51136363636363,
                "pitch": 31,
                "velocity": 101,
                "duration": 0.4090909090909065,
                "tempo": 120.0
            },
            {
                "start_time": 91.51136363636363,
                "end_time": 91.7090909090909,
                "pitch": 33,
                "velocity": 101,
                "duration": 0.19772727272727764,
                "tempo": 120.0
            },
            {
                "start_time": 91.7090909090909,
                "end_time": 91.74090909090908,
                "pitch": 33,
                "velocity": 101,
                "duration": 0.0318181818181813,
                "tempo": 120.0
            },
            {
                "start_time": 91.80454545454545,
                "end_time": 91.83636363636363,
                "pitch": 33,
                "velocity": 101,
                "duration": 0.0318181818181813,
                "tempo": 120.0
            },
            {
                "start_time": 91.99545454545454,
                "end_time": 92.09545454545454,
                "pitch": 35,
                "velocity": 101,
                "duration": 0.10000000000000853,
                "tempo": 120.0
            },
            {
                "start_time": 92.19772727272726,
                "end_time": 92.29772727272727,
                "pitch": 36,
                "velocity": 101,
                "duration": 0.10000000000000853,
                "tempo": 120.0
            },
            {
                "start_time": 92.39999999999999,
                "end_time": 92.4340909090909,
                "pitch": 35,
                "velocity": 101,
                "duration": 0.03409090909090651,
                "tempo": 120.0
            },
            {
                "start_time": 93.0090909090909,
                "end_time": 93.10909090909091,
                "pitch": 31,
                "velocity": 101,
                "duration": 0.10000000000000853,
                "tempo": 120.0
            },
            {
                "start_time": 93.2090909090909,
                "end_time": 93.24318181818181,
                "pitch": 29,
                "velocity": 101,
                "duration": 0.03409090909090651,
                "tempo": 120.0
            },
            {
                "start_time": 93.3090909090909,
                "end_time": 93.34318181818182,
                "pitch": 29,
                "velocity": 101,
                "duration": 0.03409090909092072,
                "tempo": 120.0
            },
            {
                "start_time": 93.41136363636363,
                "end_time": 93.44318181818181,
                "pitch": 29,
                "velocity": 101,
                "duration": 0.0318181818181813,
                "tempo": 120.0
            },
            {
                "start_time": 93.81363636363636,
                "end_time": 93.84772727272727,
                "pitch": 33,
                "velocity": 101,
                "duration": 0.03409090909090651,
                "tempo": 120.0
            },
            {
                "start_time": 94.01363636363637,
                "end_time": 94.04772727272727,
                "pitch": 31,
                "velocity": 101,
                "duration": 0.03409090909090651,
                "tempo": 120.0
            },
            {
                "start_time": 94.71590909090908,
                "end_time": 94.81818181818181,
                "pitch": 29,
                "velocity": 101,
                "duration": 0.10227272727273373,
                "tempo": 120.0
            },
            {
                "start_time": 94.91590909090908,
                "end_time": 94.94772727272726,
                "pitch": 29,
                "velocity": 101,
                "duration": 0.0318181818181813,
                "tempo": 120.0
            },
            {
                "start_time": 95.01363636363637,
                "end_time": 95.06136363636364,
                "pitch": 29,
                "velocity": 101,
                "duration": 0.04772727272727195,
                "tempo": 120.0
            },
            {
                "start_time": 95.2090909090909,
                "end_time": 95.31136363636364,
                "pitch": 31,
                "velocity": 101,
                "duration": 0.10227272727273373,
                "tempo": 120.0
            },
            {
                "start_time": 95.41363636363636,
                "end_time": 95.51818181818182,
                "pitch": 33,
                "velocity": 101,
                "duration": 0.10454545454545894,
                "tempo": 120.0
            },
            {
                "start_time": 95.62045454545454,
                "end_time": 95.67045454545455,
                "pitch": 31,
                "velocity": 101,
                "duration": 0.05000000000001137,
                "tempo": 120.0
            },
            {
                "start_time": 95.82045454545454,
                "end_time": 96.22272727272727,
                "pitch": 36,
                "velocity": 101,
                "duration": 0.4022727272727309,
                "tempo": 120.0
            },
            {
                "start_time": 96.22272727272727,
                "end_time": 96.42272727272727,
                "pitch": 35,
                "velocity": 101,
                "duration": 0.20000000000000284,
                "tempo": 120.0
            },
            {
                "start_time": 96.42272727272727,
                "end_time": 96.47272727272727,
                "pitch": 33,
                "velocity": 101,
                "duration": 0.04999999999999716,
                "tempo": 120.0
            },
            {
                "start_time": 96.52272727272727,
                "end_time": 96.57499999999999,
                "pitch": 33,
                "velocity": 101,
                "duration": 0.052272727272722364,
                "tempo": 120.0
            },
            {
                "start_time": 96.625,
                "end_time": 96.675,
                "pitch": 33,
                "velocity": 101,
                "duration": 0.04999999999999716,
                "tempo": 120.0
            },
            {
                "start_time": 97.02499999999999,
                "end_time": 97.07499999999999,
                "pitch": 36,
                "velocity": 101,
                "duration": 0.04999999999999716,
                "tempo": 120.0
            },
            {
                "start_time": 97.22727272727272,
                "end_time": 97.26136363636363,
                "pitch": 35,
                "velocity": 101,
                "duration": 0.03409090909090651,
                "tempo": 120.0
            },
            {
                "start_time": 97.52727272727272,
                "end_time": 97.93636363636364,
                "pitch": 31,
                "velocity": 101,
                "duration": 0.4090909090909207,
                "tempo": 120.0
            },
            {
                "start_time": 97.93636363636364,
                "end_time": 98.1340909090909,
                "pitch": 33,
                "velocity": 101,
                "duration": 0.19772727272726343,
                "tempo": 120.0
            },
            {
                "start_time": 98.1340909090909,
                "end_time": 98.16590909090908,
                "pitch": 33,
                "velocity": 101,
                "duration": 0.0318181818181813,
                "tempo": 120.0
            },
            {
                "start_time": 98.22954545454544,
                "end_time": 98.26136363636363,
                "pitch": 33,
                "velocity": 101,
                "duration": 0.0318181818181813,
                "tempo": 120.0
            },
            {
                "start_time": 98.42045454545455,
                "end_time": 98.50681818181818,
                "pitch": 35,
                "velocity": 101,
                "duration": 0.08636363636362887,
                "tempo": 120.0
            },
            {
                "start_time": 98.62727272727273,
                "end_time": 98.72954545454544,
                "pitch": 36,
                "velocity": 101,
                "duration": 0.10227272727271952,
                "tempo": 120.0
            },
            {
                "start_time": 98.83181818181818,
                "end_time": 98.86590909090908,
                "pitch": 35,
                "velocity": 101,
                "duration": 0.03409090909090651,
                "tempo": 120.0
            },
            {
                "start_time": 99.4340909090909,
                "end_time": 99.5340909090909,
                "pitch": 31,
                "velocity": 101,
                "duration": 0.10000000000000853,
                "tempo": 120.0
            },
            {
                "start_time": 99.6340909090909,
                "end_time": 99.6840909090909,
                "pitch": 29,
                "velocity": 101,
                "duration": 0.04999999999999716,
                "tempo": 120.0
            },
            {
                "start_time": 99.73636363636363,
                "end_time": 99.76818181818182,
                "pitch": 29,
                "velocity": 101,
                "duration": 0.0318181818181813,
                "tempo": 120.0
            },
            {
                "start_time": 99.83636363636363,
                "end_time": 99.88636363636363,
                "pitch": 29,
                "velocity": 101,
                "duration": 0.04999999999999716,
                "tempo": 120.0
            },
            {
                "start_time": 100.23636363636363,
                "end_time": 100.28636363636363,
                "pitch": 33,
                "velocity": 101,
                "duration": 0.04999999999999716,
                "tempo": 120.0
            },
            {
                "start_time": 100.43636363636364,
                "end_time": 100.48863636363636,
                "pitch": 31,
                "velocity": 101,
                "duration": 0.052272727272722364,
                "tempo": 120.0
            },
            {
                "start_time": 101.14090909090909,
                "end_time": 101.24090909090908,
                "pitch": 29,
                "velocity": 101,
                "duration": 0.09999999999999432,
                "tempo": 120.0
            },
            {
                "start_time": 101.33863636363635,
                "end_time": 101.37045454545454,
                "pitch": 29,
                "velocity": 101,
                "duration": 0.0318181818181813,
                "tempo": 120.0
            },
            {
                "start_time": 101.43636363636364,
                "end_time": 101.48409090909091,
                "pitch": 29,
                "velocity": 101,
                "duration": 0.04772727272727195,
                "tempo": 120.0
            },
            {
                "start_time": 101.63181818181818,
                "end_time": 101.73409090909091,
                "pitch": 31,
                "velocity": 101,
                "duration": 0.10227272727273373,
                "tempo": 120.0
            },
            {
                "start_time": 101.83863636363635,
                "end_time": 101.94090909090909,
                "pitch": 33,
                "velocity": 101,
                "duration": 0.10227272727273373,
                "tempo": 120.0
            },
            {
                "start_time": 102.04318181818181,
                "end_time": 102.09318181818182,
                "pitch": 31,
                "velocity": 101,
                "duration": 0.05000000000001137,
                "tempo": 120.0
            },
            {
                "start_time": 102.24318181818181,
                "end_time": 102.62954545454545,
                "pitch": 36,
                "velocity": 101,
                "duration": 0.38636363636364024,
                "tempo": 120.0
            },
            {
                "start_time": 102.64545454545454,
                "end_time": 102.84772727272727,
                "pitch": 35,
                "velocity": 101,
                "duration": 0.20227272727272805,
                "tempo": 120.0
            },
            {
                "start_time": 102.84772727272727,
                "end_time": 102.87954545454545,
                "pitch": 33,
                "velocity": 101,
                "duration": 0.0318181818181813,
                "tempo": 120.0
            },
            {
                "start_time": 102.94772727272726,
                "end_time": 102.97954545454544,
                "pitch": 33,
                "velocity": 101,
                "duration": 0.0318181818181813,
                "tempo": 120.0
            },
            {
                "start_time": 103.04772727272727,
                "end_time": 103.07954545454545,
                "pitch": 33,
                "velocity": 101,
                "duration": 0.0318181818181813,
                "tempo": 120.0
            },
            {
                "start_time": 103.44772727272726,
                "end_time": 103.48181818181817,
                "pitch": 36,
                "velocity": 101,
                "duration": 0.03409090909090651,
                "tempo": 120.0
            },
            {
                "start_time": 103.64999999999999,
                "end_time": 103.68181818181817,
                "pitch": 35,
                "velocity": 101,
                "duration": 0.0318181818181813,
                "tempo": 120.0
            },
            {
                "start_time": 103.94318181818181,
                "end_time": 104.35681818181817,
                "pitch": 31,
                "velocity": 101,
                "duration": 0.4136363636363569,
                "tempo": 120.0
            },
            {
                "start_time": 104.35681818181817,
                "end_time": 104.55681818181817,
                "pitch": 33,
                "velocity": 101,
                "duration": 0.20000000000000284,
                "tempo": 120.0
            },
            {
                "start_time": 104.55681818181817,
                "end_time": 104.58863636363635,
                "pitch": 33,
                "velocity": 101,
                "duration": 0.0318181818181813,
                "tempo": 120.0
            },
            {
                "start_time": 104.65227272727272,
                "end_time": 104.6840909090909,
                "pitch": 33,
                "velocity": 101,
                "duration": 0.0318181818181813,
                "tempo": 120.0
            },
            {
                "start_time": 104.84318181818182,
                "end_time": 104.94545454545454,
                "pitch": 35,
                "velocity": 101,
                "duration": 0.10227272727271952,
                "tempo": 120.0
            },
            {
                "start_time": 105.05,
                "end_time": 105.15227272727272,
                "pitch": 36,
                "velocity": 101,
                "duration": 0.10227272727271952,
                "tempo": 120.0
            },
            {
                "start_time": 105.25454545454545,
                "end_time": 105.28863636363636,
                "pitch": 35,
                "velocity": 101,
                "duration": 0.03409090909090651,
                "tempo": 120.0
            },
            {
                "start_time": 105.85909090909091,
                "end_time": 105.9590909090909,
                "pitch": 31,
                "velocity": 101,
                "duration": 0.09999999999999432,
                "tempo": 120.0
            },
            {
                "start_time": 106.0590909090909,
                "end_time": 106.09318181818182,
                "pitch": 29,
                "velocity": 101,
                "duration": 0.03409090909092072,
                "tempo": 120.0
            },
            {
                "start_time": 106.1590909090909,
                "end_time": 106.19318181818181,
                "pitch": 29,
                "velocity": 101,
                "duration": 0.03409090909090651,
                "tempo": 120.0
            },
            {
                "start_time": 106.2590909090909,
                "end_time": 106.29318181818181,
                "pitch": 29,
                "velocity": 101,
                "duration": 0.03409090909090651,
                "tempo": 120.0
            },
            {
                "start_time": 106.66136363636363,
                "end_time": 106.69545454545454,
                "pitch": 33,
                "velocity": 101,
                "duration": 0.03409090909090651,
                "tempo": 120.0
            },
            {
                "start_time": 106.86363636363636,
                "end_time": 106.89545454545454,
                "pitch": 31,
                "velocity": 101,
                "duration": 0.0318181818181813,
                "tempo": 120.0
            },
            {
                "start_time": 107.56363636363636,
                "end_time": 107.66590909090908,
                "pitch": 29,
                "velocity": 101,
                "duration": 0.10227272727271952,
                "tempo": 120.0
            },
            {
                "start_time": 107.76363636363637,
                "end_time": 107.81136363636364,
                "pitch": 29,
                "velocity": 101,
                "duration": 0.04772727272727195,
                "tempo": 120.0
            },
            {
                "start_time": 107.86136363636363,
                "end_time": 107.9090909090909,
                "pitch": 29,
                "velocity": 101,
                "duration": 0.04772727272727195,
                "tempo": 120.0
            },
            {
                "start_time": 108.05681818181817,
                "end_time": 108.1590909090909,
                "pitch": 31,
                "velocity": 101,
                "duration": 0.10227272727273373,
                "tempo": 120.0
            },
            {
                "start_time": 108.26363636363637,
                "end_time": 108.36590909090908,
                "pitch": 33,
                "velocity": 101,
                "duration": 0.10227272727271952,
                "tempo": 120.0
            },
            {
                "start_time": 108.46818181818182,
                "end_time": 108.51818181818182,
                "pitch": 31,
                "velocity": 101,
                "duration": 0.04999999999999716,
                "tempo": 120.0
            },
            {
                "start_time": 108.67045454545455,
                "end_time": 109.07045454545454,
                "pitch": 36,
                "velocity": 101,
                "duration": 0.3999999999999915,
                "tempo": 120.0
            },
            {
                "start_time": 109.07045454545454,
                "end_time": 109.27045454545454,
                "pitch": 35,
                "velocity": 101,
                "duration": 0.20000000000000284,
                "tempo": 120.0
            },
            {
                "start_time": 109.27045454545454,
                "end_time": 109.32045454545454,
                "pitch": 33,
                "velocity": 101,
                "duration": 0.04999999999999716,
                "tempo": 120.0
            },
            {
                "start_time": 109.37272727272726,
                "end_time": 109.42272727272727,
                "pitch": 33,
                "velocity": 101,
                "duration": 0.05000000000001137,
                "tempo": 120.0
            },
            {
                "start_time": 109.47272727272727,
                "end_time": 109.52272727272727,
                "pitch": 33,
                "velocity": 101,
                "duration": 0.04999999999999716,
                "tempo": 120.0
            },
            {
                "start_time": 109.87045454545454,
                "end_time": 109.91818181818181,
                "pitch": 36,
                "velocity": 101,
                "duration": 0.04772727272727195,
                "tempo": 120.0
            },
            {
                "start_time": 110.06590909090909,
                "end_time": 110.1,
                "pitch": 35,
                "velocity": 101,
                "duration": 0.03409090909090651,
                "tempo": 120.0
            },
            {
                "start_time": 110.375,
                "end_time": 110.7840909090909,
                "pitch": 31,
                "velocity": 101,
                "duration": 0.4090909090909065,
                "tempo": 120.0
            },
            {
                "start_time": 110.7840909090909,
                "end_time": 110.98181818181817,
                "pitch": 33,
                "velocity": 101,
                "duration": 0.19772727272726343,
                "tempo": 120.0
            },
            {
                "start_time": 110.98181818181817,
                "end_time": 111.01363636363635,
                "pitch": 33,
                "velocity": 101,
                "duration": 0.0318181818181813,
                "tempo": 120.0
            },
            {
                "start_time": 111.07727272727273,
                "end_time": 111.10909090909091,
                "pitch": 33,
                "velocity": 101,
                "duration": 0.0318181818181813,
                "tempo": 120.0
            },
            {
                "start_time": 111.27045454545454,
                "end_time": 111.35454545454544,
                "pitch": 35,
                "velocity": 101,
                "duration": 0.08409090909090366,
                "tempo": 120.0
            },
            {
                "start_time": 111.475,
                "end_time": 111.57727272727273,
                "pitch": 36,
                "velocity": 101,
                "duration": 0.10227272727273373,
                "tempo": 120.0
            },
            {
                "start_time": 111.68181818181817,
                "end_time": 111.71590909090908,
                "pitch": 35,
                "velocity": 101,
                "duration": 0.03409090909090651,
                "tempo": 120.0
            },
            {
                "start_time": 112.2840909090909,
                "end_time": 112.3840909090909,
                "pitch": 31,
                "velocity": 101,
                "duration": 0.09999999999999432,
                "tempo": 120.0
            },
            {
                "start_time": 112.48409090909091,
                "end_time": 112.5340909090909,
                "pitch": 29,
                "velocity": 101,
                "duration": 0.04999999999999716,
                "tempo": 120.0
            },
            {
                "start_time": 112.5840909090909,
                "end_time": 112.61818181818181,
                "pitch": 29,
                "velocity": 101,
                "duration": 0.03409090909090651,
                "tempo": 120.0
            },
            {
                "start_time": 112.6840909090909,
                "end_time": 112.73409090909091,
                "pitch": 29,
                "velocity": 101,
                "duration": 0.05000000000001137,
                "tempo": 120.0
            },
            {
                "start_time": 113.08636363636363,
                "end_time": 113.13636363636363,
                "pitch": 33,
                "velocity": 101,
                "duration": 0.04999999999999716,
                "tempo": 120.0
            },
            {
                "start_time": 113.28636363636363,
                "end_time": 113.33636363636363,
                "pitch": 31,
                "velocity": 101,
                "duration": 0.04999999999999716,
                "tempo": 120.0
            },
            {
                "start_time": 113.99090909090908,
                "end_time": 114.09090909090908,
                "pitch": 29,
                "velocity": 101,
                "duration": 0.09999999999999432,
                "tempo": 120.0
            },
            {
                "start_time": 114.18863636363636,
                "end_time": 114.22272727272727,
                "pitch": 29,
                "velocity": 101,
                "duration": 0.03409090909090651,
                "tempo": 120.0
            },
            {
                "start_time": 114.28636363636363,
                "end_time": 114.33636363636363,
                "pitch": 29,
                "velocity": 101,
                "duration": 0.04999999999999716,
                "tempo": 120.0
            },
            {
                "start_time": 114.48409090909091,
                "end_time": 114.58636363636363,
                "pitch": 31,
                "velocity": 101,
                "duration": 0.10227272727271952,
                "tempo": 120.0
            },
            {
                "start_time": 114.68863636363636,
                "end_time": 114.79090909090908,
                "pitch": 33,
                "velocity": 101,
                "duration": 0.10227272727271952,
                "tempo": 120.0
            },
            {
                "start_time": 114.89318181818182,
                "end_time": 114.94318181818181,
                "pitch": 31,
                "velocity": 101,
                "duration": 0.04999999999999716,
                "tempo": 120.0
            },
            {
                "start_time": 115.09318181818182,
                "end_time": 115.49545454545454,
                "pitch": 36,
                "velocity": 101,
                "duration": 0.4022727272727167,
                "tempo": 120.0
            },
            {
                "start_time": 115.49545454545454,
                "end_time": 115.69772727272726,
                "pitch": 35,
                "velocity": 101,
                "duration": 0.20227272727272805,
                "tempo": 120.0
            },
            {
                "start_time": 115.69772727272726,
                "end_time": 115.73181818181817,
                "pitch": 33,
                "velocity": 101,
                "duration": 0.03409090909090651,
                "tempo": 120.0
            },
            {
                "start_time": 115.79772727272727,
                "end_time": 115.83181818181818,
                "pitch": 33,
                "velocity": 101,
                "duration": 0.03409090909090651,
                "tempo": 120.0
            },
            {
                "start_time": 115.89999999999999,
                "end_time": 115.93181818181817,
                "pitch": 33,
                "velocity": 101,
                "duration": 0.0318181818181813,
                "tempo": 120.0
            },
            {
                "start_time": 116.3,
                "end_time": 116.3340909090909,
                "pitch": 36,
                "velocity": 101,
                "duration": 0.03409090909090651,
                "tempo": 120.0
            },
            {
                "start_time": 116.5,
                "end_time": 116.5340909090909,
                "pitch": 35,
                "velocity": 101,
                "duration": 0.03409090909090651,
                "tempo": 120.0
            },
            {
                "start_time": 116.79318181818181,
                "end_time": 117.2090909090909,
                "pitch": 31,
                "velocity": 101,
                "duration": 0.41590909090909634,
                "tempo": 120.0
            },
            {
                "start_time": 117.2090909090909,
                "end_time": 117.4090909090909,
                "pitch": 33,
                "velocity": 101,
                "duration": 0.20000000000000284,
                "tempo": 120.0
            },
            {
                "start_time": 117.4090909090909,
                "end_time": 117.44090909090909,
                "pitch": 33,
                "velocity": 101,
                "duration": 0.0318181818181813,
                "tempo": 120.0
            },
            {
                "start_time": 117.50454545454545,
                "end_time": 117.53636363636363,
                "pitch": 33,
                "velocity": 101,
                "duration": 0.0318181818181813,
                "tempo": 120.0
            },
            {
                "start_time": 117.69545454545454,
                "end_time": 117.79772727272727,
                "pitch": 35,
                "velocity": 101,
                "duration": 0.10227272727273373,
                "tempo": 120.0
            },
            {
                "start_time": 117.89999999999999,
                "end_time": 118.00227272727273,
                "pitch": 36,
                "velocity": 101,
                "duration": 0.10227272727273373,
                "tempo": 120.0
            },
            {
                "start_time": 118.10681818181817,
                "end_time": 118.14090909090909,
                "pitch": 35,
                "velocity": 101,
                "duration": 0.03409090909092072,
                "tempo": 120.0
            },
            {
                "start_time": 118.70681818181818,
                "end_time": 118.80681818181817,
                "pitch": 31,
                "velocity": 101,
                "duration": 0.09999999999999432,
                "tempo": 120.0
            },
            {
                "start_time": 118.9090909090909,
                "end_time": 118.94090909090909,
                "pitch": 29,
                "velocity": 101,
                "duration": 0.0318181818181813,
                "tempo": 120.0
            },
            {
                "start_time": 119.0090909090909,
                "end_time": 119.04090909090908,
                "pitch": 29,
                "velocity": 101,
                "duration": 0.0318181818181813,
                "tempo": 120.0
            },
            {
                "start_time": 119.10909090909091,
                "end_time": 119.14090909090909,
                "pitch": 29,
                "velocity": 101,
                "duration": 0.0318181818181813,
                "tempo": 120.0
            },
            {
                "start_time": 119.5090909090909,
                "end_time": 119.54318181818181,
                "pitch": 33,
                "velocity": 101,
                "duration": 0.03409090909090651,
                "tempo": 120.0
            },
            {
                "start_time": 119.71136363636363,
                "end_time": 119.74545454545454,
                "pitch": 31,
                "velocity": 101,
                "duration": 0.03409090909090651,
                "tempo": 120.0
            },
            {
                "start_time": 120.42272727272727,
                "end_time": 120.52272727272727,
                "pitch": 29,
                "velocity": 101,
                "duration": 0.09999999999999432,
                "tempo": 120.0
            },
            {
                "start_time": 120.62045454545454,
                "end_time": 120.65227272727272,
                "pitch": 29,
                "velocity": 101,
                "duration": 0.0318181818181813,
                "tempo": 120.0
            },
            {
                "start_time": 120.71590909090908,
                "end_time": 120.74772727272726,
                "pitch": 29,
                "velocity": 101,
                "duration": 0.0318181818181813,
                "tempo": 120.0
            },
            {
                "start_time": 120.90681818181818,
                "end_time": 120.99090909090908,
                "pitch": 31,
                "velocity": 101,
                "duration": 0.08409090909090366,
                "tempo": 120.0
            },
            {
                "start_time": 121.11136363636363,
                "end_time": 121.21363636363635,
                "pitch": 33,
                "velocity": 101,
                "duration": 0.10227272727271952,
                "tempo": 120.0
            },
            {
                "start_time": 121.31818181818181,
                "end_time": 121.35,
                "pitch": 31,
                "velocity": 101,
                "duration": 0.0318181818181813,
                "tempo": 120.0
            },
            {
                "start_time": 121.51818181818182,
                "end_time": 121.92045454545453,
                "pitch": 36,
                "velocity": 101,
                "duration": 0.4022727272727167,
                "tempo": 120.0
            },
            {
                "start_time": 121.92045454545453,
                "end_time": 122.12272727272726,
                "pitch": 35,
                "velocity": 101,
                "duration": 0.20227272727272805,
                "tempo": 120.0
            },
            {
                "start_time": 122.12272727272726,
                "end_time": 122.17272727272727,
                "pitch": 33,
                "velocity": 101,
                "duration": 0.05000000000001137,
                "tempo": 120.0
            },
            {
                "start_time": 122.22272727272727,
                "end_time": 122.27272727272727,
                "pitch": 33,
                "velocity": 101,
                "duration": 0.04999999999999716,
                "tempo": 120.0
            },
            {
                "start_time": 122.32272727272726,
                "end_time": 122.37272727272726,
                "pitch": 33,
                "velocity": 101,
                "duration": 0.04999999999999716,
                "tempo": 120.0
            },
            {
                "start_time": 122.725,
                "end_time": 122.75681818181818,
                "pitch": 36,
                "velocity": 101,
                "duration": 0.0318181818181813,
                "tempo": 120.0
            },
            {
                "start_time": 122.92727272727272,
                "end_time": 122.9590909090909,
                "pitch": 35,
                "velocity": 101,
                "duration": 0.0318181818181813,
                "tempo": 120.0
            },
            {
                "start_time": 123.225,
                "end_time": 123.6340909090909,
                "pitch": 31,
                "velocity": 101,
                "duration": 0.4090909090909065,
                "tempo": 120.0
            },
            {
                "start_time": 123.6340909090909,
                "end_time": 123.83181818181818,
                "pitch": 33,
                "velocity": 101,
                "duration": 0.19772727272727764,
                "tempo": 120.0
            },
            {
                "start_time": 123.83181818181818,
                "end_time": 123.86363636363636,
                "pitch": 33,
                "velocity": 101,
                "duration": 0.0318181818181813,
                "tempo": 120.0
            },
            {
                "start_time": 123.92727272727272,
                "end_time": 123.9590909090909,
                "pitch": 33,
                "velocity": 101,
                "duration": 0.0318181818181813,
                "tempo": 120.0
            },
            {
                "start_time": 124.11818181818181,
                "end_time": 124.20227272727273,
                "pitch": 35,
                "velocity": 101,
                "duration": 0.08409090909091788,
                "tempo": 120.0
            },
            {
                "start_time": 124.32272727272726,
                "end_time": 124.425,
                "pitch": 36,
                "velocity": 80,
                "duration": 0.10227272727273373,
                "tempo": 120.0
            },
            {
                "start_time": 124.52954545454544,
                "end_time": 124.56363636363636,
                "pitch": 35,
                "velocity": 80,
                "duration": 0.03409090909092072,
                "tempo": 120.0
            },
            {
                "start_time": 125.13181818181818,
                "end_time": 125.23181818181817,
                "pitch": 31,
                "velocity": 80,
                "duration": 0.09999999999999432,
                "tempo": 120.0
            },
            {
                "start_time": 125.33181818181818,
                "end_time": 125.38181818181818,
                "pitch": 29,
                "velocity": 80,
                "duration": 0.04999999999999716,
                "tempo": 120.0
            },
            {
                "start_time": 125.43181818181817,
                "end_time": 125.46590909090908,
                "pitch": 29,
                "velocity": 80,
                "duration": 0.03409090909090651,
                "tempo": 120.0
            },
            {
                "start_time": 125.53181818181818,
                "end_time": 125.5840909090909,
                "pitch": 29,
                "velocity": 80,
                "duration": 0.052272727272722364,
                "tempo": 120.0
            },
            {
                "start_time": 125.93636363636362,
                "end_time": 125.98636363636363,
                "pitch": 33,
                "velocity": 64,
                "duration": 0.05000000000001137,
                "tempo": 120.0
            },
            {
                "start_time": 126.13636363636363,
                "end_time": 126.18636363636362,
                "pitch": 31,
                "velocity": 64,
                "duration": 0.04999999999999716,
                "tempo": 120.0
            },
            {
                "start_time": 126.84545454545454,
                "end_time": 126.94545454545454,
                "pitch": 29,
                "velocity": 64,
                "duration": 0.09999999999999432,
                "tempo": 120.0
            },
            {
                "start_time": 127.04318181818181,
                "end_time": 127.07499999999999,
                "pitch": 29,
                "velocity": 64,
                "duration": 0.0318181818181813,
                "tempo": 120.0
            },
            {
                "start_time": 127.13863636363635,
                "end_time": 127.18636363636362,
                "pitch": 29,
                "velocity": 64,
                "duration": 0.04772727272727195,
                "tempo": 120.0
            },
            {
                "start_time": 127.32954545454545,
                "end_time": 127.43181818181817,
                "pitch": 31,
                "velocity": 64,
                "duration": 0.10227272727271952,
                "tempo": 120.0
            },
            {
                "start_time": 127.5340909090909,
                "end_time": 127.63636363636363,
                "pitch": 33,
                "velocity": 51,
                "duration": 0.10227272727271952,
                "tempo": 120.0
            },
            {
                "start_time": 127.74090909090908,
                "end_time": 127.79090909090908,
                "pitch": 31,
                "velocity": 51,
                "duration": 0.04999999999999716,
                "tempo": 120.0
            },
            {
                "start_time": 127.94090909090909,
                "end_time": 128.34318181818182,
                "pitch": 36,
                "velocity": 51,
                "duration": 0.4022727272727309,
                "tempo": 120.0
            },
            {
                "start_time": 128.34318181818182,
                "end_time": 128.5431818181818,
                "pitch": 35,
                "velocity": 51,
                "duration": 0.19999999999998863,
                "tempo": 120.0
            },
            {
                "start_time": 128.5431818181818,
                "end_time": 128.5772727272727,
                "pitch": 33,
                "velocity": 51,
                "duration": 0.03409090909090651,
                "tempo": 120.0
            },
            {
                "start_time": 128.6431818181818,
                "end_time": 128.6772727272727,
                "pitch": 33,
                "velocity": 51,
                "duration": 0.03409090909090651,
                "tempo": 120.0
            },
            {
                "start_time": 128.74545454545455,
                "end_time": 128.77954545454546,
                "pitch": 33,
                "velocity": 51,
                "duration": 0.03409090909090651,
                "tempo": 120.0
            },
            {
                "start_time": 129.14772727272728,
                "end_time": 129.17954545454546,
                "pitch": 36,
                "velocity": 40,
                "duration": 0.0318181818181813,
                "tempo": 120.0
            },
            {
                "start_time": 129.35,
                "end_time": 129.38181818181818,
                "pitch": 35,
                "velocity": 40,
                "duration": 0.0318181818181813,
                "tempo": 120.0
            },
            {
                "start_time": 129.65,
                "end_time": 130.0590909090909,
                "pitch": 31,
                "velocity": 40,
                "duration": 0.4090909090909065,
                "tempo": 120.0
            },
            {
                "start_time": 130.0590909090909,
                "end_time": 130.25681818181818,
                "pitch": 33,
                "velocity": 40,
                "duration": 0.19772727272726343,
                "tempo": 120.0
            },
            {
                "start_time": 130.25681818181818,
                "end_time": 130.28863636363636,
                "pitch": 33,
                "velocity": 40,
                "duration": 0.0318181818181813,
                "tempo": 120.0
            },
            {
                "start_time": 130.35227272727272,
                "end_time": 130.3840909090909,
                "pitch": 33,
                "velocity": 40,
                "duration": 0.0318181818181813,
                "tempo": 120.0
            },
            {
                "start_time": 130.5431818181818,
                "end_time": 130.64545454545453,
                "pitch": 35,
                "velocity": 40,
                "duration": 0.10227272727271952,
                "tempo": 120.0
            },
            {
                "start_time": 130.74772727272727,
                "end_time": 130.85227272727272,
                "pitch": 36,
                "velocity": 32,
                "duration": 0.10454545454544473,
                "tempo": 120.0
            },
            {
                "start_time": 130.95454545454544,
                "end_time": 130.98863636363635,
                "pitch": 35,
                "velocity": 32,
                "duration": 0.03409090909090651,
                "tempo": 120.0
            },
            {
                "start_time": 131.56136363636364,
                "end_time": 131.6590909090909,
                "pitch": 31,
                "velocity": 32,
                "duration": 0.09772727272726911,
                "tempo": 120.0
            },
            {
                "start_time": 131.75681818181818,
                "end_time": 131.79090909090908,
                "pitch": 29,
                "velocity": 32,
                "duration": 0.03409090909090651,
                "tempo": 120.0
            },
            {
                "start_time": 131.85681818181817,
                "end_time": 131.89090909090908,
                "pitch": 29,
                "velocity": 32,
                "duration": 0.03409090909090651,
                "tempo": 120.0
            },
            {
                "start_time": 131.95681818181816,
                "end_time": 131.99090909090907,
                "pitch": 29,
                "velocity": 32,
                "duration": 0.03409090909090651,
                "tempo": 120.0
            },
            {
                "start_time": 132.3590909090909,
                "end_time": 132.3931818181818,
                "pitch": 33,
                "velocity": 25,
                "duration": 0.03409090909090651,
                "tempo": 120.0
            },
            {
                "start_time": 132.5590909090909,
                "end_time": 132.59318181818182,
                "pitch": 31,
                "velocity": 25,
                "duration": 0.03409090909090651,
                "tempo": 120.0
            },
            {
                "start_time": 133.27045454545453,
                "end_time": 133.37272727272727,
                "pitch": 29,
                "velocity": 25,
                "duration": 0.10227272727274794,
                "tempo": 120.0
            },
            {
                "start_time": 133.46818181818182,
                "end_time": 133.51590909090908,
                "pitch": 29,
                "velocity": 25,
                "duration": 0.04772727272725774,
                "tempo": 120.0
            },
            {
                "start_time": 133.56363636363636,
                "end_time": 133.61136363636362,
                "pitch": 29,
                "velocity": 25,
                "duration": 0.04772727272725774,
                "tempo": 120.0
            },
            {
                "start_time": 133.75454545454545,
                "end_time": 133.85681818181817,
                "pitch": 31,
                "velocity": 25,
                "duration": 0.10227272727271952,
                "tempo": 120.0
            },
            {
                "start_time": 133.96136363636364,
                "end_time": 134.06363636363636,
                "pitch": 33,
                "velocity": 20,
                "duration": 0.10227272727271952,
                "tempo": 120.0
            },
            {
                "start_time": 134.16590909090908,
                "end_time": 134.2159090909091,
                "pitch": 31,
                "velocity": 20,
                "duration": 0.05000000000001137,
                "tempo": 120.0
            },
            {
                "start_time": 134.36818181818182,
                "end_time": 134.775,
                "pitch": 36,
                "velocity": 20,
                "duration": 0.4068181818181813,
                "tempo": 120.0
            },
            {
                "start_time": 134.775,
                "end_time": 134.97954545454544,
                "pitch": 35,
                "velocity": 20,
                "duration": 0.20454545454543904,
                "tempo": 120.0
            },
            {
                "start_time": 134.97954545454544,
                "end_time": 135.02727272727273,
                "pitch": 33,
                "velocity": 20,
                "duration": 0.04772727272728616,
                "tempo": 120.0
            },
            {
                "start_time": 135.0772727272727,
                "end_time": 135.12727272727273,
                "pitch": 33,
                "velocity": 20,
                "duration": 0.05000000000001137,
                "tempo": 120.0
            },
            {
                "start_time": 135.17499999999998,
                "end_time": 135.225,
                "pitch": 33,
                "velocity": 20,
                "duration": 0.05000000000001137,
                "tempo": 120.0
            },
            {
                "start_time": 135.57272727272726,
                "end_time": 135.62272727272727,
                "pitch": 36,
                "velocity": 16,
                "duration": 0.05000000000001137,
                "tempo": 120.0
            },
            {
                "start_time": 135.775,
                "end_time": 135.8090909090909,
                "pitch": 35,
                "velocity": 16,
                "duration": 0.03409090909090651,
                "tempo": 120.0
            },
            {
                "start_time": 136.075,
                "end_time": 136.47727272727272,
                "pitch": 31,
                "velocity": 16,
                "duration": 0.4022727272727309,
                "tempo": 120.0
            },
            {
                "start_time": 136.47727272727272,
                "end_time": 136.67499999999998,
                "pitch": 33,
                "velocity": 16,
                "duration": 0.19772727272726343,
                "tempo": 120.0
            },
            {
                "start_time": 136.67499999999998,
                "end_time": 136.70681818181816,
                "pitch": 33,
                "velocity": 16,
                "duration": 0.0318181818181813,
                "tempo": 120.0
            },
            {
                "start_time": 136.77272727272725,
                "end_time": 136.8068181818182,
                "pitch": 33,
                "velocity": 16,
                "duration": 0.03409090909093493,
                "tempo": 120.0
            },
            {
                "start_time": 136.96818181818182,
                "end_time": 137.05454545454546,
                "pitch": 35,
                "velocity": 16,
                "duration": 0.08636363636364308,
                "tempo": 120.0
            },
            {
                "start_time": 137.17499999999998,
                "end_time": 137.27727272727273,
                "pitch": 36,
                "velocity": 13,
                "duration": 0.10227272727274794,
                "tempo": 120.0
            },
            {
                "start_time": 137.38181818181818,
                "end_time": 137.41363636363636,
                "pitch": 35,
                "velocity": 13,
                "duration": 0.0318181818181813,
                "tempo": 120.0
            },
            {
                "start_time": 137.9840909090909,
                "end_time": 138.0840909090909,
                "pitch": 31,
                "velocity": 13,
                "duration": 0.09999999999999432,
                "tempo": 120.0
            },
            {
                "start_time": 138.1840909090909,
                "end_time": 138.2340909090909,
                "pitch": 29,
                "velocity": 13,
                "duration": 0.04999999999998295,
                "tempo": 120.0
            },
            {
                "start_time": 138.2840909090909,
                "end_time": 138.3181818181818,
                "pitch": 29,
                "velocity": 13,
                "duration": 0.03409090909090651,
                "tempo": 120.0
            },
            {
                "start_time": 138.3840909090909,
                "end_time": 138.4340909090909,
                "pitch": 29,
                "velocity": 13,
                "duration": 0.05000000000001137,
                "tempo": 120.0
            },
            {
                "start_time": 138.78636363636363,
                "end_time": 138.83636363636364,
                "pitch": 33,
                "velocity": 10,
                "duration": 0.05000000000001137,
                "tempo": 120.0
            },
            {
                "start_time": 138.98863636363635,
                "end_time": 139.03863636363636,
                "pitch": 31,
                "velocity": 10,
                "duration": 0.05000000000001137,
                "tempo": 120.0
            },
            {
                "start_time": 139.7,
                "end_time": 139.79999999999998,
                "pitch": 29,
                "velocity": 10,
                "duration": 0.09999999999999432,
                "tempo": 120.0
            },
            {
                "start_time": 139.89545454545453,
                "end_time": 139.9431818181818,
                "pitch": 29,
                "velocity": 10,
                "duration": 0.04772727272728616,
                "tempo": 120.0
            },
            {
                "start_time": 139.99090909090907,
                "end_time": 140.03863636363636,
                "pitch": 29,
                "velocity": 10,
                "duration": 0.04772727272728616,
                "tempo": 120.0
            },
            {
                "start_time": 140.1840909090909,
                "end_time": 140.28636363636363,
                "pitch": 31,
                "velocity": 10,
                "duration": 0.10227272727271952,
                "tempo": 120.0
            },
            {
                "start_time": 140.38863636363635,
                "end_time": 140.49090909090907,
                "pitch": 33,
                "velocity": 8,
                "duration": 0.10227272727271952,
                "tempo": 120.0
            },
            {
                "start_time": 140.59318181818182,
                "end_time": 140.64545454545453,
                "pitch": 31,
                "velocity": 8,
                "duration": 0.05227272727270815,
                "tempo": 120.0
            },
            {
                "start_time": 140.79999999999998,
                "end_time": 141.2022727272727,
                "pitch": 36,
                "velocity": 8,
                "duration": 0.4022727272727309,
                "tempo": 120.0
            },
            {
                "start_time": 141.2022727272727,
                "end_time": 141.39772727272725,
                "pitch": 35,
                "velocity": 8,
                "duration": 0.19545454545453822,
                "tempo": 120.0
            },
            {
                "start_time": 141.39772727272725,
                "end_time": 141.4318181818182,
                "pitch": 33,
                "velocity": 8,
                "duration": 0.03409090909093493,
                "tempo": 120.0
            },
            {
                "start_time": 141.5,
                "end_time": 141.53181818181818,
                "pitch": 33,
                "velocity": 8,
                "duration": 0.0318181818181813,
                "tempo": 120.0
            },
            {
                "start_time": 141.6,
                "end_time": 141.6340909090909,
                "pitch": 33,
                "velocity": 8,
                "duration": 0.03409090909090651,
                "tempo": 120.0
            },
            {
                "start_time": 142.00681818181818,
                "end_time": 142.04090909090908,
                "pitch": 36,
                "velocity": 6,
                "duration": 0.03409090909090651,
                "tempo": 120.0
            },
            {
                "start_time": 142.21136363636364,
                "end_time": 142.24545454545455,
                "pitch": 35,
                "velocity": 6,
                "duration": 0.03409090909090651,
                "tempo": 120.0
            },
            {
                "start_time": 142.50454545454545,
                "end_time": 142.89772727272725,
                "pitch": 31,
                "velocity": 6,
                "duration": 0.39318181818180165,
                "tempo": 120.0
            },
            {
                "start_time": 142.89772727272725,
                "end_time": 143.09545454545454,
                "pitch": 33,
                "velocity": 6,
                "duration": 0.19772727272729185,
                "tempo": 120.0
            },
            {
                "start_time": 143.09545454545454,
                "end_time": 143.12954545454545,
                "pitch": 33,
                "velocity": 6,
                "duration": 0.03409090909090651,
                "tempo": 120.0
            },
            {
                "start_time": 143.19545454545454,
                "end_time": 143.22954545454544,
                "pitch": 33,
                "velocity": 6,
                "duration": 0.03409090909090651,
                "tempo": 120.0
            }
        ],
        "Acoustic Grand Piano": [
            {
                "start_time": 77.14545454545454,
                "end_time": 77.21363636363635,
                "pitch": 74,
                "velocity": 51,
                "duration": 0.06818181818181301,
                "tempo": 120.0
            },
            {
                "start_time": 77.21363636363635,
                "end_time": 79.75227272727273,
                "pitch": 76,
                "velocity": 51,
                "duration": 2.538636363636371,
                "tempo": 120.0
            },
            {
                "start_time": 79.85454545454544,
                "end_time": 79.95681818181818,
                "pitch": 84,
                "velocity": 51,
                "duration": 0.10227272727273373,
                "tempo": 120.0
            },
            {
                "start_time": 80.05681818181817,
                "end_time": 80.15681818181818,
                "pitch": 86,
                "velocity": 51,
                "duration": 0.10000000000000853,
                "tempo": 120.0
            },
            {
                "start_time": 80.25681818181818,
                "end_time": 80.35681818181818,
                "pitch": 79,
                "velocity": 51,
                "duration": 0.10000000000000853,
                "tempo": 120.0
            },
            {
                "start_time": 80.35681818181818,
                "end_time": 81.66363636363636,
                "pitch": 76,
                "velocity": 51,
                "duration": 1.3068181818181728,
                "tempo": 120.0
            },
            {
                "start_time": 81.66363636363636,
                "end_time": 81.76363636363637,
                "pitch": 74,
                "velocity": 51,
                "duration": 0.10000000000000853,
                "tempo": 120.0
            },
            {
                "start_time": 81.76363636363637,
                "end_time": 81.86363636363636,
                "pitch": 72,
                "velocity": 51,
                "duration": 0.09999999999999432,
                "tempo": 120.0
            },
            {
                "start_time": 81.86363636363636,
                "end_time": 83.16818181818181,
                "pitch": 71,
                "velocity": 51,
                "duration": 1.3045454545454476,
                "tempo": 120.0
            },
            {
                "start_time": 83.16818181818181,
                "end_time": 83.57045454545454,
                "pitch": 74,
                "velocity": 51,
                "duration": 0.4022727272727309,
                "tempo": 120.0
            },
            {
                "start_time": 83.57045454545454,
                "end_time": 83.63863636363637,
                "pitch": 74,
                "velocity": 51,
                "duration": 0.06818181818182723,
                "tempo": 120.0
            },
            {
                "start_time": 83.63863636363637,
                "end_time": 86.17727272727272,
                "pitch": 76,
                "velocity": 51,
                "duration": 2.538636363636357,
                "tempo": 120.0
            },
            {
                "start_time": 86.27954545454546,
                "end_time": 86.38181818181818,
                "pitch": 84,
                "velocity": 51,
                "duration": 0.10227272727271952,
                "tempo": 120.0
            },
            {
                "start_time": 86.48181818181818,
                "end_time": 86.5840909090909,
                "pitch": 86,
                "velocity": 51,
                "duration": 0.10227272727271952,
                "tempo": 120.0
            },
            {
                "start_time": 86.6840909090909,
                "end_time": 86.7840909090909,
                "pitch": 79,
                "velocity": 51,
                "duration": 0.10000000000000853,
                "tempo": 120.0
            },
            {
                "start_time": 86.7840909090909,
                "end_time": 88.0909090909091,
                "pitch": 76,
                "velocity": 51,
                "duration": 1.306818181818187,
                "tempo": 120.0
            },
            {
                "start_time": 88.19090909090909,
                "end_time": 88.29090909090908,
                "pitch": 67,
                "velocity": 51,
                "duration": 0.09999999999999432,
                "tempo": 120.0
            },
            {
                "start_time": 88.29090909090908,
                "end_time": 88.35681818181818,
                "pitch": 67,
                "velocity": 51,
                "duration": 0.06590909090910202,
                "tempo": 120.0
            },
            {
                "start_time": 88.35681818181818,
                "end_time": 88.39090909090909,
                "pitch": 69,
                "velocity": 51,
                "duration": 0.03409090909090651,
                "tempo": 120.0
            },
            {
                "start_time": 88.39090909090909,
                "end_time": 88.45454545454545,
                "pitch": 69,
                "velocity": 51,
                "duration": 0.0636363636363626,
                "tempo": 120.0
            },
            {
                "start_time": 88.45454545454545,
                "end_time": 89.59545454545454,
                "pitch": 71,
                "velocity": 51,
                "duration": 1.1409090909090907,
                "tempo": 120.0
            }
        ],
        "Electric Piano 1": [
            {
                "start_time": 0.0,
                "end_time": 0.08409090909090909,
                "pitch": 62,
                "velocity": 127,
                "duration": 0.08409090909090909,
                "tempo": 120.0
            },
            {
                "start_time": 0.09999999999999999,
                "end_time": 0.19999999999999998,
                "pitch": 63,
                "velocity": 51,
                "duration": 0.09999999999999999,
                "tempo": 120.0
            },
            {
                "start_time": 0.2159090909090909,
                "end_time": 0.3,
                "pitch": 64,
                "velocity": 51,
                "duration": 0.08409090909090908,
                "tempo": 120.0
            },
            {
                "start_time": 0.4159090909090909,
                "end_time": 0.5045454545454545,
                "pitch": 62,
                "velocity": 51,
                "duration": 0.08863636363636362,
                "tempo": 120.0
            },
            {
                "start_time": 0.6272727272727272,
                "end_time": 0.7159090909090908,
                "pitch": 63,
                "velocity": 51,
                "duration": 0.08863636363636362,
                "tempo": 120.0
            },
            {
                "start_time": 0.8409090909090908,
                "end_time": 0.9090909090909091,
                "pitch": 64,
                "velocity": 51,
                "duration": 0.06818181818181823,
                "tempo": 120.0
            },
            {
                "start_time": 1.5409090909090908,
                "end_time": 1.6727272727272726,
                "pitch": 67,
                "velocity": 51,
                "duration": 0.13181818181818183,
                "tempo": 120.0
            },
            {
                "start_time": 1.7386363636363635,
                "end_time": 1.8045454545454545,
                "pitch": 67,
                "velocity": 51,
                "duration": 0.06590909090909092,
                "tempo": 120.0
            },
            {
                "start_time": 1.8363636363636362,
                "end_time": 1.9022727272727271,
                "pitch": 67,
                "velocity": 51,
                "duration": 0.06590909090909092,
                "tempo": 120.0
            },
            {
                "start_time": 2.034090909090909,
                "end_time": 2.1704545454545454,
                "pitch": 69,
                "velocity": 51,
                "duration": 0.13636363636363624,
                "tempo": 120.0
            },
            {
                "start_time": 2.2386363636363633,
                "end_time": 2.375,
                "pitch": 70,
                "velocity": 51,
                "duration": 0.1363636363636367,
                "tempo": 120.0
            },
            {
                "start_time": 2.4454545454545453,
                "end_time": 2.5113636363636362,
                "pitch": 71,
                "velocity": 51,
                "duration": 0.06590909090909092,
                "tempo": 120.0
            },
            {
                "start_time": 3.143181818181818,
                "end_time": 3.277272727272727,
                "pitch": 67,
                "velocity": 51,
                "duration": 0.13409090909090882,
                "tempo": 120.0
            },
            {
                "start_time": 3.3454545454545452,
                "end_time": 3.411363636363636,
                "pitch": 69,
                "velocity": 51,
                "duration": 0.06590909090909092,
                "tempo": 120.0
            },
            {
                "start_time": 3.4454545454545453,
                "end_time": 3.5136363636363637,
                "pitch": 69,
                "velocity": 51,
                "duration": 0.06818181818181834,
                "tempo": 120.0
            },
            {
                "start_time": 3.6477272727272725,
                "end_time": 3.7136363636363634,
                "pitch": 67,
                "velocity": 51,
                "duration": 0.06590909090909092,
                "tempo": 120.0
            },
            {
                "start_time": 3.8477272727272727,
                "end_time": 3.9136363636363636,
                "pitch": 69,
                "velocity": 51,
                "duration": 0.06590909090909092,
                "tempo": 120.0
            },
            {
                "start_time": 4.047727272727273,
                "end_time": 4.113636363636363,
                "pitch": 67,
                "velocity": 51,
                "duration": 0.06590909090909047,
                "tempo": 120.0
            },
            {
                "start_time": 4.747727272727272,
                "end_time": 4.881818181818182,
                "pitch": 69,
                "velocity": 51,
                "duration": 0.1340909090909097,
                "tempo": 120.0
            },
            {
                "start_time": 4.947727272727272,
                "end_time": 5.013636363636364,
                "pitch": 69,
                "velocity": 51,
                "duration": 0.06590909090909136,
                "tempo": 120.0
            },
            {
                "start_time": 5.045454545454545,
                "end_time": 5.111363636363636,
                "pitch": 69,
                "velocity": 51,
                "duration": 0.06590909090909136,
                "tempo": 120.0
            },
            {
                "start_time": 5.24090909090909,
                "end_time": 5.379545454545454,
                "pitch": 67,
                "velocity": 51,
                "duration": 0.13863636363636367,
                "tempo": 120.0
            },
            {
                "start_time": 5.447727272727272,
                "end_time": 5.515909090909091,
                "pitch": 69,
                "velocity": 51,
                "duration": 0.06818181818181834,
                "tempo": 120.0
            },
            {
                "start_time": 5.652272727272727,
                "end_time": 5.720454545454545,
                "pitch": 71,
                "velocity": 51,
                "duration": 0.06818181818181746,
                "tempo": 120.0
            },
            {
                "start_time": 6.054545454545455,
                "end_time": 6.331818181818181,
                "pitch": 69,
                "velocity": 51,
                "duration": 0.27727272727272645,
                "tempo": 120.0
            },
            {
                "start_time": 6.445454545454545,
                "end_time": 6.515909090909091,
                "pitch": 62,
                "velocity": 51,
                "duration": 0.07045454545454533,
                "tempo": 120.0
            },
            {
                "start_time": 6.55,
                "end_time": 6.618181818181818,
                "pitch": 63,
                "velocity": 51,
                "duration": 0.06818181818181834,
                "tempo": 120.0
            },
            {
                "start_time": 6.652272727272727,
                "end_time": 6.720454545454545,
                "pitch": 64,
                "velocity": 51,
                "duration": 0.06818181818181746,
                "tempo": 120.0
            },
            {
                "start_time": 6.8568181818181815,
                "end_time": 6.936363636363636,
                "pitch": 62,
                "velocity": 51,
                "duration": 0.07954545454545414,
                "tempo": 120.0
            },
            {
                "start_time": 7.052272727272727,
                "end_time": 7.134090909090909,
                "pitch": 63,
                "velocity": 51,
                "duration": 0.08181818181818201,
                "tempo": 120.0
            },
            {
                "start_time": 7.25,
                "end_time": 7.3181818181818175,
                "pitch": 64,
                "velocity": 51,
                "duration": 0.06818181818181746,
                "tempo": 120.0
            },
            {
                "start_time": 7.963636363636363,
                "end_time": 8.095454545454546,
                "pitch": 67,
                "velocity": 51,
                "duration": 0.13181818181818272,
                "tempo": 120.0
            },
            {
                "start_time": 8.161363636363635,
                "end_time": 8.227272727272727,
                "pitch": 67,
                "velocity": 51,
                "duration": 0.06590909090909136,
                "tempo": 120.0
            },
            {
                "start_time": 8.259090909090908,
                "end_time": 8.325,
                "pitch": 67,
                "velocity": 51,
                "duration": 0.06590909090909136,
                "tempo": 120.0
            },
            {
                "start_time": 8.456818181818182,
                "end_time": 8.59090909090909,
                "pitch": 69,
                "velocity": 51,
                "duration": 0.13409090909090793,
                "tempo": 120.0
            },
            {
                "start_time": 8.656818181818181,
                "end_time": 8.790909090909091,
                "pitch": 70,
                "velocity": 51,
                "duration": 0.1340909090909097,
                "tempo": 120.0
            },
            {
                "start_time": 8.85909090909091,
                "end_time": 8.927272727272728,
                "pitch": 71,
                "velocity": 51,
                "duration": 0.06818181818181834,
                "tempo": 120.0
            },
            {
                "start_time": 9.570454545454545,
                "end_time": 9.704545454545453,
                "pitch": 67,
                "velocity": 51,
                "duration": 0.13409090909090793,
                "tempo": 120.0
            },
            {
                "start_time": 9.772727272727272,
                "end_time": 9.838636363636363,
                "pitch": 69,
                "velocity": 51,
                "duration": 0.06590909090909136,
                "tempo": 120.0
            },
            {
                "start_time": 9.872727272727273,
                "end_time": 9.938636363636363,
                "pitch": 69,
                "velocity": 51,
                "duration": 0.06590909090908958,
                "tempo": 120.0
            },
            {
                "start_time": 10.072727272727272,
                "end_time": 10.138636363636364,
                "pitch": 67,
                "velocity": 51,
                "duration": 0.06590909090909136,
                "tempo": 120.0
            },
            {
                "start_time": 10.272727272727272,
                "end_time": 10.34090909090909,
                "pitch": 69,
                "velocity": 51,
                "duration": 0.06818181818181834,
                "tempo": 120.0
            },
            {
                "start_time": 10.475,
                "end_time": 10.543181818181818,
                "pitch": 67,
                "velocity": 51,
                "duration": 0.06818181818181834,
                "tempo": 120.0
            },
            {
                "start_time": 11.179545454545455,
                "end_time": 11.313636363636363,
                "pitch": 69,
                "velocity": 51,
                "duration": 0.13409090909090793,
                "tempo": 120.0
            },
            {
                "start_time": 11.377272727272727,
                "end_time": 11.443181818181818,
                "pitch": 69,
                "velocity": 51,
                "duration": 0.06590909090909136,
                "tempo": 120.0
            },
            {
                "start_time": 11.477272727272727,
                "end_time": 11.540909090909091,
                "pitch": 69,
                "velocity": 51,
                "duration": 0.06363636363636438,
                "tempo": 120.0
            },
            {
                "start_time": 11.672727272727272,
                "end_time": 11.809090909090909,
                "pitch": 67,
                "velocity": 51,
                "duration": 0.1363636363636367,
                "tempo": 120.0
            },
            {
                "start_time": 11.877272727272727,
                "end_time": 11.945454545454545,
                "pitch": 69,
                "velocity": 51,
                "duration": 0.06818181818181834,
                "tempo": 120.0
            },
            {
                "start_time": 12.084090909090909,
                "end_time": 12.149999999999999,
                "pitch": 71,
                "velocity": 51,
                "duration": 0.06590909090908958,
                "tempo": 120.0
            },
            {
                "start_time": 12.486363636363636,
                "end_time": 12.786363636363635,
                "pitch": 69,
                "velocity": 51,
                "duration": 0.29999999999999893,
                "tempo": 120.0
            },
            {
                "start_time": 12.886363636363635,
                "end_time": 12.970454545454546,
                "pitch": 62,
                "velocity": 51,
                "duration": 0.08409090909091077,
                "tempo": 120.0
            },
            {
                "start_time": 12.986363636363636,
                "end_time": 13.070454545454545,
                "pitch": 63,
                "velocity": 51,
                "duration": 0.084090909090909,
                "tempo": 120.0
            },
            {
                "start_time": 13.088636363636363,
                "end_time": 13.172727272727272,
                "pitch": 64,
                "velocity": 51,
                "duration": 0.084090909090909,
                "tempo": 120.0
            },
            {
                "start_time": 13.288636363636362,
                "end_time": 13.370454545454544,
                "pitch": 62,
                "velocity": 51,
                "duration": 0.08181818181818201,
                "tempo": 120.0
            },
            {
                "start_time": 13.486363636363636,
                "end_time": 13.56590909090909,
                "pitch": 63,
                "velocity": 51,
                "duration": 0.07954545454545325,
                "tempo": 120.0
            },
            {
                "start_time": 13.684090909090909,
                "end_time": 13.752272727272727,
                "pitch": 64,
                "velocity": 51,
                "duration": 0.06818181818181834,
                "tempo": 120.0
            },
            {
                "start_time": 14.395454545454545,
                "end_time": 14.529545454545454,
                "pitch": 67,
                "velocity": 51,
                "duration": 0.1340909090909097,
                "tempo": 120.0
            },
            {
                "start_time": 14.595454545454544,
                "end_time": 14.661363636363635,
                "pitch": 67,
                "velocity": 51,
                "duration": 0.06590909090909136,
                "tempo": 120.0
            },
            {
                "start_time": 14.693181818181818,
                "end_time": 14.759090909090908,
                "pitch": 67,
                "velocity": 51,
                "duration": 0.06590909090908958,
                "tempo": 120.0
            },
            {
                "start_time": 14.888636363636364,
                "end_time": 15.024999999999999,
                "pitch": 69,
                "velocity": 51,
                "duration": 0.1363636363636349,
                "tempo": 120.0
            },
            {
                "start_time": 15.095454545454544,
                "end_time": 15.23181818181818,
                "pitch": 70,
                "velocity": 51,
                "duration": 0.1363636363636367,
                "tempo": 120.0
            },
            {
                "start_time": 15.299999999999999,
                "end_time": 15.368181818181817,
                "pitch": 71,
                "velocity": 51,
                "duration": 0.06818181818181834,
                "tempo": 120.0
            },
            {
                "start_time": 16.002272727272725,
                "end_time": 16.136363636363637,
                "pitch": 67,
                "velocity": 51,
                "duration": 0.13409090909091148,
                "tempo": 120.0
            },
            {
                "start_time": 16.204545454545453,
                "end_time": 16.270454545454545,
                "pitch": 69,
                "velocity": 51,
                "duration": 0.06590909090909136,
                "tempo": 120.0
            },
            {
                "start_time": 16.304545454545455,
                "end_time": 16.370454545454546,
                "pitch": 69,
                "velocity": 51,
                "duration": 0.06590909090909136,
                "tempo": 120.0
            },
            {
                "start_time": 16.504545454545454,
                "end_time": 16.57272727272727,
                "pitch": 67,
                "velocity": 51,
                "duration": 0.06818181818181657,
                "tempo": 120.0
            },
            {
                "start_time": 16.706818181818182,
                "end_time": 16.775,
                "pitch": 69,
                "velocity": 51,
                "duration": 0.06818181818181657,
                "tempo": 120.0
            },
            {
                "start_time": 16.909090909090907,
                "end_time": 16.974999999999998,
                "pitch": 67,
                "velocity": 51,
                "duration": 0.06590909090909136,
                "tempo": 120.0
            },
            {
                "start_time": 17.60909090909091,
                "end_time": 17.74090909090909,
                "pitch": 69,
                "velocity": 51,
                "duration": 0.13181818181817917,
                "tempo": 120.0
            },
            {
                "start_time": 17.80681818181818,
                "end_time": 17.870454545454546,
                "pitch": 69,
                "velocity": 51,
                "duration": 0.06363636363636616,
                "tempo": 120.0
            },
            {
                "start_time": 17.904545454545453,
                "end_time": 17.970454545454544,
                "pitch": 69,
                "velocity": 51,
                "duration": 0.06590909090909136,
                "tempo": 120.0
            },
            {
                "start_time": 18.099999999999998,
                "end_time": 18.236363636363635,
                "pitch": 67,
                "velocity": 51,
                "duration": 0.1363636363636367,
                "tempo": 120.0
            },
            {
                "start_time": 18.30681818181818,
                "end_time": 18.375,
                "pitch": 69,
                "velocity": 51,
                "duration": 0.06818181818182012,
                "tempo": 120.0
            },
            {
                "start_time": 18.511363636363637,
                "end_time": 18.579545454545453,
                "pitch": 71,
                "velocity": 51,
                "duration": 0.06818181818181657,
                "tempo": 120.0
            },
            {
                "start_time": 18.913636363636364,
                "end_time": 19.211363636363636,
                "pitch": 69,
                "velocity": 51,
                "duration": 0.29772727272727195,
                "tempo": 120.0
            },
            {
                "start_time": 19.311363636363634,
                "end_time": 19.411363636363635,
                "pitch": 62,
                "velocity": 51,
                "duration": 0.10000000000000142,
                "tempo": 120.0
            },
            {
                "start_time": 19.429545454545455,
                "end_time": 19.511363636363637,
                "pitch": 63,
                "velocity": 51,
                "duration": 0.08181818181818201,
                "tempo": 120.0
            },
            {
                "start_time": 19.529545454545453,
                "end_time": 19.611363636363635,
                "pitch": 64,
                "velocity": 51,
                "duration": 0.08181818181818201,
                "tempo": 120.0
            },
            {
                "start_time": 19.729545454545452,
                "end_time": 19.813636363636363,
                "pitch": 62,
                "velocity": 51,
                "duration": 0.08409090909091077,
                "tempo": 120.0
            },
            {
                "start_time": 19.93409090909091,
                "end_time": 20.020454545454545,
                "pitch": 63,
                "velocity": 51,
                "duration": 0.08636363636363598,
                "tempo": 120.0
            },
            {
                "start_time": 20.143181818181816,
                "end_time": 20.211363636363636,
                "pitch": 64,
                "velocity": 51,
                "duration": 0.06818181818182012,
                "tempo": 120.0
            },
            {
                "start_time": 20.854545454545452,
                "end_time": 20.988636363636363,
                "pitch": 67,
                "velocity": 51,
                "duration": 0.13409090909091148,
                "tempo": 120.0
            },
            {
                "start_time": 21.054545454545455,
                "end_time": 21.118181818181817,
                "pitch": 67,
                "velocity": 51,
                "duration": 0.0636363636363626,
                "tempo": 120.0
            },
            {
                "start_time": 21.152272727272727,
                "end_time": 21.21590909090909,
                "pitch": 67,
                "velocity": 51,
                "duration": 0.0636363636363626,
                "tempo": 120.0
            },
            {
                "start_time": 21.347727272727273,
                "end_time": 21.48409090909091,
                "pitch": 69,
                "velocity": 51,
                "duration": 0.1363636363636367,
                "tempo": 120.0
            },
            {
                "start_time": 21.552272727272726,
                "end_time": 21.69090909090909,
                "pitch": 70,
                "velocity": 51,
                "duration": 0.13863636363636545,
                "tempo": 120.0
            },
            {
                "start_time": 21.759090909090908,
                "end_time": 21.827272727272724,
                "pitch": 71,
                "velocity": 51,
                "duration": 0.06818181818181657,
                "tempo": 120.0
            },
            {
                "start_time": 22.461363636363636,
                "end_time": 22.595454545454544,
                "pitch": 67,
                "velocity": 51,
                "duration": 0.13409090909090793,
                "tempo": 120.0
            },
            {
                "start_time": 22.661363636363635,
                "end_time": 22.729545454545452,
                "pitch": 69,
                "velocity": 51,
                "duration": 0.06818181818181657,
                "tempo": 120.0
            },
            {
                "start_time": 22.763636363636362,
                "end_time": 22.829545454545453,
                "pitch": 69,
                "velocity": 51,
                "duration": 0.06590909090909136,
                "tempo": 120.0
            },
            {
                "start_time": 22.96363636363636,
                "end_time": 23.03181818181818,
                "pitch": 67,
                "velocity": 51,
                "duration": 0.06818181818182012,
                "tempo": 120.0
            },
            {
                "start_time": 23.163636363636364,
                "end_time": 23.23181818181818,
                "pitch": 69,
                "velocity": 51,
                "duration": 0.06818181818181657,
                "tempo": 120.0
            },
            {
                "start_time": 23.363636363636363,
                "end_time": 23.43181818181818,
                "pitch": 67,
                "velocity": 51,
                "duration": 0.06818181818181657,
                "tempo": 120.0
            },
            {
                "start_time": 24.06590909090909,
                "end_time": 24.2,
                "pitch": 69,
                "velocity": 51,
                "duration": 0.13409090909090793,
                "tempo": 120.0
            },
            {
                "start_time": 24.26590909090909,
                "end_time": 24.329545454545453,
                "pitch": 69,
                "velocity": 51,
                "duration": 0.0636363636363626,
                "tempo": 120.0
            },
            {
                "start_time": 24.363636363636363,
                "end_time": 24.427272727272726,
                "pitch": 69,
                "velocity": 51,
                "duration": 0.0636363636363626,
                "tempo": 120.0
            },
            {
                "start_time": 24.55909090909091,
                "end_time": 24.695454545454545,
                "pitch": 67,
                "velocity": 51,
                "duration": 0.1363636363636367,
                "tempo": 120.0
            },
            {
                "start_time": 24.763636363636362,
                "end_time": 24.831818181818182,
                "pitch": 69,
                "velocity": 51,
                "duration": 0.06818181818182012,
                "tempo": 120.0
            },
            {
                "start_time": 24.970454545454544,
                "end_time": 25.036363636363635,
                "pitch": 71,
                "velocity": 51,
                "duration": 0.06590909090909136,
                "tempo": 120.0
            },
            {
                "start_time": 25.352272727272727,
                "end_time": 25.677272727272726,
                "pitch": 69,
                "velocity": 51,
                "duration": 0.3249999999999993,
                "tempo": 120.0
            },
            {
                "start_time": 25.777272727272727,
                "end_time": 25.863636363636363,
                "pitch": 62,
                "velocity": 51,
                "duration": 0.08636363636363598,
                "tempo": 120.0
            },
            {
                "start_time": 25.88181818181818,
                "end_time": 25.970454545454544,
                "pitch": 63,
                "velocity": 51,
                "duration": 0.08863636363636473,
                "tempo": 120.0
            },
            {
                "start_time": 25.988636363636363,
                "end_time": 26.075,
                "pitch": 64,
                "velocity": 51,
                "duration": 0.08636363636363598,
                "tempo": 120.0
            },
            {
                "start_time": 26.2,
                "end_time": 26.28181818181818,
                "pitch": 62,
                "velocity": 51,
                "duration": 0.08181818181818201,
                "tempo": 120.0
            },
            {
                "start_time": 26.4,
                "end_time": 26.48409090909091,
                "pitch": 63,
                "velocity": 51,
                "duration": 0.08409090909091077,
                "tempo": 120.0
            },
            {
                "start_time": 26.604545454545452,
                "end_time": 26.670454545454543,
                "pitch": 64,
                "velocity": 51,
                "duration": 0.06590909090909136,
                "tempo": 120.0
            },
            {
                "start_time": 27.311363636363634,
                "end_time": 27.44772727272727,
                "pitch": 67,
                "velocity": 51,
                "duration": 0.1363636363636367,
                "tempo": 120.0
            },
            {
                "start_time": 27.511363636363637,
                "end_time": 27.577272727272724,
                "pitch": 67,
                "velocity": 51,
                "duration": 0.06590909090908781,
                "tempo": 120.0
            },
            {
                "start_time": 27.611363636363635,
                "end_time": 27.674999999999997,
                "pitch": 67,
                "velocity": 51,
                "duration": 0.0636363636363626,
                "tempo": 120.0
            },
            {
                "start_time": 27.80681818181818,
                "end_time": 27.940909090909088,
                "pitch": 69,
                "velocity": 51,
                "duration": 0.13409090909090793,
                "tempo": 120.0
            },
            {
                "start_time": 28.00681818181818,
                "end_time": 28.14090909090909,
                "pitch": 70,
                "velocity": 51,
                "duration": 0.13409090909091148,
                "tempo": 120.0
            },
            {
                "start_time": 28.206818181818182,
                "end_time": 28.275,
                "pitch": 71,
                "velocity": 51,
                "duration": 0.06818181818181657,
                "tempo": 120.0
            },
            {
                "start_time": 28.911363636363635,
                "end_time": 29.043181818181818,
                "pitch": 67,
                "velocity": 51,
                "duration": 0.13181818181818272,
                "tempo": 120.0
            },
            {
                "start_time": 29.111363636363635,
                "end_time": 29.177272727272726,
                "pitch": 69,
                "velocity": 51,
                "duration": 0.06590909090909136,
                "tempo": 120.0
            },
            {
                "start_time": 29.211363636363636,
                "end_time": 29.277272727272727,
                "pitch": 69,
                "velocity": 51,
                "duration": 0.06590909090909136,
                "tempo": 120.0
            },
            {
                "start_time": 29.411363636363635,
                "end_time": 29.479545454545452,
                "pitch": 67,
                "velocity": 51,
                "duration": 0.06818181818181657,
                "tempo": 120.0
            },
            {
                "start_time": 29.611363636363635,
                "end_time": 29.679545454545455,
                "pitch": 69,
                "velocity": 51,
                "duration": 0.06818181818182012,
                "tempo": 120.0
            },
            {
                "start_time": 29.811363636363634,
                "end_time": 29.879545454545454,
                "pitch": 67,
                "velocity": 51,
                "duration": 0.06818181818182012,
                "tempo": 120.0
            },
            {
                "start_time": 30.520454545454545,
                "end_time": 30.654545454545453,
                "pitch": 69,
                "velocity": 51,
                "duration": 0.13409090909090793,
                "tempo": 120.0
            },
            {
                "start_time": 30.718181818181815,
                "end_time": 30.78181818181818,
                "pitch": 69,
                "velocity": 51,
                "duration": 0.06363636363636616,
                "tempo": 120.0
            },
            {
                "start_time": 30.813636363636363,
                "end_time": 30.877272727272725,
                "pitch": 69,
                "velocity": 51,
                "duration": 0.0636363636363626,
                "tempo": 120.0
            },
            {
                "start_time": 31.004545454545454,
                "end_time": 31.14090909090909,
                "pitch": 67,
                "velocity": 51,
                "duration": 0.1363636363636367,
                "tempo": 120.0
            },
            {
                "start_time": 31.209090909090907,
                "end_time": 31.279545454545453,
                "pitch": 69,
                "velocity": 51,
                "duration": 0.07045454545454533,
                "tempo": 120.0
            },
            {
                "start_time": 31.41590909090909,
                "end_time": 31.48181818181818,
                "pitch": 71,
                "velocity": 51,
                "duration": 0.06590909090909136,
                "tempo": 120.0
            },
            {
                "start_time": 31.799999999999997,
                "end_time": 32.09318181818182,
                "pitch": 69,
                "velocity": 51,
                "duration": 0.29318181818182154,
                "tempo": 120.0
            },
            {
                "start_time": 32.20681818181818,
                "end_time": 32.277272727272724,
                "pitch": 62,
                "velocity": 51,
                "duration": 0.07045454545454533,
                "tempo": 120.0
            },
            {
                "start_time": 32.31136363636364,
                "end_time": 32.37954545454545,
                "pitch": 63,
                "velocity": 51,
                "duration": 0.06818181818181301,
                "tempo": 120.0
            },
            {
                "start_time": 32.413636363636364,
                "end_time": 32.48181818181818,
                "pitch": 64,
                "velocity": 51,
                "duration": 0.06818181818181301,
                "tempo": 120.0
            },
            {
                "start_time": 32.61590909090909,
                "end_time": 32.699999999999996,
                "pitch": 62,
                "velocity": 51,
                "duration": 0.08409090909090366,
                "tempo": 120.0
            },
            {
                "start_time": 32.81818181818182,
                "end_time": 32.902272727272724,
                "pitch": 63,
                "velocity": 51,
                "duration": 0.08409090909090366,
                "tempo": 120.0
            },
            {
                "start_time": 33.02272727272727,
                "end_time": 33.08863636363636,
                "pitch": 64,
                "velocity": 51,
                "duration": 0.06590909090908781,
                "tempo": 120.0
            },
            {
                "start_time": 33.72954545454545,
                "end_time": 33.86363636363636,
                "pitch": 67,
                "velocity": 51,
                "duration": 0.13409090909090793,
                "tempo": 120.0
            },
            {
                "start_time": 33.929545454545455,
                "end_time": 33.99545454545454,
                "pitch": 67,
                "velocity": 51,
                "duration": 0.06590909090908781,
                "tempo": 120.0
            },
            {
                "start_time": 34.027272727272724,
                "end_time": 34.09318181818182,
                "pitch": 67,
                "velocity": 51,
                "duration": 0.06590909090909491,
                "tempo": 120.0
            },
            {
                "start_time": 34.225,
                "end_time": 34.35681818181818,
                "pitch": 69,
                "velocity": 51,
                "duration": 0.13181818181817562,
                "tempo": 120.0
            },
            {
                "start_time": 34.425,
                "end_time": 34.55681818181818,
                "pitch": 70,
                "velocity": 51,
                "duration": 0.13181818181818272,
                "tempo": 120.0
            },
            {
                "start_time": 34.625,
                "end_time": 34.69318181818181,
                "pitch": 71,
                "velocity": 51,
                "duration": 0.06818181818181301,
                "tempo": 120.0
            },
            {
                "start_time": 35.32954545454545,
                "end_time": 35.461363636363636,
                "pitch": 67,
                "velocity": 51,
                "duration": 0.13181818181818272,
                "tempo": 120.0
            },
            {
                "start_time": 35.527272727272724,
                "end_time": 35.59318181818182,
                "pitch": 69,
                "velocity": 51,
                "duration": 0.06590909090909491,
                "tempo": 120.0
            },
            {
                "start_time": 35.627272727272725,
                "end_time": 35.69318181818181,
                "pitch": 69,
                "velocity": 51,
                "duration": 0.06590909090908781,
                "tempo": 120.0
            },
            {
                "start_time": 35.82727272727273,
                "end_time": 35.89545454545454,
                "pitch": 67,
                "velocity": 51,
                "duration": 0.06818181818181301,
                "tempo": 120.0
            },
            {
                "start_time": 36.03181818181818,
                "end_time": 36.1,
                "pitch": 69,
                "velocity": 51,
                "duration": 0.06818181818182012,
                "tempo": 120.0
            },
            {
                "start_time": 36.23863636363636,
                "end_time": 36.30227272727272,
                "pitch": 67,
                "velocity": 51,
                "duration": 0.0636363636363626,
                "tempo": 120.0
            },
            {
                "start_time": 36.93863636363636,
                "end_time": 37.070454545454545,
                "pitch": 69,
                "velocity": 51,
                "duration": 0.13181818181818272,
                "tempo": 120.0
            },
            {
                "start_time": 37.13636363636363,
                "end_time": 37.199999999999996,
                "pitch": 69,
                "velocity": 51,
                "duration": 0.0636363636363626,
                "tempo": 120.0
            },
            {
                "start_time": 37.23181818181818,
                "end_time": 37.29545454545455,
                "pitch": 69,
                "velocity": 51,
                "duration": 0.06363636363636971,
                "tempo": 120.0
            },
            {
                "start_time": 37.42272727272727,
                "end_time": 37.49090909090909,
                "pitch": 74,
                "velocity": 51,
                "duration": 0.06818181818182012,
                "tempo": 120.0
            },
            {
                "start_time": 37.83409090909091,
                "end_time": 38.13409090909091,
                "pitch": 71,
                "velocity": 51,
                "duration": 0.29999999999999716,
                "tempo": 120.0
            },
            {
                "start_time": 38.215909090909086,
                "end_time": 38.525,
                "pitch": 63,
                "velocity": 51,
                "duration": 0.3090909090909122,
                "tempo": 120.0
            },
            {
                "start_time": 38.62272727272727,
                "end_time": 40.83181818181818,
                "pitch": 64,
                "velocity": 51,
                "duration": 2.2090909090909108,
                "tempo": 120.0
            },
            {
                "start_time": 40.83181818181818,
                "end_time": 40.934090909090905,
                "pitch": 64,
                "velocity": 51,
                "duration": 0.10227272727272663,
                "tempo": 120.0
            },
            {
                "start_time": 41.04090909090909,
                "end_time": 41.34772727272727,
                "pitch": 67,
                "velocity": 51,
                "duration": 0.3068181818181799,
                "tempo": 120.0
            },
            {
                "start_time": 41.34772727272727,
                "end_time": 41.65,
                "pitch": 65,
                "velocity": 51,
                "duration": 0.30227272727272947,
                "tempo": 120.0
            },
            {
                "start_time": 41.65,
                "end_time": 41.75,
                "pitch": 65,
                "velocity": 51,
                "duration": 0.10000000000000142,
                "tempo": 120.0
            },
            {
                "start_time": 41.85,
                "end_time": 43.35454545454545,
                "pitch": 64,
                "velocity": 51,
                "duration": 1.5045454545454504,
                "tempo": 120.0
            },
            {
                "start_time": 43.35454545454545,
                "end_time": 44.65909090909091,
                "pitch": 69,
                "velocity": 51,
                "duration": 1.3045454545454547,
                "tempo": 120.0
            },
            {
                "start_time": 44.65909090909091,
                "end_time": 45.05227272727272,
                "pitch": 63,
                "velocity": 51,
                "duration": 0.39318181818181586,
                "tempo": 120.0
            },
            {
                "start_time": 45.05227272727272,
                "end_time": 47.25454545454545,
                "pitch": 63,
                "velocity": 51,
                "duration": 2.202272727272728,
                "tempo": 120.0
            },
            {
                "start_time": 47.25454545454545,
                "end_time": 47.35454545454545,
                "pitch": 64,
                "velocity": 51,
                "duration": 0.10000000000000142,
                "tempo": 120.0
            },
            {
                "start_time": 47.45454545454545,
                "end_time": 47.76363636363636,
                "pitch": 67,
                "velocity": 51,
                "duration": 0.3090909090909051,
                "tempo": 120.0
            },
            {
                "start_time": 47.76363636363636,
                "end_time": 48.06590909090909,
                "pitch": 65,
                "velocity": 51,
                "duration": 0.30227272727272947,
                "tempo": 120.0
            },
            {
                "start_time": 48.06590909090909,
                "end_time": 48.16590909090909,
                "pitch": 65,
                "velocity": 51,
                "duration": 0.10000000000000142,
                "tempo": 120.0
            },
            {
                "start_time": 48.26590909090909,
                "end_time": 49.87045454545454,
                "pitch": 64,
                "velocity": 51,
                "duration": 1.6045454545454518,
                "tempo": 120.0
            },
            {
                "start_time": 51.465909090909086,
                "end_time": 51.76590909090909,
                "pitch": 57,
                "velocity": 51,
                "duration": 0.30000000000000426,
                "tempo": 120.0
            },
            {
                "start_time": 51.76590909090909,
                "end_time": 51.965909090909086,
                "pitch": 57,
                "velocity": 51,
                "duration": 0.19999999999999574,
                "tempo": 120.0
            },
            {
                "start_time": 51.965909090909086,
                "end_time": 52.06590909090909,
                "pitch": 59,
                "velocity": 51,
                "duration": 0.10000000000000142,
                "tempo": 120.0
            },
            {
                "start_time": 52.06590909090909,
                "end_time": 52.26590909090909,
                "pitch": 60,
                "velocity": 51,
                "duration": 0.20000000000000284,
                "tempo": 120.0
            },
            {
                "start_time": 52.26590909090909,
                "end_time": 52.56590909090909,
                "pitch": 62,
                "velocity": 51,
                "duration": 0.29999999999999716,
                "tempo": 120.0
            },
            {
                "start_time": 52.56590909090909,
                "end_time": 52.78636363636363,
                "pitch": 62,
                "velocity": 51,
                "duration": 0.2204545454545439,
                "tempo": 120.0
            },
            {
                "start_time": 52.78636363636363,
                "end_time": 52.87045454545454,
                "pitch": 64,
                "velocity": 51,
                "duration": 0.08409090909091077,
                "tempo": 120.0
            },
            {
                "start_time": 52.87045454545454,
                "end_time": 53.07727272727273,
                "pitch": 64,
                "velocity": 51,
                "duration": 0.20681818181818556,
                "tempo": 120.0
            },
            {
                "start_time": 53.07727272727273,
                "end_time": 53.37045454545454,
                "pitch": 67,
                "velocity": 51,
                "duration": 0.29318181818181444,
                "tempo": 120.0
            },
            {
                "start_time": 53.37045454545454,
                "end_time": 53.675,
                "pitch": 69,
                "velocity": 51,
                "duration": 0.3045454545454547,
                "tempo": 120.0
            },
            {
                "start_time": 53.675,
                "end_time": 53.88181818181818,
                "pitch": 71,
                "velocity": 51,
                "duration": 0.20681818181818556,
                "tempo": 120.0
            },
            {
                "start_time": 53.88181818181818,
                "end_time": 54.179545454545455,
                "pitch": 72,
                "velocity": 51,
                "duration": 0.29772727272727195,
                "tempo": 120.0
            },
            {
                "start_time": 54.179545454545455,
                "end_time": 54.26363636363636,
                "pitch": 72,
                "velocity": 51,
                "duration": 0.08409090909090366,
                "tempo": 120.0
            },
            {
                "start_time": 54.26363636363636,
                "end_time": 54.27954545454545,
                "pitch": 72,
                "velocity": 51,
                "duration": 0.01590909090909065,
                "tempo": 120.0
            },
            {
                "start_time": 54.27954545454545,
                "end_time": 54.68181818181818,
                "pitch": 74,
                "velocity": 51,
                "duration": 0.4022727272727309,
                "tempo": 120.0
            },
            {
                "start_time": 54.68181818181818,
                "end_time": 57.88636363636363,
                "pitch": 71,
                "velocity": 51,
                "duration": 3.2045454545454533,
                "tempo": 120.0
            },
            {
                "start_time": 57.88636363636363,
                "end_time": 58.18636363636363,
                "pitch": 57,
                "velocity": 51,
                "duration": 0.29999999999999716,
                "tempo": 120.0
            },
            {
                "start_time": 58.18636363636363,
                "end_time": 58.38409090909091,
                "pitch": 57,
                "velocity": 51,
                "duration": 0.19772727272727764,
                "tempo": 120.0
            },
            {
                "start_time": 58.38409090909091,
                "end_time": 58.48181818181818,
                "pitch": 59,
                "velocity": 51,
                "duration": 0.09772727272726911,
                "tempo": 120.0
            },
            {
                "start_time": 58.48181818181818,
                "end_time": 58.679545454545455,
                "pitch": 60,
                "velocity": 51,
                "duration": 0.19772727272727764,
                "tempo": 120.0
            },
            {
                "start_time": 58.679545454545455,
                "end_time": 58.986363636363635,
                "pitch": 62,
                "velocity": 51,
                "duration": 0.3068181818181799,
                "tempo": 120.0
            },
            {
                "start_time": 58.986363636363635,
                "end_time": 59.20681818181818,
                "pitch": 62,
                "velocity": 51,
                "duration": 0.2204545454545439,
                "tempo": 120.0
            },
            {
                "start_time": 59.20681818181818,
                "end_time": 59.288636363636364,
                "pitch": 64,
                "velocity": 51,
                "duration": 0.08181818181818556,
                "tempo": 120.0
            },
            {
                "start_time": 59.288636363636364,
                "end_time": 59.490909090909085,
                "pitch": 64,
                "velocity": 51,
                "duration": 0.20227272727272094,
                "tempo": 120.0
            },
            {
                "start_time": 59.490909090909085,
                "end_time": 59.788636363636364,
                "pitch": 67,
                "velocity": 51,
                "duration": 0.29772727272727906,
                "tempo": 120.0
            },
            {
                "start_time": 59.788636363636364,
                "end_time": 60.08863636363636,
                "pitch": 69,
                "velocity": 51,
                "duration": 0.29999999999999716,
                "tempo": 120.0
            },
            {
                "start_time": 60.08863636363636,
                "end_time": 60.29090909090909,
                "pitch": 71,
                "velocity": 51,
                "duration": 0.20227272727272805,
                "tempo": 120.0
            },
            {
                "start_time": 60.29090909090909,
                "end_time": 60.590909090909086,
                "pitch": 72,
                "velocity": 51,
                "duration": 0.29999999999999716,
                "tempo": 120.0
            },
            {
                "start_time": 60.590909090909086,
                "end_time": 60.675,
                "pitch": 72,
                "velocity": 51,
                "duration": 0.08409090909091077,
                "tempo": 120.0
            },
            {
                "start_time": 60.675,
                "end_time": 60.69318181818181,
                "pitch": 72,
                "velocity": 51,
                "duration": 0.018181818181815856,
                "tempo": 120.0
            },
            {
                "start_time": 60.69318181818181,
                "end_time": 61.09318181818182,
                "pitch": 74,
                "velocity": 51,
                "duration": 0.4000000000000057,
                "tempo": 120.0
            },
            {
                "start_time": 61.09318181818182,
                "end_time": 61.19318181818181,
                "pitch": 71,
                "velocity": 51,
                "duration": 0.09999999999999432,
                "tempo": 120.0
            },
            {
                "start_time": 61.19318181818181,
                "end_time": 61.293181818181814,
                "pitch": 71,
                "velocity": 51,
                "duration": 0.10000000000000142,
                "tempo": 120.0
            },
            {
                "start_time": 61.293181818181814,
                "end_time": 61.393181818181816,
                "pitch": 71,
                "velocity": 51,
                "duration": 0.10000000000000142,
                "tempo": 120.0
            },
            {
                "start_time": 61.69318181818181,
                "end_time": 61.793181818181814,
                "pitch": 71,
                "velocity": 51,
                "duration": 0.10000000000000142,
                "tempo": 120.0
            },
            {
                "start_time": 61.793181818181814,
                "end_time": 61.893181818181816,
                "pitch": 71,
                "velocity": 51,
                "duration": 0.10000000000000142,
                "tempo": 120.0
            },
            {
                "start_time": 61.893181818181816,
                "end_time": 61.99318181818182,
                "pitch": 71,
                "velocity": 51,
                "duration": 0.10000000000000142,
                "tempo": 120.0
            },
            {
                "start_time": 62.695454545454545,
                "end_time": 62.79545454545454,
                "pitch": 71,
                "velocity": 51,
                "duration": 0.09999999999999432,
                "tempo": 120.0
            },
            {
                "start_time": 62.79545454545454,
                "end_time": 62.89545454545454,
                "pitch": 71,
                "velocity": 51,
                "duration": 0.10000000000000142,
                "tempo": 120.0
            },
            {
                "start_time": 62.89545454545454,
                "end_time": 62.99545454545454,
                "pitch": 71,
                "velocity": 51,
                "duration": 0.10000000000000142,
                "tempo": 120.0
            },
            {
                "start_time": 63.29545454545454,
                "end_time": 63.39545454545454,
                "pitch": 71,
                "velocity": 51,
                "duration": 0.10000000000000142,
                "tempo": 120.0
            },
            {
                "start_time": 63.39545454545454,
                "end_time": 63.49545454545454,
                "pitch": 71,
                "velocity": 51,
                "duration": 0.10000000000000142,
                "tempo": 120.0
            },
            {
                "start_time": 63.49545454545454,
                "end_time": 63.595454545454544,
                "pitch": 71,
                "velocity": 51,
                "duration": 0.10000000000000142,
                "tempo": 120.0
            },
            {
                "start_time": 63.89545454545454,
                "end_time": 63.99318181818182,
                "pitch": 71,
                "velocity": 51,
                "duration": 0.09772727272727622,
                "tempo": 120.0
            },
            {
                "start_time": 63.99318181818182,
                "end_time": 64.0909090909091,
                "pitch": 69,
                "velocity": 51,
                "duration": 0.09772727272727622,
                "tempo": 120.0
            },
            {
                "start_time": 64.0909090909091,
                "end_time": 64.18863636363636,
                "pitch": 67,
                "velocity": 51,
                "duration": 0.09772727272726911,
                "tempo": 120.0
            },
            {
                "start_time": 64.18863636363636,
                "end_time": 64.28636363636363,
                "pitch": 65,
                "velocity": 51,
                "duration": 0.09772727272726911,
                "tempo": 120.0
            },
            {
                "start_time": 64.28636363636363,
                "end_time": 64.38863636363637,
                "pitch": 62,
                "velocity": 51,
                "duration": 0.10227272727273373,
                "tempo": 120.0
            },
            {
                "start_time": 64.38863636363637,
                "end_time": 64.49318181818181,
                "pitch": 62,
                "velocity": 51,
                "duration": 0.10454545454544473,
                "tempo": 120.0
            },
            {
                "start_time": 64.49318181818181,
                "end_time": 64.59545454545454,
                "pitch": 63,
                "velocity": 51,
                "duration": 0.10227272727273373,
                "tempo": 120.0
            },
            {
                "start_time": 64.69772727272726,
                "end_time": 64.79772727272727,
                "pitch": 62,
                "velocity": 51,
                "duration": 0.10000000000000853,
                "tempo": 120.0
            },
            {
                "start_time": 64.89772727272727,
                "end_time": 64.99772727272727,
                "pitch": 63,
                "velocity": 51,
                "duration": 0.10000000000000853,
                "tempo": 120.0
            },
            {
                "start_time": 65.1,
                "end_time": 65.2,
                "pitch": 64,
                "velocity": 51,
                "duration": 0.10000000000000853,
                "tempo": 120.0
            },
            {
                "start_time": 65.80227272727272,
                "end_time": 66.00227272727273,
                "pitch": 67,
                "velocity": 51,
                "duration": 0.20000000000000284,
                "tempo": 120.0
            },
            {
                "start_time": 66.00227272727273,
                "end_time": 66.1,
                "pitch": 67,
                "velocity": 51,
                "duration": 0.09772727272726911,
                "tempo": 120.0
            },
            {
                "start_time": 66.1,
                "end_time": 66.19772727272726,
                "pitch": 67,
                "velocity": 51,
                "duration": 0.09772727272726911,
                "tempo": 120.0
            },
            {
                "start_time": 66.29545454545455,
                "end_time": 66.49545454545454,
                "pitch": 69,
                "velocity": 51,
                "duration": 0.19999999999998863,
                "tempo": 120.0
            },
            {
                "start_time": 66.49545454545454,
                "end_time": 66.69772727272726,
                "pitch": 69,
                "velocity": 51,
                "duration": 0.20227272727272805,
                "tempo": 120.0
            },
            {
                "start_time": 66.69772727272726,
                "end_time": 66.8,
                "pitch": 70,
                "velocity": 51,
                "duration": 0.10227272727273373,
                "tempo": 120.0
            },
            {
                "start_time": 67.4090909090909,
                "end_time": 67.60909090909091,
                "pitch": 67,
                "velocity": 51,
                "duration": 0.20000000000000284,
                "tempo": 120.0
            },
            {
                "start_time": 67.60909090909091,
                "end_time": 67.71136363636363,
                "pitch": 69,
                "velocity": 51,
                "duration": 0.10227272727271952,
                "tempo": 120.0
            },
            {
                "start_time": 67.71136363636363,
                "end_time": 67.81136363636364,
                "pitch": 69,
                "velocity": 51,
                "duration": 0.10000000000000853,
                "tempo": 120.0
            },
            {
                "start_time": 67.91136363636363,
                "end_time": 68.01136363636363,
                "pitch": 67,
                "velocity": 51,
                "duration": 0.09999999999999432,
                "tempo": 120.0
            },
            {
                "start_time": 68.11136363636363,
                "end_time": 68.21136363636363,
                "pitch": 69,
                "velocity": 51,
                "duration": 0.09999999999999432,
                "tempo": 120.0
            },
            {
                "start_time": 68.31136363636364,
                "end_time": 68.41363636363636,
                "pitch": 67,
                "velocity": 51,
                "duration": 0.10227272727271952,
                "tempo": 120.0
            },
            {
                "start_time": 69.01590909090909,
                "end_time": 69.21363636363635,
                "pitch": 69,
                "velocity": 51,
                "duration": 0.19772727272726343,
                "tempo": 120.0
            },
            {
                "start_time": 69.21363636363635,
                "end_time": 69.31136363636364,
                "pitch": 69,
                "velocity": 51,
                "duration": 0.09772727272728332,
                "tempo": 120.0
            },
            {
                "start_time": 69.31136363636364,
                "end_time": 69.4090909090909,
                "pitch": 69,
                "velocity": 51,
                "duration": 0.09772727272726911,
                "tempo": 120.0
            },
            {
                "start_time": 69.50681818181818,
                "end_time": 69.71136363636363,
                "pitch": 67,
                "velocity": 51,
                "duration": 0.20454545454545325,
                "tempo": 120.0
            },
            {
                "start_time": 69.71136363636363,
                "end_time": 69.81590909090909,
                "pitch": 69,
                "velocity": 51,
                "duration": 0.10454545454545894,
                "tempo": 120.0
            },
            {
                "start_time": 69.91818181818182,
                "end_time": 70.01818181818182,
                "pitch": 71,
                "velocity": 51,
                "duration": 0.09999999999999432,
                "tempo": 120.0
            },
            {
                "start_time": 70.31818181818181,
                "end_time": 70.72045454545454,
                "pitch": 69,
                "velocity": 51,
                "duration": 0.4022727272727309,
                "tempo": 120.0
            },
            {
                "start_time": 70.72045454545454,
                "end_time": 70.82045454545454,
                "pitch": 62,
                "velocity": 51,
                "duration": 0.09999999999999432,
                "tempo": 120.0
            },
            {
                "start_time": 70.82045454545454,
                "end_time": 70.92045454545455,
                "pitch": 62,
                "velocity": 51,
                "duration": 0.10000000000000853,
                "tempo": 120.0
            },
            {
                "start_time": 70.92045454545455,
                "end_time": 71.02045454545454,
                "pitch": 63,
                "velocity": 51,
                "duration": 0.09999999999999432,
                "tempo": 120.0
            },
            {
                "start_time": 71.12045454545454,
                "end_time": 71.22045454545454,
                "pitch": 62,
                "velocity": 51,
                "duration": 0.10000000000000853,
                "tempo": 120.0
            },
            {
                "start_time": 71.32272727272726,
                "end_time": 71.42272727272727,
                "pitch": 63,
                "velocity": 51,
                "duration": 0.10000000000000853,
                "tempo": 120.0
            },
            {
                "start_time": 71.52499999999999,
                "end_time": 71.625,
                "pitch": 64,
                "velocity": 51,
                "duration": 0.10000000000000853,
                "tempo": 120.0
            },
            {
                "start_time": 72.22727272727272,
                "end_time": 72.425,
                "pitch": 67,
                "velocity": 51,
                "duration": 0.19772727272727764,
                "tempo": 120.0
            },
            {
                "start_time": 72.425,
                "end_time": 72.52272727272727,
                "pitch": 67,
                "velocity": 51,
                "duration": 0.09772727272726911,
                "tempo": 120.0
            },
            {
                "start_time": 72.52272727272727,
                "end_time": 72.62045454545454,
                "pitch": 67,
                "velocity": 51,
                "duration": 0.09772727272726911,
                "tempo": 120.0
            },
            {
                "start_time": 72.71818181818182,
                "end_time": 72.92272727272727,
                "pitch": 69,
                "velocity": 51,
                "duration": 0.20454545454545325,
                "tempo": 120.0
            },
            {
                "start_time": 72.92272727272727,
                "end_time": 73.12954545454545,
                "pitch": 69,
                "velocity": 51,
                "duration": 0.20681818181817846,
                "tempo": 120.0
            },
            {
                "start_time": 73.12954545454545,
                "end_time": 73.23181818181818,
                "pitch": 70,
                "velocity": 51,
                "duration": 0.10227272727273373,
                "tempo": 120.0
            },
            {
                "start_time": 73.8340909090909,
                "end_time": 74.0340909090909,
                "pitch": 67,
                "velocity": 51,
                "duration": 0.20000000000000284,
                "tempo": 120.0
            },
            {
                "start_time": 74.0340909090909,
                "end_time": 74.1340909090909,
                "pitch": 69,
                "velocity": 51,
                "duration": 0.09999999999999432,
                "tempo": 120.0
            },
            {
                "start_time": 74.1340909090909,
                "end_time": 74.23409090909091,
                "pitch": 69,
                "velocity": 51,
                "duration": 0.10000000000000853,
                "tempo": 120.0
            },
            {
                "start_time": 74.3340909090909,
                "end_time": 74.43636363636364,
                "pitch": 67,
                "velocity": 51,
                "duration": 0.10227272727273373,
                "tempo": 120.0
            },
            {
                "start_time": 74.53636363636363,
                "end_time": 74.63636363636363,
                "pitch": 69,
                "velocity": 51,
                "duration": 0.09999999999999432,
                "tempo": 120.0
            },
            {
                "start_time": 74.73636363636363,
                "end_time": 74.83636363636363,
                "pitch": 67,
                "velocity": 51,
                "duration": 0.09999999999999432,
                "tempo": 120.0
            },
            {
                "start_time": 75.43863636363636,
                "end_time": 75.63863636363637,
                "pitch": 69,
                "velocity": 51,
                "duration": 0.20000000000000284,
                "tempo": 120.0
            },
            {
                "start_time": 75.63863636363637,
                "end_time": 75.73636363636363,
                "pitch": 69,
                "velocity": 51,
                "duration": 0.09772727272726911,
                "tempo": 120.0
            },
            {
                "start_time": 75.73636363636363,
                "end_time": 75.8340909090909,
                "pitch": 69,
                "velocity": 51,
                "duration": 0.09772727272726911,
                "tempo": 120.0
            },
            {
                "start_time": 75.93181818181817,
                "end_time": 76.03181818181818,
                "pitch": 74,
                "velocity": 51,
                "duration": 0.10000000000000853,
                "tempo": 120.0
            },
            {
                "start_time": 76.3340909090909,
                "end_time": 76.74545454545454,
                "pitch": 71,
                "velocity": 51,
                "duration": 0.4113636363636317,
                "tempo": 120.0
            }
        ],
        "Trumpet": [
            {
                "start_time": 90.0909090909091,
                "end_time": 90.19318181818181,
                "pitch": 67,
                "velocity": 51,
                "duration": 0.10227272727271952,
                "tempo": 120.0
            },
            {
                "start_time": 90.19318181818181,
                "end_time": 90.29545454545455,
                "pitch": 74,
                "velocity": 51,
                "duration": 0.10227272727273373,
                "tempo": 120.0
            },
            {
                "start_time": 90.29545454545455,
                "end_time": 90.39772727272727,
                "pitch": 72,
                "velocity": 51,
                "duration": 0.10227272727271952,
                "tempo": 120.0
            },
            {
                "start_time": 90.39772727272727,
                "end_time": 90.5,
                "pitch": 71,
                "velocity": 51,
                "duration": 0.10227272727273373,
                "tempo": 120.0
            },
            {
                "start_time": 90.5,
                "end_time": 90.6,
                "pitch": 69,
                "velocity": 51,
                "duration": 0.09999999999999432,
                "tempo": 120.0
            },
            {
                "start_time": 90.6,
                "end_time": 90.69999999999999,
                "pitch": 67,
                "velocity": 51,
                "duration": 0.09999999999999432,
                "tempo": 120.0
            },
            {
                "start_time": 90.69999999999999,
                "end_time": 90.80454545454545,
                "pitch": 69,
                "velocity": 51,
                "duration": 0.10454545454545894,
                "tempo": 120.0
            },
            {
                "start_time": 90.80454545454545,
                "end_time": 90.90454545454546,
                "pitch": 59,
                "velocity": 51,
                "duration": 0.10000000000000853,
                "tempo": 120.0
            },
            {
                "start_time": 90.90454545454546,
                "end_time": 91.00227272727273,
                "pitch": 62,
                "velocity": 51,
                "duration": 0.09772727272726911,
                "tempo": 120.0
            },
            {
                "start_time": 91.00227272727273,
                "end_time": 91.10227272727272,
                "pitch": 62,
                "velocity": 51,
                "duration": 0.09999999999999432,
                "tempo": 120.0
            },
            {
                "start_time": 91.10227272727272,
                "end_time": 91.20227272727273,
                "pitch": 63,
                "velocity": 51,
                "duration": 0.10000000000000853,
                "tempo": 120.0
            },
            {
                "start_time": 91.20227272727273,
                "end_time": 91.30454545454545,
                "pitch": 64,
                "velocity": 51,
                "duration": 0.10227272727271952,
                "tempo": 120.0
            },
            {
                "start_time": 91.30454545454545,
                "end_time": 91.4090909090909,
                "pitch": 67,
                "velocity": 51,
                "duration": 0.10454545454545894,
                "tempo": 120.0
            },
            {
                "start_time": 91.4090909090909,
                "end_time": 91.51136363636363,
                "pitch": 71,
                "velocity": 51,
                "duration": 0.10227272727271952,
                "tempo": 120.0
            },
            {
                "start_time": 91.51136363636363,
                "end_time": 91.61363636363636,
                "pitch": 74,
                "velocity": 51,
                "duration": 0.10227272727273373,
                "tempo": 120.0
            },
            {
                "start_time": 91.61363636363636,
                "end_time": 91.7090909090909,
                "pitch": 71,
                "velocity": 51,
                "duration": 0.0954545454545439,
                "tempo": 120.0
            },
            {
                "start_time": 91.7090909090909,
                "end_time": 91.80454545454545,
                "pitch": 64,
                "velocity": 51,
                "duration": 0.0954545454545439,
                "tempo": 120.0
            },
            {
                "start_time": 91.80454545454545,
                "end_time": 91.89999999999999,
                "pitch": 67,
                "velocity": 51,
                "duration": 0.0954545454545439,
                "tempo": 120.0
            },
            {
                "start_time": 91.89999999999999,
                "end_time": 91.99545454545454,
                "pitch": 67,
                "velocity": 51,
                "duration": 0.0954545454545439,
                "tempo": 120.0
            },
            {
                "start_time": 91.99545454545454,
                "end_time": 92.09545454545454,
                "pitch": 69,
                "velocity": 51,
                "duration": 0.10000000000000853,
                "tempo": 120.0
            },
            {
                "start_time": 92.09545454545454,
                "end_time": 92.19772727272726,
                "pitch": 62,
                "velocity": 51,
                "duration": 0.10227272727271952,
                "tempo": 120.0
            },
            {
                "start_time": 92.19772727272726,
                "end_time": 92.29772727272727,
                "pitch": 62,
                "velocity": 51,
                "duration": 0.10000000000000853,
                "tempo": 120.0
            },
            {
                "start_time": 92.29772727272727,
                "end_time": 92.39999999999999,
                "pitch": 64,
                "velocity": 51,
                "duration": 0.10227272727271952,
                "tempo": 120.0
            },
            {
                "start_time": 92.39999999999999,
                "end_time": 92.50227272727273,
                "pitch": 64,
                "velocity": 51,
                "duration": 0.10227272727273373,
                "tempo": 120.0
            },
            {
                "start_time": 92.50227272727273,
                "end_time": 92.60454545454544,
                "pitch": 62,
                "velocity": 51,
                "duration": 0.10227272727271952,
                "tempo": 120.0
            },
            {
                "start_time": 92.60454545454544,
                "end_time": 92.70681818181818,
                "pitch": 59,
                "velocity": 51,
                "duration": 0.10227272727273373,
                "tempo": 120.0
            },
            {
                "start_time": 92.70681818181818,
                "end_time": 92.8090909090909,
                "pitch": 55,
                "velocity": 51,
                "duration": 0.10227272727271952,
                "tempo": 120.0
            },
            {
                "start_time": 92.8090909090909,
                "end_time": 92.9090909090909,
                "pitch": 57,
                "velocity": 51,
                "duration": 0.10000000000000853,
                "tempo": 120.0
            },
            {
                "start_time": 92.9090909090909,
                "end_time": 93.0090909090909,
                "pitch": 57,
                "velocity": 51,
                "duration": 0.09999999999999432,
                "tempo": 120.0
            },
            {
                "start_time": 93.0090909090909,
                "end_time": 93.2090909090909,
                "pitch": 63,
                "velocity": 51,
                "duration": 0.20000000000000284,
                "tempo": 120.0
            },
            {
                "start_time": 93.2090909090909,
                "end_time": 94.61590909090908,
                "pitch": 63,
                "velocity": 51,
                "duration": 1.4068181818181813,
                "tempo": 120.0
            },
            {
                "start_time": 94.61590909090908,
                "end_time": 94.71590909090908,
                "pitch": 67,
                "velocity": 51,
                "duration": 0.09999999999999432,
                "tempo": 120.0
            },
            {
                "start_time": 94.71590909090908,
                "end_time": 94.81818181818181,
                "pitch": 69,
                "velocity": 51,
                "duration": 0.10227272727273373,
                "tempo": 120.0
            },
            {
                "start_time": 94.81818181818181,
                "end_time": 96.42272727272727,
                "pitch": 71,
                "velocity": 51,
                "duration": 1.604545454545459,
                "tempo": 120.0
            },
            {
                "start_time": 96.42272727272727,
                "end_time": 96.52272727272727,
                "pitch": 63,
                "velocity": 51,
                "duration": 0.09999999999999432,
                "tempo": 120.0
            },
            {
                "start_time": 96.52272727272727,
                "end_time": 96.625,
                "pitch": 63,
                "velocity": 51,
                "duration": 0.10227272727273373,
                "tempo": 120.0
            },
            {
                "start_time": 96.625,
                "end_time": 96.725,
                "pitch": 64,
                "velocity": 51,
                "duration": 0.09999999999999432,
                "tempo": 120.0
            },
            {
                "start_time": 96.725,
                "end_time": 96.82499999999999,
                "pitch": 67,
                "velocity": 51,
                "duration": 0.09999999999999432,
                "tempo": 120.0
            },
            {
                "start_time": 96.82499999999999,
                "end_time": 96.925,
                "pitch": 69,
                "velocity": 51,
                "duration": 0.10000000000000853,
                "tempo": 120.0
            },
            {
                "start_time": 96.925,
                "end_time": 97.02499999999999,
                "pitch": 71,
                "velocity": 51,
                "duration": 0.09999999999999432,
                "tempo": 120.0
            },
            {
                "start_time": 97.02499999999999,
                "end_time": 97.125,
                "pitch": 72,
                "velocity": 51,
                "duration": 0.10000000000000853,
                "tempo": 120.0
            },
            {
                "start_time": 97.125,
                "end_time": 97.22727272727272,
                "pitch": 74,
                "velocity": 51,
                "duration": 0.10227272727271952,
                "tempo": 120.0
            },
            {
                "start_time": 97.22727272727272,
                "end_time": 97.32727272727273,
                "pitch": 74,
                "velocity": 51,
                "duration": 0.10000000000000853,
                "tempo": 120.0
            },
            {
                "start_time": 97.32727272727273,
                "end_time": 97.42727272727272,
                "pitch": 71,
                "velocity": 51,
                "duration": 0.09999999999999432,
                "tempo": 120.0
            },
            {
                "start_time": 97.42727272727272,
                "end_time": 97.52727272727272,
                "pitch": 69,
                "velocity": 51,
                "duration": 0.09999999999999432,
                "tempo": 120.0
            },
            {
                "start_time": 97.52727272727272,
                "end_time": 97.62954545454545,
                "pitch": 71,
                "velocity": 51,
                "duration": 0.10227272727273373,
                "tempo": 120.0
            },
            {
                "start_time": 97.62954545454545,
                "end_time": 97.73181818181818,
                "pitch": 67,
                "velocity": 51,
                "duration": 0.10227272727273373,
                "tempo": 120.0
            },
            {
                "start_time": 97.73181818181818,
                "end_time": 97.8340909090909,
                "pitch": 69,
                "velocity": 51,
                "duration": 0.10227272727271952,
                "tempo": 120.0
            },
            {
                "start_time": 97.8340909090909,
                "end_time": 97.93636363636364,
                "pitch": 65,
                "velocity": 51,
                "duration": 0.10227272727273373,
                "tempo": 120.0
            },
            {
                "start_time": 97.93636363636364,
                "end_time": 98.03863636363636,
                "pitch": 69,
                "velocity": 51,
                "duration": 0.10227272727271952,
                "tempo": 120.0
            },
            {
                "start_time": 98.03863636363636,
                "end_time": 98.62727272727273,
                "pitch": 74,
                "velocity": 51,
                "duration": 0.5886363636363683,
                "tempo": 120.0
            },
            {
                "start_time": 98.62727272727273,
                "end_time": 98.72954545454544,
                "pitch": 72,
                "velocity": 51,
                "duration": 0.10227272727271952,
                "tempo": 120.0
            },
            {
                "start_time": 98.72954545454544,
                "end_time": 98.83181818181818,
                "pitch": 71,
                "velocity": 51,
                "duration": 0.10227272727273373,
                "tempo": 120.0
            },
            {
                "start_time": 98.83181818181818,
                "end_time": 98.93181818181817,
                "pitch": 74,
                "velocity": 51,
                "duration": 0.09999999999999432,
                "tempo": 120.0
            },
            {
                "start_time": 98.93181818181817,
                "end_time": 99.03181818181818,
                "pitch": 72,
                "velocity": 51,
                "duration": 0.10000000000000853,
                "tempo": 120.0
            },
            {
                "start_time": 99.03181818181818,
                "end_time": 99.13181818181818,
                "pitch": 71,
                "velocity": 51,
                "duration": 0.09999999999999432,
                "tempo": 120.0
            },
            {
                "start_time": 99.13181818181818,
                "end_time": 99.23181818181817,
                "pitch": 67,
                "velocity": 51,
                "duration": 0.09999999999999432,
                "tempo": 120.0
            },
            {
                "start_time": 99.23181818181817,
                "end_time": 99.4340909090909,
                "pitch": 69,
                "velocity": 51,
                "duration": 0.20227272727272805,
                "tempo": 120.0
            },
            {
                "start_time": 99.4340909090909,
                "end_time": 99.5340909090909,
                "pitch": 67,
                "velocity": 51,
                "duration": 0.10000000000000853,
                "tempo": 120.0
            },
            {
                "start_time": 99.5340909090909,
                "end_time": 99.6340909090909,
                "pitch": 65,
                "velocity": 51,
                "duration": 0.09999999999999432,
                "tempo": 120.0
            },
            {
                "start_time": 99.6340909090909,
                "end_time": 99.83636363636363,
                "pitch": 71,
                "velocity": 51,
                "duration": 0.20227272727272805,
                "tempo": 120.0
            },
            {
                "start_time": 99.83636363636363,
                "end_time": 100.03636363636363,
                "pitch": 71,
                "velocity": 51,
                "duration": 0.20000000000000284,
                "tempo": 120.0
            },
            {
                "start_time": 100.03636363636363,
                "end_time": 100.23636363636363,
                "pitch": 71,
                "velocity": 51,
                "duration": 0.20000000000000284,
                "tempo": 120.0
            },
            {
                "start_time": 100.23636363636363,
                "end_time": 100.43636363636364,
                "pitch": 71,
                "velocity": 51,
                "duration": 0.20000000000000284,
                "tempo": 120.0
            },
            {
                "start_time": 100.43636363636364,
                "end_time": 100.63863636363637,
                "pitch": 71,
                "velocity": 51,
                "duration": 0.20227272727272805,
                "tempo": 120.0
            },
            {
                "start_time": 100.63863636363637,
                "end_time": 100.84090909090908,
                "pitch": 71,
                "velocity": 51,
                "duration": 0.20227272727271384,
                "tempo": 120.0
            },
            {
                "start_time": 100.84090909090908,
                "end_time": 101.04090909090908,
                "pitch": 71,
                "velocity": 51,
                "duration": 0.20000000000000284,
                "tempo": 120.0
            },
            {
                "start_time": 101.04090909090908,
                "end_time": 101.24090909090908,
                "pitch": 71,
                "velocity": 51,
                "duration": 0.20000000000000284,
                "tempo": 120.0
            },
            {
                "start_time": 101.24090909090908,
                "end_time": 101.43636363636364,
                "pitch": 68,
                "velocity": 51,
                "duration": 0.19545454545455243,
                "tempo": 120.0
            },
            {
                "start_time": 101.43636363636364,
                "end_time": 101.63181818181818,
                "pitch": 68,
                "velocity": 51,
                "duration": 0.19545454545453822,
                "tempo": 120.0
            },
            {
                "start_time": 101.63181818181818,
                "end_time": 101.83863636363635,
                "pitch": 68,
                "velocity": 51,
                "duration": 0.20681818181817846,
                "tempo": 120.0
            },
            {
                "start_time": 101.83863636363635,
                "end_time": 102.04318181818181,
                "pitch": 68,
                "velocity": 51,
                "duration": 0.20454545454545325,
                "tempo": 120.0
            },
            {
                "start_time": 102.04318181818181,
                "end_time": 102.24318181818181,
                "pitch": 68,
                "velocity": 51,
                "duration": 0.20000000000000284,
                "tempo": 120.0
            },
            {
                "start_time": 102.24318181818181,
                "end_time": 102.34318181818182,
                "pitch": 68,
                "velocity": 51,
                "duration": 0.10000000000000853,
                "tempo": 120.0
            },
            {
                "start_time": 102.34318181818182,
                "end_time": 102.44318181818181,
                "pitch": 68,
                "velocity": 51,
                "duration": 0.09999999999999432,
                "tempo": 120.0
            },
            {
                "start_time": 102.44318181818181,
                "end_time": 102.54545454545455,
                "pitch": 67,
                "velocity": 51,
                "duration": 0.10227272727273373,
                "tempo": 120.0
            },
            {
                "start_time": 102.54545454545455,
                "end_time": 102.64545454545454,
                "pitch": 68,
                "velocity": 51,
                "duration": 0.09999999999999432,
                "tempo": 120.0
            },
            {
                "start_time": 102.64545454545454,
                "end_time": 102.74545454545454,
                "pitch": 65,
                "velocity": 51,
                "duration": 0.09999999999999432,
                "tempo": 120.0
            },
            {
                "start_time": 102.74545454545454,
                "end_time": 102.84772727272727,
                "pitch": 62,
                "velocity": 51,
                "duration": 0.10227272727273373,
                "tempo": 120.0
            },
            {
                "start_time": 102.84772727272727,
                "end_time": 102.94772727272726,
                "pitch": 62,
                "velocity": 51,
                "duration": 0.09999999999999432,
                "tempo": 120.0
            },
            {
                "start_time": 102.94772727272726,
                "end_time": 103.04772727272727,
                "pitch": 67,
                "velocity": 51,
                "duration": 0.10000000000000853,
                "tempo": 120.0
            },
            {
                "start_time": 103.04772727272727,
                "end_time": 103.14772727272727,
                "pitch": 74,
                "velocity": 51,
                "duration": 0.09999999999999432,
                "tempo": 120.0
            },
            {
                "start_time": 103.14772727272727,
                "end_time": 103.24772727272727,
                "pitch": 72,
                "velocity": 51,
                "duration": 0.10000000000000853,
                "tempo": 120.0
            },
            {
                "start_time": 103.24772727272727,
                "end_time": 103.34772727272727,
                "pitch": 71,
                "velocity": 51,
                "duration": 0.09999999999999432,
                "tempo": 120.0
            },
            {
                "start_time": 103.34772727272727,
                "end_time": 103.44772727272726,
                "pitch": 69,
                "velocity": 51,
                "duration": 0.09999999999999432,
                "tempo": 120.0
            },
            {
                "start_time": 103.44772727272726,
                "end_time": 103.54772727272727,
                "pitch": 67,
                "velocity": 51,
                "duration": 0.10000000000000853,
                "tempo": 120.0
            },
            {
                "start_time": 103.54772727272727,
                "end_time": 103.64999999999999,
                "pitch": 69,
                "velocity": 51,
                "duration": 0.10227272727271952,
                "tempo": 120.0
            },
            {
                "start_time": 103.64999999999999,
                "end_time": 103.74772727272726,
                "pitch": 59,
                "velocity": 51,
                "duration": 0.09772727272726911,
                "tempo": 120.0
            },
            {
                "start_time": 103.74772727272726,
                "end_time": 103.84545454545454,
                "pitch": 62,
                "velocity": 51,
                "duration": 0.09772727272728332,
                "tempo": 120.0
            },
            {
                "start_time": 103.84545454545454,
                "end_time": 103.94318181818181,
                "pitch": 62,
                "velocity": 51,
                "duration": 0.09772727272726911,
                "tempo": 120.0
            },
            {
                "start_time": 103.94318181818181,
                "end_time": 104.04090909090908,
                "pitch": 63,
                "velocity": 51,
                "duration": 0.09772727272726911,
                "tempo": 120.0
            },
            {
                "start_time": 104.04090909090908,
                "end_time": 104.14545454545454,
                "pitch": 64,
                "velocity": 51,
                "duration": 0.10454545454545894,
                "tempo": 120.0
            },
            {
                "start_time": 104.14545454545454,
                "end_time": 104.25227272727273,
                "pitch": 67,
                "velocity": 51,
                "duration": 0.10681818181818414,
                "tempo": 120.0
            },
            {
                "start_time": 104.25227272727273,
                "end_time": 104.35681818181817,
                "pitch": 71,
                "velocity": 51,
                "duration": 0.10454545454544473,
                "tempo": 120.0
            },
            {
                "start_time": 104.35681818181817,
                "end_time": 104.46136363636363,
                "pitch": 74,
                "velocity": 51,
                "duration": 0.10454545454545894,
                "tempo": 120.0
            },
            {
                "start_time": 104.46136363636363,
                "end_time": 104.55681818181817,
                "pitch": 71,
                "velocity": 51,
                "duration": 0.0954545454545439,
                "tempo": 120.0
            },
            {
                "start_time": 104.55681818181817,
                "end_time": 104.65227272727272,
                "pitch": 64,
                "velocity": 51,
                "duration": 0.0954545454545439,
                "tempo": 120.0
            },
            {
                "start_time": 104.65227272727272,
                "end_time": 104.74772727272726,
                "pitch": 67,
                "velocity": 51,
                "duration": 0.0954545454545439,
                "tempo": 120.0
            },
            {
                "start_time": 104.74772727272726,
                "end_time": 104.84318181818182,
                "pitch": 67,
                "velocity": 51,
                "duration": 0.09545454545455812,
                "tempo": 120.0
            },
            {
                "start_time": 104.84318181818182,
                "end_time": 104.94545454545454,
                "pitch": 69,
                "velocity": 51,
                "duration": 0.10227272727271952,
                "tempo": 120.0
            },
            {
                "start_time": 104.94545454545454,
                "end_time": 105.05,
                "pitch": 62,
                "velocity": 51,
                "duration": 0.10454545454545894,
                "tempo": 120.0
            },
            {
                "start_time": 105.05,
                "end_time": 105.15227272727272,
                "pitch": 62,
                "velocity": 51,
                "duration": 0.10227272727271952,
                "tempo": 120.0
            },
            {
                "start_time": 105.15227272727272,
                "end_time": 105.25454545454545,
                "pitch": 64,
                "velocity": 51,
                "duration": 0.10227272727273373,
                "tempo": 120.0
            },
            {
                "start_time": 105.25454545454545,
                "end_time": 105.35681818181817,
                "pitch": 64,
                "velocity": 51,
                "duration": 0.10227272727271952,
                "tempo": 120.0
            },
            {
                "start_time": 105.35681818181817,
                "end_time": 105.45681818181818,
                "pitch": 62,
                "velocity": 51,
                "duration": 0.10000000000000853,
                "tempo": 120.0
            },
            {
                "start_time": 105.45681818181818,
                "end_time": 105.55681818181817,
                "pitch": 59,
                "velocity": 51,
                "duration": 0.09999999999999432,
                "tempo": 120.0
            },
            {
                "start_time": 105.55681818181817,
                "end_time": 105.65681818181818,
                "pitch": 55,
                "velocity": 51,
                "duration": 0.10000000000000853,
                "tempo": 120.0
            },
            {
                "start_time": 105.65681818181818,
                "end_time": 105.7590909090909,
                "pitch": 57,
                "velocity": 51,
                "duration": 0.10227272727271952,
                "tempo": 120.0
            },
            {
                "start_time": 105.7590909090909,
                "end_time": 105.85909090909091,
                "pitch": 57,
                "velocity": 51,
                "duration": 0.10000000000000853,
                "tempo": 120.0
            },
            {
                "start_time": 105.85909090909091,
                "end_time": 106.0590909090909,
                "pitch": 63,
                "velocity": 51,
                "duration": 0.19999999999998863,
                "tempo": 120.0
            },
            {
                "start_time": 106.0590909090909,
                "end_time": 107.46363636363635,
                "pitch": 63,
                "velocity": 51,
                "duration": 1.404545454545456,
                "tempo": 120.0
            },
            {
                "start_time": 107.46363636363635,
                "end_time": 107.56363636363636,
                "pitch": 67,
                "velocity": 51,
                "duration": 0.10000000000000853,
                "tempo": 120.0
            },
            {
                "start_time": 107.56363636363636,
                "end_time": 107.66590909090908,
                "pitch": 69,
                "velocity": 51,
                "duration": 0.10227272727271952,
                "tempo": 120.0
            },
            {
                "start_time": 107.66590909090908,
                "end_time": 109.27045454545454,
                "pitch": 71,
                "velocity": 51,
                "duration": 1.604545454545459,
                "tempo": 120.0
            },
            {
                "start_time": 109.27045454545454,
                "end_time": 109.37272727272726,
                "pitch": 63,
                "velocity": 51,
                "duration": 0.10227272727271952,
                "tempo": 120.0
            },
            {
                "start_time": 109.37272727272726,
                "end_time": 109.47272727272727,
                "pitch": 63,
                "velocity": 51,
                "duration": 0.10000000000000853,
                "tempo": 120.0
            },
            {
                "start_time": 109.47272727272727,
                "end_time": 109.57272727272726,
                "pitch": 64,
                "velocity": 51,
                "duration": 0.09999999999999432,
                "tempo": 120.0
            },
            {
                "start_time": 109.57272727272726,
                "end_time": 109.67272727272727,
                "pitch": 67,
                "velocity": 51,
                "duration": 0.10000000000000853,
                "tempo": 120.0
            },
            {
                "start_time": 109.67272727272727,
                "end_time": 109.77045454545454,
                "pitch": 69,
                "velocity": 51,
                "duration": 0.09772727272726911,
                "tempo": 120.0
            },
            {
                "start_time": 109.77045454545454,
                "end_time": 109.87045454545454,
                "pitch": 71,
                "velocity": 51,
                "duration": 0.09999999999999432,
                "tempo": 120.0
            },
            {
                "start_time": 109.87045454545454,
                "end_time": 109.96818181818182,
                "pitch": 72,
                "velocity": 51,
                "duration": 0.09772727272728332,
                "tempo": 120.0
            },
            {
                "start_time": 109.96818181818182,
                "end_time": 110.06590909090909,
                "pitch": 74,
                "velocity": 51,
                "duration": 0.09772727272726911,
                "tempo": 120.0
            },
            {
                "start_time": 110.06590909090909,
                "end_time": 110.17045454545455,
                "pitch": 74,
                "velocity": 51,
                "duration": 0.10454545454545894,
                "tempo": 120.0
            },
            {
                "start_time": 110.17045454545455,
                "end_time": 110.27045454545454,
                "pitch": 71,
                "velocity": 51,
                "duration": 0.09999999999999432,
                "tempo": 120.0
            },
            {
                "start_time": 110.27045454545454,
                "end_time": 110.375,
                "pitch": 69,
                "velocity": 51,
                "duration": 0.10454545454545894,
                "tempo": 120.0
            },
            {
                "start_time": 110.375,
                "end_time": 110.47727272727272,
                "pitch": 71,
                "velocity": 51,
                "duration": 0.10227272727271952,
                "tempo": 120.0
            },
            {
                "start_time": 110.47727272727272,
                "end_time": 110.57954545454545,
                "pitch": 67,
                "velocity": 51,
                "duration": 0.10227272727273373,
                "tempo": 120.0
            },
            {
                "start_time": 110.57954545454545,
                "end_time": 110.68181818181817,
                "pitch": 69,
                "velocity": 51,
                "duration": 0.10227272727271952,
                "tempo": 120.0
            },
            {
                "start_time": 110.68181818181817,
                "end_time": 110.7840909090909,
                "pitch": 65,
                "velocity": 51,
                "duration": 0.10227272727273373,
                "tempo": 120.0
            },
            {
                "start_time": 110.7840909090909,
                "end_time": 110.88636363636363,
                "pitch": 69,
                "velocity": 51,
                "duration": 0.10227272727271952,
                "tempo": 120.0
            },
            {
                "start_time": 110.88636363636363,
                "end_time": 111.475,
                "pitch": 74,
                "velocity": 51,
                "duration": 0.5886363636363683,
                "tempo": 120.0
            },
            {
                "start_time": 111.475,
                "end_time": 111.57727272727273,
                "pitch": 72,
                "velocity": 51,
                "duration": 0.10227272727273373,
                "tempo": 120.0
            },
            {
                "start_time": 111.57727272727273,
                "end_time": 111.68181818181817,
                "pitch": 71,
                "velocity": 51,
                "duration": 0.10454545454544473,
                "tempo": 120.0
            },
            {
                "start_time": 111.68181818181817,
                "end_time": 111.78181818181818,
                "pitch": 74,
                "velocity": 51,
                "duration": 0.10000000000000853,
                "tempo": 120.0
            },
            {
                "start_time": 111.78181818181818,
                "end_time": 111.88181818181818,
                "pitch": 72,
                "velocity": 51,
                "duration": 0.09999999999999432,
                "tempo": 120.0
            },
            {
                "start_time": 111.88181818181818,
                "end_time": 111.98181818181817,
                "pitch": 71,
                "velocity": 51,
                "duration": 0.09999999999999432,
                "tempo": 120.0
            },
            {
                "start_time": 111.98181818181817,
                "end_time": 112.0840909090909,
                "pitch": 67,
                "velocity": 51,
                "duration": 0.10227272727273373,
                "tempo": 120.0
            },
            {
                "start_time": 112.0840909090909,
                "end_time": 112.2840909090909,
                "pitch": 69,
                "velocity": 51,
                "duration": 0.20000000000000284,
                "tempo": 120.0
            },
            {
                "start_time": 112.2840909090909,
                "end_time": 112.3840909090909,
                "pitch": 67,
                "velocity": 51,
                "duration": 0.09999999999999432,
                "tempo": 120.0
            },
            {
                "start_time": 112.3840909090909,
                "end_time": 112.48409090909091,
                "pitch": 65,
                "velocity": 51,
                "duration": 0.10000000000000853,
                "tempo": 120.0
            },
            {
                "start_time": 112.48409090909091,
                "end_time": 112.6840909090909,
                "pitch": 71,
                "velocity": 51,
                "duration": 0.19999999999998863,
                "tempo": 120.0
            },
            {
                "start_time": 112.6840909090909,
                "end_time": 112.88636363636363,
                "pitch": 71,
                "velocity": 51,
                "duration": 0.20227272727272805,
                "tempo": 120.0
            },
            {
                "start_time": 112.88636363636363,
                "end_time": 113.08636363636363,
                "pitch": 71,
                "velocity": 51,
                "duration": 0.20000000000000284,
                "tempo": 120.0
            },
            {
                "start_time": 113.08636363636363,
                "end_time": 113.28636363636363,
                "pitch": 71,
                "velocity": 51,
                "duration": 0.20000000000000284,
                "tempo": 120.0
            },
            {
                "start_time": 113.28636363636363,
                "end_time": 113.48636363636363,
                "pitch": 71,
                "velocity": 51,
                "duration": 0.20000000000000284,
                "tempo": 120.0
            },
            {
                "start_time": 113.48636363636363,
                "end_time": 113.68863636363636,
                "pitch": 71,
                "velocity": 51,
                "duration": 0.20227272727272805,
                "tempo": 120.0
            },
            {
                "start_time": 113.68863636363636,
                "end_time": 113.89090909090909,
                "pitch": 71,
                "velocity": 51,
                "duration": 0.20227272727272805,
                "tempo": 120.0
            },
            {
                "start_time": 113.89090909090909,
                "end_time": 114.09090909090908,
                "pitch": 71,
                "velocity": 51,
                "duration": 0.19999999999998863,
                "tempo": 120.0
            },
            {
                "start_time": 114.09090909090908,
                "end_time": 114.28636363636363,
                "pitch": 68,
                "velocity": 51,
                "duration": 0.19545454545455243,
                "tempo": 120.0
            },
            {
                "start_time": 114.28636363636363,
                "end_time": 114.48409090909091,
                "pitch": 68,
                "velocity": 51,
                "duration": 0.19772727272727764,
                "tempo": 120.0
            },
            {
                "start_time": 114.48409090909091,
                "end_time": 114.68863636363636,
                "pitch": 68,
                "velocity": 51,
                "duration": 0.20454545454545325,
                "tempo": 120.0
            },
            {
                "start_time": 114.68863636363636,
                "end_time": 114.89318181818182,
                "pitch": 68,
                "velocity": 51,
                "duration": 0.20454545454545325,
                "tempo": 120.0
            },
            {
                "start_time": 114.89318181818182,
                "end_time": 115.09318181818182,
                "pitch": 68,
                "velocity": 51,
                "duration": 0.20000000000000284,
                "tempo": 120.0
            },
            {
                "start_time": 115.09318181818182,
                "end_time": 115.19318181818181,
                "pitch": 68,
                "velocity": 51,
                "duration": 0.09999999999999432,
                "tempo": 120.0
            },
            {
                "start_time": 115.19318181818181,
                "end_time": 115.29545454545455,
                "pitch": 68,
                "velocity": 51,
                "duration": 0.10227272727273373,
                "tempo": 120.0
            },
            {
                "start_time": 115.29545454545455,
                "end_time": 115.39545454545454,
                "pitch": 67,
                "velocity": 51,
                "duration": 0.09999999999999432,
                "tempo": 120.0
            },
            {
                "start_time": 115.39545454545454,
                "end_time": 115.49545454545454,
                "pitch": 68,
                "velocity": 51,
                "duration": 0.09999999999999432,
                "tempo": 120.0
            },
            {
                "start_time": 115.49545454545454,
                "end_time": 115.59772727272727,
                "pitch": 65,
                "velocity": 51,
                "duration": 0.10227272727273373,
                "tempo": 120.0
            },
            {
                "start_time": 115.59772727272727,
                "end_time": 115.69772727272726,
                "pitch": 62,
                "velocity": 51,
                "duration": 0.09999999999999432,
                "tempo": 120.0
            },
            {
                "start_time": 115.69772727272726,
                "end_time": 115.79772727272727,
                "pitch": 62,
                "velocity": 51,
                "duration": 0.10000000000000853,
                "tempo": 120.0
            },
            {
                "start_time": 115.79772727272727,
                "end_time": 115.89999999999999,
                "pitch": 67,
                "velocity": 51,
                "duration": 0.10227272727271952,
                "tempo": 120.0
            },
            {
                "start_time": 115.89999999999999,
                "end_time": 116.0,
                "pitch": 74,
                "velocity": 51,
                "duration": 0.10000000000000853,
                "tempo": 120.0
            },
            {
                "start_time": 116.0,
                "end_time": 116.1,
                "pitch": 72,
                "velocity": 51,
                "duration": 0.09999999999999432,
                "tempo": 120.0
            },
            {
                "start_time": 116.1,
                "end_time": 116.19999999999999,
                "pitch": 71,
                "velocity": 51,
                "duration": 0.09999999999999432,
                "tempo": 120.0
            },
            {
                "start_time": 116.19999999999999,
                "end_time": 116.3,
                "pitch": 69,
                "velocity": 51,
                "duration": 0.10000000000000853,
                "tempo": 120.0
            },
            {
                "start_time": 116.3,
                "end_time": 116.39999999999999,
                "pitch": 67,
                "velocity": 51,
                "duration": 0.09999999999999432,
                "tempo": 120.0
            },
            {
                "start_time": 116.39999999999999,
                "end_time": 116.5,
                "pitch": 69,
                "velocity": 51,
                "duration": 0.10000000000000853,
                "tempo": 120.0
            },
            {
                "start_time": 116.5,
                "end_time": 116.59772727272727,
                "pitch": 59,
                "velocity": 51,
                "duration": 0.09772727272726911,
                "tempo": 120.0
            },
            {
                "start_time": 116.59772727272727,
                "end_time": 116.69545454545454,
                "pitch": 62,
                "velocity": 51,
                "duration": 0.09772727272726911,
                "tempo": 120.0
            },
            {
                "start_time": 116.69545454545454,
                "end_time": 116.79318181818181,
                "pitch": 62,
                "velocity": 51,
                "duration": 0.09772727272726911,
                "tempo": 120.0
            },
            {
                "start_time": 116.79318181818181,
                "end_time": 116.89090909090909,
                "pitch": 63,
                "velocity": 51,
                "duration": 0.09772727272728332,
                "tempo": 120.0
            },
            {
                "start_time": 116.89090909090909,
                "end_time": 116.99772727272726,
                "pitch": 64,
                "velocity": 51,
                "duration": 0.10681818181816993,
                "tempo": 120.0
            },
            {
                "start_time": 116.99772727272726,
                "end_time": 117.10227272727272,
                "pitch": 67,
                "velocity": 51,
                "duration": 0.10454545454545894,
                "tempo": 120.0
            },
            {
                "start_time": 117.10227272727272,
                "end_time": 117.2090909090909,
                "pitch": 71,
                "velocity": 51,
                "duration": 0.10681818181818414,
                "tempo": 120.0
            },
            {
                "start_time": 117.2090909090909,
                "end_time": 117.31136363636364,
                "pitch": 74,
                "velocity": 51,
                "duration": 0.10227272727273373,
                "tempo": 120.0
            },
            {
                "start_time": 117.31136363636364,
                "end_time": 117.4090909090909,
                "pitch": 71,
                "velocity": 51,
                "duration": 0.09772727272726911,
                "tempo": 120.0
            },
            {
                "start_time": 117.4090909090909,
                "end_time": 117.50454545454545,
                "pitch": 64,
                "velocity": 51,
                "duration": 0.0954545454545439,
                "tempo": 120.0
            },
            {
                "start_time": 117.50454545454545,
                "end_time": 117.6,
                "pitch": 67,
                "velocity": 51,
                "duration": 0.0954545454545439,
                "tempo": 120.0
            },
            {
                "start_time": 117.6,
                "end_time": 117.69545454545454,
                "pitch": 67,
                "velocity": 51,
                "duration": 0.0954545454545439,
                "tempo": 120.0
            },
            {
                "start_time": 117.69545454545454,
                "end_time": 117.79772727272727,
                "pitch": 69,
                "velocity": 51,
                "duration": 0.10227272727273373,
                "tempo": 120.0
            },
            {
                "start_time": 117.79772727272727,
                "end_time": 117.89999999999999,
                "pitch": 62,
                "velocity": 51,
                "duration": 0.10227272727271952,
                "tempo": 120.0
            },
            {
                "start_time": 117.89999999999999,
                "end_time": 118.00227272727273,
                "pitch": 62,
                "velocity": 51,
                "duration": 0.10227272727273373,
                "tempo": 120.0
            },
            {
                "start_time": 118.00227272727273,
                "end_time": 118.10681818181817,
                "pitch": 64,
                "velocity": 51,
                "duration": 0.10454545454544473,
                "tempo": 120.0
            },
            {
                "start_time": 118.10681818181817,
                "end_time": 118.20681818181818,
                "pitch": 64,
                "velocity": 51,
                "duration": 0.10000000000000853,
                "tempo": 120.0
            },
            {
                "start_time": 118.20681818181818,
                "end_time": 118.30681818181817,
                "pitch": 62,
                "velocity": 51,
                "duration": 0.09999999999999432,
                "tempo": 120.0
            },
            {
                "start_time": 118.30681818181817,
                "end_time": 118.40681818181818,
                "pitch": 59,
                "velocity": 51,
                "duration": 0.10000000000000853,
                "tempo": 120.0
            },
            {
                "start_time": 118.40681818181818,
                "end_time": 118.50681818181818,
                "pitch": 55,
                "velocity": 51,
                "duration": 0.09999999999999432,
                "tempo": 120.0
            },
            {
                "start_time": 118.50681818181818,
                "end_time": 118.60681818181817,
                "pitch": 57,
                "velocity": 51,
                "duration": 0.09999999999999432,
                "tempo": 120.0
            },
            {
                "start_time": 118.60681818181817,
                "end_time": 118.70681818181818,
                "pitch": 57,
                "velocity": 51,
                "duration": 0.10000000000000853,
                "tempo": 120.0
            },
            {
                "start_time": 118.70681818181818,
                "end_time": 118.9090909090909,
                "pitch": 63,
                "velocity": 51,
                "duration": 0.20227272727272805,
                "tempo": 120.0
            },
            {
                "start_time": 118.9090909090909,
                "end_time": 120.31818181818181,
                "pitch": 63,
                "velocity": 51,
                "duration": 1.4090909090909065,
                "tempo": 120.0
            },
            {
                "start_time": 120.31818181818181,
                "end_time": 120.42272727272727,
                "pitch": 67,
                "velocity": 51,
                "duration": 0.10454545454545894,
                "tempo": 120.0
            },
            {
                "start_time": 120.42272727272727,
                "end_time": 120.52272727272727,
                "pitch": 69,
                "velocity": 51,
                "duration": 0.09999999999999432,
                "tempo": 120.0
            },
            {
                "start_time": 120.52272727272727,
                "end_time": 122.12272727272726,
                "pitch": 71,
                "velocity": 51,
                "duration": 1.5999999999999943,
                "tempo": 120.0
            },
            {
                "start_time": 122.12272727272726,
                "end_time": 122.22272727272727,
                "pitch": 63,
                "velocity": 51,
                "duration": 0.10000000000000853,
                "tempo": 120.0
            },
            {
                "start_time": 122.22272727272727,
                "end_time": 122.32272727272726,
                "pitch": 63,
                "velocity": 51,
                "duration": 0.09999999999999432,
                "tempo": 120.0
            },
            {
                "start_time": 122.32272727272726,
                "end_time": 122.42272727272727,
                "pitch": 64,
                "velocity": 51,
                "duration": 0.10000000000000853,
                "tempo": 120.0
            },
            {
                "start_time": 122.42272727272727,
                "end_time": 122.52272727272727,
                "pitch": 67,
                "velocity": 51,
                "duration": 0.09999999999999432,
                "tempo": 120.0
            },
            {
                "start_time": 122.52272727272727,
                "end_time": 122.62272727272726,
                "pitch": 69,
                "velocity": 51,
                "duration": 0.09999999999999432,
                "tempo": 120.0
            },
            {
                "start_time": 122.62272727272726,
                "end_time": 122.725,
                "pitch": 71,
                "velocity": 51,
                "duration": 0.10227272727273373,
                "tempo": 120.0
            },
            {
                "start_time": 122.725,
                "end_time": 122.82499999999999,
                "pitch": 72,
                "velocity": 51,
                "duration": 0.09999999999999432,
                "tempo": 120.0
            },
            {
                "start_time": 122.82499999999999,
                "end_time": 122.92727272727272,
                "pitch": 74,
                "velocity": 51,
                "duration": 0.10227272727273373,
                "tempo": 120.0
            },
            {
                "start_time": 122.92727272727272,
                "end_time": 123.02727272727272,
                "pitch": 74,
                "velocity": 51,
                "duration": 0.09999999999999432,
                "tempo": 120.0
            },
            {
                "start_time": 123.02727272727272,
                "end_time": 123.125,
                "pitch": 71,
                "velocity": 51,
                "duration": 0.09772727272728332,
                "tempo": 120.0
            },
            {
                "start_time": 123.125,
                "end_time": 123.225,
                "pitch": 69,
                "velocity": 51,
                "duration": 0.09999999999999432,
                "tempo": 120.0
            },
            {
                "start_time": 123.225,
                "end_time": 123.32499999999999,
                "pitch": 71,
                "velocity": 51,
                "duration": 0.09999999999999432,
                "tempo": 120.0
            },
            {
                "start_time": 123.32499999999999,
                "end_time": 123.42727272727272,
                "pitch": 67,
                "velocity": 51,
                "duration": 0.10227272727273373,
                "tempo": 120.0
            },
            {
                "start_time": 123.42727272727272,
                "end_time": 123.53181818181818,
                "pitch": 69,
                "velocity": 51,
                "duration": 0.10454545454545894,
                "tempo": 120.0
            },
            {
                "start_time": 123.53181818181818,
                "end_time": 123.6340909090909,
                "pitch": 65,
                "velocity": 51,
                "duration": 0.10227272727271952,
                "tempo": 120.0
            },
            {
                "start_time": 123.6340909090909,
                "end_time": 123.73636363636363,
                "pitch": 69,
                "velocity": 51,
                "duration": 0.10227272727273373,
                "tempo": 120.0
            },
            {
                "start_time": 123.73636363636363,
                "end_time": 124.32272727272726,
                "pitch": 74,
                "velocity": 51,
                "duration": 0.5863636363636289,
                "tempo": 120.0
            },
            {
                "start_time": 124.32272727272726,
                "end_time": 124.425,
                "pitch": 72,
                "velocity": 51,
                "duration": 0.10227272727273373,
                "tempo": 120.0
            },
            {
                "start_time": 124.425,
                "end_time": 124.52954545454544,
                "pitch": 71,
                "velocity": 40,
                "duration": 0.10454545454544473,
                "tempo": 120.0
            },
            {
                "start_time": 124.52954545454544,
                "end_time": 124.62954545454545,
                "pitch": 74,
                "velocity": 40,
                "duration": 0.10000000000000853,
                "tempo": 120.0
            },
            {
                "start_time": 124.62954545454545,
                "end_time": 124.72954545454544,
                "pitch": 72,
                "velocity": 40,
                "duration": 0.09999999999999432,
                "tempo": 120.0
            },
            {
                "start_time": 124.72954545454544,
                "end_time": 124.83181818181818,
                "pitch": 71,
                "velocity": 40,
                "duration": 0.10227272727273373,
                "tempo": 120.0
            },
            {
                "start_time": 124.83181818181818,
                "end_time": 124.93181818181817,
                "pitch": 67,
                "velocity": 40,
                "duration": 0.09999999999999432,
                "tempo": 120.0
            },
            {
                "start_time": 124.93181818181817,
                "end_time": 125.13181818181818,
                "pitch": 69,
                "velocity": 40,
                "duration": 0.20000000000000284,
                "tempo": 120.0
            },
            {
                "start_time": 125.13181818181818,
                "end_time": 125.23181818181817,
                "pitch": 67,
                "velocity": 40,
                "duration": 0.09999999999999432,
                "tempo": 120.0
            },
            {
                "start_time": 125.23181818181817,
                "end_time": 125.33181818181818,
                "pitch": 65,
                "velocity": 40,
                "duration": 0.10000000000000853,
                "tempo": 120.0
            },
            {
                "start_time": 125.33181818181818,
                "end_time": 125.53181818181818,
                "pitch": 71,
                "velocity": 40,
                "duration": 0.20000000000000284,
                "tempo": 120.0
            },
            {
                "start_time": 125.53181818181818,
                "end_time": 125.73409090909091,
                "pitch": 71,
                "velocity": 40,
                "duration": 0.20227272727272805,
                "tempo": 120.0
            },
            {
                "start_time": 125.73409090909091,
                "end_time": 125.93636363636362,
                "pitch": 71,
                "velocity": 40,
                "duration": 0.20227272727271384,
                "tempo": 120.0
            },
            {
                "start_time": 125.93636363636362,
                "end_time": 126.13636363636363,
                "pitch": 71,
                "velocity": 32,
                "duration": 0.20000000000000284,
                "tempo": 120.0
            },
            {
                "start_time": 126.13636363636363,
                "end_time": 126.33636363636363,
                "pitch": 71,
                "velocity": 32,
                "duration": 0.20000000000000284,
                "tempo": 120.0
            },
            {
                "start_time": 126.33636363636363,
                "end_time": 126.53636363636363,
                "pitch": 71,
                "velocity": 32,
                "duration": 0.20000000000000284,
                "tempo": 120.0
            },
            {
                "start_time": 126.53636363636363,
                "end_time": 126.74090909090908,
                "pitch": 71,
                "velocity": 32,
                "duration": 0.20454545454545325,
                "tempo": 120.0
            },
            {
                "start_time": 126.74090909090908,
                "end_time": 126.94545454545454,
                "pitch": 71,
                "velocity": 32,
                "duration": 0.20454545454545325,
                "tempo": 120.0
            },
            {
                "start_time": 126.94545454545454,
                "end_time": 127.13863636363635,
                "pitch": 68,
                "velocity": 32,
                "duration": 0.19318181818181301,
                "tempo": 120.0
            },
            {
                "start_time": 127.13863636363635,
                "end_time": 127.32954545454545,
                "pitch": 68,
                "velocity": 32,
                "duration": 0.19090909090910202,
                "tempo": 120.0
            },
            {
                "start_time": 127.32954545454545,
                "end_time": 127.5340909090909,
                "pitch": 68,
                "velocity": 32,
                "duration": 0.20454545454545325,
                "tempo": 120.0
            },
            {
                "start_time": 127.5340909090909,
                "end_time": 127.74090909090908,
                "pitch": 68,
                "velocity": 25,
                "duration": 0.20681818181817846,
                "tempo": 120.0
            },
            {
                "start_time": 127.74090909090908,
                "end_time": 127.94090909090909,
                "pitch": 68,
                "velocity": 25,
                "duration": 0.20000000000000284,
                "tempo": 120.0
            },
            {
                "start_time": 127.94090909090909,
                "end_time": 128.04090909090908,
                "pitch": 68,
                "velocity": 25,
                "duration": 0.09999999999999432,
                "tempo": 120.0
            },
            {
                "start_time": 128.04090909090908,
                "end_time": 128.1431818181818,
                "pitch": 68,
                "velocity": 25,
                "duration": 0.10227272727271952,
                "tempo": 120.0
            },
            {
                "start_time": 128.1431818181818,
                "end_time": 128.24318181818182,
                "pitch": 67,
                "velocity": 25,
                "duration": 0.10000000000002274,
                "tempo": 120.0
            },
            {
                "start_time": 128.24318181818182,
                "end_time": 128.34318181818182,
                "pitch": 68,
                "velocity": 25,
                "duration": 0.09999999999999432,
                "tempo": 120.0
            },
            {
                "start_time": 128.34318181818182,
                "end_time": 128.4431818181818,
                "pitch": 65,
                "velocity": 25,
                "duration": 0.09999999999999432,
                "tempo": 120.0
            },
            {
                "start_time": 128.4431818181818,
                "end_time": 128.5431818181818,
                "pitch": 62,
                "velocity": 25,
                "duration": 0.09999999999999432,
                "tempo": 120.0
            },
            {
                "start_time": 128.5431818181818,
                "end_time": 128.6431818181818,
                "pitch": 62,
                "velocity": 25,
                "duration": 0.09999999999999432,
                "tempo": 120.0
            },
            {
                "start_time": 128.6431818181818,
                "end_time": 128.74545454545455,
                "pitch": 67,
                "velocity": 25,
                "duration": 0.10227272727274794,
                "tempo": 120.0
            },
            {
                "start_time": 128.74545454545455,
                "end_time": 128.84545454545454,
                "pitch": 74,
                "velocity": 25,
                "duration": 0.09999999999999432,
                "tempo": 120.0
            },
            {
                "start_time": 128.84545454545454,
                "end_time": 128.94545454545454,
                "pitch": 72,
                "velocity": 25,
                "duration": 0.09999999999999432,
                "tempo": 120.0
            },
            {
                "start_time": 128.94545454545454,
                "end_time": 129.04772727272726,
                "pitch": 71,
                "velocity": 25,
                "duration": 0.10227272727271952,
                "tempo": 120.0
            },
            {
                "start_time": 129.04772727272726,
                "end_time": 129.14772727272728,
                "pitch": 69,
                "velocity": 20,
                "duration": 0.10000000000002274,
                "tempo": 120.0
            },
            {
                "start_time": 129.14772727272728,
                "end_time": 129.24772727272727,
                "pitch": 67,
                "velocity": 20,
                "duration": 0.09999999999999432,
                "tempo": 120.0
            },
            {
                "start_time": 129.24772727272727,
                "end_time": 129.35,
                "pitch": 69,
                "velocity": 20,
                "duration": 0.10227272727271952,
                "tempo": 120.0
            },
            {
                "start_time": 129.35,
                "end_time": 129.45,
                "pitch": 59,
                "velocity": 20,
                "duration": 0.09999999999999432,
                "tempo": 120.0
            },
            {
                "start_time": 129.45,
                "end_time": 129.54999999999998,
                "pitch": 62,
                "velocity": 20,
                "duration": 0.09999999999999432,
                "tempo": 120.0
            },
            {
                "start_time": 129.54999999999998,
                "end_time": 129.65,
                "pitch": 62,
                "velocity": 20,
                "duration": 0.10000000000002274,
                "tempo": 120.0
            },
            {
                "start_time": 129.65,
                "end_time": 129.75,
                "pitch": 63,
                "velocity": 20,
                "duration": 0.09999999999999432,
                "tempo": 120.0
            },
            {
                "start_time": 129.75,
                "end_time": 129.85454545454544,
                "pitch": 64,
                "velocity": 20,
                "duration": 0.10454545454544473,
                "tempo": 120.0
            },
            {
                "start_time": 129.85454545454544,
                "end_time": 129.95681818181816,
                "pitch": 67,
                "velocity": 20,
                "duration": 0.10227272727271952,
                "tempo": 120.0
            },
            {
                "start_time": 129.95681818181816,
                "end_time": 130.0590909090909,
                "pitch": 71,
                "velocity": 20,
                "duration": 0.10227272727274794,
                "tempo": 120.0
            },
            {
                "start_time": 130.0590909090909,
                "end_time": 130.16136363636363,
                "pitch": 74,
                "velocity": 20,
                "duration": 0.10227272727271952,
                "tempo": 120.0
            },
            {
                "start_time": 130.16136363636363,
                "end_time": 130.25681818181818,
                "pitch": 71,
                "velocity": 20,
                "duration": 0.0954545454545439,
                "tempo": 120.0
            },
            {
                "start_time": 130.25681818181818,
                "end_time": 130.35227272727272,
                "pitch": 64,
                "velocity": 20,
                "duration": 0.0954545454545439,
                "tempo": 120.0
            },
            {
                "start_time": 130.35227272727272,
                "end_time": 130.44772727272726,
                "pitch": 67,
                "velocity": 20,
                "duration": 0.0954545454545439,
                "tempo": 120.0
            },
            {
                "start_time": 130.44772727272726,
                "end_time": 130.5431818181818,
                "pitch": 67,
                "velocity": 20,
                "duration": 0.0954545454545439,
                "tempo": 120.0
            },
            {
                "start_time": 130.5431818181818,
                "end_time": 130.64545454545453,
                "pitch": 69,
                "velocity": 20,
                "duration": 0.10227272727271952,
                "tempo": 120.0
            },
            {
                "start_time": 130.64545454545453,
                "end_time": 130.74772727272727,
                "pitch": 62,
                "velocity": 16,
                "duration": 0.10227272727274794,
                "tempo": 120.0
            },
            {
                "start_time": 130.74772727272727,
                "end_time": 130.85227272727272,
                "pitch": 62,
                "velocity": 16,
                "duration": 0.10454545454544473,
                "tempo": 120.0
            },
            {
                "start_time": 130.85227272727272,
                "end_time": 130.95454545454544,
                "pitch": 64,
                "velocity": 16,
                "duration": 0.10227272727271952,
                "tempo": 120.0
            },
            {
                "start_time": 130.95454545454544,
                "end_time": 131.0568181818182,
                "pitch": 64,
                "velocity": 16,
                "duration": 0.10227272727274794,
                "tempo": 120.0
            },
            {
                "start_time": 131.0568181818182,
                "end_time": 131.1590909090909,
                "pitch": 62,
                "velocity": 16,
                "duration": 0.10227272727271952,
                "tempo": 120.0
            },
            {
                "start_time": 131.1590909090909,
                "end_time": 131.26363636363635,
                "pitch": 59,
                "velocity": 16,
                "duration": 0.10454545454544473,
                "tempo": 120.0
            },
            {
                "start_time": 131.26363636363635,
                "end_time": 131.36590909090907,
                "pitch": 55,
                "velocity": 16,
                "duration": 0.10227272727271952,
                "tempo": 120.0
            },
            {
                "start_time": 131.36590909090907,
                "end_time": 131.46363636363637,
                "pitch": 57,
                "velocity": 16,
                "duration": 0.09772727272729753,
                "tempo": 120.0
            },
            {
                "start_time": 131.46363636363637,
                "end_time": 131.56136363636364,
                "pitch": 57,
                "velocity": 16,
                "duration": 0.09772727272726911,
                "tempo": 120.0
            },
            {
                "start_time": 131.56136363636364,
                "end_time": 131.75681818181818,
                "pitch": 63,
                "velocity": 16,
                "duration": 0.19545454545453822,
                "tempo": 120.0
            },
            {
                "start_time": 131.75681818181818,
                "end_time": 133.1681818181818,
                "pitch": 63,
                "velocity": 16,
                "duration": 1.4113636363636317,
                "tempo": 120.0
            },
            {
                "start_time": 133.1681818181818,
                "end_time": 133.27045454545453,
                "pitch": 67,
                "velocity": 13,
                "duration": 0.10227272727271952,
                "tempo": 120.0
            },
            {
                "start_time": 133.27045454545453,
                "end_time": 133.37272727272727,
                "pitch": 69,
                "velocity": 13,
                "duration": 0.10227272727274794,
                "tempo": 120.0
            },
            {
                "start_time": 133.37272727272727,
                "end_time": 134.97954545454544,
                "pitch": 71,
                "velocity": 13,
                "duration": 1.60681818181817,
                "tempo": 120.0
            },
            {
                "start_time": 134.97954545454544,
                "end_time": 135.0772727272727,
                "pitch": 63,
                "velocity": 13,
                "duration": 0.09772727272726911,
                "tempo": 120.0
            },
            {
                "start_time": 135.0772727272727,
                "end_time": 135.17499999999998,
                "pitch": 63,
                "velocity": 10,
                "duration": 0.09772727272726911,
                "tempo": 120.0
            },
            {
                "start_time": 135.17499999999998,
                "end_time": 135.27272727272725,
                "pitch": 64,
                "velocity": 10,
                "duration": 0.09772727272726911,
                "tempo": 120.0
            },
            {
                "start_time": 135.27272727272725,
                "end_time": 135.37045454545455,
                "pitch": 67,
                "velocity": 10,
                "duration": 0.09772727272729753,
                "tempo": 120.0
            },
            {
                "start_time": 135.37045454545455,
                "end_time": 135.47272727272727,
                "pitch": 69,
                "velocity": 10,
                "duration": 0.10227272727271952,
                "tempo": 120.0
            },
            {
                "start_time": 135.47272727272727,
                "end_time": 135.57272727272726,
                "pitch": 71,
                "velocity": 8,
                "duration": 0.09999999999999432,
                "tempo": 120.0
            },
            {
                "start_time": 135.57272727272726,
                "end_time": 135.67272727272726,
                "pitch": 72,
                "velocity": 8,
                "duration": 0.09999999999999432,
                "tempo": 120.0
            },
            {
                "start_time": 135.67272727272726,
                "end_time": 135.775,
                "pitch": 74,
                "velocity": 8,
                "duration": 0.10227272727274794,
                "tempo": 120.0
            },
            {
                "start_time": 135.775,
                "end_time": 135.875,
                "pitch": 74,
                "velocity": 8,
                "duration": 0.09999999999999432,
                "tempo": 120.0
            },
            {
                "start_time": 135.875,
                "end_time": 135.975,
                "pitch": 71,
                "velocity": 8,
                "duration": 0.09999999999999432,
                "tempo": 120.0
            },
            {
                "start_time": 135.975,
                "end_time": 136.075,
                "pitch": 69,
                "velocity": 8,
                "duration": 0.09999999999999432,
                "tempo": 120.0
            },
            {
                "start_time": 136.075,
                "end_time": 136.17499999999998,
                "pitch": 71,
                "velocity": 8,
                "duration": 0.09999999999999432,
                "tempo": 120.0
            },
            {
                "start_time": 136.17499999999998,
                "end_time": 136.275,
                "pitch": 67,
                "velocity": 8,
                "duration": 0.10000000000002274,
                "tempo": 120.0
            },
            {
                "start_time": 136.275,
                "end_time": 136.375,
                "pitch": 69,
                "velocity": 8,
                "duration": 0.09999999999999432,
                "tempo": 120.0
            },
            {
                "start_time": 136.375,
                "end_time": 136.47727272727272,
                "pitch": 65,
                "velocity": 8,
                "duration": 0.10227272727271952,
                "tempo": 120.0
            },
            {
                "start_time": 136.47727272727272,
                "end_time": 136.5772727272727,
                "pitch": 69,
                "velocity": 8,
                "duration": 0.09999999999999432,
                "tempo": 120.0
            },
            {
                "start_time": 136.5772727272727,
                "end_time": 137.17499999999998,
                "pitch": 74,
                "velocity": 8,
                "duration": 0.5977272727272691,
                "tempo": 120.0
            },
            {
                "start_time": 137.17499999999998,
                "end_time": 137.27727272727273,
                "pitch": 72,
                "velocity": 8,
                "duration": 0.10227272727274794,
                "tempo": 120.0
            },
            {
                "start_time": 137.27727272727273,
                "end_time": 137.38181818181818,
                "pitch": 71,
                "velocity": 6,
                "duration": 0.10454545454544473,
                "tempo": 120.0
            },
            {
                "start_time": 137.38181818181818,
                "end_time": 137.48181818181817,
                "pitch": 74,
                "velocity": 6,
                "duration": 0.09999999999999432,
                "tempo": 120.0
            },
            {
                "start_time": 137.48181818181817,
                "end_time": 137.58181818181816,
                "pitch": 72,
                "velocity": 6,
                "duration": 0.09999999999999432,
                "tempo": 120.0
            },
            {
                "start_time": 137.58181818181816,
                "end_time": 137.6818181818182,
                "pitch": 71,
                "velocity": 6,
                "duration": 0.10000000000002274,
                "tempo": 120.0
            },
            {
                "start_time": 137.6818181818182,
                "end_time": 137.7840909090909,
                "pitch": 67,
                "velocity": 6,
                "duration": 0.10227272727271952,
                "tempo": 120.0
            },
            {
                "start_time": 137.7840909090909,
                "end_time": 137.9840909090909,
                "pitch": 69,
                "velocity": 6,
                "duration": 0.19999999999998863,
                "tempo": 120.0
            },
            {
                "start_time": 137.9840909090909,
                "end_time": 138.0840909090909,
                "pitch": 67,
                "velocity": 6,
                "duration": 0.09999999999999432,
                "tempo": 120.0
            },
            {
                "start_time": 138.0840909090909,
                "end_time": 138.1840909090909,
                "pitch": 65,
                "velocity": 6,
                "duration": 0.10000000000002274,
                "tempo": 120.0
            },
            {
                "start_time": 138.1840909090909,
                "end_time": 138.3840909090909,
                "pitch": 71,
                "velocity": 6,
                "duration": 0.19999999999998863,
                "tempo": 120.0
            },
            {
                "start_time": 138.3840909090909,
                "end_time": 138.58636363636364,
                "pitch": 71,
                "velocity": 6,
                "duration": 0.20227272727274226,
                "tempo": 120.0
            },
            {
                "start_time": 138.58636363636364,
                "end_time": 138.78636363636363,
                "pitch": 71,
                "velocity": 6,
                "duration": 0.19999999999998863,
                "tempo": 120.0
            },
            {
                "start_time": 138.78636363636363,
                "end_time": 138.98863636363635,
                "pitch": 71,
                "velocity": 5,
                "duration": 0.20227272727271384,
                "tempo": 120.0
            },
            {
                "start_time": 138.98863636363635,
                "end_time": 139.18863636363636,
                "pitch": 71,
                "velocity": 5,
                "duration": 0.20000000000001705,
                "tempo": 120.0
            },
            {
                "start_time": 139.18863636363636,
                "end_time": 139.39090909090908,
                "pitch": 71,
                "velocity": 5,
                "duration": 0.20227272727271384,
                "tempo": 120.0
            },
            {
                "start_time": 139.39090909090908,
                "end_time": 139.59545454545454,
                "pitch": 71,
                "velocity": 5,
                "duration": 0.20454545454546746,
                "tempo": 120.0
            },
            {
                "start_time": 139.59545454545454,
                "end_time": 139.79999999999998,
                "pitch": 71,
                "velocity": 5,
                "duration": 0.20454545454543904,
                "tempo": 120.0
            },
            {
                "start_time": 139.79999999999998,
                "end_time": 139.99090909090907,
                "pitch": 68,
                "velocity": 5,
                "duration": 0.1909090909090878,
                "tempo": 120.0
            },
            {
                "start_time": 139.99090909090907,
                "end_time": 140.1840909090909,
                "pitch": 68,
                "velocity": 5,
                "duration": 0.19318181818184144,
                "tempo": 120.0
            },
            {
                "start_time": 140.1840909090909,
                "end_time": 140.38863636363635,
                "pitch": 68,
                "velocity": 5,
                "duration": 0.20454545454543904,
                "tempo": 120.0
            },
            {
                "start_time": 140.38863636363635,
                "end_time": 140.59318181818182,
                "pitch": 68,
                "velocity": 4,
                "duration": 0.20454545454546746,
                "tempo": 120.0
            },
            {
                "start_time": 140.59318181818182,
                "end_time": 140.79999999999998,
                "pitch": 68,
                "velocity": 4,
                "duration": 0.20681818181816425,
                "tempo": 120.0
            },
            {
                "start_time": 140.79999999999998,
                "end_time": 140.90227272727273,
                "pitch": 68,
                "velocity": 4,
                "duration": 0.10227272727274794,
                "tempo": 120.0
            },
            {
                "start_time": 140.90227272727273,
                "end_time": 141.00681818181818,
                "pitch": 68,
                "velocity": 4,
                "duration": 0.10454545454544473,
                "tempo": 120.0
            },
            {
                "start_time": 141.00681818181818,
                "end_time": 141.10454545454544,
                "pitch": 67,
                "velocity": 4,
                "duration": 0.09772727272726911,
                "tempo": 120.0
            },
            {
                "start_time": 141.10454545454544,
                "end_time": 141.2022727272727,
                "pitch": 68,
                "velocity": 4,
                "duration": 0.09772727272726911,
                "tempo": 120.0
            },
            {
                "start_time": 141.2022727272727,
                "end_time": 141.29999999999998,
                "pitch": 65,
                "velocity": 4,
                "duration": 0.09772727272726911,
                "tempo": 120.0
            },
            {
                "start_time": 141.29999999999998,
                "end_time": 141.39772727272725,
                "pitch": 62,
                "velocity": 4,
                "duration": 0.09772727272726911,
                "tempo": 120.0
            },
            {
                "start_time": 141.39772727272725,
                "end_time": 141.5,
                "pitch": 62,
                "velocity": 4,
                "duration": 0.10227272727274794,
                "tempo": 120.0
            },
            {
                "start_time": 141.5,
                "end_time": 141.6,
                "pitch": 67,
                "velocity": 4,
                "duration": 0.09999999999999432,
                "tempo": 120.0
            },
            {
                "start_time": 141.6,
                "end_time": 141.7,
                "pitch": 74,
                "velocity": 4,
                "duration": 0.09999999999999432,
                "tempo": 120.0
            },
            {
                "start_time": 141.7,
                "end_time": 141.79999999999998,
                "pitch": 72,
                "velocity": 4,
                "duration": 0.09999999999999432,
                "tempo": 120.0
            },
            {
                "start_time": 141.79999999999998,
                "end_time": 141.90454545454546,
                "pitch": 71,
                "velocity": 4,
                "duration": 0.10454545454547315,
                "tempo": 120.0
            },
            {
                "start_time": 141.90454545454546,
                "end_time": 142.00681818181818,
                "pitch": 69,
                "velocity": 4,
                "duration": 0.10227272727271952,
                "tempo": 120.0
            },
            {
                "start_time": 142.00681818181818,
                "end_time": 142.1090909090909,
                "pitch": 67,
                "velocity": 4,
                "duration": 0.10227272727271952,
                "tempo": 120.0
            },
            {
                "start_time": 142.1090909090909,
                "end_time": 142.21136363636364,
                "pitch": 69,
                "velocity": 4,
                "duration": 0.10227272727274794,
                "tempo": 120.0
            },
            {
                "start_time": 142.21136363636364,
                "end_time": 142.3090909090909,
                "pitch": 59,
                "velocity": 4,
                "duration": 0.09772727272726911,
                "tempo": 120.0
            },
            {
                "start_time": 142.3090909090909,
                "end_time": 142.40681818181818,
                "pitch": 62,
                "velocity": 4,
                "duration": 0.09772727272726911,
                "tempo": 120.0
            },
            {
                "start_time": 142.40681818181818,
                "end_time": 142.50454545454545,
                "pitch": 62,
                "velocity": 4,
                "duration": 0.09772727272726911,
                "tempo": 120.0
            },
            {
                "start_time": 142.50454545454545,
                "end_time": 142.60227272727272,
                "pitch": 63,
                "velocity": 4,
                "duration": 0.09772727272726911,
                "tempo": 120.0
            },
            {
                "start_time": 142.60227272727272,
                "end_time": 142.7022727272727,
                "pitch": 64,
                "velocity": 4,
                "duration": 0.09999999999999432,
                "tempo": 120.0
            },
            {
                "start_time": 142.7022727272727,
                "end_time": 142.79999999999998,
                "pitch": 67,
                "velocity": 4,
                "duration": 0.09772727272726911,
                "tempo": 120.0
            },
            {
                "start_time": 142.79999999999998,
                "end_time": 142.89772727272725,
                "pitch": 71,
                "velocity": 4,
                "duration": 0.09772727272726911,
                "tempo": 120.0
            },
            {
                "start_time": 142.89772727272725,
                "end_time": 142.99545454545455,
                "pitch": 74,
                "velocity": 4,
                "duration": 0.09772727272729753,
                "tempo": 120.0
            },
            {
                "start_time": 142.99545454545455,
                "end_time": 143.09545454545454,
                "pitch": 71,
                "velocity": 4,
                "duration": 0.09999999999999432,
                "tempo": 120.0
            },
            {
                "start_time": 143.09545454545454,
                "end_time": 143.19545454545454,
                "pitch": 64,
                "velocity": 4,
                "duration": 0.09999999999999432,
                "tempo": 120.0
            },
            {
                "start_time": 143.19545454545454,
                "end_time": 143.29545454545453,
                "pitch": 67,
                "velocity": 4,
                "duration": 0.09999999999999432,
                "tempo": 120.0
            },
            {
                "start_time": 143.29545454545453,
                "end_time": 143.325,
                "pitch": 67,
                "velocity": 4,
                "duration": 0.029545454545456096,
                "tempo": 120.0
            }
        ]
    }
}