{
    "track_id": "Wonder Boy III (FM) - 03 - And Now...",
    "mood": "angry",
    "instruments": {
        "Electric Piano 1": [
            {
                "start_time": 1.984090909090909,
                "end_time": 4.140909090909091,
                "pitch": 44,
                "velocity": 80,
                "duration": 2.1568181818181817,
                "tempo": 120.0
            },
            {
                "start_time": 4.140909090909091,
                "end_time": 4.406818181818181,
                "pitch": 44,
                "velocity": 80,
                "duration": 0.26590909090909065,
                "tempo": 120.0
            },
            {
                "start_time": 4.406818181818181,
                "end_time": 4.675,
                "pitch": 43,
                "velocity": 80,
                "duration": 0.2681818181818185,
                "tempo": 120.0
            },
            {
                "start_time": 5.209090909090909,
                "end_time": 5.475,
                "pitch": 43,
                "velocity": 80,
                "duration": 0.26590909090909065,
                "tempo": 120.0
            },
            {
                "start_time": 5.475,
                "end_time": 5.743181818181818,
                "pitch": 43,
                "velocity": 80,
                "duration": 0.2681818181818185,
                "tempo": 120.0
            },
            {
                "start_time": 5.743181818181818,
                "end_time": 5.879545454545454,
                "pitch": 38,
                "velocity": 80,
                "duration": 0.1363636363636358,
                "tempo": 120.0
            },
            {
                "start_time": 5.879545454545454,
                "end_time": 6.015909090909091,
                "pitch": 38,
                "velocity": 80,
                "duration": 0.1363636363636367,
                "tempo": 120.0
            },
            {
                "start_time": 6.015909090909091,
                "end_time": 6.152272727272727,
                "pitch": 39,
                "velocity": 80,
                "duration": 0.1363636363636367,
                "tempo": 120.0
            },
            {
                "start_time": 6.152272727272727,
                "end_time": 6.286363636363636,
                "pitch": 40,
                "velocity": 80,
                "duration": 0.13409090909090882,
                "tempo": 120.0
            },
            {
                "start_time": 6.286363636363636,
                "end_time": 6.559090909090909,
                "pitch": 43,
                "velocity": 80,
                "duration": 0.2727272727272725,
                "tempo": 120.0
            },
            {
                "start_time": 6.559090909090909,
                "end_time": 6.831818181818181,
                "pitch": 43,
                "velocity": 80,
                "duration": 0.2727272727272725,
                "tempo": 120.0
            },
            {
                "start_time": 7.375,
                "end_time": 7.643181818181818,
                "pitch": 43,
                "velocity": 80,
                "duration": 0.26818181818181763,
                "tempo": 120.0
            },
            {
                "start_time": 7.659090909090908,
                "end_time": 7.909090909090908,
                "pitch": 43,
                "velocity": 80,
                "duration": 0.25,
                "tempo": 120.0
            },
            {
                "start_time": 7.909090909090908,
                "end_time": 8.045454545454545,
                "pitch": 43,
                "velocity": 80,
                "duration": 0.1363636363636367,
                "tempo": 120.0
            },
            {
                "start_time": 8.045454545454545,
                "end_time": 8.181818181818182,
                "pitch": 43,
                "velocity": 80,
                "duration": 0.1363636363636367,
                "tempo": 120.0
            },
            {
                "start_time": 8.181818181818182,
                "end_time": 8.318181818181818,
                "pitch": 44,
                "velocity": 80,
                "duration": 0.1363636363636367,
                "tempo": 120.0
            },
            {
                "start_time": 8.318181818181818,
                "end_time": 8.454545454545453,
                "pitch": 45,
                "velocity": 80,
                "duration": 0.1363636363636349,
                "tempo": 120.0
            },
            {
                "start_time": 8.470454545454546,
                "end_time": 10.618181818181817,
                "pitch": 47,
                "velocity": 80,
                "duration": 2.1477272727272716,
                "tempo": 120.0
            },
            {
                "start_time": 10.618181818181817,
                "end_time": 12.756818181818181,
                "pitch": 44,
                "velocity": 80,
                "duration": 2.1386363636363637,
                "tempo": 120.0
            },
            {
                "start_time": 12.774999999999999,
                "end_time": 13.024999999999999,
                "pitch": 43,
                "velocity": 80,
                "duration": 0.25,
                "tempo": 120.0
            },
            {
                "start_time": 13.024999999999999,
                "end_time": 13.290909090909091,
                "pitch": 43,
                "velocity": 80,
                "duration": 0.2659090909090924,
                "tempo": 120.0
            },
            {
                "start_time": 13.827272727272726,
                "end_time": 14.093181818181817,
                "pitch": 43,
                "velocity": 80,
                "duration": 0.26590909090909065,
                "tempo": 120.0
            },
            {
                "start_time": 14.109090909090908,
                "end_time": 14.361363636363636,
                "pitch": 43,
                "velocity": 80,
                "duration": 0.25227272727272876,
                "tempo": 120.0
            },
            {
                "start_time": 14.361363636363636,
                "end_time": 14.495454545454544,
                "pitch": 38,
                "velocity": 80,
                "duration": 0.13409090909090793,
                "tempo": 120.0
            },
            {
                "start_time": 14.495454545454544,
                "end_time": 14.631818181818181,
                "pitch": 38,
                "velocity": 80,
                "duration": 0.1363636363636367,
                "tempo": 120.0
            },
            {
                "start_time": 14.631818181818181,
                "end_time": 14.768181818181818,
                "pitch": 39,
                "velocity": 80,
                "duration": 0.1363636363636367,
                "tempo": 120.0
            },
            {
                "start_time": 14.768181818181818,
                "end_time": 14.920454545454545,
                "pitch": 40,
                "velocity": 80,
                "duration": 0.15227272727272734,
                "tempo": 120.0
            },
            {
                "start_time": 14.920454545454545,
                "end_time": 15.177272727272726,
                "pitch": 43,
                "velocity": 80,
                "duration": 0.25681818181818095,
                "tempo": 120.0
            },
            {
                "start_time": 15.177272727272726,
                "end_time": 15.46590909090909,
                "pitch": 43,
                "velocity": 80,
                "duration": 0.288636363636364,
                "tempo": 120.0
            },
            {
                "start_time": 15.984090909090908,
                "end_time": 16.26590909090909,
                "pitch": 43,
                "velocity": 80,
                "duration": 0.2818181818181831,
                "tempo": 120.0
            },
            {
                "start_time": 16.26590909090909,
                "end_time": 16.518181818181816,
                "pitch": 43,
                "velocity": 80,
                "duration": 0.2522727272727252,
                "tempo": 120.0
            },
            {
                "start_time": 16.53409090909091,
                "end_time": 16.652272727272727,
                "pitch": 51,
                "velocity": 80,
                "duration": 0.11818181818181728,
                "tempo": 120.0
            },
            {
                "start_time": 16.670454545454543,
                "end_time": 16.788636363636364,
                "pitch": 52,
                "velocity": 80,
                "duration": 0.11818181818182083,
                "tempo": 120.0
            },
            {
                "start_time": 16.80681818181818,
                "end_time": 16.925,
                "pitch": 53,
                "velocity": 80,
                "duration": 0.11818181818182083,
                "tempo": 120.0
            },
            {
                "start_time": 16.925,
                "end_time": 17.077272727272728,
                "pitch": 53,
                "velocity": 80,
                "duration": 0.15227272727272734,
                "tempo": 120.0
            },
            {
                "start_time": 17.077272727272728,
                "end_time": 17.345454545454544,
                "pitch": 55,
                "velocity": 80,
                "duration": 0.26818181818181586,
                "tempo": 120.0
            },
            {
                "start_time": 17.345454545454544,
                "end_time": 17.613636363636363,
                "pitch": 54,
                "velocity": 80,
                "duration": 0.2681818181818194,
                "tempo": 120.0
            },
            {
                "start_time": 17.613636363636363,
                "end_time": 17.879545454545454,
                "pitch": 54,
                "velocity": 80,
                "duration": 0.26590909090909065,
                "tempo": 120.0
            },
            {
                "start_time": 17.879545454545454,
                "end_time": 18.147727272727273,
                "pitch": 53,
                "velocity": 80,
                "duration": 0.2681818181818194,
                "tempo": 120.0
            },
            {
                "start_time": 18.147727272727273,
                "end_time": 18.413636363636364,
                "pitch": 52,
                "velocity": 80,
                "duration": 0.26590909090909065,
                "tempo": 120.0
            },
            {
                "start_time": 18.413636363636364,
                "end_time": 18.68181818181818,
                "pitch": 51,
                "velocity": 80,
                "duration": 0.26818181818181586,
                "tempo": 120.0
            },
            {
                "start_time": 18.68181818181818,
                "end_time": 18.952272727272728,
                "pitch": 50,
                "velocity": 80,
                "duration": 0.27045454545454817,
                "tempo": 120.0
            },
            {
                "start_time": 18.952272727272728,
                "end_time": 19.224999999999998,
                "pitch": 49,
                "velocity": 80,
                "duration": 0.2727272727272698,
                "tempo": 120.0
            },
            {
                "start_time": 19.224999999999998,
                "end_time": 21.35681818181818,
                "pitch": 47,
                "velocity": 80,
                "duration": 2.1318181818181827,
                "tempo": 120.0
            }
        ],
        "Vibraphone": [
            {
                "start_time": 0.3909090909090909,
                "end_time": 0.5863636363636363,
                "pitch": 63,
                "velocity": 80,
                "duration": 0.19545454545454544,
                "tempo": 120.0
            },
            {
                "start_time": 0.9136363636363636,
                "end_time": 1.1136363636363635,
                "pitch": 63,
                "velocity": 64,
                "duration": 0.19999999999999996,
                "tempo": 120.0
            },
            {
                "start_time": 1.4477272727272728,
                "end_time": 1.65,
                "pitch": 63,
                "velocity": 51,
                "duration": 0.20227272727272716,
                "tempo": 120.0
            },
            {
                "start_time": 2.0,
                "end_time": 2.190909090909091,
                "pitch": 63,
                "velocity": 40,
                "duration": 0.19090909090909092,
                "tempo": 120.0
            },
            {
                "start_time": 2.536363636363636,
                "end_time": 2.734090909090909,
                "pitch": 63,
                "velocity": 40,
                "duration": 0.19772727272727275,
                "tempo": 120.0
            },
            {
                "start_time": 3.077272727272727,
                "end_time": 3.268181818181818,
                "pitch": 63,
                "velocity": 64,
                "duration": 0.19090909090909092,
                "tempo": 120.0
            },
            {
                "start_time": 3.6159090909090907,
                "end_time": 3.811363636363636,
                "pitch": 63,
                "velocity": 64,
                "duration": 0.19545454545454533,
                "tempo": 120.0
            },
            {
                "start_time": 4.675,
                "end_time": 5.2749999999999995,
                "pitch": 68,
                "velocity": 80,
                "duration": 0.5999999999999996,
                "tempo": 120.0
            },
            {
                "start_time": 5.493181818181818,
                "end_time": 6.084090909090909,
                "pitch": 67,
                "velocity": 80,
                "duration": 0.5909090909090908,
                "tempo": 120.0
            },
            {
                "start_time": 6.847727272727273,
                "end_time": 7.4431818181818175,
                "pitch": 56,
                "velocity": 80,
                "duration": 0.5954545454545448,
                "tempo": 120.0
            },
            {
                "start_time": 7.659090909090908,
                "end_time": 8.25,
                "pitch": 55,
                "velocity": 80,
                "duration": 0.5909090909090917,
                "tempo": 120.0
            },
            {
                "start_time": 8.470454545454546,
                "end_time": 8.654545454545454,
                "pitch": 63,
                "velocity": 80,
                "duration": 0.18409090909090864,
                "tempo": 120.0
            },
            {
                "start_time": 9.004545454545454,
                "end_time": 9.19090909090909,
                "pitch": 63,
                "velocity": 80,
                "duration": 0.18636363636363562,
                "tempo": 120.0
            },
            {
                "start_time": 9.547727272727272,
                "end_time": 9.73181818181818,
                "pitch": 63,
                "velocity": 64,
                "duration": 0.18409090909090864,
                "tempo": 120.0
            },
            {
                "start_time": 10.084090909090909,
                "end_time": 10.26590909090909,
                "pitch": 63,
                "velocity": 51,
                "duration": 0.18181818181818166,
                "tempo": 120.0
            },
            {
                "start_time": 10.618181818181817,
                "end_time": 10.818181818181818,
                "pitch": 63,
                "velocity": 40,
                "duration": 0.20000000000000107,
                "tempo": 120.0
            },
            {
                "start_time": 11.152272727272727,
                "end_time": 11.338636363636363,
                "pitch": 63,
                "velocity": 40,
                "duration": 0.18636363636363562,
                "tempo": 120.0
            },
            {
                "start_time": 11.695454545454545,
                "end_time": 11.879545454545454,
                "pitch": 63,
                "velocity": 51,
                "duration": 0.18409090909090864,
                "tempo": 120.0
            },
            {
                "start_time": 12.229545454545454,
                "end_time": 12.418181818181818,
                "pitch": 63,
                "velocity": 64,
                "duration": 0.18863636363636438,
                "tempo": 120.0
            },
            {
                "start_time": 13.309090909090909,
                "end_time": 13.893181818181818,
                "pitch": 68,
                "velocity": 80,
                "duration": 0.584090909090909,
                "tempo": 120.0
            },
            {
                "start_time": 14.109090909090908,
                "end_time": 14.7,
                "pitch": 67,
                "velocity": 80,
                "duration": 0.5909090909090917,
                "tempo": 120.0
            },
            {
                "start_time": 15.46590909090909,
                "end_time": 16.06590909090909,
                "pitch": 56,
                "velocity": 80,
                "duration": 0.6000000000000014,
                "tempo": 120.0
            },
            {
                "start_time": 16.26590909090909,
                "end_time": 16.875,
                "pitch": 55,
                "velocity": 80,
                "duration": 0.6090909090909093,
                "tempo": 120.0
            },
            {
                "start_time": 17.077272727272728,
                "end_time": 17.279545454545453,
                "pitch": 55,
                "velocity": 80,
                "duration": 0.2022727272727245,
                "tempo": 120.0
            },
            {
                "start_time": 17.345454545454544,
                "end_time": 17.545454545454543,
                "pitch": 56,
                "velocity": 80,
                "duration": 0.1999999999999993,
                "tempo": 120.0
            },
            {
                "start_time": 17.613636363636363,
                "end_time": 17.813636363636363,
                "pitch": 59,
                "velocity": 80,
                "duration": 0.1999999999999993,
                "tempo": 120.0
            },
            {
                "start_time": 17.879545454545454,
                "end_time": 18.079545454545453,
                "pitch": 62,
                "velocity": 80,
                "duration": 0.1999999999999993,
                "tempo": 120.0
            },
            {
                "start_time": 18.147727272727273,
                "end_time": 18.347727272727273,
                "pitch": 63,
                "velocity": 80,
                "duration": 0.1999999999999993,
                "tempo": 120.0
            },
            {
                "start_time": 18.413636363636364,
                "end_time": 18.613636363636363,
                "pitch": 64,
                "velocity": 80,
                "duration": 0.1999999999999993,
                "tempo": 120.0
            },
            {
                "start_time": 18.68181818181818,
                "end_time": 18.886363636363637,
                "pitch": 65,
                "velocity": 80,
                "duration": 0.2045454545454568,
                "tempo": 120.0
            },
            {
                "start_time": 18.952272727272728,
                "end_time": 19.15681818181818,
                "pitch": 66,
                "velocity": 80,
                "duration": 0.20454545454545325,
                "tempo": 120.0
            },
            {
                "start_time": 19.224999999999998,
                "end_time": 21.293181818181818,
                "pitch": 67,
                "velocity": 80,
                "duration": 2.06818181818182,
                "tempo": 120.0
            }
        ]
    }
}