{
    "track_id": "Ys (FM) - 13 - The Last Moment of the Dark",
    "mood": "angry",
    "instruments": {
        "Lead 2 (sawtooth)": [
            {
                "start_time": 7.9795454545454545,
                "end_time": 40.06363636363636,
                "pitch": 51,
                "velocity": 80,
                "duration": 32.08409090909091,
                "tempo": 120.0
            },
            {
                "start_time": 40.06363636363636,
                "end_time": 40.16136363636363,
                "pitch": 63,
                "velocity": 80,
                "duration": 0.09772727272726911,
                "tempo": 120.0
            },
            {
                "start_time": 40.17727272727272,
                "end_time": 40.275,
                "pitch": 62,
                "velocity": 80,
                "duration": 0.09772727272727622,
                "tempo": 120.0
            },
            {
                "start_time": 40.293181818181814,
                "end_time": 40.40681818181818,
                "pitch": 63,
                "velocity": 80,
                "duration": 0.11363636363636687,
                "tempo": 120.0
            },
            {
                "start_time": 40.42272727272727,
                "end_time": 40.777272727272724,
                "pitch": 65,
                "velocity": 80,
                "duration": 0.35454545454545183,
                "tempo": 120.0
            },
            {
                "start_time": 40.79545454545455,
                "end_time": 41.03409090909091,
                "pitch": 66,
                "velocity": 80,
                "duration": 0.23863636363635976,
                "tempo": 120.0
            },
            {
                "start_time": 41.05,
                "end_time": 41.16590909090909,
                "pitch": 65,
                "velocity": 80,
                "duration": 0.11590909090909207,
                "tempo": 120.0
            },
            {
                "start_time": 41.18181818181818,
                "end_time": 42.025,
                "pitch": 63,
                "velocity": 80,
                "duration": 0.8431818181818187,
                "tempo": 120.0
            },
            {
                "start_time": 42.043181818181814,
                "end_time": 42.15909090909091,
                "pitch": 65,
                "velocity": 80,
                "duration": 0.11590909090909207,
                "tempo": 120.0
            },
            {
                "start_time": 42.175,
                "end_time": 42.275,
                "pitch": 63,
                "velocity": 80,
                "duration": 0.10000000000000142,
                "tempo": 120.0
            },
            {
                "start_time": 42.293181818181814,
                "end_time": 42.40909090909091,
                "pitch": 65,
                "velocity": 80,
                "duration": 0.11590909090909207,
                "tempo": 120.0
            },
            {
                "start_time": 42.425,
                "end_time": 42.775,
                "pitch": 66,
                "velocity": 80,
                "duration": 0.3500000000000014,
                "tempo": 120.0
            },
            {
                "start_time": 42.793181818181814,
                "end_time": 43.025,
                "pitch": 68,
                "velocity": 80,
                "duration": 0.23181818181818414,
                "tempo": 120.0
            },
            {
                "start_time": 43.043181818181814,
                "end_time": 43.15909090909091,
                "pitch": 66,
                "velocity": 80,
                "duration": 0.11590909090909207,
                "tempo": 120.0
            },
            {
                "start_time": 43.175,
                "end_time": 44.025,
                "pitch": 65,
                "velocity": 80,
                "duration": 0.8500000000000014,
                "tempo": 120.0
            },
            {
                "start_time": 44.043181818181814,
                "end_time": 44.15909090909091,
                "pitch": 66,
                "velocity": 80,
                "duration": 0.11590909090909207,
                "tempo": 120.0
            },
            {
                "start_time": 44.175,
                "end_time": 44.275,
                "pitch": 68,
                "velocity": 80,
                "duration": 0.10000000000000142,
                "tempo": 120.0
            },
            {
                "start_time": 44.293181818181814,
                "end_time": 45.038636363636364,
                "pitch": 70,
                "velocity": 80,
                "duration": 0.7454545454545496,
                "tempo": 120.0
            },
            {
                "start_time": 45.054545454545455,
                "end_time": 45.17045454545455,
                "pitch": 68,
                "velocity": 80,
                "duration": 0.11590909090909207,
                "tempo": 120.0
            },
            {
                "start_time": 45.18636363636364,
                "end_time": 45.28409090909091,
                "pitch": 70,
                "velocity": 80,
                "duration": 0.09772727272726911,
                "tempo": 120.0
            },
            {
                "start_time": 45.3,
                "end_time": 46.02954545454545,
                "pitch": 71,
                "velocity": 80,
                "duration": 0.7295454545454518,
                "tempo": 120.0
            },
            {
                "start_time": 46.04772727272727,
                "end_time": 46.163636363636364,
                "pitch": 70,
                "velocity": 80,
                "duration": 0.11590909090909207,
                "tempo": 120.0
            },
            {
                "start_time": 46.179545454545455,
                "end_time": 46.27954545454545,
                "pitch": 72,
                "velocity": 80,
                "duration": 0.09999999999999432,
                "tempo": 120.0
            },
            {
                "start_time": 46.29772727272727,
                "end_time": 47.52954545454545,
                "pitch": 74,
                "velocity": 80,
                "duration": 1.231818181818177,
                "tempo": 120.0
            },
            {
                "start_time": 47.54772727272727,
                "end_time": 48.043181818181814,
                "pitch": 70,
                "velocity": 80,
                "duration": 0.4954545454545425,
                "tempo": 120.0
            },
            {
                "start_time": 48.059090909090905,
                "end_time": 48.175,
                "pitch": 75,
                "velocity": 80,
                "duration": 0.11590909090909207,
                "tempo": 120.0
            },
            {
                "start_time": 48.19090909090909,
                "end_time": 48.288636363636364,
                "pitch": 74,
                "velocity": 80,
                "duration": 0.09772727272727622,
                "tempo": 120.0
            },
            {
                "start_time": 48.304545454545455,
                "end_time": 48.42045454545454,
                "pitch": 75,
                "velocity": 80,
                "duration": 0.11590909090908497,
                "tempo": 120.0
            },
            {
                "start_time": 48.43636363636364,
                "end_time": 48.79090909090909,
                "pitch": 77,
                "velocity": 80,
                "duration": 0.35454545454545183,
                "tempo": 120.0
            },
            {
                "start_time": 48.80681818181818,
                "end_time": 49.04772727272727,
                "pitch": 78,
                "velocity": 80,
                "duration": 0.24090909090909207,
                "tempo": 120.0
            },
            {
                "start_time": 49.06363636363636,
                "end_time": 49.179545454545455,
                "pitch": 77,
                "velocity": 80,
                "duration": 0.11590909090909207,
                "tempo": 120.0
            },
            {
                "start_time": 49.195454545454545,
                "end_time": 50.038636363636364,
                "pitch": 75,
                "velocity": 80,
                "duration": 0.8431818181818187,
                "tempo": 120.0
            },
            {
                "start_time": 50.054545454545455,
                "end_time": 50.17272727272727,
                "pitch": 77,
                "velocity": 80,
                "duration": 0.11818181818181728,
                "tempo": 120.0
            },
            {
                "start_time": 50.18863636363636,
                "end_time": 50.288636363636364,
                "pitch": 75,
                "velocity": 80,
                "duration": 0.10000000000000142,
                "tempo": 120.0
            },
            {
                "start_time": 50.304545454545455,
                "end_time": 50.42272727272727,
                "pitch": 77,
                "velocity": 80,
                "duration": 0.11818181818181728,
                "tempo": 120.0
            },
            {
                "start_time": 50.43863636363636,
                "end_time": 50.79545454545454,
                "pitch": 78,
                "velocity": 80,
                "duration": 0.35681818181817704,
                "tempo": 120.0
            },
            {
                "start_time": 50.81136363636364,
                "end_time": 51.05227272727272,
                "pitch": 80,
                "velocity": 80,
                "duration": 0.24090909090908497,
                "tempo": 120.0
            },
            {
                "start_time": 51.06818181818181,
                "end_time": 51.18181818181818,
                "pitch": 78,
                "velocity": 80,
                "duration": 0.11363636363636687,
                "tempo": 120.0
            },
            {
                "start_time": 51.199999999999996,
                "end_time": 52.043181818181814,
                "pitch": 77,
                "velocity": 80,
                "duration": 0.8431818181818187,
                "tempo": 120.0
            },
            {
                "start_time": 52.059090909090905,
                "end_time": 52.17727272727272,
                "pitch": 78,
                "velocity": 80,
                "duration": 0.11818181818181728,
                "tempo": 120.0
            },
            {
                "start_time": 52.19318181818181,
                "end_time": 52.293181818181814,
                "pitch": 80,
                "velocity": 80,
                "duration": 0.10000000000000142,
                "tempo": 120.0
            },
            {
                "start_time": 52.309090909090905,
                "end_time": 53.054545454545455,
                "pitch": 82,
                "velocity": 80,
                "duration": 0.7454545454545496,
                "tempo": 120.0
            },
            {
                "start_time": 53.07272727272727,
                "end_time": 53.18636363636363,
                "pitch": 80,
                "velocity": 80,
                "duration": 0.11363636363635976,
                "tempo": 120.0
            },
            {
                "start_time": 53.20454545454545,
                "end_time": 53.30227272727272,
                "pitch": 82,
                "velocity": 80,
                "duration": 0.09772727272726911,
                "tempo": 120.0
            },
            {
                "start_time": 53.31818181818181,
                "end_time": 54.059090909090905,
                "pitch": 83,
                "velocity": 80,
                "duration": 0.7409090909090921,
                "tempo": 120.0
            },
            {
                "start_time": 54.07727272727273,
                "end_time": 54.19090909090909,
                "pitch": 82,
                "velocity": 80,
                "duration": 0.11363636363635976,
                "tempo": 120.0
            },
            {
                "start_time": 54.20681818181818,
                "end_time": 54.30681818181818,
                "pitch": 70,
                "velocity": 80,
                "duration": 0.10000000000000142,
                "tempo": 120.0
            },
            {
                "start_time": 54.32272727272727,
                "end_time": 54.43636363636363,
                "pitch": 70,
                "velocity": 80,
                "duration": 0.11363636363635976,
                "tempo": 120.0
            },
            {
                "start_time": 54.45454545454545,
                "end_time": 54.55227272727272,
                "pitch": 70,
                "velocity": 80,
                "duration": 0.09772727272726911,
                "tempo": 120.0
            },
            {
                "start_time": 54.56818181818181,
                "end_time": 54.68863636363636,
                "pitch": 70,
                "velocity": 80,
                "duration": 0.12045454545454959,
                "tempo": 120.0
            },
            {
                "start_time": 54.70454545454545,
                "end_time": 54.80681818181818,
                "pitch": 74,
                "velocity": 80,
                "duration": 0.10227272727272663,
                "tempo": 120.0
            },
            {
                "start_time": 54.824999999999996,
                "end_time": 54.94318181818181,
                "pitch": 72,
                "velocity": 80,
                "duration": 0.11818181818181728,
                "tempo": 120.0
            },
            {
                "start_time": 54.961363636363636,
                "end_time": 55.06363636363636,
                "pitch": 74,
                "velocity": 80,
                "duration": 0.10227272727272663,
                "tempo": 120.0
            },
            {
                "start_time": 55.08181818181818,
                "end_time": 55.19772727272727,
                "pitch": 70,
                "velocity": 80,
                "duration": 0.11590909090909207,
                "tempo": 120.0
            },
            {
                "start_time": 55.21363636363636,
                "end_time": 55.31363636363636,
                "pitch": 74,
                "velocity": 80,
                "duration": 0.10000000000000142,
                "tempo": 120.0
            },
            {
                "start_time": 55.33181818181818,
                "end_time": 55.44772727272727,
                "pitch": 72,
                "velocity": 80,
                "duration": 0.11590909090909207,
                "tempo": 120.0
            },
            {
                "start_time": 55.46363636363636,
                "end_time": 55.56363636363636,
                "pitch": 74,
                "velocity": 80,
                "duration": 0.10000000000000142,
                "tempo": 120.0
            },
            {
                "start_time": 55.58181818181818,
                "end_time": 55.695454545454545,
                "pitch": 70,
                "velocity": 80,
                "duration": 0.11363636363636687,
                "tempo": 120.0
            },
            {
                "start_time": 55.711363636363636,
                "end_time": 55.81136363636363,
                "pitch": 74,
                "velocity": 80,
                "duration": 0.09999999999999432,
                "tempo": 120.0
            },
            {
                "start_time": 55.82727272727273,
                "end_time": 55.94090909090909,
                "pitch": 72,
                "velocity": 80,
                "duration": 0.11363636363635976,
                "tempo": 120.0
            },
            {
                "start_time": 55.959090909090904,
                "end_time": 56.05681818181818,
                "pitch": 74,
                "velocity": 80,
                "duration": 0.09772727272727622,
                "tempo": 120.0
            }
        ],
        "Trumpet": [
            {
                "start_time": 0.0,
                "end_time": 0.06136363636363636,
                "pitch": 39,
                "velocity": 101,
                "duration": 0.06136363636363636,
                "tempo": 120.0
            },
            {
                "start_time": 0.06136363636363636,
                "end_time": 0.9363636363636363,
                "pitch": 39,
                "velocity": 101,
                "duration": 0.8749999999999999,
                "tempo": 120.0
            },
            {
                "start_time": 0.9522727272727273,
                "end_time": 1.9386363636363635,
                "pitch": 38,
                "velocity": 101,
                "duration": 0.9863636363636362,
                "tempo": 120.0
            },
            {
                "start_time": 1.9545454545454544,
                "end_time": 2.943181818181818,
                "pitch": 37,
                "velocity": 101,
                "duration": 0.9886363636363635,
                "tempo": 120.0
            },
            {
                "start_time": 2.959090909090909,
                "end_time": 3.9477272727272728,
                "pitch": 38,
                "velocity": 101,
                "duration": 0.9886363636363638,
                "tempo": 120.0
            },
            {
                "start_time": 3.9636363636363634,
                "end_time": 4.952272727272727,
                "pitch": 39,
                "velocity": 101,
                "duration": 0.9886363636363638,
                "tempo": 120.0
            },
            {
                "start_time": 4.968181818181818,
                "end_time": 5.954545454545454,
                "pitch": 38,
                "velocity": 101,
                "duration": 0.9863636363636363,
                "tempo": 120.0
            },
            {
                "start_time": 5.972727272727273,
                "end_time": 6.959090909090909,
                "pitch": 37,
                "velocity": 101,
                "duration": 0.9863636363636363,
                "tempo": 120.0
            },
            {
                "start_time": 6.975,
                "end_time": 7.963636363636363,
                "pitch": 38,
                "velocity": 101,
                "duration": 0.9886363636363633,
                "tempo": 120.0
            },
            {
                "start_time": 7.9795454545454545,
                "end_time": 8.968181818181817,
                "pitch": 39,
                "velocity": 101,
                "duration": 0.9886363636363624,
                "tempo": 120.0
            },
            {
                "start_time": 8.98409090909091,
                "end_time": 9.972727272727273,
                "pitch": 38,
                "velocity": 101,
                "duration": 0.9886363636363633,
                "tempo": 120.0
            },
            {
                "start_time": 9.988636363636363,
                "end_time": 10.98409090909091,
                "pitch": 37,
                "velocity": 101,
                "duration": 0.995454545454546,
                "tempo": 120.0
            },
            {
                "start_time": 11.002272727272727,
                "end_time": 11.98409090909091,
                "pitch": 38,
                "velocity": 101,
                "duration": 0.9818181818181824,
                "tempo": 120.0
            },
            {
                "start_time": 12.002272727272727,
                "end_time": 12.984090909090908,
                "pitch": 39,
                "velocity": 101,
                "duration": 0.9818181818181806,
                "tempo": 120.0
            },
            {
                "start_time": 13.002272727272727,
                "end_time": 13.977272727272727,
                "pitch": 38,
                "velocity": 101,
                "duration": 0.9749999999999996,
                "tempo": 120.0
            },
            {
                "start_time": 13.993181818181817,
                "end_time": 14.988636363636363,
                "pitch": 37,
                "velocity": 101,
                "duration": 0.995454545454546,
                "tempo": 120.0
            },
            {
                "start_time": 15.004545454545454,
                "end_time": 15.988636363636363,
                "pitch": 38,
                "velocity": 101,
                "duration": 0.9840909090909093,
                "tempo": 120.0
            },
            {
                "start_time": 16.004545454545454,
                "end_time": 16.988636363636363,
                "pitch": 39,
                "velocity": 101,
                "duration": 0.9840909090909093,
                "tempo": 120.0
            },
            {
                "start_time": 17.004545454545454,
                "end_time": 17.98181818181818,
                "pitch": 38,
                "velocity": 101,
                "duration": 0.9772727272727266,
                "tempo": 120.0
            },
            {
                "start_time": 17.99772727272727,
                "end_time": 18.993181818181817,
                "pitch": 37,
                "velocity": 101,
                "duration": 0.995454545454546,
                "tempo": 120.0
            },
            {
                "start_time": 19.009090909090908,
                "end_time": 19.993181818181817,
                "pitch": 38,
                "velocity": 101,
                "duration": 0.9840909090909093,
                "tempo": 120.0
            },
            {
                "start_time": 20.009090909090908,
                "end_time": 20.993181818181817,
                "pitch": 39,
                "velocity": 101,
                "duration": 0.9840909090909093,
                "tempo": 120.0
            },
            {
                "start_time": 21.009090909090908,
                "end_time": 21.986363636363635,
                "pitch": 38,
                "velocity": 101,
                "duration": 0.9772727272727266,
                "tempo": 120.0
            },
            {
                "start_time": 22.002272727272725,
                "end_time": 22.99772727272727,
                "pitch": 37,
                "velocity": 101,
                "duration": 0.995454545454546,
                "tempo": 120.0
            },
            {
                "start_time": 23.013636363636362,
                "end_time": 23.99772727272727,
                "pitch": 38,
                "velocity": 101,
                "duration": 0.9840909090909093,
                "tempo": 120.0
            },
            {
                "start_time": 24.013636363636362,
                "end_time": 24.99090909090909,
                "pitch": 44,
                "velocity": 101,
                "duration": 0.9772727272727266,
                "tempo": 120.0
            },
            {
                "start_time": 25.00681818181818,
                "end_time": 25.988636363636363,
                "pitch": 43,
                "velocity": 101,
                "duration": 0.9818181818181841,
                "tempo": 120.0
            },
            {
                "start_time": 26.00681818181818,
                "end_time": 27.002272727272725,
                "pitch": 42,
                "velocity": 101,
                "duration": 0.995454545454546,
                "tempo": 120.0
            },
            {
                "start_time": 27.018181818181816,
                "end_time": 27.993181818181817,
                "pitch": 43,
                "velocity": 101,
                "duration": 0.9750000000000014,
                "tempo": 120.0
            },
            {
                "start_time": 28.011363636363637,
                "end_time": 29.0,
                "pitch": 44,
                "velocity": 101,
                "duration": 0.9886363636363633,
                "tempo": 120.0
            },
            {
                "start_time": 29.01590909090909,
                "end_time": 29.995454545454542,
                "pitch": 43,
                "velocity": 101,
                "duration": 0.9795454545454518,
                "tempo": 120.0
            },
            {
                "start_time": 30.011363636363633,
                "end_time": 31.01590909090909,
                "pitch": 42,
                "velocity": 101,
                "duration": 1.0045454545454575,
                "tempo": 120.0
            },
            {
                "start_time": 31.03181818181818,
                "end_time": 32.02045454545454,
                "pitch": 43,
                "velocity": 101,
                "duration": 0.9886363636363598,
                "tempo": 120.0
            },
            {
                "start_time": 32.03636363636363,
                "end_time": 32.26590909090909,
                "pitch": 34,
                "velocity": 101,
                "duration": 0.22954545454545894,
                "tempo": 120.0
            },
            {
                "start_time": 32.28181818181818,
                "end_time": 32.51136363636363,
                "pitch": 34,
                "velocity": 101,
                "duration": 0.22954545454545183,
                "tempo": 120.0
            },
            {
                "start_time": 32.529545454545456,
                "end_time": 32.763636363636365,
                "pitch": 34,
                "velocity": 101,
                "duration": 0.23409090909090935,
                "tempo": 120.0
            },
            {
                "start_time": 32.779545454545456,
                "end_time": 33.01590909090909,
                "pitch": 34,
                "velocity": 101,
                "duration": 0.23636363636363455,
                "tempo": 120.0
            },
            {
                "start_time": 33.525,
                "end_time": 33.75681818181818,
                "pitch": 34,
                "velocity": 101,
                "duration": 0.23181818181818414,
                "tempo": 120.0
            },
            {
                "start_time": 33.775,
                "end_time": 36.025,
                "pitch": 35,
                "velocity": 101,
                "duration": 2.25,
                "tempo": 120.0
            },
            {
                "start_time": 36.04090909090909,
                "end_time": 36.275,
                "pitch": 34,
                "velocity": 101,
                "duration": 0.23409090909090935,
                "tempo": 120.0
            },
            {
                "start_time": 36.29090909090909,
                "end_time": 36.525,
                "pitch": 34,
                "velocity": 101,
                "duration": 0.23409090909090935,
                "tempo": 120.0
            },
            {
                "start_time": 36.54090909090909,
                "end_time": 36.775,
                "pitch": 34,
                "velocity": 101,
                "duration": 0.23409090909090935,
                "tempo": 120.0
            },
            {
                "start_time": 36.79090909090909,
                "end_time": 37.025,
                "pitch": 34,
                "velocity": 101,
                "duration": 0.23409090909090935,
                "tempo": 120.0
            },
            {
                "start_time": 37.53409090909091,
                "end_time": 37.76590909090909,
                "pitch": 34,
                "velocity": 101,
                "duration": 0.23181818181818414,
                "tempo": 120.0
            },
            {
                "start_time": 37.78409090909091,
                "end_time": 39.018181818181816,
                "pitch": 35,
                "velocity": 101,
                "duration": 1.2340909090909093,
                "tempo": 120.0
            },
            {
                "start_time": 39.03409090909091,
                "end_time": 39.529545454545456,
                "pitch": 34,
                "velocity": 101,
                "duration": 0.4954545454545496,
                "tempo": 120.0
            },
            {
                "start_time": 39.54545454545455,
                "end_time": 40.029545454545456,
                "pitch": 38,
                "velocity": 101,
                "duration": 0.48409090909090935,
                "tempo": 120.0
            },
            {
                "start_time": 40.04772727272727,
                "end_time": 40.16136363636363,
                "pitch": 39,
                "velocity": 101,
                "duration": 0.11363636363635976,
                "tempo": 120.0
            },
            {
                "start_time": 40.293181818181814,
                "end_time": 40.40681818181818,
                "pitch": 39,
                "velocity": 101,
                "duration": 0.11363636363636687,
                "tempo": 120.0
            },
            {
                "start_time": 40.42272727272727,
                "end_time": 40.52272727272727,
                "pitch": 39,
                "velocity": 101,
                "duration": 0.10000000000000142,
                "tempo": 120.0
            },
            {
                "start_time": 40.538636363636364,
                "end_time": 40.65681818181818,
                "pitch": 39,
                "velocity": 101,
                "duration": 0.11818181818181728,
                "tempo": 120.0
            },
            {
                "start_time": 40.79545454545455,
                "end_time": 40.913636363636364,
                "pitch": 39,
                "velocity": 101,
                "duration": 0.11818181818181728,
                "tempo": 120.0
            },
            {
                "start_time": 40.93181818181818,
                "end_time": 41.03409090909091,
                "pitch": 39,
                "velocity": 101,
                "duration": 0.10227272727272663,
                "tempo": 120.0
            },
            {
                "start_time": 41.05,
                "end_time": 41.16590909090909,
                "pitch": 39,
                "velocity": 101,
                "duration": 0.11590909090909207,
                "tempo": 120.0
            },
            {
                "start_time": 41.29772727272727,
                "end_time": 41.41136363636363,
                "pitch": 39,
                "velocity": 101,
                "duration": 0.11363636363635976,
                "tempo": 120.0
            },
            {
                "start_time": 41.42727272727272,
                "end_time": 41.527272727272724,
                "pitch": 39,
                "velocity": 101,
                "duration": 0.10000000000000142,
                "tempo": 120.0
            },
            {
                "start_time": 41.543181818181814,
                "end_time": 41.65909090909091,
                "pitch": 39,
                "velocity": 101,
                "duration": 0.11590909090909207,
                "tempo": 120.0
            },
            {
                "start_time": 41.793181818181814,
                "end_time": 41.90909090909091,
                "pitch": 27,
                "velocity": 101,
                "duration": 0.11590909090909207,
                "tempo": 120.0
            },
            {
                "start_time": 41.925,
                "end_time": 42.025,
                "pitch": 27,
                "velocity": 101,
                "duration": 0.10000000000000142,
                "tempo": 120.0
            },
            {
                "start_time": 42.043181818181814,
                "end_time": 42.15909090909091,
                "pitch": 41,
                "velocity": 101,
                "duration": 0.11590909090909207,
                "tempo": 120.0
            },
            {
                "start_time": 42.293181818181814,
                "end_time": 42.40909090909091,
                "pitch": 41,
                "velocity": 101,
                "duration": 0.11590909090909207,
                "tempo": 120.0
            },
            {
                "start_time": 42.425,
                "end_time": 42.525,
                "pitch": 41,
                "velocity": 101,
                "duration": 0.10000000000000142,
                "tempo": 120.0
            },
            {
                "start_time": 42.543181818181814,
                "end_time": 42.65909090909091,
                "pitch": 41,
                "velocity": 101,
                "duration": 0.11590909090909207,
                "tempo": 120.0
            },
            {
                "start_time": 42.793181818181814,
                "end_time": 42.90909090909091,
                "pitch": 41,
                "velocity": 101,
                "duration": 0.11590909090909207,
                "tempo": 120.0
            },
            {
                "start_time": 42.925,
                "end_time": 43.025,
                "pitch": 41,
                "velocity": 101,
                "duration": 0.10000000000000142,
                "tempo": 120.0
            },
            {
                "start_time": 43.043181818181814,
                "end_time": 43.15909090909091,
                "pitch": 41,
                "velocity": 101,
                "duration": 0.11590909090909207,
                "tempo": 120.0
            },
            {
                "start_time": 43.293181818181814,
                "end_time": 43.40909090909091,
                "pitch": 41,
                "velocity": 101,
                "duration": 0.11590909090909207,
                "tempo": 120.0
            },
            {
                "start_time": 43.425,
                "end_time": 43.525,
                "pitch": 41,
                "velocity": 101,
                "duration": 0.10000000000000142,
                "tempo": 120.0
            },
            {
                "start_time": 43.543181818181814,
                "end_time": 43.65909090909091,
                "pitch": 41,
                "velocity": 101,
                "duration": 0.11590909090909207,
                "tempo": 120.0
            },
            {
                "start_time": 43.793181818181814,
                "end_time": 43.90909090909091,
                "pitch": 29,
                "velocity": 101,
                "duration": 0.11590909090909207,
                "tempo": 120.0
            },
            {
                "start_time": 43.925,
                "end_time": 44.025,
                "pitch": 29,
                "velocity": 101,
                "duration": 0.10000000000000142,
                "tempo": 120.0
            },
            {
                "start_time": 44.043181818181814,
                "end_time": 44.15909090909091,
                "pitch": 42,
                "velocity": 101,
                "duration": 0.11590909090909207,
                "tempo": 120.0
            },
            {
                "start_time": 44.293181818181814,
                "end_time": 44.40909090909091,
                "pitch": 42,
                "velocity": 101,
                "duration": 0.11590909090909207,
                "tempo": 120.0
            },
            {
                "start_time": 44.425,
                "end_time": 44.525,
                "pitch": 42,
                "velocity": 101,
                "duration": 0.10000000000000142,
                "tempo": 120.0
            },
            {
                "start_time": 44.543181818181814,
                "end_time": 44.66136363636363,
                "pitch": 42,
                "velocity": 101,
                "duration": 0.11818181818181728,
                "tempo": 120.0
            },
            {
                "start_time": 44.8,
                "end_time": 44.918181818181814,
                "pitch": 42,
                "velocity": 101,
                "duration": 0.11818181818181728,
                "tempo": 120.0
            },
            {
                "start_time": 44.93636363636364,
                "end_time": 45.038636363636364,
                "pitch": 42,
                "velocity": 101,
                "duration": 0.10227272727272663,
                "tempo": 120.0
            },
            {
                "start_time": 45.054545454545455,
                "end_time": 45.17045454545455,
                "pitch": 44,
                "velocity": 101,
                "duration": 0.11590909090909207,
                "tempo": 120.0
            },
            {
                "start_time": 45.3,
                "end_time": 45.41590909090909,
                "pitch": 44,
                "velocity": 101,
                "duration": 0.11590909090909207,
                "tempo": 120.0
            },
            {
                "start_time": 45.43181818181818,
                "end_time": 45.52954545454545,
                "pitch": 44,
                "velocity": 101,
                "duration": 0.09772727272726911,
                "tempo": 120.0
            },
            {
                "start_time": 45.54772727272727,
                "end_time": 45.663636363636364,
                "pitch": 44,
                "velocity": 101,
                "duration": 0.11590909090909207,
                "tempo": 120.0
            },
            {
                "start_time": 45.79772727272727,
                "end_time": 45.913636363636364,
                "pitch": 44,
                "velocity": 101,
                "duration": 0.11590909090909207,
                "tempo": 120.0
            },
            {
                "start_time": 45.929545454545455,
                "end_time": 46.02954545454545,
                "pitch": 44,
                "velocity": 101,
                "duration": 0.09999999999999432,
                "tempo": 120.0
            },
            {
                "start_time": 46.04772727272727,
                "end_time": 46.163636363636364,
                "pitch": 46,
                "velocity": 101,
                "duration": 0.11590909090909207,
                "tempo": 120.0
            },
            {
                "start_time": 46.29772727272727,
                "end_time": 46.413636363636364,
                "pitch": 46,
                "velocity": 101,
                "duration": 0.11590909090909207,
                "tempo": 120.0
            },
            {
                "start_time": 46.429545454545455,
                "end_time": 46.52954545454545,
                "pitch": 46,
                "velocity": 101,
                "duration": 0.09999999999999432,
                "tempo": 120.0
            },
            {
                "start_time": 46.54772727272727,
                "end_time": 46.663636363636364,
                "pitch": 46,
                "velocity": 101,
                "duration": 0.11590909090909207,
                "tempo": 120.0
            },
            {
                "start_time": 46.79772727272727,
                "end_time": 46.913636363636364,
                "pitch": 46,
                "velocity": 101,
                "duration": 0.11590909090909207,
                "tempo": 120.0
            },
            {
                "start_time": 46.929545454545455,
                "end_time": 47.02954545454545,
                "pitch": 46,
                "velocity": 101,
                "duration": 0.09999999999999432,
                "tempo": 120.0
            },
            {
                "start_time": 47.04772727272727,
                "end_time": 47.163636363636364,
                "pitch": 46,
                "velocity": 101,
                "duration": 0.11590909090909207,
                "tempo": 120.0
            },
            {
                "start_time": 47.29772727272727,
                "end_time": 47.413636363636364,
                "pitch": 46,
                "velocity": 101,
                "duration": 0.11590909090909207,
                "tempo": 120.0
            },
            {
                "start_time": 47.429545454545455,
                "end_time": 47.52954545454545,
                "pitch": 46,
                "velocity": 101,
                "duration": 0.09999999999999432,
                "tempo": 120.0
            },
            {
                "start_time": 47.54772727272727,
                "end_time": 47.66590909090909,
                "pitch": 46,
                "velocity": 101,
                "duration": 0.11818181818181728,
                "tempo": 120.0
            },
            {
                "start_time": 47.80227272727272,
                "end_time": 47.92272727272727,
                "pitch": 34,
                "velocity": 101,
                "duration": 0.12045454545454959,
                "tempo": 120.0
            },
            {
                "start_time": 47.94090909090909,
                "end_time": 48.043181818181814,
                "pitch": 34,
                "velocity": 101,
                "duration": 0.10227272727272663,
                "tempo": 120.0
            },
            {
                "start_time": 48.059090909090905,
                "end_time": 48.175,
                "pitch": 39,
                "velocity": 101,
                "duration": 0.11590909090909207,
                "tempo": 120.0
            },
            {
                "start_time": 48.304545454545455,
                "end_time": 48.42045454545454,
                "pitch": 39,
                "velocity": 101,
                "duration": 0.11590909090908497,
                "tempo": 120.0
            },
            {
                "start_time": 48.43636363636364,
                "end_time": 48.53409090909091,
                "pitch": 39,
                "velocity": 101,
                "duration": 0.09772727272726911,
                "tempo": 120.0
            },
            {
                "start_time": 48.55227272727272,
                "end_time": 48.67045454545454,
                "pitch": 39,
                "velocity": 101,
                "duration": 0.11818181818181728,
                "tempo": 120.0
            },
            {
                "start_time": 48.80681818181818,
                "end_time": 48.92727272727272,
                "pitch": 39,
                "velocity": 101,
                "duration": 0.12045454545454248,
                "tempo": 120.0
            },
            {
                "start_time": 48.94318181818181,
                "end_time": 49.04772727272727,
                "pitch": 39,
                "velocity": 101,
                "duration": 0.10454545454545894,
                "tempo": 120.0
            },
            {
                "start_time": 49.06363636363636,
                "end_time": 49.179545454545455,
                "pitch": 39,
                "velocity": 101,
                "duration": 0.11590909090909207,
                "tempo": 120.0
            },
            {
                "start_time": 49.309090909090905,
                "end_time": 49.425,
                "pitch": 39,
                "velocity": 101,
                "duration": 0.11590909090909207,
                "tempo": 120.0
            },
            {
                "start_time": 49.44090909090909,
                "end_time": 49.538636363636364,
                "pitch": 39,
                "velocity": 101,
                "duration": 0.09772727272727622,
                "tempo": 120.0
            },
            {
                "start_time": 49.554545454545455,
                "end_time": 49.67272727272727,
                "pitch": 39,
                "velocity": 101,
                "duration": 0.11818181818181728,
                "tempo": 120.0
            },
            {
                "start_time": 49.804545454545455,
                "end_time": 49.92272727272727,
                "pitch": 27,
                "velocity": 101,
                "duration": 0.11818181818181728,
                "tempo": 120.0
            },
            {
                "start_time": 49.93863636363636,
                "end_time": 50.038636363636364,
                "pitch": 27,
                "velocity": 101,
                "duration": 0.10000000000000142,
                "tempo": 120.0
            },
            {
                "start_time": 50.054545454545455,
                "end_time": 50.17272727272727,
                "pitch": 41,
                "velocity": 101,
                "duration": 0.11818181818181728,
                "tempo": 120.0
            },
            {
                "start_time": 50.304545454545455,
                "end_time": 50.42272727272727,
                "pitch": 41,
                "velocity": 101,
                "duration": 0.11818181818181728,
                "tempo": 120.0
            },
            {
                "start_time": 50.43863636363636,
                "end_time": 50.538636363636364,
                "pitch": 41,
                "velocity": 101,
                "duration": 0.10000000000000142,
                "tempo": 120.0
            },
            {
                "start_time": 50.554545454545455,
                "end_time": 50.675,
                "pitch": 41,
                "velocity": 101,
                "duration": 0.12045454545454248,
                "tempo": 120.0
            },
            {
                "start_time": 50.81136363636364,
                "end_time": 50.93181818181818,
                "pitch": 41,
                "velocity": 101,
                "duration": 0.12045454545454248,
                "tempo": 120.0
            },
            {
                "start_time": 50.94772727272727,
                "end_time": 51.05227272727272,
                "pitch": 41,
                "velocity": 101,
                "duration": 0.10454545454545183,
                "tempo": 120.0
            },
            {
                "start_time": 51.06818181818181,
                "end_time": 51.18181818181818,
                "pitch": 41,
                "velocity": 101,
                "duration": 0.11363636363636687,
                "tempo": 120.0
            },
            {
                "start_time": 51.31363636363636,
                "end_time": 51.429545454545455,
                "pitch": 41,
                "velocity": 101,
                "duration": 0.11590909090909207,
                "tempo": 120.0
            },
            {
                "start_time": 51.445454545454545,
                "end_time": 51.543181818181814,
                "pitch": 41,
                "velocity": 101,
                "duration": 0.09772727272726911,
                "tempo": 120.0
            },
            {
                "start_time": 51.559090909090905,
                "end_time": 51.67727272727272,
                "pitch": 41,
                "velocity": 101,
                "duration": 0.11818181818181728,
                "tempo": 120.0
            },
            {
                "start_time": 51.809090909090905,
                "end_time": 51.92727272727272,
                "pitch": 29,
                "velocity": 101,
                "duration": 0.11818181818181728,
                "tempo": 120.0
            },
            {
                "start_time": 51.94318181818181,
                "end_time": 52.043181818181814,
                "pitch": 29,
                "velocity": 101,
                "duration": 0.10000000000000142,
                "tempo": 120.0
            },
            {
                "start_time": 52.059090909090905,
                "end_time": 52.17727272727272,
                "pitch": 42,
                "velocity": 101,
                "duration": 0.11818181818181728,
                "tempo": 120.0
            },
            {
                "start_time": 52.309090909090905,
                "end_time": 52.42727272727272,
                "pitch": 42,
                "velocity": 101,
                "duration": 0.11818181818181728,
                "tempo": 120.0
            },
            {
                "start_time": 52.44318181818181,
                "end_time": 52.543181818181814,
                "pitch": 42,
                "velocity": 101,
                "duration": 0.10000000000000142,
                "tempo": 120.0
            },
            {
                "start_time": 52.559090909090905,
                "end_time": 52.679545454545455,
                "pitch": 42,
                "velocity": 101,
                "duration": 0.12045454545454959,
                "tempo": 120.0
            },
            {
                "start_time": 52.81590909090909,
                "end_time": 52.93636363636363,
                "pitch": 42,
                "velocity": 101,
                "duration": 0.12045454545454248,
                "tempo": 120.0
            },
            {
                "start_time": 52.95227272727273,
                "end_time": 53.054545454545455,
                "pitch": 42,
                "velocity": 101,
                "duration": 0.10227272727272663,
                "tempo": 120.0
            },
            {
                "start_time": 53.07272727272727,
                "end_time": 53.18636363636363,
                "pitch": 44,
                "velocity": 101,
                "duration": 0.11363636363635976,
                "tempo": 120.0
            },
            {
                "start_time": 53.31818181818181,
                "end_time": 53.434090909090905,
                "pitch": 44,
                "velocity": 101,
                "duration": 0.11590909090909207,
                "tempo": 120.0
            },
            {
                "start_time": 53.449999999999996,
                "end_time": 53.54772727272727,
                "pitch": 44,
                "velocity": 101,
                "duration": 0.09772727272727622,
                "tempo": 120.0
            },
            {
                "start_time": 53.56363636363636,
                "end_time": 53.684090909090905,
                "pitch": 44,
                "velocity": 101,
                "duration": 0.12045454545454248,
                "tempo": 120.0
            },
            {
                "start_time": 53.820454545454545,
                "end_time": 53.94090909090909,
                "pitch": 44,
                "velocity": 101,
                "duration": 0.12045454545454248,
                "tempo": 120.0
            },
            {
                "start_time": 53.95681818181818,
                "end_time": 54.059090909090905,
                "pitch": 44,
                "velocity": 101,
                "duration": 0.10227272727272663,
                "tempo": 120.0
            },
            {
                "start_time": 54.07727272727273,
                "end_time": 54.30681818181818,
                "pitch": 46,
                "velocity": 101,
                "duration": 0.22954545454545183,
                "tempo": 120.0
            },
            {
                "start_time": 54.32272727272727,
                "end_time": 54.55227272727272,
                "pitch": 34,
                "velocity": 101,
                "duration": 0.22954545454545183,
                "tempo": 120.0
            },
            {
                "start_time": 54.56818181818181,
                "end_time": 54.80681818181818,
                "pitch": 34,
                "velocity": 101,
                "duration": 0.23863636363636687,
                "tempo": 120.0
            },
            {
                "start_time": 54.824999999999996,
                "end_time": 55.06363636363636,
                "pitch": 34,
                "velocity": 101,
                "duration": 0.23863636363636687,
                "tempo": 120.0
            },
            {
                "start_time": 55.08181818181818,
                "end_time": 55.31363636363636,
                "pitch": 34,
                "velocity": 101,
                "duration": 0.23181818181818414,
                "tempo": 120.0
            },
            {
                "start_time": 55.33181818181818,
                "end_time": 55.56363636363636,
                "pitch": 34,
                "velocity": 101,
                "duration": 0.23181818181818414,
                "tempo": 120.0
            },
            {
                "start_time": 55.58181818181818,
                "end_time": 55.81136363636363,
                "pitch": 34,
                "velocity": 101,
                "duration": 0.22954545454545183,
                "tempo": 120.0
            },
            {
                "start_time": 55.82727272727273,
                "end_time": 56.05681818181818,
                "pitch": 38,
                "velocity": 101,
                "duration": 0.22954545454545183,
                "tempo": 120.0
            },
            {
                "start_time": 56.07272727272727,
                "end_time": 56.15681818181818,
                "pitch": 39,
                "velocity": 101,
                "duration": 0.08409090909091077,
                "tempo": 120.0
            }
        ],
        "Vibraphone": [
            {
                "start_time": 0.013636363636363636,
                "end_time": 0.06136363636363636,
                "pitch": 63,
                "velocity": 64,
                "duration": 0.04772727272727273,
                "tempo": 120.0
            },
            {
                "start_time": 0.06136363636363636,
                "end_time": 0.09545454545454544,
                "pitch": 63,
                "velocity": 64,
                "duration": 0.03409090909090908,
                "tempo": 120.0
            },
            {
                "start_time": 0.11136363636363636,
                "end_time": 0.21136363636363636,
                "pitch": 66,
                "velocity": 64,
                "duration": 0.1,
                "tempo": 120.0
            },
            {
                "start_time": 0.22954545454545452,
                "end_time": 0.34545454545454546,
                "pitch": 70,
                "velocity": 64,
                "duration": 0.11590909090909093,
                "tempo": 120.0
            },
            {
                "start_time": 0.36136363636363633,
                "end_time": 0.46136363636363636,
                "pitch": 66,
                "velocity": 64,
                "duration": 0.10000000000000003,
                "tempo": 120.0
            },
            {
                "start_time": 0.4795454545454545,
                "end_time": 0.5886363636363636,
                "pitch": 63,
                "velocity": 64,
                "duration": 0.10909090909090913,
                "tempo": 120.0
            },
            {
                "start_time": 0.6045454545454545,
                "end_time": 0.7,
                "pitch": 66,
                "velocity": 64,
                "duration": 0.09545454545454546,
                "tempo": 120.0
            },
            {
                "start_time": 0.7159090909090908,
                "end_time": 0.825,
                "pitch": 70,
                "velocity": 64,
                "duration": 0.10909090909090913,
                "tempo": 120.0
            },
            {
                "start_time": 0.8409090909090908,
                "end_time": 0.9363636363636363,
                "pitch": 66,
                "velocity": 64,
                "duration": 0.09545454545454546,
                "tempo": 120.0
            },
            {
                "start_time": 0.9522727272727273,
                "end_time": 1.0704545454545453,
                "pitch": 63,
                "velocity": 64,
                "duration": 0.11818181818181805,
                "tempo": 120.0
            },
            {
                "start_time": 1.0863636363636364,
                "end_time": 1.1886363636363635,
                "pitch": 66,
                "velocity": 64,
                "duration": 0.10227272727272707,
                "tempo": 120.0
            },
            {
                "start_time": 1.2068181818181818,
                "end_time": 1.3272727272727272,
                "pitch": 70,
                "velocity": 64,
                "duration": 0.12045454545454537,
                "tempo": 120.0
            },
            {
                "start_time": 1.343181818181818,
                "end_time": 1.4454545454545453,
                "pitch": 66,
                "velocity": 64,
                "duration": 0.10227272727272729,
                "tempo": 120.0
            },
            {
                "start_time": 1.4636363636363636,
                "end_time": 1.5772727272727272,
                "pitch": 63,
                "velocity": 64,
                "duration": 0.11363636363636354,
                "tempo": 120.0
            },
            {
                "start_time": 1.5954545454545455,
                "end_time": 1.6931818181818181,
                "pitch": 66,
                "velocity": 64,
                "duration": 0.09772727272727266,
                "tempo": 120.0
            },
            {
                "start_time": 1.709090909090909,
                "end_time": 1.8227272727272725,
                "pitch": 70,
                "velocity": 64,
                "duration": 0.11363636363636354,
                "tempo": 120.0
            },
            {
                "start_time": 1.8409090909090908,
                "end_time": 1.9386363636363635,
                "pitch": 66,
                "velocity": 64,
                "duration": 0.09772727272727266,
                "tempo": 120.0
            },
            {
                "start_time": 1.9545454545454544,
                "end_time": 2.0749999999999997,
                "pitch": 63,
                "velocity": 64,
                "duration": 0.12045454545454537,
                "tempo": 120.0
            },
            {
                "start_time": 2.090909090909091,
                "end_time": 2.193181818181818,
                "pitch": 66,
                "velocity": 64,
                "duration": 0.10227272727272707,
                "tempo": 120.0
            },
            {
                "start_time": 2.2113636363636364,
                "end_time": 2.3295454545454546,
                "pitch": 70,
                "velocity": 64,
                "duration": 0.11818181818181817,
                "tempo": 120.0
            },
            {
                "start_time": 2.3477272727272727,
                "end_time": 2.4499999999999997,
                "pitch": 66,
                "velocity": 64,
                "duration": 0.10227272727272707,
                "tempo": 120.0
            },
            {
                "start_time": 2.4681818181818183,
                "end_time": 2.5818181818181816,
                "pitch": 63,
                "velocity": 64,
                "duration": 0.11363636363636331,
                "tempo": 120.0
            },
            {
                "start_time": 2.5977272727272727,
                "end_time": 2.6977272727272728,
                "pitch": 66,
                "velocity": 64,
                "duration": 0.10000000000000009,
                "tempo": 120.0
            },
            {
                "start_time": 2.7136363636363634,
                "end_time": 2.827272727272727,
                "pitch": 70,
                "velocity": 64,
                "duration": 0.11363636363636376,
                "tempo": 120.0
            },
            {
                "start_time": 2.8454545454545452,
                "end_time": 2.943181818181818,
                "pitch": 66,
                "velocity": 64,
                "duration": 0.09772727272727266,
                "tempo": 120.0
            },
            {
                "start_time": 2.959090909090909,
                "end_time": 3.077272727272727,
                "pitch": 63,
                "velocity": 64,
                "duration": 0.11818181818181817,
                "tempo": 120.0
            },
            {
                "start_time": 3.0954545454545452,
                "end_time": 3.1977272727272728,
                "pitch": 66,
                "velocity": 64,
                "duration": 0.10227272727272751,
                "tempo": 120.0
            },
            {
                "start_time": 3.215909090909091,
                "end_time": 3.334090909090909,
                "pitch": 70,
                "velocity": 64,
                "duration": 0.11818181818181817,
                "tempo": 120.0
            },
            {
                "start_time": 3.352272727272727,
                "end_time": 3.4545454545454546,
                "pitch": 66,
                "velocity": 64,
                "duration": 0.10227272727272751,
                "tempo": 120.0
            },
            {
                "start_time": 3.4704545454545452,
                "end_time": 3.586363636363636,
                "pitch": 63,
                "velocity": 64,
                "duration": 0.11590909090909074,
                "tempo": 120.0
            },
            {
                "start_time": 3.602272727272727,
                "end_time": 3.6999999999999997,
                "pitch": 66,
                "velocity": 64,
                "duration": 0.09772727272727266,
                "tempo": 120.0
            },
            {
                "start_time": 3.718181818181818,
                "end_time": 3.8318181818181816,
                "pitch": 70,
                "velocity": 64,
                "duration": 0.11363636363636376,
                "tempo": 120.0
            },
            {
                "start_time": 3.8477272727272727,
                "end_time": 3.9477272727272728,
                "pitch": 66,
                "velocity": 64,
                "duration": 0.10000000000000009,
                "tempo": 120.0
            },
            {
                "start_time": 3.9636363636363634,
                "end_time": 4.081818181818182,
                "pitch": 63,
                "velocity": 64,
                "duration": 0.11818181818181861,
                "tempo": 120.0
            },
            {
                "start_time": 4.1,
                "end_time": 4.202272727272727,
                "pitch": 66,
                "velocity": 64,
                "duration": 0.10227272727272751,
                "tempo": 120.0
            },
            {
                "start_time": 4.218181818181818,
                "end_time": 4.338636363636364,
                "pitch": 70,
                "velocity": 64,
                "duration": 0.12045454545454604,
                "tempo": 120.0
            },
            {
                "start_time": 4.3568181818181815,
                "end_time": 4.459090909090909,
                "pitch": 66,
                "velocity": 64,
                "duration": 0.10227272727272751,
                "tempo": 120.0
            },
            {
                "start_time": 4.475,
                "end_time": 4.590909090909091,
                "pitch": 63,
                "velocity": 64,
                "duration": 0.11590909090909118,
                "tempo": 120.0
            },
            {
                "start_time": 4.6068181818181815,
                "end_time": 4.704545454545454,
                "pitch": 66,
                "velocity": 64,
                "duration": 0.09772727272727266,
                "tempo": 120.0
            },
            {
                "start_time": 4.722727272727273,
                "end_time": 4.836363636363636,
                "pitch": 70,
                "velocity": 64,
                "duration": 0.11363636363636331,
                "tempo": 120.0
            },
            {
                "start_time": 4.852272727272727,
                "end_time": 4.952272727272727,
                "pitch": 66,
                "velocity": 64,
                "duration": 0.10000000000000053,
                "tempo": 120.0
            },
            {
                "start_time": 4.968181818181818,
                "end_time": 5.086363636363636,
                "pitch": 63,
                "velocity": 64,
                "duration": 0.11818181818181817,
                "tempo": 120.0
            },
            {
                "start_time": 5.1045454545454545,
                "end_time": 5.206818181818181,
                "pitch": 66,
                "velocity": 64,
                "duration": 0.10227272727272663,
                "tempo": 120.0
            },
            {
                "start_time": 5.222727272727273,
                "end_time": 5.343181818181818,
                "pitch": 70,
                "velocity": 64,
                "duration": 0.12045454545454515,
                "tempo": 120.0
            },
            {
                "start_time": 5.3590909090909085,
                "end_time": 5.463636363636363,
                "pitch": 66,
                "velocity": 64,
                "duration": 0.1045454545454545,
                "tempo": 120.0
            },
            {
                "start_time": 5.4795454545454545,
                "end_time": 5.595454545454545,
                "pitch": 63,
                "velocity": 64,
                "duration": 0.1159090909090903,
                "tempo": 120.0
            },
            {
                "start_time": 5.611363636363636,
                "end_time": 5.709090909090909,
                "pitch": 66,
                "velocity": 64,
                "duration": 0.09772727272727266,
                "tempo": 120.0
            },
            {
                "start_time": 5.725,
                "end_time": 5.840909090909091,
                "pitch": 70,
                "velocity": 64,
                "duration": 0.11590909090909118,
                "tempo": 120.0
            },
            {
                "start_time": 5.8568181818181815,
                "end_time": 5.954545454545454,
                "pitch": 66,
                "velocity": 64,
                "duration": 0.09772727272727266,
                "tempo": 120.0
            },
            {
                "start_time": 5.972727272727273,
                "end_time": 6.090909090909091,
                "pitch": 63,
                "velocity": 64,
                "duration": 0.11818181818181817,
                "tempo": 120.0
            },
            {
                "start_time": 6.1068181818181815,
                "end_time": 6.211363636363636,
                "pitch": 66,
                "velocity": 64,
                "duration": 0.1045454545454545,
                "tempo": 120.0
            },
            {
                "start_time": 6.227272727272727,
                "end_time": 6.347727272727273,
                "pitch": 70,
                "velocity": 64,
                "duration": 0.12045454545454604,
                "tempo": 120.0
            },
            {
                "start_time": 6.363636363636363,
                "end_time": 6.465909090909091,
                "pitch": 66,
                "velocity": 64,
                "duration": 0.10227272727272751,
                "tempo": 120.0
            },
            {
                "start_time": 6.4840909090909085,
                "end_time": 6.6,
                "pitch": 63,
                "velocity": 64,
                "duration": 0.11590909090909118,
                "tempo": 120.0
            },
            {
                "start_time": 6.61590909090909,
                "end_time": 6.713636363636363,
                "pitch": 66,
                "velocity": 64,
                "duration": 0.09772727272727266,
                "tempo": 120.0
            },
            {
                "start_time": 6.7295454545454545,
                "end_time": 6.845454545454545,
                "pitch": 70,
                "velocity": 64,
                "duration": 0.1159090909090903,
                "tempo": 120.0
            },
            {
                "start_time": 6.861363636363636,
                "end_time": 6.959090909090909,
                "pitch": 66,
                "velocity": 64,
                "duration": 0.09772727272727266,
                "tempo": 120.0
            },
            {
                "start_time": 6.975,
                "end_time": 7.095454545454545,
                "pitch": 63,
                "velocity": 64,
                "duration": 0.12045454545454515,
                "tempo": 120.0
            },
            {
                "start_time": 7.111363636363636,
                "end_time": 7.213636363636363,
                "pitch": 66,
                "velocity": 64,
                "duration": 0.10227272727272663,
                "tempo": 120.0
            },
            {
                "start_time": 7.2318181818181815,
                "end_time": 7.352272727272727,
                "pitch": 70,
                "velocity": 64,
                "duration": 0.12045454545454515,
                "tempo": 120.0
            },
            {
                "start_time": 7.368181818181818,
                "end_time": 7.470454545454545,
                "pitch": 66,
                "velocity": 64,
                "duration": 0.10227272727272663,
                "tempo": 120.0
            },
            {
                "start_time": 7.488636363636363,
                "end_time": 7.602272727272727,
                "pitch": 63,
                "velocity": 64,
                "duration": 0.11363636363636331,
                "tempo": 120.0
            },
            {
                "start_time": 7.620454545454545,
                "end_time": 7.718181818181818,
                "pitch": 66,
                "velocity": 64,
                "duration": 0.09772727272727266,
                "tempo": 120.0
            },
            {
                "start_time": 7.7340909090909085,
                "end_time": 7.85,
                "pitch": 70,
                "velocity": 64,
                "duration": 0.11590909090909118,
                "tempo": 120.0
            },
            {
                "start_time": 7.86590909090909,
                "end_time": 7.963636363636363,
                "pitch": 66,
                "velocity": 64,
                "duration": 0.09772727272727266,
                "tempo": 120.0
            },
            {
                "start_time": 7.9795454545454545,
                "end_time": 8.1,
                "pitch": 63,
                "velocity": 64,
                "duration": 0.12045454545454515,
                "tempo": 120.0
            },
            {
                "start_time": 8.11590909090909,
                "end_time": 8.218181818181817,
                "pitch": 66,
                "velocity": 64,
                "duration": 0.10227272727272663,
                "tempo": 120.0
            },
            {
                "start_time": 8.236363636363636,
                "end_time": 8.354545454545454,
                "pitch": 70,
                "velocity": 64,
                "duration": 0.11818181818181728,
                "tempo": 120.0
            },
            {
                "start_time": 8.372727272727273,
                "end_time": 8.475,
                "pitch": 66,
                "velocity": 64,
                "duration": 0.10227272727272663,
                "tempo": 120.0
            },
            {
                "start_time": 8.493181818181817,
                "end_time": 8.60681818181818,
                "pitch": 63,
                "velocity": 64,
                "duration": 0.11363636363636331,
                "tempo": 120.0
            },
            {
                "start_time": 8.622727272727273,
                "end_time": 8.722727272727273,
                "pitch": 66,
                "velocity": 64,
                "duration": 0.09999999999999964,
                "tempo": 120.0
            },
            {
                "start_time": 8.738636363636363,
                "end_time": 8.852272727272727,
                "pitch": 70,
                "velocity": 64,
                "duration": 0.11363636363636331,
                "tempo": 120.0
            },
            {
                "start_time": 8.870454545454544,
                "end_time": 8.968181818181817,
                "pitch": 66,
                "velocity": 64,
                "duration": 0.09772727272727266,
                "tempo": 120.0
            },
            {
                "start_time": 8.98409090909091,
                "end_time": 9.102272727272727,
                "pitch": 63,
                "velocity": 64,
                "duration": 0.11818181818181728,
                "tempo": 120.0
            },
            {
                "start_time": 9.120454545454544,
                "end_time": 9.222727272727273,
                "pitch": 66,
                "velocity": 64,
                "duration": 0.1022727272727284,
                "tempo": 120.0
            },
            {
                "start_time": 9.24090909090909,
                "end_time": 9.35909090909091,
                "pitch": 70,
                "velocity": 64,
                "duration": 0.11818181818181905,
                "tempo": 120.0
            },
            {
                "start_time": 9.377272727272727,
                "end_time": 9.479545454545454,
                "pitch": 66,
                "velocity": 64,
                "duration": 0.10227272727272663,
                "tempo": 120.0
            },
            {
                "start_time": 9.495454545454544,
                "end_time": 9.611363636363636,
                "pitch": 63,
                "velocity": 64,
                "duration": 0.11590909090909207,
                "tempo": 120.0
            },
            {
                "start_time": 9.627272727272727,
                "end_time": 9.727272727272727,
                "pitch": 66,
                "velocity": 64,
                "duration": 0.09999999999999964,
                "tempo": 120.0
            },
            {
                "start_time": 9.743181818181817,
                "end_time": 9.85681818181818,
                "pitch": 70,
                "velocity": 64,
                "duration": 0.11363636363636331,
                "tempo": 120.0
            },
            {
                "start_time": 9.875,
                "end_time": 9.972727272727273,
                "pitch": 66,
                "velocity": 64,
                "duration": 0.09772727272727266,
                "tempo": 120.0
            },
            {
                "start_time": 9.988636363636363,
                "end_time": 10.10681818181818,
                "pitch": 63,
                "velocity": 64,
                "duration": 0.11818181818181728,
                "tempo": 120.0
            },
            {
                "start_time": 10.125,
                "end_time": 10.227272727272727,
                "pitch": 66,
                "velocity": 64,
                "duration": 0.10227272727272663,
                "tempo": 120.0
            },
            {
                "start_time": 10.243181818181817,
                "end_time": 10.363636363636363,
                "pitch": 70,
                "velocity": 64,
                "duration": 0.12045454545454604,
                "tempo": 120.0
            },
            {
                "start_time": 10.381818181818181,
                "end_time": 10.48409090909091,
                "pitch": 66,
                "velocity": 64,
                "duration": 0.1022727272727284,
                "tempo": 120.0
            },
            {
                "start_time": 10.5,
                "end_time": 10.618181818181817,
                "pitch": 63,
                "velocity": 64,
                "duration": 0.11818181818181728,
                "tempo": 120.0
            },
            {
                "start_time": 10.634090909090908,
                "end_time": 10.73409090909091,
                "pitch": 66,
                "velocity": 64,
                "duration": 0.10000000000000142,
                "tempo": 120.0
            },
            {
                "start_time": 10.752272727272727,
                "end_time": 10.868181818181817,
                "pitch": 70,
                "velocity": 64,
                "duration": 0.1159090909090903,
                "tempo": 120.0
            },
            {
                "start_time": 10.884090909090908,
                "end_time": 10.98409090909091,
                "pitch": 66,
                "velocity": 64,
                "duration": 0.10000000000000142,
                "tempo": 120.0
            },
            {
                "start_time": 11.002272727272727,
                "end_time": 11.118181818181817,
                "pitch": 63,
                "velocity": 64,
                "duration": 0.1159090909090903,
                "tempo": 120.0
            },
            {
                "start_time": 11.134090909090908,
                "end_time": 11.23409090909091,
                "pitch": 66,
                "velocity": 64,
                "duration": 0.10000000000000142,
                "tempo": 120.0
            },
            {
                "start_time": 11.252272727272727,
                "end_time": 11.368181818181817,
                "pitch": 70,
                "velocity": 64,
                "duration": 0.1159090909090903,
                "tempo": 120.0
            },
            {
                "start_time": 11.384090909090908,
                "end_time": 11.48409090909091,
                "pitch": 66,
                "velocity": 64,
                "duration": 0.10000000000000142,
                "tempo": 120.0
            },
            {
                "start_time": 11.502272727272727,
                "end_time": 11.618181818181817,
                "pitch": 63,
                "velocity": 64,
                "duration": 0.1159090909090903,
                "tempo": 120.0
            },
            {
                "start_time": 11.634090909090908,
                "end_time": 11.73409090909091,
                "pitch": 66,
                "velocity": 64,
                "duration": 0.10000000000000142,
                "tempo": 120.0
            },
            {
                "start_time": 11.752272727272727,
                "end_time": 11.868181818181817,
                "pitch": 70,
                "velocity": 64,
                "duration": 0.1159090909090903,
                "tempo": 120.0
            },
            {
                "start_time": 11.884090909090908,
                "end_time": 11.98409090909091,
                "pitch": 66,
                "velocity": 64,
                "duration": 0.10000000000000142,
                "tempo": 120.0
            },
            {
                "start_time": 12.002272727272727,
                "end_time": 12.118181818181817,
                "pitch": 63,
                "velocity": 64,
                "duration": 0.1159090909090903,
                "tempo": 120.0
            },
            {
                "start_time": 12.134090909090908,
                "end_time": 12.23409090909091,
                "pitch": 66,
                "velocity": 64,
                "duration": 0.10000000000000142,
                "tempo": 120.0
            },
            {
                "start_time": 12.252272727272727,
                "end_time": 12.368181818181817,
                "pitch": 70,
                "velocity": 64,
                "duration": 0.1159090909090903,
                "tempo": 120.0
            },
            {
                "start_time": 12.384090909090908,
                "end_time": 12.48409090909091,
                "pitch": 66,
                "velocity": 64,
                "duration": 0.10000000000000142,
                "tempo": 120.0
            },
            {
                "start_time": 12.502272727272727,
                "end_time": 12.618181818181817,
                "pitch": 63,
                "velocity": 64,
                "duration": 0.1159090909090903,
                "tempo": 120.0
            },
            {
                "start_time": 12.634090909090908,
                "end_time": 12.73409090909091,
                "pitch": 66,
                "velocity": 64,
                "duration": 0.10000000000000142,
                "tempo": 120.0
            },
            {
                "start_time": 12.752272727272727,
                "end_time": 12.868181818181817,
                "pitch": 70,
                "velocity": 64,
                "duration": 0.1159090909090903,
                "tempo": 120.0
            },
            {
                "start_time": 12.884090909090908,
                "end_time": 12.984090909090908,
                "pitch": 66,
                "velocity": 64,
                "duration": 0.09999999999999964,
                "tempo": 120.0
            },
            {
                "start_time": 13.002272727272727,
                "end_time": 13.118181818181817,
                "pitch": 63,
                "velocity": 64,
                "duration": 0.1159090909090903,
                "tempo": 120.0
            },
            {
                "start_time": 13.134090909090908,
                "end_time": 13.234090909090908,
                "pitch": 66,
                "velocity": 64,
                "duration": 0.09999999999999964,
                "tempo": 120.0
            },
            {
                "start_time": 13.252272727272727,
                "end_time": 13.368181818181817,
                "pitch": 70,
                "velocity": 64,
                "duration": 0.1159090909090903,
                "tempo": 120.0
            },
            {
                "start_time": 13.384090909090908,
                "end_time": 13.484090909090908,
                "pitch": 66,
                "velocity": 64,
                "duration": 0.09999999999999964,
                "tempo": 120.0
            },
            {
                "start_time": 13.502272727272727,
                "end_time": 13.61590909090909,
                "pitch": 63,
                "velocity": 64,
                "duration": 0.11363636363636331,
                "tempo": 120.0
            },
            {
                "start_time": 13.631818181818181,
                "end_time": 13.73181818181818,
                "pitch": 66,
                "velocity": 64,
                "duration": 0.09999999999999964,
                "tempo": 120.0
            },
            {
                "start_time": 13.747727272727271,
                "end_time": 13.861363636363636,
                "pitch": 70,
                "velocity": 64,
                "duration": 0.11363636363636509,
                "tempo": 120.0
            },
            {
                "start_time": 13.877272727272727,
                "end_time": 13.977272727272727,
                "pitch": 66,
                "velocity": 64,
                "duration": 0.09999999999999964,
                "tempo": 120.0
            },
            {
                "start_time": 13.993181818181817,
                "end_time": 14.111363636363636,
                "pitch": 63,
                "velocity": 64,
                "duration": 0.11818181818181905,
                "tempo": 120.0
            },
            {
                "start_time": 14.129545454545454,
                "end_time": 14.23181818181818,
                "pitch": 66,
                "velocity": 64,
                "duration": 0.10227272727272663,
                "tempo": 120.0
            },
            {
                "start_time": 14.247727272727271,
                "end_time": 14.368181818181817,
                "pitch": 70,
                "velocity": 64,
                "duration": 0.12045454545454604,
                "tempo": 120.0
            },
            {
                "start_time": 14.386363636363635,
                "end_time": 14.488636363636363,
                "pitch": 66,
                "velocity": 64,
                "duration": 0.1022727272727284,
                "tempo": 120.0
            },
            {
                "start_time": 14.504545454545454,
                "end_time": 14.622727272727271,
                "pitch": 63,
                "velocity": 64,
                "duration": 0.11818181818181728,
                "tempo": 120.0
            },
            {
                "start_time": 14.638636363636364,
                "end_time": 14.738636363636363,
                "pitch": 66,
                "velocity": 64,
                "duration": 0.09999999999999964,
                "tempo": 120.0
            },
            {
                "start_time": 14.754545454545454,
                "end_time": 14.872727272727271,
                "pitch": 70,
                "velocity": 64,
                "duration": 0.11818181818181728,
                "tempo": 120.0
            },
            {
                "start_time": 14.888636363636364,
                "end_time": 14.988636363636363,
                "pitch": 66,
                "velocity": 64,
                "duration": 0.09999999999999964,
                "tempo": 120.0
            },
            {
                "start_time": 15.004545454545454,
                "end_time": 15.122727272727271,
                "pitch": 63,
                "velocity": 64,
                "duration": 0.11818181818181728,
                "tempo": 120.0
            },
            {
                "start_time": 15.138636363636364,
                "end_time": 15.238636363636363,
                "pitch": 66,
                "velocity": 64,
                "duration": 0.09999999999999964,
                "tempo": 120.0
            },
            {
                "start_time": 15.254545454545454,
                "end_time": 15.372727272727271,
                "pitch": 70,
                "velocity": 64,
                "duration": 0.11818181818181728,
                "tempo": 120.0
            },
            {
                "start_time": 15.388636363636364,
                "end_time": 15.488636363636363,
                "pitch": 66,
                "velocity": 64,
                "duration": 0.09999999999999964,
                "tempo": 120.0
            },
            {
                "start_time": 15.504545454545454,
                "end_time": 15.622727272727271,
                "pitch": 63,
                "velocity": 64,
                "duration": 0.11818181818181728,
                "tempo": 120.0
            },
            {
                "start_time": 15.638636363636364,
                "end_time": 15.738636363636363,
                "pitch": 66,
                "velocity": 64,
                "duration": 0.09999999999999964,
                "tempo": 120.0
            },
            {
                "start_time": 15.754545454545454,
                "end_time": 15.872727272727271,
                "pitch": 70,
                "velocity": 64,
                "duration": 0.11818181818181728,
                "tempo": 120.0
            },
            {
                "start_time": 15.888636363636364,
                "end_time": 15.988636363636363,
                "pitch": 66,
                "velocity": 64,
                "duration": 0.09999999999999964,
                "tempo": 120.0
            },
            {
                "start_time": 16.004545454545454,
                "end_time": 16.12272727272727,
                "pitch": 63,
                "velocity": 64,
                "duration": 0.11818181818181728,
                "tempo": 120.0
            },
            {
                "start_time": 16.138636363636362,
                "end_time": 16.238636363636363,
                "pitch": 66,
                "velocity": 64,
                "duration": 0.10000000000000142,
                "tempo": 120.0
            },
            {
                "start_time": 16.254545454545454,
                "end_time": 16.37272727272727,
                "pitch": 70,
                "velocity": 64,
                "duration": 0.11818181818181728,
                "tempo": 120.0
            },
            {
                "start_time": 16.388636363636362,
                "end_time": 16.488636363636363,
                "pitch": 66,
                "velocity": 64,
                "duration": 0.10000000000000142,
                "tempo": 120.0
            },
            {
                "start_time": 16.504545454545454,
                "end_time": 16.62272727272727,
                "pitch": 63,
                "velocity": 64,
                "duration": 0.11818181818181728,
                "tempo": 120.0
            },
            {
                "start_time": 16.638636363636362,
                "end_time": 16.738636363636363,
                "pitch": 66,
                "velocity": 64,
                "duration": 0.10000000000000142,
                "tempo": 120.0
            },
            {
                "start_time": 16.754545454545454,
                "end_time": 16.87272727272727,
                "pitch": 70,
                "velocity": 64,
                "duration": 0.11818181818181728,
                "tempo": 120.0
            },
            {
                "start_time": 16.888636363636362,
                "end_time": 16.988636363636363,
                "pitch": 66,
                "velocity": 64,
                "duration": 0.10000000000000142,
                "tempo": 120.0
            },
            {
                "start_time": 17.004545454545454,
                "end_time": 17.12272727272727,
                "pitch": 63,
                "velocity": 64,
                "duration": 0.11818181818181728,
                "tempo": 120.0
            },
            {
                "start_time": 17.138636363636362,
                "end_time": 17.238636363636363,
                "pitch": 66,
                "velocity": 64,
                "duration": 0.10000000000000142,
                "tempo": 120.0
            },
            {
                "start_time": 17.254545454545454,
                "end_time": 17.37272727272727,
                "pitch": 70,
                "velocity": 64,
                "duration": 0.11818181818181728,
                "tempo": 120.0
            },
            {
                "start_time": 17.388636363636362,
                "end_time": 17.488636363636363,
                "pitch": 66,
                "velocity": 64,
                "duration": 0.10000000000000142,
                "tempo": 120.0
            },
            {
                "start_time": 17.504545454545454,
                "end_time": 17.620454545454546,
                "pitch": 63,
                "velocity": 64,
                "duration": 0.11590909090909207,
                "tempo": 120.0
            },
            {
                "start_time": 17.636363636363637,
                "end_time": 17.736363636363635,
                "pitch": 66,
                "velocity": 64,
                "duration": 0.09999999999999787,
                "tempo": 120.0
            },
            {
                "start_time": 17.752272727272725,
                "end_time": 17.86590909090909,
                "pitch": 70,
                "velocity": 64,
                "duration": 0.11363636363636331,
                "tempo": 120.0
            },
            {
                "start_time": 17.881818181818183,
                "end_time": 17.98181818181818,
                "pitch": 66,
                "velocity": 64,
                "duration": 0.09999999999999787,
                "tempo": 120.0
            },
            {
                "start_time": 17.99772727272727,
                "end_time": 18.11590909090909,
                "pitch": 63,
                "velocity": 64,
                "duration": 0.11818181818181728,
                "tempo": 120.0
            },
            {
                "start_time": 18.134090909090908,
                "end_time": 18.236363636363635,
                "pitch": 66,
                "velocity": 64,
                "duration": 0.10227272727272663,
                "tempo": 120.0
            },
            {
                "start_time": 18.252272727272725,
                "end_time": 18.37272727272727,
                "pitch": 70,
                "velocity": 64,
                "duration": 0.12045454545454604,
                "tempo": 120.0
            },
            {
                "start_time": 18.39090909090909,
                "end_time": 18.493181818181817,
                "pitch": 66,
                "velocity": 64,
                "duration": 0.10227272727272663,
                "tempo": 120.0
            },
            {
                "start_time": 18.509090909090908,
                "end_time": 18.627272727272725,
                "pitch": 63,
                "velocity": 64,
                "duration": 0.11818181818181728,
                "tempo": 120.0
            },
            {
                "start_time": 18.643181818181816,
                "end_time": 18.743181818181817,
                "pitch": 66,
                "velocity": 64,
                "duration": 0.10000000000000142,
                "tempo": 120.0
            },
            {
                "start_time": 18.759090909090908,
                "end_time": 18.877272727272725,
                "pitch": 70,
                "velocity": 64,
                "duration": 0.11818181818181728,
                "tempo": 120.0
            },
            {
                "start_time": 18.893181818181816,
                "end_time": 18.993181818181817,
                "pitch": 66,
                "velocity": 64,
                "duration": 0.10000000000000142,
                "tempo": 120.0
            },
            {
                "start_time": 19.009090909090908,
                "end_time": 19.127272727272725,
                "pitch": 63,
                "velocity": 64,
                "duration": 0.11818181818181728,
                "tempo": 120.0
            },
            {
                "start_time": 19.143181818181816,
                "end_time": 19.243181818181817,
                "pitch": 66,
                "velocity": 64,
                "duration": 0.10000000000000142,
                "tempo": 120.0
            },
            {
                "start_time": 19.259090909090908,
                "end_time": 19.377272727272725,
                "pitch": 70,
                "velocity": 64,
                "duration": 0.11818181818181728,
                "tempo": 120.0
            },
            {
                "start_time": 19.393181818181816,
                "end_time": 19.493181818181817,
                "pitch": 66,
                "velocity": 64,
                "duration": 0.10000000000000142,
                "tempo": 120.0
            },
            {
                "start_time": 19.509090909090908,
                "end_time": 19.627272727272725,
                "pitch": 63,
                "velocity": 64,
                "duration": 0.11818181818181728,
                "tempo": 120.0
            },
            {
                "start_time": 19.643181818181816,
                "end_time": 19.743181818181817,
                "pitch": 66,
                "velocity": 64,
                "duration": 0.10000000000000142,
                "tempo": 120.0
            },
            {
                "start_time": 19.759090909090908,
                "end_time": 19.877272727272725,
                "pitch": 70,
                "velocity": 64,
                "duration": 0.11818181818181728,
                "tempo": 120.0
            },
            {
                "start_time": 19.893181818181816,
                "end_time": 19.993181818181817,
                "pitch": 66,
                "velocity": 64,
                "duration": 0.10000000000000142,
                "tempo": 120.0
            },
            {
                "start_time": 20.009090909090908,
                "end_time": 20.127272727272725,
                "pitch": 63,
                "velocity": 64,
                "duration": 0.11818181818181728,
                "tempo": 120.0
            },
            {
                "start_time": 20.143181818181816,
                "end_time": 20.243181818181817,
                "pitch": 66,
                "velocity": 64,
                "duration": 0.10000000000000142,
                "tempo": 120.0
            },
            {
                "start_time": 20.259090909090908,
                "end_time": 20.377272727272725,
                "pitch": 70,
                "velocity": 64,
                "duration": 0.11818181818181728,
                "tempo": 120.0
            },
            {
                "start_time": 20.393181818181816,
                "end_time": 20.493181818181817,
                "pitch": 66,
                "velocity": 64,
                "duration": 0.10000000000000142,
                "tempo": 120.0
            },
            {
                "start_time": 20.509090909090908,
                "end_time": 20.627272727272725,
                "pitch": 63,
                "velocity": 64,
                "duration": 0.11818181818181728,
                "tempo": 120.0
            },
            {
                "start_time": 20.643181818181816,
                "end_time": 20.743181818181817,
                "pitch": 66,
                "velocity": 64,
                "duration": 0.10000000000000142,
                "tempo": 120.0
            },
            {
                "start_time": 20.759090909090908,
                "end_time": 20.877272727272725,
                "pitch": 70,
                "velocity": 64,
                "duration": 0.11818181818181728,
                "tempo": 120.0
            },
            {
                "start_time": 20.893181818181816,
                "end_time": 20.993181818181817,
                "pitch": 66,
                "velocity": 64,
                "duration": 0.10000000000000142,
                "tempo": 120.0
            },
            {
                "start_time": 21.009090909090908,
                "end_time": 21.127272727272725,
                "pitch": 63,
                "velocity": 64,
                "duration": 0.11818181818181728,
                "tempo": 120.0
            },
            {
                "start_time": 21.143181818181816,
                "end_time": 21.243181818181817,
                "pitch": 66,
                "velocity": 64,
                "duration": 0.10000000000000142,
                "tempo": 120.0
            },
            {
                "start_time": 21.259090909090908,
                "end_time": 21.377272727272725,
                "pitch": 70,
                "velocity": 64,
                "duration": 0.11818181818181728,
                "tempo": 120.0
            },
            {
                "start_time": 21.393181818181816,
                "end_time": 21.493181818181817,
                "pitch": 66,
                "velocity": 64,
                "duration": 0.10000000000000142,
                "tempo": 120.0
            },
            {
                "start_time": 21.509090909090908,
                "end_time": 21.625,
                "pitch": 63,
                "velocity": 64,
                "duration": 0.11590909090909207,
                "tempo": 120.0
            },
            {
                "start_time": 21.64090909090909,
                "end_time": 21.738636363636363,
                "pitch": 66,
                "velocity": 64,
                "duration": 0.09772727272727266,
                "tempo": 120.0
            },
            {
                "start_time": 21.75681818181818,
                "end_time": 21.870454545454546,
                "pitch": 70,
                "velocity": 64,
                "duration": 0.11363636363636687,
                "tempo": 120.0
            },
            {
                "start_time": 21.886363636363637,
                "end_time": 21.986363636363635,
                "pitch": 66,
                "velocity": 64,
                "duration": 0.09999999999999787,
                "tempo": 120.0
            },
            {
                "start_time": 22.002272727272725,
                "end_time": 22.120454545454546,
                "pitch": 63,
                "velocity": 64,
                "duration": 0.11818181818182083,
                "tempo": 120.0
            },
            {
                "start_time": 22.138636363636362,
                "end_time": 22.24090909090909,
                "pitch": 66,
                "velocity": 64,
                "duration": 0.10227272727272663,
                "tempo": 120.0
            },
            {
                "start_time": 22.25681818181818,
                "end_time": 22.377272727272725,
                "pitch": 70,
                "velocity": 64,
                "duration": 0.12045454545454604,
                "tempo": 120.0
            },
            {
                "start_time": 22.395454545454545,
                "end_time": 22.49772727272727,
                "pitch": 66,
                "velocity": 64,
                "duration": 0.10227272727272663,
                "tempo": 120.0
            },
            {
                "start_time": 22.513636363636362,
                "end_time": 22.63181818181818,
                "pitch": 63,
                "velocity": 64,
                "duration": 0.11818181818181728,
                "tempo": 120.0
            },
            {
                "start_time": 22.647727272727273,
                "end_time": 22.74772727272727,
                "pitch": 66,
                "velocity": 64,
                "duration": 0.09999999999999787,
                "tempo": 120.0
            },
            {
                "start_time": 22.763636363636362,
                "end_time": 22.88181818181818,
                "pitch": 70,
                "velocity": 64,
                "duration": 0.11818181818181728,
                "tempo": 120.0
            },
            {
                "start_time": 22.897727272727273,
                "end_time": 22.99772727272727,
                "pitch": 66,
                "velocity": 64,
                "duration": 0.09999999999999787,
                "tempo": 120.0
            },
            {
                "start_time": 23.013636363636362,
                "end_time": 23.13181818181818,
                "pitch": 63,
                "velocity": 64,
                "duration": 0.11818181818181728,
                "tempo": 120.0
            },
            {
                "start_time": 23.147727272727273,
                "end_time": 23.24772727272727,
                "pitch": 66,
                "velocity": 64,
                "duration": 0.09999999999999787,
                "tempo": 120.0
            },
            {
                "start_time": 23.263636363636362,
                "end_time": 23.38181818181818,
                "pitch": 70,
                "velocity": 64,
                "duration": 0.11818181818181728,
                "tempo": 120.0
            },
            {
                "start_time": 23.39772727272727,
                "end_time": 23.49772727272727,
                "pitch": 66,
                "velocity": 64,
                "duration": 0.10000000000000142,
                "tempo": 120.0
            },
            {
                "start_time": 23.513636363636362,
                "end_time": 23.63181818181818,
                "pitch": 63,
                "velocity": 64,
                "duration": 0.11818181818181728,
                "tempo": 120.0
            },
            {
                "start_time": 23.64772727272727,
                "end_time": 23.74772727272727,
                "pitch": 66,
                "velocity": 64,
                "duration": 0.10000000000000142,
                "tempo": 120.0
            },
            {
                "start_time": 23.763636363636362,
                "end_time": 23.88181818181818,
                "pitch": 70,
                "velocity": 64,
                "duration": 0.11818181818181728,
                "tempo": 120.0
            },
            {
                "start_time": 23.89772727272727,
                "end_time": 23.99772727272727,
                "pitch": 66,
                "velocity": 64,
                "duration": 0.10000000000000142,
                "tempo": 120.0
            },
            {
                "start_time": 24.013636363636362,
                "end_time": 24.13181818181818,
                "pitch": 68,
                "velocity": 64,
                "duration": 0.11818181818181728,
                "tempo": 120.0
            },
            {
                "start_time": 24.14772727272727,
                "end_time": 24.24772727272727,
                "pitch": 70,
                "velocity": 64,
                "duration": 0.10000000000000142,
                "tempo": 120.0
            },
            {
                "start_time": 24.263636363636362,
                "end_time": 24.38181818181818,
                "pitch": 75,
                "velocity": 64,
                "duration": 0.11818181818181728,
                "tempo": 120.0
            },
            {
                "start_time": 24.39772727272727,
                "end_time": 24.49772727272727,
                "pitch": 70,
                "velocity": 64,
                "duration": 0.10000000000000142,
                "tempo": 120.0
            },
            {
                "start_time": 24.513636363636362,
                "end_time": 24.629545454545454,
                "pitch": 68,
                "velocity": 64,
                "duration": 0.11590909090909207,
                "tempo": 120.0
            },
            {
                "start_time": 24.645454545454545,
                "end_time": 24.743181818181817,
                "pitch": 70,
                "velocity": 64,
                "duration": 0.09772727272727266,
                "tempo": 120.0
            },
            {
                "start_time": 24.761363636363637,
                "end_time": 24.875,
                "pitch": 75,
                "velocity": 64,
                "duration": 0.11363636363636331,
                "tempo": 120.0
            },
            {
                "start_time": 24.89090909090909,
                "end_time": 24.99090909090909,
                "pitch": 70,
                "velocity": 64,
                "duration": 0.09999999999999787,
                "tempo": 120.0
            },
            {
                "start_time": 25.00681818181818,
                "end_time": 25.12272727272727,
                "pitch": 68,
                "velocity": 64,
                "duration": 0.11590909090909207,
                "tempo": 120.0
            },
            {
                "start_time": 25.138636363636362,
                "end_time": 25.238636363636363,
                "pitch": 70,
                "velocity": 64,
                "duration": 0.10000000000000142,
                "tempo": 120.0
            },
            {
                "start_time": 25.25681818181818,
                "end_time": 25.37272727272727,
                "pitch": 75,
                "velocity": 64,
                "duration": 0.11590909090909207,
                "tempo": 120.0
            },
            {
                "start_time": 25.388636363636362,
                "end_time": 25.488636363636363,
                "pitch": 70,
                "velocity": 64,
                "duration": 0.10000000000000142,
                "tempo": 120.0
            },
            {
                "start_time": 25.50681818181818,
                "end_time": 25.62272727272727,
                "pitch": 68,
                "velocity": 64,
                "duration": 0.11590909090909207,
                "tempo": 120.0
            },
            {
                "start_time": 25.638636363636362,
                "end_time": 25.738636363636363,
                "pitch": 70,
                "velocity": 64,
                "duration": 0.10000000000000142,
                "tempo": 120.0
            },
            {
                "start_time": 25.75681818181818,
                "end_time": 25.87272727272727,
                "pitch": 75,
                "velocity": 64,
                "duration": 0.11590909090909207,
                "tempo": 120.0
            },
            {
                "start_time": 25.888636363636362,
                "end_time": 25.988636363636363,
                "pitch": 70,
                "velocity": 64,
                "duration": 0.10000000000000142,
                "tempo": 120.0
            },
            {
                "start_time": 26.00681818181818,
                "end_time": 26.125,
                "pitch": 68,
                "velocity": 64,
                "duration": 0.11818181818182083,
                "tempo": 120.0
            },
            {
                "start_time": 26.143181818181816,
                "end_time": 26.245454545454542,
                "pitch": 70,
                "velocity": 64,
                "duration": 0.10227272727272663,
                "tempo": 120.0
            },
            {
                "start_time": 26.261363636363637,
                "end_time": 26.38181818181818,
                "pitch": 75,
                "velocity": 64,
                "duration": 0.12045454545454248,
                "tempo": 120.0
            },
            {
                "start_time": 26.4,
                "end_time": 26.502272727272725,
                "pitch": 70,
                "velocity": 64,
                "duration": 0.10227272727272663,
                "tempo": 120.0
            },
            {
                "start_time": 26.518181818181816,
                "end_time": 26.636363636363637,
                "pitch": 68,
                "velocity": 64,
                "duration": 0.11818181818182083,
                "tempo": 120.0
            },
            {
                "start_time": 26.652272727272727,
                "end_time": 26.752272727272725,
                "pitch": 70,
                "velocity": 64,
                "duration": 0.09999999999999787,
                "tempo": 120.0
            },
            {
                "start_time": 26.768181818181816,
                "end_time": 26.886363636363637,
                "pitch": 75,
                "velocity": 64,
                "duration": 0.11818181818182083,
                "tempo": 120.0
            },
            {
                "start_time": 26.902272727272727,
                "end_time": 27.002272727272725,
                "pitch": 70,
                "velocity": 64,
                "duration": 0.09999999999999787,
                "tempo": 120.0
            },
            {
                "start_time": 27.018181818181816,
                "end_time": 27.134090909090908,
                "pitch": 68,
                "velocity": 64,
                "duration": 0.11590909090909207,
                "tempo": 120.0
            },
            {
                "start_time": 27.15,
                "end_time": 27.24772727272727,
                "pitch": 70,
                "velocity": 64,
                "duration": 0.09772727272727266,
                "tempo": 120.0
            },
            {
                "start_time": 27.26590909090909,
                "end_time": 27.379545454545454,
                "pitch": 75,
                "velocity": 64,
                "duration": 0.11363636363636331,
                "tempo": 120.0
            },
            {
                "start_time": 27.395454545454545,
                "end_time": 27.495454545454542,
                "pitch": 70,
                "velocity": 64,
                "duration": 0.09999999999999787,
                "tempo": 120.0
            },
            {
                "start_time": 27.511363636363637,
                "end_time": 27.627272727272725,
                "pitch": 68,
                "velocity": 64,
                "duration": 0.11590909090908852,
                "tempo": 120.0
            },
            {
                "start_time": 27.643181818181816,
                "end_time": 27.743181818181817,
                "pitch": 70,
                "velocity": 64,
                "duration": 0.10000000000000142,
                "tempo": 120.0
            },
            {
                "start_time": 27.761363636363637,
                "end_time": 27.877272727272725,
                "pitch": 75,
                "velocity": 64,
                "duration": 0.11590909090908852,
                "tempo": 120.0
            },
            {
                "start_time": 27.893181818181816,
                "end_time": 27.993181818181817,
                "pitch": 70,
                "velocity": 64,
                "duration": 0.10000000000000142,
                "tempo": 120.0
            },
            {
                "start_time": 28.011363636363637,
                "end_time": 28.129545454545454,
                "pitch": 68,
                "velocity": 64,
                "duration": 0.11818181818181728,
                "tempo": 120.0
            },
            {
                "start_time": 28.14772727272727,
                "end_time": 28.25,
                "pitch": 70,
                "velocity": 64,
                "duration": 0.10227272727273018,
                "tempo": 120.0
            },
            {
                "start_time": 28.26590909090909,
                "end_time": 28.386363636363637,
                "pitch": 75,
                "velocity": 64,
                "duration": 0.12045454545454604,
                "tempo": 120.0
            },
            {
                "start_time": 28.404545454545453,
                "end_time": 28.50681818181818,
                "pitch": 70,
                "velocity": 64,
                "duration": 0.10227272727272663,
                "tempo": 120.0
            },
            {
                "start_time": 28.52272727272727,
                "end_time": 28.638636363636362,
                "pitch": 68,
                "velocity": 64,
                "duration": 0.11590909090909207,
                "tempo": 120.0
            },
            {
                "start_time": 28.654545454545453,
                "end_time": 28.752272727272725,
                "pitch": 70,
                "velocity": 64,
                "duration": 0.09772727272727266,
                "tempo": 120.0
            },
            {
                "start_time": 28.770454545454545,
                "end_time": 28.884090909090908,
                "pitch": 75,
                "velocity": 64,
                "duration": 0.11363636363636331,
                "tempo": 120.0
            },
            {
                "start_time": 28.9,
                "end_time": 29.0,
                "pitch": 70,
                "velocity": 64,
                "duration": 0.10000000000000142,
                "tempo": 120.0
            },
            {
                "start_time": 29.01590909090909,
                "end_time": 29.134090909090908,
                "pitch": 68,
                "velocity": 64,
                "duration": 0.11818181818181728,
                "tempo": 120.0
            },
            {
                "start_time": 29.152272727272727,
                "end_time": 29.254545454545454,
                "pitch": 70,
                "velocity": 64,
                "duration": 0.10227272727272663,
                "tempo": 120.0
            },
            {
                "start_time": 29.270454545454545,
                "end_time": 29.39090909090909,
                "pitch": 75,
                "velocity": 64,
                "duration": 0.12045454545454604,
                "tempo": 120.0
            },
            {
                "start_time": 29.40681818181818,
                "end_time": 29.511363636363637,
                "pitch": 70,
                "velocity": 64,
                "duration": 0.10454545454545539,
                "tempo": 120.0
            },
            {
                "start_time": 29.527272727272727,
                "end_time": 29.64090909090909,
                "pitch": 68,
                "velocity": 64,
                "duration": 0.11363636363636331,
                "tempo": 120.0
            },
            {
                "start_time": 29.65681818181818,
                "end_time": 29.752272727272725,
                "pitch": 70,
                "velocity": 64,
                "duration": 0.0954545454545439,
                "tempo": 120.0
            },
            {
                "start_time": 29.770454545454545,
                "end_time": 29.88181818181818,
                "pitch": 75,
                "velocity": 64,
                "duration": 0.11136363636363455,
                "tempo": 120.0
            },
            {
                "start_time": 29.89772727272727,
                "end_time": 29.995454545454542,
                "pitch": 70,
                "velocity": 64,
                "duration": 0.09772727272727266,
                "tempo": 120.0
            },
            {
                "start_time": 30.011363636363633,
                "end_time": 30.13181818181818,
                "pitch": 68,
                "velocity": 64,
                "duration": 0.12045454545454604,
                "tempo": 120.0
            },
            {
                "start_time": 30.15,
                "end_time": 30.254545454545454,
                "pitch": 70,
                "velocity": 64,
                "duration": 0.10454545454545539,
                "tempo": 120.0
            },
            {
                "start_time": 30.270454545454545,
                "end_time": 30.393181818181816,
                "pitch": 75,
                "velocity": 64,
                "duration": 0.12272727272727124,
                "tempo": 120.0
            },
            {
                "start_time": 30.409090909090907,
                "end_time": 30.513636363636362,
                "pitch": 70,
                "velocity": 64,
                "duration": 0.10454545454545539,
                "tempo": 120.0
            },
            {
                "start_time": 30.53181818181818,
                "end_time": 30.65,
                "pitch": 68,
                "velocity": 64,
                "duration": 0.11818181818181728,
                "tempo": 120.0
            },
            {
                "start_time": 30.66590909090909,
                "end_time": 30.76590909090909,
                "pitch": 70,
                "velocity": 64,
                "duration": 0.10000000000000142,
                "tempo": 120.0
            },
            {
                "start_time": 30.78181818181818,
                "end_time": 30.9,
                "pitch": 75,
                "velocity": 64,
                "duration": 0.11818181818181728,
                "tempo": 120.0
            },
            {
                "start_time": 30.91590909090909,
                "end_time": 31.01590909090909,
                "pitch": 70,
                "velocity": 64,
                "duration": 0.10000000000000142,
                "tempo": 120.0
            },
            {
                "start_time": 31.03181818181818,
                "end_time": 31.14772727272727,
                "pitch": 68,
                "velocity": 64,
                "duration": 0.11590909090908852,
                "tempo": 120.0
            },
            {
                "start_time": 31.16363636363636,
                "end_time": 31.261363636363633,
                "pitch": 70,
                "velocity": 64,
                "duration": 0.09772727272727266,
                "tempo": 120.0
            },
            {
                "start_time": 31.279545454545453,
                "end_time": 31.393181818181816,
                "pitch": 75,
                "velocity": 64,
                "duration": 0.11363636363636331,
                "tempo": 120.0
            },
            {
                "start_time": 31.409090909090907,
                "end_time": 31.509090909090908,
                "pitch": 70,
                "velocity": 64,
                "duration": 0.10000000000000142,
                "tempo": 120.0
            },
            {
                "start_time": 31.525,
                "end_time": 31.643181818181816,
                "pitch": 68,
                "velocity": 64,
                "duration": 0.11818181818181728,
                "tempo": 120.0
            },
            {
                "start_time": 31.661363636363635,
                "end_time": 31.763636363636362,
                "pitch": 70,
                "velocity": 64,
                "duration": 0.10227272727272663,
                "tempo": 120.0
            },
            {
                "start_time": 31.779545454545453,
                "end_time": 31.9,
                "pitch": 75,
                "velocity": 64,
                "duration": 0.12045454545454604,
                "tempo": 120.0
            },
            {
                "start_time": 31.91590909090909,
                "end_time": 32.02045454545454,
                "pitch": 70,
                "velocity": 64,
                "duration": 0.10454545454545183,
                "tempo": 120.0
            },
            {
                "start_time": 32.03636363636363,
                "end_time": 32.26590909090909,
                "pitch": 53,
                "velocity": 64,
                "duration": 0.22954545454545894,
                "tempo": 120.0
            },
            {
                "start_time": 32.28181818181818,
                "end_time": 32.51136363636363,
                "pitch": 53,
                "velocity": 64,
                "duration": 0.22954545454545183,
                "tempo": 120.0
            },
            {
                "start_time": 32.529545454545456,
                "end_time": 32.763636363636365,
                "pitch": 53,
                "velocity": 64,
                "duration": 0.23409090909090935,
                "tempo": 120.0
            },
            {
                "start_time": 32.779545454545456,
                "end_time": 33.01590909090909,
                "pitch": 53,
                "velocity": 64,
                "duration": 0.23636363636363455,
                "tempo": 120.0
            },
            {
                "start_time": 33.525,
                "end_time": 33.75681818181818,
                "pitch": 53,
                "velocity": 64,
                "duration": 0.23181818181818414,
                "tempo": 120.0
            },
            {
                "start_time": 33.775,
                "end_time": 36.025,
                "pitch": 54,
                "velocity": 64,
                "duration": 2.25,
                "tempo": 120.0
            },
            {
                "start_time": 36.04090909090909,
                "end_time": 36.275,
                "pitch": 53,
                "velocity": 64,
                "duration": 0.23409090909090935,
                "tempo": 120.0
            },
            {
                "start_time": 36.29090909090909,
                "end_time": 36.525,
                "pitch": 53,
                "velocity": 64,
                "duration": 0.23409090909090935,
                "tempo": 120.0
            },
            {
                "start_time": 36.54090909090909,
                "end_time": 36.775,
                "pitch": 53,
                "velocity": 64,
                "duration": 0.23409090909090935,
                "tempo": 120.0
            },
            {
                "start_time": 36.79090909090909,
                "end_time": 37.025,
                "pitch": 53,
                "velocity": 64,
                "duration": 0.23409090909090935,
                "tempo": 120.0
            },
            {
                "start_time": 37.53409090909091,
                "end_time": 37.76590909090909,
                "pitch": 53,
                "velocity": 64,
                "duration": 0.23181818181818414,
                "tempo": 120.0
            },
            {
                "start_time": 37.78409090909091,
                "end_time": 39.018181818181816,
                "pitch": 54,
                "velocity": 64,
                "duration": 1.2340909090909093,
                "tempo": 120.0
            },
            {
                "start_time": 39.03409090909091,
                "end_time": 39.529545454545456,
                "pitch": 53,
                "velocity": 64,
                "duration": 0.4954545454545496,
                "tempo": 120.0
            },
            {
                "start_time": 39.54545454545455,
                "end_time": 40.029545454545456,
                "pitch": 58,
                "velocity": 64,
                "duration": 0.48409090909090935,
                "tempo": 120.0
            },
            {
                "start_time": 40.04772727272727,
                "end_time": 40.16136363636363,
                "pitch": 51,
                "velocity": 64,
                "duration": 0.11363636363635976,
                "tempo": 120.0
            },
            {
                "start_time": 40.17727272727272,
                "end_time": 40.275,
                "pitch": 53,
                "velocity": 64,
                "duration": 0.09772727272727622,
                "tempo": 120.0
            },
            {
                "start_time": 40.293181818181814,
                "end_time": 40.40681818181818,
                "pitch": 54,
                "velocity": 64,
                "duration": 0.11363636363636687,
                "tempo": 120.0
            },
            {
                "start_time": 40.42272727272727,
                "end_time": 40.52272727272727,
                "pitch": 51,
                "velocity": 64,
                "duration": 0.10000000000000142,
                "tempo": 120.0
            },
            {
                "start_time": 40.538636363636364,
                "end_time": 40.65681818181818,
                "pitch": 53,
                "velocity": 64,
                "duration": 0.11818181818181728,
                "tempo": 120.0
            },
            {
                "start_time": 40.675,
                "end_time": 40.777272727272724,
                "pitch": 54,
                "velocity": 64,
                "duration": 0.10227272727272663,
                "tempo": 120.0
            },
            {
                "start_time": 40.79545454545455,
                "end_time": 40.913636363636364,
                "pitch": 51,
                "velocity": 64,
                "duration": 0.11818181818181728,
                "tempo": 120.0
            },
            {
                "start_time": 40.93181818181818,
                "end_time": 41.03409090909091,
                "pitch": 53,
                "velocity": 64,
                "duration": 0.10227272727272663,
                "tempo": 120.0
            },
            {
                "start_time": 41.05,
                "end_time": 41.16590909090909,
                "pitch": 54,
                "velocity": 64,
                "duration": 0.11590909090909207,
                "tempo": 120.0
            },
            {
                "start_time": 41.18181818181818,
                "end_time": 41.27954545454545,
                "pitch": 51,
                "velocity": 64,
                "duration": 0.09772727272726911,
                "tempo": 120.0
            },
            {
                "start_time": 41.29772727272727,
                "end_time": 41.41136363636363,
                "pitch": 53,
                "velocity": 64,
                "duration": 0.11363636363635976,
                "tempo": 120.0
            },
            {
                "start_time": 41.42727272727272,
                "end_time": 41.527272727272724,
                "pitch": 54,
                "velocity": 64,
                "duration": 0.10000000000000142,
                "tempo": 120.0
            },
            {
                "start_time": 41.543181818181814,
                "end_time": 41.65909090909091,
                "pitch": 51,
                "velocity": 64,
                "duration": 0.11590909090909207,
                "tempo": 120.0
            },
            {
                "start_time": 41.675,
                "end_time": 41.775,
                "pitch": 53,
                "velocity": 64,
                "duration": 0.10000000000000142,
                "tempo": 120.0
            },
            {
                "start_time": 41.793181818181814,
                "end_time": 41.90909090909091,
                "pitch": 54,
                "velocity": 64,
                "duration": 0.11590909090909207,
                "tempo": 120.0
            },
            {
                "start_time": 41.925,
                "end_time": 42.025,
                "pitch": 51,
                "velocity": 64,
                "duration": 0.10000000000000142,
                "tempo": 120.0
            },
            {
                "start_time": 42.043181818181814,
                "end_time": 42.15909090909091,
                "pitch": 53,
                "velocity": 64,
                "duration": 0.11590909090909207,
                "tempo": 120.0
            },
            {
                "start_time": 42.175,
                "end_time": 42.275,
                "pitch": 54,
                "velocity": 64,
                "duration": 0.10000000000000142,
                "tempo": 120.0
            },
            {
                "start_time": 42.293181818181814,
                "end_time": 42.40909090909091,
                "pitch": 56,
                "velocity": 64,
                "duration": 0.11590909090909207,
                "tempo": 120.0
            },
            {
                "start_time": 42.425,
                "end_time": 42.525,
                "pitch": 53,
                "velocity": 64,
                "duration": 0.10000000000000142,
                "tempo": 120.0
            },
            {
                "start_time": 42.543181818181814,
                "end_time": 42.65909090909091,
                "pitch": 54,
                "velocity": 64,
                "duration": 0.11590909090909207,
                "tempo": 120.0
            },
            {
                "start_time": 42.675,
                "end_time": 42.775,
                "pitch": 56,
                "velocity": 64,
                "duration": 0.10000000000000142,
                "tempo": 120.0
            },
            {
                "start_time": 42.793181818181814,
                "end_time": 42.90909090909091,
                "pitch": 53,
                "velocity": 64,
                "duration": 0.11590909090909207,
                "tempo": 120.0
            },
            {
                "start_time": 42.925,
                "end_time": 43.025,
                "pitch": 54,
                "velocity": 64,
                "duration": 0.10000000000000142,
                "tempo": 120.0
            },
            {
                "start_time": 43.043181818181814,
                "end_time": 43.15909090909091,
                "pitch": 56,
                "velocity": 64,
                "duration": 0.11590909090909207,
                "tempo": 120.0
            },
            {
                "start_time": 43.175,
                "end_time": 43.275,
                "pitch": 53,
                "velocity": 64,
                "duration": 0.10000000000000142,
                "tempo": 120.0
            },
            {
                "start_time": 43.293181818181814,
                "end_time": 43.40909090909091,
                "pitch": 54,
                "velocity": 64,
                "duration": 0.11590909090909207,
                "tempo": 120.0
            },
            {
                "start_time": 43.425,
                "end_time": 43.525,
                "pitch": 56,
                "velocity": 64,
                "duration": 0.10000000000000142,
                "tempo": 120.0
            },
            {
                "start_time": 43.543181818181814,
                "end_time": 43.65909090909091,
                "pitch": 53,
                "velocity": 64,
                "duration": 0.11590909090909207,
                "tempo": 120.0
            },
            {
                "start_time": 43.675,
                "end_time": 43.775,
                "pitch": 54,
                "velocity": 64,
                "duration": 0.10000000000000142,
                "tempo": 120.0
            },
            {
                "start_time": 43.793181818181814,
                "end_time": 43.90909090909091,
                "pitch": 56,
                "velocity": 64,
                "duration": 0.11590909090909207,
                "tempo": 120.0
            },
            {
                "start_time": 43.925,
                "end_time": 44.025,
                "pitch": 53,
                "velocity": 64,
                "duration": 0.10000000000000142,
                "tempo": 120.0
            },
            {
                "start_time": 44.043181818181814,
                "end_time": 44.15909090909091,
                "pitch": 54,
                "velocity": 64,
                "duration": 0.11590909090909207,
                "tempo": 120.0
            },
            {
                "start_time": 44.175,
                "end_time": 44.275,
                "pitch": 56,
                "velocity": 64,
                "duration": 0.10000000000000142,
                "tempo": 120.0
            },
            {
                "start_time": 44.293181818181814,
                "end_time": 44.40909090909091,
                "pitch": 58,
                "velocity": 64,
                "duration": 0.11590909090909207,
                "tempo": 120.0
            },
            {
                "start_time": 44.425,
                "end_time": 44.525,
                "pitch": 54,
                "velocity": 64,
                "duration": 0.10000000000000142,
                "tempo": 120.0
            },
            {
                "start_time": 44.543181818181814,
                "end_time": 44.66136363636363,
                "pitch": 56,
                "velocity": 64,
                "duration": 0.11818181818181728,
                "tempo": 120.0
            },
            {
                "start_time": 44.679545454545455,
                "end_time": 44.78181818181818,
                "pitch": 58,
                "velocity": 64,
                "duration": 0.10227272727272663,
                "tempo": 120.0
            },
            {
                "start_time": 44.8,
                "end_time": 44.918181818181814,
                "pitch": 56,
                "velocity": 64,
                "duration": 0.11818181818181728,
                "tempo": 120.0
            },
            {
                "start_time": 44.93636363636364,
                "end_time": 45.038636363636364,
                "pitch": 58,
                "velocity": 64,
                "duration": 0.10227272727272663,
                "tempo": 120.0
            },
            {
                "start_time": 45.054545454545455,
                "end_time": 45.17045454545455,
                "pitch": 56,
                "velocity": 64,
                "duration": 0.11590909090909207,
                "tempo": 120.0
            },
            {
                "start_time": 45.18636363636364,
                "end_time": 45.28409090909091,
                "pitch": 58,
                "velocity": 64,
                "duration": 0.09772727272726911,
                "tempo": 120.0
            },
            {
                "start_time": 45.3,
                "end_time": 45.41590909090909,
                "pitch": 59,
                "velocity": 64,
                "duration": 0.11590909090909207,
                "tempo": 120.0
            },
            {
                "start_time": 45.43181818181818,
                "end_time": 45.52954545454545,
                "pitch": 56,
                "velocity": 64,
                "duration": 0.09772727272726911,
                "tempo": 120.0
            },
            {
                "start_time": 45.54772727272727,
                "end_time": 45.663636363636364,
                "pitch": 58,
                "velocity": 64,
                "duration": 0.11590909090909207,
                "tempo": 120.0
            },
            {
                "start_time": 45.679545454545455,
                "end_time": 45.77954545454545,
                "pitch": 59,
                "velocity": 64,
                "duration": 0.09999999999999432,
                "tempo": 120.0
            },
            {
                "start_time": 45.79772727272727,
                "end_time": 45.913636363636364,
                "pitch": 56,
                "velocity": 64,
                "duration": 0.11590909090909207,
                "tempo": 120.0
            },
            {
                "start_time": 45.929545454545455,
                "end_time": 46.02954545454545,
                "pitch": 58,
                "velocity": 64,
                "duration": 0.09999999999999432,
                "tempo": 120.0
            },
            {
                "start_time": 46.04772727272727,
                "end_time": 46.163636363636364,
                "pitch": 58,
                "velocity": 64,
                "duration": 0.11590909090909207,
                "tempo": 120.0
            },
            {
                "start_time": 46.179545454545455,
                "end_time": 46.27954545454545,
                "pitch": 58,
                "velocity": 64,
                "duration": 0.09999999999999432,
                "tempo": 120.0
            },
            {
                "start_time": 46.29772727272727,
                "end_time": 47.02954545454545,
                "pitch": 58,
                "velocity": 64,
                "duration": 0.731818181818177,
                "tempo": 120.0
            },
            {
                "start_time": 47.04772727272727,
                "end_time": 47.163636363636364,
                "pitch": 70,
                "velocity": 64,
                "duration": 0.11590909090909207,
                "tempo": 120.0
            },
            {
                "start_time": 47.179545454545455,
                "end_time": 47.27954545454545,
                "pitch": 70,
                "velocity": 64,
                "duration": 0.09999999999999432,
                "tempo": 120.0
            },
            {
                "start_time": 47.29772727272727,
                "end_time": 47.413636363636364,
                "pitch": 65,
                "velocity": 64,
                "duration": 0.11590909090909207,
                "tempo": 120.0
            },
            {
                "start_time": 47.429545454545455,
                "end_time": 47.52954545454545,
                "pitch": 65,
                "velocity": 64,
                "duration": 0.09999999999999432,
                "tempo": 120.0
            },
            {
                "start_time": 47.54772727272727,
                "end_time": 47.66590909090909,
                "pitch": 62,
                "velocity": 64,
                "duration": 0.11818181818181728,
                "tempo": 120.0
            },
            {
                "start_time": 47.684090909090905,
                "end_time": 47.78636363636363,
                "pitch": 62,
                "velocity": 64,
                "duration": 0.10227272727272663,
                "tempo": 120.0
            },
            {
                "start_time": 47.80227272727272,
                "end_time": 47.92272727272727,
                "pitch": 58,
                "velocity": 64,
                "duration": 0.12045454545454959,
                "tempo": 120.0
            },
            {
                "start_time": 47.94090909090909,
                "end_time": 48.043181818181814,
                "pitch": 58,
                "velocity": 64,
                "duration": 0.10227272727272663,
                "tempo": 120.0
            },
            {
                "start_time": 48.059090909090905,
                "end_time": 48.175,
                "pitch": 51,
                "velocity": 64,
                "duration": 0.11590909090909207,
                "tempo": 120.0
            },
            {
                "start_time": 48.19090909090909,
                "end_time": 48.288636363636364,
                "pitch": 53,
                "velocity": 64,
                "duration": 0.09772727272727622,
                "tempo": 120.0
            },
            {
                "start_time": 48.304545454545455,
                "end_time": 48.42045454545454,
                "pitch": 54,
                "velocity": 64,
                "duration": 0.11590909090908497,
                "tempo": 120.0
            },
            {
                "start_time": 48.43636363636364,
                "end_time": 48.53409090909091,
                "pitch": 51,
                "velocity": 64,
                "duration": 0.09772727272726911,
                "tempo": 120.0
            },
            {
                "start_time": 48.55227272727272,
                "end_time": 48.67045454545454,
                "pitch": 53,
                "velocity": 64,
                "duration": 0.11818181818181728,
                "tempo": 120.0
            },
            {
                "start_time": 48.68863636363636,
                "end_time": 48.79090909090909,
                "pitch": 54,
                "velocity": 64,
                "duration": 0.10227272727272663,
                "tempo": 120.0
            },
            {
                "start_time": 48.80681818181818,
                "end_time": 48.92727272727272,
                "pitch": 51,
                "velocity": 64,
                "duration": 0.12045454545454248,
                "tempo": 120.0
            },
            {
                "start_time": 48.94318181818181,
                "end_time": 49.04772727272727,
                "pitch": 53,
                "velocity": 64,
                "duration": 0.10454545454545894,
                "tempo": 120.0
            },
            {
                "start_time": 49.06363636363636,
                "end_time": 49.179545454545455,
                "pitch": 54,
                "velocity": 64,
                "duration": 0.11590909090909207,
                "tempo": 120.0
            },
            {
                "start_time": 49.195454545454545,
                "end_time": 49.293181818181814,
                "pitch": 51,
                "velocity": 64,
                "duration": 0.09772727272726911,
                "tempo": 120.0
            },
            {
                "start_time": 49.309090909090905,
                "end_time": 49.425,
                "pitch": 53,
                "velocity": 64,
                "duration": 0.11590909090909207,
                "tempo": 120.0
            },
            {
                "start_time": 49.44090909090909,
                "end_time": 49.538636363636364,
                "pitch": 54,
                "velocity": 64,
                "duration": 0.09772727272727622,
                "tempo": 120.0
            },
            {
                "start_time": 49.554545454545455,
                "end_time": 49.67272727272727,
                "pitch": 51,
                "velocity": 64,
                "duration": 0.11818181818181728,
                "tempo": 120.0
            },
            {
                "start_time": 49.68863636363636,
                "end_time": 49.788636363636364,
                "pitch": 53,
                "velocity": 64,
                "duration": 0.10000000000000142,
                "tempo": 120.0
            },
            {
                "start_time": 49.804545454545455,
                "end_time": 49.92272727272727,
                "pitch": 54,
                "velocity": 64,
                "duration": 0.11818181818181728,
                "tempo": 120.0
            },
            {
                "start_time": 49.93863636363636,
                "end_time": 50.038636363636364,
                "pitch": 51,
                "velocity": 64,
                "duration": 0.10000000000000142,
                "tempo": 120.0
            },
            {
                "start_time": 50.054545454545455,
                "end_time": 50.17272727272727,
                "pitch": 53,
                "velocity": 64,
                "duration": 0.11818181818181728,
                "tempo": 120.0
            },
            {
                "start_time": 50.18863636363636,
                "end_time": 50.288636363636364,
                "pitch": 54,
                "velocity": 64,
                "duration": 0.10000000000000142,
                "tempo": 120.0
            },
            {
                "start_time": 50.304545454545455,
                "end_time": 50.42272727272727,
                "pitch": 56,
                "velocity": 64,
                "duration": 0.11818181818181728,
                "tempo": 120.0
            },
            {
                "start_time": 50.43863636363636,
                "end_time": 50.538636363636364,
                "pitch": 53,
                "velocity": 64,
                "duration": 0.10000000000000142,
                "tempo": 120.0
            },
            {
                "start_time": 50.554545454545455,
                "end_time": 50.675,
                "pitch": 54,
                "velocity": 64,
                "duration": 0.12045454545454248,
                "tempo": 120.0
            },
            {
                "start_time": 50.69318181818181,
                "end_time": 50.79545454545454,
                "pitch": 56,
                "velocity": 64,
                "duration": 0.10227272727272663,
                "tempo": 120.0
            },
            {
                "start_time": 50.81136363636364,
                "end_time": 50.93181818181818,
                "pitch": 53,
                "velocity": 64,
                "duration": 0.12045454545454248,
                "tempo": 120.0
            },
            {
                "start_time": 50.94772727272727,
                "end_time": 51.05227272727272,
                "pitch": 54,
                "velocity": 64,
                "duration": 0.10454545454545183,
                "tempo": 120.0
            },
            {
                "start_time": 51.06818181818181,
                "end_time": 51.18181818181818,
                "pitch": 56,
                "velocity": 64,
                "duration": 0.11363636363636687,
                "tempo": 120.0
            },
            {
                "start_time": 51.199999999999996,
                "end_time": 51.29772727272727,
                "pitch": 53,
                "velocity": 64,
                "duration": 0.09772727272727622,
                "tempo": 120.0
            },
            {
                "start_time": 51.31363636363636,
                "end_time": 51.429545454545455,
                "pitch": 54,
                "velocity": 64,
                "duration": 0.11590909090909207,
                "tempo": 120.0
            },
            {
                "start_time": 51.445454545454545,
                "end_time": 51.543181818181814,
                "pitch": 56,
                "velocity": 64,
                "duration": 0.09772727272726911,
                "tempo": 120.0
            },
            {
                "start_time": 51.559090909090905,
                "end_time": 51.67727272727272,
                "pitch": 53,
                "velocity": 64,
                "duration": 0.11818181818181728,
                "tempo": 120.0
            },
            {
                "start_time": 51.69318181818181,
                "end_time": 51.793181818181814,
                "pitch": 54,
                "velocity": 64,
                "duration": 0.10000000000000142,
                "tempo": 120.0
            },
            {
                "start_time": 51.809090909090905,
                "end_time": 51.92727272727272,
                "pitch": 56,
                "velocity": 64,
                "duration": 0.11818181818181728,
                "tempo": 120.0
            },
            {
                "start_time": 51.94318181818181,
                "end_time": 52.043181818181814,
                "pitch": 53,
                "velocity": 64,
                "duration": 0.10000000000000142,
                "tempo": 120.0
            },
            {
                "start_time": 52.059090909090905,
                "end_time": 52.17727272727272,
                "pitch": 54,
                "velocity": 64,
                "duration": 0.11818181818181728,
                "tempo": 120.0
            },
            {
                "start_time": 52.19318181818181,
                "end_time": 52.293181818181814,
                "pitch": 56,
                "velocity": 64,
                "duration": 0.10000000000000142,
                "tempo": 120.0
            },
            {
                "start_time": 52.309090909090905,
                "end_time": 52.42727272727272,
                "pitch": 58,
                "velocity": 64,
                "duration": 0.11818181818181728,
                "tempo": 120.0
            },
            {
                "start_time": 52.44318181818181,
                "end_time": 52.543181818181814,
                "pitch": 54,
                "velocity": 64,
                "duration": 0.10000000000000142,
                "tempo": 120.0
            },
            {
                "start_time": 52.559090909090905,
                "end_time": 52.679545454545455,
                "pitch": 56,
                "velocity": 64,
                "duration": 0.12045454545454959,
                "tempo": 120.0
            },
            {
                "start_time": 52.695454545454545,
                "end_time": 52.8,
                "pitch": 58,
                "velocity": 64,
                "duration": 0.10454545454545183,
                "tempo": 120.0
            },
            {
                "start_time": 52.81590909090909,
                "end_time": 52.93636363636363,
                "pitch": 56,
                "velocity": 64,
                "duration": 0.12045454545454248,
                "tempo": 120.0
            },
            {
                "start_time": 52.95227272727273,
                "end_time": 53.054545454545455,
                "pitch": 58,
                "velocity": 64,
                "duration": 0.10227272727272663,
                "tempo": 120.0
            },
            {
                "start_time": 53.07272727272727,
                "end_time": 53.18636363636363,
                "pitch": 56,
                "velocity": 64,
                "duration": 0.11363636363635976,
                "tempo": 120.0
            },
            {
                "start_time": 53.20454545454545,
                "end_time": 53.30227272727272,
                "pitch": 58,
                "velocity": 64,
                "duration": 0.09772727272726911,
                "tempo": 120.0
            },
            {
                "start_time": 53.31818181818181,
                "end_time": 53.434090909090905,
                "pitch": 59,
                "velocity": 64,
                "duration": 0.11590909090909207,
                "tempo": 120.0
            },
            {
                "start_time": 53.449999999999996,
                "end_time": 53.54772727272727,
                "pitch": 56,
                "velocity": 64,
                "duration": 0.09772727272727622,
                "tempo": 120.0
            },
            {
                "start_time": 53.56363636363636,
                "end_time": 53.684090909090905,
                "pitch": 58,
                "velocity": 64,
                "duration": 0.12045454545454248,
                "tempo": 120.0
            },
            {
                "start_time": 53.699999999999996,
                "end_time": 53.80227272727272,
                "pitch": 59,
                "velocity": 64,
                "duration": 0.10227272727272663,
                "tempo": 120.0
            },
            {
                "start_time": 53.820454545454545,
                "end_time": 53.94090909090909,
                "pitch": 56,
                "velocity": 64,
                "duration": 0.12045454545454248,
                "tempo": 120.0
            },
            {
                "start_time": 53.95681818181818,
                "end_time": 54.059090909090905,
                "pitch": 58,
                "velocity": 64,
                "duration": 0.10227272727272663,
                "tempo": 120.0
            },
            {
                "start_time": 54.07727272727273,
                "end_time": 56.05681818181818,
                "pitch": 58,
                "velocity": 64,
                "duration": 1.9795454545454518,
                "tempo": 120.0
            },
            {
                "start_time": 56.07272727272727,
                "end_time": 56.15681818181818,
                "pitch": 63,
                "velocity": 64,
                "duration": 0.08409090909091077,
                "tempo": 120.0
            }
        ]
    }
}