{
    "track_id": "Ys (FM) - 14 - Final Battle",
    "mood": "angry",
    "instruments": {
        "Trumpet": [
            {
                "start_time": 0.013636363636363636,
                "end_time": 0.08409090909090909,
                "pitch": 66,
                "velocity": 51,
                "duration": 0.07045454545454545,
                "tempo": 120.0
            },
            {
                "start_time": 0.08409090909090909,
                "end_time": 0.28409090909090906,
                "pitch": 63,
                "velocity": 51,
                "duration": 0.19999999999999996,
                "tempo": 120.0
            },
            {
                "start_time": 0.28409090909090906,
                "end_time": 0.7681818181818182,
                "pitch": 63,
                "velocity": 51,
                "duration": 0.4840909090909091,
                "tempo": 120.0
            },
            {
                "start_time": 0.7681818181818182,
                "end_time": 1.6977272727272728,
                "pitch": 70,
                "velocity": 51,
                "duration": 0.9295454545454546,
                "tempo": 120.0
            },
            {
                "start_time": 1.6977272727272728,
                "end_time": 1.9318181818181817,
                "pitch": 66,
                "velocity": 51,
                "duration": 0.2340909090909089,
                "tempo": 120.0
            },
            {
                "start_time": 1.9318181818181817,
                "end_time": 2.631818181818182,
                "pitch": 63,
                "velocity": 51,
                "duration": 0.7000000000000002,
                "tempo": 120.0
            },
            {
                "start_time": 2.631818181818182,
                "end_time": 3.561363636363636,
                "pitch": 70,
                "velocity": 51,
                "duration": 0.9295454545454542,
                "tempo": 120.0
            },
            {
                "start_time": 3.561363636363636,
                "end_time": 3.7977272727272724,
                "pitch": 66,
                "velocity": 51,
                "duration": 0.23636363636363633,
                "tempo": 120.0
            },
            {
                "start_time": 3.7977272727272724,
                "end_time": 5.654545454545454,
                "pitch": 63,
                "velocity": 51,
                "duration": 1.856818181818182,
                "tempo": 120.0
            },
            {
                "start_time": 5.654545454545454,
                "end_time": 7.515909090909091,
                "pitch": 66,
                "velocity": 51,
                "duration": 1.8613636363636363,
                "tempo": 120.0
            },
            {
                "start_time": 7.515909090909091,
                "end_time": 13.318181818181818,
                "pitch": 63,
                "velocity": 51,
                "duration": 5.802272727272728,
                "tempo": 120.0
            }
        ],
        "Acoustic Bass": [
            {
                "start_time": 0.0,
                "end_time": 0.07045454545454545,
                "pitch": 39,
                "velocity": 80,
                "duration": 0.07045454545454545,
                "tempo": 120.0
            },
            {
                "start_time": 0.08409090909090909,
                "end_time": 0.17045454545454544,
                "pitch": 39,
                "velocity": 80,
                "duration": 0.08636363636363635,
                "tempo": 120.0
            },
            {
                "start_time": 0.18409090909090908,
                "end_time": 0.28409090909090906,
                "pitch": 39,
                "velocity": 80,
                "duration": 0.09999999999999998,
                "tempo": 120.0
            },
            {
                "start_time": 0.3,
                "end_time": 0.4022727272727272,
                "pitch": 39,
                "velocity": 80,
                "duration": 0.10227272727272724,
                "tempo": 120.0
            },
            {
                "start_time": 0.41818181818181815,
                "end_time": 0.5181818181818182,
                "pitch": 39,
                "velocity": 80,
                "duration": 0.10000000000000003,
                "tempo": 120.0
            },
            {
                "start_time": 0.5363636363636364,
                "end_time": 0.6363636363636364,
                "pitch": 39,
                "velocity": 80,
                "duration": 0.09999999999999998,
                "tempo": 120.0
            },
            {
                "start_time": 0.6522727272727272,
                "end_time": 0.75,
                "pitch": 39,
                "velocity": 80,
                "duration": 0.09772727272727277,
                "tempo": 120.0
            },
            {
                "start_time": 0.7681818181818182,
                "end_time": 0.8659090909090909,
                "pitch": 39,
                "velocity": 80,
                "duration": 0.09772727272727266,
                "tempo": 120.0
            },
            {
                "start_time": 0.8818181818181817,
                "end_time": 0.9795454545454545,
                "pitch": 39,
                "velocity": 80,
                "duration": 0.09772727272727277,
                "tempo": 120.0
            },
            {
                "start_time": 0.9954545454545454,
                "end_time": 1.0954545454545455,
                "pitch": 39,
                "velocity": 80,
                "duration": 0.10000000000000009,
                "tempo": 120.0
            },
            {
                "start_time": 1.1113636363636363,
                "end_time": 1.2113636363636362,
                "pitch": 39,
                "velocity": 80,
                "duration": 0.09999999999999987,
                "tempo": 120.0
            },
            {
                "start_time": 1.2272727272727273,
                "end_time": 1.3295454545454546,
                "pitch": 39,
                "velocity": 80,
                "duration": 0.10227272727272729,
                "tempo": 120.0
            },
            {
                "start_time": 1.3454545454545455,
                "end_time": 1.4454545454545453,
                "pitch": 39,
                "velocity": 80,
                "duration": 0.09999999999999987,
                "tempo": 120.0
            },
            {
                "start_time": 1.4636363636363636,
                "end_time": 1.5636363636363635,
                "pitch": 39,
                "velocity": 80,
                "duration": 0.09999999999999987,
                "tempo": 120.0
            },
            {
                "start_time": 1.5795454545454544,
                "end_time": 1.6795454545454545,
                "pitch": 39,
                "velocity": 80,
                "duration": 0.10000000000000009,
                "tempo": 120.0
            },
            {
                "start_time": 1.6977272727272728,
                "end_time": 1.7977272727272726,
                "pitch": 39,
                "velocity": 80,
                "duration": 0.09999999999999987,
                "tempo": 120.0
            },
            {
                "start_time": 1.8136363636363635,
                "end_time": 1.9159090909090908,
                "pitch": 39,
                "velocity": 80,
                "duration": 0.10227272727272729,
                "tempo": 120.0
            },
            {
                "start_time": 1.9318181818181817,
                "end_time": 2.0318181818181817,
                "pitch": 39,
                "velocity": 80,
                "duration": 0.10000000000000009,
                "tempo": 120.0
            },
            {
                "start_time": 2.047727272727273,
                "end_time": 2.15,
                "pitch": 39,
                "velocity": 80,
                "duration": 0.10227272727272707,
                "tempo": 120.0
            },
            {
                "start_time": 2.165909090909091,
                "end_time": 2.2659090909090907,
                "pitch": 39,
                "velocity": 80,
                "duration": 0.09999999999999964,
                "tempo": 120.0
            },
            {
                "start_time": 2.284090909090909,
                "end_time": 2.384090909090909,
                "pitch": 39,
                "velocity": 80,
                "duration": 0.09999999999999964,
                "tempo": 120.0
            },
            {
                "start_time": 2.4,
                "end_time": 2.5,
                "pitch": 39,
                "velocity": 80,
                "duration": 0.10000000000000009,
                "tempo": 120.0
            },
            {
                "start_time": 2.518181818181818,
                "end_time": 2.6159090909090907,
                "pitch": 39,
                "velocity": 80,
                "duration": 0.09772727272727266,
                "tempo": 120.0
            },
            {
                "start_time": 2.631818181818182,
                "end_time": 2.7295454545454545,
                "pitch": 39,
                "velocity": 80,
                "duration": 0.09772727272727266,
                "tempo": 120.0
            },
            {
                "start_time": 2.7477272727272726,
                "end_time": 2.8454545454545452,
                "pitch": 39,
                "velocity": 80,
                "duration": 0.09772727272727266,
                "tempo": 120.0
            },
            {
                "start_time": 2.8613636363636363,
                "end_time": 2.959090909090909,
                "pitch": 39,
                "velocity": 80,
                "duration": 0.09772727272727266,
                "tempo": 120.0
            },
            {
                "start_time": 2.9749999999999996,
                "end_time": 3.077272727272727,
                "pitch": 39,
                "velocity": 80,
                "duration": 0.10227272727272751,
                "tempo": 120.0
            },
            {
                "start_time": 3.093181818181818,
                "end_time": 3.193181818181818,
                "pitch": 39,
                "velocity": 80,
                "duration": 0.10000000000000009,
                "tempo": 120.0
            },
            {
                "start_time": 3.2113636363636364,
                "end_time": 3.311363636363636,
                "pitch": 39,
                "velocity": 80,
                "duration": 0.09999999999999964,
                "tempo": 120.0
            },
            {
                "start_time": 3.327272727272727,
                "end_time": 3.4272727272727272,
                "pitch": 39,
                "velocity": 80,
                "duration": 0.10000000000000009,
                "tempo": 120.0
            },
            {
                "start_time": 3.4454545454545453,
                "end_time": 3.5454545454545454,
                "pitch": 39,
                "velocity": 80,
                "duration": 0.10000000000000009,
                "tempo": 120.0
            },
            {
                "start_time": 3.561363636363636,
                "end_time": 3.6636363636363636,
                "pitch": 39,
                "velocity": 80,
                "duration": 0.10227272727272751,
                "tempo": 120.0
            },
            {
                "start_time": 3.6795454545454542,
                "end_time": 3.7795454545454543,
                "pitch": 35,
                "velocity": 80,
                "duration": 0.10000000000000009,
                "tempo": 120.0
            },
            {
                "start_time": 3.7977272727272724,
                "end_time": 3.8977272727272725,
                "pitch": 35,
                "velocity": 80,
                "duration": 0.10000000000000009,
                "tempo": 120.0
            },
            {
                "start_time": 3.9136363636363636,
                "end_time": 4.011363636363636,
                "pitch": 35,
                "velocity": 80,
                "duration": 0.09772727272727222,
                "tempo": 120.0
            },
            {
                "start_time": 4.029545454545454,
                "end_time": 4.127272727272727,
                "pitch": 35,
                "velocity": 80,
                "duration": 0.09772727272727266,
                "tempo": 120.0
            },
            {
                "start_time": 4.143181818181818,
                "end_time": 4.24090909090909,
                "pitch": 35,
                "velocity": 80,
                "duration": 0.09772727272727266,
                "tempo": 120.0
            },
            {
                "start_time": 4.256818181818182,
                "end_time": 4.3568181818181815,
                "pitch": 35,
                "velocity": 80,
                "duration": 0.09999999999999964,
                "tempo": 120.0
            },
            {
                "start_time": 4.372727272727272,
                "end_time": 4.472727272727273,
                "pitch": 35,
                "velocity": 80,
                "duration": 0.10000000000000053,
                "tempo": 120.0
            },
            {
                "start_time": 4.488636363636363,
                "end_time": 4.590909090909091,
                "pitch": 35,
                "velocity": 80,
                "duration": 0.10227272727272751,
                "tempo": 120.0
            },
            {
                "start_time": 4.6068181818181815,
                "end_time": 4.706818181818182,
                "pitch": 37,
                "velocity": 80,
                "duration": 0.10000000000000053,
                "tempo": 120.0
            },
            {
                "start_time": 4.725,
                "end_time": 4.825,
                "pitch": 37,
                "velocity": 80,
                "duration": 0.10000000000000053,
                "tempo": 120.0
            },
            {
                "start_time": 4.840909090909091,
                "end_time": 4.9409090909090905,
                "pitch": 37,
                "velocity": 80,
                "duration": 0.09999999999999964,
                "tempo": 120.0
            },
            {
                "start_time": 4.959090909090909,
                "end_time": 5.059090909090909,
                "pitch": 37,
                "velocity": 80,
                "duration": 0.09999999999999964,
                "tempo": 120.0
            },
            {
                "start_time": 5.075,
                "end_time": 5.177272727272727,
                "pitch": 37,
                "velocity": 80,
                "duration": 0.10227272727272663,
                "tempo": 120.0
            },
            {
                "start_time": 5.193181818181818,
                "end_time": 5.293181818181818,
                "pitch": 37,
                "velocity": 80,
                "duration": 0.09999999999999964,
                "tempo": 120.0
            },
            {
                "start_time": 5.309090909090909,
                "end_time": 5.409090909090909,
                "pitch": 37,
                "velocity": 80,
                "duration": 0.10000000000000053,
                "tempo": 120.0
            },
            {
                "start_time": 5.425,
                "end_time": 5.5227272727272725,
                "pitch": 37,
                "velocity": 80,
                "duration": 0.09772727272727266,
                "tempo": 120.0
            },
            {
                "start_time": 5.538636363636363,
                "end_time": 5.636363636363636,
                "pitch": 39,
                "velocity": 80,
                "duration": 0.09772727272727266,
                "tempo": 120.0
            },
            {
                "start_time": 5.654545454545454,
                "end_time": 5.752272727272727,
                "pitch": 39,
                "velocity": 80,
                "duration": 0.09772727272727266,
                "tempo": 120.0
            },
            {
                "start_time": 5.768181818181818,
                "end_time": 5.868181818181818,
                "pitch": 39,
                "velocity": 80,
                "duration": 0.10000000000000053,
                "tempo": 120.0
            },
            {
                "start_time": 5.886363636363636,
                "end_time": 5.986363636363636,
                "pitch": 39,
                "velocity": 80,
                "duration": 0.10000000000000053,
                "tempo": 120.0
            },
            {
                "start_time": 6.002272727272727,
                "end_time": 6.102272727272727,
                "pitch": 39,
                "velocity": 80,
                "duration": 0.09999999999999964,
                "tempo": 120.0
            },
            {
                "start_time": 6.120454545454545,
                "end_time": 6.220454545454545,
                "pitch": 39,
                "velocity": 80,
                "duration": 0.09999999999999964,
                "tempo": 120.0
            },
            {
                "start_time": 6.236363636363636,
                "end_time": 6.336363636363636,
                "pitch": 39,
                "velocity": 80,
                "duration": 0.09999999999999964,
                "tempo": 120.0
            },
            {
                "start_time": 6.352272727272727,
                "end_time": 6.449999999999999,
                "pitch": 39,
                "velocity": 80,
                "duration": 0.09772727272727266,
                "tempo": 120.0
            },
            {
                "start_time": 6.465909090909091,
                "end_time": 6.5636363636363635,
                "pitch": 39,
                "velocity": 80,
                "duration": 0.09772727272727266,
                "tempo": 120.0
            },
            {
                "start_time": 6.581818181818181,
                "end_time": 6.679545454545454,
                "pitch": 39,
                "velocity": 80,
                "duration": 0.09772727272727266,
                "tempo": 120.0
            },
            {
                "start_time": 6.695454545454545,
                "end_time": 6.795454545454545,
                "pitch": 39,
                "velocity": 80,
                "duration": 0.09999999999999964,
                "tempo": 120.0
            },
            {
                "start_time": 6.8136363636363635,
                "end_time": 6.913636363636363,
                "pitch": 39,
                "velocity": 80,
                "duration": 0.09999999999999964,
                "tempo": 120.0
            },
            {
                "start_time": 6.929545454545454,
                "end_time": 7.029545454545454,
                "pitch": 39,
                "velocity": 80,
                "duration": 0.10000000000000053,
                "tempo": 120.0
            },
            {
                "start_time": 7.047727272727272,
                "end_time": 7.1477272727272725,
                "pitch": 39,
                "velocity": 80,
                "duration": 0.10000000000000053,
                "tempo": 120.0
            },
            {
                "start_time": 7.163636363636363,
                "end_time": 7.265909090909091,
                "pitch": 37,
                "velocity": 80,
                "duration": 0.10227272727272751,
                "tempo": 120.0
            },
            {
                "start_time": 7.281818181818181,
                "end_time": 7.381818181818182,
                "pitch": 37,
                "velocity": 80,
                "duration": 0.10000000000000053,
                "tempo": 120.0
            },
            {
                "start_time": 7.3999999999999995,
                "end_time": 7.5,
                "pitch": 35,
                "velocity": 80,
                "duration": 0.10000000000000053,
                "tempo": 120.0
            },
            {
                "start_time": 7.515909090909091,
                "end_time": 7.61590909090909,
                "pitch": 35,
                "velocity": 80,
                "duration": 0.09999999999999964,
                "tempo": 120.0
            },
            {
                "start_time": 7.634090909090909,
                "end_time": 7.7340909090909085,
                "pitch": 35,
                "velocity": 80,
                "duration": 0.09999999999999964,
                "tempo": 120.0
            },
            {
                "start_time": 7.75,
                "end_time": 7.852272727272727,
                "pitch": 35,
                "velocity": 80,
                "duration": 0.10227272727272663,
                "tempo": 120.0
            },
            {
                "start_time": 7.868181818181818,
                "end_time": 7.968181818181818,
                "pitch": 35,
                "velocity": 80,
                "duration": 0.09999999999999964,
                "tempo": 120.0
            },
            {
                "start_time": 7.986363636363636,
                "end_time": 8.086363636363636,
                "pitch": 35,
                "velocity": 80,
                "duration": 0.09999999999999964,
                "tempo": 120.0
            },
            {
                "start_time": 8.102272727272727,
                "end_time": 8.2,
                "pitch": 35,
                "velocity": 80,
                "duration": 0.09772727272727266,
                "tempo": 120.0
            },
            {
                "start_time": 8.218181818181817,
                "end_time": 8.315909090909091,
                "pitch": 35,
                "velocity": 80,
                "duration": 0.09772727272727444,
                "tempo": 120.0
            },
            {
                "start_time": 8.331818181818182,
                "end_time": 8.429545454545455,
                "pitch": 37,
                "velocity": 80,
                "duration": 0.09772727272727266,
                "tempo": 120.0
            },
            {
                "start_time": 8.445454545454545,
                "end_time": 8.545454545454545,
                "pitch": 37,
                "velocity": 80,
                "duration": 0.09999999999999964,
                "tempo": 120.0
            },
            {
                "start_time": 8.561363636363636,
                "end_time": 8.661363636363635,
                "pitch": 37,
                "velocity": 80,
                "duration": 0.09999999999999964,
                "tempo": 120.0
            },
            {
                "start_time": 8.677272727272728,
                "end_time": 8.777272727272727,
                "pitch": 37,
                "velocity": 80,
                "duration": 0.09999999999999964,
                "tempo": 120.0
            },
            {
                "start_time": 8.795454545454545,
                "end_time": 8.895454545454545,
                "pitch": 37,
                "velocity": 80,
                "duration": 0.09999999999999964,
                "tempo": 120.0
            },
            {
                "start_time": 8.911363636363635,
                "end_time": 9.013636363636364,
                "pitch": 37,
                "velocity": 80,
                "duration": 0.1022727272727284,
                "tempo": 120.0
            },
            {
                "start_time": 9.029545454545454,
                "end_time": 9.129545454545454,
                "pitch": 37,
                "velocity": 80,
                "duration": 0.09999999999999964,
                "tempo": 120.0
            },
            {
                "start_time": 9.147727272727272,
                "end_time": 9.247727272727273,
                "pitch": 37,
                "velocity": 80,
                "duration": 0.10000000000000142,
                "tempo": 120.0
            },
            {
                "start_time": 9.263636363636364,
                "end_time": 9.363636363636363,
                "pitch": 34,
                "velocity": 80,
                "duration": 0.09999999999999964,
                "tempo": 120.0
            },
            {
                "start_time": 9.381818181818181,
                "end_time": 9.48181818181818,
                "pitch": 34,
                "velocity": 80,
                "duration": 0.09999999999999964,
                "tempo": 120.0
            },
            {
                "start_time": 9.497727272727273,
                "end_time": 9.597727272727273,
                "pitch": 34,
                "velocity": 80,
                "duration": 0.09999999999999964,
                "tempo": 120.0
            },
            {
                "start_time": 9.613636363636363,
                "end_time": 9.711363636363636,
                "pitch": 34,
                "velocity": 80,
                "duration": 0.09772727272727266,
                "tempo": 120.0
            },
            {
                "start_time": 9.727272727272727,
                "end_time": 9.825,
                "pitch": 34,
                "velocity": 80,
                "duration": 0.09772727272727266,
                "tempo": 120.0
            },
            {
                "start_time": 9.843181818181817,
                "end_time": 9.94090909090909,
                "pitch": 34,
                "velocity": 80,
                "duration": 0.09772727272727266,
                "tempo": 120.0
            },
            {
                "start_time": 9.956818181818182,
                "end_time": 10.056818181818182,
                "pitch": 34,
                "velocity": 80,
                "duration": 0.09999999999999964,
                "tempo": 120.0
            },
            {
                "start_time": 10.075,
                "end_time": 10.174999999999999,
                "pitch": 34,
                "velocity": 80,
                "duration": 0.09999999999999964,
                "tempo": 120.0
            },
            {
                "start_time": 10.19090909090909,
                "end_time": 10.290909090909091,
                "pitch": 34,
                "velocity": 80,
                "duration": 0.10000000000000142,
                "tempo": 120.0
            },
            {
                "start_time": 10.309090909090909,
                "end_time": 10.409090909090908,
                "pitch": 34,
                "velocity": 80,
                "duration": 0.09999999999999964,
                "tempo": 120.0
            },
            {
                "start_time": 10.424999999999999,
                "end_time": 10.527272727272727,
                "pitch": 34,
                "velocity": 80,
                "duration": 0.1022727272727284,
                "tempo": 120.0
            },
            {
                "start_time": 10.543181818181818,
                "end_time": 10.643181818181818,
                "pitch": 34,
                "velocity": 80,
                "duration": 0.09999999999999964,
                "tempo": 120.0
            },
            {
                "start_time": 10.661363636363635,
                "end_time": 10.761363636363637,
                "pitch": 34,
                "velocity": 80,
                "duration": 0.10000000000000142,
                "tempo": 120.0
            },
            {
                "start_time": 10.777272727272727,
                "end_time": 10.877272727272727,
                "pitch": 34,
                "velocity": 80,
                "duration": 0.09999999999999964,
                "tempo": 120.0
            },
            {
                "start_time": 10.895454545454545,
                "end_time": 10.993181818181817,
                "pitch": 34,
                "velocity": 80,
                "duration": 0.09772727272727266,
                "tempo": 120.0
            },
            {
                "start_time": 11.009090909090908,
                "end_time": 11.10681818181818,
                "pitch": 34,
                "velocity": 80,
                "duration": 0.09772727272727266,
                "tempo": 120.0
            },
            {
                "start_time": 11.125,
                "end_time": 11.222727272727273,
                "pitch": 34,
                "velocity": 80,
                "duration": 0.09772727272727266,
                "tempo": 120.0
            },
            {
                "start_time": 11.238636363636363,
                "end_time": 11.336363636363636,
                "pitch": 34,
                "velocity": 80,
                "duration": 0.09772727272727266,
                "tempo": 120.0
            },
            {
                "start_time": 11.352272727272727,
                "end_time": 11.454545454545453,
                "pitch": 34,
                "velocity": 80,
                "duration": 0.10227272727272663,
                "tempo": 120.0
            },
            {
                "start_time": 11.470454545454546,
                "end_time": 11.570454545454545,
                "pitch": 34,
                "velocity": 80,
                "duration": 0.09999999999999964,
                "tempo": 120.0
            },
            {
                "start_time": 11.586363636363636,
                "end_time": 11.688636363636363,
                "pitch": 34,
                "velocity": 80,
                "duration": 0.10227272727272663,
                "tempo": 120.0
            },
            {
                "start_time": 11.704545454545453,
                "end_time": 11.804545454545455,
                "pitch": 34,
                "velocity": 80,
                "duration": 0.10000000000000142,
                "tempo": 120.0
            },
            {
                "start_time": 11.822727272727272,
                "end_time": 11.920454545454545,
                "pitch": 34,
                "velocity": 80,
                "duration": 0.09772727272727266,
                "tempo": 120.0
            },
            {
                "start_time": 11.936363636363636,
                "end_time": 12.034090909090908,
                "pitch": 34,
                "velocity": 80,
                "duration": 0.09772727272727266,
                "tempo": 120.0
            },
            {
                "start_time": 12.049999999999999,
                "end_time": 12.149999999999999,
                "pitch": 34,
                "velocity": 80,
                "duration": 0.09999999999999964,
                "tempo": 120.0
            },
            {
                "start_time": 12.165909090909091,
                "end_time": 12.263636363636364,
                "pitch": 34,
                "velocity": 80,
                "duration": 0.09772727272727266,
                "tempo": 120.0
            },
            {
                "start_time": 12.279545454545454,
                "end_time": 12.379545454545454,
                "pitch": 34,
                "velocity": 80,
                "duration": 0.09999999999999964,
                "tempo": 120.0
            },
            {
                "start_time": 12.397727272727272,
                "end_time": 12.497727272727271,
                "pitch": 34,
                "velocity": 80,
                "duration": 0.09999999999999964,
                "tempo": 120.0
            },
            {
                "start_time": 12.513636363636364,
                "end_time": 12.61590909090909,
                "pitch": 34,
                "velocity": 80,
                "duration": 0.10227272727272663,
                "tempo": 120.0
            },
            {
                "start_time": 12.631818181818181,
                "end_time": 12.73181818181818,
                "pitch": 34,
                "velocity": 80,
                "duration": 0.09999999999999964,
                "tempo": 120.0
            },
            {
                "start_time": 12.75,
                "end_time": 12.85,
                "pitch": 34,
                "velocity": 80,
                "duration": 0.09999999999999964,
                "tempo": 120.0
            },
            {
                "start_time": 12.86590909090909,
                "end_time": 12.96590909090909,
                "pitch": 34,
                "velocity": 80,
                "duration": 0.09999999999999964,
                "tempo": 120.0
            },
            {
                "start_time": 12.984090909090908,
                "end_time": 13.084090909090909,
                "pitch": 39,
                "velocity": 80,
                "duration": 0.10000000000000142,
                "tempo": 120.0
            },
            {
                "start_time": 13.1,
                "end_time": 13.202272727272726,
                "pitch": 39,
                "velocity": 80,
                "duration": 0.10227272727272663,
                "tempo": 120.0
            },
            {
                "start_time": 13.218181818181817,
                "end_time": 13.318181818181818,
                "pitch": 39,
                "velocity": 80,
                "duration": 0.10000000000000142,
                "tempo": 120.0
            }
        ],
        "Church Organ": [
            {
                "start_time": 0.013636363636363636,
                "end_time": 0.18409090909090908,
                "pitch": 75,
                "velocity": 80,
                "duration": 0.17045454545454544,
                "tempo": 120.0
            },
            {
                "start_time": 0.18409090909090908,
                "end_time": 0.28409090909090906,
                "pitch": 82,
                "velocity": 80,
                "duration": 0.09999999999999998,
                "tempo": 120.0
            },
            {
                "start_time": 0.28409090909090906,
                "end_time": 0.3,
                "pitch": 82,
                "velocity": 80,
                "duration": 0.01590909090909093,
                "tempo": 120.0
            },
            {
                "start_time": 0.3,
                "end_time": 0.5363636363636364,
                "pitch": 75,
                "velocity": 80,
                "duration": 0.2363636363636364,
                "tempo": 120.0
            },
            {
                "start_time": 0.5363636363636364,
                "end_time": 0.6522727272727272,
                "pitch": 82,
                "velocity": 80,
                "duration": 0.11590909090909085,
                "tempo": 120.0
            },
            {
                "start_time": 0.6522727272727272,
                "end_time": 0.8818181818181817,
                "pitch": 75,
                "velocity": 80,
                "duration": 0.2295454545454545,
                "tempo": 120.0
            },
            {
                "start_time": 0.8818181818181817,
                "end_time": 0.9954545454545454,
                "pitch": 82,
                "velocity": 80,
                "duration": 0.11363636363636365,
                "tempo": 120.0
            },
            {
                "start_time": 0.9954545454545454,
                "end_time": 1.2272727272727273,
                "pitch": 75,
                "velocity": 80,
                "duration": 0.23181818181818192,
                "tempo": 120.0
            },
            {
                "start_time": 1.2272727272727273,
                "end_time": 1.3454545454545455,
                "pitch": 82,
                "velocity": 80,
                "duration": 0.11818181818181817,
                "tempo": 120.0
            },
            {
                "start_time": 1.3454545454545455,
                "end_time": 1.5795454545454544,
                "pitch": 75,
                "velocity": 80,
                "duration": 0.2340909090909089,
                "tempo": 120.0
            },
            {
                "start_time": 1.5795454545454544,
                "end_time": 1.6977272727272728,
                "pitch": 78,
                "velocity": 80,
                "duration": 0.11818181818181839,
                "tempo": 120.0
            },
            {
                "start_time": 1.6977272727272728,
                "end_time": 1.8136363636363635,
                "pitch": 80,
                "velocity": 80,
                "duration": 0.11590909090909074,
                "tempo": 120.0
            },
            {
                "start_time": 1.8136363636363635,
                "end_time": 2.047727272727273,
                "pitch": 75,
                "velocity": 80,
                "duration": 0.23409090909090935,
                "tempo": 120.0
            },
            {
                "start_time": 2.047727272727273,
                "end_time": 2.165909090909091,
                "pitch": 82,
                "velocity": 80,
                "duration": 0.11818181818181817,
                "tempo": 120.0
            },
            {
                "start_time": 2.165909090909091,
                "end_time": 2.4,
                "pitch": 75,
                "velocity": 80,
                "duration": 0.2340909090909089,
                "tempo": 120.0
            },
            {
                "start_time": 2.4,
                "end_time": 2.518181818181818,
                "pitch": 82,
                "velocity": 80,
                "duration": 0.11818181818181817,
                "tempo": 120.0
            },
            {
                "start_time": 2.518181818181818,
                "end_time": 2.7477272727272726,
                "pitch": 75,
                "velocity": 80,
                "duration": 0.2295454545454545,
                "tempo": 120.0
            },
            {
                "start_time": 2.7477272727272726,
                "end_time": 2.8613636363636363,
                "pitch": 82,
                "velocity": 80,
                "duration": 0.11363636363636376,
                "tempo": 120.0
            },
            {
                "start_time": 2.8613636363636363,
                "end_time": 3.093181818181818,
                "pitch": 75,
                "velocity": 80,
                "duration": 0.23181818181818148,
                "tempo": 120.0
            },
            {
                "start_time": 3.093181818181818,
                "end_time": 3.2113636363636364,
                "pitch": 82,
                "velocity": 80,
                "duration": 0.11818181818181861,
                "tempo": 120.0
            },
            {
                "start_time": 3.2113636363636364,
                "end_time": 3.4454545454545453,
                "pitch": 75,
                "velocity": 80,
                "duration": 0.2340909090909089,
                "tempo": 120.0
            },
            {
                "start_time": 3.4454545454545453,
                "end_time": 3.561363636363636,
                "pitch": 78,
                "velocity": 80,
                "duration": 0.11590909090909074,
                "tempo": 120.0
            },
            {
                "start_time": 3.561363636363636,
                "end_time": 3.6795454545454542,
                "pitch": 80,
                "velocity": 80,
                "duration": 0.11818181818181817,
                "tempo": 120.0
            },
            {
                "start_time": 3.6795454545454542,
                "end_time": 3.9136363636363636,
                "pitch": 66,
                "velocity": 80,
                "duration": 0.23409090909090935,
                "tempo": 120.0
            },
            {
                "start_time": 3.9136363636363636,
                "end_time": 4.143181818181818,
                "pitch": 78,
                "velocity": 80,
                "duration": 0.22954545454545405,
                "tempo": 120.0
            },
            {
                "start_time": 4.143181818181818,
                "end_time": 4.256818181818182,
                "pitch": 66,
                "velocity": 80,
                "duration": 0.1136363636363642,
                "tempo": 120.0
            },
            {
                "start_time": 4.256818181818182,
                "end_time": 4.488636363636363,
                "pitch": 78,
                "velocity": 80,
                "duration": 0.23181818181818148,
                "tempo": 120.0
            },
            {
                "start_time": 4.488636363636363,
                "end_time": 4.6068181818181815,
                "pitch": 66,
                "velocity": 80,
                "duration": 0.11818181818181817,
                "tempo": 120.0
            },
            {
                "start_time": 4.6068181818181815,
                "end_time": 4.840909090909091,
                "pitch": 68,
                "velocity": 80,
                "duration": 0.23409090909090935,
                "tempo": 120.0
            },
            {
                "start_time": 4.840909090909091,
                "end_time": 5.075,
                "pitch": 80,
                "velocity": 80,
                "duration": 0.23409090909090935,
                "tempo": 120.0
            },
            {
                "start_time": 5.075,
                "end_time": 5.193181818181818,
                "pitch": 68,
                "velocity": 80,
                "duration": 0.11818181818181817,
                "tempo": 120.0
            },
            {
                "start_time": 5.193181818181818,
                "end_time": 5.538636363636363,
                "pitch": 80,
                "velocity": 80,
                "duration": 0.3454545454545448,
                "tempo": 120.0
            },
            {
                "start_time": 5.538636363636363,
                "end_time": 5.768181818181818,
                "pitch": 77,
                "velocity": 80,
                "duration": 0.2295454545454545,
                "tempo": 120.0
            },
            {
                "start_time": 5.768181818181818,
                "end_time": 5.886363636363636,
                "pitch": 82,
                "velocity": 80,
                "duration": 0.11818181818181817,
                "tempo": 120.0
            },
            {
                "start_time": 5.886363636363636,
                "end_time": 6.002272727272727,
                "pitch": 85,
                "velocity": 80,
                "duration": 0.11590909090909118,
                "tempo": 120.0
            },
            {
                "start_time": 6.002272727272727,
                "end_time": 6.120454545454545,
                "pitch": 89,
                "velocity": 80,
                "duration": 0.11818181818181817,
                "tempo": 120.0
            },
            {
                "start_time": 6.120454545454545,
                "end_time": 6.236363636363636,
                "pitch": 85,
                "velocity": 80,
                "duration": 0.11590909090909118,
                "tempo": 120.0
            },
            {
                "start_time": 6.236363636363636,
                "end_time": 6.352272727272727,
                "pitch": 82,
                "velocity": 80,
                "duration": 0.1159090909090903,
                "tempo": 120.0
            },
            {
                "start_time": 6.352272727272727,
                "end_time": 6.695454545454545,
                "pitch": 78,
                "velocity": 80,
                "duration": 0.3431818181818187,
                "tempo": 120.0
            },
            {
                "start_time": 6.695454545454545,
                "end_time": 6.8136363636363635,
                "pitch": 82,
                "velocity": 80,
                "duration": 0.11818181818181817,
                "tempo": 120.0
            },
            {
                "start_time": 6.8136363636363635,
                "end_time": 6.929545454545454,
                "pitch": 85,
                "velocity": 80,
                "duration": 0.1159090909090903,
                "tempo": 120.0
            },
            {
                "start_time": 6.929545454545454,
                "end_time": 7.163636363636363,
                "pitch": 89,
                "velocity": 80,
                "duration": 0.23409090909090935,
                "tempo": 120.0
            },
            {
                "start_time": 7.163636363636363,
                "end_time": 7.3999999999999995,
                "pitch": 92,
                "velocity": 80,
                "duration": 0.23636363636363633,
                "tempo": 120.0
            },
            {
                "start_time": 7.3999999999999995,
                "end_time": 7.634090909090909,
                "pitch": 66,
                "velocity": 80,
                "duration": 0.23409090909090935,
                "tempo": 120.0
            },
            {
                "start_time": 7.634090909090909,
                "end_time": 7.868181818181818,
                "pitch": 78,
                "velocity": 80,
                "duration": 0.23409090909090935,
                "tempo": 120.0
            },
            {
                "start_time": 7.868181818181818,
                "end_time": 7.986363636363636,
                "pitch": 66,
                "velocity": 80,
                "duration": 0.11818181818181817,
                "tempo": 120.0
            },
            {
                "start_time": 7.986363636363636,
                "end_time": 8.218181818181817,
                "pitch": 78,
                "velocity": 80,
                "duration": 0.2318181818181806,
                "tempo": 120.0
            },
            {
                "start_time": 8.218181818181817,
                "end_time": 8.331818181818182,
                "pitch": 66,
                "velocity": 80,
                "duration": 0.11363636363636509,
                "tempo": 120.0
            },
            {
                "start_time": 8.331818181818182,
                "end_time": 8.561363636363636,
                "pitch": 68,
                "velocity": 80,
                "duration": 0.2295454545454536,
                "tempo": 120.0
            },
            {
                "start_time": 8.561363636363636,
                "end_time": 8.795454545454545,
                "pitch": 80,
                "velocity": 80,
                "duration": 0.23409090909090935,
                "tempo": 120.0
            },
            {
                "start_time": 8.795454545454545,
                "end_time": 8.911363636363635,
                "pitch": 68,
                "velocity": 80,
                "duration": 0.1159090909090903,
                "tempo": 120.0
            },
            {
                "start_time": 8.911363636363635,
                "end_time": 9.263636363636364,
                "pitch": 80,
                "velocity": 80,
                "duration": 0.3522727272727284,
                "tempo": 120.0
            },
            {
                "start_time": 9.263636363636364,
                "end_time": 9.381818181818181,
                "pitch": 75,
                "velocity": 80,
                "duration": 0.11818181818181728,
                "tempo": 120.0
            },
            {
                "start_time": 9.381818181818181,
                "end_time": 9.497727272727273,
                "pitch": 82,
                "velocity": 80,
                "duration": 0.11590909090909207,
                "tempo": 120.0
            },
            {
                "start_time": 9.497727272727273,
                "end_time": 9.613636363636363,
                "pitch": 87,
                "velocity": 80,
                "duration": 0.1159090909090903,
                "tempo": 120.0
            },
            {
                "start_time": 9.613636363636363,
                "end_time": 9.727272727272727,
                "pitch": 77,
                "velocity": 80,
                "duration": 0.11363636363636331,
                "tempo": 120.0
            },
            {
                "start_time": 9.727272727272727,
                "end_time": 9.843181818181817,
                "pitch": 82,
                "velocity": 80,
                "duration": 0.1159090909090903,
                "tempo": 120.0
            },
            {
                "start_time": 9.843181818181817,
                "end_time": 9.956818181818182,
                "pitch": 87,
                "velocity": 80,
                "duration": 0.11363636363636509,
                "tempo": 120.0
            },
            {
                "start_time": 9.956818181818182,
                "end_time": 10.075,
                "pitch": 77,
                "velocity": 80,
                "duration": 0.11818181818181728,
                "tempo": 120.0
            },
            {
                "start_time": 10.075,
                "end_time": 10.19090909090909,
                "pitch": 82,
                "velocity": 80,
                "duration": 0.1159090909090903,
                "tempo": 120.0
            },
            {
                "start_time": 10.19090909090909,
                "end_time": 10.309090909090909,
                "pitch": 87,
                "velocity": 80,
                "duration": 0.11818181818181905,
                "tempo": 120.0
            },
            {
                "start_time": 10.309090909090909,
                "end_time": 10.424999999999999,
                "pitch": 77,
                "velocity": 80,
                "duration": 0.1159090909090903,
                "tempo": 120.0
            },
            {
                "start_time": 10.424999999999999,
                "end_time": 10.543181818181818,
                "pitch": 82,
                "velocity": 80,
                "duration": 0.11818181818181905,
                "tempo": 120.0
            },
            {
                "start_time": 10.543181818181818,
                "end_time": 10.661363636363635,
                "pitch": 87,
                "velocity": 80,
                "duration": 0.11818181818181728,
                "tempo": 120.0
            },
            {
                "start_time": 10.661363636363635,
                "end_time": 10.777272727272727,
                "pitch": 77,
                "velocity": 80,
                "duration": 0.11590909090909207,
                "tempo": 120.0
            },
            {
                "start_time": 10.777272727272727,
                "end_time": 10.895454545454545,
                "pitch": 82,
                "velocity": 80,
                "duration": 0.11818181818181728,
                "tempo": 120.0
            },
            {
                "start_time": 10.895454545454545,
                "end_time": 11.009090909090908,
                "pitch": 87,
                "velocity": 80,
                "duration": 0.11363636363636331,
                "tempo": 120.0
            },
            {
                "start_time": 11.009090909090908,
                "end_time": 11.125,
                "pitch": 82,
                "velocity": 80,
                "duration": 0.11590909090909207,
                "tempo": 120.0
            },
            {
                "start_time": 11.125,
                "end_time": 11.238636363636363,
                "pitch": 77,
                "velocity": 80,
                "duration": 0.11363636363636331,
                "tempo": 120.0
            },
            {
                "start_time": 11.238636363636363,
                "end_time": 11.352272727272727,
                "pitch": 82,
                "velocity": 80,
                "duration": 0.11363636363636331,
                "tempo": 120.0
            },
            {
                "start_time": 11.352272727272727,
                "end_time": 11.470454545454546,
                "pitch": 86,
                "velocity": 80,
                "duration": 0.11818181818181905,
                "tempo": 120.0
            },
            {
                "start_time": 11.470454545454546,
                "end_time": 11.586363636363636,
                "pitch": 77,
                "velocity": 80,
                "duration": 0.1159090909090903,
                "tempo": 120.0
            },
            {
                "start_time": 11.586363636363636,
                "end_time": 11.704545454545453,
                "pitch": 82,
                "velocity": 80,
                "duration": 0.11818181818181728,
                "tempo": 120.0
            },
            {
                "start_time": 11.704545454545453,
                "end_time": 11.822727272727272,
                "pitch": 86,
                "velocity": 80,
                "duration": 0.11818181818181905,
                "tempo": 120.0
            },
            {
                "start_time": 11.822727272727272,
                "end_time": 11.936363636363636,
                "pitch": 77,
                "velocity": 80,
                "duration": 0.11363636363636331,
                "tempo": 120.0
            },
            {
                "start_time": 11.936363636363636,
                "end_time": 12.049999999999999,
                "pitch": 82,
                "velocity": 80,
                "duration": 0.11363636363636331,
                "tempo": 120.0
            },
            {
                "start_time": 12.049999999999999,
                "end_time": 12.165909090909091,
                "pitch": 70,
                "velocity": 80,
                "duration": 0.11590909090909207,
                "tempo": 120.0
            },
            {
                "start_time": 12.165909090909091,
                "end_time": 12.279545454545454,
                "pitch": 74,
                "velocity": 80,
                "duration": 0.11363636363636331,
                "tempo": 120.0
            },
            {
                "start_time": 12.279545454545454,
                "end_time": 12.397727272727272,
                "pitch": 77,
                "velocity": 80,
                "duration": 0.11818181818181728,
                "tempo": 120.0
            },
            {
                "start_time": 12.397727272727272,
                "end_time": 12.513636363636364,
                "pitch": 70,
                "velocity": 80,
                "duration": 0.11590909090909207,
                "tempo": 120.0
            },
            {
                "start_time": 12.513636363636364,
                "end_time": 12.631818181818181,
                "pitch": 74,
                "velocity": 80,
                "duration": 0.11818181818181728,
                "tempo": 120.0
            },
            {
                "start_time": 12.631818181818181,
                "end_time": 12.75,
                "pitch": 77,
                "velocity": 80,
                "duration": 0.11818181818181905,
                "tempo": 120.0
            },
            {
                "start_time": 12.75,
                "end_time": 12.86590909090909,
                "pitch": 70,
                "velocity": 80,
                "duration": 0.1159090909090903,
                "tempo": 120.0
            },
            {
                "start_time": 12.86590909090909,
                "end_time": 13.1,
                "pitch": 74,
                "velocity": 80,
                "duration": 0.23409090909090935,
                "tempo": 120.0
            },
            {
                "start_time": 13.1,
                "end_time": 13.218181818181817,
                "pitch": 77,
                "velocity": 80,
                "duration": 0.11818181818181728,
                "tempo": 120.0
            },
            {
                "start_time": 13.218181818181817,
                "end_time": 13.318181818181818,
                "pitch": 82,
                "velocity": 80,
                "duration": 0.10000000000000142,
                "tempo": 120.0
            }
        ],
        "Harpsichord": [
            {
                "start_time": 0.013636363636363636,
                "end_time": 0.07045454545454545,
                "pitch": 58,
                "velocity": 51,
                "duration": 0.056818181818181816,
                "tempo": 120.0
            },
            {
                "start_time": 0.08409090909090909,
                "end_time": 0.17045454545454544,
                "pitch": 59,
                "velocity": 51,
                "duration": 0.08636363636363635,
                "tempo": 120.0
            },
            {
                "start_time": 0.18409090909090908,
                "end_time": 0.28409090909090906,
                "pitch": 65,
                "velocity": 51,
                "duration": 0.09999999999999998,
                "tempo": 120.0
            },
            {
                "start_time": 0.3,
                "end_time": 0.4022727272727272,
                "pitch": 58,
                "velocity": 51,
                "duration": 0.10227272727272724,
                "tempo": 120.0
            },
            {
                "start_time": 0.41818181818181815,
                "end_time": 0.5181818181818182,
                "pitch": 59,
                "velocity": 51,
                "duration": 0.10000000000000003,
                "tempo": 120.0
            },
            {
                "start_time": 0.5363636363636364,
                "end_time": 0.6363636363636364,
                "pitch": 65,
                "velocity": 51,
                "duration": 0.09999999999999998,
                "tempo": 120.0
            },
            {
                "start_time": 0.6522727272727272,
                "end_time": 0.75,
                "pitch": 58,
                "velocity": 51,
                "duration": 0.09772727272727277,
                "tempo": 120.0
            },
            {
                "start_time": 0.7681818181818182,
                "end_time": 0.8659090909090909,
                "pitch": 59,
                "velocity": 51,
                "duration": 0.09772727272727266,
                "tempo": 120.0
            },
            {
                "start_time": 0.8818181818181817,
                "end_time": 0.9795454545454545,
                "pitch": 65,
                "velocity": 51,
                "duration": 0.09772727272727277,
                "tempo": 120.0
            },
            {
                "start_time": 0.9954545454545454,
                "end_time": 1.0954545454545455,
                "pitch": 58,
                "velocity": 51,
                "duration": 0.10000000000000009,
                "tempo": 120.0
            },
            {
                "start_time": 1.1113636363636363,
                "end_time": 1.2113636363636362,
                "pitch": 59,
                "velocity": 51,
                "duration": 0.09999999999999987,
                "tempo": 120.0
            },
            {
                "start_time": 1.2272727272727273,
                "end_time": 1.3295454545454546,
                "pitch": 65,
                "velocity": 51,
                "duration": 0.10227272727272729,
                "tempo": 120.0
            },
            {
                "start_time": 1.3454545454545455,
                "end_time": 1.4454545454545453,
                "pitch": 58,
                "velocity": 51,
                "duration": 0.09999999999999987,
                "tempo": 120.0
            },
            {
                "start_time": 1.4636363636363636,
                "end_time": 1.5636363636363635,
                "pitch": 59,
                "velocity": 51,
                "duration": 0.09999999999999987,
                "tempo": 120.0
            },
            {
                "start_time": 1.5795454545454544,
                "end_time": 1.6795454545454545,
                "pitch": 61,
                "velocity": 51,
                "duration": 0.10000000000000009,
                "tempo": 120.0
            },
            {
                "start_time": 1.6977272727272728,
                "end_time": 1.7977272727272726,
                "pitch": 63,
                "velocity": 51,
                "duration": 0.09999999999999987,
                "tempo": 120.0
            },
            {
                "start_time": 1.8136363636363635,
                "end_time": 1.9159090909090908,
                "pitch": 58,
                "velocity": 51,
                "duration": 0.10227272727272729,
                "tempo": 120.0
            },
            {
                "start_time": 1.9318181818181817,
                "end_time": 2.0318181818181817,
                "pitch": 59,
                "velocity": 51,
                "duration": 0.10000000000000009,
                "tempo": 120.0
            },
            {
                "start_time": 2.047727272727273,
                "end_time": 2.15,
                "pitch": 65,
                "velocity": 51,
                "duration": 0.10227272727272707,
                "tempo": 120.0
            },
            {
                "start_time": 2.165909090909091,
                "end_time": 2.2659090909090907,
                "pitch": 58,
                "velocity": 51,
                "duration": 0.09999999999999964,
                "tempo": 120.0
            },
            {
                "start_time": 2.284090909090909,
                "end_time": 2.384090909090909,
                "pitch": 59,
                "velocity": 51,
                "duration": 0.09999999999999964,
                "tempo": 120.0
            },
            {
                "start_time": 2.4,
                "end_time": 2.5,
                "pitch": 65,
                "velocity": 51,
                "duration": 0.10000000000000009,
                "tempo": 120.0
            },
            {
                "start_time": 2.518181818181818,
                "end_time": 2.6159090909090907,
                "pitch": 58,
                "velocity": 51,
                "duration": 0.09772727272727266,
                "tempo": 120.0
            },
            {
                "start_time": 2.631818181818182,
                "end_time": 2.7295454545454545,
                "pitch": 59,
                "velocity": 51,
                "duration": 0.09772727272727266,
                "tempo": 120.0
            },
            {
                "start_time": 2.7477272727272726,
                "end_time": 2.8454545454545452,
                "pitch": 65,
                "velocity": 51,
                "duration": 0.09772727272727266,
                "tempo": 120.0
            },
            {
                "start_time": 2.8613636363636363,
                "end_time": 2.959090909090909,
                "pitch": 58,
                "velocity": 51,
                "duration": 0.09772727272727266,
                "tempo": 120.0
            },
            {
                "start_time": 2.9749999999999996,
                "end_time": 3.077272727272727,
                "pitch": 59,
                "velocity": 51,
                "duration": 0.10227272727272751,
                "tempo": 120.0
            },
            {
                "start_time": 3.093181818181818,
                "end_time": 3.193181818181818,
                "pitch": 65,
                "velocity": 51,
                "duration": 0.10000000000000009,
                "tempo": 120.0
            },
            {
                "start_time": 3.2113636363636364,
                "end_time": 3.311363636363636,
                "pitch": 58,
                "velocity": 51,
                "duration": 0.09999999999999964,
                "tempo": 120.0
            },
            {
                "start_time": 3.327272727272727,
                "end_time": 3.4272727272727272,
                "pitch": 59,
                "velocity": 51,
                "duration": 0.10000000000000009,
                "tempo": 120.0
            },
            {
                "start_time": 3.4454545454545453,
                "end_time": 3.5454545454545454,
                "pitch": 61,
                "velocity": 51,
                "duration": 0.10000000000000009,
                "tempo": 120.0
            },
            {
                "start_time": 3.561363636363636,
                "end_time": 3.6636363636363636,
                "pitch": 63,
                "velocity": 51,
                "duration": 0.10227272727272751,
                "tempo": 120.0
            },
            {
                "start_time": 3.6795454545454542,
                "end_time": 3.7795454545454543,
                "pitch": 47,
                "velocity": 51,
                "duration": 0.10000000000000009,
                "tempo": 120.0
            },
            {
                "start_time": 3.7977272727272724,
                "end_time": 3.8977272727272725,
                "pitch": 47,
                "velocity": 51,
                "duration": 0.10000000000000009,
                "tempo": 120.0
            },
            {
                "start_time": 3.9136363636363636,
                "end_time": 4.127272727272727,
                "pitch": 59,
                "velocity": 51,
                "duration": 0.2136363636363634,
                "tempo": 120.0
            },
            {
                "start_time": 4.143181818181818,
                "end_time": 4.24090909090909,
                "pitch": 47,
                "velocity": 51,
                "duration": 0.09772727272727266,
                "tempo": 120.0
            },
            {
                "start_time": 4.256818181818182,
                "end_time": 4.590909090909091,
                "pitch": 58,
                "velocity": 51,
                "duration": 0.334090909090909,
                "tempo": 120.0
            },
            {
                "start_time": 4.6068181818181815,
                "end_time": 4.706818181818182,
                "pitch": 49,
                "velocity": 51,
                "duration": 0.10000000000000053,
                "tempo": 120.0
            },
            {
                "start_time": 4.725,
                "end_time": 4.825,
                "pitch": 49,
                "velocity": 51,
                "duration": 0.10000000000000053,
                "tempo": 120.0
            },
            {
                "start_time": 4.840909090909091,
                "end_time": 5.059090909090909,
                "pitch": 61,
                "velocity": 51,
                "duration": 0.2181818181818178,
                "tempo": 120.0
            },
            {
                "start_time": 5.075,
                "end_time": 5.177272727272727,
                "pitch": 49,
                "velocity": 51,
                "duration": 0.10227272727272663,
                "tempo": 120.0
            },
            {
                "start_time": 5.193181818181818,
                "end_time": 5.5227272727272725,
                "pitch": 61,
                "velocity": 51,
                "duration": 0.32954545454545414,
                "tempo": 120.0
            },
            {
                "start_time": 5.538636363636363,
                "end_time": 5.636363636363636,
                "pitch": 58,
                "velocity": 51,
                "duration": 0.09772727272727266,
                "tempo": 120.0
            },
            {
                "start_time": 5.654545454545454,
                "end_time": 5.752272727272727,
                "pitch": 63,
                "velocity": 51,
                "duration": 0.09772727272727266,
                "tempo": 120.0
            },
            {
                "start_time": 5.768181818181818,
                "end_time": 5.868181818181818,
                "pitch": 65,
                "velocity": 51,
                "duration": 0.10000000000000053,
                "tempo": 120.0
            },
            {
                "start_time": 5.886363636363636,
                "end_time": 5.986363636363636,
                "pitch": 66,
                "velocity": 51,
                "duration": 0.10000000000000053,
                "tempo": 120.0
            },
            {
                "start_time": 6.002272727272727,
                "end_time": 6.102272727272727,
                "pitch": 68,
                "velocity": 51,
                "duration": 0.09999999999999964,
                "tempo": 120.0
            },
            {
                "start_time": 6.120454545454545,
                "end_time": 6.220454545454545,
                "pitch": 66,
                "velocity": 51,
                "duration": 0.09999999999999964,
                "tempo": 120.0
            },
            {
                "start_time": 6.236363636363636,
                "end_time": 6.336363636363636,
                "pitch": 65,
                "velocity": 51,
                "duration": 0.09999999999999964,
                "tempo": 120.0
            },
            {
                "start_time": 6.352272727272727,
                "end_time": 6.449999999999999,
                "pitch": 63,
                "velocity": 51,
                "duration": 0.09772727272727266,
                "tempo": 120.0
            },
            {
                "start_time": 6.465909090909091,
                "end_time": 6.5636363636363635,
                "pitch": 58,
                "velocity": 51,
                "duration": 0.09772727272727266,
                "tempo": 120.0
            },
            {
                "start_time": 6.581818181818181,
                "end_time": 6.679545454545454,
                "pitch": 63,
                "velocity": 51,
                "duration": 0.09772727272727266,
                "tempo": 120.0
            },
            {
                "start_time": 6.695454545454545,
                "end_time": 6.795454545454545,
                "pitch": 65,
                "velocity": 51,
                "duration": 0.09999999999999964,
                "tempo": 120.0
            },
            {
                "start_time": 6.8136363636363635,
                "end_time": 6.913636363636363,
                "pitch": 66,
                "velocity": 51,
                "duration": 0.09999999999999964,
                "tempo": 120.0
            },
            {
                "start_time": 6.929545454545454,
                "end_time": 7.029545454545454,
                "pitch": 68,
                "velocity": 51,
                "duration": 0.10000000000000053,
                "tempo": 120.0
            },
            {
                "start_time": 7.047727272727272,
                "end_time": 7.1477272727272725,
                "pitch": 70,
                "velocity": 51,
                "duration": 0.10000000000000053,
                "tempo": 120.0
            },
            {
                "start_time": 7.163636363636363,
                "end_time": 7.265909090909091,
                "pitch": 70,
                "velocity": 51,
                "duration": 0.10227272727272751,
                "tempo": 120.0
            },
            {
                "start_time": 7.281818181818181,
                "end_time": 7.381818181818182,
                "pitch": 73,
                "velocity": 51,
                "duration": 0.10000000000000053,
                "tempo": 120.0
            },
            {
                "start_time": 7.3999999999999995,
                "end_time": 7.5,
                "pitch": 47,
                "velocity": 51,
                "duration": 0.10000000000000053,
                "tempo": 120.0
            },
            {
                "start_time": 7.515909090909091,
                "end_time": 7.61590909090909,
                "pitch": 47,
                "velocity": 51,
                "duration": 0.09999999999999964,
                "tempo": 120.0
            },
            {
                "start_time": 7.634090909090909,
                "end_time": 7.852272727272727,
                "pitch": 59,
                "velocity": 51,
                "duration": 0.2181818181818178,
                "tempo": 120.0
            },
            {
                "start_time": 7.868181818181818,
                "end_time": 7.968181818181818,
                "pitch": 47,
                "velocity": 51,
                "duration": 0.09999999999999964,
                "tempo": 120.0
            },
            {
                "start_time": 7.986363636363636,
                "end_time": 8.315909090909091,
                "pitch": 58,
                "velocity": 51,
                "duration": 0.32954545454545503,
                "tempo": 120.0
            },
            {
                "start_time": 8.331818181818182,
                "end_time": 8.429545454545455,
                "pitch": 49,
                "velocity": 51,
                "duration": 0.09772727272727266,
                "tempo": 120.0
            },
            {
                "start_time": 8.445454545454545,
                "end_time": 8.545454545454545,
                "pitch": 49,
                "velocity": 51,
                "duration": 0.09999999999999964,
                "tempo": 120.0
            },
            {
                "start_time": 8.561363636363636,
                "end_time": 8.777272727272727,
                "pitch": 61,
                "velocity": 51,
                "duration": 0.21590909090909172,
                "tempo": 120.0
            },
            {
                "start_time": 8.795454545454545,
                "end_time": 8.895454545454545,
                "pitch": 49,
                "velocity": 51,
                "duration": 0.09999999999999964,
                "tempo": 120.0
            },
            {
                "start_time": 8.911363636363635,
                "end_time": 9.247727272727273,
                "pitch": 61,
                "velocity": 51,
                "duration": 0.33636363636363775,
                "tempo": 120.0
            },
            {
                "start_time": 9.263636363636364,
                "end_time": 9.363636363636363,
                "pitch": 46,
                "velocity": 51,
                "duration": 0.09999999999999964,
                "tempo": 120.0
            },
            {
                "start_time": 9.381818181818181,
                "end_time": 9.48181818181818,
                "pitch": 46,
                "velocity": 51,
                "duration": 0.09999999999999964,
                "tempo": 120.0
            },
            {
                "start_time": 9.497727272727273,
                "end_time": 9.711363636363636,
                "pitch": 58,
                "velocity": 51,
                "duration": 0.21363636363636296,
                "tempo": 120.0
            },
            {
                "start_time": 9.727272727272727,
                "end_time": 9.825,
                "pitch": 46,
                "velocity": 51,
                "duration": 0.09772727272727266,
                "tempo": 120.0
            },
            {
                "start_time": 9.843181818181817,
                "end_time": 9.94090909090909,
                "pitch": 58,
                "velocity": 51,
                "duration": 0.09772727272727266,
                "tempo": 120.0
            },
            {
                "start_time": 9.956818181818182,
                "end_time": 10.056818181818182,
                "pitch": 46,
                "velocity": 51,
                "duration": 0.09999999999999964,
                "tempo": 120.0
            },
            {
                "start_time": 10.075,
                "end_time": 10.174999999999999,
                "pitch": 46,
                "velocity": 51,
                "duration": 0.09999999999999964,
                "tempo": 120.0
            },
            {
                "start_time": 10.19090909090909,
                "end_time": 10.290909090909091,
                "pitch": 46,
                "velocity": 51,
                "duration": 0.10000000000000142,
                "tempo": 120.0
            },
            {
                "start_time": 10.309090909090909,
                "end_time": 10.409090909090908,
                "pitch": 46,
                "velocity": 51,
                "duration": 0.09999999999999964,
                "tempo": 120.0
            },
            {
                "start_time": 10.424999999999999,
                "end_time": 10.643181818181818,
                "pitch": 58,
                "velocity": 51,
                "duration": 0.2181818181818187,
                "tempo": 120.0
            },
            {
                "start_time": 10.661363636363635,
                "end_time": 10.761363636363637,
                "pitch": 46,
                "velocity": 51,
                "duration": 0.10000000000000142,
                "tempo": 120.0
            },
            {
                "start_time": 10.777272727272727,
                "end_time": 10.877272727272727,
                "pitch": 58,
                "velocity": 51,
                "duration": 0.09999999999999964,
                "tempo": 120.0
            },
            {
                "start_time": 10.895454545454545,
                "end_time": 10.993181818181817,
                "pitch": 46,
                "velocity": 51,
                "duration": 0.09772727272727266,
                "tempo": 120.0
            },
            {
                "start_time": 11.009090909090908,
                "end_time": 11.10681818181818,
                "pitch": 46,
                "velocity": 51,
                "duration": 0.09772727272727266,
                "tempo": 120.0
            },
            {
                "start_time": 11.125,
                "end_time": 11.222727272727273,
                "pitch": 46,
                "velocity": 51,
                "duration": 0.09772727272727266,
                "tempo": 120.0
            },
            {
                "start_time": 11.238636363636363,
                "end_time": 11.336363636363636,
                "pitch": 46,
                "velocity": 51,
                "duration": 0.09772727272727266,
                "tempo": 120.0
            },
            {
                "start_time": 11.352272727272727,
                "end_time": 11.570454545454545,
                "pitch": 58,
                "velocity": 51,
                "duration": 0.2181818181818187,
                "tempo": 120.0
            },
            {
                "start_time": 11.586363636363636,
                "end_time": 11.688636363636363,
                "pitch": 46,
                "velocity": 51,
                "duration": 0.10227272727272663,
                "tempo": 120.0
            },
            {
                "start_time": 11.704545454545453,
                "end_time": 11.804545454545455,
                "pitch": 58,
                "velocity": 51,
                "duration": 0.10000000000000142,
                "tempo": 120.0
            },
            {
                "start_time": 11.822727272727272,
                "end_time": 11.920454545454545,
                "pitch": 46,
                "velocity": 51,
                "duration": 0.09772727272727266,
                "tempo": 120.0
            },
            {
                "start_time": 11.936363636363636,
                "end_time": 12.034090909090908,
                "pitch": 46,
                "velocity": 51,
                "duration": 0.09772727272727266,
                "tempo": 120.0
            },
            {
                "start_time": 12.049999999999999,
                "end_time": 12.149999999999999,
                "pitch": 70,
                "velocity": 51,
                "duration": 0.09999999999999964,
                "tempo": 120.0
            },
            {
                "start_time": 12.165909090909091,
                "end_time": 12.263636363636364,
                "pitch": 61,
                "velocity": 51,
                "duration": 0.09772727272727266,
                "tempo": 120.0
            },
            {
                "start_time": 12.279545454545454,
                "end_time": 12.379545454545454,
                "pitch": 65,
                "velocity": 51,
                "duration": 0.09999999999999964,
                "tempo": 120.0
            },
            {
                "start_time": 12.397727272727272,
                "end_time": 12.497727272727271,
                "pitch": 70,
                "velocity": 51,
                "duration": 0.09999999999999964,
                "tempo": 120.0
            },
            {
                "start_time": 12.513636363636364,
                "end_time": 12.61590909090909,
                "pitch": 61,
                "velocity": 51,
                "duration": 0.10227272727272663,
                "tempo": 120.0
            },
            {
                "start_time": 12.631818181818181,
                "end_time": 12.73181818181818,
                "pitch": 65,
                "velocity": 51,
                "duration": 0.09999999999999964,
                "tempo": 120.0
            },
            {
                "start_time": 12.75,
                "end_time": 12.85,
                "pitch": 70,
                "velocity": 51,
                "duration": 0.09999999999999964,
                "tempo": 120.0
            },
            {
                "start_time": 12.86590909090909,
                "end_time": 12.96590909090909,
                "pitch": 73,
                "velocity": 51,
                "duration": 0.09999999999999964,
                "tempo": 120.0
            },
            {
                "start_time": 12.984090909090908,
                "end_time": 13.084090909090909,
                "pitch": 58,
                "velocity": 51,
                "duration": 0.10000000000000142,
                "tempo": 120.0
            },
            {
                "start_time": 13.1,
                "end_time": 13.202272727272726,
                "pitch": 59,
                "velocity": 51,
                "duration": 0.10227272727272663,
                "tempo": 120.0
            },
            {
                "start_time": 13.218181818181817,
                "end_time": 13.318181818181818,
                "pitch": 65,
                "velocity": 51,
                "duration": 0.10000000000000142,
                "tempo": 120.0
            }
        ]
    }
}