{
    "track_id": "Ys (FM) - 08 - Palace of Destruction",
    "mood": "angry",
    "instruments": {
        "Violin": [
            {
                "start_time": 0.011363636363636364,
                "end_time": 0.045454545454545456,
                "pitch": 66,
                "velocity": 127,
                "duration": 0.03409090909090909,
                "tempo": 120.0
            },
            {
                "start_time": 0.07727272727272727,
                "end_time": 0.575,
                "pitch": 57,
                "velocity": 127,
                "duration": 0.4977272727272727,
                "tempo": 120.0
            },
            {
                "start_time": 0.6068181818181818,
                "end_time": 1.0818181818181818,
                "pitch": 58,
                "velocity": 127,
                "duration": 0.475,
                "tempo": 120.0
            },
            {
                "start_time": 1.115909090909091,
                "end_time": 1.6159090909090907,
                "pitch": 64,
                "velocity": 127,
                "duration": 0.4999999999999998,
                "tempo": 120.0
            },
            {
                "start_time": 1.65,
                "end_time": 2.1522727272727273,
                "pitch": 69,
                "velocity": 127,
                "duration": 0.5022727272727274,
                "tempo": 120.0
            },
            {
                "start_time": 2.186363636363636,
                "end_time": 2.6954545454545453,
                "pitch": 70,
                "velocity": 127,
                "duration": 0.5090909090909093,
                "tempo": 120.0
            },
            {
                "start_time": 2.7295454545454545,
                "end_time": 3.2295454545454545,
                "pitch": 76,
                "velocity": 127,
                "duration": 0.5,
                "tempo": 120.0
            },
            {
                "start_time": 3.2636363636363637,
                "end_time": 3.7659090909090907,
                "pitch": 81,
                "velocity": 127,
                "duration": 0.502272727272727,
                "tempo": 120.0
            },
            {
                "start_time": 3.8,
                "end_time": 4.309090909090909,
                "pitch": 82,
                "velocity": 127,
                "duration": 0.5090909090909088,
                "tempo": 120.0
            },
            {
                "start_time": 4.340909090909091,
                "end_time": 4.843181818181818,
                "pitch": 57,
                "velocity": 127,
                "duration": 0.502272727272727,
                "tempo": 120.0
            },
            {
                "start_time": 4.875,
                "end_time": 5.377272727272727,
                "pitch": 58,
                "velocity": 127,
                "duration": 0.502272727272727,
                "tempo": 120.0
            },
            {
                "start_time": 5.411363636363636,
                "end_time": 5.920454545454545,
                "pitch": 64,
                "velocity": 127,
                "duration": 0.5090909090909088,
                "tempo": 120.0
            },
            {
                "start_time": 5.954545454545454,
                "end_time": 6.454545454545454,
                "pitch": 69,
                "velocity": 127,
                "duration": 0.5,
                "tempo": 120.0
            },
            {
                "start_time": 6.488636363636363,
                "end_time": 6.99090909090909,
                "pitch": 70,
                "velocity": 127,
                "duration": 0.502272727272727,
                "tempo": 120.0
            },
            {
                "start_time": 7.0249999999999995,
                "end_time": 7.534090909090908,
                "pitch": 76,
                "velocity": 127,
                "duration": 0.5090909090909088,
                "tempo": 120.0
            },
            {
                "start_time": 7.5659090909090905,
                "end_time": 8.068181818181818,
                "pitch": 81,
                "velocity": 127,
                "duration": 0.5022727272727279,
                "tempo": 120.0
            },
            {
                "start_time": 8.102272727272727,
                "end_time": 10.934090909090909,
                "pitch": 82,
                "velocity": 127,
                "duration": 2.831818181818182,
                "tempo": 120.0
            },
            {
                "start_time": 10.934090909090909,
                "end_time": 11.018181818181818,
                "pitch": 82,
                "velocity": 127,
                "duration": 0.084090909090909,
                "tempo": 120.0
            },
            {
                "start_time": 11.061363636363636,
                "end_time": 11.475,
                "pitch": 67,
                "velocity": 127,
                "duration": 0.413636363636364,
                "tempo": 120.0
            },
            {
                "start_time": 11.506818181818181,
                "end_time": 11.875,
                "pitch": 65,
                "velocity": 127,
                "duration": 0.36818181818181905,
                "tempo": 120.0
            },
            {
                "start_time": 11.909090909090908,
                "end_time": 12.274999999999999,
                "pitch": 64,
                "velocity": 127,
                "duration": 0.3659090909090903,
                "tempo": 120.0
            },
            {
                "start_time": 12.309090909090909,
                "end_time": 12.681818181818182,
                "pitch": 62,
                "velocity": 127,
                "duration": 0.372727272727273,
                "tempo": 120.0
            },
            {
                "start_time": 12.71590909090909,
                "end_time": 12.818181818181818,
                "pitch": 64,
                "velocity": 127,
                "duration": 0.1022727272727284,
                "tempo": 120.0
            },
            {
                "start_time": 12.852272727272727,
                "end_time": 12.952272727272726,
                "pitch": 60,
                "velocity": 127,
                "duration": 0.09999999999999964,
                "tempo": 120.0
            },
            {
                "start_time": 12.986363636363636,
                "end_time": 13.086363636363636,
                "pitch": 62,
                "velocity": 127,
                "duration": 0.09999999999999964,
                "tempo": 120.0
            },
            {
                "start_time": 13.120454545454544,
                "end_time": 13.220454545454546,
                "pitch": 64,
                "velocity": 127,
                "duration": 0.10000000000000142,
                "tempo": 120.0
            },
            {
                "start_time": 13.254545454545454,
                "end_time": 13.620454545454544,
                "pitch": 60,
                "velocity": 127,
                "duration": 0.3659090909090903,
                "tempo": 120.0
            },
            {
                "start_time": 13.654545454545454,
                "end_time": 14.022727272727272,
                "pitch": 58,
                "velocity": 127,
                "duration": 0.3681818181818173,
                "tempo": 120.0
            },
            {
                "start_time": 14.056818181818182,
                "end_time": 14.431818181818182,
                "pitch": 62,
                "velocity": 127,
                "duration": 0.375,
                "tempo": 120.0
            },
            {
                "start_time": 14.46590909090909,
                "end_time": 14.834090909090909,
                "pitch": 58,
                "velocity": 127,
                "duration": 0.36818181818181905,
                "tempo": 120.0
            },
            {
                "start_time": 14.86590909090909,
                "end_time": 15.1,
                "pitch": 57,
                "velocity": 127,
                "duration": 0.23409090909090935,
                "tempo": 120.0
            },
            {
                "start_time": 15.134090909090908,
                "end_time": 15.368181818181817,
                "pitch": 55,
                "velocity": 127,
                "duration": 0.23409090909090935,
                "tempo": 120.0
            },
            {
                "start_time": 15.399999999999999,
                "end_time": 15.772727272727272,
                "pitch": 67,
                "velocity": 127,
                "duration": 0.372727272727273,
                "tempo": 120.0
            },
            {
                "start_time": 15.806818181818182,
                "end_time": 16.179545454545455,
                "pitch": 65,
                "velocity": 127,
                "duration": 0.372727272727273,
                "tempo": 120.0
            },
            {
                "start_time": 16.211363636363636,
                "end_time": 16.579545454545453,
                "pitch": 64,
                "velocity": 127,
                "duration": 0.3681818181818173,
                "tempo": 120.0
            },
            {
                "start_time": 16.613636363636363,
                "end_time": 16.979545454545455,
                "pitch": 62,
                "velocity": 127,
                "duration": 0.36590909090909207,
                "tempo": 120.0
            },
            {
                "start_time": 17.013636363636362,
                "end_time": 17.24772727272727,
                "pitch": 64,
                "velocity": 127,
                "duration": 0.23409090909090935,
                "tempo": 120.0
            },
            {
                "start_time": 17.28181818181818,
                "end_time": 17.520454545454545,
                "pitch": 65,
                "velocity": 127,
                "duration": 0.2386363636363633,
                "tempo": 120.0
            },
            {
                "start_time": 17.554545454545455,
                "end_time": 17.925,
                "pitch": 67,
                "velocity": 127,
                "duration": 0.37045454545454604,
                "tempo": 120.0
            },
            {
                "start_time": 17.959090909090907,
                "end_time": 18.325,
                "pitch": 69,
                "velocity": 127,
                "duration": 0.36590909090909207,
                "tempo": 120.0
            },
            {
                "start_time": 18.35909090909091,
                "end_time": 18.727272727272727,
                "pitch": 70,
                "velocity": 127,
                "duration": 0.3681818181818173,
                "tempo": 120.0
            },
            {
                "start_time": 18.759090909090908,
                "end_time": 19.134090909090908,
                "pitch": 72,
                "velocity": 127,
                "duration": 0.375,
                "tempo": 120.0
            },
            {
                "start_time": 19.168181818181818,
                "end_time": 19.404545454545453,
                "pitch": 74,
                "velocity": 127,
                "duration": 0.23636363636363455,
                "tempo": 120.0
            },
            {
                "start_time": 19.438636363636363,
                "end_time": 19.670454545454543,
                "pitch": 76,
                "velocity": 127,
                "duration": 0.2318181818181806,
                "tempo": 120.0
            },
            {
                "start_time": 19.704545454545453,
                "end_time": 20.07272727272727,
                "pitch": 79,
                "velocity": 127,
                "duration": 0.3681818181818173,
                "tempo": 120.0
            },
            {
                "start_time": 20.104545454545452,
                "end_time": 21.284090909090907,
                "pitch": 77,
                "velocity": 127,
                "duration": 1.1795454545454547,
                "tempo": 120.0
            },
            {
                "start_time": 21.318181818181817,
                "end_time": 21.818181818181817,
                "pitch": 76,
                "velocity": 127,
                "duration": 0.5,
                "tempo": 120.0
            },
            {
                "start_time": 21.852272727272727,
                "end_time": 22.222727272727273,
                "pitch": 79,
                "velocity": 127,
                "duration": 0.37045454545454604,
                "tempo": 120.0
            },
            {
                "start_time": 22.25681818181818,
                "end_time": 23.43181818181818,
                "pitch": 77,
                "velocity": 127,
                "duration": 1.1750000000000007,
                "tempo": 120.0
            },
            {
                "start_time": 23.46363636363636,
                "end_time": 23.970454545454544,
                "pitch": 76,
                "velocity": 127,
                "duration": 0.5068181818181827,
                "tempo": 120.0
            },
            {
                "start_time": 24.004545454545454,
                "end_time": 24.375,
                "pitch": 79,
                "velocity": 127,
                "duration": 0.37045454545454604,
                "tempo": 120.0
            },
            {
                "start_time": 24.409090909090907,
                "end_time": 25.584090909090907,
                "pitch": 77,
                "velocity": 127,
                "duration": 1.1750000000000007,
                "tempo": 120.0
            },
            {
                "start_time": 25.618181818181817,
                "end_time": 26.12272727272727,
                "pitch": 76,
                "velocity": 127,
                "duration": 0.504545454545454,
                "tempo": 120.0
            },
            {
                "start_time": 26.154545454545453,
                "end_time": 26.52272727272727,
                "pitch": 77,
                "velocity": 127,
                "duration": 0.3681818181818173,
                "tempo": 120.0
            },
            {
                "start_time": 26.55681818181818,
                "end_time": 26.924999999999997,
                "pitch": 74,
                "velocity": 127,
                "duration": 0.3681818181818173,
                "tempo": 120.0
            },
            {
                "start_time": 26.959090909090907,
                "end_time": 27.19772727272727,
                "pitch": 77,
                "velocity": 127,
                "duration": 0.2386363636363633,
                "tempo": 120.0
            },
            {
                "start_time": 27.23181818181818,
                "end_time": 27.73409090909091,
                "pitch": 79,
                "velocity": 127,
                "duration": 0.5022727272727288,
                "tempo": 120.0
            },
            {
                "start_time": 27.768181818181816,
                "end_time": 28.002272727272725,
                "pitch": 81,
                "velocity": 127,
                "duration": 0.23409090909090935,
                "tempo": 120.0
            },
            {
                "start_time": 28.036363636363635,
                "end_time": 28.270454545454545,
                "pitch": 84,
                "velocity": 127,
                "duration": 0.23409090909090935,
                "tempo": 120.0
            },
            {
                "start_time": 28.302272727272726,
                "end_time": 29.48181818181818,
                "pitch": 86,
                "velocity": 127,
                "duration": 1.1795454545454547,
                "tempo": 120.0
            },
            {
                "start_time": 29.513636363636362,
                "end_time": 29.61590909090909,
                "pitch": 88,
                "velocity": 127,
                "duration": 0.10227272727272663,
                "tempo": 120.0
            },
            {
                "start_time": 29.64772727272727,
                "end_time": 29.74772727272727,
                "pitch": 89,
                "velocity": 127,
                "duration": 0.10000000000000142,
                "tempo": 120.0
            },
            {
                "start_time": 29.78181818181818,
                "end_time": 29.88181818181818,
                "pitch": 91,
                "velocity": 127,
                "duration": 0.09999999999999787,
                "tempo": 120.0
            },
            {
                "start_time": 29.91590909090909,
                "end_time": 30.01590909090909,
                "pitch": 93,
                "velocity": 127,
                "duration": 0.10000000000000142,
                "tempo": 120.0
            },
            {
                "start_time": 30.049999999999997,
                "end_time": 30.15,
                "pitch": 91,
                "velocity": 127,
                "duration": 0.10000000000000142,
                "tempo": 120.0
            },
            {
                "start_time": 30.18409090909091,
                "end_time": 30.286363636363635,
                "pitch": 89,
                "velocity": 127,
                "duration": 0.10227272727272663,
                "tempo": 120.0
            },
            {
                "start_time": 30.320454545454545,
                "end_time": 30.422727272727272,
                "pitch": 88,
                "velocity": 127,
                "duration": 0.10227272727272663,
                "tempo": 120.0
            },
            {
                "start_time": 30.456818181818182,
                "end_time": 30.827272727272724,
                "pitch": 86,
                "velocity": 127,
                "duration": 0.3704545454545425,
                "tempo": 120.0
            },
            {
                "start_time": 30.85909090909091,
                "end_time": 31.227272727272727,
                "pitch": 88,
                "velocity": 127,
                "duration": 0.3681818181818173,
                "tempo": 120.0
            },
            {
                "start_time": 31.261363636363633,
                "end_time": 31.495454545454542,
                "pitch": 84,
                "velocity": 127,
                "duration": 0.23409090909090935,
                "tempo": 120.0
            },
            {
                "start_time": 31.527272727272727,
                "end_time": 32.57272727272727,
                "pitch": 86,
                "velocity": 127,
                "duration": 1.0454545454545432,
                "tempo": 120.0
            },
            {
                "start_time": 32.60681818181818,
                "end_time": 33.64772727272727,
                "pitch": 74,
                "velocity": 127,
                "duration": 1.0409090909090963,
                "tempo": 120.0
            },
            {
                "start_time": 33.68181818181818,
                "end_time": 33.78409090909091,
                "pitch": 70,
                "velocity": 127,
                "duration": 0.10227272727272663,
                "tempo": 120.0
            },
            {
                "start_time": 33.81818181818181,
                "end_time": 33.918181818181814,
                "pitch": 72,
                "velocity": 127,
                "duration": 0.10000000000000142,
                "tempo": 120.0
            },
            {
                "start_time": 33.95227272727273,
                "end_time": 34.05227272727272,
                "pitch": 74,
                "velocity": 127,
                "duration": 0.09999999999999432,
                "tempo": 120.0
            },
            {
                "start_time": 34.086363636363636,
                "end_time": 34.18636363636364,
                "pitch": 76,
                "velocity": 127,
                "duration": 0.10000000000000142,
                "tempo": 120.0
            },
            {
                "start_time": 34.21818181818182,
                "end_time": 34.320454545454545,
                "pitch": 77,
                "velocity": 127,
                "duration": 0.10227272727272663,
                "tempo": 120.0
            },
            {
                "start_time": 34.35227272727273,
                "end_time": 34.45227272727273,
                "pitch": 79,
                "velocity": 127,
                "duration": 0.10000000000000142,
                "tempo": 120.0
            },
            {
                "start_time": 34.486363636363635,
                "end_time": 34.586363636363636,
                "pitch": 81,
                "velocity": 127,
                "duration": 0.10000000000000142,
                "tempo": 120.0
            },
            {
                "start_time": 34.62045454545454,
                "end_time": 34.720454545454544,
                "pitch": 82,
                "velocity": 127,
                "duration": 0.10000000000000142,
                "tempo": 120.0
            },
            {
                "start_time": 34.75454545454545,
                "end_time": 34.89545454545454,
                "pitch": 81,
                "velocity": 127,
                "duration": 0.14090909090909065,
                "tempo": 120.0
            },
            {
                "start_time": 34.91136363636363,
                "end_time": 35.05681818181818,
                "pitch": 77,
                "velocity": 127,
                "duration": 0.14545454545454817,
                "tempo": 120.0
            },
            {
                "start_time": 35.070454545454545,
                "end_time": 35.20227272727273,
                "pitch": 74,
                "velocity": 127,
                "duration": 0.13181818181818272,
                "tempo": 120.0
            },
            {
                "start_time": 35.22954545454545,
                "end_time": 35.36818181818182,
                "pitch": 69,
                "velocity": 127,
                "duration": 0.13863636363636545,
                "tempo": 120.0
            },
            {
                "start_time": 35.38636363636363,
                "end_time": 35.55,
                "pitch": 74,
                "velocity": 127,
                "duration": 0.16363636363636402,
                "tempo": 120.0
            },
            {
                "start_time": 35.56590909090909,
                "end_time": 35.71363636363636,
                "pitch": 77,
                "velocity": 127,
                "duration": 0.14772727272727337,
                "tempo": 120.0
            },
            {
                "start_time": 35.74545454545454,
                "end_time": 35.89545454545454,
                "pitch": 81,
                "velocity": 127,
                "duration": 0.14999999999999858,
                "tempo": 120.0
            },
            {
                "start_time": 35.913636363636364,
                "end_time": 36.08409090909091,
                "pitch": 76,
                "velocity": 127,
                "duration": 0.17045454545454675,
                "tempo": 120.0
            },
            {
                "start_time": 36.1,
                "end_time": 36.252272727272725,
                "pitch": 73,
                "velocity": 127,
                "duration": 0.15227272727272378,
                "tempo": 120.0
            },
            {
                "start_time": 36.28636363636363,
                "end_time": 36.43863636363636,
                "pitch": 69,
                "velocity": 127,
                "duration": 0.1522727272727309,
                "tempo": 120.0
            },
            {
                "start_time": 36.45681818181818,
                "end_time": 36.62272727272727,
                "pitch": 73,
                "velocity": 127,
                "duration": 0.16590909090908923,
                "tempo": 120.0
            },
            {
                "start_time": 36.63863636363636,
                "end_time": 36.788636363636364,
                "pitch": 76,
                "velocity": 127,
                "duration": 0.15000000000000568,
                "tempo": 120.0
            },
            {
                "start_time": 36.82272727272727,
                "end_time": 37.225,
                "pitch": 67,
                "velocity": 127,
                "duration": 0.4022727272727309,
                "tempo": 120.0
            },
            {
                "start_time": 37.26363636363636,
                "end_time": 37.68636363636364,
                "pitch": 65,
                "velocity": 127,
                "duration": 0.42272727272727906,
                "tempo": 120.0
            },
            {
                "start_time": 37.71818181818182,
                "end_time": 38.086363636363636,
                "pitch": 64,
                "velocity": 127,
                "duration": 0.3681818181818173,
                "tempo": 120.0
            },
            {
                "start_time": 38.12045454545454,
                "end_time": 38.49318181818182,
                "pitch": 62,
                "velocity": 127,
                "duration": 0.3727272727272748,
                "tempo": 120.0
            },
            {
                "start_time": 38.527272727272724,
                "end_time": 38.62954545454545,
                "pitch": 64,
                "velocity": 127,
                "duration": 0.10227272727272663,
                "tempo": 120.0
            },
            {
                "start_time": 38.663636363636364,
                "end_time": 38.76363636363636,
                "pitch": 60,
                "velocity": 127,
                "duration": 0.09999999999999432,
                "tempo": 120.0
            },
            {
                "start_time": 38.79772727272727,
                "end_time": 38.89772727272727,
                "pitch": 62,
                "velocity": 127,
                "duration": 0.10000000000000142,
                "tempo": 120.0
            },
            {
                "start_time": 38.93181818181818,
                "end_time": 39.03181818181818,
                "pitch": 64,
                "velocity": 127,
                "duration": 0.10000000000000142,
                "tempo": 120.0
            },
            {
                "start_time": 39.06363636363636,
                "end_time": 39.43181818181818,
                "pitch": 60,
                "velocity": 127,
                "duration": 0.3681818181818173,
                "tempo": 120.0
            },
            {
                "start_time": 39.465909090909086,
                "end_time": 39.834090909090904,
                "pitch": 58,
                "velocity": 127,
                "duration": 0.3681818181818173,
                "tempo": 120.0
            },
            {
                "start_time": 39.86818181818182,
                "end_time": 40.24090909090909,
                "pitch": 62,
                "velocity": 127,
                "duration": 0.3727272727272748,
                "tempo": 120.0
            },
            {
                "start_time": 40.275,
                "end_time": 40.643181818181816,
                "pitch": 58,
                "velocity": 127,
                "duration": 0.3681818181818173,
                "tempo": 120.0
            },
            {
                "start_time": 40.67727272727272,
                "end_time": 40.91136363636363,
                "pitch": 57,
                "velocity": 127,
                "duration": 0.23409090909090935,
                "tempo": 120.0
            },
            {
                "start_time": 40.94318181818181,
                "end_time": 41.17727272727272,
                "pitch": 55,
                "velocity": 127,
                "duration": 0.23409090909090935,
                "tempo": 120.0
            },
            {
                "start_time": 41.211363636363636,
                "end_time": 41.58181818181818,
                "pitch": 67,
                "velocity": 127,
                "duration": 0.3704545454545425,
                "tempo": 120.0
            },
            {
                "start_time": 41.61590909090909,
                "end_time": 41.98863636363636,
                "pitch": 65,
                "velocity": 127,
                "duration": 0.3727272727272677,
                "tempo": 120.0
            },
            {
                "start_time": 42.02272727272727,
                "end_time": 42.39090909090909,
                "pitch": 64,
                "velocity": 127,
                "duration": 0.3681818181818173,
                "tempo": 120.0
            },
            {
                "start_time": 42.42272727272727,
                "end_time": 42.79090909090909,
                "pitch": 62,
                "velocity": 127,
                "duration": 0.3681818181818173,
                "tempo": 120.0
            },
            {
                "start_time": 42.824999999999996,
                "end_time": 43.059090909090905,
                "pitch": 64,
                "velocity": 127,
                "duration": 0.23409090909090935,
                "tempo": 120.0
            },
            {
                "start_time": 43.09318181818182,
                "end_time": 43.33181818181818,
                "pitch": 65,
                "velocity": 127,
                "duration": 0.23863636363635976,
                "tempo": 120.0
            },
            {
                "start_time": 43.36590909090909,
                "end_time": 43.736363636363635,
                "pitch": 67,
                "velocity": 127,
                "duration": 0.3704545454545425,
                "tempo": 120.0
            },
            {
                "start_time": 43.768181818181816,
                "end_time": 44.13636363636363,
                "pitch": 69,
                "velocity": 127,
                "duration": 0.3681818181818173,
                "tempo": 120.0
            },
            {
                "start_time": 44.17045454545455,
                "end_time": 44.53636363636363,
                "pitch": 67,
                "velocity": 127,
                "duration": 0.36590909090908497,
                "tempo": 120.0
            },
            {
                "start_time": 44.570454545454545,
                "end_time": 44.93863636363636,
                "pitch": 65,
                "velocity": 127,
                "duration": 0.3681818181818173,
                "tempo": 120.0
            },
            {
                "start_time": 44.970454545454544,
                "end_time": 45.20681818181818,
                "pitch": 64,
                "velocity": 127,
                "duration": 0.23636363636363455,
                "tempo": 120.0
            },
            {
                "start_time": 45.24090909090909,
                "end_time": 45.47727272727273,
                "pitch": 60,
                "velocity": 127,
                "duration": 0.23636363636363455,
                "tempo": 120.0
            },
            {
                "start_time": 45.51136363636363,
                "end_time": 45.88181818181818,
                "pitch": 64,
                "velocity": 127,
                "duration": 0.3704545454545496,
                "tempo": 120.0
            },
            {
                "start_time": 45.91590909090909,
                "end_time": 47.62954545454545,
                "pitch": 62,
                "velocity": 127,
                "duration": 1.7136363636363612,
                "tempo": 120.0
            },
            {
                "start_time": 47.66136363636363,
                "end_time": 49.775,
                "pitch": 74,
                "velocity": 127,
                "duration": 2.113636363636367,
                "tempo": 120.0
            },
            {
                "start_time": 49.809090909090905,
                "end_time": 51.19772727272727,
                "pitch": 86,
                "velocity": 127,
                "duration": 1.3886363636363654,
                "tempo": 120.0
            },
            {
                "start_time": 51.22727272727273,
                "end_time": 51.68636363636364,
                "pitch": 81,
                "velocity": 127,
                "duration": 0.45909090909091077,
                "tempo": 120.0
            },
            {
                "start_time": 51.720454545454544,
                "end_time": 51.87045454545454,
                "pitch": 84,
                "velocity": 127,
                "duration": 0.14999999999999858,
                "tempo": 120.0
            },
            {
                "start_time": 51.88863636363636,
                "end_time": 52.054545454545455,
                "pitch": 81,
                "velocity": 127,
                "duration": 0.16590909090909634,
                "tempo": 120.0
            },
            {
                "start_time": 52.070454545454545,
                "end_time": 52.22272727272727,
                "pitch": 79,
                "velocity": 127,
                "duration": 0.15227272727272378,
                "tempo": 120.0
            },
            {
                "start_time": 52.25681818181818,
                "end_time": 52.40909090909091,
                "pitch": 81,
                "velocity": 127,
                "duration": 0.15227272727272378,
                "tempo": 120.0
            },
            {
                "start_time": 52.42727272727272,
                "end_time": 52.59772727272727,
                "pitch": 79,
                "velocity": 127,
                "duration": 0.17045454545454675,
                "tempo": 120.0
            },
            {
                "start_time": 52.61363636363636,
                "end_time": 52.76590909090909,
                "pitch": 77,
                "velocity": 127,
                "duration": 0.1522727272727309,
                "tempo": 120.0
            },
            {
                "start_time": 52.8,
                "end_time": 52.949999999999996,
                "pitch": 79,
                "velocity": 127,
                "duration": 0.14999999999999858,
                "tempo": 120.0
            },
            {
                "start_time": 52.965909090909086,
                "end_time": 53.13181818181818,
                "pitch": 77,
                "velocity": 127,
                "duration": 0.16590909090909634,
                "tempo": 120.0
            },
            {
                "start_time": 53.15,
                "end_time": 53.3,
                "pitch": 76,
                "velocity": 127,
                "duration": 0.14999999999999858,
                "tempo": 120.0
            },
            {
                "start_time": 53.334090909090904,
                "end_time": 53.48409090909091,
                "pitch": 77,
                "velocity": 127,
                "duration": 0.15000000000000568,
                "tempo": 120.0
            },
            {
                "start_time": 53.5,
                "end_time": 53.668181818181814,
                "pitch": 76,
                "velocity": 127,
                "duration": 0.16818181818181444,
                "tempo": 120.0
            },
            {
                "start_time": 53.684090909090905,
                "end_time": 53.836363636363636,
                "pitch": 72,
                "velocity": 127,
                "duration": 0.1522727272727309,
                "tempo": 120.0
            },
            {
                "start_time": 53.87045454545454,
                "end_time": 54.24318181818182,
                "pitch": 74,
                "velocity": 127,
                "duration": 0.3727272727272748,
                "tempo": 120.0
            },
            {
                "start_time": 54.277272727272724,
                "end_time": 58.13863636363636,
                "pitch": 86,
                "velocity": 127,
                "duration": 3.8613636363636346,
                "tempo": 120.0
            },
            {
                "start_time": 58.17045454545454,
                "end_time": 59.215909090909086,
                "pitch": 74,
                "velocity": 127,
                "duration": 1.0454545454545467,
                "tempo": 120.0
            },
            {
                "start_time": 59.25,
                "end_time": 59.75,
                "pitch": 76,
                "velocity": 127,
                "duration": 0.5,
                "tempo": 120.0
            },
            {
                "start_time": 59.78409090909091,
                "end_time": 60.28636363636363,
                "pitch": 77,
                "velocity": 127,
                "duration": 0.5022727272727252,
                "tempo": 120.0
            },
            {
                "start_time": 60.320454545454545,
                "end_time": 61.36363636363636,
                "pitch": 79,
                "velocity": 127,
                "duration": 1.0431818181818144,
                "tempo": 120.0
            },
            {
                "start_time": 61.397727272727266,
                "end_time": 61.9,
                "pitch": 81,
                "velocity": 127,
                "duration": 0.5022727272727323,
                "tempo": 120.0
            },
            {
                "start_time": 61.934090909090905,
                "end_time": 62.44090909090909,
                "pitch": 82,
                "velocity": 127,
                "duration": 0.5068181818181827,
                "tempo": 120.0
            },
            {
                "start_time": 62.474999999999994,
                "end_time": 64.5909090909091,
                "pitch": 81,
                "velocity": 127,
                "duration": 2.115909090909099,
                "tempo": 120.0
            },
            {
                "start_time": 64.625,
                "end_time": 66.91363636363636,
                "pitch": 93,
                "velocity": 127,
                "duration": 2.288636363636357,
                "tempo": 120.0
            }
        ],
        "Electric Guitar (clean)": [
            {
                "start_time": 0.0,
                "end_time": 0.09545454545454544,
                "pitch": 33,
                "velocity": 64,
                "duration": 0.09545454545454544,
                "tempo": 120.0
            },
            {
                "start_time": 0.11136363636363636,
                "end_time": 0.22954545454545452,
                "pitch": 33,
                "velocity": 64,
                "duration": 0.11818181818181817,
                "tempo": 120.0
            },
            {
                "start_time": 0.24545454545454545,
                "end_time": 0.36136363636363633,
                "pitch": 33,
                "velocity": 64,
                "duration": 0.11590909090909088,
                "tempo": 120.0
            },
            {
                "start_time": 0.3795454545454545,
                "end_time": 0.4954545454545454,
                "pitch": 33,
                "velocity": 64,
                "duration": 0.1159090909090909,
                "tempo": 120.0
            },
            {
                "start_time": 0.5113636363636364,
                "end_time": 0.6227272727272727,
                "pitch": 33,
                "velocity": 64,
                "duration": 0.11136363636363633,
                "tempo": 120.0
            },
            {
                "start_time": 0.6386363636363636,
                "end_time": 0.7477272727272727,
                "pitch": 33,
                "velocity": 64,
                "duration": 0.10909090909090913,
                "tempo": 120.0
            },
            {
                "start_time": 0.7636363636363636,
                "end_time": 0.875,
                "pitch": 33,
                "velocity": 64,
                "duration": 0.11136363636363644,
                "tempo": 120.0
            },
            {
                "start_time": 0.8909090909090909,
                "end_time": 1.0,
                "pitch": 33,
                "velocity": 64,
                "duration": 0.10909090909090913,
                "tempo": 120.0
            },
            {
                "start_time": 1.0159090909090909,
                "end_time": 1.1318181818181818,
                "pitch": 33,
                "velocity": 64,
                "duration": 0.11590909090909096,
                "tempo": 120.0
            },
            {
                "start_time": 1.15,
                "end_time": 1.2659090909090909,
                "pitch": 33,
                "velocity": 64,
                "duration": 0.11590909090909096,
                "tempo": 120.0
            },
            {
                "start_time": 1.2818181818181817,
                "end_time": 1.4,
                "pitch": 33,
                "velocity": 64,
                "duration": 0.11818181818181817,
                "tempo": 120.0
            },
            {
                "start_time": 1.4159090909090908,
                "end_time": 1.534090909090909,
                "pitch": 33,
                "velocity": 64,
                "duration": 0.11818181818181817,
                "tempo": 120.0
            },
            {
                "start_time": 1.5499999999999998,
                "end_time": 1.6659090909090908,
                "pitch": 33,
                "velocity": 64,
                "duration": 0.11590909090909096,
                "tempo": 120.0
            },
            {
                "start_time": 1.684090909090909,
                "end_time": 1.7999999999999998,
                "pitch": 33,
                "velocity": 64,
                "duration": 0.11590909090909074,
                "tempo": 120.0
            },
            {
                "start_time": 1.8181818181818181,
                "end_time": 1.934090909090909,
                "pitch": 33,
                "velocity": 64,
                "duration": 0.11590909090909096,
                "tempo": 120.0
            },
            {
                "start_time": 1.95,
                "end_time": 2.068181818181818,
                "pitch": 33,
                "velocity": 64,
                "duration": 0.11818181818181794,
                "tempo": 120.0
            },
            {
                "start_time": 2.084090909090909,
                "end_time": 2.2045454545454546,
                "pitch": 33,
                "velocity": 64,
                "duration": 0.12045454545454559,
                "tempo": 120.0
            },
            {
                "start_time": 2.2204545454545452,
                "end_time": 2.3386363636363634,
                "pitch": 33,
                "velocity": 64,
                "duration": 0.11818181818181817,
                "tempo": 120.0
            },
            {
                "start_time": 2.356818181818182,
                "end_time": 2.475,
                "pitch": 33,
                "velocity": 64,
                "duration": 0.11818181818181817,
                "tempo": 120.0
            },
            {
                "start_time": 2.493181818181818,
                "end_time": 2.6113636363636363,
                "pitch": 33,
                "velocity": 64,
                "duration": 0.11818181818181817,
                "tempo": 120.0
            },
            {
                "start_time": 2.6295454545454544,
                "end_time": 2.745454545454545,
                "pitch": 33,
                "velocity": 64,
                "duration": 0.11590909090909074,
                "tempo": 120.0
            },
            {
                "start_time": 2.7613636363636362,
                "end_time": 2.8795454545454544,
                "pitch": 33,
                "velocity": 64,
                "duration": 0.11818181818181817,
                "tempo": 120.0
            },
            {
                "start_time": 2.8954545454545455,
                "end_time": 3.0136363636363637,
                "pitch": 33,
                "velocity": 64,
                "duration": 0.11818181818181817,
                "tempo": 120.0
            },
            {
                "start_time": 3.0295454545454543,
                "end_time": 3.1454545454545455,
                "pitch": 33,
                "velocity": 64,
                "duration": 0.11590909090909118,
                "tempo": 120.0
            },
            {
                "start_time": 3.1636363636363636,
                "end_time": 3.2795454545454543,
                "pitch": 33,
                "velocity": 64,
                "duration": 0.11590909090909074,
                "tempo": 120.0
            },
            {
                "start_time": 3.2954545454545454,
                "end_time": 3.4136363636363636,
                "pitch": 33,
                "velocity": 64,
                "duration": 0.11818181818181817,
                "tempo": 120.0
            },
            {
                "start_time": 3.4295454545454542,
                "end_time": 3.5477272727272724,
                "pitch": 33,
                "velocity": 64,
                "duration": 0.11818181818181817,
                "tempo": 120.0
            },
            {
                "start_time": 3.5636363636363635,
                "end_time": 3.6795454545454542,
                "pitch": 33,
                "velocity": 64,
                "duration": 0.11590909090909074,
                "tempo": 120.0
            },
            {
                "start_time": 3.6977272727272728,
                "end_time": 3.815909090909091,
                "pitch": 33,
                "velocity": 64,
                "duration": 0.11818181818181817,
                "tempo": 120.0
            },
            {
                "start_time": 3.834090909090909,
                "end_time": 3.952272727272727,
                "pitch": 33,
                "velocity": 64,
                "duration": 0.11818181818181817,
                "tempo": 120.0
            },
            {
                "start_time": 3.968181818181818,
                "end_time": 4.088636363636364,
                "pitch": 33,
                "velocity": 64,
                "duration": 0.12045454545454604,
                "tempo": 120.0
            },
            {
                "start_time": 4.1045454545454545,
                "end_time": 4.225,
                "pitch": 33,
                "velocity": 64,
                "duration": 0.12045454545454515,
                "tempo": 120.0
            },
            {
                "start_time": 4.24090909090909,
                "end_time": 4.3590909090909085,
                "pitch": 33,
                "velocity": 64,
                "duration": 0.11818181818181817,
                "tempo": 120.0
            },
            {
                "start_time": 4.375,
                "end_time": 4.49090909090909,
                "pitch": 33,
                "velocity": 64,
                "duration": 0.1159090909090903,
                "tempo": 120.0
            },
            {
                "start_time": 4.509090909090909,
                "end_time": 4.625,
                "pitch": 33,
                "velocity": 64,
                "duration": 0.11590909090909118,
                "tempo": 120.0
            },
            {
                "start_time": 4.640909090909091,
                "end_time": 4.759090909090909,
                "pitch": 33,
                "velocity": 64,
                "duration": 0.11818181818181817,
                "tempo": 120.0
            },
            {
                "start_time": 4.7749999999999995,
                "end_time": 4.893181818181818,
                "pitch": 33,
                "velocity": 64,
                "duration": 0.11818181818181817,
                "tempo": 120.0
            },
            {
                "start_time": 4.909090909090909,
                "end_time": 5.0249999999999995,
                "pitch": 33,
                "velocity": 64,
                "duration": 0.1159090909090903,
                "tempo": 120.0
            },
            {
                "start_time": 5.043181818181818,
                "end_time": 5.159090909090909,
                "pitch": 33,
                "velocity": 64,
                "duration": 0.11590909090909118,
                "tempo": 120.0
            },
            {
                "start_time": 5.177272727272727,
                "end_time": 5.293181818181818,
                "pitch": 33,
                "velocity": 64,
                "duration": 0.11590909090909118,
                "tempo": 120.0
            },
            {
                "start_time": 5.309090909090909,
                "end_time": 5.429545454545455,
                "pitch": 33,
                "velocity": 64,
                "duration": 0.12045454545454604,
                "tempo": 120.0
            },
            {
                "start_time": 5.445454545454545,
                "end_time": 5.5659090909090905,
                "pitch": 33,
                "velocity": 64,
                "duration": 0.12045454545454515,
                "tempo": 120.0
            },
            {
                "start_time": 5.581818181818181,
                "end_time": 5.699999999999999,
                "pitch": 33,
                "velocity": 64,
                "duration": 0.11818181818181817,
                "tempo": 120.0
            },
            {
                "start_time": 5.718181818181818,
                "end_time": 5.836363636363636,
                "pitch": 33,
                "velocity": 64,
                "duration": 0.11818181818181817,
                "tempo": 120.0
            },
            {
                "start_time": 5.8545454545454545,
                "end_time": 5.970454545454545,
                "pitch": 33,
                "velocity": 64,
                "duration": 0.1159090909090903,
                "tempo": 120.0
            },
            {
                "start_time": 5.986363636363636,
                "end_time": 6.1045454545454545,
                "pitch": 33,
                "velocity": 64,
                "duration": 0.11818181818181817,
                "tempo": 120.0
            },
            {
                "start_time": 6.120454545454545,
                "end_time": 6.238636363636363,
                "pitch": 33,
                "velocity": 64,
                "duration": 0.11818181818181817,
                "tempo": 120.0
            },
            {
                "start_time": 6.254545454545454,
                "end_time": 6.370454545454545,
                "pitch": 33,
                "velocity": 64,
                "duration": 0.11590909090909118,
                "tempo": 120.0
            },
            {
                "start_time": 6.388636363636364,
                "end_time": 6.504545454545454,
                "pitch": 33,
                "velocity": 64,
                "duration": 0.1159090909090903,
                "tempo": 120.0
            },
            {
                "start_time": 6.5227272727272725,
                "end_time": 6.638636363636364,
                "pitch": 33,
                "velocity": 64,
                "duration": 0.11590909090909118,
                "tempo": 120.0
            },
            {
                "start_time": 6.654545454545454,
                "end_time": 6.7727272727272725,
                "pitch": 33,
                "velocity": 64,
                "duration": 0.11818181818181817,
                "tempo": 120.0
            },
            {
                "start_time": 6.788636363636363,
                "end_time": 6.906818181818181,
                "pitch": 33,
                "velocity": 64,
                "duration": 0.11818181818181817,
                "tempo": 120.0
            },
            {
                "start_time": 6.922727272727272,
                "end_time": 7.040909090909091,
                "pitch": 33,
                "velocity": 64,
                "duration": 0.11818181818181905,
                "tempo": 120.0
            },
            {
                "start_time": 7.059090909090909,
                "end_time": 7.177272727272727,
                "pitch": 33,
                "velocity": 64,
                "duration": 0.11818181818181817,
                "tempo": 120.0
            },
            {
                "start_time": 7.195454545454545,
                "end_time": 7.3136363636363635,
                "pitch": 33,
                "velocity": 64,
                "duration": 0.11818181818181817,
                "tempo": 120.0
            },
            {
                "start_time": 7.329545454545454,
                "end_time": 7.449999999999999,
                "pitch": 33,
                "velocity": 64,
                "duration": 0.12045454545454515,
                "tempo": 120.0
            },
            {
                "start_time": 7.465909090909091,
                "end_time": 7.584090909090909,
                "pitch": 33,
                "velocity": 64,
                "duration": 0.11818181818181817,
                "tempo": 120.0
            },
            {
                "start_time": 7.6,
                "end_time": 7.718181818181818,
                "pitch": 33,
                "velocity": 64,
                "duration": 0.11818181818181817,
                "tempo": 120.0
            },
            {
                "start_time": 7.7340909090909085,
                "end_time": 7.85,
                "pitch": 33,
                "velocity": 64,
                "duration": 0.11590909090909118,
                "tempo": 120.0
            },
            {
                "start_time": 7.868181818181818,
                "end_time": 7.9840909090909085,
                "pitch": 33,
                "velocity": 64,
                "duration": 0.1159090909090903,
                "tempo": 120.0
            },
            {
                "start_time": 8.0,
                "end_time": 8.118181818181817,
                "pitch": 33,
                "velocity": 64,
                "duration": 0.11818181818181728,
                "tempo": 120.0
            },
            {
                "start_time": 8.134090909090908,
                "end_time": 8.252272727272727,
                "pitch": 33,
                "velocity": 64,
                "duration": 0.11818181818181905,
                "tempo": 120.0
            },
            {
                "start_time": 8.268181818181818,
                "end_time": 8.384090909090908,
                "pitch": 33,
                "velocity": 64,
                "duration": 0.1159090909090903,
                "tempo": 120.0
            },
            {
                "start_time": 8.402272727272727,
                "end_time": 8.518181818181818,
                "pitch": 33,
                "velocity": 64,
                "duration": 0.1159090909090903,
                "tempo": 120.0
            },
            {
                "start_time": 8.536363636363635,
                "end_time": 8.654545454545454,
                "pitch": 45,
                "velocity": 64,
                "duration": 0.11818181818181905,
                "tempo": 120.0
            },
            {
                "start_time": 8.670454545454545,
                "end_time": 8.790909090909091,
                "pitch": 33,
                "velocity": 64,
                "duration": 0.12045454545454604,
                "tempo": 120.0
            },
            {
                "start_time": 8.806818181818182,
                "end_time": 8.927272727272728,
                "pitch": 33,
                "velocity": 64,
                "duration": 0.12045454545454604,
                "tempo": 120.0
            },
            {
                "start_time": 8.943181818181818,
                "end_time": 9.061363636363636,
                "pitch": 33,
                "velocity": 64,
                "duration": 0.11818181818181728,
                "tempo": 120.0
            },
            {
                "start_time": 9.079545454545453,
                "end_time": 9.195454545454545,
                "pitch": 33,
                "velocity": 64,
                "duration": 0.11590909090909207,
                "tempo": 120.0
            },
            {
                "start_time": 9.213636363636363,
                "end_time": 9.329545454545453,
                "pitch": 45,
                "velocity": 64,
                "duration": 0.1159090909090903,
                "tempo": 120.0
            },
            {
                "start_time": 9.345454545454546,
                "end_time": 9.463636363636363,
                "pitch": 33,
                "velocity": 64,
                "duration": 0.11818181818181728,
                "tempo": 120.0
            },
            {
                "start_time": 9.479545454545454,
                "end_time": 9.597727272727273,
                "pitch": 33,
                "velocity": 64,
                "duration": 0.11818181818181905,
                "tempo": 120.0
            },
            {
                "start_time": 9.613636363636363,
                "end_time": 9.729545454545454,
                "pitch": 45,
                "velocity": 64,
                "duration": 0.1159090909090903,
                "tempo": 120.0
            },
            {
                "start_time": 9.747727272727273,
                "end_time": 9.895454545454545,
                "pitch": 33,
                "velocity": 64,
                "duration": 0.1477272727272716,
                "tempo": 120.0
            },
            {
                "start_time": 9.915909090909091,
                "end_time": 10.063636363636363,
                "pitch": 33,
                "velocity": 64,
                "duration": 0.1477272727272716,
                "tempo": 120.0
            },
            {
                "start_time": 10.086363636363636,
                "end_time": 10.23409090909091,
                "pitch": 33,
                "velocity": 64,
                "duration": 0.14772727272727337,
                "tempo": 120.0
            },
            {
                "start_time": 10.254545454545454,
                "end_time": 10.404545454545454,
                "pitch": 33,
                "velocity": 64,
                "duration": 0.15000000000000036,
                "tempo": 120.0
            },
            {
                "start_time": 10.424999999999999,
                "end_time": 10.572727272727272,
                "pitch": 45,
                "velocity": 64,
                "duration": 0.14772727272727337,
                "tempo": 120.0
            },
            {
                "start_time": 10.595454545454546,
                "end_time": 10.743181818181817,
                "pitch": 33,
                "velocity": 64,
                "duration": 0.1477272727272716,
                "tempo": 120.0
            },
            {
                "start_time": 10.763636363636364,
                "end_time": 10.911363636363635,
                "pitch": 33,
                "velocity": 64,
                "duration": 0.1477272727272716,
                "tempo": 120.0
            },
            {
                "start_time": 10.934090909090909,
                "end_time": 11.081818181818182,
                "pitch": 34,
                "velocity": 64,
                "duration": 0.14772727272727337,
                "tempo": 120.0
            },
            {
                "start_time": 11.102272727272727,
                "end_time": 11.252272727272727,
                "pitch": 34,
                "velocity": 64,
                "duration": 0.15000000000000036,
                "tempo": 120.0
            },
            {
                "start_time": 11.272727272727272,
                "end_time": 11.39090909090909,
                "pitch": 34,
                "velocity": 64,
                "duration": 0.11818181818181905,
                "tempo": 120.0
            },
            {
                "start_time": 11.406818181818181,
                "end_time": 11.524999999999999,
                "pitch": 34,
                "velocity": 64,
                "duration": 0.11818181818181728,
                "tempo": 120.0
            },
            {
                "start_time": 11.540909090909091,
                "end_time": 11.656818181818181,
                "pitch": 34,
                "velocity": 64,
                "duration": 0.1159090909090903,
                "tempo": 120.0
            },
            {
                "start_time": 11.674999999999999,
                "end_time": 11.790909090909091,
                "pitch": 34,
                "velocity": 64,
                "duration": 0.11590909090909207,
                "tempo": 120.0
            },
            {
                "start_time": 11.809090909090909,
                "end_time": 11.924999999999999,
                "pitch": 34,
                "velocity": 64,
                "duration": 0.1159090909090903,
                "tempo": 120.0
            },
            {
                "start_time": 11.94090909090909,
                "end_time": 12.059090909090909,
                "pitch": 34,
                "velocity": 64,
                "duration": 0.11818181818181905,
                "tempo": 120.0
            },
            {
                "start_time": 12.075,
                "end_time": 12.193181818181818,
                "pitch": 34,
                "velocity": 64,
                "duration": 0.11818181818181905,
                "tempo": 120.0
            },
            {
                "start_time": 12.209090909090909,
                "end_time": 12.325,
                "pitch": 34,
                "velocity": 64,
                "duration": 0.1159090909090903,
                "tempo": 120.0
            },
            {
                "start_time": 12.343181818181817,
                "end_time": 12.461363636363636,
                "pitch": 34,
                "velocity": 64,
                "duration": 0.11818181818181905,
                "tempo": 120.0
            },
            {
                "start_time": 12.479545454545454,
                "end_time": 12.597727272727273,
                "pitch": 34,
                "velocity": 64,
                "duration": 0.11818181818181905,
                "tempo": 120.0
            },
            {
                "start_time": 12.613636363636363,
                "end_time": 12.73409090909091,
                "pitch": 34,
                "velocity": 64,
                "duration": 0.12045454545454604,
                "tempo": 120.0
            },
            {
                "start_time": 12.75,
                "end_time": 12.870454545454544,
                "pitch": 34,
                "velocity": 64,
                "duration": 0.12045454545454426,
                "tempo": 120.0
            },
            {
                "start_time": 12.886363636363635,
                "end_time": 13.004545454545454,
                "pitch": 34,
                "velocity": 64,
                "duration": 0.11818181818181905,
                "tempo": 120.0
            },
            {
                "start_time": 13.020454545454545,
                "end_time": 13.136363636363635,
                "pitch": 34,
                "velocity": 64,
                "duration": 0.1159090909090903,
                "tempo": 120.0
            },
            {
                "start_time": 13.154545454545454,
                "end_time": 13.270454545454545,
                "pitch": 34,
                "velocity": 64,
                "duration": 0.1159090909090903,
                "tempo": 120.0
            },
            {
                "start_time": 13.286363636363635,
                "end_time": 13.404545454545454,
                "pitch": 34,
                "velocity": 64,
                "duration": 0.11818181818181905,
                "tempo": 120.0
            },
            {
                "start_time": 13.420454545454545,
                "end_time": 13.538636363636362,
                "pitch": 34,
                "velocity": 64,
                "duration": 0.11818181818181728,
                "tempo": 120.0
            },
            {
                "start_time": 13.554545454545455,
                "end_time": 13.670454545454545,
                "pitch": 34,
                "velocity": 64,
                "duration": 0.1159090909090903,
                "tempo": 120.0
            },
            {
                "start_time": 13.688636363636363,
                "end_time": 13.804545454545455,
                "pitch": 34,
                "velocity": 64,
                "duration": 0.11590909090909207,
                "tempo": 120.0
            },
            {
                "start_time": 13.822727272727272,
                "end_time": 13.938636363636363,
                "pitch": 34,
                "velocity": 64,
                "duration": 0.1159090909090903,
                "tempo": 120.0
            },
            {
                "start_time": 13.954545454545453,
                "end_time": 14.075,
                "pitch": 34,
                "velocity": 64,
                "duration": 0.12045454545454604,
                "tempo": 120.0
            },
            {
                "start_time": 14.09090909090909,
                "end_time": 14.209090909090909,
                "pitch": 34,
                "velocity": 64,
                "duration": 0.11818181818181905,
                "tempo": 120.0
            },
            {
                "start_time": 14.227272727272727,
                "end_time": 14.345454545454544,
                "pitch": 34,
                "velocity": 64,
                "duration": 0.11818181818181728,
                "tempo": 120.0
            },
            {
                "start_time": 14.363636363636363,
                "end_time": 14.48181818181818,
                "pitch": 34,
                "velocity": 64,
                "duration": 0.11818181818181728,
                "tempo": 120.0
            },
            {
                "start_time": 14.5,
                "end_time": 14.61590909090909,
                "pitch": 34,
                "velocity": 64,
                "duration": 0.1159090909090903,
                "tempo": 120.0
            },
            {
                "start_time": 14.631818181818181,
                "end_time": 14.75,
                "pitch": 34,
                "velocity": 64,
                "duration": 0.11818181818181905,
                "tempo": 120.0
            },
            {
                "start_time": 14.76590909090909,
                "end_time": 14.884090909090908,
                "pitch": 34,
                "velocity": 64,
                "duration": 0.11818181818181728,
                "tempo": 120.0
            },
            {
                "start_time": 14.899999999999999,
                "end_time": 15.01590909090909,
                "pitch": 34,
                "velocity": 64,
                "duration": 0.11590909090909207,
                "tempo": 120.0
            },
            {
                "start_time": 15.034090909090908,
                "end_time": 15.149999999999999,
                "pitch": 34,
                "velocity": 64,
                "duration": 0.1159090909090903,
                "tempo": 120.0
            },
            {
                "start_time": 15.168181818181818,
                "end_time": 15.284090909090908,
                "pitch": 34,
                "velocity": 64,
                "duration": 0.1159090909090903,
                "tempo": 120.0
            },
            {
                "start_time": 15.299999999999999,
                "end_time": 15.418181818181818,
                "pitch": 36,
                "velocity": 64,
                "duration": 0.11818181818181905,
                "tempo": 120.0
            },
            {
                "start_time": 15.434090909090909,
                "end_time": 15.552272727272726,
                "pitch": 36,
                "velocity": 64,
                "duration": 0.11818181818181728,
                "tempo": 120.0
            },
            {
                "start_time": 15.568181818181817,
                "end_time": 15.686363636363636,
                "pitch": 36,
                "velocity": 64,
                "duration": 0.11818181818181905,
                "tempo": 120.0
            },
            {
                "start_time": 15.704545454545453,
                "end_time": 15.822727272727272,
                "pitch": 36,
                "velocity": 64,
                "duration": 0.11818181818181905,
                "tempo": 120.0
            },
            {
                "start_time": 15.84090909090909,
                "end_time": 15.959090909090909,
                "pitch": 36,
                "velocity": 64,
                "duration": 0.11818181818181905,
                "tempo": 120.0
            },
            {
                "start_time": 15.975,
                "end_time": 16.095454545454544,
                "pitch": 36,
                "velocity": 64,
                "duration": 0.12045454545454426,
                "tempo": 120.0
            },
            {
                "start_time": 16.111363636363635,
                "end_time": 16.229545454545455,
                "pitch": 36,
                "velocity": 64,
                "duration": 0.11818181818182083,
                "tempo": 120.0
            },
            {
                "start_time": 16.245454545454546,
                "end_time": 16.361363636363635,
                "pitch": 36,
                "velocity": 64,
                "duration": 0.11590909090908852,
                "tempo": 120.0
            },
            {
                "start_time": 16.379545454545454,
                "end_time": 16.495454545454546,
                "pitch": 36,
                "velocity": 64,
                "duration": 0.11590909090909207,
                "tempo": 120.0
            },
            {
                "start_time": 16.513636363636362,
                "end_time": 16.629545454545454,
                "pitch": 36,
                "velocity": 64,
                "duration": 0.11590909090909207,
                "tempo": 120.0
            },
            {
                "start_time": 16.645454545454545,
                "end_time": 16.763636363636362,
                "pitch": 36,
                "velocity": 64,
                "duration": 0.11818181818181728,
                "tempo": 120.0
            },
            {
                "start_time": 16.779545454545453,
                "end_time": 16.897727272727273,
                "pitch": 36,
                "velocity": 64,
                "duration": 0.11818181818182083,
                "tempo": 120.0
            },
            {
                "start_time": 16.913636363636364,
                "end_time": 17.029545454545453,
                "pitch": 36,
                "velocity": 64,
                "duration": 0.11590909090908852,
                "tempo": 120.0
            },
            {
                "start_time": 17.047727272727272,
                "end_time": 17.163636363636364,
                "pitch": 36,
                "velocity": 64,
                "duration": 0.11590909090909207,
                "tempo": 120.0
            },
            {
                "start_time": 17.18181818181818,
                "end_time": 17.3,
                "pitch": 36,
                "velocity": 64,
                "duration": 0.11818181818182083,
                "tempo": 120.0
            },
            {
                "start_time": 17.31590909090909,
                "end_time": 17.436363636363634,
                "pitch": 36,
                "velocity": 64,
                "duration": 0.12045454545454248,
                "tempo": 120.0
            },
            {
                "start_time": 17.452272727272728,
                "end_time": 17.57272727272727,
                "pitch": 36,
                "velocity": 64,
                "duration": 0.12045454545454248,
                "tempo": 120.0
            },
            {
                "start_time": 17.58863636363636,
                "end_time": 17.706818181818182,
                "pitch": 36,
                "velocity": 64,
                "duration": 0.11818181818182083,
                "tempo": 120.0
            },
            {
                "start_time": 17.724999999999998,
                "end_time": 17.84090909090909,
                "pitch": 36,
                "velocity": 64,
                "duration": 0.11590909090909207,
                "tempo": 120.0
            },
            {
                "start_time": 17.85909090909091,
                "end_time": 17.974999999999998,
                "pitch": 36,
                "velocity": 64,
                "duration": 0.11590909090908852,
                "tempo": 120.0
            },
            {
                "start_time": 17.99090909090909,
                "end_time": 18.10909090909091,
                "pitch": 36,
                "velocity": 64,
                "duration": 0.11818181818182083,
                "tempo": 120.0
            },
            {
                "start_time": 18.125,
                "end_time": 18.243181818181817,
                "pitch": 36,
                "velocity": 64,
                "duration": 0.11818181818181728,
                "tempo": 120.0
            },
            {
                "start_time": 18.259090909090908,
                "end_time": 18.375,
                "pitch": 36,
                "velocity": 64,
                "duration": 0.11590909090909207,
                "tempo": 120.0
            },
            {
                "start_time": 18.393181818181816,
                "end_time": 18.509090909090908,
                "pitch": 36,
                "velocity": 64,
                "duration": 0.11590909090909207,
                "tempo": 120.0
            },
            {
                "start_time": 18.527272727272727,
                "end_time": 18.643181818181816,
                "pitch": 36,
                "velocity": 64,
                "duration": 0.11590909090908852,
                "tempo": 120.0
            },
            {
                "start_time": 18.659090909090907,
                "end_time": 18.777272727272727,
                "pitch": 36,
                "velocity": 64,
                "duration": 0.11818181818182083,
                "tempo": 120.0
            },
            {
                "start_time": 18.793181818181818,
                "end_time": 18.911363636363635,
                "pitch": 36,
                "velocity": 64,
                "duration": 0.11818181818181728,
                "tempo": 120.0
            },
            {
                "start_time": 18.929545454545455,
                "end_time": 19.047727272727272,
                "pitch": 36,
                "velocity": 64,
                "duration": 0.11818181818181728,
                "tempo": 120.0
            },
            {
                "start_time": 19.06590909090909,
                "end_time": 19.18409090909091,
                "pitch": 36,
                "velocity": 64,
                "duration": 0.11818181818181728,
                "tempo": 120.0
            },
            {
                "start_time": 19.202272727272728,
                "end_time": 19.320454545454545,
                "pitch": 36,
                "velocity": 64,
                "duration": 0.11818181818181728,
                "tempo": 120.0
            },
            {
                "start_time": 19.336363636363636,
                "end_time": 19.454545454545453,
                "pitch": 36,
                "velocity": 64,
                "duration": 0.11818181818181728,
                "tempo": 120.0
            },
            {
                "start_time": 19.470454545454544,
                "end_time": 19.58863636363636,
                "pitch": 36,
                "velocity": 64,
                "duration": 0.11818181818181728,
                "tempo": 120.0
            },
            {
                "start_time": 19.604545454545452,
                "end_time": 19.720454545454544,
                "pitch": 38,
                "velocity": 64,
                "duration": 0.11590909090909207,
                "tempo": 120.0
            },
            {
                "start_time": 19.738636363636363,
                "end_time": 19.854545454545452,
                "pitch": 38,
                "velocity": 64,
                "duration": 0.11590909090908852,
                "tempo": 120.0
            },
            {
                "start_time": 19.87272727272727,
                "end_time": 19.988636363636363,
                "pitch": 38,
                "velocity": 64,
                "duration": 0.11590909090909207,
                "tempo": 120.0
            },
            {
                "start_time": 20.004545454545454,
                "end_time": 20.12272727272727,
                "pitch": 38,
                "velocity": 64,
                "duration": 0.11818181818181728,
                "tempo": 120.0
            },
            {
                "start_time": 20.138636363636362,
                "end_time": 20.25681818181818,
                "pitch": 38,
                "velocity": 64,
                "duration": 0.11818181818181728,
                "tempo": 120.0
            },
            {
                "start_time": 20.272727272727273,
                "end_time": 20.388636363636362,
                "pitch": 38,
                "velocity": 64,
                "duration": 0.11590909090908852,
                "tempo": 120.0
            },
            {
                "start_time": 20.40681818181818,
                "end_time": 20.525,
                "pitch": 38,
                "velocity": 64,
                "duration": 0.11818181818181728,
                "tempo": 120.0
            },
            {
                "start_time": 20.543181818181818,
                "end_time": 20.661363636363635,
                "pitch": 38,
                "velocity": 64,
                "duration": 0.11818181818181728,
                "tempo": 120.0
            },
            {
                "start_time": 20.677272727272726,
                "end_time": 20.797727272727272,
                "pitch": 38,
                "velocity": 64,
                "duration": 0.12045454545454604,
                "tempo": 120.0
            },
            {
                "start_time": 20.813636363636363,
                "end_time": 20.93409090909091,
                "pitch": 38,
                "velocity": 64,
                "duration": 0.12045454545454604,
                "tempo": 120.0
            },
            {
                "start_time": 20.95,
                "end_time": 21.06590909090909,
                "pitch": 38,
                "velocity": 64,
                "duration": 0.11590909090909207,
                "tempo": 120.0
            },
            {
                "start_time": 21.084090909090907,
                "end_time": 21.2,
                "pitch": 38,
                "velocity": 64,
                "duration": 0.11590909090909207,
                "tempo": 120.0
            },
            {
                "start_time": 21.21818181818182,
                "end_time": 21.334090909090907,
                "pitch": 38,
                "velocity": 64,
                "duration": 0.11590909090908852,
                "tempo": 120.0
            },
            {
                "start_time": 21.349999999999998,
                "end_time": 21.46818181818182,
                "pitch": 38,
                "velocity": 64,
                "duration": 0.11818181818182083,
                "tempo": 120.0
            },
            {
                "start_time": 21.48409090909091,
                "end_time": 21.602272727272727,
                "pitch": 38,
                "velocity": 64,
                "duration": 0.11818181818181728,
                "tempo": 120.0
            },
            {
                "start_time": 21.618181818181817,
                "end_time": 21.73409090909091,
                "pitch": 38,
                "velocity": 64,
                "duration": 0.11590909090909207,
                "tempo": 120.0
            },
            {
                "start_time": 21.752272727272725,
                "end_time": 21.868181818181817,
                "pitch": 36,
                "velocity": 64,
                "duration": 0.11590909090909207,
                "tempo": 120.0
            },
            {
                "start_time": 21.886363636363637,
                "end_time": 22.002272727272725,
                "pitch": 36,
                "velocity": 64,
                "duration": 0.11590909090908852,
                "tempo": 120.0
            },
            {
                "start_time": 22.018181818181816,
                "end_time": 22.138636363636362,
                "pitch": 36,
                "velocity": 64,
                "duration": 0.12045454545454604,
                "tempo": 120.0
            },
            {
                "start_time": 22.154545454545453,
                "end_time": 22.272727272727273,
                "pitch": 36,
                "velocity": 64,
                "duration": 0.11818181818182083,
                "tempo": 120.0
            },
            {
                "start_time": 22.29090909090909,
                "end_time": 22.409090909090907,
                "pitch": 36,
                "velocity": 64,
                "duration": 0.11818181818181728,
                "tempo": 120.0
            },
            {
                "start_time": 22.427272727272726,
                "end_time": 22.545454545454543,
                "pitch": 36,
                "velocity": 64,
                "duration": 0.11818181818181728,
                "tempo": 120.0
            },
            {
                "start_time": 22.563636363636363,
                "end_time": 22.679545454545455,
                "pitch": 36,
                "velocity": 64,
                "duration": 0.11590909090909207,
                "tempo": 120.0
            },
            {
                "start_time": 22.695454545454545,
                "end_time": 22.813636363636363,
                "pitch": 36,
                "velocity": 64,
                "duration": 0.11818181818181728,
                "tempo": 120.0
            },
            {
                "start_time": 22.829545454545453,
                "end_time": 22.94772727272727,
                "pitch": 36,
                "velocity": 64,
                "duration": 0.11818181818181728,
                "tempo": 120.0
            },
            {
                "start_time": 22.96363636363636,
                "end_time": 23.079545454545453,
                "pitch": 36,
                "velocity": 64,
                "duration": 0.11590909090909207,
                "tempo": 120.0
            },
            {
                "start_time": 23.097727272727273,
                "end_time": 23.21363636363636,
                "pitch": 36,
                "velocity": 64,
                "duration": 0.11590909090908852,
                "tempo": 120.0
            },
            {
                "start_time": 23.23181818181818,
                "end_time": 23.347727272727273,
                "pitch": 36,
                "velocity": 64,
                "duration": 0.11590909090909207,
                "tempo": 120.0
            },
            {
                "start_time": 23.363636363636363,
                "end_time": 23.48181818181818,
                "pitch": 36,
                "velocity": 64,
                "duration": 0.11818181818181728,
                "tempo": 120.0
            },
            {
                "start_time": 23.49772727272727,
                "end_time": 23.61590909090909,
                "pitch": 36,
                "velocity": 64,
                "duration": 0.11818181818181728,
                "tempo": 120.0
            },
            {
                "start_time": 23.63181818181818,
                "end_time": 23.75,
                "pitch": 36,
                "velocity": 64,
                "duration": 0.11818181818182083,
                "tempo": 120.0
            },
            {
                "start_time": 23.768181818181816,
                "end_time": 23.886363636363637,
                "pitch": 36,
                "velocity": 64,
                "duration": 0.11818181818182083,
                "tempo": 120.0
            },
            {
                "start_time": 23.904545454545453,
                "end_time": 24.02272727272727,
                "pitch": 34,
                "velocity": 64,
                "duration": 0.11818181818181728,
                "tempo": 120.0
            },
            {
                "start_time": 24.038636363636364,
                "end_time": 24.159090909090907,
                "pitch": 34,
                "velocity": 64,
                "duration": 0.12045454545454248,
                "tempo": 120.0
            },
            {
                "start_time": 24.174999999999997,
                "end_time": 24.293181818181818,
                "pitch": 34,
                "velocity": 64,
                "duration": 0.11818181818182083,
                "tempo": 120.0
            },
            {
                "start_time": 24.30909090909091,
                "end_time": 24.424999999999997,
                "pitch": 34,
                "velocity": 64,
                "duration": 0.11590909090908852,
                "tempo": 120.0
            },
            {
                "start_time": 24.443181818181817,
                "end_time": 24.55909090909091,
                "pitch": 34,
                "velocity": 64,
                "duration": 0.11590909090909207,
                "tempo": 120.0
            },
            {
                "start_time": 24.577272727272724,
                "end_time": 24.693181818181817,
                "pitch": 34,
                "velocity": 64,
                "duration": 0.11590909090909207,
                "tempo": 120.0
            },
            {
                "start_time": 24.709090909090907,
                "end_time": 24.827272727272724,
                "pitch": 34,
                "velocity": 64,
                "duration": 0.11818181818181728,
                "tempo": 120.0
            },
            {
                "start_time": 24.84318181818182,
                "end_time": 24.961363636363636,
                "pitch": 34,
                "velocity": 64,
                "duration": 0.11818181818181728,
                "tempo": 120.0
            },
            {
                "start_time": 24.977272727272727,
                "end_time": 25.09318181818182,
                "pitch": 34,
                "velocity": 64,
                "duration": 0.11590909090909207,
                "tempo": 120.0
            },
            {
                "start_time": 25.111363636363635,
                "end_time": 25.227272727272727,
                "pitch": 34,
                "velocity": 64,
                "duration": 0.11590909090909207,
                "tempo": 120.0
            },
            {
                "start_time": 25.245454545454542,
                "end_time": 25.363636363636363,
                "pitch": 34,
                "velocity": 64,
                "duration": 0.11818181818182083,
                "tempo": 120.0
            },
            {
                "start_time": 25.379545454545454,
                "end_time": 25.5,
                "pitch": 34,
                "velocity": 64,
                "duration": 0.12045454545454604,
                "tempo": 120.0
            },
            {
                "start_time": 25.51590909090909,
                "end_time": 25.634090909090908,
                "pitch": 34,
                "velocity": 64,
                "duration": 0.11818181818181728,
                "tempo": 120.0
            },
            {
                "start_time": 25.652272727272727,
                "end_time": 25.770454545454545,
                "pitch": 34,
                "velocity": 64,
                "duration": 0.11818181818181728,
                "tempo": 120.0
            },
            {
                "start_time": 25.788636363636364,
                "end_time": 25.904545454545453,
                "pitch": 34,
                "velocity": 64,
                "duration": 0.11590909090908852,
                "tempo": 120.0
            },
            {
                "start_time": 25.922727272727272,
                "end_time": 26.038636363636364,
                "pitch": 34,
                "velocity": 64,
                "duration": 0.11590909090909207,
                "tempo": 120.0
            },
            {
                "start_time": 26.054545454545455,
                "end_time": 26.172727272727272,
                "pitch": 33,
                "velocity": 64,
                "duration": 0.11818181818181728,
                "tempo": 120.0
            },
            {
                "start_time": 26.188636363636363,
                "end_time": 26.30681818181818,
                "pitch": 33,
                "velocity": 64,
                "duration": 0.11818181818181728,
                "tempo": 120.0
            },
            {
                "start_time": 26.32272727272727,
                "end_time": 26.438636363636363,
                "pitch": 33,
                "velocity": 64,
                "duration": 0.11590909090909207,
                "tempo": 120.0
            },
            {
                "start_time": 26.456818181818182,
                "end_time": 26.57272727272727,
                "pitch": 33,
                "velocity": 64,
                "duration": 0.11590909090908852,
                "tempo": 120.0
            },
            {
                "start_time": 26.59090909090909,
                "end_time": 26.706818181818182,
                "pitch": 33,
                "velocity": 64,
                "duration": 0.11590909090909207,
                "tempo": 120.0
            },
            {
                "start_time": 26.722727272727273,
                "end_time": 26.84090909090909,
                "pitch": 33,
                "velocity": 64,
                "duration": 0.11818181818181728,
                "tempo": 120.0
            },
            {
                "start_time": 26.85681818181818,
                "end_time": 26.974999999999998,
                "pitch": 33,
                "velocity": 64,
                "duration": 0.11818181818181728,
                "tempo": 120.0
            },
            {
                "start_time": 26.993181818181817,
                "end_time": 27.111363636363635,
                "pitch": 33,
                "velocity": 64,
                "duration": 0.11818181818181728,
                "tempo": 120.0
            },
            {
                "start_time": 27.129545454545454,
                "end_time": 27.24772727272727,
                "pitch": 33,
                "velocity": 64,
                "duration": 0.11818181818181728,
                "tempo": 120.0
            },
            {
                "start_time": 27.26590909090909,
                "end_time": 27.384090909090908,
                "pitch": 33,
                "velocity": 64,
                "duration": 0.11818181818181728,
                "tempo": 120.0
            },
            {
                "start_time": 27.4,
                "end_time": 27.518181818181816,
                "pitch": 33,
                "velocity": 64,
                "duration": 0.11818181818181728,
                "tempo": 120.0
            },
            {
                "start_time": 27.534090909090907,
                "end_time": 27.652272727272727,
                "pitch": 33,
                "velocity": 64,
                "duration": 0.11818181818182083,
                "tempo": 120.0
            },
            {
                "start_time": 27.668181818181818,
                "end_time": 27.784090909090907,
                "pitch": 33,
                "velocity": 64,
                "duration": 0.11590909090908852,
                "tempo": 120.0
            },
            {
                "start_time": 27.802272727272726,
                "end_time": 27.918181818181818,
                "pitch": 33,
                "velocity": 64,
                "duration": 0.11590909090909207,
                "tempo": 120.0
            },
            {
                "start_time": 27.936363636363634,
                "end_time": 28.052272727272726,
                "pitch": 34,
                "velocity": 64,
                "duration": 0.11590909090909207,
                "tempo": 120.0
            },
            {
                "start_time": 28.068181818181817,
                "end_time": 28.186363636363634,
                "pitch": 37,
                "velocity": 64,
                "duration": 0.11818181818181728,
                "tempo": 120.0
            },
            {
                "start_time": 28.202272727272724,
                "end_time": 28.320454545454545,
                "pitch": 38,
                "velocity": 64,
                "duration": 0.11818181818182083,
                "tempo": 120.0
            },
            {
                "start_time": 28.336363636363636,
                "end_time": 28.452272727272724,
                "pitch": 38,
                "velocity": 64,
                "duration": 0.11590909090908852,
                "tempo": 120.0
            },
            {
                "start_time": 28.470454545454544,
                "end_time": 28.58863636363636,
                "pitch": 38,
                "velocity": 64,
                "duration": 0.11818181818181728,
                "tempo": 120.0
            },
            {
                "start_time": 28.604545454545452,
                "end_time": 28.724999999999998,
                "pitch": 38,
                "velocity": 64,
                "duration": 0.12045454545454604,
                "tempo": 120.0
            },
            {
                "start_time": 28.74090909090909,
                "end_time": 28.861363636363635,
                "pitch": 38,
                "velocity": 64,
                "duration": 0.12045454545454604,
                "tempo": 120.0
            },
            {
                "start_time": 28.877272727272725,
                "end_time": 28.99772727272727,
                "pitch": 38,
                "velocity": 64,
                "duration": 0.12045454545454604,
                "tempo": 120.0
            },
            {
                "start_time": 29.013636363636362,
                "end_time": 29.129545454545454,
                "pitch": 38,
                "velocity": 64,
                "duration": 0.11590909090909207,
                "tempo": 120.0
            },
            {
                "start_time": 29.14772727272727,
                "end_time": 29.263636363636362,
                "pitch": 38,
                "velocity": 64,
                "duration": 0.11590909090909207,
                "tempo": 120.0
            },
            {
                "start_time": 29.28181818181818,
                "end_time": 29.39772727272727,
                "pitch": 38,
                "velocity": 64,
                "duration": 0.11590909090908852,
                "tempo": 120.0
            },
            {
                "start_time": 29.41363636363636,
                "end_time": 29.53181818181818,
                "pitch": 38,
                "velocity": 64,
                "duration": 0.11818181818182083,
                "tempo": 120.0
            },
            {
                "start_time": 29.547727272727272,
                "end_time": 29.66590909090909,
                "pitch": 38,
                "velocity": 64,
                "duration": 0.11818181818181728,
                "tempo": 120.0
            },
            {
                "start_time": 29.68181818181818,
                "end_time": 29.797727272727272,
                "pitch": 38,
                "velocity": 64,
                "duration": 0.11590909090909207,
                "tempo": 120.0
            },
            {
                "start_time": 29.815909090909088,
                "end_time": 29.93181818181818,
                "pitch": 38,
                "velocity": 64,
                "duration": 0.11590909090909207,
                "tempo": 120.0
            },
            {
                "start_time": 29.95,
                "end_time": 30.065909090909088,
                "pitch": 38,
                "velocity": 64,
                "duration": 0.11590909090908852,
                "tempo": 120.0
            },
            {
                "start_time": 30.081818181818182,
                "end_time": 30.202272727272724,
                "pitch": 38,
                "velocity": 64,
                "duration": 0.12045454545454248,
                "tempo": 120.0
            },
            {
                "start_time": 30.218181818181815,
                "end_time": 30.336363636363636,
                "pitch": 38,
                "velocity": 64,
                "duration": 0.11818181818182083,
                "tempo": 120.0
            },
            {
                "start_time": 30.354545454545452,
                "end_time": 30.472727272727273,
                "pitch": 36,
                "velocity": 64,
                "duration": 0.11818181818182083,
                "tempo": 120.0
            },
            {
                "start_time": 30.49090909090909,
                "end_time": 30.60909090909091,
                "pitch": 36,
                "velocity": 64,
                "duration": 0.11818181818182083,
                "tempo": 120.0
            },
            {
                "start_time": 30.627272727272725,
                "end_time": 30.743181818181817,
                "pitch": 36,
                "velocity": 64,
                "duration": 0.11590909090909207,
                "tempo": 120.0
            },
            {
                "start_time": 30.759090909090908,
                "end_time": 30.877272727272725,
                "pitch": 36,
                "velocity": 64,
                "duration": 0.11818181818181728,
                "tempo": 120.0
            },
            {
                "start_time": 30.893181818181816,
                "end_time": 31.011363636363633,
                "pitch": 36,
                "velocity": 64,
                "duration": 0.11818181818181728,
                "tempo": 120.0
            },
            {
                "start_time": 31.027272727272727,
                "end_time": 31.143181818181816,
                "pitch": 36,
                "velocity": 64,
                "duration": 0.11590909090908852,
                "tempo": 120.0
            },
            {
                "start_time": 31.161363636363635,
                "end_time": 31.277272727272727,
                "pitch": 36,
                "velocity": 64,
                "duration": 0.11590909090909207,
                "tempo": 120.0
            },
            {
                "start_time": 31.295454545454543,
                "end_time": 31.411363636363635,
                "pitch": 36,
                "velocity": 64,
                "duration": 0.11590909090909207,
                "tempo": 120.0
            },
            {
                "start_time": 31.427272727272726,
                "end_time": 31.545454545454543,
                "pitch": 36,
                "velocity": 64,
                "duration": 0.11818181818181728,
                "tempo": 120.0
            },
            {
                "start_time": 31.561363636363634,
                "end_time": 31.679545454545455,
                "pitch": 36,
                "velocity": 64,
                "duration": 0.11818181818182083,
                "tempo": 120.0
            },
            {
                "start_time": 31.695454545454545,
                "end_time": 31.813636363636363,
                "pitch": 36,
                "velocity": 64,
                "duration": 0.11818181818181728,
                "tempo": 120.0
            },
            {
                "start_time": 31.831818181818182,
                "end_time": 31.95,
                "pitch": 36,
                "velocity": 64,
                "duration": 0.11818181818181728,
                "tempo": 120.0
            },
            {
                "start_time": 31.968181818181815,
                "end_time": 32.086363636363636,
                "pitch": 36,
                "velocity": 64,
                "duration": 0.11818181818182083,
                "tempo": 120.0
            },
            {
                "start_time": 32.10227272727273,
                "end_time": 32.22272727272727,
                "pitch": 36,
                "velocity": 64,
                "duration": 0.12045454545454248,
                "tempo": 120.0
            },
            {
                "start_time": 32.23863636363636,
                "end_time": 32.35681818181818,
                "pitch": 36,
                "velocity": 64,
                "duration": 0.11818181818181728,
                "tempo": 120.0
            },
            {
                "start_time": 32.37272727272727,
                "end_time": 32.48863636363636,
                "pitch": 36,
                "velocity": 64,
                "duration": 0.11590909090909207,
                "tempo": 120.0
            },
            {
                "start_time": 32.50681818181818,
                "end_time": 32.62272727272727,
                "pitch": 34,
                "velocity": 64,
                "duration": 0.11590909090908497,
                "tempo": 120.0
            },
            {
                "start_time": 32.64090909090909,
                "end_time": 32.75681818181818,
                "pitch": 34,
                "velocity": 64,
                "duration": 0.11590909090909207,
                "tempo": 120.0
            },
            {
                "start_time": 32.77272727272727,
                "end_time": 32.89090909090909,
                "pitch": 34,
                "velocity": 64,
                "duration": 0.11818181818181728,
                "tempo": 120.0
            },
            {
                "start_time": 32.90681818181818,
                "end_time": 33.025,
                "pitch": 34,
                "velocity": 64,
                "duration": 0.11818181818181728,
                "tempo": 120.0
            },
            {
                "start_time": 33.04090909090909,
                "end_time": 33.15681818181818,
                "pitch": 34,
                "velocity": 64,
                "duration": 0.11590909090909207,
                "tempo": 120.0
            },
            {
                "start_time": 33.175,
                "end_time": 33.29090909090909,
                "pitch": 34,
                "velocity": 64,
                "duration": 0.11590909090909207,
                "tempo": 120.0
            },
            {
                "start_time": 33.30681818181818,
                "end_time": 33.42727272727272,
                "pitch": 34,
                "velocity": 64,
                "duration": 0.12045454545454248,
                "tempo": 120.0
            },
            {
                "start_time": 33.44318181818181,
                "end_time": 33.56363636363636,
                "pitch": 34,
                "velocity": 64,
                "duration": 0.12045454545454959,
                "tempo": 120.0
            },
            {
                "start_time": 33.57954545454545,
                "end_time": 33.69772727272727,
                "pitch": 34,
                "velocity": 64,
                "duration": 0.11818181818181728,
                "tempo": 120.0
            },
            {
                "start_time": 33.715909090909086,
                "end_time": 33.83409090909091,
                "pitch": 34,
                "velocity": 64,
                "duration": 0.11818181818182438,
                "tempo": 120.0
            },
            {
                "start_time": 33.85227272727273,
                "end_time": 33.96818181818182,
                "pitch": 34,
                "velocity": 64,
                "duration": 0.11590909090909207,
                "tempo": 120.0
            },
            {
                "start_time": 33.986363636363635,
                "end_time": 34.10227272727273,
                "pitch": 34,
                "velocity": 64,
                "duration": 0.11590909090909207,
                "tempo": 120.0
            },
            {
                "start_time": 34.11818181818182,
                "end_time": 34.236363636363635,
                "pitch": 34,
                "velocity": 64,
                "duration": 0.11818181818181728,
                "tempo": 120.0
            },
            {
                "start_time": 34.252272727272725,
                "end_time": 34.37045454545454,
                "pitch": 34,
                "velocity": 64,
                "duration": 0.11818181818181728,
                "tempo": 120.0
            },
            {
                "start_time": 34.38636363636363,
                "end_time": 34.502272727272725,
                "pitch": 34,
                "velocity": 64,
                "duration": 0.11590909090909207,
                "tempo": 120.0
            },
            {
                "start_time": 34.52045454545454,
                "end_time": 34.63636363636363,
                "pitch": 34,
                "velocity": 64,
                "duration": 0.11590909090909207,
                "tempo": 120.0
            },
            {
                "start_time": 34.652272727272724,
                "end_time": 34.77045454545454,
                "pitch": 33,
                "velocity": 64,
                "duration": 0.11818181818181728,
                "tempo": 120.0
            },
            {
                "start_time": 34.78636363636363,
                "end_time": 34.89545454545454,
                "pitch": 33,
                "velocity": 64,
                "duration": 0.10909090909090935,
                "tempo": 120.0
            },
            {
                "start_time": 34.91136363636363,
                "end_time": 35.013636363636365,
                "pitch": 33,
                "velocity": 64,
                "duration": 0.10227272727273373,
                "tempo": 120.0
            },
            {
                "start_time": 35.027272727272724,
                "end_time": 35.12954545454545,
                "pitch": 33,
                "velocity": 64,
                "duration": 0.10227272727272663,
                "tempo": 120.0
            },
            {
                "start_time": 35.143181818181816,
                "end_time": 35.24545454545454,
                "pitch": 33,
                "velocity": 64,
                "duration": 0.10227272727272663,
                "tempo": 120.0
            },
            {
                "start_time": 35.25909090909091,
                "end_time": 35.36818181818182,
                "pitch": 33,
                "velocity": 64,
                "duration": 0.10909090909090935,
                "tempo": 120.0
            },
            {
                "start_time": 35.38636363636363,
                "end_time": 35.5,
                "pitch": 33,
                "velocity": 64,
                "duration": 0.11363636363636687,
                "tempo": 120.0
            },
            {
                "start_time": 35.51590909090909,
                "end_time": 35.63181818181818,
                "pitch": 33,
                "velocity": 64,
                "duration": 0.11590909090909207,
                "tempo": 120.0
            },
            {
                "start_time": 35.64772727272727,
                "end_time": 35.763636363636365,
                "pitch": 33,
                "velocity": 64,
                "duration": 0.11590909090909207,
                "tempo": 120.0
            },
            {
                "start_time": 35.779545454545456,
                "end_time": 35.89545454545454,
                "pitch": 33,
                "velocity": 64,
                "duration": 0.11590909090908497,
                "tempo": 120.0
            },
            {
                "start_time": 35.913636363636364,
                "end_time": 36.03181818181818,
                "pitch": 33,
                "velocity": 64,
                "duration": 0.11818181818181728,
                "tempo": 120.0
            },
            {
                "start_time": 36.05,
                "end_time": 36.168181818181814,
                "pitch": 33,
                "velocity": 64,
                "duration": 0.11818181818181728,
                "tempo": 120.0
            },
            {
                "start_time": 36.18636363636364,
                "end_time": 36.35454545454545,
                "pitch": 45,
                "velocity": 64,
                "duration": 0.16818181818181444,
                "tempo": 120.0
            },
            {
                "start_time": 36.37272727272727,
                "end_time": 36.52272727272727,
                "pitch": 33,
                "velocity": 64,
                "duration": 0.15000000000000568,
                "tempo": 120.0
            },
            {
                "start_time": 36.55681818181818,
                "end_time": 36.70681818181818,
                "pitch": 33,
                "velocity": 64,
                "duration": 0.14999999999999858,
                "tempo": 120.0
            },
            {
                "start_time": 36.72272727272727,
                "end_time": 36.840909090909086,
                "pitch": 34,
                "velocity": 64,
                "duration": 0.11818181818181728,
                "tempo": 120.0
            },
            {
                "start_time": 36.85681818181818,
                "end_time": 36.97272727272727,
                "pitch": 34,
                "velocity": 64,
                "duration": 0.11590909090909207,
                "tempo": 120.0
            },
            {
                "start_time": 36.99090909090909,
                "end_time": 37.127272727272725,
                "pitch": 34,
                "velocity": 64,
                "duration": 0.13636363636363313,
                "tempo": 120.0
            },
            {
                "start_time": 37.14772727272727,
                "end_time": 37.28409090909091,
                "pitch": 34,
                "velocity": 64,
                "duration": 0.13636363636363313,
                "tempo": 120.0
            },
            {
                "start_time": 37.304545454545455,
                "end_time": 37.44090909090909,
                "pitch": 34,
                "velocity": 64,
                "duration": 0.13636363636363313,
                "tempo": 120.0
            },
            {
                "start_time": 37.461363636363636,
                "end_time": 37.59772727272727,
                "pitch": 34,
                "velocity": 64,
                "duration": 0.13636363636363313,
                "tempo": 120.0
            },
            {
                "start_time": 37.61818181818182,
                "end_time": 37.736363636363635,
                "pitch": 34,
                "velocity": 64,
                "duration": 0.11818181818181728,
                "tempo": 120.0
            },
            {
                "start_time": 37.752272727272725,
                "end_time": 37.86818181818182,
                "pitch": 34,
                "velocity": 64,
                "duration": 0.11590909090909207,
                "tempo": 120.0
            },
            {
                "start_time": 37.88636363636363,
                "end_time": 38.002272727272725,
                "pitch": 34,
                "velocity": 64,
                "duration": 0.11590909090909207,
                "tempo": 120.0
            },
            {
                "start_time": 38.02045454545454,
                "end_time": 38.13636363636363,
                "pitch": 34,
                "velocity": 64,
                "duration": 0.11590909090909207,
                "tempo": 120.0
            },
            {
                "start_time": 38.152272727272724,
                "end_time": 38.27272727272727,
                "pitch": 34,
                "velocity": 64,
                "duration": 0.12045454545454959,
                "tempo": 120.0
            },
            {
                "start_time": 38.288636363636364,
                "end_time": 38.40681818181818,
                "pitch": 34,
                "velocity": 64,
                "duration": 0.11818181818181728,
                "tempo": 120.0
            },
            {
                "start_time": 38.425,
                "end_time": 38.543181818181814,
                "pitch": 34,
                "velocity": 64,
                "duration": 0.11818181818181728,
                "tempo": 120.0
            },
            {
                "start_time": 38.56136363636364,
                "end_time": 38.679545454545455,
                "pitch": 34,
                "velocity": 64,
                "duration": 0.11818181818181728,
                "tempo": 120.0
            },
            {
                "start_time": 38.69772727272727,
                "end_time": 38.81363636363636,
                "pitch": 34,
                "velocity": 64,
                "duration": 0.11590909090909207,
                "tempo": 120.0
            },
            {
                "start_time": 38.82954545454545,
                "end_time": 38.94772727272727,
                "pitch": 34,
                "velocity": 64,
                "duration": 0.11818181818181728,
                "tempo": 120.0
            },
            {
                "start_time": 38.96363636363636,
                "end_time": 39.08181818181818,
                "pitch": 34,
                "velocity": 64,
                "duration": 0.11818181818181728,
                "tempo": 120.0
            },
            {
                "start_time": 39.09772727272727,
                "end_time": 39.21363636363636,
                "pitch": 34,
                "velocity": 64,
                "duration": 0.11590909090909207,
                "tempo": 120.0
            },
            {
                "start_time": 39.23181818181818,
                "end_time": 39.34772727272727,
                "pitch": 34,
                "velocity": 64,
                "duration": 0.11590909090909207,
                "tempo": 120.0
            },
            {
                "start_time": 39.36590909090909,
                "end_time": 39.48181818181818,
                "pitch": 34,
                "velocity": 64,
                "duration": 0.11590909090908497,
                "tempo": 120.0
            },
            {
                "start_time": 39.49772727272727,
                "end_time": 39.61590909090909,
                "pitch": 34,
                "velocity": 64,
                "duration": 0.11818181818182438,
                "tempo": 120.0
            },
            {
                "start_time": 39.63181818181818,
                "end_time": 39.75,
                "pitch": 34,
                "velocity": 64,
                "duration": 0.11818181818181728,
                "tempo": 120.0
            },
            {
                "start_time": 39.76590909090909,
                "end_time": 39.88409090909091,
                "pitch": 34,
                "velocity": 64,
                "duration": 0.11818181818181728,
                "tempo": 120.0
            },
            {
                "start_time": 39.902272727272724,
                "end_time": 40.02045454545454,
                "pitch": 34,
                "velocity": 64,
                "duration": 0.11818181818181728,
                "tempo": 120.0
            },
            {
                "start_time": 40.038636363636364,
                "end_time": 40.15681818181818,
                "pitch": 34,
                "velocity": 64,
                "duration": 0.11818181818181728,
                "tempo": 120.0
            },
            {
                "start_time": 40.17272727272727,
                "end_time": 40.293181818181814,
                "pitch": 34,
                "velocity": 64,
                "duration": 0.12045454545454248,
                "tempo": 120.0
            },
            {
                "start_time": 40.309090909090905,
                "end_time": 40.42727272727272,
                "pitch": 34,
                "velocity": 64,
                "duration": 0.11818181818181728,
                "tempo": 120.0
            },
            {
                "start_time": 40.44318181818181,
                "end_time": 40.559090909090905,
                "pitch": 34,
                "velocity": 64,
                "duration": 0.11590909090909207,
                "tempo": 120.0
            },
            {
                "start_time": 40.57727272727273,
                "end_time": 40.69318181818181,
                "pitch": 34,
                "velocity": 64,
                "duration": 0.11590909090908497,
                "tempo": 120.0
            },
            {
                "start_time": 40.711363636363636,
                "end_time": 40.82727272727273,
                "pitch": 34,
                "velocity": 64,
                "duration": 0.11590909090909207,
                "tempo": 120.0
            },
            {
                "start_time": 40.84318181818182,
                "end_time": 40.961363636363636,
                "pitch": 34,
                "velocity": 64,
                "duration": 0.11818181818181728,
                "tempo": 120.0
            },
            {
                "start_time": 40.97727272727273,
                "end_time": 41.095454545454544,
                "pitch": 34,
                "velocity": 64,
                "duration": 0.11818181818181728,
                "tempo": 120.0
            },
            {
                "start_time": 41.111363636363635,
                "end_time": 41.22727272727273,
                "pitch": 36,
                "velocity": 64,
                "duration": 0.11590909090909207,
                "tempo": 120.0
            },
            {
                "start_time": 41.24545454545454,
                "end_time": 41.361363636363635,
                "pitch": 36,
                "velocity": 64,
                "duration": 0.11590909090909207,
                "tempo": 120.0
            },
            {
                "start_time": 41.377272727272725,
                "end_time": 41.49772727272727,
                "pitch": 36,
                "velocity": 64,
                "duration": 0.12045454545454248,
                "tempo": 120.0
            },
            {
                "start_time": 41.51363636363636,
                "end_time": 41.63409090909091,
                "pitch": 36,
                "velocity": 64,
                "duration": 0.12045454545454959,
                "tempo": 120.0
            },
            {
                "start_time": 41.65,
                "end_time": 41.768181818181816,
                "pitch": 36,
                "velocity": 64,
                "duration": 0.11818181818181728,
                "tempo": 120.0
            },
            {
                "start_time": 41.78636363636363,
                "end_time": 41.90454545454545,
                "pitch": 36,
                "velocity": 64,
                "duration": 0.11818181818181728,
                "tempo": 120.0
            },
            {
                "start_time": 41.92272727272727,
                "end_time": 42.038636363636364,
                "pitch": 36,
                "velocity": 64,
                "duration": 0.11590909090909207,
                "tempo": 120.0
            },
            {
                "start_time": 42.05681818181818,
                "end_time": 42.17272727272727,
                "pitch": 36,
                "velocity": 64,
                "duration": 0.11590909090909207,
                "tempo": 120.0
            },
            {
                "start_time": 42.18863636363636,
                "end_time": 42.30681818181818,
                "pitch": 36,
                "velocity": 64,
                "duration": 0.11818181818181728,
                "tempo": 120.0
            },
            {
                "start_time": 42.32272727272727,
                "end_time": 42.44090909090909,
                "pitch": 36,
                "velocity": 64,
                "duration": 0.11818181818181728,
                "tempo": 120.0
            },
            {
                "start_time": 42.45681818181818,
                "end_time": 42.57272727272727,
                "pitch": 36,
                "velocity": 64,
                "duration": 0.11590909090909207,
                "tempo": 120.0
            },
            {
                "start_time": 42.590909090909086,
                "end_time": 42.70681818181818,
                "pitch": 36,
                "velocity": 64,
                "duration": 0.11590909090909207,
                "tempo": 120.0
            },
            {
                "start_time": 42.725,
                "end_time": 42.840909090909086,
                "pitch": 36,
                "velocity": 64,
                "duration": 0.11590909090908497,
                "tempo": 120.0
            },
            {
                "start_time": 42.85681818181818,
                "end_time": 42.975,
                "pitch": 36,
                "velocity": 64,
                "duration": 0.11818181818182438,
                "tempo": 120.0
            },
            {
                "start_time": 42.99090909090909,
                "end_time": 43.10909090909091,
                "pitch": 36,
                "velocity": 64,
                "duration": 0.11818181818181728,
                "tempo": 120.0
            },
            {
                "start_time": 43.127272727272725,
                "end_time": 43.24545454545454,
                "pitch": 36,
                "velocity": 64,
                "duration": 0.11818181818181728,
                "tempo": 120.0
            },
            {
                "start_time": 43.26363636363636,
                "end_time": 43.38181818181818,
                "pitch": 36,
                "velocity": 64,
                "duration": 0.11818181818182438,
                "tempo": 120.0
            },
            {
                "start_time": 43.4,
                "end_time": 43.518181818181816,
                "pitch": 36,
                "velocity": 64,
                "duration": 0.11818181818181728,
                "tempo": 120.0
            },
            {
                "start_time": 43.53409090909091,
                "end_time": 43.652272727272724,
                "pitch": 36,
                "velocity": 64,
                "duration": 0.11818181818181728,
                "tempo": 120.0
            },
            {
                "start_time": 43.668181818181814,
                "end_time": 43.78636363636363,
                "pitch": 36,
                "velocity": 64,
                "duration": 0.11818181818181728,
                "tempo": 120.0
            },
            {
                "start_time": 43.80227272727272,
                "end_time": 43.918181818181814,
                "pitch": 36,
                "velocity": 64,
                "duration": 0.11590909090909207,
                "tempo": 120.0
            },
            {
                "start_time": 43.93636363636364,
                "end_time": 44.05227272727272,
                "pitch": 36,
                "velocity": 64,
                "duration": 0.11590909090908497,
                "tempo": 120.0
            },
            {
                "start_time": 44.070454545454545,
                "end_time": 44.18636363636364,
                "pitch": 36,
                "velocity": 64,
                "duration": 0.11590909090909207,
                "tempo": 120.0
            },
            {
                "start_time": 44.20227272727273,
                "end_time": 44.320454545454545,
                "pitch": 36,
                "velocity": 64,
                "duration": 0.11818181818181728,
                "tempo": 120.0
            },
            {
                "start_time": 44.336363636363636,
                "end_time": 44.45454545454545,
                "pitch": 36,
                "velocity": 64,
                "duration": 0.11818181818181728,
                "tempo": 120.0
            },
            {
                "start_time": 44.470454545454544,
                "end_time": 44.586363636363636,
                "pitch": 36,
                "velocity": 64,
                "duration": 0.11590909090909207,
                "tempo": 120.0
            },
            {
                "start_time": 44.60454545454545,
                "end_time": 44.720454545454544,
                "pitch": 36,
                "velocity": 64,
                "duration": 0.11590909090909207,
                "tempo": 120.0
            },
            {
                "start_time": 44.736363636363635,
                "end_time": 44.85454545454545,
                "pitch": 36,
                "velocity": 64,
                "duration": 0.11818181818181728,
                "tempo": 120.0
            },
            {
                "start_time": 44.87045454545454,
                "end_time": 44.98863636363636,
                "pitch": 36,
                "velocity": 64,
                "duration": 0.11818181818181728,
                "tempo": 120.0
            },
            {
                "start_time": 45.00454545454545,
                "end_time": 45.12045454545454,
                "pitch": 36,
                "velocity": 64,
                "duration": 0.11590909090909207,
                "tempo": 120.0
            },
            {
                "start_time": 45.13863636363636,
                "end_time": 45.25681818181818,
                "pitch": 36,
                "velocity": 64,
                "duration": 0.11818181818182438,
                "tempo": 120.0
            },
            {
                "start_time": 45.275,
                "end_time": 45.393181818181816,
                "pitch": 36,
                "velocity": 64,
                "duration": 0.11818181818181728,
                "tempo": 120.0
            },
            {
                "start_time": 45.40909090909091,
                "end_time": 45.52954545454545,
                "pitch": 38,
                "velocity": 64,
                "duration": 0.12045454545454248,
                "tempo": 120.0
            },
            {
                "start_time": 45.54545454545455,
                "end_time": 45.66590909090909,
                "pitch": 38,
                "velocity": 64,
                "duration": 0.12045454545454248,
                "tempo": 120.0
            },
            {
                "start_time": 45.68181818181818,
                "end_time": 45.8,
                "pitch": 38,
                "velocity": 64,
                "duration": 0.11818181818181728,
                "tempo": 120.0
            },
            {
                "start_time": 45.81590909090909,
                "end_time": 45.93181818181818,
                "pitch": 38,
                "velocity": 64,
                "duration": 0.11590909090909207,
                "tempo": 120.0
            },
            {
                "start_time": 45.949999999999996,
                "end_time": 46.06590909090909,
                "pitch": 38,
                "velocity": 64,
                "duration": 0.11590909090909207,
                "tempo": 120.0
            },
            {
                "start_time": 46.08181818181818,
                "end_time": 46.199999999999996,
                "pitch": 38,
                "velocity": 64,
                "duration": 0.11818181818181728,
                "tempo": 120.0
            },
            {
                "start_time": 46.215909090909086,
                "end_time": 46.336363636363636,
                "pitch": 38,
                "velocity": 64,
                "duration": 0.12045454545454959,
                "tempo": 120.0
            },
            {
                "start_time": 46.35227272727273,
                "end_time": 46.470454545454544,
                "pitch": 38,
                "velocity": 64,
                "duration": 0.11818181818181728,
                "tempo": 120.0
            },
            {
                "start_time": 46.48863636363636,
                "end_time": 46.60681818181818,
                "pitch": 38,
                "velocity": 64,
                "duration": 0.11818181818181728,
                "tempo": 120.0
            },
            {
                "start_time": 46.625,
                "end_time": 46.74318181818182,
                "pitch": 38,
                "velocity": 64,
                "duration": 0.11818181818181728,
                "tempo": 120.0
            },
            {
                "start_time": 46.76136363636363,
                "end_time": 46.877272727272725,
                "pitch": 38,
                "velocity": 64,
                "duration": 0.11590909090909207,
                "tempo": 120.0
            },
            {
                "start_time": 46.893181818181816,
                "end_time": 47.01136363636363,
                "pitch": 38,
                "velocity": 64,
                "duration": 0.11818181818181728,
                "tempo": 120.0
            },
            {
                "start_time": 47.027272727272724,
                "end_time": 47.14545454545454,
                "pitch": 38,
                "velocity": 64,
                "duration": 0.11818181818181728,
                "tempo": 120.0
            },
            {
                "start_time": 47.16136363636363,
                "end_time": 47.277272727272724,
                "pitch": 38,
                "velocity": 64,
                "duration": 0.11590909090909207,
                "tempo": 120.0
            },
            {
                "start_time": 47.29545454545454,
                "end_time": 47.41136363636363,
                "pitch": 38,
                "velocity": 64,
                "duration": 0.11590909090909207,
                "tempo": 120.0
            },
            {
                "start_time": 47.429545454545455,
                "end_time": 47.54545454545454,
                "pitch": 38,
                "velocity": 64,
                "duration": 0.11590909090908497,
                "tempo": 120.0
            },
            {
                "start_time": 47.56136363636364,
                "end_time": 47.679545454545455,
                "pitch": 38,
                "velocity": 64,
                "duration": 0.11818181818181728,
                "tempo": 120.0
            },
            {
                "start_time": 47.695454545454545,
                "end_time": 47.81363636363636,
                "pitch": 38,
                "velocity": 64,
                "duration": 0.11818181818181728,
                "tempo": 120.0
            },
            {
                "start_time": 47.82954545454545,
                "end_time": 47.94772727272727,
                "pitch": 38,
                "velocity": 64,
                "duration": 0.11818181818181728,
                "tempo": 120.0
            },
            {
                "start_time": 47.965909090909086,
                "end_time": 48.084090909090904,
                "pitch": 38,
                "velocity": 64,
                "duration": 0.11818181818181728,
                "tempo": 120.0
            },
            {
                "start_time": 48.099999999999994,
                "end_time": 48.220454545454544,
                "pitch": 38,
                "velocity": 64,
                "duration": 0.12045454545454959,
                "tempo": 120.0
            },
            {
                "start_time": 48.236363636363635,
                "end_time": 48.35681818181818,
                "pitch": 38,
                "velocity": 64,
                "duration": 0.12045454545454248,
                "tempo": 120.0
            },
            {
                "start_time": 48.37272727272727,
                "end_time": 48.49090909090909,
                "pitch": 38,
                "velocity": 64,
                "duration": 0.11818181818182438,
                "tempo": 120.0
            },
            {
                "start_time": 48.50681818181818,
                "end_time": 48.62272727272727,
                "pitch": 38,
                "velocity": 64,
                "duration": 0.11590909090908497,
                "tempo": 120.0
            },
            {
                "start_time": 48.64090909090909,
                "end_time": 48.75681818181818,
                "pitch": 38,
                "velocity": 64,
                "duration": 0.11590909090909207,
                "tempo": 120.0
            },
            {
                "start_time": 48.775,
                "end_time": 48.89090909090909,
                "pitch": 38,
                "velocity": 64,
                "duration": 0.11590909090909207,
                "tempo": 120.0
            },
            {
                "start_time": 48.90681818181818,
                "end_time": 49.025,
                "pitch": 38,
                "velocity": 64,
                "duration": 0.11818181818181728,
                "tempo": 120.0
            },
            {
                "start_time": 49.04090909090909,
                "end_time": 49.15909090909091,
                "pitch": 38,
                "velocity": 64,
                "duration": 0.11818181818181728,
                "tempo": 120.0
            },
            {
                "start_time": 49.175,
                "end_time": 49.29090909090909,
                "pitch": 38,
                "velocity": 64,
                "duration": 0.11590909090909207,
                "tempo": 120.0
            },
            {
                "start_time": 49.309090909090905,
                "end_time": 49.425,
                "pitch": 38,
                "velocity": 64,
                "duration": 0.11590909090909207,
                "tempo": 120.0
            },
            {
                "start_time": 49.44090909090909,
                "end_time": 49.559090909090905,
                "pitch": 38,
                "velocity": 64,
                "duration": 0.11818181818181728,
                "tempo": 120.0
            },
            {
                "start_time": 49.574999999999996,
                "end_time": 49.69318181818181,
                "pitch": 38,
                "velocity": 64,
                "duration": 0.11818181818181728,
                "tempo": 120.0
            },
            {
                "start_time": 49.709090909090904,
                "end_time": 50.184090909090905,
                "pitch": 34,
                "velocity": 64,
                "duration": 0.4750000000000014,
                "tempo": 120.0
            },
            {
                "start_time": 50.19772727272727,
                "end_time": 50.3,
                "pitch": 46,
                "velocity": 64,
                "duration": 0.10227272727272663,
                "tempo": 120.0
            },
            {
                "start_time": 50.31590909090909,
                "end_time": 50.538636363636364,
                "pitch": 34,
                "velocity": 64,
                "duration": 0.22272727272727622,
                "tempo": 120.0
            },
            {
                "start_time": 50.55227272727272,
                "end_time": 51.12272727272727,
                "pitch": 34,
                "velocity": 64,
                "duration": 0.5704545454545453,
                "tempo": 120.0
            },
            {
                "start_time": 51.13636363636363,
                "end_time": 51.24318181818182,
                "pitch": 46,
                "velocity": 64,
                "duration": 0.10681818181818414,
                "tempo": 120.0
            },
            {
                "start_time": 51.25681818181818,
                "end_time": 51.36363636363636,
                "pitch": 34,
                "velocity": 64,
                "duration": 0.10681818181817704,
                "tempo": 120.0
            },
            {
                "start_time": 51.37954545454545,
                "end_time": 51.60454545454545,
                "pitch": 34,
                "velocity": 64,
                "duration": 0.22500000000000142,
                "tempo": 120.0
            },
            {
                "start_time": 51.62045454545454,
                "end_time": 52.13863636363636,
                "pitch": 36,
                "velocity": 64,
                "duration": 0.5181818181818159,
                "tempo": 120.0
            },
            {
                "start_time": 52.15454545454545,
                "end_time": 52.27272727272727,
                "pitch": 48,
                "velocity": 64,
                "duration": 0.11818181818182438,
                "tempo": 120.0
            },
            {
                "start_time": 52.29090909090909,
                "end_time": 52.54545454545454,
                "pitch": 36,
                "velocity": 64,
                "duration": 0.2545454545454504,
                "tempo": 120.0
            },
            {
                "start_time": 52.56363636363636,
                "end_time": 53.215909090909086,
                "pitch": 36,
                "velocity": 64,
                "duration": 0.6522727272727238,
                "tempo": 120.0
            },
            {
                "start_time": 53.23409090909091,
                "end_time": 53.349999999999994,
                "pitch": 48,
                "velocity": 64,
                "duration": 0.11590909090908497,
                "tempo": 120.0
            },
            {
                "start_time": 53.365909090909085,
                "end_time": 53.48409090909091,
                "pitch": 36,
                "velocity": 64,
                "duration": 0.11818181818182438,
                "tempo": 120.0
            },
            {
                "start_time": 53.5,
                "end_time": 53.61818181818182,
                "pitch": 36,
                "velocity": 64,
                "duration": 0.11818181818181728,
                "tempo": 120.0
            },
            {
                "start_time": 53.63409090909091,
                "end_time": 53.75,
                "pitch": 48,
                "velocity": 64,
                "duration": 0.11590909090909207,
                "tempo": 120.0
            },
            {
                "start_time": 53.768181818181816,
                "end_time": 54.29545454545454,
                "pitch": 38,
                "velocity": 64,
                "duration": 0.5272727272727238,
                "tempo": 120.0
            },
            {
                "start_time": 54.31136363636363,
                "end_time": 54.42727272727272,
                "pitch": 50,
                "velocity": 64,
                "duration": 0.11590909090909207,
                "tempo": 120.0
            },
            {
                "start_time": 54.445454545454545,
                "end_time": 54.695454545454545,
                "pitch": 38,
                "velocity": 64,
                "duration": 0.25,
                "tempo": 120.0
            },
            {
                "start_time": 54.711363636363636,
                "end_time": 55.37272727272727,
                "pitch": 38,
                "velocity": 64,
                "duration": 0.6613636363636317,
                "tempo": 120.0
            },
            {
                "start_time": 55.38863636363636,
                "end_time": 55.506818181818176,
                "pitch": 50,
                "velocity": 64,
                "duration": 0.11818181818181728,
                "tempo": 120.0
            },
            {
                "start_time": 55.52272727272727,
                "end_time": 55.64090909090909,
                "pitch": 38,
                "velocity": 64,
                "duration": 0.11818181818181728,
                "tempo": 120.0
            },
            {
                "start_time": 55.65681818181818,
                "end_time": 55.90681818181818,
                "pitch": 38,
                "velocity": 64,
                "duration": 0.25,
                "tempo": 120.0
            },
            {
                "start_time": 55.925,
                "end_time": 56.44090909090909,
                "pitch": 38,
                "velocity": 64,
                "duration": 0.5159090909090907,
                "tempo": 120.0
            },
            {
                "start_time": 56.459090909090904,
                "end_time": 56.574999999999996,
                "pitch": 50,
                "velocity": 64,
                "duration": 0.11590909090909207,
                "tempo": 120.0
            },
            {
                "start_time": 56.59318181818182,
                "end_time": 56.84318181818182,
                "pitch": 38,
                "velocity": 64,
                "duration": 0.25,
                "tempo": 120.0
            },
            {
                "start_time": 56.85909090909091,
                "end_time": 57.52045454545454,
                "pitch": 38,
                "velocity": 64,
                "duration": 0.6613636363636317,
                "tempo": 120.0
            },
            {
                "start_time": 57.53636363636363,
                "end_time": 57.65454545454545,
                "pitch": 50,
                "velocity": 64,
                "duration": 0.11818181818181728,
                "tempo": 120.0
            },
            {
                "start_time": 57.67045454545454,
                "end_time": 57.78636363636363,
                "pitch": 38,
                "velocity": 64,
                "duration": 0.11590909090909207,
                "tempo": 120.0
            },
            {
                "start_time": 57.804545454545455,
                "end_time": 58.054545454545455,
                "pitch": 38,
                "velocity": 64,
                "duration": 0.25,
                "tempo": 120.0
            },
            {
                "start_time": 58.070454545454545,
                "end_time": 58.58863636363636,
                "pitch": 34,
                "velocity": 64,
                "duration": 0.5181818181818159,
                "tempo": 120.0
            },
            {
                "start_time": 58.60454545454545,
                "end_time": 58.724999999999994,
                "pitch": 46,
                "velocity": 64,
                "duration": 0.12045454545454248,
                "tempo": 120.0
            },
            {
                "start_time": 58.740909090909085,
                "end_time": 58.99545454545454,
                "pitch": 34,
                "velocity": 64,
                "duration": 0.2545454545454575,
                "tempo": 120.0
            },
            {
                "start_time": 59.01363636363636,
                "end_time": 59.668181818181814,
                "pitch": 34,
                "velocity": 64,
                "duration": 0.6545454545454561,
                "tempo": 120.0
            },
            {
                "start_time": 59.684090909090905,
                "end_time": 59.8,
                "pitch": 46,
                "velocity": 64,
                "duration": 0.11590909090909207,
                "tempo": 120.0
            },
            {
                "start_time": 59.81818181818181,
                "end_time": 59.934090909090905,
                "pitch": 34,
                "velocity": 64,
                "duration": 0.11590909090909207,
                "tempo": 120.0
            },
            {
                "start_time": 59.949999999999996,
                "end_time": 60.20227272727272,
                "pitch": 34,
                "velocity": 64,
                "duration": 0.2522727272727252,
                "tempo": 120.0
            },
            {
                "start_time": 60.21818181818182,
                "end_time": 60.74545454545454,
                "pitch": 31,
                "velocity": 64,
                "duration": 0.5272727272727238,
                "tempo": 120.0
            },
            {
                "start_time": 60.76136363636363,
                "end_time": 60.87954545454545,
                "pitch": 43,
                "velocity": 64,
                "duration": 0.11818181818181728,
                "tempo": 120.0
            },
            {
                "start_time": 60.89545454545454,
                "end_time": 61.14545454545454,
                "pitch": 31,
                "velocity": 64,
                "duration": 0.25,
                "tempo": 120.0
            },
            {
                "start_time": 61.163636363636364,
                "end_time": 61.27954545454545,
                "pitch": 31,
                "velocity": 64,
                "duration": 0.11590909090908497,
                "tempo": 120.0
            },
            {
                "start_time": 61.29772727272727,
                "end_time": 61.81363636363636,
                "pitch": 31,
                "velocity": 64,
                "duration": 0.5159090909090907,
                "tempo": 120.0
            },
            {
                "start_time": 61.83181818181818,
                "end_time": 61.949999999999996,
                "pitch": 43,
                "velocity": 64,
                "duration": 0.11818181818181728,
                "tempo": 120.0
            },
            {
                "start_time": 61.965909090909086,
                "end_time": 62.086363636363636,
                "pitch": 31,
                "velocity": 64,
                "duration": 0.12045454545454959,
                "tempo": 120.0
            },
            {
                "start_time": 62.10227272727273,
                "end_time": 62.22272727272727,
                "pitch": 31,
                "velocity": 64,
                "duration": 0.12045454545454248,
                "tempo": 120.0
            },
            {
                "start_time": 62.23863636363636,
                "end_time": 62.35909090909091,
                "pitch": 43,
                "velocity": 64,
                "duration": 0.12045454545454959,
                "tempo": 120.0
            },
            {
                "start_time": 62.375,
                "end_time": 62.490909090909085,
                "pitch": 33,
                "velocity": 64,
                "duration": 0.11590909090908497,
                "tempo": 120.0
            },
            {
                "start_time": 62.50909090909091,
                "end_time": 62.625,
                "pitch": 33,
                "velocity": 64,
                "duration": 0.11590909090909207,
                "tempo": 120.0
            },
            {
                "start_time": 62.643181818181816,
                "end_time": 62.75909090909091,
                "pitch": 33,
                "velocity": 64,
                "duration": 0.11590909090909207,
                "tempo": 120.0
            },
            {
                "start_time": 62.775,
                "end_time": 62.893181818181816,
                "pitch": 33,
                "velocity": 64,
                "duration": 0.11818181818181728,
                "tempo": 120.0
            },
            {
                "start_time": 62.90909090909091,
                "end_time": 63.027272727272724,
                "pitch": 33,
                "velocity": 64,
                "duration": 0.11818181818181728,
                "tempo": 120.0
            },
            {
                "start_time": 63.043181818181814,
                "end_time": 63.15909090909091,
                "pitch": 33,
                "velocity": 64,
                "duration": 0.11590909090909207,
                "tempo": 120.0
            },
            {
                "start_time": 63.17727272727272,
                "end_time": 63.293181818181814,
                "pitch": 33,
                "velocity": 64,
                "duration": 0.11590909090909207,
                "tempo": 120.0
            },
            {
                "start_time": 63.309090909090905,
                "end_time": 63.42727272727272,
                "pitch": 33,
                "velocity": 64,
                "duration": 0.11818181818181728,
                "tempo": 120.0
            },
            {
                "start_time": 63.44318181818181,
                "end_time": 63.56363636363636,
                "pitch": 33,
                "velocity": 64,
                "duration": 0.12045454545454959,
                "tempo": 120.0
            },
            {
                "start_time": 63.57954545454545,
                "end_time": 63.69772727272727,
                "pitch": 33,
                "velocity": 64,
                "duration": 0.11818181818181728,
                "tempo": 120.0
            },
            {
                "start_time": 63.715909090909086,
                "end_time": 63.834090909090904,
                "pitch": 33,
                "velocity": 64,
                "duration": 0.11818181818181728,
                "tempo": 120.0
            },
            {
                "start_time": 63.85227272727273,
                "end_time": 63.970454545454544,
                "pitch": 33,
                "velocity": 64,
                "duration": 0.11818181818181728,
                "tempo": 120.0
            },
            {
                "start_time": 63.98863636363636,
                "end_time": 64.10454545454544,
                "pitch": 33,
                "velocity": 64,
                "duration": 0.11590909090908497,
                "tempo": 120.0
            },
            {
                "start_time": 64.12045454545454,
                "end_time": 64.23863636363636,
                "pitch": 33,
                "velocity": 64,
                "duration": 0.11818181818182438,
                "tempo": 120.0
            },
            {
                "start_time": 64.25454545454545,
                "end_time": 64.37272727272727,
                "pitch": 33,
                "velocity": 64,
                "duration": 0.11818181818182438,
                "tempo": 120.0
            },
            {
                "start_time": 64.38863636363637,
                "end_time": 64.50454545454545,
                "pitch": 33,
                "velocity": 64,
                "duration": 0.11590909090908497,
                "tempo": 120.0
            },
            {
                "start_time": 64.52272727272727,
                "end_time": 64.64090909090909,
                "pitch": 33,
                "velocity": 64,
                "duration": 0.11818181818182438,
                "tempo": 120.0
            },
            {
                "start_time": 64.6590909090909,
                "end_time": 64.77727272727273,
                "pitch": 33,
                "velocity": 64,
                "duration": 0.11818181818182438,
                "tempo": 120.0
            },
            {
                "start_time": 64.79318181818182,
                "end_time": 64.91363636363636,
                "pitch": 33,
                "velocity": 64,
                "duration": 0.12045454545453538,
                "tempo": 120.0
            },
            {
                "start_time": 64.92954545454545,
                "end_time": 65.05,
                "pitch": 33,
                "velocity": 64,
                "duration": 0.12045454545454959,
                "tempo": 120.0
            },
            {
                "start_time": 65.06590909090909,
                "end_time": 65.18181818181817,
                "pitch": 33,
                "velocity": 64,
                "duration": 0.11590909090908497,
                "tempo": 120.0
            },
            {
                "start_time": 65.2,
                "end_time": 65.31590909090909,
                "pitch": 33,
                "velocity": 64,
                "duration": 0.11590909090908497,
                "tempo": 120.0
            },
            {
                "start_time": 65.3340909090909,
                "end_time": 65.45,
                "pitch": 33,
                "velocity": 64,
                "duration": 0.11590909090909918,
                "tempo": 120.0
            },
            {
                "start_time": 65.4659090909091,
                "end_time": 65.5840909090909,
                "pitch": 33,
                "velocity": 64,
                "duration": 0.11818181818181017,
                "tempo": 120.0
            },
            {
                "start_time": 65.6,
                "end_time": 65.71818181818182,
                "pitch": 33,
                "velocity": 64,
                "duration": 0.11818181818182438,
                "tempo": 120.0
            },
            {
                "start_time": 65.73409090909091,
                "end_time": 65.88181818181818,
                "pitch": 33,
                "velocity": 64,
                "duration": 0.14772727272726627,
                "tempo": 120.0
            },
            {
                "start_time": 65.90227272727273,
                "end_time": 66.05,
                "pitch": 33,
                "velocity": 64,
                "duration": 0.14772727272726627,
                "tempo": 120.0
            },
            {
                "start_time": 66.07045454545454,
                "end_time": 66.2159090909091,
                "pitch": 33,
                "velocity": 64,
                "duration": 0.14545454545455527,
                "tempo": 120.0
            },
            {
                "start_time": 66.23863636363636,
                "end_time": 66.3840909090909,
                "pitch": 33,
                "velocity": 64,
                "duration": 0.14545454545454106,
                "tempo": 120.0
            },
            {
                "start_time": 66.40681818181818,
                "end_time": 66.55227272727272,
                "pitch": 33,
                "velocity": 64,
                "duration": 0.14545454545454106,
                "tempo": 120.0
            },
            {
                "start_time": 66.57272727272726,
                "end_time": 66.72272727272727,
                "pitch": 33,
                "velocity": 64,
                "duration": 0.15000000000000568,
                "tempo": 120.0
            },
            {
                "start_time": 66.74318181818181,
                "end_time": 66.89090909090909,
                "pitch": 33,
                "velocity": 64,
                "duration": 0.14772727272728048,
                "tempo": 120.0
            }
        ],
        "Harpsichord": [
            {
                "start_time": 0.011363636363636364,
                "end_time": 0.09545454545454544,
                "pitch": 52,
                "velocity": 51,
                "duration": 0.08409090909090908,
                "tempo": 120.0
            },
            {
                "start_time": 0.11136363636363636,
                "end_time": 0.22954545454545452,
                "pitch": 55,
                "velocity": 51,
                "duration": 0.11818181818181817,
                "tempo": 120.0
            },
            {
                "start_time": 0.24545454545454545,
                "end_time": 0.36136363636363633,
                "pitch": 59,
                "velocity": 51,
                "duration": 0.11590909090909088,
                "tempo": 120.0
            },
            {
                "start_time": 0.3795454545454545,
                "end_time": 0.4954545454545454,
                "pitch": 64,
                "velocity": 51,
                "duration": 0.1159090909090909,
                "tempo": 120.0
            },
            {
                "start_time": 0.5113636363636364,
                "end_time": 0.6227272727272727,
                "pitch": 52,
                "velocity": 51,
                "duration": 0.11136363636363633,
                "tempo": 120.0
            },
            {
                "start_time": 0.6386363636363636,
                "end_time": 0.7477272727272727,
                "pitch": 55,
                "velocity": 51,
                "duration": 0.10909090909090913,
                "tempo": 120.0
            },
            {
                "start_time": 0.7636363636363636,
                "end_time": 0.875,
                "pitch": 59,
                "velocity": 51,
                "duration": 0.11136363636363644,
                "tempo": 120.0
            },
            {
                "start_time": 0.8909090909090909,
                "end_time": 1.0,
                "pitch": 64,
                "velocity": 51,
                "duration": 0.10909090909090913,
                "tempo": 120.0
            },
            {
                "start_time": 1.0159090909090909,
                "end_time": 1.1318181818181818,
                "pitch": 52,
                "velocity": 51,
                "duration": 0.11590909090909096,
                "tempo": 120.0
            },
            {
                "start_time": 1.15,
                "end_time": 1.2659090909090909,
                "pitch": 55,
                "velocity": 51,
                "duration": 0.11590909090909096,
                "tempo": 120.0
            },
            {
                "start_time": 1.2818181818181817,
                "end_time": 1.4,
                "pitch": 59,
                "velocity": 51,
                "duration": 0.11818181818181817,
                "tempo": 120.0
            },
            {
                "start_time": 1.4159090909090908,
                "end_time": 1.534090909090909,
                "pitch": 64,
                "velocity": 51,
                "duration": 0.11818181818181817,
                "tempo": 120.0
            },
            {
                "start_time": 1.5499999999999998,
                "end_time": 1.6659090909090908,
                "pitch": 52,
                "velocity": 51,
                "duration": 0.11590909090909096,
                "tempo": 120.0
            },
            {
                "start_time": 1.684090909090909,
                "end_time": 1.7999999999999998,
                "pitch": 55,
                "velocity": 51,
                "duration": 0.11590909090909074,
                "tempo": 120.0
            },
            {
                "start_time": 1.8181818181818181,
                "end_time": 1.934090909090909,
                "pitch": 59,
                "velocity": 51,
                "duration": 0.11590909090909096,
                "tempo": 120.0
            },
            {
                "start_time": 1.95,
                "end_time": 2.068181818181818,
                "pitch": 64,
                "velocity": 51,
                "duration": 0.11818181818181794,
                "tempo": 120.0
            },
            {
                "start_time": 2.084090909090909,
                "end_time": 2.2045454545454546,
                "pitch": 52,
                "velocity": 51,
                "duration": 0.12045454545454559,
                "tempo": 120.0
            },
            {
                "start_time": 2.2204545454545452,
                "end_time": 2.3386363636363634,
                "pitch": 55,
                "velocity": 51,
                "duration": 0.11818181818181817,
                "tempo": 120.0
            },
            {
                "start_time": 2.356818181818182,
                "end_time": 2.475,
                "pitch": 59,
                "velocity": 51,
                "duration": 0.11818181818181817,
                "tempo": 120.0
            },
            {
                "start_time": 2.493181818181818,
                "end_time": 2.6113636363636363,
                "pitch": 64,
                "velocity": 51,
                "duration": 0.11818181818181817,
                "tempo": 120.0
            },
            {
                "start_time": 2.6295454545454544,
                "end_time": 2.745454545454545,
                "pitch": 52,
                "velocity": 51,
                "duration": 0.11590909090909074,
                "tempo": 120.0
            },
            {
                "start_time": 2.7613636363636362,
                "end_time": 2.8795454545454544,
                "pitch": 55,
                "velocity": 51,
                "duration": 0.11818181818181817,
                "tempo": 120.0
            },
            {
                "start_time": 2.8954545454545455,
                "end_time": 3.0136363636363637,
                "pitch": 59,
                "velocity": 51,
                "duration": 0.11818181818181817,
                "tempo": 120.0
            },
            {
                "start_time": 3.0295454545454543,
                "end_time": 3.1454545454545455,
                "pitch": 64,
                "velocity": 51,
                "duration": 0.11590909090909118,
                "tempo": 120.0
            },
            {
                "start_time": 3.1636363636363636,
                "end_time": 3.2795454545454543,
                "pitch": 52,
                "velocity": 51,
                "duration": 0.11590909090909074,
                "tempo": 120.0
            },
            {
                "start_time": 3.2954545454545454,
                "end_time": 3.4136363636363636,
                "pitch": 55,
                "velocity": 51,
                "duration": 0.11818181818181817,
                "tempo": 120.0
            },
            {
                "start_time": 3.4295454545454542,
                "end_time": 3.5477272727272724,
                "pitch": 59,
                "velocity": 51,
                "duration": 0.11818181818181817,
                "tempo": 120.0
            },
            {
                "start_time": 3.5636363636363635,
                "end_time": 3.6795454545454542,
                "pitch": 64,
                "velocity": 51,
                "duration": 0.11590909090909074,
                "tempo": 120.0
            },
            {
                "start_time": 3.6977272727272728,
                "end_time": 3.815909090909091,
                "pitch": 52,
                "velocity": 51,
                "duration": 0.11818181818181817,
                "tempo": 120.0
            },
            {
                "start_time": 3.834090909090909,
                "end_time": 3.952272727272727,
                "pitch": 55,
                "velocity": 51,
                "duration": 0.11818181818181817,
                "tempo": 120.0
            },
            {
                "start_time": 3.968181818181818,
                "end_time": 4.088636363636364,
                "pitch": 59,
                "velocity": 51,
                "duration": 0.12045454545454604,
                "tempo": 120.0
            },
            {
                "start_time": 4.1045454545454545,
                "end_time": 4.225,
                "pitch": 64,
                "velocity": 51,
                "duration": 0.12045454545454515,
                "tempo": 120.0
            },
            {
                "start_time": 4.24090909090909,
                "end_time": 4.3590909090909085,
                "pitch": 52,
                "velocity": 51,
                "duration": 0.11818181818181817,
                "tempo": 120.0
            },
            {
                "start_time": 4.375,
                "end_time": 4.49090909090909,
                "pitch": 55,
                "velocity": 51,
                "duration": 0.1159090909090903,
                "tempo": 120.0
            },
            {
                "start_time": 4.509090909090909,
                "end_time": 4.625,
                "pitch": 59,
                "velocity": 51,
                "duration": 0.11590909090909118,
                "tempo": 120.0
            },
            {
                "start_time": 4.640909090909091,
                "end_time": 4.759090909090909,
                "pitch": 64,
                "velocity": 51,
                "duration": 0.11818181818181817,
                "tempo": 120.0
            },
            {
                "start_time": 4.7749999999999995,
                "end_time": 4.893181818181818,
                "pitch": 52,
                "velocity": 51,
                "duration": 0.11818181818181817,
                "tempo": 120.0
            },
            {
                "start_time": 4.909090909090909,
                "end_time": 5.0249999999999995,
                "pitch": 55,
                "velocity": 51,
                "duration": 0.1159090909090903,
                "tempo": 120.0
            },
            {
                "start_time": 5.043181818181818,
                "end_time": 5.159090909090909,
                "pitch": 59,
                "velocity": 51,
                "duration": 0.11590909090909118,
                "tempo": 120.0
            },
            {
                "start_time": 5.177272727272727,
                "end_time": 5.293181818181818,
                "pitch": 64,
                "velocity": 51,
                "duration": 0.11590909090909118,
                "tempo": 120.0
            },
            {
                "start_time": 5.309090909090909,
                "end_time": 5.429545454545455,
                "pitch": 52,
                "velocity": 51,
                "duration": 0.12045454545454604,
                "tempo": 120.0
            },
            {
                "start_time": 5.445454545454545,
                "end_time": 5.5659090909090905,
                "pitch": 55,
                "velocity": 51,
                "duration": 0.12045454545454515,
                "tempo": 120.0
            },
            {
                "start_time": 5.581818181818181,
                "end_time": 5.699999999999999,
                "pitch": 59,
                "velocity": 51,
                "duration": 0.11818181818181817,
                "tempo": 120.0
            },
            {
                "start_time": 5.718181818181818,
                "end_time": 5.836363636363636,
                "pitch": 64,
                "velocity": 51,
                "duration": 0.11818181818181817,
                "tempo": 120.0
            },
            {
                "start_time": 5.8545454545454545,
                "end_time": 5.970454545454545,
                "pitch": 52,
                "velocity": 51,
                "duration": 0.1159090909090903,
                "tempo": 120.0
            },
            {
                "start_time": 5.986363636363636,
                "end_time": 6.1045454545454545,
                "pitch": 55,
                "velocity": 51,
                "duration": 0.11818181818181817,
                "tempo": 120.0
            },
            {
                "start_time": 6.120454545454545,
                "end_time": 6.238636363636363,
                "pitch": 59,
                "velocity": 51,
                "duration": 0.11818181818181817,
                "tempo": 120.0
            },
            {
                "start_time": 6.254545454545454,
                "end_time": 6.370454545454545,
                "pitch": 64,
                "velocity": 51,
                "duration": 0.11590909090909118,
                "tempo": 120.0
            },
            {
                "start_time": 6.388636363636364,
                "end_time": 6.504545454545454,
                "pitch": 52,
                "velocity": 51,
                "duration": 0.1159090909090903,
                "tempo": 120.0
            },
            {
                "start_time": 6.5227272727272725,
                "end_time": 6.638636363636364,
                "pitch": 55,
                "velocity": 51,
                "duration": 0.11590909090909118,
                "tempo": 120.0
            },
            {
                "start_time": 6.654545454545454,
                "end_time": 6.7727272727272725,
                "pitch": 59,
                "velocity": 51,
                "duration": 0.11818181818181817,
                "tempo": 120.0
            },
            {
                "start_time": 6.788636363636363,
                "end_time": 6.906818181818181,
                "pitch": 64,
                "velocity": 51,
                "duration": 0.11818181818181817,
                "tempo": 120.0
            },
            {
                "start_time": 6.922727272727272,
                "end_time": 7.040909090909091,
                "pitch": 52,
                "velocity": 51,
                "duration": 0.11818181818181905,
                "tempo": 120.0
            },
            {
                "start_time": 7.059090909090909,
                "end_time": 7.177272727272727,
                "pitch": 55,
                "velocity": 51,
                "duration": 0.11818181818181817,
                "tempo": 120.0
            },
            {
                "start_time": 7.195454545454545,
                "end_time": 7.3136363636363635,
                "pitch": 59,
                "velocity": 51,
                "duration": 0.11818181818181817,
                "tempo": 120.0
            },
            {
                "start_time": 7.329545454545454,
                "end_time": 7.449999999999999,
                "pitch": 64,
                "velocity": 51,
                "duration": 0.12045454545454515,
                "tempo": 120.0
            },
            {
                "start_time": 7.465909090909091,
                "end_time": 7.584090909090909,
                "pitch": 52,
                "velocity": 51,
                "duration": 0.11818181818181817,
                "tempo": 120.0
            },
            {
                "start_time": 7.6,
                "end_time": 7.718181818181818,
                "pitch": 55,
                "velocity": 51,
                "duration": 0.11818181818181817,
                "tempo": 120.0
            },
            {
                "start_time": 7.7340909090909085,
                "end_time": 7.85,
                "pitch": 59,
                "velocity": 51,
                "duration": 0.11590909090909118,
                "tempo": 120.0
            },
            {
                "start_time": 7.868181818181818,
                "end_time": 7.9840909090909085,
                "pitch": 64,
                "velocity": 51,
                "duration": 0.1159090909090903,
                "tempo": 120.0
            },
            {
                "start_time": 8.0,
                "end_time": 8.118181818181817,
                "pitch": 52,
                "velocity": 51,
                "duration": 0.11818181818181728,
                "tempo": 120.0
            },
            {
                "start_time": 8.134090909090908,
                "end_time": 8.252272727272727,
                "pitch": 55,
                "velocity": 51,
                "duration": 0.11818181818181905,
                "tempo": 120.0
            },
            {
                "start_time": 8.268181818181818,
                "end_time": 8.384090909090908,
                "pitch": 59,
                "velocity": 51,
                "duration": 0.1159090909090903,
                "tempo": 120.0
            },
            {
                "start_time": 8.402272727272727,
                "end_time": 8.518181818181818,
                "pitch": 64,
                "velocity": 51,
                "duration": 0.1159090909090903,
                "tempo": 120.0
            },
            {
                "start_time": 8.536363636363635,
                "end_time": 8.654545454545454,
                "pitch": 52,
                "velocity": 51,
                "duration": 0.11818181818181905,
                "tempo": 120.0
            },
            {
                "start_time": 8.670454545454545,
                "end_time": 8.790909090909091,
                "pitch": 55,
                "velocity": 51,
                "duration": 0.12045454545454604,
                "tempo": 120.0
            },
            {
                "start_time": 8.806818181818182,
                "end_time": 8.927272727272728,
                "pitch": 59,
                "velocity": 51,
                "duration": 0.12045454545454604,
                "tempo": 120.0
            },
            {
                "start_time": 8.943181818181818,
                "end_time": 9.061363636363636,
                "pitch": 64,
                "velocity": 51,
                "duration": 0.11818181818181728,
                "tempo": 120.0
            },
            {
                "start_time": 9.079545454545453,
                "end_time": 9.195454545454545,
                "pitch": 52,
                "velocity": 51,
                "duration": 0.11590909090909207,
                "tempo": 120.0
            },
            {
                "start_time": 9.213636363636363,
                "end_time": 9.329545454545453,
                "pitch": 55,
                "velocity": 51,
                "duration": 0.1159090909090903,
                "tempo": 120.0
            },
            {
                "start_time": 9.345454545454546,
                "end_time": 9.463636363636363,
                "pitch": 59,
                "velocity": 51,
                "duration": 0.11818181818181728,
                "tempo": 120.0
            },
            {
                "start_time": 9.479545454545454,
                "end_time": 9.597727272727273,
                "pitch": 64,
                "velocity": 51,
                "duration": 0.11818181818181905,
                "tempo": 120.0
            },
            {
                "start_time": 9.613636363636363,
                "end_time": 9.729545454545454,
                "pitch": 52,
                "velocity": 51,
                "duration": 0.1159090909090903,
                "tempo": 120.0
            },
            {
                "start_time": 9.747727272727273,
                "end_time": 9.895454545454545,
                "pitch": 55,
                "velocity": 51,
                "duration": 0.1477272727272716,
                "tempo": 120.0
            },
            {
                "start_time": 9.915909090909091,
                "end_time": 10.063636363636363,
                "pitch": 59,
                "velocity": 51,
                "duration": 0.1477272727272716,
                "tempo": 120.0
            },
            {
                "start_time": 10.086363636363636,
                "end_time": 10.23409090909091,
                "pitch": 64,
                "velocity": 51,
                "duration": 0.14772727272727337,
                "tempo": 120.0
            },
            {
                "start_time": 10.254545454545454,
                "end_time": 10.404545454545454,
                "pitch": 52,
                "velocity": 51,
                "duration": 0.15000000000000036,
                "tempo": 120.0
            },
            {
                "start_time": 10.424999999999999,
                "end_time": 10.572727272727272,
                "pitch": 55,
                "velocity": 51,
                "duration": 0.14772727272727337,
                "tempo": 120.0
            },
            {
                "start_time": 10.595454545454546,
                "end_time": 10.743181818181817,
                "pitch": 59,
                "velocity": 51,
                "duration": 0.1477272727272716,
                "tempo": 120.0
            },
            {
                "start_time": 10.763636363636364,
                "end_time": 10.911363636363635,
                "pitch": 64,
                "velocity": 51,
                "duration": 0.1477272727272716,
                "tempo": 120.0
            },
            {
                "start_time": 10.934090909090909,
                "end_time": 49.69318181818181,
                "pitch": 62,
                "velocity": 51,
                "duration": 38.7590909090909,
                "tempo": 120.0
            },
            {
                "start_time": 49.709090909090904,
                "end_time": 51.60454545454545,
                "pitch": 69,
                "velocity": 51,
                "duration": 1.8954545454545482,
                "tempo": 120.0
            },
            {
                "start_time": 51.62045454545454,
                "end_time": 53.75,
                "pitch": 67,
                "velocity": 51,
                "duration": 2.1295454545454575,
                "tempo": 120.0
            },
            {
                "start_time": 53.768181818181816,
                "end_time": 58.054545454545455,
                "pitch": 69,
                "velocity": 51,
                "duration": 4.286363636363639,
                "tempo": 120.0
            },
            {
                "start_time": 58.070454545454545,
                "end_time": 60.20227272727272,
                "pitch": 65,
                "velocity": 51,
                "duration": 2.1318181818181756,
                "tempo": 120.0
            },
            {
                "start_time": 60.21818181818182,
                "end_time": 62.35909090909091,
                "pitch": 67,
                "velocity": 51,
                "duration": 2.1409090909090907,
                "tempo": 120.0
            },
            {
                "start_time": 62.375,
                "end_time": 64.50454545454545,
                "pitch": 65,
                "velocity": 51,
                "duration": 2.1295454545454504,
                "tempo": 120.0
            },
            {
                "start_time": 64.52272727272727,
                "end_time": 66.89090909090909,
                "pitch": 64,
                "velocity": 51,
                "duration": 2.3681818181818244,
                "tempo": 120.0
            }
        ],
        "Trumpet": [
            {
                "start_time": 19.604545454545452,
                "end_time": 19.720454545454544,
                "pitch": 62,
                "velocity": 51,
                "duration": 0.11590909090909207,
                "tempo": 120.0
            },
            {
                "start_time": 19.738636363636363,
                "end_time": 19.854545454545452,
                "pitch": 62,
                "velocity": 51,
                "duration": 0.11590909090908852,
                "tempo": 120.0
            },
            {
                "start_time": 19.87272727272727,
                "end_time": 19.988636363636363,
                "pitch": 62,
                "velocity": 51,
                "duration": 0.11590909090909207,
                "tempo": 120.0
            },
            {
                "start_time": 20.004545454545454,
                "end_time": 20.12272727272727,
                "pitch": 62,
                "velocity": 51,
                "duration": 0.11818181818181728,
                "tempo": 120.0
            },
            {
                "start_time": 20.272727272727273,
                "end_time": 20.388636363636362,
                "pitch": 62,
                "velocity": 51,
                "duration": 0.11590909090908852,
                "tempo": 120.0
            },
            {
                "start_time": 20.40681818181818,
                "end_time": 20.661363636363635,
                "pitch": 64,
                "velocity": 51,
                "duration": 0.25454545454545396,
                "tempo": 120.0
            },
            {
                "start_time": 20.677272727272726,
                "end_time": 20.797727272727272,
                "pitch": 65,
                "velocity": 51,
                "duration": 0.12045454545454604,
                "tempo": 120.0
            },
            {
                "start_time": 20.813636363636363,
                "end_time": 21.06590909090909,
                "pitch": 64,
                "velocity": 51,
                "duration": 0.25227272727272876,
                "tempo": 120.0
            },
            {
                "start_time": 21.084090909090907,
                "end_time": 21.334090909090907,
                "pitch": 62,
                "velocity": 51,
                "duration": 0.25,
                "tempo": 120.0
            },
            {
                "start_time": 21.349999999999998,
                "end_time": 21.73409090909091,
                "pitch": 60,
                "velocity": 51,
                "duration": 0.3840909090909115,
                "tempo": 120.0
            },
            {
                "start_time": 21.752272727272725,
                "end_time": 21.868181818181817,
                "pitch": 62,
                "velocity": 51,
                "duration": 0.11590909090909207,
                "tempo": 120.0
            },
            {
                "start_time": 21.886363636363637,
                "end_time": 22.002272727272725,
                "pitch": 62,
                "velocity": 51,
                "duration": 0.11590909090908852,
                "tempo": 120.0
            },
            {
                "start_time": 22.018181818181816,
                "end_time": 22.138636363636362,
                "pitch": 62,
                "velocity": 51,
                "duration": 0.12045454545454604,
                "tempo": 120.0
            },
            {
                "start_time": 22.154545454545453,
                "end_time": 22.272727272727273,
                "pitch": 62,
                "velocity": 51,
                "duration": 0.11818181818182083,
                "tempo": 120.0
            },
            {
                "start_time": 22.427272727272726,
                "end_time": 22.545454545454543,
                "pitch": 62,
                "velocity": 51,
                "duration": 0.11818181818181728,
                "tempo": 120.0
            },
            {
                "start_time": 22.563636363636363,
                "end_time": 22.813636363636363,
                "pitch": 64,
                "velocity": 51,
                "duration": 0.25,
                "tempo": 120.0
            },
            {
                "start_time": 22.829545454545453,
                "end_time": 22.94772727272727,
                "pitch": 65,
                "velocity": 51,
                "duration": 0.11818181818181728,
                "tempo": 120.0
            },
            {
                "start_time": 22.96363636363636,
                "end_time": 23.21363636363636,
                "pitch": 64,
                "velocity": 51,
                "duration": 0.25,
                "tempo": 120.0
            },
            {
                "start_time": 23.23181818181818,
                "end_time": 23.48181818181818,
                "pitch": 62,
                "velocity": 51,
                "duration": 0.25,
                "tempo": 120.0
            },
            {
                "start_time": 23.49772727272727,
                "end_time": 23.886363636363637,
                "pitch": 60,
                "velocity": 51,
                "duration": 0.38863636363636545,
                "tempo": 120.0
            },
            {
                "start_time": 23.904545454545453,
                "end_time": 24.02272727272727,
                "pitch": 62,
                "velocity": 51,
                "duration": 0.11818181818181728,
                "tempo": 120.0
            },
            {
                "start_time": 24.038636363636364,
                "end_time": 24.159090909090907,
                "pitch": 62,
                "velocity": 51,
                "duration": 0.12045454545454248,
                "tempo": 120.0
            },
            {
                "start_time": 24.174999999999997,
                "end_time": 24.293181818181818,
                "pitch": 62,
                "velocity": 51,
                "duration": 0.11818181818182083,
                "tempo": 120.0
            },
            {
                "start_time": 24.30909090909091,
                "end_time": 24.424999999999997,
                "pitch": 62,
                "velocity": 51,
                "duration": 0.11590909090908852,
                "tempo": 120.0
            },
            {
                "start_time": 24.577272727272724,
                "end_time": 24.693181818181817,
                "pitch": 62,
                "velocity": 51,
                "duration": 0.11590909090909207,
                "tempo": 120.0
            },
            {
                "start_time": 24.709090909090907,
                "end_time": 24.961363636363636,
                "pitch": 64,
                "velocity": 51,
                "duration": 0.25227272727272876,
                "tempo": 120.0
            },
            {
                "start_time": 24.977272727272727,
                "end_time": 25.09318181818182,
                "pitch": 65,
                "velocity": 51,
                "duration": 0.11590909090909207,
                "tempo": 120.0
            },
            {
                "start_time": 25.111363636363635,
                "end_time": 25.363636363636363,
                "pitch": 64,
                "velocity": 51,
                "duration": 0.25227272727272876,
                "tempo": 120.0
            },
            {
                "start_time": 25.379545454545454,
                "end_time": 25.634090909090908,
                "pitch": 62,
                "velocity": 51,
                "duration": 0.25454545454545396,
                "tempo": 120.0
            },
            {
                "start_time": 25.652272727272727,
                "end_time": 26.038636363636364,
                "pitch": 60,
                "velocity": 51,
                "duration": 0.3863636363636367,
                "tempo": 120.0
            },
            {
                "start_time": 26.054545454545455,
                "end_time": 26.172727272727272,
                "pitch": 62,
                "velocity": 51,
                "duration": 0.11818181818181728,
                "tempo": 120.0
            },
            {
                "start_time": 26.188636363636363,
                "end_time": 26.30681818181818,
                "pitch": 62,
                "velocity": 51,
                "duration": 0.11818181818181728,
                "tempo": 120.0
            },
            {
                "start_time": 26.32272727272727,
                "end_time": 26.438636363636363,
                "pitch": 62,
                "velocity": 51,
                "duration": 0.11590909090909207,
                "tempo": 120.0
            },
            {
                "start_time": 26.456818181818182,
                "end_time": 26.57272727272727,
                "pitch": 62,
                "velocity": 51,
                "duration": 0.11590909090908852,
                "tempo": 120.0
            },
            {
                "start_time": 26.722727272727273,
                "end_time": 26.84090909090909,
                "pitch": 64,
                "velocity": 51,
                "duration": 0.11818181818181728,
                "tempo": 120.0
            },
            {
                "start_time": 26.85681818181818,
                "end_time": 26.974999999999998,
                "pitch": 65,
                "velocity": 51,
                "duration": 0.11818181818181728,
                "tempo": 120.0
            },
            {
                "start_time": 27.129545454545454,
                "end_time": 27.24772727272727,
                "pitch": 60,
                "velocity": 51,
                "duration": 0.11818181818181728,
                "tempo": 120.0
            },
            {
                "start_time": 27.26590909090909,
                "end_time": 27.384090909090908,
                "pitch": 60,
                "velocity": 51,
                "duration": 0.11818181818181728,
                "tempo": 120.0
            },
            {
                "start_time": 27.4,
                "end_time": 27.518181818181816,
                "pitch": 60,
                "velocity": 51,
                "duration": 0.11818181818181728,
                "tempo": 120.0
            },
            {
                "start_time": 27.534090909090907,
                "end_time": 27.652272727272727,
                "pitch": 60,
                "velocity": 51,
                "duration": 0.11818181818182083,
                "tempo": 120.0
            },
            {
                "start_time": 27.802272727272726,
                "end_time": 27.918181818181818,
                "pitch": 62,
                "velocity": 51,
                "duration": 0.11590909090909207,
                "tempo": 120.0
            },
            {
                "start_time": 27.936363636363634,
                "end_time": 28.052272727272726,
                "pitch": 64,
                "velocity": 51,
                "duration": 0.11590909090909207,
                "tempo": 120.0
            },
            {
                "start_time": 28.202272727272724,
                "end_time": 28.320454545454545,
                "pitch": 62,
                "velocity": 51,
                "duration": 0.11818181818182083,
                "tempo": 120.0
            },
            {
                "start_time": 28.336363636363636,
                "end_time": 28.452272727272724,
                "pitch": 62,
                "velocity": 51,
                "duration": 0.11590909090908852,
                "tempo": 120.0
            },
            {
                "start_time": 28.470454545454544,
                "end_time": 28.58863636363636,
                "pitch": 62,
                "velocity": 51,
                "duration": 0.11818181818181728,
                "tempo": 120.0
            },
            {
                "start_time": 28.604545454545452,
                "end_time": 28.724999999999998,
                "pitch": 62,
                "velocity": 51,
                "duration": 0.12045454545454604,
                "tempo": 120.0
            },
            {
                "start_time": 28.877272727272725,
                "end_time": 28.99772727272727,
                "pitch": 62,
                "velocity": 51,
                "duration": 0.12045454545454604,
                "tempo": 120.0
            },
            {
                "start_time": 29.013636363636362,
                "end_time": 29.263636363636362,
                "pitch": 64,
                "velocity": 51,
                "duration": 0.25,
                "tempo": 120.0
            },
            {
                "start_time": 29.28181818181818,
                "end_time": 29.39772727272727,
                "pitch": 65,
                "velocity": 51,
                "duration": 0.11590909090908852,
                "tempo": 120.0
            },
            {
                "start_time": 29.41363636363636,
                "end_time": 29.66590909090909,
                "pitch": 64,
                "velocity": 51,
                "duration": 0.25227272727272876,
                "tempo": 120.0
            },
            {
                "start_time": 29.68181818181818,
                "end_time": 29.93181818181818,
                "pitch": 62,
                "velocity": 51,
                "duration": 0.25,
                "tempo": 120.0
            },
            {
                "start_time": 29.95,
                "end_time": 30.336363636363636,
                "pitch": 60,
                "velocity": 51,
                "duration": 0.3863636363636367,
                "tempo": 120.0
            },
            {
                "start_time": 30.354545454545452,
                "end_time": 30.472727272727273,
                "pitch": 62,
                "velocity": 51,
                "duration": 0.11818181818182083,
                "tempo": 120.0
            },
            {
                "start_time": 30.49090909090909,
                "end_time": 30.60909090909091,
                "pitch": 62,
                "velocity": 51,
                "duration": 0.11818181818182083,
                "tempo": 120.0
            },
            {
                "start_time": 30.627272727272725,
                "end_time": 30.743181818181817,
                "pitch": 62,
                "velocity": 51,
                "duration": 0.11590909090909207,
                "tempo": 120.0
            },
            {
                "start_time": 30.759090909090908,
                "end_time": 30.877272727272725,
                "pitch": 62,
                "velocity": 51,
                "duration": 0.11818181818181728,
                "tempo": 120.0
            },
            {
                "start_time": 31.027272727272727,
                "end_time": 31.143181818181816,
                "pitch": 62,
                "velocity": 51,
                "duration": 0.11590909090908852,
                "tempo": 120.0
            },
            {
                "start_time": 31.161363636363635,
                "end_time": 31.411363636363635,
                "pitch": 64,
                "velocity": 51,
                "duration": 0.25,
                "tempo": 120.0
            },
            {
                "start_time": 31.427272727272726,
                "end_time": 31.545454545454543,
                "pitch": 65,
                "velocity": 51,
                "duration": 0.11818181818181728,
                "tempo": 120.0
            },
            {
                "start_time": 31.561363636363634,
                "end_time": 31.813636363636363,
                "pitch": 64,
                "velocity": 51,
                "duration": 0.25227272727272876,
                "tempo": 120.0
            },
            {
                "start_time": 31.831818181818182,
                "end_time": 32.086363636363636,
                "pitch": 62,
                "velocity": 51,
                "duration": 0.25454545454545396,
                "tempo": 120.0
            },
            {
                "start_time": 32.10227272727273,
                "end_time": 32.48863636363636,
                "pitch": 60,
                "velocity": 51,
                "duration": 0.38636363636363313,
                "tempo": 120.0
            },
            {
                "start_time": 32.50681818181818,
                "end_time": 32.62272727272727,
                "pitch": 62,
                "velocity": 51,
                "duration": 0.11590909090908497,
                "tempo": 120.0
            },
            {
                "start_time": 32.64090909090909,
                "end_time": 32.75681818181818,
                "pitch": 62,
                "velocity": 51,
                "duration": 0.11590909090909207,
                "tempo": 120.0
            },
            {
                "start_time": 32.77272727272727,
                "end_time": 32.89090909090909,
                "pitch": 62,
                "velocity": 51,
                "duration": 0.11818181818181728,
                "tempo": 120.0
            },
            {
                "start_time": 32.90681818181818,
                "end_time": 33.025,
                "pitch": 62,
                "velocity": 51,
                "duration": 0.11818181818181728,
                "tempo": 120.0
            },
            {
                "start_time": 33.175,
                "end_time": 33.29090909090909,
                "pitch": 62,
                "velocity": 51,
                "duration": 0.11590909090909207,
                "tempo": 120.0
            },
            {
                "start_time": 33.30681818181818,
                "end_time": 33.56363636363636,
                "pitch": 64,
                "velocity": 51,
                "duration": 0.2568181818181827,
                "tempo": 120.0
            },
            {
                "start_time": 33.57954545454545,
                "end_time": 33.69772727272727,
                "pitch": 65,
                "velocity": 51,
                "duration": 0.11818181818181728,
                "tempo": 120.0
            },
            {
                "start_time": 33.715909090909086,
                "end_time": 33.96818181818182,
                "pitch": 64,
                "velocity": 51,
                "duration": 0.2522727272727323,
                "tempo": 120.0
            },
            {
                "start_time": 33.986363636363635,
                "end_time": 34.236363636363635,
                "pitch": 62,
                "velocity": 51,
                "duration": 0.25,
                "tempo": 120.0
            },
            {
                "start_time": 34.252272727272725,
                "end_time": 34.63636363636363,
                "pitch": 64,
                "velocity": 51,
                "duration": 0.38409090909090793,
                "tempo": 120.0
            },
            {
                "start_time": 34.652272727272724,
                "end_time": 34.77045454545454,
                "pitch": 62,
                "velocity": 51,
                "duration": 0.11818181818181728,
                "tempo": 120.0
            },
            {
                "start_time": 34.78636363636363,
                "end_time": 34.89545454545454,
                "pitch": 62,
                "velocity": 51,
                "duration": 0.10909090909090935,
                "tempo": 120.0
            },
            {
                "start_time": 34.91136363636363,
                "end_time": 35.013636363636365,
                "pitch": 62,
                "velocity": 51,
                "duration": 0.10227272727273373,
                "tempo": 120.0
            },
            {
                "start_time": 35.027272727272724,
                "end_time": 35.12954545454545,
                "pitch": 62,
                "velocity": 51,
                "duration": 0.10227272727272663,
                "tempo": 120.0
            },
            {
                "start_time": 35.25909090909091,
                "end_time": 35.36818181818182,
                "pitch": 64,
                "velocity": 51,
                "duration": 0.10909090909090935,
                "tempo": 120.0
            },
            {
                "start_time": 35.38636363636363,
                "end_time": 35.5,
                "pitch": 65,
                "velocity": 51,
                "duration": 0.11363636363636687,
                "tempo": 120.0
            },
            {
                "start_time": 35.64772727272727,
                "end_time": 35.763636363636365,
                "pitch": 60,
                "velocity": 51,
                "duration": 0.11590909090909207,
                "tempo": 120.0
            },
            {
                "start_time": 35.779545454545456,
                "end_time": 35.89545454545454,
                "pitch": 60,
                "velocity": 51,
                "duration": 0.11590909090908497,
                "tempo": 120.0
            },
            {
                "start_time": 35.913636363636364,
                "end_time": 36.03181818181818,
                "pitch": 60,
                "velocity": 51,
                "duration": 0.11818181818181728,
                "tempo": 120.0
            },
            {
                "start_time": 36.05,
                "end_time": 36.168181818181814,
                "pitch": 60,
                "velocity": 51,
                "duration": 0.11818181818181728,
                "tempo": 120.0
            },
            {
                "start_time": 36.320454545454545,
                "end_time": 36.43863636363636,
                "pitch": 62,
                "velocity": 51,
                "duration": 0.11818181818181728,
                "tempo": 120.0
            },
            {
                "start_time": 36.45681818181818,
                "end_time": 36.57272727272727,
                "pitch": 64,
                "velocity": 51,
                "duration": 0.11590909090909207,
                "tempo": 120.0
            },
            {
                "start_time": 45.40909090909091,
                "end_time": 49.69318181818181,
                "pitch": 65,
                "velocity": 51,
                "duration": 4.2840909090909065,
                "tempo": 120.0
            },
            {
                "start_time": 49.709090909090904,
                "end_time": 51.60454545454545,
                "pitch": 65,
                "velocity": 51,
                "duration": 1.8954545454545482,
                "tempo": 120.0
            },
            {
                "start_time": 51.62045454545454,
                "end_time": 53.75,
                "pitch": 64,
                "velocity": 51,
                "duration": 2.1295454545454575,
                "tempo": 120.0
            },
            {
                "start_time": 53.768181818181816,
                "end_time": 58.054545454545455,
                "pitch": 65,
                "velocity": 51,
                "duration": 4.286363636363639,
                "tempo": 120.0
            },
            {
                "start_time": 58.070454545454545,
                "end_time": 60.20227272727272,
                "pitch": 62,
                "velocity": 51,
                "duration": 2.1318181818181756,
                "tempo": 120.0
            },
            {
                "start_time": 60.21818181818182,
                "end_time": 62.35909090909091,
                "pitch": 62,
                "velocity": 51,
                "duration": 2.1409090909090907,
                "tempo": 120.0
            },
            {
                "start_time": 62.375,
                "end_time": 64.50454545454545,
                "pitch": 62,
                "velocity": 51,
                "duration": 2.1295454545454504,
                "tempo": 120.0
            },
            {
                "start_time": 64.52272727272727,
                "end_time": 66.89090909090909,
                "pitch": 61,
                "velocity": 51,
                "duration": 2.3681818181818244,
                "tempo": 120.0
            }
        ]
    }
}