{
    "track_id": "Ys (FM) - 20 - Theme of Adol",
    "mood": "angry",
    "instruments": {
        "Trumpet": [
            {
                "start_time": 0.015909090909090907,
                "end_time": 1.5863636363636362,
                "pitch": 55,
                "velocity": 64,
                "duration": 1.5704545454545453,
                "tempo": 120.0
            },
            {
                "start_time": 1.6022727272727273,
                "end_time": 2.3886363636363637,
                "pitch": 62,
                "velocity": 64,
                "duration": 0.7863636363636364,
                "tempo": 120.0
            },
            {
                "start_time": 2.4045454545454543,
                "end_time": 3.1886363636363635,
                "pitch": 60,
                "velocity": 64,
                "duration": 0.7840909090909092,
                "tempo": 120.0
            },
            {
                "start_time": 3.2045454545454546,
                "end_time": 4.793181818181818,
                "pitch": 57,
                "velocity": 64,
                "duration": 1.5886363636363634,
                "tempo": 120.0
            },
            {
                "start_time": 5.011363636363636,
                "end_time": 5.093181818181818,
                "pitch": 69,
                "velocity": 64,
                "duration": 0.08181818181818201,
                "tempo": 120.0
            },
            {
                "start_time": 5.111363636363636,
                "end_time": 5.193181818181818,
                "pitch": 69,
                "velocity": 64,
                "duration": 0.08181818181818201,
                "tempo": 120.0
            },
            {
                "start_time": 5.211363636363636,
                "end_time": 5.293181818181818,
                "pitch": 69,
                "velocity": 64,
                "duration": 0.08181818181818201,
                "tempo": 120.0
            },
            {
                "start_time": 5.3113636363636365,
                "end_time": 5.3954545454545455,
                "pitch": 69,
                "velocity": 64,
                "duration": 0.084090909090909,
                "tempo": 120.0
            },
            {
                "start_time": 5.613636363636363,
                "end_time": 5.695454545454545,
                "pitch": 69,
                "velocity": 64,
                "duration": 0.08181818181818201,
                "tempo": 120.0
            },
            {
                "start_time": 5.713636363636363,
                "end_time": 5.795454545454545,
                "pitch": 69,
                "velocity": 64,
                "duration": 0.08181818181818201,
                "tempo": 120.0
            },
            {
                "start_time": 5.8136363636363635,
                "end_time": 5.8954545454545455,
                "pitch": 69,
                "velocity": 64,
                "duration": 0.08181818181818201,
                "tempo": 120.0
            },
            {
                "start_time": 5.913636363636363,
                "end_time": 5.995454545454545,
                "pitch": 69,
                "velocity": 64,
                "duration": 0.08181818181818201,
                "tempo": 120.0
            },
            {
                "start_time": 6.415909090909091,
                "end_time": 8.004545454545454,
                "pitch": 55,
                "velocity": 64,
                "duration": 1.588636363636363,
                "tempo": 120.0
            },
            {
                "start_time": 8.020454545454545,
                "end_time": 8.809090909090909,
                "pitch": 62,
                "velocity": 64,
                "duration": 0.788636363636364,
                "tempo": 120.0
            },
            {
                "start_time": 8.827272727272726,
                "end_time": 9.611363636363636,
                "pitch": 65,
                "velocity": 64,
                "duration": 0.7840909090909101,
                "tempo": 120.0
            },
            {
                "start_time": 9.629545454545454,
                "end_time": 12.024999999999999,
                "pitch": 67,
                "velocity": 64,
                "duration": 2.3954545454545446,
                "tempo": 120.0
            },
            {
                "start_time": 12.043181818181818,
                "end_time": 12.125,
                "pitch": 55,
                "velocity": 64,
                "duration": 0.08181818181818201,
                "tempo": 120.0
            },
            {
                "start_time": 12.14090909090909,
                "end_time": 12.222727272727273,
                "pitch": 57,
                "velocity": 64,
                "duration": 0.08181818181818201,
                "tempo": 120.0
            },
            {
                "start_time": 12.238636363636363,
                "end_time": 12.320454545454545,
                "pitch": 58,
                "velocity": 64,
                "duration": 0.08181818181818201,
                "tempo": 120.0
            },
            {
                "start_time": 12.336363636363636,
                "end_time": 12.418181818181818,
                "pitch": 60,
                "velocity": 64,
                "duration": 0.08181818181818201,
                "tempo": 120.0
            },
            {
                "start_time": 12.434090909090909,
                "end_time": 12.518181818181818,
                "pitch": 58,
                "velocity": 64,
                "duration": 0.084090909090909,
                "tempo": 120.0
            },
            {
                "start_time": 12.536363636363635,
                "end_time": 12.618181818181817,
                "pitch": 57,
                "velocity": 64,
                "duration": 0.08181818181818201,
                "tempo": 120.0
            },
            {
                "start_time": 12.636363636363635,
                "end_time": 12.720454545454546,
                "pitch": 55,
                "velocity": 64,
                "duration": 0.08409090909091077,
                "tempo": 120.0
            },
            {
                "start_time": 12.736363636363636,
                "end_time": 12.820454545454545,
                "pitch": 53,
                "velocity": 64,
                "duration": 0.084090909090909,
                "tempo": 120.0
            },
            {
                "start_time": 12.836363636363636,
                "end_time": 13.127272727272727,
                "pitch": 51,
                "velocity": 64,
                "duration": 0.290909090909091,
                "tempo": 120.0
            },
            {
                "start_time": 13.145454545454545,
                "end_time": 13.436363636363636,
                "pitch": 53,
                "velocity": 64,
                "duration": 0.290909090909091,
                "tempo": 120.0
            },
            {
                "start_time": 13.454545454545453,
                "end_time": 14.434090909090909,
                "pitch": 55,
                "velocity": 64,
                "duration": 0.9795454545454554,
                "tempo": 120.0
            },
            {
                "start_time": 14.452272727272726,
                "end_time": 14.736363636363636,
                "pitch": 53,
                "velocity": 64,
                "duration": 0.28409090909091006,
                "tempo": 120.0
            },
            {
                "start_time": 14.754545454545454,
                "end_time": 15.043181818181818,
                "pitch": 51,
                "velocity": 64,
                "duration": 0.288636363636364,
                "tempo": 120.0
            },
            {
                "start_time": 15.059090909090909,
                "end_time": 16.04090909090909,
                "pitch": 50,
                "velocity": 64,
                "duration": 0.9818181818181806,
                "tempo": 120.0
            },
            {
                "start_time": 16.05681818181818,
                "end_time": 16.84318181818182,
                "pitch": 58,
                "velocity": 64,
                "duration": 0.7863636363636388,
                "tempo": 120.0
            },
            {
                "start_time": 16.85909090909091,
                "end_time": 17.645454545454545,
                "pitch": 60,
                "velocity": 64,
                "duration": 0.7863636363636353,
                "tempo": 120.0
            },
            {
                "start_time": 17.663636363636364,
                "end_time": 18.45,
                "pitch": 62,
                "velocity": 64,
                "duration": 0.7863636363636353,
                "tempo": 120.0
            },
            {
                "start_time": 18.46590909090909,
                "end_time": 19.252272727272725,
                "pitch": 65,
                "velocity": 64,
                "duration": 0.7863636363636353,
                "tempo": 120.0
            },
            {
                "start_time": 19.268181818181816,
                "end_time": 19.552272727272726,
                "pitch": 51,
                "velocity": 64,
                "duration": 0.28409090909091006,
                "tempo": 120.0
            },
            {
                "start_time": 19.568181818181817,
                "end_time": 19.852272727272727,
                "pitch": 53,
                "velocity": 64,
                "duration": 0.28409090909091006,
                "tempo": 120.0
            },
            {
                "start_time": 19.870454545454546,
                "end_time": 20.85681818181818,
                "pitch": 55,
                "velocity": 64,
                "duration": 0.9863636363636346,
                "tempo": 120.0
            },
            {
                "start_time": 20.87272727272727,
                "end_time": 21.159090909090907,
                "pitch": 53,
                "velocity": 64,
                "duration": 0.28636363636363527,
                "tempo": 120.0
            },
            {
                "start_time": 21.175,
                "end_time": 21.46363636363636,
                "pitch": 51,
                "velocity": 64,
                "duration": 0.28863636363636047,
                "tempo": 120.0
            },
            {
                "start_time": 21.48181818181818,
                "end_time": 22.461363636363636,
                "pitch": 50,
                "velocity": 64,
                "duration": 0.9795454545454554,
                "tempo": 120.0
            },
            {
                "start_time": 22.479545454545452,
                "end_time": 23.26590909090909,
                "pitch": 63,
                "velocity": 64,
                "duration": 0.7863636363636388,
                "tempo": 120.0
            },
            {
                "start_time": 23.28181818181818,
                "end_time": 23.46590909090909,
                "pitch": 63,
                "velocity": 64,
                "duration": 0.18409090909090864,
                "tempo": 120.0
            },
            {
                "start_time": 23.48181818181818,
                "end_time": 23.66590909090909,
                "pitch": 65,
                "velocity": 64,
                "duration": 0.18409090909090864,
                "tempo": 120.0
            },
            {
                "start_time": 23.68181818181818,
                "end_time": 23.86590909090909,
                "pitch": 67,
                "velocity": 64,
                "duration": 0.18409090909090864,
                "tempo": 120.0
            },
            {
                "start_time": 23.884090909090908,
                "end_time": 24.46818181818182,
                "pitch": 66,
                "velocity": 64,
                "duration": 0.5840909090909108,
                "tempo": 120.0
            },
            {
                "start_time": 24.48409090909091,
                "end_time": 24.868181818181817,
                "pitch": 66,
                "velocity": 64,
                "duration": 0.38409090909090793,
                "tempo": 120.0
            },
            {
                "start_time": 24.884090909090908,
                "end_time": 25.270454545454545,
                "pitch": 70,
                "velocity": 64,
                "duration": 0.3863636363636367,
                "tempo": 120.0
            },
            {
                "start_time": 25.288636363636364,
                "end_time": 25.670454545454543,
                "pitch": 72,
                "velocity": 64,
                "duration": 0.38181818181817917,
                "tempo": 120.0
            },
            {
                "start_time": 25.688636363636363,
                "end_time": 27.268181818181816,
                "pitch": 74,
                "velocity": 64,
                "duration": 1.5795454545454533,
                "tempo": 120.0
            },
            {
                "start_time": 27.286363636363635,
                "end_time": 28.07272727272727,
                "pitch": 72,
                "velocity": 64,
                "duration": 0.7863636363636353,
                "tempo": 120.0
            },
            {
                "start_time": 28.08863636363636,
                "end_time": 28.48181818181818,
                "pitch": 70,
                "velocity": 64,
                "duration": 0.3931818181818194,
                "tempo": 120.0
            },
            {
                "start_time": 28.49772727272727,
                "end_time": 28.875,
                "pitch": 69,
                "velocity": 64,
                "duration": 0.37727272727272876,
                "tempo": 120.0
            },
            {
                "start_time": 28.89090909090909,
                "end_time": 30.479545454545452,
                "pitch": 74,
                "velocity": 64,
                "duration": 1.5886363636363612,
                "tempo": 120.0
            },
            {
                "start_time": 30.495454545454542,
                "end_time": 31.28181818181818,
                "pitch": 72,
                "velocity": 64,
                "duration": 0.7863636363636388,
                "tempo": 120.0
            },
            {
                "start_time": 31.297727272727272,
                "end_time": 31.693181818181817,
                "pitch": 70,
                "velocity": 64,
                "duration": 0.3954545454545446,
                "tempo": 120.0
            },
            {
                "start_time": 31.709090909090907,
                "end_time": 32.08409090909091,
                "pitch": 69,
                "velocity": 64,
                "duration": 0.37500000000000355,
                "tempo": 120.0
            },
            {
                "start_time": 32.10227272727273,
                "end_time": 33.69772727272727,
                "pitch": 67,
                "velocity": 64,
                "duration": 1.595454545454544,
                "tempo": 120.0
            },
            {
                "start_time": 33.715909090909086,
                "end_time": 35.29772727272727,
                "pitch": 69,
                "velocity": 64,
                "duration": 1.5818181818181856,
                "tempo": 120.0
            },
            {
                "start_time": 35.31590909090909,
                "end_time": 38.50454545454545,
                "pitch": 71,
                "velocity": 64,
                "duration": 3.1886363636363626,
                "tempo": 120.0
            },
            {
                "start_time": 38.52045454545454,
                "end_time": 38.53636363636363,
                "pitch": 55,
                "velocity": 64,
                "duration": 0.01590909090909065,
                "tempo": 120.0
            }
        ],
        "Acoustic Bass": [
            {
                "start_time": 0.0,
                "end_time": 0.18636363636363634,
                "pitch": 31,
                "velocity": 64,
                "duration": 0.18636363636363634,
                "tempo": 120.0
            },
            {
                "start_time": 0.20454545454545453,
                "end_time": 0.2909090909090909,
                "pitch": 43,
                "velocity": 64,
                "duration": 0.08636363636363636,
                "tempo": 120.0
            },
            {
                "start_time": 0.3068181818181818,
                "end_time": 0.3931818181818182,
                "pitch": 43,
                "velocity": 64,
                "duration": 0.08636363636363636,
                "tempo": 120.0
            },
            {
                "start_time": 0.40909090909090906,
                "end_time": 0.5909090909090908,
                "pitch": 31,
                "velocity": 64,
                "duration": 0.18181818181818177,
                "tempo": 120.0
            },
            {
                "start_time": 0.6068181818181818,
                "end_time": 0.6886363636363636,
                "pitch": 43,
                "velocity": 64,
                "duration": 0.08181818181818179,
                "tempo": 120.0
            },
            {
                "start_time": 0.7045454545454545,
                "end_time": 0.7863636363636364,
                "pitch": 43,
                "velocity": 64,
                "duration": 0.0818181818181819,
                "tempo": 120.0
            },
            {
                "start_time": 0.8022727272727272,
                "end_time": 0.9863636363636363,
                "pitch": 31,
                "velocity": 64,
                "duration": 0.18409090909090908,
                "tempo": 120.0
            },
            {
                "start_time": 1.0022727272727272,
                "end_time": 1.0863636363636364,
                "pitch": 43,
                "velocity": 64,
                "duration": 0.08409090909090922,
                "tempo": 120.0
            },
            {
                "start_time": 1.1022727272727273,
                "end_time": 1.1863636363636363,
                "pitch": 43,
                "velocity": 64,
                "duration": 0.084090909090909,
                "tempo": 120.0
            },
            {
                "start_time": 1.2022727272727272,
                "end_time": 1.3863636363636362,
                "pitch": 31,
                "velocity": 64,
                "duration": 0.18409090909090908,
                "tempo": 120.0
            },
            {
                "start_time": 1.4022727272727271,
                "end_time": 1.4863636363636363,
                "pitch": 43,
                "velocity": 64,
                "duration": 0.08409090909090922,
                "tempo": 120.0
            },
            {
                "start_time": 1.5022727272727272,
                "end_time": 1.5863636363636362,
                "pitch": 43,
                "velocity": 64,
                "duration": 0.084090909090909,
                "tempo": 120.0
            },
            {
                "start_time": 1.6022727272727273,
                "end_time": 1.7863636363636364,
                "pitch": 27,
                "velocity": 64,
                "duration": 0.18409090909090908,
                "tempo": 120.0
            },
            {
                "start_time": 1.8045454545454545,
                "end_time": 1.8863636363636362,
                "pitch": 39,
                "velocity": 64,
                "duration": 0.08181818181818179,
                "tempo": 120.0
            },
            {
                "start_time": 1.9045454545454545,
                "end_time": 1.9886363636363635,
                "pitch": 39,
                "velocity": 64,
                "duration": 0.084090909090909,
                "tempo": 120.0
            },
            {
                "start_time": 2.0045454545454544,
                "end_time": 2.1886363636363635,
                "pitch": 27,
                "velocity": 64,
                "duration": 0.18409090909090908,
                "tempo": 120.0
            },
            {
                "start_time": 2.2045454545454546,
                "end_time": 2.2886363636363636,
                "pitch": 39,
                "velocity": 64,
                "duration": 0.084090909090909,
                "tempo": 120.0
            },
            {
                "start_time": 2.3045454545454542,
                "end_time": 2.3886363636363637,
                "pitch": 39,
                "velocity": 64,
                "duration": 0.08409090909090944,
                "tempo": 120.0
            },
            {
                "start_time": 2.4045454545454543,
                "end_time": 2.5886363636363634,
                "pitch": 29,
                "velocity": 64,
                "duration": 0.18409090909090908,
                "tempo": 120.0
            },
            {
                "start_time": 2.6045454545454545,
                "end_time": 2.6886363636363635,
                "pitch": 41,
                "velocity": 64,
                "duration": 0.084090909090909,
                "tempo": 120.0
            },
            {
                "start_time": 2.7045454545454546,
                "end_time": 2.7886363636363636,
                "pitch": 41,
                "velocity": 64,
                "duration": 0.084090909090909,
                "tempo": 120.0
            },
            {
                "start_time": 2.8045454545454542,
                "end_time": 2.9886363636363633,
                "pitch": 29,
                "velocity": 64,
                "duration": 0.18409090909090908,
                "tempo": 120.0
            },
            {
                "start_time": 3.0045454545454544,
                "end_time": 3.0886363636363634,
                "pitch": 41,
                "velocity": 64,
                "duration": 0.084090909090909,
                "tempo": 120.0
            },
            {
                "start_time": 3.1045454545454545,
                "end_time": 3.1886363636363635,
                "pitch": 41,
                "velocity": 64,
                "duration": 0.084090909090909,
                "tempo": 120.0
            },
            {
                "start_time": 3.2045454545454546,
                "end_time": 3.3886363636363637,
                "pitch": 31,
                "velocity": 64,
                "duration": 0.18409090909090908,
                "tempo": 120.0
            },
            {
                "start_time": 3.4068181818181817,
                "end_time": 3.4909090909090907,
                "pitch": 43,
                "velocity": 64,
                "duration": 0.084090909090909,
                "tempo": 120.0
            },
            {
                "start_time": 3.506818181818182,
                "end_time": 3.590909090909091,
                "pitch": 43,
                "velocity": 64,
                "duration": 0.084090909090909,
                "tempo": 120.0
            },
            {
                "start_time": 3.6068181818181815,
                "end_time": 3.7909090909090906,
                "pitch": 31,
                "velocity": 64,
                "duration": 0.18409090909090908,
                "tempo": 120.0
            },
            {
                "start_time": 3.8068181818181817,
                "end_time": 3.8909090909090907,
                "pitch": 43,
                "velocity": 64,
                "duration": 0.084090909090909,
                "tempo": 120.0
            },
            {
                "start_time": 3.9068181818181817,
                "end_time": 3.9909090909090907,
                "pitch": 43,
                "velocity": 64,
                "duration": 0.084090909090909,
                "tempo": 120.0
            },
            {
                "start_time": 4.006818181818182,
                "end_time": 4.1909090909090905,
                "pitch": 31,
                "velocity": 64,
                "duration": 0.18409090909090864,
                "tempo": 120.0
            },
            {
                "start_time": 4.206818181818182,
                "end_time": 4.290909090909091,
                "pitch": 43,
                "velocity": 64,
                "duration": 0.084090909090909,
                "tempo": 120.0
            },
            {
                "start_time": 4.306818181818182,
                "end_time": 4.390909090909091,
                "pitch": 43,
                "velocity": 64,
                "duration": 0.084090909090909,
                "tempo": 120.0
            },
            {
                "start_time": 4.406818181818181,
                "end_time": 4.593181818181818,
                "pitch": 31,
                "velocity": 64,
                "duration": 0.1863636363636365,
                "tempo": 120.0
            },
            {
                "start_time": 4.6090909090909085,
                "end_time": 4.693181818181818,
                "pitch": 43,
                "velocity": 64,
                "duration": 0.08409090909090988,
                "tempo": 120.0
            },
            {
                "start_time": 4.709090909090909,
                "end_time": 4.793181818181818,
                "pitch": 43,
                "velocity": 64,
                "duration": 0.084090909090909,
                "tempo": 120.0
            },
            {
                "start_time": 4.8113636363636365,
                "end_time": 4.993181818181818,
                "pitch": 31,
                "velocity": 64,
                "duration": 0.18181818181818166,
                "tempo": 120.0
            },
            {
                "start_time": 5.011363636363636,
                "end_time": 5.093181818181818,
                "pitch": 43,
                "velocity": 64,
                "duration": 0.08181818181818201,
                "tempo": 120.0
            },
            {
                "start_time": 5.111363636363636,
                "end_time": 5.193181818181818,
                "pitch": 43,
                "velocity": 64,
                "duration": 0.08181818181818201,
                "tempo": 120.0
            },
            {
                "start_time": 5.211363636363636,
                "end_time": 5.3954545454545455,
                "pitch": 31,
                "velocity": 64,
                "duration": 0.18409090909090953,
                "tempo": 120.0
            },
            {
                "start_time": 5.411363636363636,
                "end_time": 5.495454545454545,
                "pitch": 43,
                "velocity": 64,
                "duration": 0.084090909090909,
                "tempo": 120.0
            },
            {
                "start_time": 5.511363636363636,
                "end_time": 5.595454545454545,
                "pitch": 43,
                "velocity": 64,
                "duration": 0.084090909090909,
                "tempo": 120.0
            },
            {
                "start_time": 5.613636363636363,
                "end_time": 5.795454545454545,
                "pitch": 31,
                "velocity": 64,
                "duration": 0.18181818181818166,
                "tempo": 120.0
            },
            {
                "start_time": 5.8136363636363635,
                "end_time": 5.8954545454545455,
                "pitch": 43,
                "velocity": 64,
                "duration": 0.08181818181818201,
                "tempo": 120.0
            },
            {
                "start_time": 5.913636363636363,
                "end_time": 5.995454545454545,
                "pitch": 43,
                "velocity": 64,
                "duration": 0.08181818181818201,
                "tempo": 120.0
            },
            {
                "start_time": 6.013636363636364,
                "end_time": 6.197727272727272,
                "pitch": 31,
                "velocity": 64,
                "duration": 0.18409090909090864,
                "tempo": 120.0
            },
            {
                "start_time": 6.213636363636363,
                "end_time": 6.297727272727273,
                "pitch": 43,
                "velocity": 64,
                "duration": 0.08409090909090988,
                "tempo": 120.0
            },
            {
                "start_time": 6.3159090909090905,
                "end_time": 6.3977272727272725,
                "pitch": 43,
                "velocity": 64,
                "duration": 0.08181818181818201,
                "tempo": 120.0
            },
            {
                "start_time": 6.415909090909091,
                "end_time": 6.6,
                "pitch": 31,
                "velocity": 64,
                "duration": 0.18409090909090864,
                "tempo": 120.0
            },
            {
                "start_time": 6.61590909090909,
                "end_time": 6.699999999999999,
                "pitch": 43,
                "velocity": 64,
                "duration": 0.084090909090909,
                "tempo": 120.0
            },
            {
                "start_time": 6.718181818181818,
                "end_time": 6.802272727272727,
                "pitch": 43,
                "velocity": 64,
                "duration": 0.084090909090909,
                "tempo": 120.0
            },
            {
                "start_time": 6.8181818181818175,
                "end_time": 7.002272727272727,
                "pitch": 31,
                "velocity": 64,
                "duration": 0.18409090909090953,
                "tempo": 120.0
            },
            {
                "start_time": 7.018181818181818,
                "end_time": 7.102272727272727,
                "pitch": 43,
                "velocity": 64,
                "duration": 0.084090909090909,
                "tempo": 120.0
            },
            {
                "start_time": 7.118181818181818,
                "end_time": 7.202272727272727,
                "pitch": 43,
                "velocity": 64,
                "duration": 0.084090909090909,
                "tempo": 120.0
            },
            {
                "start_time": 7.218181818181818,
                "end_time": 7.402272727272727,
                "pitch": 31,
                "velocity": 64,
                "duration": 0.18409090909090953,
                "tempo": 120.0
            },
            {
                "start_time": 7.420454545454545,
                "end_time": 7.504545454545454,
                "pitch": 43,
                "velocity": 64,
                "duration": 0.084090909090909,
                "tempo": 120.0
            },
            {
                "start_time": 7.5204545454545455,
                "end_time": 7.6045454545454545,
                "pitch": 43,
                "velocity": 64,
                "duration": 0.084090909090909,
                "tempo": 120.0
            },
            {
                "start_time": 7.620454545454545,
                "end_time": 7.804545454545454,
                "pitch": 31,
                "velocity": 64,
                "duration": 0.18409090909090864,
                "tempo": 120.0
            },
            {
                "start_time": 7.820454545454545,
                "end_time": 7.904545454545454,
                "pitch": 43,
                "velocity": 64,
                "duration": 0.084090909090909,
                "tempo": 120.0
            },
            {
                "start_time": 7.920454545454545,
                "end_time": 8.004545454545454,
                "pitch": 43,
                "velocity": 64,
                "duration": 0.084090909090909,
                "tempo": 120.0
            },
            {
                "start_time": 8.020454545454545,
                "end_time": 8.204545454545455,
                "pitch": 27,
                "velocity": 64,
                "duration": 0.18409090909091042,
                "tempo": 120.0
            },
            {
                "start_time": 8.222727272727273,
                "end_time": 8.306818181818182,
                "pitch": 39,
                "velocity": 64,
                "duration": 0.084090909090909,
                "tempo": 120.0
            },
            {
                "start_time": 8.322727272727272,
                "end_time": 8.406818181818181,
                "pitch": 39,
                "velocity": 64,
                "duration": 0.084090909090909,
                "tempo": 120.0
            },
            {
                "start_time": 8.422727272727272,
                "end_time": 8.60909090909091,
                "pitch": 27,
                "velocity": 64,
                "duration": 0.1863636363636374,
                "tempo": 120.0
            },
            {
                "start_time": 8.625,
                "end_time": 8.709090909090909,
                "pitch": 39,
                "velocity": 64,
                "duration": 0.084090909090909,
                "tempo": 120.0
            },
            {
                "start_time": 8.725,
                "end_time": 8.809090909090909,
                "pitch": 39,
                "velocity": 64,
                "duration": 0.084090909090909,
                "tempo": 120.0
            },
            {
                "start_time": 8.827272727272726,
                "end_time": 9.011363636363637,
                "pitch": 29,
                "velocity": 64,
                "duration": 0.18409090909091042,
                "tempo": 120.0
            },
            {
                "start_time": 9.027272727272727,
                "end_time": 9.111363636363636,
                "pitch": 41,
                "velocity": 64,
                "duration": 0.084090909090909,
                "tempo": 120.0
            },
            {
                "start_time": 9.127272727272727,
                "end_time": 9.211363636363636,
                "pitch": 41,
                "velocity": 64,
                "duration": 0.084090909090909,
                "tempo": 120.0
            },
            {
                "start_time": 9.229545454545454,
                "end_time": 9.411363636363635,
                "pitch": 29,
                "velocity": 64,
                "duration": 0.18181818181818166,
                "tempo": 120.0
            },
            {
                "start_time": 9.429545454545455,
                "end_time": 9.511363636363637,
                "pitch": 41,
                "velocity": 64,
                "duration": 0.08181818181818201,
                "tempo": 120.0
            },
            {
                "start_time": 9.529545454545454,
                "end_time": 9.611363636363636,
                "pitch": 41,
                "velocity": 64,
                "duration": 0.08181818181818201,
                "tempo": 120.0
            },
            {
                "start_time": 9.629545454545454,
                "end_time": 9.813636363636363,
                "pitch": 31,
                "velocity": 64,
                "duration": 0.18409090909090864,
                "tempo": 120.0
            },
            {
                "start_time": 9.829545454545453,
                "end_time": 9.913636363636364,
                "pitch": 43,
                "velocity": 64,
                "duration": 0.08409090909091077,
                "tempo": 120.0
            },
            {
                "start_time": 9.931818181818182,
                "end_time": 10.01590909090909,
                "pitch": 43,
                "velocity": 64,
                "duration": 0.084090909090909,
                "tempo": 120.0
            },
            {
                "start_time": 10.031818181818181,
                "end_time": 10.21590909090909,
                "pitch": 31,
                "velocity": 64,
                "duration": 0.18409090909090864,
                "tempo": 120.0
            },
            {
                "start_time": 10.23409090909091,
                "end_time": 10.31590909090909,
                "pitch": 43,
                "velocity": 64,
                "duration": 0.08181818181818024,
                "tempo": 120.0
            },
            {
                "start_time": 10.334090909090909,
                "end_time": 10.418181818181818,
                "pitch": 43,
                "velocity": 64,
                "duration": 0.084090909090909,
                "tempo": 120.0
            },
            {
                "start_time": 10.434090909090909,
                "end_time": 10.618181818181817,
                "pitch": 31,
                "velocity": 64,
                "duration": 0.18409090909090864,
                "tempo": 120.0
            },
            {
                "start_time": 10.636363636363637,
                "end_time": 10.720454545454546,
                "pitch": 43,
                "velocity": 64,
                "duration": 0.084090909090909,
                "tempo": 120.0
            },
            {
                "start_time": 10.736363636363636,
                "end_time": 10.820454545454545,
                "pitch": 43,
                "velocity": 64,
                "duration": 0.084090909090909,
                "tempo": 120.0
            },
            {
                "start_time": 10.836363636363636,
                "end_time": 11.022727272727272,
                "pitch": 31,
                "velocity": 64,
                "duration": 0.18636363636363562,
                "tempo": 120.0
            },
            {
                "start_time": 11.038636363636362,
                "end_time": 11.122727272727273,
                "pitch": 43,
                "velocity": 64,
                "duration": 0.08409090909091077,
                "tempo": 120.0
            },
            {
                "start_time": 11.138636363636364,
                "end_time": 11.222727272727273,
                "pitch": 43,
                "velocity": 64,
                "duration": 0.084090909090909,
                "tempo": 120.0
            },
            {
                "start_time": 11.24090909090909,
                "end_time": 11.422727272727272,
                "pitch": 31,
                "velocity": 64,
                "duration": 0.18181818181818166,
                "tempo": 120.0
            },
            {
                "start_time": 11.44090909090909,
                "end_time": 11.522727272727272,
                "pitch": 43,
                "velocity": 64,
                "duration": 0.08181818181818201,
                "tempo": 120.0
            },
            {
                "start_time": 11.540909090909091,
                "end_time": 11.622727272727273,
                "pitch": 43,
                "velocity": 64,
                "duration": 0.08181818181818201,
                "tempo": 120.0
            },
            {
                "start_time": 11.64090909090909,
                "end_time": 11.825,
                "pitch": 31,
                "velocity": 64,
                "duration": 0.18409090909090864,
                "tempo": 120.0
            },
            {
                "start_time": 11.84090909090909,
                "end_time": 11.924999999999999,
                "pitch": 43,
                "velocity": 64,
                "duration": 0.084090909090909,
                "tempo": 120.0
            },
            {
                "start_time": 11.94090909090909,
                "end_time": 12.024999999999999,
                "pitch": 43,
                "velocity": 64,
                "duration": 0.084090909090909,
                "tempo": 120.0
            },
            {
                "start_time": 12.043181818181818,
                "end_time": 12.222727272727273,
                "pitch": 31,
                "velocity": 64,
                "duration": 0.17954545454545467,
                "tempo": 120.0
            },
            {
                "start_time": 12.238636363636363,
                "end_time": 12.320454545454545,
                "pitch": 43,
                "velocity": 64,
                "duration": 0.08181818181818201,
                "tempo": 120.0
            },
            {
                "start_time": 12.336363636363636,
                "end_time": 12.418181818181818,
                "pitch": 43,
                "velocity": 64,
                "duration": 0.08181818181818201,
                "tempo": 120.0
            },
            {
                "start_time": 12.434090909090909,
                "end_time": 12.618181818181817,
                "pitch": 31,
                "velocity": 64,
                "duration": 0.18409090909090864,
                "tempo": 120.0
            },
            {
                "start_time": 12.636363636363635,
                "end_time": 12.720454545454546,
                "pitch": 43,
                "velocity": 64,
                "duration": 0.08409090909091077,
                "tempo": 120.0
            },
            {
                "start_time": 12.736363636363636,
                "end_time": 12.820454545454545,
                "pitch": 43,
                "velocity": 64,
                "duration": 0.084090909090909,
                "tempo": 120.0
            },
            {
                "start_time": 12.836363636363636,
                "end_time": 13.127272727272727,
                "pitch": 39,
                "velocity": 64,
                "duration": 0.290909090909091,
                "tempo": 120.0
            },
            {
                "start_time": 13.145454545454545,
                "end_time": 13.436363636363636,
                "pitch": 39,
                "velocity": 64,
                "duration": 0.290909090909091,
                "tempo": 120.0
            },
            {
                "start_time": 13.454545454545453,
                "end_time": 13.738636363636363,
                "pitch": 39,
                "velocity": 64,
                "duration": 0.28409090909091006,
                "tempo": 120.0
            },
            {
                "start_time": 13.754545454545454,
                "end_time": 13.834090909090909,
                "pitch": 39,
                "velocity": 64,
                "duration": 0.07954545454545503,
                "tempo": 120.0
            },
            {
                "start_time": 13.85,
                "end_time": 13.929545454545455,
                "pitch": 43,
                "velocity": 64,
                "duration": 0.07954545454545503,
                "tempo": 120.0
            },
            {
                "start_time": 13.945454545454545,
                "end_time": 14.024999999999999,
                "pitch": 46,
                "velocity": 64,
                "duration": 0.07954545454545325,
                "tempo": 120.0
            },
            {
                "start_time": 14.040909090909091,
                "end_time": 14.127272727272727,
                "pitch": 51,
                "velocity": 64,
                "duration": 0.08636363636363598,
                "tempo": 120.0
            },
            {
                "start_time": 14.143181818181818,
                "end_time": 14.229545454545454,
                "pitch": 46,
                "velocity": 64,
                "duration": 0.08636363636363598,
                "tempo": 120.0
            },
            {
                "start_time": 14.245454545454544,
                "end_time": 14.33181818181818,
                "pitch": 43,
                "velocity": 64,
                "duration": 0.08636363636363598,
                "tempo": 120.0
            },
            {
                "start_time": 14.35,
                "end_time": 14.434090909090909,
                "pitch": 46,
                "velocity": 64,
                "duration": 0.084090909090909,
                "tempo": 120.0
            },
            {
                "start_time": 14.452272727272726,
                "end_time": 14.736363636363636,
                "pitch": 38,
                "velocity": 64,
                "duration": 0.28409090909091006,
                "tempo": 120.0
            },
            {
                "start_time": 14.754545454545454,
                "end_time": 15.043181818181818,
                "pitch": 38,
                "velocity": 64,
                "duration": 0.288636363636364,
                "tempo": 120.0
            },
            {
                "start_time": 15.059090909090909,
                "end_time": 15.343181818181817,
                "pitch": 38,
                "velocity": 64,
                "duration": 0.2840909090909083,
                "tempo": 120.0
            },
            {
                "start_time": 15.359090909090908,
                "end_time": 15.438636363636363,
                "pitch": 38,
                "velocity": 64,
                "duration": 0.07954545454545503,
                "tempo": 120.0
            },
            {
                "start_time": 15.454545454545453,
                "end_time": 15.534090909090908,
                "pitch": 41,
                "velocity": 64,
                "duration": 0.07954545454545503,
                "tempo": 120.0
            },
            {
                "start_time": 15.549999999999999,
                "end_time": 15.629545454545454,
                "pitch": 45,
                "velocity": 64,
                "duration": 0.07954545454545503,
                "tempo": 120.0
            },
            {
                "start_time": 15.645454545454545,
                "end_time": 15.73181818181818,
                "pitch": 50,
                "velocity": 64,
                "duration": 0.08636363636363598,
                "tempo": 120.0
            },
            {
                "start_time": 15.75,
                "end_time": 15.834090909090909,
                "pitch": 45,
                "velocity": 64,
                "duration": 0.084090909090909,
                "tempo": 120.0
            },
            {
                "start_time": 15.852272727272727,
                "end_time": 15.938636363636363,
                "pitch": 41,
                "velocity": 64,
                "duration": 0.08636363636363598,
                "tempo": 120.0
            },
            {
                "start_time": 15.954545454545453,
                "end_time": 16.04090909090909,
                "pitch": 45,
                "velocity": 64,
                "duration": 0.08636363636363598,
                "tempo": 120.0
            },
            {
                "start_time": 16.05681818181818,
                "end_time": 16.243181818181817,
                "pitch": 36,
                "velocity": 64,
                "duration": 0.1863636363636374,
                "tempo": 120.0
            },
            {
                "start_time": 16.259090909090908,
                "end_time": 16.34318181818182,
                "pitch": 36,
                "velocity": 64,
                "duration": 0.08409090909091077,
                "tempo": 120.0
            },
            {
                "start_time": 16.35909090909091,
                "end_time": 16.443181818181817,
                "pitch": 36,
                "velocity": 64,
                "duration": 0.08409090909090722,
                "tempo": 120.0
            },
            {
                "start_time": 16.459090909090907,
                "end_time": 16.643181818181816,
                "pitch": 36,
                "velocity": 64,
                "duration": 0.18409090909090864,
                "tempo": 120.0
            },
            {
                "start_time": 16.659090909090907,
                "end_time": 16.743181818181817,
                "pitch": 36,
                "velocity": 64,
                "duration": 0.08409090909091077,
                "tempo": 120.0
            },
            {
                "start_time": 16.759090909090908,
                "end_time": 16.84318181818182,
                "pitch": 36,
                "velocity": 64,
                "duration": 0.08409090909091077,
                "tempo": 120.0
            },
            {
                "start_time": 16.85909090909091,
                "end_time": 17.045454545454543,
                "pitch": 36,
                "velocity": 64,
                "duration": 0.18636363636363384,
                "tempo": 120.0
            },
            {
                "start_time": 17.061363636363634,
                "end_time": 17.145454545454545,
                "pitch": 36,
                "velocity": 64,
                "duration": 0.08409090909091077,
                "tempo": 120.0
            },
            {
                "start_time": 17.161363636363635,
                "end_time": 17.245454545454546,
                "pitch": 36,
                "velocity": 64,
                "duration": 0.08409090909091077,
                "tempo": 120.0
            },
            {
                "start_time": 17.263636363636362,
                "end_time": 17.445454545454545,
                "pitch": 36,
                "velocity": 64,
                "duration": 0.18181818181818343,
                "tempo": 120.0
            },
            {
                "start_time": 17.46363636363636,
                "end_time": 17.545454545454543,
                "pitch": 36,
                "velocity": 64,
                "duration": 0.08181818181818201,
                "tempo": 120.0
            },
            {
                "start_time": 17.563636363636363,
                "end_time": 17.645454545454545,
                "pitch": 36,
                "velocity": 64,
                "duration": 0.08181818181818201,
                "tempo": 120.0
            },
            {
                "start_time": 17.663636363636364,
                "end_time": 17.847727272727273,
                "pitch": 34,
                "velocity": 64,
                "duration": 0.18409090909090864,
                "tempo": 120.0
            },
            {
                "start_time": 17.863636363636363,
                "end_time": 17.94772727272727,
                "pitch": 34,
                "velocity": 64,
                "duration": 0.08409090909090722,
                "tempo": 120.0
            },
            {
                "start_time": 17.96590909090909,
                "end_time": 18.047727272727272,
                "pitch": 34,
                "velocity": 64,
                "duration": 0.08181818181818201,
                "tempo": 120.0
            },
            {
                "start_time": 18.06590909090909,
                "end_time": 18.25,
                "pitch": 34,
                "velocity": 64,
                "duration": 0.18409090909090864,
                "tempo": 120.0
            },
            {
                "start_time": 18.26590909090909,
                "end_time": 18.349999999999998,
                "pitch": 34,
                "velocity": 64,
                "duration": 0.08409090909090722,
                "tempo": 120.0
            },
            {
                "start_time": 18.36590909090909,
                "end_time": 18.45,
                "pitch": 34,
                "velocity": 64,
                "duration": 0.08409090909091077,
                "tempo": 120.0
            },
            {
                "start_time": 18.46590909090909,
                "end_time": 18.65,
                "pitch": 34,
                "velocity": 64,
                "duration": 0.18409090909090864,
                "tempo": 120.0
            },
            {
                "start_time": 18.66590909090909,
                "end_time": 18.75,
                "pitch": 34,
                "velocity": 64,
                "duration": 0.08409090909091077,
                "tempo": 120.0
            },
            {
                "start_time": 18.76590909090909,
                "end_time": 18.849999999999998,
                "pitch": 34,
                "velocity": 64,
                "duration": 0.08409090909090722,
                "tempo": 120.0
            },
            {
                "start_time": 18.86590909090909,
                "end_time": 19.05,
                "pitch": 34,
                "velocity": 64,
                "duration": 0.1840909090909122,
                "tempo": 120.0
            },
            {
                "start_time": 19.06590909090909,
                "end_time": 19.15,
                "pitch": 34,
                "velocity": 64,
                "duration": 0.08409090909090722,
                "tempo": 120.0
            },
            {
                "start_time": 19.168181818181818,
                "end_time": 19.252272727272725,
                "pitch": 34,
                "velocity": 64,
                "duration": 0.08409090909090722,
                "tempo": 120.0
            },
            {
                "start_time": 19.268181818181816,
                "end_time": 19.552272727272726,
                "pitch": 39,
                "velocity": 64,
                "duration": 0.28409090909091006,
                "tempo": 120.0
            },
            {
                "start_time": 19.568181818181817,
                "end_time": 19.852272727272727,
                "pitch": 39,
                "velocity": 64,
                "duration": 0.28409090909091006,
                "tempo": 120.0
            },
            {
                "start_time": 19.870454545454546,
                "end_time": 20.152272727272727,
                "pitch": 39,
                "velocity": 64,
                "duration": 0.2818181818181813,
                "tempo": 120.0
            },
            {
                "start_time": 20.168181818181818,
                "end_time": 20.25,
                "pitch": 39,
                "velocity": 64,
                "duration": 0.08181818181818201,
                "tempo": 120.0
            },
            {
                "start_time": 20.26590909090909,
                "end_time": 20.347727272727273,
                "pitch": 43,
                "velocity": 64,
                "duration": 0.08181818181818201,
                "tempo": 120.0
            },
            {
                "start_time": 20.36590909090909,
                "end_time": 20.445454545454545,
                "pitch": 46,
                "velocity": 64,
                "duration": 0.0795454545454568,
                "tempo": 120.0
            },
            {
                "start_time": 20.46363636363636,
                "end_time": 20.547727272727272,
                "pitch": 51,
                "velocity": 64,
                "duration": 0.08409090909091077,
                "tempo": 120.0
            },
            {
                "start_time": 20.56590909090909,
                "end_time": 20.652272727272727,
                "pitch": 46,
                "velocity": 64,
                "duration": 0.08636363636363598,
                "tempo": 120.0
            },
            {
                "start_time": 20.668181818181818,
                "end_time": 20.754545454545454,
                "pitch": 43,
                "velocity": 64,
                "duration": 0.08636363636363598,
                "tempo": 120.0
            },
            {
                "start_time": 20.770454545454545,
                "end_time": 20.85681818181818,
                "pitch": 46,
                "velocity": 64,
                "duration": 0.08636363636363598,
                "tempo": 120.0
            },
            {
                "start_time": 20.87272727272727,
                "end_time": 21.159090909090907,
                "pitch": 38,
                "velocity": 64,
                "duration": 0.28636363636363527,
                "tempo": 120.0
            },
            {
                "start_time": 21.175,
                "end_time": 21.46363636363636,
                "pitch": 38,
                "velocity": 64,
                "duration": 0.28863636363636047,
                "tempo": 120.0
            },
            {
                "start_time": 21.48181818181818,
                "end_time": 21.76590909090909,
                "pitch": 38,
                "velocity": 64,
                "duration": 0.28409090909091006,
                "tempo": 120.0
            },
            {
                "start_time": 21.78181818181818,
                "end_time": 21.861363636363635,
                "pitch": 38,
                "velocity": 64,
                "duration": 0.07954545454545325,
                "tempo": 120.0
            },
            {
                "start_time": 21.877272727272725,
                "end_time": 21.956818181818182,
                "pitch": 41,
                "velocity": 64,
                "duration": 0.0795454545454568,
                "tempo": 120.0
            },
            {
                "start_time": 21.972727272727273,
                "end_time": 22.052272727272726,
                "pitch": 45,
                "velocity": 64,
                "duration": 0.07954545454545325,
                "tempo": 120.0
            },
            {
                "start_time": 22.068181818181817,
                "end_time": 22.154545454545453,
                "pitch": 50,
                "velocity": 64,
                "duration": 0.08636363636363598,
                "tempo": 120.0
            },
            {
                "start_time": 22.170454545454543,
                "end_time": 22.25681818181818,
                "pitch": 45,
                "velocity": 64,
                "duration": 0.08636363636363598,
                "tempo": 120.0
            },
            {
                "start_time": 22.275,
                "end_time": 22.35909090909091,
                "pitch": 41,
                "velocity": 64,
                "duration": 0.08409090909091077,
                "tempo": 120.0
            },
            {
                "start_time": 22.377272727272725,
                "end_time": 22.461363636363636,
                "pitch": 45,
                "velocity": 64,
                "duration": 0.08409090909091077,
                "tempo": 120.0
            },
            {
                "start_time": 22.479545454545452,
                "end_time": 22.663636363636364,
                "pitch": 36,
                "velocity": 64,
                "duration": 0.1840909090909122,
                "tempo": 120.0
            },
            {
                "start_time": 22.679545454545455,
                "end_time": 22.763636363636362,
                "pitch": 36,
                "velocity": 64,
                "duration": 0.08409090909090722,
                "tempo": 120.0
            },
            {
                "start_time": 22.779545454545453,
                "end_time": 22.863636363636363,
                "pitch": 48,
                "velocity": 64,
                "duration": 0.08409090909091077,
                "tempo": 120.0
            },
            {
                "start_time": 22.879545454545454,
                "end_time": 23.063636363636363,
                "pitch": 36,
                "velocity": 64,
                "duration": 0.18409090909090864,
                "tempo": 120.0
            },
            {
                "start_time": 23.081818181818182,
                "end_time": 23.16590909090909,
                "pitch": 36,
                "velocity": 64,
                "duration": 0.08409090909090722,
                "tempo": 120.0
            },
            {
                "start_time": 23.18181818181818,
                "end_time": 23.26590909090909,
                "pitch": 48,
                "velocity": 64,
                "duration": 0.08409090909091077,
                "tempo": 120.0
            },
            {
                "start_time": 23.28181818181818,
                "end_time": 23.46590909090909,
                "pitch": 36,
                "velocity": 64,
                "duration": 0.18409090909090864,
                "tempo": 120.0
            },
            {
                "start_time": 23.48181818181818,
                "end_time": 23.56590909090909,
                "pitch": 36,
                "velocity": 64,
                "duration": 0.08409090909091077,
                "tempo": 120.0
            },
            {
                "start_time": 23.581818181818182,
                "end_time": 23.66590909090909,
                "pitch": 48,
                "velocity": 64,
                "duration": 0.08409090909090722,
                "tempo": 120.0
            },
            {
                "start_time": 23.68181818181818,
                "end_time": 23.86590909090909,
                "pitch": 36,
                "velocity": 64,
                "duration": 0.18409090909090864,
                "tempo": 120.0
            },
            {
                "start_time": 23.884090909090908,
                "end_time": 23.96818181818182,
                "pitch": 36,
                "velocity": 64,
                "duration": 0.08409090909091077,
                "tempo": 120.0
            },
            {
                "start_time": 23.98409090909091,
                "end_time": 24.068181818181817,
                "pitch": 48,
                "velocity": 64,
                "duration": 0.08409090909090722,
                "tempo": 120.0
            },
            {
                "start_time": 24.084090909090907,
                "end_time": 24.268181818181816,
                "pitch": 38,
                "velocity": 64,
                "duration": 0.18409090909090864,
                "tempo": 120.0
            },
            {
                "start_time": 24.284090909090907,
                "end_time": 24.368181818181817,
                "pitch": 38,
                "velocity": 64,
                "duration": 0.08409090909091077,
                "tempo": 120.0
            },
            {
                "start_time": 24.384090909090908,
                "end_time": 24.46818181818182,
                "pitch": 50,
                "velocity": 64,
                "duration": 0.08409090909091077,
                "tempo": 120.0
            },
            {
                "start_time": 24.48409090909091,
                "end_time": 24.668181818181818,
                "pitch": 38,
                "velocity": 64,
                "duration": 0.18409090909090864,
                "tempo": 120.0
            },
            {
                "start_time": 24.68409090909091,
                "end_time": 24.768181818181816,
                "pitch": 38,
                "velocity": 64,
                "duration": 0.08409090909090722,
                "tempo": 120.0
            },
            {
                "start_time": 24.784090909090907,
                "end_time": 24.868181818181817,
                "pitch": 50,
                "velocity": 64,
                "duration": 0.08409090909091077,
                "tempo": 120.0
            },
            {
                "start_time": 24.884090909090908,
                "end_time": 25.070454545454545,
                "pitch": 38,
                "velocity": 64,
                "duration": 0.1863636363636374,
                "tempo": 120.0
            },
            {
                "start_time": 25.086363636363636,
                "end_time": 25.170454545454543,
                "pitch": 38,
                "velocity": 64,
                "duration": 0.08409090909090722,
                "tempo": 120.0
            },
            {
                "start_time": 25.186363636363634,
                "end_time": 25.270454545454545,
                "pitch": 50,
                "velocity": 64,
                "duration": 0.08409090909091077,
                "tempo": 120.0
            },
            {
                "start_time": 25.288636363636364,
                "end_time": 25.470454545454544,
                "pitch": 38,
                "velocity": 64,
                "duration": 0.18181818181817988,
                "tempo": 120.0
            },
            {
                "start_time": 25.488636363636363,
                "end_time": 25.570454545454545,
                "pitch": 38,
                "velocity": 64,
                "duration": 0.08181818181818201,
                "tempo": 120.0
            },
            {
                "start_time": 25.58863636363636,
                "end_time": 25.670454545454543,
                "pitch": 50,
                "velocity": 64,
                "duration": 0.08181818181818201,
                "tempo": 120.0
            },
            {
                "start_time": 25.688636363636363,
                "end_time": 25.87272727272727,
                "pitch": 43,
                "velocity": 64,
                "duration": 0.18409090909090864,
                "tempo": 120.0
            },
            {
                "start_time": 25.888636363636362,
                "end_time": 25.972727272727273,
                "pitch": 31,
                "velocity": 64,
                "duration": 0.08409090909091077,
                "tempo": 120.0
            },
            {
                "start_time": 25.988636363636363,
                "end_time": 26.174999999999997,
                "pitch": 43,
                "velocity": 64,
                "duration": 0.18636363636363384,
                "tempo": 120.0
            },
            {
                "start_time": 26.193181818181817,
                "end_time": 26.279545454545453,
                "pitch": 31,
                "velocity": 64,
                "duration": 0.08636363636363598,
                "tempo": 120.0
            },
            {
                "start_time": 26.295454545454543,
                "end_time": 26.48409090909091,
                "pitch": 43,
                "velocity": 64,
                "duration": 0.18863636363636616,
                "tempo": 120.0
            },
            {
                "start_time": 26.5,
                "end_time": 26.68181818181818,
                "pitch": 41,
                "velocity": 64,
                "duration": 0.18181818181817988,
                "tempo": 120.0
            },
            {
                "start_time": 26.69772727272727,
                "end_time": 26.779545454545453,
                "pitch": 29,
                "velocity": 64,
                "duration": 0.08181818181818201,
                "tempo": 120.0
            },
            {
                "start_time": 26.795454545454543,
                "end_time": 26.974999999999998,
                "pitch": 41,
                "velocity": 64,
                "duration": 0.17954545454545467,
                "tempo": 120.0
            },
            {
                "start_time": 26.99090909090909,
                "end_time": 27.07272727272727,
                "pitch": 29,
                "velocity": 64,
                "duration": 0.08181818181818201,
                "tempo": 120.0
            },
            {
                "start_time": 27.08863636363636,
                "end_time": 27.268181818181816,
                "pitch": 41,
                "velocity": 64,
                "duration": 0.17954545454545467,
                "tempo": 120.0
            },
            {
                "start_time": 27.286363636363635,
                "end_time": 27.472727272727273,
                "pitch": 39,
                "velocity": 64,
                "duration": 0.1863636363636374,
                "tempo": 120.0
            },
            {
                "start_time": 27.49090909090909,
                "end_time": 27.577272727272724,
                "pitch": 27,
                "velocity": 64,
                "duration": 0.08636363636363598,
                "tempo": 120.0
            },
            {
                "start_time": 27.593181818181815,
                "end_time": 27.777272727272727,
                "pitch": 39,
                "velocity": 64,
                "duration": 0.1840909090909122,
                "tempo": 120.0
            },
            {
                "start_time": 27.793181818181818,
                "end_time": 27.875,
                "pitch": 27,
                "velocity": 64,
                "duration": 0.08181818181818201,
                "tempo": 120.0
            },
            {
                "start_time": 27.89090909090909,
                "end_time": 28.07272727272727,
                "pitch": 39,
                "velocity": 64,
                "duration": 0.18181818181817988,
                "tempo": 120.0
            },
            {
                "start_time": 28.08863636363636,
                "end_time": 28.277272727272727,
                "pitch": 41,
                "velocity": 64,
                "duration": 0.18863636363636616,
                "tempo": 120.0
            },
            {
                "start_time": 28.293181818181818,
                "end_time": 28.379545454545454,
                "pitch": 29,
                "velocity": 64,
                "duration": 0.08636363636363598,
                "tempo": 120.0
            },
            {
                "start_time": 28.395454545454545,
                "end_time": 28.579545454545453,
                "pitch": 41,
                "velocity": 64,
                "duration": 0.18409090909090864,
                "tempo": 120.0
            },
            {
                "start_time": 28.597727272727273,
                "end_time": 28.677272727272726,
                "pitch": 29,
                "velocity": 64,
                "duration": 0.07954545454545325,
                "tempo": 120.0
            },
            {
                "start_time": 28.695454545454545,
                "end_time": 28.875,
                "pitch": 41,
                "velocity": 64,
                "duration": 0.17954545454545467,
                "tempo": 120.0
            },
            {
                "start_time": 28.89090909090909,
                "end_time": 29.079545454545453,
                "pitch": 39,
                "velocity": 64,
                "duration": 0.1886363636363626,
                "tempo": 120.0
            },
            {
                "start_time": 29.095454545454544,
                "end_time": 29.18181818181818,
                "pitch": 27,
                "velocity": 64,
                "duration": 0.08636363636363598,
                "tempo": 120.0
            },
            {
                "start_time": 29.2,
                "end_time": 29.38181818181818,
                "pitch": 39,
                "velocity": 64,
                "duration": 0.18181818181817988,
                "tempo": 120.0
            },
            {
                "start_time": 29.4,
                "end_time": 29.48181818181818,
                "pitch": 27,
                "velocity": 64,
                "duration": 0.08181818181818201,
                "tempo": 120.0
            },
            {
                "start_time": 29.49772727272727,
                "end_time": 29.677272727272726,
                "pitch": 39,
                "velocity": 64,
                "duration": 0.17954545454545467,
                "tempo": 120.0
            },
            {
                "start_time": 29.693181818181817,
                "end_time": 29.88181818181818,
                "pitch": 41,
                "velocity": 64,
                "duration": 0.1886363636363626,
                "tempo": 120.0
            },
            {
                "start_time": 29.89772727272727,
                "end_time": 29.98409090909091,
                "pitch": 29,
                "velocity": 64,
                "duration": 0.08636363636363953,
                "tempo": 120.0
            },
            {
                "start_time": 30.002272727272725,
                "end_time": 30.186363636363634,
                "pitch": 41,
                "velocity": 64,
                "duration": 0.18409090909090864,
                "tempo": 120.0
            },
            {
                "start_time": 30.202272727272724,
                "end_time": 30.284090909090907,
                "pitch": 29,
                "velocity": 64,
                "duration": 0.08181818181818201,
                "tempo": 120.0
            },
            {
                "start_time": 30.299999999999997,
                "end_time": 30.479545454545452,
                "pitch": 41,
                "velocity": 64,
                "duration": 0.17954545454545467,
                "tempo": 120.0
            },
            {
                "start_time": 30.495454545454542,
                "end_time": 30.68409090909091,
                "pitch": 39,
                "velocity": 64,
                "duration": 0.18863636363636616,
                "tempo": 120.0
            },
            {
                "start_time": 30.702272727272724,
                "end_time": 30.786363636363635,
                "pitch": 27,
                "velocity": 64,
                "duration": 0.08409090909091077,
                "tempo": 120.0
            },
            {
                "start_time": 30.804545454545455,
                "end_time": 30.988636363636363,
                "pitch": 39,
                "velocity": 64,
                "duration": 0.18409090909090864,
                "tempo": 120.0
            },
            {
                "start_time": 31.004545454545454,
                "end_time": 31.086363636363636,
                "pitch": 27,
                "velocity": 64,
                "duration": 0.08181818181818201,
                "tempo": 120.0
            },
            {
                "start_time": 31.102272727272727,
                "end_time": 31.28181818181818,
                "pitch": 39,
                "velocity": 64,
                "duration": 0.17954545454545467,
                "tempo": 120.0
            },
            {
                "start_time": 31.297727272727272,
                "end_time": 31.486363636363635,
                "pitch": 41,
                "velocity": 64,
                "duration": 0.1886363636363626,
                "tempo": 120.0
            },
            {
                "start_time": 31.504545454545454,
                "end_time": 31.58863636363636,
                "pitch": 29,
                "velocity": 64,
                "duration": 0.08409090909090722,
                "tempo": 120.0
            },
            {
                "start_time": 31.60681818181818,
                "end_time": 31.79090909090909,
                "pitch": 41,
                "velocity": 64,
                "duration": 0.18409090909090864,
                "tempo": 120.0
            },
            {
                "start_time": 31.80681818181818,
                "end_time": 31.888636363636362,
                "pitch": 29,
                "velocity": 64,
                "duration": 0.08181818181818201,
                "tempo": 120.0
            },
            {
                "start_time": 31.904545454545453,
                "end_time": 32.08409090909091,
                "pitch": 41,
                "velocity": 64,
                "duration": 0.17954545454545823,
                "tempo": 120.0
            },
            {
                "start_time": 32.10227272727273,
                "end_time": 32.288636363636364,
                "pitch": 39,
                "velocity": 64,
                "duration": 0.1863636363636374,
                "tempo": 120.0
            },
            {
                "start_time": 32.30681818181818,
                "end_time": 32.393181818181816,
                "pitch": 39,
                "velocity": 64,
                "duration": 0.08636363636363598,
                "tempo": 120.0
            },
            {
                "start_time": 32.40909090909091,
                "end_time": 32.49545454545454,
                "pitch": 51,
                "velocity": 64,
                "duration": 0.08636363636363598,
                "tempo": 120.0
            },
            {
                "start_time": 32.51136363636363,
                "end_time": 32.695454545454545,
                "pitch": 39,
                "velocity": 64,
                "duration": 0.1840909090909122,
                "tempo": 120.0
            },
            {
                "start_time": 32.711363636363636,
                "end_time": 32.79545454545455,
                "pitch": 39,
                "velocity": 64,
                "duration": 0.08409090909091077,
                "tempo": 120.0
            },
            {
                "start_time": 32.81136363636364,
                "end_time": 32.89545454545454,
                "pitch": 51,
                "velocity": 64,
                "duration": 0.08409090909090366,
                "tempo": 120.0
            },
            {
                "start_time": 32.91136363636363,
                "end_time": 33.095454545454544,
                "pitch": 39,
                "velocity": 64,
                "duration": 0.1840909090909122,
                "tempo": 120.0
            },
            {
                "start_time": 33.111363636363635,
                "end_time": 33.195454545454545,
                "pitch": 39,
                "velocity": 64,
                "duration": 0.08409090909091077,
                "tempo": 120.0
            },
            {
                "start_time": 33.211363636363636,
                "end_time": 33.29545454545455,
                "pitch": 51,
                "velocity": 64,
                "duration": 0.08409090909091077,
                "tempo": 120.0
            },
            {
                "start_time": 33.31136363636364,
                "end_time": 33.49772727272727,
                "pitch": 39,
                "velocity": 64,
                "duration": 0.1863636363636303,
                "tempo": 120.0
            },
            {
                "start_time": 33.513636363636365,
                "end_time": 33.59772727272727,
                "pitch": 39,
                "velocity": 64,
                "duration": 0.08409090909090366,
                "tempo": 120.0
            },
            {
                "start_time": 33.61363636363636,
                "end_time": 33.69772727272727,
                "pitch": 51,
                "velocity": 64,
                "duration": 0.08409090909091077,
                "tempo": 120.0
            },
            {
                "start_time": 33.715909090909086,
                "end_time": 33.89772727272727,
                "pitch": 41,
                "velocity": 64,
                "duration": 0.18181818181818699,
                "tempo": 120.0
            },
            {
                "start_time": 33.91590909090909,
                "end_time": 33.99772727272727,
                "pitch": 41,
                "velocity": 64,
                "duration": 0.08181818181817846,
                "tempo": 120.0
            },
            {
                "start_time": 34.01590909090909,
                "end_time": 34.09772727272727,
                "pitch": 53,
                "velocity": 64,
                "duration": 0.08181818181817846,
                "tempo": 120.0
            },
            {
                "start_time": 34.11590909090909,
                "end_time": 34.29772727272727,
                "pitch": 41,
                "velocity": 64,
                "duration": 0.18181818181817988,
                "tempo": 120.0
            },
            {
                "start_time": 34.31590909090909,
                "end_time": 34.39772727272727,
                "pitch": 41,
                "velocity": 64,
                "duration": 0.08181818181818556,
                "tempo": 120.0
            },
            {
                "start_time": 34.41590909090909,
                "end_time": 34.49772727272727,
                "pitch": 53,
                "velocity": 64,
                "duration": 0.08181818181817846,
                "tempo": 120.0
            },
            {
                "start_time": 34.51590909090909,
                "end_time": 34.69772727272727,
                "pitch": 41,
                "velocity": 64,
                "duration": 0.18181818181817988,
                "tempo": 120.0
            },
            {
                "start_time": 34.715909090909086,
                "end_time": 34.79772727272727,
                "pitch": 41,
                "velocity": 64,
                "duration": 0.08181818181818556,
                "tempo": 120.0
            },
            {
                "start_time": 34.81590909090909,
                "end_time": 34.89772727272727,
                "pitch": 53,
                "velocity": 64,
                "duration": 0.08181818181818556,
                "tempo": 120.0
            },
            {
                "start_time": 34.91590909090909,
                "end_time": 35.09772727272727,
                "pitch": 41,
                "velocity": 64,
                "duration": 0.18181818181817988,
                "tempo": 120.0
            },
            {
                "start_time": 35.11590909090909,
                "end_time": 35.19772727272727,
                "pitch": 41,
                "velocity": 64,
                "duration": 0.08181818181817846,
                "tempo": 120.0
            },
            {
                "start_time": 35.215909090909086,
                "end_time": 35.29772727272727,
                "pitch": 53,
                "velocity": 64,
                "duration": 0.08181818181818556,
                "tempo": 120.0
            },
            {
                "start_time": 35.31590909090909,
                "end_time": 35.5,
                "pitch": 31,
                "velocity": 64,
                "duration": 0.1840909090909122,
                "tempo": 120.0
            },
            {
                "start_time": 35.51590909090909,
                "end_time": 35.6,
                "pitch": 31,
                "velocity": 64,
                "duration": 0.08409090909091077,
                "tempo": 120.0
            },
            {
                "start_time": 35.61590909090909,
                "end_time": 35.699999999999996,
                "pitch": 43,
                "velocity": 64,
                "duration": 0.08409090909090366,
                "tempo": 120.0
            },
            {
                "start_time": 35.71818181818182,
                "end_time": 35.9,
                "pitch": 31,
                "velocity": 64,
                "duration": 0.18181818181817988,
                "tempo": 120.0
            },
            {
                "start_time": 35.918181818181814,
                "end_time": 36.0,
                "pitch": 31,
                "velocity": 64,
                "duration": 0.08181818181818556,
                "tempo": 120.0
            },
            {
                "start_time": 36.018181818181816,
                "end_time": 36.1,
                "pitch": 43,
                "velocity": 64,
                "duration": 0.08181818181818556,
                "tempo": 120.0
            },
            {
                "start_time": 36.11818181818182,
                "end_time": 36.3,
                "pitch": 31,
                "velocity": 64,
                "duration": 0.18181818181817988,
                "tempo": 120.0
            },
            {
                "start_time": 36.31818181818181,
                "end_time": 36.4,
                "pitch": 31,
                "velocity": 64,
                "duration": 0.08181818181818556,
                "tempo": 120.0
            },
            {
                "start_time": 36.418181818181814,
                "end_time": 36.5,
                "pitch": 43,
                "velocity": 64,
                "duration": 0.08181818181818556,
                "tempo": 120.0
            },
            {
                "start_time": 36.518181818181816,
                "end_time": 36.699999999999996,
                "pitch": 31,
                "velocity": 64,
                "duration": 0.18181818181817988,
                "tempo": 120.0
            },
            {
                "start_time": 36.71818181818182,
                "end_time": 36.8,
                "pitch": 31,
                "velocity": 64,
                "duration": 0.08181818181817846,
                "tempo": 120.0
            },
            {
                "start_time": 36.81818181818181,
                "end_time": 36.9,
                "pitch": 43,
                "velocity": 64,
                "duration": 0.08181818181818556,
                "tempo": 120.0
            },
            {
                "start_time": 36.918181818181814,
                "end_time": 37.1,
                "pitch": 31,
                "velocity": 64,
                "duration": 0.18181818181818699,
                "tempo": 120.0
            },
            {
                "start_time": 37.11818181818182,
                "end_time": 37.199999999999996,
                "pitch": 31,
                "velocity": 64,
                "duration": 0.08181818181817846,
                "tempo": 120.0
            },
            {
                "start_time": 37.21818181818182,
                "end_time": 37.3,
                "pitch": 43,
                "velocity": 64,
                "duration": 0.08181818181817846,
                "tempo": 120.0
            },
            {
                "start_time": 37.31818181818181,
                "end_time": 37.502272727272725,
                "pitch": 31,
                "velocity": 64,
                "duration": 0.1840909090909122,
                "tempo": 120.0
            },
            {
                "start_time": 37.518181818181816,
                "end_time": 37.60227272727273,
                "pitch": 31,
                "velocity": 64,
                "duration": 0.08409090909091077,
                "tempo": 120.0
            },
            {
                "start_time": 37.62045454545454,
                "end_time": 37.70454545454545,
                "pitch": 43,
                "velocity": 64,
                "duration": 0.08409090909091077,
                "tempo": 120.0
            },
            {
                "start_time": 37.720454545454544,
                "end_time": 37.904545454545456,
                "pitch": 31,
                "velocity": 64,
                "duration": 0.1840909090909122,
                "tempo": 120.0
            },
            {
                "start_time": 37.92045454545455,
                "end_time": 38.00454545454545,
                "pitch": 31,
                "velocity": 64,
                "duration": 0.08409090909090366,
                "tempo": 120.0
            },
            {
                "start_time": 38.02045454545454,
                "end_time": 38.10454545454545,
                "pitch": 43,
                "velocity": 64,
                "duration": 0.08409090909091077,
                "tempo": 120.0
            },
            {
                "start_time": 38.12045454545454,
                "end_time": 38.304545454545455,
                "pitch": 31,
                "velocity": 64,
                "duration": 0.1840909090909122,
                "tempo": 120.0
            },
            {
                "start_time": 38.320454545454545,
                "end_time": 38.404545454545456,
                "pitch": 31,
                "velocity": 64,
                "duration": 0.08409090909091077,
                "tempo": 120.0
            },
            {
                "start_time": 38.42045454545455,
                "end_time": 38.50454545454545,
                "pitch": 43,
                "velocity": 64,
                "duration": 0.08409090909090366,
                "tempo": 120.0
            },
            {
                "start_time": 38.52045454545454,
                "end_time": 38.53636363636363,
                "pitch": 31,
                "velocity": 64,
                "duration": 0.01590909090909065,
                "tempo": 120.0
            }
        ],
        "Violin": [
            {
                "start_time": 0.03409090909090909,
                "end_time": 0.8181818181818181,
                "pitch": 62,
                "velocity": 101,
                "duration": 0.7840909090909091,
                "tempo": 120.0
            },
            {
                "start_time": 0.8363636363636363,
                "end_time": 1.018181818181818,
                "pitch": 67,
                "velocity": 101,
                "duration": 0.18181818181818177,
                "tempo": 120.0
            },
            {
                "start_time": 1.0363636363636364,
                "end_time": 1.4181818181818182,
                "pitch": 65,
                "velocity": 101,
                "duration": 0.38181818181818183,
                "tempo": 120.0
            },
            {
                "start_time": 1.4363636363636363,
                "end_time": 1.6181818181818182,
                "pitch": 60,
                "velocity": 101,
                "duration": 0.18181818181818188,
                "tempo": 120.0
            },
            {
                "start_time": 1.6363636363636362,
                "end_time": 2.4204545454545454,
                "pitch": 58,
                "velocity": 101,
                "duration": 0.7840909090909092,
                "tempo": 120.0
            },
            {
                "start_time": 2.4386363636363635,
                "end_time": 2.620454545454545,
                "pitch": 57,
                "velocity": 101,
                "duration": 0.18181818181818166,
                "tempo": 120.0
            },
            {
                "start_time": 2.6386363636363637,
                "end_time": 3.0204545454545455,
                "pitch": 58,
                "velocity": 101,
                "duration": 0.38181818181818183,
                "tempo": 120.0
            },
            {
                "start_time": 3.0386363636363636,
                "end_time": 3.2227272727272727,
                "pitch": 60,
                "velocity": 101,
                "duration": 0.18409090909090908,
                "tempo": 120.0
            },
            {
                "start_time": 3.2386363636363633,
                "end_time": 6.431818181818182,
                "pitch": 62,
                "velocity": 101,
                "duration": 3.1931818181818183,
                "tempo": 120.0
            },
            {
                "start_time": 6.449999999999999,
                "end_time": 7.2340909090909085,
                "pitch": 62,
                "velocity": 101,
                "duration": 0.7840909090909092,
                "tempo": 120.0
            },
            {
                "start_time": 7.252272727272727,
                "end_time": 7.436363636363636,
                "pitch": 67,
                "velocity": 101,
                "duration": 0.18409090909090864,
                "tempo": 120.0
            },
            {
                "start_time": 7.452272727272727,
                "end_time": 7.838636363636363,
                "pitch": 65,
                "velocity": 101,
                "duration": 0.3863636363636358,
                "tempo": 120.0
            },
            {
                "start_time": 7.8545454545454545,
                "end_time": 8.038636363636364,
                "pitch": 60,
                "velocity": 101,
                "duration": 0.18409090909090953,
                "tempo": 120.0
            },
            {
                "start_time": 8.054545454545455,
                "end_time": 8.843181818181817,
                "pitch": 58,
                "velocity": 101,
                "duration": 0.7886363636363622,
                "tempo": 120.0
            },
            {
                "start_time": 8.85909090909091,
                "end_time": 9.045454545454545,
                "pitch": 57,
                "velocity": 101,
                "duration": 0.18636363636363562,
                "tempo": 120.0
            },
            {
                "start_time": 9.061363636363636,
                "end_time": 9.445454545454545,
                "pitch": 58,
                "velocity": 101,
                "duration": 0.3840909090909097,
                "tempo": 120.0
            },
            {
                "start_time": 9.461363636363636,
                "end_time": 9.645454545454545,
                "pitch": 60,
                "velocity": 101,
                "duration": 0.18409090909090864,
                "tempo": 120.0
            },
            {
                "start_time": 9.663636363636364,
                "end_time": 9.847727272727273,
                "pitch": 58,
                "velocity": 101,
                "duration": 0.18409090909090864,
                "tempo": 120.0
            },
            {
                "start_time": 9.863636363636363,
                "end_time": 12.854545454545454,
                "pitch": 55,
                "velocity": 101,
                "duration": 2.9909090909090903,
                "tempo": 120.0
            },
            {
                "start_time": 12.870454545454544,
                "end_time": 13.163636363636362,
                "pitch": 67,
                "velocity": 101,
                "duration": 0.293181818181818,
                "tempo": 120.0
            },
            {
                "start_time": 13.179545454545455,
                "end_time": 13.470454545454546,
                "pitch": 69,
                "velocity": 101,
                "duration": 0.290909090909091,
                "tempo": 120.0
            },
            {
                "start_time": 13.488636363636363,
                "end_time": 14.468181818181817,
                "pitch": 70,
                "velocity": 101,
                "duration": 0.9795454545454536,
                "tempo": 120.0
            },
            {
                "start_time": 14.484090909090908,
                "end_time": 14.770454545454545,
                "pitch": 69,
                "velocity": 101,
                "duration": 0.28636363636363704,
                "tempo": 120.0
            },
            {
                "start_time": 14.786363636363635,
                "end_time": 15.077272727272726,
                "pitch": 67,
                "velocity": 101,
                "duration": 0.290909090909091,
                "tempo": 120.0
            },
            {
                "start_time": 15.093181818181817,
                "end_time": 16.075,
                "pitch": 65,
                "velocity": 101,
                "duration": 0.9818181818181824,
                "tempo": 120.0
            },
            {
                "start_time": 16.09090909090909,
                "end_time": 16.477272727272727,
                "pitch": 67,
                "velocity": 101,
                "duration": 0.3863636363636367,
                "tempo": 120.0
            },
            {
                "start_time": 16.493181818181817,
                "end_time": 16.877272727272725,
                "pitch": 55,
                "velocity": 101,
                "duration": 0.38409090909090793,
                "tempo": 120.0
            },
            {
                "start_time": 16.893181818181816,
                "end_time": 17.077272727272728,
                "pitch": 58,
                "velocity": 101,
                "duration": 0.1840909090909122,
                "tempo": 120.0
            },
            {
                "start_time": 17.095454545454544,
                "end_time": 17.279545454545453,
                "pitch": 60,
                "velocity": 101,
                "duration": 0.18409090909090864,
                "tempo": 120.0
            },
            {
                "start_time": 17.295454545454543,
                "end_time": 17.479545454545455,
                "pitch": 58,
                "velocity": 101,
                "duration": 0.1840909090909122,
                "tempo": 120.0
            },
            {
                "start_time": 17.495454545454546,
                "end_time": 18.48181818181818,
                "pitch": 62,
                "velocity": 101,
                "duration": 0.9863636363636346,
                "tempo": 120.0
            },
            {
                "start_time": 18.5,
                "end_time": 18.88181818181818,
                "pitch": 63,
                "velocity": 101,
                "duration": 0.38181818181817917,
                "tempo": 120.0
            },
            {
                "start_time": 18.9,
                "end_time": 19.284090909090907,
                "pitch": 65,
                "velocity": 101,
                "duration": 0.38409090909090793,
                "tempo": 120.0
            },
            {
                "start_time": 19.302272727272726,
                "end_time": 19.584090909090907,
                "pitch": 67,
                "velocity": 101,
                "duration": 0.2818181818181813,
                "tempo": 120.0
            },
            {
                "start_time": 19.602272727272727,
                "end_time": 19.886363636363637,
                "pitch": 69,
                "velocity": 101,
                "duration": 0.28409090909091006,
                "tempo": 120.0
            },
            {
                "start_time": 19.902272727272727,
                "end_time": 20.89090909090909,
                "pitch": 70,
                "velocity": 101,
                "duration": 0.9886363636363633,
                "tempo": 120.0
            },
            {
                "start_time": 20.90681818181818,
                "end_time": 21.193181818181817,
                "pitch": 69,
                "velocity": 101,
                "duration": 0.28636363636363527,
                "tempo": 120.0
            },
            {
                "start_time": 21.209090909090907,
                "end_time": 21.49772727272727,
                "pitch": 67,
                "velocity": 101,
                "duration": 0.288636363636364,
                "tempo": 120.0
            },
            {
                "start_time": 21.51590909090909,
                "end_time": 22.495454545454546,
                "pitch": 65,
                "velocity": 101,
                "duration": 0.9795454545454554,
                "tempo": 120.0
            },
            {
                "start_time": 22.513636363636362,
                "end_time": 23.299999999999997,
                "pitch": 67,
                "velocity": 101,
                "duration": 0.7863636363636353,
                "tempo": 120.0
            },
            {
                "start_time": 23.31590909090909,
                "end_time": 23.5,
                "pitch": 67,
                "velocity": 101,
                "duration": 0.18409090909090864,
                "tempo": 120.0
            },
            {
                "start_time": 23.51590909090909,
                "end_time": 23.7,
                "pitch": 69,
                "velocity": 101,
                "duration": 0.18409090909090864,
                "tempo": 120.0
            },
            {
                "start_time": 23.71590909090909,
                "end_time": 23.9,
                "pitch": 70,
                "velocity": 101,
                "duration": 0.18409090909090864,
                "tempo": 120.0
            },
            {
                "start_time": 23.918181818181818,
                "end_time": 24.502272727272725,
                "pitch": 69,
                "velocity": 101,
                "duration": 0.5840909090909072,
                "tempo": 120.0
            },
            {
                "start_time": 24.518181818181816,
                "end_time": 24.902272727272727,
                "pitch": 69,
                "velocity": 101,
                "duration": 0.3840909090909115,
                "tempo": 120.0
            },
            {
                "start_time": 24.918181818181818,
                "end_time": 25.304545454545455,
                "pitch": 70,
                "velocity": 101,
                "duration": 0.3863636363636367,
                "tempo": 120.0
            },
            {
                "start_time": 25.320454545454545,
                "end_time": 25.704545454545453,
                "pitch": 72,
                "velocity": 101,
                "duration": 0.38409090909090793,
                "tempo": 120.0
            },
            {
                "start_time": 25.720454545454544,
                "end_time": 28.90681818181818,
                "pitch": 74,
                "velocity": 101,
                "duration": 3.1863636363636374,
                "tempo": 120.0
            },
            {
                "start_time": 28.924999999999997,
                "end_time": 32.11818181818182,
                "pitch": 74,
                "velocity": 101,
                "duration": 3.19318181818182,
                "tempo": 120.0
            },
            {
                "start_time": 32.13636363636363,
                "end_time": 32.929545454545455,
                "pitch": 63,
                "velocity": 101,
                "duration": 0.7931818181818215,
                "tempo": 120.0
            },
            {
                "start_time": 32.945454545454545,
                "end_time": 33.12954545454545,
                "pitch": 55,
                "velocity": 101,
                "duration": 0.18409090909090509,
                "tempo": 120.0
            },
            {
                "start_time": 33.14545454545454,
                "end_time": 33.32954545454545,
                "pitch": 58,
                "velocity": 101,
                "duration": 0.1840909090909122,
                "tempo": 120.0
            },
            {
                "start_time": 33.345454545454544,
                "end_time": 33.529545454545456,
                "pitch": 63,
                "velocity": 101,
                "duration": 0.1840909090909122,
                "tempo": 120.0
            },
            {
                "start_time": 33.54772727272727,
                "end_time": 34.13181818181818,
                "pitch": 65,
                "velocity": 101,
                "duration": 0.5840909090909108,
                "tempo": 120.0
            },
            {
                "start_time": 34.14772727272727,
                "end_time": 34.53181818181818,
                "pitch": 65,
                "velocity": 101,
                "duration": 0.38409090909090793,
                "tempo": 120.0
            },
            {
                "start_time": 34.54772727272727,
                "end_time": 34.93181818181818,
                "pitch": 60,
                "velocity": 101,
                "duration": 0.38409090909090793,
                "tempo": 120.0
            },
            {
                "start_time": 34.94772727272727,
                "end_time": 35.33181818181818,
                "pitch": 57,
                "velocity": 101,
                "duration": 0.38409090909090793,
                "tempo": 120.0
            },
            {
                "start_time": 35.34772727272727,
                "end_time": 38.53636363636363,
                "pitch": 59,
                "velocity": 101,
                "duration": 3.1886363636363626,
                "tempo": 120.0
            }
        ]
    }
}