{
    "track_id": "Ys (FM) - 07 - Holders of Power",
    "mood": "angry",
    "instruments": {
        "Trumpet": [
            {
                "start_time": 0.015909090909090907,
                "end_time": 1.5454545454545454,
                "pitch": 55,
                "velocity": 25,
                "duration": 1.5295454545454545,
                "tempo": 120.0
            },
            {
                "start_time": 1.5772727272727272,
                "end_time": 2.3477272727272727,
                "pitch": 56,
                "velocity": 25,
                "duration": 0.7704545454545455,
                "tempo": 120.0
            },
            {
                "start_time": 2.381818181818182,
                "end_time": 3.15,
                "pitch": 58,
                "velocity": 32,
                "duration": 0.7681818181818181,
                "tempo": 120.0
            },
            {
                "start_time": 3.184090909090909,
                "end_time": 4.752272727272727,
                "pitch": 55,
                "velocity": 40,
                "duration": 1.568181818181818,
                "tempo": 120.0
            },
            {
                "start_time": 4.786363636363636,
                "end_time": 5.559090909090909,
                "pitch": 56,
                "velocity": 51,
                "duration": 0.7727272727272725,
                "tempo": 120.0
            },
            {
                "start_time": 5.590909090909091,
                "end_time": 6.3590909090909085,
                "pitch": 58,
                "velocity": 64,
                "duration": 0.7681818181818176,
                "tempo": 120.0
            },
            {
                "start_time": 6.393181818181818,
                "end_time": 7.163636363636363,
                "pitch": 55,
                "velocity": 80,
                "duration": 0.7704545454545455,
                "tempo": 120.0
            },
            {
                "start_time": 7.197727272727272,
                "end_time": 7.959090909090909,
                "pitch": 58,
                "velocity": 80,
                "duration": 0.7613636363636367,
                "tempo": 120.0
            },
            {
                "start_time": 7.99090909090909,
                "end_time": 8.772727272727272,
                "pitch": 57,
                "velocity": 80,
                "duration": 0.7818181818181813,
                "tempo": 120.0
            },
            {
                "start_time": 8.804545454545455,
                "end_time": 9.572727272727272,
                "pitch": 56,
                "velocity": 80,
                "duration": 0.7681818181818176,
                "tempo": 120.0
            },
            {
                "start_time": 9.60909090909091,
                "end_time": 10.379545454545454,
                "pitch": 55,
                "velocity": 80,
                "duration": 0.7704545454545446,
                "tempo": 120.0
            },
            {
                "start_time": 10.413636363636362,
                "end_time": 11.174999999999999,
                "pitch": 58,
                "velocity": 80,
                "duration": 0.7613636363636367,
                "tempo": 120.0
            },
            {
                "start_time": 11.209090909090909,
                "end_time": 11.988636363636363,
                "pitch": 57,
                "velocity": 80,
                "duration": 0.7795454545454543,
                "tempo": 120.0
            },
            {
                "start_time": 12.022727272727272,
                "end_time": 12.790909090909091,
                "pitch": 56,
                "velocity": 80,
                "duration": 0.7681818181818194,
                "tempo": 120.0
            },
            {
                "start_time": 12.825,
                "end_time": 13.593181818181817,
                "pitch": 55,
                "velocity": 80,
                "duration": 0.7681818181818176,
                "tempo": 120.0
            },
            {
                "start_time": 13.627272727272727,
                "end_time": 14.399999999999999,
                "pitch": 58,
                "velocity": 80,
                "duration": 0.7727272727272716,
                "tempo": 120.0
            },
            {
                "start_time": 14.431818181818182,
                "end_time": 15.195454545454545,
                "pitch": 57,
                "velocity": 80,
                "duration": 0.7636363636363637,
                "tempo": 120.0
            },
            {
                "start_time": 15.227272727272727,
                "end_time": 16.006818181818183,
                "pitch": 56,
                "velocity": 80,
                "duration": 0.7795454545454561,
                "tempo": 120.0
            },
            {
                "start_time": 16.04090909090909,
                "end_time": 16.813636363636363,
                "pitch": 55,
                "velocity": 80,
                "duration": 0.7727272727272734,
                "tempo": 120.0
            },
            {
                "start_time": 16.845454545454544,
                "end_time": 17.61590909090909,
                "pitch": 58,
                "velocity": 80,
                "duration": 0.7704545454545446,
                "tempo": 120.0
            },
            {
                "start_time": 17.65,
                "end_time": 18.41590909090909,
                "pitch": 57,
                "velocity": 80,
                "duration": 0.7659090909090907,
                "tempo": 120.0
            },
            {
                "start_time": 18.45,
                "end_time": 19.211363636363636,
                "pitch": 56,
                "velocity": 80,
                "duration": 0.7613636363636367,
                "tempo": 120.0
            },
            {
                "start_time": 19.243181818181817,
                "end_time": 19.311363636363634,
                "pitch": 48,
                "velocity": 80,
                "duration": 0.06818181818181657,
                "tempo": 120.0
            },
            {
                "start_time": 19.347727272727273,
                "end_time": 19.41590909090909,
                "pitch": 55,
                "velocity": 80,
                "duration": 0.06818181818181657,
                "tempo": 120.0
            },
            {
                "start_time": 19.45,
                "end_time": 19.518181818181816,
                "pitch": 48,
                "velocity": 80,
                "duration": 0.06818181818181657,
                "tempo": 120.0
            },
            {
                "start_time": 19.552272727272726,
                "end_time": 19.620454545454546,
                "pitch": 48,
                "velocity": 80,
                "duration": 0.06818181818182012,
                "tempo": 120.0
            },
            {
                "start_time": 19.654545454545453,
                "end_time": 19.720454545454544,
                "pitch": 56,
                "velocity": 80,
                "duration": 0.06590909090909136,
                "tempo": 120.0
            },
            {
                "start_time": 19.752272727272725,
                "end_time": 19.818181818181817,
                "pitch": 48,
                "velocity": 80,
                "duration": 0.06590909090909136,
                "tempo": 120.0
            },
            {
                "start_time": 19.849999999999998,
                "end_time": 19.91590909090909,
                "pitch": 48,
                "velocity": 80,
                "duration": 0.06590909090909136,
                "tempo": 120.0
            },
            {
                "start_time": 19.94772727272727,
                "end_time": 20.013636363636362,
                "pitch": 55,
                "velocity": 80,
                "duration": 0.06590909090909136,
                "tempo": 120.0
            },
            {
                "start_time": 20.047727272727272,
                "end_time": 20.113636363636363,
                "pitch": 48,
                "velocity": 80,
                "duration": 0.06590909090909136,
                "tempo": 120.0
            },
            {
                "start_time": 20.147727272727273,
                "end_time": 20.21363636363636,
                "pitch": 48,
                "velocity": 80,
                "duration": 0.06590909090908781,
                "tempo": 120.0
            },
            {
                "start_time": 20.24772727272727,
                "end_time": 20.31590909090909,
                "pitch": 53,
                "velocity": 80,
                "duration": 0.06818181818182012,
                "tempo": 120.0
            },
            {
                "start_time": 20.349999999999998,
                "end_time": 20.41590909090909,
                "pitch": 48,
                "velocity": 80,
                "duration": 0.06590909090909136,
                "tempo": 120.0
            },
            {
                "start_time": 20.45,
                "end_time": 20.51590909090909,
                "pitch": 51,
                "velocity": 80,
                "duration": 0.06590909090909136,
                "tempo": 120.0
            },
            {
                "start_time": 20.55,
                "end_time": 20.61590909090909,
                "pitch": 50,
                "velocity": 80,
                "duration": 0.06590909090908781,
                "tempo": 120.0
            },
            {
                "start_time": 20.65,
                "end_time": 20.71590909090909,
                "pitch": 51,
                "velocity": 80,
                "duration": 0.06590909090909136,
                "tempo": 120.0
            },
            {
                "start_time": 20.75,
                "end_time": 20.81590909090909,
                "pitch": 53,
                "velocity": 80,
                "duration": 0.06590909090909136,
                "tempo": 120.0
            },
            {
                "start_time": 20.849999999999998,
                "end_time": 20.91590909090909,
                "pitch": 48,
                "velocity": 80,
                "duration": 0.06590909090909136,
                "tempo": 120.0
            },
            {
                "start_time": 20.95,
                "end_time": 21.018181818181816,
                "pitch": 55,
                "velocity": 80,
                "duration": 0.06818181818181657,
                "tempo": 120.0
            },
            {
                "start_time": 21.05,
                "end_time": 21.118181818181817,
                "pitch": 48,
                "velocity": 80,
                "duration": 0.06818181818181657,
                "tempo": 120.0
            },
            {
                "start_time": 21.152272727272727,
                "end_time": 21.21818181818182,
                "pitch": 48,
                "velocity": 80,
                "duration": 0.06590909090909136,
                "tempo": 120.0
            },
            {
                "start_time": 21.252272727272725,
                "end_time": 21.318181818181817,
                "pitch": 60,
                "velocity": 80,
                "duration": 0.06590909090909136,
                "tempo": 120.0
            },
            {
                "start_time": 21.352272727272727,
                "end_time": 21.418181818181818,
                "pitch": 48,
                "velocity": 80,
                "duration": 0.06590909090909136,
                "tempo": 120.0
            },
            {
                "start_time": 21.452272727272724,
                "end_time": 21.518181818181816,
                "pitch": 48,
                "velocity": 80,
                "duration": 0.06590909090909136,
                "tempo": 120.0
            },
            {
                "start_time": 21.552272727272726,
                "end_time": 21.618181818181817,
                "pitch": 58,
                "velocity": 80,
                "duration": 0.06590909090909136,
                "tempo": 120.0
            },
            {
                "start_time": 21.652272727272727,
                "end_time": 21.71818181818182,
                "pitch": 48,
                "velocity": 80,
                "duration": 0.06590909090909136,
                "tempo": 120.0
            },
            {
                "start_time": 21.752272727272725,
                "end_time": 21.818181818181817,
                "pitch": 48,
                "velocity": 80,
                "duration": 0.06590909090909136,
                "tempo": 120.0
            },
            {
                "start_time": 21.852272727272727,
                "end_time": 21.918181818181818,
                "pitch": 60,
                "velocity": 80,
                "duration": 0.06590909090909136,
                "tempo": 120.0
            },
            {
                "start_time": 21.952272727272724,
                "end_time": 22.018181818181816,
                "pitch": 48,
                "velocity": 80,
                "duration": 0.06590909090909136,
                "tempo": 120.0
            },
            {
                "start_time": 22.052272727272726,
                "end_time": 22.120454545454546,
                "pitch": 58,
                "velocity": 80,
                "duration": 0.06818181818182012,
                "tempo": 120.0
            },
            {
                "start_time": 22.152272727272727,
                "end_time": 22.220454545454544,
                "pitch": 56,
                "velocity": 80,
                "duration": 0.06818181818181657,
                "tempo": 120.0
            },
            {
                "start_time": 22.254545454545454,
                "end_time": 22.320454545454545,
                "pitch": 55,
                "velocity": 80,
                "duration": 0.06590909090909136,
                "tempo": 120.0
            },
            {
                "start_time": 22.354545454545452,
                "end_time": 22.420454545454543,
                "pitch": 53,
                "velocity": 80,
                "duration": 0.06590909090909136,
                "tempo": 120.0
            },
            {
                "start_time": 22.454545454545453,
                "end_time": 22.522727272727273,
                "pitch": 48,
                "velocity": 80,
                "duration": 0.06818181818182012,
                "tempo": 120.0
            },
            {
                "start_time": 22.554545454545455,
                "end_time": 22.62272727272727,
                "pitch": 55,
                "velocity": 80,
                "duration": 0.06818181818181657,
                "tempo": 120.0
            },
            {
                "start_time": 22.654545454545453,
                "end_time": 22.722727272727273,
                "pitch": 48,
                "velocity": 80,
                "duration": 0.06818181818182012,
                "tempo": 120.0
            },
            {
                "start_time": 22.754545454545454,
                "end_time": 22.82272727272727,
                "pitch": 48,
                "velocity": 80,
                "duration": 0.06818181818181657,
                "tempo": 120.0
            },
            {
                "start_time": 22.854545454545452,
                "end_time": 22.922727272727272,
                "pitch": 56,
                "velocity": 80,
                "duration": 0.06818181818182012,
                "tempo": 120.0
            },
            {
                "start_time": 22.956818181818182,
                "end_time": 23.022727272727273,
                "pitch": 48,
                "velocity": 80,
                "duration": 0.06590909090909136,
                "tempo": 120.0
            },
            {
                "start_time": 23.05681818181818,
                "end_time": 23.12272727272727,
                "pitch": 48,
                "velocity": 80,
                "duration": 0.06590909090909136,
                "tempo": 120.0
            },
            {
                "start_time": 23.15681818181818,
                "end_time": 23.224999999999998,
                "pitch": 55,
                "velocity": 80,
                "duration": 0.06818181818181657,
                "tempo": 120.0
            },
            {
                "start_time": 23.25681818181818,
                "end_time": 23.325,
                "pitch": 48,
                "velocity": 80,
                "duration": 0.06818181818182012,
                "tempo": 120.0
            },
            {
                "start_time": 23.35681818181818,
                "end_time": 23.424999999999997,
                "pitch": 48,
                "velocity": 80,
                "duration": 0.06818181818181657,
                "tempo": 120.0
            },
            {
                "start_time": 23.456818181818182,
                "end_time": 23.525,
                "pitch": 53,
                "velocity": 80,
                "duration": 0.06818181818181657,
                "tempo": 120.0
            },
            {
                "start_time": 23.55681818181818,
                "end_time": 23.625,
                "pitch": 48,
                "velocity": 80,
                "duration": 0.06818181818182012,
                "tempo": 120.0
            },
            {
                "start_time": 23.65681818181818,
                "end_time": 23.724999999999998,
                "pitch": 51,
                "velocity": 80,
                "duration": 0.06818181818181657,
                "tempo": 120.0
            },
            {
                "start_time": 23.75681818181818,
                "end_time": 23.825,
                "pitch": 50,
                "velocity": 80,
                "duration": 0.06818181818182012,
                "tempo": 120.0
            },
            {
                "start_time": 23.85681818181818,
                "end_time": 23.924999999999997,
                "pitch": 51,
                "velocity": 80,
                "duration": 0.06818181818181657,
                "tempo": 120.0
            },
            {
                "start_time": 23.956818181818182,
                "end_time": 24.025,
                "pitch": 53,
                "velocity": 80,
                "duration": 0.06818181818181657,
                "tempo": 120.0
            },
            {
                "start_time": 24.05681818181818,
                "end_time": 24.125,
                "pitch": 48,
                "velocity": 80,
                "duration": 0.06818181818182012,
                "tempo": 120.0
            },
            {
                "start_time": 24.159090909090907,
                "end_time": 24.224999999999998,
                "pitch": 55,
                "velocity": 80,
                "duration": 0.06590909090909136,
                "tempo": 120.0
            },
            {
                "start_time": 24.259090909090908,
                "end_time": 24.327272727272724,
                "pitch": 48,
                "velocity": 80,
                "duration": 0.06818181818181657,
                "tempo": 120.0
            },
            {
                "start_time": 24.35909090909091,
                "end_time": 24.427272727272726,
                "pitch": 48,
                "velocity": 80,
                "duration": 0.06818181818181657,
                "tempo": 120.0
            },
            {
                "start_time": 24.461363636363636,
                "end_time": 24.527272727272727,
                "pitch": 60,
                "velocity": 80,
                "duration": 0.06590909090909136,
                "tempo": 120.0
            },
            {
                "start_time": 24.561363636363634,
                "end_time": 24.627272727272725,
                "pitch": 48,
                "velocity": 80,
                "duration": 0.06590909090909136,
                "tempo": 120.0
            },
            {
                "start_time": 24.661363636363635,
                "end_time": 24.727272727272727,
                "pitch": 48,
                "velocity": 80,
                "duration": 0.06590909090909136,
                "tempo": 120.0
            },
            {
                "start_time": 24.761363636363637,
                "end_time": 24.827272727272724,
                "pitch": 58,
                "velocity": 80,
                "duration": 0.06590909090908781,
                "tempo": 120.0
            },
            {
                "start_time": 24.861363636363635,
                "end_time": 24.927272727272726,
                "pitch": 48,
                "velocity": 80,
                "duration": 0.06590909090909136,
                "tempo": 120.0
            },
            {
                "start_time": 24.961363636363636,
                "end_time": 25.027272727272727,
                "pitch": 48,
                "velocity": 80,
                "duration": 0.06590909090909136,
                "tempo": 120.0
            },
            {
                "start_time": 25.061363636363634,
                "end_time": 25.129545454545454,
                "pitch": 60,
                "velocity": 80,
                "duration": 0.06818181818182012,
                "tempo": 120.0
            },
            {
                "start_time": 25.161363636363635,
                "end_time": 25.229545454545452,
                "pitch": 48,
                "velocity": 80,
                "duration": 0.06818181818181657,
                "tempo": 120.0
            },
            {
                "start_time": 25.263636363636362,
                "end_time": 25.329545454545453,
                "pitch": 58,
                "velocity": 80,
                "duration": 0.06590909090909136,
                "tempo": 120.0
            },
            {
                "start_time": 25.363636363636363,
                "end_time": 25.429545454545455,
                "pitch": 56,
                "velocity": 80,
                "duration": 0.06590909090909136,
                "tempo": 120.0
            },
            {
                "start_time": 25.46363636363636,
                "end_time": 25.529545454545453,
                "pitch": 55,
                "velocity": 80,
                "duration": 0.06590909090909136,
                "tempo": 120.0
            },
            {
                "start_time": 25.563636363636363,
                "end_time": 25.629545454545454,
                "pitch": 53,
                "velocity": 80,
                "duration": 0.06590909090909136,
                "tempo": 120.0
            }
        ],
        "Synth Bass 1": [
            {
                "start_time": 0.0,
                "end_time": 0.049999999999999996,
                "pitch": 36,
                "velocity": 25,
                "duration": 0.049999999999999996,
                "tempo": 120.0
            },
            {
                "start_time": 0.08409090909090909,
                "end_time": 0.15,
                "pitch": 43,
                "velocity": 25,
                "duration": 0.0659090909090909,
                "tempo": 120.0
            },
            {
                "start_time": 0.18409090909090908,
                "end_time": 0.25,
                "pitch": 36,
                "velocity": 25,
                "duration": 0.06590909090909092,
                "tempo": 120.0
            },
            {
                "start_time": 0.28409090909090906,
                "end_time": 0.35,
                "pitch": 36,
                "velocity": 25,
                "duration": 0.06590909090909092,
                "tempo": 120.0
            },
            {
                "start_time": 0.3840909090909091,
                "end_time": 0.4477272727272727,
                "pitch": 36,
                "velocity": 25,
                "duration": 0.0636363636363636,
                "tempo": 120.0
            },
            {
                "start_time": 0.4818181818181818,
                "end_time": 0.5477272727272727,
                "pitch": 44,
                "velocity": 25,
                "duration": 0.06590909090909092,
                "tempo": 120.0
            },
            {
                "start_time": 0.5795454545454545,
                "end_time": 0.6454545454545454,
                "pitch": 36,
                "velocity": 25,
                "duration": 0.06590909090909092,
                "tempo": 120.0
            },
            {
                "start_time": 0.6772727272727272,
                "end_time": 0.7431818181818182,
                "pitch": 43,
                "velocity": 25,
                "duration": 0.06590909090909092,
                "tempo": 120.0
            },
            {
                "start_time": 0.7749999999999999,
                "end_time": 0.8431818181818181,
                "pitch": 36,
                "velocity": 25,
                "duration": 0.06818181818181823,
                "tempo": 120.0
            },
            {
                "start_time": 0.8772727272727272,
                "end_time": 0.9454545454545454,
                "pitch": 36,
                "velocity": 32,
                "duration": 0.06818181818181823,
                "tempo": 120.0
            },
            {
                "start_time": 0.9795454545454545,
                "end_time": 1.0477272727272726,
                "pitch": 41,
                "velocity": 32,
                "duration": 0.06818181818181812,
                "tempo": 120.0
            },
            {
                "start_time": 1.0818181818181818,
                "end_time": 1.1522727272727271,
                "pitch": 36,
                "velocity": 32,
                "duration": 0.07045454545454533,
                "tempo": 120.0
            },
            {
                "start_time": 1.1863636363636363,
                "end_time": 1.2522727272727272,
                "pitch": 39,
                "velocity": 32,
                "duration": 0.06590909090909092,
                "tempo": 120.0
            },
            {
                "start_time": 1.284090909090909,
                "end_time": 1.3499999999999999,
                "pitch": 38,
                "velocity": 32,
                "duration": 0.06590909090909092,
                "tempo": 120.0
            },
            {
                "start_time": 1.3818181818181818,
                "end_time": 1.4477272727272728,
                "pitch": 39,
                "velocity": 32,
                "duration": 0.06590909090909092,
                "tempo": 120.0
            },
            {
                "start_time": 1.4795454545454545,
                "end_time": 1.5454545454545454,
                "pitch": 41,
                "velocity": 32,
                "duration": 0.06590909090909092,
                "tempo": 120.0
            },
            {
                "start_time": 1.5772727272727272,
                "end_time": 1.6454545454545453,
                "pitch": 36,
                "velocity": 32,
                "duration": 0.06818181818181812,
                "tempo": 120.0
            },
            {
                "start_time": 1.6795454545454545,
                "end_time": 1.7454545454545454,
                "pitch": 43,
                "velocity": 40,
                "duration": 0.06590909090909092,
                "tempo": 120.0
            },
            {
                "start_time": 1.7795454545454545,
                "end_time": 1.8454545454545455,
                "pitch": 36,
                "velocity": 40,
                "duration": 0.06590909090909092,
                "tempo": 120.0
            },
            {
                "start_time": 1.8795454545454544,
                "end_time": 1.9477272727272725,
                "pitch": 36,
                "velocity": 40,
                "duration": 0.06818181818181812,
                "tempo": 120.0
            },
            {
                "start_time": 1.9795454545454545,
                "end_time": 2.047727272727273,
                "pitch": 44,
                "velocity": 40,
                "duration": 0.06818181818181834,
                "tempo": 120.0
            },
            {
                "start_time": 2.0818181818181816,
                "end_time": 2.1477272727272725,
                "pitch": 36,
                "velocity": 40,
                "duration": 0.06590909090909092,
                "tempo": 120.0
            },
            {
                "start_time": 2.1818181818181817,
                "end_time": 2.2477272727272726,
                "pitch": 36,
                "velocity": 40,
                "duration": 0.06590909090909092,
                "tempo": 120.0
            },
            {
                "start_time": 2.2818181818181817,
                "end_time": 2.3477272727272727,
                "pitch": 46,
                "velocity": 40,
                "duration": 0.06590909090909092,
                "tempo": 120.0
            },
            {
                "start_time": 2.381818181818182,
                "end_time": 2.4477272727272728,
                "pitch": 36,
                "velocity": 40,
                "duration": 0.06590909090909092,
                "tempo": 120.0
            },
            {
                "start_time": 2.4818181818181815,
                "end_time": 2.5477272727272724,
                "pitch": 36,
                "velocity": 51,
                "duration": 0.06590909090909092,
                "tempo": 120.0
            },
            {
                "start_time": 2.5818181818181816,
                "end_time": 2.65,
                "pitch": 48,
                "velocity": 51,
                "duration": 0.06818181818181834,
                "tempo": 120.0
            },
            {
                "start_time": 2.6818181818181817,
                "end_time": 2.75,
                "pitch": 36,
                "velocity": 51,
                "duration": 0.06818181818181834,
                "tempo": 120.0
            },
            {
                "start_time": 2.784090909090909,
                "end_time": 2.8499999999999996,
                "pitch": 46,
                "velocity": 51,
                "duration": 0.06590909090909047,
                "tempo": 120.0
            },
            {
                "start_time": 2.884090909090909,
                "end_time": 2.9499999999999997,
                "pitch": 44,
                "velocity": 51,
                "duration": 0.06590909090909092,
                "tempo": 120.0
            },
            {
                "start_time": 2.984090909090909,
                "end_time": 3.05,
                "pitch": 43,
                "velocity": 51,
                "duration": 0.06590909090909092,
                "tempo": 120.0
            },
            {
                "start_time": 3.084090909090909,
                "end_time": 3.15,
                "pitch": 41,
                "velocity": 51,
                "duration": 0.06590909090909092,
                "tempo": 120.0
            },
            {
                "start_time": 3.184090909090909,
                "end_time": 3.25,
                "pitch": 36,
                "velocity": 51,
                "duration": 0.06590909090909092,
                "tempo": 120.0
            },
            {
                "start_time": 3.2840909090909087,
                "end_time": 3.3499999999999996,
                "pitch": 43,
                "velocity": 51,
                "duration": 0.06590909090909092,
                "tempo": 120.0
            },
            {
                "start_time": 3.384090909090909,
                "end_time": 3.4499999999999997,
                "pitch": 36,
                "velocity": 51,
                "duration": 0.06590909090909092,
                "tempo": 120.0
            },
            {
                "start_time": 3.484090909090909,
                "end_time": 3.55,
                "pitch": 36,
                "velocity": 51,
                "duration": 0.06590909090909092,
                "tempo": 120.0
            },
            {
                "start_time": 3.584090909090909,
                "end_time": 3.652272727272727,
                "pitch": 36,
                "velocity": 51,
                "duration": 0.0681818181818179,
                "tempo": 120.0
            },
            {
                "start_time": 3.686363636363636,
                "end_time": 3.7545454545454544,
                "pitch": 44,
                "velocity": 51,
                "duration": 0.06818181818181834,
                "tempo": 120.0
            },
            {
                "start_time": 3.7886363636363636,
                "end_time": 3.8568181818181815,
                "pitch": 36,
                "velocity": 51,
                "duration": 0.0681818181818179,
                "tempo": 120.0
            },
            {
                "start_time": 3.8909090909090907,
                "end_time": 3.959090909090909,
                "pitch": 43,
                "velocity": 51,
                "duration": 0.06818181818181834,
                "tempo": 120.0
            },
            {
                "start_time": 3.993181818181818,
                "end_time": 4.059090909090909,
                "pitch": 36,
                "velocity": 51,
                "duration": 0.06590909090909047,
                "tempo": 120.0
            },
            {
                "start_time": 4.093181818181818,
                "end_time": 4.156818181818181,
                "pitch": 36,
                "velocity": 64,
                "duration": 0.06363636363636349,
                "tempo": 120.0
            },
            {
                "start_time": 4.1909090909090905,
                "end_time": 4.254545454545454,
                "pitch": 41,
                "velocity": 64,
                "duration": 0.06363636363636349,
                "tempo": 120.0
            },
            {
                "start_time": 4.288636363636363,
                "end_time": 4.3545454545454545,
                "pitch": 36,
                "velocity": 64,
                "duration": 0.06590909090909136,
                "tempo": 120.0
            },
            {
                "start_time": 4.386363636363636,
                "end_time": 4.452272727272727,
                "pitch": 39,
                "velocity": 64,
                "duration": 0.06590909090909136,
                "tempo": 120.0
            },
            {
                "start_time": 4.486363636363636,
                "end_time": 4.552272727272727,
                "pitch": 38,
                "velocity": 64,
                "duration": 0.06590909090909047,
                "tempo": 120.0
            },
            {
                "start_time": 4.586363636363636,
                "end_time": 4.652272727272727,
                "pitch": 39,
                "velocity": 64,
                "duration": 0.06590909090909136,
                "tempo": 120.0
            },
            {
                "start_time": 4.6863636363636365,
                "end_time": 4.752272727272727,
                "pitch": 41,
                "velocity": 64,
                "duration": 0.06590909090909047,
                "tempo": 120.0
            },
            {
                "start_time": 4.786363636363636,
                "end_time": 4.852272727272727,
                "pitch": 36,
                "velocity": 64,
                "duration": 0.06590909090909047,
                "tempo": 120.0
            },
            {
                "start_time": 4.886363636363636,
                "end_time": 4.954545454545454,
                "pitch": 43,
                "velocity": 80,
                "duration": 0.06818181818181834,
                "tempo": 120.0
            },
            {
                "start_time": 4.988636363636363,
                "end_time": 5.054545454545455,
                "pitch": 36,
                "velocity": 80,
                "duration": 0.06590909090909136,
                "tempo": 120.0
            },
            {
                "start_time": 5.088636363636363,
                "end_time": 5.154545454545454,
                "pitch": 36,
                "velocity": 80,
                "duration": 0.06590909090909136,
                "tempo": 120.0
            },
            {
                "start_time": 5.1886363636363635,
                "end_time": 5.256818181818182,
                "pitch": 44,
                "velocity": 80,
                "duration": 0.06818181818181834,
                "tempo": 120.0
            },
            {
                "start_time": 5.288636363636363,
                "end_time": 5.3568181818181815,
                "pitch": 36,
                "velocity": 80,
                "duration": 0.06818181818181834,
                "tempo": 120.0
            },
            {
                "start_time": 5.390909090909091,
                "end_time": 5.456818181818181,
                "pitch": 36,
                "velocity": 80,
                "duration": 0.06590909090909047,
                "tempo": 120.0
            },
            {
                "start_time": 5.49090909090909,
                "end_time": 5.559090909090909,
                "pitch": 46,
                "velocity": 80,
                "duration": 0.06818181818181834,
                "tempo": 120.0
            },
            {
                "start_time": 5.590909090909091,
                "end_time": 5.656818181818181,
                "pitch": 36,
                "velocity": 80,
                "duration": 0.06590909090909047,
                "tempo": 120.0
            },
            {
                "start_time": 5.6886363636363635,
                "end_time": 5.754545454545454,
                "pitch": 36,
                "velocity": 101,
                "duration": 0.06590909090909047,
                "tempo": 120.0
            },
            {
                "start_time": 5.788636363636363,
                "end_time": 5.852272727272727,
                "pitch": 48,
                "velocity": 101,
                "duration": 0.06363636363636349,
                "tempo": 120.0
            },
            {
                "start_time": 5.886363636363636,
                "end_time": 5.949999999999999,
                "pitch": 36,
                "velocity": 101,
                "duration": 0.06363636363636349,
                "tempo": 120.0
            },
            {
                "start_time": 5.9840909090909085,
                "end_time": 6.052272727272727,
                "pitch": 46,
                "velocity": 101,
                "duration": 0.06818181818181834,
                "tempo": 120.0
            },
            {
                "start_time": 6.086363636363636,
                "end_time": 6.154545454545454,
                "pitch": 44,
                "velocity": 101,
                "duration": 0.06818181818181834,
                "tempo": 120.0
            },
            {
                "start_time": 6.1886363636363635,
                "end_time": 6.256818181818182,
                "pitch": 43,
                "velocity": 101,
                "duration": 0.06818181818181834,
                "tempo": 120.0
            },
            {
                "start_time": 6.290909090909091,
                "end_time": 6.3590909090909085,
                "pitch": 41,
                "velocity": 101,
                "duration": 0.06818181818181746,
                "tempo": 120.0
            },
            {
                "start_time": 6.393181818181818,
                "end_time": 6.459090909090909,
                "pitch": 36,
                "velocity": 101,
                "duration": 0.06590909090909136,
                "tempo": 120.0
            },
            {
                "start_time": 6.493181818181818,
                "end_time": 6.556818181818182,
                "pitch": 48,
                "velocity": 101,
                "duration": 0.06363636363636349,
                "tempo": 120.0
            },
            {
                "start_time": 6.590909090909091,
                "end_time": 6.654545454545454,
                "pitch": 36,
                "velocity": 101,
                "duration": 0.06363636363636349,
                "tempo": 120.0
            },
            {
                "start_time": 6.6886363636363635,
                "end_time": 6.754545454545454,
                "pitch": 36,
                "velocity": 101,
                "duration": 0.06590909090909047,
                "tempo": 120.0
            },
            {
                "start_time": 6.786363636363636,
                "end_time": 6.8545454545454545,
                "pitch": 48,
                "velocity": 101,
                "duration": 0.06818181818181834,
                "tempo": 120.0
            },
            {
                "start_time": 6.888636363636364,
                "end_time": 6.956818181818181,
                "pitch": 36,
                "velocity": 101,
                "duration": 0.06818181818181746,
                "tempo": 120.0
            },
            {
                "start_time": 6.99090909090909,
                "end_time": 7.059090909090909,
                "pitch": 36,
                "velocity": 101,
                "duration": 0.06818181818181834,
                "tempo": 120.0
            },
            {
                "start_time": 7.093181818181818,
                "end_time": 7.163636363636363,
                "pitch": 48,
                "velocity": 101,
                "duration": 0.07045454545454533,
                "tempo": 120.0
            },
            {
                "start_time": 7.197727272727272,
                "end_time": 7.263636363636364,
                "pitch": 39,
                "velocity": 101,
                "duration": 0.06590909090909136,
                "tempo": 120.0
            },
            {
                "start_time": 7.297727272727272,
                "end_time": 7.36590909090909,
                "pitch": 51,
                "velocity": 101,
                "duration": 0.06818181818181834,
                "tempo": 120.0
            },
            {
                "start_time": 7.3977272727272725,
                "end_time": 7.465909090909091,
                "pitch": 39,
                "velocity": 101,
                "duration": 0.06818181818181834,
                "tempo": 120.0
            },
            {
                "start_time": 7.5,
                "end_time": 7.5659090909090905,
                "pitch": 39,
                "velocity": 101,
                "duration": 0.06590909090909047,
                "tempo": 120.0
            },
            {
                "start_time": 7.6,
                "end_time": 7.66590909090909,
                "pitch": 51,
                "velocity": 101,
                "duration": 0.06590909090909047,
                "tempo": 120.0
            },
            {
                "start_time": 7.697727272727272,
                "end_time": 7.763636363636364,
                "pitch": 39,
                "velocity": 101,
                "duration": 0.06590909090909136,
                "tempo": 120.0
            },
            {
                "start_time": 7.795454545454545,
                "end_time": 7.861363636363636,
                "pitch": 39,
                "velocity": 101,
                "duration": 0.06590909090909136,
                "tempo": 120.0
            },
            {
                "start_time": 7.893181818181818,
                "end_time": 7.959090909090909,
                "pitch": 51,
                "velocity": 101,
                "duration": 0.06590909090909136,
                "tempo": 120.0
            },
            {
                "start_time": 7.99090909090909,
                "end_time": 8.059090909090909,
                "pitch": 41,
                "velocity": 101,
                "duration": 0.06818181818181834,
                "tempo": 120.0
            },
            {
                "start_time": 8.093181818181817,
                "end_time": 8.163636363636364,
                "pitch": 53,
                "velocity": 101,
                "duration": 0.0704545454545471,
                "tempo": 120.0
            },
            {
                "start_time": 8.197727272727272,
                "end_time": 8.26590909090909,
                "pitch": 41,
                "velocity": 101,
                "duration": 0.06818181818181834,
                "tempo": 120.0
            },
            {
                "start_time": 8.299999999999999,
                "end_time": 8.368181818181817,
                "pitch": 41,
                "velocity": 101,
                "duration": 0.06818181818181834,
                "tempo": 120.0
            },
            {
                "start_time": 8.402272727272727,
                "end_time": 8.470454545454546,
                "pitch": 53,
                "velocity": 101,
                "duration": 0.06818181818181834,
                "tempo": 120.0
            },
            {
                "start_time": 8.502272727272727,
                "end_time": 8.570454545454545,
                "pitch": 41,
                "velocity": 101,
                "duration": 0.06818181818181834,
                "tempo": 120.0
            },
            {
                "start_time": 8.604545454545454,
                "end_time": 8.670454545454545,
                "pitch": 41,
                "velocity": 101,
                "duration": 0.06590909090909136,
                "tempo": 120.0
            },
            {
                "start_time": 8.704545454545453,
                "end_time": 8.772727272727272,
                "pitch": 53,
                "velocity": 101,
                "duration": 0.06818181818181834,
                "tempo": 120.0
            },
            {
                "start_time": 8.804545454545455,
                "end_time": 8.870454545454544,
                "pitch": 44,
                "velocity": 101,
                "duration": 0.06590909090908958,
                "tempo": 120.0
            },
            {
                "start_time": 8.902272727272727,
                "end_time": 8.968181818181817,
                "pitch": 56,
                "velocity": 101,
                "duration": 0.06590909090908958,
                "tempo": 120.0
            },
            {
                "start_time": 9.002272727272727,
                "end_time": 9.06590909090909,
                "pitch": 44,
                "velocity": 101,
                "duration": 0.0636363636363626,
                "tempo": 120.0
            },
            {
                "start_time": 9.1,
                "end_time": 9.163636363636364,
                "pitch": 44,
                "velocity": 101,
                "duration": 0.06363636363636438,
                "tempo": 120.0
            },
            {
                "start_time": 9.197727272727272,
                "end_time": 9.26590909090909,
                "pitch": 56,
                "velocity": 101,
                "duration": 0.06818181818181834,
                "tempo": 120.0
            },
            {
                "start_time": 9.299999999999999,
                "end_time": 9.368181818181817,
                "pitch": 44,
                "velocity": 101,
                "duration": 0.06818181818181834,
                "tempo": 120.0
            },
            {
                "start_time": 9.402272727272727,
                "end_time": 9.470454545454546,
                "pitch": 44,
                "velocity": 101,
                "duration": 0.06818181818181834,
                "tempo": 120.0
            },
            {
                "start_time": 9.504545454545454,
                "end_time": 9.572727272727272,
                "pitch": 56,
                "velocity": 101,
                "duration": 0.06818181818181834,
                "tempo": 120.0
            },
            {
                "start_time": 9.60909090909091,
                "end_time": 9.674999999999999,
                "pitch": 36,
                "velocity": 101,
                "duration": 0.06590909090908958,
                "tempo": 120.0
            },
            {
                "start_time": 9.709090909090909,
                "end_time": 9.775,
                "pitch": 48,
                "velocity": 101,
                "duration": 0.06590909090909136,
                "tempo": 120.0
            },
            {
                "start_time": 9.809090909090909,
                "end_time": 9.877272727272727,
                "pitch": 36,
                "velocity": 101,
                "duration": 0.06818181818181834,
                "tempo": 120.0
            },
            {
                "start_time": 9.909090909090908,
                "end_time": 9.977272727272727,
                "pitch": 36,
                "velocity": 101,
                "duration": 0.06818181818181834,
                "tempo": 120.0
            },
            {
                "start_time": 10.011363636363637,
                "end_time": 10.077272727272726,
                "pitch": 48,
                "velocity": 101,
                "duration": 0.06590909090908958,
                "tempo": 120.0
            },
            {
                "start_time": 10.111363636363636,
                "end_time": 10.179545454545455,
                "pitch": 36,
                "velocity": 101,
                "duration": 0.06818181818181834,
                "tempo": 120.0
            },
            {
                "start_time": 10.211363636363636,
                "end_time": 10.279545454545454,
                "pitch": 36,
                "velocity": 101,
                "duration": 0.06818181818181834,
                "tempo": 120.0
            },
            {
                "start_time": 10.313636363636363,
                "end_time": 10.379545454545454,
                "pitch": 48,
                "velocity": 101,
                "duration": 0.06590909090909136,
                "tempo": 120.0
            },
            {
                "start_time": 10.413636363636362,
                "end_time": 10.479545454545454,
                "pitch": 39,
                "velocity": 101,
                "duration": 0.06590909090909136,
                "tempo": 120.0
            },
            {
                "start_time": 10.513636363636364,
                "end_time": 10.581818181818182,
                "pitch": 51,
                "velocity": 101,
                "duration": 0.06818181818181834,
                "tempo": 120.0
            },
            {
                "start_time": 10.61590909090909,
                "end_time": 10.681818181818182,
                "pitch": 39,
                "velocity": 101,
                "duration": 0.06590909090909136,
                "tempo": 120.0
            },
            {
                "start_time": 10.71590909090909,
                "end_time": 10.781818181818181,
                "pitch": 39,
                "velocity": 101,
                "duration": 0.06590909090909136,
                "tempo": 120.0
            },
            {
                "start_time": 10.81590909090909,
                "end_time": 10.881818181818181,
                "pitch": 51,
                "velocity": 101,
                "duration": 0.06590909090909136,
                "tempo": 120.0
            },
            {
                "start_time": 10.913636363636362,
                "end_time": 10.979545454545454,
                "pitch": 39,
                "velocity": 101,
                "duration": 0.06590909090909136,
                "tempo": 120.0
            },
            {
                "start_time": 11.011363636363637,
                "end_time": 11.077272727272726,
                "pitch": 39,
                "velocity": 101,
                "duration": 0.06590909090908958,
                "tempo": 120.0
            },
            {
                "start_time": 11.10909090909091,
                "end_time": 11.174999999999999,
                "pitch": 51,
                "velocity": 101,
                "duration": 0.06590909090908958,
                "tempo": 120.0
            },
            {
                "start_time": 11.209090909090909,
                "end_time": 11.277272727272727,
                "pitch": 41,
                "velocity": 101,
                "duration": 0.06818181818181834,
                "tempo": 120.0
            },
            {
                "start_time": 11.311363636363636,
                "end_time": 11.379545454545454,
                "pitch": 53,
                "velocity": 101,
                "duration": 0.06818181818181834,
                "tempo": 120.0
            },
            {
                "start_time": 11.413636363636362,
                "end_time": 11.48181818181818,
                "pitch": 41,
                "velocity": 101,
                "duration": 0.06818181818181834,
                "tempo": 120.0
            },
            {
                "start_time": 11.51590909090909,
                "end_time": 11.584090909090909,
                "pitch": 41,
                "velocity": 101,
                "duration": 0.06818181818181834,
                "tempo": 120.0
            },
            {
                "start_time": 11.618181818181817,
                "end_time": 11.686363636363636,
                "pitch": 53,
                "velocity": 101,
                "duration": 0.06818181818181834,
                "tempo": 120.0
            },
            {
                "start_time": 11.720454545454546,
                "end_time": 11.786363636363635,
                "pitch": 41,
                "velocity": 101,
                "duration": 0.06590909090908958,
                "tempo": 120.0
            },
            {
                "start_time": 11.820454545454545,
                "end_time": 11.886363636363635,
                "pitch": 41,
                "velocity": 101,
                "duration": 0.06590909090908958,
                "tempo": 120.0
            },
            {
                "start_time": 11.920454545454545,
                "end_time": 11.988636363636363,
                "pitch": 53,
                "velocity": 101,
                "duration": 0.06818181818181834,
                "tempo": 120.0
            },
            {
                "start_time": 12.022727272727272,
                "end_time": 12.086363636363636,
                "pitch": 44,
                "velocity": 101,
                "duration": 0.06363636363636438,
                "tempo": 120.0
            },
            {
                "start_time": 12.120454545454544,
                "end_time": 12.184090909090909,
                "pitch": 56,
                "velocity": 101,
                "duration": 0.06363636363636438,
                "tempo": 120.0
            },
            {
                "start_time": 12.218181818181817,
                "end_time": 12.284090909090908,
                "pitch": 44,
                "velocity": 101,
                "duration": 0.06590909090909136,
                "tempo": 120.0
            },
            {
                "start_time": 12.31590909090909,
                "end_time": 12.381818181818181,
                "pitch": 44,
                "velocity": 101,
                "duration": 0.06590909090909136,
                "tempo": 120.0
            },
            {
                "start_time": 12.413636363636362,
                "end_time": 12.48181818181818,
                "pitch": 56,
                "velocity": 101,
                "duration": 0.06818181818181834,
                "tempo": 120.0
            },
            {
                "start_time": 12.51590909090909,
                "end_time": 12.584090909090909,
                "pitch": 44,
                "velocity": 101,
                "duration": 0.06818181818181834,
                "tempo": 120.0
            },
            {
                "start_time": 12.618181818181817,
                "end_time": 12.686363636363636,
                "pitch": 44,
                "velocity": 101,
                "duration": 0.06818181818181834,
                "tempo": 120.0
            },
            {
                "start_time": 12.722727272727273,
                "end_time": 12.790909090909091,
                "pitch": 56,
                "velocity": 101,
                "duration": 0.06818181818181834,
                "tempo": 120.0
            },
            {
                "start_time": 12.825,
                "end_time": 12.89090909090909,
                "pitch": 36,
                "velocity": 101,
                "duration": 0.06590909090909136,
                "tempo": 120.0
            },
            {
                "start_time": 12.924999999999999,
                "end_time": 12.99090909090909,
                "pitch": 48,
                "velocity": 101,
                "duration": 0.06590909090909136,
                "tempo": 120.0
            },
            {
                "start_time": 13.024999999999999,
                "end_time": 13.09090909090909,
                "pitch": 36,
                "velocity": 101,
                "duration": 0.06590909090909136,
                "tempo": 120.0
            },
            {
                "start_time": 13.125,
                "end_time": 13.19090909090909,
                "pitch": 36,
                "velocity": 101,
                "duration": 0.06590909090908958,
                "tempo": 120.0
            },
            {
                "start_time": 13.225,
                "end_time": 13.290909090909091,
                "pitch": 48,
                "velocity": 101,
                "duration": 0.06590909090909136,
                "tempo": 120.0
            },
            {
                "start_time": 13.325,
                "end_time": 13.393181818181818,
                "pitch": 36,
                "velocity": 101,
                "duration": 0.06818181818181834,
                "tempo": 120.0
            },
            {
                "start_time": 13.424999999999999,
                "end_time": 13.493181818181817,
                "pitch": 36,
                "velocity": 101,
                "duration": 0.06818181818181834,
                "tempo": 120.0
            },
            {
                "start_time": 13.527272727272727,
                "end_time": 13.593181818181817,
                "pitch": 48,
                "velocity": 101,
                "duration": 0.06590909090908958,
                "tempo": 120.0
            },
            {
                "start_time": 13.627272727272727,
                "end_time": 13.695454545454545,
                "pitch": 39,
                "velocity": 101,
                "duration": 0.06818181818181834,
                "tempo": 120.0
            },
            {
                "start_time": 13.727272727272727,
                "end_time": 13.795454545454545,
                "pitch": 51,
                "velocity": 101,
                "duration": 0.06818181818181834,
                "tempo": 120.0
            },
            {
                "start_time": 13.829545454545453,
                "end_time": 13.895454545454545,
                "pitch": 39,
                "velocity": 101,
                "duration": 0.06590909090909136,
                "tempo": 120.0
            },
            {
                "start_time": 13.929545454545455,
                "end_time": 13.995454545454544,
                "pitch": 39,
                "velocity": 101,
                "duration": 0.06590909090908958,
                "tempo": 120.0
            },
            {
                "start_time": 14.029545454545454,
                "end_time": 14.097727272727273,
                "pitch": 51,
                "velocity": 101,
                "duration": 0.06818181818181834,
                "tempo": 120.0
            },
            {
                "start_time": 14.129545454545454,
                "end_time": 14.197727272727272,
                "pitch": 39,
                "velocity": 101,
                "duration": 0.06818181818181834,
                "tempo": 120.0
            },
            {
                "start_time": 14.23181818181818,
                "end_time": 14.297727272727272,
                "pitch": 39,
                "velocity": 101,
                "duration": 0.06590909090909136,
                "tempo": 120.0
            },
            {
                "start_time": 14.33181818181818,
                "end_time": 14.399999999999999,
                "pitch": 51,
                "velocity": 101,
                "duration": 0.06818181818181834,
                "tempo": 120.0
            },
            {
                "start_time": 14.431818181818182,
                "end_time": 14.5,
                "pitch": 41,
                "velocity": 101,
                "duration": 0.06818181818181834,
                "tempo": 120.0
            },
            {
                "start_time": 14.534090909090908,
                "end_time": 14.6,
                "pitch": 53,
                "velocity": 101,
                "duration": 0.06590909090909136,
                "tempo": 120.0
            },
            {
                "start_time": 14.634090909090908,
                "end_time": 14.7,
                "pitch": 41,
                "velocity": 101,
                "duration": 0.06590909090909136,
                "tempo": 120.0
            },
            {
                "start_time": 14.734090909090908,
                "end_time": 14.802272727272726,
                "pitch": 41,
                "velocity": 101,
                "duration": 0.06818181818181834,
                "tempo": 120.0
            },
            {
                "start_time": 14.834090909090909,
                "end_time": 14.899999999999999,
                "pitch": 53,
                "velocity": 101,
                "duration": 0.06590909090908958,
                "tempo": 120.0
            },
            {
                "start_time": 14.934090909090909,
                "end_time": 14.997727272727271,
                "pitch": 41,
                "velocity": 101,
                "duration": 0.0636363636363626,
                "tempo": 120.0
            },
            {
                "start_time": 15.031818181818181,
                "end_time": 15.097727272727273,
                "pitch": 41,
                "velocity": 101,
                "duration": 0.06590909090909136,
                "tempo": 120.0
            },
            {
                "start_time": 15.129545454545454,
                "end_time": 15.195454545454545,
                "pitch": 53,
                "velocity": 101,
                "duration": 0.06590909090909136,
                "tempo": 120.0
            },
            {
                "start_time": 15.227272727272727,
                "end_time": 15.295454545454545,
                "pitch": 44,
                "velocity": 101,
                "duration": 0.06818181818181834,
                "tempo": 120.0
            },
            {
                "start_time": 15.327272727272726,
                "end_time": 15.395454545454545,
                "pitch": 56,
                "velocity": 101,
                "duration": 0.06818181818181834,
                "tempo": 120.0
            },
            {
                "start_time": 15.429545454545455,
                "end_time": 15.495454545454544,
                "pitch": 44,
                "velocity": 101,
                "duration": 0.06590909090908958,
                "tempo": 120.0
            },
            {
                "start_time": 15.529545454545454,
                "end_time": 15.595454545454544,
                "pitch": 44,
                "velocity": 101,
                "duration": 0.06590909090908958,
                "tempo": 120.0
            },
            {
                "start_time": 15.629545454545454,
                "end_time": 15.697727272727272,
                "pitch": 56,
                "velocity": 101,
                "duration": 0.06818181818181834,
                "tempo": 120.0
            },
            {
                "start_time": 15.73181818181818,
                "end_time": 15.802272727272726,
                "pitch": 44,
                "velocity": 101,
                "duration": 0.07045454545454533,
                "tempo": 120.0
            },
            {
                "start_time": 15.836363636363636,
                "end_time": 15.904545454545454,
                "pitch": 44,
                "velocity": 101,
                "duration": 0.06818181818181834,
                "tempo": 120.0
            },
            {
                "start_time": 15.938636363636363,
                "end_time": 16.006818181818183,
                "pitch": 56,
                "velocity": 101,
                "duration": 0.06818181818182012,
                "tempo": 120.0
            },
            {
                "start_time": 16.04090909090909,
                "end_time": 16.10909090909091,
                "pitch": 36,
                "velocity": 101,
                "duration": 0.06818181818182012,
                "tempo": 120.0
            },
            {
                "start_time": 16.14090909090909,
                "end_time": 16.209090909090907,
                "pitch": 48,
                "velocity": 101,
                "duration": 0.06818181818181657,
                "tempo": 120.0
            },
            {
                "start_time": 16.243181818181817,
                "end_time": 16.30909090909091,
                "pitch": 36,
                "velocity": 101,
                "duration": 0.06590909090909136,
                "tempo": 120.0
            },
            {
                "start_time": 16.34318181818182,
                "end_time": 16.40909090909091,
                "pitch": 36,
                "velocity": 101,
                "duration": 0.06590909090909136,
                "tempo": 120.0
            },
            {
                "start_time": 16.443181818181817,
                "end_time": 16.511363636363637,
                "pitch": 48,
                "velocity": 101,
                "duration": 0.06818181818182012,
                "tempo": 120.0
            },
            {
                "start_time": 16.545454545454543,
                "end_time": 16.611363636363635,
                "pitch": 36,
                "velocity": 101,
                "duration": 0.06590909090909136,
                "tempo": 120.0
            },
            {
                "start_time": 16.645454545454545,
                "end_time": 16.711363636363636,
                "pitch": 36,
                "velocity": 101,
                "duration": 0.06590909090909136,
                "tempo": 120.0
            },
            {
                "start_time": 16.745454545454546,
                "end_time": 16.813636363636363,
                "pitch": 48,
                "velocity": 101,
                "duration": 0.06818181818181657,
                "tempo": 120.0
            },
            {
                "start_time": 16.845454545454544,
                "end_time": 16.913636363636364,
                "pitch": 39,
                "velocity": 101,
                "duration": 0.06818181818182012,
                "tempo": 120.0
            },
            {
                "start_time": 16.945454545454545,
                "end_time": 17.013636363636362,
                "pitch": 51,
                "velocity": 101,
                "duration": 0.06818181818181657,
                "tempo": 120.0
            },
            {
                "start_time": 17.045454545454543,
                "end_time": 17.113636363636363,
                "pitch": 39,
                "velocity": 101,
                "duration": 0.06818181818182012,
                "tempo": 120.0
            },
            {
                "start_time": 17.145454545454545,
                "end_time": 17.21363636363636,
                "pitch": 39,
                "velocity": 101,
                "duration": 0.06818181818181657,
                "tempo": 120.0
            },
            {
                "start_time": 17.245454545454546,
                "end_time": 17.313636363636363,
                "pitch": 51,
                "velocity": 101,
                "duration": 0.06818181818181657,
                "tempo": 120.0
            },
            {
                "start_time": 17.347727272727273,
                "end_time": 17.413636363636364,
                "pitch": 39,
                "velocity": 101,
                "duration": 0.06590909090909136,
                "tempo": 120.0
            },
            {
                "start_time": 17.44772727272727,
                "end_time": 17.51590909090909,
                "pitch": 39,
                "velocity": 101,
                "duration": 0.06818181818182012,
                "tempo": 120.0
            },
            {
                "start_time": 17.547727272727272,
                "end_time": 17.61590909090909,
                "pitch": 51,
                "velocity": 101,
                "duration": 0.06818181818181657,
                "tempo": 120.0
            },
            {
                "start_time": 17.65,
                "end_time": 17.71590909090909,
                "pitch": 41,
                "velocity": 101,
                "duration": 0.06590909090909136,
                "tempo": 120.0
            },
            {
                "start_time": 17.75,
                "end_time": 17.81590909090909,
                "pitch": 53,
                "velocity": 101,
                "duration": 0.06590909090909136,
                "tempo": 120.0
            },
            {
                "start_time": 17.849999999999998,
                "end_time": 17.91590909090909,
                "pitch": 41,
                "velocity": 101,
                "duration": 0.06590909090909136,
                "tempo": 120.0
            },
            {
                "start_time": 17.95,
                "end_time": 18.01590909090909,
                "pitch": 41,
                "velocity": 101,
                "duration": 0.06590909090909136,
                "tempo": 120.0
            },
            {
                "start_time": 18.05,
                "end_time": 18.11590909090909,
                "pitch": 53,
                "velocity": 101,
                "duration": 0.06590909090908781,
                "tempo": 120.0
            },
            {
                "start_time": 18.15,
                "end_time": 18.21590909090909,
                "pitch": 41,
                "velocity": 101,
                "duration": 0.06590909090909136,
                "tempo": 120.0
            },
            {
                "start_time": 18.25,
                "end_time": 18.31590909090909,
                "pitch": 41,
                "velocity": 101,
                "duration": 0.06590909090909136,
                "tempo": 120.0
            },
            {
                "start_time": 18.349999999999998,
                "end_time": 18.41590909090909,
                "pitch": 53,
                "velocity": 101,
                "duration": 0.06590909090909136,
                "tempo": 120.0
            },
            {
                "start_time": 18.45,
                "end_time": 18.513636363636362,
                "pitch": 44,
                "velocity": 101,
                "duration": 0.0636363636363626,
                "tempo": 120.0
            },
            {
                "start_time": 18.547727272727272,
                "end_time": 18.613636363636363,
                "pitch": 56,
                "velocity": 101,
                "duration": 0.06590909090909136,
                "tempo": 120.0
            },
            {
                "start_time": 18.645454545454545,
                "end_time": 18.711363636363636,
                "pitch": 44,
                "velocity": 101,
                "duration": 0.06590909090909136,
                "tempo": 120.0
            },
            {
                "start_time": 18.743181818181817,
                "end_time": 18.80909090909091,
                "pitch": 44,
                "velocity": 101,
                "duration": 0.06590909090909136,
                "tempo": 120.0
            },
            {
                "start_time": 18.84090909090909,
                "end_time": 18.909090909090907,
                "pitch": 56,
                "velocity": 101,
                "duration": 0.06818181818181657,
                "tempo": 120.0
            },
            {
                "start_time": 18.943181818181817,
                "end_time": 19.009090909090908,
                "pitch": 44,
                "velocity": 101,
                "duration": 0.06590909090909136,
                "tempo": 120.0
            },
            {
                "start_time": 19.043181818181818,
                "end_time": 19.10909090909091,
                "pitch": 44,
                "velocity": 101,
                "duration": 0.06590909090909136,
                "tempo": 120.0
            },
            {
                "start_time": 19.143181818181816,
                "end_time": 19.211363636363636,
                "pitch": 56,
                "velocity": 101,
                "duration": 0.06818181818182012,
                "tempo": 120.0
            },
            {
                "start_time": 19.243181818181817,
                "end_time": 19.311363636363634,
                "pitch": 36,
                "velocity": 101,
                "duration": 0.06818181818181657,
                "tempo": 120.0
            },
            {
                "start_time": 19.347727272727273,
                "end_time": 19.41590909090909,
                "pitch": 43,
                "velocity": 101,
                "duration": 0.06818181818181657,
                "tempo": 120.0
            },
            {
                "start_time": 19.45,
                "end_time": 19.518181818181816,
                "pitch": 36,
                "velocity": 101,
                "duration": 0.06818181818181657,
                "tempo": 120.0
            },
            {
                "start_time": 19.552272727272726,
                "end_time": 19.620454545454546,
                "pitch": 36,
                "velocity": 101,
                "duration": 0.06818181818182012,
                "tempo": 120.0
            },
            {
                "start_time": 19.654545454545453,
                "end_time": 19.720454545454544,
                "pitch": 44,
                "velocity": 101,
                "duration": 0.06590909090909136,
                "tempo": 120.0
            },
            {
                "start_time": 19.752272727272725,
                "end_time": 19.818181818181817,
                "pitch": 36,
                "velocity": 101,
                "duration": 0.06590909090909136,
                "tempo": 120.0
            },
            {
                "start_time": 19.849999999999998,
                "end_time": 19.91590909090909,
                "pitch": 36,
                "velocity": 101,
                "duration": 0.06590909090909136,
                "tempo": 120.0
            },
            {
                "start_time": 19.94772727272727,
                "end_time": 20.013636363636362,
                "pitch": 43,
                "velocity": 101,
                "duration": 0.06590909090909136,
                "tempo": 120.0
            },
            {
                "start_time": 20.047727272727272,
                "end_time": 20.113636363636363,
                "pitch": 36,
                "velocity": 101,
                "duration": 0.06590909090909136,
                "tempo": 120.0
            },
            {
                "start_time": 20.147727272727273,
                "end_time": 20.21363636363636,
                "pitch": 36,
                "velocity": 101,
                "duration": 0.06590909090908781,
                "tempo": 120.0
            },
            {
                "start_time": 20.24772727272727,
                "end_time": 20.31590909090909,
                "pitch": 41,
                "velocity": 101,
                "duration": 0.06818181818182012,
                "tempo": 120.0
            },
            {
                "start_time": 20.349999999999998,
                "end_time": 20.41590909090909,
                "pitch": 36,
                "velocity": 101,
                "duration": 0.06590909090909136,
                "tempo": 120.0
            },
            {
                "start_time": 20.45,
                "end_time": 20.51590909090909,
                "pitch": 39,
                "velocity": 101,
                "duration": 0.06590909090909136,
                "tempo": 120.0
            },
            {
                "start_time": 20.55,
                "end_time": 20.61590909090909,
                "pitch": 38,
                "velocity": 101,
                "duration": 0.06590909090908781,
                "tempo": 120.0
            },
            {
                "start_time": 20.65,
                "end_time": 20.71590909090909,
                "pitch": 39,
                "velocity": 101,
                "duration": 0.06590909090909136,
                "tempo": 120.0
            },
            {
                "start_time": 20.75,
                "end_time": 20.81590909090909,
                "pitch": 41,
                "velocity": 101,
                "duration": 0.06590909090909136,
                "tempo": 120.0
            },
            {
                "start_time": 20.849999999999998,
                "end_time": 20.91590909090909,
                "pitch": 36,
                "velocity": 101,
                "duration": 0.06590909090909136,
                "tempo": 120.0
            },
            {
                "start_time": 20.95,
                "end_time": 21.018181818181816,
                "pitch": 43,
                "velocity": 101,
                "duration": 0.06818181818181657,
                "tempo": 120.0
            },
            {
                "start_time": 21.05,
                "end_time": 21.118181818181817,
                "pitch": 36,
                "velocity": 101,
                "duration": 0.06818181818181657,
                "tempo": 120.0
            },
            {
                "start_time": 21.152272727272727,
                "end_time": 21.21818181818182,
                "pitch": 36,
                "velocity": 101,
                "duration": 0.06590909090909136,
                "tempo": 120.0
            },
            {
                "start_time": 21.252272727272725,
                "end_time": 21.318181818181817,
                "pitch": 44,
                "velocity": 101,
                "duration": 0.06590909090909136,
                "tempo": 120.0
            },
            {
                "start_time": 21.352272727272727,
                "end_time": 21.418181818181818,
                "pitch": 36,
                "velocity": 101,
                "duration": 0.06590909090909136,
                "tempo": 120.0
            },
            {
                "start_time": 21.452272727272724,
                "end_time": 21.518181818181816,
                "pitch": 36,
                "velocity": 101,
                "duration": 0.06590909090909136,
                "tempo": 120.0
            },
            {
                "start_time": 21.552272727272726,
                "end_time": 21.618181818181817,
                "pitch": 46,
                "velocity": 101,
                "duration": 0.06590909090909136,
                "tempo": 120.0
            },
            {
                "start_time": 21.652272727272727,
                "end_time": 21.71818181818182,
                "pitch": 36,
                "velocity": 101,
                "duration": 0.06590909090909136,
                "tempo": 120.0
            },
            {
                "start_time": 21.752272727272725,
                "end_time": 21.818181818181817,
                "pitch": 36,
                "velocity": 101,
                "duration": 0.06590909090909136,
                "tempo": 120.0
            },
            {
                "start_time": 21.852272727272727,
                "end_time": 21.918181818181818,
                "pitch": 48,
                "velocity": 101,
                "duration": 0.06590909090909136,
                "tempo": 120.0
            },
            {
                "start_time": 21.952272727272724,
                "end_time": 22.018181818181816,
                "pitch": 36,
                "velocity": 101,
                "duration": 0.06590909090909136,
                "tempo": 120.0
            },
            {
                "start_time": 22.052272727272726,
                "end_time": 22.120454545454546,
                "pitch": 46,
                "velocity": 101,
                "duration": 0.06818181818182012,
                "tempo": 120.0
            },
            {
                "start_time": 22.152272727272727,
                "end_time": 22.220454545454544,
                "pitch": 44,
                "velocity": 101,
                "duration": 0.06818181818181657,
                "tempo": 120.0
            },
            {
                "start_time": 22.254545454545454,
                "end_time": 22.320454545454545,
                "pitch": 43,
                "velocity": 101,
                "duration": 0.06590909090909136,
                "tempo": 120.0
            },
            {
                "start_time": 22.354545454545452,
                "end_time": 22.420454545454543,
                "pitch": 41,
                "velocity": 101,
                "duration": 0.06590909090909136,
                "tempo": 120.0
            },
            {
                "start_time": 22.454545454545453,
                "end_time": 22.522727272727273,
                "pitch": 36,
                "velocity": 101,
                "duration": 0.06818181818182012,
                "tempo": 120.0
            },
            {
                "start_time": 22.554545454545455,
                "end_time": 22.62272727272727,
                "pitch": 43,
                "velocity": 101,
                "duration": 0.06818181818181657,
                "tempo": 120.0
            },
            {
                "start_time": 22.654545454545453,
                "end_time": 22.722727272727273,
                "pitch": 36,
                "velocity": 101,
                "duration": 0.06818181818182012,
                "tempo": 120.0
            },
            {
                "start_time": 22.754545454545454,
                "end_time": 22.82272727272727,
                "pitch": 36,
                "velocity": 101,
                "duration": 0.06818181818181657,
                "tempo": 120.0
            },
            {
                "start_time": 22.854545454545452,
                "end_time": 22.922727272727272,
                "pitch": 44,
                "velocity": 101,
                "duration": 0.06818181818182012,
                "tempo": 120.0
            },
            {
                "start_time": 22.956818181818182,
                "end_time": 23.022727272727273,
                "pitch": 36,
                "velocity": 101,
                "duration": 0.06590909090909136,
                "tempo": 120.0
            },
            {
                "start_time": 23.05681818181818,
                "end_time": 23.12272727272727,
                "pitch": 36,
                "velocity": 101,
                "duration": 0.06590909090909136,
                "tempo": 120.0
            },
            {
                "start_time": 23.15681818181818,
                "end_time": 23.224999999999998,
                "pitch": 43,
                "velocity": 101,
                "duration": 0.06818181818181657,
                "tempo": 120.0
            },
            {
                "start_time": 23.25681818181818,
                "end_time": 23.325,
                "pitch": 36,
                "velocity": 101,
                "duration": 0.06818181818182012,
                "tempo": 120.0
            },
            {
                "start_time": 23.35681818181818,
                "end_time": 23.424999999999997,
                "pitch": 36,
                "velocity": 101,
                "duration": 0.06818181818181657,
                "tempo": 120.0
            },
            {
                "start_time": 23.456818181818182,
                "end_time": 23.525,
                "pitch": 41,
                "velocity": 101,
                "duration": 0.06818181818181657,
                "tempo": 120.0
            },
            {
                "start_time": 23.55681818181818,
                "end_time": 23.625,
                "pitch": 36,
                "velocity": 101,
                "duration": 0.06818181818182012,
                "tempo": 120.0
            },
            {
                "start_time": 23.65681818181818,
                "end_time": 23.724999999999998,
                "pitch": 39,
                "velocity": 101,
                "duration": 0.06818181818181657,
                "tempo": 120.0
            },
            {
                "start_time": 23.75681818181818,
                "end_time": 23.825,
                "pitch": 38,
                "velocity": 101,
                "duration": 0.06818181818182012,
                "tempo": 120.0
            },
            {
                "start_time": 23.85681818181818,
                "end_time": 23.924999999999997,
                "pitch": 39,
                "velocity": 101,
                "duration": 0.06818181818181657,
                "tempo": 120.0
            },
            {
                "start_time": 23.956818181818182,
                "end_time": 24.025,
                "pitch": 41,
                "velocity": 101,
                "duration": 0.06818181818181657,
                "tempo": 120.0
            },
            {
                "start_time": 24.05681818181818,
                "end_time": 24.125,
                "pitch": 36,
                "velocity": 101,
                "duration": 0.06818181818182012,
                "tempo": 120.0
            },
            {
                "start_time": 24.159090909090907,
                "end_time": 24.224999999999998,
                "pitch": 43,
                "velocity": 101,
                "duration": 0.06590909090909136,
                "tempo": 120.0
            },
            {
                "start_time": 24.259090909090908,
                "end_time": 24.327272727272724,
                "pitch": 36,
                "velocity": 101,
                "duration": 0.06818181818181657,
                "tempo": 120.0
            },
            {
                "start_time": 24.35909090909091,
                "end_time": 24.427272727272726,
                "pitch": 36,
                "velocity": 101,
                "duration": 0.06818181818181657,
                "tempo": 120.0
            },
            {
                "start_time": 24.461363636363636,
                "end_time": 24.527272727272727,
                "pitch": 44,
                "velocity": 101,
                "duration": 0.06590909090909136,
                "tempo": 120.0
            },
            {
                "start_time": 24.561363636363634,
                "end_time": 24.627272727272725,
                "pitch": 36,
                "velocity": 101,
                "duration": 0.06590909090909136,
                "tempo": 120.0
            },
            {
                "start_time": 24.661363636363635,
                "end_time": 24.727272727272727,
                "pitch": 36,
                "velocity": 101,
                "duration": 0.06590909090909136,
                "tempo": 120.0
            },
            {
                "start_time": 24.761363636363637,
                "end_time": 24.827272727272724,
                "pitch": 46,
                "velocity": 101,
                "duration": 0.06590909090908781,
                "tempo": 120.0
            },
            {
                "start_time": 24.861363636363635,
                "end_time": 24.927272727272726,
                "pitch": 36,
                "velocity": 101,
                "duration": 0.06590909090909136,
                "tempo": 120.0
            },
            {
                "start_time": 24.961363636363636,
                "end_time": 25.027272727272727,
                "pitch": 36,
                "velocity": 101,
                "duration": 0.06590909090909136,
                "tempo": 120.0
            },
            {
                "start_time": 25.061363636363634,
                "end_time": 25.129545454545454,
                "pitch": 48,
                "velocity": 101,
                "duration": 0.06818181818182012,
                "tempo": 120.0
            },
            {
                "start_time": 25.161363636363635,
                "end_time": 25.229545454545452,
                "pitch": 36,
                "velocity": 101,
                "duration": 0.06818181818181657,
                "tempo": 120.0
            },
            {
                "start_time": 25.263636363636362,
                "end_time": 25.329545454545453,
                "pitch": 46,
                "velocity": 101,
                "duration": 0.06590909090909136,
                "tempo": 120.0
            },
            {
                "start_time": 25.363636363636363,
                "end_time": 25.429545454545455,
                "pitch": 44,
                "velocity": 101,
                "duration": 0.06590909090909136,
                "tempo": 120.0
            },
            {
                "start_time": 25.46363636363636,
                "end_time": 25.529545454545453,
                "pitch": 43,
                "velocity": 101,
                "duration": 0.06590909090909136,
                "tempo": 120.0
            },
            {
                "start_time": 25.563636363636363,
                "end_time": 25.629545454545454,
                "pitch": 41,
                "velocity": 101,
                "duration": 0.06590909090909136,
                "tempo": 120.0
            }
        ],
        "Electric Guitar (clean)": [
            {
                "start_time": 0.015909090909090907,
                "end_time": 0.049999999999999996,
                "pitch": 67,
                "velocity": 20,
                "duration": 0.03409090909090909,
                "tempo": 120.0
            },
            {
                "start_time": 0.08409090909090909,
                "end_time": 0.15,
                "pitch": 60,
                "velocity": 20,
                "duration": 0.0659090909090909,
                "tempo": 120.0
            },
            {
                "start_time": 0.18409090909090908,
                "end_time": 0.25,
                "pitch": 60,
                "velocity": 20,
                "duration": 0.06590909090909092,
                "tempo": 120.0
            },
            {
                "start_time": 0.28409090909090906,
                "end_time": 0.35,
                "pitch": 67,
                "velocity": 20,
                "duration": 0.06590909090909092,
                "tempo": 120.0
            },
            {
                "start_time": 0.3840909090909091,
                "end_time": 0.4477272727272727,
                "pitch": 60,
                "velocity": 20,
                "duration": 0.0636363636363636,
                "tempo": 120.0
            },
            {
                "start_time": 0.4818181818181818,
                "end_time": 0.5477272727272727,
                "pitch": 60,
                "velocity": 20,
                "duration": 0.06590909090909092,
                "tempo": 120.0
            },
            {
                "start_time": 0.5795454545454545,
                "end_time": 0.6454545454545454,
                "pitch": 67,
                "velocity": 20,
                "duration": 0.06590909090909092,
                "tempo": 120.0
            },
            {
                "start_time": 0.6772727272727272,
                "end_time": 0.7431818181818182,
                "pitch": 60,
                "velocity": 20,
                "duration": 0.06590909090909092,
                "tempo": 120.0
            },
            {
                "start_time": 0.7749999999999999,
                "end_time": 0.8431818181818181,
                "pitch": 67,
                "velocity": 20,
                "duration": 0.06818181818181823,
                "tempo": 120.0
            },
            {
                "start_time": 0.8772727272727272,
                "end_time": 0.9454545454545454,
                "pitch": 60,
                "velocity": 20,
                "duration": 0.06818181818181823,
                "tempo": 120.0
            },
            {
                "start_time": 0.9795454545454545,
                "end_time": 1.0477272727272726,
                "pitch": 60,
                "velocity": 20,
                "duration": 0.06818181818181812,
                "tempo": 120.0
            },
            {
                "start_time": 1.0818181818181818,
                "end_time": 1.1522727272727271,
                "pitch": 67,
                "velocity": 20,
                "duration": 0.07045454545454533,
                "tempo": 120.0
            },
            {
                "start_time": 1.1863636363636363,
                "end_time": 1.2522727272727272,
                "pitch": 60,
                "velocity": 20,
                "duration": 0.06590909090909092,
                "tempo": 120.0
            },
            {
                "start_time": 1.284090909090909,
                "end_time": 1.3499999999999999,
                "pitch": 60,
                "velocity": 20,
                "duration": 0.06590909090909092,
                "tempo": 120.0
            },
            {
                "start_time": 1.3818181818181818,
                "end_time": 1.4477272727272728,
                "pitch": 67,
                "velocity": 20,
                "duration": 0.06590909090909092,
                "tempo": 120.0
            },
            {
                "start_time": 1.4795454545454545,
                "end_time": 1.5454545454545454,
                "pitch": 60,
                "velocity": 20,
                "duration": 0.06590909090909092,
                "tempo": 120.0
            },
            {
                "start_time": 1.5772727272727272,
                "end_time": 1.6454545454545453,
                "pitch": 67,
                "velocity": 20,
                "duration": 0.06818181818181812,
                "tempo": 120.0
            },
            {
                "start_time": 1.6795454545454545,
                "end_time": 1.7454545454545454,
                "pitch": 60,
                "velocity": 25,
                "duration": 0.06590909090909092,
                "tempo": 120.0
            },
            {
                "start_time": 1.7795454545454545,
                "end_time": 1.8454545454545455,
                "pitch": 60,
                "velocity": 25,
                "duration": 0.06590909090909092,
                "tempo": 120.0
            },
            {
                "start_time": 1.8795454545454544,
                "end_time": 1.9477272727272725,
                "pitch": 67,
                "velocity": 25,
                "duration": 0.06818181818181812,
                "tempo": 120.0
            },
            {
                "start_time": 1.9795454545454545,
                "end_time": 2.047727272727273,
                "pitch": 60,
                "velocity": 25,
                "duration": 0.06818181818181834,
                "tempo": 120.0
            },
            {
                "start_time": 2.0818181818181816,
                "end_time": 2.1477272727272725,
                "pitch": 60,
                "velocity": 25,
                "duration": 0.06590909090909092,
                "tempo": 120.0
            },
            {
                "start_time": 2.1818181818181817,
                "end_time": 2.2477272727272726,
                "pitch": 67,
                "velocity": 25,
                "duration": 0.06590909090909092,
                "tempo": 120.0
            },
            {
                "start_time": 2.2818181818181817,
                "end_time": 2.3477272727272727,
                "pitch": 60,
                "velocity": 25,
                "duration": 0.06590909090909092,
                "tempo": 120.0
            },
            {
                "start_time": 2.381818181818182,
                "end_time": 2.4477272727272728,
                "pitch": 67,
                "velocity": 25,
                "duration": 0.06590909090909092,
                "tempo": 120.0
            },
            {
                "start_time": 2.4818181818181815,
                "end_time": 2.5477272727272724,
                "pitch": 60,
                "velocity": 25,
                "duration": 0.06590909090909092,
                "tempo": 120.0
            },
            {
                "start_time": 2.5818181818181816,
                "end_time": 2.65,
                "pitch": 60,
                "velocity": 25,
                "duration": 0.06818181818181834,
                "tempo": 120.0
            },
            {
                "start_time": 2.6818181818181817,
                "end_time": 2.75,
                "pitch": 67,
                "velocity": 25,
                "duration": 0.06818181818181834,
                "tempo": 120.0
            },
            {
                "start_time": 2.784090909090909,
                "end_time": 2.8499999999999996,
                "pitch": 60,
                "velocity": 25,
                "duration": 0.06590909090909047,
                "tempo": 120.0
            },
            {
                "start_time": 2.884090909090909,
                "end_time": 2.9499999999999997,
                "pitch": 60,
                "velocity": 25,
                "duration": 0.06590909090909092,
                "tempo": 120.0
            },
            {
                "start_time": 2.984090909090909,
                "end_time": 3.05,
                "pitch": 67,
                "velocity": 25,
                "duration": 0.06590909090909092,
                "tempo": 120.0
            },
            {
                "start_time": 3.084090909090909,
                "end_time": 3.15,
                "pitch": 60,
                "velocity": 25,
                "duration": 0.06590909090909092,
                "tempo": 120.0
            },
            {
                "start_time": 3.184090909090909,
                "end_time": 3.25,
                "pitch": 67,
                "velocity": 25,
                "duration": 0.06590909090909092,
                "tempo": 120.0
            },
            {
                "start_time": 3.2840909090909087,
                "end_time": 3.3499999999999996,
                "pitch": 60,
                "velocity": 32,
                "duration": 0.06590909090909092,
                "tempo": 120.0
            },
            {
                "start_time": 3.384090909090909,
                "end_time": 3.4499999999999997,
                "pitch": 60,
                "velocity": 32,
                "duration": 0.06590909090909092,
                "tempo": 120.0
            },
            {
                "start_time": 3.484090909090909,
                "end_time": 3.55,
                "pitch": 67,
                "velocity": 32,
                "duration": 0.06590909090909092,
                "tempo": 120.0
            },
            {
                "start_time": 3.584090909090909,
                "end_time": 3.652272727272727,
                "pitch": 60,
                "velocity": 32,
                "duration": 0.0681818181818179,
                "tempo": 120.0
            },
            {
                "start_time": 3.686363636363636,
                "end_time": 3.7545454545454544,
                "pitch": 60,
                "velocity": 32,
                "duration": 0.06818181818181834,
                "tempo": 120.0
            },
            {
                "start_time": 3.7886363636363636,
                "end_time": 3.8568181818181815,
                "pitch": 67,
                "velocity": 32,
                "duration": 0.0681818181818179,
                "tempo": 120.0
            },
            {
                "start_time": 3.8909090909090907,
                "end_time": 3.959090909090909,
                "pitch": 60,
                "velocity": 32,
                "duration": 0.06818181818181834,
                "tempo": 120.0
            },
            {
                "start_time": 3.993181818181818,
                "end_time": 4.059090909090909,
                "pitch": 67,
                "velocity": 32,
                "duration": 0.06590909090909047,
                "tempo": 120.0
            },
            {
                "start_time": 4.093181818181818,
                "end_time": 4.156818181818181,
                "pitch": 60,
                "velocity": 32,
                "duration": 0.06363636363636349,
                "tempo": 120.0
            },
            {
                "start_time": 4.1909090909090905,
                "end_time": 4.254545454545454,
                "pitch": 60,
                "velocity": 32,
                "duration": 0.06363636363636349,
                "tempo": 120.0
            },
            {
                "start_time": 4.288636363636363,
                "end_time": 4.3545454545454545,
                "pitch": 67,
                "velocity": 32,
                "duration": 0.06590909090909136,
                "tempo": 120.0
            },
            {
                "start_time": 4.386363636363636,
                "end_time": 4.452272727272727,
                "pitch": 60,
                "velocity": 32,
                "duration": 0.06590909090909136,
                "tempo": 120.0
            },
            {
                "start_time": 4.486363636363636,
                "end_time": 4.552272727272727,
                "pitch": 60,
                "velocity": 32,
                "duration": 0.06590909090909047,
                "tempo": 120.0
            },
            {
                "start_time": 4.586363636363636,
                "end_time": 4.652272727272727,
                "pitch": 67,
                "velocity": 32,
                "duration": 0.06590909090909136,
                "tempo": 120.0
            },
            {
                "start_time": 4.6863636363636365,
                "end_time": 4.752272727272727,
                "pitch": 60,
                "velocity": 32,
                "duration": 0.06590909090909047,
                "tempo": 120.0
            },
            {
                "start_time": 4.786363636363636,
                "end_time": 4.852272727272727,
                "pitch": 67,
                "velocity": 32,
                "duration": 0.06590909090909047,
                "tempo": 120.0
            },
            {
                "start_time": 4.886363636363636,
                "end_time": 4.954545454545454,
                "pitch": 60,
                "velocity": 40,
                "duration": 0.06818181818181834,
                "tempo": 120.0
            },
            {
                "start_time": 4.988636363636363,
                "end_time": 5.054545454545455,
                "pitch": 60,
                "velocity": 40,
                "duration": 0.06590909090909136,
                "tempo": 120.0
            },
            {
                "start_time": 5.088636363636363,
                "end_time": 5.154545454545454,
                "pitch": 67,
                "velocity": 40,
                "duration": 0.06590909090909136,
                "tempo": 120.0
            },
            {
                "start_time": 5.1886363636363635,
                "end_time": 5.256818181818182,
                "pitch": 60,
                "velocity": 40,
                "duration": 0.06818181818181834,
                "tempo": 120.0
            },
            {
                "start_time": 5.288636363636363,
                "end_time": 5.3568181818181815,
                "pitch": 60,
                "velocity": 40,
                "duration": 0.06818181818181834,
                "tempo": 120.0
            },
            {
                "start_time": 5.390909090909091,
                "end_time": 5.456818181818181,
                "pitch": 67,
                "velocity": 40,
                "duration": 0.06590909090909047,
                "tempo": 120.0
            },
            {
                "start_time": 5.49090909090909,
                "end_time": 5.559090909090909,
                "pitch": 60,
                "velocity": 40,
                "duration": 0.06818181818181834,
                "tempo": 120.0
            },
            {
                "start_time": 5.590909090909091,
                "end_time": 5.656818181818181,
                "pitch": 67,
                "velocity": 40,
                "duration": 0.06590909090909047,
                "tempo": 120.0
            },
            {
                "start_time": 5.6886363636363635,
                "end_time": 5.754545454545454,
                "pitch": 60,
                "velocity": 40,
                "duration": 0.06590909090909047,
                "tempo": 120.0
            },
            {
                "start_time": 5.788636363636363,
                "end_time": 5.852272727272727,
                "pitch": 60,
                "velocity": 40,
                "duration": 0.06363636363636349,
                "tempo": 120.0
            },
            {
                "start_time": 5.886363636363636,
                "end_time": 5.949999999999999,
                "pitch": 67,
                "velocity": 40,
                "duration": 0.06363636363636349,
                "tempo": 120.0
            },
            {
                "start_time": 5.9840909090909085,
                "end_time": 6.052272727272727,
                "pitch": 60,
                "velocity": 40,
                "duration": 0.06818181818181834,
                "tempo": 120.0
            },
            {
                "start_time": 6.086363636363636,
                "end_time": 6.154545454545454,
                "pitch": 60,
                "velocity": 40,
                "duration": 0.06818181818181834,
                "tempo": 120.0
            },
            {
                "start_time": 6.1886363636363635,
                "end_time": 6.256818181818182,
                "pitch": 67,
                "velocity": 40,
                "duration": 0.06818181818181834,
                "tempo": 120.0
            },
            {
                "start_time": 6.290909090909091,
                "end_time": 6.3590909090909085,
                "pitch": 60,
                "velocity": 40,
                "duration": 0.06818181818181746,
                "tempo": 120.0
            },
            {
                "start_time": 6.393181818181818,
                "end_time": 6.459090909090909,
                "pitch": 67,
                "velocity": 40,
                "duration": 0.06590909090909136,
                "tempo": 120.0
            },
            {
                "start_time": 6.493181818181818,
                "end_time": 6.556818181818182,
                "pitch": 60,
                "velocity": 51,
                "duration": 0.06363636363636349,
                "tempo": 120.0
            },
            {
                "start_time": 6.590909090909091,
                "end_time": 6.654545454545454,
                "pitch": 60,
                "velocity": 51,
                "duration": 0.06363636363636349,
                "tempo": 120.0
            },
            {
                "start_time": 6.6886363636363635,
                "end_time": 6.754545454545454,
                "pitch": 67,
                "velocity": 51,
                "duration": 0.06590909090909047,
                "tempo": 120.0
            },
            {
                "start_time": 6.786363636363636,
                "end_time": 6.8545454545454545,
                "pitch": 60,
                "velocity": 51,
                "duration": 0.06818181818181834,
                "tempo": 120.0
            },
            {
                "start_time": 6.888636363636364,
                "end_time": 6.956818181818181,
                "pitch": 60,
                "velocity": 51,
                "duration": 0.06818181818181746,
                "tempo": 120.0
            },
            {
                "start_time": 6.99090909090909,
                "end_time": 7.059090909090909,
                "pitch": 67,
                "velocity": 51,
                "duration": 0.06818181818181834,
                "tempo": 120.0
            },
            {
                "start_time": 7.093181818181818,
                "end_time": 7.163636363636363,
                "pitch": 60,
                "velocity": 51,
                "duration": 0.07045454545454533,
                "tempo": 120.0
            },
            {
                "start_time": 7.197727272727272,
                "end_time": 7.263636363636364,
                "pitch": 70,
                "velocity": 51,
                "duration": 0.06590909090909136,
                "tempo": 120.0
            },
            {
                "start_time": 7.297727272727272,
                "end_time": 7.36590909090909,
                "pitch": 63,
                "velocity": 51,
                "duration": 0.06818181818181834,
                "tempo": 120.0
            },
            {
                "start_time": 7.3977272727272725,
                "end_time": 7.465909090909091,
                "pitch": 63,
                "velocity": 51,
                "duration": 0.06818181818181834,
                "tempo": 120.0
            },
            {
                "start_time": 7.5,
                "end_time": 7.5659090909090905,
                "pitch": 70,
                "velocity": 51,
                "duration": 0.06590909090909047,
                "tempo": 120.0
            },
            {
                "start_time": 7.6,
                "end_time": 7.66590909090909,
                "pitch": 63,
                "velocity": 51,
                "duration": 0.06590909090909047,
                "tempo": 120.0
            },
            {
                "start_time": 7.697727272727272,
                "end_time": 7.763636363636364,
                "pitch": 63,
                "velocity": 51,
                "duration": 0.06590909090909136,
                "tempo": 120.0
            },
            {
                "start_time": 7.795454545454545,
                "end_time": 7.861363636363636,
                "pitch": 70,
                "velocity": 51,
                "duration": 0.06590909090909136,
                "tempo": 120.0
            },
            {
                "start_time": 7.893181818181818,
                "end_time": 7.959090909090909,
                "pitch": 63,
                "velocity": 51,
                "duration": 0.06590909090909136,
                "tempo": 120.0
            },
            {
                "start_time": 7.99090909090909,
                "end_time": 8.059090909090909,
                "pitch": 69,
                "velocity": 51,
                "duration": 0.06818181818181834,
                "tempo": 120.0
            },
            {
                "start_time": 8.093181818181817,
                "end_time": 8.163636363636364,
                "pitch": 65,
                "velocity": 51,
                "duration": 0.0704545454545471,
                "tempo": 120.0
            },
            {
                "start_time": 8.197727272727272,
                "end_time": 8.26590909090909,
                "pitch": 65,
                "velocity": 51,
                "duration": 0.06818181818181834,
                "tempo": 120.0
            },
            {
                "start_time": 8.299999999999999,
                "end_time": 8.368181818181817,
                "pitch": 69,
                "velocity": 51,
                "duration": 0.06818181818181834,
                "tempo": 120.0
            },
            {
                "start_time": 8.402272727272727,
                "end_time": 8.470454545454546,
                "pitch": 65,
                "velocity": 51,
                "duration": 0.06818181818181834,
                "tempo": 120.0
            },
            {
                "start_time": 8.502272727272727,
                "end_time": 8.570454545454545,
                "pitch": 65,
                "velocity": 51,
                "duration": 0.06818181818181834,
                "tempo": 120.0
            },
            {
                "start_time": 8.604545454545454,
                "end_time": 8.670454545454545,
                "pitch": 69,
                "velocity": 51,
                "duration": 0.06590909090909136,
                "tempo": 120.0
            },
            {
                "start_time": 8.704545454545453,
                "end_time": 8.772727272727272,
                "pitch": 65,
                "velocity": 51,
                "duration": 0.06818181818181834,
                "tempo": 120.0
            },
            {
                "start_time": 8.804545454545455,
                "end_time": 8.870454545454544,
                "pitch": 72,
                "velocity": 51,
                "duration": 0.06590909090908958,
                "tempo": 120.0
            },
            {
                "start_time": 8.902272727272727,
                "end_time": 8.968181818181817,
                "pitch": 65,
                "velocity": 51,
                "duration": 0.06590909090908958,
                "tempo": 120.0
            },
            {
                "start_time": 9.002272727272727,
                "end_time": 9.06590909090909,
                "pitch": 65,
                "velocity": 51,
                "duration": 0.0636363636363626,
                "tempo": 120.0
            },
            {
                "start_time": 9.1,
                "end_time": 9.163636363636364,
                "pitch": 72,
                "velocity": 51,
                "duration": 0.06363636363636438,
                "tempo": 120.0
            },
            {
                "start_time": 9.197727272727272,
                "end_time": 9.26590909090909,
                "pitch": 65,
                "velocity": 51,
                "duration": 0.06818181818181834,
                "tempo": 120.0
            },
            {
                "start_time": 9.299999999999999,
                "end_time": 9.368181818181817,
                "pitch": 65,
                "velocity": 51,
                "duration": 0.06818181818181834,
                "tempo": 120.0
            },
            {
                "start_time": 9.402272727272727,
                "end_time": 9.470454545454546,
                "pitch": 72,
                "velocity": 51,
                "duration": 0.06818181818181834,
                "tempo": 120.0
            },
            {
                "start_time": 9.504545454545454,
                "end_time": 9.572727272727272,
                "pitch": 65,
                "velocity": 51,
                "duration": 0.06818181818181834,
                "tempo": 120.0
            },
            {
                "start_time": 9.60909090909091,
                "end_time": 9.674999999999999,
                "pitch": 67,
                "velocity": 51,
                "duration": 0.06590909090908958,
                "tempo": 120.0
            },
            {
                "start_time": 9.709090909090909,
                "end_time": 9.775,
                "pitch": 60,
                "velocity": 51,
                "duration": 0.06590909090909136,
                "tempo": 120.0
            },
            {
                "start_time": 9.809090909090909,
                "end_time": 9.877272727272727,
                "pitch": 60,
                "velocity": 51,
                "duration": 0.06818181818181834,
                "tempo": 120.0
            },
            {
                "start_time": 9.909090909090908,
                "end_time": 9.977272727272727,
                "pitch": 67,
                "velocity": 51,
                "duration": 0.06818181818181834,
                "tempo": 120.0
            },
            {
                "start_time": 10.011363636363637,
                "end_time": 10.077272727272726,
                "pitch": 60,
                "velocity": 51,
                "duration": 0.06590909090908958,
                "tempo": 120.0
            },
            {
                "start_time": 10.111363636363636,
                "end_time": 10.179545454545455,
                "pitch": 60,
                "velocity": 51,
                "duration": 0.06818181818181834,
                "tempo": 120.0
            },
            {
                "start_time": 10.211363636363636,
                "end_time": 10.279545454545454,
                "pitch": 67,
                "velocity": 51,
                "duration": 0.06818181818181834,
                "tempo": 120.0
            },
            {
                "start_time": 10.313636363636363,
                "end_time": 10.379545454545454,
                "pitch": 60,
                "velocity": 51,
                "duration": 0.06590909090909136,
                "tempo": 120.0
            },
            {
                "start_time": 10.413636363636362,
                "end_time": 10.479545454545454,
                "pitch": 70,
                "velocity": 51,
                "duration": 0.06590909090909136,
                "tempo": 120.0
            },
            {
                "start_time": 10.513636363636364,
                "end_time": 10.581818181818182,
                "pitch": 63,
                "velocity": 51,
                "duration": 0.06818181818181834,
                "tempo": 120.0
            },
            {
                "start_time": 10.61590909090909,
                "end_time": 10.681818181818182,
                "pitch": 63,
                "velocity": 51,
                "duration": 0.06590909090909136,
                "tempo": 120.0
            },
            {
                "start_time": 10.71590909090909,
                "end_time": 10.781818181818181,
                "pitch": 70,
                "velocity": 51,
                "duration": 0.06590909090909136,
                "tempo": 120.0
            },
            {
                "start_time": 10.81590909090909,
                "end_time": 10.881818181818181,
                "pitch": 63,
                "velocity": 51,
                "duration": 0.06590909090909136,
                "tempo": 120.0
            },
            {
                "start_time": 10.913636363636362,
                "end_time": 10.979545454545454,
                "pitch": 63,
                "velocity": 51,
                "duration": 0.06590909090909136,
                "tempo": 120.0
            },
            {
                "start_time": 11.011363636363637,
                "end_time": 11.077272727272726,
                "pitch": 70,
                "velocity": 51,
                "duration": 0.06590909090908958,
                "tempo": 120.0
            },
            {
                "start_time": 11.10909090909091,
                "end_time": 11.174999999999999,
                "pitch": 63,
                "velocity": 51,
                "duration": 0.06590909090908958,
                "tempo": 120.0
            },
            {
                "start_time": 11.209090909090909,
                "end_time": 11.277272727272727,
                "pitch": 69,
                "velocity": 51,
                "duration": 0.06818181818181834,
                "tempo": 120.0
            },
            {
                "start_time": 11.311363636363636,
                "end_time": 11.379545454545454,
                "pitch": 65,
                "velocity": 51,
                "duration": 0.06818181818181834,
                "tempo": 120.0
            },
            {
                "start_time": 11.413636363636362,
                "end_time": 11.48181818181818,
                "pitch": 65,
                "velocity": 51,
                "duration": 0.06818181818181834,
                "tempo": 120.0
            },
            {
                "start_time": 11.51590909090909,
                "end_time": 11.584090909090909,
                "pitch": 69,
                "velocity": 51,
                "duration": 0.06818181818181834,
                "tempo": 120.0
            },
            {
                "start_time": 11.618181818181817,
                "end_time": 11.686363636363636,
                "pitch": 65,
                "velocity": 51,
                "duration": 0.06818181818181834,
                "tempo": 120.0
            },
            {
                "start_time": 11.720454545454546,
                "end_time": 11.786363636363635,
                "pitch": 65,
                "velocity": 51,
                "duration": 0.06590909090908958,
                "tempo": 120.0
            },
            {
                "start_time": 11.820454545454545,
                "end_time": 11.886363636363635,
                "pitch": 69,
                "velocity": 51,
                "duration": 0.06590909090908958,
                "tempo": 120.0
            },
            {
                "start_time": 11.920454545454545,
                "end_time": 11.988636363636363,
                "pitch": 65,
                "velocity": 51,
                "duration": 0.06818181818181834,
                "tempo": 120.0
            },
            {
                "start_time": 12.022727272727272,
                "end_time": 12.086363636363636,
                "pitch": 72,
                "velocity": 51,
                "duration": 0.06363636363636438,
                "tempo": 120.0
            },
            {
                "start_time": 12.120454545454544,
                "end_time": 12.184090909090909,
                "pitch": 65,
                "velocity": 51,
                "duration": 0.06363636363636438,
                "tempo": 120.0
            },
            {
                "start_time": 12.218181818181817,
                "end_time": 12.284090909090908,
                "pitch": 65,
                "velocity": 51,
                "duration": 0.06590909090909136,
                "tempo": 120.0
            },
            {
                "start_time": 12.31590909090909,
                "end_time": 12.381818181818181,
                "pitch": 72,
                "velocity": 51,
                "duration": 0.06590909090909136,
                "tempo": 120.0
            },
            {
                "start_time": 12.413636363636362,
                "end_time": 12.48181818181818,
                "pitch": 65,
                "velocity": 51,
                "duration": 0.06818181818181834,
                "tempo": 120.0
            },
            {
                "start_time": 12.51590909090909,
                "end_time": 12.584090909090909,
                "pitch": 65,
                "velocity": 51,
                "duration": 0.06818181818181834,
                "tempo": 120.0
            },
            {
                "start_time": 12.618181818181817,
                "end_time": 12.686363636363636,
                "pitch": 72,
                "velocity": 51,
                "duration": 0.06818181818181834,
                "tempo": 120.0
            },
            {
                "start_time": 12.722727272727273,
                "end_time": 12.790909090909091,
                "pitch": 65,
                "velocity": 51,
                "duration": 0.06818181818181834,
                "tempo": 120.0
            },
            {
                "start_time": 12.825,
                "end_time": 12.89090909090909,
                "pitch": 67,
                "velocity": 51,
                "duration": 0.06590909090909136,
                "tempo": 120.0
            },
            {
                "start_time": 12.924999999999999,
                "end_time": 12.99090909090909,
                "pitch": 60,
                "velocity": 51,
                "duration": 0.06590909090909136,
                "tempo": 120.0
            },
            {
                "start_time": 13.024999999999999,
                "end_time": 13.09090909090909,
                "pitch": 60,
                "velocity": 51,
                "duration": 0.06590909090909136,
                "tempo": 120.0
            },
            {
                "start_time": 13.125,
                "end_time": 13.19090909090909,
                "pitch": 67,
                "velocity": 51,
                "duration": 0.06590909090908958,
                "tempo": 120.0
            },
            {
                "start_time": 13.225,
                "end_time": 13.290909090909091,
                "pitch": 60,
                "velocity": 51,
                "duration": 0.06590909090909136,
                "tempo": 120.0
            },
            {
                "start_time": 13.325,
                "end_time": 13.393181818181818,
                "pitch": 60,
                "velocity": 51,
                "duration": 0.06818181818181834,
                "tempo": 120.0
            },
            {
                "start_time": 13.424999999999999,
                "end_time": 13.493181818181817,
                "pitch": 67,
                "velocity": 51,
                "duration": 0.06818181818181834,
                "tempo": 120.0
            },
            {
                "start_time": 13.527272727272727,
                "end_time": 13.593181818181817,
                "pitch": 60,
                "velocity": 51,
                "duration": 0.06590909090908958,
                "tempo": 120.0
            },
            {
                "start_time": 13.627272727272727,
                "end_time": 13.695454545454545,
                "pitch": 70,
                "velocity": 51,
                "duration": 0.06818181818181834,
                "tempo": 120.0
            },
            {
                "start_time": 13.727272727272727,
                "end_time": 13.795454545454545,
                "pitch": 63,
                "velocity": 51,
                "duration": 0.06818181818181834,
                "tempo": 120.0
            },
            {
                "start_time": 13.829545454545453,
                "end_time": 13.895454545454545,
                "pitch": 63,
                "velocity": 51,
                "duration": 0.06590909090909136,
                "tempo": 120.0
            },
            {
                "start_time": 13.929545454545455,
                "end_time": 13.995454545454544,
                "pitch": 70,
                "velocity": 51,
                "duration": 0.06590909090908958,
                "tempo": 120.0
            },
            {
                "start_time": 14.029545454545454,
                "end_time": 14.097727272727273,
                "pitch": 63,
                "velocity": 51,
                "duration": 0.06818181818181834,
                "tempo": 120.0
            },
            {
                "start_time": 14.129545454545454,
                "end_time": 14.197727272727272,
                "pitch": 63,
                "velocity": 51,
                "duration": 0.06818181818181834,
                "tempo": 120.0
            },
            {
                "start_time": 14.23181818181818,
                "end_time": 14.297727272727272,
                "pitch": 70,
                "velocity": 51,
                "duration": 0.06590909090909136,
                "tempo": 120.0
            },
            {
                "start_time": 14.33181818181818,
                "end_time": 14.399999999999999,
                "pitch": 63,
                "velocity": 51,
                "duration": 0.06818181818181834,
                "tempo": 120.0
            },
            {
                "start_time": 14.431818181818182,
                "end_time": 14.5,
                "pitch": 69,
                "velocity": 51,
                "duration": 0.06818181818181834,
                "tempo": 120.0
            },
            {
                "start_time": 14.534090909090908,
                "end_time": 14.6,
                "pitch": 65,
                "velocity": 51,
                "duration": 0.06590909090909136,
                "tempo": 120.0
            },
            {
                "start_time": 14.634090909090908,
                "end_time": 14.7,
                "pitch": 65,
                "velocity": 51,
                "duration": 0.06590909090909136,
                "tempo": 120.0
            },
            {
                "start_time": 14.734090909090908,
                "end_time": 14.802272727272726,
                "pitch": 69,
                "velocity": 51,
                "duration": 0.06818181818181834,
                "tempo": 120.0
            },
            {
                "start_time": 14.834090909090909,
                "end_time": 14.899999999999999,
                "pitch": 65,
                "velocity": 51,
                "duration": 0.06590909090908958,
                "tempo": 120.0
            },
            {
                "start_time": 14.934090909090909,
                "end_time": 14.997727272727271,
                "pitch": 65,
                "velocity": 51,
                "duration": 0.0636363636363626,
                "tempo": 120.0
            },
            {
                "start_time": 15.031818181818181,
                "end_time": 15.097727272727273,
                "pitch": 69,
                "velocity": 51,
                "duration": 0.06590909090909136,
                "tempo": 120.0
            },
            {
                "start_time": 15.129545454545454,
                "end_time": 15.195454545454545,
                "pitch": 65,
                "velocity": 51,
                "duration": 0.06590909090909136,
                "tempo": 120.0
            },
            {
                "start_time": 15.227272727272727,
                "end_time": 15.295454545454545,
                "pitch": 72,
                "velocity": 51,
                "duration": 0.06818181818181834,
                "tempo": 120.0
            },
            {
                "start_time": 15.327272727272726,
                "end_time": 15.395454545454545,
                "pitch": 65,
                "velocity": 51,
                "duration": 0.06818181818181834,
                "tempo": 120.0
            },
            {
                "start_time": 15.429545454545455,
                "end_time": 15.495454545454544,
                "pitch": 65,
                "velocity": 51,
                "duration": 0.06590909090908958,
                "tempo": 120.0
            },
            {
                "start_time": 15.529545454545454,
                "end_time": 15.595454545454544,
                "pitch": 72,
                "velocity": 51,
                "duration": 0.06590909090908958,
                "tempo": 120.0
            },
            {
                "start_time": 15.629545454545454,
                "end_time": 15.697727272727272,
                "pitch": 65,
                "velocity": 51,
                "duration": 0.06818181818181834,
                "tempo": 120.0
            },
            {
                "start_time": 15.73181818181818,
                "end_time": 15.802272727272726,
                "pitch": 65,
                "velocity": 51,
                "duration": 0.07045454545454533,
                "tempo": 120.0
            },
            {
                "start_time": 15.836363636363636,
                "end_time": 15.904545454545454,
                "pitch": 72,
                "velocity": 51,
                "duration": 0.06818181818181834,
                "tempo": 120.0
            },
            {
                "start_time": 15.938636363636363,
                "end_time": 16.006818181818183,
                "pitch": 65,
                "velocity": 51,
                "duration": 0.06818181818182012,
                "tempo": 120.0
            },
            {
                "start_time": 16.04090909090909,
                "end_time": 16.10909090909091,
                "pitch": 67,
                "velocity": 51,
                "duration": 0.06818181818182012,
                "tempo": 120.0
            },
            {
                "start_time": 16.14090909090909,
                "end_time": 16.209090909090907,
                "pitch": 60,
                "velocity": 51,
                "duration": 0.06818181818181657,
                "tempo": 120.0
            },
            {
                "start_time": 16.243181818181817,
                "end_time": 16.30909090909091,
                "pitch": 60,
                "velocity": 51,
                "duration": 0.06590909090909136,
                "tempo": 120.0
            },
            {
                "start_time": 16.34318181818182,
                "end_time": 16.40909090909091,
                "pitch": 67,
                "velocity": 51,
                "duration": 0.06590909090909136,
                "tempo": 120.0
            },
            {
                "start_time": 16.443181818181817,
                "end_time": 16.511363636363637,
                "pitch": 60,
                "velocity": 51,
                "duration": 0.06818181818182012,
                "tempo": 120.0
            },
            {
                "start_time": 16.545454545454543,
                "end_time": 16.611363636363635,
                "pitch": 60,
                "velocity": 51,
                "duration": 0.06590909090909136,
                "tempo": 120.0
            },
            {
                "start_time": 16.645454545454545,
                "end_time": 16.711363636363636,
                "pitch": 67,
                "velocity": 51,
                "duration": 0.06590909090909136,
                "tempo": 120.0
            },
            {
                "start_time": 16.745454545454546,
                "end_time": 16.813636363636363,
                "pitch": 60,
                "velocity": 51,
                "duration": 0.06818181818181657,
                "tempo": 120.0
            },
            {
                "start_time": 16.845454545454544,
                "end_time": 16.913636363636364,
                "pitch": 70,
                "velocity": 51,
                "duration": 0.06818181818182012,
                "tempo": 120.0
            },
            {
                "start_time": 16.945454545454545,
                "end_time": 17.013636363636362,
                "pitch": 63,
                "velocity": 51,
                "duration": 0.06818181818181657,
                "tempo": 120.0
            },
            {
                "start_time": 17.045454545454543,
                "end_time": 17.113636363636363,
                "pitch": 63,
                "velocity": 51,
                "duration": 0.06818181818182012,
                "tempo": 120.0
            },
            {
                "start_time": 17.145454545454545,
                "end_time": 17.21363636363636,
                "pitch": 70,
                "velocity": 51,
                "duration": 0.06818181818181657,
                "tempo": 120.0
            },
            {
                "start_time": 17.245454545454546,
                "end_time": 17.313636363636363,
                "pitch": 63,
                "velocity": 51,
                "duration": 0.06818181818181657,
                "tempo": 120.0
            },
            {
                "start_time": 17.347727272727273,
                "end_time": 17.413636363636364,
                "pitch": 63,
                "velocity": 51,
                "duration": 0.06590909090909136,
                "tempo": 120.0
            },
            {
                "start_time": 17.44772727272727,
                "end_time": 17.51590909090909,
                "pitch": 70,
                "velocity": 51,
                "duration": 0.06818181818182012,
                "tempo": 120.0
            },
            {
                "start_time": 17.547727272727272,
                "end_time": 17.61590909090909,
                "pitch": 63,
                "velocity": 51,
                "duration": 0.06818181818181657,
                "tempo": 120.0
            },
            {
                "start_time": 17.65,
                "end_time": 17.71590909090909,
                "pitch": 69,
                "velocity": 51,
                "duration": 0.06590909090909136,
                "tempo": 120.0
            },
            {
                "start_time": 17.75,
                "end_time": 17.81590909090909,
                "pitch": 65,
                "velocity": 51,
                "duration": 0.06590909090909136,
                "tempo": 120.0
            },
            {
                "start_time": 17.849999999999998,
                "end_time": 17.91590909090909,
                "pitch": 65,
                "velocity": 51,
                "duration": 0.06590909090909136,
                "tempo": 120.0
            },
            {
                "start_time": 17.95,
                "end_time": 18.01590909090909,
                "pitch": 69,
                "velocity": 51,
                "duration": 0.06590909090909136,
                "tempo": 120.0
            },
            {
                "start_time": 18.05,
                "end_time": 18.11590909090909,
                "pitch": 65,
                "velocity": 51,
                "duration": 0.06590909090908781,
                "tempo": 120.0
            },
            {
                "start_time": 18.15,
                "end_time": 18.21590909090909,
                "pitch": 65,
                "velocity": 51,
                "duration": 0.06590909090909136,
                "tempo": 120.0
            },
            {
                "start_time": 18.25,
                "end_time": 18.31590909090909,
                "pitch": 69,
                "velocity": 51,
                "duration": 0.06590909090909136,
                "tempo": 120.0
            },
            {
                "start_time": 18.349999999999998,
                "end_time": 18.41590909090909,
                "pitch": 65,
                "velocity": 51,
                "duration": 0.06590909090909136,
                "tempo": 120.0
            },
            {
                "start_time": 18.45,
                "end_time": 18.513636363636362,
                "pitch": 72,
                "velocity": 51,
                "duration": 0.0636363636363626,
                "tempo": 120.0
            },
            {
                "start_time": 18.547727272727272,
                "end_time": 18.613636363636363,
                "pitch": 65,
                "velocity": 51,
                "duration": 0.06590909090909136,
                "tempo": 120.0
            },
            {
                "start_time": 18.645454545454545,
                "end_time": 18.711363636363636,
                "pitch": 65,
                "velocity": 51,
                "duration": 0.06590909090909136,
                "tempo": 120.0
            },
            {
                "start_time": 18.743181818181817,
                "end_time": 18.80909090909091,
                "pitch": 72,
                "velocity": 51,
                "duration": 0.06590909090909136,
                "tempo": 120.0
            },
            {
                "start_time": 18.84090909090909,
                "end_time": 18.909090909090907,
                "pitch": 65,
                "velocity": 51,
                "duration": 0.06818181818181657,
                "tempo": 120.0
            },
            {
                "start_time": 18.943181818181817,
                "end_time": 19.009090909090908,
                "pitch": 65,
                "velocity": 51,
                "duration": 0.06590909090909136,
                "tempo": 120.0
            },
            {
                "start_time": 19.043181818181818,
                "end_time": 19.10909090909091,
                "pitch": 72,
                "velocity": 51,
                "duration": 0.06590909090909136,
                "tempo": 120.0
            },
            {
                "start_time": 19.143181818181816,
                "end_time": 19.211363636363636,
                "pitch": 65,
                "velocity": 51,
                "duration": 0.06818181818182012,
                "tempo": 120.0
            },
            {
                "start_time": 19.243181818181817,
                "end_time": 19.311363636363634,
                "pitch": 67,
                "velocity": 51,
                "duration": 0.06818181818181657,
                "tempo": 120.0
            },
            {
                "start_time": 19.347727272727273,
                "end_time": 19.41590909090909,
                "pitch": 60,
                "velocity": 51,
                "duration": 0.06818181818181657,
                "tempo": 120.0
            },
            {
                "start_time": 19.45,
                "end_time": 19.518181818181816,
                "pitch": 60,
                "velocity": 51,
                "duration": 0.06818181818181657,
                "tempo": 120.0
            },
            {
                "start_time": 19.552272727272726,
                "end_time": 19.620454545454546,
                "pitch": 67,
                "velocity": 51,
                "duration": 0.06818181818182012,
                "tempo": 120.0
            },
            {
                "start_time": 19.654545454545453,
                "end_time": 19.720454545454544,
                "pitch": 60,
                "velocity": 51,
                "duration": 0.06590909090909136,
                "tempo": 120.0
            },
            {
                "start_time": 19.752272727272725,
                "end_time": 19.818181818181817,
                "pitch": 60,
                "velocity": 51,
                "duration": 0.06590909090909136,
                "tempo": 120.0
            },
            {
                "start_time": 19.849999999999998,
                "end_time": 19.91590909090909,
                "pitch": 67,
                "velocity": 51,
                "duration": 0.06590909090909136,
                "tempo": 120.0
            },
            {
                "start_time": 19.94772727272727,
                "end_time": 20.013636363636362,
                "pitch": 60,
                "velocity": 51,
                "duration": 0.06590909090909136,
                "tempo": 120.0
            },
            {
                "start_time": 20.047727272727272,
                "end_time": 20.113636363636363,
                "pitch": 67,
                "velocity": 51,
                "duration": 0.06590909090909136,
                "tempo": 120.0
            },
            {
                "start_time": 20.147727272727273,
                "end_time": 20.21363636363636,
                "pitch": 60,
                "velocity": 51,
                "duration": 0.06590909090908781,
                "tempo": 120.0
            },
            {
                "start_time": 20.24772727272727,
                "end_time": 20.31590909090909,
                "pitch": 60,
                "velocity": 51,
                "duration": 0.06818181818182012,
                "tempo": 120.0
            },
            {
                "start_time": 20.349999999999998,
                "end_time": 20.41590909090909,
                "pitch": 67,
                "velocity": 51,
                "duration": 0.06590909090909136,
                "tempo": 120.0
            },
            {
                "start_time": 20.45,
                "end_time": 20.51590909090909,
                "pitch": 60,
                "velocity": 51,
                "duration": 0.06590909090909136,
                "tempo": 120.0
            },
            {
                "start_time": 20.55,
                "end_time": 20.61590909090909,
                "pitch": 60,
                "velocity": 51,
                "duration": 0.06590909090908781,
                "tempo": 120.0
            },
            {
                "start_time": 20.65,
                "end_time": 20.71590909090909,
                "pitch": 67,
                "velocity": 51,
                "duration": 0.06590909090909136,
                "tempo": 120.0
            },
            {
                "start_time": 20.75,
                "end_time": 20.81590909090909,
                "pitch": 60,
                "velocity": 51,
                "duration": 0.06590909090909136,
                "tempo": 120.0
            },
            {
                "start_time": 20.849999999999998,
                "end_time": 20.91590909090909,
                "pitch": 67,
                "velocity": 51,
                "duration": 0.06590909090909136,
                "tempo": 120.0
            },
            {
                "start_time": 20.95,
                "end_time": 21.018181818181816,
                "pitch": 60,
                "velocity": 51,
                "duration": 0.06818181818181657,
                "tempo": 120.0
            },
            {
                "start_time": 21.05,
                "end_time": 21.118181818181817,
                "pitch": 60,
                "velocity": 51,
                "duration": 0.06818181818181657,
                "tempo": 120.0
            },
            {
                "start_time": 21.152272727272727,
                "end_time": 21.21818181818182,
                "pitch": 67,
                "velocity": 51,
                "duration": 0.06590909090909136,
                "tempo": 120.0
            },
            {
                "start_time": 21.252272727272725,
                "end_time": 21.318181818181817,
                "pitch": 60,
                "velocity": 51,
                "duration": 0.06590909090909136,
                "tempo": 120.0
            },
            {
                "start_time": 21.352272727272727,
                "end_time": 21.418181818181818,
                "pitch": 60,
                "velocity": 51,
                "duration": 0.06590909090909136,
                "tempo": 120.0
            },
            {
                "start_time": 21.452272727272724,
                "end_time": 21.518181818181816,
                "pitch": 67,
                "velocity": 51,
                "duration": 0.06590909090909136,
                "tempo": 120.0
            },
            {
                "start_time": 21.552272727272726,
                "end_time": 21.618181818181817,
                "pitch": 60,
                "velocity": 51,
                "duration": 0.06590909090909136,
                "tempo": 120.0
            },
            {
                "start_time": 21.652272727272727,
                "end_time": 21.71818181818182,
                "pitch": 67,
                "velocity": 51,
                "duration": 0.06590909090909136,
                "tempo": 120.0
            },
            {
                "start_time": 21.752272727272725,
                "end_time": 21.818181818181817,
                "pitch": 60,
                "velocity": 51,
                "duration": 0.06590909090909136,
                "tempo": 120.0
            },
            {
                "start_time": 21.852272727272727,
                "end_time": 21.918181818181818,
                "pitch": 60,
                "velocity": 51,
                "duration": 0.06590909090909136,
                "tempo": 120.0
            },
            {
                "start_time": 21.952272727272724,
                "end_time": 22.018181818181816,
                "pitch": 67,
                "velocity": 51,
                "duration": 0.06590909090909136,
                "tempo": 120.0
            },
            {
                "start_time": 22.052272727272726,
                "end_time": 22.120454545454546,
                "pitch": 60,
                "velocity": 51,
                "duration": 0.06818181818182012,
                "tempo": 120.0
            },
            {
                "start_time": 22.152272727272727,
                "end_time": 22.220454545454544,
                "pitch": 60,
                "velocity": 51,
                "duration": 0.06818181818181657,
                "tempo": 120.0
            },
            {
                "start_time": 22.254545454545454,
                "end_time": 22.320454545454545,
                "pitch": 67,
                "velocity": 51,
                "duration": 0.06590909090909136,
                "tempo": 120.0
            },
            {
                "start_time": 22.354545454545452,
                "end_time": 22.420454545454543,
                "pitch": 60,
                "velocity": 51,
                "duration": 0.06590909090909136,
                "tempo": 120.0
            },
            {
                "start_time": 22.454545454545453,
                "end_time": 22.522727272727273,
                "pitch": 67,
                "velocity": 51,
                "duration": 0.06818181818182012,
                "tempo": 120.0
            },
            {
                "start_time": 22.554545454545455,
                "end_time": 22.62272727272727,
                "pitch": 60,
                "velocity": 51,
                "duration": 0.06818181818181657,
                "tempo": 120.0
            },
            {
                "start_time": 22.654545454545453,
                "end_time": 22.722727272727273,
                "pitch": 60,
                "velocity": 51,
                "duration": 0.06818181818182012,
                "tempo": 120.0
            },
            {
                "start_time": 22.754545454545454,
                "end_time": 22.82272727272727,
                "pitch": 67,
                "velocity": 51,
                "duration": 0.06818181818181657,
                "tempo": 120.0
            },
            {
                "start_time": 22.854545454545452,
                "end_time": 22.922727272727272,
                "pitch": 60,
                "velocity": 51,
                "duration": 0.06818181818182012,
                "tempo": 120.0
            },
            {
                "start_time": 22.956818181818182,
                "end_time": 23.022727272727273,
                "pitch": 60,
                "velocity": 51,
                "duration": 0.06590909090909136,
                "tempo": 120.0
            },
            {
                "start_time": 23.05681818181818,
                "end_time": 23.12272727272727,
                "pitch": 67,
                "velocity": 51,
                "duration": 0.06590909090909136,
                "tempo": 120.0
            },
            {
                "start_time": 23.15681818181818,
                "end_time": 23.224999999999998,
                "pitch": 60,
                "velocity": 51,
                "duration": 0.06818181818181657,
                "tempo": 120.0
            },
            {
                "start_time": 23.25681818181818,
                "end_time": 23.325,
                "pitch": 67,
                "velocity": 51,
                "duration": 0.06818181818182012,
                "tempo": 120.0
            },
            {
                "start_time": 23.35681818181818,
                "end_time": 23.424999999999997,
                "pitch": 60,
                "velocity": 51,
                "duration": 0.06818181818181657,
                "tempo": 120.0
            },
            {
                "start_time": 23.456818181818182,
                "end_time": 23.525,
                "pitch": 60,
                "velocity": 51,
                "duration": 0.06818181818181657,
                "tempo": 120.0
            },
            {
                "start_time": 23.55681818181818,
                "end_time": 23.625,
                "pitch": 67,
                "velocity": 51,
                "duration": 0.06818181818182012,
                "tempo": 120.0
            },
            {
                "start_time": 23.65681818181818,
                "end_time": 23.724999999999998,
                "pitch": 60,
                "velocity": 51,
                "duration": 0.06818181818181657,
                "tempo": 120.0
            },
            {
                "start_time": 23.75681818181818,
                "end_time": 23.825,
                "pitch": 60,
                "velocity": 51,
                "duration": 0.06818181818182012,
                "tempo": 120.0
            },
            {
                "start_time": 23.85681818181818,
                "end_time": 23.924999999999997,
                "pitch": 67,
                "velocity": 51,
                "duration": 0.06818181818181657,
                "tempo": 120.0
            },
            {
                "start_time": 23.956818181818182,
                "end_time": 24.025,
                "pitch": 60,
                "velocity": 51,
                "duration": 0.06818181818181657,
                "tempo": 120.0
            },
            {
                "start_time": 24.05681818181818,
                "end_time": 24.125,
                "pitch": 67,
                "velocity": 51,
                "duration": 0.06818181818182012,
                "tempo": 120.0
            },
            {
                "start_time": 24.159090909090907,
                "end_time": 24.224999999999998,
                "pitch": 60,
                "velocity": 51,
                "duration": 0.06590909090909136,
                "tempo": 120.0
            },
            {
                "start_time": 24.259090909090908,
                "end_time": 24.327272727272724,
                "pitch": 60,
                "velocity": 51,
                "duration": 0.06818181818181657,
                "tempo": 120.0
            },
            {
                "start_time": 24.35909090909091,
                "end_time": 24.427272727272726,
                "pitch": 67,
                "velocity": 51,
                "duration": 0.06818181818181657,
                "tempo": 120.0
            },
            {
                "start_time": 24.461363636363636,
                "end_time": 24.527272727272727,
                "pitch": 60,
                "velocity": 51,
                "duration": 0.06590909090909136,
                "tempo": 120.0
            },
            {
                "start_time": 24.561363636363634,
                "end_time": 24.627272727272725,
                "pitch": 60,
                "velocity": 51,
                "duration": 0.06590909090909136,
                "tempo": 120.0
            },
            {
                "start_time": 24.661363636363635,
                "end_time": 24.727272727272727,
                "pitch": 67,
                "velocity": 51,
                "duration": 0.06590909090909136,
                "tempo": 120.0
            },
            {
                "start_time": 24.761363636363637,
                "end_time": 24.827272727272724,
                "pitch": 60,
                "velocity": 51,
                "duration": 0.06590909090908781,
                "tempo": 120.0
            },
            {
                "start_time": 24.861363636363635,
                "end_time": 24.927272727272726,
                "pitch": 67,
                "velocity": 51,
                "duration": 0.06590909090909136,
                "tempo": 120.0
            },
            {
                "start_time": 24.961363636363636,
                "end_time": 25.027272727272727,
                "pitch": 60,
                "velocity": 51,
                "duration": 0.06590909090909136,
                "tempo": 120.0
            },
            {
                "start_time": 25.061363636363634,
                "end_time": 25.129545454545454,
                "pitch": 60,
                "velocity": 51,
                "duration": 0.06818181818182012,
                "tempo": 120.0
            },
            {
                "start_time": 25.161363636363635,
                "end_time": 25.229545454545452,
                "pitch": 67,
                "velocity": 51,
                "duration": 0.06818181818181657,
                "tempo": 120.0
            },
            {
                "start_time": 25.263636363636362,
                "end_time": 25.329545454545453,
                "pitch": 60,
                "velocity": 51,
                "duration": 0.06590909090909136,
                "tempo": 120.0
            },
            {
                "start_time": 25.363636363636363,
                "end_time": 25.429545454545455,
                "pitch": 60,
                "velocity": 51,
                "duration": 0.06590909090909136,
                "tempo": 120.0
            },
            {
                "start_time": 25.46363636363636,
                "end_time": 25.529545454545453,
                "pitch": 67,
                "velocity": 51,
                "duration": 0.06590909090909136,
                "tempo": 120.0
            },
            {
                "start_time": 25.563636363636363,
                "end_time": 25.629545454545454,
                "pitch": 60,
                "velocity": 51,
                "duration": 0.06590909090909136,
                "tempo": 120.0
            }
        ]
    }
}