{
    "track_id": "Ys (FM) - 11 - Tower of the Shadow of Death",
    "mood": "angry",
    "instruments": {
        "Acoustic Bass": [
            {
                "start_time": 3.775,
                "end_time": 6.163636363636363,
                "pitch": 73,
                "velocity": 101,
                "duration": 2.3886363636363632,
                "tempo": 120.0
            },
            {
                "start_time": 6.179545454545455,
                "end_time": 7.118181818181818,
                "pitch": 61,
                "velocity": 101,
                "duration": 0.9386363636363635,
                "tempo": 120.0
            },
            {
                "start_time": 7.134090909090909,
                "end_time": 7.593181818181818,
                "pitch": 64,
                "velocity": 101,
                "duration": 0.459090909090909,
                "tempo": 120.0
            },
            {
                "start_time": 7.6090909090909085,
                "end_time": 8.438636363636363,
                "pitch": 68,
                "velocity": 101,
                "duration": 0.8295454545454541,
                "tempo": 120.0
            },
            {
                "start_time": 8.472727272727273,
                "end_time": 10.975,
                "pitch": 66,
                "velocity": 101,
                "duration": 2.502272727272727,
                "tempo": 120.0
            },
            {
                "start_time": 11.956818181818182,
                "end_time": 13.86590909090909,
                "pitch": 73,
                "velocity": 101,
                "duration": 1.9090909090909083,
                "tempo": 120.0
            },
            {
                "start_time": 13.899999999999999,
                "end_time": 14.352272727272727,
                "pitch": 76,
                "velocity": 101,
                "duration": 0.45227272727272805,
                "tempo": 120.0
            },
            {
                "start_time": 14.370454545454544,
                "end_time": 14.6,
                "pitch": 75,
                "velocity": 101,
                "duration": 0.22954545454545539,
                "tempo": 120.0
            },
            {
                "start_time": 14.61590909090909,
                "end_time": 14.713636363636363,
                "pitch": 74,
                "velocity": 101,
                "duration": 0.09772727272727266,
                "tempo": 120.0
            },
            {
                "start_time": 14.729545454545454,
                "end_time": 15.06590909090909,
                "pitch": 73,
                "velocity": 101,
                "duration": 0.336363636363636,
                "tempo": 120.0
            },
            {
                "start_time": 15.1,
                "end_time": 15.559090909090909,
                "pitch": 66,
                "velocity": 101,
                "duration": 0.459090909090909,
                "tempo": 120.0
            },
            {
                "start_time": 15.575,
                "end_time": 18.222727272727273,
                "pitch": 73,
                "velocity": 101,
                "duration": 2.6477272727272734,
                "tempo": 120.0
            },
            {
                "start_time": 19.19772727272727,
                "end_time": 19.427272727272726,
                "pitch": 61,
                "velocity": 101,
                "duration": 0.22954545454545539,
                "tempo": 120.0
            },
            {
                "start_time": 19.443181818181817,
                "end_time": 19.54090909090909,
                "pitch": 61,
                "velocity": 101,
                "duration": 0.09772727272727266,
                "tempo": 120.0
            },
            {
                "start_time": 19.55909090909091,
                "end_time": 19.888636363636362,
                "pitch": 61,
                "velocity": 101,
                "duration": 0.32954545454545325,
                "tempo": 120.0
            },
            {
                "start_time": 19.922727272727272,
                "end_time": 20.138636363636362,
                "pitch": 73,
                "velocity": 101,
                "duration": 0.21590909090908994,
                "tempo": 120.0
            },
            {
                "start_time": 20.15681818181818,
                "end_time": 20.375,
                "pitch": 66,
                "velocity": 101,
                "duration": 0.2181818181818187,
                "tempo": 120.0
            },
            {
                "start_time": 20.39090909090909,
                "end_time": 20.627272727272725,
                "pitch": 73,
                "velocity": 101,
                "duration": 0.23636363636363455,
                "tempo": 120.0
            },
            {
                "start_time": 20.643181818181816,
                "end_time": 21.349999999999998,
                "pitch": 71,
                "velocity": 101,
                "duration": 0.706818181818182,
                "tempo": 120.0
            },
            {
                "start_time": 21.36590909090909,
                "end_time": 21.584090909090907,
                "pitch": 69,
                "velocity": 101,
                "duration": 0.2181818181818187,
                "tempo": 120.0
            },
            {
                "start_time": 21.599999999999998,
                "end_time": 21.836363636363636,
                "pitch": 68,
                "velocity": 101,
                "duration": 0.2363636363636381,
                "tempo": 120.0
            },
            {
                "start_time": 21.852272727272727,
                "end_time": 22.070454545454545,
                "pitch": 64,
                "velocity": 101,
                "duration": 0.2181818181818187,
                "tempo": 120.0
            },
            {
                "start_time": 22.08863636363636,
                "end_time": 22.793181818181818,
                "pitch": 66,
                "velocity": 101,
                "duration": 0.7045454545454568,
                "tempo": 120.0
            },
            {
                "start_time": 22.811363636363634,
                "end_time": 23.045454545454543,
                "pitch": 64,
                "velocity": 101,
                "duration": 0.23409090909090935,
                "tempo": 120.0
            },
            {
                "start_time": 23.063636363636363,
                "end_time": 23.28181818181818,
                "pitch": 62,
                "velocity": 101,
                "duration": 0.2181818181818187,
                "tempo": 120.0
            },
            {
                "start_time": 23.297727272727272,
                "end_time": 23.51590909090909,
                "pitch": 64,
                "velocity": 101,
                "duration": 0.2181818181818187,
                "tempo": 120.0
            },
            {
                "start_time": 23.549999999999997,
                "end_time": 24.245454545454546,
                "pitch": 61,
                "velocity": 101,
                "duration": 0.6954545454545489,
                "tempo": 120.0
            },
            {
                "start_time": 24.261363636363637,
                "end_time": 24.474999999999998,
                "pitch": 61,
                "velocity": 101,
                "duration": 0.21363636363636118,
                "tempo": 120.0
            },
            {
                "start_time": 24.49090909090909,
                "end_time": 24.71363636363636,
                "pitch": 62,
                "velocity": 101,
                "duration": 0.22272727272727266,
                "tempo": 120.0
            },
            {
                "start_time": 24.74772727272727,
                "end_time": 24.970454545454544,
                "pitch": 64,
                "velocity": 101,
                "duration": 0.22272727272727266,
                "tempo": 120.0
            },
            {
                "start_time": 24.986363636363635,
                "end_time": 25.204545454545453,
                "pitch": 66,
                "velocity": 101,
                "duration": 0.2181818181818187,
                "tempo": 120.0
            },
            {
                "start_time": 25.222727272727273,
                "end_time": 25.32272727272727,
                "pitch": 66,
                "velocity": 101,
                "duration": 0.09999999999999787,
                "tempo": 120.0
            },
            {
                "start_time": 25.35681818181818,
                "end_time": 25.693181818181817,
                "pitch": 66,
                "velocity": 101,
                "duration": 0.336363636363636,
                "tempo": 120.0
            },
            {
                "start_time": 25.709090909090907,
                "end_time": 25.927272727272726,
                "pitch": 78,
                "velocity": 101,
                "duration": 0.2181818181818187,
                "tempo": 120.0
            },
            {
                "start_time": 25.961363636363636,
                "end_time": 26.18409090909091,
                "pitch": 71,
                "velocity": 101,
                "duration": 0.22272727272727266,
                "tempo": 120.0
            },
            {
                "start_time": 26.2,
                "end_time": 26.422727272727272,
                "pitch": 78,
                "velocity": 101,
                "duration": 0.22272727272727266,
                "tempo": 120.0
            },
            {
                "start_time": 26.438636363636363,
                "end_time": 27.129545454545454,
                "pitch": 76,
                "velocity": 101,
                "duration": 0.6909090909090914,
                "tempo": 120.0
            },
            {
                "start_time": 27.161363636363635,
                "end_time": 27.375,
                "pitch": 71,
                "velocity": 101,
                "duration": 0.21363636363636473,
                "tempo": 120.0
            },
            {
                "start_time": 27.39090909090909,
                "end_time": 27.613636363636363,
                "pitch": 73,
                "velocity": 101,
                "duration": 0.22272727272727266,
                "tempo": 120.0
            },
            {
                "start_time": 27.629545454545454,
                "end_time": 27.868181818181817,
                "pitch": 74,
                "velocity": 101,
                "duration": 0.2386363636363633,
                "tempo": 120.0
            },
            {
                "start_time": 27.886363636363637,
                "end_time": 28.59090909090909,
                "pitch": 76,
                "velocity": 101,
                "duration": 0.7045454545454533,
                "tempo": 120.0
            },
            {
                "start_time": 28.60909090909091,
                "end_time": 28.827272727272724,
                "pitch": 71,
                "velocity": 101,
                "duration": 0.21818181818181515,
                "tempo": 120.0
            },
            {
                "start_time": 28.843181818181815,
                "end_time": 29.079545454545453,
                "pitch": 73,
                "velocity": 101,
                "duration": 0.2363636363636381,
                "tempo": 120.0
            },
            {
                "start_time": 29.095454545454544,
                "end_time": 29.313636363636363,
                "pitch": 74,
                "velocity": 101,
                "duration": 0.2181818181818187,
                "tempo": 120.0
            },
            {
                "start_time": 29.331818181818182,
                "end_time": 32.21363636363636,
                "pitch": 76,
                "velocity": 101,
                "duration": 2.881818181818179,
                "tempo": 120.0
            }
        ],
        "Clarinet": [
            {
                "start_time": 3.893181818181818,
                "end_time": 3.993181818181818,
                "pitch": 68,
                "velocity": 51,
                "duration": 0.10000000000000009,
                "tempo": 120.0
            },
            {
                "start_time": 4.009090909090909,
                "end_time": 4.1090909090909085,
                "pitch": 73,
                "velocity": 51,
                "duration": 0.09999999999999964,
                "tempo": 120.0
            },
            {
                "start_time": 4.259090909090909,
                "end_time": 4.3590909090909085,
                "pitch": 75,
                "velocity": 51,
                "duration": 0.09999999999999964,
                "tempo": 120.0
            },
            {
                "start_time": 4.493181818181818,
                "end_time": 4.593181818181818,
                "pitch": 71,
                "velocity": 51,
                "duration": 0.09999999999999964,
                "tempo": 120.0
            },
            {
                "start_time": 4.6090909090909085,
                "end_time": 4.709090909090909,
                "pitch": 73,
                "velocity": 51,
                "duration": 0.10000000000000053,
                "tempo": 120.0
            },
            {
                "start_time": 4.8545454545454545,
                "end_time": 4.95,
                "pitch": 66,
                "velocity": 51,
                "duration": 0.09545454545454568,
                "tempo": 120.0
            },
            {
                "start_time": 4.965909090909091,
                "end_time": 5.0613636363636365,
                "pitch": 68,
                "velocity": 51,
                "duration": 0.09545454545454568,
                "tempo": 120.0
            },
            {
                "start_time": 5.1909090909090905,
                "end_time": 5.293181818181818,
                "pitch": 64,
                "velocity": 51,
                "duration": 0.10227272727272751,
                "tempo": 120.0
            },
            {
                "start_time": 5.309090909090909,
                "end_time": 5.411363636363636,
                "pitch": 63,
                "velocity": 51,
                "duration": 0.10227272727272751,
                "tempo": 120.0
            },
            {
                "start_time": 5.445454545454545,
                "end_time": 5.547727272727273,
                "pitch": 59,
                "velocity": 51,
                "duration": 0.10227272727272751,
                "tempo": 120.0
            },
            {
                "start_time": 5.5659090909090905,
                "end_time": 5.668181818181818,
                "pitch": 61,
                "velocity": 51,
                "duration": 0.10227272727272751,
                "tempo": 120.0
            },
            {
                "start_time": 5.804545454545455,
                "end_time": 5.906818181818181,
                "pitch": 68,
                "velocity": 51,
                "duration": 0.10227272727272663,
                "tempo": 120.0
            },
            {
                "start_time": 5.925,
                "end_time": 6.027272727272727,
                "pitch": 73,
                "velocity": 51,
                "duration": 0.10227272727272751,
                "tempo": 120.0
            },
            {
                "start_time": 6.179545454545455,
                "end_time": 6.279545454545454,
                "pitch": 75,
                "velocity": 51,
                "duration": 0.09999999999999964,
                "tempo": 120.0
            },
            {
                "start_time": 6.413636363636363,
                "end_time": 6.513636363636364,
                "pitch": 71,
                "velocity": 51,
                "duration": 0.10000000000000053,
                "tempo": 120.0
            },
            {
                "start_time": 6.529545454545454,
                "end_time": 6.629545454545454,
                "pitch": 73,
                "velocity": 51,
                "duration": 0.09999999999999964,
                "tempo": 120.0
            },
            {
                "start_time": 6.781818181818181,
                "end_time": 6.881818181818182,
                "pitch": 66,
                "velocity": 51,
                "duration": 0.10000000000000053,
                "tempo": 120.0
            },
            {
                "start_time": 6.8999999999999995,
                "end_time": 7.0,
                "pitch": 68,
                "velocity": 51,
                "duration": 0.10000000000000053,
                "tempo": 120.0
            },
            {
                "start_time": 7.134090909090909,
                "end_time": 7.2318181818181815,
                "pitch": 64,
                "velocity": 51,
                "duration": 0.09772727272727266,
                "tempo": 120.0
            },
            {
                "start_time": 7.265909090909091,
                "end_time": 7.363636363636363,
                "pitch": 63,
                "velocity": 51,
                "duration": 0.09772727272727266,
                "tempo": 120.0
            },
            {
                "start_time": 7.379545454545454,
                "end_time": 7.4795454545454545,
                "pitch": 59,
                "velocity": 51,
                "duration": 0.10000000000000053,
                "tempo": 120.0
            },
            {
                "start_time": 7.495454545454545,
                "end_time": 7.593181818181818,
                "pitch": 61,
                "velocity": 51,
                "duration": 0.09772727272727266,
                "tempo": 120.0
            },
            {
                "start_time": 7.727272727272727,
                "end_time": 7.827272727272727,
                "pitch": 68,
                "velocity": 51,
                "duration": 0.10000000000000053,
                "tempo": 120.0
            },
            {
                "start_time": 7.861363636363636,
                "end_time": 7.963636363636363,
                "pitch": 73,
                "velocity": 51,
                "duration": 0.10227272727272663,
                "tempo": 120.0
            },
            {
                "start_time": 8.097727272727273,
                "end_time": 8.2,
                "pitch": 75,
                "velocity": 51,
                "duration": 0.10227272727272663,
                "tempo": 120.0
            },
            {
                "start_time": 8.336363636363636,
                "end_time": 8.438636363636363,
                "pitch": 71,
                "velocity": 51,
                "duration": 0.10227272727272663,
                "tempo": 120.0
            },
            {
                "start_time": 8.472727272727273,
                "end_time": 8.575,
                "pitch": 73,
                "velocity": 51,
                "duration": 0.10227272727272663,
                "tempo": 120.0
            },
            {
                "start_time": 8.706818181818182,
                "end_time": 8.804545454545455,
                "pitch": 66,
                "velocity": 51,
                "duration": 0.09772727272727266,
                "tempo": 120.0
            },
            {
                "start_time": 8.820454545454545,
                "end_time": 8.920454545454545,
                "pitch": 68,
                "velocity": 51,
                "duration": 0.09999999999999964,
                "tempo": 120.0
            },
            {
                "start_time": 9.068181818181818,
                "end_time": 9.170454545454545,
                "pitch": 64,
                "velocity": 51,
                "duration": 0.10227272727272663,
                "tempo": 120.0
            },
            {
                "start_time": 9.186363636363636,
                "end_time": 9.288636363636364,
                "pitch": 63,
                "velocity": 51,
                "duration": 0.1022727272727284,
                "tempo": 120.0
            },
            {
                "start_time": 9.306818181818182,
                "end_time": 9.409090909090908,
                "pitch": 59,
                "velocity": 51,
                "duration": 0.10227272727272663,
                "tempo": 120.0
            },
            {
                "start_time": 9.427272727272728,
                "end_time": 9.529545454545454,
                "pitch": 61,
                "velocity": 51,
                "duration": 0.10227272727272663,
                "tempo": 120.0
            },
            {
                "start_time": 9.677272727272726,
                "end_time": 9.775,
                "pitch": 68,
                "velocity": 51,
                "duration": 0.09772727272727444,
                "tempo": 120.0
            },
            {
                "start_time": 9.790909090909091,
                "end_time": 9.89090909090909,
                "pitch": 73,
                "velocity": 51,
                "duration": 0.09999999999999964,
                "tempo": 120.0
            },
            {
                "start_time": 10.020454545454545,
                "end_time": 10.122727272727273,
                "pitch": 75,
                "velocity": 51,
                "duration": 0.1022727272727284,
                "tempo": 120.0
            },
            {
                "start_time": 10.272727272727272,
                "end_time": 10.375,
                "pitch": 71,
                "velocity": 51,
                "duration": 0.1022727272727284,
                "tempo": 120.0
            },
            {
                "start_time": 10.39090909090909,
                "end_time": 10.49090909090909,
                "pitch": 73,
                "velocity": 51,
                "duration": 0.09999999999999964,
                "tempo": 120.0
            },
            {
                "start_time": 10.625,
                "end_time": 10.725,
                "pitch": 66,
                "velocity": 51,
                "duration": 0.09999999999999964,
                "tempo": 120.0
            },
            {
                "start_time": 10.74090909090909,
                "end_time": 10.84090909090909,
                "pitch": 68,
                "velocity": 51,
                "duration": 0.09999999999999964,
                "tempo": 120.0
            },
            {
                "start_time": 10.99090909090909,
                "end_time": 11.095454545454546,
                "pitch": 64,
                "velocity": 51,
                "duration": 0.10454545454545539,
                "tempo": 120.0
            },
            {
                "start_time": 11.111363636363636,
                "end_time": 11.213636363636363,
                "pitch": 63,
                "velocity": 51,
                "duration": 0.10227272727272663,
                "tempo": 120.0
            },
            {
                "start_time": 11.23181818181818,
                "end_time": 11.334090909090909,
                "pitch": 59,
                "velocity": 51,
                "duration": 0.1022727272727284,
                "tempo": 120.0
            },
            {
                "start_time": 11.35,
                "end_time": 11.452272727272726,
                "pitch": 61,
                "velocity": 51,
                "duration": 0.10227272727272663,
                "tempo": 120.0
            },
            {
                "start_time": 11.604545454545454,
                "end_time": 11.704545454545453,
                "pitch": 68,
                "velocity": 51,
                "duration": 0.09999999999999964,
                "tempo": 120.0
            },
            {
                "start_time": 11.722727272727273,
                "end_time": 11.822727272727272,
                "pitch": 73,
                "velocity": 51,
                "duration": 0.09999999999999964,
                "tempo": 120.0
            },
            {
                "start_time": 11.956818181818182,
                "end_time": 12.056818181818182,
                "pitch": 75,
                "velocity": 51,
                "duration": 0.09999999999999964,
                "tempo": 120.0
            },
            {
                "start_time": 12.204545454545453,
                "end_time": 12.302272727272726,
                "pitch": 71,
                "velocity": 51,
                "duration": 0.09772727272727266,
                "tempo": 120.0
            },
            {
                "start_time": 12.318181818181818,
                "end_time": 12.415909090909091,
                "pitch": 73,
                "velocity": 51,
                "duration": 0.09772727272727266,
                "tempo": 120.0
            },
            {
                "start_time": 12.547727272727272,
                "end_time": 12.645454545454545,
                "pitch": 66,
                "velocity": 51,
                "duration": 0.09772727272727266,
                "tempo": 120.0
            },
            {
                "start_time": 12.679545454545455,
                "end_time": 12.777272727272727,
                "pitch": 68,
                "velocity": 51,
                "duration": 0.09772727272727266,
                "tempo": 120.0
            },
            {
                "start_time": 12.909090909090908,
                "end_time": 13.013636363636364,
                "pitch": 64,
                "velocity": 51,
                "duration": 0.10454545454545539,
                "tempo": 120.0
            },
            {
                "start_time": 13.029545454545454,
                "end_time": 13.134090909090908,
                "pitch": 63,
                "velocity": 51,
                "duration": 0.10454545454545361,
                "tempo": 120.0
            },
            {
                "start_time": 13.152272727272727,
                "end_time": 13.256818181818181,
                "pitch": 59,
                "velocity": 51,
                "duration": 0.10454545454545361,
                "tempo": 120.0
            },
            {
                "start_time": 13.290909090909091,
                "end_time": 13.395454545454545,
                "pitch": 61,
                "velocity": 51,
                "duration": 0.10454545454545361,
                "tempo": 120.0
            },
            {
                "start_time": 13.529545454545454,
                "end_time": 13.629545454545454,
                "pitch": 68,
                "velocity": 51,
                "duration": 0.09999999999999964,
                "tempo": 120.0
            },
            {
                "start_time": 13.647727272727272,
                "end_time": 13.747727272727271,
                "pitch": 73,
                "velocity": 51,
                "duration": 0.09999999999999964,
                "tempo": 120.0
            },
            {
                "start_time": 13.899999999999999,
                "end_time": 14.0,
                "pitch": 75,
                "velocity": 51,
                "duration": 0.10000000000000142,
                "tempo": 120.0
            },
            {
                "start_time": 14.134090909090908,
                "end_time": 14.234090909090908,
                "pitch": 71,
                "velocity": 51,
                "duration": 0.09999999999999964,
                "tempo": 120.0
            },
            {
                "start_time": 14.252272727272727,
                "end_time": 14.352272727272727,
                "pitch": 73,
                "velocity": 51,
                "duration": 0.09999999999999964,
                "tempo": 120.0
            },
            {
                "start_time": 14.5,
                "end_time": 14.6,
                "pitch": 66,
                "velocity": 51,
                "duration": 0.09999999999999964,
                "tempo": 120.0
            },
            {
                "start_time": 14.61590909090909,
                "end_time": 14.713636363636363,
                "pitch": 68,
                "velocity": 51,
                "duration": 0.09772727272727266,
                "tempo": 120.0
            },
            {
                "start_time": 14.845454545454544,
                "end_time": 14.947727272727272,
                "pitch": 64,
                "velocity": 51,
                "duration": 0.1022727272727284,
                "tempo": 120.0
            },
            {
                "start_time": 14.963636363636363,
                "end_time": 15.06590909090909,
                "pitch": 63,
                "velocity": 51,
                "duration": 0.10227272727272663,
                "tempo": 120.0
            },
            {
                "start_time": 15.1,
                "end_time": 15.204545454545453,
                "pitch": 59,
                "velocity": 51,
                "duration": 0.10454545454545361,
                "tempo": 120.0
            },
            {
                "start_time": 15.220454545454544,
                "end_time": 15.322727272727272,
                "pitch": 61,
                "velocity": 51,
                "duration": 0.1022727272727284,
                "tempo": 120.0
            },
            {
                "start_time": 15.45681818181818,
                "end_time": 15.559090909090909,
                "pitch": 68,
                "velocity": 51,
                "duration": 0.1022727272727284,
                "tempo": 120.0
            },
            {
                "start_time": 15.575,
                "end_time": 15.677272727272726,
                "pitch": 73,
                "velocity": 51,
                "duration": 0.10227272727272663,
                "tempo": 120.0
            },
            {
                "start_time": 15.827272727272726,
                "end_time": 15.927272727272726,
                "pitch": 75,
                "velocity": 51,
                "duration": 0.09999999999999964,
                "tempo": 120.0
            },
            {
                "start_time": 16.063636363636363,
                "end_time": 16.163636363636364,
                "pitch": 71,
                "velocity": 51,
                "duration": 0.10000000000000142,
                "tempo": 120.0
            },
            {
                "start_time": 16.179545454545455,
                "end_time": 16.28181818181818,
                "pitch": 73,
                "velocity": 51,
                "duration": 0.10227272727272663,
                "tempo": 120.0
            },
            {
                "start_time": 16.425,
                "end_time": 16.522727272727273,
                "pitch": 66,
                "velocity": 51,
                "duration": 0.09772727272727266,
                "tempo": 120.0
            },
            {
                "start_time": 16.538636363636364,
                "end_time": 16.634090909090908,
                "pitch": 68,
                "velocity": 51,
                "duration": 0.0954545454545439,
                "tempo": 120.0
            },
            {
                "start_time": 16.761363636363637,
                "end_time": 16.863636363636363,
                "pitch": 64,
                "velocity": 51,
                "duration": 0.10227272727272663,
                "tempo": 120.0
            },
            {
                "start_time": 16.897727272727273,
                "end_time": 17.002272727272725,
                "pitch": 63,
                "velocity": 51,
                "duration": 0.10454545454545183,
                "tempo": 120.0
            },
            {
                "start_time": 17.018181818181816,
                "end_time": 17.120454545454546,
                "pitch": 59,
                "velocity": 51,
                "duration": 0.10227272727273018,
                "tempo": 120.0
            },
            {
                "start_time": 17.138636363636362,
                "end_time": 17.24090909090909,
                "pitch": 61,
                "velocity": 51,
                "duration": 0.10227272727272663,
                "tempo": 120.0
            },
            {
                "start_time": 17.375,
                "end_time": 17.474999999999998,
                "pitch": 68,
                "velocity": 51,
                "duration": 0.09999999999999787,
                "tempo": 120.0
            },
            {
                "start_time": 17.509090909090908,
                "end_time": 17.60909090909091,
                "pitch": 73,
                "velocity": 51,
                "duration": 0.10000000000000142,
                "tempo": 120.0
            },
            {
                "start_time": 17.745454545454546,
                "end_time": 17.847727272727273,
                "pitch": 75,
                "velocity": 51,
                "duration": 0.10227272727272663,
                "tempo": 120.0
            },
            {
                "start_time": 17.98409090909091,
                "end_time": 18.086363636363636,
                "pitch": 71,
                "velocity": 51,
                "duration": 0.10227272727272663,
                "tempo": 120.0
            },
            {
                "start_time": 18.120454545454546,
                "end_time": 18.222727272727273,
                "pitch": 73,
                "velocity": 51,
                "duration": 0.10227272727272663,
                "tempo": 120.0
            },
            {
                "start_time": 18.35681818181818,
                "end_time": 18.459090909090907,
                "pitch": 66,
                "velocity": 51,
                "duration": 0.10227272727272663,
                "tempo": 120.0
            },
            {
                "start_time": 18.474999999999998,
                "end_time": 18.575,
                "pitch": 68,
                "velocity": 51,
                "duration": 0.10000000000000142,
                "tempo": 120.0
            },
            {
                "start_time": 18.727272727272727,
                "end_time": 18.827272727272728,
                "pitch": 64,
                "velocity": 51,
                "duration": 0.10000000000000142,
                "tempo": 120.0
            },
            {
                "start_time": 18.845454545454544,
                "end_time": 18.945454545454545,
                "pitch": 63,
                "velocity": 51,
                "duration": 0.10000000000000142,
                "tempo": 120.0
            },
            {
                "start_time": 18.961363636363636,
                "end_time": 19.063636363636363,
                "pitch": 59,
                "velocity": 51,
                "duration": 0.10227272727272663,
                "tempo": 120.0
            },
            {
                "start_time": 19.079545454545453,
                "end_time": 19.179545454545455,
                "pitch": 61,
                "velocity": 51,
                "duration": 0.10000000000000142,
                "tempo": 120.0
            },
            {
                "start_time": 19.329545454545453,
                "end_time": 19.427272727272726,
                "pitch": 66,
                "velocity": 51,
                "duration": 0.09772727272727266,
                "tempo": 120.0
            },
            {
                "start_time": 19.443181818181817,
                "end_time": 19.54090909090909,
                "pitch": 69,
                "velocity": 51,
                "duration": 0.09772727272727266,
                "tempo": 120.0
            },
            {
                "start_time": 19.55909090909091,
                "end_time": 19.65681818181818,
                "pitch": 73,
                "velocity": 51,
                "duration": 0.09772727272727266,
                "tempo": 120.0
            },
            {
                "start_time": 19.672727272727272,
                "end_time": 19.772727272727273,
                "pitch": 71,
                "velocity": 51,
                "duration": 0.10000000000000142,
                "tempo": 120.0
            },
            {
                "start_time": 19.788636363636364,
                "end_time": 19.888636363636362,
                "pitch": 68,
                "velocity": 51,
                "duration": 0.09999999999999787,
                "tempo": 120.0
            },
            {
                "start_time": 19.922727272727272,
                "end_time": 20.022727272727273,
                "pitch": 69,
                "velocity": 51,
                "duration": 0.10000000000000142,
                "tempo": 120.0
            },
            {
                "start_time": 20.038636363636364,
                "end_time": 20.138636363636362,
                "pitch": 66,
                "velocity": 51,
                "duration": 0.09999999999999787,
                "tempo": 120.0
            },
            {
                "start_time": 20.15681818181818,
                "end_time": 20.375,
                "pitch": 68,
                "velocity": 51,
                "duration": 0.2181818181818187,
                "tempo": 120.0
            },
            {
                "start_time": 20.39090909090909,
                "end_time": 20.627272727272725,
                "pitch": 64,
                "velocity": 51,
                "duration": 0.23636363636363455,
                "tempo": 120.0
            },
            {
                "start_time": 20.761363636363637,
                "end_time": 20.861363636363635,
                "pitch": 66,
                "velocity": 51,
                "duration": 0.09999999999999787,
                "tempo": 120.0
            },
            {
                "start_time": 20.879545454545454,
                "end_time": 20.979545454545452,
                "pitch": 69,
                "velocity": 51,
                "duration": 0.09999999999999787,
                "tempo": 120.0
            },
            {
                "start_time": 20.995454545454546,
                "end_time": 21.097727272727273,
                "pitch": 73,
                "velocity": 51,
                "duration": 0.10227272727272663,
                "tempo": 120.0
            },
            {
                "start_time": 21.129545454545454,
                "end_time": 21.23181818181818,
                "pitch": 71,
                "velocity": 51,
                "duration": 0.10227272727272663,
                "tempo": 120.0
            },
            {
                "start_time": 21.24772727272727,
                "end_time": 21.349999999999998,
                "pitch": 68,
                "velocity": 51,
                "duration": 0.10227272727272663,
                "tempo": 120.0
            },
            {
                "start_time": 21.36590909090909,
                "end_time": 21.46590909090909,
                "pitch": 69,
                "velocity": 51,
                "duration": 0.10000000000000142,
                "tempo": 120.0
            },
            {
                "start_time": 21.48409090909091,
                "end_time": 21.584090909090907,
                "pitch": 66,
                "velocity": 51,
                "duration": 0.09999999999999787,
                "tempo": 120.0
            },
            {
                "start_time": 21.599999999999998,
                "end_time": 21.836363636363636,
                "pitch": 68,
                "velocity": 51,
                "duration": 0.2363636363636381,
                "tempo": 120.0
            },
            {
                "start_time": 21.852272727272727,
                "end_time": 22.070454545454545,
                "pitch": 64,
                "velocity": 51,
                "duration": 0.2181818181818187,
                "tempo": 120.0
            },
            {
                "start_time": 22.206818181818182,
                "end_time": 22.30681818181818,
                "pitch": 66,
                "velocity": 51,
                "duration": 0.09999999999999787,
                "tempo": 120.0
            },
            {
                "start_time": 22.34090909090909,
                "end_time": 22.44090909090909,
                "pitch": 69,
                "velocity": 51,
                "duration": 0.10000000000000142,
                "tempo": 120.0
            },
            {
                "start_time": 22.456818181818182,
                "end_time": 22.55909090909091,
                "pitch": 73,
                "velocity": 51,
                "duration": 0.10227272727272663,
                "tempo": 120.0
            },
            {
                "start_time": 22.575,
                "end_time": 22.677272727272726,
                "pitch": 71,
                "velocity": 51,
                "duration": 0.10227272727272663,
                "tempo": 120.0
            },
            {
                "start_time": 22.693181818181817,
                "end_time": 22.793181818181818,
                "pitch": 68,
                "velocity": 51,
                "duration": 0.10000000000000142,
                "tempo": 120.0
            },
            {
                "start_time": 22.811363636363634,
                "end_time": 22.911363636363635,
                "pitch": 69,
                "velocity": 51,
                "duration": 0.10000000000000142,
                "tempo": 120.0
            },
            {
                "start_time": 22.945454545454545,
                "end_time": 23.045454545454543,
                "pitch": 66,
                "velocity": 51,
                "duration": 0.09999999999999787,
                "tempo": 120.0
            },
            {
                "start_time": 23.063636363636363,
                "end_time": 23.28181818181818,
                "pitch": 68,
                "velocity": 51,
                "duration": 0.2181818181818187,
                "tempo": 120.0
            },
            {
                "start_time": 23.297727272727272,
                "end_time": 23.51590909090909,
                "pitch": 64,
                "velocity": 51,
                "duration": 0.2181818181818187,
                "tempo": 120.0
            },
            {
                "start_time": 23.66590909090909,
                "end_time": 23.76590909090909,
                "pitch": 66,
                "velocity": 51,
                "duration": 0.10000000000000142,
                "tempo": 120.0
            },
            {
                "start_time": 23.784090909090907,
                "end_time": 23.884090909090908,
                "pitch": 69,
                "velocity": 51,
                "duration": 0.10000000000000142,
                "tempo": 120.0
            },
            {
                "start_time": 23.9,
                "end_time": 24.0,
                "pitch": 73,
                "velocity": 51,
                "duration": 0.10000000000000142,
                "tempo": 120.0
            },
            {
                "start_time": 24.01590909090909,
                "end_time": 24.113636363636363,
                "pitch": 71,
                "velocity": 51,
                "duration": 0.09772727272727266,
                "tempo": 120.0
            },
            {
                "start_time": 24.14772727272727,
                "end_time": 24.245454545454546,
                "pitch": 68,
                "velocity": 51,
                "duration": 0.09772727272727622,
                "tempo": 120.0
            },
            {
                "start_time": 24.261363636363637,
                "end_time": 24.361363636363635,
                "pitch": 69,
                "velocity": 51,
                "duration": 0.09999999999999787,
                "tempo": 120.0
            },
            {
                "start_time": 24.377272727272725,
                "end_time": 24.474999999999998,
                "pitch": 66,
                "velocity": 51,
                "duration": 0.09772727272727266,
                "tempo": 120.0
            },
            {
                "start_time": 24.49090909090909,
                "end_time": 24.71363636363636,
                "pitch": 69,
                "velocity": 51,
                "duration": 0.22272727272727266,
                "tempo": 120.0
            },
            {
                "start_time": 24.74772727272727,
                "end_time": 24.970454545454544,
                "pitch": 71,
                "velocity": 51,
                "duration": 0.22272727272727266,
                "tempo": 120.0
            },
            {
                "start_time": 25.104545454545452,
                "end_time": 25.204545454545453,
                "pitch": 71,
                "velocity": 51,
                "duration": 0.10000000000000142,
                "tempo": 120.0
            },
            {
                "start_time": 25.222727272727273,
                "end_time": 25.32272727272727,
                "pitch": 74,
                "velocity": 51,
                "duration": 0.09999999999999787,
                "tempo": 120.0
            },
            {
                "start_time": 25.35681818181818,
                "end_time": 25.456818181818182,
                "pitch": 78,
                "velocity": 51,
                "duration": 0.10000000000000142,
                "tempo": 120.0
            },
            {
                "start_time": 25.474999999999998,
                "end_time": 25.575,
                "pitch": 76,
                "velocity": 51,
                "duration": 0.10000000000000142,
                "tempo": 120.0
            },
            {
                "start_time": 25.59090909090909,
                "end_time": 25.693181818181817,
                "pitch": 73,
                "velocity": 51,
                "duration": 0.10227272727272663,
                "tempo": 120.0
            },
            {
                "start_time": 25.709090909090907,
                "end_time": 25.80909090909091,
                "pitch": 74,
                "velocity": 51,
                "duration": 0.10000000000000142,
                "tempo": 120.0
            },
            {
                "start_time": 25.827272727272724,
                "end_time": 25.927272727272726,
                "pitch": 71,
                "velocity": 51,
                "duration": 0.10000000000000142,
                "tempo": 120.0
            },
            {
                "start_time": 25.961363636363636,
                "end_time": 26.18409090909091,
                "pitch": 73,
                "velocity": 51,
                "duration": 0.22272727272727266,
                "tempo": 120.0
            },
            {
                "start_time": 26.2,
                "end_time": 26.422727272727272,
                "pitch": 69,
                "velocity": 51,
                "duration": 0.22272727272727266,
                "tempo": 120.0
            },
            {
                "start_time": 26.570454545454545,
                "end_time": 26.668181818181818,
                "pitch": 71,
                "velocity": 51,
                "duration": 0.09772727272727266,
                "tempo": 120.0
            },
            {
                "start_time": 26.686363636363634,
                "end_time": 26.784090909090907,
                "pitch": 74,
                "velocity": 51,
                "duration": 0.09772727272727266,
                "tempo": 120.0
            },
            {
                "start_time": 26.799999999999997,
                "end_time": 26.9,
                "pitch": 78,
                "velocity": 51,
                "duration": 0.10000000000000142,
                "tempo": 120.0
            },
            {
                "start_time": 26.91590909090909,
                "end_time": 27.013636363636362,
                "pitch": 76,
                "velocity": 51,
                "duration": 0.09772727272727266,
                "tempo": 120.0
            },
            {
                "start_time": 27.029545454545453,
                "end_time": 27.129545454545454,
                "pitch": 73,
                "velocity": 51,
                "duration": 0.10000000000000142,
                "tempo": 120.0
            },
            {
                "start_time": 27.161363636363635,
                "end_time": 27.259090909090908,
                "pitch": 74,
                "velocity": 51,
                "duration": 0.09772727272727266,
                "tempo": 120.0
            },
            {
                "start_time": 27.275,
                "end_time": 27.375,
                "pitch": 71,
                "velocity": 51,
                "duration": 0.10000000000000142,
                "tempo": 120.0
            },
            {
                "start_time": 27.39090909090909,
                "end_time": 27.613636363636363,
                "pitch": 73,
                "velocity": 51,
                "duration": 0.22272727272727266,
                "tempo": 120.0
            },
            {
                "start_time": 27.629545454545454,
                "end_time": 27.868181818181817,
                "pitch": 69,
                "velocity": 51,
                "duration": 0.2386363636363633,
                "tempo": 120.0
            },
            {
                "start_time": 28.004545454545454,
                "end_time": 28.104545454545452,
                "pitch": 71,
                "velocity": 51,
                "duration": 0.09999999999999787,
                "tempo": 120.0
            },
            {
                "start_time": 28.120454545454542,
                "end_time": 28.222727272727273,
                "pitch": 74,
                "velocity": 51,
                "duration": 0.10227272727273018,
                "tempo": 120.0
            },
            {
                "start_time": 28.238636363636363,
                "end_time": 28.33863636363636,
                "pitch": 78,
                "velocity": 51,
                "duration": 0.09999999999999787,
                "tempo": 120.0
            },
            {
                "start_time": 28.37272727272727,
                "end_time": 28.474999999999998,
                "pitch": 76,
                "velocity": 51,
                "duration": 0.10227272727272663,
                "tempo": 120.0
            },
            {
                "start_time": 28.49090909090909,
                "end_time": 28.59090909090909,
                "pitch": 73,
                "velocity": 51,
                "duration": 0.10000000000000142,
                "tempo": 120.0
            },
            {
                "start_time": 28.60909090909091,
                "end_time": 28.709090909090907,
                "pitch": 74,
                "velocity": 51,
                "duration": 0.09999999999999787,
                "tempo": 120.0
            },
            {
                "start_time": 28.724999999999998,
                "end_time": 28.827272727272724,
                "pitch": 71,
                "velocity": 51,
                "duration": 0.10227272727272663,
                "tempo": 120.0
            },
            {
                "start_time": 28.843181818181815,
                "end_time": 29.079545454545453,
                "pitch": 73,
                "velocity": 51,
                "duration": 0.2363636363636381,
                "tempo": 120.0
            },
            {
                "start_time": 29.095454545454544,
                "end_time": 29.313636363636363,
                "pitch": 69,
                "velocity": 51,
                "duration": 0.2181818181818187,
                "tempo": 120.0
            },
            {
                "start_time": 29.44772727272727,
                "end_time": 29.549999999999997,
                "pitch": 59,
                "velocity": 51,
                "duration": 0.10227272727272663,
                "tempo": 120.0
            },
            {
                "start_time": 29.581818181818182,
                "end_time": 29.68409090909091,
                "pitch": 62,
                "velocity": 51,
                "duration": 0.10227272727272663,
                "tempo": 120.0
            },
            {
                "start_time": 29.7,
                "end_time": 29.802272727272726,
                "pitch": 64,
                "velocity": 51,
                "duration": 0.10227272727272663,
                "tempo": 120.0
            },
            {
                "start_time": 29.818181818181817,
                "end_time": 29.920454545454543,
                "pitch": 66,
                "velocity": 51,
                "duration": 0.10227272727272663,
                "tempo": 120.0
            },
            {
                "start_time": 29.936363636363634,
                "end_time": 30.04090909090909,
                "pitch": 69,
                "velocity": 51,
                "duration": 0.10454545454545539,
                "tempo": 120.0
            },
            {
                "start_time": 30.05681818181818,
                "end_time": 32.21363636363636,
                "pitch": 71,
                "velocity": 51,
                "duration": 2.1568181818181813,
                "tempo": 120.0
            },
            {
                "start_time": 32.22954545454545,
                "end_time": 32.32954545454545,
                "pitch": 71,
                "velocity": 51,
                "duration": 0.10000000000000142,
                "tempo": 120.0
            },
            {
                "start_time": 32.34772727272727,
                "end_time": 32.44772727272727,
                "pitch": 73,
                "velocity": 51,
                "duration": 0.10000000000000142,
                "tempo": 120.0
            },
            {
                "start_time": 32.465909090909086,
                "end_time": 32.56590909090909,
                "pitch": 74,
                "velocity": 51,
                "duration": 0.10000000000000142,
                "tempo": 120.0
            },
            {
                "start_time": 32.6,
                "end_time": 32.699999999999996,
                "pitch": 76,
                "velocity": 51,
                "duration": 0.09999999999999432,
                "tempo": 120.0
            },
            {
                "start_time": 32.715909090909086,
                "end_time": 32.820454545454545,
                "pitch": 66,
                "velocity": 51,
                "duration": 0.10454545454545894,
                "tempo": 120.0
            },
            {
                "start_time": 33.074999999999996,
                "end_time": 33.17727272727272,
                "pitch": 69,
                "velocity": 51,
                "duration": 0.10227272727272663,
                "tempo": 120.0
            },
            {
                "start_time": 33.434090909090905,
                "end_time": 34.13636363636363,
                "pitch": 68,
                "velocity": 51,
                "duration": 0.702272727272728,
                "tempo": 120.0
            },
            {
                "start_time": 34.154545454545456,
                "end_time": 34.37045454545454,
                "pitch": 68,
                "velocity": 51,
                "duration": 0.2159090909090864,
                "tempo": 120.0
            },
            {
                "start_time": 34.404545454545456,
                "end_time": 34.62045454545454,
                "pitch": 66,
                "velocity": 51,
                "duration": 0.2159090909090864,
                "tempo": 120.0
            },
            {
                "start_time": 34.638636363636365,
                "end_time": 34.85681818181818,
                "pitch": 64,
                "velocity": 51,
                "duration": 0.2181818181818116,
                "tempo": 120.0
            },
            {
                "start_time": 34.87272727272727,
                "end_time": 34.97272727272727,
                "pitch": 66,
                "velocity": 51,
                "duration": 0.10000000000000142,
                "tempo": 120.0
            },
            {
                "start_time": 35.24090909090909,
                "end_time": 35.340909090909086,
                "pitch": 69,
                "velocity": 51,
                "duration": 0.09999999999999432,
                "tempo": 120.0
            },
            {
                "start_time": 35.60909090909091,
                "end_time": 36.31590909090909,
                "pitch": 68,
                "velocity": 51,
                "duration": 0.7068181818181785,
                "tempo": 120.0
            },
            {
                "start_time": 36.33181818181818,
                "end_time": 36.54545454545455,
                "pitch": 68,
                "velocity": 51,
                "duration": 0.2136363636363683,
                "tempo": 120.0
            },
            {
                "start_time": 36.56136363636364,
                "end_time": 36.779545454545456,
                "pitch": 66,
                "velocity": 51,
                "duration": 0.2181818181818187,
                "tempo": 120.0
            },
            {
                "start_time": 36.81363636363636,
                "end_time": 37.03181818181818,
                "pitch": 64,
                "velocity": 51,
                "duration": 0.2181818181818187,
                "tempo": 120.0
            },
            {
                "start_time": 37.05,
                "end_time": 37.15,
                "pitch": 74,
                "velocity": 51,
                "duration": 0.10000000000000142,
                "tempo": 120.0
            },
            {
                "start_time": 37.41590909090909,
                "end_time": 37.51590909090909,
                "pitch": 78,
                "velocity": 51,
                "duration": 0.10000000000000142,
                "tempo": 120.0
            },
            {
                "start_time": 37.76590909090909,
                "end_time": 38.47727272727273,
                "pitch": 76,
                "velocity": 51,
                "duration": 0.711363636363636,
                "tempo": 120.0
            },
            {
                "start_time": 38.49318181818182,
                "end_time": 38.71818181818182,
                "pitch": 76,
                "velocity": 51,
                "duration": 0.22500000000000142,
                "tempo": 120.0
            },
            {
                "start_time": 38.73409090909091,
                "end_time": 38.94318181818181,
                "pitch": 74,
                "velocity": 51,
                "duration": 0.20909090909090366,
                "tempo": 120.0
            },
            {
                "start_time": 38.959090909090904,
                "end_time": 39.179545454545455,
                "pitch": 76,
                "velocity": 51,
                "duration": 0.220454545454551,
                "tempo": 120.0
            },
            {
                "start_time": 39.21363636363636,
                "end_time": 39.31590909090909,
                "pitch": 74,
                "velocity": 51,
                "duration": 0.10227272727272663,
                "tempo": 120.0
            },
            {
                "start_time": 39.570454545454545,
                "end_time": 39.67045454545455,
                "pitch": 78,
                "velocity": 51,
                "duration": 0.10000000000000142,
                "tempo": 120.0
            },
            {
                "start_time": 39.93636363636364,
                "end_time": 40.64772727272727,
                "pitch": 76,
                "velocity": 51,
                "duration": 0.711363636363636,
                "tempo": 120.0
            },
            {
                "start_time": 40.66590909090909,
                "end_time": 40.88181818181818,
                "pitch": 76,
                "velocity": 51,
                "duration": 0.2159090909090935,
                "tempo": 120.0
            },
            {
                "start_time": 40.89772727272727,
                "end_time": 41.12272727272727,
                "pitch": 74,
                "velocity": 51,
                "duration": 0.22499999999999432,
                "tempo": 120.0
            },
            {
                "start_time": 41.13863636363636,
                "end_time": 41.34772727272727,
                "pitch": 76,
                "velocity": 51,
                "duration": 0.20909090909091077,
                "tempo": 120.0
            },
            {
                "start_time": 41.36363636363636,
                "end_time": 41.465909090909086,
                "pitch": 66,
                "velocity": 51,
                "duration": 0.10227272727272663,
                "tempo": 120.0
            },
            {
                "start_time": 41.73863636363636,
                "end_time": 41.840909090909086,
                "pitch": 69,
                "velocity": 51,
                "duration": 0.10227272727272663,
                "tempo": 120.0
            },
            {
                "start_time": 42.086363636363636,
                "end_time": 42.80227272727272,
                "pitch": 68,
                "velocity": 51,
                "duration": 0.7159090909090864,
                "tempo": 120.0
            },
            {
                "start_time": 42.836363636363636,
                "end_time": 43.054545454545455,
                "pitch": 68,
                "velocity": 51,
                "duration": 0.2181818181818187,
                "tempo": 120.0
            },
            {
                "start_time": 43.070454545454545,
                "end_time": 43.29090909090909,
                "pitch": 66,
                "velocity": 51,
                "duration": 0.2204545454545439,
                "tempo": 120.0
            },
            {
                "start_time": 43.30681818181818,
                "end_time": 43.53636363636363,
                "pitch": 64,
                "velocity": 51,
                "duration": 0.22954545454545183,
                "tempo": 120.0
            },
            {
                "start_time": 43.55227272727272,
                "end_time": 43.652272727272724,
                "pitch": 66,
                "velocity": 51,
                "duration": 0.10000000000000142,
                "tempo": 120.0
            },
            {
                "start_time": 43.9,
                "end_time": 44.0,
                "pitch": 69,
                "velocity": 51,
                "duration": 0.10000000000000142,
                "tempo": 120.0
            },
            {
                "start_time": 44.26590909090909,
                "end_time": 44.974999999999994,
                "pitch": 68,
                "velocity": 51,
                "duration": 0.7090909090909037,
                "tempo": 120.0
            },
            {
                "start_time": 44.99090909090909,
                "end_time": 45.21363636363636,
                "pitch": 68,
                "velocity": 51,
                "duration": 0.2227272727272691,
                "tempo": 120.0
            },
            {
                "start_time": 45.24772727272727,
                "end_time": 45.465909090909086,
                "pitch": 66,
                "velocity": 51,
                "duration": 0.2181818181818187,
                "tempo": 120.0
            },
            {
                "start_time": 45.48409090909091,
                "end_time": 45.70227272727273,
                "pitch": 64,
                "velocity": 51,
                "duration": 0.2181818181818187,
                "tempo": 120.0
            },
            {
                "start_time": 45.71818181818182,
                "end_time": 45.81590909090909,
                "pitch": 74,
                "velocity": 51,
                "duration": 0.09772727272726911,
                "tempo": 120.0
            },
            {
                "start_time": 46.07954545454545,
                "end_time": 46.17727272727272,
                "pitch": 78,
                "velocity": 51,
                "duration": 0.09772727272726911,
                "tempo": 120.0
            },
            {
                "start_time": 46.44090909090909,
                "end_time": 47.15454545454545,
                "pitch": 76,
                "velocity": 51,
                "duration": 0.7136363636363612,
                "tempo": 120.0
            },
            {
                "start_time": 47.17272727272727,
                "end_time": 47.39090909090909,
                "pitch": 76,
                "velocity": 51,
                "duration": 0.2181818181818187,
                "tempo": 120.0
            },
            {
                "start_time": 47.40909090909091,
                "end_time": 47.627272727272725,
                "pitch": 74,
                "velocity": 51,
                "duration": 0.2181818181818187,
                "tempo": 120.0
            },
            {
                "start_time": 47.66136363636363,
                "end_time": 47.877272727272725,
                "pitch": 76,
                "velocity": 51,
                "duration": 0.2159090909090935,
                "tempo": 120.0
            },
            {
                "start_time": 47.893181818181816,
                "end_time": 47.99318181818182,
                "pitch": 74,
                "velocity": 51,
                "duration": 0.10000000000000142,
                "tempo": 120.0
            },
            {
                "start_time": 48.25909090909091,
                "end_time": 48.35681818181818,
                "pitch": 78,
                "velocity": 51,
                "duration": 0.09772727272726911,
                "tempo": 120.0
            },
            {
                "start_time": 48.60227272727273,
                "end_time": 49.31136363636364,
                "pitch": 76,
                "velocity": 51,
                "duration": 0.7090909090909108,
                "tempo": 120.0
            },
            {
                "start_time": 49.32954545454545,
                "end_time": 49.56818181818181,
                "pitch": 76,
                "velocity": 51,
                "duration": 0.23863636363635976,
                "tempo": 120.0
            },
            {
                "start_time": 49.584090909090904,
                "end_time": 49.80227272727272,
                "pitch": 74,
                "velocity": 51,
                "duration": 0.2181818181818187,
                "tempo": 120.0
            },
            {
                "start_time": 49.820454545454545,
                "end_time": 50.038636363636364,
                "pitch": 76,
                "velocity": 51,
                "duration": 0.2181818181818187,
                "tempo": 120.0
            },
            {
                "start_time": 50.07272727272727,
                "end_time": 50.10454545454545,
                "pitch": 63,
                "velocity": 51,
                "duration": 0.0318181818181813,
                "tempo": 120.0
            },
            {
                "start_time": 50.10454545454545,
                "end_time": 50.13863636363636,
                "pitch": 60,
                "velocity": 51,
                "duration": 0.03409090909090651,
                "tempo": 120.0
            },
            {
                "start_time": 50.13863636363636,
                "end_time": 50.15454545454545,
                "pitch": 57,
                "velocity": 51,
                "duration": 0.01590909090909065,
                "tempo": 120.0
            },
            {
                "start_time": 50.15454545454545,
                "end_time": 50.18863636363636,
                "pitch": 55,
                "velocity": 51,
                "duration": 0.03409090909091361,
                "tempo": 120.0
            },
            {
                "start_time": 50.18863636363636,
                "end_time": 50.22272727272727,
                "pitch": 63,
                "velocity": 51,
                "duration": 0.03409090909090651,
                "tempo": 120.0
            },
            {
                "start_time": 50.22272727272727,
                "end_time": 50.25454545454545,
                "pitch": 60,
                "velocity": 51,
                "duration": 0.0318181818181813,
                "tempo": 120.0
            },
            {
                "start_time": 50.25454545454545,
                "end_time": 50.27272727272727,
                "pitch": 57,
                "velocity": 51,
                "duration": 0.018181818181822962,
                "tempo": 120.0
            },
            {
                "start_time": 50.27272727272727,
                "end_time": 50.304545454545455,
                "pitch": 55,
                "velocity": 51,
                "duration": 0.0318181818181813,
                "tempo": 120.0
            },
            {
                "start_time": 50.304545454545455,
                "end_time": 50.33863636363636,
                "pitch": 63,
                "velocity": 51,
                "duration": 0.03409090909090651,
                "tempo": 120.0
            },
            {
                "start_time": 50.33863636363636,
                "end_time": 50.37272727272727,
                "pitch": 60,
                "velocity": 51,
                "duration": 0.03409090909090651,
                "tempo": 120.0
            },
            {
                "start_time": 50.37272727272727,
                "end_time": 50.38863636363636,
                "pitch": 57,
                "velocity": 51,
                "duration": 0.01590909090909065,
                "tempo": 120.0
            },
            {
                "start_time": 50.38863636363636,
                "end_time": 50.42272727272727,
                "pitch": 55,
                "velocity": 51,
                "duration": 0.03409090909091361,
                "tempo": 120.0
            },
            {
                "start_time": 50.42272727272727,
                "end_time": 50.45454545454545,
                "pitch": 61,
                "velocity": 51,
                "duration": 0.0318181818181813,
                "tempo": 120.0
            },
            {
                "start_time": 50.45454545454545,
                "end_time": 50.48863636363636,
                "pitch": 58,
                "velocity": 51,
                "duration": 0.03409090909090651,
                "tempo": 120.0
            },
            {
                "start_time": 50.48863636363636,
                "end_time": 50.52272727272727,
                "pitch": 54,
                "velocity": 51,
                "duration": 0.03409090909091361,
                "tempo": 120.0
            },
            {
                "start_time": 50.52272727272727,
                "end_time": 50.538636363636364,
                "pitch": 52,
                "velocity": 51,
                "duration": 0.01590909090909065,
                "tempo": 120.0
            },
            {
                "start_time": 50.538636363636364,
                "end_time": 50.570454545454545,
                "pitch": 61,
                "velocity": 51,
                "duration": 0.0318181818181813,
                "tempo": 120.0
            },
            {
                "start_time": 50.570454545454545,
                "end_time": 50.60454545454545,
                "pitch": 58,
                "velocity": 51,
                "duration": 0.03409090909090651,
                "tempo": 120.0
            },
            {
                "start_time": 50.60454545454545,
                "end_time": 50.63636363636363,
                "pitch": 54,
                "velocity": 51,
                "duration": 0.0318181818181813,
                "tempo": 120.0
            },
            {
                "start_time": 50.63636363636363,
                "end_time": 50.67045454545454,
                "pitch": 52,
                "velocity": 51,
                "duration": 0.03409090909090651,
                "tempo": 120.0
            },
            {
                "start_time": 50.67045454545454,
                "end_time": 50.70227272727273,
                "pitch": 61,
                "velocity": 51,
                "duration": 0.03181818181818841,
                "tempo": 120.0
            },
            {
                "start_time": 50.70227272727273,
                "end_time": 50.736363636363635,
                "pitch": 58,
                "velocity": 51,
                "duration": 0.03409090909090651,
                "tempo": 120.0
            },
            {
                "start_time": 50.736363636363635,
                "end_time": 50.768181818181816,
                "pitch": 54,
                "velocity": 51,
                "duration": 0.0318181818181813,
                "tempo": 120.0
            },
            {
                "start_time": 50.768181818181816,
                "end_time": 50.78409090909091,
                "pitch": 52,
                "velocity": 51,
                "duration": 0.01590909090909065,
                "tempo": 120.0
            },
            {
                "start_time": 50.78409090909091,
                "end_time": 50.81818181818181,
                "pitch": 59,
                "velocity": 51,
                "duration": 0.03409090909090651,
                "tempo": 120.0
            },
            {
                "start_time": 50.81818181818181,
                "end_time": 50.834090909090904,
                "pitch": 55,
                "velocity": 51,
                "duration": 0.01590909090909065,
                "tempo": 120.0
            },
            {
                "start_time": 50.834090909090904,
                "end_time": 50.865909090909085,
                "pitch": 54,
                "velocity": 51,
                "duration": 0.0318181818181813,
                "tempo": 120.0
            },
            {
                "start_time": 50.865909090909085,
                "end_time": 50.9,
                "pitch": 51,
                "velocity": 51,
                "duration": 0.03409090909091361,
                "tempo": 120.0
            },
            {
                "start_time": 50.9,
                "end_time": 50.93181818181818,
                "pitch": 59,
                "velocity": 51,
                "duration": 0.0318181818181813,
                "tempo": 120.0
            },
            {
                "start_time": 50.93181818181818,
                "end_time": 50.94772727272727,
                "pitch": 55,
                "velocity": 51,
                "duration": 0.01590909090909065,
                "tempo": 120.0
            },
            {
                "start_time": 50.94772727272727,
                "end_time": 50.98181818181818,
                "pitch": 54,
                "velocity": 51,
                "duration": 0.03409090909090651,
                "tempo": 120.0
            },
            {
                "start_time": 50.98181818181818,
                "end_time": 51.01363636363636,
                "pitch": 51,
                "velocity": 51,
                "duration": 0.0318181818181813,
                "tempo": 120.0
            },
            {
                "start_time": 51.01363636363636,
                "end_time": 51.04772727272727,
                "pitch": 59,
                "velocity": 51,
                "duration": 0.03409090909091361,
                "tempo": 120.0
            },
            {
                "start_time": 51.04772727272727,
                "end_time": 51.06590909090909,
                "pitch": 55,
                "velocity": 51,
                "duration": 0.018181818181815856,
                "tempo": 120.0
            },
            {
                "start_time": 51.06590909090909,
                "end_time": 51.09772727272727,
                "pitch": 54,
                "velocity": 51,
                "duration": 0.0318181818181813,
                "tempo": 120.0
            },
            {
                "start_time": 51.09772727272727,
                "end_time": 51.13181818181818,
                "pitch": 51,
                "velocity": 51,
                "duration": 0.03409090909091361,
                "tempo": 120.0
            },
            {
                "start_time": 51.13181818181818,
                "end_time": 51.16590909090909,
                "pitch": 63,
                "velocity": 51,
                "duration": 0.03409090909090651,
                "tempo": 120.0
            },
            {
                "start_time": 51.16590909090909,
                "end_time": 51.199999999999996,
                "pitch": 60,
                "velocity": 51,
                "duration": 0.03409090909090651,
                "tempo": 120.0
            },
            {
                "start_time": 51.199999999999996,
                "end_time": 51.215909090909086,
                "pitch": 57,
                "velocity": 51,
                "duration": 0.01590909090909065,
                "tempo": 120.0
            },
            {
                "start_time": 51.215909090909086,
                "end_time": 51.25,
                "pitch": 55,
                "velocity": 51,
                "duration": 0.03409090909091361,
                "tempo": 120.0
            },
            {
                "start_time": 51.25,
                "end_time": 51.26590909090909,
                "pitch": 52,
                "velocity": 51,
                "duration": 0.01590909090909065,
                "tempo": 120.0
            },
            {
                "start_time": 51.26590909090909,
                "end_time": 51.3,
                "pitch": 61,
                "velocity": 51,
                "duration": 0.03409090909090651,
                "tempo": 120.0
            },
            {
                "start_time": 51.3,
                "end_time": 51.334090909090904,
                "pitch": 58,
                "velocity": 51,
                "duration": 0.03409090909090651,
                "tempo": 120.0
            },
            {
                "start_time": 51.334090909090904,
                "end_time": 51.36818181818182,
                "pitch": 54,
                "velocity": 51,
                "duration": 0.03409090909091361,
                "tempo": 120.0
            },
            {
                "start_time": 51.36818181818182,
                "end_time": 51.38409090909091,
                "pitch": 52,
                "velocity": 51,
                "duration": 0.01590909090909065,
                "tempo": 120.0
            },
            {
                "start_time": 51.38409090909091,
                "end_time": 51.418181818181814,
                "pitch": 59,
                "velocity": 51,
                "duration": 0.03409090909090651,
                "tempo": 120.0
            },
            {
                "start_time": 51.418181818181814,
                "end_time": 51.434090909090905,
                "pitch": 55,
                "velocity": 51,
                "duration": 0.01590909090909065,
                "tempo": 120.0
            },
            {
                "start_time": 51.434090909090905,
                "end_time": 51.46818181818182,
                "pitch": 54,
                "velocity": 51,
                "duration": 0.03409090909091361,
                "tempo": 120.0
            },
            {
                "start_time": 51.46818181818182,
                "end_time": 52.934090909090905,
                "pitch": 51,
                "velocity": 51,
                "duration": 1.4659090909090864,
                "tempo": 120.0
            },
            {
                "start_time": 52.949999999999996,
                "end_time": 54.375,
                "pitch": 53,
                "velocity": 51,
                "duration": 1.4250000000000043,
                "tempo": 120.0
            },
            {
                "start_time": 54.393181818181816,
                "end_time": 55.81590909090909,
                "pitch": 54,
                "velocity": 51,
                "duration": 1.422727272727272,
                "tempo": 120.0
            },
            {
                "start_time": 55.834090909090904,
                "end_time": 56.23409090909091,
                "pitch": 55,
                "velocity": 51,
                "duration": 0.4000000000000057,
                "tempo": 120.0
            },
            {
                "start_time": 56.23409090909091,
                "end_time": 56.31590909090909,
                "pitch": 55,
                "velocity": 51,
                "duration": 0.08181818181817846,
                "tempo": 120.0
            },
            {
                "start_time": 56.31590909090909,
                "end_time": 56.53636363636363,
                "pitch": 55,
                "velocity": 51,
                "duration": 0.2204545454545439,
                "tempo": 120.0
            },
            {
                "start_time": 56.53636363636363,
                "end_time": 56.586363636363636,
                "pitch": 55,
                "velocity": 51,
                "duration": 0.05000000000000426,
                "tempo": 120.0
            },
            {
                "start_time": 56.586363636363636,
                "end_time": 56.804545454545455,
                "pitch": 55,
                "velocity": 51,
                "duration": 0.2181818181818187,
                "tempo": 120.0
            },
            {
                "start_time": 56.804545454545455,
                "end_time": 56.85454545454545,
                "pitch": 55,
                "velocity": 51,
                "duration": 0.04999999999999716,
                "tempo": 120.0
            },
            {
                "start_time": 56.85454545454545,
                "end_time": 57.070454545454545,
                "pitch": 55,
                "velocity": 51,
                "duration": 0.2159090909090935,
                "tempo": 120.0
            },
            {
                "start_time": 57.070454545454545,
                "end_time": 57.12045454545454,
                "pitch": 55,
                "velocity": 51,
                "duration": 0.04999999999999716,
                "tempo": 120.0
            },
            {
                "start_time": 57.12045454545454,
                "end_time": 57.25454545454545,
                "pitch": 55,
                "velocity": 51,
                "duration": 0.13409090909090793,
                "tempo": 120.0
            },
            {
                "start_time": 57.28636363636363,
                "end_time": 60.15681818181818,
                "pitch": 56,
                "velocity": 51,
                "duration": 2.8704545454545496,
                "tempo": 120.0
            }
        ],
        "Church Organ": [
            {
                "start_time": 51.502272727272725,
                "end_time": 51.71818181818182,
                "pitch": 55,
                "velocity": 127,
                "duration": 0.2159090909090935,
                "tempo": 120.0
            },
            {
                "start_time": 51.73409090909091,
                "end_time": 51.834090909090904,
                "pitch": 55,
                "velocity": 127,
                "duration": 0.09999999999999432,
                "tempo": 120.0
            },
            {
                "start_time": 51.86818181818182,
                "end_time": 52.20227272727273,
                "pitch": 55,
                "velocity": 127,
                "duration": 0.33409090909091077,
                "tempo": 120.0
            },
            {
                "start_time": 52.220454545454544,
                "end_time": 52.43863636363636,
                "pitch": 57,
                "velocity": 127,
                "duration": 0.2181818181818187,
                "tempo": 120.0
            },
            {
                "start_time": 52.47272727272727,
                "end_time": 52.69318181818181,
                "pitch": 59,
                "velocity": 127,
                "duration": 0.2204545454545439,
                "tempo": 120.0
            },
            {
                "start_time": 52.711363636363636,
                "end_time": 52.934090909090905,
                "pitch": 57,
                "velocity": 127,
                "duration": 0.2227272727272691,
                "tempo": 120.0
            },
            {
                "start_time": 52.949999999999996,
                "end_time": 53.179545454545455,
                "pitch": 56,
                "velocity": 127,
                "duration": 0.22954545454545894,
                "tempo": 120.0
            },
            {
                "start_time": 53.195454545454545,
                "end_time": 53.29545454545454,
                "pitch": 56,
                "velocity": 127,
                "duration": 0.09999999999999432,
                "tempo": 120.0
            },
            {
                "start_time": 53.31136363636363,
                "end_time": 53.643181818181816,
                "pitch": 56,
                "velocity": 127,
                "duration": 0.33181818181818556,
                "tempo": 120.0
            },
            {
                "start_time": 53.675,
                "end_time": 53.893181818181816,
                "pitch": 57,
                "velocity": 127,
                "duration": 0.2181818181818187,
                "tempo": 120.0
            },
            {
                "start_time": 53.90909090909091,
                "end_time": 54.125,
                "pitch": 59,
                "velocity": 127,
                "duration": 0.2159090909090935,
                "tempo": 120.0
            },
            {
                "start_time": 54.143181818181816,
                "end_time": 54.375,
                "pitch": 56,
                "velocity": 127,
                "duration": 0.23181818181818414,
                "tempo": 120.0
            },
            {
                "start_time": 54.393181818181816,
                "end_time": 54.611363636363635,
                "pitch": 57,
                "velocity": 127,
                "duration": 0.2181818181818187,
                "tempo": 120.0
            },
            {
                "start_time": 54.627272727272725,
                "end_time": 54.72954545454545,
                "pitch": 57,
                "velocity": 127,
                "duration": 0.10227272727272663,
                "tempo": 120.0
            },
            {
                "start_time": 54.74545454545454,
                "end_time": 55.095454545454544,
                "pitch": 57,
                "velocity": 127,
                "duration": 0.3500000000000014,
                "tempo": 120.0
            },
            {
                "start_time": 55.11363636363636,
                "end_time": 55.32954545454545,
                "pitch": 59,
                "velocity": 127,
                "duration": 0.2159090909090935,
                "tempo": 120.0
            },
            {
                "start_time": 55.345454545454544,
                "end_time": 55.58181818181818,
                "pitch": 61,
                "velocity": 127,
                "duration": 0.23636363636363455,
                "tempo": 120.0
            },
            {
                "start_time": 55.59772727272727,
                "end_time": 55.81590909090909,
                "pitch": 59,
                "velocity": 127,
                "duration": 0.2181818181818187,
                "tempo": 120.0
            },
            {
                "start_time": 55.834090909090904,
                "end_time": 56.05,
                "pitch": 58,
                "velocity": 127,
                "duration": 0.2159090909090935,
                "tempo": 120.0
            },
            {
                "start_time": 56.084090909090904,
                "end_time": 56.184090909090905,
                "pitch": 58,
                "velocity": 127,
                "duration": 0.10000000000000142,
                "tempo": 120.0
            },
            {
                "start_time": 56.199999999999996,
                "end_time": 56.53636363636363,
                "pitch": 58,
                "velocity": 127,
                "duration": 0.336363636363636,
                "tempo": 120.0
            },
            {
                "start_time": 56.55227272727272,
                "end_time": 56.78636363636363,
                "pitch": 59,
                "velocity": 127,
                "duration": 0.23409090909090935,
                "tempo": 120.0
            },
            {
                "start_time": 56.804545454545455,
                "end_time": 57.02045454545454,
                "pitch": 61,
                "velocity": 127,
                "duration": 0.2159090909090864,
                "tempo": 120.0
            },
            {
                "start_time": 57.03636363636363,
                "end_time": 57.25454545454545,
                "pitch": 58,
                "velocity": 127,
                "duration": 0.2181818181818187,
                "tempo": 120.0
            },
            {
                "start_time": 57.28636363636363,
                "end_time": 60.15681818181818,
                "pitch": 59,
                "velocity": 127,
                "duration": 2.8704545454545496,
                "tempo": 120.0
            }
        ]
    }
}