{
    "track_id": "Ys (FM) - 12 - Devil_s Wind",
    "mood": "angry",
    "instruments": {
        "Acoustic Bass": [
            {
                "start_time": 0.0,
                "end_time": 0.175,
                "pitch": 82,
                "velocity": 80,
                "duration": 0.175,
                "tempo": 120.0
            },
            {
                "start_time": 0.18863636363636363,
                "end_time": 0.37727272727272726,
                "pitch": 79,
                "velocity": 80,
                "duration": 0.18863636363636363,
                "tempo": 120.0
            },
            {
                "start_time": 0.3931818181818182,
                "end_time": 0.6454545454545454,
                "pitch": 81,
                "velocity": 80,
                "duration": 0.2522727272727272,
                "tempo": 120.0
            },
            {
                "start_time": 0.6613636363636364,
                "end_time": 0.8772727272727272,
                "pitch": 79,
                "velocity": 80,
                "duration": 0.21590909090909083,
                "tempo": 120.0
            },
            {
                "start_time": 0.8772727272727272,
                "end_time": 0.9113636363636363,
                "pitch": 79,
                "velocity": 80,
                "duration": 0.03409090909090906,
                "tempo": 120.0
            },
            {
                "start_time": 0.9295454545454545,
                "end_time": 1.1795454545454545,
                "pitch": 82,
                "velocity": 80,
                "duration": 0.25,
                "tempo": 120.0
            },
            {
                "start_time": 1.1954545454545453,
                "end_time": 1.4454545454545453,
                "pitch": 79,
                "velocity": 80,
                "duration": 0.25,
                "tempo": 120.0
            },
            {
                "start_time": 1.4636363636363636,
                "end_time": 1.718181818181818,
                "pitch": 81,
                "velocity": 80,
                "duration": 0.2545454545454544,
                "tempo": 120.0
            },
            {
                "start_time": 1.734090909090909,
                "end_time": 1.9909090909090907,
                "pitch": 79,
                "velocity": 80,
                "duration": 0.25681818181818183,
                "tempo": 120.0
            },
            {
                "start_time": 2.006818181818182,
                "end_time": 2.256818181818182,
                "pitch": 82,
                "velocity": 80,
                "duration": 0.25,
                "tempo": 120.0
            },
            {
                "start_time": 2.275,
                "end_time": 2.525,
                "pitch": 79,
                "velocity": 80,
                "duration": 0.25,
                "tempo": 120.0
            },
            {
                "start_time": 2.540909090909091,
                "end_time": 2.7909090909090906,
                "pitch": 81,
                "velocity": 80,
                "duration": 0.24999999999999956,
                "tempo": 120.0
            },
            {
                "start_time": 2.809090909090909,
                "end_time": 3.059090909090909,
                "pitch": 79,
                "velocity": 80,
                "duration": 0.25,
                "tempo": 120.0
            },
            {
                "start_time": 3.0749999999999997,
                "end_time": 3.3318181818181816,
                "pitch": 82,
                "velocity": 80,
                "duration": 0.25681818181818183,
                "tempo": 120.0
            },
            {
                "start_time": 3.3477272727272727,
                "end_time": 3.602272727272727,
                "pitch": 79,
                "velocity": 80,
                "duration": 0.2545454545454544,
                "tempo": 120.0
            },
            {
                "start_time": 3.620454545454545,
                "end_time": 3.870454545454545,
                "pitch": 81,
                "velocity": 80,
                "duration": 0.25,
                "tempo": 120.0
            },
            {
                "start_time": 3.8863636363636362,
                "end_time": 4.136363636363636,
                "pitch": 79,
                "velocity": 80,
                "duration": 0.24999999999999956,
                "tempo": 120.0
            },
            {
                "start_time": 4.154545454545454,
                "end_time": 4.409090909090909,
                "pitch": 82,
                "velocity": 80,
                "duration": 0.25454545454545485,
                "tempo": 120.0
            },
            {
                "start_time": 4.425,
                "end_time": 4.681818181818182,
                "pitch": 79,
                "velocity": 80,
                "duration": 0.25681818181818183,
                "tempo": 120.0
            },
            {
                "start_time": 4.697727272727272,
                "end_time": 4.947727272727272,
                "pitch": 81,
                "velocity": 80,
                "duration": 0.25,
                "tempo": 120.0
            },
            {
                "start_time": 4.965909090909091,
                "end_time": 5.181818181818182,
                "pitch": 79,
                "velocity": 80,
                "duration": 0.21590909090909083,
                "tempo": 120.0
            }
        ],
        "Church Organ": [
            {
                "start_time": 0.013636363636363636,
                "end_time": 0.049999999999999996,
                "pitch": 43,
                "velocity": 101,
                "duration": 0.03636363636363636,
                "tempo": 120.0
            },
            {
                "start_time": 0.049999999999999996,
                "end_time": 0.21363636363636362,
                "pitch": 43,
                "velocity": 101,
                "duration": 0.16363636363636364,
                "tempo": 120.0
            },
            {
                "start_time": 0.21363636363636362,
                "end_time": 0.25227272727272726,
                "pitch": 43,
                "velocity": 101,
                "duration": 0.038636363636363635,
                "tempo": 120.0
            },
            {
                "start_time": 0.25227272727272726,
                "end_time": 0.2772727272727273,
                "pitch": 43,
                "velocity": 101,
                "duration": 0.025000000000000022,
                "tempo": 120.0
            },
            {
                "start_time": 0.2772727272727273,
                "end_time": 0.32727272727272727,
                "pitch": 43,
                "velocity": 101,
                "duration": 0.04999999999999999,
                "tempo": 120.0
            },
            {
                "start_time": 0.32727272727272727,
                "end_time": 0.5272727272727272,
                "pitch": 43,
                "velocity": 101,
                "duration": 0.19999999999999996,
                "tempo": 120.0
            },
            {
                "start_time": 0.5272727272727272,
                "end_time": 0.5772727272727273,
                "pitch": 43,
                "velocity": 101,
                "duration": 0.050000000000000044,
                "tempo": 120.0
            },
            {
                "start_time": 0.5772727272727273,
                "end_time": 0.6113636363636363,
                "pitch": 43,
                "velocity": 101,
                "duration": 0.03409090909090906,
                "tempo": 120.0
            },
            {
                "start_time": 0.6113636363636363,
                "end_time": 0.6772727272727272,
                "pitch": 43,
                "velocity": 101,
                "duration": 0.06590909090909092,
                "tempo": 120.0
            },
            {
                "start_time": 0.6772727272727272,
                "end_time": 0.8772727272727272,
                "pitch": 43,
                "velocity": 101,
                "duration": 0.19999999999999996,
                "tempo": 120.0
            },
            {
                "start_time": 0.8772727272727272,
                "end_time": 0.8954545454545454,
                "pitch": 43,
                "velocity": 101,
                "duration": 0.018181818181818188,
                "tempo": 120.0
            },
            {
                "start_time": 0.8954545454545454,
                "end_time": 0.9113636363636363,
                "pitch": 43,
                "velocity": 101,
                "duration": 0.015909090909090873,
                "tempo": 120.0
            },
            {
                "start_time": 0.9295454545454545,
                "end_time": 1.9909090909090907,
                "pitch": 38,
                "velocity": 101,
                "duration": 1.0613636363636363,
                "tempo": 120.0
            },
            {
                "start_time": 2.006818181818182,
                "end_time": 3.059090909090909,
                "pitch": 41,
                "velocity": 101,
                "duration": 1.0522727272727272,
                "tempo": 120.0
            },
            {
                "start_time": 3.0749999999999997,
                "end_time": 4.136363636363636,
                "pitch": 42,
                "velocity": 101,
                "duration": 1.061363636363636,
                "tempo": 120.0
            },
            {
                "start_time": 4.154545454545454,
                "end_time": 4.222727272727273,
                "pitch": 43,
                "velocity": 101,
                "duration": 0.06818181818181834,
                "tempo": 120.0
            },
            {
                "start_time": 4.222727272727273,
                "end_time": 4.443181818181818,
                "pitch": 43,
                "velocity": 101,
                "duration": 0.22045454545454568,
                "tempo": 120.0
            },
            {
                "start_time": 4.443181818181818,
                "end_time": 4.493181818181818,
                "pitch": 43,
                "velocity": 101,
                "duration": 0.04999999999999982,
                "tempo": 120.0
            },
            {
                "start_time": 4.493181818181818,
                "end_time": 4.527272727272727,
                "pitch": 43,
                "velocity": 101,
                "duration": 0.03409090909090917,
                "tempo": 120.0
            },
            {
                "start_time": 4.527272727272727,
                "end_time": 4.595454545454545,
                "pitch": 43,
                "velocity": 101,
                "duration": 0.06818181818181746,
                "tempo": 120.0
            },
            {
                "start_time": 4.595454545454545,
                "end_time": 4.8136363636363635,
                "pitch": 43,
                "velocity": 101,
                "duration": 0.2181818181818187,
                "tempo": 120.0
            },
            {
                "start_time": 4.8136363636363635,
                "end_time": 4.86590909090909,
                "pitch": 43,
                "velocity": 101,
                "duration": 0.052272727272726804,
                "tempo": 120.0
            },
            {
                "start_time": 4.86590909090909,
                "end_time": 4.8977272727272725,
                "pitch": 43,
                "velocity": 101,
                "duration": 0.03181818181818219,
                "tempo": 120.0
            },
            {
                "start_time": 4.8977272727272725,
                "end_time": 4.965909090909091,
                "pitch": 43,
                "velocity": 101,
                "duration": 0.06818181818181834,
                "tempo": 120.0
            },
            {
                "start_time": 4.965909090909091,
                "end_time": 5.181818181818182,
                "pitch": 43,
                "velocity": 101,
                "duration": 0.21590909090909083,
                "tempo": 120.0
            }
        ],
        "Oboe": [
            {
                "start_time": 0.125,
                "end_time": 0.23863636363636362,
                "pitch": 55,
                "velocity": 64,
                "duration": 0.11363636363636362,
                "tempo": 120.0
            },
            {
                "start_time": 0.23863636363636362,
                "end_time": 0.28863636363636364,
                "pitch": 55,
                "velocity": 64,
                "duration": 0.05000000000000002,
                "tempo": 120.0
            },
            {
                "start_time": 0.28863636363636364,
                "end_time": 0.8772727272727272,
                "pitch": 55,
                "velocity": 64,
                "duration": 0.5886363636363636,
                "tempo": 120.0
            },
            {
                "start_time": 0.8772727272727272,
                "end_time": 1.0954545454545455,
                "pitch": 55,
                "velocity": 64,
                "duration": 0.21818181818181825,
                "tempo": 120.0
            },
            {
                "start_time": 1.1113636363636363,
                "end_time": 2.172727272727273,
                "pitch": 50,
                "velocity": 64,
                "duration": 1.0613636363636365,
                "tempo": 120.0
            },
            {
                "start_time": 2.190909090909091,
                "end_time": 3.245454545454545,
                "pitch": 53,
                "velocity": 64,
                "duration": 1.0545454545454542,
                "tempo": 120.0
            },
            {
                "start_time": 3.2636363636363637,
                "end_time": 4.325,
                "pitch": 54,
                "velocity": 64,
                "duration": 1.0613636363636365,
                "tempo": 120.0
            },
            {
                "start_time": 4.340909090909091,
                "end_time": 4.493181818181818,
                "pitch": 55,
                "velocity": 64,
                "duration": 0.15227272727272734,
                "tempo": 120.0
            },
            {
                "start_time": 4.493181818181818,
                "end_time": 4.5613636363636365,
                "pitch": 55,
                "velocity": 64,
                "duration": 0.06818181818181834,
                "tempo": 120.0
            },
            {
                "start_time": 4.5613636363636365,
                "end_time": 5.181818181818182,
                "pitch": 55,
                "velocity": 64,
                "duration": 0.6204545454545451,
                "tempo": 120.0
            }
        ],
        "Trumpet": [
            {
                "start_time": 0.18863636363636363,
                "end_time": 0.8772727272727272,
                "pitch": 55,
                "velocity": 51,
                "duration": 0.6886363636363636,
                "tempo": 120.0
            },
            {
                "start_time": 0.8772727272727272,
                "end_time": 1.1795454545454545,
                "pitch": 55,
                "velocity": 51,
                "duration": 0.30227272727272725,
                "tempo": 120.0
            },
            {
                "start_time": 1.1954545454545453,
                "end_time": 2.256818181818182,
                "pitch": 50,
                "velocity": 51,
                "duration": 1.0613636363636365,
                "tempo": 120.0
            },
            {
                "start_time": 2.275,
                "end_time": 3.3318181818181816,
                "pitch": 53,
                "velocity": 51,
                "duration": 1.0568181818181817,
                "tempo": 120.0
            },
            {
                "start_time": 3.3477272727272727,
                "end_time": 4.409090909090909,
                "pitch": 54,
                "velocity": 51,
                "duration": 1.0613636363636365,
                "tempo": 120.0
            },
            {
                "start_time": 4.425,
                "end_time": 5.181818181818182,
                "pitch": 55,
                "velocity": 51,
                "duration": 0.7568181818181818,
                "tempo": 120.0
            }
        ]
    }
}