{
    "track_id": "Ys (FM) - 09 -  Beat of the Terror",
    "mood": "angry",
    "instruments": {
        "Church Organ": [
            {
                "start_time": 74.84318181818182,
                "end_time": 74.96136363636363,
                "pitch": 68,
                "velocity": 64,
                "duration": 0.11818181818181017,
                "tempo": 120.0
            },
            {
                "start_time": 74.97954545454544,
                "end_time": 75.09772727272727,
                "pitch": 70,
                "velocity": 64,
                "duration": 0.11818181818182438,
                "tempo": 120.0
            },
            {
                "start_time": 75.11590909090908,
                "end_time": 76.97727272727272,
                "pitch": 71,
                "velocity": 64,
                "duration": 1.8613636363636346,
                "tempo": 120.0
            },
            {
                "start_time": 76.99545454545454,
                "end_time": 77.11136363636363,
                "pitch": 71,
                "velocity": 64,
                "duration": 0.11590909090909918,
                "tempo": 120.0
            },
            {
                "start_time": 77.12954545454545,
                "end_time": 77.24545454545454,
                "pitch": 73,
                "velocity": 64,
                "duration": 0.11590909090908497,
                "tempo": 120.0
            },
            {
                "start_time": 77.26136363636363,
                "end_time": 79.40227272727272,
                "pitch": 75,
                "velocity": 64,
                "duration": 2.1409090909090907,
                "tempo": 120.0
            }
        ],
        "Clarinet": [
            {
                "start_time": 4.159090909090909,
                "end_time": 4.543181818181818,
                "pitch": 56,
                "velocity": 51,
                "duration": 0.3840909090909088,
                "tempo": 120.0
            },
            {
                "start_time": 4.559090909090909,
                "end_time": 4.677272727272727,
                "pitch": 56,
                "velocity": 51,
                "duration": 0.11818181818181817,
                "tempo": 120.0
            },
            {
                "start_time": 4.954545454545454,
                "end_time": 5.338636363636363,
                "pitch": 56,
                "velocity": 51,
                "duration": 0.3840909090909088,
                "tempo": 120.0
            },
            {
                "start_time": 5.3568181818181815,
                "end_time": 5.477272727272727,
                "pitch": 56,
                "velocity": 51,
                "duration": 0.12045454545454515,
                "tempo": 120.0
            },
            {
                "start_time": 5.7704545454545455,
                "end_time": 5.888636363636364,
                "pitch": 56,
                "velocity": 51,
                "duration": 0.11818181818181817,
                "tempo": 120.0
            },
            {
                "start_time": 5.904545454545454,
                "end_time": 6.0227272727272725,
                "pitch": 56,
                "velocity": 51,
                "duration": 0.11818181818181817,
                "tempo": 120.0
            },
            {
                "start_time": 6.038636363636363,
                "end_time": 6.154545454545454,
                "pitch": 56,
                "velocity": 51,
                "duration": 0.11590909090909118,
                "tempo": 120.0
            },
            {
                "start_time": 6.306818181818182,
                "end_time": 6.6909090909090905,
                "pitch": 56,
                "velocity": 51,
                "duration": 0.3840909090909088,
                "tempo": 120.0
            },
            {
                "start_time": 6.706818181818181,
                "end_time": 6.822727272727272,
                "pitch": 56,
                "velocity": 51,
                "duration": 0.11590909090909118,
                "tempo": 120.0
            },
            {
                "start_time": 7.097727272727273,
                "end_time": 7.4795454545454545,
                "pitch": 56,
                "velocity": 51,
                "duration": 0.38181818181818183,
                "tempo": 120.0
            },
            {
                "start_time": 7.495454545454545,
                "end_time": 7.620454545454545,
                "pitch": 56,
                "velocity": 51,
                "duration": 0.125,
                "tempo": 120.0
            },
            {
                "start_time": 7.918181818181818,
                "end_time": 8.036363636363635,
                "pitch": 56,
                "velocity": 51,
                "duration": 0.11818181818181728,
                "tempo": 120.0
            },
            {
                "start_time": 8.052272727272728,
                "end_time": 8.170454545454545,
                "pitch": 56,
                "velocity": 51,
                "duration": 0.11818181818181728,
                "tempo": 120.0
            },
            {
                "start_time": 8.186363636363636,
                "end_time": 8.304545454545455,
                "pitch": 56,
                "velocity": 51,
                "duration": 0.11818181818181905,
                "tempo": 120.0
            },
            {
                "start_time": 8.454545454545453,
                "end_time": 8.845454545454546,
                "pitch": 56,
                "velocity": 51,
                "duration": 0.3909090909090924,
                "tempo": 120.0
            },
            {
                "start_time": 8.861363636363636,
                "end_time": 8.98181818181818,
                "pitch": 56,
                "velocity": 51,
                "duration": 0.12045454545454426,
                "tempo": 120.0
            },
            {
                "start_time": 9.26590909090909,
                "end_time": 10.593181818181817,
                "pitch": 56,
                "velocity": 51,
                "duration": 1.3272727272727263,
                "tempo": 120.0
            },
            {
                "start_time": 12.756818181818181,
                "end_time": 13.147727272727272,
                "pitch": 56,
                "velocity": 51,
                "duration": 0.39090909090909065,
                "tempo": 120.0
            },
            {
                "start_time": 13.165909090909091,
                "end_time": 13.284090909090908,
                "pitch": 56,
                "velocity": 51,
                "duration": 0.11818181818181728,
                "tempo": 120.0
            },
            {
                "start_time": 13.559090909090909,
                "end_time": 13.938636363636363,
                "pitch": 56,
                "velocity": 51,
                "duration": 0.37954545454545396,
                "tempo": 120.0
            },
            {
                "start_time": 13.954545454545453,
                "end_time": 14.077272727272726,
                "pitch": 56,
                "velocity": 51,
                "duration": 0.12272727272727302,
                "tempo": 120.0
            },
            {
                "start_time": 14.370454545454544,
                "end_time": 14.488636363636363,
                "pitch": 56,
                "velocity": 51,
                "duration": 0.11818181818181905,
                "tempo": 120.0
            },
            {
                "start_time": 14.504545454545454,
                "end_time": 14.620454545454544,
                "pitch": 56,
                "velocity": 51,
                "duration": 0.1159090909090903,
                "tempo": 120.0
            },
            {
                "start_time": 14.638636363636364,
                "end_time": 14.754545454545454,
                "pitch": 56,
                "velocity": 51,
                "duration": 0.1159090909090903,
                "tempo": 120.0
            },
            {
                "start_time": 14.904545454545454,
                "end_time": 15.288636363636362,
                "pitch": 56,
                "velocity": 51,
                "duration": 0.38409090909090793,
                "tempo": 120.0
            },
            {
                "start_time": 15.306818181818182,
                "end_time": 15.422727272727272,
                "pitch": 56,
                "velocity": 51,
                "duration": 0.1159090909090903,
                "tempo": 120.0
            },
            {
                "start_time": 15.702272727272726,
                "end_time": 16.086363636363636,
                "pitch": 56,
                "velocity": 51,
                "duration": 0.3840909090909097,
                "tempo": 120.0
            },
            {
                "start_time": 16.102272727272727,
                "end_time": 16.222727272727273,
                "pitch": 56,
                "velocity": 51,
                "duration": 0.12045454545454604,
                "tempo": 120.0
            },
            {
                "start_time": 16.518181818181816,
                "end_time": 16.636363636363637,
                "pitch": 56,
                "velocity": 51,
                "duration": 0.11818181818182083,
                "tempo": 120.0
            },
            {
                "start_time": 16.654545454545453,
                "end_time": 16.772727272727273,
                "pitch": 56,
                "velocity": 51,
                "duration": 0.11818181818182083,
                "tempo": 120.0
            },
            {
                "start_time": 16.79090909090909,
                "end_time": 16.909090909090907,
                "pitch": 56,
                "velocity": 51,
                "duration": 0.11818181818181728,
                "tempo": 120.0
            },
            {
                "start_time": 17.061363636363634,
                "end_time": 17.44090909090909,
                "pitch": 56,
                "velocity": 51,
                "duration": 0.3795454545454575,
                "tempo": 120.0
            },
            {
                "start_time": 17.456818181818182,
                "end_time": 17.570454545454545,
                "pitch": 56,
                "velocity": 51,
                "duration": 0.11363636363636331,
                "tempo": 120.0
            },
            {
                "start_time": 17.85909090909091,
                "end_time": 19.193181818181817,
                "pitch": 56,
                "velocity": 51,
                "duration": 1.3340909090909072,
                "tempo": 120.0
            },
            {
                "start_time": 21.35681818181818,
                "end_time": 21.74772727272727,
                "pitch": 56,
                "velocity": 51,
                "duration": 0.39090909090909065,
                "tempo": 120.0
            },
            {
                "start_time": 21.763636363636362,
                "end_time": 21.884090909090908,
                "pitch": 56,
                "velocity": 51,
                "duration": 0.12045454545454604,
                "tempo": 120.0
            },
            {
                "start_time": 22.159090909090907,
                "end_time": 22.536363636363635,
                "pitch": 56,
                "velocity": 51,
                "duration": 0.37727272727272876,
                "tempo": 120.0
            },
            {
                "start_time": 22.554545454545455,
                "end_time": 22.674999999999997,
                "pitch": 56,
                "velocity": 51,
                "duration": 0.12045454545454248,
                "tempo": 120.0
            },
            {
                "start_time": 22.970454545454544,
                "end_time": 23.08863636363636,
                "pitch": 56,
                "velocity": 51,
                "duration": 0.11818181818181728,
                "tempo": 120.0
            },
            {
                "start_time": 23.10681818181818,
                "end_time": 23.224999999999998,
                "pitch": 56,
                "velocity": 51,
                "duration": 0.11818181818181728,
                "tempo": 120.0
            },
            {
                "start_time": 23.243181818181817,
                "end_time": 23.361363636363635,
                "pitch": 56,
                "velocity": 51,
                "duration": 0.11818181818181728,
                "tempo": 120.0
            },
            {
                "start_time": 23.513636363636362,
                "end_time": 23.89090909090909,
                "pitch": 56,
                "velocity": 51,
                "duration": 0.37727272727272876,
                "tempo": 120.0
            },
            {
                "start_time": 23.90681818181818,
                "end_time": 24.02272727272727,
                "pitch": 56,
                "velocity": 51,
                "duration": 0.11590909090908852,
                "tempo": 120.0
            },
            {
                "start_time": 24.302272727272726,
                "end_time": 24.686363636363634,
                "pitch": 56,
                "velocity": 51,
                "duration": 0.38409090909090793,
                "tempo": 120.0
            },
            {
                "start_time": 24.702272727272724,
                "end_time": 24.82272727272727,
                "pitch": 56,
                "velocity": 51,
                "duration": 0.12045454545454604,
                "tempo": 120.0
            },
            {
                "start_time": 25.118181818181817,
                "end_time": 25.236363636363635,
                "pitch": 56,
                "velocity": 51,
                "duration": 0.11818181818181728,
                "tempo": 120.0
            },
            {
                "start_time": 25.254545454545454,
                "end_time": 25.37272727272727,
                "pitch": 56,
                "velocity": 51,
                "duration": 0.11818181818181728,
                "tempo": 120.0
            },
            {
                "start_time": 25.39090909090909,
                "end_time": 25.509090909090908,
                "pitch": 56,
                "velocity": 51,
                "duration": 0.11818181818181728,
                "tempo": 120.0
            },
            {
                "start_time": 25.661363636363635,
                "end_time": 26.045454545454543,
                "pitch": 56,
                "velocity": 51,
                "duration": 0.38409090909090793,
                "tempo": 120.0
            },
            {
                "start_time": 26.063636363636363,
                "end_time": 26.179545454545455,
                "pitch": 56,
                "velocity": 51,
                "duration": 0.11590909090909207,
                "tempo": 120.0
            },
            {
                "start_time": 26.459090909090907,
                "end_time": 27.793181818181818,
                "pitch": 56,
                "velocity": 51,
                "duration": 1.3340909090909108,
                "tempo": 120.0
            }
        ],
        "Trumpet": [
            {
                "start_time": 47.70681818181818,
                "end_time": 47.95681818181818,
                "pitch": 73,
                "velocity": 80,
                "duration": 0.25,
                "tempo": 120.0
            },
            {
                "start_time": 47.974999999999994,
                "end_time": 49.293181818181814,
                "pitch": 68,
                "velocity": 80,
                "duration": 1.3181818181818201,
                "tempo": 120.0
            },
            {
                "start_time": 49.57727272727273,
                "end_time": 49.82727272727273,
                "pitch": 75,
                "velocity": 80,
                "duration": 0.25,
                "tempo": 120.0
            },
            {
                "start_time": 49.845454545454544,
                "end_time": 50.10454545454545,
                "pitch": 73,
                "velocity": 80,
                "duration": 0.25909090909090793,
                "tempo": 120.0
            },
            {
                "start_time": 50.12045454545454,
                "end_time": 50.38181818181818,
                "pitch": 68,
                "velocity": 80,
                "duration": 0.26136363636364024,
                "tempo": 120.0
            },
            {
                "start_time": 50.39772727272727,
                "end_time": 50.65,
                "pitch": 75,
                "velocity": 80,
                "duration": 0.2522727272727252,
                "tempo": 120.0
            },
            {
                "start_time": 50.66590909090909,
                "end_time": 50.91590909090909,
                "pitch": 73,
                "velocity": 80,
                "duration": 0.25,
                "tempo": 120.0
            },
            {
                "start_time": 50.93181818181818,
                "end_time": 51.449999999999996,
                "pitch": 68,
                "velocity": 80,
                "duration": 0.5181818181818159,
                "tempo": 120.0
            },
            {
                "start_time": 51.46818181818182,
                "end_time": 51.98409090909091,
                "pitch": 75,
                "velocity": 80,
                "duration": 0.5159090909090907,
                "tempo": 120.0
            },
            {
                "start_time": 52.002272727272725,
                "end_time": 52.25681818181818,
                "pitch": 73,
                "velocity": 80,
                "duration": 0.2545454545454575,
                "tempo": 120.0
            },
            {
                "start_time": 52.27272727272727,
                "end_time": 53.59772727272727,
                "pitch": 68,
                "velocity": 80,
                "duration": 1.3249999999999957,
                "tempo": 120.0
            },
            {
                "start_time": 53.88181818181818,
                "end_time": 54.13181818181818,
                "pitch": 75,
                "velocity": 80,
                "duration": 0.25,
                "tempo": 120.0
            },
            {
                "start_time": 54.14772727272727,
                "end_time": 54.40454545454545,
                "pitch": 73,
                "velocity": 80,
                "duration": 0.2568181818181756,
                "tempo": 120.0
            },
            {
                "start_time": 54.42045454545454,
                "end_time": 54.675,
                "pitch": 68,
                "velocity": 80,
                "duration": 0.2545454545454575,
                "tempo": 120.0
            },
            {
                "start_time": 54.69318181818181,
                "end_time": 54.94318181818181,
                "pitch": 75,
                "velocity": 80,
                "duration": 0.25,
                "tempo": 120.0
            },
            {
                "start_time": 54.959090909090904,
                "end_time": 55.211363636363636,
                "pitch": 73,
                "velocity": 80,
                "duration": 0.2522727272727323,
                "tempo": 120.0
            },
            {
                "start_time": 55.22727272727273,
                "end_time": 55.75454545454545,
                "pitch": 68,
                "velocity": 80,
                "duration": 0.5272727272727238,
                "tempo": 120.0
            },
            {
                "start_time": 55.77045454545454,
                "end_time": 56.27954545454545,
                "pitch": 76,
                "velocity": 80,
                "duration": 0.5090909090909079,
                "tempo": 120.0
            },
            {
                "start_time": 56.29545454545454,
                "end_time": 56.55,
                "pitch": 74,
                "velocity": 80,
                "duration": 0.2545454545454575,
                "tempo": 120.0
            },
            {
                "start_time": 56.56818181818181,
                "end_time": 57.89090909090909,
                "pitch": 69,
                "velocity": 80,
                "duration": 1.3227272727272776,
                "tempo": 120.0
            },
            {
                "start_time": 58.179545454545455,
                "end_time": 58.43636363636363,
                "pitch": 76,
                "velocity": 80,
                "duration": 0.2568181818181756,
                "tempo": 120.0
            },
            {
                "start_time": 58.45227272727272,
                "end_time": 58.70681818181818,
                "pitch": 74,
                "velocity": 80,
                "duration": 0.2545454545454575,
                "tempo": 120.0
            },
            {
                "start_time": 58.724999999999994,
                "end_time": 58.97954545454545,
                "pitch": 69,
                "velocity": 80,
                "duration": 0.2545454545454575,
                "tempo": 120.0
            },
            {
                "start_time": 58.99545454545454,
                "end_time": 59.24772727272727,
                "pitch": 76,
                "velocity": 80,
                "duration": 0.2522727272727252,
                "tempo": 120.0
            },
            {
                "start_time": 59.26363636363636,
                "end_time": 59.51363636363636,
                "pitch": 74,
                "velocity": 80,
                "duration": 0.25,
                "tempo": 120.0
            },
            {
                "start_time": 59.53181818181818,
                "end_time": 60.04772727272727,
                "pitch": 69,
                "velocity": 80,
                "duration": 0.5159090909090907,
                "tempo": 120.0
            },
            {
                "start_time": 60.06590909090909,
                "end_time": 60.584090909090904,
                "pitch": 76,
                "velocity": 80,
                "duration": 0.5181818181818159,
                "tempo": 120.0
            },
            {
                "start_time": 60.599999999999994,
                "end_time": 60.85454545454545,
                "pitch": 74,
                "velocity": 80,
                "duration": 0.2545454545454575,
                "tempo": 120.0
            },
            {
                "start_time": 60.87045454545454,
                "end_time": 62.195454545454545,
                "pitch": 69,
                "velocity": 80,
                "duration": 1.3250000000000028,
                "tempo": 120.0
            },
            {
                "start_time": 62.474999999999994,
                "end_time": 62.720454545454544,
                "pitch": 76,
                "velocity": 80,
                "duration": 0.2454545454545496,
                "tempo": 120.0
            },
            {
                "start_time": 62.736363636363635,
                "end_time": 62.99545454545454,
                "pitch": 74,
                "velocity": 80,
                "duration": 0.25909090909090793,
                "tempo": 120.0
            },
            {
                "start_time": 63.01363636363636,
                "end_time": 63.272727272727266,
                "pitch": 69,
                "velocity": 80,
                "duration": 0.25909090909090793,
                "tempo": 120.0
            },
            {
                "start_time": 63.29090909090909,
                "end_time": 63.54545454545454,
                "pitch": 76,
                "velocity": 80,
                "duration": 0.2545454545454504,
                "tempo": 120.0
            },
            {
                "start_time": 63.56363636363636,
                "end_time": 63.81818181818181,
                "pitch": 74,
                "velocity": 80,
                "duration": 0.2545454545454504,
                "tempo": 120.0
            },
            {
                "start_time": 63.834090909090904,
                "end_time": 64.35227272727272,
                "pitch": 59,
                "velocity": 80,
                "duration": 0.5181818181818159,
                "tempo": 120.0
            },
            {
                "start_time": 64.37045454545454,
                "end_time": 64.61590909090908,
                "pitch": 64,
                "velocity": 80,
                "duration": 0.2454545454545496,
                "tempo": 120.0
            },
            {
                "start_time": 64.63181818181818,
                "end_time": 64.87727272727273,
                "pitch": 57,
                "velocity": 51,
                "duration": 0.2454545454545496,
                "tempo": 120.0
            },
            {
                "start_time": 64.89545454545454,
                "end_time": 65.14999999999999,
                "pitch": 62,
                "velocity": 51,
                "duration": 0.2545454545454504,
                "tempo": 120.0
            },
            {
                "start_time": 65.16590909090908,
                "end_time": 65.42045454545455,
                "pitch": 57,
                "velocity": 51,
                "duration": 0.2545454545454646,
                "tempo": 120.0
            },
            {
                "start_time": 65.43863636363636,
                "end_time": 65.68863636363636,
                "pitch": 60,
                "velocity": 51,
                "duration": 0.25,
                "tempo": 120.0
            },
            {
                "start_time": 65.70681818181818,
                "end_time": 65.95681818181818,
                "pitch": 57,
                "velocity": 51,
                "duration": 0.25,
                "tempo": 120.0
            },
            {
                "start_time": 65.97272727272727,
                "end_time": 66.22727272727272,
                "pitch": 62,
                "velocity": 51,
                "duration": 0.2545454545454504,
                "tempo": 120.0
            },
            {
                "start_time": 66.24545454545454,
                "end_time": 66.5,
                "pitch": 57,
                "velocity": 51,
                "duration": 0.2545454545454646,
                "tempo": 120.0
            },
            {
                "start_time": 66.51590909090909,
                "end_time": 66.76818181818182,
                "pitch": 64,
                "velocity": 51,
                "duration": 0.2522727272727252,
                "tempo": 120.0
            },
            {
                "start_time": 66.7840909090909,
                "end_time": 67.0340909090909,
                "pitch": 57,
                "velocity": 51,
                "duration": 0.25,
                "tempo": 120.0
            },
            {
                "start_time": 67.05227272727272,
                "end_time": 67.30227272727272,
                "pitch": 62,
                "velocity": 51,
                "duration": 0.25,
                "tempo": 120.0
            },
            {
                "start_time": 67.31818181818181,
                "end_time": 67.56818181818181,
                "pitch": 57,
                "velocity": 51,
                "duration": 0.25,
                "tempo": 120.0
            },
            {
                "start_time": 67.58636363636363,
                "end_time": 67.83636363636363,
                "pitch": 60,
                "velocity": 51,
                "duration": 0.25,
                "tempo": 120.0
            },
            {
                "start_time": 67.85227272727272,
                "end_time": 68.10227272727272,
                "pitch": 57,
                "velocity": 51,
                "duration": 0.25,
                "tempo": 120.0
            },
            {
                "start_time": 68.12045454545454,
                "end_time": 68.375,
                "pitch": 62,
                "velocity": 51,
                "duration": 0.2545454545454646,
                "tempo": 120.0
            },
            {
                "start_time": 68.39090909090909,
                "end_time": 68.64772727272727,
                "pitch": 57,
                "velocity": 51,
                "duration": 0.2568181818181756,
                "tempo": 120.0
            },
            {
                "start_time": 68.66363636363636,
                "end_time": 68.91363636363636,
                "pitch": 72,
                "velocity": 51,
                "duration": 0.25,
                "tempo": 120.0
            },
            {
                "start_time": 68.93181818181817,
                "end_time": 69.18181818181817,
                "pitch": 64,
                "velocity": 51,
                "duration": 0.25,
                "tempo": 120.0
            },
            {
                "start_time": 69.19772727272726,
                "end_time": 69.45227272727273,
                "pitch": 71,
                "velocity": 51,
                "duration": 0.2545454545454646,
                "tempo": 120.0
            },
            {
                "start_time": 69.47045454545454,
                "end_time": 69.725,
                "pitch": 64,
                "velocity": 51,
                "duration": 0.2545454545454504,
                "tempo": 120.0
            },
            {
                "start_time": 69.74318181818181,
                "end_time": 69.99318181818181,
                "pitch": 69,
                "velocity": 51,
                "duration": 0.25,
                "tempo": 120.0
            },
            {
                "start_time": 70.0090909090909,
                "end_time": 70.2590909090909,
                "pitch": 64,
                "velocity": 51,
                "duration": 0.25,
                "tempo": 120.0
            },
            {
                "start_time": 70.27727272727273,
                "end_time": 70.52727272727273,
                "pitch": 71,
                "velocity": 51,
                "duration": 0.25,
                "tempo": 120.0
            },
            {
                "start_time": 70.54318181818182,
                "end_time": 70.79545454545455,
                "pitch": 64,
                "velocity": 51,
                "duration": 0.2522727272727252,
                "tempo": 120.0
            },
            {
                "start_time": 70.81136363636364,
                "end_time": 71.06136363636364,
                "pitch": 72,
                "velocity": 51,
                "duration": 0.25,
                "tempo": 120.0
            },
            {
                "start_time": 71.07727272727273,
                "end_time": 71.32954545454545,
                "pitch": 64,
                "velocity": 51,
                "duration": 0.2522727272727252,
                "tempo": 120.0
            },
            {
                "start_time": 71.34545454545454,
                "end_time": 71.6,
                "pitch": 71,
                "velocity": 51,
                "duration": 0.2545454545454504,
                "tempo": 120.0
            },
            {
                "start_time": 71.61818181818181,
                "end_time": 71.87272727272727,
                "pitch": 64,
                "velocity": 51,
                "duration": 0.2545454545454646,
                "tempo": 120.0
            },
            {
                "start_time": 71.88863636363637,
                "end_time": 72.14090909090909,
                "pitch": 69,
                "velocity": 51,
                "duration": 0.2522727272727252,
                "tempo": 120.0
            },
            {
                "start_time": 72.15681818181818,
                "end_time": 72.40681818181818,
                "pitch": 64,
                "velocity": 51,
                "duration": 0.25,
                "tempo": 120.0
            },
            {
                "start_time": 72.42272727272727,
                "end_time": 72.67954545454545,
                "pitch": 71,
                "velocity": 51,
                "duration": 0.2568181818181756,
                "tempo": 120.0
            },
            {
                "start_time": 72.69545454545454,
                "end_time": 72.95,
                "pitch": 64,
                "velocity": 51,
                "duration": 0.2545454545454646,
                "tempo": 120.0
            },
            {
                "start_time": 72.96818181818182,
                "end_time": 73.22272727272727,
                "pitch": 71,
                "velocity": 51,
                "duration": 0.2545454545454504,
                "tempo": 120.0
            },
            {
                "start_time": 73.23863636363636,
                "end_time": 73.49545454545454,
                "pitch": 63,
                "velocity": 51,
                "duration": 0.2568181818181756,
                "tempo": 120.0
            },
            {
                "start_time": 73.51136363636363,
                "end_time": 73.75681818181818,
                "pitch": 70,
                "velocity": 51,
                "duration": 0.2454545454545496,
                "tempo": 120.0
            },
            {
                "start_time": 73.77499999999999,
                "end_time": 74.02045454545454,
                "pitch": 63,
                "velocity": 51,
                "duration": 0.2454545454545496,
                "tempo": 120.0
            },
            {
                "start_time": 74.03636363636363,
                "end_time": 74.28636363636363,
                "pitch": 68,
                "velocity": 51,
                "duration": 0.25,
                "tempo": 120.0
            },
            {
                "start_time": 74.30454545454545,
                "end_time": 74.55454545454545,
                "pitch": 63,
                "velocity": 51,
                "duration": 0.25,
                "tempo": 120.0
            },
            {
                "start_time": 74.57045454545454,
                "end_time": 74.825,
                "pitch": 70,
                "velocity": 51,
                "duration": 0.2545454545454646,
                "tempo": 120.0
            },
            {
                "start_time": 74.84318181818182,
                "end_time": 75.09772727272727,
                "pitch": 63,
                "velocity": 51,
                "duration": 0.2545454545454504,
                "tempo": 120.0
            },
            {
                "start_time": 75.11590909090908,
                "end_time": 75.36590909090908,
                "pitch": 71,
                "velocity": 51,
                "duration": 0.25,
                "tempo": 120.0
            },
            {
                "start_time": 75.38181818181818,
                "end_time": 75.63181818181818,
                "pitch": 63,
                "velocity": 51,
                "duration": 0.25,
                "tempo": 120.0
            },
            {
                "start_time": 75.64999999999999,
                "end_time": 75.90454545454546,
                "pitch": 70,
                "velocity": 51,
                "duration": 0.2545454545454646,
                "tempo": 120.0
            },
            {
                "start_time": 75.92045454545455,
                "end_time": 76.17727272727272,
                "pitch": 63,
                "velocity": 51,
                "duration": 0.2568181818181756,
                "tempo": 120.0
            },
            {
                "start_time": 76.19318181818181,
                "end_time": 76.44318181818181,
                "pitch": 68,
                "velocity": 51,
                "duration": 0.25,
                "tempo": 120.0
            },
            {
                "start_time": 76.46136363636363,
                "end_time": 76.71136363636363,
                "pitch": 63,
                "velocity": 51,
                "duration": 0.25,
                "tempo": 120.0
            },
            {
                "start_time": 76.72727272727272,
                "end_time": 76.97727272727272,
                "pitch": 70,
                "velocity": 51,
                "duration": 0.25,
                "tempo": 120.0
            },
            {
                "start_time": 76.99545454545454,
                "end_time": 77.24545454545454,
                "pitch": 63,
                "velocity": 51,
                "duration": 0.25,
                "tempo": 120.0
            },
            {
                "start_time": 77.26136363636363,
                "end_time": 77.51363636363637,
                "pitch": 71,
                "velocity": 51,
                "duration": 0.2522727272727394,
                "tempo": 120.0
            },
            {
                "start_time": 77.52954545454546,
                "end_time": 77.77954545454546,
                "pitch": 63,
                "velocity": 51,
                "duration": 0.25,
                "tempo": 120.0
            },
            {
                "start_time": 77.79772727272727,
                "end_time": 78.05227272727272,
                "pitch": 70,
                "velocity": 51,
                "duration": 0.2545454545454504,
                "tempo": 120.0
            },
            {
                "start_time": 78.06818181818181,
                "end_time": 78.32272727272726,
                "pitch": 63,
                "velocity": 51,
                "duration": 0.2545454545454504,
                "tempo": 120.0
            },
            {
                "start_time": 78.3409090909091,
                "end_time": 78.5909090909091,
                "pitch": 68,
                "velocity": 51,
                "duration": 0.25,
                "tempo": 120.0
            },
            {
                "start_time": 78.60681818181818,
                "end_time": 78.85909090909091,
                "pitch": 63,
                "velocity": 51,
                "duration": 0.2522727272727252,
                "tempo": 120.0
            },
            {
                "start_time": 78.875,
                "end_time": 79.12954545454545,
                "pitch": 70,
                "velocity": 51,
                "duration": 0.2545454545454504,
                "tempo": 120.0
            },
            {
                "start_time": 79.14772727272727,
                "end_time": 79.40227272727272,
                "pitch": 63,
                "velocity": 51,
                "duration": 0.2545454545454504,
                "tempo": 120.0
            },
            {
                "start_time": 79.41818181818181,
                "end_time": 79.67045454545455,
                "pitch": 71,
                "velocity": 51,
                "duration": 0.2522727272727394,
                "tempo": 120.0
            },
            {
                "start_time": 79.68636363636364,
                "end_time": 79.93636363636364,
                "pitch": 63,
                "velocity": 51,
                "duration": 0.25,
                "tempo": 120.0
            },
            {
                "start_time": 79.95227272727273,
                "end_time": 80.20454545454545,
                "pitch": 70,
                "velocity": 51,
                "duration": 0.2522727272727252,
                "tempo": 120.0
            },
            {
                "start_time": 80.22045454545454,
                "end_time": 80.47045454545454,
                "pitch": 63,
                "velocity": 51,
                "duration": 0.25,
                "tempo": 120.0
            },
            {
                "start_time": 80.48863636363636,
                "end_time": 80.73863636363636,
                "pitch": 68,
                "velocity": 51,
                "duration": 0.25,
                "tempo": 120.0
            },
            {
                "start_time": 80.75454545454545,
                "end_time": 81.00454545454545,
                "pitch": 63,
                "velocity": 51,
                "duration": 0.25,
                "tempo": 120.0
            },
            {
                "start_time": 81.02272727272727,
                "end_time": 81.27727272727272,
                "pitch": 70,
                "velocity": 51,
                "duration": 0.2545454545454504,
                "tempo": 120.0
            },
            {
                "start_time": 81.29318181818181,
                "end_time": 81.55,
                "pitch": 63,
                "velocity": 51,
                "duration": 0.25681818181818983,
                "tempo": 120.0
            }
        ],
        "Acoustic Grand Piano": [
            {
                "start_time": 0.0,
                "end_time": 0.175,
                "pitch": 32,
                "velocity": 80,
                "duration": 0.175,
                "tempo": 120.0
            },
            {
                "start_time": 0.18863636363636363,
                "end_time": 0.37727272727272726,
                "pitch": 32,
                "velocity": 80,
                "duration": 0.18863636363636363,
                "tempo": 120.0
            },
            {
                "start_time": 0.3909090909090909,
                "end_time": 0.6386363636363636,
                "pitch": 32,
                "velocity": 80,
                "duration": 0.24772727272727268,
                "tempo": 120.0
            },
            {
                "start_time": 0.6568181818181817,
                "end_time": 0.9068181818181817,
                "pitch": 32,
                "velocity": 80,
                "duration": 0.25,
                "tempo": 120.0
            },
            {
                "start_time": 0.9227272727272727,
                "end_time": 1.1772727272727272,
                "pitch": 32,
                "velocity": 80,
                "duration": 0.2545454545454545,
                "tempo": 120.0
            },
            {
                "start_time": 1.1954545454545453,
                "end_time": 1.45,
                "pitch": 32,
                "velocity": 80,
                "duration": 0.25454545454545463,
                "tempo": 120.0
            },
            {
                "start_time": 1.468181818181818,
                "end_time": 1.718181818181818,
                "pitch": 32,
                "velocity": 80,
                "duration": 0.25,
                "tempo": 120.0
            },
            {
                "start_time": 1.734090909090909,
                "end_time": 1.984090909090909,
                "pitch": 32,
                "velocity": 80,
                "duration": 0.25,
                "tempo": 120.0
            },
            {
                "start_time": 2.002272727272727,
                "end_time": 2.252272727272727,
                "pitch": 32,
                "velocity": 80,
                "duration": 0.25,
                "tempo": 120.0
            },
            {
                "start_time": 2.268181818181818,
                "end_time": 2.5204545454545455,
                "pitch": 32,
                "velocity": 80,
                "duration": 0.2522727272727274,
                "tempo": 120.0
            },
            {
                "start_time": 2.536363636363636,
                "end_time": 2.7909090909090906,
                "pitch": 32,
                "velocity": 80,
                "duration": 0.2545454545454544,
                "tempo": 120.0
            },
            {
                "start_time": 2.809090909090909,
                "end_time": 3.0636363636363635,
                "pitch": 32,
                "velocity": 80,
                "duration": 0.2545454545454544,
                "tempo": 120.0
            },
            {
                "start_time": 3.0795454545454546,
                "end_time": 3.3295454545454546,
                "pitch": 32,
                "velocity": 80,
                "duration": 0.25,
                "tempo": 120.0
            },
            {
                "start_time": 3.3477272727272727,
                "end_time": 3.5977272727272727,
                "pitch": 32,
                "velocity": 80,
                "duration": 0.25,
                "tempo": 120.0
            },
            {
                "start_time": 3.6136363636363633,
                "end_time": 3.870454545454545,
                "pitch": 32,
                "velocity": 80,
                "duration": 0.25681818181818183,
                "tempo": 120.0
            },
            {
                "start_time": 3.8863636363636362,
                "end_time": 4.140909090909091,
                "pitch": 32,
                "velocity": 80,
                "duration": 0.2545454545454544,
                "tempo": 120.0
            },
            {
                "start_time": 4.159090909090909,
                "end_time": 4.409090909090909,
                "pitch": 33,
                "velocity": 80,
                "duration": 0.25,
                "tempo": 120.0
            },
            {
                "start_time": 4.425,
                "end_time": 4.677272727272727,
                "pitch": 33,
                "velocity": 80,
                "duration": 0.252272727272727,
                "tempo": 120.0
            },
            {
                "start_time": 4.693181818181818,
                "end_time": 4.9386363636363635,
                "pitch": 33,
                "velocity": 80,
                "duration": 0.24545454545454515,
                "tempo": 120.0
            },
            {
                "start_time": 4.954545454545454,
                "end_time": 5.202272727272727,
                "pitch": 33,
                "velocity": 80,
                "duration": 0.24772727272727302,
                "tempo": 120.0
            },
            {
                "start_time": 5.218181818181818,
                "end_time": 5.477272727272727,
                "pitch": 33,
                "velocity": 80,
                "duration": 0.2590909090909088,
                "tempo": 120.0
            },
            {
                "start_time": 5.493181818181818,
                "end_time": 5.754545454545454,
                "pitch": 33,
                "velocity": 80,
                "duration": 0.2613636363636358,
                "tempo": 120.0
            },
            {
                "start_time": 5.7704545454545455,
                "end_time": 6.0227272727272725,
                "pitch": 33,
                "velocity": 80,
                "duration": 0.252272727272727,
                "tempo": 120.0
            },
            {
                "start_time": 6.038636363636363,
                "end_time": 6.288636363636363,
                "pitch": 33,
                "velocity": 80,
                "duration": 0.25,
                "tempo": 120.0
            },
            {
                "start_time": 6.306818181818182,
                "end_time": 6.556818181818182,
                "pitch": 33,
                "velocity": 80,
                "duration": 0.25,
                "tempo": 120.0
            },
            {
                "start_time": 6.572727272727272,
                "end_time": 6.822727272727272,
                "pitch": 33,
                "velocity": 80,
                "duration": 0.25,
                "tempo": 120.0
            },
            {
                "start_time": 6.838636363636363,
                "end_time": 7.081818181818181,
                "pitch": 33,
                "velocity": 80,
                "duration": 0.24318181818181817,
                "tempo": 120.0
            },
            {
                "start_time": 7.097727272727273,
                "end_time": 7.338636363636363,
                "pitch": 33,
                "velocity": 80,
                "duration": 0.2409090909090903,
                "tempo": 120.0
            },
            {
                "start_time": 7.3568181818181815,
                "end_time": 7.620454545454545,
                "pitch": 33,
                "velocity": 80,
                "duration": 0.26363636363636367,
                "tempo": 120.0
            },
            {
                "start_time": 7.636363636363636,
                "end_time": 7.9022727272727264,
                "pitch": 33,
                "velocity": 80,
                "duration": 0.26590909090909065,
                "tempo": 120.0
            },
            {
                "start_time": 7.918181818181818,
                "end_time": 8.170454545454545,
                "pitch": 33,
                "velocity": 80,
                "duration": 0.252272727272727,
                "tempo": 120.0
            },
            {
                "start_time": 8.186363636363636,
                "end_time": 8.436363636363636,
                "pitch": 33,
                "velocity": 80,
                "duration": 0.25,
                "tempo": 120.0
            },
            {
                "start_time": 8.454545454545453,
                "end_time": 8.709090909090909,
                "pitch": 32,
                "velocity": 80,
                "duration": 0.25454545454545574,
                "tempo": 120.0
            },
            {
                "start_time": 8.725,
                "end_time": 8.98181818181818,
                "pitch": 32,
                "velocity": 80,
                "duration": 0.25681818181818095,
                "tempo": 120.0
            },
            {
                "start_time": 8.997727272727273,
                "end_time": 9.247727272727273,
                "pitch": 32,
                "velocity": 80,
                "duration": 0.25,
                "tempo": 120.0
            },
            {
                "start_time": 9.26590909090909,
                "end_time": 9.51590909090909,
                "pitch": 32,
                "velocity": 80,
                "duration": 0.25,
                "tempo": 120.0
            },
            {
                "start_time": 9.531818181818181,
                "end_time": 9.781818181818181,
                "pitch": 32,
                "velocity": 80,
                "duration": 0.25,
                "tempo": 120.0
            },
            {
                "start_time": 9.799999999999999,
                "end_time": 10.049999999999999,
                "pitch": 32,
                "velocity": 80,
                "duration": 0.25,
                "tempo": 120.0
            },
            {
                "start_time": 10.06590909090909,
                "end_time": 10.320454545454545,
                "pitch": 32,
                "velocity": 80,
                "duration": 0.25454545454545574,
                "tempo": 120.0
            },
            {
                "start_time": 10.338636363636363,
                "end_time": 10.593181818181817,
                "pitch": 32,
                "velocity": 80,
                "duration": 0.25454545454545396,
                "tempo": 120.0
            },
            {
                "start_time": 10.611363636363636,
                "end_time": 10.861363636363636,
                "pitch": 32,
                "velocity": 80,
                "duration": 0.25,
                "tempo": 120.0
            },
            {
                "start_time": 10.877272727272727,
                "end_time": 11.129545454545454,
                "pitch": 32,
                "velocity": 80,
                "duration": 0.252272727272727,
                "tempo": 120.0
            },
            {
                "start_time": 11.145454545454545,
                "end_time": 11.395454545454545,
                "pitch": 32,
                "velocity": 80,
                "duration": 0.25,
                "tempo": 120.0
            },
            {
                "start_time": 11.411363636363635,
                "end_time": 11.663636363636362,
                "pitch": 32,
                "velocity": 80,
                "duration": 0.252272727272727,
                "tempo": 120.0
            },
            {
                "start_time": 11.679545454545455,
                "end_time": 11.934090909090909,
                "pitch": 32,
                "velocity": 80,
                "duration": 0.25454545454545396,
                "tempo": 120.0
            },
            {
                "start_time": 11.952272727272726,
                "end_time": 12.206818181818182,
                "pitch": 32,
                "velocity": 80,
                "duration": 0.25454545454545574,
                "tempo": 120.0
            },
            {
                "start_time": 12.222727272727273,
                "end_time": 12.475,
                "pitch": 32,
                "velocity": 80,
                "duration": 0.252272727272727,
                "tempo": 120.0
            },
            {
                "start_time": 12.49090909090909,
                "end_time": 12.74090909090909,
                "pitch": 32,
                "velocity": 80,
                "duration": 0.25,
                "tempo": 120.0
            },
            {
                "start_time": 12.756818181818181,
                "end_time": 13.013636363636364,
                "pitch": 33,
                "velocity": 80,
                "duration": 0.2568181818181827,
                "tempo": 120.0
            },
            {
                "start_time": 13.029545454545454,
                "end_time": 13.284090909090908,
                "pitch": 33,
                "velocity": 80,
                "duration": 0.25454545454545396,
                "tempo": 120.0
            },
            {
                "start_time": 13.302272727272726,
                "end_time": 13.543181818181818,
                "pitch": 33,
                "velocity": 80,
                "duration": 0.24090909090909207,
                "tempo": 120.0
            },
            {
                "start_time": 13.559090909090909,
                "end_time": 13.802272727272726,
                "pitch": 33,
                "velocity": 80,
                "duration": 0.24318181818181728,
                "tempo": 120.0
            },
            {
                "start_time": 13.818181818181818,
                "end_time": 14.077272727272726,
                "pitch": 33,
                "velocity": 80,
                "duration": 0.25909090909090793,
                "tempo": 120.0
            },
            {
                "start_time": 14.093181818181817,
                "end_time": 14.352272727272727,
                "pitch": 33,
                "velocity": 80,
                "duration": 0.2590909090909097,
                "tempo": 120.0
            },
            {
                "start_time": 14.370454545454544,
                "end_time": 14.620454545454544,
                "pitch": 33,
                "velocity": 80,
                "duration": 0.25,
                "tempo": 120.0
            },
            {
                "start_time": 14.638636363636364,
                "end_time": 14.888636363636364,
                "pitch": 33,
                "velocity": 80,
                "duration": 0.25,
                "tempo": 120.0
            },
            {
                "start_time": 14.904545454545454,
                "end_time": 15.156818181818181,
                "pitch": 33,
                "velocity": 80,
                "duration": 0.252272727272727,
                "tempo": 120.0
            },
            {
                "start_time": 15.172727272727272,
                "end_time": 15.422727272727272,
                "pitch": 33,
                "velocity": 80,
                "duration": 0.25,
                "tempo": 120.0
            },
            {
                "start_time": 15.438636363636363,
                "end_time": 15.686363636363636,
                "pitch": 33,
                "velocity": 80,
                "duration": 0.24772727272727302,
                "tempo": 120.0
            },
            {
                "start_time": 15.702272727272726,
                "end_time": 15.947727272727272,
                "pitch": 33,
                "velocity": 80,
                "duration": 0.24545454545454604,
                "tempo": 120.0
            },
            {
                "start_time": 15.963636363636363,
                "end_time": 16.222727272727273,
                "pitch": 33,
                "velocity": 80,
                "duration": 0.2590909090909097,
                "tempo": 120.0
            },
            {
                "start_time": 16.24090909090909,
                "end_time": 16.5,
                "pitch": 33,
                "velocity": 80,
                "duration": 0.2590909090909115,
                "tempo": 120.0
            },
            {
                "start_time": 16.518181818181816,
                "end_time": 16.772727272727273,
                "pitch": 33,
                "velocity": 80,
                "duration": 0.2545454545454575,
                "tempo": 120.0
            },
            {
                "start_time": 16.79090909090909,
                "end_time": 17.045454545454543,
                "pitch": 33,
                "velocity": 80,
                "duration": 0.25454545454545396,
                "tempo": 120.0
            },
            {
                "start_time": 17.061363636363634,
                "end_time": 17.30909090909091,
                "pitch": 32,
                "velocity": 80,
                "duration": 0.2477272727272748,
                "tempo": 120.0
            },
            {
                "start_time": 17.325,
                "end_time": 17.570454545454545,
                "pitch": 32,
                "velocity": 80,
                "duration": 0.24545454545454604,
                "tempo": 120.0
            },
            {
                "start_time": 17.586363636363636,
                "end_time": 17.84318181818182,
                "pitch": 32,
                "velocity": 80,
                "duration": 0.2568181818181827,
                "tempo": 120.0
            },
            {
                "start_time": 17.85909090909091,
                "end_time": 18.113636363636363,
                "pitch": 32,
                "velocity": 80,
                "duration": 0.25454545454545396,
                "tempo": 120.0
            },
            {
                "start_time": 18.13181818181818,
                "end_time": 18.386363636363637,
                "pitch": 32,
                "velocity": 80,
                "duration": 0.2545454545454575,
                "tempo": 120.0
            },
            {
                "start_time": 18.402272727272727,
                "end_time": 18.659090909090907,
                "pitch": 32,
                "velocity": 80,
                "duration": 0.25681818181817917,
                "tempo": 120.0
            },
            {
                "start_time": 18.675,
                "end_time": 18.925,
                "pitch": 32,
                "velocity": 80,
                "duration": 0.25,
                "tempo": 120.0
            },
            {
                "start_time": 18.943181818181817,
                "end_time": 19.193181818181817,
                "pitch": 32,
                "velocity": 80,
                "duration": 0.25,
                "tempo": 120.0
            },
            {
                "start_time": 19.209090909090907,
                "end_time": 19.461363636363636,
                "pitch": 32,
                "velocity": 80,
                "duration": 0.25227272727272876,
                "tempo": 120.0
            },
            {
                "start_time": 19.477272727272727,
                "end_time": 19.727272727272727,
                "pitch": 32,
                "velocity": 80,
                "duration": 0.25,
                "tempo": 120.0
            },
            {
                "start_time": 19.743181818181817,
                "end_time": 20.0,
                "pitch": 32,
                "velocity": 80,
                "duration": 0.2568181818181827,
                "tempo": 120.0
            },
            {
                "start_time": 20.01590909090909,
                "end_time": 20.270454545454545,
                "pitch": 32,
                "velocity": 80,
                "duration": 0.25454545454545396,
                "tempo": 120.0
            },
            {
                "start_time": 20.288636363636364,
                "end_time": 20.538636363636364,
                "pitch": 32,
                "velocity": 80,
                "duration": 0.25,
                "tempo": 120.0
            },
            {
                "start_time": 20.554545454545455,
                "end_time": 20.80681818181818,
                "pitch": 32,
                "velocity": 80,
                "duration": 0.2522727272727252,
                "tempo": 120.0
            },
            {
                "start_time": 20.82272727272727,
                "end_time": 21.07272727272727,
                "pitch": 32,
                "velocity": 80,
                "duration": 0.25,
                "tempo": 120.0
            },
            {
                "start_time": 21.08863636363636,
                "end_time": 21.34090909090909,
                "pitch": 32,
                "velocity": 80,
                "duration": 0.25227272727272876,
                "tempo": 120.0
            },
            {
                "start_time": 21.35681818181818,
                "end_time": 21.611363636363635,
                "pitch": 33,
                "velocity": 80,
                "duration": 0.25454545454545396,
                "tempo": 120.0
            },
            {
                "start_time": 21.629545454545454,
                "end_time": 21.884090909090908,
                "pitch": 33,
                "velocity": 80,
                "duration": 0.25454545454545396,
                "tempo": 120.0
            },
            {
                "start_time": 21.9,
                "end_time": 22.143181818181816,
                "pitch": 33,
                "velocity": 80,
                "duration": 0.24318181818181728,
                "tempo": 120.0
            },
            {
                "start_time": 22.159090909090907,
                "end_time": 22.4,
                "pitch": 33,
                "velocity": 80,
                "duration": 0.24090909090909207,
                "tempo": 120.0
            },
            {
                "start_time": 22.41590909090909,
                "end_time": 22.674999999999997,
                "pitch": 33,
                "velocity": 80,
                "duration": 0.25909090909090793,
                "tempo": 120.0
            },
            {
                "start_time": 22.693181818181817,
                "end_time": 22.952272727272724,
                "pitch": 33,
                "velocity": 80,
                "duration": 0.25909090909090793,
                "tempo": 120.0
            },
            {
                "start_time": 22.970454545454544,
                "end_time": 23.224999999999998,
                "pitch": 33,
                "velocity": 80,
                "duration": 0.25454545454545396,
                "tempo": 120.0
            },
            {
                "start_time": 23.243181818181817,
                "end_time": 23.49772727272727,
                "pitch": 33,
                "velocity": 80,
                "duration": 0.25454545454545396,
                "tempo": 120.0
            },
            {
                "start_time": 23.513636363636362,
                "end_time": 23.759090909090908,
                "pitch": 33,
                "velocity": 80,
                "duration": 0.24545454545454604,
                "tempo": 120.0
            },
            {
                "start_time": 23.777272727272727,
                "end_time": 24.02272727272727,
                "pitch": 33,
                "velocity": 80,
                "duration": 0.24545454545454248,
                "tempo": 120.0
            },
            {
                "start_time": 24.038636363636364,
                "end_time": 24.286363636363635,
                "pitch": 33,
                "velocity": 80,
                "duration": 0.24772727272727124,
                "tempo": 120.0
            },
            {
                "start_time": 24.302272727272726,
                "end_time": 24.547727272727272,
                "pitch": 33,
                "velocity": 80,
                "duration": 0.24545454545454604,
                "tempo": 120.0
            },
            {
                "start_time": 24.563636363636363,
                "end_time": 24.82272727272727,
                "pitch": 33,
                "velocity": 80,
                "duration": 0.25909090909090793,
                "tempo": 120.0
            },
            {
                "start_time": 24.84090909090909,
                "end_time": 25.099999999999998,
                "pitch": 33,
                "velocity": 80,
                "duration": 0.25909090909090793,
                "tempo": 120.0
            },
            {
                "start_time": 25.118181818181817,
                "end_time": 25.37272727272727,
                "pitch": 33,
                "velocity": 80,
                "duration": 0.25454545454545396,
                "tempo": 120.0
            },
            {
                "start_time": 25.39090909090909,
                "end_time": 25.645454545454545,
                "pitch": 33,
                "velocity": 80,
                "duration": 0.25454545454545396,
                "tempo": 120.0
            },
            {
                "start_time": 25.661363636363635,
                "end_time": 25.913636363636364,
                "pitch": 32,
                "velocity": 80,
                "duration": 0.25227272727272876,
                "tempo": 120.0
            },
            {
                "start_time": 25.929545454545455,
                "end_time": 26.179545454545455,
                "pitch": 32,
                "velocity": 80,
                "duration": 0.25,
                "tempo": 120.0
            },
            {
                "start_time": 26.19772727272727,
                "end_time": 26.443181818181817,
                "pitch": 32,
                "velocity": 80,
                "duration": 0.24545454545454604,
                "tempo": 120.0
            },
            {
                "start_time": 26.459090909090907,
                "end_time": 26.704545454545453,
                "pitch": 32,
                "velocity": 80,
                "duration": 0.24545454545454604,
                "tempo": 120.0
            },
            {
                "start_time": 26.722727272727273,
                "end_time": 26.98181818181818,
                "pitch": 32,
                "velocity": 80,
                "duration": 0.25909090909090793,
                "tempo": 120.0
            },
            {
                "start_time": 26.99772727272727,
                "end_time": 27.25681818181818,
                "pitch": 32,
                "velocity": 80,
                "duration": 0.25909090909090793,
                "tempo": 120.0
            },
            {
                "start_time": 27.275,
                "end_time": 27.525,
                "pitch": 32,
                "velocity": 80,
                "duration": 0.25,
                "tempo": 120.0
            },
            {
                "start_time": 27.543181818181818,
                "end_time": 27.793181818181818,
                "pitch": 32,
                "velocity": 80,
                "duration": 0.25,
                "tempo": 120.0
            },
            {
                "start_time": 27.80909090909091,
                "end_time": 28.061363636363634,
                "pitch": 32,
                "velocity": 80,
                "duration": 0.2522727272727252,
                "tempo": 120.0
            },
            {
                "start_time": 28.077272727272724,
                "end_time": 28.327272727272724,
                "pitch": 32,
                "velocity": 80,
                "duration": 0.25,
                "tempo": 120.0
            },
            {
                "start_time": 28.343181818181815,
                "end_time": 28.599999999999998,
                "pitch": 32,
                "velocity": 80,
                "duration": 0.2568181818181827,
                "tempo": 120.0
            },
            {
                "start_time": 28.61590909090909,
                "end_time": 28.870454545454542,
                "pitch": 32,
                "velocity": 80,
                "duration": 0.25454545454545396,
                "tempo": 120.0
            },
            {
                "start_time": 28.888636363636362,
                "end_time": 29.138636363636362,
                "pitch": 32,
                "velocity": 80,
                "duration": 0.25,
                "tempo": 120.0
            },
            {
                "start_time": 29.154545454545453,
                "end_time": 29.40681818181818,
                "pitch": 32,
                "velocity": 80,
                "duration": 0.25227272727272876,
                "tempo": 120.0
            },
            {
                "start_time": 29.422727272727272,
                "end_time": 29.677272727272726,
                "pitch": 32,
                "velocity": 80,
                "duration": 0.25454545454545396,
                "tempo": 120.0
            },
            {
                "start_time": 29.693181818181817,
                "end_time": 29.95,
                "pitch": 32,
                "velocity": 80,
                "duration": 0.2568181818181827,
                "tempo": 120.0
            },
            {
                "start_time": 29.96590909090909,
                "end_time": 30.21590909090909,
                "pitch": 32,
                "velocity": 80,
                "duration": 0.25,
                "tempo": 120.0
            },
            {
                "start_time": 30.23409090909091,
                "end_time": 30.48409090909091,
                "pitch": 32,
                "velocity": 80,
                "duration": 0.25,
                "tempo": 120.0
            },
            {
                "start_time": 30.5,
                "end_time": 30.74772727272727,
                "pitch": 32,
                "velocity": 80,
                "duration": 0.24772727272727124,
                "tempo": 120.0
            },
            {
                "start_time": 30.763636363636362,
                "end_time": 31.009090909090908,
                "pitch": 32,
                "velocity": 80,
                "duration": 0.24545454545454604,
                "tempo": 120.0
            },
            {
                "start_time": 31.025,
                "end_time": 31.28181818181818,
                "pitch": 32,
                "velocity": 80,
                "duration": 0.2568181818181827,
                "tempo": 120.0
            },
            {
                "start_time": 31.297727272727272,
                "end_time": 31.552272727272726,
                "pitch": 32,
                "velocity": 80,
                "duration": 0.25454545454545396,
                "tempo": 120.0
            },
            {
                "start_time": 31.570454545454545,
                "end_time": 31.820454545454545,
                "pitch": 32,
                "velocity": 80,
                "duration": 0.25,
                "tempo": 120.0
            },
            {
                "start_time": 31.836363636363636,
                "end_time": 32.086363636363636,
                "pitch": 32,
                "velocity": 80,
                "duration": 0.25,
                "tempo": 120.0
            },
            {
                "start_time": 32.10454545454545,
                "end_time": 32.35454545454545,
                "pitch": 32,
                "velocity": 80,
                "duration": 0.25,
                "tempo": 120.0
            },
            {
                "start_time": 32.37045454545454,
                "end_time": 32.62272727272727,
                "pitch": 32,
                "velocity": 80,
                "duration": 0.2522727272727252,
                "tempo": 120.0
            },
            {
                "start_time": 32.638636363636365,
                "end_time": 32.893181818181816,
                "pitch": 32,
                "velocity": 80,
                "duration": 0.2545454545454504,
                "tempo": 120.0
            },
            {
                "start_time": 32.91136363636363,
                "end_time": 33.16590909090909,
                "pitch": 32,
                "velocity": 80,
                "duration": 0.2545454545454575,
                "tempo": 120.0
            },
            {
                "start_time": 33.18181818181818,
                "end_time": 33.434090909090905,
                "pitch": 32,
                "velocity": 80,
                "duration": 0.2522727272727252,
                "tempo": 120.0
            },
            {
                "start_time": 33.449999999999996,
                "end_time": 33.699999999999996,
                "pitch": 32,
                "velocity": 80,
                "duration": 0.25,
                "tempo": 120.0
            },
            {
                "start_time": 33.715909090909086,
                "end_time": 33.97272727272727,
                "pitch": 32,
                "velocity": 80,
                "duration": 0.2568181818181827,
                "tempo": 120.0
            },
            {
                "start_time": 33.98863636363636,
                "end_time": 34.24318181818182,
                "pitch": 32,
                "velocity": 80,
                "duration": 0.2545454545454575,
                "tempo": 120.0
            },
            {
                "start_time": 34.26136363636363,
                "end_time": 34.51136363636363,
                "pitch": 32,
                "velocity": 80,
                "duration": 0.25,
                "tempo": 120.0
            },
            {
                "start_time": 34.527272727272724,
                "end_time": 34.779545454545456,
                "pitch": 32,
                "velocity": 80,
                "duration": 0.2522727272727323,
                "tempo": 120.0
            },
            {
                "start_time": 34.79545454545455,
                "end_time": 35.054545454545455,
                "pitch": 32,
                "velocity": 80,
                "duration": 0.25909090909090793,
                "tempo": 120.0
            },
            {
                "start_time": 35.070454545454545,
                "end_time": 35.33181818181818,
                "pitch": 32,
                "velocity": 80,
                "duration": 0.26136363636363313,
                "tempo": 120.0
            },
            {
                "start_time": 35.34772727272727,
                "end_time": 35.6,
                "pitch": 32,
                "velocity": 80,
                "duration": 0.2522727272727323,
                "tempo": 120.0
            },
            {
                "start_time": 35.61590909090909,
                "end_time": 35.86590909090909,
                "pitch": 32,
                "velocity": 80,
                "duration": 0.25,
                "tempo": 120.0
            },
            {
                "start_time": 35.88409090909091,
                "end_time": 36.13409090909091,
                "pitch": 32,
                "velocity": 80,
                "duration": 0.25,
                "tempo": 120.0
            },
            {
                "start_time": 36.15,
                "end_time": 36.4,
                "pitch": 32,
                "velocity": 80,
                "duration": 0.25,
                "tempo": 120.0
            },
            {
                "start_time": 36.418181818181814,
                "end_time": 36.663636363636364,
                "pitch": 32,
                "velocity": 80,
                "duration": 0.2454545454545496,
                "tempo": 120.0
            },
            {
                "start_time": 36.679545454545455,
                "end_time": 36.92727272727272,
                "pitch": 32,
                "velocity": 80,
                "duration": 0.2477272727272677,
                "tempo": 120.0
            },
            {
                "start_time": 36.94318181818181,
                "end_time": 37.19772727272727,
                "pitch": 32,
                "velocity": 80,
                "duration": 0.2545454545454575,
                "tempo": 120.0
            },
            {
                "start_time": 37.21363636363636,
                "end_time": 37.470454545454544,
                "pitch": 32,
                "velocity": 80,
                "duration": 0.2568181818181827,
                "tempo": 120.0
            },
            {
                "start_time": 37.486363636363635,
                "end_time": 37.736363636363635,
                "pitch": 32,
                "velocity": 80,
                "duration": 0.25,
                "tempo": 120.0
            },
            {
                "start_time": 37.75454545454545,
                "end_time": 38.00454545454545,
                "pitch": 32,
                "velocity": 80,
                "duration": 0.25,
                "tempo": 120.0
            },
            {
                "start_time": 38.02045454545454,
                "end_time": 38.275,
                "pitch": 32,
                "velocity": 80,
                "duration": 0.2545454545454575,
                "tempo": 120.0
            },
            {
                "start_time": 38.293181818181814,
                "end_time": 38.54772727272727,
                "pitch": 32,
                "velocity": 80,
                "duration": 0.2545454545454575,
                "tempo": 120.0
            },
            {
                "start_time": 38.56590909090909,
                "end_time": 38.81136363636364,
                "pitch": 32,
                "velocity": 80,
                "duration": 0.2454545454545496,
                "tempo": 120.0
            },
            {
                "start_time": 38.82727272727273,
                "end_time": 39.07272727272727,
                "pitch": 32,
                "velocity": 80,
                "duration": 0.24545454545454248,
                "tempo": 120.0
            },
            {
                "start_time": 39.090909090909086,
                "end_time": 39.345454545454544,
                "pitch": 32,
                "velocity": 80,
                "duration": 0.2545454545454575,
                "tempo": 120.0
            },
            {
                "start_time": 39.361363636363635,
                "end_time": 39.61590909090909,
                "pitch": 32,
                "velocity": 80,
                "duration": 0.2545454545454575,
                "tempo": 120.0
            },
            {
                "start_time": 39.63409090909091,
                "end_time": 39.88409090909091,
                "pitch": 32,
                "velocity": 80,
                "duration": 0.25,
                "tempo": 120.0
            },
            {
                "start_time": 39.9,
                "end_time": 40.152272727272724,
                "pitch": 32,
                "velocity": 80,
                "duration": 0.2522727272727252,
                "tempo": 120.0
            },
            {
                "start_time": 40.168181818181814,
                "end_time": 40.42272727272727,
                "pitch": 32,
                "velocity": 80,
                "duration": 0.2545454545454575,
                "tempo": 120.0
            },
            {
                "start_time": 40.44090909090909,
                "end_time": 40.695454545454545,
                "pitch": 32,
                "velocity": 80,
                "duration": 0.2545454545454575,
                "tempo": 120.0
            },
            {
                "start_time": 40.711363636363636,
                "end_time": 40.96363636363636,
                "pitch": 32,
                "velocity": 80,
                "duration": 0.2522727272727252,
                "tempo": 120.0
            },
            {
                "start_time": 40.97954545454545,
                "end_time": 41.22954545454545,
                "pitch": 32,
                "velocity": 80,
                "duration": 0.25,
                "tempo": 120.0
            },
            {
                "start_time": 41.24545454545454,
                "end_time": 41.49772727272727,
                "pitch": 32,
                "velocity": 80,
                "duration": 0.2522727272727252,
                "tempo": 120.0
            },
            {
                "start_time": 41.51363636363636,
                "end_time": 41.76363636363636,
                "pitch": 32,
                "velocity": 80,
                "duration": 0.25,
                "tempo": 120.0
            },
            {
                "start_time": 41.78181818181818,
                "end_time": 42.03181818181818,
                "pitch": 32,
                "velocity": 80,
                "duration": 0.25,
                "tempo": 120.0
            },
            {
                "start_time": 42.04772727272727,
                "end_time": 42.29772727272727,
                "pitch": 32,
                "velocity": 80,
                "duration": 0.25,
                "tempo": 120.0
            },
            {
                "start_time": 42.31590909090909,
                "end_time": 42.570454545454545,
                "pitch": 32,
                "velocity": 80,
                "duration": 0.2545454545454575,
                "tempo": 120.0
            },
            {
                "start_time": 42.586363636363636,
                "end_time": 42.84318181818182,
                "pitch": 32,
                "velocity": 80,
                "duration": 0.2568181818181827,
                "tempo": 120.0
            },
            {
                "start_time": 42.85909090909091,
                "end_time": 43.10909090909091,
                "pitch": 32,
                "velocity": 80,
                "duration": 0.25,
                "tempo": 120.0
            },
            {
                "start_time": 43.127272727272725,
                "end_time": 43.377272727272725,
                "pitch": 32,
                "velocity": 80,
                "duration": 0.25,
                "tempo": 120.0
            },
            {
                "start_time": 43.393181818181816,
                "end_time": 43.64772727272727,
                "pitch": 32,
                "velocity": 80,
                "duration": 0.2545454545454575,
                "tempo": 120.0
            },
            {
                "start_time": 43.66590909090909,
                "end_time": 43.92045454545455,
                "pitch": 32,
                "velocity": 80,
                "duration": 0.2545454545454575,
                "tempo": 120.0
            },
            {
                "start_time": 43.93636363636364,
                "end_time": 44.18863636363636,
                "pitch": 32,
                "velocity": 80,
                "duration": 0.2522727272727252,
                "tempo": 120.0
            },
            {
                "start_time": 44.20454545454545,
                "end_time": 44.45454545454545,
                "pitch": 32,
                "velocity": 80,
                "duration": 0.25,
                "tempo": 120.0
            },
            {
                "start_time": 44.47272727272727,
                "end_time": 44.72727272727273,
                "pitch": 32,
                "velocity": 80,
                "duration": 0.2545454545454575,
                "tempo": 120.0
            },
            {
                "start_time": 44.74318181818182,
                "end_time": 44.99772727272727,
                "pitch": 32,
                "velocity": 80,
                "duration": 0.2545454545454504,
                "tempo": 120.0
            },
            {
                "start_time": 45.01590909090909,
                "end_time": 45.26136363636363,
                "pitch": 32,
                "velocity": 80,
                "duration": 0.24545454545454248,
                "tempo": 120.0
            },
            {
                "start_time": 45.277272727272724,
                "end_time": 45.525,
                "pitch": 32,
                "velocity": 80,
                "duration": 0.2477272727272748,
                "tempo": 120.0
            },
            {
                "start_time": 45.54090909090909,
                "end_time": 45.79545454545455,
                "pitch": 32,
                "velocity": 80,
                "duration": 0.2545454545454575,
                "tempo": 120.0
            },
            {
                "start_time": 45.81363636363636,
                "end_time": 46.06818181818181,
                "pitch": 32,
                "velocity": 80,
                "duration": 0.2545454545454504,
                "tempo": 120.0
            },
            {
                "start_time": 46.084090909090904,
                "end_time": 46.33863636363636,
                "pitch": 32,
                "velocity": 80,
                "duration": 0.2545454545454575,
                "tempo": 120.0
            },
            {
                "start_time": 46.35681818181818,
                "end_time": 46.611363636363635,
                "pitch": 32,
                "velocity": 80,
                "duration": 0.2545454545454575,
                "tempo": 120.0
            },
            {
                "start_time": 46.62954545454545,
                "end_time": 46.87954545454545,
                "pitch": 32,
                "velocity": 80,
                "duration": 0.25,
                "tempo": 120.0
            },
            {
                "start_time": 46.89545454545454,
                "end_time": 47.14545454545454,
                "pitch": 32,
                "velocity": 80,
                "duration": 0.25,
                "tempo": 120.0
            },
            {
                "start_time": 47.163636363636364,
                "end_time": 47.418181818181814,
                "pitch": 33,
                "velocity": 80,
                "duration": 0.2545454545454504,
                "tempo": 120.0
            },
            {
                "start_time": 47.434090909090905,
                "end_time": 47.69090909090909,
                "pitch": 33,
                "velocity": 80,
                "duration": 0.2568181818181827,
                "tempo": 120.0
            },
            {
                "start_time": 47.70681818181818,
                "end_time": 47.95681818181818,
                "pitch": 33,
                "velocity": 80,
                "duration": 0.25,
                "tempo": 120.0
            },
            {
                "start_time": 47.974999999999994,
                "end_time": 48.224999999999994,
                "pitch": 33,
                "velocity": 80,
                "duration": 0.25,
                "tempo": 120.0
            },
            {
                "start_time": 48.24090909090909,
                "end_time": 48.49090909090909,
                "pitch": 33,
                "velocity": 80,
                "duration": 0.25,
                "tempo": 120.0
            },
            {
                "start_time": 48.50909090909091,
                "end_time": 48.75909090909091,
                "pitch": 33,
                "velocity": 80,
                "duration": 0.25,
                "tempo": 120.0
            },
            {
                "start_time": 48.775,
                "end_time": 49.027272727272724,
                "pitch": 33,
                "velocity": 80,
                "duration": 0.2522727272727252,
                "tempo": 120.0
            },
            {
                "start_time": 49.043181818181814,
                "end_time": 49.293181818181814,
                "pitch": 33,
                "velocity": 80,
                "duration": 0.25,
                "tempo": 120.0
            },
            {
                "start_time": 49.31136363636364,
                "end_time": 49.56136363636364,
                "pitch": 33,
                "velocity": 80,
                "duration": 0.25,
                "tempo": 120.0
            },
            {
                "start_time": 49.57727272727273,
                "end_time": 49.82727272727273,
                "pitch": 33,
                "velocity": 80,
                "duration": 0.25,
                "tempo": 120.0
            },
            {
                "start_time": 49.845454545454544,
                "end_time": 50.10454545454545,
                "pitch": 33,
                "velocity": 80,
                "duration": 0.25909090909090793,
                "tempo": 120.0
            },
            {
                "start_time": 50.12045454545454,
                "end_time": 50.38181818181818,
                "pitch": 33,
                "velocity": 80,
                "duration": 0.26136363636364024,
                "tempo": 120.0
            },
            {
                "start_time": 50.39772727272727,
                "end_time": 50.65,
                "pitch": 33,
                "velocity": 80,
                "duration": 0.2522727272727252,
                "tempo": 120.0
            },
            {
                "start_time": 50.66590909090909,
                "end_time": 50.91590909090909,
                "pitch": 33,
                "velocity": 80,
                "duration": 0.25,
                "tempo": 120.0
            },
            {
                "start_time": 50.93181818181818,
                "end_time": 51.184090909090905,
                "pitch": 33,
                "velocity": 80,
                "duration": 0.2522727272727252,
                "tempo": 120.0
            },
            {
                "start_time": 51.199999999999996,
                "end_time": 51.449999999999996,
                "pitch": 33,
                "velocity": 80,
                "duration": 0.25,
                "tempo": 120.0
            },
            {
                "start_time": 51.46818181818182,
                "end_time": 51.71818181818182,
                "pitch": 33,
                "velocity": 80,
                "duration": 0.25,
                "tempo": 120.0
            },
            {
                "start_time": 51.73409090909091,
                "end_time": 51.98409090909091,
                "pitch": 33,
                "velocity": 80,
                "duration": 0.25,
                "tempo": 120.0
            },
            {
                "start_time": 52.002272727272725,
                "end_time": 52.25681818181818,
                "pitch": 33,
                "velocity": 80,
                "duration": 0.2545454545454575,
                "tempo": 120.0
            },
            {
                "start_time": 52.27272727272727,
                "end_time": 52.527272727272724,
                "pitch": 33,
                "velocity": 80,
                "duration": 0.2545454545454504,
                "tempo": 120.0
            },
            {
                "start_time": 52.54545454545454,
                "end_time": 52.79090909090909,
                "pitch": 33,
                "velocity": 80,
                "duration": 0.2454545454545496,
                "tempo": 120.0
            },
            {
                "start_time": 52.80681818181818,
                "end_time": 53.054545454545455,
                "pitch": 33,
                "velocity": 80,
                "duration": 0.2477272727272748,
                "tempo": 120.0
            },
            {
                "start_time": 53.070454545454545,
                "end_time": 53.324999999999996,
                "pitch": 33,
                "velocity": 80,
                "duration": 0.2545454545454504,
                "tempo": 120.0
            },
            {
                "start_time": 53.34318181818182,
                "end_time": 53.59772727272727,
                "pitch": 33,
                "velocity": 80,
                "duration": 0.2545454545454504,
                "tempo": 120.0
            },
            {
                "start_time": 53.61363636363636,
                "end_time": 53.865909090909085,
                "pitch": 33,
                "velocity": 80,
                "duration": 0.2522727272727252,
                "tempo": 120.0
            },
            {
                "start_time": 53.88181818181818,
                "end_time": 54.13181818181818,
                "pitch": 33,
                "velocity": 80,
                "duration": 0.25,
                "tempo": 120.0
            },
            {
                "start_time": 54.14772727272727,
                "end_time": 54.40454545454545,
                "pitch": 33,
                "velocity": 80,
                "duration": 0.2568181818181756,
                "tempo": 120.0
            },
            {
                "start_time": 54.42045454545454,
                "end_time": 54.675,
                "pitch": 33,
                "velocity": 80,
                "duration": 0.2545454545454575,
                "tempo": 120.0
            },
            {
                "start_time": 54.69318181818181,
                "end_time": 54.94318181818181,
                "pitch": 33,
                "velocity": 80,
                "duration": 0.25,
                "tempo": 120.0
            },
            {
                "start_time": 54.959090909090904,
                "end_time": 55.211363636363636,
                "pitch": 33,
                "velocity": 80,
                "duration": 0.2522727272727323,
                "tempo": 120.0
            },
            {
                "start_time": 55.22727272727273,
                "end_time": 55.48181818181818,
                "pitch": 33,
                "velocity": 80,
                "duration": 0.2545454545454504,
                "tempo": 120.0
            },
            {
                "start_time": 55.49772727272727,
                "end_time": 55.75454545454545,
                "pitch": 33,
                "velocity": 80,
                "duration": 0.2568181818181827,
                "tempo": 120.0
            },
            {
                "start_time": 55.77045454545454,
                "end_time": 56.01590909090909,
                "pitch": 35,
                "velocity": 80,
                "duration": 0.2454545454545496,
                "tempo": 120.0
            },
            {
                "start_time": 56.03409090909091,
                "end_time": 56.27954545454545,
                "pitch": 35,
                "velocity": 80,
                "duration": 0.24545454545454248,
                "tempo": 120.0
            },
            {
                "start_time": 56.29545454545454,
                "end_time": 56.55,
                "pitch": 35,
                "velocity": 80,
                "duration": 0.2545454545454575,
                "tempo": 120.0
            },
            {
                "start_time": 56.56818181818181,
                "end_time": 56.82272727272727,
                "pitch": 35,
                "velocity": 80,
                "duration": 0.2545454545454575,
                "tempo": 120.0
            },
            {
                "start_time": 56.83863636363636,
                "end_time": 57.090909090909086,
                "pitch": 35,
                "velocity": 80,
                "duration": 0.2522727272727252,
                "tempo": 120.0
            },
            {
                "start_time": 57.10681818181818,
                "end_time": 57.35681818181818,
                "pitch": 35,
                "velocity": 80,
                "duration": 0.25,
                "tempo": 120.0
            },
            {
                "start_time": 57.375,
                "end_time": 57.625,
                "pitch": 35,
                "velocity": 80,
                "duration": 0.25,
                "tempo": 120.0
            },
            {
                "start_time": 57.64090909090909,
                "end_time": 57.89090909090909,
                "pitch": 35,
                "velocity": 80,
                "duration": 0.25,
                "tempo": 120.0
            },
            {
                "start_time": 57.90909090909091,
                "end_time": 58.163636363636364,
                "pitch": 35,
                "velocity": 80,
                "duration": 0.2545454545454575,
                "tempo": 120.0
            },
            {
                "start_time": 58.179545454545455,
                "end_time": 58.43636363636363,
                "pitch": 35,
                "velocity": 80,
                "duration": 0.2568181818181756,
                "tempo": 120.0
            },
            {
                "start_time": 58.45227272727272,
                "end_time": 58.70681818181818,
                "pitch": 35,
                "velocity": 80,
                "duration": 0.2545454545454575,
                "tempo": 120.0
            },
            {
                "start_time": 58.724999999999994,
                "end_time": 58.97954545454545,
                "pitch": 35,
                "velocity": 80,
                "duration": 0.2545454545454575,
                "tempo": 120.0
            },
            {
                "start_time": 58.99545454545454,
                "end_time": 59.24772727272727,
                "pitch": 35,
                "velocity": 80,
                "duration": 0.2522727272727252,
                "tempo": 120.0
            },
            {
                "start_time": 59.26363636363636,
                "end_time": 59.51363636363636,
                "pitch": 35,
                "velocity": 80,
                "duration": 0.25,
                "tempo": 120.0
            },
            {
                "start_time": 59.53181818181818,
                "end_time": 59.78181818181818,
                "pitch": 35,
                "velocity": 80,
                "duration": 0.25,
                "tempo": 120.0
            },
            {
                "start_time": 59.79772727272727,
                "end_time": 60.04772727272727,
                "pitch": 35,
                "velocity": 80,
                "duration": 0.25,
                "tempo": 120.0
            },
            {
                "start_time": 60.06590909090909,
                "end_time": 60.31590909090909,
                "pitch": 35,
                "velocity": 80,
                "duration": 0.25,
                "tempo": 120.0
            },
            {
                "start_time": 60.33181818181818,
                "end_time": 60.584090909090904,
                "pitch": 35,
                "velocity": 80,
                "duration": 0.2522727272727252,
                "tempo": 120.0
            },
            {
                "start_time": 60.599999999999994,
                "end_time": 60.85454545454545,
                "pitch": 35,
                "velocity": 80,
                "duration": 0.2545454545454575,
                "tempo": 120.0
            },
            {
                "start_time": 60.87045454545454,
                "end_time": 61.127272727272725,
                "pitch": 35,
                "velocity": 80,
                "duration": 0.2568181818181827,
                "tempo": 120.0
            },
            {
                "start_time": 61.143181818181816,
                "end_time": 61.38863636363636,
                "pitch": 35,
                "velocity": 80,
                "duration": 0.24545454545454248,
                "tempo": 120.0
            },
            {
                "start_time": 61.40681818181818,
                "end_time": 61.652272727272724,
                "pitch": 35,
                "velocity": 80,
                "duration": 0.24545454545454248,
                "tempo": 120.0
            },
            {
                "start_time": 61.668181818181814,
                "end_time": 61.92272727272727,
                "pitch": 35,
                "velocity": 80,
                "duration": 0.2545454545454575,
                "tempo": 120.0
            },
            {
                "start_time": 61.94090909090909,
                "end_time": 62.195454545454545,
                "pitch": 35,
                "velocity": 80,
                "duration": 0.2545454545454575,
                "tempo": 120.0
            },
            {
                "start_time": 62.211363636363636,
                "end_time": 62.459090909090904,
                "pitch": 35,
                "velocity": 80,
                "duration": 0.2477272727272677,
                "tempo": 120.0
            },
            {
                "start_time": 62.474999999999994,
                "end_time": 62.720454545454544,
                "pitch": 35,
                "velocity": 80,
                "duration": 0.2454545454545496,
                "tempo": 120.0
            },
            {
                "start_time": 62.736363636363635,
                "end_time": 62.99545454545454,
                "pitch": 35,
                "velocity": 80,
                "duration": 0.25909090909090793,
                "tempo": 120.0
            },
            {
                "start_time": 63.01363636363636,
                "end_time": 63.272727272727266,
                "pitch": 35,
                "velocity": 80,
                "duration": 0.25909090909090793,
                "tempo": 120.0
            },
            {
                "start_time": 63.29090909090909,
                "end_time": 63.54545454545454,
                "pitch": 35,
                "velocity": 80,
                "duration": 0.2545454545454504,
                "tempo": 120.0
            },
            {
                "start_time": 63.56363636363636,
                "end_time": 63.81818181818181,
                "pitch": 35,
                "velocity": 80,
                "duration": 0.2545454545454504,
                "tempo": 120.0
            },
            {
                "start_time": 63.834090909090904,
                "end_time": 64.08636363636363,
                "pitch": 35,
                "velocity": 80,
                "duration": 0.2522727272727252,
                "tempo": 120.0
            },
            {
                "start_time": 64.10227272727272,
                "end_time": 64.35227272727272,
                "pitch": 35,
                "velocity": 80,
                "duration": 0.25,
                "tempo": 120.0
            },
            {
                "start_time": 64.37045454545454,
                "end_time": 64.61590909090908,
                "pitch": 33,
                "velocity": 80,
                "duration": 0.2454545454545496,
                "tempo": 120.0
            },
            {
                "start_time": 64.63181818181818,
                "end_time": 64.87727272727273,
                "pitch": 33,
                "velocity": 80,
                "duration": 0.2454545454545496,
                "tempo": 120.0
            },
            {
                "start_time": 64.89545454545454,
                "end_time": 65.14999999999999,
                "pitch": 33,
                "velocity": 80,
                "duration": 0.2545454545454504,
                "tempo": 120.0
            },
            {
                "start_time": 65.16590909090908,
                "end_time": 65.42045454545455,
                "pitch": 33,
                "velocity": 80,
                "duration": 0.2545454545454646,
                "tempo": 120.0
            },
            {
                "start_time": 65.43863636363636,
                "end_time": 65.68863636363636,
                "pitch": 33,
                "velocity": 80,
                "duration": 0.25,
                "tempo": 120.0
            },
            {
                "start_time": 65.70681818181818,
                "end_time": 65.95681818181818,
                "pitch": 33,
                "velocity": 80,
                "duration": 0.25,
                "tempo": 120.0
            },
            {
                "start_time": 65.97272727272727,
                "end_time": 66.22727272727272,
                "pitch": 33,
                "velocity": 80,
                "duration": 0.2545454545454504,
                "tempo": 120.0
            },
            {
                "start_time": 66.24545454545454,
                "end_time": 66.5,
                "pitch": 33,
                "velocity": 80,
                "duration": 0.2545454545454646,
                "tempo": 120.0
            },
            {
                "start_time": 66.51590909090909,
                "end_time": 66.76818181818182,
                "pitch": 33,
                "velocity": 80,
                "duration": 0.2522727272727252,
                "tempo": 120.0
            },
            {
                "start_time": 66.7840909090909,
                "end_time": 67.0340909090909,
                "pitch": 33,
                "velocity": 80,
                "duration": 0.25,
                "tempo": 120.0
            },
            {
                "start_time": 67.05227272727272,
                "end_time": 67.30227272727272,
                "pitch": 33,
                "velocity": 80,
                "duration": 0.25,
                "tempo": 120.0
            },
            {
                "start_time": 67.31818181818181,
                "end_time": 67.56818181818181,
                "pitch": 33,
                "velocity": 80,
                "duration": 0.25,
                "tempo": 120.0
            },
            {
                "start_time": 67.58636363636363,
                "end_time": 67.83636363636363,
                "pitch": 33,
                "velocity": 80,
                "duration": 0.25,
                "tempo": 120.0
            },
            {
                "start_time": 67.85227272727272,
                "end_time": 68.10227272727272,
                "pitch": 33,
                "velocity": 80,
                "duration": 0.25,
                "tempo": 120.0
            },
            {
                "start_time": 68.12045454545454,
                "end_time": 68.375,
                "pitch": 33,
                "velocity": 80,
                "duration": 0.2545454545454646,
                "tempo": 120.0
            },
            {
                "start_time": 68.39090909090909,
                "end_time": 68.64772727272727,
                "pitch": 33,
                "velocity": 80,
                "duration": 0.2568181818181756,
                "tempo": 120.0
            },
            {
                "start_time": 68.66363636363636,
                "end_time": 68.91363636363636,
                "pitch": 33,
                "velocity": 80,
                "duration": 0.25,
                "tempo": 120.0
            },
            {
                "start_time": 68.93181818181817,
                "end_time": 69.18181818181817,
                "pitch": 33,
                "velocity": 80,
                "duration": 0.25,
                "tempo": 120.0
            },
            {
                "start_time": 69.19772727272726,
                "end_time": 69.45227272727273,
                "pitch": 33,
                "velocity": 80,
                "duration": 0.2545454545454646,
                "tempo": 120.0
            },
            {
                "start_time": 69.47045454545454,
                "end_time": 69.725,
                "pitch": 33,
                "velocity": 80,
                "duration": 0.2545454545454504,
                "tempo": 120.0
            },
            {
                "start_time": 69.74318181818181,
                "end_time": 69.99318181818181,
                "pitch": 33,
                "velocity": 80,
                "duration": 0.25,
                "tempo": 120.0
            },
            {
                "start_time": 70.0090909090909,
                "end_time": 70.2590909090909,
                "pitch": 33,
                "velocity": 80,
                "duration": 0.25,
                "tempo": 120.0
            },
            {
                "start_time": 70.27727272727273,
                "end_time": 70.52727272727273,
                "pitch": 33,
                "velocity": 80,
                "duration": 0.25,
                "tempo": 120.0
            },
            {
                "start_time": 70.54318181818182,
                "end_time": 70.79545454545455,
                "pitch": 33,
                "velocity": 80,
                "duration": 0.2522727272727252,
                "tempo": 120.0
            },
            {
                "start_time": 70.81136363636364,
                "end_time": 71.06136363636364,
                "pitch": 33,
                "velocity": 80,
                "duration": 0.25,
                "tempo": 120.0
            },
            {
                "start_time": 71.07727272727273,
                "end_time": 71.32954545454545,
                "pitch": 33,
                "velocity": 80,
                "duration": 0.2522727272727252,
                "tempo": 120.0
            },
            {
                "start_time": 71.34545454545454,
                "end_time": 71.6,
                "pitch": 33,
                "velocity": 80,
                "duration": 0.2545454545454504,
                "tempo": 120.0
            },
            {
                "start_time": 71.61818181818181,
                "end_time": 71.87272727272727,
                "pitch": 33,
                "velocity": 80,
                "duration": 0.2545454545454646,
                "tempo": 120.0
            },
            {
                "start_time": 71.88863636363637,
                "end_time": 72.14090909090909,
                "pitch": 33,
                "velocity": 80,
                "duration": 0.2522727272727252,
                "tempo": 120.0
            },
            {
                "start_time": 72.15681818181818,
                "end_time": 72.40681818181818,
                "pitch": 33,
                "velocity": 80,
                "duration": 0.25,
                "tempo": 120.0
            },
            {
                "start_time": 72.42272727272727,
                "end_time": 72.67954545454545,
                "pitch": 33,
                "velocity": 80,
                "duration": 0.2568181818181756,
                "tempo": 120.0
            },
            {
                "start_time": 72.69545454545454,
                "end_time": 72.95,
                "pitch": 33,
                "velocity": 80,
                "duration": 0.2545454545454646,
                "tempo": 120.0
            },
            {
                "start_time": 72.96818181818182,
                "end_time": 73.22272727272727,
                "pitch": 32,
                "velocity": 80,
                "duration": 0.2545454545454504,
                "tempo": 120.0
            },
            {
                "start_time": 73.23863636363636,
                "end_time": 73.49545454545454,
                "pitch": 32,
                "velocity": 80,
                "duration": 0.2568181818181756,
                "tempo": 120.0
            },
            {
                "start_time": 73.51136363636363,
                "end_time": 73.75681818181818,
                "pitch": 32,
                "velocity": 80,
                "duration": 0.2454545454545496,
                "tempo": 120.0
            },
            {
                "start_time": 73.77499999999999,
                "end_time": 74.02045454545454,
                "pitch": 32,
                "velocity": 80,
                "duration": 0.2454545454545496,
                "tempo": 120.0
            },
            {
                "start_time": 74.03636363636363,
                "end_time": 74.28636363636363,
                "pitch": 32,
                "velocity": 80,
                "duration": 0.25,
                "tempo": 120.0
            },
            {
                "start_time": 74.30454545454545,
                "end_time": 74.55454545454545,
                "pitch": 32,
                "velocity": 80,
                "duration": 0.25,
                "tempo": 120.0
            },
            {
                "start_time": 74.57045454545454,
                "end_time": 74.825,
                "pitch": 32,
                "velocity": 80,
                "duration": 0.2545454545454646,
                "tempo": 120.0
            },
            {
                "start_time": 74.84318181818182,
                "end_time": 75.09772727272727,
                "pitch": 32,
                "velocity": 80,
                "duration": 0.2545454545454504,
                "tempo": 120.0
            },
            {
                "start_time": 75.11590909090908,
                "end_time": 75.36590909090908,
                "pitch": 32,
                "velocity": 80,
                "duration": 0.25,
                "tempo": 120.0
            },
            {
                "start_time": 75.38181818181818,
                "end_time": 75.63181818181818,
                "pitch": 32,
                "velocity": 80,
                "duration": 0.25,
                "tempo": 120.0
            },
            {
                "start_time": 75.64999999999999,
                "end_time": 75.90454545454546,
                "pitch": 32,
                "velocity": 80,
                "duration": 0.2545454545454646,
                "tempo": 120.0
            },
            {
                "start_time": 75.92045454545455,
                "end_time": 76.17727272727272,
                "pitch": 32,
                "velocity": 80,
                "duration": 0.2568181818181756,
                "tempo": 120.0
            },
            {
                "start_time": 76.19318181818181,
                "end_time": 76.44318181818181,
                "pitch": 32,
                "velocity": 80,
                "duration": 0.25,
                "tempo": 120.0
            },
            {
                "start_time": 76.46136363636363,
                "end_time": 76.71136363636363,
                "pitch": 32,
                "velocity": 80,
                "duration": 0.25,
                "tempo": 120.0
            },
            {
                "start_time": 76.72727272727272,
                "end_time": 76.97727272727272,
                "pitch": 32,
                "velocity": 80,
                "duration": 0.25,
                "tempo": 120.0
            },
            {
                "start_time": 76.99545454545454,
                "end_time": 77.24545454545454,
                "pitch": 32,
                "velocity": 80,
                "duration": 0.25,
                "tempo": 120.0
            },
            {
                "start_time": 77.26136363636363,
                "end_time": 77.51363636363637,
                "pitch": 32,
                "velocity": 80,
                "duration": 0.2522727272727394,
                "tempo": 120.0
            },
            {
                "start_time": 77.52954545454546,
                "end_time": 77.77954545454546,
                "pitch": 32,
                "velocity": 80,
                "duration": 0.25,
                "tempo": 120.0
            },
            {
                "start_time": 77.79772727272727,
                "end_time": 78.05227272727272,
                "pitch": 32,
                "velocity": 80,
                "duration": 0.2545454545454504,
                "tempo": 120.0
            },
            {
                "start_time": 78.06818181818181,
                "end_time": 78.32272727272726,
                "pitch": 32,
                "velocity": 80,
                "duration": 0.2545454545454504,
                "tempo": 120.0
            },
            {
                "start_time": 78.3409090909091,
                "end_time": 78.5909090909091,
                "pitch": 32,
                "velocity": 80,
                "duration": 0.25,
                "tempo": 120.0
            },
            {
                "start_time": 78.60681818181818,
                "end_time": 78.85909090909091,
                "pitch": 32,
                "velocity": 80,
                "duration": 0.2522727272727252,
                "tempo": 120.0
            },
            {
                "start_time": 78.875,
                "end_time": 79.12954545454545,
                "pitch": 32,
                "velocity": 80,
                "duration": 0.2545454545454504,
                "tempo": 120.0
            },
            {
                "start_time": 79.14772727272727,
                "end_time": 79.40227272727272,
                "pitch": 32,
                "velocity": 80,
                "duration": 0.2545454545454504,
                "tempo": 120.0
            },
            {
                "start_time": 79.41818181818181,
                "end_time": 79.67045454545455,
                "pitch": 32,
                "velocity": 80,
                "duration": 0.2522727272727394,
                "tempo": 120.0
            },
            {
                "start_time": 79.68636363636364,
                "end_time": 79.93636363636364,
                "pitch": 32,
                "velocity": 80,
                "duration": 0.25,
                "tempo": 120.0
            },
            {
                "start_time": 79.95227272727273,
                "end_time": 80.20454545454545,
                "pitch": 32,
                "velocity": 80,
                "duration": 0.2522727272727252,
                "tempo": 120.0
            },
            {
                "start_time": 80.22045454545454,
                "end_time": 80.47045454545454,
                "pitch": 32,
                "velocity": 80,
                "duration": 0.25,
                "tempo": 120.0
            },
            {
                "start_time": 80.48863636363636,
                "end_time": 80.73863636363636,
                "pitch": 32,
                "velocity": 80,
                "duration": 0.25,
                "tempo": 120.0
            },
            {
                "start_time": 80.75454545454545,
                "end_time": 81.00454545454545,
                "pitch": 32,
                "velocity": 80,
                "duration": 0.25,
                "tempo": 120.0
            },
            {
                "start_time": 81.02272727272727,
                "end_time": 81.27727272727272,
                "pitch": 32,
                "velocity": 80,
                "duration": 0.2545454545454504,
                "tempo": 120.0
            },
            {
                "start_time": 81.29318181818181,
                "end_time": 81.55,
                "pitch": 32,
                "velocity": 80,
                "duration": 0.25681818181818983,
                "tempo": 120.0
            },
            {
                "start_time": 81.56590909090909,
                "end_time": 81.5840909090909,
                "pitch": 33,
                "velocity": 80,
                "duration": 0.018181818181815856,
                "tempo": 120.0
            }
        ],
        "Acoustic Guitar (nylon)": [
            {
                "start_time": 47.434090909090905,
                "end_time": 47.69090909090909,
                "pitch": 75,
                "velocity": 64,
                "duration": 0.2568181818181827,
                "tempo": 120.0
            },
            {
                "start_time": 47.70681818181818,
                "end_time": 47.95681818181818,
                "pitch": 73,
                "velocity": 64,
                "duration": 0.25,
                "tempo": 120.0
            },
            {
                "start_time": 47.974999999999994,
                "end_time": 48.224999999999994,
                "pitch": 80,
                "velocity": 64,
                "duration": 0.25,
                "tempo": 120.0
            },
            {
                "start_time": 48.24090909090909,
                "end_time": 48.49090909090909,
                "pitch": 75,
                "velocity": 64,
                "duration": 0.25,
                "tempo": 120.0
            },
            {
                "start_time": 48.50909090909091,
                "end_time": 48.75909090909091,
                "pitch": 73,
                "velocity": 64,
                "duration": 0.25,
                "tempo": 120.0
            },
            {
                "start_time": 48.775,
                "end_time": 49.027272727272724,
                "pitch": 80,
                "velocity": 64,
                "duration": 0.2522727272727252,
                "tempo": 120.0
            },
            {
                "start_time": 49.043181818181814,
                "end_time": 49.293181818181814,
                "pitch": 75,
                "velocity": 64,
                "duration": 0.25,
                "tempo": 120.0
            },
            {
                "start_time": 49.31136363636364,
                "end_time": 49.56136363636364,
                "pitch": 73,
                "velocity": 64,
                "duration": 0.25,
                "tempo": 120.0
            },
            {
                "start_time": 49.57727272727273,
                "end_time": 49.82727272727273,
                "pitch": 80,
                "velocity": 64,
                "duration": 0.25,
                "tempo": 120.0
            },
            {
                "start_time": 49.845454545454544,
                "end_time": 50.10454545454545,
                "pitch": 75,
                "velocity": 64,
                "duration": 0.25909090909090793,
                "tempo": 120.0
            },
            {
                "start_time": 50.12045454545454,
                "end_time": 50.38181818181818,
                "pitch": 73,
                "velocity": 64,
                "duration": 0.26136363636364024,
                "tempo": 120.0
            },
            {
                "start_time": 50.39772727272727,
                "end_time": 50.65,
                "pitch": 80,
                "velocity": 64,
                "duration": 0.2522727272727252,
                "tempo": 120.0
            },
            {
                "start_time": 50.66590909090909,
                "end_time": 50.91590909090909,
                "pitch": 75,
                "velocity": 64,
                "duration": 0.25,
                "tempo": 120.0
            },
            {
                "start_time": 50.93181818181818,
                "end_time": 51.184090909090905,
                "pitch": 73,
                "velocity": 64,
                "duration": 0.2522727272727252,
                "tempo": 120.0
            },
            {
                "start_time": 51.199999999999996,
                "end_time": 51.449999999999996,
                "pitch": 80,
                "velocity": 64,
                "duration": 0.25,
                "tempo": 120.0
            },
            {
                "start_time": 51.46818181818182,
                "end_time": 51.71818181818182,
                "pitch": 75,
                "velocity": 64,
                "duration": 0.25,
                "tempo": 120.0
            },
            {
                "start_time": 51.73409090909091,
                "end_time": 51.98409090909091,
                "pitch": 73,
                "velocity": 64,
                "duration": 0.25,
                "tempo": 120.0
            },
            {
                "start_time": 52.002272727272725,
                "end_time": 52.25681818181818,
                "pitch": 80,
                "velocity": 64,
                "duration": 0.2545454545454575,
                "tempo": 120.0
            },
            {
                "start_time": 52.27272727272727,
                "end_time": 52.527272727272724,
                "pitch": 75,
                "velocity": 64,
                "duration": 0.2545454545454504,
                "tempo": 120.0
            },
            {
                "start_time": 52.54545454545454,
                "end_time": 52.79090909090909,
                "pitch": 73,
                "velocity": 64,
                "duration": 0.2454545454545496,
                "tempo": 120.0
            },
            {
                "start_time": 52.80681818181818,
                "end_time": 53.054545454545455,
                "pitch": 80,
                "velocity": 64,
                "duration": 0.2477272727272748,
                "tempo": 120.0
            },
            {
                "start_time": 53.070454545454545,
                "end_time": 53.324999999999996,
                "pitch": 75,
                "velocity": 64,
                "duration": 0.2545454545454504,
                "tempo": 120.0
            },
            {
                "start_time": 53.34318181818182,
                "end_time": 53.59772727272727,
                "pitch": 73,
                "velocity": 64,
                "duration": 0.2545454545454504,
                "tempo": 120.0
            },
            {
                "start_time": 53.61363636363636,
                "end_time": 53.865909090909085,
                "pitch": 80,
                "velocity": 64,
                "duration": 0.2522727272727252,
                "tempo": 120.0
            },
            {
                "start_time": 53.88181818181818,
                "end_time": 54.13181818181818,
                "pitch": 75,
                "velocity": 64,
                "duration": 0.25,
                "tempo": 120.0
            },
            {
                "start_time": 54.14772727272727,
                "end_time": 54.40454545454545,
                "pitch": 73,
                "velocity": 64,
                "duration": 0.2568181818181756,
                "tempo": 120.0
            },
            {
                "start_time": 54.42045454545454,
                "end_time": 54.675,
                "pitch": 80,
                "velocity": 64,
                "duration": 0.2545454545454575,
                "tempo": 120.0
            },
            {
                "start_time": 54.69318181818181,
                "end_time": 54.94318181818181,
                "pitch": 75,
                "velocity": 64,
                "duration": 0.25,
                "tempo": 120.0
            },
            {
                "start_time": 54.959090909090904,
                "end_time": 55.211363636363636,
                "pitch": 73,
                "velocity": 64,
                "duration": 0.2522727272727323,
                "tempo": 120.0
            },
            {
                "start_time": 55.22727272727273,
                "end_time": 55.48181818181818,
                "pitch": 80,
                "velocity": 64,
                "duration": 0.2545454545454504,
                "tempo": 120.0
            },
            {
                "start_time": 55.49772727272727,
                "end_time": 55.75454545454545,
                "pitch": 75,
                "velocity": 64,
                "duration": 0.2568181818181827,
                "tempo": 120.0
            },
            {
                "start_time": 55.77045454545454,
                "end_time": 56.01590909090909,
                "pitch": 81,
                "velocity": 64,
                "duration": 0.2454545454545496,
                "tempo": 120.0
            },
            {
                "start_time": 56.03409090909091,
                "end_time": 56.27954545454545,
                "pitch": 76,
                "velocity": 64,
                "duration": 0.24545454545454248,
                "tempo": 120.0
            },
            {
                "start_time": 56.29545454545454,
                "end_time": 56.55,
                "pitch": 74,
                "velocity": 64,
                "duration": 0.2545454545454575,
                "tempo": 120.0
            },
            {
                "start_time": 56.56818181818181,
                "end_time": 56.82272727272727,
                "pitch": 81,
                "velocity": 64,
                "duration": 0.2545454545454575,
                "tempo": 120.0
            },
            {
                "start_time": 56.83863636363636,
                "end_time": 57.090909090909086,
                "pitch": 76,
                "velocity": 64,
                "duration": 0.2522727272727252,
                "tempo": 120.0
            },
            {
                "start_time": 57.10681818181818,
                "end_time": 57.35681818181818,
                "pitch": 74,
                "velocity": 64,
                "duration": 0.25,
                "tempo": 120.0
            },
            {
                "start_time": 57.375,
                "end_time": 57.625,
                "pitch": 81,
                "velocity": 64,
                "duration": 0.25,
                "tempo": 120.0
            },
            {
                "start_time": 57.64090909090909,
                "end_time": 57.89090909090909,
                "pitch": 76,
                "velocity": 64,
                "duration": 0.25,
                "tempo": 120.0
            },
            {
                "start_time": 57.90909090909091,
                "end_time": 58.163636363636364,
                "pitch": 74,
                "velocity": 64,
                "duration": 0.2545454545454575,
                "tempo": 120.0
            },
            {
                "start_time": 58.179545454545455,
                "end_time": 58.43636363636363,
                "pitch": 81,
                "velocity": 64,
                "duration": 0.2568181818181756,
                "tempo": 120.0
            },
            {
                "start_time": 58.45227272727272,
                "end_time": 58.70681818181818,
                "pitch": 76,
                "velocity": 64,
                "duration": 0.2545454545454575,
                "tempo": 120.0
            },
            {
                "start_time": 58.724999999999994,
                "end_time": 58.97954545454545,
                "pitch": 74,
                "velocity": 64,
                "duration": 0.2545454545454575,
                "tempo": 120.0
            },
            {
                "start_time": 58.99545454545454,
                "end_time": 59.24772727272727,
                "pitch": 81,
                "velocity": 64,
                "duration": 0.2522727272727252,
                "tempo": 120.0
            },
            {
                "start_time": 59.26363636363636,
                "end_time": 59.51363636363636,
                "pitch": 76,
                "velocity": 64,
                "duration": 0.25,
                "tempo": 120.0
            },
            {
                "start_time": 59.53181818181818,
                "end_time": 59.78181818181818,
                "pitch": 74,
                "velocity": 64,
                "duration": 0.25,
                "tempo": 120.0
            },
            {
                "start_time": 59.79772727272727,
                "end_time": 60.04772727272727,
                "pitch": 81,
                "velocity": 64,
                "duration": 0.25,
                "tempo": 120.0
            },
            {
                "start_time": 60.06590909090909,
                "end_time": 60.31590909090909,
                "pitch": 76,
                "velocity": 64,
                "duration": 0.25,
                "tempo": 120.0
            },
            {
                "start_time": 60.33181818181818,
                "end_time": 60.584090909090904,
                "pitch": 74,
                "velocity": 64,
                "duration": 0.2522727272727252,
                "tempo": 120.0
            },
            {
                "start_time": 60.599999999999994,
                "end_time": 60.85454545454545,
                "pitch": 81,
                "velocity": 64,
                "duration": 0.2545454545454575,
                "tempo": 120.0
            },
            {
                "start_time": 60.87045454545454,
                "end_time": 61.127272727272725,
                "pitch": 76,
                "velocity": 64,
                "duration": 0.2568181818181827,
                "tempo": 120.0
            },
            {
                "start_time": 61.143181818181816,
                "end_time": 61.38863636363636,
                "pitch": 74,
                "velocity": 64,
                "duration": 0.24545454545454248,
                "tempo": 120.0
            },
            {
                "start_time": 61.40681818181818,
                "end_time": 61.652272727272724,
                "pitch": 81,
                "velocity": 64,
                "duration": 0.24545454545454248,
                "tempo": 120.0
            },
            {
                "start_time": 61.668181818181814,
                "end_time": 61.92272727272727,
                "pitch": 76,
                "velocity": 64,
                "duration": 0.2545454545454575,
                "tempo": 120.0
            },
            {
                "start_time": 61.94090909090909,
                "end_time": 62.195454545454545,
                "pitch": 74,
                "velocity": 64,
                "duration": 0.2545454545454575,
                "tempo": 120.0
            },
            {
                "start_time": 62.211363636363636,
                "end_time": 62.459090909090904,
                "pitch": 81,
                "velocity": 64,
                "duration": 0.2477272727272677,
                "tempo": 120.0
            },
            {
                "start_time": 62.474999999999994,
                "end_time": 62.720454545454544,
                "pitch": 76,
                "velocity": 64,
                "duration": 0.2454545454545496,
                "tempo": 120.0
            },
            {
                "start_time": 62.736363636363635,
                "end_time": 62.99545454545454,
                "pitch": 74,
                "velocity": 64,
                "duration": 0.25909090909090793,
                "tempo": 120.0
            },
            {
                "start_time": 63.01363636363636,
                "end_time": 63.272727272727266,
                "pitch": 81,
                "velocity": 64,
                "duration": 0.25909090909090793,
                "tempo": 120.0
            },
            {
                "start_time": 63.29090909090909,
                "end_time": 63.54545454545454,
                "pitch": 76,
                "velocity": 64,
                "duration": 0.2545454545454504,
                "tempo": 120.0
            },
            {
                "start_time": 63.56363636363636,
                "end_time": 63.81818181818181,
                "pitch": 74,
                "velocity": 64,
                "duration": 0.2545454545454504,
                "tempo": 120.0
            },
            {
                "start_time": 63.834090909090904,
                "end_time": 64.08636363636363,
                "pitch": 81,
                "velocity": 64,
                "duration": 0.2522727272727252,
                "tempo": 120.0
            },
            {
                "start_time": 64.10227272727272,
                "end_time": 64.35227272727272,
                "pitch": 76,
                "velocity": 64,
                "duration": 0.25,
                "tempo": 120.0
            },
            {
                "start_time": 64.37045454545454,
                "end_time": 64.61590909090908,
                "pitch": 81,
                "velocity": 64,
                "duration": 0.2454545454545496,
                "tempo": 120.0
            },
            {
                "start_time": 64.63181818181818,
                "end_time": 64.87727272727273,
                "pitch": 76,
                "velocity": 64,
                "duration": 0.2454545454545496,
                "tempo": 120.0
            },
            {
                "start_time": 64.89545454545454,
                "end_time": 65.14999999999999,
                "pitch": 72,
                "velocity": 64,
                "duration": 0.2545454545454504,
                "tempo": 120.0
            },
            {
                "start_time": 65.16590909090908,
                "end_time": 65.42045454545455,
                "pitch": 81,
                "velocity": 64,
                "duration": 0.2545454545454646,
                "tempo": 120.0
            },
            {
                "start_time": 65.43863636363636,
                "end_time": 65.68863636363636,
                "pitch": 76,
                "velocity": 64,
                "duration": 0.25,
                "tempo": 120.0
            },
            {
                "start_time": 65.70681818181818,
                "end_time": 65.95681818181818,
                "pitch": 72,
                "velocity": 64,
                "duration": 0.25,
                "tempo": 120.0
            },
            {
                "start_time": 65.97272727272727,
                "end_time": 66.22727272727272,
                "pitch": 81,
                "velocity": 64,
                "duration": 0.2545454545454504,
                "tempo": 120.0
            },
            {
                "start_time": 66.24545454545454,
                "end_time": 66.5,
                "pitch": 76,
                "velocity": 64,
                "duration": 0.2545454545454646,
                "tempo": 120.0
            },
            {
                "start_time": 66.51590909090909,
                "end_time": 66.76818181818182,
                "pitch": 72,
                "velocity": 64,
                "duration": 0.2522727272727252,
                "tempo": 120.0
            },
            {
                "start_time": 66.7840909090909,
                "end_time": 67.0340909090909,
                "pitch": 81,
                "velocity": 64,
                "duration": 0.25,
                "tempo": 120.0
            },
            {
                "start_time": 67.05227272727272,
                "end_time": 67.30227272727272,
                "pitch": 76,
                "velocity": 64,
                "duration": 0.25,
                "tempo": 120.0
            },
            {
                "start_time": 67.31818181818181,
                "end_time": 67.56818181818181,
                "pitch": 72,
                "velocity": 64,
                "duration": 0.25,
                "tempo": 120.0
            },
            {
                "start_time": 67.58636363636363,
                "end_time": 67.83636363636363,
                "pitch": 81,
                "velocity": 64,
                "duration": 0.25,
                "tempo": 120.0
            },
            {
                "start_time": 67.85227272727272,
                "end_time": 68.10227272727272,
                "pitch": 76,
                "velocity": 64,
                "duration": 0.25,
                "tempo": 120.0
            },
            {
                "start_time": 68.12045454545454,
                "end_time": 68.375,
                "pitch": 72,
                "velocity": 64,
                "duration": 0.2545454545454646,
                "tempo": 120.0
            },
            {
                "start_time": 68.39090909090909,
                "end_time": 68.64772727272727,
                "pitch": 81,
                "velocity": 64,
                "duration": 0.2568181818181756,
                "tempo": 120.0
            },
            {
                "start_time": 68.66363636363636,
                "end_time": 68.91363636363636,
                "pitch": 76,
                "velocity": 64,
                "duration": 0.25,
                "tempo": 120.0
            },
            {
                "start_time": 68.93181818181817,
                "end_time": 69.18181818181817,
                "pitch": 72,
                "velocity": 64,
                "duration": 0.25,
                "tempo": 120.0
            },
            {
                "start_time": 69.19772727272726,
                "end_time": 69.45227272727273,
                "pitch": 81,
                "velocity": 64,
                "duration": 0.2545454545454646,
                "tempo": 120.0
            },
            {
                "start_time": 69.47045454545454,
                "end_time": 69.725,
                "pitch": 76,
                "velocity": 64,
                "duration": 0.2545454545454504,
                "tempo": 120.0
            },
            {
                "start_time": 69.74318181818181,
                "end_time": 69.99318181818181,
                "pitch": 72,
                "velocity": 64,
                "duration": 0.25,
                "tempo": 120.0
            },
            {
                "start_time": 70.0090909090909,
                "end_time": 70.2590909090909,
                "pitch": 81,
                "velocity": 64,
                "duration": 0.25,
                "tempo": 120.0
            },
            {
                "start_time": 70.27727272727273,
                "end_time": 70.52727272727273,
                "pitch": 76,
                "velocity": 64,
                "duration": 0.25,
                "tempo": 120.0
            },
            {
                "start_time": 70.54318181818182,
                "end_time": 70.79545454545455,
                "pitch": 72,
                "velocity": 64,
                "duration": 0.2522727272727252,
                "tempo": 120.0
            },
            {
                "start_time": 70.81136363636364,
                "end_time": 71.06136363636364,
                "pitch": 81,
                "velocity": 64,
                "duration": 0.25,
                "tempo": 120.0
            },
            {
                "start_time": 71.07727272727273,
                "end_time": 71.32954545454545,
                "pitch": 76,
                "velocity": 64,
                "duration": 0.2522727272727252,
                "tempo": 120.0
            },
            {
                "start_time": 71.34545454545454,
                "end_time": 71.6,
                "pitch": 72,
                "velocity": 64,
                "duration": 0.2545454545454504,
                "tempo": 120.0
            },
            {
                "start_time": 71.61818181818181,
                "end_time": 71.87272727272727,
                "pitch": 81,
                "velocity": 64,
                "duration": 0.2545454545454646,
                "tempo": 120.0
            },
            {
                "start_time": 71.88863636363637,
                "end_time": 72.14090909090909,
                "pitch": 76,
                "velocity": 64,
                "duration": 0.2522727272727252,
                "tempo": 120.0
            },
            {
                "start_time": 72.15681818181818,
                "end_time": 72.40681818181818,
                "pitch": 72,
                "velocity": 64,
                "duration": 0.25,
                "tempo": 120.0
            },
            {
                "start_time": 72.42272727272727,
                "end_time": 72.67954545454545,
                "pitch": 81,
                "velocity": 64,
                "duration": 0.2568181818181756,
                "tempo": 120.0
            },
            {
                "start_time": 72.69545454545454,
                "end_time": 72.95,
                "pitch": 76,
                "velocity": 64,
                "duration": 0.2545454545454646,
                "tempo": 120.0
            },
            {
                "start_time": 72.96818181818182,
                "end_time": 73.08636363636363,
                "pitch": 80,
                "velocity": 64,
                "duration": 0.11818181818181017,
                "tempo": 120.0
            },
            {
                "start_time": 73.10454545454544,
                "end_time": 73.22272727272727,
                "pitch": 80,
                "velocity": 80,
                "duration": 0.11818181818182438,
                "tempo": 120.0
            },
            {
                "start_time": 73.23863636363636,
                "end_time": 73.35909090909091,
                "pitch": 75,
                "velocity": 80,
                "duration": 0.12045454545454959,
                "tempo": 120.0
            },
            {
                "start_time": 73.375,
                "end_time": 73.49545454545454,
                "pitch": 75,
                "velocity": 80,
                "duration": 0.12045454545453538,
                "tempo": 120.0
            },
            {
                "start_time": 73.51136363636363,
                "end_time": 73.62727272727273,
                "pitch": 71,
                "velocity": 80,
                "duration": 0.11590909090909918,
                "tempo": 120.0
            },
            {
                "start_time": 73.64318181818182,
                "end_time": 73.75681818181818,
                "pitch": 71,
                "velocity": 80,
                "duration": 0.11363636363635976,
                "tempo": 120.0
            },
            {
                "start_time": 73.77499999999999,
                "end_time": 73.88863636363637,
                "pitch": 80,
                "velocity": 80,
                "duration": 0.11363636363637397,
                "tempo": 120.0
            },
            {
                "start_time": 73.90454545454546,
                "end_time": 74.02045454545454,
                "pitch": 80,
                "velocity": 80,
                "duration": 0.11590909090908497,
                "tempo": 120.0
            },
            {
                "start_time": 74.03636363636363,
                "end_time": 74.15454545454546,
                "pitch": 75,
                "velocity": 80,
                "duration": 0.11818181818182438,
                "tempo": 120.0
            },
            {
                "start_time": 74.17045454545455,
                "end_time": 74.28636363636363,
                "pitch": 75,
                "velocity": 80,
                "duration": 0.11590909090908497,
                "tempo": 120.0
            },
            {
                "start_time": 74.30454545454545,
                "end_time": 74.42045454545455,
                "pitch": 71,
                "velocity": 80,
                "duration": 0.11590909090909918,
                "tempo": 120.0
            },
            {
                "start_time": 74.43863636363636,
                "end_time": 74.55454545454545,
                "pitch": 71,
                "velocity": 80,
                "duration": 0.11590909090908497,
                "tempo": 120.0
            },
            {
                "start_time": 74.57045454545454,
                "end_time": 74.69090909090909,
                "pitch": 80,
                "velocity": 80,
                "duration": 0.12045454545454959,
                "tempo": 120.0
            },
            {
                "start_time": 74.70681818181818,
                "end_time": 74.825,
                "pitch": 80,
                "velocity": 80,
                "duration": 0.11818181818182438,
                "tempo": 120.0
            },
            {
                "start_time": 74.84318181818182,
                "end_time": 74.96136363636363,
                "pitch": 75,
                "velocity": 80,
                "duration": 0.11818181818181017,
                "tempo": 120.0
            },
            {
                "start_time": 74.97954545454544,
                "end_time": 75.09772727272727,
                "pitch": 75,
                "velocity": 80,
                "duration": 0.11818181818182438,
                "tempo": 120.0
            },
            {
                "start_time": 75.11590909090908,
                "end_time": 75.23181818181818,
                "pitch": 71,
                "velocity": 80,
                "duration": 0.11590909090909918,
                "tempo": 120.0
            },
            {
                "start_time": 75.24772727272727,
                "end_time": 75.36590909090908,
                "pitch": 71,
                "velocity": 80,
                "duration": 0.11818181818181017,
                "tempo": 120.0
            },
            {
                "start_time": 75.38181818181818,
                "end_time": 75.5,
                "pitch": 80,
                "velocity": 80,
                "duration": 0.11818181818182438,
                "tempo": 120.0
            },
            {
                "start_time": 75.51590909090909,
                "end_time": 75.63181818181818,
                "pitch": 80,
                "velocity": 80,
                "duration": 0.11590909090908497,
                "tempo": 120.0
            },
            {
                "start_time": 75.64999999999999,
                "end_time": 75.76818181818182,
                "pitch": 75,
                "velocity": 80,
                "duration": 0.11818181818182438,
                "tempo": 120.0
            },
            {
                "start_time": 75.78636363636363,
                "end_time": 75.90454545454546,
                "pitch": 75,
                "velocity": 80,
                "duration": 0.11818181818182438,
                "tempo": 120.0
            },
            {
                "start_time": 75.92045454545455,
                "end_time": 76.04090909090908,
                "pitch": 71,
                "velocity": 80,
                "duration": 0.12045454545453538,
                "tempo": 120.0
            },
            {
                "start_time": 76.05681818181817,
                "end_time": 76.17727272727272,
                "pitch": 71,
                "velocity": 80,
                "duration": 0.12045454545454959,
                "tempo": 120.0
            },
            {
                "start_time": 76.19318181818181,
                "end_time": 76.31136363636364,
                "pitch": 80,
                "velocity": 80,
                "duration": 0.11818181818182438,
                "tempo": 120.0
            },
            {
                "start_time": 76.32727272727273,
                "end_time": 76.44318181818181,
                "pitch": 80,
                "velocity": 80,
                "duration": 0.11590909090908497,
                "tempo": 120.0
            },
            {
                "start_time": 76.46136363636363,
                "end_time": 76.57727272727273,
                "pitch": 75,
                "velocity": 80,
                "duration": 0.11590909090909918,
                "tempo": 120.0
            },
            {
                "start_time": 76.59318181818182,
                "end_time": 76.71136363636363,
                "pitch": 75,
                "velocity": 80,
                "duration": 0.11818181818181017,
                "tempo": 120.0
            },
            {
                "start_time": 76.72727272727272,
                "end_time": 76.84545454545454,
                "pitch": 71,
                "velocity": 80,
                "duration": 0.11818181818182438,
                "tempo": 120.0
            },
            {
                "start_time": 76.86136363636363,
                "end_time": 76.97727272727272,
                "pitch": 71,
                "velocity": 80,
                "duration": 0.11590909090908497,
                "tempo": 120.0
            },
            {
                "start_time": 76.99545454545454,
                "end_time": 77.11136363636363,
                "pitch": 80,
                "velocity": 80,
                "duration": 0.11590909090909918,
                "tempo": 120.0
            },
            {
                "start_time": 77.12954545454545,
                "end_time": 77.24545454545454,
                "pitch": 80,
                "velocity": 80,
                "duration": 0.11590909090908497,
                "tempo": 120.0
            },
            {
                "start_time": 77.26136363636363,
                "end_time": 77.37954545454545,
                "pitch": 75,
                "velocity": 80,
                "duration": 0.11818181818182438,
                "tempo": 120.0
            },
            {
                "start_time": 77.39545454545454,
                "end_time": 77.51363636363637,
                "pitch": 75,
                "velocity": 80,
                "duration": 0.11818181818182438,
                "tempo": 120.0
            },
            {
                "start_time": 77.52954545454546,
                "end_time": 77.64545454545454,
                "pitch": 71,
                "velocity": 80,
                "duration": 0.11590909090908497,
                "tempo": 120.0
            },
            {
                "start_time": 77.66363636363636,
                "end_time": 77.77954545454546,
                "pitch": 71,
                "velocity": 80,
                "duration": 0.11590909090909918,
                "tempo": 120.0
            },
            {
                "start_time": 77.79772727272727,
                "end_time": 77.91590909090908,
                "pitch": 80,
                "velocity": 80,
                "duration": 0.11818181818181017,
                "tempo": 120.0
            },
            {
                "start_time": 77.93181818181817,
                "end_time": 78.05227272727272,
                "pitch": 80,
                "velocity": 80,
                "duration": 0.12045454545454959,
                "tempo": 120.0
            },
            {
                "start_time": 78.06818181818181,
                "end_time": 78.18863636363636,
                "pitch": 75,
                "velocity": 80,
                "duration": 0.12045454545454959,
                "tempo": 120.0
            },
            {
                "start_time": 78.20454545454545,
                "end_time": 78.32272727272726,
                "pitch": 75,
                "velocity": 80,
                "duration": 0.11818181818181017,
                "tempo": 120.0
            },
            {
                "start_time": 78.3409090909091,
                "end_time": 78.45681818181818,
                "pitch": 71,
                "velocity": 80,
                "duration": 0.11590909090908497,
                "tempo": 120.0
            },
            {
                "start_time": 78.475,
                "end_time": 78.5909090909091,
                "pitch": 71,
                "velocity": 80,
                "duration": 0.11590909090909918,
                "tempo": 120.0
            },
            {
                "start_time": 78.60681818181818,
                "end_time": 78.725,
                "pitch": 80,
                "velocity": 80,
                "duration": 0.11818181818181017,
                "tempo": 120.0
            },
            {
                "start_time": 78.74090909090908,
                "end_time": 78.85909090909091,
                "pitch": 80,
                "velocity": 80,
                "duration": 0.11818181818182438,
                "tempo": 120.0
            },
            {
                "start_time": 78.875,
                "end_time": 78.99318181818181,
                "pitch": 75,
                "velocity": 80,
                "duration": 0.11818181818181017,
                "tempo": 120.0
            },
            {
                "start_time": 79.01136363636363,
                "end_time": 79.12954545454545,
                "pitch": 75,
                "velocity": 80,
                "duration": 0.11818181818182438,
                "tempo": 120.0
            },
            {
                "start_time": 79.14772727272727,
                "end_time": 79.26590909090909,
                "pitch": 71,
                "velocity": 80,
                "duration": 0.11818181818182438,
                "tempo": 120.0
            },
            {
                "start_time": 79.28181818181818,
                "end_time": 79.40227272727272,
                "pitch": 71,
                "velocity": 80,
                "duration": 0.12045454545453538,
                "tempo": 120.0
            },
            {
                "start_time": 79.41818181818181,
                "end_time": 79.53636363636363,
                "pitch": 80,
                "velocity": 80,
                "duration": 0.11818181818182438,
                "tempo": 120.0
            },
            {
                "start_time": 79.55227272727272,
                "end_time": 79.67045454545455,
                "pitch": 80,
                "velocity": 80,
                "duration": 0.11818181818182438,
                "tempo": 120.0
            },
            {
                "start_time": 79.68636363636364,
                "end_time": 79.80227272727272,
                "pitch": 75,
                "velocity": 80,
                "duration": 0.11590909090908497,
                "tempo": 120.0
            },
            {
                "start_time": 79.82045454545454,
                "end_time": 79.93636363636364,
                "pitch": 75,
                "velocity": 80,
                "duration": 0.11590909090909918,
                "tempo": 120.0
            },
            {
                "start_time": 79.95227272727273,
                "end_time": 80.07045454545454,
                "pitch": 71,
                "velocity": 80,
                "duration": 0.11818181818181017,
                "tempo": 120.0
            },
            {
                "start_time": 80.08636363636363,
                "end_time": 80.20454545454545,
                "pitch": 71,
                "velocity": 80,
                "duration": 0.11818181818182438,
                "tempo": 120.0
            },
            {
                "start_time": 80.22045454545454,
                "end_time": 80.33636363636363,
                "pitch": 80,
                "velocity": 80,
                "duration": 0.11590909090908497,
                "tempo": 120.0
            },
            {
                "start_time": 80.35454545454544,
                "end_time": 80.47045454545454,
                "pitch": 80,
                "velocity": 80,
                "duration": 0.11590909090909918,
                "tempo": 120.0
            },
            {
                "start_time": 80.48863636363636,
                "end_time": 80.60454545454544,
                "pitch": 75,
                "velocity": 80,
                "duration": 0.11590909090908497,
                "tempo": 120.0
            },
            {
                "start_time": 80.62045454545454,
                "end_time": 80.73863636363636,
                "pitch": 75,
                "velocity": 80,
                "duration": 0.11818181818182438,
                "tempo": 120.0
            },
            {
                "start_time": 80.75454545454545,
                "end_time": 80.87272727272727,
                "pitch": 71,
                "velocity": 80,
                "duration": 0.11818181818182438,
                "tempo": 120.0
            },
            {
                "start_time": 80.88863636363637,
                "end_time": 81.00454545454545,
                "pitch": 71,
                "velocity": 80,
                "duration": 0.11590909090908497,
                "tempo": 120.0
            },
            {
                "start_time": 81.02272727272727,
                "end_time": 81.14090909090909,
                "pitch": 80,
                "velocity": 80,
                "duration": 0.11818181818182438,
                "tempo": 120.0
            },
            {
                "start_time": 81.1590909090909,
                "end_time": 81.27727272727272,
                "pitch": 80,
                "velocity": 80,
                "duration": 0.11818181818181017,
                "tempo": 120.0
            },
            {
                "start_time": 81.29318181818181,
                "end_time": 81.41363636363636,
                "pitch": 75,
                "velocity": 80,
                "duration": 0.12045454545454959,
                "tempo": 120.0
            },
            {
                "start_time": 81.42954545454545,
                "end_time": 81.55,
                "pitch": 75,
                "velocity": 80,
                "duration": 0.12045454545454959,
                "tempo": 120.0
            }
        ],
        "Vibraphone": [
            {
                "start_time": 32.10454545454545,
                "end_time": 34.24318181818182,
                "pitch": 61,
                "velocity": 80,
                "duration": 2.1386363636363654,
                "tempo": 120.0
            },
            {
                "start_time": 34.26136363636363,
                "end_time": 36.4,
                "pitch": 61,
                "velocity": 80,
                "duration": 2.1386363636363654,
                "tempo": 120.0
            },
            {
                "start_time": 36.418181818181814,
                "end_time": 38.54772727272727,
                "pitch": 61,
                "velocity": 80,
                "duration": 2.1295454545454575,
                "tempo": 120.0
            },
            {
                "start_time": 38.56590909090909,
                "end_time": 40.695454545454545,
                "pitch": 61,
                "velocity": 80,
                "duration": 2.1295454545454575,
                "tempo": 120.0
            },
            {
                "start_time": 40.711363636363636,
                "end_time": 42.84318181818182,
                "pitch": 61,
                "velocity": 80,
                "duration": 2.1318181818181827,
                "tempo": 120.0
            },
            {
                "start_time": 42.85909090909091,
                "end_time": 44.99772727272727,
                "pitch": 61,
                "velocity": 80,
                "duration": 2.1386363636363583,
                "tempo": 120.0
            },
            {
                "start_time": 45.01590909090909,
                "end_time": 47.14545454545454,
                "pitch": 61,
                "velocity": 80,
                "duration": 2.1295454545454504,
                "tempo": 120.0
            }
        ]
    }
}