{
    "track_id": "Ys (FM) - 06 - Palace",
    "mood": "angry",
    "instruments": {
        "Acoustic Bass": [
            {
                "start_time": 59.55,
                "end_time": 59.752272727272725,
                "pitch": 71,
                "velocity": 80,
                "duration": 0.20227272727272805,
                "tempo": 120.0
            },
            {
                "start_time": 59.768181818181816,
                "end_time": 59.95227272727272,
                "pitch": 71,
                "velocity": 80,
                "duration": 0.18409090909090509,
                "tempo": 120.0
            },
            {
                "start_time": 60.168181818181814,
                "end_time": 60.349999999999994,
                "pitch": 71,
                "velocity": 80,
                "duration": 0.18181818181817988,
                "tempo": 120.0
            },
            {
                "start_time": 60.365909090909085,
                "end_time": 60.56363636363636,
                "pitch": 71,
                "velocity": 80,
                "duration": 0.19772727272727764,
                "tempo": 120.0
            },
            {
                "start_time": 60.58181818181818,
                "end_time": 60.77045454545454,
                "pitch": 74,
                "velocity": 80,
                "duration": 0.1886363636363626,
                "tempo": 120.0
            },
            {
                "start_time": 60.78636363636363,
                "end_time": 60.974999999999994,
                "pitch": 71,
                "velocity": 80,
                "duration": 0.1886363636363626,
                "tempo": 120.0
            },
            {
                "start_time": 60.990909090909085,
                "end_time": 61.179545454545455,
                "pitch": 71,
                "velocity": 80,
                "duration": 0.1886363636363697,
                "tempo": 120.0
            },
            {
                "start_time": 61.40681818181818,
                "end_time": 61.584090909090904,
                "pitch": 71,
                "velocity": 80,
                "duration": 0.17727272727272236,
                "tempo": 120.0
            },
            {
                "start_time": 61.59772727272727,
                "end_time": 61.72272727272727,
                "pitch": 71,
                "velocity": 80,
                "duration": 0.125,
                "tempo": 120.0
            },
            {
                "start_time": 61.736363636363635,
                "end_time": 61.861363636363635,
                "pitch": 78,
                "velocity": 80,
                "duration": 0.125,
                "tempo": 120.0
            },
            {
                "start_time": 61.87272727272727,
                "end_time": 62.00909090909091,
                "pitch": 71,
                "velocity": 80,
                "duration": 0.13636363636364024,
                "tempo": 120.0
            },
            {
                "start_time": 62.02045454545454,
                "end_time": 62.143181818181816,
                "pitch": 71,
                "velocity": 80,
                "duration": 0.1227272727272748,
                "tempo": 120.0
            },
            {
                "start_time": 62.288636363636364,
                "end_time": 62.413636363636364,
                "pitch": 71,
                "velocity": 80,
                "duration": 0.125,
                "tempo": 120.0
            },
            {
                "start_time": 62.425,
                "end_time": 62.559090909090905,
                "pitch": 71,
                "velocity": 80,
                "duration": 0.13409090909090793,
                "tempo": 120.0
            },
            {
                "start_time": 62.570454545454545,
                "end_time": 62.69318181818181,
                "pitch": 83,
                "velocity": 80,
                "duration": 0.12272727272726769,
                "tempo": 120.0
            },
            {
                "start_time": 62.70454545454545,
                "end_time": 62.824999999999996,
                "pitch": 71,
                "velocity": 80,
                "duration": 0.12045454545454248,
                "tempo": 120.0
            },
            {
                "start_time": 62.836363636363636,
                "end_time": 62.95681818181818,
                "pitch": 71,
                "velocity": 80,
                "duration": 0.12045454545454248,
                "tempo": 120.0
            },
            {
                "start_time": 63.11363636363636,
                "end_time": 63.236363636363635,
                "pitch": 71,
                "velocity": 80,
                "duration": 0.1227272727272748,
                "tempo": 120.0
            },
            {
                "start_time": 63.24772727272727,
                "end_time": 63.37045454545454,
                "pitch": 71,
                "velocity": 80,
                "duration": 0.1227272727272748,
                "tempo": 120.0
            },
            {
                "start_time": 63.381818181818176,
                "end_time": 63.506818181818176,
                "pitch": 83,
                "velocity": 80,
                "duration": 0.125,
                "tempo": 120.0
            },
            {
                "start_time": 63.51590909090909,
                "end_time": 63.647727272727266,
                "pitch": 83,
                "velocity": 80,
                "duration": 0.13181818181817562,
                "tempo": 120.0
            },
            {
                "start_time": 63.65909090909091,
                "end_time": 63.77954545454545,
                "pitch": 83,
                "velocity": 80,
                "duration": 0.12045454545454248,
                "tempo": 120.0
            },
            {
                "start_time": 63.925,
                "end_time": 64.04772727272727,
                "pitch": 83,
                "velocity": 80,
                "duration": 0.1227272727272748,
                "tempo": 120.0
            },
            {
                "start_time": 64.05909090909091,
                "end_time": 64.19772727272726,
                "pitch": 83,
                "velocity": 80,
                "duration": 0.13863636363635123,
                "tempo": 120.0
            },
            {
                "start_time": 64.2090909090909,
                "end_time": 64.33636363636363,
                "pitch": 86,
                "velocity": 80,
                "duration": 0.1272727272727252,
                "tempo": 120.0
            },
            {
                "start_time": 64.34772727272727,
                "end_time": 64.46818181818182,
                "pitch": 83,
                "velocity": 80,
                "duration": 0.12045454545454959,
                "tempo": 120.0
            },
            {
                "start_time": 64.47954545454544,
                "end_time": 64.6,
                "pitch": 83,
                "velocity": 80,
                "duration": 0.12045454545454959,
                "tempo": 120.0
            },
            {
                "start_time": 64.75227272727273,
                "end_time": 64.875,
                "pitch": 83,
                "velocity": 80,
                "duration": 0.1227272727272748,
                "tempo": 120.0
            },
            {
                "start_time": 64.88636363636364,
                "end_time": 65.01363636363637,
                "pitch": 83,
                "velocity": 80,
                "duration": 0.1272727272727252,
                "tempo": 120.0
            },
            {
                "start_time": 65.02499999999999,
                "end_time": 65.15227272727273,
                "pitch": 90,
                "velocity": 80,
                "duration": 0.12727272727273942,
                "tempo": 120.0
            },
            {
                "start_time": 65.16136363636363,
                "end_time": 65.29318181818182,
                "pitch": 83,
                "velocity": 80,
                "duration": 0.13181818181818983,
                "tempo": 120.0
            },
            {
                "start_time": 65.30454545454545,
                "end_time": 65.425,
                "pitch": 83,
                "velocity": 80,
                "duration": 0.12045454545454959,
                "tempo": 120.0
            },
            {
                "start_time": 65.575,
                "end_time": 65.70227272727273,
                "pitch": 83,
                "velocity": 80,
                "duration": 0.1272727272727252,
                "tempo": 120.0
            },
            {
                "start_time": 65.71136363636363,
                "end_time": 65.8409090909091,
                "pitch": 83,
                "velocity": 80,
                "duration": 0.12954545454546462,
                "tempo": 120.0
            },
            {
                "start_time": 65.85227272727272,
                "end_time": 65.96818181818182,
                "pitch": 95,
                "velocity": 80,
                "duration": 0.11590909090909918,
                "tempo": 120.0
            },
            {
                "start_time": 65.98181818181818,
                "end_time": 66.10681818181818,
                "pitch": 83,
                "velocity": 80,
                "duration": 0.125,
                "tempo": 120.0
            },
            {
                "start_time": 66.12045454545454,
                "end_time": 66.24545454545454,
                "pitch": 83,
                "velocity": 80,
                "duration": 0.125,
                "tempo": 120.0
            },
            {
                "start_time": 66.4090909090909,
                "end_time": 66.5340909090909,
                "pitch": 83,
                "velocity": 80,
                "duration": 0.125,
                "tempo": 120.0
            },
            {
                "start_time": 66.54545454545455,
                "end_time": 66.66818181818182,
                "pitch": 83,
                "velocity": 80,
                "duration": 0.1227272727272748,
                "tempo": 120.0
            },
            {
                "start_time": 66.67727272727272,
                "end_time": 66.80909090909091,
                "pitch": 83,
                "velocity": 80,
                "duration": 0.13181818181818983,
                "tempo": 120.0
            },
            {
                "start_time": 66.82045454545454,
                "end_time": 66.94545454545454,
                "pitch": 83,
                "velocity": 80,
                "duration": 0.125,
                "tempo": 120.0
            },
            {
                "start_time": 66.95681818181818,
                "end_time": 67.07954545454545,
                "pitch": 83,
                "velocity": 80,
                "duration": 0.1227272727272748,
                "tempo": 120.0
            },
            {
                "start_time": 67.225,
                "end_time": 67.36136363636363,
                "pitch": 83,
                "velocity": 80,
                "duration": 0.13636363636364024,
                "tempo": 120.0
            },
            {
                "start_time": 67.37272727272727,
                "end_time": 67.49545454545454,
                "pitch": 83,
                "velocity": 80,
                "duration": 0.12272727272726058,
                "tempo": 120.0
            },
            {
                "start_time": 67.50681818181818,
                "end_time": 67.62954545454545,
                "pitch": 86,
                "velocity": 80,
                "duration": 0.1227272727272748,
                "tempo": 120.0
            },
            {
                "start_time": 67.64090909090909,
                "end_time": 67.76136363636363,
                "pitch": 83,
                "velocity": 80,
                "duration": 0.12045454545453538,
                "tempo": 120.0
            },
            {
                "start_time": 67.77272727272727,
                "end_time": 67.90454545454546,
                "pitch": 83,
                "velocity": 80,
                "duration": 0.13181818181818983,
                "tempo": 120.0
            },
            {
                "start_time": 68.05454545454545,
                "end_time": 68.18181818181817,
                "pitch": 83,
                "velocity": 80,
                "duration": 0.1272727272727252,
                "tempo": 120.0
            },
            {
                "start_time": 68.19318181818181,
                "end_time": 68.31590909090909,
                "pitch": 83,
                "velocity": 80,
                "duration": 0.1227272727272748,
                "tempo": 120.0
            },
            {
                "start_time": 68.32727272727273,
                "end_time": 68.46363636363635,
                "pitch": 90,
                "velocity": 80,
                "duration": 0.13636363636362603,
                "tempo": 120.0
            },
            {
                "start_time": 68.475,
                "end_time": 68.59772727272727,
                "pitch": 83,
                "velocity": 80,
                "duration": 0.1227272727272748,
                "tempo": 120.0
            },
            {
                "start_time": 68.60909090909091,
                "end_time": 68.73181818181818,
                "pitch": 83,
                "velocity": 80,
                "duration": 0.1227272727272748,
                "tempo": 120.0
            },
            {
                "start_time": 68.875,
                "end_time": 69.00681818181818,
                "pitch": 83,
                "velocity": 80,
                "duration": 0.13181818181817562,
                "tempo": 120.0
            },
            {
                "start_time": 69.01818181818182,
                "end_time": 69.14318181818182,
                "pitch": 83,
                "velocity": 80,
                "duration": 0.125,
                "tempo": 120.0
            },
            {
                "start_time": 69.15454545454546,
                "end_time": 69.27727272727273,
                "pitch": 95,
                "velocity": 80,
                "duration": 0.1227272727272748,
                "tempo": 120.0
            },
            {
                "start_time": 69.28863636363636,
                "end_time": 69.41136363636363,
                "pitch": 83,
                "velocity": 80,
                "duration": 0.1227272727272748,
                "tempo": 120.0
            },
            {
                "start_time": 69.42272727272727,
                "end_time": 69.55681818181817,
                "pitch": 83,
                "velocity": 80,
                "duration": 0.13409090909090082,
                "tempo": 120.0
            },
            {
                "start_time": 69.70454545454545,
                "end_time": 69.82727272727273,
                "pitch": 83,
                "velocity": 80,
                "duration": 0.1227272727272748,
                "tempo": 120.0
            },
            {
                "start_time": 69.83863636363635,
                "end_time": 69.96136363636363,
                "pitch": 83,
                "velocity": 80,
                "duration": 0.1227272727272748,
                "tempo": 120.0
            },
            {
                "start_time": 69.97272727272727,
                "end_time": 70.10909090909091,
                "pitch": 83,
                "velocity": 80,
                "duration": 0.13636363636364024,
                "tempo": 120.0
            },
            {
                "start_time": 70.11818181818181,
                "end_time": 70.24318181818181,
                "pitch": 83,
                "velocity": 80,
                "duration": 0.125,
                "tempo": 120.0
            },
            {
                "start_time": 70.25454545454545,
                "end_time": 70.37727272727273,
                "pitch": 83,
                "velocity": 80,
                "duration": 0.1227272727272748,
                "tempo": 120.0
            },
            {
                "start_time": 70.52045454545454,
                "end_time": 70.65227272727273,
                "pitch": 83,
                "velocity": 80,
                "duration": 0.13181818181818983,
                "tempo": 120.0
            },
            {
                "start_time": 70.66363636363636,
                "end_time": 70.78636363636363,
                "pitch": 83,
                "velocity": 80,
                "duration": 0.1227272727272748,
                "tempo": 120.0
            },
            {
                "start_time": 70.79772727272727,
                "end_time": 70.92272727272727,
                "pitch": 86,
                "velocity": 80,
                "duration": 0.125,
                "tempo": 120.0
            },
            {
                "start_time": 70.93409090909091,
                "end_time": 71.05454545454545,
                "pitch": 83,
                "velocity": 80,
                "duration": 0.12045454545453538,
                "tempo": 120.0
            },
            {
                "start_time": 71.06590909090909,
                "end_time": 71.19772727272726,
                "pitch": 83,
                "velocity": 80,
                "duration": 0.13181818181817562,
                "tempo": 120.0
            },
            {
                "start_time": 71.34772727272727,
                "end_time": 71.475,
                "pitch": 83,
                "velocity": 80,
                "duration": 0.1272727272727252,
                "tempo": 120.0
            },
            {
                "start_time": 71.48636363636363,
                "end_time": 71.60681818181818,
                "pitch": 83,
                "velocity": 80,
                "duration": 0.12045454545454959,
                "tempo": 120.0
            },
            {
                "start_time": 71.61818181818181,
                "end_time": 71.75,
                "pitch": 90,
                "velocity": 80,
                "duration": 0.13181818181818983,
                "tempo": 120.0
            },
            {
                "start_time": 71.76136363636363,
                "end_time": 71.88863636363637,
                "pitch": 83,
                "velocity": 80,
                "duration": 0.12727272727273942,
                "tempo": 120.0
            },
            {
                "start_time": 71.89999999999999,
                "end_time": 72.02727272727272,
                "pitch": 83,
                "velocity": 80,
                "duration": 0.1272727272727252,
                "tempo": 120.0
            },
            {
                "start_time": 72.16818181818182,
                "end_time": 72.3,
                "pitch": 83,
                "velocity": 80,
                "duration": 0.13181818181817562,
                "tempo": 120.0
            },
            {
                "start_time": 72.31136363636364,
                "end_time": 72.43409090909091,
                "pitch": 83,
                "velocity": 80,
                "duration": 0.1227272727272748,
                "tempo": 120.0
            },
            {
                "start_time": 72.44545454545454,
                "end_time": 72.56818181818181,
                "pitch": 95,
                "velocity": 80,
                "duration": 0.1227272727272748,
                "tempo": 120.0
            },
            {
                "start_time": 72.57954545454545,
                "end_time": 72.7,
                "pitch": 83,
                "velocity": 80,
                "duration": 0.12045454545454959,
                "tempo": 120.0
            },
            {
                "start_time": 72.72272727272727,
                "end_time": 72.84318181818182,
                "pitch": 83,
                "velocity": 80,
                "duration": 0.12045454545454959,
                "tempo": 120.0
            },
            {
                "start_time": 72.99318181818181,
                "end_time": 73.12045454545454,
                "pitch": 83,
                "velocity": 80,
                "duration": 0.1272727272727252,
                "tempo": 120.0
            },
            {
                "start_time": 73.13181818181818,
                "end_time": 73.27045454545454,
                "pitch": 83,
                "velocity": 80,
                "duration": 0.13863636363636545,
                "tempo": 120.0
            }
        ],
        "Church Organ": [
            {
                "start_time": 74.24545454545454,
                "end_time": 74.64772727272727,
                "pitch": 83,
                "velocity": 51,
                "duration": 0.4022727272727309,
                "tempo": 120.0
            },
            {
                "start_time": 74.66363636363636,
                "end_time": 75.05909090909091,
                "pitch": 85,
                "velocity": 51,
                "duration": 0.3954545454545553,
                "tempo": 120.0
            },
            {
                "start_time": 75.075,
                "end_time": 75.48636363636363,
                "pitch": 86,
                "velocity": 51,
                "duration": 0.4113636363636317,
                "tempo": 120.0
            },
            {
                "start_time": 75.50454545454545,
                "end_time": 76.69545454545454,
                "pitch": 88,
                "velocity": 51,
                "duration": 1.1909090909090878,
                "tempo": 120.0
            },
            {
                "start_time": 76.71136363636363,
                "end_time": 77.11363636363636,
                "pitch": 86,
                "velocity": 51,
                "duration": 0.4022727272727309,
                "tempo": 120.0
            },
            {
                "start_time": 77.12954545454545,
                "end_time": 77.52272727272727,
                "pitch": 85,
                "velocity": 51,
                "duration": 0.39318181818181586,
                "tempo": 120.0
            },
            {
                "start_time": 77.53863636363636,
                "end_time": 77.94772727272726,
                "pitch": 81,
                "velocity": 51,
                "duration": 0.4090909090909065,
                "tempo": 120.0
            },
            {
                "start_time": 77.9659090909091,
                "end_time": 80.42272727272727,
                "pitch": 83,
                "velocity": 51,
                "duration": 2.4568181818181785,
                "tempo": 120.0
            },
            {
                "start_time": 80.43863636363636,
                "end_time": 82.075,
                "pitch": 95,
                "velocity": 51,
                "duration": 1.6363636363636402,
                "tempo": 120.0
            }
        ],
        "Oboe": [
            {
                "start_time": 0.0,
                "end_time": 0.175,
                "pitch": 35,
                "velocity": 64,
                "duration": 0.175,
                "tempo": 120.0
            },
            {
                "start_time": 0.19318181818181818,
                "end_time": 0.37727272727272726,
                "pitch": 35,
                "velocity": 64,
                "duration": 0.18409090909090908,
                "tempo": 120.0
            },
            {
                "start_time": 0.5931818181818181,
                "end_time": 0.7727272727272727,
                "pitch": 35,
                "velocity": 64,
                "duration": 0.17954545454545456,
                "tempo": 120.0
            },
            {
                "start_time": 0.8045454545454545,
                "end_time": 0.984090909090909,
                "pitch": 35,
                "velocity": 64,
                "duration": 0.17954545454545456,
                "tempo": 120.0
            },
            {
                "start_time": 1.0,
                "end_time": 1.1795454545454545,
                "pitch": 35,
                "velocity": 64,
                "duration": 0.17954545454545445,
                "tempo": 120.0
            },
            {
                "start_time": 1.1954545454545453,
                "end_time": 1.3795454545454544,
                "pitch": 35,
                "velocity": 64,
                "duration": 0.18409090909090908,
                "tempo": 120.0
            },
            {
                "start_time": 1.3954545454545453,
                "end_time": 1.5954545454545455,
                "pitch": 35,
                "velocity": 64,
                "duration": 0.20000000000000018,
                "tempo": 120.0
            },
            {
                "start_time": 1.8136363636363635,
                "end_time": 2.002272727272727,
                "pitch": 35,
                "velocity": 64,
                "duration": 0.1886363636363635,
                "tempo": 120.0
            },
            {
                "start_time": 2.0204545454545455,
                "end_time": 2.2113636363636364,
                "pitch": 35,
                "velocity": 64,
                "duration": 0.19090909090909092,
                "tempo": 120.0
            },
            {
                "start_time": 2.227272727272727,
                "end_time": 2.434090909090909,
                "pitch": 35,
                "velocity": 64,
                "duration": 0.206818181818182,
                "tempo": 120.0
            },
            {
                "start_time": 2.452272727272727,
                "end_time": 2.634090909090909,
                "pitch": 35,
                "velocity": 64,
                "duration": 0.18181818181818166,
                "tempo": 120.0
            },
            {
                "start_time": 2.65,
                "end_time": 2.8318181818181816,
                "pitch": 35,
                "velocity": 64,
                "duration": 0.18181818181818166,
                "tempo": 120.0
            },
            {
                "start_time": 3.0477272727272724,
                "end_time": 3.2477272727272726,
                "pitch": 35,
                "velocity": 64,
                "duration": 0.20000000000000018,
                "tempo": 120.0
            },
            {
                "start_time": 3.2659090909090907,
                "end_time": 3.4499999999999997,
                "pitch": 35,
                "velocity": 64,
                "duration": 0.18409090909090908,
                "tempo": 120.0
            },
            {
                "start_time": 3.465909090909091,
                "end_time": 3.65,
                "pitch": 35,
                "velocity": 64,
                "duration": 0.18409090909090908,
                "tempo": 120.0
            },
            {
                "start_time": 3.6659090909090906,
                "end_time": 3.8499999999999996,
                "pitch": 35,
                "velocity": 64,
                "duration": 0.18409090909090908,
                "tempo": 120.0
            },
            {
                "start_time": 3.868181818181818,
                "end_time": 4.068181818181818,
                "pitch": 35,
                "velocity": 64,
                "duration": 0.20000000000000018,
                "tempo": 120.0
            },
            {
                "start_time": 4.286363636363636,
                "end_time": 4.475,
                "pitch": 35,
                "velocity": 64,
                "duration": 0.1886363636363635,
                "tempo": 120.0
            },
            {
                "start_time": 4.493181818181818,
                "end_time": 4.681818181818182,
                "pitch": 35,
                "velocity": 64,
                "duration": 0.1886363636363635,
                "tempo": 120.0
            },
            {
                "start_time": 4.7,
                "end_time": 4.906818181818181,
                "pitch": 35,
                "velocity": 64,
                "duration": 0.20681818181818112,
                "tempo": 120.0
            },
            {
                "start_time": 4.922727272727273,
                "end_time": 5.1090909090909085,
                "pitch": 33,
                "velocity": 64,
                "duration": 0.18636363636363562,
                "tempo": 120.0
            },
            {
                "start_time": 5.125,
                "end_time": 5.309090909090909,
                "pitch": 33,
                "velocity": 64,
                "duration": 0.18409090909090864,
                "tempo": 120.0
            },
            {
                "start_time": 5.527272727272727,
                "end_time": 5.722727272727273,
                "pitch": 33,
                "velocity": 64,
                "duration": 0.19545454545454533,
                "tempo": 120.0
            },
            {
                "start_time": 5.738636363636363,
                "end_time": 5.920454545454545,
                "pitch": 33,
                "velocity": 64,
                "duration": 0.18181818181818166,
                "tempo": 120.0
            },
            {
                "start_time": 5.9363636363636365,
                "end_time": 6.11590909090909,
                "pitch": 33,
                "velocity": 64,
                "duration": 0.1795454545454538,
                "tempo": 120.0
            },
            {
                "start_time": 6.134090909090909,
                "end_time": 6.3181818181818175,
                "pitch": 33,
                "velocity": 64,
                "duration": 0.18409090909090864,
                "tempo": 120.0
            },
            {
                "start_time": 6.334090909090909,
                "end_time": 6.534090909090909,
                "pitch": 33,
                "velocity": 64,
                "duration": 0.20000000000000018,
                "tempo": 120.0
            },
            {
                "start_time": 6.752272727272727,
                "end_time": 6.9409090909090905,
                "pitch": 33,
                "velocity": 64,
                "duration": 0.1886363636363635,
                "tempo": 120.0
            },
            {
                "start_time": 6.959090909090909,
                "end_time": 7.1477272727272725,
                "pitch": 33,
                "velocity": 64,
                "duration": 0.1886363636363635,
                "tempo": 120.0
            },
            {
                "start_time": 7.16590909090909,
                "end_time": 7.372727272727272,
                "pitch": 33,
                "velocity": 64,
                "duration": 0.206818181818182,
                "tempo": 120.0
            },
            {
                "start_time": 7.390909090909091,
                "end_time": 7.570454545454545,
                "pitch": 33,
                "velocity": 64,
                "duration": 0.17954545454545467,
                "tempo": 120.0
            },
            {
                "start_time": 7.586363636363636,
                "end_time": 7.768181818181818,
                "pitch": 33,
                "velocity": 64,
                "duration": 0.18181818181818166,
                "tempo": 120.0
            },
            {
                "start_time": 7.9795454545454545,
                "end_time": 8.181818181818182,
                "pitch": 33,
                "velocity": 64,
                "duration": 0.20227272727272716,
                "tempo": 120.0
            },
            {
                "start_time": 8.197727272727272,
                "end_time": 8.381818181818181,
                "pitch": 33,
                "velocity": 64,
                "duration": 0.18409090909090864,
                "tempo": 120.0
            },
            {
                "start_time": 8.397727272727272,
                "end_time": 8.581818181818182,
                "pitch": 33,
                "velocity": 64,
                "duration": 0.18409090909091042,
                "tempo": 120.0
            },
            {
                "start_time": 8.6,
                "end_time": 8.784090909090908,
                "pitch": 33,
                "velocity": 64,
                "duration": 0.18409090909090864,
                "tempo": 120.0
            },
            {
                "start_time": 8.799999999999999,
                "end_time": 9.0,
                "pitch": 33,
                "velocity": 64,
                "duration": 0.20000000000000107,
                "tempo": 120.0
            },
            {
                "start_time": 9.218181818181817,
                "end_time": 9.404545454545454,
                "pitch": 33,
                "velocity": 64,
                "duration": 0.1863636363636374,
                "tempo": 120.0
            },
            {
                "start_time": 9.422727272727272,
                "end_time": 9.611363636363636,
                "pitch": 33,
                "velocity": 64,
                "duration": 0.18863636363636438,
                "tempo": 120.0
            },
            {
                "start_time": 9.627272727272727,
                "end_time": 9.831818181818182,
                "pitch": 33,
                "velocity": 64,
                "duration": 0.20454545454545503,
                "tempo": 120.0
            },
            {
                "start_time": 9.85,
                "end_time": 10.036363636363635,
                "pitch": 31,
                "velocity": 64,
                "duration": 0.18636363636363562,
                "tempo": 120.0
            },
            {
                "start_time": 10.054545454545455,
                "end_time": 10.243181818181817,
                "pitch": 31,
                "velocity": 64,
                "duration": 0.1886363636363626,
                "tempo": 120.0
            },
            {
                "start_time": 10.48181818181818,
                "end_time": 10.670454545454545,
                "pitch": 31,
                "velocity": 64,
                "duration": 0.18863636363636438,
                "tempo": 120.0
            },
            {
                "start_time": 10.686363636363636,
                "end_time": 10.875,
                "pitch": 31,
                "velocity": 64,
                "duration": 0.18863636363636438,
                "tempo": 120.0
            },
            {
                "start_time": 10.89090909090909,
                "end_time": 11.079545454545453,
                "pitch": 31,
                "velocity": 64,
                "duration": 0.1886363636363626,
                "tempo": 120.0
            },
            {
                "start_time": 11.095454545454546,
                "end_time": 11.290909090909091,
                "pitch": 31,
                "velocity": 64,
                "duration": 0.19545454545454533,
                "tempo": 120.0
            },
            {
                "start_time": 11.306818181818182,
                "end_time": 11.486363636363636,
                "pitch": 31,
                "velocity": 64,
                "duration": 0.17954545454545467,
                "tempo": 120.0
            },
            {
                "start_time": 11.697727272727272,
                "end_time": 11.886363636363635,
                "pitch": 31,
                "velocity": 64,
                "duration": 0.1886363636363626,
                "tempo": 120.0
            },
            {
                "start_time": 11.902272727272727,
                "end_time": 12.10909090909091,
                "pitch": 31,
                "velocity": 64,
                "duration": 0.206818181818182,
                "tempo": 120.0
            },
            {
                "start_time": 12.127272727272727,
                "end_time": 12.318181818181818,
                "pitch": 31,
                "velocity": 64,
                "duration": 0.19090909090909136,
                "tempo": 120.0
            },
            {
                "start_time": 12.334090909090909,
                "end_time": 12.51590909090909,
                "pitch": 31,
                "velocity": 64,
                "duration": 0.18181818181818166,
                "tempo": 120.0
            },
            {
                "start_time": 12.531818181818181,
                "end_time": 12.711363636363636,
                "pitch": 31,
                "velocity": 64,
                "duration": 0.17954545454545467,
                "tempo": 120.0
            },
            {
                "start_time": 12.94090909090909,
                "end_time": 13.129545454545454,
                "pitch": 31,
                "velocity": 64,
                "duration": 0.18863636363636438,
                "tempo": 120.0
            },
            {
                "start_time": 13.147727272727272,
                "end_time": 13.336363636363636,
                "pitch": 31,
                "velocity": 64,
                "duration": 0.18863636363636438,
                "tempo": 120.0
            },
            {
                "start_time": 13.354545454545454,
                "end_time": 13.545454545454545,
                "pitch": 31,
                "velocity": 64,
                "duration": 0.19090909090909136,
                "tempo": 120.0
            },
            {
                "start_time": 13.561363636363636,
                "end_time": 13.756818181818181,
                "pitch": 31,
                "velocity": 64,
                "duration": 0.19545454545454533,
                "tempo": 120.0
            },
            {
                "start_time": 13.772727272727272,
                "end_time": 13.952272727272726,
                "pitch": 31,
                "velocity": 64,
                "duration": 0.17954545454545467,
                "tempo": 120.0
            },
            {
                "start_time": 14.161363636363635,
                "end_time": 14.352272727272727,
                "pitch": 31,
                "velocity": 64,
                "duration": 0.19090909090909136,
                "tempo": 120.0
            },
            {
                "start_time": 14.368181818181817,
                "end_time": 14.575,
                "pitch": 31,
                "velocity": 64,
                "duration": 0.206818181818182,
                "tempo": 120.0
            },
            {
                "start_time": 14.593181818181817,
                "end_time": 14.781818181818181,
                "pitch": 31,
                "velocity": 64,
                "duration": 0.18863636363636438,
                "tempo": 120.0
            },
            {
                "start_time": 14.799999999999999,
                "end_time": 14.979545454545454,
                "pitch": 30,
                "velocity": 64,
                "duration": 0.17954545454545467,
                "tempo": 120.0
            },
            {
                "start_time": 14.997727272727271,
                "end_time": 15.177272727272726,
                "pitch": 30,
                "velocity": 64,
                "duration": 0.17954545454545467,
                "tempo": 120.0
            },
            {
                "start_time": 15.406818181818181,
                "end_time": 15.593181818181817,
                "pitch": 30,
                "velocity": 64,
                "duration": 0.18636363636363562,
                "tempo": 120.0
            },
            {
                "start_time": 15.611363636363636,
                "end_time": 15.799999999999999,
                "pitch": 30,
                "velocity": 64,
                "duration": 0.1886363636363626,
                "tempo": 120.0
            },
            {
                "start_time": 15.81590909090909,
                "end_time": 16.004545454545454,
                "pitch": 30,
                "velocity": 64,
                "duration": 0.18863636363636438,
                "tempo": 120.0
            },
            {
                "start_time": 16.020454545454545,
                "end_time": 16.21818181818182,
                "pitch": 30,
                "velocity": 64,
                "duration": 0.19772727272727408,
                "tempo": 120.0
            },
            {
                "start_time": 16.23409090909091,
                "end_time": 16.413636363636364,
                "pitch": 30,
                "velocity": 64,
                "duration": 0.17954545454545467,
                "tempo": 120.0
            },
            {
                "start_time": 16.627272727272725,
                "end_time": 16.81590909090909,
                "pitch": 30,
                "velocity": 64,
                "duration": 0.18863636363636616,
                "tempo": 120.0
            },
            {
                "start_time": 16.831818181818182,
                "end_time": 17.036363636363635,
                "pitch": 30,
                "velocity": 64,
                "duration": 0.20454545454545325,
                "tempo": 120.0
            },
            {
                "start_time": 17.054545454545455,
                "end_time": 17.243181818181817,
                "pitch": 30,
                "velocity": 64,
                "duration": 0.1886363636363626,
                "tempo": 120.0
            },
            {
                "start_time": 17.259090909090908,
                "end_time": 17.443181818181817,
                "pitch": 30,
                "velocity": 64,
                "duration": 0.18409090909090864,
                "tempo": 120.0
            },
            {
                "start_time": 17.459090909090907,
                "end_time": 17.643181818181816,
                "pitch": 30,
                "velocity": 64,
                "duration": 0.18409090909090864,
                "tempo": 120.0
            },
            {
                "start_time": 17.877272727272725,
                "end_time": 18.06590909090909,
                "pitch": 30,
                "velocity": 64,
                "duration": 0.18863636363636616,
                "tempo": 120.0
            },
            {
                "start_time": 18.084090909090907,
                "end_time": 18.270454545454545,
                "pitch": 30,
                "velocity": 64,
                "duration": 0.1863636363636374,
                "tempo": 120.0
            },
            {
                "start_time": 18.288636363636364,
                "end_time": 18.474999999999998,
                "pitch": 30,
                "velocity": 64,
                "duration": 0.18636363636363384,
                "tempo": 120.0
            },
            {
                "start_time": 18.493181818181817,
                "end_time": 18.69090909090909,
                "pitch": 30,
                "velocity": 64,
                "duration": 0.19772727272727408,
                "tempo": 120.0
            },
            {
                "start_time": 18.709090909090907,
                "end_time": 18.89090909090909,
                "pitch": 30,
                "velocity": 64,
                "duration": 0.18181818181818343,
                "tempo": 120.0
            },
            {
                "start_time": 19.10681818181818,
                "end_time": 19.293181818181818,
                "pitch": 30,
                "velocity": 64,
                "duration": 0.1863636363636374,
                "tempo": 120.0
            },
            {
                "start_time": 19.311363636363634,
                "end_time": 19.51590909090909,
                "pitch": 30,
                "velocity": 64,
                "duration": 0.2045454545454568,
                "tempo": 120.0
            },
            {
                "start_time": 19.53181818181818,
                "end_time": 19.720454545454544,
                "pitch": 30,
                "velocity": 64,
                "duration": 0.1886363636363626,
                "tempo": 120.0
            },
            {
                "start_time": 19.738636363636363,
                "end_time": 19.925,
                "pitch": 35,
                "velocity": 64,
                "duration": 0.1863636363636374,
                "tempo": 120.0
            },
            {
                "start_time": 19.943181818181817,
                "end_time": 20.129545454545454,
                "pitch": 35,
                "velocity": 64,
                "duration": 0.1863636363636374,
                "tempo": 120.0
            },
            {
                "start_time": 20.370454545454546,
                "end_time": 20.55681818181818,
                "pitch": 35,
                "velocity": 64,
                "duration": 0.18636363636363384,
                "tempo": 120.0
            },
            {
                "start_time": 20.575,
                "end_time": 20.761363636363637,
                "pitch": 35,
                "velocity": 64,
                "duration": 0.1863636363636374,
                "tempo": 120.0
            },
            {
                "start_time": 20.779545454545453,
                "end_time": 20.98409090909091,
                "pitch": 35,
                "velocity": 64,
                "duration": 0.2045454545454568,
                "tempo": 120.0
            },
            {
                "start_time": 21.002272727272725,
                "end_time": 21.186363636363634,
                "pitch": 35,
                "velocity": 64,
                "duration": 0.18409090909090864,
                "tempo": 120.0
            },
            {
                "start_time": 21.202272727272724,
                "end_time": 21.386363636363637,
                "pitch": 35,
                "velocity": 64,
                "duration": 0.1840909090909122,
                "tempo": 120.0
            },
            {
                "start_time": 21.604545454545452,
                "end_time": 21.804545454545455,
                "pitch": 35,
                "velocity": 64,
                "duration": 0.20000000000000284,
                "tempo": 120.0
            },
            {
                "start_time": 21.820454545454545,
                "end_time": 22.004545454545454,
                "pitch": 35,
                "velocity": 64,
                "duration": 0.18409090909090864,
                "tempo": 120.0
            },
            {
                "start_time": 22.022727272727273,
                "end_time": 22.206818181818182,
                "pitch": 35,
                "velocity": 64,
                "duration": 0.18409090909090864,
                "tempo": 120.0
            },
            {
                "start_time": 22.222727272727273,
                "end_time": 22.40681818181818,
                "pitch": 35,
                "velocity": 64,
                "duration": 0.18409090909090864,
                "tempo": 120.0
            },
            {
                "start_time": 22.422727272727272,
                "end_time": 22.625,
                "pitch": 35,
                "velocity": 64,
                "duration": 0.20227272727272805,
                "tempo": 120.0
            },
            {
                "start_time": 22.84090909090909,
                "end_time": 23.029545454545453,
                "pitch": 35,
                "velocity": 64,
                "duration": 0.1886363636363626,
                "tempo": 120.0
            },
            {
                "start_time": 23.045454545454543,
                "end_time": 23.23409090909091,
                "pitch": 35,
                "velocity": 64,
                "duration": 0.18863636363636616,
                "tempo": 120.0
            },
            {
                "start_time": 23.25,
                "end_time": 23.456818181818182,
                "pitch": 35,
                "velocity": 64,
                "duration": 0.206818181818182,
                "tempo": 120.0
            },
            {
                "start_time": 23.472727272727273,
                "end_time": 23.65681818181818,
                "pitch": 35,
                "velocity": 64,
                "duration": 0.18409090909090864,
                "tempo": 120.0
            },
            {
                "start_time": 23.674999999999997,
                "end_time": 23.85909090909091,
                "pitch": 35,
                "velocity": 64,
                "duration": 0.1840909090909122,
                "tempo": 120.0
            },
            {
                "start_time": 24.075,
                "end_time": 24.277272727272727,
                "pitch": 35,
                "velocity": 64,
                "duration": 0.20227272727272805,
                "tempo": 120.0
            },
            {
                "start_time": 24.293181818181818,
                "end_time": 24.477272727272727,
                "pitch": 35,
                "velocity": 64,
                "duration": 0.18409090909090864,
                "tempo": 120.0
            },
            {
                "start_time": 24.493181818181817,
                "end_time": 24.677272727272726,
                "pitch": 35,
                "velocity": 64,
                "duration": 0.18409090909090864,
                "tempo": 120.0
            },
            {
                "start_time": 24.695454545454545,
                "end_time": 24.879545454545454,
                "pitch": 33,
                "velocity": 64,
                "duration": 0.18409090909090864,
                "tempo": 120.0
            },
            {
                "start_time": 24.895454545454545,
                "end_time": 25.095454545454544,
                "pitch": 33,
                "velocity": 64,
                "duration": 0.1999999999999993,
                "tempo": 120.0
            },
            {
                "start_time": 25.313636363636363,
                "end_time": 25.5,
                "pitch": 33,
                "velocity": 64,
                "duration": 0.1863636363636374,
                "tempo": 120.0
            },
            {
                "start_time": 25.518181818181816,
                "end_time": 25.706818181818182,
                "pitch": 33,
                "velocity": 64,
                "duration": 0.18863636363636616,
                "tempo": 120.0
            },
            {
                "start_time": 25.722727272727273,
                "end_time": 25.927272727272726,
                "pitch": 33,
                "velocity": 64,
                "duration": 0.20454545454545325,
                "tempo": 120.0
            },
            {
                "start_time": 25.945454545454545,
                "end_time": 26.129545454545454,
                "pitch": 33,
                "velocity": 64,
                "duration": 0.18409090909090864,
                "tempo": 120.0
            },
            {
                "start_time": 26.145454545454545,
                "end_time": 26.329545454545453,
                "pitch": 33,
                "velocity": 64,
                "duration": 0.18409090909090864,
                "tempo": 120.0
            },
            {
                "start_time": 26.547727272727272,
                "end_time": 26.74772727272727,
                "pitch": 33,
                "velocity": 64,
                "duration": 0.1999999999999993,
                "tempo": 120.0
            },
            {
                "start_time": 26.76590909090909,
                "end_time": 26.94772727272727,
                "pitch": 33,
                "velocity": 64,
                "duration": 0.18181818181817988,
                "tempo": 120.0
            },
            {
                "start_time": 26.96590909090909,
                "end_time": 27.15,
                "pitch": 33,
                "velocity": 64,
                "duration": 0.18409090909090864,
                "tempo": 120.0
            },
            {
                "start_time": 27.16590909090909,
                "end_time": 27.349999999999998,
                "pitch": 33,
                "velocity": 64,
                "duration": 0.18409090909090864,
                "tempo": 120.0
            },
            {
                "start_time": 27.368181818181817,
                "end_time": 27.568181818181817,
                "pitch": 33,
                "velocity": 64,
                "duration": 0.1999999999999993,
                "tempo": 120.0
            },
            {
                "start_time": 27.786363636363635,
                "end_time": 27.972727272727273,
                "pitch": 33,
                "velocity": 64,
                "duration": 0.1863636363636374,
                "tempo": 120.0
            },
            {
                "start_time": 27.99090909090909,
                "end_time": 28.177272727272726,
                "pitch": 33,
                "velocity": 64,
                "duration": 0.1863636363636374,
                "tempo": 120.0
            },
            {
                "start_time": 28.195454545454545,
                "end_time": 28.4,
                "pitch": 33,
                "velocity": 64,
                "duration": 0.20454545454545325,
                "tempo": 120.0
            },
            {
                "start_time": 28.41590909090909,
                "end_time": 28.599999999999998,
                "pitch": 33,
                "velocity": 64,
                "duration": 0.18409090909090864,
                "tempo": 120.0
            },
            {
                "start_time": 28.618181818181817,
                "end_time": 28.802272727272726,
                "pitch": 33,
                "velocity": 64,
                "duration": 0.18409090909090864,
                "tempo": 120.0
            },
            {
                "start_time": 29.018181818181816,
                "end_time": 29.220454545454544,
                "pitch": 33,
                "velocity": 64,
                "duration": 0.20227272727272805,
                "tempo": 120.0
            },
            {
                "start_time": 29.236363636363635,
                "end_time": 29.420454545454543,
                "pitch": 33,
                "velocity": 64,
                "duration": 0.18409090909090864,
                "tempo": 120.0
            },
            {
                "start_time": 29.436363636363634,
                "end_time": 29.620454545454542,
                "pitch": 33,
                "velocity": 64,
                "duration": 0.18409090909090864,
                "tempo": 120.0
            },
            {
                "start_time": 29.638636363636362,
                "end_time": 29.82272727272727,
                "pitch": 31,
                "velocity": 64,
                "duration": 0.18409090909090864,
                "tempo": 120.0
            },
            {
                "start_time": 29.854545454545452,
                "end_time": 30.03863636363636,
                "pitch": 31,
                "velocity": 64,
                "duration": 0.18409090909090864,
                "tempo": 120.0
            },
            {
                "start_time": 30.25681818181818,
                "end_time": 30.445454545454545,
                "pitch": 31,
                "velocity": 64,
                "duration": 0.18863636363636616,
                "tempo": 120.0
            },
            {
                "start_time": 30.461363636363636,
                "end_time": 30.66590909090909,
                "pitch": 31,
                "velocity": 64,
                "duration": 0.20454545454545325,
                "tempo": 120.0
            },
            {
                "start_time": 30.68409090909091,
                "end_time": 30.87272727272727,
                "pitch": 31,
                "velocity": 64,
                "duration": 0.1886363636363626,
                "tempo": 120.0
            },
            {
                "start_time": 30.888636363636362,
                "end_time": 31.07272727272727,
                "pitch": 31,
                "velocity": 64,
                "duration": 0.18409090909090864,
                "tempo": 120.0
            },
            {
                "start_time": 31.08863636363636,
                "end_time": 31.27272727272727,
                "pitch": 31,
                "velocity": 64,
                "duration": 0.18409090909090864,
                "tempo": 120.0
            },
            {
                "start_time": 31.50681818181818,
                "end_time": 31.695454545454545,
                "pitch": 31,
                "velocity": 64,
                "duration": 0.18863636363636616,
                "tempo": 120.0
            },
            {
                "start_time": 31.711363636363636,
                "end_time": 31.9,
                "pitch": 31,
                "velocity": 64,
                "duration": 0.1886363636363626,
                "tempo": 120.0
            },
            {
                "start_time": 31.918181818181818,
                "end_time": 32.10454545454545,
                "pitch": 31,
                "velocity": 64,
                "duration": 0.18636363636363384,
                "tempo": 120.0
            },
            {
                "start_time": 32.12272727272727,
                "end_time": 32.320454545454545,
                "pitch": 31,
                "velocity": 64,
                "duration": 0.19772727272727764,
                "tempo": 120.0
            },
            {
                "start_time": 32.336363636363636,
                "end_time": 32.51590909090909,
                "pitch": 31,
                "velocity": 64,
                "duration": 0.17954545454545467,
                "tempo": 120.0
            },
            {
                "start_time": 32.72954545454545,
                "end_time": 32.91590909090909,
                "pitch": 31,
                "velocity": 64,
                "duration": 0.1863636363636374,
                "tempo": 120.0
            },
            {
                "start_time": 32.934090909090905,
                "end_time": 33.138636363636365,
                "pitch": 31,
                "velocity": 64,
                "duration": 0.20454545454546036,
                "tempo": 120.0
            },
            {
                "start_time": 33.15681818181818,
                "end_time": 33.34318181818182,
                "pitch": 31,
                "velocity": 64,
                "duration": 0.1863636363636374,
                "tempo": 120.0
            },
            {
                "start_time": 33.361363636363635,
                "end_time": 33.54545454545455,
                "pitch": 31,
                "velocity": 64,
                "duration": 0.1840909090909122,
                "tempo": 120.0
            },
            {
                "start_time": 33.56136363636364,
                "end_time": 33.74545454545454,
                "pitch": 31,
                "velocity": 64,
                "duration": 0.18409090909090509,
                "tempo": 120.0
            },
            {
                "start_time": 33.97954545454545,
                "end_time": 34.168181818181814,
                "pitch": 31,
                "velocity": 64,
                "duration": 0.1886363636363626,
                "tempo": 120.0
            },
            {
                "start_time": 34.184090909090905,
                "end_time": 34.37272727272727,
                "pitch": 31,
                "velocity": 64,
                "duration": 0.1886363636363626,
                "tempo": 120.0
            },
            {
                "start_time": 34.388636363636365,
                "end_time": 34.57727272727273,
                "pitch": 31,
                "velocity": 64,
                "duration": 0.1886363636363626,
                "tempo": 120.0
            },
            {
                "start_time": 34.59318181818182,
                "end_time": 34.793181818181814,
                "pitch": 30,
                "velocity": 64,
                "duration": 0.19999999999999574,
                "tempo": 120.0
            },
            {
                "start_time": 34.809090909090905,
                "end_time": 34.99318181818182,
                "pitch": 30,
                "velocity": 64,
                "duration": 0.1840909090909122,
                "tempo": 120.0
            },
            {
                "start_time": 35.20681818181818,
                "end_time": 35.39090909090909,
                "pitch": 30,
                "velocity": 64,
                "duration": 0.1840909090909122,
                "tempo": 120.0
            },
            {
                "start_time": 35.40909090909091,
                "end_time": 35.60909090909091,
                "pitch": 30,
                "velocity": 64,
                "duration": 0.20000000000000284,
                "tempo": 120.0
            },
            {
                "start_time": 35.625,
                "end_time": 35.809090909090905,
                "pitch": 30,
                "velocity": 64,
                "duration": 0.18409090909090509,
                "tempo": 120.0
            },
            {
                "start_time": 35.82727272727273,
                "end_time": 36.01363636363636,
                "pitch": 30,
                "velocity": 64,
                "duration": 0.1863636363636303,
                "tempo": 120.0
            },
            {
                "start_time": 36.03181818181818,
                "end_time": 36.21818181818182,
                "pitch": 30,
                "velocity": 64,
                "duration": 0.1863636363636374,
                "tempo": 120.0
            },
            {
                "start_time": 36.45909090909091,
                "end_time": 36.64090909090909,
                "pitch": 30,
                "velocity": 64,
                "duration": 0.18181818181817988,
                "tempo": 120.0
            },
            {
                "start_time": 36.65909090909091,
                "end_time": 36.84318181818182,
                "pitch": 30,
                "velocity": 64,
                "duration": 0.1840909090909122,
                "tempo": 120.0
            },
            {
                "start_time": 36.85909090909091,
                "end_time": 37.043181818181814,
                "pitch": 30,
                "velocity": 64,
                "duration": 0.18409090909090509,
                "tempo": 120.0
            },
            {
                "start_time": 37.059090909090905,
                "end_time": 37.26136363636363,
                "pitch": 30,
                "velocity": 64,
                "duration": 0.20227272727272805,
                "tempo": 120.0
            },
            {
                "start_time": 37.277272727272724,
                "end_time": 37.461363636363636,
                "pitch": 30,
                "velocity": 64,
                "duration": 0.1840909090909122,
                "tempo": 120.0
            },
            {
                "start_time": 37.679545454545455,
                "end_time": 37.86363636363636,
                "pitch": 30,
                "velocity": 64,
                "duration": 0.18409090909090509,
                "tempo": 120.0
            },
            {
                "start_time": 37.87954545454545,
                "end_time": 38.07954545454545,
                "pitch": 30,
                "velocity": 64,
                "duration": 0.20000000000000284,
                "tempo": 120.0
            },
            {
                "start_time": 38.09772727272727,
                "end_time": 38.28181818181818,
                "pitch": 30,
                "velocity": 64,
                "duration": 0.1840909090909122,
                "tempo": 120.0
            },
            {
                "start_time": 38.29772727272727,
                "end_time": 38.486363636363635,
                "pitch": 30,
                "velocity": 64,
                "duration": 0.1886363636363626,
                "tempo": 120.0
            },
            {
                "start_time": 38.502272727272725,
                "end_time": 38.69090909090909,
                "pitch": 30,
                "velocity": 64,
                "duration": 0.1886363636363626,
                "tempo": 120.0
            },
            {
                "start_time": 38.929545454545455,
                "end_time": 39.11363636363636,
                "pitch": 30,
                "velocity": 64,
                "duration": 0.18409090909090509,
                "tempo": 120.0
            },
            {
                "start_time": 39.12954545454545,
                "end_time": 39.31363636363636,
                "pitch": 30,
                "velocity": 64,
                "duration": 0.1840909090909122,
                "tempo": 120.0
            },
            {
                "start_time": 39.33181818181818,
                "end_time": 39.51590909090909,
                "pitch": 30,
                "velocity": 64,
                "duration": 0.1840909090909122,
                "tempo": 120.0
            },
            {
                "start_time": 39.54772727272727,
                "end_time": 39.736363636363635,
                "pitch": 35,
                "velocity": 64,
                "duration": 0.1886363636363626,
                "tempo": 120.0
            },
            {
                "start_time": 39.75454545454545,
                "end_time": 39.94090909090909,
                "pitch": 35,
                "velocity": 64,
                "duration": 0.1863636363636374,
                "tempo": 120.0
            },
            {
                "start_time": 40.163636363636364,
                "end_time": 40.36363636363636,
                "pitch": 35,
                "velocity": 64,
                "duration": 0.19999999999999574,
                "tempo": 120.0
            },
            {
                "start_time": 40.38181818181818,
                "end_time": 40.56590909090909,
                "pitch": 35,
                "velocity": 64,
                "duration": 0.18409090909090509,
                "tempo": 120.0
            },
            {
                "start_time": 40.58181818181818,
                "end_time": 40.76590909090909,
                "pitch": 35,
                "velocity": 64,
                "duration": 0.1840909090909122,
                "tempo": 120.0
            },
            {
                "start_time": 40.78181818181818,
                "end_time": 40.965909090909086,
                "pitch": 35,
                "velocity": 64,
                "duration": 0.18409090909090509,
                "tempo": 120.0
            },
            {
                "start_time": 40.98409090909091,
                "end_time": 41.184090909090905,
                "pitch": 35,
                "velocity": 64,
                "duration": 0.19999999999999574,
                "tempo": 120.0
            },
            {
                "start_time": 41.402272727272724,
                "end_time": 41.58863636363636,
                "pitch": 35,
                "velocity": 64,
                "duration": 0.1863636363636374,
                "tempo": 120.0
            },
            {
                "start_time": 41.60681818181818,
                "end_time": 41.793181818181814,
                "pitch": 35,
                "velocity": 64,
                "duration": 0.1863636363636374,
                "tempo": 120.0
            },
            {
                "start_time": 41.81136363636364,
                "end_time": 42.01590909090909,
                "pitch": 35,
                "velocity": 64,
                "duration": 0.20454545454545325,
                "tempo": 120.0
            },
            {
                "start_time": 42.03409090909091,
                "end_time": 42.21818181818182,
                "pitch": 35,
                "velocity": 64,
                "duration": 0.1840909090909122,
                "tempo": 120.0
            },
            {
                "start_time": 42.23409090909091,
                "end_time": 42.418181818181814,
                "pitch": 35,
                "velocity": 64,
                "duration": 0.18409090909090509,
                "tempo": 120.0
            },
            {
                "start_time": 42.63636363636363,
                "end_time": 42.836363636363636,
                "pitch": 35,
                "velocity": 64,
                "duration": 0.20000000000000284,
                "tempo": 120.0
            },
            {
                "start_time": 42.85227272727273,
                "end_time": 43.03636363636363,
                "pitch": 35,
                "velocity": 64,
                "duration": 0.18409090909090509,
                "tempo": 120.0
            },
            {
                "start_time": 43.054545454545455,
                "end_time": 43.23863636363636,
                "pitch": 35,
                "velocity": 64,
                "duration": 0.18409090909090509,
                "tempo": 120.0
            },
            {
                "start_time": 43.25454545454545,
                "end_time": 43.43863636363636,
                "pitch": 35,
                "velocity": 64,
                "duration": 0.1840909090909122,
                "tempo": 120.0
            },
            {
                "start_time": 43.45454545454545,
                "end_time": 43.65681818181818,
                "pitch": 35,
                "velocity": 64,
                "duration": 0.20227272727272805,
                "tempo": 120.0
            },
            {
                "start_time": 43.87272727272727,
                "end_time": 44.06136363636364,
                "pitch": 35,
                "velocity": 64,
                "duration": 0.1886363636363697,
                "tempo": 120.0
            },
            {
                "start_time": 44.07727272727273,
                "end_time": 44.26590909090909,
                "pitch": 35,
                "velocity": 64,
                "duration": 0.1886363636363626,
                "tempo": 120.0
            },
            {
                "start_time": 44.28409090909091,
                "end_time": 44.48863636363636,
                "pitch": 35,
                "velocity": 64,
                "duration": 0.20454545454545325,
                "tempo": 120.0
            },
            {
                "start_time": 44.50454545454545,
                "end_time": 44.68863636363636,
                "pitch": 33,
                "velocity": 64,
                "duration": 0.1840909090909122,
                "tempo": 120.0
            },
            {
                "start_time": 44.70681818181818,
                "end_time": 44.89090909090909,
                "pitch": 33,
                "velocity": 64,
                "duration": 0.1840909090909122,
                "tempo": 120.0
            },
            {
                "start_time": 45.10681818181818,
                "end_time": 45.309090909090905,
                "pitch": 33,
                "velocity": 64,
                "duration": 0.20227272727272805,
                "tempo": 120.0
            },
            {
                "start_time": 45.324999999999996,
                "end_time": 45.50909090909091,
                "pitch": 33,
                "velocity": 64,
                "duration": 0.1840909090909122,
                "tempo": 120.0
            },
            {
                "start_time": 45.525,
                "end_time": 45.709090909090904,
                "pitch": 33,
                "velocity": 64,
                "duration": 0.18409090909090509,
                "tempo": 120.0
            },
            {
                "start_time": 45.72727272727273,
                "end_time": 45.91136363636363,
                "pitch": 33,
                "velocity": 64,
                "duration": 0.18409090909090509,
                "tempo": 120.0
            },
            {
                "start_time": 45.92727272727272,
                "end_time": 46.127272727272725,
                "pitch": 33,
                "velocity": 64,
                "duration": 0.20000000000000284,
                "tempo": 120.0
            },
            {
                "start_time": 46.345454545454544,
                "end_time": 46.53409090909091,
                "pitch": 33,
                "velocity": 64,
                "duration": 0.1886363636363626,
                "tempo": 120.0
            },
            {
                "start_time": 46.55,
                "end_time": 46.73863636363636,
                "pitch": 33,
                "velocity": 64,
                "duration": 0.1886363636363626,
                "tempo": 120.0
            },
            {
                "start_time": 46.75454545454545,
                "end_time": 46.959090909090904,
                "pitch": 33,
                "velocity": 64,
                "duration": 0.20454545454545325,
                "tempo": 120.0
            },
            {
                "start_time": 46.97727272727273,
                "end_time": 47.16136363636363,
                "pitch": 33,
                "velocity": 64,
                "duration": 0.18409090909090509,
                "tempo": 120.0
            },
            {
                "start_time": 47.17727272727272,
                "end_time": 47.361363636363635,
                "pitch": 33,
                "velocity": 64,
                "duration": 0.1840909090909122,
                "tempo": 120.0
            },
            {
                "start_time": 47.57954545454545,
                "end_time": 47.77954545454545,
                "pitch": 33,
                "velocity": 64,
                "duration": 0.19999999999999574,
                "tempo": 120.0
            },
            {
                "start_time": 47.79772727272727,
                "end_time": 47.98181818181818,
                "pitch": 33,
                "velocity": 64,
                "duration": 0.18409090909090509,
                "tempo": 120.0
            },
            {
                "start_time": 47.99772727272727,
                "end_time": 48.18181818181818,
                "pitch": 33,
                "velocity": 64,
                "duration": 0.1840909090909122,
                "tempo": 120.0
            },
            {
                "start_time": 48.19772727272727,
                "end_time": 48.38181818181818,
                "pitch": 33,
                "velocity": 64,
                "duration": 0.1840909090909122,
                "tempo": 120.0
            },
            {
                "start_time": 48.4,
                "end_time": 48.599999999999994,
                "pitch": 33,
                "velocity": 64,
                "duration": 0.19999999999999574,
                "tempo": 120.0
            },
            {
                "start_time": 48.81818181818181,
                "end_time": 49.00454545454545,
                "pitch": 33,
                "velocity": 64,
                "duration": 0.1863636363636374,
                "tempo": 120.0
            },
            {
                "start_time": 49.02272727272727,
                "end_time": 49.209090909090904,
                "pitch": 33,
                "velocity": 64,
                "duration": 0.1863636363636303,
                "tempo": 120.0
            },
            {
                "start_time": 49.24318181818182,
                "end_time": 49.43181818181818,
                "pitch": 33,
                "velocity": 64,
                "duration": 0.1886363636363626,
                "tempo": 120.0
            },
            {
                "start_time": 49.449999999999996,
                "end_time": 49.63636363636363,
                "pitch": 31,
                "velocity": 64,
                "duration": 0.1863636363636374,
                "tempo": 120.0
            },
            {
                "start_time": 49.65454545454545,
                "end_time": 49.840909090909086,
                "pitch": 31,
                "velocity": 64,
                "duration": 0.1863636363636374,
                "tempo": 120.0
            },
            {
                "start_time": 50.08181818181818,
                "end_time": 50.268181818181816,
                "pitch": 31,
                "velocity": 64,
                "duration": 0.1863636363636374,
                "tempo": 120.0
            },
            {
                "start_time": 50.28636363636363,
                "end_time": 50.47272727272727,
                "pitch": 31,
                "velocity": 64,
                "duration": 0.1863636363636374,
                "tempo": 120.0
            },
            {
                "start_time": 50.490909090909085,
                "end_time": 50.679545454545455,
                "pitch": 31,
                "velocity": 64,
                "duration": 0.1886363636363697,
                "tempo": 120.0
            },
            {
                "start_time": 50.695454545454545,
                "end_time": 50.89090909090909,
                "pitch": 31,
                "velocity": 64,
                "duration": 0.19545454545454533,
                "tempo": 120.0
            },
            {
                "start_time": 50.90681818181818,
                "end_time": 51.086363636363636,
                "pitch": 31,
                "velocity": 64,
                "duration": 0.17954545454545467,
                "tempo": 120.0
            },
            {
                "start_time": 51.29545454545454,
                "end_time": 51.48409090909091,
                "pitch": 31,
                "velocity": 64,
                "duration": 0.1886363636363697,
                "tempo": 120.0
            },
            {
                "start_time": 51.502272727272725,
                "end_time": 51.709090909090904,
                "pitch": 31,
                "velocity": 64,
                "duration": 0.20681818181817846,
                "tempo": 120.0
            },
            {
                "start_time": 51.72727272727273,
                "end_time": 51.91590909090909,
                "pitch": 31,
                "velocity": 64,
                "duration": 0.1886363636363626,
                "tempo": 120.0
            },
            {
                "start_time": 51.934090909090905,
                "end_time": 52.115909090909085,
                "pitch": 31,
                "velocity": 64,
                "duration": 0.18181818181817988,
                "tempo": 120.0
            },
            {
                "start_time": 52.13181818181818,
                "end_time": 52.31590909090909,
                "pitch": 31,
                "velocity": 64,
                "duration": 0.18409090909090509,
                "tempo": 120.0
            },
            {
                "start_time": 52.54772727272727,
                "end_time": 52.736363636363635,
                "pitch": 31,
                "velocity": 64,
                "duration": 0.1886363636363626,
                "tempo": 120.0
            },
            {
                "start_time": 52.752272727272725,
                "end_time": 52.94318181818181,
                "pitch": 31,
                "velocity": 64,
                "duration": 0.1909090909090878,
                "tempo": 120.0
            },
            {
                "start_time": 52.959090909090904,
                "end_time": 53.15,
                "pitch": 31,
                "velocity": 64,
                "duration": 0.19090909090909491,
                "tempo": 120.0
            },
            {
                "start_time": 53.168181818181814,
                "end_time": 53.361363636363635,
                "pitch": 31,
                "velocity": 64,
                "duration": 0.19318181818182012,
                "tempo": 120.0
            },
            {
                "start_time": 53.37954545454545,
                "end_time": 53.55681818181818,
                "pitch": 31,
                "velocity": 64,
                "duration": 0.17727272727272947,
                "tempo": 120.0
            },
            {
                "start_time": 53.768181818181816,
                "end_time": 53.95454545454545,
                "pitch": 31,
                "velocity": 64,
                "duration": 0.1863636363636374,
                "tempo": 120.0
            },
            {
                "start_time": 53.97272727272727,
                "end_time": 54.17727272727272,
                "pitch": 31,
                "velocity": 64,
                "duration": 0.20454545454545325,
                "tempo": 120.0
            },
            {
                "start_time": 54.195454545454545,
                "end_time": 54.38181818181818,
                "pitch": 31,
                "velocity": 64,
                "duration": 0.1863636363636374,
                "tempo": 120.0
            },
            {
                "start_time": 54.4,
                "end_time": 54.584090909090904,
                "pitch": 30,
                "velocity": 64,
                "duration": 0.18409090909090509,
                "tempo": 120.0
            },
            {
                "start_time": 54.599999999999994,
                "end_time": 54.78409090909091,
                "pitch": 30,
                "velocity": 64,
                "duration": 0.1840909090909122,
                "tempo": 120.0
            },
            {
                "start_time": 55.018181818181816,
                "end_time": 55.20227272727273,
                "pitch": 30,
                "velocity": 64,
                "duration": 0.1840909090909122,
                "tempo": 120.0
            },
            {
                "start_time": 55.21818181818182,
                "end_time": 55.402272727272724,
                "pitch": 30,
                "velocity": 64,
                "duration": 0.18409090909090509,
                "tempo": 120.0
            },
            {
                "start_time": 55.42045454545454,
                "end_time": 55.60454545454545,
                "pitch": 30,
                "velocity": 64,
                "duration": 0.1840909090909122,
                "tempo": 120.0
            },
            {
                "start_time": 55.62045454545454,
                "end_time": 55.820454545454545,
                "pitch": 30,
                "velocity": 64,
                "duration": 0.20000000000000284,
                "tempo": 120.0
            },
            {
                "start_time": 55.83863636363636,
                "end_time": 56.02272727272727,
                "pitch": 30,
                "velocity": 64,
                "duration": 0.1840909090909122,
                "tempo": 120.0
            },
            {
                "start_time": 56.23863636363636,
                "end_time": 56.42272727272727,
                "pitch": 30,
                "velocity": 64,
                "duration": 0.1840909090909122,
                "tempo": 120.0
            },
            {
                "start_time": 56.44090909090909,
                "end_time": 56.64090909090909,
                "pitch": 30,
                "velocity": 64,
                "duration": 0.20000000000000284,
                "tempo": 120.0
            },
            {
                "start_time": 56.65681818181818,
                "end_time": 56.840909090909086,
                "pitch": 30,
                "velocity": 64,
                "duration": 0.18409090909090509,
                "tempo": 120.0
            },
            {
                "start_time": 56.85909090909091,
                "end_time": 57.04545454545454,
                "pitch": 30,
                "velocity": 64,
                "duration": 0.1863636363636303,
                "tempo": 120.0
            },
            {
                "start_time": 57.06363636363636,
                "end_time": 57.252272727272725,
                "pitch": 30,
                "velocity": 64,
                "duration": 0.1886363636363626,
                "tempo": 120.0
            },
            {
                "start_time": 57.490909090909085,
                "end_time": 57.67727272727272,
                "pitch": 30,
                "velocity": 64,
                "duration": 0.1863636363636374,
                "tempo": 120.0
            },
            {
                "start_time": 57.695454545454545,
                "end_time": 57.88409090909091,
                "pitch": 30,
                "velocity": 64,
                "duration": 0.1886363636363626,
                "tempo": 120.0
            },
            {
                "start_time": 57.9,
                "end_time": 58.08863636363636,
                "pitch": 30,
                "velocity": 64,
                "duration": 0.1886363636363626,
                "tempo": 120.0
            },
            {
                "start_time": 58.10454545454545,
                "end_time": 58.304545454545455,
                "pitch": 30,
                "velocity": 64,
                "duration": 0.20000000000000284,
                "tempo": 120.0
            },
            {
                "start_time": 58.320454545454545,
                "end_time": 58.502272727272725,
                "pitch": 30,
                "velocity": 64,
                "duration": 0.18181818181817988,
                "tempo": 120.0
            },
            {
                "start_time": 58.71818181818182,
                "end_time": 58.90454545454545,
                "pitch": 30,
                "velocity": 64,
                "duration": 0.1863636363636303,
                "tempo": 120.0
            },
            {
                "start_time": 58.94090909090909,
                "end_time": 59.127272727272725,
                "pitch": 30,
                "velocity": 64,
                "duration": 0.1863636363636374,
                "tempo": 120.0
            },
            {
                "start_time": 59.14545454545454,
                "end_time": 59.33181818181818,
                "pitch": 30,
                "velocity": 64,
                "duration": 0.1863636363636374,
                "tempo": 120.0
            },
            {
                "start_time": 59.349999999999994,
                "end_time": 59.53409090909091,
                "pitch": 35,
                "velocity": 64,
                "duration": 0.1840909090909122,
                "tempo": 120.0
            },
            {
                "start_time": 59.55,
                "end_time": 59.752272727272725,
                "pitch": 35,
                "velocity": 64,
                "duration": 0.20227272727272805,
                "tempo": 120.0
            },
            {
                "start_time": 59.96818181818182,
                "end_time": 60.15,
                "pitch": 35,
                "velocity": 64,
                "duration": 0.18181818181817988,
                "tempo": 120.0
            },
            {
                "start_time": 60.168181818181814,
                "end_time": 60.349999999999994,
                "pitch": 35,
                "velocity": 64,
                "duration": 0.18181818181817988,
                "tempo": 120.0
            },
            {
                "start_time": 60.365909090909085,
                "end_time": 60.56363636363636,
                "pitch": 35,
                "velocity": 64,
                "duration": 0.19772727272727764,
                "tempo": 120.0
            },
            {
                "start_time": 60.58181818181818,
                "end_time": 60.77045454545454,
                "pitch": 35,
                "velocity": 64,
                "duration": 0.1886363636363626,
                "tempo": 120.0
            },
            {
                "start_time": 60.78636363636363,
                "end_time": 60.974999999999994,
                "pitch": 35,
                "velocity": 64,
                "duration": 0.1886363636363626,
                "tempo": 120.0
            },
            {
                "start_time": 61.195454545454545,
                "end_time": 61.39090909090909,
                "pitch": 35,
                "velocity": 64,
                "duration": 0.19545454545454533,
                "tempo": 120.0
            },
            {
                "start_time": 61.40681818181818,
                "end_time": 61.584090909090904,
                "pitch": 35,
                "velocity": 64,
                "duration": 0.17727272727272236,
                "tempo": 120.0
            },
            {
                "start_time": 61.59772727272727,
                "end_time": 61.72272727272727,
                "pitch": 35,
                "velocity": 64,
                "duration": 0.125,
                "tempo": 120.0
            },
            {
                "start_time": 61.736363636363635,
                "end_time": 61.861363636363635,
                "pitch": 33,
                "velocity": 64,
                "duration": 0.125,
                "tempo": 120.0
            },
            {
                "start_time": 61.87272727272727,
                "end_time": 62.00909090909091,
                "pitch": 33,
                "velocity": 64,
                "duration": 0.13636363636364024,
                "tempo": 120.0
            },
            {
                "start_time": 62.15454545454545,
                "end_time": 62.277272727272724,
                "pitch": 33,
                "velocity": 64,
                "duration": 0.1227272727272748,
                "tempo": 120.0
            },
            {
                "start_time": 62.288636363636364,
                "end_time": 62.413636363636364,
                "pitch": 33,
                "velocity": 64,
                "duration": 0.125,
                "tempo": 120.0
            },
            {
                "start_time": 62.425,
                "end_time": 62.559090909090905,
                "pitch": 33,
                "velocity": 64,
                "duration": 0.13409090909090793,
                "tempo": 120.0
            },
            {
                "start_time": 62.570454545454545,
                "end_time": 62.69318181818181,
                "pitch": 33,
                "velocity": 64,
                "duration": 0.12272727272726769,
                "tempo": 120.0
            },
            {
                "start_time": 62.70454545454545,
                "end_time": 62.824999999999996,
                "pitch": 33,
                "velocity": 64,
                "duration": 0.12045454545454248,
                "tempo": 120.0
            },
            {
                "start_time": 62.965909090909086,
                "end_time": 63.10227272727273,
                "pitch": 33,
                "velocity": 64,
                "duration": 0.13636363636364024,
                "tempo": 120.0
            },
            {
                "start_time": 63.11363636363636,
                "end_time": 63.236363636363635,
                "pitch": 33,
                "velocity": 64,
                "duration": 0.1227272727272748,
                "tempo": 120.0
            },
            {
                "start_time": 63.24772727272727,
                "end_time": 63.37045454545454,
                "pitch": 33,
                "velocity": 64,
                "duration": 0.1227272727272748,
                "tempo": 120.0
            },
            {
                "start_time": 63.381818181818176,
                "end_time": 63.506818181818176,
                "pitch": 31,
                "velocity": 64,
                "duration": 0.125,
                "tempo": 120.0
            },
            {
                "start_time": 63.51590909090909,
                "end_time": 63.647727272727266,
                "pitch": 31,
                "velocity": 64,
                "duration": 0.13181818181817562,
                "tempo": 120.0
            },
            {
                "start_time": 63.79090909090909,
                "end_time": 63.913636363636364,
                "pitch": 31,
                "velocity": 64,
                "duration": 0.1227272727272748,
                "tempo": 120.0
            },
            {
                "start_time": 63.925,
                "end_time": 64.04772727272727,
                "pitch": 31,
                "velocity": 64,
                "duration": 0.1227272727272748,
                "tempo": 120.0
            },
            {
                "start_time": 64.05909090909091,
                "end_time": 64.19772727272726,
                "pitch": 31,
                "velocity": 64,
                "duration": 0.13863636363635123,
                "tempo": 120.0
            },
            {
                "start_time": 64.2090909090909,
                "end_time": 64.33636363636363,
                "pitch": 31,
                "velocity": 64,
                "duration": 0.1272727272727252,
                "tempo": 120.0
            },
            {
                "start_time": 64.34772727272727,
                "end_time": 64.46818181818182,
                "pitch": 31,
                "velocity": 64,
                "duration": 0.12045454545454959,
                "tempo": 120.0
            },
            {
                "start_time": 64.61136363636363,
                "end_time": 64.74318181818181,
                "pitch": 31,
                "velocity": 64,
                "duration": 0.13181818181817562,
                "tempo": 120.0
            },
            {
                "start_time": 64.75227272727273,
                "end_time": 64.875,
                "pitch": 31,
                "velocity": 64,
                "duration": 0.1227272727272748,
                "tempo": 120.0
            },
            {
                "start_time": 64.88636363636364,
                "end_time": 65.01363636363637,
                "pitch": 31,
                "velocity": 64,
                "duration": 0.1272727272727252,
                "tempo": 120.0
            },
            {
                "start_time": 65.02499999999999,
                "end_time": 65.15227272727273,
                "pitch": 33,
                "velocity": 64,
                "duration": 0.12727272727273942,
                "tempo": 120.0
            },
            {
                "start_time": 65.16136363636363,
                "end_time": 65.29318181818182,
                "pitch": 33,
                "velocity": 64,
                "duration": 0.13181818181818983,
                "tempo": 120.0
            },
            {
                "start_time": 65.43636363636364,
                "end_time": 65.56363636363636,
                "pitch": 33,
                "velocity": 64,
                "duration": 0.1272727272727252,
                "tempo": 120.0
            },
            {
                "start_time": 65.575,
                "end_time": 65.70227272727273,
                "pitch": 33,
                "velocity": 64,
                "duration": 0.1272727272727252,
                "tempo": 120.0
            },
            {
                "start_time": 65.71136363636363,
                "end_time": 65.8409090909091,
                "pitch": 33,
                "velocity": 64,
                "duration": 0.12954545454546462,
                "tempo": 120.0
            },
            {
                "start_time": 65.85227272727272,
                "end_time": 65.96818181818182,
                "pitch": 33,
                "velocity": 64,
                "duration": 0.11590909090909918,
                "tempo": 120.0
            },
            {
                "start_time": 65.98181818181818,
                "end_time": 66.10681818181818,
                "pitch": 33,
                "velocity": 64,
                "duration": 0.125,
                "tempo": 120.0
            },
            {
                "start_time": 66.27045454545454,
                "end_time": 66.39545454545454,
                "pitch": 33,
                "velocity": 64,
                "duration": 0.125,
                "tempo": 120.0
            },
            {
                "start_time": 66.4090909090909,
                "end_time": 66.5340909090909,
                "pitch": 33,
                "velocity": 64,
                "duration": 0.125,
                "tempo": 120.0
            },
            {
                "start_time": 66.54545454545455,
                "end_time": 66.66818181818182,
                "pitch": 33,
                "velocity": 64,
                "duration": 0.1227272727272748,
                "tempo": 120.0
            },
            {
                "start_time": 66.67727272727272,
                "end_time": 66.80909090909091,
                "pitch": 35,
                "velocity": 64,
                "duration": 0.13181818181818983,
                "tempo": 120.0
            },
            {
                "start_time": 66.82045454545454,
                "end_time": 66.94545454545454,
                "pitch": 35,
                "velocity": 64,
                "duration": 0.125,
                "tempo": 120.0
            },
            {
                "start_time": 67.0909090909091,
                "end_time": 67.21363636363635,
                "pitch": 35,
                "velocity": 64,
                "duration": 0.12272727272726058,
                "tempo": 120.0
            },
            {
                "start_time": 67.225,
                "end_time": 67.36136363636363,
                "pitch": 35,
                "velocity": 64,
                "duration": 0.13636363636364024,
                "tempo": 120.0
            },
            {
                "start_time": 67.37272727272727,
                "end_time": 67.49545454545454,
                "pitch": 35,
                "velocity": 64,
                "duration": 0.12272727272726058,
                "tempo": 120.0
            },
            {
                "start_time": 67.50681818181818,
                "end_time": 67.62954545454545,
                "pitch": 35,
                "velocity": 64,
                "duration": 0.1227272727272748,
                "tempo": 120.0
            },
            {
                "start_time": 67.64090909090909,
                "end_time": 67.76136363636363,
                "pitch": 35,
                "velocity": 64,
                "duration": 0.12045454545453538,
                "tempo": 120.0
            },
            {
                "start_time": 67.91590909090908,
                "end_time": 68.04318181818182,
                "pitch": 35,
                "velocity": 64,
                "duration": 0.12727272727273942,
                "tempo": 120.0
            },
            {
                "start_time": 68.05454545454545,
                "end_time": 68.18181818181817,
                "pitch": 35,
                "velocity": 64,
                "duration": 0.1272727272727252,
                "tempo": 120.0
            },
            {
                "start_time": 68.19318181818181,
                "end_time": 68.31590909090909,
                "pitch": 35,
                "velocity": 64,
                "duration": 0.1227272727272748,
                "tempo": 120.0
            },
            {
                "start_time": 68.32727272727273,
                "end_time": 68.46363636363635,
                "pitch": 33,
                "velocity": 64,
                "duration": 0.13636363636362603,
                "tempo": 120.0
            },
            {
                "start_time": 68.475,
                "end_time": 68.59772727272727,
                "pitch": 33,
                "velocity": 64,
                "duration": 0.1227272727272748,
                "tempo": 120.0
            },
            {
                "start_time": 68.74318181818181,
                "end_time": 68.86363636363636,
                "pitch": 33,
                "velocity": 64,
                "duration": 0.12045454545454959,
                "tempo": 120.0
            },
            {
                "start_time": 68.875,
                "end_time": 69.00681818181818,
                "pitch": 33,
                "velocity": 64,
                "duration": 0.13181818181817562,
                "tempo": 120.0
            },
            {
                "start_time": 69.01818181818182,
                "end_time": 69.14318181818182,
                "pitch": 33,
                "velocity": 64,
                "duration": 0.125,
                "tempo": 120.0
            },
            {
                "start_time": 69.15454545454546,
                "end_time": 69.27727272727273,
                "pitch": 33,
                "velocity": 64,
                "duration": 0.1227272727272748,
                "tempo": 120.0
            },
            {
                "start_time": 69.28863636363636,
                "end_time": 69.41136363636363,
                "pitch": 33,
                "velocity": 64,
                "duration": 0.1227272727272748,
                "tempo": 120.0
            },
            {
                "start_time": 69.56818181818181,
                "end_time": 69.69318181818181,
                "pitch": 33,
                "velocity": 64,
                "duration": 0.125,
                "tempo": 120.0
            },
            {
                "start_time": 69.70454545454545,
                "end_time": 69.82727272727273,
                "pitch": 33,
                "velocity": 64,
                "duration": 0.1227272727272748,
                "tempo": 120.0
            },
            {
                "start_time": 69.83863636363635,
                "end_time": 69.96136363636363,
                "pitch": 33,
                "velocity": 64,
                "duration": 0.1227272727272748,
                "tempo": 120.0
            },
            {
                "start_time": 69.97272727272727,
                "end_time": 70.10909090909091,
                "pitch": 31,
                "velocity": 64,
                "duration": 0.13636363636364024,
                "tempo": 120.0
            },
            {
                "start_time": 70.11818181818181,
                "end_time": 70.24318181818181,
                "pitch": 31,
                "velocity": 64,
                "duration": 0.125,
                "tempo": 120.0
            },
            {
                "start_time": 70.38863636363637,
                "end_time": 70.5090909090909,
                "pitch": 31,
                "velocity": 64,
                "duration": 0.12045454545453538,
                "tempo": 120.0
            },
            {
                "start_time": 70.52045454545454,
                "end_time": 70.65227272727273,
                "pitch": 31,
                "velocity": 64,
                "duration": 0.13181818181818983,
                "tempo": 120.0
            },
            {
                "start_time": 70.66363636363636,
                "end_time": 70.78636363636363,
                "pitch": 31,
                "velocity": 64,
                "duration": 0.1227272727272748,
                "tempo": 120.0
            },
            {
                "start_time": 70.79772727272727,
                "end_time": 70.92272727272727,
                "pitch": 31,
                "velocity": 64,
                "duration": 0.125,
                "tempo": 120.0
            },
            {
                "start_time": 70.93409090909091,
                "end_time": 71.05454545454545,
                "pitch": 31,
                "velocity": 64,
                "duration": 0.12045454545453538,
                "tempo": 120.0
            },
            {
                "start_time": 71.2090909090909,
                "end_time": 71.33636363636363,
                "pitch": 31,
                "velocity": 64,
                "duration": 0.1272727272727252,
                "tempo": 120.0
            },
            {
                "start_time": 71.34772727272727,
                "end_time": 71.475,
                "pitch": 31,
                "velocity": 64,
                "duration": 0.1272727272727252,
                "tempo": 120.0
            },
            {
                "start_time": 71.48636363636363,
                "end_time": 71.60681818181818,
                "pitch": 31,
                "velocity": 64,
                "duration": 0.12045454545454959,
                "tempo": 120.0
            },
            {
                "start_time": 71.61818181818181,
                "end_time": 71.75,
                "pitch": 31,
                "velocity": 64,
                "duration": 0.13181818181818983,
                "tempo": 120.0
            },
            {
                "start_time": 71.76136363636363,
                "end_time": 71.88863636363637,
                "pitch": 31,
                "velocity": 64,
                "duration": 0.12727272727273942,
                "tempo": 120.0
            },
            {
                "start_time": 72.03636363636363,
                "end_time": 72.15681818181818,
                "pitch": 31,
                "velocity": 64,
                "duration": 0.12045454545454959,
                "tempo": 120.0
            },
            {
                "start_time": 72.16818181818182,
                "end_time": 72.3,
                "pitch": 31,
                "velocity": 64,
                "duration": 0.13181818181817562,
                "tempo": 120.0
            },
            {
                "start_time": 72.31136363636364,
                "end_time": 72.43409090909091,
                "pitch": 31,
                "velocity": 64,
                "duration": 0.1227272727272748,
                "tempo": 120.0
            },
            {
                "start_time": 72.44545454545454,
                "end_time": 72.56818181818181,
                "pitch": 31,
                "velocity": 64,
                "duration": 0.1227272727272748,
                "tempo": 120.0
            },
            {
                "start_time": 72.57954545454545,
                "end_time": 72.7,
                "pitch": 31,
                "velocity": 64,
                "duration": 0.12045454545454959,
                "tempo": 120.0
            },
            {
                "start_time": 72.85454545454544,
                "end_time": 72.98181818181818,
                "pitch": 31,
                "velocity": 64,
                "duration": 0.12727272727273942,
                "tempo": 120.0
            },
            {
                "start_time": 72.99318181818181,
                "end_time": 73.12045454545454,
                "pitch": 31,
                "velocity": 64,
                "duration": 0.1272727272727252,
                "tempo": 120.0
            },
            {
                "start_time": 73.13181818181818,
                "end_time": 73.27045454545454,
                "pitch": 31,
                "velocity": 64,
                "duration": 0.13863636363636545,
                "tempo": 120.0
            },
            {
                "start_time": 73.28181818181818,
                "end_time": 73.4090909090909,
                "pitch": 31,
                "velocity": 64,
                "duration": 0.1272727272727252,
                "tempo": 120.0
            },
            {
                "start_time": 73.42045454545455,
                "end_time": 73.54318181818182,
                "pitch": 31,
                "velocity": 64,
                "duration": 0.1227272727272748,
                "tempo": 120.0
            },
            {
                "start_time": 73.68863636363636,
                "end_time": 73.82727272727273,
                "pitch": 31,
                "velocity": 64,
                "duration": 0.13863636363636545,
                "tempo": 120.0
            },
            {
                "start_time": 73.83863636363635,
                "end_time": 73.9659090909091,
                "pitch": 31,
                "velocity": 64,
                "duration": 0.12727272727273942,
                "tempo": 120.0
            },
            {
                "start_time": 73.97727272727272,
                "end_time": 74.10454545454544,
                "pitch": 31,
                "velocity": 64,
                "duration": 0.1272727272727252,
                "tempo": 120.0
            },
            {
                "start_time": 74.11590909090908,
                "end_time": 74.29545454545455,
                "pitch": 31,
                "velocity": 64,
                "duration": 0.17954545454546178,
                "tempo": 120.0
            },
            {
                "start_time": 74.31363636363636,
                "end_time": 74.51363636363637,
                "pitch": 31,
                "velocity": 64,
                "duration": 0.20000000000000284,
                "tempo": 120.0
            },
            {
                "start_time": 74.73181818181818,
                "end_time": 74.92045454545455,
                "pitch": 31,
                "velocity": 64,
                "duration": 0.1886363636363626,
                "tempo": 120.0
            },
            {
                "start_time": 74.93863636363636,
                "end_time": 75.12727272727273,
                "pitch": 31,
                "velocity": 64,
                "duration": 0.1886363636363626,
                "tempo": 120.0
            },
            {
                "start_time": 75.14545454545454,
                "end_time": 75.35227272727272,
                "pitch": 31,
                "velocity": 64,
                "duration": 0.20681818181817846,
                "tempo": 120.0
            },
            {
                "start_time": 75.36818181818181,
                "end_time": 75.55454545454545,
                "pitch": 33,
                "velocity": 64,
                "duration": 0.1863636363636374,
                "tempo": 120.0
            },
            {
                "start_time": 75.57045454545454,
                "end_time": 75.75454545454545,
                "pitch": 33,
                "velocity": 64,
                "duration": 0.1840909090909122,
                "tempo": 120.0
            },
            {
                "start_time": 75.97272727272727,
                "end_time": 76.16818181818182,
                "pitch": 33,
                "velocity": 64,
                "duration": 0.19545454545455243,
                "tempo": 120.0
            },
            {
                "start_time": 76.18636363636364,
                "end_time": 76.36590909090908,
                "pitch": 33,
                "velocity": 64,
                "duration": 0.17954545454544757,
                "tempo": 120.0
            },
            {
                "start_time": 76.38181818181818,
                "end_time": 76.56136363636364,
                "pitch": 33,
                "velocity": 64,
                "duration": 0.17954545454546178,
                "tempo": 120.0
            },
            {
                "start_time": 76.57954545454545,
                "end_time": 76.76363636363637,
                "pitch": 33,
                "velocity": 64,
                "duration": 0.1840909090909122,
                "tempo": 120.0
            },
            {
                "start_time": 76.77954545454546,
                "end_time": 76.97954545454544,
                "pitch": 33,
                "velocity": 64,
                "duration": 0.19999999999998863,
                "tempo": 120.0
            },
            {
                "start_time": 77.19772727272726,
                "end_time": 77.3840909090909,
                "pitch": 33,
                "velocity": 64,
                "duration": 0.1863636363636374,
                "tempo": 120.0
            },
            {
                "start_time": 77.40227272727272,
                "end_time": 77.5909090909091,
                "pitch": 33,
                "velocity": 64,
                "duration": 0.1886363636363768,
                "tempo": 120.0
            },
            {
                "start_time": 77.60681818181818,
                "end_time": 77.81136363636364,
                "pitch": 33,
                "velocity": 64,
                "duration": 0.20454545454545325,
                "tempo": 120.0
            },
            {
                "start_time": 77.82954545454545,
                "end_time": 78.01590909090909,
                "pitch": 35,
                "velocity": 64,
                "duration": 0.1863636363636374,
                "tempo": 120.0
            },
            {
                "start_time": 78.0340909090909,
                "end_time": 78.22272727272727,
                "pitch": 35,
                "velocity": 64,
                "duration": 0.1886363636363626,
                "tempo": 120.0
            },
            {
                "start_time": 78.44318181818181,
                "end_time": 78.64318181818182,
                "pitch": 35,
                "velocity": 64,
                "duration": 0.20000000000000284,
                "tempo": 120.0
            },
            {
                "start_time": 78.6590909090909,
                "end_time": 78.8409090909091,
                "pitch": 35,
                "velocity": 64,
                "duration": 0.18181818181818699,
                "tempo": 120.0
            },
            {
                "start_time": 78.85909090909091,
                "end_time": 79.04090909090908,
                "pitch": 35,
                "velocity": 64,
                "duration": 0.18181818181817277,
                "tempo": 120.0
            },
            {
                "start_time": 79.05681818181817,
                "end_time": 79.24545454545454,
                "pitch": 35,
                "velocity": 64,
                "duration": 0.1886363636363626,
                "tempo": 120.0
            },
            {
                "start_time": 79.26136363636363,
                "end_time": 79.4659090909091,
                "pitch": 35,
                "velocity": 64,
                "duration": 0.20454545454546746,
                "tempo": 120.0
            },
            {
                "start_time": 79.68863636363636,
                "end_time": 79.87272727272727,
                "pitch": 35,
                "velocity": 64,
                "duration": 0.1840909090909122,
                "tempo": 120.0
            },
            {
                "start_time": 79.88863636363637,
                "end_time": 80.07272727272726,
                "pitch": 35,
                "velocity": 64,
                "duration": 0.18409090909089798,
                "tempo": 120.0
            },
            {
                "start_time": 80.0909090909091,
                "end_time": 80.29090909090908,
                "pitch": 35,
                "velocity": 64,
                "duration": 0.19999999999998863,
                "tempo": 120.0
            },
            {
                "start_time": 80.30681818181817,
                "end_time": 80.48863636363636,
                "pitch": 35,
                "velocity": 64,
                "duration": 0.18181818181818699,
                "tempo": 120.0
            },
            {
                "start_time": 80.50454545454545,
                "end_time": 80.68409090909091,
                "pitch": 35,
                "velocity": 64,
                "duration": 0.17954545454546178,
                "tempo": 120.0
            },
            {
                "start_time": 80.89772727272727,
                "end_time": 81.10227272727272,
                "pitch": 35,
                "velocity": 64,
                "duration": 0.20454545454545325,
                "tempo": 120.0
            },
            {
                "start_time": 81.11818181818181,
                "end_time": 81.30681818181817,
                "pitch": 35,
                "velocity": 64,
                "duration": 0.1886363636363626,
                "tempo": 120.0
            },
            {
                "start_time": 81.325,
                "end_time": 81.51136363636363,
                "pitch": 35,
                "velocity": 64,
                "duration": 0.1863636363636232,
                "tempo": 120.0
            },
            {
                "start_time": 81.52954545454546,
                "end_time": 81.7159090909091,
                "pitch": 35,
                "velocity": 64,
                "duration": 0.1863636363636374,
                "tempo": 120.0
            },
            {
                "start_time": 81.75,
                "end_time": 81.93863636363636,
                "pitch": 35,
                "velocity": 64,
                "duration": 0.1886363636363626,
                "tempo": 120.0
            },
            {
                "start_time": 82.16136363636363,
                "end_time": 82.34545454545454,
                "pitch": 35,
                "velocity": 64,
                "duration": 0.1840909090909122,
                "tempo": 120.0
            },
            {
                "start_time": 82.36136363636363,
                "end_time": 82.56363636363636,
                "pitch": 35,
                "velocity": 64,
                "duration": 0.20227272727272805,
                "tempo": 120.0
            },
            {
                "start_time": 82.57954545454545,
                "end_time": 82.76363636363637,
                "pitch": 35,
                "velocity": 64,
                "duration": 0.1840909090909122,
                "tempo": 120.0
            }
        ],
        "Acoustic Guitar (nylon)": [
            {
                "start_time": 0.00909090909090909,
                "end_time": 0.04318181818181818,
                "pitch": 55,
                "velocity": 51,
                "duration": 0.03409090909090909,
                "tempo": 120.0
            },
            {
                "start_time": 0.05909090909090909,
                "end_time": 1.2454545454545454,
                "pitch": 66,
                "velocity": 51,
                "duration": 1.1863636363636363,
                "tempo": 120.0
            },
            {
                "start_time": 1.2613636363636362,
                "end_time": 2.502272727272727,
                "pitch": 64,
                "velocity": 51,
                "duration": 1.2409090909090907,
                "tempo": 120.0
            },
            {
                "start_time": 2.518181818181818,
                "end_time": 3.718181818181818,
                "pitch": 62,
                "velocity": 51,
                "duration": 1.1999999999999997,
                "tempo": 120.0
            },
            {
                "start_time": 3.734090909090909,
                "end_time": 4.543181818181818,
                "pitch": 64,
                "velocity": 51,
                "duration": 0.8090909090909091,
                "tempo": 120.0
            },
            {
                "start_time": 4.5613636363636365,
                "end_time": 4.975,
                "pitch": 71,
                "velocity": 51,
                "duration": 0.41363636363636314,
                "tempo": 120.0
            },
            {
                "start_time": 4.99090909090909,
                "end_time": 6.184090909090909,
                "pitch": 66,
                "velocity": 51,
                "duration": 1.1931818181818183,
                "tempo": 120.0
            },
            {
                "start_time": 6.199999999999999,
                "end_time": 7.4386363636363635,
                "pitch": 64,
                "velocity": 51,
                "duration": 1.2386363636363642,
                "tempo": 120.0
            },
            {
                "start_time": 7.454545454545454,
                "end_time": 8.65,
                "pitch": 62,
                "velocity": 51,
                "duration": 1.1954545454545462,
                "tempo": 120.0
            },
            {
                "start_time": 8.665909090909091,
                "end_time": 9.475,
                "pitch": 64,
                "velocity": 51,
                "duration": 0.8090909090909086,
                "tempo": 120.0
            },
            {
                "start_time": 9.49090909090909,
                "end_time": 9.9,
                "pitch": 71,
                "velocity": 51,
                "duration": 0.40909090909091006,
                "tempo": 120.0
            },
            {
                "start_time": 9.918181818181818,
                "end_time": 11.145454545454545,
                "pitch": 66,
                "velocity": 51,
                "duration": 1.2272727272727266,
                "tempo": 120.0
            },
            {
                "start_time": 11.161363636363635,
                "end_time": 12.384090909090908,
                "pitch": 64,
                "velocity": 51,
                "duration": 1.2227272727272727,
                "tempo": 120.0
            },
            {
                "start_time": 12.399999999999999,
                "end_time": 13.611363636363636,
                "pitch": 62,
                "velocity": 51,
                "duration": 1.2113636363636378,
                "tempo": 120.0
            },
            {
                "start_time": 13.627272727272727,
                "end_time": 14.420454545454545,
                "pitch": 64,
                "velocity": 51,
                "duration": 0.793181818181818,
                "tempo": 120.0
            },
            {
                "start_time": 14.436363636363636,
                "end_time": 14.85,
                "pitch": 71,
                "velocity": 51,
                "duration": 0.413636363636364,
                "tempo": 120.0
            },
            {
                "start_time": 14.86590909090909,
                "end_time": 15.045454545454545,
                "pitch": 66,
                "velocity": 51,
                "duration": 0.17954545454545467,
                "tempo": 120.0
            },
            {
                "start_time": 15.061363636363636,
                "end_time": 15.243181818181817,
                "pitch": 61,
                "velocity": 51,
                "duration": 0.18181818181818166,
                "tempo": 120.0
            },
            {
                "start_time": 15.259090909090908,
                "end_time": 15.45681818181818,
                "pitch": 59,
                "velocity": 51,
                "duration": 0.1977272727272723,
                "tempo": 120.0
            },
            {
                "start_time": 15.475,
                "end_time": 15.661363636363635,
                "pitch": 61,
                "velocity": 51,
                "duration": 0.18636363636363562,
                "tempo": 120.0
            },
            {
                "start_time": 15.679545454545453,
                "end_time": 15.868181818181817,
                "pitch": 59,
                "velocity": 51,
                "duration": 0.18863636363636438,
                "tempo": 120.0
            },
            {
                "start_time": 15.884090909090908,
                "end_time": 16.070454545454545,
                "pitch": 54,
                "velocity": 51,
                "duration": 0.1863636363636374,
                "tempo": 120.0
            },
            {
                "start_time": 16.086363636363636,
                "end_time": 16.28409090909091,
                "pitch": 66,
                "velocity": 51,
                "duration": 0.19772727272727408,
                "tempo": 120.0
            },
            {
                "start_time": 16.3,
                "end_time": 16.479545454545455,
                "pitch": 61,
                "velocity": 51,
                "duration": 0.17954545454545467,
                "tempo": 120.0
            },
            {
                "start_time": 16.49772727272727,
                "end_time": 16.679545454545455,
                "pitch": 59,
                "velocity": 51,
                "duration": 0.18181818181818343,
                "tempo": 120.0
            },
            {
                "start_time": 16.695454545454545,
                "end_time": 16.884090909090908,
                "pitch": 61,
                "velocity": 51,
                "duration": 0.1886363636363626,
                "tempo": 120.0
            },
            {
                "start_time": 16.918181818181818,
                "end_time": 17.10681818181818,
                "pitch": 59,
                "velocity": 51,
                "duration": 0.1886363636363626,
                "tempo": 120.0
            },
            {
                "start_time": 17.12272727272727,
                "end_time": 17.30909090909091,
                "pitch": 54,
                "velocity": 51,
                "duration": 0.1863636363636374,
                "tempo": 120.0
            },
            {
                "start_time": 17.327272727272728,
                "end_time": 17.511363636363637,
                "pitch": 66,
                "velocity": 51,
                "duration": 0.18409090909090864,
                "tempo": 120.0
            },
            {
                "start_time": 17.527272727272727,
                "end_time": 17.727272727272727,
                "pitch": 61,
                "velocity": 51,
                "duration": 0.1999999999999993,
                "tempo": 120.0
            },
            {
                "start_time": 17.745454545454546,
                "end_time": 17.929545454545455,
                "pitch": 58,
                "velocity": 51,
                "duration": 0.18409090909090864,
                "tempo": 120.0
            },
            {
                "start_time": 17.945454545454545,
                "end_time": 18.134090909090908,
                "pitch": 61,
                "velocity": 51,
                "duration": 0.1886363636363626,
                "tempo": 120.0
            },
            {
                "start_time": 18.152272727272727,
                "end_time": 18.33863636363636,
                "pitch": 58,
                "velocity": 51,
                "duration": 0.18636363636363384,
                "tempo": 120.0
            },
            {
                "start_time": 18.35681818181818,
                "end_time": 18.55909090909091,
                "pitch": 54,
                "velocity": 51,
                "duration": 0.20227272727272805,
                "tempo": 120.0
            },
            {
                "start_time": 18.575,
                "end_time": 18.759090909090908,
                "pitch": 66,
                "velocity": 51,
                "duration": 0.18409090909090864,
                "tempo": 120.0
            },
            {
                "start_time": 18.775,
                "end_time": 18.956818181818182,
                "pitch": 61,
                "velocity": 51,
                "duration": 0.18181818181818343,
                "tempo": 120.0
            },
            {
                "start_time": 18.972727272727273,
                "end_time": 19.15681818181818,
                "pitch": 58,
                "velocity": 51,
                "duration": 0.18409090909090864,
                "tempo": 120.0
            },
            {
                "start_time": 19.175,
                "end_time": 19.379545454545454,
                "pitch": 61,
                "velocity": 51,
                "duration": 0.20454545454545325,
                "tempo": 120.0
            },
            {
                "start_time": 19.395454545454545,
                "end_time": 19.584090909090907,
                "pitch": 58,
                "velocity": 51,
                "duration": 0.1886363636363626,
                "tempo": 120.0
            },
            {
                "start_time": 19.599999999999998,
                "end_time": 19.73181818181818,
                "pitch": 54,
                "velocity": 51,
                "duration": 0.13181818181818272,
                "tempo": 120.0
            },
            {
                "start_time": 19.73181818181818,
                "end_time": 19.788636363636364,
                "pitch": 54,
                "velocity": 51,
                "duration": 0.05681818181818343,
                "tempo": 120.0
            },
            {
                "start_time": 19.80681818181818,
                "end_time": 21.052272727272726,
                "pitch": 66,
                "velocity": 51,
                "duration": 1.245454545454546,
                "tempo": 120.0
            },
            {
                "start_time": 21.068181818181817,
                "end_time": 22.272727272727273,
                "pitch": 64,
                "velocity": 51,
                "duration": 1.2045454545454568,
                "tempo": 120.0
            },
            {
                "start_time": 22.288636363636364,
                "end_time": 23.52272727272727,
                "pitch": 62,
                "velocity": 51,
                "duration": 1.2340909090909058,
                "tempo": 120.0
            },
            {
                "start_time": 23.54090909090909,
                "end_time": 24.34318181818182,
                "pitch": 64,
                "velocity": 51,
                "duration": 0.8022727272727295,
                "tempo": 120.0
            },
            {
                "start_time": 24.35909090909091,
                "end_time": 24.745454545454542,
                "pitch": 71,
                "velocity": 51,
                "duration": 0.38636363636363313,
                "tempo": 120.0
            },
            {
                "start_time": 24.761363636363637,
                "end_time": 25.995454545454542,
                "pitch": 66,
                "velocity": 51,
                "duration": 1.2340909090909058,
                "tempo": 120.0
            },
            {
                "start_time": 26.011363636363637,
                "end_time": 27.21590909090909,
                "pitch": 64,
                "velocity": 51,
                "duration": 1.2045454545454533,
                "tempo": 120.0
            },
            {
                "start_time": 27.23409090909091,
                "end_time": 28.468181818181815,
                "pitch": 62,
                "velocity": 51,
                "duration": 1.2340909090909058,
                "tempo": 120.0
            },
            {
                "start_time": 28.48409090909091,
                "end_time": 29.286363636363635,
                "pitch": 64,
                "velocity": 51,
                "duration": 0.8022727272727259,
                "tempo": 120.0
            },
            {
                "start_time": 29.304545454545455,
                "end_time": 29.688636363636363,
                "pitch": 71,
                "velocity": 51,
                "duration": 0.38409090909090793,
                "tempo": 120.0
            },
            {
                "start_time": 29.704545454545453,
                "end_time": 30.938636363636363,
                "pitch": 66,
                "velocity": 51,
                "duration": 1.2340909090909093,
                "tempo": 120.0
            },
            {
                "start_time": 30.956818181818182,
                "end_time": 32.17272727272727,
                "pitch": 64,
                "velocity": 51,
                "duration": 1.21590909090909,
                "tempo": 120.0
            },
            {
                "start_time": 32.18863636363636,
                "end_time": 33.41136363636363,
                "pitch": 62,
                "velocity": 51,
                "duration": 1.222727272727269,
                "tempo": 120.0
            },
            {
                "start_time": 33.42727272727272,
                "end_time": 34.236363636363635,
                "pitch": 64,
                "velocity": 51,
                "duration": 0.8090909090909122,
                "tempo": 120.0
            },
            {
                "start_time": 34.252272727272725,
                "end_time": 34.64545454545454,
                "pitch": 71,
                "velocity": 51,
                "duration": 0.39318181818181586,
                "tempo": 120.0
            },
            {
                "start_time": 34.66136363636363,
                "end_time": 34.85909090909091,
                "pitch": 66,
                "velocity": 51,
                "duration": 0.19772727272727764,
                "tempo": 120.0
            },
            {
                "start_time": 34.877272727272725,
                "end_time": 35.059090909090905,
                "pitch": 61,
                "velocity": 51,
                "duration": 0.18181818181817988,
                "tempo": 120.0
            },
            {
                "start_time": 35.074999999999996,
                "end_time": 35.25681818181818,
                "pitch": 59,
                "velocity": 51,
                "duration": 0.18181818181818699,
                "tempo": 120.0
            },
            {
                "start_time": 35.275,
                "end_time": 35.45909090909091,
                "pitch": 61,
                "velocity": 51,
                "duration": 0.1840909090909122,
                "tempo": 120.0
            },
            {
                "start_time": 35.475,
                "end_time": 35.675,
                "pitch": 59,
                "velocity": 51,
                "duration": 0.19999999999999574,
                "tempo": 120.0
            },
            {
                "start_time": 35.69318181818181,
                "end_time": 35.877272727272725,
                "pitch": 54,
                "velocity": 51,
                "duration": 0.1840909090909122,
                "tempo": 120.0
            },
            {
                "start_time": 35.89545454545454,
                "end_time": 36.08181818181818,
                "pitch": 66,
                "velocity": 51,
                "duration": 0.1863636363636374,
                "tempo": 120.0
            },
            {
                "start_time": 36.1,
                "end_time": 36.28636363636363,
                "pitch": 61,
                "velocity": 51,
                "duration": 0.1863636363636303,
                "tempo": 120.0
            },
            {
                "start_time": 36.320454545454545,
                "end_time": 36.50909090909091,
                "pitch": 59,
                "velocity": 51,
                "duration": 0.1886363636363626,
                "tempo": 120.0
            },
            {
                "start_time": 36.525,
                "end_time": 36.70909090909091,
                "pitch": 61,
                "velocity": 51,
                "duration": 0.1840909090909122,
                "tempo": 120.0
            },
            {
                "start_time": 36.725,
                "end_time": 36.90909090909091,
                "pitch": 59,
                "velocity": 51,
                "duration": 0.18409090909090509,
                "tempo": 120.0
            },
            {
                "start_time": 36.92727272727272,
                "end_time": 37.127272727272725,
                "pitch": 54,
                "velocity": 51,
                "duration": 0.20000000000000284,
                "tempo": 120.0
            },
            {
                "start_time": 37.143181818181816,
                "end_time": 37.32727272727273,
                "pitch": 66,
                "velocity": 51,
                "duration": 0.1840909090909122,
                "tempo": 120.0
            },
            {
                "start_time": 37.345454545454544,
                "end_time": 37.529545454545456,
                "pitch": 61,
                "velocity": 51,
                "duration": 0.1840909090909122,
                "tempo": 120.0
            },
            {
                "start_time": 37.54545454545455,
                "end_time": 37.72954545454545,
                "pitch": 58,
                "velocity": 51,
                "duration": 0.18409090909090509,
                "tempo": 120.0
            },
            {
                "start_time": 37.74545454545454,
                "end_time": 37.94772727272727,
                "pitch": 61,
                "velocity": 51,
                "duration": 0.20227272727272805,
                "tempo": 120.0
            },
            {
                "start_time": 37.96363636363636,
                "end_time": 38.14772727272727,
                "pitch": 58,
                "velocity": 51,
                "duration": 0.1840909090909122,
                "tempo": 120.0
            },
            {
                "start_time": 38.163636363636364,
                "end_time": 38.35,
                "pitch": 54,
                "velocity": 51,
                "duration": 0.1863636363636374,
                "tempo": 120.0
            },
            {
                "start_time": 38.36590909090909,
                "end_time": 38.554545454545455,
                "pitch": 66,
                "velocity": 51,
                "duration": 0.1886363636363626,
                "tempo": 120.0
            },
            {
                "start_time": 38.570454545454545,
                "end_time": 38.777272727272724,
                "pitch": 61,
                "velocity": 51,
                "duration": 0.20681818181817846,
                "tempo": 120.0
            },
            {
                "start_time": 38.793181818181814,
                "end_time": 38.97954545454545,
                "pitch": 58,
                "velocity": 51,
                "duration": 0.1863636363636374,
                "tempo": 120.0
            },
            {
                "start_time": 38.99772727272727,
                "end_time": 39.18181818181818,
                "pitch": 61,
                "velocity": 51,
                "duration": 0.1840909090909122,
                "tempo": 120.0
            },
            {
                "start_time": 39.19772727272727,
                "end_time": 39.38181818181818,
                "pitch": 58,
                "velocity": 51,
                "duration": 0.1840909090909122,
                "tempo": 120.0
            },
            {
                "start_time": 39.39772727272727,
                "end_time": 39.6,
                "pitch": 54,
                "velocity": 51,
                "duration": 0.20227272727272805,
                "tempo": 120.0
            },
            {
                "start_time": 39.61590909090909,
                "end_time": 40.83181818181818,
                "pitch": 66,
                "velocity": 51,
                "duration": 1.2159090909090864,
                "tempo": 120.0
            },
            {
                "start_time": 40.85,
                "end_time": 42.084090909090904,
                "pitch": 64,
                "velocity": 51,
                "duration": 1.2340909090909022,
                "tempo": 120.0
            },
            {
                "start_time": 42.1,
                "end_time": 43.304545454545455,
                "pitch": 62,
                "velocity": 51,
                "duration": 1.2045454545454533,
                "tempo": 120.0
            },
            {
                "start_time": 43.320454545454545,
                "end_time": 44.12954545454545,
                "pitch": 64,
                "velocity": 51,
                "duration": 0.8090909090909051,
                "tempo": 120.0
            },
            {
                "start_time": 44.14545454545454,
                "end_time": 44.554545454545455,
                "pitch": 71,
                "velocity": 51,
                "duration": 0.4090909090909136,
                "tempo": 120.0
            },
            {
                "start_time": 44.57272727272727,
                "end_time": 45.777272727272724,
                "pitch": 66,
                "velocity": 51,
                "duration": 1.2045454545454533,
                "tempo": 120.0
            },
            {
                "start_time": 45.793181818181814,
                "end_time": 47.027272727272724,
                "pitch": 64,
                "velocity": 51,
                "duration": 1.2340909090909093,
                "tempo": 120.0
            },
            {
                "start_time": 47.043181818181814,
                "end_time": 48.24772727272727,
                "pitch": 62,
                "velocity": 51,
                "duration": 1.2045454545454533,
                "tempo": 120.0
            },
            {
                "start_time": 48.26590909090909,
                "end_time": 49.07272727272727,
                "pitch": 64,
                "velocity": 51,
                "duration": 0.8068181818181799,
                "tempo": 120.0
            },
            {
                "start_time": 49.090909090909086,
                "end_time": 49.5,
                "pitch": 71,
                "velocity": 51,
                "duration": 0.4090909090909136,
                "tempo": 120.0
            },
            {
                "start_time": 49.518181818181816,
                "end_time": 50.74545454545454,
                "pitch": 66,
                "velocity": 51,
                "duration": 1.2272727272727266,
                "tempo": 120.0
            },
            {
                "start_time": 50.76136363636363,
                "end_time": 51.98409090909091,
                "pitch": 64,
                "velocity": 51,
                "duration": 1.2227272727272762,
                "tempo": 120.0
            },
            {
                "start_time": 52.0,
                "end_time": 53.215909090909086,
                "pitch": 62,
                "velocity": 51,
                "duration": 1.2159090909090864,
                "tempo": 120.0
            },
            {
                "start_time": 53.23181818181818,
                "end_time": 54.02272727272727,
                "pitch": 64,
                "velocity": 51,
                "duration": 0.7909090909090963,
                "tempo": 120.0
            },
            {
                "start_time": 54.04090909090909,
                "end_time": 54.449999999999996,
                "pitch": 71,
                "velocity": 51,
                "duration": 0.4090909090909065,
                "tempo": 120.0
            },
            {
                "start_time": 54.465909090909086,
                "end_time": 54.65,
                "pitch": 66,
                "velocity": 51,
                "duration": 0.1840909090909122,
                "tempo": 120.0
            },
            {
                "start_time": 54.668181818181814,
                "end_time": 54.85227272727273,
                "pitch": 61,
                "velocity": 51,
                "duration": 0.1840909090909122,
                "tempo": 120.0
            },
            {
                "start_time": 54.86818181818182,
                "end_time": 55.06818181818181,
                "pitch": 59,
                "velocity": 51,
                "duration": 0.19999999999999574,
                "tempo": 120.0
            },
            {
                "start_time": 55.086363636363636,
                "end_time": 55.27045454545454,
                "pitch": 61,
                "velocity": 51,
                "duration": 0.18409090909090509,
                "tempo": 120.0
            },
            {
                "start_time": 55.28636363636363,
                "end_time": 55.470454545454544,
                "pitch": 59,
                "velocity": 51,
                "duration": 0.1840909090909122,
                "tempo": 120.0
            },
            {
                "start_time": 55.486363636363635,
                "end_time": 55.67045454545454,
                "pitch": 54,
                "velocity": 51,
                "duration": 0.18409090909090509,
                "tempo": 120.0
            },
            {
                "start_time": 55.70454545454545,
                "end_time": 55.88863636363636,
                "pitch": 66,
                "velocity": 51,
                "duration": 0.18409090909090509,
                "tempo": 120.0
            },
            {
                "start_time": 55.90454545454545,
                "end_time": 56.08863636363636,
                "pitch": 61,
                "velocity": 51,
                "duration": 0.1840909090909122,
                "tempo": 120.0
            },
            {
                "start_time": 56.10681818181818,
                "end_time": 56.29090909090909,
                "pitch": 59,
                "velocity": 51,
                "duration": 0.1840909090909122,
                "tempo": 120.0
            },
            {
                "start_time": 56.30681818181818,
                "end_time": 56.506818181818176,
                "pitch": 61,
                "velocity": 51,
                "duration": 0.19999999999999574,
                "tempo": 120.0
            },
            {
                "start_time": 56.525,
                "end_time": 56.709090909090904,
                "pitch": 59,
                "velocity": 51,
                "duration": 0.18409090909090509,
                "tempo": 120.0
            },
            {
                "start_time": 56.724999999999994,
                "end_time": 56.90909090909091,
                "pitch": 54,
                "velocity": 51,
                "duration": 0.1840909090909122,
                "tempo": 120.0
            },
            {
                "start_time": 56.92727272727272,
                "end_time": 57.11363636363636,
                "pitch": 66,
                "velocity": 51,
                "duration": 0.1863636363636374,
                "tempo": 120.0
            },
            {
                "start_time": 57.131818181818176,
                "end_time": 57.336363636363636,
                "pitch": 61,
                "velocity": 51,
                "duration": 0.20454545454546036,
                "tempo": 120.0
            },
            {
                "start_time": 57.35454545454545,
                "end_time": 57.54090909090909,
                "pitch": 58,
                "velocity": 51,
                "duration": 0.1863636363636374,
                "tempo": 120.0
            },
            {
                "start_time": 57.559090909090905,
                "end_time": 57.74772727272727,
                "pitch": 61,
                "velocity": 51,
                "duration": 0.1886363636363626,
                "tempo": 120.0
            },
            {
                "start_time": 57.76363636363636,
                "end_time": 57.95227272727272,
                "pitch": 58,
                "velocity": 51,
                "duration": 0.1886363636363626,
                "tempo": 120.0
            },
            {
                "start_time": 57.96818181818182,
                "end_time": 58.17272727272727,
                "pitch": 54,
                "velocity": 51,
                "duration": 0.20454545454545325,
                "tempo": 120.0
            },
            {
                "start_time": 58.18863636363636,
                "end_time": 58.37045454545454,
                "pitch": 66,
                "velocity": 51,
                "duration": 0.18181818181817988,
                "tempo": 120.0
            },
            {
                "start_time": 58.38636363636363,
                "end_time": 58.56818181818181,
                "pitch": 61,
                "velocity": 51,
                "duration": 0.18181818181817988,
                "tempo": 120.0
            },
            {
                "start_time": 58.586363636363636,
                "end_time": 58.768181818181816,
                "pitch": 58,
                "velocity": 51,
                "duration": 0.18181818181817988,
                "tempo": 120.0
            },
            {
                "start_time": 58.78636363636363,
                "end_time": 58.990909090909085,
                "pitch": 61,
                "velocity": 51,
                "duration": 0.20454545454545325,
                "tempo": 120.0
            },
            {
                "start_time": 59.00909090909091,
                "end_time": 59.195454545454545,
                "pitch": 58,
                "velocity": 51,
                "duration": 0.1863636363636374,
                "tempo": 120.0
            },
            {
                "start_time": 59.21363636363636,
                "end_time": 59.4,
                "pitch": 54,
                "velocity": 51,
                "duration": 0.1863636363636374,
                "tempo": 120.0
            }
        ],
        "Clarinet": [
            {
                "start_time": 0.00909090909090909,
                "end_time": 0.10909090909090909,
                "pitch": 66,
                "velocity": 51,
                "duration": 0.09999999999999999,
                "tempo": 120.0
            },
            {
                "start_time": 19.875,
                "end_time": 22.33863636363636,
                "pitch": 54,
                "velocity": 51,
                "duration": 2.463636363636361,
                "tempo": 120.0
            },
            {
                "start_time": 22.35681818181818,
                "end_time": 23.59090909090909,
                "pitch": 47,
                "velocity": 51,
                "duration": 1.2340909090909093,
                "tempo": 120.0
            },
            {
                "start_time": 23.60681818181818,
                "end_time": 24.409090909090907,
                "pitch": 50,
                "velocity": 51,
                "duration": 0.8022727272727259,
                "tempo": 120.0
            },
            {
                "start_time": 24.427272727272726,
                "end_time": 24.811363636363634,
                "pitch": 52,
                "velocity": 51,
                "duration": 0.38409090909090793,
                "tempo": 120.0
            },
            {
                "start_time": 24.827272727272724,
                "end_time": 27.284090909090907,
                "pitch": 54,
                "velocity": 51,
                "duration": 2.456818181818182,
                "tempo": 120.0
            },
            {
                "start_time": 27.299999999999997,
                "end_time": 28.534090909090907,
                "pitch": 47,
                "velocity": 51,
                "duration": 1.2340909090909093,
                "tempo": 120.0
            },
            {
                "start_time": 28.549999999999997,
                "end_time": 29.354545454545452,
                "pitch": 50,
                "velocity": 51,
                "duration": 0.8045454545454547,
                "tempo": 120.0
            },
            {
                "start_time": 29.370454545454542,
                "end_time": 29.754545454545454,
                "pitch": 59,
                "velocity": 51,
                "duration": 0.3840909090909115,
                "tempo": 120.0
            },
            {
                "start_time": 29.77272727272727,
                "end_time": 32.23863636363636,
                "pitch": 54,
                "velocity": 51,
                "duration": 2.46590909090909,
                "tempo": 120.0
            },
            {
                "start_time": 32.25454545454545,
                "end_time": 33.47727272727273,
                "pitch": 47,
                "velocity": 51,
                "duration": 1.2227272727272762,
                "tempo": 120.0
            },
            {
                "start_time": 33.49545454545454,
                "end_time": 34.304545454545455,
                "pitch": 50,
                "velocity": 51,
                "duration": 0.8090909090909122,
                "tempo": 120.0
            },
            {
                "start_time": 34.320454545454545,
                "end_time": 34.72727272727273,
                "pitch": 52,
                "velocity": 51,
                "duration": 0.4068181818181813,
                "tempo": 120.0
            },
            {
                "start_time": 34.74318181818182,
                "end_time": 37.19318181818181,
                "pitch": 49,
                "velocity": 51,
                "duration": 2.4499999999999957,
                "tempo": 120.0
            },
            {
                "start_time": 37.211363636363636,
                "end_time": 39.24772727272727,
                "pitch": 54,
                "velocity": 51,
                "duration": 2.0363636363636317,
                "tempo": 120.0
            },
            {
                "start_time": 39.26363636363636,
                "end_time": 39.668181818181814,
                "pitch": 42,
                "velocity": 51,
                "duration": 0.4045454545454561,
                "tempo": 120.0
            },
            {
                "start_time": 39.68636363636364,
                "end_time": 42.15,
                "pitch": 54,
                "velocity": 51,
                "duration": 2.463636363636361,
                "tempo": 120.0
            },
            {
                "start_time": 42.168181818181814,
                "end_time": 43.37272727272727,
                "pitch": 47,
                "velocity": 51,
                "duration": 1.2045454545454533,
                "tempo": 120.0
            },
            {
                "start_time": 43.38863636363636,
                "end_time": 43.99318181818182,
                "pitch": 50,
                "velocity": 51,
                "duration": 0.6045454545454589,
                "tempo": 120.0
            },
            {
                "start_time": 44.00909090909091,
                "end_time": 44.19772727272727,
                "pitch": 49,
                "velocity": 51,
                "duration": 0.1886363636363626,
                "tempo": 120.0
            },
            {
                "start_time": 44.215909090909086,
                "end_time": 44.42045454545455,
                "pitch": 50,
                "velocity": 51,
                "duration": 0.20454545454546036,
                "tempo": 120.0
            },
            {
                "start_time": 44.43636363636364,
                "end_time": 44.62272727272727,
                "pitch": 52,
                "velocity": 51,
                "duration": 0.1863636363636303,
                "tempo": 120.0
            },
            {
                "start_time": 44.63863636363636,
                "end_time": 47.09318181818182,
                "pitch": 54,
                "velocity": 51,
                "duration": 2.4545454545454604,
                "tempo": 120.0
            },
            {
                "start_time": 47.111363636363635,
                "end_time": 48.31590909090909,
                "pitch": 47,
                "velocity": 51,
                "duration": 1.2045454545454533,
                "tempo": 120.0
            },
            {
                "start_time": 48.33181818181818,
                "end_time": 48.93636363636364,
                "pitch": 50,
                "velocity": 51,
                "duration": 0.6045454545454589,
                "tempo": 120.0
            },
            {
                "start_time": 48.95454545454545,
                "end_time": 49.14090909090909,
                "pitch": 47,
                "velocity": 51,
                "duration": 0.1863636363636374,
                "tempo": 120.0
            },
            {
                "start_time": 49.15909090909091,
                "end_time": 49.36363636363636,
                "pitch": 50,
                "velocity": 51,
                "duration": 0.20454545454545325,
                "tempo": 120.0
            },
            {
                "start_time": 49.37954545454545,
                "end_time": 49.56818181818181,
                "pitch": 59,
                "velocity": 51,
                "duration": 0.1886363636363626,
                "tempo": 120.0
            },
            {
                "start_time": 49.586363636363636,
                "end_time": 52.05,
                "pitch": 54,
                "velocity": 51,
                "duration": 2.463636363636361,
                "tempo": 120.0
            },
            {
                "start_time": 52.06590909090909,
                "end_time": 53.29772727272727,
                "pitch": 47,
                "velocity": 51,
                "duration": 1.2318181818181841,
                "tempo": 120.0
            },
            {
                "start_time": 53.31363636363636,
                "end_time": 53.88636363636363,
                "pitch": 50,
                "velocity": 51,
                "duration": 0.5727272727272705,
                "tempo": 120.0
            },
            {
                "start_time": 53.90454545454545,
                "end_time": 54.10909090909091,
                "pitch": 49,
                "velocity": 51,
                "duration": 0.20454545454546036,
                "tempo": 120.0
            },
            {
                "start_time": 54.127272727272725,
                "end_time": 54.31363636363636,
                "pitch": 50,
                "velocity": 51,
                "duration": 0.1863636363636374,
                "tempo": 120.0
            },
            {
                "start_time": 54.33181818181818,
                "end_time": 54.51590909090909,
                "pitch": 52,
                "velocity": 51,
                "duration": 0.1840909090909122,
                "tempo": 120.0
            },
            {
                "start_time": 54.53409090909091,
                "end_time": 55.75454545454545,
                "pitch": 49,
                "velocity": 51,
                "duration": 1.220454545454544,
                "tempo": 120.0
            },
            {
                "start_time": 55.77045454545454,
                "end_time": 56.574999999999996,
                "pitch": 47,
                "velocity": 51,
                "duration": 0.8045454545454547,
                "tempo": 120.0
            },
            {
                "start_time": 56.590909090909086,
                "end_time": 56.97727272727273,
                "pitch": 49,
                "velocity": 51,
                "duration": 0.38636363636364024,
                "tempo": 120.0
            },
            {
                "start_time": 56.99545454545454,
                "end_time": 58.836363636363636,
                "pitch": 46,
                "velocity": 51,
                "duration": 1.8409090909090935,
                "tempo": 120.0
            },
            {
                "start_time": 58.85454545454545,
                "end_time": 59.059090909090905,
                "pitch": 54,
                "velocity": 51,
                "duration": 0.20454545454545325,
                "tempo": 120.0
            },
            {
                "start_time": 59.07727272727272,
                "end_time": 59.26363636363636,
                "pitch": 52,
                "velocity": 51,
                "duration": 0.1863636363636374,
                "tempo": 120.0
            },
            {
                "start_time": 59.28181818181818,
                "end_time": 59.465909090909086,
                "pitch": 50,
                "velocity": 51,
                "duration": 0.18409090909090509,
                "tempo": 120.0
            }
        ]
    }
}