{
    "track_id": "Zaxxon 3-D (FM) - 03 - Enemy_s Base",
    "mood": "angry",
    "instruments": {
        "Acoustic Bass": [
            {
                "start_time": 0.0,
                "end_time": 0.1659090909090909,
                "pitch": 35,
                "velocity": 64,
                "duration": 0.1659090909090909,
                "tempo": 120.0
            },
            {
                "start_time": 0.18409090909090908,
                "end_time": 0.2659090909090909,
                "pitch": 39,
                "velocity": 64,
                "duration": 0.08181818181818179,
                "tempo": 120.0
            },
            {
                "start_time": 0.28409090909090906,
                "end_time": 0.3659090909090909,
                "pitch": 39,
                "velocity": 64,
                "duration": 0.08181818181818185,
                "tempo": 120.0
            },
            {
                "start_time": 0.3840909090909091,
                "end_time": 0.4659090909090909,
                "pitch": 40,
                "velocity": 64,
                "duration": 0.08181818181818179,
                "tempo": 120.0
            },
            {
                "start_time": 0.4818181818181818,
                "end_time": 0.6613636363636364,
                "pitch": 35,
                "velocity": 64,
                "duration": 0.17954545454545456,
                "tempo": 120.0
            },
            {
                "start_time": 0.6772727272727272,
                "end_time": 0.859090909090909,
                "pitch": 35,
                "velocity": 64,
                "duration": 0.18181818181818177,
                "tempo": 120.0
            },
            {
                "start_time": 0.875,
                "end_time": 0.959090909090909,
                "pitch": 35,
                "velocity": 64,
                "duration": 0.084090909090909,
                "tempo": 120.0
            },
            {
                "start_time": 0.975,
                "end_time": 1.059090909090909,
                "pitch": 39,
                "velocity": 64,
                "duration": 0.0840909090909091,
                "tempo": 120.0
            },
            {
                "start_time": 1.075,
                "end_time": 1.159090909090909,
                "pitch": 35,
                "velocity": 64,
                "duration": 0.084090909090909,
                "tempo": 120.0
            },
            {
                "start_time": 1.175,
                "end_time": 1.2613636363636362,
                "pitch": 40,
                "velocity": 64,
                "duration": 0.0863636363636362,
                "tempo": 120.0
            },
            {
                "start_time": 1.2772727272727271,
                "end_time": 1.4659090909090908,
                "pitch": 35,
                "velocity": 64,
                "duration": 0.1886363636363637,
                "tempo": 120.0
            },
            {
                "start_time": 1.4840909090909091,
                "end_time": 1.5681818181818181,
                "pitch": 35,
                "velocity": 64,
                "duration": 0.084090909090909,
                "tempo": 120.0
            },
            {
                "start_time": 1.5863636363636362,
                "end_time": 1.7704545454545453,
                "pitch": 35,
                "velocity": 64,
                "duration": 0.18409090909090908,
                "tempo": 120.0
            },
            {
                "start_time": 1.7886363636363636,
                "end_time": 1.8704545454545454,
                "pitch": 39,
                "velocity": 64,
                "duration": 0.08181818181818179,
                "tempo": 120.0
            },
            {
                "start_time": 1.8886363636363634,
                "end_time": 1.9727272727272727,
                "pitch": 35,
                "velocity": 64,
                "duration": 0.08409090909090922,
                "tempo": 120.0
            },
            {
                "start_time": 1.9886363636363635,
                "end_time": 2.0704545454545453,
                "pitch": 40,
                "velocity": 64,
                "duration": 0.08181818181818179,
                "tempo": 120.0
            },
            {
                "start_time": 2.0863636363636364,
                "end_time": 2.2659090909090907,
                "pitch": 35,
                "velocity": 64,
                "duration": 0.17954545454545423,
                "tempo": 120.0
            },
            {
                "start_time": 2.284090909090909,
                "end_time": 2.3659090909090907,
                "pitch": 35,
                "velocity": 64,
                "duration": 0.08181818181818157,
                "tempo": 120.0
            },
            {
                "start_time": 2.381818181818182,
                "end_time": 2.565909090909091,
                "pitch": 35,
                "velocity": 64,
                "duration": 0.18409090909090908,
                "tempo": 120.0
            },
            {
                "start_time": 2.5818181818181816,
                "end_time": 2.6659090909090906,
                "pitch": 39,
                "velocity": 64,
                "duration": 0.084090909090909,
                "tempo": 120.0
            },
            {
                "start_time": 2.684090909090909,
                "end_time": 2.768181818181818,
                "pitch": 35,
                "velocity": 64,
                "duration": 0.084090909090909,
                "tempo": 120.0
            },
            {
                "start_time": 2.784090909090909,
                "end_time": 2.868181818181818,
                "pitch": 40,
                "velocity": 64,
                "duration": 0.084090909090909,
                "tempo": 120.0
            },
            {
                "start_time": 2.884090909090909,
                "end_time": 3.068181818181818,
                "pitch": 35,
                "velocity": 64,
                "duration": 0.18409090909090908,
                "tempo": 120.0
            },
            {
                "start_time": 3.084090909090909,
                "end_time": 3.168181818181818,
                "pitch": 35,
                "velocity": 64,
                "duration": 0.084090909090909,
                "tempo": 120.0
            },
            {
                "start_time": 3.184090909090909,
                "end_time": 3.3727272727272726,
                "pitch": 35,
                "velocity": 64,
                "duration": 0.1886363636363635,
                "tempo": 120.0
            },
            {
                "start_time": 3.3886363636363637,
                "end_time": 3.4749999999999996,
                "pitch": 39,
                "velocity": 64,
                "duration": 0.08636363636363598,
                "tempo": 120.0
            },
            {
                "start_time": 3.4909090909090907,
                "end_time": 3.577272727272727,
                "pitch": 35,
                "velocity": 64,
                "duration": 0.08636363636363642,
                "tempo": 120.0
            },
            {
                "start_time": 3.5954545454545452,
                "end_time": 3.6772727272727272,
                "pitch": 40,
                "velocity": 64,
                "duration": 0.08181818181818201,
                "tempo": 120.0
            },
            {
                "start_time": 3.693181818181818,
                "end_time": 3.8727272727272726,
                "pitch": 35,
                "velocity": 64,
                "duration": 0.17954545454545467,
                "tempo": 120.0
            },
            {
                "start_time": 3.8886363636363637,
                "end_time": 3.9704545454545452,
                "pitch": 35,
                "velocity": 64,
                "duration": 0.08181818181818157,
                "tempo": 120.0
            },
            {
                "start_time": 3.9863636363636363,
                "end_time": 4.170454545454545,
                "pitch": 35,
                "velocity": 64,
                "duration": 0.18409090909090864,
                "tempo": 120.0
            },
            {
                "start_time": 4.1886363636363635,
                "end_time": 4.2727272727272725,
                "pitch": 39,
                "velocity": 64,
                "duration": 0.084090909090909,
                "tempo": 120.0
            },
            {
                "start_time": 4.288636363636363,
                "end_time": 4.372727272727272,
                "pitch": 35,
                "velocity": 64,
                "duration": 0.084090909090909,
                "tempo": 120.0
            },
            {
                "start_time": 4.388636363636364,
                "end_time": 4.475,
                "pitch": 40,
                "velocity": 64,
                "duration": 0.08636363636363598,
                "tempo": 120.0
            },
            {
                "start_time": 4.49090909090909,
                "end_time": 4.679545454545455,
                "pitch": 35,
                "velocity": 64,
                "duration": 0.18863636363636438,
                "tempo": 120.0
            },
            {
                "start_time": 4.697727272727272,
                "end_time": 4.781818181818181,
                "pitch": 35,
                "velocity": 64,
                "duration": 0.084090909090909,
                "tempo": 120.0
            },
            {
                "start_time": 4.8,
                "end_time": 4.9840909090909085,
                "pitch": 35,
                "velocity": 64,
                "duration": 0.18409090909090864,
                "tempo": 120.0
            },
            {
                "start_time": 5.0,
                "end_time": 5.084090909090909,
                "pitch": 39,
                "velocity": 64,
                "duration": 0.084090909090909,
                "tempo": 120.0
            },
            {
                "start_time": 5.1,
                "end_time": 5.184090909090909,
                "pitch": 35,
                "velocity": 64,
                "duration": 0.084090909090909,
                "tempo": 120.0
            },
            {
                "start_time": 5.2,
                "end_time": 5.281818181818181,
                "pitch": 40,
                "velocity": 64,
                "duration": 0.08181818181818112,
                "tempo": 120.0
            },
            {
                "start_time": 5.297727272727273,
                "end_time": 5.477272727272727,
                "pitch": 35,
                "velocity": 64,
                "duration": 0.1795454545454538,
                "tempo": 120.0
            },
            {
                "start_time": 5.495454545454545,
                "end_time": 5.577272727272727,
                "pitch": 35,
                "velocity": 64,
                "duration": 0.08181818181818201,
                "tempo": 120.0
            },
            {
                "start_time": 5.593181818181818,
                "end_time": 5.7727272727272725,
                "pitch": 35,
                "velocity": 64,
                "duration": 0.17954545454545467,
                "tempo": 120.0
            },
            {
                "start_time": 5.788636363636363,
                "end_time": 5.870454545454545,
                "pitch": 39,
                "velocity": 64,
                "duration": 0.08181818181818201,
                "tempo": 120.0
            },
            {
                "start_time": 5.886363636363636,
                "end_time": 5.968181818181818,
                "pitch": 35,
                "velocity": 64,
                "duration": 0.08181818181818201,
                "tempo": 120.0
            },
            {
                "start_time": 5.9840909090909085,
                "end_time": 6.070454545454545,
                "pitch": 40,
                "velocity": 64,
                "duration": 0.08636363636363686,
                "tempo": 120.0
            },
            {
                "start_time": 6.086363636363636,
                "end_time": 6.2749999999999995,
                "pitch": 35,
                "velocity": 64,
                "duration": 0.1886363636363635,
                "tempo": 120.0
            },
            {
                "start_time": 6.293181818181818,
                "end_time": 6.379545454545454,
                "pitch": 35,
                "velocity": 64,
                "duration": 0.08636363636363598,
                "tempo": 120.0
            },
            {
                "start_time": 6.3954545454545455,
                "end_time": 6.584090909090909,
                "pitch": 40,
                "velocity": 64,
                "duration": 0.1886363636363635,
                "tempo": 120.0
            },
            {
                "start_time": 6.6,
                "end_time": 6.686363636363636,
                "pitch": 44,
                "velocity": 64,
                "duration": 0.08636363636363598,
                "tempo": 120.0
            },
            {
                "start_time": 6.704545454545454,
                "end_time": 6.788636363636363,
                "pitch": 40,
                "velocity": 64,
                "duration": 0.084090909090909,
                "tempo": 120.0
            },
            {
                "start_time": 6.806818181818182,
                "end_time": 6.888636363636364,
                "pitch": 45,
                "velocity": 64,
                "duration": 0.08181818181818201,
                "tempo": 120.0
            },
            {
                "start_time": 6.904545454545454,
                "end_time": 7.084090909090909,
                "pitch": 40,
                "velocity": 64,
                "duration": 0.17954545454545467,
                "tempo": 120.0
            },
            {
                "start_time": 7.1,
                "end_time": 7.181818181818182,
                "pitch": 40,
                "velocity": 64,
                "duration": 0.08181818181818201,
                "tempo": 120.0
            },
            {
                "start_time": 7.199999999999999,
                "end_time": 7.281818181818181,
                "pitch": 40,
                "velocity": 64,
                "duration": 0.08181818181818201,
                "tempo": 120.0
            },
            {
                "start_time": 7.3,
                "end_time": 7.384090909090909,
                "pitch": 40,
                "velocity": 64,
                "duration": 0.084090909090909,
                "tempo": 120.0
            },
            {
                "start_time": 7.3999999999999995,
                "end_time": 7.4840909090909085,
                "pitch": 45,
                "velocity": 64,
                "duration": 0.084090909090909,
                "tempo": 120.0
            },
            {
                "start_time": 7.5,
                "end_time": 7.584090909090909,
                "pitch": 40,
                "velocity": 64,
                "duration": 0.084090909090909,
                "tempo": 120.0
            },
            {
                "start_time": 7.602272727272727,
                "end_time": 7.686363636363636,
                "pitch": 46,
                "velocity": 64,
                "duration": 0.084090909090909,
                "tempo": 120.0
            },
            {
                "start_time": 7.704545454545454,
                "end_time": 7.995454545454545,
                "pitch": 40,
                "velocity": 64,
                "duration": 0.290909090909091,
                "tempo": 120.0
            },
            {
                "start_time": 8.011363636363637,
                "end_time": 8.197727272727272,
                "pitch": 40,
                "velocity": 64,
                "duration": 0.18636363636363562,
                "tempo": 120.0
            },
            {
                "start_time": 8.213636363636363,
                "end_time": 8.297727272727272,
                "pitch": 44,
                "velocity": 64,
                "duration": 0.084090909090909,
                "tempo": 120.0
            },
            {
                "start_time": 8.313636363636363,
                "end_time": 8.397727272727272,
                "pitch": 40,
                "velocity": 64,
                "duration": 0.084090909090909,
                "tempo": 120.0
            },
            {
                "start_time": 8.415909090909091,
                "end_time": 8.497727272727273,
                "pitch": 45,
                "velocity": 64,
                "duration": 0.08181818181818201,
                "tempo": 120.0
            },
            {
                "start_time": 8.513636363636364,
                "end_time": 8.693181818181818,
                "pitch": 40,
                "velocity": 64,
                "duration": 0.17954545454545467,
                "tempo": 120.0
            },
            {
                "start_time": 8.709090909090909,
                "end_time": 8.790909090909091,
                "pitch": 40,
                "velocity": 64,
                "duration": 0.08181818181818201,
                "tempo": 120.0
            },
            {
                "start_time": 8.806818181818182,
                "end_time": 8.89090909090909,
                "pitch": 40,
                "velocity": 64,
                "duration": 0.084090909090909,
                "tempo": 120.0
            },
            {
                "start_time": 8.906818181818181,
                "end_time": 8.99090909090909,
                "pitch": 40,
                "velocity": 64,
                "duration": 0.084090909090909,
                "tempo": 120.0
            },
            {
                "start_time": 9.006818181818181,
                "end_time": 9.09090909090909,
                "pitch": 45,
                "velocity": 64,
                "duration": 0.084090909090909,
                "tempo": 120.0
            },
            {
                "start_time": 9.10681818181818,
                "end_time": 9.19090909090909,
                "pitch": 40,
                "velocity": 64,
                "duration": 0.084090909090909,
                "tempo": 120.0
            },
            {
                "start_time": 9.206818181818182,
                "end_time": 9.290909090909091,
                "pitch": 46,
                "velocity": 64,
                "duration": 0.084090909090909,
                "tempo": 120.0
            },
            {
                "start_time": 9.309090909090909,
                "end_time": 9.593181818181817,
                "pitch": 40,
                "velocity": 64,
                "duration": 0.2840909090909083,
                "tempo": 120.0
            },
            {
                "start_time": 9.60909090909091,
                "end_time": 9.797727272727272,
                "pitch": 40,
                "velocity": 64,
                "duration": 0.1886363636363626,
                "tempo": 120.0
            },
            {
                "start_time": 9.81590909090909,
                "end_time": 9.9,
                "pitch": 44,
                "velocity": 64,
                "duration": 0.08409090909091077,
                "tempo": 120.0
            },
            {
                "start_time": 9.918181818181818,
                "end_time": 10.004545454545454,
                "pitch": 40,
                "velocity": 64,
                "duration": 0.08636363636363598,
                "tempo": 120.0
            },
            {
                "start_time": 10.020454545454545,
                "end_time": 10.102272727272727,
                "pitch": 45,
                "velocity": 64,
                "duration": 0.08181818181818201,
                "tempo": 120.0
            },
            {
                "start_time": 10.118181818181817,
                "end_time": 10.297727272727272,
                "pitch": 40,
                "velocity": 64,
                "duration": 0.17954545454545467,
                "tempo": 120.0
            },
            {
                "start_time": 10.31590909090909,
                "end_time": 10.397727272727272,
                "pitch": 40,
                "velocity": 64,
                "duration": 0.08181818181818201,
                "tempo": 120.0
            },
            {
                "start_time": 10.413636363636362,
                "end_time": 10.497727272727273,
                "pitch": 40,
                "velocity": 64,
                "duration": 0.08409090909091077,
                "tempo": 120.0
            },
            {
                "start_time": 10.513636363636364,
                "end_time": 10.597727272727273,
                "pitch": 40,
                "velocity": 64,
                "duration": 0.084090909090909,
                "tempo": 120.0
            },
            {
                "start_time": 10.613636363636363,
                "end_time": 10.697727272727272,
                "pitch": 45,
                "velocity": 64,
                "duration": 0.084090909090909,
                "tempo": 120.0
            },
            {
                "start_time": 10.71590909090909,
                "end_time": 10.797727272727272,
                "pitch": 40,
                "velocity": 64,
                "duration": 0.08181818181818201,
                "tempo": 120.0
            },
            {
                "start_time": 10.81590909090909,
                "end_time": 10.9,
                "pitch": 46,
                "velocity": 64,
                "duration": 0.08409090909091077,
                "tempo": 120.0
            },
            {
                "start_time": 10.918181818181818,
                "end_time": 11.209090909090909,
                "pitch": 40,
                "velocity": 64,
                "duration": 0.290909090909091,
                "tempo": 120.0
            },
            {
                "start_time": 11.227272727272727,
                "end_time": 11.409090909090908,
                "pitch": 40,
                "velocity": 64,
                "duration": 0.18181818181818166,
                "tempo": 120.0
            },
            {
                "start_time": 11.427272727272726,
                "end_time": 11.509090909090908,
                "pitch": 44,
                "velocity": 64,
                "duration": 0.08181818181818201,
                "tempo": 120.0
            },
            {
                "start_time": 11.527272727272727,
                "end_time": 11.60909090909091,
                "pitch": 40,
                "velocity": 64,
                "duration": 0.08181818181818201,
                "tempo": 120.0
            },
            {
                "start_time": 11.627272727272727,
                "end_time": 11.709090909090909,
                "pitch": 45,
                "velocity": 64,
                "duration": 0.08181818181818201,
                "tempo": 120.0
            },
            {
                "start_time": 11.725,
                "end_time": 11.904545454545454,
                "pitch": 40,
                "velocity": 64,
                "duration": 0.17954545454545467,
                "tempo": 120.0
            },
            {
                "start_time": 11.920454545454545,
                "end_time": 12.002272727272727,
                "pitch": 40,
                "velocity": 64,
                "duration": 0.08181818181818201,
                "tempo": 120.0
            },
            {
                "start_time": 12.018181818181818,
                "end_time": 12.102272727272727,
                "pitch": 40,
                "velocity": 64,
                "duration": 0.084090909090909,
                "tempo": 120.0
            },
            {
                "start_time": 12.120454545454544,
                "end_time": 12.202272727272726,
                "pitch": 40,
                "velocity": 64,
                "duration": 0.08181818181818201,
                "tempo": 120.0
            },
            {
                "start_time": 12.220454545454546,
                "end_time": 12.304545454545455,
                "pitch": 45,
                "velocity": 64,
                "duration": 0.084090909090909,
                "tempo": 120.0
            },
            {
                "start_time": 12.320454545454545,
                "end_time": 12.404545454545454,
                "pitch": 40,
                "velocity": 64,
                "duration": 0.084090909090909,
                "tempo": 120.0
            },
            {
                "start_time": 12.420454545454545,
                "end_time": 12.504545454545454,
                "pitch": 46,
                "velocity": 64,
                "duration": 0.084090909090909,
                "tempo": 120.0
            },
            {
                "start_time": 12.522727272727272,
                "end_time": 12.806818181818182,
                "pitch": 40,
                "velocity": 64,
                "duration": 0.28409090909091006,
                "tempo": 120.0
            },
            {
                "start_time": 12.825,
                "end_time": 13.011363636363635,
                "pitch": 39,
                "velocity": 64,
                "duration": 0.18636363636363562,
                "tempo": 120.0
            },
            {
                "start_time": 13.029545454545454,
                "end_time": 13.11590909090909,
                "pitch": 42,
                "velocity": 64,
                "duration": 0.08636363636363598,
                "tempo": 120.0
            },
            {
                "start_time": 13.131818181818181,
                "end_time": 13.218181818181817,
                "pitch": 39,
                "velocity": 64,
                "duration": 0.08636363636363598,
                "tempo": 120.0
            },
            {
                "start_time": 13.234090909090908,
                "end_time": 13.31590909090909,
                "pitch": 44,
                "velocity": 64,
                "duration": 0.08181818181818201,
                "tempo": 120.0
            },
            {
                "start_time": 13.334090909090909,
                "end_time": 13.513636363636364,
                "pitch": 39,
                "velocity": 64,
                "duration": 0.17954545454545467,
                "tempo": 120.0
            },
            {
                "start_time": 13.529545454545454,
                "end_time": 13.611363636363636,
                "pitch": 39,
                "velocity": 64,
                "duration": 0.08181818181818201,
                "tempo": 120.0
            },
            {
                "start_time": 13.627272727272727,
                "end_time": 13.711363636363636,
                "pitch": 39,
                "velocity": 64,
                "duration": 0.084090909090909,
                "tempo": 120.0
            },
            {
                "start_time": 13.727272727272727,
                "end_time": 13.811363636363636,
                "pitch": 39,
                "velocity": 64,
                "duration": 0.084090909090909,
                "tempo": 120.0
            },
            {
                "start_time": 13.827272727272726,
                "end_time": 13.911363636363635,
                "pitch": 42,
                "velocity": 64,
                "duration": 0.084090909090909,
                "tempo": 120.0
            },
            {
                "start_time": 13.929545454545455,
                "end_time": 14.013636363636364,
                "pitch": 39,
                "velocity": 64,
                "duration": 0.084090909090909,
                "tempo": 120.0
            },
            {
                "start_time": 14.029545454545454,
                "end_time": 14.11590909090909,
                "pitch": 44,
                "velocity": 64,
                "duration": 0.08636363636363598,
                "tempo": 120.0
            },
            {
                "start_time": 14.131818181818181,
                "end_time": 14.422727272727272,
                "pitch": 39,
                "velocity": 64,
                "duration": 0.290909090909091,
                "tempo": 120.0
            },
            {
                "start_time": 14.44090909090909,
                "end_time": 14.625,
                "pitch": 39,
                "velocity": 64,
                "duration": 0.18409090909091042,
                "tempo": 120.0
            },
            {
                "start_time": 14.64090909090909,
                "end_time": 14.725,
                "pitch": 42,
                "velocity": 64,
                "duration": 0.084090909090909,
                "tempo": 120.0
            },
            {
                "start_time": 14.743181818181817,
                "end_time": 14.827272727272726,
                "pitch": 39,
                "velocity": 64,
                "duration": 0.084090909090909,
                "tempo": 120.0
            },
            {
                "start_time": 14.843181818181817,
                "end_time": 14.924999999999999,
                "pitch": 44,
                "velocity": 64,
                "duration": 0.08181818181818201,
                "tempo": 120.0
            },
            {
                "start_time": 14.94090909090909,
                "end_time": 15.120454545454544,
                "pitch": 39,
                "velocity": 64,
                "duration": 0.17954545454545467,
                "tempo": 120.0
            },
            {
                "start_time": 15.138636363636364,
                "end_time": 15.220454545454544,
                "pitch": 39,
                "velocity": 64,
                "duration": 0.08181818181818024,
                "tempo": 120.0
            },
            {
                "start_time": 15.236363636363636,
                "end_time": 15.320454545454545,
                "pitch": 39,
                "velocity": 64,
                "duration": 0.084090909090909,
                "tempo": 120.0
            },
            {
                "start_time": 15.336363636363636,
                "end_time": 15.420454545454545,
                "pitch": 39,
                "velocity": 64,
                "duration": 0.084090909090909,
                "tempo": 120.0
            },
            {
                "start_time": 15.436363636363636,
                "end_time": 15.520454545454545,
                "pitch": 42,
                "velocity": 64,
                "duration": 0.084090909090909,
                "tempo": 120.0
            },
            {
                "start_time": 15.538636363636362,
                "end_time": 15.620454545454544,
                "pitch": 39,
                "velocity": 64,
                "duration": 0.08181818181818201,
                "tempo": 120.0
            },
            {
                "start_time": 15.638636363636364,
                "end_time": 15.722727272727273,
                "pitch": 44,
                "velocity": 64,
                "duration": 0.084090909090909,
                "tempo": 120.0
            },
            {
                "start_time": 15.738636363636363,
                "end_time": 16.025,
                "pitch": 39,
                "velocity": 64,
                "duration": 0.28636363636363527,
                "tempo": 120.0
            },
            {
                "start_time": 16.04090909090909,
                "end_time": 16.229545454545455,
                "pitch": 39,
                "velocity": 64,
                "duration": 0.18863636363636616,
                "tempo": 120.0
            },
            {
                "start_time": 16.245454545454546,
                "end_time": 16.331818181818182,
                "pitch": 42,
                "velocity": 64,
                "duration": 0.08636363636363598,
                "tempo": 120.0
            },
            {
                "start_time": 16.347727272727273,
                "end_time": 16.43409090909091,
                "pitch": 39,
                "velocity": 64,
                "duration": 0.08636363636363598,
                "tempo": 120.0
            },
            {
                "start_time": 16.452272727272728,
                "end_time": 16.53409090909091,
                "pitch": 44,
                "velocity": 64,
                "duration": 0.08181818181818201,
                "tempo": 120.0
            },
            {
                "start_time": 16.55,
                "end_time": 16.729545454545455,
                "pitch": 39,
                "velocity": 64,
                "duration": 0.17954545454545467,
                "tempo": 120.0
            },
            {
                "start_time": 16.745454545454546,
                "end_time": 16.827272727272728,
                "pitch": 39,
                "velocity": 64,
                "duration": 0.08181818181818201,
                "tempo": 120.0
            },
            {
                "start_time": 16.84318181818182,
                "end_time": 16.927272727272726,
                "pitch": 39,
                "velocity": 64,
                "duration": 0.08409090909090722,
                "tempo": 120.0
            },
            {
                "start_time": 16.943181818181817,
                "end_time": 17.027272727272727,
                "pitch": 39,
                "velocity": 64,
                "duration": 0.08409090909091077,
                "tempo": 120.0
            },
            {
                "start_time": 17.043181818181818,
                "end_time": 17.127272727272725,
                "pitch": 42,
                "velocity": 64,
                "duration": 0.08409090909090722,
                "tempo": 120.0
            },
            {
                "start_time": 17.143181818181816,
                "end_time": 17.227272727272727,
                "pitch": 39,
                "velocity": 64,
                "duration": 0.08409090909091077,
                "tempo": 120.0
            },
            {
                "start_time": 17.243181818181817,
                "end_time": 17.329545454545453,
                "pitch": 44,
                "velocity": 64,
                "duration": 0.08636363636363598,
                "tempo": 120.0
            },
            {
                "start_time": 17.345454545454544,
                "end_time": 17.636363636363637,
                "pitch": 39,
                "velocity": 64,
                "duration": 0.2909090909090928,
                "tempo": 120.0
            },
            {
                "start_time": 17.654545454545453,
                "end_time": 17.83863636363636,
                "pitch": 39,
                "velocity": 64,
                "duration": 0.18409090909090864,
                "tempo": 120.0
            },
            {
                "start_time": 17.85681818181818,
                "end_time": 17.94090909090909,
                "pitch": 42,
                "velocity": 64,
                "duration": 0.08409090909091077,
                "tempo": 120.0
            },
            {
                "start_time": 17.956818181818182,
                "end_time": 18.04090909090909,
                "pitch": 39,
                "velocity": 64,
                "duration": 0.08409090909090722,
                "tempo": 120.0
            },
            {
                "start_time": 18.05681818181818,
                "end_time": 18.138636363636362,
                "pitch": 44,
                "velocity": 64,
                "duration": 0.08181818181818201,
                "tempo": 120.0
            },
            {
                "start_time": 18.154545454545453,
                "end_time": 18.336363636363636,
                "pitch": 39,
                "velocity": 64,
                "duration": 0.18181818181818343,
                "tempo": 120.0
            },
            {
                "start_time": 18.352272727272727,
                "end_time": 18.43409090909091,
                "pitch": 39,
                "velocity": 64,
                "duration": 0.08181818181818201,
                "tempo": 120.0
            },
            {
                "start_time": 18.45,
                "end_time": 18.534090909090907,
                "pitch": 39,
                "velocity": 64,
                "duration": 0.08409090909090722,
                "tempo": 120.0
            },
            {
                "start_time": 18.55,
                "end_time": 18.634090909090908,
                "pitch": 39,
                "velocity": 64,
                "duration": 0.08409090909090722,
                "tempo": 120.0
            },
            {
                "start_time": 18.65,
                "end_time": 18.73409090909091,
                "pitch": 42,
                "velocity": 64,
                "duration": 0.08409090909091077,
                "tempo": 120.0
            },
            {
                "start_time": 18.752272727272725,
                "end_time": 18.836363636363636,
                "pitch": 39,
                "velocity": 64,
                "duration": 0.08409090909091077,
                "tempo": 120.0
            },
            {
                "start_time": 18.852272727272727,
                "end_time": 18.936363636363634,
                "pitch": 44,
                "velocity": 64,
                "duration": 0.08409090909090722,
                "tempo": 120.0
            },
            {
                "start_time": 18.952272727272728,
                "end_time": 19.236363636363635,
                "pitch": 39,
                "velocity": 64,
                "duration": 0.2840909090909065,
                "tempo": 120.0
            },
            {
                "start_time": 19.252272727272725,
                "end_time": 19.336363636363636,
                "pitch": 35,
                "velocity": 64,
                "duration": 0.08409090909091077,
                "tempo": 120.0
            },
            {
                "start_time": 19.354545454545452,
                "end_time": 19.44090909090909,
                "pitch": 41,
                "velocity": 64,
                "duration": 0.08636363636363953,
                "tempo": 120.0
            },
            {
                "start_time": 19.456818181818182,
                "end_time": 19.543181818181818,
                "pitch": 42,
                "velocity": 64,
                "duration": 0.08636363636363598,
                "tempo": 120.0
            },
            {
                "start_time": 19.55909090909091,
                "end_time": 19.645454545454545,
                "pitch": 35,
                "velocity": 64,
                "duration": 0.08636363636363598,
                "tempo": 120.0
            },
            {
                "start_time": 19.663636363636364,
                "end_time": 19.74772727272727,
                "pitch": 41,
                "velocity": 64,
                "duration": 0.08409090909090722,
                "tempo": 120.0
            },
            {
                "start_time": 19.763636363636362,
                "end_time": 19.847727272727273,
                "pitch": 42,
                "velocity": 64,
                "duration": 0.08409090909091077,
                "tempo": 120.0
            },
            {
                "start_time": 19.863636363636363,
                "end_time": 19.94772727272727,
                "pitch": 44,
                "velocity": 64,
                "duration": 0.08409090909090722,
                "tempo": 120.0
            },
            {
                "start_time": 19.96590909090909,
                "end_time": 20.05,
                "pitch": 43,
                "velocity": 64,
                "duration": 0.08409090909091077,
                "tempo": 120.0
            },
            {
                "start_time": 20.06590909090909,
                "end_time": 20.15,
                "pitch": 42,
                "velocity": 64,
                "duration": 0.08409090909090722,
                "tempo": 120.0
            },
            {
                "start_time": 20.16590909090909,
                "end_time": 20.25,
                "pitch": 41,
                "velocity": 64,
                "duration": 0.08409090909091077,
                "tempo": 120.0
            },
            {
                "start_time": 20.26590909090909,
                "end_time": 20.349999999999998,
                "pitch": 40,
                "velocity": 64,
                "duration": 0.08409090909090722,
                "tempo": 120.0
            },
            {
                "start_time": 20.36590909090909,
                "end_time": 20.45,
                "pitch": 39,
                "velocity": 64,
                "duration": 0.08409090909091077,
                "tempo": 120.0
            },
            {
                "start_time": 20.46590909090909,
                "end_time": 20.55,
                "pitch": 35,
                "velocity": 64,
                "duration": 0.08409090909091077,
                "tempo": 120.0
            },
            {
                "start_time": 20.56590909090909,
                "end_time": 20.65,
                "pitch": 41,
                "velocity": 64,
                "duration": 0.08409090909090722,
                "tempo": 120.0
            },
            {
                "start_time": 20.66590909090909,
                "end_time": 20.75,
                "pitch": 42,
                "velocity": 64,
                "duration": 0.08409090909091077,
                "tempo": 120.0
            },
            {
                "start_time": 20.76590909090909,
                "end_time": 20.849999999999998,
                "pitch": 35,
                "velocity": 64,
                "duration": 0.08409090909090722,
                "tempo": 120.0
            },
            {
                "start_time": 20.86590909090909,
                "end_time": 20.95,
                "pitch": 41,
                "velocity": 64,
                "duration": 0.08409090909091077,
                "tempo": 120.0
            },
            {
                "start_time": 20.96590909090909,
                "end_time": 21.05,
                "pitch": 42,
                "velocity": 64,
                "duration": 0.08409090909091077,
                "tempo": 120.0
            },
            {
                "start_time": 21.068181818181817,
                "end_time": 21.15,
                "pitch": 44,
                "velocity": 64,
                "duration": 0.08181818181818201,
                "tempo": 120.0
            },
            {
                "start_time": 21.168181818181818,
                "end_time": 21.252272727272725,
                "pitch": 43,
                "velocity": 64,
                "duration": 0.08409090909090722,
                "tempo": 120.0
            },
            {
                "start_time": 21.268181818181816,
                "end_time": 21.352272727272727,
                "pitch": 42,
                "velocity": 64,
                "duration": 0.08409090909091077,
                "tempo": 120.0
            },
            {
                "start_time": 21.368181818181817,
                "end_time": 21.452272727272724,
                "pitch": 41,
                "velocity": 64,
                "duration": 0.08409090909090722,
                "tempo": 120.0
            },
            {
                "start_time": 21.46818181818182,
                "end_time": 21.552272727272726,
                "pitch": 40,
                "velocity": 64,
                "duration": 0.08409090909090722,
                "tempo": 120.0
            },
            {
                "start_time": 21.568181818181817,
                "end_time": 21.652272727272727,
                "pitch": 39,
                "velocity": 64,
                "duration": 0.08409090909091077,
                "tempo": 120.0
            },
            {
                "start_time": 21.668181818181818,
                "end_time": 21.852272727272727,
                "pitch": 35,
                "velocity": 64,
                "duration": 0.18409090909090864,
                "tempo": 120.0
            },
            {
                "start_time": 21.870454545454546,
                "end_time": 21.954545454545453,
                "pitch": 39,
                "velocity": 64,
                "duration": 0.08409090909090722,
                "tempo": 120.0
            },
            {
                "start_time": 21.970454545454544,
                "end_time": 22.054545454545455,
                "pitch": 39,
                "velocity": 64,
                "duration": 0.08409090909091077,
                "tempo": 120.0
            },
            {
                "start_time": 22.070454545454545,
                "end_time": 22.152272727272727,
                "pitch": 40,
                "velocity": 64,
                "duration": 0.08181818181818201,
                "tempo": 120.0
            },
            {
                "start_time": 22.170454545454543,
                "end_time": 22.349999999999998,
                "pitch": 35,
                "velocity": 64,
                "duration": 0.17954545454545467,
                "tempo": 120.0
            },
            {
                "start_time": 22.36590909090909,
                "end_time": 22.547727272727272,
                "pitch": 35,
                "velocity": 64,
                "duration": 0.18181818181818343,
                "tempo": 120.0
            },
            {
                "start_time": 22.563636363636363,
                "end_time": 22.647727272727273,
                "pitch": 35,
                "velocity": 64,
                "duration": 0.08409090909091077,
                "tempo": 120.0
            },
            {
                "start_time": 22.663636363636364,
                "end_time": 22.74772727272727,
                "pitch": 39,
                "velocity": 64,
                "duration": 0.08409090909090722,
                "tempo": 120.0
            },
            {
                "start_time": 22.76590909090909,
                "end_time": 22.849999999999998,
                "pitch": 35,
                "velocity": 64,
                "duration": 0.08409090909090722,
                "tempo": 120.0
            },
            {
                "start_time": 22.86590909090909,
                "end_time": 22.952272727272724,
                "pitch": 40,
                "velocity": 64,
                "duration": 0.08636363636363598,
                "tempo": 120.0
            },
            {
                "start_time": 22.96818181818182,
                "end_time": 23.15681818181818,
                "pitch": 35,
                "velocity": 64,
                "duration": 0.1886363636363626,
                "tempo": 120.0
            },
            {
                "start_time": 23.174999999999997,
                "end_time": 23.259090909090908,
                "pitch": 35,
                "velocity": 64,
                "duration": 0.08409090909091077,
                "tempo": 120.0
            },
            {
                "start_time": 23.277272727272727,
                "end_time": 23.456818181818182,
                "pitch": 35,
                "velocity": 64,
                "duration": 0.17954545454545467,
                "tempo": 120.0
            },
            {
                "start_time": 23.472727272727273,
                "end_time": 23.554545454545455,
                "pitch": 39,
                "velocity": 64,
                "duration": 0.08181818181818201,
                "tempo": 120.0
            },
            {
                "start_time": 23.570454545454545,
                "end_time": 23.652272727272727,
                "pitch": 35,
                "velocity": 64,
                "duration": 0.08181818181818201,
                "tempo": 120.0
            },
            {
                "start_time": 23.668181818181818,
                "end_time": 23.752272727272725,
                "pitch": 40,
                "velocity": 64,
                "duration": 0.08409090909090722,
                "tempo": 120.0
            },
            {
                "start_time": 23.768181818181816,
                "end_time": 23.952272727272724,
                "pitch": 35,
                "velocity": 64,
                "duration": 0.18409090909090864,
                "tempo": 120.0
            },
            {
                "start_time": 23.96818181818182,
                "end_time": 24.052272727272726,
                "pitch": 35,
                "velocity": 64,
                "duration": 0.08409090909090722,
                "tempo": 120.0
            },
            {
                "start_time": 24.068181818181817,
                "end_time": 24.24772727272727,
                "pitch": 35,
                "velocity": 64,
                "duration": 0.17954545454545467,
                "tempo": 120.0
            },
            {
                "start_time": 24.26590909090909,
                "end_time": 24.347727272727273,
                "pitch": 39,
                "velocity": 64,
                "duration": 0.08181818181818201,
                "tempo": 120.0
            },
            {
                "start_time": 24.363636363636363,
                "end_time": 24.445454545454545,
                "pitch": 35,
                "velocity": 64,
                "duration": 0.08181818181818201,
                "tempo": 120.0
            },
            {
                "start_time": 24.461363636363636,
                "end_time": 24.545454545454543,
                "pitch": 40,
                "velocity": 64,
                "duration": 0.08409090909090722,
                "tempo": 120.0
            },
            {
                "start_time": 24.563636363636363,
                "end_time": 24.752272727272725,
                "pitch": 35,
                "velocity": 64,
                "duration": 0.1886363636363626,
                "tempo": 120.0
            },
            {
                "start_time": 24.768181818181816,
                "end_time": 24.854545454545452,
                "pitch": 35,
                "velocity": 64,
                "duration": 0.08636363636363598,
                "tempo": 120.0
            },
            {
                "start_time": 24.87272727272727,
                "end_time": 25.05909090909091,
                "pitch": 35,
                "velocity": 64,
                "duration": 0.1863636363636374,
                "tempo": 120.0
            },
            {
                "start_time": 25.077272727272724,
                "end_time": 25.163636363636364,
                "pitch": 39,
                "velocity": 64,
                "duration": 0.08636363636363953,
                "tempo": 120.0
            },
            {
                "start_time": 25.179545454545455,
                "end_time": 25.26590909090909,
                "pitch": 35,
                "velocity": 64,
                "duration": 0.08636363636363598,
                "tempo": 120.0
            },
            {
                "start_time": 25.28181818181818,
                "end_time": 25.363636363636363,
                "pitch": 40,
                "velocity": 64,
                "duration": 0.08181818181818201,
                "tempo": 120.0
            },
            {
                "start_time": 25.38181818181818,
                "end_time": 25.561363636363634,
                "pitch": 35,
                "velocity": 64,
                "duration": 0.17954545454545467,
                "tempo": 120.0
            },
            {
                "start_time": 25.577272727272724,
                "end_time": 25.659090909090907,
                "pitch": 35,
                "velocity": 64,
                "duration": 0.08181818181818201,
                "tempo": 120.0
            },
            {
                "start_time": 25.674999999999997,
                "end_time": 25.863636363636363,
                "pitch": 35,
                "velocity": 64,
                "duration": 0.18863636363636616,
                "tempo": 120.0
            },
            {
                "start_time": 25.879545454545454,
                "end_time": 25.96590909090909,
                "pitch": 39,
                "velocity": 64,
                "duration": 0.08636363636363598,
                "tempo": 120.0
            },
            {
                "start_time": 25.98181818181818,
                "end_time": 26.068181818181817,
                "pitch": 35,
                "velocity": 64,
                "duration": 0.08636363636363598,
                "tempo": 120.0
            },
            {
                "start_time": 26.086363636363636,
                "end_time": 26.168181818181818,
                "pitch": 40,
                "velocity": 64,
                "duration": 0.08181818181818201,
                "tempo": 120.0
            },
            {
                "start_time": 26.186363636363634,
                "end_time": 26.368181818181817,
                "pitch": 35,
                "velocity": 64,
                "duration": 0.18181818181818343,
                "tempo": 120.0
            },
            {
                "start_time": 26.386363636363637,
                "end_time": 26.468181818181815,
                "pitch": 35,
                "velocity": 64,
                "duration": 0.08181818181817846,
                "tempo": 120.0
            },
            {
                "start_time": 26.486363636363635,
                "end_time": 26.668181818181818,
                "pitch": 35,
                "velocity": 64,
                "duration": 0.18181818181818343,
                "tempo": 120.0
            },
            {
                "start_time": 26.686363636363634,
                "end_time": 26.768181818181816,
                "pitch": 39,
                "velocity": 64,
                "duration": 0.08181818181818201,
                "tempo": 120.0
            },
            {
                "start_time": 26.786363636363635,
                "end_time": 26.868181818181817,
                "pitch": 35,
                "velocity": 64,
                "duration": 0.08181818181818201,
                "tempo": 120.0
            },
            {
                "start_time": 26.886363636363637,
                "end_time": 26.968181818181815,
                "pitch": 40,
                "velocity": 64,
                "duration": 0.08181818181817846,
                "tempo": 120.0
            },
            {
                "start_time": 26.98409090909091,
                "end_time": 27.163636363636364,
                "pitch": 35,
                "velocity": 64,
                "duration": 0.17954545454545467,
                "tempo": 120.0
            },
            {
                "start_time": 27.179545454545455,
                "end_time": 27.261363636363637,
                "pitch": 35,
                "velocity": 64,
                "duration": 0.08181818181818201,
                "tempo": 120.0
            },
            {
                "start_time": 27.277272727272727,
                "end_time": 27.461363636363636,
                "pitch": 35,
                "velocity": 64,
                "duration": 0.18409090909090864,
                "tempo": 120.0
            },
            {
                "start_time": 27.479545454545452,
                "end_time": 27.563636363636363,
                "pitch": 39,
                "velocity": 64,
                "duration": 0.08409090909091077,
                "tempo": 120.0
            },
            {
                "start_time": 27.579545454545453,
                "end_time": 27.663636363636364,
                "pitch": 35,
                "velocity": 64,
                "duration": 0.08409090909091077,
                "tempo": 120.0
            },
            {
                "start_time": 27.679545454545455,
                "end_time": 27.763636363636362,
                "pitch": 40,
                "velocity": 64,
                "duration": 0.08409090909090722,
                "tempo": 120.0
            },
            {
                "start_time": 27.779545454545453,
                "end_time": 27.96363636363636,
                "pitch": 35,
                "velocity": 64,
                "duration": 0.18409090909090864,
                "tempo": 120.0
            },
            {
                "start_time": 27.979545454545452,
                "end_time": 28.063636363636363,
                "pitch": 35,
                "velocity": 64,
                "duration": 0.08409090909091077,
                "tempo": 120.0
            },
            {
                "start_time": 28.079545454545453,
                "end_time": 28.268181818181816,
                "pitch": 35,
                "velocity": 64,
                "duration": 0.1886363636363626,
                "tempo": 120.0
            },
            {
                "start_time": 28.286363636363635,
                "end_time": 28.370454545454542,
                "pitch": 39,
                "velocity": 64,
                "duration": 0.08409090909090722,
                "tempo": 120.0
            },
            {
                "start_time": 28.388636363636362,
                "end_time": 28.474999999999998,
                "pitch": 39,
                "velocity": 64,
                "duration": 0.08636363636363598,
                "tempo": 120.0
            },
            {
                "start_time": 28.49090909090909,
                "end_time": 28.57272727272727,
                "pitch": 40,
                "velocity": 64,
                "duration": 0.08181818181818201,
                "tempo": 120.0
            },
            {
                "start_time": 28.58863636363636,
                "end_time": 28.768181818181816,
                "pitch": 35,
                "velocity": 64,
                "duration": 0.17954545454545467,
                "tempo": 120.0
            },
            {
                "start_time": 28.786363636363635,
                "end_time": 28.96590909090909,
                "pitch": 35,
                "velocity": 64,
                "duration": 0.17954545454545467,
                "tempo": 120.0
            },
            {
                "start_time": 28.98409090909091,
                "end_time": 29.065909090909088,
                "pitch": 35,
                "velocity": 64,
                "duration": 0.08181818181817846,
                "tempo": 120.0
            },
            {
                "start_time": 29.084090909090907,
                "end_time": 29.16590909090909,
                "pitch": 39,
                "velocity": 64,
                "duration": 0.08181818181818201,
                "tempo": 120.0
            },
            {
                "start_time": 29.18409090909091,
                "end_time": 29.26590909090909,
                "pitch": 35,
                "velocity": 64,
                "duration": 0.08181818181818201,
                "tempo": 120.0
            },
            {
                "start_time": 29.284090909090907,
                "end_time": 29.368181818181817,
                "pitch": 40,
                "velocity": 64,
                "duration": 0.08409090909091077,
                "tempo": 120.0
            },
            {
                "start_time": 29.386363636363637,
                "end_time": 29.575,
                "pitch": 35,
                "velocity": 64,
                "duration": 0.1886363636363626,
                "tempo": 120.0
            },
            {
                "start_time": 29.59090909090909,
                "end_time": 29.677272727272726,
                "pitch": 35,
                "velocity": 64,
                "duration": 0.08636363636363598,
                "tempo": 120.0
            },
            {
                "start_time": 29.693181818181817,
                "end_time": 29.875,
                "pitch": 35,
                "velocity": 64,
                "duration": 0.18181818181818343,
                "tempo": 120.0
            },
            {
                "start_time": 29.89090909090909,
                "end_time": 29.972727272727273,
                "pitch": 39,
                "velocity": 64,
                "duration": 0.08181818181818201,
                "tempo": 120.0
            },
            {
                "start_time": 29.988636363636363,
                "end_time": 30.070454545454545,
                "pitch": 35,
                "velocity": 64,
                "duration": 0.08181818181818201,
                "tempo": 120.0
            },
            {
                "start_time": 30.086363636363636,
                "end_time": 30.170454545454543,
                "pitch": 40,
                "velocity": 64,
                "duration": 0.08409090909090722,
                "tempo": 120.0
            },
            {
                "start_time": 30.186363636363634,
                "end_time": 30.370454545454542,
                "pitch": 35,
                "velocity": 64,
                "duration": 0.18409090909090864,
                "tempo": 120.0
            },
            {
                "start_time": 30.386363636363633,
                "end_time": 30.470454545454544,
                "pitch": 35,
                "velocity": 64,
                "duration": 0.08409090909091077,
                "tempo": 120.0
            },
            {
                "start_time": 30.486363636363635,
                "end_time": 30.670454545454543,
                "pitch": 35,
                "velocity": 64,
                "duration": 0.18409090909090864,
                "tempo": 120.0
            },
            {
                "start_time": 30.688636363636363,
                "end_time": 30.770454545454545,
                "pitch": 39,
                "velocity": 64,
                "duration": 0.08181818181818201,
                "tempo": 120.0
            },
            {
                "start_time": 30.78863636363636,
                "end_time": 30.87272727272727,
                "pitch": 35,
                "velocity": 64,
                "duration": 0.08409090909091077,
                "tempo": 120.0
            },
            {
                "start_time": 30.888636363636362,
                "end_time": 30.972727272727273,
                "pitch": 40,
                "velocity": 64,
                "duration": 0.08409090909091077,
                "tempo": 120.0
            },
            {
                "start_time": 30.988636363636363,
                "end_time": 31.172727272727272,
                "pitch": 35,
                "velocity": 64,
                "duration": 0.18409090909090864,
                "tempo": 120.0
            },
            {
                "start_time": 31.188636363636363,
                "end_time": 31.27272727272727,
                "pitch": 35,
                "velocity": 64,
                "duration": 0.08409090909090722,
                "tempo": 120.0
            },
            {
                "start_time": 31.28863636363636,
                "end_time": 31.477272727272727,
                "pitch": 35,
                "velocity": 64,
                "duration": 0.18863636363636616,
                "tempo": 120.0
            },
            {
                "start_time": 31.493181818181817,
                "end_time": 31.579545454545453,
                "pitch": 39,
                "velocity": 64,
                "duration": 0.08636363636363598,
                "tempo": 120.0
            },
            {
                "start_time": 31.597727272727273,
                "end_time": 31.68181818181818,
                "pitch": 35,
                "velocity": 64,
                "duration": 0.08409090909090722,
                "tempo": 120.0
            },
            {
                "start_time": 31.7,
                "end_time": 31.78181818181818,
                "pitch": 40,
                "velocity": 64,
                "duration": 0.08181818181818201,
                "tempo": 120.0
            },
            {
                "start_time": 31.797727272727272,
                "end_time": 31.977272727272727,
                "pitch": 35,
                "velocity": 64,
                "duration": 0.17954545454545467,
                "tempo": 120.0
            },
            {
                "start_time": 31.993181818181817,
                "end_time": 32.074999999999996,
                "pitch": 35,
                "velocity": 64,
                "duration": 0.08181818181817846,
                "tempo": 120.0
            },
            {
                "start_time": 32.090909090909086,
                "end_time": 32.279545454545456,
                "pitch": 35,
                "velocity": 64,
                "duration": 0.1886363636363697,
                "tempo": 120.0
            },
            {
                "start_time": 32.29772727272727,
                "end_time": 32.38181818181818,
                "pitch": 39,
                "velocity": 64,
                "duration": 0.08409090909091077,
                "tempo": 120.0
            },
            {
                "start_time": 32.4,
                "end_time": 32.48409090909091,
                "pitch": 35,
                "velocity": 64,
                "duration": 0.08409090909091077,
                "tempo": 120.0
            },
            {
                "start_time": 32.502272727272725,
                "end_time": 32.586363636363636,
                "pitch": 40,
                "velocity": 64,
                "duration": 0.08409090909091077,
                "tempo": 120.0
            },
            {
                "start_time": 32.60227272727273,
                "end_time": 32.78636363636363,
                "pitch": 35,
                "velocity": 64,
                "duration": 0.18409090909090509,
                "tempo": 120.0
            },
            {
                "start_time": 32.80227272727272,
                "end_time": 32.88636363636363,
                "pitch": 35,
                "velocity": 64,
                "duration": 0.08409090909091077,
                "tempo": 120.0
            },
            {
                "start_time": 32.902272727272724,
                "end_time": 33.086363636363636,
                "pitch": 35,
                "velocity": 64,
                "duration": 0.1840909090909122,
                "tempo": 120.0
            },
            {
                "start_time": 33.10227272727273,
                "end_time": 33.18636363636364,
                "pitch": 39,
                "velocity": 64,
                "duration": 0.08409090909091077,
                "tempo": 120.0
            },
            {
                "start_time": 33.20227272727273,
                "end_time": 33.28636363636363,
                "pitch": 35,
                "velocity": 64,
                "duration": 0.08409090909090366,
                "tempo": 120.0
            },
            {
                "start_time": 33.30227272727272,
                "end_time": 33.38409090909091,
                "pitch": 40,
                "velocity": 64,
                "duration": 0.08181818181818556,
                "tempo": 120.0
            },
            {
                "start_time": 33.4,
                "end_time": 33.57954545454545,
                "pitch": 35,
                "velocity": 64,
                "duration": 0.17954545454545467,
                "tempo": 120.0
            },
            {
                "start_time": 33.59772727272727,
                "end_time": 33.679545454545455,
                "pitch": 35,
                "velocity": 64,
                "duration": 0.08181818181818556,
                "tempo": 120.0
            },
            {
                "start_time": 33.695454545454545,
                "end_time": 33.87954545454545,
                "pitch": 35,
                "velocity": 64,
                "duration": 0.18409090909090509,
                "tempo": 120.0
            },
            {
                "start_time": 33.89545454545454,
                "end_time": 33.97954545454545,
                "pitch": 39,
                "velocity": 64,
                "duration": 0.08409090909091077,
                "tempo": 120.0
            },
            {
                "start_time": 33.99772727272727,
                "end_time": 34.07954545454545,
                "pitch": 35,
                "velocity": 64,
                "duration": 0.08181818181818556,
                "tempo": 120.0
            },
            {
                "start_time": 34.09772727272727,
                "end_time": 34.18181818181818,
                "pitch": 40,
                "velocity": 64,
                "duration": 0.08409090909091077,
                "tempo": 120.0
            },
            {
                "start_time": 34.19772727272727,
                "end_time": 34.38181818181818,
                "pitch": 35,
                "velocity": 64,
                "duration": 0.1840909090909122,
                "tempo": 120.0
            },
            {
                "start_time": 34.39772727272727,
                "end_time": 34.48181818181818,
                "pitch": 35,
                "velocity": 64,
                "duration": 0.08409090909090366,
                "tempo": 120.0
            },
            {
                "start_time": 34.49772727272727,
                "end_time": 34.58181818181818,
                "pitch": 35,
                "velocity": 64,
                "duration": 0.08409090909091077,
                "tempo": 120.0
            },
            {
                "start_time": 34.6,
                "end_time": 34.68636363636364,
                "pitch": 41,
                "velocity": 64,
                "duration": 0.08636363636363598,
                "tempo": 120.0
            },
            {
                "start_time": 34.70227272727273,
                "end_time": 34.788636363636364,
                "pitch": 42,
                "velocity": 64,
                "duration": 0.08636363636363598,
                "tempo": 120.0
            },
            {
                "start_time": 34.804545454545455,
                "end_time": 34.89090909090909,
                "pitch": 35,
                "velocity": 64,
                "duration": 0.08636363636363598,
                "tempo": 120.0
            },
            {
                "start_time": 34.90681818181818,
                "end_time": 34.99090909090909,
                "pitch": 41,
                "velocity": 64,
                "duration": 0.08409090909091077,
                "tempo": 120.0
            },
            {
                "start_time": 35.00909090909091,
                "end_time": 35.090909090909086,
                "pitch": 42,
                "velocity": 64,
                "duration": 0.08181818181817846,
                "tempo": 120.0
            },
            {
                "start_time": 35.10909090909091,
                "end_time": 35.19090909090909,
                "pitch": 44,
                "velocity": 64,
                "duration": 0.08181818181817846,
                "tempo": 120.0
            },
            {
                "start_time": 35.20909090909091,
                "end_time": 35.29090909090909,
                "pitch": 43,
                "velocity": 64,
                "duration": 0.08181818181817846,
                "tempo": 120.0
            },
            {
                "start_time": 35.309090909090905,
                "end_time": 35.393181818181816,
                "pitch": 42,
                "velocity": 64,
                "duration": 0.08409090909091077,
                "tempo": 120.0
            },
            {
                "start_time": 35.40909090909091,
                "end_time": 35.49318181818182,
                "pitch": 41,
                "velocity": 64,
                "duration": 0.08409090909091077,
                "tempo": 120.0
            },
            {
                "start_time": 35.50909090909091,
                "end_time": 35.59318181818182,
                "pitch": 40,
                "velocity": 64,
                "duration": 0.08409090909091077,
                "tempo": 120.0
            },
            {
                "start_time": 35.611363636363635,
                "end_time": 35.69318181818181,
                "pitch": 39,
                "velocity": 64,
                "duration": 0.08181818181817846,
                "tempo": 120.0
            },
            {
                "start_time": 35.711363636363636,
                "end_time": 35.79545454545455,
                "pitch": 35,
                "velocity": 64,
                "duration": 0.08409090909091077,
                "tempo": 120.0
            },
            {
                "start_time": 35.81136363636364,
                "end_time": 35.89545454545454,
                "pitch": 41,
                "velocity": 64,
                "duration": 0.08409090909090366,
                "tempo": 120.0
            },
            {
                "start_time": 35.91136363636363,
                "end_time": 35.99545454545454,
                "pitch": 42,
                "velocity": 64,
                "duration": 0.08409090909091077,
                "tempo": 120.0
            },
            {
                "start_time": 36.01136363636363,
                "end_time": 36.095454545454544,
                "pitch": 35,
                "velocity": 64,
                "duration": 0.08409090909091077,
                "tempo": 120.0
            },
            {
                "start_time": 36.111363636363635,
                "end_time": 36.195454545454545,
                "pitch": 41,
                "velocity": 64,
                "duration": 0.08409090909091077,
                "tempo": 120.0
            },
            {
                "start_time": 36.211363636363636,
                "end_time": 36.29545454545455,
                "pitch": 42,
                "velocity": 64,
                "duration": 0.08409090909091077,
                "tempo": 120.0
            },
            {
                "start_time": 36.31136363636364,
                "end_time": 36.39545454545454,
                "pitch": 44,
                "velocity": 64,
                "duration": 0.08409090909090366,
                "tempo": 120.0
            },
            {
                "start_time": 36.41136363636363,
                "end_time": 36.49545454545454,
                "pitch": 43,
                "velocity": 64,
                "duration": 0.08409090909091077,
                "tempo": 120.0
            },
            {
                "start_time": 36.51136363636363,
                "end_time": 36.595454545454544,
                "pitch": 42,
                "velocity": 64,
                "duration": 0.08409090909091077,
                "tempo": 120.0
            },
            {
                "start_time": 36.611363636363635,
                "end_time": 36.695454545454545,
                "pitch": 41,
                "velocity": 64,
                "duration": 0.08409090909091077,
                "tempo": 120.0
            },
            {
                "start_time": 36.711363636363636,
                "end_time": 36.79545454545455,
                "pitch": 40,
                "velocity": 64,
                "duration": 0.08409090909091077,
                "tempo": 120.0
            },
            {
                "start_time": 36.81136363636364,
                "end_time": 36.89545454545454,
                "pitch": 39,
                "velocity": 64,
                "duration": 0.08409090909090366,
                "tempo": 120.0
            },
            {
                "start_time": 36.91136363636363,
                "end_time": 37.095454545454544,
                "pitch": 35,
                "velocity": 64,
                "duration": 0.1840909090909122,
                "tempo": 120.0
            },
            {
                "start_time": 37.111363636363635,
                "end_time": 37.195454545454545,
                "pitch": 39,
                "velocity": 64,
                "duration": 0.08409090909091077,
                "tempo": 120.0
            },
            {
                "start_time": 37.211363636363636,
                "end_time": 37.29545454545455,
                "pitch": 39,
                "velocity": 64,
                "duration": 0.08409090909091077,
                "tempo": 120.0
            },
            {
                "start_time": 37.31136363636364,
                "end_time": 37.393181818181816,
                "pitch": 40,
                "velocity": 64,
                "duration": 0.08181818181817846,
                "tempo": 120.0
            },
            {
                "start_time": 37.40909090909091,
                "end_time": 37.58863636363636,
                "pitch": 35,
                "velocity": 64,
                "duration": 0.17954545454545467,
                "tempo": 120.0
            },
            {
                "start_time": 37.60454545454545,
                "end_time": 37.78636363636363,
                "pitch": 35,
                "velocity": 64,
                "duration": 0.18181818181817988,
                "tempo": 120.0
            },
            {
                "start_time": 37.804545454545455,
                "end_time": 37.88863636363636,
                "pitch": 35,
                "velocity": 64,
                "duration": 0.08409090909090366,
                "tempo": 120.0
            },
            {
                "start_time": 37.904545454545456,
                "end_time": 37.98863636363636,
                "pitch": 39,
                "velocity": 64,
                "duration": 0.08409090909090366,
                "tempo": 120.0
            },
            {
                "start_time": 38.00454545454545,
                "end_time": 38.08863636363636,
                "pitch": 35,
                "velocity": 64,
                "duration": 0.08409090909091077,
                "tempo": 120.0
            },
            {
                "start_time": 38.10681818181818,
                "end_time": 38.19090909090909,
                "pitch": 40,
                "velocity": 64,
                "duration": 0.08409090909091077,
                "tempo": 120.0
            },
            {
                "start_time": 38.20909090909091,
                "end_time": 38.39772727272727,
                "pitch": 35,
                "velocity": 64,
                "duration": 0.1886363636363626,
                "tempo": 120.0
            },
            {
                "start_time": 38.413636363636364,
                "end_time": 38.5,
                "pitch": 35,
                "velocity": 64,
                "duration": 0.08636363636363598,
                "tempo": 120.0
            },
            {
                "start_time": 38.51590909090909,
                "end_time": 38.699999999999996,
                "pitch": 35,
                "velocity": 64,
                "duration": 0.18409090909090509,
                "tempo": 120.0
            },
            {
                "start_time": 38.715909090909086,
                "end_time": 38.8,
                "pitch": 39,
                "velocity": 64,
                "duration": 0.08409090909091077,
                "tempo": 120.0
            },
            {
                "start_time": 38.81590909090909,
                "end_time": 38.9,
                "pitch": 35,
                "velocity": 64,
                "duration": 0.08409090909091077,
                "tempo": 120.0
            },
            {
                "start_time": 38.91590909090909,
                "end_time": 38.99772727272727,
                "pitch": 40,
                "velocity": 64,
                "duration": 0.08181818181817846,
                "tempo": 120.0
            },
            {
                "start_time": 39.01590909090909,
                "end_time": 39.195454545454545,
                "pitch": 35,
                "velocity": 64,
                "duration": 0.17954545454545467,
                "tempo": 120.0
            },
            {
                "start_time": 39.211363636363636,
                "end_time": 39.293181818181814,
                "pitch": 35,
                "velocity": 64,
                "duration": 0.08181818181817846,
                "tempo": 120.0
            },
            {
                "start_time": 39.309090909090905,
                "end_time": 39.49318181818182,
                "pitch": 35,
                "velocity": 64,
                "duration": 0.1840909090909122,
                "tempo": 120.0
            },
            {
                "start_time": 39.50909090909091,
                "end_time": 39.59318181818182,
                "pitch": 39,
                "velocity": 64,
                "duration": 0.08409090909091077,
                "tempo": 120.0
            },
            {
                "start_time": 39.60909090909091,
                "end_time": 39.69318181818181,
                "pitch": 35,
                "velocity": 64,
                "duration": 0.08409090909090366,
                "tempo": 120.0
            },
            {
                "start_time": 39.709090909090904,
                "end_time": 39.793181818181814,
                "pitch": 40,
                "velocity": 64,
                "duration": 0.08409090909091077,
                "tempo": 120.0
            },
            {
                "start_time": 39.809090909090905,
                "end_time": 39.99318181818182,
                "pitch": 35,
                "velocity": 64,
                "duration": 0.1840909090909122,
                "tempo": 120.0
            },
            {
                "start_time": 40.01136363636363,
                "end_time": 40.095454545454544,
                "pitch": 35,
                "velocity": 64,
                "duration": 0.08409090909091077,
                "tempo": 120.0
            }
        ],
        "French Horn": [
            {
                "start_time": 0.0,
                "end_time": 0.759090909090909,
                "pitch": 73,
                "velocity": 80,
                "duration": 0.759090909090909,
                "tempo": 120.0
            },
            {
                "start_time": 0.7749999999999999,
                "end_time": 1.159090909090909,
                "pitch": 76,
                "velocity": 80,
                "duration": 0.38409090909090904,
                "tempo": 120.0
            },
            {
                "start_time": 1.175,
                "end_time": 1.5681818181818181,
                "pitch": 78,
                "velocity": 80,
                "duration": 0.3931818181818181,
                "tempo": 120.0
            },
            {
                "start_time": 1.5863636363636362,
                "end_time": 3.168181818181818,
                "pitch": 75,
                "velocity": 80,
                "duration": 1.5818181818181818,
                "tempo": 120.0
            },
            {
                "start_time": 3.184090909090909,
                "end_time": 3.9704545454545452,
                "pitch": 73,
                "velocity": 80,
                "duration": 0.7863636363636362,
                "tempo": 120.0
            },
            {
                "start_time": 3.9863636363636363,
                "end_time": 4.372727272727272,
                "pitch": 76,
                "velocity": 80,
                "duration": 0.3863636363636358,
                "tempo": 120.0
            },
            {
                "start_time": 4.388636363636364,
                "end_time": 4.781818181818181,
                "pitch": 78,
                "velocity": 80,
                "duration": 0.39318181818181763,
                "tempo": 120.0
            },
            {
                "start_time": 4.8,
                "end_time": 6.379545454545454,
                "pitch": 75,
                "velocity": 80,
                "duration": 1.5795454545454541,
                "tempo": 120.0
            },
            {
                "start_time": 6.3954545454545455,
                "end_time": 7.181818181818182,
                "pitch": 82,
                "velocity": 80,
                "duration": 0.7863636363636362,
                "tempo": 120.0
            },
            {
                "start_time": 7.199999999999999,
                "end_time": 7.584090909090909,
                "pitch": 88,
                "velocity": 80,
                "duration": 0.3840909090909097,
                "tempo": 120.0
            },
            {
                "start_time": 7.602272727272727,
                "end_time": 7.995454545454545,
                "pitch": 87,
                "velocity": 80,
                "duration": 0.3931818181818185,
                "tempo": 120.0
            },
            {
                "start_time": 8.011363636363637,
                "end_time": 9.593181818181817,
                "pitch": 83,
                "velocity": 80,
                "duration": 1.5818181818181802,
                "tempo": 120.0
            },
            {
                "start_time": 9.60909090909091,
                "end_time": 10.397727272727272,
                "pitch": 82,
                "velocity": 80,
                "duration": 0.7886363636363622,
                "tempo": 120.0
            },
            {
                "start_time": 10.413636363636362,
                "end_time": 10.797727272727272,
                "pitch": 88,
                "velocity": 80,
                "duration": 0.3840909090909097,
                "tempo": 120.0
            },
            {
                "start_time": 10.81590909090909,
                "end_time": 11.209090909090909,
                "pitch": 87,
                "velocity": 80,
                "duration": 0.3931818181818194,
                "tempo": 120.0
            },
            {
                "start_time": 11.227272727272727,
                "end_time": 12.806818181818182,
                "pitch": 83,
                "velocity": 80,
                "duration": 1.579545454545455,
                "tempo": 120.0
            },
            {
                "start_time": 12.825,
                "end_time": 13.611363636363636,
                "pitch": 80,
                "velocity": 80,
                "duration": 0.786363636363637,
                "tempo": 120.0
            },
            {
                "start_time": 13.627272727272727,
                "end_time": 14.013636363636364,
                "pitch": 85,
                "velocity": 80,
                "duration": 0.3863636363636367,
                "tempo": 120.0
            },
            {
                "start_time": 14.029545454545454,
                "end_time": 14.422727272727272,
                "pitch": 87,
                "velocity": 80,
                "duration": 0.39318181818181763,
                "tempo": 120.0
            },
            {
                "start_time": 14.44090909090909,
                "end_time": 16.025,
                "pitch": 82,
                "velocity": 80,
                "duration": 1.584090909090909,
                "tempo": 120.0
            },
            {
                "start_time": 16.04090909090909,
                "end_time": 16.827272727272728,
                "pitch": 80,
                "velocity": 80,
                "duration": 0.7863636363636388,
                "tempo": 120.0
            },
            {
                "start_time": 16.84318181818182,
                "end_time": 17.227272727272727,
                "pitch": 85,
                "velocity": 80,
                "duration": 0.38409090909090793,
                "tempo": 120.0
            },
            {
                "start_time": 17.243181818181817,
                "end_time": 17.636363636363637,
                "pitch": 87,
                "velocity": 80,
                "duration": 0.3931818181818194,
                "tempo": 120.0
            },
            {
                "start_time": 17.654545454545453,
                "end_time": 19.236363636363635,
                "pitch": 82,
                "velocity": 80,
                "duration": 1.581818181818182,
                "tempo": 120.0
            },
            {
                "start_time": 19.268181818181816,
                "end_time": 19.336363636363636,
                "pitch": 59,
                "velocity": 80,
                "duration": 0.06818181818182012,
                "tempo": 120.0
            },
            {
                "start_time": 19.354545454545452,
                "end_time": 19.44090909090909,
                "pitch": 65,
                "velocity": 80,
                "duration": 0.08636363636363953,
                "tempo": 120.0
            },
            {
                "start_time": 19.456818181818182,
                "end_time": 19.543181818181818,
                "pitch": 66,
                "velocity": 80,
                "duration": 0.08636363636363598,
                "tempo": 120.0
            },
            {
                "start_time": 19.55909090909091,
                "end_time": 19.645454545454545,
                "pitch": 59,
                "velocity": 80,
                "duration": 0.08636363636363598,
                "tempo": 120.0
            },
            {
                "start_time": 19.663636363636364,
                "end_time": 19.74772727272727,
                "pitch": 65,
                "velocity": 80,
                "duration": 0.08409090909090722,
                "tempo": 120.0
            },
            {
                "start_time": 19.763636363636362,
                "end_time": 19.847727272727273,
                "pitch": 66,
                "velocity": 80,
                "duration": 0.08409090909091077,
                "tempo": 120.0
            },
            {
                "start_time": 19.863636363636363,
                "end_time": 19.94772727272727,
                "pitch": 68,
                "velocity": 80,
                "duration": 0.08409090909090722,
                "tempo": 120.0
            },
            {
                "start_time": 19.96590909090909,
                "end_time": 20.05,
                "pitch": 67,
                "velocity": 80,
                "duration": 0.08409090909091077,
                "tempo": 120.0
            },
            {
                "start_time": 20.06590909090909,
                "end_time": 20.15,
                "pitch": 66,
                "velocity": 80,
                "duration": 0.08409090909090722,
                "tempo": 120.0
            },
            {
                "start_time": 20.16590909090909,
                "end_time": 20.25,
                "pitch": 65,
                "velocity": 80,
                "duration": 0.08409090909091077,
                "tempo": 120.0
            },
            {
                "start_time": 20.26590909090909,
                "end_time": 20.349999999999998,
                "pitch": 64,
                "velocity": 80,
                "duration": 0.08409090909090722,
                "tempo": 120.0
            },
            {
                "start_time": 20.36590909090909,
                "end_time": 20.45,
                "pitch": 63,
                "velocity": 80,
                "duration": 0.08409090909091077,
                "tempo": 120.0
            },
            {
                "start_time": 20.46590909090909,
                "end_time": 20.55,
                "pitch": 59,
                "velocity": 80,
                "duration": 0.08409090909091077,
                "tempo": 120.0
            },
            {
                "start_time": 20.56590909090909,
                "end_time": 20.65,
                "pitch": 65,
                "velocity": 80,
                "duration": 0.08409090909090722,
                "tempo": 120.0
            },
            {
                "start_time": 20.66590909090909,
                "end_time": 20.75,
                "pitch": 66,
                "velocity": 80,
                "duration": 0.08409090909091077,
                "tempo": 120.0
            },
            {
                "start_time": 20.76590909090909,
                "end_time": 20.849999999999998,
                "pitch": 59,
                "velocity": 80,
                "duration": 0.08409090909090722,
                "tempo": 120.0
            },
            {
                "start_time": 20.86590909090909,
                "end_time": 20.95,
                "pitch": 65,
                "velocity": 80,
                "duration": 0.08409090909091077,
                "tempo": 120.0
            },
            {
                "start_time": 20.96590909090909,
                "end_time": 21.05,
                "pitch": 66,
                "velocity": 80,
                "duration": 0.08409090909091077,
                "tempo": 120.0
            },
            {
                "start_time": 21.068181818181817,
                "end_time": 21.15,
                "pitch": 68,
                "velocity": 80,
                "duration": 0.08181818181818201,
                "tempo": 120.0
            },
            {
                "start_time": 21.168181818181818,
                "end_time": 21.252272727272725,
                "pitch": 67,
                "velocity": 80,
                "duration": 0.08409090909090722,
                "tempo": 120.0
            },
            {
                "start_time": 21.268181818181816,
                "end_time": 21.352272727272727,
                "pitch": 66,
                "velocity": 80,
                "duration": 0.08409090909091077,
                "tempo": 120.0
            },
            {
                "start_time": 21.368181818181817,
                "end_time": 21.452272727272724,
                "pitch": 65,
                "velocity": 80,
                "duration": 0.08409090909090722,
                "tempo": 120.0
            },
            {
                "start_time": 21.46818181818182,
                "end_time": 21.552272727272726,
                "pitch": 64,
                "velocity": 80,
                "duration": 0.08409090909090722,
                "tempo": 120.0
            },
            {
                "start_time": 21.568181818181817,
                "end_time": 21.652272727272727,
                "pitch": 63,
                "velocity": 80,
                "duration": 0.08409090909091077,
                "tempo": 120.0
            },
            {
                "start_time": 21.686363636363634,
                "end_time": 22.44772727272727,
                "pitch": 73,
                "velocity": 80,
                "duration": 0.7613636363636367,
                "tempo": 120.0
            },
            {
                "start_time": 22.46363636363636,
                "end_time": 22.849999999999998,
                "pitch": 76,
                "velocity": 80,
                "duration": 0.3863636363636367,
                "tempo": 120.0
            },
            {
                "start_time": 22.86590909090909,
                "end_time": 23.259090909090908,
                "pitch": 78,
                "velocity": 80,
                "duration": 0.3931818181818194,
                "tempo": 120.0
            },
            {
                "start_time": 23.277272727272727,
                "end_time": 24.854545454545452,
                "pitch": 75,
                "velocity": 80,
                "duration": 1.5772727272727245,
                "tempo": 120.0
            },
            {
                "start_time": 24.87272727272727,
                "end_time": 25.659090909090907,
                "pitch": 73,
                "velocity": 80,
                "duration": 0.7863636363636353,
                "tempo": 120.0
            },
            {
                "start_time": 25.674999999999997,
                "end_time": 26.068181818181817,
                "pitch": 76,
                "velocity": 80,
                "duration": 0.3931818181818194,
                "tempo": 120.0
            },
            {
                "start_time": 26.086363636363636,
                "end_time": 26.468181818181815,
                "pitch": 78,
                "velocity": 80,
                "duration": 0.38181818181817917,
                "tempo": 120.0
            },
            {
                "start_time": 26.486363636363635,
                "end_time": 28.063636363636363,
                "pitch": 75,
                "velocity": 80,
                "duration": 1.577272727272728,
                "tempo": 120.0
            },
            {
                "start_time": 28.097727272727273,
                "end_time": 28.868181818181817,
                "pitch": 73,
                "velocity": 80,
                "duration": 0.7704545454545446,
                "tempo": 120.0
            },
            {
                "start_time": 28.884090909090908,
                "end_time": 29.26590909090909,
                "pitch": 76,
                "velocity": 80,
                "duration": 0.3818181818181827,
                "tempo": 120.0
            },
            {
                "start_time": 29.284090909090907,
                "end_time": 29.677272727272726,
                "pitch": 78,
                "velocity": 80,
                "duration": 0.3931818181818194,
                "tempo": 120.0
            },
            {
                "start_time": 29.693181818181817,
                "end_time": 31.27272727272727,
                "pitch": 75,
                "velocity": 80,
                "duration": 1.5795454545454533,
                "tempo": 120.0
            },
            {
                "start_time": 31.28863636363636,
                "end_time": 32.074999999999996,
                "pitch": 73,
                "velocity": 80,
                "duration": 0.7863636363636353,
                "tempo": 120.0
            },
            {
                "start_time": 32.090909090909086,
                "end_time": 32.48409090909091,
                "pitch": 76,
                "velocity": 80,
                "duration": 0.39318181818182296,
                "tempo": 120.0
            },
            {
                "start_time": 32.502272727272725,
                "end_time": 32.88636363636363,
                "pitch": 78,
                "velocity": 80,
                "duration": 0.38409090909090793,
                "tempo": 120.0
            },
            {
                "start_time": 32.902272727272724,
                "end_time": 34.48181818181818,
                "pitch": 75,
                "velocity": 80,
                "duration": 1.5795454545454533,
                "tempo": 120.0
            },
            {
                "start_time": 34.513636363636365,
                "end_time": 34.58181818181818,
                "pitch": 59,
                "velocity": 80,
                "duration": 0.06818181818181301,
                "tempo": 120.0
            },
            {
                "start_time": 34.6,
                "end_time": 34.68636363636364,
                "pitch": 65,
                "velocity": 80,
                "duration": 0.08636363636363598,
                "tempo": 120.0
            },
            {
                "start_time": 34.70227272727273,
                "end_time": 34.788636363636364,
                "pitch": 66,
                "velocity": 80,
                "duration": 0.08636363636363598,
                "tempo": 120.0
            },
            {
                "start_time": 34.804545454545455,
                "end_time": 34.89090909090909,
                "pitch": 59,
                "velocity": 80,
                "duration": 0.08636363636363598,
                "tempo": 120.0
            },
            {
                "start_time": 34.90681818181818,
                "end_time": 34.99090909090909,
                "pitch": 65,
                "velocity": 80,
                "duration": 0.08409090909091077,
                "tempo": 120.0
            },
            {
                "start_time": 35.00909090909091,
                "end_time": 35.090909090909086,
                "pitch": 66,
                "velocity": 80,
                "duration": 0.08181818181817846,
                "tempo": 120.0
            },
            {
                "start_time": 35.10909090909091,
                "end_time": 35.19090909090909,
                "pitch": 68,
                "velocity": 80,
                "duration": 0.08181818181817846,
                "tempo": 120.0
            },
            {
                "start_time": 35.20909090909091,
                "end_time": 35.29090909090909,
                "pitch": 67,
                "velocity": 80,
                "duration": 0.08181818181817846,
                "tempo": 120.0
            },
            {
                "start_time": 35.309090909090905,
                "end_time": 35.393181818181816,
                "pitch": 66,
                "velocity": 80,
                "duration": 0.08409090909091077,
                "tempo": 120.0
            },
            {
                "start_time": 35.40909090909091,
                "end_time": 35.49318181818182,
                "pitch": 65,
                "velocity": 80,
                "duration": 0.08409090909091077,
                "tempo": 120.0
            },
            {
                "start_time": 35.50909090909091,
                "end_time": 35.59318181818182,
                "pitch": 64,
                "velocity": 80,
                "duration": 0.08409090909091077,
                "tempo": 120.0
            },
            {
                "start_time": 35.611363636363635,
                "end_time": 35.69318181818181,
                "pitch": 63,
                "velocity": 80,
                "duration": 0.08181818181817846,
                "tempo": 120.0
            },
            {
                "start_time": 35.711363636363636,
                "end_time": 35.79545454545455,
                "pitch": 59,
                "velocity": 80,
                "duration": 0.08409090909091077,
                "tempo": 120.0
            },
            {
                "start_time": 35.81136363636364,
                "end_time": 35.89545454545454,
                "pitch": 65,
                "velocity": 80,
                "duration": 0.08409090909090366,
                "tempo": 120.0
            },
            {
                "start_time": 35.91136363636363,
                "end_time": 35.99545454545454,
                "pitch": 66,
                "velocity": 80,
                "duration": 0.08409090909091077,
                "tempo": 120.0
            },
            {
                "start_time": 36.01136363636363,
                "end_time": 36.095454545454544,
                "pitch": 59,
                "velocity": 80,
                "duration": 0.08409090909091077,
                "tempo": 120.0
            },
            {
                "start_time": 36.111363636363635,
                "end_time": 36.195454545454545,
                "pitch": 65,
                "velocity": 80,
                "duration": 0.08409090909091077,
                "tempo": 120.0
            },
            {
                "start_time": 36.211363636363636,
                "end_time": 36.29545454545455,
                "pitch": 66,
                "velocity": 80,
                "duration": 0.08409090909091077,
                "tempo": 120.0
            },
            {
                "start_time": 36.31136363636364,
                "end_time": 36.39545454545454,
                "pitch": 68,
                "velocity": 80,
                "duration": 0.08409090909090366,
                "tempo": 120.0
            },
            {
                "start_time": 36.41136363636363,
                "end_time": 36.49545454545454,
                "pitch": 67,
                "velocity": 80,
                "duration": 0.08409090909091077,
                "tempo": 120.0
            },
            {
                "start_time": 36.51136363636363,
                "end_time": 36.595454545454544,
                "pitch": 66,
                "velocity": 80,
                "duration": 0.08409090909091077,
                "tempo": 120.0
            },
            {
                "start_time": 36.611363636363635,
                "end_time": 36.695454545454545,
                "pitch": 65,
                "velocity": 80,
                "duration": 0.08409090909091077,
                "tempo": 120.0
            },
            {
                "start_time": 36.711363636363636,
                "end_time": 36.79545454545455,
                "pitch": 64,
                "velocity": 80,
                "duration": 0.08409090909091077,
                "tempo": 120.0
            },
            {
                "start_time": 36.81136363636364,
                "end_time": 36.89545454545454,
                "pitch": 63,
                "velocity": 80,
                "duration": 0.08409090909090366,
                "tempo": 120.0
            },
            {
                "start_time": 36.92727272727272,
                "end_time": 37.68636363636364,
                "pitch": 73,
                "velocity": 80,
                "duration": 0.759090909090915,
                "tempo": 120.0
            },
            {
                "start_time": 37.70227272727273,
                "end_time": 38.08863636363636,
                "pitch": 76,
                "velocity": 80,
                "duration": 0.38636363636363313,
                "tempo": 120.0
            },
            {
                "start_time": 38.10681818181818,
                "end_time": 38.5,
                "pitch": 78,
                "velocity": 80,
                "duration": 0.39318181818182296,
                "tempo": 120.0
            },
            {
                "start_time": 38.51590909090909,
                "end_time": 40.095454545454544,
                "pitch": 75,
                "velocity": 80,
                "duration": 1.5795454545454533,
                "tempo": 120.0
            }
        ],
        "Trumpet": [
            {
                "start_time": 0.1159090909090909,
                "end_time": 0.8931818181818182,
                "pitch": 68,
                "velocity": 25,
                "duration": 0.7772727272727273,
                "tempo": 120.0
            },
            {
                "start_time": 0.9090909090909091,
                "end_time": 1.2954545454545454,
                "pitch": 71,
                "velocity": 25,
                "duration": 0.38636363636363635,
                "tempo": 120.0
            },
            {
                "start_time": 1.3113636363636363,
                "end_time": 1.7045454545454544,
                "pitch": 73,
                "velocity": 25,
                "duration": 0.3931818181818181,
                "tempo": 120.0
            },
            {
                "start_time": 1.7204545454545455,
                "end_time": 3.1772727272727272,
                "pitch": 70,
                "velocity": 25,
                "duration": 1.4568181818181818,
                "tempo": 120.0
            },
            {
                "start_time": 3.1772727272727272,
                "end_time": 3.3022727272727272,
                "pitch": 70,
                "velocity": 25,
                "duration": 0.125,
                "tempo": 120.0
            },
            {
                "start_time": 3.3204545454545453,
                "end_time": 4.1045454545454545,
                "pitch": 68,
                "velocity": 25,
                "duration": 0.7840909090909092,
                "tempo": 120.0
            },
            {
                "start_time": 4.120454545454545,
                "end_time": 4.509090909090909,
                "pitch": 71,
                "velocity": 25,
                "duration": 0.38863636363636367,
                "tempo": 120.0
            },
            {
                "start_time": 4.5249999999999995,
                "end_time": 4.918181818181818,
                "pitch": 73,
                "velocity": 25,
                "duration": 0.3931818181818185,
                "tempo": 120.0
            },
            {
                "start_time": 4.934090909090909,
                "end_time": 6.515909090909091,
                "pitch": 70,
                "velocity": 25,
                "duration": 1.581818181818182,
                "tempo": 120.0
            },
            {
                "start_time": 6.531818181818181,
                "end_time": 6.618181818181818,
                "pitch": 75,
                "velocity": 25,
                "duration": 0.08636363636363686,
                "tempo": 120.0
            },
            {
                "start_time": 6.636363636363636,
                "end_time": 6.720454545454545,
                "pitch": 80,
                "velocity": 25,
                "duration": 0.084090909090909,
                "tempo": 120.0
            },
            {
                "start_time": 6.738636363636363,
                "end_time": 6.822727272727272,
                "pitch": 79,
                "velocity": 25,
                "duration": 0.084090909090909,
                "tempo": 120.0
            },
            {
                "start_time": 6.838636363636363,
                "end_time": 6.920454545454545,
                "pitch": 75,
                "velocity": 25,
                "duration": 0.08181818181818201,
                "tempo": 120.0
            },
            {
                "start_time": 6.9386363636363635,
                "end_time": 7.018181818181818,
                "pitch": 80,
                "velocity": 25,
                "duration": 0.07954545454545414,
                "tempo": 120.0
            },
            {
                "start_time": 7.036363636363636,
                "end_time": 7.118181818181818,
                "pitch": 79,
                "velocity": 25,
                "duration": 0.08181818181818201,
                "tempo": 120.0
            },
            {
                "start_time": 7.134090909090909,
                "end_time": 7.215909090909091,
                "pitch": 75,
                "velocity": 25,
                "duration": 0.08181818181818201,
                "tempo": 120.0
            },
            {
                "start_time": 7.2318181818181815,
                "end_time": 7.3159090909090905,
                "pitch": 80,
                "velocity": 25,
                "duration": 0.084090909090909,
                "tempo": 120.0
            },
            {
                "start_time": 7.334090909090909,
                "end_time": 7.41590909090909,
                "pitch": 79,
                "velocity": 25,
                "duration": 0.08181818181818112,
                "tempo": 120.0
            },
            {
                "start_time": 7.434090909090909,
                "end_time": 7.518181818181818,
                "pitch": 75,
                "velocity": 25,
                "duration": 0.084090909090909,
                "tempo": 120.0
            },
            {
                "start_time": 7.534090909090908,
                "end_time": 7.618181818181818,
                "pitch": 80,
                "velocity": 25,
                "duration": 0.08409090909090988,
                "tempo": 120.0
            },
            {
                "start_time": 7.636363636363636,
                "end_time": 7.720454545454545,
                "pitch": 79,
                "velocity": 25,
                "duration": 0.084090909090909,
                "tempo": 120.0
            },
            {
                "start_time": 7.738636363636363,
                "end_time": 7.822727272727272,
                "pitch": 75,
                "velocity": 25,
                "duration": 0.084090909090909,
                "tempo": 120.0
            },
            {
                "start_time": 7.840909090909091,
                "end_time": 7.927272727272727,
                "pitch": 80,
                "velocity": 25,
                "duration": 0.08636363636363598,
                "tempo": 120.0
            },
            {
                "start_time": 7.9431818181818175,
                "end_time": 8.029545454545454,
                "pitch": 79,
                "velocity": 25,
                "duration": 0.08636363636363686,
                "tempo": 120.0
            },
            {
                "start_time": 8.045454545454545,
                "end_time": 8.129545454545454,
                "pitch": 75,
                "velocity": 25,
                "duration": 0.084090909090909,
                "tempo": 120.0
            },
            {
                "start_time": 8.147727272727272,
                "end_time": 8.229545454545454,
                "pitch": 80,
                "velocity": 25,
                "duration": 0.08181818181818201,
                "tempo": 120.0
            },
            {
                "start_time": 8.247727272727273,
                "end_time": 8.331818181818182,
                "pitch": 79,
                "velocity": 25,
                "duration": 0.084090909090909,
                "tempo": 120.0
            },
            {
                "start_time": 8.347727272727273,
                "end_time": 8.431818181818182,
                "pitch": 75,
                "velocity": 25,
                "duration": 0.084090909090909,
                "tempo": 120.0
            },
            {
                "start_time": 8.447727272727272,
                "end_time": 8.529545454545454,
                "pitch": 80,
                "velocity": 25,
                "duration": 0.08181818181818201,
                "tempo": 120.0
            },
            {
                "start_time": 8.545454545454545,
                "end_time": 8.627272727272727,
                "pitch": 79,
                "velocity": 25,
                "duration": 0.08181818181818201,
                "tempo": 120.0
            },
            {
                "start_time": 8.643181818181818,
                "end_time": 8.725,
                "pitch": 75,
                "velocity": 25,
                "duration": 0.08181818181818201,
                "tempo": 120.0
            },
            {
                "start_time": 8.743181818181817,
                "end_time": 8.825,
                "pitch": 80,
                "velocity": 25,
                "duration": 0.08181818181818201,
                "tempo": 120.0
            },
            {
                "start_time": 8.84090909090909,
                "end_time": 8.924999999999999,
                "pitch": 79,
                "velocity": 25,
                "duration": 0.084090909090909,
                "tempo": 120.0
            },
            {
                "start_time": 8.940909090909091,
                "end_time": 9.025,
                "pitch": 75,
                "velocity": 25,
                "duration": 0.084090909090909,
                "tempo": 120.0
            },
            {
                "start_time": 9.040909090909091,
                "end_time": 9.125,
                "pitch": 80,
                "velocity": 25,
                "duration": 0.084090909090909,
                "tempo": 120.0
            },
            {
                "start_time": 9.14090909090909,
                "end_time": 9.225,
                "pitch": 79,
                "velocity": 25,
                "duration": 0.084090909090909,
                "tempo": 120.0
            },
            {
                "start_time": 9.24090909090909,
                "end_time": 9.325,
                "pitch": 75,
                "velocity": 25,
                "duration": 0.084090909090909,
                "tempo": 120.0
            },
            {
                "start_time": 9.34090909090909,
                "end_time": 9.424999999999999,
                "pitch": 80,
                "velocity": 25,
                "duration": 0.084090909090909,
                "tempo": 120.0
            },
            {
                "start_time": 9.443181818181818,
                "end_time": 9.525,
                "pitch": 79,
                "velocity": 25,
                "duration": 0.08181818181818201,
                "tempo": 120.0
            },
            {
                "start_time": 9.543181818181818,
                "end_time": 9.627272727272727,
                "pitch": 75,
                "velocity": 25,
                "duration": 0.084090909090909,
                "tempo": 120.0
            },
            {
                "start_time": 9.643181818181818,
                "end_time": 9.729545454545454,
                "pitch": 80,
                "velocity": 25,
                "duration": 0.08636363636363598,
                "tempo": 120.0
            },
            {
                "start_time": 9.747727272727273,
                "end_time": 9.831818181818182,
                "pitch": 79,
                "velocity": 25,
                "duration": 0.084090909090909,
                "tempo": 120.0
            },
            {
                "start_time": 9.85,
                "end_time": 9.934090909090909,
                "pitch": 75,
                "velocity": 25,
                "duration": 0.084090909090909,
                "tempo": 120.0
            },
            {
                "start_time": 9.952272727272726,
                "end_time": 10.036363636363635,
                "pitch": 80,
                "velocity": 25,
                "duration": 0.084090909090909,
                "tempo": 120.0
            },
            {
                "start_time": 10.054545454545455,
                "end_time": 10.136363636363637,
                "pitch": 79,
                "velocity": 25,
                "duration": 0.08181818181818201,
                "tempo": 120.0
            },
            {
                "start_time": 10.152272727272727,
                "end_time": 10.23409090909091,
                "pitch": 75,
                "velocity": 25,
                "duration": 0.08181818181818201,
                "tempo": 120.0
            },
            {
                "start_time": 10.25,
                "end_time": 10.331818181818182,
                "pitch": 80,
                "velocity": 25,
                "duration": 0.08181818181818201,
                "tempo": 120.0
            },
            {
                "start_time": 10.347727272727273,
                "end_time": 10.429545454545455,
                "pitch": 79,
                "velocity": 25,
                "duration": 0.08181818181818201,
                "tempo": 120.0
            },
            {
                "start_time": 10.445454545454545,
                "end_time": 10.529545454545454,
                "pitch": 75,
                "velocity": 25,
                "duration": 0.084090909090909,
                "tempo": 120.0
            },
            {
                "start_time": 10.547727272727272,
                "end_time": 10.631818181818181,
                "pitch": 80,
                "velocity": 25,
                "duration": 0.084090909090909,
                "tempo": 120.0
            },
            {
                "start_time": 10.647727272727272,
                "end_time": 10.73181818181818,
                "pitch": 79,
                "velocity": 25,
                "duration": 0.084090909090909,
                "tempo": 120.0
            },
            {
                "start_time": 10.747727272727273,
                "end_time": 10.831818181818182,
                "pitch": 75,
                "velocity": 25,
                "duration": 0.084090909090909,
                "tempo": 120.0
            },
            {
                "start_time": 10.85,
                "end_time": 10.934090909090909,
                "pitch": 80,
                "velocity": 25,
                "duration": 0.084090909090909,
                "tempo": 120.0
            },
            {
                "start_time": 10.952272727272726,
                "end_time": 11.038636363636362,
                "pitch": 79,
                "velocity": 25,
                "duration": 0.08636363636363598,
                "tempo": 120.0
            },
            {
                "start_time": 11.054545454545455,
                "end_time": 11.14090909090909,
                "pitch": 75,
                "velocity": 25,
                "duration": 0.08636363636363598,
                "tempo": 120.0
            },
            {
                "start_time": 11.156818181818181,
                "end_time": 11.243181818181817,
                "pitch": 80,
                "velocity": 25,
                "duration": 0.08636363636363598,
                "tempo": 120.0
            },
            {
                "start_time": 11.259090909090908,
                "end_time": 11.343181818181817,
                "pitch": 79,
                "velocity": 25,
                "duration": 0.084090909090909,
                "tempo": 120.0
            },
            {
                "start_time": 11.35909090909091,
                "end_time": 11.443181818181818,
                "pitch": 75,
                "velocity": 25,
                "duration": 0.084090909090909,
                "tempo": 120.0
            },
            {
                "start_time": 11.459090909090909,
                "end_time": 11.543181818181818,
                "pitch": 80,
                "velocity": 25,
                "duration": 0.084090909090909,
                "tempo": 120.0
            },
            {
                "start_time": 11.559090909090909,
                "end_time": 11.643181818181818,
                "pitch": 79,
                "velocity": 25,
                "duration": 0.084090909090909,
                "tempo": 120.0
            },
            {
                "start_time": 11.659090909090908,
                "end_time": 11.74090909090909,
                "pitch": 75,
                "velocity": 25,
                "duration": 0.08181818181818201,
                "tempo": 120.0
            },
            {
                "start_time": 11.756818181818181,
                "end_time": 11.838636363636363,
                "pitch": 80,
                "velocity": 25,
                "duration": 0.08181818181818201,
                "tempo": 120.0
            },
            {
                "start_time": 11.854545454545454,
                "end_time": 11.936363636363636,
                "pitch": 79,
                "velocity": 25,
                "duration": 0.08181818181818201,
                "tempo": 120.0
            },
            {
                "start_time": 11.954545454545453,
                "end_time": 12.036363636363635,
                "pitch": 75,
                "velocity": 25,
                "duration": 0.08181818181818201,
                "tempo": 120.0
            },
            {
                "start_time": 12.052272727272726,
                "end_time": 12.136363636363635,
                "pitch": 80,
                "velocity": 25,
                "duration": 0.084090909090909,
                "tempo": 120.0
            },
            {
                "start_time": 12.152272727272727,
                "end_time": 12.236363636363636,
                "pitch": 79,
                "velocity": 25,
                "duration": 0.084090909090909,
                "tempo": 120.0
            },
            {
                "start_time": 12.254545454545454,
                "end_time": 12.338636363636363,
                "pitch": 75,
                "velocity": 25,
                "duration": 0.084090909090909,
                "tempo": 120.0
            },
            {
                "start_time": 12.354545454545454,
                "end_time": 12.438636363636363,
                "pitch": 80,
                "velocity": 25,
                "duration": 0.084090909090909,
                "tempo": 120.0
            },
            {
                "start_time": 12.454545454545453,
                "end_time": 12.538636363636362,
                "pitch": 79,
                "velocity": 25,
                "duration": 0.084090909090909,
                "tempo": 120.0
            },
            {
                "start_time": 12.554545454545455,
                "end_time": 12.638636363636364,
                "pitch": 75,
                "velocity": 25,
                "duration": 0.084090909090909,
                "tempo": 120.0
            },
            {
                "start_time": 12.656818181818181,
                "end_time": 12.74090909090909,
                "pitch": 80,
                "velocity": 25,
                "duration": 0.084090909090909,
                "tempo": 120.0
            },
            {
                "start_time": 12.756818181818181,
                "end_time": 12.84090909090909,
                "pitch": 79,
                "velocity": 25,
                "duration": 0.084090909090909,
                "tempo": 120.0
            },
            {
                "start_time": 12.85909090909091,
                "end_time": 12.943181818181818,
                "pitch": 75,
                "velocity": 25,
                "duration": 0.084090909090909,
                "tempo": 120.0
            },
            {
                "start_time": 12.961363636363636,
                "end_time": 13.045454545454545,
                "pitch": 73,
                "velocity": 25,
                "duration": 0.084090909090909,
                "tempo": 120.0
            },
            {
                "start_time": 13.063636363636363,
                "end_time": 13.149999999999999,
                "pitch": 78,
                "velocity": 25,
                "duration": 0.08636363636363598,
                "tempo": 120.0
            },
            {
                "start_time": 13.165909090909091,
                "end_time": 13.252272727272727,
                "pitch": 77,
                "velocity": 25,
                "duration": 0.08636363636363598,
                "tempo": 120.0
            },
            {
                "start_time": 13.268181818181818,
                "end_time": 13.35,
                "pitch": 73,
                "velocity": 25,
                "duration": 0.08181818181818201,
                "tempo": 120.0
            },
            {
                "start_time": 13.36590909090909,
                "end_time": 13.447727272727272,
                "pitch": 75,
                "velocity": 25,
                "duration": 0.08181818181818201,
                "tempo": 120.0
            },
            {
                "start_time": 13.463636363636363,
                "end_time": 13.545454545454545,
                "pitch": 78,
                "velocity": 25,
                "duration": 0.08181818181818201,
                "tempo": 120.0
            },
            {
                "start_time": 13.561363636363636,
                "end_time": 13.643181818181818,
                "pitch": 77,
                "velocity": 25,
                "duration": 0.08181818181818201,
                "tempo": 120.0
            },
            {
                "start_time": 13.661363636363635,
                "end_time": 13.745454545454544,
                "pitch": 73,
                "velocity": 25,
                "duration": 0.084090909090909,
                "tempo": 120.0
            },
            {
                "start_time": 13.761363636363635,
                "end_time": 13.845454545454544,
                "pitch": 75,
                "velocity": 25,
                "duration": 0.084090909090909,
                "tempo": 120.0
            },
            {
                "start_time": 13.861363636363636,
                "end_time": 13.945454545454545,
                "pitch": 78,
                "velocity": 25,
                "duration": 0.084090909090909,
                "tempo": 120.0
            },
            {
                "start_time": 13.963636363636363,
                "end_time": 14.045454545454545,
                "pitch": 77,
                "velocity": 25,
                "duration": 0.08181818181818201,
                "tempo": 120.0
            },
            {
                "start_time": 14.063636363636363,
                "end_time": 14.149999999999999,
                "pitch": 73,
                "velocity": 25,
                "duration": 0.08636363636363598,
                "tempo": 120.0
            },
            {
                "start_time": 14.165909090909091,
                "end_time": 14.252272727272727,
                "pitch": 75,
                "velocity": 25,
                "duration": 0.08636363636363598,
                "tempo": 120.0
            },
            {
                "start_time": 14.268181818181818,
                "end_time": 14.354545454545454,
                "pitch": 78,
                "velocity": 25,
                "duration": 0.08636363636363598,
                "tempo": 120.0
            },
            {
                "start_time": 14.372727272727271,
                "end_time": 14.45681818181818,
                "pitch": 77,
                "velocity": 25,
                "duration": 0.084090909090909,
                "tempo": 120.0
            },
            {
                "start_time": 14.475,
                "end_time": 14.559090909090909,
                "pitch": 73,
                "velocity": 25,
                "duration": 0.084090909090909,
                "tempo": 120.0
            },
            {
                "start_time": 14.575,
                "end_time": 14.659090909090908,
                "pitch": 75,
                "velocity": 25,
                "duration": 0.084090909090909,
                "tempo": 120.0
            },
            {
                "start_time": 14.674999999999999,
                "end_time": 14.759090909090908,
                "pitch": 78,
                "velocity": 25,
                "duration": 0.084090909090909,
                "tempo": 120.0
            },
            {
                "start_time": 14.777272727272727,
                "end_time": 14.859090909090908,
                "pitch": 77,
                "velocity": 25,
                "duration": 0.08181818181818024,
                "tempo": 120.0
            },
            {
                "start_time": 14.877272727272727,
                "end_time": 14.95681818181818,
                "pitch": 73,
                "velocity": 25,
                "duration": 0.07954545454545325,
                "tempo": 120.0
            },
            {
                "start_time": 14.975,
                "end_time": 15.056818181818182,
                "pitch": 75,
                "velocity": 25,
                "duration": 0.08181818181818201,
                "tempo": 120.0
            },
            {
                "start_time": 15.072727272727272,
                "end_time": 15.154545454545454,
                "pitch": 78,
                "velocity": 25,
                "duration": 0.08181818181818201,
                "tempo": 120.0
            },
            {
                "start_time": 15.170454545454545,
                "end_time": 15.252272727272727,
                "pitch": 77,
                "velocity": 25,
                "duration": 0.08181818181818201,
                "tempo": 120.0
            },
            {
                "start_time": 15.268181818181818,
                "end_time": 15.352272727272727,
                "pitch": 73,
                "velocity": 25,
                "duration": 0.084090909090909,
                "tempo": 120.0
            },
            {
                "start_time": 15.370454545454544,
                "end_time": 15.454545454545453,
                "pitch": 75,
                "velocity": 25,
                "duration": 0.084090909090909,
                "tempo": 120.0
            },
            {
                "start_time": 15.470454545454544,
                "end_time": 15.554545454545455,
                "pitch": 78,
                "velocity": 25,
                "duration": 0.08409090909091077,
                "tempo": 120.0
            },
            {
                "start_time": 15.570454545454545,
                "end_time": 15.654545454545454,
                "pitch": 77,
                "velocity": 25,
                "duration": 0.084090909090909,
                "tempo": 120.0
            },
            {
                "start_time": 15.672727272727272,
                "end_time": 15.754545454545454,
                "pitch": 73,
                "velocity": 25,
                "duration": 0.08181818181818201,
                "tempo": 120.0
            },
            {
                "start_time": 15.772727272727272,
                "end_time": 15.85681818181818,
                "pitch": 75,
                "velocity": 25,
                "duration": 0.084090909090909,
                "tempo": 120.0
            },
            {
                "start_time": 15.872727272727271,
                "end_time": 15.95681818181818,
                "pitch": 78,
                "velocity": 25,
                "duration": 0.084090909090909,
                "tempo": 120.0
            },
            {
                "start_time": 15.972727272727273,
                "end_time": 16.05681818181818,
                "pitch": 77,
                "velocity": 25,
                "duration": 0.08409090909090722,
                "tempo": 120.0
            },
            {
                "start_time": 16.075,
                "end_time": 16.161363636363635,
                "pitch": 73,
                "velocity": 25,
                "duration": 0.08636363636363598,
                "tempo": 120.0
            },
            {
                "start_time": 16.177272727272726,
                "end_time": 16.263636363636362,
                "pitch": 75,
                "velocity": 25,
                "duration": 0.08636363636363598,
                "tempo": 120.0
            },
            {
                "start_time": 16.279545454545453,
                "end_time": 16.36590909090909,
                "pitch": 78,
                "velocity": 25,
                "duration": 0.08636363636363598,
                "tempo": 120.0
            },
            {
                "start_time": 16.384090909090908,
                "end_time": 16.46818181818182,
                "pitch": 77,
                "velocity": 25,
                "duration": 0.08409090909091077,
                "tempo": 120.0
            },
            {
                "start_time": 16.48409090909091,
                "end_time": 16.56590909090909,
                "pitch": 73,
                "velocity": 25,
                "duration": 0.08181818181818201,
                "tempo": 120.0
            },
            {
                "start_time": 16.581818181818182,
                "end_time": 16.663636363636364,
                "pitch": 75,
                "velocity": 25,
                "duration": 0.08181818181818201,
                "tempo": 120.0
            },
            {
                "start_time": 16.679545454545455,
                "end_time": 16.761363636363637,
                "pitch": 78,
                "velocity": 25,
                "duration": 0.08181818181818201,
                "tempo": 120.0
            },
            {
                "start_time": 16.779545454545453,
                "end_time": 16.861363636363635,
                "pitch": 77,
                "velocity": 25,
                "duration": 0.08181818181818201,
                "tempo": 120.0
            },
            {
                "start_time": 16.877272727272725,
                "end_time": 16.961363636363636,
                "pitch": 73,
                "velocity": 25,
                "duration": 0.08409090909091077,
                "tempo": 120.0
            },
            {
                "start_time": 16.977272727272727,
                "end_time": 17.061363636363634,
                "pitch": 75,
                "velocity": 25,
                "duration": 0.08409090909090722,
                "tempo": 120.0
            },
            {
                "start_time": 17.077272727272728,
                "end_time": 17.161363636363635,
                "pitch": 78,
                "velocity": 25,
                "duration": 0.08409090909090722,
                "tempo": 120.0
            },
            {
                "start_time": 17.177272727272726,
                "end_time": 17.261363636363637,
                "pitch": 77,
                "velocity": 25,
                "duration": 0.08409090909091077,
                "tempo": 120.0
            },
            {
                "start_time": 17.277272727272727,
                "end_time": 17.363636363636363,
                "pitch": 73,
                "velocity": 25,
                "duration": 0.08636363636363598,
                "tempo": 120.0
            },
            {
                "start_time": 17.379545454545454,
                "end_time": 17.46590909090909,
                "pitch": 75,
                "velocity": 25,
                "duration": 0.08636363636363598,
                "tempo": 120.0
            },
            {
                "start_time": 17.48409090909091,
                "end_time": 17.568181818181817,
                "pitch": 78,
                "velocity": 25,
                "duration": 0.08409090909090722,
                "tempo": 120.0
            },
            {
                "start_time": 17.586363636363636,
                "end_time": 17.670454545454543,
                "pitch": 77,
                "velocity": 25,
                "duration": 0.08409090909090722,
                "tempo": 120.0
            },
            {
                "start_time": 17.688636363636363,
                "end_time": 17.772727272727273,
                "pitch": 73,
                "velocity": 25,
                "duration": 0.08409090909091077,
                "tempo": 120.0
            },
            {
                "start_time": 17.788636363636364,
                "end_time": 17.87272727272727,
                "pitch": 75,
                "velocity": 25,
                "duration": 0.08409090909090722,
                "tempo": 120.0
            },
            {
                "start_time": 17.888636363636362,
                "end_time": 17.972727272727273,
                "pitch": 78,
                "velocity": 25,
                "duration": 0.08409090909091077,
                "tempo": 120.0
            },
            {
                "start_time": 17.99090909090909,
                "end_time": 18.075,
                "pitch": 77,
                "velocity": 25,
                "duration": 0.08409090909091077,
                "tempo": 120.0
            },
            {
                "start_time": 18.09090909090909,
                "end_time": 18.172727272727272,
                "pitch": 73,
                "velocity": 25,
                "duration": 0.08181818181818201,
                "tempo": 120.0
            },
            {
                "start_time": 18.188636363636363,
                "end_time": 18.270454545454545,
                "pitch": 75,
                "velocity": 25,
                "duration": 0.08181818181818201,
                "tempo": 120.0
            },
            {
                "start_time": 18.286363636363635,
                "end_time": 18.368181818181817,
                "pitch": 78,
                "velocity": 25,
                "duration": 0.08181818181818201,
                "tempo": 120.0
            },
            {
                "start_time": 18.384090909090908,
                "end_time": 18.46590909090909,
                "pitch": 77,
                "velocity": 25,
                "duration": 0.08181818181818201,
                "tempo": 120.0
            },
            {
                "start_time": 18.48409090909091,
                "end_time": 18.56590909090909,
                "pitch": 73,
                "velocity": 25,
                "duration": 0.08181818181818201,
                "tempo": 120.0
            },
            {
                "start_time": 18.584090909090907,
                "end_time": 18.668181818181818,
                "pitch": 75,
                "velocity": 25,
                "duration": 0.08409090909091077,
                "tempo": 120.0
            },
            {
                "start_time": 18.68409090909091,
                "end_time": 18.768181818181816,
                "pitch": 78,
                "velocity": 25,
                "duration": 0.08409090909090722,
                "tempo": 120.0
            },
            {
                "start_time": 18.784090909090907,
                "end_time": 18.868181818181817,
                "pitch": 77,
                "velocity": 25,
                "duration": 0.08409090909091077,
                "tempo": 120.0
            },
            {
                "start_time": 18.886363636363637,
                "end_time": 18.96818181818182,
                "pitch": 73,
                "velocity": 25,
                "duration": 0.08181818181818201,
                "tempo": 120.0
            },
            {
                "start_time": 18.986363636363635,
                "end_time": 19.068181818181817,
                "pitch": 75,
                "velocity": 25,
                "duration": 0.08181818181818201,
                "tempo": 120.0
            },
            {
                "start_time": 19.086363636363636,
                "end_time": 19.168181818181818,
                "pitch": 78,
                "velocity": 25,
                "duration": 0.08181818181818201,
                "tempo": 120.0
            },
            {
                "start_time": 19.186363636363634,
                "end_time": 19.268181818181816,
                "pitch": 77,
                "velocity": 25,
                "duration": 0.08181818181818201,
                "tempo": 120.0
            },
            {
                "start_time": 19.286363636363635,
                "end_time": 19.37272727272727,
                "pitch": 75,
                "velocity": 25,
                "duration": 0.08636363636363598,
                "tempo": 120.0
            },
            {
                "start_time": 19.388636363636362,
                "end_time": 19.474999999999998,
                "pitch": 83,
                "velocity": 25,
                "duration": 0.08636363636363598,
                "tempo": 120.0
            },
            {
                "start_time": 19.49090909090909,
                "end_time": 19.577272727272728,
                "pitch": 89,
                "velocity": 25,
                "duration": 0.08636363636363953,
                "tempo": 120.0
            },
            {
                "start_time": 19.59318181818182,
                "end_time": 19.679545454545455,
                "pitch": 90,
                "velocity": 25,
                "duration": 0.08636363636363598,
                "tempo": 120.0
            },
            {
                "start_time": 19.69772727272727,
                "end_time": 19.779545454545453,
                "pitch": 83,
                "velocity": 25,
                "duration": 0.08181818181818201,
                "tempo": 120.0
            },
            {
                "start_time": 19.797727272727272,
                "end_time": 19.88181818181818,
                "pitch": 89,
                "velocity": 25,
                "duration": 0.08409090909090722,
                "tempo": 120.0
            },
            {
                "start_time": 19.897727272727273,
                "end_time": 19.98181818181818,
                "pitch": 90,
                "velocity": 25,
                "duration": 0.08409090909090722,
                "tempo": 120.0
            },
            {
                "start_time": 19.99772727272727,
                "end_time": 20.081818181818182,
                "pitch": 92,
                "velocity": 25,
                "duration": 0.08409090909091077,
                "tempo": 120.0
            },
            {
                "start_time": 20.099999999999998,
                "end_time": 20.18181818181818,
                "pitch": 91,
                "velocity": 25,
                "duration": 0.08181818181818201,
                "tempo": 120.0
            },
            {
                "start_time": 20.2,
                "end_time": 20.28181818181818,
                "pitch": 90,
                "velocity": 25,
                "duration": 0.08181818181818201,
                "tempo": 120.0
            },
            {
                "start_time": 20.3,
                "end_time": 20.38181818181818,
                "pitch": 89,
                "velocity": 25,
                "duration": 0.08181818181817846,
                "tempo": 120.0
            },
            {
                "start_time": 20.4,
                "end_time": 20.48181818181818,
                "pitch": 88,
                "velocity": 25,
                "duration": 0.08181818181818201,
                "tempo": 120.0
            },
            {
                "start_time": 20.5,
                "end_time": 20.581818181818182,
                "pitch": 87,
                "velocity": 25,
                "duration": 0.08181818181818201,
                "tempo": 120.0
            },
            {
                "start_time": 20.599999999999998,
                "end_time": 20.68181818181818,
                "pitch": 83,
                "velocity": 25,
                "duration": 0.08181818181818201,
                "tempo": 120.0
            },
            {
                "start_time": 20.7,
                "end_time": 20.78181818181818,
                "pitch": 89,
                "velocity": 25,
                "duration": 0.08181818181818201,
                "tempo": 120.0
            },
            {
                "start_time": 20.8,
                "end_time": 20.88181818181818,
                "pitch": 90,
                "velocity": 25,
                "duration": 0.08181818181817846,
                "tempo": 120.0
            },
            {
                "start_time": 20.9,
                "end_time": 20.98409090909091,
                "pitch": 83,
                "velocity": 25,
                "duration": 0.08409090909091077,
                "tempo": 120.0
            },
            {
                "start_time": 21.0,
                "end_time": 21.084090909090907,
                "pitch": 89,
                "velocity": 25,
                "duration": 0.08409090909090722,
                "tempo": 120.0
            },
            {
                "start_time": 21.099999999999998,
                "end_time": 21.18409090909091,
                "pitch": 90,
                "velocity": 25,
                "duration": 0.08409090909091077,
                "tempo": 120.0
            },
            {
                "start_time": 21.202272727272724,
                "end_time": 21.286363636363635,
                "pitch": 92,
                "velocity": 25,
                "duration": 0.08409090909091077,
                "tempo": 120.0
            },
            {
                "start_time": 21.302272727272726,
                "end_time": 21.386363636363637,
                "pitch": 91,
                "velocity": 25,
                "duration": 0.08409090909091077,
                "tempo": 120.0
            },
            {
                "start_time": 21.402272727272727,
                "end_time": 21.486363636363635,
                "pitch": 90,
                "velocity": 25,
                "duration": 0.08409090909090722,
                "tempo": 120.0
            },
            {
                "start_time": 21.502272727272725,
                "end_time": 21.586363636363636,
                "pitch": 89,
                "velocity": 25,
                "duration": 0.08409090909091077,
                "tempo": 120.0
            },
            {
                "start_time": 21.602272727272727,
                "end_time": 21.686363636363634,
                "pitch": 88,
                "velocity": 25,
                "duration": 0.08409090909090722,
                "tempo": 120.0
            },
            {
                "start_time": 21.702272727272724,
                "end_time": 21.786363636363635,
                "pitch": 87,
                "velocity": 25,
                "duration": 0.08409090909091077,
                "tempo": 120.0
            },
            {
                "start_time": 21.802272727272726,
                "end_time": 22.581818181818182,
                "pitch": 68,
                "velocity": 25,
                "duration": 0.7795454545454561,
                "tempo": 120.0
            },
            {
                "start_time": 22.597727272727273,
                "end_time": 22.986363636363635,
                "pitch": 71,
                "velocity": 25,
                "duration": 0.3886363636363619,
                "tempo": 120.0
            },
            {
                "start_time": 23.002272727272725,
                "end_time": 23.39090909090909,
                "pitch": 73,
                "velocity": 25,
                "duration": 0.38863636363636545,
                "tempo": 120.0
            },
            {
                "start_time": 23.40681818181818,
                "end_time": 24.99090909090909,
                "pitch": 70,
                "velocity": 25,
                "duration": 1.5840909090909072,
                "tempo": 120.0
            },
            {
                "start_time": 25.009090909090908,
                "end_time": 25.793181818181818,
                "pitch": 68,
                "velocity": 25,
                "duration": 0.7840909090909101,
                "tempo": 120.0
            },
            {
                "start_time": 25.811363636363634,
                "end_time": 26.202272727272724,
                "pitch": 71,
                "velocity": 25,
                "duration": 0.39090909090909065,
                "tempo": 120.0
            },
            {
                "start_time": 26.218181818181815,
                "end_time": 26.602272727272727,
                "pitch": 73,
                "velocity": 25,
                "duration": 0.3840909090909115,
                "tempo": 120.0
            },
            {
                "start_time": 26.618181818181817,
                "end_time": 28.2,
                "pitch": 70,
                "velocity": 25,
                "duration": 1.581818181818182,
                "tempo": 120.0
            },
            {
                "start_time": 28.218181818181815,
                "end_time": 29.0,
                "pitch": 68,
                "velocity": 25,
                "duration": 0.7818181818181849,
                "tempo": 120.0
            },
            {
                "start_time": 29.01590909090909,
                "end_time": 29.402272727272727,
                "pitch": 71,
                "velocity": 25,
                "duration": 0.3863636363636367,
                "tempo": 120.0
            },
            {
                "start_time": 29.420454545454543,
                "end_time": 29.80909090909091,
                "pitch": 73,
                "velocity": 25,
                "duration": 0.38863636363636545,
                "tempo": 120.0
            },
            {
                "start_time": 29.825,
                "end_time": 31.409090909090907,
                "pitch": 70,
                "velocity": 25,
                "duration": 1.5840909090909072,
                "tempo": 120.0
            },
            {
                "start_time": 31.424999999999997,
                "end_time": 32.211363636363636,
                "pitch": 68,
                "velocity": 25,
                "duration": 0.7863636363636388,
                "tempo": 120.0
            },
            {
                "start_time": 32.22727272727273,
                "end_time": 32.61818181818182,
                "pitch": 71,
                "velocity": 25,
                "duration": 0.39090909090909065,
                "tempo": 120.0
            },
            {
                "start_time": 32.63636363636363,
                "end_time": 33.018181818181816,
                "pitch": 73,
                "velocity": 25,
                "duration": 0.3818181818181827,
                "tempo": 120.0
            },
            {
                "start_time": 33.03636363636363,
                "end_time": 34.61590909090909,
                "pitch": 70,
                "velocity": 25,
                "duration": 1.5795454545454604,
                "tempo": 120.0
            },
            {
                "start_time": 34.63409090909091,
                "end_time": 34.720454545454544,
                "pitch": 83,
                "velocity": 25,
                "duration": 0.08636363636363598,
                "tempo": 120.0
            },
            {
                "start_time": 34.75454545454545,
                "end_time": 34.82272727272727,
                "pitch": 89,
                "velocity": 25,
                "duration": 0.06818181818182012,
                "tempo": 120.0
            },
            {
                "start_time": 34.83863636363636,
                "end_time": 34.925,
                "pitch": 90,
                "velocity": 25,
                "duration": 0.08636363636363598,
                "tempo": 120.0
            },
            {
                "start_time": 34.94090909090909,
                "end_time": 35.025,
                "pitch": 83,
                "velocity": 25,
                "duration": 0.08409090909091077,
                "tempo": 120.0
            },
            {
                "start_time": 35.04090909090909,
                "end_time": 35.125,
                "pitch": 89,
                "velocity": 25,
                "duration": 0.08409090909091077,
                "tempo": 120.0
            },
            {
                "start_time": 35.14090909090909,
                "end_time": 35.225,
                "pitch": 90,
                "velocity": 25,
                "duration": 0.08409090909091077,
                "tempo": 120.0
            },
            {
                "start_time": 35.24090909090909,
                "end_time": 35.324999999999996,
                "pitch": 92,
                "velocity": 25,
                "duration": 0.08409090909090366,
                "tempo": 120.0
            },
            {
                "start_time": 35.340909090909086,
                "end_time": 35.425,
                "pitch": 91,
                "velocity": 25,
                "duration": 0.08409090909091077,
                "tempo": 120.0
            },
            {
                "start_time": 35.44318181818181,
                "end_time": 35.527272727272724,
                "pitch": 90,
                "velocity": 25,
                "duration": 0.08409090909091077,
                "tempo": 120.0
            },
            {
                "start_time": 35.543181818181814,
                "end_time": 35.627272727272725,
                "pitch": 89,
                "velocity": 25,
                "duration": 0.08409090909091077,
                "tempo": 120.0
            },
            {
                "start_time": 35.643181818181816,
                "end_time": 35.72727272727273,
                "pitch": 88,
                "velocity": 25,
                "duration": 0.08409090909091077,
                "tempo": 120.0
            },
            {
                "start_time": 35.74545454545454,
                "end_time": 35.82727272727273,
                "pitch": 87,
                "velocity": 25,
                "duration": 0.08181818181818556,
                "tempo": 120.0
            },
            {
                "start_time": 35.845454545454544,
                "end_time": 35.92727272727272,
                "pitch": 83,
                "velocity": 25,
                "duration": 0.08181818181817846,
                "tempo": 120.0
            },
            {
                "start_time": 35.945454545454545,
                "end_time": 36.027272727272724,
                "pitch": 89,
                "velocity": 25,
                "duration": 0.08181818181817846,
                "tempo": 120.0
            },
            {
                "start_time": 36.04545454545455,
                "end_time": 36.127272727272725,
                "pitch": 90,
                "velocity": 25,
                "duration": 0.08181818181817846,
                "tempo": 120.0
            },
            {
                "start_time": 36.14545454545454,
                "end_time": 36.22727272727273,
                "pitch": 83,
                "velocity": 25,
                "duration": 0.08181818181818556,
                "tempo": 120.0
            },
            {
                "start_time": 36.24545454545454,
                "end_time": 36.32727272727273,
                "pitch": 89,
                "velocity": 25,
                "duration": 0.08181818181818556,
                "tempo": 120.0
            },
            {
                "start_time": 36.345454545454544,
                "end_time": 36.42727272727272,
                "pitch": 90,
                "velocity": 25,
                "duration": 0.08181818181817846,
                "tempo": 120.0
            },
            {
                "start_time": 36.445454545454545,
                "end_time": 36.527272727272724,
                "pitch": 92,
                "velocity": 25,
                "duration": 0.08181818181817846,
                "tempo": 120.0
            },
            {
                "start_time": 36.54545454545455,
                "end_time": 36.627272727272725,
                "pitch": 91,
                "velocity": 25,
                "duration": 0.08181818181817846,
                "tempo": 120.0
            },
            {
                "start_time": 36.64545454545454,
                "end_time": 36.72727272727273,
                "pitch": 90,
                "velocity": 25,
                "duration": 0.08181818181818556,
                "tempo": 120.0
            },
            {
                "start_time": 36.74545454545454,
                "end_time": 36.82727272727273,
                "pitch": 89,
                "velocity": 25,
                "duration": 0.08181818181818556,
                "tempo": 120.0
            },
            {
                "start_time": 36.845454545454544,
                "end_time": 36.92727272727272,
                "pitch": 88,
                "velocity": 25,
                "duration": 0.08181818181817846,
                "tempo": 120.0
            },
            {
                "start_time": 36.945454545454545,
                "end_time": 37.027272727272724,
                "pitch": 87,
                "velocity": 25,
                "duration": 0.08181818181817846,
                "tempo": 120.0
            },
            {
                "start_time": 37.04545454545455,
                "end_time": 37.820454545454545,
                "pitch": 68,
                "velocity": 25,
                "duration": 0.7749999999999986,
                "tempo": 120.0
            },
            {
                "start_time": 37.836363636363636,
                "end_time": 38.225,
                "pitch": 71,
                "velocity": 25,
                "duration": 0.38863636363636545,
                "tempo": 120.0
            },
            {
                "start_time": 38.24318181818182,
                "end_time": 38.63409090909091,
                "pitch": 73,
                "velocity": 25,
                "duration": 0.39090909090909065,
                "tempo": 120.0
            },
            {
                "start_time": 38.65,
                "end_time": 40.111363636363635,
                "pitch": 70,
                "velocity": 25,
                "duration": 1.461363636363636,
                "tempo": 120.0
            }
        ]
    }
}