{
    "track_id": "Zaxxon 3-D (FM) - 04 - Boss",
    "mood": "angry",
    "instruments": {
        "Electric Guitar (clean)": [
            {
                "start_time": 0.0,
                "end_time": 0.3659090909090909,
                "pitch": 30,
                "velocity": 51,
                "duration": 0.3659090909090909,
                "tempo": 120.0
            },
            {
                "start_time": 0.3840909090909091,
                "end_time": 0.7659090909090909,
                "pitch": 30,
                "velocity": 51,
                "duration": 0.3818181818181818,
                "tempo": 120.0
            },
            {
                "start_time": 0.7840909090909091,
                "end_time": 1.15,
                "pitch": 30,
                "velocity": 51,
                "duration": 0.36590909090909085,
                "tempo": 120.0
            },
            {
                "start_time": 1.1659090909090908,
                "end_time": 1.5477272727272726,
                "pitch": 30,
                "velocity": 51,
                "duration": 0.38181818181818183,
                "tempo": 120.0
            },
            {
                "start_time": 1.565909090909091,
                "end_time": 1.959090909090909,
                "pitch": 30,
                "velocity": 51,
                "duration": 0.3931818181818181,
                "tempo": 120.0
            },
            {
                "start_time": 1.977272727272727,
                "end_time": 2.370454545454545,
                "pitch": 30,
                "velocity": 51,
                "duration": 0.3931818181818181,
                "tempo": 120.0
            },
            {
                "start_time": 2.3863636363636362,
                "end_time": 2.752272727272727,
                "pitch": 30,
                "velocity": 51,
                "duration": 0.36590909090909074,
                "tempo": 120.0
            },
            {
                "start_time": 2.768181818181818,
                "end_time": 3.1522727272727273,
                "pitch": 30,
                "velocity": 51,
                "duration": 0.38409090909090926,
                "tempo": 120.0
            },
            {
                "start_time": 3.168181818181818,
                "end_time": 3.5727272727272728,
                "pitch": 30,
                "velocity": 51,
                "duration": 0.40454545454545476,
                "tempo": 120.0
            },
            {
                "start_time": 3.590909090909091,
                "end_time": 3.9749999999999996,
                "pitch": 30,
                "velocity": 51,
                "duration": 0.3840909090909088,
                "tempo": 120.0
            },
            {
                "start_time": 3.9909090909090907,
                "end_time": 4.3568181818181815,
                "pitch": 30,
                "velocity": 51,
                "duration": 0.36590909090909074,
                "tempo": 120.0
            },
            {
                "start_time": 4.375,
                "end_time": 4.756818181818182,
                "pitch": 30,
                "velocity": 51,
                "duration": 0.38181818181818183,
                "tempo": 120.0
            },
            {
                "start_time": 4.7749999999999995,
                "end_time": 5.168181818181818,
                "pitch": 30,
                "velocity": 51,
                "duration": 0.3931818181818185,
                "tempo": 120.0
            },
            {
                "start_time": 5.184090909090909,
                "end_time": 5.579545454545454,
                "pitch": 30,
                "velocity": 51,
                "duration": 0.3954545454545455,
                "tempo": 120.0
            },
            {
                "start_time": 5.595454545454545,
                "end_time": 5.961363636363636,
                "pitch": 30,
                "velocity": 51,
                "duration": 0.3659090909090912,
                "tempo": 120.0
            },
            {
                "start_time": 5.977272727272727,
                "end_time": 6.363636363636363,
                "pitch": 30,
                "velocity": 51,
                "duration": 0.3863636363636367,
                "tempo": 120.0
            },
            {
                "start_time": 6.379545454545454,
                "end_time": 6.784090909090909,
                "pitch": 33,
                "velocity": 51,
                "duration": 0.4045454545454552,
                "tempo": 120.0
            },
            {
                "start_time": 6.802272727272727,
                "end_time": 7.186363636363636,
                "pitch": 33,
                "velocity": 51,
                "duration": 0.3840909090909088,
                "tempo": 120.0
            },
            {
                "start_time": 7.202272727272727,
                "end_time": 7.5681818181818175,
                "pitch": 33,
                "velocity": 51,
                "duration": 0.3659090909090903,
                "tempo": 120.0
            },
            {
                "start_time": 7.584090909090909,
                "end_time": 7.9795454545454545,
                "pitch": 33,
                "velocity": 51,
                "duration": 0.3954545454545455,
                "tempo": 120.0
            },
            {
                "start_time": 7.995454545454545,
                "end_time": 8.388636363636364,
                "pitch": 33,
                "velocity": 51,
                "duration": 0.3931818181818185,
                "tempo": 120.0
            },
            {
                "start_time": 8.406818181818181,
                "end_time": 8.793181818181818,
                "pitch": 33,
                "velocity": 51,
                "duration": 0.3863636363636367,
                "tempo": 120.0
            },
            {
                "start_time": 8.809090909090909,
                "end_time": 9.195454545454545,
                "pitch": 33,
                "velocity": 51,
                "duration": 0.3863636363636367,
                "tempo": 120.0
            },
            {
                "start_time": 9.211363636363636,
                "end_time": 9.595454545454546,
                "pitch": 33,
                "velocity": 51,
                "duration": 0.3840909090909097,
                "tempo": 120.0
            },
            {
                "start_time": 9.611363636363636,
                "end_time": 9.997727272727273,
                "pitch": 33,
                "velocity": 51,
                "duration": 0.3863636363636367,
                "tempo": 120.0
            },
            {
                "start_time": 10.01590909090909,
                "end_time": 10.39090909090909,
                "pitch": 33,
                "velocity": 51,
                "duration": 0.375,
                "tempo": 120.0
            },
            {
                "start_time": 10.406818181818181,
                "end_time": 10.784090909090908,
                "pitch": 33,
                "velocity": 51,
                "duration": 0.377272727272727,
                "tempo": 120.0
            },
            {
                "start_time": 10.799999999999999,
                "end_time": 11.193181818181818,
                "pitch": 33,
                "velocity": 51,
                "duration": 0.3931818181818194,
                "tempo": 120.0
            },
            {
                "start_time": 11.209090909090909,
                "end_time": 11.604545454545454,
                "pitch": 33,
                "velocity": 51,
                "duration": 0.3954545454545446,
                "tempo": 120.0
            },
            {
                "start_time": 11.620454545454544,
                "end_time": 12.006818181818181,
                "pitch": 33,
                "velocity": 51,
                "duration": 0.3863636363636367,
                "tempo": 120.0
            },
            {
                "start_time": 12.024999999999999,
                "end_time": 12.409090909090908,
                "pitch": 33,
                "velocity": 51,
                "duration": 0.3840909090909097,
                "tempo": 120.0
            },
            {
                "start_time": 12.427272727272726,
                "end_time": 12.813636363636363,
                "pitch": 33,
                "velocity": 51,
                "duration": 0.3863636363636367,
                "tempo": 120.0
            },
            {
                "start_time": 12.829545454545453,
                "end_time": 13.21590909090909,
                "pitch": 30,
                "velocity": 51,
                "duration": 0.3863636363636367,
                "tempo": 120.0
            },
            {
                "start_time": 13.23181818181818,
                "end_time": 13.609090909090908,
                "pitch": 30,
                "velocity": 51,
                "duration": 0.377272727272727,
                "tempo": 120.0
            },
            {
                "start_time": 13.625,
                "end_time": 14.0,
                "pitch": 30,
                "velocity": 51,
                "duration": 0.375,
                "tempo": 120.0
            },
            {
                "start_time": 14.01590909090909,
                "end_time": 14.402272727272727,
                "pitch": 30,
                "velocity": 51,
                "duration": 0.3863636363636367,
                "tempo": 120.0
            },
            {
                "start_time": 14.420454545454545,
                "end_time": 14.813636363636363,
                "pitch": 30,
                "velocity": 51,
                "duration": 0.39318181818181763,
                "tempo": 120.0
            },
            {
                "start_time": 14.829545454545453,
                "end_time": 15.225,
                "pitch": 30,
                "velocity": 51,
                "duration": 0.3954545454545464,
                "tempo": 120.0
            },
            {
                "start_time": 15.24090909090909,
                "end_time": 15.60681818181818,
                "pitch": 30,
                "velocity": 51,
                "duration": 0.3659090909090903,
                "tempo": 120.0
            },
            {
                "start_time": 15.622727272727271,
                "end_time": 16.009090909090908,
                "pitch": 30,
                "velocity": 51,
                "duration": 0.3863636363636367,
                "tempo": 120.0
            },
            {
                "start_time": 16.025,
                "end_time": 16.420454545454543,
                "pitch": 30,
                "velocity": 51,
                "duration": 0.3954545454545446,
                "tempo": 120.0
            },
            {
                "start_time": 16.436363636363634,
                "end_time": 16.82272727272727,
                "pitch": 30,
                "velocity": 51,
                "duration": 0.3863636363636367,
                "tempo": 120.0
            },
            {
                "start_time": 16.83863636363636,
                "end_time": 17.21590909090909,
                "pitch": 30,
                "velocity": 51,
                "duration": 0.37727272727272876,
                "tempo": 120.0
            },
            {
                "start_time": 17.23181818181818,
                "end_time": 17.61590909090909,
                "pitch": 30,
                "velocity": 51,
                "duration": 0.38409090909090793,
                "tempo": 120.0
            },
            {
                "start_time": 17.631818181818183,
                "end_time": 18.025,
                "pitch": 30,
                "velocity": 51,
                "duration": 0.39318181818181586,
                "tempo": 120.0
            },
            {
                "start_time": 18.043181818181818,
                "end_time": 18.436363636363634,
                "pitch": 30,
                "velocity": 51,
                "duration": 0.39318181818181586,
                "tempo": 120.0
            },
            {
                "start_time": 18.452272727272728,
                "end_time": 18.820454545454545,
                "pitch": 30,
                "velocity": 51,
                "duration": 0.3681818181818173,
                "tempo": 120.0
            },
            {
                "start_time": 18.836363636363636,
                "end_time": 19.220454545454544,
                "pitch": 30,
                "velocity": 51,
                "duration": 0.38409090909090793,
                "tempo": 120.0
            },
            {
                "start_time": 19.238636363636363,
                "end_time": 19.643181818181816,
                "pitch": 33,
                "velocity": 51,
                "duration": 0.40454545454545254,
                "tempo": 120.0
            },
            {
                "start_time": 19.659090909090907,
                "end_time": 20.036363636363635,
                "pitch": 33,
                "velocity": 51,
                "duration": 0.37727272727272876,
                "tempo": 120.0
            },
            {
                "start_time": 20.052272727272726,
                "end_time": 20.429545454545455,
                "pitch": 33,
                "velocity": 51,
                "duration": 0.37727272727272876,
                "tempo": 120.0
            },
            {
                "start_time": 20.445454545454545,
                "end_time": 20.83863636363636,
                "pitch": 33,
                "velocity": 51,
                "duration": 0.39318181818181586,
                "tempo": 120.0
            },
            {
                "start_time": 20.854545454545452,
                "end_time": 21.25,
                "pitch": 33,
                "velocity": 51,
                "duration": 0.39545454545454817,
                "tempo": 120.0
            },
            {
                "start_time": 21.26590909090909,
                "end_time": 21.65,
                "pitch": 33,
                "velocity": 51,
                "duration": 0.38409090909090793,
                "tempo": 120.0
            },
            {
                "start_time": 21.66590909090909,
                "end_time": 22.052272727272726,
                "pitch": 33,
                "velocity": 51,
                "duration": 0.3863636363636367,
                "tempo": 120.0
            },
            {
                "start_time": 22.070454545454545,
                "end_time": 22.452272727272724,
                "pitch": 33,
                "velocity": 51,
                "duration": 0.38181818181817917,
                "tempo": 120.0
            },
            {
                "start_time": 22.470454545454544,
                "end_time": 22.852272727272727,
                "pitch": 33,
                "velocity": 51,
                "duration": 0.3818181818181827,
                "tempo": 120.0
            },
            {
                "start_time": 22.870454545454546,
                "end_time": 23.254545454545454,
                "pitch": 33,
                "velocity": 51,
                "duration": 0.38409090909090793,
                "tempo": 120.0
            },
            {
                "start_time": 23.272727272727273,
                "end_time": 23.638636363636362,
                "pitch": 33,
                "velocity": 51,
                "duration": 0.3659090909090885,
                "tempo": 120.0
            },
            {
                "start_time": 23.654545454545453,
                "end_time": 24.047727272727272,
                "pitch": 33,
                "velocity": 51,
                "duration": 0.3931818181818194,
                "tempo": 120.0
            },
            {
                "start_time": 24.063636363636363,
                "end_time": 24.459090909090907,
                "pitch": 33,
                "velocity": 51,
                "duration": 0.3954545454545446,
                "tempo": 120.0
            },
            {
                "start_time": 24.474999999999998,
                "end_time": 24.85909090909091,
                "pitch": 33,
                "velocity": 51,
                "duration": 0.3840909090909115,
                "tempo": 120.0
            },
            {
                "start_time": 24.875,
                "end_time": 25.261363636363637,
                "pitch": 33,
                "velocity": 51,
                "duration": 0.3863636363636367,
                "tempo": 120.0
            },
            {
                "start_time": 25.279545454545453,
                "end_time": 25.661363636363635,
                "pitch": 33,
                "velocity": 51,
                "duration": 0.3818181818181827,
                "tempo": 120.0
            },
            {
                "start_time": 25.679545454545455,
                "end_time": 25.825,
                "pitch": 35,
                "velocity": 51,
                "duration": 0.14545454545454461,
                "tempo": 120.0
            },
            {
                "start_time": 25.84318181818182,
                "end_time": 26.02272727272727,
                "pitch": 33,
                "velocity": 51,
                "duration": 0.17954545454545112,
                "tempo": 120.0
            },
            {
                "start_time": 26.038636363636364,
                "end_time": 26.120454545454542,
                "pitch": 33,
                "velocity": 51,
                "duration": 0.08181818181817846,
                "tempo": 120.0
            },
            {
                "start_time": 26.138636363636362,
                "end_time": 26.320454545454545,
                "pitch": 35,
                "velocity": 51,
                "duration": 0.18181818181818343,
                "tempo": 120.0
            },
            {
                "start_time": 26.33863636363636,
                "end_time": 26.520454545454545,
                "pitch": 35,
                "velocity": 51,
                "duration": 0.18181818181818343,
                "tempo": 120.0
            },
            {
                "start_time": 26.536363636363635,
                "end_time": 26.618181818181817,
                "pitch": 35,
                "velocity": 51,
                "duration": 0.08181818181818201,
                "tempo": 120.0
            },
            {
                "start_time": 26.634090909090908,
                "end_time": 26.813636363636363,
                "pitch": 33,
                "velocity": 51,
                "duration": 0.17954545454545467,
                "tempo": 120.0
            },
            {
                "start_time": 26.829545454545453,
                "end_time": 26.913636363636364,
                "pitch": 33,
                "velocity": 51,
                "duration": 0.08409090909091077,
                "tempo": 120.0
            },
            {
                "start_time": 26.929545454545455,
                "end_time": 27.013636363636362,
                "pitch": 35,
                "velocity": 51,
                "duration": 0.08409090909090722,
                "tempo": 120.0
            },
            {
                "start_time": 28.868181818181817,
                "end_time": 29.052272727272726,
                "pitch": 33,
                "velocity": 51,
                "duration": 0.18409090909090864,
                "tempo": 120.0
            },
            {
                "start_time": 29.070454545454545,
                "end_time": 29.254545454545454,
                "pitch": 35,
                "velocity": 51,
                "duration": 0.18409090909090864,
                "tempo": 120.0
            },
            {
                "start_time": 29.270454545454545,
                "end_time": 29.459090909090907,
                "pitch": 38,
                "velocity": 51,
                "duration": 0.1886363636363626,
                "tempo": 120.0
            },
            {
                "start_time": 29.477272727272727,
                "end_time": 29.561363636363634,
                "pitch": 38,
                "velocity": 51,
                "duration": 0.08409090909090722,
                "tempo": 120.0
            },
            {
                "start_time": 29.579545454545453,
                "end_time": 29.861363636363635,
                "pitch": 33,
                "velocity": 51,
                "duration": 0.2818181818181813,
                "tempo": 120.0
            },
            {
                "start_time": 29.877272727272725,
                "end_time": 30.190909090909088,
                "pitch": 33,
                "velocity": 51,
                "duration": 0.3136363636363626,
                "tempo": 120.0
            },
            {
                "start_time": 30.209090909090907,
                "end_time": 30.459090909090907,
                "pitch": 34,
                "velocity": 51,
                "duration": 0.25,
                "tempo": 120.0
            },
            {
                "start_time": 30.477272727272727,
                "end_time": 30.88181818181818,
                "pitch": 30,
                "velocity": 51,
                "duration": 0.40454545454545254,
                "tempo": 120.0
            },
            {
                "start_time": 30.89772727272727,
                "end_time": 31.275,
                "pitch": 30,
                "velocity": 51,
                "duration": 0.37727272727272876,
                "tempo": 120.0
            },
            {
                "start_time": 31.29090909090909,
                "end_time": 31.66590909090909,
                "pitch": 30,
                "velocity": 51,
                "duration": 0.375,
                "tempo": 120.0
            },
            {
                "start_time": 31.68409090909091,
                "end_time": 32.06590909090909,
                "pitch": 30,
                "velocity": 51,
                "duration": 0.38181818181817917,
                "tempo": 120.0
            },
            {
                "start_time": 32.08409090909091,
                "end_time": 32.47727272727273,
                "pitch": 30,
                "velocity": 51,
                "duration": 0.39318181818181586,
                "tempo": 120.0
            },
            {
                "start_time": 32.49318181818182,
                "end_time": 32.888636363636365,
                "pitch": 30,
                "velocity": 51,
                "duration": 0.39545454545454817,
                "tempo": 120.0
            },
            {
                "start_time": 32.904545454545456,
                "end_time": 33.27045454545454,
                "pitch": 30,
                "velocity": 51,
                "duration": 0.36590909090908497,
                "tempo": 120.0
            },
            {
                "start_time": 33.28636363636363,
                "end_time": 33.684090909090905,
                "pitch": 30,
                "velocity": 51,
                "duration": 0.3977272727272734,
                "tempo": 120.0
            }
        ],
        "Oboe": [
            {
                "start_time": 0.08409090909090909,
                "end_time": 0.2659090909090909,
                "pitch": 42,
                "velocity": 25,
                "duration": 0.18181818181818177,
                "tempo": 120.0
            },
            {
                "start_time": 0.28409090909090906,
                "end_time": 0.4659090909090909,
                "pitch": 42,
                "velocity": 25,
                "duration": 0.18181818181818182,
                "tempo": 120.0
            },
            {
                "start_time": 0.48409090909090907,
                "end_time": 0.6659090909090909,
                "pitch": 52,
                "velocity": 25,
                "duration": 0.18181818181818182,
                "tempo": 120.0
            },
            {
                "start_time": 0.6840909090909091,
                "end_time": 1.0545454545454545,
                "pitch": 51,
                "velocity": 25,
                "duration": 0.37045454545454537,
                "tempo": 120.0
            },
            {
                "start_time": 1.0704545454545453,
                "end_time": 1.4477272727272728,
                "pitch": 47,
                "velocity": 25,
                "duration": 0.3772727272727274,
                "tempo": 120.0
            },
            {
                "start_time": 1.4659090909090908,
                "end_time": 1.65,
                "pitch": 45,
                "velocity": 25,
                "duration": 0.18409090909090908,
                "tempo": 120.0
            },
            {
                "start_time": 1.6681818181818182,
                "end_time": 1.8568181818181817,
                "pitch": 45,
                "velocity": 25,
                "duration": 0.1886363636363635,
                "tempo": 120.0
            },
            {
                "start_time": 1.8727272727272726,
                "end_time": 2.061363636363636,
                "pitch": 49,
                "velocity": 25,
                "duration": 0.1886363636363635,
                "tempo": 120.0
            },
            {
                "start_time": 2.0954545454545452,
                "end_time": 2.1636363636363636,
                "pitch": 42,
                "velocity": 25,
                "duration": 0.06818181818181834,
                "tempo": 120.0
            },
            {
                "start_time": 2.1999999999999997,
                "end_time": 2.268181818181818,
                "pitch": 42,
                "velocity": 25,
                "duration": 0.06818181818181834,
                "tempo": 120.0
            },
            {
                "start_time": 2.284090909090909,
                "end_time": 3.1636363636363636,
                "pitch": 47,
                "velocity": 25,
                "duration": 0.8795454545454544,
                "tempo": 120.0
            },
            {
                "start_time": 3.1636363636363636,
                "end_time": 3.256818181818182,
                "pitch": 47,
                "velocity": 25,
                "duration": 0.09318181818181825,
                "tempo": 120.0
            },
            {
                "start_time": 3.275,
                "end_time": 3.468181818181818,
                "pitch": 42,
                "velocity": 25,
                "duration": 0.1931818181818179,
                "tempo": 120.0
            },
            {
                "start_time": 3.4863636363636363,
                "end_time": 3.675,
                "pitch": 42,
                "velocity": 25,
                "duration": 0.1886363636363635,
                "tempo": 120.0
            },
            {
                "start_time": 3.690909090909091,
                "end_time": 3.875,
                "pitch": 52,
                "velocity": 25,
                "duration": 0.18409090909090908,
                "tempo": 120.0
            },
            {
                "start_time": 3.8909090909090907,
                "end_time": 4.261363636363636,
                "pitch": 51,
                "velocity": 25,
                "duration": 0.37045454545454515,
                "tempo": 120.0
            },
            {
                "start_time": 4.277272727272727,
                "end_time": 4.656818181818181,
                "pitch": 47,
                "velocity": 25,
                "duration": 0.37954545454545396,
                "tempo": 120.0
            },
            {
                "start_time": 4.675,
                "end_time": 4.8590909090909085,
                "pitch": 45,
                "velocity": 25,
                "duration": 0.18409090909090864,
                "tempo": 120.0
            },
            {
                "start_time": 4.877272727272727,
                "end_time": 5.0659090909090905,
                "pitch": 45,
                "velocity": 25,
                "duration": 0.1886363636363635,
                "tempo": 120.0
            },
            {
                "start_time": 5.081818181818182,
                "end_time": 5.2704545454545455,
                "pitch": 49,
                "velocity": 25,
                "duration": 0.1886363636363635,
                "tempo": 120.0
            },
            {
                "start_time": 5.304545454545455,
                "end_time": 5.372727272727272,
                "pitch": 42,
                "velocity": 25,
                "duration": 0.06818181818181746,
                "tempo": 120.0
            },
            {
                "start_time": 5.406818181818181,
                "end_time": 5.475,
                "pitch": 42,
                "velocity": 25,
                "duration": 0.06818181818181834,
                "tempo": 120.0
            },
            {
                "start_time": 5.493181818181818,
                "end_time": 6.468181818181818,
                "pitch": 47,
                "velocity": 25,
                "duration": 0.9749999999999996,
                "tempo": 120.0
            },
            {
                "start_time": 6.486363636363636,
                "end_time": 6.679545454545454,
                "pitch": 45,
                "velocity": 25,
                "duration": 0.19318181818181746,
                "tempo": 120.0
            },
            {
                "start_time": 6.697727272727272,
                "end_time": 6.886363636363636,
                "pitch": 45,
                "velocity": 25,
                "duration": 0.1886363636363635,
                "tempo": 120.0
            },
            {
                "start_time": 6.902272727272727,
                "end_time": 7.086363636363636,
                "pitch": 57,
                "velocity": 25,
                "duration": 0.18409090909090864,
                "tempo": 120.0
            },
            {
                "start_time": 7.102272727272727,
                "end_time": 7.472727272727273,
                "pitch": 56,
                "velocity": 25,
                "duration": 0.37045454545454604,
                "tempo": 120.0
            },
            {
                "start_time": 7.488636363636363,
                "end_time": 7.875,
                "pitch": 52,
                "velocity": 25,
                "duration": 0.3863636363636367,
                "tempo": 120.0
            },
            {
                "start_time": 7.893181818181818,
                "end_time": 8.081818181818182,
                "pitch": 49,
                "velocity": 25,
                "duration": 0.18863636363636438,
                "tempo": 120.0
            },
            {
                "start_time": 8.11590909090909,
                "end_time": 8.184090909090909,
                "pitch": 42,
                "velocity": 25,
                "duration": 0.06818181818181834,
                "tempo": 120.0
            },
            {
                "start_time": 8.202272727272726,
                "end_time": 8.388636363636364,
                "pitch": 45,
                "velocity": 25,
                "duration": 0.1863636363636374,
                "tempo": 120.0
            },
            {
                "start_time": 8.422727272727272,
                "end_time": 8.49090909090909,
                "pitch": 42,
                "velocity": 25,
                "duration": 0.06818181818181834,
                "tempo": 120.0
            },
            {
                "start_time": 8.506818181818181,
                "end_time": 8.693181818181818,
                "pitch": 45,
                "velocity": 25,
                "duration": 0.1863636363636374,
                "tempo": 120.0
            },
            {
                "start_time": 8.725,
                "end_time": 8.793181818181818,
                "pitch": 42,
                "velocity": 25,
                "duration": 0.06818181818181834,
                "tempo": 120.0
            },
            {
                "start_time": 8.809090909090909,
                "end_time": 8.993181818181817,
                "pitch": 45,
                "velocity": 25,
                "duration": 0.18409090909090864,
                "tempo": 120.0
            },
            {
                "start_time": 9.027272727272727,
                "end_time": 9.095454545454546,
                "pitch": 42,
                "velocity": 25,
                "duration": 0.06818181818181834,
                "tempo": 120.0
            },
            {
                "start_time": 9.111363636363636,
                "end_time": 9.295454545454545,
                "pitch": 45,
                "velocity": 25,
                "duration": 0.18409090909090864,
                "tempo": 120.0
            },
            {
                "start_time": 9.311363636363636,
                "end_time": 9.495454545454544,
                "pitch": 42,
                "velocity": 25,
                "duration": 0.18409090909090864,
                "tempo": 120.0
            },
            {
                "start_time": 9.511363636363637,
                "end_time": 9.695454545454545,
                "pitch": 42,
                "velocity": 25,
                "duration": 0.18409090909090864,
                "tempo": 120.0
            },
            {
                "start_time": 9.713636363636363,
                "end_time": 9.897727272727272,
                "pitch": 45,
                "velocity": 25,
                "duration": 0.18409090909090864,
                "tempo": 120.0
            },
            {
                "start_time": 9.913636363636364,
                "end_time": 10.097727272727273,
                "pitch": 45,
                "velocity": 25,
                "duration": 0.18409090909090864,
                "tempo": 120.0
            },
            {
                "start_time": 10.113636363636363,
                "end_time": 10.293181818181818,
                "pitch": 57,
                "velocity": 25,
                "duration": 0.17954545454545467,
                "tempo": 120.0
            },
            {
                "start_time": 10.309090909090909,
                "end_time": 10.684090909090909,
                "pitch": 56,
                "velocity": 25,
                "duration": 0.375,
                "tempo": 120.0
            },
            {
                "start_time": 10.702272727272726,
                "end_time": 11.09090909090909,
                "pitch": 52,
                "velocity": 25,
                "duration": 0.38863636363636367,
                "tempo": 120.0
            },
            {
                "start_time": 11.10681818181818,
                "end_time": 11.295454545454545,
                "pitch": 49,
                "velocity": 25,
                "duration": 0.18863636363636438,
                "tempo": 120.0
            },
            {
                "start_time": 11.329545454545453,
                "end_time": 11.397727272727272,
                "pitch": 42,
                "velocity": 25,
                "duration": 0.06818181818181834,
                "tempo": 120.0
            },
            {
                "start_time": 11.415909090909091,
                "end_time": 11.604545454545454,
                "pitch": 45,
                "velocity": 25,
                "duration": 0.1886363636363626,
                "tempo": 120.0
            },
            {
                "start_time": 11.638636363636364,
                "end_time": 11.704545454545453,
                "pitch": 42,
                "velocity": 25,
                "duration": 0.06590909090908958,
                "tempo": 120.0
            },
            {
                "start_time": 11.722727272727273,
                "end_time": 11.906818181818181,
                "pitch": 45,
                "velocity": 25,
                "duration": 0.18409090909090864,
                "tempo": 120.0
            },
            {
                "start_time": 11.94090909090909,
                "end_time": 12.006818181818181,
                "pitch": 42,
                "velocity": 25,
                "duration": 0.06590909090909136,
                "tempo": 120.0
            },
            {
                "start_time": 12.024999999999999,
                "end_time": 12.209090909090909,
                "pitch": 45,
                "velocity": 25,
                "duration": 0.18409090909091042,
                "tempo": 120.0
            },
            {
                "start_time": 12.243181818181817,
                "end_time": 12.309090909090909,
                "pitch": 42,
                "velocity": 25,
                "duration": 0.06590909090909136,
                "tempo": 120.0
            },
            {
                "start_time": 12.327272727272726,
                "end_time": 12.511363636363635,
                "pitch": 45,
                "velocity": 25,
                "duration": 0.18409090909090864,
                "tempo": 120.0
            },
            {
                "start_time": 12.527272727272727,
                "end_time": 12.711363636363636,
                "pitch": 42,
                "velocity": 25,
                "duration": 0.18409090909090864,
                "tempo": 120.0
            },
            {
                "start_time": 12.729545454545454,
                "end_time": 12.913636363636362,
                "pitch": 42,
                "velocity": 25,
                "duration": 0.18409090909090864,
                "tempo": 120.0
            },
            {
                "start_time": 12.947727272727272,
                "end_time": 13.113636363636363,
                "pitch": 42,
                "velocity": 25,
                "duration": 0.165909090909091,
                "tempo": 120.0
            },
            {
                "start_time": 13.131818181818181,
                "end_time": 13.313636363636363,
                "pitch": 42,
                "velocity": 25,
                "duration": 0.18181818181818166,
                "tempo": 120.0
            },
            {
                "start_time": 13.329545454545453,
                "end_time": 13.509090909090908,
                "pitch": 52,
                "velocity": 25,
                "duration": 0.17954545454545467,
                "tempo": 120.0
            },
            {
                "start_time": 13.527272727272727,
                "end_time": 13.902272727272727,
                "pitch": 51,
                "velocity": 25,
                "duration": 0.375,
                "tempo": 120.0
            },
            {
                "start_time": 13.918181818181818,
                "end_time": 14.302272727272726,
                "pitch": 47,
                "velocity": 25,
                "duration": 0.38409090909090793,
                "tempo": 120.0
            },
            {
                "start_time": 14.318181818181818,
                "end_time": 14.504545454545454,
                "pitch": 45,
                "velocity": 25,
                "duration": 0.18636363636363562,
                "tempo": 120.0
            },
            {
                "start_time": 14.522727272727272,
                "end_time": 14.711363636363636,
                "pitch": 45,
                "velocity": 25,
                "duration": 0.18863636363636438,
                "tempo": 120.0
            },
            {
                "start_time": 14.727272727272727,
                "end_time": 14.915909090909091,
                "pitch": 49,
                "velocity": 25,
                "duration": 0.18863636363636438,
                "tempo": 120.0
            },
            {
                "start_time": 14.95,
                "end_time": 15.018181818181818,
                "pitch": 42,
                "velocity": 25,
                "duration": 0.06818181818181834,
                "tempo": 120.0
            },
            {
                "start_time": 15.052272727272726,
                "end_time": 15.120454545454544,
                "pitch": 42,
                "velocity": 25,
                "duration": 0.06818181818181834,
                "tempo": 120.0
            },
            {
                "start_time": 15.138636363636364,
                "end_time": 16.111363636363635,
                "pitch": 47,
                "velocity": 25,
                "duration": 0.9727272727272709,
                "tempo": 120.0
            },
            {
                "start_time": 16.129545454545454,
                "end_time": 16.31590909090909,
                "pitch": 42,
                "velocity": 25,
                "duration": 0.1863636363636374,
                "tempo": 120.0
            },
            {
                "start_time": 16.334090909090907,
                "end_time": 16.520454545454545,
                "pitch": 42,
                "velocity": 25,
                "duration": 0.1863636363636374,
                "tempo": 120.0
            },
            {
                "start_time": 16.538636363636364,
                "end_time": 16.722727272727273,
                "pitch": 52,
                "velocity": 25,
                "duration": 0.18409090909090864,
                "tempo": 120.0
            },
            {
                "start_time": 16.738636363636363,
                "end_time": 17.118181818181817,
                "pitch": 51,
                "velocity": 25,
                "duration": 0.37954545454545396,
                "tempo": 120.0
            },
            {
                "start_time": 17.134090909090908,
                "end_time": 17.51590909090909,
                "pitch": 47,
                "velocity": 25,
                "duration": 0.3818181818181827,
                "tempo": 120.0
            },
            {
                "start_time": 17.53181818181818,
                "end_time": 17.71818181818182,
                "pitch": 45,
                "velocity": 25,
                "duration": 0.1863636363636374,
                "tempo": 120.0
            },
            {
                "start_time": 17.73409090909091,
                "end_time": 17.922727272727272,
                "pitch": 45,
                "velocity": 25,
                "duration": 0.1886363636363626,
                "tempo": 120.0
            },
            {
                "start_time": 17.94090909090909,
                "end_time": 18.127272727272725,
                "pitch": 49,
                "velocity": 25,
                "duration": 0.18636363636363384,
                "tempo": 120.0
            },
            {
                "start_time": 18.161363636363635,
                "end_time": 18.23181818181818,
                "pitch": 42,
                "velocity": 25,
                "duration": 0.07045454545454533,
                "tempo": 120.0
            },
            {
                "start_time": 18.26590909090909,
                "end_time": 18.334090909090907,
                "pitch": 42,
                "velocity": 25,
                "duration": 0.06818181818181657,
                "tempo": 120.0
            },
            {
                "start_time": 18.349999999999998,
                "end_time": 19.325,
                "pitch": 47,
                "velocity": 25,
                "duration": 0.9750000000000014,
                "tempo": 120.0
            },
            {
                "start_time": 19.34318181818182,
                "end_time": 19.536363636363635,
                "pitch": 45,
                "velocity": 25,
                "duration": 0.19318181818181657,
                "tempo": 120.0
            },
            {
                "start_time": 19.554545454545455,
                "end_time": 19.743181818181817,
                "pitch": 45,
                "velocity": 25,
                "duration": 0.1886363636363626,
                "tempo": 120.0
            },
            {
                "start_time": 19.759090909090908,
                "end_time": 19.938636363636363,
                "pitch": 57,
                "velocity": 25,
                "duration": 0.17954545454545467,
                "tempo": 120.0
            },
            {
                "start_time": 19.954545454545453,
                "end_time": 20.329545454545453,
                "pitch": 56,
                "velocity": 25,
                "duration": 0.375,
                "tempo": 120.0
            },
            {
                "start_time": 20.347727272727273,
                "end_time": 20.736363636363635,
                "pitch": 52,
                "velocity": 25,
                "duration": 0.3886363636363619,
                "tempo": 120.0
            },
            {
                "start_time": 20.752272727272725,
                "end_time": 20.94090909090909,
                "pitch": 49,
                "velocity": 25,
                "duration": 0.18863636363636616,
                "tempo": 120.0
            },
            {
                "start_time": 20.974999999999998,
                "end_time": 21.043181818181818,
                "pitch": 42,
                "velocity": 25,
                "duration": 0.06818181818182012,
                "tempo": 120.0
            },
            {
                "start_time": 21.061363636363634,
                "end_time": 21.25,
                "pitch": 45,
                "velocity": 25,
                "duration": 0.18863636363636616,
                "tempo": 120.0
            },
            {
                "start_time": 21.284090909090907,
                "end_time": 21.349999999999998,
                "pitch": 42,
                "velocity": 25,
                "duration": 0.06590909090909136,
                "tempo": 120.0
            },
            {
                "start_time": 21.36590909090909,
                "end_time": 21.55,
                "pitch": 45,
                "velocity": 25,
                "duration": 0.1840909090909122,
                "tempo": 120.0
            },
            {
                "start_time": 21.584090909090907,
                "end_time": 21.65,
                "pitch": 42,
                "velocity": 25,
                "duration": 0.06590909090909136,
                "tempo": 120.0
            },
            {
                "start_time": 21.66590909090909,
                "end_time": 21.852272727272727,
                "pitch": 45,
                "velocity": 25,
                "duration": 0.1863636363636374,
                "tempo": 120.0
            },
            {
                "start_time": 21.884090909090908,
                "end_time": 21.952272727272724,
                "pitch": 42,
                "velocity": 25,
                "duration": 0.06818181818181657,
                "tempo": 120.0
            },
            {
                "start_time": 21.96818181818182,
                "end_time": 22.152272727272727,
                "pitch": 45,
                "velocity": 25,
                "duration": 0.18409090909090864,
                "tempo": 120.0
            },
            {
                "start_time": 22.170454545454543,
                "end_time": 22.352272727272727,
                "pitch": 42,
                "velocity": 25,
                "duration": 0.18181818181818343,
                "tempo": 120.0
            },
            {
                "start_time": 22.370454545454546,
                "end_time": 22.552272727272726,
                "pitch": 42,
                "velocity": 25,
                "duration": 0.18181818181817988,
                "tempo": 120.0
            },
            {
                "start_time": 22.570454545454545,
                "end_time": 22.752272727272725,
                "pitch": 45,
                "velocity": 25,
                "duration": 0.18181818181817988,
                "tempo": 120.0
            },
            {
                "start_time": 22.770454545454545,
                "end_time": 22.952272727272724,
                "pitch": 45,
                "velocity": 25,
                "duration": 0.18181818181817988,
                "tempo": 120.0
            },
            {
                "start_time": 22.970454545454544,
                "end_time": 23.154545454545453,
                "pitch": 57,
                "velocity": 25,
                "duration": 0.18409090909090864,
                "tempo": 120.0
            },
            {
                "start_time": 23.170454545454543,
                "end_time": 23.543181818181818,
                "pitch": 56,
                "velocity": 25,
                "duration": 0.3727272727272748,
                "tempo": 120.0
            },
            {
                "start_time": 23.55909090909091,
                "end_time": 23.945454545454545,
                "pitch": 52,
                "velocity": 25,
                "duration": 0.3863636363636367,
                "tempo": 120.0
            },
            {
                "start_time": 23.961363636363636,
                "end_time": 24.15,
                "pitch": 49,
                "velocity": 25,
                "duration": 0.1886363636363626,
                "tempo": 120.0
            },
            {
                "start_time": 24.18409090909091,
                "end_time": 24.252272727272725,
                "pitch": 42,
                "velocity": 25,
                "duration": 0.06818181818181657,
                "tempo": 120.0
            },
            {
                "start_time": 24.270454545454545,
                "end_time": 24.459090909090907,
                "pitch": 45,
                "velocity": 25,
                "duration": 0.1886363636363626,
                "tempo": 120.0
            },
            {
                "start_time": 24.493181818181817,
                "end_time": 24.55909090909091,
                "pitch": 42,
                "velocity": 25,
                "duration": 0.06590909090909136,
                "tempo": 120.0
            },
            {
                "start_time": 24.575,
                "end_time": 24.759090909090908,
                "pitch": 45,
                "velocity": 25,
                "duration": 0.18409090909090864,
                "tempo": 120.0
            },
            {
                "start_time": 24.793181818181818,
                "end_time": 24.85909090909091,
                "pitch": 42,
                "velocity": 25,
                "duration": 0.06590909090909136,
                "tempo": 120.0
            },
            {
                "start_time": 24.875,
                "end_time": 25.061363636363634,
                "pitch": 45,
                "velocity": 25,
                "duration": 0.18636363636363384,
                "tempo": 120.0
            },
            {
                "start_time": 25.09318181818182,
                "end_time": 25.161363636363635,
                "pitch": 42,
                "velocity": 25,
                "duration": 0.06818181818181657,
                "tempo": 120.0
            },
            {
                "start_time": 25.177272727272726,
                "end_time": 25.361363636363635,
                "pitch": 45,
                "velocity": 25,
                "duration": 0.18409090909090864,
                "tempo": 120.0
            },
            {
                "start_time": 25.379545454545454,
                "end_time": 25.561363636363634,
                "pitch": 42,
                "velocity": 25,
                "duration": 0.18181818181817988,
                "tempo": 120.0
            },
            {
                "start_time": 25.579545454545453,
                "end_time": 25.761363636363637,
                "pitch": 42,
                "velocity": 25,
                "duration": 0.18181818181818343,
                "tempo": 120.0
            },
            {
                "start_time": 25.777272727272727,
                "end_time": 25.924999999999997,
                "pitch": 71,
                "velocity": 25,
                "duration": 0.14772727272726982,
                "tempo": 120.0
            },
            {
                "start_time": 25.94090909090909,
                "end_time": 26.120454545454542,
                "pitch": 69,
                "velocity": 25,
                "duration": 0.17954545454545112,
                "tempo": 120.0
            },
            {
                "start_time": 26.154545454545453,
                "end_time": 26.220454545454544,
                "pitch": 69,
                "velocity": 25,
                "duration": 0.06590909090909136,
                "tempo": 120.0
            },
            {
                "start_time": 26.238636363636363,
                "end_time": 26.420454545454543,
                "pitch": 71,
                "velocity": 25,
                "duration": 0.18181818181817988,
                "tempo": 120.0
            },
            {
                "start_time": 26.438636363636363,
                "end_time": 26.618181818181817,
                "pitch": 71,
                "velocity": 25,
                "duration": 0.17954545454545467,
                "tempo": 120.0
            },
            {
                "start_time": 26.65,
                "end_time": 26.71590909090909,
                "pitch": 71,
                "velocity": 25,
                "duration": 0.06590909090909136,
                "tempo": 120.0
            },
            {
                "start_time": 26.73181818181818,
                "end_time": 26.913636363636364,
                "pitch": 69,
                "velocity": 25,
                "duration": 0.18181818181818343,
                "tempo": 120.0
            },
            {
                "start_time": 26.94772727272727,
                "end_time": 27.013636363636362,
                "pitch": 69,
                "velocity": 25,
                "duration": 0.06590909090909136,
                "tempo": 120.0
            },
            {
                "start_time": 27.047727272727272,
                "end_time": 27.113636363636363,
                "pitch": 71,
                "velocity": 25,
                "duration": 0.06590909090909136,
                "tempo": 120.0
            },
            {
                "start_time": 28.968181818181815,
                "end_time": 29.154545454545453,
                "pitch": 69,
                "velocity": 25,
                "duration": 0.1863636363636374,
                "tempo": 120.0
            },
            {
                "start_time": 29.170454545454543,
                "end_time": 29.35681818181818,
                "pitch": 71,
                "velocity": 25,
                "duration": 0.1863636363636374,
                "tempo": 120.0
            },
            {
                "start_time": 29.37272727272727,
                "end_time": 29.561363636363634,
                "pitch": 74,
                "velocity": 25,
                "duration": 0.1886363636363626,
                "tempo": 120.0
            },
            {
                "start_time": 29.595454545454544,
                "end_time": 29.66590909090909,
                "pitch": 74,
                "velocity": 25,
                "duration": 0.07045454545454533,
                "tempo": 120.0
            },
            {
                "start_time": 29.68181818181818,
                "end_time": 29.959090909090907,
                "pitch": 69,
                "velocity": 25,
                "duration": 0.27727272727272734,
                "tempo": 120.0
            },
            {
                "start_time": 29.974999999999998,
                "end_time": 30.293181818181818,
                "pitch": 69,
                "velocity": 25,
                "duration": 0.3181818181818201,
                "tempo": 120.0
            },
            {
                "start_time": 30.30909090909091,
                "end_time": 30.563636363636363,
                "pitch": 70,
                "velocity": 25,
                "duration": 0.25454545454545396,
                "tempo": 120.0
            },
            {
                "start_time": 30.581818181818182,
                "end_time": 30.775,
                "pitch": 42,
                "velocity": 25,
                "duration": 0.19318181818181657,
                "tempo": 120.0
            },
            {
                "start_time": 30.793181818181818,
                "end_time": 30.979545454545452,
                "pitch": 42,
                "velocity": 25,
                "duration": 0.18636363636363384,
                "tempo": 120.0
            },
            {
                "start_time": 30.99772727272727,
                "end_time": 31.177272727272726,
                "pitch": 52,
                "velocity": 25,
                "duration": 0.17954545454545467,
                "tempo": 120.0
            },
            {
                "start_time": 31.193181818181817,
                "end_time": 31.568181818181817,
                "pitch": 51,
                "velocity": 25,
                "duration": 0.375,
                "tempo": 120.0
            },
            {
                "start_time": 31.586363636363636,
                "end_time": 31.96590909090909,
                "pitch": 47,
                "velocity": 25,
                "duration": 0.37954545454545396,
                "tempo": 120.0
            },
            {
                "start_time": 31.984090909090906,
                "end_time": 32.168181818181814,
                "pitch": 45,
                "velocity": 25,
                "duration": 0.18409090909090864,
                "tempo": 120.0
            },
            {
                "start_time": 32.18636363636364,
                "end_time": 32.375,
                "pitch": 45,
                "velocity": 25,
                "duration": 0.1886363636363626,
                "tempo": 120.0
            },
            {
                "start_time": 32.39090909090909,
                "end_time": 32.57954545454545,
                "pitch": 49,
                "velocity": 25,
                "duration": 0.1886363636363626,
                "tempo": 120.0
            },
            {
                "start_time": 32.61363636363636,
                "end_time": 32.68181818181818,
                "pitch": 42,
                "velocity": 25,
                "duration": 0.06818181818182012,
                "tempo": 120.0
            },
            {
                "start_time": 32.715909090909086,
                "end_time": 32.78409090909091,
                "pitch": 42,
                "velocity": 25,
                "duration": 0.06818181818182012,
                "tempo": 120.0
            },
            {
                "start_time": 32.80227272727272,
                "end_time": 33.684090909090905,
                "pitch": 47,
                "velocity": 25,
                "duration": 0.8818181818181827,
                "tempo": 120.0
            }
        ]
    }
}