{
    "track_id": "Zaxxon 3-D (FM) - 01 - Title Screen",
    "mood": "angry",
    "instruments": {
        "Lead 2 (sawtooth)": [
            {
                "start_time": 0.00909090909090909,
                "end_time": 2.036363636363636,
                "pitch": 72,
                "velocity": 127,
                "duration": 2.027272727272727,
                "tempo": 120.0
            },
            {
                "start_time": 2.0522727272727272,
                "end_time": 2.186363636363636,
                "pitch": 72,
                "velocity": 127,
                "duration": 0.13409090909090882,
                "tempo": 120.0
            },
            {
                "start_time": 2.202272727272727,
                "end_time": 4.747727272727272,
                "pitch": 70,
                "velocity": 127,
                "duration": 2.545454545454545,
                "tempo": 120.0
            },
            {
                "start_time": 4.763636363636364,
                "end_time": 6.8590909090909085,
                "pitch": 72,
                "velocity": 127,
                "duration": 2.095454545454545,
                "tempo": 120.0
            },
            {
                "start_time": 6.877272727272727,
                "end_time": 7.009090909090909,
                "pitch": 72,
                "velocity": 127,
                "duration": 0.13181818181818183,
                "tempo": 120.0
            },
            {
                "start_time": 7.027272727272727,
                "end_time": 8.363636363636363,
                "pitch": 75,
                "velocity": 127,
                "duration": 1.336363636363636,
                "tempo": 120.0
            },
            {
                "start_time": 8.381818181818181,
                "end_time": 8.51590909090909,
                "pitch": 80,
                "velocity": 127,
                "duration": 0.1340909090909097,
                "tempo": 120.0
            },
            {
                "start_time": 8.531818181818181,
                "end_time": 8.668181818181818,
                "pitch": 79,
                "velocity": 127,
                "duration": 0.1363636363636367,
                "tempo": 120.0
            },
            {
                "start_time": 8.684090909090909,
                "end_time": 8.818181818181818,
                "pitch": 75,
                "velocity": 127,
                "duration": 0.1340909090909097,
                "tempo": 120.0
            },
            {
                "start_time": 8.836363636363636,
                "end_time": 8.970454545454546,
                "pitch": 80,
                "velocity": 127,
                "duration": 0.1340909090909097,
                "tempo": 120.0
            },
            {
                "start_time": 8.986363636363636,
                "end_time": 9.122727272727273,
                "pitch": 79,
                "velocity": 127,
                "duration": 0.1363636363636367,
                "tempo": 120.0
            },
            {
                "start_time": 9.138636363636364,
                "end_time": 9.572727272727272,
                "pitch": 75,
                "velocity": 127,
                "duration": 0.43409090909090864,
                "tempo": 120.0
            },
            {
                "start_time": 9.588636363636363,
                "end_time": 11.672727272727272,
                "pitch": 72,
                "velocity": 127,
                "duration": 2.084090909090909,
                "tempo": 120.0
            },
            {
                "start_time": 11.69090909090909,
                "end_time": 11.825,
                "pitch": 72,
                "velocity": 127,
                "duration": 0.1340909090909097,
                "tempo": 120.0
            },
            {
                "start_time": 11.84090909090909,
                "end_time": 14.077272727272726,
                "pitch": 73,
                "velocity": 127,
                "duration": 2.2363636363636363,
                "tempo": 120.0
            },
            {
                "start_time": 14.095454545454544,
                "end_time": 14.227272727272727,
                "pitch": 73,
                "velocity": 127,
                "duration": 0.13181818181818272,
                "tempo": 120.0
            },
            {
                "start_time": 14.245454545454544,
                "end_time": 16.18409090909091,
                "pitch": 75,
                "velocity": 127,
                "duration": 1.9386363636363644,
                "tempo": 120.0
            },
            {
                "start_time": 16.2,
                "end_time": 16.334090909090907,
                "pitch": 75,
                "velocity": 127,
                "duration": 0.13409090909090793,
                "tempo": 120.0
            },
            {
                "start_time": 16.349999999999998,
                "end_time": 16.486363636363635,
                "pitch": 75,
                "velocity": 127,
                "duration": 0.1363636363636367,
                "tempo": 120.0
            },
            {
                "start_time": 16.502272727272725,
                "end_time": 16.636363636363637,
                "pitch": 75,
                "velocity": 127,
                "duration": 0.13409090909091148,
                "tempo": 120.0
            },
            {
                "start_time": 16.654545454545453,
                "end_time": 16.94090909090909,
                "pitch": 77,
                "velocity": 127,
                "duration": 0.2863636363636388,
                "tempo": 120.0
            },
            {
                "start_time": 16.956818181818182,
                "end_time": 17.09090909090909,
                "pitch": 77,
                "velocity": 127,
                "duration": 0.13409090909090793,
                "tempo": 120.0
            },
            {
                "start_time": 17.10681818181818,
                "end_time": 17.24090909090909,
                "pitch": 72,
                "velocity": 127,
                "duration": 0.13409090909090793,
                "tempo": 120.0
            },
            {
                "start_time": 17.256818181818183,
                "end_time": 17.39090909090909,
                "pitch": 72,
                "velocity": 127,
                "duration": 0.13409090909090793,
                "tempo": 120.0
            },
            {
                "start_time": 17.40681818181818,
                "end_time": 17.54090909090909,
                "pitch": 77,
                "velocity": 127,
                "duration": 0.13409090909090793,
                "tempo": 120.0
            },
            {
                "start_time": 17.55681818181818,
                "end_time": 17.69090909090909,
                "pitch": 72,
                "velocity": 127,
                "duration": 0.13409090909091148,
                "tempo": 120.0
            },
            {
                "start_time": 17.709090909090907,
                "end_time": 17.84318181818182,
                "pitch": 72,
                "velocity": 127,
                "duration": 0.13409090909091148,
                "tempo": 120.0
            },
            {
                "start_time": 17.85909090909091,
                "end_time": 18.145454545454545,
                "pitch": 80,
                "velocity": 127,
                "duration": 0.28636363636363527,
                "tempo": 120.0
            },
            {
                "start_time": 18.163636363636364,
                "end_time": 18.3,
                "pitch": 80,
                "velocity": 127,
                "duration": 0.1363636363636367,
                "tempo": 120.0
            },
            {
                "start_time": 18.31590909090909,
                "end_time": 19.204545454545453,
                "pitch": 77,
                "velocity": 127,
                "duration": 0.8886363636363619,
                "tempo": 120.0
            }
        ],
        "Acoustic Bass": [
            {
                "start_time": 0.00909090909090909,
                "end_time": 0.22954545454545452,
                "pitch": 36,
                "velocity": 80,
                "duration": 0.22045454545454543,
                "tempo": 120.0
            },
            {
                "start_time": 0.24545454545454545,
                "end_time": 0.3795454545454545,
                "pitch": 36,
                "velocity": 80,
                "duration": 0.13409090909090907,
                "tempo": 120.0
            },
            {
                "start_time": 0.39545454545454545,
                "end_time": 0.5295454545454545,
                "pitch": 36,
                "velocity": 80,
                "duration": 0.1340909090909091,
                "tempo": 120.0
            },
            {
                "start_time": 0.5454545454545454,
                "end_time": 0.6795454545454546,
                "pitch": 48,
                "velocity": 80,
                "duration": 0.13409090909090915,
                "tempo": 120.0
            },
            {
                "start_time": 0.6954545454545454,
                "end_time": 0.8295454545454545,
                "pitch": 36,
                "velocity": 80,
                "duration": 0.13409090909090904,
                "tempo": 120.0
            },
            {
                "start_time": 0.8454545454545455,
                "end_time": 0.9795454545454545,
                "pitch": 46,
                "velocity": 80,
                "duration": 0.13409090909090904,
                "tempo": 120.0
            },
            {
                "start_time": 0.9954545454545454,
                "end_time": 1.1295454545454544,
                "pitch": 36,
                "velocity": 80,
                "duration": 0.13409090909090904,
                "tempo": 120.0
            },
            {
                "start_time": 1.1454545454545455,
                "end_time": 1.2795454545454545,
                "pitch": 44,
                "velocity": 80,
                "duration": 0.13409090909090904,
                "tempo": 120.0
            },
            {
                "start_time": 1.2954545454545454,
                "end_time": 1.4318181818181817,
                "pitch": 36,
                "velocity": 80,
                "duration": 0.13636363636363624,
                "tempo": 120.0
            },
            {
                "start_time": 1.4477272727272728,
                "end_time": 1.5818181818181818,
                "pitch": 43,
                "velocity": 80,
                "duration": 0.13409090909090904,
                "tempo": 120.0
            },
            {
                "start_time": 1.5999999999999999,
                "end_time": 1.734090909090909,
                "pitch": 36,
                "velocity": 80,
                "duration": 0.13409090909090904,
                "tempo": 120.0
            },
            {
                "start_time": 1.75,
                "end_time": 1.8863636363636362,
                "pitch": 41,
                "velocity": 80,
                "duration": 0.13636363636363624,
                "tempo": 120.0
            },
            {
                "start_time": 1.9022727272727271,
                "end_time": 2.036363636363636,
                "pitch": 36,
                "velocity": 80,
                "duration": 0.13409090909090904,
                "tempo": 120.0
            },
            {
                "start_time": 2.0522727272727272,
                "end_time": 2.186363636363636,
                "pitch": 43,
                "velocity": 80,
                "duration": 0.13409090909090882,
                "tempo": 120.0
            },
            {
                "start_time": 2.202272727272727,
                "end_time": 2.3363636363636364,
                "pitch": 43,
                "velocity": 80,
                "duration": 0.13409090909090926,
                "tempo": 120.0
            },
            {
                "start_time": 2.352272727272727,
                "end_time": 2.6363636363636362,
                "pitch": 36,
                "velocity": 80,
                "duration": 0.28409090909090917,
                "tempo": 120.0
            },
            {
                "start_time": 2.6522727272727273,
                "end_time": 2.786363636363636,
                "pitch": 36,
                "velocity": 80,
                "duration": 0.13409090909090882,
                "tempo": 120.0
            },
            {
                "start_time": 2.8022727272727272,
                "end_time": 2.936363636363636,
                "pitch": 36,
                "velocity": 80,
                "duration": 0.13409090909090882,
                "tempo": 120.0
            },
            {
                "start_time": 2.952272727272727,
                "end_time": 3.0863636363636364,
                "pitch": 48,
                "velocity": 80,
                "duration": 0.13409090909090926,
                "tempo": 120.0
            },
            {
                "start_time": 3.102272727272727,
                "end_time": 3.2363636363636363,
                "pitch": 36,
                "velocity": 80,
                "duration": 0.13409090909090926,
                "tempo": 120.0
            },
            {
                "start_time": 3.2545454545454544,
                "end_time": 3.3886363636363637,
                "pitch": 46,
                "velocity": 80,
                "duration": 0.13409090909090926,
                "tempo": 120.0
            },
            {
                "start_time": 3.4045454545454543,
                "end_time": 3.5409090909090906,
                "pitch": 36,
                "velocity": 80,
                "duration": 0.13636363636363624,
                "tempo": 120.0
            },
            {
                "start_time": 3.5568181818181817,
                "end_time": 3.690909090909091,
                "pitch": 44,
                "velocity": 80,
                "duration": 0.13409090909090926,
                "tempo": 120.0
            },
            {
                "start_time": 3.709090909090909,
                "end_time": 3.843181818181818,
                "pitch": 36,
                "velocity": 80,
                "duration": 0.13409090909090882,
                "tempo": 120.0
            },
            {
                "start_time": 3.859090909090909,
                "end_time": 3.995454545454545,
                "pitch": 43,
                "velocity": 80,
                "duration": 0.13636363636363624,
                "tempo": 120.0
            },
            {
                "start_time": 4.011363636363636,
                "end_time": 4.1454545454545455,
                "pitch": 36,
                "velocity": 80,
                "duration": 0.1340909090909097,
                "tempo": 120.0
            },
            {
                "start_time": 4.163636363636363,
                "end_time": 4.297727272727273,
                "pitch": 41,
                "velocity": 80,
                "duration": 0.1340909090909097,
                "tempo": 120.0
            },
            {
                "start_time": 4.3136363636363635,
                "end_time": 4.447727272727272,
                "pitch": 36,
                "velocity": 80,
                "duration": 0.13409090909090882,
                "tempo": 120.0
            },
            {
                "start_time": 4.463636363636364,
                "end_time": 4.597727272727273,
                "pitch": 43,
                "velocity": 80,
                "duration": 0.13409090909090882,
                "tempo": 120.0
            },
            {
                "start_time": 4.613636363636363,
                "end_time": 4.747727272727272,
                "pitch": 43,
                "velocity": 80,
                "duration": 0.13409090909090882,
                "tempo": 120.0
            },
            {
                "start_time": 4.763636363636364,
                "end_time": 5.05,
                "pitch": 36,
                "velocity": 80,
                "duration": 0.28636363636363615,
                "tempo": 120.0
            },
            {
                "start_time": 5.0659090909090905,
                "end_time": 5.2,
                "pitch": 36,
                "velocity": 80,
                "duration": 0.1340909090909097,
                "tempo": 120.0
            },
            {
                "start_time": 5.218181818181818,
                "end_time": 5.352272727272727,
                "pitch": 36,
                "velocity": 80,
                "duration": 0.13409090909090882,
                "tempo": 120.0
            },
            {
                "start_time": 5.368181818181818,
                "end_time": 5.504545454545454,
                "pitch": 48,
                "velocity": 80,
                "duration": 0.1363636363636358,
                "tempo": 120.0
            },
            {
                "start_time": 5.5204545454545455,
                "end_time": 5.654545454545454,
                "pitch": 36,
                "velocity": 80,
                "duration": 0.13409090909090882,
                "tempo": 120.0
            },
            {
                "start_time": 5.670454545454545,
                "end_time": 5.804545454545455,
                "pitch": 46,
                "velocity": 80,
                "duration": 0.1340909090909097,
                "tempo": 120.0
            },
            {
                "start_time": 5.820454545454545,
                "end_time": 5.954545454545454,
                "pitch": 36,
                "velocity": 80,
                "duration": 0.13409090909090882,
                "tempo": 120.0
            },
            {
                "start_time": 5.970454545454545,
                "end_time": 6.1045454545454545,
                "pitch": 44,
                "velocity": 80,
                "duration": 0.1340909090909097,
                "tempo": 120.0
            },
            {
                "start_time": 6.120454545454545,
                "end_time": 6.254545454545454,
                "pitch": 36,
                "velocity": 80,
                "duration": 0.13409090909090882,
                "tempo": 120.0
            },
            {
                "start_time": 6.2727272727272725,
                "end_time": 6.406818181818181,
                "pitch": 43,
                "velocity": 80,
                "duration": 0.13409090909090882,
                "tempo": 120.0
            },
            {
                "start_time": 6.422727272727273,
                "end_time": 6.559090909090909,
                "pitch": 36,
                "velocity": 80,
                "duration": 0.1363636363636358,
                "tempo": 120.0
            },
            {
                "start_time": 6.574999999999999,
                "end_time": 6.709090909090909,
                "pitch": 41,
                "velocity": 80,
                "duration": 0.1340909090909097,
                "tempo": 120.0
            },
            {
                "start_time": 6.727272727272727,
                "end_time": 6.8590909090909085,
                "pitch": 36,
                "velocity": 80,
                "duration": 0.13181818181818183,
                "tempo": 120.0
            },
            {
                "start_time": 6.877272727272727,
                "end_time": 7.009090909090909,
                "pitch": 43,
                "velocity": 80,
                "duration": 0.13181818181818183,
                "tempo": 120.0
            },
            {
                "start_time": 7.027272727272727,
                "end_time": 7.159090909090909,
                "pitch": 43,
                "velocity": 80,
                "duration": 0.13181818181818183,
                "tempo": 120.0
            },
            {
                "start_time": 7.177272727272727,
                "end_time": 7.459090909090909,
                "pitch": 36,
                "velocity": 80,
                "duration": 0.2818181818181822,
                "tempo": 120.0
            },
            {
                "start_time": 7.477272727272727,
                "end_time": 7.6090909090909085,
                "pitch": 36,
                "velocity": 80,
                "duration": 0.13181818181818183,
                "tempo": 120.0
            },
            {
                "start_time": 7.627272727272727,
                "end_time": 7.759090909090909,
                "pitch": 36,
                "velocity": 80,
                "duration": 0.13181818181818183,
                "tempo": 120.0
            },
            {
                "start_time": 7.777272727272727,
                "end_time": 7.909090909090908,
                "pitch": 48,
                "velocity": 80,
                "duration": 0.13181818181818095,
                "tempo": 120.0
            },
            {
                "start_time": 7.927272727272727,
                "end_time": 8.061363636363636,
                "pitch": 36,
                "velocity": 80,
                "duration": 0.13409090909090882,
                "tempo": 120.0
            },
            {
                "start_time": 8.077272727272726,
                "end_time": 8.213636363636363,
                "pitch": 46,
                "velocity": 80,
                "duration": 0.1363636363636367,
                "tempo": 120.0
            },
            {
                "start_time": 8.229545454545454,
                "end_time": 8.363636363636363,
                "pitch": 36,
                "velocity": 80,
                "duration": 0.1340909090909097,
                "tempo": 120.0
            },
            {
                "start_time": 8.381818181818181,
                "end_time": 8.51590909090909,
                "pitch": 44,
                "velocity": 80,
                "duration": 0.1340909090909097,
                "tempo": 120.0
            },
            {
                "start_time": 8.531818181818181,
                "end_time": 8.668181818181818,
                "pitch": 36,
                "velocity": 80,
                "duration": 0.1363636363636367,
                "tempo": 120.0
            },
            {
                "start_time": 8.684090909090909,
                "end_time": 8.818181818181818,
                "pitch": 43,
                "velocity": 80,
                "duration": 0.1340909090909097,
                "tempo": 120.0
            },
            {
                "start_time": 8.836363636363636,
                "end_time": 8.970454545454546,
                "pitch": 36,
                "velocity": 80,
                "duration": 0.1340909090909097,
                "tempo": 120.0
            },
            {
                "start_time": 8.986363636363636,
                "end_time": 9.122727272727273,
                "pitch": 41,
                "velocity": 80,
                "duration": 0.1363636363636367,
                "tempo": 120.0
            },
            {
                "start_time": 9.138636363636364,
                "end_time": 9.272727272727272,
                "pitch": 36,
                "velocity": 80,
                "duration": 0.13409090909090793,
                "tempo": 120.0
            },
            {
                "start_time": 9.288636363636364,
                "end_time": 9.422727272727272,
                "pitch": 43,
                "velocity": 80,
                "duration": 0.13409090909090793,
                "tempo": 120.0
            },
            {
                "start_time": 9.438636363636363,
                "end_time": 9.572727272727272,
                "pitch": 43,
                "velocity": 80,
                "duration": 0.1340909090909097,
                "tempo": 120.0
            },
            {
                "start_time": 9.588636363636363,
                "end_time": 9.872727272727273,
                "pitch": 36,
                "velocity": 80,
                "duration": 0.28409090909091006,
                "tempo": 120.0
            },
            {
                "start_time": 9.888636363636364,
                "end_time": 10.022727272727272,
                "pitch": 36,
                "velocity": 80,
                "duration": 0.13409090909090793,
                "tempo": 120.0
            },
            {
                "start_time": 10.038636363636364,
                "end_time": 10.172727272727272,
                "pitch": 36,
                "velocity": 80,
                "duration": 0.13409090909090793,
                "tempo": 120.0
            },
            {
                "start_time": 10.188636363636363,
                "end_time": 10.322727272727272,
                "pitch": 48,
                "velocity": 80,
                "duration": 0.1340909090909097,
                "tempo": 120.0
            },
            {
                "start_time": 10.338636363636363,
                "end_time": 10.472727272727273,
                "pitch": 36,
                "velocity": 80,
                "duration": 0.1340909090909097,
                "tempo": 120.0
            },
            {
                "start_time": 10.488636363636363,
                "end_time": 10.622727272727273,
                "pitch": 46,
                "velocity": 80,
                "duration": 0.1340909090909097,
                "tempo": 120.0
            },
            {
                "start_time": 10.638636363636364,
                "end_time": 10.772727272727272,
                "pitch": 36,
                "velocity": 80,
                "duration": 0.13409090909090793,
                "tempo": 120.0
            },
            {
                "start_time": 10.788636363636362,
                "end_time": 10.922727272727272,
                "pitch": 44,
                "velocity": 80,
                "duration": 0.1340909090909097,
                "tempo": 120.0
            },
            {
                "start_time": 10.938636363636363,
                "end_time": 11.072727272727272,
                "pitch": 36,
                "velocity": 80,
                "duration": 0.1340909090909097,
                "tempo": 120.0
            },
            {
                "start_time": 11.088636363636363,
                "end_time": 11.222727272727273,
                "pitch": 43,
                "velocity": 80,
                "duration": 0.1340909090909097,
                "tempo": 120.0
            },
            {
                "start_time": 11.238636363636363,
                "end_time": 11.372727272727273,
                "pitch": 36,
                "velocity": 80,
                "duration": 0.1340909090909097,
                "tempo": 120.0
            },
            {
                "start_time": 11.388636363636364,
                "end_time": 11.522727272727272,
                "pitch": 41,
                "velocity": 80,
                "duration": 0.13409090909090793,
                "tempo": 120.0
            },
            {
                "start_time": 11.538636363636362,
                "end_time": 11.672727272727272,
                "pitch": 36,
                "velocity": 80,
                "duration": 0.1340909090909097,
                "tempo": 120.0
            },
            {
                "start_time": 11.69090909090909,
                "end_time": 11.825,
                "pitch": 43,
                "velocity": 80,
                "duration": 0.1340909090909097,
                "tempo": 120.0
            },
            {
                "start_time": 11.84090909090909,
                "end_time": 11.977272727272727,
                "pitch": 43,
                "velocity": 80,
                "duration": 0.1363636363636367,
                "tempo": 120.0
            },
            {
                "start_time": 11.993181818181817,
                "end_time": 12.277272727272727,
                "pitch": 36,
                "velocity": 80,
                "duration": 0.28409090909091006,
                "tempo": 120.0
            },
            {
                "start_time": 12.295454545454545,
                "end_time": 12.427272727272726,
                "pitch": 36,
                "velocity": 80,
                "duration": 0.13181818181818095,
                "tempo": 120.0
            },
            {
                "start_time": 12.445454545454545,
                "end_time": 12.577272727272726,
                "pitch": 36,
                "velocity": 80,
                "duration": 0.13181818181818095,
                "tempo": 120.0
            },
            {
                "start_time": 12.595454545454546,
                "end_time": 12.727272727272727,
                "pitch": 48,
                "velocity": 80,
                "duration": 0.13181818181818095,
                "tempo": 120.0
            },
            {
                "start_time": 12.745454545454544,
                "end_time": 12.877272727272727,
                "pitch": 36,
                "velocity": 80,
                "duration": 0.13181818181818272,
                "tempo": 120.0
            },
            {
                "start_time": 12.895454545454545,
                "end_time": 13.027272727272727,
                "pitch": 46,
                "velocity": 80,
                "duration": 0.13181818181818272,
                "tempo": 120.0
            },
            {
                "start_time": 13.045454545454545,
                "end_time": 13.177272727272726,
                "pitch": 36,
                "velocity": 80,
                "duration": 0.13181818181818095,
                "tempo": 120.0
            },
            {
                "start_time": 13.195454545454545,
                "end_time": 13.327272727272726,
                "pitch": 44,
                "velocity": 80,
                "duration": 0.13181818181818095,
                "tempo": 120.0
            },
            {
                "start_time": 13.345454545454546,
                "end_time": 13.477272727272727,
                "pitch": 36,
                "velocity": 80,
                "duration": 0.13181818181818095,
                "tempo": 120.0
            },
            {
                "start_time": 13.495454545454544,
                "end_time": 13.627272727272727,
                "pitch": 43,
                "velocity": 80,
                "duration": 0.13181818181818272,
                "tempo": 120.0
            },
            {
                "start_time": 13.645454545454545,
                "end_time": 13.777272727272727,
                "pitch": 36,
                "velocity": 80,
                "duration": 0.13181818181818272,
                "tempo": 120.0
            },
            {
                "start_time": 13.795454545454545,
                "end_time": 13.927272727272726,
                "pitch": 41,
                "velocity": 80,
                "duration": 0.13181818181818095,
                "tempo": 120.0
            },
            {
                "start_time": 13.945454545454545,
                "end_time": 14.077272727272726,
                "pitch": 36,
                "velocity": 80,
                "duration": 0.13181818181818095,
                "tempo": 120.0
            },
            {
                "start_time": 14.095454545454544,
                "end_time": 14.227272727272727,
                "pitch": 43,
                "velocity": 80,
                "duration": 0.13181818181818272,
                "tempo": 120.0
            },
            {
                "start_time": 14.245454545454544,
                "end_time": 14.377272727272727,
                "pitch": 43,
                "velocity": 80,
                "duration": 0.13181818181818272,
                "tempo": 120.0
            },
            {
                "start_time": 14.395454545454545,
                "end_time": 14.679545454545455,
                "pitch": 36,
                "velocity": 80,
                "duration": 0.28409090909091006,
                "tempo": 120.0
            },
            {
                "start_time": 14.695454545454545,
                "end_time": 14.83181818181818,
                "pitch": 36,
                "velocity": 80,
                "duration": 0.1363636363636349,
                "tempo": 120.0
            },
            {
                "start_time": 14.847727272727273,
                "end_time": 14.98181818181818,
                "pitch": 36,
                "velocity": 80,
                "duration": 0.13409090909090793,
                "tempo": 120.0
            },
            {
                "start_time": 15.0,
                "end_time": 15.134090909090908,
                "pitch": 48,
                "velocity": 80,
                "duration": 0.13409090909090793,
                "tempo": 120.0
            },
            {
                "start_time": 15.149999999999999,
                "end_time": 15.284090909090908,
                "pitch": 36,
                "velocity": 80,
                "duration": 0.1340909090909097,
                "tempo": 120.0
            },
            {
                "start_time": 15.299999999999999,
                "end_time": 15.434090909090909,
                "pitch": 46,
                "velocity": 80,
                "duration": 0.1340909090909097,
                "tempo": 120.0
            },
            {
                "start_time": 15.45,
                "end_time": 15.584090909090909,
                "pitch": 36,
                "velocity": 80,
                "duration": 0.1340909090909097,
                "tempo": 120.0
            },
            {
                "start_time": 15.6,
                "end_time": 15.734090909090908,
                "pitch": 44,
                "velocity": 80,
                "duration": 0.13409090909090793,
                "tempo": 120.0
            },
            {
                "start_time": 15.75,
                "end_time": 15.884090909090908,
                "pitch": 36,
                "velocity": 80,
                "duration": 0.13409090909090793,
                "tempo": 120.0
            },
            {
                "start_time": 15.899999999999999,
                "end_time": 16.03409090909091,
                "pitch": 43,
                "velocity": 80,
                "duration": 0.13409090909091148,
                "tempo": 120.0
            },
            {
                "start_time": 16.05,
                "end_time": 16.18409090909091,
                "pitch": 36,
                "velocity": 80,
                "duration": 0.13409090909090793,
                "tempo": 120.0
            },
            {
                "start_time": 16.2,
                "end_time": 16.334090909090907,
                "pitch": 41,
                "velocity": 80,
                "duration": 0.13409090909090793,
                "tempo": 120.0
            },
            {
                "start_time": 16.349999999999998,
                "end_time": 16.486363636363635,
                "pitch": 36,
                "velocity": 80,
                "duration": 0.1363636363636367,
                "tempo": 120.0
            },
            {
                "start_time": 16.502272727272725,
                "end_time": 16.636363636363637,
                "pitch": 43,
                "velocity": 80,
                "duration": 0.13409090909091148,
                "tempo": 120.0
            },
            {
                "start_time": 16.654545454545453,
                "end_time": 16.788636363636364,
                "pitch": 43,
                "velocity": 80,
                "duration": 0.13409090909091148,
                "tempo": 120.0
            },
            {
                "start_time": 16.804545454545455,
                "end_time": 17.09090909090909,
                "pitch": 36,
                "velocity": 80,
                "duration": 0.28636363636363527,
                "tempo": 120.0
            },
            {
                "start_time": 17.10681818181818,
                "end_time": 17.24090909090909,
                "pitch": 36,
                "velocity": 80,
                "duration": 0.13409090909090793,
                "tempo": 120.0
            },
            {
                "start_time": 17.256818181818183,
                "end_time": 17.39090909090909,
                "pitch": 36,
                "velocity": 80,
                "duration": 0.13409090909090793,
                "tempo": 120.0
            },
            {
                "start_time": 17.40681818181818,
                "end_time": 17.54090909090909,
                "pitch": 48,
                "velocity": 80,
                "duration": 0.13409090909090793,
                "tempo": 120.0
            },
            {
                "start_time": 17.55681818181818,
                "end_time": 17.69090909090909,
                "pitch": 36,
                "velocity": 80,
                "duration": 0.13409090909091148,
                "tempo": 120.0
            },
            {
                "start_time": 17.709090909090907,
                "end_time": 17.84318181818182,
                "pitch": 46,
                "velocity": 80,
                "duration": 0.13409090909091148,
                "tempo": 120.0
            },
            {
                "start_time": 17.85909090909091,
                "end_time": 17.995454545454546,
                "pitch": 36,
                "velocity": 80,
                "duration": 0.1363636363636367,
                "tempo": 120.0
            },
            {
                "start_time": 18.011363636363637,
                "end_time": 18.145454545454545,
                "pitch": 44,
                "velocity": 80,
                "duration": 0.13409090909090793,
                "tempo": 120.0
            },
            {
                "start_time": 18.163636363636364,
                "end_time": 18.3,
                "pitch": 36,
                "velocity": 80,
                "duration": 0.1363636363636367,
                "tempo": 120.0
            },
            {
                "start_time": 18.31590909090909,
                "end_time": 18.452272727272728,
                "pitch": 43,
                "velocity": 80,
                "duration": 0.1363636363636367,
                "tempo": 120.0
            },
            {
                "start_time": 18.46818181818182,
                "end_time": 18.604545454545455,
                "pitch": 36,
                "velocity": 80,
                "duration": 0.1363636363636367,
                "tempo": 120.0
            },
            {
                "start_time": 18.62272727272727,
                "end_time": 18.759090909090908,
                "pitch": 41,
                "velocity": 80,
                "duration": 0.1363636363636367,
                "tempo": 120.0
            },
            {
                "start_time": 18.775,
                "end_time": 18.90681818181818,
                "pitch": 36,
                "velocity": 80,
                "duration": 0.13181818181818272,
                "tempo": 120.0
            },
            {
                "start_time": 18.925,
                "end_time": 19.05681818181818,
                "pitch": 43,
                "velocity": 80,
                "duration": 0.13181818181817917,
                "tempo": 120.0
            },
            {
                "start_time": 19.07272727272727,
                "end_time": 19.204545454545453,
                "pitch": 43,
                "velocity": 80,
                "duration": 0.13181818181818272,
                "tempo": 120.0
            }
        ],
        "French Horn": [
            {
                "start_time": 0.00909090909090909,
                "end_time": 2.036363636363636,
                "pitch": 67,
                "velocity": 64,
                "duration": 2.027272727272727,
                "tempo": 120.0
            },
            {
                "start_time": 2.0522727272727272,
                "end_time": 2.186363636363636,
                "pitch": 67,
                "velocity": 64,
                "duration": 0.13409090909090882,
                "tempo": 120.0
            },
            {
                "start_time": 2.202272727272727,
                "end_time": 4.747727272727272,
                "pitch": 65,
                "velocity": 64,
                "duration": 2.545454545454545,
                "tempo": 120.0
            },
            {
                "start_time": 4.763636363636364,
                "end_time": 6.8590909090909085,
                "pitch": 67,
                "velocity": 64,
                "duration": 2.095454545454545,
                "tempo": 120.0
            },
            {
                "start_time": 6.877272727272727,
                "end_time": 7.009090909090909,
                "pitch": 67,
                "velocity": 64,
                "duration": 0.13181818181818183,
                "tempo": 120.0
            },
            {
                "start_time": 7.027272727272727,
                "end_time": 8.363636363636363,
                "pitch": 70,
                "velocity": 64,
                "duration": 1.336363636363636,
                "tempo": 120.0
            },
            {
                "start_time": 8.381818181818181,
                "end_time": 8.51590909090909,
                "pitch": 75,
                "velocity": 64,
                "duration": 0.1340909090909097,
                "tempo": 120.0
            },
            {
                "start_time": 8.531818181818181,
                "end_time": 8.668181818181818,
                "pitch": 74,
                "velocity": 64,
                "duration": 0.1363636363636367,
                "tempo": 120.0
            },
            {
                "start_time": 8.684090909090909,
                "end_time": 8.818181818181818,
                "pitch": 70,
                "velocity": 64,
                "duration": 0.1340909090909097,
                "tempo": 120.0
            },
            {
                "start_time": 8.836363636363636,
                "end_time": 8.970454545454546,
                "pitch": 75,
                "velocity": 64,
                "duration": 0.1340909090909097,
                "tempo": 120.0
            },
            {
                "start_time": 8.986363636363636,
                "end_time": 9.122727272727273,
                "pitch": 74,
                "velocity": 64,
                "duration": 0.1363636363636367,
                "tempo": 120.0
            },
            {
                "start_time": 9.138636363636364,
                "end_time": 9.572727272727272,
                "pitch": 70,
                "velocity": 64,
                "duration": 0.43409090909090864,
                "tempo": 120.0
            },
            {
                "start_time": 9.588636363636363,
                "end_time": 11.672727272727272,
                "pitch": 67,
                "velocity": 64,
                "duration": 2.084090909090909,
                "tempo": 120.0
            },
            {
                "start_time": 11.69090909090909,
                "end_time": 11.825,
                "pitch": 67,
                "velocity": 64,
                "duration": 0.1340909090909097,
                "tempo": 120.0
            },
            {
                "start_time": 11.84090909090909,
                "end_time": 14.077272727272726,
                "pitch": 68,
                "velocity": 64,
                "duration": 2.2363636363636363,
                "tempo": 120.0
            },
            {
                "start_time": 14.095454545454544,
                "end_time": 14.227272727272727,
                "pitch": 68,
                "velocity": 64,
                "duration": 0.13181818181818272,
                "tempo": 120.0
            },
            {
                "start_time": 14.245454545454544,
                "end_time": 16.18409090909091,
                "pitch": 70,
                "velocity": 64,
                "duration": 1.9386363636363644,
                "tempo": 120.0
            },
            {
                "start_time": 16.2,
                "end_time": 16.334090909090907,
                "pitch": 70,
                "velocity": 64,
                "duration": 0.13409090909090793,
                "tempo": 120.0
            },
            {
                "start_time": 16.349999999999998,
                "end_time": 16.486363636363635,
                "pitch": 70,
                "velocity": 64,
                "duration": 0.1363636363636367,
                "tempo": 120.0
            },
            {
                "start_time": 16.502272727272725,
                "end_time": 16.636363636363637,
                "pitch": 70,
                "velocity": 64,
                "duration": 0.13409090909091148,
                "tempo": 120.0
            },
            {
                "start_time": 16.654545454545453,
                "end_time": 16.94090909090909,
                "pitch": 72,
                "velocity": 64,
                "duration": 0.2863636363636388,
                "tempo": 120.0
            },
            {
                "start_time": 16.956818181818182,
                "end_time": 17.09090909090909,
                "pitch": 72,
                "velocity": 64,
                "duration": 0.13409090909090793,
                "tempo": 120.0
            },
            {
                "start_time": 17.10681818181818,
                "end_time": 17.24090909090909,
                "pitch": 67,
                "velocity": 64,
                "duration": 0.13409090909090793,
                "tempo": 120.0
            },
            {
                "start_time": 17.256818181818183,
                "end_time": 17.39090909090909,
                "pitch": 67,
                "velocity": 64,
                "duration": 0.13409090909090793,
                "tempo": 120.0
            },
            {
                "start_time": 17.40681818181818,
                "end_time": 17.54090909090909,
                "pitch": 72,
                "velocity": 64,
                "duration": 0.13409090909090793,
                "tempo": 120.0
            },
            {
                "start_time": 17.55681818181818,
                "end_time": 17.69090909090909,
                "pitch": 67,
                "velocity": 64,
                "duration": 0.13409090909091148,
                "tempo": 120.0
            },
            {
                "start_time": 17.709090909090907,
                "end_time": 17.84318181818182,
                "pitch": 67,
                "velocity": 64,
                "duration": 0.13409090909091148,
                "tempo": 120.0
            },
            {
                "start_time": 17.85909090909091,
                "end_time": 18.145454545454545,
                "pitch": 75,
                "velocity": 64,
                "duration": 0.28636363636363527,
                "tempo": 120.0
            },
            {
                "start_time": 18.163636363636364,
                "end_time": 18.3,
                "pitch": 75,
                "velocity": 64,
                "duration": 0.1363636363636367,
                "tempo": 120.0
            },
            {
                "start_time": 18.31590909090909,
                "end_time": 19.204545454545453,
                "pitch": 72,
                "velocity": 64,
                "duration": 0.8886363636363619,
                "tempo": 120.0
            }
        ]
    }
}