{
    "track_id": "01 - Game de check! Koutsuu Anzen (FM) - Instructions",
    "mood": "happy",
    "instruments": {
        "Electric Guitar (clean)": [
            {
                "start_time": 0.0,
                "end_time": 0.3659090909090909,
                "pitch": 60,
                "velocity": 64,
                "duration": 0.3659090909090909,
                "tempo": 120.0
            },
            {
                "start_time": 0.3840909090909091,
                "end_time": 0.5659090909090909,
                "pitch": 64,
                "velocity": 64,
                "duration": 0.18181818181818182,
                "tempo": 120.0
            },
            {
                "start_time": 0.5840909090909091,
                "end_time": 0.9659090909090908,
                "pitch": 67,
                "velocity": 64,
                "duration": 0.3818181818181817,
                "tempo": 120.0
            },
            {
                "start_time": 0.984090909090909,
                "end_time": 1.3772727272727272,
                "pitch": 70,
                "velocity": 64,
                "duration": 0.3931818181818182,
                "tempo": 120.0
            },
            {
                "start_time": 1.393181818181818,
                "end_time": 1.5772727272727272,
                "pitch": 69,
                "velocity": 64,
                "duration": 0.18409090909090908,
                "tempo": 120.0
            },
            {
                "start_time": 1.593181818181818,
                "end_time": 1.9795454545454545,
                "pitch": 67,
                "velocity": 64,
                "duration": 0.38636363636363646,
                "tempo": 120.0
            },
            {
                "start_time": 1.9954545454545454,
                "end_time": 2.1795454545454542,
                "pitch": 64,
                "velocity": 64,
                "duration": 0.18409090909090886,
                "tempo": 120.0
            },
            {
                "start_time": 2.1977272727272728,
                "end_time": 2.5795454545454546,
                "pitch": 60,
                "velocity": 64,
                "duration": 0.38181818181818183,
                "tempo": 120.0
            },
            {
                "start_time": 2.5977272727272727,
                "end_time": 2.9795454545454545,
                "pitch": 58,
                "velocity": 64,
                "duration": 0.38181818181818183,
                "tempo": 120.0
            },
            {
                "start_time": 2.9977272727272726,
                "end_time": 3.1818181818181817,
                "pitch": 59,
                "velocity": 64,
                "duration": 0.18409090909090908,
                "tempo": 120.0
            },
            {
                "start_time": 3.1977272727272728,
                "end_time": 4.184090909090909,
                "pitch": 60,
                "velocity": 64,
                "duration": 0.9863636363636359,
                "tempo": 120.0
            },
            {
                "start_time": 4.202272727272727,
                "end_time": 4.577272727272727,
                "pitch": 64,
                "velocity": 64,
                "duration": 0.375,
                "tempo": 120.0
            },
            {
                "start_time": 4.595454545454545,
                "end_time": 4.779545454545454,
                "pitch": 62,
                "velocity": 64,
                "duration": 0.18409090909090953,
                "tempo": 120.0
            },
            {
                "start_time": 4.795454545454545,
                "end_time": 5.181818181818182,
                "pitch": 60,
                "velocity": 64,
                "duration": 0.3863636363636367,
                "tempo": 120.0
            },
            {
                "start_time": 5.197727272727272,
                "end_time": 5.384090909090909,
                "pitch": 58,
                "velocity": 64,
                "duration": 0.1863636363636365,
                "tempo": 120.0
            },
            {
                "start_time": 5.3999999999999995,
                "end_time": 5.584090909090909,
                "pitch": 59,
                "velocity": 64,
                "duration": 0.18409090909090953,
                "tempo": 120.0
            },
            {
                "start_time": 5.6,
                "end_time": 6.386363636363636,
                "pitch": 60,
                "velocity": 64,
                "duration": 0.7863636363636362,
                "tempo": 120.0
            },
            {
                "start_time": 6.402272727272727,
                "end_time": 6.786363636363636,
                "pitch": 60,
                "velocity": 64,
                "duration": 0.3840909090909088,
                "tempo": 120.0
            },
            {
                "start_time": 6.804545454545454,
                "end_time": 6.988636363636363,
                "pitch": 64,
                "velocity": 64,
                "duration": 0.18409090909090953,
                "tempo": 120.0
            },
            {
                "start_time": 7.004545454545454,
                "end_time": 7.3977272727272725,
                "pitch": 67,
                "velocity": 64,
                "duration": 0.3931818181818185,
                "tempo": 120.0
            },
            {
                "start_time": 7.41590909090909,
                "end_time": 7.8,
                "pitch": 70,
                "velocity": 64,
                "duration": 0.3840909090909097,
                "tempo": 120.0
            },
            {
                "start_time": 7.8159090909090905,
                "end_time": 7.995454545454545,
                "pitch": 69,
                "velocity": 64,
                "duration": 0.17954545454545467,
                "tempo": 120.0
            },
            {
                "start_time": 8.011363636363637,
                "end_time": 8.39090909090909,
                "pitch": 67,
                "velocity": 64,
                "duration": 0.37954545454545396,
                "tempo": 120.0
            },
            {
                "start_time": 8.409090909090908,
                "end_time": 8.59090909090909,
                "pitch": 64,
                "velocity": 64,
                "duration": 0.18181818181818166,
                "tempo": 120.0
            },
            {
                "start_time": 8.60909090909091,
                "end_time": 9.002272727272727,
                "pitch": 60,
                "velocity": 64,
                "duration": 0.39318181818181763,
                "tempo": 120.0
            },
            {
                "start_time": 9.018181818181818,
                "end_time": 9.395454545454545,
                "pitch": 76,
                "velocity": 64,
                "duration": 0.377272727272727,
                "tempo": 120.0
            },
            {
                "start_time": 9.411363636363635,
                "end_time": 9.595454545454546,
                "pitch": 74,
                "velocity": 64,
                "duration": 0.18409090909091042,
                "tempo": 120.0
            },
            {
                "start_time": 9.613636363636363,
                "end_time": 10.806818181818182,
                "pitch": 72,
                "velocity": 64,
                "duration": 1.1931818181818183,
                "tempo": 120.0
            },
            {
                "start_time": 10.822727272727272,
                "end_time": 11.002272727272727,
                "pitch": 70,
                "velocity": 64,
                "duration": 0.17954545454545467,
                "tempo": 120.0
            },
            {
                "start_time": 11.020454545454545,
                "end_time": 11.204545454545453,
                "pitch": 71,
                "velocity": 64,
                "duration": 0.18409090909090864,
                "tempo": 120.0
            },
            {
                "start_time": 11.220454545454546,
                "end_time": 11.909090909090908,
                "pitch": 72,
                "velocity": 64,
                "duration": 0.6886363636363626,
                "tempo": 120.0
            },
            {
                "start_time": 12.829545454545453,
                "end_time": 13.218181818181817,
                "pitch": 65,
                "velocity": 64,
                "duration": 0.38863636363636367,
                "tempo": 120.0
            },
            {
                "start_time": 13.236363636363636,
                "end_time": 13.625,
                "pitch": 64,
                "velocity": 64,
                "duration": 0.38863636363636367,
                "tempo": 120.0
            },
            {
                "start_time": 13.643181818181818,
                "end_time": 14.027272727272727,
                "pitch": 60,
                "velocity": 64,
                "duration": 0.3840909090909097,
                "tempo": 120.0
            },
            {
                "start_time": 14.043181818181818,
                "end_time": 14.227272727272727,
                "pitch": 58,
                "velocity": 64,
                "duration": 0.18409090909090864,
                "tempo": 120.0
            },
            {
                "start_time": 14.243181818181817,
                "end_time": 14.429545454545455,
                "pitch": 59,
                "velocity": 64,
                "duration": 0.1863636363636374,
                "tempo": 120.0
            },
            {
                "start_time": 14.445454545454545,
                "end_time": 14.629545454545454,
                "pitch": 60,
                "velocity": 64,
                "duration": 0.18409090909090864,
                "tempo": 120.0
            },
            {
                "start_time": 14.647727272727272,
                "end_time": 15.031818181818181,
                "pitch": 64,
                "velocity": 64,
                "duration": 0.3840909090909097,
                "tempo": 120.0
            },
            {
                "start_time": 15.049999999999999,
                "end_time": 15.436363636363636,
                "pitch": 60,
                "velocity": 64,
                "duration": 0.3863636363636367,
                "tempo": 120.0
            },
            {
                "start_time": 15.452272727272726,
                "end_time": 15.636363636363635,
                "pitch": 58,
                "velocity": 64,
                "duration": 0.18409090909090864,
                "tempo": 120.0
            },
            {
                "start_time": 15.654545454545454,
                "end_time": 15.838636363636363,
                "pitch": 59,
                "velocity": 64,
                "duration": 0.18409090909090864,
                "tempo": 120.0
            },
            {
                "start_time": 15.854545454545454,
                "end_time": 16.438636363636363,
                "pitch": 60,
                "velocity": 64,
                "duration": 0.584090909090909,
                "tempo": 120.0
            },
            {
                "start_time": 16.456818181818182,
                "end_time": 16.472727272727273,
                "pitch": 64,
                "velocity": 64,
                "duration": 0.01590909090909065,
                "tempo": 120.0
            },
            {
                "start_time": 16.488636363636363,
                "end_time": 16.836363636363636,
                "pitch": 65,
                "velocity": 64,
                "duration": 0.34772727272727266,
                "tempo": 120.0
            },
            {
                "start_time": 16.854545454545455,
                "end_time": 17.034090909090907,
                "pitch": 64,
                "velocity": 64,
                "duration": 0.17954545454545112,
                "tempo": 120.0
            },
            {
                "start_time": 17.05,
                "end_time": 17.436363636363634,
                "pitch": 60,
                "velocity": 64,
                "duration": 0.38636363636363313,
                "tempo": 120.0
            },
            {
                "start_time": 17.452272727272728,
                "end_time": 17.845454545454544,
                "pitch": 69,
                "velocity": 64,
                "duration": 0.39318181818181586,
                "tempo": 120.0
            },
            {
                "start_time": 17.863636363636363,
                "end_time": 18.043181818181818,
                "pitch": 67,
                "velocity": 64,
                "duration": 0.17954545454545467,
                "tempo": 120.0
            },
            {
                "start_time": 18.05909090909091,
                "end_time": 18.238636363636363,
                "pitch": 64,
                "velocity": 64,
                "duration": 0.17954545454545467,
                "tempo": 120.0
            },
            {
                "start_time": 18.254545454545454,
                "end_time": 19.004545454545454,
                "pitch": 60,
                "velocity": 64,
                "duration": 0.75,
                "tempo": 120.0
            },
            {
                "start_time": 19.456818181818182,
                "end_time": 19.64090909090909,
                "pitch": 76,
                "velocity": 64,
                "duration": 0.18409090909090864,
                "tempo": 120.0
            },
            {
                "start_time": 19.65681818181818,
                "end_time": 19.84090909090909,
                "pitch": 76,
                "velocity": 64,
                "duration": 0.18409090909090864,
                "tempo": 120.0
            },
            {
                "start_time": 19.85681818181818,
                "end_time": 20.045454545454543,
                "pitch": 70,
                "velocity": 64,
                "duration": 0.1886363636363626,
                "tempo": 120.0
            },
            {
                "start_time": 20.063636363636363,
                "end_time": 20.252272727272725,
                "pitch": 71,
                "velocity": 64,
                "duration": 0.1886363636363626,
                "tempo": 120.0
            },
            {
                "start_time": 20.268181818181816,
                "end_time": 20.654545454545453,
                "pitch": 72,
                "velocity": 64,
                "duration": 0.3863636363636367,
                "tempo": 120.0
            },
            {
                "start_time": 20.670454545454543,
                "end_time": 21.054545454545455,
                "pitch": 67,
                "velocity": 64,
                "duration": 0.3840909090909115,
                "tempo": 120.0
            },
            {
                "start_time": 21.070454545454545,
                "end_time": 21.454545454545453,
                "pitch": 69,
                "velocity": 64,
                "duration": 0.38409090909090793,
                "tempo": 120.0
            },
            {
                "start_time": 21.470454545454544,
                "end_time": 21.85681818181818,
                "pitch": 70,
                "velocity": 64,
                "duration": 0.3863636363636367,
                "tempo": 120.0
            },
            {
                "start_time": 21.875,
                "end_time": 22.054545454545455,
                "pitch": 69,
                "velocity": 64,
                "duration": 0.17954545454545467,
                "tempo": 120.0
            },
            {
                "start_time": 22.070454545454545,
                "end_time": 22.45,
                "pitch": 69,
                "velocity": 64,
                "duration": 0.37954545454545396,
                "tempo": 120.0
            },
            {
                "start_time": 22.46590909090909,
                "end_time": 22.854545454545452,
                "pitch": 64,
                "velocity": 64,
                "duration": 0.3886363636363619,
                "tempo": 120.0
            },
            {
                "start_time": 22.87272727272727,
                "end_time": 23.025,
                "pitch": 64,
                "velocity": 64,
                "duration": 0.15227272727272734,
                "tempo": 120.0
            },
            {
                "start_time": 23.477272727272727,
                "end_time": 23.65681818181818,
                "pitch": 58,
                "velocity": 64,
                "duration": 0.17954545454545467,
                "tempo": 120.0
            },
            {
                "start_time": 23.672727272727272,
                "end_time": 23.852272727272727,
                "pitch": 59,
                "velocity": 64,
                "duration": 0.17954545454545467,
                "tempo": 120.0
            },
            {
                "start_time": 23.870454545454546,
                "end_time": 24.263636363636362,
                "pitch": 60,
                "velocity": 64,
                "duration": 0.39318181818181586,
                "tempo": 120.0
            },
            {
                "start_time": 24.279545454545453,
                "end_time": 24.46363636363636,
                "pitch": 76,
                "velocity": 64,
                "duration": 0.18409090909090864,
                "tempo": 120.0
            },
            {
                "start_time": 24.48181818181818,
                "end_time": 24.66590909090909,
                "pitch": 76,
                "velocity": 64,
                "duration": 0.18409090909090864,
                "tempo": 120.0
            },
            {
                "start_time": 24.68181818181818,
                "end_time": 25.652272727272727,
                "pitch": 76,
                "velocity": 64,
                "duration": 0.9704545454545475,
                "tempo": 120.0
            }
        ],
        "Acoustic Bass": [
            {
                "start_time": 0.0,
                "end_time": 0.1659090909090909,
                "pitch": 36,
                "velocity": 80,
                "duration": 0.1659090909090909,
                "tempo": 120.0
            },
            {
                "start_time": 0.18409090909090908,
                "end_time": 0.3659090909090909,
                "pitch": 36,
                "velocity": 80,
                "duration": 0.18181818181818182,
                "tempo": 120.0
            },
            {
                "start_time": 0.3840909090909091,
                "end_time": 0.5659090909090909,
                "pitch": 40,
                "velocity": 80,
                "duration": 0.18181818181818182,
                "tempo": 120.0
            },
            {
                "start_time": 0.5840909090909091,
                "end_time": 0.7659090909090909,
                "pitch": 43,
                "velocity": 80,
                "duration": 0.18181818181818177,
                "tempo": 120.0
            },
            {
                "start_time": 0.7840909090909091,
                "end_time": 0.9659090909090908,
                "pitch": 46,
                "velocity": 80,
                "duration": 0.18181818181818177,
                "tempo": 120.0
            },
            {
                "start_time": 0.984090909090909,
                "end_time": 1.1704545454545454,
                "pitch": 46,
                "velocity": 80,
                "duration": 0.1863636363636364,
                "tempo": 120.0
            },
            {
                "start_time": 1.1886363636363635,
                "end_time": 1.3772727272727272,
                "pitch": 45,
                "velocity": 80,
                "duration": 0.1886363636363637,
                "tempo": 120.0
            },
            {
                "start_time": 1.393181818181818,
                "end_time": 1.5772727272727272,
                "pitch": 43,
                "velocity": 80,
                "duration": 0.18409090909090908,
                "tempo": 120.0
            },
            {
                "start_time": 1.593181818181818,
                "end_time": 1.7772727272727271,
                "pitch": 36,
                "velocity": 80,
                "duration": 0.18409090909090908,
                "tempo": 120.0
            },
            {
                "start_time": 1.793181818181818,
                "end_time": 1.9795454545454545,
                "pitch": 36,
                "velocity": 80,
                "duration": 0.1863636363636365,
                "tempo": 120.0
            },
            {
                "start_time": 1.9954545454545454,
                "end_time": 2.1795454545454542,
                "pitch": 40,
                "velocity": 80,
                "duration": 0.18409090909090886,
                "tempo": 120.0
            },
            {
                "start_time": 2.1977272727272728,
                "end_time": 2.5795454545454546,
                "pitch": 43,
                "velocity": 80,
                "duration": 0.38181818181818183,
                "tempo": 120.0
            },
            {
                "start_time": 2.5977272727272727,
                "end_time": 2.7795454545454543,
                "pitch": 34,
                "velocity": 80,
                "duration": 0.18181818181818166,
                "tempo": 120.0
            },
            {
                "start_time": 2.7977272727272724,
                "end_time": 2.9795454545454545,
                "pitch": 35,
                "velocity": 80,
                "duration": 0.1818181818181821,
                "tempo": 120.0
            },
            {
                "start_time": 2.9977272727272726,
                "end_time": 3.1818181818181817,
                "pitch": 36,
                "velocity": 80,
                "duration": 0.18409090909090908,
                "tempo": 120.0
            },
            {
                "start_time": 3.1977272727272728,
                "end_time": 3.381818181818182,
                "pitch": 36,
                "velocity": 80,
                "duration": 0.18409090909090908,
                "tempo": 120.0
            },
            {
                "start_time": 3.4,
                "end_time": 3.5795454545454546,
                "pitch": 36,
                "velocity": 80,
                "duration": 0.17954545454545467,
                "tempo": 120.0
            },
            {
                "start_time": 3.5954545454545452,
                "end_time": 3.775,
                "pitch": 40,
                "velocity": 80,
                "duration": 0.17954545454545467,
                "tempo": 120.0
            },
            {
                "start_time": 3.7909090909090906,
                "end_time": 3.9795454545454545,
                "pitch": 43,
                "velocity": 80,
                "duration": 0.18863636363636394,
                "tempo": 120.0
            },
            {
                "start_time": 3.9977272727272726,
                "end_time": 4.184090909090909,
                "pitch": 46,
                "velocity": 80,
                "duration": 0.18636363636363606,
                "tempo": 120.0
            },
            {
                "start_time": 4.202272727272727,
                "end_time": 4.381818181818182,
                "pitch": 46,
                "velocity": 80,
                "duration": 0.17954545454545467,
                "tempo": 120.0
            },
            {
                "start_time": 4.3977272727272725,
                "end_time": 4.577272727272727,
                "pitch": 45,
                "velocity": 80,
                "duration": 0.17954545454545467,
                "tempo": 120.0
            },
            {
                "start_time": 4.595454545454545,
                "end_time": 4.9795454545454545,
                "pitch": 43,
                "velocity": 80,
                "duration": 0.3840909090909097,
                "tempo": 120.0
            },
            {
                "start_time": 4.997727272727272,
                "end_time": 5.181818181818182,
                "pitch": 48,
                "velocity": 80,
                "duration": 0.18409090909090953,
                "tempo": 120.0
            },
            {
                "start_time": 5.197727272727272,
                "end_time": 5.384090909090909,
                "pitch": 48,
                "velocity": 80,
                "duration": 0.1863636363636365,
                "tempo": 120.0
            },
            {
                "start_time": 5.3999999999999995,
                "end_time": 5.584090909090909,
                "pitch": 48,
                "velocity": 80,
                "duration": 0.18409090909090953,
                "tempo": 120.0
            },
            {
                "start_time": 5.6,
                "end_time": 5.784090909090909,
                "pitch": 48,
                "velocity": 80,
                "duration": 0.18409090909090953,
                "tempo": 120.0
            },
            {
                "start_time": 5.8,
                "end_time": 5.9840909090909085,
                "pitch": 46,
                "velocity": 80,
                "duration": 0.18409090909090864,
                "tempo": 120.0
            },
            {
                "start_time": 6.0,
                "end_time": 6.186363636363636,
                "pitch": 45,
                "velocity": 80,
                "duration": 0.18636363636363562,
                "tempo": 120.0
            },
            {
                "start_time": 6.202272727272727,
                "end_time": 6.386363636363636,
                "pitch": 43,
                "velocity": 80,
                "duration": 0.18409090909090864,
                "tempo": 120.0
            },
            {
                "start_time": 6.402272727272727,
                "end_time": 6.586363636363636,
                "pitch": 36,
                "velocity": 80,
                "duration": 0.18409090909090864,
                "tempo": 120.0
            },
            {
                "start_time": 6.602272727272727,
                "end_time": 6.786363636363636,
                "pitch": 36,
                "velocity": 80,
                "duration": 0.18409090909090953,
                "tempo": 120.0
            },
            {
                "start_time": 6.804545454545454,
                "end_time": 6.988636363636363,
                "pitch": 40,
                "velocity": 80,
                "duration": 0.18409090909090953,
                "tempo": 120.0
            },
            {
                "start_time": 7.004545454545454,
                "end_time": 7.1931818181818175,
                "pitch": 43,
                "velocity": 80,
                "duration": 0.1886363636363635,
                "tempo": 120.0
            },
            {
                "start_time": 7.211363636363636,
                "end_time": 7.3977272727272725,
                "pitch": 46,
                "velocity": 80,
                "duration": 0.1863636363636365,
                "tempo": 120.0
            },
            {
                "start_time": 7.41590909090909,
                "end_time": 7.6,
                "pitch": 46,
                "velocity": 80,
                "duration": 0.18409090909090953,
                "tempo": 120.0
            },
            {
                "start_time": 7.61590909090909,
                "end_time": 7.8,
                "pitch": 45,
                "velocity": 80,
                "duration": 0.18409090909090953,
                "tempo": 120.0
            },
            {
                "start_time": 7.8159090909090905,
                "end_time": 7.995454545454545,
                "pitch": 43,
                "velocity": 80,
                "duration": 0.17954545454545467,
                "tempo": 120.0
            },
            {
                "start_time": 8.011363636363637,
                "end_time": 8.190909090909091,
                "pitch": 36,
                "velocity": 80,
                "duration": 0.17954545454545467,
                "tempo": 120.0
            },
            {
                "start_time": 8.209090909090909,
                "end_time": 8.39090909090909,
                "pitch": 36,
                "velocity": 80,
                "duration": 0.18181818181818166,
                "tempo": 120.0
            },
            {
                "start_time": 8.409090909090908,
                "end_time": 8.59090909090909,
                "pitch": 40,
                "velocity": 80,
                "duration": 0.18181818181818166,
                "tempo": 120.0
            },
            {
                "start_time": 8.60909090909091,
                "end_time": 9.002272727272727,
                "pitch": 43,
                "velocity": 80,
                "duration": 0.39318181818181763,
                "tempo": 120.0
            },
            {
                "start_time": 9.018181818181818,
                "end_time": 9.197727272727272,
                "pitch": 34,
                "velocity": 80,
                "duration": 0.17954545454545467,
                "tempo": 120.0
            },
            {
                "start_time": 9.21590909090909,
                "end_time": 9.395454545454545,
                "pitch": 35,
                "velocity": 80,
                "duration": 0.17954545454545467,
                "tempo": 120.0
            },
            {
                "start_time": 9.411363636363635,
                "end_time": 9.595454545454546,
                "pitch": 36,
                "velocity": 80,
                "duration": 0.18409090909091042,
                "tempo": 120.0
            },
            {
                "start_time": 9.613636363636363,
                "end_time": 9.797727272727272,
                "pitch": 36,
                "velocity": 80,
                "duration": 0.18409090909090864,
                "tempo": 120.0
            },
            {
                "start_time": 9.813636363636363,
                "end_time": 10.002272727272727,
                "pitch": 36,
                "velocity": 80,
                "duration": 0.18863636363636438,
                "tempo": 120.0
            },
            {
                "start_time": 10.018181818181818,
                "end_time": 10.206818181818182,
                "pitch": 40,
                "velocity": 80,
                "duration": 0.18863636363636438,
                "tempo": 120.0
            },
            {
                "start_time": 10.225,
                "end_time": 10.409090909090908,
                "pitch": 43,
                "velocity": 80,
                "duration": 0.18409090909090864,
                "tempo": 120.0
            },
            {
                "start_time": 10.427272727272726,
                "end_time": 10.611363636363636,
                "pitch": 46,
                "velocity": 80,
                "duration": 0.18409090909091042,
                "tempo": 120.0
            },
            {
                "start_time": 10.627272727272727,
                "end_time": 10.806818181818182,
                "pitch": 46,
                "velocity": 80,
                "duration": 0.17954545454545467,
                "tempo": 120.0
            },
            {
                "start_time": 10.822727272727272,
                "end_time": 11.002272727272727,
                "pitch": 45,
                "velocity": 80,
                "duration": 0.17954545454545467,
                "tempo": 120.0
            },
            {
                "start_time": 11.020454545454545,
                "end_time": 11.404545454545454,
                "pitch": 43,
                "velocity": 80,
                "duration": 0.3840909090909097,
                "tempo": 120.0
            },
            {
                "start_time": 11.422727272727272,
                "end_time": 11.809090909090909,
                "pitch": 48,
                "velocity": 80,
                "duration": 0.3863636363636367,
                "tempo": 120.0
            },
            {
                "start_time": 11.825,
                "end_time": 12.209090909090909,
                "pitch": 48,
                "velocity": 80,
                "duration": 0.3840909090909097,
                "tempo": 120.0
            },
            {
                "start_time": 12.225,
                "end_time": 12.409090909090908,
                "pitch": 48,
                "velocity": 80,
                "duration": 0.18409090909090864,
                "tempo": 120.0
            },
            {
                "start_time": 12.427272727272726,
                "end_time": 12.811363636363636,
                "pitch": 48,
                "velocity": 80,
                "duration": 0.3840909090909097,
                "tempo": 120.0
            },
            {
                "start_time": 12.829545454545453,
                "end_time": 13.013636363636364,
                "pitch": 36,
                "velocity": 80,
                "duration": 0.18409090909091042,
                "tempo": 120.0
            },
            {
                "start_time": 13.029545454545454,
                "end_time": 13.218181818181817,
                "pitch": 36,
                "velocity": 80,
                "duration": 0.1886363636363626,
                "tempo": 120.0
            },
            {
                "start_time": 13.236363636363636,
                "end_time": 13.424999999999999,
                "pitch": 40,
                "velocity": 80,
                "duration": 0.1886363636363626,
                "tempo": 120.0
            },
            {
                "start_time": 13.44090909090909,
                "end_time": 13.625,
                "pitch": 43,
                "velocity": 80,
                "duration": 0.18409090909091042,
                "tempo": 120.0
            },
            {
                "start_time": 13.643181818181818,
                "end_time": 13.827272727272726,
                "pitch": 46,
                "velocity": 80,
                "duration": 0.18409090909090864,
                "tempo": 120.0
            },
            {
                "start_time": 13.843181818181817,
                "end_time": 14.027272727272727,
                "pitch": 46,
                "velocity": 80,
                "duration": 0.18409090909091042,
                "tempo": 120.0
            },
            {
                "start_time": 14.043181818181818,
                "end_time": 14.227272727272727,
                "pitch": 45,
                "velocity": 80,
                "duration": 0.18409090909090864,
                "tempo": 120.0
            },
            {
                "start_time": 14.243181818181817,
                "end_time": 14.429545454545455,
                "pitch": 43,
                "velocity": 80,
                "duration": 0.1863636363636374,
                "tempo": 120.0
            },
            {
                "start_time": 14.445454545454545,
                "end_time": 14.629545454545454,
                "pitch": 36,
                "velocity": 80,
                "duration": 0.18409090909090864,
                "tempo": 120.0
            },
            {
                "start_time": 14.647727272727272,
                "end_time": 14.83181818181818,
                "pitch": 36,
                "velocity": 80,
                "duration": 0.18409090909090864,
                "tempo": 120.0
            },
            {
                "start_time": 14.847727272727273,
                "end_time": 15.031818181818181,
                "pitch": 40,
                "velocity": 80,
                "duration": 0.18409090909090864,
                "tempo": 120.0
            },
            {
                "start_time": 15.049999999999999,
                "end_time": 15.436363636363636,
                "pitch": 43,
                "velocity": 80,
                "duration": 0.3863636363636367,
                "tempo": 120.0
            },
            {
                "start_time": 15.452272727272726,
                "end_time": 15.636363636363635,
                "pitch": 34,
                "velocity": 80,
                "duration": 0.18409090909090864,
                "tempo": 120.0
            },
            {
                "start_time": 15.654545454545454,
                "end_time": 15.838636363636363,
                "pitch": 35,
                "velocity": 80,
                "duration": 0.18409090909090864,
                "tempo": 120.0
            },
            {
                "start_time": 15.854545454545454,
                "end_time": 16.038636363636364,
                "pitch": 36,
                "velocity": 80,
                "duration": 0.18409090909091042,
                "tempo": 120.0
            },
            {
                "start_time": 16.054545454545455,
                "end_time": 16.238636363636363,
                "pitch": 36,
                "velocity": 80,
                "duration": 0.18409090909090864,
                "tempo": 120.0
            },
            {
                "start_time": 16.254545454545454,
                "end_time": 16.438636363636363,
                "pitch": 36,
                "velocity": 80,
                "duration": 0.18409090909090864,
                "tempo": 120.0
            },
            {
                "start_time": 16.456818181818182,
                "end_time": 16.64090909090909,
                "pitch": 40,
                "velocity": 80,
                "duration": 0.18409090909090864,
                "tempo": 120.0
            },
            {
                "start_time": 16.65681818181818,
                "end_time": 16.836363636363636,
                "pitch": 43,
                "velocity": 80,
                "duration": 0.17954545454545467,
                "tempo": 120.0
            },
            {
                "start_time": 16.854545454545455,
                "end_time": 17.034090909090907,
                "pitch": 46,
                "velocity": 80,
                "duration": 0.17954545454545112,
                "tempo": 120.0
            },
            {
                "start_time": 17.05,
                "end_time": 17.23409090909091,
                "pitch": 46,
                "velocity": 80,
                "duration": 0.18409090909090864,
                "tempo": 120.0
            },
            {
                "start_time": 17.25,
                "end_time": 17.436363636363634,
                "pitch": 45,
                "velocity": 80,
                "duration": 0.18636363636363384,
                "tempo": 120.0
            },
            {
                "start_time": 17.452272727272728,
                "end_time": 17.845454545454544,
                "pitch": 43,
                "velocity": 80,
                "duration": 0.39318181818181586,
                "tempo": 120.0
            },
            {
                "start_time": 17.863636363636363,
                "end_time": 18.043181818181818,
                "pitch": 48,
                "velocity": 80,
                "duration": 0.17954545454545467,
                "tempo": 120.0
            },
            {
                "start_time": 18.05909090909091,
                "end_time": 18.238636363636363,
                "pitch": 48,
                "velocity": 80,
                "duration": 0.17954545454545467,
                "tempo": 120.0
            },
            {
                "start_time": 18.254545454545454,
                "end_time": 18.438636363636363,
                "pitch": 48,
                "velocity": 80,
                "duration": 0.18409090909090864,
                "tempo": 120.0
            },
            {
                "start_time": 18.454545454545453,
                "end_time": 18.638636363636362,
                "pitch": 48,
                "velocity": 80,
                "duration": 0.18409090909090864,
                "tempo": 120.0
            },
            {
                "start_time": 18.654545454545453,
                "end_time": 18.83863636363636,
                "pitch": 46,
                "velocity": 80,
                "duration": 0.18409090909090864,
                "tempo": 120.0
            },
            {
                "start_time": 18.854545454545455,
                "end_time": 19.038636363636364,
                "pitch": 45,
                "velocity": 80,
                "duration": 0.18409090909090864,
                "tempo": 120.0
            },
            {
                "start_time": 19.054545454545455,
                "end_time": 19.24090909090909,
                "pitch": 43,
                "velocity": 80,
                "duration": 0.18636363636363384,
                "tempo": 120.0
            },
            {
                "start_time": 19.25681818181818,
                "end_time": 19.44090909090909,
                "pitch": 36,
                "velocity": 80,
                "duration": 0.1840909090909122,
                "tempo": 120.0
            },
            {
                "start_time": 19.456818181818182,
                "end_time": 19.64090909090909,
                "pitch": 36,
                "velocity": 80,
                "duration": 0.18409090909090864,
                "tempo": 120.0
            },
            {
                "start_time": 19.65681818181818,
                "end_time": 19.84090909090909,
                "pitch": 40,
                "velocity": 80,
                "duration": 0.18409090909090864,
                "tempo": 120.0
            },
            {
                "start_time": 19.85681818181818,
                "end_time": 20.045454545454543,
                "pitch": 43,
                "velocity": 80,
                "duration": 0.1886363636363626,
                "tempo": 120.0
            },
            {
                "start_time": 20.063636363636363,
                "end_time": 20.252272727272725,
                "pitch": 46,
                "velocity": 80,
                "duration": 0.1886363636363626,
                "tempo": 120.0
            },
            {
                "start_time": 20.268181818181816,
                "end_time": 20.452272727272728,
                "pitch": 46,
                "velocity": 80,
                "duration": 0.1840909090909122,
                "tempo": 120.0
            },
            {
                "start_time": 20.470454545454544,
                "end_time": 20.654545454545453,
                "pitch": 45,
                "velocity": 80,
                "duration": 0.18409090909090864,
                "tempo": 120.0
            },
            {
                "start_time": 20.670454545454543,
                "end_time": 20.854545454545452,
                "pitch": 43,
                "velocity": 80,
                "duration": 0.18409090909090864,
                "tempo": 120.0
            },
            {
                "start_time": 20.870454545454546,
                "end_time": 21.054545454545455,
                "pitch": 36,
                "velocity": 80,
                "duration": 0.18409090909090864,
                "tempo": 120.0
            },
            {
                "start_time": 21.070454545454545,
                "end_time": 21.254545454545454,
                "pitch": 36,
                "velocity": 80,
                "duration": 0.18409090909090864,
                "tempo": 120.0
            },
            {
                "start_time": 21.270454545454545,
                "end_time": 21.454545454545453,
                "pitch": 40,
                "velocity": 80,
                "duration": 0.18409090909090864,
                "tempo": 120.0
            },
            {
                "start_time": 21.470454545454544,
                "end_time": 21.85681818181818,
                "pitch": 43,
                "velocity": 80,
                "duration": 0.3863636363636367,
                "tempo": 120.0
            },
            {
                "start_time": 21.875,
                "end_time": 22.054545454545455,
                "pitch": 34,
                "velocity": 80,
                "duration": 0.17954545454545467,
                "tempo": 120.0
            },
            {
                "start_time": 22.070454545454545,
                "end_time": 22.25,
                "pitch": 35,
                "velocity": 80,
                "duration": 0.17954545454545467,
                "tempo": 120.0
            },
            {
                "start_time": 22.26590909090909,
                "end_time": 22.45,
                "pitch": 36,
                "velocity": 80,
                "duration": 0.18409090909090864,
                "tempo": 120.0
            },
            {
                "start_time": 22.46590909090909,
                "end_time": 22.65,
                "pitch": 36,
                "velocity": 80,
                "duration": 0.18409090909090864,
                "tempo": 120.0
            },
            {
                "start_time": 22.66590909090909,
                "end_time": 22.854545454545452,
                "pitch": 36,
                "velocity": 80,
                "duration": 0.1886363636363626,
                "tempo": 120.0
            },
            {
                "start_time": 22.87272727272727,
                "end_time": 23.05909090909091,
                "pitch": 40,
                "velocity": 80,
                "duration": 0.1863636363636374,
                "tempo": 120.0
            },
            {
                "start_time": 23.077272727272724,
                "end_time": 23.261363636363637,
                "pitch": 43,
                "velocity": 80,
                "duration": 0.1840909090909122,
                "tempo": 120.0
            },
            {
                "start_time": 23.277272727272727,
                "end_time": 23.461363636363636,
                "pitch": 46,
                "velocity": 80,
                "duration": 0.18409090909090864,
                "tempo": 120.0
            },
            {
                "start_time": 23.477272727272727,
                "end_time": 23.65681818181818,
                "pitch": 46,
                "velocity": 80,
                "duration": 0.17954545454545467,
                "tempo": 120.0
            },
            {
                "start_time": 23.672727272727272,
                "end_time": 23.852272727272727,
                "pitch": 45,
                "velocity": 80,
                "duration": 0.17954545454545467,
                "tempo": 120.0
            },
            {
                "start_time": 23.870454545454546,
                "end_time": 24.263636363636362,
                "pitch": 43,
                "velocity": 80,
                "duration": 0.39318181818181586,
                "tempo": 120.0
            },
            {
                "start_time": 24.279545454545453,
                "end_time": 24.66590909090909,
                "pitch": 48,
                "velocity": 80,
                "duration": 0.3863636363636367,
                "tempo": 120.0
            },
            {
                "start_time": 24.68181818181818,
                "end_time": 25.05909090909091,
                "pitch": 48,
                "velocity": 80,
                "duration": 0.37727272727272876,
                "tempo": 120.0
            },
            {
                "start_time": 25.075,
                "end_time": 25.254545454545454,
                "pitch": 48,
                "velocity": 80,
                "duration": 0.17954545454545467,
                "tempo": 120.0
            },
            {
                "start_time": 25.270454545454545,
                "end_time": 25.652272727272727,
                "pitch": 48,
                "velocity": 80,
                "duration": 0.3818181818181827,
                "tempo": 120.0
            }
        ],
        "Vibraphone": [
            {
                "start_time": 0.0,
                "end_time": 0.1659090909090909,
                "pitch": 60,
                "velocity": 101,
                "duration": 0.1659090909090909,
                "tempo": 120.0
            },
            {
                "start_time": 0.18409090909090908,
                "end_time": 0.3659090909090909,
                "pitch": 67,
                "velocity": 101,
                "duration": 0.18181818181818182,
                "tempo": 120.0
            },
            {
                "start_time": 0.3840909090909091,
                "end_time": 0.5659090909090909,
                "pitch": 64,
                "velocity": 101,
                "duration": 0.18181818181818182,
                "tempo": 120.0
            },
            {
                "start_time": 0.5840909090909091,
                "end_time": 0.7659090909090909,
                "pitch": 60,
                "velocity": 101,
                "duration": 0.18181818181818177,
                "tempo": 120.0
            },
            {
                "start_time": 0.7840909090909091,
                "end_time": 0.9659090909090908,
                "pitch": 70,
                "velocity": 101,
                "duration": 0.18181818181818177,
                "tempo": 120.0
            },
            {
                "start_time": 0.984090909090909,
                "end_time": 1.1704545454545454,
                "pitch": 67,
                "velocity": 101,
                "duration": 0.1863636363636364,
                "tempo": 120.0
            },
            {
                "start_time": 1.1886363636363635,
                "end_time": 1.3772727272727272,
                "pitch": 64,
                "velocity": 101,
                "duration": 0.1886363636363637,
                "tempo": 120.0
            },
            {
                "start_time": 1.393181818181818,
                "end_time": 1.5772727272727272,
                "pitch": 60,
                "velocity": 101,
                "duration": 0.18409090909090908,
                "tempo": 120.0
            },
            {
                "start_time": 1.593181818181818,
                "end_time": 1.7772727272727271,
                "pitch": 60,
                "velocity": 101,
                "duration": 0.18409090909090908,
                "tempo": 120.0
            },
            {
                "start_time": 1.793181818181818,
                "end_time": 1.9795454545454545,
                "pitch": 67,
                "velocity": 101,
                "duration": 0.1863636363636365,
                "tempo": 120.0
            },
            {
                "start_time": 1.9954545454545454,
                "end_time": 2.1795454545454542,
                "pitch": 64,
                "velocity": 101,
                "duration": 0.18409090909090886,
                "tempo": 120.0
            },
            {
                "start_time": 2.1977272727272728,
                "end_time": 2.3795454545454544,
                "pitch": 60,
                "velocity": 101,
                "duration": 0.18181818181818166,
                "tempo": 120.0
            },
            {
                "start_time": 2.3977272727272725,
                "end_time": 2.5795454545454546,
                "pitch": 70,
                "velocity": 101,
                "duration": 0.1818181818181821,
                "tempo": 120.0
            },
            {
                "start_time": 2.5977272727272727,
                "end_time": 2.7795454545454543,
                "pitch": 67,
                "velocity": 101,
                "duration": 0.18181818181818166,
                "tempo": 120.0
            },
            {
                "start_time": 2.7977272727272724,
                "end_time": 2.9795454545454545,
                "pitch": 64,
                "velocity": 101,
                "duration": 0.1818181818181821,
                "tempo": 120.0
            },
            {
                "start_time": 2.9977272727272726,
                "end_time": 3.1818181818181817,
                "pitch": 60,
                "velocity": 101,
                "duration": 0.18409090909090908,
                "tempo": 120.0
            },
            {
                "start_time": 3.1977272727272728,
                "end_time": 3.381818181818182,
                "pitch": 60,
                "velocity": 101,
                "duration": 0.18409090909090908,
                "tempo": 120.0
            },
            {
                "start_time": 3.4,
                "end_time": 3.5795454545454546,
                "pitch": 67,
                "velocity": 101,
                "duration": 0.17954545454545467,
                "tempo": 120.0
            },
            {
                "start_time": 3.5954545454545452,
                "end_time": 3.775,
                "pitch": 64,
                "velocity": 101,
                "duration": 0.17954545454545467,
                "tempo": 120.0
            },
            {
                "start_time": 3.7909090909090906,
                "end_time": 3.9795454545454545,
                "pitch": 60,
                "velocity": 101,
                "duration": 0.18863636363636394,
                "tempo": 120.0
            },
            {
                "start_time": 3.9977272727272726,
                "end_time": 4.184090909090909,
                "pitch": 70,
                "velocity": 101,
                "duration": 0.18636363636363606,
                "tempo": 120.0
            },
            {
                "start_time": 4.202272727272727,
                "end_time": 4.381818181818182,
                "pitch": 67,
                "velocity": 101,
                "duration": 0.17954545454545467,
                "tempo": 120.0
            },
            {
                "start_time": 4.3977272727272725,
                "end_time": 4.577272727272727,
                "pitch": 64,
                "velocity": 101,
                "duration": 0.17954545454545467,
                "tempo": 120.0
            },
            {
                "start_time": 4.595454545454545,
                "end_time": 4.779545454545454,
                "pitch": 60,
                "velocity": 101,
                "duration": 0.18409090909090953,
                "tempo": 120.0
            },
            {
                "start_time": 4.795454545454545,
                "end_time": 4.9795454545454545,
                "pitch": 60,
                "velocity": 101,
                "duration": 0.18409090909090953,
                "tempo": 120.0
            },
            {
                "start_time": 4.997727272727272,
                "end_time": 5.1477272727272725,
                "pitch": 67,
                "velocity": 101,
                "duration": 0.15000000000000036,
                "tempo": 120.0
            },
            {
                "start_time": 5.165909090909091,
                "end_time": 5.384090909090909,
                "pitch": 64,
                "velocity": 101,
                "duration": 0.2181818181818178,
                "tempo": 120.0
            },
            {
                "start_time": 5.3999999999999995,
                "end_time": 5.584090909090909,
                "pitch": 60,
                "velocity": 101,
                "duration": 0.18409090909090953,
                "tempo": 120.0
            },
            {
                "start_time": 5.6,
                "end_time": 5.784090909090909,
                "pitch": 70,
                "velocity": 101,
                "duration": 0.18409090909090953,
                "tempo": 120.0
            },
            {
                "start_time": 5.8,
                "end_time": 5.9840909090909085,
                "pitch": 70,
                "velocity": 101,
                "duration": 0.18409090909090864,
                "tempo": 120.0
            },
            {
                "start_time": 6.0,
                "end_time": 6.186363636363636,
                "pitch": 70,
                "velocity": 101,
                "duration": 0.18636363636363562,
                "tempo": 120.0
            },
            {
                "start_time": 6.202272727272727,
                "end_time": 6.386363636363636,
                "pitch": 70,
                "velocity": 101,
                "duration": 0.18409090909090864,
                "tempo": 120.0
            },
            {
                "start_time": 6.402272727272727,
                "end_time": 6.586363636363636,
                "pitch": 60,
                "velocity": 101,
                "duration": 0.18409090909090864,
                "tempo": 120.0
            },
            {
                "start_time": 6.602272727272727,
                "end_time": 6.786363636363636,
                "pitch": 67,
                "velocity": 101,
                "duration": 0.18409090909090953,
                "tempo": 120.0
            },
            {
                "start_time": 6.804545454545454,
                "end_time": 6.988636363636363,
                "pitch": 64,
                "velocity": 101,
                "duration": 0.18409090909090953,
                "tempo": 120.0
            },
            {
                "start_time": 7.004545454545454,
                "end_time": 7.1931818181818175,
                "pitch": 60,
                "velocity": 101,
                "duration": 0.1886363636363635,
                "tempo": 120.0
            },
            {
                "start_time": 7.211363636363636,
                "end_time": 7.3977272727272725,
                "pitch": 70,
                "velocity": 101,
                "duration": 0.1863636363636365,
                "tempo": 120.0
            },
            {
                "start_time": 7.41590909090909,
                "end_time": 7.6,
                "pitch": 67,
                "velocity": 101,
                "duration": 0.18409090909090953,
                "tempo": 120.0
            },
            {
                "start_time": 7.61590909090909,
                "end_time": 7.8,
                "pitch": 64,
                "velocity": 101,
                "duration": 0.18409090909090953,
                "tempo": 120.0
            },
            {
                "start_time": 7.8159090909090905,
                "end_time": 7.995454545454545,
                "pitch": 60,
                "velocity": 101,
                "duration": 0.17954545454545467,
                "tempo": 120.0
            },
            {
                "start_time": 8.011363636363637,
                "end_time": 8.190909090909091,
                "pitch": 60,
                "velocity": 101,
                "duration": 0.17954545454545467,
                "tempo": 120.0
            },
            {
                "start_time": 8.209090909090909,
                "end_time": 8.39090909090909,
                "pitch": 67,
                "velocity": 101,
                "duration": 0.18181818181818166,
                "tempo": 120.0
            },
            {
                "start_time": 8.409090909090908,
                "end_time": 8.59090909090909,
                "pitch": 64,
                "velocity": 101,
                "duration": 0.18181818181818166,
                "tempo": 120.0
            },
            {
                "start_time": 8.60909090909091,
                "end_time": 8.795454545454545,
                "pitch": 60,
                "velocity": 101,
                "duration": 0.18636363636363562,
                "tempo": 120.0
            },
            {
                "start_time": 8.813636363636363,
                "end_time": 9.002272727272727,
                "pitch": 70,
                "velocity": 101,
                "duration": 0.18863636363636438,
                "tempo": 120.0
            },
            {
                "start_time": 9.018181818181818,
                "end_time": 9.197727272727272,
                "pitch": 67,
                "velocity": 101,
                "duration": 0.17954545454545467,
                "tempo": 120.0
            },
            {
                "start_time": 9.21590909090909,
                "end_time": 9.395454545454545,
                "pitch": 64,
                "velocity": 101,
                "duration": 0.17954545454545467,
                "tempo": 120.0
            },
            {
                "start_time": 9.411363636363635,
                "end_time": 9.595454545454546,
                "pitch": 60,
                "velocity": 101,
                "duration": 0.18409090909091042,
                "tempo": 120.0
            },
            {
                "start_time": 9.613636363636363,
                "end_time": 9.797727272727272,
                "pitch": 60,
                "velocity": 101,
                "duration": 0.18409090909090864,
                "tempo": 120.0
            },
            {
                "start_time": 9.813636363636363,
                "end_time": 10.002272727272727,
                "pitch": 67,
                "velocity": 101,
                "duration": 0.18863636363636438,
                "tempo": 120.0
            },
            {
                "start_time": 10.018181818181818,
                "end_time": 10.206818181818182,
                "pitch": 64,
                "velocity": 101,
                "duration": 0.18863636363636438,
                "tempo": 120.0
            },
            {
                "start_time": 10.225,
                "end_time": 10.409090909090908,
                "pitch": 60,
                "velocity": 101,
                "duration": 0.18409090909090864,
                "tempo": 120.0
            },
            {
                "start_time": 10.427272727272726,
                "end_time": 10.611363636363636,
                "pitch": 70,
                "velocity": 101,
                "duration": 0.18409090909091042,
                "tempo": 120.0
            },
            {
                "start_time": 10.627272727272727,
                "end_time": 10.806818181818182,
                "pitch": 67,
                "velocity": 101,
                "duration": 0.17954545454545467,
                "tempo": 120.0
            },
            {
                "start_time": 10.822727272727272,
                "end_time": 11.002272727272727,
                "pitch": 64,
                "velocity": 101,
                "duration": 0.17954545454545467,
                "tempo": 120.0
            },
            {
                "start_time": 11.020454545454545,
                "end_time": 11.204545454545453,
                "pitch": 60,
                "velocity": 101,
                "duration": 0.18409090909090864,
                "tempo": 120.0
            },
            {
                "start_time": 11.220454545454546,
                "end_time": 11.404545454545454,
                "pitch": 60,
                "velocity": 101,
                "duration": 0.18409090909090864,
                "tempo": 120.0
            },
            {
                "start_time": 11.422727272727272,
                "end_time": 11.60681818181818,
                "pitch": 64,
                "velocity": 101,
                "duration": 0.18409090909090864,
                "tempo": 120.0
            },
            {
                "start_time": 11.622727272727273,
                "end_time": 11.809090909090909,
                "pitch": 67,
                "velocity": 101,
                "duration": 0.18636363636363562,
                "tempo": 120.0
            },
            {
                "start_time": 11.825,
                "end_time": 12.009090909090908,
                "pitch": 70,
                "velocity": 101,
                "duration": 0.18409090909090864,
                "tempo": 120.0
            },
            {
                "start_time": 12.024999999999999,
                "end_time": 12.209090909090909,
                "pitch": 70,
                "velocity": 101,
                "duration": 0.18409090909091042,
                "tempo": 120.0
            },
            {
                "start_time": 12.225,
                "end_time": 12.409090909090908,
                "pitch": 70,
                "velocity": 101,
                "duration": 0.18409090909090864,
                "tempo": 120.0
            },
            {
                "start_time": 12.427272727272726,
                "end_time": 12.611363636363636,
                "pitch": 70,
                "velocity": 101,
                "duration": 0.18409090909091042,
                "tempo": 120.0
            },
            {
                "start_time": 12.627272727272727,
                "end_time": 12.811363636363636,
                "pitch": 70,
                "velocity": 101,
                "duration": 0.18409090909090864,
                "tempo": 120.0
            },
            {
                "start_time": 12.829545454545453,
                "end_time": 13.013636363636364,
                "pitch": 67,
                "velocity": 101,
                "duration": 0.18409090909091042,
                "tempo": 120.0
            },
            {
                "start_time": 13.029545454545454,
                "end_time": 13.218181818181817,
                "pitch": 76,
                "velocity": 101,
                "duration": 0.1886363636363626,
                "tempo": 120.0
            },
            {
                "start_time": 13.236363636363636,
                "end_time": 13.424999999999999,
                "pitch": 72,
                "velocity": 101,
                "duration": 0.1886363636363626,
                "tempo": 120.0
            },
            {
                "start_time": 13.44090909090909,
                "end_time": 13.625,
                "pitch": 70,
                "velocity": 101,
                "duration": 0.18409090909091042,
                "tempo": 120.0
            },
            {
                "start_time": 13.643181818181818,
                "end_time": 13.827272727272726,
                "pitch": 72,
                "velocity": 101,
                "duration": 0.18409090909090864,
                "tempo": 120.0
            },
            {
                "start_time": 13.843181818181817,
                "end_time": 14.027272727272727,
                "pitch": 70,
                "velocity": 101,
                "duration": 0.18409090909091042,
                "tempo": 120.0
            },
            {
                "start_time": 14.043181818181818,
                "end_time": 14.227272727272727,
                "pitch": 67,
                "velocity": 101,
                "duration": 0.18409090909090864,
                "tempo": 120.0
            },
            {
                "start_time": 14.243181818181817,
                "end_time": 14.429545454545455,
                "pitch": 72,
                "velocity": 101,
                "duration": 0.1863636363636374,
                "tempo": 120.0
            },
            {
                "start_time": 14.445454545454545,
                "end_time": 14.629545454545454,
                "pitch": 67,
                "velocity": 101,
                "duration": 0.18409090909090864,
                "tempo": 120.0
            },
            {
                "start_time": 14.647727272727272,
                "end_time": 14.83181818181818,
                "pitch": 76,
                "velocity": 101,
                "duration": 0.18409090909090864,
                "tempo": 120.0
            },
            {
                "start_time": 14.847727272727273,
                "end_time": 15.031818181818181,
                "pitch": 72,
                "velocity": 101,
                "duration": 0.18409090909090864,
                "tempo": 120.0
            },
            {
                "start_time": 15.049999999999999,
                "end_time": 15.234090909090908,
                "pitch": 67,
                "velocity": 101,
                "duration": 0.18409090909090864,
                "tempo": 120.0
            },
            {
                "start_time": 15.25,
                "end_time": 15.436363636363636,
                "pitch": 72,
                "velocity": 101,
                "duration": 0.18636363636363562,
                "tempo": 120.0
            },
            {
                "start_time": 15.452272727272726,
                "end_time": 15.636363636363635,
                "pitch": 70,
                "velocity": 101,
                "duration": 0.18409090909090864,
                "tempo": 120.0
            },
            {
                "start_time": 15.654545454545454,
                "end_time": 15.838636363636363,
                "pitch": 67,
                "velocity": 101,
                "duration": 0.18409090909090864,
                "tempo": 120.0
            },
            {
                "start_time": 15.854545454545454,
                "end_time": 16.038636363636364,
                "pitch": 72,
                "velocity": 101,
                "duration": 0.18409090909091042,
                "tempo": 120.0
            },
            {
                "start_time": 16.054545454545455,
                "end_time": 16.238636363636363,
                "pitch": 67,
                "velocity": 101,
                "duration": 0.18409090909090864,
                "tempo": 120.0
            },
            {
                "start_time": 16.254545454545454,
                "end_time": 16.438636363636363,
                "pitch": 76,
                "velocity": 101,
                "duration": 0.18409090909090864,
                "tempo": 120.0
            },
            {
                "start_time": 16.456818181818182,
                "end_time": 16.64090909090909,
                "pitch": 72,
                "velocity": 101,
                "duration": 0.18409090909090864,
                "tempo": 120.0
            },
            {
                "start_time": 16.65681818181818,
                "end_time": 16.836363636363636,
                "pitch": 67,
                "velocity": 101,
                "duration": 0.17954545454545467,
                "tempo": 120.0
            },
            {
                "start_time": 16.854545454545455,
                "end_time": 17.034090909090907,
                "pitch": 72,
                "velocity": 101,
                "duration": 0.17954545454545112,
                "tempo": 120.0
            },
            {
                "start_time": 17.05,
                "end_time": 17.23409090909091,
                "pitch": 70,
                "velocity": 101,
                "duration": 0.18409090909090864,
                "tempo": 120.0
            },
            {
                "start_time": 17.25,
                "end_time": 17.436363636363634,
                "pitch": 67,
                "velocity": 101,
                "duration": 0.18636363636363384,
                "tempo": 120.0
            },
            {
                "start_time": 17.452272727272728,
                "end_time": 17.64090909090909,
                "pitch": 70,
                "velocity": 101,
                "duration": 0.1886363636363626,
                "tempo": 120.0
            },
            {
                "start_time": 17.65681818181818,
                "end_time": 17.845454545454544,
                "pitch": 72,
                "velocity": 101,
                "duration": 0.1886363636363626,
                "tempo": 120.0
            },
            {
                "start_time": 17.863636363636363,
                "end_time": 18.043181818181818,
                "pitch": 67,
                "velocity": 101,
                "duration": 0.17954545454545467,
                "tempo": 120.0
            },
            {
                "start_time": 18.05909090909091,
                "end_time": 18.238636363636363,
                "pitch": 70,
                "velocity": 101,
                "duration": 0.17954545454545467,
                "tempo": 120.0
            },
            {
                "start_time": 18.254545454545454,
                "end_time": 18.438636363636363,
                "pitch": 72,
                "velocity": 101,
                "duration": 0.18409090909090864,
                "tempo": 120.0
            },
            {
                "start_time": 18.454545454545453,
                "end_time": 18.638636363636362,
                "pitch": 67,
                "velocity": 101,
                "duration": 0.18409090909090864,
                "tempo": 120.0
            },
            {
                "start_time": 18.654545454545453,
                "end_time": 18.83863636363636,
                "pitch": 70,
                "velocity": 101,
                "duration": 0.18409090909090864,
                "tempo": 120.0
            },
            {
                "start_time": 18.854545454545455,
                "end_time": 19.038636363636364,
                "pitch": 72,
                "velocity": 101,
                "duration": 0.18409090909090864,
                "tempo": 120.0
            },
            {
                "start_time": 19.054545454545455,
                "end_time": 19.24090909090909,
                "pitch": 67,
                "velocity": 101,
                "duration": 0.18636363636363384,
                "tempo": 120.0
            },
            {
                "start_time": 19.25681818181818,
                "end_time": 19.44090909090909,
                "pitch": 67,
                "velocity": 101,
                "duration": 0.1840909090909122,
                "tempo": 120.0
            },
            {
                "start_time": 19.456818181818182,
                "end_time": 19.64090909090909,
                "pitch": 76,
                "velocity": 101,
                "duration": 0.18409090909090864,
                "tempo": 120.0
            },
            {
                "start_time": 19.65681818181818,
                "end_time": 19.84090909090909,
                "pitch": 72,
                "velocity": 101,
                "duration": 0.18409090909090864,
                "tempo": 120.0
            },
            {
                "start_time": 19.85681818181818,
                "end_time": 20.045454545454543,
                "pitch": 67,
                "velocity": 101,
                "duration": 0.1886363636363626,
                "tempo": 120.0
            },
            {
                "start_time": 20.063636363636363,
                "end_time": 20.252272727272725,
                "pitch": 72,
                "velocity": 101,
                "duration": 0.1886363636363626,
                "tempo": 120.0
            },
            {
                "start_time": 20.268181818181816,
                "end_time": 20.452272727272728,
                "pitch": 70,
                "velocity": 101,
                "duration": 0.1840909090909122,
                "tempo": 120.0
            },
            {
                "start_time": 20.470454545454544,
                "end_time": 20.654545454545453,
                "pitch": 67,
                "velocity": 101,
                "duration": 0.18409090909090864,
                "tempo": 120.0
            },
            {
                "start_time": 20.670454545454543,
                "end_time": 20.854545454545452,
                "pitch": 72,
                "velocity": 101,
                "duration": 0.18409090909090864,
                "tempo": 120.0
            },
            {
                "start_time": 20.870454545454546,
                "end_time": 21.054545454545455,
                "pitch": 67,
                "velocity": 101,
                "duration": 0.18409090909090864,
                "tempo": 120.0
            },
            {
                "start_time": 21.070454545454545,
                "end_time": 21.254545454545454,
                "pitch": 76,
                "velocity": 101,
                "duration": 0.18409090909090864,
                "tempo": 120.0
            },
            {
                "start_time": 21.270454545454545,
                "end_time": 21.454545454545453,
                "pitch": 72,
                "velocity": 101,
                "duration": 0.18409090909090864,
                "tempo": 120.0
            },
            {
                "start_time": 21.470454545454544,
                "end_time": 21.65681818181818,
                "pitch": 67,
                "velocity": 101,
                "duration": 0.1863636363636374,
                "tempo": 120.0
            },
            {
                "start_time": 21.672727272727272,
                "end_time": 21.85681818181818,
                "pitch": 72,
                "velocity": 101,
                "duration": 0.18409090909090864,
                "tempo": 120.0
            },
            {
                "start_time": 21.875,
                "end_time": 22.054545454545455,
                "pitch": 70,
                "velocity": 101,
                "duration": 0.17954545454545467,
                "tempo": 120.0
            },
            {
                "start_time": 22.070454545454545,
                "end_time": 22.25,
                "pitch": 67,
                "velocity": 101,
                "duration": 0.17954545454545467,
                "tempo": 120.0
            },
            {
                "start_time": 22.26590909090909,
                "end_time": 22.45,
                "pitch": 72,
                "velocity": 101,
                "duration": 0.18409090909090864,
                "tempo": 120.0
            },
            {
                "start_time": 22.46590909090909,
                "end_time": 22.65,
                "pitch": 67,
                "velocity": 101,
                "duration": 0.18409090909090864,
                "tempo": 120.0
            },
            {
                "start_time": 22.66590909090909,
                "end_time": 22.854545454545452,
                "pitch": 76,
                "velocity": 101,
                "duration": 0.1886363636363626,
                "tempo": 120.0
            },
            {
                "start_time": 22.87272727272727,
                "end_time": 23.05909090909091,
                "pitch": 67,
                "velocity": 101,
                "duration": 0.1863636363636374,
                "tempo": 120.0
            },
            {
                "start_time": 23.077272727272724,
                "end_time": 23.261363636363637,
                "pitch": 72,
                "velocity": 101,
                "duration": 0.1840909090909122,
                "tempo": 120.0
            },
            {
                "start_time": 23.277272727272727,
                "end_time": 23.461363636363636,
                "pitch": 67,
                "velocity": 101,
                "duration": 0.18409090909090864,
                "tempo": 120.0
            },
            {
                "start_time": 23.477272727272727,
                "end_time": 23.65681818181818,
                "pitch": 70,
                "velocity": 101,
                "duration": 0.17954545454545467,
                "tempo": 120.0
            },
            {
                "start_time": 23.672727272727272,
                "end_time": 23.852272727272727,
                "pitch": 72,
                "velocity": 101,
                "duration": 0.17954545454545467,
                "tempo": 120.0
            },
            {
                "start_time": 23.870454545454546,
                "end_time": 24.05681818181818,
                "pitch": 67,
                "velocity": 101,
                "duration": 0.18636363636363384,
                "tempo": 120.0
            },
            {
                "start_time": 24.075,
                "end_time": 24.263636363636362,
                "pitch": 76,
                "velocity": 101,
                "duration": 0.1886363636363626,
                "tempo": 120.0
            },
            {
                "start_time": 24.279545454545453,
                "end_time": 24.46363636363636,
                "pitch": 76,
                "velocity": 101,
                "duration": 0.18409090909090864,
                "tempo": 120.0
            },
            {
                "start_time": 24.48181818181818,
                "end_time": 24.66590909090909,
                "pitch": 76,
                "velocity": 101,
                "duration": 0.18409090909090864,
                "tempo": 120.0
            },
            {
                "start_time": 24.68181818181818,
                "end_time": 24.861363636363635,
                "pitch": 76,
                "velocity": 101,
                "duration": 0.17954545454545467,
                "tempo": 120.0
            },
            {
                "start_time": 24.879545454545454,
                "end_time": 25.05909090909091,
                "pitch": 76,
                "velocity": 101,
                "duration": 0.17954545454545467,
                "tempo": 120.0
            },
            {
                "start_time": 25.075,
                "end_time": 25.254545454545454,
                "pitch": 76,
                "velocity": 101,
                "duration": 0.17954545454545467,
                "tempo": 120.0
            },
            {
                "start_time": 25.270454545454545,
                "end_time": 25.45,
                "pitch": 76,
                "velocity": 101,
                "duration": 0.17954545454545467,
                "tempo": 120.0
            },
            {
                "start_time": 25.46818181818182,
                "end_time": 25.652272727272727,
                "pitch": 76,
                "velocity": 101,
                "duration": 0.18409090909090864,
                "tempo": 120.0
            }
        ]
    }
}