{
    "track_id": "01 Pikupiku Team",
    "mood": "happy",
    "instruments": {
        "Electric Piano 1": [
            {
                "start_time": 0.10227272727272727,
                "end_time": 0.2681818181818182,
                "pitch": 38,
                "velocity": 64,
                "duration": 0.16590909090909092,
                "tempo": 120.0
            },
            {
                "start_time": 0.2681818181818182,
                "end_time": 0.6045454545454545,
                "pitch": 38,
                "velocity": 64,
                "duration": 0.3363636363636363,
                "tempo": 120.0
            },
            {
                "start_time": 0.6045454545454545,
                "end_time": 0.7727272727272727,
                "pitch": 38,
                "velocity": 64,
                "duration": 0.1681818181818182,
                "tempo": 120.0
            },
            {
                "start_time": 0.7727272727272727,
                "end_time": 1.4522727272727272,
                "pitch": 38,
                "velocity": 64,
                "duration": 0.6795454545454545,
                "tempo": 120.0
            },
            {
                "start_time": 1.4522727272727272,
                "end_time": 1.6181818181818182,
                "pitch": 38,
                "velocity": 64,
                "duration": 0.165909090909091,
                "tempo": 120.0
            },
            {
                "start_time": 1.6204545454545454,
                "end_time": 1.9545454545454544,
                "pitch": 38,
                "velocity": 64,
                "duration": 0.334090909090909,
                "tempo": 120.0
            },
            {
                "start_time": 1.9545454545454544,
                "end_time": 2.1227272727272726,
                "pitch": 38,
                "velocity": 64,
                "duration": 0.1681818181818182,
                "tempo": 120.0
            },
            {
                "start_time": 2.1227272727272726,
                "end_time": 2.7954545454545454,
                "pitch": 38,
                "velocity": 64,
                "duration": 0.6727272727272728,
                "tempo": 120.0
            },
            {
                "start_time": 2.7954545454545454,
                "end_time": 2.9613636363636364,
                "pitch": 38,
                "velocity": 64,
                "duration": 0.165909090909091,
                "tempo": 120.0
            },
            {
                "start_time": 2.9613636363636364,
                "end_time": 3.293181818181818,
                "pitch": 38,
                "velocity": 64,
                "duration": 0.33181818181818157,
                "tempo": 120.0
            },
            {
                "start_time": 3.293181818181818,
                "end_time": 3.459090909090909,
                "pitch": 38,
                "velocity": 64,
                "duration": 0.165909090909091,
                "tempo": 120.0
            },
            {
                "start_time": 3.459090909090909,
                "end_time": 4.131818181818182,
                "pitch": 38,
                "velocity": 64,
                "duration": 0.6727272727272728,
                "tempo": 120.0
            },
            {
                "start_time": 4.131818181818182,
                "end_time": 4.297727272727273,
                "pitch": 38,
                "velocity": 64,
                "duration": 0.165909090909091,
                "tempo": 120.0
            },
            {
                "start_time": 4.297727272727273,
                "end_time": 4.634090909090909,
                "pitch": 38,
                "velocity": 64,
                "duration": 0.336363636363636,
                "tempo": 120.0
            },
            {
                "start_time": 4.634090909090909,
                "end_time": 4.802272727272727,
                "pitch": 38,
                "velocity": 64,
                "duration": 0.168181818181818,
                "tempo": 120.0
            },
            {
                "start_time": 4.802272727272727,
                "end_time": 5.475,
                "pitch": 38,
                "velocity": 64,
                "duration": 0.6727272727272728,
                "tempo": 120.0
            },
            {
                "start_time": 5.475,
                "end_time": 5.638636363636364,
                "pitch": 38,
                "velocity": 64,
                "duration": 0.16363636363636402,
                "tempo": 120.0
            },
            {
                "start_time": 5.640909090909091,
                "end_time": 5.970454545454545,
                "pitch": 38,
                "velocity": 64,
                "duration": 0.32954545454545414,
                "tempo": 120.0
            },
            {
                "start_time": 5.972727272727273,
                "end_time": 6.138636363636364,
                "pitch": 38,
                "velocity": 64,
                "duration": 0.165909090909091,
                "tempo": 120.0
            },
            {
                "start_time": 6.138636363636364,
                "end_time": 6.809090909090909,
                "pitch": 38,
                "velocity": 64,
                "duration": 0.670454545454545,
                "tempo": 120.0
            },
            {
                "start_time": 6.809090909090909,
                "end_time": 6.977272727272727,
                "pitch": 38,
                "velocity": 64,
                "duration": 0.168181818181818,
                "tempo": 120.0
            },
            {
                "start_time": 6.977272727272727,
                "end_time": 7.3136363636363635,
                "pitch": 38,
                "velocity": 64,
                "duration": 0.33636363636363686,
                "tempo": 120.0
            },
            {
                "start_time": 7.3136363636363635,
                "end_time": 7.4818181818181815,
                "pitch": 38,
                "velocity": 64,
                "duration": 0.168181818181818,
                "tempo": 120.0
            },
            {
                "start_time": 7.4818181818181815,
                "end_time": 8.152272727272727,
                "pitch": 38,
                "velocity": 64,
                "duration": 0.6704545454545459,
                "tempo": 120.0
            },
            {
                "start_time": 8.152272727272727,
                "end_time": 8.318181818181818,
                "pitch": 38,
                "velocity": 64,
                "duration": 0.165909090909091,
                "tempo": 120.0
            },
            {
                "start_time": 8.318181818181818,
                "end_time": 8.65,
                "pitch": 38,
                "velocity": 64,
                "duration": 0.331818181818182,
                "tempo": 120.0
            },
            {
                "start_time": 8.65,
                "end_time": 8.815909090909091,
                "pitch": 38,
                "velocity": 64,
                "duration": 0.165909090909091,
                "tempo": 120.0
            },
            {
                "start_time": 8.818181818181818,
                "end_time": 9.488636363636363,
                "pitch": 38,
                "velocity": 64,
                "duration": 0.670454545454545,
                "tempo": 120.0
            },
            {
                "start_time": 9.488636363636363,
                "end_time": 9.656818181818181,
                "pitch": 38,
                "velocity": 64,
                "duration": 0.168181818181818,
                "tempo": 120.0
            },
            {
                "start_time": 9.656818181818181,
                "end_time": 9.99090909090909,
                "pitch": 38,
                "velocity": 64,
                "duration": 0.334090909090909,
                "tempo": 120.0
            },
            {
                "start_time": 9.993181818181817,
                "end_time": 10.159090909090908,
                "pitch": 38,
                "velocity": 64,
                "duration": 0.165909090909091,
                "tempo": 120.0
            },
            {
                "start_time": 10.161363636363635,
                "end_time": 10.831818181818182,
                "pitch": 38,
                "velocity": 64,
                "duration": 0.6704545454545467,
                "tempo": 120.0
            },
            {
                "start_time": 10.831818181818182,
                "end_time": 10.997727272727273,
                "pitch": 38,
                "velocity": 64,
                "duration": 0.165909090909091,
                "tempo": 120.0
            },
            {
                "start_time": 10.997727272727273,
                "end_time": 11.329545454545453,
                "pitch": 38,
                "velocity": 64,
                "duration": 0.33181818181818024,
                "tempo": 120.0
            },
            {
                "start_time": 11.329545454545453,
                "end_time": 11.495454545454544,
                "pitch": 38,
                "velocity": 64,
                "duration": 0.165909090909091,
                "tempo": 120.0
            },
            {
                "start_time": 11.495454545454544,
                "end_time": 12.168181818181818,
                "pitch": 38,
                "velocity": 64,
                "duration": 0.6727272727272737,
                "tempo": 120.0
            },
            {
                "start_time": 12.168181818181818,
                "end_time": 12.334090909090909,
                "pitch": 38,
                "velocity": 64,
                "duration": 0.165909090909091,
                "tempo": 120.0
            },
            {
                "start_time": 12.336363636363636,
                "end_time": 12.670454545454545,
                "pitch": 38,
                "velocity": 64,
                "duration": 0.334090909090909,
                "tempo": 120.0
            },
            {
                "start_time": 12.670454545454545,
                "end_time": 13.502272727272727,
                "pitch": 38,
                "velocity": 64,
                "duration": 0.831818181818182,
                "tempo": 120.0
            },
            {
                "start_time": 13.504545454545454,
                "end_time": 13.670454545454545,
                "pitch": 38,
                "velocity": 64,
                "duration": 0.165909090909091,
                "tempo": 120.0
            },
            {
                "start_time": 13.670454545454545,
                "end_time": 14.006818181818181,
                "pitch": 38,
                "velocity": 64,
                "duration": 0.336363636363636,
                "tempo": 120.0
            },
            {
                "start_time": 14.006818181818181,
                "end_time": 14.845454545454544,
                "pitch": 38,
                "velocity": 64,
                "duration": 0.838636363636363,
                "tempo": 120.0
            },
            {
                "start_time": 15.181818181818182,
                "end_time": 15.518181818181818,
                "pitch": 38,
                "velocity": 64,
                "duration": 0.336363636363636,
                "tempo": 120.0
            },
            {
                "start_time": 15.518181818181818,
                "end_time": 16.845454545454544,
                "pitch": 38,
                "velocity": 64,
                "duration": 1.3272727272727263,
                "tempo": 120.0
            },
            {
                "start_time": 16.847727272727273,
                "end_time": 17.013636363636362,
                "pitch": 38,
                "velocity": 64,
                "duration": 0.16590909090908923,
                "tempo": 120.0
            },
            {
                "start_time": 17.013636363636362,
                "end_time": 17.68181818181818,
                "pitch": 38,
                "velocity": 64,
                "duration": 0.668181818181818,
                "tempo": 120.0
            }
        ],
        "Lead 2 (sawtooth)": [
            {
                "start_time": 0.4022727272727272,
                "end_time": 0.5363636363636364,
                "pitch": 86,
                "velocity": 32,
                "duration": 0.13409090909090915,
                "tempo": 120.0
            },
            {
                "start_time": 0.7386363636363636,
                "end_time": 0.8727272727272727,
                "pitch": 90,
                "velocity": 32,
                "duration": 0.13409090909090904,
                "tempo": 120.0
            },
            {
                "start_time": 1.0772727272727272,
                "end_time": 1.2136363636363636,
                "pitch": 93,
                "velocity": 32,
                "duration": 0.13636363636363646,
                "tempo": 120.0
            },
            {
                "start_time": 1.4181818181818182,
                "end_time": 1.5522727272727272,
                "pitch": 90,
                "velocity": 32,
                "duration": 0.13409090909090904,
                "tempo": 120.0
            },
            {
                "start_time": 1.7545454545454544,
                "end_time": 1.8863636363636362,
                "pitch": 86,
                "velocity": 32,
                "duration": 0.13181818181818183,
                "tempo": 120.0
            },
            {
                "start_time": 2.0886363636363634,
                "end_time": 2.2227272727272727,
                "pitch": 90,
                "velocity": 32,
                "duration": 0.13409090909090926,
                "tempo": 120.0
            },
            {
                "start_time": 2.425,
                "end_time": 2.559090909090909,
                "pitch": 93,
                "velocity": 32,
                "duration": 0.13409090909090926,
                "tempo": 120.0
            },
            {
                "start_time": 2.7613636363636362,
                "end_time": 2.893181818181818,
                "pitch": 90,
                "velocity": 32,
                "duration": 0.13181818181818183,
                "tempo": 120.0
            },
            {
                "start_time": 3.093181818181818,
                "end_time": 3.2249999999999996,
                "pitch": 86,
                "velocity": 32,
                "duration": 0.13181818181818183,
                "tempo": 120.0
            },
            {
                "start_time": 3.425,
                "end_time": 3.559090909090909,
                "pitch": 90,
                "velocity": 32,
                "duration": 0.13409090909090926,
                "tempo": 120.0
            },
            {
                "start_time": 3.7613636363636362,
                "end_time": 3.893181818181818,
                "pitch": 93,
                "velocity": 32,
                "duration": 0.13181818181818183,
                "tempo": 120.0
            },
            {
                "start_time": 4.097727272727273,
                "end_time": 4.2295454545454545,
                "pitch": 90,
                "velocity": 32,
                "duration": 0.13181818181818183,
                "tempo": 120.0
            },
            {
                "start_time": 4.431818181818182,
                "end_time": 4.5659090909090905,
                "pitch": 86,
                "velocity": 32,
                "duration": 0.13409090909090882,
                "tempo": 120.0
            },
            {
                "start_time": 4.768181818181818,
                "end_time": 4.902272727272727,
                "pitch": 90,
                "velocity": 32,
                "duration": 0.1340909090909097,
                "tempo": 120.0
            },
            {
                "start_time": 5.1045454545454545,
                "end_time": 5.236363636363636,
                "pitch": 93,
                "velocity": 32,
                "duration": 0.13181818181818183,
                "tempo": 120.0
            },
            {
                "start_time": 5.4409090909090905,
                "end_time": 5.572727272727272,
                "pitch": 90,
                "velocity": 32,
                "duration": 0.13181818181818183,
                "tempo": 120.0
            },
            {
                "start_time": 5.7727272727272725,
                "end_time": 5.904545454545454,
                "pitch": 86,
                "velocity": 32,
                "duration": 0.13181818181818183,
                "tempo": 120.0
            },
            {
                "start_time": 6.1045454545454545,
                "end_time": 6.236363636363636,
                "pitch": 90,
                "velocity": 32,
                "duration": 0.13181818181818183,
                "tempo": 120.0
            },
            {
                "start_time": 6.4386363636363635,
                "end_time": 6.572727272727272,
                "pitch": 93,
                "velocity": 32,
                "duration": 0.13409090909090882,
                "tempo": 120.0
            },
            {
                "start_time": 6.7749999999999995,
                "end_time": 6.909090909090909,
                "pitch": 90,
                "velocity": 32,
                "duration": 0.1340909090909097,
                "tempo": 120.0
            },
            {
                "start_time": 7.111363636363636,
                "end_time": 7.245454545454545,
                "pitch": 86,
                "velocity": 32,
                "duration": 0.13409090909090882,
                "tempo": 120.0
            },
            {
                "start_time": 7.447727272727272,
                "end_time": 7.579545454545454,
                "pitch": 90,
                "velocity": 32,
                "duration": 0.13181818181818183,
                "tempo": 120.0
            },
            {
                "start_time": 7.781818181818181,
                "end_time": 7.91590909090909,
                "pitch": 93,
                "velocity": 32,
                "duration": 0.13409090909090882,
                "tempo": 120.0
            },
            {
                "start_time": 8.118181818181817,
                "end_time": 8.25,
                "pitch": 90,
                "velocity": 32,
                "duration": 0.13181818181818272,
                "tempo": 120.0
            },
            {
                "start_time": 8.452272727272726,
                "end_time": 8.584090909090909,
                "pitch": 86,
                "velocity": 32,
                "duration": 0.13181818181818272,
                "tempo": 120.0
            },
            {
                "start_time": 8.784090909090908,
                "end_time": 8.915909090909091,
                "pitch": 90,
                "velocity": 32,
                "duration": 0.13181818181818272,
                "tempo": 120.0
            },
            {
                "start_time": 9.118181818181817,
                "end_time": 9.252272727272727,
                "pitch": 93,
                "velocity": 32,
                "duration": 0.1340909090909097,
                "tempo": 120.0
            },
            {
                "start_time": 9.454545454545453,
                "end_time": 9.588636363636363,
                "pitch": 90,
                "velocity": 32,
                "duration": 0.1340909090909097,
                "tempo": 120.0
            },
            {
                "start_time": 9.790909090909091,
                "end_time": 9.922727272727272,
                "pitch": 86,
                "velocity": 32,
                "duration": 0.13181818181818095,
                "tempo": 120.0
            },
            {
                "start_time": 10.125,
                "end_time": 10.259090909090908,
                "pitch": 90,
                "velocity": 32,
                "duration": 0.13409090909090793,
                "tempo": 120.0
            },
            {
                "start_time": 10.461363636363636,
                "end_time": 10.595454545454546,
                "pitch": 93,
                "velocity": 32,
                "duration": 0.1340909090909097,
                "tempo": 120.0
            },
            {
                "start_time": 10.797727272727272,
                "end_time": 10.929545454545455,
                "pitch": 90,
                "velocity": 32,
                "duration": 0.13181818181818272,
                "tempo": 120.0
            },
            {
                "start_time": 11.129545454545454,
                "end_time": 11.261363636363637,
                "pitch": 86,
                "velocity": 32,
                "duration": 0.13181818181818272,
                "tempo": 120.0
            },
            {
                "start_time": 11.461363636363636,
                "end_time": 11.595454545454546,
                "pitch": 90,
                "velocity": 32,
                "duration": 0.1340909090909097,
                "tempo": 120.0
            },
            {
                "start_time": 11.797727272727272,
                "end_time": 11.931818181818182,
                "pitch": 93,
                "velocity": 32,
                "duration": 0.1340909090909097,
                "tempo": 120.0
            },
            {
                "start_time": 12.134090909090908,
                "end_time": 12.26590909090909,
                "pitch": 90,
                "velocity": 32,
                "duration": 0.13181818181818272,
                "tempo": 120.0
            },
            {
                "start_time": 12.468181818181817,
                "end_time": 12.602272727272727,
                "pitch": 93,
                "velocity": 32,
                "duration": 0.1340909090909097,
                "tempo": 120.0
            },
            {
                "start_time": 12.804545454545455,
                "end_time": 12.920454545454545,
                "pitch": 91,
                "velocity": 32,
                "duration": 0.1159090909090903,
                "tempo": 120.0
            },
            {
                "start_time": 12.920454545454545,
                "end_time": 12.936363636363636,
                "pitch": 91,
                "velocity": 32,
                "duration": 0.01590909090909065,
                "tempo": 120.0
            },
            {
                "start_time": 13.136363636363635,
                "end_time": 13.270454545454545,
                "pitch": 90,
                "velocity": 32,
                "duration": 0.1340909090909097,
                "tempo": 120.0
            },
            {
                "start_time": 13.470454545454546,
                "end_time": 13.602272727272727,
                "pitch": 90,
                "velocity": 32,
                "duration": 0.13181818181818095,
                "tempo": 120.0
            },
            {
                "start_time": 13.804545454545455,
                "end_time": 13.938636363636363,
                "pitch": 93,
                "velocity": 32,
                "duration": 0.13409090909090793,
                "tempo": 120.0
            },
            {
                "start_time": 14.14090909090909,
                "end_time": 14.256818181818181,
                "pitch": 91,
                "velocity": 32,
                "duration": 0.1159090909090903,
                "tempo": 120.0
            },
            {
                "start_time": 12.920454545454545,
                "end_time": 14.256818181818181,
                "pitch": 103,
                "velocity": 32,
                "duration": 1.336363636363636,
                "tempo": 120.0
            },
            {
                "start_time": 14.256818181818181,
                "end_time": 14.274999999999999,
                "pitch": 91,
                "velocity": 32,
                "duration": 0.018181818181817633,
                "tempo": 120.0
            },
            {
                "start_time": 14.477272727272727,
                "end_time": 14.609090909090908,
                "pitch": 90,
                "velocity": 32,
                "duration": 0.13181818181818095,
                "tempo": 120.0
            },
            {
                "start_time": 14.811363636363636,
                "end_time": 14.945454545454545,
                "pitch": 90,
                "velocity": 32,
                "duration": 0.1340909090909097,
                "tempo": 120.0
            },
            {
                "start_time": 16.811363636363634,
                "end_time": 16.945454545454545,
                "pitch": 90,
                "velocity": 32,
                "duration": 0.13409090909091148,
                "tempo": 120.0
            }
        ]
    }
}