{
    "track_id": "01 Sophistication #1",
    "mood": "happy",
    "instruments": {
        "Electric Piano 1": [
            {
                "start_time": 0.4727272727272727,
                "end_time": 0.825,
                "pitch": 57,
                "velocity": 40,
                "duration": 0.35227272727272724,
                "tempo": 120.0
            },
            {
                "start_time": 0.8272727272727273,
                "end_time": 1.0568181818181817,
                "pitch": 57,
                "velocity": 40,
                "duration": 0.22954545454545439,
                "tempo": 120.0
            },
            {
                "start_time": 1.0568181818181817,
                "end_time": 1.1954545454545453,
                "pitch": 57,
                "velocity": 40,
                "duration": 0.13863636363636367,
                "tempo": 120.0
            },
            {
                "start_time": 1.1954545454545453,
                "end_time": 1.4318181818181817,
                "pitch": 55,
                "velocity": 40,
                "duration": 0.23636363636363633,
                "tempo": 120.0
            },
            {
                "start_time": 1.434090909090909,
                "end_time": 1.7999999999999998,
                "pitch": 57,
                "velocity": 40,
                "duration": 0.36590909090909074,
                "tempo": 120.0
            },
            {
                "start_time": 1.8022727272727272,
                "end_time": 2.034090909090909,
                "pitch": 57,
                "velocity": 40,
                "duration": 0.23181818181818192,
                "tempo": 120.0
            },
            {
                "start_time": 2.034090909090909,
                "end_time": 2.1522727272727273,
                "pitch": 57,
                "velocity": 40,
                "duration": 0.11818181818181817,
                "tempo": 120.0
            },
            {
                "start_time": 2.1522727272727273,
                "end_time": 2.4,
                "pitch": 55,
                "velocity": 40,
                "duration": 0.24772727272727257,
                "tempo": 120.0
            },
            {
                "start_time": 2.4,
                "end_time": 2.752272727272727,
                "pitch": 57,
                "velocity": 40,
                "duration": 0.35227272727272707,
                "tempo": 120.0
            },
            {
                "start_time": 2.752272727272727,
                "end_time": 3.0,
                "pitch": 57,
                "velocity": 40,
                "duration": 0.24772727272727302,
                "tempo": 120.0
            },
            {
                "start_time": 3.0,
                "end_time": 3.1159090909090907,
                "pitch": 57,
                "velocity": 40,
                "duration": 0.11590909090909074,
                "tempo": 120.0
            },
            {
                "start_time": 3.1159090909090907,
                "end_time": 3.343181818181818,
                "pitch": 55,
                "velocity": 40,
                "duration": 0.22727272727272707,
                "tempo": 120.0
            },
            {
                "start_time": 3.3454545454545452,
                "end_time": 3.7204545454545452,
                "pitch": 57,
                "velocity": 40,
                "duration": 0.375,
                "tempo": 120.0
            },
            {
                "start_time": 3.7204545454545452,
                "end_time": 3.9568181818181816,
                "pitch": 57,
                "velocity": 40,
                "duration": 0.23636363636363633,
                "tempo": 120.0
            },
            {
                "start_time": 3.9568181818181816,
                "end_time": 4.075,
                "pitch": 57,
                "velocity": 40,
                "duration": 0.11818181818181861,
                "tempo": 120.0
            },
            {
                "start_time": 4.075,
                "end_time": 4.322727272727272,
                "pitch": 55,
                "velocity": 40,
                "duration": 0.24772727272727213,
                "tempo": 120.0
            },
            {
                "start_time": 4.325,
                "end_time": 4.677272727272727,
                "pitch": 57,
                "velocity": 40,
                "duration": 0.3522727272727266,
                "tempo": 120.0
            },
            {
                "start_time": 4.677272727272727,
                "end_time": 4.931818181818182,
                "pitch": 57,
                "velocity": 40,
                "duration": 0.25454545454545485,
                "tempo": 120.0
            },
            {
                "start_time": 4.931818181818182,
                "end_time": 5.052272727272727,
                "pitch": 57,
                "velocity": 40,
                "duration": 0.12045454545454515,
                "tempo": 120.0
            },
            {
                "start_time": 5.052272727272727,
                "end_time": 5.290909090909091,
                "pitch": 55,
                "velocity": 40,
                "duration": 0.2386363636363642,
                "tempo": 120.0
            },
            {
                "start_time": 5.290909090909091,
                "end_time": 5.652272727272727,
                "pitch": 57,
                "velocity": 40,
                "duration": 0.36136363636363633,
                "tempo": 120.0
            },
            {
                "start_time": 5.652272727272727,
                "end_time": 5.884090909090909,
                "pitch": 57,
                "velocity": 40,
                "duration": 0.23181818181818148,
                "tempo": 120.0
            },
            {
                "start_time": 5.884090909090909,
                "end_time": 6.018181818181818,
                "pitch": 57,
                "velocity": 40,
                "duration": 0.13409090909090882,
                "tempo": 120.0
            },
            {
                "start_time": 6.018181818181818,
                "end_time": 6.25,
                "pitch": 55,
                "velocity": 40,
                "duration": 0.23181818181818237,
                "tempo": 120.0
            },
            {
                "start_time": 6.25,
                "end_time": 6.622727272727272,
                "pitch": 57,
                "velocity": 40,
                "duration": 0.37272727272727213,
                "tempo": 120.0
            },
            {
                "start_time": 6.622727272727272,
                "end_time": 6.8590909090909085,
                "pitch": 57,
                "velocity": 40,
                "duration": 0.23636363636363633,
                "tempo": 120.0
            },
            {
                "start_time": 6.8590909090909085,
                "end_time": 6.9795454545454545,
                "pitch": 57,
                "velocity": 40,
                "duration": 0.12045454545454604,
                "tempo": 120.0
            },
            {
                "start_time": 6.9795454545454545,
                "end_time": 7.2340909090909085,
                "pitch": 55,
                "velocity": 40,
                "duration": 0.25454545454545396,
                "tempo": 120.0
            },
            {
                "start_time": 7.2340909090909085,
                "end_time": 7.586363636363636,
                "pitch": 57,
                "velocity": 40,
                "duration": 0.3522727272727275,
                "tempo": 120.0
            },
            {
                "start_time": 7.586363636363636,
                "end_time": 7.831818181818181,
                "pitch": 57,
                "velocity": 40,
                "duration": 0.24545454545454515,
                "tempo": 120.0
            },
            {
                "start_time": 7.834090909090909,
                "end_time": 7.947727272727272,
                "pitch": 57,
                "velocity": 40,
                "duration": 0.11363636363636331,
                "tempo": 120.0
            },
            {
                "start_time": 7.949999999999999,
                "end_time": 8.177272727272728,
                "pitch": 55,
                "velocity": 40,
                "duration": 0.2272727272727284,
                "tempo": 120.0
            },
            {
                "start_time": 8.177272727272728,
                "end_time": 8.554545454545455,
                "pitch": 57,
                "velocity": 40,
                "duration": 0.377272727272727,
                "tempo": 120.0
            },
            {
                "start_time": 8.554545454545455,
                "end_time": 8.790909090909091,
                "pitch": 57,
                "velocity": 40,
                "duration": 0.23636363636363633,
                "tempo": 120.0
            },
            {
                "start_time": 8.790909090909091,
                "end_time": 8.909090909090908,
                "pitch": 57,
                "velocity": 40,
                "duration": 0.11818181818181728,
                "tempo": 120.0
            },
            {
                "start_time": 8.909090909090908,
                "end_time": 9.161363636363635,
                "pitch": 55,
                "velocity": 40,
                "duration": 0.252272727272727,
                "tempo": 120.0
            },
            {
                "start_time": 9.161363636363635,
                "end_time": 9.51590909090909,
                "pitch": 57,
                "velocity": 40,
                "duration": 0.3545454545454554,
                "tempo": 120.0
            },
            {
                "start_time": 9.51590909090909,
                "end_time": 9.768181818181818,
                "pitch": 57,
                "velocity": 40,
                "duration": 0.252272727272727,
                "tempo": 120.0
            },
            {
                "start_time": 9.768181818181818,
                "end_time": 9.888636363636364,
                "pitch": 57,
                "velocity": 40,
                "duration": 0.12045454545454604,
                "tempo": 120.0
            },
            {
                "start_time": 9.888636363636364,
                "end_time": 10.127272727272727,
                "pitch": 55,
                "velocity": 40,
                "duration": 0.2386363636363633,
                "tempo": 120.0
            },
            {
                "start_time": 10.127272727272727,
                "end_time": 10.49090909090909,
                "pitch": 57,
                "velocity": 40,
                "duration": 0.3636363636363633,
                "tempo": 120.0
            },
            {
                "start_time": 10.49090909090909,
                "end_time": 10.722727272727273,
                "pitch": 57,
                "velocity": 40,
                "duration": 0.23181818181818237,
                "tempo": 120.0
            },
            {
                "start_time": 10.722727272727273,
                "end_time": 10.85681818181818,
                "pitch": 57,
                "velocity": 40,
                "duration": 0.13409090909090793,
                "tempo": 120.0
            },
            {
                "start_time": 10.85681818181818,
                "end_time": 11.09090909090909,
                "pitch": 55,
                "velocity": 40,
                "duration": 0.23409090909090935,
                "tempo": 120.0
            },
            {
                "start_time": 11.093181818181817,
                "end_time": 11.463636363636363,
                "pitch": 57,
                "velocity": 40,
                "duration": 0.37045454545454604,
                "tempo": 120.0
            },
            {
                "start_time": 11.463636363636363,
                "end_time": 11.695454545454545,
                "pitch": 57,
                "velocity": 40,
                "duration": 0.23181818181818237,
                "tempo": 120.0
            },
            {
                "start_time": 11.697727272727272,
                "end_time": 11.813636363636363,
                "pitch": 57,
                "velocity": 40,
                "duration": 0.1159090909090903,
                "tempo": 120.0
            },
            {
                "start_time": 11.813636363636363,
                "end_time": 12.063636363636363,
                "pitch": 55,
                "velocity": 40,
                "duration": 0.25,
                "tempo": 120.0
            },
            {
                "start_time": 12.063636363636363,
                "end_time": 12.422727272727272,
                "pitch": 57,
                "velocity": 40,
                "duration": 0.35909090909090935,
                "tempo": 120.0
            },
            {
                "start_time": 12.424999999999999,
                "end_time": 12.672727272727272,
                "pitch": 57,
                "velocity": 40,
                "duration": 0.24772727272727302,
                "tempo": 120.0
            },
            {
                "start_time": 12.674999999999999,
                "end_time": 12.790909090909091,
                "pitch": 57,
                "velocity": 40,
                "duration": 0.11590909090909207,
                "tempo": 120.0
            },
            {
                "start_time": 12.790909090909091,
                "end_time": 13.018181818181818,
                "pitch": 55,
                "velocity": 40,
                "duration": 0.22727272727272663,
                "tempo": 120.0
            },
            {
                "start_time": 13.018181818181818,
                "end_time": 13.39090909090909,
                "pitch": 57,
                "velocity": 40,
                "duration": 0.372727272727273,
                "tempo": 120.0
            },
            {
                "start_time": 13.39090909090909,
                "end_time": 13.622727272727271,
                "pitch": 57,
                "velocity": 40,
                "duration": 0.2318181818181806,
                "tempo": 120.0
            },
            {
                "start_time": 13.622727272727271,
                "end_time": 13.74090909090909,
                "pitch": 57,
                "velocity": 40,
                "duration": 0.11818181818181905,
                "tempo": 120.0
            },
            {
                "start_time": 13.74090909090909,
                "end_time": 13.99090909090909,
                "pitch": 55,
                "velocity": 40,
                "duration": 0.25,
                "tempo": 120.0
            },
            {
                "start_time": 13.99090909090909,
                "end_time": 14.35,
                "pitch": 57,
                "velocity": 40,
                "duration": 0.35909090909090935,
                "tempo": 120.0
            },
            {
                "start_time": 14.35,
                "end_time": 14.604545454545454,
                "pitch": 57,
                "velocity": 40,
                "duration": 0.25454545454545396,
                "tempo": 120.0
            },
            {
                "start_time": 14.604545454545454,
                "end_time": 14.722727272727273,
                "pitch": 57,
                "velocity": 40,
                "duration": 0.11818181818181905,
                "tempo": 120.0
            },
            {
                "start_time": 14.722727272727273,
                "end_time": 14.95681818181818,
                "pitch": 55,
                "velocity": 40,
                "duration": 0.23409090909090757,
                "tempo": 120.0
            },
            {
                "start_time": 14.95681818181818,
                "end_time": 15.320454545454545,
                "pitch": 57,
                "velocity": 40,
                "duration": 0.3636363636363651,
                "tempo": 120.0
            },
            {
                "start_time": 15.320454545454545,
                "end_time": 35.26136363636363,
                "pitch": 57,
                "velocity": 40,
                "duration": 19.940909090909088,
                "tempo": 120.0
            },
            {
                "start_time": 35.26136363636363,
                "end_time": 35.627272727272725,
                "pitch": 57,
                "velocity": 40,
                "duration": 0.36590909090909207,
                "tempo": 120.0
            },
            {
                "start_time": 35.627272727272725,
                "end_time": 35.86363636363636,
                "pitch": 57,
                "velocity": 40,
                "duration": 0.23636363636363455,
                "tempo": 120.0
            },
            {
                "start_time": 35.86363636363636,
                "end_time": 35.98409090909091,
                "pitch": 57,
                "velocity": 40,
                "duration": 0.12045454545454959,
                "tempo": 120.0
            },
            {
                "start_time": 35.98409090909091,
                "end_time": 36.24090909090909,
                "pitch": 67,
                "velocity": 40,
                "duration": 0.2568181818181827,
                "tempo": 120.0
            },
            {
                "start_time": 36.24090909090909,
                "end_time": 36.590909090909086,
                "pitch": 69,
                "velocity": 40,
                "duration": 0.3499999999999943,
                "tempo": 120.0
            },
            {
                "start_time": 36.590909090909086,
                "end_time": 36.83863636363636,
                "pitch": 69,
                "velocity": 40,
                "duration": 0.2477272727272748,
                "tempo": 120.0
            },
            {
                "start_time": 36.83863636363636,
                "end_time": 36.95454545454545,
                "pitch": 69,
                "velocity": 40,
                "duration": 0.11590909090909207,
                "tempo": 120.0
            },
            {
                "start_time": 36.95454545454545,
                "end_time": 37.184090909090905,
                "pitch": 67,
                "velocity": 40,
                "duration": 0.22954545454545183,
                "tempo": 120.0
            },
            {
                "start_time": 37.184090909090905,
                "end_time": 37.55,
                "pitch": 69,
                "velocity": 40,
                "duration": 0.36590909090909207,
                "tempo": 120.0
            },
            {
                "start_time": 37.55,
                "end_time": 37.78636363636363,
                "pitch": 69,
                "velocity": 40,
                "duration": 0.23636363636363455,
                "tempo": 120.0
            },
            {
                "start_time": 37.78636363636363,
                "end_time": 37.90681818181818,
                "pitch": 69,
                "velocity": 40,
                "duration": 0.12045454545454959,
                "tempo": 120.0
            },
            {
                "start_time": 37.90681818181818,
                "end_time": 38.163636363636364,
                "pitch": 67,
                "velocity": 40,
                "duration": 0.2568181818181827,
                "tempo": 120.0
            },
            {
                "start_time": 38.163636363636364,
                "end_time": 38.51363636363636,
                "pitch": 69,
                "velocity": 40,
                "duration": 0.3499999999999943,
                "tempo": 120.0
            },
            {
                "start_time": 38.51363636363636,
                "end_time": 38.76363636363636,
                "pitch": 69,
                "velocity": 40,
                "duration": 0.25,
                "tempo": 120.0
            },
            {
                "start_time": 38.76363636363636,
                "end_time": 38.88181818181818,
                "pitch": 69,
                "velocity": 40,
                "duration": 0.11818181818182438,
                "tempo": 120.0
            },
            {
                "start_time": 38.88181818181818,
                "end_time": 39.11818181818182,
                "pitch": 67,
                "velocity": 40,
                "duration": 0.23636363636363455,
                "tempo": 120.0
            },
            {
                "start_time": 39.11818181818182,
                "end_time": 39.47954545454545,
                "pitch": 69,
                "velocity": 40,
                "duration": 0.36136363636363455,
                "tempo": 120.0
            },
            {
                "start_time": 39.47954545454545,
                "end_time": 39.711363636363636,
                "pitch": 69,
                "velocity": 40,
                "duration": 0.23181818181818414,
                "tempo": 120.0
            },
            {
                "start_time": 39.711363636363636,
                "end_time": 39.845454545454544,
                "pitch": 69,
                "velocity": 40,
                "duration": 0.13409090909090793,
                "tempo": 120.0
            },
            {
                "start_time": 39.845454545454544,
                "end_time": 40.07954545454545,
                "pitch": 67,
                "velocity": 40,
                "duration": 0.23409090909090935,
                "tempo": 120.0
            },
            {
                "start_time": 40.07954545454545,
                "end_time": 40.45454545454545,
                "pitch": 69,
                "velocity": 40,
                "duration": 0.375,
                "tempo": 120.0
            },
            {
                "start_time": 40.45454545454545,
                "end_time": 40.69090909090909,
                "pitch": 69,
                "velocity": 40,
                "duration": 0.23636363636363455,
                "tempo": 120.0
            },
            {
                "start_time": 40.69090909090909,
                "end_time": 40.80681818181818,
                "pitch": 69,
                "velocity": 40,
                "duration": 0.11590909090909207,
                "tempo": 120.0
            },
            {
                "start_time": 40.809090909090905,
                "end_time": 41.059090909090905,
                "pitch": 67,
                "velocity": 40,
                "duration": 0.25,
                "tempo": 120.0
            },
            {
                "start_time": 41.059090909090905,
                "end_time": 41.41136363636363,
                "pitch": 69,
                "velocity": 40,
                "duration": 0.3522727272727266,
                "tempo": 120.0
            },
            {
                "start_time": 41.41136363636363,
                "end_time": 41.65909090909091,
                "pitch": 69,
                "velocity": 40,
                "duration": 0.2477272727272748,
                "tempo": 120.0
            },
            {
                "start_time": 41.65909090909091,
                "end_time": 41.775,
                "pitch": 69,
                "velocity": 40,
                "duration": 0.11590909090909207,
                "tempo": 120.0
            },
            {
                "start_time": 41.775,
                "end_time": 42.00454545454545,
                "pitch": 67,
                "velocity": 40,
                "duration": 0.22954545454545183,
                "tempo": 120.0
            },
            {
                "start_time": 42.00681818181818,
                "end_time": 42.37272727272727,
                "pitch": 69,
                "velocity": 40,
                "duration": 0.36590909090908497,
                "tempo": 120.0
            },
            {
                "start_time": 42.37272727272727,
                "end_time": 46.836363636363636,
                "pitch": 69,
                "velocity": 40,
                "duration": 4.463636363636368,
                "tempo": 120.0
            },
            {
                "start_time": 46.836363636363636,
                "end_time": 47.20227272727273,
                "pitch": 69,
                "velocity": 40,
                "duration": 0.36590909090909207,
                "tempo": 120.0
            },
            {
                "start_time": 47.20227272727273,
                "end_time": 47.43863636363636,
                "pitch": 69,
                "velocity": 40,
                "duration": 0.23636363636363455,
                "tempo": 120.0
            },
            {
                "start_time": 47.43863636363636,
                "end_time": 47.559090909090905,
                "pitch": 69,
                "velocity": 40,
                "duration": 0.12045454545454248,
                "tempo": 120.0
            },
            {
                "start_time": 47.559090909090905,
                "end_time": 47.81590909090909,
                "pitch": 67,
                "velocity": 40,
                "duration": 0.2568181818181827,
                "tempo": 120.0
            },
            {
                "start_time": 47.81590909090909,
                "end_time": 48.16590909090909,
                "pitch": 69,
                "velocity": 40,
                "duration": 0.3500000000000014,
                "tempo": 120.0
            },
            {
                "start_time": 48.16590909090909,
                "end_time": 48.418181818181814,
                "pitch": 69,
                "velocity": 40,
                "duration": 0.2522727272727252,
                "tempo": 120.0
            },
            {
                "start_time": 48.418181818181814,
                "end_time": 48.538636363636364,
                "pitch": 69,
                "velocity": 40,
                "duration": 0.12045454545454959,
                "tempo": 120.0
            },
            {
                "start_time": 48.538636363636364,
                "end_time": 48.777272727272724,
                "pitch": 67,
                "velocity": 40,
                "duration": 0.23863636363635976,
                "tempo": 120.0
            },
            {
                "start_time": 48.777272727272724,
                "end_time": 49.12954545454545,
                "pitch": 69,
                "velocity": 40,
                "duration": 0.3522727272727266,
                "tempo": 120.0
            },
            {
                "start_time": 49.12954545454545,
                "end_time": 49.361363636363635,
                "pitch": 69,
                "velocity": 40,
                "duration": 0.23181818181818414,
                "tempo": 120.0
            },
            {
                "start_time": 49.361363636363635,
                "end_time": 49.5,
                "pitch": 69,
                "velocity": 40,
                "duration": 0.13863636363636545,
                "tempo": 120.0
            },
            {
                "start_time": 49.5,
                "end_time": 49.73863636363636,
                "pitch": 67,
                "velocity": 40,
                "duration": 0.23863636363635976,
                "tempo": 120.0
            },
            {
                "start_time": 49.73863636363636,
                "end_time": 50.10454545454545,
                "pitch": 69,
                "velocity": 40,
                "duration": 0.36590909090909207,
                "tempo": 120.0
            },
            {
                "start_time": 50.10454545454545,
                "end_time": 50.33863636363636,
                "pitch": 69,
                "velocity": 40,
                "duration": 0.23409090909090935,
                "tempo": 120.0
            },
            {
                "start_time": 50.33863636363636,
                "end_time": 50.45681818181818,
                "pitch": 69,
                "velocity": 40,
                "duration": 0.11818181818181728,
                "tempo": 120.0
            },
            {
                "start_time": 50.45681818181818,
                "end_time": 50.70681818181818,
                "pitch": 67,
                "velocity": 40,
                "duration": 0.25,
                "tempo": 120.0
            },
            {
                "start_time": 50.70681818181818,
                "end_time": 51.06363636363636,
                "pitch": 69,
                "velocity": 40,
                "duration": 0.35681818181818414,
                "tempo": 120.0
            },
            {
                "start_time": 51.06590909090909,
                "end_time": 51.31590909090909,
                "pitch": 69,
                "velocity": 40,
                "duration": 0.25,
                "tempo": 120.0
            },
            {
                "start_time": 51.31590909090909,
                "end_time": 51.43181818181818,
                "pitch": 69,
                "velocity": 40,
                "duration": 0.11590909090909207,
                "tempo": 120.0
            },
            {
                "start_time": 51.43181818181818,
                "end_time": 51.66136363636363,
                "pitch": 67,
                "velocity": 40,
                "duration": 0.22954545454545183,
                "tempo": 120.0
            },
            {
                "start_time": 51.66136363636363,
                "end_time": 52.03181818181818,
                "pitch": 69,
                "velocity": 40,
                "duration": 0.3704545454545496,
                "tempo": 120.0
            },
            {
                "start_time": 52.03181818181818,
                "end_time": 52.26590909090909,
                "pitch": 69,
                "velocity": 40,
                "duration": 0.23409090909090935,
                "tempo": 120.0
            },
            {
                "start_time": 52.26590909090909,
                "end_time": 52.38181818181818,
                "pitch": 69,
                "velocity": 40,
                "duration": 0.11590909090909207,
                "tempo": 120.0
            },
            {
                "start_time": 52.38181818181818,
                "end_time": 52.63409090909091,
                "pitch": 67,
                "velocity": 40,
                "duration": 0.2522727272727252,
                "tempo": 120.0
            },
            {
                "start_time": 52.63409090909091,
                "end_time": 52.990909090909085,
                "pitch": 69,
                "velocity": 40,
                "duration": 0.35681818181817704,
                "tempo": 120.0
            },
            {
                "start_time": 52.99318181818182,
                "end_time": 53.24545454545454,
                "pitch": 69,
                "velocity": 40,
                "duration": 0.2522727272727252,
                "tempo": 120.0
            },
            {
                "start_time": 53.24545454545454,
                "end_time": 53.361363636363635,
                "pitch": 69,
                "velocity": 40,
                "duration": 0.11590909090909207,
                "tempo": 120.0
            },
            {
                "start_time": 53.361363636363635,
                "end_time": 53.595454545454544,
                "pitch": 67,
                "velocity": 40,
                "duration": 0.23409090909090935,
                "tempo": 120.0
            },
            {
                "start_time": 53.595454545454544,
                "end_time": 53.95681818181818,
                "pitch": 69,
                "velocity": 40,
                "duration": 0.36136363636363455,
                "tempo": 120.0
            },
            {
                "start_time": 53.95681818181818,
                "end_time": 58.89090909090909,
                "pitch": 69,
                "velocity": 40,
                "duration": 4.934090909090912,
                "tempo": 120.0
            },
            {
                "start_time": 58.893181818181816,
                "end_time": 59.14772727272727,
                "pitch": 67,
                "velocity": 51,
                "duration": 0.2545454545454575,
                "tempo": 120.0
            },
            {
                "start_time": 59.14772727272727,
                "end_time": 59.50454545454545,
                "pitch": 69,
                "velocity": 51,
                "duration": 0.35681818181817704,
                "tempo": 120.0
            },
            {
                "start_time": 59.50454545454545,
                "end_time": 59.75454545454545,
                "pitch": 69,
                "velocity": 51,
                "duration": 0.25,
                "tempo": 120.0
            },
            {
                "start_time": 59.75454545454545,
                "end_time": 59.87045454545454,
                "pitch": 69,
                "velocity": 51,
                "duration": 0.11590909090909207,
                "tempo": 120.0
            },
            {
                "start_time": 59.87045454545454,
                "end_time": 60.111363636363635,
                "pitch": 67,
                "velocity": 51,
                "duration": 0.24090909090909207,
                "tempo": 120.0
            },
            {
                "start_time": 60.111363636363635,
                "end_time": 60.48409090909091,
                "pitch": 69,
                "velocity": 51,
                "duration": 0.3727272727272748,
                "tempo": 120.0
            },
            {
                "start_time": 60.48409090909091,
                "end_time": 60.71818181818182,
                "pitch": 69,
                "velocity": 51,
                "duration": 0.23409090909090935,
                "tempo": 120.0
            },
            {
                "start_time": 60.71818181818182,
                "end_time": 60.834090909090904,
                "pitch": 69,
                "velocity": 51,
                "duration": 0.11590909090908497,
                "tempo": 120.0
            },
            {
                "start_time": 60.834090909090904,
                "end_time": 61.08181818181818,
                "pitch": 67,
                "velocity": 51,
                "duration": 0.2477272727272748,
                "tempo": 120.0
            },
            {
                "start_time": 61.08181818181818,
                "end_time": 61.42727272727272,
                "pitch": 69,
                "velocity": 51,
                "duration": 0.3454545454545439,
                "tempo": 120.0
            },
            {
                "start_time": 61.429545454545455,
                "end_time": 61.679545454545455,
                "pitch": 69,
                "velocity": 51,
                "duration": 0.25,
                "tempo": 120.0
            },
            {
                "start_time": 61.679545454545455,
                "end_time": 61.8,
                "pitch": 69,
                "velocity": 51,
                "duration": 0.12045454545454248,
                "tempo": 120.0
            },
            {
                "start_time": 61.8,
                "end_time": 62.038636363636364,
                "pitch": 67,
                "velocity": 51,
                "duration": 0.23863636363636687,
                "tempo": 120.0
            },
            {
                "start_time": 62.038636363636364,
                "end_time": 62.41136363636363,
                "pitch": 69,
                "velocity": 51,
                "duration": 0.3727272727272677,
                "tempo": 120.0
            },
            {
                "start_time": 62.41136363636363,
                "end_time": 62.643181818181816,
                "pitch": 69,
                "velocity": 51,
                "duration": 0.23181818181818414,
                "tempo": 120.0
            },
            {
                "start_time": 62.643181818181816,
                "end_time": 62.777272727272724,
                "pitch": 69,
                "velocity": 51,
                "duration": 0.13409090909090793,
                "tempo": 120.0
            },
            {
                "start_time": 62.777272727272724,
                "end_time": 63.01136363636363,
                "pitch": 67,
                "velocity": 51,
                "duration": 0.23409090909090935,
                "tempo": 120.0
            },
            {
                "start_time": 63.01136363636363,
                "end_time": 63.377272727272725,
                "pitch": 69,
                "velocity": 51,
                "duration": 0.36590909090909207,
                "tempo": 120.0
            },
            {
                "start_time": 63.377272727272725,
                "end_time": 63.60681818181818,
                "pitch": 69,
                "velocity": 51,
                "duration": 0.22954545454545183,
                "tempo": 120.0
            },
            {
                "start_time": 63.60681818181818,
                "end_time": 63.720454545454544,
                "pitch": 69,
                "velocity": 51,
                "duration": 0.11363636363636687,
                "tempo": 120.0
            },
            {
                "start_time": 63.72272727272727,
                "end_time": 63.97727272727273,
                "pitch": 67,
                "velocity": 51,
                "duration": 0.2545454545454575,
                "tempo": 120.0
            },
            {
                "start_time": 63.97727272727273,
                "end_time": 64.3340909090909,
                "pitch": 69,
                "velocity": 51,
                "duration": 0.35681818181817704,
                "tempo": 120.0
            },
            {
                "start_time": 64.3340909090909,
                "end_time": 64.58636363636363,
                "pitch": 69,
                "velocity": 51,
                "duration": 0.2522727272727252,
                "tempo": 120.0
            },
            {
                "start_time": 64.58863636363635,
                "end_time": 64.70454545454545,
                "pitch": 69,
                "velocity": 51,
                "duration": 0.11590909090909918,
                "tempo": 120.0
            },
            {
                "start_time": 64.70454545454545,
                "end_time": 64.94090909090909,
                "pitch": 67,
                "velocity": 51,
                "duration": 0.23636363636363455,
                "tempo": 120.0
            },
            {
                "start_time": 64.94090909090909,
                "end_time": 65.31136363636364,
                "pitch": 69,
                "velocity": 51,
                "duration": 0.3704545454545496,
                "tempo": 120.0
            },
            {
                "start_time": 65.31363636363636,
                "end_time": 65.55227272727272,
                "pitch": 69,
                "velocity": 51,
                "duration": 0.23863636363635976,
                "tempo": 120.0
            },
            {
                "start_time": 65.55227272727272,
                "end_time": 70.50227272727273,
                "pitch": 69,
                "velocity": 51,
                "duration": 4.950000000000003,
                "tempo": 120.0
            },
            {
                "start_time": 70.50227272727273,
                "end_time": 70.74772727272727,
                "pitch": 67,
                "velocity": 51,
                "duration": 0.2454545454545496,
                "tempo": 120.0
            },
            {
                "start_time": 70.74772727272727,
                "end_time": 71.09545454545454,
                "pitch": 69,
                "velocity": 51,
                "duration": 0.3477272727272691,
                "tempo": 120.0
            },
            {
                "start_time": 71.09545454545454,
                "end_time": 71.34772727272727,
                "pitch": 69,
                "velocity": 51,
                "duration": 0.2522727272727252,
                "tempo": 120.0
            },
            {
                "start_time": 71.34772727272727,
                "end_time": 71.4659090909091,
                "pitch": 69,
                "velocity": 51,
                "duration": 0.11818181818182438,
                "tempo": 120.0
            },
            {
                "start_time": 71.4659090909091,
                "end_time": 71.70454545454545,
                "pitch": 67,
                "velocity": 51,
                "duration": 0.23863636363635976,
                "tempo": 120.0
            },
            {
                "start_time": 71.70454545454545,
                "end_time": 72.07954545454545,
                "pitch": 69,
                "velocity": 51,
                "duration": 0.375,
                "tempo": 120.0
            },
            {
                "start_time": 72.07954545454545,
                "end_time": 72.31363636363636,
                "pitch": 69,
                "velocity": 51,
                "duration": 0.23409090909090935,
                "tempo": 120.0
            },
            {
                "start_time": 72.31363636363636,
                "end_time": 72.45,
                "pitch": 69,
                "velocity": 51,
                "duration": 0.13636363636364024,
                "tempo": 120.0
            },
            {
                "start_time": 72.45,
                "end_time": 72.68863636363636,
                "pitch": 67,
                "velocity": 51,
                "duration": 0.23863636363635976,
                "tempo": 120.0
            },
            {
                "start_time": 72.68863636363636,
                "end_time": 73.05454545454545,
                "pitch": 69,
                "velocity": 51,
                "duration": 0.36590909090908497,
                "tempo": 120.0
            },
            {
                "start_time": 73.05681818181817,
                "end_time": 73.27954545454546,
                "pitch": 69,
                "velocity": 51,
                "duration": 0.22272727272728332,
                "tempo": 120.0
            },
            {
                "start_time": 73.27954545454546,
                "end_time": 73.39318181818182,
                "pitch": 69,
                "velocity": 51,
                "duration": 0.11363636363635976,
                "tempo": 120.0
            },
            {
                "start_time": 73.39318181818182,
                "end_time": 73.64999999999999,
                "pitch": 67,
                "velocity": 51,
                "duration": 0.2568181818181756,
                "tempo": 120.0
            },
            {
                "start_time": 73.64999999999999,
                "end_time": 74.00454545454545,
                "pitch": 69,
                "velocity": 51,
                "duration": 0.35454545454545894,
                "tempo": 120.0
            },
            {
                "start_time": 74.00681818181818,
                "end_time": 74.25681818181818,
                "pitch": 69,
                "velocity": 51,
                "duration": 0.25,
                "tempo": 120.0
            },
            {
                "start_time": 74.2590909090909,
                "end_time": 74.375,
                "pitch": 69,
                "velocity": 51,
                "duration": 0.11590909090909918,
                "tempo": 120.0
            },
            {
                "start_time": 74.37727272727273,
                "end_time": 74.61590909090908,
                "pitch": 67,
                "velocity": 51,
                "duration": 0.23863636363635976,
                "tempo": 120.0
            },
            {
                "start_time": 74.61590909090908,
                "end_time": 74.98863636363636,
                "pitch": 69,
                "velocity": 51,
                "duration": 0.3727272727272748,
                "tempo": 120.0
            },
            {
                "start_time": 74.98863636363636,
                "end_time": 75.225,
                "pitch": 69,
                "velocity": 51,
                "duration": 0.23636363636363455,
                "tempo": 120.0
            },
            {
                "start_time": 75.225,
                "end_time": 75.34318181818182,
                "pitch": 69,
                "velocity": 51,
                "duration": 0.11818181818182438,
                "tempo": 120.0
            },
            {
                "start_time": 75.34318181818182,
                "end_time": 75.58863636363635,
                "pitch": 67,
                "velocity": 51,
                "duration": 0.24545454545453538,
                "tempo": 120.0
            },
            {
                "start_time": 75.58863636363635,
                "end_time": 75.93636363636364,
                "pitch": 69,
                "velocity": 51,
                "duration": 0.3477272727272833,
                "tempo": 120.0
            },
            {
                "start_time": 75.93636363636364,
                "end_time": 76.18863636363636,
                "pitch": 69,
                "velocity": 51,
                "duration": 0.2522727272727252,
                "tempo": 120.0
            },
            {
                "start_time": 76.18863636363636,
                "end_time": 76.30681818181817,
                "pitch": 69,
                "velocity": 51,
                "duration": 0.11818181818181017,
                "tempo": 120.0
            },
            {
                "start_time": 76.30681818181817,
                "end_time": 76.54545454545455,
                "pitch": 67,
                "velocity": 51,
                "duration": 0.23863636363637397,
                "tempo": 120.0
            },
            {
                "start_time": 76.54772727272727,
                "end_time": 76.92045454545455,
                "pitch": 69,
                "velocity": 51,
                "duration": 0.3727272727272748,
                "tempo": 120.0
            },
            {
                "start_time": 76.92045454545455,
                "end_time": 77.15681818181818,
                "pitch": 69,
                "velocity": 51,
                "duration": 0.23636363636363455,
                "tempo": 120.0
            },
            {
                "start_time": 77.15681818181818,
                "end_time": 82.12045454545454,
                "pitch": 69,
                "velocity": 51,
                "duration": 4.963636363636354,
                "tempo": 120.0
            },
            {
                "start_time": 82.12045454545454,
                "end_time": 82.35909090909091,
                "pitch": 67,
                "velocity": 51,
                "duration": 0.23863636363637397,
                "tempo": 120.0
            },
            {
                "start_time": 82.35909090909091,
                "end_time": 82.72954545454544,
                "pitch": 69,
                "velocity": 51,
                "duration": 0.3704545454545354,
                "tempo": 120.0
            },
            {
                "start_time": 82.72954545454544,
                "end_time": 82.9590909090909,
                "pitch": 69,
                "velocity": 51,
                "duration": 0.22954545454545894,
                "tempo": 120.0
            },
            {
                "start_time": 82.9590909090909,
                "end_time": 83.075,
                "pitch": 69,
                "velocity": 51,
                "duration": 0.11590909090909918,
                "tempo": 120.0
            },
            {
                "start_time": 83.075,
                "end_time": 83.325,
                "pitch": 67,
                "velocity": 51,
                "duration": 0.25,
                "tempo": 120.0
            },
            {
                "start_time": 83.325,
                "end_time": 83.67727272727272,
                "pitch": 69,
                "velocity": 51,
                "duration": 0.3522727272727195,
                "tempo": 120.0
            },
            {
                "start_time": 83.67727272727272,
                "end_time": 83.92954545454545,
                "pitch": 69,
                "velocity": 51,
                "duration": 0.2522727272727252,
                "tempo": 120.0
            },
            {
                "start_time": 83.92954545454545,
                "end_time": 84.04772727272727,
                "pitch": 69,
                "velocity": 51,
                "duration": 0.11818181818182438,
                "tempo": 120.0
            },
            {
                "start_time": 84.04772727272727,
                "end_time": 84.28636363636363,
                "pitch": 67,
                "velocity": 51,
                "duration": 0.23863636363635976,
                "tempo": 120.0
            },
            {
                "start_time": 84.28636363636363,
                "end_time": 84.6590909090909,
                "pitch": 69,
                "velocity": 51,
                "duration": 0.3727272727272748,
                "tempo": 120.0
            },
            {
                "start_time": 84.66136363636363,
                "end_time": 84.89545454545454,
                "pitch": 69,
                "velocity": 51,
                "duration": 0.23409090909090935,
                "tempo": 120.0
            },
            {
                "start_time": 84.89545454545454,
                "end_time": 85.01363636363637,
                "pitch": 69,
                "velocity": 51,
                "duration": 0.11818181818182438,
                "tempo": 120.0
            },
            {
                "start_time": 85.01363636363637,
                "end_time": 85.2590909090909,
                "pitch": 67,
                "velocity": 51,
                "duration": 0.24545454545453538,
                "tempo": 120.0
            },
            {
                "start_time": 85.2590909090909,
                "end_time": 85.60681818181818,
                "pitch": 69,
                "velocity": 51,
                "duration": 0.3477272727272833,
                "tempo": 120.0
            },
            {
                "start_time": 85.60681818181818,
                "end_time": 85.85909090909091,
                "pitch": 69,
                "velocity": 51,
                "duration": 0.2522727272727252,
                "tempo": 120.0
            },
            {
                "start_time": 85.85909090909091,
                "end_time": 85.97727272727272,
                "pitch": 69,
                "velocity": 51,
                "duration": 0.11818181818181017,
                "tempo": 120.0
            },
            {
                "start_time": 85.97727272727272,
                "end_time": 86.21818181818182,
                "pitch": 67,
                "velocity": 51,
                "duration": 0.24090909090909918,
                "tempo": 120.0
            },
            {
                "start_time": 86.21818181818182,
                "end_time": 86.5909090909091,
                "pitch": 69,
                "velocity": 51,
                "duration": 0.3727272727272748,
                "tempo": 120.0
            },
            {
                "start_time": 86.5909090909091,
                "end_time": 86.82727272727273,
                "pitch": 69,
                "velocity": 51,
                "duration": 0.23636363636363455,
                "tempo": 120.0
            },
            {
                "start_time": 86.82727272727273,
                "end_time": 86.96136363636363,
                "pitch": 69,
                "velocity": 51,
                "duration": 0.13409090909090082,
                "tempo": 120.0
            },
            {
                "start_time": 86.96136363636363,
                "end_time": 87.2,
                "pitch": 67,
                "velocity": 51,
                "duration": 0.23863636363637397,
                "tempo": 120.0
            },
            {
                "start_time": 87.2,
                "end_time": 87.56818181818181,
                "pitch": 69,
                "velocity": 51,
                "duration": 0.36818181818181017,
                "tempo": 120.0
            },
            {
                "start_time": 87.56818181818181,
                "end_time": 87.79318181818181,
                "pitch": 69,
                "velocity": 51,
                "duration": 0.22499999999999432,
                "tempo": 120.0
            },
            {
                "start_time": 87.79318181818181,
                "end_time": 87.90454545454546,
                "pitch": 69,
                "velocity": 51,
                "duration": 0.11136363636364877,
                "tempo": 120.0
            },
            {
                "start_time": 87.90454545454546,
                "end_time": 88.16136363636363,
                "pitch": 67,
                "velocity": 51,
                "duration": 0.2568181818181756,
                "tempo": 120.0
            },
            {
                "start_time": 88.16136363636363,
                "end_time": 88.51818181818182,
                "pitch": 69,
                "velocity": 51,
                "duration": 0.35681818181818414,
                "tempo": 120.0
            },
            {
                "start_time": 88.51818181818182,
                "end_time": 88.77045454545454,
                "pitch": 69,
                "velocity": 51,
                "duration": 0.2522727272727252,
                "tempo": 120.0
            },
            {
                "start_time": 88.77045454545454,
                "end_time": 93.72954545454544,
                "pitch": 69,
                "velocity": 51,
                "duration": 4.959090909090904,
                "tempo": 120.0
            },
            {
                "start_time": 93.72954545454544,
                "end_time": 93.96363636363635,
                "pitch": 67,
                "velocity": 51,
                "duration": 0.23409090909090935,
                "tempo": 120.0
            },
            {
                "start_time": 93.96363636363635,
                "end_time": 94.33181818181818,
                "pitch": 69,
                "velocity": 51,
                "duration": 0.3681818181818244,
                "tempo": 120.0
            },
            {
                "start_time": 94.33181818181818,
                "end_time": 94.56590909090909,
                "pitch": 69,
                "velocity": 51,
                "duration": 0.23409090909090935,
                "tempo": 120.0
            },
            {
                "start_time": 94.56590909090909,
                "end_time": 94.6840909090909,
                "pitch": 69,
                "velocity": 51,
                "duration": 0.11818181818181017,
                "tempo": 120.0
            },
            {
                "start_time": 94.6840909090909,
                "end_time": 94.93181818181817,
                "pitch": 67,
                "velocity": 51,
                "duration": 0.2477272727272748,
                "tempo": 120.0
            },
            {
                "start_time": 94.93181818181817,
                "end_time": 95.27954545454546,
                "pitch": 69,
                "velocity": 51,
                "duration": 0.3477272727272833,
                "tempo": 120.0
            },
            {
                "start_time": 95.28181818181818,
                "end_time": 95.53636363636363,
                "pitch": 69,
                "velocity": 51,
                "duration": 0.2545454545454504,
                "tempo": 120.0
            },
            {
                "start_time": 95.53636363636363,
                "end_time": 95.65681818181818,
                "pitch": 69,
                "velocity": 51,
                "duration": 0.12045454545454959,
                "tempo": 120.0
            },
            {
                "start_time": 95.65681818181818,
                "end_time": 95.89090909090909,
                "pitch": 67,
                "velocity": 51,
                "duration": 0.23409090909090935,
                "tempo": 120.0
            },
            {
                "start_time": 95.89090909090909,
                "end_time": 96.2590909090909,
                "pitch": 69,
                "velocity": 51,
                "duration": 0.36818181818181017,
                "tempo": 120.0
            },
            {
                "start_time": 96.2590909090909,
                "end_time": 96.49318181818181,
                "pitch": 69,
                "velocity": 51,
                "duration": 0.23409090909090935,
                "tempo": 120.0
            },
            {
                "start_time": 96.49318181818181,
                "end_time": 96.62954545454545,
                "pitch": 69,
                "velocity": 51,
                "duration": 0.13636363636364024,
                "tempo": 120.0
            },
            {
                "start_time": 96.62954545454545,
                "end_time": 96.86818181818181,
                "pitch": 67,
                "velocity": 51,
                "duration": 0.23863636363635976,
                "tempo": 120.0
            },
            {
                "start_time": 96.86818181818181,
                "end_time": 97.23863636363636,
                "pitch": 69,
                "velocity": 51,
                "duration": 0.3704545454545496,
                "tempo": 120.0
            },
            {
                "start_time": 97.23863636363636,
                "end_time": 97.46818181818182,
                "pitch": 69,
                "velocity": 51,
                "duration": 0.22954545454545894,
                "tempo": 120.0
            },
            {
                "start_time": 97.46818181818182,
                "end_time": 97.5840909090909,
                "pitch": 69,
                "velocity": 51,
                "duration": 0.11590909090908497,
                "tempo": 120.0
            },
            {
                "start_time": 97.5840909090909,
                "end_time": 97.83636363636363,
                "pitch": 67,
                "velocity": 51,
                "duration": 0.2522727272727252,
                "tempo": 120.0
            },
            {
                "start_time": 97.83636363636363,
                "end_time": 98.18863636363636,
                "pitch": 69,
                "velocity": 51,
                "duration": 0.35227272727273373,
                "tempo": 120.0
            },
            {
                "start_time": 98.18863636363636,
                "end_time": 98.44090909090909,
                "pitch": 69,
                "velocity": 51,
                "duration": 0.2522727272727252,
                "tempo": 120.0
            },
            {
                "start_time": 98.44090909090909,
                "end_time": 98.5590909090909,
                "pitch": 69,
                "velocity": 51,
                "duration": 0.11818181818181017,
                "tempo": 120.0
            },
            {
                "start_time": 98.5590909090909,
                "end_time": 98.79772727272727,
                "pitch": 67,
                "velocity": 51,
                "duration": 0.23863636363637397,
                "tempo": 120.0
            },
            {
                "start_time": 98.79772727272727,
                "end_time": 99.17272727272727,
                "pitch": 69,
                "velocity": 51,
                "duration": 0.375,
                "tempo": 120.0
            },
            {
                "start_time": 99.17272727272727,
                "end_time": 99.40681818181818,
                "pitch": 69,
                "velocity": 51,
                "duration": 0.23409090909090935,
                "tempo": 120.0
            },
            {
                "start_time": 99.40681818181818,
                "end_time": 99.52499999999999,
                "pitch": 69,
                "velocity": 51,
                "duration": 0.11818181818181017,
                "tempo": 120.0
            },
            {
                "start_time": 99.52499999999999,
                "end_time": 99.77272727272727,
                "pitch": 67,
                "velocity": 51,
                "duration": 0.2477272727272748,
                "tempo": 120.0
            },
            {
                "start_time": 99.77272727272727,
                "end_time": 100.12045454545454,
                "pitch": 69,
                "velocity": 51,
                "duration": 0.3477272727272691,
                "tempo": 120.0
            },
            {
                "start_time": 100.12045454545454,
                "end_time": 100.37272727272727,
                "pitch": 69,
                "velocity": 51,
                "duration": 0.2522727272727394,
                "tempo": 120.0
            },
            {
                "start_time": 100.37272727272727,
                "end_time": 100.49090909090908,
                "pitch": 69,
                "velocity": 51,
                "duration": 0.11818181818181017,
                "tempo": 120.0
            },
            {
                "start_time": 100.72727272727272,
                "end_time": 101.10227272727272,
                "pitch": 57,
                "velocity": 64,
                "duration": 0.375,
                "tempo": 120.0
            },
            {
                "start_time": 101.10227272727272,
                "end_time": 101.33863636363635,
                "pitch": 57,
                "velocity": 64,
                "duration": 0.23636363636363455,
                "tempo": 120.0
            },
            {
                "start_time": 101.33863636363635,
                "end_time": 101.47272727272727,
                "pitch": 57,
                "velocity": 64,
                "duration": 0.13409090909091503,
                "tempo": 120.0
            },
            {
                "start_time": 101.47272727272727,
                "end_time": 101.70681818181818,
                "pitch": 55,
                "velocity": 64,
                "duration": 0.23409090909090935,
                "tempo": 120.0
            },
            {
                "start_time": 101.70681818181818,
                "end_time": 102.07727272727273,
                "pitch": 57,
                "velocity": 64,
                "duration": 0.3704545454545496,
                "tempo": 120.0
            },
            {
                "start_time": 102.07727272727273,
                "end_time": 102.31136363636364,
                "pitch": 57,
                "velocity": 64,
                "duration": 0.23409090909090935,
                "tempo": 120.0
            },
            {
                "start_time": 102.31136363636364,
                "end_time": 102.42727272727272,
                "pitch": 57,
                "velocity": 64,
                "duration": 0.11590909090908497,
                "tempo": 120.0
            },
            {
                "start_time": 102.42727272727272,
                "end_time": 102.67954545454545,
                "pitch": 55,
                "velocity": 64,
                "duration": 0.2522727272727252,
                "tempo": 120.0
            },
            {
                "start_time": 102.67954545454545,
                "end_time": 103.0340909090909,
                "pitch": 57,
                "velocity": 64,
                "duration": 0.35454545454545894,
                "tempo": 120.0
            },
            {
                "start_time": 103.0340909090909,
                "end_time": 103.2840909090909,
                "pitch": 57,
                "velocity": 64,
                "duration": 0.25,
                "tempo": 120.0
            },
            {
                "start_time": 103.2840909090909,
                "end_time": 103.40454545454546,
                "pitch": 57,
                "velocity": 64,
                "duration": 0.12045454545454959,
                "tempo": 120.0
            },
            {
                "start_time": 103.40454545454546,
                "end_time": 103.63636363636363,
                "pitch": 55,
                "velocity": 64,
                "duration": 0.23181818181816993,
                "tempo": 120.0
            },
            {
                "start_time": 103.63636363636363,
                "end_time": 104.00681818181818,
                "pitch": 57,
                "velocity": 64,
                "duration": 0.3704545454545496,
                "tempo": 120.0
            },
            {
                "start_time": 104.00681818181818,
                "end_time": 104.24545454545454,
                "pitch": 57,
                "velocity": 64,
                "duration": 0.23863636363635976,
                "tempo": 120.0
            },
            {
                "start_time": 104.24545454545454,
                "end_time": 104.36590909090908,
                "pitch": 57,
                "velocity": 64,
                "duration": 0.12045454545454959,
                "tempo": 120.0
            },
            {
                "start_time": 104.36590909090908,
                "end_time": 104.61136363636363,
                "pitch": 55,
                "velocity": 64,
                "duration": 0.2454545454545496,
                "tempo": 120.0
            },
            {
                "start_time": 104.61136363636363,
                "end_time": 104.9590909090909,
                "pitch": 57,
                "velocity": 64,
                "duration": 0.3477272727272691,
                "tempo": 120.0
            },
            {
                "start_time": 104.9590909090909,
                "end_time": 105.21136363636363,
                "pitch": 57,
                "velocity": 64,
                "duration": 0.2522727272727252,
                "tempo": 120.0
            },
            {
                "start_time": 105.21136363636363,
                "end_time": 105.32954545454545,
                "pitch": 57,
                "velocity": 64,
                "duration": 0.11818181818182438,
                "tempo": 120.0
            },
            {
                "start_time": 105.33181818181818,
                "end_time": 105.56363636363636,
                "pitch": 55,
                "velocity": 64,
                "duration": 0.23181818181818414,
                "tempo": 120.0
            },
            {
                "start_time": 105.56363636363636,
                "end_time": 105.9340909090909,
                "pitch": 57,
                "velocity": 64,
                "duration": 0.3704545454545354,
                "tempo": 120.0
            },
            {
                "start_time": 105.9340909090909,
                "end_time": 106.17272727272727,
                "pitch": 57,
                "velocity": 64,
                "duration": 0.23863636363637397,
                "tempo": 120.0
            },
            {
                "start_time": 106.17272727272727,
                "end_time": 106.3090909090909,
                "pitch": 57,
                "velocity": 64,
                "duration": 0.13636363636362603,
                "tempo": 120.0
            },
            {
                "start_time": 106.3090909090909,
                "end_time": 106.54318181818181,
                "pitch": 55,
                "velocity": 64,
                "duration": 0.23409090909090935,
                "tempo": 120.0
            },
            {
                "start_time": 106.54318181818181,
                "end_time": 106.9090909090909,
                "pitch": 57,
                "velocity": 64,
                "duration": 0.3659090909090992,
                "tempo": 120.0
            },
            {
                "start_time": 106.9090909090909,
                "end_time": 107.13863636363637,
                "pitch": 57,
                "velocity": 64,
                "duration": 0.22954545454545894,
                "tempo": 120.0
            },
            {
                "start_time": 107.13863636363637,
                "end_time": 107.25454545454545,
                "pitch": 57,
                "velocity": 64,
                "duration": 0.11590909090908497,
                "tempo": 120.0
            },
            {
                "start_time": 107.25454545454545,
                "end_time": 107.50454545454545,
                "pitch": 55,
                "velocity": 64,
                "duration": 0.25,
                "tempo": 120.0
            },
            {
                "start_time": 107.50454545454545,
                "end_time": 107.86136363636363,
                "pitch": 57,
                "velocity": 64,
                "duration": 0.35681818181818414,
                "tempo": 120.0
            },
            {
                "start_time": 107.86136363636363,
                "end_time": 108.11590909090908,
                "pitch": 57,
                "velocity": 64,
                "duration": 0.2545454545454504,
                "tempo": 120.0
            },
            {
                "start_time": 108.11590909090908,
                "end_time": 108.23636363636363,
                "pitch": 57,
                "velocity": 64,
                "duration": 0.12045454545454959,
                "tempo": 120.0
            },
            {
                "start_time": 108.23863636363636,
                "end_time": 108.47045454545454,
                "pitch": 55,
                "velocity": 64,
                "duration": 0.23181818181818414,
                "tempo": 120.0
            },
            {
                "start_time": 108.47045454545454,
                "end_time": 108.83863636363635,
                "pitch": 57,
                "velocity": 64,
                "duration": 0.36818181818181017,
                "tempo": 120.0
            },
            {
                "start_time": 108.83863636363635,
                "end_time": 109.07272727272726,
                "pitch": 57,
                "velocity": 64,
                "duration": 0.23409090909090935,
                "tempo": 120.0
            },
            {
                "start_time": 109.07272727272726,
                "end_time": 109.19318181818181,
                "pitch": 57,
                "velocity": 64,
                "duration": 0.12045454545454959,
                "tempo": 120.0
            },
            {
                "start_time": 109.19318181818181,
                "end_time": 109.43863636363636,
                "pitch": 55,
                "velocity": 64,
                "duration": 0.2454545454545496,
                "tempo": 120.0
            },
            {
                "start_time": 109.43863636363636,
                "end_time": 109.78636363636363,
                "pitch": 57,
                "velocity": 64,
                "duration": 0.3477272727272691,
                "tempo": 120.0
            },
            {
                "start_time": 109.78863636363636,
                "end_time": 110.04318181818181,
                "pitch": 57,
                "velocity": 64,
                "duration": 0.2545454545454504,
                "tempo": 120.0
            },
            {
                "start_time": 110.04318181818181,
                "end_time": 110.16363636363636,
                "pitch": 57,
                "velocity": 64,
                "duration": 0.12045454545454959,
                "tempo": 120.0
            },
            {
                "start_time": 110.16363636363636,
                "end_time": 110.39999999999999,
                "pitch": 55,
                "velocity": 64,
                "duration": 0.23636363636363455,
                "tempo": 120.0
            },
            {
                "start_time": 110.39999999999999,
                "end_time": 110.77045454545454,
                "pitch": 57,
                "velocity": 64,
                "duration": 0.3704545454545496,
                "tempo": 120.0
            },
            {
                "start_time": 110.77045454545454,
                "end_time": 111.00454545454545,
                "pitch": 57,
                "velocity": 64,
                "duration": 0.23409090909090935,
                "tempo": 120.0
            },
            {
                "start_time": 111.00454545454545,
                "end_time": 111.13863636363635,
                "pitch": 57,
                "velocity": 64,
                "duration": 0.13409090909090082,
                "tempo": 120.0
            },
            {
                "start_time": 111.14090909090909,
                "end_time": 111.37727272727273,
                "pitch": 55,
                "velocity": 64,
                "duration": 0.23636363636363455,
                "tempo": 120.0
            },
            {
                "start_time": 111.37727272727273,
                "end_time": 111.75,
                "pitch": 57,
                "velocity": 64,
                "duration": 0.3727272727272748,
                "tempo": 120.0
            },
            {
                "start_time": 111.75,
                "end_time": 111.97954545454544,
                "pitch": 57,
                "velocity": 64,
                "duration": 0.22954545454544473,
                "tempo": 120.0
            },
            {
                "start_time": 111.97954545454544,
                "end_time": 112.09545454545454,
                "pitch": 57,
                "velocity": 64,
                "duration": 0.11590909090909918,
                "tempo": 120.0
            },
            {
                "start_time": 112.09545454545454,
                "end_time": 112.34545454545454,
                "pitch": 55,
                "velocity": 64,
                "duration": 0.25,
                "tempo": 120.0
            },
            {
                "start_time": 112.34545454545454,
                "end_time": 112.69999999999999,
                "pitch": 57,
                "velocity": 64,
                "duration": 0.3545454545454447,
                "tempo": 120.0
            },
            {
                "start_time": 112.69999999999999,
                "end_time": 112.95227272727273,
                "pitch": 57,
                "velocity": 64,
                "duration": 0.2522727272727394,
                "tempo": 120.0
            },
            {
                "start_time": 112.95227272727273,
                "end_time": 113.07045454545454,
                "pitch": 57,
                "velocity": 64,
                "duration": 0.11818181818181017,
                "tempo": 120.0
            },
            {
                "start_time": 113.07045454545454,
                "end_time": 113.3090909090909,
                "pitch": 55,
                "velocity": 64,
                "duration": 0.23863636363635976,
                "tempo": 120.0
            },
            {
                "start_time": 113.3090909090909,
                "end_time": 113.6840909090909,
                "pitch": 57,
                "velocity": 64,
                "duration": 0.375,
                "tempo": 120.0
            },
            {
                "start_time": 113.6840909090909,
                "end_time": 113.91818181818181,
                "pitch": 57,
                "velocity": 64,
                "duration": 0.23409090909090935,
                "tempo": 120.0
            },
            {
                "start_time": 113.91818181818181,
                "end_time": 114.03636363636363,
                "pitch": 57,
                "velocity": 64,
                "duration": 0.11818181818182438,
                "tempo": 120.0
            },
            {
                "start_time": 114.03636363636363,
                "end_time": 114.2840909090909,
                "pitch": 55,
                "velocity": 64,
                "duration": 0.2477272727272748,
                "tempo": 120.0
            },
            {
                "start_time": 114.2840909090909,
                "end_time": 114.63181818181818,
                "pitch": 57,
                "velocity": 64,
                "duration": 0.3477272727272691,
                "tempo": 120.0
            },
            {
                "start_time": 114.63181818181818,
                "end_time": 114.88181818181818,
                "pitch": 57,
                "velocity": 64,
                "duration": 0.25,
                "tempo": 120.0
            },
            {
                "start_time": 114.88181818181818,
                "end_time": 115.00227272727273,
                "pitch": 57,
                "velocity": 64,
                "duration": 0.12045454545454959,
                "tempo": 120.0
            },
            {
                "start_time": 115.00227272727273,
                "end_time": 115.23409090909091,
                "pitch": 55,
                "velocity": 64,
                "duration": 0.23181818181818414,
                "tempo": 120.0
            },
            {
                "start_time": 115.23409090909091,
                "end_time": 115.60454545454544,
                "pitch": 57,
                "velocity": 64,
                "duration": 0.3704545454545354,
                "tempo": 120.0
            },
            {
                "start_time": 115.60454545454544,
                "end_time": 115.84318181818182,
                "pitch": 57,
                "velocity": 64,
                "duration": 0.23863636363637397,
                "tempo": 120.0
            },
            {
                "start_time": 115.84318181818182,
                "end_time": 115.98409090909091,
                "pitch": 57,
                "velocity": 64,
                "duration": 0.14090909090909065,
                "tempo": 120.0
            },
            {
                "start_time": 116.21363636363635,
                "end_time": 116.57954545454545,
                "pitch": 57,
                "velocity": 64,
                "duration": 0.3659090909090992,
                "tempo": 120.0
            },
            {
                "start_time": 116.57954545454545,
                "end_time": 116.8090909090909,
                "pitch": 57,
                "velocity": 64,
                "duration": 0.22954545454544473,
                "tempo": 120.0
            },
            {
                "start_time": 116.8090909090909,
                "end_time": 116.925,
                "pitch": 57,
                "velocity": 64,
                "duration": 0.11590909090909918,
                "tempo": 120.0
            },
            {
                "start_time": 116.925,
                "end_time": 117.175,
                "pitch": 55,
                "velocity": 64,
                "duration": 0.25,
                "tempo": 120.0
            },
            {
                "start_time": 117.17727272727272,
                "end_time": 117.52954545454544,
                "pitch": 57,
                "velocity": 64,
                "duration": 0.3522727272727195,
                "tempo": 120.0
            },
            {
                "start_time": 117.52954545454544,
                "end_time": 117.78181818181818,
                "pitch": 57,
                "velocity": 64,
                "duration": 0.2522727272727394,
                "tempo": 120.0
            },
            {
                "start_time": 117.78181818181818,
                "end_time": 117.89999999999999,
                "pitch": 57,
                "velocity": 64,
                "duration": 0.11818181818181017,
                "tempo": 120.0
            },
            {
                "start_time": 117.89999999999999,
                "end_time": 118.13863636363635,
                "pitch": 55,
                "velocity": 64,
                "duration": 0.23863636363635976,
                "tempo": 120.0
            },
            {
                "start_time": 118.13863636363635,
                "end_time": 118.51363636363635,
                "pitch": 57,
                "velocity": 64,
                "duration": 0.375,
                "tempo": 120.0
            },
            {
                "start_time": 118.51363636363635,
                "end_time": 118.74772727272726,
                "pitch": 57,
                "velocity": 64,
                "duration": 0.23409090909090935,
                "tempo": 120.0
            },
            {
                "start_time": 118.74772727272726,
                "end_time": 118.86818181818181,
                "pitch": 57,
                "velocity": 64,
                "duration": 0.12045454545454959,
                "tempo": 120.0
            },
            {
                "start_time": 118.86818181818181,
                "end_time": 119.11136363636363,
                "pitch": 55,
                "velocity": 64,
                "duration": 0.24318181818182438,
                "tempo": 120.0
            },
            {
                "start_time": 119.11363636363636,
                "end_time": 119.46136363636363,
                "pitch": 57,
                "velocity": 64,
                "duration": 0.3477272727272691,
                "tempo": 120.0
            },
            {
                "start_time": 119.46136363636363,
                "end_time": 119.71136363636363,
                "pitch": 57,
                "velocity": 64,
                "duration": 0.25,
                "tempo": 120.0
            },
            {
                "start_time": 119.71363636363635,
                "end_time": 119.83181818181818,
                "pitch": 57,
                "velocity": 64,
                "duration": 0.11818181818182438,
                "tempo": 120.0
            },
            {
                "start_time": 119.83181818181818,
                "end_time": 120.07045454545454,
                "pitch": 55,
                "velocity": 64,
                "duration": 0.23863636363635976,
                "tempo": 120.0
            },
            {
                "start_time": 120.07045454545454,
                "end_time": 120.44318181818181,
                "pitch": 57,
                "velocity": 64,
                "duration": 0.3727272727272748,
                "tempo": 120.0
            },
            {
                "start_time": 120.44545454545454,
                "end_time": 120.67954545454545,
                "pitch": 57,
                "velocity": 64,
                "duration": 0.23409090909090935,
                "tempo": 120.0
            },
            {
                "start_time": 120.67954545454545,
                "end_time": 120.81590909090909,
                "pitch": 57,
                "velocity": 64,
                "duration": 0.13636363636364024,
                "tempo": 120.0
            },
            {
                "start_time": 120.81590909090909,
                "end_time": 121.05227272727272,
                "pitch": 55,
                "velocity": 64,
                "duration": 0.23636363636363455,
                "tempo": 120.0
            },
            {
                "start_time": 121.05227272727272,
                "end_time": 121.42045454545453,
                "pitch": 57,
                "velocity": 64,
                "duration": 0.36818181818181017,
                "tempo": 120.0
            },
            {
                "start_time": 121.42045454545453,
                "end_time": 121.64545454545454,
                "pitch": 57,
                "velocity": 64,
                "duration": 0.22500000000000853,
                "tempo": 120.0
            },
            {
                "start_time": 121.64545454545454,
                "end_time": 121.7590909090909,
                "pitch": 57,
                "velocity": 64,
                "duration": 0.11363636363635976,
                "tempo": 120.0
            },
            {
                "start_time": 121.7590909090909,
                "end_time": 122.01363636363635,
                "pitch": 55,
                "velocity": 64,
                "duration": 0.2545454545454504,
                "tempo": 120.0
            },
            {
                "start_time": 122.01363636363635,
                "end_time": 122.37272727272726,
                "pitch": 57,
                "velocity": 64,
                "duration": 0.35909090909090935,
                "tempo": 120.0
            },
            {
                "start_time": 122.37272727272726,
                "end_time": 122.62272727272726,
                "pitch": 57,
                "velocity": 64,
                "duration": 0.25,
                "tempo": 120.0
            },
            {
                "start_time": 122.62272727272726,
                "end_time": 122.74318181818181,
                "pitch": 57,
                "velocity": 64,
                "duration": 0.12045454545454959,
                "tempo": 120.0
            },
            {
                "start_time": 122.74318181818181,
                "end_time": 122.97954545454544,
                "pitch": 55,
                "velocity": 64,
                "duration": 0.23636363636363455,
                "tempo": 120.0
            },
            {
                "start_time": 122.97954545454544,
                "end_time": 123.35454545454544,
                "pitch": 57,
                "velocity": 64,
                "duration": 0.375,
                "tempo": 120.0
            },
            {
                "start_time": 123.35454545454544,
                "end_time": 123.59090909090908,
                "pitch": 57,
                "velocity": 64,
                "duration": 0.23636363636363455,
                "tempo": 120.0
            },
            {
                "start_time": 123.59090909090908,
                "end_time": 123.7090909090909,
                "pitch": 57,
                "velocity": 64,
                "duration": 0.11818181818182438,
                "tempo": 120.0
            },
            {
                "start_time": 123.7090909090909,
                "end_time": 123.95454545454545,
                "pitch": 55,
                "velocity": 64,
                "duration": 0.2454545454545496,
                "tempo": 120.0
            },
            {
                "start_time": 123.95454545454545,
                "end_time": 124.30227272727272,
                "pitch": 57,
                "velocity": 64,
                "duration": 0.3477272727272691,
                "tempo": 120.0
            },
            {
                "start_time": 124.30227272727272,
                "end_time": 124.55454545454545,
                "pitch": 57,
                "velocity": 64,
                "duration": 0.2522727272727252,
                "tempo": 120.0
            },
            {
                "start_time": 124.55454545454545,
                "end_time": 124.67272727272727,
                "pitch": 57,
                "velocity": 64,
                "duration": 0.11818181818182438,
                "tempo": 120.0
            },
            {
                "start_time": 124.675,
                "end_time": 124.91136363636363,
                "pitch": 55,
                "velocity": 64,
                "duration": 0.23636363636363455,
                "tempo": 120.0
            },
            {
                "start_time": 124.91136363636363,
                "end_time": 125.28636363636363,
                "pitch": 57,
                "velocity": 64,
                "duration": 0.375,
                "tempo": 120.0
            },
            {
                "start_time": 125.28636363636363,
                "end_time": 125.52045454545454,
                "pitch": 57,
                "velocity": 64,
                "duration": 0.23409090909090935,
                "tempo": 120.0
            },
            {
                "start_time": 125.52045454545454,
                "end_time": 125.65681818181818,
                "pitch": 57,
                "velocity": 64,
                "duration": 0.13636363636364024,
                "tempo": 120.0
            },
            {
                "start_time": 125.65681818181818,
                "end_time": 125.88863636363635,
                "pitch": 55,
                "velocity": 64,
                "duration": 0.23181818181816993,
                "tempo": 120.0
            },
            {
                "start_time": 125.88863636363635,
                "end_time": 126.25454545454545,
                "pitch": 57,
                "velocity": 64,
                "duration": 0.3659090909090992,
                "tempo": 120.0
            },
            {
                "start_time": 126.25454545454545,
                "end_time": 126.48409090909091,
                "pitch": 57,
                "velocity": 64,
                "duration": 0.22954545454545894,
                "tempo": 120.0
            },
            {
                "start_time": 126.48409090909091,
                "end_time": 126.6,
                "pitch": 57,
                "velocity": 64,
                "duration": 0.11590909090908497,
                "tempo": 120.0
            },
            {
                "start_time": 126.6,
                "end_time": 126.85454545454544,
                "pitch": 55,
                "velocity": 64,
                "duration": 0.2545454545454504,
                "tempo": 120.0
            },
            {
                "start_time": 126.85454545454544,
                "end_time": 127.21363636363635,
                "pitch": 57,
                "velocity": 64,
                "duration": 0.35909090909090935,
                "tempo": 120.0
            },
            {
                "start_time": 127.21363636363635,
                "end_time": 127.46363636363635,
                "pitch": 57,
                "velocity": 64,
                "duration": 0.25,
                "tempo": 120.0
            },
            {
                "start_time": 127.46590909090908,
                "end_time": 127.5840909090909,
                "pitch": 57,
                "velocity": 64,
                "duration": 0.11818181818182438,
                "tempo": 120.0
            },
            {
                "start_time": 127.5840909090909,
                "end_time": 127.81590909090909,
                "pitch": 55,
                "velocity": 64,
                "duration": 0.23181818181818414,
                "tempo": 120.0
            },
            {
                "start_time": 127.81590909090909,
                "end_time": 128.1840909090909,
                "pitch": 57,
                "velocity": 64,
                "duration": 0.3681818181818244,
                "tempo": 120.0
            },
            {
                "start_time": 128.1840909090909,
                "end_time": 128.42045454545453,
                "pitch": 57,
                "velocity": 64,
                "duration": 0.23636363636362034,
                "tempo": 120.0
            },
            {
                "start_time": 128.42045454545453,
                "end_time": 128.53863636363636,
                "pitch": 57,
                "velocity": 64,
                "duration": 0.11818181818182438,
                "tempo": 120.0
            },
            {
                "start_time": 128.53863636363636,
                "end_time": 128.7840909090909,
                "pitch": 55,
                "velocity": 64,
                "duration": 0.2454545454545496,
                "tempo": 120.0
            },
            {
                "start_time": 128.7840909090909,
                "end_time": 129.1340909090909,
                "pitch": 57,
                "velocity": 64,
                "duration": 0.3499999999999943,
                "tempo": 120.0
            },
            {
                "start_time": 129.1340909090909,
                "end_time": 129.38863636363635,
                "pitch": 57,
                "velocity": 64,
                "duration": 0.2545454545454504,
                "tempo": 120.0
            },
            {
                "start_time": 129.38863636363635,
                "end_time": 129.51136363636363,
                "pitch": 57,
                "velocity": 64,
                "duration": 0.1227272727272748,
                "tempo": 120.0
            },
            {
                "start_time": 129.51136363636363,
                "end_time": 129.74545454545455,
                "pitch": 55,
                "velocity": 64,
                "duration": 0.23409090909092356,
                "tempo": 120.0
            },
            {
                "start_time": 129.74545454545455,
                "end_time": 130.11363636363635,
                "pitch": 57,
                "velocity": 64,
                "duration": 0.36818181818179596,
                "tempo": 120.0
            },
            {
                "start_time": 130.11590909090907,
                "end_time": 130.34772727272727,
                "pitch": 57,
                "velocity": 64,
                "duration": 0.23181818181819835,
                "tempo": 120.0
            },
            {
                "start_time": 130.34772727272727,
                "end_time": 130.48181818181817,
                "pitch": 57,
                "velocity": 64,
                "duration": 0.13409090909090082,
                "tempo": 120.0
            },
            {
                "start_time": 130.4840909090909,
                "end_time": 130.72045454545454,
                "pitch": 55,
                "velocity": 64,
                "duration": 0.23636363636364877,
                "tempo": 120.0
            },
            {
                "start_time": 130.72045454545454,
                "end_time": 131.0909090909091,
                "pitch": 57,
                "velocity": 64,
                "duration": 0.3704545454545496,
                "tempo": 120.0
            },
            {
                "start_time": 131.0909090909091,
                "end_time": 131.32045454545454,
                "pitch": 57,
                "velocity": 64,
                "duration": 0.22954545454544473,
                "tempo": 120.0
            },
            {
                "start_time": 131.32045454545454,
                "end_time": 135.79090909090908,
                "pitch": 57,
                "velocity": 64,
                "duration": 4.470454545454544,
                "tempo": 120.0
            },
            {
                "start_time": 135.79090909090908,
                "end_time": 136.1431818181818,
                "pitch": 57,
                "velocity": 40,
                "duration": 0.3522727272727195,
                "tempo": 120.0
            },
            {
                "start_time": 136.1431818181818,
                "end_time": 136.37272727272727,
                "pitch": 57,
                "velocity": 40,
                "duration": 0.22954545454547315,
                "tempo": 120.0
            },
            {
                "start_time": 136.375,
                "end_time": 136.51136363636363,
                "pitch": 57,
                "velocity": 40,
                "duration": 0.13636363636362603,
                "tempo": 120.0
            },
            {
                "start_time": 136.51136363636363,
                "end_time": 136.75,
                "pitch": 67,
                "velocity": 40,
                "duration": 0.23863636363637397,
                "tempo": 120.0
            },
            {
                "start_time": 136.75,
                "end_time": 137.11818181818182,
                "pitch": 69,
                "velocity": 40,
                "duration": 0.3681818181818244,
                "tempo": 120.0
            },
            {
                "start_time": 137.11818181818182,
                "end_time": 137.35227272727272,
                "pitch": 69,
                "velocity": 40,
                "duration": 0.23409090909089514,
                "tempo": 120.0
            },
            {
                "start_time": 137.35454545454544,
                "end_time": 137.475,
                "pitch": 69,
                "velocity": 40,
                "duration": 0.12045454545454959,
                "tempo": 120.0
            },
            {
                "start_time": 137.475,
                "end_time": 137.72954545454544,
                "pitch": 67,
                "velocity": 40,
                "duration": 0.2545454545454504,
                "tempo": 120.0
            },
            {
                "start_time": 137.72954545454544,
                "end_time": 138.08181818181816,
                "pitch": 69,
                "velocity": 40,
                "duration": 0.3522727272727195,
                "tempo": 120.0
            },
            {
                "start_time": 138.08181818181816,
                "end_time": 138.3272727272727,
                "pitch": 69,
                "velocity": 40,
                "duration": 0.2454545454545496,
                "tempo": 120.0
            },
            {
                "start_time": 138.3272727272727,
                "end_time": 138.44545454545454,
                "pitch": 69,
                "velocity": 40,
                "duration": 0.11818181818182438,
                "tempo": 120.0
            },
            {
                "start_time": 138.44545454545454,
                "end_time": 138.67272727272726,
                "pitch": 67,
                "velocity": 40,
                "duration": 0.22727272727271952,
                "tempo": 120.0
            },
            {
                "start_time": 138.67499999999998,
                "end_time": 139.0431818181818,
                "pitch": 69,
                "velocity": 40,
                "duration": 0.3681818181818244,
                "tempo": 120.0
            },
            {
                "start_time": 139.04545454545453,
                "end_time": 139.27954545454546,
                "pitch": 69,
                "velocity": 40,
                "duration": 0.23409090909092356,
                "tempo": 120.0
            },
            {
                "start_time": 139.27954545454546,
                "end_time": 139.4,
                "pitch": 69,
                "velocity": 40,
                "duration": 0.12045454545454959,
                "tempo": 120.0
            },
            {
                "start_time": 139.40227272727273,
                "end_time": 139.65681818181818,
                "pitch": 67,
                "velocity": 40,
                "duration": 0.2545454545454504,
                "tempo": 120.0
            },
            {
                "start_time": 139.65681818181818,
                "end_time": 140.01136363636363,
                "pitch": 69,
                "velocity": 40,
                "duration": 0.3545454545454447,
                "tempo": 120.0
            },
            {
                "start_time": 140.01136363636363,
                "end_time": 140.26363636363635,
                "pitch": 69,
                "velocity": 40,
                "duration": 0.2522727272727252,
                "tempo": 120.0
            },
            {
                "start_time": 140.26363636363635,
                "end_time": 140.38636363636363,
                "pitch": 69,
                "velocity": 40,
                "duration": 0.1227272727272748,
                "tempo": 120.0
            },
            {
                "start_time": 140.38636363636363,
                "end_time": 140.62272727272727,
                "pitch": 67,
                "velocity": 40,
                "duration": 0.23636363636364877,
                "tempo": 120.0
            },
            {
                "start_time": 140.62272727272727,
                "end_time": 140.97727272727272,
                "pitch": 69,
                "velocity": 40,
                "duration": 0.3545454545454447,
                "tempo": 120.0
            },
            {
                "start_time": 140.97727272727272,
                "end_time": 141.20681818181816,
                "pitch": 69,
                "velocity": 40,
                "duration": 0.22954545454544473,
                "tempo": 120.0
            },
            {
                "start_time": 141.20681818181816,
                "end_time": 141.34545454545454,
                "pitch": 69,
                "velocity": 40,
                "duration": 0.13863636363637966,
                "tempo": 120.0
            },
            {
                "start_time": 141.34545454545454,
                "end_time": 141.5840909090909,
                "pitch": 67,
                "velocity": 40,
                "duration": 0.23863636363634555,
                "tempo": 120.0
            },
            {
                "start_time": 141.5840909090909,
                "end_time": 141.9522727272727,
                "pitch": 69,
                "velocity": 40,
                "duration": 0.3681818181818244,
                "tempo": 120.0
            },
            {
                "start_time": 141.9522727272727,
                "end_time": 142.18636363636364,
                "pitch": 69,
                "velocity": 40,
                "duration": 0.23409090909092356,
                "tempo": 120.0
            },
            {
                "start_time": 142.18636363636364,
                "end_time": 142.3090909090909,
                "pitch": 69,
                "velocity": 40,
                "duration": 0.1227272727272748,
                "tempo": 120.0
            },
            {
                "start_time": 142.3090909090909,
                "end_time": 142.56363636363636,
                "pitch": 67,
                "velocity": 40,
                "duration": 0.2545454545454504,
                "tempo": 120.0
            },
            {
                "start_time": 142.56363636363636,
                "end_time": 142.91590909090908,
                "pitch": 69,
                "velocity": 40,
                "duration": 0.3522727272727195,
                "tempo": 120.0
            },
            {
                "start_time": 142.91590909090908,
                "end_time": 147.38636363636363,
                "pitch": 69,
                "velocity": 40,
                "duration": 4.470454545454544,
                "tempo": 120.0
            },
            {
                "start_time": 147.38636363636363,
                "end_time": 147.73636363636362,
                "pitch": 69,
                "velocity": 40,
                "duration": 0.3499999999999943,
                "tempo": 120.0
            },
            {
                "start_time": 147.73636363636362,
                "end_time": 147.9840909090909,
                "pitch": 69,
                "velocity": 40,
                "duration": 0.2477272727272748,
                "tempo": 120.0
            },
            {
                "start_time": 147.9840909090909,
                "end_time": 148.1,
                "pitch": 69,
                "velocity": 40,
                "duration": 0.11590909090909918,
                "tempo": 120.0
            },
            {
                "start_time": 148.1,
                "end_time": 148.32954545454544,
                "pitch": 67,
                "velocity": 40,
                "duration": 0.22954545454544473,
                "tempo": 120.0
            },
            {
                "start_time": 148.32954545454544,
                "end_time": 148.69772727272726,
                "pitch": 69,
                "velocity": 40,
                "duration": 0.3681818181818244,
                "tempo": 120.0
            },
            {
                "start_time": 148.69772727272726,
                "end_time": 148.9318181818182,
                "pitch": 69,
                "velocity": 40,
                "duration": 0.23409090909092356,
                "tempo": 120.0
            },
            {
                "start_time": 148.9318181818182,
                "end_time": 149.05454545454543,
                "pitch": 69,
                "velocity": 40,
                "duration": 0.12272727272724637,
                "tempo": 120.0
            },
            {
                "start_time": 149.05454545454543,
                "end_time": 149.3090909090909,
                "pitch": 67,
                "velocity": 40,
                "duration": 0.25454545454547883,
                "tempo": 120.0
            },
            {
                "start_time": 149.3090909090909,
                "end_time": 149.6590909090909,
                "pitch": 69,
                "velocity": 40,
                "duration": 0.3499999999999943,
                "tempo": 120.0
            },
            {
                "start_time": 149.6590909090909,
                "end_time": 149.91136363636363,
                "pitch": 69,
                "velocity": 40,
                "duration": 0.2522727272727252,
                "tempo": 120.0
            },
            {
                "start_time": 149.91136363636363,
                "end_time": 150.0340909090909,
                "pitch": 69,
                "velocity": 40,
                "duration": 0.1227272727272748,
                "tempo": 120.0
            },
            {
                "start_time": 150.0340909090909,
                "end_time": 150.27045454545453,
                "pitch": 67,
                "velocity": 40,
                "duration": 0.23636363636362034,
                "tempo": 120.0
            },
            {
                "start_time": 150.27045454545453,
                "end_time": 150.625,
                "pitch": 69,
                "velocity": 40,
                "duration": 0.35454545454547315,
                "tempo": 120.0
            },
            {
                "start_time": 150.625,
                "end_time": 150.85454545454544,
                "pitch": 69,
                "velocity": 40,
                "duration": 0.22954545454544473,
                "tempo": 120.0
            },
            {
                "start_time": 150.85681818181817,
                "end_time": 150.99318181818182,
                "pitch": 69,
                "velocity": 40,
                "duration": 0.13636363636365445,
                "tempo": 120.0
            },
            {
                "start_time": 150.99318181818182,
                "end_time": 151.23181818181817,
                "pitch": 67,
                "velocity": 40,
                "duration": 0.23863636363634555,
                "tempo": 120.0
            },
            {
                "start_time": 151.23181818181817,
                "end_time": 151.60227272727272,
                "pitch": 69,
                "velocity": 40,
                "duration": 0.3704545454545496,
                "tempo": 120.0
            },
            {
                "start_time": 151.60227272727272,
                "end_time": 151.83863636363637,
                "pitch": 69,
                "velocity": 40,
                "duration": 0.23636363636364877,
                "tempo": 120.0
            },
            {
                "start_time": 151.83863636363637,
                "end_time": 151.96136363636364,
                "pitch": 69,
                "velocity": 40,
                "duration": 0.1227272727272748,
                "tempo": 120.0
            },
            {
                "start_time": 151.96136363636364,
                "end_time": 152.2159090909091,
                "pitch": 67,
                "velocity": 40,
                "duration": 0.2545454545454504,
                "tempo": 120.0
            },
            {
                "start_time": 152.2159090909091,
                "end_time": 152.57045454545454,
                "pitch": 69,
                "velocity": 40,
                "duration": 0.3545454545454447,
                "tempo": 120.0
            },
            {
                "start_time": 152.57045454545454,
                "end_time": 152.8181818181818,
                "pitch": 69,
                "velocity": 40,
                "duration": 0.2477272727272748,
                "tempo": 120.0
            },
            {
                "start_time": 152.8181818181818,
                "end_time": 152.9340909090909,
                "pitch": 69,
                "velocity": 40,
                "duration": 0.11590909090909918,
                "tempo": 120.0
            },
            {
                "start_time": 152.9340909090909,
                "end_time": 153.16363636363636,
                "pitch": 67,
                "velocity": 40,
                "duration": 0.22954545454544473,
                "tempo": 120.0
            },
            {
                "start_time": 153.16363636363636,
                "end_time": 153.53181818181818,
                "pitch": 69,
                "velocity": 40,
                "duration": 0.3681818181818244,
                "tempo": 120.0
            },
            {
                "start_time": 153.53181818181818,
                "end_time": 153.76590909090908,
                "pitch": 69,
                "velocity": 40,
                "duration": 0.23409090909089514,
                "tempo": 120.0
            },
            {
                "start_time": 153.76590909090908,
                "end_time": 153.88636363636363,
                "pitch": 69,
                "velocity": 40,
                "duration": 0.12045454545454959,
                "tempo": 120.0
            },
            {
                "start_time": 153.88863636363635,
                "end_time": 154.1431818181818,
                "pitch": 67,
                "velocity": 40,
                "duration": 0.2545454545454504,
                "tempo": 120.0
            },
            {
                "start_time": 154.1431818181818,
                "end_time": 154.49318181818182,
                "pitch": 69,
                "velocity": 40,
                "duration": 0.35000000000002274,
                "tempo": 120.0
            }
        ],
        "Violin": [
            {
                "start_time": 30.922727272727272,
                "end_time": 32.84318181818182,
                "pitch": 67,
                "velocity": 80,
                "duration": 1.9204545454545467,
                "tempo": 120.0
            },
            {
                "start_time": 32.84318181818182,
                "end_time": 34.768181818181816,
                "pitch": 66,
                "velocity": 80,
                "duration": 1.9249999999999972,
                "tempo": 120.0
            },
            {
                "start_time": 34.768181818181816,
                "end_time": 42.49318181818182,
                "pitch": 64,
                "velocity": 80,
                "duration": 7.725000000000001,
                "tempo": 120.0
            },
            {
                "start_time": 42.49318181818182,
                "end_time": 44.418181818181814,
                "pitch": 67,
                "velocity": 80,
                "duration": 1.9249999999999972,
                "tempo": 120.0
            },
            {
                "start_time": 44.418181818181814,
                "end_time": 46.361363636363635,
                "pitch": 69,
                "velocity": 80,
                "duration": 1.9431818181818201,
                "tempo": 120.0
            },
            {
                "start_time": 46.361363636363635,
                "end_time": 154.62954545454545,
                "pitch": 69,
                "velocity": 80,
                "duration": 108.26818181818182,
                "tempo": 120.0
            },
            {
                "start_time": 154.62954545454545,
                "end_time": 158.48181818181817,
                "pitch": 57,
                "velocity": 101,
                "duration": 3.8522727272727195,
                "tempo": 120.0
            },
            {
                "start_time": 158.48181818181817,
                "end_time": 164.28636363636363,
                "pitch": 55,
                "velocity": 101,
                "duration": 5.804545454545462,
                "tempo": 120.0
            },
            {
                "start_time": 164.28636363636363,
                "end_time": 170.0659090909091,
                "pitch": 57,
                "velocity": 101,
                "duration": 5.779545454545456,
                "tempo": 120.0
            },
            {
                "start_time": 170.0659090909091,
                "end_time": 173.93863636363636,
                "pitch": 57,
                "velocity": 101,
                "duration": 3.872727272727275,
                "tempo": 120.0
            },
            {
                "start_time": 173.93863636363636,
                "end_time": 179.71818181818182,
                "pitch": 55,
                "velocity": 101,
                "duration": 5.779545454545456,
                "tempo": 120.0
            }
        ],
        "Church Organ": [
            {
                "start_time": 54.074999999999996,
                "end_time": 56.00909090909091,
                "pitch": 67,
                "velocity": 101,
                "duration": 1.9340909090909122,
                "tempo": 120.0
            },
            {
                "start_time": 56.00909090909091,
                "end_time": 57.46363636363636,
                "pitch": 66,
                "velocity": 101,
                "duration": 1.4545454545454533,
                "tempo": 120.0
            },
            {
                "start_time": 57.46363636363636,
                "end_time": 57.58181818181818,
                "pitch": 65,
                "velocity": 101,
                "duration": 0.11818181818181728,
                "tempo": 120.0
            },
            {
                "start_time": 57.58181818181818,
                "end_time": 57.69772727272727,
                "pitch": 64,
                "velocity": 101,
                "duration": 0.11590909090909207,
                "tempo": 120.0
            },
            {
                "start_time": 57.69772727272727,
                "end_time": 57.949999999999996,
                "pitch": 62,
                "velocity": 101,
                "duration": 0.2522727272727252,
                "tempo": 120.0
            },
            {
                "start_time": 57.949999999999996,
                "end_time": 65.67272727272727,
                "pitch": 64,
                "velocity": 101,
                "duration": 7.722727272727276,
                "tempo": 120.0
            },
            {
                "start_time": 65.67272727272727,
                "end_time": 67.60909090909091,
                "pitch": 67,
                "velocity": 101,
                "duration": 1.9363636363636374,
                "tempo": 120.0
            },
            {
                "start_time": 67.60909090909091,
                "end_time": 69.04545454545455,
                "pitch": 69,
                "velocity": 101,
                "duration": 1.4363636363636374,
                "tempo": 120.0
            },
            {
                "start_time": 69.04545454545455,
                "end_time": 69.16363636363636,
                "pitch": 66,
                "velocity": 101,
                "duration": 0.11818181818181017,
                "tempo": 120.0
            },
            {
                "start_time": 69.16363636363636,
                "end_time": 69.28181818181818,
                "pitch": 64,
                "velocity": 101,
                "duration": 0.11818181818182438,
                "tempo": 120.0
            },
            {
                "start_time": 69.28181818181818,
                "end_time": 69.53636363636363,
                "pitch": 62,
                "velocity": 101,
                "duration": 0.2545454545454504,
                "tempo": 120.0
            },
            {
                "start_time": 69.53636363636363,
                "end_time": 77.29318181818181,
                "pitch": 64,
                "velocity": 101,
                "duration": 7.756818181818176,
                "tempo": 120.0
            },
            {
                "start_time": 77.29318181818181,
                "end_time": 79.22272727272727,
                "pitch": 67,
                "velocity": 101,
                "duration": 1.9295454545454618,
                "tempo": 120.0
            },
            {
                "start_time": 79.22272727272727,
                "end_time": 80.6590909090909,
                "pitch": 66,
                "velocity": 101,
                "duration": 1.4363636363636374,
                "tempo": 120.0
            },
            {
                "start_time": 80.6590909090909,
                "end_time": 80.77727272727272,
                "pitch": 65,
                "velocity": 101,
                "duration": 0.11818181818181017,
                "tempo": 120.0
            },
            {
                "start_time": 80.77727272727272,
                "end_time": 80.91363636363636,
                "pitch": 64,
                "velocity": 101,
                "duration": 0.13636363636364024,
                "tempo": 120.0
            },
            {
                "start_time": 80.91363636363636,
                "end_time": 81.14999999999999,
                "pitch": 62,
                "velocity": 101,
                "duration": 0.23636363636363455,
                "tempo": 120.0
            },
            {
                "start_time": 81.14999999999999,
                "end_time": 88.89090909090909,
                "pitch": 64,
                "velocity": 101,
                "duration": 7.740909090909099,
                "tempo": 120.0
            },
            {
                "start_time": 88.89090909090909,
                "end_time": 90.82045454545454,
                "pitch": 67,
                "velocity": 101,
                "duration": 1.9295454545454476,
                "tempo": 120.0
            },
            {
                "start_time": 90.82045454545454,
                "end_time": 92.26818181818182,
                "pitch": 69,
                "velocity": 101,
                "duration": 1.4477272727272776,
                "tempo": 120.0
            },
            {
                "start_time": 92.27045454545454,
                "end_time": 92.40227272727272,
                "pitch": 66,
                "velocity": 101,
                "duration": 0.13181818181817562,
                "tempo": 120.0
            },
            {
                "start_time": 92.40227272727272,
                "end_time": 92.51590909090909,
                "pitch": 64,
                "velocity": 101,
                "duration": 0.11363636363637397,
                "tempo": 120.0
            },
            {
                "start_time": 92.51590909090909,
                "end_time": 92.74772727272727,
                "pitch": 62,
                "velocity": 101,
                "duration": 0.23181818181818414,
                "tempo": 120.0
            },
            {
                "start_time": 92.74772727272727,
                "end_time": 131.43863636363636,
                "pitch": 64,
                "velocity": 101,
                "duration": 38.69090909090909,
                "tempo": 120.0
            },
            {
                "start_time": 131.43863636363636,
                "end_time": 133.36818181818182,
                "pitch": 67,
                "velocity": 101,
                "duration": 1.9295454545454618,
                "tempo": 120.0
            },
            {
                "start_time": 133.36818181818182,
                "end_time": 135.31363636363636,
                "pitch": 66,
                "velocity": 101,
                "duration": 1.9454545454545382,
                "tempo": 120.0
            },
            {
                "start_time": 135.31363636363636,
                "end_time": 143.0340909090909,
                "pitch": 64,
                "velocity": 101,
                "duration": 7.720454545454544,
                "tempo": 120.0
            },
            {
                "start_time": 143.0340909090909,
                "end_time": 144.96363636363637,
                "pitch": 67,
                "velocity": 101,
                "duration": 1.9295454545454618,
                "tempo": 120.0
            },
            {
                "start_time": 144.9659090909091,
                "end_time": 146.8931818181818,
                "pitch": 69,
                "velocity": 101,
                "duration": 1.9272727272727082,
                "tempo": 120.0
            }
        ],
        "Synth Bass 1": [
            {
                "start_time": 15.438636363636363,
                "end_time": 15.918181818181818,
                "pitch": 69,
                "velocity": 101,
                "duration": 0.4795454545454554,
                "tempo": 120.0
            },
            {
                "start_time": 15.918181818181818,
                "end_time": 16.40681818181818,
                "pitch": 69,
                "velocity": 101,
                "duration": 0.4886363636363633,
                "tempo": 120.0
            },
            {
                "start_time": 16.40909090909091,
                "end_time": 16.76590909090909,
                "pitch": 69,
                "velocity": 101,
                "duration": 0.3568181818181806,
                "tempo": 120.0
            },
            {
                "start_time": 16.76590909090909,
                "end_time": 17.136363636363637,
                "pitch": 69,
                "velocity": 101,
                "duration": 0.37045454545454604,
                "tempo": 120.0
            },
            {
                "start_time": 17.136363636363637,
                "end_time": 17.620454545454546,
                "pitch": 67,
                "velocity": 101,
                "duration": 0.48409090909090935,
                "tempo": 120.0
            },
            {
                "start_time": 17.620454545454546,
                "end_time": 17.96818181818182,
                "pitch": 69,
                "velocity": 101,
                "duration": 0.34772727272727266,
                "tempo": 120.0
            },
            {
                "start_time": 17.96818181818182,
                "end_time": 18.33863636363636,
                "pitch": 69,
                "velocity": 101,
                "duration": 0.3704545454545425,
                "tempo": 120.0
            },
            {
                "start_time": 18.33863636363636,
                "end_time": 18.71363636363636,
                "pitch": 69,
                "velocity": 101,
                "duration": 0.375,
                "tempo": 120.0
            },
            {
                "start_time": 18.71363636363636,
                "end_time": 19.06590909090909,
                "pitch": 69,
                "velocity": 101,
                "duration": 0.3522727272727302,
                "tempo": 120.0
            },
            {
                "start_time": 19.06590909090909,
                "end_time": 19.318181818181817,
                "pitch": 67,
                "velocity": 101,
                "duration": 0.2522727272727252,
                "tempo": 120.0
            },
            {
                "start_time": 19.318181818181817,
                "end_time": 19.795454545454543,
                "pitch": 69,
                "velocity": 101,
                "duration": 0.4772727272727266,
                "tempo": 120.0
            },
            {
                "start_time": 19.795454545454543,
                "end_time": 20.261363636363637,
                "pitch": 69,
                "velocity": 101,
                "duration": 0.4659090909090935,
                "tempo": 120.0
            },
            {
                "start_time": 20.261363636363637,
                "end_time": 20.636363636363637,
                "pitch": 69,
                "velocity": 101,
                "duration": 0.375,
                "tempo": 120.0
            },
            {
                "start_time": 20.636363636363637,
                "end_time": 20.99090909090909,
                "pitch": 69,
                "velocity": 101,
                "duration": 0.35454545454545183,
                "tempo": 120.0
            },
            {
                "start_time": 20.99090909090909,
                "end_time": 21.48409090909091,
                "pitch": 67,
                "velocity": 101,
                "duration": 0.49318181818182083,
                "tempo": 120.0
            },
            {
                "start_time": 21.48409090909091,
                "end_time": 21.85909090909091,
                "pitch": 69,
                "velocity": 101,
                "duration": 0.375,
                "tempo": 120.0
            },
            {
                "start_time": 21.85909090909091,
                "end_time": 22.211363636363636,
                "pitch": 69,
                "velocity": 101,
                "duration": 0.3522727272727266,
                "tempo": 120.0
            },
            {
                "start_time": 22.211363636363636,
                "end_time": 22.57272727272727,
                "pitch": 69,
                "velocity": 101,
                "duration": 0.36136363636363455,
                "tempo": 120.0
            },
            {
                "start_time": 22.57272727272727,
                "end_time": 22.936363636363634,
                "pitch": 69,
                "velocity": 101,
                "duration": 0.3636363636363633,
                "tempo": 120.0
            },
            {
                "start_time": 22.936363636363634,
                "end_time": 23.172727272727272,
                "pitch": 67,
                "velocity": 101,
                "duration": 0.2363636363636381,
                "tempo": 120.0
            },
            {
                "start_time": 23.172727272727272,
                "end_time": 23.66590909090909,
                "pitch": 69,
                "velocity": 101,
                "duration": 0.4931818181818173,
                "tempo": 120.0
            },
            {
                "start_time": 23.66590909090909,
                "end_time": 24.15681818181818,
                "pitch": 69,
                "velocity": 101,
                "duration": 0.49090909090909207,
                "tempo": 120.0
            },
            {
                "start_time": 24.15681818181818,
                "end_time": 24.50681818181818,
                "pitch": 69,
                "velocity": 101,
                "duration": 0.34999999999999787,
                "tempo": 120.0
            },
            {
                "start_time": 24.50681818181818,
                "end_time": 24.870454545454542,
                "pitch": 69,
                "velocity": 101,
                "duration": 0.3636363636363633,
                "tempo": 120.0
            },
            {
                "start_time": 24.87272727272727,
                "end_time": 25.35909090909091,
                "pitch": 67,
                "velocity": 101,
                "duration": 0.4863636363636381,
                "tempo": 120.0
            },
            {
                "start_time": 25.35909090909091,
                "end_time": 25.71590909090909,
                "pitch": 69,
                "velocity": 101,
                "duration": 0.3568181818181806,
                "tempo": 120.0
            },
            {
                "start_time": 25.71590909090909,
                "end_time": 26.086363636363636,
                "pitch": 69,
                "velocity": 101,
                "duration": 0.37045454545454604,
                "tempo": 120.0
            },
            {
                "start_time": 26.086363636363636,
                "end_time": 26.438636363636363,
                "pitch": 69,
                "velocity": 101,
                "duration": 0.3522727272727266,
                "tempo": 120.0
            },
            {
                "start_time": 26.438636363636363,
                "end_time": 26.80909090909091,
                "pitch": 69,
                "velocity": 101,
                "duration": 0.37045454545454604,
                "tempo": 120.0
            },
            {
                "start_time": 26.80909090909091,
                "end_time": 27.045454545454543,
                "pitch": 67,
                "velocity": 101,
                "duration": 0.23636363636363455,
                "tempo": 120.0
            },
            {
                "start_time": 27.045454545454543,
                "end_time": 27.520454545454545,
                "pitch": 69,
                "velocity": 101,
                "duration": 0.4750000000000014,
                "tempo": 120.0
            },
            {
                "start_time": 27.520454545454545,
                "end_time": 28.018181818181816,
                "pitch": 69,
                "velocity": 101,
                "duration": 0.49772727272727124,
                "tempo": 120.0
            },
            {
                "start_time": 28.018181818181816,
                "end_time": 28.386363636363637,
                "pitch": 69,
                "velocity": 101,
                "duration": 0.36818181818182083,
                "tempo": 120.0
            },
            {
                "start_time": 28.386363636363637,
                "end_time": 28.738636363636363,
                "pitch": 69,
                "velocity": 101,
                "duration": 0.3522727272727266,
                "tempo": 120.0
            },
            {
                "start_time": 28.738636363636363,
                "end_time": 29.23181818181818,
                "pitch": 67,
                "velocity": 101,
                "duration": 0.4931818181818173,
                "tempo": 120.0
            },
            {
                "start_time": 29.23181818181818,
                "end_time": 29.597727272727273,
                "pitch": 69,
                "velocity": 101,
                "duration": 0.36590909090909207,
                "tempo": 120.0
            },
            {
                "start_time": 29.597727272727273,
                "end_time": 29.936363636363634,
                "pitch": 69,
                "velocity": 101,
                "duration": 0.3386363636363612,
                "tempo": 120.0
            },
            {
                "start_time": 29.936363636363634,
                "end_time": 30.311363636363634,
                "pitch": 69,
                "velocity": 101,
                "duration": 0.375,
                "tempo": 120.0
            },
            {
                "start_time": 30.311363636363634,
                "end_time": 30.66590909090909,
                "pitch": 69,
                "velocity": 101,
                "duration": 0.3545454545454554,
                "tempo": 120.0
            }
        ],
        "Acoustic Bass": [
            {
                "start_time": 77.29090909090908,
                "end_time": 77.64318181818182,
                "pitch": 33,
                "velocity": 101,
                "duration": 0.35227272727273373,
                "tempo": 120.0
            },
            {
                "start_time": 77.64318181818182,
                "end_time": 78.00681818181818,
                "pitch": 33,
                "velocity": 101,
                "duration": 0.36363636363635976,
                "tempo": 120.0
            },
            {
                "start_time": 78.00681818181818,
                "end_time": 78.49318181818181,
                "pitch": 45,
                "velocity": 101,
                "duration": 0.48636363636363455,
                "tempo": 120.0
            },
            {
                "start_time": 78.49318181818181,
                "end_time": 78.73181818181818,
                "pitch": 45,
                "velocity": 101,
                "duration": 0.23863636363637397,
                "tempo": 120.0
            },
            {
                "start_time": 78.73181818181818,
                "end_time": 79.22045454545454,
                "pitch": 43,
                "velocity": 101,
                "duration": 0.48863636363635976,
                "tempo": 120.0
            },
            {
                "start_time": 79.22045454545454,
                "end_time": 79.57045454545454,
                "pitch": 33,
                "velocity": 101,
                "duration": 0.3499999999999943,
                "tempo": 120.0
            },
            {
                "start_time": 79.57045454545454,
                "end_time": 79.94318181818181,
                "pitch": 33,
                "velocity": 101,
                "duration": 0.3727272727272748,
                "tempo": 120.0
            },
            {
                "start_time": 79.94318181818181,
                "end_time": 80.42954545454545,
                "pitch": 45,
                "velocity": 101,
                "duration": 0.48636363636363455,
                "tempo": 120.0
            },
            {
                "start_time": 80.42954545454545,
                "end_time": 80.6590909090909,
                "pitch": 45,
                "velocity": 101,
                "duration": 0.22954545454545894,
                "tempo": 120.0
            },
            {
                "start_time": 80.6590909090909,
                "end_time": 80.77727272727272,
                "pitch": 36,
                "velocity": 101,
                "duration": 0.11818181818181017,
                "tempo": 120.0
            },
            {
                "start_time": 80.77727272727272,
                "end_time": 80.91136363636363,
                "pitch": 38,
                "velocity": 101,
                "duration": 0.13409090909091503,
                "tempo": 120.0
            },
            {
                "start_time": 80.91136363636363,
                "end_time": 81.14772727272727,
                "pitch": 40,
                "velocity": 101,
                "duration": 0.23636363636363455,
                "tempo": 120.0
            },
            {
                "start_time": 81.14772727272727,
                "end_time": 81.52272727272727,
                "pitch": 33,
                "velocity": 101,
                "duration": 0.375,
                "tempo": 120.0
            },
            {
                "start_time": 81.52272727272727,
                "end_time": 81.87272727272727,
                "pitch": 33,
                "velocity": 101,
                "duration": 0.3500000000000085,
                "tempo": 120.0
            },
            {
                "start_time": 81.87272727272727,
                "end_time": 82.35909090909091,
                "pitch": 45,
                "velocity": 101,
                "duration": 0.48636363636363455,
                "tempo": 120.0
            },
            {
                "start_time": 82.35909090909091,
                "end_time": 82.59772727272727,
                "pitch": 45,
                "velocity": 101,
                "duration": 0.23863636363635976,
                "tempo": 120.0
            },
            {
                "start_time": 82.59772727272727,
                "end_time": 83.075,
                "pitch": 43,
                "velocity": 101,
                "duration": 0.47727272727273373,
                "tempo": 120.0
            },
            {
                "start_time": 83.075,
                "end_time": 83.44090909090909,
                "pitch": 33,
                "velocity": 101,
                "duration": 0.36590909090908497,
                "tempo": 120.0
            },
            {
                "start_time": 83.44090909090909,
                "end_time": 83.79318181818181,
                "pitch": 33,
                "velocity": 101,
                "duration": 0.3522727272727195,
                "tempo": 120.0
            },
            {
                "start_time": 83.79318181818181,
                "end_time": 84.28636363636363,
                "pitch": 45,
                "velocity": 101,
                "duration": 0.4931818181818244,
                "tempo": 120.0
            },
            {
                "start_time": 84.28636363636363,
                "end_time": 84.54090909090908,
                "pitch": 45,
                "velocity": 101,
                "duration": 0.2545454545454504,
                "tempo": 120.0
            },
            {
                "start_time": 84.54090909090908,
                "end_time": 84.6590909090909,
                "pitch": 36,
                "velocity": 101,
                "duration": 0.11818181818182438,
                "tempo": 120.0
            },
            {
                "start_time": 84.6590909090909,
                "end_time": 84.77727272727272,
                "pitch": 38,
                "velocity": 101,
                "duration": 0.11818181818181017,
                "tempo": 120.0
            },
            {
                "start_time": 84.77727272727272,
                "end_time": 85.01363636363637,
                "pitch": 40,
                "velocity": 101,
                "duration": 0.23636363636364877,
                "tempo": 120.0
            },
            {
                "start_time": 85.01363636363637,
                "end_time": 85.37272727272727,
                "pitch": 33,
                "velocity": 101,
                "duration": 0.35909090909090935,
                "tempo": 120.0
            },
            {
                "start_time": 85.375,
                "end_time": 85.74090909090908,
                "pitch": 33,
                "velocity": 101,
                "duration": 0.36590909090908497,
                "tempo": 120.0
            },
            {
                "start_time": 85.74090909090908,
                "end_time": 86.2159090909091,
                "pitch": 45,
                "velocity": 101,
                "duration": 0.4750000000000085,
                "tempo": 120.0
            },
            {
                "start_time": 86.2159090909091,
                "end_time": 86.47272727272727,
                "pitch": 45,
                "velocity": 101,
                "duration": 0.2568181818181756,
                "tempo": 120.0
            },
            {
                "start_time": 86.47272727272727,
                "end_time": 86.96136363636363,
                "pitch": 43,
                "velocity": 101,
                "duration": 0.48863636363635976,
                "tempo": 120.0
            },
            {
                "start_time": 86.96136363636363,
                "end_time": 87.31818181818181,
                "pitch": 33,
                "velocity": 101,
                "duration": 0.35681818181818414,
                "tempo": 120.0
            },
            {
                "start_time": 87.31818181818181,
                "end_time": 87.67954545454545,
                "pitch": 33,
                "velocity": 101,
                "duration": 0.36136363636363455,
                "tempo": 120.0
            },
            {
                "start_time": 87.67954545454545,
                "end_time": 88.16136363636363,
                "pitch": 45,
                "velocity": 101,
                "duration": 0.48181818181818414,
                "tempo": 120.0
            },
            {
                "start_time": 88.16136363636363,
                "end_time": 88.39999999999999,
                "pitch": 45,
                "velocity": 101,
                "duration": 0.23863636363635976,
                "tempo": 120.0
            },
            {
                "start_time": 88.39999999999999,
                "end_time": 88.51818181818182,
                "pitch": 36,
                "velocity": 101,
                "duration": 0.11818181818182438,
                "tempo": 120.0
            },
            {
                "start_time": 88.51818181818182,
                "end_time": 88.63636363636363,
                "pitch": 38,
                "velocity": 101,
                "duration": 0.11818181818181017,
                "tempo": 120.0
            },
            {
                "start_time": 88.63636363636363,
                "end_time": 88.88863636363637,
                "pitch": 40,
                "velocity": 101,
                "duration": 0.2522727272727394,
                "tempo": 120.0
            },
            {
                "start_time": 88.88863636363637,
                "end_time": 89.24545454545454,
                "pitch": 33,
                "velocity": 101,
                "duration": 0.35681818181816993,
                "tempo": 120.0
            },
            {
                "start_time": 89.24545454545454,
                "end_time": 89.61818181818181,
                "pitch": 33,
                "velocity": 101,
                "duration": 0.3727272727272748,
                "tempo": 120.0
            },
            {
                "start_time": 89.61818181818181,
                "end_time": 90.1,
                "pitch": 45,
                "velocity": 101,
                "duration": 0.48181818181818414,
                "tempo": 120.0
            },
            {
                "start_time": 90.1,
                "end_time": 90.32954545454545,
                "pitch": 45,
                "velocity": 101,
                "duration": 0.22954545454545894,
                "tempo": 120.0
            },
            {
                "start_time": 90.32954545454545,
                "end_time": 90.81818181818181,
                "pitch": 43,
                "velocity": 101,
                "duration": 0.48863636363635976,
                "tempo": 120.0
            },
            {
                "start_time": 90.82045454545454,
                "end_time": 91.19318181818181,
                "pitch": 33,
                "velocity": 101,
                "duration": 0.3727272727272748,
                "tempo": 120.0
            },
            {
                "start_time": 91.19545454545454,
                "end_time": 91.55,
                "pitch": 33,
                "velocity": 101,
                "duration": 0.35454545454545894,
                "tempo": 120.0
            },
            {
                "start_time": 91.55,
                "end_time": 92.03636363636363,
                "pitch": 45,
                "velocity": 101,
                "duration": 0.48636363636363455,
                "tempo": 120.0
            },
            {
                "start_time": 92.03636363636363,
                "end_time": 92.26818181818182,
                "pitch": 45,
                "velocity": 101,
                "duration": 0.23181818181818414,
                "tempo": 120.0
            },
            {
                "start_time": 92.26818181818182,
                "end_time": 92.39999999999999,
                "pitch": 36,
                "velocity": 101,
                "duration": 0.13181818181817562,
                "tempo": 120.0
            },
            {
                "start_time": 92.39999999999999,
                "end_time": 92.51590909090909,
                "pitch": 38,
                "velocity": 101,
                "duration": 0.11590909090909918,
                "tempo": 120.0
            },
            {
                "start_time": 92.51590909090909,
                "end_time": 92.74772727272727,
                "pitch": 40,
                "velocity": 101,
                "duration": 0.23181818181818414,
                "tempo": 120.0
            },
            {
                "start_time": 92.74772727272727,
                "end_time": 93.12045454545454,
                "pitch": 33,
                "velocity": 101,
                "duration": 0.3727272727272606,
                "tempo": 120.0
            },
            {
                "start_time": 93.12045454545454,
                "end_time": 93.47727272727272,
                "pitch": 33,
                "velocity": 101,
                "duration": 0.35681818181818414,
                "tempo": 120.0
            },
            {
                "start_time": 93.47727272727272,
                "end_time": 93.96363636363635,
                "pitch": 45,
                "velocity": 101,
                "duration": 0.48636363636363455,
                "tempo": 120.0
            },
            {
                "start_time": 93.96363636363635,
                "end_time": 94.21363636363635,
                "pitch": 45,
                "velocity": 101,
                "duration": 0.25,
                "tempo": 120.0
            },
            {
                "start_time": 94.21363636363635,
                "end_time": 94.6840909090909,
                "pitch": 43,
                "velocity": 101,
                "duration": 0.4704545454545439,
                "tempo": 120.0
            },
            {
                "start_time": 94.6840909090909,
                "end_time": 95.04545454545455,
                "pitch": 33,
                "velocity": 101,
                "duration": 0.36136363636364877,
                "tempo": 120.0
            },
            {
                "start_time": 95.04545454545455,
                "end_time": 95.41590909090908,
                "pitch": 33,
                "velocity": 101,
                "duration": 0.3704545454545354,
                "tempo": 120.0
            },
            {
                "start_time": 95.41590909090908,
                "end_time": 95.89090909090909,
                "pitch": 45,
                "velocity": 101,
                "duration": 0.4750000000000085,
                "tempo": 120.0
            },
            {
                "start_time": 95.89090909090909,
                "end_time": 96.13863636363637,
                "pitch": 45,
                "velocity": 101,
                "duration": 0.2477272727272748,
                "tempo": 120.0
            },
            {
                "start_time": 96.14090909090909,
                "end_time": 96.25681818181818,
                "pitch": 36,
                "velocity": 101,
                "duration": 0.11590909090908497,
                "tempo": 120.0
            },
            {
                "start_time": 96.25681818181818,
                "end_time": 96.375,
                "pitch": 38,
                "velocity": 101,
                "duration": 0.11818181818182438,
                "tempo": 120.0
            },
            {
                "start_time": 96.375,
                "end_time": 96.62727272727273,
                "pitch": 40,
                "velocity": 101,
                "duration": 0.2522727272727252,
                "tempo": 120.0
            },
            {
                "start_time": 96.62954545454545,
                "end_time": 96.98636363636363,
                "pitch": 33,
                "velocity": 101,
                "duration": 0.35681818181818414,
                "tempo": 120.0
            },
            {
                "start_time": 96.98636363636363,
                "end_time": 97.35227272727272,
                "pitch": 33,
                "velocity": 101,
                "duration": 0.36590909090908497,
                "tempo": 120.0
            },
            {
                "start_time": 97.35227272727272,
                "end_time": 97.83636363636363,
                "pitch": 45,
                "velocity": 101,
                "duration": 0.48409090909090935,
                "tempo": 120.0
            },
            {
                "start_time": 97.83636363636363,
                "end_time": 98.07045454545454,
                "pitch": 45,
                "velocity": 101,
                "duration": 0.23409090909090935,
                "tempo": 120.0
            },
            {
                "start_time": 98.07045454545454,
                "end_time": 98.5590909090909,
                "pitch": 43,
                "velocity": 101,
                "duration": 0.48863636363635976,
                "tempo": 120.0
            },
            {
                "start_time": 98.5590909090909,
                "end_time": 98.91590909090908,
                "pitch": 33,
                "velocity": 101,
                "duration": 0.35681818181818414,
                "tempo": 120.0
            },
            {
                "start_time": 98.91818181818181,
                "end_time": 99.28863636363636,
                "pitch": 33,
                "velocity": 101,
                "duration": 0.3704545454545496,
                "tempo": 120.0
            },
            {
                "start_time": 99.28863636363636,
                "end_time": 99.77272727272727,
                "pitch": 45,
                "velocity": 101,
                "duration": 0.48409090909090935,
                "tempo": 120.0
            },
            {
                "start_time": 99.77272727272727,
                "end_time": 100.00227272727273,
                "pitch": 45,
                "velocity": 101,
                "duration": 0.22954545454545894,
                "tempo": 120.0
            },
            {
                "start_time": 100.00227272727273,
                "end_time": 100.12045454545454,
                "pitch": 36,
                "velocity": 101,
                "duration": 0.11818181818181017,
                "tempo": 120.0
            },
            {
                "start_time": 100.12045454545454,
                "end_time": 100.25454545454545,
                "pitch": 38,
                "velocity": 101,
                "duration": 0.13409090909091503,
                "tempo": 120.0
            },
            {
                "start_time": 100.25454545454545,
                "end_time": 131.43863636363636,
                "pitch": 40,
                "velocity": 101,
                "duration": 31.184090909090912,
                "tempo": 120.0
            },
            {
                "start_time": 131.43863636363636,
                "end_time": 131.80454545454546,
                "pitch": 33,
                "velocity": 101,
                "duration": 0.3659090909090992,
                "tempo": 120.0
            },
            {
                "start_time": 131.80454545454546,
                "end_time": 132.1590909090909,
                "pitch": 33,
                "velocity": 101,
                "duration": 0.3545454545454447,
                "tempo": 120.0
            },
            {
                "start_time": 132.1590909090909,
                "end_time": 132.65,
                "pitch": 45,
                "velocity": 101,
                "duration": 0.4909090909090992,
                "tempo": 120.0
            },
            {
                "start_time": 132.65,
                "end_time": 132.9,
                "pitch": 45,
                "velocity": 101,
                "duration": 0.25,
                "tempo": 120.0
            },
            {
                "start_time": 132.9,
                "end_time": 133.36818181818182,
                "pitch": 43,
                "velocity": 101,
                "duration": 0.4681818181818187,
                "tempo": 120.0
            },
            {
                "start_time": 133.36818181818182,
                "end_time": 133.72727272727272,
                "pitch": 33,
                "velocity": 101,
                "duration": 0.35909090909089514,
                "tempo": 120.0
            },
            {
                "start_time": 133.72954545454544,
                "end_time": 134.09545454545454,
                "pitch": 33,
                "velocity": 101,
                "duration": 0.3659090909090992,
                "tempo": 120.0
            },
            {
                "start_time": 134.09545454545454,
                "end_time": 134.57045454545454,
                "pitch": 45,
                "velocity": 101,
                "duration": 0.4749999999999943,
                "tempo": 120.0
            },
            {
                "start_time": 134.57045454545454,
                "end_time": 134.8272727272727,
                "pitch": 45,
                "velocity": 101,
                "duration": 0.2568181818181756,
                "tempo": 120.0
            },
            {
                "start_time": 134.8272727272727,
                "end_time": 134.94545454545454,
                "pitch": 36,
                "velocity": 101,
                "duration": 0.11818181818182438,
                "tempo": 120.0
            },
            {
                "start_time": 134.94545454545454,
                "end_time": 135.06136363636364,
                "pitch": 38,
                "velocity": 101,
                "duration": 0.11590909090909918,
                "tempo": 120.0
            },
            {
                "start_time": 135.06136363636364,
                "end_time": 135.31136363636364,
                "pitch": 40,
                "velocity": 101,
                "duration": 0.25,
                "tempo": 120.0
            },
            {
                "start_time": 135.31363636363636,
                "end_time": 135.67045454545453,
                "pitch": 33,
                "velocity": 101,
                "duration": 0.35681818181816993,
                "tempo": 120.0
            },
            {
                "start_time": 135.67045454545453,
                "end_time": 136.02954545454546,
                "pitch": 33,
                "velocity": 101,
                "duration": 0.35909090909092356,
                "tempo": 120.0
            },
            {
                "start_time": 136.03181818181818,
                "end_time": 136.51136363636363,
                "pitch": 45,
                "velocity": 101,
                "duration": 0.4795454545454447,
                "tempo": 120.0
            },
            {
                "start_time": 136.51136363636363,
                "end_time": 136.75,
                "pitch": 45,
                "velocity": 101,
                "duration": 0.23863636363637397,
                "tempo": 120.0
            },
            {
                "start_time": 136.75,
                "end_time": 137.2340909090909,
                "pitch": 43,
                "velocity": 101,
                "duration": 0.48409090909089514,
                "tempo": 120.0
            },
            {
                "start_time": 137.23636363636362,
                "end_time": 137.59318181818182,
                "pitch": 33,
                "velocity": 101,
                "duration": 0.35681818181819835,
                "tempo": 120.0
            },
            {
                "start_time": 137.59318181818182,
                "end_time": 137.96363636363637,
                "pitch": 33,
                "velocity": 101,
                "duration": 0.3704545454545496,
                "tempo": 120.0
            },
            {
                "start_time": 137.96363636363637,
                "end_time": 138.4431818181818,
                "pitch": 45,
                "velocity": 101,
                "duration": 0.4795454545454447,
                "tempo": 120.0
            },
            {
                "start_time": 138.44545454545454,
                "end_time": 138.67272727272726,
                "pitch": 45,
                "velocity": 101,
                "duration": 0.22727272727271952,
                "tempo": 120.0
            },
            {
                "start_time": 138.67272727272726,
                "end_time": 138.7931818181818,
                "pitch": 36,
                "velocity": 101,
                "duration": 0.12045454545454959,
                "tempo": 120.0
            },
            {
                "start_time": 138.7931818181818,
                "end_time": 138.9272727272727,
                "pitch": 38,
                "velocity": 101,
                "duration": 0.13409090909090082,
                "tempo": 120.0
            },
            {
                "start_time": 138.9272727272727,
                "end_time": 139.16363636363636,
                "pitch": 40,
                "velocity": 101,
                "duration": 0.23636363636364877,
                "tempo": 120.0
            },
            {
                "start_time": 139.16363636363636,
                "end_time": 139.53636363636363,
                "pitch": 33,
                "velocity": 101,
                "duration": 0.3727272727272748,
                "tempo": 120.0
            },
            {
                "start_time": 139.53863636363636,
                "end_time": 139.8931818181818,
                "pitch": 33,
                "velocity": 101,
                "duration": 0.3545454545454447,
                "tempo": 120.0
            },
            {
                "start_time": 139.8931818181818,
                "end_time": 140.3840909090909,
                "pitch": 45,
                "velocity": 101,
                "duration": 0.4909090909090992,
                "tempo": 120.0
            },
            {
                "start_time": 140.3840909090909,
                "end_time": 140.62272727272727,
                "pitch": 45,
                "velocity": 101,
                "duration": 0.23863636363637397,
                "tempo": 120.0
            },
            {
                "start_time": 140.62272727272727,
                "end_time": 141.08863636363637,
                "pitch": 43,
                "velocity": 101,
                "duration": 0.4659090909090935,
                "tempo": 120.0
            },
            {
                "start_time": 141.0909090909091,
                "end_time": 141.46363636363637,
                "pitch": 33,
                "velocity": 101,
                "duration": 0.3727272727272748,
                "tempo": 120.0
            },
            {
                "start_time": 141.46363636363637,
                "end_time": 141.8181818181818,
                "pitch": 33,
                "velocity": 101,
                "duration": 0.3545454545454447,
                "tempo": 120.0
            },
            {
                "start_time": 141.8181818181818,
                "end_time": 142.3090909090909,
                "pitch": 45,
                "velocity": 101,
                "duration": 0.4909090909090992,
                "tempo": 120.0
            },
            {
                "start_time": 142.3090909090909,
                "end_time": 142.56363636363636,
                "pitch": 45,
                "velocity": 101,
                "duration": 0.2545454545454504,
                "tempo": 120.0
            },
            {
                "start_time": 142.56363636363636,
                "end_time": 142.6818181818182,
                "pitch": 36,
                "velocity": 101,
                "duration": 0.11818181818182438,
                "tempo": 120.0
            },
            {
                "start_time": 142.6818181818182,
                "end_time": 142.79772727272726,
                "pitch": 38,
                "velocity": 101,
                "duration": 0.11590909090907076,
                "tempo": 120.0
            },
            {
                "start_time": 142.79772727272726,
                "end_time": 143.0340909090909,
                "pitch": 40,
                "velocity": 101,
                "duration": 0.23636363636364877,
                "tempo": 120.0
            },
            {
                "start_time": 143.0340909090909,
                "end_time": 143.3931818181818,
                "pitch": 33,
                "velocity": 101,
                "duration": 0.35909090909089514,
                "tempo": 120.0
            },
            {
                "start_time": 143.3931818181818,
                "end_time": 143.7590909090909,
                "pitch": 33,
                "velocity": 101,
                "duration": 0.3659090909090992,
                "tempo": 120.0
            },
            {
                "start_time": 143.7590909090909,
                "end_time": 144.22954545454544,
                "pitch": 45,
                "velocity": 101,
                "duration": 0.4704545454545439,
                "tempo": 120.0
            },
            {
                "start_time": 144.22954545454544,
                "end_time": 144.47954545454544,
                "pitch": 45,
                "velocity": 101,
                "duration": 0.25,
                "tempo": 120.0
            },
            {
                "start_time": 144.47954545454544,
                "end_time": 144.96363636363637,
                "pitch": 43,
                "velocity": 101,
                "duration": 0.48409090909092356,
                "tempo": 120.0
            },
            {
                "start_time": 144.96363636363637,
                "end_time": 145.32272727272726,
                "pitch": 33,
                "velocity": 101,
                "duration": 0.35909090909089514,
                "tempo": 120.0
            },
            {
                "start_time": 145.32272727272726,
                "end_time": 145.68863636363636,
                "pitch": 33,
                "velocity": 101,
                "duration": 0.3659090909090992,
                "tempo": 120.0
            },
            {
                "start_time": 145.68863636363636,
                "end_time": 146.1681818181818,
                "pitch": 45,
                "velocity": 101,
                "duration": 0.4795454545454447,
                "tempo": 120.0
            },
            {
                "start_time": 146.1681818181818,
                "end_time": 146.40227272727273,
                "pitch": 45,
                "velocity": 101,
                "duration": 0.23409090909092356,
                "tempo": 120.0
            },
            {
                "start_time": 146.40227272727273,
                "end_time": 146.52045454545453,
                "pitch": 36,
                "velocity": 101,
                "duration": 0.11818181818179596,
                "tempo": 120.0
            },
            {
                "start_time": 146.52045454545453,
                "end_time": 146.63863636363635,
                "pitch": 38,
                "velocity": 101,
                "duration": 0.11818181818182438,
                "tempo": 120.0
            },
            {
                "start_time": 146.63863636363635,
                "end_time": 146.89090909090908,
                "pitch": 40,
                "velocity": 101,
                "duration": 0.2522727272727252,
                "tempo": 120.0
            },
            {
                "start_time": 146.89090909090908,
                "end_time": 147.25,
                "pitch": 33,
                "velocity": 101,
                "duration": 0.35909090909092356,
                "tempo": 120.0
            },
            {
                "start_time": 147.25,
                "end_time": 147.62045454545455,
                "pitch": 33,
                "velocity": 101,
                "duration": 0.3704545454545496,
                "tempo": 120.0
            },
            {
                "start_time": 147.62045454545455,
                "end_time": 148.1,
                "pitch": 45,
                "velocity": 101,
                "duration": 0.4795454545454447,
                "tempo": 120.0
            },
            {
                "start_time": 148.1,
                "end_time": 148.32954545454544,
                "pitch": 45,
                "velocity": 101,
                "duration": 0.22954545454544473,
                "tempo": 120.0
            },
            {
                "start_time": 148.32954545454544,
                "end_time": 148.81363636363636,
                "pitch": 43,
                "velocity": 101,
                "duration": 0.48409090909092356,
                "tempo": 120.0
            },
            {
                "start_time": 148.81363636363636,
                "end_time": 149.18863636363636,
                "pitch": 33,
                "velocity": 101,
                "duration": 0.375,
                "tempo": 120.0
            },
            {
                "start_time": 149.18863636363636,
                "end_time": 149.5431818181818,
                "pitch": 33,
                "velocity": 101,
                "duration": 0.3545454545454447,
                "tempo": 120.0
            },
            {
                "start_time": 149.5431818181818,
                "end_time": 150.03181818181818,
                "pitch": 45,
                "velocity": 101,
                "duration": 0.48863636363637397,
                "tempo": 120.0
            },
            {
                "start_time": 150.03181818181818,
                "end_time": 150.27045454545453,
                "pitch": 45,
                "velocity": 101,
                "duration": 0.23863636363634555,
                "tempo": 120.0
            },
            {
                "start_time": 150.27045454545453,
                "end_time": 150.4,
                "pitch": 36,
                "velocity": 101,
                "duration": 0.12954545454547883,
                "tempo": 120.0
            },
            {
                "start_time": 150.4,
                "end_time": 150.51136363636363,
                "pitch": 38,
                "velocity": 101,
                "duration": 0.11136363636362034,
                "tempo": 120.0
            },
            {
                "start_time": 150.51363636363635,
                "end_time": 150.73863636363635,
                "pitch": 40,
                "velocity": 101,
                "duration": 0.22499999999999432,
                "tempo": 120.0
            },
            {
                "start_time": 150.73863636363635,
                "end_time": 151.11136363636362,
                "pitch": 33,
                "velocity": 101,
                "duration": 0.3727272727272748,
                "tempo": 120.0
            },
            {
                "start_time": 151.11363636363635,
                "end_time": 151.46818181818182,
                "pitch": 33,
                "velocity": 101,
                "duration": 0.35454545454547315,
                "tempo": 120.0
            },
            {
                "start_time": 151.46818181818182,
                "end_time": 151.9590909090909,
                "pitch": 45,
                "velocity": 101,
                "duration": 0.49090909090907076,
                "tempo": 120.0
            },
            {
                "start_time": 151.9590909090909,
                "end_time": 152.2159090909091,
                "pitch": 45,
                "velocity": 101,
                "duration": 0.25681818181820404,
                "tempo": 120.0
            },
            {
                "start_time": 152.2159090909091,
                "end_time": 152.68863636363636,
                "pitch": 43,
                "velocity": 101,
                "duration": 0.4727272727272691,
                "tempo": 120.0
            },
            {
                "start_time": 152.68863636363636,
                "end_time": 153.04772727272726,
                "pitch": 33,
                "velocity": 101,
                "duration": 0.35909090909089514,
                "tempo": 120.0
            },
            {
                "start_time": 153.04772727272726,
                "end_time": 153.41363636363636,
                "pitch": 33,
                "velocity": 101,
                "duration": 0.3659090909090992,
                "tempo": 120.0
            },
            {
                "start_time": 153.41363636363636,
                "end_time": 153.88636363636363,
                "pitch": 45,
                "velocity": 101,
                "duration": 0.4727272727272691,
                "tempo": 120.0
            },
            {
                "start_time": 153.88636363636363,
                "end_time": 154.1431818181818,
                "pitch": 45,
                "velocity": 101,
                "duration": 0.2568181818181756,
                "tempo": 120.0
            },
            {
                "start_time": 154.1431818181818,
                "end_time": 154.26136363636363,
                "pitch": 36,
                "velocity": 101,
                "duration": 0.11818181818182438,
                "tempo": 120.0
            },
            {
                "start_time": 154.26136363636363,
                "end_time": 154.37727272727273,
                "pitch": 38,
                "velocity": 101,
                "duration": 0.11590909090909918,
                "tempo": 120.0
            },
            {
                "start_time": 154.37727272727273,
                "end_time": 154.62954545454545,
                "pitch": 40,
                "velocity": 101,
                "duration": 0.2522727272727252,
                "tempo": 120.0
            },
            {
                "start_time": 154.62954545454545,
                "end_time": 154.86363636363635,
                "pitch": 33,
                "velocity": 80,
                "duration": 0.23409090909089514,
                "tempo": 120.0
            },
            {
                "start_time": 154.86363636363635,
                "end_time": 155.1,
                "pitch": 33,
                "velocity": 80,
                "duration": 0.23636363636364877,
                "tempo": 120.0
            },
            {
                "start_time": 155.1,
                "end_time": 155.34545454545454,
                "pitch": 45,
                "velocity": 80,
                "duration": 0.2454545454545496,
                "tempo": 120.0
            },
            {
                "start_time": 155.34545454545454,
                "end_time": 155.4590909090909,
                "pitch": 33,
                "velocity": 80,
                "duration": 0.11363636363634555,
                "tempo": 120.0
            },
            {
                "start_time": 155.4590909090909,
                "end_time": 155.6931818181818,
                "pitch": 45,
                "velocity": 80,
                "duration": 0.23409090909092356,
                "tempo": 120.0
            },
            {
                "start_time": 155.6931818181818,
                "end_time": 155.83181818181816,
                "pitch": 33,
                "velocity": 80,
                "duration": 0.13863636363635123,
                "tempo": 120.0
            },
            {
                "start_time": 155.83181818181816,
                "end_time": 156.07045454545454,
                "pitch": 45,
                "velocity": 80,
                "duration": 0.23863636363637397,
                "tempo": 120.0
            },
            {
                "start_time": 156.07045454545454,
                "end_time": 156.3068181818182,
                "pitch": 33,
                "velocity": 80,
                "duration": 0.23636363636364877,
                "tempo": 120.0
            },
            {
                "start_time": 156.3068181818182,
                "end_time": 156.5568181818182,
                "pitch": 45,
                "velocity": 80,
                "duration": 0.25,
                "tempo": 120.0
            },
            {
                "start_time": 156.5568181818182,
                "end_time": 156.79090909090908,
                "pitch": 30,
                "velocity": 80,
                "duration": 0.23409090909089514,
                "tempo": 120.0
            },
            {
                "start_time": 156.7931818181818,
                "end_time": 157.04090909090908,
                "pitch": 30,
                "velocity": 80,
                "duration": 0.2477272727272748,
                "tempo": 120.0
            },
            {
                "start_time": 157.04090909090908,
                "end_time": 157.28181818181818,
                "pitch": 42,
                "velocity": 80,
                "duration": 0.24090909090909918,
                "tempo": 120.0
            },
            {
                "start_time": 157.28181818181818,
                "end_time": 157.4,
                "pitch": 30,
                "velocity": 80,
                "duration": 0.11818181818182438,
                "tempo": 120.0
            },
            {
                "start_time": 157.4,
                "end_time": 157.65,
                "pitch": 42,
                "velocity": 80,
                "duration": 0.25,
                "tempo": 120.0
            },
            {
                "start_time": 157.65227272727273,
                "end_time": 157.7681818181818,
                "pitch": 30,
                "velocity": 80,
                "duration": 0.11590909090907076,
                "tempo": 120.0
            },
            {
                "start_time": 157.7681818181818,
                "end_time": 157.99772727272727,
                "pitch": 42,
                "velocity": 80,
                "duration": 0.22954545454547315,
                "tempo": 120.0
            },
            {
                "start_time": 157.99772727272727,
                "end_time": 158.24772727272727,
                "pitch": 30,
                "velocity": 80,
                "duration": 0.25,
                "tempo": 120.0
            },
            {
                "start_time": 158.24772727272727,
                "end_time": 158.48181818181817,
                "pitch": 30,
                "velocity": 80,
                "duration": 0.23409090909089514,
                "tempo": 120.0
            },
            {
                "start_time": 158.48181818181817,
                "end_time": 158.71363636363637,
                "pitch": 31,
                "velocity": 80,
                "duration": 0.23181818181819835,
                "tempo": 120.0
            },
            {
                "start_time": 158.71363636363637,
                "end_time": 158.9659090909091,
                "pitch": 31,
                "velocity": 80,
                "duration": 0.2522727272727252,
                "tempo": 120.0
            },
            {
                "start_time": 158.9659090909091,
                "end_time": 159.20454545454544,
                "pitch": 43,
                "velocity": 80,
                "duration": 0.23863636363634555,
                "tempo": 120.0
            },
            {
                "start_time": 159.20454545454544,
                "end_time": 159.32272727272726,
                "pitch": 31,
                "velocity": 80,
                "duration": 0.11818181818182438,
                "tempo": 120.0
            },
            {
                "start_time": 159.32272727272726,
                "end_time": 159.5772727272727,
                "pitch": 43,
                "velocity": 80,
                "duration": 0.2545454545454504,
                "tempo": 120.0
            },
            {
                "start_time": 159.5772727272727,
                "end_time": 159.69545454545454,
                "pitch": 31,
                "velocity": 80,
                "duration": 0.11818181818182438,
                "tempo": 120.0
            },
            {
                "start_time": 159.69772727272726,
                "end_time": 159.9318181818182,
                "pitch": 43,
                "velocity": 80,
                "duration": 0.23409090909092356,
                "tempo": 120.0
            },
            {
                "start_time": 159.9318181818182,
                "end_time": 160.1772727272727,
                "pitch": 31,
                "velocity": 80,
                "duration": 0.24545454545452117,
                "tempo": 120.0
            },
            {
                "start_time": 160.17954545454543,
                "end_time": 160.40681818181818,
                "pitch": 43,
                "velocity": 80,
                "duration": 0.22727272727274794,
                "tempo": 120.0
            },
            {
                "start_time": 160.40681818181818,
                "end_time": 160.6590909090909,
                "pitch": 33,
                "velocity": 80,
                "duration": 0.2522727272727252,
                "tempo": 120.0
            },
            {
                "start_time": 160.6590909090909,
                "end_time": 160.89090909090908,
                "pitch": 33,
                "velocity": 80,
                "duration": 0.23181818181816993,
                "tempo": 120.0
            },
            {
                "start_time": 160.89090909090908,
                "end_time": 161.13181818181818,
                "pitch": 45,
                "velocity": 80,
                "duration": 0.24090909090909918,
                "tempo": 120.0
            },
            {
                "start_time": 161.13181818181818,
                "end_time": 161.26590909090908,
                "pitch": 33,
                "velocity": 80,
                "duration": 0.13409090909090082,
                "tempo": 120.0
            },
            {
                "start_time": 161.26590909090908,
                "end_time": 161.50227272727273,
                "pitch": 45,
                "velocity": 80,
                "duration": 0.23636363636364877,
                "tempo": 120.0
            },
            {
                "start_time": 161.50227272727273,
                "end_time": 161.62045454545455,
                "pitch": 33,
                "velocity": 80,
                "duration": 0.11818181818182438,
                "tempo": 120.0
            },
            {
                "start_time": 161.62272727272727,
                "end_time": 161.87045454545455,
                "pitch": 45,
                "velocity": 80,
                "duration": 0.2477272727272748,
                "tempo": 120.0
            },
            {
                "start_time": 161.87272727272727,
                "end_time": 162.10454545454544,
                "pitch": 33,
                "velocity": 80,
                "duration": 0.23181818181816993,
                "tempo": 120.0
            },
            {
                "start_time": 162.10454545454544,
                "end_time": 162.3409090909091,
                "pitch": 33,
                "velocity": 80,
                "duration": 0.23636363636364877,
                "tempo": 120.0
            },
            {
                "start_time": 162.3409090909091,
                "end_time": 162.5840909090909,
                "pitch": 33,
                "velocity": 80,
                "duration": 0.24318181818179596,
                "tempo": 120.0
            },
            {
                "start_time": 162.5840909090909,
                "end_time": 162.8159090909091,
                "pitch": 33,
                "velocity": 80,
                "duration": 0.23181818181819835,
                "tempo": 120.0
            },
            {
                "start_time": 162.8159090909091,
                "end_time": 163.0681818181818,
                "pitch": 45,
                "velocity": 80,
                "duration": 0.2522727272727252,
                "tempo": 120.0
            },
            {
                "start_time": 163.0681818181818,
                "end_time": 163.1840909090909,
                "pitch": 33,
                "velocity": 80,
                "duration": 0.11590909090909918,
                "tempo": 120.0
            },
            {
                "start_time": 163.1840909090909,
                "end_time": 163.42045454545453,
                "pitch": 45,
                "velocity": 80,
                "duration": 0.23636363636362034,
                "tempo": 120.0
            },
            {
                "start_time": 163.42045454545453,
                "end_time": 163.5431818181818,
                "pitch": 33,
                "velocity": 80,
                "duration": 0.1227272727272748,
                "tempo": 120.0
            },
            {
                "start_time": 163.5431818181818,
                "end_time": 163.79772727272726,
                "pitch": 45,
                "velocity": 80,
                "duration": 0.2545454545454504,
                "tempo": 120.0
            },
            {
                "start_time": 163.79772727272726,
                "end_time": 164.0340909090909,
                "pitch": 33,
                "velocity": 80,
                "duration": 0.23636363636364877,
                "tempo": 120.0
            },
            {
                "start_time": 164.0340909090909,
                "end_time": 164.28636363636363,
                "pitch": 45,
                "velocity": 80,
                "duration": 0.2522727272727252,
                "tempo": 120.0
            },
            {
                "start_time": 164.28636363636363,
                "end_time": 164.52045454545453,
                "pitch": 30,
                "velocity": 80,
                "duration": 0.23409090909089514,
                "tempo": 120.0
            },
            {
                "start_time": 164.52045454545453,
                "end_time": 164.75454545454545,
                "pitch": 30,
                "velocity": 80,
                "duration": 0.23409090909092356,
                "tempo": 120.0
            },
            {
                "start_time": 164.75454545454545,
                "end_time": 165.0,
                "pitch": 42,
                "velocity": 80,
                "duration": 0.2454545454545496,
                "tempo": 120.0
            },
            {
                "start_time": 165.0,
                "end_time": 165.11363636363635,
                "pitch": 30,
                "velocity": 80,
                "duration": 0.11363636363634555,
                "tempo": 120.0
            },
            {
                "start_time": 165.11363636363635,
                "end_time": 165.34772727272727,
                "pitch": 42,
                "velocity": 80,
                "duration": 0.23409090909092356,
                "tempo": 120.0
            },
            {
                "start_time": 165.34772727272727,
                "end_time": 165.48636363636362,
                "pitch": 30,
                "velocity": 80,
                "duration": 0.13863636363635123,
                "tempo": 120.0
            },
            {
                "start_time": 165.48636363636362,
                "end_time": 165.725,
                "pitch": 42,
                "velocity": 80,
                "duration": 0.23863636363637397,
                "tempo": 120.0
            },
            {
                "start_time": 165.725,
                "end_time": 165.9590909090909,
                "pitch": 30,
                "velocity": 80,
                "duration": 0.23409090909089514,
                "tempo": 120.0
            },
            {
                "start_time": 165.9590909090909,
                "end_time": 166.2090909090909,
                "pitch": 30,
                "velocity": 80,
                "duration": 0.25,
                "tempo": 120.0
            },
            {
                "start_time": 166.2090909090909,
                "end_time": 166.44545454545454,
                "pitch": 31,
                "velocity": 80,
                "duration": 0.23636363636364877,
                "tempo": 120.0
            },
            {
                "start_time": 166.44545454545454,
                "end_time": 166.69772727272726,
                "pitch": 31,
                "velocity": 80,
                "duration": 0.2522727272727252,
                "tempo": 120.0
            },
            {
                "start_time": 166.69772727272726,
                "end_time": 166.93636363636364,
                "pitch": 43,
                "velocity": 80,
                "duration": 0.23863636363637397,
                "tempo": 120.0
            },
            {
                "start_time": 166.93636363636364,
                "end_time": 167.05454545454543,
                "pitch": 31,
                "velocity": 80,
                "duration": 0.11818181818179596,
                "tempo": 120.0
            },
            {
                "start_time": 167.05454545454543,
                "end_time": 167.3068181818182,
                "pitch": 43,
                "velocity": 80,
                "duration": 0.2522727272727536,
                "tempo": 120.0
            },
            {
                "start_time": 167.3068181818182,
                "end_time": 167.42272727272726,
                "pitch": 31,
                "velocity": 80,
                "duration": 0.11590909090907076,
                "tempo": 120.0
            },
            {
                "start_time": 167.42272727272726,
                "end_time": 167.65227272727273,
                "pitch": 43,
                "velocity": 80,
                "duration": 0.22954545454547315,
                "tempo": 120.0
            },
            {
                "start_time": 167.65227272727273,
                "end_time": 167.90454545454546,
                "pitch": 31,
                "velocity": 80,
                "duration": 0.2522727272727252,
                "tempo": 120.0
            },
            {
                "start_time": 167.90454545454546,
                "end_time": 168.13863636363635,
                "pitch": 43,
                "velocity": 80,
                "duration": 0.23409090909089514,
                "tempo": 120.0
            },
            {
                "start_time": 168.13863636363635,
                "end_time": 168.375,
                "pitch": 33,
                "velocity": 80,
                "duration": 0.23636363636364877,
                "tempo": 120.0
            },
            {
                "start_time": 168.375,
                "end_time": 168.625,
                "pitch": 33,
                "velocity": 80,
                "duration": 0.25,
                "tempo": 120.0
            },
            {
                "start_time": 168.625,
                "end_time": 168.86363636363635,
                "pitch": 45,
                "velocity": 80,
                "duration": 0.23863636363634555,
                "tempo": 120.0
            },
            {
                "start_time": 168.86363636363635,
                "end_time": 168.98181818181817,
                "pitch": 33,
                "velocity": 80,
                "duration": 0.11818181818182438,
                "tempo": 120.0
            },
            {
                "start_time": 168.98181818181817,
                "end_time": 169.23636363636362,
                "pitch": 45,
                "velocity": 80,
                "duration": 0.2545454545454504,
                "tempo": 120.0
            },
            {
                "start_time": 169.23636363636362,
                "end_time": 169.35454545454544,
                "pitch": 33,
                "velocity": 80,
                "duration": 0.11818181818182438,
                "tempo": 120.0
            },
            {
                "start_time": 169.35454545454544,
                "end_time": 169.58636363636361,
                "pitch": 45,
                "velocity": 80,
                "duration": 0.23181818181816993,
                "tempo": 120.0
            },
            {
                "start_time": 169.58636363636361,
                "end_time": 169.8340909090909,
                "pitch": 33,
                "velocity": 80,
                "duration": 0.2477272727272748,
                "tempo": 120.0
            },
            {
                "start_time": 169.8340909090909,
                "end_time": 170.0659090909091,
                "pitch": 33,
                "velocity": 80,
                "duration": 0.23181818181819835,
                "tempo": 120.0
            },
            {
                "start_time": 170.0659090909091,
                "end_time": 170.31363636363636,
                "pitch": 33,
                "velocity": 80,
                "duration": 0.2477272727272748,
                "tempo": 120.0
            },
            {
                "start_time": 170.31363636363636,
                "end_time": 170.54772727272726,
                "pitch": 33,
                "velocity": 80,
                "duration": 0.23409090909089514,
                "tempo": 120.0
            },
            {
                "start_time": 170.54772727272726,
                "end_time": 170.78636363636363,
                "pitch": 45,
                "velocity": 80,
                "duration": 0.23863636363637397,
                "tempo": 120.0
            },
            {
                "start_time": 170.78636363636363,
                "end_time": 170.92272727272726,
                "pitch": 33,
                "velocity": 80,
                "duration": 0.13636363636362603,
                "tempo": 120.0
            },
            {
                "start_time": 170.92272727272726,
                "end_time": 171.1590909090909,
                "pitch": 45,
                "velocity": 80,
                "duration": 0.23636363636364877,
                "tempo": 120.0
            },
            {
                "start_time": 171.1590909090909,
                "end_time": 171.27727272727273,
                "pitch": 33,
                "velocity": 80,
                "duration": 0.11818181818182438,
                "tempo": 120.0
            },
            {
                "start_time": 171.27727272727273,
                "end_time": 171.52727272727273,
                "pitch": 45,
                "velocity": 80,
                "duration": 0.25,
                "tempo": 120.0
            },
            {
                "start_time": 171.52727272727273,
                "end_time": 171.76363636363635,
                "pitch": 33,
                "velocity": 80,
                "duration": 0.23636363636362034,
                "tempo": 120.0
            },
            {
                "start_time": 171.76363636363635,
                "end_time": 171.99772727272727,
                "pitch": 45,
                "velocity": 80,
                "duration": 0.23409090909092356,
                "tempo": 120.0
            },
            {
                "start_time": 171.99772727272727,
                "end_time": 172.24545454545455,
                "pitch": 30,
                "velocity": 80,
                "duration": 0.2477272727272748,
                "tempo": 120.0
            },
            {
                "start_time": 172.24545454545455,
                "end_time": 172.475,
                "pitch": 30,
                "velocity": 80,
                "duration": 0.22954545454544473,
                "tempo": 120.0
            },
            {
                "start_time": 172.475,
                "end_time": 172.73181818181817,
                "pitch": 42,
                "velocity": 80,
                "duration": 0.2568181818181756,
                "tempo": 120.0
            },
            {
                "start_time": 172.73181818181817,
                "end_time": 172.85,
                "pitch": 30,
                "velocity": 80,
                "duration": 0.11818181818182438,
                "tempo": 120.0
            },
            {
                "start_time": 172.85,
                "end_time": 173.08636363636361,
                "pitch": 42,
                "velocity": 80,
                "duration": 0.23636363636362034,
                "tempo": 120.0
            },
            {
                "start_time": 173.08636363636361,
                "end_time": 173.20454545454544,
                "pitch": 30,
                "velocity": 80,
                "duration": 0.11818181818182438,
                "tempo": 120.0
            },
            {
                "start_time": 173.20454545454544,
                "end_time": 173.45454545454544,
                "pitch": 42,
                "velocity": 80,
                "duration": 0.25,
                "tempo": 120.0
            },
            {
                "start_time": 173.45454545454544,
                "end_time": 173.68863636363636,
                "pitch": 30,
                "velocity": 80,
                "duration": 0.23409090909092356,
                "tempo": 120.0
            },
            {
                "start_time": 173.68863636363636,
                "end_time": 173.93636363636364,
                "pitch": 30,
                "velocity": 80,
                "duration": 0.2477272727272748,
                "tempo": 120.0
            },
            {
                "start_time": 173.93863636363636,
                "end_time": 174.1772727272727,
                "pitch": 31,
                "velocity": 80,
                "duration": 0.23863636363634555,
                "tempo": 120.0
            },
            {
                "start_time": 174.1772727272727,
                "end_time": 174.41590909090908,
                "pitch": 31,
                "velocity": 80,
                "duration": 0.23863636363637397,
                "tempo": 120.0
            },
            {
                "start_time": 174.41590909090908,
                "end_time": 174.66363636363636,
                "pitch": 43,
                "velocity": 80,
                "duration": 0.2477272727272748,
                "tempo": 120.0
            },
            {
                "start_time": 174.66363636363636,
                "end_time": 174.77727272727273,
                "pitch": 31,
                "velocity": 80,
                "duration": 0.11363636363637397,
                "tempo": 120.0
            },
            {
                "start_time": 174.77727272727273,
                "end_time": 175.0090909090909,
                "pitch": 43,
                "velocity": 80,
                "duration": 0.23181818181816993,
                "tempo": 120.0
            },
            {
                "start_time": 175.0090909090909,
                "end_time": 175.1431818181818,
                "pitch": 31,
                "velocity": 80,
                "duration": 0.13409090909090082,
                "tempo": 120.0
            },
            {
                "start_time": 175.1431818181818,
                "end_time": 175.37727272727273,
                "pitch": 43,
                "velocity": 80,
                "duration": 0.23409090909092356,
                "tempo": 120.0
            },
            {
                "start_time": 175.37727272727273,
                "end_time": 175.61136363636362,
                "pitch": 31,
                "velocity": 80,
                "duration": 0.23409090909089514,
                "tempo": 120.0
            },
            {
                "start_time": 175.61363636363635,
                "end_time": 175.86363636363635,
                "pitch": 43,
                "velocity": 80,
                "duration": 0.25,
                "tempo": 120.0
            },
            {
                "start_time": 175.86363636363635,
                "end_time": 176.10454545454544,
                "pitch": 33,
                "velocity": 80,
                "duration": 0.24090909090909918,
                "tempo": 120.0
            },
            {
                "start_time": 176.10454545454544,
                "end_time": 176.3590909090909,
                "pitch": 33,
                "velocity": 80,
                "duration": 0.2545454545454504,
                "tempo": 120.0
            },
            {
                "start_time": 176.36136363636362,
                "end_time": 176.59545454545454,
                "pitch": 45,
                "velocity": 80,
                "duration": 0.23409090909092356,
                "tempo": 120.0
            },
            {
                "start_time": 176.59545454545454,
                "end_time": 176.71136363636361,
                "pitch": 33,
                "velocity": 80,
                "duration": 0.11590909090907076,
                "tempo": 120.0
            },
            {
                "start_time": 176.71363636363637,
                "end_time": 176.96136363636361,
                "pitch": 45,
                "velocity": 80,
                "duration": 0.24772727272724637,
                "tempo": 120.0
            },
            {
                "start_time": 176.96136363636361,
                "end_time": 177.0772727272727,
                "pitch": 33,
                "velocity": 80,
                "duration": 0.11590909090909918,
                "tempo": 120.0
            },
            {
                "start_time": 177.0772727272727,
                "end_time": 177.3068181818182,
                "pitch": 45,
                "velocity": 80,
                "duration": 0.22954545454547315,
                "tempo": 120.0
            },
            {
                "start_time": 177.3068181818182,
                "end_time": 177.5590909090909,
                "pitch": 33,
                "velocity": 80,
                "duration": 0.2522727272727252,
                "tempo": 120.0
            },
            {
                "start_time": 177.5590909090909,
                "end_time": 177.7931818181818,
                "pitch": 33,
                "velocity": 80,
                "duration": 0.23409090909089514,
                "tempo": 120.0
            },
            {
                "start_time": 177.7931818181818,
                "end_time": 178.02954545454546,
                "pitch": 33,
                "velocity": 80,
                "duration": 0.23636363636364877,
                "tempo": 120.0
            },
            {
                "start_time": 178.03181818181818,
                "end_time": 178.28863636363636,
                "pitch": 33,
                "velocity": 80,
                "duration": 0.2568181818181756,
                "tempo": 120.0
            },
            {
                "start_time": 178.28863636363636,
                "end_time": 178.52045454545453,
                "pitch": 45,
                "velocity": 80,
                "duration": 0.23181818181816993,
                "tempo": 120.0
            },
            {
                "start_time": 178.52045454545453,
                "end_time": 178.63636363636363,
                "pitch": 33,
                "velocity": 80,
                "duration": 0.11590909090909918,
                "tempo": 120.0
            },
            {
                "start_time": 178.63636363636363,
                "end_time": 178.88863636363635,
                "pitch": 45,
                "velocity": 80,
                "duration": 0.2522727272727252,
                "tempo": 120.0
            },
            {
                "start_time": 178.88863636363635,
                "end_time": 179.00681818181818,
                "pitch": 33,
                "velocity": 80,
                "duration": 0.11818181818182438,
                "tempo": 120.0
            },
            {
                "start_time": 179.00681818181818,
                "end_time": 179.2431818181818,
                "pitch": 45,
                "velocity": 80,
                "duration": 0.23636363636362034,
                "tempo": 120.0
            },
            {
                "start_time": 179.2431818181818,
                "end_time": 179.48863636363635,
                "pitch": 33,
                "velocity": 80,
                "duration": 0.2454545454545496,
                "tempo": 120.0
            },
            {
                "start_time": 179.48863636363635,
                "end_time": 179.71818181818182,
                "pitch": 45,
                "velocity": 80,
                "duration": 0.22954545454547315,
                "tempo": 120.0
            },
            {
                "start_time": 179.71818181818182,
                "end_time": 179.96818181818182,
                "pitch": 30,
                "velocity": 80,
                "duration": 0.25,
                "tempo": 120.0
            }
        ]
    }
}