{
    "track_id": "01 Sample 1",
    "mood": "happy",
    "instruments": {
        "Violin": [
            {
                "start_time": 16.070454545454545,
                "end_time": 17.675,
                "pitch": 65,
                "velocity": 64,
                "duration": 1.6045454545454554,
                "tempo": 120.0
            },
            {
                "start_time": 17.675,
                "end_time": 19.277272727272727,
                "pitch": 67,
                "velocity": 64,
                "duration": 1.6022727272727266,
                "tempo": 120.0
            },
            {
                "start_time": 19.277272727272727,
                "end_time": 20.884090909090908,
                "pitch": 65,
                "velocity": 64,
                "duration": 1.6068181818181806,
                "tempo": 120.0
            },
            {
                "start_time": 20.884090909090908,
                "end_time": 22.488636363636363,
                "pitch": 67,
                "velocity": 64,
                "duration": 1.6045454545454554,
                "tempo": 120.0
            },
            {
                "start_time": 22.488636363636363,
                "end_time": 25.69772727272727,
                "pitch": 69,
                "velocity": 64,
                "duration": 3.209090909090907,
                "tempo": 120.0
            }
        ],
        "Acoustic Guitar (nylon)": [
            {
                "start_time": 3.2136363636363634,
                "end_time": 3.3136363636363635,
                "pitch": 62,
                "velocity": 64,
                "duration": 0.10000000000000009,
                "tempo": 120.0
            },
            {
                "start_time": 3.3136363636363635,
                "end_time": 3.4136363636363636,
                "pitch": 62,
                "velocity": 64,
                "duration": 0.10000000000000009,
                "tempo": 120.0
            },
            {
                "start_time": 3.5136363636363637,
                "end_time": 3.6136363636363633,
                "pitch": 62,
                "velocity": 64,
                "duration": 0.09999999999999964,
                "tempo": 120.0
            },
            {
                "start_time": 4.013636363636364,
                "end_time": 4.113636363636363,
                "pitch": 60,
                "velocity": 64,
                "duration": 0.09999999999999964,
                "tempo": 120.0
            },
            {
                "start_time": 4.113636363636363,
                "end_time": 4.213636363636364,
                "pitch": 61,
                "velocity": 64,
                "duration": 0.10000000000000053,
                "tempo": 120.0
            },
            {
                "start_time": 4.3136363636363635,
                "end_time": 4.413636363636363,
                "pitch": 62,
                "velocity": 64,
                "duration": 0.09999999999999964,
                "tempo": 120.0
            },
            {
                "start_time": 4.8159090909090905,
                "end_time": 4.915909090909091,
                "pitch": 62,
                "velocity": 64,
                "duration": 0.10000000000000053,
                "tempo": 120.0
            },
            {
                "start_time": 4.915909090909091,
                "end_time": 5.015909090909091,
                "pitch": 62,
                "velocity": 64,
                "duration": 0.09999999999999964,
                "tempo": 120.0
            },
            {
                "start_time": 5.11590909090909,
                "end_time": 5.215909090909091,
                "pitch": 62,
                "velocity": 64,
                "duration": 0.10000000000000053,
                "tempo": 120.0
            },
            {
                "start_time": 5.618181818181818,
                "end_time": 5.720454545454545,
                "pitch": 65,
                "velocity": 64,
                "duration": 0.10227272727272663,
                "tempo": 120.0
            },
            {
                "start_time": 5.720454545454545,
                "end_time": 5.820454545454545,
                "pitch": 67,
                "velocity": 64,
                "duration": 0.10000000000000053,
                "tempo": 120.0
            },
            {
                "start_time": 5.920454545454545,
                "end_time": 6.0227272727272725,
                "pitch": 65,
                "velocity": 64,
                "duration": 0.10227272727272751,
                "tempo": 120.0
            },
            {
                "start_time": 6.422727272727273,
                "end_time": 6.5227272727272725,
                "pitch": 62,
                "velocity": 64,
                "duration": 0.09999999999999964,
                "tempo": 120.0
            },
            {
                "start_time": 6.5227272727272725,
                "end_time": 6.622727272727272,
                "pitch": 62,
                "velocity": 64,
                "duration": 0.09999999999999964,
                "tempo": 120.0
            },
            {
                "start_time": 6.725,
                "end_time": 7.125,
                "pitch": 62,
                "velocity": 64,
                "duration": 0.40000000000000036,
                "tempo": 120.0
            },
            {
                "start_time": 7.125,
                "end_time": 7.225,
                "pitch": 61,
                "velocity": 64,
                "duration": 0.09999999999999964,
                "tempo": 120.0
            },
            {
                "start_time": 7.225,
                "end_time": 7.324999999999999,
                "pitch": 60,
                "velocity": 64,
                "duration": 0.09999999999999964,
                "tempo": 120.0
            },
            {
                "start_time": 7.425,
                "end_time": 7.527272727272727,
                "pitch": 62,
                "velocity": 64,
                "duration": 0.10227272727272751,
                "tempo": 120.0
            },
            {
                "start_time": 7.929545454545454,
                "end_time": 8.029545454545454,
                "pitch": 62,
                "velocity": 64,
                "duration": 0.10000000000000053,
                "tempo": 120.0
            },
            {
                "start_time": 8.029545454545454,
                "end_time": 8.129545454545454,
                "pitch": 62,
                "velocity": 64,
                "duration": 0.09999999999999964,
                "tempo": 120.0
            },
            {
                "start_time": 8.229545454545454,
                "end_time": 8.329545454545453,
                "pitch": 62,
                "velocity": 64,
                "duration": 0.09999999999999964,
                "tempo": 120.0
            },
            {
                "start_time": 8.73181818181818,
                "end_time": 8.831818181818182,
                "pitch": 65,
                "velocity": 64,
                "duration": 0.10000000000000142,
                "tempo": 120.0
            },
            {
                "start_time": 8.831818181818182,
                "end_time": 8.934090909090909,
                "pitch": 67,
                "velocity": 64,
                "duration": 0.10227272727272663,
                "tempo": 120.0
            },
            {
                "start_time": 9.034090909090908,
                "end_time": 9.134090909090908,
                "pitch": 65,
                "velocity": 64,
                "duration": 0.09999999999999964,
                "tempo": 120.0
            },
            {
                "start_time": 9.536363636363635,
                "end_time": 9.638636363636364,
                "pitch": 62,
                "velocity": 64,
                "duration": 0.1022727272727284,
                "tempo": 120.0
            },
            {
                "start_time": 9.638636363636364,
                "end_time": 9.738636363636363,
                "pitch": 62,
                "velocity": 64,
                "duration": 0.09999999999999964,
                "tempo": 120.0
            },
            {
                "start_time": 9.838636363636363,
                "end_time": 9.938636363636363,
                "pitch": 62,
                "velocity": 64,
                "duration": 0.09999999999999964,
                "tempo": 120.0
            },
            {
                "start_time": 10.34090909090909,
                "end_time": 10.44090909090909,
                "pitch": 60,
                "velocity": 64,
                "duration": 0.09999999999999964,
                "tempo": 120.0
            },
            {
                "start_time": 10.44090909090909,
                "end_time": 10.540909090909091,
                "pitch": 61,
                "velocity": 64,
                "duration": 0.10000000000000142,
                "tempo": 120.0
            },
            {
                "start_time": 10.643181818181818,
                "end_time": 10.743181818181817,
                "pitch": 62,
                "velocity": 64,
                "duration": 0.09999999999999964,
                "tempo": 120.0
            },
            {
                "start_time": 11.145454545454545,
                "end_time": 11.245454545454544,
                "pitch": 62,
                "velocity": 64,
                "duration": 0.09999999999999964,
                "tempo": 120.0
            },
            {
                "start_time": 11.245454545454544,
                "end_time": 11.347727272727273,
                "pitch": 62,
                "velocity": 64,
                "duration": 0.1022727272727284,
                "tempo": 120.0
            },
            {
                "start_time": 11.447727272727272,
                "end_time": 11.547727272727272,
                "pitch": 62,
                "velocity": 64,
                "duration": 0.09999999999999964,
                "tempo": 120.0
            },
            {
                "start_time": 11.947727272727272,
                "end_time": 12.047727272727272,
                "pitch": 65,
                "velocity": 64,
                "duration": 0.09999999999999964,
                "tempo": 120.0
            },
            {
                "start_time": 12.047727272727272,
                "end_time": 12.149999999999999,
                "pitch": 67,
                "velocity": 64,
                "duration": 0.10227272727272663,
                "tempo": 120.0
            },
            {
                "start_time": 12.25,
                "end_time": 12.35,
                "pitch": 65,
                "velocity": 64,
                "duration": 0.09999999999999964,
                "tempo": 120.0
            },
            {
                "start_time": 12.754545454545454,
                "end_time": 12.854545454545454,
                "pitch": 62,
                "velocity": 64,
                "duration": 0.09999999999999964,
                "tempo": 120.0
            },
            {
                "start_time": 12.854545454545454,
                "end_time": 12.954545454545453,
                "pitch": 62,
                "velocity": 64,
                "duration": 0.09999999999999964,
                "tempo": 120.0
            },
            {
                "start_time": 13.054545454545455,
                "end_time": 13.156818181818181,
                "pitch": 62,
                "velocity": 64,
                "duration": 0.10227272727272663,
                "tempo": 120.0
            },
            {
                "start_time": 13.559090909090909,
                "end_time": 13.659090909090908,
                "pitch": 61,
                "velocity": 64,
                "duration": 0.09999999999999964,
                "tempo": 120.0
            },
            {
                "start_time": 13.659090909090908,
                "end_time": 13.759090909090908,
                "pitch": 60,
                "velocity": 64,
                "duration": 0.09999999999999964,
                "tempo": 120.0
            },
            {
                "start_time": 13.859090909090908,
                "end_time": 13.959090909090909,
                "pitch": 62,
                "velocity": 64,
                "duration": 0.10000000000000142,
                "tempo": 120.0
            },
            {
                "start_time": 14.361363636363636,
                "end_time": 14.461363636363636,
                "pitch": 62,
                "velocity": 64,
                "duration": 0.09999999999999964,
                "tempo": 120.0
            },
            {
                "start_time": 14.461363636363636,
                "end_time": 14.563636363636363,
                "pitch": 62,
                "velocity": 64,
                "duration": 0.10227272727272663,
                "tempo": 120.0
            },
            {
                "start_time": 14.663636363636362,
                "end_time": 14.763636363636364,
                "pitch": 62,
                "velocity": 64,
                "duration": 0.10000000000000142,
                "tempo": 120.0
            },
            {
                "start_time": 15.165909090909091,
                "end_time": 15.268181818181818,
                "pitch": 65,
                "velocity": 64,
                "duration": 0.10227272727272663,
                "tempo": 120.0
            },
            {
                "start_time": 15.268181818181818,
                "end_time": 15.368181818181817,
                "pitch": 67,
                "velocity": 64,
                "duration": 0.09999999999999964,
                "tempo": 120.0
            },
            {
                "start_time": 15.468181818181817,
                "end_time": 15.570454545454545,
                "pitch": 65,
                "velocity": 64,
                "duration": 0.1022727272727284,
                "tempo": 120.0
            }
        ],
        "Harpsichord": [
            {
                "start_time": 3.3136363636363635,
                "end_time": 3.4136363636363636,
                "pitch": 60,
                "velocity": 64,
                "duration": 0.10000000000000009,
                "tempo": 120.0
            },
            {
                "start_time": 3.4136363636363636,
                "end_time": 3.5136363636363637,
                "pitch": 62,
                "velocity": 64,
                "duration": 0.10000000000000009,
                "tempo": 120.0
            },
            {
                "start_time": 3.6136363636363633,
                "end_time": 3.7136363636363634,
                "pitch": 60,
                "velocity": 64,
                "duration": 0.10000000000000009,
                "tempo": 120.0
            },
            {
                "start_time": 3.8136363636363635,
                "end_time": 3.9136363636363636,
                "pitch": 62,
                "velocity": 64,
                "duration": 0.10000000000000009,
                "tempo": 120.0
            },
            {
                "start_time": 4.013636363636364,
                "end_time": 4.113636363636363,
                "pitch": 65,
                "velocity": 64,
                "duration": 0.09999999999999964,
                "tempo": 120.0
            },
            {
                "start_time": 4.213636363636364,
                "end_time": 4.3136363636363635,
                "pitch": 62,
                "velocity": 64,
                "duration": 0.09999999999999964,
                "tempo": 120.0
            },
            {
                "start_time": 4.413636363636363,
                "end_time": 4.513636363636364,
                "pitch": 62,
                "velocity": 64,
                "duration": 0.10000000000000053,
                "tempo": 120.0
            },
            {
                "start_time": 4.61590909090909,
                "end_time": 4.715909090909091,
                "pitch": 60,
                "velocity": 64,
                "duration": 0.10000000000000053,
                "tempo": 120.0
            },
            {
                "start_time": 4.715909090909091,
                "end_time": 4.8159090909090905,
                "pitch": 62,
                "velocity": 64,
                "duration": 0.09999999999999964,
                "tempo": 120.0
            },
            {
                "start_time": 4.915909090909091,
                "end_time": 5.015909090909091,
                "pitch": 60,
                "velocity": 64,
                "duration": 0.09999999999999964,
                "tempo": 120.0
            },
            {
                "start_time": 5.015909090909091,
                "end_time": 5.11590909090909,
                "pitch": 62,
                "velocity": 64,
                "duration": 0.09999999999999964,
                "tempo": 120.0
            },
            {
                "start_time": 5.215909090909091,
                "end_time": 5.318181818181818,
                "pitch": 60,
                "velocity": 64,
                "duration": 0.10227272727272751,
                "tempo": 120.0
            },
            {
                "start_time": 5.418181818181818,
                "end_time": 5.518181818181818,
                "pitch": 62,
                "velocity": 64,
                "duration": 0.09999999999999964,
                "tempo": 120.0
            },
            {
                "start_time": 5.618181818181818,
                "end_time": 5.720454545454545,
                "pitch": 69,
                "velocity": 64,
                "duration": 0.10227272727272663,
                "tempo": 120.0
            },
            {
                "start_time": 5.820454545454545,
                "end_time": 5.920454545454545,
                "pitch": 67,
                "velocity": 64,
                "duration": 0.09999999999999964,
                "tempo": 120.0
            },
            {
                "start_time": 6.0227272727272725,
                "end_time": 6.122727272727272,
                "pitch": 65,
                "velocity": 64,
                "duration": 0.09999999999999964,
                "tempo": 120.0
            },
            {
                "start_time": 6.122727272727272,
                "end_time": 6.422727272727273,
                "pitch": 67,
                "velocity": 64,
                "duration": 0.3000000000000007,
                "tempo": 120.0
            },
            {
                "start_time": 6.5227272727272725,
                "end_time": 6.622727272727272,
                "pitch": 60,
                "velocity": 64,
                "duration": 0.09999999999999964,
                "tempo": 120.0
            },
            {
                "start_time": 6.622727272727272,
                "end_time": 6.725,
                "pitch": 62,
                "velocity": 64,
                "duration": 0.10227272727272751,
                "tempo": 120.0
            },
            {
                "start_time": 6.824999999999999,
                "end_time": 6.925,
                "pitch": 60,
                "velocity": 64,
                "duration": 0.10000000000000053,
                "tempo": 120.0
            },
            {
                "start_time": 7.0249999999999995,
                "end_time": 7.125,
                "pitch": 62,
                "velocity": 64,
                "duration": 0.10000000000000053,
                "tempo": 120.0
            },
            {
                "start_time": 7.225,
                "end_time": 7.324999999999999,
                "pitch": 65,
                "velocity": 64,
                "duration": 0.09999999999999964,
                "tempo": 120.0
            },
            {
                "start_time": 7.425,
                "end_time": 7.527272727272727,
                "pitch": 62,
                "velocity": 64,
                "duration": 0.10227272727272751,
                "tempo": 120.0
            },
            {
                "start_time": 7.627272727272727,
                "end_time": 7.727272727272727,
                "pitch": 62,
                "velocity": 64,
                "duration": 0.09999999999999964,
                "tempo": 120.0
            },
            {
                "start_time": 7.829545454545454,
                "end_time": 7.929545454545454,
                "pitch": 60,
                "velocity": 64,
                "duration": 0.09999999999999964,
                "tempo": 120.0
            },
            {
                "start_time": 7.929545454545454,
                "end_time": 8.029545454545454,
                "pitch": 62,
                "velocity": 64,
                "duration": 0.10000000000000053,
                "tempo": 120.0
            },
            {
                "start_time": 8.129545454545454,
                "end_time": 8.229545454545454,
                "pitch": 60,
                "velocity": 64,
                "duration": 0.09999999999999964,
                "tempo": 120.0
            },
            {
                "start_time": 8.229545454545454,
                "end_time": 8.329545454545453,
                "pitch": 62,
                "velocity": 64,
                "duration": 0.09999999999999964,
                "tempo": 120.0
            },
            {
                "start_time": 8.429545454545455,
                "end_time": 8.531818181818181,
                "pitch": 60,
                "velocity": 64,
                "duration": 0.10227272727272663,
                "tempo": 120.0
            },
            {
                "start_time": 8.631818181818181,
                "end_time": 8.73181818181818,
                "pitch": 62,
                "velocity": 64,
                "duration": 0.09999999999999964,
                "tempo": 120.0
            },
            {
                "start_time": 8.831818181818182,
                "end_time": 8.934090909090909,
                "pitch": 69,
                "velocity": 64,
                "duration": 0.10227272727272663,
                "tempo": 120.0
            },
            {
                "start_time": 9.034090909090908,
                "end_time": 9.134090909090908,
                "pitch": 67,
                "velocity": 64,
                "duration": 0.09999999999999964,
                "tempo": 120.0
            },
            {
                "start_time": 9.236363636363636,
                "end_time": 9.336363636363636,
                "pitch": 65,
                "velocity": 64,
                "duration": 0.09999999999999964,
                "tempo": 120.0
            },
            {
                "start_time": 9.336363636363636,
                "end_time": 9.638636363636364,
                "pitch": 67,
                "velocity": 64,
                "duration": 0.3022727272727277,
                "tempo": 120.0
            },
            {
                "start_time": 9.738636363636363,
                "end_time": 9.838636363636363,
                "pitch": 60,
                "velocity": 64,
                "duration": 0.09999999999999964,
                "tempo": 120.0
            },
            {
                "start_time": 9.838636363636363,
                "end_time": 9.938636363636363,
                "pitch": 62,
                "velocity": 64,
                "duration": 0.09999999999999964,
                "tempo": 120.0
            },
            {
                "start_time": 10.038636363636364,
                "end_time": 10.138636363636364,
                "pitch": 60,
                "velocity": 64,
                "duration": 0.09999999999999964,
                "tempo": 120.0
            },
            {
                "start_time": 10.238636363636363,
                "end_time": 10.34090909090909,
                "pitch": 62,
                "velocity": 64,
                "duration": 0.10227272727272663,
                "tempo": 120.0
            },
            {
                "start_time": 10.44090909090909,
                "end_time": 10.540909090909091,
                "pitch": 65,
                "velocity": 64,
                "duration": 0.10000000000000142,
                "tempo": 120.0
            },
            {
                "start_time": 10.643181818181818,
                "end_time": 10.743181818181817,
                "pitch": 62,
                "velocity": 64,
                "duration": 0.09999999999999964,
                "tempo": 120.0
            },
            {
                "start_time": 10.843181818181817,
                "end_time": 10.943181818181818,
                "pitch": 62,
                "velocity": 64,
                "duration": 0.10000000000000142,
                "tempo": 120.0
            },
            {
                "start_time": 11.045454545454545,
                "end_time": 11.145454545454545,
                "pitch": 60,
                "velocity": 64,
                "duration": 0.09999999999999964,
                "tempo": 120.0
            },
            {
                "start_time": 11.145454545454545,
                "end_time": 11.245454545454544,
                "pitch": 62,
                "velocity": 64,
                "duration": 0.09999999999999964,
                "tempo": 120.0
            },
            {
                "start_time": 11.347727272727273,
                "end_time": 11.447727272727272,
                "pitch": 60,
                "velocity": 64,
                "duration": 0.09999999999999964,
                "tempo": 120.0
            },
            {
                "start_time": 11.447727272727272,
                "end_time": 11.547727272727272,
                "pitch": 62,
                "velocity": 64,
                "duration": 0.09999999999999964,
                "tempo": 120.0
            },
            {
                "start_time": 11.647727272727272,
                "end_time": 11.747727272727273,
                "pitch": 60,
                "velocity": 64,
                "duration": 0.10000000000000142,
                "tempo": 120.0
            },
            {
                "start_time": 11.847727272727273,
                "end_time": 11.947727272727272,
                "pitch": 62,
                "velocity": 64,
                "duration": 0.09999999999999964,
                "tempo": 120.0
            },
            {
                "start_time": 12.047727272727272,
                "end_time": 12.149999999999999,
                "pitch": 69,
                "velocity": 64,
                "duration": 0.10227272727272663,
                "tempo": 120.0
            },
            {
                "start_time": 12.25,
                "end_time": 12.35,
                "pitch": 67,
                "velocity": 64,
                "duration": 0.09999999999999964,
                "tempo": 120.0
            },
            {
                "start_time": 12.452272727272726,
                "end_time": 12.552272727272726,
                "pitch": 65,
                "velocity": 64,
                "duration": 0.09999999999999964,
                "tempo": 120.0
            },
            {
                "start_time": 12.552272727272726,
                "end_time": 12.854545454545454,
                "pitch": 67,
                "velocity": 64,
                "duration": 0.3022727272727277,
                "tempo": 120.0
            },
            {
                "start_time": 12.954545454545453,
                "end_time": 13.054545454545455,
                "pitch": 60,
                "velocity": 64,
                "duration": 0.10000000000000142,
                "tempo": 120.0
            },
            {
                "start_time": 13.054545454545455,
                "end_time": 13.156818181818181,
                "pitch": 62,
                "velocity": 64,
                "duration": 0.10227272727272663,
                "tempo": 120.0
            },
            {
                "start_time": 13.256818181818181,
                "end_time": 13.35681818181818,
                "pitch": 60,
                "velocity": 64,
                "duration": 0.09999999999999964,
                "tempo": 120.0
            },
            {
                "start_time": 13.459090909090909,
                "end_time": 13.559090909090909,
                "pitch": 62,
                "velocity": 64,
                "duration": 0.09999999999999964,
                "tempo": 120.0
            },
            {
                "start_time": 13.659090909090908,
                "end_time": 13.759090909090908,
                "pitch": 65,
                "velocity": 64,
                "duration": 0.09999999999999964,
                "tempo": 120.0
            },
            {
                "start_time": 13.859090909090908,
                "end_time": 13.959090909090909,
                "pitch": 62,
                "velocity": 64,
                "duration": 0.10000000000000142,
                "tempo": 120.0
            },
            {
                "start_time": 14.059090909090909,
                "end_time": 14.161363636363635,
                "pitch": 62,
                "velocity": 64,
                "duration": 0.10227272727272663,
                "tempo": 120.0
            },
            {
                "start_time": 14.261363636363635,
                "end_time": 14.361363636363636,
                "pitch": 60,
                "velocity": 64,
                "duration": 0.10000000000000142,
                "tempo": 120.0
            },
            {
                "start_time": 14.361363636363636,
                "end_time": 14.461363636363636,
                "pitch": 62,
                "velocity": 64,
                "duration": 0.09999999999999964,
                "tempo": 120.0
            },
            {
                "start_time": 14.563636363636363,
                "end_time": 14.663636363636362,
                "pitch": 60,
                "velocity": 64,
                "duration": 0.09999999999999964,
                "tempo": 120.0
            },
            {
                "start_time": 14.663636363636362,
                "end_time": 14.763636363636364,
                "pitch": 62,
                "velocity": 64,
                "duration": 0.10000000000000142,
                "tempo": 120.0
            },
            {
                "start_time": 14.86590909090909,
                "end_time": 14.96590909090909,
                "pitch": 60,
                "velocity": 64,
                "duration": 0.09999999999999964,
                "tempo": 120.0
            },
            {
                "start_time": 15.06590909090909,
                "end_time": 15.165909090909091,
                "pitch": 62,
                "velocity": 64,
                "duration": 0.10000000000000142,
                "tempo": 120.0
            },
            {
                "start_time": 15.268181818181818,
                "end_time": 15.368181818181817,
                "pitch": 69,
                "velocity": 64,
                "duration": 0.09999999999999964,
                "tempo": 120.0
            },
            {
                "start_time": 15.468181818181817,
                "end_time": 15.570454545454545,
                "pitch": 67,
                "velocity": 64,
                "duration": 0.1022727272727284,
                "tempo": 120.0
            },
            {
                "start_time": 15.670454545454545,
                "end_time": 15.770454545454545,
                "pitch": 65,
                "velocity": 64,
                "duration": 0.09999999999999964,
                "tempo": 120.0
            },
            {
                "start_time": 15.770454545454545,
                "end_time": 16.070454545454545,
                "pitch": 67,
                "velocity": 64,
                "duration": 0.3000000000000007,
                "tempo": 120.0
            },
            {
                "start_time": 16.070454545454545,
                "end_time": 17.675,
                "pitch": 65,
                "velocity": 64,
                "duration": 1.6045454545454554,
                "tempo": 120.0
            },
            {
                "start_time": 17.675,
                "end_time": 18.877272727272725,
                "pitch": 67,
                "velocity": 64,
                "duration": 1.2022727272727245,
                "tempo": 120.0
            },
            {
                "start_time": 18.877272727272725,
                "end_time": 19.277272727272727,
                "pitch": 64,
                "velocity": 64,
                "duration": 0.40000000000000213,
                "tempo": 120.0
            },
            {
                "start_time": 19.277272727272727,
                "end_time": 20.884090909090908,
                "pitch": 62,
                "velocity": 64,
                "duration": 1.6068181818181806,
                "tempo": 120.0
            },
            {
                "start_time": 20.884090909090908,
                "end_time": 22.488636363636363,
                "pitch": 64,
                "velocity": 64,
                "duration": 1.6045454545454554,
                "tempo": 120.0
            },
            {
                "start_time": 22.488636363636363,
                "end_time": 24.09090909090909,
                "pitch": 65,
                "velocity": 64,
                "duration": 1.6022727272727266,
                "tempo": 120.0
            }
        ],
        "Electric Guitar (clean)": [
            {
                "start_time": 3.2136363636363634,
                "end_time": 3.3136363636363635,
                "pitch": 26,
                "velocity": 64,
                "duration": 0.10000000000000009,
                "tempo": 120.0
            },
            {
                "start_time": 3.4136363636363636,
                "end_time": 3.5136363636363637,
                "pitch": 38,
                "velocity": 64,
                "duration": 0.10000000000000009,
                "tempo": 120.0
            },
            {
                "start_time": 3.5136363636363637,
                "end_time": 3.6136363636363633,
                "pitch": 38,
                "velocity": 64,
                "duration": 0.09999999999999964,
                "tempo": 120.0
            },
            {
                "start_time": 3.6136363636363633,
                "end_time": 3.7136363636363634,
                "pitch": 26,
                "velocity": 64,
                "duration": 0.10000000000000009,
                "tempo": 120.0
            },
            {
                "start_time": 3.8136363636363635,
                "end_time": 3.9136363636363636,
                "pitch": 38,
                "velocity": 64,
                "duration": 0.10000000000000009,
                "tempo": 120.0
            },
            {
                "start_time": 3.9136363636363636,
                "end_time": 4.013636363636364,
                "pitch": 38,
                "velocity": 64,
                "duration": 0.10000000000000009,
                "tempo": 120.0
            },
            {
                "start_time": 4.013636363636364,
                "end_time": 4.113636363636363,
                "pitch": 26,
                "velocity": 64,
                "duration": 0.09999999999999964,
                "tempo": 120.0
            },
            {
                "start_time": 4.213636363636364,
                "end_time": 4.3136363636363635,
                "pitch": 38,
                "velocity": 64,
                "duration": 0.09999999999999964,
                "tempo": 120.0
            },
            {
                "start_time": 4.3136363636363635,
                "end_time": 4.413636363636363,
                "pitch": 38,
                "velocity": 64,
                "duration": 0.09999999999999964,
                "tempo": 120.0
            },
            {
                "start_time": 4.413636363636363,
                "end_time": 4.513636363636364,
                "pitch": 26,
                "velocity": 64,
                "duration": 0.10000000000000053,
                "tempo": 120.0
            },
            {
                "start_time": 4.61590909090909,
                "end_time": 4.715909090909091,
                "pitch": 38,
                "velocity": 64,
                "duration": 0.10000000000000053,
                "tempo": 120.0
            },
            {
                "start_time": 4.715909090909091,
                "end_time": 4.8159090909090905,
                "pitch": 38,
                "velocity": 64,
                "duration": 0.09999999999999964,
                "tempo": 120.0
            },
            {
                "start_time": 4.8159090909090905,
                "end_time": 4.915909090909091,
                "pitch": 26,
                "velocity": 64,
                "duration": 0.10000000000000053,
                "tempo": 120.0
            },
            {
                "start_time": 5.015909090909091,
                "end_time": 5.11590909090909,
                "pitch": 38,
                "velocity": 64,
                "duration": 0.09999999999999964,
                "tempo": 120.0
            },
            {
                "start_time": 5.11590909090909,
                "end_time": 5.215909090909091,
                "pitch": 38,
                "velocity": 64,
                "duration": 0.10000000000000053,
                "tempo": 120.0
            },
            {
                "start_time": 5.215909090909091,
                "end_time": 5.318181818181818,
                "pitch": 26,
                "velocity": 64,
                "duration": 0.10227272727272751,
                "tempo": 120.0
            },
            {
                "start_time": 5.418181818181818,
                "end_time": 5.518181818181818,
                "pitch": 38,
                "velocity": 64,
                "duration": 0.09999999999999964,
                "tempo": 120.0
            },
            {
                "start_time": 5.518181818181818,
                "end_time": 5.618181818181818,
                "pitch": 38,
                "velocity": 64,
                "duration": 0.10000000000000053,
                "tempo": 120.0
            },
            {
                "start_time": 5.618181818181818,
                "end_time": 5.720454545454545,
                "pitch": 26,
                "velocity": 64,
                "duration": 0.10227272727272663,
                "tempo": 120.0
            },
            {
                "start_time": 5.820454545454545,
                "end_time": 5.920454545454545,
                "pitch": 38,
                "velocity": 64,
                "duration": 0.09999999999999964,
                "tempo": 120.0
            },
            {
                "start_time": 5.920454545454545,
                "end_time": 6.0227272727272725,
                "pitch": 38,
                "velocity": 64,
                "duration": 0.10227272727272751,
                "tempo": 120.0
            },
            {
                "start_time": 6.0227272727272725,
                "end_time": 6.122727272727272,
                "pitch": 26,
                "velocity": 64,
                "duration": 0.09999999999999964,
                "tempo": 120.0
            },
            {
                "start_time": 6.122727272727272,
                "end_time": 6.222727272727273,
                "pitch": 28,
                "velocity": 64,
                "duration": 0.10000000000000053,
                "tempo": 120.0
            },
            {
                "start_time": 6.222727272727273,
                "end_time": 6.322727272727272,
                "pitch": 29,
                "velocity": 64,
                "duration": 0.09999999999999964,
                "tempo": 120.0
            },
            {
                "start_time": 6.322727272727272,
                "end_time": 6.422727272727273,
                "pitch": 26,
                "velocity": 64,
                "duration": 0.10000000000000053,
                "tempo": 120.0
            },
            {
                "start_time": 6.422727272727273,
                "end_time": 6.5227272727272725,
                "pitch": 34,
                "velocity": 64,
                "duration": 0.09999999999999964,
                "tempo": 120.0
            },
            {
                "start_time": 6.622727272727272,
                "end_time": 6.725,
                "pitch": 46,
                "velocity": 64,
                "duration": 0.10227272727272751,
                "tempo": 120.0
            },
            {
                "start_time": 6.725,
                "end_time": 6.824999999999999,
                "pitch": 46,
                "velocity": 64,
                "duration": 0.09999999999999964,
                "tempo": 120.0
            },
            {
                "start_time": 6.824999999999999,
                "end_time": 6.925,
                "pitch": 34,
                "velocity": 64,
                "duration": 0.10000000000000053,
                "tempo": 120.0
            },
            {
                "start_time": 7.0249999999999995,
                "end_time": 7.125,
                "pitch": 46,
                "velocity": 64,
                "duration": 0.10000000000000053,
                "tempo": 120.0
            },
            {
                "start_time": 7.125,
                "end_time": 7.225,
                "pitch": 46,
                "velocity": 64,
                "duration": 0.09999999999999964,
                "tempo": 120.0
            },
            {
                "start_time": 7.225,
                "end_time": 7.324999999999999,
                "pitch": 34,
                "velocity": 64,
                "duration": 0.09999999999999964,
                "tempo": 120.0
            },
            {
                "start_time": 7.425,
                "end_time": 7.527272727272727,
                "pitch": 46,
                "velocity": 64,
                "duration": 0.10227272727272751,
                "tempo": 120.0
            },
            {
                "start_time": 7.527272727272727,
                "end_time": 7.627272727272727,
                "pitch": 46,
                "velocity": 64,
                "duration": 0.09999999999999964,
                "tempo": 120.0
            },
            {
                "start_time": 7.627272727272727,
                "end_time": 7.727272727272727,
                "pitch": 34,
                "velocity": 64,
                "duration": 0.09999999999999964,
                "tempo": 120.0
            },
            {
                "start_time": 7.829545454545454,
                "end_time": 7.929545454545454,
                "pitch": 46,
                "velocity": 64,
                "duration": 0.09999999999999964,
                "tempo": 120.0
            },
            {
                "start_time": 7.929545454545454,
                "end_time": 8.029545454545454,
                "pitch": 46,
                "velocity": 64,
                "duration": 0.10000000000000053,
                "tempo": 120.0
            },
            {
                "start_time": 8.029545454545454,
                "end_time": 8.129545454545454,
                "pitch": 34,
                "velocity": 64,
                "duration": 0.09999999999999964,
                "tempo": 120.0
            },
            {
                "start_time": 8.229545454545454,
                "end_time": 8.329545454545453,
                "pitch": 46,
                "velocity": 64,
                "duration": 0.09999999999999964,
                "tempo": 120.0
            },
            {
                "start_time": 8.329545454545453,
                "end_time": 8.429545454545455,
                "pitch": 46,
                "velocity": 64,
                "duration": 0.10000000000000142,
                "tempo": 120.0
            },
            {
                "start_time": 8.429545454545455,
                "end_time": 8.531818181818181,
                "pitch": 34,
                "velocity": 64,
                "duration": 0.10227272727272663,
                "tempo": 120.0
            },
            {
                "start_time": 8.631818181818181,
                "end_time": 8.73181818181818,
                "pitch": 46,
                "velocity": 64,
                "duration": 0.09999999999999964,
                "tempo": 120.0
            },
            {
                "start_time": 8.73181818181818,
                "end_time": 8.831818181818182,
                "pitch": 46,
                "velocity": 64,
                "duration": 0.10000000000000142,
                "tempo": 120.0
            },
            {
                "start_time": 8.831818181818182,
                "end_time": 8.934090909090909,
                "pitch": 34,
                "velocity": 64,
                "duration": 0.10227272727272663,
                "tempo": 120.0
            },
            {
                "start_time": 9.034090909090908,
                "end_time": 9.134090909090908,
                "pitch": 46,
                "velocity": 64,
                "duration": 0.09999999999999964,
                "tempo": 120.0
            },
            {
                "start_time": 9.134090909090908,
                "end_time": 9.236363636363636,
                "pitch": 46,
                "velocity": 64,
                "duration": 0.1022727272727284,
                "tempo": 120.0
            },
            {
                "start_time": 9.236363636363636,
                "end_time": 9.336363636363636,
                "pitch": 34,
                "velocity": 64,
                "duration": 0.09999999999999964,
                "tempo": 120.0
            },
            {
                "start_time": 9.336363636363636,
                "end_time": 9.436363636363636,
                "pitch": 36,
                "velocity": 64,
                "duration": 0.09999999999999964,
                "tempo": 120.0
            },
            {
                "start_time": 9.436363636363636,
                "end_time": 9.536363636363635,
                "pitch": 38,
                "velocity": 64,
                "duration": 0.09999999999999964,
                "tempo": 120.0
            },
            {
                "start_time": 9.536363636363635,
                "end_time": 9.638636363636364,
                "pitch": 34,
                "velocity": 64,
                "duration": 0.1022727272727284,
                "tempo": 120.0
            },
            {
                "start_time": 9.638636363636364,
                "end_time": 9.738636363636363,
                "pitch": 31,
                "velocity": 64,
                "duration": 0.09999999999999964,
                "tempo": 120.0
            },
            {
                "start_time": 9.838636363636363,
                "end_time": 9.938636363636363,
                "pitch": 43,
                "velocity": 64,
                "duration": 0.09999999999999964,
                "tempo": 120.0
            },
            {
                "start_time": 9.938636363636363,
                "end_time": 10.038636363636364,
                "pitch": 43,
                "velocity": 64,
                "duration": 0.10000000000000142,
                "tempo": 120.0
            },
            {
                "start_time": 10.038636363636364,
                "end_time": 10.138636363636364,
                "pitch": 31,
                "velocity": 64,
                "duration": 0.09999999999999964,
                "tempo": 120.0
            },
            {
                "start_time": 10.238636363636363,
                "end_time": 10.34090909090909,
                "pitch": 43,
                "velocity": 64,
                "duration": 0.10227272727272663,
                "tempo": 120.0
            },
            {
                "start_time": 10.34090909090909,
                "end_time": 10.44090909090909,
                "pitch": 43,
                "velocity": 64,
                "duration": 0.09999999999999964,
                "tempo": 120.0
            },
            {
                "start_time": 10.44090909090909,
                "end_time": 10.540909090909091,
                "pitch": 31,
                "velocity": 64,
                "duration": 0.10000000000000142,
                "tempo": 120.0
            },
            {
                "start_time": 10.643181818181818,
                "end_time": 10.743181818181817,
                "pitch": 43,
                "velocity": 64,
                "duration": 0.09999999999999964,
                "tempo": 120.0
            },
            {
                "start_time": 10.743181818181817,
                "end_time": 10.843181818181817,
                "pitch": 43,
                "velocity": 64,
                "duration": 0.09999999999999964,
                "tempo": 120.0
            },
            {
                "start_time": 10.843181818181817,
                "end_time": 10.943181818181818,
                "pitch": 31,
                "velocity": 64,
                "duration": 0.10000000000000142,
                "tempo": 120.0
            },
            {
                "start_time": 11.045454545454545,
                "end_time": 11.145454545454545,
                "pitch": 43,
                "velocity": 64,
                "duration": 0.09999999999999964,
                "tempo": 120.0
            },
            {
                "start_time": 11.145454545454545,
                "end_time": 11.245454545454544,
                "pitch": 43,
                "velocity": 64,
                "duration": 0.09999999999999964,
                "tempo": 120.0
            },
            {
                "start_time": 11.245454545454544,
                "end_time": 11.347727272727273,
                "pitch": 31,
                "velocity": 64,
                "duration": 0.1022727272727284,
                "tempo": 120.0
            },
            {
                "start_time": 11.447727272727272,
                "end_time": 11.547727272727272,
                "pitch": 43,
                "velocity": 64,
                "duration": 0.09999999999999964,
                "tempo": 120.0
            },
            {
                "start_time": 11.547727272727272,
                "end_time": 11.647727272727272,
                "pitch": 43,
                "velocity": 64,
                "duration": 0.09999999999999964,
                "tempo": 120.0
            },
            {
                "start_time": 11.647727272727272,
                "end_time": 11.747727272727273,
                "pitch": 31,
                "velocity": 64,
                "duration": 0.10000000000000142,
                "tempo": 120.0
            },
            {
                "start_time": 11.847727272727273,
                "end_time": 11.947727272727272,
                "pitch": 43,
                "velocity": 64,
                "duration": 0.09999999999999964,
                "tempo": 120.0
            },
            {
                "start_time": 11.947727272727272,
                "end_time": 12.047727272727272,
                "pitch": 43,
                "velocity": 64,
                "duration": 0.09999999999999964,
                "tempo": 120.0
            },
            {
                "start_time": 12.047727272727272,
                "end_time": 12.149999999999999,
                "pitch": 31,
                "velocity": 64,
                "duration": 0.10227272727272663,
                "tempo": 120.0
            },
            {
                "start_time": 12.25,
                "end_time": 12.35,
                "pitch": 43,
                "velocity": 64,
                "duration": 0.09999999999999964,
                "tempo": 120.0
            },
            {
                "start_time": 12.35,
                "end_time": 12.452272727272726,
                "pitch": 43,
                "velocity": 64,
                "duration": 0.10227272727272663,
                "tempo": 120.0
            },
            {
                "start_time": 12.452272727272726,
                "end_time": 12.552272727272726,
                "pitch": 31,
                "velocity": 64,
                "duration": 0.09999999999999964,
                "tempo": 120.0
            },
            {
                "start_time": 12.552272727272726,
                "end_time": 12.652272727272727,
                "pitch": 33,
                "velocity": 64,
                "duration": 0.10000000000000142,
                "tempo": 120.0
            },
            {
                "start_time": 12.652272727272727,
                "end_time": 12.754545454545454,
                "pitch": 34,
                "velocity": 64,
                "duration": 0.10227272727272663,
                "tempo": 120.0
            },
            {
                "start_time": 12.754545454545454,
                "end_time": 12.854545454545454,
                "pitch": 31,
                "velocity": 64,
                "duration": 0.09999999999999964,
                "tempo": 120.0
            },
            {
                "start_time": 12.854545454545454,
                "end_time": 12.954545454545453,
                "pitch": 26,
                "velocity": 64,
                "duration": 0.09999999999999964,
                "tempo": 120.0
            },
            {
                "start_time": 13.054545454545455,
                "end_time": 13.156818181818181,
                "pitch": 38,
                "velocity": 64,
                "duration": 0.10227272727272663,
                "tempo": 120.0
            },
            {
                "start_time": 13.156818181818181,
                "end_time": 13.256818181818181,
                "pitch": 38,
                "velocity": 64,
                "duration": 0.09999999999999964,
                "tempo": 120.0
            },
            {
                "start_time": 13.256818181818181,
                "end_time": 13.35681818181818,
                "pitch": 26,
                "velocity": 64,
                "duration": 0.09999999999999964,
                "tempo": 120.0
            },
            {
                "start_time": 13.459090909090909,
                "end_time": 13.559090909090909,
                "pitch": 38,
                "velocity": 64,
                "duration": 0.09999999999999964,
                "tempo": 120.0
            },
            {
                "start_time": 13.559090909090909,
                "end_time": 13.659090909090908,
                "pitch": 38,
                "velocity": 64,
                "duration": 0.09999999999999964,
                "tempo": 120.0
            },
            {
                "start_time": 13.659090909090908,
                "end_time": 13.759090909090908,
                "pitch": 26,
                "velocity": 64,
                "duration": 0.09999999999999964,
                "tempo": 120.0
            },
            {
                "start_time": 13.859090909090908,
                "end_time": 13.959090909090909,
                "pitch": 38,
                "velocity": 64,
                "duration": 0.10000000000000142,
                "tempo": 120.0
            },
            {
                "start_time": 13.959090909090909,
                "end_time": 14.059090909090909,
                "pitch": 38,
                "velocity": 64,
                "duration": 0.09999999999999964,
                "tempo": 120.0
            },
            {
                "start_time": 14.059090909090909,
                "end_time": 14.161363636363635,
                "pitch": 26,
                "velocity": 64,
                "duration": 0.10227272727272663,
                "tempo": 120.0
            },
            {
                "start_time": 14.261363636363635,
                "end_time": 14.361363636363636,
                "pitch": 38,
                "velocity": 64,
                "duration": 0.10000000000000142,
                "tempo": 120.0
            },
            {
                "start_time": 14.361363636363636,
                "end_time": 14.461363636363636,
                "pitch": 38,
                "velocity": 64,
                "duration": 0.09999999999999964,
                "tempo": 120.0
            },
            {
                "start_time": 14.461363636363636,
                "end_time": 14.563636363636363,
                "pitch": 26,
                "velocity": 64,
                "duration": 0.10227272727272663,
                "tempo": 120.0
            },
            {
                "start_time": 14.663636363636362,
                "end_time": 14.763636363636364,
                "pitch": 38,
                "velocity": 64,
                "duration": 0.10000000000000142,
                "tempo": 120.0
            },
            {
                "start_time": 14.763636363636364,
                "end_time": 14.86590909090909,
                "pitch": 38,
                "velocity": 64,
                "duration": 0.10227272727272663,
                "tempo": 120.0
            },
            {
                "start_time": 14.86590909090909,
                "end_time": 14.96590909090909,
                "pitch": 26,
                "velocity": 64,
                "duration": 0.09999999999999964,
                "tempo": 120.0
            },
            {
                "start_time": 15.06590909090909,
                "end_time": 15.165909090909091,
                "pitch": 38,
                "velocity": 64,
                "duration": 0.10000000000000142,
                "tempo": 120.0
            },
            {
                "start_time": 15.165909090909091,
                "end_time": 15.268181818181818,
                "pitch": 38,
                "velocity": 64,
                "duration": 0.10227272727272663,
                "tempo": 120.0
            },
            {
                "start_time": 15.268181818181818,
                "end_time": 15.368181818181817,
                "pitch": 26,
                "velocity": 64,
                "duration": 0.09999999999999964,
                "tempo": 120.0
            },
            {
                "start_time": 15.468181818181817,
                "end_time": 15.570454545454545,
                "pitch": 38,
                "velocity": 64,
                "duration": 0.1022727272727284,
                "tempo": 120.0
            },
            {
                "start_time": 15.570454545454545,
                "end_time": 15.670454545454545,
                "pitch": 38,
                "velocity": 64,
                "duration": 0.09999999999999964,
                "tempo": 120.0
            },
            {
                "start_time": 15.670454545454545,
                "end_time": 15.770454545454545,
                "pitch": 26,
                "velocity": 64,
                "duration": 0.09999999999999964,
                "tempo": 120.0
            },
            {
                "start_time": 15.770454545454545,
                "end_time": 15.870454545454544,
                "pitch": 28,
                "velocity": 64,
                "duration": 0.09999999999999964,
                "tempo": 120.0
            },
            {
                "start_time": 15.870454545454544,
                "end_time": 15.970454545454544,
                "pitch": 29,
                "velocity": 64,
                "duration": 0.09999999999999964,
                "tempo": 120.0
            },
            {
                "start_time": 15.970454545454544,
                "end_time": 16.070454545454545,
                "pitch": 33,
                "velocity": 64,
                "duration": 0.10000000000000142,
                "tempo": 120.0
            },
            {
                "start_time": 16.070454545454545,
                "end_time": 16.170454545454543,
                "pitch": 34,
                "velocity": 64,
                "duration": 0.09999999999999787,
                "tempo": 120.0
            },
            {
                "start_time": 16.272727272727273,
                "end_time": 16.37272727272727,
                "pitch": 46,
                "velocity": 64,
                "duration": 0.09999999999999787,
                "tempo": 120.0
            },
            {
                "start_time": 16.37272727272727,
                "end_time": 16.472727272727273,
                "pitch": 46,
                "velocity": 64,
                "duration": 0.10000000000000142,
                "tempo": 120.0
            },
            {
                "start_time": 16.472727272727273,
                "end_time": 16.57272727272727,
                "pitch": 34,
                "velocity": 64,
                "duration": 0.09999999999999787,
                "tempo": 120.0
            },
            {
                "start_time": 16.672727272727272,
                "end_time": 16.772727272727273,
                "pitch": 46,
                "velocity": 64,
                "duration": 0.10000000000000142,
                "tempo": 120.0
            },
            {
                "start_time": 16.772727272727273,
                "end_time": 16.87272727272727,
                "pitch": 46,
                "velocity": 64,
                "duration": 0.09999999999999787,
                "tempo": 120.0
            },
            {
                "start_time": 16.87272727272727,
                "end_time": 16.972727272727273,
                "pitch": 34,
                "velocity": 64,
                "duration": 0.10000000000000142,
                "tempo": 120.0
            },
            {
                "start_time": 17.07272727272727,
                "end_time": 17.172727272727272,
                "pitch": 46,
                "velocity": 64,
                "duration": 0.10000000000000142,
                "tempo": 120.0
            },
            {
                "start_time": 17.172727272727272,
                "end_time": 17.272727272727273,
                "pitch": 46,
                "velocity": 64,
                "duration": 0.10000000000000142,
                "tempo": 120.0
            },
            {
                "start_time": 17.272727272727273,
                "end_time": 17.37272727272727,
                "pitch": 34,
                "velocity": 64,
                "duration": 0.09999999999999787,
                "tempo": 120.0
            },
            {
                "start_time": 17.474999999999998,
                "end_time": 17.575,
                "pitch": 46,
                "velocity": 64,
                "duration": 0.10000000000000142,
                "tempo": 120.0
            },
            {
                "start_time": 17.575,
                "end_time": 17.675,
                "pitch": 46,
                "velocity": 64,
                "duration": 0.10000000000000142,
                "tempo": 120.0
            },
            {
                "start_time": 17.675,
                "end_time": 17.775,
                "pitch": 36,
                "velocity": 64,
                "duration": 0.09999999999999787,
                "tempo": 120.0
            },
            {
                "start_time": 17.875,
                "end_time": 17.974999999999998,
                "pitch": 48,
                "velocity": 64,
                "duration": 0.09999999999999787,
                "tempo": 120.0
            },
            {
                "start_time": 17.974999999999998,
                "end_time": 18.075,
                "pitch": 48,
                "velocity": 64,
                "duration": 0.10000000000000142,
                "tempo": 120.0
            },
            {
                "start_time": 18.075,
                "end_time": 18.177272727272726,
                "pitch": 36,
                "velocity": 64,
                "duration": 0.10227272727272663,
                "tempo": 120.0
            },
            {
                "start_time": 18.277272727272727,
                "end_time": 18.377272727272725,
                "pitch": 48,
                "velocity": 64,
                "duration": 0.09999999999999787,
                "tempo": 120.0
            },
            {
                "start_time": 18.377272727272725,
                "end_time": 18.477272727272727,
                "pitch": 48,
                "velocity": 64,
                "duration": 0.10000000000000142,
                "tempo": 120.0
            },
            {
                "start_time": 18.477272727272727,
                "end_time": 18.577272727272728,
                "pitch": 36,
                "velocity": 64,
                "duration": 0.10000000000000142,
                "tempo": 120.0
            },
            {
                "start_time": 18.677272727272726,
                "end_time": 18.777272727272727,
                "pitch": 48,
                "velocity": 64,
                "duration": 0.10000000000000142,
                "tempo": 120.0
            },
            {
                "start_time": 18.777272727272727,
                "end_time": 18.877272727272725,
                "pitch": 48,
                "velocity": 64,
                "duration": 0.09999999999999787,
                "tempo": 120.0
            },
            {
                "start_time": 18.877272727272725,
                "end_time": 18.977272727272727,
                "pitch": 36,
                "velocity": 64,
                "duration": 0.10000000000000142,
                "tempo": 120.0
            },
            {
                "start_time": 18.977272727272727,
                "end_time": 19.077272727272728,
                "pitch": 38,
                "velocity": 64,
                "duration": 0.10000000000000142,
                "tempo": 120.0
            },
            {
                "start_time": 19.077272727272728,
                "end_time": 19.177272727272726,
                "pitch": 40,
                "velocity": 64,
                "duration": 0.09999999999999787,
                "tempo": 120.0
            },
            {
                "start_time": 19.177272727272726,
                "end_time": 19.277272727272727,
                "pitch": 36,
                "velocity": 64,
                "duration": 0.10000000000000142,
                "tempo": 120.0
            },
            {
                "start_time": 19.277272727272727,
                "end_time": 19.379545454545454,
                "pitch": 34,
                "velocity": 64,
                "duration": 0.10227272727272663,
                "tempo": 120.0
            },
            {
                "start_time": 19.479545454545452,
                "end_time": 19.579545454545453,
                "pitch": 46,
                "velocity": 64,
                "duration": 0.10000000000000142,
                "tempo": 120.0
            },
            {
                "start_time": 19.579545454545453,
                "end_time": 19.68181818181818,
                "pitch": 46,
                "velocity": 64,
                "duration": 0.10227272727272663,
                "tempo": 120.0
            },
            {
                "start_time": 19.68181818181818,
                "end_time": 19.78181818181818,
                "pitch": 34,
                "velocity": 64,
                "duration": 0.10000000000000142,
                "tempo": 120.0
            },
            {
                "start_time": 19.88181818181818,
                "end_time": 19.98181818181818,
                "pitch": 46,
                "velocity": 64,
                "duration": 0.10000000000000142,
                "tempo": 120.0
            },
            {
                "start_time": 19.98181818181818,
                "end_time": 20.081818181818182,
                "pitch": 46,
                "velocity": 64,
                "duration": 0.10000000000000142,
                "tempo": 120.0
            },
            {
                "start_time": 20.081818181818182,
                "end_time": 20.18181818181818,
                "pitch": 34,
                "velocity": 64,
                "duration": 0.09999999999999787,
                "tempo": 120.0
            },
            {
                "start_time": 20.28181818181818,
                "end_time": 20.384090909090908,
                "pitch": 46,
                "velocity": 64,
                "duration": 0.10227272727272663,
                "tempo": 120.0
            },
            {
                "start_time": 20.384090909090908,
                "end_time": 20.48409090909091,
                "pitch": 46,
                "velocity": 64,
                "duration": 0.10000000000000142,
                "tempo": 120.0
            },
            {
                "start_time": 20.48409090909091,
                "end_time": 20.584090909090907,
                "pitch": 34,
                "velocity": 64,
                "duration": 0.09999999999999787,
                "tempo": 120.0
            },
            {
                "start_time": 20.68409090909091,
                "end_time": 20.784090909090907,
                "pitch": 46,
                "velocity": 64,
                "duration": 0.09999999999999787,
                "tempo": 120.0
            },
            {
                "start_time": 20.784090909090907,
                "end_time": 20.884090909090908,
                "pitch": 46,
                "velocity": 64,
                "duration": 0.10000000000000142,
                "tempo": 120.0
            },
            {
                "start_time": 20.884090909090908,
                "end_time": 20.98409090909091,
                "pitch": 36,
                "velocity": 64,
                "duration": 0.10000000000000142,
                "tempo": 120.0
            },
            {
                "start_time": 21.084090909090907,
                "end_time": 21.18409090909091,
                "pitch": 48,
                "velocity": 64,
                "duration": 0.10000000000000142,
                "tempo": 120.0
            },
            {
                "start_time": 21.18409090909091,
                "end_time": 21.284090909090907,
                "pitch": 48,
                "velocity": 64,
                "duration": 0.09999999999999787,
                "tempo": 120.0
            },
            {
                "start_time": 21.284090909090907,
                "end_time": 21.384090909090908,
                "pitch": 36,
                "velocity": 64,
                "duration": 0.10000000000000142,
                "tempo": 120.0
            },
            {
                "start_time": 21.48409090909091,
                "end_time": 21.586363636363636,
                "pitch": 48,
                "velocity": 64,
                "duration": 0.10227272727272663,
                "tempo": 120.0
            },
            {
                "start_time": 21.586363636363636,
                "end_time": 21.686363636363634,
                "pitch": 48,
                "velocity": 64,
                "duration": 0.09999999999999787,
                "tempo": 120.0
            },
            {
                "start_time": 21.686363636363634,
                "end_time": 21.786363636363635,
                "pitch": 36,
                "velocity": 64,
                "duration": 0.10000000000000142,
                "tempo": 120.0
            },
            {
                "start_time": 21.886363636363637,
                "end_time": 21.986363636363635,
                "pitch": 48,
                "velocity": 64,
                "duration": 0.09999999999999787,
                "tempo": 120.0
            },
            {
                "start_time": 21.986363636363635,
                "end_time": 22.086363636363636,
                "pitch": 48,
                "velocity": 64,
                "duration": 0.10000000000000142,
                "tempo": 120.0
            },
            {
                "start_time": 22.086363636363636,
                "end_time": 22.186363636363634,
                "pitch": 36,
                "velocity": 64,
                "duration": 0.09999999999999787,
                "tempo": 120.0
            },
            {
                "start_time": 22.186363636363634,
                "end_time": 22.288636363636364,
                "pitch": 38,
                "velocity": 64,
                "duration": 0.10227272727273018,
                "tempo": 120.0
            },
            {
                "start_time": 22.288636363636364,
                "end_time": 22.388636363636362,
                "pitch": 40,
                "velocity": 64,
                "duration": 0.09999999999999787,
                "tempo": 120.0
            },
            {
                "start_time": 22.388636363636362,
                "end_time": 22.488636363636363,
                "pitch": 36,
                "velocity": 64,
                "duration": 0.10000000000000142,
                "tempo": 120.0
            },
            {
                "start_time": 22.488636363636363,
                "end_time": 22.58863636363636,
                "pitch": 26,
                "velocity": 64,
                "duration": 0.09999999999999787,
                "tempo": 120.0
            },
            {
                "start_time": 22.688636363636363,
                "end_time": 22.788636363636364,
                "pitch": 38,
                "velocity": 64,
                "duration": 0.10000000000000142,
                "tempo": 120.0
            },
            {
                "start_time": 22.788636363636364,
                "end_time": 22.888636363636362,
                "pitch": 38,
                "velocity": 64,
                "duration": 0.09999999999999787,
                "tempo": 120.0
            },
            {
                "start_time": 22.888636363636362,
                "end_time": 22.988636363636363,
                "pitch": 26,
                "velocity": 64,
                "duration": 0.10000000000000142,
                "tempo": 120.0
            },
            {
                "start_time": 23.08863636363636,
                "end_time": 23.188636363636363,
                "pitch": 38,
                "velocity": 64,
                "duration": 0.10000000000000142,
                "tempo": 120.0
            },
            {
                "start_time": 23.188636363636363,
                "end_time": 23.288636363636364,
                "pitch": 38,
                "velocity": 64,
                "duration": 0.10000000000000142,
                "tempo": 120.0
            },
            {
                "start_time": 23.288636363636364,
                "end_time": 23.388636363636362,
                "pitch": 26,
                "velocity": 64,
                "duration": 0.09999999999999787,
                "tempo": 120.0
            },
            {
                "start_time": 23.49090909090909,
                "end_time": 23.59090909090909,
                "pitch": 38,
                "velocity": 64,
                "duration": 0.10000000000000142,
                "tempo": 120.0
            },
            {
                "start_time": 23.59090909090909,
                "end_time": 23.69090909090909,
                "pitch": 38,
                "velocity": 64,
                "duration": 0.10000000000000142,
                "tempo": 120.0
            },
            {
                "start_time": 23.69090909090909,
                "end_time": 23.79090909090909,
                "pitch": 26,
                "velocity": 64,
                "duration": 0.09999999999999787,
                "tempo": 120.0
            },
            {
                "start_time": 23.89090909090909,
                "end_time": 23.99090909090909,
                "pitch": 38,
                "velocity": 64,
                "duration": 0.09999999999999787,
                "tempo": 120.0
            },
            {
                "start_time": 23.99090909090909,
                "end_time": 24.09090909090909,
                "pitch": 38,
                "velocity": 64,
                "duration": 0.10000000000000142,
                "tempo": 120.0
            },
            {
                "start_time": 24.09090909090909,
                "end_time": 24.193181818181817,
                "pitch": 26,
                "velocity": 64,
                "duration": 0.10227272727272663,
                "tempo": 120.0
            },
            {
                "start_time": 24.293181818181818,
                "end_time": 24.393181818181816,
                "pitch": 38,
                "velocity": 64,
                "duration": 0.09999999999999787,
                "tempo": 120.0
            },
            {
                "start_time": 24.393181818181816,
                "end_time": 24.495454545454546,
                "pitch": 38,
                "velocity": 64,
                "duration": 0.10227272727273018,
                "tempo": 120.0
            },
            {
                "start_time": 24.495454545454546,
                "end_time": 24.595454545454544,
                "pitch": 26,
                "velocity": 64,
                "duration": 0.09999999999999787,
                "tempo": 120.0
            },
            {
                "start_time": 24.695454545454545,
                "end_time": 24.795454545454543,
                "pitch": 38,
                "velocity": 64,
                "duration": 0.09999999999999787,
                "tempo": 120.0
            },
            {
                "start_time": 24.795454545454543,
                "end_time": 24.895454545454545,
                "pitch": 38,
                "velocity": 64,
                "duration": 0.10000000000000142,
                "tempo": 120.0
            },
            {
                "start_time": 24.895454545454545,
                "end_time": 24.995454545454542,
                "pitch": 26,
                "velocity": 64,
                "duration": 0.09999999999999787,
                "tempo": 120.0
            },
            {
                "start_time": 25.095454545454544,
                "end_time": 25.195454545454545,
                "pitch": 38,
                "velocity": 64,
                "duration": 0.10000000000000142,
                "tempo": 120.0
            },
            {
                "start_time": 25.195454545454545,
                "end_time": 25.295454545454543,
                "pitch": 38,
                "velocity": 64,
                "duration": 0.09999999999999787,
                "tempo": 120.0
            },
            {
                "start_time": 25.295454545454543,
                "end_time": 25.395454545454545,
                "pitch": 26,
                "velocity": 64,
                "duration": 0.10000000000000142,
                "tempo": 120.0
            },
            {
                "start_time": 25.395454545454545,
                "end_time": 25.495454545454542,
                "pitch": 28,
                "velocity": 64,
                "duration": 0.09999999999999787,
                "tempo": 120.0
            },
            {
                "start_time": 25.495454545454542,
                "end_time": 25.595454545454544,
                "pitch": 29,
                "velocity": 64,
                "duration": 0.10000000000000142,
                "tempo": 120.0
            },
            {
                "start_time": 25.595454545454544,
                "end_time": 25.69772727272727,
                "pitch": 33,
                "velocity": 64,
                "duration": 0.10227272727272663,
                "tempo": 120.0
            }
        ],
        "Electric Piano 1": [
            {
                "start_time": 0.00909090909090909,
                "end_time": 0.10909090909090909,
                "pitch": 67,
                "velocity": 64,
                "duration": 0.09999999999999999,
                "tempo": 120.0
            },
            {
                "start_time": 0.10909090909090909,
                "end_time": 0.20909090909090908,
                "pitch": 67,
                "velocity": 64,
                "duration": 0.09999999999999999,
                "tempo": 120.0
            },
            {
                "start_time": 0.20909090909090908,
                "end_time": 0.3090909090909091,
                "pitch": 67,
                "velocity": 64,
                "duration": 0.1,
                "tempo": 120.0
            },
            {
                "start_time": 0.3090909090909091,
                "end_time": 0.40909090909090906,
                "pitch": 69,
                "velocity": 64,
                "duration": 0.09999999999999998,
                "tempo": 120.0
            },
            {
                "start_time": 0.5045454545454545,
                "end_time": 0.6,
                "pitch": 55,
                "velocity": 64,
                "duration": 0.09545454545454546,
                "tempo": 120.0
            },
            {
                "start_time": 0.6,
                "end_time": 0.6954545454545454,
                "pitch": 55,
                "velocity": 64,
                "duration": 0.09545454545454546,
                "tempo": 120.0
            },
            {
                "start_time": 0.6954545454545454,
                "end_time": 0.7909090909090909,
                "pitch": 55,
                "velocity": 64,
                "duration": 0.09545454545454546,
                "tempo": 120.0
            },
            {
                "start_time": 0.7909090909090909,
                "end_time": 0.8954545454545454,
                "pitch": 57,
                "velocity": 64,
                "duration": 0.1045454545454545,
                "tempo": 120.0
            },
            {
                "start_time": 1.1068181818181817,
                "end_time": 1.2136363636363636,
                "pitch": 72,
                "velocity": 64,
                "duration": 0.10681818181818192,
                "tempo": 120.0
            },
            {
                "start_time": 1.2136363636363636,
                "end_time": 1.3113636363636363,
                "pitch": 72,
                "velocity": 64,
                "duration": 0.09772727272727266,
                "tempo": 120.0
            },
            {
                "start_time": 1.3113636363636363,
                "end_time": 1.409090909090909,
                "pitch": 72,
                "velocity": 64,
                "duration": 0.09772727272727266,
                "tempo": 120.0
            },
            {
                "start_time": 1.409090909090909,
                "end_time": 1.5068181818181818,
                "pitch": 74,
                "velocity": 64,
                "duration": 0.09772727272727288,
                "tempo": 120.0
            },
            {
                "start_time": 1.6045454545454545,
                "end_time": 1.7068181818181818,
                "pitch": 79,
                "velocity": 64,
                "duration": 0.10227272727272729,
                "tempo": 120.0
            },
            {
                "start_time": 1.7068181818181818,
                "end_time": 1.8068181818181817,
                "pitch": 79,
                "velocity": 64,
                "duration": 0.09999999999999987,
                "tempo": 120.0
            },
            {
                "start_time": 1.8068181818181817,
                "end_time": 1.9068181818181817,
                "pitch": 79,
                "velocity": 64,
                "duration": 0.10000000000000009,
                "tempo": 120.0
            },
            {
                "start_time": 1.9068181818181817,
                "end_time": 2.006818181818182,
                "pitch": 81,
                "velocity": 64,
                "duration": 0.10000000000000009,
                "tempo": 120.0
            },
            {
                "start_time": 2.106818181818182,
                "end_time": 2.2045454545454546,
                "pitch": 67,
                "velocity": 64,
                "duration": 0.09772727272727266,
                "tempo": 120.0
            },
            {
                "start_time": 2.2045454545454546,
                "end_time": 2.3022727272727272,
                "pitch": 67,
                "velocity": 64,
                "duration": 0.09772727272727266,
                "tempo": 120.0
            },
            {
                "start_time": 2.3022727272727272,
                "end_time": 2.4,
                "pitch": 67,
                "velocity": 64,
                "duration": 0.09772727272727266,
                "tempo": 120.0
            },
            {
                "start_time": 2.4,
                "end_time": 2.5045454545454544,
                "pitch": 69,
                "velocity": 64,
                "duration": 0.1045454545454545,
                "tempo": 120.0
            },
            {
                "start_time": 2.715909090909091,
                "end_time": 2.8227272727272728,
                "pitch": 60,
                "velocity": 64,
                "duration": 0.10681818181818192,
                "tempo": 120.0
            },
            {
                "start_time": 2.8227272727272728,
                "end_time": 2.9204545454545454,
                "pitch": 60,
                "velocity": 64,
                "duration": 0.09772727272727266,
                "tempo": 120.0
            },
            {
                "start_time": 2.9204545454545454,
                "end_time": 3.018181818181818,
                "pitch": 60,
                "velocity": 64,
                "duration": 0.09772727272727266,
                "tempo": 120.0
            },
            {
                "start_time": 3.018181818181818,
                "end_time": 3.1159090909090907,
                "pitch": 62,
                "velocity": 64,
                "duration": 0.09772727272727266,
                "tempo": 120.0
            }
        ],
        "Trumpet": [
            {
                "start_time": 3.2136363636363634,
                "end_time": 4.013636363636364,
                "pitch": 62,
                "velocity": 127,
                "duration": 0.8000000000000003,
                "tempo": 120.0
            },
            {
                "start_time": 4.013636363636364,
                "end_time": 4.8159090909090905,
                "pitch": 69,
                "velocity": 127,
                "duration": 0.8022727272727268,
                "tempo": 120.0
            },
            {
                "start_time": 4.8159090909090905,
                "end_time": 5.215909090909091,
                "pitch": 67,
                "velocity": 127,
                "duration": 0.40000000000000036,
                "tempo": 120.0
            },
            {
                "start_time": 5.215909090909091,
                "end_time": 5.618181818181818,
                "pitch": 65,
                "velocity": 127,
                "duration": 0.40227272727272734,
                "tempo": 120.0
            },
            {
                "start_time": 5.618181818181818,
                "end_time": 6.0227272727272725,
                "pitch": 64,
                "velocity": 127,
                "duration": 0.4045454545454543,
                "tempo": 120.0
            },
            {
                "start_time": 6.0227272727272725,
                "end_time": 6.422727272727273,
                "pitch": 65,
                "velocity": 127,
                "duration": 0.40000000000000036,
                "tempo": 120.0
            },
            {
                "start_time": 6.422727272727273,
                "end_time": 7.0249999999999995,
                "pitch": 64,
                "velocity": 127,
                "duration": 0.6022727272727266,
                "tempo": 120.0
            },
            {
                "start_time": 7.0249999999999995,
                "end_time": 7.225,
                "pitch": 62,
                "velocity": 127,
                "duration": 0.20000000000000018,
                "tempo": 120.0
            },
            {
                "start_time": 7.225,
                "end_time": 9.638636363636364,
                "pitch": 62,
                "velocity": 127,
                "duration": 2.413636363636364,
                "tempo": 120.0
            },
            {
                "start_time": 9.638636363636364,
                "end_time": 10.44090909090909,
                "pitch": 62,
                "velocity": 127,
                "duration": 0.8022727272727259,
                "tempo": 120.0
            },
            {
                "start_time": 10.44090909090909,
                "end_time": 11.245454545454544,
                "pitch": 69,
                "velocity": 127,
                "duration": 0.8045454545454547,
                "tempo": 120.0
            },
            {
                "start_time": 11.245454545454544,
                "end_time": 11.847727272727273,
                "pitch": 67,
                "velocity": 127,
                "duration": 0.6022727272727284,
                "tempo": 120.0
            },
            {
                "start_time": 11.847727272727273,
                "end_time": 12.452272727272726,
                "pitch": 65,
                "velocity": 127,
                "duration": 0.6045454545454536,
                "tempo": 120.0
            },
            {
                "start_time": 12.452272727272726,
                "end_time": 12.854545454545454,
                "pitch": 72,
                "velocity": 127,
                "duration": 0.40227272727272734,
                "tempo": 120.0
            },
            {
                "start_time": 12.854545454545454,
                "end_time": 16.070454545454545,
                "pitch": 69,
                "velocity": 127,
                "duration": 3.2159090909090917,
                "tempo": 120.0
            },
            {
                "start_time": 16.070454545454545,
                "end_time": 16.672727272727272,
                "pitch": 62,
                "velocity": 127,
                "duration": 0.6022727272727266,
                "tempo": 120.0
            },
            {
                "start_time": 16.672727272727272,
                "end_time": 17.272727272727273,
                "pitch": 64,
                "velocity": 127,
                "duration": 0.6000000000000014,
                "tempo": 120.0
            },
            {
                "start_time": 17.272727272727273,
                "end_time": 17.675,
                "pitch": 65,
                "velocity": 127,
                "duration": 0.40227272727272734,
                "tempo": 120.0
            },
            {
                "start_time": 17.675,
                "end_time": 18.277272727272727,
                "pitch": 64,
                "velocity": 127,
                "duration": 0.6022727272727266,
                "tempo": 120.0
            },
            {
                "start_time": 18.277272727272727,
                "end_time": 18.877272727272725,
                "pitch": 60,
                "velocity": 127,
                "duration": 0.5999999999999979,
                "tempo": 120.0
            },
            {
                "start_time": 18.877272727272725,
                "end_time": 19.277272727272727,
                "pitch": 67,
                "velocity": 127,
                "duration": 0.40000000000000213,
                "tempo": 120.0
            },
            {
                "start_time": 19.277272727272727,
                "end_time": 19.88181818181818,
                "pitch": 65,
                "velocity": 127,
                "duration": 0.6045454545454518,
                "tempo": 120.0
            },
            {
                "start_time": 19.88181818181818,
                "end_time": 20.48409090909091,
                "pitch": 67,
                "velocity": 127,
                "duration": 0.6022727272727302,
                "tempo": 120.0
            },
            {
                "start_time": 20.48409090909091,
                "end_time": 20.884090909090908,
                "pitch": 69,
                "velocity": 127,
                "duration": 0.3999999999999986,
                "tempo": 120.0
            },
            {
                "start_time": 20.884090909090908,
                "end_time": 21.48409090909091,
                "pitch": 67,
                "velocity": 127,
                "duration": 0.6000000000000014,
                "tempo": 120.0
            },
            {
                "start_time": 21.48409090909091,
                "end_time": 22.086363636363636,
                "pitch": 64,
                "velocity": 127,
                "duration": 0.6022727272727266,
                "tempo": 120.0
            },
            {
                "start_time": 22.086363636363636,
                "end_time": 22.488636363636363,
                "pitch": 60,
                "velocity": 127,
                "duration": 0.40227272727272734,
                "tempo": 120.0
            },
            {
                "start_time": 22.488636363636363,
                "end_time": 25.69772727272727,
                "pitch": 62,
                "velocity": 127,
                "duration": 3.209090909090907,
                "tempo": 120.0
            }
        ]
    }
}