{
    "track_id": "02 Constructor",
    "mood": "happy",
    "instruments": {
        "Lead 2 (sawtooth)": [
            {
                "start_time": 17.211363636363636,
                "end_time": 17.46590909090909,
                "pitch": 50,
                "velocity": 4,
                "duration": 0.25454545454545396,
                "tempo": 120.0
            },
            {
                "start_time": 17.46590909090909,
                "end_time": 17.643181818181816,
                "pitch": 52,
                "velocity": 4,
                "duration": 0.17727272727272592,
                "tempo": 120.0
            },
            {
                "start_time": 17.46590909090909,
                "end_time": 17.643181818181816,
                "pitch": 52,
                "velocity": 64,
                "duration": 0.17727272727272592,
                "tempo": 120.0
            },
            {
                "start_time": 17.706818181818182,
                "end_time": 18.05681818181818,
                "pitch": 53,
                "velocity": 64,
                "duration": 0.34999999999999787,
                "tempo": 120.0
            },
            {
                "start_time": 18.186363636363634,
                "end_time": 18.45,
                "pitch": 55,
                "velocity": 64,
                "duration": 0.26363636363636545,
                "tempo": 120.0
            },
            {
                "start_time": 18.545454545454543,
                "end_time": 18.80909090909091,
                "pitch": 55,
                "velocity": 64,
                "duration": 0.26363636363636545,
                "tempo": 120.0
            },
            {
                "start_time": 18.913636363636364,
                "end_time": 22.525,
                "pitch": 56,
                "velocity": 64,
                "duration": 3.6113636363636346,
                "tempo": 120.0
            },
            {
                "start_time": 22.74772727272727,
                "end_time": 23.097727272727273,
                "pitch": 56,
                "velocity": 4,
                "duration": 0.3500000000000014,
                "tempo": 120.0
            },
            {
                "start_time": 23.097727272727273,
                "end_time": 25.009090909090908,
                "pitch": 56,
                "velocity": 4,
                "duration": 1.9113636363636353,
                "tempo": 120.0
            }
        ],
        "Acoustic Grand Piano": [
            {
                "start_time": 0.011363636363636364,
                "end_time": 1.843181818181818,
                "pitch": 0,
                "velocity": 4,
                "duration": 1.8318181818181816,
                "tempo": 120.0
            },
            {
                "start_time": 1.8454545454545455,
                "end_time": 1.8727272727272726,
                "pitch": 28,
                "velocity": 101,
                "duration": 0.027272727272727115,
                "tempo": 120.0
            },
            {
                "start_time": 1.9613636363636362,
                "end_time": 1.9931818181818182,
                "pitch": 28,
                "velocity": 101,
                "duration": 0.03181818181818197,
                "tempo": 120.0
            },
            {
                "start_time": 2.0818181818181816,
                "end_time": 2.0954545454545452,
                "pitch": 28,
                "velocity": 64,
                "duration": 0.013636363636363669,
                "tempo": 120.0
            },
            {
                "start_time": 2.202272727272727,
                "end_time": 2.25,
                "pitch": 28,
                "velocity": 101,
                "duration": 0.04772727272727284,
                "tempo": 120.0
            },
            {
                "start_time": 2.440909090909091,
                "end_time": 2.4727272727272727,
                "pitch": 28,
                "velocity": 101,
                "duration": 0.031818181818181746,
                "tempo": 120.0
            },
            {
                "start_time": 2.561363636363636,
                "end_time": 2.5931818181818183,
                "pitch": 37,
                "velocity": 101,
                "duration": 0.03181818181818219,
                "tempo": 120.0
            },
            {
                "start_time": 2.684090909090909,
                "end_time": 2.7136363636363634,
                "pitch": 38,
                "velocity": 101,
                "duration": 0.02954545454545432,
                "tempo": 120.0
            },
            {
                "start_time": 2.8022727272727272,
                "end_time": 2.8499999999999996,
                "pitch": 33,
                "velocity": 101,
                "duration": 0.047727272727272396,
                "tempo": 120.0
            },
            {
                "start_time": 3.043181818181818,
                "end_time": 3.0545454545454542,
                "pitch": 33,
                "velocity": 64,
                "duration": 0.011363636363636243,
                "tempo": 120.0
            },
            {
                "start_time": 3.1636363636363636,
                "end_time": 3.209090909090909,
                "pitch": 35,
                "velocity": 101,
                "duration": 0.045454545454545414,
                "tempo": 120.0
            },
            {
                "start_time": 3.4,
                "end_time": 3.411363636363636,
                "pitch": 35,
                "velocity": 64,
                "duration": 0.011363636363636243,
                "tempo": 120.0
            },
            {
                "start_time": 3.518181818181818,
                "end_time": 3.5295454545454543,
                "pitch": 31,
                "velocity": 101,
                "duration": 0.011363636363636243,
                "tempo": 120.0
            },
            {
                "start_time": 3.631818181818182,
                "end_time": 3.7545454545454544,
                "pitch": 33,
                "velocity": 101,
                "duration": 0.12272727272727257,
                "tempo": 120.0
            },
            {
                "start_time": 3.756818181818182,
                "end_time": 3.7818181818181817,
                "pitch": 28,
                "velocity": 101,
                "duration": 0.02499999999999991,
                "tempo": 120.0
            },
            {
                "start_time": 3.875,
                "end_time": 3.9204545454545454,
                "pitch": 28,
                "velocity": 101,
                "duration": 0.045454545454545414,
                "tempo": 120.0
            },
            {
                "start_time": 4.120454545454545,
                "end_time": 4.163636363636363,
                "pitch": 28,
                "velocity": 101,
                "duration": 0.04318181818181799,
                "tempo": 120.0
            },
            {
                "start_time": 4.3545454545454545,
                "end_time": 4.384090909090909,
                "pitch": 28,
                "velocity": 101,
                "duration": 0.02954545454545432,
                "tempo": 120.0
            },
            {
                "start_time": 4.475,
                "end_time": 4.502272727272727,
                "pitch": 33,
                "velocity": 101,
                "duration": 0.027272727272727337,
                "tempo": 120.0
            },
            {
                "start_time": 4.588636363636364,
                "end_time": 4.620454545454545,
                "pitch": 35,
                "velocity": 101,
                "duration": 0.0318181818181813,
                "tempo": 120.0
            },
            {
                "start_time": 4.704545454545454,
                "end_time": 4.754545454545454,
                "pitch": 38,
                "velocity": 101,
                "duration": 0.04999999999999982,
                "tempo": 120.0
            },
            {
                "start_time": 4.947727272727272,
                "end_time": 4.959090909090909,
                "pitch": 38,
                "velocity": 64,
                "duration": 0.011363636363636687,
                "tempo": 120.0
            },
            {
                "start_time": 3.7545454545454544,
                "end_time": 5.113636363636363,
                "pitch": 40,
                "velocity": 101,
                "duration": 1.359090909090909,
                "tempo": 120.0
            },
            {
                "start_time": 5.0659090909090905,
                "end_time": 5.113636363636363,
                "pitch": 40,
                "velocity": 101,
                "duration": 0.04772727272727284,
                "tempo": 120.0
            },
            {
                "start_time": 5.302272727272727,
                "end_time": 5.3159090909090905,
                "pitch": 40,
                "velocity": 64,
                "duration": 0.013636363636363669,
                "tempo": 120.0
            },
            {
                "start_time": 5.418181818181818,
                "end_time": 5.45,
                "pitch": 31,
                "velocity": 101,
                "duration": 0.03181818181818219,
                "tempo": 120.0
            },
            {
                "start_time": 5.536363636363636,
                "end_time": 5.568181818181818,
                "pitch": 33,
                "velocity": 101,
                "duration": 0.03181818181818219,
                "tempo": 120.0
            },
            {
                "start_time": 5.656818181818181,
                "end_time": 5.6863636363636365,
                "pitch": 28,
                "velocity": 101,
                "duration": 0.029545454545455208,
                "tempo": 120.0
            },
            {
                "start_time": 5.7749999999999995,
                "end_time": 5.806818181818182,
                "pitch": 28,
                "velocity": 101,
                "duration": 0.03181818181818219,
                "tempo": 120.0
            },
            {
                "start_time": 5.8954545454545455,
                "end_time": 5.909090909090909,
                "pitch": 28,
                "velocity": 64,
                "duration": 0.013636363636363669,
                "tempo": 120.0
            },
            {
                "start_time": 6.015909090909091,
                "end_time": 6.0636363636363635,
                "pitch": 28,
                "velocity": 101,
                "duration": 0.04772727272727284,
                "tempo": 120.0
            },
            {
                "start_time": 6.254545454545454,
                "end_time": 6.286363636363636,
                "pitch": 28,
                "velocity": 101,
                "duration": 0.03181818181818219,
                "tempo": 120.0
            },
            {
                "start_time": 6.375,
                "end_time": 6.404545454545454,
                "pitch": 37,
                "velocity": 101,
                "duration": 0.02954545454545432,
                "tempo": 120.0
            },
            {
                "start_time": 6.495454545454545,
                "end_time": 6.5249999999999995,
                "pitch": 38,
                "velocity": 101,
                "duration": 0.02954545454545432,
                "tempo": 120.0
            },
            {
                "start_time": 6.613636363636363,
                "end_time": 6.663636363636363,
                "pitch": 33,
                "velocity": 101,
                "duration": 0.04999999999999982,
                "tempo": 120.0
            },
            {
                "start_time": 6.8545454545454545,
                "end_time": 6.868181818181818,
                "pitch": 33,
                "velocity": 64,
                "duration": 0.013636363636363669,
                "tempo": 120.0
            },
            {
                "start_time": 6.977272727272727,
                "end_time": 7.0227272727272725,
                "pitch": 35,
                "velocity": 101,
                "duration": 0.04545454545454586,
                "tempo": 120.0
            },
            {
                "start_time": 7.211363636363636,
                "end_time": 7.225,
                "pitch": 35,
                "velocity": 64,
                "duration": 0.013636363636363669,
                "tempo": 120.0
            },
            {
                "start_time": 7.329545454545454,
                "end_time": 7.343181818181818,
                "pitch": 31,
                "velocity": 101,
                "duration": 0.013636363636363669,
                "tempo": 120.0
            },
            {
                "start_time": 7.4431818181818175,
                "end_time": 7.5659090909090905,
                "pitch": 33,
                "velocity": 101,
                "duration": 0.12272727272727302,
                "tempo": 120.0
            },
            {
                "start_time": 7.5659090909090905,
                "end_time": 7.595454545454545,
                "pitch": 28,
                "velocity": 101,
                "duration": 0.02954545454545432,
                "tempo": 120.0
            },
            {
                "start_time": 7.686363636363636,
                "end_time": 7.7340909090909085,
                "pitch": 28,
                "velocity": 101,
                "duration": 0.04772727272727284,
                "tempo": 120.0
            },
            {
                "start_time": 7.934090909090909,
                "end_time": 7.9795454545454545,
                "pitch": 28,
                "velocity": 101,
                "duration": 0.04545454545454586,
                "tempo": 120.0
            },
            {
                "start_time": 8.174999999999999,
                "end_time": 8.202272727272726,
                "pitch": 28,
                "velocity": 101,
                "duration": 0.027272727272727337,
                "tempo": 120.0
            },
            {
                "start_time": 8.293181818181818,
                "end_time": 8.318181818181818,
                "pitch": 33,
                "velocity": 101,
                "duration": 0.025000000000000355,
                "tempo": 120.0
            },
            {
                "start_time": 8.406818181818181,
                "end_time": 8.436363636363636,
                "pitch": 35,
                "velocity": 101,
                "duration": 0.02954545454545432,
                "tempo": 120.0
            },
            {
                "start_time": 8.522727272727272,
                "end_time": 8.570454545454545,
                "pitch": 38,
                "velocity": 101,
                "duration": 0.04772727272727373,
                "tempo": 120.0
            },
            {
                "start_time": 8.763636363636364,
                "end_time": 8.777272727272727,
                "pitch": 38,
                "velocity": 64,
                "duration": 0.013636363636363669,
                "tempo": 120.0
            },
            {
                "start_time": 7.5659090909090905,
                "end_time": 8.931818181818182,
                "pitch": 40,
                "velocity": 101,
                "duration": 1.3659090909090912,
                "tempo": 120.0
            },
            {
                "start_time": 8.881818181818181,
                "end_time": 8.931818181818182,
                "pitch": 40,
                "velocity": 101,
                "duration": 0.05000000000000071,
                "tempo": 120.0
            },
            {
                "start_time": 9.118181818181817,
                "end_time": 9.134090909090908,
                "pitch": 40,
                "velocity": 64,
                "duration": 0.01590909090909065,
                "tempo": 120.0
            },
            {
                "start_time": 9.236363636363636,
                "end_time": 9.268181818181818,
                "pitch": 31,
                "velocity": 101,
                "duration": 0.0318181818181813,
                "tempo": 120.0
            },
            {
                "start_time": 9.352272727272727,
                "end_time": 9.384090909090908,
                "pitch": 33,
                "velocity": 101,
                "duration": 0.0318181818181813,
                "tempo": 120.0
            },
            {
                "start_time": 9.472727272727273,
                "end_time": 9.502272727272727,
                "pitch": 28,
                "velocity": 101,
                "duration": 0.02954545454545432,
                "tempo": 120.0
            },
            {
                "start_time": 9.59090909090909,
                "end_time": 9.622727272727273,
                "pitch": 28,
                "velocity": 101,
                "duration": 0.03181818181818308,
                "tempo": 120.0
            },
            {
                "start_time": 9.711363636363636,
                "end_time": 9.725,
                "pitch": 28,
                "velocity": 64,
                "duration": 0.013636363636363669,
                "tempo": 120.0
            },
            {
                "start_time": 9.831818181818182,
                "end_time": 9.879545454545454,
                "pitch": 28,
                "velocity": 101,
                "duration": 0.04772727272727195,
                "tempo": 120.0
            },
            {
                "start_time": 10.070454545454545,
                "end_time": 10.102272727272727,
                "pitch": 28,
                "velocity": 101,
                "duration": 0.0318181818181813,
                "tempo": 120.0
            },
            {
                "start_time": 10.19090909090909,
                "end_time": 10.222727272727273,
                "pitch": 37,
                "velocity": 101,
                "duration": 0.03181818181818308,
                "tempo": 120.0
            },
            {
                "start_time": 10.311363636363636,
                "end_time": 10.34090909090909,
                "pitch": 38,
                "velocity": 101,
                "duration": 0.02954545454545432,
                "tempo": 120.0
            },
            {
                "start_time": 10.429545454545455,
                "end_time": 10.479545454545454,
                "pitch": 33,
                "velocity": 101,
                "duration": 0.049999999999998934,
                "tempo": 120.0
            },
            {
                "start_time": 10.672727272727272,
                "end_time": 10.684090909090909,
                "pitch": 33,
                "velocity": 64,
                "duration": 0.011363636363636687,
                "tempo": 120.0
            },
            {
                "start_time": 10.793181818181818,
                "end_time": 10.838636363636363,
                "pitch": 35,
                "velocity": 101,
                "duration": 0.04545454545454497,
                "tempo": 120.0
            },
            {
                "start_time": 11.029545454545454,
                "end_time": 11.040909090909091,
                "pitch": 35,
                "velocity": 64,
                "duration": 0.011363636363636687,
                "tempo": 120.0
            },
            {
                "start_time": 11.147727272727272,
                "end_time": 11.159090909090908,
                "pitch": 31,
                "velocity": 101,
                "duration": 0.011363636363636687,
                "tempo": 120.0
            },
            {
                "start_time": 11.261363636363637,
                "end_time": 11.384090909090908,
                "pitch": 33,
                "velocity": 101,
                "duration": 0.12272727272727124,
                "tempo": 120.0
            },
            {
                "start_time": 11.386363636363637,
                "end_time": 11.411363636363635,
                "pitch": 28,
                "velocity": 101,
                "duration": 0.02499999999999858,
                "tempo": 120.0
            },
            {
                "start_time": 11.504545454545454,
                "end_time": 11.552272727272726,
                "pitch": 28,
                "velocity": 101,
                "duration": 0.04772727272727195,
                "tempo": 120.0
            },
            {
                "start_time": 11.754545454545454,
                "end_time": 11.797727272727272,
                "pitch": 28,
                "velocity": 101,
                "duration": 0.04318181818181799,
                "tempo": 120.0
            },
            {
                "start_time": 11.988636363636363,
                "end_time": 12.018181818181818,
                "pitch": 28,
                "velocity": 101,
                "duration": 0.02954545454545432,
                "tempo": 120.0
            },
            {
                "start_time": 12.10909090909091,
                "end_time": 12.136363636363635,
                "pitch": 33,
                "velocity": 101,
                "duration": 0.02727272727272556,
                "tempo": 120.0
            },
            {
                "start_time": 12.222727272727273,
                "end_time": 12.252272727272727,
                "pitch": 35,
                "velocity": 101,
                "duration": 0.02954545454545432,
                "tempo": 120.0
            },
            {
                "start_time": 12.338636363636363,
                "end_time": 12.386363636363635,
                "pitch": 38,
                "velocity": 101,
                "duration": 0.04772727272727195,
                "tempo": 120.0
            },
            {
                "start_time": 12.575,
                "end_time": 12.586363636363636,
                "pitch": 38,
                "velocity": 64,
                "duration": 0.011363636363636687,
                "tempo": 120.0
            },
            {
                "start_time": 11.384090909090908,
                "end_time": 12.738636363636363,
                "pitch": 40,
                "velocity": 101,
                "duration": 1.3545454545454554,
                "tempo": 120.0
            },
            {
                "start_time": 12.69090909090909,
                "end_time": 12.738636363636363,
                "pitch": 40,
                "velocity": 101,
                "duration": 0.04772727272727373,
                "tempo": 120.0
            },
            {
                "start_time": 12.929545454545455,
                "end_time": 12.943181818181818,
                "pitch": 40,
                "velocity": 64,
                "duration": 0.013636363636363669,
                "tempo": 120.0
            },
            {
                "start_time": 13.047727272727272,
                "end_time": 13.079545454545453,
                "pitch": 31,
                "velocity": 101,
                "duration": 0.0318181818181813,
                "tempo": 120.0
            },
            {
                "start_time": 13.165909090909091,
                "end_time": 13.2,
                "pitch": 33,
                "velocity": 101,
                "duration": 0.034090909090908283,
                "tempo": 120.0
            },
            {
                "start_time": 13.288636363636362,
                "end_time": 13.318181818181818,
                "pitch": 28,
                "velocity": 101,
                "duration": 0.029545454545456096,
                "tempo": 120.0
            },
            {
                "start_time": 13.409090909090908,
                "end_time": 13.438636363636363,
                "pitch": 28,
                "velocity": 101,
                "duration": 0.02954545454545432,
                "tempo": 120.0
            },
            {
                "start_time": 13.527272727272727,
                "end_time": 13.540909090909091,
                "pitch": 28,
                "velocity": 64,
                "duration": 0.013636363636363669,
                "tempo": 120.0
            },
            {
                "start_time": 13.647727272727272,
                "end_time": 13.695454545454545,
                "pitch": 28,
                "velocity": 101,
                "duration": 0.04772727272727373,
                "tempo": 120.0
            },
            {
                "start_time": 13.888636363636364,
                "end_time": 13.918181818181818,
                "pitch": 28,
                "velocity": 101,
                "duration": 0.02954545454545432,
                "tempo": 120.0
            },
            {
                "start_time": 14.009090909090908,
                "end_time": 14.038636363636362,
                "pitch": 37,
                "velocity": 101,
                "duration": 0.02954545454545432,
                "tempo": 120.0
            },
            {
                "start_time": 14.129545454545454,
                "end_time": 14.159090909090908,
                "pitch": 38,
                "velocity": 101,
                "duration": 0.02954545454545432,
                "tempo": 120.0
            },
            {
                "start_time": 14.247727272727271,
                "end_time": 14.295454545454545,
                "pitch": 33,
                "velocity": 101,
                "duration": 0.04772727272727373,
                "tempo": 120.0
            },
            {
                "start_time": 14.488636363636363,
                "end_time": 14.502272727272727,
                "pitch": 33,
                "velocity": 64,
                "duration": 0.013636363636363669,
                "tempo": 120.0
            },
            {
                "start_time": 14.609090909090908,
                "end_time": 14.656818181818181,
                "pitch": 35,
                "velocity": 101,
                "duration": 0.04772727272727373,
                "tempo": 120.0
            },
            {
                "start_time": 14.845454545454544,
                "end_time": 14.859090909090908,
                "pitch": 35,
                "velocity": 64,
                "duration": 0.013636363636363669,
                "tempo": 120.0
            },
            {
                "start_time": 14.963636363636363,
                "end_time": 14.975,
                "pitch": 31,
                "velocity": 101,
                "duration": 0.011363636363636687,
                "tempo": 120.0
            },
            {
                "start_time": 15.077272727272726,
                "end_time": 15.2,
                "pitch": 33,
                "velocity": 101,
                "duration": 0.12272727272727302,
                "tempo": 120.0
            },
            {
                "start_time": 15.2,
                "end_time": 15.227272727272727,
                "pitch": 28,
                "velocity": 101,
                "duration": 0.027272727272727337,
                "tempo": 120.0
            },
            {
                "start_time": 15.318181818181817,
                "end_time": 15.363636363636363,
                "pitch": 28,
                "velocity": 101,
                "duration": 0.045454545454546746,
                "tempo": 120.0
            },
            {
                "start_time": 15.559090909090909,
                "end_time": 15.604545454545454,
                "pitch": 28,
                "velocity": 101,
                "duration": 0.04545454545454497,
                "tempo": 120.0
            },
            {
                "start_time": 15.799999999999999,
                "end_time": 15.827272727272726,
                "pitch": 28,
                "velocity": 101,
                "duration": 0.027272727272727337,
                "tempo": 120.0
            },
            {
                "start_time": 15.922727272727272,
                "end_time": 15.947727272727272,
                "pitch": 33,
                "velocity": 101,
                "duration": 0.025000000000000355,
                "tempo": 120.0
            },
            {
                "start_time": 16.038636363636364,
                "end_time": 16.068181818181817,
                "pitch": 35,
                "velocity": 101,
                "duration": 0.029545454545452543,
                "tempo": 120.0
            },
            {
                "start_time": 16.15681818181818,
                "end_time": 16.204545454545453,
                "pitch": 38,
                "velocity": 101,
                "duration": 0.04772727272727195,
                "tempo": 120.0
            },
            {
                "start_time": 16.420454545454543,
                "end_time": 16.436363636363634,
                "pitch": 38,
                "velocity": 64,
                "duration": 0.01590909090909065,
                "tempo": 120.0
            },
            {
                "start_time": 15.2,
                "end_time": 16.611363636363635,
                "pitch": 40,
                "velocity": 101,
                "duration": 1.4113636363636353,
                "tempo": 120.0
            },
            {
                "start_time": 16.554545454545455,
                "end_time": 16.611363636363635,
                "pitch": 40,
                "velocity": 101,
                "duration": 0.05681818181817988,
                "tempo": 120.0
            },
            {
                "start_time": 16.827272727272728,
                "end_time": 16.845454545454544,
                "pitch": 40,
                "velocity": 64,
                "duration": 0.018181818181815856,
                "tempo": 120.0
            },
            {
                "start_time": 16.954545454545453,
                "end_time": 16.99090909090909,
                "pitch": 31,
                "velocity": 101,
                "duration": 0.036363636363635266,
                "tempo": 120.0
            },
            {
                "start_time": 17.081818181818182,
                "end_time": 17.118181818181817,
                "pitch": 33,
                "velocity": 101,
                "duration": 0.036363636363635266,
                "tempo": 120.0
            },
            {
                "start_time": 17.211363636363636,
                "end_time": 17.46590909090909,
                "pitch": 33,
                "velocity": 4,
                "duration": 0.25454545454545396,
                "tempo": 120.0
            },
            {
                "start_time": 17.46590909090909,
                "end_time": 17.643181818181816,
                "pitch": 40,
                "velocity": 4,
                "duration": 0.17727272727272592,
                "tempo": 120.0
            },
            {
                "start_time": 17.46590909090909,
                "end_time": 17.643181818181816,
                "pitch": 40,
                "velocity": 101,
                "duration": 0.17727272727272592,
                "tempo": 120.0
            },
            {
                "start_time": 17.706818181818182,
                "end_time": 18.05681818181818,
                "pitch": 38,
                "velocity": 101,
                "duration": 0.34999999999999787,
                "tempo": 120.0
            },
            {
                "start_time": 18.186363636363634,
                "end_time": 18.44772727272727,
                "pitch": 36,
                "velocity": 101,
                "duration": 0.2613636363636367,
                "tempo": 120.0
            },
            {
                "start_time": 18.545454545454543,
                "end_time": 18.80909090909091,
                "pitch": 34,
                "velocity": 101,
                "duration": 0.26363636363636545,
                "tempo": 120.0
            },
            {
                "start_time": 18.913636363636364,
                "end_time": 21.804545454545455,
                "pitch": 32,
                "velocity": 101,
                "duration": 2.8909090909090907,
                "tempo": 120.0
            },
            {
                "start_time": 22.74772727272727,
                "end_time": 23.097727272727273,
                "pitch": 32,
                "velocity": 4,
                "duration": 0.3500000000000014,
                "tempo": 120.0
            },
            {
                "start_time": 23.097727272727273,
                "end_time": 25.009090909090908,
                "pitch": 32,
                "velocity": 4,
                "duration": 1.9113636363636353,
                "tempo": 120.0
            },
            {
                "start_time": 25.009090909090908,
                "end_time": 25.038636363636364,
                "pitch": 28,
                "velocity": 101,
                "duration": 0.029545454545456096,
                "tempo": 120.0
            },
            {
                "start_time": 25.127272727272725,
                "end_time": 25.159090909090907,
                "pitch": 28,
                "velocity": 101,
                "duration": 0.0318181818181813,
                "tempo": 120.0
            }
        ],
        "Electric Piano 1": [
            {
                "start_time": 0.011363636363636364,
                "end_time": 1.843181818181818,
                "pitch": 0,
                "velocity": 4,
                "duration": 1.8318181818181816,
                "tempo": 120.0
            }
        ],
        "Harpsichord": [
            {
                "start_time": 1.8454545454545455,
                "end_time": 1.8727272727272726,
                "pitch": 57,
                "velocity": 80,
                "duration": 0.027272727272727115,
                "tempo": 120.0
            },
            {
                "start_time": 1.9636363636363636,
                "end_time": 1.9931818181818182,
                "pitch": 59,
                "velocity": 80,
                "duration": 0.02954545454545454,
                "tempo": 120.0
            },
            {
                "start_time": 2.0818181818181816,
                "end_time": 2.202272727272727,
                "pitch": 59,
                "velocity": 4,
                "duration": 0.12045454545454559,
                "tempo": 120.0
            },
            {
                "start_time": 2.202272727272727,
                "end_time": 2.234090909090909,
                "pitch": 59,
                "velocity": 80,
                "duration": 0.031818181818181746,
                "tempo": 120.0
            },
            {
                "start_time": 2.3227272727272728,
                "end_time": 2.561363636363636,
                "pitch": 59,
                "velocity": 4,
                "duration": 0.2386363636363633,
                "tempo": 120.0
            },
            {
                "start_time": 2.5636363636363635,
                "end_time": 2.5931818181818183,
                "pitch": 59,
                "velocity": 80,
                "duration": 0.029545454545454763,
                "tempo": 120.0
            },
            {
                "start_time": 2.684090909090909,
                "end_time": 3.1636363636363636,
                "pitch": 59,
                "velocity": 4,
                "duration": 0.4795454545454545,
                "tempo": 120.0
            },
            {
                "start_time": 3.1636363636363636,
                "end_time": 3.193181818181818,
                "pitch": 59,
                "velocity": 80,
                "duration": 0.02954545454545432,
                "tempo": 120.0
            },
            {
                "start_time": 3.2795454545454543,
                "end_time": 3.5159090909090907,
                "pitch": 59,
                "velocity": 4,
                "duration": 0.23636363636363633,
                "tempo": 120.0
            },
            {
                "start_time": 3.518181818181818,
                "end_time": 3.5454545454545454,
                "pitch": 59,
                "velocity": 80,
                "duration": 0.027272727272727337,
                "tempo": 120.0
            },
            {
                "start_time": 3.631818181818182,
                "end_time": 3.756818181818182,
                "pitch": 59,
                "velocity": 4,
                "duration": 0.125,
                "tempo": 120.0
            },
            {
                "start_time": 3.756818181818182,
                "end_time": 3.7818181818181817,
                "pitch": 59,
                "velocity": 80,
                "duration": 0.02499999999999991,
                "tempo": 120.0
            },
            {
                "start_time": 3.875,
                "end_time": 3.9045454545454543,
                "pitch": 59,
                "velocity": 80,
                "duration": 0.02954545454545432,
                "tempo": 120.0
            },
            {
                "start_time": 3.9977272727272726,
                "end_time": 4.120454545454545,
                "pitch": 59,
                "velocity": 4,
                "duration": 0.12272727272727257,
                "tempo": 120.0
            },
            {
                "start_time": 4.122727272727272,
                "end_time": 4.1477272727272725,
                "pitch": 59,
                "velocity": 80,
                "duration": 0.025000000000000355,
                "tempo": 120.0
            },
            {
                "start_time": 4.24090909090909,
                "end_time": 4.475,
                "pitch": 59,
                "velocity": 4,
                "duration": 0.23409090909090935,
                "tempo": 120.0
            },
            {
                "start_time": 4.475,
                "end_time": 4.502272727272727,
                "pitch": 59,
                "velocity": 80,
                "duration": 0.027272727272727337,
                "tempo": 120.0
            },
            {
                "start_time": 4.588636363636364,
                "end_time": 4.945454545454545,
                "pitch": 59,
                "velocity": 4,
                "duration": 0.3568181818181815,
                "tempo": 120.0
            },
            {
                "start_time": 4.945454545454545,
                "end_time": 4.977272727272727,
                "pitch": 55,
                "velocity": 4,
                "duration": 0.0318181818181813,
                "tempo": 120.0
            },
            {
                "start_time": 4.947727272727272,
                "end_time": 4.977272727272727,
                "pitch": 55,
                "velocity": 80,
                "duration": 0.02954545454545432,
                "tempo": 120.0
            },
            {
                "start_time": 5.0659090909090905,
                "end_time": 5.097727272727273,
                "pitch": 54,
                "velocity": 80,
                "duration": 0.03181818181818219,
                "tempo": 120.0
            },
            {
                "start_time": 5.1863636363636365,
                "end_time": 5.215909090909091,
                "pitch": 52,
                "velocity": 80,
                "duration": 0.02954545454545432,
                "tempo": 120.0
            },
            {
                "start_time": 5.304545454545455,
                "end_time": 5.334090909090909,
                "pitch": 54,
                "velocity": 80,
                "duration": 0.02954545454545432,
                "tempo": 120.0
            },
            {
                "start_time": 5.418181818181818,
                "end_time": 5.654545454545454,
                "pitch": 54,
                "velocity": 4,
                "duration": 0.23636363636363633,
                "tempo": 120.0
            },
            {
                "start_time": 5.656818181818181,
                "end_time": 5.6863636363636365,
                "pitch": 57,
                "velocity": 80,
                "duration": 0.029545454545455208,
                "tempo": 120.0
            },
            {
                "start_time": 5.7749999999999995,
                "end_time": 5.806818181818182,
                "pitch": 59,
                "velocity": 80,
                "duration": 0.03181818181818219,
                "tempo": 120.0
            },
            {
                "start_time": 5.8954545454545455,
                "end_time": 6.013636363636364,
                "pitch": 59,
                "velocity": 4,
                "duration": 0.11818181818181817,
                "tempo": 120.0
            },
            {
                "start_time": 6.015909090909091,
                "end_time": 6.045454545454545,
                "pitch": 59,
                "velocity": 80,
                "duration": 0.02954545454545432,
                "tempo": 120.0
            },
            {
                "start_time": 6.134090909090909,
                "end_time": 6.375,
                "pitch": 59,
                "velocity": 4,
                "duration": 0.24090909090909118,
                "tempo": 120.0
            },
            {
                "start_time": 6.375,
                "end_time": 6.406818181818181,
                "pitch": 59,
                "velocity": 80,
                "duration": 0.0318181818181813,
                "tempo": 120.0
            },
            {
                "start_time": 6.495454545454545,
                "end_time": 6.975,
                "pitch": 59,
                "velocity": 4,
                "duration": 0.4795454545454545,
                "tempo": 120.0
            },
            {
                "start_time": 6.977272727272727,
                "end_time": 7.004545454545454,
                "pitch": 59,
                "velocity": 80,
                "duration": 0.027272727272727337,
                "tempo": 120.0
            },
            {
                "start_time": 7.090909090909091,
                "end_time": 7.329545454545454,
                "pitch": 59,
                "velocity": 4,
                "duration": 0.2386363636363633,
                "tempo": 120.0
            },
            {
                "start_time": 7.331818181818181,
                "end_time": 7.3590909090909085,
                "pitch": 59,
                "velocity": 80,
                "duration": 0.027272727272727337,
                "tempo": 120.0
            },
            {
                "start_time": 7.4431818181818175,
                "end_time": 7.5659090909090905,
                "pitch": 59,
                "velocity": 4,
                "duration": 0.12272727272727302,
                "tempo": 120.0
            },
            {
                "start_time": 7.5681818181818175,
                "end_time": 7.595454545454545,
                "pitch": 59,
                "velocity": 80,
                "duration": 0.027272727272727337,
                "tempo": 120.0
            },
            {
                "start_time": 7.686363636363636,
                "end_time": 7.718181818181818,
                "pitch": 59,
                "velocity": 80,
                "duration": 0.03181818181818219,
                "tempo": 120.0
            },
            {
                "start_time": 7.809090909090909,
                "end_time": 7.934090909090909,
                "pitch": 59,
                "velocity": 4,
                "duration": 0.125,
                "tempo": 120.0
            },
            {
                "start_time": 7.934090909090909,
                "end_time": 7.963636363636363,
                "pitch": 59,
                "velocity": 80,
                "duration": 0.02954545454545432,
                "tempo": 120.0
            },
            {
                "start_time": 8.056818181818182,
                "end_time": 8.293181818181818,
                "pitch": 59,
                "velocity": 4,
                "duration": 0.23636363636363633,
                "tempo": 120.0
            },
            {
                "start_time": 8.295454545454545,
                "end_time": 8.318181818181818,
                "pitch": 59,
                "velocity": 80,
                "duration": 0.022727272727273373,
                "tempo": 120.0
            },
            {
                "start_time": 8.409090909090908,
                "end_time": 8.761363636363637,
                "pitch": 59,
                "velocity": 4,
                "duration": 0.3522727272727284,
                "tempo": 120.0
            },
            {
                "start_time": 8.761363636363637,
                "end_time": 8.763636363636364,
                "pitch": 64,
                "velocity": 4,
                "duration": 0.002272727272726982,
                "tempo": 120.0
            },
            {
                "start_time": 8.763636363636364,
                "end_time": 8.793181818181818,
                "pitch": 64,
                "velocity": 80,
                "duration": 0.02954545454545432,
                "tempo": 120.0
            },
            {
                "start_time": 8.881818181818181,
                "end_time": 9.002272727272727,
                "pitch": 64,
                "velocity": 4,
                "duration": 0.12045454545454604,
                "tempo": 120.0
            },
            {
                "start_time": 9.002272727272727,
                "end_time": 9.236363636363636,
                "pitch": 62,
                "velocity": 4,
                "duration": 0.23409090909090935,
                "tempo": 120.0
            },
            {
                "start_time": 9.002272727272727,
                "end_time": 9.236363636363636,
                "pitch": 62,
                "velocity": 80,
                "duration": 0.23409090909090935,
                "tempo": 120.0
            },
            {
                "start_time": 9.472727272727273,
                "end_time": 9.502272727272727,
                "pitch": 57,
                "velocity": 80,
                "duration": 0.02954545454545432,
                "tempo": 120.0
            },
            {
                "start_time": 9.59090909090909,
                "end_time": 9.622727272727273,
                "pitch": 59,
                "velocity": 80,
                "duration": 0.03181818181818308,
                "tempo": 120.0
            },
            {
                "start_time": 9.711363636363636,
                "end_time": 9.831818181818182,
                "pitch": 59,
                "velocity": 4,
                "duration": 0.12045454545454604,
                "tempo": 120.0
            },
            {
                "start_time": 9.831818181818182,
                "end_time": 9.861363636363636,
                "pitch": 59,
                "velocity": 80,
                "duration": 0.02954545454545432,
                "tempo": 120.0
            },
            {
                "start_time": 9.952272727272726,
                "end_time": 10.19090909090909,
                "pitch": 59,
                "velocity": 4,
                "duration": 0.2386363636363633,
                "tempo": 120.0
            },
            {
                "start_time": 10.19090909090909,
                "end_time": 10.222727272727273,
                "pitch": 59,
                "velocity": 80,
                "duration": 0.03181818181818308,
                "tempo": 120.0
            },
            {
                "start_time": 10.313636363636363,
                "end_time": 10.793181818181818,
                "pitch": 59,
                "velocity": 4,
                "duration": 0.4795454545454554,
                "tempo": 120.0
            },
            {
                "start_time": 10.793181818181818,
                "end_time": 10.822727272727272,
                "pitch": 59,
                "velocity": 80,
                "duration": 0.02954545454545432,
                "tempo": 120.0
            },
            {
                "start_time": 10.909090909090908,
                "end_time": 11.145454545454545,
                "pitch": 59,
                "velocity": 4,
                "duration": 0.23636363636363633,
                "tempo": 120.0
            },
            {
                "start_time": 11.147727272727272,
                "end_time": 11.174999999999999,
                "pitch": 59,
                "velocity": 80,
                "duration": 0.027272727272727337,
                "tempo": 120.0
            },
            {
                "start_time": 11.261363636363637,
                "end_time": 11.384090909090908,
                "pitch": 59,
                "velocity": 4,
                "duration": 0.12272727272727124,
                "tempo": 120.0
            },
            {
                "start_time": 11.386363636363637,
                "end_time": 11.411363636363635,
                "pitch": 59,
                "velocity": 80,
                "duration": 0.02499999999999858,
                "tempo": 120.0
            },
            {
                "start_time": 11.504545454545454,
                "end_time": 11.534090909090908,
                "pitch": 59,
                "velocity": 80,
                "duration": 0.02954545454545432,
                "tempo": 120.0
            },
            {
                "start_time": 11.627272727272727,
                "end_time": 11.752272727272727,
                "pitch": 59,
                "velocity": 4,
                "duration": 0.125,
                "tempo": 120.0
            },
            {
                "start_time": 11.754545454545454,
                "end_time": 11.779545454545454,
                "pitch": 59,
                "velocity": 80,
                "duration": 0.025000000000000355,
                "tempo": 120.0
            },
            {
                "start_time": 11.872727272727273,
                "end_time": 12.10681818181818,
                "pitch": 59,
                "velocity": 4,
                "duration": 0.23409090909090757,
                "tempo": 120.0
            },
            {
                "start_time": 12.10909090909091,
                "end_time": 12.136363636363635,
                "pitch": 59,
                "velocity": 80,
                "duration": 0.02727272727272556,
                "tempo": 120.0
            },
            {
                "start_time": 12.222727272727273,
                "end_time": 12.572727272727272,
                "pitch": 59,
                "velocity": 4,
                "duration": 0.34999999999999964,
                "tempo": 120.0
            },
            {
                "start_time": 12.572727272727272,
                "end_time": 12.604545454545454,
                "pitch": 55,
                "velocity": 4,
                "duration": 0.0318181818181813,
                "tempo": 120.0
            },
            {
                "start_time": 12.575,
                "end_time": 12.604545454545454,
                "pitch": 55,
                "velocity": 80,
                "duration": 0.02954545454545432,
                "tempo": 120.0
            },
            {
                "start_time": 12.69090909090909,
                "end_time": 12.720454545454546,
                "pitch": 54,
                "velocity": 80,
                "duration": 0.029545454545456096,
                "tempo": 120.0
            },
            {
                "start_time": 12.806818181818182,
                "end_time": 12.838636363636363,
                "pitch": 52,
                "velocity": 80,
                "duration": 0.0318181818181813,
                "tempo": 120.0
            },
            {
                "start_time": 12.929545454545455,
                "end_time": 12.959090909090909,
                "pitch": 54,
                "velocity": 80,
                "duration": 0.02954545454545432,
                "tempo": 120.0
            },
            {
                "start_time": 5.654545454545454,
                "end_time": 13.288636363636362,
                "pitch": 45,
                "velocity": 4,
                "duration": 7.634090909090908,
                "tempo": 120.0
            },
            {
                "start_time": 13.047727272727272,
                "end_time": 13.288636363636362,
                "pitch": 54,
                "velocity": 4,
                "duration": 0.2409090909090903,
                "tempo": 120.0
            },
            {
                "start_time": 13.288636363636362,
                "end_time": 13.318181818181818,
                "pitch": 57,
                "velocity": 80,
                "duration": 0.029545454545456096,
                "tempo": 120.0
            },
            {
                "start_time": 13.409090909090908,
                "end_time": 13.438636363636363,
                "pitch": 59,
                "velocity": 80,
                "duration": 0.02954545454545432,
                "tempo": 120.0
            },
            {
                "start_time": 13.527272727272727,
                "end_time": 13.647727272727272,
                "pitch": 59,
                "velocity": 4,
                "duration": 0.12045454545454426,
                "tempo": 120.0
            },
            {
                "start_time": 13.647727272727272,
                "end_time": 13.679545454545455,
                "pitch": 59,
                "velocity": 80,
                "duration": 0.03181818181818308,
                "tempo": 120.0
            },
            {
                "start_time": 13.768181818181818,
                "end_time": 14.006818181818181,
                "pitch": 59,
                "velocity": 4,
                "duration": 0.2386363636363633,
                "tempo": 120.0
            },
            {
                "start_time": 14.009090909090908,
                "end_time": 14.038636363636362,
                "pitch": 59,
                "velocity": 80,
                "duration": 0.02954545454545432,
                "tempo": 120.0
            },
            {
                "start_time": 14.129545454545454,
                "end_time": 14.609090909090908,
                "pitch": 59,
                "velocity": 4,
                "duration": 0.4795454545454536,
                "tempo": 120.0
            },
            {
                "start_time": 14.609090909090908,
                "end_time": 14.638636363636364,
                "pitch": 59,
                "velocity": 80,
                "duration": 0.029545454545456096,
                "tempo": 120.0
            },
            {
                "start_time": 14.725,
                "end_time": 14.963636363636363,
                "pitch": 59,
                "velocity": 4,
                "duration": 0.2386363636363633,
                "tempo": 120.0
            },
            {
                "start_time": 14.963636363636363,
                "end_time": 14.993181818181817,
                "pitch": 59,
                "velocity": 80,
                "duration": 0.02954545454545432,
                "tempo": 120.0
            },
            {
                "start_time": 15.077272727272726,
                "end_time": 15.2,
                "pitch": 59,
                "velocity": 4,
                "duration": 0.12272727272727302,
                "tempo": 120.0
            },
            {
                "start_time": 15.2,
                "end_time": 15.227272727272727,
                "pitch": 59,
                "velocity": 80,
                "duration": 0.027272727272727337,
                "tempo": 120.0
            },
            {
                "start_time": 15.318181818181817,
                "end_time": 15.347727272727273,
                "pitch": 59,
                "velocity": 80,
                "duration": 0.029545454545456096,
                "tempo": 120.0
            },
            {
                "start_time": 15.436363636363636,
                "end_time": 15.559090909090909,
                "pitch": 59,
                "velocity": 4,
                "duration": 0.12272727272727302,
                "tempo": 120.0
            },
            {
                "start_time": 15.559090909090909,
                "end_time": 15.586363636363636,
                "pitch": 59,
                "velocity": 80,
                "duration": 0.027272727272727337,
                "tempo": 120.0
            },
            {
                "start_time": 15.679545454545453,
                "end_time": 15.920454545454545,
                "pitch": 59,
                "velocity": 4,
                "duration": 0.24090909090909207,
                "tempo": 120.0
            },
            {
                "start_time": 15.922727272727272,
                "end_time": 15.947727272727272,
                "pitch": 59,
                "velocity": 80,
                "duration": 0.025000000000000355,
                "tempo": 120.0
            },
            {
                "start_time": 16.038636363636364,
                "end_time": 16.418181818181818,
                "pitch": 59,
                "velocity": 4,
                "duration": 0.37954545454545396,
                "tempo": 120.0
            },
            {
                "start_time": 16.418181818181818,
                "end_time": 16.420454545454543,
                "pitch": 64,
                "velocity": 4,
                "duration": 0.0022727272727252057,
                "tempo": 120.0
            },
            {
                "start_time": 16.420454545454543,
                "end_time": 16.454545454545453,
                "pitch": 64,
                "velocity": 80,
                "duration": 0.03409090909091006,
                "tempo": 120.0
            },
            {
                "start_time": 16.554545454545455,
                "end_time": 16.693181818181817,
                "pitch": 64,
                "velocity": 4,
                "duration": 0.1386363636363619,
                "tempo": 120.0
            },
            {
                "start_time": 16.693181818181817,
                "end_time": 16.956818181818182,
                "pitch": 62,
                "velocity": 4,
                "duration": 0.26363636363636545,
                "tempo": 120.0
            },
            {
                "start_time": 16.695454545454545,
                "end_time": 16.956818181818182,
                "pitch": 62,
                "velocity": 80,
                "duration": 0.2613636363636367,
                "tempo": 120.0
            },
            {
                "start_time": 25.009090909090908,
                "end_time": 25.038636363636364,
                "pitch": 57,
                "velocity": 80,
                "duration": 0.029545454545456096,
                "tempo": 120.0
            },
            {
                "start_time": 25.127272727272725,
                "end_time": 25.159090909090907,
                "pitch": 59,
                "velocity": 80,
                "duration": 0.0318181818181813,
                "tempo": 120.0
            }
        ]
    }
}