{
    "track_id": "02 Ice of Death",
    "mood": "happy",
    "instruments": {
        "French Horn": [
            {
                "start_time": 38.643181818181816,
                "end_time": 38.840909090909086,
                "pitch": 64,
                "velocity": 101,
                "duration": 0.19772727272727053,
                "tempo": 120.0
            },
            {
                "start_time": 38.84318181818182,
                "end_time": 39.24318181818182,
                "pitch": 64,
                "velocity": 101,
                "duration": 0.3999999999999986,
                "tempo": 120.0
            },
            {
                "start_time": 39.24545454545454,
                "end_time": 39.85681818181818,
                "pitch": 62,
                "velocity": 101,
                "duration": 0.6113636363636346,
                "tempo": 120.0
            },
            {
                "start_time": 39.85681818181818,
                "end_time": 41.05,
                "pitch": 62,
                "velocity": 101,
                "duration": 1.1931818181818201,
                "tempo": 120.0
            },
            {
                "start_time": 41.85454545454545,
                "end_time": 42.059090909090905,
                "pitch": 62,
                "velocity": 101,
                "duration": 0.20454545454545325,
                "tempo": 120.0
            },
            {
                "start_time": 42.06136363636364,
                "end_time": 42.465909090909086,
                "pitch": 62,
                "velocity": 101,
                "duration": 0.404545454545449,
                "tempo": 120.0
            },
            {
                "start_time": 42.46818181818182,
                "end_time": 43.06818181818181,
                "pitch": 60,
                "velocity": 101,
                "duration": 0.5999999999999943,
                "tempo": 120.0
            },
            {
                "start_time": 43.070454545454545,
                "end_time": 44.27045454545454,
                "pitch": 60,
                "velocity": 101,
                "duration": 1.1999999999999957,
                "tempo": 120.0
            },
            {
                "start_time": 45.074999999999996,
                "end_time": 45.275,
                "pitch": 64,
                "velocity": 101,
                "duration": 0.20000000000000284,
                "tempo": 120.0
            },
            {
                "start_time": 45.275,
                "end_time": 45.675,
                "pitch": 64,
                "velocity": 101,
                "duration": 0.3999999999999986,
                "tempo": 120.0
            },
            {
                "start_time": 45.675,
                "end_time": 46.28636363636363,
                "pitch": 62,
                "velocity": 101,
                "duration": 0.6113636363636346,
                "tempo": 120.0
            },
            {
                "start_time": 46.28636363636363,
                "end_time": 47.47954545454545,
                "pitch": 62,
                "velocity": 101,
                "duration": 1.1931818181818201,
                "tempo": 120.0
            },
            {
                "start_time": 48.28181818181818,
                "end_time": 48.48181818181818,
                "pitch": 62,
                "velocity": 101,
                "duration": 0.19999999999999574,
                "tempo": 120.0
            },
            {
                "start_time": 48.48409090909091,
                "end_time": 48.89090909090909,
                "pitch": 62,
                "velocity": 101,
                "duration": 0.4068181818181813,
                "tempo": 120.0
            },
            {
                "start_time": 48.89090909090909,
                "end_time": 49.49545454545454,
                "pitch": 60,
                "velocity": 101,
                "duration": 0.6045454545454518,
                "tempo": 120.0
            },
            {
                "start_time": 49.49772727272727,
                "end_time": 50.699999999999996,
                "pitch": 60,
                "velocity": 101,
                "duration": 1.202272727272728,
                "tempo": 120.0
            },
            {
                "start_time": 51.50681818181818,
                "end_time": 51.70454545454545,
                "pitch": 76,
                "velocity": 101,
                "duration": 0.19772727272727053,
                "tempo": 120.0
            },
            {
                "start_time": 51.70681818181818,
                "end_time": 52.10681818181818,
                "pitch": 76,
                "velocity": 101,
                "duration": 0.3999999999999986,
                "tempo": 120.0
            },
            {
                "start_time": 52.10681818181818,
                "end_time": 52.720454545454544,
                "pitch": 74,
                "velocity": 101,
                "duration": 0.6136363636363669,
                "tempo": 120.0
            },
            {
                "start_time": 52.720454545454544,
                "end_time": 53.913636363636364,
                "pitch": 74,
                "velocity": 101,
                "duration": 1.1931818181818201,
                "tempo": 120.0
            },
            {
                "start_time": 54.71818181818182,
                "end_time": 54.918181818181814,
                "pitch": 74,
                "velocity": 101,
                "duration": 0.19999999999999574,
                "tempo": 120.0
            },
            {
                "start_time": 54.918181818181814,
                "end_time": 55.31818181818181,
                "pitch": 74,
                "velocity": 101,
                "duration": 0.3999999999999986,
                "tempo": 120.0
            },
            {
                "start_time": 55.31818181818181,
                "end_time": 55.929545454545455,
                "pitch": 72,
                "velocity": 101,
                "duration": 0.6113636363636417,
                "tempo": 120.0
            },
            {
                "start_time": 55.929545454545455,
                "end_time": 57.12272727272727,
                "pitch": 72,
                "velocity": 101,
                "duration": 1.193181818181813,
                "tempo": 120.0
            },
            {
                "start_time": 57.93636363636363,
                "end_time": 58.13409090909091,
                "pitch": 76,
                "velocity": 101,
                "duration": 0.19772727272727764,
                "tempo": 120.0
            },
            {
                "start_time": 58.13636363636363,
                "end_time": 58.53636363636363,
                "pitch": 76,
                "velocity": 101,
                "duration": 0.3999999999999986,
                "tempo": 120.0
            },
            {
                "start_time": 58.53636363636363,
                "end_time": 59.13636363636363,
                "pitch": 74,
                "velocity": 101,
                "duration": 0.6000000000000014,
                "tempo": 120.0
            },
            {
                "start_time": 59.13636363636363,
                "end_time": 60.340909090909086,
                "pitch": 74,
                "velocity": 101,
                "duration": 1.2045454545454533,
                "tempo": 120.0
            },
            {
                "start_time": 61.143181818181816,
                "end_time": 61.34318181818182,
                "pitch": 74,
                "velocity": 101,
                "duration": 0.20000000000000284,
                "tempo": 120.0
            },
            {
                "start_time": 61.34318181818182,
                "end_time": 61.74318181818182,
                "pitch": 74,
                "velocity": 101,
                "duration": 0.3999999999999986,
                "tempo": 120.0
            },
            {
                "start_time": 61.74545454545454,
                "end_time": 62.35681818181818,
                "pitch": 72,
                "velocity": 101,
                "duration": 0.6113636363636346,
                "tempo": 120.0
            },
            {
                "start_time": 62.35681818181818,
                "end_time": 64.35454545454544,
                "pitch": 72,
                "velocity": 101,
                "duration": 1.9977272727272677,
                "tempo": 120.0
            }
        ],
        "Vibraphone": [
            {
                "start_time": 0.03636363636363636,
                "end_time": 0.1318181818181818,
                "pitch": 69,
                "velocity": 64,
                "duration": 0.09545454545454544,
                "tempo": 120.0
            },
            {
                "start_time": 0.1340909090909091,
                "end_time": 0.23409090909090907,
                "pitch": 76,
                "velocity": 64,
                "duration": 0.09999999999999998,
                "tempo": 120.0
            },
            {
                "start_time": 0.23409090909090907,
                "end_time": 0.3318181818181818,
                "pitch": 72,
                "velocity": 64,
                "duration": 0.09772727272727272,
                "tempo": 120.0
            },
            {
                "start_time": 0.33409090909090905,
                "end_time": 0.4340909090909091,
                "pitch": 76,
                "velocity": 64,
                "duration": 0.10000000000000003,
                "tempo": 120.0
            },
            {
                "start_time": 0.4340909090909091,
                "end_time": 0.5318181818181817,
                "pitch": 69,
                "velocity": 64,
                "duration": 0.09772727272727266,
                "tempo": 120.0
            },
            {
                "start_time": 0.5340909090909091,
                "end_time": 0.634090909090909,
                "pitch": 76,
                "velocity": 64,
                "duration": 0.09999999999999998,
                "tempo": 120.0
            },
            {
                "start_time": 0.634090909090909,
                "end_time": 0.734090909090909,
                "pitch": 72,
                "velocity": 64,
                "duration": 0.09999999999999998,
                "tempo": 120.0
            },
            {
                "start_time": 0.734090909090909,
                "end_time": 0.8340909090909091,
                "pitch": 76,
                "velocity": 64,
                "duration": 0.10000000000000009,
                "tempo": 120.0
            },
            {
                "start_time": 0.8363636363636363,
                "end_time": 0.9340909090909091,
                "pitch": 69,
                "velocity": 64,
                "duration": 0.09772727272727277,
                "tempo": 120.0
            },
            {
                "start_time": 0.9340909090909091,
                "end_time": 1.034090909090909,
                "pitch": 76,
                "velocity": 64,
                "duration": 0.09999999999999987,
                "tempo": 120.0
            },
            {
                "start_time": 1.0363636363636364,
                "end_time": 1.134090909090909,
                "pitch": 72,
                "velocity": 64,
                "duration": 0.09772727272727266,
                "tempo": 120.0
            },
            {
                "start_time": 1.134090909090909,
                "end_time": 1.2340909090909091,
                "pitch": 76,
                "velocity": 64,
                "duration": 0.10000000000000009,
                "tempo": 120.0
            },
            {
                "start_time": 1.2363636363636363,
                "end_time": 1.3363636363636362,
                "pitch": 69,
                "velocity": 64,
                "duration": 0.09999999999999987,
                "tempo": 120.0
            },
            {
                "start_time": 1.3363636363636362,
                "end_time": 1.4386363636363635,
                "pitch": 76,
                "velocity": 64,
                "duration": 0.10227272727272729,
                "tempo": 120.0
            },
            {
                "start_time": 1.440909090909091,
                "end_time": 1.5431818181818182,
                "pitch": 72,
                "velocity": 64,
                "duration": 0.10227272727272729,
                "tempo": 120.0
            },
            {
                "start_time": 1.5431818181818182,
                "end_time": 1.6454545454545453,
                "pitch": 76,
                "velocity": 64,
                "duration": 0.10227272727272707,
                "tempo": 120.0
            },
            {
                "start_time": 1.6477272727272727,
                "end_time": 1.7431818181818182,
                "pitch": 67,
                "velocity": 64,
                "duration": 0.09545454545454546,
                "tempo": 120.0
            },
            {
                "start_time": 1.7431818181818182,
                "end_time": 1.843181818181818,
                "pitch": 74,
                "velocity": 64,
                "duration": 0.09999999999999987,
                "tempo": 120.0
            },
            {
                "start_time": 1.843181818181818,
                "end_time": 1.9386363636363635,
                "pitch": 71,
                "velocity": 64,
                "duration": 0.09545454545454546,
                "tempo": 120.0
            },
            {
                "start_time": 1.940909090909091,
                "end_time": 2.0386363636363636,
                "pitch": 74,
                "velocity": 64,
                "duration": 0.09772727272727266,
                "tempo": 120.0
            },
            {
                "start_time": 2.0386363636363636,
                "end_time": 2.1409090909090907,
                "pitch": 67,
                "velocity": 64,
                "duration": 0.10227272727272707,
                "tempo": 120.0
            },
            {
                "start_time": 2.1409090909090907,
                "end_time": 2.243181818181818,
                "pitch": 74,
                "velocity": 64,
                "duration": 0.10227272727272751,
                "tempo": 120.0
            },
            {
                "start_time": 2.245454545454545,
                "end_time": 2.3454545454545452,
                "pitch": 71,
                "velocity": 64,
                "duration": 0.10000000000000009,
                "tempo": 120.0
            },
            {
                "start_time": 2.3477272727272727,
                "end_time": 2.4499999999999997,
                "pitch": 74,
                "velocity": 64,
                "duration": 0.10227272727272707,
                "tempo": 120.0
            },
            {
                "start_time": 2.4499999999999997,
                "end_time": 2.55,
                "pitch": 67,
                "velocity": 64,
                "duration": 0.10000000000000009,
                "tempo": 120.0
            },
            {
                "start_time": 2.55,
                "end_time": 2.65,
                "pitch": 74,
                "velocity": 64,
                "duration": 0.10000000000000009,
                "tempo": 120.0
            },
            {
                "start_time": 2.6522727272727273,
                "end_time": 2.75,
                "pitch": 71,
                "velocity": 64,
                "duration": 0.09772727272727266,
                "tempo": 120.0
            },
            {
                "start_time": 2.75,
                "end_time": 2.8499999999999996,
                "pitch": 74,
                "velocity": 64,
                "duration": 0.09999999999999964,
                "tempo": 120.0
            },
            {
                "start_time": 2.8499999999999996,
                "end_time": 2.9499999999999997,
                "pitch": 67,
                "velocity": 64,
                "duration": 0.10000000000000009,
                "tempo": 120.0
            },
            {
                "start_time": 2.9499999999999997,
                "end_time": 3.05,
                "pitch": 74,
                "velocity": 64,
                "duration": 0.10000000000000009,
                "tempo": 120.0
            },
            {
                "start_time": 3.0522727272727272,
                "end_time": 3.15,
                "pitch": 71,
                "velocity": 64,
                "duration": 0.09772727272727266,
                "tempo": 120.0
            },
            {
                "start_time": 3.15,
                "end_time": 3.252272727272727,
                "pitch": 74,
                "velocity": 64,
                "duration": 0.10227272727272707,
                "tempo": 120.0
            },
            {
                "start_time": 3.252272727272727,
                "end_time": 3.3499999999999996,
                "pitch": 69,
                "velocity": 64,
                "duration": 0.09772727272727266,
                "tempo": 120.0
            },
            {
                "start_time": 3.352272727272727,
                "end_time": 3.452272727272727,
                "pitch": 76,
                "velocity": 64,
                "duration": 0.10000000000000009,
                "tempo": 120.0
            },
            {
                "start_time": 3.452272727272727,
                "end_time": 3.5522727272727272,
                "pitch": 72,
                "velocity": 64,
                "duration": 0.10000000000000009,
                "tempo": 120.0
            },
            {
                "start_time": 3.5522727272727272,
                "end_time": 3.6545454545454543,
                "pitch": 76,
                "velocity": 64,
                "duration": 0.10227272727272707,
                "tempo": 120.0
            },
            {
                "start_time": 3.6545454545454543,
                "end_time": 3.752272727272727,
                "pitch": 69,
                "velocity": 64,
                "duration": 0.09772727272727266,
                "tempo": 120.0
            },
            {
                "start_time": 3.7545454545454544,
                "end_time": 3.8545454545454545,
                "pitch": 76,
                "velocity": 64,
                "duration": 0.10000000000000009,
                "tempo": 120.0
            },
            {
                "start_time": 3.8545454545454545,
                "end_time": 3.954545454545454,
                "pitch": 72,
                "velocity": 64,
                "duration": 0.09999999999999964,
                "tempo": 120.0
            },
            {
                "start_time": 3.954545454545454,
                "end_time": 4.054545454545455,
                "pitch": 76,
                "velocity": 64,
                "duration": 0.10000000000000053,
                "tempo": 120.0
            },
            {
                "start_time": 4.056818181818182,
                "end_time": 4.154545454545454,
                "pitch": 69,
                "velocity": 64,
                "duration": 0.09772727272727266,
                "tempo": 120.0
            },
            {
                "start_time": 4.154545454545454,
                "end_time": 4.254545454545454,
                "pitch": 76,
                "velocity": 64,
                "duration": 0.09999999999999964,
                "tempo": 120.0
            },
            {
                "start_time": 4.254545454545454,
                "end_time": 4.3545454545454545,
                "pitch": 72,
                "velocity": 64,
                "duration": 0.10000000000000053,
                "tempo": 120.0
            },
            {
                "start_time": 4.3545454545454545,
                "end_time": 4.454545454545454,
                "pitch": 76,
                "velocity": 64,
                "duration": 0.09999999999999964,
                "tempo": 120.0
            },
            {
                "start_time": 4.456818181818182,
                "end_time": 4.554545454545455,
                "pitch": 69,
                "velocity": 64,
                "duration": 0.09772727272727266,
                "tempo": 120.0
            },
            {
                "start_time": 4.556818181818182,
                "end_time": 4.656818181818181,
                "pitch": 76,
                "velocity": 64,
                "duration": 0.09999999999999964,
                "tempo": 120.0
            },
            {
                "start_time": 4.656818181818181,
                "end_time": 4.756818181818182,
                "pitch": 72,
                "velocity": 64,
                "duration": 0.10000000000000053,
                "tempo": 120.0
            },
            {
                "start_time": 4.756818181818182,
                "end_time": 4.8590909090909085,
                "pitch": 76,
                "velocity": 64,
                "duration": 0.10227272727272663,
                "tempo": 120.0
            },
            {
                "start_time": 4.8590909090909085,
                "end_time": 4.956818181818182,
                "pitch": 67,
                "velocity": 64,
                "duration": 0.09772727272727355,
                "tempo": 120.0
            },
            {
                "start_time": 4.959090909090909,
                "end_time": 5.059090909090909,
                "pitch": 74,
                "velocity": 64,
                "duration": 0.09999999999999964,
                "tempo": 120.0
            },
            {
                "start_time": 5.059090909090909,
                "end_time": 5.156818181818181,
                "pitch": 71,
                "velocity": 64,
                "duration": 0.09772727272727266,
                "tempo": 120.0
            },
            {
                "start_time": 5.159090909090909,
                "end_time": 5.259090909090909,
                "pitch": 74,
                "velocity": 64,
                "duration": 0.09999999999999964,
                "tempo": 120.0
            },
            {
                "start_time": 5.259090909090909,
                "end_time": 5.3590909090909085,
                "pitch": 67,
                "velocity": 64,
                "duration": 0.09999999999999964,
                "tempo": 120.0
            },
            {
                "start_time": 5.3590909090909085,
                "end_time": 5.461363636363636,
                "pitch": 74,
                "velocity": 64,
                "duration": 0.10227272727272751,
                "tempo": 120.0
            },
            {
                "start_time": 5.461363636363636,
                "end_time": 5.5613636363636365,
                "pitch": 71,
                "velocity": 64,
                "duration": 0.10000000000000053,
                "tempo": 120.0
            },
            {
                "start_time": 5.5613636363636365,
                "end_time": 5.661363636363636,
                "pitch": 74,
                "velocity": 64,
                "duration": 0.09999999999999964,
                "tempo": 120.0
            },
            {
                "start_time": 5.663636363636363,
                "end_time": 5.761363636363636,
                "pitch": 67,
                "velocity": 64,
                "duration": 0.09772727272727266,
                "tempo": 120.0
            },
            {
                "start_time": 5.761363636363636,
                "end_time": 5.863636363636363,
                "pitch": 74,
                "velocity": 64,
                "duration": 0.10227272727272751,
                "tempo": 120.0
            },
            {
                "start_time": 5.863636363636363,
                "end_time": 5.961363636363636,
                "pitch": 71,
                "velocity": 64,
                "duration": 0.09772727272727266,
                "tempo": 120.0
            },
            {
                "start_time": 5.961363636363636,
                "end_time": 6.0613636363636365,
                "pitch": 74,
                "velocity": 64,
                "duration": 0.10000000000000053,
                "tempo": 120.0
            },
            {
                "start_time": 6.0636363636363635,
                "end_time": 6.161363636363636,
                "pitch": 67,
                "velocity": 64,
                "duration": 0.09772727272727266,
                "tempo": 120.0
            },
            {
                "start_time": 6.163636363636363,
                "end_time": 6.263636363636364,
                "pitch": 74,
                "velocity": 64,
                "duration": 0.10000000000000053,
                "tempo": 120.0
            },
            {
                "start_time": 6.265909090909091,
                "end_time": 6.363636363636363,
                "pitch": 71,
                "velocity": 64,
                "duration": 0.09772727272727266,
                "tempo": 120.0
            },
            {
                "start_time": 6.36590909090909,
                "end_time": 6.465909090909091,
                "pitch": 74,
                "velocity": 64,
                "duration": 0.10000000000000053,
                "tempo": 120.0
            },
            {
                "start_time": 6.468181818181818,
                "end_time": 6.5659090909090905,
                "pitch": 65,
                "velocity": 64,
                "duration": 0.09772727272727266,
                "tempo": 120.0
            },
            {
                "start_time": 6.5659090909090905,
                "end_time": 6.668181818181818,
                "pitch": 72,
                "velocity": 64,
                "duration": 0.10227272727272751,
                "tempo": 120.0
            },
            {
                "start_time": 6.668181818181818,
                "end_time": 6.768181818181818,
                "pitch": 69,
                "velocity": 64,
                "duration": 0.09999999999999964,
                "tempo": 120.0
            },
            {
                "start_time": 6.768181818181818,
                "end_time": 6.868181818181818,
                "pitch": 72,
                "velocity": 64,
                "duration": 0.10000000000000053,
                "tempo": 120.0
            },
            {
                "start_time": 6.870454545454545,
                "end_time": 6.968181818181818,
                "pitch": 65,
                "velocity": 64,
                "duration": 0.09772727272727266,
                "tempo": 120.0
            },
            {
                "start_time": 6.968181818181818,
                "end_time": 7.0681818181818175,
                "pitch": 72,
                "velocity": 64,
                "duration": 0.09999999999999964,
                "tempo": 120.0
            },
            {
                "start_time": 7.070454545454545,
                "end_time": 7.168181818181818,
                "pitch": 69,
                "velocity": 64,
                "duration": 0.09772727272727266,
                "tempo": 120.0
            },
            {
                "start_time": 7.170454545454545,
                "end_time": 7.268181818181818,
                "pitch": 72,
                "velocity": 64,
                "duration": 0.09772727272727266,
                "tempo": 120.0
            },
            {
                "start_time": 7.2704545454545455,
                "end_time": 7.370454545454545,
                "pitch": 65,
                "velocity": 64,
                "duration": 0.09999999999999964,
                "tempo": 120.0
            },
            {
                "start_time": 7.370454545454545,
                "end_time": 7.470454545454545,
                "pitch": 72,
                "velocity": 64,
                "duration": 0.09999999999999964,
                "tempo": 120.0
            },
            {
                "start_time": 7.472727272727273,
                "end_time": 7.570454545454545,
                "pitch": 69,
                "velocity": 64,
                "duration": 0.09772727272727266,
                "tempo": 120.0
            },
            {
                "start_time": 7.572727272727272,
                "end_time": 7.672727272727272,
                "pitch": 72,
                "velocity": 64,
                "duration": 0.09999999999999964,
                "tempo": 120.0
            },
            {
                "start_time": 7.672727272727272,
                "end_time": 7.7727272727272725,
                "pitch": 65,
                "velocity": 64,
                "duration": 0.10000000000000053,
                "tempo": 120.0
            },
            {
                "start_time": 7.7727272727272725,
                "end_time": 7.872727272727272,
                "pitch": 72,
                "velocity": 64,
                "duration": 0.09999999999999964,
                "tempo": 120.0
            },
            {
                "start_time": 7.872727272727272,
                "end_time": 7.972727272727273,
                "pitch": 69,
                "velocity": 64,
                "duration": 0.10000000000000053,
                "tempo": 120.0
            },
            {
                "start_time": 7.972727272727273,
                "end_time": 8.072727272727272,
                "pitch": 72,
                "velocity": 64,
                "duration": 0.09999999999999964,
                "tempo": 120.0
            },
            {
                "start_time": 8.075,
                "end_time": 8.172727272727272,
                "pitch": 67,
                "velocity": 64,
                "duration": 0.09772727272727266,
                "tempo": 120.0
            },
            {
                "start_time": 8.172727272727272,
                "end_time": 8.272727272727272,
                "pitch": 74,
                "velocity": 64,
                "duration": 0.09999999999999964,
                "tempo": 120.0
            },
            {
                "start_time": 8.275,
                "end_time": 8.372727272727273,
                "pitch": 71,
                "velocity": 64,
                "duration": 0.09772727272727266,
                "tempo": 120.0
            },
            {
                "start_time": 8.372727272727273,
                "end_time": 8.472727272727273,
                "pitch": 74,
                "velocity": 64,
                "duration": 0.09999999999999964,
                "tempo": 120.0
            },
            {
                "start_time": 8.475,
                "end_time": 8.572727272727272,
                "pitch": 67,
                "velocity": 64,
                "duration": 0.09772727272727266,
                "tempo": 120.0
            },
            {
                "start_time": 8.575,
                "end_time": 8.674999999999999,
                "pitch": 74,
                "velocity": 64,
                "duration": 0.09999999999999964,
                "tempo": 120.0
            },
            {
                "start_time": 8.677272727272728,
                "end_time": 8.775,
                "pitch": 71,
                "velocity": 64,
                "duration": 0.09772727272727266,
                "tempo": 120.0
            },
            {
                "start_time": 8.775,
                "end_time": 8.877272727272727,
                "pitch": 74,
                "velocity": 64,
                "duration": 0.10227272727272663,
                "tempo": 120.0
            },
            {
                "start_time": 8.877272727272727,
                "end_time": 8.979545454545454,
                "pitch": 67,
                "velocity": 64,
                "duration": 0.10227272727272663,
                "tempo": 120.0
            },
            {
                "start_time": 8.979545454545454,
                "end_time": 9.081818181818182,
                "pitch": 74,
                "velocity": 64,
                "duration": 0.1022727272727284,
                "tempo": 120.0
            },
            {
                "start_time": 9.084090909090909,
                "end_time": 9.184090909090909,
                "pitch": 71,
                "velocity": 64,
                "duration": 0.09999999999999964,
                "tempo": 120.0
            },
            {
                "start_time": 9.186363636363636,
                "end_time": 9.288636363636364,
                "pitch": 74,
                "velocity": 64,
                "duration": 0.1022727272727284,
                "tempo": 120.0
            },
            {
                "start_time": 9.288636363636364,
                "end_time": 9.388636363636364,
                "pitch": 67,
                "velocity": 64,
                "duration": 0.09999999999999964,
                "tempo": 120.0
            },
            {
                "start_time": 9.388636363636364,
                "end_time": 9.488636363636363,
                "pitch": 74,
                "velocity": 64,
                "duration": 0.09999999999999964,
                "tempo": 120.0
            },
            {
                "start_time": 9.49090909090909,
                "end_time": 9.59090909090909,
                "pitch": 71,
                "velocity": 64,
                "duration": 0.09999999999999964,
                "tempo": 120.0
            },
            {
                "start_time": 9.59090909090909,
                "end_time": 9.693181818181818,
                "pitch": 74,
                "velocity": 64,
                "duration": 0.1022727272727284,
                "tempo": 120.0
            },
            {
                "start_time": 9.693181818181818,
                "end_time": 9.788636363636364,
                "pitch": 64,
                "velocity": 64,
                "duration": 0.09545454545454568,
                "tempo": 120.0
            },
            {
                "start_time": 9.788636363636364,
                "end_time": 9.888636363636364,
                "pitch": 71,
                "velocity": 64,
                "duration": 0.09999999999999964,
                "tempo": 120.0
            },
            {
                "start_time": 9.888636363636364,
                "end_time": 9.98409090909091,
                "pitch": 68,
                "velocity": 64,
                "duration": 0.09545454545454568,
                "tempo": 120.0
            },
            {
                "start_time": 9.986363636363636,
                "end_time": 10.084090909090909,
                "pitch": 71,
                "velocity": 64,
                "duration": 0.09772727272727266,
                "tempo": 120.0
            },
            {
                "start_time": 10.084090909090909,
                "end_time": 10.184090909090909,
                "pitch": 64,
                "velocity": 64,
                "duration": 0.09999999999999964,
                "tempo": 120.0
            },
            {
                "start_time": 10.184090909090909,
                "end_time": 10.284090909090908,
                "pitch": 71,
                "velocity": 64,
                "duration": 0.09999999999999964,
                "tempo": 120.0
            },
            {
                "start_time": 10.284090909090908,
                "end_time": 10.384090909090908,
                "pitch": 68,
                "velocity": 64,
                "duration": 0.09999999999999964,
                "tempo": 120.0
            },
            {
                "start_time": 10.384090909090908,
                "end_time": 10.48409090909091,
                "pitch": 71,
                "velocity": 64,
                "duration": 0.10000000000000142,
                "tempo": 120.0
            },
            {
                "start_time": 10.486363636363636,
                "end_time": 10.584090909090909,
                "pitch": 64,
                "velocity": 64,
                "duration": 0.09772727272727266,
                "tempo": 120.0
            },
            {
                "start_time": 10.586363636363636,
                "end_time": 10.686363636363636,
                "pitch": 71,
                "velocity": 64,
                "duration": 0.09999999999999964,
                "tempo": 120.0
            },
            {
                "start_time": 10.686363636363636,
                "end_time": 10.786363636363635,
                "pitch": 68,
                "velocity": 64,
                "duration": 0.09999999999999964,
                "tempo": 120.0
            },
            {
                "start_time": 10.786363636363635,
                "end_time": 10.888636363636364,
                "pitch": 71,
                "velocity": 64,
                "duration": 0.1022727272727284,
                "tempo": 120.0
            },
            {
                "start_time": 10.888636363636364,
                "end_time": 10.99090909090909,
                "pitch": 64,
                "velocity": 64,
                "duration": 0.10227272727272663,
                "tempo": 120.0
            },
            {
                "start_time": 10.99090909090909,
                "end_time": 11.093181818181817,
                "pitch": 71,
                "velocity": 64,
                "duration": 0.10227272727272663,
                "tempo": 120.0
            },
            {
                "start_time": 11.095454545454546,
                "end_time": 11.195454545454545,
                "pitch": 68,
                "velocity": 64,
                "duration": 0.09999999999999964,
                "tempo": 120.0
            },
            {
                "start_time": 11.197727272727272,
                "end_time": 11.299999999999999,
                "pitch": 71,
                "velocity": 64,
                "duration": 0.10227272727272663,
                "tempo": 120.0
            },
            {
                "start_time": 11.299999999999999,
                "end_time": 11.399999999999999,
                "pitch": 64,
                "velocity": 64,
                "duration": 0.09999999999999964,
                "tempo": 120.0
            },
            {
                "start_time": 11.399999999999999,
                "end_time": 11.5,
                "pitch": 71,
                "velocity": 64,
                "duration": 0.10000000000000142,
                "tempo": 120.0
            },
            {
                "start_time": 11.502272727272727,
                "end_time": 11.6,
                "pitch": 68,
                "velocity": 64,
                "duration": 0.09772727272727266,
                "tempo": 120.0
            },
            {
                "start_time": 11.602272727272727,
                "end_time": 11.702272727272726,
                "pitch": 71,
                "velocity": 64,
                "duration": 0.09999999999999964,
                "tempo": 120.0
            },
            {
                "start_time": 11.702272727272726,
                "end_time": 11.802272727272726,
                "pitch": 64,
                "velocity": 64,
                "duration": 0.09999999999999964,
                "tempo": 120.0
            },
            {
                "start_time": 11.802272727272726,
                "end_time": 11.904545454545454,
                "pitch": 71,
                "velocity": 64,
                "duration": 0.1022727272727284,
                "tempo": 120.0
            },
            {
                "start_time": 11.904545454545454,
                "end_time": 12.004545454545454,
                "pitch": 68,
                "velocity": 64,
                "duration": 0.09999999999999964,
                "tempo": 120.0
            },
            {
                "start_time": 12.004545454545454,
                "end_time": 12.104545454545454,
                "pitch": 71,
                "velocity": 64,
                "duration": 0.09999999999999964,
                "tempo": 120.0
            },
            {
                "start_time": 12.10681818181818,
                "end_time": 12.206818181818182,
                "pitch": 64,
                "velocity": 64,
                "duration": 0.10000000000000142,
                "tempo": 120.0
            },
            {
                "start_time": 12.206818181818182,
                "end_time": 12.306818181818182,
                "pitch": 71,
                "velocity": 64,
                "duration": 0.09999999999999964,
                "tempo": 120.0
            },
            {
                "start_time": 12.309090909090909,
                "end_time": 12.406818181818181,
                "pitch": 68,
                "velocity": 64,
                "duration": 0.09772727272727266,
                "tempo": 120.0
            },
            {
                "start_time": 12.409090909090908,
                "end_time": 12.509090909090908,
                "pitch": 71,
                "velocity": 64,
                "duration": 0.09999999999999964,
                "tempo": 120.0
            },
            {
                "start_time": 12.509090909090908,
                "end_time": 12.60909090909091,
                "pitch": 64,
                "velocity": 64,
                "duration": 0.10000000000000142,
                "tempo": 120.0
            },
            {
                "start_time": 12.60909090909091,
                "end_time": 12.709090909090909,
                "pitch": 71,
                "velocity": 64,
                "duration": 0.09999999999999964,
                "tempo": 120.0
            },
            {
                "start_time": 12.709090909090909,
                "end_time": 12.809090909090909,
                "pitch": 68,
                "velocity": 64,
                "duration": 0.09999999999999964,
                "tempo": 120.0
            },
            {
                "start_time": 12.809090909090909,
                "end_time": 12.911363636363635,
                "pitch": 71,
                "velocity": 64,
                "duration": 0.10227272727272663,
                "tempo": 120.0
            },
            {
                "start_time": 12.911363636363635,
                "end_time": 13.009090909090908,
                "pitch": 69,
                "velocity": 64,
                "duration": 0.09772727272727266,
                "tempo": 120.0
            },
            {
                "start_time": 13.011363636363635,
                "end_time": 13.111363636363636,
                "pitch": 76,
                "velocity": 64,
                "duration": 0.10000000000000142,
                "tempo": 120.0
            },
            {
                "start_time": 13.111363636363636,
                "end_time": 13.211363636363636,
                "pitch": 72,
                "velocity": 64,
                "duration": 0.09999999999999964,
                "tempo": 120.0
            },
            {
                "start_time": 13.211363636363636,
                "end_time": 13.311363636363636,
                "pitch": 76,
                "velocity": 64,
                "duration": 0.09999999999999964,
                "tempo": 120.0
            },
            {
                "start_time": 13.313636363636363,
                "end_time": 13.413636363636362,
                "pitch": 69,
                "velocity": 64,
                "duration": 0.09999999999999964,
                "tempo": 120.0
            },
            {
                "start_time": 13.413636363636362,
                "end_time": 13.513636363636364,
                "pitch": 76,
                "velocity": 64,
                "duration": 0.10000000000000142,
                "tempo": 120.0
            },
            {
                "start_time": 13.513636363636364,
                "end_time": 13.613636363636363,
                "pitch": 72,
                "velocity": 64,
                "duration": 0.09999999999999964,
                "tempo": 120.0
            },
            {
                "start_time": 13.61590909090909,
                "end_time": 13.71590909090909,
                "pitch": 76,
                "velocity": 64,
                "duration": 0.09999999999999964,
                "tempo": 120.0
            },
            {
                "start_time": 13.718181818181817,
                "end_time": 13.81590909090909,
                "pitch": 69,
                "velocity": 64,
                "duration": 0.09772727272727266,
                "tempo": 120.0
            },
            {
                "start_time": 13.818181818181818,
                "end_time": 13.918181818181818,
                "pitch": 76,
                "velocity": 64,
                "duration": 0.09999999999999964,
                "tempo": 120.0
            },
            {
                "start_time": 13.918181818181818,
                "end_time": 14.018181818181818,
                "pitch": 72,
                "velocity": 64,
                "duration": 0.09999999999999964,
                "tempo": 120.0
            },
            {
                "start_time": 14.018181818181818,
                "end_time": 14.118181818181817,
                "pitch": 76,
                "velocity": 64,
                "duration": 0.09999999999999964,
                "tempo": 120.0
            },
            {
                "start_time": 14.120454545454544,
                "end_time": 14.218181818181817,
                "pitch": 69,
                "velocity": 64,
                "duration": 0.09772727272727266,
                "tempo": 120.0
            },
            {
                "start_time": 14.220454545454544,
                "end_time": 14.320454545454545,
                "pitch": 76,
                "velocity": 64,
                "duration": 0.10000000000000142,
                "tempo": 120.0
            },
            {
                "start_time": 14.320454545454545,
                "end_time": 14.420454545454545,
                "pitch": 72,
                "velocity": 64,
                "duration": 0.09999999999999964,
                "tempo": 120.0
            },
            {
                "start_time": 14.420454545454545,
                "end_time": 14.522727272727272,
                "pitch": 76,
                "velocity": 64,
                "duration": 0.10227272727272663,
                "tempo": 120.0
            },
            {
                "start_time": 14.524999999999999,
                "end_time": 14.622727272727271,
                "pitch": 67,
                "velocity": 64,
                "duration": 0.09772727272727266,
                "tempo": 120.0
            },
            {
                "start_time": 14.622727272727271,
                "end_time": 14.722727272727273,
                "pitch": 74,
                "velocity": 64,
                "duration": 0.10000000000000142,
                "tempo": 120.0
            },
            {
                "start_time": 14.722727272727273,
                "end_time": 14.822727272727272,
                "pitch": 71,
                "velocity": 64,
                "duration": 0.09999999999999964,
                "tempo": 120.0
            },
            {
                "start_time": 14.822727272727272,
                "end_time": 14.922727272727272,
                "pitch": 74,
                "velocity": 64,
                "duration": 0.09999999999999964,
                "tempo": 120.0
            },
            {
                "start_time": 14.922727272727272,
                "end_time": 15.022727272727272,
                "pitch": 67,
                "velocity": 64,
                "duration": 0.09999999999999964,
                "tempo": 120.0
            },
            {
                "start_time": 15.022727272727272,
                "end_time": 15.125,
                "pitch": 74,
                "velocity": 64,
                "duration": 0.1022727272727284,
                "tempo": 120.0
            },
            {
                "start_time": 15.125,
                "end_time": 15.225,
                "pitch": 71,
                "velocity": 64,
                "duration": 0.09999999999999964,
                "tempo": 120.0
            },
            {
                "start_time": 15.225,
                "end_time": 15.325,
                "pitch": 74,
                "velocity": 64,
                "duration": 0.09999999999999964,
                "tempo": 120.0
            },
            {
                "start_time": 15.327272727272726,
                "end_time": 15.427272727272726,
                "pitch": 67,
                "velocity": 64,
                "duration": 0.09999999999999964,
                "tempo": 120.0
            },
            {
                "start_time": 15.429545454545455,
                "end_time": 15.531818181818181,
                "pitch": 74,
                "velocity": 64,
                "duration": 0.10227272727272663,
                "tempo": 120.0
            },
            {
                "start_time": 15.534090909090908,
                "end_time": 15.634090909090908,
                "pitch": 71,
                "velocity": 64,
                "duration": 0.09999999999999964,
                "tempo": 120.0
            },
            {
                "start_time": 15.634090909090908,
                "end_time": 15.736363636363636,
                "pitch": 74,
                "velocity": 64,
                "duration": 0.1022727272727284,
                "tempo": 120.0
            },
            {
                "start_time": 15.738636363636363,
                "end_time": 15.834090909090909,
                "pitch": 67,
                "velocity": 64,
                "duration": 0.09545454545454568,
                "tempo": 120.0
            },
            {
                "start_time": 15.836363636363636,
                "end_time": 15.934090909090909,
                "pitch": 74,
                "velocity": 64,
                "duration": 0.09772727272727266,
                "tempo": 120.0
            },
            {
                "start_time": 15.934090909090909,
                "end_time": 16.03181818181818,
                "pitch": 71,
                "velocity": 64,
                "duration": 0.09772727272727266,
                "tempo": 120.0
            },
            {
                "start_time": 16.03181818181818,
                "end_time": 16.129545454545454,
                "pitch": 74,
                "velocity": 64,
                "duration": 0.09772727272727266,
                "tempo": 120.0
            },
            {
                "start_time": 16.131818181818183,
                "end_time": 16.229545454545455,
                "pitch": 69,
                "velocity": 64,
                "duration": 0.09772727272727266,
                "tempo": 120.0
            },
            {
                "start_time": 16.23181818181818,
                "end_time": 16.331818181818182,
                "pitch": 76,
                "velocity": 64,
                "duration": 0.10000000000000142,
                "tempo": 120.0
            },
            {
                "start_time": 16.331818181818182,
                "end_time": 16.43181818181818,
                "pitch": 72,
                "velocity": 64,
                "duration": 0.09999999999999787,
                "tempo": 120.0
            },
            {
                "start_time": 16.43181818181818,
                "end_time": 16.53409090909091,
                "pitch": 76,
                "velocity": 64,
                "duration": 0.10227272727273018,
                "tempo": 120.0
            },
            {
                "start_time": 16.53409090909091,
                "end_time": 16.631818181818183,
                "pitch": 69,
                "velocity": 64,
                "duration": 0.09772727272727266,
                "tempo": 120.0
            },
            {
                "start_time": 16.634090909090908,
                "end_time": 16.73409090909091,
                "pitch": 76,
                "velocity": 64,
                "duration": 0.10000000000000142,
                "tempo": 120.0
            },
            {
                "start_time": 16.73409090909091,
                "end_time": 16.831818181818182,
                "pitch": 72,
                "velocity": 64,
                "duration": 0.09772727272727266,
                "tempo": 120.0
            },
            {
                "start_time": 16.834090909090907,
                "end_time": 16.93409090909091,
                "pitch": 76,
                "velocity": 64,
                "duration": 0.10000000000000142,
                "tempo": 120.0
            },
            {
                "start_time": 16.93409090909091,
                "end_time": 17.034090909090907,
                "pitch": 69,
                "velocity": 64,
                "duration": 0.09999999999999787,
                "tempo": 120.0
            },
            {
                "start_time": 17.034090909090907,
                "end_time": 17.134090909090908,
                "pitch": 76,
                "velocity": 64,
                "duration": 0.10000000000000142,
                "tempo": 120.0
            },
            {
                "start_time": 17.136363636363637,
                "end_time": 17.236363636363635,
                "pitch": 72,
                "velocity": 64,
                "duration": 0.09999999999999787,
                "tempo": 120.0
            },
            {
                "start_time": 17.236363636363635,
                "end_time": 17.336363636363636,
                "pitch": 76,
                "velocity": 64,
                "duration": 0.10000000000000142,
                "tempo": 120.0
            },
            {
                "start_time": 17.33863636363636,
                "end_time": 17.436363636363634,
                "pitch": 69,
                "velocity": 64,
                "duration": 0.09772727272727266,
                "tempo": 120.0
            },
            {
                "start_time": 17.436363636363634,
                "end_time": 17.536363636363635,
                "pitch": 76,
                "velocity": 64,
                "duration": 0.10000000000000142,
                "tempo": 120.0
            },
            {
                "start_time": 17.538636363636364,
                "end_time": 17.636363636363637,
                "pitch": 72,
                "velocity": 64,
                "duration": 0.09772727272727266,
                "tempo": 120.0
            },
            {
                "start_time": 17.636363636363637,
                "end_time": 17.738636363636363,
                "pitch": 76,
                "velocity": 64,
                "duration": 0.10227272727272663,
                "tempo": 120.0
            },
            {
                "start_time": 17.738636363636363,
                "end_time": 17.836363636363636,
                "pitch": 67,
                "velocity": 64,
                "duration": 0.09772727272727266,
                "tempo": 120.0
            },
            {
                "start_time": 17.83863636363636,
                "end_time": 17.938636363636363,
                "pitch": 74,
                "velocity": 64,
                "duration": 0.10000000000000142,
                "tempo": 120.0
            },
            {
                "start_time": 17.938636363636363,
                "end_time": 18.036363636363635,
                "pitch": 71,
                "velocity": 64,
                "duration": 0.09772727272727266,
                "tempo": 120.0
            },
            {
                "start_time": 18.038636363636364,
                "end_time": 18.138636363636362,
                "pitch": 74,
                "velocity": 64,
                "duration": 0.09999999999999787,
                "tempo": 120.0
            },
            {
                "start_time": 18.138636363636362,
                "end_time": 18.24090909090909,
                "pitch": 67,
                "velocity": 64,
                "duration": 0.10227272727272663,
                "tempo": 120.0
            },
            {
                "start_time": 18.24090909090909,
                "end_time": 18.34318181818182,
                "pitch": 74,
                "velocity": 64,
                "duration": 0.10227272727273018,
                "tempo": 120.0
            },
            {
                "start_time": 18.345454545454544,
                "end_time": 18.445454545454545,
                "pitch": 71,
                "velocity": 64,
                "duration": 0.10000000000000142,
                "tempo": 120.0
            },
            {
                "start_time": 18.445454545454545,
                "end_time": 18.55,
                "pitch": 74,
                "velocity": 64,
                "duration": 0.10454545454545539,
                "tempo": 120.0
            },
            {
                "start_time": 18.55,
                "end_time": 18.65,
                "pitch": 67,
                "velocity": 64,
                "duration": 0.09999999999999787,
                "tempo": 120.0
            },
            {
                "start_time": 18.65,
                "end_time": 18.752272727272725,
                "pitch": 74,
                "velocity": 64,
                "duration": 0.10227272727272663,
                "tempo": 120.0
            },
            {
                "start_time": 18.752272727272725,
                "end_time": 18.849999999999998,
                "pitch": 71,
                "velocity": 64,
                "duration": 0.09772727272727266,
                "tempo": 120.0
            },
            {
                "start_time": 18.852272727272727,
                "end_time": 18.952272727272728,
                "pitch": 74,
                "velocity": 64,
                "duration": 0.10000000000000142,
                "tempo": 120.0
            },
            {
                "start_time": 18.952272727272728,
                "end_time": 19.052272727272726,
                "pitch": 67,
                "velocity": 64,
                "duration": 0.09999999999999787,
                "tempo": 120.0
            },
            {
                "start_time": 19.052272727272726,
                "end_time": 19.152272727272727,
                "pitch": 74,
                "velocity": 64,
                "duration": 0.10000000000000142,
                "tempo": 120.0
            },
            {
                "start_time": 19.154545454545453,
                "end_time": 19.252272727272725,
                "pitch": 71,
                "velocity": 64,
                "duration": 0.09772727272727266,
                "tempo": 120.0
            },
            {
                "start_time": 19.252272727272725,
                "end_time": 19.354545454545452,
                "pitch": 74,
                "velocity": 64,
                "duration": 0.10227272727272663,
                "tempo": 120.0
            },
            {
                "start_time": 19.354545454545452,
                "end_time": 19.452272727272728,
                "pitch": 65,
                "velocity": 64,
                "duration": 0.09772727272727622,
                "tempo": 120.0
            },
            {
                "start_time": 19.454545454545453,
                "end_time": 19.554545454545455,
                "pitch": 72,
                "velocity": 64,
                "duration": 0.10000000000000142,
                "tempo": 120.0
            },
            {
                "start_time": 19.554545454545455,
                "end_time": 19.654545454545453,
                "pitch": 69,
                "velocity": 64,
                "duration": 0.09999999999999787,
                "tempo": 120.0
            },
            {
                "start_time": 19.654545454545453,
                "end_time": 19.75681818181818,
                "pitch": 72,
                "velocity": 64,
                "duration": 0.10227272727272663,
                "tempo": 120.0
            },
            {
                "start_time": 19.75681818181818,
                "end_time": 19.854545454545452,
                "pitch": 65,
                "velocity": 64,
                "duration": 0.09772727272727266,
                "tempo": 120.0
            },
            {
                "start_time": 19.85681818181818,
                "end_time": 19.956818181818182,
                "pitch": 72,
                "velocity": 64,
                "duration": 0.10000000000000142,
                "tempo": 120.0
            },
            {
                "start_time": 19.956818181818182,
                "end_time": 20.05681818181818,
                "pitch": 69,
                "velocity": 64,
                "duration": 0.09999999999999787,
                "tempo": 120.0
            },
            {
                "start_time": 20.05681818181818,
                "end_time": 20.15681818181818,
                "pitch": 72,
                "velocity": 64,
                "duration": 0.10000000000000142,
                "tempo": 120.0
            },
            {
                "start_time": 20.15681818181818,
                "end_time": 20.25681818181818,
                "pitch": 65,
                "velocity": 64,
                "duration": 0.09999999999999787,
                "tempo": 120.0
            },
            {
                "start_time": 20.25681818181818,
                "end_time": 20.35681818181818,
                "pitch": 72,
                "velocity": 64,
                "duration": 0.10000000000000142,
                "tempo": 120.0
            },
            {
                "start_time": 20.35681818181818,
                "end_time": 20.456818181818182,
                "pitch": 69,
                "velocity": 64,
                "duration": 0.10000000000000142,
                "tempo": 120.0
            },
            {
                "start_time": 20.456818181818182,
                "end_time": 20.55681818181818,
                "pitch": 72,
                "velocity": 64,
                "duration": 0.09999999999999787,
                "tempo": 120.0
            },
            {
                "start_time": 20.55909090909091,
                "end_time": 20.65681818181818,
                "pitch": 65,
                "velocity": 64,
                "duration": 0.09772727272727266,
                "tempo": 120.0
            },
            {
                "start_time": 20.659090909090907,
                "end_time": 20.759090909090908,
                "pitch": 72,
                "velocity": 64,
                "duration": 0.10000000000000142,
                "tempo": 120.0
            },
            {
                "start_time": 20.759090909090908,
                "end_time": 20.85909090909091,
                "pitch": 69,
                "velocity": 64,
                "duration": 0.10000000000000142,
                "tempo": 120.0
            },
            {
                "start_time": 20.85909090909091,
                "end_time": 20.961363636363636,
                "pitch": 72,
                "velocity": 64,
                "duration": 0.10227272727272663,
                "tempo": 120.0
            },
            {
                "start_time": 20.961363636363636,
                "end_time": 21.05909090909091,
                "pitch": 67,
                "velocity": 64,
                "duration": 0.09772727272727266,
                "tempo": 120.0
            },
            {
                "start_time": 21.061363636363634,
                "end_time": 21.161363636363635,
                "pitch": 74,
                "velocity": 64,
                "duration": 0.10000000000000142,
                "tempo": 120.0
            },
            {
                "start_time": 21.161363636363635,
                "end_time": 21.259090909090908,
                "pitch": 71,
                "velocity": 64,
                "duration": 0.09772727272727266,
                "tempo": 120.0
            },
            {
                "start_time": 21.261363636363637,
                "end_time": 21.361363636363635,
                "pitch": 74,
                "velocity": 64,
                "duration": 0.09999999999999787,
                "tempo": 120.0
            },
            {
                "start_time": 21.361363636363635,
                "end_time": 21.461363636363636,
                "pitch": 67,
                "velocity": 64,
                "duration": 0.10000000000000142,
                "tempo": 120.0
            },
            {
                "start_time": 21.461363636363636,
                "end_time": 21.563636363636363,
                "pitch": 74,
                "velocity": 64,
                "duration": 0.10227272727272663,
                "tempo": 120.0
            },
            {
                "start_time": 21.563636363636363,
                "end_time": 21.663636363636364,
                "pitch": 71,
                "velocity": 64,
                "duration": 0.10000000000000142,
                "tempo": 120.0
            },
            {
                "start_time": 21.663636363636364,
                "end_time": 21.763636363636362,
                "pitch": 74,
                "velocity": 64,
                "duration": 0.09999999999999787,
                "tempo": 120.0
            },
            {
                "start_time": 21.76590909090909,
                "end_time": 21.863636363636363,
                "pitch": 67,
                "velocity": 64,
                "duration": 0.09772727272727266,
                "tempo": 120.0
            },
            {
                "start_time": 21.863636363636363,
                "end_time": 21.96363636363636,
                "pitch": 74,
                "velocity": 64,
                "duration": 0.09999999999999787,
                "tempo": 120.0
            },
            {
                "start_time": 21.96590909090909,
                "end_time": 22.063636363636363,
                "pitch": 71,
                "velocity": 64,
                "duration": 0.09772727272727266,
                "tempo": 120.0
            },
            {
                "start_time": 22.06590909090909,
                "end_time": 22.16590909090909,
                "pitch": 74,
                "velocity": 64,
                "duration": 0.09999999999999787,
                "tempo": 120.0
            },
            {
                "start_time": 22.16590909090909,
                "end_time": 22.263636363636362,
                "pitch": 67,
                "velocity": 64,
                "duration": 0.09772727272727266,
                "tempo": 120.0
            },
            {
                "start_time": 22.26590909090909,
                "end_time": 22.36590909090909,
                "pitch": 74,
                "velocity": 64,
                "duration": 0.09999999999999787,
                "tempo": 120.0
            },
            {
                "start_time": 22.36590909090909,
                "end_time": 22.46363636363636,
                "pitch": 71,
                "velocity": 64,
                "duration": 0.09772727272727266,
                "tempo": 120.0
            },
            {
                "start_time": 22.46590909090909,
                "end_time": 22.56590909090909,
                "pitch": 74,
                "velocity": 64,
                "duration": 0.10000000000000142,
                "tempo": 120.0
            },
            {
                "start_time": 22.568181818181817,
                "end_time": 22.66590909090909,
                "pitch": 69,
                "velocity": 64,
                "duration": 0.09772727272727266,
                "tempo": 120.0
            },
            {
                "start_time": 22.66590909090909,
                "end_time": 22.76590909090909,
                "pitch": 76,
                "velocity": 64,
                "duration": 0.10000000000000142,
                "tempo": 120.0
            },
            {
                "start_time": 22.768181818181816,
                "end_time": 22.86590909090909,
                "pitch": 72,
                "velocity": 64,
                "duration": 0.09772727272727266,
                "tempo": 120.0
            },
            {
                "start_time": 22.868181818181817,
                "end_time": 22.96818181818182,
                "pitch": 76,
                "velocity": 64,
                "duration": 0.10000000000000142,
                "tempo": 120.0
            },
            {
                "start_time": 22.96818181818182,
                "end_time": 23.068181818181817,
                "pitch": 69,
                "velocity": 64,
                "duration": 0.09999999999999787,
                "tempo": 120.0
            },
            {
                "start_time": 23.068181818181817,
                "end_time": 23.168181818181818,
                "pitch": 76,
                "velocity": 64,
                "duration": 0.10000000000000142,
                "tempo": 120.0
            },
            {
                "start_time": 23.170454545454543,
                "end_time": 23.268181818181816,
                "pitch": 72,
                "velocity": 64,
                "duration": 0.09772727272727266,
                "tempo": 120.0
            },
            {
                "start_time": 23.268181818181816,
                "end_time": 23.368181818181817,
                "pitch": 76,
                "velocity": 64,
                "duration": 0.10000000000000142,
                "tempo": 120.0
            },
            {
                "start_time": 23.370454545454546,
                "end_time": 23.46818181818182,
                "pitch": 69,
                "velocity": 64,
                "duration": 0.09772727272727266,
                "tempo": 120.0
            },
            {
                "start_time": 23.470454545454544,
                "end_time": 23.570454545454545,
                "pitch": 76,
                "velocity": 64,
                "duration": 0.10000000000000142,
                "tempo": 120.0
            },
            {
                "start_time": 23.570454545454545,
                "end_time": 23.670454545454543,
                "pitch": 72,
                "velocity": 64,
                "duration": 0.09999999999999787,
                "tempo": 120.0
            },
            {
                "start_time": 23.670454545454543,
                "end_time": 23.77272727272727,
                "pitch": 76,
                "velocity": 64,
                "duration": 0.10227272727272663,
                "tempo": 120.0
            },
            {
                "start_time": 23.77272727272727,
                "end_time": 23.870454545454546,
                "pitch": 69,
                "velocity": 64,
                "duration": 0.09772727272727622,
                "tempo": 120.0
            },
            {
                "start_time": 23.87272727272727,
                "end_time": 23.972727272727273,
                "pitch": 76,
                "velocity": 64,
                "duration": 0.10000000000000142,
                "tempo": 120.0
            },
            {
                "start_time": 23.972727272727273,
                "end_time": 24.07272727272727,
                "pitch": 72,
                "velocity": 64,
                "duration": 0.09999999999999787,
                "tempo": 120.0
            },
            {
                "start_time": 24.07272727272727,
                "end_time": 24.172727272727272,
                "pitch": 76,
                "velocity": 64,
                "duration": 0.10000000000000142,
                "tempo": 120.0
            },
            {
                "start_time": 24.174999999999997,
                "end_time": 24.27272727272727,
                "pitch": 69,
                "velocity": 64,
                "duration": 0.09772727272727266,
                "tempo": 120.0
            },
            {
                "start_time": 24.27272727272727,
                "end_time": 24.37272727272727,
                "pitch": 76,
                "velocity": 64,
                "duration": 0.10000000000000142,
                "tempo": 120.0
            },
            {
                "start_time": 24.37272727272727,
                "end_time": 24.472727272727273,
                "pitch": 72,
                "velocity": 64,
                "duration": 0.10000000000000142,
                "tempo": 120.0
            },
            {
                "start_time": 24.472727272727273,
                "end_time": 24.57272727272727,
                "pitch": 76,
                "velocity": 64,
                "duration": 0.09999999999999787,
                "tempo": 120.0
            },
            {
                "start_time": 24.575,
                "end_time": 24.672727272727272,
                "pitch": 69,
                "velocity": 64,
                "duration": 0.09772727272727266,
                "tempo": 120.0
            },
            {
                "start_time": 24.674999999999997,
                "end_time": 24.775,
                "pitch": 76,
                "velocity": 64,
                "duration": 0.10000000000000142,
                "tempo": 120.0
            },
            {
                "start_time": 24.775,
                "end_time": 24.875,
                "pitch": 72,
                "velocity": 64,
                "duration": 0.10000000000000142,
                "tempo": 120.0
            },
            {
                "start_time": 24.875,
                "end_time": 24.977272727272727,
                "pitch": 76,
                "velocity": 64,
                "duration": 0.10227272727272663,
                "tempo": 120.0
            },
            {
                "start_time": 24.977272727272727,
                "end_time": 25.075,
                "pitch": 69,
                "velocity": 64,
                "duration": 0.09772727272727266,
                "tempo": 120.0
            },
            {
                "start_time": 25.077272727272724,
                "end_time": 25.177272727272726,
                "pitch": 76,
                "velocity": 64,
                "duration": 0.10000000000000142,
                "tempo": 120.0
            },
            {
                "start_time": 25.177272727272726,
                "end_time": 25.275,
                "pitch": 72,
                "velocity": 64,
                "duration": 0.09772727272727266,
                "tempo": 120.0
            },
            {
                "start_time": 25.277272727272727,
                "end_time": 25.377272727272725,
                "pitch": 76,
                "velocity": 64,
                "duration": 0.09999999999999787,
                "tempo": 120.0
            },
            {
                "start_time": 25.377272727272725,
                "end_time": 25.477272727272727,
                "pitch": 69,
                "velocity": 64,
                "duration": 0.10000000000000142,
                "tempo": 120.0
            },
            {
                "start_time": 25.477272727272727,
                "end_time": 25.579545454545453,
                "pitch": 76,
                "velocity": 64,
                "duration": 0.10227272727272663,
                "tempo": 120.0
            },
            {
                "start_time": 25.579545454545453,
                "end_time": 25.679545454545455,
                "pitch": 72,
                "velocity": 64,
                "duration": 0.10000000000000142,
                "tempo": 120.0
            },
            {
                "start_time": 25.679545454545455,
                "end_time": 25.779545454545453,
                "pitch": 76,
                "velocity": 64,
                "duration": 0.09999999999999787,
                "tempo": 120.0
            },
            {
                "start_time": 25.779545454545453,
                "end_time": 25.879545454545454,
                "pitch": 60,
                "velocity": 64,
                "duration": 0.10000000000000142,
                "tempo": 120.0
            },
            {
                "start_time": 25.879545454545454,
                "end_time": 25.979545454545452,
                "pitch": 67,
                "velocity": 64,
                "duration": 0.09999999999999787,
                "tempo": 120.0
            },
            {
                "start_time": 25.98181818181818,
                "end_time": 26.079545454545453,
                "pitch": 60,
                "velocity": 64,
                "duration": 0.09772727272727266,
                "tempo": 120.0
            },
            {
                "start_time": 26.079545454545453,
                "end_time": 26.179545454545455,
                "pitch": 64,
                "velocity": 64,
                "duration": 0.10000000000000142,
                "tempo": 120.0
            },
            {
                "start_time": 26.18181818181818,
                "end_time": 26.28181818181818,
                "pitch": 67,
                "velocity": 64,
                "duration": 0.10000000000000142,
                "tempo": 120.0
            },
            {
                "start_time": 26.284090909090907,
                "end_time": 26.386363636363637,
                "pitch": 60,
                "velocity": 64,
                "duration": 0.10227272727273018,
                "tempo": 120.0
            },
            {
                "start_time": 26.386363636363637,
                "end_time": 26.488636363636363,
                "pitch": 64,
                "velocity": 64,
                "duration": 0.10227272727272663,
                "tempo": 120.0
            },
            {
                "start_time": 26.488636363636363,
                "end_time": 26.59090909090909,
                "pitch": 67,
                "velocity": 64,
                "duration": 0.10227272727272663,
                "tempo": 120.0
            },
            {
                "start_time": 26.593181818181815,
                "end_time": 26.688636363636363,
                "pitch": 72,
                "velocity": 64,
                "duration": 0.09545454545454746,
                "tempo": 120.0
            },
            {
                "start_time": 26.69090909090909,
                "end_time": 26.788636363636364,
                "pitch": 67,
                "velocity": 64,
                "duration": 0.09772727272727266,
                "tempo": 120.0
            },
            {
                "start_time": 26.788636363636364,
                "end_time": 26.886363636363637,
                "pitch": 72,
                "velocity": 64,
                "duration": 0.09772727272727266,
                "tempo": 120.0
            },
            {
                "start_time": 26.886363636363637,
                "end_time": 26.98409090909091,
                "pitch": 76,
                "velocity": 64,
                "duration": 0.09772727272727266,
                "tempo": 120.0
            },
            {
                "start_time": 26.986363636363635,
                "end_time": 27.086363636363636,
                "pitch": 79,
                "velocity": 64,
                "duration": 0.10000000000000142,
                "tempo": 120.0
            },
            {
                "start_time": 27.086363636363636,
                "end_time": 27.19090909090909,
                "pitch": 72,
                "velocity": 64,
                "duration": 0.10454545454545539,
                "tempo": 120.0
            },
            {
                "start_time": 27.19090909090909,
                "end_time": 27.293181818181818,
                "pitch": 76,
                "velocity": 64,
                "duration": 0.10227272727272663,
                "tempo": 120.0
            },
            {
                "start_time": 27.293181818181818,
                "end_time": 27.395454545454545,
                "pitch": 79,
                "velocity": 64,
                "duration": 0.10227272727272663,
                "tempo": 120.0
            },
            {
                "start_time": 27.395454545454545,
                "end_time": 27.495454545454542,
                "pitch": 69,
                "velocity": 64,
                "duration": 0.09999999999999787,
                "tempo": 120.0
            },
            {
                "start_time": 27.495454545454542,
                "end_time": 27.595454545454544,
                "pitch": 60,
                "velocity": 64,
                "duration": 0.10000000000000142,
                "tempo": 120.0
            },
            {
                "start_time": 27.597727272727273,
                "end_time": 27.695454545454545,
                "pitch": 64,
                "velocity": 64,
                "duration": 0.09772727272727266,
                "tempo": 120.0
            },
            {
                "start_time": 27.695454545454545,
                "end_time": 27.797727272727272,
                "pitch": 69,
                "velocity": 64,
                "duration": 0.10227272727272663,
                "tempo": 120.0
            },
            {
                "start_time": 27.797727272727272,
                "end_time": 27.895454545454545,
                "pitch": 72,
                "velocity": 64,
                "duration": 0.09772727272727266,
                "tempo": 120.0
            },
            {
                "start_time": 27.89772727272727,
                "end_time": 27.99772727272727,
                "pitch": 64,
                "velocity": 64,
                "duration": 0.10000000000000142,
                "tempo": 120.0
            },
            {
                "start_time": 28.0,
                "end_time": 28.097727272727273,
                "pitch": 69,
                "velocity": 64,
                "duration": 0.09772727272727266,
                "tempo": 120.0
            },
            {
                "start_time": 28.097727272727273,
                "end_time": 28.2,
                "pitch": 72,
                "velocity": 64,
                "duration": 0.10227272727272663,
                "tempo": 120.0
            },
            {
                "start_time": 28.2,
                "end_time": 28.299999999999997,
                "pitch": 76,
                "velocity": 64,
                "duration": 0.09999999999999787,
                "tempo": 120.0
            },
            {
                "start_time": 28.299999999999997,
                "end_time": 28.4,
                "pitch": 69,
                "velocity": 64,
                "duration": 0.10000000000000142,
                "tempo": 120.0
            },
            {
                "start_time": 28.4,
                "end_time": 28.5,
                "pitch": 60,
                "velocity": 64,
                "duration": 0.10000000000000142,
                "tempo": 120.0
            },
            {
                "start_time": 28.5,
                "end_time": 28.599999999999998,
                "pitch": 76,
                "velocity": 64,
                "duration": 0.09999999999999787,
                "tempo": 120.0
            },
            {
                "start_time": 28.602272727272727,
                "end_time": 28.7,
                "pitch": 81,
                "velocity": 64,
                "duration": 0.09772727272727266,
                "tempo": 120.0
            },
            {
                "start_time": 28.7,
                "end_time": 28.799999999999997,
                "pitch": 72,
                "velocity": 64,
                "duration": 0.09999999999999787,
                "tempo": 120.0
            },
            {
                "start_time": 28.799999999999997,
                "end_time": 28.9,
                "pitch": 76,
                "velocity": 64,
                "duration": 0.10000000000000142,
                "tempo": 120.0
            },
            {
                "start_time": 28.9,
                "end_time": 29.002272727272725,
                "pitch": 81,
                "velocity": 64,
                "duration": 0.10227272727272663,
                "tempo": 120.0
            },
            {
                "start_time": 29.002272727272725,
                "end_time": 29.099999999999998,
                "pitch": 65,
                "velocity": 64,
                "duration": 0.09772727272727266,
                "tempo": 120.0
            },
            {
                "start_time": 29.102272727272727,
                "end_time": 29.202272727272724,
                "pitch": 69,
                "velocity": 64,
                "duration": 0.09999999999999787,
                "tempo": 120.0
            },
            {
                "start_time": 29.202272727272724,
                "end_time": 29.302272727272726,
                "pitch": 72,
                "velocity": 64,
                "duration": 0.10000000000000142,
                "tempo": 120.0
            },
            {
                "start_time": 29.302272727272726,
                "end_time": 29.404545454545453,
                "pitch": 77,
                "velocity": 64,
                "duration": 0.10227272727272663,
                "tempo": 120.0
            },
            {
                "start_time": 29.404545454545453,
                "end_time": 29.502272727272725,
                "pitch": 81,
                "velocity": 64,
                "duration": 0.09772727272727266,
                "tempo": 120.0
            },
            {
                "start_time": 29.504545454545454,
                "end_time": 29.604545454545452,
                "pitch": 77,
                "velocity": 64,
                "duration": 0.09999999999999787,
                "tempo": 120.0
            },
            {
                "start_time": 29.604545454545452,
                "end_time": 29.702272727272724,
                "pitch": 81,
                "velocity": 64,
                "duration": 0.09772727272727266,
                "tempo": 120.0
            },
            {
                "start_time": 29.704545454545453,
                "end_time": 29.804545454545455,
                "pitch": 72,
                "velocity": 64,
                "duration": 0.10000000000000142,
                "tempo": 120.0
            },
            {
                "start_time": 29.804545454545455,
                "end_time": 29.904545454545453,
                "pitch": 77,
                "velocity": 64,
                "duration": 0.09999999999999787,
                "tempo": 120.0
            },
            {
                "start_time": 29.904545454545453,
                "end_time": 30.00681818181818,
                "pitch": 72,
                "velocity": 64,
                "duration": 0.10227272727272663,
                "tempo": 120.0
            },
            {
                "start_time": 30.00681818181818,
                "end_time": 30.10681818181818,
                "pitch": 77,
                "velocity": 64,
                "duration": 0.10000000000000142,
                "tempo": 120.0
            },
            {
                "start_time": 30.10681818181818,
                "end_time": 30.206818181818182,
                "pitch": 81,
                "velocity": 64,
                "duration": 0.10000000000000142,
                "tempo": 120.0
            },
            {
                "start_time": 30.209090909090907,
                "end_time": 30.30681818181818,
                "pitch": 84,
                "velocity": 64,
                "duration": 0.09772727272727266,
                "tempo": 120.0
            },
            {
                "start_time": 30.30681818181818,
                "end_time": 30.409090909090907,
                "pitch": 77,
                "velocity": 64,
                "duration": 0.10227272727272663,
                "tempo": 120.0
            },
            {
                "start_time": 30.409090909090907,
                "end_time": 30.50681818181818,
                "pitch": 81,
                "velocity": 64,
                "duration": 0.09772727272727266,
                "tempo": 120.0
            },
            {
                "start_time": 30.509090909090908,
                "end_time": 30.60681818181818,
                "pitch": 84,
                "velocity": 64,
                "duration": 0.09772727272727266,
                "tempo": 120.0
            },
            {
                "start_time": 30.60909090909091,
                "end_time": 30.706818181818182,
                "pitch": 79,
                "velocity": 64,
                "duration": 0.09772727272727266,
                "tempo": 120.0
            },
            {
                "start_time": 30.709090909090907,
                "end_time": 30.80909090909091,
                "pitch": 74,
                "velocity": 64,
                "duration": 0.10000000000000142,
                "tempo": 120.0
            },
            {
                "start_time": 30.80909090909091,
                "end_time": 30.90681818181818,
                "pitch": 79,
                "velocity": 64,
                "duration": 0.09772727272727266,
                "tempo": 120.0
            },
            {
                "start_time": 30.909090909090907,
                "end_time": 31.009090909090908,
                "pitch": 83,
                "velocity": 64,
                "duration": 0.10000000000000142,
                "tempo": 120.0
            },
            {
                "start_time": 31.009090909090908,
                "end_time": 31.10909090909091,
                "pitch": 86,
                "velocity": 64,
                "duration": 0.10000000000000142,
                "tempo": 120.0
            },
            {
                "start_time": 31.10909090909091,
                "end_time": 31.209090909090907,
                "pitch": 79,
                "velocity": 64,
                "duration": 0.09999999999999787,
                "tempo": 120.0
            },
            {
                "start_time": 31.211363636363636,
                "end_time": 31.30909090909091,
                "pitch": 83,
                "velocity": 64,
                "duration": 0.09772727272727266,
                "tempo": 120.0
            },
            {
                "start_time": 31.311363636363634,
                "end_time": 31.411363636363635,
                "pitch": 74,
                "velocity": 64,
                "duration": 0.10000000000000142,
                "tempo": 120.0
            },
            {
                "start_time": 31.411363636363635,
                "end_time": 31.513636363636362,
                "pitch": 77,
                "velocity": 64,
                "duration": 0.10227272727272663,
                "tempo": 120.0
            },
            {
                "start_time": 31.513636363636362,
                "end_time": 31.618181818181817,
                "pitch": 71,
                "velocity": 64,
                "duration": 0.10454545454545539,
                "tempo": 120.0
            },
            {
                "start_time": 31.618181818181817,
                "end_time": 31.720454545454544,
                "pitch": 74,
                "velocity": 64,
                "duration": 0.10227272727272663,
                "tempo": 120.0
            },
            {
                "start_time": 31.720454545454544,
                "end_time": 31.82272727272727,
                "pitch": 77,
                "velocity": 64,
                "duration": 0.10227272727272663,
                "tempo": 120.0
            },
            {
                "start_time": 31.825,
                "end_time": 31.920454545454543,
                "pitch": 83,
                "velocity": 64,
                "duration": 0.0954545454545439,
                "tempo": 120.0
            },
            {
                "start_time": 31.920454545454543,
                "end_time": 32.02045454545454,
                "pitch": 74,
                "velocity": 64,
                "duration": 0.09999999999999787,
                "tempo": 120.0
            },
            {
                "start_time": 32.02045454545454,
                "end_time": 32.11590909090909,
                "pitch": 77,
                "velocity": 64,
                "duration": 0.09545454545455101,
                "tempo": 120.0
            },
            {
                "start_time": 32.11818181818182,
                "end_time": 32.215909090909086,
                "pitch": 83,
                "velocity": 64,
                "duration": 0.09772727272726911,
                "tempo": 120.0
            },
            {
                "start_time": 32.215909090909086,
                "end_time": 32.31590909090909,
                "pitch": 65,
                "velocity": 64,
                "duration": 0.10000000000000142,
                "tempo": 120.0
            },
            {
                "start_time": 32.31590909090909,
                "end_time": 32.41590909090909,
                "pitch": 69,
                "velocity": 64,
                "duration": 0.10000000000000142,
                "tempo": 120.0
            },
            {
                "start_time": 32.41590909090909,
                "end_time": 32.51590909090909,
                "pitch": 72,
                "velocity": 64,
                "duration": 0.10000000000000142,
                "tempo": 120.0
            },
            {
                "start_time": 32.51590909090909,
                "end_time": 32.61590909090909,
                "pitch": 77,
                "velocity": 64,
                "duration": 0.10000000000000142,
                "tempo": 120.0
            },
            {
                "start_time": 32.61590909090909,
                "end_time": 32.715909090909086,
                "pitch": 81,
                "velocity": 64,
                "duration": 0.09999999999999432,
                "tempo": 120.0
            },
            {
                "start_time": 32.715909090909086,
                "end_time": 32.81590909090909,
                "pitch": 77,
                "velocity": 64,
                "duration": 0.10000000000000142,
                "tempo": 120.0
            },
            {
                "start_time": 32.81818181818182,
                "end_time": 32.91590909090909,
                "pitch": 81,
                "velocity": 64,
                "duration": 0.09772727272726911,
                "tempo": 120.0
            },
            {
                "start_time": 32.91590909090909,
                "end_time": 33.01590909090909,
                "pitch": 72,
                "velocity": 64,
                "duration": 0.10000000000000142,
                "tempo": 120.0
            },
            {
                "start_time": 33.018181818181816,
                "end_time": 33.11590909090909,
                "pitch": 77,
                "velocity": 64,
                "duration": 0.09772727272727622,
                "tempo": 120.0
            },
            {
                "start_time": 33.11590909090909,
                "end_time": 33.215909090909086,
                "pitch": 72,
                "velocity": 64,
                "duration": 0.09999999999999432,
                "tempo": 120.0
            },
            {
                "start_time": 33.21818181818182,
                "end_time": 33.31590909090909,
                "pitch": 77,
                "velocity": 64,
                "duration": 0.09772727272726911,
                "tempo": 120.0
            },
            {
                "start_time": 33.31818181818181,
                "end_time": 33.418181818181814,
                "pitch": 81,
                "velocity": 64,
                "duration": 0.10000000000000142,
                "tempo": 120.0
            },
            {
                "start_time": 33.418181818181814,
                "end_time": 33.518181818181816,
                "pitch": 84,
                "velocity": 64,
                "duration": 0.10000000000000142,
                "tempo": 120.0
            },
            {
                "start_time": 33.52045454545454,
                "end_time": 33.62272727272727,
                "pitch": 77,
                "velocity": 64,
                "duration": 0.10227272727272663,
                "tempo": 120.0
            },
            {
                "start_time": 33.625,
                "end_time": 33.725,
                "pitch": 81,
                "velocity": 64,
                "duration": 0.10000000000000142,
                "tempo": 120.0
            },
            {
                "start_time": 33.725,
                "end_time": 33.82727272727273,
                "pitch": 84,
                "velocity": 64,
                "duration": 0.10227272727272663,
                "tempo": 120.0
            },
            {
                "start_time": 33.82954545454545,
                "end_time": 33.925,
                "pitch": 79,
                "velocity": 64,
                "duration": 0.0954545454545439,
                "tempo": 120.0
            },
            {
                "start_time": 33.92727272727272,
                "end_time": 34.025,
                "pitch": 74,
                "velocity": 64,
                "duration": 0.09772727272727622,
                "tempo": 120.0
            },
            {
                "start_time": 34.025,
                "end_time": 34.12272727272727,
                "pitch": 79,
                "velocity": 64,
                "duration": 0.09772727272726911,
                "tempo": 120.0
            },
            {
                "start_time": 34.12272727272727,
                "end_time": 34.220454545454544,
                "pitch": 83,
                "velocity": 64,
                "duration": 0.09772727272727622,
                "tempo": 120.0
            },
            {
                "start_time": 34.22272727272727,
                "end_time": 34.32272727272727,
                "pitch": 86,
                "velocity": 64,
                "duration": 0.10000000000000142,
                "tempo": 120.0
            },
            {
                "start_time": 34.32272727272727,
                "end_time": 34.42727272727272,
                "pitch": 79,
                "velocity": 64,
                "duration": 0.10454545454545183,
                "tempo": 120.0
            },
            {
                "start_time": 34.42727272727272,
                "end_time": 34.529545454545456,
                "pitch": 83,
                "velocity": 64,
                "duration": 0.10227272727273373,
                "tempo": 120.0
            },
            {
                "start_time": 34.529545454545456,
                "end_time": 34.63181818181818,
                "pitch": 74,
                "velocity": 64,
                "duration": 0.10227272727272663,
                "tempo": 120.0
            },
            {
                "start_time": 34.63181818181818,
                "end_time": 34.73181818181818,
                "pitch": 77,
                "velocity": 64,
                "duration": 0.09999999999999432,
                "tempo": 120.0
            },
            {
                "start_time": 34.73181818181818,
                "end_time": 34.83181818181818,
                "pitch": 71,
                "velocity": 64,
                "duration": 0.10000000000000142,
                "tempo": 120.0
            },
            {
                "start_time": 34.83409090909091,
                "end_time": 34.93181818181818,
                "pitch": 74,
                "velocity": 64,
                "duration": 0.09772727272726911,
                "tempo": 120.0
            },
            {
                "start_time": 34.93181818181818,
                "end_time": 35.03181818181818,
                "pitch": 77,
                "velocity": 64,
                "duration": 0.10000000000000142,
                "tempo": 120.0
            },
            {
                "start_time": 35.03409090909091,
                "end_time": 35.13181818181818,
                "pitch": 83,
                "velocity": 64,
                "duration": 0.09772727272727622,
                "tempo": 120.0
            },
            {
                "start_time": 35.13409090909091,
                "end_time": 35.23409090909091,
                "pitch": 74,
                "velocity": 64,
                "duration": 0.10000000000000142,
                "tempo": 120.0
            },
            {
                "start_time": 35.236363636363635,
                "end_time": 35.33409090909091,
                "pitch": 77,
                "velocity": 64,
                "duration": 0.09772727272727622,
                "tempo": 120.0
            },
            {
                "start_time": 35.336363636363636,
                "end_time": 35.43636363636364,
                "pitch": 83,
                "velocity": 64,
                "duration": 0.10000000000000142,
                "tempo": 120.0
            },
            {
                "start_time": 35.43636363636364,
                "end_time": 35.53636363636363,
                "pitch": 62,
                "velocity": 64,
                "duration": 0.09999999999999432,
                "tempo": 120.0
            },
            {
                "start_time": 35.53636363636363,
                "end_time": 35.63636363636363,
                "pitch": 53,
                "velocity": 64,
                "duration": 0.10000000000000142,
                "tempo": 120.0
            },
            {
                "start_time": 35.63636363636363,
                "end_time": 35.736363636363635,
                "pitch": 57,
                "velocity": 64,
                "duration": 0.10000000000000142,
                "tempo": 120.0
            },
            {
                "start_time": 35.736363636363635,
                "end_time": 35.836363636363636,
                "pitch": 62,
                "velocity": 64,
                "duration": 0.10000000000000142,
                "tempo": 120.0
            },
            {
                "start_time": 35.836363636363636,
                "end_time": 35.93636363636364,
                "pitch": 65,
                "velocity": 64,
                "duration": 0.10000000000000142,
                "tempo": 120.0
            },
            {
                "start_time": 35.93636363636364,
                "end_time": 36.03636363636363,
                "pitch": 57,
                "velocity": 64,
                "duration": 0.09999999999999432,
                "tempo": 120.0
            },
            {
                "start_time": 36.038636363636364,
                "end_time": 36.13636363636363,
                "pitch": 62,
                "velocity": 64,
                "duration": 0.09772727272726911,
                "tempo": 120.0
            },
            {
                "start_time": 36.13636363636363,
                "end_time": 36.236363636363635,
                "pitch": 65,
                "velocity": 64,
                "duration": 0.10000000000000142,
                "tempo": 120.0
            },
            {
                "start_time": 36.23863636363636,
                "end_time": 36.336363636363636,
                "pitch": 69,
                "velocity": 64,
                "duration": 0.09772727272727622,
                "tempo": 120.0
            },
            {
                "start_time": 36.336363636363636,
                "end_time": 36.43636363636364,
                "pitch": 62,
                "velocity": 64,
                "duration": 0.10000000000000142,
                "tempo": 120.0
            },
            {
                "start_time": 36.43863636363636,
                "end_time": 36.53636363636363,
                "pitch": 65,
                "velocity": 64,
                "duration": 0.09772727272726911,
                "tempo": 120.0
            },
            {
                "start_time": 36.538636363636364,
                "end_time": 36.63863636363636,
                "pitch": 69,
                "velocity": 64,
                "duration": 0.09999999999999432,
                "tempo": 120.0
            },
            {
                "start_time": 36.63863636363636,
                "end_time": 36.736363636363635,
                "pitch": 74,
                "velocity": 64,
                "duration": 0.09772727272727622,
                "tempo": 120.0
            },
            {
                "start_time": 36.73863636363636,
                "end_time": 36.83863636363636,
                "pitch": 65,
                "velocity": 64,
                "duration": 0.10000000000000142,
                "tempo": 120.0
            },
            {
                "start_time": 36.83863636363636,
                "end_time": 36.93636363636364,
                "pitch": 69,
                "velocity": 64,
                "duration": 0.09772727272727622,
                "tempo": 120.0
            },
            {
                "start_time": 36.93863636363636,
                "end_time": 37.038636363636364,
                "pitch": 74,
                "velocity": 64,
                "duration": 0.10000000000000142,
                "tempo": 120.0
            },
            {
                "start_time": 37.038636363636364,
                "end_time": 37.13863636363636,
                "pitch": 64,
                "velocity": 64,
                "duration": 0.09999999999999432,
                "tempo": 120.0
            },
            {
                "start_time": 37.13863636363636,
                "end_time": 37.23863636363636,
                "pitch": 56,
                "velocity": 64,
                "duration": 0.10000000000000142,
                "tempo": 120.0
            },
            {
                "start_time": 37.24090909090909,
                "end_time": 37.340909090909086,
                "pitch": 59,
                "velocity": 64,
                "duration": 0.09999999999999432,
                "tempo": 120.0
            },
            {
                "start_time": 37.340909090909086,
                "end_time": 37.44090909090909,
                "pitch": 64,
                "velocity": 64,
                "duration": 0.10000000000000142,
                "tempo": 120.0
            },
            {
                "start_time": 37.44090909090909,
                "end_time": 37.54090909090909,
                "pitch": 68,
                "velocity": 64,
                "duration": 0.10000000000000142,
                "tempo": 120.0
            },
            {
                "start_time": 37.54090909090909,
                "end_time": 37.64090909090909,
                "pitch": 64,
                "velocity": 64,
                "duration": 0.10000000000000142,
                "tempo": 120.0
            },
            {
                "start_time": 37.643181818181816,
                "end_time": 37.74090909090909,
                "pitch": 68,
                "velocity": 64,
                "duration": 0.09772727272727622,
                "tempo": 120.0
            },
            {
                "start_time": 37.74090909090909,
                "end_time": 37.840909090909086,
                "pitch": 71,
                "velocity": 64,
                "duration": 0.09999999999999432,
                "tempo": 120.0
            },
            {
                "start_time": 37.84318181818182,
                "end_time": 37.94090909090909,
                "pitch": 77,
                "velocity": 64,
                "duration": 0.09772727272726911,
                "tempo": 120.0
            },
            {
                "start_time": 37.94318181818181,
                "end_time": 38.04090909090909,
                "pitch": 68,
                "velocity": 64,
                "duration": 0.09772727272727622,
                "tempo": 120.0
            },
            {
                "start_time": 38.043181818181814,
                "end_time": 38.14090909090909,
                "pitch": 71,
                "velocity": 64,
                "duration": 0.09772727272727622,
                "tempo": 120.0
            },
            {
                "start_time": 38.143181818181816,
                "end_time": 38.24318181818182,
                "pitch": 76,
                "velocity": 64,
                "duration": 0.10000000000000142,
                "tempo": 120.0
            },
            {
                "start_time": 38.24318181818182,
                "end_time": 38.340909090909086,
                "pitch": 80,
                "velocity": 64,
                "duration": 0.09772727272726911,
                "tempo": 120.0
            },
            {
                "start_time": 38.34318181818182,
                "end_time": 38.44318181818181,
                "pitch": 71,
                "velocity": 64,
                "duration": 0.09999999999999432,
                "tempo": 120.0
            },
            {
                "start_time": 38.44318181818181,
                "end_time": 38.54090909090909,
                "pitch": 76,
                "velocity": 64,
                "duration": 0.09772727272727622,
                "tempo": 120.0
            },
            {
                "start_time": 38.543181818181814,
                "end_time": 38.643181818181816,
                "pitch": 80,
                "velocity": 64,
                "duration": 0.10000000000000142,
                "tempo": 120.0
            }
        ],
        "Trumpet": [
            {
                "start_time": 24.974999999999998,
                "end_time": 25.174999999999997,
                "pitch": 69,
                "velocity": 80,
                "duration": 0.1999999999999993,
                "tempo": 120.0
            },
            {
                "start_time": 25.174999999999997,
                "end_time": 25.577272727272724,
                "pitch": 71,
                "velocity": 80,
                "duration": 0.40227272727272734,
                "tempo": 120.0
            },
            {
                "start_time": 25.577272727272724,
                "end_time": 26.59090909090909,
                "pitch": 72,
                "velocity": 80,
                "duration": 1.0136363636363654,
                "tempo": 120.0
            },
            {
                "start_time": 26.786363636363635,
                "end_time": 26.98181818181818,
                "pitch": 72,
                "velocity": 80,
                "duration": 0.19545454545454533,
                "tempo": 120.0
            },
            {
                "start_time": 26.98409090909091,
                "end_time": 27.188636363636363,
                "pitch": 74,
                "velocity": 80,
                "duration": 0.20454545454545325,
                "tempo": 120.0
            },
            {
                "start_time": 27.188636363636363,
                "end_time": 27.795454545454543,
                "pitch": 76,
                "velocity": 80,
                "duration": 0.6068181818181806,
                "tempo": 120.0
            },
            {
                "start_time": 27.795454545454543,
                "end_time": 27.995454545454542,
                "pitch": 72,
                "velocity": 80,
                "duration": 0.1999999999999993,
                "tempo": 120.0
            },
            {
                "start_time": 27.99772727272727,
                "end_time": 28.597727272727273,
                "pitch": 84,
                "velocity": 80,
                "duration": 0.6000000000000014,
                "tempo": 120.0
            },
            {
                "start_time": 28.599999999999998,
                "end_time": 29.0,
                "pitch": 83,
                "velocity": 80,
                "duration": 0.40000000000000213,
                "tempo": 120.0
            },
            {
                "start_time": 29.0,
                "end_time": 29.802272727272726,
                "pitch": 81,
                "velocity": 80,
                "duration": 0.8022727272727259,
                "tempo": 120.0
            },
            {
                "start_time": 30.004545454545454,
                "end_time": 30.206818181818182,
                "pitch": 77,
                "velocity": 80,
                "duration": 0.20227272727272805,
                "tempo": 120.0
            },
            {
                "start_time": 30.206818181818182,
                "end_time": 30.40681818181818,
                "pitch": 76,
                "velocity": 80,
                "duration": 0.1999999999999993,
                "tempo": 120.0
            },
            {
                "start_time": 30.40681818181818,
                "end_time": 31.409090909090907,
                "pitch": 74,
                "velocity": 80,
                "duration": 1.0022727272727252,
                "tempo": 120.0
            },
            {
                "start_time": 31.61590909090909,
                "end_time": 31.820454545454545,
                "pitch": 74,
                "velocity": 80,
                "duration": 0.2045454545454568,
                "tempo": 120.0
            },
            {
                "start_time": 31.82272727272727,
                "end_time": 32.018181818181816,
                "pitch": 72,
                "velocity": 80,
                "duration": 0.19545454545454533,
                "tempo": 120.0
            },
            {
                "start_time": 32.018181818181816,
                "end_time": 33.62045454545454,
                "pitch": 71,
                "velocity": 80,
                "duration": 1.6022727272727266,
                "tempo": 120.0
            },
            {
                "start_time": 33.62272727272727,
                "end_time": 35.23181818181818,
                "pitch": 67,
                "velocity": 80,
                "duration": 1.6090909090909093,
                "tempo": 120.0
            },
            {
                "start_time": 35.23409090909091,
                "end_time": 36.836363636363636,
                "pitch": 72,
                "velocity": 80,
                "duration": 1.6022727272727266,
                "tempo": 120.0
            },
            {
                "start_time": 36.836363636363636,
                "end_time": 37.64090909090909,
                "pitch": 72,
                "velocity": 80,
                "duration": 0.8045454545454547,
                "tempo": 120.0
            },
            {
                "start_time": 37.64090909090909,
                "end_time": 38.64090909090909,
                "pitch": 71,
                "velocity": 80,
                "duration": 1.0,
                "tempo": 120.0
            },
            {
                "start_time": 41.05227272727272,
                "end_time": 41.45227272727273,
                "pitch": 76,
                "velocity": 80,
                "duration": 0.4000000000000057,
                "tempo": 120.0
            },
            {
                "start_time": 41.45454545454545,
                "end_time": 41.85454545454545,
                "pitch": 74,
                "velocity": 80,
                "duration": 0.3999999999999986,
                "tempo": 120.0
            },
            {
                "start_time": 44.27272727272727,
                "end_time": 44.67272727272727,
                "pitch": 81,
                "velocity": 80,
                "duration": 0.3999999999999986,
                "tempo": 120.0
            },
            {
                "start_time": 44.675,
                "end_time": 45.074999999999996,
                "pitch": 83,
                "velocity": 80,
                "duration": 0.3999999999999986,
                "tempo": 120.0
            },
            {
                "start_time": 47.48181818181818,
                "end_time": 47.88181818181818,
                "pitch": 76,
                "velocity": 80,
                "duration": 0.4000000000000057,
                "tempo": 120.0
            },
            {
                "start_time": 47.88181818181818,
                "end_time": 48.28181818181818,
                "pitch": 74,
                "velocity": 80,
                "duration": 0.3999999999999986,
                "tempo": 120.0
            },
            {
                "start_time": 50.70227272727273,
                "end_time": 51.09318181818182,
                "pitch": 81,
                "velocity": 80,
                "duration": 0.39090909090909065,
                "tempo": 120.0
            },
            {
                "start_time": 51.09318181818182,
                "end_time": 51.50454545454545,
                "pitch": 83,
                "velocity": 80,
                "duration": 0.4113636363636317,
                "tempo": 120.0
            },
            {
                "start_time": 53.913636363636364,
                "end_time": 54.31590909090909,
                "pitch": 76,
                "velocity": 80,
                "duration": 0.4022727272727238,
                "tempo": 120.0
            },
            {
                "start_time": 54.31818181818181,
                "end_time": 54.71818181818182,
                "pitch": 74,
                "velocity": 80,
                "duration": 0.4000000000000057,
                "tempo": 120.0
            },
            {
                "start_time": 57.125,
                "end_time": 57.52272727272727,
                "pitch": 81,
                "velocity": 80,
                "duration": 0.3977272727272734,
                "tempo": 120.0
            },
            {
                "start_time": 57.525,
                "end_time": 57.934090909090905,
                "pitch": 83,
                "velocity": 80,
                "duration": 0.4090909090909065,
                "tempo": 120.0
            },
            {
                "start_time": 60.340909090909086,
                "end_time": 60.740909090909085,
                "pitch": 76,
                "velocity": 80,
                "duration": 0.3999999999999986,
                "tempo": 120.0
            },
            {
                "start_time": 60.74318181818182,
                "end_time": 61.14090909090909,
                "pitch": 74,
                "velocity": 80,
                "duration": 0.3977272727272734,
                "tempo": 120.0
            }
        ],
        "Electric Guitar (clean)": [
            {
                "start_time": 0.03409090909090909,
                "end_time": 0.2318181818181818,
                "pitch": 33,
                "velocity": 64,
                "duration": 0.19772727272727272,
                "tempo": 120.0
            },
            {
                "start_time": 0.23409090909090907,
                "end_time": 0.4318181818181818,
                "pitch": 33,
                "velocity": 64,
                "duration": 0.19772727272727275,
                "tempo": 120.0
            },
            {
                "start_time": 0.4340909090909091,
                "end_time": 0.6318181818181818,
                "pitch": 33,
                "velocity": 64,
                "duration": 0.19772727272727275,
                "tempo": 120.0
            },
            {
                "start_time": 0.634090909090909,
                "end_time": 0.8340909090909091,
                "pitch": 33,
                "velocity": 64,
                "duration": 0.20000000000000007,
                "tempo": 120.0
            },
            {
                "start_time": 0.8340909090909091,
                "end_time": 1.034090909090909,
                "pitch": 33,
                "velocity": 64,
                "duration": 0.19999999999999984,
                "tempo": 120.0
            },
            {
                "start_time": 1.034090909090909,
                "end_time": 1.2340909090909091,
                "pitch": 28,
                "velocity": 64,
                "duration": 0.20000000000000018,
                "tempo": 120.0
            },
            {
                "start_time": 1.2340909090909091,
                "end_time": 1.4386363636363635,
                "pitch": 33,
                "velocity": 64,
                "duration": 0.20454545454545436,
                "tempo": 120.0
            },
            {
                "start_time": 1.4386363636363635,
                "end_time": 1.6454545454545453,
                "pitch": 36,
                "velocity": 64,
                "duration": 0.2068181818181818,
                "tempo": 120.0
            },
            {
                "start_time": 1.6454545454545453,
                "end_time": 1.8409090909090908,
                "pitch": 31,
                "velocity": 64,
                "duration": 0.19545454545454555,
                "tempo": 120.0
            },
            {
                "start_time": 1.843181818181818,
                "end_time": 2.036363636363636,
                "pitch": 31,
                "velocity": 64,
                "duration": 0.19318181818181812,
                "tempo": 120.0
            },
            {
                "start_time": 2.0386363636363636,
                "end_time": 2.243181818181818,
                "pitch": 31,
                "velocity": 64,
                "duration": 0.20454545454545459,
                "tempo": 120.0
            },
            {
                "start_time": 2.243181818181818,
                "end_time": 2.4477272727272728,
                "pitch": 31,
                "velocity": 64,
                "duration": 0.20454545454545459,
                "tempo": 120.0
            },
            {
                "start_time": 2.4499999999999997,
                "end_time": 2.65,
                "pitch": 31,
                "velocity": 64,
                "duration": 0.20000000000000018,
                "tempo": 120.0
            },
            {
                "start_time": 2.65,
                "end_time": 2.8499999999999996,
                "pitch": 26,
                "velocity": 64,
                "duration": 0.19999999999999973,
                "tempo": 120.0
            },
            {
                "start_time": 2.8499999999999996,
                "end_time": 3.05,
                "pitch": 31,
                "velocity": 64,
                "duration": 0.20000000000000018,
                "tempo": 120.0
            },
            {
                "start_time": 3.05,
                "end_time": 3.25,
                "pitch": 35,
                "velocity": 64,
                "duration": 0.20000000000000018,
                "tempo": 120.0
            },
            {
                "start_time": 3.252272727272727,
                "end_time": 3.452272727272727,
                "pitch": 33,
                "velocity": 64,
                "duration": 0.20000000000000018,
                "tempo": 120.0
            },
            {
                "start_time": 3.452272727272727,
                "end_time": 3.652272727272727,
                "pitch": 33,
                "velocity": 64,
                "duration": 0.19999999999999973,
                "tempo": 120.0
            },
            {
                "start_time": 3.6545454545454543,
                "end_time": 3.852272727272727,
                "pitch": 33,
                "velocity": 64,
                "duration": 0.19772727272727275,
                "tempo": 120.0
            },
            {
                "start_time": 3.8545454545454545,
                "end_time": 4.054545454545455,
                "pitch": 33,
                "velocity": 64,
                "duration": 0.20000000000000018,
                "tempo": 120.0
            },
            {
                "start_time": 4.054545454545455,
                "end_time": 4.254545454545454,
                "pitch": 33,
                "velocity": 64,
                "duration": 0.1999999999999993,
                "tempo": 120.0
            },
            {
                "start_time": 4.254545454545454,
                "end_time": 4.454545454545454,
                "pitch": 28,
                "velocity": 64,
                "duration": 0.20000000000000018,
                "tempo": 120.0
            },
            {
                "start_time": 4.454545454545454,
                "end_time": 4.654545454545454,
                "pitch": 33,
                "velocity": 64,
                "duration": 0.20000000000000018,
                "tempo": 120.0
            },
            {
                "start_time": 4.656818181818181,
                "end_time": 4.8568181818181815,
                "pitch": 36,
                "velocity": 64,
                "duration": 0.20000000000000018,
                "tempo": 120.0
            },
            {
                "start_time": 4.8590909090909085,
                "end_time": 5.056818181818182,
                "pitch": 31,
                "velocity": 64,
                "duration": 0.1977272727272732,
                "tempo": 120.0
            },
            {
                "start_time": 5.059090909090909,
                "end_time": 5.256818181818182,
                "pitch": 31,
                "velocity": 64,
                "duration": 0.1977272727272732,
                "tempo": 120.0
            },
            {
                "start_time": 5.259090909090909,
                "end_time": 5.459090909090909,
                "pitch": 31,
                "velocity": 64,
                "duration": 0.20000000000000018,
                "tempo": 120.0
            },
            {
                "start_time": 5.461363636363636,
                "end_time": 5.661363636363636,
                "pitch": 31,
                "velocity": 64,
                "duration": 0.20000000000000018,
                "tempo": 120.0
            },
            {
                "start_time": 5.661363636363636,
                "end_time": 5.861363636363636,
                "pitch": 31,
                "velocity": 64,
                "duration": 0.20000000000000018,
                "tempo": 120.0
            },
            {
                "start_time": 5.861363636363636,
                "end_time": 6.0613636363636365,
                "pitch": 26,
                "velocity": 64,
                "duration": 0.20000000000000018,
                "tempo": 120.0
            },
            {
                "start_time": 6.0613636363636365,
                "end_time": 6.263636363636364,
                "pitch": 31,
                "velocity": 64,
                "duration": 0.20227272727272716,
                "tempo": 120.0
            },
            {
                "start_time": 6.263636363636364,
                "end_time": 6.465909090909091,
                "pitch": 35,
                "velocity": 64,
                "duration": 0.20227272727272716,
                "tempo": 120.0
            },
            {
                "start_time": 6.465909090909091,
                "end_time": 6.665909090909091,
                "pitch": 29,
                "velocity": 64,
                "duration": 0.20000000000000018,
                "tempo": 120.0
            },
            {
                "start_time": 6.665909090909091,
                "end_time": 6.868181818181818,
                "pitch": 29,
                "velocity": 64,
                "duration": 0.20227272727272716,
                "tempo": 120.0
            },
            {
                "start_time": 6.868181818181818,
                "end_time": 7.0681818181818175,
                "pitch": 29,
                "velocity": 64,
                "duration": 0.1999999999999993,
                "tempo": 120.0
            },
            {
                "start_time": 7.0681818181818175,
                "end_time": 7.268181818181818,
                "pitch": 29,
                "velocity": 64,
                "duration": 0.20000000000000018,
                "tempo": 120.0
            },
            {
                "start_time": 7.268181818181818,
                "end_time": 7.470454545454545,
                "pitch": 29,
                "velocity": 64,
                "duration": 0.20227272727272716,
                "tempo": 120.0
            },
            {
                "start_time": 7.470454545454545,
                "end_time": 7.670454545454545,
                "pitch": 41,
                "velocity": 64,
                "duration": 0.20000000000000018,
                "tempo": 120.0
            },
            {
                "start_time": 7.672727272727272,
                "end_time": 7.872727272727272,
                "pitch": 26,
                "velocity": 64,
                "duration": 0.20000000000000018,
                "tempo": 120.0
            },
            {
                "start_time": 7.872727272727272,
                "end_time": 8.072727272727272,
                "pitch": 29,
                "velocity": 64,
                "duration": 0.20000000000000018,
                "tempo": 120.0
            },
            {
                "start_time": 8.072727272727272,
                "end_time": 8.272727272727272,
                "pitch": 31,
                "velocity": 64,
                "duration": 0.1999999999999993,
                "tempo": 120.0
            },
            {
                "start_time": 8.272727272727272,
                "end_time": 8.472727272727273,
                "pitch": 31,
                "velocity": 64,
                "duration": 0.20000000000000107,
                "tempo": 120.0
            },
            {
                "start_time": 8.472727272727273,
                "end_time": 8.674999999999999,
                "pitch": 31,
                "velocity": 64,
                "duration": 0.20227272727272627,
                "tempo": 120.0
            },
            {
                "start_time": 8.674999999999999,
                "end_time": 8.875,
                "pitch": 31,
                "velocity": 64,
                "duration": 0.20000000000000107,
                "tempo": 120.0
            },
            {
                "start_time": 8.877272727272727,
                "end_time": 9.081818181818182,
                "pitch": 31,
                "velocity": 64,
                "duration": 0.20454545454545503,
                "tempo": 120.0
            },
            {
                "start_time": 9.081818181818182,
                "end_time": 9.288636363636364,
                "pitch": 26,
                "velocity": 64,
                "duration": 0.206818181818182,
                "tempo": 120.0
            },
            {
                "start_time": 9.288636363636364,
                "end_time": 9.488636363636363,
                "pitch": 31,
                "velocity": 64,
                "duration": 0.1999999999999993,
                "tempo": 120.0
            },
            {
                "start_time": 9.488636363636363,
                "end_time": 9.69090909090909,
                "pitch": 35,
                "velocity": 64,
                "duration": 0.20227272727272627,
                "tempo": 120.0
            },
            {
                "start_time": 9.693181818181818,
                "end_time": 9.886363636363637,
                "pitch": 28,
                "velocity": 64,
                "duration": 0.19318181818181834,
                "tempo": 120.0
            },
            {
                "start_time": 9.886363636363637,
                "end_time": 10.084090909090909,
                "pitch": 28,
                "velocity": 64,
                "duration": 0.1977272727272723,
                "tempo": 120.0
            },
            {
                "start_time": 10.084090909090909,
                "end_time": 10.284090909090908,
                "pitch": 28,
                "velocity": 64,
                "duration": 0.1999999999999993,
                "tempo": 120.0
            },
            {
                "start_time": 10.284090909090908,
                "end_time": 10.48409090909091,
                "pitch": 28,
                "velocity": 64,
                "duration": 0.20000000000000107,
                "tempo": 120.0
            },
            {
                "start_time": 10.48409090909091,
                "end_time": 10.686363636363636,
                "pitch": 28,
                "velocity": 64,
                "duration": 0.20227272727272627,
                "tempo": 120.0
            },
            {
                "start_time": 10.686363636363636,
                "end_time": 10.886363636363637,
                "pitch": 28,
                "velocity": 64,
                "duration": 0.20000000000000107,
                "tempo": 120.0
            },
            {
                "start_time": 10.888636363636364,
                "end_time": 11.093181818181817,
                "pitch": 28,
                "velocity": 64,
                "duration": 0.20454545454545325,
                "tempo": 120.0
            },
            {
                "start_time": 11.093181818181817,
                "end_time": 11.299999999999999,
                "pitch": 28,
                "velocity": 64,
                "duration": 0.206818181818182,
                "tempo": 120.0
            },
            {
                "start_time": 11.299999999999999,
                "end_time": 11.5,
                "pitch": 28,
                "velocity": 64,
                "duration": 0.20000000000000107,
                "tempo": 120.0
            },
            {
                "start_time": 11.5,
                "end_time": 11.702272727272726,
                "pitch": 40,
                "velocity": 64,
                "duration": 0.20227272727272627,
                "tempo": 120.0
            },
            {
                "start_time": 11.702272727272726,
                "end_time": 11.904545454545454,
                "pitch": 38,
                "velocity": 64,
                "duration": 0.20227272727272805,
                "tempo": 120.0
            },
            {
                "start_time": 11.904545454545454,
                "end_time": 12.104545454545454,
                "pitch": 35,
                "velocity": 64,
                "duration": 0.1999999999999993,
                "tempo": 120.0
            },
            {
                "start_time": 12.104545454545454,
                "end_time": 12.306818181818182,
                "pitch": 32,
                "velocity": 64,
                "duration": 0.20227272727272805,
                "tempo": 120.0
            },
            {
                "start_time": 12.306818181818182,
                "end_time": 12.506818181818181,
                "pitch": 29,
                "velocity": 64,
                "duration": 0.1999999999999993,
                "tempo": 120.0
            },
            {
                "start_time": 12.509090909090908,
                "end_time": 12.709090909090909,
                "pitch": 28,
                "velocity": 64,
                "duration": 0.20000000000000107,
                "tempo": 120.0
            },
            {
                "start_time": 12.709090909090909,
                "end_time": 12.909090909090908,
                "pitch": 32,
                "velocity": 64,
                "duration": 0.1999999999999993,
                "tempo": 120.0
            },
            {
                "start_time": 12.911363636363635,
                "end_time": 13.111363636363636,
                "pitch": 33,
                "velocity": 64,
                "duration": 0.20000000000000107,
                "tempo": 120.0
            },
            {
                "start_time": 13.111363636363636,
                "end_time": 13.311363636363636,
                "pitch": 33,
                "velocity": 64,
                "duration": 0.1999999999999993,
                "tempo": 120.0
            },
            {
                "start_time": 13.311363636363636,
                "end_time": 13.513636363636364,
                "pitch": 33,
                "velocity": 64,
                "duration": 0.20227272727272805,
                "tempo": 120.0
            },
            {
                "start_time": 13.513636363636364,
                "end_time": 13.71590909090909,
                "pitch": 33,
                "velocity": 64,
                "duration": 0.20227272727272627,
                "tempo": 120.0
            },
            {
                "start_time": 13.71590909090909,
                "end_time": 13.915909090909091,
                "pitch": 33,
                "velocity": 64,
                "duration": 0.20000000000000107,
                "tempo": 120.0
            },
            {
                "start_time": 13.918181818181818,
                "end_time": 14.118181818181817,
                "pitch": 28,
                "velocity": 64,
                "duration": 0.1999999999999993,
                "tempo": 120.0
            },
            {
                "start_time": 14.118181818181817,
                "end_time": 14.320454545454545,
                "pitch": 33,
                "velocity": 64,
                "duration": 0.20227272727272805,
                "tempo": 120.0
            },
            {
                "start_time": 14.320454545454545,
                "end_time": 14.522727272727272,
                "pitch": 36,
                "velocity": 64,
                "duration": 0.20227272727272627,
                "tempo": 120.0
            },
            {
                "start_time": 14.522727272727272,
                "end_time": 14.722727272727273,
                "pitch": 31,
                "velocity": 64,
                "duration": 0.20000000000000107,
                "tempo": 120.0
            },
            {
                "start_time": 14.722727272727273,
                "end_time": 14.922727272727272,
                "pitch": 31,
                "velocity": 64,
                "duration": 0.1999999999999993,
                "tempo": 120.0
            },
            {
                "start_time": 14.922727272727272,
                "end_time": 15.122727272727271,
                "pitch": 31,
                "velocity": 64,
                "duration": 0.1999999999999993,
                "tempo": 120.0
            },
            {
                "start_time": 15.125,
                "end_time": 15.325,
                "pitch": 31,
                "velocity": 64,
                "duration": 0.1999999999999993,
                "tempo": 120.0
            },
            {
                "start_time": 15.325,
                "end_time": 15.531818181818181,
                "pitch": 31,
                "velocity": 64,
                "duration": 0.206818181818182,
                "tempo": 120.0
            },
            {
                "start_time": 15.531818181818181,
                "end_time": 15.736363636363636,
                "pitch": 26,
                "velocity": 64,
                "duration": 0.20454545454545503,
                "tempo": 120.0
            },
            {
                "start_time": 15.736363636363636,
                "end_time": 15.931818181818182,
                "pitch": 31,
                "velocity": 64,
                "duration": 0.19545454545454533,
                "tempo": 120.0
            },
            {
                "start_time": 15.934090909090909,
                "end_time": 16.129545454545454,
                "pitch": 35,
                "velocity": 64,
                "duration": 0.19545454545454533,
                "tempo": 120.0
            },
            {
                "start_time": 16.129545454545454,
                "end_time": 16.329545454545453,
                "pitch": 33,
                "velocity": 64,
                "duration": 0.1999999999999993,
                "tempo": 120.0
            },
            {
                "start_time": 16.331818181818182,
                "end_time": 16.53181818181818,
                "pitch": 33,
                "velocity": 64,
                "duration": 0.1999999999999993,
                "tempo": 120.0
            },
            {
                "start_time": 16.53181818181818,
                "end_time": 16.73181818181818,
                "pitch": 33,
                "velocity": 64,
                "duration": 0.1999999999999993,
                "tempo": 120.0
            },
            {
                "start_time": 16.73409090909091,
                "end_time": 16.93409090909091,
                "pitch": 33,
                "velocity": 64,
                "duration": 0.1999999999999993,
                "tempo": 120.0
            },
            {
                "start_time": 16.93409090909091,
                "end_time": 17.134090909090908,
                "pitch": 33,
                "velocity": 64,
                "duration": 0.1999999999999993,
                "tempo": 120.0
            },
            {
                "start_time": 17.134090909090908,
                "end_time": 17.336363636363636,
                "pitch": 28,
                "velocity": 64,
                "duration": 0.20227272727272805,
                "tempo": 120.0
            },
            {
                "start_time": 17.336363636363636,
                "end_time": 17.536363636363635,
                "pitch": 33,
                "velocity": 64,
                "duration": 0.1999999999999993,
                "tempo": 120.0
            },
            {
                "start_time": 17.536363636363635,
                "end_time": 17.736363636363635,
                "pitch": 36,
                "velocity": 64,
                "duration": 0.1999999999999993,
                "tempo": 120.0
            },
            {
                "start_time": 17.738636363636363,
                "end_time": 17.936363636363634,
                "pitch": 31,
                "velocity": 64,
                "duration": 0.19772727272727053,
                "tempo": 120.0
            },
            {
                "start_time": 17.938636363636363,
                "end_time": 18.136363636363637,
                "pitch": 31,
                "velocity": 64,
                "duration": 0.19772727272727408,
                "tempo": 120.0
            },
            {
                "start_time": 18.138636363636362,
                "end_time": 18.34318181818182,
                "pitch": 31,
                "velocity": 64,
                "duration": 0.2045454545454568,
                "tempo": 120.0
            },
            {
                "start_time": 18.34318181818182,
                "end_time": 18.547727272727272,
                "pitch": 31,
                "velocity": 64,
                "duration": 0.20454545454545325,
                "tempo": 120.0
            },
            {
                "start_time": 18.55,
                "end_time": 18.75,
                "pitch": 31,
                "velocity": 64,
                "duration": 0.1999999999999993,
                "tempo": 120.0
            },
            {
                "start_time": 18.752272727272725,
                "end_time": 18.952272727272728,
                "pitch": 26,
                "velocity": 64,
                "duration": 0.20000000000000284,
                "tempo": 120.0
            },
            {
                "start_time": 18.952272727272728,
                "end_time": 19.152272727272727,
                "pitch": 31,
                "velocity": 64,
                "duration": 0.1999999999999993,
                "tempo": 120.0
            },
            {
                "start_time": 19.152272727272727,
                "end_time": 19.352272727272727,
                "pitch": 35,
                "velocity": 64,
                "duration": 0.1999999999999993,
                "tempo": 120.0
            },
            {
                "start_time": 19.354545454545452,
                "end_time": 19.554545454545455,
                "pitch": 29,
                "velocity": 64,
                "duration": 0.20000000000000284,
                "tempo": 120.0
            },
            {
                "start_time": 19.554545454545455,
                "end_time": 19.754545454545454,
                "pitch": 29,
                "velocity": 64,
                "duration": 0.1999999999999993,
                "tempo": 120.0
            },
            {
                "start_time": 19.75681818181818,
                "end_time": 19.954545454545453,
                "pitch": 29,
                "velocity": 64,
                "duration": 0.19772727272727408,
                "tempo": 120.0
            },
            {
                "start_time": 19.956818181818182,
                "end_time": 20.15681818181818,
                "pitch": 29,
                "velocity": 64,
                "duration": 0.1999999999999993,
                "tempo": 120.0
            },
            {
                "start_time": 20.15681818181818,
                "end_time": 20.35681818181818,
                "pitch": 29,
                "velocity": 64,
                "duration": 0.1999999999999993,
                "tempo": 120.0
            },
            {
                "start_time": 20.35681818181818,
                "end_time": 20.55681818181818,
                "pitch": 41,
                "velocity": 64,
                "duration": 0.1999999999999993,
                "tempo": 120.0
            },
            {
                "start_time": 20.55681818181818,
                "end_time": 20.75681818181818,
                "pitch": 26,
                "velocity": 64,
                "duration": 0.1999999999999993,
                "tempo": 120.0
            },
            {
                "start_time": 20.759090909090908,
                "end_time": 20.961363636363636,
                "pitch": 29,
                "velocity": 64,
                "duration": 0.20227272727272805,
                "tempo": 120.0
            },
            {
                "start_time": 20.961363636363636,
                "end_time": 21.159090909090907,
                "pitch": 31,
                "velocity": 64,
                "duration": 0.19772727272727053,
                "tempo": 120.0
            },
            {
                "start_time": 21.161363636363635,
                "end_time": 21.35909090909091,
                "pitch": 31,
                "velocity": 64,
                "duration": 0.19772727272727408,
                "tempo": 120.0
            },
            {
                "start_time": 21.361363636363635,
                "end_time": 21.561363636363634,
                "pitch": 31,
                "velocity": 64,
                "duration": 0.1999999999999993,
                "tempo": 120.0
            },
            {
                "start_time": 21.563636363636363,
                "end_time": 21.763636363636362,
                "pitch": 31,
                "velocity": 64,
                "duration": 0.1999999999999993,
                "tempo": 120.0
            },
            {
                "start_time": 21.763636363636362,
                "end_time": 21.96363636363636,
                "pitch": 31,
                "velocity": 64,
                "duration": 0.1999999999999993,
                "tempo": 120.0
            },
            {
                "start_time": 21.96363636363636,
                "end_time": 22.163636363636364,
                "pitch": 26,
                "velocity": 64,
                "duration": 0.20000000000000284,
                "tempo": 120.0
            },
            {
                "start_time": 22.16590909090909,
                "end_time": 22.363636363636363,
                "pitch": 31,
                "velocity": 64,
                "duration": 0.19772727272727408,
                "tempo": 120.0
            },
            {
                "start_time": 22.36590909090909,
                "end_time": 22.56590909090909,
                "pitch": 35,
                "velocity": 64,
                "duration": 0.20000000000000284,
                "tempo": 120.0
            },
            {
                "start_time": 22.56590909090909,
                "end_time": 22.76590909090909,
                "pitch": 33,
                "velocity": 64,
                "duration": 0.1999999999999993,
                "tempo": 120.0
            },
            {
                "start_time": 22.76590909090909,
                "end_time": 22.96818181818182,
                "pitch": 33,
                "velocity": 64,
                "duration": 0.20227272727272805,
                "tempo": 120.0
            },
            {
                "start_time": 22.96818181818182,
                "end_time": 23.168181818181818,
                "pitch": 33,
                "velocity": 64,
                "duration": 0.1999999999999993,
                "tempo": 120.0
            },
            {
                "start_time": 23.168181818181818,
                "end_time": 23.368181818181817,
                "pitch": 33,
                "velocity": 64,
                "duration": 0.1999999999999993,
                "tempo": 120.0
            },
            {
                "start_time": 23.368181818181817,
                "end_time": 23.570454545454545,
                "pitch": 33,
                "velocity": 64,
                "duration": 0.20227272727272805,
                "tempo": 120.0
            },
            {
                "start_time": 23.570454545454545,
                "end_time": 23.770454545454545,
                "pitch": 33,
                "velocity": 64,
                "duration": 0.1999999999999993,
                "tempo": 120.0
            },
            {
                "start_time": 23.77272727272727,
                "end_time": 23.970454545454544,
                "pitch": 33,
                "velocity": 64,
                "duration": 0.19772727272727408,
                "tempo": 120.0
            },
            {
                "start_time": 23.972727272727273,
                "end_time": 24.172727272727272,
                "pitch": 33,
                "velocity": 64,
                "duration": 0.1999999999999993,
                "tempo": 120.0
            },
            {
                "start_time": 24.172727272727272,
                "end_time": 24.37272727272727,
                "pitch": 33,
                "velocity": 64,
                "duration": 0.1999999999999993,
                "tempo": 120.0
            },
            {
                "start_time": 24.37272727272727,
                "end_time": 24.57272727272727,
                "pitch": 33,
                "velocity": 64,
                "duration": 0.1999999999999993,
                "tempo": 120.0
            },
            {
                "start_time": 24.57272727272727,
                "end_time": 24.77272727272727,
                "pitch": 33,
                "velocity": 64,
                "duration": 0.1999999999999993,
                "tempo": 120.0
            },
            {
                "start_time": 24.775,
                "end_time": 24.974999999999998,
                "pitch": 33,
                "velocity": 64,
                "duration": 0.1999999999999993,
                "tempo": 120.0
            },
            {
                "start_time": 24.977272727272727,
                "end_time": 25.177272727272726,
                "pitch": 33,
                "velocity": 64,
                "duration": 0.1999999999999993,
                "tempo": 120.0
            },
            {
                "start_time": 25.177272727272726,
                "end_time": 25.375,
                "pitch": 35,
                "velocity": 64,
                "duration": 0.19772727272727408,
                "tempo": 120.0
            },
            {
                "start_time": 25.579545454545453,
                "end_time": 25.979545454545452,
                "pitch": 36,
                "velocity": 64,
                "duration": 0.3999999999999986,
                "tempo": 120.0
            },
            {
                "start_time": 25.979545454545452,
                "end_time": 26.179545454545455,
                "pitch": 48,
                "velocity": 64,
                "duration": 0.20000000000000284,
                "tempo": 120.0
            },
            {
                "start_time": 26.179545454545455,
                "end_time": 26.386363636363637,
                "pitch": 36,
                "velocity": 64,
                "duration": 0.206818181818182,
                "tempo": 120.0
            },
            {
                "start_time": 26.386363636363637,
                "end_time": 26.59090909090909,
                "pitch": 36,
                "velocity": 64,
                "duration": 0.20454545454545325,
                "tempo": 120.0
            },
            {
                "start_time": 26.59090909090909,
                "end_time": 26.786363636363635,
                "pitch": 36,
                "velocity": 64,
                "duration": 0.19545454545454533,
                "tempo": 120.0
            },
            {
                "start_time": 26.788636363636364,
                "end_time": 26.98409090909091,
                "pitch": 36,
                "velocity": 64,
                "duration": 0.19545454545454533,
                "tempo": 120.0
            },
            {
                "start_time": 26.98409090909091,
                "end_time": 27.188636363636363,
                "pitch": 36,
                "velocity": 64,
                "duration": 0.20454545454545325,
                "tempo": 120.0
            },
            {
                "start_time": 27.19090909090909,
                "end_time": 27.595454545454544,
                "pitch": 33,
                "velocity": 64,
                "duration": 0.40454545454545254,
                "tempo": 120.0
            },
            {
                "start_time": 27.595454545454544,
                "end_time": 27.795454545454543,
                "pitch": 45,
                "velocity": 64,
                "duration": 0.1999999999999993,
                "tempo": 120.0
            },
            {
                "start_time": 27.797727272727272,
                "end_time": 27.99772727272727,
                "pitch": 33,
                "velocity": 64,
                "duration": 0.1999999999999993,
                "tempo": 120.0
            },
            {
                "start_time": 27.99772727272727,
                "end_time": 28.19772727272727,
                "pitch": 33,
                "velocity": 64,
                "duration": 0.1999999999999993,
                "tempo": 120.0
            },
            {
                "start_time": 28.2,
                "end_time": 28.39772727272727,
                "pitch": 33,
                "velocity": 64,
                "duration": 0.19772727272727053,
                "tempo": 120.0
            },
            {
                "start_time": 28.4,
                "end_time": 28.599999999999998,
                "pitch": 33,
                "velocity": 64,
                "duration": 0.1999999999999993,
                "tempo": 120.0
            },
            {
                "start_time": 28.599999999999998,
                "end_time": 28.799999999999997,
                "pitch": 33,
                "velocity": 64,
                "duration": 0.1999999999999993,
                "tempo": 120.0
            },
            {
                "start_time": 28.799999999999997,
                "end_time": 29.0,
                "pitch": 33,
                "velocity": 64,
                "duration": 0.20000000000000284,
                "tempo": 120.0
            },
            {
                "start_time": 29.0,
                "end_time": 29.202272727272724,
                "pitch": 29,
                "velocity": 64,
                "duration": 0.2022727272727245,
                "tempo": 120.0
            },
            {
                "start_time": 29.202272727272724,
                "end_time": 29.402272727272727,
                "pitch": 29,
                "velocity": 64,
                "duration": 0.20000000000000284,
                "tempo": 120.0
            },
            {
                "start_time": 29.404545454545453,
                "end_time": 29.602272727272727,
                "pitch": 41,
                "velocity": 64,
                "duration": 0.19772727272727408,
                "tempo": 120.0
            },
            {
                "start_time": 29.604545454545452,
                "end_time": 30.004545454545454,
                "pitch": 29,
                "velocity": 64,
                "duration": 0.40000000000000213,
                "tempo": 120.0
            },
            {
                "start_time": 30.00681818181818,
                "end_time": 30.206818181818182,
                "pitch": 29,
                "velocity": 64,
                "duration": 0.20000000000000284,
                "tempo": 120.0
            },
            {
                "start_time": 30.206818181818182,
                "end_time": 30.40681818181818,
                "pitch": 29,
                "velocity": 64,
                "duration": 0.1999999999999993,
                "tempo": 120.0
            },
            {
                "start_time": 30.409090909090907,
                "end_time": 30.80681818181818,
                "pitch": 31,
                "velocity": 64,
                "duration": 0.3977272727272734,
                "tempo": 120.0
            },
            {
                "start_time": 30.80909090909091,
                "end_time": 31.00681818181818,
                "pitch": 43,
                "velocity": 64,
                "duration": 0.19772727272727053,
                "tempo": 120.0
            },
            {
                "start_time": 31.009090909090908,
                "end_time": 31.209090909090907,
                "pitch": 31,
                "velocity": 64,
                "duration": 0.1999999999999993,
                "tempo": 120.0
            },
            {
                "start_time": 31.209090909090907,
                "end_time": 31.411363636363635,
                "pitch": 31,
                "velocity": 64,
                "duration": 0.20227272727272805,
                "tempo": 120.0
            },
            {
                "start_time": 31.411363636363635,
                "end_time": 31.61590909090909,
                "pitch": 31,
                "velocity": 64,
                "duration": 0.20454545454545325,
                "tempo": 120.0
            },
            {
                "start_time": 31.618181818181817,
                "end_time": 31.82272727272727,
                "pitch": 31,
                "velocity": 64,
                "duration": 0.20454545454545325,
                "tempo": 120.0
            },
            {
                "start_time": 31.82272727272727,
                "end_time": 32.018181818181816,
                "pitch": 31,
                "velocity": 64,
                "duration": 0.19545454545454533,
                "tempo": 120.0
            },
            {
                "start_time": 32.02045454545454,
                "end_time": 32.41590909090909,
                "pitch": 29,
                "velocity": 64,
                "duration": 0.39545454545454817,
                "tempo": 120.0
            },
            {
                "start_time": 32.41590909090909,
                "end_time": 32.61590909090909,
                "pitch": 41,
                "velocity": 64,
                "duration": 0.20000000000000284,
                "tempo": 120.0
            },
            {
                "start_time": 32.61590909090909,
                "end_time": 32.81590909090909,
                "pitch": 29,
                "velocity": 64,
                "duration": 0.19999999999999574,
                "tempo": 120.0
            },
            {
                "start_time": 32.81590909090909,
                "end_time": 33.01590909090909,
                "pitch": 29,
                "velocity": 64,
                "duration": 0.20000000000000284,
                "tempo": 120.0
            },
            {
                "start_time": 33.01590909090909,
                "end_time": 33.215909090909086,
                "pitch": 29,
                "velocity": 64,
                "duration": 0.19999999999999574,
                "tempo": 120.0
            },
            {
                "start_time": 33.215909090909086,
                "end_time": 33.41590909090909,
                "pitch": 29,
                "velocity": 64,
                "duration": 0.20000000000000284,
                "tempo": 120.0
            },
            {
                "start_time": 33.41590909090909,
                "end_time": 33.62272727272727,
                "pitch": 29,
                "velocity": 64,
                "duration": 0.20681818181817846,
                "tempo": 120.0
            },
            {
                "start_time": 33.62272727272727,
                "end_time": 34.02272727272727,
                "pitch": 31,
                "velocity": 64,
                "duration": 0.4000000000000057,
                "tempo": 120.0
            },
            {
                "start_time": 34.025,
                "end_time": 34.220454545454544,
                "pitch": 31,
                "velocity": 64,
                "duration": 0.19545454545454533,
                "tempo": 120.0
            },
            {
                "start_time": 34.220454545454544,
                "end_time": 34.425,
                "pitch": 43,
                "velocity": 64,
                "duration": 0.20454545454545325,
                "tempo": 120.0
            },
            {
                "start_time": 34.42727272727272,
                "end_time": 34.83181818181818,
                "pitch": 31,
                "velocity": 64,
                "duration": 0.4045454545454561,
                "tempo": 120.0
            },
            {
                "start_time": 34.83181818181818,
                "end_time": 35.03181818181818,
                "pitch": 31,
                "velocity": 64,
                "duration": 0.20000000000000284,
                "tempo": 120.0
            },
            {
                "start_time": 35.03181818181818,
                "end_time": 35.23409090909091,
                "pitch": 31,
                "velocity": 64,
                "duration": 0.20227272727272805,
                "tempo": 120.0
            },
            {
                "start_time": 35.23409090909091,
                "end_time": 35.63636363636363,
                "pitch": 38,
                "velocity": 64,
                "duration": 0.4022727272727238,
                "tempo": 120.0
            },
            {
                "start_time": 35.63636363636363,
                "end_time": 35.836363636363636,
                "pitch": 38,
                "velocity": 64,
                "duration": 0.20000000000000284,
                "tempo": 120.0
            },
            {
                "start_time": 35.836363636363636,
                "end_time": 36.03636363636363,
                "pitch": 38,
                "velocity": 64,
                "duration": 0.19999999999999574,
                "tempo": 120.0
            },
            {
                "start_time": 36.03636363636363,
                "end_time": 36.236363636363635,
                "pitch": 38,
                "velocity": 64,
                "duration": 0.20000000000000284,
                "tempo": 120.0
            },
            {
                "start_time": 36.236363636363635,
                "end_time": 36.43636363636364,
                "pitch": 38,
                "velocity": 64,
                "duration": 0.20000000000000284,
                "tempo": 120.0
            },
            {
                "start_time": 36.43636363636364,
                "end_time": 36.63636363636363,
                "pitch": 38,
                "velocity": 64,
                "duration": 0.19999999999999574,
                "tempo": 120.0
            },
            {
                "start_time": 36.63636363636363,
                "end_time": 36.836363636363636,
                "pitch": 38,
                "velocity": 64,
                "duration": 0.20000000000000284,
                "tempo": 120.0
            },
            {
                "start_time": 36.83863636363636,
                "end_time": 37.23863636363636,
                "pitch": 28,
                "velocity": 64,
                "duration": 0.3999999999999986,
                "tempo": 120.0
            },
            {
                "start_time": 37.23863636363636,
                "end_time": 37.33863636363636,
                "pitch": 40,
                "velocity": 64,
                "duration": 0.10000000000000142,
                "tempo": 120.0
            },
            {
                "start_time": 37.340909090909086,
                "end_time": 37.44090909090909,
                "pitch": 28,
                "velocity": 64,
                "duration": 0.10000000000000142,
                "tempo": 120.0
            },
            {
                "start_time": 37.44090909090909,
                "end_time": 37.64090909090909,
                "pitch": 28,
                "velocity": 64,
                "duration": 0.20000000000000284,
                "tempo": 120.0
            },
            {
                "start_time": 37.64090909090909,
                "end_time": 37.840909090909086,
                "pitch": 28,
                "velocity": 64,
                "duration": 0.19999999999999574,
                "tempo": 120.0
            },
            {
                "start_time": 37.840909090909086,
                "end_time": 38.04090909090909,
                "pitch": 32,
                "velocity": 64,
                "duration": 0.20000000000000284,
                "tempo": 120.0
            },
            {
                "start_time": 38.04090909090909,
                "end_time": 38.24090909090909,
                "pitch": 32,
                "velocity": 64,
                "duration": 0.20000000000000284,
                "tempo": 120.0
            },
            {
                "start_time": 38.24318181818182,
                "end_time": 38.44090909090909,
                "pitch": 35,
                "velocity": 64,
                "duration": 0.19772727272727053,
                "tempo": 120.0
            },
            {
                "start_time": 38.44318181818181,
                "end_time": 38.643181818181816,
                "pitch": 35,
                "velocity": 64,
                "duration": 0.20000000000000284,
                "tempo": 120.0
            },
            {
                "start_time": 38.643181818181816,
                "end_time": 38.84318181818182,
                "pitch": 29,
                "velocity": 64,
                "duration": 0.20000000000000284,
                "tempo": 120.0
            },
            {
                "start_time": 38.84318181818182,
                "end_time": 39.24545454545454,
                "pitch": 29,
                "velocity": 64,
                "duration": 0.4022727272727238,
                "tempo": 120.0
            },
            {
                "start_time": 39.24545454545454,
                "end_time": 39.85681818181818,
                "pitch": 28,
                "velocity": 64,
                "duration": 0.6113636363636346,
                "tempo": 120.0
            },
            {
                "start_time": 39.85909090909091,
                "end_time": 41.05227272727272,
                "pitch": 28,
                "velocity": 64,
                "duration": 1.193181818181813,
                "tempo": 120.0
            },
            {
                "start_time": 41.05227272727272,
                "end_time": 41.45454545454545,
                "pitch": 41,
                "velocity": 64,
                "duration": 0.4022727272727309,
                "tempo": 120.0
            },
            {
                "start_time": 41.45454545454545,
                "end_time": 41.85454545454545,
                "pitch": 40,
                "velocity": 64,
                "duration": 0.3999999999999986,
                "tempo": 120.0
            },
            {
                "start_time": 41.85681818181818,
                "end_time": 42.06136363636364,
                "pitch": 33,
                "velocity": 64,
                "duration": 0.20454545454546036,
                "tempo": 120.0
            },
            {
                "start_time": 42.06136363636364,
                "end_time": 42.46818181818182,
                "pitch": 33,
                "velocity": 64,
                "duration": 0.4068181818181813,
                "tempo": 120.0
            },
            {
                "start_time": 42.46818181818182,
                "end_time": 43.070454545454545,
                "pitch": 33,
                "velocity": 64,
                "duration": 0.6022727272727266,
                "tempo": 120.0
            },
            {
                "start_time": 43.070454545454545,
                "end_time": 44.27272727272727,
                "pitch": 33,
                "velocity": 64,
                "duration": 1.202272727272728,
                "tempo": 120.0
            },
            {
                "start_time": 44.27272727272727,
                "end_time": 44.675,
                "pitch": 33,
                "velocity": 64,
                "duration": 0.4022727272727238,
                "tempo": 120.0
            },
            {
                "start_time": 44.675,
                "end_time": 45.074999999999996,
                "pitch": 31,
                "velocity": 64,
                "duration": 0.3999999999999986,
                "tempo": 120.0
            },
            {
                "start_time": 45.07727272727273,
                "end_time": 45.275,
                "pitch": 29,
                "velocity": 64,
                "duration": 0.19772727272727053,
                "tempo": 120.0
            },
            {
                "start_time": 45.277272727272724,
                "end_time": 45.675,
                "pitch": 29,
                "velocity": 64,
                "duration": 0.3977272727272734,
                "tempo": 120.0
            },
            {
                "start_time": 45.67727272727272,
                "end_time": 46.28636363636363,
                "pitch": 28,
                "velocity": 64,
                "duration": 0.6090909090909093,
                "tempo": 120.0
            },
            {
                "start_time": 46.288636363636364,
                "end_time": 47.48181818181818,
                "pitch": 28,
                "velocity": 64,
                "duration": 1.193181818181813,
                "tempo": 120.0
            },
            {
                "start_time": 47.48181818181818,
                "end_time": 47.88181818181818,
                "pitch": 41,
                "velocity": 64,
                "duration": 0.4000000000000057,
                "tempo": 120.0
            },
            {
                "start_time": 47.88181818181818,
                "end_time": 48.28181818181818,
                "pitch": 40,
                "velocity": 64,
                "duration": 0.3999999999999986,
                "tempo": 120.0
            },
            {
                "start_time": 48.28409090909091,
                "end_time": 48.48409090909091,
                "pitch": 33,
                "velocity": 64,
                "duration": 0.20000000000000284,
                "tempo": 120.0
            },
            {
                "start_time": 48.48409090909091,
                "end_time": 48.89090909090909,
                "pitch": 33,
                "velocity": 64,
                "duration": 0.4068181818181813,
                "tempo": 120.0
            },
            {
                "start_time": 48.89090909090909,
                "end_time": 49.49772727272727,
                "pitch": 33,
                "velocity": 64,
                "duration": 0.606818181818177,
                "tempo": 120.0
            },
            {
                "start_time": 49.49772727272727,
                "end_time": 50.70227272727273,
                "pitch": 33,
                "velocity": 64,
                "duration": 1.2045454545454604,
                "tempo": 120.0
            },
            {
                "start_time": 50.70227272727273,
                "end_time": 51.09318181818182,
                "pitch": 33,
                "velocity": 64,
                "duration": 0.39090909090909065,
                "tempo": 120.0
            },
            {
                "start_time": 51.095454545454544,
                "end_time": 51.50681818181818,
                "pitch": 31,
                "velocity": 64,
                "duration": 0.4113636363636388,
                "tempo": 120.0
            },
            {
                "start_time": 51.50681818181818,
                "end_time": 51.70681818181818,
                "pitch": 29,
                "velocity": 64,
                "duration": 0.19999999999999574,
                "tempo": 120.0
            },
            {
                "start_time": 51.70681818181818,
                "end_time": 52.10681818181818,
                "pitch": 29,
                "velocity": 64,
                "duration": 0.3999999999999986,
                "tempo": 120.0
            },
            {
                "start_time": 52.10909090909091,
                "end_time": 52.720454545454544,
                "pitch": 28,
                "velocity": 64,
                "duration": 0.6113636363636346,
                "tempo": 120.0
            },
            {
                "start_time": 52.720454545454544,
                "end_time": 53.913636363636364,
                "pitch": 28,
                "velocity": 64,
                "duration": 1.1931818181818201,
                "tempo": 120.0
            },
            {
                "start_time": 53.91590909090909,
                "end_time": 54.31818181818181,
                "pitch": 41,
                "velocity": 64,
                "duration": 0.4022727272727238,
                "tempo": 120.0
            },
            {
                "start_time": 54.31818181818181,
                "end_time": 54.71818181818182,
                "pitch": 40,
                "velocity": 64,
                "duration": 0.4000000000000057,
                "tempo": 120.0
            },
            {
                "start_time": 54.720454545454544,
                "end_time": 54.918181818181814,
                "pitch": 33,
                "velocity": 64,
                "duration": 0.19772727272727053,
                "tempo": 120.0
            },
            {
                "start_time": 54.918181818181814,
                "end_time": 55.31818181818181,
                "pitch": 33,
                "velocity": 64,
                "duration": 0.3999999999999986,
                "tempo": 120.0
            },
            {
                "start_time": 55.320454545454545,
                "end_time": 55.929545454545455,
                "pitch": 33,
                "velocity": 64,
                "duration": 0.6090909090909093,
                "tempo": 120.0
            },
            {
                "start_time": 55.93181818181818,
                "end_time": 57.125,
                "pitch": 33,
                "velocity": 64,
                "duration": 1.1931818181818201,
                "tempo": 120.0
            },
            {
                "start_time": 57.125,
                "end_time": 57.525,
                "pitch": 45,
                "velocity": 64,
                "duration": 0.3999999999999986,
                "tempo": 120.0
            },
            {
                "start_time": 57.525,
                "end_time": 57.93636363636363,
                "pitch": 43,
                "velocity": 64,
                "duration": 0.4113636363636317,
                "tempo": 120.0
            },
            {
                "start_time": 57.93636363636363,
                "end_time": 58.13636363636363,
                "pitch": 29,
                "velocity": 64,
                "duration": 0.20000000000000284,
                "tempo": 120.0
            },
            {
                "start_time": 58.13636363636363,
                "end_time": 58.53636363636363,
                "pitch": 29,
                "velocity": 64,
                "duration": 0.3999999999999986,
                "tempo": 120.0
            },
            {
                "start_time": 58.538636363636364,
                "end_time": 59.13636363636363,
                "pitch": 28,
                "velocity": 64,
                "duration": 0.5977272727272691,
                "tempo": 120.0
            },
            {
                "start_time": 59.13863636363636,
                "end_time": 60.340909090909086,
                "pitch": 28,
                "velocity": 64,
                "duration": 1.202272727272728,
                "tempo": 120.0
            },
            {
                "start_time": 60.34318181818182,
                "end_time": 60.74318181818182,
                "pitch": 41,
                "velocity": 64,
                "duration": 0.3999999999999986,
                "tempo": 120.0
            },
            {
                "start_time": 60.74318181818182,
                "end_time": 61.143181818181816,
                "pitch": 40,
                "velocity": 64,
                "duration": 0.3999999999999986,
                "tempo": 120.0
            },
            {
                "start_time": 61.143181818181816,
                "end_time": 61.34318181818182,
                "pitch": 33,
                "velocity": 64,
                "duration": 0.20000000000000284,
                "tempo": 120.0
            },
            {
                "start_time": 61.34318181818182,
                "end_time": 61.74545454545454,
                "pitch": 33,
                "velocity": 64,
                "duration": 0.4022727272727238,
                "tempo": 120.0
            },
            {
                "start_time": 61.74545454545454,
                "end_time": 62.35681818181818,
                "pitch": 33,
                "velocity": 64,
                "duration": 0.6113636363636346,
                "tempo": 120.0
            },
            {
                "start_time": 62.35909090909091,
                "end_time": 64.35454545454544,
                "pitch": 45,
                "velocity": 64,
                "duration": 1.9954545454545354,
                "tempo": 120.0
            },
            {
                "start_time": 64.36136363636363,
                "end_time": 64.36363636363636,
                "pitch": 33,
                "velocity": 64,
                "duration": 0.0022727272727252057,
                "tempo": 120.0
            }
        ],
        "Violin": [
            {
                "start_time": 0.03409090909090909,
                "end_time": 0.1318181818181818,
                "pitch": 69,
                "velocity": 127,
                "duration": 0.09772727272727272,
                "tempo": 120.0
            },
            {
                "start_time": 0.1318181818181818,
                "end_time": 0.2318181818181818,
                "pitch": 71,
                "velocity": 127,
                "duration": 0.1,
                "tempo": 120.0
            },
            {
                "start_time": 0.2318181818181818,
                "end_time": 0.4318181818181818,
                "pitch": 72,
                "velocity": 127,
                "duration": 0.2,
                "tempo": 120.0
            },
            {
                "start_time": 0.8340909090909091,
                "end_time": 0.9318181818181818,
                "pitch": 57,
                "velocity": 127,
                "duration": 0.09772727272727266,
                "tempo": 120.0
            },
            {
                "start_time": 0.9340909090909091,
                "end_time": 1.0318181818181817,
                "pitch": 59,
                "velocity": 127,
                "duration": 0.09772727272727266,
                "tempo": 120.0
            },
            {
                "start_time": 1.034090909090909,
                "end_time": 1.2340909090909091,
                "pitch": 60,
                "velocity": 127,
                "duration": 0.20000000000000018,
                "tempo": 120.0
            },
            {
                "start_time": 1.6454545454545453,
                "end_time": 1.8409090909090908,
                "pitch": 74,
                "velocity": 127,
                "duration": 0.19545454545454555,
                "tempo": 120.0
            },
            {
                "start_time": 1.8409090909090908,
                "end_time": 2.036363636363636,
                "pitch": 71,
                "velocity": 127,
                "duration": 0.19545454545454533,
                "tempo": 120.0
            },
            {
                "start_time": 2.243181818181818,
                "end_time": 2.4477272727272728,
                "pitch": 67,
                "velocity": 127,
                "duration": 0.20454545454545459,
                "tempo": 120.0
            },
            {
                "start_time": 2.65,
                "end_time": 3.25,
                "pitch": 79,
                "velocity": 127,
                "duration": 0.6000000000000001,
                "tempo": 120.0
            },
            {
                "start_time": 3.25,
                "end_time": 4.052272727272727,
                "pitch": 76,
                "velocity": 127,
                "duration": 0.8022727272727268,
                "tempo": 120.0
            },
            {
                "start_time": 4.054545454545455,
                "end_time": 4.454545454545454,
                "pitch": 72,
                "velocity": 127,
                "duration": 0.39999999999999947,
                "tempo": 120.0
            },
            {
                "start_time": 4.454545454545454,
                "end_time": 4.8568181818181815,
                "pitch": 76,
                "velocity": 127,
                "duration": 0.40227272727272734,
                "tempo": 120.0
            },
            {
                "start_time": 4.8568181818181815,
                "end_time": 5.056818181818182,
                "pitch": 74,
                "velocity": 127,
                "duration": 0.20000000000000018,
                "tempo": 120.0
            },
            {
                "start_time": 5.056818181818182,
                "end_time": 5.459090909090909,
                "pitch": 72,
                "velocity": 127,
                "duration": 0.40227272727272734,
                "tempo": 120.0
            },
            {
                "start_time": 5.459090909090909,
                "end_time": 5.861363636363636,
                "pitch": 71,
                "velocity": 127,
                "duration": 0.40227272727272734,
                "tempo": 120.0
            },
            {
                "start_time": 5.861363636363636,
                "end_time": 6.463636363636363,
                "pitch": 67,
                "velocity": 127,
                "duration": 0.6022727272727266,
                "tempo": 120.0
            },
            {
                "start_time": 6.465909090909091,
                "end_time": 8.072727272727272,
                "pitch": 76,
                "velocity": 127,
                "duration": 1.6068181818181815,
                "tempo": 120.0
            },
            {
                "start_time": 8.072727272727272,
                "end_time": 8.672727272727272,
                "pitch": 74,
                "velocity": 127,
                "duration": 0.5999999999999996,
                "tempo": 120.0
            },
            {
                "start_time": 8.674999999999999,
                "end_time": 9.286363636363635,
                "pitch": 72,
                "velocity": 127,
                "duration": 0.6113636363636363,
                "tempo": 120.0
            },
            {
                "start_time": 9.288636363636364,
                "end_time": 9.69090909090909,
                "pitch": 71,
                "velocity": 127,
                "duration": 0.40227272727272556,
                "tempo": 120.0
            },
            {
                "start_time": 9.69090909090909,
                "end_time": 11.09090909090909,
                "pitch": 69,
                "velocity": 127,
                "duration": 1.4000000000000004,
                "tempo": 120.0
            },
            {
                "start_time": 11.093181818181817,
                "end_time": 11.195454545454545,
                "pitch": 68,
                "velocity": 127,
                "duration": 0.1022727272727284,
                "tempo": 120.0
            },
            {
                "start_time": 11.195454545454545,
                "end_time": 11.297727272727272,
                "pitch": 69,
                "velocity": 127,
                "duration": 0.10227272727272663,
                "tempo": 120.0
            },
            {
                "start_time": 11.299999999999999,
                "end_time": 11.902272727272727,
                "pitch": 71,
                "velocity": 127,
                "duration": 0.6022727272727284,
                "tempo": 120.0
            },
            {
                "start_time": 11.904545454545454,
                "end_time": 12.909090909090908,
                "pitch": 76,
                "velocity": 127,
                "duration": 1.004545454545454,
                "tempo": 120.0
            },
            {
                "start_time": 12.909090909090908,
                "end_time": 13.009090909090908,
                "pitch": 69,
                "velocity": 127,
                "duration": 0.09999999999999964,
                "tempo": 120.0
            },
            {
                "start_time": 13.009090909090908,
                "end_time": 13.109090909090908,
                "pitch": 71,
                "velocity": 127,
                "duration": 0.09999999999999964,
                "tempo": 120.0
            },
            {
                "start_time": 13.111363636363636,
                "end_time": 13.311363636363636,
                "pitch": 72,
                "velocity": 127,
                "duration": 0.1999999999999993,
                "tempo": 120.0
            },
            {
                "start_time": 13.71590909090909,
                "end_time": 13.81590909090909,
                "pitch": 57,
                "velocity": 127,
                "duration": 0.09999999999999964,
                "tempo": 120.0
            },
            {
                "start_time": 13.81590909090909,
                "end_time": 13.915909090909091,
                "pitch": 59,
                "velocity": 127,
                "duration": 0.10000000000000142,
                "tempo": 120.0
            },
            {
                "start_time": 13.915909090909091,
                "end_time": 14.118181818181817,
                "pitch": 60,
                "velocity": 127,
                "duration": 0.20227272727272627,
                "tempo": 120.0
            },
            {
                "start_time": 14.522727272727272,
                "end_time": 14.720454545454544,
                "pitch": 74,
                "velocity": 127,
                "duration": 0.1977272727272723,
                "tempo": 120.0
            },
            {
                "start_time": 14.722727272727273,
                "end_time": 14.920454545454545,
                "pitch": 71,
                "velocity": 127,
                "duration": 0.1977272727272723,
                "tempo": 120.0
            },
            {
                "start_time": 15.122727272727271,
                "end_time": 15.325,
                "pitch": 67,
                "velocity": 127,
                "duration": 0.20227272727272805,
                "tempo": 120.0
            },
            {
                "start_time": 15.531818181818181,
                "end_time": 16.129545454545454,
                "pitch": 79,
                "velocity": 127,
                "duration": 0.5977272727272727,
                "tempo": 120.0
            },
            {
                "start_time": 16.129545454545454,
                "end_time": 16.93181818181818,
                "pitch": 76,
                "velocity": 127,
                "duration": 0.8022727272727259,
                "tempo": 120.0
            },
            {
                "start_time": 16.93409090909091,
                "end_time": 17.336363636363636,
                "pitch": 72,
                "velocity": 127,
                "duration": 0.40227272727272734,
                "tempo": 120.0
            },
            {
                "start_time": 17.336363636363636,
                "end_time": 17.736363636363635,
                "pitch": 76,
                "velocity": 127,
                "duration": 0.3999999999999986,
                "tempo": 120.0
            },
            {
                "start_time": 17.736363636363635,
                "end_time": 17.936363636363634,
                "pitch": 74,
                "velocity": 127,
                "duration": 0.1999999999999993,
                "tempo": 120.0
            },
            {
                "start_time": 17.936363636363634,
                "end_time": 18.34090909090909,
                "pitch": 72,
                "velocity": 127,
                "duration": 0.4045454545454561,
                "tempo": 120.0
            },
            {
                "start_time": 18.34318181818182,
                "end_time": 18.75,
                "pitch": 71,
                "velocity": 127,
                "duration": 0.4068181818181813,
                "tempo": 120.0
            },
            {
                "start_time": 18.75,
                "end_time": 19.352272727272727,
                "pitch": 67,
                "velocity": 127,
                "duration": 0.6022727272727266,
                "tempo": 120.0
            },
            {
                "start_time": 19.352272727272727,
                "end_time": 20.959090909090907,
                "pitch": 76,
                "velocity": 127,
                "duration": 1.6068181818181806,
                "tempo": 120.0
            },
            {
                "start_time": 20.959090909090907,
                "end_time": 21.561363636363634,
                "pitch": 74,
                "velocity": 127,
                "duration": 0.6022727272727266,
                "tempo": 120.0
            },
            {
                "start_time": 21.561363636363634,
                "end_time": 22.163636363636364,
                "pitch": 72,
                "velocity": 127,
                "duration": 0.6022727272727302,
                "tempo": 120.0
            },
            {
                "start_time": 22.163636363636364,
                "end_time": 22.563636363636363,
                "pitch": 71,
                "velocity": 127,
                "duration": 0.3999999999999986,
                "tempo": 120.0
            },
            {
                "start_time": 22.56590909090909,
                "end_time": 24.974999999999998,
                "pitch": 69,
                "velocity": 127,
                "duration": 2.4090909090909065,
                "tempo": 120.0
            },
            {
                "start_time": 64.35909090909091,
                "end_time": 64.36363636363636,
                "pitch": 69,
                "velocity": 127,
                "duration": 0.004545454545450411,
                "tempo": 120.0
            }
        ]
    }
}