{
    "track_id": "02 Sample 2",
    "mood": "happy",
    "instruments": {
        "Harpsichord": [
            {
                "start_time": 0.029545454545454545,
                "end_time": 0.8227272727272726,
                "pitch": 61,
                "velocity": 51,
                "duration": 0.7931818181818181,
                "tempo": 120.0
            },
            {
                "start_time": 0.8227272727272726,
                "end_time": 3.2477272727272726,
                "pitch": 62,
                "velocity": 51,
                "duration": 2.425,
                "tempo": 120.0
            },
            {
                "start_time": 3.2477272727272726,
                "end_time": 4.040909090909091,
                "pitch": 63,
                "velocity": 51,
                "duration": 0.7931818181818184,
                "tempo": 120.0
            },
            {
                "start_time": 4.040909090909091,
                "end_time": 6.461363636363636,
                "pitch": 64,
                "velocity": 51,
                "duration": 2.420454545454545,
                "tempo": 120.0
            },
            {
                "start_time": 6.461363636363636,
                "end_time": 7.263636363636364,
                "pitch": 65,
                "velocity": 51,
                "duration": 0.8022727272727277,
                "tempo": 120.0
            },
            {
                "start_time": 7.263636363636364,
                "end_time": 9.668181818181818,
                "pitch": 66,
                "velocity": 51,
                "duration": 2.4045454545454543,
                "tempo": 120.0
            },
            {
                "start_time": 9.668181818181818,
                "end_time": 12.881818181818181,
                "pitch": 67,
                "velocity": 51,
                "duration": 3.213636363636363,
                "tempo": 120.0
            }
        ],
        "Oboe": [
            {
                "start_time": 0.020454545454545454,
                "end_time": 0.8227272727272726,
                "pitch": 58,
                "velocity": 64,
                "duration": 0.8022727272727271,
                "tempo": 120.0
            },
            {
                "start_time": 0.8227272727272726,
                "end_time": 3.2477272727272726,
                "pitch": 59,
                "velocity": 64,
                "duration": 2.425,
                "tempo": 120.0
            },
            {
                "start_time": 3.2477272727272726,
                "end_time": 4.040909090909091,
                "pitch": 60,
                "velocity": 64,
                "duration": 0.7931818181818184,
                "tempo": 120.0
            },
            {
                "start_time": 4.040909090909091,
                "end_time": 6.461363636363636,
                "pitch": 61,
                "velocity": 64,
                "duration": 2.420454545454545,
                "tempo": 120.0
            },
            {
                "start_time": 6.461363636363636,
                "end_time": 7.263636363636364,
                "pitch": 62,
                "velocity": 64,
                "duration": 0.8022727272727277,
                "tempo": 120.0
            },
            {
                "start_time": 7.263636363636364,
                "end_time": 9.668181818181818,
                "pitch": 63,
                "velocity": 64,
                "duration": 2.4045454545454543,
                "tempo": 120.0
            },
            {
                "start_time": 9.668181818181818,
                "end_time": 12.870454545454544,
                "pitch": 64,
                "velocity": 64,
                "duration": 3.2022727272727263,
                "tempo": 120.0
            }
        ],
        "Electric Guitar (clean)": [
            {
                "start_time": 12.870454545454544,
                "end_time": 13.022727272727272,
                "pitch": 29,
                "velocity": 80,
                "duration": 0.15227272727272734,
                "tempo": 120.0
            },
            {
                "start_time": 13.272727272727272,
                "end_time": 13.343181818181817,
                "pitch": 41,
                "velocity": 80,
                "duration": 0.07045454545454533,
                "tempo": 120.0
            },
            {
                "start_time": 13.475,
                "end_time": 13.625,
                "pitch": 28,
                "velocity": 80,
                "duration": 0.15000000000000036,
                "tempo": 120.0
            },
            {
                "start_time": 13.877272727272727,
                "end_time": 13.945454545454545,
                "pitch": 28,
                "velocity": 80,
                "duration": 0.06818181818181834,
                "tempo": 120.0
            },
            {
                "start_time": 14.077272727272726,
                "end_time": 14.147727272727272,
                "pitch": 40,
                "velocity": 80,
                "duration": 0.07045454545454533,
                "tempo": 120.0
            },
            {
                "start_time": 14.277272727272727,
                "end_time": 14.429545454545455,
                "pitch": 33,
                "velocity": 80,
                "duration": 0.15227272727272734,
                "tempo": 120.0
            },
            {
                "start_time": 14.679545454545455,
                "end_time": 14.75,
                "pitch": 33,
                "velocity": 80,
                "duration": 0.07045454545454533,
                "tempo": 120.0
            },
            {
                "start_time": 14.881818181818181,
                "end_time": 14.952272727272726,
                "pitch": 45,
                "velocity": 80,
                "duration": 0.07045454545454533,
                "tempo": 120.0
            },
            {
                "start_time": 15.084090909090909,
                "end_time": 15.154545454545454,
                "pitch": 33,
                "velocity": 80,
                "duration": 0.07045454545454533,
                "tempo": 120.0
            },
            {
                "start_time": 15.284090909090908,
                "end_time": 15.354545454545454,
                "pitch": 33,
                "velocity": 80,
                "duration": 0.07045454545454533,
                "tempo": 120.0
            },
            {
                "start_time": 15.486363636363636,
                "end_time": 15.556818181818182,
                "pitch": 35,
                "velocity": 80,
                "duration": 0.07045454545454533,
                "tempo": 120.0
            },
            {
                "start_time": 15.686363636363636,
                "end_time": 15.756818181818181,
                "pitch": 36,
                "velocity": 80,
                "duration": 0.07045454545454533,
                "tempo": 120.0
            },
            {
                "start_time": 15.886363636363635,
                "end_time": 15.95681818181818,
                "pitch": 33,
                "velocity": 80,
                "duration": 0.07045454545454533,
                "tempo": 120.0
            },
            {
                "start_time": 16.086363636363636,
                "end_time": 16.238636363636363,
                "pitch": 29,
                "velocity": 80,
                "duration": 0.15227272727272734,
                "tempo": 120.0
            },
            {
                "start_time": 16.488636363636363,
                "end_time": 16.55909090909091,
                "pitch": 41,
                "velocity": 80,
                "duration": 0.07045454545454533,
                "tempo": 120.0
            },
            {
                "start_time": 16.69090909090909,
                "end_time": 16.84318181818182,
                "pitch": 28,
                "velocity": 80,
                "duration": 0.15227272727272734,
                "tempo": 120.0
            },
            {
                "start_time": 17.09318181818182,
                "end_time": 17.161363636363635,
                "pitch": 28,
                "velocity": 80,
                "duration": 0.06818181818181657,
                "tempo": 120.0
            },
            {
                "start_time": 17.293181818181818,
                "end_time": 17.361363636363635,
                "pitch": 40,
                "velocity": 80,
                "duration": 0.06818181818181657,
                "tempo": 120.0
            },
            {
                "start_time": 17.493181818181817,
                "end_time": 17.643181818181816,
                "pitch": 33,
                "velocity": 80,
                "duration": 0.14999999999999858,
                "tempo": 120.0
            },
            {
                "start_time": 17.893181818181816,
                "end_time": 17.96363636363636,
                "pitch": 33,
                "velocity": 80,
                "duration": 0.07045454545454533,
                "tempo": 120.0
            },
            {
                "start_time": 18.095454545454544,
                "end_time": 18.16590909090909,
                "pitch": 45,
                "velocity": 80,
                "duration": 0.07045454545454533,
                "tempo": 120.0
            },
            {
                "start_time": 18.295454545454543,
                "end_time": 18.36590909090909,
                "pitch": 33,
                "velocity": 80,
                "duration": 0.07045454545454533,
                "tempo": 120.0
            },
            {
                "start_time": 18.495454545454546,
                "end_time": 18.56590909090909,
                "pitch": 33,
                "velocity": 80,
                "duration": 0.07045454545454533,
                "tempo": 120.0
            },
            {
                "start_time": 18.695454545454545,
                "end_time": 18.76590909090909,
                "pitch": 35,
                "velocity": 80,
                "duration": 0.07045454545454533,
                "tempo": 120.0
            },
            {
                "start_time": 18.897727272727273,
                "end_time": 18.96818181818182,
                "pitch": 36,
                "velocity": 80,
                "duration": 0.07045454545454533,
                "tempo": 120.0
            },
            {
                "start_time": 19.097727272727273,
                "end_time": 19.168181818181818,
                "pitch": 33,
                "velocity": 80,
                "duration": 0.07045454545454533,
                "tempo": 120.0
            },
            {
                "start_time": 19.297727272727272,
                "end_time": 19.44772727272727,
                "pitch": 29,
                "velocity": 80,
                "duration": 0.14999999999999858,
                "tempo": 120.0
            },
            {
                "start_time": 19.69772727272727,
                "end_time": 19.768181818181816,
                "pitch": 41,
                "velocity": 80,
                "duration": 0.07045454545454533,
                "tempo": 120.0
            },
            {
                "start_time": 19.9,
                "end_time": 20.05,
                "pitch": 28,
                "velocity": 80,
                "duration": 0.15000000000000213,
                "tempo": 120.0
            },
            {
                "start_time": 20.3,
                "end_time": 20.370454545454546,
                "pitch": 28,
                "velocity": 80,
                "duration": 0.07045454545454533,
                "tempo": 120.0
            },
            {
                "start_time": 20.5,
                "end_time": 20.570454545454545,
                "pitch": 40,
                "velocity": 80,
                "duration": 0.07045454545454533,
                "tempo": 120.0
            },
            {
                "start_time": 20.702272727272724,
                "end_time": 20.852272727272727,
                "pitch": 33,
                "velocity": 80,
                "duration": 0.15000000000000213,
                "tempo": 120.0
            },
            {
                "start_time": 21.102272727272727,
                "end_time": 21.172727272727272,
                "pitch": 33,
                "velocity": 80,
                "duration": 0.07045454545454533,
                "tempo": 120.0
            },
            {
                "start_time": 21.302272727272726,
                "end_time": 21.37272727272727,
                "pitch": 45,
                "velocity": 80,
                "duration": 0.07045454545454533,
                "tempo": 120.0
            },
            {
                "start_time": 21.502272727272725,
                "end_time": 21.57272727272727,
                "pitch": 33,
                "velocity": 80,
                "duration": 0.07045454545454533,
                "tempo": 120.0
            },
            {
                "start_time": 21.702272727272724,
                "end_time": 21.772727272727273,
                "pitch": 33,
                "velocity": 80,
                "duration": 0.07045454545454888,
                "tempo": 120.0
            },
            {
                "start_time": 21.904545454545453,
                "end_time": 21.974999999999998,
                "pitch": 35,
                "velocity": 80,
                "duration": 0.07045454545454533,
                "tempo": 120.0
            },
            {
                "start_time": 22.10681818181818,
                "end_time": 22.174999999999997,
                "pitch": 36,
                "velocity": 80,
                "duration": 0.06818181818181657,
                "tempo": 120.0
            },
            {
                "start_time": 22.30681818181818,
                "end_time": 22.375,
                "pitch": 33,
                "velocity": 80,
                "duration": 0.06818181818182012,
                "tempo": 120.0
            },
            {
                "start_time": 22.50681818181818,
                "end_time": 22.65681818181818,
                "pitch": 29,
                "velocity": 80,
                "duration": 0.15000000000000213,
                "tempo": 120.0
            },
            {
                "start_time": 22.909090909090907,
                "end_time": 22.979545454545452,
                "pitch": 41,
                "velocity": 80,
                "duration": 0.07045454545454533,
                "tempo": 120.0
            },
            {
                "start_time": 23.10909090909091,
                "end_time": 23.259090909090908,
                "pitch": 28,
                "velocity": 80,
                "duration": 0.14999999999999858,
                "tempo": 120.0
            },
            {
                "start_time": 23.509090909090908,
                "end_time": 23.659090909090907,
                "pitch": 40,
                "velocity": 80,
                "duration": 0.14999999999999858,
                "tempo": 120.0
            },
            {
                "start_time": 23.909090909090907,
                "end_time": 24.902272727272727,
                "pitch": 41,
                "velocity": 80,
                "duration": 0.9931818181818208,
                "tempo": 120.0
            },
            {
                "start_time": 24.902272727272727,
                "end_time": 24.954545454545453,
                "pitch": 41,
                "velocity": 80,
                "duration": 0.052272727272725916,
                "tempo": 120.0
            },
            {
                "start_time": 25.71363636363636,
                "end_time": 25.81590909090909,
                "pitch": 29,
                "velocity": 80,
                "duration": 0.10227272727273018,
                "tempo": 120.0
            },
            {
                "start_time": 26.11590909090909,
                "end_time": 26.16590909090909,
                "pitch": 41,
                "velocity": 80,
                "duration": 0.05000000000000071,
                "tempo": 120.0
            },
            {
                "start_time": 26.31590909090909,
                "end_time": 26.41590909090909,
                "pitch": 28,
                "velocity": 80,
                "duration": 0.09999999999999787,
                "tempo": 120.0
            },
            {
                "start_time": 26.718181818181815,
                "end_time": 26.768181818181816,
                "pitch": 28,
                "velocity": 80,
                "duration": 0.05000000000000071,
                "tempo": 120.0
            },
            {
                "start_time": 26.920454545454543,
                "end_time": 26.970454545454544,
                "pitch": 40,
                "velocity": 80,
                "duration": 0.05000000000000071,
                "tempo": 120.0
            },
            {
                "start_time": 27.120454545454542,
                "end_time": 27.220454545454544,
                "pitch": 33,
                "velocity": 80,
                "duration": 0.10000000000000142,
                "tempo": 120.0
            },
            {
                "start_time": 27.520454545454545,
                "end_time": 27.570454545454545,
                "pitch": 33,
                "velocity": 80,
                "duration": 0.05000000000000071,
                "tempo": 120.0
            },
            {
                "start_time": 27.720454545454544,
                "end_time": 27.770454545454545,
                "pitch": 45,
                "velocity": 80,
                "duration": 0.05000000000000071,
                "tempo": 120.0
            },
            {
                "start_time": 27.920454545454543,
                "end_time": 27.970454545454544,
                "pitch": 33,
                "velocity": 80,
                "duration": 0.05000000000000071,
                "tempo": 120.0
            },
            {
                "start_time": 28.12272727272727,
                "end_time": 28.172727272727272,
                "pitch": 33,
                "velocity": 80,
                "duration": 0.05000000000000071,
                "tempo": 120.0
            },
            {
                "start_time": 28.32272727272727,
                "end_time": 28.37272727272727,
                "pitch": 35,
                "velocity": 80,
                "duration": 0.05000000000000071,
                "tempo": 120.0
            },
            {
                "start_time": 28.52272727272727,
                "end_time": 28.57272727272727,
                "pitch": 36,
                "velocity": 80,
                "duration": 0.05000000000000071,
                "tempo": 120.0
            },
            {
                "start_time": 28.722727272727273,
                "end_time": 28.775,
                "pitch": 33,
                "velocity": 80,
                "duration": 0.052272727272725916,
                "tempo": 120.0
            },
            {
                "start_time": 28.924999999999997,
                "end_time": 29.025,
                "pitch": 29,
                "velocity": 80,
                "duration": 0.10000000000000142,
                "tempo": 120.0
            },
            {
                "start_time": 29.325,
                "end_time": 29.375,
                "pitch": 41,
                "velocity": 80,
                "duration": 0.05000000000000071,
                "tempo": 120.0
            },
            {
                "start_time": 29.525,
                "end_time": 29.625,
                "pitch": 28,
                "velocity": 80,
                "duration": 0.10000000000000142,
                "tempo": 120.0
            },
            {
                "start_time": 29.927272727272726,
                "end_time": 29.977272727272727,
                "pitch": 28,
                "velocity": 80,
                "duration": 0.05000000000000071,
                "tempo": 120.0
            },
            {
                "start_time": 30.127272727272725,
                "end_time": 30.177272727272726,
                "pitch": 40,
                "velocity": 80,
                "duration": 0.05000000000000071,
                "tempo": 120.0
            },
            {
                "start_time": 30.327272727272724,
                "end_time": 30.427272727272726,
                "pitch": 33,
                "velocity": 80,
                "duration": 0.10000000000000142,
                "tempo": 120.0
            },
            {
                "start_time": 30.729545454545452,
                "end_time": 30.779545454545453,
                "pitch": 33,
                "velocity": 80,
                "duration": 0.05000000000000071,
                "tempo": 120.0
            },
            {
                "start_time": 30.929545454545455,
                "end_time": 30.979545454545452,
                "pitch": 45,
                "velocity": 80,
                "duration": 0.04999999999999716,
                "tempo": 120.0
            },
            {
                "start_time": 31.129545454545454,
                "end_time": 31.179545454545455,
                "pitch": 33,
                "velocity": 80,
                "duration": 0.05000000000000071,
                "tempo": 120.0
            },
            {
                "start_time": 31.329545454545453,
                "end_time": 31.379545454545454,
                "pitch": 33,
                "velocity": 80,
                "duration": 0.05000000000000071,
                "tempo": 120.0
            },
            {
                "start_time": 31.529545454545453,
                "end_time": 31.579545454545453,
                "pitch": 35,
                "velocity": 80,
                "duration": 0.05000000000000071,
                "tempo": 120.0
            },
            {
                "start_time": 31.729545454545452,
                "end_time": 31.78181818181818,
                "pitch": 36,
                "velocity": 80,
                "duration": 0.05227272727272947,
                "tempo": 120.0
            },
            {
                "start_time": 31.93181818181818,
                "end_time": 31.98181818181818,
                "pitch": 33,
                "velocity": 80,
                "duration": 0.05000000000000071,
                "tempo": 120.0
            },
            {
                "start_time": 32.13409090909091,
                "end_time": 32.23409090909091,
                "pitch": 29,
                "velocity": 80,
                "duration": 0.10000000000000142,
                "tempo": 120.0
            },
            {
                "start_time": 32.53636363636363,
                "end_time": 32.586363636363636,
                "pitch": 41,
                "velocity": 80,
                "duration": 0.05000000000000426,
                "tempo": 120.0
            },
            {
                "start_time": 32.736363636363635,
                "end_time": 32.836363636363636,
                "pitch": 28,
                "velocity": 80,
                "duration": 0.10000000000000142,
                "tempo": 120.0
            },
            {
                "start_time": 33.13636363636363,
                "end_time": 33.18636363636364,
                "pitch": 28,
                "velocity": 80,
                "duration": 0.05000000000000426,
                "tempo": 120.0
            },
            {
                "start_time": 33.336363636363636,
                "end_time": 33.38636363636363,
                "pitch": 40,
                "velocity": 80,
                "duration": 0.04999999999999716,
                "tempo": 120.0
            },
            {
                "start_time": 33.53636363636363,
                "end_time": 33.63636363636363,
                "pitch": 33,
                "velocity": 80,
                "duration": 0.10000000000000142,
                "tempo": 120.0
            },
            {
                "start_time": 33.93636363636364,
                "end_time": 33.986363636363635,
                "pitch": 33,
                "velocity": 80,
                "duration": 0.04999999999999716,
                "tempo": 120.0
            },
            {
                "start_time": 34.13636363636363,
                "end_time": 34.18636363636364,
                "pitch": 45,
                "velocity": 80,
                "duration": 0.05000000000000426,
                "tempo": 120.0
            },
            {
                "start_time": 34.336363636363636,
                "end_time": 34.38636363636363,
                "pitch": 33,
                "velocity": 80,
                "duration": 0.04999999999999716,
                "tempo": 120.0
            },
            {
                "start_time": 34.538636363636364,
                "end_time": 34.58863636363636,
                "pitch": 33,
                "velocity": 80,
                "duration": 0.04999999999999716,
                "tempo": 120.0
            },
            {
                "start_time": 34.73863636363636,
                "end_time": 34.788636363636364,
                "pitch": 35,
                "velocity": 80,
                "duration": 0.05000000000000426,
                "tempo": 120.0
            },
            {
                "start_time": 34.93863636363636,
                "end_time": 34.98863636363636,
                "pitch": 36,
                "velocity": 80,
                "duration": 0.04999999999999716,
                "tempo": 120.0
            },
            {
                "start_time": 35.138636363636365,
                "end_time": 35.18863636363636,
                "pitch": 33,
                "velocity": 80,
                "duration": 0.04999999999999716,
                "tempo": 120.0
            },
            {
                "start_time": 35.33863636363636,
                "end_time": 35.43863636363636,
                "pitch": 29,
                "velocity": 80,
                "duration": 0.10000000000000142,
                "tempo": 120.0
            },
            {
                "start_time": 35.73863636363636,
                "end_time": 35.788636363636364,
                "pitch": 41,
                "velocity": 80,
                "duration": 0.05000000000000426,
                "tempo": 120.0
            },
            {
                "start_time": 35.93863636363636,
                "end_time": 36.038636363636364,
                "pitch": 28,
                "velocity": 80,
                "duration": 0.10000000000000142,
                "tempo": 120.0
            },
            {
                "start_time": 36.33863636363636,
                "end_time": 36.44090909090909,
                "pitch": 40,
                "velocity": 80,
                "duration": 0.10227272727272663,
                "tempo": 120.0
            },
            {
                "start_time": 36.74090909090909,
                "end_time": 38.143181818181816,
                "pitch": 41,
                "velocity": 80,
                "duration": 1.4022727272727238,
                "tempo": 120.0
            },
            {
                "start_time": 38.143181818181816,
                "end_time": 38.21363636363636,
                "pitch": 40,
                "velocity": 80,
                "duration": 0.07045454545454533,
                "tempo": 120.0
            },
            {
                "start_time": 38.21363636363636,
                "end_time": 38.28409090909091,
                "pitch": 38,
                "velocity": 80,
                "duration": 0.07045454545454533,
                "tempo": 120.0
            },
            {
                "start_time": 38.28409090909091,
                "end_time": 38.345454545454544,
                "pitch": 36,
                "velocity": 80,
                "duration": 0.0613636363636374,
                "tempo": 120.0
            },
            {
                "start_time": 38.345454545454544,
                "end_time": 38.41590909090909,
                "pitch": 35,
                "velocity": 80,
                "duration": 0.07045454545454533,
                "tempo": 120.0
            },
            {
                "start_time": 38.41590909090909,
                "end_time": 38.54772727272727,
                "pitch": 33,
                "velocity": 80,
                "duration": 0.13181818181818272,
                "tempo": 120.0
            },
            {
                "start_time": 38.54772727272727,
                "end_time": 38.69772727272727,
                "pitch": 46,
                "velocity": 80,
                "duration": 0.14999999999999858,
                "tempo": 120.0
            },
            {
                "start_time": 38.74772727272727,
                "end_time": 38.81590909090909,
                "pitch": 70,
                "velocity": 80,
                "duration": 0.06818181818182012,
                "tempo": 120.0
            },
            {
                "start_time": 38.84772727272727,
                "end_time": 38.91590909090909,
                "pitch": 82,
                "velocity": 80,
                "duration": 0.06818181818182012,
                "tempo": 120.0
            },
            {
                "start_time": 38.94772727272727,
                "end_time": 39.09772727272727,
                "pitch": 46,
                "velocity": 80,
                "duration": 0.14999999999999858,
                "tempo": 120.0
            },
            {
                "start_time": 39.14772727272727,
                "end_time": 39.29772727272727,
                "pitch": 34,
                "velocity": 80,
                "duration": 0.14999999999999858,
                "tempo": 120.0
            },
            {
                "start_time": 39.54772727272727,
                "end_time": 39.69772727272727,
                "pitch": 34,
                "velocity": 80,
                "duration": 0.14999999999999858,
                "tempo": 120.0
            },
            {
                "start_time": 39.74772727272727,
                "end_time": 39.89772727272727,
                "pitch": 46,
                "velocity": 80,
                "duration": 0.15000000000000568,
                "tempo": 120.0
            },
            {
                "start_time": 39.94772727272727,
                "end_time": 40.09772727272727,
                "pitch": 34,
                "velocity": 80,
                "duration": 0.14999999999999858,
                "tempo": 120.0
            },
            {
                "start_time": 40.14772727272727,
                "end_time": 40.29772727272727,
                "pitch": 27,
                "velocity": 80,
                "duration": 0.14999999999999858,
                "tempo": 120.0
            },
            {
                "start_time": 40.34772727272727,
                "end_time": 40.418181818181814,
                "pitch": 70,
                "velocity": 80,
                "duration": 0.07045454545454533,
                "tempo": 120.0
            },
            {
                "start_time": 40.44772727272727,
                "end_time": 40.518181818181816,
                "pitch": 82,
                "velocity": 80,
                "duration": 0.07045454545454533,
                "tempo": 120.0
            },
            {
                "start_time": 40.55,
                "end_time": 40.699999999999996,
                "pitch": 39,
                "velocity": 80,
                "duration": 0.14999999999999858,
                "tempo": 120.0
            },
            {
                "start_time": 40.75,
                "end_time": 40.9,
                "pitch": 27,
                "velocity": 80,
                "duration": 0.14999999999999858,
                "tempo": 120.0
            },
            {
                "start_time": 41.15,
                "end_time": 41.3,
                "pitch": 27,
                "velocity": 80,
                "duration": 0.14999999999999858,
                "tempo": 120.0
            },
            {
                "start_time": 41.35,
                "end_time": 41.5,
                "pitch": 39,
                "velocity": 80,
                "duration": 0.14999999999999858,
                "tempo": 120.0
            },
            {
                "start_time": 41.55,
                "end_time": 41.699999999999996,
                "pitch": 27,
                "velocity": 80,
                "duration": 0.14999999999999858,
                "tempo": 120.0
            },
            {
                "start_time": 41.75,
                "end_time": 41.9,
                "pitch": 32,
                "velocity": 80,
                "duration": 0.14999999999999858,
                "tempo": 120.0
            },
            {
                "start_time": 41.949999999999996,
                "end_time": 42.018181818181816,
                "pitch": 68,
                "velocity": 80,
                "duration": 0.06818181818182012,
                "tempo": 120.0
            },
            {
                "start_time": 42.05,
                "end_time": 42.11818181818182,
                "pitch": 80,
                "velocity": 80,
                "duration": 0.06818181818182012,
                "tempo": 120.0
            },
            {
                "start_time": 42.15,
                "end_time": 42.3,
                "pitch": 44,
                "velocity": 80,
                "duration": 0.14999999999999858,
                "tempo": 120.0
            },
            {
                "start_time": 42.35,
                "end_time": 42.502272727272725,
                "pitch": 32,
                "velocity": 80,
                "duration": 0.15227272727272378,
                "tempo": 120.0
            },
            {
                "start_time": 42.752272727272725,
                "end_time": 42.902272727272724,
                "pitch": 32,
                "velocity": 80,
                "duration": 0.14999999999999858,
                "tempo": 120.0
            },
            {
                "start_time": 42.95227272727273,
                "end_time": 43.10227272727273,
                "pitch": 44,
                "velocity": 80,
                "duration": 0.14999999999999858,
                "tempo": 120.0
            },
            {
                "start_time": 43.152272727272724,
                "end_time": 43.30227272727272,
                "pitch": 32,
                "velocity": 80,
                "duration": 0.14999999999999858,
                "tempo": 120.0
            },
            {
                "start_time": 43.35227272727273,
                "end_time": 43.502272727272725,
                "pitch": 25,
                "velocity": 80,
                "duration": 0.14999999999999858,
                "tempo": 120.0
            },
            {
                "start_time": 43.55227272727272,
                "end_time": 43.62272727272727,
                "pitch": 68,
                "velocity": 80,
                "duration": 0.07045454545454533,
                "tempo": 120.0
            },
            {
                "start_time": 43.652272727272724,
                "end_time": 43.72272727272727,
                "pitch": 80,
                "velocity": 80,
                "duration": 0.07045454545454533,
                "tempo": 120.0
            },
            {
                "start_time": 43.752272727272725,
                "end_time": 43.902272727272724,
                "pitch": 37,
                "velocity": 80,
                "duration": 0.14999999999999858,
                "tempo": 120.0
            },
            {
                "start_time": 43.95227272727273,
                "end_time": 44.10227272727273,
                "pitch": 25,
                "velocity": 80,
                "duration": 0.14999999999999858,
                "tempo": 120.0
            },
            {
                "start_time": 44.35227272727273,
                "end_time": 44.50454545454545,
                "pitch": 25,
                "velocity": 80,
                "duration": 0.15227272727272378,
                "tempo": 120.0
            },
            {
                "start_time": 44.554545454545455,
                "end_time": 44.70454545454545,
                "pitch": 37,
                "velocity": 80,
                "duration": 0.14999999999999858,
                "tempo": 120.0
            },
            {
                "start_time": 44.75454545454545,
                "end_time": 44.90454545454545,
                "pitch": 25,
                "velocity": 80,
                "duration": 0.14999999999999858,
                "tempo": 120.0
            },
            {
                "start_time": 44.95454545454545,
                "end_time": 45.10454545454545,
                "pitch": 30,
                "velocity": 80,
                "duration": 0.14999999999999858,
                "tempo": 120.0
            },
            {
                "start_time": 45.35454545454545,
                "end_time": 45.50454545454545,
                "pitch": 42,
                "velocity": 80,
                "duration": 0.14999999999999858,
                "tempo": 120.0
            },
            {
                "start_time": 45.554545454545455,
                "end_time": 45.70454545454545,
                "pitch": 30,
                "velocity": 80,
                "duration": 0.14999999999999858,
                "tempo": 120.0
            },
            {
                "start_time": 45.95454545454545,
                "end_time": 46.10454545454545,
                "pitch": 30,
                "velocity": 80,
                "duration": 0.14999999999999858,
                "tempo": 120.0
            },
            {
                "start_time": 46.15454545454545,
                "end_time": 46.30681818181818,
                "pitch": 42,
                "velocity": 80,
                "duration": 0.1522727272727309,
                "tempo": 120.0
            },
            {
                "start_time": 46.35681818181818,
                "end_time": 46.50681818181818,
                "pitch": 30,
                "velocity": 80,
                "duration": 0.15000000000000568,
                "tempo": 120.0
            },
            {
                "start_time": 46.55681818181818,
                "end_time": 46.70681818181818,
                "pitch": 29,
                "velocity": 80,
                "duration": 0.14999999999999858,
                "tempo": 120.0
            },
            {
                "start_time": 46.95681818181818,
                "end_time": 47.10681818181818,
                "pitch": 41,
                "velocity": 80,
                "duration": 0.14999999999999858,
                "tempo": 120.0
            },
            {
                "start_time": 47.15681818181818,
                "end_time": 47.30681818181818,
                "pitch": 29,
                "velocity": 80,
                "duration": 0.14999999999999858,
                "tempo": 120.0
            },
            {
                "start_time": 47.35681818181818,
                "end_time": 47.50681818181818,
                "pitch": 34,
                "velocity": 80,
                "duration": 0.15000000000000568,
                "tempo": 120.0
            },
            {
                "start_time": 47.55681818181818,
                "end_time": 47.70681818181818,
                "pitch": 34,
                "velocity": 80,
                "duration": 0.14999999999999858,
                "tempo": 120.0
            },
            {
                "start_time": 47.75681818181818,
                "end_time": 47.90681818181818,
                "pitch": 46,
                "velocity": 80,
                "duration": 0.14999999999999858,
                "tempo": 120.0
            },
            {
                "start_time": 47.95681818181818,
                "end_time": 48.10681818181818,
                "pitch": 34,
                "velocity": 80,
                "duration": 0.14999999999999858,
                "tempo": 120.0
            },
            {
                "start_time": 48.15681818181818,
                "end_time": 48.309090909090905,
                "pitch": 27,
                "velocity": 80,
                "duration": 0.15227272727272378,
                "tempo": 120.0
            },
            {
                "start_time": 48.559090909090905,
                "end_time": 48.709090909090904,
                "pitch": 39,
                "velocity": 80,
                "duration": 0.14999999999999858,
                "tempo": 120.0
            },
            {
                "start_time": 48.75909090909091,
                "end_time": 48.90909090909091,
                "pitch": 27,
                "velocity": 80,
                "duration": 0.14999999999999858,
                "tempo": 120.0
            },
            {
                "start_time": 49.15909090909091,
                "end_time": 49.309090909090905,
                "pitch": 27,
                "velocity": 80,
                "duration": 0.14999999999999858,
                "tempo": 120.0
            },
            {
                "start_time": 49.35909090909091,
                "end_time": 49.50909090909091,
                "pitch": 39,
                "velocity": 80,
                "duration": 0.14999999999999858,
                "tempo": 120.0
            },
            {
                "start_time": 49.559090909090905,
                "end_time": 49.709090909090904,
                "pitch": 27,
                "velocity": 80,
                "duration": 0.14999999999999858,
                "tempo": 120.0
            },
            {
                "start_time": 49.75909090909091,
                "end_time": 49.90909090909091,
                "pitch": 32,
                "velocity": 80,
                "duration": 0.14999999999999858,
                "tempo": 120.0
            },
            {
                "start_time": 50.15909090909091,
                "end_time": 50.31136363636364,
                "pitch": 44,
                "velocity": 80,
                "duration": 0.1522727272727309,
                "tempo": 120.0
            },
            {
                "start_time": 50.361363636363635,
                "end_time": 50.51136363636363,
                "pitch": 32,
                "velocity": 80,
                "duration": 0.14999999999999858,
                "tempo": 120.0
            },
            {
                "start_time": 50.76363636363636,
                "end_time": 50.913636363636364,
                "pitch": 32,
                "velocity": 80,
                "duration": 0.15000000000000568,
                "tempo": 120.0
            },
            {
                "start_time": 50.96363636363636,
                "end_time": 51.11363636363636,
                "pitch": 44,
                "velocity": 80,
                "duration": 0.14999999999999858,
                "tempo": 120.0
            },
            {
                "start_time": 51.163636363636364,
                "end_time": 51.31363636363636,
                "pitch": 32,
                "velocity": 80,
                "duration": 0.14999999999999858,
                "tempo": 120.0
            },
            {
                "start_time": 51.36363636363636,
                "end_time": 51.43181818181818,
                "pitch": 30,
                "velocity": 80,
                "duration": 0.06818181818182012,
                "tempo": 120.0
            },
            {
                "start_time": 51.56363636363636,
                "end_time": 51.63181818181818,
                "pitch": 30,
                "velocity": 80,
                "duration": 0.06818181818182012,
                "tempo": 120.0
            },
            {
                "start_time": 51.76363636363636,
                "end_time": 51.83181818181818,
                "pitch": 42,
                "velocity": 80,
                "duration": 0.06818181818182012,
                "tempo": 120.0
            },
            {
                "start_time": 51.96363636363636,
                "end_time": 52.03181818181818,
                "pitch": 32,
                "velocity": 80,
                "duration": 0.06818181818182012,
                "tempo": 120.0
            },
            {
                "start_time": 52.163636363636364,
                "end_time": 52.23409090909091,
                "pitch": 32,
                "velocity": 80,
                "duration": 0.07045454545454533,
                "tempo": 120.0
            },
            {
                "start_time": 52.36363636363636,
                "end_time": 52.434090909090905,
                "pitch": 32,
                "velocity": 80,
                "duration": 0.07045454545454533,
                "tempo": 120.0
            },
            {
                "start_time": 52.56590909090909,
                "end_time": 52.63636363636363,
                "pitch": 44,
                "velocity": 80,
                "duration": 0.07045454545454533,
                "tempo": 120.0
            },
            {
                "start_time": 52.76590909090909,
                "end_time": 52.836363636363636,
                "pitch": 32,
                "velocity": 80,
                "duration": 0.07045454545454533,
                "tempo": 120.0
            },
            {
                "start_time": 52.965909090909086,
                "end_time": 53.03636363636363,
                "pitch": 34,
                "velocity": 80,
                "duration": 0.07045454545454533,
                "tempo": 120.0
            },
            {
                "start_time": 53.16590909090909,
                "end_time": 53.236363636363635,
                "pitch": 34,
                "velocity": 80,
                "duration": 0.07045454545454533,
                "tempo": 120.0
            },
            {
                "start_time": 53.365909090909085,
                "end_time": 53.43636363636363,
                "pitch": 34,
                "velocity": 80,
                "duration": 0.07045454545454533,
                "tempo": 120.0
            },
            {
                "start_time": 53.56590909090909,
                "end_time": 53.63636363636363,
                "pitch": 46,
                "velocity": 80,
                "duration": 0.07045454545454533,
                "tempo": 120.0
            },
            {
                "start_time": 53.76590909090909,
                "end_time": 53.836363636363636,
                "pitch": 34,
                "velocity": 80,
                "duration": 0.07045454545454533,
                "tempo": 120.0
            },
            {
                "start_time": 53.965909090909086,
                "end_time": 54.03636363636363,
                "pitch": 46,
                "velocity": 80,
                "duration": 0.07045454545454533,
                "tempo": 120.0
            },
            {
                "start_time": 54.16590909090909,
                "end_time": 54.236363636363635,
                "pitch": 32,
                "velocity": 80,
                "duration": 0.07045454545454533,
                "tempo": 120.0
            },
            {
                "start_time": 54.365909090909085,
                "end_time": 54.43636363636363,
                "pitch": 44,
                "velocity": 80,
                "duration": 0.07045454545454533,
                "tempo": 120.0
            },
            {
                "start_time": 54.56818181818181,
                "end_time": 54.63863636363636,
                "pitch": 30,
                "velocity": 80,
                "duration": 0.07045454545454533,
                "tempo": 120.0
            },
            {
                "start_time": 54.768181818181816,
                "end_time": 54.83863636363636,
                "pitch": 30,
                "velocity": 80,
                "duration": 0.07045454545454533,
                "tempo": 120.0
            },
            {
                "start_time": 54.96818181818182,
                "end_time": 55.038636363636364,
                "pitch": 42,
                "velocity": 80,
                "duration": 0.07045454545454533,
                "tempo": 120.0
            },
            {
                "start_time": 55.168181818181814,
                "end_time": 55.23863636363636,
                "pitch": 32,
                "velocity": 80,
                "duration": 0.07045454545454533,
                "tempo": 120.0
            },
            {
                "start_time": 55.36818181818182,
                "end_time": 55.43863636363636,
                "pitch": 32,
                "velocity": 80,
                "duration": 0.07045454545454533,
                "tempo": 120.0
            },
            {
                "start_time": 55.56818181818181,
                "end_time": 55.63863636363636,
                "pitch": 32,
                "velocity": 80,
                "duration": 0.07045454545454533,
                "tempo": 120.0
            },
            {
                "start_time": 55.768181818181816,
                "end_time": 55.83863636363636,
                "pitch": 44,
                "velocity": 80,
                "duration": 0.07045454545454533,
                "tempo": 120.0
            },
            {
                "start_time": 55.96818181818182,
                "end_time": 56.038636363636364,
                "pitch": 32,
                "velocity": 80,
                "duration": 0.07045454545454533,
                "tempo": 120.0
            },
            {
                "start_time": 56.168181818181814,
                "end_time": 56.23863636363636,
                "pitch": 34,
                "velocity": 80,
                "duration": 0.07045454545454533,
                "tempo": 120.0
            },
            {
                "start_time": 56.37045454545454,
                "end_time": 56.44090909090909,
                "pitch": 34,
                "velocity": 80,
                "duration": 0.07045454545454533,
                "tempo": 120.0
            },
            {
                "start_time": 56.570454545454545,
                "end_time": 56.64090909090909,
                "pitch": 34,
                "velocity": 80,
                "duration": 0.07045454545454533,
                "tempo": 120.0
            },
            {
                "start_time": 56.77045454545454,
                "end_time": 56.840909090909086,
                "pitch": 46,
                "velocity": 80,
                "duration": 0.07045454545454533,
                "tempo": 120.0
            },
            {
                "start_time": 56.970454545454544,
                "end_time": 57.04090909090909,
                "pitch": 34,
                "velocity": 80,
                "duration": 0.07045454545454533,
                "tempo": 120.0
            },
            {
                "start_time": 57.17045454545454,
                "end_time": 57.240909090909085,
                "pitch": 46,
                "velocity": 80,
                "duration": 0.07045454545454533,
                "tempo": 120.0
            },
            {
                "start_time": 57.37045454545454,
                "end_time": 57.44090909090909,
                "pitch": 32,
                "velocity": 80,
                "duration": 0.07045454545454533,
                "tempo": 120.0
            },
            {
                "start_time": 57.570454545454545,
                "end_time": 57.64090909090909,
                "pitch": 44,
                "velocity": 80,
                "duration": 0.07045454545454533,
                "tempo": 120.0
            },
            {
                "start_time": 57.77045454545454,
                "end_time": 57.840909090909086,
                "pitch": 30,
                "velocity": 80,
                "duration": 0.07045454545454533,
                "tempo": 120.0
            },
            {
                "start_time": 57.970454545454544,
                "end_time": 58.04090909090909,
                "pitch": 30,
                "velocity": 80,
                "duration": 0.07045454545454533,
                "tempo": 120.0
            },
            {
                "start_time": 58.17045454545454,
                "end_time": 58.240909090909085,
                "pitch": 42,
                "velocity": 80,
                "duration": 0.07045454545454533,
                "tempo": 120.0
            },
            {
                "start_time": 58.37272727272727,
                "end_time": 58.44318181818181,
                "pitch": 32,
                "velocity": 80,
                "duration": 0.07045454545454533,
                "tempo": 120.0
            },
            {
                "start_time": 58.57272727272727,
                "end_time": 58.643181818181816,
                "pitch": 32,
                "velocity": 80,
                "duration": 0.07045454545454533,
                "tempo": 120.0
            },
            {
                "start_time": 58.77272727272727,
                "end_time": 58.84318181818182,
                "pitch": 32,
                "velocity": 80,
                "duration": 0.07045454545454533,
                "tempo": 120.0
            },
            {
                "start_time": 58.97272727272727,
                "end_time": 59.043181818181814,
                "pitch": 44,
                "velocity": 80,
                "duration": 0.07045454545454533,
                "tempo": 120.0
            },
            {
                "start_time": 59.17272727272727,
                "end_time": 59.24318181818182,
                "pitch": 32,
                "velocity": 80,
                "duration": 0.07045454545454533,
                "tempo": 120.0
            },
            {
                "start_time": 59.37272727272727,
                "end_time": 59.44318181818181,
                "pitch": 34,
                "velocity": 80,
                "duration": 0.07045454545454533,
                "tempo": 120.0
            },
            {
                "start_time": 59.57272727272727,
                "end_time": 59.643181818181816,
                "pitch": 34,
                "velocity": 80,
                "duration": 0.07045454545454533,
                "tempo": 120.0
            },
            {
                "start_time": 59.77272727272727,
                "end_time": 59.84318181818182,
                "pitch": 34,
                "velocity": 80,
                "duration": 0.07045454545454533,
                "tempo": 120.0
            },
            {
                "start_time": 59.97272727272727,
                "end_time": 60.043181818181814,
                "pitch": 46,
                "velocity": 80,
                "duration": 0.07045454545454533,
                "tempo": 120.0
            },
            {
                "start_time": 60.17272727272727,
                "end_time": 60.24318181818182,
                "pitch": 34,
                "velocity": 80,
                "duration": 0.07045454545454533,
                "tempo": 120.0
            },
            {
                "start_time": 60.375,
                "end_time": 60.445454545454545,
                "pitch": 46,
                "velocity": 80,
                "duration": 0.07045454545454533,
                "tempo": 120.0
            },
            {
                "start_time": 60.57727272727272,
                "end_time": 60.64545454545454,
                "pitch": 32,
                "velocity": 80,
                "duration": 0.06818181818182012,
                "tempo": 120.0
            },
            {
                "start_time": 60.777272727272724,
                "end_time": 60.845454545454544,
                "pitch": 44,
                "velocity": 80,
                "duration": 0.06818181818182012,
                "tempo": 120.0
            },
            {
                "start_time": 60.97727272727273,
                "end_time": 61.04545454545454,
                "pitch": 30,
                "velocity": 80,
                "duration": 0.06818181818181301,
                "tempo": 120.0
            },
            {
                "start_time": 61.17727272727272,
                "end_time": 61.24545454545454,
                "pitch": 30,
                "velocity": 80,
                "duration": 0.06818181818182012,
                "tempo": 120.0
            },
            {
                "start_time": 61.377272727272725,
                "end_time": 61.445454545454545,
                "pitch": 42,
                "velocity": 80,
                "duration": 0.06818181818182012,
                "tempo": 120.0
            },
            {
                "start_time": 61.57727272727272,
                "end_time": 61.64545454545454,
                "pitch": 32,
                "velocity": 80,
                "duration": 0.06818181818182012,
                "tempo": 120.0
            },
            {
                "start_time": 61.97727272727273,
                "end_time": 62.04545454545454,
                "pitch": 32,
                "velocity": 80,
                "duration": 0.06818181818181301,
                "tempo": 120.0
            },
            {
                "start_time": 62.37272727272727,
                "end_time": 63.65,
                "pitch": 34,
                "velocity": 80,
                "duration": 1.277272727272731,
                "tempo": 120.0
            },
            {
                "start_time": 65.7840909090909,
                "end_time": 65.93636363636364,
                "pitch": 29,
                "velocity": 80,
                "duration": 0.1522727272727309,
                "tempo": 120.0
            },
            {
                "start_time": 66.18636363636364,
                "end_time": 66.25681818181818,
                "pitch": 41,
                "velocity": 80,
                "duration": 0.07045454545453822,
                "tempo": 120.0
            },
            {
                "start_time": 66.38636363636364,
                "end_time": 66.53636363636363,
                "pitch": 28,
                "velocity": 80,
                "duration": 0.14999999999999147,
                "tempo": 120.0
            },
            {
                "start_time": 66.78863636363636,
                "end_time": 66.85909090909091,
                "pitch": 28,
                "velocity": 80,
                "duration": 0.07045454545455243,
                "tempo": 120.0
            },
            {
                "start_time": 66.99090909090908,
                "end_time": 67.05909090909091,
                "pitch": 40,
                "velocity": 80,
                "duration": 0.06818181818182723,
                "tempo": 120.0
            },
            {
                "start_time": 67.19090909090909,
                "end_time": 67.3409090909091,
                "pitch": 33,
                "velocity": 80,
                "duration": 0.15000000000000568,
                "tempo": 120.0
            },
            {
                "start_time": 67.5909090909091,
                "end_time": 67.66136363636363,
                "pitch": 33,
                "velocity": 80,
                "duration": 0.07045454545453822,
                "tempo": 120.0
            },
            {
                "start_time": 67.79318181818182,
                "end_time": 67.86363636363636,
                "pitch": 45,
                "velocity": 80,
                "duration": 0.07045454545453822,
                "tempo": 120.0
            },
            {
                "start_time": 67.99318181818181,
                "end_time": 68.06363636363636,
                "pitch": 33,
                "velocity": 80,
                "duration": 0.07045454545455243,
                "tempo": 120.0
            },
            {
                "start_time": 68.19545454545454,
                "end_time": 68.26590909090909,
                "pitch": 33,
                "velocity": 80,
                "duration": 0.07045454545455243,
                "tempo": 120.0
            },
            {
                "start_time": 68.39545454545454,
                "end_time": 68.4659090909091,
                "pitch": 35,
                "velocity": 80,
                "duration": 0.07045454545455243,
                "tempo": 120.0
            },
            {
                "start_time": 68.59545454545454,
                "end_time": 68.66590909090908,
                "pitch": 36,
                "velocity": 80,
                "duration": 0.07045454545453822,
                "tempo": 120.0
            },
            {
                "start_time": 68.79772727272727,
                "end_time": 68.86818181818181,
                "pitch": 33,
                "velocity": 80,
                "duration": 0.07045454545453822,
                "tempo": 120.0
            },
            {
                "start_time": 68.99772727272727,
                "end_time": 69.14772727272727,
                "pitch": 29,
                "velocity": 80,
                "duration": 0.14999999999999147,
                "tempo": 120.0
            },
            {
                "start_time": 69.39772727272727,
                "end_time": 69.46818181818182,
                "pitch": 41,
                "velocity": 80,
                "duration": 0.07045454545455243,
                "tempo": 120.0
            },
            {
                "start_time": 69.6,
                "end_time": 69.75,
                "pitch": 28,
                "velocity": 80,
                "duration": 0.15000000000000568,
                "tempo": 120.0
            },
            {
                "start_time": 70.00227272727273,
                "end_time": 70.07272727272726,
                "pitch": 28,
                "velocity": 80,
                "duration": 0.07045454545453822,
                "tempo": 120.0
            },
            {
                "start_time": 70.20454545454545,
                "end_time": 70.27272727272727,
                "pitch": 40,
                "velocity": 80,
                "duration": 0.06818181818181301,
                "tempo": 120.0
            },
            {
                "start_time": 70.40454545454546,
                "end_time": 70.55454545454545,
                "pitch": 33,
                "velocity": 80,
                "duration": 0.14999999999999147,
                "tempo": 120.0
            },
            {
                "start_time": 70.80454545454545,
                "end_time": 70.875,
                "pitch": 33,
                "velocity": 80,
                "duration": 0.07045454545455243,
                "tempo": 120.0
            },
            {
                "start_time": 71.00681818181818,
                "end_time": 71.075,
                "pitch": 45,
                "velocity": 80,
                "duration": 0.06818181818182723,
                "tempo": 120.0
            },
            {
                "start_time": 71.20681818181818,
                "end_time": 71.27499999999999,
                "pitch": 33,
                "velocity": 80,
                "duration": 0.06818181818181301,
                "tempo": 120.0
            },
            {
                "start_time": 71.40681818181818,
                "end_time": 71.47727272727272,
                "pitch": 33,
                "velocity": 80,
                "duration": 0.07045454545453822,
                "tempo": 120.0
            },
            {
                "start_time": 71.60681818181818,
                "end_time": 71.67727272727272,
                "pitch": 35,
                "velocity": 80,
                "duration": 0.07045454545453822,
                "tempo": 120.0
            },
            {
                "start_time": 71.80909090909091,
                "end_time": 71.87954545454545,
                "pitch": 36,
                "velocity": 80,
                "duration": 0.07045454545453822,
                "tempo": 120.0
            },
            {
                "start_time": 72.0090909090909,
                "end_time": 72.07954545454545,
                "pitch": 33,
                "velocity": 80,
                "duration": 0.07045454545455243,
                "tempo": 120.0
            },
            {
                "start_time": 72.21136363636363,
                "end_time": 72.36136363636363,
                "pitch": 29,
                "velocity": 80,
                "duration": 0.15000000000000568,
                "tempo": 120.0
            },
            {
                "start_time": 72.61136363636363,
                "end_time": 72.68181818181817,
                "pitch": 41,
                "velocity": 80,
                "duration": 0.07045454545453822,
                "tempo": 120.0
            },
            {
                "start_time": 72.81363636363636,
                "end_time": 72.96363636363635,
                "pitch": 28,
                "velocity": 80,
                "duration": 0.14999999999999147,
                "tempo": 120.0
            },
            {
                "start_time": 73.21363636363635,
                "end_time": 73.2840909090909,
                "pitch": 28,
                "velocity": 80,
                "duration": 0.07045454545455243,
                "tempo": 120.0
            },
            {
                "start_time": 73.41363636363636,
                "end_time": 73.48409090909091,
                "pitch": 40,
                "velocity": 80,
                "duration": 0.07045454545455243,
                "tempo": 120.0
            },
            {
                "start_time": 73.61590909090908,
                "end_time": 73.76590909090909,
                "pitch": 33,
                "velocity": 80,
                "duration": 0.15000000000000568,
                "tempo": 120.0
            },
            {
                "start_time": 74.01818181818182,
                "end_time": 74.08863636363635,
                "pitch": 33,
                "velocity": 80,
                "duration": 0.07045454545453822,
                "tempo": 120.0
            },
            {
                "start_time": 74.22045454545454,
                "end_time": 74.28863636363636,
                "pitch": 45,
                "velocity": 80,
                "duration": 0.06818181818181301,
                "tempo": 120.0
            },
            {
                "start_time": 74.42045454545455,
                "end_time": 74.48863636363636,
                "pitch": 33,
                "velocity": 80,
                "duration": 0.06818181818181301,
                "tempo": 120.0
            },
            {
                "start_time": 74.62045454545454,
                "end_time": 74.69090909090909,
                "pitch": 33,
                "velocity": 80,
                "duration": 0.07045454545455243,
                "tempo": 120.0
            },
            {
                "start_time": 74.82045454545454,
                "end_time": 74.89090909090909,
                "pitch": 35,
                "velocity": 80,
                "duration": 0.07045454545455243,
                "tempo": 120.0
            },
            {
                "start_time": 75.02272727272727,
                "end_time": 75.09318181818182,
                "pitch": 36,
                "velocity": 80,
                "duration": 0.07045454545455243,
                "tempo": 120.0
            },
            {
                "start_time": 75.22272727272727,
                "end_time": 75.29318181818182,
                "pitch": 33,
                "velocity": 80,
                "duration": 0.07045454545455243,
                "tempo": 120.0
            },
            {
                "start_time": 75.42272727272727,
                "end_time": 75.57272727272726,
                "pitch": 29,
                "velocity": 80,
                "duration": 0.14999999999999147,
                "tempo": 120.0
            },
            {
                "start_time": 75.825,
                "end_time": 75.89545454545454,
                "pitch": 41,
                "velocity": 80,
                "duration": 0.07045454545453822,
                "tempo": 120.0
            },
            {
                "start_time": 76.02727272727272,
                "end_time": 76.17727272727272,
                "pitch": 28,
                "velocity": 80,
                "duration": 0.15000000000000568,
                "tempo": 120.0
            },
            {
                "start_time": 76.42727272727272,
                "end_time": 76.57727272727273,
                "pitch": 40,
                "velocity": 80,
                "duration": 0.15000000000000568,
                "tempo": 120.0
            },
            {
                "start_time": 76.82954545454545,
                "end_time": 77.82272727272726,
                "pitch": 41,
                "velocity": 80,
                "duration": 0.9931818181818102,
                "tempo": 120.0
            },
            {
                "start_time": 77.82272727272726,
                "end_time": 77.87272727272727,
                "pitch": 41,
                "velocity": 80,
                "duration": 0.05000000000001137,
                "tempo": 120.0
            },
            {
                "start_time": 78.6340909090909,
                "end_time": 78.73409090909091,
                "pitch": 29,
                "velocity": 80,
                "duration": 0.10000000000000853,
                "tempo": 120.0
            },
            {
                "start_time": 79.03636363636363,
                "end_time": 79.08636363636363,
                "pitch": 41,
                "velocity": 80,
                "duration": 0.04999999999999716,
                "tempo": 120.0
            },
            {
                "start_time": 79.23636363636363,
                "end_time": 79.33636363636363,
                "pitch": 28,
                "velocity": 80,
                "duration": 0.09999999999999432,
                "tempo": 120.0
            },
            {
                "start_time": 79.63636363636363,
                "end_time": 79.68863636363636,
                "pitch": 28,
                "velocity": 80,
                "duration": 0.052272727272736574,
                "tempo": 120.0
            },
            {
                "start_time": 79.83863636363635,
                "end_time": 79.88863636363637,
                "pitch": 40,
                "velocity": 80,
                "duration": 0.05000000000001137,
                "tempo": 120.0
            },
            {
                "start_time": 80.04090909090908,
                "end_time": 80.14090909090909,
                "pitch": 33,
                "velocity": 80,
                "duration": 0.10000000000000853,
                "tempo": 120.0
            },
            {
                "start_time": 80.44090909090909,
                "end_time": 80.49090909090908,
                "pitch": 33,
                "velocity": 80,
                "duration": 0.04999999999999716,
                "tempo": 120.0
            },
            {
                "start_time": 80.64090909090909,
                "end_time": 80.69090909090909,
                "pitch": 45,
                "velocity": 80,
                "duration": 0.04999999999999716,
                "tempo": 120.0
            },
            {
                "start_time": 80.84318181818182,
                "end_time": 80.89318181818182,
                "pitch": 33,
                "velocity": 80,
                "duration": 0.04999999999999716,
                "tempo": 120.0
            },
            {
                "start_time": 81.04318181818181,
                "end_time": 81.09318181818182,
                "pitch": 33,
                "velocity": 80,
                "duration": 0.05000000000001137,
                "tempo": 120.0
            },
            {
                "start_time": 81.24318181818181,
                "end_time": 81.29318181818181,
                "pitch": 35,
                "velocity": 80,
                "duration": 0.04999999999999716,
                "tempo": 120.0
            },
            {
                "start_time": 81.44318181818181,
                "end_time": 81.49545454545454,
                "pitch": 36,
                "velocity": 80,
                "duration": 0.052272727272722364,
                "tempo": 120.0
            },
            {
                "start_time": 81.64545454545454,
                "end_time": 81.69545454545454,
                "pitch": 33,
                "velocity": 80,
                "duration": 0.04999999999999716,
                "tempo": 120.0
            },
            {
                "start_time": 81.84772727272727,
                "end_time": 81.94772727272726,
                "pitch": 29,
                "velocity": 80,
                "duration": 0.09999999999999432,
                "tempo": 120.0
            },
            {
                "start_time": 82.25,
                "end_time": 82.3,
                "pitch": 41,
                "velocity": 80,
                "duration": 0.04999999999999716,
                "tempo": 120.0
            },
            {
                "start_time": 82.45,
                "end_time": 82.55,
                "pitch": 28,
                "velocity": 80,
                "duration": 0.09999999999999432,
                "tempo": 120.0
            },
            {
                "start_time": 82.85,
                "end_time": 82.89999999999999,
                "pitch": 28,
                "velocity": 80,
                "duration": 0.04999999999999716,
                "tempo": 120.0
            },
            {
                "start_time": 83.05227272727272,
                "end_time": 83.10227272727272,
                "pitch": 40,
                "velocity": 80,
                "duration": 0.04999999999999716,
                "tempo": 120.0
            },
            {
                "start_time": 83.25227272727273,
                "end_time": 83.35227272727272,
                "pitch": 33,
                "velocity": 80,
                "duration": 0.09999999999999432,
                "tempo": 120.0
            },
            {
                "start_time": 83.65454545454546,
                "end_time": 83.70454545454545,
                "pitch": 33,
                "velocity": 80,
                "duration": 0.04999999999999716,
                "tempo": 120.0
            },
            {
                "start_time": 83.85454545454544,
                "end_time": 83.90454545454546,
                "pitch": 45,
                "velocity": 80,
                "duration": 0.05000000000001137,
                "tempo": 120.0
            },
            {
                "start_time": 84.05681818181817,
                "end_time": 84.10681818181818,
                "pitch": 33,
                "velocity": 80,
                "duration": 0.05000000000001137,
                "tempo": 120.0
            },
            {
                "start_time": 84.25681818181818,
                "end_time": 84.30681818181817,
                "pitch": 33,
                "velocity": 80,
                "duration": 0.04999999999999716,
                "tempo": 120.0
            },
            {
                "start_time": 84.45681818181818,
                "end_time": 84.50681818181818,
                "pitch": 35,
                "velocity": 80,
                "duration": 0.04999999999999716,
                "tempo": 120.0
            },
            {
                "start_time": 84.65681818181818,
                "end_time": 84.70681818181818,
                "pitch": 36,
                "velocity": 80,
                "duration": 0.04999999999999716,
                "tempo": 120.0
            },
            {
                "start_time": 84.85909090909091,
                "end_time": 84.9090909090909,
                "pitch": 33,
                "velocity": 80,
                "duration": 0.04999999999999716,
                "tempo": 120.0
            },
            {
                "start_time": 85.0590909090909,
                "end_time": 85.1590909090909,
                "pitch": 29,
                "velocity": 80,
                "duration": 0.10000000000000853,
                "tempo": 120.0
            },
            {
                "start_time": 85.4590909090909,
                "end_time": 85.51136363636363,
                "pitch": 41,
                "velocity": 80,
                "duration": 0.052272727272722364,
                "tempo": 120.0
            },
            {
                "start_time": 85.66136363636363,
                "end_time": 85.76136363636363,
                "pitch": 28,
                "velocity": 80,
                "duration": 0.09999999999999432,
                "tempo": 120.0
            },
            {
                "start_time": 86.06363636363636,
                "end_time": 86.11363636363636,
                "pitch": 28,
                "velocity": 80,
                "duration": 0.04999999999999716,
                "tempo": 120.0
            },
            {
                "start_time": 86.26590909090909,
                "end_time": 86.31590909090909,
                "pitch": 40,
                "velocity": 80,
                "duration": 0.04999999999999716,
                "tempo": 120.0
            },
            {
                "start_time": 86.4659090909091,
                "end_time": 86.56590909090909,
                "pitch": 33,
                "velocity": 80,
                "duration": 0.09999999999999432,
                "tempo": 120.0
            },
            {
                "start_time": 86.86590909090908,
                "end_time": 86.91818181818181,
                "pitch": 33,
                "velocity": 80,
                "duration": 0.052272727272722364,
                "tempo": 120.0
            },
            {
                "start_time": 87.06818181818181,
                "end_time": 87.11818181818181,
                "pitch": 45,
                "velocity": 80,
                "duration": 0.04999999999999716,
                "tempo": 120.0
            },
            {
                "start_time": 87.26818181818182,
                "end_time": 87.31818181818181,
                "pitch": 33,
                "velocity": 80,
                "duration": 0.04999999999999716,
                "tempo": 120.0
            },
            {
                "start_time": 87.46818181818182,
                "end_time": 87.51818181818182,
                "pitch": 33,
                "velocity": 80,
                "duration": 0.04999999999999716,
                "tempo": 120.0
            },
            {
                "start_time": 87.67045454545455,
                "end_time": 87.72045454545454,
                "pitch": 35,
                "velocity": 80,
                "duration": 0.04999999999999716,
                "tempo": 120.0
            },
            {
                "start_time": 87.87045454545454,
                "end_time": 87.92045454545455,
                "pitch": 36,
                "velocity": 80,
                "duration": 0.05000000000001137,
                "tempo": 120.0
            },
            {
                "start_time": 88.07272727272726,
                "end_time": 88.12272727272727,
                "pitch": 33,
                "velocity": 80,
                "duration": 0.05000000000001137,
                "tempo": 120.0
            },
            {
                "start_time": 88.27272727272727,
                "end_time": 88.37272727272727,
                "pitch": 29,
                "velocity": 80,
                "duration": 0.10000000000000853,
                "tempo": 120.0
            },
            {
                "start_time": 88.67272727272727,
                "end_time": 88.725,
                "pitch": 41,
                "velocity": 80,
                "duration": 0.052272727272722364,
                "tempo": 120.0
            },
            {
                "start_time": 88.875,
                "end_time": 88.975,
                "pitch": 28,
                "velocity": 80,
                "duration": 0.09999999999999432,
                "tempo": 120.0
            },
            {
                "start_time": 89.27727272727272,
                "end_time": 89.37727272727273,
                "pitch": 40,
                "velocity": 80,
                "duration": 0.10000000000000853,
                "tempo": 120.0
            },
            {
                "start_time": 89.67727272727272,
                "end_time": 91.0840909090909,
                "pitch": 41,
                "velocity": 80,
                "duration": 1.4068181818181813,
                "tempo": 120.0
            },
            {
                "start_time": 91.0840909090909,
                "end_time": 91.15454545454546,
                "pitch": 40,
                "velocity": 80,
                "duration": 0.07045454545455243,
                "tempo": 120.0
            },
            {
                "start_time": 91.15454545454546,
                "end_time": 91.225,
                "pitch": 38,
                "velocity": 80,
                "duration": 0.07045454545453822,
                "tempo": 120.0
            },
            {
                "start_time": 91.225,
                "end_time": 91.2840909090909,
                "pitch": 36,
                "velocity": 80,
                "duration": 0.05909090909091219,
                "tempo": 120.0
            },
            {
                "start_time": 91.2840909090909,
                "end_time": 91.35454545454544,
                "pitch": 35,
                "velocity": 80,
                "duration": 0.07045454545453822,
                "tempo": 120.0
            },
            {
                "start_time": 91.35454545454544,
                "end_time": 91.48409090909091,
                "pitch": 33,
                "velocity": 80,
                "duration": 0.12954545454546462,
                "tempo": 120.0
            }
        ],
        "Lead 2 (sawtooth)": [
            {
                "start_time": 15.486363636363636,
                "end_time": 15.686363636363636,
                "pitch": 69,
                "velocity": 80,
                "duration": 0.1999999999999993,
                "tempo": 120.0
            },
            {
                "start_time": 15.686363636363636,
                "end_time": 15.886363636363635,
                "pitch": 81,
                "velocity": 80,
                "duration": 0.1999999999999993,
                "tempo": 120.0
            },
            {
                "start_time": 15.886363636363635,
                "end_time": 16.086363636363636,
                "pitch": 69,
                "velocity": 80,
                "duration": 0.20000000000000107,
                "tempo": 120.0
            },
            {
                "start_time": 18.495454545454546,
                "end_time": 18.595454545454544,
                "pitch": 69,
                "velocity": 80,
                "duration": 0.09999999999999787,
                "tempo": 120.0
            },
            {
                "start_time": 18.595454545454544,
                "end_time": 18.695454545454545,
                "pitch": 69,
                "velocity": 80,
                "duration": 0.10000000000000142,
                "tempo": 120.0
            },
            {
                "start_time": 18.695454545454545,
                "end_time": 18.797727272727272,
                "pitch": 81,
                "velocity": 80,
                "duration": 0.10227272727272663,
                "tempo": 120.0
            },
            {
                "start_time": 18.797727272727272,
                "end_time": 18.897727272727273,
                "pitch": 81,
                "velocity": 80,
                "duration": 0.10000000000000142,
                "tempo": 120.0
            },
            {
                "start_time": 18.897727272727273,
                "end_time": 18.99772727272727,
                "pitch": 69,
                "velocity": 80,
                "duration": 0.09999999999999787,
                "tempo": 120.0
            },
            {
                "start_time": 18.99772727272727,
                "end_time": 19.097727272727273,
                "pitch": 69,
                "velocity": 80,
                "duration": 0.10000000000000142,
                "tempo": 120.0
            },
            {
                "start_time": 19.097727272727273,
                "end_time": 19.19772727272727,
                "pitch": 81,
                "velocity": 80,
                "duration": 0.09999999999999787,
                "tempo": 120.0
            },
            {
                "start_time": 19.19772727272727,
                "end_time": 19.297727272727272,
                "pitch": 81,
                "velocity": 80,
                "duration": 0.10000000000000142,
                "tempo": 120.0
            },
            {
                "start_time": 21.904545454545453,
                "end_time": 22.10681818181818,
                "pitch": 69,
                "velocity": 80,
                "duration": 0.20227272727272805,
                "tempo": 120.0
            },
            {
                "start_time": 22.10681818181818,
                "end_time": 22.30681818181818,
                "pitch": 81,
                "velocity": 80,
                "duration": 0.1999999999999993,
                "tempo": 120.0
            },
            {
                "start_time": 22.30681818181818,
                "end_time": 22.50681818181818,
                "pitch": 69,
                "velocity": 80,
                "duration": 0.1999999999999993,
                "tempo": 120.0
            },
            {
                "start_time": 25.10909090909091,
                "end_time": 25.211363636363636,
                "pitch": 76,
                "velocity": 80,
                "duration": 0.10227272727272663,
                "tempo": 120.0
            },
            {
                "start_time": 25.211363636363636,
                "end_time": 25.313636363636363,
                "pitch": 76,
                "velocity": 80,
                "duration": 0.10227272727272663,
                "tempo": 120.0
            },
            {
                "start_time": 25.313636363636363,
                "end_time": 25.413636363636364,
                "pitch": 81,
                "velocity": 80,
                "duration": 0.10000000000000142,
                "tempo": 120.0
            },
            {
                "start_time": 25.413636363636364,
                "end_time": 25.513636363636362,
                "pitch": 81,
                "velocity": 80,
                "duration": 0.09999999999999787,
                "tempo": 120.0
            },
            {
                "start_time": 25.513636363636362,
                "end_time": 25.613636363636363,
                "pitch": 76,
                "velocity": 80,
                "duration": 0.10000000000000142,
                "tempo": 120.0
            },
            {
                "start_time": 25.613636363636363,
                "end_time": 25.71363636363636,
                "pitch": 76,
                "velocity": 80,
                "duration": 0.09999999999999787,
                "tempo": 120.0
            },
            {
                "start_time": 28.32272727272727,
                "end_time": 28.52272727272727,
                "pitch": 69,
                "velocity": 80,
                "duration": 0.1999999999999993,
                "tempo": 120.0
            },
            {
                "start_time": 28.52272727272727,
                "end_time": 28.722727272727273,
                "pitch": 81,
                "velocity": 80,
                "duration": 0.20000000000000284,
                "tempo": 120.0
            },
            {
                "start_time": 28.722727272727273,
                "end_time": 28.924999999999997,
                "pitch": 69,
                "velocity": 80,
                "duration": 0.2022727272727245,
                "tempo": 120.0
            },
            {
                "start_time": 31.329545454545453,
                "end_time": 31.429545454545455,
                "pitch": 69,
                "velocity": 80,
                "duration": 0.10000000000000142,
                "tempo": 120.0
            },
            {
                "start_time": 31.429545454545455,
                "end_time": 31.529545454545453,
                "pitch": 69,
                "velocity": 80,
                "duration": 0.09999999999999787,
                "tempo": 120.0
            },
            {
                "start_time": 31.529545454545453,
                "end_time": 31.629545454545454,
                "pitch": 81,
                "velocity": 80,
                "duration": 0.10000000000000142,
                "tempo": 120.0
            },
            {
                "start_time": 31.629545454545454,
                "end_time": 31.729545454545452,
                "pitch": 81,
                "velocity": 80,
                "duration": 0.09999999999999787,
                "tempo": 120.0
            },
            {
                "start_time": 31.729545454545452,
                "end_time": 31.831818181818182,
                "pitch": 69,
                "velocity": 80,
                "duration": 0.10227272727273018,
                "tempo": 120.0
            },
            {
                "start_time": 31.831818181818182,
                "end_time": 31.93181818181818,
                "pitch": 69,
                "velocity": 80,
                "duration": 0.09999999999999787,
                "tempo": 120.0
            },
            {
                "start_time": 31.93181818181818,
                "end_time": 32.03181818181818,
                "pitch": 81,
                "velocity": 80,
                "duration": 0.10000000000000142,
                "tempo": 120.0
            },
            {
                "start_time": 32.03181818181818,
                "end_time": 32.13409090909091,
                "pitch": 81,
                "velocity": 80,
                "duration": 0.10227272727272663,
                "tempo": 120.0
            },
            {
                "start_time": 34.73863636363636,
                "end_time": 34.93863636363636,
                "pitch": 69,
                "velocity": 80,
                "duration": 0.20000000000000284,
                "tempo": 120.0
            },
            {
                "start_time": 34.93863636363636,
                "end_time": 35.138636363636365,
                "pitch": 81,
                "velocity": 80,
                "duration": 0.20000000000000284,
                "tempo": 120.0
            },
            {
                "start_time": 35.138636363636365,
                "end_time": 35.33863636363636,
                "pitch": 69,
                "velocity": 80,
                "duration": 0.19999999999999574,
                "tempo": 120.0
            },
            {
                "start_time": 36.94090909090909,
                "end_time": 37.08181818181818,
                "pitch": 45,
                "velocity": 80,
                "duration": 0.14090909090909065,
                "tempo": 120.0
            },
            {
                "start_time": 37.08181818181818,
                "end_time": 37.211363636363636,
                "pitch": 47,
                "velocity": 80,
                "duration": 0.12954545454545752,
                "tempo": 120.0
            },
            {
                "start_time": 37.211363636363636,
                "end_time": 37.340909090909086,
                "pitch": 48,
                "velocity": 80,
                "duration": 0.1295454545454504,
                "tempo": 120.0
            },
            {
                "start_time": 37.340909090909086,
                "end_time": 37.44318181818181,
                "pitch": 50,
                "velocity": 80,
                "duration": 0.10227272727272663,
                "tempo": 120.0
            },
            {
                "start_time": 37.44318181818181,
                "end_time": 37.54545454545455,
                "pitch": 52,
                "velocity": 80,
                "duration": 0.10227272727273373,
                "tempo": 120.0
            },
            {
                "start_time": 37.54545454545455,
                "end_time": 37.65,
                "pitch": 53,
                "velocity": 80,
                "duration": 0.10454545454545183,
                "tempo": 120.0
            },
            {
                "start_time": 37.65,
                "end_time": 37.752272727272725,
                "pitch": 55,
                "velocity": 80,
                "duration": 0.10227272727272663,
                "tempo": 120.0
            },
            {
                "start_time": 37.752272727272725,
                "end_time": 37.820454545454545,
                "pitch": 57,
                "velocity": 80,
                "duration": 0.06818181818182012,
                "tempo": 120.0
            },
            {
                "start_time": 37.820454545454545,
                "end_time": 37.88863636363636,
                "pitch": 59,
                "velocity": 80,
                "duration": 0.06818181818181301,
                "tempo": 120.0
            },
            {
                "start_time": 37.88863636363636,
                "end_time": 37.94772727272727,
                "pitch": 60,
                "velocity": 80,
                "duration": 0.05909090909091219,
                "tempo": 120.0
            },
            {
                "start_time": 37.94772727272727,
                "end_time": 38.01590909090909,
                "pitch": 62,
                "velocity": 80,
                "duration": 0.06818181818182012,
                "tempo": 120.0
            },
            {
                "start_time": 38.01590909090909,
                "end_time": 38.08409090909091,
                "pitch": 64,
                "velocity": 80,
                "duration": 0.06818181818182012,
                "tempo": 120.0
            },
            {
                "start_time": 38.08409090909091,
                "end_time": 38.143181818181816,
                "pitch": 65,
                "velocity": 80,
                "duration": 0.059090909090905086,
                "tempo": 120.0
            },
            {
                "start_time": 38.143181818181816,
                "end_time": 38.19318181818181,
                "pitch": 67,
                "velocity": 80,
                "duration": 0.04999999999999716,
                "tempo": 120.0
            },
            {
                "start_time": 38.19318181818181,
                "end_time": 38.24545454545454,
                "pitch": 69,
                "velocity": 80,
                "duration": 0.05227272727272947,
                "tempo": 120.0
            },
            {
                "start_time": 38.24545454545454,
                "end_time": 38.29545454545455,
                "pitch": 71,
                "velocity": 80,
                "duration": 0.05000000000000426,
                "tempo": 120.0
            },
            {
                "start_time": 38.29545454545455,
                "end_time": 38.345454545454544,
                "pitch": 72,
                "velocity": 80,
                "duration": 0.04999999999999716,
                "tempo": 120.0
            },
            {
                "start_time": 38.345454545454544,
                "end_time": 38.39545454545454,
                "pitch": 74,
                "velocity": 80,
                "duration": 0.04999999999999716,
                "tempo": 120.0
            },
            {
                "start_time": 38.39545454545454,
                "end_time": 38.445454545454545,
                "pitch": 76,
                "velocity": 80,
                "duration": 0.05000000000000426,
                "tempo": 120.0
            },
            {
                "start_time": 38.445454545454545,
                "end_time": 38.49545454545454,
                "pitch": 77,
                "velocity": 80,
                "duration": 0.04999999999999716,
                "tempo": 120.0
            },
            {
                "start_time": 38.49545454545454,
                "end_time": 38.54772727272727,
                "pitch": 79,
                "velocity": 80,
                "duration": 0.05227272727272947,
                "tempo": 120.0
            },
            {
                "start_time": 38.54772727272727,
                "end_time": 40.14772727272727,
                "pitch": 68,
                "velocity": 80,
                "duration": 1.6000000000000014,
                "tempo": 120.0
            },
            {
                "start_time": 40.14772727272727,
                "end_time": 41.75,
                "pitch": 67,
                "velocity": 80,
                "duration": 1.6022727272727266,
                "tempo": 120.0
            },
            {
                "start_time": 41.75,
                "end_time": 43.35227272727273,
                "pitch": 66,
                "velocity": 80,
                "duration": 1.6022727272727266,
                "tempo": 120.0
            },
            {
                "start_time": 43.35227272727273,
                "end_time": 44.554545454545455,
                "pitch": 65,
                "velocity": 80,
                "duration": 1.202272727272728,
                "tempo": 120.0
            },
            {
                "start_time": 44.554545454545455,
                "end_time": 44.95454545454545,
                "pitch": 61,
                "velocity": 80,
                "duration": 0.3999999999999986,
                "tempo": 120.0
            },
            {
                "start_time": 44.95454545454545,
                "end_time": 45.554545454545455,
                "pitch": 63,
                "velocity": 80,
                "duration": 0.6000000000000014,
                "tempo": 120.0
            },
            {
                "start_time": 45.554545454545455,
                "end_time": 46.15454545454545,
                "pitch": 65,
                "velocity": 80,
                "duration": 0.5999999999999943,
                "tempo": 120.0
            },
            {
                "start_time": 46.15454545454545,
                "end_time": 46.55681818181818,
                "pitch": 66,
                "velocity": 80,
                "duration": 0.4022727272727309,
                "tempo": 120.0
            },
            {
                "start_time": 46.55681818181818,
                "end_time": 47.15681818181818,
                "pitch": 65,
                "velocity": 80,
                "duration": 0.6000000000000014,
                "tempo": 120.0
            },
            {
                "start_time": 47.15681818181818,
                "end_time": 47.75681818181818,
                "pitch": 68,
                "velocity": 80,
                "duration": 0.6000000000000014,
                "tempo": 120.0
            },
            {
                "start_time": 47.75681818181818,
                "end_time": 48.15681818181818,
                "pitch": 70,
                "velocity": 80,
                "duration": 0.3999999999999986,
                "tempo": 120.0
            },
            {
                "start_time": 48.15681818181818,
                "end_time": 48.75909090909091,
                "pitch": 70,
                "velocity": 80,
                "duration": 0.6022727272727266,
                "tempo": 120.0
            },
            {
                "start_time": 48.75909090909091,
                "end_time": 48.959090909090904,
                "pitch": 67,
                "velocity": 80,
                "duration": 0.19999999999999574,
                "tempo": 120.0
            },
            {
                "start_time": 48.959090909090904,
                "end_time": 49.35909090909091,
                "pitch": 67,
                "velocity": 80,
                "duration": 0.4000000000000057,
                "tempo": 120.0
            },
            {
                "start_time": 49.35909090909091,
                "end_time": 49.75909090909091,
                "pitch": 70,
                "velocity": 80,
                "duration": 0.3999999999999986,
                "tempo": 120.0
            },
            {
                "start_time": 49.75909090909091,
                "end_time": 50.361363636363635,
                "pitch": 70,
                "velocity": 80,
                "duration": 0.6022727272727266,
                "tempo": 120.0
            },
            {
                "start_time": 50.361363636363635,
                "end_time": 51.36363636363636,
                "pitch": 72,
                "velocity": 80,
                "duration": 1.0022727272727252,
                "tempo": 120.0
            },
            {
                "start_time": 51.36363636363636,
                "end_time": 51.56363636363636,
                "pitch": 61,
                "velocity": 80,
                "duration": 0.20000000000000284,
                "tempo": 120.0
            },
            {
                "start_time": 51.56363636363636,
                "end_time": 51.76363636363636,
                "pitch": 61,
                "velocity": 80,
                "duration": 0.19999999999999574,
                "tempo": 120.0
            },
            {
                "start_time": 51.76363636363636,
                "end_time": 51.96363636363636,
                "pitch": 61,
                "velocity": 80,
                "duration": 0.20000000000000284,
                "tempo": 120.0
            },
            {
                "start_time": 51.96363636363636,
                "end_time": 52.163636363636364,
                "pitch": 63,
                "velocity": 80,
                "duration": 0.20000000000000284,
                "tempo": 120.0
            },
            {
                "start_time": 52.36363636363636,
                "end_time": 52.56590909090909,
                "pitch": 63,
                "velocity": 80,
                "duration": 0.20227272727272805,
                "tempo": 120.0
            },
            {
                "start_time": 52.76590909090909,
                "end_time": 52.965909090909086,
                "pitch": 63,
                "velocity": 80,
                "duration": 0.19999999999999574,
                "tempo": 120.0
            },
            {
                "start_time": 53.16590909090909,
                "end_time": 53.365909090909085,
                "pitch": 65,
                "velocity": 80,
                "duration": 0.19999999999999574,
                "tempo": 120.0
            },
            {
                "start_time": 53.365909090909085,
                "end_time": 53.76590909090909,
                "pitch": 65,
                "velocity": 80,
                "duration": 0.4000000000000057,
                "tempo": 120.0
            },
            {
                "start_time": 53.76590909090909,
                "end_time": 54.16590909090909,
                "pitch": 61,
                "velocity": 80,
                "duration": 0.3999999999999986,
                "tempo": 120.0
            },
            {
                "start_time": 54.16590909090909,
                "end_time": 54.56818181818181,
                "pitch": 60,
                "velocity": 80,
                "duration": 0.4022727272727238,
                "tempo": 120.0
            },
            {
                "start_time": 54.56818181818181,
                "end_time": 54.768181818181816,
                "pitch": 60,
                "velocity": 80,
                "duration": 0.20000000000000284,
                "tempo": 120.0
            },
            {
                "start_time": 54.768181818181816,
                "end_time": 54.96818181818182,
                "pitch": 60,
                "velocity": 80,
                "duration": 0.20000000000000284,
                "tempo": 120.0
            },
            {
                "start_time": 54.96818181818182,
                "end_time": 55.168181818181814,
                "pitch": 61,
                "velocity": 80,
                "duration": 0.19999999999999574,
                "tempo": 120.0
            },
            {
                "start_time": 55.168181818181814,
                "end_time": 55.36818181818182,
                "pitch": 63,
                "velocity": 80,
                "duration": 0.20000000000000284,
                "tempo": 120.0
            },
            {
                "start_time": 55.56818181818181,
                "end_time": 55.768181818181816,
                "pitch": 63,
                "velocity": 80,
                "duration": 0.20000000000000284,
                "tempo": 120.0
            },
            {
                "start_time": 55.96818181818182,
                "end_time": 56.168181818181814,
                "pitch": 63,
                "velocity": 80,
                "duration": 0.19999999999999574,
                "tempo": 120.0
            },
            {
                "start_time": 56.37045454545454,
                "end_time": 56.570454545454545,
                "pitch": 65,
                "velocity": 80,
                "duration": 0.20000000000000284,
                "tempo": 120.0
            },
            {
                "start_time": 56.570454545454545,
                "end_time": 56.970454545454544,
                "pitch": 65,
                "velocity": 80,
                "duration": 0.3999999999999986,
                "tempo": 120.0
            },
            {
                "start_time": 56.970454545454544,
                "end_time": 57.37045454545454,
                "pitch": 65,
                "velocity": 80,
                "duration": 0.3999999999999986,
                "tempo": 120.0
            },
            {
                "start_time": 57.37045454545454,
                "end_time": 57.77045454545454,
                "pitch": 68,
                "velocity": 80,
                "duration": 0.3999999999999986,
                "tempo": 120.0
            },
            {
                "start_time": 57.77045454545454,
                "end_time": 57.970454545454544,
                "pitch": 61,
                "velocity": 80,
                "duration": 0.20000000000000284,
                "tempo": 120.0
            },
            {
                "start_time": 57.970454545454544,
                "end_time": 58.17045454545454,
                "pitch": 61,
                "velocity": 80,
                "duration": 0.19999999999999574,
                "tempo": 120.0
            },
            {
                "start_time": 58.17045454545454,
                "end_time": 58.37272727272727,
                "pitch": 61,
                "velocity": 80,
                "duration": 0.20227272727272805,
                "tempo": 120.0
            },
            {
                "start_time": 58.37272727272727,
                "end_time": 58.57272727272727,
                "pitch": 63,
                "velocity": 80,
                "duration": 0.20000000000000284,
                "tempo": 120.0
            },
            {
                "start_time": 58.77272727272727,
                "end_time": 58.97272727272727,
                "pitch": 63,
                "velocity": 80,
                "duration": 0.19999999999999574,
                "tempo": 120.0
            },
            {
                "start_time": 59.17272727272727,
                "end_time": 59.37272727272727,
                "pitch": 63,
                "velocity": 80,
                "duration": 0.19999999999999574,
                "tempo": 120.0
            },
            {
                "start_time": 59.57272727272727,
                "end_time": 59.77272727272727,
                "pitch": 65,
                "velocity": 80,
                "duration": 0.20000000000000284,
                "tempo": 120.0
            },
            {
                "start_time": 59.77272727272727,
                "end_time": 60.17272727272727,
                "pitch": 65,
                "velocity": 80,
                "duration": 0.3999999999999986,
                "tempo": 120.0
            },
            {
                "start_time": 60.17272727272727,
                "end_time": 60.57727272727272,
                "pitch": 61,
                "velocity": 80,
                "duration": 0.404545454545449,
                "tempo": 120.0
            },
            {
                "start_time": 60.57727272727272,
                "end_time": 60.97727272727273,
                "pitch": 60,
                "velocity": 80,
                "duration": 0.4000000000000057,
                "tempo": 120.0
            },
            {
                "start_time": 60.97727272727273,
                "end_time": 61.17727272727272,
                "pitch": 61,
                "velocity": 80,
                "duration": 0.19999999999999574,
                "tempo": 120.0
            },
            {
                "start_time": 61.17727272727272,
                "end_time": 61.377272727272725,
                "pitch": 61,
                "velocity": 80,
                "duration": 0.20000000000000284,
                "tempo": 120.0
            },
            {
                "start_time": 61.377272727272725,
                "end_time": 61.57727272727272,
                "pitch": 61,
                "velocity": 80,
                "duration": 0.19999999999999574,
                "tempo": 120.0
            },
            {
                "start_time": 61.57727272727272,
                "end_time": 61.777272727272724,
                "pitch": 63,
                "velocity": 80,
                "duration": 0.20000000000000284,
                "tempo": 120.0
            },
            {
                "start_time": 61.97727272727273,
                "end_time": 62.175,
                "pitch": 63,
                "velocity": 80,
                "duration": 0.19772727272727053,
                "tempo": 120.0
            },
            {
                "start_time": 62.37272727272727,
                "end_time": 65.7840909090909,
                "pitch": 65,
                "velocity": 80,
                "duration": 3.411363636363639,
                "tempo": 120.0
            },
            {
                "start_time": 68.39545454545454,
                "end_time": 68.59545454545454,
                "pitch": 69,
                "velocity": 80,
                "duration": 0.20000000000000284,
                "tempo": 120.0
            },
            {
                "start_time": 68.59545454545454,
                "end_time": 68.79772727272727,
                "pitch": 81,
                "velocity": 80,
                "duration": 0.20227272727272805,
                "tempo": 120.0
            },
            {
                "start_time": 68.79772727272727,
                "end_time": 68.99772727272727,
                "pitch": 69,
                "velocity": 80,
                "duration": 0.20000000000000284,
                "tempo": 120.0
            },
            {
                "start_time": 71.40681818181818,
                "end_time": 71.50681818181818,
                "pitch": 69,
                "velocity": 80,
                "duration": 0.09999999999999432,
                "tempo": 120.0
            },
            {
                "start_time": 71.50681818181818,
                "end_time": 71.60681818181818,
                "pitch": 69,
                "velocity": 80,
                "duration": 0.10000000000000853,
                "tempo": 120.0
            },
            {
                "start_time": 71.60681818181818,
                "end_time": 71.7090909090909,
                "pitch": 81,
                "velocity": 80,
                "duration": 0.10227272727271952,
                "tempo": 120.0
            },
            {
                "start_time": 71.7090909090909,
                "end_time": 71.80909090909091,
                "pitch": 81,
                "velocity": 80,
                "duration": 0.10000000000000853,
                "tempo": 120.0
            },
            {
                "start_time": 71.80909090909091,
                "end_time": 71.9090909090909,
                "pitch": 69,
                "velocity": 80,
                "duration": 0.09999999999999432,
                "tempo": 120.0
            },
            {
                "start_time": 71.9090909090909,
                "end_time": 72.0090909090909,
                "pitch": 69,
                "velocity": 80,
                "duration": 0.09999999999999432,
                "tempo": 120.0
            },
            {
                "start_time": 72.0090909090909,
                "end_time": 72.11136363636363,
                "pitch": 81,
                "velocity": 80,
                "duration": 0.10227272727273373,
                "tempo": 120.0
            },
            {
                "start_time": 72.11136363636363,
                "end_time": 72.21136363636363,
                "pitch": 81,
                "velocity": 80,
                "duration": 0.09999999999999432,
                "tempo": 120.0
            },
            {
                "start_time": 74.82045454545454,
                "end_time": 75.02272727272727,
                "pitch": 69,
                "velocity": 80,
                "duration": 0.20227272727272805,
                "tempo": 120.0
            },
            {
                "start_time": 75.02272727272727,
                "end_time": 75.22272727272727,
                "pitch": 81,
                "velocity": 80,
                "duration": 0.20000000000000284,
                "tempo": 120.0
            },
            {
                "start_time": 75.22272727272727,
                "end_time": 75.42272727272727,
                "pitch": 69,
                "velocity": 80,
                "duration": 0.20000000000000284,
                "tempo": 120.0
            },
            {
                "start_time": 78.02727272727272,
                "end_time": 78.12954545454545,
                "pitch": 76,
                "velocity": 80,
                "duration": 0.10227272727273373,
                "tempo": 120.0
            },
            {
                "start_time": 78.12954545454545,
                "end_time": 78.23409090909091,
                "pitch": 76,
                "velocity": 80,
                "duration": 0.10454545454545894,
                "tempo": 120.0
            },
            {
                "start_time": 78.23409090909091,
                "end_time": 78.3340909090909,
                "pitch": 81,
                "velocity": 80,
                "duration": 0.09999999999999432,
                "tempo": 120.0
            },
            {
                "start_time": 78.3340909090909,
                "end_time": 78.43409090909091,
                "pitch": 81,
                "velocity": 80,
                "duration": 0.10000000000000853,
                "tempo": 120.0
            },
            {
                "start_time": 78.43409090909091,
                "end_time": 78.5340909090909,
                "pitch": 76,
                "velocity": 80,
                "duration": 0.09999999999999432,
                "tempo": 120.0
            },
            {
                "start_time": 78.5340909090909,
                "end_time": 78.6340909090909,
                "pitch": 76,
                "velocity": 80,
                "duration": 0.09999999999999432,
                "tempo": 120.0
            },
            {
                "start_time": 81.24318181818181,
                "end_time": 81.44318181818181,
                "pitch": 69,
                "velocity": 80,
                "duration": 0.20000000000000284,
                "tempo": 120.0
            },
            {
                "start_time": 81.44318181818181,
                "end_time": 81.64545454545454,
                "pitch": 81,
                "velocity": 80,
                "duration": 0.20227272727272805,
                "tempo": 120.0
            },
            {
                "start_time": 81.64545454545454,
                "end_time": 81.84772727272727,
                "pitch": 69,
                "velocity": 80,
                "duration": 0.20227272727272805,
                "tempo": 120.0
            },
            {
                "start_time": 84.25681818181818,
                "end_time": 84.35681818181818,
                "pitch": 69,
                "velocity": 80,
                "duration": 0.10000000000000853,
                "tempo": 120.0
            },
            {
                "start_time": 84.35681818181818,
                "end_time": 84.45681818181818,
                "pitch": 69,
                "velocity": 80,
                "duration": 0.09999999999999432,
                "tempo": 120.0
            },
            {
                "start_time": 84.45681818181818,
                "end_time": 84.55681818181817,
                "pitch": 81,
                "velocity": 80,
                "duration": 0.09999999999999432,
                "tempo": 120.0
            },
            {
                "start_time": 84.55681818181817,
                "end_time": 84.65681818181818,
                "pitch": 81,
                "velocity": 80,
                "duration": 0.10000000000000853,
                "tempo": 120.0
            },
            {
                "start_time": 84.65681818181818,
                "end_time": 84.7590909090909,
                "pitch": 69,
                "velocity": 80,
                "duration": 0.10227272727271952,
                "tempo": 120.0
            },
            {
                "start_time": 84.7590909090909,
                "end_time": 84.85909090909091,
                "pitch": 69,
                "velocity": 80,
                "duration": 0.10000000000000853,
                "tempo": 120.0
            },
            {
                "start_time": 84.85909090909091,
                "end_time": 84.9590909090909,
                "pitch": 81,
                "velocity": 80,
                "duration": 0.09999999999999432,
                "tempo": 120.0
            },
            {
                "start_time": 84.9590909090909,
                "end_time": 85.0590909090909,
                "pitch": 81,
                "velocity": 80,
                "duration": 0.09999999999999432,
                "tempo": 120.0
            },
            {
                "start_time": 87.67045454545455,
                "end_time": 87.87045454545454,
                "pitch": 69,
                "velocity": 80,
                "duration": 0.19999999999998863,
                "tempo": 120.0
            },
            {
                "start_time": 87.87045454545454,
                "end_time": 88.07272727272726,
                "pitch": 81,
                "velocity": 80,
                "duration": 0.20227272727272805,
                "tempo": 120.0
            },
            {
                "start_time": 88.07272727272726,
                "end_time": 88.27272727272727,
                "pitch": 69,
                "velocity": 80,
                "duration": 0.20000000000000284,
                "tempo": 120.0
            },
            {
                "start_time": 89.87954545454545,
                "end_time": 90.02045454545454,
                "pitch": 45,
                "velocity": 80,
                "duration": 0.14090909090909065,
                "tempo": 120.0
            },
            {
                "start_time": 90.02045454545454,
                "end_time": 90.14999999999999,
                "pitch": 47,
                "velocity": 80,
                "duration": 0.1295454545454504,
                "tempo": 120.0
            },
            {
                "start_time": 90.14999999999999,
                "end_time": 90.28181818181818,
                "pitch": 48,
                "velocity": 80,
                "duration": 0.13181818181818983,
                "tempo": 120.0
            },
            {
                "start_time": 90.28181818181818,
                "end_time": 90.3840909090909,
                "pitch": 50,
                "velocity": 80,
                "duration": 0.10227272727271952,
                "tempo": 120.0
            },
            {
                "start_time": 90.3840909090909,
                "end_time": 90.48636363636363,
                "pitch": 52,
                "velocity": 80,
                "duration": 0.10227272727273373,
                "tempo": 120.0
            },
            {
                "start_time": 90.48636363636363,
                "end_time": 90.58863636363635,
                "pitch": 53,
                "velocity": 80,
                "duration": 0.10227272727271952,
                "tempo": 120.0
            },
            {
                "start_time": 90.58863636363635,
                "end_time": 90.69318181818181,
                "pitch": 55,
                "velocity": 80,
                "duration": 0.10454545454545894,
                "tempo": 120.0
            },
            {
                "start_time": 90.69318181818181,
                "end_time": 90.76136363636363,
                "pitch": 57,
                "velocity": 80,
                "duration": 0.06818181818181301,
                "tempo": 120.0
            },
            {
                "start_time": 90.76136363636363,
                "end_time": 90.82954545454545,
                "pitch": 59,
                "velocity": 80,
                "duration": 0.06818181818182723,
                "tempo": 120.0
            },
            {
                "start_time": 90.82954545454545,
                "end_time": 90.88863636363637,
                "pitch": 60,
                "velocity": 80,
                "duration": 0.05909090909091219,
                "tempo": 120.0
            },
            {
                "start_time": 90.88863636363637,
                "end_time": 90.95681818181818,
                "pitch": 62,
                "velocity": 80,
                "duration": 0.06818181818181301,
                "tempo": 120.0
            },
            {
                "start_time": 90.95681818181818,
                "end_time": 91.02499999999999,
                "pitch": 64,
                "velocity": 80,
                "duration": 0.06818181818181301,
                "tempo": 120.0
            },
            {
                "start_time": 91.02499999999999,
                "end_time": 91.0840909090909,
                "pitch": 65,
                "velocity": 80,
                "duration": 0.05909090909091219,
                "tempo": 120.0
            },
            {
                "start_time": 91.0840909090909,
                "end_time": 91.1340909090909,
                "pitch": 67,
                "velocity": 80,
                "duration": 0.04999999999999716,
                "tempo": 120.0
            },
            {
                "start_time": 91.1340909090909,
                "end_time": 91.1840909090909,
                "pitch": 69,
                "velocity": 80,
                "duration": 0.04999999999999716,
                "tempo": 120.0
            },
            {
                "start_time": 91.1840909090909,
                "end_time": 91.23409090909091,
                "pitch": 71,
                "velocity": 80,
                "duration": 0.05000000000001137,
                "tempo": 120.0
            },
            {
                "start_time": 91.23409090909091,
                "end_time": 91.2840909090909,
                "pitch": 72,
                "velocity": 80,
                "duration": 0.04999999999999716,
                "tempo": 120.0
            },
            {
                "start_time": 91.2840909090909,
                "end_time": 91.3340909090909,
                "pitch": 74,
                "velocity": 80,
                "duration": 0.04999999999999716,
                "tempo": 120.0
            },
            {
                "start_time": 91.3340909090909,
                "end_time": 91.3840909090909,
                "pitch": 76,
                "velocity": 80,
                "duration": 0.04999999999999716,
                "tempo": 120.0
            },
            {
                "start_time": 91.3840909090909,
                "end_time": 91.4340909090909,
                "pitch": 77,
                "velocity": 80,
                "duration": 0.04999999999999716,
                "tempo": 120.0
            },
            {
                "start_time": 91.4340909090909,
                "end_time": 91.48409090909091,
                "pitch": 79,
                "velocity": 80,
                "duration": 0.05000000000001137,
                "tempo": 120.0
            },
            {
                "start_time": 91.48409090909091,
                "end_time": 94.69545454545454,
                "pitch": 65,
                "velocity": 64,
                "duration": 3.211363636363629,
                "tempo": 120.0
            },
            {
                "start_time": 94.69545454545454,
                "end_time": 94.89772727272727,
                "pitch": 67,
                "velocity": 64,
                "duration": 0.20227272727272805,
                "tempo": 120.0
            },
            {
                "start_time": 95.09772727272727,
                "end_time": 95.19772727272726,
                "pitch": 70,
                "velocity": 64,
                "duration": 0.09999999999999432,
                "tempo": 120.0
            },
            {
                "start_time": 95.29772727272727,
                "end_time": 95.49772727272727,
                "pitch": 65,
                "velocity": 64,
                "duration": 0.20000000000000284,
                "tempo": 120.0
            },
            {
                "start_time": 95.70454545454545,
                "end_time": 95.9090909090909,
                "pitch": 67,
                "velocity": 64,
                "duration": 0.20454545454545325,
                "tempo": 120.0
            },
            {
                "start_time": 96.10454545454544,
                "end_time": 96.30227272727272,
                "pitch": 65,
                "velocity": 64,
                "duration": 0.19772727272727764,
                "tempo": 120.0
            },
            {
                "start_time": 96.50681818181818,
                "end_time": 96.60909090909091,
                "pitch": 63,
                "velocity": 64,
                "duration": 0.10227272727273373,
                "tempo": 120.0
            },
            {
                "start_time": 96.71136363636363,
                "end_time": 101.13181818181818,
                "pitch": 63,
                "velocity": 64,
                "duration": 4.420454545454547,
                "tempo": 120.0
            }
        ],
        "Trumpet": [
            {
                "start_time": 12.870454545454544,
                "end_time": 13.072727272727272,
                "pitch": 69,
                "velocity": 80,
                "duration": 0.20227272727272805,
                "tempo": 120.0
            },
            {
                "start_time": 13.272727272727272,
                "end_time": 13.375,
                "pitch": 74,
                "velocity": 80,
                "duration": 0.1022727272727284,
                "tempo": 120.0
            },
            {
                "start_time": 13.475,
                "end_time": 13.677272727272726,
                "pitch": 67,
                "velocity": 80,
                "duration": 0.20227272727272627,
                "tempo": 120.0
            },
            {
                "start_time": 13.877272727272727,
                "end_time": 14.077272727272726,
                "pitch": 67,
                "velocity": 80,
                "duration": 0.1999999999999993,
                "tempo": 120.0
            },
            {
                "start_time": 14.277272727272727,
                "end_time": 14.479545454545454,
                "pitch": 67,
                "velocity": 80,
                "duration": 0.20227272727272627,
                "tempo": 120.0
            },
            {
                "start_time": 14.679545454545455,
                "end_time": 14.781818181818181,
                "pitch": 69,
                "velocity": 80,
                "duration": 0.10227272727272663,
                "tempo": 120.0
            },
            {
                "start_time": 14.881818181818181,
                "end_time": 15.284090909090908,
                "pitch": 69,
                "velocity": 80,
                "duration": 0.40227272727272734,
                "tempo": 120.0
            },
            {
                "start_time": 16.086363636363636,
                "end_time": 16.288636363636364,
                "pitch": 69,
                "velocity": 80,
                "duration": 0.20227272727272805,
                "tempo": 120.0
            },
            {
                "start_time": 16.488636363636363,
                "end_time": 16.59090909090909,
                "pitch": 74,
                "velocity": 80,
                "duration": 0.10227272727272663,
                "tempo": 120.0
            },
            {
                "start_time": 16.69090909090909,
                "end_time": 16.893181818181816,
                "pitch": 67,
                "velocity": 80,
                "duration": 0.2022727272727245,
                "tempo": 120.0
            },
            {
                "start_time": 17.09318181818182,
                "end_time": 17.293181818181818,
                "pitch": 67,
                "velocity": 80,
                "duration": 0.1999999999999993,
                "tempo": 120.0
            },
            {
                "start_time": 17.493181818181817,
                "end_time": 17.693181818181817,
                "pitch": 67,
                "velocity": 80,
                "duration": 0.1999999999999993,
                "tempo": 120.0
            },
            {
                "start_time": 17.893181818181816,
                "end_time": 17.995454545454546,
                "pitch": 69,
                "velocity": 80,
                "duration": 0.10227272727273018,
                "tempo": 120.0
            },
            {
                "start_time": 18.095454545454544,
                "end_time": 18.495454545454546,
                "pitch": 69,
                "velocity": 80,
                "duration": 0.40000000000000213,
                "tempo": 120.0
            },
            {
                "start_time": 19.297727272727272,
                "end_time": 19.49772727272727,
                "pitch": 69,
                "velocity": 80,
                "duration": 0.1999999999999993,
                "tempo": 120.0
            },
            {
                "start_time": 19.69772727272727,
                "end_time": 19.797727272727272,
                "pitch": 74,
                "velocity": 80,
                "duration": 0.10000000000000142,
                "tempo": 120.0
            },
            {
                "start_time": 19.9,
                "end_time": 20.099999999999998,
                "pitch": 67,
                "velocity": 80,
                "duration": 0.1999999999999993,
                "tempo": 120.0
            },
            {
                "start_time": 20.3,
                "end_time": 20.5,
                "pitch": 67,
                "velocity": 80,
                "duration": 0.1999999999999993,
                "tempo": 120.0
            },
            {
                "start_time": 20.702272727272724,
                "end_time": 20.902272727272727,
                "pitch": 67,
                "velocity": 80,
                "duration": 0.20000000000000284,
                "tempo": 120.0
            },
            {
                "start_time": 21.102272727272727,
                "end_time": 21.202272727272724,
                "pitch": 69,
                "velocity": 80,
                "duration": 0.09999999999999787,
                "tempo": 120.0
            },
            {
                "start_time": 21.302272727272726,
                "end_time": 21.702272727272724,
                "pitch": 69,
                "velocity": 80,
                "duration": 0.3999999999999986,
                "tempo": 120.0
            },
            {
                "start_time": 22.50681818181818,
                "end_time": 22.706818181818182,
                "pitch": 69,
                "velocity": 80,
                "duration": 0.20000000000000284,
                "tempo": 120.0
            },
            {
                "start_time": 22.909090909090907,
                "end_time": 23.009090909090908,
                "pitch": 74,
                "velocity": 80,
                "duration": 0.10000000000000142,
                "tempo": 120.0
            },
            {
                "start_time": 23.10909090909091,
                "end_time": 23.30909090909091,
                "pitch": 67,
                "velocity": 80,
                "duration": 0.1999999999999993,
                "tempo": 120.0
            },
            {
                "start_time": 23.509090909090908,
                "end_time": 23.709090909090907,
                "pitch": 74,
                "velocity": 80,
                "duration": 0.1999999999999993,
                "tempo": 120.0
            },
            {
                "start_time": 23.909090909090907,
                "end_time": 25.10909090909091,
                "pitch": 76,
                "velocity": 80,
                "duration": 1.2000000000000028,
                "tempo": 120.0
            },
            {
                "start_time": 25.71363636363636,
                "end_time": 25.91590909090909,
                "pitch": 69,
                "velocity": 80,
                "duration": 0.20227272727272805,
                "tempo": 120.0
            },
            {
                "start_time": 26.11590909090909,
                "end_time": 26.21590909090909,
                "pitch": 74,
                "velocity": 80,
                "duration": 0.10000000000000142,
                "tempo": 120.0
            },
            {
                "start_time": 26.31590909090909,
                "end_time": 26.51590909090909,
                "pitch": 67,
                "velocity": 80,
                "duration": 0.1999999999999993,
                "tempo": 120.0
            },
            {
                "start_time": 26.718181818181815,
                "end_time": 26.920454545454543,
                "pitch": 67,
                "velocity": 80,
                "duration": 0.20227272727272805,
                "tempo": 120.0
            },
            {
                "start_time": 27.120454545454542,
                "end_time": 27.320454545454545,
                "pitch": 67,
                "velocity": 80,
                "duration": 0.20000000000000284,
                "tempo": 120.0
            },
            {
                "start_time": 27.520454545454545,
                "end_time": 27.620454545454542,
                "pitch": 69,
                "velocity": 80,
                "duration": 0.09999999999999787,
                "tempo": 120.0
            },
            {
                "start_time": 27.720454545454544,
                "end_time": 28.12272727272727,
                "pitch": 69,
                "velocity": 80,
                "duration": 0.40227272727272734,
                "tempo": 120.0
            },
            {
                "start_time": 28.924999999999997,
                "end_time": 29.125,
                "pitch": 69,
                "velocity": 80,
                "duration": 0.20000000000000284,
                "tempo": 120.0
            },
            {
                "start_time": 29.325,
                "end_time": 29.424999999999997,
                "pitch": 74,
                "velocity": 80,
                "duration": 0.09999999999999787,
                "tempo": 120.0
            },
            {
                "start_time": 29.525,
                "end_time": 29.724999999999998,
                "pitch": 67,
                "velocity": 80,
                "duration": 0.1999999999999993,
                "tempo": 120.0
            },
            {
                "start_time": 29.927272727272726,
                "end_time": 30.127272727272725,
                "pitch": 67,
                "velocity": 80,
                "duration": 0.1999999999999993,
                "tempo": 120.0
            },
            {
                "start_time": 30.327272727272724,
                "end_time": 30.527272727272727,
                "pitch": 67,
                "velocity": 80,
                "duration": 0.20000000000000284,
                "tempo": 120.0
            },
            {
                "start_time": 30.729545454545452,
                "end_time": 30.829545454545453,
                "pitch": 69,
                "velocity": 80,
                "duration": 0.10000000000000142,
                "tempo": 120.0
            },
            {
                "start_time": 30.929545454545455,
                "end_time": 31.329545454545453,
                "pitch": 69,
                "velocity": 80,
                "duration": 0.3999999999999986,
                "tempo": 120.0
            },
            {
                "start_time": 32.13409090909091,
                "end_time": 32.33409090909091,
                "pitch": 69,
                "velocity": 80,
                "duration": 0.20000000000000284,
                "tempo": 120.0
            },
            {
                "start_time": 32.53636363636363,
                "end_time": 32.63636363636363,
                "pitch": 74,
                "velocity": 80,
                "duration": 0.10000000000000142,
                "tempo": 120.0
            },
            {
                "start_time": 32.736363636363635,
                "end_time": 32.93636363636364,
                "pitch": 67,
                "velocity": 80,
                "duration": 0.20000000000000284,
                "tempo": 120.0
            },
            {
                "start_time": 33.13636363636363,
                "end_time": 33.336363636363636,
                "pitch": 67,
                "velocity": 80,
                "duration": 0.20000000000000284,
                "tempo": 120.0
            },
            {
                "start_time": 33.53636363636363,
                "end_time": 33.736363636363635,
                "pitch": 67,
                "velocity": 80,
                "duration": 0.20000000000000284,
                "tempo": 120.0
            },
            {
                "start_time": 33.93636363636364,
                "end_time": 34.03636363636363,
                "pitch": 69,
                "velocity": 80,
                "duration": 0.09999999999999432,
                "tempo": 120.0
            },
            {
                "start_time": 34.13636363636363,
                "end_time": 34.538636363636364,
                "pitch": 69,
                "velocity": 80,
                "duration": 0.4022727272727309,
                "tempo": 120.0
            },
            {
                "start_time": 35.33863636363636,
                "end_time": 35.538636363636364,
                "pitch": 69,
                "velocity": 80,
                "duration": 0.20000000000000284,
                "tempo": 120.0
            },
            {
                "start_time": 35.73863636363636,
                "end_time": 35.83863636363636,
                "pitch": 74,
                "velocity": 80,
                "duration": 0.10000000000000142,
                "tempo": 120.0
            },
            {
                "start_time": 35.93863636363636,
                "end_time": 36.13863636363636,
                "pitch": 67,
                "velocity": 80,
                "duration": 0.19999999999999574,
                "tempo": 120.0
            },
            {
                "start_time": 36.33863636363636,
                "end_time": 36.54090909090909,
                "pitch": 74,
                "velocity": 80,
                "duration": 0.20227272727272805,
                "tempo": 120.0
            },
            {
                "start_time": 65.7840909090909,
                "end_time": 65.98636363636363,
                "pitch": 69,
                "velocity": 80,
                "duration": 0.20227272727272805,
                "tempo": 120.0
            },
            {
                "start_time": 66.18636363636364,
                "end_time": 66.28636363636363,
                "pitch": 74,
                "velocity": 80,
                "duration": 0.09999999999999432,
                "tempo": 120.0
            },
            {
                "start_time": 66.38636363636364,
                "end_time": 66.58636363636363,
                "pitch": 67,
                "velocity": 80,
                "duration": 0.19999999999998863,
                "tempo": 120.0
            },
            {
                "start_time": 66.78863636363636,
                "end_time": 66.99090909090908,
                "pitch": 67,
                "velocity": 80,
                "duration": 0.20227272727272805,
                "tempo": 120.0
            },
            {
                "start_time": 67.19090909090909,
                "end_time": 67.39090909090909,
                "pitch": 67,
                "velocity": 80,
                "duration": 0.20000000000000284,
                "tempo": 120.0
            },
            {
                "start_time": 67.5909090909091,
                "end_time": 67.69090909090909,
                "pitch": 69,
                "velocity": 80,
                "duration": 0.09999999999999432,
                "tempo": 120.0
            },
            {
                "start_time": 67.79318181818182,
                "end_time": 68.19545454545454,
                "pitch": 69,
                "velocity": 80,
                "duration": 0.4022727272727167,
                "tempo": 120.0
            },
            {
                "start_time": 68.99772727272727,
                "end_time": 69.19772727272726,
                "pitch": 69,
                "velocity": 80,
                "duration": 0.19999999999998863,
                "tempo": 120.0
            },
            {
                "start_time": 69.39772727272727,
                "end_time": 69.49772727272727,
                "pitch": 74,
                "velocity": 80,
                "duration": 0.10000000000000853,
                "tempo": 120.0
            },
            {
                "start_time": 69.6,
                "end_time": 69.8,
                "pitch": 67,
                "velocity": 80,
                "duration": 0.20000000000000284,
                "tempo": 120.0
            },
            {
                "start_time": 70.00227272727273,
                "end_time": 70.20454545454545,
                "pitch": 67,
                "velocity": 80,
                "duration": 0.20227272727272805,
                "tempo": 120.0
            },
            {
                "start_time": 70.40454545454546,
                "end_time": 70.60454545454544,
                "pitch": 67,
                "velocity": 80,
                "duration": 0.19999999999998863,
                "tempo": 120.0
            },
            {
                "start_time": 70.80454545454545,
                "end_time": 70.90454545454546,
                "pitch": 69,
                "velocity": 80,
                "duration": 0.10000000000000853,
                "tempo": 120.0
            },
            {
                "start_time": 71.00681818181818,
                "end_time": 71.40681818181818,
                "pitch": 69,
                "velocity": 80,
                "duration": 0.4000000000000057,
                "tempo": 120.0
            },
            {
                "start_time": 72.21136363636363,
                "end_time": 72.41136363636363,
                "pitch": 69,
                "velocity": 80,
                "duration": 0.20000000000000284,
                "tempo": 120.0
            },
            {
                "start_time": 72.61136363636363,
                "end_time": 72.71136363636363,
                "pitch": 74,
                "velocity": 80,
                "duration": 0.09999999999999432,
                "tempo": 120.0
            },
            {
                "start_time": 72.81363636363636,
                "end_time": 73.01363636363637,
                "pitch": 67,
                "velocity": 80,
                "duration": 0.20000000000000284,
                "tempo": 120.0
            },
            {
                "start_time": 73.21363636363635,
                "end_time": 73.41363636363636,
                "pitch": 67,
                "velocity": 80,
                "duration": 0.20000000000000284,
                "tempo": 120.0
            },
            {
                "start_time": 73.61590909090908,
                "end_time": 73.81590909090909,
                "pitch": 67,
                "velocity": 80,
                "duration": 0.20000000000000284,
                "tempo": 120.0
            },
            {
                "start_time": 74.01818181818182,
                "end_time": 74.11818181818181,
                "pitch": 69,
                "velocity": 80,
                "duration": 0.09999999999999432,
                "tempo": 120.0
            },
            {
                "start_time": 74.22045454545454,
                "end_time": 74.62045454545454,
                "pitch": 69,
                "velocity": 80,
                "duration": 0.3999999999999915,
                "tempo": 120.0
            },
            {
                "start_time": 75.42272727272727,
                "end_time": 75.62272727272727,
                "pitch": 69,
                "velocity": 80,
                "duration": 0.20000000000000284,
                "tempo": 120.0
            },
            {
                "start_time": 75.825,
                "end_time": 75.925,
                "pitch": 74,
                "velocity": 80,
                "duration": 0.09999999999999432,
                "tempo": 120.0
            },
            {
                "start_time": 76.02727272727272,
                "end_time": 76.22727272727272,
                "pitch": 67,
                "velocity": 80,
                "duration": 0.20000000000000284,
                "tempo": 120.0
            },
            {
                "start_time": 76.42727272727272,
                "end_time": 76.62727272727273,
                "pitch": 74,
                "velocity": 80,
                "duration": 0.20000000000000284,
                "tempo": 120.0
            },
            {
                "start_time": 76.82954545454545,
                "end_time": 78.02727272727272,
                "pitch": 76,
                "velocity": 80,
                "duration": 1.1977272727272634,
                "tempo": 120.0
            },
            {
                "start_time": 78.6340909090909,
                "end_time": 78.8340909090909,
                "pitch": 69,
                "velocity": 80,
                "duration": 0.20000000000000284,
                "tempo": 120.0
            },
            {
                "start_time": 79.03636363636363,
                "end_time": 79.13636363636363,
                "pitch": 74,
                "velocity": 80,
                "duration": 0.09999999999999432,
                "tempo": 120.0
            },
            {
                "start_time": 79.23636363636363,
                "end_time": 79.43636363636364,
                "pitch": 67,
                "velocity": 80,
                "duration": 0.20000000000000284,
                "tempo": 120.0
            },
            {
                "start_time": 79.63636363636363,
                "end_time": 79.83863636363635,
                "pitch": 67,
                "velocity": 80,
                "duration": 0.20227272727272805,
                "tempo": 120.0
            },
            {
                "start_time": 80.04090909090908,
                "end_time": 80.24090909090908,
                "pitch": 67,
                "velocity": 80,
                "duration": 0.20000000000000284,
                "tempo": 120.0
            },
            {
                "start_time": 80.44090909090909,
                "end_time": 80.54090909090908,
                "pitch": 69,
                "velocity": 80,
                "duration": 0.09999999999999432,
                "tempo": 120.0
            },
            {
                "start_time": 80.64090909090909,
                "end_time": 81.04318181818181,
                "pitch": 69,
                "velocity": 80,
                "duration": 0.4022727272727167,
                "tempo": 120.0
            },
            {
                "start_time": 81.84772727272727,
                "end_time": 82.04772727272727,
                "pitch": 69,
                "velocity": 80,
                "duration": 0.20000000000000284,
                "tempo": 120.0
            },
            {
                "start_time": 82.25,
                "end_time": 82.35,
                "pitch": 74,
                "velocity": 80,
                "duration": 0.09999999999999432,
                "tempo": 120.0
            },
            {
                "start_time": 82.45,
                "end_time": 82.64999999999999,
                "pitch": 67,
                "velocity": 80,
                "duration": 0.19999999999998863,
                "tempo": 120.0
            },
            {
                "start_time": 82.85,
                "end_time": 83.05227272727272,
                "pitch": 67,
                "velocity": 80,
                "duration": 0.20227272727272805,
                "tempo": 120.0
            },
            {
                "start_time": 83.25227272727273,
                "end_time": 83.45227272727273,
                "pitch": 67,
                "velocity": 80,
                "duration": 0.20000000000000284,
                "tempo": 120.0
            },
            {
                "start_time": 83.65454545454546,
                "end_time": 83.75454545454545,
                "pitch": 69,
                "velocity": 80,
                "duration": 0.09999999999999432,
                "tempo": 120.0
            },
            {
                "start_time": 83.85454545454544,
                "end_time": 84.25681818181818,
                "pitch": 69,
                "velocity": 80,
                "duration": 0.4022727272727309,
                "tempo": 120.0
            },
            {
                "start_time": 85.0590909090909,
                "end_time": 85.2590909090909,
                "pitch": 69,
                "velocity": 80,
                "duration": 0.20000000000000284,
                "tempo": 120.0
            },
            {
                "start_time": 85.4590909090909,
                "end_time": 85.56136363636364,
                "pitch": 74,
                "velocity": 80,
                "duration": 0.10227272727273373,
                "tempo": 120.0
            },
            {
                "start_time": 85.66136363636363,
                "end_time": 85.86363636363636,
                "pitch": 67,
                "velocity": 80,
                "duration": 0.20227272727272805,
                "tempo": 120.0
            },
            {
                "start_time": 86.06363636363636,
                "end_time": 86.26590909090909,
                "pitch": 67,
                "velocity": 80,
                "duration": 0.20227272727272805,
                "tempo": 120.0
            },
            {
                "start_time": 86.4659090909091,
                "end_time": 86.66590909090908,
                "pitch": 67,
                "velocity": 80,
                "duration": 0.19999999999998863,
                "tempo": 120.0
            },
            {
                "start_time": 86.86590909090908,
                "end_time": 86.96818181818182,
                "pitch": 69,
                "velocity": 80,
                "duration": 0.10227272727273373,
                "tempo": 120.0
            },
            {
                "start_time": 87.06818181818181,
                "end_time": 87.46818181818182,
                "pitch": 69,
                "velocity": 80,
                "duration": 0.4000000000000057,
                "tempo": 120.0
            },
            {
                "start_time": 88.27272727272727,
                "end_time": 88.47272727272727,
                "pitch": 69,
                "velocity": 80,
                "duration": 0.20000000000000284,
                "tempo": 120.0
            },
            {
                "start_time": 88.67272727272727,
                "end_time": 88.77499999999999,
                "pitch": 74,
                "velocity": 80,
                "duration": 0.10227272727271952,
                "tempo": 120.0
            },
            {
                "start_time": 88.875,
                "end_time": 89.07727272727273,
                "pitch": 67,
                "velocity": 80,
                "duration": 0.20227272727272805,
                "tempo": 120.0
            },
            {
                "start_time": 89.27727272727272,
                "end_time": 89.47727272727272,
                "pitch": 74,
                "velocity": 80,
                "duration": 0.20000000000000284,
                "tempo": 120.0
            }
        ],
        "Church Organ": [
            {
                "start_time": 0.020454545454545454,
                "end_time": 0.04090909090909091,
                "pitch": 67,
                "velocity": 127,
                "duration": 0.020454545454545454,
                "tempo": 120.0
            },
            {
                "start_time": 0.12045454545454545,
                "end_time": 0.1409090909090909,
                "pitch": 72,
                "velocity": 127,
                "duration": 0.020454545454545447,
                "tempo": 120.0
            },
            {
                "start_time": 0.22045454545454543,
                "end_time": 0.2409090909090909,
                "pitch": 74,
                "velocity": 127,
                "duration": 0.020454545454545475,
                "tempo": 120.0
            },
            {
                "start_time": 0.3227272727272727,
                "end_time": 0.34318181818181814,
                "pitch": 79,
                "velocity": 127,
                "duration": 0.020454545454545447,
                "tempo": 120.0
            },
            {
                "start_time": 0.42272727272727273,
                "end_time": 0.4431818181818182,
                "pitch": 67,
                "velocity": 127,
                "duration": 0.020454545454545447,
                "tempo": 120.0
            },
            {
                "start_time": 0.5227272727272727,
                "end_time": 0.5431818181818182,
                "pitch": 74,
                "velocity": 127,
                "duration": 0.020454545454545503,
                "tempo": 120.0
            },
            {
                "start_time": 0.6227272727272727,
                "end_time": 0.6431818181818182,
                "pitch": 72,
                "velocity": 127,
                "duration": 0.020454545454545503,
                "tempo": 120.0
            },
            {
                "start_time": 0.7227272727272727,
                "end_time": 0.7431818181818182,
                "pitch": 79,
                "velocity": 127,
                "duration": 0.020454545454545503,
                "tempo": 120.0
            },
            {
                "start_time": 0.8227272727272726,
                "end_time": 0.8431818181818181,
                "pitch": 74,
                "velocity": 127,
                "duration": 0.020454545454545503,
                "tempo": 120.0
            },
            {
                "start_time": 0.9227272727272727,
                "end_time": 0.9431818181818181,
                "pitch": 67,
                "velocity": 127,
                "duration": 0.020454545454545392,
                "tempo": 120.0
            },
            {
                "start_time": 1.0227272727272727,
                "end_time": 1.0431818181818182,
                "pitch": 72,
                "velocity": 127,
                "duration": 0.020454545454545503,
                "tempo": 120.0
            },
            {
                "start_time": 1.1227272727272726,
                "end_time": 1.143181818181818,
                "pitch": 74,
                "velocity": 127,
                "duration": 0.020454545454545503,
                "tempo": 120.0
            },
            {
                "start_time": 1.2227272727272727,
                "end_time": 1.2431818181818182,
                "pitch": 79,
                "velocity": 127,
                "duration": 0.020454545454545503,
                "tempo": 120.0
            },
            {
                "start_time": 1.3272727272727272,
                "end_time": 1.3477272727272727,
                "pitch": 67,
                "velocity": 127,
                "duration": 0.020454545454545503,
                "tempo": 120.0
            },
            {
                "start_time": 1.4318181818181817,
                "end_time": 1.4545454545454546,
                "pitch": 74,
                "velocity": 127,
                "duration": 0.02272727272727293,
                "tempo": 120.0
            },
            {
                "start_time": 1.5386363636363636,
                "end_time": 1.559090909090909,
                "pitch": 72,
                "velocity": 127,
                "duration": 0.020454545454545503,
                "tempo": 120.0
            },
            {
                "start_time": 1.643181818181818,
                "end_time": 1.6636363636363636,
                "pitch": 67,
                "velocity": 127,
                "duration": 0.020454545454545503,
                "tempo": 120.0
            },
            {
                "start_time": 1.7431818181818182,
                "end_time": 1.7613636363636362,
                "pitch": 72,
                "velocity": 127,
                "duration": 0.018181818181818077,
                "tempo": 120.0
            },
            {
                "start_time": 1.8409090909090908,
                "end_time": 1.8613636363636363,
                "pitch": 74,
                "velocity": 127,
                "duration": 0.020454545454545503,
                "tempo": 120.0
            },
            {
                "start_time": 1.9386363636363635,
                "end_time": 1.959090909090909,
                "pitch": 79,
                "velocity": 127,
                "duration": 0.020454545454545503,
                "tempo": 120.0
            },
            {
                "start_time": 2.036363636363636,
                "end_time": 2.0568181818181817,
                "pitch": 67,
                "velocity": 127,
                "duration": 0.020454545454545503,
                "tempo": 120.0
            },
            {
                "start_time": 2.1363636363636362,
                "end_time": 2.1568181818181817,
                "pitch": 74,
                "velocity": 127,
                "duration": 0.020454545454545503,
                "tempo": 120.0
            },
            {
                "start_time": 2.2363636363636363,
                "end_time": 2.256818181818182,
                "pitch": 72,
                "velocity": 127,
                "duration": 0.020454545454545503,
                "tempo": 120.0
            },
            {
                "start_time": 2.3363636363636364,
                "end_time": 2.356818181818182,
                "pitch": 79,
                "velocity": 127,
                "duration": 0.020454545454545503,
                "tempo": 120.0
            },
            {
                "start_time": 2.436363636363636,
                "end_time": 2.4568181818181816,
                "pitch": 74,
                "velocity": 127,
                "duration": 0.020454545454545503,
                "tempo": 120.0
            },
            {
                "start_time": 2.5386363636363636,
                "end_time": 2.559090909090909,
                "pitch": 67,
                "velocity": 127,
                "duration": 0.020454545454545503,
                "tempo": 120.0
            },
            {
                "start_time": 2.6409090909090907,
                "end_time": 2.661363636363636,
                "pitch": 72,
                "velocity": 127,
                "duration": 0.020454545454545503,
                "tempo": 120.0
            },
            {
                "start_time": 2.745454545454545,
                "end_time": 2.7659090909090907,
                "pitch": 74,
                "velocity": 127,
                "duration": 0.020454545454545503,
                "tempo": 120.0
            },
            {
                "start_time": 2.8477272727272727,
                "end_time": 2.868181818181818,
                "pitch": 79,
                "velocity": 127,
                "duration": 0.020454545454545503,
                "tempo": 120.0
            },
            {
                "start_time": 2.9477272727272728,
                "end_time": 2.9681818181818183,
                "pitch": 67,
                "velocity": 127,
                "duration": 0.020454545454545503,
                "tempo": 120.0
            },
            {
                "start_time": 3.0477272727272724,
                "end_time": 3.068181818181818,
                "pitch": 74,
                "velocity": 127,
                "duration": 0.020454545454545503,
                "tempo": 120.0
            },
            {
                "start_time": 3.1477272727272725,
                "end_time": 3.168181818181818,
                "pitch": 72,
                "velocity": 127,
                "duration": 0.020454545454545503,
                "tempo": 120.0
            },
            {
                "start_time": 3.2477272727272726,
                "end_time": 3.268181818181818,
                "pitch": 67,
                "velocity": 127,
                "duration": 0.020454545454545503,
                "tempo": 120.0
            },
            {
                "start_time": 3.3454545454545452,
                "end_time": 3.3659090909090907,
                "pitch": 72,
                "velocity": 127,
                "duration": 0.020454545454545503,
                "tempo": 120.0
            },
            {
                "start_time": 3.443181818181818,
                "end_time": 3.4636363636363634,
                "pitch": 74,
                "velocity": 127,
                "duration": 0.020454545454545503,
                "tempo": 120.0
            },
            {
                "start_time": 3.543181818181818,
                "end_time": 3.561363636363636,
                "pitch": 79,
                "velocity": 127,
                "duration": 0.018181818181818077,
                "tempo": 120.0
            },
            {
                "start_time": 3.6409090909090907,
                "end_time": 3.6590909090909087,
                "pitch": 67,
                "velocity": 127,
                "duration": 0.018181818181818077,
                "tempo": 120.0
            },
            {
                "start_time": 3.7409090909090907,
                "end_time": 3.759090909090909,
                "pitch": 74,
                "velocity": 127,
                "duration": 0.018181818181818077,
                "tempo": 120.0
            },
            {
                "start_time": 3.840909090909091,
                "end_time": 3.859090909090909,
                "pitch": 72,
                "velocity": 127,
                "duration": 0.018181818181818077,
                "tempo": 120.0
            },
            {
                "start_time": 3.940909090909091,
                "end_time": 3.959090909090909,
                "pitch": 79,
                "velocity": 127,
                "duration": 0.018181818181818077,
                "tempo": 120.0
            },
            {
                "start_time": 4.040909090909091,
                "end_time": 4.059090909090909,
                "pitch": 74,
                "velocity": 127,
                "duration": 0.018181818181817633,
                "tempo": 120.0
            },
            {
                "start_time": 4.140909090909091,
                "end_time": 4.161363636363636,
                "pitch": 67,
                "velocity": 127,
                "duration": 0.020454545454545503,
                "tempo": 120.0
            },
            {
                "start_time": 4.24090909090909,
                "end_time": 4.261363636363636,
                "pitch": 72,
                "velocity": 127,
                "duration": 0.020454545454545503,
                "tempo": 120.0
            },
            {
                "start_time": 4.340909090909091,
                "end_time": 4.361363636363636,
                "pitch": 74,
                "velocity": 127,
                "duration": 0.020454545454545503,
                "tempo": 120.0
            },
            {
                "start_time": 4.443181818181818,
                "end_time": 4.461363636363636,
                "pitch": 79,
                "velocity": 127,
                "duration": 0.018181818181817633,
                "tempo": 120.0
            },
            {
                "start_time": 4.540909090909091,
                "end_time": 4.559090909090909,
                "pitch": 67,
                "velocity": 127,
                "duration": 0.018181818181817633,
                "tempo": 120.0
            },
            {
                "start_time": 4.638636363636364,
                "end_time": 4.659090909090909,
                "pitch": 74,
                "velocity": 127,
                "duration": 0.020454545454545503,
                "tempo": 120.0
            },
            {
                "start_time": 4.736363636363636,
                "end_time": 4.756818181818182,
                "pitch": 72,
                "velocity": 127,
                "duration": 0.020454545454545503,
                "tempo": 120.0
            },
            {
                "start_time": 4.834090909090909,
                "end_time": 4.8545454545454545,
                "pitch": 67,
                "velocity": 127,
                "duration": 0.020454545454545503,
                "tempo": 120.0
            },
            {
                "start_time": 4.9363636363636365,
                "end_time": 4.956818181818182,
                "pitch": 72,
                "velocity": 127,
                "duration": 0.020454545454545503,
                "tempo": 120.0
            },
            {
                "start_time": 5.038636363636363,
                "end_time": 5.0613636363636365,
                "pitch": 74,
                "velocity": 127,
                "duration": 0.022727272727273373,
                "tempo": 120.0
            },
            {
                "start_time": 5.143181818181818,
                "end_time": 5.163636363636363,
                "pitch": 79,
                "velocity": 127,
                "duration": 0.020454545454545503,
                "tempo": 120.0
            },
            {
                "start_time": 5.245454545454545,
                "end_time": 5.265909090909091,
                "pitch": 67,
                "velocity": 127,
                "duration": 0.020454545454545503,
                "tempo": 120.0
            },
            {
                "start_time": 5.345454545454545,
                "end_time": 5.36590909090909,
                "pitch": 74,
                "velocity": 127,
                "duration": 0.020454545454545503,
                "tempo": 120.0
            },
            {
                "start_time": 5.447727272727272,
                "end_time": 5.465909090909091,
                "pitch": 72,
                "velocity": 127,
                "duration": 0.01818181818181852,
                "tempo": 120.0
            },
            {
                "start_time": 5.547727272727273,
                "end_time": 5.568181818181818,
                "pitch": 79,
                "velocity": 127,
                "duration": 0.020454545454545503,
                "tempo": 120.0
            },
            {
                "start_time": 5.6477272727272725,
                "end_time": 5.668181818181818,
                "pitch": 74,
                "velocity": 127,
                "duration": 0.020454545454545503,
                "tempo": 120.0
            },
            {
                "start_time": 5.75,
                "end_time": 5.7704545454545455,
                "pitch": 67,
                "velocity": 127,
                "duration": 0.020454545454545503,
                "tempo": 120.0
            },
            {
                "start_time": 5.852272727272727,
                "end_time": 5.872727272727272,
                "pitch": 72,
                "velocity": 127,
                "duration": 0.020454545454545503,
                "tempo": 120.0
            },
            {
                "start_time": 5.956818181818181,
                "end_time": 5.977272727272727,
                "pitch": 74,
                "velocity": 127,
                "duration": 0.020454545454545503,
                "tempo": 120.0
            },
            {
                "start_time": 6.059090909090909,
                "end_time": 6.079545454545454,
                "pitch": 79,
                "velocity": 127,
                "duration": 0.020454545454545503,
                "tempo": 120.0
            },
            {
                "start_time": 6.159090909090909,
                "end_time": 6.179545454545455,
                "pitch": 67,
                "velocity": 127,
                "duration": 0.020454545454545503,
                "tempo": 120.0
            },
            {
                "start_time": 6.261363636363636,
                "end_time": 6.279545454545454,
                "pitch": 74,
                "velocity": 127,
                "duration": 0.01818181818181852,
                "tempo": 120.0
            },
            {
                "start_time": 6.361363636363636,
                "end_time": 6.381818181818182,
                "pitch": 72,
                "velocity": 127,
                "duration": 0.020454545454545503,
                "tempo": 120.0
            },
            {
                "start_time": 6.461363636363636,
                "end_time": 6.4818181818181815,
                "pitch": 79,
                "velocity": 127,
                "duration": 0.020454545454545503,
                "tempo": 120.0
            },
            {
                "start_time": 6.559090909090909,
                "end_time": 6.579545454545454,
                "pitch": 84,
                "velocity": 127,
                "duration": 0.020454545454545503,
                "tempo": 120.0
            },
            {
                "start_time": 6.659090909090909,
                "end_time": 6.677272727272727,
                "pitch": 86,
                "velocity": 127,
                "duration": 0.018181818181817633,
                "tempo": 120.0
            },
            {
                "start_time": 6.756818181818182,
                "end_time": 6.7749999999999995,
                "pitch": 91,
                "velocity": 127,
                "duration": 0.018181818181817633,
                "tempo": 120.0
            },
            {
                "start_time": 6.8545454545454545,
                "end_time": 6.872727272727272,
                "pitch": 79,
                "velocity": 127,
                "duration": 0.018181818181817633,
                "tempo": 120.0
            },
            {
                "start_time": 6.956818181818181,
                "end_time": 6.977272727272727,
                "pitch": 86,
                "velocity": 127,
                "duration": 0.020454545454545503,
                "tempo": 120.0
            },
            {
                "start_time": 7.059090909090909,
                "end_time": 7.079545454545454,
                "pitch": 84,
                "velocity": 127,
                "duration": 0.020454545454545503,
                "tempo": 120.0
            },
            {
                "start_time": 7.161363636363636,
                "end_time": 7.181818181818182,
                "pitch": 91,
                "velocity": 127,
                "duration": 0.020454545454545503,
                "tempo": 120.0
            },
            {
                "start_time": 7.263636363636364,
                "end_time": 7.284090909090909,
                "pitch": 86,
                "velocity": 127,
                "duration": 0.020454545454545503,
                "tempo": 120.0
            },
            {
                "start_time": 7.363636363636363,
                "end_time": 7.381818181818182,
                "pitch": 79,
                "velocity": 127,
                "duration": 0.01818181818181852,
                "tempo": 120.0
            },
            {
                "start_time": 7.461363636363636,
                "end_time": 7.4795454545454545,
                "pitch": 84,
                "velocity": 127,
                "duration": 0.01818181818181852,
                "tempo": 120.0
            },
            {
                "start_time": 7.559090909090909,
                "end_time": 7.577272727272727,
                "pitch": 86,
                "velocity": 127,
                "duration": 0.01818181818181852,
                "tempo": 120.0
            },
            {
                "start_time": 7.656818181818181,
                "end_time": 7.677272727272727,
                "pitch": 91,
                "velocity": 127,
                "duration": 0.020454545454545503,
                "tempo": 120.0
            },
            {
                "start_time": 7.754545454545454,
                "end_time": 7.7749999999999995,
                "pitch": 79,
                "velocity": 127,
                "duration": 0.020454545454545503,
                "tempo": 120.0
            },
            {
                "start_time": 7.852272727272727,
                "end_time": 7.872727272727272,
                "pitch": 86,
                "velocity": 127,
                "duration": 0.020454545454545503,
                "tempo": 120.0
            },
            {
                "start_time": 7.949999999999999,
                "end_time": 7.970454545454545,
                "pitch": 84,
                "velocity": 127,
                "duration": 0.020454545454545503,
                "tempo": 120.0
            },
            {
                "start_time": 8.049999999999999,
                "end_time": 8.068181818181818,
                "pitch": 79,
                "velocity": 127,
                "duration": 0.01818181818181941,
                "tempo": 120.0
            },
            {
                "start_time": 8.152272727272727,
                "end_time": 8.172727272727272,
                "pitch": 84,
                "velocity": 127,
                "duration": 0.020454545454544615,
                "tempo": 120.0
            },
            {
                "start_time": 8.254545454545454,
                "end_time": 8.275,
                "pitch": 86,
                "velocity": 127,
                "duration": 0.02045454545454639,
                "tempo": 120.0
            },
            {
                "start_time": 8.35681818181818,
                "end_time": 8.377272727272727,
                "pitch": 91,
                "velocity": 127,
                "duration": 0.02045454545454639,
                "tempo": 120.0
            },
            {
                "start_time": 8.459090909090909,
                "end_time": 8.479545454545454,
                "pitch": 79,
                "velocity": 127,
                "duration": 0.020454545454544615,
                "tempo": 120.0
            },
            {
                "start_time": 8.561363636363636,
                "end_time": 8.579545454545453,
                "pitch": 86,
                "velocity": 127,
                "duration": 0.018181818181817633,
                "tempo": 120.0
            },
            {
                "start_time": 8.661363636363635,
                "end_time": 8.681818181818182,
                "pitch": 84,
                "velocity": 127,
                "duration": 0.02045454545454639,
                "tempo": 120.0
            },
            {
                "start_time": 8.761363636363637,
                "end_time": 8.781818181818181,
                "pitch": 91,
                "velocity": 127,
                "duration": 0.020454545454544615,
                "tempo": 120.0
            },
            {
                "start_time": 8.861363636363636,
                "end_time": 8.881818181818181,
                "pitch": 86,
                "velocity": 127,
                "duration": 0.020454545454544615,
                "tempo": 120.0
            },
            {
                "start_time": 8.963636363636363,
                "end_time": 8.98409090909091,
                "pitch": 79,
                "velocity": 127,
                "duration": 0.02045454545454639,
                "tempo": 120.0
            },
            {
                "start_time": 9.063636363636363,
                "end_time": 9.084090909090909,
                "pitch": 84,
                "velocity": 127,
                "duration": 0.02045454545454639,
                "tempo": 120.0
            },
            {
                "start_time": 9.163636363636364,
                "end_time": 9.184090909090909,
                "pitch": 86,
                "velocity": 127,
                "duration": 0.020454545454544615,
                "tempo": 120.0
            },
            {
                "start_time": 9.26590909090909,
                "end_time": 9.284090909090908,
                "pitch": 91,
                "velocity": 127,
                "duration": 0.018181818181817633,
                "tempo": 120.0
            },
            {
                "start_time": 9.36590909090909,
                "end_time": 9.386363636363637,
                "pitch": 79,
                "velocity": 127,
                "duration": 0.02045454545454639,
                "tempo": 120.0
            },
            {
                "start_time": 9.46590909090909,
                "end_time": 9.486363636363636,
                "pitch": 86,
                "velocity": 127,
                "duration": 0.02045454545454639,
                "tempo": 120.0
            },
            {
                "start_time": 9.56590909090909,
                "end_time": 9.586363636363636,
                "pitch": 84,
                "velocity": 127,
                "duration": 0.02045454545454639,
                "tempo": 120.0
            },
            {
                "start_time": 9.668181818181818,
                "end_time": 9.686363636363636,
                "pitch": 91,
                "velocity": 127,
                "duration": 0.018181818181817633,
                "tempo": 120.0
            },
            {
                "start_time": 9.76590909090909,
                "end_time": 9.786363636363635,
                "pitch": 96,
                "velocity": 127,
                "duration": 0.020454545454544615,
                "tempo": 120.0
            },
            {
                "start_time": 9.863636363636363,
                "end_time": 9.884090909090908,
                "pitch": 98,
                "velocity": 127,
                "duration": 0.020454545454544615,
                "tempo": 120.0
            },
            {
                "start_time": 9.961363636363636,
                "end_time": 9.98181818181818,
                "pitch": 103,
                "velocity": 127,
                "duration": 0.020454545454544615,
                "tempo": 120.0
            },
            {
                "start_time": 10.059090909090909,
                "end_time": 10.079545454545453,
                "pitch": 91,
                "velocity": 127,
                "duration": 0.020454545454544615,
                "tempo": 120.0
            },
            {
                "start_time": 10.161363636363635,
                "end_time": 10.181818181818182,
                "pitch": 98,
                "velocity": 127,
                "duration": 0.02045454545454639,
                "tempo": 120.0
            },
            {
                "start_time": 10.26590909090909,
                "end_time": 10.286363636363635,
                "pitch": 96,
                "velocity": 127,
                "duration": 0.020454545454544615,
                "tempo": 120.0
            },
            {
                "start_time": 10.368181818181817,
                "end_time": 10.388636363636364,
                "pitch": 103,
                "velocity": 127,
                "duration": 0.02045454545454639,
                "tempo": 120.0
            },
            {
                "start_time": 10.470454545454546,
                "end_time": 10.49090909090909,
                "pitch": 98,
                "velocity": 127,
                "duration": 0.020454545454544615,
                "tempo": 120.0
            },
            {
                "start_time": 10.570454545454545,
                "end_time": 10.59090909090909,
                "pitch": 91,
                "velocity": 127,
                "duration": 0.020454545454544615,
                "tempo": 120.0
            },
            {
                "start_time": 10.672727272727272,
                "end_time": 10.69090909090909,
                "pitch": 96,
                "velocity": 127,
                "duration": 0.018181818181817633,
                "tempo": 120.0
            },
            {
                "start_time": 10.772727272727272,
                "end_time": 10.793181818181818,
                "pitch": 98,
                "velocity": 127,
                "duration": 0.02045454545454639,
                "tempo": 120.0
            },
            {
                "start_time": 10.872727272727273,
                "end_time": 10.893181818181818,
                "pitch": 103,
                "velocity": 127,
                "duration": 0.020454545454544615,
                "tempo": 120.0
            },
            {
                "start_time": 10.970454545454546,
                "end_time": 10.99090909090909,
                "pitch": 91,
                "velocity": 127,
                "duration": 0.020454545454544615,
                "tempo": 120.0
            },
            {
                "start_time": 11.070454545454545,
                "end_time": 11.088636363636363,
                "pitch": 98,
                "velocity": 127,
                "duration": 0.018181818181817633,
                "tempo": 120.0
            },
            {
                "start_time": 11.168181818181818,
                "end_time": 11.186363636363636,
                "pitch": 96,
                "velocity": 127,
                "duration": 0.018181818181817633,
                "tempo": 120.0
            },
            {
                "start_time": 11.26590909090909,
                "end_time": 11.286363636363635,
                "pitch": 91,
                "velocity": 127,
                "duration": 0.020454545454544615,
                "tempo": 120.0
            },
            {
                "start_time": 11.36590909090909,
                "end_time": 11.386363636363637,
                "pitch": 96,
                "velocity": 127,
                "duration": 0.02045454545454639,
                "tempo": 120.0
            },
            {
                "start_time": 11.46590909090909,
                "end_time": 11.486363636363636,
                "pitch": 98,
                "velocity": 127,
                "duration": 0.02045454545454639,
                "tempo": 120.0
            },
            {
                "start_time": 11.568181818181818,
                "end_time": 11.588636363636363,
                "pitch": 103,
                "velocity": 127,
                "duration": 0.020454545454544615,
                "tempo": 120.0
            },
            {
                "start_time": 11.668181818181818,
                "end_time": 11.688636363636363,
                "pitch": 91,
                "velocity": 127,
                "duration": 0.020454545454544615,
                "tempo": 120.0
            },
            {
                "start_time": 11.768181818181818,
                "end_time": 11.788636363636362,
                "pitch": 98,
                "velocity": 127,
                "duration": 0.020454545454544615,
                "tempo": 120.0
            },
            {
                "start_time": 11.868181818181817,
                "end_time": 11.888636363636364,
                "pitch": 96,
                "velocity": 127,
                "duration": 0.02045454545454639,
                "tempo": 120.0
            },
            {
                "start_time": 11.968181818181817,
                "end_time": 11.988636363636363,
                "pitch": 103,
                "velocity": 127,
                "duration": 0.02045454545454639,
                "tempo": 120.0
            },
            {
                "start_time": 12.068181818181818,
                "end_time": 12.088636363636363,
                "pitch": 98,
                "velocity": 127,
                "duration": 0.020454545454544615,
                "tempo": 120.0
            },
            {
                "start_time": 12.170454545454545,
                "end_time": 12.19090909090909,
                "pitch": 91,
                "velocity": 127,
                "duration": 0.020454545454544615,
                "tempo": 120.0
            },
            {
                "start_time": 12.272727272727272,
                "end_time": 12.293181818181818,
                "pitch": 96,
                "velocity": 127,
                "duration": 0.02045454545454639,
                "tempo": 120.0
            },
            {
                "start_time": 12.375,
                "end_time": 12.395454545454545,
                "pitch": 98,
                "velocity": 127,
                "duration": 0.020454545454544615,
                "tempo": 120.0
            },
            {
                "start_time": 12.479545454545454,
                "end_time": 12.497727272727271,
                "pitch": 103,
                "velocity": 127,
                "duration": 0.018181818181817633,
                "tempo": 120.0
            },
            {
                "start_time": 12.577272727272726,
                "end_time": 12.595454545454546,
                "pitch": 91,
                "velocity": 127,
                "duration": 0.01818181818181941,
                "tempo": 120.0
            },
            {
                "start_time": 12.674999999999999,
                "end_time": 12.695454545454545,
                "pitch": 98,
                "velocity": 127,
                "duration": 0.02045454545454639,
                "tempo": 120.0
            },
            {
                "start_time": 12.772727272727272,
                "end_time": 12.793181818181818,
                "pitch": 96,
                "velocity": 127,
                "duration": 0.02045454545454639,
                "tempo": 120.0
            },
            {
                "start_time": 91.48409090909091,
                "end_time": 91.50454545454545,
                "pitch": 67,
                "velocity": 127,
                "duration": 0.020454545454541062,
                "tempo": 120.0
            },
            {
                "start_time": 91.58636363636363,
                "end_time": 91.60454545454544,
                "pitch": 72,
                "velocity": 127,
                "duration": 0.018181818181815856,
                "tempo": 120.0
            },
            {
                "start_time": 91.68636363636364,
                "end_time": 91.70681818181818,
                "pitch": 74,
                "velocity": 127,
                "duration": 0.020454545454541062,
                "tempo": 120.0
            },
            {
                "start_time": 91.78636363636363,
                "end_time": 91.80681818181817,
                "pitch": 79,
                "velocity": 127,
                "duration": 0.020454545454541062,
                "tempo": 120.0
            },
            {
                "start_time": 91.88636363636363,
                "end_time": 91.90681818181818,
                "pitch": 67,
                "velocity": 127,
                "duration": 0.020454545454555273,
                "tempo": 120.0
            },
            {
                "start_time": 91.99090909090908,
                "end_time": 92.01136363636363,
                "pitch": 74,
                "velocity": 127,
                "duration": 0.020454545454541062,
                "tempo": 120.0
            },
            {
                "start_time": 92.09318181818182,
                "end_time": 92.11363636363636,
                "pitch": 72,
                "velocity": 127,
                "duration": 0.020454545454541062,
                "tempo": 120.0
            },
            {
                "start_time": 92.19545454545454,
                "end_time": 92.2159090909091,
                "pitch": 79,
                "velocity": 127,
                "duration": 0.020454545454555273,
                "tempo": 120.0
            },
            {
                "start_time": 92.29772727272727,
                "end_time": 92.31818181818181,
                "pitch": 74,
                "velocity": 127,
                "duration": 0.020454545454541062,
                "tempo": 120.0
            },
            {
                "start_time": 92.39545454545454,
                "end_time": 92.41590909090908,
                "pitch": 67,
                "velocity": 127,
                "duration": 0.020454545454541062,
                "tempo": 120.0
            },
            {
                "start_time": 92.49318181818181,
                "end_time": 92.51363636363637,
                "pitch": 72,
                "velocity": 127,
                "duration": 0.020454545454555273,
                "tempo": 120.0
            },
            {
                "start_time": 92.59318181818182,
                "end_time": 92.61136363636363,
                "pitch": 74,
                "velocity": 127,
                "duration": 0.018181818181815856,
                "tempo": 120.0
            },
            {
                "start_time": 92.69090909090909,
                "end_time": 92.71136363636363,
                "pitch": 79,
                "velocity": 127,
                "duration": 0.020454545454541062,
                "tempo": 120.0
            },
            {
                "start_time": 92.79318181818181,
                "end_time": 92.81363636363636,
                "pitch": 67,
                "velocity": 127,
                "duration": 0.020454545454555273,
                "tempo": 120.0
            },
            {
                "start_time": 92.89545454545454,
                "end_time": 92.91590909090908,
                "pitch": 74,
                "velocity": 127,
                "duration": 0.020454545454541062,
                "tempo": 120.0
            },
            {
                "start_time": 92.99772727272727,
                "end_time": 93.01818181818182,
                "pitch": 72,
                "velocity": 127,
                "duration": 0.020454545454541062,
                "tempo": 120.0
            },
            {
                "start_time": 93.1,
                "end_time": 93.12045454545454,
                "pitch": 67,
                "velocity": 127,
                "duration": 0.020454545454541062,
                "tempo": 120.0
            },
            {
                "start_time": 93.19999999999999,
                "end_time": 93.22045454545454,
                "pitch": 72,
                "velocity": 127,
                "duration": 0.020454545454555273,
                "tempo": 120.0
            },
            {
                "start_time": 93.3,
                "end_time": 93.32045454545454,
                "pitch": 74,
                "velocity": 127,
                "duration": 0.020454545454541062,
                "tempo": 120.0
            },
            {
                "start_time": 93.39999999999999,
                "end_time": 93.42045454545455,
                "pitch": 79,
                "velocity": 127,
                "duration": 0.020454545454555273,
                "tempo": 120.0
            },
            {
                "start_time": 93.5,
                "end_time": 93.52045454545454,
                "pitch": 67,
                "velocity": 127,
                "duration": 0.020454545454541062,
                "tempo": 120.0
            },
            {
                "start_time": 93.60227272727272,
                "end_time": 93.62272727272727,
                "pitch": 74,
                "velocity": 127,
                "duration": 0.020454545454555273,
                "tempo": 120.0
            },
            {
                "start_time": 93.70227272727273,
                "end_time": 93.72272727272727,
                "pitch": 72,
                "velocity": 127,
                "duration": 0.020454545454541062,
                "tempo": 120.0
            },
            {
                "start_time": 93.80227272727272,
                "end_time": 93.82272727272726,
                "pitch": 79,
                "velocity": 127,
                "duration": 0.020454545454541062,
                "tempo": 120.0
            },
            {
                "start_time": 93.90454545454546,
                "end_time": 93.92272727272727,
                "pitch": 74,
                "velocity": 127,
                "duration": 0.018181818181815856,
                "tempo": 120.0
            },
            {
                "start_time": 94.00454545454545,
                "end_time": 94.02272727272727,
                "pitch": 67,
                "velocity": 127,
                "duration": 0.018181818181815856,
                "tempo": 120.0
            },
            {
                "start_time": 94.10454545454544,
                "end_time": 94.12272727272727,
                "pitch": 72,
                "velocity": 127,
                "duration": 0.018181818181830067,
                "tempo": 120.0
            },
            {
                "start_time": 94.20454545454545,
                "end_time": 94.22272727272727,
                "pitch": 74,
                "velocity": 127,
                "duration": 0.018181818181815856,
                "tempo": 120.0
            },
            {
                "start_time": 94.30454545454545,
                "end_time": 94.32272727272726,
                "pitch": 79,
                "velocity": 127,
                "duration": 0.018181818181815856,
                "tempo": 120.0
            },
            {
                "start_time": 94.40227272727272,
                "end_time": 94.42045454545455,
                "pitch": 67,
                "velocity": 127,
                "duration": 0.018181818181830067,
                "tempo": 120.0
            },
            {
                "start_time": 94.5,
                "end_time": 94.51818181818182,
                "pitch": 74,
                "velocity": 127,
                "duration": 0.018181818181815856,
                "tempo": 120.0
            },
            {
                "start_time": 94.59772727272727,
                "end_time": 94.61818181818181,
                "pitch": 72,
                "velocity": 127,
                "duration": 0.020454545454541062,
                "tempo": 120.0
            },
            {
                "start_time": 94.69545454545454,
                "end_time": 94.71590909090908,
                "pitch": 67,
                "velocity": 127,
                "duration": 0.020454545454541062,
                "tempo": 120.0
            },
            {
                "start_time": 94.79545454545455,
                "end_time": 94.81590909090909,
                "pitch": 72,
                "velocity": 127,
                "duration": 0.020454545454541062,
                "tempo": 120.0
            },
            {
                "start_time": 94.89772727272727,
                "end_time": 94.91818181818181,
                "pitch": 74,
                "velocity": 127,
                "duration": 0.020454545454541062,
                "tempo": 120.0
            },
            {
                "start_time": 94.99772727272727,
                "end_time": 95.01818181818182,
                "pitch": 79,
                "velocity": 127,
                "duration": 0.020454545454541062,
                "tempo": 120.0
            },
            {
                "start_time": 95.09772727272727,
                "end_time": 95.11818181818181,
                "pitch": 67,
                "velocity": 127,
                "duration": 0.020454545454541062,
                "tempo": 120.0
            },
            {
                "start_time": 95.19772727272726,
                "end_time": 95.21818181818182,
                "pitch": 74,
                "velocity": 127,
                "duration": 0.020454545454555273,
                "tempo": 120.0
            },
            {
                "start_time": 95.29772727272727,
                "end_time": 95.31818181818181,
                "pitch": 72,
                "velocity": 127,
                "duration": 0.020454545454541062,
                "tempo": 120.0
            },
            {
                "start_time": 95.39772727272727,
                "end_time": 95.41818181818181,
                "pitch": 79,
                "velocity": 127,
                "duration": 0.020454545454541062,
                "tempo": 120.0
            },
            {
                "start_time": 95.49772727272727,
                "end_time": 95.51818181818182,
                "pitch": 74,
                "velocity": 127,
                "duration": 0.020454545454541062,
                "tempo": 120.0
            },
            {
                "start_time": 95.6,
                "end_time": 95.62045454545454,
                "pitch": 67,
                "velocity": 127,
                "duration": 0.020454545454541062,
                "tempo": 120.0
            },
            {
                "start_time": 95.70454545454545,
                "end_time": 95.725,
                "pitch": 72,
                "velocity": 127,
                "duration": 0.020454545454541062,
                "tempo": 120.0
            },
            {
                "start_time": 95.80681818181817,
                "end_time": 95.82727272727273,
                "pitch": 74,
                "velocity": 127,
                "duration": 0.020454545454555273,
                "tempo": 120.0
            },
            {
                "start_time": 95.9090909090909,
                "end_time": 95.92954545454545,
                "pitch": 79,
                "velocity": 127,
                "duration": 0.020454545454541062,
                "tempo": 120.0
            },
            {
                "start_time": 96.00681818181818,
                "end_time": 96.02727272727272,
                "pitch": 67,
                "velocity": 127,
                "duration": 0.020454545454541062,
                "tempo": 120.0
            },
            {
                "start_time": 96.10454545454544,
                "end_time": 96.125,
                "pitch": 74,
                "velocity": 127,
                "duration": 0.020454545454555273,
                "tempo": 120.0
            },
            {
                "start_time": 96.20227272727273,
                "end_time": 96.22272727272727,
                "pitch": 72,
                "velocity": 127,
                "duration": 0.020454545454541062,
                "tempo": 120.0
            },
            {
                "start_time": 96.30227272727272,
                "end_time": 96.32045454545454,
                "pitch": 67,
                "velocity": 127,
                "duration": 0.018181818181815856,
                "tempo": 120.0
            },
            {
                "start_time": 96.40454545454546,
                "end_time": 96.425,
                "pitch": 72,
                "velocity": 127,
                "duration": 0.020454545454541062,
                "tempo": 120.0
            },
            {
                "start_time": 96.50681818181818,
                "end_time": 96.52727272727272,
                "pitch": 74,
                "velocity": 127,
                "duration": 0.020454545454541062,
                "tempo": 120.0
            },
            {
                "start_time": 96.60909090909091,
                "end_time": 96.62954545454545,
                "pitch": 79,
                "velocity": 127,
                "duration": 0.020454545454541062,
                "tempo": 120.0
            },
            {
                "start_time": 96.71136363636363,
                "end_time": 96.73181818181818,
                "pitch": 67,
                "velocity": 127,
                "duration": 0.020454545454555273,
                "tempo": 120.0
            },
            {
                "start_time": 96.81363636363636,
                "end_time": 96.83181818181818,
                "pitch": 74,
                "velocity": 127,
                "duration": 0.018181818181815856,
                "tempo": 120.0
            },
            {
                "start_time": 96.91363636363636,
                "end_time": 96.9340909090909,
                "pitch": 72,
                "velocity": 127,
                "duration": 0.020454545454541062,
                "tempo": 120.0
            },
            {
                "start_time": 97.01363636363637,
                "end_time": 97.0340909090909,
                "pitch": 79,
                "velocity": 127,
                "duration": 0.020454545454541062,
                "tempo": 120.0
            },
            {
                "start_time": 97.11363636363636,
                "end_time": 97.1340909090909,
                "pitch": 74,
                "velocity": 127,
                "duration": 0.020454545454541062,
                "tempo": 120.0
            },
            {
                "start_time": 97.21363636363635,
                "end_time": 97.23409090909091,
                "pitch": 67,
                "velocity": 127,
                "duration": 0.020454545454555273,
                "tempo": 120.0
            },
            {
                "start_time": 97.31363636363636,
                "end_time": 97.3340909090909,
                "pitch": 72,
                "velocity": 127,
                "duration": 0.020454545454541062,
                "tempo": 120.0
            },
            {
                "start_time": 97.41363636363636,
                "end_time": 97.4340909090909,
                "pitch": 74,
                "velocity": 127,
                "duration": 0.020454545454541062,
                "tempo": 120.0
            },
            {
                "start_time": 97.51363636363637,
                "end_time": 97.5340909090909,
                "pitch": 79,
                "velocity": 127,
                "duration": 0.020454545454541062,
                "tempo": 120.0
            },
            {
                "start_time": 97.61363636363636,
                "end_time": 97.63181818181818,
                "pitch": 67,
                "velocity": 127,
                "duration": 0.018181818181815856,
                "tempo": 120.0
            },
            {
                "start_time": 97.71136363636363,
                "end_time": 97.72954545454544,
                "pitch": 74,
                "velocity": 127,
                "duration": 0.018181818181815856,
                "tempo": 120.0
            },
            {
                "start_time": 97.8090909090909,
                "end_time": 97.82954545454545,
                "pitch": 72,
                "velocity": 127,
                "duration": 0.020454545454555273,
                "tempo": 120.0
            },
            {
                "start_time": 97.90681818181818,
                "end_time": 97.92727272727272,
                "pitch": 67,
                "velocity": 127,
                "duration": 0.020454545454541062,
                "tempo": 120.0
            },
            {
                "start_time": 98.0090909090909,
                "end_time": 98.02954545454546,
                "pitch": 72,
                "velocity": 127,
                "duration": 0.020454545454555273,
                "tempo": 120.0
            },
            {
                "start_time": 98.11136363636363,
                "end_time": 98.13181818181818,
                "pitch": 74,
                "velocity": 127,
                "duration": 0.020454545454541062,
                "tempo": 120.0
            },
            {
                "start_time": 98.21363636363635,
                "end_time": 98.23409090909091,
                "pitch": 79,
                "velocity": 127,
                "duration": 0.020454545454555273,
                "tempo": 120.0
            },
            {
                "start_time": 98.31818181818181,
                "end_time": 98.33863636363635,
                "pitch": 67,
                "velocity": 127,
                "duration": 0.020454545454541062,
                "tempo": 120.0
            },
            {
                "start_time": 98.41818181818181,
                "end_time": 98.43863636363636,
                "pitch": 74,
                "velocity": 127,
                "duration": 0.020454545454555273,
                "tempo": 120.0
            },
            {
                "start_time": 98.51818181818182,
                "end_time": 98.53863636363636,
                "pitch": 72,
                "velocity": 127,
                "duration": 0.020454545454541062,
                "tempo": 120.0
            },
            {
                "start_time": 98.62045454545454,
                "end_time": 98.63863636363637,
                "pitch": 79,
                "velocity": 127,
                "duration": 0.018181818181830067,
                "tempo": 120.0
            },
            {
                "start_time": 98.72045454545454,
                "end_time": 98.74090909090908,
                "pitch": 74,
                "velocity": 127,
                "duration": 0.020454545454541062,
                "tempo": 120.0
            },
            {
                "start_time": 98.82045454545454,
                "end_time": 98.84090909090908,
                "pitch": 67,
                "velocity": 127,
                "duration": 0.020454545454541062,
                "tempo": 120.0
            },
            {
                "start_time": 98.92272727272727,
                "end_time": 98.94090909090909,
                "pitch": 72,
                "velocity": 127,
                "duration": 0.018181818181815856,
                "tempo": 120.0
            },
            {
                "start_time": 99.02272727272727,
                "end_time": 99.04318181818181,
                "pitch": 74,
                "velocity": 127,
                "duration": 0.020454545454541062,
                "tempo": 120.0
            },
            {
                "start_time": 99.12272727272727,
                "end_time": 99.14318181818182,
                "pitch": 79,
                "velocity": 127,
                "duration": 0.020454545454541062,
                "tempo": 120.0
            },
            {
                "start_time": 99.22045454545454,
                "end_time": 99.24090909090908,
                "pitch": 67,
                "velocity": 127,
                "duration": 0.020454545454541062,
                "tempo": 120.0
            },
            {
                "start_time": 99.31818181818181,
                "end_time": 99.33863636363635,
                "pitch": 74,
                "velocity": 127,
                "duration": 0.020454545454541062,
                "tempo": 120.0
            },
            {
                "start_time": 99.41818181818181,
                "end_time": 99.43636363636364,
                "pitch": 72,
                "velocity": 127,
                "duration": 0.018181818181830067,
                "tempo": 120.0
            },
            {
                "start_time": 99.51590909090909,
                "end_time": 99.5340909090909,
                "pitch": 67,
                "velocity": 127,
                "duration": 0.018181818181815856,
                "tempo": 120.0
            },
            {
                "start_time": 99.61818181818181,
                "end_time": 99.63863636363637,
                "pitch": 72,
                "velocity": 127,
                "duration": 0.020454545454555273,
                "tempo": 120.0
            },
            {
                "start_time": 99.72045454545454,
                "end_time": 99.74090909090908,
                "pitch": 74,
                "velocity": 127,
                "duration": 0.020454545454541062,
                "tempo": 120.0
            },
            {
                "start_time": 99.82272727272726,
                "end_time": 99.84318181818182,
                "pitch": 79,
                "velocity": 127,
                "duration": 0.020454545454555273,
                "tempo": 120.0
            },
            {
                "start_time": 99.925,
                "end_time": 99.94545454545454,
                "pitch": 67,
                "velocity": 127,
                "duration": 0.020454545454541062,
                "tempo": 120.0
            },
            {
                "start_time": 100.02499999999999,
                "end_time": 100.04545454545455,
                "pitch": 74,
                "velocity": 127,
                "duration": 0.020454545454555273,
                "tempo": 120.0
            },
            {
                "start_time": 100.125,
                "end_time": 100.14545454545454,
                "pitch": 72,
                "velocity": 127,
                "duration": 0.020454545454541062,
                "tempo": 120.0
            },
            {
                "start_time": 100.225,
                "end_time": 100.24545454545454,
                "pitch": 79,
                "velocity": 127,
                "duration": 0.020454545454541062,
                "tempo": 120.0
            },
            {
                "start_time": 100.32499999999999,
                "end_time": 100.34545454545454,
                "pitch": 74,
                "velocity": 127,
                "duration": 0.020454545454555273,
                "tempo": 120.0
            },
            {
                "start_time": 100.42727272727272,
                "end_time": 100.44772727272726,
                "pitch": 67,
                "velocity": 127,
                "duration": 0.020454545454541062,
                "tempo": 120.0
            },
            {
                "start_time": 100.52727272727272,
                "end_time": 100.54772727272727,
                "pitch": 72,
                "velocity": 127,
                "duration": 0.020454545454555273,
                "tempo": 120.0
            },
            {
                "start_time": 100.62727272727273,
                "end_time": 100.64772727272727,
                "pitch": 74,
                "velocity": 127,
                "duration": 0.020454545454541062,
                "tempo": 120.0
            },
            {
                "start_time": 100.72954545454544,
                "end_time": 100.74772727272727,
                "pitch": 79,
                "velocity": 127,
                "duration": 0.018181818181830067,
                "tempo": 120.0
            },
            {
                "start_time": 100.82954545454545,
                "end_time": 100.85,
                "pitch": 67,
                "velocity": 127,
                "duration": 0.020454545454541062,
                "tempo": 120.0
            },
            {
                "start_time": 100.92954545454545,
                "end_time": 100.94999999999999,
                "pitch": 74,
                "velocity": 127,
                "duration": 0.020454545454541062,
                "tempo": 120.0
            },
            {
                "start_time": 101.02954545454546,
                "end_time": 101.05,
                "pitch": 72,
                "velocity": 127,
                "duration": 0.020454545454541062,
                "tempo": 120.0
            }
        ]
    }
}