{
    "track_id": "02 Title",
    "mood": "happy",
    "instruments": {
        "Electric Piano 1": [
            {
                "start_time": 15.970454545454544,
                "end_time": 16.18181818181818,
                "pitch": 75,
                "velocity": 80,
                "duration": 0.21136363636363598,
                "tempo": 120.0
            },
            {
                "start_time": 16.21590909090909,
                "end_time": 16.313636363636363,
                "pitch": 75,
                "velocity": 51,
                "duration": 0.09772727272727266,
                "tempo": 120.0
            },
            {
                "start_time": 16.331818181818182,
                "end_time": 16.49772727272727,
                "pitch": 75,
                "velocity": 51,
                "duration": 0.16590909090908923,
                "tempo": 120.0
            },
            {
                "start_time": 16.522727272727273,
                "end_time": 16.613636363636363,
                "pitch": 75,
                "velocity": 32,
                "duration": 0.09090909090908994,
                "tempo": 120.0
            },
            {
                "start_time": 16.627272727272725,
                "end_time": 16.79090909090909,
                "pitch": 75,
                "velocity": 32,
                "duration": 0.16363636363636402,
                "tempo": 120.0
            },
            {
                "start_time": 16.818181818181817,
                "end_time": 16.893181818181816,
                "pitch": 75,
                "velocity": 20,
                "duration": 0.07499999999999929,
                "tempo": 120.0
            },
            {
                "start_time": 16.90681818181818,
                "end_time": 17.068181818181817,
                "pitch": 75,
                "velocity": 20,
                "duration": 0.16136363636363527,
                "tempo": 120.0
            },
            {
                "start_time": 17.09318181818182,
                "end_time": 17.179545454545455,
                "pitch": 75,
                "velocity": 13,
                "duration": 0.08636363636363598,
                "tempo": 120.0
            },
            {
                "start_time": 17.19090909090909,
                "end_time": 17.35681818181818,
                "pitch": 75,
                "velocity": 13,
                "duration": 0.16590909090908923,
                "tempo": 120.0
            },
            {
                "start_time": 17.381818181818183,
                "end_time": 17.459090909090907,
                "pitch": 75,
                "velocity": 8,
                "duration": 0.0772727272727245,
                "tempo": 120.0
            },
            {
                "start_time": 17.472727272727273,
                "end_time": 17.631818181818183,
                "pitch": 75,
                "velocity": 8,
                "duration": 0.15909090909091006,
                "tempo": 120.0
            },
            {
                "start_time": 17.65681818181818,
                "end_time": 17.743181818181817,
                "pitch": 75,
                "velocity": 5,
                "duration": 0.08636363636363598,
                "tempo": 120.0
            },
            {
                "start_time": 17.756818181818183,
                "end_time": 17.920454545454543,
                "pitch": 75,
                "velocity": 5,
                "duration": 0.16363636363636047,
                "tempo": 120.0
            }
        ],
        "Harpsichord": [
            {
                "start_time": 0.0022727272727272726,
                "end_time": 0.04090909090909091,
                "pitch": 39,
                "velocity": 64,
                "duration": 0.038636363636363635,
                "tempo": 120.0
            },
            {
                "start_time": 0.09545454545454544,
                "end_time": 0.1477272727272727,
                "pitch": 51,
                "velocity": 64,
                "duration": 0.05227272727272726,
                "tempo": 120.0
            },
            {
                "start_time": 0.20227272727272727,
                "end_time": 0.2954545454545454,
                "pitch": 50,
                "velocity": 64,
                "duration": 0.09318181818181814,
                "tempo": 120.0
            },
            {
                "start_time": 0.4022727272727272,
                "end_time": 0.5181818181818182,
                "pitch": 48,
                "velocity": 64,
                "duration": 0.11590909090909096,
                "tempo": 120.0
            },
            {
                "start_time": 0.6522727272727272,
                "end_time": 0.7681818181818182,
                "pitch": 50,
                "velocity": 64,
                "duration": 0.11590909090909096,
                "tempo": 120.0
            },
            {
                "start_time": 0.9022727272727272,
                "end_time": 1.0204545454545455,
                "pitch": 51,
                "velocity": 64,
                "duration": 0.11818181818181828,
                "tempo": 120.0
            },
            {
                "start_time": 1.1545454545454545,
                "end_time": 1.2022727272727272,
                "pitch": 50,
                "velocity": 64,
                "duration": 0.04772727272727262,
                "tempo": 120.0
            },
            {
                "start_time": 1.2704545454545455,
                "end_time": 1.3863636363636362,
                "pitch": 48,
                "velocity": 64,
                "duration": 0.11590909090909074,
                "tempo": 120.0
            },
            {
                "start_time": 1.5204545454545453,
                "end_time": 1.7022727272727272,
                "pitch": 50,
                "velocity": 64,
                "duration": 0.18181818181818188,
                "tempo": 120.0
            },
            {
                "start_time": 1.9045454545454545,
                "end_time": 1.9545454545454544,
                "pitch": 39,
                "velocity": 64,
                "duration": 0.04999999999999982,
                "tempo": 120.0
            },
            {
                "start_time": 2.025,
                "end_time": 2.090909090909091,
                "pitch": 51,
                "velocity": 64,
                "duration": 0.06590909090909092,
                "tempo": 120.0
            },
            {
                "start_time": 2.161363636363636,
                "end_time": 2.2818181818181817,
                "pitch": 50,
                "velocity": 64,
                "duration": 0.12045454545454559,
                "tempo": 120.0
            },
            {
                "start_time": 2.418181818181818,
                "end_time": 2.5318181818181817,
                "pitch": 48,
                "velocity": 64,
                "duration": 0.11363636363636376,
                "tempo": 120.0
            },
            {
                "start_time": 2.6636363636363636,
                "end_time": 2.7772727272727273,
                "pitch": 50,
                "velocity": 64,
                "duration": 0.11363636363636376,
                "tempo": 120.0
            },
            {
                "start_time": 2.909090909090909,
                "end_time": 3.0295454545454543,
                "pitch": 51,
                "velocity": 64,
                "duration": 0.12045454545454515,
                "tempo": 120.0
            },
            {
                "start_time": 3.1659090909090906,
                "end_time": 3.218181818181818,
                "pitch": 48,
                "velocity": 64,
                "duration": 0.05227272727272725,
                "tempo": 120.0
            },
            {
                "start_time": 3.286363636363636,
                "end_time": 3.4045454545454543,
                "pitch": 55,
                "velocity": 64,
                "duration": 0.11818181818181817,
                "tempo": 120.0
            },
            {
                "start_time": 3.5409090909090906,
                "end_time": 3.7227272727272727,
                "pitch": 48,
                "velocity": 64,
                "duration": 0.1818181818181821,
                "tempo": 120.0
            },
            {
                "start_time": 3.925,
                "end_time": 3.9727272727272727,
                "pitch": 39,
                "velocity": 64,
                "duration": 0.04772727272727284,
                "tempo": 120.0
            },
            {
                "start_time": 4.040909090909091,
                "end_time": 4.1068181818181815,
                "pitch": 51,
                "velocity": 64,
                "duration": 0.06590909090909047,
                "tempo": 120.0
            },
            {
                "start_time": 4.175,
                "end_time": 4.290909090909091,
                "pitch": 50,
                "velocity": 64,
                "duration": 0.11590909090909118,
                "tempo": 120.0
            },
            {
                "start_time": 4.425,
                "end_time": 4.540909090909091,
                "pitch": 48,
                "velocity": 64,
                "duration": 0.11590909090909118,
                "tempo": 120.0
            },
            {
                "start_time": 4.675,
                "end_time": 4.790909090909091,
                "pitch": 50,
                "velocity": 64,
                "duration": 0.11590909090909118,
                "tempo": 120.0
            },
            {
                "start_time": 4.925,
                "end_time": 5.043181818181818,
                "pitch": 51,
                "velocity": 64,
                "duration": 0.11818181818181817,
                "tempo": 120.0
            },
            {
                "start_time": 5.175,
                "end_time": 5.225,
                "pitch": 50,
                "velocity": 64,
                "duration": 0.04999999999999982,
                "tempo": 120.0
            },
            {
                "start_time": 5.293181818181818,
                "end_time": 5.409090909090909,
                "pitch": 48,
                "velocity": 64,
                "duration": 0.11590909090909118,
                "tempo": 120.0
            },
            {
                "start_time": 5.543181818181818,
                "end_time": 5.725,
                "pitch": 50,
                "velocity": 64,
                "duration": 0.18181818181818166,
                "tempo": 120.0
            },
            {
                "start_time": 5.927272727272727,
                "end_time": 5.975,
                "pitch": 39,
                "velocity": 64,
                "duration": 0.04772727272727284,
                "tempo": 120.0
            },
            {
                "start_time": 6.043181818181818,
                "end_time": 6.1090909090909085,
                "pitch": 51,
                "velocity": 64,
                "duration": 0.06590909090909047,
                "tempo": 120.0
            },
            {
                "start_time": 6.177272727272727,
                "end_time": 6.293181818181818,
                "pitch": 50,
                "velocity": 64,
                "duration": 0.11590909090909118,
                "tempo": 120.0
            },
            {
                "start_time": 6.427272727272727,
                "end_time": 6.543181818181818,
                "pitch": 48,
                "velocity": 64,
                "duration": 0.11590909090909118,
                "tempo": 120.0
            },
            {
                "start_time": 6.677272727272727,
                "end_time": 6.793181818181818,
                "pitch": 50,
                "velocity": 64,
                "duration": 0.11590909090909118,
                "tempo": 120.0
            },
            {
                "start_time": 6.927272727272727,
                "end_time": 7.045454545454545,
                "pitch": 51,
                "velocity": 64,
                "duration": 0.11818181818181817,
                "tempo": 120.0
            },
            {
                "start_time": 7.179545454545454,
                "end_time": 7.227272727272727,
                "pitch": 48,
                "velocity": 64,
                "duration": 0.04772727272727284,
                "tempo": 120.0
            },
            {
                "start_time": 7.295454545454545,
                "end_time": 7.411363636363636,
                "pitch": 55,
                "velocity": 64,
                "duration": 0.11590909090909118,
                "tempo": 120.0
            },
            {
                "start_time": 7.545454545454545,
                "end_time": 7.727272727272727,
                "pitch": 48,
                "velocity": 64,
                "duration": 0.18181818181818166,
                "tempo": 120.0
            },
            {
                "start_time": 7.929545454545454,
                "end_time": 7.9795454545454545,
                "pitch": 39,
                "velocity": 64,
                "duration": 0.05000000000000071,
                "tempo": 120.0
            },
            {
                "start_time": 8.045454545454545,
                "end_time": 8.111363636363636,
                "pitch": 51,
                "velocity": 64,
                "duration": 0.06590909090909136,
                "tempo": 120.0
            },
            {
                "start_time": 8.179545454545455,
                "end_time": 8.297727272727272,
                "pitch": 50,
                "velocity": 64,
                "duration": 0.11818181818181728,
                "tempo": 120.0
            },
            {
                "start_time": 8.429545454545455,
                "end_time": 8.545454545454545,
                "pitch": 48,
                "velocity": 64,
                "duration": 0.1159090909090903,
                "tempo": 120.0
            },
            {
                "start_time": 8.679545454545455,
                "end_time": 8.797727272727272,
                "pitch": 50,
                "velocity": 64,
                "duration": 0.11818181818181728,
                "tempo": 120.0
            },
            {
                "start_time": 8.931818181818182,
                "end_time": 9.047727272727272,
                "pitch": 51,
                "velocity": 64,
                "duration": 0.1159090909090903,
                "tempo": 120.0
            },
            {
                "start_time": 9.181818181818182,
                "end_time": 9.23181818181818,
                "pitch": 50,
                "velocity": 64,
                "duration": 0.049999999999998934,
                "tempo": 120.0
            },
            {
                "start_time": 9.297727272727272,
                "end_time": 9.413636363636364,
                "pitch": 48,
                "velocity": 64,
                "duration": 0.11590909090909207,
                "tempo": 120.0
            },
            {
                "start_time": 9.547727272727272,
                "end_time": 9.73181818181818,
                "pitch": 50,
                "velocity": 64,
                "duration": 0.18409090909090864,
                "tempo": 120.0
            },
            {
                "start_time": 9.931818181818182,
                "end_time": 9.98181818181818,
                "pitch": 39,
                "velocity": 64,
                "duration": 0.049999999999998934,
                "tempo": 120.0
            },
            {
                "start_time": 10.052272727272726,
                "end_time": 10.118181818181817,
                "pitch": 51,
                "velocity": 64,
                "duration": 0.06590909090909136,
                "tempo": 120.0
            },
            {
                "start_time": 10.188636363636363,
                "end_time": 10.309090909090909,
                "pitch": 50,
                "velocity": 64,
                "duration": 0.12045454545454604,
                "tempo": 120.0
            },
            {
                "start_time": 10.445454545454545,
                "end_time": 10.559090909090909,
                "pitch": 48,
                "velocity": 64,
                "duration": 0.11363636363636331,
                "tempo": 120.0
            },
            {
                "start_time": 10.69090909090909,
                "end_time": 10.806818181818182,
                "pitch": 50,
                "velocity": 64,
                "duration": 0.11590909090909207,
                "tempo": 120.0
            },
            {
                "start_time": 10.938636363636363,
                "end_time": 11.056818181818182,
                "pitch": 51,
                "velocity": 64,
                "duration": 0.11818181818181905,
                "tempo": 120.0
            },
            {
                "start_time": 11.195454545454545,
                "end_time": 11.245454545454544,
                "pitch": 48,
                "velocity": 64,
                "duration": 0.049999999999998934,
                "tempo": 120.0
            },
            {
                "start_time": 11.313636363636363,
                "end_time": 11.434090909090909,
                "pitch": 55,
                "velocity": 64,
                "duration": 0.12045454545454604,
                "tempo": 120.0
            },
            {
                "start_time": 11.568181818181818,
                "end_time": 11.75,
                "pitch": 48,
                "velocity": 64,
                "duration": 0.18181818181818166,
                "tempo": 120.0
            },
            {
                "start_time": 11.952272727272726,
                "end_time": 12.0,
                "pitch": 39,
                "velocity": 64,
                "duration": 0.04772727272727373,
                "tempo": 120.0
            },
            {
                "start_time": 12.068181818181818,
                "end_time": 12.134090909090908,
                "pitch": 51,
                "velocity": 64,
                "duration": 0.06590909090908958,
                "tempo": 120.0
            },
            {
                "start_time": 12.202272727272726,
                "end_time": 12.318181818181818,
                "pitch": 50,
                "velocity": 64,
                "duration": 0.11590909090909207,
                "tempo": 120.0
            },
            {
                "start_time": 12.452272727272726,
                "end_time": 12.568181818181818,
                "pitch": 48,
                "velocity": 64,
                "duration": 0.11590909090909207,
                "tempo": 120.0
            },
            {
                "start_time": 12.702272727272726,
                "end_time": 12.820454545454545,
                "pitch": 50,
                "velocity": 64,
                "duration": 0.11818181818181905,
                "tempo": 120.0
            },
            {
                "start_time": 12.954545454545453,
                "end_time": 13.070454545454545,
                "pitch": 51,
                "velocity": 64,
                "duration": 0.11590909090909207,
                "tempo": 120.0
            },
            {
                "start_time": 13.204545454545453,
                "end_time": 13.254545454545454,
                "pitch": 50,
                "velocity": 64,
                "duration": 0.05000000000000071,
                "tempo": 120.0
            },
            {
                "start_time": 13.320454545454545,
                "end_time": 13.436363636363636,
                "pitch": 48,
                "velocity": 64,
                "duration": 0.1159090909090903,
                "tempo": 120.0
            },
            {
                "start_time": 13.570454545454545,
                "end_time": 13.752272727272727,
                "pitch": 50,
                "velocity": 64,
                "duration": 0.18181818181818166,
                "tempo": 120.0
            },
            {
                "start_time": 13.954545454545453,
                "end_time": 14.004545454545454,
                "pitch": 39,
                "velocity": 64,
                "duration": 0.05000000000000071,
                "tempo": 120.0
            },
            {
                "start_time": 14.070454545454545,
                "end_time": 14.136363636363635,
                "pitch": 51,
                "velocity": 64,
                "duration": 0.06590909090908958,
                "tempo": 120.0
            },
            {
                "start_time": 14.204545454545453,
                "end_time": 14.320454545454545,
                "pitch": 50,
                "velocity": 64,
                "duration": 0.11590909090909207,
                "tempo": 120.0
            },
            {
                "start_time": 14.454545454545453,
                "end_time": 14.570454545454545,
                "pitch": 48,
                "velocity": 64,
                "duration": 0.11590909090909207,
                "tempo": 120.0
            },
            {
                "start_time": 14.704545454545453,
                "end_time": 14.822727272727272,
                "pitch": 50,
                "velocity": 64,
                "duration": 0.11818181818181905,
                "tempo": 120.0
            },
            {
                "start_time": 14.95681818181818,
                "end_time": 15.072727272727272,
                "pitch": 51,
                "velocity": 64,
                "duration": 0.11590909090909207,
                "tempo": 120.0
            },
            {
                "start_time": 15.20681818181818,
                "end_time": 15.256818181818181,
                "pitch": 48,
                "velocity": 64,
                "duration": 0.05000000000000071,
                "tempo": 120.0
            },
            {
                "start_time": 15.322727272727272,
                "end_time": 15.438636363636363,
                "pitch": 55,
                "velocity": 64,
                "duration": 0.1159090909090903,
                "tempo": 120.0
            },
            {
                "start_time": 15.577272727272726,
                "end_time": 15.763636363636364,
                "pitch": 48,
                "velocity": 64,
                "duration": 0.1863636363636374,
                "tempo": 120.0
            },
            {
                "start_time": 15.970454545454544,
                "end_time": 16.18181818181818,
                "pitch": 48,
                "velocity": 80,
                "duration": 0.21136363636363598,
                "tempo": 120.0
            },
            {
                "start_time": 16.21590909090909,
                "end_time": 16.313636363636363,
                "pitch": 48,
                "velocity": 51,
                "duration": 0.09772727272727266,
                "tempo": 120.0
            },
            {
                "start_time": 16.331818181818182,
                "end_time": 16.49772727272727,
                "pitch": 48,
                "velocity": 51,
                "duration": 0.16590909090908923,
                "tempo": 120.0
            },
            {
                "start_time": 16.525,
                "end_time": 16.613636363636363,
                "pitch": 48,
                "velocity": 32,
                "duration": 0.08863636363636473,
                "tempo": 120.0
            },
            {
                "start_time": 16.627272727272725,
                "end_time": 16.79090909090909,
                "pitch": 48,
                "velocity": 32,
                "duration": 0.16363636363636402,
                "tempo": 120.0
            },
            {
                "start_time": 16.818181818181817,
                "end_time": 16.893181818181816,
                "pitch": 48,
                "velocity": 20,
                "duration": 0.07499999999999929,
                "tempo": 120.0
            },
            {
                "start_time": 16.909090909090907,
                "end_time": 17.068181818181817,
                "pitch": 48,
                "velocity": 20,
                "duration": 0.15909090909091006,
                "tempo": 120.0
            },
            {
                "start_time": 17.09318181818182,
                "end_time": 17.179545454545455,
                "pitch": 48,
                "velocity": 13,
                "duration": 0.08636363636363598,
                "tempo": 120.0
            },
            {
                "start_time": 17.193181818181817,
                "end_time": 17.35681818181818,
                "pitch": 48,
                "velocity": 13,
                "duration": 0.16363636363636402,
                "tempo": 120.0
            },
            {
                "start_time": 17.384090909090908,
                "end_time": 17.459090909090907,
                "pitch": 48,
                "velocity": 8,
                "duration": 0.07499999999999929,
                "tempo": 120.0
            },
            {
                "start_time": 17.472727272727273,
                "end_time": 17.631818181818183,
                "pitch": 48,
                "velocity": 8,
                "duration": 0.15909090909091006,
                "tempo": 120.0
            },
            {
                "start_time": 17.659090909090907,
                "end_time": 17.743181818181817,
                "pitch": 48,
                "velocity": 5,
                "duration": 0.08409090909091077,
                "tempo": 120.0
            },
            {
                "start_time": 17.756818181818183,
                "end_time": 17.922727272727272,
                "pitch": 48,
                "velocity": 5,
                "duration": 0.16590909090908923,
                "tempo": 120.0
            }
        ],
        "Synth Bass 1": [
            {
                "start_time": 0.006818181818181818,
                "end_time": 0.04090909090909091,
                "pitch": 36,
                "velocity": 80,
                "duration": 0.03409090909090909,
                "tempo": 120.0
            },
            {
                "start_time": 0.09545454545454544,
                "end_time": 0.1477272727272727,
                "pitch": 48,
                "velocity": 80,
                "duration": 0.05227272727272726,
                "tempo": 120.0
            },
            {
                "start_time": 0.20227272727272727,
                "end_time": 0.2954545454545454,
                "pitch": 46,
                "velocity": 80,
                "duration": 0.09318181818181814,
                "tempo": 120.0
            },
            {
                "start_time": 0.4022727272727272,
                "end_time": 0.5181818181818182,
                "pitch": 48,
                "velocity": 80,
                "duration": 0.11590909090909096,
                "tempo": 120.0
            },
            {
                "start_time": 0.6522727272727272,
                "end_time": 0.7704545454545454,
                "pitch": 43,
                "velocity": 80,
                "duration": 0.11818181818181817,
                "tempo": 120.0
            },
            {
                "start_time": 0.9045454545454545,
                "end_time": 0.9522727272727273,
                "pitch": 46,
                "velocity": 80,
                "duration": 0.04772727272727273,
                "tempo": 120.0
            },
            {
                "start_time": 1.0204545454545455,
                "end_time": 1.0863636363636364,
                "pitch": 45,
                "velocity": 80,
                "duration": 0.06590909090909092,
                "tempo": 120.0
            },
            {
                "start_time": 1.1545454545454545,
                "end_time": 1.2045454545454546,
                "pitch": 46,
                "velocity": 80,
                "duration": 0.050000000000000044,
                "tempo": 120.0
            },
            {
                "start_time": 1.2704545454545455,
                "end_time": 1.3863636363636362,
                "pitch": 48,
                "velocity": 80,
                "duration": 0.11590909090909074,
                "tempo": 120.0
            },
            {
                "start_time": 1.6545454545454545,
                "end_time": 1.7045454545454544,
                "pitch": 39,
                "velocity": 80,
                "duration": 0.04999999999999982,
                "tempo": 120.0
            },
            {
                "start_time": 1.7704545454545453,
                "end_time": 1.8363636363636362,
                "pitch": 38,
                "velocity": 80,
                "duration": 0.06590909090909092,
                "tempo": 120.0
            },
            {
                "start_time": 1.9045454545454545,
                "end_time": 1.9545454545454544,
                "pitch": 36,
                "velocity": 80,
                "duration": 0.04999999999999982,
                "tempo": 120.0
            },
            {
                "start_time": 2.025,
                "end_time": 2.090909090909091,
                "pitch": 48,
                "velocity": 80,
                "duration": 0.06590909090909092,
                "tempo": 120.0
            },
            {
                "start_time": 2.161363636363636,
                "end_time": 2.2818181818181817,
                "pitch": 46,
                "velocity": 80,
                "duration": 0.12045454545454559,
                "tempo": 120.0
            },
            {
                "start_time": 2.418181818181818,
                "end_time": 2.5318181818181817,
                "pitch": 48,
                "velocity": 80,
                "duration": 0.11363636363636376,
                "tempo": 120.0
            },
            {
                "start_time": 2.6636363636363636,
                "end_time": 2.7795454545454543,
                "pitch": 43,
                "velocity": 80,
                "duration": 0.11590909090909074,
                "tempo": 120.0
            },
            {
                "start_time": 2.911363636363636,
                "end_time": 2.9613636363636364,
                "pitch": 41,
                "velocity": 80,
                "duration": 0.050000000000000266,
                "tempo": 120.0
            },
            {
                "start_time": 3.0295454545454543,
                "end_time": 3.0977272727272727,
                "pitch": 43,
                "velocity": 80,
                "duration": 0.06818181818181834,
                "tempo": 120.0
            },
            {
                "start_time": 3.168181818181818,
                "end_time": 3.218181818181818,
                "pitch": 44,
                "velocity": 80,
                "duration": 0.04999999999999982,
                "tempo": 120.0
            },
            {
                "start_time": 3.286363636363636,
                "end_time": 3.4045454545454543,
                "pitch": 46,
                "velocity": 80,
                "duration": 0.11818181818181817,
                "tempo": 120.0
            },
            {
                "start_time": 3.675,
                "end_time": 3.7227272727272727,
                "pitch": 39,
                "velocity": 80,
                "duration": 0.04772727272727284,
                "tempo": 120.0
            },
            {
                "start_time": 3.7909090909090906,
                "end_time": 3.8568181818181815,
                "pitch": 38,
                "velocity": 80,
                "duration": 0.06590909090909092,
                "tempo": 120.0
            },
            {
                "start_time": 3.925,
                "end_time": 3.9727272727272727,
                "pitch": 36,
                "velocity": 80,
                "duration": 0.04772727272727284,
                "tempo": 120.0
            },
            {
                "start_time": 4.043181818181818,
                "end_time": 4.1068181818181815,
                "pitch": 48,
                "velocity": 80,
                "duration": 0.06363636363636349,
                "tempo": 120.0
            },
            {
                "start_time": 4.175,
                "end_time": 4.290909090909091,
                "pitch": 46,
                "velocity": 80,
                "duration": 0.11590909090909118,
                "tempo": 120.0
            },
            {
                "start_time": 4.425,
                "end_time": 4.540909090909091,
                "pitch": 48,
                "velocity": 80,
                "duration": 0.11590909090909118,
                "tempo": 120.0
            },
            {
                "start_time": 4.675,
                "end_time": 4.790909090909091,
                "pitch": 43,
                "velocity": 80,
                "duration": 0.11590909090909118,
                "tempo": 120.0
            },
            {
                "start_time": 4.927272727272727,
                "end_time": 4.975,
                "pitch": 46,
                "velocity": 80,
                "duration": 0.04772727272727284,
                "tempo": 120.0
            },
            {
                "start_time": 5.043181818181818,
                "end_time": 5.1090909090909085,
                "pitch": 45,
                "velocity": 80,
                "duration": 0.06590909090909047,
                "tempo": 120.0
            },
            {
                "start_time": 5.177272727272727,
                "end_time": 5.225,
                "pitch": 46,
                "velocity": 80,
                "duration": 0.04772727272727284,
                "tempo": 120.0
            },
            {
                "start_time": 5.293181818181818,
                "end_time": 5.409090909090909,
                "pitch": 48,
                "velocity": 80,
                "duration": 0.11590909090909118,
                "tempo": 120.0
            },
            {
                "start_time": 5.677272727272727,
                "end_time": 5.725,
                "pitch": 39,
                "velocity": 80,
                "duration": 0.04772727272727284,
                "tempo": 120.0
            },
            {
                "start_time": 5.793181818181818,
                "end_time": 5.8590909090909085,
                "pitch": 38,
                "velocity": 80,
                "duration": 0.06590909090909047,
                "tempo": 120.0
            },
            {
                "start_time": 5.927272727272727,
                "end_time": 5.977272727272727,
                "pitch": 36,
                "velocity": 80,
                "duration": 0.04999999999999982,
                "tempo": 120.0
            },
            {
                "start_time": 6.045454545454545,
                "end_time": 6.1090909090909085,
                "pitch": 48,
                "velocity": 80,
                "duration": 0.06363636363636349,
                "tempo": 120.0
            },
            {
                "start_time": 6.177272727272727,
                "end_time": 6.295454545454545,
                "pitch": 46,
                "velocity": 80,
                "duration": 0.11818181818181817,
                "tempo": 120.0
            },
            {
                "start_time": 6.427272727272727,
                "end_time": 6.543181818181818,
                "pitch": 48,
                "velocity": 80,
                "duration": 0.11590909090909118,
                "tempo": 120.0
            },
            {
                "start_time": 6.677272727272727,
                "end_time": 6.795454545454545,
                "pitch": 43,
                "velocity": 80,
                "duration": 0.11818181818181817,
                "tempo": 120.0
            },
            {
                "start_time": 6.929545454545454,
                "end_time": 6.977272727272727,
                "pitch": 41,
                "velocity": 80,
                "duration": 0.04772727272727284,
                "tempo": 120.0
            },
            {
                "start_time": 7.045454545454545,
                "end_time": 7.111363636363636,
                "pitch": 43,
                "velocity": 80,
                "duration": 0.06590909090909136,
                "tempo": 120.0
            },
            {
                "start_time": 7.179545454545454,
                "end_time": 7.2295454545454545,
                "pitch": 44,
                "velocity": 80,
                "duration": 0.05000000000000071,
                "tempo": 120.0
            },
            {
                "start_time": 7.295454545454545,
                "end_time": 7.411363636363636,
                "pitch": 46,
                "velocity": 80,
                "duration": 0.11590909090909118,
                "tempo": 120.0
            },
            {
                "start_time": 7.679545454545454,
                "end_time": 7.7295454545454545,
                "pitch": 39,
                "velocity": 80,
                "duration": 0.05000000000000071,
                "tempo": 120.0
            },
            {
                "start_time": 7.795454545454545,
                "end_time": 7.861363636363636,
                "pitch": 38,
                "velocity": 80,
                "duration": 0.06590909090909136,
                "tempo": 120.0
            },
            {
                "start_time": 7.931818181818182,
                "end_time": 7.9795454545454545,
                "pitch": 36,
                "velocity": 80,
                "duration": 0.04772727272727284,
                "tempo": 120.0
            },
            {
                "start_time": 8.047727272727272,
                "end_time": 8.113636363636363,
                "pitch": 48,
                "velocity": 80,
                "duration": 0.06590909090909136,
                "tempo": 120.0
            },
            {
                "start_time": 8.181818181818182,
                "end_time": 8.297727272727272,
                "pitch": 46,
                "velocity": 80,
                "duration": 0.1159090909090903,
                "tempo": 120.0
            },
            {
                "start_time": 8.431818181818182,
                "end_time": 8.547727272727272,
                "pitch": 48,
                "velocity": 80,
                "duration": 0.1159090909090903,
                "tempo": 120.0
            },
            {
                "start_time": 8.681818181818182,
                "end_time": 8.797727272727272,
                "pitch": 43,
                "velocity": 80,
                "duration": 0.1159090909090903,
                "tempo": 120.0
            },
            {
                "start_time": 8.931818181818182,
                "end_time": 8.979545454545454,
                "pitch": 46,
                "velocity": 80,
                "duration": 0.04772727272727195,
                "tempo": 120.0
            },
            {
                "start_time": 9.047727272727272,
                "end_time": 9.113636363636363,
                "pitch": 45,
                "velocity": 80,
                "duration": 0.06590909090909136,
                "tempo": 120.0
            },
            {
                "start_time": 9.181818181818182,
                "end_time": 9.23181818181818,
                "pitch": 46,
                "velocity": 80,
                "duration": 0.049999999999998934,
                "tempo": 120.0
            },
            {
                "start_time": 9.297727272727272,
                "end_time": 9.413636363636364,
                "pitch": 48,
                "velocity": 80,
                "duration": 0.11590909090909207,
                "tempo": 120.0
            },
            {
                "start_time": 9.681818181818182,
                "end_time": 9.73181818181818,
                "pitch": 39,
                "velocity": 80,
                "duration": 0.049999999999998934,
                "tempo": 120.0
            },
            {
                "start_time": 9.799999999999999,
                "end_time": 9.863636363636363,
                "pitch": 38,
                "velocity": 80,
                "duration": 0.06363636363636438,
                "tempo": 120.0
            },
            {
                "start_time": 9.934090909090909,
                "end_time": 9.98181818181818,
                "pitch": 36,
                "velocity": 80,
                "duration": 0.04772727272727195,
                "tempo": 120.0
            },
            {
                "start_time": 10.052272727272726,
                "end_time": 10.120454545454544,
                "pitch": 48,
                "velocity": 80,
                "duration": 0.06818181818181834,
                "tempo": 120.0
            },
            {
                "start_time": 10.188636363636363,
                "end_time": 10.309090909090909,
                "pitch": 46,
                "velocity": 80,
                "duration": 0.12045454545454604,
                "tempo": 120.0
            },
            {
                "start_time": 10.445454545454545,
                "end_time": 10.561363636363636,
                "pitch": 48,
                "velocity": 80,
                "duration": 0.1159090909090903,
                "tempo": 120.0
            },
            {
                "start_time": 10.693181818181818,
                "end_time": 10.806818181818182,
                "pitch": 43,
                "velocity": 80,
                "duration": 0.11363636363636331,
                "tempo": 120.0
            },
            {
                "start_time": 10.94090909090909,
                "end_time": 10.988636363636363,
                "pitch": 41,
                "velocity": 80,
                "duration": 0.04772727272727373,
                "tempo": 120.0
            },
            {
                "start_time": 11.059090909090909,
                "end_time": 11.125,
                "pitch": 43,
                "velocity": 80,
                "duration": 0.06590909090909136,
                "tempo": 120.0
            },
            {
                "start_time": 11.195454545454545,
                "end_time": 11.245454545454544,
                "pitch": 44,
                "velocity": 80,
                "duration": 0.049999999999998934,
                "tempo": 120.0
            },
            {
                "start_time": 11.31590909090909,
                "end_time": 11.434090909090909,
                "pitch": 46,
                "velocity": 80,
                "duration": 0.11818181818181905,
                "tempo": 120.0
            },
            {
                "start_time": 11.702272727272726,
                "end_time": 11.75,
                "pitch": 39,
                "velocity": 80,
                "duration": 0.04772727272727373,
                "tempo": 120.0
            },
            {
                "start_time": 11.818181818181818,
                "end_time": 11.884090909090908,
                "pitch": 38,
                "velocity": 80,
                "duration": 0.06590909090908958,
                "tempo": 120.0
            },
            {
                "start_time": 11.952272727272726,
                "end_time": 12.002272727272727,
                "pitch": 36,
                "velocity": 80,
                "duration": 0.05000000000000071,
                "tempo": 120.0
            },
            {
                "start_time": 12.070454545454545,
                "end_time": 12.134090909090908,
                "pitch": 48,
                "velocity": 80,
                "duration": 0.0636363636363626,
                "tempo": 120.0
            },
            {
                "start_time": 12.202272727272726,
                "end_time": 12.320454545454545,
                "pitch": 46,
                "velocity": 80,
                "duration": 0.11818181818181905,
                "tempo": 120.0
            },
            {
                "start_time": 12.452272727272726,
                "end_time": 12.570454545454545,
                "pitch": 48,
                "velocity": 80,
                "duration": 0.11818181818181905,
                "tempo": 120.0
            },
            {
                "start_time": 12.704545454545453,
                "end_time": 12.820454545454545,
                "pitch": 43,
                "velocity": 80,
                "duration": 0.11590909090909207,
                "tempo": 120.0
            },
            {
                "start_time": 12.954545454545453,
                "end_time": 13.002272727272727,
                "pitch": 46,
                "velocity": 80,
                "duration": 0.04772727272727373,
                "tempo": 120.0
            },
            {
                "start_time": 13.070454545454545,
                "end_time": 13.136363636363635,
                "pitch": 45,
                "velocity": 80,
                "duration": 0.06590909090908958,
                "tempo": 120.0
            },
            {
                "start_time": 13.204545454545453,
                "end_time": 13.254545454545454,
                "pitch": 46,
                "velocity": 80,
                "duration": 0.05000000000000071,
                "tempo": 120.0
            },
            {
                "start_time": 13.322727272727272,
                "end_time": 13.436363636363636,
                "pitch": 48,
                "velocity": 80,
                "duration": 0.11363636363636331,
                "tempo": 120.0
            },
            {
                "start_time": 13.704545454545453,
                "end_time": 13.754545454545454,
                "pitch": 39,
                "velocity": 80,
                "duration": 0.05000000000000071,
                "tempo": 120.0
            },
            {
                "start_time": 13.820454545454545,
                "end_time": 13.886363636363635,
                "pitch": 38,
                "velocity": 80,
                "duration": 0.06590909090908958,
                "tempo": 120.0
            },
            {
                "start_time": 13.956818181818182,
                "end_time": 14.504545454545454,
                "pitch": 36,
                "velocity": 80,
                "duration": 0.547727272727272,
                "tempo": 120.0
            },
            {
                "start_time": 14.70681818181818,
                "end_time": 14.754545454545454,
                "pitch": 43,
                "velocity": 80,
                "duration": 0.04772727272727373,
                "tempo": 120.0
            },
            {
                "start_time": 14.825,
                "end_time": 14.888636363636364,
                "pitch": 41,
                "velocity": 80,
                "duration": 0.06363636363636438,
                "tempo": 120.0
            },
            {
                "start_time": 14.959090909090909,
                "end_time": 15.004545454545454,
                "pitch": 43,
                "velocity": 80,
                "duration": 0.04545454545454497,
                "tempo": 120.0
            },
            {
                "start_time": 15.072727272727272,
                "end_time": 15.138636363636364,
                "pitch": 46,
                "velocity": 80,
                "duration": 0.06590909090909136,
                "tempo": 120.0
            },
            {
                "start_time": 15.20681818181818,
                "end_time": 15.256818181818181,
                "pitch": 48,
                "velocity": 80,
                "duration": 0.05000000000000071,
                "tempo": 120.0
            },
            {
                "start_time": 15.322727272727272,
                "end_time": 15.388636363636364,
                "pitch": 51,
                "velocity": 80,
                "duration": 0.06590909090909136,
                "tempo": 120.0
            },
            {
                "start_time": 15.45681818181818,
                "end_time": 15.506818181818181,
                "pitch": 48,
                "velocity": 80,
                "duration": 0.05000000000000071,
                "tempo": 120.0
            },
            {
                "start_time": 15.577272727272726,
                "end_time": 15.643181818181818,
                "pitch": 46,
                "velocity": 80,
                "duration": 0.06590909090909136,
                "tempo": 120.0
            },
            {
                "start_time": 15.713636363636363,
                "end_time": 15.763636363636364,
                "pitch": 43,
                "velocity": 80,
                "duration": 0.05000000000000071,
                "tempo": 120.0
            },
            {
                "start_time": 15.834090909090909,
                "end_time": 15.902272727272727,
                "pitch": 36,
                "velocity": 80,
                "duration": 0.06818181818181834,
                "tempo": 120.0
            },
            {
                "start_time": 15.970454545454544,
                "end_time": 16.18409090909091,
                "pitch": 39,
                "velocity": 80,
                "duration": 0.21363636363636473,
                "tempo": 120.0
            },
            {
                "start_time": 16.21818181818182,
                "end_time": 16.313636363636363,
                "pitch": 39,
                "velocity": 51,
                "duration": 0.0954545454545439,
                "tempo": 120.0
            },
            {
                "start_time": 16.334090909090907,
                "end_time": 16.49772727272727,
                "pitch": 39,
                "velocity": 51,
                "duration": 0.16363636363636402,
                "tempo": 120.0
            },
            {
                "start_time": 16.527272727272727,
                "end_time": 16.613636363636363,
                "pitch": 39,
                "velocity": 32,
                "duration": 0.08636363636363598,
                "tempo": 120.0
            },
            {
                "start_time": 16.629545454545454,
                "end_time": 16.793181818181818,
                "pitch": 39,
                "velocity": 32,
                "duration": 0.16363636363636402,
                "tempo": 120.0
            },
            {
                "start_time": 16.820454545454545,
                "end_time": 16.893181818181816,
                "pitch": 39,
                "velocity": 20,
                "duration": 0.07272727272727053,
                "tempo": 120.0
            },
            {
                "start_time": 16.909090909090907,
                "end_time": 17.068181818181817,
                "pitch": 39,
                "velocity": 20,
                "duration": 0.15909090909091006,
                "tempo": 120.0
            },
            {
                "start_time": 17.095454545454544,
                "end_time": 17.179545454545455,
                "pitch": 39,
                "velocity": 13,
                "duration": 0.08409090909091077,
                "tempo": 120.0
            },
            {
                "start_time": 17.195454545454545,
                "end_time": 17.35681818181818,
                "pitch": 39,
                "velocity": 13,
                "duration": 0.16136363636363527,
                "tempo": 120.0
            },
            {
                "start_time": 17.384090909090908,
                "end_time": 17.459090909090907,
                "pitch": 39,
                "velocity": 8,
                "duration": 0.07499999999999929,
                "tempo": 120.0
            },
            {
                "start_time": 17.474999999999998,
                "end_time": 17.631818181818183,
                "pitch": 39,
                "velocity": 8,
                "duration": 0.15681818181818485,
                "tempo": 120.0
            },
            {
                "start_time": 17.659090909090907,
                "end_time": 17.743181818181817,
                "pitch": 39,
                "velocity": 5,
                "duration": 0.08409090909091077,
                "tempo": 120.0
            },
            {
                "start_time": 17.759090909090908,
                "end_time": 17.922727272727272,
                "pitch": 39,
                "velocity": 5,
                "duration": 0.16363636363636402,
                "tempo": 120.0
            }
        ],
        "Acoustic Guitar (nylon)": [
            {
                "start_time": 0.0022727272727272726,
                "end_time": 0.013636363636363636,
                "pitch": 72,
                "velocity": 80,
                "duration": 0.011363636363636364,
                "tempo": 120.0
            },
            {
                "start_time": 0.09545454545454544,
                "end_time": 0.12045454545454545,
                "pitch": 72,
                "velocity": 80,
                "duration": 0.02500000000000001,
                "tempo": 120.0
            },
            {
                "start_time": 0.20227272727272727,
                "end_time": 0.21363636363636362,
                "pitch": 70,
                "velocity": 80,
                "duration": 0.011363636363636354,
                "tempo": 120.0
            },
            {
                "start_time": 0.2954545454545454,
                "end_time": 0.32045454545454544,
                "pitch": 72,
                "velocity": 80,
                "duration": 0.025000000000000022,
                "tempo": 120.0
            },
            {
                "start_time": 0.9022727272727272,
                "end_time": 0.9181818181818181,
                "pitch": 67,
                "velocity": 80,
                "duration": 0.015909090909090873,
                "tempo": 120.0
            },
            {
                "start_time": 1.0204545454545455,
                "end_time": 1.0522727272727272,
                "pitch": 67,
                "velocity": 80,
                "duration": 0.031818181818181746,
                "tempo": 120.0
            },
            {
                "start_time": 1.1522727272727271,
                "end_time": 1.1681818181818182,
                "pitch": 65,
                "velocity": 80,
                "duration": 0.015909090909091095,
                "tempo": 120.0
            },
            {
                "start_time": 1.2704545454545455,
                "end_time": 1.3022727272727272,
                "pitch": 67,
                "velocity": 80,
                "duration": 0.031818181818181746,
                "tempo": 120.0
            },
            {
                "start_time": 1.9045454545454545,
                "end_time": 1.9204545454545454,
                "pitch": 63,
                "velocity": 80,
                "duration": 0.015909090909090873,
                "tempo": 120.0
            },
            {
                "start_time": 2.0227272727272725,
                "end_time": 2.0568181818181817,
                "pitch": 63,
                "velocity": 80,
                "duration": 0.03409090909090917,
                "tempo": 120.0
            },
            {
                "start_time": 2.161363636363636,
                "end_time": 2.1772727272727272,
                "pitch": 62,
                "velocity": 80,
                "duration": 0.015909090909091095,
                "tempo": 120.0
            },
            {
                "start_time": 2.2795454545454543,
                "end_time": 2.3136363636363635,
                "pitch": 63,
                "velocity": 80,
                "duration": 0.03409090909090917,
                "tempo": 120.0
            },
            {
                "start_time": 2.909090909090909,
                "end_time": 2.925,
                "pitch": 60,
                "velocity": 80,
                "duration": 0.01590909090909065,
                "tempo": 120.0
            },
            {
                "start_time": 3.0295454545454543,
                "end_time": 3.0636363636363635,
                "pitch": 60,
                "velocity": 80,
                "duration": 0.03409090909090917,
                "tempo": 120.0
            },
            {
                "start_time": 3.1659090909090906,
                "end_time": 3.1818181818181817,
                "pitch": 58,
                "velocity": 80,
                "duration": 0.015909090909091095,
                "tempo": 120.0
            },
            {
                "start_time": 3.286363636363636,
                "end_time": 3.3204545454545453,
                "pitch": 60,
                "velocity": 80,
                "duration": 0.03409090909090917,
                "tempo": 120.0
            },
            {
                "start_time": 3.9227272727272724,
                "end_time": 3.940909090909091,
                "pitch": 72,
                "velocity": 80,
                "duration": 0.01818181818181852,
                "tempo": 120.0
            },
            {
                "start_time": 4.040909090909091,
                "end_time": 4.072727272727272,
                "pitch": 72,
                "velocity": 80,
                "duration": 0.0318181818181813,
                "tempo": 120.0
            },
            {
                "start_time": 4.175,
                "end_time": 4.1909090909090905,
                "pitch": 70,
                "velocity": 80,
                "duration": 0.01590909090909065,
                "tempo": 120.0
            },
            {
                "start_time": 4.290909090909091,
                "end_time": 4.322727272727272,
                "pitch": 72,
                "velocity": 80,
                "duration": 0.0318181818181813,
                "tempo": 120.0
            },
            {
                "start_time": 4.925,
                "end_time": 4.9409090909090905,
                "pitch": 67,
                "velocity": 80,
                "duration": 0.01590909090909065,
                "tempo": 120.0
            },
            {
                "start_time": 5.040909090909091,
                "end_time": 5.075,
                "pitch": 67,
                "velocity": 80,
                "duration": 0.03409090909090917,
                "tempo": 120.0
            },
            {
                "start_time": 5.175,
                "end_time": 5.1909090909090905,
                "pitch": 65,
                "velocity": 80,
                "duration": 0.01590909090909065,
                "tempo": 120.0
            },
            {
                "start_time": 5.293181818181818,
                "end_time": 5.325,
                "pitch": 67,
                "velocity": 80,
                "duration": 0.03181818181818219,
                "tempo": 120.0
            },
            {
                "start_time": 5.927272727272727,
                "end_time": 5.9431818181818175,
                "pitch": 63,
                "velocity": 80,
                "duration": 0.01590909090909065,
                "tempo": 120.0
            },
            {
                "start_time": 6.043181818181818,
                "end_time": 6.074999999999999,
                "pitch": 63,
                "velocity": 80,
                "duration": 0.0318181818181813,
                "tempo": 120.0
            },
            {
                "start_time": 6.177272727272727,
                "end_time": 6.1931818181818175,
                "pitch": 62,
                "velocity": 80,
                "duration": 0.01590909090909065,
                "tempo": 120.0
            },
            {
                "start_time": 6.293181818181818,
                "end_time": 6.327272727272727,
                "pitch": 63,
                "velocity": 80,
                "duration": 0.03409090909090917,
                "tempo": 120.0
            },
            {
                "start_time": 6.927272727272727,
                "end_time": 6.9431818181818175,
                "pitch": 60,
                "velocity": 80,
                "duration": 0.01590909090909065,
                "tempo": 120.0
            },
            {
                "start_time": 7.045454545454545,
                "end_time": 7.077272727272727,
                "pitch": 60,
                "velocity": 80,
                "duration": 0.03181818181818219,
                "tempo": 120.0
            },
            {
                "start_time": 7.177272727272727,
                "end_time": 7.1931818181818175,
                "pitch": 58,
                "velocity": 80,
                "duration": 0.01590909090909065,
                "tempo": 120.0
            },
            {
                "start_time": 7.295454545454545,
                "end_time": 7.327272727272727,
                "pitch": 60,
                "velocity": 80,
                "duration": 0.03181818181818219,
                "tempo": 120.0
            },
            {
                "start_time": 7.929545454545454,
                "end_time": 7.945454545454545,
                "pitch": 72,
                "velocity": 80,
                "duration": 0.01590909090909154,
                "tempo": 120.0
            },
            {
                "start_time": 8.045454545454545,
                "end_time": 8.079545454545455,
                "pitch": 72,
                "velocity": 80,
                "duration": 0.03409090909091006,
                "tempo": 120.0
            },
            {
                "start_time": 8.179545454545455,
                "end_time": 8.195454545454545,
                "pitch": 70,
                "velocity": 80,
                "duration": 0.01590909090909065,
                "tempo": 120.0
            },
            {
                "start_time": 8.295454545454545,
                "end_time": 8.329545454545453,
                "pitch": 72,
                "velocity": 80,
                "duration": 0.034090909090908283,
                "tempo": 120.0
            },
            {
                "start_time": 8.929545454545455,
                "end_time": 8.947727272727272,
                "pitch": 67,
                "velocity": 80,
                "duration": 0.018181818181817633,
                "tempo": 120.0
            },
            {
                "start_time": 9.047727272727272,
                "end_time": 9.079545454545453,
                "pitch": 67,
                "velocity": 80,
                "duration": 0.0318181818181813,
                "tempo": 120.0
            },
            {
                "start_time": 9.181818181818182,
                "end_time": 9.197727272727272,
                "pitch": 65,
                "velocity": 80,
                "duration": 0.01590909090909065,
                "tempo": 120.0
            },
            {
                "start_time": 9.297727272727272,
                "end_time": 9.329545454545453,
                "pitch": 67,
                "velocity": 80,
                "duration": 0.0318181818181813,
                "tempo": 120.0
            },
            {
                "start_time": 9.931818181818182,
                "end_time": 9.947727272727272,
                "pitch": 63,
                "velocity": 80,
                "duration": 0.01590909090909065,
                "tempo": 120.0
            },
            {
                "start_time": 10.052272727272726,
                "end_time": 10.084090909090909,
                "pitch": 63,
                "velocity": 80,
                "duration": 0.03181818181818308,
                "tempo": 120.0
            },
            {
                "start_time": 10.188636363636363,
                "end_time": 10.204545454545453,
                "pitch": 62,
                "velocity": 80,
                "duration": 0.01590909090909065,
                "tempo": 120.0
            },
            {
                "start_time": 10.309090909090909,
                "end_time": 10.34090909090909,
                "pitch": 63,
                "velocity": 80,
                "duration": 0.0318181818181813,
                "tempo": 120.0
            },
            {
                "start_time": 10.938636363636363,
                "end_time": 10.954545454545453,
                "pitch": 60,
                "velocity": 80,
                "duration": 0.01590909090909065,
                "tempo": 120.0
            },
            {
                "start_time": 11.056818181818182,
                "end_time": 11.09090909090909,
                "pitch": 60,
                "velocity": 80,
                "duration": 0.034090909090908283,
                "tempo": 120.0
            },
            {
                "start_time": 11.193181818181818,
                "end_time": 11.211363636363636,
                "pitch": 58,
                "velocity": 80,
                "duration": 0.018181818181817633,
                "tempo": 120.0
            },
            {
                "start_time": 11.313636363636363,
                "end_time": 11.347727272727273,
                "pitch": 60,
                "velocity": 80,
                "duration": 0.03409090909091006,
                "tempo": 120.0
            },
            {
                "start_time": 11.952272727272726,
                "end_time": 11.968181818181817,
                "pitch": 72,
                "velocity": 80,
                "duration": 0.01590909090909065,
                "tempo": 120.0
            },
            {
                "start_time": 12.068181818181818,
                "end_time": 12.102272727272727,
                "pitch": 72,
                "velocity": 80,
                "duration": 0.034090909090908283,
                "tempo": 120.0
            },
            {
                "start_time": 12.202272727272726,
                "end_time": 12.218181818181817,
                "pitch": 70,
                "velocity": 80,
                "duration": 0.01590909090909065,
                "tempo": 120.0
            },
            {
                "start_time": 12.318181818181818,
                "end_time": 12.352272727272727,
                "pitch": 72,
                "velocity": 80,
                "duration": 0.034090909090908283,
                "tempo": 120.0
            },
            {
                "start_time": 12.952272727272726,
                "end_time": 12.968181818181817,
                "pitch": 67,
                "velocity": 80,
                "duration": 0.01590909090909065,
                "tempo": 120.0
            },
            {
                "start_time": 13.070454545454545,
                "end_time": 13.102272727272727,
                "pitch": 67,
                "velocity": 80,
                "duration": 0.0318181818181813,
                "tempo": 120.0
            },
            {
                "start_time": 13.202272727272726,
                "end_time": 13.218181818181817,
                "pitch": 65,
                "velocity": 80,
                "duration": 0.01590909090909065,
                "tempo": 120.0
            },
            {
                "start_time": 13.320454545454545,
                "end_time": 13.352272727272727,
                "pitch": 67,
                "velocity": 80,
                "duration": 0.0318181818181813,
                "tempo": 120.0
            },
            {
                "start_time": 13.954545454545453,
                "end_time": 13.970454545454544,
                "pitch": 63,
                "velocity": 80,
                "duration": 0.01590909090909065,
                "tempo": 120.0
            },
            {
                "start_time": 14.070454545454545,
                "end_time": 14.104545454545454,
                "pitch": 63,
                "velocity": 80,
                "duration": 0.034090909090908283,
                "tempo": 120.0
            },
            {
                "start_time": 14.204545454545453,
                "end_time": 14.220454545454544,
                "pitch": 62,
                "velocity": 80,
                "duration": 0.01590909090909065,
                "tempo": 120.0
            },
            {
                "start_time": 14.320454545454545,
                "end_time": 14.354545454545454,
                "pitch": 63,
                "velocity": 80,
                "duration": 0.034090909090908283,
                "tempo": 120.0
            },
            {
                "start_time": 14.95681818181818,
                "end_time": 14.972727272727273,
                "pitch": 60,
                "velocity": 80,
                "duration": 0.015909090909092427,
                "tempo": 120.0
            },
            {
                "start_time": 15.072727272727272,
                "end_time": 15.104545454545454,
                "pitch": 60,
                "velocity": 80,
                "duration": 0.0318181818181813,
                "tempo": 120.0
            },
            {
                "start_time": 15.20681818181818,
                "end_time": 15.222727272727273,
                "pitch": 58,
                "velocity": 80,
                "duration": 0.015909090909092427,
                "tempo": 120.0
            },
            {
                "start_time": 15.322727272727272,
                "end_time": 15.354545454545454,
                "pitch": 60,
                "velocity": 80,
                "duration": 0.0318181818181813,
                "tempo": 120.0
            }
        ]
    }
}