{
    "track_id": "02 User Disk Creation",
    "mood": "happy",
    "instruments": {
        "French Horn": [
            {
                "start_time": 0.5954545454545455,
                "end_time": 0.6909090909090909,
                "pitch": 60,
                "velocity": 64,
                "duration": 0.09545454545454546,
                "tempo": 120.0
            },
            {
                "start_time": 0.6909090909090909,
                "end_time": 0.7886363636363636,
                "pitch": 62,
                "velocity": 64,
                "duration": 0.09772727272727266,
                "tempo": 120.0
            },
            {
                "start_time": 0.7886363636363636,
                "end_time": 1.593181818181818,
                "pitch": 64,
                "velocity": 64,
                "duration": 0.8045454545454545,
                "tempo": 120.0
            },
            {
                "start_time": 0.7886363636363636,
                "end_time": 2.0136363636363637,
                "pitch": 62,
                "velocity": 64,
                "duration": 1.225,
                "tempo": 120.0
            },
            {
                "start_time": 1.593181818181818,
                "end_time": 2.0136363636363637,
                "pitch": 62,
                "velocity": 64,
                "duration": 0.42045454545454564,
                "tempo": 120.0
            },
            {
                "start_time": 2.0136363636363637,
                "end_time": 2.3954545454545455,
                "pitch": 65,
                "velocity": 64,
                "duration": 0.38181818181818183,
                "tempo": 120.0
            },
            {
                "start_time": 2.3954545454545455,
                "end_time": 2.818181818181818,
                "pitch": 70,
                "velocity": 64,
                "duration": 0.4227272727272724,
                "tempo": 120.0
            },
            {
                "start_time": 2.818181818181818,
                "end_time": 3.2113636363636364,
                "pitch": 74,
                "velocity": 64,
                "duration": 0.3931818181818185,
                "tempo": 120.0
            },
            {
                "start_time": 3.2113636363636364,
                "end_time": 3.311363636363636,
                "pitch": 70,
                "velocity": 64,
                "duration": 0.09999999999999964,
                "tempo": 120.0
            },
            {
                "start_time": 3.311363636363636,
                "end_time": 3.4136363636363636,
                "pitch": 70,
                "velocity": 64,
                "duration": 0.10227272727272751,
                "tempo": 120.0
            },
            {
                "start_time": 3.4159090909090906,
                "end_time": 3.811363636363636,
                "pitch": 69,
                "velocity": 64,
                "duration": 0.3954545454545455,
                "tempo": 120.0
            },
            {
                "start_time": 2.0136363636363637,
                "end_time": 3.9090909090909087,
                "pitch": 62,
                "velocity": 64,
                "duration": 1.895454545454545,
                "tempo": 120.0
            },
            {
                "start_time": 3.8136363636363635,
                "end_time": 3.9090909090909087,
                "pitch": 62,
                "velocity": 64,
                "duration": 0.09545454545454524,
                "tempo": 120.0
            },
            {
                "start_time": 0.6909090909090909,
                "end_time": 4.004545454545454,
                "pitch": 60,
                "velocity": 64,
                "duration": 3.313636363636363,
                "tempo": 120.0
            },
            {
                "start_time": 3.9090909090909087,
                "end_time": 4.004545454545454,
                "pitch": 60,
                "velocity": 64,
                "duration": 0.09545454545454524,
                "tempo": 120.0
            },
            {
                "start_time": 3.9090909090909087,
                "end_time": 4.413636363636363,
                "pitch": 62,
                "velocity": 64,
                "duration": 0.5045454545454544,
                "tempo": 120.0
            },
            {
                "start_time": 4.004545454545454,
                "end_time": 4.413636363636363,
                "pitch": 62,
                "velocity": 64,
                "duration": 0.40909090909090917,
                "tempo": 120.0
            },
            {
                "start_time": 4.413636363636363,
                "end_time": 4.818181818181818,
                "pitch": 65,
                "velocity": 64,
                "duration": 0.4045454545454552,
                "tempo": 120.0
            },
            {
                "start_time": 4.004545454545454,
                "end_time": 5.420454545454545,
                "pitch": 60,
                "velocity": 64,
                "duration": 1.415909090909091,
                "tempo": 120.0
            },
            {
                "start_time": 4.820454545454545,
                "end_time": 5.420454545454545,
                "pitch": 60,
                "velocity": 64,
                "duration": 0.5999999999999996,
                "tempo": 120.0
            },
            {
                "start_time": 5.420454545454545,
                "end_time": 5.515909090909091,
                "pitch": 60,
                "velocity": 64,
                "duration": 0.09545454545454568,
                "tempo": 120.0
            },
            {
                "start_time": 4.413636363636363,
                "end_time": 5.611363636363636,
                "pitch": 62,
                "velocity": 64,
                "duration": 1.1977272727272732,
                "tempo": 120.0
            },
            {
                "start_time": 5.515909090909091,
                "end_time": 5.611363636363636,
                "pitch": 62,
                "velocity": 64,
                "duration": 0.09545454545454568,
                "tempo": 120.0
            },
            {
                "start_time": 1.593181818181818,
                "end_time": 5.8159090909090905,
                "pitch": 64,
                "velocity": 64,
                "duration": 4.222727272727273,
                "tempo": 120.0
            },
            {
                "start_time": 5.611363636363636,
                "end_time": 5.8159090909090905,
                "pitch": 64,
                "velocity": 64,
                "duration": 0.20454545454545414,
                "tempo": 120.0
            },
            {
                "start_time": 5.8159090909090905,
                "end_time": 5.920454545454545,
                "pitch": 64,
                "velocity": 64,
                "duration": 0.1045454545454545,
                "tempo": 120.0
            },
            {
                "start_time": 5.920454545454545,
                "end_time": 6.0227272727272725,
                "pitch": 64,
                "velocity": 64,
                "duration": 0.10227272727272751,
                "tempo": 120.0
            },
            {
                "start_time": 2.3954545454545455,
                "end_time": 6.0227272727272725,
                "pitch": 78,
                "velocity": 64,
                "duration": 3.627272727272727,
                "tempo": 120.0
            },
            {
                "start_time": 6.0227272727272725,
                "end_time": 6.436363636363636,
                "pitch": 67,
                "velocity": 64,
                "duration": 0.41363636363636314,
                "tempo": 120.0
            },
            {
                "start_time": 5.515909090909091,
                "end_time": 7.129545454545454,
                "pitch": 60,
                "velocity": 64,
                "duration": 1.6136363636363633,
                "tempo": 120.0
            },
            {
                "start_time": 5.611363636363636,
                "end_time": 7.227272727272727,
                "pitch": 62,
                "velocity": 64,
                "duration": 1.6159090909090903,
                "tempo": 120.0
            },
            {
                "start_time": 7.129545454545454,
                "end_time": 7.227272727272727,
                "pitch": 62,
                "velocity": 64,
                "duration": 0.09772727272727266,
                "tempo": 120.0
            },
            {
                "start_time": 7.227272727272727,
                "end_time": 8.034090909090908,
                "pitch": 64,
                "velocity": 64,
                "duration": 0.8068181818181817,
                "tempo": 120.0
            },
            {
                "start_time": 7.227272727272727,
                "end_time": 8.445454545454545,
                "pitch": 62,
                "velocity": 64,
                "duration": 1.2181818181818187,
                "tempo": 120.0
            },
            {
                "start_time": 8.034090909090908,
                "end_time": 8.445454545454545,
                "pitch": 62,
                "velocity": 64,
                "duration": 0.41136363636363704,
                "tempo": 120.0
            },
            {
                "start_time": 4.820454545454545,
                "end_time": 8.836363636363636,
                "pitch": 65,
                "velocity": 64,
                "duration": 4.015909090909091,
                "tempo": 120.0
            },
            {
                "start_time": 8.445454545454545,
                "end_time": 8.836363636363636,
                "pitch": 65,
                "velocity": 64,
                "duration": 0.39090909090909065,
                "tempo": 120.0
            },
            {
                "start_time": 6.0227272727272725,
                "end_time": 8.836363636363636,
                "pitch": 78,
                "velocity": 64,
                "duration": 2.8136363636363635,
                "tempo": 120.0
            },
            {
                "start_time": 2.818181818181818,
                "end_time": 9.259090909090908,
                "pitch": 50,
                "velocity": 64,
                "duration": 6.44090909090909,
                "tempo": 120.0
            },
            {
                "start_time": 8.836363636363636,
                "end_time": 9.259090909090908,
                "pitch": 70,
                "velocity": 64,
                "duration": 0.42272727272727195,
                "tempo": 120.0
            },
            {
                "start_time": 9.259090909090908,
                "end_time": 9.643181818181818,
                "pitch": 72,
                "velocity": 64,
                "duration": 0.3840909090909097,
                "tempo": 120.0
            },
            {
                "start_time": 9.643181818181818,
                "end_time": 9.74090909090909,
                "pitch": 70,
                "velocity": 64,
                "duration": 0.09772727272727266,
                "tempo": 120.0
            },
            {
                "start_time": 9.743181818181817,
                "end_time": 9.845454545454546,
                "pitch": 70,
                "velocity": 64,
                "duration": 0.1022727272727284,
                "tempo": 120.0
            },
            {
                "start_time": 3.8136363636363635,
                "end_time": 10.247727272727273,
                "pitch": 38,
                "velocity": 64,
                "duration": 6.4340909090909095,
                "tempo": 120.0
            },
            {
                "start_time": 9.845454545454546,
                "end_time": 10.247727272727273,
                "pitch": 69,
                "velocity": 64,
                "duration": 0.40227272727272734,
                "tempo": 120.0
            },
            {
                "start_time": 8.445454545454545,
                "end_time": 10.345454545454546,
                "pitch": 62,
                "velocity": 64,
                "duration": 1.9000000000000004,
                "tempo": 120.0
            },
            {
                "start_time": 10.247727272727273,
                "end_time": 10.345454545454546,
                "pitch": 62,
                "velocity": 64,
                "duration": 0.09772727272727266,
                "tempo": 120.0
            },
            {
                "start_time": 7.129545454545454,
                "end_time": 10.445454545454545,
                "pitch": 60,
                "velocity": 64,
                "duration": 3.3159090909090914,
                "tempo": 120.0
            },
            {
                "start_time": 10.345454545454546,
                "end_time": 10.445454545454545,
                "pitch": 60,
                "velocity": 64,
                "duration": 0.09999999999999964,
                "tempo": 120.0
            },
            {
                "start_time": 10.345454545454546,
                "end_time": 10.854545454545454,
                "pitch": 62,
                "velocity": 64,
                "duration": 0.5090909090909079,
                "tempo": 120.0
            },
            {
                "start_time": 10.445454545454545,
                "end_time": 10.854545454545454,
                "pitch": 62,
                "velocity": 64,
                "duration": 0.4090909090909083,
                "tempo": 120.0
            },
            {
                "start_time": 10.854545454545454,
                "end_time": 11.261363636363637,
                "pitch": 65,
                "velocity": 64,
                "duration": 0.4068181818181831,
                "tempo": 120.0
            },
            {
                "start_time": 10.445454545454545,
                "end_time": 11.861363636363636,
                "pitch": 60,
                "velocity": 64,
                "duration": 1.415909090909091,
                "tempo": 120.0
            },
            {
                "start_time": 11.261363636363637,
                "end_time": 11.861363636363636,
                "pitch": 60,
                "velocity": 64,
                "duration": 0.5999999999999996,
                "tempo": 120.0
            },
            {
                "start_time": 11.861363636363636,
                "end_time": 11.956818181818182,
                "pitch": 60,
                "velocity": 64,
                "duration": 0.09545454545454568,
                "tempo": 120.0
            },
            {
                "start_time": 10.854545454545454,
                "end_time": 12.052272727272726,
                "pitch": 62,
                "velocity": 64,
                "duration": 1.1977272727272723,
                "tempo": 120.0
            },
            {
                "start_time": 11.956818181818182,
                "end_time": 12.052272727272726,
                "pitch": 62,
                "velocity": 64,
                "duration": 0.0954545454545439,
                "tempo": 120.0
            },
            {
                "start_time": 8.034090909090908,
                "end_time": 12.256818181818181,
                "pitch": 64,
                "velocity": 64,
                "duration": 4.222727272727273,
                "tempo": 120.0
            },
            {
                "start_time": 12.052272727272726,
                "end_time": 12.256818181818181,
                "pitch": 64,
                "velocity": 64,
                "duration": 0.20454545454545503,
                "tempo": 120.0
            },
            {
                "start_time": 8.836363636363636,
                "end_time": 12.256818181818181,
                "pitch": 78,
                "velocity": 64,
                "duration": 3.420454545454545,
                "tempo": 120.0
            },
            {
                "start_time": 12.256818181818181,
                "end_time": 12.35909090909091,
                "pitch": 67,
                "velocity": 64,
                "duration": 0.1022727272727284,
                "tempo": 120.0
            },
            {
                "start_time": 12.361363636363636,
                "end_time": 12.463636363636363,
                "pitch": 67,
                "velocity": 64,
                "duration": 0.10227272727272663,
                "tempo": 120.0
            },
            {
                "start_time": 12.463636363636363,
                "end_time": 12.877272727272727,
                "pitch": 69,
                "velocity": 64,
                "duration": 0.413636363636364,
                "tempo": 120.0
            },
            {
                "start_time": 12.052272727272726,
                "end_time": 71.54772727272727,
                "pitch": 62,
                "velocity": 64,
                "duration": 59.49545454545455,
                "tempo": 120.0
            },
            {
                "start_time": 71.34772727272727,
                "end_time": 71.54772727272727,
                "pitch": 62,
                "velocity": 40,
                "duration": 0.20000000000000284,
                "tempo": 120.0
            },
            {
                "start_time": 72.15454545454546,
                "end_time": 72.36136363636363,
                "pitch": 64,
                "velocity": 40,
                "duration": 0.20681818181817846,
                "tempo": 120.0
            },
            {
                "start_time": 72.56363636363636,
                "end_time": 72.76363636363637,
                "pitch": 64,
                "velocity": 40,
                "duration": 0.20000000000000284,
                "tempo": 120.0
            },
            {
                "start_time": 11.261363636363637,
                "end_time": 72.97045454545454,
                "pitch": 65,
                "velocity": 64,
                "duration": 61.709090909090904,
                "tempo": 120.0
            },
            {
                "start_time": 72.76590909090909,
                "end_time": 72.97045454545454,
                "pitch": 65,
                "velocity": 40,
                "duration": 0.20454545454545325,
                "tempo": 120.0
            },
            {
                "start_time": 72.97045454545454,
                "end_time": 73.175,
                "pitch": 64,
                "velocity": 40,
                "duration": 0.20454545454545325,
                "tempo": 120.0
            },
            {
                "start_time": 12.256818181818181,
                "end_time": 73.175,
                "pitch": 78,
                "velocity": 64,
                "duration": 60.918181818181814,
                "tempo": 120.0
            },
            {
                "start_time": 73.175,
                "end_time": 73.36590909090908,
                "pitch": 67,
                "velocity": 40,
                "duration": 0.1909090909090878,
                "tempo": 120.0
            },
            {
                "start_time": 73.75681818181818,
                "end_time": 73.9590909090909,
                "pitch": 55,
                "velocity": 40,
                "duration": 0.20227272727272805,
                "tempo": 120.0
            },
            {
                "start_time": 72.15454545454546,
                "end_time": 75.37727272727273,
                "pitch": 62,
                "velocity": 40,
                "duration": 3.222727272727269,
                "tempo": 120.0
            },
            {
                "start_time": 75.37727272727273,
                "end_time": 75.57727272727273,
                "pitch": 64,
                "velocity": 40,
                "duration": 0.20000000000000284,
                "tempo": 120.0
            },
            {
                "start_time": 75.7840909090909,
                "end_time": 75.98863636363636,
                "pitch": 64,
                "velocity": 40,
                "duration": 0.20454545454545325,
                "tempo": 120.0
            },
            {
                "start_time": 75.98863636363636,
                "end_time": 76.18409090909091,
                "pitch": 65,
                "velocity": 40,
                "duration": 0.19545454545455243,
                "tempo": 120.0
            },
            {
                "start_time": 76.18636363636364,
                "end_time": 76.37954545454545,
                "pitch": 64,
                "velocity": 40,
                "duration": 0.19318181818181301,
                "tempo": 120.0
            },
            {
                "start_time": 73.175,
                "end_time": 76.38181818181818,
                "pitch": 78,
                "velocity": 40,
                "duration": 3.2068181818181785,
                "tempo": 120.0
            },
            {
                "start_time": 76.38181818181818,
                "end_time": 76.58181818181818,
                "pitch": 67,
                "velocity": 40,
                "duration": 0.20000000000000284,
                "tempo": 120.0
            },
            {
                "start_time": 75.37727272727273,
                "end_time": 78.59318181818182,
                "pitch": 62,
                "velocity": 40,
                "duration": 3.2159090909090935,
                "tempo": 120.0
            },
            {
                "start_time": 78.59318181818182,
                "end_time": 78.79545454545455,
                "pitch": 64,
                "velocity": 40,
                "duration": 0.20227272727272805,
                "tempo": 120.0
            },
            {
                "start_time": 79.00227272727273,
                "end_time": 79.20681818181818,
                "pitch": 64,
                "velocity": 40,
                "duration": 0.20454545454545325,
                "tempo": 120.0
            },
            {
                "start_time": 79.20681818181818,
                "end_time": 79.4090909090909,
                "pitch": 65,
                "velocity": 40,
                "duration": 0.20227272727272805,
                "tempo": 120.0
            },
            {
                "start_time": 79.4090909090909,
                "end_time": 79.60909090909091,
                "pitch": 64,
                "velocity": 40,
                "duration": 0.20000000000000284,
                "tempo": 120.0
            },
            {
                "start_time": 76.38181818181818,
                "end_time": 79.60909090909091,
                "pitch": 78,
                "velocity": 40,
                "duration": 3.2272727272727337,
                "tempo": 120.0
            },
            {
                "start_time": 79.60909090909091,
                "end_time": 79.80909090909091,
                "pitch": 67,
                "velocity": 40,
                "duration": 0.20000000000000284,
                "tempo": 120.0
            },
            {
                "start_time": 78.59318181818182,
                "end_time": 81.81818181818181,
                "pitch": 62,
                "velocity": 40,
                "duration": 3.2249999999999943,
                "tempo": 120.0
            },
            {
                "start_time": 81.81818181818181,
                "end_time": 82.01818181818182,
                "pitch": 64,
                "velocity": 40,
                "duration": 0.20000000000000284,
                "tempo": 120.0
            },
            {
                "start_time": 82.225,
                "end_time": 82.42954545454545,
                "pitch": 64,
                "velocity": 40,
                "duration": 0.20454545454545325,
                "tempo": 120.0
            },
            {
                "start_time": 82.43181818181817,
                "end_time": 82.63181818181818,
                "pitch": 65,
                "velocity": 40,
                "duration": 0.20000000000000284,
                "tempo": 120.0
            },
            {
                "start_time": 82.63181818181818,
                "end_time": 82.83181818181818,
                "pitch": 64,
                "velocity": 40,
                "duration": 0.20000000000000284,
                "tempo": 120.0
            },
            {
                "start_time": 79.60909090909091,
                "end_time": 82.83181818181818,
                "pitch": 78,
                "velocity": 40,
                "duration": 3.222727272727269,
                "tempo": 120.0
            },
            {
                "start_time": 82.83181818181818,
                "end_time": 83.02727272727272,
                "pitch": 67,
                "velocity": 40,
                "duration": 0.19545454545453822,
                "tempo": 120.0
            },
            {
                "start_time": 83.825,
                "end_time": 87.04318181818181,
                "pitch": 67,
                "velocity": 40,
                "duration": 3.2181818181818045,
                "tempo": 120.0
            },
            {
                "start_time": 87.04318181818181,
                "end_time": 89.86590909090908,
                "pitch": 79,
                "velocity": 40,
                "duration": 2.8227272727272776,
                "tempo": 120.0
            },
            {
                "start_time": 89.86590909090908,
                "end_time": 90.06590909090909,
                "pitch": 79,
                "velocity": 40,
                "duration": 0.20000000000000284,
                "tempo": 120.0
            },
            {
                "start_time": 11.956818181818182,
                "end_time": 90.77954545454546,
                "pitch": 60,
                "velocity": 64,
                "duration": 78.82272727272728,
                "tempo": 120.0
            },
            {
                "start_time": 81.81818181818181,
                "end_time": 90.87727272727273,
                "pitch": 62,
                "velocity": 40,
                "duration": 9.059090909090912,
                "tempo": 120.0
            },
            {
                "start_time": 90.77954545454546,
                "end_time": 90.87727272727273,
                "pitch": 62,
                "velocity": 64,
                "duration": 0.09772727272726911,
                "tempo": 120.0
            },
            {
                "start_time": 90.87727272727273,
                "end_time": 91.28863636363636,
                "pitch": 64,
                "velocity": 64,
                "duration": 0.4113636363636317,
                "tempo": 120.0
            }
        ],
        "Acoustic Bass": [
            {
                "start_time": 12.875,
                "end_time": 13.063636363636363,
                "pitch": 36,
                "velocity": 51,
                "duration": 0.1886363636363626,
                "tempo": 120.0
            },
            {
                "start_time": 13.06590909090909,
                "end_time": 13.256818181818181,
                "pitch": 36,
                "velocity": 51,
                "duration": 0.19090909090909136,
                "tempo": 120.0
            },
            {
                "start_time": 13.256818181818181,
                "end_time": 13.306818181818182,
                "pitch": 39,
                "velocity": 51,
                "duration": 0.05000000000000071,
                "tempo": 120.0
            },
            {
                "start_time": 13.306818181818182,
                "end_time": 13.456818181818182,
                "pitch": 39,
                "velocity": 51,
                "duration": 0.15000000000000036,
                "tempo": 120.0
            },
            {
                "start_time": 13.256818181818181,
                "end_time": 13.659090909090908,
                "pitch": 36,
                "velocity": 51,
                "duration": 0.40227272727272734,
                "tempo": 120.0
            },
            {
                "start_time": 13.456818181818182,
                "end_time": 13.659090909090908,
                "pitch": 36,
                "velocity": 51,
                "duration": 0.20227272727272627,
                "tempo": 120.0
            },
            {
                "start_time": 13.659090909090908,
                "end_time": 13.863636363636363,
                "pitch": 43,
                "velocity": 51,
                "duration": 0.20454545454545503,
                "tempo": 120.0
            },
            {
                "start_time": 13.86590909090909,
                "end_time": 14.070454545454545,
                "pitch": 43,
                "velocity": 51,
                "duration": 0.20454545454545503,
                "tempo": 120.0
            },
            {
                "start_time": 13.456818181818182,
                "end_time": 14.26590909090909,
                "pitch": 40,
                "velocity": 51,
                "duration": 0.8090909090909086,
                "tempo": 120.0
            },
            {
                "start_time": 14.070454545454545,
                "end_time": 14.26590909090909,
                "pitch": 40,
                "velocity": 51,
                "duration": 0.19545454545454533,
                "tempo": 120.0
            },
            {
                "start_time": 14.26590909090909,
                "end_time": 14.268181818181818,
                "pitch": 54,
                "velocity": 51,
                "duration": 0.002272727272726982,
                "tempo": 120.0
            },
            {
                "start_time": 14.070454545454545,
                "end_time": 14.463636363636363,
                "pitch": 0,
                "velocity": 51,
                "duration": 0.39318181818181763,
                "tempo": 120.0
            },
            {
                "start_time": 14.268181818181818,
                "end_time": 14.463636363636363,
                "pitch": 43,
                "velocity": 51,
                "duration": 0.19545454545454533,
                "tempo": 120.0
            },
            {
                "start_time": 14.463636363636363,
                "end_time": 14.668181818181818,
                "pitch": 36,
                "velocity": 51,
                "duration": 0.20454545454545503,
                "tempo": 120.0
            },
            {
                "start_time": 14.668181818181818,
                "end_time": 14.875,
                "pitch": 36,
                "velocity": 51,
                "duration": 0.206818181818182,
                "tempo": 120.0
            },
            {
                "start_time": 14.875,
                "end_time": 14.924999999999999,
                "pitch": 39,
                "velocity": 51,
                "duration": 0.049999999999998934,
                "tempo": 120.0
            },
            {
                "start_time": 14.924999999999999,
                "end_time": 15.075,
                "pitch": 39,
                "velocity": 51,
                "duration": 0.15000000000000036,
                "tempo": 120.0
            },
            {
                "start_time": 14.875,
                "end_time": 15.277272727272727,
                "pitch": 36,
                "velocity": 51,
                "duration": 0.40227272727272734,
                "tempo": 120.0
            },
            {
                "start_time": 15.077272727272726,
                "end_time": 15.277272727272727,
                "pitch": 36,
                "velocity": 51,
                "duration": 0.20000000000000107,
                "tempo": 120.0
            },
            {
                "start_time": 13.659090909090908,
                "end_time": 15.277272727272727,
                "pitch": 52,
                "velocity": 51,
                "duration": 1.618181818181819,
                "tempo": 120.0
            },
            {
                "start_time": 15.277272727272727,
                "end_time": 15.479545454545454,
                "pitch": 43,
                "velocity": 51,
                "duration": 0.20227272727272627,
                "tempo": 120.0
            },
            {
                "start_time": 14.463636363636363,
                "end_time": 15.681818181818182,
                "pitch": 0,
                "velocity": 51,
                "duration": 1.2181818181818187,
                "tempo": 120.0
            },
            {
                "start_time": 15.479545454545454,
                "end_time": 15.681818181818182,
                "pitch": 43,
                "velocity": 51,
                "duration": 0.20227272727272805,
                "tempo": 120.0
            },
            {
                "start_time": 15.077272727272726,
                "end_time": 15.881818181818181,
                "pitch": 40,
                "velocity": 51,
                "duration": 0.8045454545454547,
                "tempo": 120.0
            },
            {
                "start_time": 15.681818181818182,
                "end_time": 15.881818181818181,
                "pitch": 40,
                "velocity": 51,
                "duration": 0.1999999999999993,
                "tempo": 120.0
            },
            {
                "start_time": 15.681818181818182,
                "end_time": 16.084090909090907,
                "pitch": 0,
                "velocity": 51,
                "duration": 0.40227272727272556,
                "tempo": 120.0
            },
            {
                "start_time": 15.881818181818181,
                "end_time": 16.084090909090907,
                "pitch": 43,
                "velocity": 51,
                "duration": 0.20227272727272627,
                "tempo": 120.0
            },
            {
                "start_time": 16.084090909090907,
                "end_time": 16.286363636363635,
                "pitch": 29,
                "velocity": 51,
                "duration": 0.20227272727272805,
                "tempo": 120.0
            },
            {
                "start_time": 16.286363636363635,
                "end_time": 16.486363636363635,
                "pitch": 29,
                "velocity": 51,
                "duration": 0.1999999999999993,
                "tempo": 120.0
            },
            {
                "start_time": 16.488636363636363,
                "end_time": 16.536363636363635,
                "pitch": 32,
                "velocity": 51,
                "duration": 0.04772727272727195,
                "tempo": 120.0
            },
            {
                "start_time": 16.538636363636364,
                "end_time": 16.688636363636363,
                "pitch": 32,
                "velocity": 51,
                "duration": 0.14999999999999858,
                "tempo": 120.0
            },
            {
                "start_time": 16.888636363636362,
                "end_time": 17.08863636363636,
                "pitch": 36,
                "velocity": 51,
                "duration": 0.1999999999999993,
                "tempo": 120.0
            },
            {
                "start_time": 17.08863636363636,
                "end_time": 17.288636363636364,
                "pitch": 36,
                "velocity": 51,
                "duration": 0.20000000000000284,
                "tempo": 120.0
            },
            {
                "start_time": 17.288636363636364,
                "end_time": 17.49090909090909,
                "pitch": 33,
                "velocity": 51,
                "duration": 0.2022727272727245,
                "tempo": 120.0
            },
            {
                "start_time": 17.49090909090909,
                "end_time": 17.69090909090909,
                "pitch": 36,
                "velocity": 51,
                "duration": 0.20000000000000284,
                "tempo": 120.0
            },
            {
                "start_time": 17.69090909090909,
                "end_time": 17.89090909090909,
                "pitch": 29,
                "velocity": 51,
                "duration": 0.1999999999999993,
                "tempo": 120.0
            },
            {
                "start_time": 17.893181818181816,
                "end_time": 18.09318181818182,
                "pitch": 29,
                "velocity": 51,
                "duration": 0.20000000000000284,
                "tempo": 120.0
            },
            {
                "start_time": 16.488636363636363,
                "end_time": 18.09318181818182,
                "pitch": 42,
                "velocity": 51,
                "duration": 1.6045454545454554,
                "tempo": 120.0
            },
            {
                "start_time": 18.09318181818182,
                "end_time": 18.143181818181816,
                "pitch": 32,
                "velocity": 51,
                "duration": 0.04999999999999716,
                "tempo": 120.0
            },
            {
                "start_time": 18.143181818181816,
                "end_time": 18.293181818181818,
                "pitch": 32,
                "velocity": 51,
                "duration": 0.15000000000000213,
                "tempo": 120.0
            },
            {
                "start_time": 16.888636363636362,
                "end_time": 18.495454545454546,
                "pitch": 41,
                "velocity": 51,
                "duration": 1.6068181818181841,
                "tempo": 120.0
            },
            {
                "start_time": 18.495454545454546,
                "end_time": 18.695454545454545,
                "pitch": 36,
                "velocity": 51,
                "duration": 0.1999999999999993,
                "tempo": 120.0
            },
            {
                "start_time": 18.695454545454545,
                "end_time": 18.895454545454545,
                "pitch": 36,
                "velocity": 51,
                "duration": 0.1999999999999993,
                "tempo": 120.0
            },
            {
                "start_time": 17.288636363636364,
                "end_time": 18.895454545454545,
                "pitch": 40,
                "velocity": 51,
                "duration": 1.6068181818181806,
                "tempo": 120.0
            },
            {
                "start_time": 17.49090909090909,
                "end_time": 19.095454545454544,
                "pitch": 7,
                "velocity": 51,
                "duration": 1.6045454545454554,
                "tempo": 120.0
            },
            {
                "start_time": 18.895454545454545,
                "end_time": 19.095454545454544,
                "pitch": 33,
                "velocity": 51,
                "duration": 0.1999999999999993,
                "tempo": 120.0
            },
            {
                "start_time": 19.095454545454544,
                "end_time": 19.295454545454543,
                "pitch": 36,
                "velocity": 51,
                "duration": 0.1999999999999993,
                "tempo": 120.0
            },
            {
                "start_time": 18.895454545454545,
                "end_time": 19.297727272727272,
                "pitch": 40,
                "velocity": 51,
                "duration": 0.40227272727272734,
                "tempo": 120.0
            },
            {
                "start_time": 19.297727272727272,
                "end_time": 19.49772727272727,
                "pitch": 34,
                "velocity": 51,
                "duration": 0.1999999999999993,
                "tempo": 120.0
            },
            {
                "start_time": 19.49772727272727,
                "end_time": 19.7,
                "pitch": 34,
                "velocity": 51,
                "duration": 0.20227272727272805,
                "tempo": 120.0
            },
            {
                "start_time": 19.7,
                "end_time": 19.75,
                "pitch": 37,
                "velocity": 51,
                "duration": 0.05000000000000071,
                "tempo": 120.0
            },
            {
                "start_time": 19.75,
                "end_time": 19.9,
                "pitch": 37,
                "velocity": 51,
                "duration": 0.14999999999999858,
                "tempo": 120.0
            },
            {
                "start_time": 18.495454545454546,
                "end_time": 19.9,
                "pitch": 41,
                "velocity": 51,
                "duration": 1.4045454545454525,
                "tempo": 120.0
            },
            {
                "start_time": 19.7,
                "end_time": 20.099999999999998,
                "pitch": 14,
                "velocity": 51,
                "duration": 0.3999999999999986,
                "tempo": 120.0
            },
            {
                "start_time": 19.9,
                "end_time": 20.099999999999998,
                "pitch": 34,
                "velocity": 51,
                "duration": 0.1999999999999993,
                "tempo": 120.0
            },
            {
                "start_time": 19.9,
                "end_time": 20.302272727272726,
                "pitch": 41,
                "velocity": 51,
                "duration": 0.40227272727272734,
                "tempo": 120.0
            },
            {
                "start_time": 20.099999999999998,
                "end_time": 20.302272727272726,
                "pitch": 41,
                "velocity": 51,
                "duration": 0.20227272727272805,
                "tempo": 120.0
            },
            {
                "start_time": 20.302272727272726,
                "end_time": 20.504545454545454,
                "pitch": 41,
                "velocity": 51,
                "duration": 0.20227272727272805,
                "tempo": 120.0
            },
            {
                "start_time": 20.504545454545454,
                "end_time": 20.709090909090907,
                "pitch": 38,
                "velocity": 51,
                "duration": 0.20454545454545325,
                "tempo": 120.0
            },
            {
                "start_time": 20.504545454545454,
                "end_time": 20.913636363636364,
                "pitch": 41,
                "velocity": 51,
                "duration": 0.40909090909091006,
                "tempo": 120.0
            },
            {
                "start_time": 20.709090909090907,
                "end_time": 20.913636363636364,
                "pitch": 41,
                "velocity": 51,
                "duration": 0.2045454545454568,
                "tempo": 120.0
            },
            {
                "start_time": 18.09318181818182,
                "end_time": 20.91590909090909,
                "pitch": 42,
                "velocity": 51,
                "duration": 2.8227272727272705,
                "tempo": 120.0
            },
            {
                "start_time": 20.91590909090909,
                "end_time": 21.111363636363635,
                "pitch": 34,
                "velocity": 51,
                "duration": 0.19545454545454533,
                "tempo": 120.0
            },
            {
                "start_time": 20.099999999999998,
                "end_time": 21.30681818181818,
                "pitch": 14,
                "velocity": 51,
                "duration": 1.206818181818182,
                "tempo": 120.0
            },
            {
                "start_time": 21.111363636363635,
                "end_time": 21.30681818181818,
                "pitch": 34,
                "velocity": 51,
                "duration": 0.19545454545454533,
                "tempo": 120.0
            },
            {
                "start_time": 21.30681818181818,
                "end_time": 21.35909090909091,
                "pitch": 37,
                "velocity": 51,
                "duration": 0.05227272727272947,
                "tempo": 120.0
            },
            {
                "start_time": 21.35909090909091,
                "end_time": 21.513636363636362,
                "pitch": 37,
                "velocity": 51,
                "duration": 0.15454545454545254,
                "tempo": 120.0
            },
            {
                "start_time": 21.30681818181818,
                "end_time": 21.71818181818182,
                "pitch": 14,
                "velocity": 51,
                "duration": 0.4113636363636388,
                "tempo": 120.0
            },
            {
                "start_time": 21.513636363636362,
                "end_time": 21.71818181818182,
                "pitch": 34,
                "velocity": 51,
                "duration": 0.2045454545454568,
                "tempo": 120.0
            },
            {
                "start_time": 21.513636363636362,
                "end_time": 21.920454545454543,
                "pitch": 41,
                "velocity": 51,
                "duration": 0.4068181818181813,
                "tempo": 120.0
            },
            {
                "start_time": 21.71818181818182,
                "end_time": 21.920454545454543,
                "pitch": 41,
                "velocity": 51,
                "duration": 0.2022727272727245,
                "tempo": 120.0
            },
            {
                "start_time": 21.920454545454543,
                "end_time": 22.12272727272727,
                "pitch": 41,
                "velocity": 51,
                "duration": 0.20227272727272805,
                "tempo": 120.0
            },
            {
                "start_time": 20.709090909090907,
                "end_time": 22.32272727272727,
                "pitch": 38,
                "velocity": 51,
                "duration": 1.6136363636363633,
                "tempo": 120.0
            },
            {
                "start_time": 22.12272727272727,
                "end_time": 22.32272727272727,
                "pitch": 38,
                "velocity": 51,
                "duration": 0.1999999999999993,
                "tempo": 120.0
            },
            {
                "start_time": 22.12272727272727,
                "end_time": 22.522727272727273,
                "pitch": 41,
                "velocity": 51,
                "duration": 0.40000000000000213,
                "tempo": 120.0
            },
            {
                "start_time": 22.32272727272727,
                "end_time": 22.522727272727273,
                "pitch": 41,
                "velocity": 51,
                "duration": 0.20000000000000284,
                "tempo": 120.0
            },
            {
                "start_time": 22.522727272727273,
                "end_time": 22.724999999999998,
                "pitch": 36,
                "velocity": 51,
                "duration": 0.2022727272727245,
                "tempo": 120.0
            },
            {
                "start_time": 22.724999999999998,
                "end_time": 22.924999999999997,
                "pitch": 36,
                "velocity": 51,
                "duration": 0.1999999999999993,
                "tempo": 120.0
            },
            {
                "start_time": 22.924999999999997,
                "end_time": 22.974999999999998,
                "pitch": 39,
                "velocity": 51,
                "duration": 0.05000000000000071,
                "tempo": 120.0
            },
            {
                "start_time": 22.977272727272727,
                "end_time": 23.125,
                "pitch": 39,
                "velocity": 51,
                "duration": 0.14772727272727337,
                "tempo": 120.0
            },
            {
                "start_time": 19.297727272727272,
                "end_time": 23.127272727272725,
                "pitch": 40,
                "velocity": 51,
                "duration": 3.8295454545454533,
                "tempo": 120.0
            },
            {
                "start_time": 22.924999999999997,
                "end_time": 23.327272727272724,
                "pitch": 36,
                "velocity": 51,
                "duration": 0.40227272727272734,
                "tempo": 120.0
            },
            {
                "start_time": 23.127272727272725,
                "end_time": 23.327272727272724,
                "pitch": 36,
                "velocity": 51,
                "duration": 0.1999999999999993,
                "tempo": 120.0
            },
            {
                "start_time": 15.277272727272727,
                "end_time": 23.327272727272724,
                "pitch": 52,
                "velocity": 51,
                "duration": 8.049999999999997,
                "tempo": 120.0
            },
            {
                "start_time": 23.327272727272724,
                "end_time": 23.527272727272727,
                "pitch": 43,
                "velocity": 51,
                "duration": 0.20000000000000284,
                "tempo": 120.0
            },
            {
                "start_time": 16.084090909090907,
                "end_time": 23.727272727272727,
                "pitch": 0,
                "velocity": 51,
                "duration": 7.643181818181819,
                "tempo": 120.0
            },
            {
                "start_time": 23.527272727272727,
                "end_time": 23.727272727272727,
                "pitch": 43,
                "velocity": 51,
                "duration": 0.1999999999999993,
                "tempo": 120.0
            },
            {
                "start_time": 23.127272727272725,
                "end_time": 23.929545454545455,
                "pitch": 40,
                "velocity": 51,
                "duration": 0.8022727272727295,
                "tempo": 120.0
            },
            {
                "start_time": 23.727272727272727,
                "end_time": 23.929545454545455,
                "pitch": 40,
                "velocity": 51,
                "duration": 0.20227272727272805,
                "tempo": 120.0
            },
            {
                "start_time": 15.881818181818181,
                "end_time": 23.929545454545455,
                "pitch": 54,
                "velocity": 51,
                "duration": 8.047727272727274,
                "tempo": 120.0
            },
            {
                "start_time": 23.727272727272727,
                "end_time": 24.129545454545454,
                "pitch": 0,
                "velocity": 51,
                "duration": 0.40227272727272734,
                "tempo": 120.0
            },
            {
                "start_time": 23.929545454545455,
                "end_time": 24.129545454545454,
                "pitch": 43,
                "velocity": 51,
                "duration": 0.1999999999999993,
                "tempo": 120.0
            },
            {
                "start_time": 24.129545454545454,
                "end_time": 24.329545454545453,
                "pitch": 36,
                "velocity": 51,
                "duration": 0.1999999999999993,
                "tempo": 120.0
            },
            {
                "start_time": 24.329545454545453,
                "end_time": 24.529545454545453,
                "pitch": 36,
                "velocity": 51,
                "duration": 0.1999999999999993,
                "tempo": 120.0
            },
            {
                "start_time": 24.53181818181818,
                "end_time": 24.73181818181818,
                "pitch": 40,
                "velocity": 51,
                "duration": 0.1999999999999993,
                "tempo": 120.0
            },
            {
                "start_time": 24.73181818181818,
                "end_time": 24.93409090909091,
                "pitch": 40,
                "velocity": 51,
                "duration": 0.20227272727272805,
                "tempo": 120.0
            },
            {
                "start_time": 24.93409090909091,
                "end_time": 25.134090909090908,
                "pitch": 40,
                "velocity": 51,
                "duration": 0.1999999999999993,
                "tempo": 120.0
            },
            {
                "start_time": 22.522727272727273,
                "end_time": 25.334090909090907,
                "pitch": 41,
                "velocity": 51,
                "duration": 2.811363636363634,
                "tempo": 120.0
            },
            {
                "start_time": 25.134090909090908,
                "end_time": 25.334090909090907,
                "pitch": 41,
                "velocity": 51,
                "duration": 0.1999999999999993,
                "tempo": 120.0
            },
            {
                "start_time": 25.334090909090907,
                "end_time": 25.534090909090907,
                "pitch": 41,
                "velocity": 51,
                "duration": 0.1999999999999993,
                "tempo": 120.0
            },
            {
                "start_time": 23.929545454545455,
                "end_time": 25.534090909090907,
                "pitch": 54,
                "velocity": 51,
                "duration": 1.6045454545454518,
                "tempo": 120.0
            },
            {
                "start_time": 25.534090909090907,
                "end_time": 25.73409090909091,
                "pitch": 43,
                "velocity": 51,
                "duration": 0.20000000000000284,
                "tempo": 120.0
            },
            {
                "start_time": 24.129545454545454,
                "end_time": 25.736363636363635,
                "pitch": 0,
                "velocity": 51,
                "duration": 1.6068181818181806,
                "tempo": 120.0
            },
            {
                "start_time": 24.53181818181818,
                "end_time": 25.936363636363634,
                "pitch": 36,
                "velocity": 51,
                "duration": 1.4045454545454525,
                "tempo": 120.0
            },
            {
                "start_time": 25.736363636363635,
                "end_time": 25.936363636363634,
                "pitch": 36,
                "velocity": 51,
                "duration": 0.1999999999999993,
                "tempo": 120.0
            },
            {
                "start_time": 25.936363636363634,
                "end_time": 26.138636363636362,
                "pitch": 36,
                "velocity": 51,
                "duration": 0.20227272727272805,
                "tempo": 120.0
            },
            {
                "start_time": 26.138636363636362,
                "end_time": 26.188636363636363,
                "pitch": 39,
                "velocity": 51,
                "duration": 0.05000000000000071,
                "tempo": 120.0
            },
            {
                "start_time": 26.188636363636363,
                "end_time": 26.33863636363636,
                "pitch": 39,
                "velocity": 51,
                "duration": 0.14999999999999858,
                "tempo": 120.0
            },
            {
                "start_time": 26.138636363636362,
                "end_time": 26.538636363636364,
                "pitch": 36,
                "velocity": 51,
                "duration": 0.40000000000000213,
                "tempo": 120.0
            },
            {
                "start_time": 26.33863636363636,
                "end_time": 26.538636363636364,
                "pitch": 36,
                "velocity": 51,
                "duration": 0.20000000000000284,
                "tempo": 120.0
            },
            {
                "start_time": 23.327272727272724,
                "end_time": 26.538636363636364,
                "pitch": 52,
                "velocity": 51,
                "duration": 3.2113636363636395,
                "tempo": 120.0
            },
            {
                "start_time": 26.538636363636364,
                "end_time": 26.74090909090909,
                "pitch": 43,
                "velocity": 51,
                "duration": 0.2022727272727245,
                "tempo": 120.0
            },
            {
                "start_time": 26.74090909090909,
                "end_time": 26.94090909090909,
                "pitch": 43,
                "velocity": 51,
                "duration": 0.20000000000000284,
                "tempo": 120.0
            },
            {
                "start_time": 25.736363636363635,
                "end_time": 26.943181818181817,
                "pitch": 0,
                "velocity": 51,
                "duration": 1.206818181818182,
                "tempo": 120.0
            },
            {
                "start_time": 26.33863636363636,
                "end_time": 27.143181818181816,
                "pitch": 40,
                "velocity": 51,
                "duration": 0.8045454545454547,
                "tempo": 120.0
            },
            {
                "start_time": 26.943181818181817,
                "end_time": 27.143181818181816,
                "pitch": 40,
                "velocity": 51,
                "duration": 0.1999999999999993,
                "tempo": 120.0
            },
            {
                "start_time": 25.534090909090907,
                "end_time": 27.143181818181816,
                "pitch": 54,
                "velocity": 51,
                "duration": 1.6090909090909093,
                "tempo": 120.0
            },
            {
                "start_time": 26.943181818181817,
                "end_time": 27.343181818181815,
                "pitch": 0,
                "velocity": 51,
                "duration": 0.3999999999999986,
                "tempo": 120.0
            },
            {
                "start_time": 27.143181818181816,
                "end_time": 27.343181818181815,
                "pitch": 43,
                "velocity": 51,
                "duration": 0.1999999999999993,
                "tempo": 120.0
            },
            {
                "start_time": 27.343181818181815,
                "end_time": 27.543181818181818,
                "pitch": 36,
                "velocity": 51,
                "duration": 0.20000000000000284,
                "tempo": 120.0
            },
            {
                "start_time": 27.543181818181818,
                "end_time": 27.743181818181817,
                "pitch": 36,
                "velocity": 51,
                "duration": 0.1999999999999993,
                "tempo": 120.0
            },
            {
                "start_time": 27.743181818181817,
                "end_time": 27.793181818181818,
                "pitch": 39,
                "velocity": 51,
                "duration": 0.05000000000000071,
                "tempo": 120.0
            },
            {
                "start_time": 27.793181818181818,
                "end_time": 27.945454545454545,
                "pitch": 39,
                "velocity": 51,
                "duration": 0.15227272727272734,
                "tempo": 120.0
            },
            {
                "start_time": 27.743181818181817,
                "end_time": 28.145454545454545,
                "pitch": 36,
                "velocity": 51,
                "duration": 0.40227272727272734,
                "tempo": 120.0
            },
            {
                "start_time": 27.945454545454545,
                "end_time": 28.145454545454545,
                "pitch": 36,
                "velocity": 51,
                "duration": 0.1999999999999993,
                "tempo": 120.0
            },
            {
                "start_time": 26.538636363636364,
                "end_time": 28.14772727272727,
                "pitch": 52,
                "velocity": 51,
                "duration": 1.6090909090909058,
                "tempo": 120.0
            },
            {
                "start_time": 28.145454545454545,
                "end_time": 28.14772727272727,
                "pitch": 52,
                "velocity": 51,
                "duration": 0.0022727272727252057,
                "tempo": 120.0
            },
            {
                "start_time": 28.14772727272727,
                "end_time": 28.352272727272727,
                "pitch": 43,
                "velocity": 51,
                "duration": 0.2045454545454568,
                "tempo": 120.0
            },
            {
                "start_time": 27.343181818181815,
                "end_time": 28.55681818181818,
                "pitch": 0,
                "velocity": 51,
                "duration": 1.2136363636363647,
                "tempo": 120.0
            },
            {
                "start_time": 28.352272727272727,
                "end_time": 28.55681818181818,
                "pitch": 43,
                "velocity": 51,
                "duration": 0.20454545454545325,
                "tempo": 120.0
            },
            {
                "start_time": 27.945454545454545,
                "end_time": 28.754545454545454,
                "pitch": 40,
                "velocity": 51,
                "duration": 0.8090909090909086,
                "tempo": 120.0
            },
            {
                "start_time": 28.55681818181818,
                "end_time": 28.754545454545454,
                "pitch": 40,
                "velocity": 51,
                "duration": 0.19772727272727408,
                "tempo": 120.0
            },
            {
                "start_time": 27.143181818181816,
                "end_time": 28.754545454545454,
                "pitch": 54,
                "velocity": 51,
                "duration": 1.611363636363638,
                "tempo": 120.0
            },
            {
                "start_time": 28.55681818181818,
                "end_time": 28.95,
                "pitch": 0,
                "velocity": 51,
                "duration": 0.3931818181818194,
                "tempo": 120.0
            },
            {
                "start_time": 28.754545454545454,
                "end_time": 28.95,
                "pitch": 43,
                "velocity": 51,
                "duration": 0.19545454545454533,
                "tempo": 120.0
            },
            {
                "start_time": 28.95,
                "end_time": 29.154545454545453,
                "pitch": 29,
                "velocity": 51,
                "duration": 0.20454545454545325,
                "tempo": 120.0
            },
            {
                "start_time": 29.15681818181818,
                "end_time": 29.361363636363635,
                "pitch": 29,
                "velocity": 51,
                "duration": 0.20454545454545325,
                "tempo": 120.0
            },
            {
                "start_time": 20.91590909090909,
                "end_time": 29.361363636363635,
                "pitch": 42,
                "velocity": 51,
                "duration": 8.445454545454545,
                "tempo": 120.0
            },
            {
                "start_time": 29.361363636363635,
                "end_time": 29.411363636363635,
                "pitch": 32,
                "velocity": 51,
                "duration": 0.05000000000000071,
                "tempo": 120.0
            },
            {
                "start_time": 29.411363636363635,
                "end_time": 29.561363636363634,
                "pitch": 32,
                "velocity": 51,
                "duration": 0.14999999999999858,
                "tempo": 120.0
            },
            {
                "start_time": 29.761363636363637,
                "end_time": 29.961363636363636,
                "pitch": 36,
                "velocity": 51,
                "duration": 0.1999999999999993,
                "tempo": 120.0
            },
            {
                "start_time": 29.96363636363636,
                "end_time": 30.16363636363636,
                "pitch": 36,
                "velocity": 51,
                "duration": 0.1999999999999993,
                "tempo": 120.0
            },
            {
                "start_time": 19.095454545454544,
                "end_time": 30.363636363636363,
                "pitch": 7,
                "velocity": 51,
                "duration": 11.26818181818182,
                "tempo": 120.0
            },
            {
                "start_time": 30.16363636363636,
                "end_time": 30.363636363636363,
                "pitch": 33,
                "velocity": 51,
                "duration": 0.20000000000000284,
                "tempo": 120.0
            },
            {
                "start_time": 17.69090909090909,
                "end_time": 30.565909090909088,
                "pitch": 24,
                "velocity": 51,
                "duration": 12.874999999999996,
                "tempo": 120.0
            },
            {
                "start_time": 30.363636363636363,
                "end_time": 30.565909090909088,
                "pitch": 36,
                "velocity": 51,
                "duration": 0.2022727272727245,
                "tempo": 120.0
            },
            {
                "start_time": 30.565909090909088,
                "end_time": 30.76590909090909,
                "pitch": 29,
                "velocity": 51,
                "duration": 0.20000000000000284,
                "tempo": 120.0
            },
            {
                "start_time": 30.76590909090909,
                "end_time": 30.96590909090909,
                "pitch": 29,
                "velocity": 51,
                "duration": 0.1999999999999993,
                "tempo": 120.0
            },
            {
                "start_time": 29.361363636363635,
                "end_time": 30.96590909090909,
                "pitch": 42,
                "velocity": 51,
                "duration": 1.6045454545454554,
                "tempo": 120.0
            },
            {
                "start_time": 30.96590909090909,
                "end_time": 31.01590909090909,
                "pitch": 32,
                "velocity": 51,
                "duration": 0.05000000000000071,
                "tempo": 120.0
            },
            {
                "start_time": 31.018181818181816,
                "end_time": 31.168181818181818,
                "pitch": 32,
                "velocity": 51,
                "duration": 0.15000000000000213,
                "tempo": 120.0
            },
            {
                "start_time": 29.761363636363637,
                "end_time": 31.370454545454542,
                "pitch": 41,
                "velocity": 51,
                "duration": 1.6090909090909058,
                "tempo": 120.0
            },
            {
                "start_time": 31.370454545454542,
                "end_time": 31.570454545454545,
                "pitch": 36,
                "velocity": 51,
                "duration": 0.20000000000000284,
                "tempo": 120.0
            },
            {
                "start_time": 31.570454545454545,
                "end_time": 31.770454545454545,
                "pitch": 36,
                "velocity": 51,
                "duration": 0.1999999999999993,
                "tempo": 120.0
            },
            {
                "start_time": 30.16363636363636,
                "end_time": 31.770454545454545,
                "pitch": 40,
                "velocity": 51,
                "duration": 1.6068181818181841,
                "tempo": 120.0
            },
            {
                "start_time": 30.363636363636363,
                "end_time": 31.970454545454544,
                "pitch": 7,
                "velocity": 51,
                "duration": 1.6068181818181806,
                "tempo": 120.0
            },
            {
                "start_time": 31.770454545454545,
                "end_time": 31.970454545454544,
                "pitch": 33,
                "velocity": 51,
                "duration": 0.1999999999999993,
                "tempo": 120.0
            },
            {
                "start_time": 31.970454545454544,
                "end_time": 32.17045454545455,
                "pitch": 36,
                "velocity": 51,
                "duration": 0.20000000000000284,
                "tempo": 120.0
            },
            {
                "start_time": 31.770454545454545,
                "end_time": 32.17045454545455,
                "pitch": 40,
                "velocity": 51,
                "duration": 0.40000000000000213,
                "tempo": 120.0
            },
            {
                "start_time": 32.17045454545455,
                "end_time": 32.37045454545454,
                "pitch": 34,
                "velocity": 51,
                "duration": 0.19999999999999574,
                "tempo": 120.0
            },
            {
                "start_time": 32.37045454545454,
                "end_time": 32.570454545454545,
                "pitch": 34,
                "velocity": 51,
                "duration": 0.20000000000000284,
                "tempo": 120.0
            },
            {
                "start_time": 21.71818181818182,
                "end_time": 32.57272727272727,
                "pitch": 14,
                "velocity": 51,
                "duration": 10.854545454545452,
                "tempo": 120.0
            },
            {
                "start_time": 32.57272727272727,
                "end_time": 32.62272727272727,
                "pitch": 37,
                "velocity": 51,
                "duration": 0.04999999999999716,
                "tempo": 120.0
            },
            {
                "start_time": 32.62272727272727,
                "end_time": 32.77272727272727,
                "pitch": 37,
                "velocity": 51,
                "duration": 0.15000000000000568,
                "tempo": 120.0
            },
            {
                "start_time": 31.370454545454542,
                "end_time": 32.77272727272727,
                "pitch": 41,
                "velocity": 51,
                "duration": 1.402272727272731,
                "tempo": 120.0
            },
            {
                "start_time": 32.57272727272727,
                "end_time": 32.975,
                "pitch": 14,
                "velocity": 51,
                "duration": 0.4022727272727309,
                "tempo": 120.0
            },
            {
                "start_time": 32.77272727272727,
                "end_time": 32.975,
                "pitch": 34,
                "velocity": 51,
                "duration": 0.20227272727272805,
                "tempo": 120.0
            },
            {
                "start_time": 32.77272727272727,
                "end_time": 33.175,
                "pitch": 41,
                "velocity": 51,
                "duration": 0.4022727272727238,
                "tempo": 120.0
            },
            {
                "start_time": 32.975,
                "end_time": 33.175,
                "pitch": 41,
                "velocity": 51,
                "duration": 0.19999999999999574,
                "tempo": 120.0
            },
            {
                "start_time": 33.175,
                "end_time": 33.375,
                "pitch": 41,
                "velocity": 51,
                "duration": 0.20000000000000284,
                "tempo": 120.0
            },
            {
                "start_time": 22.32272727272727,
                "end_time": 33.574999999999996,
                "pitch": 38,
                "velocity": 51,
                "duration": 11.252272727272725,
                "tempo": 120.0
            },
            {
                "start_time": 33.375,
                "end_time": 33.574999999999996,
                "pitch": 38,
                "velocity": 51,
                "duration": 0.19999999999999574,
                "tempo": 120.0
            },
            {
                "start_time": 33.375,
                "end_time": 33.775,
                "pitch": 41,
                "velocity": 51,
                "duration": 0.3999999999999986,
                "tempo": 120.0
            },
            {
                "start_time": 33.574999999999996,
                "end_time": 33.775,
                "pitch": 41,
                "velocity": 51,
                "duration": 0.20000000000000284,
                "tempo": 120.0
            },
            {
                "start_time": 30.96590909090909,
                "end_time": 33.775,
                "pitch": 42,
                "velocity": 51,
                "duration": 2.8090909090909086,
                "tempo": 120.0
            },
            {
                "start_time": 33.775,
                "end_time": 33.975,
                "pitch": 34,
                "velocity": 51,
                "duration": 0.20000000000000284,
                "tempo": 120.0
            },
            {
                "start_time": 32.975,
                "end_time": 34.17727272727272,
                "pitch": 14,
                "velocity": 51,
                "duration": 1.202272727272721,
                "tempo": 120.0
            },
            {
                "start_time": 33.97727272727273,
                "end_time": 34.17727272727272,
                "pitch": 34,
                "velocity": 51,
                "duration": 0.19999999999999574,
                "tempo": 120.0
            },
            {
                "start_time": 34.17727272727272,
                "end_time": 34.22727272727273,
                "pitch": 37,
                "velocity": 51,
                "duration": 0.05000000000000426,
                "tempo": 120.0
            },
            {
                "start_time": 34.22727272727273,
                "end_time": 34.377272727272725,
                "pitch": 37,
                "velocity": 51,
                "duration": 0.14999999999999858,
                "tempo": 120.0
            },
            {
                "start_time": 34.17727272727272,
                "end_time": 34.57727272727273,
                "pitch": 14,
                "velocity": 51,
                "duration": 0.4000000000000057,
                "tempo": 120.0
            },
            {
                "start_time": 34.377272727272725,
                "end_time": 34.57727272727273,
                "pitch": 34,
                "velocity": 51,
                "duration": 0.20000000000000284,
                "tempo": 120.0
            },
            {
                "start_time": 34.377272727272725,
                "end_time": 34.777272727272724,
                "pitch": 41,
                "velocity": 51,
                "duration": 0.3999999999999986,
                "tempo": 120.0
            },
            {
                "start_time": 34.57727272727273,
                "end_time": 34.777272727272724,
                "pitch": 41,
                "velocity": 51,
                "duration": 0.19999999999999574,
                "tempo": 120.0
            },
            {
                "start_time": 34.779545454545456,
                "end_time": 34.97954545454545,
                "pitch": 41,
                "velocity": 51,
                "duration": 0.19999999999999574,
                "tempo": 120.0
            },
            {
                "start_time": 33.574999999999996,
                "end_time": 35.18636363636364,
                "pitch": 38,
                "velocity": 51,
                "duration": 1.6113636363636417,
                "tempo": 120.0
            },
            {
                "start_time": 34.97954545454545,
                "end_time": 35.18636363636364,
                "pitch": 38,
                "velocity": 51,
                "duration": 0.20681818181818556,
                "tempo": 120.0
            },
            {
                "start_time": 34.97954545454545,
                "end_time": 35.39090909090909,
                "pitch": 41,
                "velocity": 51,
                "duration": 0.4113636363636388,
                "tempo": 120.0
            },
            {
                "start_time": 35.18636363636364,
                "end_time": 35.39090909090909,
                "pitch": 41,
                "velocity": 51,
                "duration": 0.20454545454545325,
                "tempo": 120.0
            },
            {
                "start_time": 35.39090909090909,
                "end_time": 35.590909090909086,
                "pitch": 36,
                "velocity": 51,
                "duration": 0.19999999999999574,
                "tempo": 120.0
            },
            {
                "start_time": 35.59318181818182,
                "end_time": 35.793181818181814,
                "pitch": 36,
                "velocity": 51,
                "duration": 0.19999999999999574,
                "tempo": 120.0
            },
            {
                "start_time": 35.793181818181814,
                "end_time": 35.840909090909086,
                "pitch": 39,
                "velocity": 51,
                "duration": 0.04772727272727195,
                "tempo": 120.0
            },
            {
                "start_time": 35.840909090909086,
                "end_time": 35.98863636363636,
                "pitch": 39,
                "velocity": 51,
                "duration": 0.14772727272727337,
                "tempo": 120.0
            },
            {
                "start_time": 32.17045454545455,
                "end_time": 35.98863636363636,
                "pitch": 40,
                "velocity": 51,
                "duration": 3.818181818181813,
                "tempo": 120.0
            },
            {
                "start_time": 35.793181818181814,
                "end_time": 36.184090909090905,
                "pitch": 36,
                "velocity": 51,
                "duration": 0.39090909090909065,
                "tempo": 120.0
            },
            {
                "start_time": 35.98863636363636,
                "end_time": 36.184090909090905,
                "pitch": 36,
                "velocity": 51,
                "duration": 0.19545454545454533,
                "tempo": 120.0
            },
            {
                "start_time": 36.184090909090905,
                "end_time": 36.38409090909091,
                "pitch": 43,
                "velocity": 51,
                "duration": 0.20000000000000284,
                "tempo": 120.0
            },
            {
                "start_time": 28.95,
                "end_time": 36.586363636363636,
                "pitch": 0,
                "velocity": 51,
                "duration": 7.636363636363637,
                "tempo": 120.0
            },
            {
                "start_time": 36.38636363636363,
                "end_time": 36.586363636363636,
                "pitch": 43,
                "velocity": 51,
                "duration": 0.20000000000000284,
                "tempo": 120.0
            },
            {
                "start_time": 35.98863636363636,
                "end_time": 36.79090909090909,
                "pitch": 40,
                "velocity": 51,
                "duration": 0.8022727272727295,
                "tempo": 120.0
            },
            {
                "start_time": 36.586363636363636,
                "end_time": 36.79090909090909,
                "pitch": 40,
                "velocity": 51,
                "duration": 0.20454545454545325,
                "tempo": 120.0
            },
            {
                "start_time": 28.754545454545454,
                "end_time": 36.79090909090909,
                "pitch": 54,
                "velocity": 51,
                "duration": 8.036363636363635,
                "tempo": 120.0
            },
            {
                "start_time": 36.79090909090909,
                "end_time": 36.99545454545454,
                "pitch": 43,
                "velocity": 51,
                "duration": 0.20454545454545325,
                "tempo": 120.0
            },
            {
                "start_time": 36.586363636363636,
                "end_time": 36.99772727272727,
                "pitch": 0,
                "velocity": 51,
                "duration": 0.4113636363636317,
                "tempo": 120.0
            },
            {
                "start_time": 36.99772727272727,
                "end_time": 37.19772727272727,
                "pitch": 36,
                "velocity": 51,
                "duration": 0.20000000000000284,
                "tempo": 120.0
            },
            {
                "start_time": 37.19772727272727,
                "end_time": 37.39772727272727,
                "pitch": 36,
                "velocity": 51,
                "duration": 0.20000000000000284,
                "tempo": 120.0
            },
            {
                "start_time": 37.39772727272727,
                "end_time": 37.59772727272727,
                "pitch": 40,
                "velocity": 51,
                "duration": 0.19999999999999574,
                "tempo": 120.0
            },
            {
                "start_time": 37.39772727272727,
                "end_time": 37.79772727272727,
                "pitch": 36,
                "velocity": 51,
                "duration": 0.3999999999999986,
                "tempo": 120.0
            },
            {
                "start_time": 37.59772727272727,
                "end_time": 37.79772727272727,
                "pitch": 36,
                "velocity": 51,
                "duration": 0.20000000000000284,
                "tempo": 120.0
            },
            {
                "start_time": 37.79772727272727,
                "end_time": 37.99772727272727,
                "pitch": 36,
                "velocity": 51,
                "duration": 0.19999999999999574,
                "tempo": 120.0
            },
            {
                "start_time": 37.99772727272727,
                "end_time": 38.19772727272727,
                "pitch": 48,
                "velocity": 51,
                "duration": 0.20000000000000284,
                "tempo": 120.0
            },
            {
                "start_time": 35.18636363636364,
                "end_time": 38.4,
                "pitch": 38,
                "velocity": 51,
                "duration": 3.213636363636361,
                "tempo": 120.0
            },
            {
                "start_time": 38.19772727272727,
                "end_time": 38.4,
                "pitch": 38,
                "velocity": 51,
                "duration": 0.20227272727272805,
                "tempo": 120.0
            },
            {
                "start_time": 38.4,
                "end_time": 38.60227272727273,
                "pitch": 50,
                "velocity": 51,
                "duration": 0.20227272727272805,
                "tempo": 120.0
            },
            {
                "start_time": 38.60227272727273,
                "end_time": 38.80227272727272,
                "pitch": 38,
                "velocity": 51,
                "duration": 0.19999999999999574,
                "tempo": 120.0
            },
            {
                "start_time": 38.80227272727272,
                "end_time": 39.002272727272725,
                "pitch": 39,
                "velocity": 51,
                "duration": 0.20000000000000284,
                "tempo": 120.0
            },
            {
                "start_time": 39.002272727272725,
                "end_time": 39.20227272727273,
                "pitch": 43,
                "velocity": 51,
                "duration": 0.20000000000000284,
                "tempo": 120.0
            },
            {
                "start_time": 34.57727272727273,
                "end_time": 39.402272727272724,
                "pitch": 14,
                "velocity": 51,
                "duration": 4.824999999999996,
                "tempo": 120.0
            },
            {
                "start_time": 39.20227272727273,
                "end_time": 39.402272727272724,
                "pitch": 46,
                "velocity": 51,
                "duration": 0.19999999999999574,
                "tempo": 120.0
            },
            {
                "start_time": 39.402272727272724,
                "end_time": 39.60227272727273,
                "pitch": 39,
                "velocity": 51,
                "duration": 0.20000000000000284,
                "tempo": 120.0
            },
            {
                "start_time": 39.60227272727273,
                "end_time": 39.80227272727272,
                "pitch": 39,
                "velocity": 51,
                "duration": 0.19999999999999574,
                "tempo": 120.0
            },
            {
                "start_time": 39.002272727272725,
                "end_time": 39.804545454545455,
                "pitch": 53,
                "velocity": 51,
                "duration": 0.8022727272727295,
                "tempo": 120.0
            },
            {
                "start_time": 39.20227272727273,
                "end_time": 40.00454545454545,
                "pitch": 43,
                "velocity": 51,
                "duration": 0.8022727272727224,
                "tempo": 120.0
            },
            {
                "start_time": 39.804545454545455,
                "end_time": 40.00454545454545,
                "pitch": 43,
                "velocity": 51,
                "duration": 0.19999999999999574,
                "tempo": 120.0
            },
            {
                "start_time": 39.402272727272724,
                "end_time": 40.20454545454545,
                "pitch": 14,
                "velocity": 51,
                "duration": 0.8022727272727295,
                "tempo": 120.0
            },
            {
                "start_time": 40.00454545454545,
                "end_time": 40.20454545454545,
                "pitch": 46,
                "velocity": 51,
                "duration": 0.20000000000000284,
                "tempo": 120.0
            },
            {
                "start_time": 40.20454545454545,
                "end_time": 40.404545454545456,
                "pitch": 39,
                "velocity": 51,
                "duration": 0.20000000000000284,
                "tempo": 120.0
            },
            {
                "start_time": 40.40681818181818,
                "end_time": 40.60681818181818,
                "pitch": 39,
                "velocity": 51,
                "duration": 0.19999999999999574,
                "tempo": 120.0
            },
            {
                "start_time": 39.804545454545455,
                "end_time": 40.60681818181818,
                "pitch": 53,
                "velocity": 51,
                "duration": 0.8022727272727224,
                "tempo": 120.0
            },
            {
                "start_time": 40.00454545454545,
                "end_time": 40.80681818181818,
                "pitch": 43,
                "velocity": 51,
                "duration": 0.8022727272727295,
                "tempo": 120.0
            },
            {
                "start_time": 40.60681818181818,
                "end_time": 40.80681818181818,
                "pitch": 43,
                "velocity": 51,
                "duration": 0.20000000000000284,
                "tempo": 120.0
            },
            {
                "start_time": 40.80681818181818,
                "end_time": 41.00681818181818,
                "pitch": 46,
                "velocity": 51,
                "duration": 0.20000000000000284,
                "tempo": 120.0
            },
            {
                "start_time": 40.20454545454545,
                "end_time": 41.00909090909091,
                "pitch": 14,
                "velocity": 51,
                "duration": 0.8045454545454547,
                "tempo": 120.0
            },
            {
                "start_time": 41.00909090909091,
                "end_time": 41.20681818181818,
                "pitch": 39,
                "velocity": 51,
                "duration": 0.19772727272727053,
                "tempo": 120.0
            },
            {
                "start_time": 41.209090909090904,
                "end_time": 41.40909090909091,
                "pitch": 39,
                "velocity": 51,
                "duration": 0.20000000000000284,
                "tempo": 120.0
            },
            {
                "start_time": 40.60681818181818,
                "end_time": 41.40909090909091,
                "pitch": 53,
                "velocity": 51,
                "duration": 0.8022727272727295,
                "tempo": 120.0
            },
            {
                "start_time": 40.80681818181818,
                "end_time": 41.60909090909091,
                "pitch": 43,
                "velocity": 51,
                "duration": 0.8022727272727295,
                "tempo": 120.0
            },
            {
                "start_time": 41.40909090909091,
                "end_time": 41.60909090909091,
                "pitch": 43,
                "velocity": 51,
                "duration": 0.20000000000000284,
                "tempo": 120.0
            },
            {
                "start_time": 41.00909090909091,
                "end_time": 41.809090909090905,
                "pitch": 14,
                "velocity": 51,
                "duration": 0.7999999999999972,
                "tempo": 120.0
            },
            {
                "start_time": 41.60909090909091,
                "end_time": 41.809090909090905,
                "pitch": 46,
                "velocity": 51,
                "duration": 0.19999999999999574,
                "tempo": 120.0
            },
            {
                "start_time": 38.19772727272727,
                "end_time": 42.00909090909091,
                "pitch": 36,
                "velocity": 51,
                "duration": 3.8113636363636374,
                "tempo": 120.0
            },
            {
                "start_time": 41.809090909090905,
                "end_time": 42.00909090909091,
                "pitch": 36,
                "velocity": 51,
                "duration": 0.20000000000000284,
                "tempo": 120.0
            },
            {
                "start_time": 42.00909090909091,
                "end_time": 42.209090909090904,
                "pitch": 36,
                "velocity": 51,
                "duration": 0.19999999999999574,
                "tempo": 120.0
            },
            {
                "start_time": 37.59772727272727,
                "end_time": 42.41136363636363,
                "pitch": 40,
                "velocity": 51,
                "duration": 4.813636363636363,
                "tempo": 120.0
            },
            {
                "start_time": 42.209090909090904,
                "end_time": 42.41136363636363,
                "pitch": 40,
                "velocity": 51,
                "duration": 0.20227272727272805,
                "tempo": 120.0
            },
            {
                "start_time": 36.79090909090909,
                "end_time": 42.41136363636363,
                "pitch": 54,
                "velocity": 51,
                "duration": 5.6204545454545425,
                "tempo": 120.0
            },
            {
                "start_time": 41.60909090909091,
                "end_time": 42.611363636363635,
                "pitch": 43,
                "velocity": 51,
                "duration": 1.0022727272727252,
                "tempo": 120.0
            },
            {
                "start_time": 42.41136363636363,
                "end_time": 42.611363636363635,
                "pitch": 43,
                "velocity": 51,
                "duration": 0.20000000000000284,
                "tempo": 120.0
            },
            {
                "start_time": 36.99772727272727,
                "end_time": 42.61363636363636,
                "pitch": 0,
                "velocity": 51,
                "duration": 5.615909090909092,
                "tempo": 120.0
            },
            {
                "start_time": 42.209090909090904,
                "end_time": 42.81363636363636,
                "pitch": 36,
                "velocity": 51,
                "duration": 0.6045454545454589,
                "tempo": 120.0
            },
            {
                "start_time": 42.61363636363636,
                "end_time": 42.81363636363636,
                "pitch": 36,
                "velocity": 51,
                "duration": 0.20000000000000284,
                "tempo": 120.0
            },
            {
                "start_time": 42.81363636363636,
                "end_time": 43.01363636363636,
                "pitch": 36,
                "velocity": 51,
                "duration": 0.19999999999999574,
                "tempo": 120.0
            },
            {
                "start_time": 43.01363636363636,
                "end_time": 43.21363636363636,
                "pitch": 40,
                "velocity": 51,
                "duration": 0.20000000000000284,
                "tempo": 120.0
            },
            {
                "start_time": 42.41136363636363,
                "end_time": 43.21363636363636,
                "pitch": 54,
                "velocity": 51,
                "duration": 0.8022727272727295,
                "tempo": 120.0
            },
            {
                "start_time": 42.61363636363636,
                "end_time": 43.413636363636364,
                "pitch": 0,
                "velocity": 51,
                "duration": 0.8000000000000043,
                "tempo": 120.0
            },
            {
                "start_time": 43.21363636363636,
                "end_time": 43.413636363636364,
                "pitch": 43,
                "velocity": 51,
                "duration": 0.20000000000000284,
                "tempo": 120.0
            },
            {
                "start_time": 43.01363636363636,
                "end_time": 43.61818181818182,
                "pitch": 36,
                "velocity": 51,
                "duration": 0.6045454545454589,
                "tempo": 120.0
            },
            {
                "start_time": 43.413636363636364,
                "end_time": 43.61818181818182,
                "pitch": 36,
                "velocity": 51,
                "duration": 0.20454545454545325,
                "tempo": 120.0
            },
            {
                "start_time": 43.62045454545454,
                "end_time": 43.824999999999996,
                "pitch": 36,
                "velocity": 51,
                "duration": 0.20454545454545325,
                "tempo": 120.0
            },
            {
                "start_time": 43.824999999999996,
                "end_time": 44.025,
                "pitch": 40,
                "velocity": 51,
                "duration": 0.20000000000000284,
                "tempo": 120.0
            },
            {
                "start_time": 43.21363636363636,
                "end_time": 44.025,
                "pitch": 54,
                "velocity": 51,
                "duration": 0.8113636363636374,
                "tempo": 120.0
            },
            {
                "start_time": 44.025,
                "end_time": 44.224999999999994,
                "pitch": 43,
                "velocity": 51,
                "duration": 0.19999999999999574,
                "tempo": 120.0
            },
            {
                "start_time": 44.224999999999994,
                "end_time": 44.425,
                "pitch": 31,
                "velocity": 51,
                "duration": 0.20000000000000284,
                "tempo": 120.0
            },
            {
                "start_time": 44.42727272727272,
                "end_time": 44.627272727272725,
                "pitch": 31,
                "velocity": 51,
                "duration": 0.20000000000000284,
                "tempo": 120.0
            },
            {
                "start_time": 44.627272727272725,
                "end_time": 44.82727272727273,
                "pitch": 31,
                "velocity": 51,
                "duration": 0.20000000000000284,
                "tempo": 120.0
            },
            {
                "start_time": 44.82727272727273,
                "end_time": 45.027272727272724,
                "pitch": 35,
                "velocity": 51,
                "duration": 0.19999999999999574,
                "tempo": 120.0
            },
            {
                "start_time": 43.824999999999996,
                "end_time": 45.22727272727273,
                "pitch": 36,
                "velocity": 51,
                "duration": 1.402272727272731,
                "tempo": 120.0
            },
            {
                "start_time": 45.027272727272724,
                "end_time": 45.22727272727273,
                "pitch": 36,
                "velocity": 51,
                "duration": 0.20000000000000284,
                "tempo": 120.0
            },
            {
                "start_time": 45.22727272727273,
                "end_time": 45.42727272727272,
                "pitch": 36,
                "velocity": 51,
                "duration": 0.19999999999999574,
                "tempo": 120.0
            },
            {
                "start_time": 45.42727272727272,
                "end_time": 45.47727272727273,
                "pitch": 39,
                "velocity": 51,
                "duration": 0.05000000000000426,
                "tempo": 120.0
            },
            {
                "start_time": 45.47727272727273,
                "end_time": 45.62954545454545,
                "pitch": 39,
                "velocity": 51,
                "duration": 0.15227272727272378,
                "tempo": 120.0
            },
            {
                "start_time": 45.42727272727272,
                "end_time": 45.82954545454545,
                "pitch": 36,
                "velocity": 51,
                "duration": 0.4022727272727309,
                "tempo": 120.0
            },
            {
                "start_time": 45.62954545454545,
                "end_time": 45.82954545454545,
                "pitch": 36,
                "velocity": 51,
                "duration": 0.20000000000000284,
                "tempo": 120.0
            },
            {
                "start_time": 36.184090909090905,
                "end_time": 45.83181818181818,
                "pitch": 52,
                "velocity": 51,
                "duration": 9.647727272727273,
                "tempo": 120.0
            },
            {
                "start_time": 45.83181818181818,
                "end_time": 46.03181818181818,
                "pitch": 43,
                "velocity": 51,
                "duration": 0.20000000000000284,
                "tempo": 120.0
            },
            {
                "start_time": 43.413636363636364,
                "end_time": 46.23181818181818,
                "pitch": 0,
                "velocity": 51,
                "duration": 2.818181818181813,
                "tempo": 120.0
            },
            {
                "start_time": 46.03181818181818,
                "end_time": 46.23181818181818,
                "pitch": 43,
                "velocity": 51,
                "duration": 0.19999999999999574,
                "tempo": 120.0
            },
            {
                "start_time": 45.62954545454545,
                "end_time": 46.43181818181818,
                "pitch": 40,
                "velocity": 51,
                "duration": 0.8022727272727295,
                "tempo": 120.0
            },
            {
                "start_time": 46.23181818181818,
                "end_time": 46.43181818181818,
                "pitch": 40,
                "velocity": 51,
                "duration": 0.20000000000000284,
                "tempo": 120.0
            },
            {
                "start_time": 44.025,
                "end_time": 46.43181818181818,
                "pitch": 54,
                "velocity": 51,
                "duration": 2.4068181818181813,
                "tempo": 120.0
            },
            {
                "start_time": 46.23181818181818,
                "end_time": 46.63181818181818,
                "pitch": 0,
                "velocity": 51,
                "duration": 0.4000000000000057,
                "tempo": 120.0
            },
            {
                "start_time": 46.43181818181818,
                "end_time": 46.63181818181818,
                "pitch": 43,
                "velocity": 51,
                "duration": 0.20000000000000284,
                "tempo": 120.0
            },
            {
                "start_time": 46.63181818181818,
                "end_time": 46.83181818181818,
                "pitch": 36,
                "velocity": 51,
                "duration": 0.19999999999999574,
                "tempo": 120.0
            },
            {
                "start_time": 46.83181818181818,
                "end_time": 47.03181818181818,
                "pitch": 36,
                "velocity": 51,
                "duration": 0.20000000000000284,
                "tempo": 120.0
            },
            {
                "start_time": 47.03181818181818,
                "end_time": 47.08181818181818,
                "pitch": 39,
                "velocity": 51,
                "duration": 0.04999999999999716,
                "tempo": 120.0
            },
            {
                "start_time": 47.08181818181818,
                "end_time": 47.23181818181818,
                "pitch": 39,
                "velocity": 51,
                "duration": 0.14999999999999858,
                "tempo": 120.0
            },
            {
                "start_time": 47.03181818181818,
                "end_time": 47.43181818181818,
                "pitch": 36,
                "velocity": 51,
                "duration": 0.3999999999999986,
                "tempo": 120.0
            },
            {
                "start_time": 47.23181818181818,
                "end_time": 47.43181818181818,
                "pitch": 36,
                "velocity": 51,
                "duration": 0.20000000000000284,
                "tempo": 120.0
            },
            {
                "start_time": 45.83181818181818,
                "end_time": 47.434090909090905,
                "pitch": 52,
                "velocity": 51,
                "duration": 1.6022727272727266,
                "tempo": 120.0
            },
            {
                "start_time": 47.43181818181818,
                "end_time": 47.434090909090905,
                "pitch": 52,
                "velocity": 51,
                "duration": 0.0022727272727252057,
                "tempo": 120.0
            },
            {
                "start_time": 47.434090909090905,
                "end_time": 47.63409090909091,
                "pitch": 43,
                "velocity": 51,
                "duration": 0.20000000000000284,
                "tempo": 120.0
            },
            {
                "start_time": 46.63181818181818,
                "end_time": 47.836363636363636,
                "pitch": 0,
                "velocity": 51,
                "duration": 1.2045454545454533,
                "tempo": 120.0
            },
            {
                "start_time": 47.63409090909091,
                "end_time": 47.836363636363636,
                "pitch": 43,
                "velocity": 51,
                "duration": 0.20227272727272805,
                "tempo": 120.0
            },
            {
                "start_time": 47.23181818181818,
                "end_time": 48.03636363636363,
                "pitch": 40,
                "velocity": 51,
                "duration": 0.8045454545454547,
                "tempo": 120.0
            },
            {
                "start_time": 47.836363636363636,
                "end_time": 48.03636363636363,
                "pitch": 40,
                "velocity": 51,
                "duration": 0.19999999999999574,
                "tempo": 120.0
            },
            {
                "start_time": 46.43181818181818,
                "end_time": 48.03636363636363,
                "pitch": 54,
                "velocity": 51,
                "duration": 1.6045454545454518,
                "tempo": 120.0
            },
            {
                "start_time": 47.836363636363636,
                "end_time": 48.236363636363635,
                "pitch": 0,
                "velocity": 51,
                "duration": 0.3999999999999986,
                "tempo": 120.0
            },
            {
                "start_time": 48.03636363636363,
                "end_time": 48.236363636363635,
                "pitch": 43,
                "velocity": 51,
                "duration": 0.20000000000000284,
                "tempo": 120.0
            },
            {
                "start_time": 48.236363636363635,
                "end_time": 48.43636363636364,
                "pitch": 29,
                "velocity": 51,
                "duration": 0.20000000000000284,
                "tempo": 120.0
            },
            {
                "start_time": 48.43636363636364,
                "end_time": 48.63636363636363,
                "pitch": 29,
                "velocity": 51,
                "duration": 0.19999999999999574,
                "tempo": 120.0
            },
            {
                "start_time": 33.775,
                "end_time": 48.63636363636363,
                "pitch": 42,
                "velocity": 51,
                "duration": 14.861363636363635,
                "tempo": 120.0
            },
            {
                "start_time": 48.63636363636363,
                "end_time": 48.68636363636364,
                "pitch": 32,
                "velocity": 51,
                "duration": 0.05000000000000426,
                "tempo": 120.0
            },
            {
                "start_time": 48.68636363636364,
                "end_time": 48.836363636363636,
                "pitch": 32,
                "velocity": 51,
                "duration": 0.14999999999999858,
                "tempo": 120.0
            },
            {
                "start_time": 35.39090909090909,
                "end_time": 49.038636363636364,
                "pitch": 41,
                "velocity": 51,
                "duration": 13.647727272727273,
                "tempo": 120.0
            },
            {
                "start_time": 49.038636363636364,
                "end_time": 49.23863636363636,
                "pitch": 36,
                "velocity": 51,
                "duration": 0.19999999999999574,
                "tempo": 120.0
            },
            {
                "start_time": 49.23863636363636,
                "end_time": 49.43863636363636,
                "pitch": 36,
                "velocity": 51,
                "duration": 0.20000000000000284,
                "tempo": 120.0
            },
            {
                "start_time": 44.82727272727273,
                "end_time": 49.63863636363636,
                "pitch": 33,
                "velocity": 51,
                "duration": 4.81136363636363,
                "tempo": 120.0
            },
            {
                "start_time": 49.43863636363636,
                "end_time": 49.63863636363636,
                "pitch": 33,
                "velocity": 51,
                "duration": 0.19999999999999574,
                "tempo": 120.0
            },
            {
                "start_time": 31.970454545454544,
                "end_time": 49.64090909090909,
                "pitch": 7,
                "velocity": 51,
                "duration": 17.670454545454547,
                "tempo": 120.0
            },
            {
                "start_time": 30.565909090909088,
                "end_time": 49.840909090909086,
                "pitch": 24,
                "velocity": 51,
                "duration": 19.275,
                "tempo": 120.0
            },
            {
                "start_time": 49.64090909090909,
                "end_time": 49.840909090909086,
                "pitch": 36,
                "velocity": 51,
                "duration": 0.19999999999999574,
                "tempo": 120.0
            },
            {
                "start_time": 49.840909090909086,
                "end_time": 50.04090909090909,
                "pitch": 29,
                "velocity": 51,
                "duration": 0.20000000000000284,
                "tempo": 120.0
            },
            {
                "start_time": 50.04090909090909,
                "end_time": 50.240909090909085,
                "pitch": 29,
                "velocity": 51,
                "duration": 0.19999999999999574,
                "tempo": 120.0
            },
            {
                "start_time": 48.63636363636363,
                "end_time": 50.24318181818182,
                "pitch": 42,
                "velocity": 51,
                "duration": 1.6068181818181841,
                "tempo": 120.0
            },
            {
                "start_time": 50.24318181818182,
                "end_time": 50.29090909090909,
                "pitch": 32,
                "velocity": 51,
                "duration": 0.04772727272727195,
                "tempo": 120.0
            },
            {
                "start_time": 50.293181818181814,
                "end_time": 50.44318181818181,
                "pitch": 32,
                "velocity": 51,
                "duration": 0.14999999999999858,
                "tempo": 120.0
            },
            {
                "start_time": 49.038636363636364,
                "end_time": 50.643181818181816,
                "pitch": 41,
                "velocity": 51,
                "duration": 1.6045454545454518,
                "tempo": 120.0
            },
            {
                "start_time": 50.643181818181816,
                "end_time": 50.84772727272727,
                "pitch": 36,
                "velocity": 51,
                "duration": 0.20454545454545325,
                "tempo": 120.0
            },
            {
                "start_time": 50.84772727272727,
                "end_time": 51.054545454545455,
                "pitch": 36,
                "velocity": 51,
                "duration": 0.20681818181818556,
                "tempo": 120.0
            },
            {
                "start_time": 49.43863636363636,
                "end_time": 51.054545454545455,
                "pitch": 40,
                "velocity": 51,
                "duration": 1.615909090909092,
                "tempo": 120.0
            },
            {
                "start_time": 51.054545454545455,
                "end_time": 51.25454545454545,
                "pitch": 33,
                "velocity": 51,
                "duration": 0.19999999999999574,
                "tempo": 120.0
            },
            {
                "start_time": 49.64090909090909,
                "end_time": 51.25681818181818,
                "pitch": 7,
                "velocity": 51,
                "duration": 1.615909090909092,
                "tempo": 120.0
            },
            {
                "start_time": 51.25681818181818,
                "end_time": 51.45681818181818,
                "pitch": 36,
                "velocity": 51,
                "duration": 0.19999999999999574,
                "tempo": 120.0
            },
            {
                "start_time": 51.054545454545455,
                "end_time": 51.45681818181818,
                "pitch": 40,
                "velocity": 51,
                "duration": 0.4022727272727238,
                "tempo": 120.0
            },
            {
                "start_time": 51.45681818181818,
                "end_time": 51.65681818181818,
                "pitch": 34,
                "velocity": 51,
                "duration": 0.20000000000000284,
                "tempo": 120.0
            },
            {
                "start_time": 51.65681818181818,
                "end_time": 51.85681818181818,
                "pitch": 34,
                "velocity": 51,
                "duration": 0.19999999999999574,
                "tempo": 120.0
            },
            {
                "start_time": 41.809090909090905,
                "end_time": 51.85909090909091,
                "pitch": 14,
                "velocity": 51,
                "duration": 10.050000000000004,
                "tempo": 120.0
            },
            {
                "start_time": 51.85681818181818,
                "end_time": 51.85909090909091,
                "pitch": 14,
                "velocity": 51,
                "duration": 0.002272727272732311,
                "tempo": 120.0
            },
            {
                "start_time": 51.85909090909091,
                "end_time": 51.90681818181818,
                "pitch": 37,
                "velocity": 51,
                "duration": 0.04772727272727195,
                "tempo": 120.0
            },
            {
                "start_time": 51.90909090909091,
                "end_time": 52.05681818181818,
                "pitch": 37,
                "velocity": 51,
                "duration": 0.14772727272727337,
                "tempo": 120.0
            },
            {
                "start_time": 50.643181818181816,
                "end_time": 52.059090909090905,
                "pitch": 41,
                "velocity": 51,
                "duration": 1.4159090909090892,
                "tempo": 120.0
            },
            {
                "start_time": 52.059090909090905,
                "end_time": 52.25909090909091,
                "pitch": 34,
                "velocity": 51,
                "duration": 0.20000000000000284,
                "tempo": 120.0
            },
            {
                "start_time": 52.059090909090905,
                "end_time": 52.459090909090904,
                "pitch": 41,
                "velocity": 51,
                "duration": 0.3999999999999986,
                "tempo": 120.0
            },
            {
                "start_time": 52.25909090909091,
                "end_time": 52.459090909090904,
                "pitch": 41,
                "velocity": 51,
                "duration": 0.19999999999999574,
                "tempo": 120.0
            },
            {
                "start_time": 52.459090909090904,
                "end_time": 52.65909090909091,
                "pitch": 41,
                "velocity": 51,
                "duration": 0.20000000000000284,
                "tempo": 120.0
            },
            {
                "start_time": 52.65909090909091,
                "end_time": 52.85909090909091,
                "pitch": 38,
                "velocity": 51,
                "duration": 0.20000000000000284,
                "tempo": 120.0
            },
            {
                "start_time": 52.65909090909091,
                "end_time": 53.059090909090905,
                "pitch": 41,
                "velocity": 51,
                "duration": 0.3999999999999986,
                "tempo": 120.0
            },
            {
                "start_time": 52.85909090909091,
                "end_time": 53.059090909090905,
                "pitch": 41,
                "velocity": 51,
                "duration": 0.19999999999999574,
                "tempo": 120.0
            },
            {
                "start_time": 50.24318181818182,
                "end_time": 53.059090909090905,
                "pitch": 42,
                "velocity": 51,
                "duration": 2.815909090909088,
                "tempo": 120.0
            },
            {
                "start_time": 53.059090909090905,
                "end_time": 53.26136363636363,
                "pitch": 34,
                "velocity": 51,
                "duration": 0.20227272727272805,
                "tempo": 120.0
            },
            {
                "start_time": 53.26136363636363,
                "end_time": 53.461363636363636,
                "pitch": 34,
                "velocity": 51,
                "duration": 0.20000000000000284,
                "tempo": 120.0
            },
            {
                "start_time": 52.25909090909091,
                "end_time": 53.46363636363636,
                "pitch": 14,
                "velocity": 51,
                "duration": 1.2045454545454533,
                "tempo": 120.0
            },
            {
                "start_time": 53.46363636363636,
                "end_time": 53.51363636363636,
                "pitch": 37,
                "velocity": 51,
                "duration": 0.04999999999999716,
                "tempo": 120.0
            },
            {
                "start_time": 53.51363636363636,
                "end_time": 53.663636363636364,
                "pitch": 37,
                "velocity": 51,
                "duration": 0.15000000000000568,
                "tempo": 120.0
            },
            {
                "start_time": 53.46363636363636,
                "end_time": 53.86363636363636,
                "pitch": 14,
                "velocity": 51,
                "duration": 0.3999999999999986,
                "tempo": 120.0
            },
            {
                "start_time": 53.663636363636364,
                "end_time": 53.86363636363636,
                "pitch": 34,
                "velocity": 51,
                "duration": 0.19999999999999574,
                "tempo": 120.0
            },
            {
                "start_time": 53.663636363636364,
                "end_time": 54.06363636363636,
                "pitch": 41,
                "velocity": 51,
                "duration": 0.3999999999999986,
                "tempo": 120.0
            },
            {
                "start_time": 53.86363636363636,
                "end_time": 54.06363636363636,
                "pitch": 41,
                "velocity": 51,
                "duration": 0.20000000000000284,
                "tempo": 120.0
            },
            {
                "start_time": 54.06363636363636,
                "end_time": 54.26363636363636,
                "pitch": 41,
                "velocity": 51,
                "duration": 0.19999999999999574,
                "tempo": 120.0
            },
            {
                "start_time": 52.85909090909091,
                "end_time": 54.46363636363636,
                "pitch": 38,
                "velocity": 51,
                "duration": 1.6045454545454518,
                "tempo": 120.0
            },
            {
                "start_time": 54.26363636363636,
                "end_time": 54.46363636363636,
                "pitch": 38,
                "velocity": 51,
                "duration": 0.20000000000000284,
                "tempo": 120.0
            },
            {
                "start_time": 54.26363636363636,
                "end_time": 54.663636363636364,
                "pitch": 41,
                "velocity": 51,
                "duration": 0.4000000000000057,
                "tempo": 120.0
            },
            {
                "start_time": 54.46363636363636,
                "end_time": 54.663636363636364,
                "pitch": 41,
                "velocity": 51,
                "duration": 0.20000000000000284,
                "tempo": 120.0
            },
            {
                "start_time": 54.663636363636364,
                "end_time": 54.86363636363636,
                "pitch": 36,
                "velocity": 51,
                "duration": 0.19999999999999574,
                "tempo": 120.0
            },
            {
                "start_time": 54.86363636363636,
                "end_time": 55.06363636363636,
                "pitch": 36,
                "velocity": 51,
                "duration": 0.20000000000000284,
                "tempo": 120.0
            },
            {
                "start_time": 55.06590909090909,
                "end_time": 55.115909090909085,
                "pitch": 39,
                "velocity": 51,
                "duration": 0.04999999999999716,
                "tempo": 120.0
            },
            {
                "start_time": 55.115909090909085,
                "end_time": 55.26590909090909,
                "pitch": 39,
                "velocity": 51,
                "duration": 0.15000000000000568,
                "tempo": 120.0
            },
            {
                "start_time": 51.45681818181818,
                "end_time": 55.26590909090909,
                "pitch": 40,
                "velocity": 51,
                "duration": 3.809090909090912,
                "tempo": 120.0
            },
            {
                "start_time": 55.06590909090909,
                "end_time": 55.46818181818182,
                "pitch": 36,
                "velocity": 51,
                "duration": 0.4022727272727309,
                "tempo": 120.0
            },
            {
                "start_time": 55.26590909090909,
                "end_time": 55.46818181818182,
                "pitch": 36,
                "velocity": 51,
                "duration": 0.20227272727272805,
                "tempo": 120.0
            },
            {
                "start_time": 55.46818181818182,
                "end_time": 55.668181818181814,
                "pitch": 43,
                "velocity": 51,
                "duration": 0.19999999999999574,
                "tempo": 120.0
            },
            {
                "start_time": 48.236363636363635,
                "end_time": 55.86818181818182,
                "pitch": 0,
                "velocity": 51,
                "duration": 7.631818181818183,
                "tempo": 120.0
            },
            {
                "start_time": 55.668181818181814,
                "end_time": 55.86818181818182,
                "pitch": 43,
                "velocity": 51,
                "duration": 0.20000000000000284,
                "tempo": 120.0
            },
            {
                "start_time": 55.26590909090909,
                "end_time": 56.06818181818181,
                "pitch": 40,
                "velocity": 51,
                "duration": 0.8022727272727224,
                "tempo": 120.0
            },
            {
                "start_time": 55.86818181818182,
                "end_time": 56.06818181818181,
                "pitch": 40,
                "velocity": 51,
                "duration": 0.19999999999999574,
                "tempo": 120.0
            },
            {
                "start_time": 48.03636363636363,
                "end_time": 56.06818181818181,
                "pitch": 54,
                "velocity": 51,
                "duration": 8.031818181818181,
                "tempo": 120.0
            },
            {
                "start_time": 56.06818181818181,
                "end_time": 56.268181818181816,
                "pitch": 43,
                "velocity": 51,
                "duration": 0.20000000000000284,
                "tempo": 120.0
            },
            {
                "start_time": 55.86818181818182,
                "end_time": 56.27045454545454,
                "pitch": 0,
                "velocity": 51,
                "duration": 0.4022727272727238,
                "tempo": 120.0
            },
            {
                "start_time": 56.268181818181816,
                "end_time": 56.27045454545454,
                "pitch": 0,
                "velocity": 51,
                "duration": 0.0022727272727252057,
                "tempo": 120.0
            },
            {
                "start_time": 56.27045454545454,
                "end_time": 56.46818181818182,
                "pitch": 36,
                "velocity": 51,
                "duration": 0.19772727272727764,
                "tempo": 120.0
            },
            {
                "start_time": 56.470454545454544,
                "end_time": 56.67045454545454,
                "pitch": 36,
                "velocity": 51,
                "duration": 0.19999999999999574,
                "tempo": 120.0
            },
            {
                "start_time": 56.67045454545454,
                "end_time": 56.87045454545454,
                "pitch": 40,
                "velocity": 51,
                "duration": 0.20000000000000284,
                "tempo": 120.0
            },
            {
                "start_time": 56.87045454545454,
                "end_time": 57.070454545454545,
                "pitch": 40,
                "velocity": 51,
                "duration": 0.20000000000000284,
                "tempo": 120.0
            },
            {
                "start_time": 57.070454545454545,
                "end_time": 57.275,
                "pitch": 40,
                "velocity": 51,
                "duration": 0.20454545454545325,
                "tempo": 120.0
            },
            {
                "start_time": 54.663636363636364,
                "end_time": 57.48181818181818,
                "pitch": 41,
                "velocity": 51,
                "duration": 2.818181818181813,
                "tempo": 120.0
            },
            {
                "start_time": 57.275,
                "end_time": 57.48181818181818,
                "pitch": 41,
                "velocity": 51,
                "duration": 0.20681818181817846,
                "tempo": 120.0
            },
            {
                "start_time": 57.48181818181818,
                "end_time": 57.68181818181818,
                "pitch": 41,
                "velocity": 51,
                "duration": 0.20000000000000284,
                "tempo": 120.0
            },
            {
                "start_time": 56.06818181818181,
                "end_time": 57.68181818181818,
                "pitch": 54,
                "velocity": 51,
                "duration": 1.6136363636363669,
                "tempo": 120.0
            },
            {
                "start_time": 57.68181818181818,
                "end_time": 57.881818181818176,
                "pitch": 43,
                "velocity": 51,
                "duration": 0.19999999999999574,
                "tempo": 120.0
            },
            {
                "start_time": 56.67045454545454,
                "end_time": 58.08181818181818,
                "pitch": 36,
                "velocity": 51,
                "duration": 1.4113636363636388,
                "tempo": 120.0
            },
            {
                "start_time": 57.881818181818176,
                "end_time": 58.08181818181818,
                "pitch": 36,
                "velocity": 51,
                "duration": 0.20000000000000284,
                "tempo": 120.0
            },
            {
                "start_time": 58.08181818181818,
                "end_time": 58.28181818181818,
                "pitch": 36,
                "velocity": 51,
                "duration": 0.20000000000000284,
                "tempo": 120.0
            },
            {
                "start_time": 58.28409090909091,
                "end_time": 58.334090909090904,
                "pitch": 39,
                "velocity": 51,
                "duration": 0.04999999999999716,
                "tempo": 120.0
            },
            {
                "start_time": 58.334090909090904,
                "end_time": 58.48409090909091,
                "pitch": 39,
                "velocity": 51,
                "duration": 0.15000000000000568,
                "tempo": 120.0
            },
            {
                "start_time": 58.28409090909091,
                "end_time": 58.68636363636363,
                "pitch": 36,
                "velocity": 51,
                "duration": 0.4022727272727238,
                "tempo": 120.0
            },
            {
                "start_time": 58.48409090909091,
                "end_time": 58.68636363636363,
                "pitch": 36,
                "velocity": 51,
                "duration": 0.20227272727272094,
                "tempo": 120.0
            },
            {
                "start_time": 55.46818181818182,
                "end_time": 58.68636363636363,
                "pitch": 52,
                "velocity": 51,
                "duration": 3.2181818181818116,
                "tempo": 120.0
            },
            {
                "start_time": 58.68636363636363,
                "end_time": 58.88636363636363,
                "pitch": 43,
                "velocity": 51,
                "duration": 0.20000000000000284,
                "tempo": 120.0
            },
            {
                "start_time": 57.881818181818176,
                "end_time": 59.086363636363636,
                "pitch": 0,
                "velocity": 51,
                "duration": 1.2045454545454604,
                "tempo": 120.0
            },
            {
                "start_time": 58.88636363636363,
                "end_time": 59.086363636363636,
                "pitch": 43,
                "velocity": 51,
                "duration": 0.20000000000000284,
                "tempo": 120.0
            },
            {
                "start_time": 58.48409090909091,
                "end_time": 59.28636363636363,
                "pitch": 40,
                "velocity": 51,
                "duration": 0.8022727272727224,
                "tempo": 120.0
            },
            {
                "start_time": 59.086363636363636,
                "end_time": 59.28636363636363,
                "pitch": 40,
                "velocity": 51,
                "duration": 0.19999999999999574,
                "tempo": 120.0
            },
            {
                "start_time": 57.68181818181818,
                "end_time": 59.28636363636363,
                "pitch": 54,
                "velocity": 51,
                "duration": 1.6045454545454518,
                "tempo": 120.0
            },
            {
                "start_time": 59.086363636363636,
                "end_time": 59.486363636363635,
                "pitch": 0,
                "velocity": 51,
                "duration": 0.3999999999999986,
                "tempo": 120.0
            },
            {
                "start_time": 59.28636363636363,
                "end_time": 59.486363636363635,
                "pitch": 43,
                "velocity": 51,
                "duration": 0.20000000000000284,
                "tempo": 120.0
            },
            {
                "start_time": 59.486363636363635,
                "end_time": 59.68636363636363,
                "pitch": 36,
                "velocity": 51,
                "duration": 0.19999999999999574,
                "tempo": 120.0
            },
            {
                "start_time": 59.68863636363636,
                "end_time": 59.88863636363636,
                "pitch": 36,
                "velocity": 51,
                "duration": 0.19999999999999574,
                "tempo": 120.0
            },
            {
                "start_time": 59.88863636363636,
                "end_time": 59.93863636363636,
                "pitch": 39,
                "velocity": 51,
                "duration": 0.05000000000000426,
                "tempo": 120.0
            },
            {
                "start_time": 59.93863636363636,
                "end_time": 60.08863636363636,
                "pitch": 39,
                "velocity": 51,
                "duration": 0.14999999999999858,
                "tempo": 120.0
            },
            {
                "start_time": 59.88863636363636,
                "end_time": 60.288636363636364,
                "pitch": 36,
                "velocity": 51,
                "duration": 0.4000000000000057,
                "tempo": 120.0
            },
            {
                "start_time": 60.08863636363636,
                "end_time": 60.288636363636364,
                "pitch": 36,
                "velocity": 51,
                "duration": 0.20000000000000284,
                "tempo": 120.0
            },
            {
                "start_time": 58.68636363636363,
                "end_time": 60.288636363636364,
                "pitch": 52,
                "velocity": 51,
                "duration": 1.6022727272727337,
                "tempo": 120.0
            },
            {
                "start_time": 60.288636363636364,
                "end_time": 60.48863636363636,
                "pitch": 43,
                "velocity": 51,
                "duration": 0.19999999999999574,
                "tempo": 120.0
            },
            {
                "start_time": 59.486363636363635,
                "end_time": 60.69090909090909,
                "pitch": 0,
                "velocity": 51,
                "duration": 1.2045454545454533,
                "tempo": 120.0
            },
            {
                "start_time": 60.490909090909085,
                "end_time": 60.69090909090909,
                "pitch": 43,
                "velocity": 51,
                "duration": 0.20000000000000284,
                "tempo": 120.0
            },
            {
                "start_time": 60.08863636363636,
                "end_time": 60.89090909090909,
                "pitch": 40,
                "velocity": 51,
                "duration": 0.8022727272727295,
                "tempo": 120.0
            },
            {
                "start_time": 60.69090909090909,
                "end_time": 60.89090909090909,
                "pitch": 40,
                "velocity": 51,
                "duration": 0.20000000000000284,
                "tempo": 120.0
            },
            {
                "start_time": 59.28636363636363,
                "end_time": 60.89090909090909,
                "pitch": 54,
                "velocity": 51,
                "duration": 1.604545454545459,
                "tempo": 120.0
            },
            {
                "start_time": 60.89090909090909,
                "end_time": 61.090909090909086,
                "pitch": 43,
                "velocity": 51,
                "duration": 0.19999999999999574,
                "tempo": 120.0
            },
            {
                "start_time": 60.69090909090909,
                "end_time": 61.09318181818182,
                "pitch": 0,
                "velocity": 51,
                "duration": 0.4022727272727309,
                "tempo": 120.0
            },
            {
                "start_time": 61.09318181818182,
                "end_time": 61.293181818181814,
                "pitch": 29,
                "velocity": 51,
                "duration": 0.19999999999999574,
                "tempo": 120.0
            },
            {
                "start_time": 61.293181818181814,
                "end_time": 61.49318181818182,
                "pitch": 29,
                "velocity": 51,
                "duration": 0.20000000000000284,
                "tempo": 120.0
            },
            {
                "start_time": 53.059090909090905,
                "end_time": 61.49318181818182,
                "pitch": 42,
                "velocity": 51,
                "duration": 8.434090909090912,
                "tempo": 120.0
            },
            {
                "start_time": 61.49318181818182,
                "end_time": 61.543181818181814,
                "pitch": 32,
                "velocity": 51,
                "duration": 0.04999999999999716,
                "tempo": 120.0
            },
            {
                "start_time": 61.543181818181814,
                "end_time": 61.69318181818181,
                "pitch": 32,
                "velocity": 51,
                "duration": 0.14999999999999858,
                "tempo": 120.0
            },
            {
                "start_time": 61.893181818181816,
                "end_time": 62.09318181818182,
                "pitch": 36,
                "velocity": 51,
                "duration": 0.20000000000000284,
                "tempo": 120.0
            },
            {
                "start_time": 62.09318181818182,
                "end_time": 62.293181818181814,
                "pitch": 36,
                "velocity": 51,
                "duration": 0.19999999999999574,
                "tempo": 120.0
            },
            {
                "start_time": 51.25681818181818,
                "end_time": 62.49545454545454,
                "pitch": 7,
                "velocity": 51,
                "duration": 11.23863636363636,
                "tempo": 120.0
            },
            {
                "start_time": 62.293181818181814,
                "end_time": 62.49545454545454,
                "pitch": 33,
                "velocity": 51,
                "duration": 0.20227272727272805,
                "tempo": 120.0
            },
            {
                "start_time": 49.840909090909086,
                "end_time": 62.69772727272727,
                "pitch": 24,
                "velocity": 51,
                "duration": 12.856818181818184,
                "tempo": 120.0
            },
            {
                "start_time": 62.49545454545454,
                "end_time": 62.69772727272727,
                "pitch": 36,
                "velocity": 51,
                "duration": 0.20227272727272805,
                "tempo": 120.0
            },
            {
                "start_time": 62.69772727272727,
                "end_time": 62.897727272727266,
                "pitch": 29,
                "velocity": 51,
                "duration": 0.19999999999999574,
                "tempo": 120.0
            },
            {
                "start_time": 62.897727272727266,
                "end_time": 63.09772727272727,
                "pitch": 29,
                "velocity": 51,
                "duration": 0.20000000000000284,
                "tempo": 120.0
            },
            {
                "start_time": 61.49318181818182,
                "end_time": 63.09772727272727,
                "pitch": 42,
                "velocity": 51,
                "duration": 1.6045454545454518,
                "tempo": 120.0
            },
            {
                "start_time": 63.09772727272727,
                "end_time": 63.147727272727266,
                "pitch": 32,
                "velocity": 51,
                "duration": 0.04999999999999716,
                "tempo": 120.0
            },
            {
                "start_time": 63.147727272727266,
                "end_time": 63.29772727272727,
                "pitch": 32,
                "velocity": 51,
                "duration": 0.15000000000000568,
                "tempo": 120.0
            },
            {
                "start_time": 61.893181818181816,
                "end_time": 63.49772727272727,
                "pitch": 41,
                "velocity": 51,
                "duration": 1.6045454545454518,
                "tempo": 120.0
            },
            {
                "start_time": 63.49772727272727,
                "end_time": 63.69772727272727,
                "pitch": 36,
                "velocity": 51,
                "duration": 0.20000000000000284,
                "tempo": 120.0
            },
            {
                "start_time": 63.69772727272727,
                "end_time": 63.897727272727266,
                "pitch": 36,
                "velocity": 51,
                "duration": 0.19999999999999574,
                "tempo": 120.0
            },
            {
                "start_time": 62.293181818181814,
                "end_time": 63.897727272727266,
                "pitch": 40,
                "velocity": 51,
                "duration": 1.6045454545454518,
                "tempo": 120.0
            },
            {
                "start_time": 63.897727272727266,
                "end_time": 64.09772727272727,
                "pitch": 33,
                "velocity": 51,
                "duration": 0.20000000000000284,
                "tempo": 120.0
            },
            {
                "start_time": 62.49545454545454,
                "end_time": 64.1,
                "pitch": 7,
                "velocity": 51,
                "duration": 1.6045454545454518,
                "tempo": 120.0
            },
            {
                "start_time": 64.1,
                "end_time": 64.3,
                "pitch": 36,
                "velocity": 51,
                "duration": 0.20000000000000284,
                "tempo": 120.0
            },
            {
                "start_time": 63.897727272727266,
                "end_time": 64.3,
                "pitch": 40,
                "velocity": 51,
                "duration": 0.4022727272727309,
                "tempo": 120.0
            },
            {
                "start_time": 64.3,
                "end_time": 64.5,
                "pitch": 34,
                "velocity": 51,
                "duration": 0.20000000000000284,
                "tempo": 120.0
            },
            {
                "start_time": 53.86363636363636,
                "end_time": 64.70227272727273,
                "pitch": 14,
                "velocity": 51,
                "duration": 10.838636363636368,
                "tempo": 120.0
            },
            {
                "start_time": 64.5,
                "end_time": 64.70227272727273,
                "pitch": 34,
                "velocity": 51,
                "duration": 0.20227272727272805,
                "tempo": 120.0
            },
            {
                "start_time": 64.70227272727273,
                "end_time": 64.75227272727273,
                "pitch": 37,
                "velocity": 51,
                "duration": 0.04999999999999716,
                "tempo": 120.0
            },
            {
                "start_time": 64.75227272727273,
                "end_time": 64.90227272727273,
                "pitch": 37,
                "velocity": 51,
                "duration": 0.15000000000000568,
                "tempo": 120.0
            },
            {
                "start_time": 63.49772727272727,
                "end_time": 64.90227272727273,
                "pitch": 41,
                "velocity": 51,
                "duration": 1.4045454545454632,
                "tempo": 120.0
            },
            {
                "start_time": 64.70227272727273,
                "end_time": 65.10227272727272,
                "pitch": 14,
                "velocity": 51,
                "duration": 0.3999999999999915,
                "tempo": 120.0
            },
            {
                "start_time": 64.90227272727273,
                "end_time": 65.10227272727272,
                "pitch": 34,
                "velocity": 51,
                "duration": 0.19999999999998863,
                "tempo": 120.0
            },
            {
                "start_time": 64.90227272727273,
                "end_time": 65.30909090909091,
                "pitch": 41,
                "velocity": 51,
                "duration": 0.4068181818181813,
                "tempo": 120.0
            },
            {
                "start_time": 65.10227272727272,
                "end_time": 65.30909090909091,
                "pitch": 41,
                "velocity": 51,
                "duration": 0.20681818181819267,
                "tempo": 120.0
            },
            {
                "start_time": 65.30909090909091,
                "end_time": 65.51363636363637,
                "pitch": 41,
                "velocity": 51,
                "duration": 0.20454545454545325,
                "tempo": 120.0
            },
            {
                "start_time": 54.46363636363636,
                "end_time": 65.71363636363635,
                "pitch": 38,
                "velocity": 51,
                "duration": 11.249999999999993,
                "tempo": 120.0
            },
            {
                "start_time": 65.51363636363637,
                "end_time": 65.71363636363635,
                "pitch": 38,
                "velocity": 51,
                "duration": 0.19999999999998863,
                "tempo": 120.0
            },
            {
                "start_time": 65.71363636363635,
                "end_time": 65.7159090909091,
                "pitch": 38,
                "velocity": 51,
                "duration": 0.0022727272727394165,
                "tempo": 120.0
            },
            {
                "start_time": 65.51363636363637,
                "end_time": 65.91363636363636,
                "pitch": 41,
                "velocity": 51,
                "duration": 0.3999999999999915,
                "tempo": 120.0
            },
            {
                "start_time": 65.7159090909091,
                "end_time": 65.91363636363636,
                "pitch": 41,
                "velocity": 51,
                "duration": 0.19772727272726343,
                "tempo": 120.0
            },
            {
                "start_time": 63.09772727272727,
                "end_time": 65.91590909090908,
                "pitch": 42,
                "velocity": 51,
                "duration": 2.818181818181813,
                "tempo": 120.0
            },
            {
                "start_time": 65.91590909090908,
                "end_time": 66.11590909090908,
                "pitch": 34,
                "velocity": 51,
                "duration": 0.20000000000000284,
                "tempo": 120.0
            },
            {
                "start_time": 65.10227272727272,
                "end_time": 66.31818181818181,
                "pitch": 14,
                "velocity": 51,
                "duration": 1.2159090909090935,
                "tempo": 120.0
            },
            {
                "start_time": 66.11590909090908,
                "end_time": 66.31818181818181,
                "pitch": 34,
                "velocity": 51,
                "duration": 0.20227272727272805,
                "tempo": 120.0
            },
            {
                "start_time": 66.31818181818181,
                "end_time": 66.36818181818181,
                "pitch": 37,
                "velocity": 51,
                "duration": 0.04999999999999716,
                "tempo": 120.0
            },
            {
                "start_time": 66.36818181818181,
                "end_time": 66.51818181818182,
                "pitch": 37,
                "velocity": 51,
                "duration": 0.15000000000000568,
                "tempo": 120.0
            },
            {
                "start_time": 66.31818181818181,
                "end_time": 66.71818181818182,
                "pitch": 14,
                "velocity": 51,
                "duration": 0.4000000000000057,
                "tempo": 120.0
            },
            {
                "start_time": 66.51818181818182,
                "end_time": 66.71818181818182,
                "pitch": 34,
                "velocity": 51,
                "duration": 0.20000000000000284,
                "tempo": 120.0
            },
            {
                "start_time": 66.51818181818182,
                "end_time": 66.92045454545455,
                "pitch": 41,
                "velocity": 51,
                "duration": 0.4022727272727309,
                "tempo": 120.0
            },
            {
                "start_time": 66.71818181818182,
                "end_time": 66.92045454545455,
                "pitch": 41,
                "velocity": 51,
                "duration": 0.20227272727272805,
                "tempo": 120.0
            },
            {
                "start_time": 66.92045454545455,
                "end_time": 67.12272727272727,
                "pitch": 41,
                "velocity": 51,
                "duration": 0.20227272727272805,
                "tempo": 120.0
            },
            {
                "start_time": 67.12272727272727,
                "end_time": 67.32272727272726,
                "pitch": 38,
                "velocity": 51,
                "duration": 0.19999999999998863,
                "tempo": 120.0
            },
            {
                "start_time": 67.12272727272727,
                "end_time": 67.52499999999999,
                "pitch": 41,
                "velocity": 51,
                "duration": 0.4022727272727167,
                "tempo": 120.0
            },
            {
                "start_time": 67.32272727272726,
                "end_time": 67.52499999999999,
                "pitch": 41,
                "velocity": 51,
                "duration": 0.20227272727272805,
                "tempo": 120.0
            },
            {
                "start_time": 67.52499999999999,
                "end_time": 67.725,
                "pitch": 36,
                "velocity": 51,
                "duration": 0.20000000000000284,
                "tempo": 120.0
            },
            {
                "start_time": 67.725,
                "end_time": 67.925,
                "pitch": 36,
                "velocity": 51,
                "duration": 0.20000000000000284,
                "tempo": 120.0
            },
            {
                "start_time": 67.925,
                "end_time": 67.975,
                "pitch": 39,
                "velocity": 51,
                "duration": 0.04999999999999716,
                "tempo": 120.0
            },
            {
                "start_time": 67.97727272727272,
                "end_time": 68.12727272727273,
                "pitch": 39,
                "velocity": 51,
                "duration": 0.15000000000000568,
                "tempo": 120.0
            },
            {
                "start_time": 64.3,
                "end_time": 68.12727272727273,
                "pitch": 40,
                "velocity": 51,
                "duration": 3.827272727272728,
                "tempo": 120.0
            },
            {
                "start_time": 67.925,
                "end_time": 68.32954545454545,
                "pitch": 36,
                "velocity": 51,
                "duration": 0.4045454545454561,
                "tempo": 120.0
            },
            {
                "start_time": 68.12727272727273,
                "end_time": 68.32954545454545,
                "pitch": 36,
                "velocity": 51,
                "duration": 0.20227272727272805,
                "tempo": 120.0
            },
            {
                "start_time": 60.288636363636364,
                "end_time": 68.32954545454545,
                "pitch": 52,
                "velocity": 51,
                "duration": 8.04090909090909,
                "tempo": 120.0
            },
            {
                "start_time": 68.32954545454545,
                "end_time": 68.52954545454546,
                "pitch": 43,
                "velocity": 51,
                "duration": 0.20000000000000284,
                "tempo": 120.0
            },
            {
                "start_time": 61.09318181818182,
                "end_time": 68.72954545454544,
                "pitch": 0,
                "velocity": 51,
                "duration": 7.636363636363626,
                "tempo": 120.0
            },
            {
                "start_time": 68.52954545454546,
                "end_time": 68.72954545454544,
                "pitch": 43,
                "velocity": 51,
                "duration": 0.19999999999998863,
                "tempo": 120.0
            },
            {
                "start_time": 68.12727272727273,
                "end_time": 68.93181818181817,
                "pitch": 40,
                "velocity": 51,
                "duration": 0.8045454545454476,
                "tempo": 120.0
            },
            {
                "start_time": 68.72954545454544,
                "end_time": 68.93181818181817,
                "pitch": 40,
                "velocity": 51,
                "duration": 0.20227272727272805,
                "tempo": 120.0
            },
            {
                "start_time": 60.89090909090909,
                "end_time": 68.93181818181817,
                "pitch": 54,
                "velocity": 51,
                "duration": 8.040909090909082,
                "tempo": 120.0
            },
            {
                "start_time": 68.72954545454544,
                "end_time": 69.13181818181818,
                "pitch": 0,
                "velocity": 51,
                "duration": 0.4022727272727309,
                "tempo": 120.0
            },
            {
                "start_time": 68.93181818181817,
                "end_time": 69.13181818181818,
                "pitch": 43,
                "velocity": 51,
                "duration": 0.20000000000000284,
                "tempo": 120.0
            },
            {
                "start_time": 69.13181818181818,
                "end_time": 69.3340909090909,
                "pitch": 36,
                "velocity": 51,
                "duration": 0.20227272727272805,
                "tempo": 120.0
            },
            {
                "start_time": 69.3340909090909,
                "end_time": 69.53636363636363,
                "pitch": 36,
                "velocity": 51,
                "duration": 0.20227272727272805,
                "tempo": 120.0
            },
            {
                "start_time": 69.53636363636363,
                "end_time": 69.73636363636363,
                "pitch": 40,
                "velocity": 51,
                "duration": 0.20000000000000284,
                "tempo": 120.0
            },
            {
                "start_time": 69.53636363636363,
                "end_time": 69.93636363636364,
                "pitch": 36,
                "velocity": 51,
                "duration": 0.4000000000000057,
                "tempo": 120.0
            },
            {
                "start_time": 69.73636363636363,
                "end_time": 69.93636363636364,
                "pitch": 36,
                "velocity": 51,
                "duration": 0.20000000000000284,
                "tempo": 120.0
            },
            {
                "start_time": 69.73636363636363,
                "end_time": 70.13863636363637,
                "pitch": 40,
                "velocity": 51,
                "duration": 0.4022727272727309,
                "tempo": 120.0
            },
            {
                "start_time": 69.93636363636364,
                "end_time": 70.13863636363637,
                "pitch": 40,
                "velocity": 51,
                "duration": 0.20227272727272805,
                "tempo": 120.0
            },
            {
                "start_time": 67.32272727272726,
                "end_time": 70.33863636363635,
                "pitch": 38,
                "velocity": 51,
                "duration": 3.0159090909090907,
                "tempo": 120.0
            },
            {
                "start_time": 70.13863636363637,
                "end_time": 70.33863636363635,
                "pitch": 38,
                "velocity": 51,
                "duration": 0.19999999999998863,
                "tempo": 120.0
            },
            {
                "start_time": 69.93636363636364,
                "end_time": 70.54090909090908,
                "pitch": 36,
                "velocity": 51,
                "duration": 0.6045454545454447,
                "tempo": 120.0
            },
            {
                "start_time": 70.3409090909091,
                "end_time": 70.54090909090908,
                "pitch": 36,
                "velocity": 51,
                "duration": 0.19999999999998863,
                "tempo": 120.0
            },
            {
                "start_time": 70.13863636363637,
                "end_time": 70.54090909090908,
                "pitch": 40,
                "velocity": 51,
                "duration": 0.4022727272727167,
                "tempo": 120.0
            },
            {
                "start_time": 45.027272727272724,
                "end_time": 70.74090909090908,
                "pitch": 19,
                "velocity": 51,
                "duration": 25.71363636363636,
                "tempo": 120.0
            },
            {
                "start_time": 70.54090909090908,
                "end_time": 70.74090909090908,
                "pitch": 35,
                "velocity": 51,
                "duration": 0.20000000000000284,
                "tempo": 120.0
            },
            {
                "start_time": 70.3409090909091,
                "end_time": 70.94090909090909,
                "pitch": 38,
                "velocity": 51,
                "duration": 0.5999999999999943,
                "tempo": 120.0
            },
            {
                "start_time": 70.74090909090908,
                "end_time": 70.94090909090909,
                "pitch": 38,
                "velocity": 51,
                "duration": 0.20000000000000284,
                "tempo": 120.0
            },
            {
                "start_time": 71.34545454545454,
                "end_time": 71.54545454545455,
                "pitch": 38,
                "velocity": 51,
                "duration": 0.20000000000000284,
                "tempo": 120.0
            },
            {
                "start_time": 70.54090909090908,
                "end_time": 71.74772727272727,
                "pitch": 40,
                "velocity": 51,
                "duration": 1.2068181818181927,
                "tempo": 120.0
            },
            {
                "start_time": 71.54772727272727,
                "end_time": 71.74772727272727,
                "pitch": 40,
                "velocity": 51,
                "duration": 0.20000000000000284,
                "tempo": 120.0
            },
            {
                "start_time": 72.15227272727272,
                "end_time": 72.35909090909091,
                "pitch": 40,
                "velocity": 51,
                "duration": 0.20681818181819267,
                "tempo": 120.0
            },
            {
                "start_time": 72.35909090909091,
                "end_time": 72.55909090909091,
                "pitch": 40,
                "velocity": 51,
                "duration": 0.20000000000000284,
                "tempo": 120.0
            },
            {
                "start_time": 67.52499999999999,
                "end_time": 72.56136363636364,
                "pitch": 41,
                "velocity": 51,
                "duration": 5.036363636363646,
                "tempo": 120.0
            },
            {
                "start_time": 72.56136363636364,
                "end_time": 72.76136363636363,
                "pitch": 36,
                "velocity": 51,
                "duration": 0.19999999999998863,
                "tempo": 120.0
            },
            {
                "start_time": 72.76136363636363,
                "end_time": 72.96818181818182,
                "pitch": 33,
                "velocity": 51,
                "duration": 0.20681818181819267,
                "tempo": 120.0
            },
            {
                "start_time": 72.96818181818182,
                "end_time": 73.17272727272727,
                "pitch": 45,
                "velocity": 51,
                "duration": 0.20454545454545325,
                "tempo": 120.0
            },
            {
                "start_time": 69.13181818181818,
                "end_time": 73.95681818181818,
                "pitch": 0,
                "velocity": 51,
                "duration": 4.825000000000003,
                "tempo": 120.0
            },
            {
                "start_time": 71.54772727272727,
                "end_time": 74.16136363636363,
                "pitch": 38,
                "velocity": 51,
                "duration": 2.6136363636363598,
                "tempo": 120.0
            },
            {
                "start_time": 73.95681818181818,
                "end_time": 74.16136363636363,
                "pitch": 38,
                "velocity": 51,
                "duration": 0.20454545454545325,
                "tempo": 120.0
            },
            {
                "start_time": 74.57045454545454,
                "end_time": 74.77045454545454,
                "pitch": 38,
                "velocity": 51,
                "duration": 0.20000000000000284,
                "tempo": 120.0
            },
            {
                "start_time": 72.76136363636363,
                "end_time": 74.97272727272727,
                "pitch": 40,
                "velocity": 51,
                "duration": 2.211363636363643,
                "tempo": 120.0
            },
            {
                "start_time": 74.77045454545454,
                "end_time": 74.97272727272727,
                "pitch": 40,
                "velocity": 51,
                "duration": 0.20227272727272805,
                "tempo": 120.0
            },
            {
                "start_time": 75.375,
                "end_time": 75.575,
                "pitch": 40,
                "velocity": 51,
                "duration": 0.20000000000000284,
                "tempo": 120.0
            },
            {
                "start_time": 75.575,
                "end_time": 75.77954545454546,
                "pitch": 40,
                "velocity": 51,
                "duration": 0.20454545454545325,
                "tempo": 120.0
            },
            {
                "start_time": 72.56136363636364,
                "end_time": 75.77954545454546,
                "pitch": 41,
                "velocity": 51,
                "duration": 3.2181818181818187,
                "tempo": 120.0
            },
            {
                "start_time": 75.77954545454546,
                "end_time": 75.98636363636363,
                "pitch": 36,
                "velocity": 51,
                "duration": 0.20681818181817846,
                "tempo": 120.0
            },
            {
                "start_time": 75.98636363636363,
                "end_time": 76.18181818181817,
                "pitch": 33,
                "velocity": 51,
                "duration": 0.19545454545453822,
                "tempo": 120.0
            },
            {
                "start_time": 76.18181818181817,
                "end_time": 76.37954545454545,
                "pitch": 45,
                "velocity": 51,
                "duration": 0.19772727272727764,
                "tempo": 120.0
            },
            {
                "start_time": 73.95681818181818,
                "end_time": 77.18636363636364,
                "pitch": 0,
                "velocity": 51,
                "duration": 3.229545454545459,
                "tempo": 120.0
            },
            {
                "start_time": 74.77045454545454,
                "end_time": 77.38636363636363,
                "pitch": 38,
                "velocity": 51,
                "duration": 2.615909090909085,
                "tempo": 120.0
            },
            {
                "start_time": 77.18636363636364,
                "end_time": 77.38636363636363,
                "pitch": 38,
                "velocity": 51,
                "duration": 0.19999999999998863,
                "tempo": 120.0
            },
            {
                "start_time": 77.79090909090908,
                "end_time": 77.99772727272727,
                "pitch": 38,
                "velocity": 51,
                "duration": 0.20681818181819267,
                "tempo": 120.0
            },
            {
                "start_time": 75.98636363636363,
                "end_time": 78.19318181818181,
                "pitch": 40,
                "velocity": 51,
                "duration": 2.2068181818181785,
                "tempo": 120.0
            },
            {
                "start_time": 77.99772727272727,
                "end_time": 78.19318181818181,
                "pitch": 40,
                "velocity": 51,
                "duration": 0.19545454545453822,
                "tempo": 120.0
            },
            {
                "start_time": 78.5909090909091,
                "end_time": 78.79318181818181,
                "pitch": 40,
                "velocity": 51,
                "duration": 0.20227272727271384,
                "tempo": 120.0
            },
            {
                "start_time": 78.79318181818181,
                "end_time": 78.99772727272727,
                "pitch": 40,
                "velocity": 51,
                "duration": 0.20454545454546746,
                "tempo": 120.0
            },
            {
                "start_time": 75.77954545454546,
                "end_time": 78.99772727272727,
                "pitch": 41,
                "velocity": 51,
                "duration": 3.2181818181818187,
                "tempo": 120.0
            },
            {
                "start_time": 78.99772727272727,
                "end_time": 79.20454545454545,
                "pitch": 36,
                "velocity": 51,
                "duration": 0.20681818181817846,
                "tempo": 120.0
            },
            {
                "start_time": 79.20454545454545,
                "end_time": 79.40681818181818,
                "pitch": 33,
                "velocity": 51,
                "duration": 0.20227272727272805,
                "tempo": 120.0
            },
            {
                "start_time": 79.40681818181818,
                "end_time": 79.60681818181818,
                "pitch": 45,
                "velocity": 51,
                "duration": 0.20000000000000284,
                "tempo": 120.0
            },
            {
                "start_time": 77.18636363636364,
                "end_time": 80.40227272727272,
                "pitch": 0,
                "velocity": 51,
                "duration": 3.2159090909090793,
                "tempo": 120.0
            },
            {
                "start_time": 80.39999999999999,
                "end_time": 80.40227272727272,
                "pitch": 0,
                "velocity": 51,
                "duration": 0.0022727272727252057,
                "tempo": 120.0
            },
            {
                "start_time": 77.99772727272727,
                "end_time": 80.60681818181818,
                "pitch": 38,
                "velocity": 51,
                "duration": 2.6090909090909093,
                "tempo": 120.0
            },
            {
                "start_time": 80.40227272727272,
                "end_time": 80.60681818181818,
                "pitch": 38,
                "velocity": 51,
                "duration": 0.20454545454546746,
                "tempo": 120.0
            },
            {
                "start_time": 81.01363636363637,
                "end_time": 81.21363636363635,
                "pitch": 38,
                "velocity": 51,
                "duration": 0.19999999999998863,
                "tempo": 120.0
            },
            {
                "start_time": 79.20454545454545,
                "end_time": 81.41363636363636,
                "pitch": 40,
                "velocity": 51,
                "duration": 2.2090909090909037,
                "tempo": 120.0
            },
            {
                "start_time": 81.21363636363635,
                "end_time": 81.41363636363636,
                "pitch": 40,
                "velocity": 51,
                "duration": 0.20000000000000284,
                "tempo": 120.0
            },
            {
                "start_time": 81.81590909090909,
                "end_time": 82.01590909090909,
                "pitch": 40,
                "velocity": 51,
                "duration": 0.20000000000000284,
                "tempo": 120.0
            },
            {
                "start_time": 82.01590909090909,
                "end_time": 82.22272727272727,
                "pitch": 40,
                "velocity": 51,
                "duration": 0.20681818181817846,
                "tempo": 120.0
            },
            {
                "start_time": 78.99772727272727,
                "end_time": 82.22272727272727,
                "pitch": 41,
                "velocity": 51,
                "duration": 3.2249999999999943,
                "tempo": 120.0
            },
            {
                "start_time": 82.22272727272727,
                "end_time": 82.42727272727272,
                "pitch": 36,
                "velocity": 51,
                "duration": 0.20454545454545325,
                "tempo": 120.0
            },
            {
                "start_time": 82.42727272727272,
                "end_time": 82.62727272727273,
                "pitch": 33,
                "velocity": 51,
                "duration": 0.20000000000000284,
                "tempo": 120.0
            },
            {
                "start_time": 82.62727272727273,
                "end_time": 82.82727272727273,
                "pitch": 45,
                "velocity": 51,
                "duration": 0.20000000000000284,
                "tempo": 120.0
            },
            {
                "start_time": 82.82954545454545,
                "end_time": 83.02499999999999,
                "pitch": 31,
                "velocity": 51,
                "duration": 0.19545454545453822,
                "tempo": 120.0
            },
            {
                "start_time": 83.02499999999999,
                "end_time": 83.22045454545454,
                "pitch": 31,
                "velocity": 51,
                "duration": 0.19545454545455243,
                "tempo": 120.0
            },
            {
                "start_time": 70.74090909090908,
                "end_time": 83.42272727272727,
                "pitch": 19,
                "velocity": 51,
                "duration": 12.681818181818187,
                "tempo": 120.0
            },
            {
                "start_time": 83.22045454545454,
                "end_time": 83.42272727272727,
                "pitch": 35,
                "velocity": 51,
                "duration": 0.20227272727272805,
                "tempo": 120.0
            },
            {
                "start_time": 83.42272727272727,
                "end_time": 83.625,
                "pitch": 36,
                "velocity": 51,
                "duration": 0.20227272727272805,
                "tempo": 120.0
            },
            {
                "start_time": 83.625,
                "end_time": 85.23181818181818,
                "pitch": 36,
                "velocity": 51,
                "duration": 1.6068181818181841,
                "tempo": 120.0
            },
            {
                "start_time": 85.23181818181818,
                "end_time": 86.84318181818182,
                "pitch": 36,
                "velocity": 51,
                "duration": 1.6113636363636346,
                "tempo": 120.0
            },
            {
                "start_time": 86.84318181818182,
                "end_time": 88.44999999999999,
                "pitch": 36,
                "velocity": 51,
                "duration": 1.60681818181817,
                "tempo": 120.0
            },
            {
                "start_time": 88.44999999999999,
                "end_time": 90.06136363636364,
                "pitch": 36,
                "velocity": 51,
                "duration": 1.6113636363636488,
                "tempo": 120.0
            }
        ],
        "Trumpet": [
            {
                "start_time": 6.634090909090909,
                "end_time": 6.7340909090909085,
                "pitch": 67,
                "velocity": 64,
                "duration": 0.09999999999999964,
                "tempo": 120.0
            },
            {
                "start_time": 6.7340909090909085,
                "end_time": 6.834090909090909,
                "pitch": 70,
                "velocity": 64,
                "duration": 0.10000000000000053,
                "tempo": 120.0
            },
            {
                "start_time": 6.836363636363636,
                "end_time": 7.620454545454545,
                "pitch": 72,
                "velocity": 64,
                "duration": 0.7840909090909092,
                "tempo": 120.0
            },
            {
                "start_time": 7.620454545454545,
                "end_time": 8.031818181818181,
                "pitch": 74,
                "velocity": 64,
                "duration": 0.41136363636363615,
                "tempo": 120.0
            },
            {
                "start_time": 8.031818181818181,
                "end_time": 8.236363636363636,
                "pitch": 77,
                "velocity": 64,
                "duration": 0.20454545454545503,
                "tempo": 120.0
            },
            {
                "start_time": 8.238636363636363,
                "end_time": 8.34090909090909,
                "pitch": 77,
                "velocity": 64,
                "duration": 0.10227272727272663,
                "tempo": 120.0
            },
            {
                "start_time": 8.031818181818181,
                "end_time": 8.443181818181818,
                "pitch": 74,
                "velocity": 64,
                "duration": 0.41136363636363704,
                "tempo": 120.0
            },
            {
                "start_time": 8.34090909090909,
                "end_time": 8.443181818181818,
                "pitch": 74,
                "velocity": 64,
                "duration": 0.1022727272727284,
                "tempo": 120.0
            },
            {
                "start_time": 7.620454545454545,
                "end_time": 9.256818181818181,
                "pitch": 72,
                "velocity": 64,
                "duration": 1.6363636363636358,
                "tempo": 120.0
            },
            {
                "start_time": 8.443181818181818,
                "end_time": 9.256818181818181,
                "pitch": 72,
                "velocity": 64,
                "duration": 0.8136363636363626,
                "tempo": 120.0
            },
            {
                "start_time": 9.256818181818181,
                "end_time": 9.64090909090909,
                "pitch": 75,
                "velocity": 64,
                "duration": 0.3840909090909097,
                "tempo": 120.0
            },
            {
                "start_time": 9.64090909090909,
                "end_time": 10.443181818181818,
                "pitch": 75,
                "velocity": 64,
                "duration": 0.8022727272727277,
                "tempo": 120.0
            },
            {
                "start_time": 10.443181818181818,
                "end_time": 11.259090909090908,
                "pitch": 82,
                "velocity": 64,
                "duration": 0.8159090909090896,
                "tempo": 120.0
            },
            {
                "start_time": 11.259090909090908,
                "end_time": 11.361363636363636,
                "pitch": 84,
                "velocity": 64,
                "duration": 0.1022727272727284,
                "tempo": 120.0
            },
            {
                "start_time": 11.259090909090908,
                "end_time": 11.463636363636363,
                "pitch": 62,
                "velocity": 64,
                "duration": 0.20454545454545503,
                "tempo": 120.0
            },
            {
                "start_time": 11.361363636363636,
                "end_time": 11.463636363636363,
                "pitch": 82,
                "velocity": 64,
                "duration": 0.10227272727272663,
                "tempo": 120.0
            },
            {
                "start_time": 11.463636363636363,
                "end_time": 12.877272727272727,
                "pitch": 84,
                "velocity": 64,
                "duration": 1.413636363636364,
                "tempo": 120.0
            }
        ],
        "Clarinet": [
            {
                "start_time": 13.06590909090909,
                "end_time": 15.479545454545454,
                "pitch": 64,
                "velocity": 51,
                "duration": 2.413636363636364,
                "tempo": 120.0
            },
            {
                "start_time": 15.479545454545454,
                "end_time": 15.884090909090908,
                "pitch": 55,
                "velocity": 51,
                "duration": 0.4045454545454543,
                "tempo": 120.0
            },
            {
                "start_time": 15.884090909090908,
                "end_time": 16.286363636363635,
                "pitch": 60,
                "velocity": 51,
                "duration": 0.40227272727272734,
                "tempo": 120.0
            },
            {
                "start_time": 16.286363636363635,
                "end_time": 16.888636363636362,
                "pitch": 65,
                "velocity": 51,
                "duration": 0.6022727272727266,
                "tempo": 120.0
            },
            {
                "start_time": 16.888636363636362,
                "end_time": 17.49090909090909,
                "pitch": 65,
                "velocity": 51,
                "duration": 0.6022727272727266,
                "tempo": 120.0
            },
            {
                "start_time": 16.286363636363635,
                "end_time": 18.09318181818182,
                "pitch": 60,
                "velocity": 51,
                "duration": 1.8068181818181834,
                "tempo": 120.0
            },
            {
                "start_time": 17.49090909090909,
                "end_time": 18.09318181818182,
                "pitch": 60,
                "velocity": 51,
                "duration": 0.6022727272727302,
                "tempo": 120.0
            },
            {
                "start_time": 17.49090909090909,
                "end_time": 18.09318181818182,
                "pitch": 64,
                "velocity": 51,
                "duration": 0.6022727272727302,
                "tempo": 120.0
            },
            {
                "start_time": 18.09318181818182,
                "end_time": 18.695454545454545,
                "pitch": 57,
                "velocity": 51,
                "duration": 0.6022727272727266,
                "tempo": 120.0
            },
            {
                "start_time": 18.69772727272727,
                "end_time": 19.097727272727273,
                "pitch": 60,
                "velocity": 51,
                "duration": 0.40000000000000213,
                "tempo": 120.0
            },
            {
                "start_time": 19.097727272727273,
                "end_time": 19.49772727272727,
                "pitch": 62,
                "velocity": 51,
                "duration": 0.3999999999999986,
                "tempo": 120.0
            },
            {
                "start_time": 19.5,
                "end_time": 20.099999999999998,
                "pitch": 65,
                "velocity": 51,
                "duration": 0.5999999999999979,
                "tempo": 120.0
            },
            {
                "start_time": 18.09318181818182,
                "end_time": 20.709090909090907,
                "pitch": 64,
                "velocity": 51,
                "duration": 2.6159090909090885,
                "tempo": 120.0
            },
            {
                "start_time": 20.102272727272727,
                "end_time": 20.709090909090907,
                "pitch": 65,
                "velocity": 51,
                "duration": 0.6068181818181806,
                "tempo": 120.0
            },
            {
                "start_time": 19.097727272727273,
                "end_time": 21.30909090909091,
                "pitch": 60,
                "velocity": 51,
                "duration": 2.211363636363636,
                "tempo": 120.0
            },
            {
                "start_time": 20.709090909090907,
                "end_time": 21.30909090909091,
                "pitch": 60,
                "velocity": 51,
                "duration": 0.6000000000000014,
                "tempo": 120.0
            },
            {
                "start_time": 21.30909090909091,
                "end_time": 21.920454545454543,
                "pitch": 65,
                "velocity": 51,
                "duration": 0.6113636363636346,
                "tempo": 120.0
            },
            {
                "start_time": 21.920454545454543,
                "end_time": 22.32272727272727,
                "pitch": 65,
                "velocity": 51,
                "duration": 0.40227272727272734,
                "tempo": 120.0
            },
            {
                "start_time": 20.709090909090907,
                "end_time": 22.724999999999998,
                "pitch": 64,
                "velocity": 51,
                "duration": 2.0159090909090907,
                "tempo": 120.0
            },
            {
                "start_time": 22.32272727272727,
                "end_time": 22.724999999999998,
                "pitch": 64,
                "velocity": 51,
                "duration": 0.40227272727272734,
                "tempo": 120.0
            },
            {
                "start_time": 15.884090909090908,
                "end_time": 23.293181818181818,
                "pitch": 0,
                "velocity": 51,
                "duration": 7.40909090909091,
                "tempo": 120.0
            },
            {
                "start_time": 22.724999999999998,
                "end_time": 23.293181818181818,
                "pitch": 67,
                "velocity": 51,
                "duration": 0.5681818181818201,
                "tempo": 120.0
            },
            {
                "start_time": 23.293181818181818,
                "end_time": 23.34318181818182,
                "pitch": 67,
                "velocity": 51,
                "duration": 0.05000000000000071,
                "tempo": 120.0
            },
            {
                "start_time": 23.293181818181818,
                "end_time": 23.427272727272726,
                "pitch": 0,
                "velocity": 51,
                "duration": 0.13409090909090793,
                "tempo": 120.0
            },
            {
                "start_time": 23.34318181818182,
                "end_time": 23.427272727272726,
                "pitch": 67,
                "velocity": 51,
                "duration": 0.08409090909090722,
                "tempo": 120.0
            },
            {
                "start_time": 23.427272727272726,
                "end_time": 23.477272727272727,
                "pitch": 67,
                "velocity": 51,
                "duration": 0.05000000000000071,
                "tempo": 120.0
            },
            {
                "start_time": 23.34318181818182,
                "end_time": 23.477272727272727,
                "pitch": 79,
                "velocity": 51,
                "duration": 0.13409090909090793,
                "tempo": 120.0
            },
            {
                "start_time": 23.427272727272726,
                "end_time": 23.561363636363634,
                "pitch": 0,
                "velocity": 51,
                "duration": 0.13409090909090793,
                "tempo": 120.0
            },
            {
                "start_time": 23.477272727272727,
                "end_time": 23.561363636363634,
                "pitch": 67,
                "velocity": 51,
                "duration": 0.08409090909090722,
                "tempo": 120.0
            },
            {
                "start_time": 23.561363636363634,
                "end_time": 23.611363636363635,
                "pitch": 67,
                "velocity": 51,
                "duration": 0.05000000000000071,
                "tempo": 120.0
            },
            {
                "start_time": 23.477272727272727,
                "end_time": 23.611363636363635,
                "pitch": 79,
                "velocity": 51,
                "duration": 0.13409090909090793,
                "tempo": 120.0
            },
            {
                "start_time": 23.561363636363634,
                "end_time": 23.693181818181817,
                "pitch": 0,
                "velocity": 51,
                "duration": 0.13181818181818272,
                "tempo": 120.0
            },
            {
                "start_time": 23.611363636363635,
                "end_time": 23.693181818181817,
                "pitch": 67,
                "velocity": 51,
                "duration": 0.08181818181818201,
                "tempo": 120.0
            },
            {
                "start_time": 23.693181818181817,
                "end_time": 23.743181818181817,
                "pitch": 67,
                "velocity": 51,
                "duration": 0.05000000000000071,
                "tempo": 120.0
            },
            {
                "start_time": 23.611363636363635,
                "end_time": 23.743181818181817,
                "pitch": 79,
                "velocity": 51,
                "duration": 0.13181818181818272,
                "tempo": 120.0
            },
            {
                "start_time": 23.693181818181817,
                "end_time": 23.827272727272724,
                "pitch": 0,
                "velocity": 51,
                "duration": 0.13409090909090793,
                "tempo": 120.0
            },
            {
                "start_time": 23.743181818181817,
                "end_time": 23.827272727272724,
                "pitch": 67,
                "velocity": 51,
                "duration": 0.08409090909090722,
                "tempo": 120.0
            },
            {
                "start_time": 23.827272727272724,
                "end_time": 23.877272727272725,
                "pitch": 67,
                "velocity": 51,
                "duration": 0.05000000000000071,
                "tempo": 120.0
            },
            {
                "start_time": 23.743181818181817,
                "end_time": 23.877272727272725,
                "pitch": 79,
                "velocity": 51,
                "duration": 0.13409090909090793,
                "tempo": 120.0
            },
            {
                "start_time": 23.877272727272725,
                "end_time": 23.929545454545455,
                "pitch": 67,
                "velocity": 51,
                "duration": 0.05227272727272947,
                "tempo": 120.0
            },
            {
                "start_time": 22.724999999999998,
                "end_time": 24.13181818181818,
                "pitch": 78,
                "velocity": 51,
                "duration": 1.4068181818181813,
                "tempo": 120.0
            },
            {
                "start_time": 24.13181818181818,
                "end_time": 24.229545454545452,
                "pitch": 67,
                "velocity": 51,
                "duration": 0.09772727272727266,
                "tempo": 120.0
            },
            {
                "start_time": 23.827272727272724,
                "end_time": 24.23181818181818,
                "pitch": 0,
                "velocity": 51,
                "duration": 0.4045454545454561,
                "tempo": 120.0
            },
            {
                "start_time": 24.23181818181818,
                "end_time": 24.331818181818182,
                "pitch": 65,
                "velocity": 51,
                "duration": 0.10000000000000142,
                "tempo": 120.0
            },
            {
                "start_time": 24.331818181818182,
                "end_time": 25.136363636363637,
                "pitch": 65,
                "velocity": 51,
                "duration": 0.8045454545454547,
                "tempo": 120.0
            },
            {
                "start_time": 25.136363636363637,
                "end_time": 25.336363636363636,
                "pitch": 60,
                "velocity": 51,
                "duration": 0.1999999999999993,
                "tempo": 120.0
            },
            {
                "start_time": 25.336363636363636,
                "end_time": 25.536363636363635,
                "pitch": 60,
                "velocity": 51,
                "duration": 0.1999999999999993,
                "tempo": 120.0
            },
            {
                "start_time": 19.5,
                "end_time": 25.736363636363635,
                "pitch": 62,
                "velocity": 51,
                "duration": 6.2363636363636346,
                "tempo": 120.0
            },
            {
                "start_time": 25.536363636363635,
                "end_time": 25.736363636363635,
                "pitch": 62,
                "velocity": 51,
                "duration": 0.1999999999999993,
                "tempo": 120.0
            },
            {
                "start_time": 25.736363636363635,
                "end_time": 25.936363636363634,
                "pitch": 62,
                "velocity": 51,
                "duration": 0.1999999999999993,
                "tempo": 120.0
            },
            {
                "start_time": 25.938636363636363,
                "end_time": 28.352272727272727,
                "pitch": 63,
                "velocity": 51,
                "duration": 2.413636363636364,
                "tempo": 120.0
            },
            {
                "start_time": 15.479545454545454,
                "end_time": 28.352272727272727,
                "pitch": 66,
                "velocity": 51,
                "duration": 12.872727272727273,
                "tempo": 120.0
            },
            {
                "start_time": 24.23181818181818,
                "end_time": 28.754545454545454,
                "pitch": 0,
                "velocity": 51,
                "duration": 4.522727272727273,
                "tempo": 120.0
            },
            {
                "start_time": 28.352272727272727,
                "end_time": 28.754545454545454,
                "pitch": 55,
                "velocity": 51,
                "duration": 0.40227272727272734,
                "tempo": 120.0
            },
            {
                "start_time": 25.536363636363635,
                "end_time": 29.15681818181818,
                "pitch": 60,
                "velocity": 51,
                "duration": 3.620454545454546,
                "tempo": 120.0
            },
            {
                "start_time": 28.754545454545454,
                "end_time": 29.15681818181818,
                "pitch": 60,
                "velocity": 51,
                "duration": 0.40227272727272734,
                "tempo": 120.0
            },
            {
                "start_time": 29.15681818181818,
                "end_time": 29.763636363636362,
                "pitch": 65,
                "velocity": 51,
                "duration": 0.6068181818181806,
                "tempo": 120.0
            },
            {
                "start_time": 25.136363636363637,
                "end_time": 30.36590909090909,
                "pitch": 64,
                "velocity": 51,
                "duration": 5.229545454545452,
                "tempo": 120.0
            },
            {
                "start_time": 29.763636363636362,
                "end_time": 30.36590909090909,
                "pitch": 65,
                "velocity": 51,
                "duration": 0.6022727272727266,
                "tempo": 120.0
            },
            {
                "start_time": 29.15681818181818,
                "end_time": 30.968181818181815,
                "pitch": 60,
                "velocity": 51,
                "duration": 1.8113636363636338,
                "tempo": 120.0
            },
            {
                "start_time": 30.36590909090909,
                "end_time": 30.968181818181815,
                "pitch": 60,
                "velocity": 51,
                "duration": 0.6022727272727266,
                "tempo": 120.0
            },
            {
                "start_time": 30.36590909090909,
                "end_time": 30.968181818181815,
                "pitch": 64,
                "velocity": 51,
                "duration": 0.6022727272727266,
                "tempo": 120.0
            },
            {
                "start_time": 18.69772727272727,
                "end_time": 31.570454545454545,
                "pitch": 28,
                "velocity": 51,
                "duration": 12.872727272727275,
                "tempo": 120.0
            },
            {
                "start_time": 30.968181818181815,
                "end_time": 31.570454545454545,
                "pitch": 57,
                "velocity": 51,
                "duration": 0.6022727272727302,
                "tempo": 120.0
            },
            {
                "start_time": 31.570454545454545,
                "end_time": 31.970454545454544,
                "pitch": 60,
                "velocity": 51,
                "duration": 0.3999999999999986,
                "tempo": 120.0
            },
            {
                "start_time": 31.970454545454544,
                "end_time": 32.37272727272727,
                "pitch": 62,
                "velocity": 51,
                "duration": 0.4022727272727238,
                "tempo": 120.0
            },
            {
                "start_time": 32.37272727272727,
                "end_time": 32.975,
                "pitch": 65,
                "velocity": 51,
                "duration": 0.6022727272727337,
                "tempo": 120.0
            },
            {
                "start_time": 32.975,
                "end_time": 33.574999999999996,
                "pitch": 65,
                "velocity": 51,
                "duration": 0.5999999999999943,
                "tempo": 120.0
            },
            {
                "start_time": 30.968181818181815,
                "end_time": 33.57727272727273,
                "pitch": 64,
                "velocity": 51,
                "duration": 2.609090909090913,
                "tempo": 120.0
            },
            {
                "start_time": 21.30909090909091,
                "end_time": 34.17727272727272,
                "pitch": 59,
                "velocity": 51,
                "duration": 12.868181818181814,
                "tempo": 120.0
            },
            {
                "start_time": 31.970454545454544,
                "end_time": 34.17727272727272,
                "pitch": 60,
                "velocity": 51,
                "duration": 2.2068181818181785,
                "tempo": 120.0
            },
            {
                "start_time": 33.57727272727273,
                "end_time": 34.17727272727272,
                "pitch": 60,
                "velocity": 51,
                "duration": 0.5999999999999943,
                "tempo": 120.0
            },
            {
                "start_time": 34.17727272727272,
                "end_time": 34.779545454545456,
                "pitch": 65,
                "velocity": 51,
                "duration": 0.6022727272727337,
                "tempo": 120.0
            },
            {
                "start_time": 34.779545454545456,
                "end_time": 35.18636363636364,
                "pitch": 65,
                "velocity": 51,
                "duration": 0.4068181818181813,
                "tempo": 120.0
            },
            {
                "start_time": 35.18636363636364,
                "end_time": 35.59318181818182,
                "pitch": 58,
                "velocity": 51,
                "duration": 0.4068181818181813,
                "tempo": 120.0
            },
            {
                "start_time": 35.18636363636364,
                "end_time": 36.18636363636364,
                "pitch": 65,
                "velocity": 51,
                "duration": 1.0,
                "tempo": 120.0
            },
            {
                "start_time": 35.59318181818182,
                "end_time": 36.18636363636364,
                "pitch": 65,
                "velocity": 51,
                "duration": 0.5931818181818187,
                "tempo": 120.0
            },
            {
                "start_time": 36.18636363636364,
                "end_time": 36.28409090909091,
                "pitch": 65,
                "velocity": 51,
                "duration": 0.09772727272726911,
                "tempo": 120.0
            },
            {
                "start_time": 33.57727272727273,
                "end_time": 36.38636363636363,
                "pitch": 64,
                "velocity": 51,
                "duration": 2.809090909090905,
                "tempo": 120.0
            },
            {
                "start_time": 36.28636363636363,
                "end_time": 36.38636363636363,
                "pitch": 64,
                "velocity": 51,
                "duration": 0.10000000000000142,
                "tempo": 120.0
            },
            {
                "start_time": 36.38636363636363,
                "end_time": 38.4,
                "pitch": 65,
                "velocity": 51,
                "duration": 2.0136363636363654,
                "tempo": 120.0
            },
            {
                "start_time": 34.17727272727272,
                "end_time": 45.22954545454545,
                "pitch": 59,
                "velocity": 51,
                "duration": 11.05227272727273,
                "tempo": 120.0
            },
            {
                "start_time": 45.22954545454545,
                "end_time": 47.63409090909091,
                "pitch": 64,
                "velocity": 51,
                "duration": 2.404545454545456,
                "tempo": 120.0
            },
            {
                "start_time": 28.352272727272727,
                "end_time": 47.63636363636363,
                "pitch": 66,
                "velocity": 51,
                "duration": 19.284090909090907,
                "tempo": 120.0
            },
            {
                "start_time": 47.63409090909091,
                "end_time": 47.63636363636363,
                "pitch": 66,
                "velocity": 51,
                "duration": 0.0022727272727252057,
                "tempo": 120.0
            },
            {
                "start_time": 28.754545454545454,
                "end_time": 48.03636363636363,
                "pitch": 0,
                "velocity": 51,
                "duration": 19.281818181818178,
                "tempo": 120.0
            },
            {
                "start_time": 47.63636363636363,
                "end_time": 48.03636363636363,
                "pitch": 55,
                "velocity": 51,
                "duration": 0.3999999999999986,
                "tempo": 120.0
            },
            {
                "start_time": 48.03636363636363,
                "end_time": 48.43636363636364,
                "pitch": 60,
                "velocity": 51,
                "duration": 0.4000000000000057,
                "tempo": 120.0
            },
            {
                "start_time": 48.43863636363636,
                "end_time": 49.038636363636364,
                "pitch": 65,
                "velocity": 51,
                "duration": 0.6000000000000014,
                "tempo": 120.0
            },
            {
                "start_time": 49.038636363636364,
                "end_time": 49.64090909090909,
                "pitch": 65,
                "velocity": 51,
                "duration": 0.6022727272727266,
                "tempo": 120.0
            },
            {
                "start_time": 48.43863636363636,
                "end_time": 50.24318181818182,
                "pitch": 60,
                "velocity": 51,
                "duration": 1.8045454545454547,
                "tempo": 120.0
            },
            {
                "start_time": 49.64090909090909,
                "end_time": 50.24318181818182,
                "pitch": 60,
                "velocity": 51,
                "duration": 0.6022727272727266,
                "tempo": 120.0
            },
            {
                "start_time": 49.64090909090909,
                "end_time": 50.24318181818182,
                "pitch": 64,
                "velocity": 51,
                "duration": 0.6022727272727266,
                "tempo": 120.0
            },
            {
                "start_time": 50.24318181818182,
                "end_time": 50.84772727272727,
                "pitch": 57,
                "velocity": 51,
                "duration": 0.6045454545454518,
                "tempo": 120.0
            },
            {
                "start_time": 31.570454545454545,
                "end_time": 50.849999999999994,
                "pitch": 28,
                "velocity": 51,
                "duration": 19.27954545454545,
                "tempo": 120.0
            },
            {
                "start_time": 50.84772727272727,
                "end_time": 50.849999999999994,
                "pitch": 28,
                "velocity": 51,
                "duration": 0.0022727272727252057,
                "tempo": 120.0
            },
            {
                "start_time": 50.849999999999994,
                "end_time": 51.25681818181818,
                "pitch": 60,
                "velocity": 51,
                "duration": 0.4068181818181884,
                "tempo": 120.0
            },
            {
                "start_time": 32.37272727272727,
                "end_time": 51.65909090909091,
                "pitch": 62,
                "velocity": 51,
                "duration": 19.28636363636364,
                "tempo": 120.0
            },
            {
                "start_time": 51.25681818181818,
                "end_time": 51.65909090909091,
                "pitch": 62,
                "velocity": 51,
                "duration": 0.4022727272727238,
                "tempo": 120.0
            },
            {
                "start_time": 51.65909090909091,
                "end_time": 52.25909090909091,
                "pitch": 65,
                "velocity": 51,
                "duration": 0.6000000000000014,
                "tempo": 120.0
            },
            {
                "start_time": 50.24318181818182,
                "end_time": 52.85909090909091,
                "pitch": 64,
                "velocity": 51,
                "duration": 2.615909090909092,
                "tempo": 120.0
            },
            {
                "start_time": 52.25909090909091,
                "end_time": 52.85909090909091,
                "pitch": 65,
                "velocity": 51,
                "duration": 0.6000000000000014,
                "tempo": 120.0
            },
            {
                "start_time": 45.22954545454545,
                "end_time": 53.46363636363636,
                "pitch": 59,
                "velocity": 51,
                "duration": 8.23409090909091,
                "tempo": 120.0
            },
            {
                "start_time": 51.25681818181818,
                "end_time": 53.46363636363636,
                "pitch": 60,
                "velocity": 51,
                "duration": 2.2068181818181785,
                "tempo": 120.0
            },
            {
                "start_time": 52.85909090909091,
                "end_time": 53.46363636363636,
                "pitch": 60,
                "velocity": 51,
                "duration": 0.6045454545454518,
                "tempo": 120.0
            },
            {
                "start_time": 53.46363636363636,
                "end_time": 54.06363636363636,
                "pitch": 65,
                "velocity": 51,
                "duration": 0.6000000000000014,
                "tempo": 120.0
            },
            {
                "start_time": 54.06363636363636,
                "end_time": 54.46363636363636,
                "pitch": 65,
                "velocity": 51,
                "duration": 0.3999999999999986,
                "tempo": 120.0
            },
            {
                "start_time": 52.85909090909091,
                "end_time": 54.865909090909085,
                "pitch": 64,
                "velocity": 51,
                "duration": 2.0068181818181756,
                "tempo": 120.0
            },
            {
                "start_time": 54.465909090909086,
                "end_time": 54.865909090909085,
                "pitch": 64,
                "velocity": 51,
                "duration": 0.3999999999999986,
                "tempo": 120.0
            },
            {
                "start_time": 24.13181818181818,
                "end_time": 54.865909090909085,
                "pitch": 78,
                "velocity": 51,
                "duration": 30.734090909090906,
                "tempo": 120.0
            },
            {
                "start_time": 48.03636363636363,
                "end_time": 55.434090909090905,
                "pitch": 0,
                "velocity": 51,
                "duration": 7.397727272727273,
                "tempo": 120.0
            },
            {
                "start_time": 54.865909090909085,
                "end_time": 55.434090909090905,
                "pitch": 67,
                "velocity": 51,
                "duration": 0.5681818181818201,
                "tempo": 120.0
            },
            {
                "start_time": 55.434090909090905,
                "end_time": 55.48409090909091,
                "pitch": 67,
                "velocity": 51,
                "duration": 0.05000000000000426,
                "tempo": 120.0
            },
            {
                "start_time": 23.877272727272725,
                "end_time": 55.48409090909091,
                "pitch": 79,
                "velocity": 51,
                "duration": 31.606818181818184,
                "tempo": 120.0
            },
            {
                "start_time": 55.434090909090905,
                "end_time": 55.56818181818181,
                "pitch": 0,
                "velocity": 51,
                "duration": 0.13409090909090793,
                "tempo": 120.0
            },
            {
                "start_time": 55.48409090909091,
                "end_time": 55.56818181818181,
                "pitch": 67,
                "velocity": 51,
                "duration": 0.08409090909090366,
                "tempo": 120.0
            },
            {
                "start_time": 55.56818181818181,
                "end_time": 55.61818181818182,
                "pitch": 67,
                "velocity": 51,
                "duration": 0.05000000000000426,
                "tempo": 120.0
            },
            {
                "start_time": 55.48409090909091,
                "end_time": 55.61818181818182,
                "pitch": 79,
                "velocity": 51,
                "duration": 0.13409090909090793,
                "tempo": 120.0
            },
            {
                "start_time": 55.56818181818181,
                "end_time": 55.70227272727273,
                "pitch": 0,
                "velocity": 51,
                "duration": 0.13409090909091503,
                "tempo": 120.0
            },
            {
                "start_time": 55.61818181818182,
                "end_time": 55.70227272727273,
                "pitch": 67,
                "velocity": 51,
                "duration": 0.08409090909091077,
                "tempo": 120.0
            },
            {
                "start_time": 55.70227272727273,
                "end_time": 55.752272727272725,
                "pitch": 67,
                "velocity": 51,
                "duration": 0.04999999999999716,
                "tempo": 120.0
            },
            {
                "start_time": 55.61818181818182,
                "end_time": 55.752272727272725,
                "pitch": 79,
                "velocity": 51,
                "duration": 0.13409090909090793,
                "tempo": 120.0
            },
            {
                "start_time": 55.70227272727273,
                "end_time": 55.836363636363636,
                "pitch": 0,
                "velocity": 51,
                "duration": 0.13409090909090793,
                "tempo": 120.0
            },
            {
                "start_time": 55.752272727272725,
                "end_time": 55.836363636363636,
                "pitch": 67,
                "velocity": 51,
                "duration": 0.08409090909091077,
                "tempo": 120.0
            },
            {
                "start_time": 55.836363636363636,
                "end_time": 55.88636363636363,
                "pitch": 67,
                "velocity": 51,
                "duration": 0.04999999999999716,
                "tempo": 120.0
            },
            {
                "start_time": 55.752272727272725,
                "end_time": 55.88636363636363,
                "pitch": 79,
                "velocity": 51,
                "duration": 0.13409090909090793,
                "tempo": 120.0
            },
            {
                "start_time": 55.836363636363636,
                "end_time": 55.96818181818182,
                "pitch": 0,
                "velocity": 51,
                "duration": 0.13181818181818272,
                "tempo": 120.0
            },
            {
                "start_time": 55.88636363636363,
                "end_time": 55.96818181818182,
                "pitch": 67,
                "velocity": 51,
                "duration": 0.08181818181818556,
                "tempo": 120.0
            },
            {
                "start_time": 55.96818181818182,
                "end_time": 56.018181818181816,
                "pitch": 67,
                "velocity": 51,
                "duration": 0.04999999999999716,
                "tempo": 120.0
            },
            {
                "start_time": 55.88636363636363,
                "end_time": 56.018181818181816,
                "pitch": 79,
                "velocity": 51,
                "duration": 0.13181818181818272,
                "tempo": 120.0
            },
            {
                "start_time": 56.018181818181816,
                "end_time": 56.070454545454545,
                "pitch": 67,
                "velocity": 51,
                "duration": 0.05227272727272947,
                "tempo": 120.0
            },
            {
                "start_time": 54.865909090909085,
                "end_time": 56.27045454545454,
                "pitch": 78,
                "velocity": 51,
                "duration": 1.404545454545456,
                "tempo": 120.0
            },
            {
                "start_time": 55.96818181818182,
                "end_time": 56.37045454545454,
                "pitch": 0,
                "velocity": 51,
                "duration": 0.4022727272727238,
                "tempo": 120.0
            },
            {
                "start_time": 56.27045454545454,
                "end_time": 56.37045454545454,
                "pitch": 67,
                "velocity": 51,
                "duration": 0.10000000000000142,
                "tempo": 120.0
            },
            {
                "start_time": 56.37045454545454,
                "end_time": 56.470454545454544,
                "pitch": 65,
                "velocity": 51,
                "duration": 0.10000000000000142,
                "tempo": 120.0
            },
            {
                "start_time": 56.470454545454544,
                "end_time": 57.277272727272724,
                "pitch": 65,
                "velocity": 51,
                "duration": 0.8068181818181799,
                "tempo": 120.0
            },
            {
                "start_time": 57.277272727272724,
                "end_time": 57.48181818181818,
                "pitch": 60,
                "velocity": 51,
                "duration": 0.20454545454545325,
                "tempo": 120.0
            },
            {
                "start_time": 57.48181818181818,
                "end_time": 57.684090909090905,
                "pitch": 60,
                "velocity": 51,
                "duration": 0.20227272727272805,
                "tempo": 120.0
            },
            {
                "start_time": 51.65909090909091,
                "end_time": 57.88409090909091,
                "pitch": 62,
                "velocity": 51,
                "duration": 6.225000000000001,
                "tempo": 120.0
            },
            {
                "start_time": 57.684090909090905,
                "end_time": 57.88409090909091,
                "pitch": 62,
                "velocity": 51,
                "duration": 0.20000000000000284,
                "tempo": 120.0
            },
            {
                "start_time": 57.88409090909091,
                "end_time": 58.084090909090904,
                "pitch": 62,
                "velocity": 51,
                "duration": 0.19999999999999574,
                "tempo": 120.0
            },
            {
                "start_time": 58.084090909090904,
                "end_time": 60.490909090909085,
                "pitch": 63,
                "velocity": 51,
                "duration": 2.4068181818181813,
                "tempo": 120.0
            },
            {
                "start_time": 56.37045454545454,
                "end_time": 60.893181818181816,
                "pitch": 0,
                "velocity": 51,
                "duration": 4.522727272727273,
                "tempo": 120.0
            },
            {
                "start_time": 60.490909090909085,
                "end_time": 60.893181818181816,
                "pitch": 55,
                "velocity": 51,
                "duration": 0.4022727272727309,
                "tempo": 120.0
            },
            {
                "start_time": 57.684090909090905,
                "end_time": 61.293181818181814,
                "pitch": 60,
                "velocity": 51,
                "duration": 3.6090909090909093,
                "tempo": 120.0
            },
            {
                "start_time": 60.893181818181816,
                "end_time": 61.293181818181814,
                "pitch": 60,
                "velocity": 51,
                "duration": 0.3999999999999986,
                "tempo": 120.0
            },
            {
                "start_time": 61.293181818181814,
                "end_time": 61.893181818181816,
                "pitch": 65,
                "velocity": 51,
                "duration": 0.6000000000000014,
                "tempo": 120.0
            },
            {
                "start_time": 57.277272727272724,
                "end_time": 62.49545454545454,
                "pitch": 64,
                "velocity": 51,
                "duration": 5.218181818181819,
                "tempo": 120.0
            },
            {
                "start_time": 61.893181818181816,
                "end_time": 62.49545454545454,
                "pitch": 65,
                "velocity": 51,
                "duration": 0.6022727272727266,
                "tempo": 120.0
            },
            {
                "start_time": 61.293181818181814,
                "end_time": 63.09772727272727,
                "pitch": 60,
                "velocity": 51,
                "duration": 1.8045454545454547,
                "tempo": 120.0
            },
            {
                "start_time": 62.49545454545454,
                "end_time": 63.09772727272727,
                "pitch": 60,
                "velocity": 51,
                "duration": 0.6022727272727266,
                "tempo": 120.0
            },
            {
                "start_time": 62.49545454545454,
                "end_time": 63.09772727272727,
                "pitch": 64,
                "velocity": 51,
                "duration": 0.6022727272727266,
                "tempo": 120.0
            },
            {
                "start_time": 63.09772727272727,
                "end_time": 63.69772727272727,
                "pitch": 57,
                "velocity": 51,
                "duration": 0.6000000000000014,
                "tempo": 120.0
            },
            {
                "start_time": 63.699999999999996,
                "end_time": 64.1,
                "pitch": 60,
                "velocity": 51,
                "duration": 0.3999999999999986,
                "tempo": 120.0
            },
            {
                "start_time": 64.1,
                "end_time": 64.50227272727273,
                "pitch": 62,
                "velocity": 51,
                "duration": 0.4022727272727309,
                "tempo": 120.0
            },
            {
                "start_time": 64.50227272727273,
                "end_time": 65.10227272727272,
                "pitch": 65,
                "velocity": 51,
                "duration": 0.5999999999999943,
                "tempo": 120.0
            },
            {
                "start_time": 63.09772727272727,
                "end_time": 65.7159090909091,
                "pitch": 64,
                "velocity": 51,
                "duration": 2.6181818181818244,
                "tempo": 120.0
            },
            {
                "start_time": 65.10454545454544,
                "end_time": 65.7159090909091,
                "pitch": 65,
                "velocity": 51,
                "duration": 0.6113636363636488,
                "tempo": 120.0
            },
            {
                "start_time": 53.46363636363636,
                "end_time": 66.31818181818181,
                "pitch": 59,
                "velocity": 51,
                "duration": 12.854545454545452,
                "tempo": 120.0
            },
            {
                "start_time": 64.1,
                "end_time": 66.31818181818181,
                "pitch": 60,
                "velocity": 51,
                "duration": 2.2181818181818187,
                "tempo": 120.0
            },
            {
                "start_time": 65.7159090909091,
                "end_time": 66.31818181818181,
                "pitch": 60,
                "velocity": 51,
                "duration": 0.6022727272727195,
                "tempo": 120.0
            },
            {
                "start_time": 66.31818181818181,
                "end_time": 66.92045454545455,
                "pitch": 65,
                "velocity": 51,
                "duration": 0.6022727272727337,
                "tempo": 120.0
            },
            {
                "start_time": 66.92045454545455,
                "end_time": 67.325,
                "pitch": 65,
                "velocity": 51,
                "duration": 0.4045454545454561,
                "tempo": 120.0
            },
            {
                "start_time": 67.325,
                "end_time": 67.725,
                "pitch": 58,
                "velocity": 51,
                "duration": 0.3999999999999915,
                "tempo": 120.0
            },
            {
                "start_time": 35.59318181818182,
                "end_time": 67.72727272727272,
                "pitch": 38,
                "velocity": 51,
                "duration": 32.1340909090909,
                "tempo": 120.0
            },
            {
                "start_time": 67.325,
                "end_time": 68.32954545454545,
                "pitch": 65,
                "velocity": 51,
                "duration": 1.0045454545454504,
                "tempo": 120.0
            },
            {
                "start_time": 67.72727272727272,
                "end_time": 68.32954545454545,
                "pitch": 65,
                "velocity": 51,
                "duration": 0.6022727272727337,
                "tempo": 120.0
            },
            {
                "start_time": 68.32954545454545,
                "end_time": 68.42954545454545,
                "pitch": 65,
                "velocity": 51,
                "duration": 0.09999999999999432,
                "tempo": 120.0
            },
            {
                "start_time": 65.7159090909091,
                "end_time": 68.52954545454546,
                "pitch": 64,
                "velocity": 51,
                "duration": 2.8136363636363626,
                "tempo": 120.0
            },
            {
                "start_time": 68.42954545454545,
                "end_time": 68.52954545454546,
                "pitch": 64,
                "velocity": 51,
                "duration": 0.10000000000000853,
                "tempo": 120.0
            },
            {
                "start_time": 68.52954545454546,
                "end_time": 70.3409090909091,
                "pitch": 65,
                "velocity": 51,
                "duration": 1.8113636363636374,
                "tempo": 120.0
            }
        ],
        "Vibraphone": [
            {
                "start_time": 39.00454545454545,
                "end_time": 39.20454545454545,
                "pitch": 64,
                "velocity": 51,
                "duration": 0.20000000000000284,
                "tempo": 120.0
            },
            {
                "start_time": 39.20454545454545,
                "end_time": 39.404545454545456,
                "pitch": 62,
                "velocity": 51,
                "duration": 0.20000000000000284,
                "tempo": 120.0
            },
            {
                "start_time": 39.404545454545456,
                "end_time": 42.00909090909091,
                "pitch": 70,
                "velocity": 51,
                "duration": 2.604545454545452,
                "tempo": 120.0
            },
            {
                "start_time": 42.211363636363636,
                "end_time": 42.41136363636363,
                "pitch": 64,
                "velocity": 51,
                "duration": 0.19999999999999574,
                "tempo": 120.0
            },
            {
                "start_time": 42.41136363636363,
                "end_time": 42.61363636363636,
                "pitch": 64,
                "velocity": 51,
                "duration": 0.20227272727272805,
                "tempo": 120.0
            },
            {
                "start_time": 39.404545454545456,
                "end_time": 42.61363636363636,
                "pitch": 77,
                "velocity": 51,
                "duration": 3.2090909090909037,
                "tempo": 120.0
            },
            {
                "start_time": 42.61363636363636,
                "end_time": 45.22727272727273,
                "pitch": 72,
                "velocity": 51,
                "duration": 2.613636363636367,
                "tempo": 120.0
            }
        ],
        "Acoustic Grand Piano": [
            {
                "start_time": 13.259090909090908,
                "end_time": 13.459090909090909,
                "pitch": 60,
                "velocity": 51,
                "duration": 0.20000000000000107,
                "tempo": 120.0
            },
            {
                "start_time": 14.072727272727272,
                "end_time": 14.268181818181818,
                "pitch": 60,
                "velocity": 51,
                "duration": 0.19545454545454533,
                "tempo": 120.0
            },
            {
                "start_time": 14.877272727272727,
                "end_time": 15.077272727272726,
                "pitch": 60,
                "velocity": 51,
                "duration": 0.1999999999999993,
                "tempo": 120.0
            },
            {
                "start_time": 17.49090909090909,
                "end_time": 17.893181818181816,
                "pitch": 65,
                "velocity": 51,
                "duration": 0.40227272727272734,
                "tempo": 120.0
            },
            {
                "start_time": 28.55909090909091,
                "end_time": 28.952272727272724,
                "pitch": 67,
                "velocity": 51,
                "duration": 0.39318181818181586,
                "tempo": 120.0
            },
            {
                "start_time": 40.00454545454545,
                "end_time": 40.809090909090905,
                "pitch": 70,
                "velocity": 51,
                "duration": 0.8045454545454547,
                "tempo": 120.0
            },
            {
                "start_time": 40.809090909090905,
                "end_time": 41.60909090909091,
                "pitch": 67,
                "velocity": 51,
                "duration": 0.8000000000000043,
                "tempo": 120.0
            },
            {
                "start_time": 40.809090909090905,
                "end_time": 41.81136363636364,
                "pitch": 70,
                "velocity": 51,
                "duration": 1.0022727272727323,
                "tempo": 120.0
            },
            {
                "start_time": 41.60909090909091,
                "end_time": 41.81136363636364,
                "pitch": 70,
                "velocity": 51,
                "duration": 0.20227272727272805,
                "tempo": 120.0
            },
            {
                "start_time": 41.81136363636364,
                "end_time": 43.21363636363636,
                "pitch": 64,
                "velocity": 51,
                "duration": 1.4022727272727238,
                "tempo": 120.0
            },
            {
                "start_time": 28.55909090909091,
                "end_time": 43.215909090909086,
                "pitch": 78,
                "velocity": 51,
                "duration": 14.656818181818178,
                "tempo": 120.0
            },
            {
                "start_time": 41.60909090909091,
                "end_time": 44.027272727272724,
                "pitch": 67,
                "velocity": 51,
                "duration": 2.4181818181818144,
                "tempo": 120.0
            },
            {
                "start_time": 43.215909090909086,
                "end_time": 44.027272727272724,
                "pitch": 67,
                "velocity": 51,
                "duration": 0.8113636363636374,
                "tempo": 120.0
            },
            {
                "start_time": 43.215909090909086,
                "end_time": 44.22727272727273,
                "pitch": 78,
                "velocity": 51,
                "duration": 1.0113636363636402,
                "tempo": 120.0
            },
            {
                "start_time": 44.22727272727273,
                "end_time": 44.42727272727272,
                "pitch": 67,
                "velocity": 51,
                "duration": 0.19999999999999574,
                "tempo": 120.0
            },
            {
                "start_time": 44.429545454545455,
                "end_time": 44.62954545454545,
                "pitch": 67,
                "velocity": 51,
                "duration": 0.19999999999999574,
                "tempo": 120.0
            },
            {
                "start_time": 44.62954545454545,
                "end_time": 44.82954545454545,
                "pitch": 67,
                "velocity": 51,
                "duration": 0.20000000000000284,
                "tempo": 120.0
            },
            {
                "start_time": 44.82954545454545,
                "end_time": 45.03181818181818,
                "pitch": 67,
                "velocity": 51,
                "duration": 0.20227272727272805,
                "tempo": 120.0
            },
            {
                "start_time": 17.49090909090909,
                "end_time": 46.434090909090905,
                "pitch": 60,
                "velocity": 51,
                "duration": 28.943181818181817,
                "tempo": 120.0
            },
            {
                "start_time": 46.23409090909091,
                "end_time": 46.434090909090905,
                "pitch": 60,
                "velocity": 51,
                "duration": 0.19999999999999574,
                "tempo": 120.0
            },
            {
                "start_time": 47.03409090909091,
                "end_time": 47.23409090909091,
                "pitch": 60,
                "velocity": 51,
                "duration": 0.20000000000000284,
                "tempo": 120.0
            },
            {
                "start_time": 49.64090909090909,
                "end_time": 50.043181818181814,
                "pitch": 65,
                "velocity": 51,
                "duration": 0.4022727272727238,
                "tempo": 120.0
            },
            {
                "start_time": 44.22727272727273,
                "end_time": 60.69318181818181,
                "pitch": 78,
                "velocity": 51,
                "duration": 16.465909090909086,
                "tempo": 120.0
            },
            {
                "start_time": 60.69318181818181,
                "end_time": 61.095454545454544,
                "pitch": 67,
                "velocity": 51,
                "duration": 0.4022727272727309,
                "tempo": 120.0
            }
        ]
    }
}