{
    "track_id": "02_Map",
    "mood": "happy",
    "instruments": {
        "Electric Piano 1": [
            {
                "start_time": 0.2659090909090909,
                "end_time": 0.7568181818181818,
                "pitch": 69,
                "velocity": 64,
                "duration": 0.49090909090909096,
                "tempo": 120.0
            },
            {
                "start_time": 0.7568181818181818,
                "end_time": 1.2363636363636363,
                "pitch": 64,
                "velocity": 64,
                "duration": 0.4795454545454545,
                "tempo": 120.0
            },
            {
                "start_time": 1.2363636363636363,
                "end_time": 1.3954545454545453,
                "pitch": 66,
                "velocity": 64,
                "duration": 0.15909090909090895,
                "tempo": 120.0
            },
            {
                "start_time": 1.2363636363636363,
                "end_time": 1.3954545454545453,
                "pitch": 66,
                "velocity": 64,
                "duration": 0.15909090909090895,
                "tempo": 120.0
            },
            {
                "start_time": 1.3954545454545453,
                "end_time": 1.5522727272727272,
                "pitch": 67,
                "velocity": 64,
                "duration": 0.15681818181818197,
                "tempo": 120.0
            },
            {
                "start_time": 1.7068181818181818,
                "end_time": 1.8659090909090907,
                "pitch": 67,
                "velocity": 64,
                "duration": 0.15909090909090895,
                "tempo": 120.0
            },
            {
                "start_time": 1.8659090909090907,
                "end_time": 2.025,
                "pitch": 67,
                "velocity": 64,
                "duration": 0.15909090909090917,
                "tempo": 120.0
            },
            {
                "start_time": 2.025,
                "end_time": 2.186363636363636,
                "pitch": 66,
                "velocity": 64,
                "duration": 0.16136363636363615,
                "tempo": 120.0
            },
            {
                "start_time": 2.186363636363636,
                "end_time": 2.3454545454545452,
                "pitch": 67,
                "velocity": 64,
                "duration": 0.15909090909090917,
                "tempo": 120.0
            },
            {
                "start_time": 2.025,
                "end_time": 2.3454545454545452,
                "pitch": 79,
                "velocity": 64,
                "duration": 0.3204545454545453,
                "tempo": 120.0
            },
            {
                "start_time": 2.3454545454545452,
                "end_time": 2.506818181818182,
                "pitch": 66,
                "velocity": 64,
                "duration": 0.1613636363636366,
                "tempo": 120.0
            },
            {
                "start_time": 2.506818181818182,
                "end_time": 2.8295454545454546,
                "pitch": 62,
                "velocity": 64,
                "duration": 0.32272727272727275,
                "tempo": 120.0
            },
            {
                "start_time": 2.506818181818182,
                "end_time": 2.8295454545454546,
                "pitch": 62,
                "velocity": 64,
                "duration": 0.32272727272727275,
                "tempo": 120.0
            },
            {
                "start_time": 2.8295454545454546,
                "end_time": 3.2954545454545454,
                "pitch": 66,
                "velocity": 64,
                "duration": 0.46590909090909083,
                "tempo": 120.0
            },
            {
                "start_time": 2.8295454545454546,
                "end_time": 3.2954545454545454,
                "pitch": 66,
                "velocity": 64,
                "duration": 0.46590909090909083,
                "tempo": 120.0
            },
            {
                "start_time": 3.2954545454545454,
                "end_time": 3.6159090909090907,
                "pitch": 62,
                "velocity": 64,
                "duration": 0.3204545454545453,
                "tempo": 120.0
            },
            {
                "start_time": 3.2954545454545454,
                "end_time": 3.6159090909090907,
                "pitch": 62,
                "velocity": 64,
                "duration": 0.3204545454545453,
                "tempo": 120.0
            },
            {
                "start_time": 3.6159090909090907,
                "end_time": 3.775,
                "pitch": 66,
                "velocity": 64,
                "duration": 0.15909090909090917,
                "tempo": 120.0
            },
            {
                "start_time": 3.775,
                "end_time": 3.936363636363636,
                "pitch": 68,
                "velocity": 64,
                "duration": 0.16136363636363615,
                "tempo": 120.0
            },
            {
                "start_time": 3.936363636363636,
                "end_time": 4.256818181818182,
                "pitch": 69,
                "velocity": 64,
                "duration": 0.32045454545454577,
                "tempo": 120.0
            },
            {
                "start_time": 4.256818181818182,
                "end_time": 4.415909090909091,
                "pitch": 68,
                "velocity": 64,
                "duration": 0.15909090909090917,
                "tempo": 120.0
            },
            {
                "start_time": 4.415909090909091,
                "end_time": 4.575,
                "pitch": 69,
                "velocity": 64,
                "duration": 0.15909090909090917,
                "tempo": 120.0
            },
            {
                "start_time": 4.575,
                "end_time": 5.370454545454545,
                "pitch": 71,
                "velocity": 64,
                "duration": 0.795454545454545,
                "tempo": 120.0
            },
            {
                "start_time": 4.575,
                "end_time": 5.370454545454545,
                "pitch": 71,
                "velocity": 64,
                "duration": 0.795454545454545,
                "tempo": 120.0
            },
            {
                "start_time": 5.370454545454545,
                "end_time": 5.845454545454545,
                "pitch": 69,
                "velocity": 64,
                "duration": 0.47499999999999964,
                "tempo": 120.0
            },
            {
                "start_time": 0.7568181818181818,
                "end_time": 5.845454545454545,
                "pitch": 78,
                "velocity": 64,
                "duration": 5.088636363636363,
                "tempo": 120.0
            },
            {
                "start_time": 5.845454545454545,
                "end_time": 6.324999999999999,
                "pitch": 64,
                "velocity": 64,
                "duration": 0.4795454545454545,
                "tempo": 120.0
            },
            {
                "start_time": 6.324999999999999,
                "end_time": 6.486363636363636,
                "pitch": 66,
                "velocity": 64,
                "duration": 0.16136363636363704,
                "tempo": 120.0
            },
            {
                "start_time": 6.324999999999999,
                "end_time": 6.486363636363636,
                "pitch": 66,
                "velocity": 64,
                "duration": 0.16136363636363704,
                "tempo": 120.0
            },
            {
                "start_time": 6.486363636363636,
                "end_time": 6.6454545454545455,
                "pitch": 67,
                "velocity": 64,
                "duration": 0.15909090909090917,
                "tempo": 120.0
            },
            {
                "start_time": 6.804545454545454,
                "end_time": 6.965909090909091,
                "pitch": 67,
                "velocity": 64,
                "duration": 0.16136363636363704,
                "tempo": 120.0
            },
            {
                "start_time": 6.965909090909091,
                "end_time": 7.125,
                "pitch": 67,
                "velocity": 64,
                "duration": 0.15909090909090917,
                "tempo": 120.0
            },
            {
                "start_time": 7.125,
                "end_time": 7.284090909090909,
                "pitch": 66,
                "velocity": 64,
                "duration": 0.15909090909090917,
                "tempo": 120.0
            },
            {
                "start_time": 7.284090909090909,
                "end_time": 7.445454545454545,
                "pitch": 67,
                "velocity": 64,
                "duration": 0.16136363636363615,
                "tempo": 120.0
            },
            {
                "start_time": 7.445454545454545,
                "end_time": 7.6090909090909085,
                "pitch": 66,
                "velocity": 64,
                "duration": 0.16363636363636314,
                "tempo": 120.0
            },
            {
                "start_time": 7.6090909090909085,
                "end_time": 7.929545454545454,
                "pitch": 62,
                "velocity": 64,
                "duration": 0.3204545454545453,
                "tempo": 120.0
            },
            {
                "start_time": 7.929545454545454,
                "end_time": 8.404545454545454,
                "pitch": 66,
                "velocity": 64,
                "duration": 0.47500000000000053,
                "tempo": 120.0
            },
            {
                "start_time": 8.404545454545454,
                "end_time": 8.725,
                "pitch": 62,
                "velocity": 64,
                "duration": 0.3204545454545453,
                "tempo": 120.0
            },
            {
                "start_time": 8.725,
                "end_time": 8.884090909090908,
                "pitch": 66,
                "velocity": 64,
                "duration": 0.15909090909090828,
                "tempo": 120.0
            },
            {
                "start_time": 8.725,
                "end_time": 8.884090909090908,
                "pitch": 66,
                "velocity": 64,
                "duration": 0.15909090909090828,
                "tempo": 120.0
            },
            {
                "start_time": 8.884090909090908,
                "end_time": 9.045454545454545,
                "pitch": 68,
                "velocity": 64,
                "duration": 0.16136363636363704,
                "tempo": 120.0
            },
            {
                "start_time": 9.045454545454545,
                "end_time": 9.363636363636363,
                "pitch": 69,
                "velocity": 64,
                "duration": 0.31818181818181834,
                "tempo": 120.0
            },
            {
                "start_time": 9.363636363636363,
                "end_time": 9.520454545454545,
                "pitch": 68,
                "velocity": 64,
                "duration": 0.1568181818181813,
                "tempo": 120.0
            },
            {
                "start_time": 9.520454545454545,
                "end_time": 9.674999999999999,
                "pitch": 69,
                "velocity": 64,
                "duration": 0.15454545454545432,
                "tempo": 120.0
            },
            {
                "start_time": 9.674999999999999,
                "end_time": 10.31590909090909,
                "pitch": 71,
                "velocity": 64,
                "duration": 0.6409090909090907,
                "tempo": 120.0
            },
            {
                "start_time": 9.674999999999999,
                "end_time": 10.31590909090909,
                "pitch": 71,
                "velocity": 64,
                "duration": 0.6409090909090907,
                "tempo": 120.0
            },
            {
                "start_time": 12.063636363636363,
                "end_time": 12.545454545454545,
                "pitch": 69,
                "velocity": 64,
                "duration": 0.48181818181818237,
                "tempo": 120.0
            }
        ],
        "Acoustic Bass": [
            {
                "start_time": 0.10681818181818181,
                "end_time": 0.2659090909090909,
                "pitch": 33,
                "velocity": 127,
                "duration": 0.15909090909090906,
                "tempo": 120.0
            },
            {
                "start_time": 0.2659090909090909,
                "end_time": 0.425,
                "pitch": 33,
                "velocity": 127,
                "duration": 0.15909090909090912,
                "tempo": 120.0
            },
            {
                "start_time": 0.425,
                "end_time": 0.5909090909090908,
                "pitch": 45,
                "velocity": 127,
                "duration": 0.16590909090909084,
                "tempo": 120.0
            },
            {
                "start_time": 0.5909090909090908,
                "end_time": 0.7568181818181818,
                "pitch": 33,
                "velocity": 127,
                "duration": 0.165909090909091,
                "tempo": 120.0
            },
            {
                "start_time": 0.7568181818181818,
                "end_time": 0.9159090909090909,
                "pitch": 33,
                "velocity": 127,
                "duration": 0.15909090909090906,
                "tempo": 120.0
            },
            {
                "start_time": 0.9159090909090909,
                "end_time": 1.0772727272727272,
                "pitch": 33,
                "velocity": 127,
                "duration": 0.16136363636363626,
                "tempo": 120.0
            },
            {
                "start_time": 1.0772727272727272,
                "end_time": 1.2363636363636363,
                "pitch": 45,
                "velocity": 127,
                "duration": 0.15909090909090917,
                "tempo": 120.0
            },
            {
                "start_time": 1.2363636363636363,
                "end_time": 1.5499999999999998,
                "pitch": 31,
                "velocity": 127,
                "duration": 0.3136363636363635,
                "tempo": 120.0
            },
            {
                "start_time": 1.5499999999999998,
                "end_time": 1.7068181818181818,
                "pitch": 31,
                "velocity": 127,
                "duration": 0.15681818181818197,
                "tempo": 120.0
            },
            {
                "start_time": 1.7068181818181818,
                "end_time": 1.8659090909090907,
                "pitch": 43,
                "velocity": 127,
                "duration": 0.15909090909090895,
                "tempo": 120.0
            },
            {
                "start_time": 1.8659090909090907,
                "end_time": 2.025,
                "pitch": 31,
                "velocity": 127,
                "duration": 0.15909090909090917,
                "tempo": 120.0
            },
            {
                "start_time": 2.025,
                "end_time": 2.186363636363636,
                "pitch": 31,
                "velocity": 127,
                "duration": 0.16136363636363615,
                "tempo": 120.0
            },
            {
                "start_time": 2.186363636363636,
                "end_time": 2.3454545454545452,
                "pitch": 31,
                "velocity": 127,
                "duration": 0.15909090909090917,
                "tempo": 120.0
            },
            {
                "start_time": 2.3454545454545452,
                "end_time": 2.5045454545454544,
                "pitch": 43,
                "velocity": 127,
                "duration": 0.15909090909090917,
                "tempo": 120.0
            },
            {
                "start_time": 2.5045454545454544,
                "end_time": 2.8295454545454546,
                "pitch": 26,
                "velocity": 127,
                "duration": 0.3250000000000002,
                "tempo": 120.0
            },
            {
                "start_time": 2.8295454545454546,
                "end_time": 2.995454545454545,
                "pitch": 26,
                "velocity": 127,
                "duration": 0.16590909090909056,
                "tempo": 120.0
            },
            {
                "start_time": 2.995454545454545,
                "end_time": 3.1454545454545455,
                "pitch": 38,
                "velocity": 127,
                "duration": 0.15000000000000036,
                "tempo": 120.0
            },
            {
                "start_time": 3.1454545454545455,
                "end_time": 3.2954545454545454,
                "pitch": 26,
                "velocity": 127,
                "duration": 0.1499999999999999,
                "tempo": 120.0
            },
            {
                "start_time": 3.2954545454545454,
                "end_time": 3.4568181818181816,
                "pitch": 26,
                "velocity": 127,
                "duration": 0.16136363636363615,
                "tempo": 120.0
            },
            {
                "start_time": 3.4568181818181816,
                "end_time": 3.6159090909090907,
                "pitch": 26,
                "velocity": 127,
                "duration": 0.15909090909090917,
                "tempo": 120.0
            },
            {
                "start_time": 3.6159090909090907,
                "end_time": 3.775,
                "pitch": 38,
                "velocity": 127,
                "duration": 0.15909090909090917,
                "tempo": 120.0
            },
            {
                "start_time": 3.775,
                "end_time": 4.095454545454546,
                "pitch": 29,
                "velocity": 127,
                "duration": 0.32045454545454577,
                "tempo": 120.0
            },
            {
                "start_time": 4.095454545454546,
                "end_time": 4.256818181818182,
                "pitch": 29,
                "velocity": 127,
                "duration": 0.16136363636363615,
                "tempo": 120.0
            },
            {
                "start_time": 3.775,
                "end_time": 4.415909090909091,
                "pitch": 41,
                "velocity": 127,
                "duration": 0.6409090909090911,
                "tempo": 120.0
            },
            {
                "start_time": 4.256818181818182,
                "end_time": 4.415909090909091,
                "pitch": 41,
                "velocity": 127,
                "duration": 0.15909090909090917,
                "tempo": 120.0
            },
            {
                "start_time": 4.415909090909091,
                "end_time": 4.7295454545454545,
                "pitch": 31,
                "velocity": 127,
                "duration": 0.3136363636363635,
                "tempo": 120.0
            },
            {
                "start_time": 4.7295454545454545,
                "end_time": 4.886363636363636,
                "pitch": 31,
                "velocity": 127,
                "duration": 0.1568181818181813,
                "tempo": 120.0
            },
            {
                "start_time": 4.886363636363636,
                "end_time": 5.045454545454545,
                "pitch": 43,
                "velocity": 127,
                "duration": 0.15909090909090917,
                "tempo": 120.0
            },
            {
                "start_time": 5.045454545454545,
                "end_time": 5.204545454545454,
                "pitch": 31,
                "velocity": 127,
                "duration": 0.15909090909090917,
                "tempo": 120.0
            },
            {
                "start_time": 5.204545454545454,
                "end_time": 5.370454545454545,
                "pitch": 33,
                "velocity": 127,
                "duration": 0.165909090909091,
                "tempo": 120.0
            },
            {
                "start_time": 5.370454545454545,
                "end_time": 5.536363636363636,
                "pitch": 33,
                "velocity": 127,
                "duration": 0.165909090909091,
                "tempo": 120.0
            },
            {
                "start_time": 5.536363636363636,
                "end_time": 5.6909090909090905,
                "pitch": 45,
                "velocity": 127,
                "duration": 0.15454545454545432,
                "tempo": 120.0
            },
            {
                "start_time": 5.6909090909090905,
                "end_time": 5.845454545454545,
                "pitch": 33,
                "velocity": 127,
                "duration": 0.15454545454545432,
                "tempo": 120.0
            },
            {
                "start_time": 5.845454545454545,
                "end_time": 6.004545454545454,
                "pitch": 33,
                "velocity": 127,
                "duration": 0.15909090909090917,
                "tempo": 120.0
            },
            {
                "start_time": 6.004545454545454,
                "end_time": 6.165909090909091,
                "pitch": 33,
                "velocity": 127,
                "duration": 0.16136363636363704,
                "tempo": 120.0
            },
            {
                "start_time": 6.165909090909091,
                "end_time": 6.324999999999999,
                "pitch": 45,
                "velocity": 127,
                "duration": 0.15909090909090828,
                "tempo": 120.0
            },
            {
                "start_time": 6.324999999999999,
                "end_time": 6.6454545454545455,
                "pitch": 31,
                "velocity": 127,
                "duration": 0.3204545454545462,
                "tempo": 120.0
            },
            {
                "start_time": 6.6454545454545455,
                "end_time": 6.804545454545454,
                "pitch": 31,
                "velocity": 127,
                "duration": 0.15909090909090828,
                "tempo": 120.0
            },
            {
                "start_time": 6.804545454545454,
                "end_time": 6.965909090909091,
                "pitch": 43,
                "velocity": 127,
                "duration": 0.16136363636363704,
                "tempo": 120.0
            },
            {
                "start_time": 6.965909090909091,
                "end_time": 7.125,
                "pitch": 31,
                "velocity": 127,
                "duration": 0.15909090909090917,
                "tempo": 120.0
            },
            {
                "start_time": 7.125,
                "end_time": 7.284090909090909,
                "pitch": 31,
                "velocity": 127,
                "duration": 0.15909090909090917,
                "tempo": 120.0
            },
            {
                "start_time": 7.284090909090909,
                "end_time": 7.445454545454545,
                "pitch": 31,
                "velocity": 127,
                "duration": 0.16136363636363615,
                "tempo": 120.0
            },
            {
                "start_time": 7.445454545454545,
                "end_time": 7.6090909090909085,
                "pitch": 43,
                "velocity": 127,
                "duration": 0.16363636363636314,
                "tempo": 120.0
            },
            {
                "start_time": 7.6090909090909085,
                "end_time": 7.929545454545454,
                "pitch": 26,
                "velocity": 127,
                "duration": 0.3204545454545453,
                "tempo": 120.0
            },
            {
                "start_time": 7.929545454545454,
                "end_time": 8.084090909090909,
                "pitch": 26,
                "velocity": 127,
                "duration": 0.1545454545454552,
                "tempo": 120.0
            },
            {
                "start_time": 8.084090909090909,
                "end_time": 8.245454545454544,
                "pitch": 38,
                "velocity": 127,
                "duration": 0.16136363636363527,
                "tempo": 120.0
            },
            {
                "start_time": 8.245454545454544,
                "end_time": 8.404545454545454,
                "pitch": 26,
                "velocity": 127,
                "duration": 0.15909090909091006,
                "tempo": 120.0
            },
            {
                "start_time": 8.404545454545454,
                "end_time": 8.565909090909091,
                "pitch": 26,
                "velocity": 127,
                "duration": 0.16136363636363704,
                "tempo": 120.0
            },
            {
                "start_time": 8.565909090909091,
                "end_time": 8.725,
                "pitch": 26,
                "velocity": 127,
                "duration": 0.15909090909090828,
                "tempo": 120.0
            },
            {
                "start_time": 8.725,
                "end_time": 8.884090909090908,
                "pitch": 38,
                "velocity": 127,
                "duration": 0.15909090909090828,
                "tempo": 120.0
            },
            {
                "start_time": 8.884090909090908,
                "end_time": 9.204545454545453,
                "pitch": 29,
                "velocity": 127,
                "duration": 0.3204545454545453,
                "tempo": 120.0
            },
            {
                "start_time": 9.204545454545453,
                "end_time": 9.363636363636363,
                "pitch": 29,
                "velocity": 127,
                "duration": 0.15909090909091006,
                "tempo": 120.0
            },
            {
                "start_time": 8.884090909090908,
                "end_time": 9.520454545454545,
                "pitch": 41,
                "velocity": 127,
                "duration": 0.6363636363636367,
                "tempo": 120.0
            },
            {
                "start_time": 9.363636363636363,
                "end_time": 9.520454545454545,
                "pitch": 41,
                "velocity": 127,
                "duration": 0.1568181818181813,
                "tempo": 120.0
            },
            {
                "start_time": 9.520454545454545,
                "end_time": 9.674999999999999,
                "pitch": 29,
                "velocity": 127,
                "duration": 0.15454545454545432,
                "tempo": 120.0
            },
            {
                "start_time": 9.674999999999999,
                "end_time": 9.834090909090909,
                "pitch": 31,
                "velocity": 127,
                "duration": 0.15909090909091006,
                "tempo": 120.0
            },
            {
                "start_time": 9.834090909090909,
                "end_time": 9.995454545454544,
                "pitch": 31,
                "velocity": 127,
                "duration": 0.16136363636363527,
                "tempo": 120.0
            },
            {
                "start_time": 9.995454545454544,
                "end_time": 10.154545454545454,
                "pitch": 43,
                "velocity": 127,
                "duration": 0.15909090909091006,
                "tempo": 120.0
            },
            {
                "start_time": 10.154545454545454,
                "end_time": 10.313636363636363,
                "pitch": 31,
                "velocity": 127,
                "duration": 0.15909090909090828,
                "tempo": 120.0
            },
            {
                "start_time": 11.904545454545454,
                "end_time": 12.543181818181818,
                "pitch": 33,
                "velocity": 127,
                "duration": 0.6386363636363637,
                "tempo": 120.0
            }
        ],
        "French Horn": [
            {
                "start_time": 5.206818181818181,
                "end_time": 5.6909090909090905,
                "pitch": 64,
                "velocity": 101,
                "duration": 0.48409090909090935,
                "tempo": 120.0
            },
            {
                "start_time": 5.6909090909090905,
                "end_time": 6.165909090909091,
                "pitch": 69,
                "velocity": 101,
                "duration": 0.47500000000000053,
                "tempo": 120.0
            },
            {
                "start_time": 6.165909090909091,
                "end_time": 6.804545454545454,
                "pitch": 73,
                "velocity": 101,
                "duration": 0.6386363636363628,
                "tempo": 120.0
            },
            {
                "start_time": 6.804545454545454,
                "end_time": 7.125,
                "pitch": 73,
                "velocity": 101,
                "duration": 0.3204545454545462,
                "tempo": 120.0
            },
            {
                "start_time": 7.125,
                "end_time": 7.445454545454545,
                "pitch": 71,
                "velocity": 101,
                "duration": 0.3204545454545453,
                "tempo": 120.0
            },
            {
                "start_time": 7.445454545454545,
                "end_time": 7.7749999999999995,
                "pitch": 69,
                "velocity": 101,
                "duration": 0.32954545454545414,
                "tempo": 120.0
            },
            {
                "start_time": 7.445454545454545,
                "end_time": 7.7749999999999995,
                "pitch": 69,
                "velocity": 101,
                "duration": 0.32954545454545414,
                "tempo": 120.0
            },
            {
                "start_time": 7.7749999999999995,
                "end_time": 7.929545454545454,
                "pitch": 74,
                "velocity": 101,
                "duration": 0.15454545454545432,
                "tempo": 120.0
            },
            {
                "start_time": 7.929545454545454,
                "end_time": 8.245454545454544,
                "pitch": 73,
                "velocity": 101,
                "duration": 0.3159090909090905,
                "tempo": 120.0
            },
            {
                "start_time": 8.245454545454544,
                "end_time": 8.725,
                "pitch": 69,
                "velocity": 101,
                "duration": 0.4795454545454554,
                "tempo": 120.0
            },
            {
                "start_time": 8.725,
                "end_time": 9.045454545454545,
                "pitch": 71,
                "velocity": 101,
                "duration": 0.3204545454545453,
                "tempo": 120.0
            },
            {
                "start_time": 8.725,
                "end_time": 9.045454545454545,
                "pitch": 71,
                "velocity": 101,
                "duration": 0.3204545454545453,
                "tempo": 120.0
            },
            {
                "start_time": 9.045454545454545,
                "end_time": 9.674999999999999,
                "pitch": 69,
                "velocity": 101,
                "duration": 0.629545454545454,
                "tempo": 120.0
            },
            {
                "start_time": 9.674999999999999,
                "end_time": 9.993181818181817,
                "pitch": 67,
                "velocity": 101,
                "duration": 0.31818181818181834,
                "tempo": 120.0
            },
            {
                "start_time": 9.993181818181817,
                "end_time": 9.995454545454544,
                "pitch": 79,
                "velocity": 101,
                "duration": 0.002272727272726982,
                "tempo": 120.0
            },
            {
                "start_time": 9.995454545454544,
                "end_time": 10.193181818181818,
                "pitch": 67,
                "velocity": 101,
                "duration": 0.19772727272727408,
                "tempo": 120.0
            },
            {
                "start_time": 10.193181818181818,
                "end_time": 10.31590909090909,
                "pitch": 67,
                "velocity": 101,
                "duration": 0.12272727272727124,
                "tempo": 120.0
            },
            {
                "start_time": 11.904545454545454,
                "end_time": 12.545454545454545,
                "pitch": 64,
                "velocity": 101,
                "duration": 0.6409090909090907,
                "tempo": 120.0
            }
        ],
        "Vibraphone": [
            {
                "start_time": 0.10681818181818181,
                "end_time": 1.2363636363636363,
                "pitch": 64,
                "velocity": 127,
                "duration": 1.1295454545454544,
                "tempo": 120.0
            },
            {
                "start_time": 1.2363636363636363,
                "end_time": 2.6659090909090906,
                "pitch": 62,
                "velocity": 127,
                "duration": 1.4295454545454542,
                "tempo": 120.0
            },
            {
                "start_time": 2.6659090909090906,
                "end_time": 3.777272727272727,
                "pitch": 66,
                "velocity": 127,
                "duration": 1.1113636363636363,
                "tempo": 120.0
            },
            {
                "start_time": 3.777272727272727,
                "end_time": 4.575,
                "pitch": 69,
                "velocity": 127,
                "duration": 0.7977272727272733,
                "tempo": 120.0
            },
            {
                "start_time": 4.575,
                "end_time": 4.886363636363636,
                "pitch": 71,
                "velocity": 127,
                "duration": 0.3113636363636356,
                "tempo": 120.0
            },
            {
                "start_time": 4.886363636363636,
                "end_time": 5.206818181818181,
                "pitch": 72,
                "velocity": 127,
                "duration": 0.3204545454545453,
                "tempo": 120.0
            },
            {
                "start_time": 5.206818181818181,
                "end_time": 6.324999999999999,
                "pitch": 64,
                "velocity": 127,
                "duration": 1.1181818181818182,
                "tempo": 120.0
            },
            {
                "start_time": 6.324999999999999,
                "end_time": 7.7749999999999995,
                "pitch": 62,
                "velocity": 127,
                "duration": 1.4500000000000002,
                "tempo": 120.0
            },
            {
                "start_time": 3.777272727272727,
                "end_time": 8.886363636363637,
                "pitch": 32,
                "velocity": 127,
                "duration": 5.109090909090909,
                "tempo": 120.0
            },
            {
                "start_time": 7.7749999999999995,
                "end_time": 8.886363636363637,
                "pitch": 66,
                "velocity": 127,
                "duration": 1.1113636363636372,
                "tempo": 120.0
            },
            {
                "start_time": 8.886363636363637,
                "end_time": 9.674999999999999,
                "pitch": 69,
                "velocity": 127,
                "duration": 0.7886363636363622,
                "tempo": 120.0
            },
            {
                "start_time": 9.674999999999999,
                "end_time": 9.995454545454544,
                "pitch": 71,
                "velocity": 127,
                "duration": 0.3204545454545453,
                "tempo": 120.0
            },
            {
                "start_time": 9.674999999999999,
                "end_time": 9.995454545454544,
                "pitch": 71,
                "velocity": 127,
                "duration": 0.3204545454545453,
                "tempo": 120.0
            },
            {
                "start_time": 4.886363636363636,
                "end_time": 9.995454545454544,
                "pitch": 76,
                "velocity": 127,
                "duration": 5.1090909090909085,
                "tempo": 120.0
            },
            {
                "start_time": 9.995454545454544,
                "end_time": 10.31590909090909,
                "pitch": 72,
                "velocity": 127,
                "duration": 0.3204545454545453,
                "tempo": 120.0
            },
            {
                "start_time": 11.904545454545454,
                "end_time": 12.545454545454545,
                "pitch": 69,
                "velocity": 127,
                "duration": 0.6409090909090907,
                "tempo": 120.0
            }
        ]
    }
}