{
    "track_id": "03 - Game de check! Koutsuu Anzen (FM) - Driving Eye",
    "mood": "happy",
    "instruments": {
        "Vibraphone": [
            {
                "start_time": 0.0,
                "end_time": 0.1659090909090909,
                "pitch": 75,
                "velocity": 64,
                "duration": 0.1659090909090909,
                "tempo": 120.0
            },
            {
                "start_time": 0.18409090909090908,
                "end_time": 0.3659090909090909,
                "pitch": 75,
                "velocity": 64,
                "duration": 0.18181818181818182,
                "tempo": 120.0
            },
            {
                "start_time": 0.3840909090909091,
                "end_time": 0.7659090909090909,
                "pitch": 75,
                "velocity": 64,
                "duration": 0.3818181818181818,
                "tempo": 120.0
            },
            {
                "start_time": 0.7840909090909091,
                "end_time": 0.9659090909090908,
                "pitch": 77,
                "velocity": 64,
                "duration": 0.18181818181818177,
                "tempo": 120.0
            },
            {
                "start_time": 0.984090909090909,
                "end_time": 1.1659090909090908,
                "pitch": 77,
                "velocity": 64,
                "duration": 0.18181818181818177,
                "tempo": 120.0
            },
            {
                "start_time": 1.184090909090909,
                "end_time": 1.565909090909091,
                "pitch": 77,
                "velocity": 64,
                "duration": 0.38181818181818183,
                "tempo": 120.0
            },
            {
                "start_time": 1.584090909090909,
                "end_time": 1.875,
                "pitch": 79,
                "velocity": 64,
                "duration": 0.290909090909091,
                "tempo": 120.0
            },
            {
                "start_time": 1.8909090909090909,
                "end_time": 1.977272727272727,
                "pitch": 80,
                "velocity": 64,
                "duration": 0.0863636363636362,
                "tempo": 120.0
            },
            {
                "start_time": 1.9931818181818182,
                "end_time": 2.172727272727273,
                "pitch": 82,
                "velocity": 64,
                "duration": 0.17954545454545467,
                "tempo": 120.0
            },
            {
                "start_time": 2.190909090909091,
                "end_time": 2.370454545454545,
                "pitch": 75,
                "velocity": 64,
                "duration": 0.17954545454545423,
                "tempo": 120.0
            },
            {
                "start_time": 2.3863636363636362,
                "end_time": 2.5704545454545453,
                "pitch": 77,
                "velocity": 64,
                "duration": 0.18409090909090908,
                "tempo": 120.0
            },
            {
                "start_time": 2.5863636363636364,
                "end_time": 2.7704545454545455,
                "pitch": 74,
                "velocity": 64,
                "duration": 0.18409090909090908,
                "tempo": 120.0
            },
            {
                "start_time": 2.786363636363636,
                "end_time": 3.1795454545454542,
                "pitch": 75,
                "velocity": 64,
                "duration": 0.3931818181818181,
                "tempo": 120.0
            }
        ],
        "Acoustic Bass": [
            {
                "start_time": 0.0,
                "end_time": 0.1659090909090909,
                "pitch": 51,
                "velocity": 51,
                "duration": 0.1659090909090909,
                "tempo": 120.0
            },
            {
                "start_time": 0.18409090909090908,
                "end_time": 0.2659090909090909,
                "pitch": 55,
                "velocity": 51,
                "duration": 0.08181818181818179,
                "tempo": 120.0
            },
            {
                "start_time": 0.28409090909090906,
                "end_time": 0.3659090909090909,
                "pitch": 58,
                "velocity": 51,
                "duration": 0.08181818181818185,
                "tempo": 120.0
            },
            {
                "start_time": 0.3840909090909091,
                "end_time": 0.5659090909090909,
                "pitch": 51,
                "velocity": 51,
                "duration": 0.18181818181818182,
                "tempo": 120.0
            },
            {
                "start_time": 0.5840909090909091,
                "end_time": 0.6659090909090909,
                "pitch": 55,
                "velocity": 51,
                "duration": 0.08181818181818179,
                "tempo": 120.0
            },
            {
                "start_time": 0.6840909090909091,
                "end_time": 0.7659090909090909,
                "pitch": 58,
                "velocity": 51,
                "duration": 0.08181818181818179,
                "tempo": 120.0
            },
            {
                "start_time": 0.7840909090909091,
                "end_time": 0.9659090909090908,
                "pitch": 46,
                "velocity": 51,
                "duration": 0.18181818181818177,
                "tempo": 120.0
            },
            {
                "start_time": 0.984090909090909,
                "end_time": 1.065909090909091,
                "pitch": 53,
                "velocity": 51,
                "duration": 0.0818181818181819,
                "tempo": 120.0
            },
            {
                "start_time": 1.084090909090909,
                "end_time": 1.1659090909090908,
                "pitch": 56,
                "velocity": 51,
                "duration": 0.08181818181818179,
                "tempo": 120.0
            },
            {
                "start_time": 1.184090909090909,
                "end_time": 1.3659090909090907,
                "pitch": 46,
                "velocity": 51,
                "duration": 0.18181818181818166,
                "tempo": 120.0
            },
            {
                "start_time": 1.384090909090909,
                "end_time": 1.4659090909090908,
                "pitch": 50,
                "velocity": 51,
                "duration": 0.08181818181818179,
                "tempo": 120.0
            },
            {
                "start_time": 1.4840909090909091,
                "end_time": 1.5,
                "pitch": 56,
                "velocity": 51,
                "duration": 0.015909090909090873,
                "tempo": 120.0
            },
            {
                "start_time": 1.5159090909090909,
                "end_time": 1.565909090909091,
                "pitch": 55,
                "velocity": 51,
                "duration": 0.050000000000000044,
                "tempo": 120.0
            },
            {
                "start_time": 1.584090909090909,
                "end_time": 1.7704545454545453,
                "pitch": 51,
                "velocity": 51,
                "duration": 0.1863636363636363,
                "tempo": 120.0
            },
            {
                "start_time": 1.7886363636363636,
                "end_time": 1.875,
                "pitch": 55,
                "velocity": 51,
                "duration": 0.08636363636363642,
                "tempo": 120.0
            },
            {
                "start_time": 1.8909090909090909,
                "end_time": 1.977272727272727,
                "pitch": 58,
                "velocity": 51,
                "duration": 0.0863636363636362,
                "tempo": 120.0
            },
            {
                "start_time": 1.9931818181818182,
                "end_time": 2.172727272727273,
                "pitch": 51,
                "velocity": 51,
                "duration": 0.17954545454545467,
                "tempo": 120.0
            },
            {
                "start_time": 2.190909090909091,
                "end_time": 2.2727272727272725,
                "pitch": 55,
                "velocity": 51,
                "duration": 0.08181818181818157,
                "tempo": 120.0
            },
            {
                "start_time": 2.2886363636363636,
                "end_time": 2.370454545454545,
                "pitch": 58,
                "velocity": 51,
                "duration": 0.08181818181818157,
                "tempo": 120.0
            },
            {
                "start_time": 2.3863636363636362,
                "end_time": 2.5704545454545453,
                "pitch": 46,
                "velocity": 51,
                "duration": 0.18409090909090908,
                "tempo": 120.0
            },
            {
                "start_time": 2.5863636363636364,
                "end_time": 2.6704545454545454,
                "pitch": 53,
                "velocity": 51,
                "duration": 0.084090909090909,
                "tempo": 120.0
            },
            {
                "start_time": 2.686363636363636,
                "end_time": 2.7704545454545455,
                "pitch": 56,
                "velocity": 51,
                "duration": 0.08409090909090944,
                "tempo": 120.0
            },
            {
                "start_time": 2.786363636363636,
                "end_time": 2.8727272727272726,
                "pitch": 51,
                "velocity": 51,
                "duration": 0.08636363636363642,
                "tempo": 120.0
            },
            {
                "start_time": 2.8886363636363637,
                "end_time": 2.9749999999999996,
                "pitch": 55,
                "velocity": 51,
                "duration": 0.08636363636363598,
                "tempo": 120.0
            },
            {
                "start_time": 2.9909090909090907,
                "end_time": 3.1795454545454542,
                "pitch": 58,
                "velocity": 51,
                "duration": 0.1886363636363635,
                "tempo": 120.0
            }
        ],
        "Acoustic Grand Piano": [
            {
                "start_time": 0.0,
                "end_time": 0.1659090909090909,
                "pitch": 67,
                "velocity": 40,
                "duration": 0.1659090909090909,
                "tempo": 120.0
            },
            {
                "start_time": 0.18409090909090908,
                "end_time": 0.3659090909090909,
                "pitch": 67,
                "velocity": 40,
                "duration": 0.18181818181818182,
                "tempo": 120.0
            },
            {
                "start_time": 0.3840909090909091,
                "end_time": 0.5659090909090909,
                "pitch": 67,
                "velocity": 40,
                "duration": 0.18181818181818182,
                "tempo": 120.0
            },
            {
                "start_time": 0.5840909090909091,
                "end_time": 0.7659090909090909,
                "pitch": 67,
                "velocity": 40,
                "duration": 0.18181818181818177,
                "tempo": 120.0
            },
            {
                "start_time": 0.7840909090909091,
                "end_time": 0.9659090909090908,
                "pitch": 68,
                "velocity": 40,
                "duration": 0.18181818181818177,
                "tempo": 120.0
            },
            {
                "start_time": 0.984090909090909,
                "end_time": 1.1659090909090908,
                "pitch": 68,
                "velocity": 40,
                "duration": 0.18181818181818177,
                "tempo": 120.0
            },
            {
                "start_time": 1.184090909090909,
                "end_time": 1.3659090909090907,
                "pitch": 68,
                "velocity": 40,
                "duration": 0.18181818181818166,
                "tempo": 120.0
            },
            {
                "start_time": 1.384090909090909,
                "end_time": 1.565909090909091,
                "pitch": 68,
                "velocity": 40,
                "duration": 0.18181818181818188,
                "tempo": 120.0
            },
            {
                "start_time": 1.584090909090909,
                "end_time": 1.875,
                "pitch": 70,
                "velocity": 40,
                "duration": 0.290909090909091,
                "tempo": 120.0
            },
            {
                "start_time": 1.8909090909090909,
                "end_time": 1.977272727272727,
                "pitch": 70,
                "velocity": 40,
                "duration": 0.0863636363636362,
                "tempo": 120.0
            },
            {
                "start_time": 1.9931818181818182,
                "end_time": 2.172727272727273,
                "pitch": 67,
                "velocity": 40,
                "duration": 0.17954545454545467,
                "tempo": 120.0
            },
            {
                "start_time": 2.190909090909091,
                "end_time": 2.370454545454545,
                "pitch": 68,
                "velocity": 40,
                "duration": 0.17954545454545423,
                "tempo": 120.0
            },
            {
                "start_time": 2.3863636363636362,
                "end_time": 2.5704545454545453,
                "pitch": 70,
                "velocity": 40,
                "duration": 0.18409090909090908,
                "tempo": 120.0
            },
            {
                "start_time": 2.5863636363636364,
                "end_time": 2.7704545454545455,
                "pitch": 68,
                "velocity": 40,
                "duration": 0.18409090909090908,
                "tempo": 120.0
            },
            {
                "start_time": 2.786363636363636,
                "end_time": 3.1795454545454542,
                "pitch": 67,
                "velocity": 40,
                "duration": 0.3931818181818181,
                "tempo": 120.0
            }
        ]
    }
}