{
    "track_id": "03 Car Select",
    "mood": "happy",
    "instruments": {
        "Trumpet": [
            {
                "start_time": 1.6045454545454545,
                "end_time": 2.1636363636363636,
                "pitch": 64,
                "velocity": 101,
                "duration": 0.5590909090909091,
                "tempo": 120.0
            },
            {
                "start_time": 2.1636363636363636,
                "end_time": 2.7477272727272726,
                "pitch": 62,
                "velocity": 101,
                "duration": 0.584090909090909,
                "tempo": 120.0
            },
            {
                "start_time": 2.7477272727272726,
                "end_time": 3.1477272727272725,
                "pitch": 60,
                "velocity": 101,
                "duration": 0.3999999999999999,
                "tempo": 120.0
            },
            {
                "start_time": 3.1477272727272725,
                "end_time": 6.259090909090909,
                "pitch": 62,
                "velocity": 101,
                "duration": 3.1113636363636363,
                "tempo": 120.0
            },
            {
                "start_time": 6.259090909090909,
                "end_time": 7.831818181818181,
                "pitch": 71,
                "velocity": 101,
                "duration": 1.5727272727272723,
                "tempo": 120.0
            },
            {
                "start_time": 7.831818181818181,
                "end_time": 8.379545454545454,
                "pitch": 67,
                "velocity": 101,
                "duration": 0.5477272727272728,
                "tempo": 120.0
            },
            {
                "start_time": 8.379545454545454,
                "end_time": 8.968181818181817,
                "pitch": 66,
                "velocity": 101,
                "duration": 0.588636363636363,
                "tempo": 120.0
            },
            {
                "start_time": 8.968181818181817,
                "end_time": 9.370454545454544,
                "pitch": 64,
                "velocity": 101,
                "duration": 0.40227272727272734,
                "tempo": 120.0
            },
            {
                "start_time": 9.370454545454544,
                "end_time": 12.493181818181817,
                "pitch": 62,
                "velocity": 101,
                "duration": 3.122727272727273,
                "tempo": 120.0
            },
            {
                "start_time": 12.493181818181817,
                "end_time": 14.072727272727272,
                "pitch": 60,
                "velocity": 101,
                "duration": 1.579545454545455,
                "tempo": 120.0
            },
            {
                "start_time": 14.072727272727272,
                "end_time": 14.609090909090908,
                "pitch": 64,
                "velocity": 101,
                "duration": 0.5363636363636353,
                "tempo": 120.0
            },
            {
                "start_time": 14.609090909090908,
                "end_time": 15.197727272727272,
                "pitch": 62,
                "velocity": 101,
                "duration": 0.5886363636363647,
                "tempo": 120.0
            },
            {
                "start_time": 15.197727272727272,
                "end_time": 15.609090909090908,
                "pitch": 60,
                "velocity": 101,
                "duration": 0.41136363636363527,
                "tempo": 120.0
            },
            {
                "start_time": 15.609090909090908,
                "end_time": 18.71590909090909,
                "pitch": 62,
                "velocity": 101,
                "duration": 3.1068181818181824,
                "tempo": 120.0
            },
            {
                "start_time": 18.71590909090909,
                "end_time": 20.288636363636364,
                "pitch": 66,
                "velocity": 101,
                "duration": 1.572727272727274,
                "tempo": 120.0
            },
            {
                "start_time": 20.288636363636364,
                "end_time": 21.052272727272726,
                "pitch": 64,
                "velocity": 101,
                "duration": 0.7636363636363619,
                "tempo": 120.0
            },
            {
                "start_time": 21.052272727272726,
                "end_time": 21.62272727272727,
                "pitch": 67,
                "velocity": 101,
                "duration": 0.5704545454545453,
                "tempo": 120.0
            },
            {
                "start_time": 21.62272727272727,
                "end_time": 23.172727272727272,
                "pitch": 69,
                "velocity": 101,
                "duration": 1.5500000000000007,
                "tempo": 120.0
            },
            {
                "start_time": 23.172727272727272,
                "end_time": 24.93409090909091,
                "pitch": 78,
                "velocity": 101,
                "duration": 1.7613636363636367,
                "tempo": 120.0
            },
            {
                "start_time": 24.93409090909091,
                "end_time": 25.504545454545454,
                "pitch": 64,
                "velocity": 101,
                "duration": 0.5704545454545453,
                "tempo": 120.0
            },
            {
                "start_time": 25.504545454545454,
                "end_time": 26.10681818181818,
                "pitch": 62,
                "velocity": 101,
                "duration": 0.6022727272727266,
                "tempo": 120.0
            },
            {
                "start_time": 26.10681818181818,
                "end_time": 26.709090909090907,
                "pitch": 60,
                "velocity": 101,
                "duration": 0.6022727272727266,
                "tempo": 120.0
            },
            {
                "start_time": 26.709090909090907,
                "end_time": 27.279545454545453,
                "pitch": 62,
                "velocity": 101,
                "duration": 0.5704545454545453,
                "tempo": 120.0
            },
            {
                "start_time": 27.279545454545453,
                "end_time": 27.65,
                "pitch": 64,
                "velocity": 101,
                "duration": 0.37045454545454604,
                "tempo": 120.0
            },
            {
                "start_time": 27.65,
                "end_time": 28.049999999999997,
                "pitch": 60,
                "velocity": 101,
                "duration": 0.3999999999999986,
                "tempo": 120.0
            },
            {
                "start_time": 28.049999999999997,
                "end_time": 28.652272727272727,
                "pitch": 64,
                "velocity": 101,
                "duration": 0.6022727272727302,
                "tempo": 120.0
            },
            {
                "start_time": 28.652272727272727,
                "end_time": 29.204545454545453,
                "pitch": 62,
                "velocity": 101,
                "duration": 0.5522727272727259,
                "tempo": 120.0
            },
            {
                "start_time": 29.204545454545453,
                "end_time": 29.775,
                "pitch": 66,
                "velocity": 101,
                "duration": 0.5704545454545453,
                "tempo": 120.0
            },
            {
                "start_time": 29.775,
                "end_time": 30.377272727272725,
                "pitch": 62,
                "velocity": 101,
                "duration": 0.6022727272727266,
                "tempo": 120.0
            },
            {
                "start_time": 30.377272727272725,
                "end_time": 30.777272727272727,
                "pitch": 64,
                "velocity": 101,
                "duration": 0.40000000000000213,
                "tempo": 120.0
            },
            {
                "start_time": 30.777272727272727,
                "end_time": 31.177272727272726,
                "pitch": 60,
                "velocity": 101,
                "duration": 0.3999999999999986,
                "tempo": 120.0
            },
            {
                "start_time": 31.177272727272726,
                "end_time": 31.736363636363635,
                "pitch": 71,
                "velocity": 101,
                "duration": 0.5590909090909086,
                "tempo": 120.0
            },
            {
                "start_time": 31.736363636363635,
                "end_time": 32.320454545454545,
                "pitch": 69,
                "velocity": 101,
                "duration": 0.5840909090909108,
                "tempo": 120.0
            },
            {
                "start_time": 32.320454545454545,
                "end_time": 32.92045454545455,
                "pitch": 67,
                "velocity": 101,
                "duration": 0.6000000000000014,
                "tempo": 120.0
            },
            {
                "start_time": 32.92045454545455,
                "end_time": 33.49318181818182,
                "pitch": 69,
                "velocity": 101,
                "duration": 0.5727272727272705,
                "tempo": 120.0
            },
            {
                "start_time": 33.49318181818182,
                "end_time": 33.86363636363636,
                "pitch": 71,
                "velocity": 101,
                "duration": 0.3704545454545425,
                "tempo": 120.0
            },
            {
                "start_time": 33.86363636363636,
                "end_time": 34.06363636363636,
                "pitch": 67,
                "velocity": 101,
                "duration": 0.20000000000000284,
                "tempo": 120.0
            },
            {
                "start_time": 34.06363636363636,
                "end_time": 35.62272727272727,
                "pitch": 66,
                "velocity": 101,
                "duration": 1.559090909090905,
                "tempo": 120.0
            },
            {
                "start_time": 35.62272727272727,
                "end_time": 37.393181818181816,
                "pitch": 54,
                "velocity": 101,
                "duration": 1.7704545454545482,
                "tempo": 120.0
            },
            {
                "start_time": 37.393181818181816,
                "end_time": 37.94772727272727,
                "pitch": 64,
                "velocity": 101,
                "duration": 0.5545454545454547,
                "tempo": 120.0
            },
            {
                "start_time": 37.94772727272727,
                "end_time": 38.53181818181818,
                "pitch": 62,
                "velocity": 101,
                "duration": 0.5840909090909108,
                "tempo": 120.0
            },
            {
                "start_time": 38.53181818181818,
                "end_time": 39.13636363636363,
                "pitch": 60,
                "velocity": 101,
                "duration": 0.6045454545454518,
                "tempo": 120.0
            },
            {
                "start_time": 39.13636363636363,
                "end_time": 39.70454545454545,
                "pitch": 62,
                "velocity": 101,
                "duration": 0.5681818181818201,
                "tempo": 120.0
            },
            {
                "start_time": 39.70454545454545,
                "end_time": 40.074999999999996,
                "pitch": 64,
                "velocity": 101,
                "duration": 0.3704545454545425,
                "tempo": 120.0
            },
            {
                "start_time": 40.074999999999996,
                "end_time": 40.47727272727273,
                "pitch": 60,
                "velocity": 101,
                "duration": 0.4022727272727309,
                "tempo": 120.0
            },
            {
                "start_time": 40.47727272727273,
                "end_time": 41.07727272727273,
                "pitch": 71,
                "velocity": 101,
                "duration": 0.6000000000000014,
                "tempo": 120.0
            },
            {
                "start_time": 41.07727272727273,
                "end_time": 41.67727272727272,
                "pitch": 69,
                "velocity": 101,
                "duration": 0.5999999999999943,
                "tempo": 120.0
            },
            {
                "start_time": 41.67727272727272,
                "end_time": 42.225,
                "pitch": 72,
                "velocity": 101,
                "duration": 0.5477272727272791,
                "tempo": 120.0
            },
            {
                "start_time": 42.225,
                "end_time": 42.809090909090905,
                "pitch": 69,
                "velocity": 101,
                "duration": 0.5840909090909037,
                "tempo": 120.0
            },
            {
                "start_time": 42.809090909090905,
                "end_time": 43.209090909090904,
                "pitch": 71,
                "velocity": 101,
                "duration": 0.3999999999999986,
                "tempo": 120.0
            },
            {
                "start_time": 43.209090909090904,
                "end_time": 43.60909090909091,
                "pitch": 67,
                "velocity": 101,
                "duration": 0.4000000000000057,
                "tempo": 120.0
            },
            {
                "start_time": 43.61818181818182,
                "end_time": 44.15681818181818,
                "pitch": 74,
                "velocity": 101,
                "duration": 0.538636363636364,
                "tempo": 120.0
            },
            {
                "start_time": 44.15681818181818,
                "end_time": 44.74090909090909,
                "pitch": 72,
                "velocity": 101,
                "duration": 0.5840909090909108,
                "tempo": 120.0
            },
            {
                "start_time": 44.74090909090909,
                "end_time": 45.340909090909086,
                "pitch": 71,
                "velocity": 101,
                "duration": 0.5999999999999943,
                "tempo": 120.0
            },
            {
                "start_time": 45.340909090909086,
                "end_time": 45.94090909090909,
                "pitch": 72,
                "velocity": 101,
                "duration": 0.6000000000000014,
                "tempo": 120.0
            },
            {
                "start_time": 45.94090909090909,
                "end_time": 46.31363636363636,
                "pitch": 74,
                "velocity": 101,
                "duration": 0.3727272727272748,
                "tempo": 120.0
            },
            {
                "start_time": 46.31363636363636,
                "end_time": 46.5,
                "pitch": 71,
                "velocity": 101,
                "duration": 0.1863636363636374,
                "tempo": 120.0
            },
            {
                "start_time": 46.5,
                "end_time": 48.086363636363636,
                "pitch": 74,
                "velocity": 101,
                "duration": 1.586363636363636,
                "tempo": 120.0
            },
            {
                "start_time": 48.086363636363636,
                "end_time": 49.82954545454545,
                "pitch": 66,
                "velocity": 101,
                "duration": 1.7431818181818173,
                "tempo": 120.0
            },
            {
                "start_time": 49.82954545454545,
                "end_time": 51.152272727272724,
                "pitch": 67,
                "velocity": 101,
                "duration": 1.3227272727272705,
                "tempo": 120.0
            },
            {
                "start_time": 51.152272727272724,
                "end_time": 52.709090909090904,
                "pitch": 71,
                "velocity": 101,
                "duration": 1.5568181818181799,
                "tempo": 120.0
            },
            {
                "start_time": 52.709090909090904,
                "end_time": 54.29772727272727,
                "pitch": 69,
                "velocity": 101,
                "duration": 1.5886363636363683,
                "tempo": 120.0
            },
            {
                "start_time": 54.29772727272727,
                "end_time": 56.04090909090909,
                "pitch": 66,
                "velocity": 101,
                "duration": 1.7431818181818173,
                "tempo": 120.0
            },
            {
                "start_time": 56.04090909090909,
                "end_time": 57.37045454545454,
                "pitch": 64,
                "velocity": 101,
                "duration": 1.3295454545454533,
                "tempo": 120.0
            },
            {
                "start_time": 57.37045454545454,
                "end_time": 58.918181818181814,
                "pitch": 67,
                "velocity": 101,
                "duration": 1.547727272727272,
                "tempo": 120.0
            },
            {
                "start_time": 58.918181818181814,
                "end_time": 62.24772727272727,
                "pitch": 69,
                "velocity": 101,
                "duration": 3.3295454545454533,
                "tempo": 120.0
            },
            {
                "start_time": 62.24772727272727,
                "end_time": 62.65,
                "pitch": 64,
                "velocity": 101,
                "duration": 0.4022727272727309,
                "tempo": 120.0
            }
        ],
        "Electric Guitar (clean)": [
            {
                "start_time": 0.20909090909090908,
                "end_time": 0.40909090909090906,
                "pitch": 45,
                "velocity": 127,
                "duration": 0.19999999999999998,
                "tempo": 120.0
            },
            {
                "start_time": 0.40909090909090906,
                "end_time": 0.6068181818181818,
                "pitch": 48,
                "velocity": 127,
                "duration": 0.19772727272727275,
                "tempo": 120.0
            },
            {
                "start_time": 0.6068181818181818,
                "end_time": 1.0045454545454544,
                "pitch": 50,
                "velocity": 127,
                "duration": 0.3977272727272726,
                "tempo": 120.0
            },
            {
                "start_time": 1.0045454545454544,
                "end_time": 1.2045454545454546,
                "pitch": 45,
                "velocity": 127,
                "duration": 0.20000000000000018,
                "tempo": 120.0
            },
            {
                "start_time": 1.2045454545454546,
                "end_time": 1.4045454545454545,
                "pitch": 48,
                "velocity": 127,
                "duration": 0.19999999999999996,
                "tempo": 120.0
            },
            {
                "start_time": 1.4045454545454545,
                "end_time": 1.775,
                "pitch": 50,
                "velocity": 127,
                "duration": 0.37045454545454537,
                "tempo": 120.0
            },
            {
                "start_time": 1.775,
                "end_time": 1.977272727272727,
                "pitch": 45,
                "velocity": 127,
                "duration": 0.20227272727272716,
                "tempo": 120.0
            },
            {
                "start_time": 1.977272727272727,
                "end_time": 2.1636363636363636,
                "pitch": 48,
                "velocity": 127,
                "duration": 0.1863636363636365,
                "tempo": 120.0
            },
            {
                "start_time": 2.1636363636363636,
                "end_time": 2.3477272727272727,
                "pitch": 50,
                "velocity": 127,
                "duration": 0.18409090909090908,
                "tempo": 120.0
            },
            {
                "start_time": 2.3477272727272727,
                "end_time": 2.5477272727272724,
                "pitch": 50,
                "velocity": 127,
                "duration": 0.19999999999999973,
                "tempo": 120.0
            },
            {
                "start_time": 2.5477272727272724,
                "end_time": 2.7477272727272726,
                "pitch": 45,
                "velocity": 127,
                "duration": 0.20000000000000018,
                "tempo": 120.0
            },
            {
                "start_time": 2.7477272727272726,
                "end_time": 2.9477272727272728,
                "pitch": 48,
                "velocity": 127,
                "duration": 0.20000000000000018,
                "tempo": 120.0
            },
            {
                "start_time": 2.9477272727272728,
                "end_time": 3.1477272727272725,
                "pitch": 50,
                "velocity": 127,
                "duration": 0.19999999999999973,
                "tempo": 120.0
            },
            {
                "start_time": 3.1477272727272725,
                "end_time": 3.3499999999999996,
                "pitch": 50,
                "velocity": 127,
                "duration": 0.20227272727272716,
                "tempo": 120.0
            },
            {
                "start_time": 3.3499999999999996,
                "end_time": 3.55,
                "pitch": 45,
                "velocity": 127,
                "duration": 0.20000000000000018,
                "tempo": 120.0
            },
            {
                "start_time": 3.55,
                "end_time": 3.75,
                "pitch": 48,
                "velocity": 127,
                "duration": 0.20000000000000018,
                "tempo": 120.0
            },
            {
                "start_time": 3.75,
                "end_time": 4.1045454545454545,
                "pitch": 50,
                "velocity": 127,
                "duration": 0.3545454545454545,
                "tempo": 120.0
            },
            {
                "start_time": 4.1045454545454545,
                "end_time": 4.290909090909091,
                "pitch": 45,
                "velocity": 127,
                "duration": 0.1863636363636365,
                "tempo": 120.0
            },
            {
                "start_time": 4.290909090909091,
                "end_time": 4.49090909090909,
                "pitch": 48,
                "velocity": 127,
                "duration": 0.1999999999999993,
                "tempo": 120.0
            },
            {
                "start_time": 4.49090909090909,
                "end_time": 4.893181818181818,
                "pitch": 50,
                "velocity": 127,
                "duration": 0.40227272727272734,
                "tempo": 120.0
            },
            {
                "start_time": 4.893181818181818,
                "end_time": 5.093181818181818,
                "pitch": 45,
                "velocity": 127,
                "duration": 0.20000000000000018,
                "tempo": 120.0
            },
            {
                "start_time": 5.093181818181818,
                "end_time": 5.295454545454545,
                "pitch": 48,
                "velocity": 127,
                "duration": 0.20227272727272716,
                "tempo": 120.0
            },
            {
                "start_time": 5.295454545454545,
                "end_time": 5.495454545454545,
                "pitch": 50,
                "velocity": 127,
                "duration": 0.20000000000000018,
                "tempo": 120.0
            },
            {
                "start_time": 5.495454545454545,
                "end_time": 5.695454545454545,
                "pitch": 50,
                "velocity": 127,
                "duration": 0.20000000000000018,
                "tempo": 120.0
            },
            {
                "start_time": 5.695454545454545,
                "end_time": 5.8954545454545455,
                "pitch": 45,
                "velocity": 127,
                "duration": 0.20000000000000018,
                "tempo": 120.0
            },
            {
                "start_time": 5.8954545454545455,
                "end_time": 6.056818181818182,
                "pitch": 48,
                "velocity": 127,
                "duration": 0.16136363636363615,
                "tempo": 120.0
            },
            {
                "start_time": 6.056818181818182,
                "end_time": 6.268181818181818,
                "pitch": 50,
                "velocity": 127,
                "duration": 0.21136363636363598,
                "tempo": 120.0
            },
            {
                "start_time": 6.268181818181818,
                "end_time": 6.445454545454545,
                "pitch": 50,
                "velocity": 127,
                "duration": 0.1772727272727277,
                "tempo": 120.0
            },
            {
                "start_time": 6.445454545454545,
                "end_time": 6.629545454545454,
                "pitch": 45,
                "velocity": 127,
                "duration": 0.18409090909090864,
                "tempo": 120.0
            },
            {
                "start_time": 6.629545454545454,
                "end_time": 6.829545454545454,
                "pitch": 48,
                "velocity": 127,
                "duration": 0.20000000000000018,
                "tempo": 120.0
            },
            {
                "start_time": 6.829545454545454,
                "end_time": 7.225,
                "pitch": 50,
                "velocity": 127,
                "duration": 0.3954545454545455,
                "tempo": 120.0
            },
            {
                "start_time": 7.225,
                "end_time": 7.420454545454545,
                "pitch": 45,
                "velocity": 127,
                "duration": 0.19545454545454533,
                "tempo": 120.0
            },
            {
                "start_time": 7.420454545454545,
                "end_time": 7.627272727272727,
                "pitch": 48,
                "velocity": 127,
                "duration": 0.206818181818182,
                "tempo": 120.0
            },
            {
                "start_time": 7.627272727272727,
                "end_time": 8.027272727272727,
                "pitch": 50,
                "velocity": 127,
                "duration": 0.40000000000000036,
                "tempo": 120.0
            },
            {
                "start_time": 8.027272727272727,
                "end_time": 8.195454545454545,
                "pitch": 45,
                "velocity": 127,
                "duration": 0.168181818181818,
                "tempo": 120.0
            },
            {
                "start_time": 8.195454545454545,
                "end_time": 8.379545454545454,
                "pitch": 48,
                "velocity": 127,
                "duration": 0.18409090909090864,
                "tempo": 120.0
            },
            {
                "start_time": 8.379545454545454,
                "end_time": 8.563636363636363,
                "pitch": 50,
                "velocity": 127,
                "duration": 0.18409090909090864,
                "tempo": 120.0
            },
            {
                "start_time": 8.563636363636363,
                "end_time": 8.76590909090909,
                "pitch": 50,
                "velocity": 127,
                "duration": 0.20227272727272805,
                "tempo": 120.0
            },
            {
                "start_time": 8.76590909090909,
                "end_time": 8.968181818181817,
                "pitch": 45,
                "velocity": 127,
                "duration": 0.20227272727272627,
                "tempo": 120.0
            },
            {
                "start_time": 8.968181818181817,
                "end_time": 9.168181818181818,
                "pitch": 48,
                "velocity": 127,
                "duration": 0.20000000000000107,
                "tempo": 120.0
            },
            {
                "start_time": 9.168181818181818,
                "end_time": 9.370454545454544,
                "pitch": 50,
                "velocity": 127,
                "duration": 0.20227272727272627,
                "tempo": 120.0
            },
            {
                "start_time": 9.370454545454544,
                "end_time": 9.570454545454545,
                "pitch": 50,
                "velocity": 127,
                "duration": 0.20000000000000107,
                "tempo": 120.0
            },
            {
                "start_time": 9.570454545454545,
                "end_time": 9.772727272727272,
                "pitch": 45,
                "velocity": 127,
                "duration": 0.20227272727272627,
                "tempo": 120.0
            },
            {
                "start_time": 9.772727272727272,
                "end_time": 9.975,
                "pitch": 48,
                "velocity": 127,
                "duration": 0.20227272727272805,
                "tempo": 120.0
            },
            {
                "start_time": 9.975,
                "end_time": 10.345454545454546,
                "pitch": 50,
                "velocity": 127,
                "duration": 0.37045454545454604,
                "tempo": 120.0
            },
            {
                "start_time": 10.345454545454546,
                "end_time": 10.545454545454545,
                "pitch": 45,
                "velocity": 127,
                "duration": 0.1999999999999993,
                "tempo": 120.0
            },
            {
                "start_time": 10.545454545454545,
                "end_time": 10.729545454545454,
                "pitch": 48,
                "velocity": 127,
                "duration": 0.18409090909090864,
                "tempo": 120.0
            },
            {
                "start_time": 10.729545454545454,
                "end_time": 11.118181818181817,
                "pitch": 50,
                "velocity": 127,
                "duration": 0.38863636363636367,
                "tempo": 120.0
            },
            {
                "start_time": 11.118181818181817,
                "end_time": 11.318181818181818,
                "pitch": 45,
                "velocity": 127,
                "duration": 0.20000000000000107,
                "tempo": 120.0
            },
            {
                "start_time": 11.318181818181818,
                "end_time": 11.518181818181818,
                "pitch": 48,
                "velocity": 127,
                "duration": 0.1999999999999993,
                "tempo": 120.0
            },
            {
                "start_time": 11.518181818181818,
                "end_time": 11.718181818181817,
                "pitch": 50,
                "velocity": 127,
                "duration": 0.1999999999999993,
                "tempo": 120.0
            },
            {
                "start_time": 11.718181818181817,
                "end_time": 11.920454545454545,
                "pitch": 50,
                "velocity": 127,
                "duration": 0.20227272727272805,
                "tempo": 120.0
            },
            {
                "start_time": 11.920454545454545,
                "end_time": 12.120454545454544,
                "pitch": 45,
                "velocity": 127,
                "duration": 0.1999999999999993,
                "tempo": 120.0
            },
            {
                "start_time": 12.120454545454544,
                "end_time": 12.293181818181818,
                "pitch": 48,
                "velocity": 127,
                "duration": 0.17272727272727373,
                "tempo": 120.0
            },
            {
                "start_time": 12.293181818181818,
                "end_time": 12.493181818181817,
                "pitch": 50,
                "velocity": 127,
                "duration": 0.1999999999999993,
                "tempo": 120.0
            },
            {
                "start_time": 12.493181818181817,
                "end_time": 12.679545454545455,
                "pitch": 50,
                "velocity": 127,
                "duration": 0.1863636363636374,
                "tempo": 120.0
            },
            {
                "start_time": 12.679545454545455,
                "end_time": 12.863636363636363,
                "pitch": 45,
                "velocity": 127,
                "duration": 0.18409090909090864,
                "tempo": 120.0
            },
            {
                "start_time": 12.863636363636363,
                "end_time": 13.06590909090909,
                "pitch": 48,
                "velocity": 127,
                "duration": 0.20227272727272627,
                "tempo": 120.0
            },
            {
                "start_time": 13.06590909090909,
                "end_time": 13.468181818181817,
                "pitch": 50,
                "velocity": 127,
                "duration": 0.40227272727272734,
                "tempo": 120.0
            },
            {
                "start_time": 13.468181818181817,
                "end_time": 13.670454545454545,
                "pitch": 45,
                "velocity": 127,
                "duration": 0.20227272727272805,
                "tempo": 120.0
            },
            {
                "start_time": 13.670454545454545,
                "end_time": 13.870454545454544,
                "pitch": 48,
                "velocity": 127,
                "duration": 0.1999999999999993,
                "tempo": 120.0
            },
            {
                "start_time": 13.870454545454544,
                "end_time": 14.268181818181818,
                "pitch": 50,
                "velocity": 127,
                "duration": 0.3977272727272734,
                "tempo": 120.0
            },
            {
                "start_time": 14.268181818181818,
                "end_time": 14.424999999999999,
                "pitch": 45,
                "velocity": 127,
                "duration": 0.1568181818181813,
                "tempo": 120.0
            },
            {
                "start_time": 14.424999999999999,
                "end_time": 14.609090909090908,
                "pitch": 48,
                "velocity": 127,
                "duration": 0.18409090909090864,
                "tempo": 120.0
            },
            {
                "start_time": 14.609090909090908,
                "end_time": 14.795454545454545,
                "pitch": 50,
                "velocity": 127,
                "duration": 0.1863636363636374,
                "tempo": 120.0
            },
            {
                "start_time": 14.795454545454545,
                "end_time": 14.995454545454544,
                "pitch": 50,
                "velocity": 127,
                "duration": 0.1999999999999993,
                "tempo": 120.0
            },
            {
                "start_time": 14.995454545454544,
                "end_time": 15.197727272727272,
                "pitch": 45,
                "velocity": 127,
                "duration": 0.20227272727272805,
                "tempo": 120.0
            },
            {
                "start_time": 15.197727272727272,
                "end_time": 15.402272727272727,
                "pitch": 48,
                "velocity": 127,
                "duration": 0.20454545454545503,
                "tempo": 120.0
            },
            {
                "start_time": 15.402272727272727,
                "end_time": 15.609090909090908,
                "pitch": 50,
                "velocity": 127,
                "duration": 0.20681818181818024,
                "tempo": 120.0
            },
            {
                "start_time": 15.609090909090908,
                "end_time": 15.809090909090909,
                "pitch": 50,
                "velocity": 127,
                "duration": 0.20000000000000107,
                "tempo": 120.0
            },
            {
                "start_time": 15.809090909090909,
                "end_time": 16.009090909090908,
                "pitch": 45,
                "velocity": 127,
                "duration": 0.1999999999999993,
                "tempo": 120.0
            },
            {
                "start_time": 16.009090909090908,
                "end_time": 16.204545454545453,
                "pitch": 48,
                "velocity": 127,
                "duration": 0.19545454545454533,
                "tempo": 120.0
            },
            {
                "start_time": 16.204545454545453,
                "end_time": 16.570454545454545,
                "pitch": 50,
                "velocity": 127,
                "duration": 0.36590909090909207,
                "tempo": 120.0
            },
            {
                "start_time": 16.570454545454545,
                "end_time": 16.770454545454545,
                "pitch": 45,
                "velocity": 127,
                "duration": 0.1999999999999993,
                "tempo": 120.0
            },
            {
                "start_time": 16.770454545454545,
                "end_time": 16.956818181818182,
                "pitch": 48,
                "velocity": 127,
                "duration": 0.1863636363636374,
                "tempo": 120.0
            },
            {
                "start_time": 16.956818181818182,
                "end_time": 17.34318181818182,
                "pitch": 50,
                "velocity": 127,
                "duration": 0.3863636363636367,
                "tempo": 120.0
            },
            {
                "start_time": 17.34318181818182,
                "end_time": 17.543181818181818,
                "pitch": 45,
                "velocity": 127,
                "duration": 0.1999999999999993,
                "tempo": 120.0
            },
            {
                "start_time": 17.543181818181818,
                "end_time": 17.743181818181817,
                "pitch": 48,
                "velocity": 127,
                "duration": 0.1999999999999993,
                "tempo": 120.0
            },
            {
                "start_time": 17.743181818181817,
                "end_time": 17.943181818181817,
                "pitch": 50,
                "velocity": 127,
                "duration": 0.1999999999999993,
                "tempo": 120.0
            },
            {
                "start_time": 17.943181818181817,
                "end_time": 18.143181818181816,
                "pitch": 50,
                "velocity": 127,
                "duration": 0.1999999999999993,
                "tempo": 120.0
            },
            {
                "start_time": 18.143181818181816,
                "end_time": 18.34318181818182,
                "pitch": 45,
                "velocity": 127,
                "duration": 0.20000000000000284,
                "tempo": 120.0
            },
            {
                "start_time": 18.34318181818182,
                "end_time": 18.545454545454543,
                "pitch": 48,
                "velocity": 127,
                "duration": 0.2022727272727245,
                "tempo": 120.0
            },
            {
                "start_time": 18.545454545454543,
                "end_time": 18.71590909090909,
                "pitch": 50,
                "velocity": 127,
                "duration": 0.17045454545454675,
                "tempo": 120.0
            },
            {
                "start_time": 18.71590909090909,
                "end_time": 18.902272727272727,
                "pitch": 48,
                "velocity": 127,
                "duration": 0.1863636363636374,
                "tempo": 120.0
            },
            {
                "start_time": 18.902272727272727,
                "end_time": 19.086363636363636,
                "pitch": 45,
                "velocity": 127,
                "duration": 0.18409090909090864,
                "tempo": 120.0
            },
            {
                "start_time": 19.086363636363636,
                "end_time": 19.286363636363635,
                "pitch": 47,
                "velocity": 127,
                "duration": 0.1999999999999993,
                "tempo": 120.0
            },
            {
                "start_time": 19.286363636363635,
                "end_time": 19.686363636363634,
                "pitch": 48,
                "velocity": 127,
                "duration": 0.3999999999999986,
                "tempo": 120.0
            },
            {
                "start_time": 19.686363636363634,
                "end_time": 19.886363636363637,
                "pitch": 45,
                "velocity": 127,
                "duration": 0.20000000000000284,
                "tempo": 120.0
            },
            {
                "start_time": 19.886363636363637,
                "end_time": 20.08863636363636,
                "pitch": 47,
                "velocity": 127,
                "duration": 0.2022727272727245,
                "tempo": 120.0
            },
            {
                "start_time": 20.08863636363636,
                "end_time": 20.488636363636363,
                "pitch": 48,
                "velocity": 127,
                "duration": 0.40000000000000213,
                "tempo": 120.0
            },
            {
                "start_time": 20.488636363636363,
                "end_time": 20.688636363636363,
                "pitch": 45,
                "velocity": 127,
                "duration": 0.1999999999999993,
                "tempo": 120.0
            },
            {
                "start_time": 20.688636363636363,
                "end_time": 20.849999999999998,
                "pitch": 47,
                "velocity": 127,
                "duration": 0.16136363636363527,
                "tempo": 120.0
            },
            {
                "start_time": 20.849999999999998,
                "end_time": 21.061363636363634,
                "pitch": 48,
                "velocity": 127,
                "duration": 0.21136363636363598,
                "tempo": 120.0
            },
            {
                "start_time": 21.061363636363634,
                "end_time": 21.238636363636363,
                "pitch": 48,
                "velocity": 127,
                "duration": 0.17727272727272947,
                "tempo": 120.0
            },
            {
                "start_time": 21.238636363636363,
                "end_time": 21.422727272727272,
                "pitch": 45,
                "velocity": 127,
                "duration": 0.18409090909090864,
                "tempo": 120.0
            },
            {
                "start_time": 21.422727272727272,
                "end_time": 21.634090909090908,
                "pitch": 47,
                "velocity": 127,
                "duration": 0.21136363636363598,
                "tempo": 120.0
            },
            {
                "start_time": 21.634090909090908,
                "end_time": 21.825,
                "pitch": 48,
                "velocity": 127,
                "duration": 0.19090909090909136,
                "tempo": 120.0
            },
            {
                "start_time": 21.825,
                "end_time": 22.025,
                "pitch": 50,
                "velocity": 127,
                "duration": 0.1999999999999993,
                "tempo": 120.0
            },
            {
                "start_time": 22.025,
                "end_time": 22.224999999999998,
                "pitch": 45,
                "velocity": 127,
                "duration": 0.1999999999999993,
                "tempo": 120.0
            },
            {
                "start_time": 22.224999999999998,
                "end_time": 22.424999999999997,
                "pitch": 48,
                "velocity": 127,
                "duration": 0.1999999999999993,
                "tempo": 120.0
            },
            {
                "start_time": 22.424999999999997,
                "end_time": 22.820454545454545,
                "pitch": 50,
                "velocity": 127,
                "duration": 0.39545454545454817,
                "tempo": 120.0
            },
            {
                "start_time": 22.820454545454545,
                "end_time": 22.988636363636363,
                "pitch": 45,
                "velocity": 127,
                "duration": 0.168181818181818,
                "tempo": 120.0
            },
            {
                "start_time": 22.988636363636363,
                "end_time": 23.172727272727272,
                "pitch": 48,
                "velocity": 127,
                "duration": 0.18409090909090864,
                "tempo": 120.0
            },
            {
                "start_time": 23.172727272727272,
                "end_time": 23.55909090909091,
                "pitch": 50,
                "velocity": 127,
                "duration": 0.3863636363636367,
                "tempo": 120.0
            },
            {
                "start_time": 23.55909090909091,
                "end_time": 23.759090909090908,
                "pitch": 45,
                "velocity": 127,
                "duration": 0.1999999999999993,
                "tempo": 120.0
            },
            {
                "start_time": 23.759090909090908,
                "end_time": 23.959090909090907,
                "pitch": 48,
                "velocity": 127,
                "duration": 0.1999999999999993,
                "tempo": 120.0
            },
            {
                "start_time": 23.959090909090907,
                "end_time": 24.161363636363635,
                "pitch": 50,
                "velocity": 127,
                "duration": 0.20227272727272805,
                "tempo": 120.0
            },
            {
                "start_time": 24.161363636363635,
                "end_time": 24.361363636363635,
                "pitch": 50,
                "velocity": 127,
                "duration": 0.1999999999999993,
                "tempo": 120.0
            },
            {
                "start_time": 24.361363636363635,
                "end_time": 24.561363636363634,
                "pitch": 45,
                "velocity": 127,
                "duration": 0.1999999999999993,
                "tempo": 120.0
            },
            {
                "start_time": 24.561363636363634,
                "end_time": 24.761363636363637,
                "pitch": 48,
                "velocity": 127,
                "duration": 0.20000000000000284,
                "tempo": 120.0
            },
            {
                "start_time": 24.761363636363637,
                "end_time": 24.93409090909091,
                "pitch": 50,
                "velocity": 127,
                "duration": 0.17272727272727195,
                "tempo": 120.0
            },
            {
                "start_time": 24.93409090909091,
                "end_time": 25.118181818181817,
                "pitch": 50,
                "velocity": 127,
                "duration": 0.18409090909090864,
                "tempo": 120.0
            },
            {
                "start_time": 25.118181818181817,
                "end_time": 25.304545454545455,
                "pitch": 45,
                "velocity": 127,
                "duration": 0.1863636363636374,
                "tempo": 120.0
            },
            {
                "start_time": 25.304545454545455,
                "end_time": 25.504545454545454,
                "pitch": 48,
                "velocity": 127,
                "duration": 0.1999999999999993,
                "tempo": 120.0
            },
            {
                "start_time": 25.504545454545454,
                "end_time": 25.706818181818182,
                "pitch": 50,
                "velocity": 127,
                "duration": 0.20227272727272805,
                "tempo": 120.0
            },
            {
                "start_time": 25.706818181818182,
                "end_time": 25.90681818181818,
                "pitch": 50,
                "velocity": 127,
                "duration": 0.1999999999999993,
                "tempo": 120.0
            },
            {
                "start_time": 25.90681818181818,
                "end_time": 26.10681818181818,
                "pitch": 45,
                "velocity": 127,
                "duration": 0.1999999999999993,
                "tempo": 120.0
            },
            {
                "start_time": 26.10681818181818,
                "end_time": 26.30681818181818,
                "pitch": 48,
                "velocity": 127,
                "duration": 0.1999999999999993,
                "tempo": 120.0
            },
            {
                "start_time": 26.30681818181818,
                "end_time": 26.509090909090908,
                "pitch": 50,
                "velocity": 127,
                "duration": 0.20227272727272805,
                "tempo": 120.0
            },
            {
                "start_time": 26.509090909090908,
                "end_time": 26.709090909090907,
                "pitch": 50,
                "velocity": 127,
                "duration": 0.1999999999999993,
                "tempo": 120.0
            },
            {
                "start_time": 26.709090909090907,
                "end_time": 26.909090909090907,
                "pitch": 45,
                "velocity": 127,
                "duration": 0.1999999999999993,
                "tempo": 120.0
            },
            {
                "start_time": 26.909090909090907,
                "end_time": 27.068181818181817,
                "pitch": 48,
                "velocity": 127,
                "duration": 0.15909090909091006,
                "tempo": 120.0
            },
            {
                "start_time": 27.068181818181817,
                "end_time": 27.079545454545453,
                "pitch": 50,
                "velocity": 127,
                "duration": 0.011363636363636687,
                "tempo": 120.0
            },
            {
                "start_time": 27.079545454545453,
                "end_time": 27.279545454545453,
                "pitch": 50,
                "velocity": 127,
                "duration": 0.1999999999999993,
                "tempo": 120.0
            },
            {
                "start_time": 27.279545454545453,
                "end_time": 27.46363636363636,
                "pitch": 50,
                "velocity": 127,
                "duration": 0.18409090909090864,
                "tempo": 120.0
            },
            {
                "start_time": 27.46363636363636,
                "end_time": 27.65,
                "pitch": 45,
                "velocity": 127,
                "duration": 0.1863636363636374,
                "tempo": 120.0
            },
            {
                "start_time": 27.65,
                "end_time": 27.849999999999998,
                "pitch": 48,
                "velocity": 127,
                "duration": 0.1999999999999993,
                "tempo": 120.0
            },
            {
                "start_time": 27.849999999999998,
                "end_time": 28.049999999999997,
                "pitch": 50,
                "velocity": 127,
                "duration": 0.1999999999999993,
                "tempo": 120.0
            },
            {
                "start_time": 28.049999999999997,
                "end_time": 28.25,
                "pitch": 50,
                "velocity": 127,
                "duration": 0.20000000000000284,
                "tempo": 120.0
            },
            {
                "start_time": 28.25,
                "end_time": 28.452272727272724,
                "pitch": 45,
                "velocity": 127,
                "duration": 0.2022727272727245,
                "tempo": 120.0
            },
            {
                "start_time": 28.452272727272724,
                "end_time": 28.652272727272727,
                "pitch": 48,
                "velocity": 127,
                "duration": 0.20000000000000284,
                "tempo": 120.0
            },
            {
                "start_time": 28.652272727272727,
                "end_time": 28.852272727272727,
                "pitch": 50,
                "velocity": 127,
                "duration": 0.1999999999999993,
                "tempo": 120.0
            },
            {
                "start_time": 28.852272727272727,
                "end_time": 29.047727272727272,
                "pitch": 50,
                "velocity": 127,
                "duration": 0.19545454545454533,
                "tempo": 120.0
            },
            {
                "start_time": 29.047727272727272,
                "end_time": 29.204545454545453,
                "pitch": 45,
                "velocity": 127,
                "duration": 0.1568181818181813,
                "tempo": 120.0
            },
            {
                "start_time": 29.204545454545453,
                "end_time": 29.39090909090909,
                "pitch": 48,
                "velocity": 127,
                "duration": 0.1863636363636374,
                "tempo": 120.0
            },
            {
                "start_time": 29.39090909090909,
                "end_time": 29.575,
                "pitch": 50,
                "velocity": 127,
                "duration": 0.18409090909090864,
                "tempo": 120.0
            },
            {
                "start_time": 29.575,
                "end_time": 29.775,
                "pitch": 50,
                "velocity": 127,
                "duration": 0.1999999999999993,
                "tempo": 120.0
            },
            {
                "start_time": 29.775,
                "end_time": 29.974999999999998,
                "pitch": 45,
                "velocity": 127,
                "duration": 0.1999999999999993,
                "tempo": 120.0
            },
            {
                "start_time": 29.974999999999998,
                "end_time": 30.177272727272726,
                "pitch": 48,
                "velocity": 127,
                "duration": 0.20227272727272805,
                "tempo": 120.0
            },
            {
                "start_time": 30.177272727272726,
                "end_time": 30.377272727272725,
                "pitch": 50,
                "velocity": 127,
                "duration": 0.1999999999999993,
                "tempo": 120.0
            },
            {
                "start_time": 30.377272727272725,
                "end_time": 30.577272727272724,
                "pitch": 50,
                "velocity": 127,
                "duration": 0.1999999999999993,
                "tempo": 120.0
            },
            {
                "start_time": 30.577272727272724,
                "end_time": 30.777272727272727,
                "pitch": 45,
                "velocity": 127,
                "duration": 0.20000000000000284,
                "tempo": 120.0
            },
            {
                "start_time": 30.777272727272727,
                "end_time": 30.977272727272727,
                "pitch": 48,
                "velocity": 127,
                "duration": 0.1999999999999993,
                "tempo": 120.0
            },
            {
                "start_time": 30.977272727272727,
                "end_time": 31.177272727272726,
                "pitch": 50,
                "velocity": 127,
                "duration": 0.1999999999999993,
                "tempo": 120.0
            },
            {
                "start_time": 31.177272727272726,
                "end_time": 31.349999999999998,
                "pitch": 50,
                "velocity": 127,
                "duration": 0.17272727272727195,
                "tempo": 120.0
            },
            {
                "start_time": 31.349999999999998,
                "end_time": 31.549999999999997,
                "pitch": 45,
                "velocity": 127,
                "duration": 0.1999999999999993,
                "tempo": 120.0
            },
            {
                "start_time": 31.549999999999997,
                "end_time": 31.736363636363635,
                "pitch": 48,
                "velocity": 127,
                "duration": 0.1863636363636374,
                "tempo": 120.0
            },
            {
                "start_time": 31.736363636363635,
                "end_time": 31.920454545454543,
                "pitch": 50,
                "velocity": 127,
                "duration": 0.18409090909090864,
                "tempo": 120.0
            },
            {
                "start_time": 31.920454545454543,
                "end_time": 32.12045454545454,
                "pitch": 50,
                "velocity": 127,
                "duration": 0.1999999999999993,
                "tempo": 120.0
            },
            {
                "start_time": 32.12045454545454,
                "end_time": 32.320454545454545,
                "pitch": 45,
                "velocity": 127,
                "duration": 0.20000000000000284,
                "tempo": 120.0
            },
            {
                "start_time": 32.320454545454545,
                "end_time": 32.52045454545454,
                "pitch": 48,
                "velocity": 127,
                "duration": 0.19999999999999574,
                "tempo": 120.0
            },
            {
                "start_time": 32.52045454545454,
                "end_time": 32.720454545454544,
                "pitch": 50,
                "velocity": 127,
                "duration": 0.20000000000000284,
                "tempo": 120.0
            },
            {
                "start_time": 32.720454545454544,
                "end_time": 32.92045454545455,
                "pitch": 50,
                "velocity": 127,
                "duration": 0.20000000000000284,
                "tempo": 120.0
            },
            {
                "start_time": 32.92045454545455,
                "end_time": 33.12045454545454,
                "pitch": 45,
                "velocity": 127,
                "duration": 0.19999999999999574,
                "tempo": 120.0
            },
            {
                "start_time": 33.12045454545454,
                "end_time": 33.32272727272727,
                "pitch": 48,
                "velocity": 127,
                "duration": 0.20227272727272805,
                "tempo": 120.0
            },
            {
                "start_time": 33.32272727272727,
                "end_time": 33.49318181818182,
                "pitch": 50,
                "velocity": 127,
                "duration": 0.17045454545454675,
                "tempo": 120.0
            },
            {
                "start_time": 33.49318181818182,
                "end_time": 33.679545454545455,
                "pitch": 50,
                "velocity": 127,
                "duration": 0.1863636363636374,
                "tempo": 120.0
            },
            {
                "start_time": 33.679545454545455,
                "end_time": 33.86363636363636,
                "pitch": 45,
                "velocity": 127,
                "duration": 0.18409090909090509,
                "tempo": 120.0
            },
            {
                "start_time": 33.86363636363636,
                "end_time": 34.06363636363636,
                "pitch": 48,
                "velocity": 127,
                "duration": 0.20000000000000284,
                "tempo": 120.0
            },
            {
                "start_time": 34.06363636363636,
                "end_time": 34.263636363636365,
                "pitch": 50,
                "velocity": 127,
                "duration": 0.20000000000000284,
                "tempo": 120.0
            },
            {
                "start_time": 34.263636363636365,
                "end_time": 34.46363636363636,
                "pitch": 50,
                "velocity": 127,
                "duration": 0.19999999999999574,
                "tempo": 120.0
            },
            {
                "start_time": 34.46363636363636,
                "end_time": 34.663636363636364,
                "pitch": 45,
                "velocity": 127,
                "duration": 0.20000000000000284,
                "tempo": 120.0
            },
            {
                "start_time": 34.663636363636364,
                "end_time": 34.86590909090909,
                "pitch": 48,
                "velocity": 127,
                "duration": 0.20227272727272805,
                "tempo": 120.0
            },
            {
                "start_time": 34.86590909090909,
                "end_time": 35.06590909090909,
                "pitch": 50,
                "velocity": 127,
                "duration": 0.19999999999999574,
                "tempo": 120.0
            },
            {
                "start_time": 35.06590909090909,
                "end_time": 35.26590909090909,
                "pitch": 50,
                "velocity": 127,
                "duration": 0.20000000000000284,
                "tempo": 120.0
            },
            {
                "start_time": 35.26590909090909,
                "end_time": 35.465909090909086,
                "pitch": 45,
                "velocity": 127,
                "duration": 0.19999999999999574,
                "tempo": 120.0
            },
            {
                "start_time": 35.465909090909086,
                "end_time": 35.62272727272727,
                "pitch": 48,
                "velocity": 127,
                "duration": 0.1568181818181813,
                "tempo": 120.0
            },
            {
                "start_time": 35.62272727272727,
                "end_time": 35.81818181818181,
                "pitch": 50,
                "velocity": 127,
                "duration": 0.19545454545454533,
                "tempo": 120.0
            },
            {
                "start_time": 35.81818181818181,
                "end_time": 36.00454545454545,
                "pitch": 50,
                "velocity": 127,
                "duration": 0.1863636363636374,
                "tempo": 120.0
            },
            {
                "start_time": 36.00454545454545,
                "end_time": 36.18863636363636,
                "pitch": 45,
                "velocity": 127,
                "duration": 0.1840909090909122,
                "tempo": 120.0
            },
            {
                "start_time": 36.18863636363636,
                "end_time": 36.38863636363636,
                "pitch": 48,
                "velocity": 127,
                "duration": 0.19999999999999574,
                "tempo": 120.0
            },
            {
                "start_time": 36.38863636363636,
                "end_time": 36.58863636363636,
                "pitch": 50,
                "velocity": 127,
                "duration": 0.20000000000000284,
                "tempo": 120.0
            },
            {
                "start_time": 36.58863636363636,
                "end_time": 36.788636363636364,
                "pitch": 50,
                "velocity": 127,
                "duration": 0.20000000000000284,
                "tempo": 120.0
            },
            {
                "start_time": 36.788636363636364,
                "end_time": 36.98863636363636,
                "pitch": 45,
                "velocity": 127,
                "duration": 0.19999999999999574,
                "tempo": 120.0
            },
            {
                "start_time": 36.98863636363636,
                "end_time": 37.19090909090909,
                "pitch": 48,
                "velocity": 127,
                "duration": 0.20227272727272805,
                "tempo": 120.0
            },
            {
                "start_time": 37.19090909090909,
                "end_time": 37.402272727272724,
                "pitch": 50,
                "velocity": 127,
                "duration": 0.21136363636363598,
                "tempo": 120.0
            },
            {
                "start_time": 37.402272727272724,
                "end_time": 37.56136363636364,
                "pitch": 50,
                "velocity": 127,
                "duration": 0.1590909090909136,
                "tempo": 120.0
            },
            {
                "start_time": 37.56136363636364,
                "end_time": 37.76136363636363,
                "pitch": 45,
                "velocity": 127,
                "duration": 0.19999999999999574,
                "tempo": 120.0
            },
            {
                "start_time": 37.76136363636363,
                "end_time": 37.94772727272727,
                "pitch": 48,
                "velocity": 127,
                "duration": 0.1863636363636374,
                "tempo": 120.0
            },
            {
                "start_time": 37.94772727272727,
                "end_time": 38.13181818181818,
                "pitch": 50,
                "velocity": 127,
                "duration": 0.1840909090909122,
                "tempo": 120.0
            },
            {
                "start_time": 38.13181818181818,
                "end_time": 38.33181818181818,
                "pitch": 50,
                "velocity": 127,
                "duration": 0.19999999999999574,
                "tempo": 120.0
            },
            {
                "start_time": 38.33181818181818,
                "end_time": 38.53181818181818,
                "pitch": 45,
                "velocity": 127,
                "duration": 0.20000000000000284,
                "tempo": 120.0
            },
            {
                "start_time": 38.53181818181818,
                "end_time": 38.73409090909091,
                "pitch": 48,
                "velocity": 127,
                "duration": 0.20227272727272805,
                "tempo": 120.0
            },
            {
                "start_time": 38.73409090909091,
                "end_time": 38.93636363636364,
                "pitch": 50,
                "velocity": 127,
                "duration": 0.20227272727272805,
                "tempo": 120.0
            },
            {
                "start_time": 38.93636363636364,
                "end_time": 39.13636363636363,
                "pitch": 50,
                "velocity": 127,
                "duration": 0.19999999999999574,
                "tempo": 120.0
            },
            {
                "start_time": 39.13636363636363,
                "end_time": 39.336363636363636,
                "pitch": 45,
                "velocity": 127,
                "duration": 0.20000000000000284,
                "tempo": 120.0
            },
            {
                "start_time": 39.336363636363636,
                "end_time": 39.53636363636363,
                "pitch": 48,
                "velocity": 127,
                "duration": 0.19999999999999574,
                "tempo": 120.0
            },
            {
                "start_time": 39.53636363636363,
                "end_time": 39.70454545454545,
                "pitch": 50,
                "velocity": 127,
                "duration": 0.16818181818182154,
                "tempo": 120.0
            },
            {
                "start_time": 39.70454545454545,
                "end_time": 39.89090909090909,
                "pitch": 50,
                "velocity": 127,
                "duration": 0.1863636363636374,
                "tempo": 120.0
            },
            {
                "start_time": 39.89090909090909,
                "end_time": 40.074999999999996,
                "pitch": 45,
                "velocity": 127,
                "duration": 0.18409090909090509,
                "tempo": 120.0
            },
            {
                "start_time": 40.074999999999996,
                "end_time": 40.277272727272724,
                "pitch": 48,
                "velocity": 127,
                "duration": 0.20227272727272805,
                "tempo": 120.0
            },
            {
                "start_time": 40.277272727272724,
                "end_time": 40.47727272727273,
                "pitch": 50,
                "velocity": 127,
                "duration": 0.20000000000000284,
                "tempo": 120.0
            },
            {
                "start_time": 40.47727272727273,
                "end_time": 40.67727272727272,
                "pitch": 50,
                "velocity": 127,
                "duration": 0.19999999999999574,
                "tempo": 120.0
            },
            {
                "start_time": 40.67727272727272,
                "end_time": 40.877272727272725,
                "pitch": 45,
                "velocity": 127,
                "duration": 0.20000000000000284,
                "tempo": 120.0
            },
            {
                "start_time": 40.877272727272725,
                "end_time": 41.07727272727273,
                "pitch": 48,
                "velocity": 127,
                "duration": 0.20000000000000284,
                "tempo": 120.0
            },
            {
                "start_time": 41.07727272727273,
                "end_time": 41.277272727272724,
                "pitch": 50,
                "velocity": 127,
                "duration": 0.19999999999999574,
                "tempo": 120.0
            },
            {
                "start_time": 41.277272727272724,
                "end_time": 41.47727272727273,
                "pitch": 50,
                "velocity": 127,
                "duration": 0.20000000000000284,
                "tempo": 120.0
            },
            {
                "start_time": 41.47727272727273,
                "end_time": 41.67727272727272,
                "pitch": 45,
                "velocity": 127,
                "duration": 0.19999999999999574,
                "tempo": 120.0
            },
            {
                "start_time": 41.67727272727272,
                "end_time": 41.83863636363636,
                "pitch": 48,
                "velocity": 127,
                "duration": 0.16136363636363882,
                "tempo": 120.0
            },
            {
                "start_time": 41.83863636363636,
                "end_time": 42.038636363636364,
                "pitch": 50,
                "velocity": 127,
                "duration": 0.20000000000000284,
                "tempo": 120.0
            },
            {
                "start_time": 42.038636363636364,
                "end_time": 42.23409090909091,
                "pitch": 50,
                "velocity": 127,
                "duration": 0.19545454545454533,
                "tempo": 120.0
            },
            {
                "start_time": 42.23409090909091,
                "end_time": 42.40909090909091,
                "pitch": 45,
                "velocity": 127,
                "duration": 0.17499999999999716,
                "tempo": 120.0
            },
            {
                "start_time": 42.40909090909091,
                "end_time": 42.60909090909091,
                "pitch": 48,
                "velocity": 127,
                "duration": 0.20000000000000284,
                "tempo": 120.0
            },
            {
                "start_time": 42.60909090909091,
                "end_time": 42.81818181818181,
                "pitch": 50,
                "velocity": 127,
                "duration": 0.20909090909090366,
                "tempo": 120.0
            },
            {
                "start_time": 42.81818181818181,
                "end_time": 43.00909090909091,
                "pitch": 50,
                "velocity": 127,
                "duration": 0.19090909090909491,
                "tempo": 120.0
            },
            {
                "start_time": 43.00909090909091,
                "end_time": 43.21818181818182,
                "pitch": 45,
                "velocity": 127,
                "duration": 0.20909090909091077,
                "tempo": 120.0
            },
            {
                "start_time": 43.21818181818182,
                "end_time": 43.40909090909091,
                "pitch": 48,
                "velocity": 127,
                "duration": 0.1909090909090878,
                "tempo": 120.0
            },
            {
                "start_time": 43.40909090909091,
                "end_time": 43.61818181818182,
                "pitch": 50,
                "velocity": 127,
                "duration": 0.20909090909091077,
                "tempo": 120.0
            },
            {
                "start_time": 43.61818181818182,
                "end_time": 43.804545454545455,
                "pitch": 50,
                "velocity": 127,
                "duration": 0.1863636363636374,
                "tempo": 120.0
            },
            {
                "start_time": 43.81363636363636,
                "end_time": 43.970454545454544,
                "pitch": 45,
                "velocity": 127,
                "duration": 0.1568181818181813,
                "tempo": 120.0
            },
            {
                "start_time": 43.970454545454544,
                "end_time": 44.15681818181818,
                "pitch": 48,
                "velocity": 127,
                "duration": 0.1863636363636374,
                "tempo": 120.0
            },
            {
                "start_time": 44.15681818181818,
                "end_time": 44.340909090909086,
                "pitch": 50,
                "velocity": 127,
                "duration": 0.18409090909090509,
                "tempo": 120.0
            },
            {
                "start_time": 44.340909090909086,
                "end_time": 44.54090909090909,
                "pitch": 50,
                "velocity": 127,
                "duration": 0.20000000000000284,
                "tempo": 120.0
            },
            {
                "start_time": 44.54090909090909,
                "end_time": 44.74090909090909,
                "pitch": 45,
                "velocity": 127,
                "duration": 0.20000000000000284,
                "tempo": 120.0
            },
            {
                "start_time": 44.74090909090909,
                "end_time": 44.94090909090909,
                "pitch": 48,
                "velocity": 127,
                "duration": 0.19999999999999574,
                "tempo": 120.0
            },
            {
                "start_time": 44.94090909090909,
                "end_time": 45.14090909090909,
                "pitch": 50,
                "velocity": 127,
                "duration": 0.20000000000000284,
                "tempo": 120.0
            },
            {
                "start_time": 45.14090909090909,
                "end_time": 45.340909090909086,
                "pitch": 50,
                "velocity": 127,
                "duration": 0.19999999999999574,
                "tempo": 120.0
            },
            {
                "start_time": 45.340909090909086,
                "end_time": 45.54090909090909,
                "pitch": 45,
                "velocity": 127,
                "duration": 0.20000000000000284,
                "tempo": 120.0
            },
            {
                "start_time": 45.54090909090909,
                "end_time": 45.74090909090909,
                "pitch": 48,
                "velocity": 127,
                "duration": 0.20000000000000284,
                "tempo": 120.0
            },
            {
                "start_time": 45.74090909090909,
                "end_time": 45.94090909090909,
                "pitch": 50,
                "velocity": 127,
                "duration": 0.19999999999999574,
                "tempo": 120.0
            },
            {
                "start_time": 45.94090909090909,
                "end_time": 46.11363636363636,
                "pitch": 50,
                "velocity": 127,
                "duration": 0.17272727272727195,
                "tempo": 120.0
            },
            {
                "start_time": 46.11363636363636,
                "end_time": 46.31363636363636,
                "pitch": 45,
                "velocity": 127,
                "duration": 0.20000000000000284,
                "tempo": 120.0
            },
            {
                "start_time": 46.31363636363636,
                "end_time": 46.5,
                "pitch": 48,
                "velocity": 127,
                "duration": 0.1863636363636374,
                "tempo": 120.0
            },
            {
                "start_time": 46.5,
                "end_time": 46.684090909090905,
                "pitch": 50,
                "velocity": 127,
                "duration": 0.18409090909090509,
                "tempo": 120.0
            },
            {
                "start_time": 46.684090909090905,
                "end_time": 46.88409090909091,
                "pitch": 50,
                "velocity": 127,
                "duration": 0.20000000000000284,
                "tempo": 120.0
            },
            {
                "start_time": 46.88409090909091,
                "end_time": 47.084090909090904,
                "pitch": 45,
                "velocity": 127,
                "duration": 0.19999999999999574,
                "tempo": 120.0
            },
            {
                "start_time": 47.084090909090904,
                "end_time": 47.28409090909091,
                "pitch": 48,
                "velocity": 127,
                "duration": 0.20000000000000284,
                "tempo": 120.0
            },
            {
                "start_time": 47.28409090909091,
                "end_time": 47.48409090909091,
                "pitch": 50,
                "velocity": 127,
                "duration": 0.20000000000000284,
                "tempo": 120.0
            },
            {
                "start_time": 47.48409090909091,
                "end_time": 47.68636363636364,
                "pitch": 50,
                "velocity": 127,
                "duration": 0.20227272727272805,
                "tempo": 120.0
            },
            {
                "start_time": 47.68636363636364,
                "end_time": 47.88636363636363,
                "pitch": 45,
                "velocity": 127,
                "duration": 0.19999999999999574,
                "tempo": 120.0
            },
            {
                "start_time": 47.88636363636363,
                "end_time": 48.086363636363636,
                "pitch": 48,
                "velocity": 127,
                "duration": 0.20000000000000284,
                "tempo": 120.0
            },
            {
                "start_time": 48.086363636363636,
                "end_time": 48.25681818181818,
                "pitch": 50,
                "velocity": 127,
                "duration": 0.17045454545454675,
                "tempo": 120.0
            },
            {
                "start_time": 48.25681818181818,
                "end_time": 48.44318181818181,
                "pitch": 50,
                "velocity": 127,
                "duration": 0.1863636363636303,
                "tempo": 120.0
            },
            {
                "start_time": 48.44318181818181,
                "end_time": 48.627272727272725,
                "pitch": 45,
                "velocity": 127,
                "duration": 0.1840909090909122,
                "tempo": 120.0
            },
            {
                "start_time": 48.627272727272725,
                "end_time": 48.82727272727273,
                "pitch": 48,
                "velocity": 127,
                "duration": 0.20000000000000284,
                "tempo": 120.0
            },
            {
                "start_time": 48.82727272727273,
                "end_time": 49.027272727272724,
                "pitch": 50,
                "velocity": 127,
                "duration": 0.19999999999999574,
                "tempo": 120.0
            },
            {
                "start_time": 49.027272727272724,
                "end_time": 49.22727272727273,
                "pitch": 50,
                "velocity": 127,
                "duration": 0.20000000000000284,
                "tempo": 120.0
            },
            {
                "start_time": 49.22727272727273,
                "end_time": 49.42727272727272,
                "pitch": 45,
                "velocity": 127,
                "duration": 0.19999999999999574,
                "tempo": 120.0
            },
            {
                "start_time": 49.42727272727272,
                "end_time": 49.62954545454545,
                "pitch": 48,
                "velocity": 127,
                "duration": 0.20227272727272805,
                "tempo": 120.0
            },
            {
                "start_time": 49.62954545454545,
                "end_time": 49.82954545454545,
                "pitch": 50,
                "velocity": 127,
                "duration": 0.20000000000000284,
                "tempo": 120.0
            },
            {
                "start_time": 49.82954545454545,
                "end_time": 50.02954545454545,
                "pitch": 48,
                "velocity": 127,
                "duration": 0.19999999999999574,
                "tempo": 120.0
            },
            {
                "start_time": 50.02954545454545,
                "end_time": 50.19090909090909,
                "pitch": 47,
                "velocity": 127,
                "duration": 0.16136363636363882,
                "tempo": 120.0
            },
            {
                "start_time": 50.19090909090909,
                "end_time": 50.37045454545454,
                "pitch": 45,
                "velocity": 127,
                "duration": 0.17954545454545467,
                "tempo": 120.0
            },
            {
                "start_time": 50.37045454545454,
                "end_time": 50.55227272727272,
                "pitch": 48,
                "velocity": 127,
                "duration": 0.18181818181817988,
                "tempo": 120.0
            },
            {
                "start_time": 50.55227272727272,
                "end_time": 50.752272727272725,
                "pitch": 47,
                "velocity": 127,
                "duration": 0.20000000000000284,
                "tempo": 120.0
            },
            {
                "start_time": 50.752272727272725,
                "end_time": 50.95227272727273,
                "pitch": 45,
                "velocity": 127,
                "duration": 0.20000000000000284,
                "tempo": 120.0
            },
            {
                "start_time": 50.95227272727273,
                "end_time": 51.152272727272724,
                "pitch": 48,
                "velocity": 127,
                "duration": 0.19999999999999574,
                "tempo": 120.0
            },
            {
                "start_time": 51.152272727272724,
                "end_time": 51.35227272727273,
                "pitch": 47,
                "velocity": 127,
                "duration": 0.20000000000000284,
                "tempo": 120.0
            },
            {
                "start_time": 51.35227272727273,
                "end_time": 51.55227272727272,
                "pitch": 45,
                "velocity": 127,
                "duration": 0.19999999999999574,
                "tempo": 120.0
            },
            {
                "start_time": 51.55227272727272,
                "end_time": 51.75454545454545,
                "pitch": 48,
                "velocity": 127,
                "duration": 0.20227272727272805,
                "tempo": 120.0
            },
            {
                "start_time": 51.75454545454545,
                "end_time": 51.95454545454545,
                "pitch": 47,
                "velocity": 127,
                "duration": 0.20000000000000284,
                "tempo": 120.0
            },
            {
                "start_time": 51.95454545454545,
                "end_time": 52.15454545454545,
                "pitch": 45,
                "velocity": 127,
                "duration": 0.19999999999999574,
                "tempo": 120.0
            },
            {
                "start_time": 52.15454545454545,
                "end_time": 52.324999999999996,
                "pitch": 48,
                "velocity": 127,
                "duration": 0.17045454545454675,
                "tempo": 120.0
            },
            {
                "start_time": 52.324999999999996,
                "end_time": 52.525,
                "pitch": 47,
                "velocity": 127,
                "duration": 0.20000000000000284,
                "tempo": 120.0
            },
            {
                "start_time": 52.525,
                "end_time": 52.709090909090904,
                "pitch": 45,
                "velocity": 127,
                "duration": 0.18409090909090509,
                "tempo": 120.0
            },
            {
                "start_time": 52.709090909090904,
                "end_time": 52.89545454545454,
                "pitch": 48,
                "velocity": 127,
                "duration": 0.1863636363636374,
                "tempo": 120.0
            },
            {
                "start_time": 52.89545454545454,
                "end_time": 53.095454545454544,
                "pitch": 50,
                "velocity": 127,
                "duration": 0.20000000000000284,
                "tempo": 120.0
            },
            {
                "start_time": 53.095454545454544,
                "end_time": 53.29772727272727,
                "pitch": 48,
                "velocity": 127,
                "duration": 0.20227272727272805,
                "tempo": 120.0
            },
            {
                "start_time": 53.29772727272727,
                "end_time": 53.49772727272727,
                "pitch": 47,
                "velocity": 127,
                "duration": 0.19999999999999574,
                "tempo": 120.0
            },
            {
                "start_time": 53.49772727272727,
                "end_time": 53.69772727272727,
                "pitch": 50,
                "velocity": 127,
                "duration": 0.20000000000000284,
                "tempo": 120.0
            },
            {
                "start_time": 53.69772727272727,
                "end_time": 53.89772727272727,
                "pitch": 48,
                "velocity": 127,
                "duration": 0.20000000000000284,
                "tempo": 120.0
            },
            {
                "start_time": 53.89772727272727,
                "end_time": 54.09772727272727,
                "pitch": 47,
                "velocity": 127,
                "duration": 0.19999999999999574,
                "tempo": 120.0
            },
            {
                "start_time": 54.09772727272727,
                "end_time": 54.29772727272727,
                "pitch": 50,
                "velocity": 127,
                "duration": 0.20000000000000284,
                "tempo": 120.0
            },
            {
                "start_time": 54.29772727272727,
                "end_time": 54.46818181818182,
                "pitch": 48,
                "velocity": 127,
                "duration": 0.17045454545454675,
                "tempo": 120.0
            },
            {
                "start_time": 54.46818181818182,
                "end_time": 54.652272727272724,
                "pitch": 47,
                "velocity": 127,
                "duration": 0.18409090909090509,
                "tempo": 120.0
            },
            {
                "start_time": 54.652272727272724,
                "end_time": 54.83863636363636,
                "pitch": 50,
                "velocity": 127,
                "duration": 0.1863636363636374,
                "tempo": 120.0
            },
            {
                "start_time": 54.83863636363636,
                "end_time": 55.038636363636364,
                "pitch": 48,
                "velocity": 127,
                "duration": 0.20000000000000284,
                "tempo": 120.0
            },
            {
                "start_time": 55.038636363636364,
                "end_time": 55.240909090909085,
                "pitch": 47,
                "velocity": 127,
                "duration": 0.20227272727272094,
                "tempo": 120.0
            },
            {
                "start_time": 55.240909090909085,
                "end_time": 55.44090909090909,
                "pitch": 50,
                "velocity": 127,
                "duration": 0.20000000000000284,
                "tempo": 120.0
            },
            {
                "start_time": 55.44090909090909,
                "end_time": 55.64090909090909,
                "pitch": 48,
                "velocity": 127,
                "duration": 0.20000000000000284,
                "tempo": 120.0
            },
            {
                "start_time": 55.64090909090909,
                "end_time": 55.840909090909086,
                "pitch": 47,
                "velocity": 127,
                "duration": 0.19999999999999574,
                "tempo": 120.0
            },
            {
                "start_time": 55.840909090909086,
                "end_time": 56.04090909090909,
                "pitch": 50,
                "velocity": 127,
                "duration": 0.20000000000000284,
                "tempo": 120.0
            },
            {
                "start_time": 56.04090909090909,
                "end_time": 56.240909090909085,
                "pitch": 48,
                "velocity": 127,
                "duration": 0.19999999999999574,
                "tempo": 120.0
            },
            {
                "start_time": 56.240909090909085,
                "end_time": 56.44090909090909,
                "pitch": 47,
                "velocity": 127,
                "duration": 0.20000000000000284,
                "tempo": 120.0
            },
            {
                "start_time": 56.44090909090909,
                "end_time": 56.599999999999994,
                "pitch": 45,
                "velocity": 127,
                "duration": 0.1590909090909065,
                "tempo": 120.0
            },
            {
                "start_time": 56.599999999999994,
                "end_time": 56.8,
                "pitch": 48,
                "velocity": 127,
                "duration": 0.20000000000000284,
                "tempo": 120.0
            },
            {
                "start_time": 56.8,
                "end_time": 56.986363636363635,
                "pitch": 47,
                "velocity": 127,
                "duration": 0.1863636363636374,
                "tempo": 120.0
            },
            {
                "start_time": 56.986363636363635,
                "end_time": 57.17272727272727,
                "pitch": 45,
                "velocity": 127,
                "duration": 0.1863636363636374,
                "tempo": 120.0
            },
            {
                "start_time": 57.17272727272727,
                "end_time": 57.381818181818176,
                "pitch": 48,
                "velocity": 127,
                "duration": 0.20909090909090366,
                "tempo": 120.0
            },
            {
                "start_time": 57.381818181818176,
                "end_time": 57.570454545454545,
                "pitch": 47,
                "velocity": 127,
                "duration": 0.1886363636363697,
                "tempo": 120.0
            },
            {
                "start_time": 57.570454545454545,
                "end_time": 57.77045454545454,
                "pitch": 45,
                "velocity": 127,
                "duration": 0.19999999999999574,
                "tempo": 120.0
            },
            {
                "start_time": 57.77045454545454,
                "end_time": 57.970454545454544,
                "pitch": 48,
                "velocity": 127,
                "duration": 0.20000000000000284,
                "tempo": 120.0
            },
            {
                "start_time": 57.970454545454544,
                "end_time": 58.17045454545454,
                "pitch": 47,
                "velocity": 127,
                "duration": 0.19999999999999574,
                "tempo": 120.0
            },
            {
                "start_time": 58.17045454545454,
                "end_time": 58.37045454545454,
                "pitch": 45,
                "velocity": 127,
                "duration": 0.20000000000000284,
                "tempo": 120.0
            },
            {
                "start_time": 58.37045454545454,
                "end_time": 58.56818181818181,
                "pitch": 48,
                "velocity": 127,
                "duration": 0.19772727272727053,
                "tempo": 120.0
            },
            {
                "start_time": 58.56818181818181,
                "end_time": 58.73409090909091,
                "pitch": 47,
                "velocity": 127,
                "duration": 0.16590909090909634,
                "tempo": 120.0
            },
            {
                "start_time": 58.73409090909091,
                "end_time": 58.918181818181814,
                "pitch": 45,
                "velocity": 127,
                "duration": 0.18409090909090509,
                "tempo": 120.0
            },
            {
                "start_time": 58.918181818181814,
                "end_time": 59.10454545454545,
                "pitch": 48,
                "velocity": 127,
                "duration": 0.1863636363636374,
                "tempo": 120.0
            },
            {
                "start_time": 59.10454545454545,
                "end_time": 59.304545454545455,
                "pitch": 50,
                "velocity": 127,
                "duration": 0.20000000000000284,
                "tempo": 120.0
            },
            {
                "start_time": 59.304545454545455,
                "end_time": 59.50454545454545,
                "pitch": 48,
                "velocity": 127,
                "duration": 0.19999999999999574,
                "tempo": 120.0
            },
            {
                "start_time": 59.50454545454545,
                "end_time": 59.70454545454545,
                "pitch": 47,
                "velocity": 127,
                "duration": 0.20000000000000284,
                "tempo": 120.0
            },
            {
                "start_time": 59.70454545454545,
                "end_time": 59.90454545454545,
                "pitch": 50,
                "velocity": 127,
                "duration": 0.19999999999999574,
                "tempo": 120.0
            },
            {
                "start_time": 59.90454545454545,
                "end_time": 60.10454545454545,
                "pitch": 48,
                "velocity": 127,
                "duration": 0.20000000000000284,
                "tempo": 120.0
            },
            {
                "start_time": 60.10454545454545,
                "end_time": 60.304545454545455,
                "pitch": 47,
                "velocity": 127,
                "duration": 0.20000000000000284,
                "tempo": 120.0
            },
            {
                "start_time": 60.304545454545455,
                "end_time": 60.50454545454545,
                "pitch": 50,
                "velocity": 127,
                "duration": 0.19999999999999574,
                "tempo": 120.0
            },
            {
                "start_time": 60.50454545454545,
                "end_time": 60.70681818181818,
                "pitch": 48,
                "velocity": 127,
                "duration": 0.20227272727272805,
                "tempo": 120.0
            },
            {
                "start_time": 60.70681818181818,
                "end_time": 60.877272727272725,
                "pitch": 47,
                "velocity": 127,
                "duration": 0.17045454545454675,
                "tempo": 120.0
            },
            {
                "start_time": 60.877272727272725,
                "end_time": 61.07727272727272,
                "pitch": 50,
                "velocity": 127,
                "duration": 0.19999999999999574,
                "tempo": 120.0
            },
            {
                "start_time": 61.07727272727272,
                "end_time": 61.26136363636363,
                "pitch": 48,
                "velocity": 127,
                "duration": 0.1840909090909122,
                "tempo": 120.0
            },
            {
                "start_time": 61.26136363636363,
                "end_time": 61.44772727272727,
                "pitch": 47,
                "velocity": 127,
                "duration": 0.1863636363636374,
                "tempo": 120.0
            },
            {
                "start_time": 61.44772727272727,
                "end_time": 61.647727272727266,
                "pitch": 50,
                "velocity": 127,
                "duration": 0.19999999999999574,
                "tempo": 120.0
            },
            {
                "start_time": 61.647727272727266,
                "end_time": 61.84772727272727,
                "pitch": 48,
                "velocity": 127,
                "duration": 0.20000000000000284,
                "tempo": 120.0
            },
            {
                "start_time": 61.84772727272727,
                "end_time": 62.04772727272727,
                "pitch": 47,
                "velocity": 127,
                "duration": 0.20000000000000284,
                "tempo": 120.0
            },
            {
                "start_time": 62.04772727272727,
                "end_time": 62.24772727272727,
                "pitch": 50,
                "velocity": 127,
                "duration": 0.19999999999999574,
                "tempo": 120.0
            },
            {
                "start_time": 62.24772727272727,
                "end_time": 62.44772727272727,
                "pitch": 50,
                "velocity": 127,
                "duration": 0.20000000000000284,
                "tempo": 120.0
            },
            {
                "start_time": 62.44772727272727,
                "end_time": 62.65,
                "pitch": 45,
                "velocity": 127,
                "duration": 0.20227272727272805,
                "tempo": 120.0
            }
        ],
        "Vibraphone": [
            {
                "start_time": 0.10909090909090909,
                "end_time": 0.20909090909090908,
                "pitch": 78,
                "velocity": 101,
                "duration": 0.09999999999999999,
                "tempo": 120.0
            },
            {
                "start_time": 0.20909090909090908,
                "end_time": 0.3090909090909091,
                "pitch": 76,
                "velocity": 101,
                "duration": 0.1,
                "tempo": 120.0
            },
            {
                "start_time": 0.3090909090909091,
                "end_time": 0.40909090909090906,
                "pitch": 78,
                "velocity": 101,
                "duration": 0.09999999999999998,
                "tempo": 120.0
            },
            {
                "start_time": 0.40909090909090906,
                "end_time": 0.509090909090909,
                "pitch": 79,
                "velocity": 101,
                "duration": 0.09999999999999998,
                "tempo": 120.0
            },
            {
                "start_time": 0.509090909090909,
                "end_time": 0.6068181818181818,
                "pitch": 78,
                "velocity": 101,
                "duration": 0.09772727272727277,
                "tempo": 120.0
            },
            {
                "start_time": 0.6068181818181818,
                "end_time": 0.7045454545454545,
                "pitch": 76,
                "velocity": 101,
                "duration": 0.09772727272727266,
                "tempo": 120.0
            },
            {
                "start_time": 0.7045454545454545,
                "end_time": 0.8022727272727272,
                "pitch": 78,
                "velocity": 101,
                "duration": 0.09772727272727277,
                "tempo": 120.0
            },
            {
                "start_time": 0.8022727272727272,
                "end_time": 0.9022727272727272,
                "pitch": 79,
                "velocity": 101,
                "duration": 0.09999999999999998,
                "tempo": 120.0
            },
            {
                "start_time": 0.9022727272727272,
                "end_time": 1.0045454545454544,
                "pitch": 78,
                "velocity": 101,
                "duration": 0.10227272727272718,
                "tempo": 120.0
            },
            {
                "start_time": 1.0045454545454544,
                "end_time": 1.1045454545454545,
                "pitch": 76,
                "velocity": 101,
                "duration": 0.10000000000000009,
                "tempo": 120.0
            },
            {
                "start_time": 1.1045454545454545,
                "end_time": 1.2045454545454546,
                "pitch": 78,
                "velocity": 101,
                "duration": 0.10000000000000009,
                "tempo": 120.0
            },
            {
                "start_time": 1.2045454545454546,
                "end_time": 1.3045454545454545,
                "pitch": 79,
                "velocity": 101,
                "duration": 0.09999999999999987,
                "tempo": 120.0
            },
            {
                "start_time": 1.3045454545454545,
                "end_time": 1.4045454545454545,
                "pitch": 78,
                "velocity": 101,
                "duration": 0.10000000000000009,
                "tempo": 120.0
            },
            {
                "start_time": 1.4045454545454545,
                "end_time": 1.5045454545454544,
                "pitch": 76,
                "velocity": 101,
                "duration": 0.09999999999999987,
                "tempo": 120.0
            },
            {
                "start_time": 1.5045454545454544,
                "end_time": 1.6045454545454545,
                "pitch": 78,
                "velocity": 101,
                "duration": 0.10000000000000009,
                "tempo": 120.0
            },
            {
                "start_time": 1.6045454545454545,
                "end_time": 1.7045454545454544,
                "pitch": 79,
                "velocity": 101,
                "duration": 0.09999999999999987,
                "tempo": 120.0
            },
            {
                "start_time": 1.7045454545454544,
                "end_time": 1.775,
                "pitch": 78,
                "velocity": 101,
                "duration": 0.07045454545454555,
                "tempo": 120.0
            },
            {
                "start_time": 1.775,
                "end_time": 1.8772727272727272,
                "pitch": 76,
                "velocity": 101,
                "duration": 0.10227272727272729,
                "tempo": 120.0
            },
            {
                "start_time": 1.8772727272727272,
                "end_time": 1.977272727272727,
                "pitch": 78,
                "velocity": 101,
                "duration": 0.09999999999999987,
                "tempo": 120.0
            },
            {
                "start_time": 1.977272727272727,
                "end_time": 2.0704545454545453,
                "pitch": 79,
                "velocity": 101,
                "duration": 0.09318181818181825,
                "tempo": 120.0
            },
            {
                "start_time": 2.0704545454545453,
                "end_time": 2.1636363636363636,
                "pitch": 78,
                "velocity": 101,
                "duration": 0.09318181818181825,
                "tempo": 120.0
            },
            {
                "start_time": 2.1636363636363636,
                "end_time": 2.2545454545454544,
                "pitch": 76,
                "velocity": 101,
                "duration": 0.09090909090909083,
                "tempo": 120.0
            },
            {
                "start_time": 2.2545454545454544,
                "end_time": 2.3477272727272727,
                "pitch": 78,
                "velocity": 101,
                "duration": 0.09318181818181825,
                "tempo": 120.0
            },
            {
                "start_time": 2.3477272727272727,
                "end_time": 2.4477272727272728,
                "pitch": 79,
                "velocity": 101,
                "duration": 0.10000000000000009,
                "tempo": 120.0
            },
            {
                "start_time": 2.4477272727272728,
                "end_time": 2.5477272727272724,
                "pitch": 78,
                "velocity": 101,
                "duration": 0.09999999999999964,
                "tempo": 120.0
            },
            {
                "start_time": 2.5477272727272724,
                "end_time": 2.6477272727272725,
                "pitch": 76,
                "velocity": 101,
                "duration": 0.10000000000000009,
                "tempo": 120.0
            },
            {
                "start_time": 2.6477272727272725,
                "end_time": 2.7477272727272726,
                "pitch": 78,
                "velocity": 101,
                "duration": 0.10000000000000009,
                "tempo": 120.0
            },
            {
                "start_time": 2.7477272727272726,
                "end_time": 2.8477272727272727,
                "pitch": 79,
                "velocity": 101,
                "duration": 0.10000000000000009,
                "tempo": 120.0
            },
            {
                "start_time": 2.8477272727272727,
                "end_time": 2.9477272727272728,
                "pitch": 78,
                "velocity": 101,
                "duration": 0.10000000000000009,
                "tempo": 120.0
            },
            {
                "start_time": 2.9477272727272728,
                "end_time": 3.0477272727272724,
                "pitch": 76,
                "velocity": 101,
                "duration": 0.09999999999999964,
                "tempo": 120.0
            },
            {
                "start_time": 3.0477272727272724,
                "end_time": 3.1477272727272725,
                "pitch": 78,
                "velocity": 101,
                "duration": 0.10000000000000009,
                "tempo": 120.0
            },
            {
                "start_time": 3.1477272727272725,
                "end_time": 3.2477272727272726,
                "pitch": 81,
                "velocity": 101,
                "duration": 0.10000000000000009,
                "tempo": 120.0
            },
            {
                "start_time": 3.2477272727272726,
                "end_time": 3.3499999999999996,
                "pitch": 79,
                "velocity": 101,
                "duration": 0.10227272727272707,
                "tempo": 120.0
            },
            {
                "start_time": 3.3499999999999996,
                "end_time": 3.4499999999999997,
                "pitch": 78,
                "velocity": 101,
                "duration": 0.10000000000000009,
                "tempo": 120.0
            },
            {
                "start_time": 3.4499999999999997,
                "end_time": 3.55,
                "pitch": 79,
                "velocity": 101,
                "duration": 0.10000000000000009,
                "tempo": 120.0
            },
            {
                "start_time": 3.55,
                "end_time": 3.65,
                "pitch": 81,
                "velocity": 101,
                "duration": 0.10000000000000009,
                "tempo": 120.0
            },
            {
                "start_time": 3.65,
                "end_time": 3.75,
                "pitch": 79,
                "velocity": 101,
                "duration": 0.10000000000000009,
                "tempo": 120.0
            },
            {
                "start_time": 3.75,
                "end_time": 3.8499999999999996,
                "pitch": 78,
                "velocity": 101,
                "duration": 0.09999999999999964,
                "tempo": 120.0
            },
            {
                "start_time": 3.8499999999999996,
                "end_time": 3.9204545454545454,
                "pitch": 79,
                "velocity": 101,
                "duration": 0.07045454545454577,
                "tempo": 120.0
            },
            {
                "start_time": 3.9204545454545454,
                "end_time": 4.013636363636364,
                "pitch": 81,
                "velocity": 101,
                "duration": 0.09318181818181825,
                "tempo": 120.0
            },
            {
                "start_time": 4.013636363636364,
                "end_time": 4.1045454545454545,
                "pitch": 79,
                "velocity": 101,
                "duration": 0.09090909090909083,
                "tempo": 120.0
            },
            {
                "start_time": 4.1045454545454545,
                "end_time": 4.197727272727272,
                "pitch": 78,
                "velocity": 101,
                "duration": 0.09318181818181781,
                "tempo": 120.0
            },
            {
                "start_time": 4.197727272727272,
                "end_time": 4.290909090909091,
                "pitch": 79,
                "velocity": 101,
                "duration": 0.0931818181818187,
                "tempo": 120.0
            },
            {
                "start_time": 4.290909090909091,
                "end_time": 4.390909090909091,
                "pitch": 81,
                "velocity": 101,
                "duration": 0.09999999999999964,
                "tempo": 120.0
            },
            {
                "start_time": 4.390909090909091,
                "end_time": 4.49090909090909,
                "pitch": 79,
                "velocity": 101,
                "duration": 0.09999999999999964,
                "tempo": 120.0
            },
            {
                "start_time": 4.49090909090909,
                "end_time": 4.590909090909091,
                "pitch": 78,
                "velocity": 101,
                "duration": 0.10000000000000053,
                "tempo": 120.0
            },
            {
                "start_time": 4.590909090909091,
                "end_time": 4.6909090909090905,
                "pitch": 79,
                "velocity": 101,
                "duration": 0.09999999999999964,
                "tempo": 120.0
            },
            {
                "start_time": 4.6909090909090905,
                "end_time": 4.790909090909091,
                "pitch": 81,
                "velocity": 101,
                "duration": 0.10000000000000053,
                "tempo": 120.0
            },
            {
                "start_time": 4.790909090909091,
                "end_time": 4.893181818181818,
                "pitch": 79,
                "velocity": 101,
                "duration": 0.10227272727272663,
                "tempo": 120.0
            },
            {
                "start_time": 4.893181818181818,
                "end_time": 4.993181818181818,
                "pitch": 78,
                "velocity": 101,
                "duration": 0.10000000000000053,
                "tempo": 120.0
            },
            {
                "start_time": 4.993181818181818,
                "end_time": 5.093181818181818,
                "pitch": 79,
                "velocity": 101,
                "duration": 0.09999999999999964,
                "tempo": 120.0
            },
            {
                "start_time": 5.093181818181818,
                "end_time": 5.193181818181818,
                "pitch": 81,
                "velocity": 101,
                "duration": 0.10000000000000053,
                "tempo": 120.0
            },
            {
                "start_time": 5.193181818181818,
                "end_time": 5.295454545454545,
                "pitch": 79,
                "velocity": 101,
                "duration": 0.10227272727272663,
                "tempo": 120.0
            },
            {
                "start_time": 5.295454545454545,
                "end_time": 5.3954545454545455,
                "pitch": 78,
                "velocity": 101,
                "duration": 0.10000000000000053,
                "tempo": 120.0
            },
            {
                "start_time": 5.3954545454545455,
                "end_time": 5.495454545454545,
                "pitch": 79,
                "velocity": 101,
                "duration": 0.09999999999999964,
                "tempo": 120.0
            },
            {
                "start_time": 5.495454545454545,
                "end_time": 5.595454545454545,
                "pitch": 81,
                "velocity": 101,
                "duration": 0.09999999999999964,
                "tempo": 120.0
            },
            {
                "start_time": 5.595454545454545,
                "end_time": 5.695454545454545,
                "pitch": 79,
                "velocity": 101,
                "duration": 0.10000000000000053,
                "tempo": 120.0
            },
            {
                "start_time": 5.695454545454545,
                "end_time": 5.795454545454545,
                "pitch": 78,
                "velocity": 101,
                "duration": 0.09999999999999964,
                "tempo": 120.0
            },
            {
                "start_time": 5.795454545454545,
                "end_time": 5.8954545454545455,
                "pitch": 79,
                "velocity": 101,
                "duration": 0.10000000000000053,
                "tempo": 120.0
            },
            {
                "start_time": 5.8954545454545455,
                "end_time": 5.956818181818181,
                "pitch": 81,
                "velocity": 101,
                "duration": 0.06136363636363562,
                "tempo": 120.0
            },
            {
                "start_time": 5.956818181818181,
                "end_time": 6.056818181818182,
                "pitch": 79,
                "velocity": 101,
                "duration": 0.10000000000000053,
                "tempo": 120.0
            },
            {
                "start_time": 6.056818181818182,
                "end_time": 6.156818181818181,
                "pitch": 78,
                "velocity": 101,
                "duration": 0.09999999999999964,
                "tempo": 120.0
            },
            {
                "start_time": 6.156818181818181,
                "end_time": 6.268181818181818,
                "pitch": 79,
                "velocity": 101,
                "duration": 0.11136363636363633,
                "tempo": 120.0
            },
            {
                "start_time": 6.268181818181818,
                "end_time": 6.352272727272727,
                "pitch": 79,
                "velocity": 101,
                "duration": 0.084090909090909,
                "tempo": 120.0
            },
            {
                "start_time": 6.352272727272727,
                "end_time": 6.445454545454545,
                "pitch": 78,
                "velocity": 101,
                "duration": 0.0931818181818187,
                "tempo": 120.0
            },
            {
                "start_time": 6.445454545454545,
                "end_time": 6.536363636363636,
                "pitch": 76,
                "velocity": 101,
                "duration": 0.09090909090909083,
                "tempo": 120.0
            },
            {
                "start_time": 6.536363636363636,
                "end_time": 6.629545454545454,
                "pitch": 78,
                "velocity": 101,
                "duration": 0.09318181818181781,
                "tempo": 120.0
            },
            {
                "start_time": 6.629545454545454,
                "end_time": 6.7295454545454545,
                "pitch": 79,
                "velocity": 101,
                "duration": 0.10000000000000053,
                "tempo": 120.0
            },
            {
                "start_time": 6.7295454545454545,
                "end_time": 6.829545454545454,
                "pitch": 78,
                "velocity": 101,
                "duration": 0.09999999999999964,
                "tempo": 120.0
            },
            {
                "start_time": 6.829545454545454,
                "end_time": 6.929545454545454,
                "pitch": 76,
                "velocity": 101,
                "duration": 0.09999999999999964,
                "tempo": 120.0
            },
            {
                "start_time": 6.929545454545454,
                "end_time": 7.029545454545454,
                "pitch": 78,
                "velocity": 101,
                "duration": 0.10000000000000053,
                "tempo": 120.0
            },
            {
                "start_time": 7.029545454545454,
                "end_time": 7.127272727272727,
                "pitch": 79,
                "velocity": 101,
                "duration": 0.09772727272727266,
                "tempo": 120.0
            },
            {
                "start_time": 7.127272727272727,
                "end_time": 7.225,
                "pitch": 78,
                "velocity": 101,
                "duration": 0.09772727272727266,
                "tempo": 120.0
            },
            {
                "start_time": 7.225,
                "end_time": 7.322727272727272,
                "pitch": 76,
                "velocity": 101,
                "duration": 0.09772727272727266,
                "tempo": 120.0
            },
            {
                "start_time": 7.322727272727272,
                "end_time": 7.420454545454545,
                "pitch": 78,
                "velocity": 101,
                "duration": 0.09772727272727266,
                "tempo": 120.0
            },
            {
                "start_time": 7.420454545454545,
                "end_time": 7.5227272727272725,
                "pitch": 79,
                "velocity": 101,
                "duration": 0.10227272727272751,
                "tempo": 120.0
            },
            {
                "start_time": 7.5227272727272725,
                "end_time": 7.627272727272727,
                "pitch": 78,
                "velocity": 101,
                "duration": 0.1045454545454545,
                "tempo": 120.0
            },
            {
                "start_time": 7.627272727272727,
                "end_time": 7.7295454545454545,
                "pitch": 76,
                "velocity": 101,
                "duration": 0.10227272727272751,
                "tempo": 120.0
            },
            {
                "start_time": 7.7295454545454545,
                "end_time": 7.840909090909091,
                "pitch": 78,
                "velocity": 101,
                "duration": 0.11136363636363633,
                "tempo": 120.0
            },
            {
                "start_time": 7.840909090909091,
                "end_time": 7.929545454545454,
                "pitch": 79,
                "velocity": 101,
                "duration": 0.08863636363636296,
                "tempo": 120.0
            },
            {
                "start_time": 7.929545454545454,
                "end_time": 8.027272727272727,
                "pitch": 78,
                "velocity": 101,
                "duration": 0.09772727272727355,
                "tempo": 120.0
            },
            {
                "start_time": 8.027272727272727,
                "end_time": 8.095454545454546,
                "pitch": 76,
                "velocity": 101,
                "duration": 0.06818181818181834,
                "tempo": 120.0
            },
            {
                "start_time": 8.095454545454546,
                "end_time": 8.195454545454545,
                "pitch": 78,
                "velocity": 101,
                "duration": 0.09999999999999964,
                "tempo": 120.0
            },
            {
                "start_time": 8.195454545454545,
                "end_time": 8.286363636363635,
                "pitch": 79,
                "velocity": 101,
                "duration": 0.09090909090908994,
                "tempo": 120.0
            },
            {
                "start_time": 8.286363636363635,
                "end_time": 8.379545454545454,
                "pitch": 78,
                "velocity": 101,
                "duration": 0.0931818181818187,
                "tempo": 120.0
            },
            {
                "start_time": 8.379545454545454,
                "end_time": 8.472727272727273,
                "pitch": 76,
                "velocity": 101,
                "duration": 0.0931818181818187,
                "tempo": 120.0
            },
            {
                "start_time": 8.472727272727273,
                "end_time": 8.563636363636363,
                "pitch": 78,
                "velocity": 101,
                "duration": 0.09090909090908994,
                "tempo": 120.0
            },
            {
                "start_time": 8.563636363636363,
                "end_time": 8.665909090909091,
                "pitch": 79,
                "velocity": 101,
                "duration": 0.1022727272727284,
                "tempo": 120.0
            },
            {
                "start_time": 8.665909090909091,
                "end_time": 8.76590909090909,
                "pitch": 78,
                "velocity": 101,
                "duration": 0.09999999999999964,
                "tempo": 120.0
            },
            {
                "start_time": 8.76590909090909,
                "end_time": 8.86590909090909,
                "pitch": 76,
                "velocity": 101,
                "duration": 0.09999999999999964,
                "tempo": 120.0
            },
            {
                "start_time": 8.86590909090909,
                "end_time": 8.968181818181817,
                "pitch": 78,
                "velocity": 101,
                "duration": 0.10227272727272663,
                "tempo": 120.0
            },
            {
                "start_time": 8.968181818181817,
                "end_time": 9.068181818181818,
                "pitch": 79,
                "velocity": 101,
                "duration": 0.10000000000000142,
                "tempo": 120.0
            },
            {
                "start_time": 9.068181818181818,
                "end_time": 9.168181818181818,
                "pitch": 78,
                "velocity": 101,
                "duration": 0.09999999999999964,
                "tempo": 120.0
            },
            {
                "start_time": 9.168181818181818,
                "end_time": 9.270454545454545,
                "pitch": 76,
                "velocity": 101,
                "duration": 0.10227272727272663,
                "tempo": 120.0
            },
            {
                "start_time": 9.270454545454545,
                "end_time": 9.370454545454544,
                "pitch": 78,
                "velocity": 101,
                "duration": 0.09999999999999964,
                "tempo": 120.0
            },
            {
                "start_time": 9.370454545454544,
                "end_time": 9.470454545454546,
                "pitch": 81,
                "velocity": 101,
                "duration": 0.10000000000000142,
                "tempo": 120.0
            },
            {
                "start_time": 9.470454545454546,
                "end_time": 9.570454545454545,
                "pitch": 79,
                "velocity": 101,
                "duration": 0.09999999999999964,
                "tempo": 120.0
            },
            {
                "start_time": 9.570454545454545,
                "end_time": 9.672727272727272,
                "pitch": 78,
                "velocity": 101,
                "duration": 0.10227272727272663,
                "tempo": 120.0
            },
            {
                "start_time": 9.672727272727272,
                "end_time": 9.772727272727272,
                "pitch": 79,
                "velocity": 101,
                "duration": 0.09999999999999964,
                "tempo": 120.0
            },
            {
                "start_time": 9.772727272727272,
                "end_time": 9.872727272727273,
                "pitch": 81,
                "velocity": 101,
                "duration": 0.10000000000000142,
                "tempo": 120.0
            },
            {
                "start_time": 9.872727272727273,
                "end_time": 9.975,
                "pitch": 79,
                "velocity": 101,
                "duration": 0.10227272727272663,
                "tempo": 120.0
            },
            {
                "start_time": 9.975,
                "end_time": 10.075,
                "pitch": 78,
                "velocity": 101,
                "duration": 0.09999999999999964,
                "tempo": 120.0
            },
            {
                "start_time": 10.075,
                "end_time": 10.174999999999999,
                "pitch": 79,
                "velocity": 101,
                "duration": 0.09999999999999964,
                "tempo": 120.0
            },
            {
                "start_time": 10.174999999999999,
                "end_time": 10.245454545454544,
                "pitch": 81,
                "velocity": 101,
                "duration": 0.07045454545454533,
                "tempo": 120.0
            },
            {
                "start_time": 10.245454545454544,
                "end_time": 10.345454545454546,
                "pitch": 79,
                "velocity": 101,
                "duration": 0.10000000000000142,
                "tempo": 120.0
            },
            {
                "start_time": 10.345454545454546,
                "end_time": 10.445454545454545,
                "pitch": 78,
                "velocity": 101,
                "duration": 0.09999999999999964,
                "tempo": 120.0
            },
            {
                "start_time": 10.445454545454545,
                "end_time": 10.545454545454545,
                "pitch": 79,
                "velocity": 101,
                "duration": 0.09999999999999964,
                "tempo": 120.0
            },
            {
                "start_time": 10.545454545454545,
                "end_time": 10.638636363636364,
                "pitch": 81,
                "velocity": 101,
                "duration": 0.0931818181818187,
                "tempo": 120.0
            },
            {
                "start_time": 10.638636363636364,
                "end_time": 10.729545454545454,
                "pitch": 79,
                "velocity": 101,
                "duration": 0.09090909090908994,
                "tempo": 120.0
            },
            {
                "start_time": 10.729545454545454,
                "end_time": 10.822727272727272,
                "pitch": 78,
                "velocity": 101,
                "duration": 0.0931818181818187,
                "tempo": 120.0
            },
            {
                "start_time": 10.822727272727272,
                "end_time": 10.915909090909091,
                "pitch": 79,
                "velocity": 101,
                "duration": 0.0931818181818187,
                "tempo": 120.0
            },
            {
                "start_time": 10.915909090909091,
                "end_time": 11.01590909090909,
                "pitch": 81,
                "velocity": 101,
                "duration": 0.09999999999999964,
                "tempo": 120.0
            },
            {
                "start_time": 11.01590909090909,
                "end_time": 11.118181818181817,
                "pitch": 79,
                "velocity": 101,
                "duration": 0.10227272727272663,
                "tempo": 120.0
            },
            {
                "start_time": 11.118181818181817,
                "end_time": 11.218181818181817,
                "pitch": 78,
                "velocity": 101,
                "duration": 0.09999999999999964,
                "tempo": 120.0
            },
            {
                "start_time": 11.218181818181817,
                "end_time": 11.318181818181818,
                "pitch": 79,
                "velocity": 101,
                "duration": 0.10000000000000142,
                "tempo": 120.0
            },
            {
                "start_time": 11.318181818181818,
                "end_time": 11.418181818181818,
                "pitch": 81,
                "velocity": 101,
                "duration": 0.09999999999999964,
                "tempo": 120.0
            },
            {
                "start_time": 11.418181818181818,
                "end_time": 11.518181818181818,
                "pitch": 79,
                "velocity": 101,
                "duration": 0.09999999999999964,
                "tempo": 120.0
            },
            {
                "start_time": 11.518181818181818,
                "end_time": 11.618181818181817,
                "pitch": 78,
                "velocity": 101,
                "duration": 0.09999999999999964,
                "tempo": 120.0
            },
            {
                "start_time": 11.618181818181817,
                "end_time": 11.718181818181817,
                "pitch": 79,
                "velocity": 101,
                "duration": 0.09999999999999964,
                "tempo": 120.0
            },
            {
                "start_time": 11.718181818181817,
                "end_time": 11.818181818181818,
                "pitch": 81,
                "velocity": 101,
                "duration": 0.10000000000000142,
                "tempo": 120.0
            },
            {
                "start_time": 11.818181818181818,
                "end_time": 11.920454545454545,
                "pitch": 79,
                "velocity": 101,
                "duration": 0.10227272727272663,
                "tempo": 120.0
            },
            {
                "start_time": 11.920454545454545,
                "end_time": 12.020454545454545,
                "pitch": 78,
                "velocity": 101,
                "duration": 0.09999999999999964,
                "tempo": 120.0
            },
            {
                "start_time": 12.020454545454545,
                "end_time": 12.120454545454544,
                "pitch": 79,
                "velocity": 101,
                "duration": 0.09999999999999964,
                "tempo": 120.0
            },
            {
                "start_time": 12.120454545454544,
                "end_time": 12.222727272727273,
                "pitch": 81,
                "velocity": 101,
                "duration": 0.1022727272727284,
                "tempo": 120.0
            },
            {
                "start_time": 12.222727272727273,
                "end_time": 12.281818181818181,
                "pitch": 79,
                "velocity": 101,
                "duration": 0.05909090909090864,
                "tempo": 120.0
            },
            {
                "start_time": 12.281818181818181,
                "end_time": 12.384090909090908,
                "pitch": 78,
                "velocity": 101,
                "duration": 0.10227272727272663,
                "tempo": 120.0
            },
            {
                "start_time": 12.384090909090908,
                "end_time": 12.493181818181817,
                "pitch": 79,
                "velocity": 101,
                "duration": 0.10909090909090935,
                "tempo": 120.0
            },
            {
                "start_time": 12.493181818181817,
                "end_time": 12.577272727272726,
                "pitch": 79,
                "velocity": 101,
                "duration": 0.084090909090909,
                "tempo": 120.0
            },
            {
                "start_time": 12.577272727272726,
                "end_time": 12.670454545454545,
                "pitch": 78,
                "velocity": 101,
                "duration": 0.0931818181818187,
                "tempo": 120.0
            },
            {
                "start_time": 12.670454545454545,
                "end_time": 12.761363636363635,
                "pitch": 76,
                "velocity": 101,
                "duration": 0.09090909090908994,
                "tempo": 120.0
            },
            {
                "start_time": 12.770454545454545,
                "end_time": 12.854545454545454,
                "pitch": 78,
                "velocity": 101,
                "duration": 0.084090909090909,
                "tempo": 120.0
            },
            {
                "start_time": 12.863636363636363,
                "end_time": 12.954545454545453,
                "pitch": 79,
                "velocity": 101,
                "duration": 0.09090909090908994,
                "tempo": 120.0
            },
            {
                "start_time": 12.963636363636363,
                "end_time": 13.054545454545455,
                "pitch": 78,
                "velocity": 101,
                "duration": 0.09090909090909172,
                "tempo": 120.0
            },
            {
                "start_time": 13.06590909090909,
                "end_time": 13.156818181818181,
                "pitch": 76,
                "velocity": 101,
                "duration": 0.09090909090909172,
                "tempo": 120.0
            },
            {
                "start_time": 13.165909090909091,
                "end_time": 13.26590909090909,
                "pitch": 78,
                "velocity": 101,
                "duration": 0.09999999999999964,
                "tempo": 120.0
            },
            {
                "start_time": 13.26590909090909,
                "end_time": 13.35681818181818,
                "pitch": 79,
                "velocity": 101,
                "duration": 0.09090909090908994,
                "tempo": 120.0
            },
            {
                "start_time": 13.35681818181818,
                "end_time": 13.368181818181817,
                "pitch": 90,
                "velocity": 101,
                "duration": 0.011363636363636687,
                "tempo": 120.0
            },
            {
                "start_time": 13.368181818181817,
                "end_time": 13.468181818181817,
                "pitch": 78,
                "velocity": 101,
                "duration": 0.09999999999999964,
                "tempo": 120.0
            },
            {
                "start_time": 13.468181818181817,
                "end_time": 13.568181818181818,
                "pitch": 76,
                "velocity": 101,
                "duration": 0.10000000000000142,
                "tempo": 120.0
            },
            {
                "start_time": 13.568181818181818,
                "end_time": 13.670454545454545,
                "pitch": 78,
                "velocity": 101,
                "duration": 0.10227272727272663,
                "tempo": 120.0
            },
            {
                "start_time": 13.670454545454545,
                "end_time": 13.770454545454545,
                "pitch": 79,
                "velocity": 101,
                "duration": 0.09999999999999964,
                "tempo": 120.0
            },
            {
                "start_time": 13.770454545454545,
                "end_time": 13.870454545454544,
                "pitch": 78,
                "velocity": 101,
                "duration": 0.09999999999999964,
                "tempo": 120.0
            },
            {
                "start_time": 13.870454545454544,
                "end_time": 13.970454545454544,
                "pitch": 76,
                "velocity": 101,
                "duration": 0.09999999999999964,
                "tempo": 120.0
            },
            {
                "start_time": 13.970454545454544,
                "end_time": 14.072727272727272,
                "pitch": 78,
                "velocity": 101,
                "duration": 0.1022727272727284,
                "tempo": 120.0
            },
            {
                "start_time": 14.072727272727272,
                "end_time": 14.170454545454545,
                "pitch": 79,
                "velocity": 101,
                "duration": 0.09772727272727266,
                "tempo": 120.0
            },
            {
                "start_time": 14.170454545454545,
                "end_time": 14.268181818181818,
                "pitch": 78,
                "velocity": 101,
                "duration": 0.09772727272727266,
                "tempo": 120.0
            },
            {
                "start_time": 14.268181818181818,
                "end_time": 14.36590909090909,
                "pitch": 76,
                "velocity": 101,
                "duration": 0.09772727272727266,
                "tempo": 120.0
            },
            {
                "start_time": 14.36590909090909,
                "end_time": 14.424999999999999,
                "pitch": 78,
                "velocity": 101,
                "duration": 0.05909090909090864,
                "tempo": 120.0
            },
            {
                "start_time": 14.424999999999999,
                "end_time": 14.518181818181818,
                "pitch": 79,
                "velocity": 101,
                "duration": 0.0931818181818187,
                "tempo": 120.0
            },
            {
                "start_time": 14.518181818181818,
                "end_time": 14.609090909090908,
                "pitch": 78,
                "velocity": 101,
                "duration": 0.09090909090908994,
                "tempo": 120.0
            },
            {
                "start_time": 14.609090909090908,
                "end_time": 14.702272727272726,
                "pitch": 76,
                "velocity": 101,
                "duration": 0.0931818181818187,
                "tempo": 120.0
            },
            {
                "start_time": 14.702272727272726,
                "end_time": 14.795454545454545,
                "pitch": 78,
                "velocity": 101,
                "duration": 0.0931818181818187,
                "tempo": 120.0
            },
            {
                "start_time": 14.795454545454545,
                "end_time": 14.895454545454545,
                "pitch": 79,
                "velocity": 101,
                "duration": 0.09999999999999964,
                "tempo": 120.0
            },
            {
                "start_time": 14.895454545454545,
                "end_time": 14.995454545454544,
                "pitch": 78,
                "velocity": 101,
                "duration": 0.09999999999999964,
                "tempo": 120.0
            },
            {
                "start_time": 14.995454545454544,
                "end_time": 15.097727272727273,
                "pitch": 76,
                "velocity": 101,
                "duration": 0.1022727272727284,
                "tempo": 120.0
            },
            {
                "start_time": 15.097727272727273,
                "end_time": 15.197727272727272,
                "pitch": 78,
                "velocity": 101,
                "duration": 0.09999999999999964,
                "tempo": 120.0
            },
            {
                "start_time": 15.197727272727272,
                "end_time": 15.299999999999999,
                "pitch": 79,
                "velocity": 101,
                "duration": 0.10227272727272663,
                "tempo": 120.0
            },
            {
                "start_time": 15.299999999999999,
                "end_time": 15.402272727272727,
                "pitch": 78,
                "velocity": 101,
                "duration": 0.1022727272727284,
                "tempo": 120.0
            },
            {
                "start_time": 15.402272727272727,
                "end_time": 15.506818181818181,
                "pitch": 76,
                "velocity": 101,
                "duration": 0.10454545454545361,
                "tempo": 120.0
            },
            {
                "start_time": 15.506818181818181,
                "end_time": 15.609090909090908,
                "pitch": 78,
                "velocity": 101,
                "duration": 0.10227272727272663,
                "tempo": 120.0
            },
            {
                "start_time": 15.609090909090908,
                "end_time": 15.709090909090909,
                "pitch": 81,
                "velocity": 101,
                "duration": 0.10000000000000142,
                "tempo": 120.0
            },
            {
                "start_time": 15.709090909090909,
                "end_time": 15.809090909090909,
                "pitch": 79,
                "velocity": 101,
                "duration": 0.09999999999999964,
                "tempo": 120.0
            },
            {
                "start_time": 15.809090909090909,
                "end_time": 15.909090909090908,
                "pitch": 78,
                "velocity": 101,
                "duration": 0.09999999999999964,
                "tempo": 120.0
            },
            {
                "start_time": 15.909090909090908,
                "end_time": 16.009090909090908,
                "pitch": 79,
                "velocity": 101,
                "duration": 0.09999999999999964,
                "tempo": 120.0
            },
            {
                "start_time": 16.009090909090908,
                "end_time": 16.10681818181818,
                "pitch": 81,
                "velocity": 101,
                "duration": 0.09772727272727266,
                "tempo": 120.0
            },
            {
                "start_time": 16.10681818181818,
                "end_time": 16.204545454545453,
                "pitch": 79,
                "velocity": 101,
                "duration": 0.09772727272727266,
                "tempo": 120.0
            },
            {
                "start_time": 16.204545454545453,
                "end_time": 16.302272727272726,
                "pitch": 78,
                "velocity": 101,
                "duration": 0.09772727272727266,
                "tempo": 120.0
            },
            {
                "start_time": 16.302272727272726,
                "end_time": 16.4,
                "pitch": 79,
                "velocity": 101,
                "duration": 0.09772727272727266,
                "tempo": 120.0
            },
            {
                "start_time": 16.4,
                "end_time": 16.5,
                "pitch": 81,
                "velocity": 101,
                "duration": 0.10000000000000142,
                "tempo": 120.0
            },
            {
                "start_time": 16.5,
                "end_time": 16.570454545454545,
                "pitch": 79,
                "velocity": 101,
                "duration": 0.07045454545454533,
                "tempo": 120.0
            },
            {
                "start_time": 16.570454545454545,
                "end_time": 16.670454545454543,
                "pitch": 78,
                "velocity": 101,
                "duration": 0.09999999999999787,
                "tempo": 120.0
            },
            {
                "start_time": 16.670454545454543,
                "end_time": 16.770454545454545,
                "pitch": 79,
                "velocity": 101,
                "duration": 0.10000000000000142,
                "tempo": 120.0
            },
            {
                "start_time": 16.770454545454545,
                "end_time": 16.863636363636363,
                "pitch": 81,
                "velocity": 101,
                "duration": 0.0931818181818187,
                "tempo": 120.0
            },
            {
                "start_time": 16.863636363636363,
                "end_time": 16.956818181818182,
                "pitch": 79,
                "velocity": 101,
                "duration": 0.0931818181818187,
                "tempo": 120.0
            },
            {
                "start_time": 16.956818181818182,
                "end_time": 17.047727272727272,
                "pitch": 78,
                "velocity": 101,
                "duration": 0.09090909090908994,
                "tempo": 120.0
            },
            {
                "start_time": 17.047727272727272,
                "end_time": 17.14090909090909,
                "pitch": 79,
                "velocity": 101,
                "duration": 0.0931818181818187,
                "tempo": 120.0
            },
            {
                "start_time": 17.14090909090909,
                "end_time": 17.243181818181817,
                "pitch": 81,
                "velocity": 101,
                "duration": 0.10227272727272663,
                "tempo": 120.0
            },
            {
                "start_time": 17.243181818181817,
                "end_time": 17.34318181818182,
                "pitch": 79,
                "velocity": 101,
                "duration": 0.10000000000000142,
                "tempo": 120.0
            },
            {
                "start_time": 17.34318181818182,
                "end_time": 17.443181818181817,
                "pitch": 78,
                "velocity": 101,
                "duration": 0.09999999999999787,
                "tempo": 120.0
            },
            {
                "start_time": 17.443181818181817,
                "end_time": 17.543181818181818,
                "pitch": 79,
                "velocity": 101,
                "duration": 0.10000000000000142,
                "tempo": 120.0
            },
            {
                "start_time": 17.543181818181818,
                "end_time": 17.643181818181816,
                "pitch": 81,
                "velocity": 101,
                "duration": 0.09999999999999787,
                "tempo": 120.0
            },
            {
                "start_time": 17.643181818181816,
                "end_time": 17.743181818181817,
                "pitch": 79,
                "velocity": 101,
                "duration": 0.10000000000000142,
                "tempo": 120.0
            },
            {
                "start_time": 17.743181818181817,
                "end_time": 17.84318181818182,
                "pitch": 78,
                "velocity": 101,
                "duration": 0.10000000000000142,
                "tempo": 120.0
            },
            {
                "start_time": 17.84318181818182,
                "end_time": 17.943181818181817,
                "pitch": 79,
                "velocity": 101,
                "duration": 0.09999999999999787,
                "tempo": 120.0
            },
            {
                "start_time": 17.943181818181817,
                "end_time": 18.043181818181818,
                "pitch": 81,
                "velocity": 101,
                "duration": 0.10000000000000142,
                "tempo": 120.0
            },
            {
                "start_time": 18.043181818181818,
                "end_time": 18.143181818181816,
                "pitch": 79,
                "velocity": 101,
                "duration": 0.09999999999999787,
                "tempo": 120.0
            },
            {
                "start_time": 18.143181818181816,
                "end_time": 18.243181818181817,
                "pitch": 78,
                "velocity": 101,
                "duration": 0.10000000000000142,
                "tempo": 120.0
            },
            {
                "start_time": 18.243181818181817,
                "end_time": 18.34318181818182,
                "pitch": 79,
                "velocity": 101,
                "duration": 0.10000000000000142,
                "tempo": 120.0
            },
            {
                "start_time": 18.34318181818182,
                "end_time": 18.445454545454545,
                "pitch": 81,
                "velocity": 101,
                "duration": 0.10227272727272663,
                "tempo": 120.0
            },
            {
                "start_time": 18.445454545454545,
                "end_time": 18.545454545454543,
                "pitch": 79,
                "velocity": 101,
                "duration": 0.09999999999999787,
                "tempo": 120.0
            },
            {
                "start_time": 18.545454545454543,
                "end_time": 18.61590909090909,
                "pitch": 78,
                "velocity": 101,
                "duration": 0.07045454545454533,
                "tempo": 120.0
            },
            {
                "start_time": 18.61590909090909,
                "end_time": 18.71590909090909,
                "pitch": 79,
                "velocity": 101,
                "duration": 0.10000000000000142,
                "tempo": 120.0
            },
            {
                "start_time": 18.71590909090909,
                "end_time": 18.80909090909091,
                "pitch": 79,
                "velocity": 101,
                "duration": 0.0931818181818187,
                "tempo": 120.0
            },
            {
                "start_time": 18.80909090909091,
                "end_time": 18.902272727272727,
                "pitch": 78,
                "velocity": 101,
                "duration": 0.0931818181818187,
                "tempo": 120.0
            },
            {
                "start_time": 18.902272727272727,
                "end_time": 18.995454545454546,
                "pitch": 76,
                "velocity": 101,
                "duration": 0.0931818181818187,
                "tempo": 120.0
            },
            {
                "start_time": 18.995454545454546,
                "end_time": 19.086363636363636,
                "pitch": 78,
                "velocity": 101,
                "duration": 0.09090909090908994,
                "tempo": 120.0
            },
            {
                "start_time": 19.086363636363636,
                "end_time": 19.186363636363634,
                "pitch": 79,
                "velocity": 101,
                "duration": 0.09999999999999787,
                "tempo": 120.0
            },
            {
                "start_time": 19.186363636363634,
                "end_time": 19.286363636363635,
                "pitch": 78,
                "velocity": 101,
                "duration": 0.10000000000000142,
                "tempo": 120.0
            },
            {
                "start_time": 19.286363636363635,
                "end_time": 19.386363636363637,
                "pitch": 76,
                "velocity": 101,
                "duration": 0.10000000000000142,
                "tempo": 120.0
            },
            {
                "start_time": 19.386363636363637,
                "end_time": 19.486363636363635,
                "pitch": 78,
                "velocity": 101,
                "duration": 0.09999999999999787,
                "tempo": 120.0
            },
            {
                "start_time": 19.486363636363635,
                "end_time": 19.586363636363636,
                "pitch": 79,
                "velocity": 101,
                "duration": 0.10000000000000142,
                "tempo": 120.0
            },
            {
                "start_time": 19.586363636363636,
                "end_time": 19.686363636363634,
                "pitch": 78,
                "velocity": 101,
                "duration": 0.09999999999999787,
                "tempo": 120.0
            },
            {
                "start_time": 19.686363636363634,
                "end_time": 19.786363636363635,
                "pitch": 76,
                "velocity": 101,
                "duration": 0.10000000000000142,
                "tempo": 120.0
            },
            {
                "start_time": 19.786363636363635,
                "end_time": 19.886363636363637,
                "pitch": 78,
                "velocity": 101,
                "duration": 0.10000000000000142,
                "tempo": 120.0
            },
            {
                "start_time": 19.886363636363637,
                "end_time": 19.988636363636363,
                "pitch": 79,
                "velocity": 101,
                "duration": 0.10227272727272663,
                "tempo": 120.0
            },
            {
                "start_time": 19.988636363636363,
                "end_time": 20.08863636363636,
                "pitch": 78,
                "velocity": 101,
                "duration": 0.09999999999999787,
                "tempo": 120.0
            },
            {
                "start_time": 20.08863636363636,
                "end_time": 20.188636363636363,
                "pitch": 76,
                "velocity": 101,
                "duration": 0.10000000000000142,
                "tempo": 120.0
            },
            {
                "start_time": 20.188636363636363,
                "end_time": 20.288636363636364,
                "pitch": 78,
                "velocity": 101,
                "duration": 0.10000000000000142,
                "tempo": 120.0
            },
            {
                "start_time": 20.288636363636364,
                "end_time": 20.388636363636362,
                "pitch": 79,
                "velocity": 101,
                "duration": 0.09999999999999787,
                "tempo": 120.0
            },
            {
                "start_time": 20.388636363636362,
                "end_time": 20.488636363636363,
                "pitch": 78,
                "velocity": 101,
                "duration": 0.10000000000000142,
                "tempo": 120.0
            },
            {
                "start_time": 20.488636363636363,
                "end_time": 20.58863636363636,
                "pitch": 76,
                "velocity": 101,
                "duration": 0.09999999999999787,
                "tempo": 120.0
            },
            {
                "start_time": 20.58863636363636,
                "end_time": 20.688636363636363,
                "pitch": 78,
                "velocity": 101,
                "duration": 0.10000000000000142,
                "tempo": 120.0
            },
            {
                "start_time": 20.688636363636363,
                "end_time": 20.75,
                "pitch": 79,
                "velocity": 101,
                "duration": 0.0613636363636374,
                "tempo": 120.0
            },
            {
                "start_time": 20.75,
                "end_time": 20.849999999999998,
                "pitch": 78,
                "velocity": 101,
                "duration": 0.09999999999999787,
                "tempo": 120.0
            },
            {
                "start_time": 20.849999999999998,
                "end_time": 20.952272727272724,
                "pitch": 76,
                "velocity": 101,
                "duration": 0.10227272727272663,
                "tempo": 120.0
            },
            {
                "start_time": 20.952272727272724,
                "end_time": 21.052272727272726,
                "pitch": 78,
                "velocity": 101,
                "duration": 0.10000000000000142,
                "tempo": 120.0
            },
            {
                "start_time": 21.052272727272726,
                "end_time": 21.145454545454545,
                "pitch": 79,
                "velocity": 101,
                "duration": 0.0931818181818187,
                "tempo": 120.0
            },
            {
                "start_time": 21.145454545454545,
                "end_time": 21.238636363636363,
                "pitch": 78,
                "velocity": 101,
                "duration": 0.0931818181818187,
                "tempo": 120.0
            },
            {
                "start_time": 21.238636363636363,
                "end_time": 21.329545454545453,
                "pitch": 76,
                "velocity": 101,
                "duration": 0.09090909090908994,
                "tempo": 120.0
            },
            {
                "start_time": 21.329545454545453,
                "end_time": 21.422727272727272,
                "pitch": 78,
                "velocity": 101,
                "duration": 0.0931818181818187,
                "tempo": 120.0
            },
            {
                "start_time": 21.422727272727272,
                "end_time": 21.522727272727273,
                "pitch": 79,
                "velocity": 101,
                "duration": 0.10000000000000142,
                "tempo": 120.0
            },
            {
                "start_time": 21.522727272727273,
                "end_time": 21.62272727272727,
                "pitch": 78,
                "velocity": 101,
                "duration": 0.09999999999999787,
                "tempo": 120.0
            },
            {
                "start_time": 21.62272727272727,
                "end_time": 21.724999999999998,
                "pitch": 76,
                "velocity": 101,
                "duration": 0.10227272727272663,
                "tempo": 120.0
            },
            {
                "start_time": 21.724999999999998,
                "end_time": 21.825,
                "pitch": 78,
                "velocity": 101,
                "duration": 0.10000000000000142,
                "tempo": 120.0
            },
            {
                "start_time": 21.825,
                "end_time": 21.925,
                "pitch": 81,
                "velocity": 101,
                "duration": 0.10000000000000142,
                "tempo": 120.0
            },
            {
                "start_time": 21.925,
                "end_time": 22.025,
                "pitch": 79,
                "velocity": 101,
                "duration": 0.09999999999999787,
                "tempo": 120.0
            },
            {
                "start_time": 22.025,
                "end_time": 22.125,
                "pitch": 78,
                "velocity": 101,
                "duration": 0.10000000000000142,
                "tempo": 120.0
            },
            {
                "start_time": 22.125,
                "end_time": 22.224999999999998,
                "pitch": 79,
                "velocity": 101,
                "duration": 0.09999999999999787,
                "tempo": 120.0
            },
            {
                "start_time": 22.224999999999998,
                "end_time": 22.325,
                "pitch": 81,
                "velocity": 101,
                "duration": 0.10000000000000142,
                "tempo": 120.0
            },
            {
                "start_time": 22.325,
                "end_time": 22.424999999999997,
                "pitch": 79,
                "velocity": 101,
                "duration": 0.09999999999999787,
                "tempo": 120.0
            },
            {
                "start_time": 22.424999999999997,
                "end_time": 22.525,
                "pitch": 78,
                "velocity": 101,
                "duration": 0.10000000000000142,
                "tempo": 120.0
            },
            {
                "start_time": 22.525,
                "end_time": 22.625,
                "pitch": 79,
                "velocity": 101,
                "duration": 0.10000000000000142,
                "tempo": 120.0
            },
            {
                "start_time": 22.625,
                "end_time": 22.722727272727273,
                "pitch": 81,
                "velocity": 101,
                "duration": 0.09772727272727266,
                "tempo": 120.0
            },
            {
                "start_time": 22.722727272727273,
                "end_time": 22.820454545454545,
                "pitch": 79,
                "velocity": 101,
                "duration": 0.09772727272727266,
                "tempo": 120.0
            },
            {
                "start_time": 22.820454545454545,
                "end_time": 22.89090909090909,
                "pitch": 78,
                "velocity": 101,
                "duration": 0.07045454545454533,
                "tempo": 120.0
            },
            {
                "start_time": 22.89090909090909,
                "end_time": 22.988636363636363,
                "pitch": 79,
                "velocity": 101,
                "duration": 0.09772727272727266,
                "tempo": 120.0
            },
            {
                "start_time": 22.988636363636363,
                "end_time": 23.079545454545453,
                "pitch": 81,
                "velocity": 101,
                "duration": 0.09090909090908994,
                "tempo": 120.0
            },
            {
                "start_time": 23.079545454545453,
                "end_time": 23.172727272727272,
                "pitch": 79,
                "velocity": 101,
                "duration": 0.0931818181818187,
                "tempo": 120.0
            },
            {
                "start_time": 23.172727272727272,
                "end_time": 23.26590909090909,
                "pitch": 78,
                "velocity": 101,
                "duration": 0.0931818181818187,
                "tempo": 120.0
            },
            {
                "start_time": 23.26590909090909,
                "end_time": 23.35909090909091,
                "pitch": 79,
                "velocity": 101,
                "duration": 0.0931818181818187,
                "tempo": 120.0
            },
            {
                "start_time": 23.35909090909091,
                "end_time": 23.459090909090907,
                "pitch": 81,
                "velocity": 101,
                "duration": 0.09999999999999787,
                "tempo": 120.0
            },
            {
                "start_time": 23.459090909090907,
                "end_time": 23.55909090909091,
                "pitch": 79,
                "velocity": 101,
                "duration": 0.10000000000000142,
                "tempo": 120.0
            },
            {
                "start_time": 23.55909090909091,
                "end_time": 23.659090909090907,
                "pitch": 78,
                "velocity": 101,
                "duration": 0.09999999999999787,
                "tempo": 120.0
            },
            {
                "start_time": 23.659090909090907,
                "end_time": 23.759090909090908,
                "pitch": 79,
                "velocity": 101,
                "duration": 0.10000000000000142,
                "tempo": 120.0
            },
            {
                "start_time": 23.759090909090908,
                "end_time": 23.85909090909091,
                "pitch": 81,
                "velocity": 101,
                "duration": 0.10000000000000142,
                "tempo": 120.0
            },
            {
                "start_time": 23.85909090909091,
                "end_time": 23.959090909090907,
                "pitch": 79,
                "velocity": 101,
                "duration": 0.09999999999999787,
                "tempo": 120.0
            },
            {
                "start_time": 23.959090909090907,
                "end_time": 24.061363636363634,
                "pitch": 78,
                "velocity": 101,
                "duration": 0.10227272727272663,
                "tempo": 120.0
            },
            {
                "start_time": 24.061363636363634,
                "end_time": 24.161363636363635,
                "pitch": 79,
                "velocity": 101,
                "duration": 0.10000000000000142,
                "tempo": 120.0
            },
            {
                "start_time": 24.161363636363635,
                "end_time": 24.261363636363637,
                "pitch": 81,
                "velocity": 101,
                "duration": 0.10000000000000142,
                "tempo": 120.0
            },
            {
                "start_time": 24.261363636363637,
                "end_time": 24.361363636363635,
                "pitch": 79,
                "velocity": 101,
                "duration": 0.09999999999999787,
                "tempo": 120.0
            },
            {
                "start_time": 24.361363636363635,
                "end_time": 24.461363636363636,
                "pitch": 78,
                "velocity": 101,
                "duration": 0.10000000000000142,
                "tempo": 120.0
            },
            {
                "start_time": 24.461363636363636,
                "end_time": 24.561363636363634,
                "pitch": 79,
                "velocity": 101,
                "duration": 0.09999999999999787,
                "tempo": 120.0
            },
            {
                "start_time": 24.561363636363634,
                "end_time": 24.661363636363635,
                "pitch": 81,
                "velocity": 101,
                "duration": 0.10000000000000142,
                "tempo": 120.0
            },
            {
                "start_time": 24.661363636363635,
                "end_time": 24.761363636363637,
                "pitch": 79,
                "velocity": 101,
                "duration": 0.10000000000000142,
                "tempo": 120.0
            },
            {
                "start_time": 24.761363636363637,
                "end_time": 24.863636363636363,
                "pitch": 78,
                "velocity": 101,
                "duration": 0.10227272727272663,
                "tempo": 120.0
            },
            {
                "start_time": 24.863636363636363,
                "end_time": 24.93409090909091,
                "pitch": 79,
                "velocity": 101,
                "duration": 0.07045454545454533,
                "tempo": 120.0
            },
            {
                "start_time": 24.93409090909091,
                "end_time": 25.025,
                "pitch": 79,
                "velocity": 101,
                "duration": 0.09090909090908994,
                "tempo": 120.0
            },
            {
                "start_time": 25.025,
                "end_time": 25.118181818181817,
                "pitch": 78,
                "velocity": 101,
                "duration": 0.0931818181818187,
                "tempo": 120.0
            },
            {
                "start_time": 25.118181818181817,
                "end_time": 25.211363636363636,
                "pitch": 76,
                "velocity": 101,
                "duration": 0.0931818181818187,
                "tempo": 120.0
            },
            {
                "start_time": 25.211363636363636,
                "end_time": 25.304545454545455,
                "pitch": 78,
                "velocity": 101,
                "duration": 0.0931818181818187,
                "tempo": 120.0
            },
            {
                "start_time": 25.304545454545455,
                "end_time": 25.404545454545453,
                "pitch": 79,
                "velocity": 101,
                "duration": 0.09999999999999787,
                "tempo": 120.0
            },
            {
                "start_time": 25.404545454545453,
                "end_time": 25.504545454545454,
                "pitch": 78,
                "velocity": 101,
                "duration": 0.10000000000000142,
                "tempo": 120.0
            },
            {
                "start_time": 25.504545454545454,
                "end_time": 25.60681818181818,
                "pitch": 76,
                "velocity": 101,
                "duration": 0.10227272727272663,
                "tempo": 120.0
            },
            {
                "start_time": 25.60681818181818,
                "end_time": 25.706818181818182,
                "pitch": 78,
                "velocity": 101,
                "duration": 0.10000000000000142,
                "tempo": 120.0
            },
            {
                "start_time": 25.706818181818182,
                "end_time": 25.80681818181818,
                "pitch": 79,
                "velocity": 101,
                "duration": 0.09999999999999787,
                "tempo": 120.0
            },
            {
                "start_time": 25.80681818181818,
                "end_time": 25.90681818181818,
                "pitch": 78,
                "velocity": 101,
                "duration": 0.10000000000000142,
                "tempo": 120.0
            },
            {
                "start_time": 25.90681818181818,
                "end_time": 26.00681818181818,
                "pitch": 76,
                "velocity": 101,
                "duration": 0.09999999999999787,
                "tempo": 120.0
            },
            {
                "start_time": 26.00681818181818,
                "end_time": 26.10681818181818,
                "pitch": 78,
                "velocity": 101,
                "duration": 0.10000000000000142,
                "tempo": 120.0
            },
            {
                "start_time": 26.10681818181818,
                "end_time": 26.206818181818182,
                "pitch": 79,
                "velocity": 101,
                "duration": 0.10000000000000142,
                "tempo": 120.0
            },
            {
                "start_time": 26.206818181818182,
                "end_time": 26.30681818181818,
                "pitch": 78,
                "velocity": 101,
                "duration": 0.09999999999999787,
                "tempo": 120.0
            },
            {
                "start_time": 26.30681818181818,
                "end_time": 26.409090909090907,
                "pitch": 76,
                "velocity": 101,
                "duration": 0.10227272727272663,
                "tempo": 120.0
            },
            {
                "start_time": 26.409090909090907,
                "end_time": 26.509090909090908,
                "pitch": 78,
                "velocity": 101,
                "duration": 0.10000000000000142,
                "tempo": 120.0
            },
            {
                "start_time": 26.509090909090908,
                "end_time": 26.60909090909091,
                "pitch": 79,
                "velocity": 101,
                "duration": 0.10000000000000142,
                "tempo": 120.0
            },
            {
                "start_time": 26.60909090909091,
                "end_time": 26.709090909090907,
                "pitch": 78,
                "velocity": 101,
                "duration": 0.09999999999999787,
                "tempo": 120.0
            },
            {
                "start_time": 26.709090909090907,
                "end_time": 26.80909090909091,
                "pitch": 76,
                "velocity": 101,
                "duration": 0.10000000000000142,
                "tempo": 120.0
            },
            {
                "start_time": 26.80909090909091,
                "end_time": 26.909090909090907,
                "pitch": 78,
                "velocity": 101,
                "duration": 0.09999999999999787,
                "tempo": 120.0
            },
            {
                "start_time": 26.909090909090907,
                "end_time": 27.009090909090908,
                "pitch": 79,
                "velocity": 101,
                "duration": 0.10000000000000142,
                "tempo": 120.0
            },
            {
                "start_time": 27.009090909090908,
                "end_time": 27.068181818181817,
                "pitch": 78,
                "velocity": 101,
                "duration": 0.05909090909090864,
                "tempo": 120.0
            },
            {
                "start_time": 27.068181818181817,
                "end_time": 27.168181818181818,
                "pitch": 76,
                "velocity": 101,
                "duration": 0.10000000000000142,
                "tempo": 120.0
            },
            {
                "start_time": 27.168181818181818,
                "end_time": 27.279545454545453,
                "pitch": 78,
                "velocity": 101,
                "duration": 0.11136363636363455,
                "tempo": 120.0
            },
            {
                "start_time": 27.279545454545453,
                "end_time": 27.363636363636363,
                "pitch": 79,
                "velocity": 101,
                "duration": 0.08409090909091077,
                "tempo": 120.0
            },
            {
                "start_time": 27.363636363636363,
                "end_time": 27.454545454545453,
                "pitch": 78,
                "velocity": 101,
                "duration": 0.09090909090908994,
                "tempo": 120.0
            },
            {
                "start_time": 27.454545454545453,
                "end_time": 27.547727272727272,
                "pitch": 76,
                "velocity": 101,
                "duration": 0.0931818181818187,
                "tempo": 120.0
            },
            {
                "start_time": 27.547727272727272,
                "end_time": 27.65,
                "pitch": 78,
                "velocity": 101,
                "duration": 0.10227272727272663,
                "tempo": 120.0
            },
            {
                "start_time": 27.65,
                "end_time": 27.738636363636363,
                "pitch": 79,
                "velocity": 101,
                "duration": 0.08863636363636473,
                "tempo": 120.0
            },
            {
                "start_time": 27.738636363636363,
                "end_time": 27.83863636363636,
                "pitch": 78,
                "velocity": 101,
                "duration": 0.09999999999999787,
                "tempo": 120.0
            },
            {
                "start_time": 27.83863636363636,
                "end_time": 27.938636363636363,
                "pitch": 76,
                "velocity": 101,
                "duration": 0.10000000000000142,
                "tempo": 120.0
            },
            {
                "start_time": 27.938636363636363,
                "end_time": 28.049999999999997,
                "pitch": 78,
                "velocity": 101,
                "duration": 0.11136363636363455,
                "tempo": 120.0
            },
            {
                "start_time": 28.049999999999997,
                "end_time": 28.14090909090909,
                "pitch": 79,
                "velocity": 101,
                "duration": 0.09090909090909349,
                "tempo": 120.0
            },
            {
                "start_time": 28.14090909090909,
                "end_time": 28.24090909090909,
                "pitch": 78,
                "velocity": 101,
                "duration": 0.09999999999999787,
                "tempo": 120.0
            },
            {
                "start_time": 28.24090909090909,
                "end_time": 28.34090909090909,
                "pitch": 76,
                "velocity": 101,
                "duration": 0.10000000000000142,
                "tempo": 120.0
            },
            {
                "start_time": 28.34090909090909,
                "end_time": 28.443181818181817,
                "pitch": 78,
                "velocity": 101,
                "duration": 0.10227272727272663,
                "tempo": 120.0
            },
            {
                "start_time": 28.443181818181817,
                "end_time": 28.543181818181818,
                "pitch": 79,
                "velocity": 101,
                "duration": 0.10000000000000142,
                "tempo": 120.0
            },
            {
                "start_time": 28.543181818181818,
                "end_time": 28.652272727272727,
                "pitch": 78,
                "velocity": 101,
                "duration": 0.10909090909090935,
                "tempo": 120.0
            },
            {
                "start_time": 28.652272727272727,
                "end_time": 28.743181818181817,
                "pitch": 76,
                "velocity": 101,
                "duration": 0.09090909090908994,
                "tempo": 120.0
            },
            {
                "start_time": 28.743181818181817,
                "end_time": 28.843181818181815,
                "pitch": 78,
                "velocity": 101,
                "duration": 0.09999999999999787,
                "tempo": 120.0
            },
            {
                "start_time": 28.843181818181815,
                "end_time": 28.940909090909088,
                "pitch": 79,
                "velocity": 101,
                "duration": 0.09772727272727266,
                "tempo": 120.0
            },
            {
                "start_time": 28.940909090909088,
                "end_time": 29.03863636363636,
                "pitch": 78,
                "velocity": 101,
                "duration": 0.09772727272727266,
                "tempo": 120.0
            },
            {
                "start_time": 29.03863636363636,
                "end_time": 29.136363636363637,
                "pitch": 76,
                "velocity": 101,
                "duration": 0.09772727272727622,
                "tempo": 120.0
            },
            {
                "start_time": 29.136363636363637,
                "end_time": 29.204545454545453,
                "pitch": 78,
                "velocity": 101,
                "duration": 0.06818181818181657,
                "tempo": 120.0
            },
            {
                "start_time": 29.204545454545453,
                "end_time": 29.297727272727272,
                "pitch": 79,
                "velocity": 101,
                "duration": 0.0931818181818187,
                "tempo": 120.0
            },
            {
                "start_time": 29.297727272727272,
                "end_time": 29.39090909090909,
                "pitch": 78,
                "velocity": 101,
                "duration": 0.0931818181818187,
                "tempo": 120.0
            },
            {
                "start_time": 29.39090909090909,
                "end_time": 29.48181818181818,
                "pitch": 76,
                "velocity": 101,
                "duration": 0.09090909090908994,
                "tempo": 120.0
            },
            {
                "start_time": 29.48181818181818,
                "end_time": 29.575,
                "pitch": 78,
                "velocity": 101,
                "duration": 0.0931818181818187,
                "tempo": 120.0
            },
            {
                "start_time": 29.575,
                "end_time": 29.674999999999997,
                "pitch": 79,
                "velocity": 101,
                "duration": 0.09999999999999787,
                "tempo": 120.0
            },
            {
                "start_time": 29.674999999999997,
                "end_time": 29.775,
                "pitch": 78,
                "velocity": 101,
                "duration": 0.10000000000000142,
                "tempo": 120.0
            },
            {
                "start_time": 29.775,
                "end_time": 29.875,
                "pitch": 76,
                "velocity": 101,
                "duration": 0.10000000000000142,
                "tempo": 120.0
            },
            {
                "start_time": 29.875,
                "end_time": 29.974999999999998,
                "pitch": 78,
                "velocity": 101,
                "duration": 0.09999999999999787,
                "tempo": 120.0
            },
            {
                "start_time": 29.974999999999998,
                "end_time": 30.075,
                "pitch": 79,
                "velocity": 101,
                "duration": 0.10000000000000142,
                "tempo": 120.0
            },
            {
                "start_time": 30.075,
                "end_time": 30.177272727272726,
                "pitch": 78,
                "velocity": 101,
                "duration": 0.10227272727272663,
                "tempo": 120.0
            },
            {
                "start_time": 30.177272727272726,
                "end_time": 30.277272727272727,
                "pitch": 76,
                "velocity": 101,
                "duration": 0.10000000000000142,
                "tempo": 120.0
            },
            {
                "start_time": 30.277272727272727,
                "end_time": 30.377272727272725,
                "pitch": 78,
                "velocity": 101,
                "duration": 0.09999999999999787,
                "tempo": 120.0
            },
            {
                "start_time": 30.377272727272725,
                "end_time": 30.477272727272727,
                "pitch": 79,
                "velocity": 101,
                "duration": 0.10000000000000142,
                "tempo": 120.0
            },
            {
                "start_time": 30.477272727272727,
                "end_time": 30.577272727272724,
                "pitch": 78,
                "velocity": 101,
                "duration": 0.09999999999999787,
                "tempo": 120.0
            },
            {
                "start_time": 30.577272727272724,
                "end_time": 30.677272727272726,
                "pitch": 76,
                "velocity": 101,
                "duration": 0.10000000000000142,
                "tempo": 120.0
            },
            {
                "start_time": 30.677272727272726,
                "end_time": 30.777272727272727,
                "pitch": 78,
                "velocity": 101,
                "duration": 0.10000000000000142,
                "tempo": 120.0
            },
            {
                "start_time": 30.777272727272727,
                "end_time": 30.877272727272725,
                "pitch": 79,
                "velocity": 101,
                "duration": 0.09999999999999787,
                "tempo": 120.0
            },
            {
                "start_time": 30.877272727272725,
                "end_time": 30.977272727272727,
                "pitch": 78,
                "velocity": 101,
                "duration": 0.10000000000000142,
                "tempo": 120.0
            },
            {
                "start_time": 30.977272727272727,
                "end_time": 31.077272727272724,
                "pitch": 76,
                "velocity": 101,
                "duration": 0.09999999999999787,
                "tempo": 120.0
            },
            {
                "start_time": 31.077272727272724,
                "end_time": 31.177272727272726,
                "pitch": 78,
                "velocity": 101,
                "duration": 0.10000000000000142,
                "tempo": 120.0
            },
            {
                "start_time": 31.177272727272726,
                "end_time": 31.24772727272727,
                "pitch": 79,
                "velocity": 101,
                "duration": 0.07045454545454533,
                "tempo": 120.0
            },
            {
                "start_time": 31.24772727272727,
                "end_time": 31.349999999999998,
                "pitch": 78,
                "velocity": 101,
                "duration": 0.10227272727272663,
                "tempo": 120.0
            },
            {
                "start_time": 31.349999999999998,
                "end_time": 31.45,
                "pitch": 76,
                "velocity": 101,
                "duration": 0.10000000000000142,
                "tempo": 120.0
            },
            {
                "start_time": 31.45,
                "end_time": 31.549999999999997,
                "pitch": 78,
                "velocity": 101,
                "duration": 0.09999999999999787,
                "tempo": 120.0
            },
            {
                "start_time": 31.549999999999997,
                "end_time": 31.643181818181816,
                "pitch": 79,
                "velocity": 101,
                "duration": 0.0931818181818187,
                "tempo": 120.0
            },
            {
                "start_time": 31.643181818181816,
                "end_time": 31.736363636363635,
                "pitch": 78,
                "velocity": 101,
                "duration": 0.0931818181818187,
                "tempo": 120.0
            },
            {
                "start_time": 31.736363636363635,
                "end_time": 31.827272727272724,
                "pitch": 76,
                "velocity": 101,
                "duration": 0.09090909090908994,
                "tempo": 120.0
            },
            {
                "start_time": 31.827272727272724,
                "end_time": 31.920454545454543,
                "pitch": 78,
                "velocity": 101,
                "duration": 0.0931818181818187,
                "tempo": 120.0
            },
            {
                "start_time": 31.920454545454543,
                "end_time": 32.02045454545454,
                "pitch": 79,
                "velocity": 101,
                "duration": 0.09999999999999787,
                "tempo": 120.0
            },
            {
                "start_time": 32.02045454545454,
                "end_time": 32.12045454545454,
                "pitch": 78,
                "velocity": 101,
                "duration": 0.10000000000000142,
                "tempo": 120.0
            },
            {
                "start_time": 32.12045454545454,
                "end_time": 32.220454545454544,
                "pitch": 76,
                "velocity": 101,
                "duration": 0.10000000000000142,
                "tempo": 120.0
            },
            {
                "start_time": 32.220454545454544,
                "end_time": 32.320454545454545,
                "pitch": 78,
                "velocity": 101,
                "duration": 0.10000000000000142,
                "tempo": 120.0
            },
            {
                "start_time": 32.320454545454545,
                "end_time": 32.42045454545455,
                "pitch": 79,
                "velocity": 101,
                "duration": 0.10000000000000142,
                "tempo": 120.0
            },
            {
                "start_time": 32.42045454545455,
                "end_time": 32.52045454545454,
                "pitch": 78,
                "velocity": 101,
                "duration": 0.09999999999999432,
                "tempo": 120.0
            },
            {
                "start_time": 32.52045454545454,
                "end_time": 32.62045454545454,
                "pitch": 76,
                "velocity": 101,
                "duration": 0.10000000000000142,
                "tempo": 120.0
            },
            {
                "start_time": 32.62045454545454,
                "end_time": 32.720454545454544,
                "pitch": 78,
                "velocity": 101,
                "duration": 0.10000000000000142,
                "tempo": 120.0
            },
            {
                "start_time": 32.720454545454544,
                "end_time": 32.820454545454545,
                "pitch": 79,
                "velocity": 101,
                "duration": 0.10000000000000142,
                "tempo": 120.0
            },
            {
                "start_time": 32.820454545454545,
                "end_time": 32.92045454545455,
                "pitch": 78,
                "velocity": 101,
                "duration": 0.10000000000000142,
                "tempo": 120.0
            },
            {
                "start_time": 32.92045454545455,
                "end_time": 33.02045454545454,
                "pitch": 76,
                "velocity": 101,
                "duration": 0.09999999999999432,
                "tempo": 120.0
            },
            {
                "start_time": 33.02045454545454,
                "end_time": 33.12045454545454,
                "pitch": 78,
                "velocity": 101,
                "duration": 0.10000000000000142,
                "tempo": 120.0
            },
            {
                "start_time": 33.12045454545454,
                "end_time": 33.220454545454544,
                "pitch": 79,
                "velocity": 101,
                "duration": 0.10000000000000142,
                "tempo": 120.0
            },
            {
                "start_time": 33.220454545454544,
                "end_time": 33.32272727272727,
                "pitch": 78,
                "velocity": 101,
                "duration": 0.10227272727272663,
                "tempo": 120.0
            },
            {
                "start_time": 33.32272727272727,
                "end_time": 33.393181818181816,
                "pitch": 76,
                "velocity": 101,
                "duration": 0.07045454545454533,
                "tempo": 120.0
            },
            {
                "start_time": 33.393181818181816,
                "end_time": 33.49318181818182,
                "pitch": 78,
                "velocity": 101,
                "duration": 0.10000000000000142,
                "tempo": 120.0
            },
            {
                "start_time": 33.49318181818182,
                "end_time": 33.586363636363636,
                "pitch": 79,
                "velocity": 101,
                "duration": 0.0931818181818187,
                "tempo": 120.0
            },
            {
                "start_time": 33.586363636363636,
                "end_time": 33.679545454545455,
                "pitch": 78,
                "velocity": 101,
                "duration": 0.0931818181818187,
                "tempo": 120.0
            },
            {
                "start_time": 33.679545454545455,
                "end_time": 33.77045454545454,
                "pitch": 76,
                "velocity": 101,
                "duration": 0.09090909090908639,
                "tempo": 120.0
            },
            {
                "start_time": 33.77045454545454,
                "end_time": 33.86363636363636,
                "pitch": 78,
                "velocity": 101,
                "duration": 0.0931818181818187,
                "tempo": 120.0
            },
            {
                "start_time": 33.86363636363636,
                "end_time": 33.96363636363636,
                "pitch": 79,
                "velocity": 101,
                "duration": 0.10000000000000142,
                "tempo": 120.0
            },
            {
                "start_time": 33.96363636363636,
                "end_time": 34.06363636363636,
                "pitch": 78,
                "velocity": 101,
                "duration": 0.10000000000000142,
                "tempo": 120.0
            },
            {
                "start_time": 34.06363636363636,
                "end_time": 34.163636363636364,
                "pitch": 76,
                "velocity": 101,
                "duration": 0.10000000000000142,
                "tempo": 120.0
            },
            {
                "start_time": 34.163636363636364,
                "end_time": 34.263636363636365,
                "pitch": 78,
                "velocity": 101,
                "duration": 0.10000000000000142,
                "tempo": 120.0
            },
            {
                "start_time": 34.263636363636365,
                "end_time": 34.36363636363636,
                "pitch": 81,
                "velocity": 101,
                "duration": 0.09999999999999432,
                "tempo": 120.0
            },
            {
                "start_time": 34.36363636363636,
                "end_time": 34.46363636363636,
                "pitch": 79,
                "velocity": 101,
                "duration": 0.10000000000000142,
                "tempo": 120.0
            },
            {
                "start_time": 34.46363636363636,
                "end_time": 34.56363636363636,
                "pitch": 78,
                "velocity": 101,
                "duration": 0.10000000000000142,
                "tempo": 120.0
            },
            {
                "start_time": 34.56363636363636,
                "end_time": 34.663636363636364,
                "pitch": 79,
                "velocity": 101,
                "duration": 0.10000000000000142,
                "tempo": 120.0
            },
            {
                "start_time": 34.663636363636364,
                "end_time": 34.763636363636365,
                "pitch": 81,
                "velocity": 101,
                "duration": 0.10000000000000142,
                "tempo": 120.0
            },
            {
                "start_time": 34.763636363636365,
                "end_time": 34.86590909090909,
                "pitch": 79,
                "velocity": 101,
                "duration": 0.10227272727272663,
                "tempo": 120.0
            },
            {
                "start_time": 34.86590909090909,
                "end_time": 34.965909090909086,
                "pitch": 78,
                "velocity": 101,
                "duration": 0.09999999999999432,
                "tempo": 120.0
            },
            {
                "start_time": 34.965909090909086,
                "end_time": 35.06590909090909,
                "pitch": 79,
                "velocity": 101,
                "duration": 0.10000000000000142,
                "tempo": 120.0
            },
            {
                "start_time": 35.06590909090909,
                "end_time": 35.16590909090909,
                "pitch": 81,
                "velocity": 101,
                "duration": 0.10000000000000142,
                "tempo": 120.0
            },
            {
                "start_time": 35.16590909090909,
                "end_time": 35.26590909090909,
                "pitch": 79,
                "velocity": 101,
                "duration": 0.10000000000000142,
                "tempo": 120.0
            },
            {
                "start_time": 35.26590909090909,
                "end_time": 35.36590909090909,
                "pitch": 78,
                "velocity": 101,
                "duration": 0.10000000000000142,
                "tempo": 120.0
            },
            {
                "start_time": 35.36590909090909,
                "end_time": 35.465909090909086,
                "pitch": 79,
                "velocity": 101,
                "duration": 0.09999999999999432,
                "tempo": 120.0
            },
            {
                "start_time": 35.465909090909086,
                "end_time": 35.525,
                "pitch": 81,
                "velocity": 101,
                "duration": 0.05909090909091219,
                "tempo": 120.0
            },
            {
                "start_time": 35.525,
                "end_time": 35.62272727272727,
                "pitch": 79,
                "velocity": 101,
                "duration": 0.09772727272726911,
                "tempo": 120.0
            },
            {
                "start_time": 35.62272727272727,
                "end_time": 35.720454545454544,
                "pitch": 78,
                "velocity": 101,
                "duration": 0.09772727272727622,
                "tempo": 120.0
            },
            {
                "start_time": 35.720454545454544,
                "end_time": 35.81818181818181,
                "pitch": 79,
                "velocity": 101,
                "duration": 0.09772727272726911,
                "tempo": 120.0
            },
            {
                "start_time": 35.81818181818181,
                "end_time": 35.91136363636363,
                "pitch": 81,
                "velocity": 101,
                "duration": 0.0931818181818187,
                "tempo": 120.0
            },
            {
                "start_time": 35.91136363636363,
                "end_time": 36.00454545454545,
                "pitch": 79,
                "velocity": 101,
                "duration": 0.0931818181818187,
                "tempo": 120.0
            },
            {
                "start_time": 36.00454545454545,
                "end_time": 36.09772727272727,
                "pitch": 78,
                "velocity": 101,
                "duration": 0.0931818181818187,
                "tempo": 120.0
            },
            {
                "start_time": 36.09772727272727,
                "end_time": 36.18863636363636,
                "pitch": 79,
                "velocity": 101,
                "duration": 0.09090909090909349,
                "tempo": 120.0
            },
            {
                "start_time": 36.18863636363636,
                "end_time": 36.288636363636364,
                "pitch": 81,
                "velocity": 101,
                "duration": 0.10000000000000142,
                "tempo": 120.0
            },
            {
                "start_time": 36.288636363636364,
                "end_time": 36.38863636363636,
                "pitch": 79,
                "velocity": 101,
                "duration": 0.09999999999999432,
                "tempo": 120.0
            },
            {
                "start_time": 36.38863636363636,
                "end_time": 36.48863636363636,
                "pitch": 78,
                "velocity": 101,
                "duration": 0.10000000000000142,
                "tempo": 120.0
            },
            {
                "start_time": 36.48863636363636,
                "end_time": 36.58863636363636,
                "pitch": 79,
                "velocity": 101,
                "duration": 0.10000000000000142,
                "tempo": 120.0
            },
            {
                "start_time": 36.58863636363636,
                "end_time": 36.68863636363636,
                "pitch": 81,
                "velocity": 101,
                "duration": 0.10000000000000142,
                "tempo": 120.0
            },
            {
                "start_time": 36.68863636363636,
                "end_time": 36.788636363636364,
                "pitch": 79,
                "velocity": 101,
                "duration": 0.10000000000000142,
                "tempo": 120.0
            },
            {
                "start_time": 36.788636363636364,
                "end_time": 36.88863636363636,
                "pitch": 78,
                "velocity": 101,
                "duration": 0.09999999999999432,
                "tempo": 120.0
            },
            {
                "start_time": 36.88863636363636,
                "end_time": 36.98863636363636,
                "pitch": 79,
                "velocity": 101,
                "duration": 0.10000000000000142,
                "tempo": 120.0
            },
            {
                "start_time": 36.98863636363636,
                "end_time": 37.090909090909086,
                "pitch": 81,
                "velocity": 101,
                "duration": 0.10227272727272663,
                "tempo": 120.0
            },
            {
                "start_time": 37.090909090909086,
                "end_time": 37.19090909090909,
                "pitch": 79,
                "velocity": 101,
                "duration": 0.10000000000000142,
                "tempo": 120.0
            },
            {
                "start_time": 37.19090909090909,
                "end_time": 37.29090909090909,
                "pitch": 78,
                "velocity": 101,
                "duration": 0.10000000000000142,
                "tempo": 120.0
            },
            {
                "start_time": 37.29090909090909,
                "end_time": 37.393181818181816,
                "pitch": 79,
                "velocity": 101,
                "duration": 0.10227272727272663,
                "tempo": 120.0
            },
            {
                "start_time": 37.393181818181816,
                "end_time": 37.49318181818182,
                "pitch": 79,
                "velocity": 101,
                "duration": 0.10000000000000142,
                "tempo": 120.0
            },
            {
                "start_time": 37.49318181818182,
                "end_time": 37.56136363636364,
                "pitch": 78,
                "velocity": 101,
                "duration": 0.06818181818182012,
                "tempo": 120.0
            },
            {
                "start_time": 37.56136363636364,
                "end_time": 37.66136363636363,
                "pitch": 76,
                "velocity": 101,
                "duration": 0.09999999999999432,
                "tempo": 120.0
            },
            {
                "start_time": 37.66136363636363,
                "end_time": 37.76136363636363,
                "pitch": 78,
                "velocity": 101,
                "duration": 0.10000000000000142,
                "tempo": 120.0
            },
            {
                "start_time": 37.76136363636363,
                "end_time": 37.85454545454545,
                "pitch": 79,
                "velocity": 101,
                "duration": 0.0931818181818187,
                "tempo": 120.0
            },
            {
                "start_time": 37.85454545454545,
                "end_time": 37.94772727272727,
                "pitch": 78,
                "velocity": 101,
                "duration": 0.0931818181818187,
                "tempo": 120.0
            },
            {
                "start_time": 37.94772727272727,
                "end_time": 38.04090909090909,
                "pitch": 76,
                "velocity": 101,
                "duration": 0.0931818181818187,
                "tempo": 120.0
            },
            {
                "start_time": 38.04090909090909,
                "end_time": 38.13181818181818,
                "pitch": 78,
                "velocity": 101,
                "duration": 0.09090909090909349,
                "tempo": 120.0
            },
            {
                "start_time": 38.13181818181818,
                "end_time": 38.23181818181818,
                "pitch": 79,
                "velocity": 101,
                "duration": 0.09999999999999432,
                "tempo": 120.0
            },
            {
                "start_time": 38.23181818181818,
                "end_time": 38.33181818181818,
                "pitch": 78,
                "velocity": 101,
                "duration": 0.10000000000000142,
                "tempo": 120.0
            },
            {
                "start_time": 38.33181818181818,
                "end_time": 38.43181818181818,
                "pitch": 76,
                "velocity": 101,
                "duration": 0.10000000000000142,
                "tempo": 120.0
            },
            {
                "start_time": 38.43181818181818,
                "end_time": 38.53181818181818,
                "pitch": 78,
                "velocity": 101,
                "duration": 0.10000000000000142,
                "tempo": 120.0
            },
            {
                "start_time": 38.53181818181818,
                "end_time": 38.63409090909091,
                "pitch": 79,
                "velocity": 101,
                "duration": 0.10227272727272663,
                "tempo": 120.0
            },
            {
                "start_time": 38.63409090909091,
                "end_time": 38.73409090909091,
                "pitch": 78,
                "velocity": 101,
                "duration": 0.10000000000000142,
                "tempo": 120.0
            },
            {
                "start_time": 38.73409090909091,
                "end_time": 38.834090909090904,
                "pitch": 76,
                "velocity": 101,
                "duration": 0.09999999999999432,
                "tempo": 120.0
            },
            {
                "start_time": 38.834090909090904,
                "end_time": 38.93636363636364,
                "pitch": 78,
                "velocity": 101,
                "duration": 0.10227272727273373,
                "tempo": 120.0
            },
            {
                "start_time": 38.93636363636364,
                "end_time": 39.03636363636363,
                "pitch": 79,
                "velocity": 101,
                "duration": 0.09999999999999432,
                "tempo": 120.0
            },
            {
                "start_time": 39.03636363636363,
                "end_time": 39.13636363636363,
                "pitch": 78,
                "velocity": 101,
                "duration": 0.10000000000000142,
                "tempo": 120.0
            },
            {
                "start_time": 39.13636363636363,
                "end_time": 39.236363636363635,
                "pitch": 76,
                "velocity": 101,
                "duration": 0.10000000000000142,
                "tempo": 120.0
            },
            {
                "start_time": 39.236363636363635,
                "end_time": 39.336363636363636,
                "pitch": 78,
                "velocity": 101,
                "duration": 0.10000000000000142,
                "tempo": 120.0
            },
            {
                "start_time": 39.336363636363636,
                "end_time": 39.43636363636364,
                "pitch": 79,
                "velocity": 101,
                "duration": 0.10000000000000142,
                "tempo": 120.0
            },
            {
                "start_time": 39.43636363636364,
                "end_time": 39.53636363636363,
                "pitch": 78,
                "velocity": 101,
                "duration": 0.09999999999999432,
                "tempo": 120.0
            },
            {
                "start_time": 39.53636363636363,
                "end_time": 39.63636363636363,
                "pitch": 76,
                "velocity": 101,
                "duration": 0.10000000000000142,
                "tempo": 120.0
            },
            {
                "start_time": 39.63636363636363,
                "end_time": 39.70454545454545,
                "pitch": 78,
                "velocity": 101,
                "duration": 0.06818181818182012,
                "tempo": 120.0
            },
            {
                "start_time": 39.70454545454545,
                "end_time": 39.79772727272727,
                "pitch": 79,
                "velocity": 101,
                "duration": 0.0931818181818187,
                "tempo": 120.0
            },
            {
                "start_time": 39.79772727272727,
                "end_time": 39.89090909090909,
                "pitch": 78,
                "velocity": 101,
                "duration": 0.0931818181818187,
                "tempo": 120.0
            },
            {
                "start_time": 39.89090909090909,
                "end_time": 39.98409090909091,
                "pitch": 76,
                "velocity": 101,
                "duration": 0.0931818181818187,
                "tempo": 120.0
            },
            {
                "start_time": 39.98409090909091,
                "end_time": 40.074999999999996,
                "pitch": 78,
                "velocity": 101,
                "duration": 0.09090909090908639,
                "tempo": 120.0
            },
            {
                "start_time": 40.074999999999996,
                "end_time": 40.17727272727272,
                "pitch": 79,
                "velocity": 101,
                "duration": 0.10227272727272663,
                "tempo": 120.0
            },
            {
                "start_time": 40.17727272727272,
                "end_time": 40.277272727272724,
                "pitch": 78,
                "velocity": 101,
                "duration": 0.10000000000000142,
                "tempo": 120.0
            },
            {
                "start_time": 40.277272727272724,
                "end_time": 40.377272727272725,
                "pitch": 76,
                "velocity": 101,
                "duration": 0.10000000000000142,
                "tempo": 120.0
            },
            {
                "start_time": 40.377272727272725,
                "end_time": 40.47727272727273,
                "pitch": 78,
                "velocity": 101,
                "duration": 0.10000000000000142,
                "tempo": 120.0
            },
            {
                "start_time": 40.47727272727273,
                "end_time": 40.57727272727273,
                "pitch": 79,
                "velocity": 101,
                "duration": 0.10000000000000142,
                "tempo": 120.0
            },
            {
                "start_time": 40.57727272727273,
                "end_time": 40.67727272727272,
                "pitch": 78,
                "velocity": 101,
                "duration": 0.09999999999999432,
                "tempo": 120.0
            },
            {
                "start_time": 40.67727272727272,
                "end_time": 40.777272727272724,
                "pitch": 76,
                "velocity": 101,
                "duration": 0.10000000000000142,
                "tempo": 120.0
            },
            {
                "start_time": 40.777272727272724,
                "end_time": 40.877272727272725,
                "pitch": 78,
                "velocity": 101,
                "duration": 0.10000000000000142,
                "tempo": 120.0
            },
            {
                "start_time": 40.877272727272725,
                "end_time": 40.97727272727273,
                "pitch": 79,
                "velocity": 101,
                "duration": 0.10000000000000142,
                "tempo": 120.0
            },
            {
                "start_time": 40.97727272727273,
                "end_time": 41.07727272727273,
                "pitch": 78,
                "velocity": 101,
                "duration": 0.10000000000000142,
                "tempo": 120.0
            },
            {
                "start_time": 41.07727272727273,
                "end_time": 41.17727272727272,
                "pitch": 76,
                "velocity": 101,
                "duration": 0.09999999999999432,
                "tempo": 120.0
            },
            {
                "start_time": 41.17727272727272,
                "end_time": 41.277272727272724,
                "pitch": 78,
                "velocity": 101,
                "duration": 0.10000000000000142,
                "tempo": 120.0
            },
            {
                "start_time": 41.277272727272724,
                "end_time": 41.377272727272725,
                "pitch": 79,
                "velocity": 101,
                "duration": 0.10000000000000142,
                "tempo": 120.0
            },
            {
                "start_time": 41.377272727272725,
                "end_time": 41.47727272727273,
                "pitch": 78,
                "velocity": 101,
                "duration": 0.10000000000000142,
                "tempo": 120.0
            },
            {
                "start_time": 41.47727272727273,
                "end_time": 41.57727272727273,
                "pitch": 76,
                "velocity": 101,
                "duration": 0.10000000000000142,
                "tempo": 120.0
            },
            {
                "start_time": 41.57727272727273,
                "end_time": 41.67727272727272,
                "pitch": 78,
                "velocity": 101,
                "duration": 0.09999999999999432,
                "tempo": 120.0
            },
            {
                "start_time": 41.67727272727272,
                "end_time": 41.777272727272724,
                "pitch": 79,
                "velocity": 101,
                "duration": 0.10000000000000142,
                "tempo": 120.0
            },
            {
                "start_time": 41.777272727272724,
                "end_time": 41.83863636363636,
                "pitch": 78,
                "velocity": 101,
                "duration": 0.0613636363636374,
                "tempo": 120.0
            },
            {
                "start_time": 41.83863636363636,
                "end_time": 41.93863636363636,
                "pitch": 76,
                "velocity": 101,
                "duration": 0.10000000000000142,
                "tempo": 120.0
            },
            {
                "start_time": 41.93863636363636,
                "end_time": 42.038636363636364,
                "pitch": 78,
                "velocity": 101,
                "duration": 0.10000000000000142,
                "tempo": 120.0
            },
            {
                "start_time": 42.038636363636364,
                "end_time": 42.13181818181818,
                "pitch": 79,
                "velocity": 101,
                "duration": 0.0931818181818187,
                "tempo": 120.0
            },
            {
                "start_time": 42.13181818181818,
                "end_time": 42.23409090909091,
                "pitch": 78,
                "velocity": 101,
                "duration": 0.10227272727272663,
                "tempo": 120.0
            },
            {
                "start_time": 42.23409090909091,
                "end_time": 42.31590909090909,
                "pitch": 76,
                "velocity": 101,
                "duration": 0.08181818181817846,
                "tempo": 120.0
            },
            {
                "start_time": 42.31590909090909,
                "end_time": 42.40909090909091,
                "pitch": 78,
                "velocity": 101,
                "duration": 0.0931818181818187,
                "tempo": 120.0
            },
            {
                "start_time": 42.40909090909091,
                "end_time": 42.50909090909091,
                "pitch": 79,
                "velocity": 101,
                "duration": 0.10000000000000142,
                "tempo": 120.0
            },
            {
                "start_time": 42.50909090909091,
                "end_time": 42.60909090909091,
                "pitch": 78,
                "velocity": 101,
                "duration": 0.10000000000000142,
                "tempo": 120.0
            },
            {
                "start_time": 42.60909090909091,
                "end_time": 42.709090909090904,
                "pitch": 76,
                "velocity": 101,
                "duration": 0.09999999999999432,
                "tempo": 120.0
            },
            {
                "start_time": 42.709090909090904,
                "end_time": 42.81818181818181,
                "pitch": 78,
                "velocity": 101,
                "duration": 0.10909090909090935,
                "tempo": 120.0
            },
            {
                "start_time": 42.81818181818181,
                "end_time": 42.90909090909091,
                "pitch": 79,
                "velocity": 101,
                "duration": 0.09090909090909349,
                "tempo": 120.0
            },
            {
                "start_time": 42.90909090909091,
                "end_time": 43.00909090909091,
                "pitch": 78,
                "velocity": 101,
                "duration": 0.10000000000000142,
                "tempo": 120.0
            },
            {
                "start_time": 43.00909090909091,
                "end_time": 43.10909090909091,
                "pitch": 76,
                "velocity": 101,
                "duration": 0.10000000000000142,
                "tempo": 120.0
            },
            {
                "start_time": 43.10909090909091,
                "end_time": 43.21818181818182,
                "pitch": 78,
                "velocity": 101,
                "duration": 0.10909090909090935,
                "tempo": 120.0
            },
            {
                "start_time": 43.21818181818182,
                "end_time": 43.309090909090905,
                "pitch": 79,
                "velocity": 101,
                "duration": 0.09090909090908639,
                "tempo": 120.0
            },
            {
                "start_time": 43.309090909090905,
                "end_time": 43.40909090909091,
                "pitch": 78,
                "velocity": 101,
                "duration": 0.10000000000000142,
                "tempo": 120.0
            },
            {
                "start_time": 43.40909090909091,
                "end_time": 43.50909090909091,
                "pitch": 76,
                "velocity": 101,
                "duration": 0.10000000000000142,
                "tempo": 120.0
            },
            {
                "start_time": 43.50909090909091,
                "end_time": 43.61818181818182,
                "pitch": 78,
                "velocity": 101,
                "duration": 0.10909090909090935,
                "tempo": 120.0
            },
            {
                "start_time": 43.61818181818182,
                "end_time": 43.70681818181818,
                "pitch": 79,
                "velocity": 101,
                "duration": 0.08863636363636118,
                "tempo": 120.0
            },
            {
                "start_time": 43.70681818181818,
                "end_time": 43.804545454545455,
                "pitch": 78,
                "velocity": 101,
                "duration": 0.09772727272727622,
                "tempo": 120.0
            },
            {
                "start_time": 43.804545454545455,
                "end_time": 43.87272727272727,
                "pitch": 76,
                "velocity": 101,
                "duration": 0.06818181818181301,
                "tempo": 120.0
            },
            {
                "start_time": 43.87272727272727,
                "end_time": 43.970454545454544,
                "pitch": 78,
                "velocity": 101,
                "duration": 0.09772727272727622,
                "tempo": 120.0
            },
            {
                "start_time": 43.970454545454544,
                "end_time": 44.06363636363636,
                "pitch": 79,
                "velocity": 101,
                "duration": 0.0931818181818187,
                "tempo": 120.0
            },
            {
                "start_time": 44.06363636363636,
                "end_time": 44.15681818181818,
                "pitch": 78,
                "velocity": 101,
                "duration": 0.0931818181818187,
                "tempo": 120.0
            },
            {
                "start_time": 44.15681818181818,
                "end_time": 44.25,
                "pitch": 76,
                "velocity": 101,
                "duration": 0.0931818181818187,
                "tempo": 120.0
            },
            {
                "start_time": 44.25,
                "end_time": 44.340909090909086,
                "pitch": 78,
                "velocity": 101,
                "duration": 0.09090909090908639,
                "tempo": 120.0
            },
            {
                "start_time": 44.340909090909086,
                "end_time": 44.44090909090909,
                "pitch": 79,
                "velocity": 101,
                "duration": 0.10000000000000142,
                "tempo": 120.0
            },
            {
                "start_time": 44.44090909090909,
                "end_time": 44.54090909090909,
                "pitch": 78,
                "velocity": 101,
                "duration": 0.10000000000000142,
                "tempo": 120.0
            },
            {
                "start_time": 44.54090909090909,
                "end_time": 44.64090909090909,
                "pitch": 76,
                "velocity": 101,
                "duration": 0.10000000000000142,
                "tempo": 120.0
            },
            {
                "start_time": 44.64090909090909,
                "end_time": 44.74090909090909,
                "pitch": 78,
                "velocity": 101,
                "duration": 0.10000000000000142,
                "tempo": 120.0
            },
            {
                "start_time": 44.74090909090909,
                "end_time": 44.840909090909086,
                "pitch": 79,
                "velocity": 101,
                "duration": 0.09999999999999432,
                "tempo": 120.0
            },
            {
                "start_time": 44.840909090909086,
                "end_time": 44.94090909090909,
                "pitch": 78,
                "velocity": 101,
                "duration": 0.10000000000000142,
                "tempo": 120.0
            },
            {
                "start_time": 44.94090909090909,
                "end_time": 45.04090909090909,
                "pitch": 76,
                "velocity": 101,
                "duration": 0.10000000000000142,
                "tempo": 120.0
            },
            {
                "start_time": 45.04090909090909,
                "end_time": 45.14090909090909,
                "pitch": 78,
                "velocity": 101,
                "duration": 0.10000000000000142,
                "tempo": 120.0
            },
            {
                "start_time": 45.14090909090909,
                "end_time": 45.24090909090909,
                "pitch": 79,
                "velocity": 101,
                "duration": 0.10000000000000142,
                "tempo": 120.0
            },
            {
                "start_time": 45.24090909090909,
                "end_time": 45.340909090909086,
                "pitch": 78,
                "velocity": 101,
                "duration": 0.09999999999999432,
                "tempo": 120.0
            },
            {
                "start_time": 45.340909090909086,
                "end_time": 45.44090909090909,
                "pitch": 76,
                "velocity": 101,
                "duration": 0.10000000000000142,
                "tempo": 120.0
            },
            {
                "start_time": 45.44090909090909,
                "end_time": 45.54090909090909,
                "pitch": 78,
                "velocity": 101,
                "duration": 0.10000000000000142,
                "tempo": 120.0
            },
            {
                "start_time": 45.54090909090909,
                "end_time": 45.64090909090909,
                "pitch": 79,
                "velocity": 101,
                "duration": 0.10000000000000142,
                "tempo": 120.0
            },
            {
                "start_time": 45.64090909090909,
                "end_time": 45.74090909090909,
                "pitch": 78,
                "velocity": 101,
                "duration": 0.10000000000000142,
                "tempo": 120.0
            },
            {
                "start_time": 45.74090909090909,
                "end_time": 45.840909090909086,
                "pitch": 76,
                "velocity": 101,
                "duration": 0.09999999999999432,
                "tempo": 120.0
            },
            {
                "start_time": 45.840909090909086,
                "end_time": 45.94090909090909,
                "pitch": 78,
                "velocity": 101,
                "duration": 0.10000000000000142,
                "tempo": 120.0
            },
            {
                "start_time": 45.94090909090909,
                "end_time": 46.01136363636363,
                "pitch": 79,
                "velocity": 101,
                "duration": 0.07045454545454533,
                "tempo": 120.0
            },
            {
                "start_time": 46.01136363636363,
                "end_time": 46.11363636363636,
                "pitch": 78,
                "velocity": 101,
                "duration": 0.10227272727272663,
                "tempo": 120.0
            },
            {
                "start_time": 46.11363636363636,
                "end_time": 46.21363636363636,
                "pitch": 76,
                "velocity": 101,
                "duration": 0.10000000000000142,
                "tempo": 120.0
            },
            {
                "start_time": 46.21363636363636,
                "end_time": 46.31363636363636,
                "pitch": 78,
                "velocity": 101,
                "duration": 0.10000000000000142,
                "tempo": 120.0
            },
            {
                "start_time": 46.31363636363636,
                "end_time": 46.40681818181818,
                "pitch": 79,
                "velocity": 101,
                "duration": 0.0931818181818187,
                "tempo": 120.0
            },
            {
                "start_time": 46.40681818181818,
                "end_time": 46.5,
                "pitch": 78,
                "velocity": 101,
                "duration": 0.0931818181818187,
                "tempo": 120.0
            },
            {
                "start_time": 46.5,
                "end_time": 46.59318181818182,
                "pitch": 76,
                "velocity": 101,
                "duration": 0.0931818181818187,
                "tempo": 120.0
            },
            {
                "start_time": 46.59318181818182,
                "end_time": 46.684090909090905,
                "pitch": 78,
                "velocity": 101,
                "duration": 0.09090909090908639,
                "tempo": 120.0
            },
            {
                "start_time": 46.684090909090905,
                "end_time": 46.78409090909091,
                "pitch": 81,
                "velocity": 101,
                "duration": 0.10000000000000142,
                "tempo": 120.0
            },
            {
                "start_time": 46.78409090909091,
                "end_time": 46.88409090909091,
                "pitch": 79,
                "velocity": 101,
                "duration": 0.10000000000000142,
                "tempo": 120.0
            },
            {
                "start_time": 46.88409090909091,
                "end_time": 46.98409090909091,
                "pitch": 78,
                "velocity": 101,
                "duration": 0.10000000000000142,
                "tempo": 120.0
            },
            {
                "start_time": 46.98409090909091,
                "end_time": 47.084090909090904,
                "pitch": 79,
                "velocity": 101,
                "duration": 0.09999999999999432,
                "tempo": 120.0
            },
            {
                "start_time": 47.084090909090904,
                "end_time": 47.184090909090905,
                "pitch": 81,
                "velocity": 101,
                "duration": 0.10000000000000142,
                "tempo": 120.0
            },
            {
                "start_time": 47.184090909090905,
                "end_time": 47.28409090909091,
                "pitch": 79,
                "velocity": 101,
                "duration": 0.10000000000000142,
                "tempo": 120.0
            },
            {
                "start_time": 47.28409090909091,
                "end_time": 47.38409090909091,
                "pitch": 78,
                "velocity": 101,
                "duration": 0.10000000000000142,
                "tempo": 120.0
            },
            {
                "start_time": 47.38409090909091,
                "end_time": 47.48409090909091,
                "pitch": 79,
                "velocity": 101,
                "duration": 0.10000000000000142,
                "tempo": 120.0
            },
            {
                "start_time": 47.48409090909091,
                "end_time": 47.586363636363636,
                "pitch": 81,
                "velocity": 101,
                "duration": 0.10227272727272663,
                "tempo": 120.0
            },
            {
                "start_time": 47.586363636363636,
                "end_time": 47.68636363636364,
                "pitch": 79,
                "velocity": 101,
                "duration": 0.10000000000000142,
                "tempo": 120.0
            },
            {
                "start_time": 47.68636363636364,
                "end_time": 47.78636363636363,
                "pitch": 78,
                "velocity": 101,
                "duration": 0.09999999999999432,
                "tempo": 120.0
            },
            {
                "start_time": 47.78636363636363,
                "end_time": 47.88636363636363,
                "pitch": 79,
                "velocity": 101,
                "duration": 0.10000000000000142,
                "tempo": 120.0
            },
            {
                "start_time": 47.88636363636363,
                "end_time": 47.986363636363635,
                "pitch": 81,
                "velocity": 101,
                "duration": 0.10000000000000142,
                "tempo": 120.0
            },
            {
                "start_time": 47.986363636363635,
                "end_time": 48.086363636363636,
                "pitch": 79,
                "velocity": 101,
                "duration": 0.10000000000000142,
                "tempo": 120.0
            },
            {
                "start_time": 48.086363636363636,
                "end_time": 48.15681818181818,
                "pitch": 78,
                "velocity": 101,
                "duration": 0.07045454545454533,
                "tempo": 120.0
            },
            {
                "start_time": 48.15681818181818,
                "end_time": 48.25681818181818,
                "pitch": 79,
                "velocity": 101,
                "duration": 0.10000000000000142,
                "tempo": 120.0
            },
            {
                "start_time": 48.25681818181818,
                "end_time": 48.349999999999994,
                "pitch": 81,
                "velocity": 101,
                "duration": 0.0931818181818116,
                "tempo": 120.0
            },
            {
                "start_time": 48.349999999999994,
                "end_time": 48.44318181818181,
                "pitch": 79,
                "velocity": 101,
                "duration": 0.0931818181818187,
                "tempo": 120.0
            },
            {
                "start_time": 48.44318181818181,
                "end_time": 48.53409090909091,
                "pitch": 78,
                "velocity": 101,
                "duration": 0.09090909090909349,
                "tempo": 120.0
            },
            {
                "start_time": 48.53409090909091,
                "end_time": 48.627272727272725,
                "pitch": 79,
                "velocity": 101,
                "duration": 0.0931818181818187,
                "tempo": 120.0
            },
            {
                "start_time": 48.627272727272725,
                "end_time": 48.72727272727273,
                "pitch": 81,
                "velocity": 101,
                "duration": 0.10000000000000142,
                "tempo": 120.0
            },
            {
                "start_time": 48.72727272727273,
                "end_time": 48.82727272727273,
                "pitch": 79,
                "velocity": 101,
                "duration": 0.10000000000000142,
                "tempo": 120.0
            },
            {
                "start_time": 48.82727272727273,
                "end_time": 48.92727272727272,
                "pitch": 78,
                "velocity": 101,
                "duration": 0.09999999999999432,
                "tempo": 120.0
            },
            {
                "start_time": 48.92727272727272,
                "end_time": 49.027272727272724,
                "pitch": 79,
                "velocity": 101,
                "duration": 0.10000000000000142,
                "tempo": 120.0
            },
            {
                "start_time": 49.027272727272724,
                "end_time": 49.127272727272725,
                "pitch": 81,
                "velocity": 101,
                "duration": 0.10000000000000142,
                "tempo": 120.0
            },
            {
                "start_time": 49.127272727272725,
                "end_time": 49.22727272727273,
                "pitch": 79,
                "velocity": 101,
                "duration": 0.10000000000000142,
                "tempo": 120.0
            },
            {
                "start_time": 49.22727272727273,
                "end_time": 49.32727272727273,
                "pitch": 78,
                "velocity": 101,
                "duration": 0.10000000000000142,
                "tempo": 120.0
            },
            {
                "start_time": 49.32727272727273,
                "end_time": 49.42727272727272,
                "pitch": 79,
                "velocity": 101,
                "duration": 0.09999999999999432,
                "tempo": 120.0
            },
            {
                "start_time": 49.42727272727272,
                "end_time": 49.52954545454545,
                "pitch": 81,
                "velocity": 101,
                "duration": 0.10227272727272663,
                "tempo": 120.0
            },
            {
                "start_time": 49.52954545454545,
                "end_time": 49.62954545454545,
                "pitch": 79,
                "velocity": 101,
                "duration": 0.10000000000000142,
                "tempo": 120.0
            },
            {
                "start_time": 49.62954545454545,
                "end_time": 49.72954545454545,
                "pitch": 78,
                "velocity": 101,
                "duration": 0.10000000000000142,
                "tempo": 120.0
            },
            {
                "start_time": 49.72954545454545,
                "end_time": 49.82954545454545,
                "pitch": 79,
                "velocity": 101,
                "duration": 0.10000000000000142,
                "tempo": 120.0
            },
            {
                "start_time": 49.82954545454545,
                "end_time": 49.929545454545455,
                "pitch": 79,
                "velocity": 101,
                "duration": 0.10000000000000142,
                "tempo": 120.0
            },
            {
                "start_time": 49.929545454545455,
                "end_time": 50.02954545454545,
                "pitch": 79,
                "velocity": 101,
                "duration": 0.09999999999999432,
                "tempo": 120.0
            },
            {
                "start_time": 50.02954545454545,
                "end_time": 50.12954545454545,
                "pitch": 78,
                "velocity": 101,
                "duration": 0.10000000000000142,
                "tempo": 120.0
            },
            {
                "start_time": 50.12954545454545,
                "end_time": 50.19090909090909,
                "pitch": 78,
                "velocity": 101,
                "duration": 0.0613636363636374,
                "tempo": 120.0
            },
            {
                "start_time": 50.19090909090909,
                "end_time": 50.28181818181818,
                "pitch": 76,
                "velocity": 101,
                "duration": 0.09090909090909349,
                "tempo": 120.0
            },
            {
                "start_time": 50.28181818181818,
                "end_time": 50.37045454545454,
                "pitch": 76,
                "velocity": 101,
                "duration": 0.08863636363636118,
                "tempo": 120.0
            },
            {
                "start_time": 50.37045454545454,
                "end_time": 50.461363636363636,
                "pitch": 78,
                "velocity": 101,
                "duration": 0.09090909090909349,
                "tempo": 120.0
            },
            {
                "start_time": 50.461363636363636,
                "end_time": 50.55227272727272,
                "pitch": 78,
                "velocity": 101,
                "duration": 0.09090909090908639,
                "tempo": 120.0
            },
            {
                "start_time": 50.55227272727272,
                "end_time": 50.652272727272724,
                "pitch": 79,
                "velocity": 101,
                "duration": 0.10000000000000142,
                "tempo": 120.0
            },
            {
                "start_time": 50.652272727272724,
                "end_time": 50.752272727272725,
                "pitch": 79,
                "velocity": 101,
                "duration": 0.10000000000000142,
                "tempo": 120.0
            },
            {
                "start_time": 50.752272727272725,
                "end_time": 50.85227272727273,
                "pitch": 78,
                "velocity": 101,
                "duration": 0.10000000000000142,
                "tempo": 120.0
            },
            {
                "start_time": 50.85227272727273,
                "end_time": 50.95227272727273,
                "pitch": 78,
                "velocity": 101,
                "duration": 0.10000000000000142,
                "tempo": 120.0
            },
            {
                "start_time": 50.95227272727273,
                "end_time": 51.05227272727272,
                "pitch": 76,
                "velocity": 101,
                "duration": 0.09999999999999432,
                "tempo": 120.0
            },
            {
                "start_time": 51.05227272727272,
                "end_time": 51.152272727272724,
                "pitch": 76,
                "velocity": 101,
                "duration": 0.10000000000000142,
                "tempo": 120.0
            },
            {
                "start_time": 51.152272727272724,
                "end_time": 51.252272727272725,
                "pitch": 78,
                "velocity": 101,
                "duration": 0.10000000000000142,
                "tempo": 120.0
            },
            {
                "start_time": 51.252272727272725,
                "end_time": 51.35227272727273,
                "pitch": 78,
                "velocity": 101,
                "duration": 0.10000000000000142,
                "tempo": 120.0
            },
            {
                "start_time": 51.35227272727273,
                "end_time": 51.45227272727273,
                "pitch": 79,
                "velocity": 101,
                "duration": 0.10000000000000142,
                "tempo": 120.0
            },
            {
                "start_time": 51.45227272727273,
                "end_time": 51.55227272727272,
                "pitch": 79,
                "velocity": 101,
                "duration": 0.09999999999999432,
                "tempo": 120.0
            },
            {
                "start_time": 51.55227272727272,
                "end_time": 51.65454545454545,
                "pitch": 78,
                "velocity": 101,
                "duration": 0.10227272727272663,
                "tempo": 120.0
            },
            {
                "start_time": 51.65454545454545,
                "end_time": 51.75454545454545,
                "pitch": 78,
                "velocity": 101,
                "duration": 0.10000000000000142,
                "tempo": 120.0
            },
            {
                "start_time": 51.75454545454545,
                "end_time": 51.85454545454545,
                "pitch": 76,
                "velocity": 101,
                "duration": 0.10000000000000142,
                "tempo": 120.0
            },
            {
                "start_time": 51.85454545454545,
                "end_time": 51.95454545454545,
                "pitch": 76,
                "velocity": 101,
                "duration": 0.10000000000000142,
                "tempo": 120.0
            },
            {
                "start_time": 51.95454545454545,
                "end_time": 52.054545454545455,
                "pitch": 78,
                "velocity": 101,
                "duration": 0.10000000000000142,
                "tempo": 120.0
            },
            {
                "start_time": 52.054545454545455,
                "end_time": 52.15454545454545,
                "pitch": 78,
                "velocity": 101,
                "duration": 0.09999999999999432,
                "tempo": 120.0
            },
            {
                "start_time": 52.15454545454545,
                "end_time": 52.25454545454545,
                "pitch": 79,
                "velocity": 101,
                "duration": 0.10000000000000142,
                "tempo": 120.0
            },
            {
                "start_time": 52.25454545454545,
                "end_time": 52.324999999999996,
                "pitch": 79,
                "velocity": 101,
                "duration": 0.07045454545454533,
                "tempo": 120.0
            },
            {
                "start_time": 52.324999999999996,
                "end_time": 52.425,
                "pitch": 78,
                "velocity": 101,
                "duration": 0.10000000000000142,
                "tempo": 120.0
            },
            {
                "start_time": 52.425,
                "end_time": 52.525,
                "pitch": 78,
                "velocity": 101,
                "duration": 0.10000000000000142,
                "tempo": 120.0
            },
            {
                "start_time": 52.525,
                "end_time": 52.61818181818182,
                "pitch": 76,
                "velocity": 101,
                "duration": 0.0931818181818187,
                "tempo": 120.0
            },
            {
                "start_time": 52.61818181818182,
                "end_time": 52.709090909090904,
                "pitch": 76,
                "velocity": 101,
                "duration": 0.09090909090908639,
                "tempo": 120.0
            },
            {
                "start_time": 52.709090909090904,
                "end_time": 52.80227272727272,
                "pitch": 78,
                "velocity": 101,
                "duration": 0.0931818181818187,
                "tempo": 120.0
            },
            {
                "start_time": 52.80227272727272,
                "end_time": 52.89545454545454,
                "pitch": 78,
                "velocity": 101,
                "duration": 0.0931818181818187,
                "tempo": 120.0
            },
            {
                "start_time": 52.89545454545454,
                "end_time": 52.99545454545454,
                "pitch": 81,
                "velocity": 101,
                "duration": 0.10000000000000142,
                "tempo": 120.0
            },
            {
                "start_time": 52.99545454545454,
                "end_time": 53.095454545454544,
                "pitch": 81,
                "velocity": 101,
                "duration": 0.10000000000000142,
                "tempo": 120.0
            },
            {
                "start_time": 53.095454545454544,
                "end_time": 53.19772727272727,
                "pitch": 79,
                "velocity": 101,
                "duration": 0.10227272727272663,
                "tempo": 120.0
            },
            {
                "start_time": 53.19772727272727,
                "end_time": 53.29772727272727,
                "pitch": 79,
                "velocity": 101,
                "duration": 0.10000000000000142,
                "tempo": 120.0
            },
            {
                "start_time": 53.29772727272727,
                "end_time": 53.39772727272727,
                "pitch": 78,
                "velocity": 101,
                "duration": 0.10000000000000142,
                "tempo": 120.0
            },
            {
                "start_time": 53.39772727272727,
                "end_time": 53.49772727272727,
                "pitch": 78,
                "velocity": 101,
                "duration": 0.09999999999999432,
                "tempo": 120.0
            },
            {
                "start_time": 53.49772727272727,
                "end_time": 53.59772727272727,
                "pitch": 74,
                "velocity": 101,
                "duration": 0.10000000000000142,
                "tempo": 120.0
            },
            {
                "start_time": 53.59772727272727,
                "end_time": 53.69772727272727,
                "pitch": 74,
                "velocity": 101,
                "duration": 0.10000000000000142,
                "tempo": 120.0
            },
            {
                "start_time": 53.69772727272727,
                "end_time": 53.79772727272727,
                "pitch": 81,
                "velocity": 101,
                "duration": 0.10000000000000142,
                "tempo": 120.0
            },
            {
                "start_time": 53.79772727272727,
                "end_time": 53.89772727272727,
                "pitch": 81,
                "velocity": 101,
                "duration": 0.10000000000000142,
                "tempo": 120.0
            },
            {
                "start_time": 53.89772727272727,
                "end_time": 53.99772727272727,
                "pitch": 79,
                "velocity": 101,
                "duration": 0.09999999999999432,
                "tempo": 120.0
            },
            {
                "start_time": 53.99772727272727,
                "end_time": 54.09772727272727,
                "pitch": 79,
                "velocity": 101,
                "duration": 0.10000000000000142,
                "tempo": 120.0
            },
            {
                "start_time": 54.09772727272727,
                "end_time": 54.19772727272727,
                "pitch": 78,
                "velocity": 101,
                "duration": 0.10000000000000142,
                "tempo": 120.0
            },
            {
                "start_time": 54.19772727272727,
                "end_time": 54.29772727272727,
                "pitch": 78,
                "velocity": 101,
                "duration": 0.10000000000000142,
                "tempo": 120.0
            },
            {
                "start_time": 54.29772727272727,
                "end_time": 54.39772727272727,
                "pitch": 74,
                "velocity": 101,
                "duration": 0.10000000000000142,
                "tempo": 120.0
            },
            {
                "start_time": 54.39772727272727,
                "end_time": 54.46818181818182,
                "pitch": 74,
                "velocity": 101,
                "duration": 0.07045454545454533,
                "tempo": 120.0
            },
            {
                "start_time": 54.46818181818182,
                "end_time": 54.559090909090905,
                "pitch": 81,
                "velocity": 101,
                "duration": 0.09090909090908639,
                "tempo": 120.0
            },
            {
                "start_time": 54.559090909090905,
                "end_time": 54.652272727272724,
                "pitch": 81,
                "velocity": 101,
                "duration": 0.0931818181818187,
                "tempo": 120.0
            },
            {
                "start_time": 54.652272727272724,
                "end_time": 54.74545454545454,
                "pitch": 79,
                "velocity": 101,
                "duration": 0.0931818181818187,
                "tempo": 120.0
            },
            {
                "start_time": 54.74545454545454,
                "end_time": 54.83863636363636,
                "pitch": 79,
                "velocity": 101,
                "duration": 0.0931818181818187,
                "tempo": 120.0
            },
            {
                "start_time": 54.83863636363636,
                "end_time": 54.93863636363636,
                "pitch": 78,
                "velocity": 101,
                "duration": 0.10000000000000142,
                "tempo": 120.0
            },
            {
                "start_time": 54.93863636363636,
                "end_time": 55.038636363636364,
                "pitch": 78,
                "velocity": 101,
                "duration": 0.10000000000000142,
                "tempo": 120.0
            },
            {
                "start_time": 55.038636363636364,
                "end_time": 55.14090909090909,
                "pitch": 74,
                "velocity": 101,
                "duration": 0.10227272727272663,
                "tempo": 120.0
            },
            {
                "start_time": 55.14090909090909,
                "end_time": 55.240909090909085,
                "pitch": 74,
                "velocity": 101,
                "duration": 0.09999999999999432,
                "tempo": 120.0
            },
            {
                "start_time": 55.240909090909085,
                "end_time": 55.340909090909086,
                "pitch": 81,
                "velocity": 101,
                "duration": 0.10000000000000142,
                "tempo": 120.0
            },
            {
                "start_time": 55.340909090909086,
                "end_time": 55.44090909090909,
                "pitch": 81,
                "velocity": 101,
                "duration": 0.10000000000000142,
                "tempo": 120.0
            },
            {
                "start_time": 55.44090909090909,
                "end_time": 55.54090909090909,
                "pitch": 79,
                "velocity": 101,
                "duration": 0.10000000000000142,
                "tempo": 120.0
            },
            {
                "start_time": 55.54090909090909,
                "end_time": 55.64090909090909,
                "pitch": 79,
                "velocity": 101,
                "duration": 0.10000000000000142,
                "tempo": 120.0
            },
            {
                "start_time": 55.64090909090909,
                "end_time": 55.740909090909085,
                "pitch": 78,
                "velocity": 101,
                "duration": 0.09999999999999432,
                "tempo": 120.0
            },
            {
                "start_time": 55.740909090909085,
                "end_time": 55.840909090909086,
                "pitch": 78,
                "velocity": 101,
                "duration": 0.10000000000000142,
                "tempo": 120.0
            },
            {
                "start_time": 55.840909090909086,
                "end_time": 55.94090909090909,
                "pitch": 74,
                "velocity": 101,
                "duration": 0.10000000000000142,
                "tempo": 120.0
            },
            {
                "start_time": 55.94090909090909,
                "end_time": 56.04090909090909,
                "pitch": 74,
                "velocity": 101,
                "duration": 0.10000000000000142,
                "tempo": 120.0
            },
            {
                "start_time": 56.04090909090909,
                "end_time": 56.14090909090909,
                "pitch": 79,
                "velocity": 101,
                "duration": 0.10000000000000142,
                "tempo": 120.0
            },
            {
                "start_time": 56.14090909090909,
                "end_time": 56.240909090909085,
                "pitch": 79,
                "velocity": 101,
                "duration": 0.09999999999999432,
                "tempo": 120.0
            },
            {
                "start_time": 56.240909090909085,
                "end_time": 56.340909090909086,
                "pitch": 78,
                "velocity": 101,
                "duration": 0.10000000000000142,
                "tempo": 120.0
            },
            {
                "start_time": 56.340909090909086,
                "end_time": 56.44090909090909,
                "pitch": 78,
                "velocity": 101,
                "duration": 0.10000000000000142,
                "tempo": 120.0
            },
            {
                "start_time": 56.44090909090909,
                "end_time": 56.5,
                "pitch": 76,
                "velocity": 101,
                "duration": 0.05909090909091219,
                "tempo": 120.0
            },
            {
                "start_time": 56.5,
                "end_time": 56.599999999999994,
                "pitch": 76,
                "velocity": 101,
                "duration": 0.09999999999999432,
                "tempo": 120.0
            },
            {
                "start_time": 56.599999999999994,
                "end_time": 56.699999999999996,
                "pitch": 78,
                "velocity": 101,
                "duration": 0.10000000000000142,
                "tempo": 120.0
            },
            {
                "start_time": 56.699999999999996,
                "end_time": 56.8,
                "pitch": 78,
                "velocity": 101,
                "duration": 0.10000000000000142,
                "tempo": 120.0
            },
            {
                "start_time": 56.8,
                "end_time": 56.893181818181816,
                "pitch": 79,
                "velocity": 101,
                "duration": 0.0931818181818187,
                "tempo": 120.0
            },
            {
                "start_time": 56.893181818181816,
                "end_time": 56.986363636363635,
                "pitch": 79,
                "velocity": 101,
                "duration": 0.0931818181818187,
                "tempo": 120.0
            },
            {
                "start_time": 56.986363636363635,
                "end_time": 57.07954545454545,
                "pitch": 78,
                "velocity": 101,
                "duration": 0.0931818181818187,
                "tempo": 120.0
            },
            {
                "start_time": 57.07954545454545,
                "end_time": 57.17272727272727,
                "pitch": 78,
                "velocity": 101,
                "duration": 0.0931818181818187,
                "tempo": 120.0
            },
            {
                "start_time": 57.17272727272727,
                "end_time": 57.27045454545454,
                "pitch": 76,
                "velocity": 101,
                "duration": 0.09772727272726911,
                "tempo": 120.0
            },
            {
                "start_time": 57.27045454545454,
                "end_time": 57.37045454545454,
                "pitch": 76,
                "velocity": 101,
                "duration": 0.10000000000000142,
                "tempo": 120.0
            },
            {
                "start_time": 57.381818181818176,
                "end_time": 57.470454545454544,
                "pitch": 78,
                "velocity": 101,
                "duration": 0.08863636363636829,
                "tempo": 120.0
            },
            {
                "start_time": 57.470454545454544,
                "end_time": 57.570454545454545,
                "pitch": 78,
                "velocity": 101,
                "duration": 0.10000000000000142,
                "tempo": 120.0
            },
            {
                "start_time": 57.570454545454545,
                "end_time": 57.67045454545454,
                "pitch": 79,
                "velocity": 101,
                "duration": 0.09999999999999432,
                "tempo": 120.0
            },
            {
                "start_time": 57.67045454545454,
                "end_time": 57.77045454545454,
                "pitch": 79,
                "velocity": 101,
                "duration": 0.10000000000000142,
                "tempo": 120.0
            },
            {
                "start_time": 57.77045454545454,
                "end_time": 57.87045454545454,
                "pitch": 78,
                "velocity": 101,
                "duration": 0.10000000000000142,
                "tempo": 120.0
            },
            {
                "start_time": 57.87045454545454,
                "end_time": 57.970454545454544,
                "pitch": 78,
                "velocity": 101,
                "duration": 0.10000000000000142,
                "tempo": 120.0
            },
            {
                "start_time": 57.970454545454544,
                "end_time": 58.070454545454545,
                "pitch": 76,
                "velocity": 101,
                "duration": 0.10000000000000142,
                "tempo": 120.0
            },
            {
                "start_time": 58.070454545454545,
                "end_time": 58.17045454545454,
                "pitch": 76,
                "velocity": 101,
                "duration": 0.09999999999999432,
                "tempo": 120.0
            },
            {
                "start_time": 58.17045454545454,
                "end_time": 58.27045454545454,
                "pitch": 78,
                "velocity": 101,
                "duration": 0.10000000000000142,
                "tempo": 120.0
            },
            {
                "start_time": 58.27045454545454,
                "end_time": 58.37045454545454,
                "pitch": 78,
                "velocity": 101,
                "duration": 0.10000000000000142,
                "tempo": 120.0
            },
            {
                "start_time": 58.37045454545454,
                "end_time": 58.46818181818182,
                "pitch": 79,
                "velocity": 101,
                "duration": 0.09772727272727622,
                "tempo": 120.0
            },
            {
                "start_time": 58.46818181818182,
                "end_time": 58.56818181818181,
                "pitch": 79,
                "velocity": 101,
                "duration": 0.09999999999999432,
                "tempo": 120.0
            },
            {
                "start_time": 58.56818181818181,
                "end_time": 58.63636363636363,
                "pitch": 78,
                "velocity": 101,
                "duration": 0.06818181818182012,
                "tempo": 120.0
            },
            {
                "start_time": 58.63636363636363,
                "end_time": 58.73409090909091,
                "pitch": 78,
                "velocity": 101,
                "duration": 0.09772727272727622,
                "tempo": 120.0
            },
            {
                "start_time": 58.73409090909091,
                "end_time": 58.82727272727272,
                "pitch": 76,
                "velocity": 101,
                "duration": 0.0931818181818116,
                "tempo": 120.0
            },
            {
                "start_time": 58.82727272727272,
                "end_time": 58.918181818181814,
                "pitch": 76,
                "velocity": 101,
                "duration": 0.09090909090909349,
                "tempo": 120.0
            },
            {
                "start_time": 58.918181818181814,
                "end_time": 59.01136363636363,
                "pitch": 78,
                "velocity": 101,
                "duration": 0.0931818181818187,
                "tempo": 120.0
            },
            {
                "start_time": 59.01136363636363,
                "end_time": 59.10454545454545,
                "pitch": 78,
                "velocity": 101,
                "duration": 0.0931818181818187,
                "tempo": 120.0
            },
            {
                "start_time": 59.10454545454545,
                "end_time": 59.20454545454545,
                "pitch": 81,
                "velocity": 101,
                "duration": 0.10000000000000142,
                "tempo": 120.0
            },
            {
                "start_time": 59.20454545454545,
                "end_time": 59.304545454545455,
                "pitch": 81,
                "velocity": 101,
                "duration": 0.10000000000000142,
                "tempo": 120.0
            },
            {
                "start_time": 59.304545454545455,
                "end_time": 59.40454545454545,
                "pitch": 79,
                "velocity": 101,
                "duration": 0.09999999999999432,
                "tempo": 120.0
            },
            {
                "start_time": 59.40454545454545,
                "end_time": 59.50454545454545,
                "pitch": 79,
                "velocity": 101,
                "duration": 0.10000000000000142,
                "tempo": 120.0
            },
            {
                "start_time": 59.50454545454545,
                "end_time": 59.60454545454545,
                "pitch": 78,
                "velocity": 101,
                "duration": 0.10000000000000142,
                "tempo": 120.0
            },
            {
                "start_time": 59.60454545454545,
                "end_time": 59.70454545454545,
                "pitch": 78,
                "velocity": 101,
                "duration": 0.10000000000000142,
                "tempo": 120.0
            },
            {
                "start_time": 59.70454545454545,
                "end_time": 59.804545454545455,
                "pitch": 74,
                "velocity": 101,
                "duration": 0.10000000000000142,
                "tempo": 120.0
            },
            {
                "start_time": 59.804545454545455,
                "end_time": 59.90454545454545,
                "pitch": 74,
                "velocity": 101,
                "duration": 0.09999999999999432,
                "tempo": 120.0
            },
            {
                "start_time": 59.90454545454545,
                "end_time": 60.00454545454545,
                "pitch": 81,
                "velocity": 101,
                "duration": 0.10000000000000142,
                "tempo": 120.0
            },
            {
                "start_time": 60.00454545454545,
                "end_time": 60.10454545454545,
                "pitch": 81,
                "velocity": 101,
                "duration": 0.10000000000000142,
                "tempo": 120.0
            },
            {
                "start_time": 60.10454545454545,
                "end_time": 60.20454545454545,
                "pitch": 79,
                "velocity": 101,
                "duration": 0.10000000000000142,
                "tempo": 120.0
            },
            {
                "start_time": 60.20454545454545,
                "end_time": 60.304545454545455,
                "pitch": 79,
                "velocity": 101,
                "duration": 0.10000000000000142,
                "tempo": 120.0
            },
            {
                "start_time": 60.304545454545455,
                "end_time": 60.40454545454545,
                "pitch": 78,
                "velocity": 101,
                "duration": 0.09999999999999432,
                "tempo": 120.0
            },
            {
                "start_time": 60.40454545454545,
                "end_time": 60.50454545454545,
                "pitch": 78,
                "velocity": 101,
                "duration": 0.10000000000000142,
                "tempo": 120.0
            },
            {
                "start_time": 60.50454545454545,
                "end_time": 60.60681818181818,
                "pitch": 74,
                "velocity": 101,
                "duration": 0.10227272727272663,
                "tempo": 120.0
            },
            {
                "start_time": 60.60681818181818,
                "end_time": 60.70681818181818,
                "pitch": 74,
                "velocity": 101,
                "duration": 0.10000000000000142,
                "tempo": 120.0
            },
            {
                "start_time": 60.70681818181818,
                "end_time": 60.777272727272724,
                "pitch": 81,
                "velocity": 101,
                "duration": 0.07045454545454533,
                "tempo": 120.0
            },
            {
                "start_time": 60.777272727272724,
                "end_time": 60.877272727272725,
                "pitch": 81,
                "velocity": 101,
                "duration": 0.10000000000000142,
                "tempo": 120.0
            },
            {
                "start_time": 60.877272727272725,
                "end_time": 60.97727272727273,
                "pitch": 79,
                "velocity": 101,
                "duration": 0.10000000000000142,
                "tempo": 120.0
            },
            {
                "start_time": 60.97727272727273,
                "end_time": 61.07727272727272,
                "pitch": 79,
                "velocity": 101,
                "duration": 0.09999999999999432,
                "tempo": 120.0
            },
            {
                "start_time": 61.07727272727272,
                "end_time": 61.17045454545454,
                "pitch": 78,
                "velocity": 101,
                "duration": 0.0931818181818187,
                "tempo": 120.0
            },
            {
                "start_time": 61.17045454545454,
                "end_time": 61.26136363636363,
                "pitch": 78,
                "velocity": 101,
                "duration": 0.09090909090909349,
                "tempo": 120.0
            },
            {
                "start_time": 61.26136363636363,
                "end_time": 61.35454545454545,
                "pitch": 74,
                "velocity": 101,
                "duration": 0.0931818181818187,
                "tempo": 120.0
            },
            {
                "start_time": 61.35454545454545,
                "end_time": 61.44772727272727,
                "pitch": 74,
                "velocity": 101,
                "duration": 0.0931818181818187,
                "tempo": 120.0
            },
            {
                "start_time": 61.44772727272727,
                "end_time": 61.54772727272727,
                "pitch": 81,
                "velocity": 101,
                "duration": 0.10000000000000142,
                "tempo": 120.0
            },
            {
                "start_time": 61.54772727272727,
                "end_time": 61.647727272727266,
                "pitch": 81,
                "velocity": 101,
                "duration": 0.09999999999999432,
                "tempo": 120.0
            },
            {
                "start_time": 61.647727272727266,
                "end_time": 61.74772727272727,
                "pitch": 79,
                "velocity": 101,
                "duration": 0.10000000000000142,
                "tempo": 120.0
            },
            {
                "start_time": 61.74772727272727,
                "end_time": 61.84772727272727,
                "pitch": 79,
                "velocity": 101,
                "duration": 0.10000000000000142,
                "tempo": 120.0
            },
            {
                "start_time": 61.84772727272727,
                "end_time": 61.94772727272727,
                "pitch": 78,
                "velocity": 101,
                "duration": 0.10000000000000142,
                "tempo": 120.0
            },
            {
                "start_time": 61.94772727272727,
                "end_time": 62.04772727272727,
                "pitch": 78,
                "velocity": 101,
                "duration": 0.10000000000000142,
                "tempo": 120.0
            },
            {
                "start_time": 62.04772727272727,
                "end_time": 62.147727272727266,
                "pitch": 74,
                "velocity": 101,
                "duration": 0.09999999999999432,
                "tempo": 120.0
            },
            {
                "start_time": 62.147727272727266,
                "end_time": 62.24772727272727,
                "pitch": 74,
                "velocity": 101,
                "duration": 0.10000000000000142,
                "tempo": 120.0
            },
            {
                "start_time": 62.24772727272727,
                "end_time": 62.34772727272727,
                "pitch": 79,
                "velocity": 101,
                "duration": 0.10000000000000142,
                "tempo": 120.0
            },
            {
                "start_time": 62.34772727272727,
                "end_time": 62.44772727272727,
                "pitch": 78,
                "velocity": 101,
                "duration": 0.10000000000000142,
                "tempo": 120.0
            },
            {
                "start_time": 62.44772727272727,
                "end_time": 62.55,
                "pitch": 76,
                "velocity": 101,
                "duration": 0.10227272727272663,
                "tempo": 120.0
            },
            {
                "start_time": 62.55,
                "end_time": 62.65,
                "pitch": 78,
                "velocity": 101,
                "duration": 0.10000000000000142,
                "tempo": 120.0
            }
        ]
    }
}