{
    "track_id": "03 Life in Space",
    "mood": "happy",
    "instruments": {
        "Electric Piano 1": [
            {
                "start_time": 0.00909090909090909,
                "end_time": 3.8477272727272727,
                "pitch": 65,
                "velocity": 51,
                "duration": 3.8386363636363634,
                "tempo": 120.0
            },
            {
                "start_time": 3.8477272727272727,
                "end_time": 7.709090909090909,
                "pitch": 67,
                "velocity": 51,
                "duration": 3.8613636363636363,
                "tempo": 120.0
            },
            {
                "start_time": 7.709090909090909,
                "end_time": 11.579545454545453,
                "pitch": 65,
                "velocity": 51,
                "duration": 3.8704545454545443,
                "tempo": 120.0
            },
            {
                "start_time": 11.579545454545453,
                "end_time": 13.502272727272727,
                "pitch": 67,
                "velocity": 51,
                "duration": 1.9227272727272737,
                "tempo": 120.0
            },
            {
                "start_time": 13.502272727272727,
                "end_time": 17.384090909090908,
                "pitch": 67,
                "velocity": 51,
                "duration": 3.881818181818181,
                "tempo": 120.0
            },
            {
                "start_time": 17.384090909090908,
                "end_time": 21.25,
                "pitch": 64,
                "velocity": 51,
                "duration": 3.865909090909092,
                "tempo": 120.0
            },
            {
                "start_time": 21.25,
                "end_time": 25.111363636363635,
                "pitch": 66,
                "velocity": 51,
                "duration": 3.8613636363636346,
                "tempo": 120.0
            },
            {
                "start_time": 25.113636363636363,
                "end_time": 28.995454545454542,
                "pitch": 64,
                "velocity": 51,
                "duration": 3.881818181818179,
                "tempo": 120.0
            },
            {
                "start_time": 28.995454545454542,
                "end_time": 30.924999999999997,
                "pitch": 66,
                "velocity": 51,
                "duration": 1.9295454545454547,
                "tempo": 120.0
            },
            {
                "start_time": 30.924999999999997,
                "end_time": 50.25909090909091,
                "pitch": 66,
                "velocity": 51,
                "duration": 19.33409090909091,
                "tempo": 120.0
            },
            {
                "start_time": 50.26136363636363,
                "end_time": 54.11363636363636,
                "pitch": 65,
                "velocity": 64,
                "duration": 3.8522727272727266,
                "tempo": 120.0
            },
            {
                "start_time": 54.11363636363636,
                "end_time": 54.97272727272727,
                "pitch": 67,
                "velocity": 64,
                "duration": 0.8590909090909093,
                "tempo": 120.0
            },
            {
                "start_time": 54.97272727272727,
                "end_time": 55.209090909090904,
                "pitch": 67,
                "velocity": 64,
                "duration": 0.23636363636363455,
                "tempo": 120.0
            },
            {
                "start_time": 55.211363636363636,
                "end_time": 55.44318181818181,
                "pitch": 67,
                "velocity": 64,
                "duration": 0.23181818181817704,
                "tempo": 120.0
            },
            {
                "start_time": 55.44318181818181,
                "end_time": 55.57727272727273,
                "pitch": 67,
                "velocity": 64,
                "duration": 0.13409090909091503,
                "tempo": 120.0
            },
            {
                "start_time": 55.57727272727273,
                "end_time": 55.81590909090909,
                "pitch": 65,
                "velocity": 64,
                "duration": 0.23863636363635976,
                "tempo": 120.0
            },
            {
                "start_time": 55.81590909090909,
                "end_time": 57.98863636363636,
                "pitch": 67,
                "velocity": 64,
                "duration": 2.172727272727272,
                "tempo": 120.0
            },
            {
                "start_time": 57.98863636363636,
                "end_time": 58.82954545454545,
                "pitch": 67,
                "velocity": 64,
                "duration": 0.8409090909090935,
                "tempo": 120.0
            },
            {
                "start_time": 58.82954545454545,
                "end_time": 59.06136363636363,
                "pitch": 67,
                "velocity": 64,
                "duration": 0.23181818181817704,
                "tempo": 120.0
            },
            {
                "start_time": 59.06136363636363,
                "end_time": 59.195454545454545,
                "pitch": 67,
                "velocity": 64,
                "duration": 0.13409090909091503,
                "tempo": 120.0
            },
            {
                "start_time": 59.195454545454545,
                "end_time": 59.43181818181818,
                "pitch": 67,
                "velocity": 64,
                "duration": 0.23636363636363455,
                "tempo": 120.0
            },
            {
                "start_time": 59.43181818181818,
                "end_time": 59.66590909090909,
                "pitch": 72,
                "velocity": 64,
                "duration": 0.23409090909090935,
                "tempo": 120.0
            },
            {
                "start_time": 59.66590909090909,
                "end_time": 61.60909090909091,
                "pitch": 65,
                "velocity": 64,
                "duration": 1.9431818181818201,
                "tempo": 120.0
            },
            {
                "start_time": 61.60909090909091,
                "end_time": 61.84318181818182,
                "pitch": 72,
                "velocity": 64,
                "duration": 0.23409090909090935,
                "tempo": 120.0
            },
            {
                "start_time": 61.84318181818182,
                "end_time": 62.82272727272727,
                "pitch": 72,
                "velocity": 64,
                "duration": 0.9795454545454518,
                "tempo": 120.0
            },
            {
                "start_time": 62.82272727272727,
                "end_time": 63.293181818181814,
                "pitch": 72,
                "velocity": 64,
                "duration": 0.4704545454545439,
                "tempo": 120.0
            },
            {
                "start_time": 63.293181818181814,
                "end_time": 63.538636363636364,
                "pitch": 71,
                "velocity": 64,
                "duration": 0.2454545454545496,
                "tempo": 120.0
            },
            {
                "start_time": 63.538636363636364,
                "end_time": 65.70454545454545,
                "pitch": 72,
                "velocity": 64,
                "duration": 2.1659090909090892,
                "tempo": 120.0
            },
            {
                "start_time": 65.70454545454545,
                "end_time": 66.55681818181817,
                "pitch": 67,
                "velocity": 64,
                "duration": 0.8522727272727195,
                "tempo": 120.0
            },
            {
                "start_time": 66.55681818181817,
                "end_time": 66.79318181818182,
                "pitch": 67,
                "velocity": 64,
                "duration": 0.23636363636364877,
                "tempo": 120.0
            },
            {
                "start_time": 66.79318181818182,
                "end_time": 67.04545454545455,
                "pitch": 67,
                "velocity": 64,
                "duration": 0.2522727272727252,
                "tempo": 120.0
            },
            {
                "start_time": 67.04545454545455,
                "end_time": 67.16363636363636,
                "pitch": 67,
                "velocity": 64,
                "duration": 0.11818181818181017,
                "tempo": 120.0
            },
            {
                "start_time": 67.16363636363636,
                "end_time": 67.65227272727273,
                "pitch": 72,
                "velocity": 64,
                "duration": 0.48863636363637397,
                "tempo": 120.0
            },
            {
                "start_time": 67.65227272727273,
                "end_time": 71.51363636363637,
                "pitch": 64,
                "velocity": 64,
                "duration": 3.8613636363636346,
                "tempo": 120.0
            },
            {
                "start_time": 71.51363636363637,
                "end_time": 72.36136363636363,
                "pitch": 66,
                "velocity": 64,
                "duration": 0.8477272727272691,
                "tempo": 120.0
            },
            {
                "start_time": 72.36136363636363,
                "end_time": 72.61363636363636,
                "pitch": 66,
                "velocity": 64,
                "duration": 0.2522727272727252,
                "tempo": 120.0
            },
            {
                "start_time": 72.61363636363636,
                "end_time": 72.84772727272727,
                "pitch": 66,
                "velocity": 64,
                "duration": 0.23409090909090935,
                "tempo": 120.0
            },
            {
                "start_time": 72.84772727272727,
                "end_time": 72.96363636363635,
                "pitch": 66,
                "velocity": 64,
                "duration": 0.11590909090908497,
                "tempo": 120.0
            },
            {
                "start_time": 72.96363636363635,
                "end_time": 73.21136363636363,
                "pitch": 64,
                "velocity": 64,
                "duration": 0.2477272727272748,
                "tempo": 120.0
            },
            {
                "start_time": 73.21136363636363,
                "end_time": 75.38636363636363,
                "pitch": 66,
                "velocity": 64,
                "duration": 2.174999999999997,
                "tempo": 120.0
            },
            {
                "start_time": 75.38636363636363,
                "end_time": 76.22954545454544,
                "pitch": 66,
                "velocity": 64,
                "duration": 0.8431818181818187,
                "tempo": 120.0
            },
            {
                "start_time": 76.22954545454544,
                "end_time": 76.46363636363635,
                "pitch": 66,
                "velocity": 64,
                "duration": 0.23409090909090935,
                "tempo": 120.0
            },
            {
                "start_time": 76.46363636363635,
                "end_time": 76.58181818181818,
                "pitch": 66,
                "velocity": 64,
                "duration": 0.11818181818182438,
                "tempo": 120.0
            },
            {
                "start_time": 76.58181818181818,
                "end_time": 76.8340909090909,
                "pitch": 66,
                "velocity": 64,
                "duration": 0.2522727272727252,
                "tempo": 120.0
            },
            {
                "start_time": 76.8340909090909,
                "end_time": 77.07272727272726,
                "pitch": 71,
                "velocity": 64,
                "duration": 0.23863636363635976,
                "tempo": 120.0
            },
            {
                "start_time": 77.075,
                "end_time": 79.0,
                "pitch": 64,
                "velocity": 64,
                "duration": 1.9249999999999972,
                "tempo": 120.0
            },
            {
                "start_time": 79.00227272727273,
                "end_time": 79.25681818181818,
                "pitch": 71,
                "velocity": 64,
                "duration": 0.2545454545454504,
                "tempo": 120.0
            },
            {
                "start_time": 79.25681818181818,
                "end_time": 80.2159090909091,
                "pitch": 71,
                "velocity": 64,
                "duration": 0.9590909090909179,
                "tempo": 120.0
            },
            {
                "start_time": 80.2159090909091,
                "end_time": 80.69318181818181,
                "pitch": 71,
                "velocity": 64,
                "duration": 0.4772727272727195,
                "tempo": 120.0
            },
            {
                "start_time": 80.69318181818181,
                "end_time": 80.94772727272726,
                "pitch": 70,
                "velocity": 64,
                "duration": 0.2545454545454504,
                "tempo": 120.0
            },
            {
                "start_time": 80.95,
                "end_time": 83.10681818181818,
                "pitch": 71,
                "velocity": 64,
                "duration": 2.1568181818181813,
                "tempo": 120.0
            },
            {
                "start_time": 83.10681818181818,
                "end_time": 83.97272727272727,
                "pitch": 66,
                "velocity": 64,
                "duration": 0.865909090909085,
                "tempo": 120.0
            },
            {
                "start_time": 83.97272727272727,
                "end_time": 84.20681818181818,
                "pitch": 66,
                "velocity": 64,
                "duration": 0.23409090909090935,
                "tempo": 120.0
            },
            {
                "start_time": 84.20681818181818,
                "end_time": 84.44090909090909,
                "pitch": 66,
                "velocity": 64,
                "duration": 0.23409090909090935,
                "tempo": 120.0
            },
            {
                "start_time": 84.44090909090909,
                "end_time": 84.575,
                "pitch": 66,
                "velocity": 64,
                "duration": 0.13409090909091503,
                "tempo": 120.0
            },
            {
                "start_time": 84.575,
                "end_time": 85.05454545454545,
                "pitch": 71,
                "velocity": 64,
                "duration": 0.4795454545454447,
                "tempo": 120.0
            },
            {
                "start_time": 85.05454545454545,
                "end_time": 85.05681818181817,
                "pitch": 65,
                "velocity": 51,
                "duration": 0.0022727272727252057,
                "tempo": 120.0
            }
        ],
        "Harpsichord": [
            {
                "start_time": 50.26363636363636,
                "end_time": 50.49545454545454,
                "pitch": 60,
                "velocity": 80,
                "duration": 0.23181818181818414,
                "tempo": 120.0
            },
            {
                "start_time": 50.49545454545454,
                "end_time": 50.61363636363636,
                "pitch": 60,
                "velocity": 80,
                "duration": 0.11818181818181728,
                "tempo": 120.0
            },
            {
                "start_time": 50.61363636363636,
                "end_time": 50.74772727272727,
                "pitch": 60,
                "velocity": 80,
                "duration": 0.13409090909090793,
                "tempo": 120.0
            },
            {
                "start_time": 50.74772727272727,
                "end_time": 50.986363636363635,
                "pitch": 60,
                "velocity": 80,
                "duration": 0.23863636363636687,
                "tempo": 120.0
            },
            {
                "start_time": 50.98863636363636,
                "end_time": 51.10681818181818,
                "pitch": 60,
                "velocity": 80,
                "duration": 0.11818181818181728,
                "tempo": 120.0
            },
            {
                "start_time": 51.10681818181818,
                "end_time": 51.35454545454545,
                "pitch": 60,
                "velocity": 80,
                "duration": 0.2477272727272748,
                "tempo": 120.0
            },
            {
                "start_time": 51.35454545454545,
                "end_time": 51.57954545454545,
                "pitch": 60,
                "velocity": 80,
                "duration": 0.22500000000000142,
                "tempo": 120.0
            },
            {
                "start_time": 51.57954545454545,
                "end_time": 51.81136363636364,
                "pitch": 60,
                "velocity": 80,
                "duration": 0.23181818181818414,
                "tempo": 120.0
            },
            {
                "start_time": 51.81136363636364,
                "end_time": 51.94772727272727,
                "pitch": 60,
                "velocity": 80,
                "duration": 0.13636363636363313,
                "tempo": 120.0
            },
            {
                "start_time": 51.94772727272727,
                "end_time": 52.18863636363636,
                "pitch": 60,
                "velocity": 80,
                "duration": 0.24090909090909207,
                "tempo": 120.0
            },
            {
                "start_time": 52.18863636363636,
                "end_time": 52.42045454545454,
                "pitch": 60,
                "velocity": 80,
                "duration": 0.23181818181817704,
                "tempo": 120.0
            },
            {
                "start_time": 52.42045454545454,
                "end_time": 52.554545454545455,
                "pitch": 60,
                "velocity": 80,
                "duration": 0.13409090909091503,
                "tempo": 120.0
            },
            {
                "start_time": 52.554545454545455,
                "end_time": 52.67045454545454,
                "pitch": 60,
                "velocity": 80,
                "duration": 0.11590909090908497,
                "tempo": 120.0
            },
            {
                "start_time": 52.67272727272727,
                "end_time": 52.91136363636363,
                "pitch": 60,
                "velocity": 80,
                "duration": 0.23863636363635976,
                "tempo": 120.0
            },
            {
                "start_time": 52.91136363636363,
                "end_time": 53.02954545454545,
                "pitch": 60,
                "velocity": 80,
                "duration": 0.11818181818181728,
                "tempo": 120.0
            },
            {
                "start_time": 53.02954545454545,
                "end_time": 53.28409090909091,
                "pitch": 60,
                "velocity": 80,
                "duration": 0.2545454545454575,
                "tempo": 120.0
            },
            {
                "start_time": 53.28409090909091,
                "end_time": 53.52045454545454,
                "pitch": 60,
                "velocity": 80,
                "duration": 0.23636363636363455,
                "tempo": 120.0
            },
            {
                "start_time": 53.52045454545454,
                "end_time": 53.768181818181816,
                "pitch": 60,
                "velocity": 80,
                "duration": 0.2477272727272748,
                "tempo": 120.0
            },
            {
                "start_time": 53.768181818181816,
                "end_time": 53.88409090909091,
                "pitch": 60,
                "velocity": 80,
                "duration": 0.11590909090909207,
                "tempo": 120.0
            },
            {
                "start_time": 53.88409090909091,
                "end_time": 54.115909090909085,
                "pitch": 60,
                "velocity": 80,
                "duration": 0.23181818181817704,
                "tempo": 120.0
            },
            {
                "start_time": 54.115909090909085,
                "end_time": 54.36363636363636,
                "pitch": 67,
                "velocity": 80,
                "duration": 0.2477272727272748,
                "tempo": 120.0
            },
            {
                "start_time": 54.365909090909085,
                "end_time": 54.48181818181818,
                "pitch": 67,
                "velocity": 80,
                "duration": 0.11590909090909207,
                "tempo": 120.0
            },
            {
                "start_time": 54.48181818181818,
                "end_time": 54.59772727272727,
                "pitch": 67,
                "velocity": 80,
                "duration": 0.11590909090909207,
                "tempo": 120.0
            },
            {
                "start_time": 54.59772727272727,
                "end_time": 54.83863636363636,
                "pitch": 67,
                "velocity": 80,
                "duration": 0.24090909090909207,
                "tempo": 120.0
            },
            {
                "start_time": 54.83863636363636,
                "end_time": 54.974999999999994,
                "pitch": 67,
                "velocity": 80,
                "duration": 0.13636363636363313,
                "tempo": 120.0
            },
            {
                "start_time": 54.974999999999994,
                "end_time": 55.211363636363636,
                "pitch": 67,
                "velocity": 80,
                "duration": 0.23636363636364166,
                "tempo": 120.0
            },
            {
                "start_time": 55.211363636363636,
                "end_time": 55.445454545454545,
                "pitch": 67,
                "velocity": 80,
                "duration": 0.23409090909090935,
                "tempo": 120.0
            },
            {
                "start_time": 55.445454545454545,
                "end_time": 55.695454545454545,
                "pitch": 67,
                "velocity": 80,
                "duration": 0.25,
                "tempo": 120.0
            },
            {
                "start_time": 55.69772727272727,
                "end_time": 55.81818181818181,
                "pitch": 67,
                "velocity": 80,
                "duration": 0.12045454545454248,
                "tempo": 120.0
            },
            {
                "start_time": 55.81818181818181,
                "end_time": 56.05681818181818,
                "pitch": 67,
                "velocity": 80,
                "duration": 0.23863636363636687,
                "tempo": 120.0
            },
            {
                "start_time": 56.05681818181818,
                "end_time": 56.29772727272727,
                "pitch": 67,
                "velocity": 80,
                "duration": 0.24090909090909207,
                "tempo": 120.0
            },
            {
                "start_time": 56.29772727272727,
                "end_time": 56.40909090909091,
                "pitch": 67,
                "velocity": 80,
                "duration": 0.11136363636363455,
                "tempo": 120.0
            },
            {
                "start_time": 56.40909090909091,
                "end_time": 56.52272727272727,
                "pitch": 67,
                "velocity": 80,
                "duration": 0.11363636363636687,
                "tempo": 120.0
            },
            {
                "start_time": 56.52272727272727,
                "end_time": 56.77272727272727,
                "pitch": 67,
                "velocity": 80,
                "duration": 0.25,
                "tempo": 120.0
            },
            {
                "start_time": 56.77272727272727,
                "end_time": 56.88863636363636,
                "pitch": 67,
                "velocity": 80,
                "duration": 0.11590909090908497,
                "tempo": 120.0
            },
            {
                "start_time": 56.88863636363636,
                "end_time": 57.125,
                "pitch": 67,
                "velocity": 80,
                "duration": 0.23636363636364166,
                "tempo": 120.0
            },
            {
                "start_time": 57.125,
                "end_time": 57.381818181818176,
                "pitch": 67,
                "velocity": 80,
                "duration": 0.2568181818181756,
                "tempo": 120.0
            },
            {
                "start_time": 57.381818181818176,
                "end_time": 57.61818181818182,
                "pitch": 67,
                "velocity": 80,
                "duration": 0.23636363636364166,
                "tempo": 120.0
            },
            {
                "start_time": 57.61818181818182,
                "end_time": 57.736363636363635,
                "pitch": 67,
                "velocity": 80,
                "duration": 0.11818181818181728,
                "tempo": 120.0
            },
            {
                "start_time": 57.736363636363635,
                "end_time": 57.990909090909085,
                "pitch": 67,
                "velocity": 80,
                "duration": 0.2545454545454504,
                "tempo": 120.0
            },
            {
                "start_time": 57.990909090909085,
                "end_time": 58.22954545454545,
                "pitch": 60,
                "velocity": 80,
                "duration": 0.23863636363636687,
                "tempo": 120.0
            },
            {
                "start_time": 58.22954545454545,
                "end_time": 58.34772727272727,
                "pitch": 60,
                "velocity": 80,
                "duration": 0.11818181818181728,
                "tempo": 120.0
            },
            {
                "start_time": 58.34772727272727,
                "end_time": 58.46818181818182,
                "pitch": 60,
                "velocity": 80,
                "duration": 0.12045454545454959,
                "tempo": 120.0
            },
            {
                "start_time": 58.46818181818182,
                "end_time": 58.71363636363636,
                "pitch": 60,
                "velocity": 80,
                "duration": 0.24545454545454248,
                "tempo": 120.0
            },
            {
                "start_time": 58.715909090909086,
                "end_time": 58.82954545454545,
                "pitch": 60,
                "velocity": 80,
                "duration": 0.11363636363636687,
                "tempo": 120.0
            },
            {
                "start_time": 58.83181818181818,
                "end_time": 59.06363636363636,
                "pitch": 60,
                "velocity": 80,
                "duration": 0.23181818181818414,
                "tempo": 120.0
            },
            {
                "start_time": 59.06363636363636,
                "end_time": 59.31363636363636,
                "pitch": 60,
                "velocity": 80,
                "duration": 0.25,
                "tempo": 120.0
            },
            {
                "start_time": 59.31363636363636,
                "end_time": 59.54772727272727,
                "pitch": 60,
                "velocity": 80,
                "duration": 0.23409090909090935,
                "tempo": 120.0
            },
            {
                "start_time": 59.54772727272727,
                "end_time": 59.66590909090909,
                "pitch": 60,
                "velocity": 80,
                "duration": 0.11818181818181728,
                "tempo": 120.0
            },
            {
                "start_time": 59.668181818181814,
                "end_time": 59.91590909090909,
                "pitch": 60,
                "velocity": 80,
                "duration": 0.2477272727272748,
                "tempo": 120.0
            },
            {
                "start_time": 59.91590909090909,
                "end_time": 60.15454545454545,
                "pitch": 60,
                "velocity": 80,
                "duration": 0.23863636363635976,
                "tempo": 120.0
            },
            {
                "start_time": 60.15454545454545,
                "end_time": 60.275,
                "pitch": 60,
                "velocity": 80,
                "duration": 0.12045454545454959,
                "tempo": 120.0
            },
            {
                "start_time": 60.275,
                "end_time": 60.41136363636363,
                "pitch": 60,
                "velocity": 80,
                "duration": 0.13636363636363313,
                "tempo": 120.0
            },
            {
                "start_time": 60.41136363636363,
                "end_time": 60.647727272727266,
                "pitch": 60,
                "velocity": 80,
                "duration": 0.23636363636363455,
                "tempo": 120.0
            },
            {
                "start_time": 60.647727272727266,
                "end_time": 60.76590909090909,
                "pitch": 60,
                "velocity": 80,
                "duration": 0.11818181818182438,
                "tempo": 120.0
            },
            {
                "start_time": 60.76590909090909,
                "end_time": 61.01363636363636,
                "pitch": 60,
                "velocity": 80,
                "duration": 0.2477272727272677,
                "tempo": 120.0
            },
            {
                "start_time": 61.01363636363636,
                "end_time": 61.24318181818182,
                "pitch": 60,
                "velocity": 80,
                "duration": 0.22954545454545894,
                "tempo": 120.0
            },
            {
                "start_time": 61.24545454545454,
                "end_time": 61.474999999999994,
                "pitch": 60,
                "velocity": 80,
                "duration": 0.22954545454545183,
                "tempo": 120.0
            },
            {
                "start_time": 61.474999999999994,
                "end_time": 61.611363636363635,
                "pitch": 60,
                "velocity": 80,
                "duration": 0.13636363636364024,
                "tempo": 120.0
            },
            {
                "start_time": 61.611363636363635,
                "end_time": 61.84318181818182,
                "pitch": 60,
                "velocity": 80,
                "duration": 0.23181818181818414,
                "tempo": 120.0
            },
            {
                "start_time": 61.845454545454544,
                "end_time": 62.08181818181818,
                "pitch": 62,
                "velocity": 80,
                "duration": 0.23636363636363455,
                "tempo": 120.0
            },
            {
                "start_time": 62.08181818181818,
                "end_time": 62.21818181818182,
                "pitch": 62,
                "velocity": 80,
                "duration": 0.13636363636364024,
                "tempo": 120.0
            },
            {
                "start_time": 62.220454545454544,
                "end_time": 62.33863636363636,
                "pitch": 62,
                "velocity": 80,
                "duration": 0.11818181818181728,
                "tempo": 120.0
            },
            {
                "start_time": 62.33863636363636,
                "end_time": 62.57272727272727,
                "pitch": 62,
                "velocity": 80,
                "duration": 0.23409090909090935,
                "tempo": 120.0
            },
            {
                "start_time": 62.57272727272727,
                "end_time": 62.68863636363636,
                "pitch": 62,
                "velocity": 80,
                "duration": 0.11590909090909207,
                "tempo": 120.0
            },
            {
                "start_time": 62.68863636363636,
                "end_time": 62.94090909090909,
                "pitch": 62,
                "velocity": 80,
                "duration": 0.2522727272727252,
                "tempo": 120.0
            },
            {
                "start_time": 62.94090909090909,
                "end_time": 63.175,
                "pitch": 62,
                "velocity": 80,
                "duration": 0.23409090909090935,
                "tempo": 120.0
            },
            {
                "start_time": 63.17727272727272,
                "end_time": 63.425,
                "pitch": 62,
                "velocity": 80,
                "duration": 0.2477272727272748,
                "tempo": 120.0
            },
            {
                "start_time": 63.425,
                "end_time": 63.54090909090909,
                "pitch": 62,
                "velocity": 80,
                "duration": 0.11590909090909207,
                "tempo": 120.0
            },
            {
                "start_time": 63.54090909090909,
                "end_time": 63.77045454545454,
                "pitch": 62,
                "velocity": 80,
                "duration": 0.22954545454545183,
                "tempo": 120.0
            },
            {
                "start_time": 63.77045454545454,
                "end_time": 64.02045454545454,
                "pitch": 67,
                "velocity": 80,
                "duration": 0.25,
                "tempo": 120.0
            },
            {
                "start_time": 64.02045454545454,
                "end_time": 64.13636363636364,
                "pitch": 67,
                "velocity": 80,
                "duration": 0.11590909090909918,
                "tempo": 120.0
            },
            {
                "start_time": 64.13863636363637,
                "end_time": 64.25454545454545,
                "pitch": 67,
                "velocity": 80,
                "duration": 0.11590909090908497,
                "tempo": 120.0
            },
            {
                "start_time": 64.25454545454545,
                "end_time": 64.49318181818181,
                "pitch": 67,
                "velocity": 80,
                "duration": 0.23863636363635976,
                "tempo": 120.0
            },
            {
                "start_time": 64.49318181818181,
                "end_time": 64.62954545454545,
                "pitch": 67,
                "velocity": 80,
                "duration": 0.13636363636364024,
                "tempo": 120.0
            },
            {
                "start_time": 64.62954545454545,
                "end_time": 64.86590909090908,
                "pitch": 67,
                "velocity": 80,
                "duration": 0.23636363636363455,
                "tempo": 120.0
            },
            {
                "start_time": 64.86590909090908,
                "end_time": 65.1,
                "pitch": 67,
                "velocity": 80,
                "duration": 0.23409090909090935,
                "tempo": 120.0
            },
            {
                "start_time": 65.1,
                "end_time": 65.35,
                "pitch": 67,
                "velocity": 80,
                "duration": 0.25,
                "tempo": 120.0
            },
            {
                "start_time": 65.35,
                "end_time": 65.46818181818182,
                "pitch": 67,
                "velocity": 80,
                "duration": 0.11818181818182438,
                "tempo": 120.0
            },
            {
                "start_time": 65.47045454545454,
                "end_time": 65.70681818181818,
                "pitch": 67,
                "velocity": 80,
                "duration": 0.23636363636363455,
                "tempo": 120.0
            },
            {
                "start_time": 65.70681818181818,
                "end_time": 65.95,
                "pitch": 67,
                "velocity": 80,
                "duration": 0.24318181818182438,
                "tempo": 120.0
            },
            {
                "start_time": 65.95227272727273,
                "end_time": 66.06590909090909,
                "pitch": 67,
                "velocity": 80,
                "duration": 0.11363636363635976,
                "tempo": 120.0
            },
            {
                "start_time": 66.06590909090909,
                "end_time": 66.18181818181817,
                "pitch": 67,
                "velocity": 80,
                "duration": 0.11590909090908497,
                "tempo": 120.0
            },
            {
                "start_time": 66.18181818181817,
                "end_time": 66.43636363636364,
                "pitch": 67,
                "velocity": 80,
                "duration": 0.2545454545454646,
                "tempo": 120.0
            },
            {
                "start_time": 66.43863636363636,
                "end_time": 66.55681818181817,
                "pitch": 67,
                "velocity": 80,
                "duration": 0.11818181818181017,
                "tempo": 120.0
            },
            {
                "start_time": 66.55909090909091,
                "end_time": 66.79545454545455,
                "pitch": 67,
                "velocity": 80,
                "duration": 0.23636363636363455,
                "tempo": 120.0
            },
            {
                "start_time": 66.79545454545455,
                "end_time": 67.04772727272727,
                "pitch": 67,
                "velocity": 80,
                "duration": 0.2522727272727252,
                "tempo": 120.0
            },
            {
                "start_time": 67.04772727272727,
                "end_time": 67.28181818181818,
                "pitch": 67,
                "velocity": 80,
                "duration": 0.23409090909090935,
                "tempo": 120.0
            },
            {
                "start_time": 67.28181818181818,
                "end_time": 67.39999999999999,
                "pitch": 67,
                "velocity": 80,
                "duration": 0.11818181818181017,
                "tempo": 120.0
            },
            {
                "start_time": 67.39999999999999,
                "end_time": 67.65454545454546,
                "pitch": 67,
                "velocity": 80,
                "duration": 0.2545454545454646,
                "tempo": 120.0
            },
            {
                "start_time": 67.65454545454546,
                "end_time": 67.89090909090909,
                "pitch": 59,
                "velocity": 80,
                "duration": 0.23636363636363455,
                "tempo": 120.0
            },
            {
                "start_time": 67.89090909090909,
                "end_time": 68.01136363636363,
                "pitch": 59,
                "velocity": 80,
                "duration": 0.12045454545453538,
                "tempo": 120.0
            },
            {
                "start_time": 68.01136363636363,
                "end_time": 68.13181818181818,
                "pitch": 59,
                "velocity": 80,
                "duration": 0.12045454545454959,
                "tempo": 120.0
            },
            {
                "start_time": 68.13181818181818,
                "end_time": 68.37727272727273,
                "pitch": 59,
                "velocity": 80,
                "duration": 0.2454545454545496,
                "tempo": 120.0
            },
            {
                "start_time": 68.37727272727273,
                "end_time": 68.49318181818181,
                "pitch": 59,
                "velocity": 80,
                "duration": 0.11590909090908497,
                "tempo": 120.0
            },
            {
                "start_time": 68.49318181818181,
                "end_time": 68.725,
                "pitch": 59,
                "velocity": 80,
                "duration": 0.23181818181818414,
                "tempo": 120.0
            },
            {
                "start_time": 68.725,
                "end_time": 68.97727272727272,
                "pitch": 59,
                "velocity": 80,
                "duration": 0.2522727272727252,
                "tempo": 120.0
            },
            {
                "start_time": 68.97727272727272,
                "end_time": 69.21136363636363,
                "pitch": 59,
                "velocity": 80,
                "duration": 0.23409090909090935,
                "tempo": 120.0
            },
            {
                "start_time": 69.21136363636363,
                "end_time": 69.32954545454545,
                "pitch": 59,
                "velocity": 80,
                "duration": 0.11818181818182438,
                "tempo": 120.0
            },
            {
                "start_time": 69.33181818181818,
                "end_time": 69.5840909090909,
                "pitch": 59,
                "velocity": 80,
                "duration": 0.2522727272727252,
                "tempo": 120.0
            },
            {
                "start_time": 69.5840909090909,
                "end_time": 69.82272727272726,
                "pitch": 59,
                "velocity": 80,
                "duration": 0.23863636363635976,
                "tempo": 120.0
            },
            {
                "start_time": 69.82272727272726,
                "end_time": 69.94090909090909,
                "pitch": 59,
                "velocity": 80,
                "duration": 0.11818181818182438,
                "tempo": 120.0
            },
            {
                "start_time": 69.94318181818181,
                "end_time": 70.07954545454545,
                "pitch": 59,
                "velocity": 80,
                "duration": 0.13636363636364024,
                "tempo": 120.0
            },
            {
                "start_time": 70.07954545454545,
                "end_time": 70.31363636363636,
                "pitch": 59,
                "velocity": 80,
                "duration": 0.23409090909090935,
                "tempo": 120.0
            },
            {
                "start_time": 70.31363636363636,
                "end_time": 70.43181818181817,
                "pitch": 59,
                "velocity": 80,
                "duration": 0.11818181818181017,
                "tempo": 120.0
            },
            {
                "start_time": 70.43181818181817,
                "end_time": 70.68181818181817,
                "pitch": 59,
                "velocity": 80,
                "duration": 0.25,
                "tempo": 120.0
            },
            {
                "start_time": 70.68181818181817,
                "end_time": 70.91136363636363,
                "pitch": 59,
                "velocity": 80,
                "duration": 0.22954545454545894,
                "tempo": 120.0
            },
            {
                "start_time": 70.91136363636363,
                "end_time": 71.14318181818182,
                "pitch": 59,
                "velocity": 80,
                "duration": 0.23181818181818414,
                "tempo": 120.0
            },
            {
                "start_time": 71.14318181818182,
                "end_time": 71.27954545454546,
                "pitch": 59,
                "velocity": 80,
                "duration": 0.13636363636364024,
                "tempo": 120.0
            },
            {
                "start_time": 71.27954545454546,
                "end_time": 71.51590909090909,
                "pitch": 59,
                "velocity": 80,
                "duration": 0.23636363636363455,
                "tempo": 120.0
            },
            {
                "start_time": 71.51590909090909,
                "end_time": 71.75227272727273,
                "pitch": 66,
                "velocity": 80,
                "duration": 0.23636363636363455,
                "tempo": 120.0
            },
            {
                "start_time": 71.75454545454545,
                "end_time": 71.89090909090909,
                "pitch": 66,
                "velocity": 80,
                "duration": 0.13636363636364024,
                "tempo": 120.0
            },
            {
                "start_time": 71.89090909090909,
                "end_time": 72.0090909090909,
                "pitch": 66,
                "velocity": 80,
                "duration": 0.11818181818181017,
                "tempo": 120.0
            },
            {
                "start_time": 72.0090909090909,
                "end_time": 72.24545454545454,
                "pitch": 66,
                "velocity": 80,
                "duration": 0.23636363636363455,
                "tempo": 120.0
            },
            {
                "start_time": 72.24545454545454,
                "end_time": 72.36363636363636,
                "pitch": 66,
                "velocity": 80,
                "duration": 0.11818181818182438,
                "tempo": 120.0
            },
            {
                "start_time": 72.36363636363636,
                "end_time": 72.61590909090908,
                "pitch": 66,
                "velocity": 80,
                "duration": 0.2522727272727252,
                "tempo": 120.0
            },
            {
                "start_time": 72.61590909090908,
                "end_time": 72.84772727272727,
                "pitch": 66,
                "velocity": 80,
                "duration": 0.23181818181818414,
                "tempo": 120.0
            },
            {
                "start_time": 72.85,
                "end_time": 73.09545454545454,
                "pitch": 66,
                "velocity": 80,
                "duration": 0.2454545454545496,
                "tempo": 120.0
            },
            {
                "start_time": 73.09545454545454,
                "end_time": 73.21136363636363,
                "pitch": 66,
                "velocity": 80,
                "duration": 0.11590909090908497,
                "tempo": 120.0
            },
            {
                "start_time": 73.21136363636363,
                "end_time": 73.44090909090909,
                "pitch": 66,
                "velocity": 80,
                "duration": 0.22954545454545894,
                "tempo": 120.0
            },
            {
                "start_time": 73.44090909090909,
                "end_time": 73.69772727272726,
                "pitch": 66,
                "velocity": 80,
                "duration": 0.2568181818181756,
                "tempo": 120.0
            },
            {
                "start_time": 73.69772727272726,
                "end_time": 73.81590909090909,
                "pitch": 66,
                "velocity": 80,
                "duration": 0.11818181818182438,
                "tempo": 120.0
            },
            {
                "start_time": 73.81818181818181,
                "end_time": 73.93636363636364,
                "pitch": 66,
                "velocity": 80,
                "duration": 0.11818181818182438,
                "tempo": 120.0
            },
            {
                "start_time": 73.93636363636364,
                "end_time": 74.17272727272727,
                "pitch": 66,
                "velocity": 80,
                "duration": 0.23636363636363455,
                "tempo": 120.0
            },
            {
                "start_time": 74.17272727272727,
                "end_time": 74.30681818181817,
                "pitch": 66,
                "velocity": 80,
                "duration": 0.13409090909090082,
                "tempo": 120.0
            },
            {
                "start_time": 74.30681818181817,
                "end_time": 74.54090909090908,
                "pitch": 66,
                "velocity": 80,
                "duration": 0.23409090909090935,
                "tempo": 120.0
            },
            {
                "start_time": 74.54090909090908,
                "end_time": 74.77499999999999,
                "pitch": 66,
                "velocity": 80,
                "duration": 0.23409090909090935,
                "tempo": 120.0
            },
            {
                "start_time": 74.77499999999999,
                "end_time": 75.02727272727272,
                "pitch": 66,
                "velocity": 80,
                "duration": 0.2522727272727252,
                "tempo": 120.0
            },
            {
                "start_time": 75.02727272727272,
                "end_time": 75.14772727272727,
                "pitch": 66,
                "velocity": 80,
                "duration": 0.12045454545454959,
                "tempo": 120.0
            },
            {
                "start_time": 75.14772727272727,
                "end_time": 75.38863636363637,
                "pitch": 66,
                "velocity": 80,
                "duration": 0.24090909090909918,
                "tempo": 120.0
            },
            {
                "start_time": 75.38863636363637,
                "end_time": 75.6340909090909,
                "pitch": 59,
                "velocity": 80,
                "duration": 0.24545454545453538,
                "tempo": 120.0
            },
            {
                "start_time": 75.6340909090909,
                "end_time": 75.74772727272727,
                "pitch": 59,
                "velocity": 80,
                "duration": 0.11363636363637397,
                "tempo": 120.0
            },
            {
                "start_time": 75.74772727272727,
                "end_time": 75.86363636363636,
                "pitch": 59,
                "velocity": 80,
                "duration": 0.11590909090908497,
                "tempo": 120.0
            },
            {
                "start_time": 75.86363636363636,
                "end_time": 76.11363636363636,
                "pitch": 59,
                "velocity": 80,
                "duration": 0.25,
                "tempo": 120.0
            },
            {
                "start_time": 76.11363636363636,
                "end_time": 76.23181818181818,
                "pitch": 59,
                "velocity": 80,
                "duration": 0.11818181818182438,
                "tempo": 120.0
            },
            {
                "start_time": 76.23181818181818,
                "end_time": 76.4659090909091,
                "pitch": 59,
                "velocity": 80,
                "duration": 0.23409090909090935,
                "tempo": 120.0
            },
            {
                "start_time": 76.4659090909091,
                "end_time": 76.71818181818182,
                "pitch": 59,
                "velocity": 80,
                "duration": 0.2522727272727252,
                "tempo": 120.0
            },
            {
                "start_time": 76.71818181818182,
                "end_time": 76.95454545454545,
                "pitch": 59,
                "velocity": 80,
                "duration": 0.23636363636363455,
                "tempo": 120.0
            },
            {
                "start_time": 76.95454545454545,
                "end_time": 77.075,
                "pitch": 59,
                "velocity": 80,
                "duration": 0.12045454545454959,
                "tempo": 120.0
            },
            {
                "start_time": 77.075,
                "end_time": 77.33181818181818,
                "pitch": 59,
                "velocity": 80,
                "duration": 0.2568181818181756,
                "tempo": 120.0
            },
            {
                "start_time": 77.33181818181818,
                "end_time": 77.56363636363636,
                "pitch": 59,
                "velocity": 80,
                "duration": 0.23181818181818414,
                "tempo": 120.0
            },
            {
                "start_time": 77.56363636363636,
                "end_time": 77.68181818181817,
                "pitch": 59,
                "velocity": 80,
                "duration": 0.11818181818181017,
                "tempo": 120.0
            },
            {
                "start_time": 77.68181818181817,
                "end_time": 77.79772727272727,
                "pitch": 59,
                "velocity": 80,
                "duration": 0.11590909090909918,
                "tempo": 120.0
            },
            {
                "start_time": 77.79772727272727,
                "end_time": 78.04545454545455,
                "pitch": 59,
                "velocity": 80,
                "duration": 0.2477272727272748,
                "tempo": 120.0
            },
            {
                "start_time": 78.04545454545455,
                "end_time": 78.1590909090909,
                "pitch": 59,
                "velocity": 80,
                "duration": 0.11363636363635976,
                "tempo": 120.0
            },
            {
                "start_time": 78.1590909090909,
                "end_time": 78.39318181818182,
                "pitch": 59,
                "velocity": 80,
                "duration": 0.23409090909090935,
                "tempo": 120.0
            },
            {
                "start_time": 78.39318181818182,
                "end_time": 78.64545454545454,
                "pitch": 59,
                "velocity": 80,
                "duration": 0.2522727272727252,
                "tempo": 120.0
            },
            {
                "start_time": 78.64545454545454,
                "end_time": 78.88181818181818,
                "pitch": 59,
                "velocity": 80,
                "duration": 0.23636363636363455,
                "tempo": 120.0
            },
            {
                "start_time": 78.88181818181818,
                "end_time": 79.00227272727273,
                "pitch": 59,
                "velocity": 80,
                "duration": 0.12045454545454959,
                "tempo": 120.0
            },
            {
                "start_time": 79.00227272727273,
                "end_time": 79.2590909090909,
                "pitch": 59,
                "velocity": 80,
                "duration": 0.2568181818181756,
                "tempo": 120.0
            },
            {
                "start_time": 79.2590909090909,
                "end_time": 79.49318181818181,
                "pitch": 61,
                "velocity": 80,
                "duration": 0.23409090909090935,
                "tempo": 120.0
            },
            {
                "start_time": 79.49318181818181,
                "end_time": 79.61136363636363,
                "pitch": 61,
                "velocity": 80,
                "duration": 0.11818181818182438,
                "tempo": 120.0
            },
            {
                "start_time": 79.61136363636363,
                "end_time": 79.74545454545454,
                "pitch": 61,
                "velocity": 80,
                "duration": 0.13409090909090082,
                "tempo": 120.0
            },
            {
                "start_time": 79.74545454545454,
                "end_time": 79.98181818181818,
                "pitch": 61,
                "velocity": 80,
                "duration": 0.23636363636364877,
                "tempo": 120.0
            },
            {
                "start_time": 79.98181818181818,
                "end_time": 80.1,
                "pitch": 61,
                "velocity": 80,
                "duration": 0.11818181818181017,
                "tempo": 120.0
            },
            {
                "start_time": 80.1,
                "end_time": 80.34772727272727,
                "pitch": 61,
                "velocity": 80,
                "duration": 0.2477272727272748,
                "tempo": 120.0
            },
            {
                "start_time": 80.34772727272727,
                "end_time": 80.57727272727273,
                "pitch": 61,
                "velocity": 80,
                "duration": 0.22954545454545894,
                "tempo": 120.0
            },
            {
                "start_time": 80.57727272727273,
                "end_time": 80.81136363636364,
                "pitch": 61,
                "velocity": 80,
                "duration": 0.23409090909090935,
                "tempo": 120.0
            },
            {
                "start_time": 80.81136363636364,
                "end_time": 80.95,
                "pitch": 61,
                "velocity": 80,
                "duration": 0.13863636363636545,
                "tempo": 120.0
            },
            {
                "start_time": 80.95,
                "end_time": 81.18863636363636,
                "pitch": 61,
                "velocity": 80,
                "duration": 0.23863636363635976,
                "tempo": 120.0
            },
            {
                "start_time": 81.19090909090909,
                "end_time": 81.425,
                "pitch": 66,
                "velocity": 80,
                "duration": 0.23409090909090935,
                "tempo": 120.0
            },
            {
                "start_time": 81.425,
                "end_time": 81.55909090909091,
                "pitch": 66,
                "velocity": 80,
                "duration": 0.13409090909091503,
                "tempo": 120.0
            },
            {
                "start_time": 81.55909090909091,
                "end_time": 81.67727272727272,
                "pitch": 66,
                "velocity": 80,
                "duration": 0.11818181818181017,
                "tempo": 120.0
            },
            {
                "start_time": 81.67727272727272,
                "end_time": 81.91136363636363,
                "pitch": 66,
                "velocity": 80,
                "duration": 0.23409090909090935,
                "tempo": 120.0
            },
            {
                "start_time": 81.91136363636363,
                "end_time": 82.02954545454546,
                "pitch": 66,
                "velocity": 80,
                "duration": 0.11818181818182438,
                "tempo": 120.0
            },
            {
                "start_time": 82.02954545454546,
                "end_time": 82.28181818181818,
                "pitch": 66,
                "velocity": 80,
                "duration": 0.2522727272727252,
                "tempo": 120.0
            },
            {
                "start_time": 82.28181818181818,
                "end_time": 82.51363636363637,
                "pitch": 66,
                "velocity": 80,
                "duration": 0.23181818181818414,
                "tempo": 120.0
            },
            {
                "start_time": 82.51590909090909,
                "end_time": 82.76136363636363,
                "pitch": 66,
                "velocity": 80,
                "duration": 0.24545454545453538,
                "tempo": 120.0
            },
            {
                "start_time": 82.76136363636363,
                "end_time": 82.87727272727273,
                "pitch": 66,
                "velocity": 80,
                "duration": 0.11590909090909918,
                "tempo": 120.0
            },
            {
                "start_time": 82.87727272727273,
                "end_time": 83.10909090909091,
                "pitch": 66,
                "velocity": 80,
                "duration": 0.23181818181818414,
                "tempo": 120.0
            },
            {
                "start_time": 83.10909090909091,
                "end_time": 83.36363636363636,
                "pitch": 66,
                "velocity": 80,
                "duration": 0.2545454545454504,
                "tempo": 120.0
            },
            {
                "start_time": 83.36363636363636,
                "end_time": 83.48409090909091,
                "pitch": 66,
                "velocity": 80,
                "duration": 0.12045454545454959,
                "tempo": 120.0
            },
            {
                "start_time": 83.48409090909091,
                "end_time": 83.60454545454544,
                "pitch": 66,
                "velocity": 80,
                "duration": 0.12045454545453538,
                "tempo": 120.0
            },
            {
                "start_time": 83.60454545454544,
                "end_time": 83.83863636363635,
                "pitch": 66,
                "velocity": 80,
                "duration": 0.23409090909090935,
                "tempo": 120.0
            },
            {
                "start_time": 83.83863636363635,
                "end_time": 83.975,
                "pitch": 66,
                "velocity": 80,
                "duration": 0.13636363636364024,
                "tempo": 120.0
            },
            {
                "start_time": 83.975,
                "end_time": 84.2090909090909,
                "pitch": 66,
                "velocity": 80,
                "duration": 0.23409090909090935,
                "tempo": 120.0
            },
            {
                "start_time": 84.2090909090909,
                "end_time": 84.44318181818181,
                "pitch": 66,
                "velocity": 80,
                "duration": 0.23409090909090935,
                "tempo": 120.0
            },
            {
                "start_time": 84.44318181818181,
                "end_time": 84.69545454545454,
                "pitch": 66,
                "velocity": 80,
                "duration": 0.2522727272727252,
                "tempo": 120.0
            },
            {
                "start_time": 84.69545454545454,
                "end_time": 84.81363636363636,
                "pitch": 66,
                "velocity": 80,
                "duration": 0.11818181818182438,
                "tempo": 120.0
            }
        ],
        "Trumpet": [
            {
                "start_time": 42.03181818181818,
                "end_time": 42.288636363636364,
                "pitch": 89,
                "velocity": 101,
                "duration": 0.2568181818181827,
                "tempo": 120.0
            },
            {
                "start_time": 49.76363636363636,
                "end_time": 50.002272727272725,
                "pitch": 89,
                "velocity": 101,
                "duration": 0.23863636363636687,
                "tempo": 120.0
            }
        ],
        "Lead 2 (sawtooth)": [
            {
                "start_time": 0.011363636363636364,
                "end_time": 0.125,
                "pitch": 65,
                "velocity": 80,
                "duration": 0.11363636363636363,
                "tempo": 120.0
            },
            {
                "start_time": 0.125,
                "end_time": 0.36136363636363633,
                "pitch": 72,
                "velocity": 80,
                "duration": 0.23636363636363633,
                "tempo": 120.0
            },
            {
                "start_time": 0.36136363636363633,
                "end_time": 0.4795454545454545,
                "pitch": 65,
                "velocity": 80,
                "duration": 0.11818181818181817,
                "tempo": 120.0
            },
            {
                "start_time": 0.4795454545454545,
                "end_time": 0.7204545454545455,
                "pitch": 77,
                "velocity": 80,
                "duration": 0.24090909090909096,
                "tempo": 120.0
            },
            {
                "start_time": 0.7204545454545455,
                "end_time": 0.8318181818181818,
                "pitch": 65,
                "velocity": 80,
                "duration": 0.11136363636363633,
                "tempo": 120.0
            },
            {
                "start_time": 0.8318181818181818,
                "end_time": 1.0613636363636363,
                "pitch": 72,
                "velocity": 80,
                "duration": 0.2295454545454545,
                "tempo": 120.0
            },
            {
                "start_time": 1.0613636363636363,
                "end_time": 1.1954545454545453,
                "pitch": 65,
                "velocity": 80,
                "duration": 0.13409090909090904,
                "tempo": 120.0
            },
            {
                "start_time": 1.1954545454545453,
                "end_time": 1.4295454545454545,
                "pitch": 72,
                "velocity": 80,
                "duration": 0.23409090909090913,
                "tempo": 120.0
            },
            {
                "start_time": 1.4295454545454545,
                "end_time": 1.6681818181818182,
                "pitch": 65,
                "velocity": 80,
                "duration": 0.23863636363636376,
                "tempo": 120.0
            },
            {
                "start_time": 1.6681818181818182,
                "end_time": 1.9249999999999998,
                "pitch": 77,
                "velocity": 80,
                "duration": 0.2568181818181816,
                "tempo": 120.0
            },
            {
                "start_time": 1.9249999999999998,
                "end_time": 2.040909090909091,
                "pitch": 65,
                "velocity": 80,
                "duration": 0.11590909090909118,
                "tempo": 120.0
            },
            {
                "start_time": 2.040909090909091,
                "end_time": 2.275,
                "pitch": 70,
                "velocity": 80,
                "duration": 0.2340909090909089,
                "tempo": 120.0
            },
            {
                "start_time": 2.275,
                "end_time": 2.4068181818181817,
                "pitch": 65,
                "velocity": 80,
                "duration": 0.13181818181818183,
                "tempo": 120.0
            },
            {
                "start_time": 2.409090909090909,
                "end_time": 2.6477272727272725,
                "pitch": 77,
                "velocity": 80,
                "duration": 0.2386363636363633,
                "tempo": 120.0
            },
            {
                "start_time": 2.6477272727272725,
                "end_time": 2.7659090909090907,
                "pitch": 65,
                "velocity": 80,
                "duration": 0.11818181818181817,
                "tempo": 120.0
            },
            {
                "start_time": 2.7659090909090907,
                "end_time": 3.0159090909090907,
                "pitch": 70,
                "velocity": 80,
                "duration": 0.25,
                "tempo": 120.0
            },
            {
                "start_time": 3.0159090909090907,
                "end_time": 3.127272727272727,
                "pitch": 65,
                "velocity": 80,
                "duration": 0.11136363636363633,
                "tempo": 120.0
            },
            {
                "start_time": 3.127272727272727,
                "end_time": 3.352272727272727,
                "pitch": 70,
                "velocity": 80,
                "duration": 0.2250000000000001,
                "tempo": 120.0
            },
            {
                "start_time": 3.352272727272727,
                "end_time": 3.609090909090909,
                "pitch": 65,
                "velocity": 80,
                "duration": 0.25681818181818183,
                "tempo": 120.0
            },
            {
                "start_time": 3.609090909090909,
                "end_time": 3.8499999999999996,
                "pitch": 77,
                "velocity": 80,
                "duration": 0.24090909090909074,
                "tempo": 120.0
            },
            {
                "start_time": 3.8499999999999996,
                "end_time": 3.9636363636363634,
                "pitch": 67,
                "velocity": 80,
                "duration": 0.11363636363636376,
                "tempo": 120.0
            },
            {
                "start_time": 3.9636363636363634,
                "end_time": 4.213636363636364,
                "pitch": 72,
                "velocity": 80,
                "duration": 0.25000000000000044,
                "tempo": 120.0
            },
            {
                "start_time": 4.215909090909091,
                "end_time": 4.331818181818182,
                "pitch": 67,
                "velocity": 80,
                "duration": 0.11590909090909118,
                "tempo": 120.0
            },
            {
                "start_time": 4.331818181818182,
                "end_time": 4.570454545454545,
                "pitch": 79,
                "velocity": 80,
                "duration": 0.2386363636363633,
                "tempo": 120.0
            },
            {
                "start_time": 4.570454545454545,
                "end_time": 4.6886363636363635,
                "pitch": 67,
                "velocity": 80,
                "duration": 0.11818181818181817,
                "tempo": 120.0
            },
            {
                "start_time": 4.6909090909090905,
                "end_time": 4.945454545454545,
                "pitch": 72,
                "velocity": 80,
                "duration": 0.25454545454545485,
                "tempo": 120.0
            },
            {
                "start_time": 4.945454545454545,
                "end_time": 5.0613636363636365,
                "pitch": 67,
                "velocity": 80,
                "duration": 0.11590909090909118,
                "tempo": 120.0
            },
            {
                "start_time": 5.0636363636363635,
                "end_time": 5.297727272727273,
                "pitch": 72,
                "velocity": 80,
                "duration": 0.23409090909090935,
                "tempo": 120.0
            },
            {
                "start_time": 5.297727272727273,
                "end_time": 5.545454545454545,
                "pitch": 67,
                "velocity": 80,
                "duration": 0.24772727272727213,
                "tempo": 120.0
            },
            {
                "start_time": 5.545454545454545,
                "end_time": 5.7749999999999995,
                "pitch": 79,
                "velocity": 80,
                "duration": 0.2295454545454545,
                "tempo": 120.0
            },
            {
                "start_time": 5.7749999999999995,
                "end_time": 5.890909090909091,
                "pitch": 67,
                "velocity": 80,
                "duration": 0.11590909090909118,
                "tempo": 120.0
            },
            {
                "start_time": 5.890909090909091,
                "end_time": 6.140909090909091,
                "pitch": 72,
                "velocity": 80,
                "duration": 0.25,
                "tempo": 120.0
            },
            {
                "start_time": 6.140909090909091,
                "end_time": 6.259090909090909,
                "pitch": 67,
                "velocity": 80,
                "duration": 0.11818181818181817,
                "tempo": 120.0
            },
            {
                "start_time": 6.259090909090909,
                "end_time": 6.493181818181818,
                "pitch": 79,
                "velocity": 80,
                "duration": 0.23409090909090935,
                "tempo": 120.0
            },
            {
                "start_time": 6.493181818181818,
                "end_time": 6.627272727272727,
                "pitch": 67,
                "velocity": 80,
                "duration": 0.13409090909090882,
                "tempo": 120.0
            },
            {
                "start_time": 6.627272727272727,
                "end_time": 6.86590909090909,
                "pitch": 72,
                "velocity": 80,
                "duration": 0.2386363636363633,
                "tempo": 120.0
            },
            {
                "start_time": 6.86590909090909,
                "end_time": 6.986363636363636,
                "pitch": 67,
                "velocity": 80,
                "duration": 0.12045454545454604,
                "tempo": 120.0
            },
            {
                "start_time": 6.986363636363636,
                "end_time": 7.24090909090909,
                "pitch": 72,
                "velocity": 80,
                "duration": 0.25454545454545396,
                "tempo": 120.0
            },
            {
                "start_time": 7.243181818181818,
                "end_time": 7.475,
                "pitch": 67,
                "velocity": 80,
                "duration": 0.23181818181818148,
                "tempo": 120.0
            },
            {
                "start_time": 7.475,
                "end_time": 7.711363636363636,
                "pitch": 79,
                "velocity": 80,
                "duration": 0.23636363636363633,
                "tempo": 120.0
            },
            {
                "start_time": 7.711363636363636,
                "end_time": 7.840909090909091,
                "pitch": 65,
                "velocity": 80,
                "duration": 0.12954545454545485,
                "tempo": 120.0
            },
            {
                "start_time": 7.840909090909091,
                "end_time": 8.070454545454545,
                "pitch": 72,
                "velocity": 80,
                "duration": 0.2295454545454545,
                "tempo": 120.0
            },
            {
                "start_time": 8.070454545454545,
                "end_time": 8.184090909090909,
                "pitch": 65,
                "velocity": 80,
                "duration": 0.11363636363636331,
                "tempo": 120.0
            },
            {
                "start_time": 8.186363636363636,
                "end_time": 8.436363636363636,
                "pitch": 77,
                "velocity": 80,
                "duration": 0.25,
                "tempo": 120.0
            },
            {
                "start_time": 8.436363636363636,
                "end_time": 8.552272727272728,
                "pitch": 65,
                "velocity": 80,
                "duration": 0.11590909090909207,
                "tempo": 120.0
            },
            {
                "start_time": 8.552272727272728,
                "end_time": 8.788636363636364,
                "pitch": 72,
                "velocity": 80,
                "duration": 0.23636363636363633,
                "tempo": 120.0
            },
            {
                "start_time": 8.788636363636364,
                "end_time": 8.909090909090908,
                "pitch": 65,
                "velocity": 80,
                "duration": 0.12045454545454426,
                "tempo": 120.0
            },
            {
                "start_time": 8.909090909090908,
                "end_time": 9.165909090909091,
                "pitch": 72,
                "velocity": 80,
                "duration": 0.2568181818181827,
                "tempo": 120.0
            },
            {
                "start_time": 9.165909090909091,
                "end_time": 9.4,
                "pitch": 65,
                "velocity": 80,
                "duration": 0.23409090909090935,
                "tempo": 120.0
            },
            {
                "start_time": 9.4,
                "end_time": 9.654545454545454,
                "pitch": 77,
                "velocity": 80,
                "duration": 0.25454545454545396,
                "tempo": 120.0
            },
            {
                "start_time": 9.654545454545454,
                "end_time": 9.768181818181818,
                "pitch": 65,
                "velocity": 80,
                "duration": 0.11363636363636331,
                "tempo": 120.0
            },
            {
                "start_time": 9.770454545454545,
                "end_time": 10.002272727272727,
                "pitch": 72,
                "velocity": 80,
                "duration": 0.23181818181818237,
                "tempo": 120.0
            },
            {
                "start_time": 10.004545454545454,
                "end_time": 10.120454545454544,
                "pitch": 65,
                "velocity": 80,
                "duration": 0.1159090909090903,
                "tempo": 120.0
            },
            {
                "start_time": 10.120454545454544,
                "end_time": 10.36590909090909,
                "pitch": 77,
                "velocity": 80,
                "duration": 0.24545454545454604,
                "tempo": 120.0
            },
            {
                "start_time": 10.36590909090909,
                "end_time": 10.48181818181818,
                "pitch": 65,
                "velocity": 80,
                "duration": 0.1159090909090903,
                "tempo": 120.0
            },
            {
                "start_time": 10.48181818181818,
                "end_time": 10.713636363636363,
                "pitch": 72,
                "velocity": 80,
                "duration": 0.23181818181818237,
                "tempo": 120.0
            },
            {
                "start_time": 10.713636363636363,
                "end_time": 10.847727272727273,
                "pitch": 65,
                "velocity": 80,
                "duration": 0.1340909090909097,
                "tempo": 120.0
            },
            {
                "start_time": 10.85,
                "end_time": 11.084090909090909,
                "pitch": 72,
                "velocity": 80,
                "duration": 0.23409090909090935,
                "tempo": 120.0
            },
            {
                "start_time": 11.084090909090909,
                "end_time": 11.322727272727272,
                "pitch": 65,
                "velocity": 80,
                "duration": 0.2386363636363633,
                "tempo": 120.0
            },
            {
                "start_time": 11.325,
                "end_time": 11.581818181818182,
                "pitch": 77,
                "velocity": 80,
                "duration": 0.2568181818181827,
                "tempo": 120.0
            },
            {
                "start_time": 11.581818181818182,
                "end_time": 11.695454545454545,
                "pitch": 67,
                "velocity": 80,
                "duration": 0.11363636363636331,
                "tempo": 120.0
            },
            {
                "start_time": 11.695454545454545,
                "end_time": 11.929545454545455,
                "pitch": 74,
                "velocity": 80,
                "duration": 0.23409090909090935,
                "tempo": 120.0
            },
            {
                "start_time": 11.931818181818182,
                "end_time": 12.063636363636363,
                "pitch": 67,
                "velocity": 80,
                "duration": 0.13181818181818095,
                "tempo": 120.0
            },
            {
                "start_time": 12.063636363636363,
                "end_time": 12.302272727272726,
                "pitch": 79,
                "velocity": 80,
                "duration": 0.2386363636363633,
                "tempo": 120.0
            },
            {
                "start_time": 12.304545454545455,
                "end_time": 12.422727272727272,
                "pitch": 67,
                "velocity": 80,
                "duration": 0.11818181818181728,
                "tempo": 120.0
            },
            {
                "start_time": 12.422727272727272,
                "end_time": 12.670454545454545,
                "pitch": 74,
                "velocity": 80,
                "duration": 0.24772727272727302,
                "tempo": 120.0
            },
            {
                "start_time": 12.670454545454545,
                "end_time": 12.781818181818181,
                "pitch": 67,
                "velocity": 80,
                "duration": 0.11136363636363633,
                "tempo": 120.0
            },
            {
                "start_time": 12.784090909090908,
                "end_time": 13.006818181818181,
                "pitch": 74,
                "velocity": 80,
                "duration": 0.22272727272727266,
                "tempo": 120.0
            },
            {
                "start_time": 13.009090909090908,
                "end_time": 13.263636363636364,
                "pitch": 67,
                "velocity": 80,
                "duration": 0.25454545454545574,
                "tempo": 120.0
            },
            {
                "start_time": 13.263636363636364,
                "end_time": 13.504545454545454,
                "pitch": 79,
                "velocity": 80,
                "duration": 0.2409090909090903,
                "tempo": 120.0
            },
            {
                "start_time": 13.504545454545454,
                "end_time": 13.620454545454544,
                "pitch": 67,
                "velocity": 80,
                "duration": 0.1159090909090903,
                "tempo": 120.0
            },
            {
                "start_time": 13.620454545454544,
                "end_time": 13.872727272727271,
                "pitch": 72,
                "velocity": 80,
                "duration": 0.252272727272727,
                "tempo": 120.0
            },
            {
                "start_time": 13.872727272727271,
                "end_time": 13.99090909090909,
                "pitch": 67,
                "velocity": 80,
                "duration": 0.11818181818181905,
                "tempo": 120.0
            },
            {
                "start_time": 13.99090909090909,
                "end_time": 14.229545454545454,
                "pitch": 79,
                "velocity": 80,
                "duration": 0.2386363636363633,
                "tempo": 120.0
            },
            {
                "start_time": 14.229545454545454,
                "end_time": 14.35,
                "pitch": 67,
                "velocity": 80,
                "duration": 0.12045454545454604,
                "tempo": 120.0
            },
            {
                "start_time": 14.35,
                "end_time": 14.604545454545454,
                "pitch": 72,
                "velocity": 80,
                "duration": 0.25454545454545396,
                "tempo": 120.0
            },
            {
                "start_time": 14.604545454545454,
                "end_time": 14.722727272727273,
                "pitch": 67,
                "velocity": 80,
                "duration": 0.11818181818181905,
                "tempo": 120.0
            },
            {
                "start_time": 14.722727272727273,
                "end_time": 14.959090909090909,
                "pitch": 72,
                "velocity": 80,
                "duration": 0.23636363636363633,
                "tempo": 120.0
            },
            {
                "start_time": 14.959090909090909,
                "end_time": 15.204545454545453,
                "pitch": 67,
                "velocity": 80,
                "duration": 0.24545454545454426,
                "tempo": 120.0
            },
            {
                "start_time": 15.204545454545453,
                "end_time": 15.436363636363636,
                "pitch": 79,
                "velocity": 80,
                "duration": 0.23181818181818237,
                "tempo": 120.0
            },
            {
                "start_time": 15.436363636363636,
                "end_time": 15.552272727272726,
                "pitch": 67,
                "velocity": 80,
                "duration": 0.1159090909090903,
                "tempo": 120.0
            },
            {
                "start_time": 15.552272727272726,
                "end_time": 15.804545454545453,
                "pitch": 72,
                "velocity": 80,
                "duration": 0.252272727272727,
                "tempo": 120.0
            },
            {
                "start_time": 15.804545454545453,
                "end_time": 15.922727272727272,
                "pitch": 67,
                "velocity": 80,
                "duration": 0.11818181818181905,
                "tempo": 120.0
            },
            {
                "start_time": 15.922727272727272,
                "end_time": 16.161363636363635,
                "pitch": 79,
                "velocity": 80,
                "duration": 0.2386363636363633,
                "tempo": 120.0
            },
            {
                "start_time": 16.161363636363635,
                "end_time": 16.297727272727272,
                "pitch": 67,
                "velocity": 80,
                "duration": 0.1363636363636367,
                "tempo": 120.0
            },
            {
                "start_time": 16.297727272727272,
                "end_time": 16.536363636363635,
                "pitch": 72,
                "velocity": 80,
                "duration": 0.2386363636363633,
                "tempo": 120.0
            },
            {
                "start_time": 16.536363636363635,
                "end_time": 16.652272727272727,
                "pitch": 67,
                "velocity": 80,
                "duration": 0.11590909090909207,
                "tempo": 120.0
            },
            {
                "start_time": 16.654545454545453,
                "end_time": 16.90681818181818,
                "pitch": 72,
                "velocity": 80,
                "duration": 0.25227272727272876,
                "tempo": 120.0
            },
            {
                "start_time": 16.90681818181818,
                "end_time": 17.145454545454545,
                "pitch": 67,
                "velocity": 80,
                "duration": 0.2386363636363633,
                "tempo": 120.0
            },
            {
                "start_time": 17.145454545454545,
                "end_time": 17.386363636363637,
                "pitch": 79,
                "velocity": 80,
                "duration": 0.24090909090909207,
                "tempo": 120.0
            },
            {
                "start_time": 17.386363636363637,
                "end_time": 17.511363636363637,
                "pitch": 64,
                "velocity": 80,
                "duration": 0.125,
                "tempo": 120.0
            },
            {
                "start_time": 17.511363636363637,
                "end_time": 17.736363636363635,
                "pitch": 71,
                "velocity": 80,
                "duration": 0.22499999999999787,
                "tempo": 120.0
            },
            {
                "start_time": 17.736363636363635,
                "end_time": 17.849999999999998,
                "pitch": 64,
                "velocity": 80,
                "duration": 0.11363636363636331,
                "tempo": 120.0
            },
            {
                "start_time": 17.849999999999998,
                "end_time": 18.104545454545455,
                "pitch": 76,
                "velocity": 80,
                "duration": 0.2545454545454575,
                "tempo": 120.0
            },
            {
                "start_time": 18.10681818181818,
                "end_time": 18.224999999999998,
                "pitch": 64,
                "velocity": 80,
                "duration": 0.11818181818181728,
                "tempo": 120.0
            },
            {
                "start_time": 18.224999999999998,
                "end_time": 18.46363636363636,
                "pitch": 71,
                "velocity": 80,
                "duration": 0.2386363636363633,
                "tempo": 120.0
            },
            {
                "start_time": 18.46363636363636,
                "end_time": 18.579545454545453,
                "pitch": 64,
                "velocity": 80,
                "duration": 0.11590909090909207,
                "tempo": 120.0
            },
            {
                "start_time": 18.579545454545453,
                "end_time": 18.831818181818182,
                "pitch": 71,
                "velocity": 80,
                "duration": 0.25227272727272876,
                "tempo": 120.0
            },
            {
                "start_time": 18.834090909090907,
                "end_time": 19.068181818181817,
                "pitch": 64,
                "velocity": 80,
                "duration": 0.23409090909090935,
                "tempo": 120.0
            },
            {
                "start_time": 19.068181818181817,
                "end_time": 19.32272727272727,
                "pitch": 76,
                "velocity": 80,
                "duration": 0.25454545454545396,
                "tempo": 120.0
            },
            {
                "start_time": 19.32272727272727,
                "end_time": 19.438636363636363,
                "pitch": 64,
                "velocity": 80,
                "duration": 0.11590909090909207,
                "tempo": 120.0
            },
            {
                "start_time": 19.44090909090909,
                "end_time": 19.679545454545455,
                "pitch": 69,
                "velocity": 80,
                "duration": 0.2386363636363633,
                "tempo": 120.0
            },
            {
                "start_time": 19.679545454545455,
                "end_time": 19.797727272727272,
                "pitch": 64,
                "velocity": 80,
                "duration": 0.11818181818181728,
                "tempo": 120.0
            },
            {
                "start_time": 19.8,
                "end_time": 20.045454545454543,
                "pitch": 76,
                "velocity": 80,
                "duration": 0.24545454545454248,
                "tempo": 120.0
            },
            {
                "start_time": 20.045454545454543,
                "end_time": 20.161363636363635,
                "pitch": 64,
                "velocity": 80,
                "duration": 0.11590909090909207,
                "tempo": 120.0
            },
            {
                "start_time": 20.161363636363635,
                "end_time": 20.393181818181816,
                "pitch": 69,
                "velocity": 80,
                "duration": 0.2318181818181806,
                "tempo": 120.0
            },
            {
                "start_time": 20.393181818181816,
                "end_time": 20.527272727272727,
                "pitch": 64,
                "velocity": 80,
                "duration": 0.13409090909091148,
                "tempo": 120.0
            },
            {
                "start_time": 20.527272727272727,
                "end_time": 20.763636363636362,
                "pitch": 69,
                "velocity": 80,
                "duration": 0.23636363636363455,
                "tempo": 120.0
            },
            {
                "start_time": 20.763636363636362,
                "end_time": 21.0,
                "pitch": 64,
                "velocity": 80,
                "duration": 0.2363636363636381,
                "tempo": 120.0
            },
            {
                "start_time": 21.0,
                "end_time": 21.252272727272725,
                "pitch": 76,
                "velocity": 80,
                "duration": 0.2522727272727252,
                "tempo": 120.0
            },
            {
                "start_time": 21.252272727272725,
                "end_time": 21.370454545454546,
                "pitch": 66,
                "velocity": 80,
                "duration": 0.11818181818182083,
                "tempo": 120.0
            },
            {
                "start_time": 21.370454545454546,
                "end_time": 21.611363636363635,
                "pitch": 71,
                "velocity": 80,
                "duration": 0.24090909090908852,
                "tempo": 120.0
            },
            {
                "start_time": 21.611363636363635,
                "end_time": 21.74772727272727,
                "pitch": 66,
                "velocity": 80,
                "duration": 0.1363636363636367,
                "tempo": 120.0
            },
            {
                "start_time": 21.74772727272727,
                "end_time": 21.98181818181818,
                "pitch": 78,
                "velocity": 80,
                "duration": 0.23409090909090935,
                "tempo": 120.0
            },
            {
                "start_time": 21.98181818181818,
                "end_time": 22.099999999999998,
                "pitch": 66,
                "velocity": 80,
                "duration": 0.11818181818181728,
                "tempo": 120.0
            },
            {
                "start_time": 22.099999999999998,
                "end_time": 22.349999999999998,
                "pitch": 71,
                "velocity": 80,
                "duration": 0.25,
                "tempo": 120.0
            },
            {
                "start_time": 22.349999999999998,
                "end_time": 22.46363636363636,
                "pitch": 66,
                "velocity": 80,
                "duration": 0.11363636363636331,
                "tempo": 120.0
            },
            {
                "start_time": 22.46363636363636,
                "end_time": 22.695454545454545,
                "pitch": 71,
                "velocity": 80,
                "duration": 0.23181818181818414,
                "tempo": 120.0
            },
            {
                "start_time": 22.695454545454545,
                "end_time": 22.94772727272727,
                "pitch": 66,
                "velocity": 80,
                "duration": 0.2522727272727252,
                "tempo": 120.0
            },
            {
                "start_time": 22.94772727272727,
                "end_time": 23.18409090909091,
                "pitch": 78,
                "velocity": 80,
                "duration": 0.2363636363636381,
                "tempo": 120.0
            },
            {
                "start_time": 23.18409090909091,
                "end_time": 23.299999999999997,
                "pitch": 66,
                "velocity": 80,
                "duration": 0.11590909090908852,
                "tempo": 120.0
            },
            {
                "start_time": 23.299999999999997,
                "end_time": 23.552272727272726,
                "pitch": 71,
                "velocity": 80,
                "duration": 0.25227272727272876,
                "tempo": 120.0
            },
            {
                "start_time": 23.552272727272726,
                "end_time": 23.670454545454543,
                "pitch": 66,
                "velocity": 80,
                "duration": 0.11818181818181728,
                "tempo": 120.0
            },
            {
                "start_time": 23.670454545454543,
                "end_time": 23.909090909090907,
                "pitch": 78,
                "velocity": 80,
                "duration": 0.2386363636363633,
                "tempo": 120.0
            },
            {
                "start_time": 23.909090909090907,
                "end_time": 24.029545454545453,
                "pitch": 66,
                "velocity": 80,
                "duration": 0.12045454545454604,
                "tempo": 120.0
            },
            {
                "start_time": 24.029545454545453,
                "end_time": 24.284090909090907,
                "pitch": 71,
                "velocity": 80,
                "duration": 0.25454545454545396,
                "tempo": 120.0
            },
            {
                "start_time": 24.284090909090907,
                "end_time": 24.402272727272727,
                "pitch": 66,
                "velocity": 80,
                "duration": 0.11818181818182083,
                "tempo": 120.0
            },
            {
                "start_time": 24.402272727272727,
                "end_time": 24.636363636363637,
                "pitch": 71,
                "velocity": 80,
                "duration": 0.23409090909090935,
                "tempo": 120.0
            },
            {
                "start_time": 24.636363636363637,
                "end_time": 24.884090909090908,
                "pitch": 66,
                "velocity": 80,
                "duration": 0.24772727272727124,
                "tempo": 120.0
            },
            {
                "start_time": 24.884090909090908,
                "end_time": 25.11590909090909,
                "pitch": 78,
                "velocity": 80,
                "duration": 0.2318181818181806,
                "tempo": 120.0
            },
            {
                "start_time": 25.11590909090909,
                "end_time": 25.229545454545452,
                "pitch": 64,
                "velocity": 80,
                "duration": 0.11363636363636331,
                "tempo": 120.0
            },
            {
                "start_time": 25.229545454545452,
                "end_time": 25.479545454545452,
                "pitch": 71,
                "velocity": 80,
                "duration": 0.25,
                "tempo": 120.0
            },
            {
                "start_time": 25.479545454545452,
                "end_time": 25.597727272727273,
                "pitch": 64,
                "velocity": 80,
                "duration": 0.11818181818182083,
                "tempo": 120.0
            },
            {
                "start_time": 25.597727272727273,
                "end_time": 25.836363636363636,
                "pitch": 76,
                "velocity": 80,
                "duration": 0.2386363636363633,
                "tempo": 120.0
            },
            {
                "start_time": 25.836363636363636,
                "end_time": 25.972727272727273,
                "pitch": 64,
                "velocity": 80,
                "duration": 0.1363636363636367,
                "tempo": 120.0
            },
            {
                "start_time": 25.972727272727273,
                "end_time": 26.211363636363636,
                "pitch": 71,
                "velocity": 80,
                "duration": 0.2386363636363633,
                "tempo": 120.0
            },
            {
                "start_time": 26.211363636363636,
                "end_time": 26.327272727272724,
                "pitch": 64,
                "velocity": 80,
                "duration": 0.11590909090908852,
                "tempo": 120.0
            },
            {
                "start_time": 26.329545454545453,
                "end_time": 26.581818181818182,
                "pitch": 71,
                "velocity": 80,
                "duration": 0.25227272727272876,
                "tempo": 120.0
            },
            {
                "start_time": 26.581818181818182,
                "end_time": 26.820454545454545,
                "pitch": 64,
                "velocity": 80,
                "duration": 0.2386363636363633,
                "tempo": 120.0
            },
            {
                "start_time": 26.820454545454545,
                "end_time": 27.061363636363634,
                "pitch": 76,
                "velocity": 80,
                "duration": 0.24090909090908852,
                "tempo": 120.0
            },
            {
                "start_time": 27.061363636363634,
                "end_time": 27.186363636363634,
                "pitch": 64,
                "velocity": 80,
                "duration": 0.125,
                "tempo": 120.0
            },
            {
                "start_time": 27.186363636363634,
                "end_time": 27.411363636363635,
                "pitch": 71,
                "velocity": 80,
                "duration": 0.22500000000000142,
                "tempo": 120.0
            },
            {
                "start_time": 27.411363636363635,
                "end_time": 27.525,
                "pitch": 64,
                "velocity": 80,
                "duration": 0.11363636363636331,
                "tempo": 120.0
            },
            {
                "start_time": 27.525,
                "end_time": 27.779545454545453,
                "pitch": 76,
                "velocity": 80,
                "duration": 0.25454545454545396,
                "tempo": 120.0
            },
            {
                "start_time": 27.78181818181818,
                "end_time": 27.9,
                "pitch": 64,
                "velocity": 80,
                "duration": 0.11818181818181728,
                "tempo": 120.0
            },
            {
                "start_time": 27.9,
                "end_time": 28.138636363636362,
                "pitch": 71,
                "velocity": 80,
                "duration": 0.2386363636363633,
                "tempo": 120.0
            },
            {
                "start_time": 28.138636363636362,
                "end_time": 28.254545454545454,
                "pitch": 64,
                "velocity": 80,
                "duration": 0.11590909090909207,
                "tempo": 120.0
            },
            {
                "start_time": 28.254545454545454,
                "end_time": 28.50681818181818,
                "pitch": 71,
                "velocity": 80,
                "duration": 0.2522727272727252,
                "tempo": 120.0
            },
            {
                "start_time": 28.509090909090908,
                "end_time": 28.743181818181817,
                "pitch": 64,
                "velocity": 80,
                "duration": 0.23409090909090935,
                "tempo": 120.0
            },
            {
                "start_time": 28.743181818181817,
                "end_time": 28.99772727272727,
                "pitch": 76,
                "velocity": 80,
                "duration": 0.25454545454545396,
                "tempo": 120.0
            },
            {
                "start_time": 28.99772727272727,
                "end_time": 29.113636363636363,
                "pitch": 66,
                "velocity": 80,
                "duration": 0.11590909090909207,
                "tempo": 120.0
            },
            {
                "start_time": 29.11590909090909,
                "end_time": 29.354545454545452,
                "pitch": 73,
                "velocity": 80,
                "duration": 0.2386363636363633,
                "tempo": 120.0
            },
            {
                "start_time": 29.354545454545452,
                "end_time": 29.474999999999998,
                "pitch": 66,
                "velocity": 80,
                "duration": 0.12045454545454604,
                "tempo": 120.0
            },
            {
                "start_time": 29.474999999999998,
                "end_time": 29.720454545454544,
                "pitch": 78,
                "velocity": 80,
                "duration": 0.24545454545454604,
                "tempo": 120.0
            },
            {
                "start_time": 29.720454545454544,
                "end_time": 29.836363636363636,
                "pitch": 66,
                "velocity": 80,
                "duration": 0.11590909090909207,
                "tempo": 120.0
            },
            {
                "start_time": 29.836363636363636,
                "end_time": 30.068181818181817,
                "pitch": 73,
                "velocity": 80,
                "duration": 0.2318181818181806,
                "tempo": 120.0
            },
            {
                "start_time": 30.068181818181817,
                "end_time": 30.202272727272724,
                "pitch": 66,
                "velocity": 80,
                "duration": 0.13409090909090793,
                "tempo": 120.0
            },
            {
                "start_time": 30.202272727272724,
                "end_time": 30.438636363636363,
                "pitch": 73,
                "velocity": 80,
                "duration": 0.2363636363636381,
                "tempo": 120.0
            },
            {
                "start_time": 30.438636363636363,
                "end_time": 30.674999999999997,
                "pitch": 66,
                "velocity": 80,
                "duration": 0.23636363636363455,
                "tempo": 120.0
            },
            {
                "start_time": 30.674999999999997,
                "end_time": 30.927272727272726,
                "pitch": 78,
                "velocity": 80,
                "duration": 0.25227272727272876,
                "tempo": 120.0
            },
            {
                "start_time": 30.927272727272726,
                "end_time": 31.045454545454543,
                "pitch": 66,
                "velocity": 80,
                "duration": 0.11818181818181728,
                "tempo": 120.0
            },
            {
                "start_time": 31.045454545454543,
                "end_time": 31.286363636363635,
                "pitch": 71,
                "velocity": 80,
                "duration": 0.24090909090909207,
                "tempo": 120.0
            },
            {
                "start_time": 31.286363636363635,
                "end_time": 31.422727272727272,
                "pitch": 66,
                "velocity": 80,
                "duration": 0.1363636363636367,
                "tempo": 120.0
            },
            {
                "start_time": 31.422727272727272,
                "end_time": 31.65681818181818,
                "pitch": 78,
                "velocity": 80,
                "duration": 0.23409090909090935,
                "tempo": 120.0
            },
            {
                "start_time": 31.65681818181818,
                "end_time": 31.775,
                "pitch": 66,
                "velocity": 80,
                "duration": 0.11818181818181728,
                "tempo": 120.0
            },
            {
                "start_time": 31.775,
                "end_time": 32.025,
                "pitch": 71,
                "velocity": 80,
                "duration": 0.25,
                "tempo": 120.0
            },
            {
                "start_time": 32.025,
                "end_time": 32.138636363636365,
                "pitch": 66,
                "velocity": 80,
                "duration": 0.11363636363636687,
                "tempo": 120.0
            },
            {
                "start_time": 32.138636363636365,
                "end_time": 32.37045454545454,
                "pitch": 71,
                "velocity": 80,
                "duration": 0.23181818181817704,
                "tempo": 120.0
            },
            {
                "start_time": 32.37045454545454,
                "end_time": 32.62272727272727,
                "pitch": 66,
                "velocity": 80,
                "duration": 0.2522727272727252,
                "tempo": 120.0
            },
            {
                "start_time": 32.62272727272727,
                "end_time": 32.85909090909091,
                "pitch": 78,
                "velocity": 80,
                "duration": 0.23636363636364166,
                "tempo": 120.0
            },
            {
                "start_time": 32.85909090909091,
                "end_time": 32.97727272727273,
                "pitch": 66,
                "velocity": 80,
                "duration": 0.11818181818181728,
                "tempo": 120.0
            },
            {
                "start_time": 32.97727272727273,
                "end_time": 33.23409090909091,
                "pitch": 71,
                "velocity": 80,
                "duration": 0.2568181818181827,
                "tempo": 120.0
            },
            {
                "start_time": 33.23409090909091,
                "end_time": 33.35227272727273,
                "pitch": 66,
                "velocity": 80,
                "duration": 0.11818181818181728,
                "tempo": 120.0
            },
            {
                "start_time": 33.35227272727273,
                "end_time": 33.58863636363636,
                "pitch": 78,
                "velocity": 80,
                "duration": 0.23636363636363455,
                "tempo": 120.0
            },
            {
                "start_time": 33.58863636363636,
                "end_time": 33.70681818181818,
                "pitch": 66,
                "velocity": 80,
                "duration": 0.11818181818181728,
                "tempo": 120.0
            },
            {
                "start_time": 33.70681818181818,
                "end_time": 33.95681818181818,
                "pitch": 71,
                "velocity": 80,
                "duration": 0.25,
                "tempo": 120.0
            },
            {
                "start_time": 33.95909090909091,
                "end_time": 34.074999999999996,
                "pitch": 66,
                "velocity": 80,
                "duration": 0.11590909090908497,
                "tempo": 120.0
            },
            {
                "start_time": 34.074999999999996,
                "end_time": 34.309090909090905,
                "pitch": 71,
                "velocity": 80,
                "duration": 0.23409090909090935,
                "tempo": 120.0
            },
            {
                "start_time": 34.309090909090905,
                "end_time": 34.56136363636364,
                "pitch": 66,
                "velocity": 80,
                "duration": 0.2522727272727323,
                "tempo": 120.0
            },
            {
                "start_time": 34.56136363636364,
                "end_time": 34.79772727272727,
                "pitch": 78,
                "velocity": 80,
                "duration": 0.23636363636363455,
                "tempo": 120.0
            },
            {
                "start_time": 34.79772727272727,
                "end_time": 35.04545454545455,
                "pitch": 79,
                "velocity": 51,
                "duration": 0.2477272727272748,
                "tempo": 120.0
            },
            {
                "start_time": 35.04772727272727,
                "end_time": 35.163636363636364,
                "pitch": 67,
                "velocity": 51,
                "duration": 0.11590909090909207,
                "tempo": 120.0
            },
            {
                "start_time": 35.163636363636364,
                "end_time": 35.39545454545454,
                "pitch": 74,
                "velocity": 51,
                "duration": 0.23181818181817704,
                "tempo": 120.0
            },
            {
                "start_time": 35.39545454545454,
                "end_time": 35.51590909090909,
                "pitch": 67,
                "velocity": 51,
                "duration": 0.12045454545454959,
                "tempo": 120.0
            },
            {
                "start_time": 35.51590909090909,
                "end_time": 35.768181818181816,
                "pitch": 79,
                "velocity": 51,
                "duration": 0.2522727272727252,
                "tempo": 120.0
            },
            {
                "start_time": 35.768181818181816,
                "end_time": 35.88409090909091,
                "pitch": 67,
                "velocity": 51,
                "duration": 0.11590909090909207,
                "tempo": 120.0
            },
            {
                "start_time": 35.88409090909091,
                "end_time": 36.11818181818182,
                "pitch": 74,
                "velocity": 51,
                "duration": 0.23409090909090935,
                "tempo": 120.0
            },
            {
                "start_time": 36.11818181818182,
                "end_time": 36.252272727272725,
                "pitch": 67,
                "velocity": 51,
                "duration": 0.13409090909090793,
                "tempo": 120.0
            },
            {
                "start_time": 36.252272727272725,
                "end_time": 36.49090909090909,
                "pitch": 74,
                "velocity": 51,
                "duration": 0.23863636363636687,
                "tempo": 120.0
            },
            {
                "start_time": 36.49090909090909,
                "end_time": 36.73181818181818,
                "pitch": 67,
                "velocity": 51,
                "duration": 0.24090909090908497,
                "tempo": 120.0
            },
            {
                "start_time": 36.73181818181818,
                "end_time": 36.97727272727273,
                "pitch": 79,
                "velocity": 51,
                "duration": 0.2454545454545496,
                "tempo": 120.0
            },
            {
                "start_time": 36.97727272727273,
                "end_time": 37.090909090909086,
                "pitch": 67,
                "velocity": 51,
                "duration": 0.11363636363635976,
                "tempo": 120.0
            },
            {
                "start_time": 37.090909090909086,
                "end_time": 37.32272727272727,
                "pitch": 74,
                "velocity": 51,
                "duration": 0.23181818181818414,
                "tempo": 120.0
            },
            {
                "start_time": 37.32272727272727,
                "end_time": 37.45909090909091,
                "pitch": 67,
                "velocity": 51,
                "duration": 0.13636363636364024,
                "tempo": 120.0
            },
            {
                "start_time": 37.45909090909091,
                "end_time": 37.69090909090909,
                "pitch": 79,
                "velocity": 51,
                "duration": 0.23181818181817704,
                "tempo": 120.0
            },
            {
                "start_time": 37.69090909090909,
                "end_time": 37.809090909090905,
                "pitch": 67,
                "velocity": 51,
                "duration": 0.11818181818181728,
                "tempo": 120.0
            },
            {
                "start_time": 37.809090909090905,
                "end_time": 38.059090909090905,
                "pitch": 74,
                "velocity": 51,
                "duration": 0.25,
                "tempo": 120.0
            },
            {
                "start_time": 38.06136363636364,
                "end_time": 38.179545454545455,
                "pitch": 67,
                "velocity": 51,
                "duration": 0.11818181818181728,
                "tempo": 120.0
            },
            {
                "start_time": 38.179545454545455,
                "end_time": 38.418181818181814,
                "pitch": 74,
                "velocity": 51,
                "duration": 0.23863636363635976,
                "tempo": 120.0
            },
            {
                "start_time": 38.418181818181814,
                "end_time": 38.67727272727272,
                "pitch": 67,
                "velocity": 51,
                "duration": 0.25909090909090793,
                "tempo": 120.0
            },
            {
                "start_time": 38.67727272727272,
                "end_time": 38.90909090909091,
                "pitch": 79,
                "velocity": 51,
                "duration": 0.23181818181818414,
                "tempo": 120.0
            },
            {
                "start_time": 38.91136363636363,
                "end_time": 39.027272727272724,
                "pitch": 67,
                "velocity": 51,
                "duration": 0.11590909090909207,
                "tempo": 120.0
            },
            {
                "start_time": 39.027272727272724,
                "end_time": 39.275,
                "pitch": 74,
                "velocity": 51,
                "duration": 0.2477272727272748,
                "tempo": 120.0
            },
            {
                "start_time": 39.275,
                "end_time": 39.393181818181816,
                "pitch": 67,
                "velocity": 51,
                "duration": 0.11818181818181728,
                "tempo": 120.0
            },
            {
                "start_time": 39.393181818181816,
                "end_time": 39.62045454545454,
                "pitch": 79,
                "velocity": 51,
                "duration": 0.22727272727272663,
                "tempo": 120.0
            },
            {
                "start_time": 39.62272727272727,
                "end_time": 39.73863636363636,
                "pitch": 67,
                "velocity": 51,
                "duration": 0.11590909090909207,
                "tempo": 120.0
            },
            {
                "start_time": 39.73863636363636,
                "end_time": 39.98863636363636,
                "pitch": 74,
                "velocity": 51,
                "duration": 0.25,
                "tempo": 120.0
            },
            {
                "start_time": 39.98863636363636,
                "end_time": 40.10681818181818,
                "pitch": 67,
                "velocity": 51,
                "duration": 0.11818181818181728,
                "tempo": 120.0
            },
            {
                "start_time": 40.10681818181818,
                "end_time": 40.345454545454544,
                "pitch": 74,
                "velocity": 51,
                "duration": 0.23863636363636687,
                "tempo": 120.0
            },
            {
                "start_time": 40.345454545454544,
                "end_time": 40.60227272727273,
                "pitch": 67,
                "velocity": 51,
                "duration": 0.2568181818181827,
                "tempo": 120.0
            },
            {
                "start_time": 40.60227272727273,
                "end_time": 40.836363636363636,
                "pitch": 79,
                "velocity": 51,
                "duration": 0.23409090909090935,
                "tempo": 120.0
            },
            {
                "start_time": 40.836363636363636,
                "end_time": 40.95454545454545,
                "pitch": 67,
                "velocity": 51,
                "duration": 0.11818181818181728,
                "tempo": 120.0
            },
            {
                "start_time": 40.95454545454545,
                "end_time": 41.20454545454545,
                "pitch": 74,
                "velocity": 51,
                "duration": 0.25,
                "tempo": 120.0
            },
            {
                "start_time": 41.20454545454545,
                "end_time": 41.324999999999996,
                "pitch": 67,
                "velocity": 51,
                "duration": 0.12045454545454248,
                "tempo": 120.0
            },
            {
                "start_time": 41.324999999999996,
                "end_time": 41.55681818181818,
                "pitch": 79,
                "velocity": 51,
                "duration": 0.23181818181818414,
                "tempo": 120.0
            },
            {
                "start_time": 41.55681818181818,
                "end_time": 41.68636363636364,
                "pitch": 67,
                "velocity": 51,
                "duration": 0.12954545454545752,
                "tempo": 120.0
            },
            {
                "start_time": 41.68863636363636,
                "end_time": 41.91590909090909,
                "pitch": 74,
                "velocity": 51,
                "duration": 0.22727272727272663,
                "tempo": 120.0
            },
            {
                "start_time": 41.91590909090909,
                "end_time": 42.03409090909091,
                "pitch": 67,
                "velocity": 51,
                "duration": 0.11818181818181728,
                "tempo": 120.0
            },
            {
                "start_time": 42.03409090909091,
                "end_time": 42.288636363636364,
                "pitch": 74,
                "velocity": 51,
                "duration": 0.2545454545454575,
                "tempo": 120.0
            },
            {
                "start_time": 42.29090909090909,
                "end_time": 42.52954545454545,
                "pitch": 67,
                "velocity": 51,
                "duration": 0.23863636363635976,
                "tempo": 120.0
            },
            {
                "start_time": 42.52954545454545,
                "end_time": 42.76136363636363,
                "pitch": 79,
                "velocity": 51,
                "duration": 0.23181818181818414,
                "tempo": 120.0
            },
            {
                "start_time": 42.76136363636363,
                "end_time": 42.89545454545454,
                "pitch": 67,
                "velocity": 51,
                "duration": 0.13409090909090793,
                "tempo": 120.0
            },
            {
                "start_time": 42.89545454545454,
                "end_time": 43.127272727272725,
                "pitch": 74,
                "velocity": 51,
                "duration": 0.23181818181818414,
                "tempo": 120.0
            },
            {
                "start_time": 43.12954545454545,
                "end_time": 43.24772727272727,
                "pitch": 67,
                "velocity": 51,
                "duration": 0.11818181818181728,
                "tempo": 120.0
            },
            {
                "start_time": 43.24772727272727,
                "end_time": 43.5,
                "pitch": 79,
                "velocity": 51,
                "duration": 0.2522727272727323,
                "tempo": 120.0
            },
            {
                "start_time": 43.5,
                "end_time": 43.61818181818182,
                "pitch": 67,
                "velocity": 51,
                "duration": 0.11818181818181728,
                "tempo": 120.0
            },
            {
                "start_time": 43.62045454545454,
                "end_time": 43.85909090909091,
                "pitch": 74,
                "velocity": 51,
                "duration": 0.23863636363636687,
                "tempo": 120.0
            },
            {
                "start_time": 43.85909090909091,
                "end_time": 43.97954545454545,
                "pitch": 67,
                "velocity": 51,
                "duration": 0.12045454545454248,
                "tempo": 120.0
            },
            {
                "start_time": 43.97954545454545,
                "end_time": 44.224999999999994,
                "pitch": 74,
                "velocity": 51,
                "duration": 0.24545454545454248,
                "tempo": 120.0
            },
            {
                "start_time": 44.224999999999994,
                "end_time": 44.45681818181818,
                "pitch": 67,
                "velocity": 51,
                "duration": 0.23181818181818414,
                "tempo": 120.0
            },
            {
                "start_time": 44.45681818181818,
                "end_time": 44.70454545454545,
                "pitch": 79,
                "velocity": 51,
                "duration": 0.2477272727272748,
                "tempo": 120.0
            },
            {
                "start_time": 44.70681818181818,
                "end_time": 44.82272727272727,
                "pitch": 67,
                "velocity": 51,
                "duration": 0.11590909090909207,
                "tempo": 120.0
            },
            {
                "start_time": 44.82272727272727,
                "end_time": 45.054545454545455,
                "pitch": 74,
                "velocity": 51,
                "duration": 0.23181818181818414,
                "tempo": 120.0
            },
            {
                "start_time": 45.054545454545455,
                "end_time": 45.175,
                "pitch": 67,
                "velocity": 51,
                "duration": 0.12045454545454248,
                "tempo": 120.0
            },
            {
                "start_time": 45.175,
                "end_time": 45.42727272727272,
                "pitch": 79,
                "velocity": 51,
                "duration": 0.2522727272727252,
                "tempo": 120.0
            },
            {
                "start_time": 45.42727272727272,
                "end_time": 45.543181818181814,
                "pitch": 67,
                "velocity": 51,
                "duration": 0.11590909090909207,
                "tempo": 120.0
            },
            {
                "start_time": 45.543181818181814,
                "end_time": 45.777272727272724,
                "pitch": 74,
                "velocity": 51,
                "duration": 0.23409090909090935,
                "tempo": 120.0
            },
            {
                "start_time": 45.777272727272724,
                "end_time": 45.91136363636363,
                "pitch": 67,
                "velocity": 51,
                "duration": 0.13409090909090793,
                "tempo": 120.0
            },
            {
                "start_time": 45.913636363636364,
                "end_time": 46.15,
                "pitch": 74,
                "velocity": 51,
                "duration": 0.23636363636363455,
                "tempo": 120.0
            },
            {
                "start_time": 46.15,
                "end_time": 46.39090909090909,
                "pitch": 67,
                "velocity": 51,
                "duration": 0.24090909090909207,
                "tempo": 120.0
            },
            {
                "start_time": 46.39090909090909,
                "end_time": 46.63636363636363,
                "pitch": 79,
                "velocity": 51,
                "duration": 0.24545454545454248,
                "tempo": 120.0
            },
            {
                "start_time": 46.63636363636363,
                "end_time": 46.75,
                "pitch": 67,
                "velocity": 51,
                "duration": 0.11363636363636687,
                "tempo": 120.0
            },
            {
                "start_time": 46.75,
                "end_time": 46.98181818181818,
                "pitch": 74,
                "velocity": 51,
                "duration": 0.23181818181817704,
                "tempo": 120.0
            },
            {
                "start_time": 46.98181818181818,
                "end_time": 47.11818181818182,
                "pitch": 67,
                "velocity": 51,
                "duration": 0.13636363636364024,
                "tempo": 120.0
            },
            {
                "start_time": 47.11818181818182,
                "end_time": 47.349999999999994,
                "pitch": 79,
                "velocity": 51,
                "duration": 0.23181818181817704,
                "tempo": 120.0
            },
            {
                "start_time": 47.349999999999994,
                "end_time": 47.46818181818182,
                "pitch": 67,
                "velocity": 51,
                "duration": 0.11818181818182438,
                "tempo": 120.0
            },
            {
                "start_time": 47.46818181818182,
                "end_time": 47.71818181818182,
                "pitch": 74,
                "velocity": 51,
                "duration": 0.25,
                "tempo": 120.0
            },
            {
                "start_time": 47.71818181818182,
                "end_time": 47.83863636363636,
                "pitch": 67,
                "velocity": 51,
                "duration": 0.12045454545454248,
                "tempo": 120.0
            },
            {
                "start_time": 47.83863636363636,
                "end_time": 48.07727272727273,
                "pitch": 74,
                "velocity": 51,
                "duration": 0.23863636363636687,
                "tempo": 120.0
            },
            {
                "start_time": 48.07727272727273,
                "end_time": 48.334090909090904,
                "pitch": 67,
                "velocity": 51,
                "duration": 0.2568181818181756,
                "tempo": 120.0
            },
            {
                "start_time": 48.334090909090904,
                "end_time": 48.56590909090909,
                "pitch": 79,
                "velocity": 51,
                "duration": 0.23181818181818414,
                "tempo": 120.0
            },
            {
                "start_time": 48.56818181818181,
                "end_time": 48.684090909090905,
                "pitch": 67,
                "velocity": 51,
                "duration": 0.11590909090909207,
                "tempo": 120.0
            },
            {
                "start_time": 48.684090909090905,
                "end_time": 48.929545454545455,
                "pitch": 74,
                "velocity": 51,
                "duration": 0.2454545454545496,
                "tempo": 120.0
            },
            {
                "start_time": 48.929545454545455,
                "end_time": 49.04772727272727,
                "pitch": 67,
                "velocity": 51,
                "duration": 0.11818181818181728,
                "tempo": 120.0
            },
            {
                "start_time": 49.04772727272727,
                "end_time": 49.277272727272724,
                "pitch": 79,
                "velocity": 51,
                "duration": 0.22954545454545183,
                "tempo": 120.0
            },
            {
                "start_time": 49.277272727272724,
                "end_time": 49.39545454545454,
                "pitch": 67,
                "velocity": 51,
                "duration": 0.11818181818181728,
                "tempo": 120.0
            },
            {
                "start_time": 49.39545454545454,
                "end_time": 49.64545454545454,
                "pitch": 74,
                "velocity": 51,
                "duration": 0.25,
                "tempo": 120.0
            },
            {
                "start_time": 49.64545454545454,
                "end_time": 49.76590909090909,
                "pitch": 67,
                "velocity": 51,
                "duration": 0.12045454545454959,
                "tempo": 120.0
            },
            {
                "start_time": 49.76590909090909,
                "end_time": 50.00454545454545,
                "pitch": 74,
                "velocity": 51,
                "duration": 0.23863636363635976,
                "tempo": 120.0
            },
            {
                "start_time": 50.00454545454545,
                "end_time": 50.26363636363636,
                "pitch": 67,
                "velocity": 51,
                "duration": 0.25909090909090793,
                "tempo": 120.0
            },
            {
                "start_time": 50.26363636363636,
                "end_time": 50.377272727272725,
                "pitch": 65,
                "velocity": 80,
                "duration": 0.11363636363636687,
                "tempo": 120.0
            },
            {
                "start_time": 50.377272727272725,
                "end_time": 50.61363636363636,
                "pitch": 72,
                "velocity": 80,
                "duration": 0.23636363636363455,
                "tempo": 120.0
            },
            {
                "start_time": 50.61363636363636,
                "end_time": 50.74772727272727,
                "pitch": 65,
                "velocity": 80,
                "duration": 0.13409090909090793,
                "tempo": 120.0
            },
            {
                "start_time": 50.75,
                "end_time": 50.98863636363636,
                "pitch": 77,
                "velocity": 80,
                "duration": 0.23863636363635976,
                "tempo": 120.0
            },
            {
                "start_time": 50.98863636363636,
                "end_time": 51.10681818181818,
                "pitch": 65,
                "velocity": 80,
                "duration": 0.11818181818181728,
                "tempo": 120.0
            },
            {
                "start_time": 51.10681818181818,
                "end_time": 51.35454545454545,
                "pitch": 72,
                "velocity": 80,
                "duration": 0.2477272727272748,
                "tempo": 120.0
            },
            {
                "start_time": 51.35454545454545,
                "end_time": 51.465909090909086,
                "pitch": 65,
                "velocity": 80,
                "duration": 0.11136363636363455,
                "tempo": 120.0
            },
            {
                "start_time": 51.465909090909086,
                "end_time": 51.69318181818181,
                "pitch": 72,
                "velocity": 80,
                "duration": 0.22727272727272663,
                "tempo": 120.0
            },
            {
                "start_time": 51.69318181818181,
                "end_time": 51.94772727272727,
                "pitch": 65,
                "velocity": 80,
                "duration": 0.2545454545454575,
                "tempo": 120.0
            },
            {
                "start_time": 51.94772727272727,
                "end_time": 52.18863636363636,
                "pitch": 77,
                "velocity": 80,
                "duration": 0.24090909090909207,
                "tempo": 120.0
            },
            {
                "start_time": 52.18863636363636,
                "end_time": 52.304545454545455,
                "pitch": 65,
                "velocity": 80,
                "duration": 0.11590909090909207,
                "tempo": 120.0
            },
            {
                "start_time": 52.304545454545455,
                "end_time": 52.554545454545455,
                "pitch": 70,
                "velocity": 80,
                "duration": 0.25,
                "tempo": 120.0
            },
            {
                "start_time": 52.554545454545455,
                "end_time": 52.67272727272727,
                "pitch": 65,
                "velocity": 80,
                "duration": 0.11818181818181728,
                "tempo": 120.0
            },
            {
                "start_time": 52.67272727272727,
                "end_time": 52.91136363636363,
                "pitch": 77,
                "velocity": 80,
                "duration": 0.23863636363635976,
                "tempo": 120.0
            },
            {
                "start_time": 52.91136363636363,
                "end_time": 53.03181818181818,
                "pitch": 65,
                "velocity": 80,
                "duration": 0.12045454545454959,
                "tempo": 120.0
            },
            {
                "start_time": 53.03181818181818,
                "end_time": 53.28636363636363,
                "pitch": 70,
                "velocity": 80,
                "duration": 0.2545454545454504,
                "tempo": 120.0
            },
            {
                "start_time": 53.28636363636363,
                "end_time": 53.402272727272724,
                "pitch": 65,
                "velocity": 80,
                "duration": 0.11590909090909207,
                "tempo": 120.0
            },
            {
                "start_time": 53.402272727272724,
                "end_time": 53.63863636363636,
                "pitch": 70,
                "velocity": 80,
                "duration": 0.23636363636363455,
                "tempo": 120.0
            },
            {
                "start_time": 53.63863636363636,
                "end_time": 53.88409090909091,
                "pitch": 65,
                "velocity": 80,
                "duration": 0.2454545454545496,
                "tempo": 120.0
            },
            {
                "start_time": 53.88409090909091,
                "end_time": 54.115909090909085,
                "pitch": 77,
                "velocity": 80,
                "duration": 0.23181818181817704,
                "tempo": 120.0
            },
            {
                "start_time": 54.115909090909085,
                "end_time": 54.22954545454545,
                "pitch": 67,
                "velocity": 80,
                "duration": 0.11363636363636687,
                "tempo": 120.0
            },
            {
                "start_time": 54.23181818181818,
                "end_time": 54.48181818181818,
                "pitch": 72,
                "velocity": 80,
                "duration": 0.25,
                "tempo": 120.0
            },
            {
                "start_time": 54.48409090909091,
                "end_time": 54.599999999999994,
                "pitch": 67,
                "velocity": 80,
                "duration": 0.11590909090908497,
                "tempo": 120.0
            },
            {
                "start_time": 54.599999999999994,
                "end_time": 54.83863636363636,
                "pitch": 79,
                "velocity": 80,
                "duration": 0.23863636363636687,
                "tempo": 120.0
            },
            {
                "start_time": 54.83863636363636,
                "end_time": 54.974999999999994,
                "pitch": 67,
                "velocity": 80,
                "duration": 0.13636363636363313,
                "tempo": 120.0
            },
            {
                "start_time": 54.974999999999994,
                "end_time": 55.211363636363636,
                "pitch": 72,
                "velocity": 80,
                "duration": 0.23636363636364166,
                "tempo": 120.0
            },
            {
                "start_time": 55.21363636363636,
                "end_time": 55.32727272727273,
                "pitch": 67,
                "velocity": 80,
                "duration": 0.11363636363636687,
                "tempo": 120.0
            },
            {
                "start_time": 55.32727272727273,
                "end_time": 55.57954545454545,
                "pitch": 72,
                "velocity": 80,
                "duration": 0.2522727272727252,
                "tempo": 120.0
            },
            {
                "start_time": 55.57954545454545,
                "end_time": 55.81818181818181,
                "pitch": 67,
                "velocity": 80,
                "duration": 0.23863636363635976,
                "tempo": 120.0
            },
            {
                "start_time": 55.81818181818181,
                "end_time": 56.05681818181818,
                "pitch": 79,
                "velocity": 80,
                "duration": 0.23863636363636687,
                "tempo": 120.0
            },
            {
                "start_time": 56.059090909090905,
                "end_time": 56.184090909090905,
                "pitch": 67,
                "velocity": 80,
                "duration": 0.125,
                "tempo": 120.0
            },
            {
                "start_time": 56.184090909090905,
                "end_time": 56.40909090909091,
                "pitch": 72,
                "velocity": 80,
                "duration": 0.22500000000000142,
                "tempo": 120.0
            },
            {
                "start_time": 56.40909090909091,
                "end_time": 56.52272727272727,
                "pitch": 67,
                "velocity": 80,
                "duration": 0.11363636363636687,
                "tempo": 120.0
            },
            {
                "start_time": 56.52272727272727,
                "end_time": 56.77272727272727,
                "pitch": 79,
                "velocity": 80,
                "duration": 0.25,
                "tempo": 120.0
            },
            {
                "start_time": 56.77272727272727,
                "end_time": 56.88863636363636,
                "pitch": 67,
                "velocity": 80,
                "duration": 0.11590909090908497,
                "tempo": 120.0
            },
            {
                "start_time": 56.88863636363636,
                "end_time": 57.125,
                "pitch": 72,
                "velocity": 80,
                "duration": 0.23636363636364166,
                "tempo": 120.0
            },
            {
                "start_time": 57.127272727272725,
                "end_time": 57.24545454545454,
                "pitch": 67,
                "velocity": 80,
                "duration": 0.11818181818181728,
                "tempo": 120.0
            },
            {
                "start_time": 57.24545454545454,
                "end_time": 57.502272727272725,
                "pitch": 72,
                "velocity": 80,
                "duration": 0.2568181818181827,
                "tempo": 120.0
            },
            {
                "start_time": 57.502272727272725,
                "end_time": 57.73863636363636,
                "pitch": 67,
                "velocity": 80,
                "duration": 0.23636363636363455,
                "tempo": 120.0
            },
            {
                "start_time": 57.73863636363636,
                "end_time": 57.990909090909085,
                "pitch": 79,
                "velocity": 80,
                "duration": 0.2522727272727252,
                "tempo": 120.0
            },
            {
                "start_time": 57.990909090909085,
                "end_time": 58.10909090909091,
                "pitch": 65,
                "velocity": 80,
                "duration": 0.11818181818182438,
                "tempo": 120.0
            },
            {
                "start_time": 58.10909090909091,
                "end_time": 58.34772727272727,
                "pitch": 72,
                "velocity": 80,
                "duration": 0.23863636363635976,
                "tempo": 120.0
            },
            {
                "start_time": 58.349999999999994,
                "end_time": 58.470454545454544,
                "pitch": 65,
                "velocity": 80,
                "duration": 0.12045454545454959,
                "tempo": 120.0
            },
            {
                "start_time": 58.470454545454544,
                "end_time": 58.715909090909086,
                "pitch": 77,
                "velocity": 80,
                "duration": 0.24545454545454248,
                "tempo": 120.0
            },
            {
                "start_time": 58.715909090909086,
                "end_time": 58.83181818181818,
                "pitch": 65,
                "velocity": 80,
                "duration": 0.11590909090909207,
                "tempo": 120.0
            },
            {
                "start_time": 58.83181818181818,
                "end_time": 59.06363636363636,
                "pitch": 72,
                "velocity": 80,
                "duration": 0.23181818181818414,
                "tempo": 120.0
            },
            {
                "start_time": 59.06363636363636,
                "end_time": 59.19772727272727,
                "pitch": 65,
                "velocity": 80,
                "duration": 0.13409090909090793,
                "tempo": 120.0
            },
            {
                "start_time": 59.19772727272727,
                "end_time": 59.434090909090905,
                "pitch": 72,
                "velocity": 80,
                "duration": 0.23636363636363455,
                "tempo": 120.0
            },
            {
                "start_time": 59.434090909090905,
                "end_time": 59.668181818181814,
                "pitch": 65,
                "velocity": 80,
                "duration": 0.23409090909090935,
                "tempo": 120.0
            },
            {
                "start_time": 59.668181818181814,
                "end_time": 59.91590909090909,
                "pitch": 77,
                "velocity": 80,
                "duration": 0.2477272727272748,
                "tempo": 120.0
            },
            {
                "start_time": 59.91590909090909,
                "end_time": 60.03409090909091,
                "pitch": 65,
                "velocity": 80,
                "duration": 0.11818181818181728,
                "tempo": 120.0
            },
            {
                "start_time": 60.03636363636363,
                "end_time": 60.275,
                "pitch": 72,
                "velocity": 80,
                "duration": 0.23863636363636687,
                "tempo": 120.0
            },
            {
                "start_time": 60.275,
                "end_time": 60.413636363636364,
                "pitch": 65,
                "velocity": 80,
                "duration": 0.13863636363636545,
                "tempo": 120.0
            },
            {
                "start_time": 60.413636363636364,
                "end_time": 60.647727272727266,
                "pitch": 77,
                "velocity": 80,
                "duration": 0.23409090909090224,
                "tempo": 120.0
            },
            {
                "start_time": 60.647727272727266,
                "end_time": 60.76590909090909,
                "pitch": 65,
                "velocity": 80,
                "duration": 0.11818181818182438,
                "tempo": 120.0
            },
            {
                "start_time": 60.76590909090909,
                "end_time": 61.01590909090909,
                "pitch": 72,
                "velocity": 80,
                "duration": 0.25,
                "tempo": 120.0
            },
            {
                "start_time": 61.01590909090909,
                "end_time": 61.12954545454545,
                "pitch": 65,
                "velocity": 80,
                "duration": 0.11363636363635976,
                "tempo": 120.0
            },
            {
                "start_time": 61.12954545454545,
                "end_time": 61.35909090909091,
                "pitch": 72,
                "velocity": 80,
                "duration": 0.22954545454545894,
                "tempo": 120.0
            },
            {
                "start_time": 61.35909090909091,
                "end_time": 61.611363636363635,
                "pitch": 65,
                "velocity": 80,
                "duration": 0.2522727272727252,
                "tempo": 120.0
            },
            {
                "start_time": 61.611363636363635,
                "end_time": 61.845454545454544,
                "pitch": 77,
                "velocity": 80,
                "duration": 0.23409090909090935,
                "tempo": 120.0
            },
            {
                "start_time": 61.845454545454544,
                "end_time": 61.961363636363636,
                "pitch": 67,
                "velocity": 80,
                "duration": 0.11590909090909207,
                "tempo": 120.0
            },
            {
                "start_time": 61.961363636363636,
                "end_time": 62.220454545454544,
                "pitch": 74,
                "velocity": 80,
                "duration": 0.25909090909090793,
                "tempo": 120.0
            },
            {
                "start_time": 62.220454545454544,
                "end_time": 62.33863636363636,
                "pitch": 67,
                "velocity": 80,
                "duration": 0.11818181818181728,
                "tempo": 120.0
            },
            {
                "start_time": 62.340909090909086,
                "end_time": 62.57272727272727,
                "pitch": 79,
                "velocity": 80,
                "duration": 0.23181818181818414,
                "tempo": 120.0
            },
            {
                "start_time": 62.57272727272727,
                "end_time": 62.69090909090909,
                "pitch": 67,
                "velocity": 80,
                "duration": 0.11818181818181728,
                "tempo": 120.0
            },
            {
                "start_time": 62.69090909090909,
                "end_time": 62.94090909090909,
                "pitch": 74,
                "velocity": 80,
                "duration": 0.25,
                "tempo": 120.0
            },
            {
                "start_time": 62.94090909090909,
                "end_time": 63.05681818181818,
                "pitch": 67,
                "velocity": 80,
                "duration": 0.11590909090909207,
                "tempo": 120.0
            },
            {
                "start_time": 63.059090909090905,
                "end_time": 63.29545454545454,
                "pitch": 74,
                "velocity": 80,
                "duration": 0.23636363636363455,
                "tempo": 120.0
            },
            {
                "start_time": 63.29545454545454,
                "end_time": 63.54090909090909,
                "pitch": 67,
                "velocity": 80,
                "duration": 0.2454545454545496,
                "tempo": 120.0
            },
            {
                "start_time": 63.54090909090909,
                "end_time": 63.77045454545454,
                "pitch": 79,
                "velocity": 80,
                "duration": 0.22954545454545183,
                "tempo": 120.0
            },
            {
                "start_time": 63.772727272727266,
                "end_time": 63.88636363636363,
                "pitch": 67,
                "velocity": 80,
                "duration": 0.11363636363636687,
                "tempo": 120.0
            },
            {
                "start_time": 63.88636363636363,
                "end_time": 64.13863636363637,
                "pitch": 72,
                "velocity": 80,
                "duration": 0.2522727272727323,
                "tempo": 120.0
            },
            {
                "start_time": 64.13863636363637,
                "end_time": 64.25454545454545,
                "pitch": 67,
                "velocity": 80,
                "duration": 0.11590909090908497,
                "tempo": 120.0
            },
            {
                "start_time": 64.25454545454545,
                "end_time": 64.49318181818181,
                "pitch": 79,
                "velocity": 80,
                "duration": 0.23863636363635976,
                "tempo": 120.0
            },
            {
                "start_time": 64.49318181818181,
                "end_time": 64.62954545454545,
                "pitch": 67,
                "velocity": 80,
                "duration": 0.13636363636364024,
                "tempo": 120.0
            },
            {
                "start_time": 64.63181818181818,
                "end_time": 64.86818181818181,
                "pitch": 72,
                "velocity": 80,
                "duration": 0.23636363636363455,
                "tempo": 120.0
            },
            {
                "start_time": 64.86818181818181,
                "end_time": 64.98409090909091,
                "pitch": 67,
                "velocity": 80,
                "duration": 0.11590909090909918,
                "tempo": 120.0
            },
            {
                "start_time": 64.98409090909091,
                "end_time": 65.23409090909091,
                "pitch": 72,
                "velocity": 80,
                "duration": 0.25,
                "tempo": 120.0
            },
            {
                "start_time": 65.23409090909091,
                "end_time": 65.47045454545454,
                "pitch": 67,
                "velocity": 80,
                "duration": 0.23636363636363455,
                "tempo": 120.0
            },
            {
                "start_time": 65.47045454545454,
                "end_time": 65.70681818181818,
                "pitch": 79,
                "velocity": 80,
                "duration": 0.23636363636363455,
                "tempo": 120.0
            },
            {
                "start_time": 65.70681818181818,
                "end_time": 65.83636363636363,
                "pitch": 67,
                "velocity": 80,
                "duration": 0.1295454545454504,
                "tempo": 120.0
            },
            {
                "start_time": 65.83636363636363,
                "end_time": 66.06818181818181,
                "pitch": 72,
                "velocity": 80,
                "duration": 0.23181818181818414,
                "tempo": 120.0
            },
            {
                "start_time": 66.06818181818181,
                "end_time": 66.18181818181817,
                "pitch": 67,
                "velocity": 80,
                "duration": 0.11363636363635976,
                "tempo": 120.0
            },
            {
                "start_time": 66.18181818181817,
                "end_time": 66.43863636363636,
                "pitch": 79,
                "velocity": 80,
                "duration": 0.25681818181818983,
                "tempo": 120.0
            },
            {
                "start_time": 66.43863636363636,
                "end_time": 66.55909090909091,
                "pitch": 67,
                "velocity": 80,
                "duration": 0.12045454545454959,
                "tempo": 120.0
            },
            {
                "start_time": 66.55909090909091,
                "end_time": 66.79545454545455,
                "pitch": 72,
                "velocity": 80,
                "duration": 0.23636363636363455,
                "tempo": 120.0
            },
            {
                "start_time": 66.79545454545455,
                "end_time": 66.91136363636363,
                "pitch": 67,
                "velocity": 80,
                "duration": 0.11590909090908497,
                "tempo": 120.0
            },
            {
                "start_time": 66.91136363636363,
                "end_time": 67.16590909090908,
                "pitch": 72,
                "velocity": 80,
                "duration": 0.2545454545454504,
                "tempo": 120.0
            },
            {
                "start_time": 67.16590909090908,
                "end_time": 67.39999999999999,
                "pitch": 67,
                "velocity": 80,
                "duration": 0.23409090909090935,
                "tempo": 120.0
            },
            {
                "start_time": 67.39999999999999,
                "end_time": 67.65454545454546,
                "pitch": 79,
                "velocity": 80,
                "duration": 0.2545454545454646,
                "tempo": 120.0
            },
            {
                "start_time": 67.65454545454546,
                "end_time": 67.77045454545454,
                "pitch": 64,
                "velocity": 80,
                "duration": 0.11590909090908497,
                "tempo": 120.0
            },
            {
                "start_time": 67.77272727272727,
                "end_time": 68.01136363636363,
                "pitch": 71,
                "velocity": 80,
                "duration": 0.23863636363635976,
                "tempo": 120.0
            },
            {
                "start_time": 68.01136363636363,
                "end_time": 68.13181818181818,
                "pitch": 64,
                "velocity": 80,
                "duration": 0.12045454545454959,
                "tempo": 120.0
            },
            {
                "start_time": 68.13181818181818,
                "end_time": 68.37727272727273,
                "pitch": 76,
                "velocity": 80,
                "duration": 0.2454545454545496,
                "tempo": 120.0
            },
            {
                "start_time": 68.37727272727273,
                "end_time": 68.49318181818181,
                "pitch": 64,
                "velocity": 80,
                "duration": 0.11590909090908497,
                "tempo": 120.0
            },
            {
                "start_time": 68.49318181818181,
                "end_time": 68.725,
                "pitch": 71,
                "velocity": 80,
                "duration": 0.23181818181818414,
                "tempo": 120.0
            },
            {
                "start_time": 68.725,
                "end_time": 68.85909090909091,
                "pitch": 64,
                "velocity": 80,
                "duration": 0.13409090909091503,
                "tempo": 120.0
            },
            {
                "start_time": 68.85909090909091,
                "end_time": 69.09545454545454,
                "pitch": 71,
                "velocity": 80,
                "duration": 0.23636363636363455,
                "tempo": 120.0
            },
            {
                "start_time": 69.09545454545454,
                "end_time": 69.33181818181818,
                "pitch": 64,
                "velocity": 80,
                "duration": 0.23636363636363455,
                "tempo": 120.0
            },
            {
                "start_time": 69.33181818181818,
                "end_time": 69.5840909090909,
                "pitch": 76,
                "velocity": 80,
                "duration": 0.2522727272727252,
                "tempo": 120.0
            },
            {
                "start_time": 69.5840909090909,
                "end_time": 69.70227272727273,
                "pitch": 64,
                "velocity": 80,
                "duration": 0.11818181818182438,
                "tempo": 120.0
            },
            {
                "start_time": 69.70227272727273,
                "end_time": 69.94318181818181,
                "pitch": 69,
                "velocity": 80,
                "duration": 0.24090909090908497,
                "tempo": 120.0
            },
            {
                "start_time": 69.94318181818181,
                "end_time": 70.07954545454545,
                "pitch": 64,
                "velocity": 80,
                "duration": 0.13636363636364024,
                "tempo": 120.0
            },
            {
                "start_time": 70.07954545454545,
                "end_time": 70.31590909090909,
                "pitch": 76,
                "velocity": 80,
                "duration": 0.23636363636363455,
                "tempo": 120.0
            },
            {
                "start_time": 70.31590909090909,
                "end_time": 70.43181818181817,
                "pitch": 64,
                "velocity": 80,
                "duration": 0.11590909090908497,
                "tempo": 120.0
            },
            {
                "start_time": 70.43181818181817,
                "end_time": 70.68181818181817,
                "pitch": 69,
                "velocity": 80,
                "duration": 0.25,
                "tempo": 120.0
            },
            {
                "start_time": 70.68181818181817,
                "end_time": 70.79545454545455,
                "pitch": 64,
                "velocity": 80,
                "duration": 0.11363636363637397,
                "tempo": 120.0
            },
            {
                "start_time": 70.79545454545455,
                "end_time": 71.02727272727273,
                "pitch": 69,
                "velocity": 80,
                "duration": 0.23181818181818414,
                "tempo": 120.0
            },
            {
                "start_time": 71.02727272727273,
                "end_time": 71.27954545454546,
                "pitch": 64,
                "velocity": 80,
                "duration": 0.2522727272727252,
                "tempo": 120.0
            },
            {
                "start_time": 71.27954545454546,
                "end_time": 71.51590909090909,
                "pitch": 76,
                "velocity": 80,
                "duration": 0.23636363636363455,
                "tempo": 120.0
            },
            {
                "start_time": 71.51590909090909,
                "end_time": 71.6340909090909,
                "pitch": 66,
                "velocity": 80,
                "duration": 0.11818181818181017,
                "tempo": 120.0
            },
            {
                "start_time": 71.6340909090909,
                "end_time": 71.89090909090909,
                "pitch": 71,
                "velocity": 80,
                "duration": 0.25681818181818983,
                "tempo": 120.0
            },
            {
                "start_time": 71.89090909090909,
                "end_time": 72.01136363636363,
                "pitch": 66,
                "velocity": 80,
                "duration": 0.12045454545453538,
                "tempo": 120.0
            },
            {
                "start_time": 72.01136363636363,
                "end_time": 72.24545454545454,
                "pitch": 78,
                "velocity": 80,
                "duration": 0.23409090909090935,
                "tempo": 120.0
            },
            {
                "start_time": 72.24545454545454,
                "end_time": 72.36363636363636,
                "pitch": 66,
                "velocity": 80,
                "duration": 0.11818181818182438,
                "tempo": 120.0
            },
            {
                "start_time": 72.36363636363636,
                "end_time": 72.61590909090908,
                "pitch": 71,
                "velocity": 80,
                "duration": 0.2522727272727252,
                "tempo": 120.0
            },
            {
                "start_time": 72.61590909090908,
                "end_time": 72.72954545454544,
                "pitch": 66,
                "velocity": 80,
                "duration": 0.11363636363635976,
                "tempo": 120.0
            },
            {
                "start_time": 72.73181818181818,
                "end_time": 72.9659090909091,
                "pitch": 71,
                "velocity": 80,
                "duration": 0.23409090909090935,
                "tempo": 120.0
            },
            {
                "start_time": 72.9659090909091,
                "end_time": 73.21363636363635,
                "pitch": 66,
                "velocity": 80,
                "duration": 0.24772727272726058,
                "tempo": 120.0
            },
            {
                "start_time": 73.21363636363635,
                "end_time": 73.44318181818181,
                "pitch": 78,
                "velocity": 80,
                "duration": 0.22954545454545894,
                "tempo": 120.0
            },
            {
                "start_time": 73.44318181818181,
                "end_time": 73.55909090909091,
                "pitch": 66,
                "velocity": 80,
                "duration": 0.11590909090909918,
                "tempo": 120.0
            },
            {
                "start_time": 73.55909090909091,
                "end_time": 73.81818181818181,
                "pitch": 71,
                "velocity": 80,
                "duration": 0.2590909090909008,
                "tempo": 120.0
            },
            {
                "start_time": 73.81818181818181,
                "end_time": 73.93636363636364,
                "pitch": 66,
                "velocity": 80,
                "duration": 0.11818181818182438,
                "tempo": 120.0
            },
            {
                "start_time": 73.93863636363636,
                "end_time": 74.17272727272727,
                "pitch": 78,
                "velocity": 80,
                "duration": 0.23409090909090935,
                "tempo": 120.0
            },
            {
                "start_time": 74.17272727272727,
                "end_time": 74.30681818181817,
                "pitch": 66,
                "velocity": 80,
                "duration": 0.13409090909090082,
                "tempo": 120.0
            },
            {
                "start_time": 74.30681818181817,
                "end_time": 74.54090909090908,
                "pitch": 71,
                "velocity": 80,
                "duration": 0.23409090909090935,
                "tempo": 120.0
            },
            {
                "start_time": 74.54090909090908,
                "end_time": 74.65681818181818,
                "pitch": 66,
                "velocity": 80,
                "duration": 0.11590909090909918,
                "tempo": 120.0
            },
            {
                "start_time": 74.65681818181818,
                "end_time": 74.9090909090909,
                "pitch": 71,
                "velocity": 80,
                "duration": 0.2522727272727252,
                "tempo": 120.0
            },
            {
                "start_time": 74.9090909090909,
                "end_time": 75.14772727272727,
                "pitch": 66,
                "velocity": 80,
                "duration": 0.23863636363635976,
                "tempo": 120.0
            },
            {
                "start_time": 75.14772727272727,
                "end_time": 75.38863636363637,
                "pitch": 78,
                "velocity": 80,
                "duration": 0.24090909090909918,
                "tempo": 120.0
            },
            {
                "start_time": 75.38863636363637,
                "end_time": 75.51818181818182,
                "pitch": 64,
                "velocity": 80,
                "duration": 0.1295454545454504,
                "tempo": 120.0
            },
            {
                "start_time": 75.51818181818182,
                "end_time": 75.75,
                "pitch": 71,
                "velocity": 80,
                "duration": 0.23181818181818414,
                "tempo": 120.0
            },
            {
                "start_time": 75.75,
                "end_time": 75.86590909090908,
                "pitch": 64,
                "velocity": 80,
                "duration": 0.11590909090908497,
                "tempo": 120.0
            },
            {
                "start_time": 75.86590909090908,
                "end_time": 76.11363636363636,
                "pitch": 76,
                "velocity": 80,
                "duration": 0.2477272727272748,
                "tempo": 120.0
            },
            {
                "start_time": 76.11363636363636,
                "end_time": 76.23181818181818,
                "pitch": 64,
                "velocity": 80,
                "duration": 0.11818181818182438,
                "tempo": 120.0
            },
            {
                "start_time": 76.23181818181818,
                "end_time": 76.4659090909091,
                "pitch": 71,
                "velocity": 80,
                "duration": 0.23409090909090935,
                "tempo": 120.0
            },
            {
                "start_time": 76.4659090909091,
                "end_time": 76.5840909090909,
                "pitch": 64,
                "velocity": 80,
                "duration": 0.11818181818181017,
                "tempo": 120.0
            },
            {
                "start_time": 76.5840909090909,
                "end_time": 76.83636363636363,
                "pitch": 71,
                "velocity": 80,
                "duration": 0.2522727272727252,
                "tempo": 120.0
            },
            {
                "start_time": 76.83636363636363,
                "end_time": 77.075,
                "pitch": 64,
                "velocity": 80,
                "duration": 0.23863636363637397,
                "tempo": 120.0
            },
            {
                "start_time": 77.07727272727273,
                "end_time": 77.33181818181818,
                "pitch": 76,
                "velocity": 80,
                "duration": 0.2545454545454504,
                "tempo": 120.0
            },
            {
                "start_time": 77.33181818181818,
                "end_time": 77.44772727272726,
                "pitch": 64,
                "velocity": 80,
                "duration": 0.11590909090908497,
                "tempo": 120.0
            },
            {
                "start_time": 77.44772727272726,
                "end_time": 77.68181818181817,
                "pitch": 71,
                "velocity": 80,
                "duration": 0.23409090909090935,
                "tempo": 120.0
            },
            {
                "start_time": 77.68181818181817,
                "end_time": 77.79772727272727,
                "pitch": 64,
                "velocity": 80,
                "duration": 0.11590909090909918,
                "tempo": 120.0
            },
            {
                "start_time": 77.8,
                "end_time": 78.04545454545455,
                "pitch": 76,
                "velocity": 80,
                "duration": 0.2454545454545496,
                "tempo": 120.0
            },
            {
                "start_time": 78.04545454545455,
                "end_time": 78.1590909090909,
                "pitch": 64,
                "velocity": 80,
                "duration": 0.11363636363635976,
                "tempo": 120.0
            },
            {
                "start_time": 78.16136363636363,
                "end_time": 78.39318181818182,
                "pitch": 71,
                "velocity": 80,
                "duration": 0.23181818181818414,
                "tempo": 120.0
            },
            {
                "start_time": 78.39318181818182,
                "end_time": 78.52727272727272,
                "pitch": 64,
                "velocity": 80,
                "duration": 0.13409090909090082,
                "tempo": 120.0
            },
            {
                "start_time": 78.52727272727272,
                "end_time": 78.76363636363637,
                "pitch": 71,
                "velocity": 80,
                "duration": 0.23636363636364877,
                "tempo": 120.0
            },
            {
                "start_time": 78.76363636363637,
                "end_time": 79.00227272727273,
                "pitch": 64,
                "velocity": 80,
                "duration": 0.23863636363635976,
                "tempo": 120.0
            },
            {
                "start_time": 79.00454545454545,
                "end_time": 79.2590909090909,
                "pitch": 76,
                "velocity": 80,
                "duration": 0.2545454545454504,
                "tempo": 120.0
            },
            {
                "start_time": 79.2590909090909,
                "end_time": 79.375,
                "pitch": 66,
                "velocity": 80,
                "duration": 0.11590909090909918,
                "tempo": 120.0
            },
            {
                "start_time": 79.375,
                "end_time": 79.61136363636363,
                "pitch": 73,
                "velocity": 80,
                "duration": 0.23636363636363455,
                "tempo": 120.0
            },
            {
                "start_time": 79.61136363636363,
                "end_time": 79.74545454545454,
                "pitch": 66,
                "velocity": 80,
                "duration": 0.13409090909090082,
                "tempo": 120.0
            },
            {
                "start_time": 79.74772727272727,
                "end_time": 79.98181818181818,
                "pitch": 78,
                "velocity": 80,
                "duration": 0.23409090909090935,
                "tempo": 120.0
            },
            {
                "start_time": 79.98181818181818,
                "end_time": 80.1,
                "pitch": 66,
                "velocity": 80,
                "duration": 0.11818181818181017,
                "tempo": 120.0
            },
            {
                "start_time": 80.1,
                "end_time": 80.34772727272727,
                "pitch": 73,
                "velocity": 80,
                "duration": 0.2477272727272748,
                "tempo": 120.0
            },
            {
                "start_time": 80.35,
                "end_time": 80.46363636363635,
                "pitch": 66,
                "velocity": 80,
                "duration": 0.11363636363635976,
                "tempo": 120.0
            },
            {
                "start_time": 80.46363636363635,
                "end_time": 80.69545454545454,
                "pitch": 73,
                "velocity": 80,
                "duration": 0.23181818181818414,
                "tempo": 120.0
            },
            {
                "start_time": 80.69545454545454,
                "end_time": 80.95,
                "pitch": 66,
                "velocity": 80,
                "duration": 0.2545454545454646,
                "tempo": 120.0
            },
            {
                "start_time": 80.95227272727273,
                "end_time": 81.19090909090909,
                "pitch": 78,
                "velocity": 80,
                "duration": 0.23863636363635976,
                "tempo": 120.0
            },
            {
                "start_time": 81.19090909090909,
                "end_time": 81.30681818181817,
                "pitch": 66,
                "velocity": 80,
                "duration": 0.11590909090908497,
                "tempo": 120.0
            },
            {
                "start_time": 81.30681818181817,
                "end_time": 81.55909090909091,
                "pitch": 71,
                "velocity": 80,
                "duration": 0.2522727272727394,
                "tempo": 120.0
            },
            {
                "start_time": 81.55909090909091,
                "end_time": 81.67727272727272,
                "pitch": 66,
                "velocity": 80,
                "duration": 0.11818181818181017,
                "tempo": 120.0
            },
            {
                "start_time": 81.67727272727272,
                "end_time": 81.91363636363636,
                "pitch": 78,
                "velocity": 80,
                "duration": 0.23636363636363455,
                "tempo": 120.0
            },
            {
                "start_time": 81.91363636363636,
                "end_time": 82.02954545454546,
                "pitch": 66,
                "velocity": 80,
                "duration": 0.11590909090909918,
                "tempo": 120.0
            },
            {
                "start_time": 82.02954545454546,
                "end_time": 82.28181818181818,
                "pitch": 71,
                "velocity": 80,
                "duration": 0.2522727272727252,
                "tempo": 120.0
            },
            {
                "start_time": 82.28181818181818,
                "end_time": 82.39772727272727,
                "pitch": 66,
                "velocity": 80,
                "duration": 0.11590909090908497,
                "tempo": 120.0
            },
            {
                "start_time": 82.39772727272727,
                "end_time": 82.63181818181818,
                "pitch": 71,
                "velocity": 80,
                "duration": 0.23409090909090935,
                "tempo": 120.0
            },
            {
                "start_time": 82.63181818181818,
                "end_time": 82.87727272727273,
                "pitch": 66,
                "velocity": 80,
                "duration": 0.2454545454545496,
                "tempo": 120.0
            },
            {
                "start_time": 82.87954545454545,
                "end_time": 83.10909090909091,
                "pitch": 78,
                "velocity": 80,
                "duration": 0.22954545454545894,
                "tempo": 120.0
            },
            {
                "start_time": 83.10909090909091,
                "end_time": 83.22727272727272,
                "pitch": 66,
                "velocity": 80,
                "duration": 0.11818181818181017,
                "tempo": 120.0
            },
            {
                "start_time": 83.22727272727272,
                "end_time": 83.48636363636363,
                "pitch": 71,
                "velocity": 80,
                "duration": 0.25909090909091503,
                "tempo": 120.0
            },
            {
                "start_time": 83.48636363636363,
                "end_time": 83.60454545454544,
                "pitch": 66,
                "velocity": 80,
                "duration": 0.11818181818181017,
                "tempo": 120.0
            },
            {
                "start_time": 83.60454545454544,
                "end_time": 83.83863636363635,
                "pitch": 78,
                "velocity": 80,
                "duration": 0.23409090909090935,
                "tempo": 120.0
            },
            {
                "start_time": 83.8409090909091,
                "end_time": 83.975,
                "pitch": 66,
                "velocity": 80,
                "duration": 0.13409090909090082,
                "tempo": 120.0
            },
            {
                "start_time": 83.975,
                "end_time": 84.2090909090909,
                "pitch": 71,
                "velocity": 80,
                "duration": 0.23409090909090935,
                "tempo": 120.0
            },
            {
                "start_time": 84.2090909090909,
                "end_time": 84.325,
                "pitch": 66,
                "velocity": 80,
                "duration": 0.11590909090909918,
                "tempo": 120.0
            },
            {
                "start_time": 84.325,
                "end_time": 84.57727272727273,
                "pitch": 71,
                "velocity": 80,
                "duration": 0.2522727272727252,
                "tempo": 120.0
            },
            {
                "start_time": 84.57727272727273,
                "end_time": 84.81590909090909,
                "pitch": 66,
                "velocity": 80,
                "duration": 0.23863636363635976,
                "tempo": 120.0
            },
            {
                "start_time": 84.81590909090909,
                "end_time": 85.05681818181817,
                "pitch": 78,
                "velocity": 80,
                "duration": 0.24090909090908497,
                "tempo": 120.0
            }
        ],
        "Acoustic Bass": [
            {
                "start_time": 0.013636363636363636,
                "end_time": 0.24318181818181817,
                "pitch": 29,
                "velocity": 101,
                "duration": 0.22954545454545452,
                "tempo": 120.0
            },
            {
                "start_time": 0.24318181818181817,
                "end_time": 0.4795454545454545,
                "pitch": 29,
                "velocity": 101,
                "duration": 0.23636363636363633,
                "tempo": 120.0
            },
            {
                "start_time": 0.4795454545454545,
                "end_time": 0.7204545454545455,
                "pitch": 41,
                "velocity": 101,
                "duration": 0.24090909090909096,
                "tempo": 120.0
            },
            {
                "start_time": 0.7204545454545455,
                "end_time": 0.9454545454545454,
                "pitch": 29,
                "velocity": 101,
                "duration": 0.22499999999999998,
                "tempo": 120.0
            },
            {
                "start_time": 0.9454545454545454,
                "end_time": 1.1954545454545453,
                "pitch": 29,
                "velocity": 101,
                "duration": 0.2499999999999999,
                "tempo": 120.0
            },
            {
                "start_time": 1.1954545454545453,
                "end_time": 1.4295454545454545,
                "pitch": 29,
                "velocity": 101,
                "duration": 0.23409090909090913,
                "tempo": 120.0
            },
            {
                "start_time": 1.4295454545454545,
                "end_time": 1.6681818181818182,
                "pitch": 41,
                "velocity": 101,
                "duration": 0.23863636363636376,
                "tempo": 120.0
            },
            {
                "start_time": 1.6681818181818182,
                "end_time": 1.9249999999999998,
                "pitch": 29,
                "velocity": 101,
                "duration": 0.2568181818181816,
                "tempo": 120.0
            },
            {
                "start_time": 1.9272727272727272,
                "end_time": 2.1568181818181817,
                "pitch": 29,
                "velocity": 101,
                "duration": 0.2295454545454545,
                "tempo": 120.0
            },
            {
                "start_time": 2.159090909090909,
                "end_time": 2.409090909090909,
                "pitch": 29,
                "velocity": 101,
                "duration": 0.25,
                "tempo": 120.0
            },
            {
                "start_time": 2.409090909090909,
                "end_time": 2.6477272727272725,
                "pitch": 41,
                "velocity": 101,
                "duration": 0.2386363636363633,
                "tempo": 120.0
            },
            {
                "start_time": 2.6477272727272725,
                "end_time": 2.8863636363636362,
                "pitch": 29,
                "velocity": 101,
                "duration": 0.23863636363636376,
                "tempo": 120.0
            },
            {
                "start_time": 2.8863636363636362,
                "end_time": 3.127272727272727,
                "pitch": 29,
                "velocity": 101,
                "duration": 0.24090909090909074,
                "tempo": 120.0
            },
            {
                "start_time": 3.127272727272727,
                "end_time": 3.352272727272727,
                "pitch": 29,
                "velocity": 101,
                "duration": 0.2250000000000001,
                "tempo": 120.0
            },
            {
                "start_time": 3.352272727272727,
                "end_time": 3.609090909090909,
                "pitch": 41,
                "velocity": 101,
                "duration": 0.25681818181818183,
                "tempo": 120.0
            },
            {
                "start_time": 3.609090909090909,
                "end_time": 3.8499999999999996,
                "pitch": 29,
                "velocity": 101,
                "duration": 0.24090909090909074,
                "tempo": 120.0
            },
            {
                "start_time": 3.8499999999999996,
                "end_time": 4.081818181818182,
                "pitch": 28,
                "velocity": 101,
                "duration": 0.23181818181818237,
                "tempo": 120.0
            },
            {
                "start_time": 4.081818181818182,
                "end_time": 4.331818181818182,
                "pitch": 28,
                "velocity": 101,
                "duration": 0.25,
                "tempo": 120.0
            },
            {
                "start_time": 4.331818181818182,
                "end_time": 4.570454545454545,
                "pitch": 40,
                "velocity": 101,
                "duration": 0.2386363636363633,
                "tempo": 120.0
            },
            {
                "start_time": 4.570454545454545,
                "end_time": 4.827272727272727,
                "pitch": 28,
                "velocity": 101,
                "duration": 0.25681818181818183,
                "tempo": 120.0
            },
            {
                "start_time": 4.827272727272727,
                "end_time": 5.0636363636363635,
                "pitch": 28,
                "velocity": 101,
                "duration": 0.23636363636363633,
                "tempo": 120.0
            },
            {
                "start_time": 5.0636363636363635,
                "end_time": 5.297727272727273,
                "pitch": 28,
                "velocity": 101,
                "duration": 0.23409090909090935,
                "tempo": 120.0
            },
            {
                "start_time": 5.3,
                "end_time": 5.545454545454545,
                "pitch": 40,
                "velocity": 101,
                "duration": 0.24545454545454515,
                "tempo": 120.0
            },
            {
                "start_time": 5.545454545454545,
                "end_time": 5.777272727272727,
                "pitch": 28,
                "velocity": 101,
                "duration": 0.23181818181818237,
                "tempo": 120.0
            },
            {
                "start_time": 5.777272727272727,
                "end_time": 6.0249999999999995,
                "pitch": 27,
                "velocity": 101,
                "duration": 0.24772727272727213,
                "tempo": 120.0
            },
            {
                "start_time": 6.0249999999999995,
                "end_time": 6.259090909090909,
                "pitch": 27,
                "velocity": 101,
                "duration": 0.23409090909090935,
                "tempo": 120.0
            },
            {
                "start_time": 6.259090909090909,
                "end_time": 6.495454545454545,
                "pitch": 39,
                "velocity": 101,
                "duration": 0.23636363636363633,
                "tempo": 120.0
            },
            {
                "start_time": 6.495454545454545,
                "end_time": 6.747727272727272,
                "pitch": 27,
                "velocity": 101,
                "duration": 0.252272727272727,
                "tempo": 120.0
            },
            {
                "start_time": 6.747727272727272,
                "end_time": 6.986363636363636,
                "pitch": 27,
                "velocity": 101,
                "duration": 0.2386363636363642,
                "tempo": 120.0
            },
            {
                "start_time": 6.986363636363636,
                "end_time": 7.243181818181818,
                "pitch": 27,
                "velocity": 101,
                "duration": 0.25681818181818183,
                "tempo": 120.0
            },
            {
                "start_time": 7.243181818181818,
                "end_time": 7.475,
                "pitch": 39,
                "velocity": 101,
                "duration": 0.23181818181818148,
                "tempo": 120.0
            },
            {
                "start_time": 7.477272727272727,
                "end_time": 7.711363636363636,
                "pitch": 27,
                "velocity": 101,
                "duration": 0.23409090909090935,
                "tempo": 120.0
            },
            {
                "start_time": 7.711363636363636,
                "end_time": 7.954545454545454,
                "pitch": 33,
                "velocity": 101,
                "duration": 0.24318181818181817,
                "tempo": 120.0
            },
            {
                "start_time": 7.956818181818181,
                "end_time": 8.186363636363636,
                "pitch": 33,
                "velocity": 101,
                "duration": 0.2295454545454545,
                "tempo": 120.0
            },
            {
                "start_time": 8.186363636363636,
                "end_time": 8.436363636363636,
                "pitch": 45,
                "velocity": 101,
                "duration": 0.25,
                "tempo": 120.0
            },
            {
                "start_time": 8.436363636363636,
                "end_time": 8.670454545454545,
                "pitch": 33,
                "velocity": 101,
                "duration": 0.23409090909090935,
                "tempo": 120.0
            },
            {
                "start_time": 8.670454545454545,
                "end_time": 8.909090909090908,
                "pitch": 33,
                "velocity": 101,
                "duration": 0.2386363636363633,
                "tempo": 120.0
            },
            {
                "start_time": 8.909090909090908,
                "end_time": 9.165909090909091,
                "pitch": 33,
                "velocity": 101,
                "duration": 0.2568181818181827,
                "tempo": 120.0
            },
            {
                "start_time": 9.165909090909091,
                "end_time": 9.4,
                "pitch": 45,
                "velocity": 101,
                "duration": 0.23409090909090935,
                "tempo": 120.0
            },
            {
                "start_time": 9.402272727272727,
                "end_time": 9.654545454545454,
                "pitch": 33,
                "velocity": 101,
                "duration": 0.252272727272727,
                "tempo": 120.0
            },
            {
                "start_time": 9.654545454545454,
                "end_time": 9.886363636363637,
                "pitch": 32,
                "velocity": 101,
                "duration": 0.23181818181818237,
                "tempo": 120.0
            },
            {
                "start_time": 9.886363636363637,
                "end_time": 10.120454545454544,
                "pitch": 32,
                "velocity": 101,
                "duration": 0.23409090909090757,
                "tempo": 120.0
            },
            {
                "start_time": 10.120454545454544,
                "end_time": 10.36590909090909,
                "pitch": 44,
                "velocity": 101,
                "duration": 0.24545454545454604,
                "tempo": 120.0
            },
            {
                "start_time": 10.368181818181817,
                "end_time": 10.597727272727273,
                "pitch": 32,
                "velocity": 101,
                "duration": 0.22954545454545539,
                "tempo": 120.0
            },
            {
                "start_time": 10.597727272727273,
                "end_time": 10.85,
                "pitch": 32,
                "velocity": 101,
                "duration": 0.252272727272727,
                "tempo": 120.0
            },
            {
                "start_time": 10.85,
                "end_time": 11.084090909090909,
                "pitch": 32,
                "velocity": 101,
                "duration": 0.23409090909090935,
                "tempo": 120.0
            },
            {
                "start_time": 11.086363636363636,
                "end_time": 11.325,
                "pitch": 44,
                "velocity": 101,
                "duration": 0.2386363636363633,
                "tempo": 120.0
            },
            {
                "start_time": 11.325,
                "end_time": 11.581818181818182,
                "pitch": 32,
                "velocity": 101,
                "duration": 0.2568181818181827,
                "tempo": 120.0
            },
            {
                "start_time": 11.581818181818182,
                "end_time": 11.813636363636363,
                "pitch": 35,
                "velocity": 101,
                "duration": 0.2318181818181806,
                "tempo": 120.0
            },
            {
                "start_time": 11.813636363636363,
                "end_time": 12.063636363636363,
                "pitch": 35,
                "velocity": 101,
                "duration": 0.25,
                "tempo": 120.0
            },
            {
                "start_time": 12.063636363636363,
                "end_time": 12.304545454545455,
                "pitch": 47,
                "velocity": 101,
                "duration": 0.24090909090909207,
                "tempo": 120.0
            },
            {
                "start_time": 12.304545454545455,
                "end_time": 12.543181818181818,
                "pitch": 35,
                "velocity": 101,
                "duration": 0.2386363636363633,
                "tempo": 120.0
            },
            {
                "start_time": 12.543181818181818,
                "end_time": 12.784090909090908,
                "pitch": 35,
                "velocity": 101,
                "duration": 0.2409090909090903,
                "tempo": 120.0
            },
            {
                "start_time": 12.784090909090908,
                "end_time": 13.009090909090908,
                "pitch": 35,
                "velocity": 101,
                "duration": 0.22499999999999964,
                "tempo": 120.0
            },
            {
                "start_time": 13.009090909090908,
                "end_time": 13.263636363636364,
                "pitch": 47,
                "velocity": 101,
                "duration": 0.25454545454545574,
                "tempo": 120.0
            },
            {
                "start_time": 13.263636363636364,
                "end_time": 13.504545454545454,
                "pitch": 35,
                "velocity": 101,
                "duration": 0.2409090909090903,
                "tempo": 120.0
            },
            {
                "start_time": 13.504545454545454,
                "end_time": 13.738636363636363,
                "pitch": 24,
                "velocity": 101,
                "duration": 0.23409090909090935,
                "tempo": 120.0
            },
            {
                "start_time": 13.738636363636363,
                "end_time": 13.99090909090909,
                "pitch": 24,
                "velocity": 101,
                "duration": 0.252272727272727,
                "tempo": 120.0
            },
            {
                "start_time": 13.99090909090909,
                "end_time": 14.23181818181818,
                "pitch": 36,
                "velocity": 101,
                "duration": 0.2409090909090903,
                "tempo": 120.0
            },
            {
                "start_time": 14.23181818181818,
                "end_time": 14.486363636363636,
                "pitch": 24,
                "velocity": 101,
                "duration": 0.25454545454545574,
                "tempo": 120.0
            },
            {
                "start_time": 14.488636363636363,
                "end_time": 14.722727272727273,
                "pitch": 24,
                "velocity": 101,
                "duration": 0.23409090909090935,
                "tempo": 120.0
            },
            {
                "start_time": 14.722727272727273,
                "end_time": 14.959090909090909,
                "pitch": 24,
                "velocity": 101,
                "duration": 0.23636363636363633,
                "tempo": 120.0
            },
            {
                "start_time": 14.959090909090909,
                "end_time": 15.204545454545453,
                "pitch": 36,
                "velocity": 101,
                "duration": 0.24545454545454426,
                "tempo": 120.0
            },
            {
                "start_time": 15.204545454545453,
                "end_time": 15.436363636363636,
                "pitch": 24,
                "velocity": 101,
                "duration": 0.23181818181818237,
                "tempo": 120.0
            },
            {
                "start_time": 15.436363636363636,
                "end_time": 15.686363636363636,
                "pitch": 28,
                "velocity": 101,
                "duration": 0.25,
                "tempo": 120.0
            },
            {
                "start_time": 15.686363636363636,
                "end_time": 15.922727272727272,
                "pitch": 28,
                "velocity": 101,
                "duration": 0.23636363636363633,
                "tempo": 120.0
            },
            {
                "start_time": 15.922727272727272,
                "end_time": 16.161363636363635,
                "pitch": 40,
                "velocity": 101,
                "duration": 0.2386363636363633,
                "tempo": 120.0
            },
            {
                "start_time": 16.161363636363635,
                "end_time": 16.418181818181818,
                "pitch": 28,
                "velocity": 101,
                "duration": 0.2568181818181827,
                "tempo": 120.0
            },
            {
                "start_time": 16.418181818181818,
                "end_time": 16.654545454545453,
                "pitch": 28,
                "velocity": 101,
                "duration": 0.23636363636363455,
                "tempo": 120.0
            },
            {
                "start_time": 16.654545454545453,
                "end_time": 16.90681818181818,
                "pitch": 28,
                "velocity": 101,
                "duration": 0.25227272727272876,
                "tempo": 120.0
            },
            {
                "start_time": 16.90681818181818,
                "end_time": 17.145454545454545,
                "pitch": 40,
                "velocity": 101,
                "duration": 0.2386363636363633,
                "tempo": 120.0
            },
            {
                "start_time": 17.145454545454545,
                "end_time": 17.386363636363637,
                "pitch": 28,
                "velocity": 101,
                "duration": 0.24090909090909207,
                "tempo": 120.0
            },
            {
                "start_time": 17.386363636363637,
                "end_time": 17.625,
                "pitch": 28,
                "velocity": 101,
                "duration": 0.2386363636363633,
                "tempo": 120.0
            },
            {
                "start_time": 17.625,
                "end_time": 17.849999999999998,
                "pitch": 28,
                "velocity": 101,
                "duration": 0.22499999999999787,
                "tempo": 120.0
            },
            {
                "start_time": 17.849999999999998,
                "end_time": 18.10681818181818,
                "pitch": 40,
                "velocity": 101,
                "duration": 0.2568181818181827,
                "tempo": 120.0
            },
            {
                "start_time": 18.10681818181818,
                "end_time": 18.345454545454544,
                "pitch": 28,
                "velocity": 101,
                "duration": 0.2386363636363633,
                "tempo": 120.0
            },
            {
                "start_time": 18.345454545454544,
                "end_time": 18.581818181818182,
                "pitch": 28,
                "velocity": 101,
                "duration": 0.2363636363636381,
                "tempo": 120.0
            },
            {
                "start_time": 18.581818181818182,
                "end_time": 18.834090909090907,
                "pitch": 28,
                "velocity": 101,
                "duration": 0.2522727272727252,
                "tempo": 120.0
            },
            {
                "start_time": 18.834090909090907,
                "end_time": 19.068181818181817,
                "pitch": 40,
                "velocity": 101,
                "duration": 0.23409090909090935,
                "tempo": 120.0
            },
            {
                "start_time": 19.068181818181817,
                "end_time": 19.32272727272727,
                "pitch": 28,
                "velocity": 101,
                "duration": 0.25454545454545396,
                "tempo": 120.0
            },
            {
                "start_time": 19.32272727272727,
                "end_time": 19.55909090909091,
                "pitch": 28,
                "velocity": 101,
                "duration": 0.2363636363636381,
                "tempo": 120.0
            },
            {
                "start_time": 19.55909090909091,
                "end_time": 19.8,
                "pitch": 28,
                "velocity": 101,
                "duration": 0.24090909090909207,
                "tempo": 120.0
            },
            {
                "start_time": 19.8,
                "end_time": 20.045454545454543,
                "pitch": 40,
                "velocity": 101,
                "duration": 0.24545454545454248,
                "tempo": 120.0
            },
            {
                "start_time": 20.047727272727272,
                "end_time": 20.277272727272727,
                "pitch": 28,
                "velocity": 101,
                "duration": 0.22954545454545539,
                "tempo": 120.0
            },
            {
                "start_time": 20.277272727272727,
                "end_time": 20.529545454545453,
                "pitch": 28,
                "velocity": 101,
                "duration": 0.2522727272727252,
                "tempo": 120.0
            },
            {
                "start_time": 20.529545454545453,
                "end_time": 20.763636363636362,
                "pitch": 28,
                "velocity": 101,
                "duration": 0.23409090909090935,
                "tempo": 120.0
            },
            {
                "start_time": 20.763636363636362,
                "end_time": 21.0,
                "pitch": 40,
                "velocity": 101,
                "duration": 0.2363636363636381,
                "tempo": 120.0
            },
            {
                "start_time": 21.0,
                "end_time": 21.254545454545454,
                "pitch": 28,
                "velocity": 101,
                "duration": 0.25454545454545396,
                "tempo": 120.0
            },
            {
                "start_time": 21.254545454545454,
                "end_time": 21.49090909090909,
                "pitch": 27,
                "velocity": 101,
                "duration": 0.23636363636363455,
                "tempo": 120.0
            },
            {
                "start_time": 21.49090909090909,
                "end_time": 21.74772727272727,
                "pitch": 27,
                "velocity": 101,
                "duration": 0.2568181818181827,
                "tempo": 120.0
            },
            {
                "start_time": 21.74772727272727,
                "end_time": 21.98409090909091,
                "pitch": 39,
                "velocity": 101,
                "duration": 0.2363636363636381,
                "tempo": 120.0
            },
            {
                "start_time": 21.98409090909091,
                "end_time": 22.21818181818182,
                "pitch": 27,
                "velocity": 101,
                "duration": 0.23409090909090935,
                "tempo": 120.0
            },
            {
                "start_time": 22.21818181818182,
                "end_time": 22.46590909090909,
                "pitch": 27,
                "velocity": 101,
                "duration": 0.24772727272727124,
                "tempo": 120.0
            },
            {
                "start_time": 22.46590909090909,
                "end_time": 22.695454545454545,
                "pitch": 27,
                "velocity": 101,
                "duration": 0.22954545454545539,
                "tempo": 120.0
            },
            {
                "start_time": 22.695454545454545,
                "end_time": 22.94772727272727,
                "pitch": 39,
                "velocity": 101,
                "duration": 0.2522727272727252,
                "tempo": 120.0
            },
            {
                "start_time": 22.94772727272727,
                "end_time": 23.18409090909091,
                "pitch": 27,
                "velocity": 101,
                "duration": 0.2363636363636381,
                "tempo": 120.0
            },
            {
                "start_time": 23.18409090909091,
                "end_time": 23.418181818181818,
                "pitch": 26,
                "velocity": 101,
                "duration": 0.23409090909090935,
                "tempo": 120.0
            },
            {
                "start_time": 23.418181818181818,
                "end_time": 23.670454545454543,
                "pitch": 26,
                "velocity": 101,
                "duration": 0.2522727272727252,
                "tempo": 120.0
            },
            {
                "start_time": 23.670454545454543,
                "end_time": 23.909090909090907,
                "pitch": 38,
                "velocity": 101,
                "duration": 0.2386363636363633,
                "tempo": 120.0
            },
            {
                "start_time": 23.911363636363635,
                "end_time": 24.16590909090909,
                "pitch": 26,
                "velocity": 101,
                "duration": 0.25454545454545396,
                "tempo": 120.0
            },
            {
                "start_time": 24.16590909090909,
                "end_time": 24.402272727272727,
                "pitch": 26,
                "velocity": 101,
                "duration": 0.2363636363636381,
                "tempo": 120.0
            },
            {
                "start_time": 24.402272727272727,
                "end_time": 24.638636363636362,
                "pitch": 26,
                "velocity": 101,
                "duration": 0.23636363636363455,
                "tempo": 120.0
            },
            {
                "start_time": 24.638636363636362,
                "end_time": 24.884090909090908,
                "pitch": 38,
                "velocity": 101,
                "duration": 0.24545454545454604,
                "tempo": 120.0
            },
            {
                "start_time": 24.884090909090908,
                "end_time": 25.11590909090909,
                "pitch": 26,
                "velocity": 101,
                "duration": 0.2318181818181806,
                "tempo": 120.0
            },
            {
                "start_time": 25.11590909090909,
                "end_time": 25.363636363636363,
                "pitch": 32,
                "velocity": 101,
                "duration": 0.2477272727272748,
                "tempo": 120.0
            },
            {
                "start_time": 25.363636363636363,
                "end_time": 25.597727272727273,
                "pitch": 32,
                "velocity": 101,
                "duration": 0.23409090909090935,
                "tempo": 120.0
            },
            {
                "start_time": 25.597727272727273,
                "end_time": 25.836363636363636,
                "pitch": 44,
                "velocity": 101,
                "duration": 0.2386363636363633,
                "tempo": 120.0
            },
            {
                "start_time": 25.836363636363636,
                "end_time": 26.093181818181815,
                "pitch": 32,
                "velocity": 101,
                "duration": 0.25681818181817917,
                "tempo": 120.0
            },
            {
                "start_time": 26.093181818181815,
                "end_time": 26.329545454545453,
                "pitch": 32,
                "velocity": 101,
                "duration": 0.2363636363636381,
                "tempo": 120.0
            },
            {
                "start_time": 26.329545454545453,
                "end_time": 26.581818181818182,
                "pitch": 32,
                "velocity": 101,
                "duration": 0.25227272727272876,
                "tempo": 120.0
            },
            {
                "start_time": 26.581818181818182,
                "end_time": 26.820454545454545,
                "pitch": 44,
                "velocity": 101,
                "duration": 0.2386363636363633,
                "tempo": 120.0
            },
            {
                "start_time": 26.820454545454545,
                "end_time": 27.061363636363634,
                "pitch": 32,
                "velocity": 101,
                "duration": 0.24090909090908852,
                "tempo": 120.0
            },
            {
                "start_time": 27.061363636363634,
                "end_time": 27.299999999999997,
                "pitch": 31,
                "velocity": 101,
                "duration": 0.2386363636363633,
                "tempo": 120.0
            },
            {
                "start_time": 27.299999999999997,
                "end_time": 27.525,
                "pitch": 31,
                "velocity": 101,
                "duration": 0.22500000000000142,
                "tempo": 120.0
            },
            {
                "start_time": 27.525,
                "end_time": 27.78181818181818,
                "pitch": 43,
                "velocity": 101,
                "duration": 0.2568181818181827,
                "tempo": 120.0
            },
            {
                "start_time": 27.78181818181818,
                "end_time": 28.020454545454545,
                "pitch": 31,
                "velocity": 101,
                "duration": 0.2386363636363633,
                "tempo": 120.0
            },
            {
                "start_time": 28.020454545454545,
                "end_time": 28.25681818181818,
                "pitch": 31,
                "velocity": 101,
                "duration": 0.23636363636363455,
                "tempo": 120.0
            },
            {
                "start_time": 28.25681818181818,
                "end_time": 28.509090909090908,
                "pitch": 31,
                "velocity": 101,
                "duration": 0.25227272727272876,
                "tempo": 120.0
            },
            {
                "start_time": 28.509090909090908,
                "end_time": 28.743181818181817,
                "pitch": 43,
                "velocity": 101,
                "duration": 0.23409090909090935,
                "tempo": 120.0
            },
            {
                "start_time": 28.743181818181817,
                "end_time": 28.99772727272727,
                "pitch": 31,
                "velocity": 101,
                "duration": 0.25454545454545396,
                "tempo": 120.0
            },
            {
                "start_time": 28.99772727272727,
                "end_time": 29.23409090909091,
                "pitch": 34,
                "velocity": 101,
                "duration": 0.2363636363636381,
                "tempo": 120.0
            },
            {
                "start_time": 29.23409090909091,
                "end_time": 29.474999999999998,
                "pitch": 34,
                "velocity": 101,
                "duration": 0.24090909090908852,
                "tempo": 120.0
            },
            {
                "start_time": 29.474999999999998,
                "end_time": 29.720454545454544,
                "pitch": 46,
                "velocity": 101,
                "duration": 0.24545454545454604,
                "tempo": 120.0
            },
            {
                "start_time": 29.722727272727273,
                "end_time": 29.952272727272724,
                "pitch": 34,
                "velocity": 101,
                "duration": 0.22954545454545183,
                "tempo": 120.0
            },
            {
                "start_time": 29.952272727272724,
                "end_time": 30.204545454545453,
                "pitch": 34,
                "velocity": 101,
                "duration": 0.25227272727272876,
                "tempo": 120.0
            },
            {
                "start_time": 30.204545454545453,
                "end_time": 30.438636363636363,
                "pitch": 34,
                "velocity": 101,
                "duration": 0.23409090909090935,
                "tempo": 120.0
            },
            {
                "start_time": 30.438636363636363,
                "end_time": 30.674999999999997,
                "pitch": 46,
                "velocity": 101,
                "duration": 0.23636363636363455,
                "tempo": 120.0
            },
            {
                "start_time": 30.674999999999997,
                "end_time": 30.929545454545455,
                "pitch": 34,
                "velocity": 101,
                "duration": 0.2545454545454575,
                "tempo": 120.0
            },
            {
                "start_time": 30.929545454545455,
                "end_time": 31.16590909090909,
                "pitch": 23,
                "velocity": 101,
                "duration": 0.23636363636363455,
                "tempo": 120.0
            },
            {
                "start_time": 31.16590909090909,
                "end_time": 31.422727272727272,
                "pitch": 23,
                "velocity": 101,
                "duration": 0.2568181818181827,
                "tempo": 120.0
            },
            {
                "start_time": 31.422727272727272,
                "end_time": 31.659090909090907,
                "pitch": 35,
                "velocity": 101,
                "duration": 0.23636363636363455,
                "tempo": 120.0
            },
            {
                "start_time": 31.659090909090907,
                "end_time": 31.893181818181816,
                "pitch": 23,
                "velocity": 101,
                "duration": 0.23409090909090935,
                "tempo": 120.0
            },
            {
                "start_time": 31.893181818181816,
                "end_time": 32.14090909090909,
                "pitch": 23,
                "velocity": 101,
                "duration": 0.2477272727272748,
                "tempo": 120.0
            },
            {
                "start_time": 32.14090909090909,
                "end_time": 32.37045454545454,
                "pitch": 23,
                "velocity": 101,
                "duration": 0.22954545454545183,
                "tempo": 120.0
            },
            {
                "start_time": 32.37045454545454,
                "end_time": 32.62272727272727,
                "pitch": 35,
                "velocity": 101,
                "duration": 0.2522727272727252,
                "tempo": 120.0
            },
            {
                "start_time": 32.62272727272727,
                "end_time": 32.85909090909091,
                "pitch": 23,
                "velocity": 101,
                "duration": 0.23636363636364166,
                "tempo": 120.0
            },
            {
                "start_time": 32.85909090909091,
                "end_time": 33.09772727272727,
                "pitch": 27,
                "velocity": 101,
                "duration": 0.23863636363635976,
                "tempo": 120.0
            },
            {
                "start_time": 33.09772727272727,
                "end_time": 33.35227272727273,
                "pitch": 27,
                "velocity": 101,
                "duration": 0.2545454545454575,
                "tempo": 120.0
            },
            {
                "start_time": 33.35454545454545,
                "end_time": 33.58863636363636,
                "pitch": 39,
                "velocity": 101,
                "duration": 0.23409090909090935,
                "tempo": 120.0
            },
            {
                "start_time": 33.58863636363636,
                "end_time": 33.840909090909086,
                "pitch": 27,
                "velocity": 101,
                "duration": 0.2522727272727252,
                "tempo": 120.0
            },
            {
                "start_time": 33.840909090909086,
                "end_time": 34.074999999999996,
                "pitch": 27,
                "velocity": 101,
                "duration": 0.23409090909090935,
                "tempo": 120.0
            },
            {
                "start_time": 34.074999999999996,
                "end_time": 34.309090909090905,
                "pitch": 27,
                "velocity": 101,
                "duration": 0.23409090909090935,
                "tempo": 120.0
            },
            {
                "start_time": 34.309090909090905,
                "end_time": 34.56136363636364,
                "pitch": 39,
                "velocity": 101,
                "duration": 0.2522727272727323,
                "tempo": 120.0
            },
            {
                "start_time": 34.56136363636364,
                "end_time": 34.79772727272727,
                "pitch": 27,
                "velocity": 101,
                "duration": 0.23636363636363455,
                "tempo": 120.0
            },
            {
                "start_time": 34.79772727272727,
                "end_time": 35.04772727272727,
                "pitch": 31,
                "velocity": 64,
                "duration": 0.25,
                "tempo": 120.0
            },
            {
                "start_time": 35.04772727272727,
                "end_time": 35.28181818181818,
                "pitch": 43,
                "velocity": 64,
                "duration": 0.23409090909090935,
                "tempo": 120.0
            },
            {
                "start_time": 35.28181818181818,
                "end_time": 35.51590909090909,
                "pitch": 31,
                "velocity": 64,
                "duration": 0.23409090909090935,
                "tempo": 120.0
            },
            {
                "start_time": 35.51590909090909,
                "end_time": 35.768181818181816,
                "pitch": 43,
                "velocity": 64,
                "duration": 0.2522727272727252,
                "tempo": 120.0
            },
            {
                "start_time": 35.768181818181816,
                "end_time": 36.002272727272725,
                "pitch": 31,
                "velocity": 64,
                "duration": 0.23409090909090935,
                "tempo": 120.0
            },
            {
                "start_time": 36.002272727272725,
                "end_time": 36.252272727272725,
                "pitch": 43,
                "velocity": 64,
                "duration": 0.25,
                "tempo": 120.0
            },
            {
                "start_time": 36.252272727272725,
                "end_time": 36.49090909090909,
                "pitch": 31,
                "velocity": 64,
                "duration": 0.23863636363636687,
                "tempo": 120.0
            },
            {
                "start_time": 36.49318181818182,
                "end_time": 36.73181818181818,
                "pitch": 43,
                "velocity": 64,
                "duration": 0.23863636363635976,
                "tempo": 120.0
            },
            {
                "start_time": 36.73181818181818,
                "end_time": 36.97727272727273,
                "pitch": 31,
                "velocity": 64,
                "duration": 0.2454545454545496,
                "tempo": 120.0
            },
            {
                "start_time": 36.97727272727273,
                "end_time": 37.20681818181818,
                "pitch": 43,
                "velocity": 64,
                "duration": 0.22954545454545183,
                "tempo": 120.0
            },
            {
                "start_time": 37.20681818181818,
                "end_time": 37.45909090909091,
                "pitch": 31,
                "velocity": 64,
                "duration": 0.2522727272727323,
                "tempo": 120.0
            },
            {
                "start_time": 37.45909090909091,
                "end_time": 37.69090909090909,
                "pitch": 43,
                "velocity": 64,
                "duration": 0.23181818181817704,
                "tempo": 120.0
            },
            {
                "start_time": 37.69090909090909,
                "end_time": 37.92727272727272,
                "pitch": 31,
                "velocity": 64,
                "duration": 0.23636363636363455,
                "tempo": 120.0
            },
            {
                "start_time": 37.92727272727272,
                "end_time": 38.18181818181818,
                "pitch": 43,
                "velocity": 64,
                "duration": 0.2545454545454575,
                "tempo": 120.0
            },
            {
                "start_time": 38.18181818181818,
                "end_time": 38.418181818181814,
                "pitch": 31,
                "velocity": 64,
                "duration": 0.23636363636363455,
                "tempo": 120.0
            },
            {
                "start_time": 38.42045454545455,
                "end_time": 38.67727272727272,
                "pitch": 43,
                "velocity": 64,
                "duration": 0.2568181818181756,
                "tempo": 120.0
            },
            {
                "start_time": 38.67727272727272,
                "end_time": 38.91136363636363,
                "pitch": 31,
                "velocity": 64,
                "duration": 0.23409090909090935,
                "tempo": 120.0
            },
            {
                "start_time": 38.91136363636363,
                "end_time": 39.14772727272727,
                "pitch": 43,
                "velocity": 64,
                "duration": 0.23636363636364166,
                "tempo": 120.0
            },
            {
                "start_time": 39.14772727272727,
                "end_time": 39.393181818181816,
                "pitch": 31,
                "velocity": 64,
                "duration": 0.24545454545454248,
                "tempo": 120.0
            },
            {
                "start_time": 39.393181818181816,
                "end_time": 39.62272727272727,
                "pitch": 43,
                "velocity": 64,
                "duration": 0.22954545454545183,
                "tempo": 120.0
            },
            {
                "start_time": 39.62272727272727,
                "end_time": 39.87272727272727,
                "pitch": 31,
                "velocity": 64,
                "duration": 0.25,
                "tempo": 120.0
            },
            {
                "start_time": 39.87272727272727,
                "end_time": 40.10681818181818,
                "pitch": 43,
                "velocity": 64,
                "duration": 0.23409090909090935,
                "tempo": 120.0
            },
            {
                "start_time": 40.10681818181818,
                "end_time": 40.345454545454544,
                "pitch": 31,
                "velocity": 64,
                "duration": 0.23863636363636687,
                "tempo": 120.0
            },
            {
                "start_time": 40.345454545454544,
                "end_time": 40.60454545454545,
                "pitch": 43,
                "velocity": 64,
                "duration": 0.25909090909090793,
                "tempo": 120.0
            },
            {
                "start_time": 40.60454545454545,
                "end_time": 40.836363636363636,
                "pitch": 31,
                "velocity": 64,
                "duration": 0.23181818181818414,
                "tempo": 120.0
            },
            {
                "start_time": 40.83863636363636,
                "end_time": 41.08863636363636,
                "pitch": 43,
                "velocity": 64,
                "duration": 0.25,
                "tempo": 120.0
            },
            {
                "start_time": 41.08863636363636,
                "end_time": 41.324999999999996,
                "pitch": 31,
                "velocity": 64,
                "duration": 0.23636363636363455,
                "tempo": 120.0
            },
            {
                "start_time": 41.324999999999996,
                "end_time": 41.55681818181818,
                "pitch": 43,
                "velocity": 64,
                "duration": 0.23181818181818414,
                "tempo": 120.0
            },
            {
                "start_time": 41.55681818181818,
                "end_time": 41.80227272727272,
                "pitch": 31,
                "velocity": 64,
                "duration": 0.24545454545454248,
                "tempo": 120.0
            },
            {
                "start_time": 41.80227272727272,
                "end_time": 42.03409090909091,
                "pitch": 43,
                "velocity": 64,
                "duration": 0.23181818181818414,
                "tempo": 120.0
            },
            {
                "start_time": 42.03409090909091,
                "end_time": 42.29090909090909,
                "pitch": 31,
                "velocity": 64,
                "duration": 0.2568181818181827,
                "tempo": 120.0
            },
            {
                "start_time": 42.29090909090909,
                "end_time": 42.52954545454545,
                "pitch": 43,
                "velocity": 64,
                "duration": 0.23863636363635976,
                "tempo": 120.0
            },
            {
                "start_time": 42.53181818181818,
                "end_time": 42.76363636363636,
                "pitch": 31,
                "velocity": 64,
                "duration": 0.23181818181817704,
                "tempo": 120.0
            },
            {
                "start_time": 42.76363636363636,
                "end_time": 43.01363636363636,
                "pitch": 43,
                "velocity": 64,
                "duration": 0.25,
                "tempo": 120.0
            },
            {
                "start_time": 43.01363636363636,
                "end_time": 43.24772727272727,
                "pitch": 31,
                "velocity": 64,
                "duration": 0.23409090909090935,
                "tempo": 120.0
            },
            {
                "start_time": 43.25,
                "end_time": 43.5,
                "pitch": 43,
                "velocity": 64,
                "duration": 0.25,
                "tempo": 120.0
            },
            {
                "start_time": 43.5,
                "end_time": 43.74090909090909,
                "pitch": 31,
                "velocity": 64,
                "duration": 0.24090909090909207,
                "tempo": 120.0
            },
            {
                "start_time": 43.74090909090909,
                "end_time": 43.97954545454545,
                "pitch": 43,
                "velocity": 64,
                "duration": 0.23863636363635976,
                "tempo": 120.0
            },
            {
                "start_time": 43.97954545454545,
                "end_time": 44.224999999999994,
                "pitch": 31,
                "velocity": 64,
                "duration": 0.24545454545454248,
                "tempo": 120.0
            },
            {
                "start_time": 44.22727272727273,
                "end_time": 44.45681818181818,
                "pitch": 43,
                "velocity": 64,
                "duration": 0.22954545454545183,
                "tempo": 120.0
            },
            {
                "start_time": 44.45681818181818,
                "end_time": 44.70681818181818,
                "pitch": 31,
                "velocity": 64,
                "duration": 0.25,
                "tempo": 120.0
            },
            {
                "start_time": 44.70681818181818,
                "end_time": 44.93863636363636,
                "pitch": 43,
                "velocity": 64,
                "duration": 0.23181818181818414,
                "tempo": 120.0
            },
            {
                "start_time": 44.93863636363636,
                "end_time": 45.17727272727272,
                "pitch": 31,
                "velocity": 64,
                "duration": 0.23863636363635976,
                "tempo": 120.0
            },
            {
                "start_time": 45.17727272727272,
                "end_time": 45.42727272727272,
                "pitch": 43,
                "velocity": 64,
                "duration": 0.25,
                "tempo": 120.0
            },
            {
                "start_time": 45.42727272727272,
                "end_time": 45.66136363636363,
                "pitch": 31,
                "velocity": 64,
                "duration": 0.23409090909090935,
                "tempo": 120.0
            },
            {
                "start_time": 45.66136363636363,
                "end_time": 45.913636363636364,
                "pitch": 43,
                "velocity": 64,
                "duration": 0.2522727272727323,
                "tempo": 120.0
            },
            {
                "start_time": 45.913636363636364,
                "end_time": 46.152272727272724,
                "pitch": 31,
                "velocity": 64,
                "duration": 0.23863636363635976,
                "tempo": 120.0
            },
            {
                "start_time": 46.152272727272724,
                "end_time": 46.39090909090909,
                "pitch": 43,
                "velocity": 64,
                "duration": 0.23863636363636687,
                "tempo": 120.0
            },
            {
                "start_time": 46.393181818181816,
                "end_time": 46.63636363636363,
                "pitch": 31,
                "velocity": 64,
                "duration": 0.24318181818181728,
                "tempo": 120.0
            },
            {
                "start_time": 46.63636363636363,
                "end_time": 46.86818181818182,
                "pitch": 43,
                "velocity": 64,
                "duration": 0.23181818181818414,
                "tempo": 120.0
            },
            {
                "start_time": 46.86818181818182,
                "end_time": 47.11818181818182,
                "pitch": 31,
                "velocity": 64,
                "duration": 0.25,
                "tempo": 120.0
            },
            {
                "start_time": 47.11818181818182,
                "end_time": 47.349999999999994,
                "pitch": 43,
                "velocity": 64,
                "duration": 0.23181818181817704,
                "tempo": 120.0
            },
            {
                "start_time": 47.349999999999994,
                "end_time": 47.586363636363636,
                "pitch": 31,
                "velocity": 64,
                "duration": 0.23636363636364166,
                "tempo": 120.0
            },
            {
                "start_time": 47.586363636363636,
                "end_time": 47.83863636363636,
                "pitch": 43,
                "velocity": 64,
                "duration": 0.2522727272727252,
                "tempo": 120.0
            },
            {
                "start_time": 47.83863636363636,
                "end_time": 48.07727272727273,
                "pitch": 31,
                "velocity": 64,
                "duration": 0.23863636363636687,
                "tempo": 120.0
            },
            {
                "start_time": 48.07727272727273,
                "end_time": 48.336363636363636,
                "pitch": 43,
                "velocity": 64,
                "duration": 0.25909090909090793,
                "tempo": 120.0
            },
            {
                "start_time": 48.336363636363636,
                "end_time": 48.56818181818181,
                "pitch": 31,
                "velocity": 64,
                "duration": 0.23181818181817704,
                "tempo": 120.0
            },
            {
                "start_time": 48.56818181818181,
                "end_time": 48.8,
                "pitch": 43,
                "velocity": 64,
                "duration": 0.23181818181818414,
                "tempo": 120.0
            },
            {
                "start_time": 48.80227272727272,
                "end_time": 49.04772727272727,
                "pitch": 31,
                "velocity": 64,
                "duration": 0.2454545454545496,
                "tempo": 120.0
            },
            {
                "start_time": 49.04772727272727,
                "end_time": 49.277272727272724,
                "pitch": 43,
                "velocity": 64,
                "duration": 0.22954545454545183,
                "tempo": 120.0
            },
            {
                "start_time": 49.277272727272724,
                "end_time": 49.52954545454545,
                "pitch": 31,
                "velocity": 64,
                "duration": 0.2522727272727252,
                "tempo": 120.0
            },
            {
                "start_time": 49.52954545454545,
                "end_time": 49.76590909090909,
                "pitch": 43,
                "velocity": 64,
                "duration": 0.23636363636364166,
                "tempo": 120.0
            },
            {
                "start_time": 49.768181818181816,
                "end_time": 50.00681818181818,
                "pitch": 31,
                "velocity": 64,
                "duration": 0.23863636363636687,
                "tempo": 120.0
            },
            {
                "start_time": 50.00681818181818,
                "end_time": 50.26363636363636,
                "pitch": 43,
                "velocity": 64,
                "duration": 0.2568181818181756,
                "tempo": 120.0
            },
            {
                "start_time": 50.26363636363636,
                "end_time": 50.49545454545454,
                "pitch": 29,
                "velocity": 101,
                "duration": 0.23181818181818414,
                "tempo": 120.0
            },
            {
                "start_time": 50.49545454545454,
                "end_time": 50.75,
                "pitch": 29,
                "velocity": 101,
                "duration": 0.2545454545454575,
                "tempo": 120.0
            },
            {
                "start_time": 50.75,
                "end_time": 50.98863636363636,
                "pitch": 41,
                "velocity": 101,
                "duration": 0.23863636363635976,
                "tempo": 120.0
            },
            {
                "start_time": 50.98863636363636,
                "end_time": 51.22727272727273,
                "pitch": 29,
                "velocity": 101,
                "duration": 0.23863636363636687,
                "tempo": 120.0
            },
            {
                "start_time": 51.22727272727273,
                "end_time": 51.46818181818182,
                "pitch": 29,
                "velocity": 101,
                "duration": 0.24090909090909207,
                "tempo": 120.0
            },
            {
                "start_time": 51.46818181818182,
                "end_time": 51.69318181818181,
                "pitch": 29,
                "velocity": 101,
                "duration": 0.22499999999999432,
                "tempo": 120.0
            },
            {
                "start_time": 51.69318181818181,
                "end_time": 51.949999999999996,
                "pitch": 41,
                "velocity": 101,
                "duration": 0.2568181818181827,
                "tempo": 120.0
            },
            {
                "start_time": 51.949999999999996,
                "end_time": 52.18863636363636,
                "pitch": 29,
                "velocity": 101,
                "duration": 0.23863636363636687,
                "tempo": 120.0
            },
            {
                "start_time": 52.18863636363636,
                "end_time": 52.42045454545454,
                "pitch": 29,
                "velocity": 101,
                "duration": 0.23181818181817704,
                "tempo": 120.0
            },
            {
                "start_time": 52.42272727272727,
                "end_time": 52.67272727272727,
                "pitch": 29,
                "velocity": 101,
                "duration": 0.25,
                "tempo": 120.0
            },
            {
                "start_time": 52.67272727272727,
                "end_time": 52.91136363636363,
                "pitch": 41,
                "velocity": 101,
                "duration": 0.23863636363635976,
                "tempo": 120.0
            },
            {
                "start_time": 52.91136363636363,
                "end_time": 53.168181818181814,
                "pitch": 29,
                "velocity": 101,
                "duration": 0.2568181818181827,
                "tempo": 120.0
            },
            {
                "start_time": 53.168181818181814,
                "end_time": 53.402272727272724,
                "pitch": 29,
                "velocity": 101,
                "duration": 0.23409090909090935,
                "tempo": 120.0
            },
            {
                "start_time": 53.402272727272724,
                "end_time": 53.63863636363636,
                "pitch": 29,
                "velocity": 101,
                "duration": 0.23636363636363455,
                "tempo": 120.0
            },
            {
                "start_time": 53.63863636363636,
                "end_time": 53.88636363636363,
                "pitch": 41,
                "velocity": 101,
                "duration": 0.2477272727272748,
                "tempo": 120.0
            },
            {
                "start_time": 53.88636363636363,
                "end_time": 54.115909090909085,
                "pitch": 29,
                "velocity": 101,
                "duration": 0.22954545454545183,
                "tempo": 120.0
            },
            {
                "start_time": 54.115909090909085,
                "end_time": 54.365909090909085,
                "pitch": 28,
                "velocity": 101,
                "duration": 0.25,
                "tempo": 120.0
            },
            {
                "start_time": 54.365909090909085,
                "end_time": 54.599999999999994,
                "pitch": 28,
                "velocity": 101,
                "duration": 0.23409090909090935,
                "tempo": 120.0
            },
            {
                "start_time": 54.599999999999994,
                "end_time": 54.83863636363636,
                "pitch": 40,
                "velocity": 101,
                "duration": 0.23863636363636687,
                "tempo": 120.0
            },
            {
                "start_time": 54.83863636363636,
                "end_time": 55.095454545454544,
                "pitch": 28,
                "velocity": 101,
                "duration": 0.2568181818181827,
                "tempo": 120.0
            },
            {
                "start_time": 55.095454545454544,
                "end_time": 55.32727272727273,
                "pitch": 28,
                "velocity": 101,
                "duration": 0.23181818181818414,
                "tempo": 120.0
            },
            {
                "start_time": 55.32727272727273,
                "end_time": 55.57954545454545,
                "pitch": 28,
                "velocity": 101,
                "duration": 0.2522727272727252,
                "tempo": 120.0
            },
            {
                "start_time": 55.57954545454545,
                "end_time": 55.81818181818181,
                "pitch": 40,
                "velocity": 101,
                "duration": 0.23863636363635976,
                "tempo": 120.0
            },
            {
                "start_time": 55.820454545454545,
                "end_time": 56.059090909090905,
                "pitch": 28,
                "velocity": 101,
                "duration": 0.23863636363635976,
                "tempo": 120.0
            },
            {
                "start_time": 56.059090909090905,
                "end_time": 56.29772727272727,
                "pitch": 27,
                "velocity": 101,
                "duration": 0.23863636363636687,
                "tempo": 120.0
            },
            {
                "start_time": 56.29772727272727,
                "end_time": 56.52272727272727,
                "pitch": 27,
                "velocity": 101,
                "duration": 0.22500000000000142,
                "tempo": 120.0
            },
            {
                "start_time": 56.52272727272727,
                "end_time": 56.77272727272727,
                "pitch": 39,
                "velocity": 101,
                "duration": 0.25,
                "tempo": 120.0
            },
            {
                "start_time": 56.77272727272727,
                "end_time": 57.006818181818176,
                "pitch": 27,
                "velocity": 101,
                "duration": 0.23409090909090224,
                "tempo": 120.0
            },
            {
                "start_time": 57.006818181818176,
                "end_time": 57.24545454545454,
                "pitch": 27,
                "velocity": 101,
                "duration": 0.23863636363636687,
                "tempo": 120.0
            },
            {
                "start_time": 57.24545454545454,
                "end_time": 57.502272727272725,
                "pitch": 27,
                "velocity": 101,
                "duration": 0.2568181818181827,
                "tempo": 120.0
            },
            {
                "start_time": 57.502272727272725,
                "end_time": 57.73863636363636,
                "pitch": 39,
                "velocity": 101,
                "duration": 0.23636363636363455,
                "tempo": 120.0
            },
            {
                "start_time": 57.73863636363636,
                "end_time": 57.990909090909085,
                "pitch": 27,
                "velocity": 101,
                "duration": 0.2522727272727252,
                "tempo": 120.0
            },
            {
                "start_time": 57.99318181818182,
                "end_time": 58.22954545454545,
                "pitch": 33,
                "velocity": 101,
                "duration": 0.23636363636363455,
                "tempo": 120.0
            },
            {
                "start_time": 58.22954545454545,
                "end_time": 58.470454545454544,
                "pitch": 33,
                "velocity": 101,
                "duration": 0.24090909090909207,
                "tempo": 120.0
            },
            {
                "start_time": 58.470454545454544,
                "end_time": 58.715909090909086,
                "pitch": 45,
                "velocity": 101,
                "duration": 0.24545454545454248,
                "tempo": 120.0
            },
            {
                "start_time": 58.715909090909086,
                "end_time": 58.945454545454545,
                "pitch": 33,
                "velocity": 101,
                "duration": 0.22954545454545894,
                "tempo": 120.0
            },
            {
                "start_time": 58.945454545454545,
                "end_time": 59.19772727272727,
                "pitch": 33,
                "velocity": 101,
                "duration": 0.2522727272727252,
                "tempo": 120.0
            },
            {
                "start_time": 59.19772727272727,
                "end_time": 59.434090909090905,
                "pitch": 33,
                "velocity": 101,
                "duration": 0.23636363636363455,
                "tempo": 120.0
            },
            {
                "start_time": 59.434090909090905,
                "end_time": 59.668181818181814,
                "pitch": 45,
                "velocity": 101,
                "duration": 0.23409090909090935,
                "tempo": 120.0
            },
            {
                "start_time": 59.668181818181814,
                "end_time": 59.918181818181814,
                "pitch": 33,
                "velocity": 101,
                "duration": 0.25,
                "tempo": 120.0
            },
            {
                "start_time": 59.918181818181814,
                "end_time": 60.15681818181818,
                "pitch": 32,
                "velocity": 101,
                "duration": 0.23863636363636687,
                "tempo": 120.0
            },
            {
                "start_time": 60.15681818181818,
                "end_time": 60.413636363636364,
                "pitch": 32,
                "velocity": 101,
                "duration": 0.2568181818181827,
                "tempo": 120.0
            },
            {
                "start_time": 60.413636363636364,
                "end_time": 60.647727272727266,
                "pitch": 44,
                "velocity": 101,
                "duration": 0.23409090909090224,
                "tempo": 120.0
            },
            {
                "start_time": 60.647727272727266,
                "end_time": 60.88409090909091,
                "pitch": 32,
                "velocity": 101,
                "duration": 0.23636363636364166,
                "tempo": 120.0
            },
            {
                "start_time": 60.88409090909091,
                "end_time": 61.12954545454545,
                "pitch": 32,
                "velocity": 101,
                "duration": 0.24545454545454248,
                "tempo": 120.0
            },
            {
                "start_time": 61.12954545454545,
                "end_time": 61.361363636363635,
                "pitch": 32,
                "velocity": 101,
                "duration": 0.23181818181818414,
                "tempo": 120.0
            },
            {
                "start_time": 61.361363636363635,
                "end_time": 61.611363636363635,
                "pitch": 44,
                "velocity": 101,
                "duration": 0.25,
                "tempo": 120.0
            },
            {
                "start_time": 61.611363636363635,
                "end_time": 61.845454545454544,
                "pitch": 32,
                "velocity": 101,
                "duration": 0.23409090909090935,
                "tempo": 120.0
            },
            {
                "start_time": 61.845454545454544,
                "end_time": 62.08181818181818,
                "pitch": 35,
                "velocity": 101,
                "duration": 0.23636363636363455,
                "tempo": 120.0
            },
            {
                "start_time": 62.084090909090904,
                "end_time": 62.340909090909086,
                "pitch": 35,
                "velocity": 101,
                "duration": 0.2568181818181827,
                "tempo": 120.0
            },
            {
                "start_time": 62.340909090909086,
                "end_time": 62.57272727272727,
                "pitch": 47,
                "velocity": 101,
                "duration": 0.23181818181818414,
                "tempo": 120.0
            },
            {
                "start_time": 62.57272727272727,
                "end_time": 62.824999999999996,
                "pitch": 35,
                "velocity": 101,
                "duration": 0.2522727272727252,
                "tempo": 120.0
            },
            {
                "start_time": 62.824999999999996,
                "end_time": 63.059090909090905,
                "pitch": 35,
                "velocity": 101,
                "duration": 0.23409090909090935,
                "tempo": 120.0
            },
            {
                "start_time": 63.059090909090905,
                "end_time": 63.29545454545454,
                "pitch": 35,
                "velocity": 101,
                "duration": 0.23636363636363455,
                "tempo": 120.0
            },
            {
                "start_time": 63.29545454545454,
                "end_time": 63.543181818181814,
                "pitch": 47,
                "velocity": 101,
                "duration": 0.2477272727272748,
                "tempo": 120.0
            },
            {
                "start_time": 63.543181818181814,
                "end_time": 63.772727272727266,
                "pitch": 35,
                "velocity": 101,
                "duration": 0.22954545454545183,
                "tempo": 120.0
            },
            {
                "start_time": 63.772727272727266,
                "end_time": 64.02045454545454,
                "pitch": 24,
                "velocity": 101,
                "duration": 0.2477272727272748,
                "tempo": 120.0
            },
            {
                "start_time": 64.02045454545454,
                "end_time": 64.25454545454545,
                "pitch": 24,
                "velocity": 101,
                "duration": 0.23409090909090935,
                "tempo": 120.0
            },
            {
                "start_time": 64.25454545454545,
                "end_time": 64.49545454545454,
                "pitch": 36,
                "velocity": 101,
                "duration": 0.24090909090908497,
                "tempo": 120.0
            },
            {
                "start_time": 64.49545454545454,
                "end_time": 64.75,
                "pitch": 24,
                "velocity": 101,
                "duration": 0.2545454545454646,
                "tempo": 120.0
            },
            {
                "start_time": 64.75,
                "end_time": 64.98409090909091,
                "pitch": 24,
                "velocity": 101,
                "duration": 0.23409090909090935,
                "tempo": 120.0
            },
            {
                "start_time": 64.98409090909091,
                "end_time": 65.23409090909091,
                "pitch": 24,
                "velocity": 101,
                "duration": 0.25,
                "tempo": 120.0
            },
            {
                "start_time": 65.23409090909091,
                "end_time": 65.47045454545454,
                "pitch": 36,
                "velocity": 101,
                "duration": 0.23636363636363455,
                "tempo": 120.0
            },
            {
                "start_time": 65.47045454545454,
                "end_time": 65.70681818181818,
                "pitch": 24,
                "velocity": 101,
                "duration": 0.23636363636363455,
                "tempo": 120.0
            },
            {
                "start_time": 65.70681818181818,
                "end_time": 65.95227272727273,
                "pitch": 28,
                "velocity": 101,
                "duration": 0.2454545454545496,
                "tempo": 120.0
            },
            {
                "start_time": 65.95227272727273,
                "end_time": 66.18181818181817,
                "pitch": 28,
                "velocity": 101,
                "duration": 0.22954545454544473,
                "tempo": 120.0
            },
            {
                "start_time": 66.18181818181817,
                "end_time": 66.43863636363636,
                "pitch": 40,
                "velocity": 101,
                "duration": 0.25681818181818983,
                "tempo": 120.0
            },
            {
                "start_time": 66.43863636363636,
                "end_time": 66.67727272727272,
                "pitch": 28,
                "velocity": 101,
                "duration": 0.23863636363635976,
                "tempo": 120.0
            },
            {
                "start_time": 66.67954545454545,
                "end_time": 66.91136363636363,
                "pitch": 28,
                "velocity": 101,
                "duration": 0.23181818181818414,
                "tempo": 120.0
            },
            {
                "start_time": 66.91363636363636,
                "end_time": 67.16590909090908,
                "pitch": 28,
                "velocity": 101,
                "duration": 0.2522727272727252,
                "tempo": 120.0
            },
            {
                "start_time": 67.16590909090908,
                "end_time": 67.40227272727273,
                "pitch": 40,
                "velocity": 101,
                "duration": 0.23636363636364877,
                "tempo": 120.0
            },
            {
                "start_time": 67.40227272727273,
                "end_time": 67.65454545454546,
                "pitch": 28,
                "velocity": 101,
                "duration": 0.2522727272727252,
                "tempo": 120.0
            },
            {
                "start_time": 67.65454545454546,
                "end_time": 67.89318181818182,
                "pitch": 28,
                "velocity": 101,
                "duration": 0.23863636363635976,
                "tempo": 120.0
            },
            {
                "start_time": 67.89318181818182,
                "end_time": 68.13181818181818,
                "pitch": 28,
                "velocity": 101,
                "duration": 0.23863636363635976,
                "tempo": 120.0
            },
            {
                "start_time": 68.13181818181818,
                "end_time": 68.37954545454545,
                "pitch": 40,
                "velocity": 101,
                "duration": 0.2477272727272748,
                "tempo": 120.0
            },
            {
                "start_time": 68.37954545454545,
                "end_time": 68.60909090909091,
                "pitch": 28,
                "velocity": 101,
                "duration": 0.22954545454545894,
                "tempo": 120.0
            },
            {
                "start_time": 68.60909090909091,
                "end_time": 68.85909090909091,
                "pitch": 28,
                "velocity": 101,
                "duration": 0.25,
                "tempo": 120.0
            },
            {
                "start_time": 68.85909090909091,
                "end_time": 69.09545454545454,
                "pitch": 28,
                "velocity": 101,
                "duration": 0.23636363636363455,
                "tempo": 120.0
            },
            {
                "start_time": 69.09545454545454,
                "end_time": 69.33181818181818,
                "pitch": 40,
                "velocity": 101,
                "duration": 0.23636363636363455,
                "tempo": 120.0
            },
            {
                "start_time": 69.33181818181818,
                "end_time": 69.5840909090909,
                "pitch": 28,
                "velocity": 101,
                "duration": 0.2522727272727252,
                "tempo": 120.0
            },
            {
                "start_time": 69.5840909090909,
                "end_time": 69.82272727272726,
                "pitch": 28,
                "velocity": 101,
                "duration": 0.23863636363635976,
                "tempo": 120.0
            },
            {
                "start_time": 69.82272727272726,
                "end_time": 70.07954545454545,
                "pitch": 28,
                "velocity": 101,
                "duration": 0.25681818181818983,
                "tempo": 120.0
            },
            {
                "start_time": 70.07954545454545,
                "end_time": 70.31590909090909,
                "pitch": 40,
                "velocity": 101,
                "duration": 0.23636363636363455,
                "tempo": 120.0
            },
            {
                "start_time": 70.31590909090909,
                "end_time": 70.55,
                "pitch": 28,
                "velocity": 101,
                "duration": 0.23409090909090935,
                "tempo": 120.0
            },
            {
                "start_time": 70.55,
                "end_time": 70.79545454545455,
                "pitch": 28,
                "velocity": 101,
                "duration": 0.2454545454545496,
                "tempo": 120.0
            },
            {
                "start_time": 70.79545454545455,
                "end_time": 71.02727272727273,
                "pitch": 28,
                "velocity": 101,
                "duration": 0.23181818181818414,
                "tempo": 120.0
            },
            {
                "start_time": 71.02727272727273,
                "end_time": 71.27954545454546,
                "pitch": 40,
                "velocity": 101,
                "duration": 0.2522727272727252,
                "tempo": 120.0
            },
            {
                "start_time": 71.27954545454546,
                "end_time": 71.51590909090909,
                "pitch": 28,
                "velocity": 101,
                "duration": 0.23636363636363455,
                "tempo": 120.0
            },
            {
                "start_time": 71.51590909090909,
                "end_time": 71.75454545454545,
                "pitch": 27,
                "velocity": 101,
                "duration": 0.23863636363635976,
                "tempo": 120.0
            },
            {
                "start_time": 71.75454545454545,
                "end_time": 72.01136363636363,
                "pitch": 27,
                "velocity": 101,
                "duration": 0.2568181818181756,
                "tempo": 120.0
            },
            {
                "start_time": 72.01136363636363,
                "end_time": 72.24545454545454,
                "pitch": 39,
                "velocity": 101,
                "duration": 0.23409090909090935,
                "tempo": 120.0
            },
            {
                "start_time": 72.24545454545454,
                "end_time": 72.5,
                "pitch": 27,
                "velocity": 101,
                "duration": 0.2545454545454646,
                "tempo": 120.0
            },
            {
                "start_time": 72.5,
                "end_time": 72.73181818181818,
                "pitch": 27,
                "velocity": 101,
                "duration": 0.23181818181818414,
                "tempo": 120.0
            },
            {
                "start_time": 72.73181818181818,
                "end_time": 72.9659090909091,
                "pitch": 27,
                "velocity": 101,
                "duration": 0.23409090909090935,
                "tempo": 120.0
            },
            {
                "start_time": 72.9659090909091,
                "end_time": 73.21363636363635,
                "pitch": 39,
                "velocity": 101,
                "duration": 0.24772727272726058,
                "tempo": 120.0
            },
            {
                "start_time": 73.21363636363635,
                "end_time": 73.44318181818181,
                "pitch": 27,
                "velocity": 101,
                "duration": 0.22954545454545894,
                "tempo": 120.0
            },
            {
                "start_time": 73.44318181818181,
                "end_time": 73.69772727272726,
                "pitch": 26,
                "velocity": 101,
                "duration": 0.2545454545454504,
                "tempo": 120.0
            },
            {
                "start_time": 73.69772727272726,
                "end_time": 73.93863636363636,
                "pitch": 26,
                "velocity": 101,
                "duration": 0.24090909090909918,
                "tempo": 120.0
            },
            {
                "start_time": 73.93863636363636,
                "end_time": 74.17272727272727,
                "pitch": 38,
                "velocity": 101,
                "duration": 0.23409090909090935,
                "tempo": 120.0
            },
            {
                "start_time": 74.17272727272727,
                "end_time": 74.425,
                "pitch": 26,
                "velocity": 101,
                "duration": 0.2522727272727252,
                "tempo": 120.0
            },
            {
                "start_time": 74.425,
                "end_time": 74.6590909090909,
                "pitch": 26,
                "velocity": 101,
                "duration": 0.23409090909090935,
                "tempo": 120.0
            },
            {
                "start_time": 74.6590909090909,
                "end_time": 74.9090909090909,
                "pitch": 26,
                "velocity": 101,
                "duration": 0.25,
                "tempo": 120.0
            },
            {
                "start_time": 74.9090909090909,
                "end_time": 75.14772727272727,
                "pitch": 38,
                "velocity": 101,
                "duration": 0.23863636363635976,
                "tempo": 120.0
            },
            {
                "start_time": 75.14999999999999,
                "end_time": 75.38863636363637,
                "pitch": 26,
                "velocity": 101,
                "duration": 0.23863636363637397,
                "tempo": 120.0
            },
            {
                "start_time": 75.39090909090909,
                "end_time": 75.6340909090909,
                "pitch": 32,
                "velocity": 101,
                "duration": 0.24318181818181017,
                "tempo": 120.0
            },
            {
                "start_time": 75.6340909090909,
                "end_time": 75.86590909090908,
                "pitch": 32,
                "velocity": 101,
                "duration": 0.23181818181818414,
                "tempo": 120.0
            },
            {
                "start_time": 75.86590909090908,
                "end_time": 76.11590909090908,
                "pitch": 44,
                "velocity": 101,
                "duration": 0.25,
                "tempo": 120.0
            },
            {
                "start_time": 76.11590909090908,
                "end_time": 76.35,
                "pitch": 32,
                "velocity": 101,
                "duration": 0.23409090909090935,
                "tempo": 120.0
            },
            {
                "start_time": 76.35,
                "end_time": 76.5840909090909,
                "pitch": 32,
                "velocity": 101,
                "duration": 0.23409090909090935,
                "tempo": 120.0
            },
            {
                "start_time": 76.5840909090909,
                "end_time": 76.83636363636363,
                "pitch": 32,
                "velocity": 101,
                "duration": 0.2522727272727252,
                "tempo": 120.0
            },
            {
                "start_time": 76.83636363636363,
                "end_time": 77.07727272727273,
                "pitch": 44,
                "velocity": 101,
                "duration": 0.24090909090909918,
                "tempo": 120.0
            },
            {
                "start_time": 77.07727272727273,
                "end_time": 77.33181818181818,
                "pitch": 32,
                "velocity": 101,
                "duration": 0.2545454545454504,
                "tempo": 120.0
            },
            {
                "start_time": 77.33181818181818,
                "end_time": 77.56590909090909,
                "pitch": 31,
                "velocity": 101,
                "duration": 0.23409090909090935,
                "tempo": 120.0
            },
            {
                "start_time": 77.56590909090909,
                "end_time": 77.8,
                "pitch": 31,
                "velocity": 101,
                "duration": 0.23409090909090935,
                "tempo": 120.0
            },
            {
                "start_time": 77.8,
                "end_time": 78.04545454545455,
                "pitch": 43,
                "velocity": 101,
                "duration": 0.2454545454545496,
                "tempo": 120.0
            },
            {
                "start_time": 78.04545454545455,
                "end_time": 78.27499999999999,
                "pitch": 31,
                "velocity": 101,
                "duration": 0.22954545454544473,
                "tempo": 120.0
            },
            {
                "start_time": 78.27499999999999,
                "end_time": 78.52727272727272,
                "pitch": 31,
                "velocity": 101,
                "duration": 0.2522727272727252,
                "tempo": 120.0
            },
            {
                "start_time": 78.52727272727272,
                "end_time": 78.76363636363637,
                "pitch": 31,
                "velocity": 101,
                "duration": 0.23636363636364877,
                "tempo": 120.0
            },
            {
                "start_time": 78.76363636363637,
                "end_time": 79.00454545454545,
                "pitch": 43,
                "velocity": 101,
                "duration": 0.24090909090908497,
                "tempo": 120.0
            },
            {
                "start_time": 79.00454545454545,
                "end_time": 79.2590909090909,
                "pitch": 31,
                "velocity": 101,
                "duration": 0.2545454545454504,
                "tempo": 120.0
            },
            {
                "start_time": 79.26136363636363,
                "end_time": 79.49318181818181,
                "pitch": 34,
                "velocity": 101,
                "duration": 0.23181818181818414,
                "tempo": 120.0
            },
            {
                "start_time": 79.49545454545454,
                "end_time": 79.74772727272727,
                "pitch": 34,
                "velocity": 101,
                "duration": 0.2522727272727394,
                "tempo": 120.0
            },
            {
                "start_time": 79.74772727272727,
                "end_time": 79.98181818181818,
                "pitch": 46,
                "velocity": 101,
                "duration": 0.23409090909090935,
                "tempo": 120.0
            },
            {
                "start_time": 79.98181818181818,
                "end_time": 80.21818181818182,
                "pitch": 34,
                "velocity": 101,
                "duration": 0.23636363636363455,
                "tempo": 120.0
            },
            {
                "start_time": 80.21818181818182,
                "end_time": 80.46363636363635,
                "pitch": 34,
                "velocity": 101,
                "duration": 0.24545454545453538,
                "tempo": 120.0
            },
            {
                "start_time": 80.46363636363635,
                "end_time": 80.69545454545454,
                "pitch": 34,
                "velocity": 101,
                "duration": 0.23181818181818414,
                "tempo": 120.0
            },
            {
                "start_time": 80.69545454545454,
                "end_time": 80.95227272727273,
                "pitch": 46,
                "velocity": 101,
                "duration": 0.25681818181818983,
                "tempo": 120.0
            },
            {
                "start_time": 80.95227272727273,
                "end_time": 81.19090909090909,
                "pitch": 34,
                "velocity": 101,
                "duration": 0.23863636363635976,
                "tempo": 120.0
            },
            {
                "start_time": 81.19090909090909,
                "end_time": 81.425,
                "pitch": 23,
                "velocity": 101,
                "duration": 0.23409090909090935,
                "tempo": 120.0
            },
            {
                "start_time": 81.425,
                "end_time": 81.67727272727272,
                "pitch": 23,
                "velocity": 101,
                "duration": 0.2522727272727252,
                "tempo": 120.0
            },
            {
                "start_time": 81.67727272727272,
                "end_time": 81.91363636363636,
                "pitch": 35,
                "velocity": 101,
                "duration": 0.23636363636363455,
                "tempo": 120.0
            },
            {
                "start_time": 81.91363636363636,
                "end_time": 82.16590909090908,
                "pitch": 23,
                "velocity": 101,
                "duration": 0.2522727272727252,
                "tempo": 120.0
            },
            {
                "start_time": 82.16590909090908,
                "end_time": 82.39772727272727,
                "pitch": 23,
                "velocity": 101,
                "duration": 0.23181818181818414,
                "tempo": 120.0
            },
            {
                "start_time": 82.39772727272727,
                "end_time": 82.63181818181818,
                "pitch": 23,
                "velocity": 101,
                "duration": 0.23409090909090935,
                "tempo": 120.0
            },
            {
                "start_time": 82.63181818181818,
                "end_time": 82.87954545454545,
                "pitch": 35,
                "velocity": 101,
                "duration": 0.2477272727272748,
                "tempo": 120.0
            },
            {
                "start_time": 82.87954545454545,
                "end_time": 83.10909090909091,
                "pitch": 23,
                "velocity": 101,
                "duration": 0.22954545454545894,
                "tempo": 120.0
            },
            {
                "start_time": 83.10909090909091,
                "end_time": 83.36363636363636,
                "pitch": 27,
                "velocity": 101,
                "duration": 0.2545454545454504,
                "tempo": 120.0
            },
            {
                "start_time": 83.36590909090908,
                "end_time": 83.60454545454544,
                "pitch": 27,
                "velocity": 101,
                "duration": 0.23863636363635976,
                "tempo": 120.0
            },
            {
                "start_time": 83.60454545454544,
                "end_time": 83.8409090909091,
                "pitch": 39,
                "velocity": 101,
                "duration": 0.23636363636364877,
                "tempo": 120.0
            },
            {
                "start_time": 83.8409090909091,
                "end_time": 84.09318181818182,
                "pitch": 27,
                "velocity": 101,
                "duration": 0.2522727272727252,
                "tempo": 120.0
            },
            {
                "start_time": 84.09318181818182,
                "end_time": 84.325,
                "pitch": 27,
                "velocity": 101,
                "duration": 0.23181818181818414,
                "tempo": 120.0
            },
            {
                "start_time": 84.325,
                "end_time": 84.57727272727273,
                "pitch": 27,
                "velocity": 101,
                "duration": 0.2522727272727252,
                "tempo": 120.0
            },
            {
                "start_time": 84.57727272727273,
                "end_time": 84.81590909090909,
                "pitch": 39,
                "velocity": 101,
                "duration": 0.23863636363635976,
                "tempo": 120.0
            },
            {
                "start_time": 84.81590909090909,
                "end_time": 85.05681818181817,
                "pitch": 27,
                "velocity": 101,
                "duration": 0.24090909090908497,
                "tempo": 120.0
            }
        ]
    }
}