{
    "track_id": "03 Pit Approach",
    "mood": "happy",
    "instruments": {
        "Electric Piano 1": [
            {
                "start_time": 0.02727272727272727,
                "end_time": 0.11136363636363636,
                "pitch": 36,
                "velocity": 80,
                "duration": 0.08409090909090909,
                "tempo": 120.0
            },
            {
                "start_time": 0.17954545454545454,
                "end_time": 0.2659090909090909,
                "pitch": 48,
                "velocity": 80,
                "duration": 0.08636363636363634,
                "tempo": 120.0
            },
            {
                "start_time": 0.33409090909090905,
                "end_time": 0.43636363636363634,
                "pitch": 48,
                "velocity": 80,
                "duration": 0.10227272727272729,
                "tempo": 120.0
            },
            {
                "start_time": 0.5045454545454545,
                "end_time": 0.6931818181818181,
                "pitch": 48,
                "velocity": 80,
                "duration": 0.1886363636363636,
                "tempo": 120.0
            },
            {
                "start_time": 0.8136363636363636,
                "end_time": 0.8977272727272727,
                "pitch": 48,
                "velocity": 80,
                "duration": 0.0840909090909091,
                "tempo": 120.0
            },
            {
                "start_time": 0.9659090909090908,
                "end_time": 1.1409090909090909,
                "pitch": 36,
                "velocity": 80,
                "duration": 0.17500000000000004,
                "tempo": 120.0
            },
            {
                "start_time": 1.2704545454545455,
                "end_time": 1.3477272727272727,
                "pitch": 48,
                "velocity": 80,
                "duration": 0.07727272727272716,
                "tempo": 120.0
            },
            {
                "start_time": 1.4136363636363636,
                "end_time": 1.4977272727272726,
                "pitch": 43,
                "velocity": 80,
                "duration": 0.084090909090909,
                "tempo": 120.0
            },
            {
                "start_time": 1.565909090909091,
                "end_time": 1.6681818181818182,
                "pitch": 41,
                "velocity": 80,
                "duration": 0.10227272727272729,
                "tempo": 120.0
            },
            {
                "start_time": 1.7386363636363635,
                "end_time": 1.8227272727272725,
                "pitch": 39,
                "velocity": 80,
                "duration": 0.084090909090909,
                "tempo": 120.0
            },
            {
                "start_time": 1.8909090909090909,
                "end_time": 1.9749999999999999,
                "pitch": 36,
                "velocity": 80,
                "duration": 0.084090909090909,
                "tempo": 120.0
            },
            {
                "start_time": 2.0454545454545454,
                "end_time": 2.231818181818182,
                "pitch": 48,
                "velocity": 80,
                "duration": 0.1863636363636365,
                "tempo": 120.0
            },
            {
                "start_time": 2.352272727272727,
                "end_time": 2.5318181818181817,
                "pitch": 48,
                "velocity": 80,
                "duration": 0.17954545454545467,
                "tempo": 120.0
            },
            {
                "start_time": 2.6636363636363636,
                "end_time": 2.743181818181818,
                "pitch": 48,
                "velocity": 80,
                "duration": 0.07954545454545459,
                "tempo": 120.0
            },
            {
                "start_time": 2.809090909090909,
                "end_time": 2.9909090909090907,
                "pitch": 36,
                "velocity": 80,
                "duration": 0.18181818181818166,
                "tempo": 120.0
            },
            {
                "start_time": 3.127272727272727,
                "end_time": 3.209090909090909,
                "pitch": 48,
                "velocity": 80,
                "duration": 0.08181818181818201,
                "tempo": 120.0
            },
            {
                "start_time": 3.277272727272727,
                "end_time": 3.3613636363636363,
                "pitch": 48,
                "velocity": 80,
                "duration": 0.08409090909090944,
                "tempo": 120.0
            },
            {
                "start_time": 3.4295454545454542,
                "end_time": 3.5159090909090907,
                "pitch": 36,
                "velocity": 80,
                "duration": 0.08636363636363642,
                "tempo": 120.0
            },
            {
                "start_time": 3.584090909090909,
                "end_time": 3.686363636363636,
                "pitch": 48,
                "velocity": 80,
                "duration": 0.10227272727272707,
                "tempo": 120.0
            },
            {
                "start_time": 3.7545454545454544,
                "end_time": 3.836363636363636,
                "pitch": 36,
                "velocity": 80,
                "duration": 0.08181818181818157,
                "tempo": 120.0
            },
            {
                "start_time": 3.9045454545454543,
                "end_time": 3.9863636363636363,
                "pitch": 48,
                "velocity": 80,
                "duration": 0.08181818181818201,
                "tempo": 120.0
            },
            {
                "start_time": 4.054545454545455,
                "end_time": 4.138636363636364,
                "pitch": 48,
                "velocity": 80,
                "duration": 0.084090909090909,
                "tempo": 120.0
            },
            {
                "start_time": 4.204545454545454,
                "end_time": 4.384090909090909,
                "pitch": 48,
                "velocity": 80,
                "duration": 0.17954545454545467,
                "tempo": 120.0
            },
            {
                "start_time": 4.515909090909091,
                "end_time": 4.595454545454545,
                "pitch": 48,
                "velocity": 80,
                "duration": 0.07954545454545414,
                "tempo": 120.0
            },
            {
                "start_time": 4.661363636363636,
                "end_time": 4.847727272727273,
                "pitch": 36,
                "velocity": 80,
                "duration": 0.1863636363636365,
                "tempo": 120.0
            },
            {
                "start_time": 4.970454545454545,
                "end_time": 5.070454545454545,
                "pitch": 48,
                "velocity": 80,
                "duration": 0.10000000000000053,
                "tempo": 120.0
            },
            {
                "start_time": 5.140909090909091,
                "end_time": 5.225,
                "pitch": 43,
                "velocity": 80,
                "duration": 0.084090909090909,
                "tempo": 120.0
            },
            {
                "start_time": 5.293181818181818,
                "end_time": 5.377272727272727,
                "pitch": 41,
                "velocity": 80,
                "duration": 0.084090909090909,
                "tempo": 120.0
            },
            {
                "start_time": 5.447727272727272,
                "end_time": 5.531818181818181,
                "pitch": 39,
                "velocity": 80,
                "duration": 0.084090909090909,
                "tempo": 120.0
            },
            {
                "start_time": 5.602272727272727,
                "end_time": 5.695454545454545,
                "pitch": 36,
                "velocity": 80,
                "duration": 0.0931818181818187,
                "tempo": 120.0
            },
            {
                "start_time": 5.761363636363636,
                "end_time": 5.934090909090909,
                "pitch": 48,
                "velocity": 80,
                "duration": 0.17272727272727284,
                "tempo": 120.0
            },
            {
                "start_time": 6.047727272727273,
                "end_time": 6.2340909090909085,
                "pitch": 48,
                "velocity": 80,
                "duration": 0.18636363636363562,
                "tempo": 120.0
            },
            {
                "start_time": 6.3545454545454545,
                "end_time": 6.456818181818181,
                "pitch": 48,
                "velocity": 80,
                "duration": 0.10227272727272663,
                "tempo": 120.0
            },
            {
                "start_time": 6.5249999999999995,
                "end_time": 6.709090909090909,
                "pitch": 36,
                "velocity": 80,
                "duration": 0.18409090909090953,
                "tempo": 120.0
            },
            {
                "start_time": 6.827272727272727,
                "end_time": 6.909090909090909,
                "pitch": 48,
                "velocity": 80,
                "duration": 0.08181818181818201,
                "tempo": 120.0
            },
            {
                "start_time": 6.977272727272727,
                "end_time": 7.072727272727272,
                "pitch": 41,
                "velocity": 80,
                "duration": 0.09545454545454568,
                "tempo": 120.0
            },
            {
                "start_time": 7.138636363636364,
                "end_time": 7.220454545454545,
                "pitch": 43,
                "velocity": 80,
                "duration": 0.08181818181818112,
                "tempo": 120.0
            },
            {
                "start_time": 7.286363636363636,
                "end_time": 7.36590909090909,
                "pitch": 46,
                "velocity": 80,
                "duration": 0.07954545454545414,
                "tempo": 120.0
            },
            {
                "start_time": 7.434090909090909,
                "end_time": 7.518181818181818,
                "pitch": 36,
                "velocity": 80,
                "duration": 0.084090909090909,
                "tempo": 120.0
            },
            {
                "start_time": 7.586363636363636,
                "end_time": 7.6886363636363635,
                "pitch": 48,
                "velocity": 80,
                "duration": 0.10227272727272751,
                "tempo": 120.0
            },
            {
                "start_time": 7.756818181818182,
                "end_time": 7.840909090909091,
                "pitch": 48,
                "velocity": 80,
                "duration": 0.084090909090909,
                "tempo": 120.0
            },
            {
                "start_time": 7.911363636363636,
                "end_time": 8.093181818181817,
                "pitch": 48,
                "velocity": 80,
                "duration": 0.18181818181818077,
                "tempo": 120.0
            },
            {
                "start_time": 8.211363636363636,
                "end_time": 8.293181818181818,
                "pitch": 48,
                "velocity": 80,
                "duration": 0.08181818181818201,
                "tempo": 120.0
            },
            {
                "start_time": 8.361363636363636,
                "end_time": 8.540909090909091,
                "pitch": 36,
                "velocity": 80,
                "duration": 0.17954545454545467,
                "tempo": 120.0
            },
            {
                "start_time": 8.672727272727272,
                "end_time": 8.752272727272727,
                "pitch": 48,
                "velocity": 80,
                "duration": 0.07954545454545503,
                "tempo": 120.0
            },
            {
                "start_time": 8.818181818181818,
                "end_time": 8.902272727272727,
                "pitch": 43,
                "velocity": 80,
                "duration": 0.084090909090909,
                "tempo": 120.0
            },
            {
                "start_time": 8.970454545454546,
                "end_time": 9.072727272727272,
                "pitch": 41,
                "velocity": 80,
                "duration": 0.10227272727272663,
                "tempo": 120.0
            },
            {
                "start_time": 9.143181818181818,
                "end_time": 9.227272727272727,
                "pitch": 39,
                "velocity": 80,
                "duration": 0.084090909090909,
                "tempo": 120.0
            },
            {
                "start_time": 9.297727272727272,
                "end_time": 9.381818181818181,
                "pitch": 31,
                "velocity": 80,
                "duration": 0.084090909090909,
                "tempo": 120.0
            },
            {
                "start_time": 9.45,
                "end_time": 9.636363636363637,
                "pitch": 43,
                "velocity": 80,
                "duration": 0.1863636363636374,
                "tempo": 120.0
            },
            {
                "start_time": 9.775,
                "end_time": 9.956818181818182,
                "pitch": 43,
                "velocity": 80,
                "duration": 0.18181818181818166,
                "tempo": 120.0
            },
            {
                "start_time": 10.075,
                "end_time": 10.156818181818181,
                "pitch": 43,
                "velocity": 80,
                "duration": 0.08181818181818201,
                "tempo": 120.0
            },
            {
                "start_time": 10.225,
                "end_time": 10.404545454545454,
                "pitch": 31,
                "velocity": 80,
                "duration": 0.17954545454545467,
                "tempo": 120.0
            },
            {
                "start_time": 10.536363636363635,
                "end_time": 10.61590909090909,
                "pitch": 43,
                "velocity": 80,
                "duration": 0.07954545454545503,
                "tempo": 120.0
            },
            {
                "start_time": 10.681818181818182,
                "end_time": 10.76590909090909,
                "pitch": 43,
                "velocity": 80,
                "duration": 0.084090909090909,
                "tempo": 120.0
            },
            {
                "start_time": 10.834090909090909,
                "end_time": 10.920454545454545,
                "pitch": 31,
                "velocity": 80,
                "duration": 0.08636363636363598,
                "tempo": 120.0
            },
            {
                "start_time": 10.988636363636363,
                "end_time": 11.09090909090909,
                "pitch": 43,
                "velocity": 80,
                "duration": 0.10227272727272663,
                "tempo": 120.0
            },
            {
                "start_time": 11.159090909090908,
                "end_time": 11.243181818181817,
                "pitch": 32,
                "velocity": 80,
                "duration": 0.084090909090909,
                "tempo": 120.0
            },
            {
                "start_time": 11.311363636363636,
                "end_time": 11.393181818181818,
                "pitch": 44,
                "velocity": 80,
                "duration": 0.08181818181818201,
                "tempo": 120.0
            },
            {
                "start_time": 11.461363636363636,
                "end_time": 11.543181818181818,
                "pitch": 44,
                "velocity": 80,
                "duration": 0.08181818181818201,
                "tempo": 120.0
            },
            {
                "start_time": 11.611363636363636,
                "end_time": 11.788636363636362,
                "pitch": 44,
                "velocity": 80,
                "duration": 0.17727272727272592,
                "tempo": 120.0
            },
            {
                "start_time": 11.920454545454545,
                "end_time": 12.0,
                "pitch": 44,
                "velocity": 80,
                "duration": 0.07954545454545503,
                "tempo": 120.0
            },
            {
                "start_time": 12.068181818181818,
                "end_time": 12.254545454545454,
                "pitch": 29,
                "velocity": 80,
                "duration": 0.18636363636363562,
                "tempo": 120.0
            },
            {
                "start_time": 12.375,
                "end_time": 12.475,
                "pitch": 41,
                "velocity": 80,
                "duration": 0.09999999999999964,
                "tempo": 120.0
            },
            {
                "start_time": 12.545454545454545,
                "end_time": 12.627272727272727,
                "pitch": 41,
                "velocity": 80,
                "duration": 0.08181818181818201,
                "tempo": 120.0
            },
            {
                "start_time": 12.695454545454545,
                "end_time": 12.777272727272727,
                "pitch": 29,
                "velocity": 80,
                "duration": 0.08181818181818201,
                "tempo": 120.0
            },
            {
                "start_time": 12.845454545454546,
                "end_time": 12.927272727272726,
                "pitch": 41,
                "velocity": 80,
                "duration": 0.08181818181818024,
                "tempo": 120.0
            },
            {
                "start_time": 12.995454545454544,
                "end_time": 13.093181818181817,
                "pitch": 34,
                "velocity": 80,
                "duration": 0.09772727272727266,
                "tempo": 120.0
            },
            {
                "start_time": 13.159090909090908,
                "end_time": 13.336363636363636,
                "pitch": 46,
                "velocity": 80,
                "duration": 0.1772727272727277,
                "tempo": 120.0
            },
            {
                "start_time": 13.452272727272726,
                "end_time": 13.638636363636364,
                "pitch": 46,
                "velocity": 80,
                "duration": 0.1863636363636374,
                "tempo": 120.0
            },
            {
                "start_time": 13.759090909090908,
                "end_time": 13.861363636363636,
                "pitch": 46,
                "velocity": 80,
                "duration": 0.1022727272727284,
                "tempo": 120.0
            },
            {
                "start_time": 13.929545454545455,
                "end_time": 14.013636363636364,
                "pitch": 46,
                "velocity": 80,
                "duration": 0.084090909090909,
                "tempo": 120.0
            },
            {
                "start_time": 14.079545454545453,
                "end_time": 14.363636363636363,
                "pitch": 31,
                "velocity": 80,
                "duration": 0.28409090909091006,
                "tempo": 120.0
            },
            {
                "start_time": 14.547727272727272,
                "end_time": 14.629545454545454,
                "pitch": 41,
                "velocity": 80,
                "duration": 0.08181818181818201,
                "tempo": 120.0
            },
            {
                "start_time": 14.697727272727272,
                "end_time": 14.779545454545454,
                "pitch": 43,
                "velocity": 80,
                "duration": 0.08181818181818201,
                "tempo": 120.0
            }
        ]
    }
}