{
    "track_id": "03 Ready!",
    "mood": "happy",
    "instruments": {
        "Acoustic Bass": [
            {
                "start_time": 0.0,
                "end_time": 0.1159090909090909,
                "pitch": 36,
                "velocity": 127,
                "duration": 0.1159090909090909,
                "tempo": 120.0
            },
            {
                "start_time": 0.15,
                "end_time": 0.25,
                "pitch": 36,
                "velocity": 127,
                "duration": 0.1,
                "tempo": 120.0
            },
            {
                "start_time": 0.28409090909090906,
                "end_time": 0.3818181818181818,
                "pitch": 36,
                "velocity": 127,
                "duration": 0.09772727272727272,
                "tempo": 120.0
            },
            {
                "start_time": 0.4159090909090909,
                "end_time": 0.5159090909090909,
                "pitch": 36,
                "velocity": 127,
                "duration": 0.09999999999999998,
                "tempo": 120.0
            },
            {
                "start_time": 0.8181818181818181,
                "end_time": 1.018181818181818,
                "pitch": 36,
                "velocity": 127,
                "duration": 0.19999999999999996,
                "tempo": 120.0
            },
            {
                "start_time": 1.0909090909090908,
                "end_time": 1.2931818181818182,
                "pitch": 36,
                "velocity": 127,
                "duration": 0.20227272727272738,
                "tempo": 120.0
            },
            {
                "start_time": 1.3636363636363635,
                "end_time": 1.6022727272727273,
                "pitch": 36,
                "velocity": 127,
                "duration": 0.23863636363636376,
                "tempo": 120.0
            },
            {
                "start_time": 1.6386363636363634,
                "end_time": 1.8772727272727272,
                "pitch": 36,
                "velocity": 127,
                "duration": 0.23863636363636376,
                "tempo": 120.0
            },
            {
                "start_time": 2.4613636363636364,
                "end_time": 2.6954545454545453,
                "pitch": 36,
                "velocity": 127,
                "duration": 0.2340909090909089,
                "tempo": 120.0
            },
            {
                "start_time": 2.7318181818181815,
                "end_time": 2.965909090909091,
                "pitch": 36,
                "velocity": 127,
                "duration": 0.23409090909090935,
                "tempo": 120.0
            },
            {
                "start_time": 3.002272727272727,
                "end_time": 3.2363636363636363,
                "pitch": 36,
                "velocity": 127,
                "duration": 0.23409090909090935,
                "tempo": 120.0
            },
            {
                "start_time": 3.2727272727272725,
                "end_time": 3.509090909090909,
                "pitch": 36,
                "velocity": 127,
                "duration": 0.23636363636363633,
                "tempo": 120.0
            },
            {
                "start_time": 4.084090909090909,
                "end_time": 4.3159090909090905,
                "pitch": 36,
                "velocity": 127,
                "duration": 0.23181818181818148,
                "tempo": 120.0
            },
            {
                "start_time": 4.352272727272727,
                "end_time": 4.584090909090909,
                "pitch": 36,
                "velocity": 127,
                "duration": 0.23181818181818237,
                "tempo": 120.0
            },
            {
                "start_time": 4.618181818181818,
                "end_time": 4.85,
                "pitch": 36,
                "velocity": 127,
                "duration": 0.23181818181818148,
                "tempo": 120.0
            },
            {
                "start_time": 4.886363636363636,
                "end_time": 5.118181818181818,
                "pitch": 36,
                "velocity": 127,
                "duration": 0.23181818181818237,
                "tempo": 120.0
            },
            {
                "start_time": 5.720454545454545,
                "end_time": 5.925,
                "pitch": 36,
                "velocity": 127,
                "duration": 0.20454545454545503,
                "tempo": 120.0
            },
            {
                "start_time": 5.993181818181818,
                "end_time": 6.197727272727272,
                "pitch": 36,
                "velocity": 127,
                "duration": 0.20454545454545414,
                "tempo": 120.0
            },
            {
                "start_time": 6.268181818181818,
                "end_time": 6.472727272727273,
                "pitch": 36,
                "velocity": 127,
                "duration": 0.20454545454545503,
                "tempo": 120.0
            },
            {
                "start_time": 6.543181818181818,
                "end_time": 6.747727272727272,
                "pitch": 36,
                "velocity": 127,
                "duration": 0.20454545454545414,
                "tempo": 120.0
            },
            {
                "start_time": 7.36590909090909,
                "end_time": 7.5636363636363635,
                "pitch": 36,
                "velocity": 127,
                "duration": 0.1977272727272732,
                "tempo": 120.0
            },
            {
                "start_time": 7.634090909090909,
                "end_time": 7.831818181818181,
                "pitch": 36,
                "velocity": 127,
                "duration": 0.1977272727272723,
                "tempo": 120.0
            },
            {
                "start_time": 7.8999999999999995,
                "end_time": 8.131818181818181,
                "pitch": 36,
                "velocity": 127,
                "duration": 0.23181818181818148,
                "tempo": 120.0
            },
            {
                "start_time": 8.168181818181818,
                "end_time": 8.4,
                "pitch": 36,
                "velocity": 127,
                "duration": 0.23181818181818237,
                "tempo": 120.0
            },
            {
                "start_time": 8.968181818181817,
                "end_time": 9.2,
                "pitch": 36,
                "velocity": 127,
                "duration": 0.23181818181818237,
                "tempo": 120.0
            },
            {
                "start_time": 9.23409090909091,
                "end_time": 9.46590909090909,
                "pitch": 36,
                "velocity": 127,
                "duration": 0.2318181818181806,
                "tempo": 120.0
            },
            {
                "start_time": 9.502272727272727,
                "end_time": 9.73409090909091,
                "pitch": 36,
                "velocity": 127,
                "duration": 0.23181818181818237,
                "tempo": 120.0
            },
            {
                "start_time": 9.770454545454545,
                "end_time": 10.0,
                "pitch": 36,
                "velocity": 127,
                "duration": 0.22954545454545539,
                "tempo": 120.0
            },
            {
                "start_time": 10.304545454545455,
                "end_time": 12.179545454545455,
                "pitch": 36,
                "velocity": 127,
                "duration": 1.875,
                "tempo": 120.0
            }
        ]
    }
}