{
    "track_id": "03 Tuning Mode",
    "mood": "happy",
    "instruments": {
        "Synth Bass 1": [
            {
                "start_time": 1.2818181818181817,
                "end_time": 1.4318181818181817,
                "pitch": 57,
                "velocity": 64,
                "duration": 0.1499999999999999,
                "tempo": 120.0
            },
            {
                "start_time": 1.5886363636363636,
                "end_time": 1.7386363636363635,
                "pitch": 43,
                "velocity": 64,
                "duration": 0.1499999999999999,
                "tempo": 120.0
            },
            {
                "start_time": 1.7409090909090907,
                "end_time": 1.8909090909090909,
                "pitch": 55,
                "velocity": 64,
                "duration": 0.15000000000000013,
                "tempo": 120.0
            },
            {
                "start_time": 1.893181818181818,
                "end_time": 2.043181818181818,
                "pitch": 57,
                "velocity": 64,
                "duration": 0.1499999999999999,
                "tempo": 120.0
            },
            {
                "start_time": 2.1977272727272728,
                "end_time": 2.3477272727272727,
                "pitch": 43,
                "velocity": 64,
                "duration": 0.1499999999999999,
                "tempo": 120.0
            },
            {
                "start_time": 2.35,
                "end_time": 2.5,
                "pitch": 57,
                "velocity": 64,
                "duration": 0.1499999999999999,
                "tempo": 120.0
            },
            {
                "start_time": 2.6545454545454543,
                "end_time": 2.8022727272727272,
                "pitch": 43,
                "velocity": 64,
                "duration": 0.14772727272727293,
                "tempo": 120.0
            },
            {
                "start_time": 2.8045454545454542,
                "end_time": 2.9613636363636364,
                "pitch": 45,
                "velocity": 64,
                "duration": 0.1568181818181822,
                "tempo": 120.0
            },
            {
                "start_time": 2.9636363636363634,
                "end_time": 3.1068181818181815,
                "pitch": 62,
                "velocity": 64,
                "duration": 0.14318181818181808,
                "tempo": 120.0
            },
            {
                "start_time": 3.109090909090909,
                "end_time": 3.256818181818182,
                "pitch": 60,
                "velocity": 64,
                "duration": 0.14772727272727293,
                "tempo": 120.0
            },
            {
                "start_time": 3.259090909090909,
                "end_time": 3.4090909090909087,
                "pitch": 59,
                "velocity": 64,
                "duration": 0.1499999999999999,
                "tempo": 120.0
            },
            {
                "start_time": 3.411363636363636,
                "end_time": 3.559090909090909,
                "pitch": 57,
                "velocity": 64,
                "duration": 0.14772727272727293,
                "tempo": 120.0
            },
            {
                "start_time": 3.711363636363636,
                "end_time": 3.859090909090909,
                "pitch": 57,
                "velocity": 64,
                "duration": 0.14772727272727293,
                "tempo": 120.0
            },
            {
                "start_time": 4.013636363636364,
                "end_time": 4.161363636363636,
                "pitch": 43,
                "velocity": 64,
                "duration": 0.14772727272727249,
                "tempo": 120.0
            },
            {
                "start_time": 4.163636363636363,
                "end_time": 4.3136363636363635,
                "pitch": 55,
                "velocity": 64,
                "duration": 0.15000000000000036,
                "tempo": 120.0
            },
            {
                "start_time": 4.3159090909090905,
                "end_time": 4.465909090909091,
                "pitch": 57,
                "velocity": 64,
                "duration": 0.15000000000000036,
                "tempo": 120.0
            },
            {
                "start_time": 4.618181818181818,
                "end_time": 4.765909090909091,
                "pitch": 43,
                "velocity": 64,
                "duration": 0.14772727272727249,
                "tempo": 120.0
            },
            {
                "start_time": 4.768181818181818,
                "end_time": 4.915909090909091,
                "pitch": 57,
                "velocity": 64,
                "duration": 0.14772727272727337,
                "tempo": 120.0
            },
            {
                "start_time": 5.068181818181818,
                "end_time": 5.218181818181818,
                "pitch": 43,
                "velocity": 64,
                "duration": 0.14999999999999947,
                "tempo": 120.0
            },
            {
                "start_time": 5.220454545454545,
                "end_time": 5.372727272727272,
                "pitch": 45,
                "velocity": 64,
                "duration": 0.15227272727272734,
                "tempo": 120.0
            },
            {
                "start_time": 5.375,
                "end_time": 5.5204545454545455,
                "pitch": 43,
                "velocity": 64,
                "duration": 0.1454545454545455,
                "tempo": 120.0
            },
            {
                "start_time": 5.5227272727272725,
                "end_time": 5.672727272727273,
                "pitch": 56,
                "velocity": 64,
                "duration": 0.15000000000000036,
                "tempo": 120.0
            },
            {
                "start_time": 5.675,
                "end_time": 5.824999999999999,
                "pitch": 45,
                "velocity": 64,
                "duration": 0.14999999999999947,
                "tempo": 120.0
            },
            {
                "start_time": 5.827272727272727,
                "end_time": 5.975,
                "pitch": 57,
                "velocity": 64,
                "duration": 0.14772727272727249,
                "tempo": 120.0
            },
            {
                "start_time": 6.127272727272727,
                "end_time": 6.2749999999999995,
                "pitch": 57,
                "velocity": 64,
                "duration": 0.14772727272727249,
                "tempo": 120.0
            },
            {
                "start_time": 6.427272727272727,
                "end_time": 6.577272727272727,
                "pitch": 43,
                "velocity": 64,
                "duration": 0.15000000000000036,
                "tempo": 120.0
            },
            {
                "start_time": 6.579545454545454,
                "end_time": 6.7295454545454545,
                "pitch": 55,
                "velocity": 64,
                "duration": 0.15000000000000036,
                "tempo": 120.0
            },
            {
                "start_time": 6.7318181818181815,
                "end_time": 6.881818181818182,
                "pitch": 57,
                "velocity": 64,
                "duration": 0.15000000000000036,
                "tempo": 120.0
            },
            {
                "start_time": 6.884090909090909,
                "end_time": 7.034090909090909,
                "pitch": 55,
                "velocity": 64,
                "duration": 0.15000000000000036,
                "tempo": 120.0
            },
            {
                "start_time": 7.036363636363636,
                "end_time": 7.1886363636363635,
                "pitch": 57,
                "velocity": 64,
                "duration": 0.15227272727272734,
                "tempo": 120.0
            },
            {
                "start_time": 7.1909090909090905,
                "end_time": 7.340909090909091,
                "pitch": 55,
                "velocity": 64,
                "duration": 0.15000000000000036,
                "tempo": 120.0
            },
            {
                "start_time": 7.343181818181818,
                "end_time": 7.493181818181818,
                "pitch": 47,
                "velocity": 64,
                "duration": 0.15000000000000036,
                "tempo": 120.0
            },
            {
                "start_time": 7.495454545454545,
                "end_time": 7.6454545454545455,
                "pitch": 43,
                "velocity": 64,
                "duration": 0.15000000000000036,
                "tempo": 120.0
            },
            {
                "start_time": 7.6477272727272725,
                "end_time": 7.8,
                "pitch": 45,
                "velocity": 64,
                "duration": 0.15227272727272734,
                "tempo": 120.0
            },
            {
                "start_time": 7.802272727272727,
                "end_time": 7.949999999999999,
                "pitch": 62,
                "velocity": 64,
                "duration": 0.14772727272727249,
                "tempo": 120.0
            },
            {
                "start_time": 7.952272727272727,
                "end_time": 8.1,
                "pitch": 60,
                "velocity": 64,
                "duration": 0.14772727272727249,
                "tempo": 120.0
            },
            {
                "start_time": 8.104545454545454,
                "end_time": 8.254545454545454,
                "pitch": 59,
                "velocity": 64,
                "duration": 0.15000000000000036,
                "tempo": 120.0
            },
            {
                "start_time": 8.256818181818181,
                "end_time": 8.404545454545454,
                "pitch": 57,
                "velocity": 64,
                "duration": 0.14772727272727337,
                "tempo": 120.0
            },
            {
                "start_time": 8.556818181818182,
                "end_time": 8.706818181818182,
                "pitch": 57,
                "velocity": 64,
                "duration": 0.15000000000000036,
                "tempo": 120.0
            },
            {
                "start_time": 8.85909090909091,
                "end_time": 9.009090909090908,
                "pitch": 43,
                "velocity": 64,
                "duration": 0.14999999999999858,
                "tempo": 120.0
            },
            {
                "start_time": 9.011363636363637,
                "end_time": 9.159090909090908,
                "pitch": 55,
                "velocity": 64,
                "duration": 0.1477272727272716,
                "tempo": 120.0
            },
            {
                "start_time": 9.161363636363635,
                "end_time": 9.309090909090909,
                "pitch": 57,
                "velocity": 64,
                "duration": 0.14772727272727337,
                "tempo": 120.0
            },
            {
                "start_time": 9.461363636363636,
                "end_time": 9.60909090909091,
                "pitch": 43,
                "velocity": 64,
                "duration": 0.14772727272727337,
                "tempo": 120.0
            },
            {
                "start_time": 9.611363636363636,
                "end_time": 9.759090909090908,
                "pitch": 57,
                "velocity": 64,
                "duration": 0.1477272727272716,
                "tempo": 120.0
            },
            {
                "start_time": 9.911363636363635,
                "end_time": 10.059090909090909,
                "pitch": 43,
                "velocity": 64,
                "duration": 0.14772727272727337,
                "tempo": 120.0
            },
            {
                "start_time": 10.061363636363636,
                "end_time": 10.211363636363636,
                "pitch": 45,
                "velocity": 64,
                "duration": 0.15000000000000036,
                "tempo": 120.0
            },
            {
                "start_time": 10.21590909090909,
                "end_time": 10.35909090909091,
                "pitch": 43,
                "velocity": 64,
                "duration": 0.1431818181818194,
                "tempo": 120.0
            },
            {
                "start_time": 10.361363636363636,
                "end_time": 10.509090909090908,
                "pitch": 55,
                "velocity": 64,
                "duration": 0.1477272727272716,
                "tempo": 120.0
            },
            {
                "start_time": 10.511363636363637,
                "end_time": 10.661363636363635,
                "pitch": 44,
                "velocity": 64,
                "duration": 0.14999999999999858,
                "tempo": 120.0
            },
            {
                "start_time": 10.663636363636362,
                "end_time": 10.809090909090909,
                "pitch": 56,
                "velocity": 64,
                "duration": 0.1454545454545464,
                "tempo": 120.0
            },
            {
                "start_time": 10.963636363636363,
                "end_time": 11.111363636363636,
                "pitch": 57,
                "velocity": 64,
                "duration": 0.14772727272727337,
                "tempo": 120.0
            },
            {
                "start_time": 11.26590909090909,
                "end_time": 11.415909090909091,
                "pitch": 43,
                "velocity": 64,
                "duration": 0.15000000000000036,
                "tempo": 120.0
            },
            {
                "start_time": 11.418181818181818,
                "end_time": 11.56590909090909,
                "pitch": 55,
                "velocity": 64,
                "duration": 0.1477272727272716,
                "tempo": 120.0
            },
            {
                "start_time": 11.568181818181818,
                "end_time": 11.718181818181817,
                "pitch": 57,
                "velocity": 64,
                "duration": 0.14999999999999858,
                "tempo": 120.0
            },
            {
                "start_time": 11.870454545454544,
                "end_time": 12.018181818181818,
                "pitch": 43,
                "velocity": 64,
                "duration": 0.14772727272727337,
                "tempo": 120.0
            },
            {
                "start_time": 12.020454545454545,
                "end_time": 12.168181818181818,
                "pitch": 57,
                "velocity": 64,
                "duration": 0.14772727272727337,
                "tempo": 120.0
            },
            {
                "start_time": 12.320454545454545,
                "end_time": 12.468181818181817,
                "pitch": 43,
                "velocity": 64,
                "duration": 0.1477272727272716,
                "tempo": 120.0
            },
            {
                "start_time": 12.470454545454546,
                "end_time": 12.622727272727271,
                "pitch": 45,
                "velocity": 64,
                "duration": 0.15227272727272556,
                "tempo": 120.0
            },
            {
                "start_time": 12.625,
                "end_time": 12.768181818181818,
                "pitch": 62,
                "velocity": 64,
                "duration": 0.14318181818181763,
                "tempo": 120.0
            },
            {
                "start_time": 12.770454545454545,
                "end_time": 12.918181818181818,
                "pitch": 60,
                "velocity": 64,
                "duration": 0.14772727272727337,
                "tempo": 120.0
            },
            {
                "start_time": 12.920454545454545,
                "end_time": 13.070454545454545,
                "pitch": 59,
                "velocity": 64,
                "duration": 0.15000000000000036,
                "tempo": 120.0
            },
            {
                "start_time": 13.072727272727272,
                "end_time": 13.220454545454546,
                "pitch": 57,
                "velocity": 64,
                "duration": 0.14772727272727337,
                "tempo": 120.0
            },
            {
                "start_time": 13.372727272727271,
                "end_time": 13.520454545454545,
                "pitch": 57,
                "velocity": 64,
                "duration": 0.14772727272727337,
                "tempo": 120.0
            },
            {
                "start_time": 13.672727272727272,
                "end_time": 13.820454545454545,
                "pitch": 43,
                "velocity": 64,
                "duration": 0.14772727272727337,
                "tempo": 120.0
            },
            {
                "start_time": 13.822727272727272,
                "end_time": 13.970454545454544,
                "pitch": 55,
                "velocity": 64,
                "duration": 0.1477272727272716,
                "tempo": 120.0
            },
            {
                "start_time": 13.972727272727273,
                "end_time": 14.120454545454544,
                "pitch": 57,
                "velocity": 64,
                "duration": 0.1477272727272716,
                "tempo": 120.0
            },
            {
                "start_time": 14.274999999999999,
                "end_time": 14.424999999999999,
                "pitch": 43,
                "velocity": 64,
                "duration": 0.15000000000000036,
                "tempo": 120.0
            },
            {
                "start_time": 14.427272727272726,
                "end_time": 14.575,
                "pitch": 57,
                "velocity": 64,
                "duration": 0.14772727272727337,
                "tempo": 120.0
            },
            {
                "start_time": 14.729545454545454,
                "end_time": 14.881818181818181,
                "pitch": 43,
                "velocity": 64,
                "duration": 0.15227272727272734,
                "tempo": 120.0
            },
            {
                "start_time": 14.884090909090908,
                "end_time": 15.036363636363635,
                "pitch": 45,
                "velocity": 64,
                "duration": 0.15227272727272734,
                "tempo": 120.0
            },
            {
                "start_time": 15.038636363636362,
                "end_time": 15.186363636363636,
                "pitch": 43,
                "velocity": 64,
                "duration": 0.14772727272727337,
                "tempo": 120.0
            },
            {
                "start_time": 15.188636363636363,
                "end_time": 15.34090909090909,
                "pitch": 56,
                "velocity": 64,
                "duration": 0.15227272727272734,
                "tempo": 120.0
            },
            {
                "start_time": 15.343181818181817,
                "end_time": 15.493181818181817,
                "pitch": 45,
                "velocity": 64,
                "duration": 0.15000000000000036,
                "tempo": 120.0
            },
            {
                "start_time": 15.495454545454544,
                "end_time": 15.64090909090909,
                "pitch": 57,
                "velocity": 64,
                "duration": 0.1454545454545464,
                "tempo": 120.0
            },
            {
                "start_time": 15.793181818181818,
                "end_time": 15.94090909090909,
                "pitch": 57,
                "velocity": 64,
                "duration": 0.1477272727272716,
                "tempo": 120.0
            },
            {
                "start_time": 16.09318181818182,
                "end_time": 16.24090909090909,
                "pitch": 43,
                "velocity": 64,
                "duration": 0.14772727272726982,
                "tempo": 120.0
            },
            {
                "start_time": 16.245454545454546,
                "end_time": 16.39090909090909,
                "pitch": 55,
                "velocity": 64,
                "duration": 0.14545454545454461,
                "tempo": 120.0
            },
            {
                "start_time": 16.393181818181816,
                "end_time": 16.543181818181818,
                "pitch": 57,
                "velocity": 64,
                "duration": 0.15000000000000213,
                "tempo": 120.0
            },
            {
                "start_time": 16.545454545454543,
                "end_time": 16.693181818181817,
                "pitch": 55,
                "velocity": 64,
                "duration": 0.14772727272727337,
                "tempo": 120.0
            },
            {
                "start_time": 16.695454545454545,
                "end_time": 16.84318181818182,
                "pitch": 57,
                "velocity": 64,
                "duration": 0.14772727272727337,
                "tempo": 120.0
            },
            {
                "start_time": 16.845454545454544,
                "end_time": 16.993181818181817,
                "pitch": 55,
                "velocity": 64,
                "duration": 0.14772727272727337,
                "tempo": 120.0
            },
            {
                "start_time": 16.995454545454546,
                "end_time": 17.143181818181816,
                "pitch": 47,
                "velocity": 64,
                "duration": 0.14772727272726982,
                "tempo": 120.0
            },
            {
                "start_time": 17.145454545454545,
                "end_time": 17.295454545454543,
                "pitch": 43,
                "velocity": 64,
                "duration": 0.14999999999999858,
                "tempo": 120.0
            },
            {
                "start_time": 17.295454545454543,
                "end_time": 17.44772727272727,
                "pitch": 45,
                "velocity": 64,
                "duration": 0.15227272727272734,
                "tempo": 120.0
            },
            {
                "start_time": 17.452272727272728,
                "end_time": 17.597727272727273,
                "pitch": 62,
                "velocity": 64,
                "duration": 0.14545454545454461,
                "tempo": 120.0
            },
            {
                "start_time": 17.599999999999998,
                "end_time": 17.75,
                "pitch": 60,
                "velocity": 64,
                "duration": 0.15000000000000213,
                "tempo": 120.0
            },
            {
                "start_time": 17.752272727272725,
                "end_time": 17.902272727272727,
                "pitch": 59,
                "velocity": 64,
                "duration": 0.15000000000000213,
                "tempo": 120.0
            },
            {
                "start_time": 17.904545454545453,
                "end_time": 18.05,
                "pitch": 57,
                "velocity": 64,
                "duration": 0.14545454545454817,
                "tempo": 120.0
            },
            {
                "start_time": 18.202272727272728,
                "end_time": 18.349999999999998,
                "pitch": 57,
                "velocity": 64,
                "duration": 0.14772727272726982,
                "tempo": 120.0
            },
            {
                "start_time": 18.504545454545454,
                "end_time": 18.654545454545453,
                "pitch": 43,
                "velocity": 64,
                "duration": 0.14999999999999858,
                "tempo": 120.0
            },
            {
                "start_time": 18.65681818181818,
                "end_time": 18.80681818181818,
                "pitch": 55,
                "velocity": 64,
                "duration": 0.14999999999999858,
                "tempo": 120.0
            },
            {
                "start_time": 18.80909090909091,
                "end_time": 18.956818181818182,
                "pitch": 57,
                "velocity": 64,
                "duration": 0.14772727272727337,
                "tempo": 120.0
            },
            {
                "start_time": 19.111363636363635,
                "end_time": 19.261363636363637,
                "pitch": 43,
                "velocity": 64,
                "duration": 0.15000000000000213,
                "tempo": 120.0
            },
            {
                "start_time": 19.263636363636362,
                "end_time": 19.411363636363635,
                "pitch": 57,
                "velocity": 64,
                "duration": 0.14772727272727337,
                "tempo": 120.0
            },
            {
                "start_time": 19.56590909090909,
                "end_time": 19.71363636363636,
                "pitch": 43,
                "velocity": 64,
                "duration": 0.14772727272726982,
                "tempo": 120.0
            },
            {
                "start_time": 19.71590909090909,
                "end_time": 19.868181818181817,
                "pitch": 45,
                "velocity": 64,
                "duration": 0.15227272727272734,
                "tempo": 120.0
            },
            {
                "start_time": 19.870454545454546,
                "end_time": 20.01590909090909,
                "pitch": 43,
                "velocity": 64,
                "duration": 0.14545454545454461,
                "tempo": 120.0
            },
            {
                "start_time": 20.018181818181816,
                "end_time": 20.16590909090909,
                "pitch": 55,
                "velocity": 64,
                "duration": 0.14772727272727337,
                "tempo": 120.0
            },
            {
                "start_time": 20.168181818181818,
                "end_time": 20.318181818181817,
                "pitch": 44,
                "velocity": 64,
                "duration": 0.14999999999999858,
                "tempo": 120.0
            },
            {
                "start_time": 20.320454545454545,
                "end_time": 20.46818181818182,
                "pitch": 56,
                "velocity": 64,
                "duration": 0.14772727272727337,
                "tempo": 120.0
            },
            {
                "start_time": 20.62272727272727,
                "end_time": 20.770454545454545,
                "pitch": 57,
                "velocity": 64,
                "duration": 0.14772727272727337,
                "tempo": 120.0
            },
            {
                "start_time": 20.925,
                "end_time": 21.07272727272727,
                "pitch": 43,
                "velocity": 64,
                "duration": 0.14772727272726982,
                "tempo": 120.0
            },
            {
                "start_time": 21.075,
                "end_time": 21.222727272727273,
                "pitch": 55,
                "velocity": 64,
                "duration": 0.14772727272727337,
                "tempo": 120.0
            },
            {
                "start_time": 21.224999999999998,
                "end_time": 21.37272727272727,
                "pitch": 57,
                "velocity": 64,
                "duration": 0.14772727272727337,
                "tempo": 120.0
            },
            {
                "start_time": 21.527272727272727,
                "end_time": 21.675,
                "pitch": 43,
                "velocity": 64,
                "duration": 0.14772727272727337,
                "tempo": 120.0
            },
            {
                "start_time": 21.677272727272726,
                "end_time": 21.827272727272724,
                "pitch": 57,
                "velocity": 64,
                "duration": 0.14999999999999858,
                "tempo": 120.0
            },
            {
                "start_time": 21.98181818181818,
                "end_time": 22.13181818181818,
                "pitch": 43,
                "velocity": 64,
                "duration": 0.14999999999999858,
                "tempo": 120.0
            },
            {
                "start_time": 22.134090909090908,
                "end_time": 22.284090909090907,
                "pitch": 45,
                "velocity": 64,
                "duration": 0.14999999999999858,
                "tempo": 120.0
            },
            {
                "start_time": 22.286363636363635,
                "end_time": 22.288636363636364,
                "pitch": 45,
                "velocity": 64,
                "duration": 0.0022727272727287584,
                "tempo": 120.0
            },
            {
                "start_time": 22.302272727272726,
                "end_time": 22.429545454545455,
                "pitch": 62,
                "velocity": 64,
                "duration": 0.12727272727272876,
                "tempo": 120.0
            }
        ],
        "Lead 2 (sawtooth)": [
            {
                "start_time": 1.125,
                "end_time": 2.9499999999999997,
                "pitch": 57,
                "velocity": 80,
                "duration": 1.8249999999999997,
                "tempo": 120.0
            },
            {
                "start_time": 2.952272727272727,
                "end_time": 3.402272727272727,
                "pitch": 57,
                "velocity": 80,
                "duration": 0.44999999999999973,
                "tempo": 120.0
            },
            {
                "start_time": 3.4045454545454543,
                "end_time": 5.36590909090909,
                "pitch": 59,
                "velocity": 80,
                "duration": 1.961363636363636,
                "tempo": 120.0
            },
            {
                "start_time": 5.36590909090909,
                "end_time": 5.818181818181818,
                "pitch": 59,
                "velocity": 80,
                "duration": 0.45227272727272805,
                "tempo": 120.0
            },
            {
                "start_time": 5.820454545454545,
                "end_time": 7.793181818181818,
                "pitch": 60,
                "velocity": 80,
                "duration": 1.9727272727272727,
                "tempo": 120.0
            },
            {
                "start_time": 7.795454545454545,
                "end_time": 8.247727272727273,
                "pitch": 60,
                "velocity": 80,
                "duration": 0.45227272727272805,
                "tempo": 120.0
            },
            {
                "start_time": 8.25,
                "end_time": 10.204545454545453,
                "pitch": 59,
                "velocity": 80,
                "duration": 1.9545454545454533,
                "tempo": 120.0
            },
            {
                "start_time": 10.206818181818182,
                "end_time": 10.654545454545454,
                "pitch": 59,
                "velocity": 80,
                "duration": 0.4477272727272723,
                "tempo": 120.0
            },
            {
                "start_time": 10.656818181818181,
                "end_time": 12.613636363636363,
                "pitch": 57,
                "velocity": 80,
                "duration": 1.956818181818182,
                "tempo": 120.0
            },
            {
                "start_time": 12.61590909090909,
                "end_time": 13.063636363636363,
                "pitch": 57,
                "velocity": 80,
                "duration": 0.4477272727272723,
                "tempo": 120.0
            },
            {
                "start_time": 13.06590909090909,
                "end_time": 15.029545454545454,
                "pitch": 59,
                "velocity": 80,
                "duration": 1.9636363636363647,
                "tempo": 120.0
            },
            {
                "start_time": 15.031818181818181,
                "end_time": 15.486363636363636,
                "pitch": 59,
                "velocity": 80,
                "duration": 0.45454545454545503,
                "tempo": 120.0
            },
            {
                "start_time": 15.488636363636363,
                "end_time": 17.44090909090909,
                "pitch": 60,
                "velocity": 80,
                "duration": 1.952272727272728,
                "tempo": 120.0
            },
            {
                "start_time": 17.443181818181817,
                "end_time": 17.895454545454545,
                "pitch": 60,
                "velocity": 80,
                "duration": 0.45227272727272805,
                "tempo": 120.0
            },
            {
                "start_time": 17.897727272727273,
                "end_time": 19.85909090909091,
                "pitch": 59,
                "velocity": 80,
                "duration": 1.961363636363636,
                "tempo": 120.0
            },
            {
                "start_time": 19.861363636363635,
                "end_time": 20.311363636363634,
                "pitch": 59,
                "velocity": 80,
                "duration": 0.4499999999999993,
                "tempo": 120.0
            },
            {
                "start_time": 20.313636363636363,
                "end_time": 22.277272727272727,
                "pitch": 57,
                "velocity": 80,
                "duration": 1.9636363636363647,
                "tempo": 120.0
            },
            {
                "start_time": 22.279545454545453,
                "end_time": 22.286363636363635,
                "pitch": 57,
                "velocity": 80,
                "duration": 0.0068181818181827225,
                "tempo": 120.0
            },
            {
                "start_time": 22.293181818181818,
                "end_time": 22.429545454545455,
                "pitch": 57,
                "velocity": 80,
                "duration": 0.1363636363636367,
                "tempo": 120.0
            }
        ]
    }
}