{
    "track_id": "03 Title Screen",
    "mood": "happy",
    "instruments": {
        "Acoustic Guitar (nylon)": [
            {
                "start_time": 0.011363636363636364,
                "end_time": 0.10909090909090909,
                "pitch": 62,
                "velocity": 80,
                "duration": 0.09772727272727272,
                "tempo": 120.0
            },
            {
                "start_time": 0.10909090909090909,
                "end_time": 0.21136363636363636,
                "pitch": 62,
                "velocity": 80,
                "duration": 0.10227272727272728,
                "tempo": 120.0
            },
            {
                "start_time": 0.21136363636363636,
                "end_time": 0.36136363636363633,
                "pitch": 62,
                "velocity": 80,
                "duration": 0.14999999999999997,
                "tempo": 120.0
            },
            {
                "start_time": 0.36363636363636365,
                "end_time": 0.5136363636363636,
                "pitch": 62,
                "velocity": 80,
                "duration": 0.1499999999999999,
                "tempo": 120.0
            },
            {
                "start_time": 0.5159090909090909,
                "end_time": 0.6659090909090909,
                "pitch": 62,
                "velocity": 80,
                "duration": 0.15000000000000002,
                "tempo": 120.0
            },
            {
                "start_time": 0.6659090909090909,
                "end_time": 0.8181818181818181,
                "pitch": 62,
                "velocity": 80,
                "duration": 0.15227272727272723,
                "tempo": 120.0
            },
            {
                "start_time": 0.8181818181818181,
                "end_time": 0.9681818181818181,
                "pitch": 62,
                "velocity": 80,
                "duration": 0.15000000000000002,
                "tempo": 120.0
            },
            {
                "start_time": 0.9704545454545455,
                "end_time": 1.1227272727272726,
                "pitch": 62,
                "velocity": 80,
                "duration": 0.15227272727272712,
                "tempo": 120.0
            },
            {
                "start_time": 1.1227272727272726,
                "end_time": 1.2727272727272727,
                "pitch": 62,
                "velocity": 80,
                "duration": 0.15000000000000013,
                "tempo": 120.0
            },
            {
                "start_time": 1.2727272727272727,
                "end_time": 1.4249999999999998,
                "pitch": 62,
                "velocity": 80,
                "duration": 0.15227272727272712,
                "tempo": 120.0
            },
            {
                "start_time": 1.4249999999999998,
                "end_time": 1.575,
                "pitch": 62,
                "velocity": 80,
                "duration": 0.15000000000000013,
                "tempo": 120.0
            },
            {
                "start_time": 1.575,
                "end_time": 1.7249999999999999,
                "pitch": 62,
                "velocity": 80,
                "duration": 0.1499999999999999,
                "tempo": 120.0
            },
            {
                "start_time": 1.7249999999999999,
                "end_time": 1.875,
                "pitch": 62,
                "velocity": 80,
                "duration": 0.15000000000000013,
                "tempo": 120.0
            },
            {
                "start_time": 1.875,
                "end_time": 2.025,
                "pitch": 62,
                "velocity": 80,
                "duration": 0.1499999999999999,
                "tempo": 120.0
            },
            {
                "start_time": 2.025,
                "end_time": 2.1772727272727272,
                "pitch": 62,
                "velocity": 80,
                "duration": 0.15227272727272734,
                "tempo": 120.0
            },
            {
                "start_time": 2.1795454545454542,
                "end_time": 2.3318181818181816,
                "pitch": 62,
                "velocity": 80,
                "duration": 0.15227272727272734,
                "tempo": 120.0
            },
            {
                "start_time": 2.334090909090909,
                "end_time": 2.484090909090909,
                "pitch": 69,
                "velocity": 80,
                "duration": 0.1499999999999999,
                "tempo": 120.0
            },
            {
                "start_time": 2.4863636363636363,
                "end_time": 2.6386363636363637,
                "pitch": 69,
                "velocity": 80,
                "duration": 0.15227272727272734,
                "tempo": 120.0
            },
            {
                "start_time": 2.6386363636363637,
                "end_time": 2.7909090909090906,
                "pitch": 69,
                "velocity": 80,
                "duration": 0.1522727272727269,
                "tempo": 120.0
            },
            {
                "start_time": 2.7909090909090906,
                "end_time": 2.940909090909091,
                "pitch": 69,
                "velocity": 80,
                "duration": 0.15000000000000036,
                "tempo": 120.0
            },
            {
                "start_time": 2.943181818181818,
                "end_time": 3.093181818181818,
                "pitch": 69,
                "velocity": 80,
                "duration": 0.1499999999999999,
                "tempo": 120.0
            },
            {
                "start_time": 3.093181818181818,
                "end_time": 3.245454545454545,
                "pitch": 69,
                "velocity": 80,
                "duration": 0.15227272727272734,
                "tempo": 120.0
            },
            {
                "start_time": 3.245454545454545,
                "end_time": 3.3954545454545455,
                "pitch": 69,
                "velocity": 80,
                "duration": 0.15000000000000036,
                "tempo": 120.0
            },
            {
                "start_time": 3.3954545454545455,
                "end_time": 3.5454545454545454,
                "pitch": 69,
                "velocity": 80,
                "duration": 0.1499999999999999,
                "tempo": 120.0
            },
            {
                "start_time": 3.5477272727272724,
                "end_time": 3.6954545454545453,
                "pitch": 69,
                "velocity": 80,
                "duration": 0.14772727272727293,
                "tempo": 120.0
            },
            {
                "start_time": 3.6954545454545453,
                "end_time": 3.8454545454545452,
                "pitch": 69,
                "velocity": 80,
                "duration": 0.1499999999999999,
                "tempo": 120.0
            },
            {
                "start_time": 3.8454545454545452,
                "end_time": 3.9977272727272726,
                "pitch": 69,
                "velocity": 80,
                "duration": 0.15227272727272734,
                "tempo": 120.0
            },
            {
                "start_time": 3.9977272727272726,
                "end_time": 4.1499999999999995,
                "pitch": 69,
                "velocity": 80,
                "duration": 0.1522727272727269,
                "tempo": 120.0
            },
            {
                "start_time": 4.1499999999999995,
                "end_time": 4.3,
                "pitch": 69,
                "velocity": 80,
                "duration": 0.15000000000000036,
                "tempo": 120.0
            },
            {
                "start_time": 4.302272727272727,
                "end_time": 4.452272727272727,
                "pitch": 69,
                "velocity": 80,
                "duration": 0.15000000000000036,
                "tempo": 120.0
            },
            {
                "start_time": 4.454545454545454,
                "end_time": 4.602272727272727,
                "pitch": 69,
                "velocity": 80,
                "duration": 0.14772727272727249,
                "tempo": 120.0
            },
            {
                "start_time": 4.602272727272727,
                "end_time": 4.752272727272727,
                "pitch": 69,
                "velocity": 80,
                "duration": 0.15000000000000036,
                "tempo": 120.0
            },
            {
                "start_time": 4.754545454545454,
                "end_time": 4.902272727272727,
                "pitch": 62,
                "velocity": 80,
                "duration": 0.14772727272727337,
                "tempo": 120.0
            },
            {
                "start_time": 4.902272727272727,
                "end_time": 5.054545454545455,
                "pitch": 62,
                "velocity": 80,
                "duration": 0.15227272727272734,
                "tempo": 120.0
            },
            {
                "start_time": 5.054545454545455,
                "end_time": 5.204545454545454,
                "pitch": 62,
                "velocity": 80,
                "duration": 0.14999999999999947,
                "tempo": 120.0
            },
            {
                "start_time": 5.206818181818181,
                "end_time": 5.3568181818181815,
                "pitch": 62,
                "velocity": 80,
                "duration": 0.15000000000000036,
                "tempo": 120.0
            },
            {
                "start_time": 5.3590909090909085,
                "end_time": 5.509090909090909,
                "pitch": 62,
                "velocity": 80,
                "duration": 0.15000000000000036,
                "tempo": 120.0
            },
            {
                "start_time": 5.509090909090909,
                "end_time": 5.659090909090909,
                "pitch": 62,
                "velocity": 80,
                "duration": 0.15000000000000036,
                "tempo": 120.0
            },
            {
                "start_time": 5.661363636363636,
                "end_time": 5.809090909090909,
                "pitch": 62,
                "velocity": 80,
                "duration": 0.14772727272727249,
                "tempo": 120.0
            },
            {
                "start_time": 5.8113636363636365,
                "end_time": 5.961363636363636,
                "pitch": 62,
                "velocity": 80,
                "duration": 0.14999999999999947,
                "tempo": 120.0
            },
            {
                "start_time": 5.963636363636363,
                "end_time": 6.111363636363636,
                "pitch": 62,
                "velocity": 80,
                "duration": 0.14772727272727337,
                "tempo": 120.0
            },
            {
                "start_time": 6.111363636363636,
                "end_time": 6.261363636363636,
                "pitch": 62,
                "velocity": 80,
                "duration": 0.14999999999999947,
                "tempo": 120.0
            },
            {
                "start_time": 6.261363636363636,
                "end_time": 6.413636363636363,
                "pitch": 62,
                "velocity": 80,
                "duration": 0.15227272727272734,
                "tempo": 120.0
            },
            {
                "start_time": 6.413636363636363,
                "end_time": 6.5659090909090905,
                "pitch": 62,
                "velocity": 80,
                "duration": 0.15227272727272734,
                "tempo": 120.0
            },
            {
                "start_time": 6.5659090909090905,
                "end_time": 6.715909090909091,
                "pitch": 62,
                "velocity": 80,
                "duration": 0.15000000000000036,
                "tempo": 120.0
            },
            {
                "start_time": 6.718181818181818,
                "end_time": 6.868181818181818,
                "pitch": 62,
                "velocity": 80,
                "duration": 0.15000000000000036,
                "tempo": 120.0
            },
            {
                "start_time": 6.868181818181818,
                "end_time": 7.018181818181818,
                "pitch": 62,
                "velocity": 80,
                "duration": 0.14999999999999947,
                "tempo": 120.0
            },
            {
                "start_time": 7.018181818181818,
                "end_time": 7.168181818181818,
                "pitch": 62,
                "velocity": 80,
                "duration": 0.15000000000000036,
                "tempo": 120.0
            },
            {
                "start_time": 7.170454545454545,
                "end_time": 7.3181818181818175,
                "pitch": 69,
                "velocity": 80,
                "duration": 0.14772727272727249,
                "tempo": 120.0
            },
            {
                "start_time": 7.3181818181818175,
                "end_time": 7.468181818181818,
                "pitch": 69,
                "velocity": 80,
                "duration": 0.15000000000000036,
                "tempo": 120.0
            },
            {
                "start_time": 7.468181818181818,
                "end_time": 7.618181818181818,
                "pitch": 69,
                "velocity": 80,
                "duration": 0.15000000000000036,
                "tempo": 120.0
            },
            {
                "start_time": 7.620454545454545,
                "end_time": 7.768181818181818,
                "pitch": 69,
                "velocity": 80,
                "duration": 0.14772727272727249,
                "tempo": 120.0
            },
            {
                "start_time": 7.7704545454545455,
                "end_time": 7.918181818181818,
                "pitch": 69,
                "velocity": 80,
                "duration": 0.14772727272727249,
                "tempo": 120.0
            },
            {
                "start_time": 7.920454545454545,
                "end_time": 8.070454545454545,
                "pitch": 69,
                "velocity": 80,
                "duration": 0.15000000000000036,
                "tempo": 120.0
            },
            {
                "start_time": 8.070454545454545,
                "end_time": 8.218181818181817,
                "pitch": 69,
                "velocity": 80,
                "duration": 0.1477272727272716,
                "tempo": 120.0
            },
            {
                "start_time": 8.218181818181817,
                "end_time": 8.368181818181817,
                "pitch": 69,
                "velocity": 80,
                "duration": 0.15000000000000036,
                "tempo": 120.0
            },
            {
                "start_time": 8.370454545454544,
                "end_time": 8.520454545454545,
                "pitch": 69,
                "velocity": 80,
                "duration": 0.15000000000000036,
                "tempo": 120.0
            },
            {
                "start_time": 8.520454545454545,
                "end_time": 8.670454545454545,
                "pitch": 69,
                "velocity": 80,
                "duration": 0.15000000000000036,
                "tempo": 120.0
            },
            {
                "start_time": 8.670454545454545,
                "end_time": 8.822727272727272,
                "pitch": 69,
                "velocity": 80,
                "duration": 0.15227272727272734,
                "tempo": 120.0
            },
            {
                "start_time": 8.822727272727272,
                "end_time": 8.972727272727273,
                "pitch": 69,
                "velocity": 80,
                "duration": 0.15000000000000036,
                "tempo": 120.0
            },
            {
                "start_time": 8.975,
                "end_time": 9.125,
                "pitch": 68,
                "velocity": 80,
                "duration": 0.15000000000000036,
                "tempo": 120.0
            },
            {
                "start_time": 9.127272727272727,
                "end_time": 9.277272727272727,
                "pitch": 68,
                "velocity": 80,
                "duration": 0.15000000000000036,
                "tempo": 120.0
            },
            {
                "start_time": 9.277272727272727,
                "end_time": 9.427272727272728,
                "pitch": 68,
                "velocity": 80,
                "duration": 0.15000000000000036,
                "tempo": 120.0
            },
            {
                "start_time": 9.427272727272728,
                "end_time": 9.577272727272726,
                "pitch": 68,
                "velocity": 80,
                "duration": 0.14999999999999858,
                "tempo": 120.0
            },
            {
                "start_time": 9.577272727272726,
                "end_time": 9.727272727272727,
                "pitch": 62,
                "velocity": 80,
                "duration": 0.15000000000000036,
                "tempo": 120.0
            },
            {
                "start_time": 9.727272727272727,
                "end_time": 9.877272727272727,
                "pitch": 62,
                "velocity": 80,
                "duration": 0.15000000000000036,
                "tempo": 120.0
            },
            {
                "start_time": 9.879545454545454,
                "end_time": 10.027272727272727,
                "pitch": 62,
                "velocity": 80,
                "duration": 0.14772727272727337,
                "tempo": 120.0
            },
            {
                "start_time": 10.029545454545454,
                "end_time": 10.177272727272726,
                "pitch": 62,
                "velocity": 80,
                "duration": 0.1477272727272716,
                "tempo": 120.0
            },
            {
                "start_time": 10.179545454545455,
                "end_time": 10.327272727272726,
                "pitch": 62,
                "velocity": 80,
                "duration": 0.1477272727272716,
                "tempo": 120.0
            },
            {
                "start_time": 10.329545454545453,
                "end_time": 10.479545454545454,
                "pitch": 62,
                "velocity": 80,
                "duration": 0.15000000000000036,
                "tempo": 120.0
            },
            {
                "start_time": 10.479545454545454,
                "end_time": 10.631818181818181,
                "pitch": 62,
                "velocity": 80,
                "duration": 0.15227272727272734,
                "tempo": 120.0
            },
            {
                "start_time": 10.631818181818181,
                "end_time": 10.786363636363635,
                "pitch": 62,
                "velocity": 80,
                "duration": 0.15454545454545432,
                "tempo": 120.0
            },
            {
                "start_time": 10.786363636363635,
                "end_time": 10.938636363636363,
                "pitch": 62,
                "velocity": 80,
                "duration": 0.15227272727272734,
                "tempo": 120.0
            },
            {
                "start_time": 10.938636363636363,
                "end_time": 11.09090909090909,
                "pitch": 62,
                "velocity": 80,
                "duration": 0.15227272727272734,
                "tempo": 120.0
            },
            {
                "start_time": 11.093181818181817,
                "end_time": 11.243181818181817,
                "pitch": 62,
                "velocity": 80,
                "duration": 0.15000000000000036,
                "tempo": 120.0
            },
            {
                "start_time": 11.243181818181817,
                "end_time": 11.395454545454545,
                "pitch": 62,
                "velocity": 80,
                "duration": 0.15227272727272734,
                "tempo": 120.0
            },
            {
                "start_time": 11.395454545454545,
                "end_time": 11.547727272727272,
                "pitch": 62,
                "velocity": 80,
                "duration": 0.15227272727272734,
                "tempo": 120.0
            },
            {
                "start_time": 11.547727272727272,
                "end_time": 11.697727272727272,
                "pitch": 62,
                "velocity": 80,
                "duration": 0.15000000000000036,
                "tempo": 120.0
            },
            {
                "start_time": 11.7,
                "end_time": 11.847727272727273,
                "pitch": 62,
                "velocity": 80,
                "duration": 0.14772727272727337,
                "tempo": 120.0
            },
            {
                "start_time": 11.85,
                "end_time": 12.0,
                "pitch": 62,
                "velocity": 80,
                "duration": 0.15000000000000036,
                "tempo": 120.0
            },
            {
                "start_time": 12.0,
                "end_time": 12.147727272727272,
                "pitch": 69,
                "velocity": 80,
                "duration": 0.1477272727272716,
                "tempo": 120.0
            },
            {
                "start_time": 12.149999999999999,
                "end_time": 12.299999999999999,
                "pitch": 69,
                "velocity": 80,
                "duration": 0.15000000000000036,
                "tempo": 120.0
            },
            {
                "start_time": 12.299999999999999,
                "end_time": 12.45,
                "pitch": 69,
                "velocity": 80,
                "duration": 0.15000000000000036,
                "tempo": 120.0
            },
            {
                "start_time": 12.45,
                "end_time": 12.6,
                "pitch": 69,
                "velocity": 80,
                "duration": 0.15000000000000036,
                "tempo": 120.0
            },
            {
                "start_time": 12.6,
                "end_time": 12.75,
                "pitch": 69,
                "velocity": 80,
                "duration": 0.15000000000000036,
                "tempo": 120.0
            },
            {
                "start_time": 12.75,
                "end_time": 12.899999999999999,
                "pitch": 69,
                "velocity": 80,
                "duration": 0.14999999999999858,
                "tempo": 120.0
            },
            {
                "start_time": 12.902272727272727,
                "end_time": 13.049999999999999,
                "pitch": 69,
                "velocity": 80,
                "duration": 0.1477272727272716,
                "tempo": 120.0
            },
            {
                "start_time": 13.049999999999999,
                "end_time": 13.2,
                "pitch": 69,
                "velocity": 80,
                "duration": 0.15000000000000036,
                "tempo": 120.0
            },
            {
                "start_time": 13.202272727272726,
                "end_time": 13.35,
                "pitch": 69,
                "velocity": 80,
                "duration": 0.14772727272727337,
                "tempo": 120.0
            },
            {
                "start_time": 13.35,
                "end_time": 13.5,
                "pitch": 69,
                "velocity": 80,
                "duration": 0.15000000000000036,
                "tempo": 120.0
            },
            {
                "start_time": 13.502272727272727,
                "end_time": 13.649999999999999,
                "pitch": 69,
                "velocity": 80,
                "duration": 0.1477272727272716,
                "tempo": 120.0
            },
            {
                "start_time": 13.652272727272727,
                "end_time": 13.802272727272726,
                "pitch": 69,
                "velocity": 80,
                "duration": 0.14999999999999858,
                "tempo": 120.0
            },
            {
                "start_time": 13.802272727272726,
                "end_time": 13.952272727272726,
                "pitch": 69,
                "velocity": 80,
                "duration": 0.15000000000000036,
                "tempo": 120.0
            },
            {
                "start_time": 13.952272727272726,
                "end_time": 14.102272727272727,
                "pitch": 69,
                "velocity": 80,
                "duration": 0.15000000000000036,
                "tempo": 120.0
            },
            {
                "start_time": 14.102272727272727,
                "end_time": 14.252272727272727,
                "pitch": 69,
                "velocity": 80,
                "duration": 0.15000000000000036,
                "tempo": 120.0
            },
            {
                "start_time": 14.254545454545454,
                "end_time": 14.406818181818181,
                "pitch": 69,
                "velocity": 80,
                "duration": 0.15227272727272734,
                "tempo": 120.0
            },
            {
                "start_time": 14.406818181818181,
                "end_time": 14.556818181818182,
                "pitch": 64,
                "velocity": 80,
                "duration": 0.15000000000000036,
                "tempo": 120.0
            },
            {
                "start_time": 14.556818181818182,
                "end_time": 14.709090909090909,
                "pitch": 64,
                "velocity": 80,
                "duration": 0.15227272727272734,
                "tempo": 120.0
            },
            {
                "start_time": 14.709090909090909,
                "end_time": 14.859090909090908,
                "pitch": 64,
                "velocity": 80,
                "duration": 0.14999999999999858,
                "tempo": 120.0
            },
            {
                "start_time": 14.859090909090908,
                "end_time": 15.006818181818181,
                "pitch": 64,
                "velocity": 80,
                "duration": 0.14772727272727337,
                "tempo": 120.0
            },
            {
                "start_time": 15.009090909090908,
                "end_time": 15.159090909090908,
                "pitch": 64,
                "velocity": 80,
                "duration": 0.15000000000000036,
                "tempo": 120.0
            },
            {
                "start_time": 15.159090909090908,
                "end_time": 15.309090909090909,
                "pitch": 64,
                "velocity": 80,
                "duration": 0.15000000000000036,
                "tempo": 120.0
            },
            {
                "start_time": 15.309090909090909,
                "end_time": 15.459090909090909,
                "pitch": 64,
                "velocity": 80,
                "duration": 0.15000000000000036,
                "tempo": 120.0
            },
            {
                "start_time": 15.461363636363636,
                "end_time": 15.611363636363636,
                "pitch": 64,
                "velocity": 80,
                "duration": 0.15000000000000036,
                "tempo": 120.0
            },
            {
                "start_time": 15.611363636363636,
                "end_time": 15.759090909090908,
                "pitch": 62,
                "velocity": 80,
                "duration": 0.1477272727272716,
                "tempo": 120.0
            },
            {
                "start_time": 15.761363636363635,
                "end_time": 15.911363636363635,
                "pitch": 62,
                "velocity": 80,
                "duration": 0.15000000000000036,
                "tempo": 120.0
            },
            {
                "start_time": 15.911363636363635,
                "end_time": 16.061363636363634,
                "pitch": 62,
                "velocity": 80,
                "duration": 0.14999999999999858,
                "tempo": 120.0
            },
            {
                "start_time": 16.061363636363634,
                "end_time": 16.209090909090907,
                "pitch": 62,
                "velocity": 80,
                "duration": 0.14772727272727337,
                "tempo": 120.0
            },
            {
                "start_time": 16.209090909090907,
                "end_time": 16.361363636363635,
                "pitch": 62,
                "velocity": 80,
                "duration": 0.15227272727272734,
                "tempo": 120.0
            },
            {
                "start_time": 16.361363636363635,
                "end_time": 16.509090909090908,
                "pitch": 62,
                "velocity": 80,
                "duration": 0.14772727272727337,
                "tempo": 120.0
            },
            {
                "start_time": 16.511363636363637,
                "end_time": 16.663636363636364,
                "pitch": 62,
                "velocity": 80,
                "duration": 0.15227272727272734,
                "tempo": 120.0
            },
            {
                "start_time": 16.663636363636364,
                "end_time": 16.813636363636363,
                "pitch": 62,
                "velocity": 80,
                "duration": 0.14999999999999858,
                "tempo": 120.0
            },
            {
                "start_time": 16.81590909090909,
                "end_time": 16.96590909090909,
                "pitch": 69,
                "velocity": 80,
                "duration": 0.14999999999999858,
                "tempo": 120.0
            },
            {
                "start_time": 16.96590909090909,
                "end_time": 17.118181818181817,
                "pitch": 57,
                "velocity": 80,
                "duration": 0.15227272727272734,
                "tempo": 120.0
            },
            {
                "start_time": 17.118181818181817,
                "end_time": 17.268181818181816,
                "pitch": 59,
                "velocity": 80,
                "duration": 0.14999999999999858,
                "tempo": 120.0
            },
            {
                "start_time": 17.268181818181816,
                "end_time": 17.418181818181818,
                "pitch": 61,
                "velocity": 80,
                "duration": 0.15000000000000213,
                "tempo": 120.0
            },
            {
                "start_time": 17.418181818181818,
                "end_time": 17.568181818181817,
                "pitch": 62,
                "velocity": 80,
                "duration": 0.14999999999999858,
                "tempo": 120.0
            },
            {
                "start_time": 17.568181818181817,
                "end_time": 17.71818181818182,
                "pitch": 64,
                "velocity": 80,
                "duration": 0.15000000000000213,
                "tempo": 120.0
            },
            {
                "start_time": 17.71818181818182,
                "end_time": 17.870454545454546,
                "pitch": 66,
                "velocity": 80,
                "duration": 0.15227272727272734,
                "tempo": 120.0
            },
            {
                "start_time": 17.870454545454546,
                "end_time": 18.020454545454545,
                "pitch": 68,
                "velocity": 80,
                "duration": 0.14999999999999858,
                "tempo": 120.0
            },
            {
                "start_time": 18.022727272727273,
                "end_time": 18.172727272727272,
                "pitch": 69,
                "velocity": 80,
                "duration": 0.14999999999999858,
                "tempo": 120.0
            }
        ],
        "Electric Piano 1": [
            {
                "start_time": 0.20909090909090908,
                "end_time": 0.5113636363636364,
                "pitch": 62,
                "velocity": 80,
                "duration": 0.30227272727272725,
                "tempo": 120.0
            },
            {
                "start_time": 0.5136363636363636,
                "end_time": 0.8159090909090909,
                "pitch": 64,
                "velocity": 80,
                "duration": 0.30227272727272736,
                "tempo": 120.0
            },
            {
                "start_time": 0.8159090909090909,
                "end_time": 1.1181818181818182,
                "pitch": 66,
                "velocity": 80,
                "duration": 0.30227272727272725,
                "tempo": 120.0
            },
            {
                "start_time": 1.1204545454545454,
                "end_time": 1.4227272727272726,
                "pitch": 68,
                "velocity": 80,
                "duration": 0.30227272727272725,
                "tempo": 120.0
            },
            {
                "start_time": 1.4227272727272726,
                "end_time": 1.7227272727272727,
                "pitch": 66,
                "velocity": 80,
                "duration": 0.30000000000000004,
                "tempo": 120.0
            },
            {
                "start_time": 1.7249999999999999,
                "end_time": 1.8727272727272726,
                "pitch": 64,
                "velocity": 80,
                "duration": 0.1477272727272727,
                "tempo": 120.0
            },
            {
                "start_time": 1.875,
                "end_time": 2.3295454545454546,
                "pitch": 66,
                "velocity": 80,
                "duration": 0.4545454545454546,
                "tempo": 120.0
            },
            {
                "start_time": 2.3318181818181816,
                "end_time": 2.786363636363636,
                "pitch": 64,
                "velocity": 80,
                "duration": 0.4545454545454546,
                "tempo": 120.0
            },
            {
                "start_time": 2.7886363636363636,
                "end_time": 3.243181818181818,
                "pitch": 61,
                "velocity": 80,
                "duration": 0.4545454545454546,
                "tempo": 120.0
            },
            {
                "start_time": 3.243181818181818,
                "end_time": 3.543181818181818,
                "pitch": 69,
                "velocity": 80,
                "duration": 0.2999999999999998,
                "tempo": 120.0
            },
            {
                "start_time": 3.5454545454545454,
                "end_time": 3.995454545454545,
                "pitch": 68,
                "velocity": 80,
                "duration": 0.44999999999999973,
                "tempo": 120.0
            },
            {
                "start_time": 3.9977272727272726,
                "end_time": 4.45,
                "pitch": 66,
                "velocity": 80,
                "duration": 0.4522727272727276,
                "tempo": 120.0
            },
            {
                "start_time": 4.452272727272727,
                "end_time": 4.75,
                "pitch": 64,
                "velocity": 80,
                "duration": 0.29772727272727284,
                "tempo": 120.0
            },
            {
                "start_time": 5.052272727272727,
                "end_time": 5.202272727272727,
                "pitch": 64,
                "velocity": 80,
                "duration": 0.15000000000000036,
                "tempo": 120.0
            },
            {
                "start_time": 5.204545454545454,
                "end_time": 5.3545454545454545,
                "pitch": 62,
                "velocity": 80,
                "duration": 0.15000000000000036,
                "tempo": 120.0
            },
            {
                "start_time": 5.3568181818181815,
                "end_time": 5.506818181818182,
                "pitch": 64,
                "velocity": 80,
                "duration": 0.15000000000000036,
                "tempo": 120.0
            },
            {
                "start_time": 5.506818181818182,
                "end_time": 5.959090909090909,
                "pitch": 66,
                "velocity": 80,
                "duration": 0.45227272727272716,
                "tempo": 120.0
            },
            {
                "start_time": 5.959090909090909,
                "end_time": 6.259090909090909,
                "pitch": 68,
                "velocity": 80,
                "duration": 0.2999999999999998,
                "tempo": 120.0
            },
            {
                "start_time": 6.259090909090909,
                "end_time": 6.561363636363636,
                "pitch": 66,
                "velocity": 80,
                "duration": 0.3022727272727268,
                "tempo": 120.0
            },
            {
                "start_time": 6.5636363636363635,
                "end_time": 6.713636363636363,
                "pitch": 64,
                "velocity": 80,
                "duration": 0.14999999999999947,
                "tempo": 120.0
            },
            {
                "start_time": 6.715909090909091,
                "end_time": 7.16590909090909,
                "pitch": 62,
                "velocity": 80,
                "duration": 0.4499999999999993,
                "tempo": 120.0
            },
            {
                "start_time": 7.168181818181818,
                "end_time": 7.61590909090909,
                "pitch": 66,
                "velocity": 80,
                "duration": 0.4477272727272723,
                "tempo": 120.0
            },
            {
                "start_time": 7.618181818181818,
                "end_time": 8.218181818181817,
                "pitch": 64,
                "velocity": 80,
                "duration": 0.5999999999999988,
                "tempo": 120.0
            },
            {
                "start_time": 8.520454545454545,
                "end_time": 8.668181818181818,
                "pitch": 57,
                "velocity": 80,
                "duration": 0.14772727272727337,
                "tempo": 120.0
            },
            {
                "start_time": 8.670454545454545,
                "end_time": 8.820454545454545,
                "pitch": 61,
                "velocity": 80,
                "duration": 0.15000000000000036,
                "tempo": 120.0
            },
            {
                "start_time": 8.820454545454545,
                "end_time": 8.970454545454546,
                "pitch": 62,
                "velocity": 80,
                "duration": 0.15000000000000036,
                "tempo": 120.0
            },
            {
                "start_time": 8.972727272727273,
                "end_time": 9.122727272727273,
                "pitch": 69,
                "velocity": 80,
                "duration": 0.15000000000000036,
                "tempo": 120.0
            },
            {
                "start_time": 9.125,
                "end_time": 9.575,
                "pitch": 66,
                "velocity": 80,
                "duration": 0.4499999999999993,
                "tempo": 120.0
            },
            {
                "start_time": 9.877272727272727,
                "end_time": 10.174999999999999,
                "pitch": 62,
                "velocity": 80,
                "duration": 0.29772727272727195,
                "tempo": 120.0
            },
            {
                "start_time": 10.177272727272726,
                "end_time": 10.475,
                "pitch": 64,
                "velocity": 80,
                "duration": 0.29772727272727373,
                "tempo": 120.0
            },
            {
                "start_time": 10.477272727272727,
                "end_time": 10.781818181818181,
                "pitch": 66,
                "velocity": 80,
                "duration": 0.3045454545454547,
                "tempo": 120.0
            },
            {
                "start_time": 10.784090909090908,
                "end_time": 11.088636363636363,
                "pitch": 68,
                "velocity": 80,
                "duration": 0.3045454545454547,
                "tempo": 120.0
            },
            {
                "start_time": 11.09090909090909,
                "end_time": 11.393181818181818,
                "pitch": 66,
                "velocity": 80,
                "duration": 0.3022727272727277,
                "tempo": 120.0
            },
            {
                "start_time": 11.393181818181818,
                "end_time": 11.543181818181818,
                "pitch": 64,
                "velocity": 80,
                "duration": 0.15000000000000036,
                "tempo": 120.0
            },
            {
                "start_time": 11.545454545454545,
                "end_time": 11.995454545454544,
                "pitch": 66,
                "velocity": 80,
                "duration": 0.4499999999999993,
                "tempo": 120.0
            },
            {
                "start_time": 11.997727272727273,
                "end_time": 12.447727272727272,
                "pitch": 64,
                "velocity": 80,
                "duration": 0.4499999999999993,
                "tempo": 120.0
            },
            {
                "start_time": 12.447727272727272,
                "end_time": 12.897727272727272,
                "pitch": 61,
                "velocity": 80,
                "duration": 0.4499999999999993,
                "tempo": 120.0
            },
            {
                "start_time": 12.899999999999999,
                "end_time": 13.497727272727271,
                "pitch": 69,
                "velocity": 80,
                "duration": 0.5977272727272727,
                "tempo": 120.0
            },
            {
                "start_time": 13.5,
                "end_time": 13.797727272727272,
                "pitch": 68,
                "velocity": 80,
                "duration": 0.29772727272727195,
                "tempo": 120.0
            },
            {
                "start_time": 13.799999999999999,
                "end_time": 14.1,
                "pitch": 69,
                "velocity": 80,
                "duration": 0.3000000000000007,
                "tempo": 120.0
            },
            {
                "start_time": 14.1,
                "end_time": 14.402272727272727,
                "pitch": 61,
                "velocity": 80,
                "duration": 0.3022727272727277,
                "tempo": 120.0
            },
            {
                "start_time": 14.404545454545454,
                "end_time": 14.85681818181818,
                "pitch": 64,
                "velocity": 80,
                "duration": 0.45227272727272627,
                "tempo": 120.0
            },
            {
                "start_time": 14.85681818181818,
                "end_time": 15.006818181818181,
                "pitch": 62,
                "velocity": 80,
                "duration": 0.15000000000000036,
                "tempo": 120.0
            },
            {
                "start_time": 15.159090909090908,
                "end_time": 15.306818181818182,
                "pitch": 61,
                "velocity": 80,
                "duration": 0.14772727272727337,
                "tempo": 120.0
            },
            {
                "start_time": 15.309090909090909,
                "end_time": 15.45681818181818,
                "pitch": 62,
                "velocity": 80,
                "duration": 0.1477272727272716,
                "tempo": 120.0
            },
            {
                "start_time": 15.459090909090909,
                "end_time": 15.60681818181818,
                "pitch": 64,
                "velocity": 80,
                "duration": 0.1477272727272716,
                "tempo": 120.0
            },
            {
                "start_time": 15.609090909090908,
                "end_time": 15.906818181818181,
                "pitch": 69,
                "velocity": 80,
                "duration": 0.29772727272727373,
                "tempo": 120.0
            },
            {
                "start_time": 15.909090909090908,
                "end_time": 16.05681818181818,
                "pitch": 68,
                "velocity": 80,
                "duration": 0.1477272727272716,
                "tempo": 120.0
            },
            {
                "start_time": 16.05909090909091,
                "end_time": 16.206818181818182,
                "pitch": 66,
                "velocity": 80,
                "duration": 0.14772727272727337,
                "tempo": 120.0
            },
            {
                "start_time": 16.35909090909091,
                "end_time": 16.509090909090908,
                "pitch": 68,
                "velocity": 80,
                "duration": 0.14999999999999858,
                "tempo": 120.0
            },
            {
                "start_time": 16.661363636363635,
                "end_time": 18.170454545454543,
                "pitch": 69,
                "velocity": 80,
                "duration": 1.509090909090908,
                "tempo": 120.0
            }
        ],
        "Acoustic Bass": [
            {
                "start_time": 0.011363636363636364,
                "end_time": 0.10681818181818181,
                "pitch": 38,
                "velocity": 101,
                "duration": 0.09545454545454544,
                "tempo": 120.0
            },
            {
                "start_time": 0.10909090909090909,
                "end_time": 0.20909090909090908,
                "pitch": 38,
                "velocity": 101,
                "duration": 0.09999999999999999,
                "tempo": 120.0
            },
            {
                "start_time": 0.21136363636363636,
                "end_time": 0.36136363636363633,
                "pitch": 38,
                "velocity": 101,
                "duration": 0.14999999999999997,
                "tempo": 120.0
            },
            {
                "start_time": 0.36136363636363633,
                "end_time": 0.5136363636363636,
                "pitch": 38,
                "velocity": 101,
                "duration": 0.15227272727272723,
                "tempo": 120.0
            },
            {
                "start_time": 0.5136363636363636,
                "end_time": 0.6659090909090909,
                "pitch": 38,
                "velocity": 101,
                "duration": 0.15227272727272734,
                "tempo": 120.0
            },
            {
                "start_time": 0.6659090909090909,
                "end_time": 0.8159090909090909,
                "pitch": 38,
                "velocity": 101,
                "duration": 0.15000000000000002,
                "tempo": 120.0
            },
            {
                "start_time": 0.8181818181818181,
                "end_time": 0.9681818181818181,
                "pitch": 38,
                "velocity": 101,
                "duration": 0.15000000000000002,
                "tempo": 120.0
            },
            {
                "start_time": 0.9681818181818181,
                "end_time": 1.1204545454545454,
                "pitch": 38,
                "velocity": 101,
                "duration": 0.15227272727272723,
                "tempo": 120.0
            },
            {
                "start_time": 1.1227272727272726,
                "end_time": 1.2704545454545455,
                "pitch": 38,
                "velocity": 101,
                "duration": 0.14772727272727293,
                "tempo": 120.0
            },
            {
                "start_time": 1.2727272727272727,
                "end_time": 1.4227272727272726,
                "pitch": 38,
                "velocity": 101,
                "duration": 0.1499999999999999,
                "tempo": 120.0
            },
            {
                "start_time": 1.4249999999999998,
                "end_time": 1.5727272727272728,
                "pitch": 38,
                "velocity": 101,
                "duration": 0.14772727272727293,
                "tempo": 120.0
            },
            {
                "start_time": 1.575,
                "end_time": 1.7249999999999999,
                "pitch": 38,
                "velocity": 101,
                "duration": 0.1499999999999999,
                "tempo": 120.0
            },
            {
                "start_time": 1.7249999999999999,
                "end_time": 1.875,
                "pitch": 38,
                "velocity": 101,
                "duration": 0.15000000000000013,
                "tempo": 120.0
            },
            {
                "start_time": 1.875,
                "end_time": 2.025,
                "pitch": 38,
                "velocity": 101,
                "duration": 0.1499999999999999,
                "tempo": 120.0
            },
            {
                "start_time": 2.025,
                "end_time": 2.1772727272727272,
                "pitch": 38,
                "velocity": 101,
                "duration": 0.15227272727272734,
                "tempo": 120.0
            },
            {
                "start_time": 2.1772727272727272,
                "end_time": 2.3318181818181816,
                "pitch": 38,
                "velocity": 101,
                "duration": 0.15454545454545432,
                "tempo": 120.0
            },
            {
                "start_time": 2.3318181818181816,
                "end_time": 2.484090909090909,
                "pitch": 37,
                "velocity": 101,
                "duration": 0.15227272727272734,
                "tempo": 120.0
            },
            {
                "start_time": 2.484090909090909,
                "end_time": 2.6363636363636362,
                "pitch": 37,
                "velocity": 101,
                "duration": 0.15227272727272734,
                "tempo": 120.0
            },
            {
                "start_time": 2.6386363636363637,
                "end_time": 2.7886363636363636,
                "pitch": 37,
                "velocity": 101,
                "duration": 0.1499999999999999,
                "tempo": 120.0
            },
            {
                "start_time": 2.7909090909090906,
                "end_time": 2.940909090909091,
                "pitch": 37,
                "velocity": 101,
                "duration": 0.15000000000000036,
                "tempo": 120.0
            },
            {
                "start_time": 2.940909090909091,
                "end_time": 3.093181818181818,
                "pitch": 37,
                "velocity": 101,
                "duration": 0.1522727272727269,
                "tempo": 120.0
            },
            {
                "start_time": 3.093181818181818,
                "end_time": 3.243181818181818,
                "pitch": 37,
                "velocity": 101,
                "duration": 0.15000000000000036,
                "tempo": 120.0
            },
            {
                "start_time": 3.245454545454545,
                "end_time": 3.393181818181818,
                "pitch": 37,
                "velocity": 101,
                "duration": 0.14772727272727293,
                "tempo": 120.0
            },
            {
                "start_time": 3.3954545454545455,
                "end_time": 3.5454545454545454,
                "pitch": 37,
                "velocity": 101,
                "duration": 0.1499999999999999,
                "tempo": 120.0
            },
            {
                "start_time": 3.5454545454545454,
                "end_time": 3.6954545454545453,
                "pitch": 37,
                "velocity": 101,
                "duration": 0.1499999999999999,
                "tempo": 120.0
            },
            {
                "start_time": 3.6954545454545453,
                "end_time": 3.8454545454545452,
                "pitch": 37,
                "velocity": 101,
                "duration": 0.1499999999999999,
                "tempo": 120.0
            },
            {
                "start_time": 3.8454545454545452,
                "end_time": 3.9977272727272726,
                "pitch": 37,
                "velocity": 101,
                "duration": 0.15227272727272734,
                "tempo": 120.0
            },
            {
                "start_time": 3.9977272727272726,
                "end_time": 4.1477272727272725,
                "pitch": 37,
                "velocity": 101,
                "duration": 0.1499999999999999,
                "tempo": 120.0
            },
            {
                "start_time": 4.1477272727272725,
                "end_time": 4.3,
                "pitch": 37,
                "velocity": 101,
                "duration": 0.15227272727272734,
                "tempo": 120.0
            },
            {
                "start_time": 4.3,
                "end_time": 4.452272727272727,
                "pitch": 37,
                "velocity": 101,
                "duration": 0.15227272727272734,
                "tempo": 120.0
            },
            {
                "start_time": 4.452272727272727,
                "end_time": 4.602272727272727,
                "pitch": 37,
                "velocity": 101,
                "duration": 0.14999999999999947,
                "tempo": 120.0
            },
            {
                "start_time": 4.602272727272727,
                "end_time": 4.752272727272727,
                "pitch": 37,
                "velocity": 101,
                "duration": 0.15000000000000036,
                "tempo": 120.0
            },
            {
                "start_time": 4.752272727272727,
                "end_time": 4.8999999999999995,
                "pitch": 38,
                "velocity": 101,
                "duration": 0.14772727272727249,
                "tempo": 120.0
            },
            {
                "start_time": 4.902272727272727,
                "end_time": 5.052272727272727,
                "pitch": 38,
                "velocity": 101,
                "duration": 0.14999999999999947,
                "tempo": 120.0
            },
            {
                "start_time": 5.054545454545455,
                "end_time": 5.204545454545454,
                "pitch": 38,
                "velocity": 101,
                "duration": 0.14999999999999947,
                "tempo": 120.0
            },
            {
                "start_time": 5.204545454545454,
                "end_time": 5.3568181818181815,
                "pitch": 38,
                "velocity": 101,
                "duration": 0.15227272727272734,
                "tempo": 120.0
            },
            {
                "start_time": 5.3568181818181815,
                "end_time": 5.509090909090909,
                "pitch": 38,
                "velocity": 101,
                "duration": 0.15227272727272734,
                "tempo": 120.0
            },
            {
                "start_time": 5.509090909090909,
                "end_time": 5.659090909090909,
                "pitch": 38,
                "velocity": 101,
                "duration": 0.15000000000000036,
                "tempo": 120.0
            },
            {
                "start_time": 5.659090909090909,
                "end_time": 5.809090909090909,
                "pitch": 38,
                "velocity": 101,
                "duration": 0.14999999999999947,
                "tempo": 120.0
            },
            {
                "start_time": 5.809090909090909,
                "end_time": 5.961363636363636,
                "pitch": 38,
                "velocity": 101,
                "duration": 0.15227272727272734,
                "tempo": 120.0
            },
            {
                "start_time": 5.961363636363636,
                "end_time": 6.1090909090909085,
                "pitch": 38,
                "velocity": 101,
                "duration": 0.14772727272727249,
                "tempo": 120.0
            },
            {
                "start_time": 6.111363636363636,
                "end_time": 6.259090909090909,
                "pitch": 38,
                "velocity": 101,
                "duration": 0.14772727272727249,
                "tempo": 120.0
            },
            {
                "start_time": 6.261363636363636,
                "end_time": 6.411363636363636,
                "pitch": 38,
                "velocity": 101,
                "duration": 0.15000000000000036,
                "tempo": 120.0
            },
            {
                "start_time": 6.413636363636363,
                "end_time": 6.5636363636363635,
                "pitch": 38,
                "velocity": 101,
                "duration": 0.15000000000000036,
                "tempo": 120.0
            },
            {
                "start_time": 6.5636363636363635,
                "end_time": 6.715909090909091,
                "pitch": 38,
                "velocity": 101,
                "duration": 0.15227272727272734,
                "tempo": 120.0
            },
            {
                "start_time": 6.715909090909091,
                "end_time": 6.86590909090909,
                "pitch": 38,
                "velocity": 101,
                "duration": 0.14999999999999947,
                "tempo": 120.0
            },
            {
                "start_time": 6.868181818181818,
                "end_time": 7.018181818181818,
                "pitch": 38,
                "velocity": 101,
                "duration": 0.14999999999999947,
                "tempo": 120.0
            },
            {
                "start_time": 7.018181818181818,
                "end_time": 7.168181818181818,
                "pitch": 38,
                "velocity": 101,
                "duration": 0.15000000000000036,
                "tempo": 120.0
            },
            {
                "start_time": 7.168181818181818,
                "end_time": 7.3181818181818175,
                "pitch": 37,
                "velocity": 101,
                "duration": 0.14999999999999947,
                "tempo": 120.0
            },
            {
                "start_time": 7.3181818181818175,
                "end_time": 7.468181818181818,
                "pitch": 37,
                "velocity": 101,
                "duration": 0.15000000000000036,
                "tempo": 120.0
            },
            {
                "start_time": 7.468181818181818,
                "end_time": 7.618181818181818,
                "pitch": 37,
                "velocity": 101,
                "duration": 0.15000000000000036,
                "tempo": 120.0
            },
            {
                "start_time": 7.618181818181818,
                "end_time": 7.768181818181818,
                "pitch": 37,
                "velocity": 101,
                "duration": 0.14999999999999947,
                "tempo": 120.0
            },
            {
                "start_time": 7.768181818181818,
                "end_time": 7.918181818181818,
                "pitch": 37,
                "velocity": 101,
                "duration": 0.15000000000000036,
                "tempo": 120.0
            },
            {
                "start_time": 7.918181818181818,
                "end_time": 8.068181818181818,
                "pitch": 37,
                "velocity": 101,
                "duration": 0.15000000000000036,
                "tempo": 120.0
            },
            {
                "start_time": 8.068181818181818,
                "end_time": 8.218181818181817,
                "pitch": 37,
                "velocity": 101,
                "duration": 0.14999999999999858,
                "tempo": 120.0
            },
            {
                "start_time": 8.218181818181817,
                "end_time": 8.368181818181817,
                "pitch": 37,
                "velocity": 101,
                "duration": 0.15000000000000036,
                "tempo": 120.0
            },
            {
                "start_time": 8.368181818181817,
                "end_time": 8.520454545454545,
                "pitch": 37,
                "velocity": 101,
                "duration": 0.15227272727272734,
                "tempo": 120.0
            },
            {
                "start_time": 8.520454545454545,
                "end_time": 8.670454545454545,
                "pitch": 37,
                "velocity": 101,
                "duration": 0.15000000000000036,
                "tempo": 120.0
            },
            {
                "start_time": 8.670454545454545,
                "end_time": 8.820454545454545,
                "pitch": 37,
                "velocity": 101,
                "duration": 0.15000000000000036,
                "tempo": 120.0
            },
            {
                "start_time": 8.822727272727272,
                "end_time": 8.972727272727273,
                "pitch": 37,
                "velocity": 101,
                "duration": 0.15000000000000036,
                "tempo": 120.0
            },
            {
                "start_time": 8.972727272727273,
                "end_time": 9.125,
                "pitch": 36,
                "velocity": 101,
                "duration": 0.15227272727272734,
                "tempo": 120.0
            },
            {
                "start_time": 9.125,
                "end_time": 9.275,
                "pitch": 36,
                "velocity": 101,
                "duration": 0.15000000000000036,
                "tempo": 120.0
            },
            {
                "start_time": 9.277272727272727,
                "end_time": 9.427272727272728,
                "pitch": 36,
                "velocity": 101,
                "duration": 0.15000000000000036,
                "tempo": 120.0
            },
            {
                "start_time": 9.427272727272728,
                "end_time": 9.575,
                "pitch": 36,
                "velocity": 101,
                "duration": 0.1477272727272716,
                "tempo": 120.0
            },
            {
                "start_time": 9.577272727272726,
                "end_time": 9.725,
                "pitch": 38,
                "velocity": 101,
                "duration": 0.14772727272727337,
                "tempo": 120.0
            },
            {
                "start_time": 9.725,
                "end_time": 9.877272727272727,
                "pitch": 38,
                "velocity": 101,
                "duration": 0.15227272727272734,
                "tempo": 120.0
            },
            {
                "start_time": 9.877272727272727,
                "end_time": 10.027272727272727,
                "pitch": 38,
                "velocity": 101,
                "duration": 0.15000000000000036,
                "tempo": 120.0
            },
            {
                "start_time": 10.027272727272727,
                "end_time": 10.177272727272726,
                "pitch": 38,
                "velocity": 101,
                "duration": 0.14999999999999858,
                "tempo": 120.0
            },
            {
                "start_time": 10.177272727272726,
                "end_time": 10.327272727272726,
                "pitch": 38,
                "velocity": 101,
                "duration": 0.15000000000000036,
                "tempo": 120.0
            },
            {
                "start_time": 10.327272727272726,
                "end_time": 10.477272727272727,
                "pitch": 38,
                "velocity": 101,
                "duration": 0.15000000000000036,
                "tempo": 120.0
            },
            {
                "start_time": 10.479545454545454,
                "end_time": 10.629545454545454,
                "pitch": 38,
                "velocity": 101,
                "duration": 0.15000000000000036,
                "tempo": 120.0
            },
            {
                "start_time": 10.631818181818181,
                "end_time": 10.784090909090908,
                "pitch": 38,
                "velocity": 101,
                "duration": 0.15227272727272734,
                "tempo": 120.0
            },
            {
                "start_time": 10.786363636363635,
                "end_time": 10.936363636363636,
                "pitch": 38,
                "velocity": 101,
                "duration": 0.15000000000000036,
                "tempo": 120.0
            },
            {
                "start_time": 10.938636363636363,
                "end_time": 11.09090909090909,
                "pitch": 38,
                "velocity": 101,
                "duration": 0.15227272727272734,
                "tempo": 120.0
            },
            {
                "start_time": 11.09090909090909,
                "end_time": 11.243181818181817,
                "pitch": 38,
                "velocity": 101,
                "duration": 0.15227272727272734,
                "tempo": 120.0
            },
            {
                "start_time": 11.243181818181817,
                "end_time": 11.395454545454545,
                "pitch": 38,
                "velocity": 101,
                "duration": 0.15227272727272734,
                "tempo": 120.0
            },
            {
                "start_time": 11.395454545454545,
                "end_time": 11.545454545454545,
                "pitch": 38,
                "velocity": 101,
                "duration": 0.15000000000000036,
                "tempo": 120.0
            },
            {
                "start_time": 11.547727272727272,
                "end_time": 11.697727272727272,
                "pitch": 38,
                "velocity": 101,
                "duration": 0.15000000000000036,
                "tempo": 120.0
            },
            {
                "start_time": 11.697727272727272,
                "end_time": 11.847727272727273,
                "pitch": 38,
                "velocity": 101,
                "duration": 0.15000000000000036,
                "tempo": 120.0
            },
            {
                "start_time": 11.847727272727273,
                "end_time": 11.997727272727273,
                "pitch": 38,
                "velocity": 101,
                "duration": 0.15000000000000036,
                "tempo": 120.0
            },
            {
                "start_time": 12.0,
                "end_time": 12.147727272727272,
                "pitch": 37,
                "velocity": 101,
                "duration": 0.1477272727272716,
                "tempo": 120.0
            },
            {
                "start_time": 12.147727272727272,
                "end_time": 12.297727272727272,
                "pitch": 37,
                "velocity": 101,
                "duration": 0.15000000000000036,
                "tempo": 120.0
            },
            {
                "start_time": 12.297727272727272,
                "end_time": 12.447727272727272,
                "pitch": 37,
                "velocity": 101,
                "duration": 0.15000000000000036,
                "tempo": 120.0
            },
            {
                "start_time": 12.45,
                "end_time": 12.597727272727273,
                "pitch": 37,
                "velocity": 101,
                "duration": 0.14772727272727337,
                "tempo": 120.0
            },
            {
                "start_time": 12.6,
                "end_time": 12.747727272727271,
                "pitch": 37,
                "velocity": 101,
                "duration": 0.1477272727272716,
                "tempo": 120.0
            },
            {
                "start_time": 12.75,
                "end_time": 12.899999999999999,
                "pitch": 37,
                "velocity": 101,
                "duration": 0.14999999999999858,
                "tempo": 120.0
            },
            {
                "start_time": 12.899999999999999,
                "end_time": 13.049999999999999,
                "pitch": 37,
                "velocity": 101,
                "duration": 0.15000000000000036,
                "tempo": 120.0
            },
            {
                "start_time": 13.049999999999999,
                "end_time": 13.2,
                "pitch": 37,
                "velocity": 101,
                "duration": 0.15000000000000036,
                "tempo": 120.0
            },
            {
                "start_time": 13.2,
                "end_time": 13.35,
                "pitch": 37,
                "velocity": 101,
                "duration": 0.15000000000000036,
                "tempo": 120.0
            },
            {
                "start_time": 13.35,
                "end_time": 13.5,
                "pitch": 37,
                "velocity": 101,
                "duration": 0.15000000000000036,
                "tempo": 120.0
            },
            {
                "start_time": 13.5,
                "end_time": 13.649999999999999,
                "pitch": 37,
                "velocity": 101,
                "duration": 0.14999999999999858,
                "tempo": 120.0
            },
            {
                "start_time": 13.649999999999999,
                "end_time": 13.799999999999999,
                "pitch": 37,
                "velocity": 101,
                "duration": 0.15000000000000036,
                "tempo": 120.0
            },
            {
                "start_time": 13.799999999999999,
                "end_time": 13.95,
                "pitch": 37,
                "velocity": 101,
                "duration": 0.15000000000000036,
                "tempo": 120.0
            },
            {
                "start_time": 13.95,
                "end_time": 14.1,
                "pitch": 37,
                "velocity": 101,
                "duration": 0.15000000000000036,
                "tempo": 120.0
            },
            {
                "start_time": 14.102272727272727,
                "end_time": 14.252272727272727,
                "pitch": 37,
                "velocity": 101,
                "duration": 0.15000000000000036,
                "tempo": 120.0
            },
            {
                "start_time": 14.252272727272727,
                "end_time": 14.404545454545454,
                "pitch": 37,
                "velocity": 101,
                "duration": 0.15227272727272734,
                "tempo": 120.0
            },
            {
                "start_time": 14.406818181818181,
                "end_time": 14.554545454545455,
                "pitch": 40,
                "velocity": 101,
                "duration": 0.14772727272727337,
                "tempo": 120.0
            },
            {
                "start_time": 14.556818181818182,
                "end_time": 14.70681818181818,
                "pitch": 40,
                "velocity": 101,
                "duration": 0.14999999999999858,
                "tempo": 120.0
            },
            {
                "start_time": 14.709090909090909,
                "end_time": 14.85681818181818,
                "pitch": 40,
                "velocity": 101,
                "duration": 0.1477272727272716,
                "tempo": 120.0
            },
            {
                "start_time": 14.859090909090908,
                "end_time": 15.006818181818181,
                "pitch": 40,
                "velocity": 101,
                "duration": 0.14772727272727337,
                "tempo": 120.0
            },
            {
                "start_time": 15.006818181818181,
                "end_time": 15.159090909090908,
                "pitch": 40,
                "velocity": 101,
                "duration": 0.15227272727272734,
                "tempo": 120.0
            },
            {
                "start_time": 15.159090909090908,
                "end_time": 15.309090909090909,
                "pitch": 40,
                "velocity": 101,
                "duration": 0.15000000000000036,
                "tempo": 120.0
            },
            {
                "start_time": 15.309090909090909,
                "end_time": 15.459090909090909,
                "pitch": 40,
                "velocity": 101,
                "duration": 0.15000000000000036,
                "tempo": 120.0
            },
            {
                "start_time": 15.459090909090909,
                "end_time": 15.609090909090908,
                "pitch": 40,
                "velocity": 101,
                "duration": 0.14999999999999858,
                "tempo": 120.0
            },
            {
                "start_time": 15.611363636363636,
                "end_time": 15.759090909090908,
                "pitch": 40,
                "velocity": 101,
                "duration": 0.1477272727272716,
                "tempo": 120.0
            },
            {
                "start_time": 15.759090909090908,
                "end_time": 15.909090909090908,
                "pitch": 40,
                "velocity": 101,
                "duration": 0.15000000000000036,
                "tempo": 120.0
            },
            {
                "start_time": 15.909090909090908,
                "end_time": 16.05909090909091,
                "pitch": 40,
                "velocity": 101,
                "duration": 0.15000000000000036,
                "tempo": 120.0
            },
            {
                "start_time": 16.061363636363634,
                "end_time": 16.209090909090907,
                "pitch": 40,
                "velocity": 101,
                "duration": 0.14772727272727337,
                "tempo": 120.0
            },
            {
                "start_time": 16.209090909090907,
                "end_time": 16.35909090909091,
                "pitch": 40,
                "velocity": 101,
                "duration": 0.15000000000000213,
                "tempo": 120.0
            },
            {
                "start_time": 16.361363636363635,
                "end_time": 16.509090909090908,
                "pitch": 40,
                "velocity": 101,
                "duration": 0.14772727272727337,
                "tempo": 120.0
            },
            {
                "start_time": 16.509090909090908,
                "end_time": 16.661363636363635,
                "pitch": 40,
                "velocity": 101,
                "duration": 0.15227272727272734,
                "tempo": 120.0
            },
            {
                "start_time": 16.661363636363635,
                "end_time": 16.813636363636363,
                "pitch": 40,
                "velocity": 101,
                "duration": 0.15227272727272734,
                "tempo": 120.0
            },
            {
                "start_time": 16.813636363636363,
                "end_time": 16.96590909090909,
                "pitch": 45,
                "velocity": 101,
                "duration": 0.15227272727272734,
                "tempo": 120.0
            },
            {
                "start_time": 16.96590909090909,
                "end_time": 17.11590909090909,
                "pitch": 45,
                "velocity": 101,
                "duration": 0.14999999999999858,
                "tempo": 120.0
            },
            {
                "start_time": 17.118181818181817,
                "end_time": 17.26590909090909,
                "pitch": 45,
                "velocity": 101,
                "duration": 0.14772727272727337,
                "tempo": 120.0
            },
            {
                "start_time": 17.268181818181816,
                "end_time": 17.41590909090909,
                "pitch": 45,
                "velocity": 101,
                "duration": 0.14772727272727337,
                "tempo": 120.0
            },
            {
                "start_time": 17.418181818181818,
                "end_time": 17.568181818181817,
                "pitch": 45,
                "velocity": 101,
                "duration": 0.14999999999999858,
                "tempo": 120.0
            },
            {
                "start_time": 17.568181818181817,
                "end_time": 17.71818181818182,
                "pitch": 45,
                "velocity": 101,
                "duration": 0.15000000000000213,
                "tempo": 120.0
            },
            {
                "start_time": 17.71818181818182,
                "end_time": 17.868181818181817,
                "pitch": 45,
                "velocity": 101,
                "duration": 0.14999999999999858,
                "tempo": 120.0
            },
            {
                "start_time": 17.870454545454546,
                "end_time": 18.020454545454545,
                "pitch": 45,
                "velocity": 101,
                "duration": 0.14999999999999858,
                "tempo": 120.0
            },
            {
                "start_time": 18.020454545454545,
                "end_time": 18.170454545454543,
                "pitch": 45,
                "velocity": 101,
                "duration": 0.14999999999999858,
                "tempo": 120.0
            },
            {
                "start_time": 18.32272727272727,
                "end_time": 18.78181818181818,
                "pitch": 38,
                "velocity": 101,
                "duration": 0.45909090909091077,
                "tempo": 120.0
            },
            {
                "start_time": 18.784090909090907,
                "end_time": 19.08863636363636,
                "pitch": 40,
                "velocity": 101,
                "duration": 0.3045454545454547,
                "tempo": 120.0
            },
            {
                "start_time": 19.08863636363636,
                "end_time": 19.238636363636363,
                "pitch": 42,
                "velocity": 101,
                "duration": 0.15000000000000213,
                "tempo": 120.0
            },
            {
                "start_time": 19.24772727272727,
                "end_time": 19.25,
                "pitch": 38,
                "velocity": 101,
                "duration": 0.0022727272727287584,
                "tempo": 120.0
            }
        ]
    }
}