{
    "track_id": "03_Palm",
    "mood": "happy",
    "instruments": {
        "Acoustic Bass": [
            {
                "start_time": 0.12954545454545455,
                "end_time": 0.36818181818181817,
                "pitch": 33,
                "velocity": 127,
                "duration": 0.23863636363636362,
                "tempo": 120.0
            },
            {
                "start_time": 0.7295454545454545,
                "end_time": 0.85,
                "pitch": 33,
                "velocity": 127,
                "duration": 0.12045454545454548,
                "tempo": 120.0
            },
            {
                "start_time": 0.85,
                "end_time": 1.209090909090909,
                "pitch": 28,
                "velocity": 127,
                "duration": 0.359090909090909,
                "tempo": 120.0
            },
            {
                "start_time": 1.209090909090909,
                "end_time": 1.45,
                "pitch": 33,
                "velocity": 127,
                "duration": 0.24090909090909096,
                "tempo": 120.0
            },
            {
                "start_time": 1.5704545454545453,
                "end_time": 1.809090909090909,
                "pitch": 33,
                "velocity": 127,
                "duration": 0.23863636363636376,
                "tempo": 120.0
            },
            {
                "start_time": 2.1704545454545454,
                "end_time": 2.290909090909091,
                "pitch": 33,
                "velocity": 127,
                "duration": 0.12045454545454559,
                "tempo": 120.0
            },
            {
                "start_time": 0.85,
                "end_time": 2.290909090909091,
                "pitch": 42,
                "velocity": 127,
                "duration": 1.440909090909091,
                "tempo": 120.0
            },
            {
                "start_time": 2.290909090909091,
                "end_time": 2.65,
                "pitch": 28,
                "velocity": 127,
                "duration": 0.3590909090909089,
                "tempo": 120.0
            },
            {
                "start_time": 2.65,
                "end_time": 2.8909090909090907,
                "pitch": 33,
                "velocity": 127,
                "duration": 0.24090909090909074,
                "tempo": 120.0
            },
            {
                "start_time": 3.0113636363636362,
                "end_time": 3.25,
                "pitch": 31,
                "velocity": 127,
                "duration": 0.23863636363636376,
                "tempo": 120.0
            },
            {
                "start_time": 3.6113636363636363,
                "end_time": 3.7318181818181815,
                "pitch": 31,
                "velocity": 127,
                "duration": 0.12045454545454515,
                "tempo": 120.0
            },
            {
                "start_time": 3.7318181818181815,
                "end_time": 4.081818181818182,
                "pitch": 26,
                "velocity": 127,
                "duration": 0.35000000000000053,
                "tempo": 120.0
            },
            {
                "start_time": 4.081818181818182,
                "end_time": 4.320454545454545,
                "pitch": 31,
                "velocity": 127,
                "duration": 0.2386363636363633,
                "tempo": 120.0
            },
            {
                "start_time": 4.4409090909090905,
                "end_time": 4.681818181818182,
                "pitch": 38,
                "velocity": 127,
                "duration": 0.24090909090909118,
                "tempo": 120.0
            },
            {
                "start_time": 5.040909090909091,
                "end_time": 5.161363636363636,
                "pitch": 38,
                "velocity": 127,
                "duration": 0.12045454545454515,
                "tempo": 120.0
            },
            {
                "start_time": 5.161363636363636,
                "end_time": 5.5227272727272725,
                "pitch": 33,
                "velocity": 127,
                "duration": 0.36136363636363633,
                "tempo": 120.0
            },
            {
                "start_time": 5.5227272727272725,
                "end_time": 5.761363636363636,
                "pitch": 31,
                "velocity": 127,
                "duration": 0.2386363636363633,
                "tempo": 120.0
            },
            {
                "start_time": 5.5227272727272725,
                "end_time": 5.761363636363636,
                "pitch": 31,
                "velocity": 127,
                "duration": 0.2386363636363633,
                "tempo": 120.0
            },
            {
                "start_time": 5.881818181818182,
                "end_time": 6.122727272727272,
                "pitch": 33,
                "velocity": 127,
                "duration": 0.2409090909090903,
                "tempo": 120.0
            },
            {
                "start_time": 6.4818181818181815,
                "end_time": 6.602272727272727,
                "pitch": 33,
                "velocity": 127,
                "duration": 0.12045454545454515,
                "tempo": 120.0
            },
            {
                "start_time": 2.290909090909091,
                "end_time": 6.602272727272727,
                "pitch": 42,
                "velocity": 127,
                "duration": 4.311363636363636,
                "tempo": 120.0
            },
            {
                "start_time": 6.602272727272727,
                "end_time": 6.963636363636363,
                "pitch": 28,
                "velocity": 127,
                "duration": 0.36136363636363633,
                "tempo": 120.0
            },
            {
                "start_time": 6.963636363636363,
                "end_time": 7.202272727272727,
                "pitch": 33,
                "velocity": 127,
                "duration": 0.2386363636363642,
                "tempo": 120.0
            },
            {
                "start_time": 7.322727272727272,
                "end_time": 7.556818181818182,
                "pitch": 33,
                "velocity": 127,
                "duration": 0.23409090909090935,
                "tempo": 120.0
            },
            {
                "start_time": 7.913636363636363,
                "end_time": 8.031818181818181,
                "pitch": 33,
                "velocity": 127,
                "duration": 0.11818181818181817,
                "tempo": 120.0
            },
            {
                "start_time": 6.602272727272727,
                "end_time": 8.031818181818181,
                "pitch": 42,
                "velocity": 127,
                "duration": 1.4295454545454547,
                "tempo": 120.0
            },
            {
                "start_time": 8.031818181818181,
                "end_time": 8.393181818181818,
                "pitch": 28,
                "velocity": 127,
                "duration": 0.36136363636363633,
                "tempo": 120.0
            },
            {
                "start_time": 8.393181818181818,
                "end_time": 8.634090909090908,
                "pitch": 33,
                "velocity": 127,
                "duration": 0.2409090909090903,
                "tempo": 120.0
            },
            {
                "start_time": 8.752272727272727,
                "end_time": 8.993181818181817,
                "pitch": 31,
                "velocity": 127,
                "duration": 0.2409090909090903,
                "tempo": 120.0
            },
            {
                "start_time": 9.352272727272727,
                "end_time": 9.472727272727273,
                "pitch": 31,
                "velocity": 127,
                "duration": 0.12045454545454604,
                "tempo": 120.0
            },
            {
                "start_time": 9.472727272727273,
                "end_time": 9.834090909090909,
                "pitch": 26,
                "velocity": 127,
                "duration": 0.36136363636363633,
                "tempo": 120.0
            },
            {
                "start_time": 9.834090909090909,
                "end_time": 10.072727272727272,
                "pitch": 31,
                "velocity": 127,
                "duration": 0.2386363636363633,
                "tempo": 120.0
            },
            {
                "start_time": 10.193181818181818,
                "end_time": 10.434090909090909,
                "pitch": 38,
                "velocity": 127,
                "duration": 0.2409090909090903,
                "tempo": 120.0
            },
            {
                "start_time": 10.786363636363635,
                "end_time": 10.904545454545454,
                "pitch": 38,
                "velocity": 127,
                "duration": 0.11818181818181905,
                "tempo": 120.0
            },
            {
                "start_time": 10.904545454545454,
                "end_time": 11.263636363636364,
                "pitch": 33,
                "velocity": 127,
                "duration": 0.35909090909090935,
                "tempo": 120.0
            },
            {
                "start_time": 11.263636363636364,
                "end_time": 11.504545454545454,
                "pitch": 31,
                "velocity": 127,
                "duration": 0.2409090909090903,
                "tempo": 120.0
            },
            {
                "start_time": 11.263636363636364,
                "end_time": 11.504545454545454,
                "pitch": 31,
                "velocity": 127,
                "duration": 0.2409090909090903,
                "tempo": 120.0
            },
            {
                "start_time": 11.625,
                "end_time": 11.863636363636363,
                "pitch": 33,
                "velocity": 127,
                "duration": 0.2386363636363633,
                "tempo": 120.0
            },
            {
                "start_time": 12.225,
                "end_time": 12.345454545454546,
                "pitch": 33,
                "velocity": 127,
                "duration": 0.12045454545454604,
                "tempo": 120.0
            },
            {
                "start_time": 8.031818181818181,
                "end_time": 12.345454545454546,
                "pitch": 42,
                "velocity": 127,
                "duration": 4.313636363636364,
                "tempo": 120.0
            },
            {
                "start_time": 12.345454545454546,
                "end_time": 12.704545454545453,
                "pitch": 28,
                "velocity": 127,
                "duration": 0.3590909090909076,
                "tempo": 120.0
            },
            {
                "start_time": 12.704545454545453,
                "end_time": 12.945454545454545,
                "pitch": 33,
                "velocity": 127,
                "duration": 0.24090909090909207,
                "tempo": 120.0
            },
            {
                "start_time": 13.06590909090909,
                "end_time": 13.304545454545455,
                "pitch": 33,
                "velocity": 127,
                "duration": 0.2386363636363651,
                "tempo": 120.0
            },
            {
                "start_time": 13.665909090909091,
                "end_time": 13.784090909090908,
                "pitch": 33,
                "velocity": 127,
                "duration": 0.11818181818181728,
                "tempo": 120.0
            },
            {
                "start_time": 12.345454545454546,
                "end_time": 13.786363636363635,
                "pitch": 42,
                "velocity": 127,
                "duration": 1.4409090909090896,
                "tempo": 120.0
            },
            {
                "start_time": 13.784090909090908,
                "end_time": 13.786363636363635,
                "pitch": 42,
                "velocity": 127,
                "duration": 0.002272727272726982,
                "tempo": 120.0
            },
            {
                "start_time": 13.786363636363635,
                "end_time": 14.134090909090908,
                "pitch": 28,
                "velocity": 127,
                "duration": 0.34772727272727266,
                "tempo": 120.0
            },
            {
                "start_time": 14.134090909090908,
                "end_time": 14.375,
                "pitch": 33,
                "velocity": 127,
                "duration": 0.24090909090909207,
                "tempo": 120.0
            },
            {
                "start_time": 14.495454545454544,
                "end_time": 14.736363636363636,
                "pitch": 31,
                "velocity": 127,
                "duration": 0.24090909090909207,
                "tempo": 120.0
            },
            {
                "start_time": 15.095454545454544,
                "end_time": 15.21590909090909,
                "pitch": 31,
                "velocity": 127,
                "duration": 0.12045454545454604,
                "tempo": 120.0
            },
            {
                "start_time": 9.472727272727273,
                "end_time": 15.21590909090909,
                "pitch": 41,
                "velocity": 127,
                "duration": 5.743181818181817,
                "tempo": 120.0
            },
            {
                "start_time": 4.081818181818182,
                "end_time": 15.575,
                "pitch": 0,
                "velocity": 127,
                "duration": 11.493181818181817,
                "tempo": 120.0
            },
            {
                "start_time": 15.21590909090909,
                "end_time": 15.575,
                "pitch": 26,
                "velocity": 127,
                "duration": 0.35909090909090935,
                "tempo": 120.0
            },
            {
                "start_time": 15.575,
                "end_time": 15.81590909090909,
                "pitch": 31,
                "velocity": 127,
                "duration": 0.2409090909090903,
                "tempo": 120.0
            },
            {
                "start_time": 15.936363636363636,
                "end_time": 16.177272727272726,
                "pitch": 38,
                "velocity": 127,
                "duration": 0.2409090909090903,
                "tempo": 120.0
            },
            {
                "start_time": 16.536363636363635,
                "end_time": 16.65681818181818,
                "pitch": 38,
                "velocity": 127,
                "duration": 0.12045454545454604,
                "tempo": 120.0
            },
            {
                "start_time": 16.65681818181818,
                "end_time": 17.01590909090909,
                "pitch": 33,
                "velocity": 127,
                "duration": 0.35909090909090935,
                "tempo": 120.0
            },
            {
                "start_time": 17.01590909090909,
                "end_time": 17.25,
                "pitch": 31,
                "velocity": 127,
                "duration": 0.23409090909090935,
                "tempo": 120.0
            },
            {
                "start_time": 17.01590909090909,
                "end_time": 17.25,
                "pitch": 31,
                "velocity": 127,
                "duration": 0.23409090909090935,
                "tempo": 120.0
            },
            {
                "start_time": 17.36590909090909,
                "end_time": 17.60681818181818,
                "pitch": 29,
                "velocity": 127,
                "duration": 0.24090909090909207,
                "tempo": 120.0
            },
            {
                "start_time": 17.96590909090909,
                "end_time": 18.086363636363636,
                "pitch": 29,
                "velocity": 127,
                "duration": 0.12045454545454604,
                "tempo": 120.0
            },
            {
                "start_time": 18.086363636363636,
                "end_time": 18.44772727272727,
                "pitch": 24,
                "velocity": 127,
                "duration": 0.36136363636363455,
                "tempo": 120.0
            },
            {
                "start_time": 18.44772727272727,
                "end_time": 18.686363636363634,
                "pitch": 29,
                "velocity": 127,
                "duration": 0.2386363636363633,
                "tempo": 120.0
            },
            {
                "start_time": 18.44772727272727,
                "end_time": 18.686363636363634,
                "pitch": 29,
                "velocity": 127,
                "duration": 0.2386363636363633,
                "tempo": 120.0
            },
            {
                "start_time": 18.80681818181818,
                "end_time": 19.047727272727272,
                "pitch": 31,
                "velocity": 127,
                "duration": 0.24090909090909207,
                "tempo": 120.0
            },
            {
                "start_time": 19.40681818181818,
                "end_time": 19.527272727272727,
                "pitch": 31,
                "velocity": 127,
                "duration": 0.12045454545454604,
                "tempo": 120.0
            },
            {
                "start_time": 15.21590909090909,
                "end_time": 19.527272727272727,
                "pitch": 41,
                "velocity": 127,
                "duration": 4.311363636363637,
                "tempo": 120.0
            },
            {
                "start_time": 15.575,
                "end_time": 19.877272727272725,
                "pitch": 0,
                "velocity": 127,
                "duration": 4.302272727272726,
                "tempo": 120.0
            },
            {
                "start_time": 19.527272727272727,
                "end_time": 19.877272727272725,
                "pitch": 26,
                "velocity": 127,
                "duration": 0.34999999999999787,
                "tempo": 120.0
            },
            {
                "start_time": 19.877272727272725,
                "end_time": 20.12272727272727,
                "pitch": 31,
                "velocity": 127,
                "duration": 0.24545454545454604,
                "tempo": 120.0
            },
            {
                "start_time": 20.245454545454546,
                "end_time": 20.479545454545452,
                "pitch": 33,
                "velocity": 127,
                "duration": 0.2340909090909058,
                "tempo": 120.0
            },
            {
                "start_time": 20.836363636363636,
                "end_time": 20.956818181818182,
                "pitch": 33,
                "velocity": 127,
                "duration": 0.12045454545454604,
                "tempo": 120.0
            },
            {
                "start_time": 20.956818181818182,
                "end_time": 21.31590909090909,
                "pitch": 28,
                "velocity": 127,
                "duration": 0.35909090909090935,
                "tempo": 120.0
            },
            {
                "start_time": 21.31590909090909,
                "end_time": 21.55681818181818,
                "pitch": 33,
                "velocity": 127,
                "duration": 0.24090909090908852,
                "tempo": 120.0
            },
            {
                "start_time": 21.675,
                "end_time": 21.91590909090909,
                "pitch": 31,
                "velocity": 127,
                "duration": 0.24090909090908852,
                "tempo": 120.0
            },
            {
                "start_time": 22.277272727272727,
                "end_time": 22.397727272727273,
                "pitch": 31,
                "velocity": 127,
                "duration": 0.12045454545454604,
                "tempo": 120.0
            },
            {
                "start_time": 22.397727272727273,
                "end_time": 22.75681818181818,
                "pitch": 26,
                "velocity": 127,
                "duration": 0.3590909090909058,
                "tempo": 120.0
            },
            {
                "start_time": 22.75681818181818,
                "end_time": 22.99772727272727,
                "pitch": 24,
                "velocity": 127,
                "duration": 0.24090909090909207,
                "tempo": 120.0
            },
            {
                "start_time": 23.11590909090909,
                "end_time": 23.349999999999998,
                "pitch": 29,
                "velocity": 127,
                "duration": 0.23409090909090935,
                "tempo": 120.0
            },
            {
                "start_time": 23.706818181818182,
                "end_time": 23.827272727272724,
                "pitch": 29,
                "velocity": 127,
                "duration": 0.12045454545454248,
                "tempo": 120.0
            },
            {
                "start_time": 23.827272727272724,
                "end_time": 24.186363636363634,
                "pitch": 24,
                "velocity": 127,
                "duration": 0.35909090909090935,
                "tempo": 120.0
            },
            {
                "start_time": 24.186363636363634,
                "end_time": 24.427272727272726,
                "pitch": 29,
                "velocity": 127,
                "duration": 0.24090909090909207,
                "tempo": 120.0
            },
            {
                "start_time": 24.186363636363634,
                "end_time": 24.427272727272726,
                "pitch": 29,
                "velocity": 127,
                "duration": 0.24090909090909207,
                "tempo": 120.0
            },
            {
                "start_time": 24.547727272727272,
                "end_time": 24.786363636363635,
                "pitch": 31,
                "velocity": 127,
                "duration": 0.2386363636363633,
                "tempo": 120.0
            },
            {
                "start_time": 25.14772727272727,
                "end_time": 25.268181818181816,
                "pitch": 31,
                "velocity": 127,
                "duration": 0.12045454545454604,
                "tempo": 120.0
            },
            {
                "start_time": 19.877272727272725,
                "end_time": 25.627272727272725,
                "pitch": 0,
                "velocity": 127,
                "duration": 5.75,
                "tempo": 120.0
            },
            {
                "start_time": 25.268181818181816,
                "end_time": 25.627272727272725,
                "pitch": 26,
                "velocity": 127,
                "duration": 0.35909090909090935,
                "tempo": 120.0
            },
            {
                "start_time": 25.627272727272725,
                "end_time": 25.868181818181817,
                "pitch": 31,
                "velocity": 127,
                "duration": 0.24090909090909207,
                "tempo": 120.0
            },
            {
                "start_time": 25.988636363636363,
                "end_time": 26.227272727272727,
                "pitch": 33,
                "velocity": 127,
                "duration": 0.2386363636363633,
                "tempo": 120.0
            },
            {
                "start_time": 26.581818181818182,
                "end_time": 26.69772727272727,
                "pitch": 33,
                "velocity": 127,
                "duration": 0.11590909090908852,
                "tempo": 120.0
            },
            {
                "start_time": 26.69772727272727,
                "end_time": 27.05909090909091,
                "pitch": 28,
                "velocity": 127,
                "duration": 0.3613636363636381,
                "tempo": 120.0
            },
            {
                "start_time": 27.05909090909091,
                "end_time": 27.297727272727272,
                "pitch": 33,
                "velocity": 127,
                "duration": 0.2386363636363633,
                "tempo": 120.0
            },
            {
                "start_time": 27.418181818181818,
                "end_time": 27.659090909090907,
                "pitch": 31,
                "velocity": 127,
                "duration": 0.24090909090908852,
                "tempo": 120.0
            },
            {
                "start_time": 28.018181818181816,
                "end_time": 28.138636363636362,
                "pitch": 31,
                "velocity": 127,
                "duration": 0.12045454545454604,
                "tempo": 120.0
            },
            {
                "start_time": 19.527272727272727,
                "end_time": 28.138636363636362,
                "pitch": 41,
                "velocity": 127,
                "duration": 8.611363636363635,
                "tempo": 120.0
            },
            {
                "start_time": 28.138636363636362,
                "end_time": 28.5,
                "pitch": 26,
                "velocity": 127,
                "duration": 0.3613636363636381,
                "tempo": 120.0
            },
            {
                "start_time": 28.5,
                "end_time": 28.738636363636363,
                "pitch": 24,
                "velocity": 127,
                "duration": 0.2386363636363633,
                "tempo": 120.0
            },
            {
                "start_time": 28.85909090909091,
                "end_time": 29.099999999999998,
                "pitch": 34,
                "velocity": 127,
                "duration": 0.24090909090908852,
                "tempo": 120.0
            },
            {
                "start_time": 29.452272727272724,
                "end_time": 29.568181818181817,
                "pitch": 34,
                "velocity": 127,
                "duration": 0.11590909090909207,
                "tempo": 120.0
            },
            {
                "start_time": 26.69772727272727,
                "end_time": 29.568181818181817,
                "pitch": 42,
                "velocity": 127,
                "duration": 2.870454545454546,
                "tempo": 120.0
            },
            {
                "start_time": 29.568181818181817,
                "end_time": 29.929545454545455,
                "pitch": 29,
                "velocity": 127,
                "duration": 0.3613636363636381,
                "tempo": 120.0
            },
            {
                "start_time": 29.929545454545455,
                "end_time": 30.170454545454543,
                "pitch": 34,
                "velocity": 127,
                "duration": 0.24090909090908852,
                "tempo": 120.0
            },
            {
                "start_time": 30.28863636363636,
                "end_time": 30.529545454545453,
                "pitch": 34,
                "velocity": 127,
                "duration": 0.24090909090909207,
                "tempo": 120.0
            },
            {
                "start_time": 30.89090909090909,
                "end_time": 31.009090909090908,
                "pitch": 34,
                "velocity": 127,
                "duration": 0.11818181818181728,
                "tempo": 120.0
            },
            {
                "start_time": 31.009090909090908,
                "end_time": 31.370454545454542,
                "pitch": 29,
                "velocity": 127,
                "duration": 0.36136363636363455,
                "tempo": 120.0
            },
            {
                "start_time": 31.370454545454542,
                "end_time": 31.609090909090906,
                "pitch": 34,
                "velocity": 127,
                "duration": 0.2386363636363633,
                "tempo": 120.0
            },
            {
                "start_time": 31.729545454545452,
                "end_time": 31.96363636363636,
                "pitch": 32,
                "velocity": 127,
                "duration": 0.23409090909090935,
                "tempo": 120.0
            },
            {
                "start_time": 32.320454545454545,
                "end_time": 32.44090909090909,
                "pitch": 32,
                "velocity": 127,
                "duration": 0.12045454545454248,
                "tempo": 120.0
            },
            {
                "start_time": 28.138636363636362,
                "end_time": 32.44090909090909,
                "pitch": 41,
                "velocity": 127,
                "duration": 4.302272727272726,
                "tempo": 120.0
            },
            {
                "start_time": 32.44090909090909,
                "end_time": 32.8,
                "pitch": 27,
                "velocity": 127,
                "duration": 0.35909090909090935,
                "tempo": 120.0
            },
            {
                "start_time": 32.8,
                "end_time": 33.04090909090909,
                "pitch": 32,
                "velocity": 127,
                "duration": 0.24090909090909207,
                "tempo": 120.0
            },
            {
                "start_time": 33.16136363636363,
                "end_time": 33.4,
                "pitch": 39,
                "velocity": 127,
                "duration": 0.23863636363636687,
                "tempo": 120.0
            },
            {
                "start_time": 33.76136363636363,
                "end_time": 33.88181818181818,
                "pitch": 39,
                "velocity": 127,
                "duration": 0.12045454545454959,
                "tempo": 120.0
            },
            {
                "start_time": 33.88181818181818,
                "end_time": 34.24090909090909,
                "pitch": 34,
                "velocity": 127,
                "duration": 0.35909090909090935,
                "tempo": 120.0
            },
            {
                "start_time": 34.24090909090909,
                "end_time": 34.48181818181818,
                "pitch": 32,
                "velocity": 127,
                "duration": 0.24090909090908497,
                "tempo": 120.0
            },
            {
                "start_time": 34.60227272727273,
                "end_time": 34.840909090909086,
                "pitch": 34,
                "velocity": 127,
                "duration": 0.23863636363635976,
                "tempo": 120.0
            },
            {
                "start_time": 35.20227272727273,
                "end_time": 35.32272727272727,
                "pitch": 34,
                "velocity": 127,
                "duration": 0.12045454545454248,
                "tempo": 120.0
            },
            {
                "start_time": 29.568181818181817,
                "end_time": 35.32272727272727,
                "pitch": 42,
                "velocity": 127,
                "duration": 5.754545454545454,
                "tempo": 120.0
            },
            {
                "start_time": 35.32272727272727,
                "end_time": 35.67045454545455,
                "pitch": 29,
                "velocity": 127,
                "duration": 0.3477272727272762,
                "tempo": 120.0
            },
            {
                "start_time": 35.67045454545455,
                "end_time": 35.918181818181814,
                "pitch": 34,
                "velocity": 127,
                "duration": 0.2477272727272677,
                "tempo": 120.0
            },
            {
                "start_time": 36.04090909090909,
                "end_time": 36.27272727272727,
                "pitch": 34,
                "velocity": 127,
                "duration": 0.23181818181818414,
                "tempo": 120.0
            },
            {
                "start_time": 36.62954545454545,
                "end_time": 36.75,
                "pitch": 34,
                "velocity": 127,
                "duration": 0.12045454545454959,
                "tempo": 120.0
            },
            {
                "start_time": 35.32272727272727,
                "end_time": 36.75,
                "pitch": 42,
                "velocity": 127,
                "duration": 1.4272727272727295,
                "tempo": 120.0
            },
            {
                "start_time": 36.75,
                "end_time": 37.10909090909091,
                "pitch": 29,
                "velocity": 127,
                "duration": 0.35909090909090935,
                "tempo": 120.0
            },
            {
                "start_time": 31.370454545454542,
                "end_time": 37.111363636363635,
                "pitch": 2,
                "velocity": 127,
                "duration": 5.740909090909092,
                "tempo": 120.0
            },
            {
                "start_time": 37.10909090909091,
                "end_time": 37.111363636363635,
                "pitch": 2,
                "velocity": 127,
                "duration": 0.0022727272727252057,
                "tempo": 120.0
            },
            {
                "start_time": 37.111363636363635,
                "end_time": 37.35,
                "pitch": 34,
                "velocity": 127,
                "duration": 0.23863636363636687,
                "tempo": 120.0
            },
            {
                "start_time": 37.470454545454544,
                "end_time": 37.711363636363636,
                "pitch": 32,
                "velocity": 127,
                "duration": 0.24090909090909207,
                "tempo": 120.0
            },
            {
                "start_time": 38.070454545454545,
                "end_time": 38.19090909090909,
                "pitch": 32,
                "velocity": 127,
                "duration": 0.12045454545454248,
                "tempo": 120.0
            },
            {
                "start_time": 38.19090909090909,
                "end_time": 38.55,
                "pitch": 27,
                "velocity": 127,
                "duration": 0.35909090909090935,
                "tempo": 120.0
            },
            {
                "start_time": 38.55,
                "end_time": 38.79090909090909,
                "pitch": 32,
                "velocity": 127,
                "duration": 0.24090909090909207,
                "tempo": 120.0
            },
            {
                "start_time": 38.91136363636363,
                "end_time": 39.143181818181816,
                "pitch": 39,
                "velocity": 127,
                "duration": 0.23181818181818414,
                "tempo": 120.0
            },
            {
                "start_time": 33.88181818181818,
                "end_time": 39.62045454545454,
                "pitch": 15,
                "velocity": 127,
                "duration": 5.73863636363636,
                "tempo": 120.0
            },
            {
                "start_time": 39.5,
                "end_time": 39.62045454545454,
                "pitch": 39,
                "velocity": 127,
                "duration": 0.12045454545454248,
                "tempo": 120.0
            },
            {
                "start_time": 39.62045454545454,
                "end_time": 39.98181818181818,
                "pitch": 34,
                "velocity": 127,
                "duration": 0.36136363636363455,
                "tempo": 120.0
            },
            {
                "start_time": 39.98181818181818,
                "end_time": 40.220454545454544,
                "pitch": 32,
                "velocity": 127,
                "duration": 0.23863636363636687,
                "tempo": 120.0
            },
            {
                "start_time": 40.340909090909086,
                "end_time": 40.58181818181818,
                "pitch": 34,
                "velocity": 127,
                "duration": 0.24090909090909207,
                "tempo": 120.0
            },
            {
                "start_time": 40.94318181818181,
                "end_time": 41.06136363636364,
                "pitch": 34,
                "velocity": 127,
                "duration": 0.11818181818182438,
                "tempo": 120.0
            },
            {
                "start_time": 41.06136363636364,
                "end_time": 41.42272727272727,
                "pitch": 29,
                "velocity": 127,
                "duration": 0.36136363636363455,
                "tempo": 120.0
            },
            {
                "start_time": 41.42272727272727,
                "end_time": 41.66136363636363,
                "pitch": 34,
                "velocity": 127,
                "duration": 0.23863636363635976,
                "tempo": 120.0
            },
            {
                "start_time": 41.78181818181818,
                "end_time": 42.02272727272727,
                "pitch": 34,
                "velocity": 127,
                "duration": 0.24090909090909207,
                "tempo": 120.0
            },
            {
                "start_time": 42.375,
                "end_time": 42.49318181818182,
                "pitch": 34,
                "velocity": 127,
                "duration": 0.11818181818181728,
                "tempo": 120.0
            },
            {
                "start_time": 36.75,
                "end_time": 42.49318181818182,
                "pitch": 42,
                "velocity": 127,
                "duration": 5.743181818181817,
                "tempo": 120.0
            },
            {
                "start_time": 42.49318181818182,
                "end_time": 42.85227272727273,
                "pitch": 29,
                "velocity": 127,
                "duration": 0.35909090909090935,
                "tempo": 120.0
            },
            {
                "start_time": 42.85227272727273,
                "end_time": 43.09318181818182,
                "pitch": 34,
                "velocity": 127,
                "duration": 0.24090909090909207,
                "tempo": 120.0
            },
            {
                "start_time": 43.21363636363636,
                "end_time": 43.45227272727273,
                "pitch": 32,
                "velocity": 127,
                "duration": 0.23863636363636687,
                "tempo": 120.0
            },
            {
                "start_time": 43.81363636363636,
                "end_time": 43.93181818181818,
                "pitch": 32,
                "velocity": 127,
                "duration": 0.11818181818181728,
                "tempo": 120.0
            },
            {
                "start_time": 43.934090909090905,
                "end_time": 44.293181818181814,
                "pitch": 27,
                "velocity": 127,
                "duration": 0.35909090909090935,
                "tempo": 120.0
            },
            {
                "start_time": 44.293181818181814,
                "end_time": 44.53409090909091,
                "pitch": 32,
                "velocity": 127,
                "duration": 0.24090909090909207,
                "tempo": 120.0
            },
            {
                "start_time": 44.65454545454545,
                "end_time": 44.893181818181816,
                "pitch": 39,
                "velocity": 127,
                "duration": 0.23863636363636687,
                "tempo": 120.0
            },
            {
                "start_time": 39.62045454545454,
                "end_time": 45.37272727272727,
                "pitch": 15,
                "velocity": 127,
                "duration": 5.752272727272725,
                "tempo": 120.0
            },
            {
                "start_time": 45.25454545454545,
                "end_time": 45.37272727272727,
                "pitch": 39,
                "velocity": 127,
                "duration": 0.11818181818181728,
                "tempo": 120.0
            },
            {
                "start_time": 45.37272727272727,
                "end_time": 45.72272727272727,
                "pitch": 34,
                "velocity": 127,
                "duration": 0.3500000000000014,
                "tempo": 120.0
            },
            {
                "start_time": 45.72272727272727,
                "end_time": 45.96363636363636,
                "pitch": 32,
                "velocity": 127,
                "duration": 0.24090909090909207,
                "tempo": 120.0
            },
            {
                "start_time": 46.084090909090904,
                "end_time": 46.32272727272727,
                "pitch": 30,
                "velocity": 127,
                "duration": 0.23863636363636687,
                "tempo": 120.0
            },
            {
                "start_time": 46.684090909090905,
                "end_time": 46.804545454545455,
                "pitch": 30,
                "velocity": 127,
                "duration": 0.12045454545454959,
                "tempo": 120.0
            },
            {
                "start_time": 46.804545454545455,
                "end_time": 47.163636363636364,
                "pitch": 25,
                "velocity": 127,
                "duration": 0.35909090909090935,
                "tempo": 120.0
            },
            {
                "start_time": 46.804545454545455,
                "end_time": 47.163636363636364,
                "pitch": 25,
                "velocity": 127,
                "duration": 0.35909090909090935,
                "tempo": 120.0
            },
            {
                "start_time": 47.163636363636364,
                "end_time": 47.40454545454545,
                "pitch": 30,
                "velocity": 127,
                "duration": 0.24090909090908497,
                "tempo": 120.0
            },
            {
                "start_time": 47.163636363636364,
                "end_time": 47.40454545454545,
                "pitch": 30,
                "velocity": 127,
                "duration": 0.24090909090908497,
                "tempo": 120.0
            },
            {
                "start_time": 47.525,
                "end_time": 47.76363636363636,
                "pitch": 32,
                "velocity": 127,
                "duration": 0.23863636363635976,
                "tempo": 120.0
            },
            {
                "start_time": 48.125,
                "end_time": 48.24545454545454,
                "pitch": 32,
                "velocity": 127,
                "duration": 0.12045454545454248,
                "tempo": 120.0
            },
            {
                "start_time": 32.44090909090909,
                "end_time": 48.24545454545454,
                "pitch": 41,
                "velocity": 127,
                "duration": 15.804545454545455,
                "tempo": 120.0
            },
            {
                "start_time": 48.24545454545454,
                "end_time": 48.595454545454544,
                "pitch": 27,
                "velocity": 127,
                "duration": 0.3500000000000014,
                "tempo": 120.0
            },
            {
                "start_time": 48.595454545454544,
                "end_time": 48.834090909090904,
                "pitch": 32,
                "velocity": 127,
                "duration": 0.23863636363635976,
                "tempo": 120.0
            },
            {
                "start_time": 48.95454545454545,
                "end_time": 49.195454545454545,
                "pitch": 34,
                "velocity": 127,
                "duration": 0.24090909090909207,
                "tempo": 120.0
            },
            {
                "start_time": 49.554545454545455,
                "end_time": 49.675,
                "pitch": 34,
                "velocity": 127,
                "duration": 0.12045454545454248,
                "tempo": 120.0
            },
            {
                "start_time": 42.49318181818182,
                "end_time": 49.675,
                "pitch": 42,
                "velocity": 127,
                "duration": 7.18181818181818,
                "tempo": 120.0
            },
            {
                "start_time": 49.675,
                "end_time": 50.03636363636363,
                "pitch": 29,
                "velocity": 127,
                "duration": 0.36136363636363455,
                "tempo": 120.0
            },
            {
                "start_time": 50.03636363636363,
                "end_time": 50.275,
                "pitch": 34,
                "velocity": 127,
                "duration": 0.23863636363636687,
                "tempo": 120.0
            },
            {
                "start_time": 50.39545454545454,
                "end_time": 50.63636363636363,
                "pitch": 32,
                "velocity": 127,
                "duration": 0.24090909090909207,
                "tempo": 120.0
            },
            {
                "start_time": 50.99545454545454,
                "end_time": 51.115909090909085,
                "pitch": 32,
                "velocity": 127,
                "duration": 0.12045454545454248,
                "tempo": 120.0
            },
            {
                "start_time": 51.115909090909085,
                "end_time": 51.47727272727273,
                "pitch": 27,
                "velocity": 127,
                "duration": 0.36136363636364166,
                "tempo": 120.0
            },
            {
                "start_time": 51.47727272727273,
                "end_time": 51.709090909090904,
                "pitch": 25,
                "velocity": 127,
                "duration": 0.23181818181817704,
                "tempo": 120.0
            },
            {
                "start_time": 51.47727272727273,
                "end_time": 51.709090909090904,
                "pitch": 25,
                "velocity": 127,
                "duration": 0.23181818181817704,
                "tempo": 120.0
            },
            {
                "start_time": 51.824999999999996,
                "end_time": 52.06590909090909,
                "pitch": 30,
                "velocity": 127,
                "duration": 0.24090909090909207,
                "tempo": 120.0
            },
            {
                "start_time": 52.42727272727272,
                "end_time": 52.54545454545454,
                "pitch": 30,
                "velocity": 127,
                "duration": 0.11818181818181728,
                "tempo": 120.0
            },
            {
                "start_time": 52.54545454545454,
                "end_time": 52.90681818181818,
                "pitch": 25,
                "velocity": 127,
                "duration": 0.36136363636364166,
                "tempo": 120.0
            },
            {
                "start_time": 52.90681818181818,
                "end_time": 53.14772727272727,
                "pitch": 30,
                "velocity": 127,
                "duration": 0.24090909090909207,
                "tempo": 120.0
            },
            {
                "start_time": 52.90681818181818,
                "end_time": 53.14772727272727,
                "pitch": 30,
                "velocity": 127,
                "duration": 0.24090909090909207,
                "tempo": 120.0
            },
            {
                "start_time": 53.26590909090909,
                "end_time": 53.50681818181818,
                "pitch": 32,
                "velocity": 127,
                "duration": 0.24090909090909207,
                "tempo": 120.0
            },
            {
                "start_time": 53.86818181818182,
                "end_time": 53.986363636363635,
                "pitch": 32,
                "velocity": 127,
                "duration": 0.11818181818181728,
                "tempo": 120.0
            },
            {
                "start_time": 48.24545454545454,
                "end_time": 53.986363636363635,
                "pitch": 41,
                "velocity": 127,
                "duration": 5.740909090909092,
                "tempo": 120.0
            },
            {
                "start_time": 53.986363636363635,
                "end_time": 54.34772727272727,
                "pitch": 27,
                "velocity": 127,
                "duration": 0.36136363636363455,
                "tempo": 120.0
            },
            {
                "start_time": 54.34772727272727,
                "end_time": 54.58863636363636,
                "pitch": 32,
                "velocity": 127,
                "duration": 0.24090909090909207,
                "tempo": 120.0
            },
            {
                "start_time": 54.70681818181818,
                "end_time": 54.94090909090909,
                "pitch": 34,
                "velocity": 127,
                "duration": 0.23409090909090935,
                "tempo": 120.0
            },
            {
                "start_time": 55.29772727272727,
                "end_time": 55.418181818181814,
                "pitch": 34,
                "velocity": 127,
                "duration": 0.12045454545454248,
                "tempo": 120.0
            },
            {
                "start_time": 49.675,
                "end_time": 55.418181818181814,
                "pitch": 42,
                "velocity": 127,
                "duration": 5.743181818181817,
                "tempo": 120.0
            },
            {
                "start_time": 55.418181818181814,
                "end_time": 55.777272727272724,
                "pitch": 29,
                "velocity": 127,
                "duration": 0.35909090909090935,
                "tempo": 120.0
            },
            {
                "start_time": 55.777272727272724,
                "end_time": 56.018181818181816,
                "pitch": 34,
                "velocity": 127,
                "duration": 0.24090909090909207,
                "tempo": 120.0
            },
            {
                "start_time": 56.13863636363636,
                "end_time": 56.377272727272725,
                "pitch": 32,
                "velocity": 127,
                "duration": 0.23863636363636687,
                "tempo": 120.0
            },
            {
                "start_time": 56.73863636363636,
                "end_time": 56.85909090909091,
                "pitch": 32,
                "velocity": 127,
                "duration": 0.12045454545454959,
                "tempo": 120.0
            },
            {
                "start_time": 56.85909090909091,
                "end_time": 57.21818181818182,
                "pitch": 27,
                "velocity": 127,
                "duration": 0.35909090909090935,
                "tempo": 120.0
            },
            {
                "start_time": 57.21818181818182,
                "end_time": 57.459090909090904,
                "pitch": 25,
                "velocity": 127,
                "duration": 0.24090909090908497,
                "tempo": 120.0
            },
            {
                "start_time": 57.21818181818182,
                "end_time": 57.459090909090904,
                "pitch": 25,
                "velocity": 127,
                "duration": 0.24090909090908497,
                "tempo": 120.0
            },
            {
                "start_time": 57.57954545454545,
                "end_time": 57.81818181818181,
                "pitch": 34,
                "velocity": 127,
                "duration": 0.23863636363635976,
                "tempo": 120.0
            },
            {
                "start_time": 59.965909090909086,
                "end_time": 60.08863636363636,
                "pitch": 34,
                "velocity": 127,
                "duration": 0.1227272727272748,
                "tempo": 120.0
            },
            {
                "start_time": 60.08863636363636,
                "end_time": 60.32727272727272,
                "pitch": 34,
                "velocity": 127,
                "duration": 0.23863636363635976,
                "tempo": 120.0
            },
            {
                "start_time": 60.32727272727272,
                "end_time": 60.44772727272727,
                "pitch": 34,
                "velocity": 127,
                "duration": 0.12045454545454959,
                "tempo": 120.0
            },
            {
                "start_time": 60.44772727272727,
                "end_time": 60.68863636363636,
                "pitch": 32,
                "velocity": 127,
                "duration": 0.24090909090909207,
                "tempo": 120.0
            },
            {
                "start_time": 61.87954545454545,
                "end_time": 62.11818181818182,
                "pitch": 39,
                "velocity": 127,
                "duration": 0.23863636363636687,
                "tempo": 120.0
            },
            {
                "start_time": 62.59772727272727,
                "end_time": 62.959090909090904,
                "pitch": 30,
                "velocity": 127,
                "duration": 0.36136363636363455,
                "tempo": 120.0
            },
            {
                "start_time": 62.959090909090904,
                "end_time": 63.199999999999996,
                "pitch": 32,
                "velocity": 127,
                "duration": 0.24090909090909207,
                "tempo": 120.0
            },
            {
                "start_time": 63.31818181818181,
                "end_time": 63.559090909090905,
                "pitch": 34,
                "velocity": 127,
                "duration": 0.24090909090909207,
                "tempo": 120.0
            },
            {
                "start_time": 63.91136363636363,
                "end_time": 64.02954545454546,
                "pitch": 34,
                "velocity": 127,
                "duration": 0.11818181818182438,
                "tempo": 120.0
            },
            {
                "start_time": 55.418181818181814,
                "end_time": 64.02954545454546,
                "pitch": 42,
                "velocity": 127,
                "duration": 8.611363636363642,
                "tempo": 120.0
            },
            {
                "start_time": 64.02954545454546,
                "end_time": 64.38863636363637,
                "pitch": 29,
                "velocity": 127,
                "duration": 0.35909090909090935,
                "tempo": 120.0
            },
            {
                "start_time": 64.38863636363637,
                "end_time": 64.62954545454545,
                "pitch": 34,
                "velocity": 127,
                "duration": 0.24090909090908497,
                "tempo": 120.0
            },
            {
                "start_time": 64.75,
                "end_time": 64.99545454545454,
                "pitch": 34,
                "velocity": 127,
                "duration": 0.24545454545453538,
                "tempo": 120.0
            },
            {
                "start_time": 65.35227272727272,
                "end_time": 65.46818181818182,
                "pitch": 34,
                "velocity": 127,
                "duration": 0.11590909090909918,
                "tempo": 120.0
            },
            {
                "start_time": 41.42272727272727,
                "end_time": 65.82727272727273,
                "pitch": 2,
                "velocity": 127,
                "duration": 24.404545454545456,
                "tempo": 120.0
            },
            {
                "start_time": 65.46818181818182,
                "end_time": 65.82727272727273,
                "pitch": 29,
                "velocity": 127,
                "duration": 0.35909090909090935,
                "tempo": 120.0
            },
            {
                "start_time": 65.82727272727273,
                "end_time": 66.06818181818181,
                "pitch": 34,
                "velocity": 127,
                "duration": 0.24090909090908497,
                "tempo": 120.0
            },
            {
                "start_time": 66.18863636363636,
                "end_time": 66.42954545454545,
                "pitch": 32,
                "velocity": 127,
                "duration": 0.24090909090908497,
                "tempo": 120.0
            },
            {
                "start_time": 66.78181818181818,
                "end_time": 66.89772727272727,
                "pitch": 32,
                "velocity": 127,
                "duration": 0.11590909090908497,
                "tempo": 120.0
            },
            {
                "start_time": 53.986363636363635,
                "end_time": 66.89772727272727,
                "pitch": 41,
                "velocity": 127,
                "duration": 12.911363636363632,
                "tempo": 120.0
            },
            {
                "start_time": 66.89772727272727,
                "end_time": 67.26590909090909,
                "pitch": 27,
                "velocity": 127,
                "duration": 0.3681818181818244,
                "tempo": 120.0
            },
            {
                "start_time": 67.26590909090909,
                "end_time": 67.5,
                "pitch": 32,
                "velocity": 127,
                "duration": 0.23409090909090935,
                "tempo": 120.0
            },
            {
                "start_time": 67.61590909090908,
                "end_time": 67.85681818181818,
                "pitch": 39,
                "velocity": 127,
                "duration": 0.24090909090909918,
                "tempo": 120.0
            },
            {
                "start_time": 45.37272727272727,
                "end_time": 68.33636363636363,
                "pitch": 15,
                "velocity": 127,
                "duration": 22.96363636363636,
                "tempo": 120.0
            },
            {
                "start_time": 68.2159090909091,
                "end_time": 68.33636363636363,
                "pitch": 39,
                "velocity": 127,
                "duration": 0.12045454545453538,
                "tempo": 120.0
            },
            {
                "start_time": 68.33636363636363,
                "end_time": 68.69772727272726,
                "pitch": 34,
                "velocity": 127,
                "duration": 0.36136363636363455,
                "tempo": 120.0
            },
            {
                "start_time": 68.69772727272726,
                "end_time": 68.93636363636364,
                "pitch": 32,
                "velocity": 127,
                "duration": 0.23863636363637397,
                "tempo": 120.0
            },
            {
                "start_time": 69.05681818181817,
                "end_time": 69.29772727272727,
                "pitch": 32,
                "velocity": 127,
                "duration": 0.24090909090909918,
                "tempo": 120.0
            },
            {
                "start_time": 69.65681818181818,
                "end_time": 69.77727272727273,
                "pitch": 32,
                "velocity": 127,
                "duration": 0.12045454545454959,
                "tempo": 120.0
            },
            {
                "start_time": 66.89772727272727,
                "end_time": 69.77727272727273,
                "pitch": 41,
                "velocity": 127,
                "duration": 2.8795454545454646,
                "tempo": 120.0
            },
            {
                "start_time": 69.77727272727273,
                "end_time": 70.12727272727273,
                "pitch": 27,
                "velocity": 127,
                "duration": 0.3499999999999943,
                "tempo": 120.0
            },
            {
                "start_time": 70.12727272727273,
                "end_time": 70.36818181818181,
                "pitch": 32,
                "velocity": 127,
                "duration": 0.24090909090908497,
                "tempo": 120.0
            },
            {
                "start_time": 70.48863636363636,
                "end_time": 70.72727272727272,
                "pitch": 32,
                "velocity": 127,
                "duration": 0.23863636363635976,
                "tempo": 120.0
            },
            {
                "start_time": 71.08863636363635,
                "end_time": 71.2090909090909,
                "pitch": 32,
                "velocity": 127,
                "duration": 0.12045454545454959,
                "tempo": 120.0
            },
            {
                "start_time": 71.2090909090909,
                "end_time": 71.56818181818181,
                "pitch": 27,
                "velocity": 127,
                "duration": 0.35909090909090935,
                "tempo": 120.0
            },
            {
                "start_time": 71.56818181818181,
                "end_time": 71.80909090909091,
                "pitch": 32,
                "velocity": 127,
                "duration": 0.24090909090909918,
                "tempo": 120.0
            },
            {
                "start_time": 71.92954545454545,
                "end_time": 72.16818181818182,
                "pitch": 30,
                "velocity": 127,
                "duration": 0.23863636363637397,
                "tempo": 120.0
            },
            {
                "start_time": 72.52954545454546,
                "end_time": 72.64772727272727,
                "pitch": 30,
                "velocity": 127,
                "duration": 0.11818181818181017,
                "tempo": 120.0
            },
            {
                "start_time": 72.64772727272727,
                "end_time": 72.99772727272727,
                "pitch": 25,
                "velocity": 127,
                "duration": 0.3500000000000085,
                "tempo": 120.0
            },
            {
                "start_time": 72.64772727272727,
                "end_time": 72.99772727272727,
                "pitch": 25,
                "velocity": 127,
                "duration": 0.3500000000000085,
                "tempo": 120.0
            },
            {
                "start_time": 72.99772727272727,
                "end_time": 73.23863636363636,
                "pitch": 30,
                "velocity": 127,
                "duration": 0.24090909090908497,
                "tempo": 120.0
            },
            {
                "start_time": 72.99772727272727,
                "end_time": 73.23863636363636,
                "pitch": 30,
                "velocity": 127,
                "duration": 0.24090909090908497,
                "tempo": 120.0
            },
            {
                "start_time": 73.35909090909091,
                "end_time": 73.6,
                "pitch": 37,
                "velocity": 127,
                "duration": 0.24090909090908497,
                "tempo": 120.0
            },
            {
                "start_time": 73.9590909090909,
                "end_time": 74.07954545454545,
                "pitch": 37,
                "velocity": 127,
                "duration": 0.12045454545454959,
                "tempo": 120.0
            },
            {
                "start_time": 74.07954545454545,
                "end_time": 74.43863636363636,
                "pitch": 32,
                "velocity": 127,
                "duration": 0.35909090909090935,
                "tempo": 120.0
            },
            {
                "start_time": 64.02954545454546,
                "end_time": 74.43863636363636,
                "pitch": 42,
                "velocity": 127,
                "duration": 10.409090909090907,
                "tempo": 120.0
            },
            {
                "start_time": 74.43863636363636,
                "end_time": 74.67954545454545,
                "pitch": 30,
                "velocity": 127,
                "duration": 0.24090909090908497,
                "tempo": 120.0
            },
            {
                "start_time": 74.8,
                "end_time": 75.03863636363636,
                "pitch": 32,
                "velocity": 127,
                "duration": 0.23863636363635976,
                "tempo": 120.0
            },
            {
                "start_time": 75.39999999999999,
                "end_time": 75.52045454545454,
                "pitch": 32,
                "velocity": 127,
                "duration": 0.12045454545454959,
                "tempo": 120.0
            },
            {
                "start_time": 69.77727272727273,
                "end_time": 75.52045454545454,
                "pitch": 41,
                "velocity": 127,
                "duration": 5.74318181818181,
                "tempo": 120.0
            },
            {
                "start_time": 75.52045454545454,
                "end_time": 75.87954545454545,
                "pitch": 27,
                "velocity": 127,
                "duration": 0.35909090909090935,
                "tempo": 120.0
            },
            {
                "start_time": 75.87954545454545,
                "end_time": 76.12045454545454,
                "pitch": 32,
                "velocity": 127,
                "duration": 0.24090909090908497,
                "tempo": 120.0
            },
            {
                "start_time": 76.24090909090908,
                "end_time": 76.47954545454544,
                "pitch": 32,
                "velocity": 127,
                "duration": 0.23863636363635976,
                "tempo": 120.0
            },
            {
                "start_time": 76.8409090909091,
                "end_time": 76.96136363636363,
                "pitch": 32,
                "velocity": 127,
                "duration": 0.12045454545453538,
                "tempo": 120.0
            },
            {
                "start_time": 75.52045454545454,
                "end_time": 76.96136363636363,
                "pitch": 41,
                "velocity": 127,
                "duration": 1.4409090909090878,
                "tempo": 120.0
            },
            {
                "start_time": 76.96136363636363,
                "end_time": 77.31136363636364,
                "pitch": 27,
                "velocity": 127,
                "duration": 0.3500000000000085,
                "tempo": 120.0
            },
            {
                "start_time": 77.31136363636364,
                "end_time": 77.55,
                "pitch": 32,
                "velocity": 127,
                "duration": 0.23863636363635976,
                "tempo": 120.0
            },
            {
                "start_time": 77.67045454545455,
                "end_time": 77.91136363636363,
                "pitch": 30,
                "velocity": 127,
                "duration": 0.24090909090908497,
                "tempo": 120.0
            },
            {
                "start_time": 78.27045454545454,
                "end_time": 78.39090909090909,
                "pitch": 30,
                "velocity": 127,
                "duration": 0.12045454545454959,
                "tempo": 120.0
            },
            {
                "start_time": 78.39090909090909,
                "end_time": 78.75227272727273,
                "pitch": 25,
                "velocity": 127,
                "duration": 0.36136363636363455,
                "tempo": 120.0
            },
            {
                "start_time": 78.75227272727273,
                "end_time": 78.99090909090908,
                "pitch": 30,
                "velocity": 127,
                "duration": 0.23863636363635976,
                "tempo": 120.0
            },
            {
                "start_time": 78.75227272727273,
                "end_time": 78.99090909090908,
                "pitch": 30,
                "velocity": 127,
                "duration": 0.23863636363635976,
                "tempo": 120.0
            },
            {
                "start_time": 79.11136363636363,
                "end_time": 79.35227272727272,
                "pitch": 37,
                "velocity": 127,
                "duration": 0.24090909090908497,
                "tempo": 120.0
            },
            {
                "start_time": 79.71136363636363,
                "end_time": 79.83181818181818,
                "pitch": 37,
                "velocity": 127,
                "duration": 0.12045454545454959,
                "tempo": 120.0
            },
            {
                "start_time": 79.83181818181818,
                "end_time": 80.18181818181817,
                "pitch": 32,
                "velocity": 127,
                "duration": 0.3499999999999943,
                "tempo": 120.0
            },
            {
                "start_time": 74.43863636363636,
                "end_time": 80.18181818181817,
                "pitch": 42,
                "velocity": 127,
                "duration": 5.74318181818181,
                "tempo": 120.0
            },
            {
                "start_time": 80.18181818181817,
                "end_time": 80.42272727272727,
                "pitch": 30,
                "velocity": 127,
                "duration": 0.24090909090909918,
                "tempo": 120.0
            },
            {
                "start_time": 80.54090909090908,
                "end_time": 80.78181818181818,
                "pitch": 32,
                "velocity": 127,
                "duration": 0.24090909090909918,
                "tempo": 120.0
            },
            {
                "start_time": 81.14318181818182,
                "end_time": 81.26136363636363,
                "pitch": 32,
                "velocity": 127,
                "duration": 0.11818181818181017,
                "tempo": 120.0
            },
            {
                "start_time": 81.26136363636363,
                "end_time": 81.62272727272727,
                "pitch": 27,
                "velocity": 127,
                "duration": 0.36136363636364877,
                "tempo": 120.0
            },
            {
                "start_time": 81.62272727272727,
                "end_time": 81.86363636363636,
                "pitch": 32,
                "velocity": 127,
                "duration": 0.24090909090908497,
                "tempo": 120.0
            },
            {
                "start_time": 81.98181818181818,
                "end_time": 82.22272727272727,
                "pitch": 32,
                "velocity": 127,
                "duration": 0.24090909090908497,
                "tempo": 120.0
            },
            {
                "start_time": 82.5840909090909,
                "end_time": 82.70227272727273,
                "pitch": 32,
                "velocity": 127,
                "duration": 0.11818181818182438,
                "tempo": 120.0
            },
            {
                "start_time": 76.96136363636363,
                "end_time": 82.70227272727273,
                "pitch": 41,
                "velocity": 127,
                "duration": 5.740909090909099,
                "tempo": 120.0
            },
            {
                "start_time": 82.70227272727273,
                "end_time": 83.05227272727272,
                "pitch": 27,
                "velocity": 127,
                "duration": 0.3499999999999943,
                "tempo": 120.0
            },
            {
                "start_time": 83.05227272727272,
                "end_time": 83.29318181818181,
                "pitch": 32,
                "velocity": 127,
                "duration": 0.24090909090908497,
                "tempo": 120.0
            },
            {
                "start_time": 83.41363636363636,
                "end_time": 83.65227272727272,
                "pitch": 30,
                "velocity": 127,
                "duration": 0.23863636363635976,
                "tempo": 120.0
            },
            {
                "start_time": 84.01363636363637,
                "end_time": 84.1340909090909,
                "pitch": 30,
                "velocity": 127,
                "duration": 0.12045454545453538,
                "tempo": 120.0
            },
            {
                "start_time": 84.1340909090909,
                "end_time": 84.49318181818181,
                "pitch": 25,
                "velocity": 127,
                "duration": 0.35909090909090935,
                "tempo": 120.0
            },
            {
                "start_time": 84.49318181818181,
                "end_time": 84.73409090909091,
                "pitch": 30,
                "velocity": 127,
                "duration": 0.24090909090909918,
                "tempo": 120.0
            },
            {
                "start_time": 84.49318181818181,
                "end_time": 84.73409090909091,
                "pitch": 30,
                "velocity": 127,
                "duration": 0.24090909090909918,
                "tempo": 120.0
            },
            {
                "start_time": 84.85454545454544,
                "end_time": 85.09318181818182,
                "pitch": 37,
                "velocity": 127,
                "duration": 0.23863636363637397,
                "tempo": 120.0
            },
            {
                "start_time": 85.45454545454545,
                "end_time": 85.575,
                "pitch": 37,
                "velocity": 127,
                "duration": 0.12045454545454959,
                "tempo": 120.0
            },
            {
                "start_time": 85.575,
                "end_time": 85.9340909090909,
                "pitch": 32,
                "velocity": 127,
                "duration": 0.35909090909089514,
                "tempo": 120.0
            },
            {
                "start_time": 85.9340909090909,
                "end_time": 86.16818181818181,
                "pitch": 30,
                "velocity": 127,
                "duration": 0.23409090909090935,
                "tempo": 120.0
            },
            {
                "start_time": 86.2840909090909,
                "end_time": 86.52499999999999,
                "pitch": 28,
                "velocity": 127,
                "duration": 0.24090909090908497,
                "tempo": 120.0
            },
            {
                "start_time": 86.8840909090909,
                "end_time": 87.00454545454545,
                "pitch": 28,
                "velocity": 127,
                "duration": 0.12045454545454959,
                "tempo": 120.0
            },
            {
                "start_time": 87.00454545454545,
                "end_time": 87.36363636363636,
                "pitch": 23,
                "velocity": 127,
                "duration": 0.35909090909090935,
                "tempo": 120.0
            },
            {
                "start_time": 87.36363636363636,
                "end_time": 87.60454545454544,
                "pitch": 28,
                "velocity": 127,
                "duration": 0.24090909090908497,
                "tempo": 120.0
            },
            {
                "start_time": 87.36363636363636,
                "end_time": 87.9659090909091,
                "pitch": 30,
                "velocity": 127,
                "duration": 0.6022727272727337,
                "tempo": 120.0
            },
            {
                "start_time": 87.725,
                "end_time": 87.9659090909091,
                "pitch": 30,
                "velocity": 127,
                "duration": 0.24090909090909918,
                "tempo": 120.0
            },
            {
                "start_time": 88.32499999999999,
                "end_time": 88.44545454545454,
                "pitch": 30,
                "velocity": 127,
                "duration": 0.12045454545454959,
                "tempo": 120.0
            },
            {
                "start_time": 88.44545454545454,
                "end_time": 88.80454545454545,
                "pitch": 25,
                "velocity": 127,
                "duration": 0.35909090909090935,
                "tempo": 120.0
            },
            {
                "start_time": 88.44545454545454,
                "end_time": 88.80454545454545,
                "pitch": 25,
                "velocity": 127,
                "duration": 0.35909090909090935,
                "tempo": 120.0
            },
            {
                "start_time": 88.80454545454545,
                "end_time": 89.04545454545455,
                "pitch": 30,
                "velocity": 127,
                "duration": 0.24090909090909918,
                "tempo": 120.0
            },
            {
                "start_time": 88.80454545454545,
                "end_time": 89.04545454545455,
                "pitch": 30,
                "velocity": 127,
                "duration": 0.24090909090909918,
                "tempo": 120.0
            },
            {
                "start_time": 89.16590909090908,
                "end_time": 89.39772727272727,
                "pitch": 32,
                "velocity": 127,
                "duration": 0.23181818181818414,
                "tempo": 120.0
            },
            {
                "start_time": 89.75681818181818,
                "end_time": 89.875,
                "pitch": 32,
                "velocity": 127,
                "duration": 0.11818181818182438,
                "tempo": 120.0
            },
            {
                "start_time": 82.70227272727273,
                "end_time": 89.875,
                "pitch": 41,
                "velocity": 127,
                "duration": 7.172727272727272,
                "tempo": 120.0
            },
            {
                "start_time": 89.875,
                "end_time": 90.23636363636363,
                "pitch": 27,
                "velocity": 127,
                "duration": 0.36136363636363455,
                "tempo": 120.0
            },
            {
                "start_time": 90.23636363636363,
                "end_time": 90.475,
                "pitch": 32,
                "velocity": 127,
                "duration": 0.23863636363635976,
                "tempo": 120.0
            },
            {
                "start_time": 90.59545454545454,
                "end_time": 90.83636363636363,
                "pitch": 30,
                "velocity": 127,
                "duration": 0.24090909090908497,
                "tempo": 120.0
            },
            {
                "start_time": 91.19772727272726,
                "end_time": 91.31590909090909,
                "pitch": 30,
                "velocity": 127,
                "duration": 0.11818181818182438,
                "tempo": 120.0
            },
            {
                "start_time": 87.00454545454545,
                "end_time": 91.67727272727272,
                "pitch": 8,
                "velocity": 127,
                "duration": 4.672727272727272,
                "tempo": 120.0
            },
            {
                "start_time": 91.31590909090909,
                "end_time": 91.67727272727272,
                "pitch": 25,
                "velocity": 127,
                "duration": 0.36136363636363455,
                "tempo": 120.0
            },
            {
                "start_time": 91.67727272727272,
                "end_time": 91.91818181818181,
                "pitch": 23,
                "velocity": 127,
                "duration": 0.24090909090908497,
                "tempo": 120.0
            },
            {
                "start_time": 92.03636363636363,
                "end_time": 92.27045454545454,
                "pitch": 28,
                "velocity": 127,
                "duration": 0.23409090909090935,
                "tempo": 120.0
            },
            {
                "start_time": 91.67727272727272,
                "end_time": 92.75454545454545,
                "pitch": 8,
                "velocity": 127,
                "duration": 1.077272727272728,
                "tempo": 120.0
            },
            {
                "start_time": 92.63181818181818,
                "end_time": 92.75454545454545,
                "pitch": 28,
                "velocity": 127,
                "duration": 0.1227272727272748,
                "tempo": 120.0
            },
            {
                "start_time": 92.75454545454545,
                "end_time": 93.10454545454544,
                "pitch": 23,
                "velocity": 127,
                "duration": 0.3499999999999943,
                "tempo": 120.0
            },
            {
                "start_time": 93.10454545454544,
                "end_time": 93.34545454545454,
                "pitch": 28,
                "velocity": 127,
                "duration": 0.24090909090909918,
                "tempo": 120.0
            },
            {
                "start_time": 93.10454545454544,
                "end_time": 93.70454545454545,
                "pitch": 30,
                "velocity": 127,
                "duration": 0.6000000000000085,
                "tempo": 120.0
            },
            {
                "start_time": 93.46590909090908,
                "end_time": 93.70454545454545,
                "pitch": 30,
                "velocity": 127,
                "duration": 0.23863636363637397,
                "tempo": 120.0
            },
            {
                "start_time": 94.06590909090909,
                "end_time": 94.18636363636364,
                "pitch": 30,
                "velocity": 127,
                "duration": 0.12045454545454959,
                "tempo": 120.0
            },
            {
                "start_time": 94.18636363636364,
                "end_time": 94.54545454545455,
                "pitch": 25,
                "velocity": 127,
                "duration": 0.35909090909090935,
                "tempo": 120.0
            },
            {
                "start_time": 94.18636363636364,
                "end_time": 94.54545454545455,
                "pitch": 25,
                "velocity": 127,
                "duration": 0.35909090909090935,
                "tempo": 120.0
            },
            {
                "start_time": 94.54545454545455,
                "end_time": 94.78636363636363,
                "pitch": 30,
                "velocity": 127,
                "duration": 0.24090909090908497,
                "tempo": 120.0
            },
            {
                "start_time": 94.54545454545455,
                "end_time": 94.78636363636363,
                "pitch": 30,
                "velocity": 127,
                "duration": 0.24090909090908497,
                "tempo": 120.0
            },
            {
                "start_time": 94.90681818181818,
                "end_time": 95.14545454545454,
                "pitch": 32,
                "velocity": 127,
                "duration": 0.23863636363635976,
                "tempo": 120.0
            },
            {
                "start_time": 95.50681818181818,
                "end_time": 95.62727272727273,
                "pitch": 32,
                "velocity": 127,
                "duration": 0.12045454545454959,
                "tempo": 120.0
            },
            {
                "start_time": 89.875,
                "end_time": 95.62727272727273,
                "pitch": 41,
                "velocity": 127,
                "duration": 5.752272727272725,
                "tempo": 120.0
            },
            {
                "start_time": 95.62727272727273,
                "end_time": 95.97727272727272,
                "pitch": 27,
                "velocity": 127,
                "duration": 0.3499999999999943,
                "tempo": 120.0
            },
            {
                "start_time": 95.97727272727272,
                "end_time": 96.21590909090908,
                "pitch": 32,
                "velocity": 127,
                "duration": 0.23863636363635976,
                "tempo": 120.0
            },
            {
                "start_time": 96.33636363636363,
                "end_time": 96.57727272727273,
                "pitch": 30,
                "velocity": 127,
                "duration": 0.24090909090909918,
                "tempo": 120.0
            },
            {
                "start_time": 96.93636363636364,
                "end_time": 97.05681818181817,
                "pitch": 30,
                "velocity": 127,
                "duration": 0.12045454545453538,
                "tempo": 120.0
            },
            {
                "start_time": 92.75454545454545,
                "end_time": 97.41590909090908,
                "pitch": 8,
                "velocity": 127,
                "duration": 4.661363636363632,
                "tempo": 120.0
            },
            {
                "start_time": 97.05681818181817,
                "end_time": 97.41590909090908,
                "pitch": 25,
                "velocity": 127,
                "duration": 0.35909090909090935,
                "tempo": 120.0
            },
            {
                "start_time": 97.41590909090908,
                "end_time": 97.65681818181818,
                "pitch": 23,
                "velocity": 127,
                "duration": 0.24090909090909918,
                "tempo": 120.0
            },
            {
                "start_time": 97.77727272727272,
                "end_time": 98.01818181818182,
                "pitch": 34,
                "velocity": 127,
                "duration": 0.24090909090909918,
                "tempo": 120.0
            }
        ],
        "Electric Piano 1": [
            {
                "start_time": 0.4886363636363636,
                "end_time": 0.609090909090909,
                "pitch": 60,
                "velocity": 101,
                "duration": 0.12045454545454543,
                "tempo": 120.0
            },
            {
                "start_time": 1.209090909090909,
                "end_time": 1.3295454545454546,
                "pitch": 60,
                "velocity": 101,
                "duration": 0.12045454545454559,
                "tempo": 120.0
            },
            {
                "start_time": 1.9295454545454545,
                "end_time": 2.05,
                "pitch": 60,
                "velocity": 101,
                "duration": 0.12045454545454537,
                "tempo": 120.0
            },
            {
                "start_time": 2.65,
                "end_time": 2.7704545454545455,
                "pitch": 60,
                "velocity": 101,
                "duration": 0.12045454545454559,
                "tempo": 120.0
            },
            {
                "start_time": 3.370454545454545,
                "end_time": 3.4909090909090907,
                "pitch": 59,
                "velocity": 101,
                "duration": 0.12045454545454559,
                "tempo": 120.0
            },
            {
                "start_time": 4.081818181818182,
                "end_time": 4.202272727272727,
                "pitch": 59,
                "velocity": 101,
                "duration": 0.12045454545454515,
                "tempo": 120.0
            },
            {
                "start_time": 4.802272727272727,
                "end_time": 4.922727272727273,
                "pitch": 62,
                "velocity": 101,
                "duration": 0.12045454545454604,
                "tempo": 120.0
            },
            {
                "start_time": 5.5227272727272725,
                "end_time": 5.643181818181818,
                "pitch": 62,
                "velocity": 101,
                "duration": 0.12045454545454515,
                "tempo": 120.0
            },
            {
                "start_time": 6.243181818181818,
                "end_time": 6.363636363636363,
                "pitch": 60,
                "velocity": 101,
                "duration": 0.12045454545454515,
                "tempo": 120.0
            },
            {
                "start_time": 6.963636363636363,
                "end_time": 7.081818181818181,
                "pitch": 60,
                "velocity": 101,
                "duration": 0.11818181818181817,
                "tempo": 120.0
            },
            {
                "start_time": 7.672727272727272,
                "end_time": 7.793181818181818,
                "pitch": 60,
                "velocity": 101,
                "duration": 0.12045454545454604,
                "tempo": 120.0
            },
            {
                "start_time": 8.393181818181818,
                "end_time": 8.513636363636364,
                "pitch": 60,
                "velocity": 101,
                "duration": 0.12045454545454604,
                "tempo": 120.0
            },
            {
                "start_time": 9.113636363636363,
                "end_time": 9.23409090909091,
                "pitch": 59,
                "velocity": 101,
                "duration": 0.12045454545454604,
                "tempo": 120.0
            },
            {
                "start_time": 9.834090909090909,
                "end_time": 9.954545454545453,
                "pitch": 59,
                "velocity": 101,
                "duration": 0.12045454545454426,
                "tempo": 120.0
            },
            {
                "start_time": 10.554545454545455,
                "end_time": 10.670454545454545,
                "pitch": 62,
                "velocity": 101,
                "duration": 0.1159090909090903,
                "tempo": 120.0
            },
            {
                "start_time": 11.263636363636364,
                "end_time": 11.384090909090908,
                "pitch": 62,
                "velocity": 101,
                "duration": 0.12045454545454426,
                "tempo": 120.0
            },
            {
                "start_time": 11.98409090909091,
                "end_time": 12.104545454545454,
                "pitch": 60,
                "velocity": 101,
                "duration": 0.12045454545454426,
                "tempo": 120.0
            },
            {
                "start_time": 12.704545454545453,
                "end_time": 12.825,
                "pitch": 60,
                "velocity": 101,
                "duration": 0.12045454545454604,
                "tempo": 120.0
            },
            {
                "start_time": 13.424999999999999,
                "end_time": 13.545454545454545,
                "pitch": 60,
                "velocity": 101,
                "duration": 0.12045454545454604,
                "tempo": 120.0
            },
            {
                "start_time": 14.136363636363635,
                "end_time": 14.254545454545454,
                "pitch": 60,
                "velocity": 101,
                "duration": 0.11818181818181905,
                "tempo": 120.0
            },
            {
                "start_time": 14.85681818181818,
                "end_time": 14.975,
                "pitch": 59,
                "velocity": 101,
                "duration": 0.11818181818181905,
                "tempo": 120.0
            },
            {
                "start_time": 15.577272727272726,
                "end_time": 15.695454545454545,
                "pitch": 59,
                "velocity": 101,
                "duration": 0.11818181818181905,
                "tempo": 120.0
            },
            {
                "start_time": 16.297727272727272,
                "end_time": 16.41590909090909,
                "pitch": 62,
                "velocity": 101,
                "duration": 0.11818181818181728,
                "tempo": 120.0
            },
            {
                "start_time": 17.018181818181816,
                "end_time": 17.134090909090908,
                "pitch": 62,
                "velocity": 101,
                "duration": 0.11590909090909207,
                "tempo": 120.0
            },
            {
                "start_time": 17.727272727272727,
                "end_time": 17.847727272727273,
                "pitch": 60,
                "velocity": 101,
                "duration": 0.12045454545454604,
                "tempo": 120.0
            },
            {
                "start_time": 18.44772727272727,
                "end_time": 18.568181818181817,
                "pitch": 60,
                "velocity": 101,
                "duration": 0.12045454545454604,
                "tempo": 120.0
            },
            {
                "start_time": 19.168181818181818,
                "end_time": 19.288636363636364,
                "pitch": 59,
                "velocity": 101,
                "duration": 0.12045454545454604,
                "tempo": 120.0
            },
            {
                "start_time": 19.877272727272725,
                "end_time": 20.0,
                "pitch": 59,
                "velocity": 101,
                "duration": 0.1227272727272748,
                "tempo": 120.0
            },
            {
                "start_time": 20.595454545454544,
                "end_time": 20.71590909090909,
                "pitch": 60,
                "velocity": 101,
                "duration": 0.12045454545454604,
                "tempo": 120.0
            },
            {
                "start_time": 21.31590909090909,
                "end_time": 21.436363636363634,
                "pitch": 60,
                "velocity": 101,
                "duration": 0.12045454545454248,
                "tempo": 120.0
            },
            {
                "start_time": 22.036363636363635,
                "end_time": 22.15681818181818,
                "pitch": 59,
                "velocity": 101,
                "duration": 0.12045454545454604,
                "tempo": 120.0
            },
            {
                "start_time": 22.75681818181818,
                "end_time": 22.877272727272725,
                "pitch": 59,
                "velocity": 101,
                "duration": 0.12045454545454604,
                "tempo": 120.0
            },
            {
                "start_time": 23.46590909090909,
                "end_time": 23.586363636363636,
                "pitch": 60,
                "velocity": 101,
                "duration": 0.12045454545454604,
                "tempo": 120.0
            },
            {
                "start_time": 24.188636363636363,
                "end_time": 24.30681818181818,
                "pitch": 60,
                "velocity": 101,
                "duration": 0.11818181818181728,
                "tempo": 120.0
            },
            {
                "start_time": 24.90681818181818,
                "end_time": 25.027272727272727,
                "pitch": 59,
                "velocity": 101,
                "duration": 0.12045454545454604,
                "tempo": 120.0
            },
            {
                "start_time": 25.627272727272725,
                "end_time": 25.74772727272727,
                "pitch": 59,
                "velocity": 101,
                "duration": 0.12045454545454604,
                "tempo": 120.0
            },
            {
                "start_time": 26.347727272727273,
                "end_time": 26.46590909090909,
                "pitch": 60,
                "velocity": 101,
                "duration": 0.11818181818181728,
                "tempo": 120.0
            },
            {
                "start_time": 27.05909090909091,
                "end_time": 27.179545454545455,
                "pitch": 60,
                "velocity": 101,
                "duration": 0.12045454545454604,
                "tempo": 120.0
            },
            {
                "start_time": 27.779545454545453,
                "end_time": 27.9,
                "pitch": 59,
                "velocity": 101,
                "duration": 0.12045454545454604,
                "tempo": 120.0
            },
            {
                "start_time": 28.5,
                "end_time": 28.620454545454542,
                "pitch": 59,
                "velocity": 101,
                "duration": 0.12045454545454248,
                "tempo": 120.0
            },
            {
                "start_time": 29.220454545454544,
                "end_time": 29.336363636363636,
                "pitch": 61,
                "velocity": 101,
                "duration": 0.11590909090909207,
                "tempo": 120.0
            },
            {
                "start_time": 29.929545454545455,
                "end_time": 30.049999999999997,
                "pitch": 61,
                "velocity": 101,
                "duration": 0.12045454545454248,
                "tempo": 120.0
            },
            {
                "start_time": 30.65,
                "end_time": 30.770454545454545,
                "pitch": 61,
                "velocity": 101,
                "duration": 0.12045454545454604,
                "tempo": 120.0
            },
            {
                "start_time": 31.370454545454542,
                "end_time": 31.49090909090909,
                "pitch": 61,
                "velocity": 101,
                "duration": 0.12045454545454604,
                "tempo": 120.0
            },
            {
                "start_time": 32.07954545454545,
                "end_time": 32.199999999999996,
                "pitch": 60,
                "velocity": 101,
                "duration": 0.12045454545454248,
                "tempo": 120.0
            },
            {
                "start_time": 32.8,
                "end_time": 32.92045454545455,
                "pitch": 60,
                "velocity": 101,
                "duration": 0.12045454545454959,
                "tempo": 120.0
            },
            {
                "start_time": 33.52045454545454,
                "end_time": 33.64090909090909,
                "pitch": 63,
                "velocity": 101,
                "duration": 0.12045454545454959,
                "tempo": 120.0
            },
            {
                "start_time": 34.24090909090909,
                "end_time": 34.361363636363635,
                "pitch": 63,
                "velocity": 101,
                "duration": 0.12045454545454248,
                "tempo": 120.0
            },
            {
                "start_time": 34.961363636363636,
                "end_time": 35.08181818181818,
                "pitch": 61,
                "velocity": 101,
                "duration": 0.12045454545454248,
                "tempo": 120.0
            },
            {
                "start_time": 35.67272727272727,
                "end_time": 35.79545454545455,
                "pitch": 61,
                "velocity": 101,
                "duration": 0.1227272727272748,
                "tempo": 120.0
            },
            {
                "start_time": 36.39090909090909,
                "end_time": 36.50909090909091,
                "pitch": 61,
                "velocity": 101,
                "duration": 0.11818181818181728,
                "tempo": 120.0
            },
            {
                "start_time": 37.111363636363635,
                "end_time": 37.22954545454545,
                "pitch": 61,
                "velocity": 101,
                "duration": 0.11818181818181728,
                "tempo": 120.0
            },
            {
                "start_time": 37.83181818181818,
                "end_time": 37.949999999999996,
                "pitch": 60,
                "velocity": 101,
                "duration": 0.11818181818181728,
                "tempo": 120.0
            },
            {
                "start_time": 38.55227272727272,
                "end_time": 38.67045454545455,
                "pitch": 60,
                "velocity": 101,
                "duration": 0.11818181818182438,
                "tempo": 120.0
            },
            {
                "start_time": 39.26136363636363,
                "end_time": 39.38181818181818,
                "pitch": 63,
                "velocity": 101,
                "duration": 0.12045454545454959,
                "tempo": 120.0
            },
            {
                "start_time": 39.98181818181818,
                "end_time": 40.10227272727273,
                "pitch": 63,
                "velocity": 101,
                "duration": 0.12045454545454959,
                "tempo": 120.0
            },
            {
                "start_time": 40.70227272727273,
                "end_time": 40.82272727272727,
                "pitch": 61,
                "velocity": 101,
                "duration": 0.12045454545454248,
                "tempo": 120.0
            },
            {
                "start_time": 41.42272727272727,
                "end_time": 41.543181818181814,
                "pitch": 61,
                "velocity": 101,
                "duration": 0.12045454545454248,
                "tempo": 120.0
            },
            {
                "start_time": 42.143181818181816,
                "end_time": 42.25909090909091,
                "pitch": 61,
                "velocity": 101,
                "duration": 0.11590909090909207,
                "tempo": 120.0
            },
            {
                "start_time": 42.85227272727273,
                "end_time": 42.97272727272727,
                "pitch": 61,
                "velocity": 101,
                "duration": 0.12045454545454248,
                "tempo": 120.0
            },
            {
                "start_time": 43.57272727272727,
                "end_time": 43.69318181818181,
                "pitch": 60,
                "velocity": 101,
                "duration": 0.12045454545454248,
                "tempo": 120.0
            },
            {
                "start_time": 44.293181818181814,
                "end_time": 44.413636363636364,
                "pitch": 60,
                "velocity": 101,
                "duration": 0.12045454545454959,
                "tempo": 120.0
            },
            {
                "start_time": 45.01363636363636,
                "end_time": 45.13409090909091,
                "pitch": 63,
                "velocity": 101,
                "duration": 0.12045454545454959,
                "tempo": 120.0
            },
            {
                "start_time": 45.724999999999994,
                "end_time": 45.84318181818182,
                "pitch": 63,
                "velocity": 101,
                "duration": 0.11818181818182438,
                "tempo": 120.0
            },
            {
                "start_time": 46.44318181818181,
                "end_time": 46.56363636363636,
                "pitch": 61,
                "velocity": 101,
                "duration": 0.12045454545454959,
                "tempo": 120.0
            },
            {
                "start_time": 47.16590909090909,
                "end_time": 47.28409090909091,
                "pitch": 61,
                "velocity": 101,
                "duration": 0.11818181818181728,
                "tempo": 120.0
            },
            {
                "start_time": 47.88409090909091,
                "end_time": 48.00454545454545,
                "pitch": 60,
                "velocity": 101,
                "duration": 0.12045454545454248,
                "tempo": 120.0
            },
            {
                "start_time": 48.595454545454544,
                "end_time": 48.715909090909086,
                "pitch": 60,
                "velocity": 101,
                "duration": 0.12045454545454248,
                "tempo": 120.0
            },
            {
                "start_time": 49.31590909090909,
                "end_time": 49.43636363636364,
                "pitch": 61,
                "velocity": 101,
                "duration": 0.12045454545454959,
                "tempo": 120.0
            },
            {
                "start_time": 50.03636363636363,
                "end_time": 50.15681818181818,
                "pitch": 61,
                "velocity": 101,
                "duration": 0.12045454545454959,
                "tempo": 120.0
            },
            {
                "start_time": 50.75681818181818,
                "end_time": 50.877272727272725,
                "pitch": 60,
                "velocity": 101,
                "duration": 0.12045454545454248,
                "tempo": 120.0
            },
            {
                "start_time": 51.47727272727273,
                "end_time": 51.59318181818182,
                "pitch": 60,
                "velocity": 101,
                "duration": 0.11590909090909207,
                "tempo": 120.0
            },
            {
                "start_time": 52.18636363636363,
                "end_time": 52.30681818181818,
                "pitch": 61,
                "velocity": 101,
                "duration": 0.12045454545454959,
                "tempo": 120.0
            },
            {
                "start_time": 52.90681818181818,
                "end_time": 53.027272727272724,
                "pitch": 61,
                "velocity": 101,
                "duration": 0.12045454545454248,
                "tempo": 120.0
            },
            {
                "start_time": 53.627272727272725,
                "end_time": 53.74772727272727,
                "pitch": 60,
                "velocity": 101,
                "duration": 0.12045454545454248,
                "tempo": 120.0
            },
            {
                "start_time": 54.34772727272727,
                "end_time": 54.46818181818182,
                "pitch": 60,
                "velocity": 101,
                "duration": 0.12045454545454959,
                "tempo": 120.0
            },
            {
                "start_time": 55.05681818181818,
                "end_time": 55.17727272727272,
                "pitch": 61,
                "velocity": 101,
                "duration": 0.12045454545454248,
                "tempo": 120.0
            },
            {
                "start_time": 55.77954545454545,
                "end_time": 55.89772727272727,
                "pitch": 61,
                "velocity": 101,
                "duration": 0.11818181818182438,
                "tempo": 120.0
            },
            {
                "start_time": 56.49772727272727,
                "end_time": 56.61818181818182,
                "pitch": 60,
                "velocity": 101,
                "duration": 0.12045454545454959,
                "tempo": 120.0
            },
            {
                "start_time": 57.21818181818182,
                "end_time": 57.33863636363636,
                "pitch": 60,
                "velocity": 101,
                "duration": 0.12045454545454248,
                "tempo": 120.0
            },
            {
                "start_time": 57.93863636363636,
                "end_time": 58.05681818181818,
                "pitch": 61,
                "velocity": 101,
                "duration": 0.11818181818181728,
                "tempo": 120.0
            },
            {
                "start_time": 58.64772727272727,
                "end_time": 58.76590909090909,
                "pitch": 61,
                "velocity": 101,
                "duration": 0.11818181818181728,
                "tempo": 120.0
            },
            {
                "start_time": 59.35909090909091,
                "end_time": 59.47954545454545,
                "pitch": 61,
                "velocity": 101,
                "duration": 0.12045454545454248,
                "tempo": 120.0
            },
            {
                "start_time": 60.08863636363636,
                "end_time": 60.209090909090904,
                "pitch": 61,
                "velocity": 101,
                "duration": 0.12045454545454248,
                "tempo": 120.0
            },
            {
                "start_time": 60.809090909090905,
                "end_time": 60.925,
                "pitch": 60,
                "velocity": 101,
                "duration": 0.11590909090909207,
                "tempo": 120.0
            },
            {
                "start_time": 61.518181818181816,
                "end_time": 61.63863636363636,
                "pitch": 60,
                "velocity": 101,
                "duration": 0.12045454545454248,
                "tempo": 120.0
            },
            {
                "start_time": 62.23863636363636,
                "end_time": 62.35909090909091,
                "pitch": 63,
                "velocity": 101,
                "duration": 0.12045454545454959,
                "tempo": 120.0
            },
            {
                "start_time": 62.959090909090904,
                "end_time": 63.07954545454545,
                "pitch": 63,
                "velocity": 101,
                "duration": 0.12045454545454959,
                "tempo": 120.0
            },
            {
                "start_time": 63.679545454545455,
                "end_time": 63.79545454545454,
                "pitch": 61,
                "velocity": 101,
                "duration": 0.11590909090908497,
                "tempo": 120.0
            },
            {
                "start_time": 64.39090909090909,
                "end_time": 64.5090909090909,
                "pitch": 61,
                "velocity": 101,
                "duration": 0.11818181818181017,
                "tempo": 120.0
            },
            {
                "start_time": 65.11818181818181,
                "end_time": 65.23636363636363,
                "pitch": 61,
                "velocity": 101,
                "duration": 0.11818181818182438,
                "tempo": 120.0
            },
            {
                "start_time": 65.82954545454545,
                "end_time": 65.94772727272726,
                "pitch": 61,
                "velocity": 101,
                "duration": 0.11818181818181017,
                "tempo": 120.0
            },
            {
                "start_time": 66.55,
                "end_time": 66.66590909090908,
                "pitch": 60,
                "velocity": 101,
                "duration": 0.11590909090908497,
                "tempo": 120.0
            },
            {
                "start_time": 67.26818181818182,
                "end_time": 67.3840909090909,
                "pitch": 60,
                "velocity": 101,
                "duration": 0.11590909090908497,
                "tempo": 120.0
            },
            {
                "start_time": 67.97727272727272,
                "end_time": 68.09772727272727,
                "pitch": 63,
                "velocity": 101,
                "duration": 0.12045454545454959,
                "tempo": 120.0
            },
            {
                "start_time": 68.69772727272726,
                "end_time": 68.81818181818181,
                "pitch": 63,
                "velocity": 101,
                "duration": 0.12045454545454959,
                "tempo": 120.0
            },
            {
                "start_time": 69.41818181818182,
                "end_time": 69.53863636363636,
                "pitch": 59,
                "velocity": 101,
                "duration": 0.12045454545453538,
                "tempo": 120.0
            },
            {
                "start_time": 70.12727272727273,
                "end_time": 70.24772727272727,
                "pitch": 59,
                "velocity": 101,
                "duration": 0.12045454545454959,
                "tempo": 120.0
            },
            {
                "start_time": 70.84772727272727,
                "end_time": 70.96818181818182,
                "pitch": 59,
                "velocity": 101,
                "duration": 0.12045454545454959,
                "tempo": 120.0
            },
            {
                "start_time": 71.56818181818181,
                "end_time": 71.68863636363636,
                "pitch": 59,
                "velocity": 101,
                "duration": 0.12045454545454959,
                "tempo": 120.0
            },
            {
                "start_time": 72.28863636363636,
                "end_time": 72.4090909090909,
                "pitch": 58,
                "velocity": 101,
                "duration": 0.12045454545454959,
                "tempo": 120.0
            },
            {
                "start_time": 73.0,
                "end_time": 73.11818181818181,
                "pitch": 58,
                "velocity": 101,
                "duration": 0.11818181818181017,
                "tempo": 120.0
            },
            {
                "start_time": 73.72045454545454,
                "end_time": 73.83863636363635,
                "pitch": 61,
                "velocity": 101,
                "duration": 0.11818181818181017,
                "tempo": 120.0
            },
            {
                "start_time": 74.44090909090909,
                "end_time": 74.55909090909091,
                "pitch": 61,
                "velocity": 101,
                "duration": 0.11818181818182438,
                "tempo": 120.0
            },
            {
                "start_time": 75.16136363636363,
                "end_time": 75.27954545454546,
                "pitch": 59,
                "velocity": 101,
                "duration": 0.11818181818182438,
                "tempo": 120.0
            },
            {
                "start_time": 75.88181818181818,
                "end_time": 76.0,
                "pitch": 59,
                "velocity": 101,
                "duration": 0.11818181818182438,
                "tempo": 120.0
            },
            {
                "start_time": 76.6,
                "end_time": 76.72045454545454,
                "pitch": 59,
                "velocity": 101,
                "duration": 0.12045454545454959,
                "tempo": 120.0
            },
            {
                "start_time": 77.31136363636364,
                "end_time": 77.43181818181817,
                "pitch": 59,
                "velocity": 101,
                "duration": 0.12045454545453538,
                "tempo": 120.0
            },
            {
                "start_time": 78.03181818181818,
                "end_time": 78.15227272727272,
                "pitch": 58,
                "velocity": 101,
                "duration": 0.12045454545453538,
                "tempo": 120.0
            },
            {
                "start_time": 78.75227272727273,
                "end_time": 78.87272727272727,
                "pitch": 58,
                "velocity": 101,
                "duration": 0.12045454545454959,
                "tempo": 120.0
            },
            {
                "start_time": 79.47272727272727,
                "end_time": 79.59318181818182,
                "pitch": 61,
                "velocity": 101,
                "duration": 0.12045454545454959,
                "tempo": 120.0
            },
            {
                "start_time": 80.18181818181817,
                "end_time": 80.30227272727272,
                "pitch": 61,
                "velocity": 101,
                "duration": 0.12045454545454959,
                "tempo": 120.0
            },
            {
                "start_time": 80.90227272727272,
                "end_time": 81.02272727272727,
                "pitch": 59,
                "velocity": 101,
                "duration": 0.12045454545454959,
                "tempo": 120.0
            },
            {
                "start_time": 81.62272727272727,
                "end_time": 81.74318181818181,
                "pitch": 59,
                "velocity": 101,
                "duration": 0.12045454545453538,
                "tempo": 120.0
            },
            {
                "start_time": 82.34318181818182,
                "end_time": 82.46363636363635,
                "pitch": 59,
                "velocity": 101,
                "duration": 0.12045454545453538,
                "tempo": 120.0
            },
            {
                "start_time": 83.05227272727272,
                "end_time": 83.17272727272727,
                "pitch": 59,
                "velocity": 101,
                "duration": 0.12045454545454959,
                "tempo": 120.0
            },
            {
                "start_time": 83.77272727272727,
                "end_time": 83.89318181818182,
                "pitch": 58,
                "velocity": 101,
                "duration": 0.12045454545454959,
                "tempo": 120.0
            },
            {
                "start_time": 84.49318181818181,
                "end_time": 84.61363636363636,
                "pitch": 58,
                "velocity": 101,
                "duration": 0.12045454545454959,
                "tempo": 120.0
            },
            {
                "start_time": 85.21363636363635,
                "end_time": 85.3340909090909,
                "pitch": 61,
                "velocity": 101,
                "duration": 0.12045454545454959,
                "tempo": 120.0
            },
            {
                "start_time": 85.9340909090909,
                "end_time": 86.05227272727272,
                "pitch": 61,
                "velocity": 101,
                "duration": 0.11818181818182438,
                "tempo": 120.0
            },
            {
                "start_time": 86.64545454545454,
                "end_time": 86.76363636363637,
                "pitch": 59,
                "velocity": 101,
                "duration": 0.11818181818182438,
                "tempo": 120.0
            },
            {
                "start_time": 87.36590909090908,
                "end_time": 87.48409090909091,
                "pitch": 59,
                "velocity": 101,
                "duration": 0.11818181818182438,
                "tempo": 120.0
            },
            {
                "start_time": 88.08636363636363,
                "end_time": 88.20454545454545,
                "pitch": 58,
                "velocity": 101,
                "duration": 0.11818181818182438,
                "tempo": 120.0
            },
            {
                "start_time": 88.80681818181817,
                "end_time": 88.925,
                "pitch": 58,
                "velocity": 101,
                "duration": 0.11818181818182438,
                "tempo": 120.0
            },
            {
                "start_time": 89.51590909090909,
                "end_time": 89.63636363636363,
                "pitch": 59,
                "velocity": 101,
                "duration": 0.12045454545453538,
                "tempo": 120.0
            },
            {
                "start_time": 90.23636363636363,
                "end_time": 90.35681818181818,
                "pitch": 59,
                "velocity": 101,
                "duration": 0.12045454545454959,
                "tempo": 120.0
            },
            {
                "start_time": 90.95681818181818,
                "end_time": 91.07727272727273,
                "pitch": 58,
                "velocity": 101,
                "duration": 0.12045454545454959,
                "tempo": 120.0
            },
            {
                "start_time": 91.67727272727272,
                "end_time": 91.79772727272727,
                "pitch": 58,
                "velocity": 101,
                "duration": 0.12045454545454959,
                "tempo": 120.0
            },
            {
                "start_time": 92.38636363636363,
                "end_time": 92.5090909090909,
                "pitch": 59,
                "velocity": 101,
                "duration": 0.1227272727272748,
                "tempo": 120.0
            },
            {
                "start_time": 93.10454545454544,
                "end_time": 93.225,
                "pitch": 59,
                "velocity": 101,
                "duration": 0.12045454545454959,
                "tempo": 120.0
            },
            {
                "start_time": 93.82499999999999,
                "end_time": 93.94545454545454,
                "pitch": 58,
                "velocity": 101,
                "duration": 0.12045454545454959,
                "tempo": 120.0
            },
            {
                "start_time": 94.54545454545455,
                "end_time": 94.66590909090908,
                "pitch": 58,
                "velocity": 101,
                "duration": 0.12045454545453538,
                "tempo": 120.0
            },
            {
                "start_time": 95.26590909090909,
                "end_time": 95.38636363636363,
                "pitch": 59,
                "velocity": 101,
                "duration": 0.12045454545453538,
                "tempo": 120.0
            },
            {
                "start_time": 95.97727272727272,
                "end_time": 96.09545454545454,
                "pitch": 59,
                "velocity": 101,
                "duration": 0.11818181818182438,
                "tempo": 120.0
            },
            {
                "start_time": 96.69772727272726,
                "end_time": 96.81590909090909,
                "pitch": 58,
                "velocity": 101,
                "duration": 0.11818181818182438,
                "tempo": 120.0
            },
            {
                "start_time": 97.41818181818181,
                "end_time": 97.53636363636363,
                "pitch": 58,
                "velocity": 101,
                "duration": 0.11818181818182438,
                "tempo": 120.0
            }
        ],
        "Trumpet": [
            {
                "start_time": 6.122727272727272,
                "end_time": 6.363636363636363,
                "pitch": 69,
                "velocity": 64,
                "duration": 0.24090909090909118,
                "tempo": 120.0
            },
            {
                "start_time": 6.4818181818181815,
                "end_time": 6.722727272727273,
                "pitch": 69,
                "velocity": 64,
                "duration": 0.24090909090909118,
                "tempo": 120.0
            },
            {
                "start_time": 6.722727272727273,
                "end_time": 6.843181818181818,
                "pitch": 69,
                "velocity": 64,
                "duration": 0.12045454545454515,
                "tempo": 120.0
            },
            {
                "start_time": 6.843181818181818,
                "end_time": 7.202272727272727,
                "pitch": 72,
                "velocity": 64,
                "duration": 0.35909090909090935,
                "tempo": 120.0
            },
            {
                "start_time": 7.202272727272727,
                "end_time": 7.322727272727272,
                "pitch": 69,
                "velocity": 64,
                "duration": 0.12045454545454515,
                "tempo": 120.0
            },
            {
                "start_time": 7.322727272727272,
                "end_time": 7.556818181818182,
                "pitch": 69,
                "velocity": 64,
                "duration": 0.23409090909090935,
                "tempo": 120.0
            },
            {
                "start_time": 6.843181818181818,
                "end_time": 7.556818181818182,
                "pitch": 76,
                "velocity": 64,
                "duration": 0.7136363636363638,
                "tempo": 120.0
            },
            {
                "start_time": 7.556818181818182,
                "end_time": 7.793181818181818,
                "pitch": 72,
                "velocity": 64,
                "duration": 0.23636363636363633,
                "tempo": 120.0
            },
            {
                "start_time": 7.793181818181818,
                "end_time": 7.913636363636363,
                "pitch": 74,
                "velocity": 64,
                "duration": 0.12045454545454515,
                "tempo": 120.0
            },
            {
                "start_time": 8.152272727272727,
                "end_time": 8.754545454545454,
                "pitch": 75,
                "velocity": 64,
                "duration": 0.6022727272727266,
                "tempo": 120.0
            },
            {
                "start_time": 7.556818181818182,
                "end_time": 8.993181818181817,
                "pitch": 76,
                "velocity": 64,
                "duration": 1.4363636363636356,
                "tempo": 120.0
            },
            {
                "start_time": 8.754545454545454,
                "end_time": 8.993181818181817,
                "pitch": 76,
                "velocity": 64,
                "duration": 0.2386363636363633,
                "tempo": 120.0
            },
            {
                "start_time": 8.993181818181817,
                "end_time": 9.354545454545454,
                "pitch": 74,
                "velocity": 64,
                "duration": 0.36136363636363633,
                "tempo": 120.0
            },
            {
                "start_time": 9.354545454545454,
                "end_time": 9.593181818181817,
                "pitch": 76,
                "velocity": 64,
                "duration": 0.2386363636363633,
                "tempo": 120.0
            },
            {
                "start_time": 9.593181818181817,
                "end_time": 9.713636363636363,
                "pitch": 74,
                "velocity": 64,
                "duration": 0.12045454545454604,
                "tempo": 120.0
            },
            {
                "start_time": 10.075,
                "end_time": 10.434090909090909,
                "pitch": 71,
                "velocity": 64,
                "duration": 0.35909090909090935,
                "tempo": 120.0
            },
            {
                "start_time": 10.434090909090909,
                "end_time": 10.670454545454545,
                "pitch": 72,
                "velocity": 64,
                "duration": 0.23636363636363633,
                "tempo": 120.0
            },
            {
                "start_time": 10.670454545454545,
                "end_time": 11.024999999999999,
                "pitch": 71,
                "velocity": 64,
                "duration": 0.3545454545454536,
                "tempo": 120.0
            },
            {
                "start_time": 11.024999999999999,
                "end_time": 11.504545454545454,
                "pitch": 69,
                "velocity": 64,
                "duration": 0.4795454545454554,
                "tempo": 120.0
            },
            {
                "start_time": 11.504545454545454,
                "end_time": 11.863636363636363,
                "pitch": 67,
                "velocity": 64,
                "duration": 0.35909090909090935,
                "tempo": 120.0
            },
            {
                "start_time": 11.863636363636363,
                "end_time": 12.584090909090909,
                "pitch": 64,
                "velocity": 64,
                "duration": 0.7204545454545457,
                "tempo": 120.0
            },
            {
                "start_time": 12.584090909090909,
                "end_time": 12.945454545454545,
                "pitch": 67,
                "velocity": 64,
                "duration": 0.36136363636363633,
                "tempo": 120.0
            },
            {
                "start_time": 12.945454545454545,
                "end_time": 13.06590909090909,
                "pitch": 69,
                "velocity": 64,
                "duration": 0.12045454545454426,
                "tempo": 120.0
            },
            {
                "start_time": 13.06590909090909,
                "end_time": 13.304545454545455,
                "pitch": 67,
                "velocity": 64,
                "duration": 0.2386363636363651,
                "tempo": 120.0
            },
            {
                "start_time": 13.902272727272727,
                "end_time": 14.018181818181818,
                "pitch": 67,
                "velocity": 64,
                "duration": 0.1159090909090903,
                "tempo": 120.0
            },
            {
                "start_time": 14.018181818181818,
                "end_time": 14.375,
                "pitch": 69,
                "velocity": 64,
                "duration": 0.35681818181818237,
                "tempo": 120.0
            },
            {
                "start_time": 14.375,
                "end_time": 14.736363636363636,
                "pitch": 67,
                "velocity": 64,
                "duration": 0.36136363636363633,
                "tempo": 120.0
            },
            {
                "start_time": 10.434090909090909,
                "end_time": 14.736363636363636,
                "pitch": 76,
                "velocity": 64,
                "duration": 4.302272727272728,
                "tempo": 120.0
            },
            {
                "start_time": 14.736363636363636,
                "end_time": 14.975,
                "pitch": 72,
                "velocity": 64,
                "duration": 0.2386363636363633,
                "tempo": 120.0
            },
            {
                "start_time": 14.975,
                "end_time": 15.095454545454544,
                "pitch": 71,
                "velocity": 64,
                "duration": 0.12045454545454426,
                "tempo": 120.0
            },
            {
                "start_time": 15.095454545454544,
                "end_time": 15.336363636363636,
                "pitch": 69,
                "velocity": 64,
                "duration": 0.24090909090909207,
                "tempo": 120.0
            },
            {
                "start_time": 15.336363636363636,
                "end_time": 16.177272727272726,
                "pitch": 71,
                "velocity": 64,
                "duration": 0.8409090909090899,
                "tempo": 120.0
            },
            {
                "start_time": 15.336363636363636,
                "end_time": 16.177272727272726,
                "pitch": 71,
                "velocity": 64,
                "duration": 0.8409090909090899,
                "tempo": 120.0
            },
            {
                "start_time": 16.177272727272726,
                "end_time": 16.41590909090909,
                "pitch": 67,
                "velocity": 64,
                "duration": 0.2386363636363633,
                "tempo": 120.0
            },
            {
                "start_time": 16.177272727272726,
                "end_time": 16.41590909090909,
                "pitch": 67,
                "velocity": 64,
                "duration": 0.2386363636363633,
                "tempo": 120.0
            },
            {
                "start_time": 16.41590909090909,
                "end_time": 16.536363636363635,
                "pitch": 65,
                "velocity": 64,
                "duration": 0.12045454545454604,
                "tempo": 120.0
            },
            {
                "start_time": 16.536363636363635,
                "end_time": 16.777272727272727,
                "pitch": 64,
                "velocity": 64,
                "duration": 0.24090909090909207,
                "tempo": 120.0
            },
            {
                "start_time": 16.777272727272727,
                "end_time": 17.60681818181818,
                "pitch": 65,
                "velocity": 64,
                "duration": 0.8295454545454533,
                "tempo": 120.0
            },
            {
                "start_time": 17.60681818181818,
                "end_time": 17.847727272727273,
                "pitch": 69,
                "velocity": 64,
                "duration": 0.24090909090909207,
                "tempo": 120.0
            },
            {
                "start_time": 17.96818181818182,
                "end_time": 18.206818181818182,
                "pitch": 69,
                "velocity": 64,
                "duration": 0.2386363636363633,
                "tempo": 120.0
            },
            {
                "start_time": 18.206818181818182,
                "end_time": 18.327272727272728,
                "pitch": 69,
                "velocity": 64,
                "duration": 0.12045454545454604,
                "tempo": 120.0
            },
            {
                "start_time": 14.736363636363636,
                "end_time": 18.327272727272728,
                "pitch": 76,
                "velocity": 64,
                "duration": 3.5909090909090917,
                "tempo": 120.0
            },
            {
                "start_time": 18.327272727272728,
                "end_time": 18.686363636363634,
                "pitch": 72,
                "velocity": 64,
                "duration": 0.3590909090909058,
                "tempo": 120.0
            },
            {
                "start_time": 18.686363636363634,
                "end_time": 19.047727272727272,
                "pitch": 69,
                "velocity": 64,
                "duration": 0.3613636363636381,
                "tempo": 120.0
            },
            {
                "start_time": 19.047727272727272,
                "end_time": 19.288636363636364,
                "pitch": 67,
                "velocity": 64,
                "duration": 0.24090909090909207,
                "tempo": 120.0
            },
            {
                "start_time": 19.40681818181818,
                "end_time": 19.643181818181816,
                "pitch": 67,
                "velocity": 64,
                "duration": 0.23636363636363455,
                "tempo": 120.0
            },
            {
                "start_time": 19.643181818181816,
                "end_time": 19.761363636363637,
                "pitch": 67,
                "velocity": 64,
                "duration": 0.11818181818182083,
                "tempo": 120.0
            },
            {
                "start_time": 19.761363636363637,
                "end_time": 20.12272727272727,
                "pitch": 72,
                "velocity": 64,
                "duration": 0.36136363636363455,
                "tempo": 120.0
            },
            {
                "start_time": 20.12272727272727,
                "end_time": 20.479545454545452,
                "pitch": 74,
                "velocity": 64,
                "duration": 0.3568181818181806,
                "tempo": 120.0
            },
            {
                "start_time": 18.327272727272728,
                "end_time": 21.075,
                "pitch": 76,
                "velocity": 64,
                "duration": 2.7477272727272712,
                "tempo": 120.0
            },
            {
                "start_time": 20.479545454545452,
                "end_time": 21.075,
                "pitch": 76,
                "velocity": 64,
                "duration": 0.5954545454545475,
                "tempo": 120.0
            },
            {
                "start_time": 21.075,
                "end_time": 21.55681818181818,
                "pitch": 74,
                "velocity": 64,
                "duration": 0.4818181818181806,
                "tempo": 120.0
            },
            {
                "start_time": 10.670454545454545,
                "end_time": 21.91590909090909,
                "pitch": 57,
                "velocity": 64,
                "duration": 11.245454545454544,
                "tempo": 120.0
            },
            {
                "start_time": 21.55681818181818,
                "end_time": 21.91590909090909,
                "pitch": 72,
                "velocity": 64,
                "duration": 0.35909090909090935,
                "tempo": 120.0
            },
            {
                "start_time": 21.91590909090909,
                "end_time": 23.349999999999998,
                "pitch": 71,
                "velocity": 64,
                "duration": 1.4340909090909086,
                "tempo": 120.0
            },
            {
                "start_time": 23.349999999999998,
                "end_time": 23.586363636363636,
                "pitch": 69,
                "velocity": 64,
                "duration": 0.2363636363636381,
                "tempo": 120.0
            },
            {
                "start_time": 23.349999999999998,
                "end_time": 23.586363636363636,
                "pitch": 69,
                "velocity": 64,
                "duration": 0.2363636363636381,
                "tempo": 120.0
            },
            {
                "start_time": 23.706818181818182,
                "end_time": 23.94772727272727,
                "pitch": 69,
                "velocity": 64,
                "duration": 0.24090909090908852,
                "tempo": 120.0
            },
            {
                "start_time": 23.94772727272727,
                "end_time": 24.06590909090909,
                "pitch": 69,
                "velocity": 64,
                "duration": 0.11818181818182083,
                "tempo": 120.0
            },
            {
                "start_time": 24.068181818181817,
                "end_time": 24.427272727272726,
                "pitch": 72,
                "velocity": 64,
                "duration": 0.35909090909090935,
                "tempo": 120.0
            },
            {
                "start_time": 24.427272727272726,
                "end_time": 24.788636363636364,
                "pitch": 69,
                "velocity": 64,
                "duration": 0.3613636363636381,
                "tempo": 120.0
            },
            {
                "start_time": 24.788636363636364,
                "end_time": 25.027272727272727,
                "pitch": 67,
                "velocity": 64,
                "duration": 0.2386363636363633,
                "tempo": 120.0
            },
            {
                "start_time": 25.14772727272727,
                "end_time": 25.388636363636362,
                "pitch": 67,
                "velocity": 64,
                "duration": 0.24090909090909207,
                "tempo": 120.0
            },
            {
                "start_time": 25.388636363636362,
                "end_time": 25.50681818181818,
                "pitch": 67,
                "velocity": 64,
                "duration": 0.11818181818181728,
                "tempo": 120.0
            },
            {
                "start_time": 25.509090909090908,
                "end_time": 25.868181818181817,
                "pitch": 72,
                "velocity": 64,
                "duration": 0.35909090909090935,
                "tempo": 120.0
            },
            {
                "start_time": 25.868181818181817,
                "end_time": 26.229545454545452,
                "pitch": 74,
                "velocity": 64,
                "duration": 0.36136363636363455,
                "tempo": 120.0
            },
            {
                "start_time": 21.91590909090909,
                "end_time": 27.659090909090907,
                "pitch": 57,
                "velocity": 64,
                "duration": 5.743181818181817,
                "tempo": 120.0
            },
            {
                "start_time": 26.229545454545452,
                "end_time": 27.659090909090907,
                "pitch": 72,
                "velocity": 64,
                "duration": 1.4295454545454547,
                "tempo": 120.0
            },
            {
                "start_time": 27.659090909090907,
                "end_time": 28.85909090909091,
                "pitch": 71,
                "velocity": 64,
                "duration": 1.2000000000000028,
                "tempo": 120.0
            },
            {
                "start_time": 34.840909090909086,
                "end_time": 35.08181818181818,
                "pitch": 70,
                "velocity": 64,
                "duration": 0.24090909090909207,
                "tempo": 120.0
            },
            {
                "start_time": 35.20227272727273,
                "end_time": 35.43863636363636,
                "pitch": 70,
                "velocity": 64,
                "duration": 0.23636363636363455,
                "tempo": 120.0
            },
            {
                "start_time": 35.43863636363636,
                "end_time": 35.554545454545455,
                "pitch": 70,
                "velocity": 64,
                "duration": 0.11590909090909207,
                "tempo": 120.0
            },
            {
                "start_time": 35.554545454545455,
                "end_time": 35.918181818181814,
                "pitch": 73,
                "velocity": 64,
                "duration": 0.36363636363635976,
                "tempo": 120.0
            },
            {
                "start_time": 35.918181818181814,
                "end_time": 36.04090909090909,
                "pitch": 70,
                "velocity": 64,
                "duration": 0.1227272727272748,
                "tempo": 120.0
            },
            {
                "start_time": 36.04090909090909,
                "end_time": 36.27272727272727,
                "pitch": 70,
                "velocity": 64,
                "duration": 0.23181818181818414,
                "tempo": 120.0
            },
            {
                "start_time": 35.554545454545455,
                "end_time": 36.27272727272727,
                "pitch": 76,
                "velocity": 64,
                "duration": 0.7181818181818187,
                "tempo": 120.0
            },
            {
                "start_time": 36.27272727272727,
                "end_time": 36.51136363636363,
                "pitch": 73,
                "velocity": 64,
                "duration": 0.23863636363635976,
                "tempo": 120.0
            },
            {
                "start_time": 36.51136363636363,
                "end_time": 36.62954545454545,
                "pitch": 75,
                "velocity": 64,
                "duration": 0.11818181818181728,
                "tempo": 120.0
            },
            {
                "start_time": 36.27272727272727,
                "end_time": 37.470454545454544,
                "pitch": 76,
                "velocity": 64,
                "duration": 1.1977272727272705,
                "tempo": 120.0
            },
            {
                "start_time": 36.87045454545454,
                "end_time": 37.470454545454544,
                "pitch": 76,
                "velocity": 64,
                "duration": 0.6000000000000014,
                "tempo": 120.0
            },
            {
                "start_time": 37.470454545454544,
                "end_time": 37.711363636363636,
                "pitch": 77,
                "velocity": 64,
                "duration": 0.24090909090909207,
                "tempo": 120.0
            },
            {
                "start_time": 37.711363636363636,
                "end_time": 38.070454545454545,
                "pitch": 75,
                "velocity": 64,
                "duration": 0.35909090909090935,
                "tempo": 120.0
            },
            {
                "start_time": 38.070454545454545,
                "end_time": 38.31136363636364,
                "pitch": 77,
                "velocity": 64,
                "duration": 0.24090909090909207,
                "tempo": 120.0
            },
            {
                "start_time": 38.31136363636364,
                "end_time": 38.43181818181818,
                "pitch": 75,
                "velocity": 64,
                "duration": 0.12045454545454248,
                "tempo": 120.0
            },
            {
                "start_time": 38.79090909090909,
                "end_time": 39.14545454545454,
                "pitch": 72,
                "velocity": 64,
                "duration": 0.35454545454545183,
                "tempo": 120.0
            },
            {
                "start_time": 39.14545454545454,
                "end_time": 39.38181818181818,
                "pitch": 73,
                "velocity": 64,
                "duration": 0.23636363636364166,
                "tempo": 120.0
            },
            {
                "start_time": 35.918181818181814,
                "end_time": 39.74090909090909,
                "pitch": 52,
                "velocity": 64,
                "duration": 3.8227272727272776,
                "tempo": 120.0
            },
            {
                "start_time": 39.38181818181818,
                "end_time": 39.74090909090909,
                "pitch": 72,
                "velocity": 64,
                "duration": 0.35909090909090935,
                "tempo": 120.0
            },
            {
                "start_time": 39.74090909090909,
                "end_time": 40.220454545454544,
                "pitch": 70,
                "velocity": 64,
                "duration": 0.47954545454545183,
                "tempo": 120.0
            },
            {
                "start_time": 40.220454545454544,
                "end_time": 40.22272727272727,
                "pitch": 68,
                "velocity": 64,
                "duration": 0.0022727272727252057,
                "tempo": 120.0
            },
            {
                "start_time": 40.22272727272727,
                "end_time": 40.58181818181818,
                "pitch": 68,
                "velocity": 64,
                "duration": 0.35909090909090935,
                "tempo": 120.0
            },
            {
                "start_time": 16.41590909090909,
                "end_time": 40.58181818181818,
                "pitch": 78,
                "velocity": 64,
                "duration": 24.16590909090909,
                "tempo": 120.0
            },
            {
                "start_time": 40.58181818181818,
                "end_time": 41.30227272727272,
                "pitch": 65,
                "velocity": 64,
                "duration": 0.7204545454545439,
                "tempo": 120.0
            },
            {
                "start_time": 41.30227272727272,
                "end_time": 41.663636363636364,
                "pitch": 68,
                "velocity": 64,
                "duration": 0.36136363636364166,
                "tempo": 120.0
            },
            {
                "start_time": 41.663636363636364,
                "end_time": 41.78181818181818,
                "pitch": 70,
                "velocity": 64,
                "duration": 0.11818181818181728,
                "tempo": 120.0
            },
            {
                "start_time": 41.663636363636364,
                "end_time": 41.78181818181818,
                "pitch": 70,
                "velocity": 64,
                "duration": 0.11818181818181728,
                "tempo": 120.0
            },
            {
                "start_time": 41.78181818181818,
                "end_time": 42.02272727272727,
                "pitch": 68,
                "velocity": 64,
                "duration": 0.24090909090909207,
                "tempo": 120.0
            },
            {
                "start_time": 41.78181818181818,
                "end_time": 42.02272727272727,
                "pitch": 68,
                "velocity": 64,
                "duration": 0.24090909090909207,
                "tempo": 120.0
            },
            {
                "start_time": 42.611363636363635,
                "end_time": 42.73181818181818,
                "pitch": 68,
                "velocity": 64,
                "duration": 0.12045454545454248,
                "tempo": 120.0
            },
            {
                "start_time": 42.73181818181818,
                "end_time": 43.09318181818182,
                "pitch": 70,
                "velocity": 64,
                "duration": 0.36136363636364166,
                "tempo": 120.0
            },
            {
                "start_time": 42.73181818181818,
                "end_time": 43.09318181818182,
                "pitch": 70,
                "velocity": 64,
                "duration": 0.36136363636364166,
                "tempo": 120.0
            },
            {
                "start_time": 43.09318181818182,
                "end_time": 43.45227272727273,
                "pitch": 68,
                "velocity": 64,
                "duration": 0.35909090909090935,
                "tempo": 120.0
            },
            {
                "start_time": 43.09318181818182,
                "end_time": 43.45227272727273,
                "pitch": 68,
                "velocity": 64,
                "duration": 0.35909090909090935,
                "tempo": 120.0
            },
            {
                "start_time": 43.45227272727273,
                "end_time": 43.69318181818181,
                "pitch": 73,
                "velocity": 64,
                "duration": 0.24090909090908497,
                "tempo": 120.0
            },
            {
                "start_time": 39.74090909090909,
                "end_time": 43.81363636363636,
                "pitch": 52,
                "velocity": 64,
                "duration": 4.0727272727272705,
                "tempo": 120.0
            },
            {
                "start_time": 43.69318181818181,
                "end_time": 43.81363636363636,
                "pitch": 72,
                "velocity": 64,
                "duration": 0.12045454545454959,
                "tempo": 120.0
            },
            {
                "start_time": 43.81363636363636,
                "end_time": 44.05227272727272,
                "pitch": 70,
                "velocity": 64,
                "duration": 0.23863636363635976,
                "tempo": 120.0
            },
            {
                "start_time": 44.05227272727272,
                "end_time": 44.893181818181816,
                "pitch": 72,
                "velocity": 64,
                "duration": 0.8409090909090935,
                "tempo": 120.0
            },
            {
                "start_time": 44.893181818181816,
                "end_time": 45.13409090909091,
                "pitch": 68,
                "velocity": 64,
                "duration": 0.24090909090909207,
                "tempo": 120.0
            },
            {
                "start_time": 45.13409090909091,
                "end_time": 45.25454545454545,
                "pitch": 66,
                "velocity": 64,
                "duration": 0.12045454545454248,
                "tempo": 120.0
            },
            {
                "start_time": 45.25454545454545,
                "end_time": 45.49090909090909,
                "pitch": 65,
                "velocity": 64,
                "duration": 0.23636363636364166,
                "tempo": 120.0
            },
            {
                "start_time": 45.49090909090909,
                "end_time": 46.324999999999996,
                "pitch": 66,
                "velocity": 64,
                "duration": 0.8340909090909037,
                "tempo": 120.0
            },
            {
                "start_time": 46.324999999999996,
                "end_time": 46.56363636363636,
                "pitch": 70,
                "velocity": 64,
                "duration": 0.23863636363636687,
                "tempo": 120.0
            },
            {
                "start_time": 46.684090909090905,
                "end_time": 46.925,
                "pitch": 70,
                "velocity": 64,
                "duration": 0.24090909090909207,
                "tempo": 120.0
            },
            {
                "start_time": 46.925,
                "end_time": 47.043181818181814,
                "pitch": 70,
                "velocity": 64,
                "duration": 0.11818181818181728,
                "tempo": 120.0
            },
            {
                "start_time": 43.45227272727273,
                "end_time": 47.04545454545454,
                "pitch": 76,
                "velocity": 64,
                "duration": 3.5931818181818116,
                "tempo": 120.0
            },
            {
                "start_time": 47.043181818181814,
                "end_time": 47.04545454545454,
                "pitch": 76,
                "velocity": 64,
                "duration": 0.0022727272727252057,
                "tempo": 120.0
            },
            {
                "start_time": 43.81363636363636,
                "end_time": 47.40454545454545,
                "pitch": 52,
                "velocity": 64,
                "duration": 3.5909090909090864,
                "tempo": 120.0
            },
            {
                "start_time": 47.04545454545454,
                "end_time": 47.40454545454545,
                "pitch": 73,
                "velocity": 64,
                "duration": 0.35909090909090935,
                "tempo": 120.0
            },
            {
                "start_time": 47.40454545454545,
                "end_time": 47.76590909090909,
                "pitch": 70,
                "velocity": 64,
                "duration": 0.36136363636364166,
                "tempo": 120.0
            },
            {
                "start_time": 47.76590909090909,
                "end_time": 48.00454545454545,
                "pitch": 68,
                "velocity": 64,
                "duration": 0.23863636363635976,
                "tempo": 120.0
            },
            {
                "start_time": 47.76590909090909,
                "end_time": 48.00454545454545,
                "pitch": 68,
                "velocity": 64,
                "duration": 0.23863636363635976,
                "tempo": 120.0
            },
            {
                "start_time": 48.125,
                "end_time": 48.361363636363635,
                "pitch": 68,
                "velocity": 64,
                "duration": 0.23636363636363455,
                "tempo": 120.0
            },
            {
                "start_time": 48.361363636363635,
                "end_time": 48.47727272727273,
                "pitch": 68,
                "velocity": 64,
                "duration": 0.11590909090909207,
                "tempo": 120.0
            },
            {
                "start_time": 48.47727272727273,
                "end_time": 48.834090909090904,
                "pitch": 73,
                "velocity": 64,
                "duration": 0.35681818181817704,
                "tempo": 120.0
            },
            {
                "start_time": 48.834090909090904,
                "end_time": 49.195454545454545,
                "pitch": 75,
                "velocity": 64,
                "duration": 0.36136363636364166,
                "tempo": 120.0
            },
            {
                "start_time": 49.195454545454545,
                "end_time": 49.79545454545454,
                "pitch": 77,
                "velocity": 64,
                "duration": 0.5999999999999943,
                "tempo": 120.0
            },
            {
                "start_time": 49.79545454545454,
                "end_time": 50.275,
                "pitch": 75,
                "velocity": 64,
                "duration": 0.47954545454545894,
                "tempo": 120.0
            },
            {
                "start_time": 50.275,
                "end_time": 50.63636363636363,
                "pitch": 73,
                "velocity": 64,
                "duration": 0.36136363636363455,
                "tempo": 120.0
            },
            {
                "start_time": 47.40454545454545,
                "end_time": 52.06590909090909,
                "pitch": 52,
                "velocity": 64,
                "duration": 4.661363636363639,
                "tempo": 120.0
            },
            {
                "start_time": 50.63636363636363,
                "end_time": 52.06590909090909,
                "pitch": 72,
                "velocity": 64,
                "duration": 1.4295454545454547,
                "tempo": 120.0
            },
            {
                "start_time": 52.06590909090909,
                "end_time": 52.30681818181818,
                "pitch": 70,
                "velocity": 64,
                "duration": 0.24090909090909207,
                "tempo": 120.0
            },
            {
                "start_time": 52.42727272727272,
                "end_time": 52.66590909090909,
                "pitch": 70,
                "velocity": 64,
                "duration": 0.23863636363636687,
                "tempo": 120.0
            },
            {
                "start_time": 52.66590909090909,
                "end_time": 52.78636363636363,
                "pitch": 70,
                "velocity": 64,
                "duration": 0.12045454545454248,
                "tempo": 120.0
            },
            {
                "start_time": 48.47727272727273,
                "end_time": 52.78636363636363,
                "pitch": 76,
                "velocity": 64,
                "duration": 4.309090909090905,
                "tempo": 120.0
            },
            {
                "start_time": 52.78636363636363,
                "end_time": 53.14772727272727,
                "pitch": 73,
                "velocity": 64,
                "duration": 0.36136363636364166,
                "tempo": 120.0
            },
            {
                "start_time": 53.14772727272727,
                "end_time": 53.50681818181818,
                "pitch": 70,
                "velocity": 64,
                "duration": 0.35909090909090935,
                "tempo": 120.0
            },
            {
                "start_time": 53.50681818181818,
                "end_time": 53.74772727272727,
                "pitch": 68,
                "velocity": 64,
                "duration": 0.24090909090908497,
                "tempo": 120.0
            },
            {
                "start_time": 53.50681818181818,
                "end_time": 53.74772727272727,
                "pitch": 68,
                "velocity": 64,
                "duration": 0.24090909090908497,
                "tempo": 120.0
            },
            {
                "start_time": 53.86818181818182,
                "end_time": 54.10681818181818,
                "pitch": 68,
                "velocity": 64,
                "duration": 0.23863636363635976,
                "tempo": 120.0
            },
            {
                "start_time": 54.10681818181818,
                "end_time": 54.22727272727273,
                "pitch": 68,
                "velocity": 64,
                "duration": 0.12045454545454959,
                "tempo": 120.0
            },
            {
                "start_time": 52.78636363636363,
                "end_time": 54.22727272727273,
                "pitch": 76,
                "velocity": 64,
                "duration": 1.440909090909095,
                "tempo": 120.0
            },
            {
                "start_time": 54.22727272727273,
                "end_time": 54.58863636363636,
                "pitch": 73,
                "velocity": 64,
                "duration": 0.36136363636363455,
                "tempo": 120.0
            },
            {
                "start_time": 54.58863636363636,
                "end_time": 54.94090909090909,
                "pitch": 75,
                "velocity": 64,
                "duration": 0.3522727272727266,
                "tempo": 120.0
            },
            {
                "start_time": 54.94090909090909,
                "end_time": 57.57954545454545,
                "pitch": 73,
                "velocity": 64,
                "duration": 2.6386363636363654,
                "tempo": 120.0
            },
            {
                "start_time": 75.04090909090908,
                "end_time": 75.27954545454546,
                "pitch": 68,
                "velocity": 64,
                "duration": 0.23863636363637397,
                "tempo": 120.0
            },
            {
                "start_time": 75.39999999999999,
                "end_time": 75.64090909090909,
                "pitch": 68,
                "velocity": 64,
                "duration": 0.24090909090909918,
                "tempo": 120.0
            },
            {
                "start_time": 75.64090909090909,
                "end_time": 75.76136363636363,
                "pitch": 68,
                "velocity": 64,
                "duration": 0.12045454545453538,
                "tempo": 120.0
            },
            {
                "start_time": 75.76136363636363,
                "end_time": 76.12045454545454,
                "pitch": 71,
                "velocity": 64,
                "duration": 0.35909090909090935,
                "tempo": 120.0
            },
            {
                "start_time": 75.76136363636363,
                "end_time": 76.12045454545454,
                "pitch": 71,
                "velocity": 64,
                "duration": 0.35909090909090935,
                "tempo": 120.0
            },
            {
                "start_time": 76.12045454545454,
                "end_time": 76.24090909090908,
                "pitch": 68,
                "velocity": 64,
                "duration": 0.12045454545454959,
                "tempo": 120.0
            },
            {
                "start_time": 76.12045454545454,
                "end_time": 76.24090909090908,
                "pitch": 68,
                "velocity": 64,
                "duration": 0.12045454545454959,
                "tempo": 120.0
            },
            {
                "start_time": 76.24090909090908,
                "end_time": 76.48181818181818,
                "pitch": 68,
                "velocity": 64,
                "duration": 0.24090909090909918,
                "tempo": 120.0
            },
            {
                "start_time": 76.48181818181818,
                "end_time": 76.72045454545454,
                "pitch": 71,
                "velocity": 64,
                "duration": 0.23863636363635976,
                "tempo": 120.0
            },
            {
                "start_time": 76.48181818181818,
                "end_time": 76.72045454545454,
                "pitch": 71,
                "velocity": 64,
                "duration": 0.23863636363635976,
                "tempo": 120.0
            },
            {
                "start_time": 54.22727272727273,
                "end_time": 76.72045454545454,
                "pitch": 76,
                "velocity": 64,
                "duration": 22.493181818181817,
                "tempo": 120.0
            },
            {
                "start_time": 76.72045454545454,
                "end_time": 76.8409090909091,
                "pitch": 73,
                "velocity": 64,
                "duration": 0.12045454545454959,
                "tempo": 120.0
            },
            {
                "start_time": 77.07727272727273,
                "end_time": 77.67045454545455,
                "pitch": 74,
                "velocity": 64,
                "duration": 0.5931818181818187,
                "tempo": 120.0
            },
            {
                "start_time": 77.67045454545455,
                "end_time": 77.91136363636363,
                "pitch": 75,
                "velocity": 64,
                "duration": 0.24090909090908497,
                "tempo": 120.0
            },
            {
                "start_time": 77.91136363636363,
                "end_time": 78.27045454545454,
                "pitch": 73,
                "velocity": 64,
                "duration": 0.35909090909090935,
                "tempo": 120.0
            },
            {
                "start_time": 78.27045454545454,
                "end_time": 78.51136363636363,
                "pitch": 75,
                "velocity": 64,
                "duration": 0.24090909090908497,
                "tempo": 120.0
            },
            {
                "start_time": 78.51136363636363,
                "end_time": 78.63181818181818,
                "pitch": 73,
                "velocity": 64,
                "duration": 0.12045454545454959,
                "tempo": 120.0
            },
            {
                "start_time": 78.99090909090908,
                "end_time": 79.35227272727272,
                "pitch": 70,
                "velocity": 64,
                "duration": 0.36136363636363455,
                "tempo": 120.0
            },
            {
                "start_time": 79.35227272727272,
                "end_time": 79.59318181818182,
                "pitch": 71,
                "velocity": 64,
                "duration": 0.24090909090909918,
                "tempo": 120.0
            },
            {
                "start_time": 79.59318181818182,
                "end_time": 79.94772727272726,
                "pitch": 70,
                "velocity": 64,
                "duration": 0.3545454545454447,
                "tempo": 120.0
            },
            {
                "start_time": 79.94772727272726,
                "end_time": 80.42272727272727,
                "pitch": 68,
                "velocity": 64,
                "duration": 0.4750000000000085,
                "tempo": 120.0
            },
            {
                "start_time": 79.94772727272726,
                "end_time": 80.42272727272727,
                "pitch": 68,
                "velocity": 64,
                "duration": 0.4750000000000085,
                "tempo": 120.0
            },
            {
                "start_time": 45.13409090909091,
                "end_time": 80.42272727272727,
                "pitch": 79,
                "velocity": 64,
                "duration": 35.288636363636364,
                "tempo": 120.0
            },
            {
                "start_time": 80.42272727272727,
                "end_time": 80.78181818181818,
                "pitch": 66,
                "velocity": 64,
                "duration": 0.35909090909090935,
                "tempo": 120.0
            },
            {
                "start_time": 80.78181818181818,
                "end_time": 81.50227272727273,
                "pitch": 63,
                "velocity": 64,
                "duration": 0.7204545454545439,
                "tempo": 120.0
            },
            {
                "start_time": 41.30227272727272,
                "end_time": 81.86363636363636,
                "pitch": 23,
                "velocity": 64,
                "duration": 40.56136363636364,
                "tempo": 120.0
            },
            {
                "start_time": 81.50227272727273,
                "end_time": 81.86363636363636,
                "pitch": 66,
                "velocity": 64,
                "duration": 0.36136363636363455,
                "tempo": 120.0
            },
            {
                "start_time": 81.50227272727273,
                "end_time": 81.86363636363636,
                "pitch": 66,
                "velocity": 64,
                "duration": 0.36136363636363455,
                "tempo": 120.0
            },
            {
                "start_time": 81.86363636363636,
                "end_time": 81.98409090909091,
                "pitch": 68,
                "velocity": 64,
                "duration": 0.12045454545454959,
                "tempo": 120.0
            },
            {
                "start_time": 80.42272727272727,
                "end_time": 81.98409090909091,
                "pitch": 79,
                "velocity": 64,
                "duration": 1.5613636363636374,
                "tempo": 120.0
            },
            {
                "start_time": 81.98409090909091,
                "end_time": 82.22272727272727,
                "pitch": 66,
                "velocity": 64,
                "duration": 0.23863636363635976,
                "tempo": 120.0
            },
            {
                "start_time": 81.86363636363636,
                "end_time": 82.93636363636364,
                "pitch": 23,
                "velocity": 64,
                "duration": 1.0727272727272776,
                "tempo": 120.0
            },
            {
                "start_time": 82.82045454545454,
                "end_time": 82.93636363636364,
                "pitch": 66,
                "velocity": 64,
                "duration": 0.11590909090909918,
                "tempo": 120.0
            },
            {
                "start_time": 82.93636363636364,
                "end_time": 83.29318181818181,
                "pitch": 68,
                "velocity": 64,
                "duration": 0.35681818181816993,
                "tempo": 120.0
            },
            {
                "start_time": 81.98409090909091,
                "end_time": 83.29318181818181,
                "pitch": 79,
                "velocity": 64,
                "duration": 1.309090909090898,
                "tempo": 120.0
            },
            {
                "start_time": 24.427272727272726,
                "end_time": 83.65454545454546,
                "pitch": 45,
                "velocity": 64,
                "duration": 59.227272727272734,
                "tempo": 120.0
            },
            {
                "start_time": 83.29318181818181,
                "end_time": 83.65454545454546,
                "pitch": 66,
                "velocity": 64,
                "duration": 0.36136363636364877,
                "tempo": 120.0
            },
            {
                "start_time": 83.65454545454546,
                "end_time": 83.89318181818182,
                "pitch": 71,
                "velocity": 64,
                "duration": 0.23863636363635976,
                "tempo": 120.0
            },
            {
                "start_time": 83.89318181818182,
                "end_time": 84.01363636363637,
                "pitch": 70,
                "velocity": 64,
                "duration": 0.12045454545454959,
                "tempo": 120.0
            },
            {
                "start_time": 84.01363636363637,
                "end_time": 84.25454545454545,
                "pitch": 68,
                "velocity": 64,
                "duration": 0.24090909090908497,
                "tempo": 120.0
            },
            {
                "start_time": 84.01363636363637,
                "end_time": 84.25454545454545,
                "pitch": 68,
                "velocity": 64,
                "duration": 0.24090909090908497,
                "tempo": 120.0
            },
            {
                "start_time": 84.25454545454545,
                "end_time": 85.09545454545454,
                "pitch": 70,
                "velocity": 64,
                "duration": 0.8409090909090935,
                "tempo": 120.0
            },
            {
                "start_time": 85.09545454545454,
                "end_time": 85.3340909090909,
                "pitch": 66,
                "velocity": 64,
                "duration": 0.23863636363635976,
                "tempo": 120.0
            },
            {
                "start_time": 85.3340909090909,
                "end_time": 85.45454545454545,
                "pitch": 64,
                "velocity": 64,
                "duration": 0.12045454545454959,
                "tempo": 120.0
            },
            {
                "start_time": 85.3340909090909,
                "end_time": 85.45454545454545,
                "pitch": 64,
                "velocity": 64,
                "duration": 0.12045454545454959,
                "tempo": 120.0
            },
            {
                "start_time": 85.45454545454545,
                "end_time": 85.69545454545454,
                "pitch": 63,
                "velocity": 64,
                "duration": 0.24090909090908497,
                "tempo": 120.0
            },
            {
                "start_time": 82.93636363636364,
                "end_time": 86.52499999999999,
                "pitch": 23,
                "velocity": 64,
                "duration": 3.588636363636354,
                "tempo": 120.0
            },
            {
                "start_time": 85.69545454545454,
                "end_time": 86.52499999999999,
                "pitch": 64,
                "velocity": 64,
                "duration": 0.8295454545454533,
                "tempo": 120.0
            },
            {
                "start_time": 86.52499999999999,
                "end_time": 86.76590909090909,
                "pitch": 68,
                "velocity": 64,
                "duration": 0.24090909090909918,
                "tempo": 120.0
            },
            {
                "start_time": 86.8840909090909,
                "end_time": 87.125,
                "pitch": 68,
                "velocity": 64,
                "duration": 0.24090909090909918,
                "tempo": 120.0
            },
            {
                "start_time": 87.125,
                "end_time": 87.24545454545454,
                "pitch": 68,
                "velocity": 64,
                "duration": 0.12045454545453538,
                "tempo": 120.0
            },
            {
                "start_time": 87.24545454545454,
                "end_time": 87.60454545454544,
                "pitch": 71,
                "velocity": 64,
                "duration": 0.35909090909090935,
                "tempo": 120.0
            },
            {
                "start_time": 87.24545454545454,
                "end_time": 87.60454545454544,
                "pitch": 71,
                "velocity": 64,
                "duration": 0.35909090909090935,
                "tempo": 120.0
            },
            {
                "start_time": 87.60454545454544,
                "end_time": 87.9659090909091,
                "pitch": 68,
                "velocity": 64,
                "duration": 0.36136363636364877,
                "tempo": 120.0
            },
            {
                "start_time": 87.60454545454544,
                "end_time": 87.9659090909091,
                "pitch": 68,
                "velocity": 64,
                "duration": 0.36136363636364877,
                "tempo": 120.0
            },
            {
                "start_time": 87.9659090909091,
                "end_time": 88.20681818181818,
                "pitch": 66,
                "velocity": 64,
                "duration": 0.24090909090908497,
                "tempo": 120.0
            },
            {
                "start_time": 88.32499999999999,
                "end_time": 88.56590909090909,
                "pitch": 66,
                "velocity": 64,
                "duration": 0.24090909090909918,
                "tempo": 120.0
            },
            {
                "start_time": 83.65454545454546,
                "end_time": 88.68636363636364,
                "pitch": 45,
                "velocity": 64,
                "duration": 5.031818181818181,
                "tempo": 120.0
            },
            {
                "start_time": 88.56590909090909,
                "end_time": 88.68636363636364,
                "pitch": 66,
                "velocity": 64,
                "duration": 0.12045454545454959,
                "tempo": 120.0
            },
            {
                "start_time": 88.68636363636364,
                "end_time": 89.04545454545455,
                "pitch": 71,
                "velocity": 64,
                "duration": 0.35909090909090935,
                "tempo": 120.0
            },
            {
                "start_time": 89.04545454545455,
                "end_time": 89.39999999999999,
                "pitch": 73,
                "velocity": 64,
                "duration": 0.3545454545454447,
                "tempo": 120.0
            },
            {
                "start_time": 89.39999999999999,
                "end_time": 89.99545454545454,
                "pitch": 75,
                "velocity": 64,
                "duration": 0.5954545454545439,
                "tempo": 120.0
            },
            {
                "start_time": 27.659090909090907,
                "end_time": 90.47727272727272,
                "pitch": 57,
                "velocity": 64,
                "duration": 62.81818181818181,
                "tempo": 120.0
            },
            {
                "start_time": 89.99545454545454,
                "end_time": 90.47727272727272,
                "pitch": 73,
                "velocity": 64,
                "duration": 0.48181818181818414,
                "tempo": 120.0
            },
            {
                "start_time": 90.47727272727272,
                "end_time": 90.83636363636363,
                "pitch": 71,
                "velocity": 64,
                "duration": 0.35909090909090935,
                "tempo": 120.0
            },
            {
                "start_time": 90.83636363636363,
                "end_time": 92.27045454545454,
                "pitch": 70,
                "velocity": 64,
                "duration": 1.4340909090909122,
                "tempo": 120.0
            },
            {
                "start_time": 92.27045454545454,
                "end_time": 92.5090909090909,
                "pitch": 68,
                "velocity": 64,
                "duration": 0.23863636363635976,
                "tempo": 120.0
            },
            {
                "start_time": 92.27045454545454,
                "end_time": 92.5090909090909,
                "pitch": 68,
                "velocity": 64,
                "duration": 0.23863636363635976,
                "tempo": 120.0
            },
            {
                "start_time": 92.63181818181818,
                "end_time": 92.87272727272727,
                "pitch": 68,
                "velocity": 64,
                "duration": 0.24090909090909918,
                "tempo": 120.0
            },
            {
                "start_time": 92.87272727272727,
                "end_time": 92.98863636363636,
                "pitch": 68,
                "velocity": 64,
                "duration": 0.11590909090908497,
                "tempo": 120.0
            },
            {
                "start_time": 92.98863636363636,
                "end_time": 93.34545454545454,
                "pitch": 71,
                "velocity": 64,
                "duration": 0.35681818181818414,
                "tempo": 120.0
            },
            {
                "start_time": 92.98863636363636,
                "end_time": 93.34545454545454,
                "pitch": 71,
                "velocity": 64,
                "duration": 0.35681818181818414,
                "tempo": 120.0
            },
            {
                "start_time": 93.34545454545454,
                "end_time": 93.70454545454545,
                "pitch": 68,
                "velocity": 64,
                "duration": 0.35909090909090935,
                "tempo": 120.0
            },
            {
                "start_time": 93.34545454545454,
                "end_time": 93.70454545454545,
                "pitch": 68,
                "velocity": 64,
                "duration": 0.35909090909090935,
                "tempo": 120.0
            },
            {
                "start_time": 83.29318181818181,
                "end_time": 93.70454545454545,
                "pitch": 79,
                "velocity": 64,
                "duration": 10.411363636363646,
                "tempo": 120.0
            },
            {
                "start_time": 93.70454545454545,
                "end_time": 93.94545454545454,
                "pitch": 66,
                "velocity": 64,
                "duration": 0.24090909090908497,
                "tempo": 120.0
            },
            {
                "start_time": 94.06590909090909,
                "end_time": 94.30454545454545,
                "pitch": 66,
                "velocity": 64,
                "duration": 0.23863636363635976,
                "tempo": 120.0
            },
            {
                "start_time": 88.68636363636364,
                "end_time": 94.425,
                "pitch": 45,
                "velocity": 64,
                "duration": 5.73863636363636,
                "tempo": 120.0
            },
            {
                "start_time": 94.30454545454545,
                "end_time": 94.425,
                "pitch": 66,
                "velocity": 64,
                "duration": 0.12045454545454959,
                "tempo": 120.0
            },
            {
                "start_time": 94.425,
                "end_time": 94.78636363636363,
                "pitch": 71,
                "velocity": 64,
                "duration": 0.36136363636363455,
                "tempo": 120.0
            },
            {
                "start_time": 90.47727272727272,
                "end_time": 95.14545454545454,
                "pitch": 57,
                "velocity": 64,
                "duration": 4.6681818181818215,
                "tempo": 120.0
            },
            {
                "start_time": 94.78636363636363,
                "end_time": 95.14545454545454,
                "pitch": 73,
                "velocity": 64,
                "duration": 0.35909090909090935,
                "tempo": 120.0
            },
            {
                "start_time": 95.14545454545454,
                "end_time": 97.77727272727272,
                "pitch": 71,
                "velocity": 64,
                "duration": 2.6318181818181756,
                "tempo": 120.0
            }
        ]
    }
}