{
    "track_id": "04 - Game de check! Koutsuu Anzen (FM) - Speed Sense",
    "mood": "happy",
    "instruments": {
        "Vibraphone": [
            {
                "start_time": 0.0,
                "end_time": 0.1659090909090909,
                "pitch": 70,
                "velocity": 64,
                "duration": 0.1659090909090909,
                "tempo": 120.0
            },
            {
                "start_time": 0.18409090909090908,
                "end_time": 0.37727272727272726,
                "pitch": 69,
                "velocity": 64,
                "duration": 0.19318181818181818,
                "tempo": 120.0
            },
            {
                "start_time": 0.39545454545454545,
                "end_time": 0.5886363636363636,
                "pitch": 70,
                "velocity": 64,
                "duration": 0.19318181818181818,
                "tempo": 120.0
            },
            {
                "start_time": 0.6068181818181818,
                "end_time": 1.6022727272727273,
                "pitch": 67,
                "velocity": 64,
                "duration": 0.9954545454545455,
                "tempo": 120.0
            },
            {
                "start_time": 1.6204545454545454,
                "end_time": 1.8136363636363635,
                "pitch": 67,
                "velocity": 64,
                "duration": 0.19318181818181812,
                "tempo": 120.0
            },
            {
                "start_time": 1.8295454545454544,
                "end_time": 2.0045454545454544,
                "pitch": 66,
                "velocity": 64,
                "duration": 0.17500000000000004,
                "tempo": 120.0
            },
            {
                "start_time": 2.0204545454545455,
                "end_time": 2.1954545454545453,
                "pitch": 67,
                "velocity": 64,
                "duration": 0.17499999999999982,
                "tempo": 120.0
            },
            {
                "start_time": 2.2113636363636364,
                "end_time": 3.2068181818181816,
                "pitch": 63,
                "velocity": 64,
                "duration": 0.9954545454545451,
                "tempo": 120.0
            },
            {
                "start_time": 3.2249999999999996,
                "end_time": 3.418181818181818,
                "pitch": 67,
                "velocity": 64,
                "duration": 0.19318181818181834,
                "tempo": 120.0
            },
            {
                "start_time": 3.436363636363636,
                "end_time": 3.6113636363636363,
                "pitch": 65,
                "velocity": 64,
                "duration": 0.17500000000000027,
                "tempo": 120.0
            },
            {
                "start_time": 3.627272727272727,
                "end_time": 3.8022727272727272,
                "pitch": 63,
                "velocity": 64,
                "duration": 0.17500000000000027,
                "tempo": 120.0
            },
            {
                "start_time": 3.818181818181818,
                "end_time": 4.8136363636363635,
                "pitch": 65,
                "velocity": 64,
                "duration": 0.9954545454545456,
                "tempo": 120.0
            },
            {
                "start_time": 4.831818181818182,
                "end_time": 5.0249999999999995,
                "pitch": 70,
                "velocity": 64,
                "duration": 0.19318181818181746,
                "tempo": 120.0
            },
            {
                "start_time": 5.040909090909091,
                "end_time": 5.215909090909091,
                "pitch": 72,
                "velocity": 64,
                "duration": 0.17499999999999982,
                "tempo": 120.0
            },
            {
                "start_time": 5.2318181818181815,
                "end_time": 5.406818181818181,
                "pitch": 70,
                "velocity": 64,
                "duration": 0.17499999999999982,
                "tempo": 120.0
            },
            {
                "start_time": 5.422727272727273,
                "end_time": 6.411363636363636,
                "pitch": 67,
                "velocity": 64,
                "duration": 0.9886363636363633,
                "tempo": 120.0
            },
            {
                "start_time": 6.427272727272727,
                "end_time": 6.611363636363636,
                "pitch": 70,
                "velocity": 64,
                "duration": 0.18409090909090953,
                "tempo": 120.0
            },
            {
                "start_time": 6.629545454545454,
                "end_time": 6.8181818181818175,
                "pitch": 72,
                "velocity": 64,
                "duration": 0.1886363636363635,
                "tempo": 120.0
            },
            {
                "start_time": 6.834090909090909,
                "end_time": 7.0227272727272725,
                "pitch": 74,
                "velocity": 64,
                "duration": 0.1886363636363635,
                "tempo": 120.0
            },
            {
                "start_time": 7.038636363636363,
                "end_time": 7.41590909090909,
                "pitch": 75,
                "velocity": 64,
                "duration": 0.377272727272727,
                "tempo": 120.0
            },
            {
                "start_time": 7.431818181818182,
                "end_time": 7.824999999999999,
                "pitch": 70,
                "velocity": 64,
                "duration": 0.39318181818181763,
                "tempo": 120.0
            },
            {
                "start_time": 7.840909090909091,
                "end_time": 8.218181818181817,
                "pitch": 67,
                "velocity": 64,
                "duration": 0.3772727272727261,
                "tempo": 120.0
            },
            {
                "start_time": 8.23409090909091,
                "end_time": 8.638636363636364,
                "pitch": 63,
                "velocity": 64,
                "duration": 0.4045454545454543,
                "tempo": 120.0
            },
            {
                "start_time": 8.654545454545454,
                "end_time": 9.634090909090908,
                "pitch": 72,
                "velocity": 64,
                "duration": 0.9795454545454536,
                "tempo": 120.0
            },
            {
                "start_time": 9.652272727272727,
                "end_time": 9.845454545454546,
                "pitch": 72,
                "velocity": 64,
                "duration": 0.19318181818181834,
                "tempo": 120.0
            },
            {
                "start_time": 9.861363636363636,
                "end_time": 10.036363636363635,
                "pitch": 74,
                "velocity": 64,
                "duration": 0.17499999999999893,
                "tempo": 120.0
            },
            {
                "start_time": 10.052272727272726,
                "end_time": 10.227272727272727,
                "pitch": 72,
                "velocity": 64,
                "duration": 0.1750000000000007,
                "tempo": 120.0
            },
            {
                "start_time": 10.243181818181817,
                "end_time": 10.636363636363637,
                "pitch": 70,
                "velocity": 64,
                "duration": 0.3931818181818194,
                "tempo": 120.0
            },
            {
                "start_time": 10.654545454545454,
                "end_time": 11.029545454545454,
                "pitch": 68,
                "velocity": 64,
                "duration": 0.375,
                "tempo": 120.0
            },
            {
                "start_time": 11.045454545454545,
                "end_time": 11.45,
                "pitch": 67,
                "velocity": 64,
                "duration": 0.4045454545454543,
                "tempo": 120.0
            },
            {
                "start_time": 11.468181818181817,
                "end_time": 11.854545454545454,
                "pitch": 65,
                "velocity": 64,
                "duration": 0.3863636363636367,
                "tempo": 120.0
            },
            {
                "start_time": 11.870454545454544,
                "end_time": 12.829545454545453,
                "pitch": 63,
                "velocity": 64,
                "duration": 0.959090909090909,
                "tempo": 120.0
            }
        ],
        "Acoustic Bass": [
            {
                "start_time": 0.6068181818181818,
                "end_time": 0.7954545454545454,
                "pitch": 51,
                "velocity": 51,
                "duration": 0.1886363636363636,
                "tempo": 120.0
            },
            {
                "start_time": 0.8113636363636363,
                "end_time": 0.8977272727272727,
                "pitch": 58,
                "velocity": 51,
                "duration": 0.08636363636363642,
                "tempo": 120.0
            },
            {
                "start_time": 0.9136363636363636,
                "end_time": 1.0,
                "pitch": 58,
                "velocity": 51,
                "duration": 0.08636363636363642,
                "tempo": 120.0
            },
            {
                "start_time": 1.0159090909090909,
                "end_time": 1.1977272727272728,
                "pitch": 51,
                "velocity": 51,
                "duration": 0.18181818181818188,
                "tempo": 120.0
            },
            {
                "start_time": 1.2136363636363636,
                "end_time": 1.393181818181818,
                "pitch": 58,
                "velocity": 51,
                "duration": 0.17954545454545445,
                "tempo": 120.0
            },
            {
                "start_time": 1.409090909090909,
                "end_time": 1.4613636363636362,
                "pitch": 51,
                "velocity": 51,
                "duration": 0.05227272727272725,
                "tempo": 120.0
            },
            {
                "start_time": 2.2113636363636364,
                "end_time": 2.4,
                "pitch": 51,
                "velocity": 51,
                "duration": 0.1886363636363635,
                "tempo": 120.0
            },
            {
                "start_time": 2.418181818181818,
                "end_time": 2.502272727272727,
                "pitch": 58,
                "velocity": 51,
                "duration": 0.084090909090909,
                "tempo": 120.0
            },
            {
                "start_time": 2.5204545454545455,
                "end_time": 2.6068181818181815,
                "pitch": 58,
                "velocity": 51,
                "duration": 0.08636363636363598,
                "tempo": 120.0
            },
            {
                "start_time": 2.6227272727272726,
                "end_time": 2.8022727272727272,
                "pitch": 51,
                "velocity": 51,
                "duration": 0.17954545454545467,
                "tempo": 120.0
            },
            {
                "start_time": 2.818181818181818,
                "end_time": 2.9977272727272726,
                "pitch": 58,
                "velocity": 51,
                "duration": 0.17954545454545467,
                "tempo": 120.0
            },
            {
                "start_time": 3.0136363636363637,
                "end_time": 3.065909090909091,
                "pitch": 51,
                "velocity": 51,
                "duration": 0.05227272727272725,
                "tempo": 120.0
            },
            {
                "start_time": 3.818181818181818,
                "end_time": 4.006818181818182,
                "pitch": 46,
                "velocity": 51,
                "duration": 0.18863636363636394,
                "tempo": 120.0
            },
            {
                "start_time": 4.0227272727272725,
                "end_time": 4.1090909090909085,
                "pitch": 53,
                "velocity": 51,
                "duration": 0.08636363636363598,
                "tempo": 120.0
            },
            {
                "start_time": 4.125,
                "end_time": 4.211363636363636,
                "pitch": 53,
                "velocity": 51,
                "duration": 0.08636363636363598,
                "tempo": 120.0
            },
            {
                "start_time": 4.227272727272727,
                "end_time": 4.406818181818181,
                "pitch": 46,
                "velocity": 51,
                "duration": 0.17954545454545467,
                "tempo": 120.0
            },
            {
                "start_time": 4.425,
                "end_time": 4.6045454545454545,
                "pitch": 50,
                "velocity": 51,
                "duration": 0.17954545454545467,
                "tempo": 120.0
            },
            {
                "start_time": 4.620454545454545,
                "end_time": 4.672727272727273,
                "pitch": 56,
                "velocity": 51,
                "duration": 0.05227272727272769,
                "tempo": 120.0
            },
            {
                "start_time": 5.422727272727273,
                "end_time": 5.611363636363636,
                "pitch": 51,
                "velocity": 51,
                "duration": 0.1886363636363635,
                "tempo": 120.0
            },
            {
                "start_time": 5.629545454545454,
                "end_time": 5.713636363636363,
                "pitch": 58,
                "velocity": 51,
                "duration": 0.084090909090909,
                "tempo": 120.0
            },
            {
                "start_time": 5.7318181818181815,
                "end_time": 5.818181818181818,
                "pitch": 58,
                "velocity": 51,
                "duration": 0.08636363636363686,
                "tempo": 120.0
            },
            {
                "start_time": 5.834090909090909,
                "end_time": 6.013636363636364,
                "pitch": 51,
                "velocity": 51,
                "duration": 0.17954545454545467,
                "tempo": 120.0
            },
            {
                "start_time": 6.029545454545454,
                "end_time": 6.209090909090909,
                "pitch": 58,
                "velocity": 51,
                "duration": 0.17954545454545467,
                "tempo": 120.0
            },
            {
                "start_time": 6.225,
                "end_time": 6.411363636363636,
                "pitch": 51,
                "velocity": 51,
                "duration": 0.1863636363636365,
                "tempo": 120.0
            },
            {
                "start_time": 6.427272727272727,
                "end_time": 6.611363636363636,
                "pitch": 58,
                "velocity": 51,
                "duration": 0.18409090909090953,
                "tempo": 120.0
            },
            {
                "start_time": 6.629545454545454,
                "end_time": 6.8181818181818175,
                "pitch": 57,
                "velocity": 51,
                "duration": 0.1886363636363635,
                "tempo": 120.0
            },
            {
                "start_time": 6.834090909090909,
                "end_time": 7.0227272727272725,
                "pitch": 56,
                "velocity": 51,
                "duration": 0.1886363636363635,
                "tempo": 120.0
            },
            {
                "start_time": 7.038636363636363,
                "end_time": 7.218181818181818,
                "pitch": 51,
                "velocity": 51,
                "duration": 0.17954545454545467,
                "tempo": 120.0
            },
            {
                "start_time": 7.236363636363636,
                "end_time": 7.3159090909090905,
                "pitch": 58,
                "velocity": 51,
                "duration": 0.07954545454545414,
                "tempo": 120.0
            },
            {
                "start_time": 7.334090909090909,
                "end_time": 7.41590909090909,
                "pitch": 58,
                "velocity": 51,
                "duration": 0.08181818181818112,
                "tempo": 120.0
            },
            {
                "start_time": 7.431818181818182,
                "end_time": 7.620454545454545,
                "pitch": 51,
                "velocity": 51,
                "duration": 0.1886363636363635,
                "tempo": 120.0
            },
            {
                "start_time": 7.636363636363636,
                "end_time": 7.824999999999999,
                "pitch": 58,
                "velocity": 51,
                "duration": 0.1886363636363635,
                "tempo": 120.0
            },
            {
                "start_time": 7.840909090909091,
                "end_time": 8.020454545454545,
                "pitch": 51,
                "velocity": 51,
                "duration": 0.1795454545454538,
                "tempo": 120.0
            },
            {
                "start_time": 8.038636363636364,
                "end_time": 8.218181818181817,
                "pitch": 55,
                "velocity": 51,
                "duration": 0.1795454545454529,
                "tempo": 120.0
            },
            {
                "start_time": 8.23409090909091,
                "end_time": 8.427272727272728,
                "pitch": 58,
                "velocity": 51,
                "duration": 0.19318181818181834,
                "tempo": 120.0
            },
            {
                "start_time": 8.445454545454545,
                "end_time": 8.638636363636364,
                "pitch": 61,
                "velocity": 51,
                "duration": 0.19318181818181834,
                "tempo": 120.0
            },
            {
                "start_time": 8.654545454545454,
                "end_time": 8.829545454545453,
                "pitch": 44,
                "velocity": 51,
                "duration": 0.17499999999999893,
                "tempo": 120.0
            },
            {
                "start_time": 8.845454545454546,
                "end_time": 8.861363636363636,
                "pitch": 48,
                "velocity": 51,
                "duration": 0.01590909090909065,
                "tempo": 120.0
            },
            {
                "start_time": 8.877272727272727,
                "end_time": 9.020454545454545,
                "pitch": 48,
                "velocity": 51,
                "duration": 0.14318181818181763,
                "tempo": 120.0
            },
            {
                "start_time": 9.038636363636364,
                "end_time": 9.222727272727273,
                "pitch": 51,
                "velocity": 51,
                "duration": 0.18409090909090864,
                "tempo": 120.0
            },
            {
                "start_time": 9.238636363636363,
                "end_time": 9.422727272727272,
                "pitch": 55,
                "velocity": 51,
                "duration": 0.18409090909090864,
                "tempo": 120.0
            },
            {
                "start_time": 9.44090909090909,
                "end_time": 9.527272727272727,
                "pitch": 56,
                "velocity": 51,
                "duration": 0.08636363636363775,
                "tempo": 120.0
            },
            {
                "start_time": 10.243181818181817,
                "end_time": 10.431818181818182,
                "pitch": 46,
                "velocity": 51,
                "duration": 0.18863636363636438,
                "tempo": 120.0
            },
            {
                "start_time": 10.45,
                "end_time": 10.636363636363637,
                "pitch": 58,
                "velocity": 51,
                "duration": 0.1863636363636374,
                "tempo": 120.0
            },
            {
                "start_time": 10.654545454545454,
                "end_time": 10.834090909090909,
                "pitch": 46,
                "velocity": 51,
                "duration": 0.17954545454545467,
                "tempo": 120.0
            },
            {
                "start_time": 10.85,
                "end_time": 10.931818181818182,
                "pitch": 59,
                "velocity": 51,
                "duration": 0.08181818181818201,
                "tempo": 120.0
            },
            {
                "start_time": 10.947727272727272,
                "end_time": 11.029545454545454,
                "pitch": 59,
                "velocity": 51,
                "duration": 0.08181818181818201,
                "tempo": 120.0
            },
            {
                "start_time": 11.045454545454545,
                "end_time": 11.238636363636363,
                "pitch": 46,
                "velocity": 51,
                "duration": 0.19318181818181834,
                "tempo": 120.0
            },
            {
                "start_time": 11.256818181818181,
                "end_time": 11.45,
                "pitch": 60,
                "velocity": 51,
                "duration": 0.19318181818181834,
                "tempo": 120.0
            },
            {
                "start_time": 11.468181818181817,
                "end_time": 11.652272727272727,
                "pitch": 46,
                "velocity": 51,
                "duration": 0.18409090909091042,
                "tempo": 120.0
            },
            {
                "start_time": 11.670454545454545,
                "end_time": 11.754545454545454,
                "pitch": 62,
                "velocity": 51,
                "duration": 0.084090909090909,
                "tempo": 120.0
            },
            {
                "start_time": 11.770454545454545,
                "end_time": 11.854545454545454,
                "pitch": 62,
                "velocity": 51,
                "duration": 0.084090909090909,
                "tempo": 120.0
            },
            {
                "start_time": 11.870454545454544,
                "end_time": 12.054545454545455,
                "pitch": 51,
                "velocity": 51,
                "duration": 0.18409090909091042,
                "tempo": 120.0
            },
            {
                "start_time": 12.070454545454545,
                "end_time": 12.254545454545454,
                "pitch": 58,
                "velocity": 51,
                "duration": 0.18409090909090864,
                "tempo": 120.0
            },
            {
                "start_time": 12.270454545454545,
                "end_time": 12.438636363636363,
                "pitch": 51,
                "velocity": 51,
                "duration": 0.168181818181818,
                "tempo": 120.0
            },
            {
                "start_time": 12.454545454545453,
                "end_time": 12.470454545454546,
                "pitch": 57,
                "velocity": 51,
                "duration": 0.015909090909092427,
                "tempo": 120.0
            },
            {
                "start_time": 12.486363636363636,
                "end_time": 12.625,
                "pitch": 57,
                "velocity": 51,
                "duration": 0.13863636363636367,
                "tempo": 120.0
            },
            {
                "start_time": 12.64090909090909,
                "end_time": 12.829545454545453,
                "pitch": 63,
                "velocity": 51,
                "duration": 0.1886363636363626,
                "tempo": 120.0
            }
        ],
        "Clarinet": [
            {
                "start_time": 0.8113636363636363,
                "end_time": 0.8295454545454545,
                "pitch": 74,
                "velocity": 40,
                "duration": 0.018181818181818188,
                "tempo": 120.0
            },
            {
                "start_time": 0.8454545454545455,
                "end_time": 1.1977272727272728,
                "pitch": 75,
                "velocity": 40,
                "duration": 0.3522727272727273,
                "tempo": 120.0
            },
            {
                "start_time": 1.2136363636363636,
                "end_time": 1.2295454545454545,
                "pitch": 74,
                "velocity": 40,
                "duration": 0.015909090909090873,
                "tempo": 120.0
            },
            {
                "start_time": 1.2454545454545454,
                "end_time": 1.393181818181818,
                "pitch": 75,
                "velocity": 40,
                "duration": 0.1477272727272727,
                "tempo": 120.0
            },
            {
                "start_time": 1.409090909090909,
                "end_time": 1.4249999999999998,
                "pitch": 74,
                "velocity": 40,
                "duration": 0.015909090909090873,
                "tempo": 120.0
            },
            {
                "start_time": 1.4431818181818181,
                "end_time": 2.4,
                "pitch": 75,
                "velocity": 40,
                "duration": 0.9568181818181818,
                "tempo": 120.0
            },
            {
                "start_time": 2.418181818181818,
                "end_time": 2.434090909090909,
                "pitch": 78,
                "velocity": 40,
                "duration": 0.015909090909091095,
                "tempo": 120.0
            },
            {
                "start_time": 2.452272727272727,
                "end_time": 2.8022727272727272,
                "pitch": 79,
                "velocity": 40,
                "duration": 0.3500000000000001,
                "tempo": 120.0
            },
            {
                "start_time": 2.818181818181818,
                "end_time": 2.834090909090909,
                "pitch": 78,
                "velocity": 40,
                "duration": 0.015909090909091095,
                "tempo": 120.0
            },
            {
                "start_time": 2.852272727272727,
                "end_time": 2.9977272727272726,
                "pitch": 79,
                "velocity": 40,
                "duration": 0.1454545454545455,
                "tempo": 120.0
            },
            {
                "start_time": 3.0136363636363637,
                "end_time": 3.0318181818181817,
                "pitch": 78,
                "velocity": 40,
                "duration": 0.018181818181818077,
                "tempo": 120.0
            },
            {
                "start_time": 3.05,
                "end_time": 4.006818181818182,
                "pitch": 79,
                "velocity": 40,
                "duration": 0.956818181818182,
                "tempo": 120.0
            },
            {
                "start_time": 4.0227272727272725,
                "end_time": 4.040909090909091,
                "pitch": 79,
                "velocity": 40,
                "duration": 0.01818181818181852,
                "tempo": 120.0
            },
            {
                "start_time": 4.056818181818182,
                "end_time": 4.406818181818181,
                "pitch": 80,
                "velocity": 40,
                "duration": 0.34999999999999964,
                "tempo": 120.0
            },
            {
                "start_time": 4.425,
                "end_time": 4.4409090909090905,
                "pitch": 79,
                "velocity": 40,
                "duration": 0.01590909090909065,
                "tempo": 120.0
            },
            {
                "start_time": 4.456818181818182,
                "end_time": 4.6045454545454545,
                "pitch": 80,
                "velocity": 40,
                "duration": 0.14772727272727249,
                "tempo": 120.0
            },
            {
                "start_time": 4.620454545454545,
                "end_time": 4.636363636363636,
                "pitch": 79,
                "velocity": 40,
                "duration": 0.01590909090909065,
                "tempo": 120.0
            },
            {
                "start_time": 4.654545454545454,
                "end_time": 5.611363636363636,
                "pitch": 80,
                "velocity": 40,
                "duration": 0.956818181818182,
                "tempo": 120.0
            },
            {
                "start_time": 5.629545454545454,
                "end_time": 5.6454545454545455,
                "pitch": 81,
                "velocity": 40,
                "duration": 0.01590909090909154,
                "tempo": 120.0
            },
            {
                "start_time": 5.663636363636363,
                "end_time": 6.013636363636364,
                "pitch": 82,
                "velocity": 40,
                "duration": 0.35000000000000053,
                "tempo": 120.0
            },
            {
                "start_time": 6.029545454545454,
                "end_time": 6.045454545454545,
                "pitch": 81,
                "velocity": 40,
                "duration": 0.01590909090909065,
                "tempo": 120.0
            },
            {
                "start_time": 6.0613636363636365,
                "end_time": 6.209090909090909,
                "pitch": 82,
                "velocity": 40,
                "duration": 0.14772727272727249,
                "tempo": 120.0
            },
            {
                "start_time": 6.225,
                "end_time": 6.243181818181818,
                "pitch": 81,
                "velocity": 40,
                "duration": 0.01818181818181852,
                "tempo": 120.0
            },
            {
                "start_time": 6.259090909090909,
                "end_time": 7.0227272727272725,
                "pitch": 82,
                "velocity": 40,
                "duration": 0.7636363636363637,
                "tempo": 120.0
            },
            {
                "start_time": 7.038636363636363,
                "end_time": 7.218181818181818,
                "pitch": 82,
                "velocity": 40,
                "duration": 0.17954545454545467,
                "tempo": 120.0
            },
            {
                "start_time": 7.236363636363636,
                "end_time": 7.41590909090909,
                "pitch": 80,
                "velocity": 40,
                "duration": 0.1795454545454538,
                "tempo": 120.0
            },
            {
                "start_time": 7.431818181818182,
                "end_time": 7.620454545454545,
                "pitch": 79,
                "velocity": 40,
                "duration": 0.1886363636363635,
                "tempo": 120.0
            },
            {
                "start_time": 7.636363636363636,
                "end_time": 8.020454545454545,
                "pitch": 77,
                "velocity": 40,
                "duration": 0.3840909090909088,
                "tempo": 120.0
            },
            {
                "start_time": 8.038636363636364,
                "end_time": 8.218181818181817,
                "pitch": 75,
                "velocity": 40,
                "duration": 0.1795454545454529,
                "tempo": 120.0
            },
            {
                "start_time": 8.23409090909091,
                "end_time": 8.427272727272728,
                "pitch": 77,
                "velocity": 40,
                "duration": 0.19318181818181834,
                "tempo": 120.0
            },
            {
                "start_time": 8.445454545454545,
                "end_time": 8.829545454545453,
                "pitch": 79,
                "velocity": 40,
                "duration": 0.38409090909090793,
                "tempo": 120.0
            },
            {
                "start_time": 8.845454545454546,
                "end_time": 8.861363636363636,
                "pitch": 79,
                "velocity": 40,
                "duration": 0.01590909090909065,
                "tempo": 120.0
            },
            {
                "start_time": 8.877272727272727,
                "end_time": 9.222727272727273,
                "pitch": 80,
                "velocity": 40,
                "duration": 0.3454545454545457,
                "tempo": 120.0
            },
            {
                "start_time": 9.238636363636363,
                "end_time": 9.254545454545454,
                "pitch": 79,
                "velocity": 40,
                "duration": 0.01590909090909065,
                "tempo": 120.0
            },
            {
                "start_time": 9.272727272727272,
                "end_time": 9.422727272727272,
                "pitch": 80,
                "velocity": 40,
                "duration": 0.15000000000000036,
                "tempo": 120.0
            },
            {
                "start_time": 9.44090909090909,
                "end_time": 9.456818181818182,
                "pitch": 79,
                "velocity": 40,
                "duration": 0.015909090909092427,
                "tempo": 120.0
            },
            {
                "start_time": 9.475,
                "end_time": 10.227272727272727,
                "pitch": 80,
                "velocity": 40,
                "duration": 0.752272727272727,
                "tempo": 120.0
            },
            {
                "start_time": 10.243181818181817,
                "end_time": 11.029545454545454,
                "pitch": 80,
                "velocity": 40,
                "duration": 0.786363636363637,
                "tempo": 120.0
            },
            {
                "start_time": 11.045454545454545,
                "end_time": 11.45,
                "pitch": 82,
                "velocity": 40,
                "duration": 0.4045454545454543,
                "tempo": 120.0
            },
            {
                "start_time": 11.468181818181817,
                "end_time": 11.854545454545454,
                "pitch": 80,
                "velocity": 40,
                "duration": 0.3863636363636367,
                "tempo": 120.0
            },
            {
                "start_time": 11.870454545454544,
                "end_time": 12.054545454545455,
                "pitch": 79,
                "velocity": 40,
                "duration": 0.18409090909091042,
                "tempo": 120.0
            },
            {
                "start_time": 12.070454545454545,
                "end_time": 12.829545454545453,
                "pitch": 75,
                "velocity": 40,
                "duration": 0.7590909090909079,
                "tempo": 120.0
            }
        ]
    }
}