{
    "track_id": "04 Interlude",
    "mood": "happy",
    "instruments": {
        "Electric Guitar (clean)": [
            {
                "start_time": 0.03636363636363636,
                "end_time": 0.16363636363636364,
                "pitch": 48,
                "velocity": 64,
                "duration": 0.12727272727272726,
                "tempo": 120.0
            },
            {
                "start_time": 0.16363636363636364,
                "end_time": 0.2954545454545454,
                "pitch": 36,
                "velocity": 64,
                "duration": 0.13181818181818178,
                "tempo": 120.0
            },
            {
                "start_time": 0.29772727272727273,
                "end_time": 0.4295454545454545,
                "pitch": 36,
                "velocity": 64,
                "duration": 0.13181818181818178,
                "tempo": 120.0
            },
            {
                "start_time": 0.4295454545454545,
                "end_time": 0.5636363636363636,
                "pitch": 36,
                "velocity": 64,
                "duration": 0.1340909090909091,
                "tempo": 120.0
            },
            {
                "start_time": 0.5659090909090909,
                "end_time": 0.8409090909090908,
                "pitch": 43,
                "velocity": 64,
                "duration": 0.2749999999999999,
                "tempo": 120.0
            },
            {
                "start_time": 0.8409090909090908,
                "end_time": 0.9795454545454545,
                "pitch": 48,
                "velocity": 64,
                "duration": 0.13863636363636367,
                "tempo": 120.0
            },
            {
                "start_time": 0.9818181818181818,
                "end_time": 1.1181818181818182,
                "pitch": 36,
                "velocity": 64,
                "duration": 0.13636363636363635,
                "tempo": 120.0
            },
            {
                "start_time": 1.1181818181818182,
                "end_time": 1.2522727272727272,
                "pitch": 36,
                "velocity": 64,
                "duration": 0.13409090909090904,
                "tempo": 120.0
            },
            {
                "start_time": 1.2522727272727272,
                "end_time": 1.3863636363636362,
                "pitch": 36,
                "velocity": 64,
                "duration": 0.13409090909090904,
                "tempo": 120.0
            },
            {
                "start_time": 1.3863636363636362,
                "end_time": 1.6522727272727271,
                "pitch": 43,
                "velocity": 64,
                "duration": 0.2659090909090909,
                "tempo": 120.0
            },
            {
                "start_time": 1.6545454545454545,
                "end_time": 1.7886363636363636,
                "pitch": 48,
                "velocity": 64,
                "duration": 0.13409090909090904,
                "tempo": 120.0
            },
            {
                "start_time": 1.7886363636363636,
                "end_time": 1.9204545454545454,
                "pitch": 36,
                "velocity": 64,
                "duration": 0.13181818181818183,
                "tempo": 120.0
            },
            {
                "start_time": 1.9227272727272726,
                "end_time": 2.0545454545454542,
                "pitch": 36,
                "velocity": 64,
                "duration": 0.1318181818181816,
                "tempo": 120.0
            },
            {
                "start_time": 2.0545454545454542,
                "end_time": 2.1886363636363635,
                "pitch": 36,
                "velocity": 64,
                "duration": 0.13409090909090926,
                "tempo": 120.0
            },
            {
                "start_time": 2.1886363636363635,
                "end_time": 2.4613636363636364,
                "pitch": 43,
                "velocity": 64,
                "duration": 0.27272727272727293,
                "tempo": 120.0
            },
            {
                "start_time": 2.4613636363636364,
                "end_time": 2.5977272727272727,
                "pitch": 48,
                "velocity": 64,
                "duration": 0.13636363636363624,
                "tempo": 120.0
            },
            {
                "start_time": 2.5977272727272727,
                "end_time": 2.7363636363636363,
                "pitch": 36,
                "velocity": 64,
                "duration": 0.13863636363636367,
                "tempo": 120.0
            },
            {
                "start_time": 2.7363636363636363,
                "end_time": 2.868181818181818,
                "pitch": 36,
                "velocity": 64,
                "duration": 0.13181818181818183,
                "tempo": 120.0
            },
            {
                "start_time": 2.868181818181818,
                "end_time": 3.002272727272727,
                "pitch": 36,
                "velocity": 64,
                "duration": 0.13409090909090882,
                "tempo": 120.0
            },
            {
                "start_time": 3.0045454545454544,
                "end_time": 3.2704545454545455,
                "pitch": 43,
                "velocity": 64,
                "duration": 0.2659090909090911,
                "tempo": 120.0
            },
            {
                "start_time": 3.2704545454545455,
                "end_time": 3.4045454545454543,
                "pitch": 48,
                "velocity": 64,
                "duration": 0.13409090909090882,
                "tempo": 120.0
            },
            {
                "start_time": 3.4068181818181817,
                "end_time": 3.5409090909090906,
                "pitch": 36,
                "velocity": 64,
                "duration": 0.13409090909090882,
                "tempo": 120.0
            },
            {
                "start_time": 3.5409090909090906,
                "end_time": 3.6772727272727272,
                "pitch": 36,
                "velocity": 64,
                "duration": 0.1363636363636367,
                "tempo": 120.0
            },
            {
                "start_time": 3.6772727272727272,
                "end_time": 3.8136363636363635,
                "pitch": 36,
                "velocity": 64,
                "duration": 0.13636363636363624,
                "tempo": 120.0
            },
            {
                "start_time": 3.8136363636363635,
                "end_time": 4.079545454545454,
                "pitch": 43,
                "velocity": 64,
                "duration": 0.26590909090909065,
                "tempo": 120.0
            },
            {
                "start_time": 4.081818181818182,
                "end_time": 4.213636363636364,
                "pitch": 48,
                "velocity": 64,
                "duration": 0.13181818181818183,
                "tempo": 120.0
            },
            {
                "start_time": 4.215909090909091,
                "end_time": 4.347727272727273,
                "pitch": 36,
                "velocity": 64,
                "duration": 0.13181818181818183,
                "tempo": 120.0
            },
            {
                "start_time": 4.347727272727273,
                "end_time": 4.4818181818181815,
                "pitch": 36,
                "velocity": 64,
                "duration": 0.13409090909090882,
                "tempo": 120.0
            },
            {
                "start_time": 4.4818181818181815,
                "end_time": 4.61590909090909,
                "pitch": 36,
                "velocity": 64,
                "duration": 0.13409090909090882,
                "tempo": 120.0
            },
            {
                "start_time": 4.61590909090909,
                "end_time": 4.881818181818182,
                "pitch": 43,
                "velocity": 64,
                "duration": 0.26590909090909154,
                "tempo": 120.0
            },
            {
                "start_time": 4.884090909090909,
                "end_time": 5.0204545454545455,
                "pitch": 48,
                "velocity": 64,
                "duration": 0.1363636363636367,
                "tempo": 120.0
            },
            {
                "start_time": 5.0204545454545455,
                "end_time": 5.154545454545454,
                "pitch": 36,
                "velocity": 64,
                "duration": 0.13409090909090882,
                "tempo": 120.0
            },
            {
                "start_time": 5.156818181818181,
                "end_time": 5.290909090909091,
                "pitch": 36,
                "velocity": 64,
                "duration": 0.1340909090909097,
                "tempo": 120.0
            },
            {
                "start_time": 5.293181818181818,
                "end_time": 5.427272727272727,
                "pitch": 36,
                "velocity": 64,
                "duration": 0.13409090909090882,
                "tempo": 120.0
            },
            {
                "start_time": 5.429545454545455,
                "end_time": 5.695454545454545,
                "pitch": 43,
                "velocity": 64,
                "duration": 0.26590909090909065,
                "tempo": 120.0
            },
            {
                "start_time": 5.695454545454545,
                "end_time": 5.829545454545454,
                "pitch": 48,
                "velocity": 64,
                "duration": 0.13409090909090882,
                "tempo": 120.0
            },
            {
                "start_time": 5.829545454545454,
                "end_time": 5.965909090909091,
                "pitch": 36,
                "velocity": 64,
                "duration": 0.1363636363636367,
                "tempo": 120.0
            },
            {
                "start_time": 5.965909090909091,
                "end_time": 6.1,
                "pitch": 36,
                "velocity": 64,
                "duration": 0.13409090909090882,
                "tempo": 120.0
            },
            {
                "start_time": 6.1,
                "end_time": 6.236363636363636,
                "pitch": 36,
                "velocity": 64,
                "duration": 0.1363636363636367,
                "tempo": 120.0
            },
            {
                "start_time": 6.238636363636363,
                "end_time": 6.509090909090909,
                "pitch": 43,
                "velocity": 64,
                "duration": 0.2704545454545455,
                "tempo": 120.0
            },
            {
                "start_time": 6.511363636363636,
                "end_time": 6.640909090909091,
                "pitch": 48,
                "velocity": 64,
                "duration": 0.12954545454545485,
                "tempo": 120.0
            },
            {
                "start_time": 6.643181818181818,
                "end_time": 6.7749999999999995,
                "pitch": 36,
                "velocity": 64,
                "duration": 0.13181818181818183,
                "tempo": 120.0
            },
            {
                "start_time": 6.7749999999999995,
                "end_time": 6.909090909090909,
                "pitch": 36,
                "velocity": 64,
                "duration": 0.1340909090909097,
                "tempo": 120.0
            },
            {
                "start_time": 6.909090909090909,
                "end_time": 7.043181818181818,
                "pitch": 36,
                "velocity": 64,
                "duration": 0.13409090909090882,
                "tempo": 120.0
            },
            {
                "start_time": 7.043181818181818,
                "end_time": 7.3136363636363635,
                "pitch": 43,
                "velocity": 64,
                "duration": 0.2704545454545455,
                "tempo": 120.0
            },
            {
                "start_time": 7.3159090909090905,
                "end_time": 7.449999999999999,
                "pitch": 48,
                "velocity": 64,
                "duration": 0.13409090909090882,
                "tempo": 120.0
            },
            {
                "start_time": 7.452272727272727,
                "end_time": 7.586363636363636,
                "pitch": 36,
                "velocity": 64,
                "duration": 0.13409090909090882,
                "tempo": 120.0
            },
            {
                "start_time": 7.588636363636363,
                "end_time": 7.720454545454545,
                "pitch": 36,
                "velocity": 64,
                "duration": 0.13181818181818183,
                "tempo": 120.0
            },
            {
                "start_time": 7.722727272727273,
                "end_time": 7.8545454545454545,
                "pitch": 36,
                "velocity": 64,
                "duration": 0.13181818181818183,
                "tempo": 120.0
            },
            {
                "start_time": 7.8545454545454545,
                "end_time": 8.122727272727273,
                "pitch": 43,
                "velocity": 64,
                "duration": 0.2681818181818185,
                "tempo": 120.0
            },
            {
                "start_time": 8.122727272727273,
                "end_time": 8.256818181818181,
                "pitch": 48,
                "velocity": 64,
                "duration": 0.13409090909090793,
                "tempo": 120.0
            },
            {
                "start_time": 8.256818181818181,
                "end_time": 8.39090909090909,
                "pitch": 36,
                "velocity": 64,
                "duration": 0.1340909090909097,
                "tempo": 120.0
            },
            {
                "start_time": 8.39090909090909,
                "end_time": 8.522727272727272,
                "pitch": 36,
                "velocity": 64,
                "duration": 0.13181818181818095,
                "tempo": 120.0
            },
            {
                "start_time": 8.525,
                "end_time": 8.656818181818181,
                "pitch": 36,
                "velocity": 64,
                "duration": 0.13181818181818095,
                "tempo": 120.0
            },
            {
                "start_time": 8.659090909090908,
                "end_time": 8.929545454545455,
                "pitch": 43,
                "velocity": 64,
                "duration": 0.2704545454545464,
                "tempo": 120.0
            },
            {
                "start_time": 8.929545454545455,
                "end_time": 9.06590909090909,
                "pitch": 48,
                "velocity": 64,
                "duration": 0.1363636363636349,
                "tempo": 120.0
            },
            {
                "start_time": 9.06590909090909,
                "end_time": 9.204545454545453,
                "pitch": 36,
                "velocity": 64,
                "duration": 0.13863636363636367,
                "tempo": 120.0
            },
            {
                "start_time": 9.204545454545453,
                "end_time": 9.336363636363636,
                "pitch": 36,
                "velocity": 64,
                "duration": 0.13181818181818272,
                "tempo": 120.0
            },
            {
                "start_time": 9.336363636363636,
                "end_time": 9.470454545454546,
                "pitch": 36,
                "velocity": 64,
                "duration": 0.1340909090909097,
                "tempo": 120.0
            },
            {
                "start_time": 9.472727272727273,
                "end_time": 9.738636363636363,
                "pitch": 43,
                "velocity": 64,
                "duration": 0.26590909090909065,
                "tempo": 120.0
            },
            {
                "start_time": 9.74090909090909,
                "end_time": 9.870454545454544,
                "pitch": 48,
                "velocity": 64,
                "duration": 0.12954545454545396,
                "tempo": 120.0
            },
            {
                "start_time": 9.872727272727273,
                "end_time": 10.004545454545454,
                "pitch": 36,
                "velocity": 64,
                "duration": 0.13181818181818095,
                "tempo": 120.0
            },
            {
                "start_time": 10.004545454545454,
                "end_time": 10.138636363636364,
                "pitch": 36,
                "velocity": 64,
                "duration": 0.1340909090909097,
                "tempo": 120.0
            },
            {
                "start_time": 10.138636363636364,
                "end_time": 10.272727272727272,
                "pitch": 36,
                "velocity": 64,
                "duration": 0.13409090909090793,
                "tempo": 120.0
            },
            {
                "start_time": 10.272727272727272,
                "end_time": 10.543181818181818,
                "pitch": 41,
                "velocity": 64,
                "duration": 0.2704545454545464,
                "tempo": 120.0
            },
            {
                "start_time": 10.545454545454545,
                "end_time": 10.679545454545455,
                "pitch": 48,
                "velocity": 64,
                "duration": 0.1340909090909097,
                "tempo": 120.0
            },
            {
                "start_time": 10.681818181818182,
                "end_time": 10.81590909090909,
                "pitch": 36,
                "velocity": 64,
                "duration": 0.13409090909090793,
                "tempo": 120.0
            },
            {
                "start_time": 10.818181818181818,
                "end_time": 10.95,
                "pitch": 36,
                "velocity": 64,
                "duration": 0.13181818181818095,
                "tempo": 120.0
            },
            {
                "start_time": 10.952272727272726,
                "end_time": 11.084090909090909,
                "pitch": 36,
                "velocity": 64,
                "duration": 0.13181818181818272,
                "tempo": 120.0
            },
            {
                "start_time": 11.084090909090909,
                "end_time": 11.354545454545454,
                "pitch": 41,
                "velocity": 64,
                "duration": 0.2704545454545446,
                "tempo": 120.0
            },
            {
                "start_time": 11.354545454545454,
                "end_time": 11.486363636363636,
                "pitch": 48,
                "velocity": 64,
                "duration": 0.13181818181818272,
                "tempo": 120.0
            },
            {
                "start_time": 11.486363636363636,
                "end_time": 11.620454545454544,
                "pitch": 36,
                "velocity": 64,
                "duration": 0.13409090909090793,
                "tempo": 120.0
            },
            {
                "start_time": 11.620454545454544,
                "end_time": 11.752272727272727,
                "pitch": 36,
                "velocity": 64,
                "duration": 0.13181818181818272,
                "tempo": 120.0
            },
            {
                "start_time": 11.754545454545454,
                "end_time": 11.886363636363635,
                "pitch": 36,
                "velocity": 64,
                "duration": 0.13181818181818095,
                "tempo": 120.0
            },
            {
                "start_time": 11.888636363636364,
                "end_time": 12.161363636363635,
                "pitch": 41,
                "velocity": 64,
                "duration": 0.2727272727272716,
                "tempo": 120.0
            },
            {
                "start_time": 12.161363636363635,
                "end_time": 12.295454545454545,
                "pitch": 48,
                "velocity": 64,
                "duration": 0.1340909090909097,
                "tempo": 120.0
            },
            {
                "start_time": 12.295454545454545,
                "end_time": 12.431818181818182,
                "pitch": 36,
                "velocity": 64,
                "duration": 0.1363636363636367,
                "tempo": 120.0
            },
            {
                "start_time": 12.431818181818182,
                "end_time": 12.56590909090909,
                "pitch": 48,
                "velocity": 64,
                "duration": 0.13409090909090793,
                "tempo": 120.0
            },
            {
                "start_time": 12.56590909090909,
                "end_time": 12.7,
                "pitch": 36,
                "velocity": 64,
                "duration": 0.1340909090909097,
                "tempo": 120.0
            },
            {
                "start_time": 12.7,
                "end_time": 12.834090909090909,
                "pitch": 41,
                "velocity": 64,
                "duration": 0.1340909090909097,
                "tempo": 120.0
            },
            {
                "start_time": 12.834090909090909,
                "end_time": 12.970454545454546,
                "pitch": 45,
                "velocity": 64,
                "duration": 0.1363636363636367,
                "tempo": 120.0
            },
            {
                "start_time": 12.970454545454546,
                "end_time": 13.104545454545454,
                "pitch": 48,
                "velocity": 64,
                "duration": 0.13409090909090793,
                "tempo": 120.0
            },
            {
                "start_time": 13.104545454545454,
                "end_time": 13.238636363636363,
                "pitch": 36,
                "velocity": 64,
                "duration": 0.1340909090909097,
                "tempo": 120.0
            },
            {
                "start_time": 13.24090909090909,
                "end_time": 13.375,
                "pitch": 36,
                "velocity": 64,
                "duration": 0.1340909090909097,
                "tempo": 120.0
            },
            {
                "start_time": 13.377272727272727,
                "end_time": 13.511363636363635,
                "pitch": 36,
                "velocity": 64,
                "duration": 0.13409090909090793,
                "tempo": 120.0
            },
            {
                "start_time": 13.513636363636364,
                "end_time": 13.779545454545454,
                "pitch": 43,
                "velocity": 64,
                "duration": 0.26590909090909065,
                "tempo": 120.0
            },
            {
                "start_time": 13.779545454545454,
                "end_time": 13.913636363636362,
                "pitch": 48,
                "velocity": 64,
                "duration": 0.13409090909090793,
                "tempo": 120.0
            },
            {
                "start_time": 13.913636363636362,
                "end_time": 14.047727272727272,
                "pitch": 36,
                "velocity": 64,
                "duration": 0.1340909090909097,
                "tempo": 120.0
            },
            {
                "start_time": 14.047727272727272,
                "end_time": 14.184090909090909,
                "pitch": 36,
                "velocity": 64,
                "duration": 0.1363636363636367,
                "tempo": 120.0
            },
            {
                "start_time": 14.184090909090909,
                "end_time": 14.320454545454545,
                "pitch": 36,
                "velocity": 64,
                "duration": 0.1363636363636367,
                "tempo": 120.0
            },
            {
                "start_time": 14.320454545454545,
                "end_time": 14.593181818181817,
                "pitch": 43,
                "velocity": 64,
                "duration": 0.2727272727272716,
                "tempo": 120.0
            },
            {
                "start_time": 14.593181818181817,
                "end_time": 14.727272727272727,
                "pitch": 48,
                "velocity": 64,
                "duration": 0.1340909090909097,
                "tempo": 120.0
            },
            {
                "start_time": 14.727272727272727,
                "end_time": 14.861363636363636,
                "pitch": 36,
                "velocity": 64,
                "duration": 0.1340909090909097,
                "tempo": 120.0
            },
            {
                "start_time": 14.861363636363636,
                "end_time": 14.993181818181817,
                "pitch": 36,
                "velocity": 64,
                "duration": 0.13181818181818095,
                "tempo": 120.0
            },
            {
                "start_time": 14.995454545454544,
                "end_time": 15.127272727272727,
                "pitch": 36,
                "velocity": 64,
                "duration": 0.13181818181818272,
                "tempo": 120.0
            },
            {
                "start_time": 15.129545454545454,
                "end_time": 15.399999999999999,
                "pitch": 43,
                "velocity": 64,
                "duration": 0.2704545454545446,
                "tempo": 120.0
            },
            {
                "start_time": 15.399999999999999,
                "end_time": 15.536363636363635,
                "pitch": 48,
                "velocity": 64,
                "duration": 0.1363636363636367,
                "tempo": 120.0
            },
            {
                "start_time": 15.536363636363635,
                "end_time": 15.674999999999999,
                "pitch": 36,
                "velocity": 64,
                "duration": 0.13863636363636367,
                "tempo": 120.0
            },
            {
                "start_time": 15.674999999999999,
                "end_time": 15.806818181818182,
                "pitch": 36,
                "velocity": 64,
                "duration": 0.13181818181818272,
                "tempo": 120.0
            },
            {
                "start_time": 15.806818181818182,
                "end_time": 15.943181818181817,
                "pitch": 36,
                "velocity": 64,
                "duration": 0.1363636363636349,
                "tempo": 120.0
            },
            {
                "start_time": 15.943181818181817,
                "end_time": 16.209090909090907,
                "pitch": 43,
                "velocity": 64,
                "duration": 0.26590909090909065,
                "tempo": 120.0
            },
            {
                "start_time": 16.211363636363636,
                "end_time": 16.34090909090909,
                "pitch": 48,
                "velocity": 64,
                "duration": 0.12954545454545396,
                "tempo": 120.0
            },
            {
                "start_time": 16.34318181818182,
                "end_time": 16.474999999999998,
                "pitch": 36,
                "velocity": 64,
                "duration": 0.13181818181817917,
                "tempo": 120.0
            },
            {
                "start_time": 16.474999999999998,
                "end_time": 16.60909090909091,
                "pitch": 36,
                "velocity": 64,
                "duration": 0.13409090909091148,
                "tempo": 120.0
            },
            {
                "start_time": 16.60909090909091,
                "end_time": 16.743181818181817,
                "pitch": 36,
                "velocity": 64,
                "duration": 0.13409090909090793,
                "tempo": 120.0
            },
            {
                "start_time": 16.743181818181817,
                "end_time": 17.01590909090909,
                "pitch": 43,
                "velocity": 64,
                "duration": 0.2727272727272734,
                "tempo": 120.0
            },
            {
                "start_time": 17.01590909090909,
                "end_time": 17.15,
                "pitch": 48,
                "velocity": 64,
                "duration": 0.13409090909090793,
                "tempo": 120.0
            },
            {
                "start_time": 17.152272727272727,
                "end_time": 17.288636363636364,
                "pitch": 36,
                "velocity": 64,
                "duration": 0.1363636363636367,
                "tempo": 120.0
            },
            {
                "start_time": 17.288636363636364,
                "end_time": 17.420454545454543,
                "pitch": 36,
                "velocity": 64,
                "duration": 0.13181818181817917,
                "tempo": 120.0
            },
            {
                "start_time": 17.422727272727272,
                "end_time": 17.554545454545455,
                "pitch": 36,
                "velocity": 64,
                "duration": 0.13181818181818272,
                "tempo": 120.0
            },
            {
                "start_time": 17.55681818181818,
                "end_time": 17.82272727272727,
                "pitch": 43,
                "velocity": 64,
                "duration": 0.26590909090909065,
                "tempo": 120.0
            },
            {
                "start_time": 17.82272727272727,
                "end_time": 17.956818181818182,
                "pitch": 48,
                "velocity": 64,
                "duration": 0.13409090909091148,
                "tempo": 120.0
            },
            {
                "start_time": 17.956818181818182,
                "end_time": 18.09090909090909,
                "pitch": 36,
                "velocity": 64,
                "duration": 0.13409090909090793,
                "tempo": 120.0
            },
            {
                "start_time": 18.09090909090909,
                "end_time": 18.222727272727273,
                "pitch": 36,
                "velocity": 64,
                "duration": 0.13181818181818272,
                "tempo": 120.0
            },
            {
                "start_time": 18.224999999999998,
                "end_time": 18.35681818181818,
                "pitch": 36,
                "velocity": 64,
                "duration": 0.13181818181818272,
                "tempo": 120.0
            },
            {
                "start_time": 18.35909090909091,
                "end_time": 18.629545454545454,
                "pitch": 43,
                "velocity": 64,
                "duration": 0.2704545454545446,
                "tempo": 120.0
            },
            {
                "start_time": 18.63181818181818,
                "end_time": 18.76590909090909,
                "pitch": 48,
                "velocity": 64,
                "duration": 0.13409090909091148,
                "tempo": 120.0
            },
            {
                "start_time": 18.76590909090909,
                "end_time": 18.904545454545453,
                "pitch": 36,
                "velocity": 64,
                "duration": 0.1386363636363619,
                "tempo": 120.0
            },
            {
                "start_time": 18.904545454545453,
                "end_time": 19.036363636363635,
                "pitch": 36,
                "velocity": 64,
                "duration": 0.13181818181818272,
                "tempo": 120.0
            },
            {
                "start_time": 19.036363636363635,
                "end_time": 19.172727272727272,
                "pitch": 36,
                "velocity": 64,
                "duration": 0.1363636363636367,
                "tempo": 120.0
            },
            {
                "start_time": 19.172727272727272,
                "end_time": 19.438636363636363,
                "pitch": 43,
                "velocity": 64,
                "duration": 0.26590909090909065,
                "tempo": 120.0
            },
            {
                "start_time": 19.44090909090909,
                "end_time": 19.575,
                "pitch": 48,
                "velocity": 64,
                "duration": 0.13409090909090793,
                "tempo": 120.0
            },
            {
                "start_time": 19.575,
                "end_time": 19.709090909090907,
                "pitch": 36,
                "velocity": 64,
                "duration": 0.13409090909090793,
                "tempo": 120.0
            },
            {
                "start_time": 19.711363636363636,
                "end_time": 19.845454545454544,
                "pitch": 36,
                "velocity": 64,
                "duration": 0.13409090909090793,
                "tempo": 120.0
            },
            {
                "start_time": 19.845454545454544,
                "end_time": 19.98181818181818,
                "pitch": 36,
                "velocity": 64,
                "duration": 0.1363636363636367,
                "tempo": 120.0
            },
            {
                "start_time": 19.98409090909091,
                "end_time": 20.25,
                "pitch": 43,
                "velocity": 64,
                "duration": 0.26590909090909065,
                "tempo": 120.0
            },
            {
                "start_time": 20.25,
                "end_time": 20.38181818181818,
                "pitch": 48,
                "velocity": 64,
                "duration": 0.13181818181817917,
                "tempo": 120.0
            },
            {
                "start_time": 20.384090909090908,
                "end_time": 20.518181818181816,
                "pitch": 36,
                "velocity": 64,
                "duration": 0.13409090909090793,
                "tempo": 120.0
            },
            {
                "start_time": 20.518181818181816,
                "end_time": 20.65,
                "pitch": 36,
                "velocity": 64,
                "duration": 0.13181818181818272,
                "tempo": 120.0
            },
            {
                "start_time": 20.652272727272727,
                "end_time": 20.784090909090907,
                "pitch": 36,
                "velocity": 64,
                "duration": 0.13181818181817917,
                "tempo": 120.0
            },
            {
                "start_time": 20.786363636363635,
                "end_time": 21.052272727272726,
                "pitch": 43,
                "velocity": 64,
                "duration": 0.26590909090909065,
                "tempo": 120.0
            },
            {
                "start_time": 21.052272727272726,
                "end_time": 21.188636363636363,
                "pitch": 48,
                "velocity": 64,
                "duration": 0.1363636363636367,
                "tempo": 120.0
            },
            {
                "start_time": 21.19090909090909,
                "end_time": 21.325,
                "pitch": 36,
                "velocity": 64,
                "duration": 0.13409090909090793,
                "tempo": 120.0
            },
            {
                "start_time": 21.325,
                "end_time": 21.461363636363636,
                "pitch": 36,
                "velocity": 64,
                "duration": 0.1363636363636367,
                "tempo": 120.0
            },
            {
                "start_time": 21.461363636363636,
                "end_time": 21.597727272727273,
                "pitch": 36,
                "velocity": 64,
                "duration": 0.1363636363636367,
                "tempo": 120.0
            },
            {
                "start_time": 21.597727272727273,
                "end_time": 21.863636363636363,
                "pitch": 43,
                "velocity": 64,
                "duration": 0.26590909090909065,
                "tempo": 120.0
            },
            {
                "start_time": 21.86590909090909,
                "end_time": 21.99772727272727,
                "pitch": 48,
                "velocity": 64,
                "duration": 0.13181818181818272,
                "tempo": 120.0
            },
            {
                "start_time": 21.99772727272727,
                "end_time": 22.134090909090908,
                "pitch": 36,
                "velocity": 64,
                "duration": 0.1363636363636367,
                "tempo": 120.0
            },
            {
                "start_time": 22.134090909090908,
                "end_time": 22.268181818181816,
                "pitch": 36,
                "velocity": 64,
                "duration": 0.13409090909090793,
                "tempo": 120.0
            },
            {
                "start_time": 22.268181818181816,
                "end_time": 22.40681818181818,
                "pitch": 36,
                "velocity": 64,
                "duration": 0.13863636363636545,
                "tempo": 120.0
            },
            {
                "start_time": 22.40681818181818,
                "end_time": 22.679545454545455,
                "pitch": 43,
                "velocity": 64,
                "duration": 0.2727272727272734,
                "tempo": 120.0
            },
            {
                "start_time": 22.679545454545455,
                "end_time": 22.811363636363634,
                "pitch": 48,
                "velocity": 64,
                "duration": 0.13181818181817917,
                "tempo": 120.0
            },
            {
                "start_time": 22.811363636363634,
                "end_time": 22.943181818181817,
                "pitch": 36,
                "velocity": 64,
                "duration": 0.13181818181818272,
                "tempo": 120.0
            },
            {
                "start_time": 22.945454545454545,
                "end_time": 23.077272727272724,
                "pitch": 36,
                "velocity": 64,
                "duration": 0.13181818181817917,
                "tempo": 120.0
            },
            {
                "start_time": 23.077272727272724,
                "end_time": 23.211363636363636,
                "pitch": 36,
                "velocity": 64,
                "duration": 0.13409090909091148,
                "tempo": 120.0
            },
            {
                "start_time": 23.21363636363636,
                "end_time": 23.48409090909091,
                "pitch": 41,
                "velocity": 64,
                "duration": 0.27045454545454817,
                "tempo": 120.0
            },
            {
                "start_time": 23.48409090909091,
                "end_time": 23.620454545454546,
                "pitch": 48,
                "velocity": 64,
                "duration": 0.1363636363636367,
                "tempo": 120.0
            },
            {
                "start_time": 23.620454545454546,
                "end_time": 23.75681818181818,
                "pitch": 36,
                "velocity": 64,
                "duration": 0.13636363636363313,
                "tempo": 120.0
            },
            {
                "start_time": 23.75681818181818,
                "end_time": 23.89090909090909,
                "pitch": 36,
                "velocity": 64,
                "duration": 0.13409090909091148,
                "tempo": 120.0
            },
            {
                "start_time": 23.89090909090909,
                "end_time": 24.02272727272727,
                "pitch": 36,
                "velocity": 64,
                "duration": 0.13181818181817917,
                "tempo": 120.0
            },
            {
                "start_time": 24.025,
                "end_time": 24.293181818181818,
                "pitch": 41,
                "velocity": 64,
                "duration": 0.2681818181818194,
                "tempo": 120.0
            },
            {
                "start_time": 24.295454545454543,
                "end_time": 24.424999999999997,
                "pitch": 48,
                "velocity": 64,
                "duration": 0.12954545454545396,
                "tempo": 120.0
            },
            {
                "start_time": 24.427272727272726,
                "end_time": 24.55909090909091,
                "pitch": 36,
                "velocity": 64,
                "duration": 0.13181818181818272,
                "tempo": 120.0
            },
            {
                "start_time": 24.55909090909091,
                "end_time": 24.693181818181817,
                "pitch": 36,
                "velocity": 64,
                "duration": 0.13409090909090793,
                "tempo": 120.0
            },
            {
                "start_time": 24.693181818181817,
                "end_time": 24.827272727272724,
                "pitch": 36,
                "velocity": 64,
                "duration": 0.13409090909090793,
                "tempo": 120.0
            },
            {
                "start_time": 24.827272727272724,
                "end_time": 25.099999999999998,
                "pitch": 41,
                "velocity": 64,
                "duration": 0.2727272727272734,
                "tempo": 120.0
            },
            {
                "start_time": 25.102272727272727,
                "end_time": 25.23409090909091,
                "pitch": 48,
                "velocity": 64,
                "duration": 0.13181818181818272,
                "tempo": 120.0
            },
            {
                "start_time": 25.23409090909091,
                "end_time": 25.370454545454542,
                "pitch": 36,
                "velocity": 64,
                "duration": 0.13636363636363313,
                "tempo": 120.0
            },
            {
                "start_time": 25.37272727272727,
                "end_time": 25.504545454545454,
                "pitch": 48,
                "velocity": 64,
                "duration": 0.13181818181818272,
                "tempo": 120.0
            },
            {
                "start_time": 25.504545454545454,
                "end_time": 25.638636363636362,
                "pitch": 36,
                "velocity": 64,
                "duration": 0.13409090909090793,
                "tempo": 120.0
            },
            {
                "start_time": 25.638636363636362,
                "end_time": 25.77272727272727,
                "pitch": 41,
                "velocity": 64,
                "duration": 0.13409090909090793,
                "tempo": 120.0
            },
            {
                "start_time": 25.77272727272727,
                "end_time": 25.902272727272727,
                "pitch": 45,
                "velocity": 64,
                "duration": 0.12954545454545752,
                "tempo": 120.0
            }
        ],
        "Acoustic Grand Piano": [
            {
                "start_time": 0.031818181818181815,
                "end_time": 2.5954545454545452,
                "pitch": 64,
                "velocity": 64,
                "duration": 2.5636363636363635,
                "tempo": 120.0
            },
            {
                "start_time": 2.734090909090909,
                "end_time": 2.8659090909090907,
                "pitch": 64,
                "velocity": 64,
                "duration": 0.13181818181818183,
                "tempo": 120.0
            },
            {
                "start_time": 3.0,
                "end_time": 3.134090909090909,
                "pitch": 64,
                "velocity": 64,
                "duration": 0.13409090909090882,
                "tempo": 120.0
            },
            {
                "start_time": 3.268181818181818,
                "end_time": 5.827272727272727,
                "pitch": 62,
                "velocity": 64,
                "duration": 2.559090909090909,
                "tempo": 120.0
            },
            {
                "start_time": 5.963636363636363,
                "end_time": 6.097727272727273,
                "pitch": 62,
                "velocity": 64,
                "duration": 0.1340909090909097,
                "tempo": 120.0
            },
            {
                "start_time": 6.2340909090909085,
                "end_time": 6.370454545454545,
                "pitch": 62,
                "velocity": 64,
                "duration": 0.1363636363636367,
                "tempo": 120.0
            },
            {
                "start_time": 6.506818181818182,
                "end_time": 9.063636363636363,
                "pitch": 60,
                "velocity": 64,
                "duration": 2.5568181818181808,
                "tempo": 120.0
            },
            {
                "start_time": 9.202272727272726,
                "end_time": 9.334090909090909,
                "pitch": 60,
                "velocity": 64,
                "duration": 0.13181818181818272,
                "tempo": 120.0
            },
            {
                "start_time": 9.470454545454546,
                "end_time": 9.602272727272727,
                "pitch": 60,
                "velocity": 64,
                "duration": 0.13181818181818095,
                "tempo": 120.0
            },
            {
                "start_time": 9.736363636363636,
                "end_time": 11.35,
                "pitch": 60,
                "velocity": 64,
                "duration": 1.6136363636363633,
                "tempo": 120.0
            },
            {
                "start_time": 11.352272727272727,
                "end_time": 12.159090909090908,
                "pitch": 60,
                "velocity": 64,
                "duration": 0.8068181818181817,
                "tempo": 120.0
            },
            {
                "start_time": 12.159090909090908,
                "end_time": 12.96590909090909,
                "pitch": 62,
                "velocity": 64,
                "duration": 0.8068181818181817,
                "tempo": 120.0
            },
            {
                "start_time": 12.96590909090909,
                "end_time": 15.536363636363635,
                "pitch": 64,
                "velocity": 64,
                "duration": 2.5704545454545453,
                "tempo": 120.0
            },
            {
                "start_time": 15.672727272727272,
                "end_time": 15.804545454545453,
                "pitch": 64,
                "velocity": 64,
                "duration": 0.13181818181818095,
                "tempo": 120.0
            },
            {
                "start_time": 15.94090909090909,
                "end_time": 16.07272727272727,
                "pitch": 64,
                "velocity": 64,
                "duration": 0.13181818181818095,
                "tempo": 120.0
            },
            {
                "start_time": 16.206818181818182,
                "end_time": 18.76590909090909,
                "pitch": 62,
                "velocity": 64,
                "duration": 2.5590909090909086,
                "tempo": 120.0
            },
            {
                "start_time": 18.902272727272727,
                "end_time": 19.036363636363635,
                "pitch": 62,
                "velocity": 64,
                "duration": 0.13409090909090793,
                "tempo": 120.0
            },
            {
                "start_time": 19.170454545454543,
                "end_time": 19.302272727272726,
                "pitch": 62,
                "velocity": 64,
                "duration": 0.13181818181818272,
                "tempo": 120.0
            },
            {
                "start_time": 19.436363636363634,
                "end_time": 21.99772727272727,
                "pitch": 60,
                "velocity": 64,
                "duration": 2.5613636363636374,
                "tempo": 120.0
            },
            {
                "start_time": 22.13181818181818,
                "end_time": 22.268181818181816,
                "pitch": 60,
                "velocity": 64,
                "duration": 0.1363636363636367,
                "tempo": 120.0
            },
            {
                "start_time": 22.404545454545453,
                "end_time": 22.538636363636364,
                "pitch": 60,
                "velocity": 64,
                "duration": 0.13409090909091148,
                "tempo": 120.0
            },
            {
                "start_time": 22.677272727272726,
                "end_time": 24.29090909090909,
                "pitch": 60,
                "velocity": 64,
                "duration": 1.6136363636363633,
                "tempo": 120.0
            },
            {
                "start_time": 24.29090909090909,
                "end_time": 25.097727272727273,
                "pitch": 60,
                "velocity": 64,
                "duration": 0.8068181818181834,
                "tempo": 120.0
            },
            {
                "start_time": 25.097727272727273,
                "end_time": 25.902272727272727,
                "pitch": 62,
                "velocity": 64,
                "duration": 0.8045454545454547,
                "tempo": 120.0
            }
        ],
        "Violin": [
            {
                "start_time": 0.029545454545454545,
                "end_time": 0.16136363636363635,
                "pitch": 79,
                "velocity": 127,
                "duration": 0.1318181818181818,
                "tempo": 120.0
            },
            {
                "start_time": 0.16136363636363635,
                "end_time": 0.2954545454545454,
                "pitch": 76,
                "velocity": 127,
                "duration": 0.13409090909090907,
                "tempo": 120.0
            },
            {
                "start_time": 0.2954545454545454,
                "end_time": 0.42727272727272725,
                "pitch": 77,
                "velocity": 127,
                "duration": 0.13181818181818183,
                "tempo": 120.0
            },
            {
                "start_time": 0.4295454545454545,
                "end_time": 0.5613636363636363,
                "pitch": 74,
                "velocity": 127,
                "duration": 0.13181818181818178,
                "tempo": 120.0
            },
            {
                "start_time": 0.5636363636363636,
                "end_time": 0.7,
                "pitch": 76,
                "velocity": 127,
                "duration": 0.13636363636363635,
                "tempo": 120.0
            },
            {
                "start_time": 0.7022727272727273,
                "end_time": 0.8386363636363636,
                "pitch": 74,
                "velocity": 127,
                "duration": 0.13636363636363635,
                "tempo": 120.0
            },
            {
                "start_time": 0.8386363636363636,
                "end_time": 0.9772727272727272,
                "pitch": 72,
                "velocity": 127,
                "duration": 0.13863636363636356,
                "tempo": 120.0
            },
            {
                "start_time": 0.9795454545454545,
                "end_time": 1.115909090909091,
                "pitch": 74,
                "velocity": 127,
                "duration": 0.13636363636363646,
                "tempo": 120.0
            },
            {
                "start_time": 1.1181818181818182,
                "end_time": 1.25,
                "pitch": 76,
                "velocity": 127,
                "duration": 0.13181818181818183,
                "tempo": 120.0
            },
            {
                "start_time": 1.25,
                "end_time": 1.384090909090909,
                "pitch": 77,
                "velocity": 127,
                "duration": 0.13409090909090904,
                "tempo": 120.0
            },
            {
                "start_time": 1.3863636363636362,
                "end_time": 1.518181818181818,
                "pitch": 79,
                "velocity": 127,
                "duration": 0.13181818181818183,
                "tempo": 120.0
            },
            {
                "start_time": 1.518181818181818,
                "end_time": 1.6522727272727271,
                "pitch": 74,
                "velocity": 127,
                "duration": 0.13409090909090904,
                "tempo": 120.0
            },
            {
                "start_time": 1.6522727272727271,
                "end_time": 1.7863636363636364,
                "pitch": 76,
                "velocity": 127,
                "duration": 0.13409090909090926,
                "tempo": 120.0
            },
            {
                "start_time": 1.7863636363636364,
                "end_time": 1.918181818181818,
                "pitch": 77,
                "velocity": 127,
                "duration": 0.1318181818181816,
                "tempo": 120.0
            },
            {
                "start_time": 1.9204545454545454,
                "end_time": 2.0522727272727272,
                "pitch": 79,
                "velocity": 127,
                "duration": 0.13181818181818183,
                "tempo": 120.0
            },
            {
                "start_time": 2.0545454545454542,
                "end_time": 2.186363636363636,
                "pitch": 72,
                "velocity": 127,
                "duration": 0.13181818181818183,
                "tempo": 120.0
            },
            {
                "start_time": 2.186363636363636,
                "end_time": 2.3227272727272728,
                "pitch": 74,
                "velocity": 127,
                "duration": 0.1363636363636367,
                "tempo": 120.0
            },
            {
                "start_time": 2.3227272727272728,
                "end_time": 2.459090909090909,
                "pitch": 76,
                "velocity": 127,
                "duration": 0.13636363636363624,
                "tempo": 120.0
            },
            {
                "start_time": 2.459090909090909,
                "end_time": 2.5954545454545452,
                "pitch": 67,
                "velocity": 127,
                "duration": 0.13636363636363624,
                "tempo": 120.0
            },
            {
                "start_time": 2.5954545454545452,
                "end_time": 2.7318181818181815,
                "pitch": 72,
                "velocity": 127,
                "duration": 0.13636363636363624,
                "tempo": 120.0
            },
            {
                "start_time": 2.7318181818181815,
                "end_time": 2.8659090909090907,
                "pitch": 74,
                "velocity": 127,
                "duration": 0.13409090909090926,
                "tempo": 120.0
            },
            {
                "start_time": 2.8659090909090907,
                "end_time": 2.9977272727272726,
                "pitch": 76,
                "velocity": 127,
                "duration": 0.13181818181818183,
                "tempo": 120.0
            },
            {
                "start_time": 3.0,
                "end_time": 3.131818181818182,
                "pitch": 77,
                "velocity": 127,
                "duration": 0.13181818181818183,
                "tempo": 120.0
            },
            {
                "start_time": 3.134090909090909,
                "end_time": 3.2659090909090907,
                "pitch": 79,
                "velocity": 127,
                "duration": 0.13181818181818183,
                "tempo": 120.0
            },
            {
                "start_time": 3.2659090909090907,
                "end_time": 3.402272727272727,
                "pitch": 77,
                "velocity": 127,
                "duration": 0.13636363636363624,
                "tempo": 120.0
            },
            {
                "start_time": 3.4045454545454543,
                "end_time": 3.5386363636363636,
                "pitch": 76,
                "velocity": 127,
                "duration": 0.13409090909090926,
                "tempo": 120.0
            },
            {
                "start_time": 3.5386363636363636,
                "end_time": 3.675,
                "pitch": 77,
                "velocity": 127,
                "duration": 0.13636363636363624,
                "tempo": 120.0
            },
            {
                "start_time": 3.675,
                "end_time": 3.811363636363636,
                "pitch": 74,
                "velocity": 127,
                "duration": 0.13636363636363624,
                "tempo": 120.0
            },
            {
                "start_time": 3.811363636363636,
                "end_time": 3.9454545454545453,
                "pitch": 76,
                "velocity": 127,
                "duration": 0.13409090909090926,
                "tempo": 120.0
            },
            {
                "start_time": 3.9454545454545453,
                "end_time": 4.077272727272727,
                "pitch": 70,
                "velocity": 127,
                "duration": 0.13181818181818183,
                "tempo": 120.0
            },
            {
                "start_time": 4.079545454545454,
                "end_time": 4.211363636363636,
                "pitch": 72,
                "velocity": 127,
                "duration": 0.13181818181818183,
                "tempo": 120.0
            },
            {
                "start_time": 4.213636363636364,
                "end_time": 4.345454545454546,
                "pitch": 74,
                "velocity": 127,
                "duration": 0.13181818181818183,
                "tempo": 120.0
            },
            {
                "start_time": 4.347727272727273,
                "end_time": 4.4795454545454545,
                "pitch": 76,
                "velocity": 127,
                "duration": 0.13181818181818183,
                "tempo": 120.0
            },
            {
                "start_time": 4.4795454545454545,
                "end_time": 4.613636363636363,
                "pitch": 77,
                "velocity": 127,
                "duration": 0.13409090909090882,
                "tempo": 120.0
            },
            {
                "start_time": 4.613636363636363,
                "end_time": 4.747727272727272,
                "pitch": 79,
                "velocity": 127,
                "duration": 0.13409090909090882,
                "tempo": 120.0
            },
            {
                "start_time": 4.747727272727272,
                "end_time": 4.881818181818182,
                "pitch": 74,
                "velocity": 127,
                "duration": 0.1340909090909097,
                "tempo": 120.0
            },
            {
                "start_time": 4.881818181818182,
                "end_time": 5.018181818181818,
                "pitch": 79,
                "velocity": 127,
                "duration": 0.1363636363636358,
                "tempo": 120.0
            },
            {
                "start_time": 5.018181818181818,
                "end_time": 5.154545454545454,
                "pitch": 77,
                "velocity": 127,
                "duration": 0.1363636363636367,
                "tempo": 120.0
            },
            {
                "start_time": 5.154545454545454,
                "end_time": 5.288636363636363,
                "pitch": 76,
                "velocity": 127,
                "duration": 0.13409090909090882,
                "tempo": 120.0
            },
            {
                "start_time": 5.290909090909091,
                "end_time": 5.425,
                "pitch": 74,
                "velocity": 127,
                "duration": 0.13409090909090882,
                "tempo": 120.0
            },
            {
                "start_time": 5.427272727272727,
                "end_time": 5.559090909090909,
                "pitch": 67,
                "velocity": 127,
                "duration": 0.13181818181818183,
                "tempo": 120.0
            },
            {
                "start_time": 5.5613636363636365,
                "end_time": 5.693181818181818,
                "pitch": 74,
                "velocity": 127,
                "duration": 0.13181818181818183,
                "tempo": 120.0
            },
            {
                "start_time": 5.693181818181818,
                "end_time": 5.827272727272727,
                "pitch": 70,
                "velocity": 127,
                "duration": 0.13409090909090882,
                "tempo": 120.0
            },
            {
                "start_time": 5.827272727272727,
                "end_time": 5.961363636363636,
                "pitch": 72,
                "velocity": 127,
                "duration": 0.13409090909090882,
                "tempo": 120.0
            },
            {
                "start_time": 5.961363636363636,
                "end_time": 6.097727272727273,
                "pitch": 74,
                "velocity": 127,
                "duration": 0.1363636363636367,
                "tempo": 120.0
            },
            {
                "start_time": 6.097727272727273,
                "end_time": 6.2340909090909085,
                "pitch": 77,
                "velocity": 127,
                "duration": 0.1363636363636358,
                "tempo": 120.0
            },
            {
                "start_time": 6.2340909090909085,
                "end_time": 6.370454545454545,
                "pitch": 76,
                "velocity": 127,
                "duration": 0.1363636363636367,
                "tempo": 120.0
            },
            {
                "start_time": 6.370454545454545,
                "end_time": 6.504545454545454,
                "pitch": 74,
                "velocity": 127,
                "duration": 0.13409090909090882,
                "tempo": 120.0
            },
            {
                "start_time": 6.506818181818182,
                "end_time": 6.638636363636364,
                "pitch": 72,
                "velocity": 127,
                "duration": 0.13181818181818183,
                "tempo": 120.0
            },
            {
                "start_time": 6.640909090909091,
                "end_time": 6.7727272727272725,
                "pitch": 69,
                "velocity": 127,
                "duration": 0.13181818181818183,
                "tempo": 120.0
            },
            {
                "start_time": 6.7749999999999995,
                "end_time": 6.906818181818181,
                "pitch": 72,
                "velocity": 127,
                "duration": 0.13181818181818183,
                "tempo": 120.0
            },
            {
                "start_time": 6.906818181818181,
                "end_time": 7.040909090909091,
                "pitch": 76,
                "velocity": 127,
                "duration": 0.1340909090909097,
                "tempo": 120.0
            },
            {
                "start_time": 7.040909090909091,
                "end_time": 7.177272727272727,
                "pitch": 77,
                "velocity": 127,
                "duration": 0.1363636363636358,
                "tempo": 120.0
            },
            {
                "start_time": 7.177272727272727,
                "end_time": 7.3136363636363635,
                "pitch": 76,
                "velocity": 127,
                "duration": 0.1363636363636367,
                "tempo": 120.0
            },
            {
                "start_time": 7.3136363636363635,
                "end_time": 7.447727272727272,
                "pitch": 74,
                "velocity": 127,
                "duration": 0.13409090909090882,
                "tempo": 120.0
            },
            {
                "start_time": 7.449999999999999,
                "end_time": 7.584090909090909,
                "pitch": 67,
                "velocity": 127,
                "duration": 0.1340909090909097,
                "tempo": 120.0
            },
            {
                "start_time": 7.586363636363636,
                "end_time": 7.718181818181818,
                "pitch": 69,
                "velocity": 127,
                "duration": 0.13181818181818183,
                "tempo": 120.0
            },
            {
                "start_time": 7.720454545454545,
                "end_time": 7.852272727272727,
                "pitch": 72,
                "velocity": 127,
                "duration": 0.13181818181818183,
                "tempo": 120.0
            },
            {
                "start_time": 7.8545454545454545,
                "end_time": 7.986363636363636,
                "pitch": 74,
                "velocity": 127,
                "duration": 0.13181818181818183,
                "tempo": 120.0
            },
            {
                "start_time": 7.986363636363636,
                "end_time": 8.120454545454544,
                "pitch": 77,
                "velocity": 127,
                "duration": 0.13409090909090793,
                "tempo": 120.0
            },
            {
                "start_time": 8.120454545454544,
                "end_time": 8.254545454545454,
                "pitch": 76,
                "velocity": 127,
                "duration": 0.1340909090909097,
                "tempo": 120.0
            },
            {
                "start_time": 8.254545454545454,
                "end_time": 8.388636363636364,
                "pitch": 72,
                "velocity": 127,
                "duration": 0.1340909090909097,
                "tempo": 120.0
            },
            {
                "start_time": 8.388636363636364,
                "end_time": 8.520454545454545,
                "pitch": 69,
                "velocity": 127,
                "duration": 0.13181818181818095,
                "tempo": 120.0
            },
            {
                "start_time": 8.522727272727272,
                "end_time": 8.654545454545454,
                "pitch": 74,
                "velocity": 127,
                "duration": 0.13181818181818272,
                "tempo": 120.0
            },
            {
                "start_time": 8.656818181818181,
                "end_time": 8.790909090909091,
                "pitch": 72,
                "velocity": 127,
                "duration": 0.1340909090909097,
                "tempo": 120.0
            },
            {
                "start_time": 8.793181818181818,
                "end_time": 8.927272727272728,
                "pitch": 70,
                "velocity": 127,
                "duration": 0.1340909090909097,
                "tempo": 120.0
            },
            {
                "start_time": 8.927272727272728,
                "end_time": 9.063636363636363,
                "pitch": 65,
                "velocity": 127,
                "duration": 0.1363636363636349,
                "tempo": 120.0
            },
            {
                "start_time": 9.063636363636363,
                "end_time": 9.2,
                "pitch": 67,
                "velocity": 127,
                "duration": 0.1363636363636367,
                "tempo": 120.0
            },
            {
                "start_time": 9.2,
                "end_time": 9.334090909090909,
                "pitch": 69,
                "velocity": 127,
                "duration": 0.1340909090909097,
                "tempo": 120.0
            },
            {
                "start_time": 9.334090909090909,
                "end_time": 9.468181818181817,
                "pitch": 72,
                "velocity": 127,
                "duration": 0.13409090909090793,
                "tempo": 120.0
            },
            {
                "start_time": 9.468181818181817,
                "end_time": 9.602272727272727,
                "pitch": 74,
                "velocity": 127,
                "duration": 0.1340909090909097,
                "tempo": 120.0
            },
            {
                "start_time": 9.602272727272727,
                "end_time": 9.73409090909091,
                "pitch": 77,
                "velocity": 127,
                "duration": 0.13181818181818272,
                "tempo": 120.0
            },
            {
                "start_time": 9.736363636363636,
                "end_time": 9.868181818181817,
                "pitch": 76,
                "velocity": 127,
                "duration": 0.13181818181818095,
                "tempo": 120.0
            },
            {
                "start_time": 9.870454545454544,
                "end_time": 10.002272727272727,
                "pitch": 77,
                "velocity": 127,
                "duration": 0.13181818181818272,
                "tempo": 120.0
            },
            {
                "start_time": 10.004545454545454,
                "end_time": 10.136363636363637,
                "pitch": 76,
                "velocity": 127,
                "duration": 0.13181818181818272,
                "tempo": 120.0
            },
            {
                "start_time": 10.136363636363637,
                "end_time": 10.270454545454545,
                "pitch": 74,
                "velocity": 127,
                "duration": 0.13409090909090793,
                "tempo": 120.0
            },
            {
                "start_time": 10.270454545454545,
                "end_time": 10.406818181818181,
                "pitch": 72,
                "velocity": 127,
                "duration": 0.1363636363636367,
                "tempo": 120.0
            },
            {
                "start_time": 10.406818181818181,
                "end_time": 10.543181818181818,
                "pitch": 68,
                "velocity": 127,
                "duration": 0.1363636363636367,
                "tempo": 120.0
            },
            {
                "start_time": 10.543181818181818,
                "end_time": 10.677272727272726,
                "pitch": 65,
                "velocity": 127,
                "duration": 0.13409090909090793,
                "tempo": 120.0
            },
            {
                "start_time": 10.679545454545455,
                "end_time": 10.81590909090909,
                "pitch": 68,
                "velocity": 127,
                "duration": 0.1363636363636349,
                "tempo": 120.0
            },
            {
                "start_time": 10.81590909090909,
                "end_time": 10.947727272727272,
                "pitch": 72,
                "velocity": 127,
                "duration": 0.13181818181818272,
                "tempo": 120.0
            },
            {
                "start_time": 10.95,
                "end_time": 11.081818181818182,
                "pitch": 74,
                "velocity": 127,
                "duration": 0.13181818181818272,
                "tempo": 120.0
            },
            {
                "start_time": 11.084090909090909,
                "end_time": 11.21590909090909,
                "pitch": 76,
                "velocity": 127,
                "duration": 0.13181818181818095,
                "tempo": 120.0
            },
            {
                "start_time": 11.21590909090909,
                "end_time": 11.35,
                "pitch": 77,
                "velocity": 127,
                "duration": 0.1340909090909097,
                "tempo": 120.0
            },
            {
                "start_time": 11.35,
                "end_time": 11.48409090909091,
                "pitch": 72,
                "velocity": 127,
                "duration": 0.1340909090909097,
                "tempo": 120.0
            },
            {
                "start_time": 11.48409090909091,
                "end_time": 11.618181818181817,
                "pitch": 70,
                "velocity": 127,
                "duration": 0.13409090909090793,
                "tempo": 120.0
            },
            {
                "start_time": 11.618181818181817,
                "end_time": 11.75,
                "pitch": 68,
                "velocity": 127,
                "duration": 0.13181818181818272,
                "tempo": 120.0
            },
            {
                "start_time": 11.752272727272727,
                "end_time": 11.884090909090908,
                "pitch": 67,
                "velocity": 127,
                "duration": 0.13181818181818095,
                "tempo": 120.0
            },
            {
                "start_time": 11.886363636363635,
                "end_time": 12.020454545454545,
                "pitch": 69,
                "velocity": 127,
                "duration": 0.1340909090909097,
                "tempo": 120.0
            },
            {
                "start_time": 12.022727272727272,
                "end_time": 12.156818181818181,
                "pitch": 67,
                "velocity": 127,
                "duration": 0.1340909090909097,
                "tempo": 120.0
            },
            {
                "start_time": 12.156818181818181,
                "end_time": 12.293181818181818,
                "pitch": 65,
                "velocity": 127,
                "duration": 0.1363636363636367,
                "tempo": 120.0
            },
            {
                "start_time": 12.293181818181818,
                "end_time": 12.429545454545455,
                "pitch": 67,
                "velocity": 127,
                "duration": 0.1363636363636367,
                "tempo": 120.0
            },
            {
                "start_time": 12.429545454545455,
                "end_time": 12.563636363636363,
                "pitch": 71,
                "velocity": 127,
                "duration": 0.13409090909090793,
                "tempo": 120.0
            },
            {
                "start_time": 12.563636363636363,
                "end_time": 12.697727272727272,
                "pitch": 74,
                "velocity": 127,
                "duration": 0.1340909090909097,
                "tempo": 120.0
            },
            {
                "start_time": 12.697727272727272,
                "end_time": 12.831818181818182,
                "pitch": 79,
                "velocity": 127,
                "duration": 0.1340909090909097,
                "tempo": 120.0
            },
            {
                "start_time": 12.831818181818182,
                "end_time": 12.931818181818182,
                "pitch": 79,
                "velocity": 127,
                "duration": 0.09999999999999964,
                "tempo": 120.0
            },
            {
                "start_time": 12.931818181818182,
                "end_time": 13.031818181818181,
                "pitch": 82,
                "velocity": 127,
                "duration": 0.09999999999999964,
                "tempo": 120.0
            },
            {
                "start_time": 13.031818181818181,
                "end_time": 14.588636363636363,
                "pitch": 84,
                "velocity": 127,
                "duration": 1.5568181818181817,
                "tempo": 120.0
            },
            {
                "start_time": 14.59090909090909,
                "end_time": 25.904545454545453,
                "pitch": 84,
                "velocity": 101,
                "duration": 11.313636363636363,
                "tempo": 120.0
            }
        ]
    }
}