{
    "track_id": "04 Level Clear",
    "mood": "happy",
    "instruments": {
        "Electric Piano 1": [
            {
                "start_time": 0.4909090909090909,
                "end_time": 0.6181818181818182,
                "pitch": 60,
                "velocity": 40,
                "duration": 0.12727272727272726,
                "tempo": 120.0
            },
            {
                "start_time": 0.6181818181818182,
                "end_time": 0.7295454545454545,
                "pitch": 62,
                "velocity": 40,
                "duration": 0.11136363636363633,
                "tempo": 120.0
            },
            {
                "start_time": 0.7295454545454545,
                "end_time": 0.8431818181818181,
                "pitch": 64,
                "velocity": 40,
                "duration": 0.11363636363636365,
                "tempo": 120.0
            },
            {
                "start_time": 0.8431818181818181,
                "end_time": 0.9568181818181818,
                "pitch": 65,
                "velocity": 40,
                "duration": 0.11363636363636365,
                "tempo": 120.0
            },
            {
                "start_time": 0.9568181818181818,
                "end_time": 1.0727272727272728,
                "pitch": 67,
                "velocity": 40,
                "duration": 0.11590909090909096,
                "tempo": 120.0
            },
            {
                "start_time": 1.075,
                "end_time": 1.2113636363636362,
                "pitch": 69,
                "velocity": 40,
                "duration": 0.13636363636363624,
                "tempo": 120.0
            },
            {
                "start_time": 1.2113636363636362,
                "end_time": 1.3295454545454546,
                "pitch": 71,
                "velocity": 40,
                "duration": 0.11818181818181839,
                "tempo": 120.0
            },
            {
                "start_time": 1.3295454545454546,
                "end_time": 1.45,
                "pitch": 67,
                "velocity": 40,
                "duration": 0.12045454545454537,
                "tempo": 120.0
            },
            {
                "start_time": 1.4522727272727272,
                "end_time": 1.934090909090909,
                "pitch": 72,
                "velocity": 40,
                "duration": 0.4818181818181819,
                "tempo": 120.0
            },
            {
                "start_time": 1.934090909090909,
                "end_time": 2.9,
                "pitch": 60,
                "velocity": 40,
                "duration": 0.9659090909090908,
                "tempo": 120.0
            }
        ],
        "Acoustic Bass": [
            {
                "start_time": 0.015909090909090907,
                "end_time": 0.1318181818181818,
                "pitch": 24,
                "velocity": 101,
                "duration": 0.1159090909090909,
                "tempo": 120.0
            },
            {
                "start_time": 0.1318181818181818,
                "end_time": 0.25227272727272726,
                "pitch": 36,
                "velocity": 101,
                "duration": 0.12045454545454545,
                "tempo": 120.0
            },
            {
                "start_time": 0.25227272727272726,
                "end_time": 0.3704545454545454,
                "pitch": 24,
                "velocity": 101,
                "duration": 0.11818181818181817,
                "tempo": 120.0
            },
            {
                "start_time": 0.3704545454545454,
                "end_time": 0.4909090909090909,
                "pitch": 36,
                "velocity": 101,
                "duration": 0.12045454545454548,
                "tempo": 120.0
            },
            {
                "start_time": 0.4909090909090909,
                "end_time": 0.6181818181818182,
                "pitch": 24,
                "velocity": 101,
                "duration": 0.12727272727272726,
                "tempo": 120.0
            },
            {
                "start_time": 0.6204545454545454,
                "end_time": 0.7318181818181818,
                "pitch": 36,
                "velocity": 101,
                "duration": 0.11136363636363644,
                "tempo": 120.0
            },
            {
                "start_time": 0.7318181818181818,
                "end_time": 0.8431818181818181,
                "pitch": 24,
                "velocity": 101,
                "duration": 0.11136363636363633,
                "tempo": 120.0
            },
            {
                "start_time": 0.8431818181818181,
                "end_time": 0.9568181818181818,
                "pitch": 36,
                "velocity": 101,
                "duration": 0.11363636363636365,
                "tempo": 120.0
            },
            {
                "start_time": 0.9568181818181818,
                "end_time": 1.4522727272727272,
                "pitch": 24,
                "velocity": 101,
                "duration": 0.49545454545454537,
                "tempo": 120.0
            },
            {
                "start_time": 1.4522727272727272,
                "end_time": 1.934090909090909,
                "pitch": 24,
                "velocity": 101,
                "duration": 0.4818181818181819,
                "tempo": 120.0
            }
        ]
    }
}