{
    "track_id": "04 Metropolis (Area 1)",
    "mood": "happy",
    "instruments": {
        "Vibraphone": [
            {
                "start_time": 26.404545454545453,
                "end_time": 26.470454545454544,
                "pitch": 55,
                "velocity": 51,
                "duration": 0.06590909090909136,
                "tempo": 120.0
            },
            {
                "start_time": 26.470454545454544,
                "end_time": 26.488636363636363,
                "pitch": 55,
                "velocity": 51,
                "duration": 0.01818181818181941,
                "tempo": 120.0
            },
            {
                "start_time": 26.488636363636363,
                "end_time": 26.55681818181818,
                "pitch": 55,
                "velocity": 51,
                "duration": 0.06818181818181657,
                "tempo": 120.0
            },
            {
                "start_time": 26.55681818181818,
                "end_time": 26.575,
                "pitch": 55,
                "velocity": 51,
                "duration": 0.01818181818181941,
                "tempo": 120.0
            },
            {
                "start_time": 26.575,
                "end_time": 26.643181818181816,
                "pitch": 55,
                "velocity": 51,
                "duration": 0.06818181818181657,
                "tempo": 120.0
            },
            {
                "start_time": 26.488636363636363,
                "end_time": 26.661363636363635,
                "pitch": 0,
                "velocity": 51,
                "duration": 0.17272727272727195,
                "tempo": 120.0
            },
            {
                "start_time": 26.643181818181816,
                "end_time": 26.661363636363635,
                "pitch": 55,
                "velocity": 51,
                "duration": 0.01818181818181941,
                "tempo": 120.0
            },
            {
                "start_time": 26.661363636363635,
                "end_time": 26.729545454545452,
                "pitch": 55,
                "velocity": 51,
                "duration": 0.06818181818181657,
                "tempo": 120.0
            },
            {
                "start_time": 26.729545454545452,
                "end_time": 26.745454545454542,
                "pitch": 55,
                "velocity": 51,
                "duration": 0.01590909090909065,
                "tempo": 120.0
            },
            {
                "start_time": 26.745454545454542,
                "end_time": 26.813636363636363,
                "pitch": 55,
                "velocity": 51,
                "duration": 0.06818181818182012,
                "tempo": 120.0
            },
            {
                "start_time": 26.643181818181816,
                "end_time": 26.813636363636363,
                "pitch": 67,
                "velocity": 51,
                "duration": 0.17045454545454675,
                "tempo": 120.0
            },
            {
                "start_time": 26.661363636363635,
                "end_time": 26.829545454545453,
                "pitch": 0,
                "velocity": 51,
                "duration": 0.168181818181818,
                "tempo": 120.0
            },
            {
                "start_time": 26.813636363636363,
                "end_time": 26.829545454545453,
                "pitch": 55,
                "velocity": 51,
                "duration": 0.01590909090909065,
                "tempo": 120.0
            },
            {
                "start_time": 26.829545454545453,
                "end_time": 26.895454545454545,
                "pitch": 55,
                "velocity": 51,
                "duration": 0.06590909090909136,
                "tempo": 120.0
            },
            {
                "start_time": 26.813636363636363,
                "end_time": 26.895454545454545,
                "pitch": 67,
                "velocity": 51,
                "duration": 0.08181818181818201,
                "tempo": 120.0
            },
            {
                "start_time": 26.895454545454545,
                "end_time": 26.913636363636364,
                "pitch": 55,
                "velocity": 51,
                "duration": 0.01818181818181941,
                "tempo": 120.0
            },
            {
                "start_time": 26.913636363636364,
                "end_time": 26.979545454545452,
                "pitch": 55,
                "velocity": 51,
                "duration": 0.06590909090908781,
                "tempo": 120.0
            },
            {
                "start_time": 26.895454545454545,
                "end_time": 26.979545454545452,
                "pitch": 67,
                "velocity": 51,
                "duration": 0.08409090909090722,
                "tempo": 120.0
            },
            {
                "start_time": 26.829545454545453,
                "end_time": 26.99772727272727,
                "pitch": 0,
                "velocity": 51,
                "duration": 0.168181818181818,
                "tempo": 120.0
            },
            {
                "start_time": 26.979545454545452,
                "end_time": 26.99772727272727,
                "pitch": 55,
                "velocity": 51,
                "duration": 0.01818181818181941,
                "tempo": 120.0
            },
            {
                "start_time": 26.99772727272727,
                "end_time": 27.063636363636363,
                "pitch": 55,
                "velocity": 51,
                "duration": 0.06590909090909136,
                "tempo": 120.0
            },
            {
                "start_time": 27.063636363636363,
                "end_time": 27.079545454545453,
                "pitch": 55,
                "velocity": 51,
                "duration": 0.01590909090909065,
                "tempo": 120.0
            },
            {
                "start_time": 27.079545454545453,
                "end_time": 27.14772727272727,
                "pitch": 55,
                "velocity": 51,
                "duration": 0.06818181818181657,
                "tempo": 120.0
            },
            {
                "start_time": 26.979545454545452,
                "end_time": 27.14772727272727,
                "pitch": 67,
                "velocity": 51,
                "duration": 0.168181818181818,
                "tempo": 120.0
            },
            {
                "start_time": 27.14772727272727,
                "end_time": 27.163636363636364,
                "pitch": 55,
                "velocity": 51,
                "duration": 0.015909090909094203,
                "tempo": 120.0
            },
            {
                "start_time": 27.163636363636364,
                "end_time": 27.229545454545452,
                "pitch": 55,
                "velocity": 51,
                "duration": 0.06590909090908781,
                "tempo": 120.0
            },
            {
                "start_time": 27.14772727272727,
                "end_time": 27.229545454545452,
                "pitch": 67,
                "velocity": 51,
                "duration": 0.08181818181818201,
                "tempo": 120.0
            },
            {
                "start_time": 27.229545454545452,
                "end_time": 27.24772727272727,
                "pitch": 55,
                "velocity": 51,
                "duration": 0.01818181818181941,
                "tempo": 120.0
            },
            {
                "start_time": 27.24772727272727,
                "end_time": 27.313636363636363,
                "pitch": 55,
                "velocity": 51,
                "duration": 0.06590909090909136,
                "tempo": 120.0
            },
            {
                "start_time": 27.229545454545452,
                "end_time": 27.313636363636363,
                "pitch": 67,
                "velocity": 51,
                "duration": 0.08409090909091077,
                "tempo": 120.0
            },
            {
                "start_time": 26.99772727272727,
                "end_time": 27.329545454545453,
                "pitch": 0,
                "velocity": 51,
                "duration": 0.331818181818182,
                "tempo": 120.0
            },
            {
                "start_time": 27.313636363636363,
                "end_time": 27.329545454545453,
                "pitch": 55,
                "velocity": 51,
                "duration": 0.01590909090909065,
                "tempo": 120.0
            },
            {
                "start_time": 27.329545454545453,
                "end_time": 27.39772727272727,
                "pitch": 55,
                "velocity": 51,
                "duration": 0.06818181818181657,
                "tempo": 120.0
            },
            {
                "start_time": 27.313636363636363,
                "end_time": 27.39772727272727,
                "pitch": 67,
                "velocity": 51,
                "duration": 0.08409090909090722,
                "tempo": 120.0
            },
            {
                "start_time": 27.329545454545453,
                "end_time": 27.413636363636364,
                "pitch": 0,
                "velocity": 51,
                "duration": 0.08409090909091077,
                "tempo": 120.0
            },
            {
                "start_time": 27.39772727272727,
                "end_time": 27.413636363636364,
                "pitch": 55,
                "velocity": 51,
                "duration": 0.015909090909094203,
                "tempo": 120.0
            },
            {
                "start_time": 27.413636363636364,
                "end_time": 27.48181818181818,
                "pitch": 55,
                "velocity": 51,
                "duration": 0.06818181818181657,
                "tempo": 120.0
            },
            {
                "start_time": 27.48181818181818,
                "end_time": 27.547727272727272,
                "pitch": 55,
                "velocity": 51,
                "duration": 0.06590909090909136,
                "tempo": 120.0
            },
            {
                "start_time": 27.39772727272727,
                "end_time": 27.547727272727272,
                "pitch": 67,
                "velocity": 51,
                "duration": 0.15000000000000213,
                "tempo": 120.0
            },
            {
                "start_time": 27.547727272727272,
                "end_time": 27.563636363636363,
                "pitch": 55,
                "velocity": 51,
                "duration": 0.01590909090909065,
                "tempo": 120.0
            },
            {
                "start_time": 27.563636363636363,
                "end_time": 27.63181818181818,
                "pitch": 55,
                "velocity": 51,
                "duration": 0.06818181818181657,
                "tempo": 120.0
            },
            {
                "start_time": 27.547727272727272,
                "end_time": 27.63181818181818,
                "pitch": 67,
                "velocity": 51,
                "duration": 0.08409090909090722,
                "tempo": 120.0
            },
            {
                "start_time": 27.413636363636364,
                "end_time": 27.64772727272727,
                "pitch": 0,
                "velocity": 51,
                "duration": 0.2340909090909058,
                "tempo": 120.0
            },
            {
                "start_time": 27.63181818181818,
                "end_time": 27.64772727272727,
                "pitch": 55,
                "velocity": 51,
                "duration": 0.01590909090909065,
                "tempo": 120.0
            },
            {
                "start_time": 27.64772727272727,
                "end_time": 27.71363636363636,
                "pitch": 55,
                "velocity": 51,
                "duration": 0.06590909090909136,
                "tempo": 120.0
            },
            {
                "start_time": 27.63181818181818,
                "end_time": 27.71363636363636,
                "pitch": 67,
                "velocity": 51,
                "duration": 0.08181818181818201,
                "tempo": 120.0
            },
            {
                "start_time": 27.71363636363636,
                "end_time": 27.73181818181818,
                "pitch": 55,
                "velocity": 51,
                "duration": 0.01818181818181941,
                "tempo": 120.0
            },
            {
                "start_time": 27.73181818181818,
                "end_time": 27.795454545454543,
                "pitch": 55,
                "velocity": 51,
                "duration": 0.0636363636363626,
                "tempo": 120.0
            },
            {
                "start_time": 27.71363636363636,
                "end_time": 27.795454545454543,
                "pitch": 67,
                "velocity": 51,
                "duration": 0.08181818181818201,
                "tempo": 120.0
            },
            {
                "start_time": 27.64772727272727,
                "end_time": 27.811363636363634,
                "pitch": 0,
                "velocity": 51,
                "duration": 0.16363636363636402,
                "tempo": 120.0
            },
            {
                "start_time": 27.795454545454543,
                "end_time": 27.811363636363634,
                "pitch": 55,
                "velocity": 51,
                "duration": 0.01590909090909065,
                "tempo": 120.0
            },
            {
                "start_time": 27.811363636363634,
                "end_time": 27.877272727272725,
                "pitch": 55,
                "velocity": 51,
                "duration": 0.06590909090909136,
                "tempo": 120.0
            },
            {
                "start_time": 27.795454545454543,
                "end_time": 27.877272727272725,
                "pitch": 67,
                "velocity": 51,
                "duration": 0.08181818181818201,
                "tempo": 120.0
            },
            {
                "start_time": 27.877272727272725,
                "end_time": 27.893181818181816,
                "pitch": 55,
                "velocity": 51,
                "duration": 0.01590909090909065,
                "tempo": 120.0
            },
            {
                "start_time": 27.893181818181816,
                "end_time": 27.956818181818182,
                "pitch": 55,
                "velocity": 51,
                "duration": 0.06363636363636616,
                "tempo": 120.0
            },
            {
                "start_time": 27.877272727272725,
                "end_time": 27.956818181818182,
                "pitch": 67,
                "velocity": 51,
                "duration": 0.0795454545454568,
                "tempo": 120.0
            },
            {
                "start_time": 27.956818181818182,
                "end_time": 27.972727272727273,
                "pitch": 55,
                "velocity": 51,
                "duration": 0.01590909090909065,
                "tempo": 120.0
            },
            {
                "start_time": 27.972727272727273,
                "end_time": 28.038636363636364,
                "pitch": 55,
                "velocity": 51,
                "duration": 0.06590909090909136,
                "tempo": 120.0
            },
            {
                "start_time": 28.038636363636364,
                "end_time": 28.054545454545455,
                "pitch": 55,
                "velocity": 51,
                "duration": 0.01590909090909065,
                "tempo": 120.0
            },
            {
                "start_time": 28.054545454545455,
                "end_time": 28.120454545454542,
                "pitch": 55,
                "velocity": 51,
                "duration": 0.06590909090908781,
                "tempo": 120.0
            },
            {
                "start_time": 27.956818181818182,
                "end_time": 28.120454545454542,
                "pitch": 67,
                "velocity": 51,
                "duration": 0.16363636363636047,
                "tempo": 120.0
            },
            {
                "start_time": 27.811363636363634,
                "end_time": 28.138636363636362,
                "pitch": 0,
                "velocity": 51,
                "duration": 0.32727272727272805,
                "tempo": 120.0
            },
            {
                "start_time": 28.120454545454542,
                "end_time": 28.138636363636362,
                "pitch": 55,
                "velocity": 51,
                "duration": 0.01818181818181941,
                "tempo": 120.0
            },
            {
                "start_time": 28.138636363636362,
                "end_time": 28.204545454545453,
                "pitch": 55,
                "velocity": 51,
                "duration": 0.06590909090909136,
                "tempo": 120.0
            },
            {
                "start_time": 28.120454545454542,
                "end_time": 28.204545454545453,
                "pitch": 67,
                "velocity": 51,
                "duration": 0.08409090909091077,
                "tempo": 120.0
            },
            {
                "start_time": 28.204545454545453,
                "end_time": 28.220454545454544,
                "pitch": 55,
                "velocity": 51,
                "duration": 0.01590909090909065,
                "tempo": 120.0
            },
            {
                "start_time": 28.220454545454544,
                "end_time": 28.288636363636364,
                "pitch": 55,
                "velocity": 51,
                "duration": 0.06818181818182012,
                "tempo": 120.0
            },
            {
                "start_time": 28.204545454545453,
                "end_time": 28.288636363636364,
                "pitch": 67,
                "velocity": 51,
                "duration": 0.08409090909091077,
                "tempo": 120.0
            },
            {
                "start_time": 28.138636363636362,
                "end_time": 28.304545454545455,
                "pitch": 0,
                "velocity": 51,
                "duration": 0.16590909090909278,
                "tempo": 120.0
            },
            {
                "start_time": 28.288636363636364,
                "end_time": 28.304545454545455,
                "pitch": 55,
                "velocity": 51,
                "duration": 0.01590909090909065,
                "tempo": 120.0
            },
            {
                "start_time": 28.304545454545455,
                "end_time": 28.370454545454542,
                "pitch": 55,
                "velocity": 51,
                "duration": 0.06590909090908781,
                "tempo": 120.0
            },
            {
                "start_time": 28.370454545454542,
                "end_time": 28.388636363636362,
                "pitch": 55,
                "velocity": 51,
                "duration": 0.01818181818181941,
                "tempo": 120.0
            },
            {
                "start_time": 28.388636363636362,
                "end_time": 28.454545454545453,
                "pitch": 55,
                "velocity": 51,
                "duration": 0.06590909090909136,
                "tempo": 120.0
            },
            {
                "start_time": 28.288636363636364,
                "end_time": 28.454545454545453,
                "pitch": 67,
                "velocity": 51,
                "duration": 0.16590909090908923,
                "tempo": 120.0
            },
            {
                "start_time": 28.454545454545453,
                "end_time": 28.470454545454544,
                "pitch": 55,
                "velocity": 51,
                "duration": 0.01590909090909065,
                "tempo": 120.0
            },
            {
                "start_time": 28.470454545454544,
                "end_time": 28.538636363636364,
                "pitch": 55,
                "velocity": 51,
                "duration": 0.06818181818182012,
                "tempo": 120.0
            },
            {
                "start_time": 28.454545454545453,
                "end_time": 28.538636363636364,
                "pitch": 67,
                "velocity": 51,
                "duration": 0.08409090909091077,
                "tempo": 120.0
            },
            {
                "start_time": 26.404545454545453,
                "end_time": 28.554545454545455,
                "pitch": 43,
                "velocity": 51,
                "duration": 2.150000000000002,
                "tempo": 120.0
            },
            {
                "start_time": 28.538636363636364,
                "end_time": 28.554545454545455,
                "pitch": 55,
                "velocity": 51,
                "duration": 0.01590909090909065,
                "tempo": 120.0
            },
            {
                "start_time": 28.554545454545455,
                "end_time": 28.638636363636362,
                "pitch": 48,
                "velocity": 51,
                "duration": 0.08409090909090722,
                "tempo": 120.0
            },
            {
                "start_time": 28.638636363636362,
                "end_time": 28.722727272727273,
                "pitch": 48,
                "velocity": 51,
                "duration": 0.08409090909091077,
                "tempo": 120.0
            },
            {
                "start_time": 28.722727272727273,
                "end_time": 28.804545454545455,
                "pitch": 48,
                "velocity": 51,
                "duration": 0.08181818181818201,
                "tempo": 120.0
            },
            {
                "start_time": 28.804545454545455,
                "end_time": 28.888636363636362,
                "pitch": 49,
                "velocity": 51,
                "duration": 0.08409090909090722,
                "tempo": 120.0
            },
            {
                "start_time": 28.888636363636362,
                "end_time": 28.972727272727273,
                "pitch": 49,
                "velocity": 51,
                "duration": 0.08409090909091077,
                "tempo": 120.0
            },
            {
                "start_time": 28.972727272727273,
                "end_time": 29.05681818181818,
                "pitch": 50,
                "velocity": 51,
                "duration": 0.08409090909090722,
                "tempo": 120.0
            },
            {
                "start_time": 29.05681818181818,
                "end_time": 29.138636363636362,
                "pitch": 50,
                "velocity": 51,
                "duration": 0.08181818181818201,
                "tempo": 120.0
            },
            {
                "start_time": 29.138636363636362,
                "end_time": 29.222727272727273,
                "pitch": 51,
                "velocity": 51,
                "duration": 0.08409090909091077,
                "tempo": 120.0
            },
            {
                "start_time": 29.222727272727273,
                "end_time": 29.28863636363636,
                "pitch": 51,
                "velocity": 51,
                "duration": 0.06590909090908781,
                "tempo": 120.0
            },
            {
                "start_time": 29.28863636363636,
                "end_time": 29.37272727272727,
                "pitch": 51,
                "velocity": 51,
                "duration": 0.08409090909091077,
                "tempo": 120.0
            },
            {
                "start_time": 29.37272727272727,
                "end_time": 29.454545454545453,
                "pitch": 51,
                "velocity": 51,
                "duration": 0.08181818181818201,
                "tempo": 120.0
            },
            {
                "start_time": 29.454545454545453,
                "end_time": 29.534090909090907,
                "pitch": 51,
                "velocity": 51,
                "duration": 0.07954545454545325,
                "tempo": 120.0
            },
            {
                "start_time": 29.534090909090907,
                "end_time": 29.61590909090909,
                "pitch": 51,
                "velocity": 51,
                "duration": 0.08181818181818201,
                "tempo": 120.0
            },
            {
                "start_time": 29.61590909090909,
                "end_time": 29.695454545454545,
                "pitch": 51,
                "velocity": 51,
                "duration": 0.0795454545454568,
                "tempo": 120.0
            },
            {
                "start_time": 29.695454545454545,
                "end_time": 29.779545454545453,
                "pitch": 51,
                "velocity": 51,
                "duration": 0.08409090909090722,
                "tempo": 120.0
            },
            {
                "start_time": 29.779545454545453,
                "end_time": 29.863636363636363,
                "pitch": 51,
                "velocity": 51,
                "duration": 0.08409090909091077,
                "tempo": 120.0
            },
            {
                "start_time": 29.863636363636363,
                "end_time": 29.945454545454545,
                "pitch": 51,
                "velocity": 51,
                "duration": 0.08181818181818201,
                "tempo": 120.0
            },
            {
                "start_time": 29.945454545454545,
                "end_time": 30.029545454545453,
                "pitch": 51,
                "velocity": 51,
                "duration": 0.08409090909090722,
                "tempo": 120.0
            },
            {
                "start_time": 30.029545454545453,
                "end_time": 30.11590909090909,
                "pitch": 51,
                "velocity": 51,
                "duration": 0.08636363636363598,
                "tempo": 120.0
            },
            {
                "start_time": 30.11590909090909,
                "end_time": 30.202272727272724,
                "pitch": 51,
                "velocity": 51,
                "duration": 0.08636363636363598,
                "tempo": 120.0
            },
            {
                "start_time": 30.202272727272724,
                "end_time": 30.286363636363635,
                "pitch": 51,
                "velocity": 51,
                "duration": 0.08409090909091077,
                "tempo": 120.0
            },
            {
                "start_time": 30.286363636363635,
                "end_time": 30.37272727272727,
                "pitch": 51,
                "velocity": 51,
                "duration": 0.08636363636363598,
                "tempo": 120.0
            },
            {
                "start_time": 30.37272727272727,
                "end_time": 30.456818181818182,
                "pitch": 51,
                "velocity": 51,
                "duration": 0.08409090909091077,
                "tempo": 120.0
            },
            {
                "start_time": 30.456818181818182,
                "end_time": 30.54090909090909,
                "pitch": 51,
                "velocity": 51,
                "duration": 0.08409090909090722,
                "tempo": 120.0
            },
            {
                "start_time": 30.54090909090909,
                "end_time": 30.62272727272727,
                "pitch": 51,
                "velocity": 51,
                "duration": 0.08181818181818201,
                "tempo": 120.0
            },
            {
                "start_time": 30.62272727272727,
                "end_time": 30.706818181818182,
                "pitch": 51,
                "velocity": 51,
                "duration": 0.08409090909091077,
                "tempo": 120.0
            },
            {
                "start_time": 30.706818181818182,
                "end_time": 30.79090909090909,
                "pitch": 51,
                "velocity": 51,
                "duration": 0.08409090909090722,
                "tempo": 120.0
            },
            {
                "start_time": 30.79090909090909,
                "end_time": 30.875,
                "pitch": 51,
                "velocity": 51,
                "duration": 0.08409090909091077,
                "tempo": 120.0
            },
            {
                "start_time": 30.875,
                "end_time": 30.956818181818182,
                "pitch": 51,
                "velocity": 51,
                "duration": 0.08181818181818201,
                "tempo": 120.0
            },
            {
                "start_time": 30.956818181818182,
                "end_time": 31.04090909090909,
                "pitch": 51,
                "velocity": 51,
                "duration": 0.08409090909090722,
                "tempo": 120.0
            },
            {
                "start_time": 31.04090909090909,
                "end_time": 31.10681818181818,
                "pitch": 51,
                "velocity": 51,
                "duration": 0.06590909090909136,
                "tempo": 120.0
            },
            {
                "start_time": 31.10681818181818,
                "end_time": 31.190909090909088,
                "pitch": 51,
                "velocity": 51,
                "duration": 0.08409090909090722,
                "tempo": 120.0
            },
            {
                "start_time": 31.190909090909088,
                "end_time": 31.275,
                "pitch": 51,
                "velocity": 51,
                "duration": 0.08409090909091077,
                "tempo": 120.0
            },
            {
                "start_time": 31.275,
                "end_time": 31.359090909090906,
                "pitch": 50,
                "velocity": 51,
                "duration": 0.08409090909090722,
                "tempo": 120.0
            },
            {
                "start_time": 31.359090909090906,
                "end_time": 31.440909090909088,
                "pitch": 50,
                "velocity": 51,
                "duration": 0.08181818181818201,
                "tempo": 120.0
            },
            {
                "start_time": 31.440909090909088,
                "end_time": 31.525,
                "pitch": 51,
                "velocity": 51,
                "duration": 0.08409090909091077,
                "tempo": 120.0
            },
            {
                "start_time": 31.525,
                "end_time": 31.609090909090906,
                "pitch": 51,
                "velocity": 51,
                "duration": 0.08409090909090722,
                "tempo": 120.0
            }
        ],
        "Acoustic Bass": [
            {
                "start_time": 0.022727272727272728,
                "end_time": 0.18863636363636363,
                "pitch": 41,
                "velocity": 101,
                "duration": 0.1659090909090909,
                "tempo": 120.0
            },
            {
                "start_time": 0.18863636363636363,
                "end_time": 0.3568181818181818,
                "pitch": 41,
                "velocity": 101,
                "duration": 0.16818181818181818,
                "tempo": 120.0
            },
            {
                "start_time": 0.3568181818181818,
                "end_time": 0.5272727272727272,
                "pitch": 41,
                "velocity": 101,
                "duration": 0.17045454545454541,
                "tempo": 120.0
            },
            {
                "start_time": 0.5272727272727272,
                "end_time": 0.7,
                "pitch": 41,
                "velocity": 101,
                "duration": 0.17272727272727273,
                "tempo": 120.0
            },
            {
                "start_time": 0.7,
                "end_time": 0.8659090909090909,
                "pitch": 41,
                "velocity": 101,
                "duration": 0.1659090909090909,
                "tempo": 120.0
            },
            {
                "start_time": 0.8659090909090909,
                "end_time": 1.034090909090909,
                "pitch": 41,
                "velocity": 101,
                "duration": 0.1681818181818181,
                "tempo": 120.0
            },
            {
                "start_time": 1.034090909090909,
                "end_time": 1.2,
                "pitch": 41,
                "velocity": 101,
                "duration": 0.165909090909091,
                "tempo": 120.0
            },
            {
                "start_time": 1.2,
                "end_time": 1.3659090909090907,
                "pitch": 41,
                "velocity": 101,
                "duration": 0.16590909090909078,
                "tempo": 120.0
            },
            {
                "start_time": 1.3659090909090907,
                "end_time": 1.534090909090909,
                "pitch": 41,
                "velocity": 101,
                "duration": 0.1681818181818182,
                "tempo": 120.0
            },
            {
                "start_time": 1.534090909090909,
                "end_time": 1.7,
                "pitch": 41,
                "velocity": 101,
                "duration": 0.165909090909091,
                "tempo": 120.0
            },
            {
                "start_time": 1.7,
                "end_time": 1.8681818181818182,
                "pitch": 41,
                "velocity": 101,
                "duration": 0.1681818181818182,
                "tempo": 120.0
            },
            {
                "start_time": 1.8681818181818182,
                "end_time": 2.018181818181818,
                "pitch": 41,
                "velocity": 101,
                "duration": 0.1499999999999999,
                "tempo": 120.0
            },
            {
                "start_time": 2.018181818181818,
                "end_time": 2.184090909090909,
                "pitch": 41,
                "velocity": 101,
                "duration": 0.165909090909091,
                "tempo": 120.0
            },
            {
                "start_time": 2.184090909090909,
                "end_time": 2.352272727272727,
                "pitch": 41,
                "velocity": 101,
                "duration": 0.168181818181818,
                "tempo": 120.0
            },
            {
                "start_time": 2.352272727272727,
                "end_time": 2.5136363636363637,
                "pitch": 41,
                "velocity": 101,
                "duration": 0.1613636363636366,
                "tempo": 120.0
            },
            {
                "start_time": 2.5136363636363637,
                "end_time": 2.675,
                "pitch": 41,
                "velocity": 101,
                "duration": 0.16136363636363615,
                "tempo": 120.0
            },
            {
                "start_time": 2.675,
                "end_time": 2.840909090909091,
                "pitch": 45,
                "velocity": 101,
                "duration": 0.165909090909091,
                "tempo": 120.0
            },
            {
                "start_time": 2.840909090909091,
                "end_time": 3.009090909090909,
                "pitch": 45,
                "velocity": 101,
                "duration": 0.168181818181818,
                "tempo": 120.0
            },
            {
                "start_time": 3.009090909090909,
                "end_time": 3.175,
                "pitch": 45,
                "velocity": 101,
                "duration": 0.165909090909091,
                "tempo": 120.0
            },
            {
                "start_time": 3.175,
                "end_time": 3.343181818181818,
                "pitch": 45,
                "velocity": 101,
                "duration": 0.168181818181818,
                "tempo": 120.0
            },
            {
                "start_time": 3.343181818181818,
                "end_time": 3.5136363636363637,
                "pitch": 45,
                "velocity": 101,
                "duration": 0.17045454545454586,
                "tempo": 120.0
            },
            {
                "start_time": 3.5136363636363637,
                "end_time": 3.686363636363636,
                "pitch": 45,
                "velocity": 101,
                "duration": 0.1727272727272724,
                "tempo": 120.0
            },
            {
                "start_time": 3.686363636363636,
                "end_time": 3.836363636363636,
                "pitch": 45,
                "velocity": 101,
                "duration": 0.1499999999999999,
                "tempo": 120.0
            },
            {
                "start_time": 3.836363636363636,
                "end_time": 4.002272727272727,
                "pitch": 45,
                "velocity": 101,
                "duration": 0.165909090909091,
                "tempo": 120.0
            },
            {
                "start_time": 4.002272727272727,
                "end_time": 4.163636363636363,
                "pitch": 45,
                "velocity": 101,
                "duration": 0.16136363636363615,
                "tempo": 120.0
            },
            {
                "start_time": 4.163636363636363,
                "end_time": 4.325,
                "pitch": 45,
                "velocity": 101,
                "duration": 0.16136363636363704,
                "tempo": 120.0
            },
            {
                "start_time": 4.325,
                "end_time": 4.493181818181818,
                "pitch": 45,
                "velocity": 101,
                "duration": 0.168181818181818,
                "tempo": 120.0
            },
            {
                "start_time": 4.493181818181818,
                "end_time": 4.659090909090909,
                "pitch": 45,
                "velocity": 101,
                "duration": 0.165909090909091,
                "tempo": 120.0
            },
            {
                "start_time": 4.659090909090909,
                "end_time": 4.825,
                "pitch": 45,
                "velocity": 101,
                "duration": 0.165909090909091,
                "tempo": 120.0
            },
            {
                "start_time": 4.825,
                "end_time": 4.993181818181818,
                "pitch": 45,
                "velocity": 101,
                "duration": 0.168181818181818,
                "tempo": 120.0
            },
            {
                "start_time": 4.993181818181818,
                "end_time": 5.159090909090909,
                "pitch": 45,
                "velocity": 101,
                "duration": 0.165909090909091,
                "tempo": 120.0
            },
            {
                "start_time": 5.159090909090909,
                "end_time": 5.327272727272727,
                "pitch": 44,
                "velocity": 101,
                "duration": 0.168181818181818,
                "tempo": 120.0
            },
            {
                "start_time": 5.327272727272727,
                "end_time": 5.497727272727272,
                "pitch": 41,
                "velocity": 101,
                "duration": 0.17045454545454497,
                "tempo": 120.0
            },
            {
                "start_time": 5.497727272727272,
                "end_time": 5.652272727272727,
                "pitch": 41,
                "velocity": 101,
                "duration": 0.1545454545454552,
                "tempo": 120.0
            },
            {
                "start_time": 5.652272727272727,
                "end_time": 5.809090909090909,
                "pitch": 41,
                "velocity": 101,
                "duration": 0.1568181818181813,
                "tempo": 120.0
            },
            {
                "start_time": 5.809090909090909,
                "end_time": 5.965909090909091,
                "pitch": 41,
                "velocity": 101,
                "duration": 0.1568181818181822,
                "tempo": 120.0
            },
            {
                "start_time": 5.965909090909091,
                "end_time": 6.136363636363636,
                "pitch": 41,
                "velocity": 101,
                "duration": 0.17045454545454497,
                "tempo": 120.0
            },
            {
                "start_time": 6.136363636363636,
                "end_time": 6.309090909090909,
                "pitch": 41,
                "velocity": 101,
                "duration": 0.17272727272727284,
                "tempo": 120.0
            },
            {
                "start_time": 6.309090909090909,
                "end_time": 6.470454545454545,
                "pitch": 41,
                "velocity": 101,
                "duration": 0.16136363636363615,
                "tempo": 120.0
            },
            {
                "start_time": 6.470454545454545,
                "end_time": 6.631818181818182,
                "pitch": 41,
                "velocity": 101,
                "duration": 0.16136363636363704,
                "tempo": 120.0
            },
            {
                "start_time": 6.631818181818182,
                "end_time": 6.802272727272727,
                "pitch": 41,
                "velocity": 101,
                "duration": 0.17045454545454497,
                "tempo": 120.0
            },
            {
                "start_time": 6.802272727272727,
                "end_time": 6.972727272727273,
                "pitch": 41,
                "velocity": 101,
                "duration": 0.17045454545454586,
                "tempo": 120.0
            },
            {
                "start_time": 6.972727272727273,
                "end_time": 7.140909090909091,
                "pitch": 41,
                "velocity": 101,
                "duration": 0.168181818181818,
                "tempo": 120.0
            },
            {
                "start_time": 7.140909090909091,
                "end_time": 7.306818181818182,
                "pitch": 41,
                "velocity": 101,
                "duration": 0.165909090909091,
                "tempo": 120.0
            },
            {
                "start_time": 7.306818181818182,
                "end_time": 7.456818181818181,
                "pitch": 41,
                "velocity": 101,
                "duration": 0.14999999999999947,
                "tempo": 120.0
            },
            {
                "start_time": 7.456818181818181,
                "end_time": 7.625,
                "pitch": 41,
                "velocity": 101,
                "duration": 0.16818181818181888,
                "tempo": 120.0
            },
            {
                "start_time": 7.625,
                "end_time": 7.786363636363636,
                "pitch": 41,
                "velocity": 101,
                "duration": 0.16136363636363615,
                "tempo": 120.0
            },
            {
                "start_time": 7.786363636363636,
                "end_time": 7.947727272727272,
                "pitch": 41,
                "velocity": 101,
                "duration": 0.16136363636363615,
                "tempo": 120.0
            },
            {
                "start_time": 7.947727272727272,
                "end_time": 8.118181818181817,
                "pitch": 36,
                "velocity": 101,
                "duration": 0.17045454545454497,
                "tempo": 120.0
            },
            {
                "start_time": 8.118181818181817,
                "end_time": 8.290909090909091,
                "pitch": 36,
                "velocity": 101,
                "duration": 0.17272727272727373,
                "tempo": 120.0
            },
            {
                "start_time": 8.290909090909091,
                "end_time": 8.452272727272726,
                "pitch": 36,
                "velocity": 101,
                "duration": 0.16136363636363527,
                "tempo": 120.0
            },
            {
                "start_time": 8.452272727272726,
                "end_time": 8.613636363636363,
                "pitch": 36,
                "velocity": 101,
                "duration": 0.16136363636363704,
                "tempo": 120.0
            },
            {
                "start_time": 8.613636363636363,
                "end_time": 8.779545454545454,
                "pitch": 36,
                "velocity": 101,
                "duration": 0.165909090909091,
                "tempo": 120.0
            },
            {
                "start_time": 8.779545454545454,
                "end_time": 8.947727272727272,
                "pitch": 36,
                "velocity": 101,
                "duration": 0.168181818181818,
                "tempo": 120.0
            },
            {
                "start_time": 8.947727272727272,
                "end_time": 9.113636363636363,
                "pitch": 36,
                "velocity": 101,
                "duration": 0.165909090909091,
                "tempo": 120.0
            },
            {
                "start_time": 9.113636363636363,
                "end_time": 9.263636363636364,
                "pitch": 36,
                "velocity": 101,
                "duration": 0.15000000000000036,
                "tempo": 120.0
            },
            {
                "start_time": 9.263636363636364,
                "end_time": 9.431818181818182,
                "pitch": 36,
                "velocity": 101,
                "duration": 0.168181818181818,
                "tempo": 120.0
            },
            {
                "start_time": 9.431818181818182,
                "end_time": 9.597727272727273,
                "pitch": 36,
                "velocity": 101,
                "duration": 0.165909090909091,
                "tempo": 120.0
            },
            {
                "start_time": 9.597727272727273,
                "end_time": 9.759090909090908,
                "pitch": 36,
                "velocity": 101,
                "duration": 0.16136363636363527,
                "tempo": 120.0
            },
            {
                "start_time": 9.759090909090908,
                "end_time": 9.920454545454545,
                "pitch": 36,
                "velocity": 101,
                "duration": 0.16136363636363704,
                "tempo": 120.0
            },
            {
                "start_time": 9.920454545454545,
                "end_time": 10.09090909090909,
                "pitch": 36,
                "velocity": 101,
                "duration": 0.17045454545454497,
                "tempo": 120.0
            },
            {
                "start_time": 10.09090909090909,
                "end_time": 10.263636363636364,
                "pitch": 36,
                "velocity": 101,
                "duration": 0.17272727272727373,
                "tempo": 120.0
            },
            {
                "start_time": 10.263636363636364,
                "end_time": 10.424999999999999,
                "pitch": 36,
                "velocity": 101,
                "duration": 0.16136363636363527,
                "tempo": 120.0
            },
            {
                "start_time": 10.424999999999999,
                "end_time": 10.586363636363636,
                "pitch": 36,
                "velocity": 101,
                "duration": 0.16136363636363704,
                "tempo": 120.0
            },
            {
                "start_time": 10.586363636363636,
                "end_time": 10.756818181818181,
                "pitch": 39,
                "velocity": 101,
                "duration": 0.17045454545454497,
                "tempo": 120.0
            },
            {
                "start_time": 10.756818181818181,
                "end_time": 10.929545454545455,
                "pitch": 39,
                "velocity": 101,
                "duration": 0.17272727272727373,
                "tempo": 120.0
            },
            {
                "start_time": 10.929545454545455,
                "end_time": 11.079545454545453,
                "pitch": 46,
                "velocity": 101,
                "duration": 0.14999999999999858,
                "tempo": 120.0
            },
            {
                "start_time": 10.929545454545455,
                "end_time": 11.247727272727273,
                "pitch": 51,
                "velocity": 101,
                "duration": 0.31818181818181834,
                "tempo": 120.0
            },
            {
                "start_time": 11.079545454545453,
                "end_time": 11.247727272727273,
                "pitch": 51,
                "velocity": 101,
                "duration": 0.16818181818181976,
                "tempo": 120.0
            },
            {
                "start_time": 11.247727272727273,
                "end_time": 11.409090909090908,
                "pitch": 39,
                "velocity": 101,
                "duration": 0.16136363636363527,
                "tempo": 120.0
            },
            {
                "start_time": 11.409090909090908,
                "end_time": 11.570454545454545,
                "pitch": 39,
                "velocity": 101,
                "duration": 0.16136363636363704,
                "tempo": 120.0
            },
            {
                "start_time": 11.079545454545453,
                "end_time": 11.736363636363636,
                "pitch": 46,
                "velocity": 101,
                "duration": 0.6568181818181831,
                "tempo": 120.0
            },
            {
                "start_time": 11.570454545454545,
                "end_time": 11.736363636363636,
                "pitch": 46,
                "velocity": 101,
                "duration": 0.165909090909091,
                "tempo": 120.0
            },
            {
                "start_time": 11.570454545454545,
                "end_time": 11.904545454545454,
                "pitch": 51,
                "velocity": 101,
                "duration": 0.334090909090909,
                "tempo": 120.0
            },
            {
                "start_time": 11.736363636363636,
                "end_time": 11.904545454545454,
                "pitch": 51,
                "velocity": 101,
                "duration": 0.168181818181818,
                "tempo": 120.0
            },
            {
                "start_time": 7.947727272727272,
                "end_time": 12.070454545454545,
                "pitch": 41,
                "velocity": 101,
                "duration": 4.122727272727273,
                "tempo": 120.0
            },
            {
                "start_time": 11.904545454545454,
                "end_time": 12.070454545454545,
                "pitch": 41,
                "velocity": 101,
                "duration": 0.165909090909091,
                "tempo": 120.0
            },
            {
                "start_time": 12.070454545454545,
                "end_time": 12.236363636363636,
                "pitch": 41,
                "velocity": 101,
                "duration": 0.165909090909091,
                "tempo": 120.0
            },
            {
                "start_time": 12.236363636363636,
                "end_time": 12.404545454545454,
                "pitch": 48,
                "velocity": 101,
                "duration": 0.168181818181818,
                "tempo": 120.0
            },
            {
                "start_time": 2.675,
                "end_time": 12.570454545454545,
                "pitch": 53,
                "velocity": 101,
                "duration": 9.895454545454545,
                "tempo": 120.0
            },
            {
                "start_time": 12.404545454545454,
                "end_time": 12.570454545454545,
                "pitch": 53,
                "velocity": 101,
                "duration": 0.165909090909091,
                "tempo": 120.0
            },
            {
                "start_time": 12.570454545454545,
                "end_time": 12.738636363636363,
                "pitch": 41,
                "velocity": 101,
                "duration": 0.168181818181818,
                "tempo": 120.0
            },
            {
                "start_time": 12.738636363636363,
                "end_time": 12.888636363636364,
                "pitch": 41,
                "velocity": 101,
                "duration": 0.15000000000000036,
                "tempo": 120.0
            },
            {
                "start_time": 12.404545454545454,
                "end_time": 13.054545454545455,
                "pitch": 48,
                "velocity": 101,
                "duration": 0.6500000000000004,
                "tempo": 120.0
            },
            {
                "start_time": 12.888636363636364,
                "end_time": 13.054545454545455,
                "pitch": 48,
                "velocity": 101,
                "duration": 0.165909090909091,
                "tempo": 120.0
            },
            {
                "start_time": 12.888636363636364,
                "end_time": 13.222727272727273,
                "pitch": 53,
                "velocity": 101,
                "duration": 0.334090909090909,
                "tempo": 120.0
            },
            {
                "start_time": 13.054545454545455,
                "end_time": 13.222727272727273,
                "pitch": 53,
                "velocity": 101,
                "duration": 0.168181818181818,
                "tempo": 120.0
            },
            {
                "start_time": 13.222727272727273,
                "end_time": 13.384090909090908,
                "pitch": 43,
                "velocity": 101,
                "duration": 0.16136363636363527,
                "tempo": 120.0
            },
            {
                "start_time": 13.384090909090908,
                "end_time": 13.545454545454545,
                "pitch": 43,
                "velocity": 101,
                "duration": 0.16136363636363704,
                "tempo": 120.0
            },
            {
                "start_time": 13.545454545454545,
                "end_time": 13.711363636363636,
                "pitch": 43,
                "velocity": 101,
                "duration": 0.165909090909091,
                "tempo": 120.0
            },
            {
                "start_time": 13.711363636363636,
                "end_time": 13.879545454545454,
                "pitch": 43,
                "velocity": 101,
                "duration": 0.168181818181818,
                "tempo": 120.0
            },
            {
                "start_time": 13.879545454545454,
                "end_time": 14.049999999999999,
                "pitch": 43,
                "velocity": 101,
                "duration": 0.17045454545454497,
                "tempo": 120.0
            },
            {
                "start_time": 14.049999999999999,
                "end_time": 14.222727272727273,
                "pitch": 43,
                "velocity": 101,
                "duration": 0.17272727272727373,
                "tempo": 120.0
            },
            {
                "start_time": 14.222727272727273,
                "end_time": 14.388636363636364,
                "pitch": 43,
                "velocity": 101,
                "duration": 0.165909090909091,
                "tempo": 120.0
            },
            {
                "start_time": 14.388636363636364,
                "end_time": 14.556818181818182,
                "pitch": 43,
                "velocity": 101,
                "duration": 0.168181818181818,
                "tempo": 120.0
            },
            {
                "start_time": 14.556818181818182,
                "end_time": 14.70681818181818,
                "pitch": 43,
                "velocity": 101,
                "duration": 0.14999999999999858,
                "tempo": 120.0
            },
            {
                "start_time": 14.70681818181818,
                "end_time": 14.872727272727271,
                "pitch": 43,
                "velocity": 101,
                "duration": 0.165909090909091,
                "tempo": 120.0
            },
            {
                "start_time": 14.872727272727271,
                "end_time": 15.034090909090908,
                "pitch": 43,
                "velocity": 101,
                "duration": 0.16136363636363704,
                "tempo": 120.0
            },
            {
                "start_time": 15.034090909090908,
                "end_time": 15.195454545454545,
                "pitch": 43,
                "velocity": 101,
                "duration": 0.16136363636363704,
                "tempo": 120.0
            },
            {
                "start_time": 15.195454545454545,
                "end_time": 15.363636363636363,
                "pitch": 43,
                "velocity": 101,
                "duration": 0.168181818181818,
                "tempo": 120.0
            },
            {
                "start_time": 15.363636363636363,
                "end_time": 15.529545454545454,
                "pitch": 43,
                "velocity": 101,
                "duration": 0.165909090909091,
                "tempo": 120.0
            },
            {
                "start_time": 15.529545454545454,
                "end_time": 15.695454545454545,
                "pitch": 43,
                "velocity": 101,
                "duration": 0.165909090909091,
                "tempo": 120.0
            },
            {
                "start_time": 0.022727272727272728,
                "end_time": 15.863636363636363,
                "pitch": 31,
                "velocity": 101,
                "duration": 15.84090909090909,
                "tempo": 120.0
            },
            {
                "start_time": 15.695454545454545,
                "end_time": 15.863636363636363,
                "pitch": 43,
                "velocity": 101,
                "duration": 0.168181818181818,
                "tempo": 120.0
            },
            {
                "start_time": 11.904545454545454,
                "end_time": 16.03409090909091,
                "pitch": 39,
                "velocity": 101,
                "duration": 4.129545454545456,
                "tempo": 120.0
            },
            {
                "start_time": 15.863636363636363,
                "end_time": 16.03409090909091,
                "pitch": 39,
                "velocity": 101,
                "duration": 0.17045454545454675,
                "tempo": 120.0
            },
            {
                "start_time": 16.03409090909091,
                "end_time": 16.206818181818182,
                "pitch": 39,
                "velocity": 101,
                "duration": 0.17272727272727195,
                "tempo": 120.0
            },
            {
                "start_time": 16.206818181818182,
                "end_time": 16.368181818181817,
                "pitch": 39,
                "velocity": 101,
                "duration": 0.16136363636363527,
                "tempo": 120.0
            },
            {
                "start_time": 16.368181818181817,
                "end_time": 16.513636363636362,
                "pitch": 39,
                "velocity": 101,
                "duration": 0.14545454545454461,
                "tempo": 120.0
            },
            {
                "start_time": 16.513636363636362,
                "end_time": 16.675,
                "pitch": 39,
                "velocity": 101,
                "duration": 0.16136363636363882,
                "tempo": 120.0
            },
            {
                "start_time": 16.675,
                "end_time": 16.836363636363636,
                "pitch": 39,
                "velocity": 101,
                "duration": 0.16136363636363527,
                "tempo": 120.0
            },
            {
                "start_time": 16.836363636363636,
                "end_time": 17.002272727272725,
                "pitch": 39,
                "velocity": 101,
                "duration": 0.16590909090908923,
                "tempo": 120.0
            },
            {
                "start_time": 17.002272727272725,
                "end_time": 17.170454545454543,
                "pitch": 39,
                "velocity": 101,
                "duration": 0.168181818181818,
                "tempo": 120.0
            },
            {
                "start_time": 17.170454545454543,
                "end_time": 17.34090909090909,
                "pitch": 41,
                "velocity": 101,
                "duration": 0.17045454545454675,
                "tempo": 120.0
            },
            {
                "start_time": 17.34090909090909,
                "end_time": 17.513636363636362,
                "pitch": 41,
                "velocity": 101,
                "duration": 0.17272727272727195,
                "tempo": 120.0
            },
            {
                "start_time": 17.513636363636362,
                "end_time": 17.679545454545455,
                "pitch": 41,
                "velocity": 101,
                "duration": 0.16590909090909278,
                "tempo": 120.0
            },
            {
                "start_time": 17.679545454545455,
                "end_time": 17.847727272727273,
                "pitch": 41,
                "velocity": 101,
                "duration": 0.168181818181818,
                "tempo": 120.0
            },
            {
                "start_time": 17.847727272727273,
                "end_time": 18.013636363636362,
                "pitch": 41,
                "velocity": 101,
                "duration": 0.16590909090908923,
                "tempo": 120.0
            },
            {
                "start_time": 18.013636363636362,
                "end_time": 18.18181818181818,
                "pitch": 41,
                "velocity": 101,
                "duration": 0.168181818181818,
                "tempo": 120.0
            },
            {
                "start_time": 18.18181818181818,
                "end_time": 18.331818181818182,
                "pitch": 41,
                "velocity": 101,
                "duration": 0.15000000000000213,
                "tempo": 120.0
            },
            {
                "start_time": 18.331818181818182,
                "end_time": 18.49772727272727,
                "pitch": 41,
                "velocity": 101,
                "duration": 0.16590909090908923,
                "tempo": 120.0
            },
            {
                "start_time": 13.222727272727273,
                "end_time": 18.49772727272727,
                "pitch": 53,
                "velocity": 101,
                "duration": 5.274999999999999,
                "tempo": 120.0
            },
            {
                "start_time": 18.49772727272727,
                "end_time": 18.659090909090907,
                "pitch": 43,
                "velocity": 101,
                "duration": 0.16136363636363527,
                "tempo": 120.0
            },
            {
                "start_time": 18.659090909090907,
                "end_time": 18.820454545454545,
                "pitch": 43,
                "velocity": 101,
                "duration": 0.16136363636363882,
                "tempo": 120.0
            },
            {
                "start_time": 18.820454545454545,
                "end_time": 18.99090909090909,
                "pitch": 43,
                "velocity": 101,
                "duration": 0.1704545454545432,
                "tempo": 120.0
            },
            {
                "start_time": 18.99090909090909,
                "end_time": 19.163636363636364,
                "pitch": 43,
                "velocity": 101,
                "duration": 0.1727272727272755,
                "tempo": 120.0
            },
            {
                "start_time": 19.163636363636364,
                "end_time": 19.325,
                "pitch": 43,
                "velocity": 101,
                "duration": 0.16136363636363527,
                "tempo": 120.0
            },
            {
                "start_time": 19.325,
                "end_time": 19.486363636363635,
                "pitch": 43,
                "velocity": 101,
                "duration": 0.16136363636363527,
                "tempo": 120.0
            },
            {
                "start_time": 19.486363636363635,
                "end_time": 19.65681818181818,
                "pitch": 43,
                "velocity": 101,
                "duration": 0.17045454545454675,
                "tempo": 120.0
            },
            {
                "start_time": 19.65681818181818,
                "end_time": 19.829545454545453,
                "pitch": 43,
                "velocity": 101,
                "duration": 0.17272727272727195,
                "tempo": 120.0
            },
            {
                "start_time": 19.829545454545453,
                "end_time": 19.995454545454546,
                "pitch": 43,
                "velocity": 101,
                "duration": 0.16590909090909278,
                "tempo": 120.0
            },
            {
                "start_time": 19.995454545454546,
                "end_time": 20.145454545454545,
                "pitch": 43,
                "velocity": 101,
                "duration": 0.14999999999999858,
                "tempo": 120.0
            },
            {
                "start_time": 20.145454545454545,
                "end_time": 20.30909090909091,
                "pitch": 43,
                "velocity": 101,
                "duration": 0.16363636363636402,
                "tempo": 120.0
            },
            {
                "start_time": 20.30909090909091,
                "end_time": 20.470454545454544,
                "pitch": 43,
                "velocity": 101,
                "duration": 0.16136363636363527,
                "tempo": 120.0
            },
            {
                "start_time": 20.470454545454544,
                "end_time": 20.63181818181818,
                "pitch": 43,
                "velocity": 101,
                "duration": 0.16136363636363527,
                "tempo": 120.0
            },
            {
                "start_time": 20.63181818181818,
                "end_time": 20.793181818181818,
                "pitch": 43,
                "velocity": 101,
                "duration": 0.16136363636363882,
                "tempo": 120.0
            },
            {
                "start_time": 20.793181818181818,
                "end_time": 20.959090909090907,
                "pitch": 43,
                "velocity": 101,
                "duration": 0.16590909090908923,
                "tempo": 120.0
            },
            {
                "start_time": 15.863636363636363,
                "end_time": 21.127272727272725,
                "pitch": 31,
                "velocity": 101,
                "duration": 5.263636363636362,
                "tempo": 120.0
            },
            {
                "start_time": 20.959090909090907,
                "end_time": 21.127272727272725,
                "pitch": 43,
                "velocity": 101,
                "duration": 0.168181818181818,
                "tempo": 120.0
            },
            {
                "start_time": 17.170454545454543,
                "end_time": 21.297727272727272,
                "pitch": 39,
                "velocity": 101,
                "duration": 4.127272727272729,
                "tempo": 120.0
            },
            {
                "start_time": 21.127272727272725,
                "end_time": 21.297727272727272,
                "pitch": 39,
                "velocity": 101,
                "duration": 0.17045454545454675,
                "tempo": 120.0
            },
            {
                "start_time": 21.297727272727272,
                "end_time": 21.470454545454544,
                "pitch": 39,
                "velocity": 101,
                "duration": 0.17272727272727195,
                "tempo": 120.0
            },
            {
                "start_time": 21.470454545454544,
                "end_time": 21.636363636363637,
                "pitch": 39,
                "velocity": 101,
                "duration": 0.16590909090909278,
                "tempo": 120.0
            },
            {
                "start_time": 21.636363636363637,
                "end_time": 21.804545454545455,
                "pitch": 39,
                "velocity": 101,
                "duration": 0.168181818181818,
                "tempo": 120.0
            },
            {
                "start_time": 21.804545454545455,
                "end_time": 21.954545454545453,
                "pitch": 39,
                "velocity": 101,
                "duration": 0.14999999999999858,
                "tempo": 120.0
            },
            {
                "start_time": 21.954545454545453,
                "end_time": 22.120454545454546,
                "pitch": 39,
                "velocity": 101,
                "duration": 0.16590909090909278,
                "tempo": 120.0
            },
            {
                "start_time": 22.120454545454546,
                "end_time": 22.288636363636364,
                "pitch": 39,
                "velocity": 101,
                "duration": 0.168181818181818,
                "tempo": 120.0
            },
            {
                "start_time": 22.288636363636364,
                "end_time": 22.454545454545453,
                "pitch": 39,
                "velocity": 101,
                "duration": 0.16590909090908923,
                "tempo": 120.0
            },
            {
                "start_time": 22.454545454545453,
                "end_time": 22.61590909090909,
                "pitch": 41,
                "velocity": 101,
                "duration": 0.16136363636363527,
                "tempo": 120.0
            },
            {
                "start_time": 22.61590909090909,
                "end_time": 22.777272727272727,
                "pitch": 41,
                "velocity": 101,
                "duration": 0.16136363636363882,
                "tempo": 120.0
            },
            {
                "start_time": 22.777272727272727,
                "end_time": 22.945454545454545,
                "pitch": 41,
                "velocity": 101,
                "duration": 0.168181818181818,
                "tempo": 120.0
            },
            {
                "start_time": 22.945454545454545,
                "end_time": 23.111363636363635,
                "pitch": 41,
                "velocity": 101,
                "duration": 0.16590909090908923,
                "tempo": 120.0
            },
            {
                "start_time": 23.111363636363635,
                "end_time": 23.279545454545453,
                "pitch": 41,
                "velocity": 101,
                "duration": 0.168181818181818,
                "tempo": 120.0
            },
            {
                "start_time": 23.279545454545453,
                "end_time": 23.445454545454545,
                "pitch": 41,
                "velocity": 101,
                "duration": 0.16590909090909278,
                "tempo": 120.0
            },
            {
                "start_time": 23.445454545454545,
                "end_time": 23.61590909090909,
                "pitch": 41,
                "velocity": 101,
                "duration": 0.1704545454545432,
                "tempo": 120.0
            },
            {
                "start_time": 23.61590909090909,
                "end_time": 23.770454545454545,
                "pitch": 41,
                "velocity": 101,
                "duration": 0.1545454545454561,
                "tempo": 120.0
            },
            {
                "start_time": 23.770454545454545,
                "end_time": 23.93409090909091,
                "pitch": 38,
                "velocity": 101,
                "duration": 0.16363636363636402,
                "tempo": 120.0
            },
            {
                "start_time": 23.93409090909091,
                "end_time": 24.095454545454544,
                "pitch": 38,
                "velocity": 101,
                "duration": 0.16136363636363527,
                "tempo": 120.0
            },
            {
                "start_time": 24.095454545454544,
                "end_time": 24.261363636363637,
                "pitch": 38,
                "velocity": 101,
                "duration": 0.16590909090909278,
                "tempo": 120.0
            },
            {
                "start_time": 24.261363636363637,
                "end_time": 24.427272727272726,
                "pitch": 38,
                "velocity": 101,
                "duration": 0.16590909090908923,
                "tempo": 120.0
            },
            {
                "start_time": 24.427272727272726,
                "end_time": 24.595454545454544,
                "pitch": 38,
                "velocity": 101,
                "duration": 0.168181818181818,
                "tempo": 120.0
            },
            {
                "start_time": 24.595454545454544,
                "end_time": 24.761363636363637,
                "pitch": 38,
                "velocity": 101,
                "duration": 0.16590909090909278,
                "tempo": 120.0
            },
            {
                "start_time": 24.761363636363637,
                "end_time": 24.929545454545455,
                "pitch": 38,
                "velocity": 101,
                "duration": 0.168181818181818,
                "tempo": 120.0
            },
            {
                "start_time": 24.929545454545455,
                "end_time": 25.095454545454544,
                "pitch": 38,
                "velocity": 101,
                "duration": 0.16590909090908923,
                "tempo": 120.0
            },
            {
                "start_time": 25.095454545454544,
                "end_time": 25.263636363636362,
                "pitch": 38,
                "velocity": 101,
                "duration": 0.168181818181818,
                "tempo": 120.0
            },
            {
                "start_time": 25.263636363636362,
                "end_time": 25.429545454545455,
                "pitch": 38,
                "velocity": 101,
                "duration": 0.16590909090909278,
                "tempo": 120.0
            },
            {
                "start_time": 25.429545454545455,
                "end_time": 25.579545454545453,
                "pitch": 38,
                "velocity": 101,
                "duration": 0.14999999999999858,
                "tempo": 120.0
            },
            {
                "start_time": 25.579545454545453,
                "end_time": 25.745454545454542,
                "pitch": 38,
                "velocity": 101,
                "duration": 0.16590909090908923,
                "tempo": 120.0
            },
            {
                "start_time": 25.745454545454542,
                "end_time": 25.909090909090907,
                "pitch": 38,
                "velocity": 101,
                "duration": 0.16363636363636402,
                "tempo": 120.0
            },
            {
                "start_time": 25.909090909090907,
                "end_time": 26.070454545454545,
                "pitch": 38,
                "velocity": 101,
                "duration": 0.16136363636363882,
                "tempo": 120.0
            },
            {
                "start_time": 26.070454545454545,
                "end_time": 26.236363636363635,
                "pitch": 38,
                "velocity": 101,
                "duration": 0.16590909090908923,
                "tempo": 120.0
            },
            {
                "start_time": 26.236363636363635,
                "end_time": 26.404545454545453,
                "pitch": 38,
                "velocity": 101,
                "duration": 0.168181818181818,
                "tempo": 120.0
            },
            {
                "start_time": 26.404545454545453,
                "end_time": 26.575,
                "pitch": 43,
                "velocity": 101,
                "duration": 0.17045454545454675,
                "tempo": 120.0
            },
            {
                "start_time": 26.575,
                "end_time": 26.745454545454542,
                "pitch": 43,
                "velocity": 101,
                "duration": 0.1704545454545432,
                "tempo": 120.0
            },
            {
                "start_time": 26.745454545454542,
                "end_time": 26.913636363636364,
                "pitch": 43,
                "velocity": 101,
                "duration": 0.16818181818182154,
                "tempo": 120.0
            },
            {
                "start_time": 26.913636363636364,
                "end_time": 27.079545454545453,
                "pitch": 43,
                "velocity": 101,
                "duration": 0.16590909090908923,
                "tempo": 120.0
            },
            {
                "start_time": 27.079545454545453,
                "end_time": 27.24772727272727,
                "pitch": 43,
                "velocity": 101,
                "duration": 0.168181818181818,
                "tempo": 120.0
            },
            {
                "start_time": 27.24772727272727,
                "end_time": 27.413636363636364,
                "pitch": 43,
                "velocity": 101,
                "duration": 0.16590909090909278,
                "tempo": 120.0
            },
            {
                "start_time": 27.413636363636364,
                "end_time": 27.563636363636363,
                "pitch": 43,
                "velocity": 101,
                "duration": 0.14999999999999858,
                "tempo": 120.0
            },
            {
                "start_time": 27.563636363636363,
                "end_time": 27.73181818181818,
                "pitch": 43,
                "velocity": 101,
                "duration": 0.168181818181818,
                "tempo": 120.0
            },
            {
                "start_time": 27.73181818181818,
                "end_time": 27.893181818181816,
                "pitch": 43,
                "velocity": 101,
                "duration": 0.16136363636363527,
                "tempo": 120.0
            },
            {
                "start_time": 27.893181818181816,
                "end_time": 28.054545454545455,
                "pitch": 43,
                "velocity": 101,
                "duration": 0.16136363636363882,
                "tempo": 120.0
            },
            {
                "start_time": 28.054545454545455,
                "end_time": 28.220454545454544,
                "pitch": 43,
                "velocity": 101,
                "duration": 0.16590909090908923,
                "tempo": 120.0
            },
            {
                "start_time": 28.220454545454544,
                "end_time": 28.388636363636362,
                "pitch": 43,
                "velocity": 101,
                "duration": 0.168181818181818,
                "tempo": 120.0
            },
            {
                "start_time": 28.388636363636362,
                "end_time": 28.554545454545455,
                "pitch": 43,
                "velocity": 101,
                "duration": 0.16590909090909278,
                "tempo": 120.0
            },
            {
                "start_time": 10.586363636363636,
                "end_time": 28.722727272727273,
                "pitch": 36,
                "velocity": 101,
                "duration": 18.136363636363637,
                "tempo": 120.0
            },
            {
                "start_time": 28.554545454545455,
                "end_time": 28.722727272727273,
                "pitch": 36,
                "velocity": 101,
                "duration": 0.168181818181818,
                "tempo": 120.0
            },
            {
                "start_time": 28.722727272727273,
                "end_time": 28.888636363636362,
                "pitch": 36,
                "velocity": 101,
                "duration": 0.16590909090908923,
                "tempo": 120.0
            },
            {
                "start_time": 28.888636363636362,
                "end_time": 29.05681818181818,
                "pitch": 37,
                "velocity": 101,
                "duration": 0.168181818181818,
                "tempo": 120.0
            },
            {
                "start_time": 29.05681818181818,
                "end_time": 29.222727272727273,
                "pitch": 38,
                "velocity": 101,
                "duration": 0.16590909090909278,
                "tempo": 120.0
            },
            {
                "start_time": 22.454545454545453,
                "end_time": 29.37272727272727,
                "pitch": 39,
                "velocity": 101,
                "duration": 6.918181818181818,
                "tempo": 120.0
            },
            {
                "start_time": 29.222727272727273,
                "end_time": 29.37272727272727,
                "pitch": 39,
                "velocity": 101,
                "duration": 0.14999999999999858,
                "tempo": 120.0
            },
            {
                "start_time": 29.37272727272727,
                "end_time": 29.534090909090907,
                "pitch": 39,
                "velocity": 101,
                "duration": 0.16136363636363527,
                "tempo": 120.0
            },
            {
                "start_time": 29.534090909090907,
                "end_time": 29.695454545454545,
                "pitch": 39,
                "velocity": 101,
                "duration": 0.16136363636363882,
                "tempo": 120.0
            },
            {
                "start_time": 29.695454545454545,
                "end_time": 29.863636363636363,
                "pitch": 39,
                "velocity": 101,
                "duration": 0.168181818181818,
                "tempo": 120.0
            },
            {
                "start_time": 29.863636363636363,
                "end_time": 30.029545454545453,
                "pitch": 39,
                "velocity": 101,
                "duration": 0.16590909090908923,
                "tempo": 120.0
            },
            {
                "start_time": 30.029545454545453,
                "end_time": 30.202272727272724,
                "pitch": 39,
                "velocity": 101,
                "duration": 0.17272727272727195,
                "tempo": 120.0
            },
            {
                "start_time": 30.202272727272724,
                "end_time": 30.37272727272727,
                "pitch": 39,
                "velocity": 101,
                "duration": 0.17045454545454675,
                "tempo": 120.0
            },
            {
                "start_time": 30.37272727272727,
                "end_time": 30.54090909090909,
                "pitch": 39,
                "velocity": 101,
                "duration": 0.168181818181818,
                "tempo": 120.0
            },
            {
                "start_time": 30.54090909090909,
                "end_time": 30.706818181818182,
                "pitch": 39,
                "velocity": 101,
                "duration": 0.16590909090909278,
                "tempo": 120.0
            },
            {
                "start_time": 30.706818181818182,
                "end_time": 30.875,
                "pitch": 39,
                "velocity": 101,
                "duration": 0.168181818181818,
                "tempo": 120.0
            },
            {
                "start_time": 30.875,
                "end_time": 31.04090909090909,
                "pitch": 39,
                "velocity": 101,
                "duration": 0.16590909090908923,
                "tempo": 120.0
            },
            {
                "start_time": 31.04090909090909,
                "end_time": 31.190909090909088,
                "pitch": 39,
                "velocity": 101,
                "duration": 0.14999999999999858,
                "tempo": 120.0
            },
            {
                "start_time": 31.190909090909088,
                "end_time": 31.359090909090906,
                "pitch": 39,
                "velocity": 101,
                "duration": 0.168181818181818,
                "tempo": 120.0
            },
            {
                "start_time": 31.359090909090906,
                "end_time": 31.525,
                "pitch": 38,
                "velocity": 101,
                "duration": 0.16590909090909278,
                "tempo": 120.0
            },
            {
                "start_time": 31.525,
                "end_time": 31.693181818181817,
                "pitch": 39,
                "velocity": 101,
                "duration": 0.168181818181818,
                "tempo": 120.0
            },
            {
                "start_time": 31.693181818181817,
                "end_time": 31.859090909090906,
                "pitch": 40,
                "velocity": 101,
                "duration": 0.16590909090908923,
                "tempo": 120.0
            },
            {
                "start_time": 23.770454545454545,
                "end_time": 31.924999999999997,
                "pitch": 41,
                "velocity": 101,
                "duration": 8.154545454545453,
                "tempo": 120.0
            },
            {
                "start_time": 31.859090909090906,
                "end_time": 31.924999999999997,
                "pitch": 41,
                "velocity": 101,
                "duration": 0.06590909090909136,
                "tempo": 120.0
            }
        ],
        "Harpsichord": [
            {
                "start_time": 0.022727272727272728,
                "end_time": 0.18863636363636363,
                "pitch": 41,
                "velocity": 64,
                "duration": 0.1659090909090909,
                "tempo": 120.0
            },
            {
                "start_time": 0.18863636363636363,
                "end_time": 0.3568181818181818,
                "pitch": 41,
                "velocity": 64,
                "duration": 0.16818181818181818,
                "tempo": 120.0
            },
            {
                "start_time": 0.3568181818181818,
                "end_time": 0.5272727272727272,
                "pitch": 41,
                "velocity": 64,
                "duration": 0.17045454545454541,
                "tempo": 120.0
            },
            {
                "start_time": 0.5272727272727272,
                "end_time": 0.7,
                "pitch": 41,
                "velocity": 64,
                "duration": 0.17272727272727273,
                "tempo": 120.0
            },
            {
                "start_time": 0.7,
                "end_time": 0.8659090909090909,
                "pitch": 41,
                "velocity": 64,
                "duration": 0.1659090909090909,
                "tempo": 120.0
            },
            {
                "start_time": 0.8659090909090909,
                "end_time": 1.034090909090909,
                "pitch": 41,
                "velocity": 64,
                "duration": 0.1681818181818181,
                "tempo": 120.0
            },
            {
                "start_time": 1.034090909090909,
                "end_time": 1.2,
                "pitch": 41,
                "velocity": 64,
                "duration": 0.165909090909091,
                "tempo": 120.0
            },
            {
                "start_time": 1.2,
                "end_time": 1.3659090909090907,
                "pitch": 41,
                "velocity": 64,
                "duration": 0.16590909090909078,
                "tempo": 120.0
            },
            {
                "start_time": 1.3659090909090907,
                "end_time": 1.534090909090909,
                "pitch": 41,
                "velocity": 64,
                "duration": 0.1681818181818182,
                "tempo": 120.0
            },
            {
                "start_time": 1.534090909090909,
                "end_time": 1.7,
                "pitch": 41,
                "velocity": 64,
                "duration": 0.165909090909091,
                "tempo": 120.0
            },
            {
                "start_time": 1.7,
                "end_time": 1.8681818181818182,
                "pitch": 41,
                "velocity": 64,
                "duration": 0.1681818181818182,
                "tempo": 120.0
            },
            {
                "start_time": 1.8681818181818182,
                "end_time": 2.018181818181818,
                "pitch": 41,
                "velocity": 64,
                "duration": 0.1499999999999999,
                "tempo": 120.0
            },
            {
                "start_time": 2.018181818181818,
                "end_time": 2.184090909090909,
                "pitch": 41,
                "velocity": 64,
                "duration": 0.165909090909091,
                "tempo": 120.0
            },
            {
                "start_time": 2.184090909090909,
                "end_time": 2.352272727272727,
                "pitch": 41,
                "velocity": 64,
                "duration": 0.168181818181818,
                "tempo": 120.0
            },
            {
                "start_time": 2.352272727272727,
                "end_time": 2.5136363636363637,
                "pitch": 41,
                "velocity": 64,
                "duration": 0.1613636363636366,
                "tempo": 120.0
            },
            {
                "start_time": 2.5136363636363637,
                "end_time": 2.675,
                "pitch": 41,
                "velocity": 64,
                "duration": 0.16136363636363615,
                "tempo": 120.0
            },
            {
                "start_time": 2.675,
                "end_time": 2.840909090909091,
                "pitch": 45,
                "velocity": 64,
                "duration": 0.165909090909091,
                "tempo": 120.0
            },
            {
                "start_time": 2.840909090909091,
                "end_time": 3.009090909090909,
                "pitch": 45,
                "velocity": 64,
                "duration": 0.168181818181818,
                "tempo": 120.0
            },
            {
                "start_time": 3.009090909090909,
                "end_time": 3.175,
                "pitch": 45,
                "velocity": 64,
                "duration": 0.165909090909091,
                "tempo": 120.0
            },
            {
                "start_time": 3.175,
                "end_time": 3.343181818181818,
                "pitch": 45,
                "velocity": 64,
                "duration": 0.168181818181818,
                "tempo": 120.0
            },
            {
                "start_time": 3.343181818181818,
                "end_time": 3.5136363636363637,
                "pitch": 45,
                "velocity": 64,
                "duration": 0.17045454545454586,
                "tempo": 120.0
            },
            {
                "start_time": 3.5136363636363637,
                "end_time": 3.686363636363636,
                "pitch": 45,
                "velocity": 64,
                "duration": 0.1727272727272724,
                "tempo": 120.0
            },
            {
                "start_time": 3.686363636363636,
                "end_time": 3.836363636363636,
                "pitch": 45,
                "velocity": 64,
                "duration": 0.1499999999999999,
                "tempo": 120.0
            },
            {
                "start_time": 3.836363636363636,
                "end_time": 4.002272727272727,
                "pitch": 45,
                "velocity": 64,
                "duration": 0.165909090909091,
                "tempo": 120.0
            },
            {
                "start_time": 4.002272727272727,
                "end_time": 4.163636363636363,
                "pitch": 45,
                "velocity": 64,
                "duration": 0.16136363636363615,
                "tempo": 120.0
            },
            {
                "start_time": 4.163636363636363,
                "end_time": 4.325,
                "pitch": 45,
                "velocity": 64,
                "duration": 0.16136363636363704,
                "tempo": 120.0
            },
            {
                "start_time": 4.325,
                "end_time": 4.493181818181818,
                "pitch": 45,
                "velocity": 64,
                "duration": 0.168181818181818,
                "tempo": 120.0
            },
            {
                "start_time": 4.493181818181818,
                "end_time": 4.659090909090909,
                "pitch": 45,
                "velocity": 64,
                "duration": 0.165909090909091,
                "tempo": 120.0
            },
            {
                "start_time": 4.659090909090909,
                "end_time": 4.825,
                "pitch": 45,
                "velocity": 64,
                "duration": 0.165909090909091,
                "tempo": 120.0
            },
            {
                "start_time": 4.825,
                "end_time": 4.993181818181818,
                "pitch": 45,
                "velocity": 64,
                "duration": 0.168181818181818,
                "tempo": 120.0
            },
            {
                "start_time": 4.993181818181818,
                "end_time": 5.159090909090909,
                "pitch": 45,
                "velocity": 64,
                "duration": 0.165909090909091,
                "tempo": 120.0
            },
            {
                "start_time": 5.159090909090909,
                "end_time": 5.327272727272727,
                "pitch": 44,
                "velocity": 64,
                "duration": 0.168181818181818,
                "tempo": 120.0
            },
            {
                "start_time": 5.327272727272727,
                "end_time": 5.497727272727272,
                "pitch": 41,
                "velocity": 64,
                "duration": 0.17045454545454497,
                "tempo": 120.0
            },
            {
                "start_time": 5.497727272727272,
                "end_time": 5.652272727272727,
                "pitch": 41,
                "velocity": 64,
                "duration": 0.1545454545454552,
                "tempo": 120.0
            },
            {
                "start_time": 5.652272727272727,
                "end_time": 5.809090909090909,
                "pitch": 41,
                "velocity": 64,
                "duration": 0.1568181818181813,
                "tempo": 120.0
            },
            {
                "start_time": 5.809090909090909,
                "end_time": 5.965909090909091,
                "pitch": 41,
                "velocity": 64,
                "duration": 0.1568181818181822,
                "tempo": 120.0
            },
            {
                "start_time": 5.965909090909091,
                "end_time": 6.136363636363636,
                "pitch": 41,
                "velocity": 64,
                "duration": 0.17045454545454497,
                "tempo": 120.0
            },
            {
                "start_time": 6.136363636363636,
                "end_time": 6.309090909090909,
                "pitch": 41,
                "velocity": 64,
                "duration": 0.17272727272727284,
                "tempo": 120.0
            },
            {
                "start_time": 6.309090909090909,
                "end_time": 6.470454545454545,
                "pitch": 41,
                "velocity": 64,
                "duration": 0.16136363636363615,
                "tempo": 120.0
            },
            {
                "start_time": 6.470454545454545,
                "end_time": 6.631818181818182,
                "pitch": 41,
                "velocity": 64,
                "duration": 0.16136363636363704,
                "tempo": 120.0
            },
            {
                "start_time": 6.631818181818182,
                "end_time": 6.802272727272727,
                "pitch": 41,
                "velocity": 64,
                "duration": 0.17045454545454497,
                "tempo": 120.0
            },
            {
                "start_time": 6.802272727272727,
                "end_time": 6.972727272727273,
                "pitch": 41,
                "velocity": 64,
                "duration": 0.17045454545454586,
                "tempo": 120.0
            },
            {
                "start_time": 6.972727272727273,
                "end_time": 7.140909090909091,
                "pitch": 41,
                "velocity": 64,
                "duration": 0.168181818181818,
                "tempo": 120.0
            },
            {
                "start_time": 7.140909090909091,
                "end_time": 7.306818181818182,
                "pitch": 41,
                "velocity": 64,
                "duration": 0.165909090909091,
                "tempo": 120.0
            },
            {
                "start_time": 7.306818181818182,
                "end_time": 7.456818181818181,
                "pitch": 41,
                "velocity": 64,
                "duration": 0.14999999999999947,
                "tempo": 120.0
            },
            {
                "start_time": 7.456818181818181,
                "end_time": 7.625,
                "pitch": 41,
                "velocity": 64,
                "duration": 0.16818181818181888,
                "tempo": 120.0
            },
            {
                "start_time": 7.625,
                "end_time": 7.786363636363636,
                "pitch": 41,
                "velocity": 64,
                "duration": 0.16136363636363615,
                "tempo": 120.0
            },
            {
                "start_time": 7.786363636363636,
                "end_time": 7.947727272727272,
                "pitch": 41,
                "velocity": 64,
                "duration": 0.16136363636363615,
                "tempo": 120.0
            },
            {
                "start_time": 7.947727272727272,
                "end_time": 8.118181818181817,
                "pitch": 36,
                "velocity": 64,
                "duration": 0.17045454545454497,
                "tempo": 120.0
            },
            {
                "start_time": 8.118181818181817,
                "end_time": 8.290909090909091,
                "pitch": 36,
                "velocity": 64,
                "duration": 0.17272727272727373,
                "tempo": 120.0
            },
            {
                "start_time": 8.290909090909091,
                "end_time": 8.452272727272726,
                "pitch": 36,
                "velocity": 64,
                "duration": 0.16136363636363527,
                "tempo": 120.0
            },
            {
                "start_time": 8.452272727272726,
                "end_time": 8.613636363636363,
                "pitch": 36,
                "velocity": 64,
                "duration": 0.16136363636363704,
                "tempo": 120.0
            },
            {
                "start_time": 8.613636363636363,
                "end_time": 8.779545454545454,
                "pitch": 36,
                "velocity": 64,
                "duration": 0.165909090909091,
                "tempo": 120.0
            },
            {
                "start_time": 8.779545454545454,
                "end_time": 8.947727272727272,
                "pitch": 36,
                "velocity": 64,
                "duration": 0.168181818181818,
                "tempo": 120.0
            },
            {
                "start_time": 8.947727272727272,
                "end_time": 9.113636363636363,
                "pitch": 36,
                "velocity": 64,
                "duration": 0.165909090909091,
                "tempo": 120.0
            },
            {
                "start_time": 9.113636363636363,
                "end_time": 9.263636363636364,
                "pitch": 36,
                "velocity": 64,
                "duration": 0.15000000000000036,
                "tempo": 120.0
            },
            {
                "start_time": 9.263636363636364,
                "end_time": 9.431818181818182,
                "pitch": 36,
                "velocity": 64,
                "duration": 0.168181818181818,
                "tempo": 120.0
            },
            {
                "start_time": 9.431818181818182,
                "end_time": 9.597727272727273,
                "pitch": 36,
                "velocity": 64,
                "duration": 0.165909090909091,
                "tempo": 120.0
            },
            {
                "start_time": 9.597727272727273,
                "end_time": 9.759090909090908,
                "pitch": 36,
                "velocity": 64,
                "duration": 0.16136363636363527,
                "tempo": 120.0
            },
            {
                "start_time": 9.759090909090908,
                "end_time": 9.920454545454545,
                "pitch": 36,
                "velocity": 64,
                "duration": 0.16136363636363704,
                "tempo": 120.0
            },
            {
                "start_time": 9.920454545454545,
                "end_time": 10.093181818181817,
                "pitch": 36,
                "velocity": 64,
                "duration": 0.17272727272727195,
                "tempo": 120.0
            },
            {
                "start_time": 10.093181818181817,
                "end_time": 10.263636363636364,
                "pitch": 36,
                "velocity": 64,
                "duration": 0.17045454545454675,
                "tempo": 120.0
            },
            {
                "start_time": 10.263636363636364,
                "end_time": 10.424999999999999,
                "pitch": 36,
                "velocity": 64,
                "duration": 0.16136363636363527,
                "tempo": 120.0
            },
            {
                "start_time": 10.424999999999999,
                "end_time": 10.586363636363636,
                "pitch": 36,
                "velocity": 64,
                "duration": 0.16136363636363704,
                "tempo": 120.0
            },
            {
                "start_time": 10.586363636363636,
                "end_time": 10.759090909090908,
                "pitch": 39,
                "velocity": 64,
                "duration": 0.17272727272727195,
                "tempo": 120.0
            },
            {
                "start_time": 10.759090909090908,
                "end_time": 10.929545454545455,
                "pitch": 39,
                "velocity": 64,
                "duration": 0.17045454545454675,
                "tempo": 120.0
            },
            {
                "start_time": 10.929545454545455,
                "end_time": 11.079545454545453,
                "pitch": 46,
                "velocity": 64,
                "duration": 0.14999999999999858,
                "tempo": 120.0
            },
            {
                "start_time": 11.079545454545453,
                "end_time": 11.247727272727273,
                "pitch": 51,
                "velocity": 64,
                "duration": 0.16818181818181976,
                "tempo": 120.0
            },
            {
                "start_time": 11.247727272727273,
                "end_time": 11.409090909090908,
                "pitch": 39,
                "velocity": 64,
                "duration": 0.16136363636363527,
                "tempo": 120.0
            },
            {
                "start_time": 11.409090909090908,
                "end_time": 11.570454545454545,
                "pitch": 39,
                "velocity": 64,
                "duration": 0.16136363636363704,
                "tempo": 120.0
            },
            {
                "start_time": 11.570454545454545,
                "end_time": 11.736363636363636,
                "pitch": 46,
                "velocity": 64,
                "duration": 0.165909090909091,
                "tempo": 120.0
            },
            {
                "start_time": 11.736363636363636,
                "end_time": 11.904545454545454,
                "pitch": 51,
                "velocity": 64,
                "duration": 0.168181818181818,
                "tempo": 120.0
            },
            {
                "start_time": 11.904545454545454,
                "end_time": 12.070454545454545,
                "pitch": 41,
                "velocity": 64,
                "duration": 0.165909090909091,
                "tempo": 120.0
            },
            {
                "start_time": 12.070454545454545,
                "end_time": 12.236363636363636,
                "pitch": 41,
                "velocity": 64,
                "duration": 0.165909090909091,
                "tempo": 120.0
            },
            {
                "start_time": 12.236363636363636,
                "end_time": 12.404545454545454,
                "pitch": 48,
                "velocity": 64,
                "duration": 0.168181818181818,
                "tempo": 120.0
            },
            {
                "start_time": 12.236363636363636,
                "end_time": 12.570454545454545,
                "pitch": 53,
                "velocity": 64,
                "duration": 0.334090909090909,
                "tempo": 120.0
            },
            {
                "start_time": 12.404545454545454,
                "end_time": 12.570454545454545,
                "pitch": 53,
                "velocity": 64,
                "duration": 0.165909090909091,
                "tempo": 120.0
            },
            {
                "start_time": 12.570454545454545,
                "end_time": 12.738636363636363,
                "pitch": 41,
                "velocity": 64,
                "duration": 0.168181818181818,
                "tempo": 120.0
            },
            {
                "start_time": 12.738636363636363,
                "end_time": 12.888636363636364,
                "pitch": 41,
                "velocity": 64,
                "duration": 0.15000000000000036,
                "tempo": 120.0
            },
            {
                "start_time": 12.888636363636364,
                "end_time": 13.054545454545455,
                "pitch": 48,
                "velocity": 64,
                "duration": 0.165909090909091,
                "tempo": 120.0
            },
            {
                "start_time": 13.054545454545455,
                "end_time": 13.222727272727273,
                "pitch": 53,
                "velocity": 64,
                "duration": 0.168181818181818,
                "tempo": 120.0
            },
            {
                "start_time": 13.222727272727273,
                "end_time": 13.384090909090908,
                "pitch": 43,
                "velocity": 64,
                "duration": 0.16136363636363527,
                "tempo": 120.0
            },
            {
                "start_time": 13.384090909090908,
                "end_time": 13.545454545454545,
                "pitch": 43,
                "velocity": 64,
                "duration": 0.16136363636363704,
                "tempo": 120.0
            },
            {
                "start_time": 13.545454545454545,
                "end_time": 13.711363636363636,
                "pitch": 43,
                "velocity": 64,
                "duration": 0.165909090909091,
                "tempo": 120.0
            },
            {
                "start_time": 13.711363636363636,
                "end_time": 13.879545454545454,
                "pitch": 43,
                "velocity": 64,
                "duration": 0.168181818181818,
                "tempo": 120.0
            },
            {
                "start_time": 13.879545454545454,
                "end_time": 14.049999999999999,
                "pitch": 43,
                "velocity": 64,
                "duration": 0.17045454545454497,
                "tempo": 120.0
            },
            {
                "start_time": 14.049999999999999,
                "end_time": 14.222727272727273,
                "pitch": 43,
                "velocity": 64,
                "duration": 0.17272727272727373,
                "tempo": 120.0
            },
            {
                "start_time": 14.222727272727273,
                "end_time": 14.388636363636364,
                "pitch": 43,
                "velocity": 64,
                "duration": 0.165909090909091,
                "tempo": 120.0
            },
            {
                "start_time": 14.388636363636364,
                "end_time": 14.556818181818182,
                "pitch": 43,
                "velocity": 64,
                "duration": 0.168181818181818,
                "tempo": 120.0
            },
            {
                "start_time": 14.556818181818182,
                "end_time": 14.70681818181818,
                "pitch": 43,
                "velocity": 64,
                "duration": 0.14999999999999858,
                "tempo": 120.0
            },
            {
                "start_time": 14.70681818181818,
                "end_time": 14.872727272727271,
                "pitch": 43,
                "velocity": 64,
                "duration": 0.165909090909091,
                "tempo": 120.0
            },
            {
                "start_time": 14.872727272727271,
                "end_time": 15.034090909090908,
                "pitch": 43,
                "velocity": 64,
                "duration": 0.16136363636363704,
                "tempo": 120.0
            },
            {
                "start_time": 15.034090909090908,
                "end_time": 15.195454545454545,
                "pitch": 43,
                "velocity": 64,
                "duration": 0.16136363636363704,
                "tempo": 120.0
            },
            {
                "start_time": 15.195454545454545,
                "end_time": 15.363636363636363,
                "pitch": 43,
                "velocity": 64,
                "duration": 0.168181818181818,
                "tempo": 120.0
            },
            {
                "start_time": 15.363636363636363,
                "end_time": 15.529545454545454,
                "pitch": 43,
                "velocity": 64,
                "duration": 0.165909090909091,
                "tempo": 120.0
            },
            {
                "start_time": 15.529545454545454,
                "end_time": 15.695454545454545,
                "pitch": 43,
                "velocity": 64,
                "duration": 0.165909090909091,
                "tempo": 120.0
            },
            {
                "start_time": 0.022727272727272728,
                "end_time": 15.863636363636363,
                "pitch": 31,
                "velocity": 64,
                "duration": 15.84090909090909,
                "tempo": 120.0
            },
            {
                "start_time": 15.695454545454545,
                "end_time": 15.863636363636363,
                "pitch": 43,
                "velocity": 64,
                "duration": 0.168181818181818,
                "tempo": 120.0
            },
            {
                "start_time": 11.904545454545454,
                "end_time": 16.03409090909091,
                "pitch": 39,
                "velocity": 64,
                "duration": 4.129545454545456,
                "tempo": 120.0
            },
            {
                "start_time": 15.863636363636363,
                "end_time": 16.03409090909091,
                "pitch": 39,
                "velocity": 64,
                "duration": 0.17045454545454675,
                "tempo": 120.0
            },
            {
                "start_time": 16.03409090909091,
                "end_time": 16.206818181818182,
                "pitch": 39,
                "velocity": 64,
                "duration": 0.17272727272727195,
                "tempo": 120.0
            },
            {
                "start_time": 16.206818181818182,
                "end_time": 16.368181818181817,
                "pitch": 39,
                "velocity": 64,
                "duration": 0.16136363636363527,
                "tempo": 120.0
            },
            {
                "start_time": 16.368181818181817,
                "end_time": 16.513636363636362,
                "pitch": 39,
                "velocity": 64,
                "duration": 0.14545454545454461,
                "tempo": 120.0
            },
            {
                "start_time": 16.513636363636362,
                "end_time": 16.675,
                "pitch": 39,
                "velocity": 64,
                "duration": 0.16136363636363882,
                "tempo": 120.0
            },
            {
                "start_time": 16.675,
                "end_time": 16.836363636363636,
                "pitch": 39,
                "velocity": 64,
                "duration": 0.16136363636363527,
                "tempo": 120.0
            },
            {
                "start_time": 16.836363636363636,
                "end_time": 17.002272727272725,
                "pitch": 39,
                "velocity": 64,
                "duration": 0.16590909090908923,
                "tempo": 120.0
            },
            {
                "start_time": 17.004545454545454,
                "end_time": 17.170454545454543,
                "pitch": 39,
                "velocity": 64,
                "duration": 0.16590909090908923,
                "tempo": 120.0
            },
            {
                "start_time": 17.170454545454543,
                "end_time": 17.34090909090909,
                "pitch": 41,
                "velocity": 64,
                "duration": 0.17045454545454675,
                "tempo": 120.0
            },
            {
                "start_time": 17.34090909090909,
                "end_time": 17.513636363636362,
                "pitch": 41,
                "velocity": 64,
                "duration": 0.17272727272727195,
                "tempo": 120.0
            },
            {
                "start_time": 17.513636363636362,
                "end_time": 17.679545454545455,
                "pitch": 41,
                "velocity": 64,
                "duration": 0.16590909090909278,
                "tempo": 120.0
            },
            {
                "start_time": 17.679545454545455,
                "end_time": 17.847727272727273,
                "pitch": 41,
                "velocity": 64,
                "duration": 0.168181818181818,
                "tempo": 120.0
            },
            {
                "start_time": 17.847727272727273,
                "end_time": 18.013636363636362,
                "pitch": 41,
                "velocity": 64,
                "duration": 0.16590909090908923,
                "tempo": 120.0
            },
            {
                "start_time": 18.013636363636362,
                "end_time": 18.18181818181818,
                "pitch": 41,
                "velocity": 64,
                "duration": 0.168181818181818,
                "tempo": 120.0
            },
            {
                "start_time": 18.18181818181818,
                "end_time": 18.331818181818182,
                "pitch": 41,
                "velocity": 64,
                "duration": 0.15000000000000213,
                "tempo": 120.0
            },
            {
                "start_time": 18.331818181818182,
                "end_time": 18.49772727272727,
                "pitch": 41,
                "velocity": 64,
                "duration": 0.16590909090908923,
                "tempo": 120.0
            },
            {
                "start_time": 13.222727272727273,
                "end_time": 18.49772727272727,
                "pitch": 53,
                "velocity": 64,
                "duration": 5.274999999999999,
                "tempo": 120.0
            },
            {
                "start_time": 18.49772727272727,
                "end_time": 18.659090909090907,
                "pitch": 43,
                "velocity": 64,
                "duration": 0.16136363636363527,
                "tempo": 120.0
            },
            {
                "start_time": 18.659090909090907,
                "end_time": 18.820454545454545,
                "pitch": 43,
                "velocity": 64,
                "duration": 0.16136363636363882,
                "tempo": 120.0
            },
            {
                "start_time": 18.820454545454545,
                "end_time": 18.99090909090909,
                "pitch": 43,
                "velocity": 64,
                "duration": 0.1704545454545432,
                "tempo": 120.0
            },
            {
                "start_time": 18.99090909090909,
                "end_time": 19.163636363636364,
                "pitch": 43,
                "velocity": 64,
                "duration": 0.1727272727272755,
                "tempo": 120.0
            },
            {
                "start_time": 19.163636363636364,
                "end_time": 19.325,
                "pitch": 43,
                "velocity": 64,
                "duration": 0.16136363636363527,
                "tempo": 120.0
            },
            {
                "start_time": 19.325,
                "end_time": 19.486363636363635,
                "pitch": 43,
                "velocity": 64,
                "duration": 0.16136363636363527,
                "tempo": 120.0
            },
            {
                "start_time": 19.486363636363635,
                "end_time": 19.65681818181818,
                "pitch": 43,
                "velocity": 64,
                "duration": 0.17045454545454675,
                "tempo": 120.0
            },
            {
                "start_time": 19.65681818181818,
                "end_time": 19.829545454545453,
                "pitch": 43,
                "velocity": 64,
                "duration": 0.17272727272727195,
                "tempo": 120.0
            },
            {
                "start_time": 19.829545454545453,
                "end_time": 19.995454545454546,
                "pitch": 43,
                "velocity": 64,
                "duration": 0.16590909090909278,
                "tempo": 120.0
            },
            {
                "start_time": 19.995454545454546,
                "end_time": 20.145454545454545,
                "pitch": 43,
                "velocity": 64,
                "duration": 0.14999999999999858,
                "tempo": 120.0
            },
            {
                "start_time": 20.145454545454545,
                "end_time": 20.30909090909091,
                "pitch": 43,
                "velocity": 64,
                "duration": 0.16363636363636402,
                "tempo": 120.0
            },
            {
                "start_time": 20.30909090909091,
                "end_time": 20.470454545454544,
                "pitch": 43,
                "velocity": 64,
                "duration": 0.16136363636363527,
                "tempo": 120.0
            },
            {
                "start_time": 20.470454545454544,
                "end_time": 20.63181818181818,
                "pitch": 43,
                "velocity": 64,
                "duration": 0.16136363636363527,
                "tempo": 120.0
            },
            {
                "start_time": 20.63181818181818,
                "end_time": 20.793181818181818,
                "pitch": 43,
                "velocity": 64,
                "duration": 0.16136363636363882,
                "tempo": 120.0
            },
            {
                "start_time": 20.793181818181818,
                "end_time": 20.959090909090907,
                "pitch": 43,
                "velocity": 64,
                "duration": 0.16590909090908923,
                "tempo": 120.0
            },
            {
                "start_time": 15.863636363636363,
                "end_time": 21.127272727272725,
                "pitch": 31,
                "velocity": 64,
                "duration": 5.263636363636362,
                "tempo": 120.0
            },
            {
                "start_time": 20.959090909090907,
                "end_time": 21.127272727272725,
                "pitch": 43,
                "velocity": 64,
                "duration": 0.168181818181818,
                "tempo": 120.0
            },
            {
                "start_time": 17.170454545454543,
                "end_time": 21.297727272727272,
                "pitch": 39,
                "velocity": 64,
                "duration": 4.127272727272729,
                "tempo": 120.0
            },
            {
                "start_time": 21.127272727272725,
                "end_time": 21.297727272727272,
                "pitch": 39,
                "velocity": 64,
                "duration": 0.17045454545454675,
                "tempo": 120.0
            },
            {
                "start_time": 21.297727272727272,
                "end_time": 21.470454545454544,
                "pitch": 39,
                "velocity": 64,
                "duration": 0.17272727272727195,
                "tempo": 120.0
            },
            {
                "start_time": 21.470454545454544,
                "end_time": 21.636363636363637,
                "pitch": 39,
                "velocity": 64,
                "duration": 0.16590909090909278,
                "tempo": 120.0
            },
            {
                "start_time": 21.636363636363637,
                "end_time": 21.804545454545455,
                "pitch": 39,
                "velocity": 64,
                "duration": 0.168181818181818,
                "tempo": 120.0
            },
            {
                "start_time": 21.804545454545455,
                "end_time": 21.954545454545453,
                "pitch": 39,
                "velocity": 64,
                "duration": 0.14999999999999858,
                "tempo": 120.0
            },
            {
                "start_time": 21.954545454545453,
                "end_time": 22.120454545454546,
                "pitch": 39,
                "velocity": 64,
                "duration": 0.16590909090909278,
                "tempo": 120.0
            },
            {
                "start_time": 22.120454545454546,
                "end_time": 22.288636363636364,
                "pitch": 39,
                "velocity": 64,
                "duration": 0.168181818181818,
                "tempo": 120.0
            },
            {
                "start_time": 22.288636363636364,
                "end_time": 22.454545454545453,
                "pitch": 39,
                "velocity": 64,
                "duration": 0.16590909090908923,
                "tempo": 120.0
            },
            {
                "start_time": 22.454545454545453,
                "end_time": 22.61590909090909,
                "pitch": 41,
                "velocity": 64,
                "duration": 0.16136363636363527,
                "tempo": 120.0
            },
            {
                "start_time": 22.61590909090909,
                "end_time": 22.777272727272727,
                "pitch": 41,
                "velocity": 64,
                "duration": 0.16136363636363882,
                "tempo": 120.0
            },
            {
                "start_time": 22.777272727272727,
                "end_time": 22.945454545454545,
                "pitch": 41,
                "velocity": 64,
                "duration": 0.168181818181818,
                "tempo": 120.0
            },
            {
                "start_time": 22.945454545454545,
                "end_time": 23.111363636363635,
                "pitch": 41,
                "velocity": 64,
                "duration": 0.16590909090908923,
                "tempo": 120.0
            },
            {
                "start_time": 23.111363636363635,
                "end_time": 23.279545454545453,
                "pitch": 41,
                "velocity": 64,
                "duration": 0.168181818181818,
                "tempo": 120.0
            },
            {
                "start_time": 23.279545454545453,
                "end_time": 23.445454545454545,
                "pitch": 41,
                "velocity": 64,
                "duration": 0.16590909090909278,
                "tempo": 120.0
            },
            {
                "start_time": 23.445454545454545,
                "end_time": 23.61590909090909,
                "pitch": 41,
                "velocity": 64,
                "duration": 0.1704545454545432,
                "tempo": 120.0
            },
            {
                "start_time": 23.61590909090909,
                "end_time": 23.770454545454545,
                "pitch": 41,
                "velocity": 64,
                "duration": 0.1545454545454561,
                "tempo": 120.0
            },
            {
                "start_time": 23.770454545454545,
                "end_time": 23.93409090909091,
                "pitch": 38,
                "velocity": 64,
                "duration": 0.16363636363636402,
                "tempo": 120.0
            },
            {
                "start_time": 23.93409090909091,
                "end_time": 24.095454545454544,
                "pitch": 38,
                "velocity": 64,
                "duration": 0.16136363636363527,
                "tempo": 120.0
            },
            {
                "start_time": 24.095454545454544,
                "end_time": 24.261363636363637,
                "pitch": 38,
                "velocity": 64,
                "duration": 0.16590909090909278,
                "tempo": 120.0
            },
            {
                "start_time": 24.261363636363637,
                "end_time": 24.427272727272726,
                "pitch": 38,
                "velocity": 64,
                "duration": 0.16590909090908923,
                "tempo": 120.0
            },
            {
                "start_time": 24.427272727272726,
                "end_time": 24.595454545454544,
                "pitch": 38,
                "velocity": 64,
                "duration": 0.168181818181818,
                "tempo": 120.0
            },
            {
                "start_time": 24.595454545454544,
                "end_time": 24.761363636363637,
                "pitch": 38,
                "velocity": 64,
                "duration": 0.16590909090909278,
                "tempo": 120.0
            },
            {
                "start_time": 24.761363636363637,
                "end_time": 24.929545454545455,
                "pitch": 38,
                "velocity": 64,
                "duration": 0.168181818181818,
                "tempo": 120.0
            },
            {
                "start_time": 24.929545454545455,
                "end_time": 25.095454545454544,
                "pitch": 38,
                "velocity": 64,
                "duration": 0.16590909090908923,
                "tempo": 120.0
            },
            {
                "start_time": 25.095454545454544,
                "end_time": 25.263636363636362,
                "pitch": 38,
                "velocity": 64,
                "duration": 0.168181818181818,
                "tempo": 120.0
            },
            {
                "start_time": 25.263636363636362,
                "end_time": 25.429545454545455,
                "pitch": 38,
                "velocity": 64,
                "duration": 0.16590909090909278,
                "tempo": 120.0
            },
            {
                "start_time": 25.429545454545455,
                "end_time": 25.579545454545453,
                "pitch": 38,
                "velocity": 64,
                "duration": 0.14999999999999858,
                "tempo": 120.0
            },
            {
                "start_time": 25.579545454545453,
                "end_time": 25.74772727272727,
                "pitch": 38,
                "velocity": 64,
                "duration": 0.168181818181818,
                "tempo": 120.0
            },
            {
                "start_time": 25.74772727272727,
                "end_time": 25.909090909090907,
                "pitch": 38,
                "velocity": 64,
                "duration": 0.16136363636363527,
                "tempo": 120.0
            },
            {
                "start_time": 25.909090909090907,
                "end_time": 26.070454545454545,
                "pitch": 38,
                "velocity": 64,
                "duration": 0.16136363636363882,
                "tempo": 120.0
            },
            {
                "start_time": 26.070454545454545,
                "end_time": 26.236363636363635,
                "pitch": 38,
                "velocity": 64,
                "duration": 0.16590909090908923,
                "tempo": 120.0
            },
            {
                "start_time": 26.236363636363635,
                "end_time": 26.404545454545453,
                "pitch": 38,
                "velocity": 64,
                "duration": 0.168181818181818,
                "tempo": 120.0
            },
            {
                "start_time": 26.404545454545453,
                "end_time": 26.575,
                "pitch": 43,
                "velocity": 64,
                "duration": 0.17045454545454675,
                "tempo": 120.0
            },
            {
                "start_time": 26.575,
                "end_time": 26.74772727272727,
                "pitch": 43,
                "velocity": 64,
                "duration": 0.17272727272727195,
                "tempo": 120.0
            },
            {
                "start_time": 26.74772727272727,
                "end_time": 26.913636363636364,
                "pitch": 43,
                "velocity": 64,
                "duration": 0.16590909090909278,
                "tempo": 120.0
            },
            {
                "start_time": 26.913636363636364,
                "end_time": 27.079545454545453,
                "pitch": 43,
                "velocity": 64,
                "duration": 0.16590909090908923,
                "tempo": 120.0
            },
            {
                "start_time": 27.079545454545453,
                "end_time": 27.24772727272727,
                "pitch": 43,
                "velocity": 64,
                "duration": 0.168181818181818,
                "tempo": 120.0
            },
            {
                "start_time": 27.24772727272727,
                "end_time": 27.413636363636364,
                "pitch": 43,
                "velocity": 64,
                "duration": 0.16590909090909278,
                "tempo": 120.0
            },
            {
                "start_time": 27.413636363636364,
                "end_time": 27.563636363636363,
                "pitch": 43,
                "velocity": 64,
                "duration": 0.14999999999999858,
                "tempo": 120.0
            },
            {
                "start_time": 27.563636363636363,
                "end_time": 27.73181818181818,
                "pitch": 43,
                "velocity": 64,
                "duration": 0.168181818181818,
                "tempo": 120.0
            },
            {
                "start_time": 27.73181818181818,
                "end_time": 27.893181818181816,
                "pitch": 43,
                "velocity": 64,
                "duration": 0.16136363636363527,
                "tempo": 120.0
            },
            {
                "start_time": 27.893181818181816,
                "end_time": 28.054545454545455,
                "pitch": 43,
                "velocity": 64,
                "duration": 0.16136363636363882,
                "tempo": 120.0
            },
            {
                "start_time": 28.054545454545455,
                "end_time": 28.222727272727273,
                "pitch": 43,
                "velocity": 64,
                "duration": 0.168181818181818,
                "tempo": 120.0
            },
            {
                "start_time": 28.222727272727273,
                "end_time": 28.388636363636362,
                "pitch": 43,
                "velocity": 64,
                "duration": 0.16590909090908923,
                "tempo": 120.0
            },
            {
                "start_time": 21.127272727272725,
                "end_time": 28.554545454545455,
                "pitch": 31,
                "velocity": 64,
                "duration": 7.4272727272727295,
                "tempo": 120.0
            },
            {
                "start_time": 28.388636363636362,
                "end_time": 28.554545454545455,
                "pitch": 43,
                "velocity": 64,
                "duration": 0.16590909090909278,
                "tempo": 120.0
            },
            {
                "start_time": 28.554545454545455,
                "end_time": 28.722727272727273,
                "pitch": 36,
                "velocity": 64,
                "duration": 0.168181818181818,
                "tempo": 120.0
            },
            {
                "start_time": 28.722727272727273,
                "end_time": 28.888636363636362,
                "pitch": 36,
                "velocity": 64,
                "duration": 0.16590909090908923,
                "tempo": 120.0
            },
            {
                "start_time": 28.888636363636362,
                "end_time": 29.05681818181818,
                "pitch": 37,
                "velocity": 64,
                "duration": 0.168181818181818,
                "tempo": 120.0
            },
            {
                "start_time": 29.05681818181818,
                "end_time": 29.222727272727273,
                "pitch": 38,
                "velocity": 64,
                "duration": 0.16590909090909278,
                "tempo": 120.0
            },
            {
                "start_time": 22.454545454545453,
                "end_time": 29.37272727272727,
                "pitch": 39,
                "velocity": 64,
                "duration": 6.918181818181818,
                "tempo": 120.0
            },
            {
                "start_time": 29.222727272727273,
                "end_time": 29.37272727272727,
                "pitch": 39,
                "velocity": 64,
                "duration": 0.14999999999999858,
                "tempo": 120.0
            },
            {
                "start_time": 29.37272727272727,
                "end_time": 29.534090909090907,
                "pitch": 39,
                "velocity": 64,
                "duration": 0.16136363636363527,
                "tempo": 120.0
            },
            {
                "start_time": 29.534090909090907,
                "end_time": 29.695454545454545,
                "pitch": 39,
                "velocity": 64,
                "duration": 0.16136363636363882,
                "tempo": 120.0
            },
            {
                "start_time": 29.695454545454545,
                "end_time": 29.863636363636363,
                "pitch": 39,
                "velocity": 64,
                "duration": 0.168181818181818,
                "tempo": 120.0
            },
            {
                "start_time": 29.863636363636363,
                "end_time": 30.029545454545453,
                "pitch": 39,
                "velocity": 64,
                "duration": 0.16590909090908923,
                "tempo": 120.0
            },
            {
                "start_time": 30.029545454545453,
                "end_time": 30.202272727272724,
                "pitch": 39,
                "velocity": 64,
                "duration": 0.17272727272727195,
                "tempo": 120.0
            },
            {
                "start_time": 30.202272727272724,
                "end_time": 30.37272727272727,
                "pitch": 39,
                "velocity": 64,
                "duration": 0.17045454545454675,
                "tempo": 120.0
            },
            {
                "start_time": 30.37272727272727,
                "end_time": 30.54090909090909,
                "pitch": 39,
                "velocity": 64,
                "duration": 0.168181818181818,
                "tempo": 120.0
            },
            {
                "start_time": 30.54090909090909,
                "end_time": 30.706818181818182,
                "pitch": 39,
                "velocity": 64,
                "duration": 0.16590909090909278,
                "tempo": 120.0
            },
            {
                "start_time": 30.706818181818182,
                "end_time": 30.875,
                "pitch": 39,
                "velocity": 64,
                "duration": 0.168181818181818,
                "tempo": 120.0
            },
            {
                "start_time": 30.875,
                "end_time": 31.04090909090909,
                "pitch": 39,
                "velocity": 64,
                "duration": 0.16590909090908923,
                "tempo": 120.0
            },
            {
                "start_time": 31.04090909090909,
                "end_time": 31.190909090909088,
                "pitch": 39,
                "velocity": 64,
                "duration": 0.14999999999999858,
                "tempo": 120.0
            },
            {
                "start_time": 31.190909090909088,
                "end_time": 31.359090909090906,
                "pitch": 39,
                "velocity": 64,
                "duration": 0.168181818181818,
                "tempo": 120.0
            },
            {
                "start_time": 31.359090909090906,
                "end_time": 31.525,
                "pitch": 38,
                "velocity": 64,
                "duration": 0.16590909090909278,
                "tempo": 120.0
            },
            {
                "start_time": 31.525,
                "end_time": 31.693181818181817,
                "pitch": 39,
                "velocity": 64,
                "duration": 0.168181818181818,
                "tempo": 120.0
            },
            {
                "start_time": 31.693181818181817,
                "end_time": 31.859090909090906,
                "pitch": 40,
                "velocity": 64,
                "duration": 0.16590909090908923,
                "tempo": 120.0
            },
            {
                "start_time": 31.859090909090906,
                "end_time": 31.924999999999997,
                "pitch": 41,
                "velocity": 64,
                "duration": 0.06590909090909136,
                "tempo": 120.0
            }
        ]
    }
}