{
    "track_id": "04 Player - Stage Select, Parameter Set",
    "mood": "happy",
    "instruments": {
        "Acoustic Bass": [
            {
                "start_time": 0.015909090909090907,
                "end_time": 0.12727272727272726,
                "pitch": 41,
                "velocity": 80,
                "duration": 0.11136363636363636,
                "tempo": 120.0
            },
            {
                "start_time": 0.12954545454545455,
                "end_time": 0.24545454545454545,
                "pitch": 43,
                "velocity": 80,
                "duration": 0.1159090909090909,
                "tempo": 120.0
            },
            {
                "start_time": 0.36363636363636365,
                "end_time": 0.4795454545454545,
                "pitch": 43,
                "velocity": 80,
                "duration": 0.11590909090909085,
                "tempo": 120.0
            },
            {
                "start_time": 0.5954545454545455,
                "end_time": 0.7090909090909091,
                "pitch": 43,
                "velocity": 80,
                "duration": 0.11363636363636365,
                "tempo": 120.0
            },
            {
                "start_time": 0.7113636363636363,
                "end_time": 0.825,
                "pitch": 41,
                "velocity": 80,
                "duration": 0.11363636363636365,
                "tempo": 120.0
            },
            {
                "start_time": 0.825,
                "end_time": 0.9386363636363636,
                "pitch": 38,
                "velocity": 80,
                "duration": 0.11363636363636365,
                "tempo": 120.0
            },
            {
                "start_time": 0.9409090909090909,
                "end_time": 1.3977272727272727,
                "pitch": 41,
                "velocity": 80,
                "duration": 0.4568181818181818,
                "tempo": 120.0
            },
            {
                "start_time": 1.4,
                "end_time": 1.6318181818181818,
                "pitch": 43,
                "velocity": 80,
                "duration": 0.23181818181818192,
                "tempo": 120.0
            },
            {
                "start_time": 1.8704545454545454,
                "end_time": 1.984090909090909,
                "pitch": 41,
                "velocity": 80,
                "duration": 0.11363636363636354,
                "tempo": 120.0
            },
            {
                "start_time": 1.9863636363636363,
                "end_time": 2.102272727272727,
                "pitch": 43,
                "velocity": 80,
                "duration": 0.11590909090909074,
                "tempo": 120.0
            },
            {
                "start_time": 2.2204545454545452,
                "end_time": 2.3363636363636364,
                "pitch": 43,
                "velocity": 80,
                "duration": 0.11590909090909118,
                "tempo": 120.0
            },
            {
                "start_time": 2.4568181818181816,
                "end_time": 2.5727272727272728,
                "pitch": 43,
                "velocity": 80,
                "duration": 0.11590909090909118,
                "tempo": 120.0
            },
            {
                "start_time": 2.5727272727272728,
                "end_time": 2.6886363636363635,
                "pitch": 41,
                "velocity": 80,
                "duration": 0.11590909090909074,
                "tempo": 120.0
            },
            {
                "start_time": 2.690909090909091,
                "end_time": 2.8068181818181817,
                "pitch": 38,
                "velocity": 80,
                "duration": 0.11590909090909074,
                "tempo": 120.0
            },
            {
                "start_time": 2.809090909090909,
                "end_time": 2.9204545454545454,
                "pitch": 41,
                "velocity": 80,
                "duration": 0.11136363636363633,
                "tempo": 120.0
            },
            {
                "start_time": 3.036363636363636,
                "end_time": 3.15,
                "pitch": 41,
                "velocity": 80,
                "duration": 0.11363636363636376,
                "tempo": 120.0
            },
            {
                "start_time": 3.2659090909090907,
                "end_time": 3.384090909090909,
                "pitch": 41,
                "velocity": 80,
                "duration": 0.11818181818181817,
                "tempo": 120.0
            },
            {
                "start_time": 3.384090909090909,
                "end_time": 3.7363636363636363,
                "pitch": 43,
                "velocity": 80,
                "duration": 0.3522727272727275,
                "tempo": 120.0
            },
            {
                "start_time": 3.7386363636363633,
                "end_time": 3.852272727272727,
                "pitch": 39,
                "velocity": 80,
                "duration": 0.11363636363636376,
                "tempo": 120.0
            },
            {
                "start_time": 3.8545454545454545,
                "end_time": 3.9704545454545452,
                "pitch": 41,
                "velocity": 80,
                "duration": 0.11590909090909074,
                "tempo": 120.0
            },
            {
                "start_time": 4.088636363636364,
                "end_time": 4.204545454545454,
                "pitch": 41,
                "velocity": 80,
                "duration": 0.1159090909090903,
                "tempo": 120.0
            },
            {
                "start_time": 4.322727272727272,
                "end_time": 4.4409090909090905,
                "pitch": 41,
                "velocity": 80,
                "duration": 0.11818181818181817,
                "tempo": 120.0
            },
            {
                "start_time": 4.4409090909090905,
                "end_time": 4.556818181818182,
                "pitch": 39,
                "velocity": 80,
                "duration": 0.11590909090909118,
                "tempo": 120.0
            },
            {
                "start_time": 4.559090909090909,
                "end_time": 4.675,
                "pitch": 36,
                "velocity": 80,
                "duration": 0.11590909090909118,
                "tempo": 120.0
            },
            {
                "start_time": 4.675,
                "end_time": 5.134090909090909,
                "pitch": 39,
                "velocity": 80,
                "duration": 0.459090909090909,
                "tempo": 120.0
            },
            {
                "start_time": 5.134090909090909,
                "end_time": 5.368181818181818,
                "pitch": 41,
                "velocity": 80,
                "duration": 0.23409090909090935,
                "tempo": 120.0
            },
            {
                "start_time": 5.6045454545454545,
                "end_time": 5.720454545454545,
                "pitch": 39,
                "velocity": 80,
                "duration": 0.1159090909090903,
                "tempo": 120.0
            },
            {
                "start_time": 5.720454545454545,
                "end_time": 5.836363636363636,
                "pitch": 41,
                "velocity": 80,
                "duration": 0.11590909090909118,
                "tempo": 120.0
            },
            {
                "start_time": 5.956818181818181,
                "end_time": 6.072727272727272,
                "pitch": 41,
                "velocity": 80,
                "duration": 0.11590909090909118,
                "tempo": 120.0
            },
            {
                "start_time": 6.1909090909090905,
                "end_time": 6.306818181818182,
                "pitch": 41,
                "velocity": 80,
                "duration": 0.11590909090909118,
                "tempo": 120.0
            },
            {
                "start_time": 6.309090909090909,
                "end_time": 6.425,
                "pitch": 39,
                "velocity": 80,
                "duration": 0.11590909090909118,
                "tempo": 120.0
            },
            {
                "start_time": 6.425,
                "end_time": 6.543181818181818,
                "pitch": 36,
                "velocity": 80,
                "duration": 0.11818181818181817,
                "tempo": 120.0
            },
            {
                "start_time": 6.543181818181818,
                "end_time": 6.656818181818181,
                "pitch": 39,
                "velocity": 80,
                "duration": 0.11363636363636331,
                "tempo": 120.0
            },
            {
                "start_time": 6.7727272727272725,
                "end_time": 6.886363636363636,
                "pitch": 39,
                "velocity": 80,
                "duration": 0.11363636363636331,
                "tempo": 120.0
            },
            {
                "start_time": 7.002272727272727,
                "end_time": 7.118181818181818,
                "pitch": 39,
                "velocity": 80,
                "duration": 0.11590909090909118,
                "tempo": 120.0
            },
            {
                "start_time": 7.120454545454545,
                "end_time": 7.475,
                "pitch": 41,
                "velocity": 80,
                "duration": 0.3545454545454545,
                "tempo": 120.0
            },
            {
                "start_time": 7.477272727272727,
                "end_time": 7.588636363636363,
                "pitch": 41,
                "velocity": 80,
                "duration": 0.11136363636363633,
                "tempo": 120.0
            },
            {
                "start_time": 7.590909090909091,
                "end_time": 7.704545454545454,
                "pitch": 43,
                "velocity": 80,
                "duration": 0.11363636363636331,
                "tempo": 120.0
            },
            {
                "start_time": 7.824999999999999,
                "end_time": 7.9409090909090905,
                "pitch": 43,
                "velocity": 80,
                "duration": 0.11590909090909118,
                "tempo": 120.0
            },
            {
                "start_time": 8.059090909090909,
                "end_time": 8.177272727272728,
                "pitch": 43,
                "velocity": 80,
                "duration": 0.11818181818181905,
                "tempo": 120.0
            },
            {
                "start_time": 8.177272727272728,
                "end_time": 8.293181818181818,
                "pitch": 41,
                "velocity": 80,
                "duration": 0.1159090909090903,
                "tempo": 120.0
            },
            {
                "start_time": 8.293181818181818,
                "end_time": 8.411363636363635,
                "pitch": 38,
                "velocity": 80,
                "duration": 0.11818181818181728,
                "tempo": 120.0
            },
            {
                "start_time": 8.413636363636364,
                "end_time": 8.870454545454544,
                "pitch": 41,
                "velocity": 80,
                "duration": 0.45681818181818024,
                "tempo": 120.0
            },
            {
                "start_time": 8.870454545454544,
                "end_time": 9.102272727272727,
                "pitch": 43,
                "velocity": 80,
                "duration": 0.23181818181818237,
                "tempo": 120.0
            },
            {
                "start_time": 9.34090909090909,
                "end_time": 9.454545454545453,
                "pitch": 41,
                "velocity": 80,
                "duration": 0.11363636363636331,
                "tempo": 120.0
            },
            {
                "start_time": 9.456818181818182,
                "end_time": 9.575,
                "pitch": 43,
                "velocity": 80,
                "duration": 0.11818181818181728,
                "tempo": 120.0
            },
            {
                "start_time": 9.69090909090909,
                "end_time": 9.809090909090909,
                "pitch": 43,
                "velocity": 80,
                "duration": 0.11818181818181905,
                "tempo": 120.0
            },
            {
                "start_time": 9.927272727272726,
                "end_time": 10.043181818181818,
                "pitch": 43,
                "velocity": 80,
                "duration": 0.11590909090909207,
                "tempo": 120.0
            },
            {
                "start_time": 10.045454545454545,
                "end_time": 10.161363636363635,
                "pitch": 41,
                "velocity": 80,
                "duration": 0.1159090909090903,
                "tempo": 120.0
            },
            {
                "start_time": 10.163636363636364,
                "end_time": 10.279545454545454,
                "pitch": 38,
                "velocity": 80,
                "duration": 0.1159090909090903,
                "tempo": 120.0
            },
            {
                "start_time": 10.279545454545454,
                "end_time": 10.393181818181818,
                "pitch": 41,
                "velocity": 80,
                "duration": 0.11363636363636331,
                "tempo": 120.0
            },
            {
                "start_time": 10.509090909090908,
                "end_time": 10.622727272727273,
                "pitch": 41,
                "velocity": 80,
                "duration": 0.11363636363636509,
                "tempo": 120.0
            },
            {
                "start_time": 10.738636363636363,
                "end_time": 10.854545454545454,
                "pitch": 41,
                "velocity": 80,
                "duration": 0.1159090909090903,
                "tempo": 120.0
            },
            {
                "start_time": 10.85681818181818,
                "end_time": 11.209090909090909,
                "pitch": 43,
                "velocity": 80,
                "duration": 0.3522727272727284,
                "tempo": 120.0
            },
            {
                "start_time": 11.209090909090909,
                "end_time": 11.325,
                "pitch": 39,
                "velocity": 80,
                "duration": 0.1159090909090903,
                "tempo": 120.0
            },
            {
                "start_time": 11.325,
                "end_time": 11.44090909090909,
                "pitch": 41,
                "velocity": 80,
                "duration": 0.1159090909090903,
                "tempo": 120.0
            },
            {
                "start_time": 11.561363636363636,
                "end_time": 11.677272727272726,
                "pitch": 41,
                "velocity": 80,
                "duration": 0.1159090909090903,
                "tempo": 120.0
            },
            {
                "start_time": 11.793181818181818,
                "end_time": 11.906818181818181,
                "pitch": 41,
                "velocity": 80,
                "duration": 0.11363636363636331,
                "tempo": 120.0
            },
            {
                "start_time": 11.906818181818181,
                "end_time": 12.020454545454545,
                "pitch": 39,
                "velocity": 80,
                "duration": 0.11363636363636331,
                "tempo": 120.0
            },
            {
                "start_time": 12.020454545454545,
                "end_time": 12.136363636363635,
                "pitch": 36,
                "velocity": 80,
                "duration": 0.1159090909090903,
                "tempo": 120.0
            },
            {
                "start_time": 12.138636363636364,
                "end_time": 12.604545454545454,
                "pitch": 39,
                "velocity": 80,
                "duration": 0.46590909090908994,
                "tempo": 120.0
            },
            {
                "start_time": 12.60681818181818,
                "end_time": 12.838636363636363,
                "pitch": 41,
                "velocity": 80,
                "duration": 0.23181818181818237,
                "tempo": 120.0
            },
            {
                "start_time": 13.077272727272726,
                "end_time": 13.188636363636363,
                "pitch": 39,
                "velocity": 80,
                "duration": 0.11136363636363633,
                "tempo": 120.0
            },
            {
                "start_time": 13.188636363636363,
                "end_time": 13.304545454545455,
                "pitch": 41,
                "velocity": 80,
                "duration": 0.11590909090909207,
                "tempo": 120.0
            },
            {
                "start_time": 13.418181818181818,
                "end_time": 13.534090909090908,
                "pitch": 41,
                "velocity": 80,
                "duration": 0.1159090909090903,
                "tempo": 120.0
            },
            {
                "start_time": 13.652272727272727,
                "end_time": 13.768181818181818,
                "pitch": 41,
                "velocity": 80,
                "duration": 0.1159090909090903,
                "tempo": 120.0
            },
            {
                "start_time": 13.770454545454545,
                "end_time": 13.886363636363635,
                "pitch": 39,
                "velocity": 80,
                "duration": 0.1159090909090903,
                "tempo": 120.0
            },
            {
                "start_time": 13.886363636363635,
                "end_time": 14.002272727272727,
                "pitch": 36,
                "velocity": 80,
                "duration": 0.11590909090909207,
                "tempo": 120.0
            },
            {
                "start_time": 14.004545454545454,
                "end_time": 14.120454545454544,
                "pitch": 39,
                "velocity": 80,
                "duration": 0.1159090909090903,
                "tempo": 120.0
            },
            {
                "start_time": 14.238636363636363,
                "end_time": 14.354545454545454,
                "pitch": 39,
                "velocity": 80,
                "duration": 0.1159090909090903,
                "tempo": 120.0
            },
            {
                "start_time": 14.475,
                "end_time": 14.59090909090909,
                "pitch": 39,
                "velocity": 80,
                "duration": 0.1159090909090903,
                "tempo": 120.0
            },
            {
                "start_time": 14.59090909090909,
                "end_time": 14.943181818181818,
                "pitch": 41,
                "velocity": 80,
                "duration": 0.3522727272727284,
                "tempo": 120.0
            },
            {
                "start_time": 14.945454545454545,
                "end_time": 15.059090909090909,
                "pitch": 41,
                "velocity": 80,
                "duration": 0.11363636363636331,
                "tempo": 120.0
            },
            {
                "start_time": 15.061363636363636,
                "end_time": 15.174999999999999,
                "pitch": 43,
                "velocity": 80,
                "duration": 0.11363636363636331,
                "tempo": 120.0
            },
            {
                "start_time": 15.295454545454545,
                "end_time": 15.411363636363635,
                "pitch": 43,
                "velocity": 80,
                "duration": 0.1159090909090903,
                "tempo": 120.0
            },
            {
                "start_time": 15.527272727272727,
                "end_time": 15.64090909090909,
                "pitch": 43,
                "velocity": 80,
                "duration": 0.11363636363636331,
                "tempo": 120.0
            },
            {
                "start_time": 15.643181818181818,
                "end_time": 15.754545454545454,
                "pitch": 41,
                "velocity": 80,
                "duration": 0.11136363636363633,
                "tempo": 120.0
            },
            {
                "start_time": 15.756818181818181,
                "end_time": 15.872727272727271,
                "pitch": 38,
                "velocity": 80,
                "duration": 0.1159090909090903,
                "tempo": 120.0
            },
            {
                "start_time": 15.872727272727271,
                "end_time": 16.34090909090909,
                "pitch": 41,
                "velocity": 80,
                "duration": 0.4681818181818187,
                "tempo": 120.0
            },
            {
                "start_time": 16.34090909090909,
                "end_time": 16.57272727272727,
                "pitch": 43,
                "velocity": 80,
                "duration": 0.2318181818181806,
                "tempo": 120.0
            },
            {
                "start_time": 16.811363636363634,
                "end_time": 16.922727272727272,
                "pitch": 41,
                "velocity": 80,
                "duration": 0.11136363636363811,
                "tempo": 120.0
            },
            {
                "start_time": 16.925,
                "end_time": 17.038636363636364,
                "pitch": 43,
                "velocity": 80,
                "duration": 0.11363636363636331,
                "tempo": 120.0
            },
            {
                "start_time": 17.154545454545453,
                "end_time": 17.268181818181816,
                "pitch": 43,
                "velocity": 80,
                "duration": 0.11363636363636331,
                "tempo": 120.0
            },
            {
                "start_time": 17.386363636363637,
                "end_time": 17.504545454545454,
                "pitch": 43,
                "velocity": 80,
                "duration": 0.11818181818181728,
                "tempo": 120.0
            },
            {
                "start_time": 17.504545454545454,
                "end_time": 17.620454545454546,
                "pitch": 41,
                "velocity": 80,
                "duration": 0.11590909090909207,
                "tempo": 120.0
            },
            {
                "start_time": 17.62272727272727,
                "end_time": 17.738636363636363,
                "pitch": 38,
                "velocity": 80,
                "duration": 0.11590909090909207,
                "tempo": 120.0
            },
            {
                "start_time": 17.74090909090909,
                "end_time": 17.854545454545455,
                "pitch": 41,
                "velocity": 80,
                "duration": 0.11363636363636687,
                "tempo": 120.0
            },
            {
                "start_time": 17.974999999999998,
                "end_time": 18.09090909090909,
                "pitch": 41,
                "velocity": 80,
                "duration": 0.11590909090909207,
                "tempo": 120.0
            },
            {
                "start_time": 18.209090909090907,
                "end_time": 18.325,
                "pitch": 41,
                "velocity": 80,
                "duration": 0.11590909090909207,
                "tempo": 120.0
            },
            {
                "start_time": 18.327272727272728,
                "end_time": 18.679545454545455,
                "pitch": 43,
                "velocity": 80,
                "duration": 0.3522727272727266,
                "tempo": 120.0
            },
            {
                "start_time": 18.679545454545455,
                "end_time": 18.793181818181818,
                "pitch": 39,
                "velocity": 80,
                "duration": 0.11363636363636331,
                "tempo": 120.0
            },
            {
                "start_time": 18.793181818181818,
                "end_time": 18.904545454545453,
                "pitch": 41,
                "velocity": 80,
                "duration": 0.11136363636363455,
                "tempo": 120.0
            },
            {
                "start_time": 19.022727272727273,
                "end_time": 19.136363636363637,
                "pitch": 41,
                "velocity": 80,
                "duration": 0.11363636363636331,
                "tempo": 120.0
            },
            {
                "start_time": 19.254545454545454,
                "end_time": 19.370454545454546,
                "pitch": 41,
                "velocity": 80,
                "duration": 0.11590909090909207,
                "tempo": 120.0
            },
            {
                "start_time": 19.37272727272727,
                "end_time": 19.486363636363635,
                "pitch": 39,
                "velocity": 80,
                "duration": 0.11363636363636331,
                "tempo": 120.0
            },
            {
                "start_time": 19.488636363636363,
                "end_time": 19.60681818181818,
                "pitch": 36,
                "velocity": 80,
                "duration": 0.11818181818181728,
                "tempo": 120.0
            },
            {
                "start_time": 19.60681818181818,
                "end_time": 20.075,
                "pitch": 39,
                "velocity": 80,
                "duration": 0.4681818181818187,
                "tempo": 120.0
            },
            {
                "start_time": 20.077272727272728,
                "end_time": 20.30909090909091,
                "pitch": 41,
                "velocity": 80,
                "duration": 0.2318181818181806,
                "tempo": 120.0
            },
            {
                "start_time": 20.547727272727272,
                "end_time": 20.659090909090907,
                "pitch": 39,
                "velocity": 80,
                "duration": 0.11136363636363455,
                "tempo": 120.0
            },
            {
                "start_time": 20.659090909090907,
                "end_time": 20.775,
                "pitch": 41,
                "velocity": 80,
                "duration": 0.11590909090909207,
                "tempo": 120.0
            },
            {
                "start_time": 20.888636363636362,
                "end_time": 21.004545454545454,
                "pitch": 41,
                "velocity": 80,
                "duration": 0.11590909090909207,
                "tempo": 120.0
            },
            {
                "start_time": 21.12272727272727,
                "end_time": 21.238636363636363,
                "pitch": 41,
                "velocity": 80,
                "duration": 0.11590909090909207,
                "tempo": 120.0
            },
            {
                "start_time": 21.24090909090909,
                "end_time": 21.35681818181818,
                "pitch": 39,
                "velocity": 80,
                "duration": 0.11590909090909207,
                "tempo": 120.0
            },
            {
                "start_time": 21.35681818181818,
                "end_time": 21.472727272727273,
                "pitch": 36,
                "velocity": 80,
                "duration": 0.11590909090909207,
                "tempo": 120.0
            },
            {
                "start_time": 21.474999999999998,
                "end_time": 21.59090909090909,
                "pitch": 39,
                "velocity": 80,
                "duration": 0.11590909090909207,
                "tempo": 120.0
            },
            {
                "start_time": 21.709090909090907,
                "end_time": 21.825,
                "pitch": 39,
                "velocity": 80,
                "duration": 0.11590909090909207,
                "tempo": 120.0
            },
            {
                "start_time": 21.945454545454545,
                "end_time": 22.05681818181818,
                "pitch": 39,
                "velocity": 80,
                "duration": 0.11136363636363455,
                "tempo": 120.0
            },
            {
                "start_time": 22.05909090909091,
                "end_time": 22.402272727272727,
                "pitch": 41,
                "velocity": 80,
                "duration": 0.3431818181818187,
                "tempo": 120.0
            },
            {
                "start_time": 22.413636363636364,
                "end_time": 22.522727272727273,
                "pitch": 41,
                "velocity": 80,
                "duration": 0.10909090909090935,
                "tempo": 120.0
            },
            {
                "start_time": 22.522727272727273,
                "end_time": 22.638636363636362,
                "pitch": 43,
                "velocity": 80,
                "duration": 0.11590909090908852,
                "tempo": 120.0
            }
        ],
        "Electric Piano 1": [
            {
                "start_time": 0.013636363636363636,
                "end_time": 0.12727272727272726,
                "pitch": 29,
                "velocity": 40,
                "duration": 0.11363636363636362,
                "tempo": 120.0
            },
            {
                "start_time": 0.12727272727272726,
                "end_time": 0.24545454545454545,
                "pitch": 31,
                "velocity": 40,
                "duration": 0.1181818181818182,
                "tempo": 120.0
            },
            {
                "start_time": 0.36363636363636365,
                "end_time": 0.4795454545454545,
                "pitch": 31,
                "velocity": 40,
                "duration": 0.11590909090909085,
                "tempo": 120.0
            },
            {
                "start_time": 0.5954545454545455,
                "end_time": 0.7090909090909091,
                "pitch": 31,
                "velocity": 40,
                "duration": 0.11363636363636365,
                "tempo": 120.0
            },
            {
                "start_time": 0.7090909090909091,
                "end_time": 0.8227272727272726,
                "pitch": 29,
                "velocity": 40,
                "duration": 0.11363636363636354,
                "tempo": 120.0
            },
            {
                "start_time": 0.825,
                "end_time": 0.9386363636363636,
                "pitch": 26,
                "velocity": 40,
                "duration": 0.11363636363636365,
                "tempo": 120.0
            },
            {
                "start_time": 0.9386363636363636,
                "end_time": 1.3977272727272727,
                "pitch": 29,
                "velocity": 40,
                "duration": 0.4590909090909091,
                "tempo": 120.0
            },
            {
                "start_time": 1.3977272727272727,
                "end_time": 1.6318181818181818,
                "pitch": 31,
                "velocity": 40,
                "duration": 0.23409090909090913,
                "tempo": 120.0
            },
            {
                "start_time": 1.8681818181818182,
                "end_time": 1.984090909090909,
                "pitch": 29,
                "velocity": 40,
                "duration": 0.11590909090909074,
                "tempo": 120.0
            },
            {
                "start_time": 1.984090909090909,
                "end_time": 2.102272727272727,
                "pitch": 31,
                "velocity": 40,
                "duration": 0.11818181818181817,
                "tempo": 120.0
            },
            {
                "start_time": 2.2204545454545452,
                "end_time": 2.3363636363636364,
                "pitch": 31,
                "velocity": 40,
                "duration": 0.11590909090909118,
                "tempo": 120.0
            },
            {
                "start_time": 2.4545454545454546,
                "end_time": 2.5704545454545453,
                "pitch": 31,
                "velocity": 40,
                "duration": 0.11590909090909074,
                "tempo": 120.0
            },
            {
                "start_time": 2.5727272727272728,
                "end_time": 2.6886363636363635,
                "pitch": 29,
                "velocity": 40,
                "duration": 0.11590909090909074,
                "tempo": 120.0
            },
            {
                "start_time": 2.6886363636363635,
                "end_time": 2.8068181818181817,
                "pitch": 26,
                "velocity": 40,
                "duration": 0.11818181818181817,
                "tempo": 120.0
            },
            {
                "start_time": 2.8068181818181817,
                "end_time": 2.9204545454545454,
                "pitch": 29,
                "velocity": 40,
                "duration": 0.11363636363636376,
                "tempo": 120.0
            },
            {
                "start_time": 3.036363636363636,
                "end_time": 3.15,
                "pitch": 29,
                "velocity": 40,
                "duration": 0.11363636363636376,
                "tempo": 120.0
            },
            {
                "start_time": 3.2659090909090907,
                "end_time": 3.381818181818182,
                "pitch": 29,
                "velocity": 40,
                "duration": 0.11590909090909118,
                "tempo": 120.0
            },
            {
                "start_time": 3.381818181818182,
                "end_time": 3.734090909090909,
                "pitch": 31,
                "velocity": 40,
                "duration": 0.35227272727272707,
                "tempo": 120.0
            },
            {
                "start_time": 3.7363636363636363,
                "end_time": 3.852272727272727,
                "pitch": 27,
                "velocity": 40,
                "duration": 0.11590909090909074,
                "tempo": 120.0
            },
            {
                "start_time": 3.852272727272727,
                "end_time": 3.9704545454545452,
                "pitch": 29,
                "velocity": 40,
                "duration": 0.11818181818181817,
                "tempo": 120.0
            },
            {
                "start_time": 4.086363636363636,
                "end_time": 4.204545454545454,
                "pitch": 29,
                "velocity": 40,
                "duration": 0.11818181818181817,
                "tempo": 120.0
            },
            {
                "start_time": 4.322727272727272,
                "end_time": 4.4386363636363635,
                "pitch": 29,
                "velocity": 40,
                "duration": 0.11590909090909118,
                "tempo": 120.0
            },
            {
                "start_time": 4.4409090909090905,
                "end_time": 4.556818181818182,
                "pitch": 27,
                "velocity": 40,
                "duration": 0.11590909090909118,
                "tempo": 120.0
            },
            {
                "start_time": 4.556818181818182,
                "end_time": 4.675,
                "pitch": 24,
                "velocity": 40,
                "duration": 0.11818181818181817,
                "tempo": 120.0
            },
            {
                "start_time": 4.675,
                "end_time": 5.131818181818182,
                "pitch": 27,
                "velocity": 40,
                "duration": 0.456818181818182,
                "tempo": 120.0
            },
            {
                "start_time": 5.134090909090909,
                "end_time": 5.368181818181818,
                "pitch": 29,
                "velocity": 40,
                "duration": 0.23409090909090935,
                "tempo": 120.0
            },
            {
                "start_time": 5.6045454545454545,
                "end_time": 5.720454545454545,
                "pitch": 27,
                "velocity": 40,
                "duration": 0.1159090909090903,
                "tempo": 120.0
            },
            {
                "start_time": 5.720454545454545,
                "end_time": 5.836363636363636,
                "pitch": 29,
                "velocity": 40,
                "duration": 0.11590909090909118,
                "tempo": 120.0
            },
            {
                "start_time": 5.954545454545454,
                "end_time": 6.072727272727272,
                "pitch": 29,
                "velocity": 40,
                "duration": 0.11818181818181817,
                "tempo": 120.0
            },
            {
                "start_time": 6.1886363636363635,
                "end_time": 6.306818181818182,
                "pitch": 29,
                "velocity": 40,
                "duration": 0.11818181818181817,
                "tempo": 120.0
            },
            {
                "start_time": 6.306818181818182,
                "end_time": 6.422727272727273,
                "pitch": 27,
                "velocity": 40,
                "duration": 0.11590909090909118,
                "tempo": 120.0
            },
            {
                "start_time": 6.425,
                "end_time": 6.540909090909091,
                "pitch": 24,
                "velocity": 40,
                "duration": 0.11590909090909118,
                "tempo": 120.0
            },
            {
                "start_time": 6.543181818181818,
                "end_time": 6.656818181818181,
                "pitch": 27,
                "velocity": 40,
                "duration": 0.11363636363636331,
                "tempo": 120.0
            },
            {
                "start_time": 6.7704545454545455,
                "end_time": 6.884090909090909,
                "pitch": 27,
                "velocity": 40,
                "duration": 0.11363636363636331,
                "tempo": 120.0
            },
            {
                "start_time": 7.0,
                "end_time": 7.118181818181818,
                "pitch": 27,
                "velocity": 40,
                "duration": 0.11818181818181817,
                "tempo": 120.0
            },
            {
                "start_time": 7.118181818181818,
                "end_time": 7.472727272727273,
                "pitch": 29,
                "velocity": 40,
                "duration": 0.3545454545454545,
                "tempo": 120.0
            },
            {
                "start_time": 7.475,
                "end_time": 7.588636363636363,
                "pitch": 29,
                "velocity": 40,
                "duration": 0.11363636363636331,
                "tempo": 120.0
            },
            {
                "start_time": 7.588636363636363,
                "end_time": 7.704545454545454,
                "pitch": 31,
                "velocity": 40,
                "duration": 0.11590909090909118,
                "tempo": 120.0
            },
            {
                "start_time": 7.824999999999999,
                "end_time": 7.9409090909090905,
                "pitch": 31,
                "velocity": 40,
                "duration": 0.11590909090909118,
                "tempo": 120.0
            },
            {
                "start_time": 8.059090909090909,
                "end_time": 8.174999999999999,
                "pitch": 31,
                "velocity": 40,
                "duration": 0.1159090909090903,
                "tempo": 120.0
            },
            {
                "start_time": 8.177272727272728,
                "end_time": 8.290909090909091,
                "pitch": 29,
                "velocity": 40,
                "duration": 0.11363636363636331,
                "tempo": 120.0
            },
            {
                "start_time": 8.293181818181818,
                "end_time": 8.411363636363635,
                "pitch": 26,
                "velocity": 40,
                "duration": 0.11818181818181728,
                "tempo": 120.0
            },
            {
                "start_time": 8.411363636363635,
                "end_time": 8.868181818181817,
                "pitch": 29,
                "velocity": 40,
                "duration": 0.456818181818182,
                "tempo": 120.0
            },
            {
                "start_time": 8.870454545454544,
                "end_time": 9.102272727272727,
                "pitch": 31,
                "velocity": 40,
                "duration": 0.23181818181818237,
                "tempo": 120.0
            },
            {
                "start_time": 9.34090909090909,
                "end_time": 9.454545454545453,
                "pitch": 29,
                "velocity": 40,
                "duration": 0.11363636363636331,
                "tempo": 120.0
            },
            {
                "start_time": 9.454545454545453,
                "end_time": 9.575,
                "pitch": 31,
                "velocity": 40,
                "duration": 0.12045454545454604,
                "tempo": 120.0
            },
            {
                "start_time": 9.69090909090909,
                "end_time": 9.809090909090909,
                "pitch": 31,
                "velocity": 40,
                "duration": 0.11818181818181905,
                "tempo": 120.0
            },
            {
                "start_time": 9.927272727272726,
                "end_time": 10.043181818181818,
                "pitch": 31,
                "velocity": 40,
                "duration": 0.11590909090909207,
                "tempo": 120.0
            },
            {
                "start_time": 10.043181818181818,
                "end_time": 10.161363636363635,
                "pitch": 29,
                "velocity": 40,
                "duration": 0.11818181818181728,
                "tempo": 120.0
            },
            {
                "start_time": 10.161363636363635,
                "end_time": 10.277272727272727,
                "pitch": 26,
                "velocity": 40,
                "duration": 0.11590909090909207,
                "tempo": 120.0
            },
            {
                "start_time": 10.279545454545454,
                "end_time": 10.393181818181818,
                "pitch": 29,
                "velocity": 40,
                "duration": 0.11363636363636331,
                "tempo": 120.0
            },
            {
                "start_time": 10.509090909090908,
                "end_time": 10.622727272727273,
                "pitch": 29,
                "velocity": 40,
                "duration": 0.11363636363636509,
                "tempo": 120.0
            },
            {
                "start_time": 10.738636363636363,
                "end_time": 10.854545454545454,
                "pitch": 29,
                "velocity": 40,
                "duration": 0.1159090909090903,
                "tempo": 120.0
            },
            {
                "start_time": 10.854545454545454,
                "end_time": 11.206818181818182,
                "pitch": 31,
                "velocity": 40,
                "duration": 0.3522727272727284,
                "tempo": 120.0
            },
            {
                "start_time": 11.209090909090909,
                "end_time": 11.322727272727272,
                "pitch": 27,
                "velocity": 40,
                "duration": 0.11363636363636331,
                "tempo": 120.0
            },
            {
                "start_time": 11.325,
                "end_time": 11.44090909090909,
                "pitch": 29,
                "velocity": 40,
                "duration": 0.1159090909090903,
                "tempo": 120.0
            },
            {
                "start_time": 11.559090909090909,
                "end_time": 11.674999999999999,
                "pitch": 29,
                "velocity": 40,
                "duration": 0.1159090909090903,
                "tempo": 120.0
            },
            {
                "start_time": 11.790909090909091,
                "end_time": 11.904545454545454,
                "pitch": 29,
                "velocity": 40,
                "duration": 0.11363636363636331,
                "tempo": 120.0
            },
            {
                "start_time": 11.906818181818181,
                "end_time": 12.018181818181818,
                "pitch": 27,
                "velocity": 40,
                "duration": 0.11136363636363633,
                "tempo": 120.0
            },
            {
                "start_time": 12.018181818181818,
                "end_time": 12.136363636363635,
                "pitch": 24,
                "velocity": 40,
                "duration": 0.11818181818181728,
                "tempo": 120.0
            },
            {
                "start_time": 12.136363636363635,
                "end_time": 12.604545454545454,
                "pitch": 27,
                "velocity": 40,
                "duration": 0.4681818181818187,
                "tempo": 120.0
            },
            {
                "start_time": 12.604545454545454,
                "end_time": 12.838636363636363,
                "pitch": 29,
                "velocity": 40,
                "duration": 0.23409090909090935,
                "tempo": 120.0
            },
            {
                "start_time": 13.075,
                "end_time": 13.186363636363636,
                "pitch": 27,
                "velocity": 40,
                "duration": 0.11136363636363633,
                "tempo": 120.0
            },
            {
                "start_time": 13.188636363636363,
                "end_time": 13.304545454545455,
                "pitch": 29,
                "velocity": 40,
                "duration": 0.11590909090909207,
                "tempo": 120.0
            },
            {
                "start_time": 13.418181818181818,
                "end_time": 13.531818181818181,
                "pitch": 29,
                "velocity": 40,
                "duration": 0.11363636363636331,
                "tempo": 120.0
            },
            {
                "start_time": 13.649999999999999,
                "end_time": 13.768181818181818,
                "pitch": 29,
                "velocity": 40,
                "duration": 0.11818181818181905,
                "tempo": 120.0
            },
            {
                "start_time": 13.768181818181818,
                "end_time": 13.884090909090908,
                "pitch": 27,
                "velocity": 40,
                "duration": 0.1159090909090903,
                "tempo": 120.0
            },
            {
                "start_time": 13.886363636363635,
                "end_time": 14.002272727272727,
                "pitch": 24,
                "velocity": 40,
                "duration": 0.11590909090909207,
                "tempo": 120.0
            },
            {
                "start_time": 14.002272727272727,
                "end_time": 14.120454545454544,
                "pitch": 27,
                "velocity": 40,
                "duration": 0.11818181818181728,
                "tempo": 120.0
            },
            {
                "start_time": 14.238636363636363,
                "end_time": 14.352272727272727,
                "pitch": 27,
                "velocity": 40,
                "duration": 0.11363636363636331,
                "tempo": 120.0
            },
            {
                "start_time": 14.472727272727273,
                "end_time": 14.588636363636363,
                "pitch": 27,
                "velocity": 40,
                "duration": 0.1159090909090903,
                "tempo": 120.0
            },
            {
                "start_time": 14.59090909090909,
                "end_time": 14.943181818181818,
                "pitch": 29,
                "velocity": 40,
                "duration": 0.3522727272727284,
                "tempo": 120.0
            },
            {
                "start_time": 14.943181818181818,
                "end_time": 15.059090909090909,
                "pitch": 29,
                "velocity": 40,
                "duration": 0.1159090909090903,
                "tempo": 120.0
            },
            {
                "start_time": 15.059090909090909,
                "end_time": 15.174999999999999,
                "pitch": 31,
                "velocity": 40,
                "duration": 0.1159090909090903,
                "tempo": 120.0
            },
            {
                "start_time": 15.295454545454545,
                "end_time": 15.411363636363635,
                "pitch": 31,
                "velocity": 40,
                "duration": 0.1159090909090903,
                "tempo": 120.0
            },
            {
                "start_time": 15.527272727272727,
                "end_time": 15.64090909090909,
                "pitch": 31,
                "velocity": 40,
                "duration": 0.11363636363636331,
                "tempo": 120.0
            },
            {
                "start_time": 15.64090909090909,
                "end_time": 15.754545454545454,
                "pitch": 29,
                "velocity": 40,
                "duration": 0.11363636363636331,
                "tempo": 120.0
            },
            {
                "start_time": 15.754545454545454,
                "end_time": 15.870454545454544,
                "pitch": 26,
                "velocity": 40,
                "duration": 0.1159090909090903,
                "tempo": 120.0
            },
            {
                "start_time": 15.870454545454544,
                "end_time": 16.33863636363636,
                "pitch": 29,
                "velocity": 40,
                "duration": 0.4681818181818169,
                "tempo": 120.0
            },
            {
                "start_time": 16.34090909090909,
                "end_time": 16.57272727272727,
                "pitch": 31,
                "velocity": 40,
                "duration": 0.2318181818181806,
                "tempo": 120.0
            },
            {
                "start_time": 16.811363636363634,
                "end_time": 16.922727272727272,
                "pitch": 29,
                "velocity": 40,
                "duration": 0.11136363636363811,
                "tempo": 120.0
            },
            {
                "start_time": 16.922727272727272,
                "end_time": 17.038636363636364,
                "pitch": 31,
                "velocity": 40,
                "duration": 0.11590909090909207,
                "tempo": 120.0
            },
            {
                "start_time": 17.152272727272727,
                "end_time": 17.268181818181816,
                "pitch": 31,
                "velocity": 40,
                "duration": 0.11590909090908852,
                "tempo": 120.0
            },
            {
                "start_time": 17.386363636363637,
                "end_time": 17.502272727272725,
                "pitch": 31,
                "velocity": 40,
                "duration": 0.11590909090908852,
                "tempo": 120.0
            },
            {
                "start_time": 17.504545454545454,
                "end_time": 17.620454545454546,
                "pitch": 29,
                "velocity": 40,
                "duration": 0.11590909090909207,
                "tempo": 120.0
            },
            {
                "start_time": 17.620454545454546,
                "end_time": 17.738636363636363,
                "pitch": 26,
                "velocity": 40,
                "duration": 0.11818181818181728,
                "tempo": 120.0
            },
            {
                "start_time": 17.738636363636363,
                "end_time": 17.854545454545455,
                "pitch": 29,
                "velocity": 40,
                "duration": 0.11590909090909207,
                "tempo": 120.0
            },
            {
                "start_time": 17.972727272727273,
                "end_time": 18.08863636363636,
                "pitch": 29,
                "velocity": 40,
                "duration": 0.11590909090908852,
                "tempo": 120.0
            },
            {
                "start_time": 18.209090909090907,
                "end_time": 18.325,
                "pitch": 29,
                "velocity": 40,
                "duration": 0.11590909090909207,
                "tempo": 120.0
            },
            {
                "start_time": 18.325,
                "end_time": 18.677272727272726,
                "pitch": 31,
                "velocity": 40,
                "duration": 0.3522727272727266,
                "tempo": 120.0
            },
            {
                "start_time": 18.677272727272726,
                "end_time": 18.79090909090909,
                "pitch": 27,
                "velocity": 40,
                "duration": 0.11363636363636331,
                "tempo": 120.0
            },
            {
                "start_time": 18.79090909090909,
                "end_time": 18.904545454545453,
                "pitch": 29,
                "velocity": 40,
                "duration": 0.11363636363636331,
                "tempo": 120.0
            },
            {
                "start_time": 19.020454545454545,
                "end_time": 19.136363636363637,
                "pitch": 29,
                "velocity": 40,
                "duration": 0.11590909090909207,
                "tempo": 120.0
            },
            {
                "start_time": 19.252272727272725,
                "end_time": 19.370454545454546,
                "pitch": 29,
                "velocity": 40,
                "duration": 0.11818181818182083,
                "tempo": 120.0
            },
            {
                "start_time": 19.370454545454546,
                "end_time": 19.486363636363635,
                "pitch": 27,
                "velocity": 40,
                "duration": 0.11590909090908852,
                "tempo": 120.0
            },
            {
                "start_time": 19.486363636363635,
                "end_time": 19.60681818181818,
                "pitch": 24,
                "velocity": 40,
                "duration": 0.12045454545454604,
                "tempo": 120.0
            },
            {
                "start_time": 19.60681818181818,
                "end_time": 20.075,
                "pitch": 27,
                "velocity": 40,
                "duration": 0.4681818181818187,
                "tempo": 120.0
            },
            {
                "start_time": 20.075,
                "end_time": 20.30909090909091,
                "pitch": 29,
                "velocity": 40,
                "duration": 0.23409090909090935,
                "tempo": 120.0
            },
            {
                "start_time": 20.545454545454543,
                "end_time": 20.65681818181818,
                "pitch": 27,
                "velocity": 40,
                "duration": 0.11136363636363811,
                "tempo": 120.0
            },
            {
                "start_time": 20.659090909090907,
                "end_time": 20.775,
                "pitch": 29,
                "velocity": 40,
                "duration": 0.11590909090909207,
                "tempo": 120.0
            },
            {
                "start_time": 20.888636363636362,
                "end_time": 21.002272727272725,
                "pitch": 29,
                "velocity": 40,
                "duration": 0.11363636363636331,
                "tempo": 120.0
            },
            {
                "start_time": 21.120454545454546,
                "end_time": 21.238636363636363,
                "pitch": 29,
                "velocity": 40,
                "duration": 0.11818181818181728,
                "tempo": 120.0
            },
            {
                "start_time": 21.238636363636363,
                "end_time": 21.354545454545452,
                "pitch": 27,
                "velocity": 40,
                "duration": 0.11590909090908852,
                "tempo": 120.0
            },
            {
                "start_time": 21.35681818181818,
                "end_time": 21.472727272727273,
                "pitch": 24,
                "velocity": 40,
                "duration": 0.11590909090909207,
                "tempo": 120.0
            },
            {
                "start_time": 21.472727272727273,
                "end_time": 21.59090909090909,
                "pitch": 27,
                "velocity": 40,
                "duration": 0.11818181818181728,
                "tempo": 120.0
            },
            {
                "start_time": 21.709090909090907,
                "end_time": 21.82272727272727,
                "pitch": 27,
                "velocity": 40,
                "duration": 0.11363636363636331,
                "tempo": 120.0
            },
            {
                "start_time": 21.943181818181817,
                "end_time": 22.05681818181818,
                "pitch": 27,
                "velocity": 40,
                "duration": 0.11363636363636331,
                "tempo": 120.0
            },
            {
                "start_time": 22.05681818181818,
                "end_time": 22.4,
                "pitch": 29,
                "velocity": 40,
                "duration": 0.3431818181818187,
                "tempo": 120.0
            },
            {
                "start_time": 22.411363636363635,
                "end_time": 22.520454545454545,
                "pitch": 29,
                "velocity": 40,
                "duration": 0.10909090909090935,
                "tempo": 120.0
            },
            {
                "start_time": 22.522727272727273,
                "end_time": 22.638636363636362,
                "pitch": 31,
                "velocity": 40,
                "duration": 0.11590909090908852,
                "tempo": 120.0
            }
        ],
        "Harpsichord": [
            {
                "start_time": 7.472727272727273,
                "end_time": 7.586363636363636,
                "pitch": 65,
                "velocity": 127,
                "duration": 0.11363636363636331,
                "tempo": 120.0
            },
            {
                "start_time": 7.588636363636363,
                "end_time": 7.704545454545454,
                "pitch": 67,
                "velocity": 127,
                "duration": 0.11590909090909118,
                "tempo": 120.0
            },
            {
                "start_time": 7.822727272727272,
                "end_time": 8.174999999999999,
                "pitch": 67,
                "velocity": 127,
                "duration": 0.3522727272727266,
                "tempo": 120.0
            },
            {
                "start_time": 8.174999999999999,
                "end_time": 8.290909090909091,
                "pitch": 62,
                "velocity": 127,
                "duration": 0.11590909090909207,
                "tempo": 120.0
            },
            {
                "start_time": 8.411363636363635,
                "end_time": 8.522727272727272,
                "pitch": 65,
                "velocity": 127,
                "duration": 0.11136363636363633,
                "tempo": 120.0
            },
            {
                "start_time": 8.64090909090909,
                "end_time": 8.868181818181817,
                "pitch": 65,
                "velocity": 127,
                "duration": 0.22727272727272663,
                "tempo": 120.0
            },
            {
                "start_time": 8.868181818181817,
                "end_time": 8.98409090909091,
                "pitch": 65,
                "velocity": 127,
                "duration": 0.11590909090909207,
                "tempo": 120.0
            },
            {
                "start_time": 8.986363636363636,
                "end_time": 9.102272727272727,
                "pitch": 67,
                "velocity": 127,
                "duration": 0.1159090909090903,
                "tempo": 120.0
            },
            {
                "start_time": 9.338636363636363,
                "end_time": 9.454545454545453,
                "pitch": 62,
                "velocity": 127,
                "duration": 0.1159090909090903,
                "tempo": 120.0
            },
            {
                "start_time": 9.572727272727272,
                "end_time": 9.688636363636363,
                "pitch": 65,
                "velocity": 127,
                "duration": 0.1159090909090903,
                "tempo": 120.0
            },
            {
                "start_time": 9.809090909090909,
                "end_time": 9.924999999999999,
                "pitch": 62,
                "velocity": 127,
                "duration": 0.1159090909090903,
                "tempo": 120.0
            },
            {
                "start_time": 9.924999999999999,
                "end_time": 10.159090909090908,
                "pitch": 65,
                "velocity": 127,
                "duration": 0.23409090909090935,
                "tempo": 120.0
            },
            {
                "start_time": 10.161363636363635,
                "end_time": 10.277272727272727,
                "pitch": 62,
                "velocity": 127,
                "duration": 0.11590909090909207,
                "tempo": 120.0
            },
            {
                "start_time": 10.277272727272727,
                "end_time": 10.39090909090909,
                "pitch": 65,
                "velocity": 127,
                "duration": 0.11363636363636331,
                "tempo": 120.0
            },
            {
                "start_time": 10.393181818181818,
                "end_time": 10.506818181818181,
                "pitch": 65,
                "velocity": 127,
                "duration": 0.11363636363636331,
                "tempo": 120.0
            },
            {
                "start_time": 10.506818181818181,
                "end_time": 10.736363636363636,
                "pitch": 65,
                "velocity": 127,
                "duration": 0.22954545454545539,
                "tempo": 120.0
            },
            {
                "start_time": 10.736363636363636,
                "end_time": 10.852272727272727,
                "pitch": 65,
                "velocity": 127,
                "duration": 0.1159090909090903,
                "tempo": 120.0
            },
            {
                "start_time": 10.854545454545454,
                "end_time": 10.970454545454546,
                "pitch": 67,
                "velocity": 127,
                "duration": 0.11590909090909207,
                "tempo": 120.0
            },
            {
                "start_time": 11.206818181818182,
                "end_time": 11.322727272727272,
                "pitch": 65,
                "velocity": 127,
                "duration": 0.1159090909090903,
                "tempo": 120.0
            },
            {
                "start_time": 11.322727272727272,
                "end_time": 11.438636363636363,
                "pitch": 67,
                "velocity": 127,
                "duration": 0.1159090909090903,
                "tempo": 120.0
            },
            {
                "start_time": 11.559090909090909,
                "end_time": 11.904545454545454,
                "pitch": 67,
                "velocity": 127,
                "duration": 0.3454545454545457,
                "tempo": 120.0
            },
            {
                "start_time": 11.904545454545454,
                "end_time": 12.018181818181818,
                "pitch": 62,
                "velocity": 127,
                "duration": 0.11363636363636331,
                "tempo": 120.0
            },
            {
                "start_time": 12.136363636363635,
                "end_time": 12.25,
                "pitch": 65,
                "velocity": 127,
                "duration": 0.11363636363636509,
                "tempo": 120.0
            },
            {
                "start_time": 12.370454545454544,
                "end_time": 12.602272727272727,
                "pitch": 65,
                "velocity": 127,
                "duration": 0.23181818181818237,
                "tempo": 120.0
            },
            {
                "start_time": 12.604545454545454,
                "end_time": 12.720454545454546,
                "pitch": 65,
                "velocity": 127,
                "duration": 0.11590909090909207,
                "tempo": 120.0
            },
            {
                "start_time": 12.722727272727273,
                "end_time": 12.838636363636363,
                "pitch": 67,
                "velocity": 127,
                "duration": 0.1159090909090903,
                "tempo": 120.0
            },
            {
                "start_time": 13.075,
                "end_time": 13.186363636363636,
                "pitch": 65,
                "velocity": 127,
                "duration": 0.11136363636363633,
                "tempo": 120.0
            },
            {
                "start_time": 13.304545454545455,
                "end_time": 13.415909090909091,
                "pitch": 62,
                "velocity": 127,
                "duration": 0.11136363636363633,
                "tempo": 120.0
            },
            {
                "start_time": 13.531818181818181,
                "end_time": 13.647727272727272,
                "pitch": 65,
                "velocity": 127,
                "duration": 0.1159090909090903,
                "tempo": 120.0
            },
            {
                "start_time": 13.649999999999999,
                "end_time": 13.85,
                "pitch": 62,
                "velocity": 127,
                "duration": 0.20000000000000107,
                "tempo": 120.0
            },
            {
                "start_time": 13.852272727272727,
                "end_time": 13.884090909090908,
                "pitch": 67,
                "velocity": 101,
                "duration": 0.0318181818181813,
                "tempo": 120.0
            },
            {
                "start_time": 13.884090909090908,
                "end_time": 13.915909090909091,
                "pitch": 69,
                "velocity": 101,
                "duration": 0.03181818181818308,
                "tempo": 120.0
            },
            {
                "start_time": 13.918181818181818,
                "end_time": 14.118181818181817,
                "pitch": 70,
                "velocity": 127,
                "duration": 0.1999999999999993,
                "tempo": 120.0
            },
            {
                "start_time": 14.120454545454544,
                "end_time": 14.236363636363636,
                "pitch": 70,
                "velocity": 127,
                "duration": 0.11590909090909207,
                "tempo": 120.0
            },
            {
                "start_time": 14.236363636363636,
                "end_time": 14.352272727272727,
                "pitch": 69,
                "velocity": 127,
                "duration": 0.1159090909090903,
                "tempo": 120.0
            },
            {
                "start_time": 14.472727272727273,
                "end_time": 14.588636363636363,
                "pitch": 67,
                "velocity": 127,
                "duration": 0.1159090909090903,
                "tempo": 120.0
            },
            {
                "start_time": 14.588636363636363,
                "end_time": 14.94090909090909,
                "pitch": 65,
                "velocity": 127,
                "duration": 0.3522727272727266,
                "tempo": 120.0
            },
            {
                "start_time": 14.943181818181818,
                "end_time": 15.056818181818182,
                "pitch": 65,
                "velocity": 127,
                "duration": 0.11363636363636331,
                "tempo": 120.0
            },
            {
                "start_time": 15.059090909090909,
                "end_time": 15.174999999999999,
                "pitch": 67,
                "velocity": 127,
                "duration": 0.1159090909090903,
                "tempo": 120.0
            },
            {
                "start_time": 15.293181818181818,
                "end_time": 15.638636363636364,
                "pitch": 67,
                "velocity": 127,
                "duration": 0.3454545454545457,
                "tempo": 120.0
            },
            {
                "start_time": 15.64090909090909,
                "end_time": 15.754545454545454,
                "pitch": 62,
                "velocity": 127,
                "duration": 0.11363636363636331,
                "tempo": 120.0
            },
            {
                "start_time": 15.870454545454544,
                "end_time": 15.986363636363636,
                "pitch": 65,
                "velocity": 127,
                "duration": 0.11590909090909207,
                "tempo": 120.0
            },
            {
                "start_time": 16.104545454545455,
                "end_time": 16.33863636363636,
                "pitch": 65,
                "velocity": 127,
                "duration": 0.2340909090909058,
                "tempo": 120.0
            },
            {
                "start_time": 16.33863636363636,
                "end_time": 16.454545454545453,
                "pitch": 65,
                "velocity": 127,
                "duration": 0.11590909090909207,
                "tempo": 120.0
            },
            {
                "start_time": 16.456818181818182,
                "end_time": 16.57272727272727,
                "pitch": 67,
                "velocity": 127,
                "duration": 0.11590909090908852,
                "tempo": 120.0
            },
            {
                "start_time": 16.80909090909091,
                "end_time": 16.922727272727272,
                "pitch": 62,
                "velocity": 127,
                "duration": 0.11363636363636331,
                "tempo": 120.0
            },
            {
                "start_time": 17.038636363636364,
                "end_time": 17.152272727272727,
                "pitch": 65,
                "velocity": 127,
                "duration": 0.11363636363636331,
                "tempo": 120.0
            },
            {
                "start_time": 17.268181818181816,
                "end_time": 17.384090909090908,
                "pitch": 62,
                "velocity": 127,
                "duration": 0.11590909090909207,
                "tempo": 120.0
            },
            {
                "start_time": 17.384090909090908,
                "end_time": 17.618181818181817,
                "pitch": 65,
                "velocity": 127,
                "duration": 0.23409090909090935,
                "tempo": 120.0
            },
            {
                "start_time": 17.620454545454546,
                "end_time": 17.736363636363635,
                "pitch": 62,
                "velocity": 127,
                "duration": 0.11590909090908852,
                "tempo": 120.0
            },
            {
                "start_time": 17.738636363636363,
                "end_time": 17.852272727272727,
                "pitch": 65,
                "velocity": 127,
                "duration": 0.11363636363636331,
                "tempo": 120.0
            },
            {
                "start_time": 17.854545454545455,
                "end_time": 17.970454545454544,
                "pitch": 65,
                "velocity": 127,
                "duration": 0.11590909090908852,
                "tempo": 120.0
            },
            {
                "start_time": 17.972727272727273,
                "end_time": 18.206818181818182,
                "pitch": 65,
                "velocity": 127,
                "duration": 0.23409090909090935,
                "tempo": 120.0
            },
            {
                "start_time": 18.206818181818182,
                "end_time": 18.32272727272727,
                "pitch": 65,
                "velocity": 127,
                "duration": 0.11590909090908852,
                "tempo": 120.0
            },
            {
                "start_time": 18.325,
                "end_time": 18.44090909090909,
                "pitch": 67,
                "velocity": 127,
                "duration": 0.11590909090909207,
                "tempo": 120.0
            },
            {
                "start_time": 18.677272727272726,
                "end_time": 18.788636363636364,
                "pitch": 65,
                "velocity": 127,
                "duration": 0.11136363636363811,
                "tempo": 120.0
            },
            {
                "start_time": 18.79090909090909,
                "end_time": 18.904545454545453,
                "pitch": 67,
                "velocity": 127,
                "duration": 0.11363636363636331,
                "tempo": 120.0
            },
            {
                "start_time": 19.020454545454545,
                "end_time": 19.368181818181817,
                "pitch": 67,
                "velocity": 127,
                "duration": 0.34772727272727266,
                "tempo": 120.0
            },
            {
                "start_time": 19.370454545454546,
                "end_time": 19.486363636363635,
                "pitch": 62,
                "velocity": 127,
                "duration": 0.11590909090908852,
                "tempo": 120.0
            },
            {
                "start_time": 19.60681818181818,
                "end_time": 19.720454545454544,
                "pitch": 65,
                "velocity": 127,
                "duration": 0.11363636363636331,
                "tempo": 120.0
            },
            {
                "start_time": 19.84090909090909,
                "end_time": 20.07272727272727,
                "pitch": 65,
                "velocity": 127,
                "duration": 0.2318181818181806,
                "tempo": 120.0
            },
            {
                "start_time": 20.075,
                "end_time": 20.19090909090909,
                "pitch": 65,
                "velocity": 127,
                "duration": 0.11590909090909207,
                "tempo": 120.0
            },
            {
                "start_time": 20.193181818181817,
                "end_time": 20.30909090909091,
                "pitch": 67,
                "velocity": 127,
                "duration": 0.11590909090909207,
                "tempo": 120.0
            },
            {
                "start_time": 20.545454545454543,
                "end_time": 20.65681818181818,
                "pitch": 65,
                "velocity": 127,
                "duration": 0.11136363636363811,
                "tempo": 120.0
            },
            {
                "start_time": 20.775,
                "end_time": 20.886363636363637,
                "pitch": 62,
                "velocity": 127,
                "duration": 0.11136363636363811,
                "tempo": 120.0
            },
            {
                "start_time": 21.002272727272725,
                "end_time": 21.118181818181817,
                "pitch": 65,
                "velocity": 127,
                "duration": 0.11590909090909207,
                "tempo": 120.0
            },
            {
                "start_time": 21.120454545454546,
                "end_time": 21.320454545454545,
                "pitch": 62,
                "velocity": 127,
                "duration": 0.1999999999999993,
                "tempo": 120.0
            },
            {
                "start_time": 21.32272727272727,
                "end_time": 21.354545454545452,
                "pitch": 67,
                "velocity": 101,
                "duration": 0.0318181818181813,
                "tempo": 120.0
            },
            {
                "start_time": 21.354545454545452,
                "end_time": 21.386363636363637,
                "pitch": 69,
                "velocity": 101,
                "duration": 0.031818181818184854,
                "tempo": 120.0
            },
            {
                "start_time": 21.388636363636362,
                "end_time": 21.58863636363636,
                "pitch": 70,
                "velocity": 127,
                "duration": 0.1999999999999993,
                "tempo": 120.0
            },
            {
                "start_time": 21.59090909090909,
                "end_time": 21.706818181818182,
                "pitch": 70,
                "velocity": 127,
                "duration": 0.11590909090909207,
                "tempo": 120.0
            },
            {
                "start_time": 21.706818181818182,
                "end_time": 21.82272727272727,
                "pitch": 69,
                "velocity": 127,
                "duration": 0.11590909090908852,
                "tempo": 120.0
            },
            {
                "start_time": 21.943181818181817,
                "end_time": 22.054545454545455,
                "pitch": 67,
                "velocity": 127,
                "duration": 0.11136363636363811,
                "tempo": 120.0
            },
            {
                "start_time": 22.05681818181818,
                "end_time": 22.4,
                "pitch": 65,
                "velocity": 127,
                "duration": 0.3431818181818187,
                "tempo": 120.0
            },
            {
                "start_time": 22.4,
                "end_time": 22.402272727272727,
                "pitch": 65,
                "velocity": 127,
                "duration": 0.0022727272727287584,
                "tempo": 120.0
            },
            {
                "start_time": 22.409090909090907,
                "end_time": 22.518181818181816,
                "pitch": 65,
                "velocity": 127,
                "duration": 0.10909090909090935,
                "tempo": 120.0
            },
            {
                "start_time": 22.520454545454545,
                "end_time": 22.638636363636362,
                "pitch": 67,
                "velocity": 127,
                "duration": 0.11818181818181728,
                "tempo": 120.0
            }
        ]
    }
}