{
    "track_id": "04 Turn on The Run",
    "mood": "happy",
    "instruments": {
        "Acoustic Grand Piano": [
            {
                "start_time": 0.00909090909090909,
                "end_time": 0.10681818181818181,
                "pitch": 0,
                "velocity": 4,
                "duration": 0.09772727272727272,
                "tempo": 120.0
            },
            {
                "start_time": 0.10681818181818181,
                "end_time": 0.34318181818181814,
                "pitch": 0,
                "velocity": 4,
                "duration": 0.23636363636363633,
                "tempo": 120.0
            },
            {
                "start_time": 0.34545454545454546,
                "end_time": 0.45909090909090905,
                "pitch": 69,
                "velocity": 20,
                "duration": 0.11363636363636359,
                "tempo": 120.0
            },
            {
                "start_time": 0.575,
                "end_time": 0.6386363636363636,
                "pitch": 72,
                "velocity": 20,
                "duration": 0.0636363636363636,
                "tempo": 120.0
            },
            {
                "start_time": 0.6977272727272726,
                "end_time": 0.7568181818181818,
                "pitch": 64,
                "velocity": 20,
                "duration": 0.059090909090909194,
                "tempo": 120.0
            },
            {
                "start_time": 0.8068181818181818,
                "end_time": 0.9295454545454545,
                "pitch": 64,
                "velocity": 4,
                "duration": 0.12272727272727268,
                "tempo": 120.0
            },
            {
                "start_time": 0.9318181818181818,
                "end_time": 0.9909090909090909,
                "pitch": 69,
                "velocity": 20,
                "duration": 0.05909090909090908,
                "tempo": 120.0
            },
            {
                "start_time": 1.0431818181818182,
                "end_time": 1.1613636363636364,
                "pitch": 69,
                "velocity": 4,
                "duration": 0.11818181818181817,
                "tempo": 120.0
            },
            {
                "start_time": 1.1636363636363636,
                "end_time": 1.2227272727272727,
                "pitch": 69,
                "velocity": 20,
                "duration": 0.05909090909090908,
                "tempo": 120.0
            },
            {
                "start_time": 1.2704545454545455,
                "end_time": 1.393181818181818,
                "pitch": 69,
                "velocity": 4,
                "duration": 0.12272727272727257,
                "tempo": 120.0
            },
            {
                "start_time": 1.393181818181818,
                "end_time": 1.45,
                "pitch": 72,
                "velocity": 4,
                "duration": 0.05681818181818188,
                "tempo": 120.0
            },
            {
                "start_time": 1.393181818181818,
                "end_time": 1.45,
                "pitch": 72,
                "velocity": 20,
                "duration": 0.05681818181818188,
                "tempo": 120.0
            },
            {
                "start_time": 1.5045454545454544,
                "end_time": 1.6204545454545454,
                "pitch": 72,
                "velocity": 4,
                "duration": 0.11590909090909096,
                "tempo": 120.0
            },
            {
                "start_time": 1.6204545454545454,
                "end_time": 1.684090909090909,
                "pitch": 64,
                "velocity": 20,
                "duration": 0.06363636363636371,
                "tempo": 120.0
            },
            {
                "start_time": 1.7431818181818182,
                "end_time": 1.8522727272727273,
                "pitch": 69,
                "velocity": 20,
                "duration": 0.10909090909090913,
                "tempo": 120.0
            },
            {
                "start_time": 1.977272727272727,
                "end_time": 2.0863636363636364,
                "pitch": 68,
                "velocity": 20,
                "duration": 0.10909090909090935,
                "tempo": 120.0
            },
            {
                "start_time": 2.2113636363636364,
                "end_time": 2.3249999999999997,
                "pitch": 67,
                "velocity": 20,
                "duration": 0.11363636363636331,
                "tempo": 120.0
            },
            {
                "start_time": 2.443181818181818,
                "end_time": 2.506818181818182,
                "pitch": 71,
                "velocity": 20,
                "duration": 0.06363636363636394,
                "tempo": 120.0
            },
            {
                "start_time": 2.5636363636363635,
                "end_time": 2.625,
                "pitch": 62,
                "velocity": 20,
                "duration": 0.06136363636363651,
                "tempo": 120.0
            },
            {
                "start_time": 2.675,
                "end_time": 2.7977272727272724,
                "pitch": 62,
                "velocity": 4,
                "duration": 0.12272727272727257,
                "tempo": 120.0
            },
            {
                "start_time": 2.8,
                "end_time": 2.859090909090909,
                "pitch": 67,
                "velocity": 20,
                "duration": 0.05909090909090908,
                "tempo": 120.0
            },
            {
                "start_time": 2.909090909090909,
                "end_time": 3.0272727272727273,
                "pitch": 67,
                "velocity": 4,
                "duration": 0.11818181818181817,
                "tempo": 120.0
            },
            {
                "start_time": 3.0272727272727273,
                "end_time": 3.0886363636363634,
                "pitch": 67,
                "velocity": 20,
                "duration": 0.061363636363636065,
                "tempo": 120.0
            },
            {
                "start_time": 3.1386363636363637,
                "end_time": 4.079545454545454,
                "pitch": 67,
                "velocity": 4,
                "duration": 0.9409090909090905,
                "tempo": 120.0
            },
            {
                "start_time": 1.6204545454545454,
                "end_time": 4.079545454545454,
                "pitch": 76,
                "velocity": 4,
                "duration": 2.459090909090909,
                "tempo": 120.0
            },
            {
                "start_time": 4.079545454545454,
                "end_time": 4.138636363636364,
                "pitch": 64,
                "velocity": 20,
                "duration": 0.05909090909090953,
                "tempo": 120.0
            },
            {
                "start_time": 4.197727272727272,
                "end_time": 4.256818181818182,
                "pitch": 69,
                "velocity": 20,
                "duration": 0.05909090909090953,
                "tempo": 120.0
            },
            {
                "start_time": 4.3113636363636365,
                "end_time": 4.372727272727272,
                "pitch": 72,
                "velocity": 20,
                "duration": 0.06136363636363562,
                "tempo": 120.0
            },
            {
                "start_time": 4.429545454545455,
                "end_time": 4.486363636363636,
                "pitch": 64,
                "velocity": 20,
                "duration": 0.05681818181818166,
                "tempo": 120.0
            },
            {
                "start_time": 0.9295454545454545,
                "end_time": 4.656818181818181,
                "pitch": 57,
                "velocity": 4,
                "duration": 3.7272727272727266,
                "tempo": 120.0
            },
            {
                "start_time": 4.536363636363636,
                "end_time": 4.656818181818181,
                "pitch": 64,
                "velocity": 4,
                "duration": 0.12045454545454515,
                "tempo": 120.0
            },
            {
                "start_time": 4.659090909090909,
                "end_time": 4.715909090909091,
                "pitch": 69,
                "velocity": 20,
                "duration": 0.05681818181818166,
                "tempo": 120.0
            },
            {
                "start_time": 4.765909090909091,
                "end_time": 4.890909090909091,
                "pitch": 69,
                "velocity": 4,
                "duration": 0.125,
                "tempo": 120.0
            },
            {
                "start_time": 4.890909090909091,
                "end_time": 4.95,
                "pitch": 69,
                "velocity": 20,
                "duration": 0.05909090909090953,
                "tempo": 120.0
            },
            {
                "start_time": 5.002272727272727,
                "end_time": 5.125,
                "pitch": 69,
                "velocity": 4,
                "duration": 0.12272727272727302,
                "tempo": 120.0
            },
            {
                "start_time": 5.125,
                "end_time": 5.1863636363636365,
                "pitch": 72,
                "velocity": 4,
                "duration": 0.06136363636363651,
                "tempo": 120.0
            },
            {
                "start_time": 5.127272727272727,
                "end_time": 5.1863636363636365,
                "pitch": 72,
                "velocity": 20,
                "duration": 0.05909090909090953,
                "tempo": 120.0
            },
            {
                "start_time": 5.24090909090909,
                "end_time": 5.3568181818181815,
                "pitch": 72,
                "velocity": 4,
                "duration": 0.11590909090909118,
                "tempo": 120.0
            },
            {
                "start_time": 4.079545454545454,
                "end_time": 5.3568181818181815,
                "pitch": 76,
                "velocity": 4,
                "duration": 1.2772727272727273,
                "tempo": 120.0
            },
            {
                "start_time": 5.3568181818181815,
                "end_time": 5.420454545454545,
                "pitch": 64,
                "velocity": 20,
                "duration": 0.06363636363636349,
                "tempo": 120.0
            },
            {
                "start_time": 5.477272727272727,
                "end_time": 5.588636363636363,
                "pitch": 69,
                "velocity": 20,
                "duration": 0.11136363636363633,
                "tempo": 120.0
            },
            {
                "start_time": 5.713636363636363,
                "end_time": 5.822727272727272,
                "pitch": 68,
                "velocity": 20,
                "duration": 0.10909090909090935,
                "tempo": 120.0
            },
            {
                "start_time": 5.947727272727272,
                "end_time": 6.0613636363636365,
                "pitch": 67,
                "velocity": 20,
                "duration": 0.1136363636363642,
                "tempo": 120.0
            },
            {
                "start_time": 6.179545454545455,
                "end_time": 6.24090909090909,
                "pitch": 71,
                "velocity": 20,
                "duration": 0.06136363636363562,
                "tempo": 120.0
            },
            {
                "start_time": 6.297727272727273,
                "end_time": 6.3545454545454545,
                "pitch": 62,
                "velocity": 20,
                "duration": 0.05681818181818166,
                "tempo": 120.0
            },
            {
                "start_time": 2.7977272727272724,
                "end_time": 6.5249999999999995,
                "pitch": 55,
                "velocity": 4,
                "duration": 3.727272727272727,
                "tempo": 120.0
            },
            {
                "start_time": 6.404545454545454,
                "end_time": 6.5249999999999995,
                "pitch": 62,
                "velocity": 4,
                "duration": 0.12045454545454515,
                "tempo": 120.0
            },
            {
                "start_time": 6.527272727272727,
                "end_time": 6.584090909090909,
                "pitch": 67,
                "velocity": 20,
                "duration": 0.05681818181818166,
                "tempo": 120.0
            },
            {
                "start_time": 6.634090909090909,
                "end_time": 6.754545454545454,
                "pitch": 67,
                "velocity": 4,
                "duration": 0.12045454545454515,
                "tempo": 120.0
            },
            {
                "start_time": 6.754545454545454,
                "end_time": 6.8181818181818175,
                "pitch": 67,
                "velocity": 20,
                "duration": 0.06363636363636349,
                "tempo": 120.0
            },
            {
                "start_time": 6.868181818181818,
                "end_time": 7.809090909090909,
                "pitch": 67,
                "velocity": 4,
                "duration": 0.9409090909090905,
                "tempo": 120.0
            },
            {
                "start_time": 7.809090909090909,
                "end_time": 7.922727272727272,
                "pitch": 69,
                "velocity": 20,
                "duration": 0.11363636363636331,
                "tempo": 120.0
            },
            {
                "start_time": 8.043181818181818,
                "end_time": 8.10681818181818,
                "pitch": 72,
                "velocity": 20,
                "duration": 0.0636363636363626,
                "tempo": 120.0
            },
            {
                "start_time": 8.163636363636364,
                "end_time": 8.222727272727273,
                "pitch": 64,
                "velocity": 20,
                "duration": 0.05909090909090864,
                "tempo": 120.0
            },
            {
                "start_time": 4.656818181818181,
                "end_time": 8.397727272727272,
                "pitch": 57,
                "velocity": 4,
                "duration": 3.7409090909090903,
                "tempo": 120.0
            },
            {
                "start_time": 8.275,
                "end_time": 8.397727272727272,
                "pitch": 64,
                "velocity": 4,
                "duration": 0.12272727272727124,
                "tempo": 120.0
            },
            {
                "start_time": 8.4,
                "end_time": 8.459090909090909,
                "pitch": 69,
                "velocity": 20,
                "duration": 0.05909090909090864,
                "tempo": 120.0
            },
            {
                "start_time": 8.509090909090908,
                "end_time": 8.631818181818181,
                "pitch": 69,
                "velocity": 4,
                "duration": 0.12272727272727302,
                "tempo": 120.0
            },
            {
                "start_time": 8.631818181818181,
                "end_time": 8.688636363636363,
                "pitch": 69,
                "velocity": 20,
                "duration": 0.05681818181818166,
                "tempo": 120.0
            },
            {
                "start_time": 8.738636363636363,
                "end_time": 8.85909090909091,
                "pitch": 69,
                "velocity": 4,
                "duration": 0.12045454545454604,
                "tempo": 120.0
            },
            {
                "start_time": 8.85909090909091,
                "end_time": 8.918181818181818,
                "pitch": 72,
                "velocity": 4,
                "duration": 0.05909090909090864,
                "tempo": 120.0
            },
            {
                "start_time": 8.861363636363636,
                "end_time": 8.918181818181818,
                "pitch": 72,
                "velocity": 20,
                "duration": 0.05681818181818166,
                "tempo": 120.0
            },
            {
                "start_time": 8.972727272727273,
                "end_time": 9.088636363636363,
                "pitch": 72,
                "velocity": 4,
                "duration": 0.1159090909090903,
                "tempo": 120.0
            },
            {
                "start_time": 5.3568181818181815,
                "end_time": 9.088636363636363,
                "pitch": 76,
                "velocity": 4,
                "duration": 3.7318181818181815,
                "tempo": 120.0
            },
            {
                "start_time": 9.088636363636363,
                "end_time": 9.152272727272727,
                "pitch": 64,
                "velocity": 20,
                "duration": 0.06363636363636438,
                "tempo": 120.0
            },
            {
                "start_time": 9.211363636363636,
                "end_time": 9.320454545454545,
                "pitch": 69,
                "velocity": 20,
                "duration": 0.10909090909090935,
                "tempo": 120.0
            },
            {
                "start_time": 9.445454545454545,
                "end_time": 9.554545454545455,
                "pitch": 68,
                "velocity": 20,
                "duration": 0.10909090909090935,
                "tempo": 120.0
            },
            {
                "start_time": 9.679545454545455,
                "end_time": 9.793181818181818,
                "pitch": 67,
                "velocity": 20,
                "duration": 0.11363636363636331,
                "tempo": 120.0
            },
            {
                "start_time": 9.911363636363635,
                "end_time": 9.972727272727273,
                "pitch": 71,
                "velocity": 20,
                "duration": 0.0613636363636374,
                "tempo": 120.0
            },
            {
                "start_time": 10.029545454545454,
                "end_time": 10.086363636363636,
                "pitch": 62,
                "velocity": 20,
                "duration": 0.05681818181818166,
                "tempo": 120.0
            },
            {
                "start_time": 10.138636363636364,
                "end_time": 10.256818181818181,
                "pitch": 62,
                "velocity": 4,
                "duration": 0.11818181818181728,
                "tempo": 120.0
            },
            {
                "start_time": 6.5249999999999995,
                "end_time": 10.259090909090908,
                "pitch": 55,
                "velocity": 4,
                "duration": 3.7340909090909085,
                "tempo": 120.0
            },
            {
                "start_time": 10.256818181818181,
                "end_time": 10.259090909090908,
                "pitch": 55,
                "velocity": 4,
                "duration": 0.002272727272726982,
                "tempo": 120.0
            },
            {
                "start_time": 10.259090909090908,
                "end_time": 10.31590909090909,
                "pitch": 67,
                "velocity": 20,
                "duration": 0.05681818181818166,
                "tempo": 120.0
            },
            {
                "start_time": 10.36590909090909,
                "end_time": 10.49090909090909,
                "pitch": 67,
                "velocity": 4,
                "duration": 0.125,
                "tempo": 120.0
            },
            {
                "start_time": 10.49090909090909,
                "end_time": 10.549999999999999,
                "pitch": 67,
                "velocity": 20,
                "duration": 0.05909090909090864,
                "tempo": 120.0
            },
            {
                "start_time": 10.602272727272727,
                "end_time": 10.725,
                "pitch": 67,
                "velocity": 4,
                "duration": 0.12272727272727302,
                "tempo": 120.0
            },
            {
                "start_time": 10.725,
                "end_time": 10.784090909090908,
                "pitch": 71,
                "velocity": 4,
                "duration": 0.05909090909090864,
                "tempo": 120.0
            },
            {
                "start_time": 10.725,
                "end_time": 10.784090909090908,
                "pitch": 71,
                "velocity": 20,
                "duration": 0.05909090909090864,
                "tempo": 120.0
            },
            {
                "start_time": 10.84090909090909,
                "end_time": 10.954545454545453,
                "pitch": 71,
                "velocity": 4,
                "duration": 0.11363636363636331,
                "tempo": 120.0
            },
            {
                "start_time": 10.956818181818182,
                "end_time": 11.020454545454545,
                "pitch": 62,
                "velocity": 20,
                "duration": 0.0636363636363626,
                "tempo": 120.0
            },
            {
                "start_time": 11.079545454545453,
                "end_time": 11.186363636363636,
                "pitch": 67,
                "velocity": 20,
                "duration": 0.10681818181818237,
                "tempo": 120.0
            },
            {
                "start_time": 11.31590909090909,
                "end_time": 11.429545454545455,
                "pitch": 68,
                "velocity": 20,
                "duration": 0.11363636363636509,
                "tempo": 120.0
            },
            {
                "start_time": 9.088636363636363,
                "end_time": 29.547727272727272,
                "pitch": 76,
                "velocity": 4,
                "duration": 20.45909090909091,
                "tempo": 120.0
            },
            {
                "start_time": 29.429545454545455,
                "end_time": 29.547727272727272,
                "pitch": 76,
                "velocity": 4,
                "duration": 0.11818181818181728,
                "tempo": 120.0
            },
            {
                "start_time": 29.547727272727272,
                "end_time": 29.575,
                "pitch": 79,
                "velocity": 20,
                "duration": 0.027272727272727337,
                "tempo": 120.0
            },
            {
                "start_time": 29.597727272727273,
                "end_time": 29.625,
                "pitch": 77,
                "velocity": 20,
                "duration": 0.027272727272727337,
                "tempo": 120.0
            },
            {
                "start_time": 29.66590909090909,
                "end_time": 29.693181818181817,
                "pitch": 76,
                "velocity": 20,
                "duration": 0.027272727272727337,
                "tempo": 120.0
            },
            {
                "start_time": 10.954545454545453,
                "end_time": 29.743181818181817,
                "pitch": 74,
                "velocity": 4,
                "duration": 18.788636363636364,
                "tempo": 120.0
            },
            {
                "start_time": 29.71590909090909,
                "end_time": 29.743181818181817,
                "pitch": 74,
                "velocity": 20,
                "duration": 0.027272727272727337,
                "tempo": 120.0
            },
            {
                "start_time": 29.784090909090907,
                "end_time": 29.80909090909091,
                "pitch": 72,
                "velocity": 20,
                "duration": 0.02500000000000213,
                "tempo": 120.0
            },
            {
                "start_time": 29.834090909090907,
                "end_time": 29.861363636363635,
                "pitch": 71,
                "velocity": 20,
                "duration": 0.027272727272727337,
                "tempo": 120.0
            },
            {
                "start_time": 29.9,
                "end_time": 29.927272727272726,
                "pitch": 69,
                "velocity": 20,
                "duration": 0.027272727272727337,
                "tempo": 120.0
            },
            {
                "start_time": 29.547727272727272,
                "end_time": 29.977272727272727,
                "pitch": 67,
                "velocity": 4,
                "duration": 0.4295454545454547,
                "tempo": 120.0
            },
            {
                "start_time": 29.95,
                "end_time": 29.977272727272727,
                "pitch": 67,
                "velocity": 20,
                "duration": 0.027272727272727337,
                "tempo": 120.0
            },
            {
                "start_time": 30.020454545454545,
                "end_time": 30.045454545454543,
                "pitch": 65,
                "velocity": 20,
                "duration": 0.02499999999999858,
                "tempo": 120.0
            },
            {
                "start_time": 30.063636363636363,
                "end_time": 30.095454545454544,
                "pitch": 64,
                "velocity": 20,
                "duration": 0.0318181818181813,
                "tempo": 120.0
            },
            {
                "start_time": 30.129545454545454,
                "end_time": 30.161363636363635,
                "pitch": 62,
                "velocity": 20,
                "duration": 0.0318181818181813,
                "tempo": 120.0
            },
            {
                "start_time": 30.179545454545455,
                "end_time": 30.211363636363636,
                "pitch": 60,
                "velocity": 20,
                "duration": 0.0318181818181813,
                "tempo": 120.0
            }
        ],
        "Trumpet": [
            {
                "start_time": 28.15,
                "end_time": 28.38181818181818,
                "pitch": 69,
                "velocity": 4,
                "duration": 0.2318181818181806,
                "tempo": 120.0
            },
            {
                "start_time": 28.38181818181818,
                "end_time": 28.461363636363636,
                "pitch": 79,
                "velocity": 20,
                "duration": 0.0795454545454568,
                "tempo": 120.0
            },
            {
                "start_time": 28.504545454545454,
                "end_time": 28.579545454545453,
                "pitch": 77,
                "velocity": 20,
                "duration": 0.07499999999999929,
                "tempo": 120.0
            },
            {
                "start_time": 28.613636363636363,
                "end_time": 28.73409090909091,
                "pitch": 77,
                "velocity": 4,
                "duration": 0.12045454545454604,
                "tempo": 120.0
            },
            {
                "start_time": 28.736363636363635,
                "end_time": 28.80909090909091,
                "pitch": 76,
                "velocity": 20,
                "duration": 0.07272727272727408,
                "tempo": 120.0
            },
            {
                "start_time": 28.843181818181815,
                "end_time": 28.96363636363636,
                "pitch": 76,
                "velocity": 4,
                "duration": 0.12045454545454604,
                "tempo": 120.0
            },
            {
                "start_time": 28.96590909090909,
                "end_time": 29.03863636363636,
                "pitch": 77,
                "velocity": 20,
                "duration": 0.07272727272727053,
                "tempo": 120.0
            },
            {
                "start_time": 29.07272727272727,
                "end_time": 29.193181818181817,
                "pitch": 77,
                "velocity": 4,
                "duration": 0.12045454545454604,
                "tempo": 120.0
            },
            {
                "start_time": 29.193181818181817,
                "end_time": 29.35909090909091,
                "pitch": 76,
                "velocity": 20,
                "duration": 0.16590909090909278,
                "tempo": 120.0
            }
        ],
        "Vibraphone": [
            {
                "start_time": 0.00909090909090909,
                "end_time": 0.10681818181818181,
                "pitch": 0,
                "velocity": 4,
                "duration": 0.09772727272727272,
                "tempo": 120.0
            },
            {
                "start_time": 0.10681818181818181,
                "end_time": 1.977272727272727,
                "pitch": 0,
                "velocity": 4,
                "duration": 1.8704545454545451,
                "tempo": 120.0
            },
            {
                "start_time": 1.977272727272727,
                "end_time": 3.840909090909091,
                "pitch": 0,
                "velocity": 4,
                "duration": 1.8636363636363638,
                "tempo": 120.0
            },
            {
                "start_time": 3.840909090909091,
                "end_time": 5.713636363636363,
                "pitch": 0,
                "velocity": 4,
                "duration": 1.8727272727272721,
                "tempo": 120.0
            },
            {
                "start_time": 5.713636363636363,
                "end_time": 7.5659090909090905,
                "pitch": 0,
                "velocity": 4,
                "duration": 1.8522727272727275,
                "tempo": 120.0
            },
            {
                "start_time": 7.5681818181818175,
                "end_time": 7.613636363636363,
                "pitch": 69,
                "velocity": 127,
                "duration": 0.04545454545454586,
                "tempo": 120.0
            },
            {
                "start_time": 7.809090909090909,
                "end_time": 7.852272727272727,
                "pitch": 69,
                "velocity": 127,
                "duration": 0.04318181818181799,
                "tempo": 120.0
            },
            {
                "start_time": 8.045454545454545,
                "end_time": 8.088636363636363,
                "pitch": 69,
                "velocity": 127,
                "duration": 0.04318181818181799,
                "tempo": 120.0
            },
            {
                "start_time": 8.275,
                "end_time": 8.290909090909091,
                "pitch": 69,
                "velocity": 127,
                "duration": 0.01590909090909065,
                "tempo": 120.0
            },
            {
                "start_time": 8.4,
                "end_time": 8.409090909090908,
                "pitch": 69,
                "velocity": 127,
                "duration": 0.009090909090907928,
                "tempo": 120.0
            },
            {
                "start_time": 8.509090909090908,
                "end_time": 8.631818181818181,
                "pitch": 69,
                "velocity": 4,
                "duration": 0.12272727272727302,
                "tempo": 120.0
            },
            {
                "start_time": 8.631818181818181,
                "end_time": 8.64090909090909,
                "pitch": 69,
                "velocity": 127,
                "duration": 0.009090909090909705,
                "tempo": 120.0
            },
            {
                "start_time": 8.738636363636363,
                "end_time": 8.754545454545454,
                "pitch": 69,
                "velocity": 127,
                "duration": 0.01590909090909065,
                "tempo": 120.0
            },
            {
                "start_time": 8.861363636363636,
                "end_time": 8.972727272727273,
                "pitch": 69,
                "velocity": 4,
                "duration": 0.11136363636363633,
                "tempo": 120.0
            },
            {
                "start_time": 8.972727272727273,
                "end_time": 9.018181818181818,
                "pitch": 69,
                "velocity": 127,
                "duration": 0.04545454545454497,
                "tempo": 120.0
            },
            {
                "start_time": 9.211363636363636,
                "end_time": 9.252272727272727,
                "pitch": 69,
                "velocity": 127,
                "duration": 0.040909090909091006,
                "tempo": 120.0
            },
            {
                "start_time": 9.445454545454545,
                "end_time": 9.486363636363636,
                "pitch": 69,
                "velocity": 127,
                "duration": 0.040909090909091006,
                "tempo": 120.0
            },
            {
                "start_time": 9.679545454545455,
                "end_time": 9.722727272727273,
                "pitch": 69,
                "velocity": 127,
                "duration": 0.04318181818181799,
                "tempo": 120.0
            },
            {
                "start_time": 9.911363636363635,
                "end_time": 9.956818181818182,
                "pitch": 69,
                "velocity": 127,
                "duration": 0.045454545454546746,
                "tempo": 120.0
            },
            {
                "start_time": 10.138636363636364,
                "end_time": 10.152272727272727,
                "pitch": 69,
                "velocity": 127,
                "duration": 0.013636363636363669,
                "tempo": 120.0
            },
            {
                "start_time": 10.259090909090908,
                "end_time": 10.268181818181818,
                "pitch": 69,
                "velocity": 127,
                "duration": 0.009090909090909705,
                "tempo": 120.0
            },
            {
                "start_time": 10.36590909090909,
                "end_time": 10.49090909090909,
                "pitch": 69,
                "velocity": 4,
                "duration": 0.125,
                "tempo": 120.0
            },
            {
                "start_time": 10.49090909090909,
                "end_time": 10.5,
                "pitch": 69,
                "velocity": 127,
                "duration": 0.009090909090909705,
                "tempo": 120.0
            },
            {
                "start_time": 10.602272727272727,
                "end_time": 10.618181818181817,
                "pitch": 69,
                "velocity": 127,
                "duration": 0.01590909090909065,
                "tempo": 120.0
            },
            {
                "start_time": 10.725,
                "end_time": 10.84090909090909,
                "pitch": 69,
                "velocity": 4,
                "duration": 0.1159090909090903,
                "tempo": 120.0
            },
            {
                "start_time": 10.84090909090909,
                "end_time": 10.886363636363637,
                "pitch": 69,
                "velocity": 127,
                "duration": 0.045454545454546746,
                "tempo": 120.0
            },
            {
                "start_time": 11.079545454545453,
                "end_time": 11.120454545454544,
                "pitch": 69,
                "velocity": 127,
                "duration": 0.040909090909091006,
                "tempo": 120.0
            }
        ],
        "French Horn": [
            {
                "start_time": 11.31590909090909,
                "end_time": 11.388636363636364,
                "pitch": 76,
                "velocity": 101,
                "duration": 0.07272727272727408,
                "tempo": 120.0
            },
            {
                "start_time": 11.429545454545455,
                "end_time": 11.506818181818181,
                "pitch": 81,
                "velocity": 101,
                "duration": 0.07727272727272627,
                "tempo": 120.0
            },
            {
                "start_time": 11.549999999999999,
                "end_time": 11.622727272727273,
                "pitch": 84,
                "velocity": 101,
                "duration": 0.07272727272727408,
                "tempo": 120.0
            },
            {
                "start_time": 11.668181818181818,
                "end_time": 11.74090909090909,
                "pitch": 76,
                "velocity": 101,
                "duration": 0.07272727272727231,
                "tempo": 120.0
            },
            {
                "start_time": 11.777272727272727,
                "end_time": 11.897727272727272,
                "pitch": 76,
                "velocity": 4,
                "duration": 0.12045454545454426,
                "tempo": 120.0
            },
            {
                "start_time": 11.899999999999999,
                "end_time": 11.970454545454546,
                "pitch": 81,
                "velocity": 101,
                "duration": 0.0704545454545471,
                "tempo": 120.0
            },
            {
                "start_time": 12.004545454545454,
                "end_time": 12.127272727272727,
                "pitch": 81,
                "velocity": 4,
                "duration": 0.12272727272727302,
                "tempo": 120.0
            },
            {
                "start_time": 12.127272727272727,
                "end_time": 12.2,
                "pitch": 81,
                "velocity": 101,
                "duration": 0.07272727272727231,
                "tempo": 120.0
            },
            {
                "start_time": 12.23409090909091,
                "end_time": 12.35909090909091,
                "pitch": 81,
                "velocity": 4,
                "duration": 0.125,
                "tempo": 120.0
            },
            {
                "start_time": 12.35909090909091,
                "end_time": 12.434090909090909,
                "pitch": 84,
                "velocity": 4,
                "duration": 0.07499999999999929,
                "tempo": 120.0
            },
            {
                "start_time": 12.361363636363636,
                "end_time": 12.434090909090909,
                "pitch": 84,
                "velocity": 101,
                "duration": 0.07272727272727231,
                "tempo": 120.0
            },
            {
                "start_time": 12.468181818181817,
                "end_time": 12.595454545454546,
                "pitch": 84,
                "velocity": 4,
                "duration": 0.12727272727272876,
                "tempo": 120.0
            },
            {
                "start_time": 12.595454545454546,
                "end_time": 12.670454545454545,
                "pitch": 76,
                "velocity": 101,
                "duration": 0.07499999999999929,
                "tempo": 120.0
            },
            {
                "start_time": 12.711363636363636,
                "end_time": 12.788636363636362,
                "pitch": 81,
                "velocity": 101,
                "duration": 0.07727272727272627,
                "tempo": 120.0
            },
            {
                "start_time": 12.825,
                "end_time": 12.952272727272726,
                "pitch": 81,
                "velocity": 4,
                "duration": 0.12727272727272698,
                "tempo": 120.0
            },
            {
                "start_time": 12.952272727272726,
                "end_time": 13.029545454545454,
                "pitch": 80,
                "velocity": 101,
                "duration": 0.07727272727272805,
                "tempo": 120.0
            },
            {
                "start_time": 13.063636363636363,
                "end_time": 13.184090909090909,
                "pitch": 80,
                "velocity": 4,
                "duration": 0.12045454545454604,
                "tempo": 120.0
            },
            {
                "start_time": 13.186363636363636,
                "end_time": 13.302272727272726,
                "pitch": 80,
                "velocity": 4,
                "duration": 0.1159090909090903,
                "tempo": 120.0
            },
            {
                "start_time": 13.302272727272726,
                "end_time": 13.375,
                "pitch": 86,
                "velocity": 4,
                "duration": 0.07272727272727408,
                "tempo": 120.0
            },
            {
                "start_time": 13.302272727272726,
                "end_time": 13.375,
                "pitch": 86,
                "velocity": 101,
                "duration": 0.07272727272727408,
                "tempo": 120.0
            },
            {
                "start_time": 13.409090909090908,
                "end_time": 13.527272727272727,
                "pitch": 86,
                "velocity": 4,
                "duration": 0.11818181818181905,
                "tempo": 120.0
            },
            {
                "start_time": 13.529545454545454,
                "end_time": 13.6,
                "pitch": 86,
                "velocity": 101,
                "duration": 0.07045454545454533,
                "tempo": 120.0
            },
            {
                "start_time": 13.638636363636364,
                "end_time": 13.718181818181817,
                "pitch": 86,
                "velocity": 101,
                "duration": 0.07954545454545325,
                "tempo": 120.0
            },
            {
                "start_time": 13.761363636363635,
                "end_time": 13.836363636363636,
                "pitch": 86,
                "velocity": 101,
                "duration": 0.07500000000000107,
                "tempo": 120.0
            },
            {
                "start_time": 13.875,
                "end_time": 14.0,
                "pitch": 86,
                "velocity": 4,
                "duration": 0.125,
                "tempo": 120.0
            },
            {
                "start_time": 14.002272727272727,
                "end_time": 14.077272727272726,
                "pitch": 86,
                "velocity": 101,
                "duration": 0.07499999999999929,
                "tempo": 120.0
            },
            {
                "start_time": 14.120454545454544,
                "end_time": 14.23181818181818,
                "pitch": 86,
                "velocity": 101,
                "duration": 0.11136363636363633,
                "tempo": 120.0
            },
            {
                "start_time": 14.288636363636362,
                "end_time": 14.381818181818181,
                "pitch": 86,
                "velocity": 101,
                "duration": 0.0931818181818187,
                "tempo": 120.0
            },
            {
                "start_time": 14.438636363636363,
                "end_time": 14.547727272727272,
                "pitch": 86,
                "velocity": 101,
                "duration": 0.10909090909090935,
                "tempo": 120.0
            },
            {
                "start_time": 14.60681818181818,
                "end_time": 14.924999999999999,
                "pitch": 86,
                "velocity": 101,
                "duration": 0.31818181818181834,
                "tempo": 120.0
            }
        ],
        "Acoustic Bass": [
            {
                "start_time": 11.31590909090909,
                "end_time": 11.354545454545454,
                "pitch": 28,
                "velocity": 80,
                "duration": 0.038636363636364024,
                "tempo": 120.0
            },
            {
                "start_time": 11.429545454545455,
                "end_time": 11.472727272727273,
                "pitch": 33,
                "velocity": 80,
                "duration": 0.04318181818181799,
                "tempo": 120.0
            },
            {
                "start_time": 11.549999999999999,
                "end_time": 11.59090909090909,
                "pitch": 36,
                "velocity": 80,
                "duration": 0.040909090909091006,
                "tempo": 120.0
            },
            {
                "start_time": 11.668181818181818,
                "end_time": 11.706818181818182,
                "pitch": 28,
                "velocity": 80,
                "duration": 0.038636363636364024,
                "tempo": 120.0
            },
            {
                "start_time": 11.777272727272727,
                "end_time": 11.897727272727272,
                "pitch": 28,
                "velocity": 4,
                "duration": 0.12045454545454426,
                "tempo": 120.0
            },
            {
                "start_time": 11.899999999999999,
                "end_time": 11.938636363636363,
                "pitch": 33,
                "velocity": 80,
                "duration": 0.038636363636364024,
                "tempo": 120.0
            },
            {
                "start_time": 12.004545454545454,
                "end_time": 12.127272727272727,
                "pitch": 33,
                "velocity": 4,
                "duration": 0.12272727272727302,
                "tempo": 120.0
            },
            {
                "start_time": 12.127272727272727,
                "end_time": 12.168181818181818,
                "pitch": 33,
                "velocity": 80,
                "duration": 0.040909090909091006,
                "tempo": 120.0
            },
            {
                "start_time": 12.23409090909091,
                "end_time": 12.35909090909091,
                "pitch": 33,
                "velocity": 4,
                "duration": 0.125,
                "tempo": 120.0
            },
            {
                "start_time": 12.35909090909091,
                "end_time": 12.399999999999999,
                "pitch": 36,
                "velocity": 4,
                "duration": 0.04090909090908923,
                "tempo": 120.0
            },
            {
                "start_time": 12.361363636363636,
                "end_time": 12.399999999999999,
                "pitch": 36,
                "velocity": 80,
                "duration": 0.03863636363636225,
                "tempo": 120.0
            },
            {
                "start_time": 12.468181818181817,
                "end_time": 12.595454545454546,
                "pitch": 36,
                "velocity": 4,
                "duration": 0.12727272727272876,
                "tempo": 120.0
            },
            {
                "start_time": 12.595454545454546,
                "end_time": 12.636363636363635,
                "pitch": 28,
                "velocity": 80,
                "duration": 0.04090909090908923,
                "tempo": 120.0
            },
            {
                "start_time": 12.711363636363636,
                "end_time": 12.804545454545455,
                "pitch": 33,
                "velocity": 80,
                "duration": 0.0931818181818187,
                "tempo": 120.0
            },
            {
                "start_time": 12.954545454545453,
                "end_time": 13.045454545454545,
                "pitch": 32,
                "velocity": 80,
                "duration": 0.09090909090909172,
                "tempo": 120.0
            },
            {
                "start_time": 13.186363636363636,
                "end_time": 13.302272727272726,
                "pitch": 32,
                "velocity": 4,
                "duration": 0.1159090909090903,
                "tempo": 120.0
            },
            {
                "start_time": 13.304545454545455,
                "end_time": 13.343181818181817,
                "pitch": 31,
                "velocity": 80,
                "duration": 0.03863636363636225,
                "tempo": 120.0
            },
            {
                "start_time": 13.409090909090908,
                "end_time": 13.527272727272727,
                "pitch": 31,
                "velocity": 4,
                "duration": 0.11818181818181905,
                "tempo": 120.0
            },
            {
                "start_time": 13.529545454545454,
                "end_time": 13.568181818181818,
                "pitch": 31,
                "velocity": 80,
                "duration": 0.038636363636364024,
                "tempo": 120.0
            },
            {
                "start_time": 13.638636363636364,
                "end_time": 13.681818181818182,
                "pitch": 31,
                "velocity": 80,
                "duration": 0.04318181818181799,
                "tempo": 120.0
            },
            {
                "start_time": 13.761363636363635,
                "end_time": 13.802272727272726,
                "pitch": 31,
                "velocity": 80,
                "duration": 0.040909090909091006,
                "tempo": 120.0
            },
            {
                "start_time": 13.875,
                "end_time": 14.0,
                "pitch": 31,
                "velocity": 4,
                "duration": 0.125,
                "tempo": 120.0
            },
            {
                "start_time": 14.002272727272727,
                "end_time": 14.043181818181818,
                "pitch": 31,
                "velocity": 80,
                "duration": 0.040909090909091006,
                "tempo": 120.0
            },
            {
                "start_time": 14.120454545454544,
                "end_time": 14.179545454545455,
                "pitch": 31,
                "velocity": 80,
                "duration": 0.059090909090910415,
                "tempo": 120.0
            },
            {
                "start_time": 14.288636363636362,
                "end_time": 14.35,
                "pitch": 31,
                "velocity": 80,
                "duration": 0.0613636363636374,
                "tempo": 120.0
            },
            {
                "start_time": 14.438636363636363,
                "end_time": 14.497727272727271,
                "pitch": 31,
                "velocity": 80,
                "duration": 0.05909090909090864,
                "tempo": 120.0
            },
            {
                "start_time": 14.60681818181818,
                "end_time": 14.804545454545455,
                "pitch": 31,
                "velocity": 80,
                "duration": 0.19772727272727408,
                "tempo": 120.0
            },
            {
                "start_time": 15.086363636363636,
                "end_time": 15.424999999999999,
                "pitch": 33,
                "velocity": 80,
                "duration": 0.33863636363636296,
                "tempo": 120.0
            },
            {
                "start_time": 12.595454545454546,
                "end_time": 15.427272727272726,
                "pitch": 40,
                "velocity": 4,
                "duration": 2.8318181818181802,
                "tempo": 120.0
            },
            {
                "start_time": 15.424999999999999,
                "end_time": 15.427272727272726,
                "pitch": 40,
                "velocity": 80,
                "duration": 0.002272727272726982,
                "tempo": 120.0
            },
            {
                "start_time": 15.427272727272726,
                "end_time": 15.777272727272727,
                "pitch": 40,
                "velocity": 80,
                "duration": 0.3500000000000014,
                "tempo": 120.0
            },
            {
                "start_time": 15.779545454545454,
                "end_time": 16.36590909090909,
                "pitch": 45,
                "velocity": 80,
                "duration": 0.5863636363636342,
                "tempo": 120.0
            },
            {
                "start_time": 16.368181818181817,
                "end_time": 16.479545454545455,
                "pitch": 40,
                "velocity": 80,
                "duration": 0.11136363636363811,
                "tempo": 120.0
            },
            {
                "start_time": 15.777272727272727,
                "end_time": 16.48181818181818,
                "pitch": 33,
                "velocity": 80,
                "duration": 0.7045454545454533,
                "tempo": 120.0
            },
            {
                "start_time": 16.479545454545455,
                "end_time": 16.48181818181818,
                "pitch": 33,
                "velocity": 80,
                "duration": 0.0022727272727252057,
                "tempo": 120.0
            },
            {
                "start_time": 16.48181818181818,
                "end_time": 16.71818181818182,
                "pitch": 45,
                "velocity": 80,
                "duration": 0.2363636363636381,
                "tempo": 120.0
            },
            {
                "start_time": 16.36590909090909,
                "end_time": 16.720454545454544,
                "pitch": 52,
                "velocity": 80,
                "duration": 0.3545454545454554,
                "tempo": 120.0
            },
            {
                "start_time": 16.71818181818182,
                "end_time": 16.720454545454544,
                "pitch": 52,
                "velocity": 80,
                "duration": 0.0022727272727252057,
                "tempo": 120.0
            },
            {
                "start_time": 16.720454545454544,
                "end_time": 16.952272727272728,
                "pitch": 40,
                "velocity": 80,
                "duration": 0.23181818181818414,
                "tempo": 120.0
            },
            {
                "start_time": 16.952272727272728,
                "end_time": 17.297727272727272,
                "pitch": 31,
                "velocity": 80,
                "duration": 0.3454545454545439,
                "tempo": 120.0
            },
            {
                "start_time": 16.952272727272728,
                "end_time": 17.297727272727272,
                "pitch": 31,
                "velocity": 80,
                "duration": 0.3454545454545439,
                "tempo": 120.0
            },
            {
                "start_time": 17.297727272727272,
                "end_time": 17.645454545454545,
                "pitch": 38,
                "velocity": 80,
                "duration": 0.34772727272727266,
                "tempo": 120.0
            },
            {
                "start_time": 17.297727272727272,
                "end_time": 17.645454545454545,
                "pitch": 38,
                "velocity": 80,
                "duration": 0.34772727272727266,
                "tempo": 120.0
            },
            {
                "start_time": 17.647727272727273,
                "end_time": 18.23409090909091,
                "pitch": 43,
                "velocity": 80,
                "duration": 0.586363636363636,
                "tempo": 120.0
            },
            {
                "start_time": 17.645454545454545,
                "end_time": 18.347727272727273,
                "pitch": 31,
                "velocity": 80,
                "duration": 0.702272727272728,
                "tempo": 120.0
            },
            {
                "start_time": 18.23409090909091,
                "end_time": 18.347727272727273,
                "pitch": 38,
                "velocity": 80,
                "duration": 0.11363636363636331,
                "tempo": 120.0
            },
            {
                "start_time": 18.349999999999998,
                "end_time": 18.586363636363636,
                "pitch": 43,
                "velocity": 80,
                "duration": 0.2363636363636381,
                "tempo": 120.0
            },
            {
                "start_time": 18.23409090909091,
                "end_time": 18.586363636363636,
                "pitch": 50,
                "velocity": 80,
                "duration": 0.3522727272727266,
                "tempo": 120.0
            },
            {
                "start_time": 18.58863636363636,
                "end_time": 18.820454545454545,
                "pitch": 38,
                "velocity": 80,
                "duration": 0.23181818181818414,
                "tempo": 120.0
            },
            {
                "start_time": 18.820454545454545,
                "end_time": 19.161363636363635,
                "pitch": 33,
                "velocity": 80,
                "duration": 0.34090909090908994,
                "tempo": 120.0
            },
            {
                "start_time": 18.820454545454545,
                "end_time": 19.161363636363635,
                "pitch": 33,
                "velocity": 80,
                "duration": 0.34090909090908994,
                "tempo": 120.0
            },
            {
                "start_time": 19.161363636363635,
                "end_time": 19.513636363636362,
                "pitch": 40,
                "velocity": 80,
                "duration": 0.3522727272727266,
                "tempo": 120.0
            },
            {
                "start_time": 19.163636363636364,
                "end_time": 19.513636363636362,
                "pitch": 40,
                "velocity": 80,
                "duration": 0.34999999999999787,
                "tempo": 120.0
            },
            {
                "start_time": 19.513636363636362,
                "end_time": 20.102272727272727,
                "pitch": 45,
                "velocity": 80,
                "duration": 0.5886363636363647,
                "tempo": 120.0
            },
            {
                "start_time": 19.513636363636362,
                "end_time": 20.21590909090909,
                "pitch": 33,
                "velocity": 80,
                "duration": 0.702272727272728,
                "tempo": 120.0
            },
            {
                "start_time": 20.102272727272727,
                "end_time": 20.21590909090909,
                "pitch": 40,
                "velocity": 80,
                "duration": 0.11363636363636331,
                "tempo": 120.0
            },
            {
                "start_time": 20.21590909090909,
                "end_time": 20.45,
                "pitch": 45,
                "velocity": 80,
                "duration": 0.23409090909090935,
                "tempo": 120.0
            },
            {
                "start_time": 20.102272727272727,
                "end_time": 20.45,
                "pitch": 52,
                "velocity": 80,
                "duration": 0.34772727272727266,
                "tempo": 120.0
            },
            {
                "start_time": 18.347727272727273,
                "end_time": 20.679545454545455,
                "pitch": 31,
                "velocity": 80,
                "duration": 2.331818181818182,
                "tempo": 120.0
            },
            {
                "start_time": 20.45,
                "end_time": 20.679545454545455,
                "pitch": 40,
                "velocity": 80,
                "duration": 0.22954545454545539,
                "tempo": 120.0
            },
            {
                "start_time": 20.679545454545455,
                "end_time": 21.038636363636364,
                "pitch": 31,
                "velocity": 80,
                "duration": 0.35909090909090935,
                "tempo": 120.0
            },
            {
                "start_time": 20.679545454545455,
                "end_time": 21.038636363636364,
                "pitch": 31,
                "velocity": 80,
                "duration": 0.35909090909090935,
                "tempo": 120.0
            },
            {
                "start_time": 21.038636363636364,
                "end_time": 21.386363636363637,
                "pitch": 38,
                "velocity": 80,
                "duration": 0.34772727272727266,
                "tempo": 120.0
            },
            {
                "start_time": 21.038636363636364,
                "end_time": 21.386363636363637,
                "pitch": 38,
                "velocity": 80,
                "duration": 0.34772727272727266,
                "tempo": 120.0
            },
            {
                "start_time": 21.388636363636362,
                "end_time": 21.970454545454544,
                "pitch": 43,
                "velocity": 80,
                "duration": 0.581818181818182,
                "tempo": 120.0
            },
            {
                "start_time": 18.586363636363636,
                "end_time": 21.970454545454544,
                "pitch": 50,
                "velocity": 80,
                "duration": 3.384090909090908,
                "tempo": 120.0
            },
            {
                "start_time": 21.386363636363637,
                "end_time": 22.084090909090907,
                "pitch": 31,
                "velocity": 80,
                "duration": 0.6977272727272705,
                "tempo": 120.0
            },
            {
                "start_time": 21.970454545454544,
                "end_time": 22.084090909090907,
                "pitch": 38,
                "velocity": 80,
                "duration": 0.11363636363636331,
                "tempo": 120.0
            },
            {
                "start_time": 22.084090909090907,
                "end_time": 22.31590909090909,
                "pitch": 43,
                "velocity": 80,
                "duration": 0.23181818181818414,
                "tempo": 120.0
            },
            {
                "start_time": 21.970454545454544,
                "end_time": 22.318181818181817,
                "pitch": 50,
                "velocity": 80,
                "duration": 0.34772727272727266,
                "tempo": 120.0
            },
            {
                "start_time": 22.31590909090909,
                "end_time": 22.318181818181817,
                "pitch": 50,
                "velocity": 80,
                "duration": 0.0022727272727252057,
                "tempo": 120.0
            },
            {
                "start_time": 20.21590909090909,
                "end_time": 22.545454545454543,
                "pitch": 33,
                "velocity": 80,
                "duration": 2.3295454545454533,
                "tempo": 120.0
            },
            {
                "start_time": 22.318181818181817,
                "end_time": 22.545454545454543,
                "pitch": 38,
                "velocity": 80,
                "duration": 0.22727272727272663,
                "tempo": 120.0
            },
            {
                "start_time": 22.545454545454543,
                "end_time": 22.895454545454545,
                "pitch": 33,
                "velocity": 80,
                "duration": 0.3500000000000014,
                "tempo": 120.0
            },
            {
                "start_time": 22.545454545454543,
                "end_time": 22.895454545454545,
                "pitch": 33,
                "velocity": 80,
                "duration": 0.3500000000000014,
                "tempo": 120.0
            },
            {
                "start_time": 22.895454545454545,
                "end_time": 23.243181818181817,
                "pitch": 40,
                "velocity": 80,
                "duration": 0.34772727272727266,
                "tempo": 120.0
            },
            {
                "start_time": 22.895454545454545,
                "end_time": 23.243181818181817,
                "pitch": 40,
                "velocity": 80,
                "duration": 0.34772727272727266,
                "tempo": 120.0
            },
            {
                "start_time": 23.245454545454546,
                "end_time": 23.834090909090907,
                "pitch": 45,
                "velocity": 80,
                "duration": 0.5886363636363612,
                "tempo": 120.0
            },
            {
                "start_time": 20.45,
                "end_time": 23.834090909090907,
                "pitch": 52,
                "velocity": 80,
                "duration": 3.384090909090908,
                "tempo": 120.0
            },
            {
                "start_time": 23.243181818181817,
                "end_time": 23.952272727272724,
                "pitch": 33,
                "velocity": 80,
                "duration": 0.7090909090909072,
                "tempo": 120.0
            },
            {
                "start_time": 23.836363636363636,
                "end_time": 23.952272727272724,
                "pitch": 40,
                "velocity": 80,
                "duration": 0.11590909090908852,
                "tempo": 120.0
            },
            {
                "start_time": 23.952272727272724,
                "end_time": 24.18409090909091,
                "pitch": 45,
                "velocity": 80,
                "duration": 0.23181818181818414,
                "tempo": 120.0
            },
            {
                "start_time": 23.834090909090907,
                "end_time": 24.18409090909091,
                "pitch": 52,
                "velocity": 80,
                "duration": 0.3500000000000014,
                "tempo": 120.0
            },
            {
                "start_time": 22.084090909090907,
                "end_time": 24.411363636363635,
                "pitch": 31,
                "velocity": 80,
                "duration": 2.327272727272728,
                "tempo": 120.0
            },
            {
                "start_time": 24.186363636363634,
                "end_time": 24.411363636363635,
                "pitch": 40,
                "velocity": 80,
                "duration": 0.22500000000000142,
                "tempo": 120.0
            },
            {
                "start_time": 24.411363636363635,
                "end_time": 24.76590909090909,
                "pitch": 31,
                "velocity": 80,
                "duration": 0.3545454545454554,
                "tempo": 120.0
            },
            {
                "start_time": 24.413636363636364,
                "end_time": 24.76590909090909,
                "pitch": 31,
                "velocity": 80,
                "duration": 0.3522727272727266,
                "tempo": 120.0
            },
            {
                "start_time": 24.76590909090909,
                "end_time": 25.11590909090909,
                "pitch": 38,
                "velocity": 80,
                "duration": 0.34999999999999787,
                "tempo": 120.0
            },
            {
                "start_time": 24.76590909090909,
                "end_time": 25.11590909090909,
                "pitch": 38,
                "velocity": 80,
                "duration": 0.34999999999999787,
                "tempo": 120.0
            },
            {
                "start_time": 25.11590909090909,
                "end_time": 25.118181818181817,
                "pitch": 31,
                "velocity": 80,
                "duration": 0.0022727272727287584,
                "tempo": 120.0
            },
            {
                "start_time": 25.118181818181817,
                "end_time": 25.704545454545453,
                "pitch": 43,
                "velocity": 80,
                "duration": 0.586363636363636,
                "tempo": 120.0
            },
            {
                "start_time": 25.706818181818182,
                "end_time": 25.818181818181817,
                "pitch": 38,
                "velocity": 80,
                "duration": 0.11136363636363455,
                "tempo": 120.0
            },
            {
                "start_time": 25.818181818181817,
                "end_time": 25.820454545454545,
                "pitch": 31,
                "velocity": 80,
                "duration": 0.0022727272727287584,
                "tempo": 120.0
            },
            {
                "start_time": 25.820454545454545,
                "end_time": 26.052272727272726,
                "pitch": 43,
                "velocity": 80,
                "duration": 0.2318181818181806,
                "tempo": 120.0
            },
            {
                "start_time": 25.704545454545453,
                "end_time": 26.052272727272726,
                "pitch": 50,
                "velocity": 80,
                "duration": 0.34772727272727266,
                "tempo": 120.0
            },
            {
                "start_time": 23.952272727272724,
                "end_time": 26.279545454545453,
                "pitch": 33,
                "velocity": 80,
                "duration": 2.327272727272728,
                "tempo": 120.0
            },
            {
                "start_time": 26.054545454545455,
                "end_time": 26.279545454545453,
                "pitch": 38,
                "velocity": 80,
                "duration": 0.22499999999999787,
                "tempo": 120.0
            },
            {
                "start_time": 26.279545454545453,
                "end_time": 26.629545454545454,
                "pitch": 33,
                "velocity": 80,
                "duration": 0.3500000000000014,
                "tempo": 120.0
            },
            {
                "start_time": 26.28181818181818,
                "end_time": 26.629545454545454,
                "pitch": 33,
                "velocity": 80,
                "duration": 0.34772727272727266,
                "tempo": 120.0
            },
            {
                "start_time": 26.629545454545454,
                "end_time": 26.979545454545452,
                "pitch": 40,
                "velocity": 80,
                "duration": 0.34999999999999787,
                "tempo": 120.0
            },
            {
                "start_time": 26.63181818181818,
                "end_time": 26.979545454545452,
                "pitch": 40,
                "velocity": 80,
                "duration": 0.34772727272727266,
                "tempo": 120.0
            },
            {
                "start_time": 26.979545454545452,
                "end_time": 27.570454545454545,
                "pitch": 45,
                "velocity": 80,
                "duration": 0.5909090909090935,
                "tempo": 120.0
            },
            {
                "start_time": 24.18409090909091,
                "end_time": 27.570454545454545,
                "pitch": 52,
                "velocity": 80,
                "duration": 3.3863636363636367,
                "tempo": 120.0
            },
            {
                "start_time": 26.979545454545452,
                "end_time": 27.686363636363634,
                "pitch": 33,
                "velocity": 80,
                "duration": 0.706818181818182,
                "tempo": 120.0
            },
            {
                "start_time": 27.570454545454545,
                "end_time": 27.686363636363634,
                "pitch": 40,
                "velocity": 80,
                "duration": 0.11590909090908852,
                "tempo": 120.0
            },
            {
                "start_time": 27.688636363636363,
                "end_time": 27.920454545454543,
                "pitch": 45,
                "velocity": 80,
                "duration": 0.2318181818181806,
                "tempo": 120.0
            },
            {
                "start_time": 27.570454545454545,
                "end_time": 27.920454545454543,
                "pitch": 52,
                "velocity": 80,
                "duration": 0.34999999999999787,
                "tempo": 120.0
            },
            {
                "start_time": 27.920454545454543,
                "end_time": 28.14772727272727,
                "pitch": 40,
                "velocity": 80,
                "duration": 0.22727272727272663,
                "tempo": 120.0
            },
            {
                "start_time": 28.14772727272727,
                "end_time": 28.15,
                "pitch": 31,
                "velocity": 80,
                "duration": 0.0022727272727287584,
                "tempo": 120.0
            },
            {
                "start_time": 28.15,
                "end_time": 28.263636363636362,
                "pitch": 43,
                "velocity": 80,
                "duration": 0.11363636363636331,
                "tempo": 120.0
            },
            {
                "start_time": 28.26590909090909,
                "end_time": 28.38181818181818,
                "pitch": 41,
                "velocity": 80,
                "duration": 0.11590909090908852,
                "tempo": 120.0
            },
            {
                "start_time": 28.38181818181818,
                "end_time": 28.502272727272725,
                "pitch": 41,
                "velocity": 4,
                "duration": 0.12045454545454604,
                "tempo": 120.0
            },
            {
                "start_time": 28.504545454545454,
                "end_time": 28.613636363636363,
                "pitch": 40,
                "velocity": 80,
                "duration": 0.10909090909090935,
                "tempo": 120.0
            },
            {
                "start_time": 28.613636363636363,
                "end_time": 28.736363636363635,
                "pitch": 40,
                "velocity": 4,
                "duration": 0.12272727272727124,
                "tempo": 120.0
            },
            {
                "start_time": 28.736363636363635,
                "end_time": 28.843181818181815,
                "pitch": 41,
                "velocity": 80,
                "duration": 0.10681818181818059,
                "tempo": 120.0
            },
            {
                "start_time": 28.843181818181815,
                "end_time": 28.96363636363636,
                "pitch": 41,
                "velocity": 4,
                "duration": 0.12045454545454604,
                "tempo": 120.0
            },
            {
                "start_time": 28.96590909090909,
                "end_time": 29.070454545454545,
                "pitch": 40,
                "velocity": 80,
                "duration": 0.10454545454545539,
                "tempo": 120.0
            },
            {
                "start_time": 27.686363636363634,
                "end_time": 29.78181818181818,
                "pitch": 33,
                "velocity": 80,
                "duration": 2.0954545454545475,
                "tempo": 120.0
            },
            {
                "start_time": 29.07272727272727,
                "end_time": 29.78181818181818,
                "pitch": 40,
                "velocity": 4,
                "duration": 0.7090909090909108,
                "tempo": 120.0
            },
            {
                "start_time": 29.78181818181818,
                "end_time": 30.020454545454545,
                "pitch": 33,
                "velocity": 4,
                "duration": 0.2386363636363633,
                "tempo": 120.0
            },
            {
                "start_time": 29.784090909090907,
                "end_time": 30.020454545454545,
                "pitch": 33,
                "velocity": 80,
                "duration": 0.2363636363636381,
                "tempo": 120.0
            },
            {
                "start_time": 30.020454545454545,
                "end_time": 30.36590909090909,
                "pitch": 33,
                "velocity": 80,
                "duration": 0.3454545454545439,
                "tempo": 120.0
            },
            {
                "start_time": 30.36590909090909,
                "end_time": 30.711363636363636,
                "pitch": 40,
                "velocity": 80,
                "duration": 0.34545454545454746,
                "tempo": 120.0
            },
            {
                "start_time": 30.36590909090909,
                "end_time": 30.711363636363636,
                "pitch": 40,
                "velocity": 80,
                "duration": 0.34545454545454746,
                "tempo": 120.0
            },
            {
                "start_time": 30.711363636363636,
                "end_time": 31.293181818181818,
                "pitch": 45,
                "velocity": 80,
                "duration": 0.581818181818182,
                "tempo": 120.0
            },
            {
                "start_time": 27.920454545454543,
                "end_time": 31.293181818181818,
                "pitch": 52,
                "velocity": 80,
                "duration": 3.372727272727275,
                "tempo": 120.0
            },
            {
                "start_time": 30.711363636363636,
                "end_time": 31.41363636363636,
                "pitch": 33,
                "velocity": 80,
                "duration": 0.7022727272727245,
                "tempo": 120.0
            },
            {
                "start_time": 31.295454545454543,
                "end_time": 31.41363636363636,
                "pitch": 40,
                "velocity": 80,
                "duration": 0.11818181818181728,
                "tempo": 120.0
            },
            {
                "start_time": 31.41590909090909,
                "end_time": 31.65,
                "pitch": 45,
                "velocity": 80,
                "duration": 0.23409090909090935,
                "tempo": 120.0
            },
            {
                "start_time": 31.293181818181818,
                "end_time": 31.65,
                "pitch": 52,
                "velocity": 80,
                "duration": 0.3568181818181806,
                "tempo": 120.0
            },
            {
                "start_time": 31.65,
                "end_time": 31.886363636363633,
                "pitch": 40,
                "velocity": 80,
                "duration": 0.23636363636363455,
                "tempo": 120.0
            },
            {
                "start_time": 31.886363636363633,
                "end_time": 32.236363636363635,
                "pitch": 31,
                "velocity": 80,
                "duration": 0.3500000000000014,
                "tempo": 120.0
            },
            {
                "start_time": 31.888636363636362,
                "end_time": 32.236363636363635,
                "pitch": 31,
                "velocity": 80,
                "duration": 0.34772727272727266,
                "tempo": 120.0
            },
            {
                "start_time": 32.236363636363635,
                "end_time": 32.57954545454545,
                "pitch": 38,
                "velocity": 80,
                "duration": 0.3431818181818187,
                "tempo": 120.0
            },
            {
                "start_time": 32.236363636363635,
                "end_time": 32.57954545454545,
                "pitch": 38,
                "velocity": 80,
                "duration": 0.3431818181818187,
                "tempo": 120.0
            },
            {
                "start_time": 32.57954545454545,
                "end_time": 33.16136363636363,
                "pitch": 43,
                "velocity": 80,
                "duration": 0.5818181818181785,
                "tempo": 120.0
            },
            {
                "start_time": 26.052272727272726,
                "end_time": 33.16136363636363,
                "pitch": 50,
                "velocity": 80,
                "duration": 7.109090909090906,
                "tempo": 120.0
            },
            {
                "start_time": 32.57954545454545,
                "end_time": 33.279545454545456,
                "pitch": 31,
                "velocity": 80,
                "duration": 0.7000000000000028,
                "tempo": 120.0
            },
            {
                "start_time": 33.16136363636363,
                "end_time": 33.279545454545456,
                "pitch": 38,
                "velocity": 80,
                "duration": 0.11818181818182438,
                "tempo": 120.0
            },
            {
                "start_time": 33.279545454545456,
                "end_time": 33.51590909090909,
                "pitch": 43,
                "velocity": 80,
                "duration": 0.23636363636363455,
                "tempo": 120.0
            },
            {
                "start_time": 33.16136363636363,
                "end_time": 33.51590909090909,
                "pitch": 50,
                "velocity": 80,
                "duration": 0.35454545454545894,
                "tempo": 120.0
            },
            {
                "start_time": 33.518181818181816,
                "end_time": 33.75454545454545,
                "pitch": 38,
                "velocity": 80,
                "duration": 0.23636363636363455,
                "tempo": 120.0
            },
            {
                "start_time": 33.75681818181818,
                "end_time": 34.1,
                "pitch": 29,
                "velocity": 80,
                "duration": 0.3431818181818187,
                "tempo": 120.0
            },
            {
                "start_time": 34.10227272727273,
                "end_time": 34.445454545454545,
                "pitch": 36,
                "velocity": 80,
                "duration": 0.3431818181818187,
                "tempo": 120.0
            },
            {
                "start_time": 33.75454545454545,
                "end_time": 34.44772727272727,
                "pitch": 41,
                "velocity": 80,
                "duration": 0.6931818181818201,
                "tempo": 120.0
            },
            {
                "start_time": 34.445454545454545,
                "end_time": 34.44772727272727,
                "pitch": 41,
                "velocity": 80,
                "duration": 0.0022727272727252057,
                "tempo": 120.0
            },
            {
                "start_time": 34.44772727272727,
                "end_time": 35.029545454545456,
                "pitch": 41,
                "velocity": 80,
                "duration": 0.5818181818181856,
                "tempo": 120.0
            },
            {
                "start_time": 35.029545454545456,
                "end_time": 35.15,
                "pitch": 36,
                "velocity": 80,
                "duration": 0.12045454545454248,
                "tempo": 120.0
            },
            {
                "start_time": 35.029545454545456,
                "end_time": 35.15,
                "pitch": 36,
                "velocity": 80,
                "duration": 0.12045454545454248,
                "tempo": 120.0
            },
            {
                "start_time": 35.15,
                "end_time": 35.38409090909091,
                "pitch": 41,
                "velocity": 80,
                "duration": 0.23409090909090935,
                "tempo": 120.0
            },
            {
                "start_time": 35.15,
                "end_time": 35.38409090909091,
                "pitch": 41,
                "velocity": 80,
                "duration": 0.23409090909090935,
                "tempo": 120.0
            },
            {
                "start_time": 33.279545454545456,
                "end_time": 35.62272727272727,
                "pitch": 31,
                "velocity": 80,
                "duration": 2.3431818181818116,
                "tempo": 120.0
            },
            {
                "start_time": 35.38409090909091,
                "end_time": 35.62272727272727,
                "pitch": 36,
                "velocity": 80,
                "duration": 0.23863636363635976,
                "tempo": 120.0
            },
            {
                "start_time": 35.38636363636363,
                "end_time": 35.62272727272727,
                "pitch": 36,
                "velocity": 80,
                "duration": 0.23636363636363455,
                "tempo": 120.0
            },
            {
                "start_time": 35.62272727272727,
                "end_time": 35.970454545454544,
                "pitch": 31,
                "velocity": 80,
                "duration": 0.3477272727272762,
                "tempo": 120.0
            },
            {
                "start_time": 35.62272727272727,
                "end_time": 35.970454545454544,
                "pitch": 31,
                "velocity": 80,
                "duration": 0.3477272727272762,
                "tempo": 120.0
            },
            {
                "start_time": 35.970454545454544,
                "end_time": 36.31363636363636,
                "pitch": 38,
                "velocity": 80,
                "duration": 0.3431818181818187,
                "tempo": 120.0
            },
            {
                "start_time": 35.97272727272727,
                "end_time": 36.31363636363636,
                "pitch": 38,
                "velocity": 80,
                "duration": 0.3409090909090935,
                "tempo": 120.0
            },
            {
                "start_time": 36.31590909090909,
                "end_time": 36.89772727272727,
                "pitch": 43,
                "velocity": 80,
                "duration": 0.5818181818181856,
                "tempo": 120.0
            },
            {
                "start_time": 33.51590909090909,
                "end_time": 36.89772727272727,
                "pitch": 50,
                "velocity": 80,
                "duration": 3.3818181818181827,
                "tempo": 120.0
            },
            {
                "start_time": 36.31363636363636,
                "end_time": 37.01590909090909,
                "pitch": 31,
                "velocity": 80,
                "duration": 0.702272727272728,
                "tempo": 120.0
            },
            {
                "start_time": 36.89772727272727,
                "end_time": 37.01590909090909,
                "pitch": 38,
                "velocity": 80,
                "duration": 0.11818181818181728,
                "tempo": 120.0
            },
            {
                "start_time": 37.01590909090909,
                "end_time": 37.252272727272725,
                "pitch": 43,
                "velocity": 80,
                "duration": 0.23636363636363455,
                "tempo": 120.0
            },
            {
                "start_time": 36.89772727272727,
                "end_time": 37.252272727272725,
                "pitch": 50,
                "velocity": 80,
                "duration": 0.35454545454545183,
                "tempo": 120.0
            },
            {
                "start_time": 31.41363636363636,
                "end_time": 37.49090909090909,
                "pitch": 33,
                "velocity": 80,
                "duration": 6.077272727272732,
                "tempo": 120.0
            },
            {
                "start_time": 37.252272727272725,
                "end_time": 37.49090909090909,
                "pitch": 38,
                "velocity": 80,
                "duration": 0.23863636363636687,
                "tempo": 120.0
            },
            {
                "start_time": 37.49090909090909,
                "end_time": 37.836363636363636,
                "pitch": 33,
                "velocity": 80,
                "duration": 0.3454545454545439,
                "tempo": 120.0
            },
            {
                "start_time": 37.49318181818182,
                "end_time": 37.836363636363636,
                "pitch": 33,
                "velocity": 80,
                "duration": 0.3431818181818187,
                "tempo": 120.0
            },
            {
                "start_time": 37.836363636363636,
                "end_time": 38.18181818181818,
                "pitch": 40,
                "velocity": 80,
                "duration": 0.3454545454545439,
                "tempo": 120.0
            },
            {
                "start_time": 37.836363636363636,
                "end_time": 38.18181818181818,
                "pitch": 40,
                "velocity": 80,
                "duration": 0.3454545454545439,
                "tempo": 120.0
            },
            {
                "start_time": 38.184090909090905,
                "end_time": 38.76363636363636,
                "pitch": 45,
                "velocity": 80,
                "duration": 0.5795454545454533,
                "tempo": 120.0
            },
            {
                "start_time": 31.65,
                "end_time": 38.76363636363636,
                "pitch": 52,
                "velocity": 80,
                "duration": 7.11363636363636,
                "tempo": 120.0
            },
            {
                "start_time": 38.18181818181818,
                "end_time": 38.88636363636363,
                "pitch": 33,
                "velocity": 80,
                "duration": 0.7045454545454533,
                "tempo": 120.0
            },
            {
                "start_time": 38.76590909090909,
                "end_time": 38.88636363636363,
                "pitch": 40,
                "velocity": 80,
                "duration": 0.12045454545454248,
                "tempo": 120.0
            },
            {
                "start_time": 38.88636363636363,
                "end_time": 39.12045454545454,
                "pitch": 45,
                "velocity": 80,
                "duration": 0.23409090909090935,
                "tempo": 120.0
            },
            {
                "start_time": 38.76363636363636,
                "end_time": 39.12045454545454,
                "pitch": 52,
                "velocity": 80,
                "duration": 0.35681818181818414,
                "tempo": 120.0
            },
            {
                "start_time": 37.01590909090909,
                "end_time": 39.35909090909091,
                "pitch": 31,
                "velocity": 80,
                "duration": 2.3431818181818187,
                "tempo": 120.0
            },
            {
                "start_time": 39.12045454545454,
                "end_time": 39.35909090909091,
                "pitch": 40,
                "velocity": 80,
                "duration": 0.23863636363636687,
                "tempo": 120.0
            },
            {
                "start_time": 39.35909090909091,
                "end_time": 39.70681818181818,
                "pitch": 31,
                "velocity": 80,
                "duration": 0.3477272727272691,
                "tempo": 120.0
            },
            {
                "start_time": 39.35909090909091,
                "end_time": 39.70681818181818,
                "pitch": 31,
                "velocity": 80,
                "duration": 0.3477272727272691,
                "tempo": 120.0
            },
            {
                "start_time": 39.70681818181818,
                "end_time": 40.05,
                "pitch": 38,
                "velocity": 80,
                "duration": 0.3431818181818187,
                "tempo": 120.0
            },
            {
                "start_time": 39.70681818181818,
                "end_time": 40.05,
                "pitch": 38,
                "velocity": 80,
                "duration": 0.3431818181818187,
                "tempo": 120.0
            },
            {
                "start_time": 40.05,
                "end_time": 40.63181818181818,
                "pitch": 43,
                "velocity": 80,
                "duration": 0.5818181818181856,
                "tempo": 120.0
            },
            {
                "start_time": 37.252272727272725,
                "end_time": 40.63181818181818,
                "pitch": 50,
                "velocity": 80,
                "duration": 3.3795454545454575,
                "tempo": 120.0
            },
            {
                "start_time": 40.05,
                "end_time": 40.75,
                "pitch": 31,
                "velocity": 80,
                "duration": 0.7000000000000028,
                "tempo": 120.0
            },
            {
                "start_time": 40.63409090909091,
                "end_time": 40.75,
                "pitch": 38,
                "velocity": 80,
                "duration": 0.11590909090909207,
                "tempo": 120.0
            },
            {
                "start_time": 40.752272727272725,
                "end_time": 40.98181818181818,
                "pitch": 43,
                "velocity": 80,
                "duration": 0.22954545454545183,
                "tempo": 120.0
            },
            {
                "start_time": 40.63181818181818,
                "end_time": 40.98181818181818,
                "pitch": 50,
                "velocity": 80,
                "duration": 0.3499999999999943,
                "tempo": 120.0
            },
            {
                "start_time": 40.98409090909091,
                "end_time": 41.215909090909086,
                "pitch": 38,
                "velocity": 80,
                "duration": 0.23181818181817704,
                "tempo": 120.0
            },
            {
                "start_time": 34.1,
                "end_time": 41.56818181818181,
                "pitch": 24,
                "velocity": 80,
                "duration": 7.468181818181812,
                "tempo": 120.0
            },
            {
                "start_time": 41.215909090909086,
                "end_time": 41.56818181818181,
                "pitch": 29,
                "velocity": 80,
                "duration": 0.3522727272727266,
                "tempo": 120.0
            },
            {
                "start_time": 41.570454545454545,
                "end_time": 41.918181818181814,
                "pitch": 36,
                "velocity": 80,
                "duration": 0.3477272727272691,
                "tempo": 120.0
            },
            {
                "start_time": 41.215909090909086,
                "end_time": 41.918181818181814,
                "pitch": 41,
                "velocity": 80,
                "duration": 0.702272727272728,
                "tempo": 120.0
            },
            {
                "start_time": 41.918181818181814,
                "end_time": 42.5,
                "pitch": 41,
                "velocity": 80,
                "duration": 0.5818181818181856,
                "tempo": 120.0
            },
            {
                "start_time": 41.918181818181814,
                "end_time": 42.5,
                "pitch": 41,
                "velocity": 80,
                "duration": 0.5818181818181856,
                "tempo": 120.0
            },
            {
                "start_time": 42.5,
                "end_time": 42.62045454545454,
                "pitch": 36,
                "velocity": 80,
                "duration": 0.12045454545454248,
                "tempo": 120.0
            },
            {
                "start_time": 42.5,
                "end_time": 42.62045454545454,
                "pitch": 36,
                "velocity": 80,
                "duration": 0.12045454545454248,
                "tempo": 120.0
            },
            {
                "start_time": 42.62045454545454,
                "end_time": 42.85454545454545,
                "pitch": 41,
                "velocity": 80,
                "duration": 0.23409090909090935,
                "tempo": 120.0
            },
            {
                "start_time": 42.62272727272727,
                "end_time": 42.85454545454545,
                "pitch": 41,
                "velocity": 80,
                "duration": 0.23181818181818414,
                "tempo": 120.0
            },
            {
                "start_time": 42.85454545454545,
                "end_time": 42.85681818181818,
                "pitch": 36,
                "velocity": 80,
                "duration": 0.0022727272727252057,
                "tempo": 120.0
            },
            {
                "start_time": 40.75,
                "end_time": 43.09318181818182,
                "pitch": 31,
                "velocity": 80,
                "duration": 2.3431818181818187,
                "tempo": 120.0
            },
            {
                "start_time": 42.85681818181818,
                "end_time": 43.09318181818182,
                "pitch": 36,
                "velocity": 80,
                "duration": 0.23636363636364166,
                "tempo": 120.0
            },
            {
                "start_time": 43.09318181818182,
                "end_time": 43.43863636363636,
                "pitch": 31,
                "velocity": 80,
                "duration": 0.3454545454545439,
                "tempo": 120.0
            },
            {
                "start_time": 43.095454545454544,
                "end_time": 43.43863636363636,
                "pitch": 31,
                "velocity": 80,
                "duration": 0.3431818181818187,
                "tempo": 120.0
            },
            {
                "start_time": 43.43863636363636,
                "end_time": 43.78636363636363,
                "pitch": 38,
                "velocity": 80,
                "duration": 0.3477272727272691,
                "tempo": 120.0
            },
            {
                "start_time": 43.44090909090909,
                "end_time": 43.78636363636363,
                "pitch": 38,
                "velocity": 80,
                "duration": 0.3454545454545439,
                "tempo": 120.0
            },
            {
                "start_time": 43.78636363636363,
                "end_time": 44.35909090909091,
                "pitch": 43,
                "velocity": 80,
                "duration": 0.5727272727272776,
                "tempo": 120.0
            },
            {
                "start_time": 40.98181818181818,
                "end_time": 44.35909090909091,
                "pitch": 50,
                "velocity": 80,
                "duration": 3.3772727272727323,
                "tempo": 120.0
            },
            {
                "start_time": 43.78636363636363,
                "end_time": 44.47727272727273,
                "pitch": 31,
                "velocity": 80,
                "duration": 0.6909090909090949,
                "tempo": 120.0
            },
            {
                "start_time": 44.361363636363635,
                "end_time": 44.47727272727273,
                "pitch": 38,
                "velocity": 80,
                "duration": 0.11590909090909207,
                "tempo": 120.0
            },
            {
                "start_time": 44.47954545454545,
                "end_time": 44.715909090909086,
                "pitch": 43,
                "velocity": 80,
                "duration": 0.23636363636363455,
                "tempo": 120.0
            },
            {
                "start_time": 44.35909090909091,
                "end_time": 44.715909090909086,
                "pitch": 50,
                "velocity": 80,
                "duration": 0.35681818181817704,
                "tempo": 120.0
            },
            {
                "start_time": 44.715909090909086,
                "end_time": 44.95227272727273,
                "pitch": 38,
                "velocity": 80,
                "duration": 0.23636363636364166,
                "tempo": 120.0
            },
            {
                "start_time": 44.95454545454545,
                "end_time": 45.06590909090909,
                "pitch": 29,
                "velocity": 80,
                "duration": 0.11136363636363455,
                "tempo": 120.0
            },
            {
                "start_time": 45.06590909090909,
                "end_time": 45.184090909090905,
                "pitch": 29,
                "velocity": 80,
                "duration": 0.11818181818181728,
                "tempo": 120.0
            },
            {
                "start_time": 45.184090909090905,
                "end_time": 45.304545454545455,
                "pitch": 29,
                "velocity": 4,
                "duration": 0.12045454545454959,
                "tempo": 120.0
            },
            {
                "start_time": 45.304545454545455,
                "end_time": 45.418181818181814,
                "pitch": 29,
                "velocity": 80,
                "duration": 0.11363636363635976,
                "tempo": 120.0
            },
            {
                "start_time": 45.42045454545455,
                "end_time": 45.53409090909091,
                "pitch": 29,
                "velocity": 4,
                "duration": 0.11363636363635976,
                "tempo": 120.0
            },
            {
                "start_time": 45.53636363636363,
                "end_time": 45.643181818181816,
                "pitch": 29,
                "velocity": 80,
                "duration": 0.10681818181818414,
                "tempo": 120.0
            },
            {
                "start_time": 45.643181818181816,
                "end_time": 45.75909090909091,
                "pitch": 29,
                "velocity": 4,
                "duration": 0.11590909090909207,
                "tempo": 120.0
            },
            {
                "start_time": 45.75909090909091,
                "end_time": 45.87045454545454,
                "pitch": 29,
                "velocity": 80,
                "duration": 0.11136363636363455,
                "tempo": 120.0
            },
            {
                "start_time": 45.87272727272727,
                "end_time": 46.111363636363635,
                "pitch": 29,
                "velocity": 80,
                "duration": 0.23863636363636687,
                "tempo": 120.0
            },
            {
                "start_time": 41.56818181818181,
                "end_time": 46.349999999999994,
                "pitch": 24,
                "velocity": 80,
                "duration": 4.781818181818181,
                "tempo": 120.0
            },
            {
                "start_time": 46.11363636363636,
                "end_time": 46.349999999999994,
                "pitch": 29,
                "velocity": 80,
                "duration": 0.23636363636363455,
                "tempo": 120.0
            },
            {
                "start_time": 46.35227272727273,
                "end_time": 46.586363636363636,
                "pitch": 36,
                "velocity": 80,
                "duration": 0.23409090909090935,
                "tempo": 120.0
            },
            {
                "start_time": 44.95227272727273,
                "end_time": 46.586363636363636,
                "pitch": 41,
                "velocity": 80,
                "duration": 1.634090909090908,
                "tempo": 120.0
            },
            {
                "start_time": 46.586363636363636,
                "end_time": 46.82272727272727,
                "pitch": 29,
                "velocity": 80,
                "duration": 0.23636363636363455,
                "tempo": 120.0
            },
            {
                "start_time": 46.824999999999996,
                "end_time": 46.934090909090905,
                "pitch": 28,
                "velocity": 80,
                "duration": 0.10909090909090935,
                "tempo": 120.0
            },
            {
                "start_time": 46.93636363636364,
                "end_time": 47.05227272727272,
                "pitch": 28,
                "velocity": 80,
                "duration": 0.11590909090908497,
                "tempo": 120.0
            },
            {
                "start_time": 47.05227272727272,
                "end_time": 47.17272727272727,
                "pitch": 28,
                "velocity": 4,
                "duration": 0.12045454545454959,
                "tempo": 120.0
            },
            {
                "start_time": 47.17272727272727,
                "end_time": 47.28409090909091,
                "pitch": 28,
                "velocity": 80,
                "duration": 0.11136363636363455,
                "tempo": 120.0
            },
            {
                "start_time": 47.28409090909091,
                "end_time": 47.402272727272724,
                "pitch": 28,
                "velocity": 4,
                "duration": 0.11818181818181728,
                "tempo": 120.0
            },
            {
                "start_time": 47.402272727272724,
                "end_time": 47.51136363636363,
                "pitch": 28,
                "velocity": 80,
                "duration": 0.10909090909090935,
                "tempo": 120.0
            },
            {
                "start_time": 47.51136363636363,
                "end_time": 47.62272727272727,
                "pitch": 28,
                "velocity": 4,
                "duration": 0.11136363636363455,
                "tempo": 120.0
            },
            {
                "start_time": 47.625,
                "end_time": 47.73863636363636,
                "pitch": 28,
                "velocity": 80,
                "duration": 0.11363636363635976,
                "tempo": 120.0
            },
            {
                "start_time": 47.73863636363636,
                "end_time": 47.974999999999994,
                "pitch": 28,
                "velocity": 80,
                "duration": 0.23636363636363455,
                "tempo": 120.0
            },
            {
                "start_time": 47.97727272727273,
                "end_time": 48.21818181818182,
                "pitch": 28,
                "velocity": 80,
                "duration": 0.24090909090909207,
                "tempo": 120.0
            },
            {
                "start_time": 48.220454545454544,
                "end_time": 48.449999999999996,
                "pitch": 35,
                "velocity": 80,
                "duration": 0.22954545454545183,
                "tempo": 120.0
            },
            {
                "start_time": 48.45227272727273,
                "end_time": 48.679545454545455,
                "pitch": 28,
                "velocity": 80,
                "duration": 0.22727272727272663,
                "tempo": 120.0
            },
            {
                "start_time": 48.68181818181818,
                "end_time": 48.793181818181814,
                "pitch": 38,
                "velocity": 80,
                "duration": 0.11136363636363455,
                "tempo": 120.0
            },
            {
                "start_time": 48.793181818181814,
                "end_time": 48.90909090909091,
                "pitch": 38,
                "velocity": 80,
                "duration": 0.11590909090909207,
                "tempo": 120.0
            },
            {
                "start_time": 48.90909090909091,
                "end_time": 49.027272727272724,
                "pitch": 38,
                "velocity": 4,
                "duration": 0.11818181818181728,
                "tempo": 120.0
            },
            {
                "start_time": 49.027272727272724,
                "end_time": 49.14090909090909,
                "pitch": 38,
                "velocity": 80,
                "duration": 0.11363636363636687,
                "tempo": 120.0
            },
            {
                "start_time": 49.14090909090909,
                "end_time": 49.25909090909091,
                "pitch": 38,
                "velocity": 4,
                "duration": 0.11818181818181728,
                "tempo": 120.0
            },
            {
                "start_time": 49.25909090909091,
                "end_time": 49.37045454545454,
                "pitch": 38,
                "velocity": 80,
                "duration": 0.11136363636363455,
                "tempo": 120.0
            },
            {
                "start_time": 49.37045454545454,
                "end_time": 49.48863636363636,
                "pitch": 38,
                "velocity": 4,
                "duration": 0.11818181818181728,
                "tempo": 120.0
            },
            {
                "start_time": 49.48863636363636,
                "end_time": 49.60227272727273,
                "pitch": 38,
                "velocity": 80,
                "duration": 0.11363636363636687,
                "tempo": 120.0
            },
            {
                "start_time": 49.60454545454545,
                "end_time": 49.840909090909086,
                "pitch": 38,
                "velocity": 80,
                "duration": 0.23636363636363455,
                "tempo": 120.0
            },
            {
                "start_time": 38.88636363636363,
                "end_time": 50.074999999999996,
                "pitch": 33,
                "velocity": 80,
                "duration": 11.188636363636363,
                "tempo": 120.0
            },
            {
                "start_time": 49.840909090909086,
                "end_time": 50.074999999999996,
                "pitch": 38,
                "velocity": 80,
                "duration": 0.23409090909090935,
                "tempo": 120.0
            },
            {
                "start_time": 50.074999999999996,
                "end_time": 50.31136363636364,
                "pitch": 33,
                "velocity": 80,
                "duration": 0.23636363636364166,
                "tempo": 120.0
            },
            {
                "start_time": 50.07727272727273,
                "end_time": 50.31136363636364,
                "pitch": 33,
                "velocity": 80,
                "duration": 0.23409090909090935,
                "tempo": 120.0
            },
            {
                "start_time": 50.31136363636364,
                "end_time": 50.54772727272727,
                "pitch": 38,
                "velocity": 80,
                "duration": 0.23636363636363455,
                "tempo": 120.0
            },
            {
                "start_time": 50.31136363636364,
                "end_time": 50.54772727272727,
                "pitch": 38,
                "velocity": 80,
                "duration": 0.23636363636363455,
                "tempo": 120.0
            },
            {
                "start_time": 50.54772727272727,
                "end_time": 50.65909090909091,
                "pitch": 36,
                "velocity": 80,
                "duration": 0.11136363636363455,
                "tempo": 120.0
            },
            {
                "start_time": 50.54772727272727,
                "end_time": 50.65909090909091,
                "pitch": 36,
                "velocity": 80,
                "duration": 0.11136363636363455,
                "tempo": 120.0
            },
            {
                "start_time": 50.66136363636363,
                "end_time": 50.777272727272724,
                "pitch": 36,
                "velocity": 80,
                "duration": 0.11590909090909207,
                "tempo": 120.0
            },
            {
                "start_time": 50.777272727272724,
                "end_time": 50.89772727272727,
                "pitch": 36,
                "velocity": 4,
                "duration": 0.12045454545454959,
                "tempo": 120.0
            },
            {
                "start_time": 50.89772727272727,
                "end_time": 51.00909090909091,
                "pitch": 36,
                "velocity": 80,
                "duration": 0.11136363636363455,
                "tempo": 120.0
            },
            {
                "start_time": 51.00909090909091,
                "end_time": 51.12954545454545,
                "pitch": 36,
                "velocity": 4,
                "duration": 0.12045454545454248,
                "tempo": 120.0
            },
            {
                "start_time": 51.12954545454545,
                "end_time": 51.240909090909085,
                "pitch": 36,
                "velocity": 80,
                "duration": 0.11136363636363455,
                "tempo": 120.0
            },
            {
                "start_time": 51.240909090909085,
                "end_time": 51.35681818181818,
                "pitch": 36,
                "velocity": 4,
                "duration": 0.11590909090909207,
                "tempo": 120.0
            },
            {
                "start_time": 51.35681818181818,
                "end_time": 51.47272727272727,
                "pitch": 36,
                "velocity": 80,
                "duration": 0.11590909090909207,
                "tempo": 120.0
            },
            {
                "start_time": 51.474999999999994,
                "end_time": 51.709090909090904,
                "pitch": 36,
                "velocity": 80,
                "duration": 0.23409090909090935,
                "tempo": 120.0
            },
            {
                "start_time": 44.47727272727273,
                "end_time": 51.949999999999996,
                "pitch": 31,
                "velocity": 80,
                "duration": 7.472727272727269,
                "tempo": 120.0
            },
            {
                "start_time": 51.709090909090904,
                "end_time": 51.949999999999996,
                "pitch": 36,
                "velocity": 80,
                "duration": 0.24090909090909207,
                "tempo": 120.0
            },
            {
                "start_time": 51.949999999999996,
                "end_time": 52.18181818181818,
                "pitch": 31,
                "velocity": 80,
                "duration": 0.23181818181818414,
                "tempo": 120.0
            },
            {
                "start_time": 51.95227272727273,
                "end_time": 52.18181818181818,
                "pitch": 31,
                "velocity": 80,
                "duration": 0.22954545454545183,
                "tempo": 120.0
            },
            {
                "start_time": 52.18181818181818,
                "end_time": 52.184090909090905,
                "pitch": 36,
                "velocity": 80,
                "duration": 0.0022727272727252057,
                "tempo": 120.0
            },
            {
                "start_time": 52.184090909090905,
                "end_time": 52.413636363636364,
                "pitch": 36,
                "velocity": 80,
                "duration": 0.22954545454545894,
                "tempo": 120.0
            },
            {
                "start_time": 46.586363636363636,
                "end_time": 52.413636363636364,
                "pitch": 41,
                "velocity": 80,
                "duration": 5.827272727272728,
                "tempo": 120.0
            },
            {
                "start_time": 52.413636363636364,
                "end_time": 52.525,
                "pitch": 29,
                "velocity": 80,
                "duration": 0.11136363636363455,
                "tempo": 120.0
            },
            {
                "start_time": 52.525,
                "end_time": 52.64090909090909,
                "pitch": 29,
                "velocity": 80,
                "duration": 0.11590909090909207,
                "tempo": 120.0
            },
            {
                "start_time": 52.64090909090909,
                "end_time": 52.75909090909091,
                "pitch": 29,
                "velocity": 4,
                "duration": 0.11818181818181728,
                "tempo": 120.0
            },
            {
                "start_time": 52.76136363636363,
                "end_time": 52.87272727272727,
                "pitch": 29,
                "velocity": 80,
                "duration": 0.11136363636363455,
                "tempo": 120.0
            },
            {
                "start_time": 52.87272727272727,
                "end_time": 52.990909090909085,
                "pitch": 29,
                "velocity": 4,
                "duration": 0.11818181818181728,
                "tempo": 120.0
            },
            {
                "start_time": 52.99318181818182,
                "end_time": 53.10227272727273,
                "pitch": 29,
                "velocity": 80,
                "duration": 0.10909090909090935,
                "tempo": 120.0
            },
            {
                "start_time": 53.10227272727273,
                "end_time": 53.220454545454544,
                "pitch": 29,
                "velocity": 4,
                "duration": 0.11818181818181728,
                "tempo": 120.0
            },
            {
                "start_time": 53.22272727272727,
                "end_time": 53.336363636363636,
                "pitch": 29,
                "velocity": 80,
                "duration": 0.11363636363636687,
                "tempo": 120.0
            },
            {
                "start_time": 53.336363636363636,
                "end_time": 53.57272727272727,
                "pitch": 29,
                "velocity": 80,
                "duration": 0.23636363636363455,
                "tempo": 120.0
            },
            {
                "start_time": 53.574999999999996,
                "end_time": 53.80681818181818,
                "pitch": 29,
                "velocity": 80,
                "duration": 0.23181818181818414,
                "tempo": 120.0
            },
            {
                "start_time": 46.349999999999994,
                "end_time": 53.809090909090905,
                "pitch": 24,
                "velocity": 80,
                "duration": 7.459090909090911,
                "tempo": 120.0
            },
            {
                "start_time": 53.80681818181818,
                "end_time": 53.809090909090905,
                "pitch": 24,
                "velocity": 80,
                "duration": 0.0022727272727252057,
                "tempo": 120.0
            },
            {
                "start_time": 53.809090909090905,
                "end_time": 54.043181818181814,
                "pitch": 36,
                "velocity": 80,
                "duration": 0.23409090909090935,
                "tempo": 120.0
            },
            {
                "start_time": 52.413636363636364,
                "end_time": 54.043181818181814,
                "pitch": 41,
                "velocity": 80,
                "duration": 1.6295454545454504,
                "tempo": 120.0
            },
            {
                "start_time": 54.043181818181814,
                "end_time": 54.27954545454545,
                "pitch": 29,
                "velocity": 80,
                "duration": 0.23636363636363455,
                "tempo": 120.0
            },
            {
                "start_time": 54.28181818181818,
                "end_time": 54.393181818181816,
                "pitch": 28,
                "velocity": 80,
                "duration": 0.11136363636363455,
                "tempo": 120.0
            },
            {
                "start_time": 54.393181818181816,
                "end_time": 54.50909090909091,
                "pitch": 28,
                "velocity": 80,
                "duration": 0.11590909090909207,
                "tempo": 120.0
            },
            {
                "start_time": 54.50909090909091,
                "end_time": 54.62954545454545,
                "pitch": 28,
                "velocity": 4,
                "duration": 0.12045454545454248,
                "tempo": 120.0
            },
            {
                "start_time": 54.631818181818176,
                "end_time": 54.740909090909085,
                "pitch": 28,
                "velocity": 80,
                "duration": 0.10909090909090935,
                "tempo": 120.0
            },
            {
                "start_time": 54.740909090909085,
                "end_time": 54.861363636363635,
                "pitch": 28,
                "velocity": 4,
                "duration": 0.12045454545454959,
                "tempo": 120.0
            },
            {
                "start_time": 54.86363636363636,
                "end_time": 54.97272727272727,
                "pitch": 28,
                "velocity": 80,
                "duration": 0.10909090909090935,
                "tempo": 120.0
            },
            {
                "start_time": 54.97272727272727,
                "end_time": 55.08863636363636,
                "pitch": 28,
                "velocity": 4,
                "duration": 0.11590909090909207,
                "tempo": 120.0
            },
            {
                "start_time": 55.08863636363636,
                "end_time": 55.20681818181818,
                "pitch": 28,
                "velocity": 80,
                "duration": 0.11818181818181728,
                "tempo": 120.0
            },
            {
                "start_time": 55.20681818181818,
                "end_time": 55.44090909090909,
                "pitch": 28,
                "velocity": 80,
                "duration": 0.23409090909090935,
                "tempo": 120.0
            },
            {
                "start_time": 48.21818181818182,
                "end_time": 55.68181818181818,
                "pitch": 23,
                "velocity": 80,
                "duration": 7.463636363636361,
                "tempo": 120.0
            },
            {
                "start_time": 55.44318181818181,
                "end_time": 55.68181818181818,
                "pitch": 28,
                "velocity": 80,
                "duration": 0.23863636363636687,
                "tempo": 120.0
            },
            {
                "start_time": 55.684090909090905,
                "end_time": 55.913636363636364,
                "pitch": 35,
                "velocity": 80,
                "duration": 0.22954545454545894,
                "tempo": 120.0
            },
            {
                "start_time": 48.449999999999996,
                "end_time": 55.913636363636364,
                "pitch": 40,
                "velocity": 80,
                "duration": 7.463636363636368,
                "tempo": 120.0
            },
            {
                "start_time": 55.91590909090909,
                "end_time": 56.14545454545454,
                "pitch": 28,
                "velocity": 80,
                "duration": 0.22954545454545183,
                "tempo": 120.0
            },
            {
                "start_time": 56.14545454545454,
                "end_time": 56.49318181818182,
                "pitch": 29,
                "velocity": 80,
                "duration": 0.3477272727272762,
                "tempo": 120.0
            },
            {
                "start_time": 56.49545454545454,
                "end_time": 56.840909090909086,
                "pitch": 29,
                "velocity": 80,
                "duration": 0.3454545454545439,
                "tempo": 120.0
            },
            {
                "start_time": 56.840909090909086,
                "end_time": 57.07272727272727,
                "pitch": 29,
                "velocity": 80,
                "duration": 0.23181818181818414,
                "tempo": 120.0
            },
            {
                "start_time": 57.07272727272727,
                "end_time": 57.42727272727272,
                "pitch": 31,
                "velocity": 80,
                "duration": 0.35454545454545183,
                "tempo": 120.0
            },
            {
                "start_time": 57.42727272727272,
                "end_time": 57.775,
                "pitch": 31,
                "velocity": 80,
                "duration": 0.3477272727272762,
                "tempo": 120.0
            },
            {
                "start_time": 57.777272727272724,
                "end_time": 58.00909090909091,
                "pitch": 31,
                "velocity": 80,
                "duration": 0.23181818181818414,
                "tempo": 120.0
            },
            {
                "start_time": 58.00909090909091,
                "end_time": 58.35681818181818,
                "pitch": 32,
                "velocity": 80,
                "duration": 0.3477272727272691,
                "tempo": 120.0
            },
            {
                "start_time": 58.35909090909091,
                "end_time": 58.70454545454545,
                "pitch": 32,
                "velocity": 80,
                "duration": 0.3454545454545439,
                "tempo": 120.0
            },
            {
                "start_time": 58.70454545454545,
                "end_time": 58.93636363636363,
                "pitch": 32,
                "velocity": 80,
                "duration": 0.23181818181817704,
                "tempo": 120.0
            },
            {
                "start_time": 58.93863636363636,
                "end_time": 59.28636363636363,
                "pitch": 34,
                "velocity": 80,
                "duration": 0.3477272727272691,
                "tempo": 120.0
            },
            {
                "start_time": 59.28636363636363,
                "end_time": 59.63863636363636,
                "pitch": 34,
                "velocity": 80,
                "duration": 0.3522727272727266,
                "tempo": 120.0
            },
            {
                "start_time": 59.63863636363636,
                "end_time": 59.877272727272725,
                "pitch": 34,
                "velocity": 80,
                "duration": 0.23863636363636687,
                "tempo": 120.0
            },
            {
                "start_time": 59.87954545454545,
                "end_time": 61.736363636363635,
                "pitch": 36,
                "velocity": 80,
                "duration": 1.8568181818181841,
                "tempo": 120.0
            },
            {
                "start_time": 54.043181818181814,
                "end_time": 61.736363636363635,
                "pitch": 41,
                "velocity": 80,
                "duration": 7.69318181818182,
                "tempo": 120.0
            },
            {
                "start_time": 61.736363636363635,
                "end_time": 62.15,
                "pitch": 29,
                "velocity": 80,
                "duration": 0.413636363636364,
                "tempo": 120.0
            },
            {
                "start_time": 62.20454545454545,
                "end_time": 62.611363636363635,
                "pitch": 36,
                "velocity": 80,
                "duration": 0.4068181818181813,
                "tempo": 120.0
            },
            {
                "start_time": 62.663636363636364,
                "end_time": 62.961363636363636,
                "pitch": 29,
                "velocity": 80,
                "duration": 0.29772727272727195,
                "tempo": 120.0
            },
            {
                "start_time": 63.018181818181816,
                "end_time": 63.111363636363635,
                "pitch": 29,
                "velocity": 80,
                "duration": 0.0931818181818187,
                "tempo": 120.0
            },
            {
                "start_time": 63.13863636363636,
                "end_time": 63.32954545454545,
                "pitch": 36,
                "velocity": 80,
                "duration": 0.19090909090909491,
                "tempo": 120.0
            },
            {
                "start_time": 63.375,
                "end_time": 63.56590909090909,
                "pitch": 29,
                "velocity": 80,
                "duration": 0.1909090909090878,
                "tempo": 120.0
            },
            {
                "start_time": 63.611363636363635,
                "end_time": 64.01818181818182,
                "pitch": 34,
                "velocity": 80,
                "duration": 0.4068181818181813,
                "tempo": 120.0
            },
            {
                "start_time": 64.075,
                "end_time": 64.47727272727272,
                "pitch": 29,
                "velocity": 80,
                "duration": 0.4022727272727167,
                "tempo": 120.0
            },
            {
                "start_time": 64.52954545454546,
                "end_time": 64.82954545454545,
                "pitch": 29,
                "velocity": 80,
                "duration": 0.29999999999999716,
                "tempo": 120.0
            },
            {
                "start_time": 64.88636363636364,
                "end_time": 64.97954545454544,
                "pitch": 29,
                "velocity": 80,
                "duration": 0.09318181818180449,
                "tempo": 120.0
            },
            {
                "start_time": 65.00681818181818,
                "end_time": 65.19772727272726,
                "pitch": 29,
                "velocity": 80,
                "duration": 0.1909090909090878,
                "tempo": 120.0
            },
            {
                "start_time": 65.24318181818181,
                "end_time": 65.43181818181817,
                "pitch": 34,
                "velocity": 80,
                "duration": 0.1886363636363626,
                "tempo": 120.0
            },
            {
                "start_time": 65.47954545454544,
                "end_time": 65.88636363636364,
                "pitch": 39,
                "velocity": 80,
                "duration": 0.4068181818181955,
                "tempo": 120.0
            },
            {
                "start_time": 65.93863636363636,
                "end_time": 66.34545454545454,
                "pitch": 34,
                "velocity": 80,
                "duration": 0.4068181818181813,
                "tempo": 120.0
            },
            {
                "start_time": 66.40227272727273,
                "end_time": 66.69772727272726,
                "pitch": 39,
                "velocity": 80,
                "duration": 0.29545454545453254,
                "tempo": 120.0
            },
            {
                "start_time": 66.75681818181818,
                "end_time": 66.84772727272727,
                "pitch": 39,
                "velocity": 80,
                "duration": 0.09090909090909349,
                "tempo": 120.0
            },
            {
                "start_time": 66.87045454545454,
                "end_time": 67.06590909090909,
                "pitch": 46,
                "velocity": 80,
                "duration": 0.19545454545455243,
                "tempo": 120.0
            },
            {
                "start_time": 67.10909090909091,
                "end_time": 67.3,
                "pitch": 39,
                "velocity": 80,
                "duration": 0.1909090909090878,
                "tempo": 120.0
            },
            {
                "start_time": 67.34545454545454,
                "end_time": 67.75454545454545,
                "pitch": 36,
                "velocity": 80,
                "duration": 0.4090909090909065,
                "tempo": 120.0
            },
            {
                "start_time": 67.80681818181817,
                "end_time": 68.21363636363635,
                "pitch": 31,
                "velocity": 80,
                "duration": 0.4068181818181813,
                "tempo": 120.0
            },
            {
                "start_time": 68.26590909090909,
                "end_time": 68.55681818181817,
                "pitch": 36,
                "velocity": 80,
                "duration": 0.2909090909090821,
                "tempo": 120.0
            },
            {
                "start_time": 68.61363636363636,
                "end_time": 68.70454545454545,
                "pitch": 36,
                "velocity": 80,
                "duration": 0.09090909090909349,
                "tempo": 120.0
            },
            {
                "start_time": 68.72954545454544,
                "end_time": 68.92727272727272,
                "pitch": 31,
                "velocity": 80,
                "duration": 0.19772727272727764,
                "tempo": 120.0
            },
            {
                "start_time": 68.97272727272727,
                "end_time": 69.16818181818182,
                "pitch": 36,
                "velocity": 80,
                "duration": 0.19545454545455243,
                "tempo": 120.0
            },
            {
                "start_time": 69.2159090909091,
                "end_time": 69.62272727272727,
                "pitch": 29,
                "velocity": 80,
                "duration": 0.4068181818181813,
                "tempo": 120.0
            },
            {
                "start_time": 69.675,
                "end_time": 70.08181818181818,
                "pitch": 36,
                "velocity": 80,
                "duration": 0.4068181818181813,
                "tempo": 120.0
            },
            {
                "start_time": 70.1340909090909,
                "end_time": 70.425,
                "pitch": 29,
                "velocity": 80,
                "duration": 0.29090909090909634,
                "tempo": 120.0
            },
            {
                "start_time": 70.48181818181818,
                "end_time": 70.57272727272726,
                "pitch": 29,
                "velocity": 80,
                "duration": 0.09090909090907928,
                "tempo": 120.0
            },
            {
                "start_time": 70.6,
                "end_time": 70.79318181818182,
                "pitch": 36,
                "velocity": 80,
                "duration": 0.19318181818182723,
                "tempo": 120.0
            },
            {
                "start_time": 70.8409090909091,
                "end_time": 71.03181818181818,
                "pitch": 29,
                "velocity": 80,
                "duration": 0.1909090909090878,
                "tempo": 120.0
            },
            {
                "start_time": 71.07954545454545,
                "end_time": 71.48636363636363,
                "pitch": 34,
                "velocity": 80,
                "duration": 0.4068181818181813,
                "tempo": 120.0
            },
            {
                "start_time": 71.54318181818182,
                "end_time": 71.94545454545454,
                "pitch": 29,
                "velocity": 80,
                "duration": 0.4022727272727167,
                "tempo": 120.0
            },
            {
                "start_time": 71.99772727272727,
                "end_time": 72.29090909090908,
                "pitch": 29,
                "velocity": 80,
                "duration": 0.29318181818180733,
                "tempo": 120.0
            },
            {
                "start_time": 72.34545454545454,
                "end_time": 72.43863636363636,
                "pitch": 29,
                "velocity": 80,
                "duration": 0.0931818181818187,
                "tempo": 120.0
            },
            {
                "start_time": 72.46363636363635,
                "end_time": 72.6590909090909,
                "pitch": 29,
                "velocity": 80,
                "duration": 0.19545454545455243,
                "tempo": 120.0
            },
            {
                "start_time": 72.70681818181818,
                "end_time": 72.89999999999999,
                "pitch": 34,
                "velocity": 80,
                "duration": 0.19318181818181301,
                "tempo": 120.0
            },
            {
                "start_time": 72.94772727272726,
                "end_time": 73.23636363636363,
                "pitch": 39,
                "velocity": 80,
                "duration": 0.28863636363637113,
                "tempo": 120.0
            },
            {
                "start_time": 73.29772727272727,
                "end_time": 73.58181818181818,
                "pitch": 39,
                "velocity": 80,
                "duration": 0.2840909090909065,
                "tempo": 120.0
            },
            {
                "start_time": 73.6340909090909,
                "end_time": 73.82045454545454,
                "pitch": 39,
                "velocity": 80,
                "duration": 0.1863636363636374,
                "tempo": 120.0
            },
            {
                "start_time": 73.86136363636363,
                "end_time": 74.16136363636363,
                "pitch": 39,
                "velocity": 80,
                "duration": 0.29999999999999716,
                "tempo": 120.0
            },
            {
                "start_time": 74.22272727272727,
                "end_time": 74.51363636363637,
                "pitch": 39,
                "velocity": 80,
                "duration": 0.29090909090909634,
                "tempo": 120.0
            },
            {
                "start_time": 74.57272727272726,
                "end_time": 74.7590909090909,
                "pitch": 39,
                "velocity": 80,
                "duration": 0.1863636363636374,
                "tempo": 120.0
            },
            {
                "start_time": 74.80454545454545,
                "end_time": 75.06590909090909,
                "pitch": 31,
                "velocity": 80,
                "duration": 0.26136363636364024,
                "tempo": 120.0
            },
            {
                "start_time": 75.11136363636363,
                "end_time": 75.37045454545454,
                "pitch": 31,
                "velocity": 80,
                "duration": 0.2590909090909008,
                "tempo": 120.0
            },
            {
                "start_time": 75.41363636363636,
                "end_time": 75.7,
                "pitch": 31,
                "velocity": 80,
                "duration": 0.2863636363636459,
                "tempo": 120.0
            },
            {
                "start_time": 75.74318181818181,
                "end_time": 76.55,
                "pitch": 31,
                "velocity": 80,
                "duration": 0.806818181818187,
                "tempo": 120.0
            },
            {
                "start_time": 76.66590909090908,
                "end_time": 77.01363636363637,
                "pitch": 33,
                "velocity": 80,
                "duration": 0.3477272727272833,
                "tempo": 120.0
            },
            {
                "start_time": 55.913636363636364,
                "end_time": 77.01363636363637,
                "pitch": 40,
                "velocity": 80,
                "duration": 21.1,
                "tempo": 120.0
            },
            {
                "start_time": 77.01363636363637,
                "end_time": 77.36363636363636,
                "pitch": 40,
                "velocity": 80,
                "duration": 0.3499999999999943,
                "tempo": 120.0
            },
            {
                "start_time": 77.01590909090909,
                "end_time": 77.36363636363636,
                "pitch": 40,
                "velocity": 80,
                "duration": 0.3477272727272691,
                "tempo": 120.0
            },
            {
                "start_time": 77.36363636363636,
                "end_time": 77.94545454545454,
                "pitch": 45,
                "velocity": 80,
                "duration": 0.5818181818181785,
                "tempo": 120.0
            },
            {
                "start_time": 39.12045454545454,
                "end_time": 77.94772727272726,
                "pitch": 52,
                "velocity": 80,
                "duration": 38.82727272727272,
                "tempo": 120.0
            },
            {
                "start_time": 77.94545454545454,
                "end_time": 77.94772727272726,
                "pitch": 52,
                "velocity": 80,
                "duration": 0.0022727272727252057,
                "tempo": 120.0
            },
            {
                "start_time": 77.36363636363636,
                "end_time": 78.06136363636364,
                "pitch": 33,
                "velocity": 80,
                "duration": 0.6977272727272776,
                "tempo": 120.0
            },
            {
                "start_time": 77.94772727272726,
                "end_time": 78.06136363636364,
                "pitch": 40,
                "velocity": 80,
                "duration": 0.11363636363637397,
                "tempo": 120.0
            },
            {
                "start_time": 78.06136363636364,
                "end_time": 78.3,
                "pitch": 45,
                "velocity": 80,
                "duration": 0.23863636363635976,
                "tempo": 120.0
            },
            {
                "start_time": 78.3,
                "end_time": 78.53181818181818,
                "pitch": 40,
                "velocity": 80,
                "duration": 0.23181818181818414,
                "tempo": 120.0
            },
            {
                "start_time": 78.53181818181818,
                "end_time": 78.88636363636363,
                "pitch": 31,
                "velocity": 80,
                "duration": 0.3545454545454447,
                "tempo": 120.0
            },
            {
                "start_time": 78.53181818181818,
                "end_time": 78.88636363636363,
                "pitch": 31,
                "velocity": 80,
                "duration": 0.3545454545454447,
                "tempo": 120.0
            },
            {
                "start_time": 78.88636363636363,
                "end_time": 79.23636363636363,
                "pitch": 38,
                "velocity": 80,
                "duration": 0.3500000000000085,
                "tempo": 120.0
            },
            {
                "start_time": 78.88636363636363,
                "end_time": 79.23636363636363,
                "pitch": 38,
                "velocity": 80,
                "duration": 0.3500000000000085,
                "tempo": 120.0
            },
            {
                "start_time": 79.23863636363636,
                "end_time": 79.81590909090909,
                "pitch": 43,
                "velocity": 80,
                "duration": 0.577272727272728,
                "tempo": 120.0
            },
            {
                "start_time": 44.715909090909086,
                "end_time": 79.81818181818181,
                "pitch": 50,
                "velocity": 80,
                "duration": 35.10227272727273,
                "tempo": 120.0
            },
            {
                "start_time": 79.81590909090909,
                "end_time": 79.81818181818181,
                "pitch": 50,
                "velocity": 80,
                "duration": 0.0022727272727252057,
                "tempo": 120.0
            },
            {
                "start_time": 79.23636363636363,
                "end_time": 79.92954545454545,
                "pitch": 31,
                "velocity": 80,
                "duration": 0.693181818181813,
                "tempo": 120.0
            },
            {
                "start_time": 79.81818181818181,
                "end_time": 79.92954545454545,
                "pitch": 38,
                "velocity": 80,
                "duration": 0.11136363636363455,
                "tempo": 120.0
            },
            {
                "start_time": 79.92954545454545,
                "end_time": 80.16818181818181,
                "pitch": 43,
                "velocity": 80,
                "duration": 0.23863636363635976,
                "tempo": 120.0
            },
            {
                "start_time": 78.06136363636364,
                "end_time": 80.39999999999999,
                "pitch": 33,
                "velocity": 80,
                "duration": 2.338636363636354,
                "tempo": 120.0
            },
            {
                "start_time": 80.16818181818181,
                "end_time": 80.39999999999999,
                "pitch": 38,
                "velocity": 80,
                "duration": 0.23181818181818414,
                "tempo": 120.0
            },
            {
                "start_time": 80.39999999999999,
                "end_time": 80.75,
                "pitch": 33,
                "velocity": 80,
                "duration": 0.3500000000000085,
                "tempo": 120.0
            },
            {
                "start_time": 80.40227272727272,
                "end_time": 80.75,
                "pitch": 33,
                "velocity": 80,
                "duration": 0.3477272727272833,
                "tempo": 120.0
            },
            {
                "start_time": 80.75,
                "end_time": 81.1,
                "pitch": 40,
                "velocity": 80,
                "duration": 0.3499999999999943,
                "tempo": 120.0
            },
            {
                "start_time": 80.75,
                "end_time": 81.1,
                "pitch": 40,
                "velocity": 80,
                "duration": 0.3499999999999943,
                "tempo": 120.0
            },
            {
                "start_time": 81.1,
                "end_time": 81.68181818181817,
                "pitch": 45,
                "velocity": 80,
                "duration": 0.5818181818181785,
                "tempo": 120.0
            },
            {
                "start_time": 78.3,
                "end_time": 81.68181818181817,
                "pitch": 52,
                "velocity": 80,
                "duration": 3.3818181818181756,
                "tempo": 120.0
            },
            {
                "start_time": 81.1,
                "end_time": 81.79545454545455,
                "pitch": 33,
                "velocity": 80,
                "duration": 0.6954545454545524,
                "tempo": 120.0
            },
            {
                "start_time": 81.68409090909091,
                "end_time": 81.79545454545455,
                "pitch": 40,
                "velocity": 80,
                "duration": 0.11136363636363455,
                "tempo": 120.0
            },
            {
                "start_time": 81.79772727272727,
                "end_time": 82.0340909090909,
                "pitch": 45,
                "velocity": 80,
                "duration": 0.23636363636363455,
                "tempo": 120.0
            },
            {
                "start_time": 81.68181818181817,
                "end_time": 82.0340909090909,
                "pitch": 52,
                "velocity": 80,
                "duration": 0.35227272727273373,
                "tempo": 120.0
            },
            {
                "start_time": 79.92954545454545,
                "end_time": 82.27045454545454,
                "pitch": 31,
                "velocity": 80,
                "duration": 2.3409090909090935,
                "tempo": 120.0
            },
            {
                "start_time": 82.03636363636363,
                "end_time": 82.27045454545454,
                "pitch": 40,
                "velocity": 80,
                "duration": 0.23409090909090935,
                "tempo": 120.0
            },
            {
                "start_time": 82.27045454545454,
                "end_time": 82.62045454545454,
                "pitch": 31,
                "velocity": 80,
                "duration": 0.3499999999999943,
                "tempo": 120.0
            },
            {
                "start_time": 82.27272727272727,
                "end_time": 82.62045454545454,
                "pitch": 31,
                "velocity": 80,
                "duration": 0.3477272727272691,
                "tempo": 120.0
            },
            {
                "start_time": 82.62045454545454,
                "end_time": 82.9659090909091,
                "pitch": 38,
                "velocity": 80,
                "duration": 0.3454545454545581,
                "tempo": 120.0
            },
            {
                "start_time": 82.62272727272727,
                "end_time": 82.9659090909091,
                "pitch": 38,
                "velocity": 80,
                "duration": 0.3431818181818187,
                "tempo": 120.0
            },
            {
                "start_time": 82.9659090909091,
                "end_time": 82.96818181818182,
                "pitch": 31,
                "velocity": 80,
                "duration": 0.0022727272727252057,
                "tempo": 120.0
            },
            {
                "start_time": 82.96818181818182,
                "end_time": 83.55681818181817,
                "pitch": 43,
                "velocity": 80,
                "duration": 0.5886363636363541,
                "tempo": 120.0
            },
            {
                "start_time": 80.16818181818181,
                "end_time": 83.5590909090909,
                "pitch": 50,
                "velocity": 80,
                "duration": 3.3909090909090907,
                "tempo": 120.0
            },
            {
                "start_time": 83.55681818181817,
                "end_time": 83.5590909090909,
                "pitch": 50,
                "velocity": 80,
                "duration": 0.0022727272727252057,
                "tempo": 120.0
            },
            {
                "start_time": 83.5590909090909,
                "end_time": 83.675,
                "pitch": 38,
                "velocity": 80,
                "duration": 0.11590909090909918,
                "tempo": 120.0
            },
            {
                "start_time": 83.675,
                "end_time": 83.9090909090909,
                "pitch": 43,
                "velocity": 80,
                "duration": 0.23409090909090935,
                "tempo": 120.0
            },
            {
                "start_time": 81.79545454545455,
                "end_time": 84.13636363636363,
                "pitch": 33,
                "velocity": 80,
                "duration": 2.3409090909090793,
                "tempo": 120.0
            },
            {
                "start_time": 83.9090909090909,
                "end_time": 84.13636363636363,
                "pitch": 38,
                "velocity": 80,
                "duration": 0.22727272727271952,
                "tempo": 120.0
            },
            {
                "start_time": 84.13636363636363,
                "end_time": 84.48636363636363,
                "pitch": 33,
                "velocity": 80,
                "duration": 0.3500000000000085,
                "tempo": 120.0
            },
            {
                "start_time": 84.13636363636363,
                "end_time": 84.48636363636363,
                "pitch": 33,
                "velocity": 80,
                "duration": 0.3500000000000085,
                "tempo": 120.0
            },
            {
                "start_time": 84.48636363636363,
                "end_time": 84.8340909090909,
                "pitch": 40,
                "velocity": 80,
                "duration": 0.3477272727272691,
                "tempo": 120.0
            },
            {
                "start_time": 84.48636363636363,
                "end_time": 84.8340909090909,
                "pitch": 40,
                "velocity": 80,
                "duration": 0.3477272727272691,
                "tempo": 120.0
            },
            {
                "start_time": 84.83636363636363,
                "end_time": 85.41818181818181,
                "pitch": 45,
                "velocity": 80,
                "duration": 0.5818181818181785,
                "tempo": 120.0
            },
            {
                "start_time": 82.0340909090909,
                "end_time": 85.41818181818181,
                "pitch": 52,
                "velocity": 80,
                "duration": 3.384090909090901,
                "tempo": 120.0
            },
            {
                "start_time": 84.8340909090909,
                "end_time": 85.53181818181818,
                "pitch": 33,
                "velocity": 80,
                "duration": 0.6977272727272776,
                "tempo": 120.0
            },
            {
                "start_time": 85.41818181818181,
                "end_time": 85.53181818181818,
                "pitch": 40,
                "velocity": 80,
                "duration": 0.11363636363637397,
                "tempo": 120.0
            },
            {
                "start_time": 85.53181818181818,
                "end_time": 85.77045454545454,
                "pitch": 45,
                "velocity": 80,
                "duration": 0.23863636363635976,
                "tempo": 120.0
            },
            {
                "start_time": 85.41818181818181,
                "end_time": 85.77045454545454,
                "pitch": 52,
                "velocity": 80,
                "duration": 0.35227272727273373,
                "tempo": 120.0
            },
            {
                "start_time": 83.675,
                "end_time": 86.00227272727273,
                "pitch": 31,
                "velocity": 80,
                "duration": 2.327272727272728,
                "tempo": 120.0
            },
            {
                "start_time": 85.77045454545454,
                "end_time": 86.00227272727273,
                "pitch": 40,
                "velocity": 80,
                "duration": 0.23181818181818414,
                "tempo": 120.0
            },
            {
                "start_time": 86.00227272727273,
                "end_time": 86.34772727272727,
                "pitch": 31,
                "velocity": 80,
                "duration": 0.3454545454545439,
                "tempo": 120.0
            },
            {
                "start_time": 86.00454545454545,
                "end_time": 86.34772727272727,
                "pitch": 31,
                "velocity": 80,
                "duration": 0.3431818181818187,
                "tempo": 120.0
            },
            {
                "start_time": 86.34772727272727,
                "end_time": 86.69772727272726,
                "pitch": 38,
                "velocity": 80,
                "duration": 0.3499999999999943,
                "tempo": 120.0
            },
            {
                "start_time": 86.35,
                "end_time": 86.69772727272726,
                "pitch": 38,
                "velocity": 80,
                "duration": 0.3477272727272691,
                "tempo": 120.0
            },
            {
                "start_time": 86.69772727272726,
                "end_time": 87.28636363636363,
                "pitch": 43,
                "velocity": 80,
                "duration": 0.5886363636363683,
                "tempo": 120.0
            },
            {
                "start_time": 83.9090909090909,
                "end_time": 87.28636363636363,
                "pitch": 50,
                "velocity": 80,
                "duration": 3.377272727272725,
                "tempo": 120.0
            },
            {
                "start_time": 86.69772727272726,
                "end_time": 87.39999999999999,
                "pitch": 31,
                "velocity": 80,
                "duration": 0.702272727272728,
                "tempo": 120.0
            },
            {
                "start_time": 87.28636363636363,
                "end_time": 87.39999999999999,
                "pitch": 38,
                "velocity": 80,
                "duration": 0.11363636363635976,
                "tempo": 120.0
            },
            {
                "start_time": 87.39999999999999,
                "end_time": 87.63863636363637,
                "pitch": 43,
                "velocity": 80,
                "duration": 0.23863636363637397,
                "tempo": 120.0
            },
            {
                "start_time": 87.28636363636363,
                "end_time": 87.63863636363637,
                "pitch": 50,
                "velocity": 80,
                "duration": 0.35227272727273373,
                "tempo": 120.0
            },
            {
                "start_time": 85.53181818181818,
                "end_time": 87.87045454545454,
                "pitch": 33,
                "velocity": 80,
                "duration": 2.338636363636354,
                "tempo": 120.0
            },
            {
                "start_time": 87.63863636363637,
                "end_time": 87.87045454545454,
                "pitch": 38,
                "velocity": 80,
                "duration": 0.23181818181816993,
                "tempo": 120.0
            },
            {
                "start_time": 87.87045454545454,
                "end_time": 88.21363636363635,
                "pitch": 33,
                "velocity": 80,
                "duration": 0.3431818181818187,
                "tempo": 120.0
            },
            {
                "start_time": 87.87272727272727,
                "end_time": 88.21363636363635,
                "pitch": 33,
                "velocity": 80,
                "duration": 0.3409090909090793,
                "tempo": 120.0
            },
            {
                "start_time": 88.21363636363635,
                "end_time": 88.56363636363636,
                "pitch": 40,
                "velocity": 80,
                "duration": 0.3500000000000085,
                "tempo": 120.0
            },
            {
                "start_time": 88.21363636363635,
                "end_time": 88.56363636363636,
                "pitch": 40,
                "velocity": 80,
                "duration": 0.3500000000000085,
                "tempo": 120.0
            },
            {
                "start_time": 88.56363636363636,
                "end_time": 88.56590909090909,
                "pitch": 33,
                "velocity": 80,
                "duration": 0.0022727272727252057,
                "tempo": 120.0
            },
            {
                "start_time": 88.56590909090909,
                "end_time": 89.15227272727272,
                "pitch": 45,
                "velocity": 80,
                "duration": 0.5863636363636289,
                "tempo": 120.0
            },
            {
                "start_time": 85.77045454545454,
                "end_time": 89.15227272727272,
                "pitch": 52,
                "velocity": 80,
                "duration": 3.3818181818181756,
                "tempo": 120.0
            },
            {
                "start_time": 89.15454545454546,
                "end_time": 89.26818181818182,
                "pitch": 40,
                "velocity": 80,
                "duration": 0.11363636363635976,
                "tempo": 120.0
            },
            {
                "start_time": 89.26818181818182,
                "end_time": 89.50681818181818,
                "pitch": 45,
                "velocity": 80,
                "duration": 0.23863636363635976,
                "tempo": 120.0
            }
        ]
    }
}