{
    "track_id": "04 Title-Ending",
    "mood": "happy",
    "instruments": {
        "Electric Piano 1": [
            {
                "start_time": 6.824999999999999,
                "end_time": 6.875,
                "pitch": 72,
                "velocity": 80,
                "duration": 0.05000000000000071,
                "tempo": 120.0
            },
            {
                "start_time": 7.027272727272727,
                "end_time": 7.093181818181818,
                "pitch": 72,
                "velocity": 80,
                "duration": 0.06590909090909047,
                "tempo": 120.0
            },
            {
                "start_time": 7.127272727272727,
                "end_time": 7.1931818181818175,
                "pitch": 72,
                "velocity": 80,
                "duration": 0.06590909090909047,
                "tempo": 120.0
            },
            {
                "start_time": 7.329545454545454,
                "end_time": 8.23409090909091,
                "pitch": 72,
                "velocity": 80,
                "duration": 0.9045454545454552,
                "tempo": 120.0
            },
            {
                "start_time": 8.434090909090909,
                "end_time": 8.48181818181818,
                "pitch": 72,
                "velocity": 80,
                "duration": 0.04772727272727195,
                "tempo": 120.0
            },
            {
                "start_time": 8.634090909090908,
                "end_time": 8.7,
                "pitch": 72,
                "velocity": 80,
                "duration": 0.06590909090909136,
                "tempo": 120.0
            },
            {
                "start_time": 8.73409090909091,
                "end_time": 8.799999999999999,
                "pitch": 72,
                "velocity": 80,
                "duration": 0.06590909090908958,
                "tempo": 120.0
            },
            {
                "start_time": 8.936363636363636,
                "end_time": 9.002272727272727,
                "pitch": 72,
                "velocity": 80,
                "duration": 0.06590909090909136,
                "tempo": 120.0
            },
            {
                "start_time": 10.045454545454545,
                "end_time": 10.097727272727273,
                "pitch": 72,
                "velocity": 80,
                "duration": 0.05227272727272769,
                "tempo": 120.0
            },
            {
                "start_time": 10.252272727272727,
                "end_time": 10.318181818181818,
                "pitch": 72,
                "velocity": 80,
                "duration": 0.06590909090909136,
                "tempo": 120.0
            },
            {
                "start_time": 10.352272727272727,
                "end_time": 10.418181818181818,
                "pitch": 72,
                "velocity": 80,
                "duration": 0.06590909090909136,
                "tempo": 120.0
            },
            {
                "start_time": 10.554545454545455,
                "end_time": 11.459090909090909,
                "pitch": 72,
                "velocity": 80,
                "duration": 0.9045454545454543,
                "tempo": 120.0
            },
            {
                "start_time": 13.270454545454545,
                "end_time": 13.320454545454545,
                "pitch": 70,
                "velocity": 80,
                "duration": 0.05000000000000071,
                "tempo": 120.0
            },
            {
                "start_time": 13.472727272727273,
                "end_time": 13.538636363636362,
                "pitch": 70,
                "velocity": 80,
                "duration": 0.06590909090908958,
                "tempo": 120.0
            },
            {
                "start_time": 13.572727272727272,
                "end_time": 13.638636363636364,
                "pitch": 70,
                "velocity": 80,
                "duration": 0.06590909090909136,
                "tempo": 120.0
            },
            {
                "start_time": 13.774999999999999,
                "end_time": 14.681818181818182,
                "pitch": 70,
                "velocity": 80,
                "duration": 0.9068181818181831,
                "tempo": 120.0
            },
            {
                "start_time": 14.881818181818181,
                "end_time": 14.931818181818182,
                "pitch": 70,
                "velocity": 80,
                "duration": 0.05000000000000071,
                "tempo": 120.0
            },
            {
                "start_time": 15.08181818181818,
                "end_time": 15.149999999999999,
                "pitch": 70,
                "velocity": 80,
                "duration": 0.06818181818181834,
                "tempo": 120.0
            },
            {
                "start_time": 15.184090909090909,
                "end_time": 15.25,
                "pitch": 70,
                "velocity": 80,
                "duration": 0.06590909090909136,
                "tempo": 120.0
            },
            {
                "start_time": 15.384090909090908,
                "end_time": 15.452272727272726,
                "pitch": 70,
                "velocity": 80,
                "duration": 0.06818181818181834,
                "tempo": 120.0
            },
            {
                "start_time": 16.293181818181818,
                "end_time": 16.547727272727272,
                "pitch": 70,
                "velocity": 80,
                "duration": 0.25454545454545396,
                "tempo": 120.0
            },
            {
                "start_time": 16.704545454545453,
                "end_time": 16.752272727272725,
                "pitch": 70,
                "velocity": 80,
                "duration": 0.04772727272727195,
                "tempo": 120.0
            },
            {
                "start_time": 16.9,
                "end_time": 17.302272727272726,
                "pitch": 72,
                "velocity": 80,
                "duration": 0.40227272727272734,
                "tempo": 120.0
            },
            {
                "start_time": 17.302272727272726,
                "end_time": 17.506818181818183,
                "pitch": 72,
                "velocity": 80,
                "duration": 0.2045454545454568,
                "tempo": 120.0
            },
            {
                "start_time": 17.506818181818183,
                "end_time": 17.55681818181818,
                "pitch": 65,
                "velocity": 80,
                "duration": 0.04999999999999716,
                "tempo": 120.0
            },
            {
                "start_time": 17.55681818181818,
                "end_time": 17.65681818181818,
                "pitch": 67,
                "velocity": 80,
                "duration": 0.10000000000000142,
                "tempo": 120.0
            },
            {
                "start_time": 17.65681818181818,
                "end_time": 17.709090909090907,
                "pitch": 70,
                "velocity": 80,
                "duration": 0.052272727272725916,
                "tempo": 120.0
            },
            {
                "start_time": 17.709090909090907,
                "end_time": 17.80909090909091,
                "pitch": 72,
                "velocity": 80,
                "duration": 0.10000000000000142,
                "tempo": 120.0
            },
            {
                "start_time": 17.709090909090907,
                "end_time": 17.911363636363635,
                "pitch": 76,
                "velocity": 80,
                "duration": 0.20227272727272805,
                "tempo": 120.0
            },
            {
                "start_time": 17.80909090909091,
                "end_time": 17.911363636363635,
                "pitch": 76,
                "velocity": 80,
                "duration": 0.10227272727272663,
                "tempo": 120.0
            },
            {
                "start_time": 17.911363636363635,
                "end_time": 18.311363636363634,
                "pitch": 78,
                "velocity": 80,
                "duration": 0.3999999999999986,
                "tempo": 120.0
            },
            {
                "start_time": 18.311363636363634,
                "end_time": 18.35909090909091,
                "pitch": 79,
                "velocity": 80,
                "duration": 0.047727272727275505,
                "tempo": 120.0
            },
            {
                "start_time": 19.71590909090909,
                "end_time": 19.76590909090909,
                "pitch": 72,
                "velocity": 80,
                "duration": 0.05000000000000071,
                "tempo": 120.0
            },
            {
                "start_time": 19.918181818181818,
                "end_time": 19.98409090909091,
                "pitch": 72,
                "velocity": 80,
                "duration": 0.06590909090909136,
                "tempo": 120.0
            },
            {
                "start_time": 20.018181818181816,
                "end_time": 20.084090909090907,
                "pitch": 72,
                "velocity": 80,
                "duration": 0.06590909090909136,
                "tempo": 120.0
            },
            {
                "start_time": 20.21818181818182,
                "end_time": 21.12272727272727,
                "pitch": 72,
                "velocity": 80,
                "duration": 0.9045454545454525,
                "tempo": 120.0
            },
            {
                "start_time": 21.32272727272727,
                "end_time": 21.37272727272727,
                "pitch": 72,
                "velocity": 80,
                "duration": 0.05000000000000071,
                "tempo": 120.0
            },
            {
                "start_time": 21.522727272727273,
                "end_time": 21.58863636363636,
                "pitch": 72,
                "velocity": 80,
                "duration": 0.06590909090908781,
                "tempo": 120.0
            },
            {
                "start_time": 21.625,
                "end_time": 21.69090909090909,
                "pitch": 72,
                "velocity": 80,
                "duration": 0.06590909090909136,
                "tempo": 120.0
            },
            {
                "start_time": 21.825,
                "end_time": 21.89090909090909,
                "pitch": 72,
                "velocity": 80,
                "duration": 0.06590909090909136,
                "tempo": 120.0
            },
            {
                "start_time": 22.929545454545455,
                "end_time": 22.979545454545452,
                "pitch": 72,
                "velocity": 80,
                "duration": 0.04999999999999716,
                "tempo": 120.0
            },
            {
                "start_time": 23.13181818181818,
                "end_time": 23.195454545454545,
                "pitch": 72,
                "velocity": 80,
                "duration": 0.06363636363636616,
                "tempo": 120.0
            },
            {
                "start_time": 23.229545454545452,
                "end_time": 23.297727272727272,
                "pitch": 72,
                "velocity": 80,
                "duration": 0.06818181818182012,
                "tempo": 120.0
            },
            {
                "start_time": 23.43181818181818,
                "end_time": 24.334090909090907,
                "pitch": 72,
                "velocity": 80,
                "duration": 0.9022727272727273,
                "tempo": 120.0
            },
            {
                "start_time": 26.14772727272727,
                "end_time": 26.19772727272727,
                "pitch": 70,
                "velocity": 80,
                "duration": 0.05000000000000071,
                "tempo": 120.0
            },
            {
                "start_time": 26.354545454545452,
                "end_time": 26.420454545454543,
                "pitch": 70,
                "velocity": 80,
                "duration": 0.06590909090909136,
                "tempo": 120.0
            },
            {
                "start_time": 26.454545454545453,
                "end_time": 26.520454545454545,
                "pitch": 70,
                "velocity": 80,
                "duration": 0.06590909090909136,
                "tempo": 120.0
            },
            {
                "start_time": 26.65681818181818,
                "end_time": 27.561363636363634,
                "pitch": 70,
                "velocity": 80,
                "duration": 0.9045454545454525,
                "tempo": 120.0
            },
            {
                "start_time": 27.761363636363637,
                "end_time": 27.811363636363634,
                "pitch": 70,
                "velocity": 80,
                "duration": 0.04999999999999716,
                "tempo": 120.0
            },
            {
                "start_time": 27.961363636363636,
                "end_time": 28.027272727272727,
                "pitch": 70,
                "velocity": 80,
                "duration": 0.06590909090909136,
                "tempo": 120.0
            },
            {
                "start_time": 28.061363636363634,
                "end_time": 28.127272727272725,
                "pitch": 70,
                "velocity": 80,
                "duration": 0.06590909090909136,
                "tempo": 120.0
            },
            {
                "start_time": 28.261363636363637,
                "end_time": 28.327272727272724,
                "pitch": 70,
                "velocity": 80,
                "duration": 0.06590909090908781,
                "tempo": 120.0
            },
            {
                "start_time": 29.16590909090909,
                "end_time": 29.41590909090909,
                "pitch": 70,
                "velocity": 80,
                "duration": 0.25,
                "tempo": 120.0
            },
            {
                "start_time": 29.568181818181817,
                "end_time": 29.618181818181817,
                "pitch": 70,
                "velocity": 80,
                "duration": 0.05000000000000071,
                "tempo": 120.0
            },
            {
                "start_time": 29.770454545454545,
                "end_time": 30.170454545454543,
                "pitch": 72,
                "velocity": 80,
                "duration": 0.3999999999999986,
                "tempo": 120.0
            },
            {
                "start_time": 30.170454545454543,
                "end_time": 30.370454545454542,
                "pitch": 72,
                "velocity": 80,
                "duration": 0.1999999999999993,
                "tempo": 120.0
            },
            {
                "start_time": 30.370454545454542,
                "end_time": 30.420454545454543,
                "pitch": 65,
                "velocity": 80,
                "duration": 0.05000000000000071,
                "tempo": 120.0
            },
            {
                "start_time": 30.420454545454543,
                "end_time": 30.520454545454545,
                "pitch": 67,
                "velocity": 80,
                "duration": 0.10000000000000142,
                "tempo": 120.0
            },
            {
                "start_time": 30.520454545454545,
                "end_time": 30.570454545454545,
                "pitch": 70,
                "velocity": 80,
                "duration": 0.05000000000000071,
                "tempo": 120.0
            },
            {
                "start_time": 30.570454545454545,
                "end_time": 30.672727272727272,
                "pitch": 72,
                "velocity": 80,
                "duration": 0.10227272727272663,
                "tempo": 120.0
            },
            {
                "start_time": 30.570454545454545,
                "end_time": 30.77272727272727,
                "pitch": 76,
                "velocity": 80,
                "duration": 0.2022727272727245,
                "tempo": 120.0
            },
            {
                "start_time": 30.672727272727272,
                "end_time": 30.77272727272727,
                "pitch": 76,
                "velocity": 80,
                "duration": 0.09999999999999787,
                "tempo": 120.0
            },
            {
                "start_time": 30.77272727272727,
                "end_time": 31.172727272727272,
                "pitch": 78,
                "velocity": 80,
                "duration": 0.40000000000000213,
                "tempo": 120.0
            },
            {
                "start_time": 31.174999999999997,
                "end_time": 31.222727272727273,
                "pitch": 79,
                "velocity": 80,
                "duration": 0.047727272727275505,
                "tempo": 120.0
            },
            {
                "start_time": 32.38181818181818,
                "end_time": 32.78181818181818,
                "pitch": 78,
                "velocity": 80,
                "duration": 0.3999999999999986,
                "tempo": 120.0
            },
            {
                "start_time": 32.78181818181818,
                "end_time": 32.82954545454545,
                "pitch": 79,
                "velocity": 80,
                "duration": 0.04772727272727195,
                "tempo": 120.0
            },
            {
                "start_time": 33.99772727272727,
                "end_time": 34.4,
                "pitch": 78,
                "velocity": 80,
                "duration": 0.4022727272727309,
                "tempo": 120.0
            },
            {
                "start_time": 34.4,
                "end_time": 34.44772727272727,
                "pitch": 79,
                "velocity": 80,
                "duration": 0.04772727272727195,
                "tempo": 120.0
            },
            {
                "start_time": 37.199999999999996,
                "end_time": 37.6,
                "pitch": 78,
                "velocity": 80,
                "duration": 0.4000000000000057,
                "tempo": 120.0
            },
            {
                "start_time": 37.6,
                "end_time": 37.65,
                "pitch": 79,
                "velocity": 80,
                "duration": 0.04999999999999716,
                "tempo": 120.0
            }
        ],
        "Violin": [
            {
                "start_time": 44.85681818181818,
                "end_time": 45.02272727272727,
                "pitch": 91,
                "velocity": 40,
                "duration": 0.16590909090909634,
                "tempo": 120.0
            },
            {
                "start_time": 44.85681818181818,
                "end_time": 45.02272727272727,
                "pitch": 103,
                "velocity": 40,
                "duration": 0.16590909090909634,
                "tempo": 120.0
            },
            {
                "start_time": 45.02272727272727,
                "end_time": 45.19090909090909,
                "pitch": 91,
                "velocity": 40,
                "duration": 0.16818181818181444,
                "tempo": 120.0
            },
            {
                "start_time": 45.02272727272727,
                "end_time": 45.19090909090909,
                "pitch": 103,
                "velocity": 40,
                "duration": 0.16818181818181444,
                "tempo": 120.0
            },
            {
                "start_time": 45.19090909090909,
                "end_time": 45.24545454545454,
                "pitch": 91,
                "velocity": 40,
                "duration": 0.054545454545454675,
                "tempo": 120.0
            }
        ],
        "Flute": [
            {
                "start_time": 3.411363636363636,
                "end_time": 3.811363636363636,
                "pitch": 79,
                "velocity": 80,
                "duration": 0.3999999999999999,
                "tempo": 120.0
            },
            {
                "start_time": 3.811363636363636,
                "end_time": 4.211363636363636,
                "pitch": 78,
                "velocity": 80,
                "duration": 0.3999999999999999,
                "tempo": 120.0
            },
            {
                "start_time": 4.211363636363636,
                "end_time": 4.3113636363636365,
                "pitch": 77,
                "velocity": 80,
                "duration": 0.10000000000000053,
                "tempo": 120.0
            },
            {
                "start_time": 4.3113636363636365,
                "end_time": 4.413636363636363,
                "pitch": 77,
                "velocity": 40,
                "duration": 0.10227272727272663,
                "tempo": 120.0
            },
            {
                "start_time": 4.413636363636363,
                "end_time": 4.513636363636364,
                "pitch": 76,
                "velocity": 80,
                "duration": 0.10000000000000053,
                "tempo": 120.0
            },
            {
                "start_time": 4.513636363636364,
                "end_time": 4.613636363636363,
                "pitch": 76,
                "velocity": 40,
                "duration": 0.09999999999999964,
                "tempo": 120.0
            },
            {
                "start_time": 4.613636363636363,
                "end_time": 4.681818181818182,
                "pitch": 74,
                "velocity": 80,
                "duration": 0.06818181818181834,
                "tempo": 120.0
            },
            {
                "start_time": 4.681818181818182,
                "end_time": 4.747727272727272,
                "pitch": 74,
                "velocity": 40,
                "duration": 0.06590909090909047,
                "tempo": 120.0
            },
            {
                "start_time": 4.747727272727272,
                "end_time": 4.8136363636363635,
                "pitch": 72,
                "velocity": 80,
                "duration": 0.06590909090909136,
                "tempo": 120.0
            },
            {
                "start_time": 4.8136363636363635,
                "end_time": 4.881818181818182,
                "pitch": 72,
                "velocity": 40,
                "duration": 0.06818181818181834,
                "tempo": 120.0
            },
            {
                "start_time": 4.881818181818182,
                "end_time": 4.947727272727272,
                "pitch": 69,
                "velocity": 80,
                "duration": 0.06590909090909047,
                "tempo": 120.0
            },
            {
                "start_time": 4.947727272727272,
                "end_time": 5.015909090909091,
                "pitch": 69,
                "velocity": 40,
                "duration": 0.06818181818181834,
                "tempo": 120.0
            },
            {
                "start_time": 5.015909090909091,
                "end_time": 5.822727272727272,
                "pitch": 67,
                "velocity": 64,
                "duration": 0.8068181818181817,
                "tempo": 120.0
            },
            {
                "start_time": 42.03409090909091,
                "end_time": 42.434090909090905,
                "pitch": 79,
                "velocity": 80,
                "duration": 0.3999999999999986,
                "tempo": 120.0
            },
            {
                "start_time": 42.434090909090905,
                "end_time": 42.834090909090904,
                "pitch": 78,
                "velocity": 80,
                "duration": 0.3999999999999986,
                "tempo": 120.0
            },
            {
                "start_time": 42.834090909090904,
                "end_time": 42.934090909090905,
                "pitch": 77,
                "velocity": 80,
                "duration": 0.10000000000000142,
                "tempo": 120.0
            },
            {
                "start_time": 42.934090909090905,
                "end_time": 43.03409090909091,
                "pitch": 77,
                "velocity": 40,
                "duration": 0.10000000000000142,
                "tempo": 120.0
            },
            {
                "start_time": 43.03636363636363,
                "end_time": 43.13409090909091,
                "pitch": 76,
                "velocity": 80,
                "duration": 0.09772727272727622,
                "tempo": 120.0
            },
            {
                "start_time": 43.13636363636363,
                "end_time": 43.236363636363635,
                "pitch": 76,
                "velocity": 40,
                "duration": 0.10000000000000142,
                "tempo": 120.0
            },
            {
                "start_time": 43.236363636363635,
                "end_time": 43.30227272727272,
                "pitch": 74,
                "velocity": 80,
                "duration": 0.06590909090908781,
                "tempo": 120.0
            },
            {
                "start_time": 43.30227272727272,
                "end_time": 43.36818181818182,
                "pitch": 74,
                "velocity": 40,
                "duration": 0.06590909090909491,
                "tempo": 120.0
            },
            {
                "start_time": 43.36818181818182,
                "end_time": 43.43636363636364,
                "pitch": 72,
                "velocity": 80,
                "duration": 0.06818181818182012,
                "tempo": 120.0
            },
            {
                "start_time": 43.43636363636364,
                "end_time": 43.502272727272725,
                "pitch": 72,
                "velocity": 40,
                "duration": 0.06590909090908781,
                "tempo": 120.0
            },
            {
                "start_time": 43.502272727272725,
                "end_time": 43.56818181818181,
                "pitch": 69,
                "velocity": 80,
                "duration": 0.06590909090908781,
                "tempo": 120.0
            },
            {
                "start_time": 43.56818181818181,
                "end_time": 43.63636363636363,
                "pitch": 69,
                "velocity": 40,
                "duration": 0.06818181818182012,
                "tempo": 120.0
            },
            {
                "start_time": 43.63636363636363,
                "end_time": 44.44090909090909,
                "pitch": 67,
                "velocity": 64,
                "duration": 0.8045454545454547,
                "tempo": 120.0
            }
        ],
        "Trumpet": [
            {
                "start_time": 38.82727272727273,
                "end_time": 42.03636363636363,
                "pitch": 31,
                "velocity": 80,
                "duration": 3.2090909090909037,
                "tempo": 120.0
            },
            {
                "start_time": 42.03636363636363,
                "end_time": 42.43636363636364,
                "pitch": 43,
                "velocity": 80,
                "duration": 0.4000000000000057,
                "tempo": 120.0
            },
            {
                "start_time": 42.43636363636364,
                "end_time": 42.836363636363636,
                "pitch": 42,
                "velocity": 80,
                "duration": 0.3999999999999986,
                "tempo": 120.0
            },
            {
                "start_time": 42.836363636363636,
                "end_time": 42.93636363636364,
                "pitch": 41,
                "velocity": 80,
                "duration": 0.10000000000000142,
                "tempo": 120.0
            },
            {
                "start_time": 42.93636363636364,
                "end_time": 43.03636363636363,
                "pitch": 41,
                "velocity": 40,
                "duration": 0.09999999999999432,
                "tempo": 120.0
            },
            {
                "start_time": 43.03636363636363,
                "end_time": 43.13636363636363,
                "pitch": 40,
                "velocity": 80,
                "duration": 0.10000000000000142,
                "tempo": 120.0
            },
            {
                "start_time": 43.13636363636363,
                "end_time": 43.236363636363635,
                "pitch": 40,
                "velocity": 40,
                "duration": 0.10000000000000142,
                "tempo": 120.0
            },
            {
                "start_time": 43.236363636363635,
                "end_time": 43.30227272727272,
                "pitch": 38,
                "velocity": 80,
                "duration": 0.06590909090908781,
                "tempo": 120.0
            },
            {
                "start_time": 43.304545454545455,
                "end_time": 43.37045454545454,
                "pitch": 38,
                "velocity": 40,
                "duration": 0.06590909090908781,
                "tempo": 120.0
            },
            {
                "start_time": 43.37045454545454,
                "end_time": 43.43636363636364,
                "pitch": 36,
                "velocity": 80,
                "duration": 0.06590909090909491,
                "tempo": 120.0
            },
            {
                "start_time": 43.43636363636364,
                "end_time": 43.50454545454545,
                "pitch": 36,
                "velocity": 40,
                "duration": 0.06818181818181301,
                "tempo": 120.0
            },
            {
                "start_time": 43.50454545454545,
                "end_time": 43.570454545454545,
                "pitch": 33,
                "velocity": 80,
                "duration": 0.06590909090909491,
                "tempo": 120.0
            },
            {
                "start_time": 43.570454545454545,
                "end_time": 43.63863636363636,
                "pitch": 33,
                "velocity": 40,
                "duration": 0.06818181818181301,
                "tempo": 120.0
            },
            {
                "start_time": 43.63863636363636,
                "end_time": 45.24318181818182,
                "pitch": 31,
                "velocity": 64,
                "duration": 1.604545454545459,
                "tempo": 120.0
            }
        ],
        "Acoustic Bass": [
            {
                "start_time": 6.627272727272727,
                "end_time": 6.827272727272727,
                "pitch": 36,
                "velocity": 64,
                "duration": 0.20000000000000018,
                "tempo": 120.0
            },
            {
                "start_time": 6.827272727272727,
                "end_time": 7.027272727272727,
                "pitch": 48,
                "velocity": 64,
                "duration": 0.20000000000000018,
                "tempo": 120.0
            },
            {
                "start_time": 7.027272727272727,
                "end_time": 7.227272727272727,
                "pitch": 36,
                "velocity": 64,
                "duration": 0.1999999999999993,
                "tempo": 120.0
            },
            {
                "start_time": 7.227272727272727,
                "end_time": 7.429545454545454,
                "pitch": 48,
                "velocity": 64,
                "duration": 0.20227272727272716,
                "tempo": 120.0
            },
            {
                "start_time": 7.429545454545454,
                "end_time": 7.629545454545454,
                "pitch": 36,
                "velocity": 64,
                "duration": 0.20000000000000018,
                "tempo": 120.0
            },
            {
                "start_time": 7.631818181818182,
                "end_time": 7.831818181818181,
                "pitch": 48,
                "velocity": 64,
                "duration": 0.1999999999999993,
                "tempo": 120.0
            },
            {
                "start_time": 7.834090909090909,
                "end_time": 8.031818181818181,
                "pitch": 36,
                "velocity": 64,
                "duration": 0.1977272727272723,
                "tempo": 120.0
            },
            {
                "start_time": 8.031818181818181,
                "end_time": 8.23409090909091,
                "pitch": 48,
                "velocity": 64,
                "duration": 0.20227272727272805,
                "tempo": 120.0
            },
            {
                "start_time": 8.23409090909091,
                "end_time": 8.434090909090909,
                "pitch": 36,
                "velocity": 64,
                "duration": 0.1999999999999993,
                "tempo": 120.0
            },
            {
                "start_time": 8.434090909090909,
                "end_time": 8.634090909090908,
                "pitch": 48,
                "velocity": 64,
                "duration": 0.1999999999999993,
                "tempo": 120.0
            },
            {
                "start_time": 8.634090909090908,
                "end_time": 8.836363636363636,
                "pitch": 36,
                "velocity": 64,
                "duration": 0.20227272727272805,
                "tempo": 120.0
            },
            {
                "start_time": 8.836363636363636,
                "end_time": 9.036363636363635,
                "pitch": 48,
                "velocity": 64,
                "duration": 0.1999999999999993,
                "tempo": 120.0
            },
            {
                "start_time": 9.038636363636364,
                "end_time": 9.24090909090909,
                "pitch": 36,
                "velocity": 64,
                "duration": 0.20227272727272627,
                "tempo": 120.0
            },
            {
                "start_time": 9.243181818181817,
                "end_time": 9.447727272727272,
                "pitch": 48,
                "velocity": 64,
                "duration": 0.20454545454545503,
                "tempo": 120.0
            },
            {
                "start_time": 9.447727272727272,
                "end_time": 9.643181818181818,
                "pitch": 36,
                "velocity": 64,
                "duration": 0.19545454545454533,
                "tempo": 120.0
            },
            {
                "start_time": 9.643181818181818,
                "end_time": 9.84090909090909,
                "pitch": 48,
                "velocity": 64,
                "duration": 0.1977272727272723,
                "tempo": 120.0
            },
            {
                "start_time": 9.84090909090909,
                "end_time": 10.045454545454545,
                "pitch": 36,
                "velocity": 64,
                "duration": 0.20454545454545503,
                "tempo": 120.0
            },
            {
                "start_time": 10.047727272727272,
                "end_time": 10.252272727272727,
                "pitch": 48,
                "velocity": 64,
                "duration": 0.20454545454545503,
                "tempo": 120.0
            },
            {
                "start_time": 10.252272727272727,
                "end_time": 10.454545454545453,
                "pitch": 36,
                "velocity": 64,
                "duration": 0.20227272727272627,
                "tempo": 120.0
            },
            {
                "start_time": 10.454545454545453,
                "end_time": 10.654545454545454,
                "pitch": 48,
                "velocity": 64,
                "duration": 0.20000000000000107,
                "tempo": 120.0
            },
            {
                "start_time": 10.656818181818181,
                "end_time": 10.854545454545454,
                "pitch": 36,
                "velocity": 64,
                "duration": 0.1977272727272723,
                "tempo": 120.0
            },
            {
                "start_time": 10.854545454545454,
                "end_time": 11.054545454545455,
                "pitch": 48,
                "velocity": 64,
                "duration": 0.20000000000000107,
                "tempo": 120.0
            },
            {
                "start_time": 11.054545454545455,
                "end_time": 11.256818181818181,
                "pitch": 36,
                "velocity": 64,
                "duration": 0.20227272727272627,
                "tempo": 120.0
            },
            {
                "start_time": 11.256818181818181,
                "end_time": 11.459090909090909,
                "pitch": 48,
                "velocity": 64,
                "duration": 0.20227272727272805,
                "tempo": 120.0
            },
            {
                "start_time": 11.459090909090909,
                "end_time": 11.659090909090908,
                "pitch": 36,
                "velocity": 64,
                "duration": 0.1999999999999993,
                "tempo": 120.0
            },
            {
                "start_time": 11.661363636363635,
                "end_time": 11.863636363636363,
                "pitch": 48,
                "velocity": 64,
                "duration": 0.20227272727272805,
                "tempo": 120.0
            },
            {
                "start_time": 11.863636363636363,
                "end_time": 12.063636363636363,
                "pitch": 36,
                "velocity": 64,
                "duration": 0.1999999999999993,
                "tempo": 120.0
            },
            {
                "start_time": 12.063636363636363,
                "end_time": 12.26590909090909,
                "pitch": 48,
                "velocity": 64,
                "duration": 0.20227272727272805,
                "tempo": 120.0
            },
            {
                "start_time": 12.26590909090909,
                "end_time": 12.46590909090909,
                "pitch": 36,
                "velocity": 64,
                "duration": 0.1999999999999993,
                "tempo": 120.0
            },
            {
                "start_time": 12.46590909090909,
                "end_time": 12.668181818181818,
                "pitch": 48,
                "velocity": 64,
                "duration": 0.20227272727272805,
                "tempo": 120.0
            },
            {
                "start_time": 12.668181818181818,
                "end_time": 12.868181818181817,
                "pitch": 36,
                "velocity": 64,
                "duration": 0.1999999999999993,
                "tempo": 120.0
            },
            {
                "start_time": 12.868181818181817,
                "end_time": 13.070454545454545,
                "pitch": 48,
                "velocity": 64,
                "duration": 0.20227272727272805,
                "tempo": 120.0
            },
            {
                "start_time": 13.070454545454545,
                "end_time": 13.270454545454545,
                "pitch": 34,
                "velocity": 64,
                "duration": 0.1999999999999993,
                "tempo": 120.0
            },
            {
                "start_time": 13.270454545454545,
                "end_time": 13.472727272727273,
                "pitch": 46,
                "velocity": 64,
                "duration": 0.20227272727272805,
                "tempo": 120.0
            },
            {
                "start_time": 13.472727272727273,
                "end_time": 13.672727272727272,
                "pitch": 34,
                "velocity": 64,
                "duration": 0.1999999999999993,
                "tempo": 120.0
            },
            {
                "start_time": 13.674999999999999,
                "end_time": 13.875,
                "pitch": 46,
                "velocity": 64,
                "duration": 0.20000000000000107,
                "tempo": 120.0
            },
            {
                "start_time": 13.875,
                "end_time": 14.077272727272726,
                "pitch": 34,
                "velocity": 64,
                "duration": 0.20227272727272627,
                "tempo": 120.0
            },
            {
                "start_time": 14.077272727272726,
                "end_time": 14.279545454545454,
                "pitch": 46,
                "velocity": 64,
                "duration": 0.20227272727272805,
                "tempo": 120.0
            },
            {
                "start_time": 14.279545454545454,
                "end_time": 14.479545454545454,
                "pitch": 34,
                "velocity": 64,
                "duration": 0.1999999999999993,
                "tempo": 120.0
            },
            {
                "start_time": 14.479545454545454,
                "end_time": 14.681818181818182,
                "pitch": 46,
                "velocity": 64,
                "duration": 0.20227272727272805,
                "tempo": 120.0
            },
            {
                "start_time": 14.681818181818182,
                "end_time": 14.881818181818181,
                "pitch": 34,
                "velocity": 64,
                "duration": 0.1999999999999993,
                "tempo": 120.0
            },
            {
                "start_time": 14.881818181818181,
                "end_time": 15.084090909090909,
                "pitch": 46,
                "velocity": 64,
                "duration": 0.20227272727272805,
                "tempo": 120.0
            },
            {
                "start_time": 15.084090909090909,
                "end_time": 15.284090909090908,
                "pitch": 34,
                "velocity": 64,
                "duration": 0.1999999999999993,
                "tempo": 120.0
            },
            {
                "start_time": 15.284090909090908,
                "end_time": 15.486363636363636,
                "pitch": 46,
                "velocity": 64,
                "duration": 0.20227272727272805,
                "tempo": 120.0
            },
            {
                "start_time": 15.486363636363636,
                "end_time": 15.686363636363636,
                "pitch": 34,
                "velocity": 64,
                "duration": 0.1999999999999993,
                "tempo": 120.0
            },
            {
                "start_time": 15.686363636363636,
                "end_time": 15.888636363636364,
                "pitch": 46,
                "velocity": 64,
                "duration": 0.20227272727272805,
                "tempo": 120.0
            },
            {
                "start_time": 15.888636363636364,
                "end_time": 16.09090909090909,
                "pitch": 34,
                "velocity": 64,
                "duration": 0.20227272727272627,
                "tempo": 120.0
            },
            {
                "start_time": 16.09090909090909,
                "end_time": 16.293181818181818,
                "pitch": 46,
                "velocity": 64,
                "duration": 0.20227272727272805,
                "tempo": 120.0
            },
            {
                "start_time": 16.293181818181818,
                "end_time": 16.704545454545453,
                "pitch": 36,
                "velocity": 64,
                "duration": 0.41136363636363527,
                "tempo": 120.0
            },
            {
                "start_time": 16.704545454545453,
                "end_time": 16.8,
                "pitch": 38,
                "velocity": 64,
                "duration": 0.09545454545454746,
                "tempo": 120.0
            },
            {
                "start_time": 16.9,
                "end_time": 17.302272727272726,
                "pitch": 40,
                "velocity": 64,
                "duration": 0.40227272727272734,
                "tempo": 120.0
            },
            {
                "start_time": 17.302272727272726,
                "end_time": 17.404545454545453,
                "pitch": 40,
                "velocity": 64,
                "duration": 0.10227272727272663,
                "tempo": 120.0
            },
            {
                "start_time": 17.509090909090908,
                "end_time": 17.60681818181818,
                "pitch": 46,
                "velocity": 64,
                "duration": 0.09772727272727266,
                "tempo": 120.0
            },
            {
                "start_time": 17.60681818181818,
                "end_time": 17.709090909090907,
                "pitch": 48,
                "velocity": 64,
                "duration": 0.10227272727272663,
                "tempo": 120.0
            },
            {
                "start_time": 17.709090909090907,
                "end_time": 17.80909090909091,
                "pitch": 41,
                "velocity": 64,
                "duration": 0.10000000000000142,
                "tempo": 120.0
            },
            {
                "start_time": 17.80909090909091,
                "end_time": 17.911363636363635,
                "pitch": 43,
                "velocity": 64,
                "duration": 0.10227272727272663,
                "tempo": 120.0
            },
            {
                "start_time": 17.911363636363635,
                "end_time": 18.10909090909091,
                "pitch": 36,
                "velocity": 64,
                "duration": 0.19772727272727408,
                "tempo": 120.0
            },
            {
                "start_time": 18.311363636363634,
                "end_time": 18.511363636363637,
                "pitch": 31,
                "velocity": 64,
                "duration": 0.20000000000000284,
                "tempo": 120.0
            },
            {
                "start_time": 18.71363636363636,
                "end_time": 18.811363636363634,
                "pitch": 31,
                "velocity": 64,
                "duration": 0.09772727272727266,
                "tempo": 120.0
            },
            {
                "start_time": 18.811363636363634,
                "end_time": 18.913636363636364,
                "pitch": 31,
                "velocity": 64,
                "duration": 0.10227272727273018,
                "tempo": 120.0
            },
            {
                "start_time": 19.013636363636362,
                "end_time": 19.113636363636363,
                "pitch": 31,
                "velocity": 64,
                "duration": 0.10000000000000142,
                "tempo": 120.0
            },
            {
                "start_time": 19.11590909090909,
                "end_time": 19.21363636363636,
                "pitch": 33,
                "velocity": 64,
                "duration": 0.09772727272727266,
                "tempo": 120.0
            },
            {
                "start_time": 19.21590909090909,
                "end_time": 19.313636363636363,
                "pitch": 33,
                "velocity": 64,
                "duration": 0.09772727272727266,
                "tempo": 120.0
            },
            {
                "start_time": 19.41590909090909,
                "end_time": 19.518181818181816,
                "pitch": 35,
                "velocity": 64,
                "duration": 0.10227272727272663,
                "tempo": 120.0
            },
            {
                "start_time": 19.518181818181816,
                "end_time": 19.71818181818182,
                "pitch": 36,
                "velocity": 64,
                "duration": 0.20000000000000284,
                "tempo": 120.0
            },
            {
                "start_time": 19.71818181818182,
                "end_time": 19.918181818181818,
                "pitch": 48,
                "velocity": 64,
                "duration": 0.1999999999999993,
                "tempo": 120.0
            },
            {
                "start_time": 19.920454545454543,
                "end_time": 20.118181818181817,
                "pitch": 36,
                "velocity": 64,
                "duration": 0.19772727272727408,
                "tempo": 120.0
            },
            {
                "start_time": 20.118181818181817,
                "end_time": 20.318181818181817,
                "pitch": 48,
                "velocity": 64,
                "duration": 0.1999999999999993,
                "tempo": 120.0
            },
            {
                "start_time": 20.318181818181817,
                "end_time": 20.518181818181816,
                "pitch": 36,
                "velocity": 64,
                "duration": 0.1999999999999993,
                "tempo": 120.0
            },
            {
                "start_time": 20.518181818181816,
                "end_time": 20.720454545454544,
                "pitch": 48,
                "velocity": 64,
                "duration": 0.20227272727272805,
                "tempo": 120.0
            },
            {
                "start_time": 20.720454545454544,
                "end_time": 20.920454545454543,
                "pitch": 36,
                "velocity": 64,
                "duration": 0.1999999999999993,
                "tempo": 120.0
            },
            {
                "start_time": 20.920454545454543,
                "end_time": 21.12272727272727,
                "pitch": 48,
                "velocity": 64,
                "duration": 0.20227272727272805,
                "tempo": 120.0
            },
            {
                "start_time": 21.12272727272727,
                "end_time": 21.32272727272727,
                "pitch": 36,
                "velocity": 64,
                "duration": 0.1999999999999993,
                "tempo": 120.0
            },
            {
                "start_time": 21.32272727272727,
                "end_time": 21.522727272727273,
                "pitch": 48,
                "velocity": 64,
                "duration": 0.20000000000000284,
                "tempo": 120.0
            },
            {
                "start_time": 21.525,
                "end_time": 21.724999999999998,
                "pitch": 36,
                "velocity": 64,
                "duration": 0.1999999999999993,
                "tempo": 120.0
            },
            {
                "start_time": 21.724999999999998,
                "end_time": 21.927272727272726,
                "pitch": 48,
                "velocity": 64,
                "duration": 0.20227272727272805,
                "tempo": 120.0
            },
            {
                "start_time": 21.927272727272726,
                "end_time": 22.125,
                "pitch": 36,
                "velocity": 64,
                "duration": 0.19772727272727408,
                "tempo": 120.0
            },
            {
                "start_time": 22.127272727272725,
                "end_time": 22.327272727272724,
                "pitch": 48,
                "velocity": 64,
                "duration": 0.1999999999999993,
                "tempo": 120.0
            },
            {
                "start_time": 22.327272727272724,
                "end_time": 22.527272727272727,
                "pitch": 36,
                "velocity": 64,
                "duration": 0.20000000000000284,
                "tempo": 120.0
            },
            {
                "start_time": 22.527272727272727,
                "end_time": 22.727272727272727,
                "pitch": 48,
                "velocity": 64,
                "duration": 0.1999999999999993,
                "tempo": 120.0
            },
            {
                "start_time": 22.727272727272727,
                "end_time": 22.929545454545455,
                "pitch": 36,
                "velocity": 64,
                "duration": 0.20227272727272805,
                "tempo": 120.0
            },
            {
                "start_time": 22.929545454545455,
                "end_time": 23.13181818181818,
                "pitch": 48,
                "velocity": 64,
                "duration": 0.2022727272727245,
                "tempo": 120.0
            },
            {
                "start_time": 23.13181818181818,
                "end_time": 23.331818181818182,
                "pitch": 36,
                "velocity": 64,
                "duration": 0.20000000000000284,
                "tempo": 120.0
            },
            {
                "start_time": 23.331818181818182,
                "end_time": 23.53181818181818,
                "pitch": 48,
                "velocity": 64,
                "duration": 0.1999999999999993,
                "tempo": 120.0
            },
            {
                "start_time": 23.53181818181818,
                "end_time": 23.73181818181818,
                "pitch": 36,
                "velocity": 64,
                "duration": 0.1999999999999993,
                "tempo": 120.0
            },
            {
                "start_time": 23.73181818181818,
                "end_time": 23.93409090909091,
                "pitch": 48,
                "velocity": 64,
                "duration": 0.20227272727272805,
                "tempo": 120.0
            },
            {
                "start_time": 23.93409090909091,
                "end_time": 24.134090909090908,
                "pitch": 36,
                "velocity": 64,
                "duration": 0.1999999999999993,
                "tempo": 120.0
            },
            {
                "start_time": 24.134090909090908,
                "end_time": 24.334090909090907,
                "pitch": 48,
                "velocity": 64,
                "duration": 0.1999999999999993,
                "tempo": 120.0
            },
            {
                "start_time": 24.336363636363636,
                "end_time": 24.534090909090907,
                "pitch": 36,
                "velocity": 64,
                "duration": 0.19772727272727053,
                "tempo": 120.0
            },
            {
                "start_time": 24.534090909090907,
                "end_time": 24.73409090909091,
                "pitch": 48,
                "velocity": 64,
                "duration": 0.20000000000000284,
                "tempo": 120.0
            },
            {
                "start_time": 24.73409090909091,
                "end_time": 24.936363636363634,
                "pitch": 36,
                "velocity": 64,
                "duration": 0.2022727272727245,
                "tempo": 120.0
            },
            {
                "start_time": 24.936363636363634,
                "end_time": 25.138636363636362,
                "pitch": 48,
                "velocity": 64,
                "duration": 0.20227272727272805,
                "tempo": 120.0
            },
            {
                "start_time": 25.138636363636362,
                "end_time": 25.34318181818182,
                "pitch": 36,
                "velocity": 64,
                "duration": 0.2045454545454568,
                "tempo": 120.0
            },
            {
                "start_time": 25.34318181818182,
                "end_time": 25.549999999999997,
                "pitch": 48,
                "velocity": 64,
                "duration": 0.20681818181817846,
                "tempo": 120.0
            },
            {
                "start_time": 25.549999999999997,
                "end_time": 25.745454545454542,
                "pitch": 36,
                "velocity": 64,
                "duration": 0.19545454545454533,
                "tempo": 120.0
            },
            {
                "start_time": 25.745454545454542,
                "end_time": 25.943181818181817,
                "pitch": 48,
                "velocity": 64,
                "duration": 0.19772727272727408,
                "tempo": 120.0
            },
            {
                "start_time": 25.943181818181817,
                "end_time": 26.14772727272727,
                "pitch": 34,
                "velocity": 64,
                "duration": 0.20454545454545325,
                "tempo": 120.0
            },
            {
                "start_time": 26.14772727272727,
                "end_time": 26.354545454545452,
                "pitch": 46,
                "velocity": 64,
                "duration": 0.206818181818182,
                "tempo": 120.0
            },
            {
                "start_time": 26.354545454545452,
                "end_time": 26.554545454545455,
                "pitch": 34,
                "velocity": 64,
                "duration": 0.20000000000000284,
                "tempo": 120.0
            },
            {
                "start_time": 26.554545454545455,
                "end_time": 26.75681818181818,
                "pitch": 46,
                "velocity": 64,
                "duration": 0.2022727272727245,
                "tempo": 120.0
            },
            {
                "start_time": 26.75681818181818,
                "end_time": 26.956818181818182,
                "pitch": 34,
                "velocity": 64,
                "duration": 0.20000000000000284,
                "tempo": 120.0
            },
            {
                "start_time": 26.956818181818182,
                "end_time": 27.15681818181818,
                "pitch": 46,
                "velocity": 64,
                "duration": 0.1999999999999993,
                "tempo": 120.0
            },
            {
                "start_time": 27.15681818181818,
                "end_time": 27.35909090909091,
                "pitch": 34,
                "velocity": 64,
                "duration": 0.20227272727272805,
                "tempo": 120.0
            },
            {
                "start_time": 27.35909090909091,
                "end_time": 27.561363636363634,
                "pitch": 46,
                "velocity": 64,
                "duration": 0.2022727272727245,
                "tempo": 120.0
            },
            {
                "start_time": 27.561363636363634,
                "end_time": 27.761363636363637,
                "pitch": 34,
                "velocity": 64,
                "duration": 0.20000000000000284,
                "tempo": 120.0
            },
            {
                "start_time": 27.761363636363637,
                "end_time": 27.961363636363636,
                "pitch": 46,
                "velocity": 64,
                "duration": 0.1999999999999993,
                "tempo": 120.0
            },
            {
                "start_time": 27.961363636363636,
                "end_time": 28.161363636363635,
                "pitch": 34,
                "velocity": 64,
                "duration": 0.1999999999999993,
                "tempo": 120.0
            },
            {
                "start_time": 28.161363636363635,
                "end_time": 28.361363636363635,
                "pitch": 46,
                "velocity": 64,
                "duration": 0.1999999999999993,
                "tempo": 120.0
            },
            {
                "start_time": 28.361363636363635,
                "end_time": 28.563636363636363,
                "pitch": 34,
                "velocity": 64,
                "duration": 0.20227272727272805,
                "tempo": 120.0
            },
            {
                "start_time": 28.563636363636363,
                "end_time": 28.76590909090909,
                "pitch": 46,
                "velocity": 64,
                "duration": 0.20227272727272805,
                "tempo": 120.0
            },
            {
                "start_time": 28.76590909090909,
                "end_time": 28.96363636363636,
                "pitch": 34,
                "velocity": 64,
                "duration": 0.19772727272727053,
                "tempo": 120.0
            },
            {
                "start_time": 28.96590909090909,
                "end_time": 29.16590909090909,
                "pitch": 46,
                "velocity": 64,
                "duration": 0.1999999999999993,
                "tempo": 120.0
            },
            {
                "start_time": 29.168181818181818,
                "end_time": 29.570454545454545,
                "pitch": 36,
                "velocity": 64,
                "duration": 0.40227272727272734,
                "tempo": 120.0
            },
            {
                "start_time": 29.570454545454545,
                "end_time": 29.668181818181818,
                "pitch": 38,
                "velocity": 64,
                "duration": 0.09772727272727266,
                "tempo": 120.0
            },
            {
                "start_time": 29.770454545454545,
                "end_time": 30.170454545454543,
                "pitch": 40,
                "velocity": 64,
                "duration": 0.3999999999999986,
                "tempo": 120.0
            },
            {
                "start_time": 30.170454545454543,
                "end_time": 30.268181818181816,
                "pitch": 40,
                "velocity": 64,
                "duration": 0.09772727272727266,
                "tempo": 120.0
            },
            {
                "start_time": 30.370454545454542,
                "end_time": 30.470454545454544,
                "pitch": 46,
                "velocity": 64,
                "duration": 0.10000000000000142,
                "tempo": 120.0
            },
            {
                "start_time": 17.60681818181818,
                "end_time": 30.470454545454544,
                "pitch": 52,
                "velocity": 64,
                "duration": 12.863636363636363,
                "tempo": 120.0
            },
            {
                "start_time": 30.470454545454544,
                "end_time": 30.570454545454545,
                "pitch": 48,
                "velocity": 64,
                "duration": 0.10000000000000142,
                "tempo": 120.0
            },
            {
                "start_time": 17.709090909090907,
                "end_time": 30.570454545454545,
                "pitch": 53,
                "velocity": 64,
                "duration": 12.861363636363638,
                "tempo": 120.0
            },
            {
                "start_time": 17.80909090909091,
                "end_time": 30.672727272727272,
                "pitch": 0,
                "velocity": 64,
                "duration": 12.863636363636363,
                "tempo": 120.0
            },
            {
                "start_time": 30.570454545454545,
                "end_time": 30.672727272727272,
                "pitch": 41,
                "velocity": 64,
                "duration": 0.10227272727272663,
                "tempo": 120.0
            },
            {
                "start_time": 30.672727272727272,
                "end_time": 30.775,
                "pitch": 43,
                "velocity": 64,
                "duration": 0.10227272727272663,
                "tempo": 120.0
            },
            {
                "start_time": 30.775,
                "end_time": 30.972727272727273,
                "pitch": 36,
                "velocity": 64,
                "duration": 0.19772727272727408,
                "tempo": 120.0
            },
            {
                "start_time": 31.174999999999997,
                "end_time": 31.375,
                "pitch": 31,
                "velocity": 64,
                "duration": 0.20000000000000284,
                "tempo": 120.0
            },
            {
                "start_time": 31.577272727272724,
                "end_time": 31.679545454545455,
                "pitch": 31,
                "velocity": 64,
                "duration": 0.10227272727273018,
                "tempo": 120.0
            },
            {
                "start_time": 31.679545454545455,
                "end_time": 31.78181818181818,
                "pitch": 31,
                "velocity": 64,
                "duration": 0.10227272727272663,
                "tempo": 120.0
            },
            {
                "start_time": 31.884090909090908,
                "end_time": 31.988636363636363,
                "pitch": 31,
                "velocity": 64,
                "duration": 0.10454545454545539,
                "tempo": 120.0
            },
            {
                "start_time": 31.988636363636363,
                "end_time": 32.086363636363636,
                "pitch": 33,
                "velocity": 64,
                "duration": 0.09772727272727266,
                "tempo": 120.0
            },
            {
                "start_time": 32.086363636363636,
                "end_time": 32.184090909090905,
                "pitch": 33,
                "velocity": 64,
                "duration": 0.09772727272726911,
                "tempo": 120.0
            },
            {
                "start_time": 32.28181818181818,
                "end_time": 32.38181818181818,
                "pitch": 35,
                "velocity": 64,
                "duration": 0.10000000000000142,
                "tempo": 120.0
            },
            {
                "start_time": 32.38409090909091,
                "end_time": 32.57954545454545,
                "pitch": 36,
                "velocity": 64,
                "duration": 0.19545454545454533,
                "tempo": 120.0
            },
            {
                "start_time": 32.78181818181818,
                "end_time": 32.98181818181818,
                "pitch": 31,
                "velocity": 64,
                "duration": 0.19999999999999574,
                "tempo": 120.0
            },
            {
                "start_time": 33.18636363636364,
                "end_time": 33.28636363636363,
                "pitch": 31,
                "velocity": 64,
                "duration": 0.09999999999999432,
                "tempo": 120.0
            },
            {
                "start_time": 33.28636363636363,
                "end_time": 33.388636363636365,
                "pitch": 31,
                "velocity": 64,
                "duration": 0.10227272727273373,
                "tempo": 120.0
            },
            {
                "start_time": 33.49318181818182,
                "end_time": 33.595454545454544,
                "pitch": 31,
                "velocity": 64,
                "duration": 0.10227272727272663,
                "tempo": 120.0
            },
            {
                "start_time": 33.595454545454544,
                "end_time": 33.695454545454545,
                "pitch": 33,
                "velocity": 64,
                "duration": 0.10000000000000142,
                "tempo": 120.0
            },
            {
                "start_time": 33.695454545454545,
                "end_time": 33.79545454545455,
                "pitch": 33,
                "velocity": 64,
                "duration": 0.10000000000000142,
                "tempo": 120.0
            },
            {
                "start_time": 33.89545454545454,
                "end_time": 33.99772727272727,
                "pitch": 35,
                "velocity": 64,
                "duration": 0.10227272727272663,
                "tempo": 120.0
            },
            {
                "start_time": 34.0,
                "end_time": 34.19772727272727,
                "pitch": 36,
                "velocity": 64,
                "duration": 0.19772727272727053,
                "tempo": 120.0
            },
            {
                "start_time": 34.4,
                "end_time": 34.6,
                "pitch": 31,
                "velocity": 64,
                "duration": 0.20000000000000284,
                "tempo": 120.0
            },
            {
                "start_time": 34.80227272727272,
                "end_time": 34.9,
                "pitch": 31,
                "velocity": 64,
                "duration": 0.09772727272727622,
                "tempo": 120.0
            },
            {
                "start_time": 34.9,
                "end_time": 35.0,
                "pitch": 31,
                "velocity": 64,
                "duration": 0.10000000000000142,
                "tempo": 120.0
            },
            {
                "start_time": 35.1,
                "end_time": 35.199999999999996,
                "pitch": 31,
                "velocity": 64,
                "duration": 0.09999999999999432,
                "tempo": 120.0
            },
            {
                "start_time": 35.199999999999996,
                "end_time": 35.3,
                "pitch": 33,
                "velocity": 64,
                "duration": 0.10000000000000142,
                "tempo": 120.0
            },
            {
                "start_time": 35.3,
                "end_time": 35.4,
                "pitch": 33,
                "velocity": 64,
                "duration": 0.10000000000000142,
                "tempo": 120.0
            },
            {
                "start_time": 35.5,
                "end_time": 35.60227272727273,
                "pitch": 35,
                "velocity": 64,
                "duration": 0.10227272727272663,
                "tempo": 120.0
            },
            {
                "start_time": 37.199999999999996,
                "end_time": 37.39772727272727,
                "pitch": 36,
                "velocity": 64,
                "duration": 0.19772727272727764,
                "tempo": 120.0
            },
            {
                "start_time": 37.6,
                "end_time": 37.804545454545455,
                "pitch": 31,
                "velocity": 64,
                "duration": 0.20454545454545325,
                "tempo": 120.0
            },
            {
                "start_time": 38.01136363636363,
                "end_time": 38.111363636363635,
                "pitch": 31,
                "velocity": 64,
                "duration": 0.10000000000000142,
                "tempo": 120.0
            },
            {
                "start_time": 38.111363636363635,
                "end_time": 38.211363636363636,
                "pitch": 31,
                "velocity": 64,
                "duration": 0.10000000000000142,
                "tempo": 120.0
            },
            {
                "start_time": 38.31363636363636,
                "end_time": 38.413636363636364,
                "pitch": 31,
                "velocity": 64,
                "duration": 0.10000000000000142,
                "tempo": 120.0
            },
            {
                "start_time": 38.413636363636364,
                "end_time": 38.51590909090909,
                "pitch": 33,
                "velocity": 64,
                "duration": 0.10227272727272663,
                "tempo": 120.0
            },
            {
                "start_time": 38.51590909090909,
                "end_time": 38.61818181818182,
                "pitch": 33,
                "velocity": 64,
                "duration": 0.10227272727272663,
                "tempo": 120.0
            },
            {
                "start_time": 38.72272727272727,
                "end_time": 38.82727272727273,
                "pitch": 35,
                "velocity": 64,
                "duration": 0.10454545454545894,
                "tempo": 120.0
            },
            {
                "start_time": 45.24318181818182,
                "end_time": 45.24545454545454,
                "pitch": 36,
                "velocity": 64,
                "duration": 0.0022727272727252057,
                "tempo": 120.0
            }
        ]
    }
}