{
    "track_id": "04 The March of Heroes",
    "mood": "happy",
    "instruments": {
        "Trumpet": [
            {
                "start_time": 0.0022727272727272726,
                "end_time": 0.3477272727272727,
                "pitch": 52,
                "velocity": 80,
                "duration": 0.34545454545454546,
                "tempo": 120.0
            },
            {
                "start_time": 0.3977272727272727,
                "end_time": 0.4795454545454545,
                "pitch": 52,
                "velocity": 80,
                "duration": 0.08181818181818179,
                "tempo": 120.0
            },
            {
                "start_time": 0.5318181818181817,
                "end_time": 1.0159090909090909,
                "pitch": 57,
                "velocity": 80,
                "duration": 0.4840909090909091,
                "tempo": 120.0
            },
            {
                "start_time": 1.065909090909091,
                "end_time": 1.5522727272727272,
                "pitch": 64,
                "velocity": 80,
                "duration": 0.48636363636363633,
                "tempo": 120.0
            },
            {
                "start_time": 1.6022727272727273,
                "end_time": 2.0863636363636364,
                "pitch": 62,
                "velocity": 80,
                "duration": 0.4840909090909091,
                "tempo": 120.0
            },
            {
                "start_time": 2.1363636363636362,
                "end_time": 2.6295454545454544,
                "pitch": 59,
                "velocity": 80,
                "duration": 0.49318181818181817,
                "tempo": 120.0
            },
            {
                "start_time": 2.6818181818181817,
                "end_time": 2.8977272727272725,
                "pitch": 61,
                "velocity": 80,
                "duration": 0.21590909090909083,
                "tempo": 120.0
            },
            {
                "start_time": 2.9499999999999997,
                "end_time": 4.245454545454545,
                "pitch": 52,
                "velocity": 80,
                "duration": 1.2954545454545454,
                "tempo": 120.0
            },
            {
                "start_time": 4.295454545454545,
                "end_time": 4.652272727272727,
                "pitch": 52,
                "velocity": 80,
                "duration": 0.35681818181818237,
                "tempo": 120.0
            },
            {
                "start_time": 4.704545454545454,
                "end_time": 4.788636363636363,
                "pitch": 52,
                "velocity": 80,
                "duration": 0.084090909090909,
                "tempo": 120.0
            },
            {
                "start_time": 0.5318181818181817,
                "end_time": 4.840909090909091,
                "pitch": 66,
                "velocity": 80,
                "duration": 4.309090909090909,
                "tempo": 120.0
            },
            {
                "start_time": 4.840909090909091,
                "end_time": 5.325,
                "pitch": 57,
                "velocity": 80,
                "duration": 0.48409090909090935,
                "tempo": 120.0
            },
            {
                "start_time": 1.065909090909091,
                "end_time": 5.377272727272727,
                "pitch": 31,
                "velocity": 80,
                "duration": 4.311363636363636,
                "tempo": 120.0
            },
            {
                "start_time": 1.6022727272727273,
                "end_time": 5.861363636363636,
                "pitch": 64,
                "velocity": 80,
                "duration": 4.259090909090909,
                "tempo": 120.0
            },
            {
                "start_time": 5.377272727272727,
                "end_time": 5.861363636363636,
                "pitch": 64,
                "velocity": 80,
                "duration": 0.48409090909090935,
                "tempo": 120.0
            },
            {
                "start_time": 5.911363636363636,
                "end_time": 6.404545454545454,
                "pitch": 62,
                "velocity": 80,
                "duration": 0.49318181818181817,
                "tempo": 120.0
            },
            {
                "start_time": 2.1363636363636362,
                "end_time": 6.456818181818181,
                "pitch": 65,
                "velocity": 80,
                "duration": 4.320454545454545,
                "tempo": 120.0
            },
            {
                "start_time": 6.456818181818181,
                "end_time": 6.9409090909090905,
                "pitch": 59,
                "velocity": 80,
                "duration": 0.48409090909090935,
                "tempo": 120.0
            },
            {
                "start_time": 2.6818181818181817,
                "end_time": 6.99090909090909,
                "pitch": 44,
                "velocity": 80,
                "duration": 4.309090909090909,
                "tempo": 120.0
            },
            {
                "start_time": 6.99090909090909,
                "end_time": 7.206818181818181,
                "pitch": 61,
                "velocity": 80,
                "duration": 0.21590909090909083,
                "tempo": 120.0
            },
            {
                "start_time": 5.911363636363636,
                "end_time": 8.554545454545455,
                "pitch": 64,
                "velocity": 80,
                "duration": 2.6431818181818185,
                "tempo": 120.0
            },
            {
                "start_time": 7.259090909090909,
                "end_time": 8.554545454545455,
                "pitch": 64,
                "velocity": 80,
                "duration": 1.2954545454545459,
                "tempo": 120.0
            },
            {
                "start_time": 8.60681818181818,
                "end_time": 8.963636363636363,
                "pitch": 52,
                "velocity": 80,
                "duration": 0.35681818181818237,
                "tempo": 120.0
            },
            {
                "start_time": 9.013636363636364,
                "end_time": 9.1,
                "pitch": 52,
                "velocity": 80,
                "duration": 0.08636363636363598,
                "tempo": 120.0
            },
            {
                "start_time": 4.840909090909091,
                "end_time": 9.15,
                "pitch": 66,
                "velocity": 80,
                "duration": 4.3090909090909095,
                "tempo": 120.0
            },
            {
                "start_time": 9.15,
                "end_time": 9.636363636363637,
                "pitch": 57,
                "velocity": 80,
                "duration": 0.48636363636363633,
                "tempo": 120.0
            },
            {
                "start_time": 5.377272727272727,
                "end_time": 9.686363636363636,
                "pitch": 31,
                "velocity": 80,
                "duration": 4.309090909090909,
                "tempo": 120.0
            },
            {
                "start_time": 9.686363636363636,
                "end_time": 10.170454545454545,
                "pitch": 64,
                "velocity": 80,
                "duration": 0.48409090909090935,
                "tempo": 120.0
            },
            {
                "start_time": 10.220454545454546,
                "end_time": 10.713636363636363,
                "pitch": 62,
                "velocity": 80,
                "duration": 0.4931818181818173,
                "tempo": 120.0
            },
            {
                "start_time": 6.456818181818181,
                "end_time": 10.76590909090909,
                "pitch": 65,
                "velocity": 80,
                "duration": 4.3090909090909095,
                "tempo": 120.0
            },
            {
                "start_time": 10.76590909090909,
                "end_time": 11.25,
                "pitch": 59,
                "velocity": 80,
                "duration": 0.48409090909090935,
                "tempo": 120.0
            },
            {
                "start_time": 6.99090909090909,
                "end_time": 11.299999999999999,
                "pitch": 44,
                "velocity": 80,
                "duration": 4.309090909090909,
                "tempo": 120.0
            },
            {
                "start_time": 7.259090909090909,
                "end_time": 11.520454545454545,
                "pitch": 61,
                "velocity": 80,
                "duration": 4.261363636363636,
                "tempo": 120.0
            },
            {
                "start_time": 11.299999999999999,
                "end_time": 11.520454545454545,
                "pitch": 61,
                "velocity": 80,
                "duration": 0.22045454545454568,
                "tempo": 120.0
            },
            {
                "start_time": 2.9499999999999997,
                "end_time": 11.572727272727272,
                "pitch": 49,
                "velocity": 80,
                "duration": 8.622727272727273,
                "tempo": 120.0
            },
            {
                "start_time": 11.572727272727272,
                "end_time": 12.872727272727271,
                "pitch": 52,
                "velocity": 80,
                "duration": 1.299999999999999,
                "tempo": 120.0
            },
            {
                "start_time": 10.220454545454546,
                "end_time": 13.274999999999999,
                "pitch": 64,
                "velocity": 80,
                "duration": 3.054545454545453,
                "tempo": 120.0
            },
            {
                "start_time": 12.924999999999999,
                "end_time": 13.274999999999999,
                "pitch": 64,
                "velocity": 80,
                "duration": 0.34999999999999964,
                "tempo": 120.0
            },
            {
                "start_time": 13.327272727272726,
                "end_time": 13.409090909090908,
                "pitch": 64,
                "velocity": 80,
                "duration": 0.08181818181818201,
                "tempo": 120.0
            },
            {
                "start_time": 13.461363636363636,
                "end_time": 14.479545454545454,
                "pitch": 62,
                "velocity": 80,
                "duration": 1.0181818181818176,
                "tempo": 120.0
            },
            {
                "start_time": 14.529545454545454,
                "end_time": 15.559090909090909,
                "pitch": 67,
                "velocity": 80,
                "duration": 1.0295454545454543,
                "tempo": 120.0
            },
            {
                "start_time": 15.611363636363636,
                "end_time": 16.638636363636362,
                "pitch": 71,
                "velocity": 80,
                "duration": 1.0272727272727256,
                "tempo": 120.0
            },
            {
                "start_time": 16.69090909090909,
                "end_time": 17.71818181818182,
                "pitch": 74,
                "velocity": 80,
                "duration": 1.0272727272727273,
                "tempo": 120.0
            },
            {
                "start_time": 14.529545454545454,
                "end_time": 17.770454545454545,
                "pitch": 77,
                "velocity": 80,
                "duration": 3.2409090909090903,
                "tempo": 120.0
            },
            {
                "start_time": 17.770454545454545,
                "end_time": 21.543181818181818,
                "pitch": 69,
                "velocity": 80,
                "duration": 3.7727272727272734,
                "tempo": 120.0
            },
            {
                "start_time": 21.545454545454543,
                "end_time": 21.895454545454545,
                "pitch": 52,
                "velocity": 80,
                "duration": 0.3500000000000014,
                "tempo": 120.0
            },
            {
                "start_time": 21.945454545454545,
                "end_time": 22.029545454545453,
                "pitch": 52,
                "velocity": 80,
                "duration": 0.08409090909090722,
                "tempo": 120.0
            },
            {
                "start_time": 9.15,
                "end_time": 22.079545454545453,
                "pitch": 66,
                "velocity": 80,
                "duration": 12.929545454545453,
                "tempo": 120.0
            },
            {
                "start_time": 22.079545454545453,
                "end_time": 22.57272727272727,
                "pitch": 57,
                "velocity": 80,
                "duration": 0.4931818181818173,
                "tempo": 120.0
            }
        ],
        "Flute": [
            {
                "start_time": 0.7999999999999999,
                "end_time": 0.8999999999999999,
                "pitch": 91,
                "velocity": 51,
                "duration": 0.09999999999999998,
                "tempo": 120.0
            },
            {
                "start_time": 1.0681818181818181,
                "end_time": 1.1659090909090908,
                "pitch": 93,
                "velocity": 51,
                "duration": 0.09772727272727266,
                "tempo": 120.0
            },
            {
                "start_time": 1.2,
                "end_time": 1.3,
                "pitch": 88,
                "velocity": 51,
                "duration": 0.10000000000000009,
                "tempo": 120.0
            },
            {
                "start_time": 1.334090909090909,
                "end_time": 1.434090909090909,
                "pitch": 91,
                "velocity": 51,
                "duration": 0.10000000000000009,
                "tempo": 120.0
            },
            {
                "start_time": 1.468181818181818,
                "end_time": 1.5681818181818181,
                "pitch": 90,
                "velocity": 51,
                "duration": 0.10000000000000009,
                "tempo": 120.0
            },
            {
                "start_time": 1.6045454545454545,
                "end_time": 1.7022727272727272,
                "pitch": 90,
                "velocity": 51,
                "duration": 0.09772727272727266,
                "tempo": 120.0
            },
            {
                "start_time": 1.7363636363636363,
                "end_time": 1.8363636363636362,
                "pitch": 86,
                "velocity": 51,
                "duration": 0.09999999999999987,
                "tempo": 120.0
            },
            {
                "start_time": 1.7363636363636363,
                "end_time": 1.968181818181818,
                "pitch": 88,
                "velocity": 51,
                "duration": 0.2318181818181817,
                "tempo": 120.0
            },
            {
                "start_time": 1.8704545454545454,
                "end_time": 1.968181818181818,
                "pitch": 88,
                "velocity": 51,
                "duration": 0.09772727272727266,
                "tempo": 120.0
            },
            {
                "start_time": 1.334090909090909,
                "end_time": 2.1386363636363637,
                "pitch": 101,
                "velocity": 51,
                "duration": 0.8045454545454547,
                "tempo": 120.0
            },
            {
                "start_time": 2.1386363636363637,
                "end_time": 2.2386363636363633,
                "pitch": 93,
                "velocity": 51,
                "duration": 0.09999999999999964,
                "tempo": 120.0
            },
            {
                "start_time": 1.2,
                "end_time": 2.409090909090909,
                "pitch": 54,
                "velocity": 51,
                "duration": 1.2090909090909092,
                "tempo": 120.0
            },
            {
                "start_time": 2.409090909090909,
                "end_time": 2.9159090909090906,
                "pitch": 87,
                "velocity": 51,
                "duration": 0.5068181818181814,
                "tempo": 120.0
            },
            {
                "start_time": 2.1386363636363637,
                "end_time": 2.9499999999999997,
                "pitch": 101,
                "velocity": 51,
                "duration": 0.8113636363636361,
                "tempo": 120.0
            },
            {
                "start_time": 2.9499999999999997,
                "end_time": 3.0477272727272724,
                "pitch": 93,
                "velocity": 51,
                "duration": 0.09772727272727266,
                "tempo": 120.0
            },
            {
                "start_time": 3.218181818181818,
                "end_time": 3.318181818181818,
                "pitch": 93,
                "velocity": 51,
                "duration": 0.10000000000000009,
                "tempo": 120.0
            },
            {
                "start_time": 2.409090909090909,
                "end_time": 3.352272727272727,
                "pitch": 54,
                "velocity": 51,
                "duration": 0.9431818181818179,
                "tempo": 120.0
            },
            {
                "start_time": 3.352272727272727,
                "end_time": 3.4545454545454546,
                "pitch": 88,
                "velocity": 51,
                "duration": 0.10227272727272751,
                "tempo": 120.0
            },
            {
                "start_time": 2.9499999999999997,
                "end_time": 3.4886363636363633,
                "pitch": 101,
                "velocity": 51,
                "duration": 0.5386363636363636,
                "tempo": 120.0
            },
            {
                "start_time": 3.4886363636363633,
                "end_time": 3.590909090909091,
                "pitch": 91,
                "velocity": 51,
                "duration": 0.10227272727272751,
                "tempo": 120.0
            },
            {
                "start_time": 1.468181818181818,
                "end_time": 3.625,
                "pitch": 0,
                "velocity": 51,
                "duration": 2.156818181818182,
                "tempo": 120.0
            },
            {
                "start_time": 3.625,
                "end_time": 3.727272727272727,
                "pitch": 90,
                "velocity": 51,
                "duration": 0.10227272727272707,
                "tempo": 120.0
            },
            {
                "start_time": 3.7613636363636362,
                "end_time": 3.8613636363636363,
                "pitch": 90,
                "velocity": 51,
                "duration": 0.10000000000000009,
                "tempo": 120.0
            },
            {
                "start_time": 1.8704545454545454,
                "end_time": 3.995454545454545,
                "pitch": 86,
                "velocity": 51,
                "duration": 2.125,
                "tempo": 120.0
            },
            {
                "start_time": 3.895454545454545,
                "end_time": 3.995454545454545,
                "pitch": 86,
                "velocity": 51,
                "duration": 0.10000000000000009,
                "tempo": 120.0
            },
            {
                "start_time": 3.895454545454545,
                "end_time": 5.075,
                "pitch": 88,
                "velocity": 51,
                "duration": 1.1795454545454551,
                "tempo": 120.0
            },
            {
                "start_time": 4.029545454545454,
                "end_time": 5.075,
                "pitch": 88,
                "velocity": 51,
                "duration": 1.0454545454545459,
                "tempo": 120.0
            },
            {
                "start_time": 5.1090909090909085,
                "end_time": 5.209090909090909,
                "pitch": 93,
                "velocity": 51,
                "duration": 0.10000000000000053,
                "tempo": 120.0
            },
            {
                "start_time": 5.377272727272727,
                "end_time": 5.477272727272727,
                "pitch": 93,
                "velocity": 51,
                "duration": 0.09999999999999964,
                "tempo": 120.0
            },
            {
                "start_time": 3.352272727272727,
                "end_time": 5.511363636363636,
                "pitch": 54,
                "velocity": 51,
                "duration": 2.1590909090909087,
                "tempo": 120.0
            },
            {
                "start_time": 5.511363636363636,
                "end_time": 5.6090909090909085,
                "pitch": 88,
                "velocity": 51,
                "duration": 0.09772727272727266,
                "tempo": 120.0
            },
            {
                "start_time": 3.4886363636363633,
                "end_time": 5.643181818181818,
                "pitch": 101,
                "velocity": 51,
                "duration": 2.1545454545454543,
                "tempo": 120.0
            },
            {
                "start_time": 5.643181818181818,
                "end_time": 5.743181818181818,
                "pitch": 91,
                "velocity": 51,
                "duration": 0.10000000000000053,
                "tempo": 120.0
            },
            {
                "start_time": 3.625,
                "end_time": 5.777272727272727,
                "pitch": 0,
                "velocity": 51,
                "duration": 2.1522727272727273,
                "tempo": 120.0
            },
            {
                "start_time": 5.777272727272727,
                "end_time": 5.877272727272727,
                "pitch": 90,
                "velocity": 51,
                "duration": 0.09999999999999964,
                "tempo": 120.0
            },
            {
                "start_time": 5.913636363636363,
                "end_time": 6.013636363636364,
                "pitch": 90,
                "velocity": 51,
                "duration": 0.10000000000000053,
                "tempo": 120.0
            },
            {
                "start_time": 4.029545454545454,
                "end_time": 6.1477272727272725,
                "pitch": 86,
                "velocity": 51,
                "duration": 2.118181818181818,
                "tempo": 120.0
            },
            {
                "start_time": 6.047727272727273,
                "end_time": 6.1477272727272725,
                "pitch": 86,
                "velocity": 51,
                "duration": 0.09999999999999964,
                "tempo": 120.0
            },
            {
                "start_time": 6.047727272727273,
                "end_time": 6.284090909090909,
                "pitch": 88,
                "velocity": 51,
                "duration": 0.23636363636363633,
                "tempo": 120.0
            },
            {
                "start_time": 6.184090909090909,
                "end_time": 6.284090909090909,
                "pitch": 88,
                "velocity": 51,
                "duration": 0.10000000000000053,
                "tempo": 120.0
            },
            {
                "start_time": 5.643181818181818,
                "end_time": 6.456818181818181,
                "pitch": 101,
                "velocity": 51,
                "duration": 0.8136363636363635,
                "tempo": 120.0
            },
            {
                "start_time": 6.456818181818181,
                "end_time": 6.556818181818182,
                "pitch": 93,
                "velocity": 51,
                "duration": 0.10000000000000053,
                "tempo": 120.0
            },
            {
                "start_time": 5.511363636363636,
                "end_time": 6.722727272727273,
                "pitch": 54,
                "velocity": 51,
                "duration": 1.2113636363636369,
                "tempo": 120.0
            },
            {
                "start_time": 6.722727272727273,
                "end_time": 7.225,
                "pitch": 87,
                "velocity": 51,
                "duration": 0.502272727272727,
                "tempo": 120.0
            },
            {
                "start_time": 6.456818181818181,
                "end_time": 7.259090909090909,
                "pitch": 101,
                "velocity": 51,
                "duration": 0.8022727272727277,
                "tempo": 120.0
            },
            {
                "start_time": 7.259090909090909,
                "end_time": 7.3590909090909085,
                "pitch": 93,
                "velocity": 51,
                "duration": 0.09999999999999964,
                "tempo": 120.0
            },
            {
                "start_time": 7.527272727272727,
                "end_time": 7.627272727272727,
                "pitch": 93,
                "velocity": 51,
                "duration": 0.09999999999999964,
                "tempo": 120.0
            },
            {
                "start_time": 6.722727272727273,
                "end_time": 7.663636363636363,
                "pitch": 54,
                "velocity": 51,
                "duration": 0.9409090909090905,
                "tempo": 120.0
            },
            {
                "start_time": 7.663636363636363,
                "end_time": 7.763636363636364,
                "pitch": 88,
                "velocity": 51,
                "duration": 0.10000000000000053,
                "tempo": 120.0
            },
            {
                "start_time": 7.259090909090909,
                "end_time": 7.8,
                "pitch": 101,
                "velocity": 51,
                "duration": 0.540909090909091,
                "tempo": 120.0
            },
            {
                "start_time": 7.8,
                "end_time": 7.8999999999999995,
                "pitch": 91,
                "velocity": 51,
                "duration": 0.09999999999999964,
                "tempo": 120.0
            },
            {
                "start_time": 5.777272727272727,
                "end_time": 7.934090909090909,
                "pitch": 0,
                "velocity": 51,
                "duration": 2.1568181818181813,
                "tempo": 120.0
            },
            {
                "start_time": 7.934090909090909,
                "end_time": 8.036363636363635,
                "pitch": 90,
                "velocity": 51,
                "duration": 0.10227272727272663,
                "tempo": 120.0
            },
            {
                "start_time": 8.072727272727272,
                "end_time": 8.170454545454545,
                "pitch": 90,
                "velocity": 51,
                "duration": 0.09772727272727266,
                "tempo": 120.0
            },
            {
                "start_time": 6.184090909090909,
                "end_time": 8.304545454545455,
                "pitch": 86,
                "velocity": 51,
                "duration": 2.120454545454546,
                "tempo": 120.0
            },
            {
                "start_time": 8.204545454545455,
                "end_time": 8.304545454545455,
                "pitch": 86,
                "velocity": 51,
                "duration": 0.09999999999999964,
                "tempo": 120.0
            },
            {
                "start_time": 8.204545454545455,
                "end_time": 9.384090909090908,
                "pitch": 88,
                "velocity": 51,
                "duration": 1.179545454545453,
                "tempo": 120.0
            },
            {
                "start_time": 8.338636363636363,
                "end_time": 9.384090909090908,
                "pitch": 88,
                "velocity": 51,
                "duration": 1.045454545454545,
                "tempo": 120.0
            },
            {
                "start_time": 5.1090909090909085,
                "end_time": 9.418181818181818,
                "pitch": 102,
                "velocity": 51,
                "duration": 4.3090909090909095,
                "tempo": 120.0
            },
            {
                "start_time": 9.418181818181818,
                "end_time": 9.518181818181818,
                "pitch": 93,
                "velocity": 51,
                "duration": 0.09999999999999964,
                "tempo": 120.0
            },
            {
                "start_time": 9.688636363636363,
                "end_time": 9.786363636363635,
                "pitch": 93,
                "velocity": 51,
                "duration": 0.09772727272727266,
                "tempo": 120.0
            },
            {
                "start_time": 7.663636363636363,
                "end_time": 9.820454545454545,
                "pitch": 54,
                "velocity": 51,
                "duration": 2.156818181818182,
                "tempo": 120.0
            },
            {
                "start_time": 9.820454545454545,
                "end_time": 9.920454545454545,
                "pitch": 88,
                "velocity": 51,
                "duration": 0.09999999999999964,
                "tempo": 120.0
            },
            {
                "start_time": 7.8,
                "end_time": 9.954545454545453,
                "pitch": 101,
                "velocity": 51,
                "duration": 2.1545454545454534,
                "tempo": 120.0
            },
            {
                "start_time": 9.954545454545453,
                "end_time": 10.052272727272726,
                "pitch": 91,
                "velocity": 51,
                "duration": 0.09772727272727266,
                "tempo": 120.0
            },
            {
                "start_time": 7.934090909090909,
                "end_time": 10.086363636363636,
                "pitch": 0,
                "velocity": 51,
                "duration": 2.1522727272727273,
                "tempo": 120.0
            },
            {
                "start_time": 10.086363636363636,
                "end_time": 10.186363636363636,
                "pitch": 90,
                "velocity": 51,
                "duration": 0.09999999999999964,
                "tempo": 120.0
            },
            {
                "start_time": 10.222727272727273,
                "end_time": 10.322727272727272,
                "pitch": 90,
                "velocity": 51,
                "duration": 0.09999999999999964,
                "tempo": 120.0
            },
            {
                "start_time": 8.338636363636363,
                "end_time": 10.459090909090909,
                "pitch": 86,
                "velocity": 51,
                "duration": 2.120454545454546,
                "tempo": 120.0
            },
            {
                "start_time": 10.35681818181818,
                "end_time": 10.459090909090909,
                "pitch": 86,
                "velocity": 51,
                "duration": 0.1022727272727284,
                "tempo": 120.0
            },
            {
                "start_time": 10.35681818181818,
                "end_time": 10.595454545454546,
                "pitch": 88,
                "velocity": 51,
                "duration": 0.2386363636363651,
                "tempo": 120.0
            },
            {
                "start_time": 10.493181818181817,
                "end_time": 10.595454545454546,
                "pitch": 88,
                "velocity": 51,
                "duration": 0.1022727272727284,
                "tempo": 120.0
            },
            {
                "start_time": 9.954545454545453,
                "end_time": 10.768181818181818,
                "pitch": 101,
                "velocity": 51,
                "duration": 0.8136363636363644,
                "tempo": 120.0
            },
            {
                "start_time": 10.768181818181818,
                "end_time": 10.86590909090909,
                "pitch": 93,
                "velocity": 51,
                "duration": 0.09772727272727266,
                "tempo": 120.0
            },
            {
                "start_time": 9.820454545454545,
                "end_time": 11.034090909090908,
                "pitch": 54,
                "velocity": 51,
                "duration": 1.213636363636363,
                "tempo": 120.0
            },
            {
                "start_time": 11.034090909090908,
                "end_time": 11.538636363636362,
                "pitch": 87,
                "velocity": 51,
                "duration": 0.504545454545454,
                "tempo": 120.0
            },
            {
                "start_time": 10.768181818181818,
                "end_time": 11.575,
                "pitch": 101,
                "velocity": 51,
                "duration": 0.8068181818181817,
                "tempo": 120.0
            },
            {
                "start_time": 11.575,
                "end_time": 11.674999999999999,
                "pitch": 93,
                "velocity": 51,
                "duration": 0.09999999999999964,
                "tempo": 120.0
            },
            {
                "start_time": 11.845454545454546,
                "end_time": 11.945454545454545,
                "pitch": 93,
                "velocity": 51,
                "duration": 0.09999999999999964,
                "tempo": 120.0
            },
            {
                "start_time": 11.034090909090908,
                "end_time": 11.979545454545454,
                "pitch": 54,
                "velocity": 51,
                "duration": 0.9454545454545453,
                "tempo": 120.0
            },
            {
                "start_time": 11.979545454545454,
                "end_time": 12.079545454545453,
                "pitch": 88,
                "velocity": 51,
                "duration": 0.09999999999999964,
                "tempo": 120.0
            },
            {
                "start_time": 11.575,
                "end_time": 12.113636363636363,
                "pitch": 101,
                "velocity": 51,
                "duration": 0.538636363636364,
                "tempo": 120.0
            },
            {
                "start_time": 12.113636363636363,
                "end_time": 12.213636363636363,
                "pitch": 91,
                "velocity": 51,
                "duration": 0.09999999999999964,
                "tempo": 120.0
            },
            {
                "start_time": 10.086363636363636,
                "end_time": 12.247727272727273,
                "pitch": 0,
                "velocity": 51,
                "duration": 2.161363636363637,
                "tempo": 120.0
            },
            {
                "start_time": 12.247727272727273,
                "end_time": 12.347727272727273,
                "pitch": 90,
                "velocity": 51,
                "duration": 0.09999999999999964,
                "tempo": 120.0
            },
            {
                "start_time": 12.381818181818181,
                "end_time": 12.48181818181818,
                "pitch": 90,
                "velocity": 51,
                "duration": 0.09999999999999964,
                "tempo": 120.0
            },
            {
                "start_time": 10.493181818181817,
                "end_time": 12.618181818181817,
                "pitch": 86,
                "velocity": 51,
                "duration": 2.125,
                "tempo": 120.0
            },
            {
                "start_time": 12.51590909090909,
                "end_time": 12.618181818181817,
                "pitch": 86,
                "velocity": 51,
                "duration": 0.10227272727272663,
                "tempo": 120.0
            },
            {
                "start_time": 12.51590909090909,
                "end_time": 13.693181818181818,
                "pitch": 88,
                "velocity": 51,
                "duration": 1.1772727272727277,
                "tempo": 120.0
            },
            {
                "start_time": 12.652272727272727,
                "end_time": 13.693181818181818,
                "pitch": 88,
                "velocity": 51,
                "duration": 1.040909090909091,
                "tempo": 120.0
            },
            {
                "start_time": 13.727272727272727,
                "end_time": 13.827272727272726,
                "pitch": 71,
                "velocity": 51,
                "duration": 0.09999999999999964,
                "tempo": 120.0
            },
            {
                "start_time": 13.861363636363636,
                "end_time": 13.961363636363636,
                "pitch": 62,
                "velocity": 51,
                "duration": 0.09999999999999964,
                "tempo": 120.0
            },
            {
                "start_time": 13.995454545454544,
                "end_time": 14.095454545454544,
                "pitch": 67,
                "velocity": 51,
                "duration": 0.09999999999999964,
                "tempo": 120.0
            },
            {
                "start_time": 14.129545454545454,
                "end_time": 14.229545454545454,
                "pitch": 71,
                "velocity": 51,
                "duration": 0.09999999999999964,
                "tempo": 120.0
            },
            {
                "start_time": 14.263636363636364,
                "end_time": 14.363636363636363,
                "pitch": 74,
                "velocity": 51,
                "duration": 0.09999999999999964,
                "tempo": 120.0
            },
            {
                "start_time": 13.995454545454544,
                "end_time": 14.397727272727272,
                "pitch": 77,
                "velocity": 51,
                "duration": 0.40227272727272734,
                "tempo": 120.0
            },
            {
                "start_time": 14.129545454545454,
                "end_time": 14.497727272727271,
                "pitch": 67,
                "velocity": 51,
                "duration": 0.3681818181818173,
                "tempo": 120.0
            },
            {
                "start_time": 14.397727272727272,
                "end_time": 14.497727272727271,
                "pitch": 67,
                "velocity": 51,
                "duration": 0.09999999999999964,
                "tempo": 120.0
            },
            {
                "start_time": 14.531818181818181,
                "end_time": 14.631818181818181,
                "pitch": 71,
                "velocity": 51,
                "duration": 0.09999999999999964,
                "tempo": 120.0
            },
            {
                "start_time": 14.263636363636364,
                "end_time": 14.668181818181818,
                "pitch": 55,
                "velocity": 51,
                "duration": 0.4045454545454543,
                "tempo": 120.0
            },
            {
                "start_time": 14.668181818181818,
                "end_time": 14.768181818181818,
                "pitch": 74,
                "velocity": 51,
                "duration": 0.09999999999999964,
                "tempo": 120.0
            },
            {
                "start_time": 14.802272727272726,
                "end_time": 14.904545454545454,
                "pitch": 79,
                "velocity": 51,
                "duration": 0.1022727272727284,
                "tempo": 120.0
            },
            {
                "start_time": 14.531818181818181,
                "end_time": 14.938636363636363,
                "pitch": 67,
                "velocity": 51,
                "duration": 0.4068181818181813,
                "tempo": 120.0
            },
            {
                "start_time": 14.938636363636363,
                "end_time": 15.040909090909091,
                "pitch": 71,
                "velocity": 51,
                "duration": 0.1022727272727284,
                "tempo": 120.0
            },
            {
                "start_time": 14.668181818181818,
                "end_time": 15.077272727272726,
                "pitch": 55,
                "velocity": 51,
                "duration": 0.4090909090909083,
                "tempo": 120.0
            },
            {
                "start_time": 15.075,
                "end_time": 15.077272727272726,
                "pitch": 55,
                "velocity": 51,
                "duration": 0.002272727272726982,
                "tempo": 120.0
            },
            {
                "start_time": 15.077272727272726,
                "end_time": 15.174999999999999,
                "pitch": 74,
                "velocity": 51,
                "duration": 0.09772727272727266,
                "tempo": 120.0
            },
            {
                "start_time": 14.802272727272726,
                "end_time": 15.209090909090909,
                "pitch": 89,
                "velocity": 51,
                "duration": 0.4068181818181831,
                "tempo": 120.0
            },
            {
                "start_time": 15.209090909090909,
                "end_time": 15.309090909090909,
                "pitch": 79,
                "velocity": 51,
                "duration": 0.09999999999999964,
                "tempo": 120.0
            },
            {
                "start_time": 15.343181818181817,
                "end_time": 15.443181818181817,
                "pitch": 83,
                "velocity": 51,
                "duration": 0.09999999999999964,
                "tempo": 120.0
            },
            {
                "start_time": 15.477272727272727,
                "end_time": 15.577272727272726,
                "pitch": 74,
                "velocity": 51,
                "duration": 0.09999999999999964,
                "tempo": 120.0
            },
            {
                "start_time": 15.209090909090909,
                "end_time": 15.611363636363636,
                "pitch": 89,
                "velocity": 51,
                "duration": 0.40227272727272734,
                "tempo": 120.0
            },
            {
                "start_time": 15.343181818181817,
                "end_time": 15.711363636363636,
                "pitch": 79,
                "velocity": 51,
                "duration": 0.36818181818181905,
                "tempo": 120.0
            },
            {
                "start_time": 15.611363636363636,
                "end_time": 15.711363636363636,
                "pitch": 79,
                "velocity": 51,
                "duration": 0.09999999999999964,
                "tempo": 120.0
            },
            {
                "start_time": 15.747727272727271,
                "end_time": 15.847727272727273,
                "pitch": 83,
                "velocity": 51,
                "duration": 0.10000000000000142,
                "tempo": 120.0
            },
            {
                "start_time": 15.477272727272727,
                "end_time": 15.881818181818181,
                "pitch": 55,
                "velocity": 51,
                "duration": 0.4045454545454543,
                "tempo": 120.0
            },
            {
                "start_time": 15.881818181818181,
                "end_time": 15.984090909090908,
                "pitch": 74,
                "velocity": 51,
                "duration": 0.10227272727272663,
                "tempo": 120.0
            },
            {
                "start_time": 14.397727272727272,
                "end_time": 16.018181818181816,
                "pitch": 77,
                "velocity": 51,
                "duration": 1.6204545454545443,
                "tempo": 120.0
            },
            {
                "start_time": 14.938636363636363,
                "end_time": 16.120454545454546,
                "pitch": 67,
                "velocity": 51,
                "duration": 1.1818181818181834,
                "tempo": 120.0
            },
            {
                "start_time": 16.018181818181816,
                "end_time": 16.120454545454546,
                "pitch": 67,
                "velocity": 51,
                "duration": 0.10227272727273018,
                "tempo": 120.0
            },
            {
                "start_time": 16.15681818181818,
                "end_time": 16.254545454545454,
                "pitch": 71,
                "velocity": 51,
                "duration": 0.09772727272727266,
                "tempo": 120.0
            },
            {
                "start_time": 15.881818181818181,
                "end_time": 16.288636363636364,
                "pitch": 55,
                "velocity": 51,
                "duration": 0.4068181818181831,
                "tempo": 120.0
            },
            {
                "start_time": 16.288636363636364,
                "end_time": 16.388636363636362,
                "pitch": 74,
                "velocity": 51,
                "duration": 0.09999999999999787,
                "tempo": 120.0
            },
            {
                "start_time": 15.611363636363636,
                "end_time": 16.422727272727272,
                "pitch": 89,
                "velocity": 51,
                "duration": 0.8113636363636356,
                "tempo": 120.0
            },
            {
                "start_time": 15.747727272727271,
                "end_time": 16.522727272727273,
                "pitch": 79,
                "velocity": 51,
                "duration": 0.7750000000000021,
                "tempo": 120.0
            },
            {
                "start_time": 16.422727272727272,
                "end_time": 16.522727272727273,
                "pitch": 79,
                "velocity": 51,
                "duration": 0.10000000000000142,
                "tempo": 120.0
            },
            {
                "start_time": 12.247727272727273,
                "end_time": 16.55681818181818,
                "pitch": 0,
                "velocity": 51,
                "duration": 4.309090909090907,
                "tempo": 120.0
            },
            {
                "start_time": 16.55681818181818,
                "end_time": 16.65681818181818,
                "pitch": 74,
                "velocity": 51,
                "duration": 0.10000000000000142,
                "tempo": 120.0
            },
            {
                "start_time": 16.422727272727272,
                "end_time": 16.69090909090909,
                "pitch": 89,
                "velocity": 51,
                "duration": 0.2681818181818194,
                "tempo": 120.0
            },
            {
                "start_time": 16.69090909090909,
                "end_time": 16.79090909090909,
                "pitch": 79,
                "velocity": 51,
                "duration": 0.09999999999999787,
                "tempo": 120.0
            },
            {
                "start_time": 16.827272727272728,
                "end_time": 16.927272727272726,
                "pitch": 83,
                "velocity": 51,
                "duration": 0.09999999999999787,
                "tempo": 120.0
            },
            {
                "start_time": 16.15681818181818,
                "end_time": 16.96363636363636,
                "pitch": 67,
                "velocity": 51,
                "duration": 0.8068181818181799,
                "tempo": 120.0
            },
            {
                "start_time": 12.652272727272727,
                "end_time": 17.063636363636363,
                "pitch": 86,
                "velocity": 51,
                "duration": 4.411363636363635,
                "tempo": 120.0
            },
            {
                "start_time": 16.96363636363636,
                "end_time": 17.063636363636363,
                "pitch": 86,
                "velocity": 51,
                "duration": 0.10000000000000142,
                "tempo": 120.0
            },
            {
                "start_time": 16.69090909090909,
                "end_time": 17.097727272727273,
                "pitch": 89,
                "velocity": 51,
                "duration": 0.4068181818181813,
                "tempo": 120.0
            },
            {
                "start_time": 16.827272727272728,
                "end_time": 17.2,
                "pitch": 79,
                "velocity": 51,
                "duration": 0.37272727272727124,
                "tempo": 120.0
            },
            {
                "start_time": 17.097727272727273,
                "end_time": 17.2,
                "pitch": 79,
                "velocity": 51,
                "duration": 0.10227272727272663,
                "tempo": 120.0
            },
            {
                "start_time": 17.236363636363635,
                "end_time": 17.334090909090907,
                "pitch": 83,
                "velocity": 51,
                "duration": 0.09772727272727266,
                "tempo": 120.0
            },
            {
                "start_time": 16.96363636363636,
                "end_time": 17.368181818181817,
                "pitch": 67,
                "velocity": 51,
                "duration": 0.4045454545454561,
                "tempo": 120.0
            },
            {
                "start_time": 17.368181818181817,
                "end_time": 17.46818181818182,
                "pitch": 86,
                "velocity": 51,
                "duration": 0.10000000000000142,
                "tempo": 120.0
            },
            {
                "start_time": 12.113636363636363,
                "end_time": 17.502272727272725,
                "pitch": 101,
                "velocity": 51,
                "duration": 5.388636363636362,
                "tempo": 120.0
            },
            {
                "start_time": 17.502272727272725,
                "end_time": 17.602272727272727,
                "pitch": 91,
                "velocity": 51,
                "duration": 0.10000000000000142,
                "tempo": 120.0
            },
            {
                "start_time": 16.55681818181818,
                "end_time": 17.636363636363637,
                "pitch": 0,
                "velocity": 51,
                "duration": 1.0795454545454568,
                "tempo": 120.0
            },
            {
                "start_time": 17.636363636363637,
                "end_time": 17.736363636363635,
                "pitch": 86,
                "velocity": 51,
                "duration": 0.09999999999999787,
                "tempo": 120.0
            },
            {
                "start_time": 17.502272727272725,
                "end_time": 17.772727272727273,
                "pitch": 101,
                "velocity": 51,
                "duration": 0.27045454545454817,
                "tempo": 120.0
            },
            {
                "start_time": 17.772727272727273,
                "end_time": 17.870454545454546,
                "pitch": 91,
                "velocity": 51,
                "duration": 0.09772727272727266,
                "tempo": 120.0
            },
            {
                "start_time": 17.904545454545453,
                "end_time": 18.002272727272725,
                "pitch": 95,
                "velocity": 51,
                "duration": 0.09772727272727266,
                "tempo": 120.0
            },
            {
                "start_time": 18.038636363636364,
                "end_time": 22.284090909090907,
                "pitch": 95,
                "velocity": 51,
                "duration": 4.2454545454545425,
                "tempo": 120.0
            },
            {
                "start_time": 22.352272727272727,
                "end_time": 22.452272727272724,
                "pitch": 93,
                "velocity": 51,
                "duration": 0.09999999999999787,
                "tempo": 120.0
            }
        ],
        "Acoustic Bass": [
            {
                "start_time": 0.004545454545454545,
                "end_time": 0.3977272727272727,
                "pitch": 52,
                "velocity": 64,
                "duration": 0.3931818181818182,
                "tempo": 120.0
            },
            {
                "start_time": 0.3977272727272727,
                "end_time": 0.5318181818181817,
                "pitch": 52,
                "velocity": 64,
                "duration": 0.13409090909090904,
                "tempo": 120.0
            },
            {
                "start_time": 0.5340909090909091,
                "end_time": 0.7977272727272727,
                "pitch": 45,
                "velocity": 64,
                "duration": 0.26363636363636367,
                "tempo": 120.0
            },
            {
                "start_time": 1.0681818181818181,
                "end_time": 1.334090909090909,
                "pitch": 40,
                "velocity": 64,
                "duration": 0.2659090909090909,
                "tempo": 120.0
            },
            {
                "start_time": 0.5340909090909091,
                "end_time": 1.6022727272727273,
                "pitch": 54,
                "velocity": 64,
                "duration": 1.0681818181818183,
                "tempo": 120.0
            },
            {
                "start_time": 1.6022727272727273,
                "end_time": 1.8681818181818182,
                "pitch": 45,
                "velocity": 64,
                "duration": 0.2659090909090909,
                "tempo": 120.0
            },
            {
                "start_time": 1.0681818181818181,
                "end_time": 2.1386363636363637,
                "pitch": 7,
                "velocity": 64,
                "duration": 1.0704545454545455,
                "tempo": 120.0
            },
            {
                "start_time": 2.1386363636363637,
                "end_time": 2.409090909090909,
                "pitch": 40,
                "velocity": 64,
                "duration": 0.2704545454545455,
                "tempo": 120.0
            },
            {
                "start_time": 1.6022727272727273,
                "end_time": 2.6818181818181817,
                "pitch": 54,
                "velocity": 64,
                "duration": 1.0795454545454544,
                "tempo": 120.0
            },
            {
                "start_time": 2.6818181818181817,
                "end_time": 2.9499999999999997,
                "pitch": 45,
                "velocity": 64,
                "duration": 0.2681818181818181,
                "tempo": 120.0
            },
            {
                "start_time": 2.1386363636363637,
                "end_time": 3.215909090909091,
                "pitch": 7,
                "velocity": 64,
                "duration": 1.0772727272727272,
                "tempo": 120.0
            },
            {
                "start_time": 3.215909090909091,
                "end_time": 3.4886363636363633,
                "pitch": 40,
                "velocity": 64,
                "duration": 0.2727272727272725,
                "tempo": 120.0
            },
            {
                "start_time": 2.6818181818181817,
                "end_time": 3.7613636363636362,
                "pitch": 54,
                "velocity": 64,
                "duration": 1.0795454545454546,
                "tempo": 120.0
            },
            {
                "start_time": 3.7613636363636362,
                "end_time": 4.029545454545454,
                "pitch": 45,
                "velocity": 64,
                "duration": 0.2681818181818181,
                "tempo": 120.0
            },
            {
                "start_time": 3.215909090909091,
                "end_time": 4.297727272727273,
                "pitch": 7,
                "velocity": 64,
                "duration": 1.081818181818182,
                "tempo": 120.0
            },
            {
                "start_time": 4.297727272727273,
                "end_time": 4.568181818181818,
                "pitch": 40,
                "velocity": 64,
                "duration": 0.2704545454545455,
                "tempo": 120.0
            },
            {
                "start_time": 3.7613636363636362,
                "end_time": 4.843181818181818,
                "pitch": 54,
                "velocity": 64,
                "duration": 1.0818181818181816,
                "tempo": 120.0
            },
            {
                "start_time": 4.843181818181818,
                "end_time": 5.1090909090909085,
                "pitch": 45,
                "velocity": 64,
                "duration": 0.26590909090909065,
                "tempo": 120.0
            },
            {
                "start_time": 4.297727272727273,
                "end_time": 5.377272727272727,
                "pitch": 7,
                "velocity": 64,
                "duration": 1.0795454545454541,
                "tempo": 120.0
            },
            {
                "start_time": 5.377272727272727,
                "end_time": 5.643181818181818,
                "pitch": 40,
                "velocity": 64,
                "duration": 0.26590909090909065,
                "tempo": 120.0
            },
            {
                "start_time": 4.843181818181818,
                "end_time": 5.913636363636363,
                "pitch": 54,
                "velocity": 64,
                "duration": 1.0704545454545453,
                "tempo": 120.0
            },
            {
                "start_time": 5.913636363636363,
                "end_time": 6.184090909090909,
                "pitch": 45,
                "velocity": 64,
                "duration": 0.2704545454545455,
                "tempo": 120.0
            },
            {
                "start_time": 5.377272727272727,
                "end_time": 6.456818181818181,
                "pitch": 7,
                "velocity": 64,
                "duration": 1.0795454545454541,
                "tempo": 120.0
            },
            {
                "start_time": 6.456818181818181,
                "end_time": 6.722727272727273,
                "pitch": 40,
                "velocity": 64,
                "duration": 0.26590909090909154,
                "tempo": 120.0
            },
            {
                "start_time": 5.913636363636363,
                "end_time": 6.993181818181818,
                "pitch": 54,
                "velocity": 64,
                "duration": 1.079545454545455,
                "tempo": 120.0
            },
            {
                "start_time": 6.993181818181818,
                "end_time": 7.259090909090909,
                "pitch": 45,
                "velocity": 64,
                "duration": 0.26590909090909065,
                "tempo": 120.0
            },
            {
                "start_time": 6.456818181818181,
                "end_time": 7.527272727272727,
                "pitch": 7,
                "velocity": 64,
                "duration": 1.0704545454545462,
                "tempo": 120.0
            },
            {
                "start_time": 7.527272727272727,
                "end_time": 7.797727272727272,
                "pitch": 40,
                "velocity": 64,
                "duration": 0.2704545454545446,
                "tempo": 120.0
            },
            {
                "start_time": 6.993181818181818,
                "end_time": 8.070454545454545,
                "pitch": 54,
                "velocity": 64,
                "duration": 1.0772727272727272,
                "tempo": 120.0
            },
            {
                "start_time": 8.070454545454545,
                "end_time": 8.338636363636363,
                "pitch": 45,
                "velocity": 64,
                "duration": 0.26818181818181763,
                "tempo": 120.0
            },
            {
                "start_time": 7.527272727272727,
                "end_time": 8.60681818181818,
                "pitch": 7,
                "velocity": 64,
                "duration": 1.0795454545454533,
                "tempo": 120.0
            },
            {
                "start_time": 8.60681818181818,
                "end_time": 8.877272727272727,
                "pitch": 40,
                "velocity": 64,
                "duration": 0.2704545454545464,
                "tempo": 120.0
            },
            {
                "start_time": 8.070454545454545,
                "end_time": 9.152272727272727,
                "pitch": 54,
                "velocity": 64,
                "duration": 1.081818181818182,
                "tempo": 120.0
            },
            {
                "start_time": 9.152272727272727,
                "end_time": 9.418181818181818,
                "pitch": 45,
                "velocity": 64,
                "duration": 0.26590909090909065,
                "tempo": 120.0
            },
            {
                "start_time": 8.60681818181818,
                "end_time": 9.686363636363636,
                "pitch": 7,
                "velocity": 64,
                "duration": 1.079545454545455,
                "tempo": 120.0
            },
            {
                "start_time": 9.686363636363636,
                "end_time": 9.952272727272726,
                "pitch": 40,
                "velocity": 64,
                "duration": 0.26590909090909065,
                "tempo": 120.0
            },
            {
                "start_time": 9.152272727272727,
                "end_time": 10.222727272727273,
                "pitch": 54,
                "velocity": 64,
                "duration": 1.0704545454545453,
                "tempo": 120.0
            },
            {
                "start_time": 10.222727272727273,
                "end_time": 10.493181818181817,
                "pitch": 45,
                "velocity": 64,
                "duration": 0.2704545454545446,
                "tempo": 120.0
            },
            {
                "start_time": 9.686363636363636,
                "end_time": 10.76590909090909,
                "pitch": 7,
                "velocity": 64,
                "duration": 1.079545454545455,
                "tempo": 120.0
            },
            {
                "start_time": 10.76590909090909,
                "end_time": 11.031818181818181,
                "pitch": 40,
                "velocity": 64,
                "duration": 0.26590909090909065,
                "tempo": 120.0
            },
            {
                "start_time": 10.222727272727273,
                "end_time": 11.302272727272726,
                "pitch": 54,
                "velocity": 64,
                "duration": 1.0795454545454533,
                "tempo": 120.0
            },
            {
                "start_time": 11.302272727272726,
                "end_time": 11.572727272727272,
                "pitch": 45,
                "velocity": 64,
                "duration": 0.2704545454545464,
                "tempo": 120.0
            },
            {
                "start_time": 10.76590909090909,
                "end_time": 11.845454545454546,
                "pitch": 7,
                "velocity": 64,
                "duration": 1.079545454545455,
                "tempo": 120.0
            },
            {
                "start_time": 11.845454545454546,
                "end_time": 12.113636363636363,
                "pitch": 40,
                "velocity": 64,
                "duration": 0.26818181818181763,
                "tempo": 120.0
            },
            {
                "start_time": 11.302272727272726,
                "end_time": 12.381818181818181,
                "pitch": 54,
                "velocity": 64,
                "duration": 1.079545454545455,
                "tempo": 120.0
            },
            {
                "start_time": 12.381818181818181,
                "end_time": 12.652272727272727,
                "pitch": 45,
                "velocity": 64,
                "duration": 0.2704545454545464,
                "tempo": 120.0
            },
            {
                "start_time": 11.845454545454546,
                "end_time": 12.927272727272726,
                "pitch": 7,
                "velocity": 64,
                "duration": 1.0818181818181802,
                "tempo": 120.0
            },
            {
                "start_time": 12.927272727272726,
                "end_time": 13.193181818181818,
                "pitch": 40,
                "velocity": 64,
                "duration": 0.2659090909090924,
                "tempo": 120.0
            },
            {
                "start_time": 12.381818181818181,
                "end_time": 13.461363636363636,
                "pitch": 54,
                "velocity": 64,
                "duration": 1.079545454545455,
                "tempo": 120.0
            },
            {
                "start_time": 13.461363636363636,
                "end_time": 13.727272727272727,
                "pitch": 43,
                "velocity": 64,
                "duration": 0.26590909090909065,
                "tempo": 120.0
            },
            {
                "start_time": 0.004545454545454545,
                "end_time": 13.995454545454544,
                "pitch": 0,
                "velocity": 64,
                "duration": 13.99090909090909,
                "tempo": 120.0
            },
            {
                "start_time": 13.995454545454544,
                "end_time": 14.263636363636364,
                "pitch": 38,
                "velocity": 64,
                "duration": 0.2681818181818194,
                "tempo": 120.0
            },
            {
                "start_time": 14.531818181818181,
                "end_time": 14.802272727272726,
                "pitch": 43,
                "velocity": 64,
                "duration": 0.2704545454545446,
                "tempo": 120.0
            },
            {
                "start_time": 13.995454545454544,
                "end_time": 15.075,
                "pitch": 0,
                "velocity": 64,
                "duration": 1.079545454545455,
                "tempo": 120.0
            },
            {
                "start_time": 15.075,
                "end_time": 15.343181818181817,
                "pitch": 38,
                "velocity": 64,
                "duration": 0.26818181818181763,
                "tempo": 120.0
            },
            {
                "start_time": 14.531818181818181,
                "end_time": 15.611363636363636,
                "pitch": 53,
                "velocity": 64,
                "duration": 1.079545454545455,
                "tempo": 120.0
            },
            {
                "start_time": 15.611363636363636,
                "end_time": 15.881818181818181,
                "pitch": 43,
                "velocity": 64,
                "duration": 0.2704545454545446,
                "tempo": 120.0
            },
            {
                "start_time": 15.075,
                "end_time": 16.154545454545453,
                "pitch": 0,
                "velocity": 64,
                "duration": 1.0795454545454533,
                "tempo": 120.0
            },
            {
                "start_time": 16.154545454545453,
                "end_time": 16.422727272727272,
                "pitch": 38,
                "velocity": 64,
                "duration": 0.2681818181818194,
                "tempo": 120.0
            },
            {
                "start_time": 15.611363636363636,
                "end_time": 16.69090909090909,
                "pitch": 53,
                "velocity": 64,
                "duration": 1.079545454545455,
                "tempo": 120.0
            },
            {
                "start_time": 16.69090909090909,
                "end_time": 16.961363636363636,
                "pitch": 43,
                "velocity": 64,
                "duration": 0.2704545454545446,
                "tempo": 120.0
            },
            {
                "start_time": 16.154545454545453,
                "end_time": 17.23409090909091,
                "pitch": 0,
                "velocity": 64,
                "duration": 1.0795454545454568,
                "tempo": 120.0
            },
            {
                "start_time": 17.23409090909091,
                "end_time": 17.502272727272725,
                "pitch": 38,
                "velocity": 64,
                "duration": 0.26818181818181586,
                "tempo": 120.0
            },
            {
                "start_time": 16.69090909090909,
                "end_time": 17.770454545454545,
                "pitch": 53,
                "velocity": 64,
                "duration": 1.0795454545454533,
                "tempo": 120.0
            },
            {
                "start_time": 17.770454545454545,
                "end_time": 18.036363636363635,
                "pitch": 45,
                "velocity": 64,
                "duration": 0.26590909090909065,
                "tempo": 120.0
            },
            {
                "start_time": 12.927272727272726,
                "end_time": 18.304545454545455,
                "pitch": 7,
                "velocity": 64,
                "duration": 5.377272727272729,
                "tempo": 120.0
            },
            {
                "start_time": 18.304545454545455,
                "end_time": 18.577272727272728,
                "pitch": 40,
                "velocity": 64,
                "duration": 0.2727272727272734,
                "tempo": 120.0
            },
            {
                "start_time": 13.461363636363636,
                "end_time": 18.849999999999998,
                "pitch": 54,
                "velocity": 64,
                "duration": 5.388636363636362,
                "tempo": 120.0
            },
            {
                "start_time": 18.849999999999998,
                "end_time": 19.118181818181817,
                "pitch": 45,
                "velocity": 64,
                "duration": 0.2681818181818194,
                "tempo": 120.0
            },
            {
                "start_time": 18.304545454545455,
                "end_time": 19.384090909090908,
                "pitch": 7,
                "velocity": 64,
                "duration": 1.0795454545454533,
                "tempo": 120.0
            },
            {
                "start_time": 19.384090909090908,
                "end_time": 19.652272727272727,
                "pitch": 40,
                "velocity": 64,
                "duration": 0.2681818181818194,
                "tempo": 120.0
            },
            {
                "start_time": 18.849999999999998,
                "end_time": 19.920454545454543,
                "pitch": 54,
                "velocity": 64,
                "duration": 1.0704545454545453,
                "tempo": 120.0
            },
            {
                "start_time": 19.920454545454543,
                "end_time": 20.193181818181817,
                "pitch": 45,
                "velocity": 64,
                "duration": 0.2727272727272734,
                "tempo": 120.0
            },
            {
                "start_time": 19.384090909090908,
                "end_time": 20.46590909090909,
                "pitch": 7,
                "velocity": 64,
                "duration": 1.081818181818182,
                "tempo": 120.0
            },
            {
                "start_time": 20.46590909090909,
                "end_time": 20.73181818181818,
                "pitch": 40,
                "velocity": 64,
                "duration": 0.26590909090909065,
                "tempo": 120.0
            },
            {
                "start_time": 19.920454545454543,
                "end_time": 21.0,
                "pitch": 54,
                "velocity": 64,
                "duration": 1.0795454545454568,
                "tempo": 120.0
            },
            {
                "start_time": 21.0,
                "end_time": 21.272727272727273,
                "pitch": 45,
                "velocity": 64,
                "duration": 0.2727272727272734,
                "tempo": 120.0
            },
            {
                "start_time": 20.46590909090909,
                "end_time": 21.545454545454543,
                "pitch": 7,
                "velocity": 64,
                "duration": 1.0795454545454533,
                "tempo": 120.0
            },
            {
                "start_time": 21.545454545454543,
                "end_time": 21.811363636363634,
                "pitch": 40,
                "velocity": 64,
                "duration": 0.26590909090909065,
                "tempo": 120.0
            },
            {
                "start_time": 21.0,
                "end_time": 22.081818181818182,
                "pitch": 54,
                "velocity": 64,
                "duration": 1.081818181818182,
                "tempo": 120.0
            },
            {
                "start_time": 22.081818181818182,
                "end_time": 22.352272727272727,
                "pitch": 45,
                "velocity": 64,
                "duration": 0.2704545454545446,
                "tempo": 120.0
            }
        ]
    }
}