{
    "track_id": "05 - Game de check! Koutsuu Anzen (FM) - Driving Technique",
    "mood": "happy",
    "instruments": {
        "Acoustic Grand Piano": [
            {
                "start_time": 0.0,
                "end_time": 0.2659090909090909,
                "pitch": 70,
                "velocity": 64,
                "duration": 0.2659090909090909,
                "tempo": 120.0
            },
            {
                "start_time": 0.28409090909090906,
                "end_time": 0.3659090909090909,
                "pitch": 72,
                "velocity": 64,
                "duration": 0.08181818181818185,
                "tempo": 120.0
            },
            {
                "start_time": 0.3840909090909091,
                "end_time": 0.5681818181818181,
                "pitch": 70,
                "velocity": 64,
                "duration": 0.18409090909090903,
                "tempo": 120.0
            },
            {
                "start_time": 0.5840909090909091,
                "end_time": 0.7704545454545454,
                "pitch": 68,
                "velocity": 64,
                "duration": 0.1863636363636363,
                "tempo": 120.0
            },
            {
                "start_time": 0.7863636363636364,
                "end_time": 0.975,
                "pitch": 67,
                "velocity": 64,
                "duration": 0.1886363636363636,
                "tempo": 120.0
            },
            {
                "start_time": 0.9909090909090909,
                "end_time": 1.1795454545454545,
                "pitch": 68,
                "velocity": 64,
                "duration": 0.1886363636363636,
                "tempo": 120.0
            },
            {
                "start_time": 1.1977272727272728,
                "end_time": 1.5795454545454544,
                "pitch": 70,
                "velocity": 64,
                "duration": 0.3818181818181816,
                "tempo": 120.0
            },
            {
                "start_time": 1.5977272727272727,
                "end_time": 1.784090909090909,
                "pitch": 65,
                "velocity": 64,
                "duration": 0.1863636363636363,
                "tempo": 120.0
            },
            {
                "start_time": 1.8022727272727272,
                "end_time": 1.9909090909090907,
                "pitch": 67,
                "velocity": 64,
                "duration": 0.1886363636363635,
                "tempo": 120.0
            },
            {
                "start_time": 2.006818181818182,
                "end_time": 2.3909090909090907,
                "pitch": 68,
                "velocity": 64,
                "duration": 0.3840909090909088,
                "tempo": 120.0
            },
            {
                "start_time": 2.4068181818181817,
                "end_time": 2.5886363636363634,
                "pitch": 68,
                "velocity": 64,
                "duration": 0.18181818181818166,
                "tempo": 120.0
            },
            {
                "start_time": 2.6045454545454545,
                "end_time": 2.784090909090909,
                "pitch": 68,
                "velocity": 64,
                "duration": 0.17954545454545467,
                "tempo": 120.0
            },
            {
                "start_time": 2.8,
                "end_time": 3.193181818181818,
                "pitch": 70,
                "velocity": 64,
                "duration": 0.3931818181818181,
                "tempo": 120.0
            },
            {
                "start_time": 3.2113636363636364,
                "end_time": 3.4886363636363633,
                "pitch": 70,
                "velocity": 64,
                "duration": 0.2772727272727269,
                "tempo": 120.0
            },
            {
                "start_time": 3.5045454545454544,
                "end_time": 3.586363636363636,
                "pitch": 72,
                "velocity": 64,
                "duration": 0.08181818181818157,
                "tempo": 120.0
            },
            {
                "start_time": 3.602272727272727,
                "end_time": 3.786363636363636,
                "pitch": 70,
                "velocity": 64,
                "duration": 0.18409090909090908,
                "tempo": 120.0
            },
            {
                "start_time": 3.8022727272727272,
                "end_time": 3.9863636363636363,
                "pitch": 68,
                "velocity": 64,
                "duration": 0.18409090909090908,
                "tempo": 120.0
            },
            {
                "start_time": 4.002272727272727,
                "end_time": 4.181818181818182,
                "pitch": 67,
                "velocity": 64,
                "duration": 0.17954545454545467,
                "tempo": 120.0
            },
            {
                "start_time": 4.197727272727272,
                "end_time": 4.377272727272727,
                "pitch": 68,
                "velocity": 64,
                "duration": 0.17954545454545467,
                "tempo": 120.0
            },
            {
                "start_time": 4.3954545454545455,
                "end_time": 4.788636363636363,
                "pitch": 70,
                "velocity": 64,
                "duration": 0.39318181818181763,
                "tempo": 120.0
            },
            {
                "start_time": 4.806818181818182,
                "end_time": 5.2,
                "pitch": 65,
                "velocity": 64,
                "duration": 0.3931818181818185,
                "tempo": 120.0
            },
            {
                "start_time": 5.215909090909091,
                "end_time": 5.593181818181818,
                "pitch": 70,
                "velocity": 64,
                "duration": 0.377272727272727,
                "tempo": 120.0
            },
            {
                "start_time": 5.6090909090909085,
                "end_time": 5.797727272727273,
                "pitch": 67,
                "velocity": 64,
                "duration": 0.18863636363636438,
                "tempo": 120.0
            },
            {
                "start_time": 5.8136363636363635,
                "end_time": 6.3954545454545455,
                "pitch": 63,
                "velocity": 64,
                "duration": 0.581818181818182,
                "tempo": 120.0
            }
        ],
        "Acoustic Bass": [
            {
                "start_time": 0.0,
                "end_time": 0.1659090909090909,
                "pitch": 51,
                "velocity": 51,
                "duration": 0.1659090909090909,
                "tempo": 120.0
            },
            {
                "start_time": 0.18409090909090908,
                "end_time": 0.2659090909090909,
                "pitch": 55,
                "velocity": 51,
                "duration": 0.08181818181818179,
                "tempo": 120.0
            },
            {
                "start_time": 0.28409090909090906,
                "end_time": 0.3659090909090909,
                "pitch": 58,
                "velocity": 51,
                "duration": 0.08181818181818185,
                "tempo": 120.0
            },
            {
                "start_time": 0.3840909090909091,
                "end_time": 0.5681818181818181,
                "pitch": 51,
                "velocity": 51,
                "duration": 0.18409090909090903,
                "tempo": 120.0
            },
            {
                "start_time": 0.5840909090909091,
                "end_time": 0.6681818181818181,
                "pitch": 55,
                "velocity": 51,
                "duration": 0.084090909090909,
                "tempo": 120.0
            },
            {
                "start_time": 0.6863636363636363,
                "end_time": 0.7704545454545454,
                "pitch": 58,
                "velocity": 51,
                "duration": 0.0840909090909091,
                "tempo": 120.0
            },
            {
                "start_time": 0.7863636363636364,
                "end_time": 0.975,
                "pitch": 51,
                "velocity": 51,
                "duration": 0.1886363636363636,
                "tempo": 120.0
            },
            {
                "start_time": 0.9909090909090909,
                "end_time": 1.0772727272727272,
                "pitch": 55,
                "velocity": 51,
                "duration": 0.08636363636363631,
                "tempo": 120.0
            },
            {
                "start_time": 1.0954545454545455,
                "end_time": 1.1795454545454545,
                "pitch": 58,
                "velocity": 51,
                "duration": 0.084090909090909,
                "tempo": 120.0
            },
            {
                "start_time": 1.1977272727272728,
                "end_time": 1.3795454545454544,
                "pitch": 51,
                "velocity": 51,
                "duration": 0.18181818181818166,
                "tempo": 120.0
            },
            {
                "start_time": 1.3977272727272727,
                "end_time": 1.4795454545454545,
                "pitch": 55,
                "velocity": 51,
                "duration": 0.08181818181818179,
                "tempo": 120.0
            },
            {
                "start_time": 1.4977272727272726,
                "end_time": 1.5795454545454544,
                "pitch": 58,
                "velocity": 51,
                "duration": 0.08181818181818179,
                "tempo": 120.0
            },
            {
                "start_time": 1.5977272727272727,
                "end_time": 1.784090909090909,
                "pitch": 46,
                "velocity": 51,
                "duration": 0.1863636363636363,
                "tempo": 120.0
            },
            {
                "start_time": 1.8022727272727272,
                "end_time": 1.8886363636363634,
                "pitch": 53,
                "velocity": 51,
                "duration": 0.0863636363636362,
                "tempo": 120.0
            },
            {
                "start_time": 1.9045454545454545,
                "end_time": 1.9909090909090907,
                "pitch": 56,
                "velocity": 51,
                "duration": 0.0863636363636362,
                "tempo": 120.0
            },
            {
                "start_time": 2.006818181818182,
                "end_time": 2.190909090909091,
                "pitch": 46,
                "velocity": 51,
                "duration": 0.18409090909090908,
                "tempo": 120.0
            },
            {
                "start_time": 2.209090909090909,
                "end_time": 2.290909090909091,
                "pitch": 50,
                "velocity": 51,
                "duration": 0.08181818181818201,
                "tempo": 120.0
            },
            {
                "start_time": 2.309090909090909,
                "end_time": 2.3909090909090907,
                "pitch": 56,
                "velocity": 51,
                "duration": 0.08181818181818157,
                "tempo": 120.0
            },
            {
                "start_time": 2.4068181818181817,
                "end_time": 2.5886363636363634,
                "pitch": 51,
                "velocity": 51,
                "duration": 0.18181818181818166,
                "tempo": 120.0
            },
            {
                "start_time": 2.6045454545454545,
                "end_time": 2.686363636363636,
                "pitch": 55,
                "velocity": 51,
                "duration": 0.08181818181818157,
                "tempo": 120.0
            },
            {
                "start_time": 2.702272727272727,
                "end_time": 2.784090909090909,
                "pitch": 58,
                "velocity": 51,
                "duration": 0.08181818181818201,
                "tempo": 120.0
            },
            {
                "start_time": 2.8,
                "end_time": 2.9886363636363633,
                "pitch": 51,
                "velocity": 51,
                "duration": 0.1886363636363635,
                "tempo": 120.0
            },
            {
                "start_time": 3.0045454545454544,
                "end_time": 3.090909090909091,
                "pitch": 55,
                "velocity": 51,
                "duration": 0.08636363636363642,
                "tempo": 120.0
            },
            {
                "start_time": 3.109090909090909,
                "end_time": 3.193181818181818,
                "pitch": 58,
                "velocity": 51,
                "duration": 0.084090909090909,
                "tempo": 120.0
            },
            {
                "start_time": 3.2113636363636364,
                "end_time": 3.3909090909090907,
                "pitch": 51,
                "velocity": 51,
                "duration": 0.17954545454545423,
                "tempo": 120.0
            },
            {
                "start_time": 3.4068181818181817,
                "end_time": 3.4886363636363633,
                "pitch": 55,
                "velocity": 51,
                "duration": 0.08181818181818157,
                "tempo": 120.0
            },
            {
                "start_time": 3.5045454545454544,
                "end_time": 3.586363636363636,
                "pitch": 58,
                "velocity": 51,
                "duration": 0.08181818181818157,
                "tempo": 120.0
            },
            {
                "start_time": 3.602272727272727,
                "end_time": 3.786363636363636,
                "pitch": 51,
                "velocity": 51,
                "duration": 0.18409090909090908,
                "tempo": 120.0
            },
            {
                "start_time": 3.8022727272727272,
                "end_time": 3.8863636363636362,
                "pitch": 55,
                "velocity": 51,
                "duration": 0.084090909090909,
                "tempo": 120.0
            },
            {
                "start_time": 3.902272727272727,
                "end_time": 3.9863636363636363,
                "pitch": 58,
                "velocity": 51,
                "duration": 0.08409090909090944,
                "tempo": 120.0
            },
            {
                "start_time": 4.002272727272727,
                "end_time": 4.181818181818182,
                "pitch": 51,
                "velocity": 51,
                "duration": 0.17954545454545467,
                "tempo": 120.0
            },
            {
                "start_time": 4.197727272727272,
                "end_time": 4.279545454545454,
                "pitch": 55,
                "velocity": 51,
                "duration": 0.08181818181818201,
                "tempo": 120.0
            },
            {
                "start_time": 4.297727272727273,
                "end_time": 4.377272727272727,
                "pitch": 58,
                "velocity": 51,
                "duration": 0.07954545454545414,
                "tempo": 120.0
            },
            {
                "start_time": 4.3954545454545455,
                "end_time": 4.584090909090909,
                "pitch": 51,
                "velocity": 51,
                "duration": 0.1886363636363635,
                "tempo": 120.0
            },
            {
                "start_time": 4.6,
                "end_time": 4.6863636363636365,
                "pitch": 55,
                "velocity": 51,
                "duration": 0.08636363636363686,
                "tempo": 120.0
            },
            {
                "start_time": 4.702272727272727,
                "end_time": 4.788636363636363,
                "pitch": 58,
                "velocity": 51,
                "duration": 0.08636363636363598,
                "tempo": 120.0
            },
            {
                "start_time": 4.806818181818182,
                "end_time": 4.993181818181818,
                "pitch": 46,
                "velocity": 51,
                "duration": 0.1863636363636365,
                "tempo": 120.0
            },
            {
                "start_time": 5.011363636363636,
                "end_time": 5.097727272727273,
                "pitch": 53,
                "velocity": 51,
                "duration": 0.08636363636363686,
                "tempo": 120.0
            },
            {
                "start_time": 5.113636363636363,
                "end_time": 5.2,
                "pitch": 56,
                "velocity": 51,
                "duration": 0.08636363636363686,
                "tempo": 120.0
            },
            {
                "start_time": 5.215909090909091,
                "end_time": 5.3954545454545455,
                "pitch": 46,
                "velocity": 51,
                "duration": 0.17954545454545467,
                "tempo": 120.0
            },
            {
                "start_time": 5.413636363636363,
                "end_time": 5.495454545454545,
                "pitch": 50,
                "velocity": 51,
                "duration": 0.08181818181818201,
                "tempo": 120.0
            },
            {
                "start_time": 5.511363636363636,
                "end_time": 5.593181818181818,
                "pitch": 56,
                "velocity": 51,
                "duration": 0.08181818181818201,
                "tempo": 120.0
            },
            {
                "start_time": 5.6090909090909085,
                "end_time": 5.797727272727273,
                "pitch": 51,
                "velocity": 51,
                "duration": 0.18863636363636438,
                "tempo": 120.0
            },
            {
                "start_time": 5.8136363636363635,
                "end_time": 5.8999999999999995,
                "pitch": 55,
                "velocity": 51,
                "duration": 0.08636363636363598,
                "tempo": 120.0
            }
        ],
        "Clarinet": [
            {
                "start_time": 0.0,
                "end_time": 0.2659090909090909,
                "pitch": 79,
                "velocity": 40,
                "duration": 0.2659090909090909,
                "tempo": 120.0
            },
            {
                "start_time": 0.28409090909090906,
                "end_time": 0.3659090909090909,
                "pitch": 80,
                "velocity": 40,
                "duration": 0.08181818181818185,
                "tempo": 120.0
            },
            {
                "start_time": 0.3840909090909091,
                "end_time": 0.5681818181818181,
                "pitch": 79,
                "velocity": 40,
                "duration": 0.18409090909090903,
                "tempo": 120.0
            },
            {
                "start_time": 0.5840909090909091,
                "end_time": 0.7704545454545454,
                "pitch": 77,
                "velocity": 40,
                "duration": 0.1863636363636363,
                "tempo": 120.0
            },
            {
                "start_time": 0.7863636363636364,
                "end_time": 0.975,
                "pitch": 75,
                "velocity": 40,
                "duration": 0.1886363636363636,
                "tempo": 120.0
            },
            {
                "start_time": 0.9909090909090909,
                "end_time": 1.0772727272727272,
                "pitch": 75,
                "velocity": 40,
                "duration": 0.08636363636363631,
                "tempo": 120.0
            },
            {
                "start_time": 1.0954545454545455,
                "end_time": 1.1795454545454545,
                "pitch": 75,
                "velocity": 40,
                "duration": 0.084090909090909,
                "tempo": 120.0
            },
            {
                "start_time": 1.1977272727272728,
                "end_time": 1.5795454545454544,
                "pitch": 79,
                "velocity": 40,
                "duration": 0.3818181818181816,
                "tempo": 120.0
            },
            {
                "start_time": 1.5977272727272727,
                "end_time": 1.784090909090909,
                "pitch": 74,
                "velocity": 40,
                "duration": 0.1863636363636363,
                "tempo": 120.0
            },
            {
                "start_time": 1.8022727272727272,
                "end_time": 1.8886363636363634,
                "pitch": 74,
                "velocity": 40,
                "duration": 0.0863636363636362,
                "tempo": 120.0
            },
            {
                "start_time": 1.9045454545454545,
                "end_time": 1.9909090909090907,
                "pitch": 75,
                "velocity": 40,
                "duration": 0.0863636363636362,
                "tempo": 120.0
            },
            {
                "start_time": 2.006818181818182,
                "end_time": 2.3909090909090907,
                "pitch": 77,
                "velocity": 40,
                "duration": 0.3840909090909088,
                "tempo": 120.0
            },
            {
                "start_time": 2.4068181818181817,
                "end_time": 2.5886363636363634,
                "pitch": 77,
                "velocity": 40,
                "duration": 0.18181818181818166,
                "tempo": 120.0
            },
            {
                "start_time": 2.6045454545454545,
                "end_time": 2.686363636363636,
                "pitch": 77,
                "velocity": 40,
                "duration": 0.08181818181818157,
                "tempo": 120.0
            },
            {
                "start_time": 2.702272727272727,
                "end_time": 2.784090909090909,
                "pitch": 77,
                "velocity": 40,
                "duration": 0.08181818181818201,
                "tempo": 120.0
            },
            {
                "start_time": 2.8,
                "end_time": 3.193181818181818,
                "pitch": 79,
                "velocity": 40,
                "duration": 0.3931818181818181,
                "tempo": 120.0
            },
            {
                "start_time": 3.2113636363636364,
                "end_time": 3.4886363636363633,
                "pitch": 79,
                "velocity": 40,
                "duration": 0.2772727272727269,
                "tempo": 120.0
            },
            {
                "start_time": 3.5045454545454544,
                "end_time": 3.586363636363636,
                "pitch": 80,
                "velocity": 40,
                "duration": 0.08181818181818157,
                "tempo": 120.0
            },
            {
                "start_time": 3.602272727272727,
                "end_time": 3.786363636363636,
                "pitch": 79,
                "velocity": 40,
                "duration": 0.18409090909090908,
                "tempo": 120.0
            },
            {
                "start_time": 3.8022727272727272,
                "end_time": 3.9863636363636363,
                "pitch": 77,
                "velocity": 40,
                "duration": 0.18409090909090908,
                "tempo": 120.0
            },
            {
                "start_time": 4.002272727272727,
                "end_time": 4.181818181818182,
                "pitch": 75,
                "velocity": 40,
                "duration": 0.17954545454545467,
                "tempo": 120.0
            },
            {
                "start_time": 4.197727272727272,
                "end_time": 4.279545454545454,
                "pitch": 75,
                "velocity": 40,
                "duration": 0.08181818181818201,
                "tempo": 120.0
            },
            {
                "start_time": 4.297727272727273,
                "end_time": 4.377272727272727,
                "pitch": 75,
                "velocity": 40,
                "duration": 0.07954545454545414,
                "tempo": 120.0
            },
            {
                "start_time": 4.3954545454545455,
                "end_time": 4.788636363636363,
                "pitch": 79,
                "velocity": 40,
                "duration": 0.39318181818181763,
                "tempo": 120.0
            },
            {
                "start_time": 4.806818181818182,
                "end_time": 4.993181818181818,
                "pitch": 74,
                "velocity": 40,
                "duration": 0.1863636363636365,
                "tempo": 120.0
            },
            {
                "start_time": 5.011363636363636,
                "end_time": 5.097727272727273,
                "pitch": 74,
                "velocity": 40,
                "duration": 0.08636363636363686,
                "tempo": 120.0
            },
            {
                "start_time": 5.113636363636363,
                "end_time": 5.2,
                "pitch": 75,
                "velocity": 40,
                "duration": 0.08636363636363686,
                "tempo": 120.0
            },
            {
                "start_time": 5.215909090909091,
                "end_time": 5.3954545454545455,
                "pitch": 77,
                "velocity": 40,
                "duration": 0.17954545454545467,
                "tempo": 120.0
            },
            {
                "start_time": 5.413636363636363,
                "end_time": 5.495454545454545,
                "pitch": 77,
                "velocity": 40,
                "duration": 0.08181818181818201,
                "tempo": 120.0
            },
            {
                "start_time": 5.511363636363636,
                "end_time": 5.593181818181818,
                "pitch": 79,
                "velocity": 40,
                "duration": 0.08181818181818201,
                "tempo": 120.0
            },
            {
                "start_time": 5.6090909090909085,
                "end_time": 5.797727272727273,
                "pitch": 75,
                "velocity": 40,
                "duration": 0.18863636363636438,
                "tempo": 120.0
            },
            {
                "start_time": 5.8136363636363635,
                "end_time": 6.3954545454545455,
                "pitch": 70,
                "velocity": 40,
                "duration": 0.581818181818182,
                "tempo": 120.0
            }
        ]
    }
}