{
    "track_id": "05 Area Clear",
    "mood": "happy",
    "instruments": {
        "Electric Piano 1": [
            {
                "start_time": 1.8863636363636362,
                "end_time": 2.047727272727273,
                "pitch": 48,
                "velocity": 51,
                "duration": 0.1613636363636366,
                "tempo": 120.0
            },
            {
                "start_time": 2.047727272727273,
                "end_time": 2.0818181818181816,
                "pitch": 48,
                "velocity": 51,
                "duration": 0.03409090909090873,
                "tempo": 120.0
            },
            {
                "start_time": 2.0818181818181816,
                "end_time": 2.184090909090909,
                "pitch": 47,
                "velocity": 51,
                "duration": 0.10227272727272751,
                "tempo": 120.0
            },
            {
                "start_time": 2.184090909090909,
                "end_time": 2.284090909090909,
                "pitch": 45,
                "velocity": 51,
                "duration": 0.10000000000000009,
                "tempo": 120.0
            },
            {
                "start_time": 2.286363636363636,
                "end_time": 2.3886363636363637,
                "pitch": 47,
                "velocity": 51,
                "duration": 0.10227272727272751,
                "tempo": 120.0
            },
            {
                "start_time": 2.3886363636363637,
                "end_time": 2.5863636363636364,
                "pitch": 40,
                "velocity": 51,
                "duration": 0.19772727272727275,
                "tempo": 120.0
            },
            {
                "start_time": 2.5886363636363634,
                "end_time": 2.881818181818182,
                "pitch": 52,
                "velocity": 51,
                "duration": 0.29318181818181843,
                "tempo": 120.0
            },
            {
                "start_time": 2.881818181818182,
                "end_time": 2.984090909090909,
                "pitch": 50,
                "velocity": 51,
                "duration": 0.10227272727272707,
                "tempo": 120.0
            },
            {
                "start_time": 2.984090909090909,
                "end_time": 3.0863636363636364,
                "pitch": 48,
                "velocity": 51,
                "duration": 0.10227272727272751,
                "tempo": 120.0
            },
            {
                "start_time": 3.0863636363636364,
                "end_time": 3.1886363636363635,
                "pitch": 50,
                "velocity": 51,
                "duration": 0.10227272727272707,
                "tempo": 120.0
            },
            {
                "start_time": 3.1886363636363635,
                "end_time": 3.4863636363636363,
                "pitch": 47,
                "velocity": 51,
                "duration": 0.29772727272727284,
                "tempo": 120.0
            },
            {
                "start_time": 2.047727272727273,
                "end_time": 3.65,
                "pitch": 36,
                "velocity": 51,
                "duration": 1.602272727272727,
                "tempo": 120.0
            },
            {
                "start_time": 3.4886363636363633,
                "end_time": 3.65,
                "pitch": 48,
                "velocity": 51,
                "duration": 0.1613636363636366,
                "tempo": 120.0
            },
            {
                "start_time": 3.65,
                "end_time": 3.6818181818181817,
                "pitch": 48,
                "velocity": 51,
                "duration": 0.031818181818181746,
                "tempo": 120.0
            },
            {
                "start_time": 3.684090909090909,
                "end_time": 3.7818181818181817,
                "pitch": 47,
                "velocity": 51,
                "duration": 0.09772727272727266,
                "tempo": 120.0
            },
            {
                "start_time": 3.7840909090909087,
                "end_time": 3.881818181818182,
                "pitch": 45,
                "velocity": 51,
                "duration": 0.0977272727272731,
                "tempo": 120.0
            },
            {
                "start_time": 3.881818181818182,
                "end_time": 3.9818181818181815,
                "pitch": 47,
                "velocity": 51,
                "duration": 0.09999999999999964,
                "tempo": 120.0
            },
            {
                "start_time": 3.9818181818181815,
                "end_time": 4.181818181818182,
                "pitch": 40,
                "velocity": 51,
                "duration": 0.20000000000000018,
                "tempo": 120.0
            },
            {
                "start_time": 4.181818181818182,
                "end_time": 4.4840909090909085,
                "pitch": 52,
                "velocity": 51,
                "duration": 0.3022727272727268,
                "tempo": 120.0
            },
            {
                "start_time": 4.4840909090909085,
                "end_time": 4.581818181818182,
                "pitch": 50,
                "velocity": 51,
                "duration": 0.09772727272727355,
                "tempo": 120.0
            },
            {
                "start_time": 4.584090909090909,
                "end_time": 4.681818181818182,
                "pitch": 48,
                "velocity": 51,
                "duration": 0.09772727272727266,
                "tempo": 120.0
            },
            {
                "start_time": 4.681818181818182,
                "end_time": 4.781818181818181,
                "pitch": 50,
                "velocity": 51,
                "duration": 0.09999999999999964,
                "tempo": 120.0
            },
            {
                "start_time": 4.781818181818181,
                "end_time": 5.081818181818182,
                "pitch": 47,
                "velocity": 51,
                "duration": 0.3000000000000007,
                "tempo": 120.0
            },
            {
                "start_time": 5.084090909090909,
                "end_time": 5.25,
                "pitch": 48,
                "velocity": 51,
                "duration": 0.165909090909091,
                "tempo": 120.0
            },
            {
                "start_time": 5.25,
                "end_time": 5.284090909090909,
                "pitch": 48,
                "velocity": 51,
                "duration": 0.03409090909090917,
                "tempo": 120.0
            },
            {
                "start_time": 5.284090909090909,
                "end_time": 5.384090909090909,
                "pitch": 47,
                "velocity": 51,
                "duration": 0.09999999999999964,
                "tempo": 120.0
            },
            {
                "start_time": 5.384090909090909,
                "end_time": 5.4840909090909085,
                "pitch": 45,
                "velocity": 51,
                "duration": 0.09999999999999964,
                "tempo": 120.0
            },
            {
                "start_time": 5.486363636363636,
                "end_time": 5.584090909090909,
                "pitch": 50,
                "velocity": 51,
                "duration": 0.09772727272727266,
                "tempo": 120.0
            },
            {
                "start_time": 5.586363636363636,
                "end_time": 5.784090909090909,
                "pitch": 47,
                "velocity": 51,
                "duration": 0.1977272727272732,
                "tempo": 120.0
            },
            {
                "start_time": 5.786363636363636,
                "end_time": 6.084090909090909,
                "pitch": 52,
                "velocity": 51,
                "duration": 0.29772727272727284,
                "tempo": 120.0
            },
            {
                "start_time": 6.086363636363636,
                "end_time": 6.184090909090909,
                "pitch": 47,
                "velocity": 51,
                "duration": 0.09772727272727266,
                "tempo": 120.0
            },
            {
                "start_time": 6.184090909090909,
                "end_time": 6.286363636363636,
                "pitch": 45,
                "velocity": 51,
                "duration": 0.10227272727272751,
                "tempo": 120.0
            },
            {
                "start_time": 6.286363636363636,
                "end_time": 6.486363636363636,
                "pitch": 53,
                "velocity": 51,
                "duration": 0.20000000000000018,
                "tempo": 120.0
            },
            {
                "start_time": 6.486363636363636,
                "end_time": 6.584090909090909,
                "pitch": 52,
                "velocity": 51,
                "duration": 0.09772727272727266,
                "tempo": 120.0
            },
            {
                "start_time": 6.584090909090909,
                "end_time": 6.681818181818182,
                "pitch": 50,
                "velocity": 51,
                "duration": 0.09772727272727266,
                "tempo": 120.0
            },
            {
                "start_time": 6.681818181818182,
                "end_time": 7.081818181818181,
                "pitch": 52,
                "velocity": 51,
                "duration": 0.39999999999999947,
                "tempo": 120.0
            },
            {
                "start_time": 7.081818181818181,
                "end_time": 7.4818181818181815,
                "pitch": 54,
                "velocity": 51,
                "duration": 0.40000000000000036,
                "tempo": 120.0
            },
            {
                "start_time": 7.4840909090909085,
                "end_time": 7.879545454545454,
                "pitch": 56,
                "velocity": 51,
                "duration": 0.3954545454545455,
                "tempo": 120.0
            },
            {
                "start_time": 7.879545454545454,
                "end_time": 8.279545454545454,
                "pitch": 52,
                "velocity": 51,
                "duration": 0.40000000000000036,
                "tempo": 120.0
            },
            {
                "start_time": 8.279545454545454,
                "end_time": 8.579545454545453,
                "pitch": 53,
                "velocity": 51,
                "duration": 0.29999999999999893,
                "tempo": 120.0
            },
            {
                "start_time": 8.579545454545453,
                "end_time": 8.779545454545454,
                "pitch": 62,
                "velocity": 51,
                "duration": 0.20000000000000107,
                "tempo": 120.0
            },
            {
                "start_time": 8.781818181818181,
                "end_time": 8.879545454545454,
                "pitch": 60,
                "velocity": 51,
                "duration": 0.09772727272727266,
                "tempo": 120.0
            },
            {
                "start_time": 8.881818181818181,
                "end_time": 8.979545454545454,
                "pitch": 59,
                "velocity": 51,
                "duration": 0.09772727272727266,
                "tempo": 120.0
            },
            {
                "start_time": 8.98181818181818,
                "end_time": 9.081818181818182,
                "pitch": 57,
                "velocity": 51,
                "duration": 0.10000000000000142,
                "tempo": 120.0
            },
            {
                "start_time": 9.884090909090908,
                "end_time": 10.181818181818182,
                "pitch": 62,
                "velocity": 51,
                "duration": 0.29772727272727373,
                "tempo": 120.0
            },
            {
                "start_time": 10.184090909090909,
                "end_time": 10.48409090909091,
                "pitch": 59,
                "velocity": 51,
                "duration": 0.3000000000000007,
                "tempo": 120.0
            },
            {
                "start_time": 10.486363636363636,
                "end_time": 10.652272727272727,
                "pitch": 55,
                "velocity": 51,
                "duration": 0.165909090909091,
                "tempo": 120.0
            },
            {
                "start_time": 10.652272727272727,
                "end_time": 10.686363636363636,
                "pitch": 55,
                "velocity": 51,
                "duration": 0.034090909090908283,
                "tempo": 120.0
            },
            {
                "start_time": 10.686363636363636,
                "end_time": 10.886363636363637,
                "pitch": 57,
                "velocity": 51,
                "duration": 0.20000000000000107,
                "tempo": 120.0
            }
        ]
    }
}