{
    "track_id": "05 Mission 1 - Practice",
    "mood": "happy",
    "instruments": {
        "Trumpet": [
            {
                "start_time": 0.00909090909090909,
                "end_time": 0.056818181818181816,
                "pitch": 57,
                "velocity": 51,
                "duration": 0.04772727272727273,
                "tempo": 120.0
            },
            {
                "start_time": 0.09318181818181817,
                "end_time": 0.16363636363636364,
                "pitch": 57,
                "velocity": 51,
                "duration": 0.07045454545454546,
                "tempo": 120.0
            },
            {
                "start_time": 0.19999999999999998,
                "end_time": 0.2659090909090909,
                "pitch": 57,
                "velocity": 51,
                "duration": 0.06590909090909089,
                "tempo": 120.0
            },
            {
                "start_time": 0.28409090909090906,
                "end_time": 0.35,
                "pitch": 57,
                "velocity": 51,
                "duration": 0.06590909090909092,
                "tempo": 120.0
            },
            {
                "start_time": 0.3840909090909091,
                "end_time": 0.5499999999999999,
                "pitch": 57,
                "velocity": 51,
                "duration": 0.16590909090909084,
                "tempo": 120.0
            },
            {
                "start_time": 0.5681818181818181,
                "end_time": 0.9090909090909091,
                "pitch": 56,
                "velocity": 51,
                "duration": 0.34090909090909094,
                "tempo": 120.0
            },
            {
                "start_time": 0.9431818181818181,
                "end_time": 1.2931818181818182,
                "pitch": 56,
                "velocity": 51,
                "duration": 0.3500000000000001,
                "tempo": 120.0
            },
            {
                "start_time": 1.3295454545454546,
                "end_time": 1.4818181818181817,
                "pitch": 56,
                "velocity": 51,
                "duration": 0.15227272727272712,
                "tempo": 120.0
            },
            {
                "start_time": 1.5204545454545453,
                "end_time": 1.5863636363636362,
                "pitch": 57,
                "velocity": 51,
                "duration": 0.06590909090909092,
                "tempo": 120.0
            },
            {
                "start_time": 1.6204545454545454,
                "end_time": 1.6727272727272726,
                "pitch": 57,
                "velocity": 51,
                "duration": 0.05227272727272725,
                "tempo": 120.0
            },
            {
                "start_time": 1.7068181818181818,
                "end_time": 1.7727272727272727,
                "pitch": 57,
                "velocity": 51,
                "duration": 0.06590909090909092,
                "tempo": 120.0
            },
            {
                "start_time": 1.8045454545454545,
                "end_time": 1.8704545454545454,
                "pitch": 57,
                "velocity": 51,
                "duration": 0.06590909090909092,
                "tempo": 120.0
            },
            {
                "start_time": 1.8863636363636362,
                "end_time": 2.047727272727273,
                "pitch": 57,
                "velocity": 51,
                "duration": 0.1613636363636366,
                "tempo": 120.0
            },
            {
                "start_time": 2.0818181818181816,
                "end_time": 2.415909090909091,
                "pitch": 56,
                "velocity": 51,
                "duration": 0.33409090909090944,
                "tempo": 120.0
            },
            {
                "start_time": 2.452272727272727,
                "end_time": 2.7909090909090906,
                "pitch": 56,
                "velocity": 51,
                "duration": 0.3386363636363634,
                "tempo": 120.0
            },
            {
                "start_time": 2.8249999999999997,
                "end_time": 2.9749999999999996,
                "pitch": 56,
                "velocity": 51,
                "duration": 0.1499999999999999,
                "tempo": 120.0
            },
            {
                "start_time": 3.0113636363636362,
                "end_time": 3.0749999999999997,
                "pitch": 57,
                "velocity": 51,
                "duration": 0.06363636363636349,
                "tempo": 120.0
            },
            {
                "start_time": 3.1113636363636363,
                "end_time": 3.1772727272727272,
                "pitch": 57,
                "velocity": 51,
                "duration": 0.06590909090909092,
                "tempo": 120.0
            },
            {
                "start_time": 3.2113636363636364,
                "end_time": 3.2613636363636362,
                "pitch": 57,
                "velocity": 51,
                "duration": 0.04999999999999982,
                "tempo": 120.0
            },
            {
                "start_time": 3.2977272727272724,
                "end_time": 3.3659090909090907,
                "pitch": 57,
                "velocity": 51,
                "duration": 0.06818181818181834,
                "tempo": 120.0
            },
            {
                "start_time": 3.4,
                "end_time": 3.5545454545454542,
                "pitch": 57,
                "velocity": 51,
                "duration": 0.15454545454545432,
                "tempo": 120.0
            },
            {
                "start_time": 3.590909090909091,
                "end_time": 3.9318181818181817,
                "pitch": 56,
                "velocity": 51,
                "duration": 0.34090909090909083,
                "tempo": 120.0
            },
            {
                "start_time": 3.965909090909091,
                "end_time": 4.288636363636363,
                "pitch": 56,
                "velocity": 51,
                "duration": 0.3227272727272723,
                "tempo": 120.0
            },
            {
                "start_time": 4.322727272727272,
                "end_time": 4.4840909090909085,
                "pitch": 56,
                "velocity": 51,
                "duration": 0.16136363636363615,
                "tempo": 120.0
            },
            {
                "start_time": 4.518181818181818,
                "end_time": 4.5659090909090905,
                "pitch": 57,
                "velocity": 51,
                "duration": 0.04772727272727284,
                "tempo": 120.0
            },
            {
                "start_time": 4.597727272727273,
                "end_time": 4.663636363636363,
                "pitch": 57,
                "velocity": 51,
                "duration": 0.06590909090909047,
                "tempo": 120.0
            },
            {
                "start_time": 4.695454545454545,
                "end_time": 4.763636363636364,
                "pitch": 57,
                "velocity": 51,
                "duration": 0.06818181818181834,
                "tempo": 120.0
            },
            {
                "start_time": 4.8,
                "end_time": 4.85,
                "pitch": 57,
                "velocity": 51,
                "duration": 0.04999999999999982,
                "tempo": 120.0
            },
            {
                "start_time": 4.886363636363636,
                "end_time": 5.056818181818182,
                "pitch": 57,
                "velocity": 51,
                "duration": 0.17045454545454586,
                "tempo": 120.0
            },
            {
                "start_time": 5.075,
                "end_time": 5.415909090909091,
                "pitch": 56,
                "velocity": 51,
                "duration": 0.34090909090909083,
                "tempo": 120.0
            },
            {
                "start_time": 5.45,
                "end_time": 5.8,
                "pitch": 56,
                "velocity": 51,
                "duration": 0.34999999999999964,
                "tempo": 120.0
            },
            {
                "start_time": 5.836363636363636,
                "end_time": 5.997727272727272,
                "pitch": 56,
                "velocity": 51,
                "duration": 0.16136363636363615,
                "tempo": 120.0
            },
            {
                "start_time": 54.10681818181818,
                "end_time": 54.17045454545454,
                "pitch": 81,
                "velocity": 51,
                "duration": 0.0636363636363626,
                "tempo": 120.0
            },
            {
                "start_time": 54.20454545454545,
                "end_time": 54.27045454545454,
                "pitch": 81,
                "velocity": 51,
                "duration": 0.06590909090908781,
                "tempo": 120.0
            },
            {
                "start_time": 54.304545454545455,
                "end_time": 54.35454545454545,
                "pitch": 81,
                "velocity": 51,
                "duration": 0.04999999999999716,
                "tempo": 120.0
            },
            {
                "start_time": 54.38863636363636,
                "end_time": 54.45454545454545,
                "pitch": 81,
                "velocity": 51,
                "duration": 0.06590909090909491,
                "tempo": 120.0
            },
            {
                "start_time": 54.490909090909085,
                "end_time": 54.64090909090909,
                "pitch": 81,
                "velocity": 51,
                "duration": 0.15000000000000568,
                "tempo": 120.0
            },
            {
                "start_time": 54.675,
                "end_time": 55.01590909090909,
                "pitch": 81,
                "velocity": 51,
                "duration": 0.3409090909090935,
                "tempo": 120.0
            },
            {
                "start_time": 55.05,
                "end_time": 55.38409090909091,
                "pitch": 81,
                "velocity": 51,
                "duration": 0.33409090909091077,
                "tempo": 120.0
            },
            {
                "start_time": 55.418181818181814,
                "end_time": 55.57954545454545,
                "pitch": 81,
                "velocity": 51,
                "duration": 0.16136363636363882,
                "tempo": 120.0
            },
            {
                "start_time": 55.615909090909085,
                "end_time": 55.66136363636363,
                "pitch": 81,
                "velocity": 51,
                "duration": 0.045454545454546746,
                "tempo": 120.0
            },
            {
                "start_time": 55.695454545454545,
                "end_time": 55.75909090909091,
                "pitch": 81,
                "velocity": 51,
                "duration": 0.0636363636363626,
                "tempo": 120.0
            },
            {
                "start_time": 55.793181818181814,
                "end_time": 55.85909090909091,
                "pitch": 81,
                "velocity": 51,
                "duration": 0.06590909090909491,
                "tempo": 120.0
            },
            {
                "start_time": 55.89545454545454,
                "end_time": 55.945454545454545,
                "pitch": 81,
                "velocity": 51,
                "duration": 0.05000000000000426,
                "tempo": 120.0
            },
            {
                "start_time": 55.98181818181818,
                "end_time": 56.152272727272724,
                "pitch": 81,
                "velocity": 51,
                "duration": 0.17045454545454675,
                "tempo": 120.0
            },
            {
                "start_time": 56.17045454545454,
                "end_time": 56.502272727272725,
                "pitch": 81,
                "velocity": 51,
                "duration": 0.33181818181818556,
                "tempo": 120.0
            },
            {
                "start_time": 56.53636363636363,
                "end_time": 56.89545454545454,
                "pitch": 81,
                "velocity": 51,
                "duration": 0.35909090909090935,
                "tempo": 120.0
            },
            {
                "start_time": 56.93181818181818,
                "end_time": 57.08181818181818,
                "pitch": 81,
                "velocity": 51,
                "duration": 0.14999999999999858,
                "tempo": 120.0
            },
            {
                "start_time": 57.11818181818182,
                "end_time": 57.18181818181818,
                "pitch": 81,
                "velocity": 51,
                "duration": 0.0636363636363626,
                "tempo": 120.0
            },
            {
                "start_time": 57.215909090909086,
                "end_time": 57.26590909090909,
                "pitch": 81,
                "velocity": 51,
                "duration": 0.05000000000000426,
                "tempo": 120.0
            },
            {
                "start_time": 57.3,
                "end_time": 57.365909090909085,
                "pitch": 81,
                "velocity": 51,
                "duration": 0.06590909090908781,
                "tempo": 120.0
            },
            {
                "start_time": 57.39772727272727,
                "end_time": 57.46363636363636,
                "pitch": 81,
                "velocity": 51,
                "duration": 0.06590909090908781,
                "tempo": 120.0
            },
            {
                "start_time": 57.49545454545454,
                "end_time": 57.64090909090909,
                "pitch": 81,
                "velocity": 51,
                "duration": 0.14545454545454817,
                "tempo": 120.0
            },
            {
                "start_time": 57.675,
                "end_time": 58.084090909090904,
                "pitch": 81,
                "velocity": 51,
                "duration": 0.4090909090909065,
                "tempo": 120.0
            },
            {
                "start_time": 58.10681818181818,
                "end_time": 58.54090909090909,
                "pitch": 81,
                "velocity": 51,
                "duration": 0.4340909090909122,
                "tempo": 120.0
            },
            {
                "start_time": 58.584090909090904,
                "end_time": 58.768181818181816,
                "pitch": 81,
                "velocity": 51,
                "duration": 0.1840909090909122,
                "tempo": 120.0
            },
            {
                "start_time": 58.81363636363636,
                "end_time": 58.875,
                "pitch": 81,
                "velocity": 51,
                "duration": 0.0613636363636374,
                "tempo": 120.0
            },
            {
                "start_time": 58.90909090909091,
                "end_time": 58.97272727272727,
                "pitch": 81,
                "velocity": 51,
                "duration": 0.0636363636363626,
                "tempo": 120.0
            },
            {
                "start_time": 59.006818181818176,
                "end_time": 59.054545454545455,
                "pitch": 81,
                "velocity": 51,
                "duration": 0.04772727272727906,
                "tempo": 120.0
            },
            {
                "start_time": 59.08863636363636,
                "end_time": 59.152272727272724,
                "pitch": 81,
                "velocity": 51,
                "duration": 0.0636363636363626,
                "tempo": 120.0
            },
            {
                "start_time": 59.18636363636363,
                "end_time": 59.33863636363636,
                "pitch": 81,
                "velocity": 51,
                "duration": 0.1522727272727309,
                "tempo": 120.0
            },
            {
                "start_time": 59.375,
                "end_time": 59.724999999999994,
                "pitch": 81,
                "velocity": 51,
                "duration": 0.3499999999999943,
                "tempo": 120.0
            },
            {
                "start_time": 59.75909090909091,
                "end_time": 60.084090909090904,
                "pitch": 81,
                "velocity": 51,
                "duration": 0.32499999999999574,
                "tempo": 120.0
            },
            {
                "start_time": 60.11818181818182,
                "end_time": 60.27954545454545,
                "pitch": 81,
                "velocity": 51,
                "duration": 0.1613636363636317,
                "tempo": 120.0
            }
        ],
        "Electric Piano 1": [
            {
                "start_time": 17.686363636363634,
                "end_time": 17.836363636363636,
                "pitch": 57,
                "velocity": 40,
                "duration": 0.15000000000000213,
                "tempo": 120.0
            },
            {
                "start_time": 17.870454545454546,
                "end_time": 18.03181818181818,
                "pitch": 57,
                "velocity": 40,
                "duration": 0.16136363636363527,
                "tempo": 120.0
            },
            {
                "start_time": 18.05,
                "end_time": 18.211363636363636,
                "pitch": 55,
                "velocity": 40,
                "duration": 0.16136363636363527,
                "tempo": 120.0
            }
        ],
        "Lead 2 (sawtooth)": [
            {
                "start_time": 17.686363636363634,
                "end_time": 17.836363636363636,
                "pitch": 52,
                "velocity": 80,
                "duration": 0.15000000000000213,
                "tempo": 120.0
            },
            {
                "start_time": 17.870454545454546,
                "end_time": 18.03181818181818,
                "pitch": 52,
                "velocity": 80,
                "duration": 0.16136363636363527,
                "tempo": 120.0
            },
            {
                "start_time": 18.05,
                "end_time": 18.211363636363636,
                "pitch": 52,
                "velocity": 80,
                "duration": 0.16136363636363527,
                "tempo": 120.0
            },
            {
                "start_time": 18.245454545454546,
                "end_time": 18.579545454545453,
                "pitch": 57,
                "velocity": 80,
                "duration": 0.3340909090909072,
                "tempo": 120.0
            },
            {
                "start_time": 18.613636363636363,
                "end_time": 18.954545454545453,
                "pitch": 57,
                "velocity": 80,
                "duration": 0.34090909090908994,
                "tempo": 120.0
            },
            {
                "start_time": 18.986363636363635,
                "end_time": 19.138636363636362,
                "pitch": 57,
                "velocity": 80,
                "duration": 0.15227272727272734,
                "tempo": 120.0
            },
            {
                "start_time": 19.172727272727272,
                "end_time": 19.33863636363636,
                "pitch": 60,
                "velocity": 80,
                "duration": 0.16590909090908923,
                "tempo": 120.0
            },
            {
                "start_time": 19.37272727272727,
                "end_time": 19.522727272727273,
                "pitch": 65,
                "velocity": 80,
                "duration": 0.15000000000000213,
                "tempo": 120.0
            },
            {
                "start_time": 19.55681818181818,
                "end_time": 19.904545454545453,
                "pitch": 59,
                "velocity": 80,
                "duration": 0.34772727272727266,
                "tempo": 120.0
            },
            {
                "start_time": 19.920454545454543,
                "end_time": 20.268181818181816,
                "pitch": 60,
                "velocity": 80,
                "duration": 0.34772727272727266,
                "tempo": 120.0
            },
            {
                "start_time": 20.302272727272726,
                "end_time": 20.647727272727273,
                "pitch": 62,
                "velocity": 80,
                "duration": 0.34545454545454746,
                "tempo": 120.0
            },
            {
                "start_time": 20.68181818181818,
                "end_time": 20.827272727272724,
                "pitch": 64,
                "velocity": 80,
                "duration": 0.14545454545454461,
                "tempo": 120.0
            },
            {
                "start_time": 20.85909090909091,
                "end_time": 21.013636363636362,
                "pitch": 67,
                "velocity": 80,
                "duration": 0.15454545454545254,
                "tempo": 120.0
            },
            {
                "start_time": 21.05,
                "end_time": 21.220454545454544,
                "pitch": 67,
                "velocity": 80,
                "duration": 0.1704545454545432,
                "tempo": 120.0
            },
            {
                "start_time": 21.238636363636363,
                "end_time": 21.570454545454545,
                "pitch": 59,
                "velocity": 80,
                "duration": 0.331818181818182,
                "tempo": 120.0
            },
            {
                "start_time": 21.604545454545452,
                "end_time": 21.96363636363636,
                "pitch": 59,
                "velocity": 80,
                "duration": 0.35909090909090935,
                "tempo": 120.0
            },
            {
                "start_time": 22.0,
                "end_time": 22.15,
                "pitch": 59,
                "velocity": 80,
                "duration": 0.14999999999999858,
                "tempo": 120.0
            },
            {
                "start_time": 22.18409090909091,
                "end_time": 22.334090909090907,
                "pitch": 59,
                "velocity": 80,
                "duration": 0.14999999999999858,
                "tempo": 120.0
            },
            {
                "start_time": 22.368181818181817,
                "end_time": 22.529545454545453,
                "pitch": 59,
                "velocity": 80,
                "duration": 0.16136363636363527,
                "tempo": 120.0
            },
            {
                "start_time": 22.563636363636363,
                "end_time": 22.893181818181816,
                "pitch": 62,
                "velocity": 80,
                "duration": 0.32954545454545325,
                "tempo": 120.0
            },
            {
                "start_time": 22.927272727272726,
                "end_time": 23.275,
                "pitch": 64,
                "velocity": 80,
                "duration": 0.34772727272727266,
                "tempo": 120.0
            },
            {
                "start_time": 23.30681818181818,
                "end_time": 23.636363636363637,
                "pitch": 64,
                "velocity": 80,
                "duration": 0.3295454545454568,
                "tempo": 120.0
            },
            {
                "start_time": 23.670454545454543,
                "end_time": 23.83863636363636,
                "pitch": 64,
                "velocity": 80,
                "duration": 0.168181818181818,
                "tempo": 120.0
            },
            {
                "start_time": 23.87272727272727,
                "end_time": 24.025,
                "pitch": 62,
                "velocity": 80,
                "duration": 0.15227272727272734,
                "tempo": 120.0
            },
            {
                "start_time": 24.061363636363634,
                "end_time": 24.21590909090909,
                "pitch": 60,
                "velocity": 80,
                "duration": 0.1545454545454561,
                "tempo": 120.0
            },
            {
                "start_time": 24.25,
                "end_time": 24.59090909090909,
                "pitch": 57,
                "velocity": 80,
                "duration": 0.34090909090908994,
                "tempo": 120.0
            },
            {
                "start_time": 24.625,
                "end_time": 24.959090909090907,
                "pitch": 57,
                "velocity": 80,
                "duration": 0.3340909090909072,
                "tempo": 120.0
            },
            {
                "start_time": 24.993181818181817,
                "end_time": 25.15681818181818,
                "pitch": 57,
                "velocity": 80,
                "duration": 0.16363636363636402,
                "tempo": 120.0
            },
            {
                "start_time": 25.188636363636363,
                "end_time": 25.336363636363636,
                "pitch": 60,
                "velocity": 80,
                "duration": 0.14772727272727337,
                "tempo": 120.0
            },
            {
                "start_time": 25.368181818181817,
                "end_time": 25.518181818181816,
                "pitch": 65,
                "velocity": 80,
                "duration": 0.14999999999999858,
                "tempo": 120.0
            },
            {
                "start_time": 25.552272727272726,
                "end_time": 25.904545454545453,
                "pitch": 59,
                "velocity": 80,
                "duration": 0.3522727272727266,
                "tempo": 120.0
            },
            {
                "start_time": 25.938636363636363,
                "end_time": 26.286363636363635,
                "pitch": 60,
                "velocity": 80,
                "duration": 0.34772727272727266,
                "tempo": 120.0
            },
            {
                "start_time": 26.302272727272726,
                "end_time": 26.64772727272727,
                "pitch": 62,
                "velocity": 80,
                "duration": 0.3454545454545439,
                "tempo": 120.0
            },
            {
                "start_time": 26.68181818181818,
                "end_time": 26.831818181818182,
                "pitch": 64,
                "velocity": 80,
                "duration": 0.15000000000000213,
                "tempo": 120.0
            },
            {
                "start_time": 26.86590909090909,
                "end_time": 27.029545454545453,
                "pitch": 67,
                "velocity": 80,
                "duration": 0.16363636363636402,
                "tempo": 120.0
            },
            {
                "start_time": 27.061363636363634,
                "end_time": 27.206818181818182,
                "pitch": 67,
                "velocity": 80,
                "duration": 0.14545454545454817,
                "tempo": 120.0
            },
            {
                "start_time": 27.24090909090909,
                "end_time": 27.602272727272727,
                "pitch": 59,
                "velocity": 80,
                "duration": 0.3613636363636381,
                "tempo": 120.0
            },
            {
                "start_time": 27.618181818181817,
                "end_time": 27.952272727272724,
                "pitch": 59,
                "velocity": 80,
                "duration": 0.3340909090909072,
                "tempo": 120.0
            },
            {
                "start_time": 27.98409090909091,
                "end_time": 28.138636363636362,
                "pitch": 59,
                "velocity": 80,
                "duration": 0.15454545454545254,
                "tempo": 120.0
            },
            {
                "start_time": 28.172727272727272,
                "end_time": 28.345454545454544,
                "pitch": 59,
                "velocity": 80,
                "duration": 0.17272727272727195,
                "tempo": 120.0
            },
            {
                "start_time": 28.379545454545454,
                "end_time": 28.529545454545453,
                "pitch": 59,
                "velocity": 80,
                "duration": 0.14999999999999858,
                "tempo": 120.0
            },
            {
                "start_time": 28.563636363636363,
                "end_time": 28.90681818181818,
                "pitch": 62,
                "velocity": 80,
                "duration": 0.3431818181818187,
                "tempo": 120.0
            },
            {
                "start_time": 28.938636363636363,
                "end_time": 29.268181818181816,
                "pitch": 66,
                "velocity": 80,
                "duration": 0.32954545454545325,
                "tempo": 120.0
            },
            {
                "start_time": 29.302272727272726,
                "end_time": 29.654545454545453,
                "pitch": 68,
                "velocity": 80,
                "duration": 0.3522727272727266,
                "tempo": 120.0
            },
            {
                "start_time": 29.688636363636363,
                "end_time": 29.834090909090907,
                "pitch": 62,
                "velocity": 80,
                "duration": 0.14545454545454461,
                "tempo": 120.0
            },
            {
                "start_time": 29.86590909090909,
                "end_time": 30.018181818181816,
                "pitch": 66,
                "velocity": 80,
                "duration": 0.15227272727272734,
                "tempo": 120.0
            },
            {
                "start_time": 30.052272727272726,
                "end_time": 30.218181818181815,
                "pitch": 68,
                "velocity": 80,
                "duration": 0.16590909090908923,
                "tempo": 120.0
            }
        ],
        "Violin": [
            {
                "start_time": 18.245454545454546,
                "end_time": 19.709090909090907,
                "pitch": 62,
                "velocity": 101,
                "duration": 1.4636363636363612,
                "tempo": 120.0
            },
            {
                "start_time": 19.743181818181817,
                "end_time": 21.220454545454544,
                "pitch": 67,
                "velocity": 101,
                "duration": 1.4772727272727266,
                "tempo": 120.0
            },
            {
                "start_time": 21.238636363636363,
                "end_time": 22.709090909090907,
                "pitch": 64,
                "velocity": 101,
                "duration": 1.470454545454544,
                "tempo": 120.0
            },
            {
                "start_time": 22.743181818181817,
                "end_time": 24.21590909090909,
                "pitch": 69,
                "velocity": 101,
                "duration": 1.4727272727272727,
                "tempo": 120.0
            },
            {
                "start_time": 24.252272727272725,
                "end_time": 25.720454545454544,
                "pitch": 62,
                "velocity": 101,
                "duration": 1.4681818181818187,
                "tempo": 120.0
            },
            {
                "start_time": 25.754545454545454,
                "end_time": 27.209090909090907,
                "pitch": 67,
                "velocity": 101,
                "duration": 1.4545454545454533,
                "tempo": 120.0
            },
            {
                "start_time": 27.24090909090909,
                "end_time": 28.71590909090909,
                "pitch": 64,
                "velocity": 101,
                "duration": 1.4750000000000014,
                "tempo": 120.0
            },
            {
                "start_time": 28.74772727272727,
                "end_time": 30.220454545454544,
                "pitch": 68,
                "velocity": 101,
                "duration": 1.4727272727272727,
                "tempo": 120.0
            }
        ],
        "Church Organ": [
            {
                "start_time": 30.254545454545454,
                "end_time": 31.80909090909091,
                "pitch": 64,
                "velocity": 80,
                "duration": 1.5545454545454547,
                "tempo": 120.0
            },
            {
                "start_time": 31.80909090909091,
                "end_time": 31.893181818181816,
                "pitch": 67,
                "velocity": 80,
                "duration": 0.08409090909090722,
                "tempo": 120.0
            },
            {
                "start_time": 31.893181818181816,
                "end_time": 31.96363636363636,
                "pitch": 70,
                "velocity": 80,
                "duration": 0.07045454545454533,
                "tempo": 120.0
            },
            {
                "start_time": 31.96363636363636,
                "end_time": 32.03181818181818,
                "pitch": 72,
                "velocity": 80,
                "duration": 0.06818181818182012,
                "tempo": 120.0
            },
            {
                "start_time": 32.03181818181818,
                "end_time": 32.1,
                "pitch": 74,
                "velocity": 80,
                "duration": 0.06818181818182012,
                "tempo": 120.0
            },
            {
                "start_time": 31.96363636363636,
                "end_time": 33.215909090909086,
                "pitch": 76,
                "velocity": 80,
                "duration": 1.2522727272727252,
                "tempo": 120.0
            },
            {
                "start_time": 32.1,
                "end_time": 33.215909090909086,
                "pitch": 76,
                "velocity": 80,
                "duration": 1.115909090909085,
                "tempo": 120.0
            },
            {
                "start_time": 33.25,
                "end_time": 34.61590909090909,
                "pitch": 65,
                "velocity": 80,
                "duration": 1.365909090909092,
                "tempo": 120.0
            },
            {
                "start_time": 34.61590909090909,
                "end_time": 34.695454545454545,
                "pitch": 67,
                "velocity": 80,
                "duration": 0.07954545454545325,
                "tempo": 120.0
            },
            {
                "start_time": 34.695454545454545,
                "end_time": 34.76136363636363,
                "pitch": 70,
                "velocity": 80,
                "duration": 0.06590909090908781,
                "tempo": 120.0
            },
            {
                "start_time": 34.76136363636363,
                "end_time": 34.82727272727273,
                "pitch": 72,
                "velocity": 80,
                "duration": 0.06590909090909491,
                "tempo": 120.0
            },
            {
                "start_time": 34.82727272727273,
                "end_time": 34.87954545454545,
                "pitch": 74,
                "velocity": 80,
                "duration": 0.052272727272722364,
                "tempo": 120.0
            },
            {
                "start_time": 34.76136363636363,
                "end_time": 36.054545454545455,
                "pitch": 76,
                "velocity": 80,
                "duration": 1.2931818181818215,
                "tempo": 120.0
            },
            {
                "start_time": 34.87954545454545,
                "end_time": 36.054545454545455,
                "pitch": 76,
                "velocity": 80,
                "duration": 1.1750000000000043,
                "tempo": 120.0
            },
            {
                "start_time": 36.08863636363636,
                "end_time": 37.60454545454545,
                "pitch": 62,
                "velocity": 80,
                "duration": 1.5159090909090907,
                "tempo": 120.0
            },
            {
                "start_time": 37.60454545454545,
                "end_time": 37.70454545454545,
                "pitch": 64,
                "velocity": 80,
                "duration": 0.10000000000000142,
                "tempo": 120.0
            },
            {
                "start_time": 37.70454545454545,
                "end_time": 37.80681818181818,
                "pitch": 67,
                "velocity": 80,
                "duration": 0.10227272727272663,
                "tempo": 120.0
            },
            {
                "start_time": 37.80681818181818,
                "end_time": 37.85681818181818,
                "pitch": 70,
                "velocity": 80,
                "duration": 0.04999999999999716,
                "tempo": 120.0
            },
            {
                "start_time": 37.85681818181818,
                "end_time": 37.92272727272727,
                "pitch": 72,
                "velocity": 80,
                "duration": 0.06590909090909491,
                "tempo": 120.0
            },
            {
                "start_time": 37.92272727272727,
                "end_time": 39.059090909090905,
                "pitch": 74,
                "velocity": 80,
                "duration": 1.1363636363636331,
                "tempo": 120.0
            },
            {
                "start_time": 39.09318181818182,
                "end_time": 40.65,
                "pitch": 64,
                "velocity": 80,
                "duration": 1.5568181818181799,
                "tempo": 120.0
            },
            {
                "start_time": 40.65,
                "end_time": 40.736363636363635,
                "pitch": 67,
                "velocity": 80,
                "duration": 0.08636363636363598,
                "tempo": 120.0
            },
            {
                "start_time": 40.736363636363635,
                "end_time": 40.80227272727272,
                "pitch": 70,
                "velocity": 80,
                "duration": 0.06590909090908781,
                "tempo": 120.0
            },
            {
                "start_time": 37.85681818181818,
                "end_time": 40.80227272727272,
                "pitch": 76,
                "velocity": 80,
                "duration": 2.9454545454545453,
                "tempo": 120.0
            },
            {
                "start_time": 40.80227272727272,
                "end_time": 40.86818181818182,
                "pitch": 72,
                "velocity": 80,
                "duration": 0.06590909090909491,
                "tempo": 120.0
            },
            {
                "start_time": 40.86818181818182,
                "end_time": 40.93181818181818,
                "pitch": 74,
                "velocity": 80,
                "duration": 0.0636363636363626,
                "tempo": 120.0
            },
            {
                "start_time": 40.80227272727272,
                "end_time": 42.074999999999996,
                "pitch": 76,
                "velocity": 80,
                "duration": 1.2727272727272734,
                "tempo": 120.0
            },
            {
                "start_time": 40.93181818181818,
                "end_time": 42.074999999999996,
                "pitch": 76,
                "velocity": 80,
                "duration": 1.1431818181818159,
                "tempo": 120.0
            },
            {
                "start_time": 42.09318181818182,
                "end_time": 43.65454545454545,
                "pitch": 64,
                "velocity": 80,
                "duration": 1.5613636363636303,
                "tempo": 120.0
            },
            {
                "start_time": 43.65454545454545,
                "end_time": 43.736363636363635,
                "pitch": 67,
                "velocity": 80,
                "duration": 0.08181818181818556,
                "tempo": 120.0
            },
            {
                "start_time": 43.736363636363635,
                "end_time": 43.80227272727272,
                "pitch": 70,
                "velocity": 80,
                "duration": 0.06590909090908781,
                "tempo": 120.0
            },
            {
                "start_time": 43.80227272727272,
                "end_time": 43.86818181818182,
                "pitch": 72,
                "velocity": 80,
                "duration": 0.06590909090909491,
                "tempo": 120.0
            },
            {
                "start_time": 43.86818181818182,
                "end_time": 43.918181818181814,
                "pitch": 74,
                "velocity": 80,
                "duration": 0.04999999999999716,
                "tempo": 120.0
            },
            {
                "start_time": 43.80227272727272,
                "end_time": 45.059090909090905,
                "pitch": 76,
                "velocity": 80,
                "duration": 1.2568181818181827,
                "tempo": 120.0
            },
            {
                "start_time": 43.918181818181814,
                "end_time": 45.059090909090905,
                "pitch": 76,
                "velocity": 80,
                "duration": 1.1409090909090907,
                "tempo": 120.0
            },
            {
                "start_time": 45.09318181818182,
                "end_time": 46.61818181818182,
                "pitch": 65,
                "velocity": 80,
                "duration": 1.5249999999999986,
                "tempo": 120.0
            },
            {
                "start_time": 46.61818181818182,
                "end_time": 46.71363636363636,
                "pitch": 67,
                "velocity": 80,
                "duration": 0.0954545454545439,
                "tempo": 120.0
            },
            {
                "start_time": 46.71363636363636,
                "end_time": 46.77954545454545,
                "pitch": 70,
                "velocity": 80,
                "duration": 0.06590909090908781,
                "tempo": 120.0
            },
            {
                "start_time": 46.77954545454545,
                "end_time": 46.84772727272727,
                "pitch": 72,
                "velocity": 80,
                "duration": 0.06818181818182012,
                "tempo": 120.0
            },
            {
                "start_time": 46.84772727272727,
                "end_time": 46.89772727272727,
                "pitch": 74,
                "velocity": 80,
                "duration": 0.05000000000000426,
                "tempo": 120.0
            },
            {
                "start_time": 46.77954545454545,
                "end_time": 48.07272727272727,
                "pitch": 76,
                "velocity": 80,
                "duration": 1.2931818181818215,
                "tempo": 120.0
            },
            {
                "start_time": 46.89772727272727,
                "end_time": 48.07272727272727,
                "pitch": 76,
                "velocity": 80,
                "duration": 1.1749999999999972,
                "tempo": 120.0
            },
            {
                "start_time": 48.10681818181818,
                "end_time": 49.62272727272727,
                "pitch": 62,
                "velocity": 80,
                "duration": 1.5159090909090907,
                "tempo": 120.0
            },
            {
                "start_time": 49.62272727272727,
                "end_time": 49.724999999999994,
                "pitch": 64,
                "velocity": 80,
                "duration": 0.10227272727272663,
                "tempo": 120.0
            },
            {
                "start_time": 49.724999999999994,
                "end_time": 49.809090909090905,
                "pitch": 67,
                "velocity": 80,
                "duration": 0.08409090909091077,
                "tempo": 120.0
            },
            {
                "start_time": 49.809090909090905,
                "end_time": 49.875,
                "pitch": 70,
                "velocity": 80,
                "duration": 0.06590909090909491,
                "tempo": 120.0
            },
            {
                "start_time": 49.875,
                "end_time": 49.94090909090909,
                "pitch": 72,
                "velocity": 80,
                "duration": 0.06590909090908781,
                "tempo": 120.0
            },
            {
                "start_time": 49.94090909090909,
                "end_time": 51.06818181818181,
                "pitch": 74,
                "velocity": 80,
                "duration": 1.1272727272727252,
                "tempo": 120.0
            },
            {
                "start_time": 51.10227272727273,
                "end_time": 52.67045454545454,
                "pitch": 64,
                "velocity": 80,
                "duration": 1.568181818181813,
                "tempo": 120.0
            },
            {
                "start_time": 52.67045454545454,
                "end_time": 52.75454545454545,
                "pitch": 67,
                "velocity": 80,
                "duration": 0.08409090909091077,
                "tempo": 120.0
            },
            {
                "start_time": 52.75454545454545,
                "end_time": 52.820454545454545,
                "pitch": 70,
                "velocity": 80,
                "duration": 0.06590909090909491,
                "tempo": 120.0
            },
            {
                "start_time": 49.875,
                "end_time": 52.82272727272727,
                "pitch": 76,
                "velocity": 80,
                "duration": 2.9477272727272705,
                "tempo": 120.0
            },
            {
                "start_time": 52.820454545454545,
                "end_time": 52.82272727272727,
                "pitch": 76,
                "velocity": 80,
                "duration": 0.0022727272727252057,
                "tempo": 120.0
            },
            {
                "start_time": 52.82272727272727,
                "end_time": 52.88636363636363,
                "pitch": 72,
                "velocity": 80,
                "duration": 0.0636363636363626,
                "tempo": 120.0
            },
            {
                "start_time": 52.88636363636363,
                "end_time": 52.95227272727273,
                "pitch": 74,
                "velocity": 80,
                "duration": 0.06590909090909491,
                "tempo": 120.0
            },
            {
                "start_time": 52.95227272727273,
                "end_time": 54.06818181818181,
                "pitch": 76,
                "velocity": 80,
                "duration": 1.115909090909085,
                "tempo": 120.0
            }
        ],
        "Acoustic Bass": [
            {
                "start_time": 0.00909090909090909,
                "end_time": 0.056818181818181816,
                "pitch": 28,
                "velocity": 101,
                "duration": 0.04772727272727273,
                "tempo": 120.0
            },
            {
                "start_time": 0.09318181818181817,
                "end_time": 0.16363636363636364,
                "pitch": 28,
                "velocity": 101,
                "duration": 0.07045454545454546,
                "tempo": 120.0
            },
            {
                "start_time": 0.19772727272727272,
                "end_time": 0.2659090909090909,
                "pitch": 28,
                "velocity": 101,
                "duration": 0.06818181818181815,
                "tempo": 120.0
            },
            {
                "start_time": 0.2818181818181818,
                "end_time": 0.35,
                "pitch": 28,
                "velocity": 101,
                "duration": 0.06818181818181818,
                "tempo": 120.0
            },
            {
                "start_time": 0.3840909090909091,
                "end_time": 0.5499999999999999,
                "pitch": 28,
                "velocity": 101,
                "duration": 0.16590909090909084,
                "tempo": 120.0
            },
            {
                "start_time": 0.5681818181818181,
                "end_time": 0.9090909090909091,
                "pitch": 28,
                "velocity": 101,
                "duration": 0.34090909090909094,
                "tempo": 120.0
            },
            {
                "start_time": 0.9431818181818181,
                "end_time": 1.2931818181818182,
                "pitch": 28,
                "velocity": 101,
                "duration": 0.3500000000000001,
                "tempo": 120.0
            },
            {
                "start_time": 1.3295454545454546,
                "end_time": 1.3795454545454544,
                "pitch": 28,
                "velocity": 101,
                "duration": 0.04999999999999982,
                "tempo": 120.0
            },
            {
                "start_time": 1.4136363636363636,
                "end_time": 1.4818181818181817,
                "pitch": 28,
                "velocity": 101,
                "duration": 0.06818181818181812,
                "tempo": 120.0
            },
            {
                "start_time": 1.518181818181818,
                "end_time": 1.5863636363636362,
                "pitch": 28,
                "velocity": 101,
                "duration": 0.06818181818181812,
                "tempo": 120.0
            },
            {
                "start_time": 1.6204545454545454,
                "end_time": 1.6727272727272726,
                "pitch": 28,
                "velocity": 101,
                "duration": 0.05227272727272725,
                "tempo": 120.0
            },
            {
                "start_time": 1.7068181818181818,
                "end_time": 1.7727272727272727,
                "pitch": 28,
                "velocity": 101,
                "duration": 0.06590909090909092,
                "tempo": 120.0
            },
            {
                "start_time": 1.8045454545454545,
                "end_time": 1.8704545454545454,
                "pitch": 28,
                "velocity": 101,
                "duration": 0.06590909090909092,
                "tempo": 120.0
            },
            {
                "start_time": 1.8863636363636362,
                "end_time": 2.047727272727273,
                "pitch": 28,
                "velocity": 101,
                "duration": 0.1613636363636366,
                "tempo": 120.0
            },
            {
                "start_time": 2.0818181818181816,
                "end_time": 2.415909090909091,
                "pitch": 28,
                "velocity": 101,
                "duration": 0.33409090909090944,
                "tempo": 120.0
            },
            {
                "start_time": 2.4499999999999997,
                "end_time": 2.7909090909090906,
                "pitch": 28,
                "velocity": 101,
                "duration": 0.34090909090909083,
                "tempo": 120.0
            },
            {
                "start_time": 2.8249999999999997,
                "end_time": 2.8909090909090907,
                "pitch": 28,
                "velocity": 101,
                "duration": 0.06590909090909092,
                "tempo": 120.0
            },
            {
                "start_time": 2.925,
                "end_time": 2.9749999999999996,
                "pitch": 28,
                "velocity": 101,
                "duration": 0.04999999999999982,
                "tempo": 120.0
            },
            {
                "start_time": 3.0113636363636362,
                "end_time": 3.0749999999999997,
                "pitch": 28,
                "velocity": 101,
                "duration": 0.06363636363636349,
                "tempo": 120.0
            },
            {
                "start_time": 3.109090909090909,
                "end_time": 3.1772727272727272,
                "pitch": 28,
                "velocity": 101,
                "duration": 0.06818181818181834,
                "tempo": 120.0
            },
            {
                "start_time": 3.2113636363636364,
                "end_time": 3.2613636363636362,
                "pitch": 28,
                "velocity": 101,
                "duration": 0.04999999999999982,
                "tempo": 120.0
            },
            {
                "start_time": 3.2954545454545454,
                "end_time": 3.3636363636363633,
                "pitch": 28,
                "velocity": 101,
                "duration": 0.0681818181818179,
                "tempo": 120.0
            },
            {
                "start_time": 3.4,
                "end_time": 3.5545454545454542,
                "pitch": 28,
                "velocity": 101,
                "duration": 0.15454545454545432,
                "tempo": 120.0
            },
            {
                "start_time": 3.5886363636363634,
                "end_time": 3.9318181818181817,
                "pitch": 28,
                "velocity": 101,
                "duration": 0.34318181818181825,
                "tempo": 120.0
            },
            {
                "start_time": 3.9636363636363634,
                "end_time": 4.288636363636363,
                "pitch": 28,
                "velocity": 101,
                "duration": 0.32499999999999973,
                "tempo": 120.0
            },
            {
                "start_time": 4.322727272727272,
                "end_time": 4.386363636363636,
                "pitch": 28,
                "velocity": 101,
                "duration": 0.06363636363636349,
                "tempo": 120.0
            },
            {
                "start_time": 4.420454545454545,
                "end_time": 4.4840909090909085,
                "pitch": 28,
                "velocity": 101,
                "duration": 0.06363636363636349,
                "tempo": 120.0
            },
            {
                "start_time": 4.518181818181818,
                "end_time": 4.5659090909090905,
                "pitch": 28,
                "velocity": 101,
                "duration": 0.04772727272727284,
                "tempo": 120.0
            },
            {
                "start_time": 4.597727272727273,
                "end_time": 4.663636363636363,
                "pitch": 28,
                "velocity": 101,
                "duration": 0.06590909090909047,
                "tempo": 120.0
            },
            {
                "start_time": 4.695454545454545,
                "end_time": 4.763636363636364,
                "pitch": 28,
                "velocity": 101,
                "duration": 0.06818181818181834,
                "tempo": 120.0
            },
            {
                "start_time": 4.797727272727273,
                "end_time": 4.85,
                "pitch": 28,
                "velocity": 101,
                "duration": 0.052272727272726804,
                "tempo": 120.0
            },
            {
                "start_time": 4.884090909090909,
                "end_time": 5.056818181818182,
                "pitch": 28,
                "velocity": 101,
                "duration": 0.17272727272727284,
                "tempo": 120.0
            },
            {
                "start_time": 5.075,
                "end_time": 5.415909090909091,
                "pitch": 28,
                "velocity": 101,
                "duration": 0.34090909090909083,
                "tempo": 120.0
            },
            {
                "start_time": 5.45,
                "end_time": 5.8,
                "pitch": 28,
                "velocity": 101,
                "duration": 0.34999999999999964,
                "tempo": 120.0
            },
            {
                "start_time": 5.834090909090909,
                "end_time": 5.884090909090909,
                "pitch": 28,
                "velocity": 101,
                "duration": 0.04999999999999982,
                "tempo": 120.0
            },
            {
                "start_time": 5.918181818181818,
                "end_time": 5.997727272727272,
                "pitch": 28,
                "velocity": 101,
                "duration": 0.07954545454545414,
                "tempo": 120.0
            },
            {
                "start_time": 6.043181818181818,
                "end_time": 6.2318181818181815,
                "pitch": 33,
                "velocity": 101,
                "duration": 0.1886363636363635,
                "tempo": 120.0
            },
            {
                "start_time": 6.2749999999999995,
                "end_time": 6.486363636363636,
                "pitch": 33,
                "velocity": 101,
                "duration": 0.21136363636363686,
                "tempo": 120.0
            },
            {
                "start_time": 6.529545454545454,
                "end_time": 6.715909090909091,
                "pitch": 36,
                "velocity": 101,
                "duration": 0.1863636363636365,
                "tempo": 120.0
            },
            {
                "start_time": 6.756818181818182,
                "end_time": 6.9431818181818175,
                "pitch": 33,
                "velocity": 101,
                "duration": 0.18636363636363562,
                "tempo": 120.0
            },
            {
                "start_time": 6.986363636363636,
                "end_time": 7.1499999999999995,
                "pitch": 28,
                "velocity": 101,
                "duration": 0.16363636363636314,
                "tempo": 120.0
            },
            {
                "start_time": 7.168181818181818,
                "end_time": 7.329545454545454,
                "pitch": 33,
                "velocity": 101,
                "duration": 0.16136363636363615,
                "tempo": 120.0
            },
            {
                "start_time": 7.361363636363636,
                "end_time": 7.513636363636364,
                "pitch": 28,
                "velocity": 101,
                "duration": 0.15227272727272734,
                "tempo": 120.0
            },
            {
                "start_time": 7.547727272727272,
                "end_time": 7.893181818181818,
                "pitch": 26,
                "velocity": 101,
                "duration": 0.3454545454545457,
                "tempo": 120.0
            },
            {
                "start_time": 7.927272727272727,
                "end_time": 8.072727272727272,
                "pitch": 29,
                "velocity": 101,
                "duration": 0.1454545454545455,
                "tempo": 120.0
            },
            {
                "start_time": 8.104545454545454,
                "end_time": 8.322727272727272,
                "pitch": 33,
                "velocity": 101,
                "duration": 0.2181818181818187,
                "tempo": 120.0
            },
            {
                "start_time": 8.322727272727272,
                "end_time": 8.35681818181818,
                "pitch": 35,
                "velocity": 101,
                "duration": 0.034090909090908283,
                "tempo": 120.0
            },
            {
                "start_time": 8.35681818181818,
                "end_time": 8.422727272727272,
                "pitch": 36,
                "velocity": 101,
                "duration": 0.06590909090909136,
                "tempo": 120.0
            },
            {
                "start_time": 8.422727272727272,
                "end_time": 8.631818181818181,
                "pitch": 38,
                "velocity": 101,
                "duration": 0.209090909090909,
                "tempo": 120.0
            },
            {
                "start_time": 8.665909090909091,
                "end_time": 8.806818181818182,
                "pitch": 36,
                "velocity": 101,
                "duration": 0.14090909090909065,
                "tempo": 120.0
            },
            {
                "start_time": 8.84090909090909,
                "end_time": 8.993181818181817,
                "pitch": 33,
                "velocity": 101,
                "duration": 0.15227272727272734,
                "tempo": 120.0
            },
            {
                "start_time": 9.029545454545454,
                "end_time": 9.2,
                "pitch": 29,
                "velocity": 101,
                "duration": 0.17045454545454497,
                "tempo": 120.0
            },
            {
                "start_time": 9.236363636363636,
                "end_time": 9.386363636363637,
                "pitch": 31,
                "velocity": 101,
                "duration": 0.15000000000000036,
                "tempo": 120.0
            },
            {
                "start_time": 9.418181818181818,
                "end_time": 9.570454545454545,
                "pitch": 31,
                "velocity": 101,
                "duration": 0.15227272727272734,
                "tempo": 120.0
            },
            {
                "start_time": 9.604545454545454,
                "end_time": 9.76590909090909,
                "pitch": 26,
                "velocity": 101,
                "duration": 0.16136363636363704,
                "tempo": 120.0
            },
            {
                "start_time": 9.799999999999999,
                "end_time": 9.945454545454545,
                "pitch": 31,
                "velocity": 101,
                "duration": 0.1454545454545464,
                "tempo": 120.0
            },
            {
                "start_time": 9.979545454545454,
                "end_time": 10.129545454545454,
                "pitch": 26,
                "velocity": 101,
                "duration": 0.15000000000000036,
                "tempo": 120.0
            },
            {
                "start_time": 10.163636363636364,
                "end_time": 10.329545454545453,
                "pitch": 35,
                "velocity": 101,
                "duration": 0.16590909090908923,
                "tempo": 120.0
            },
            {
                "start_time": 10.347727272727273,
                "end_time": 10.509090909090908,
                "pitch": 33,
                "velocity": 101,
                "duration": 0.16136363636363527,
                "tempo": 120.0
            },
            {
                "start_time": 10.543181818181818,
                "end_time": 10.688636363636363,
                "pitch": 31,
                "velocity": 101,
                "duration": 0.14545454545454461,
                "tempo": 120.0
            },
            {
                "start_time": 10.720454545454546,
                "end_time": 10.872727272727273,
                "pitch": 33,
                "velocity": 101,
                "duration": 0.15227272727272734,
                "tempo": 120.0
            },
            {
                "start_time": 10.906818181818181,
                "end_time": 11.075,
                "pitch": 28,
                "velocity": 101,
                "duration": 0.168181818181818,
                "tempo": 120.0
            },
            {
                "start_time": 11.10909090909091,
                "end_time": 11.331818181818182,
                "pitch": 33,
                "velocity": 101,
                "duration": 0.22272727272727266,
                "tempo": 120.0
            },
            {
                "start_time": 11.331818181818182,
                "end_time": 11.36590909090909,
                "pitch": 35,
                "velocity": 101,
                "duration": 0.034090909090908283,
                "tempo": 120.0
            },
            {
                "start_time": 8.35681818181818,
                "end_time": 11.36590909090909,
                "pitch": 40,
                "velocity": 101,
                "duration": 3.0090909090909097,
                "tempo": 120.0
            },
            {
                "start_time": 11.36590909090909,
                "end_time": 11.418181818181818,
                "pitch": 36,
                "velocity": 101,
                "duration": 0.05227272727272769,
                "tempo": 120.0
            },
            {
                "start_time": 11.418181818181818,
                "end_time": 11.486363636363636,
                "pitch": 38,
                "velocity": 101,
                "duration": 0.06818181818181834,
                "tempo": 120.0
            },
            {
                "start_time": 11.36590909090909,
                "end_time": 11.649999999999999,
                "pitch": 40,
                "velocity": 101,
                "duration": 0.2840909090909083,
                "tempo": 120.0
            },
            {
                "start_time": 11.486363636363636,
                "end_time": 11.649999999999999,
                "pitch": 40,
                "velocity": 101,
                "duration": 0.16363636363636225,
                "tempo": 120.0
            },
            {
                "start_time": 11.665909090909091,
                "end_time": 11.827272727272726,
                "pitch": 40,
                "velocity": 101,
                "duration": 0.16136363636363527,
                "tempo": 120.0
            },
            {
                "start_time": 11.861363636363636,
                "end_time": 12.011363636363635,
                "pitch": 40,
                "velocity": 101,
                "duration": 0.14999999999999858,
                "tempo": 120.0
            },
            {
                "start_time": 12.045454545454545,
                "end_time": 12.195454545454545,
                "pitch": 40,
                "velocity": 101,
                "duration": 0.15000000000000036,
                "tempo": 120.0
            },
            {
                "start_time": 12.23181818181818,
                "end_time": 12.393181818181818,
                "pitch": 33,
                "velocity": 101,
                "duration": 0.16136363636363704,
                "tempo": 120.0
            },
            {
                "start_time": 12.424999999999999,
                "end_time": 12.570454545454545,
                "pitch": 33,
                "velocity": 101,
                "duration": 0.1454545454545464,
                "tempo": 120.0
            },
            {
                "start_time": 12.604545454545454,
                "end_time": 12.754545454545454,
                "pitch": 36,
                "velocity": 101,
                "duration": 0.15000000000000036,
                "tempo": 120.0
            },
            {
                "start_time": 12.788636363636362,
                "end_time": 12.956818181818182,
                "pitch": 33,
                "velocity": 101,
                "duration": 0.16818181818181976,
                "tempo": 120.0
            },
            {
                "start_time": 12.99090909090909,
                "end_time": 13.14090909090909,
                "pitch": 28,
                "velocity": 101,
                "duration": 0.15000000000000036,
                "tempo": 120.0
            },
            {
                "start_time": 13.174999999999999,
                "end_time": 13.325,
                "pitch": 33,
                "velocity": 101,
                "duration": 0.15000000000000036,
                "tempo": 120.0
            },
            {
                "start_time": 13.359090909090908,
                "end_time": 13.522727272727272,
                "pitch": 28,
                "velocity": 101,
                "duration": 0.16363636363636402,
                "tempo": 120.0
            },
            {
                "start_time": 13.538636363636362,
                "end_time": 13.888636363636364,
                "pitch": 26,
                "velocity": 101,
                "duration": 0.3500000000000014,
                "tempo": 120.0
            },
            {
                "start_time": 13.922727272727272,
                "end_time": 14.077272727272726,
                "pitch": 29,
                "velocity": 101,
                "duration": 0.15454545454545432,
                "tempo": 120.0
            },
            {
                "start_time": 14.111363636363636,
                "end_time": 14.318181818181818,
                "pitch": 33,
                "velocity": 101,
                "duration": 0.206818181818182,
                "tempo": 120.0
            },
            {
                "start_time": 14.318181818181818,
                "end_time": 14.35,
                "pitch": 35,
                "velocity": 101,
                "duration": 0.0318181818181813,
                "tempo": 120.0
            },
            {
                "start_time": 14.35,
                "end_time": 14.413636363636362,
                "pitch": 36,
                "velocity": 101,
                "duration": 0.0636363636363626,
                "tempo": 120.0
            },
            {
                "start_time": 14.413636363636362,
                "end_time": 14.627272727272727,
                "pitch": 38,
                "velocity": 101,
                "duration": 0.21363636363636473,
                "tempo": 120.0
            },
            {
                "start_time": 14.661363636363635,
                "end_time": 14.829545454545453,
                "pitch": 36,
                "velocity": 101,
                "duration": 0.168181818181818,
                "tempo": 120.0
            },
            {
                "start_time": 14.847727272727273,
                "end_time": 15.013636363636364,
                "pitch": 33,
                "velocity": 101,
                "duration": 0.165909090909091,
                "tempo": 120.0
            },
            {
                "start_time": 15.047727272727272,
                "end_time": 15.197727272727272,
                "pitch": 29,
                "velocity": 101,
                "duration": 0.15000000000000036,
                "tempo": 120.0
            },
            {
                "start_time": 15.23181818181818,
                "end_time": 15.381818181818181,
                "pitch": 31,
                "velocity": 101,
                "duration": 0.15000000000000036,
                "tempo": 120.0
            },
            {
                "start_time": 15.415909090909091,
                "end_time": 15.584090909090909,
                "pitch": 31,
                "velocity": 101,
                "duration": 0.168181818181818,
                "tempo": 120.0
            },
            {
                "start_time": 15.618181818181817,
                "end_time": 15.768181818181818,
                "pitch": 26,
                "velocity": 101,
                "duration": 0.15000000000000036,
                "tempo": 120.0
            },
            {
                "start_time": 15.802272727272726,
                "end_time": 15.954545454545453,
                "pitch": 31,
                "velocity": 101,
                "duration": 0.15227272727272734,
                "tempo": 120.0
            },
            {
                "start_time": 15.988636363636363,
                "end_time": 16.15,
                "pitch": 26,
                "velocity": 101,
                "duration": 0.16136363636363527,
                "tempo": 120.0
            },
            {
                "start_time": 16.18409090909091,
                "end_time": 16.329545454545453,
                "pitch": 35,
                "velocity": 101,
                "duration": 0.14545454545454461,
                "tempo": 120.0
            },
            {
                "start_time": 16.361363636363635,
                "end_time": 16.511363636363637,
                "pitch": 33,
                "velocity": 101,
                "duration": 0.15000000000000213,
                "tempo": 120.0
            },
            {
                "start_time": 16.547727272727272,
                "end_time": 16.71363636363636,
                "pitch": 31,
                "velocity": 101,
                "duration": 0.16590909090908923,
                "tempo": 120.0
            },
            {
                "start_time": 16.729545454545455,
                "end_time": 16.893181818181816,
                "pitch": 33,
                "velocity": 101,
                "duration": 0.16363636363636047,
                "tempo": 120.0
            },
            {
                "start_time": 16.927272727272726,
                "end_time": 17.07272727272727,
                "pitch": 28,
                "velocity": 101,
                "duration": 0.14545454545454461,
                "tempo": 120.0
            },
            {
                "start_time": 17.104545454545455,
                "end_time": 17.327272727272728,
                "pitch": 33,
                "velocity": 101,
                "duration": 0.22272727272727266,
                "tempo": 120.0
            },
            {
                "start_time": 17.327272727272728,
                "end_time": 17.361363636363635,
                "pitch": 35,
                "velocity": 101,
                "duration": 0.03409090909090651,
                "tempo": 120.0
            },
            {
                "start_time": 14.35,
                "end_time": 17.361363636363635,
                "pitch": 40,
                "velocity": 101,
                "duration": 3.011363636363635,
                "tempo": 120.0
            },
            {
                "start_time": 17.361363636363635,
                "end_time": 17.43181818181818,
                "pitch": 36,
                "velocity": 101,
                "duration": 0.07045454545454533,
                "tempo": 120.0
            },
            {
                "start_time": 17.43181818181818,
                "end_time": 17.5,
                "pitch": 38,
                "velocity": 101,
                "duration": 0.06818181818182012,
                "tempo": 120.0
            },
            {
                "start_time": 17.361363636363635,
                "end_time": 17.652272727272727,
                "pitch": 40,
                "velocity": 101,
                "duration": 0.2909090909090928,
                "tempo": 120.0
            },
            {
                "start_time": 17.5,
                "end_time": 17.652272727272727,
                "pitch": 40,
                "velocity": 101,
                "duration": 0.15227272727272734,
                "tempo": 120.0
            },
            {
                "start_time": 17.686363636363634,
                "end_time": 17.836363636363636,
                "pitch": 40,
                "velocity": 101,
                "duration": 0.15000000000000213,
                "tempo": 120.0
            },
            {
                "start_time": 17.870454545454546,
                "end_time": 18.03181818181818,
                "pitch": 40,
                "velocity": 101,
                "duration": 0.16136363636363527,
                "tempo": 120.0
            },
            {
                "start_time": 18.05,
                "end_time": 18.211363636363636,
                "pitch": 35,
                "velocity": 101,
                "duration": 0.16136363636363527,
                "tempo": 120.0
            },
            {
                "start_time": 18.245454545454546,
                "end_time": 18.395454545454545,
                "pitch": 26,
                "velocity": 101,
                "duration": 0.14999999999999858,
                "tempo": 120.0
            },
            {
                "start_time": 18.427272727272726,
                "end_time": 18.579545454545453,
                "pitch": 26,
                "velocity": 101,
                "duration": 0.15227272727272734,
                "tempo": 120.0
            },
            {
                "start_time": 18.613636363636363,
                "end_time": 18.775,
                "pitch": 26,
                "velocity": 101,
                "duration": 0.16136363636363527,
                "tempo": 120.0
            },
            {
                "start_time": 18.80909090909091,
                "end_time": 18.954545454545453,
                "pitch": 26,
                "velocity": 101,
                "duration": 0.14545454545454461,
                "tempo": 120.0
            },
            {
                "start_time": 18.988636363636363,
                "end_time": 19.138636363636362,
                "pitch": 26,
                "velocity": 101,
                "duration": 0.14999999999999858,
                "tempo": 120.0
            },
            {
                "start_time": 19.172727272727272,
                "end_time": 19.33863636363636,
                "pitch": 29,
                "velocity": 101,
                "duration": 0.16590909090908923,
                "tempo": 120.0
            },
            {
                "start_time": 19.37272727272727,
                "end_time": 19.525,
                "pitch": 38,
                "velocity": 101,
                "duration": 0.15227272727272734,
                "tempo": 120.0
            },
            {
                "start_time": 19.55909090909091,
                "end_time": 19.904545454545453,
                "pitch": 35,
                "velocity": 101,
                "duration": 0.3454545454545439,
                "tempo": 120.0
            },
            {
                "start_time": 19.922727272727272,
                "end_time": 20.084090909090907,
                "pitch": 36,
                "velocity": 101,
                "duration": 0.16136363636363527,
                "tempo": 120.0
            },
            {
                "start_time": 20.11590909090909,
                "end_time": 20.268181818181816,
                "pitch": 35,
                "velocity": 101,
                "duration": 0.15227272727272734,
                "tempo": 120.0
            },
            {
                "start_time": 20.302272727272726,
                "end_time": 20.452272727272728,
                "pitch": 36,
                "velocity": 101,
                "duration": 0.15000000000000213,
                "tempo": 120.0
            },
            {
                "start_time": 20.486363636363635,
                "end_time": 20.647727272727273,
                "pitch": 31,
                "velocity": 101,
                "duration": 0.16136363636363882,
                "tempo": 120.0
            },
            {
                "start_time": 20.68181818181818,
                "end_time": 20.827272727272724,
                "pitch": 31,
                "velocity": 101,
                "duration": 0.14545454545454461,
                "tempo": 120.0
            },
            {
                "start_time": 20.861363636363635,
                "end_time": 21.013636363636362,
                "pitch": 31,
                "velocity": 101,
                "duration": 0.15227272727272734,
                "tempo": 120.0
            },
            {
                "start_time": 21.05,
                "end_time": 21.220454545454544,
                "pitch": 31,
                "velocity": 101,
                "duration": 0.1704545454545432,
                "tempo": 120.0
            },
            {
                "start_time": 21.238636363636363,
                "end_time": 21.397727272727273,
                "pitch": 28,
                "velocity": 101,
                "duration": 0.15909090909091006,
                "tempo": 120.0
            },
            {
                "start_time": 21.429545454545455,
                "end_time": 21.570454545454545,
                "pitch": 28,
                "velocity": 101,
                "duration": 0.14090909090909065,
                "tempo": 120.0
            },
            {
                "start_time": 21.604545454545452,
                "end_time": 21.75681818181818,
                "pitch": 28,
                "velocity": 101,
                "duration": 0.15227272727272734,
                "tempo": 120.0
            },
            {
                "start_time": 21.79090909090909,
                "end_time": 21.96363636363636,
                "pitch": 28,
                "velocity": 101,
                "duration": 0.17272727272727195,
                "tempo": 120.0
            },
            {
                "start_time": 22.0,
                "end_time": 22.15,
                "pitch": 28,
                "velocity": 101,
                "duration": 0.14999999999999858,
                "tempo": 120.0
            },
            {
                "start_time": 22.18409090909091,
                "end_time": 22.334090909090907,
                "pitch": 31,
                "velocity": 101,
                "duration": 0.14999999999999858,
                "tempo": 120.0
            },
            {
                "start_time": 22.368181818181817,
                "end_time": 22.53181818181818,
                "pitch": 28,
                "velocity": 101,
                "duration": 0.16363636363636402,
                "tempo": 120.0
            },
            {
                "start_time": 22.563636363636363,
                "end_time": 22.893181818181816,
                "pitch": 33,
                "velocity": 101,
                "duration": 0.32954545454545325,
                "tempo": 120.0
            },
            {
                "start_time": 22.927272727272726,
                "end_time": 23.09318181818182,
                "pitch": 33,
                "velocity": 101,
                "duration": 0.16590909090909278,
                "tempo": 120.0
            },
            {
                "start_time": 23.111363636363635,
                "end_time": 23.275,
                "pitch": 33,
                "velocity": 101,
                "duration": 0.16363636363636402,
                "tempo": 120.0
            },
            {
                "start_time": 23.30681818181818,
                "end_time": 23.452272727272724,
                "pitch": 33,
                "velocity": 101,
                "duration": 0.14545454545454461,
                "tempo": 120.0
            },
            {
                "start_time": 23.486363636363635,
                "end_time": 23.83863636363636,
                "pitch": 33,
                "velocity": 101,
                "duration": 0.3522727272727266,
                "tempo": 120.0
            },
            {
                "start_time": 23.87272727272727,
                "end_time": 24.21590909090909,
                "pitch": 33,
                "velocity": 101,
                "duration": 0.3431818181818187,
                "tempo": 120.0
            },
            {
                "start_time": 24.252272727272725,
                "end_time": 24.413636363636364,
                "pitch": 26,
                "velocity": 101,
                "duration": 0.16136363636363882,
                "tempo": 120.0
            },
            {
                "start_time": 24.429545454545455,
                "end_time": 24.59318181818182,
                "pitch": 26,
                "velocity": 101,
                "duration": 0.16363636363636402,
                "tempo": 120.0
            },
            {
                "start_time": 24.625,
                "end_time": 24.775,
                "pitch": 26,
                "velocity": 101,
                "duration": 0.14999999999999858,
                "tempo": 120.0
            },
            {
                "start_time": 24.80909090909091,
                "end_time": 24.959090909090907,
                "pitch": 26,
                "velocity": 101,
                "duration": 0.14999999999999858,
                "tempo": 120.0
            },
            {
                "start_time": 24.995454545454542,
                "end_time": 25.15681818181818,
                "pitch": 26,
                "velocity": 101,
                "duration": 0.16136363636363882,
                "tempo": 120.0
            },
            {
                "start_time": 25.19090909090909,
                "end_time": 25.336363636363636,
                "pitch": 29,
                "velocity": 101,
                "duration": 0.14545454545454461,
                "tempo": 120.0
            },
            {
                "start_time": 25.368181818181817,
                "end_time": 25.518181818181816,
                "pitch": 38,
                "velocity": 101,
                "duration": 0.14999999999999858,
                "tempo": 120.0
            },
            {
                "start_time": 25.552272727272726,
                "end_time": 25.904545454545453,
                "pitch": 35,
                "velocity": 101,
                "duration": 0.3522727272727266,
                "tempo": 120.0
            },
            {
                "start_time": 25.938636363636363,
                "end_time": 26.08863636363636,
                "pitch": 36,
                "velocity": 101,
                "duration": 0.14999999999999858,
                "tempo": 120.0
            },
            {
                "start_time": 26.12272727272727,
                "end_time": 26.286363636363635,
                "pitch": 35,
                "velocity": 101,
                "duration": 0.16363636363636402,
                "tempo": 120.0
            },
            {
                "start_time": 26.302272727272726,
                "end_time": 26.46363636363636,
                "pitch": 36,
                "velocity": 101,
                "duration": 0.16136363636363527,
                "tempo": 120.0
            },
            {
                "start_time": 26.49772727272727,
                "end_time": 26.64772727272727,
                "pitch": 31,
                "velocity": 101,
                "duration": 0.14999999999999858,
                "tempo": 120.0
            },
            {
                "start_time": 26.68181818181818,
                "end_time": 26.831818181818182,
                "pitch": 31,
                "velocity": 101,
                "duration": 0.15000000000000213,
                "tempo": 120.0
            },
            {
                "start_time": 26.868181818181817,
                "end_time": 27.029545454545453,
                "pitch": 31,
                "velocity": 101,
                "duration": 0.16136363636363527,
                "tempo": 120.0
            },
            {
                "start_time": 27.063636363636363,
                "end_time": 27.209090909090907,
                "pitch": 31,
                "velocity": 101,
                "duration": 0.14545454545454461,
                "tempo": 120.0
            },
            {
                "start_time": 27.24090909090909,
                "end_time": 27.395454545454545,
                "pitch": 28,
                "velocity": 101,
                "duration": 0.1545454545454561,
                "tempo": 120.0
            },
            {
                "start_time": 27.429545454545455,
                "end_time": 27.602272727272727,
                "pitch": 28,
                "velocity": 101,
                "duration": 0.17272727272727195,
                "tempo": 120.0
            },
            {
                "start_time": 27.620454545454542,
                "end_time": 27.777272727272727,
                "pitch": 28,
                "velocity": 101,
                "duration": 0.15681818181818485,
                "tempo": 120.0
            },
            {
                "start_time": 27.80909090909091,
                "end_time": 27.952272727272724,
                "pitch": 28,
                "velocity": 101,
                "duration": 0.14318181818181586,
                "tempo": 120.0
            },
            {
                "start_time": 27.98409090909091,
                "end_time": 28.138636363636362,
                "pitch": 28,
                "velocity": 101,
                "duration": 0.15454545454545254,
                "tempo": 120.0
            },
            {
                "start_time": 28.172727272727272,
                "end_time": 28.345454545454544,
                "pitch": 31,
                "velocity": 101,
                "duration": 0.17272727272727195,
                "tempo": 120.0
            },
            {
                "start_time": 28.379545454545454,
                "end_time": 28.53181818181818,
                "pitch": 28,
                "velocity": 101,
                "duration": 0.15227272727272734,
                "tempo": 120.0
            },
            {
                "start_time": 28.565909090909088,
                "end_time": 28.90681818181818,
                "pitch": 28,
                "velocity": 101,
                "duration": 0.3409090909090935,
                "tempo": 120.0
            },
            {
                "start_time": 28.940909090909088,
                "end_time": 29.081818181818182,
                "pitch": 28,
                "velocity": 101,
                "duration": 0.1409090909090942,
                "tempo": 120.0
            },
            {
                "start_time": 29.113636363636363,
                "end_time": 29.268181818181816,
                "pitch": 32,
                "velocity": 101,
                "duration": 0.15454545454545254,
                "tempo": 120.0
            },
            {
                "start_time": 29.304545454545455,
                "end_time": 29.474999999999998,
                "pitch": 35,
                "velocity": 101,
                "duration": 0.1704545454545432,
                "tempo": 120.0
            },
            {
                "start_time": 29.493181818181817,
                "end_time": 29.654545454545453,
                "pitch": 28,
                "velocity": 101,
                "duration": 0.16136363636363527,
                "tempo": 120.0
            },
            {
                "start_time": 29.688636363636363,
                "end_time": 29.834090909090907,
                "pitch": 32,
                "velocity": 101,
                "duration": 0.14545454545454461,
                "tempo": 120.0
            },
            {
                "start_time": 29.868181818181817,
                "end_time": 30.018181818181816,
                "pitch": 35,
                "velocity": 101,
                "duration": 0.14999999999999858,
                "tempo": 120.0
            },
            {
                "start_time": 30.052272727272726,
                "end_time": 30.218181818181815,
                "pitch": 28,
                "velocity": 101,
                "duration": 0.16590909090908923,
                "tempo": 120.0
            },
            {
                "start_time": 30.254545454545454,
                "end_time": 31.709090909090907,
                "pitch": 33,
                "velocity": 101,
                "duration": 1.4545454545454533,
                "tempo": 120.0
            },
            {
                "start_time": 31.929545454545455,
                "end_time": 32.1,
                "pitch": 33,
                "velocity": 80,
                "duration": 0.17045454545454675,
                "tempo": 120.0
            },
            {
                "start_time": 32.13636363636363,
                "end_time": 32.28636363636363,
                "pitch": 33,
                "velocity": 80,
                "duration": 0.14999999999999858,
                "tempo": 120.0
            },
            {
                "start_time": 32.320454545454545,
                "end_time": 32.470454545454544,
                "pitch": 33,
                "velocity": 80,
                "duration": 0.14999999999999858,
                "tempo": 120.0
            },
            {
                "start_time": 32.50454545454545,
                "end_time": 32.67272727272727,
                "pitch": 33,
                "velocity": 101,
                "duration": 0.16818181818182154,
                "tempo": 120.0
            },
            {
                "start_time": 32.68863636363636,
                "end_time": 32.85681818181818,
                "pitch": 33,
                "velocity": 101,
                "duration": 0.16818181818181444,
                "tempo": 120.0
            },
            {
                "start_time": 32.89090909090909,
                "end_time": 33.03636363636363,
                "pitch": 33,
                "velocity": 101,
                "duration": 0.14545454545454106,
                "tempo": 120.0
            },
            {
                "start_time": 33.070454545454545,
                "end_time": 33.215909090909086,
                "pitch": 33,
                "velocity": 101,
                "duration": 0.14545454545454106,
                "tempo": 120.0
            },
            {
                "start_time": 33.25,
                "end_time": 34.55227272727272,
                "pitch": 29,
                "velocity": 101,
                "duration": 1.3022727272727224,
                "tempo": 120.0
            },
            {
                "start_time": 34.76136363636363,
                "end_time": 34.913636363636364,
                "pitch": 29,
                "velocity": 80,
                "duration": 0.1522727272727309,
                "tempo": 120.0
            },
            {
                "start_time": 34.949999999999996,
                "end_time": 35.12045454545454,
                "pitch": 29,
                "velocity": 80,
                "duration": 0.17045454545454675,
                "tempo": 120.0
            },
            {
                "start_time": 35.15681818181818,
                "end_time": 35.31136363636364,
                "pitch": 29,
                "velocity": 80,
                "duration": 0.1545454545454561,
                "tempo": 120.0
            },
            {
                "start_time": 35.345454545454544,
                "end_time": 35.5,
                "pitch": 29,
                "velocity": 101,
                "duration": 0.1545454545454561,
                "tempo": 120.0
            },
            {
                "start_time": 35.53409090909091,
                "end_time": 35.69318181818181,
                "pitch": 29,
                "velocity": 101,
                "duration": 0.1590909090909065,
                "tempo": 120.0
            },
            {
                "start_time": 35.70909090909091,
                "end_time": 35.86818181818182,
                "pitch": 29,
                "velocity": 101,
                "duration": 0.1590909090909065,
                "tempo": 120.0
            },
            {
                "start_time": 35.9,
                "end_time": 36.054545454545455,
                "pitch": 29,
                "velocity": 101,
                "duration": 0.1545454545454561,
                "tempo": 120.0
            },
            {
                "start_time": 36.08863636363636,
                "end_time": 37.538636363636364,
                "pitch": 26,
                "velocity": 101,
                "duration": 1.4500000000000028,
                "tempo": 120.0
            },
            {
                "start_time": 37.77272727272727,
                "end_time": 37.925,
                "pitch": 26,
                "velocity": 80,
                "duration": 0.15227272727272378,
                "tempo": 120.0
            },
            {
                "start_time": 37.95909090909091,
                "end_time": 38.10909090909091,
                "pitch": 26,
                "velocity": 80,
                "duration": 0.14999999999999858,
                "tempo": 120.0
            },
            {
                "start_time": 38.143181818181816,
                "end_time": 38.309090909090905,
                "pitch": 26,
                "velocity": 80,
                "duration": 0.16590909090908923,
                "tempo": 120.0
            },
            {
                "start_time": 38.34318181818182,
                "end_time": 38.49318181818182,
                "pitch": 26,
                "velocity": 101,
                "duration": 0.14999999999999858,
                "tempo": 120.0
            },
            {
                "start_time": 38.527272727272724,
                "end_time": 38.679545454545455,
                "pitch": 26,
                "velocity": 101,
                "duration": 0.1522727272727309,
                "tempo": 120.0
            },
            {
                "start_time": 38.71363636363636,
                "end_time": 38.87954545454545,
                "pitch": 26,
                "velocity": 101,
                "duration": 0.16590909090908923,
                "tempo": 120.0
            },
            {
                "start_time": 38.89772727272727,
                "end_time": 39.059090909090905,
                "pitch": 26,
                "velocity": 101,
                "duration": 0.1613636363636317,
                "tempo": 120.0
            },
            {
                "start_time": 39.09318181818182,
                "end_time": 40.54545454545455,
                "pitch": 28,
                "velocity": 101,
                "duration": 1.452272727272728,
                "tempo": 120.0
            },
            {
                "start_time": 40.77045454545454,
                "end_time": 40.93181818181818,
                "pitch": 28,
                "velocity": 80,
                "duration": 0.16136363636363882,
                "tempo": 120.0
            },
            {
                "start_time": 40.965909090909086,
                "end_time": 41.111363636363635,
                "pitch": 28,
                "velocity": 80,
                "duration": 0.14545454545454817,
                "tempo": 120.0
            },
            {
                "start_time": 41.143181818181816,
                "end_time": 41.29545454545455,
                "pitch": 28,
                "velocity": 80,
                "duration": 0.1522727272727309,
                "tempo": 120.0
            },
            {
                "start_time": 41.32954545454545,
                "end_time": 41.49545454545454,
                "pitch": 28,
                "velocity": 101,
                "duration": 0.16590909090908923,
                "tempo": 120.0
            },
            {
                "start_time": 41.52954545454545,
                "end_time": 41.68636363636364,
                "pitch": 28,
                "velocity": 101,
                "duration": 0.1568181818181884,
                "tempo": 120.0
            },
            {
                "start_time": 41.72272727272727,
                "end_time": 41.87954545454545,
                "pitch": 28,
                "velocity": 101,
                "duration": 0.1568181818181813,
                "tempo": 120.0
            },
            {
                "start_time": 41.91590909090909,
                "end_time": 42.074999999999996,
                "pitch": 28,
                "velocity": 101,
                "duration": 0.1590909090909065,
                "tempo": 120.0
            },
            {
                "start_time": 42.09318181818182,
                "end_time": 43.55681818181818,
                "pitch": 33,
                "velocity": 101,
                "duration": 1.4636363636363612,
                "tempo": 120.0
            },
            {
                "start_time": 43.768181818181816,
                "end_time": 43.92045454545455,
                "pitch": 33,
                "velocity": 80,
                "duration": 0.1522727272727309,
                "tempo": 120.0
            },
            {
                "start_time": 43.95454545454545,
                "end_time": 44.12045454545454,
                "pitch": 33,
                "velocity": 80,
                "duration": 0.16590909090908923,
                "tempo": 120.0
            },
            {
                "start_time": 44.15454545454545,
                "end_time": 44.309090909090905,
                "pitch": 33,
                "velocity": 80,
                "duration": 0.1545454545454561,
                "tempo": 120.0
            },
            {
                "start_time": 44.34318181818182,
                "end_time": 44.49772727272727,
                "pitch": 33,
                "velocity": 101,
                "duration": 0.154545454545449,
                "tempo": 120.0
            },
            {
                "start_time": 44.53409090909091,
                "end_time": 44.695454545454545,
                "pitch": 33,
                "velocity": 101,
                "duration": 0.16136363636363882,
                "tempo": 120.0
            },
            {
                "start_time": 44.72954545454545,
                "end_time": 44.875,
                "pitch": 33,
                "velocity": 101,
                "duration": 0.14545454545454817,
                "tempo": 120.0
            },
            {
                "start_time": 44.90681818181818,
                "end_time": 45.059090909090905,
                "pitch": 33,
                "velocity": 101,
                "duration": 0.15227272727272378,
                "tempo": 120.0
            },
            {
                "start_time": 45.09318181818182,
                "end_time": 46.56818181818181,
                "pitch": 29,
                "velocity": 101,
                "duration": 1.4749999999999943,
                "tempo": 120.0
            },
            {
                "start_time": 46.78181818181818,
                "end_time": 46.93181818181818,
                "pitch": 29,
                "velocity": 80,
                "duration": 0.14999999999999858,
                "tempo": 120.0
            },
            {
                "start_time": 46.965909090909086,
                "end_time": 47.11590909090909,
                "pitch": 29,
                "velocity": 80,
                "duration": 0.15000000000000568,
                "tempo": 120.0
            },
            {
                "start_time": 47.15,
                "end_time": 47.31590909090909,
                "pitch": 29,
                "velocity": 80,
                "duration": 0.16590909090908923,
                "tempo": 120.0
            },
            {
                "start_time": 47.349999999999994,
                "end_time": 47.502272727272725,
                "pitch": 29,
                "velocity": 101,
                "duration": 0.1522727272727309,
                "tempo": 120.0
            },
            {
                "start_time": 47.53636363636363,
                "end_time": 47.68636363636364,
                "pitch": 29,
                "velocity": 101,
                "duration": 0.15000000000000568,
                "tempo": 120.0
            },
            {
                "start_time": 47.720454545454544,
                "end_time": 47.88863636363636,
                "pitch": 29,
                "velocity": 101,
                "duration": 0.16818181818181444,
                "tempo": 120.0
            },
            {
                "start_time": 47.92272727272727,
                "end_time": 48.07272727272727,
                "pitch": 29,
                "velocity": 101,
                "duration": 0.14999999999999858,
                "tempo": 120.0
            },
            {
                "start_time": 48.10681818181818,
                "end_time": 49.55227272727272,
                "pitch": 26,
                "velocity": 101,
                "duration": 1.4454545454545453,
                "tempo": 120.0
            },
            {
                "start_time": 49.777272727272724,
                "end_time": 49.94090909090909,
                "pitch": 26,
                "velocity": 80,
                "duration": 0.16363636363636402,
                "tempo": 120.0
            },
            {
                "start_time": 49.97272727272727,
                "end_time": 50.11818181818182,
                "pitch": 26,
                "velocity": 80,
                "duration": 0.14545454545454817,
                "tempo": 120.0
            },
            {
                "start_time": 50.152272727272724,
                "end_time": 50.30227272727272,
                "pitch": 26,
                "velocity": 80,
                "duration": 0.14999999999999858,
                "tempo": 120.0
            },
            {
                "start_time": 50.336363636363636,
                "end_time": 50.50454545454545,
                "pitch": 26,
                "velocity": 101,
                "duration": 0.16818181818181444,
                "tempo": 120.0
            },
            {
                "start_time": 50.538636363636364,
                "end_time": 50.68863636363636,
                "pitch": 26,
                "velocity": 101,
                "duration": 0.14999999999999858,
                "tempo": 120.0
            },
            {
                "start_time": 50.72272727272727,
                "end_time": 50.87272727272727,
                "pitch": 26,
                "velocity": 101,
                "duration": 0.14999999999999858,
                "tempo": 120.0
            },
            {
                "start_time": 50.90681818181818,
                "end_time": 51.070454545454545,
                "pitch": 26,
                "velocity": 101,
                "duration": 0.16363636363636402,
                "tempo": 120.0
            },
            {
                "start_time": 51.10227272727273,
                "end_time": 52.570454545454545,
                "pitch": 28,
                "velocity": 101,
                "duration": 1.4681818181818187,
                "tempo": 120.0
            },
            {
                "start_time": 52.788636363636364,
                "end_time": 52.95227272727273,
                "pitch": 28,
                "velocity": 80,
                "duration": 0.16363636363636402,
                "tempo": 120.0
            },
            {
                "start_time": 52.96818181818182,
                "end_time": 53.12954545454545,
                "pitch": 28,
                "velocity": 80,
                "duration": 0.1613636363636317,
                "tempo": 120.0
            },
            {
                "start_time": 53.163636363636364,
                "end_time": 53.31363636363636,
                "pitch": 28,
                "velocity": 80,
                "duration": 0.14999999999999858,
                "tempo": 120.0
            },
            {
                "start_time": 53.34772727272727,
                "end_time": 53.49772727272727,
                "pitch": 28,
                "velocity": 101,
                "duration": 0.14999999999999858,
                "tempo": 120.0
            },
            {
                "start_time": 53.53181818181818,
                "end_time": 53.699999999999996,
                "pitch": 28,
                "velocity": 101,
                "duration": 0.16818181818181444,
                "tempo": 120.0
            },
            {
                "start_time": 53.73409090909091,
                "end_time": 53.88409090909091,
                "pitch": 28,
                "velocity": 101,
                "duration": 0.14999999999999858,
                "tempo": 120.0
            },
            {
                "start_time": 53.918181818181814,
                "end_time": 54.070454545454545,
                "pitch": 28,
                "velocity": 101,
                "duration": 0.1522727272727309,
                "tempo": 120.0
            },
            {
                "start_time": 54.10454545454545,
                "end_time": 54.17045454545454,
                "pitch": 33,
                "velocity": 101,
                "duration": 0.06590909090908781,
                "tempo": 120.0
            },
            {
                "start_time": 54.20454545454545,
                "end_time": 54.27045454545454,
                "pitch": 33,
                "velocity": 101,
                "duration": 0.06590909090908781,
                "tempo": 120.0
            },
            {
                "start_time": 54.304545454545455,
                "end_time": 54.35454545454545,
                "pitch": 33,
                "velocity": 101,
                "duration": 0.04999999999999716,
                "tempo": 120.0
            },
            {
                "start_time": 54.38863636363636,
                "end_time": 54.45454545454545,
                "pitch": 33,
                "velocity": 101,
                "duration": 0.06590909090909491,
                "tempo": 120.0
            },
            {
                "start_time": 54.48863636363636,
                "end_time": 54.64090909090909,
                "pitch": 33,
                "velocity": 101,
                "duration": 0.1522727272727309,
                "tempo": 120.0
            },
            {
                "start_time": 54.675,
                "end_time": 55.01590909090909,
                "pitch": 31,
                "velocity": 101,
                "duration": 0.3409090909090935,
                "tempo": 120.0
            },
            {
                "start_time": 55.04772727272727,
                "end_time": 55.38409090909091,
                "pitch": 33,
                "velocity": 101,
                "duration": 0.336363636363636,
                "tempo": 120.0
            },
            {
                "start_time": 55.418181818181814,
                "end_time": 55.48181818181818,
                "pitch": 35,
                "velocity": 101,
                "duration": 0.0636363636363626,
                "tempo": 120.0
            },
            {
                "start_time": 55.51590909090909,
                "end_time": 55.57954545454545,
                "pitch": 31,
                "velocity": 101,
                "duration": 0.0636363636363626,
                "tempo": 120.0
            },
            {
                "start_time": 55.61363636363636,
                "end_time": 55.66136363636363,
                "pitch": 33,
                "velocity": 101,
                "duration": 0.04772727272727195,
                "tempo": 120.0
            },
            {
                "start_time": 55.695454545454545,
                "end_time": 55.75909090909091,
                "pitch": 33,
                "velocity": 101,
                "duration": 0.0636363636363626,
                "tempo": 120.0
            },
            {
                "start_time": 55.79090909090909,
                "end_time": 55.85909090909091,
                "pitch": 33,
                "velocity": 101,
                "duration": 0.06818181818182012,
                "tempo": 120.0
            },
            {
                "start_time": 55.89545454545454,
                "end_time": 55.945454545454545,
                "pitch": 33,
                "velocity": 101,
                "duration": 0.05000000000000426,
                "tempo": 120.0
            },
            {
                "start_time": 55.97954545454545,
                "end_time": 56.152272727272724,
                "pitch": 33,
                "velocity": 101,
                "duration": 0.17272727272727195,
                "tempo": 120.0
            },
            {
                "start_time": 56.17045454545454,
                "end_time": 56.502272727272725,
                "pitch": 33,
                "velocity": 101,
                "duration": 0.33181818181818556,
                "tempo": 120.0
            },
            {
                "start_time": 56.53636363636363,
                "end_time": 56.89545454545454,
                "pitch": 33,
                "velocity": 101,
                "duration": 0.35909090909090935,
                "tempo": 120.0
            },
            {
                "start_time": 56.93181818181818,
                "end_time": 56.97954545454545,
                "pitch": 35,
                "velocity": 101,
                "duration": 0.04772727272727195,
                "tempo": 120.0
            },
            {
                "start_time": 57.01590909090909,
                "end_time": 57.08181818181818,
                "pitch": 31,
                "velocity": 101,
                "duration": 0.06590909090908781,
                "tempo": 120.0
            },
            {
                "start_time": 57.115909090909085,
                "end_time": 57.18181818181818,
                "pitch": 33,
                "velocity": 101,
                "duration": 0.06590909090909491,
                "tempo": 120.0
            },
            {
                "start_time": 57.215909090909086,
                "end_time": 57.26590909090909,
                "pitch": 33,
                "velocity": 101,
                "duration": 0.05000000000000426,
                "tempo": 120.0
            },
            {
                "start_time": 57.3,
                "end_time": 57.36363636363636,
                "pitch": 33,
                "velocity": 101,
                "duration": 0.0636363636363626,
                "tempo": 120.0
            },
            {
                "start_time": 57.39772727272727,
                "end_time": 57.461363636363636,
                "pitch": 33,
                "velocity": 101,
                "duration": 0.0636363636363626,
                "tempo": 120.0
            },
            {
                "start_time": 57.49545454545454,
                "end_time": 57.64090909090909,
                "pitch": 33,
                "velocity": 101,
                "duration": 0.14545454545454817,
                "tempo": 120.0
            },
            {
                "start_time": 57.675,
                "end_time": 58.084090909090904,
                "pitch": 31,
                "velocity": 101,
                "duration": 0.4090909090909065,
                "tempo": 120.0
            },
            {
                "start_time": 58.10454545454545,
                "end_time": 58.538636363636364,
                "pitch": 33,
                "velocity": 101,
                "duration": 0.4340909090909122,
                "tempo": 120.0
            },
            {
                "start_time": 58.58181818181818,
                "end_time": 58.663636363636364,
                "pitch": 35,
                "velocity": 101,
                "duration": 0.08181818181818556,
                "tempo": 120.0
            },
            {
                "start_time": 58.70681818181818,
                "end_time": 58.768181818181816,
                "pitch": 31,
                "velocity": 101,
                "duration": 0.0613636363636374,
                "tempo": 120.0
            },
            {
                "start_time": 58.81136363636363,
                "end_time": 58.875,
                "pitch": 33,
                "velocity": 101,
                "duration": 0.06363636363636971,
                "tempo": 120.0
            },
            {
                "start_time": 58.90909090909091,
                "end_time": 58.97272727272727,
                "pitch": 33,
                "velocity": 101,
                "duration": 0.0636363636363626,
                "tempo": 120.0
            },
            {
                "start_time": 59.006818181818176,
                "end_time": 59.054545454545455,
                "pitch": 33,
                "velocity": 101,
                "duration": 0.04772727272727906,
                "tempo": 120.0
            },
            {
                "start_time": 59.086363636363636,
                "end_time": 59.152272727272724,
                "pitch": 33,
                "velocity": 101,
                "duration": 0.06590909090908781,
                "tempo": 120.0
            },
            {
                "start_time": 59.184090909090905,
                "end_time": 59.33863636363636,
                "pitch": 33,
                "velocity": 101,
                "duration": 0.1545454545454561,
                "tempo": 120.0
            },
            {
                "start_time": 59.375,
                "end_time": 59.724999999999994,
                "pitch": 33,
                "velocity": 101,
                "duration": 0.3499999999999943,
                "tempo": 120.0
            },
            {
                "start_time": 59.75909090909091,
                "end_time": 60.084090909090904,
                "pitch": 33,
                "velocity": 101,
                "duration": 0.32499999999999574,
                "tempo": 120.0
            },
            {
                "start_time": 60.11818181818182,
                "end_time": 60.18181818181818,
                "pitch": 33,
                "velocity": 101,
                "duration": 0.0636363636363626,
                "tempo": 120.0
            },
            {
                "start_time": 60.21363636363636,
                "end_time": 60.27954545454545,
                "pitch": 33,
                "velocity": 101,
                "duration": 0.06590909090908781,
                "tempo": 120.0
            },
            {
                "start_time": 60.31363636363636,
                "end_time": 60.465909090909086,
                "pitch": 33,
                "velocity": 101,
                "duration": 0.15227272727272378,
                "tempo": 120.0
            },
            {
                "start_time": 60.502272727272725,
                "end_time": 60.56818181818181,
                "pitch": 33,
                "velocity": 101,
                "duration": 0.06590909090908781,
                "tempo": 120.0
            }
        ],
        "Acoustic Grand Piano": [
            {
                "start_time": 6.2749999999999995,
                "end_time": 6.486363636363636,
                "pitch": 64,
                "velocity": 51,
                "duration": 0.21136363636363686,
                "tempo": 120.0
            },
            {
                "start_time": 6.529545454545454,
                "end_time": 6.715909090909091,
                "pitch": 69,
                "velocity": 51,
                "duration": 0.1863636363636365,
                "tempo": 120.0
            },
            {
                "start_time": 6.759090909090909,
                "end_time": 6.9431818181818175,
                "pitch": 72,
                "velocity": 51,
                "duration": 0.18409090909090864,
                "tempo": 120.0
            },
            {
                "start_time": 6.986363636363636,
                "end_time": 7.1499999999999995,
                "pitch": 76,
                "velocity": 51,
                "duration": 0.16363636363636314,
                "tempo": 120.0
            },
            {
                "start_time": 7.168181818181818,
                "end_time": 7.329545454545454,
                "pitch": 72,
                "velocity": 51,
                "duration": 0.16136363636363615,
                "tempo": 120.0
            },
            {
                "start_time": 7.363636363636363,
                "end_time": 7.513636363636364,
                "pitch": 69,
                "velocity": 51,
                "duration": 0.15000000000000036,
                "tempo": 120.0
            },
            {
                "start_time": 7.547727272727272,
                "end_time": 7.697727272727272,
                "pitch": 64,
                "velocity": 51,
                "duration": 0.15000000000000036,
                "tempo": 120.0
            },
            {
                "start_time": 7.927272727272727,
                "end_time": 8.072727272727272,
                "pitch": 62,
                "velocity": 51,
                "duration": 0.1454545454545455,
                "tempo": 120.0
            },
            {
                "start_time": 8.104545454545454,
                "end_time": 8.256818181818181,
                "pitch": 65,
                "velocity": 51,
                "duration": 0.15227272727272734,
                "tempo": 120.0
            },
            {
                "start_time": 8.290909090909091,
                "end_time": 8.456818181818182,
                "pitch": 69,
                "velocity": 51,
                "duration": 0.165909090909091,
                "tempo": 120.0
            },
            {
                "start_time": 8.475,
                "end_time": 8.634090909090908,
                "pitch": 72,
                "velocity": 51,
                "duration": 0.15909090909090828,
                "tempo": 120.0
            },
            {
                "start_time": 8.665909090909091,
                "end_time": 8.806818181818182,
                "pitch": 69,
                "velocity": 51,
                "duration": 0.14090909090909065,
                "tempo": 120.0
            },
            {
                "start_time": 8.84090909090909,
                "end_time": 8.993181818181817,
                "pitch": 65,
                "velocity": 51,
                "duration": 0.15227272727272734,
                "tempo": 120.0
            },
            {
                "start_time": 9.029545454545454,
                "end_time": 9.2,
                "pitch": 62,
                "velocity": 51,
                "duration": 0.17045454545454497,
                "tempo": 120.0
            },
            {
                "start_time": 9.420454545454545,
                "end_time": 9.570454545454545,
                "pitch": 67,
                "velocity": 51,
                "duration": 0.15000000000000036,
                "tempo": 120.0
            },
            {
                "start_time": 9.604545454545454,
                "end_time": 9.76590909090909,
                "pitch": 71,
                "velocity": 51,
                "duration": 0.16136363636363704,
                "tempo": 120.0
            },
            {
                "start_time": 9.799999999999999,
                "end_time": 9.945454545454545,
                "pitch": 74,
                "velocity": 51,
                "duration": 0.1454545454545464,
                "tempo": 120.0
            },
            {
                "start_time": 9.979545454545454,
                "end_time": 10.129545454545454,
                "pitch": 79,
                "velocity": 51,
                "duration": 0.15000000000000036,
                "tempo": 120.0
            },
            {
                "start_time": 10.163636363636364,
                "end_time": 10.331818181818182,
                "pitch": 74,
                "velocity": 51,
                "duration": 0.168181818181818,
                "tempo": 120.0
            },
            {
                "start_time": 10.347727272727273,
                "end_time": 10.511363636363637,
                "pitch": 71,
                "velocity": 51,
                "duration": 0.16363636363636402,
                "tempo": 120.0
            },
            {
                "start_time": 10.543181818181818,
                "end_time": 10.688636363636363,
                "pitch": 67,
                "velocity": 51,
                "duration": 0.14545454545454461,
                "tempo": 120.0
            },
            {
                "start_time": 10.906818181818181,
                "end_time": 11.075,
                "pitch": 64,
                "velocity": 51,
                "duration": 0.168181818181818,
                "tempo": 120.0
            },
            {
                "start_time": 11.10909090909091,
                "end_time": 11.261363636363637,
                "pitch": 69,
                "velocity": 51,
                "duration": 0.15227272727272734,
                "tempo": 120.0
            },
            {
                "start_time": 11.297727272727272,
                "end_time": 11.452272727272726,
                "pitch": 72,
                "velocity": 51,
                "duration": 0.15454545454545432,
                "tempo": 120.0
            },
            {
                "start_time": 11.488636363636363,
                "end_time": 11.649999999999999,
                "pitch": 76,
                "velocity": 51,
                "duration": 0.16136363636363527,
                "tempo": 120.0
            },
            {
                "start_time": 11.665909090909091,
                "end_time": 11.829545454545453,
                "pitch": 72,
                "velocity": 51,
                "duration": 0.16363636363636225,
                "tempo": 120.0
            },
            {
                "start_time": 11.861363636363636,
                "end_time": 12.011363636363635,
                "pitch": 69,
                "velocity": 51,
                "duration": 0.14999999999999858,
                "tempo": 120.0
            },
            {
                "start_time": 12.045454545454545,
                "end_time": 12.195454545454545,
                "pitch": 64,
                "velocity": 51,
                "duration": 0.15000000000000036,
                "tempo": 120.0
            },
            {
                "start_time": 12.427272727272726,
                "end_time": 12.572727272727272,
                "pitch": 64,
                "velocity": 51,
                "duration": 0.1454545454545464,
                "tempo": 120.0
            },
            {
                "start_time": 12.604545454545454,
                "end_time": 12.754545454545454,
                "pitch": 69,
                "velocity": 51,
                "duration": 0.15000000000000036,
                "tempo": 120.0
            },
            {
                "start_time": 12.790909090909091,
                "end_time": 12.956818181818182,
                "pitch": 72,
                "velocity": 51,
                "duration": 0.165909090909091,
                "tempo": 120.0
            },
            {
                "start_time": 12.99090909090909,
                "end_time": 13.14090909090909,
                "pitch": 76,
                "velocity": 51,
                "duration": 0.15000000000000036,
                "tempo": 120.0
            },
            {
                "start_time": 13.174999999999999,
                "end_time": 13.325,
                "pitch": 72,
                "velocity": 51,
                "duration": 0.15000000000000036,
                "tempo": 120.0
            },
            {
                "start_time": 13.361363636363636,
                "end_time": 13.522727272727272,
                "pitch": 69,
                "velocity": 51,
                "duration": 0.16136363636363527,
                "tempo": 120.0
            },
            {
                "start_time": 13.538636363636362,
                "end_time": 13.7,
                "pitch": 64,
                "velocity": 51,
                "duration": 0.16136363636363704,
                "tempo": 120.0
            },
            {
                "start_time": 13.922727272727272,
                "end_time": 14.077272727272726,
                "pitch": 62,
                "velocity": 51,
                "duration": 0.15454545454545432,
                "tempo": 120.0
            },
            {
                "start_time": 14.111363636363636,
                "end_time": 14.270454545454545,
                "pitch": 65,
                "velocity": 51,
                "duration": 0.15909090909090828,
                "tempo": 120.0
            },
            {
                "start_time": 14.302272727272726,
                "end_time": 14.445454545454545,
                "pitch": 69,
                "velocity": 51,
                "duration": 0.1431818181818194,
                "tempo": 120.0
            },
            {
                "start_time": 14.477272727272727,
                "end_time": 14.627272727272727,
                "pitch": 72,
                "velocity": 51,
                "duration": 0.15000000000000036,
                "tempo": 120.0
            },
            {
                "start_time": 14.663636363636362,
                "end_time": 14.829545454545453,
                "pitch": 69,
                "velocity": 51,
                "duration": 0.165909090909091,
                "tempo": 120.0
            },
            {
                "start_time": 14.847727272727273,
                "end_time": 15.013636363636364,
                "pitch": 65,
                "velocity": 51,
                "duration": 0.165909090909091,
                "tempo": 120.0
            },
            {
                "start_time": 15.047727272727272,
                "end_time": 15.197727272727272,
                "pitch": 62,
                "velocity": 51,
                "duration": 0.15000000000000036,
                "tempo": 120.0
            },
            {
                "start_time": 15.415909090909091,
                "end_time": 15.584090909090909,
                "pitch": 67,
                "velocity": 51,
                "duration": 0.168181818181818,
                "tempo": 120.0
            },
            {
                "start_time": 15.618181818181817,
                "end_time": 15.768181818181818,
                "pitch": 71,
                "velocity": 51,
                "duration": 0.15000000000000036,
                "tempo": 120.0
            },
            {
                "start_time": 15.802272727272726,
                "end_time": 15.954545454545453,
                "pitch": 74,
                "velocity": 51,
                "duration": 0.15227272727272734,
                "tempo": 120.0
            },
            {
                "start_time": 15.988636363636363,
                "end_time": 16.15,
                "pitch": 79,
                "velocity": 51,
                "duration": 0.16136363636363527,
                "tempo": 120.0
            },
            {
                "start_time": 16.18409090909091,
                "end_time": 16.329545454545453,
                "pitch": 74,
                "velocity": 51,
                "duration": 0.14545454545454461,
                "tempo": 120.0
            },
            {
                "start_time": 16.363636363636363,
                "end_time": 16.513636363636362,
                "pitch": 71,
                "velocity": 51,
                "duration": 0.14999999999999858,
                "tempo": 120.0
            },
            {
                "start_time": 16.547727272727272,
                "end_time": 16.71363636363636,
                "pitch": 67,
                "velocity": 51,
                "duration": 0.16590909090908923,
                "tempo": 120.0
            },
            {
                "start_time": 16.927272727272726,
                "end_time": 17.07272727272727,
                "pitch": 64,
                "velocity": 51,
                "duration": 0.14545454545454461,
                "tempo": 120.0
            },
            {
                "start_time": 17.10681818181818,
                "end_time": 17.259090909090908,
                "pitch": 69,
                "velocity": 51,
                "duration": 0.15227272727272734,
                "tempo": 120.0
            },
            {
                "start_time": 17.295454545454543,
                "end_time": 17.46590909090909,
                "pitch": 72,
                "velocity": 51,
                "duration": 0.17045454545454675,
                "tempo": 120.0
            },
            {
                "start_time": 17.502272727272725,
                "end_time": 17.652272727272727,
                "pitch": 76,
                "velocity": 51,
                "duration": 0.15000000000000213,
                "tempo": 120.0
            },
            {
                "start_time": 60.502272727272725,
                "end_time": 60.56818181818181,
                "pitch": 64,
                "velocity": 51,
                "duration": 0.06590909090908781,
                "tempo": 120.0
            }
        ],
        "Vibraphone": [
            {
                "start_time": 30.25681818181818,
                "end_time": 30.304545454545455,
                "pitch": 81,
                "velocity": 64,
                "duration": 0.047727272727275505,
                "tempo": 120.0
            },
            {
                "start_time": 30.33863636363636,
                "end_time": 30.40681818181818,
                "pitch": 83,
                "velocity": 64,
                "duration": 0.06818181818182012,
                "tempo": 120.0
            },
            {
                "start_time": 30.443181818181817,
                "end_time": 30.511363636363633,
                "pitch": 84,
                "velocity": 64,
                "duration": 0.06818181818181657,
                "tempo": 120.0
            },
            {
                "start_time": 30.545454545454543,
                "end_time": 30.597727272727273,
                "pitch": 81,
                "velocity": 51,
                "duration": 0.05227272727272947,
                "tempo": 120.0
            },
            {
                "start_time": 30.63181818181818,
                "end_time": 30.69772727272727,
                "pitch": 83,
                "velocity": 51,
                "duration": 0.06590909090909136,
                "tempo": 120.0
            },
            {
                "start_time": 30.729545454545452,
                "end_time": 30.795454545454543,
                "pitch": 84,
                "velocity": 51,
                "duration": 0.06590909090909136,
                "tempo": 120.0
            },
            {
                "start_time": 30.811363636363634,
                "end_time": 30.875,
                "pitch": 81,
                "velocity": 40,
                "duration": 0.06363636363636616,
                "tempo": 120.0
            },
            {
                "start_time": 30.909090909090907,
                "end_time": 30.972727272727273,
                "pitch": 83,
                "velocity": 40,
                "duration": 0.06363636363636616,
                "tempo": 120.0
            },
            {
                "start_time": 31.00681818181818,
                "end_time": 31.07272727272727,
                "pitch": 84,
                "velocity": 40,
                "duration": 0.06590909090909136,
                "tempo": 120.0
            },
            {
                "start_time": 31.09090909090909,
                "end_time": 31.15681818181818,
                "pitch": 81,
                "velocity": 32,
                "duration": 0.06590909090909136,
                "tempo": 120.0
            },
            {
                "start_time": 31.190909090909088,
                "end_time": 31.25681818181818,
                "pitch": 83,
                "velocity": 32,
                "duration": 0.06590909090909136,
                "tempo": 120.0
            },
            {
                "start_time": 31.29090909090909,
                "end_time": 31.34090909090909,
                "pitch": 84,
                "velocity": 32,
                "duration": 0.05000000000000071,
                "tempo": 120.0
            },
            {
                "start_time": 31.375,
                "end_time": 31.438636363636363,
                "pitch": 81,
                "velocity": 25,
                "duration": 0.0636363636363626,
                "tempo": 120.0
            },
            {
                "start_time": 31.470454545454544,
                "end_time": 31.534090909090907,
                "pitch": 83,
                "velocity": 25,
                "duration": 0.0636363636363626,
                "tempo": 120.0
            },
            {
                "start_time": 31.565909090909088,
                "end_time": 31.613636363636363,
                "pitch": 84,
                "velocity": 25,
                "duration": 0.047727272727275505,
                "tempo": 120.0
            },
            {
                "start_time": 31.645454545454545,
                "end_time": 31.709090909090907,
                "pitch": 81,
                "velocity": 25,
                "duration": 0.0636363636363626,
                "tempo": 120.0
            },
            {
                "start_time": 31.74090909090909,
                "end_time": 31.80909090909091,
                "pitch": 81,
                "velocity": 64,
                "duration": 0.06818181818182012,
                "tempo": 120.0
            },
            {
                "start_time": 31.843181818181815,
                "end_time": 31.895454545454545,
                "pitch": 83,
                "velocity": 64,
                "duration": 0.05227272727272947,
                "tempo": 120.0
            },
            {
                "start_time": 31.929545454545455,
                "end_time": 31.99772727272727,
                "pitch": 84,
                "velocity": 64,
                "duration": 0.06818181818181657,
                "tempo": 120.0
            },
            {
                "start_time": 32.03181818181818,
                "end_time": 32.10227272727273,
                "pitch": 81,
                "velocity": 51,
                "duration": 0.07045454545454533,
                "tempo": 120.0
            },
            {
                "start_time": 32.13636363636363,
                "end_time": 32.18636363636364,
                "pitch": 83,
                "velocity": 51,
                "duration": 0.05000000000000426,
                "tempo": 120.0
            },
            {
                "start_time": 32.220454545454544,
                "end_time": 32.28636363636363,
                "pitch": 84,
                "velocity": 51,
                "duration": 0.06590909090908781,
                "tempo": 120.0
            },
            {
                "start_time": 32.320454545454545,
                "end_time": 32.38636363636363,
                "pitch": 81,
                "velocity": 40,
                "duration": 0.06590909090908781,
                "tempo": 120.0
            },
            {
                "start_time": 32.404545454545456,
                "end_time": 32.470454545454544,
                "pitch": 83,
                "velocity": 40,
                "duration": 0.06590909090908781,
                "tempo": 120.0
            },
            {
                "start_time": 32.50454545454545,
                "end_time": 32.570454545454545,
                "pitch": 84,
                "velocity": 40,
                "duration": 0.06590909090909491,
                "tempo": 120.0
            },
            {
                "start_time": 32.60454545454545,
                "end_time": 32.67272727272727,
                "pitch": 81,
                "velocity": 32,
                "duration": 0.06818181818182012,
                "tempo": 120.0
            },
            {
                "start_time": 32.69090909090909,
                "end_time": 32.75681818181818,
                "pitch": 83,
                "velocity": 32,
                "duration": 0.06590909090909491,
                "tempo": 120.0
            },
            {
                "start_time": 32.79090909090909,
                "end_time": 32.85681818181818,
                "pitch": 84,
                "velocity": 32,
                "duration": 0.06590909090908781,
                "tempo": 120.0
            },
            {
                "start_time": 32.89090909090909,
                "end_time": 32.93863636363636,
                "pitch": 81,
                "velocity": 25,
                "duration": 0.04772727272727195,
                "tempo": 120.0
            },
            {
                "start_time": 32.97272727272727,
                "end_time": 33.03636363636363,
                "pitch": 83,
                "velocity": 25,
                "duration": 0.0636363636363626,
                "tempo": 120.0
            },
            {
                "start_time": 33.070454545454545,
                "end_time": 33.13409090909091,
                "pitch": 84,
                "velocity": 25,
                "duration": 0.0636363636363626,
                "tempo": 120.0
            },
            {
                "start_time": 33.168181818181814,
                "end_time": 33.215909090909086,
                "pitch": 81,
                "velocity": 25,
                "duration": 0.04772727272727195,
                "tempo": 120.0
            },
            {
                "start_time": 33.25,
                "end_time": 33.31363636363636,
                "pitch": 81,
                "velocity": 64,
                "duration": 0.0636363636363626,
                "tempo": 120.0
            },
            {
                "start_time": 33.345454545454544,
                "end_time": 33.41136363636363,
                "pitch": 83,
                "velocity": 64,
                "duration": 0.06590909090908781,
                "tempo": 120.0
            },
            {
                "start_time": 33.44318181818181,
                "end_time": 33.49318181818182,
                "pitch": 84,
                "velocity": 64,
                "duration": 0.05000000000000426,
                "tempo": 120.0
            },
            {
                "start_time": 33.525,
                "end_time": 33.586363636363636,
                "pitch": 81,
                "velocity": 51,
                "duration": 0.0613636363636374,
                "tempo": 120.0
            },
            {
                "start_time": 33.61590909090909,
                "end_time": 33.67045454545455,
                "pitch": 83,
                "velocity": 51,
                "duration": 0.054545454545454675,
                "tempo": 120.0
            },
            {
                "start_time": 33.699999999999996,
                "end_time": 33.74090909090909,
                "pitch": 84,
                "velocity": 51,
                "duration": 0.040909090909096335,
                "tempo": 120.0
            },
            {
                "start_time": 33.77045454545454,
                "end_time": 33.82727272727273,
                "pitch": 81,
                "velocity": 40,
                "duration": 0.056818181818186986,
                "tempo": 120.0
            },
            {
                "start_time": 33.85454545454545,
                "end_time": 33.91136363636363,
                "pitch": 83,
                "velocity": 40,
                "duration": 0.05681818181817988,
                "tempo": 120.0
            },
            {
                "start_time": 33.925,
                "end_time": 33.98181818181818,
                "pitch": 84,
                "velocity": 40,
                "duration": 0.05681818181817988,
                "tempo": 120.0
            },
            {
                "start_time": 34.00909090909091,
                "end_time": 34.06590909090909,
                "pitch": 81,
                "velocity": 32,
                "duration": 0.05681818181817988,
                "tempo": 120.0
            },
            {
                "start_time": 34.095454545454544,
                "end_time": 34.14772727272727,
                "pitch": 83,
                "velocity": 32,
                "duration": 0.05227272727272947,
                "tempo": 120.0
            },
            {
                "start_time": 34.163636363636364,
                "end_time": 34.21818181818182,
                "pitch": 84,
                "velocity": 32,
                "duration": 0.054545454545454675,
                "tempo": 120.0
            },
            {
                "start_time": 34.24545454545454,
                "end_time": 34.29772727272727,
                "pitch": 81,
                "velocity": 25,
                "duration": 0.05227272727272947,
                "tempo": 120.0
            },
            {
                "start_time": 34.32727272727273,
                "end_time": 34.36818181818182,
                "pitch": 83,
                "velocity": 25,
                "duration": 0.04090909090908923,
                "tempo": 120.0
            },
            {
                "start_time": 34.39545454545454,
                "end_time": 34.45909090909091,
                "pitch": 84,
                "velocity": 25,
                "duration": 0.06363636363636971,
                "tempo": 120.0
            },
            {
                "start_time": 34.49090909090909,
                "end_time": 34.554545454545455,
                "pitch": 81,
                "velocity": 25,
                "duration": 0.0636363636363626,
                "tempo": 120.0
            },
            {
                "start_time": 34.586363636363636,
                "end_time": 34.63409090909091,
                "pitch": 81,
                "velocity": 64,
                "duration": 0.04772727272727195,
                "tempo": 120.0
            },
            {
                "start_time": 34.66590909090909,
                "end_time": 34.72954545454545,
                "pitch": 83,
                "velocity": 64,
                "duration": 0.0636363636363626,
                "tempo": 120.0
            },
            {
                "start_time": 34.76136363636363,
                "end_time": 34.82954545454545,
                "pitch": 84,
                "velocity": 64,
                "duration": 0.06818181818182012,
                "tempo": 120.0
            },
            {
                "start_time": 34.86363636363636,
                "end_time": 34.91590909090909,
                "pitch": 81,
                "velocity": 51,
                "duration": 0.05227272727272947,
                "tempo": 120.0
            },
            {
                "start_time": 34.949999999999996,
                "end_time": 35.018181818181816,
                "pitch": 83,
                "velocity": 51,
                "duration": 0.06818181818182012,
                "tempo": 120.0
            },
            {
                "start_time": 35.05227272727272,
                "end_time": 35.12045454545454,
                "pitch": 84,
                "velocity": 51,
                "duration": 0.06818181818182012,
                "tempo": 120.0
            },
            {
                "start_time": 35.15681818181818,
                "end_time": 35.20681818181818,
                "pitch": 81,
                "velocity": 40,
                "duration": 0.04999999999999716,
                "tempo": 120.0
            },
            {
                "start_time": 35.24090909090909,
                "end_time": 35.31136363636364,
                "pitch": 83,
                "velocity": 40,
                "duration": 0.07045454545454533,
                "tempo": 120.0
            },
            {
                "start_time": 35.345454545454544,
                "end_time": 35.413636363636364,
                "pitch": 84,
                "velocity": 40,
                "duration": 0.06818181818182012,
                "tempo": 120.0
            },
            {
                "start_time": 35.43181818181818,
                "end_time": 35.5,
                "pitch": 81,
                "velocity": 32,
                "duration": 0.06818181818182012,
                "tempo": 120.0
            },
            {
                "start_time": 35.53636363636363,
                "end_time": 35.59772727272727,
                "pitch": 83,
                "velocity": 32,
                "duration": 0.0613636363636374,
                "tempo": 120.0
            },
            {
                "start_time": 35.62954545454545,
                "end_time": 35.69318181818181,
                "pitch": 84,
                "velocity": 32,
                "duration": 0.0636363636363626,
                "tempo": 120.0
            },
            {
                "start_time": 35.711363636363636,
                "end_time": 35.77272727272727,
                "pitch": 81,
                "velocity": 25,
                "duration": 0.0613636363636374,
                "tempo": 120.0
            },
            {
                "start_time": 35.804545454545455,
                "end_time": 35.86818181818182,
                "pitch": 83,
                "velocity": 25,
                "duration": 0.0636363636363626,
                "tempo": 120.0
            },
            {
                "start_time": 35.9,
                "end_time": 35.949999999999996,
                "pitch": 84,
                "velocity": 25,
                "duration": 0.04999999999999716,
                "tempo": 120.0
            },
            {
                "start_time": 35.986363636363635,
                "end_time": 36.054545454545455,
                "pitch": 81,
                "velocity": 25,
                "duration": 0.06818181818182012,
                "tempo": 120.0
            },
            {
                "start_time": 36.090909090909086,
                "end_time": 36.15681818181818,
                "pitch": 81,
                "velocity": 64,
                "duration": 0.06590909090909491,
                "tempo": 120.0
            },
            {
                "start_time": 36.19090909090909,
                "end_time": 36.24318181818182,
                "pitch": 83,
                "velocity": 64,
                "duration": 0.05227272727272947,
                "tempo": 120.0
            },
            {
                "start_time": 36.277272727272724,
                "end_time": 36.34318181818182,
                "pitch": 84,
                "velocity": 64,
                "duration": 0.06590909090909491,
                "tempo": 120.0
            },
            {
                "start_time": 36.377272727272725,
                "end_time": 36.44090909090909,
                "pitch": 81,
                "velocity": 51,
                "duration": 0.0636363636363626,
                "tempo": 120.0
            },
            {
                "start_time": 36.475,
                "end_time": 36.52272727272727,
                "pitch": 83,
                "velocity": 51,
                "duration": 0.04772727272727195,
                "tempo": 120.0
            },
            {
                "start_time": 36.554545454545455,
                "end_time": 36.62045454545454,
                "pitch": 84,
                "velocity": 51,
                "duration": 0.06590909090908781,
                "tempo": 120.0
            },
            {
                "start_time": 36.652272727272724,
                "end_time": 36.71818181818182,
                "pitch": 81,
                "velocity": 40,
                "duration": 0.06590909090909491,
                "tempo": 120.0
            },
            {
                "start_time": 36.752272727272725,
                "end_time": 36.80227272727272,
                "pitch": 83,
                "velocity": 40,
                "duration": 0.04999999999999716,
                "tempo": 120.0
            },
            {
                "start_time": 36.836363636363636,
                "end_time": 36.904545454545456,
                "pitch": 84,
                "velocity": 40,
                "duration": 0.06818181818182012,
                "tempo": 120.0
            },
            {
                "start_time": 36.93863636363636,
                "end_time": 37.00454545454545,
                "pitch": 81,
                "velocity": 32,
                "duration": 0.06590909090908781,
                "tempo": 120.0
            },
            {
                "start_time": 37.02045454545454,
                "end_time": 37.08409090909091,
                "pitch": 83,
                "velocity": 32,
                "duration": 0.06363636363636971,
                "tempo": 120.0
            },
            {
                "start_time": 37.11590909090909,
                "end_time": 37.179545454545455,
                "pitch": 84,
                "velocity": 32,
                "duration": 0.0636363636363626,
                "tempo": 120.0
            },
            {
                "start_time": 37.211363636363636,
                "end_time": 37.275,
                "pitch": 81,
                "velocity": 25,
                "duration": 0.0636363636363626,
                "tempo": 120.0
            },
            {
                "start_time": 37.29090909090909,
                "end_time": 37.35454545454545,
                "pitch": 83,
                "velocity": 25,
                "duration": 0.0636363636363626,
                "tempo": 120.0
            },
            {
                "start_time": 37.38636363636363,
                "end_time": 37.45454545454545,
                "pitch": 84,
                "velocity": 25,
                "duration": 0.06818181818182012,
                "tempo": 120.0
            },
            {
                "start_time": 37.48863636363636,
                "end_time": 37.538636363636364,
                "pitch": 81,
                "velocity": 25,
                "duration": 0.05000000000000426,
                "tempo": 120.0
            },
            {
                "start_time": 37.57272727272727,
                "end_time": 37.63863636363636,
                "pitch": 81,
                "velocity": 64,
                "duration": 0.06590909090908781,
                "tempo": 120.0
            },
            {
                "start_time": 37.67272727272727,
                "end_time": 37.73863636363636,
                "pitch": 83,
                "velocity": 64,
                "duration": 0.06590909090908781,
                "tempo": 120.0
            },
            {
                "start_time": 37.77272727272727,
                "end_time": 37.82272727272727,
                "pitch": 84,
                "velocity": 64,
                "duration": 0.04999999999999716,
                "tempo": 120.0
            },
            {
                "start_time": 37.85681818181818,
                "end_time": 37.925,
                "pitch": 81,
                "velocity": 51,
                "duration": 0.06818181818182012,
                "tempo": 120.0
            },
            {
                "start_time": 37.95909090909091,
                "end_time": 38.025,
                "pitch": 83,
                "velocity": 51,
                "duration": 0.06590909090908781,
                "tempo": 120.0
            },
            {
                "start_time": 38.059090909090905,
                "end_time": 38.10909090909091,
                "pitch": 84,
                "velocity": 51,
                "duration": 0.05000000000000426,
                "tempo": 120.0
            },
            {
                "start_time": 38.143181818181816,
                "end_time": 38.20909090909091,
                "pitch": 81,
                "velocity": 40,
                "duration": 0.06590909090909491,
                "tempo": 120.0
            },
            {
                "start_time": 38.24318181818182,
                "end_time": 38.309090909090905,
                "pitch": 83,
                "velocity": 40,
                "duration": 0.06590909090908781,
                "tempo": 120.0
            },
            {
                "start_time": 38.34318181818182,
                "end_time": 38.393181818181816,
                "pitch": 84,
                "velocity": 40,
                "duration": 0.04999999999999716,
                "tempo": 120.0
            },
            {
                "start_time": 38.42727272727272,
                "end_time": 38.49545454545454,
                "pitch": 81,
                "velocity": 32,
                "duration": 0.06818181818182012,
                "tempo": 120.0
            },
            {
                "start_time": 38.529545454545456,
                "end_time": 38.595454545454544,
                "pitch": 83,
                "velocity": 32,
                "duration": 0.06590909090908781,
                "tempo": 120.0
            },
            {
                "start_time": 38.611363636363635,
                "end_time": 38.679545454545455,
                "pitch": 84,
                "velocity": 32,
                "duration": 0.06818181818182012,
                "tempo": 120.0
            },
            {
                "start_time": 38.71363636363636,
                "end_time": 38.779545454545456,
                "pitch": 81,
                "velocity": 25,
                "duration": 0.06590909090909491,
                "tempo": 120.0
            },
            {
                "start_time": 38.81363636363636,
                "end_time": 38.87954545454545,
                "pitch": 83,
                "velocity": 25,
                "duration": 0.06590909090908781,
                "tempo": 120.0
            },
            {
                "start_time": 38.89772727272727,
                "end_time": 38.961363636363636,
                "pitch": 84,
                "velocity": 25,
                "duration": 0.0636363636363626,
                "tempo": 120.0
            },
            {
                "start_time": 38.99545454545454,
                "end_time": 39.059090909090905,
                "pitch": 81,
                "velocity": 25,
                "duration": 0.0636363636363626,
                "tempo": 120.0
            },
            {
                "start_time": 39.095454545454544,
                "end_time": 39.14090909090909,
                "pitch": 76,
                "velocity": 64,
                "duration": 0.045454545454546746,
                "tempo": 120.0
            },
            {
                "start_time": 39.17272727272727,
                "end_time": 39.23863636363636,
                "pitch": 80,
                "velocity": 64,
                "duration": 0.06590909090908781,
                "tempo": 120.0
            },
            {
                "start_time": 39.27045454545454,
                "end_time": 39.33863636363636,
                "pitch": 83,
                "velocity": 64,
                "duration": 0.06818181818182012,
                "tempo": 120.0
            },
            {
                "start_time": 39.37272727272727,
                "end_time": 39.42272727272727,
                "pitch": 76,
                "velocity": 51,
                "duration": 0.05000000000000426,
                "tempo": 120.0
            },
            {
                "start_time": 39.45681818181818,
                "end_time": 39.52272727272727,
                "pitch": 80,
                "velocity": 51,
                "duration": 0.06590909090909491,
                "tempo": 120.0
            },
            {
                "start_time": 39.55681818181818,
                "end_time": 39.62272727272727,
                "pitch": 83,
                "velocity": 51,
                "duration": 0.06590909090908781,
                "tempo": 120.0
            },
            {
                "start_time": 39.65681818181818,
                "end_time": 39.70681818181818,
                "pitch": 76,
                "velocity": 40,
                "duration": 0.04999999999999716,
                "tempo": 120.0
            },
            {
                "start_time": 39.74090909090909,
                "end_time": 39.809090909090905,
                "pitch": 80,
                "velocity": 40,
                "duration": 0.06818181818181301,
                "tempo": 120.0
            },
            {
                "start_time": 39.840909090909086,
                "end_time": 39.90909090909091,
                "pitch": 83,
                "velocity": 40,
                "duration": 0.06818181818182012,
                "tempo": 120.0
            },
            {
                "start_time": 39.94318181818181,
                "end_time": 39.99318181818182,
                "pitch": 76,
                "velocity": 32,
                "duration": 0.05000000000000426,
                "tempo": 120.0
            },
            {
                "start_time": 40.025,
                "end_time": 40.08863636363636,
                "pitch": 80,
                "velocity": 32,
                "duration": 0.0636363636363626,
                "tempo": 120.0
            },
            {
                "start_time": 40.12045454545454,
                "end_time": 40.184090909090905,
                "pitch": 83,
                "velocity": 32,
                "duration": 0.0636363636363626,
                "tempo": 120.0
            },
            {
                "start_time": 40.199999999999996,
                "end_time": 40.26363636363636,
                "pitch": 76,
                "velocity": 25,
                "duration": 0.0636363636363626,
                "tempo": 120.0
            },
            {
                "start_time": 40.29545454545455,
                "end_time": 40.35909090909091,
                "pitch": 80,
                "velocity": 25,
                "duration": 0.0636363636363626,
                "tempo": 120.0
            },
            {
                "start_time": 40.39090909090909,
                "end_time": 40.459090909090904,
                "pitch": 83,
                "velocity": 25,
                "duration": 0.06818181818181301,
                "tempo": 120.0
            },
            {
                "start_time": 40.47727272727273,
                "end_time": 40.54545454545455,
                "pitch": 80,
                "velocity": 25,
                "duration": 0.06818181818182012,
                "tempo": 120.0
            },
            {
                "start_time": 40.58181818181818,
                "end_time": 40.65,
                "pitch": 76,
                "velocity": 64,
                "duration": 0.06818181818182012,
                "tempo": 120.0
            },
            {
                "start_time": 40.684090909090905,
                "end_time": 40.736363636363635,
                "pitch": 80,
                "velocity": 64,
                "duration": 0.05227272727272947,
                "tempo": 120.0
            },
            {
                "start_time": 40.77045454545454,
                "end_time": 40.836363636363636,
                "pitch": 83,
                "velocity": 64,
                "duration": 0.06590909090909491,
                "tempo": 120.0
            },
            {
                "start_time": 40.86818181818182,
                "end_time": 40.934090909090905,
                "pitch": 76,
                "velocity": 51,
                "duration": 0.06590909090908781,
                "tempo": 120.0
            },
            {
                "start_time": 40.965909090909086,
                "end_time": 41.01363636363636,
                "pitch": 80,
                "velocity": 51,
                "duration": 0.04772727272727195,
                "tempo": 120.0
            },
            {
                "start_time": 41.04545454545455,
                "end_time": 41.111363636363635,
                "pitch": 83,
                "velocity": 51,
                "duration": 0.06590909090908781,
                "tempo": 120.0
            },
            {
                "start_time": 41.14545454545454,
                "end_time": 41.211363636363636,
                "pitch": 76,
                "velocity": 40,
                "duration": 0.06590909090909491,
                "tempo": 120.0
            },
            {
                "start_time": 41.24545454545454,
                "end_time": 41.29545454545455,
                "pitch": 80,
                "velocity": 40,
                "duration": 0.05000000000000426,
                "tempo": 120.0
            },
            {
                "start_time": 41.32954545454545,
                "end_time": 41.39545454545454,
                "pitch": 83,
                "velocity": 40,
                "duration": 0.06590909090908781,
                "tempo": 120.0
            },
            {
                "start_time": 41.429545454545455,
                "end_time": 41.49772727272727,
                "pitch": 76,
                "velocity": 32,
                "duration": 0.06818181818181301,
                "tempo": 120.0
            },
            {
                "start_time": 41.52954545454545,
                "end_time": 41.58181818181818,
                "pitch": 80,
                "velocity": 32,
                "duration": 0.05227272727272947,
                "tempo": 120.0
            },
            {
                "start_time": 41.61818181818182,
                "end_time": 41.68863636363636,
                "pitch": 83,
                "velocity": 32,
                "duration": 0.07045454545454533,
                "tempo": 120.0
            },
            {
                "start_time": 41.72272727272727,
                "end_time": 41.793181818181814,
                "pitch": 76,
                "velocity": 25,
                "duration": 0.07045454545454533,
                "tempo": 120.0
            },
            {
                "start_time": 41.81136363636364,
                "end_time": 41.88181818181818,
                "pitch": 80,
                "velocity": 25,
                "duration": 0.07045454545454533,
                "tempo": 120.0
            },
            {
                "start_time": 41.91590909090909,
                "end_time": 41.97954545454545,
                "pitch": 83,
                "velocity": 25,
                "duration": 0.0636363636363626,
                "tempo": 120.0
            },
            {
                "start_time": 42.01136363636363,
                "end_time": 42.074999999999996,
                "pitch": 80,
                "velocity": 25,
                "duration": 0.0636363636363626,
                "tempo": 120.0
            },
            {
                "start_time": 42.095454545454544,
                "end_time": 42.15454545454545,
                "pitch": 81,
                "velocity": 64,
                "duration": 0.059090909090905086,
                "tempo": 120.0
            },
            {
                "start_time": 42.18636363636364,
                "end_time": 42.25,
                "pitch": 83,
                "velocity": 64,
                "duration": 0.0636363636363626,
                "tempo": 120.0
            },
            {
                "start_time": 42.28181818181818,
                "end_time": 42.33181818181818,
                "pitch": 84,
                "velocity": 64,
                "duration": 0.04999999999999716,
                "tempo": 120.0
            },
            {
                "start_time": 42.36590909090909,
                "end_time": 42.43181818181818,
                "pitch": 81,
                "velocity": 51,
                "duration": 0.06590909090908781,
                "tempo": 120.0
            },
            {
                "start_time": 42.465909090909086,
                "end_time": 42.53409090909091,
                "pitch": 83,
                "velocity": 51,
                "duration": 0.06818181818182012,
                "tempo": 120.0
            },
            {
                "start_time": 42.56590909090909,
                "end_time": 42.61818181818182,
                "pitch": 84,
                "velocity": 51,
                "duration": 0.05227272727272947,
                "tempo": 120.0
            },
            {
                "start_time": 42.652272727272724,
                "end_time": 42.715909090909086,
                "pitch": 81,
                "velocity": 40,
                "duration": 0.0636363636363626,
                "tempo": 120.0
            },
            {
                "start_time": 42.74772727272727,
                "end_time": 42.81363636363636,
                "pitch": 83,
                "velocity": 40,
                "duration": 0.06590909090909491,
                "tempo": 120.0
            },
            {
                "start_time": 42.845454545454544,
                "end_time": 42.89545454545454,
                "pitch": 84,
                "velocity": 40,
                "duration": 0.04999999999999716,
                "tempo": 120.0
            },
            {
                "start_time": 42.92727272727272,
                "end_time": 42.99318181818182,
                "pitch": 81,
                "velocity": 32,
                "duration": 0.06590909090909491,
                "tempo": 120.0
            },
            {
                "start_time": 43.025,
                "end_time": 43.090909090909086,
                "pitch": 83,
                "velocity": 32,
                "duration": 0.06590909090908781,
                "tempo": 120.0
            },
            {
                "start_time": 43.125,
                "end_time": 43.175,
                "pitch": 84,
                "velocity": 32,
                "duration": 0.04999999999999716,
                "tempo": 120.0
            },
            {
                "start_time": 43.209090909090904,
                "end_time": 43.277272727272724,
                "pitch": 81,
                "velocity": 25,
                "duration": 0.06818181818182012,
                "tempo": 120.0
            },
            {
                "start_time": 43.309090909090905,
                "end_time": 43.377272727272725,
                "pitch": 83,
                "velocity": 25,
                "duration": 0.06818181818182012,
                "tempo": 120.0
            },
            {
                "start_time": 43.39545454545454,
                "end_time": 43.459090909090904,
                "pitch": 84,
                "velocity": 25,
                "duration": 0.0636363636363626,
                "tempo": 120.0
            },
            {
                "start_time": 43.49090909090909,
                "end_time": 43.55681818181818,
                "pitch": 81,
                "velocity": 25,
                "duration": 0.06590909090908781,
                "tempo": 120.0
            },
            {
                "start_time": 43.590909090909086,
                "end_time": 43.65454545454545,
                "pitch": 81,
                "velocity": 64,
                "duration": 0.0636363636363626,
                "tempo": 120.0
            },
            {
                "start_time": 43.67045454545455,
                "end_time": 43.736363636363635,
                "pitch": 83,
                "velocity": 64,
                "duration": 0.06590909090908781,
                "tempo": 120.0
            },
            {
                "start_time": 43.77045454545454,
                "end_time": 43.836363636363636,
                "pitch": 84,
                "velocity": 64,
                "duration": 0.06590909090909491,
                "tempo": 120.0
            },
            {
                "start_time": 43.87045454545454,
                "end_time": 43.92045454545455,
                "pitch": 81,
                "velocity": 51,
                "duration": 0.05000000000000426,
                "tempo": 120.0
            },
            {
                "start_time": 43.95454545454545,
                "end_time": 44.02045454545454,
                "pitch": 83,
                "velocity": 51,
                "duration": 0.06590909090908781,
                "tempo": 120.0
            },
            {
                "start_time": 44.054545454545455,
                "end_time": 44.12045454545454,
                "pitch": 84,
                "velocity": 51,
                "duration": 0.06590909090908781,
                "tempo": 120.0
            },
            {
                "start_time": 44.15454545454545,
                "end_time": 44.20454545454545,
                "pitch": 81,
                "velocity": 40,
                "duration": 0.05000000000000426,
                "tempo": 120.0
            },
            {
                "start_time": 44.24090909090909,
                "end_time": 44.309090909090905,
                "pitch": 83,
                "velocity": 40,
                "duration": 0.06818181818181301,
                "tempo": 120.0
            },
            {
                "start_time": 44.34318181818182,
                "end_time": 44.41136363636363,
                "pitch": 84,
                "velocity": 40,
                "duration": 0.06818181818181301,
                "tempo": 120.0
            },
            {
                "start_time": 44.44772727272727,
                "end_time": 44.49772727272727,
                "pitch": 81,
                "velocity": 32,
                "duration": 0.04999999999999716,
                "tempo": 120.0
            },
            {
                "start_time": 44.53409090909091,
                "end_time": 44.59772727272727,
                "pitch": 83,
                "velocity": 32,
                "duration": 0.0636363636363626,
                "tempo": 120.0
            },
            {
                "start_time": 44.63181818181818,
                "end_time": 44.695454545454545,
                "pitch": 84,
                "velocity": 32,
                "duration": 0.0636363636363626,
                "tempo": 120.0
            },
            {
                "start_time": 44.72954545454545,
                "end_time": 44.777272727272724,
                "pitch": 81,
                "velocity": 25,
                "duration": 0.04772727272727195,
                "tempo": 120.0
            },
            {
                "start_time": 44.81136363636364,
                "end_time": 44.875,
                "pitch": 83,
                "velocity": 25,
                "duration": 0.0636363636363626,
                "tempo": 120.0
            },
            {
                "start_time": 44.90909090909091,
                "end_time": 44.974999999999994,
                "pitch": 84,
                "velocity": 25,
                "duration": 0.06590909090908781,
                "tempo": 120.0
            },
            {
                "start_time": 44.99090909090909,
                "end_time": 45.059090909090905,
                "pitch": 81,
                "velocity": 25,
                "duration": 0.06818181818181301,
                "tempo": 120.0
            },
            {
                "start_time": 45.09318181818182,
                "end_time": 45.15909090909091,
                "pitch": 81,
                "velocity": 64,
                "duration": 0.06590909090908781,
                "tempo": 120.0
            },
            {
                "start_time": 45.19318181818181,
                "end_time": 45.25909090909091,
                "pitch": 83,
                "velocity": 64,
                "duration": 0.06590909090909491,
                "tempo": 120.0
            },
            {
                "start_time": 45.277272727272724,
                "end_time": 45.340909090909086,
                "pitch": 84,
                "velocity": 64,
                "duration": 0.0636363636363626,
                "tempo": 120.0
            },
            {
                "start_time": 45.375,
                "end_time": 45.43863636363636,
                "pitch": 81,
                "velocity": 51,
                "duration": 0.0636363636363626,
                "tempo": 120.0
            },
            {
                "start_time": 45.47272727272727,
                "end_time": 45.52045454545454,
                "pitch": 83,
                "velocity": 51,
                "duration": 0.04772727272727195,
                "tempo": 120.0
            },
            {
                "start_time": 45.55227272727272,
                "end_time": 45.61818181818182,
                "pitch": 84,
                "velocity": 51,
                "duration": 0.06590909090909491,
                "tempo": 120.0
            },
            {
                "start_time": 45.652272727272724,
                "end_time": 45.71818181818182,
                "pitch": 81,
                "velocity": 40,
                "duration": 0.06590909090909491,
                "tempo": 120.0
            },
            {
                "start_time": 45.752272727272725,
                "end_time": 45.80227272727272,
                "pitch": 83,
                "velocity": 40,
                "duration": 0.04999999999999716,
                "tempo": 120.0
            },
            {
                "start_time": 45.836363636363636,
                "end_time": 45.902272727272724,
                "pitch": 84,
                "velocity": 40,
                "duration": 0.06590909090908781,
                "tempo": 120.0
            },
            {
                "start_time": 45.93636363636364,
                "end_time": 46.002272727272725,
                "pitch": 81,
                "velocity": 32,
                "duration": 0.06590909090908781,
                "tempo": 120.0
            },
            {
                "start_time": 46.03636363636363,
                "end_time": 46.086363636363636,
                "pitch": 83,
                "velocity": 32,
                "duration": 0.05000000000000426,
                "tempo": 120.0
            },
            {
                "start_time": 46.12045454545454,
                "end_time": 46.18863636363636,
                "pitch": 84,
                "velocity": 32,
                "duration": 0.06818181818182012,
                "tempo": 120.0
            },
            {
                "start_time": 46.22272727272727,
                "end_time": 46.288636363636364,
                "pitch": 81,
                "velocity": 25,
                "duration": 0.06590909090909491,
                "tempo": 120.0
            },
            {
                "start_time": 46.32272727272727,
                "end_time": 46.37272727272727,
                "pitch": 83,
                "velocity": 25,
                "duration": 0.04999999999999716,
                "tempo": 120.0
            },
            {
                "start_time": 46.40681818181818,
                "end_time": 46.470454545454544,
                "pitch": 84,
                "velocity": 25,
                "duration": 0.0636363636363626,
                "tempo": 120.0
            },
            {
                "start_time": 46.50454545454545,
                "end_time": 46.56818181818181,
                "pitch": 81,
                "velocity": 25,
                "duration": 0.0636363636363626,
                "tempo": 120.0
            },
            {
                "start_time": 46.586363636363636,
                "end_time": 46.65,
                "pitch": 81,
                "velocity": 64,
                "duration": 0.0636363636363626,
                "tempo": 120.0
            },
            {
                "start_time": 46.68181818181818,
                "end_time": 46.74772727272727,
                "pitch": 83,
                "velocity": 64,
                "duration": 0.06590909090908781,
                "tempo": 120.0
            },
            {
                "start_time": 46.78181818181818,
                "end_time": 46.84772727272727,
                "pitch": 84,
                "velocity": 64,
                "duration": 0.06590909090908781,
                "tempo": 120.0
            },
            {
                "start_time": 46.86363636363636,
                "end_time": 46.93181818181818,
                "pitch": 81,
                "velocity": 51,
                "duration": 0.06818181818182012,
                "tempo": 120.0
            },
            {
                "start_time": 46.965909090909086,
                "end_time": 47.03181818181818,
                "pitch": 83,
                "velocity": 51,
                "duration": 0.06590909090909491,
                "tempo": 120.0
            },
            {
                "start_time": 47.06590909090909,
                "end_time": 47.11590909090909,
                "pitch": 84,
                "velocity": 51,
                "duration": 0.05000000000000426,
                "tempo": 120.0
            },
            {
                "start_time": 47.15,
                "end_time": 47.215909090909086,
                "pitch": 81,
                "velocity": 40,
                "duration": 0.06590909090908781,
                "tempo": 120.0
            },
            {
                "start_time": 47.25,
                "end_time": 47.31590909090909,
                "pitch": 83,
                "velocity": 40,
                "duration": 0.06590909090908781,
                "tempo": 120.0
            },
            {
                "start_time": 47.35227272727273,
                "end_time": 47.4,
                "pitch": 84,
                "velocity": 40,
                "duration": 0.04772727272727195,
                "tempo": 120.0
            },
            {
                "start_time": 47.434090909090905,
                "end_time": 47.502272727272725,
                "pitch": 81,
                "velocity": 32,
                "duration": 0.06818181818182012,
                "tempo": 120.0
            },
            {
                "start_time": 47.53636363636363,
                "end_time": 47.60227272727273,
                "pitch": 83,
                "velocity": 32,
                "duration": 0.06590909090909491,
                "tempo": 120.0
            },
            {
                "start_time": 47.63636363636363,
                "end_time": 47.68636363636364,
                "pitch": 84,
                "velocity": 32,
                "duration": 0.05000000000000426,
                "tempo": 120.0
            },
            {
                "start_time": 47.720454545454544,
                "end_time": 47.78636363636363,
                "pitch": 81,
                "velocity": 25,
                "duration": 0.06590909090908781,
                "tempo": 120.0
            },
            {
                "start_time": 47.820454545454545,
                "end_time": 47.88863636363636,
                "pitch": 83,
                "velocity": 25,
                "duration": 0.06818181818181301,
                "tempo": 120.0
            },
            {
                "start_time": 47.92272727272727,
                "end_time": 47.970454545454544,
                "pitch": 84,
                "velocity": 25,
                "duration": 0.04772727272727195,
                "tempo": 120.0
            },
            {
                "start_time": 48.00454545454545,
                "end_time": 48.07272727272727,
                "pitch": 81,
                "velocity": 25,
                "duration": 0.06818181818182012,
                "tempo": 120.0
            },
            {
                "start_time": 48.10681818181818,
                "end_time": 48.17272727272727,
                "pitch": 81,
                "velocity": 64,
                "duration": 0.06590909090909491,
                "tempo": 120.0
            },
            {
                "start_time": 48.18863636363636,
                "end_time": 48.25681818181818,
                "pitch": 83,
                "velocity": 64,
                "duration": 0.06818181818182012,
                "tempo": 120.0
            },
            {
                "start_time": 48.29090909090909,
                "end_time": 48.35454545454545,
                "pitch": 84,
                "velocity": 64,
                "duration": 0.0636363636363626,
                "tempo": 120.0
            },
            {
                "start_time": 48.38863636363636,
                "end_time": 48.45227272727273,
                "pitch": 81,
                "velocity": 51,
                "duration": 0.06363636363636971,
                "tempo": 120.0
            },
            {
                "start_time": 48.470454545454544,
                "end_time": 48.53409090909091,
                "pitch": 83,
                "velocity": 51,
                "duration": 0.0636363636363626,
                "tempo": 120.0
            },
            {
                "start_time": 48.56818181818181,
                "end_time": 48.63181818181818,
                "pitch": 84,
                "velocity": 51,
                "duration": 0.06363636363636971,
                "tempo": 120.0
            },
            {
                "start_time": 48.66590909090909,
                "end_time": 48.71363636363636,
                "pitch": 81,
                "velocity": 40,
                "duration": 0.04772727272727195,
                "tempo": 120.0
            },
            {
                "start_time": 48.74772727272727,
                "end_time": 48.81590909090909,
                "pitch": 83,
                "velocity": 40,
                "duration": 0.06818181818182012,
                "tempo": 120.0
            },
            {
                "start_time": 48.849999999999994,
                "end_time": 48.91590909090909,
                "pitch": 84,
                "velocity": 40,
                "duration": 0.06590909090909491,
                "tempo": 120.0
            },
            {
                "start_time": 48.949999999999996,
                "end_time": 49.0,
                "pitch": 81,
                "velocity": 32,
                "duration": 0.05000000000000426,
                "tempo": 120.0
            },
            {
                "start_time": 49.03409090909091,
                "end_time": 49.09772727272727,
                "pitch": 83,
                "velocity": 32,
                "duration": 0.0636363636363626,
                "tempo": 120.0
            },
            {
                "start_time": 49.12954545454545,
                "end_time": 49.19090909090909,
                "pitch": 84,
                "velocity": 32,
                "duration": 0.0613636363636374,
                "tempo": 120.0
            },
            {
                "start_time": 49.224999999999994,
                "end_time": 49.27045454545454,
                "pitch": 81,
                "velocity": 25,
                "duration": 0.045454545454546746,
                "tempo": 120.0
            },
            {
                "start_time": 49.30227272727272,
                "end_time": 49.365909090909085,
                "pitch": 83,
                "velocity": 25,
                "duration": 0.0636363636363626,
                "tempo": 120.0
            },
            {
                "start_time": 49.39772727272727,
                "end_time": 49.46818181818182,
                "pitch": 84,
                "velocity": 25,
                "duration": 0.07045454545454533,
                "tempo": 120.0
            },
            {
                "start_time": 49.502272727272725,
                "end_time": 49.554545454545455,
                "pitch": 81,
                "velocity": 25,
                "duration": 0.05227272727272947,
                "tempo": 120.0
            },
            {
                "start_time": 49.58863636363636,
                "end_time": 49.65681818181818,
                "pitch": 81,
                "velocity": 64,
                "duration": 0.06818181818182012,
                "tempo": 120.0
            },
            {
                "start_time": 49.69090909090909,
                "end_time": 49.76136363636363,
                "pitch": 83,
                "velocity": 64,
                "duration": 0.07045454545454533,
                "tempo": 120.0
            },
            {
                "start_time": 49.777272727272724,
                "end_time": 49.84318181818182,
                "pitch": 84,
                "velocity": 64,
                "duration": 0.06590909090909491,
                "tempo": 120.0
            },
            {
                "start_time": 49.875,
                "end_time": 49.94090909090909,
                "pitch": 81,
                "velocity": 51,
                "duration": 0.06590909090908781,
                "tempo": 120.0
            },
            {
                "start_time": 49.974999999999994,
                "end_time": 50.038636363636364,
                "pitch": 83,
                "velocity": 51,
                "duration": 0.06363636363636971,
                "tempo": 120.0
            },
            {
                "start_time": 50.054545454545455,
                "end_time": 50.11818181818182,
                "pitch": 84,
                "velocity": 51,
                "duration": 0.0636363636363626,
                "tempo": 120.0
            },
            {
                "start_time": 50.152272727272724,
                "end_time": 50.21818181818182,
                "pitch": 81,
                "velocity": 40,
                "duration": 0.06590909090909491,
                "tempo": 120.0
            },
            {
                "start_time": 50.252272727272725,
                "end_time": 50.30227272727272,
                "pitch": 83,
                "velocity": 40,
                "duration": 0.04999999999999716,
                "tempo": 120.0
            },
            {
                "start_time": 50.336363636363636,
                "end_time": 50.402272727272724,
                "pitch": 84,
                "velocity": 40,
                "duration": 0.06590909090908781,
                "tempo": 120.0
            },
            {
                "start_time": 50.43636363636364,
                "end_time": 50.50454545454545,
                "pitch": 81,
                "velocity": 32,
                "duration": 0.06818181818181301,
                "tempo": 120.0
            },
            {
                "start_time": 50.538636363636364,
                "end_time": 50.58863636363636,
                "pitch": 83,
                "velocity": 32,
                "duration": 0.04999999999999716,
                "tempo": 120.0
            },
            {
                "start_time": 50.62045454545454,
                "end_time": 50.68863636363636,
                "pitch": 84,
                "velocity": 32,
                "duration": 0.06818181818182012,
                "tempo": 120.0
            },
            {
                "start_time": 50.72272727272727,
                "end_time": 50.788636363636364,
                "pitch": 81,
                "velocity": 25,
                "duration": 0.06590909090909491,
                "tempo": 120.0
            },
            {
                "start_time": 50.82272727272727,
                "end_time": 50.87272727272727,
                "pitch": 83,
                "velocity": 25,
                "duration": 0.04999999999999716,
                "tempo": 120.0
            },
            {
                "start_time": 50.90681818181818,
                "end_time": 50.970454545454544,
                "pitch": 84,
                "velocity": 25,
                "duration": 0.0636363636363626,
                "tempo": 120.0
            },
            {
                "start_time": 51.00454545454545,
                "end_time": 51.070454545454545,
                "pitch": 81,
                "velocity": 25,
                "duration": 0.06590909090909491,
                "tempo": 120.0
            },
            {
                "start_time": 51.10454545454545,
                "end_time": 51.15,
                "pitch": 76,
                "velocity": 64,
                "duration": 0.045454545454546746,
                "tempo": 120.0
            },
            {
                "start_time": 51.184090909090905,
                "end_time": 51.24772727272727,
                "pitch": 80,
                "velocity": 64,
                "duration": 0.0636363636363626,
                "tempo": 120.0
            },
            {
                "start_time": 51.28181818181818,
                "end_time": 51.34772727272727,
                "pitch": 83,
                "velocity": 64,
                "duration": 0.06590909090908781,
                "tempo": 120.0
            },
            {
                "start_time": 51.365909090909085,
                "end_time": 51.43181818181818,
                "pitch": 76,
                "velocity": 51,
                "duration": 0.06590909090909491,
                "tempo": 120.0
            },
            {
                "start_time": 51.465909090909086,
                "end_time": 51.53181818181818,
                "pitch": 80,
                "velocity": 51,
                "duration": 0.06590909090909491,
                "tempo": 120.0
            },
            {
                "start_time": 51.56590909090909,
                "end_time": 51.63409090909091,
                "pitch": 83,
                "velocity": 51,
                "duration": 0.06818181818182012,
                "tempo": 120.0
            },
            {
                "start_time": 51.65,
                "end_time": 51.715909090909086,
                "pitch": 76,
                "velocity": 40,
                "duration": 0.06590909090908781,
                "tempo": 120.0
            },
            {
                "start_time": 51.74772727272727,
                "end_time": 51.81136363636364,
                "pitch": 80,
                "velocity": 40,
                "duration": 0.06363636363636971,
                "tempo": 120.0
            },
            {
                "start_time": 51.845454545454544,
                "end_time": 51.893181818181816,
                "pitch": 83,
                "velocity": 40,
                "duration": 0.04772727272727195,
                "tempo": 120.0
            },
            {
                "start_time": 51.92727272727272,
                "end_time": 51.990909090909085,
                "pitch": 76,
                "velocity": 32,
                "duration": 0.0636363636363626,
                "tempo": 120.0
            },
            {
                "start_time": 52.025,
                "end_time": 52.09318181818182,
                "pitch": 80,
                "velocity": 32,
                "duration": 0.06818181818182012,
                "tempo": 120.0
            },
            {
                "start_time": 52.127272727272725,
                "end_time": 52.179545454545455,
                "pitch": 83,
                "velocity": 32,
                "duration": 0.05227272727272947,
                "tempo": 120.0
            },
            {
                "start_time": 52.21363636363636,
                "end_time": 52.28181818181818,
                "pitch": 76,
                "velocity": 25,
                "duration": 0.06818181818182012,
                "tempo": 120.0
            },
            {
                "start_time": 52.31590909090909,
                "end_time": 52.38409090909091,
                "pitch": 80,
                "velocity": 25,
                "duration": 0.06818181818182012,
                "tempo": 120.0
            },
            {
                "start_time": 52.42045454545454,
                "end_time": 52.470454545454544,
                "pitch": 83,
                "velocity": 25,
                "duration": 0.05000000000000426,
                "tempo": 120.0
            },
            {
                "start_time": 52.50454545454545,
                "end_time": 52.570454545454545,
                "pitch": 80,
                "velocity": 25,
                "duration": 0.06590909090909491,
                "tempo": 120.0
            },
            {
                "start_time": 52.60681818181818,
                "end_time": 52.67272727272727,
                "pitch": 76,
                "velocity": 64,
                "duration": 0.06590909090909491,
                "tempo": 120.0
            },
            {
                "start_time": 52.70454545454545,
                "end_time": 52.75681818181818,
                "pitch": 80,
                "velocity": 64,
                "duration": 0.05227272727272947,
                "tempo": 120.0
            },
            {
                "start_time": 52.79090909090909,
                "end_time": 52.85454545454545,
                "pitch": 83,
                "velocity": 64,
                "duration": 0.0636363636363626,
                "tempo": 120.0
            },
            {
                "start_time": 52.88636363636363,
                "end_time": 52.95227272727273,
                "pitch": 76,
                "velocity": 51,
                "duration": 0.06590909090909491,
                "tempo": 120.0
            },
            {
                "start_time": 52.96818181818182,
                "end_time": 53.03181818181818,
                "pitch": 80,
                "velocity": 51,
                "duration": 0.0636363636363626,
                "tempo": 120.0
            },
            {
                "start_time": 53.06590909090909,
                "end_time": 53.12954545454545,
                "pitch": 83,
                "velocity": 51,
                "duration": 0.0636363636363626,
                "tempo": 120.0
            },
            {
                "start_time": 53.163636363636364,
                "end_time": 53.22954545454545,
                "pitch": 76,
                "velocity": 40,
                "duration": 0.06590909090908781,
                "tempo": 120.0
            },
            {
                "start_time": 53.24772727272727,
                "end_time": 53.31363636363636,
                "pitch": 80,
                "velocity": 40,
                "duration": 0.06590909090909491,
                "tempo": 120.0
            },
            {
                "start_time": 53.34772727272727,
                "end_time": 53.413636363636364,
                "pitch": 83,
                "velocity": 40,
                "duration": 0.06590909090909491,
                "tempo": 120.0
            },
            {
                "start_time": 53.44772727272727,
                "end_time": 53.49772727272727,
                "pitch": 76,
                "velocity": 32,
                "duration": 0.04999999999999716,
                "tempo": 120.0
            },
            {
                "start_time": 53.53181818181818,
                "end_time": 53.599999999999994,
                "pitch": 80,
                "velocity": 32,
                "duration": 0.06818181818181301,
                "tempo": 120.0
            },
            {
                "start_time": 53.63409090909091,
                "end_time": 53.699999999999996,
                "pitch": 83,
                "velocity": 32,
                "duration": 0.06590909090908781,
                "tempo": 120.0
            },
            {
                "start_time": 53.73409090909091,
                "end_time": 53.78409090909091,
                "pitch": 76,
                "velocity": 25,
                "duration": 0.04999999999999716,
                "tempo": 120.0
            },
            {
                "start_time": 53.81818181818181,
                "end_time": 53.88409090909091,
                "pitch": 80,
                "velocity": 25,
                "duration": 0.06590909090909491,
                "tempo": 120.0
            },
            {
                "start_time": 53.918181818181814,
                "end_time": 53.986363636363635,
                "pitch": 83,
                "velocity": 25,
                "duration": 0.06818181818182012,
                "tempo": 120.0
            },
            {
                "start_time": 54.018181818181816,
                "end_time": 54.070454545454545,
                "pitch": 80,
                "velocity": 25,
                "duration": 0.05227272727272947,
                "tempo": 120.0
            }
        ]
    }
}