{
    "track_id": "05 Out of Rap",
    "mood": "happy",
    "instruments": {
        "Trumpet": [
            {
                "start_time": 5.379545454545454,
                "end_time": 5.443181818181818,
                "pitch": 69,
                "velocity": 80,
                "duration": 0.06363636363636438,
                "tempo": 120.0
            },
            {
                "start_time": 5.556818181818182,
                "end_time": 5.743181818181818,
                "pitch": 69,
                "velocity": 4,
                "duration": 0.1863636363636365,
                "tempo": 120.0
            },
            {
                "start_time": 5.745454545454545,
                "end_time": 5.806818181818182,
                "pitch": 69,
                "velocity": 80,
                "duration": 0.06136363636363651,
                "tempo": 120.0
            },
            {
                "start_time": 5.915909090909091,
                "end_time": 6.25,
                "pitch": 69,
                "velocity": 4,
                "duration": 0.334090909090909,
                "tempo": 120.0
            },
            {
                "start_time": 6.252272727272727,
                "end_time": 6.390909090909091,
                "pitch": 67,
                "velocity": 80,
                "duration": 0.13863636363636367,
                "tempo": 120.0
            },
            {
                "start_time": 6.586363636363636,
                "end_time": 6.6477272727272725,
                "pitch": 69,
                "velocity": 80,
                "duration": 0.06136363636363651,
                "tempo": 120.0
            },
            {
                "start_time": 6.754545454545454,
                "end_time": 7.265909090909091,
                "pitch": 69,
                "velocity": 4,
                "duration": 0.5113636363636367,
                "tempo": 120.0
            },
            {
                "start_time": 7.265909090909091,
                "end_time": 7.327272727272727,
                "pitch": 69,
                "velocity": 80,
                "duration": 0.06136363636363651,
                "tempo": 120.0
            },
            {
                "start_time": 7.4386363636363635,
                "end_time": 7.602272727272727,
                "pitch": 69,
                "velocity": 4,
                "duration": 0.16363636363636314,
                "tempo": 120.0
            },
            {
                "start_time": 7.602272727272727,
                "end_time": 7.75,
                "pitch": 69,
                "velocity": 80,
                "duration": 0.14772727272727337,
                "tempo": 120.0
            },
            {
                "start_time": 7.9431818181818175,
                "end_time": 8.006818181818181,
                "pitch": 67,
                "velocity": 80,
                "duration": 0.06363636363636349,
                "tempo": 120.0
            },
            {
                "start_time": 8.122727272727273,
                "end_time": 8.179545454545455,
                "pitch": 69,
                "velocity": 80,
                "duration": 0.05681818181818166,
                "tempo": 120.0
            },
            {
                "start_time": 8.286363636363635,
                "end_time": 8.463636363636363,
                "pitch": 69,
                "velocity": 4,
                "duration": 0.1772727272727277,
                "tempo": 120.0
            },
            {
                "start_time": 8.463636363636363,
                "end_time": 8.522727272727272,
                "pitch": 69,
                "velocity": 80,
                "duration": 0.05909090909090864,
                "tempo": 120.0
            },
            {
                "start_time": 8.631818181818181,
                "end_time": 8.961363636363636,
                "pitch": 69,
                "velocity": 4,
                "duration": 0.32954545454545503,
                "tempo": 120.0
            },
            {
                "start_time": 8.961363636363636,
                "end_time": 9.1,
                "pitch": 67,
                "velocity": 80,
                "duration": 0.13863636363636367,
                "tempo": 120.0
            },
            {
                "start_time": 9.297727272727272,
                "end_time": 9.35681818181818,
                "pitch": 69,
                "velocity": 80,
                "duration": 0.05909090909090864,
                "tempo": 120.0
            },
            {
                "start_time": 9.463636363636363,
                "end_time": 9.970454545454546,
                "pitch": 69,
                "velocity": 4,
                "duration": 0.5068181818181827,
                "tempo": 120.0
            },
            {
                "start_time": 9.972727272727273,
                "end_time": 10.031818181818181,
                "pitch": 69,
                "velocity": 80,
                "duration": 0.05909090909090864,
                "tempo": 120.0
            },
            {
                "start_time": 10.138636363636364,
                "end_time": 10.311363636363636,
                "pitch": 69,
                "velocity": 4,
                "duration": 0.17272727272727195,
                "tempo": 120.0
            },
            {
                "start_time": 10.311363636363636,
                "end_time": 10.468181818181817,
                "pitch": 69,
                "velocity": 80,
                "duration": 0.1568181818181813,
                "tempo": 120.0
            },
            {
                "start_time": 10.656818181818181,
                "end_time": 10.720454545454546,
                "pitch": 67,
                "velocity": 80,
                "duration": 0.06363636363636438,
                "tempo": 120.0
            },
            {
                "start_time": 10.831818181818182,
                "end_time": 10.89090909090909,
                "pitch": 71,
                "velocity": 80,
                "duration": 0.05909090909090864,
                "tempo": 120.0
            },
            {
                "start_time": 10.995454545454544,
                "end_time": 11.172727272727272,
                "pitch": 71,
                "velocity": 4,
                "duration": 0.1772727272727277,
                "tempo": 120.0
            },
            {
                "start_time": 11.174999999999999,
                "end_time": 11.23409090909091,
                "pitch": 71,
                "velocity": 80,
                "duration": 0.059090909090910415,
                "tempo": 120.0
            },
            {
                "start_time": 11.34090909090909,
                "end_time": 11.670454545454545,
                "pitch": 71,
                "velocity": 4,
                "duration": 0.32954545454545503,
                "tempo": 120.0
            },
            {
                "start_time": 11.670454545454545,
                "end_time": 11.809090909090909,
                "pitch": 69,
                "velocity": 4,
                "duration": 0.13863636363636367,
                "tempo": 120.0
            },
            {
                "start_time": 11.672727272727272,
                "end_time": 11.809090909090909,
                "pitch": 69,
                "velocity": 80,
                "duration": 0.1363636363636367,
                "tempo": 120.0
            },
            {
                "start_time": 12.006818181818181,
                "end_time": 12.068181818181818,
                "pitch": 71,
                "velocity": 80,
                "duration": 0.0613636363636374,
                "tempo": 120.0
            },
            {
                "start_time": 12.172727272727272,
                "end_time": 12.681818181818182,
                "pitch": 71,
                "velocity": 4,
                "duration": 0.5090909090909097,
                "tempo": 120.0
            },
            {
                "start_time": 12.681818181818182,
                "end_time": 12.74090909090909,
                "pitch": 71,
                "velocity": 80,
                "duration": 0.05909090909090864,
                "tempo": 120.0
            },
            {
                "start_time": 12.847727272727273,
                "end_time": 13.018181818181818,
                "pitch": 71,
                "velocity": 4,
                "duration": 0.17045454545454497,
                "tempo": 120.0
            },
            {
                "start_time": 13.018181818181818,
                "end_time": 13.170454545454545,
                "pitch": 71,
                "velocity": 80,
                "duration": 0.15227272727272734,
                "tempo": 120.0
            },
            {
                "start_time": 13.361363636363636,
                "end_time": 13.427272727272726,
                "pitch": 69,
                "velocity": 80,
                "duration": 0.06590909090908958,
                "tempo": 120.0
            },
            {
                "start_time": 13.540909090909091,
                "end_time": 13.6,
                "pitch": 71,
                "velocity": 80,
                "duration": 0.05909090909090864,
                "tempo": 120.0
            },
            {
                "start_time": 13.706818181818182,
                "end_time": 13.884090909090908,
                "pitch": 71,
                "velocity": 4,
                "duration": 0.17727272727272592,
                "tempo": 120.0
            },
            {
                "start_time": 13.884090909090908,
                "end_time": 13.943181818181818,
                "pitch": 71,
                "velocity": 80,
                "duration": 0.059090909090910415,
                "tempo": 120.0
            },
            {
                "start_time": 14.052272727272726,
                "end_time": 14.381818181818181,
                "pitch": 71,
                "velocity": 4,
                "duration": 0.32954545454545503,
                "tempo": 120.0
            },
            {
                "start_time": 14.381818181818181,
                "end_time": 14.520454545454545,
                "pitch": 69,
                "velocity": 4,
                "duration": 0.13863636363636367,
                "tempo": 120.0
            },
            {
                "start_time": 14.381818181818181,
                "end_time": 14.520454545454545,
                "pitch": 69,
                "velocity": 80,
                "duration": 0.13863636363636367,
                "tempo": 120.0
            },
            {
                "start_time": 14.71590909090909,
                "end_time": 14.777272727272727,
                "pitch": 71,
                "velocity": 80,
                "duration": 0.0613636363636374,
                "tempo": 120.0
            },
            {
                "start_time": 14.884090909090908,
                "end_time": 15.39090909090909,
                "pitch": 71,
                "velocity": 4,
                "duration": 0.5068181818181827,
                "tempo": 120.0
            },
            {
                "start_time": 15.39090909090909,
                "end_time": 15.452272727272726,
                "pitch": 71,
                "velocity": 80,
                "duration": 0.06136363636363562,
                "tempo": 120.0
            },
            {
                "start_time": 15.561363636363636,
                "end_time": 15.674999999999999,
                "pitch": 67,
                "velocity": 80,
                "duration": 0.11363636363636331,
                "tempo": 120.0
            },
            {
                "start_time": 15.825,
                "end_time": 15.94090909090909,
                "pitch": 67,
                "velocity": 80,
                "duration": 0.1159090909090903,
                "tempo": 120.0
            },
            {
                "start_time": 16.081818181818182,
                "end_time": 16.14090909090909,
                "pitch": 67,
                "velocity": 80,
                "duration": 0.05909090909090864,
                "tempo": 120.0
            }
        ],
        "Flute": [
            {
                "start_time": 16.254545454545454,
                "end_time": 16.397727272727273,
                "pitch": 76,
                "velocity": 80,
                "duration": 0.1431818181818194,
                "tempo": 120.0
            },
            {
                "start_time": 16.422727272727272,
                "end_time": 16.570454545454545,
                "pitch": 74,
                "velocity": 80,
                "duration": 0.14772727272727337,
                "tempo": 120.0
            },
            {
                "start_time": 16.599999999999998,
                "end_time": 16.738636363636363,
                "pitch": 72,
                "velocity": 80,
                "duration": 0.13863636363636545,
                "tempo": 120.0
            },
            {
                "start_time": 16.768181818181816,
                "end_time": 16.90681818181818,
                "pitch": 71,
                "velocity": 80,
                "duration": 0.13863636363636545,
                "tempo": 120.0
            },
            {
                "start_time": 16.925,
                "end_time": 17.099999999999998,
                "pitch": 71,
                "velocity": 4,
                "duration": 0.17499999999999716,
                "tempo": 120.0
            },
            {
                "start_time": 17.099999999999998,
                "end_time": 17.24090909090909,
                "pitch": 72,
                "velocity": 80,
                "duration": 0.14090909090909065,
                "tempo": 120.0
            },
            {
                "start_time": 17.263636363636362,
                "end_time": 17.43409090909091,
                "pitch": 60,
                "velocity": 4,
                "duration": 0.17045454545454675,
                "tempo": 120.0
            },
            {
                "start_time": 17.43409090909091,
                "end_time": 17.436363636363634,
                "pitch": 57,
                "velocity": 4,
                "duration": 0.0022727272727252057,
                "tempo": 120.0
            },
            {
                "start_time": 17.436363636363634,
                "end_time": 18.325,
                "pitch": 69,
                "velocity": 80,
                "duration": 0.8886363636363654,
                "tempo": 120.0
            },
            {
                "start_time": 18.45,
                "end_time": 18.599999999999998,
                "pitch": 71,
                "velocity": 80,
                "duration": 0.14999999999999858,
                "tempo": 120.0
            },
            {
                "start_time": 18.629545454545454,
                "end_time": 18.772727272727273,
                "pitch": 72,
                "velocity": 80,
                "duration": 0.1431818181818194,
                "tempo": 120.0
            },
            {
                "start_time": 18.8,
                "end_time": 19.834090909090907,
                "pitch": 79,
                "velocity": 80,
                "duration": 1.0340909090909065,
                "tempo": 120.0
            },
            {
                "start_time": 19.974999999999998,
                "end_time": 20.277272727272727,
                "pitch": 77,
                "velocity": 80,
                "duration": 0.30227272727272947,
                "tempo": 120.0
            },
            {
                "start_time": 20.318181818181817,
                "end_time": 20.46363636363636,
                "pitch": 76,
                "velocity": 80,
                "duration": 0.14545454545454461,
                "tempo": 120.0
            },
            {
                "start_time": 20.488636363636363,
                "end_time": 20.63181818181818,
                "pitch": 74,
                "velocity": 80,
                "duration": 0.14318181818181586,
                "tempo": 120.0
            },
            {
                "start_time": 20.65,
                "end_time": 20.825,
                "pitch": 74,
                "velocity": 4,
                "duration": 0.1750000000000007,
                "tempo": 120.0
            },
            {
                "start_time": 20.825,
                "end_time": 20.96590909090909,
                "pitch": 72,
                "velocity": 80,
                "duration": 0.14090909090909065,
                "tempo": 120.0
            },
            {
                "start_time": 20.99090909090909,
                "end_time": 21.159090909090907,
                "pitch": 72,
                "velocity": 4,
                "duration": 0.168181818181818,
                "tempo": 120.0
            },
            {
                "start_time": 21.161363636363635,
                "end_time": 21.30909090909091,
                "pitch": 74,
                "velocity": 80,
                "duration": 0.14772727272727337,
                "tempo": 120.0
            },
            {
                "start_time": 21.336363636363636,
                "end_time": 21.5,
                "pitch": 62,
                "velocity": 4,
                "duration": 0.16363636363636402,
                "tempo": 120.0
            },
            {
                "start_time": 21.502272727272725,
                "end_time": 22.238636363636363,
                "pitch": 71,
                "velocity": 80,
                "duration": 0.7363636363636381,
                "tempo": 120.0
            },
            {
                "start_time": 22.347727272727273,
                "end_time": 23.527272727272727,
                "pitch": 71,
                "velocity": 80,
                "duration": 1.1795454545454547,
                "tempo": 120.0
            },
            {
                "start_time": 23.7,
                "end_time": 23.870454545454546,
                "pitch": 71,
                "velocity": 4,
                "duration": 0.17045454545454675,
                "tempo": 120.0
            },
            {
                "start_time": 23.870454545454546,
                "end_time": 24.02272727272727,
                "pitch": 67,
                "velocity": 4,
                "duration": 0.15227272727272378,
                "tempo": 120.0
            },
            {
                "start_time": 23.87272727272727,
                "end_time": 24.02272727272727,
                "pitch": 67,
                "velocity": 80,
                "duration": 0.14999999999999858,
                "tempo": 120.0
            },
            {
                "start_time": 24.052272727272726,
                "end_time": 24.195454545454545,
                "pitch": 69,
                "velocity": 80,
                "duration": 0.1431818181818194,
                "tempo": 120.0
            },
            {
                "start_time": 24.220454545454544,
                "end_time": 24.954545454545453,
                "pitch": 71,
                "velocity": 80,
                "duration": 0.7340909090909093,
                "tempo": 120.0
            },
            {
                "start_time": 25.05909090909091,
                "end_time": 26.238636363636363,
                "pitch": 71,
                "velocity": 80,
                "duration": 1.1795454545454547,
                "tempo": 120.0
            },
            {
                "start_time": 26.411363636363635,
                "end_time": 27.095454545454544,
                "pitch": 71,
                "velocity": 4,
                "duration": 0.6840909090909086,
                "tempo": 120.0
            },
            {
                "start_time": 27.095454545454544,
                "end_time": 27.236363636363635,
                "pitch": 76,
                "velocity": 4,
                "duration": 0.14090909090909065,
                "tempo": 120.0
            },
            {
                "start_time": 27.095454545454544,
                "end_time": 27.236363636363635,
                "pitch": 76,
                "velocity": 80,
                "duration": 0.14090909090909065,
                "tempo": 120.0
            },
            {
                "start_time": 27.261363636363637,
                "end_time": 27.404545454545453,
                "pitch": 74,
                "velocity": 80,
                "duration": 0.14318181818181586,
                "tempo": 120.0
            },
            {
                "start_time": 27.43409090909091,
                "end_time": 27.577272727272724,
                "pitch": 72,
                "velocity": 80,
                "duration": 0.14318181818181586,
                "tempo": 120.0
            },
            {
                "start_time": 27.60681818181818,
                "end_time": 27.75,
                "pitch": 71,
                "velocity": 80,
                "duration": 0.1431818181818194,
                "tempo": 120.0
            },
            {
                "start_time": 27.770454545454545,
                "end_time": 27.943181818181817,
                "pitch": 71,
                "velocity": 4,
                "duration": 0.17272727272727195,
                "tempo": 120.0
            },
            {
                "start_time": 27.943181818181817,
                "end_time": 28.084090909090907,
                "pitch": 72,
                "velocity": 80,
                "duration": 0.14090909090909065,
                "tempo": 120.0
            },
            {
                "start_time": 28.10681818181818,
                "end_time": 28.284090909090907,
                "pitch": 60,
                "velocity": 4,
                "duration": 0.17727272727272592,
                "tempo": 120.0
            },
            {
                "start_time": 28.284090909090907,
                "end_time": 29.168181818181818,
                "pitch": 69,
                "velocity": 80,
                "duration": 0.8840909090909115,
                "tempo": 120.0
            },
            {
                "start_time": 29.295454545454543,
                "end_time": 29.445454545454545,
                "pitch": 71,
                "velocity": 80,
                "duration": 0.15000000000000213,
                "tempo": 120.0
            },
            {
                "start_time": 29.474999999999998,
                "end_time": 29.61590909090909,
                "pitch": 72,
                "velocity": 80,
                "duration": 0.14090909090909065,
                "tempo": 120.0
            },
            {
                "start_time": 29.643181818181816,
                "end_time": 30.679545454545455,
                "pitch": 79,
                "velocity": 80,
                "duration": 1.0363636363636388,
                "tempo": 120.0
            },
            {
                "start_time": 30.820454545454545,
                "end_time": 31.12272727272727,
                "pitch": 77,
                "velocity": 80,
                "duration": 0.3022727272727259,
                "tempo": 120.0
            },
            {
                "start_time": 31.16363636363636,
                "end_time": 31.30909090909091,
                "pitch": 76,
                "velocity": 80,
                "duration": 0.14545454545454817,
                "tempo": 120.0
            },
            {
                "start_time": 31.334090909090907,
                "end_time": 31.477272727272727,
                "pitch": 74,
                "velocity": 80,
                "duration": 0.1431818181818194,
                "tempo": 120.0
            },
            {
                "start_time": 31.495454545454542,
                "end_time": 31.670454545454543,
                "pitch": 74,
                "velocity": 4,
                "duration": 0.1750000000000007,
                "tempo": 120.0
            },
            {
                "start_time": 31.670454545454543,
                "end_time": 31.811363636363634,
                "pitch": 72,
                "velocity": 80,
                "duration": 0.14090909090909065,
                "tempo": 120.0
            },
            {
                "start_time": 31.836363636363636,
                "end_time": 32.00454545454545,
                "pitch": 72,
                "velocity": 4,
                "duration": 0.16818181818181444,
                "tempo": 120.0
            },
            {
                "start_time": 32.00681818181818,
                "end_time": 32.15681818181818,
                "pitch": 74,
                "velocity": 80,
                "duration": 0.14999999999999858,
                "tempo": 120.0
            },
            {
                "start_time": 32.18181818181818,
                "end_time": 32.345454545454544,
                "pitch": 74,
                "velocity": 4,
                "duration": 0.16363636363636402,
                "tempo": 120.0
            },
            {
                "start_time": 32.345454545454544,
                "end_time": 33.08409090909091,
                "pitch": 76,
                "velocity": 4,
                "duration": 0.7386363636363669,
                "tempo": 120.0
            },
            {
                "start_time": 32.34772727272727,
                "end_time": 33.08409090909091,
                "pitch": 76,
                "velocity": 80,
                "duration": 0.7363636363636417,
                "tempo": 120.0
            },
            {
                "start_time": 33.19318181818182,
                "end_time": 34.37272727272727,
                "pitch": 76,
                "velocity": 80,
                "duration": 1.1795454545454476,
                "tempo": 120.0
            },
            {
                "start_time": 34.54545454545455,
                "end_time": 34.715909090909086,
                "pitch": 76,
                "velocity": 4,
                "duration": 0.17045454545453964,
                "tempo": 120.0
            },
            {
                "start_time": 34.715909090909086,
                "end_time": 34.86818181818182,
                "pitch": 73,
                "velocity": 4,
                "duration": 0.1522727272727309,
                "tempo": 120.0
            },
            {
                "start_time": 34.71818181818182,
                "end_time": 34.86818181818182,
                "pitch": 73,
                "velocity": 80,
                "duration": 0.14999999999999858,
                "tempo": 120.0
            },
            {
                "start_time": 34.89772727272727,
                "end_time": 35.04090909090909,
                "pitch": 74,
                "velocity": 80,
                "duration": 0.14318181818181586,
                "tempo": 120.0
            },
            {
                "start_time": 35.06590909090909,
                "end_time": 35.8,
                "pitch": 76,
                "velocity": 80,
                "duration": 0.7340909090909093,
                "tempo": 120.0
            },
            {
                "start_time": 35.904545454545456,
                "end_time": 37.08409090909091,
                "pitch": 76,
                "velocity": 80,
                "duration": 1.1795454545454547,
                "tempo": 120.0
            },
            {
                "start_time": 37.25681818181818,
                "end_time": 37.94318181818181,
                "pitch": 76,
                "velocity": 4,
                "duration": 0.6863636363636303,
                "tempo": 120.0
            }
        ],
        "Acoustic Bass": [
            {
                "start_time": 0.013636363636363636,
                "end_time": 0.1159090909090909,
                "pitch": 0,
                "velocity": 4,
                "duration": 0.10227272727272727,
                "tempo": 120.0
            },
            {
                "start_time": 0.11818181818181818,
                "end_time": 0.5772727272727273,
                "pitch": 34,
                "velocity": 101,
                "duration": 0.4590909090909091,
                "tempo": 120.0
            },
            {
                "start_time": 0.6568181818181817,
                "end_time": 1.2318181818181817,
                "pitch": 36,
                "velocity": 101,
                "duration": 0.575,
                "tempo": 120.0
            },
            {
                "start_time": 1.325,
                "end_time": 1.918181818181818,
                "pitch": 37,
                "velocity": 101,
                "duration": 0.593181818181818,
                "tempo": 120.0
            },
            {
                "start_time": 2.0159090909090907,
                "end_time": 2.5886363636363634,
                "pitch": 39,
                "velocity": 101,
                "duration": 0.5727272727272728,
                "tempo": 120.0
            },
            {
                "start_time": 2.686363636363636,
                "end_time": 3.6409090909090907,
                "pitch": 41,
                "velocity": 101,
                "duration": 0.9545454545454546,
                "tempo": 120.0
            },
            {
                "start_time": 3.775,
                "end_time": 3.9,
                "pitch": 41,
                "velocity": 101,
                "duration": 0.125,
                "tempo": 120.0
            },
            {
                "start_time": 3.925,
                "end_time": 4.047727272727273,
                "pitch": 41,
                "velocity": 101,
                "duration": 0.12272727272727302,
                "tempo": 120.0
            },
            {
                "start_time": 4.0659090909090905,
                "end_time": 5.379545454545454,
                "pitch": 41,
                "velocity": 4,
                "duration": 1.3136363636363635,
                "tempo": 120.0
            },
            {
                "start_time": 5.379545454545454,
                "end_time": 5.699999999999999,
                "pitch": 31,
                "velocity": 4,
                "duration": 0.3204545454545453,
                "tempo": 120.0
            },
            {
                "start_time": 5.381818181818182,
                "end_time": 5.699999999999999,
                "pitch": 31,
                "velocity": 101,
                "duration": 0.31818181818181746,
                "tempo": 120.0
            },
            {
                "start_time": 5.745454545454545,
                "end_time": 5.893181818181818,
                "pitch": 38,
                "velocity": 101,
                "duration": 0.14772727272727249,
                "tempo": 120.0
            },
            {
                "start_time": 5.915909090909091,
                "end_time": 6.0636363636363635,
                "pitch": 31,
                "velocity": 101,
                "duration": 0.14772727272727249,
                "tempo": 120.0
            },
            {
                "start_time": 6.081818181818181,
                "end_time": 6.25,
                "pitch": 31,
                "velocity": 4,
                "duration": 0.16818181818181888,
                "tempo": 120.0
            },
            {
                "start_time": 6.252272727272727,
                "end_time": 6.390909090909091,
                "pitch": 31,
                "velocity": 101,
                "duration": 0.13863636363636367,
                "tempo": 120.0
            },
            {
                "start_time": 6.411363636363636,
                "end_time": 6.561363636363636,
                "pitch": 38,
                "velocity": 101,
                "duration": 0.14999999999999947,
                "tempo": 120.0
            },
            {
                "start_time": 6.586363636363636,
                "end_time": 7.172727272727272,
                "pitch": 41,
                "velocity": 101,
                "duration": 0.586363636363636,
                "tempo": 120.0
            },
            {
                "start_time": 7.265909090909091,
                "end_time": 7.413636363636363,
                "pitch": 38,
                "velocity": 101,
                "duration": 0.14772727272727249,
                "tempo": 120.0
            },
            {
                "start_time": 7.4386363636363635,
                "end_time": 7.7318181818181815,
                "pitch": 29,
                "velocity": 101,
                "duration": 0.293181818181818,
                "tempo": 120.0
            },
            {
                "start_time": 7.7727272727272725,
                "end_time": 8.077272727272726,
                "pitch": 31,
                "velocity": 101,
                "duration": 0.3045454545454538,
                "tempo": 120.0
            },
            {
                "start_time": 8.122727272727273,
                "end_time": 8.420454545454545,
                "pitch": 31,
                "velocity": 101,
                "duration": 0.29772727272727195,
                "tempo": 120.0
            },
            {
                "start_time": 8.463636363636363,
                "end_time": 8.60681818181818,
                "pitch": 38,
                "velocity": 101,
                "duration": 0.14318181818181763,
                "tempo": 120.0
            },
            {
                "start_time": 8.631818181818181,
                "end_time": 8.775,
                "pitch": 31,
                "velocity": 101,
                "duration": 0.1431818181818194,
                "tempo": 120.0
            },
            {
                "start_time": 8.793181818181818,
                "end_time": 8.961363636363636,
                "pitch": 31,
                "velocity": 4,
                "duration": 0.168181818181818,
                "tempo": 120.0
            },
            {
                "start_time": 8.961363636363636,
                "end_time": 9.1,
                "pitch": 31,
                "velocity": 101,
                "duration": 0.13863636363636367,
                "tempo": 120.0
            },
            {
                "start_time": 9.120454545454544,
                "end_time": 9.270454545454545,
                "pitch": 38,
                "velocity": 101,
                "duration": 0.15000000000000036,
                "tempo": 120.0
            },
            {
                "start_time": 9.297727272727272,
                "end_time": 9.879545454545454,
                "pitch": 41,
                "velocity": 101,
                "duration": 0.581818181818182,
                "tempo": 120.0
            },
            {
                "start_time": 9.972727272727273,
                "end_time": 10.11590909090909,
                "pitch": 38,
                "velocity": 101,
                "duration": 0.14318181818181763,
                "tempo": 120.0
            },
            {
                "start_time": 10.138636363636364,
                "end_time": 10.45,
                "pitch": 29,
                "velocity": 101,
                "duration": 0.3113636363636356,
                "tempo": 120.0
            },
            {
                "start_time": 10.493181818181817,
                "end_time": 10.788636363636362,
                "pitch": 31,
                "velocity": 101,
                "duration": 0.29545454545454497,
                "tempo": 120.0
            },
            {
                "start_time": 10.831818181818182,
                "end_time": 11.131818181818181,
                "pitch": 33,
                "velocity": 101,
                "duration": 0.29999999999999893,
                "tempo": 120.0
            },
            {
                "start_time": 11.174999999999999,
                "end_time": 11.318181818181818,
                "pitch": 40,
                "velocity": 101,
                "duration": 0.1431818181818194,
                "tempo": 120.0
            },
            {
                "start_time": 11.34090909090909,
                "end_time": 11.48409090909091,
                "pitch": 33,
                "velocity": 101,
                "duration": 0.1431818181818194,
                "tempo": 120.0
            },
            {
                "start_time": 11.502272727272727,
                "end_time": 11.670454545454545,
                "pitch": 33,
                "velocity": 4,
                "duration": 0.168181818181818,
                "tempo": 120.0
            },
            {
                "start_time": 11.672727272727272,
                "end_time": 11.811363636363636,
                "pitch": 33,
                "velocity": 101,
                "duration": 0.13863636363636367,
                "tempo": 120.0
            },
            {
                "start_time": 11.831818181818182,
                "end_time": 11.98181818181818,
                "pitch": 40,
                "velocity": 101,
                "duration": 0.14999999999999858,
                "tempo": 120.0
            },
            {
                "start_time": 12.006818181818181,
                "end_time": 12.59090909090909,
                "pitch": 43,
                "velocity": 101,
                "duration": 0.584090909090909,
                "tempo": 120.0
            },
            {
                "start_time": 12.681818181818182,
                "end_time": 12.825,
                "pitch": 40,
                "velocity": 101,
                "duration": 0.14318181818181763,
                "tempo": 120.0
            },
            {
                "start_time": 12.847727272727273,
                "end_time": 13.152272727272727,
                "pitch": 31,
                "velocity": 101,
                "duration": 0.3045454545454547,
                "tempo": 120.0
            },
            {
                "start_time": 13.193181818181818,
                "end_time": 13.497727272727271,
                "pitch": 33,
                "velocity": 101,
                "duration": 0.3045454545454529,
                "tempo": 120.0
            },
            {
                "start_time": 13.540909090909091,
                "end_time": 13.84090909090909,
                "pitch": 33,
                "velocity": 101,
                "duration": 0.29999999999999893,
                "tempo": 120.0
            },
            {
                "start_time": 13.884090909090908,
                "end_time": 14.027272727272727,
                "pitch": 40,
                "velocity": 101,
                "duration": 0.1431818181818194,
                "tempo": 120.0
            },
            {
                "start_time": 14.052272727272726,
                "end_time": 14.195454545454545,
                "pitch": 33,
                "velocity": 101,
                "duration": 0.1431818181818194,
                "tempo": 120.0
            },
            {
                "start_time": 14.213636363636363,
                "end_time": 14.381818181818181,
                "pitch": 33,
                "velocity": 4,
                "duration": 0.168181818181818,
                "tempo": 120.0
            },
            {
                "start_time": 14.381818181818181,
                "end_time": 14.520454545454545,
                "pitch": 33,
                "velocity": 101,
                "duration": 0.13863636363636367,
                "tempo": 120.0
            },
            {
                "start_time": 14.540909090909091,
                "end_time": 14.69090909090909,
                "pitch": 40,
                "velocity": 101,
                "duration": 0.14999999999999858,
                "tempo": 120.0
            },
            {
                "start_time": 14.718181818181817,
                "end_time": 15.299999999999999,
                "pitch": 43,
                "velocity": 101,
                "duration": 0.581818181818182,
                "tempo": 120.0
            },
            {
                "start_time": 15.393181818181818,
                "end_time": 15.534090909090908,
                "pitch": 40,
                "velocity": 101,
                "duration": 0.14090909090909065,
                "tempo": 120.0
            },
            {
                "start_time": 15.561363636363636,
                "end_time": 15.781818181818181,
                "pitch": 33,
                "velocity": 101,
                "duration": 0.22045454545454568,
                "tempo": 120.0
            },
            {
                "start_time": 15.825,
                "end_time": 16.04090909090909,
                "pitch": 33,
                "velocity": 101,
                "duration": 0.21590909090908994,
                "tempo": 120.0
            },
            {
                "start_time": 16.081818181818182,
                "end_time": 16.224999999999998,
                "pitch": 33,
                "velocity": 101,
                "duration": 0.14318181818181586,
                "tempo": 120.0
            },
            {
                "start_time": 16.254545454545454,
                "end_time": 16.552272727272726,
                "pitch": 31,
                "velocity": 101,
                "duration": 0.29772727272727195,
                "tempo": 120.0
            },
            {
                "start_time": 16.599999999999998,
                "end_time": 16.738636363636363,
                "pitch": 38,
                "velocity": 101,
                "duration": 0.13863636363636545,
                "tempo": 120.0
            },
            {
                "start_time": 16.768181818181816,
                "end_time": 16.90681818181818,
                "pitch": 31,
                "velocity": 101,
                "duration": 0.13863636363636545,
                "tempo": 120.0
            },
            {
                "start_time": 16.927272727272726,
                "end_time": 17.099999999999998,
                "pitch": 31,
                "velocity": 4,
                "duration": 0.17272727272727195,
                "tempo": 120.0
            },
            {
                "start_time": 17.099999999999998,
                "end_time": 17.24090909090909,
                "pitch": 31,
                "velocity": 101,
                "duration": 0.14090909090909065,
                "tempo": 120.0
            },
            {
                "start_time": 17.263636363636362,
                "end_time": 17.409090909090907,
                "pitch": 38,
                "velocity": 101,
                "duration": 0.14545454545454461,
                "tempo": 120.0
            },
            {
                "start_time": 17.436363636363634,
                "end_time": 18.022727272727273,
                "pitch": 41,
                "velocity": 101,
                "duration": 0.5863636363636395,
                "tempo": 120.0
            },
            {
                "start_time": 18.111363636363635,
                "end_time": 18.25681818181818,
                "pitch": 38,
                "velocity": 101,
                "duration": 0.14545454545454461,
                "tempo": 120.0
            },
            {
                "start_time": 18.277272727272727,
                "end_time": 18.584090909090907,
                "pitch": 29,
                "velocity": 101,
                "duration": 0.3068181818181799,
                "tempo": 120.0
            },
            {
                "start_time": 18.63181818181818,
                "end_time": 18.927272727272726,
                "pitch": 31,
                "velocity": 101,
                "duration": 0.29545454545454675,
                "tempo": 120.0
            },
            {
                "start_time": 18.970454545454544,
                "end_time": 19.254545454545454,
                "pitch": 31,
                "velocity": 101,
                "duration": 0.28409090909091006,
                "tempo": 120.0
            },
            {
                "start_time": 19.293181818181818,
                "end_time": 19.443181818181817,
                "pitch": 38,
                "velocity": 101,
                "duration": 0.14999999999999858,
                "tempo": 120.0
            },
            {
                "start_time": 19.46363636363636,
                "end_time": 19.613636363636363,
                "pitch": 31,
                "velocity": 101,
                "duration": 0.15000000000000213,
                "tempo": 120.0
            },
            {
                "start_time": 19.63181818181818,
                "end_time": 19.804545454545455,
                "pitch": 31,
                "velocity": 4,
                "duration": 0.1727272727272755,
                "tempo": 120.0
            },
            {
                "start_time": 19.804545454545455,
                "end_time": 19.95,
                "pitch": 31,
                "velocity": 101,
                "duration": 0.14545454545454461,
                "tempo": 120.0
            },
            {
                "start_time": 19.974999999999998,
                "end_time": 20.12272727272727,
                "pitch": 38,
                "velocity": 101,
                "duration": 0.14772727272727337,
                "tempo": 120.0
            },
            {
                "start_time": 20.147727272727273,
                "end_time": 20.73181818181818,
                "pitch": 41,
                "velocity": 101,
                "duration": 0.5840909090909072,
                "tempo": 120.0
            },
            {
                "start_time": 20.825,
                "end_time": 20.96590909090909,
                "pitch": 38,
                "velocity": 101,
                "duration": 0.14090909090909065,
                "tempo": 120.0
            },
            {
                "start_time": 20.99090909090909,
                "end_time": 21.293181818181818,
                "pitch": 29,
                "velocity": 101,
                "duration": 0.30227272727272947,
                "tempo": 120.0
            },
            {
                "start_time": 21.336363636363636,
                "end_time": 21.629545454545454,
                "pitch": 31,
                "velocity": 101,
                "duration": 0.293181818181818,
                "tempo": 120.0
            },
            {
                "start_time": 21.670454545454543,
                "end_time": 21.96590909090909,
                "pitch": 33,
                "velocity": 101,
                "duration": 0.29545454545454675,
                "tempo": 120.0
            },
            {
                "start_time": 22.002272727272725,
                "end_time": 22.152272727272727,
                "pitch": 40,
                "velocity": 101,
                "duration": 0.15000000000000213,
                "tempo": 120.0
            },
            {
                "start_time": 22.174999999999997,
                "end_time": 22.325,
                "pitch": 33,
                "velocity": 101,
                "duration": 0.15000000000000213,
                "tempo": 120.0
            },
            {
                "start_time": 22.347727272727273,
                "end_time": 22.518181818181816,
                "pitch": 33,
                "velocity": 4,
                "duration": 0.1704545454545432,
                "tempo": 120.0
            },
            {
                "start_time": 22.518181818181816,
                "end_time": 22.661363636363635,
                "pitch": 33,
                "velocity": 101,
                "duration": 0.1431818181818194,
                "tempo": 120.0
            },
            {
                "start_time": 22.68181818181818,
                "end_time": 22.829545454545453,
                "pitch": 40,
                "velocity": 101,
                "duration": 0.14772727272727337,
                "tempo": 120.0
            },
            {
                "start_time": 22.852272727272727,
                "end_time": 23.436363636363634,
                "pitch": 43,
                "velocity": 101,
                "duration": 0.5840909090909072,
                "tempo": 120.0
            },
            {
                "start_time": 23.527272727272727,
                "end_time": 23.677272727272726,
                "pitch": 40,
                "velocity": 101,
                "duration": 0.14999999999999858,
                "tempo": 120.0
            },
            {
                "start_time": 23.7,
                "end_time": 24.004545454545454,
                "pitch": 31,
                "velocity": 101,
                "duration": 0.3045454545454547,
                "tempo": 120.0
            },
            {
                "start_time": 24.052272727272726,
                "end_time": 24.349999999999998,
                "pitch": 33,
                "velocity": 101,
                "duration": 0.29772727272727195,
                "tempo": 120.0
            },
            {
                "start_time": 24.39090909090909,
                "end_time": 24.686363636363634,
                "pitch": 33,
                "velocity": 101,
                "duration": 0.2954545454545432,
                "tempo": 120.0
            },
            {
                "start_time": 24.724999999999998,
                "end_time": 24.870454545454542,
                "pitch": 40,
                "velocity": 101,
                "duration": 0.14545454545454461,
                "tempo": 120.0
            },
            {
                "start_time": 24.893181818181816,
                "end_time": 25.038636363636364,
                "pitch": 33,
                "velocity": 101,
                "duration": 0.14545454545454817,
                "tempo": 120.0
            },
            {
                "start_time": 25.05909090909091,
                "end_time": 25.229545454545452,
                "pitch": 33,
                "velocity": 4,
                "duration": 0.1704545454545432,
                "tempo": 120.0
            },
            {
                "start_time": 25.229545454545452,
                "end_time": 25.37272727272727,
                "pitch": 33,
                "velocity": 101,
                "duration": 0.1431818181818194,
                "tempo": 120.0
            },
            {
                "start_time": 25.393181818181816,
                "end_time": 25.54090909090909,
                "pitch": 40,
                "velocity": 101,
                "duration": 0.14772727272727337,
                "tempo": 120.0
            },
            {
                "start_time": 25.563636363636363,
                "end_time": 26.14772727272727,
                "pitch": 43,
                "velocity": 101,
                "duration": 0.5840909090909072,
                "tempo": 120.0
            },
            {
                "start_time": 26.238636363636363,
                "end_time": 26.388636363636362,
                "pitch": 40,
                "velocity": 101,
                "duration": 0.14999999999999858,
                "tempo": 120.0
            },
            {
                "start_time": 26.411363636363635,
                "end_time": 26.706818181818182,
                "pitch": 31,
                "velocity": 101,
                "duration": 0.29545454545454675,
                "tempo": 120.0
            },
            {
                "start_time": 26.745454545454542,
                "end_time": 27.052272727272726,
                "pitch": 33,
                "velocity": 101,
                "duration": 0.30681818181818343,
                "tempo": 120.0
            },
            {
                "start_time": 27.095454545454544,
                "end_time": 27.388636363636362,
                "pitch": 31,
                "velocity": 101,
                "duration": 0.293181818181818,
                "tempo": 120.0
            },
            {
                "start_time": 27.43409090909091,
                "end_time": 27.577272727272724,
                "pitch": 38,
                "velocity": 101,
                "duration": 0.14318181818181586,
                "tempo": 120.0
            },
            {
                "start_time": 27.60681818181818,
                "end_time": 27.75,
                "pitch": 31,
                "velocity": 101,
                "duration": 0.1431818181818194,
                "tempo": 120.0
            },
            {
                "start_time": 27.770454545454545,
                "end_time": 27.943181818181817,
                "pitch": 31,
                "velocity": 4,
                "duration": 0.17272727272727195,
                "tempo": 120.0
            },
            {
                "start_time": 27.943181818181817,
                "end_time": 28.084090909090907,
                "pitch": 31,
                "velocity": 101,
                "duration": 0.14090909090909065,
                "tempo": 120.0
            },
            {
                "start_time": 28.10681818181818,
                "end_time": 28.25681818181818,
                "pitch": 38,
                "velocity": 101,
                "duration": 0.14999999999999858,
                "tempo": 120.0
            },
            {
                "start_time": 28.284090909090907,
                "end_time": 28.86590909090909,
                "pitch": 41,
                "velocity": 101,
                "duration": 0.581818181818182,
                "tempo": 120.0
            },
            {
                "start_time": 28.954545454545453,
                "end_time": 29.099999999999998,
                "pitch": 38,
                "velocity": 101,
                "duration": 0.14545454545454461,
                "tempo": 120.0
            },
            {
                "start_time": 29.12272727272727,
                "end_time": 29.427272727272726,
                "pitch": 29,
                "velocity": 101,
                "duration": 0.3045454545454547,
                "tempo": 120.0
            },
            {
                "start_time": 29.474999999999998,
                "end_time": 29.77272727272727,
                "pitch": 31,
                "velocity": 101,
                "duration": 0.29772727272727195,
                "tempo": 120.0
            },
            {
                "start_time": 29.815909090909088,
                "end_time": 30.10909090909091,
                "pitch": 31,
                "velocity": 101,
                "duration": 0.29318181818182154,
                "tempo": 120.0
            },
            {
                "start_time": 30.14772727272727,
                "end_time": 30.293181818181818,
                "pitch": 38,
                "velocity": 101,
                "duration": 0.14545454545454817,
                "tempo": 120.0
            },
            {
                "start_time": 30.313636363636363,
                "end_time": 30.461363636363636,
                "pitch": 31,
                "velocity": 101,
                "duration": 0.14772727272727337,
                "tempo": 120.0
            },
            {
                "start_time": 30.477272727272727,
                "end_time": 30.65,
                "pitch": 31,
                "velocity": 4,
                "duration": 0.17272727272727195,
                "tempo": 120.0
            },
            {
                "start_time": 30.65,
                "end_time": 30.795454545454543,
                "pitch": 31,
                "velocity": 101,
                "duration": 0.14545454545454461,
                "tempo": 120.0
            },
            {
                "start_time": 30.820454545454545,
                "end_time": 30.968181818181815,
                "pitch": 38,
                "velocity": 101,
                "duration": 0.14772727272726982,
                "tempo": 120.0
            },
            {
                "start_time": 30.993181818181817,
                "end_time": 31.577272727272724,
                "pitch": 41,
                "velocity": 101,
                "duration": 0.5840909090909072,
                "tempo": 120.0
            },
            {
                "start_time": 31.670454545454543,
                "end_time": 31.811363636363634,
                "pitch": 38,
                "velocity": 101,
                "duration": 0.14090909090909065,
                "tempo": 120.0
            },
            {
                "start_time": 31.836363636363636,
                "end_time": 32.138636363636365,
                "pitch": 29,
                "velocity": 101,
                "duration": 0.30227272727272947,
                "tempo": 120.0
            },
            {
                "start_time": 32.18181818181818,
                "end_time": 32.475,
                "pitch": 31,
                "velocity": 101,
                "duration": 0.29318181818182154,
                "tempo": 120.0
            },
            {
                "start_time": 32.51590909090909,
                "end_time": 32.81136363636364,
                "pitch": 33,
                "velocity": 101,
                "duration": 0.29545454545454675,
                "tempo": 120.0
            },
            {
                "start_time": 32.84772727272727,
                "end_time": 33.0,
                "pitch": 40,
                "velocity": 101,
                "duration": 0.1522727272727309,
                "tempo": 120.0
            },
            {
                "start_time": 33.02045454545454,
                "end_time": 33.17045454545455,
                "pitch": 33,
                "velocity": 101,
                "duration": 0.15000000000000568,
                "tempo": 120.0
            },
            {
                "start_time": 33.19318181818182,
                "end_time": 33.36363636363636,
                "pitch": 33,
                "velocity": 4,
                "duration": 0.17045454545453964,
                "tempo": 120.0
            },
            {
                "start_time": 33.36363636363636,
                "end_time": 33.50681818181818,
                "pitch": 33,
                "velocity": 101,
                "duration": 0.14318181818182296,
                "tempo": 120.0
            },
            {
                "start_time": 33.527272727272724,
                "end_time": 33.675,
                "pitch": 40,
                "velocity": 101,
                "duration": 0.14772727272727337,
                "tempo": 120.0
            },
            {
                "start_time": 33.69772727272727,
                "end_time": 34.28181818181818,
                "pitch": 43,
                "velocity": 101,
                "duration": 0.5840909090909108,
                "tempo": 120.0
            },
            {
                "start_time": 34.37272727272727,
                "end_time": 34.52272727272727,
                "pitch": 40,
                "velocity": 101,
                "duration": 0.15000000000000568,
                "tempo": 120.0
            },
            {
                "start_time": 34.54545454545455,
                "end_time": 34.85,
                "pitch": 31,
                "velocity": 101,
                "duration": 0.3045454545454547,
                "tempo": 120.0
            },
            {
                "start_time": 34.89772727272727,
                "end_time": 35.195454545454545,
                "pitch": 33,
                "velocity": 101,
                "duration": 0.29772727272727195,
                "tempo": 120.0
            },
            {
                "start_time": 35.236363636363635,
                "end_time": 35.53181818181818,
                "pitch": 33,
                "velocity": 101,
                "duration": 0.29545454545454675,
                "tempo": 120.0
            },
            {
                "start_time": 35.570454545454545,
                "end_time": 35.715909090909086,
                "pitch": 40,
                "velocity": 101,
                "duration": 0.14545454545454106,
                "tempo": 120.0
            },
            {
                "start_time": 35.73863636363636,
                "end_time": 35.88409090909091,
                "pitch": 33,
                "velocity": 101,
                "duration": 0.14545454545454817,
                "tempo": 120.0
            },
            {
                "start_time": 35.904545454545456,
                "end_time": 36.074999999999996,
                "pitch": 33,
                "velocity": 4,
                "duration": 0.17045454545453964,
                "tempo": 120.0
            },
            {
                "start_time": 36.074999999999996,
                "end_time": 36.21818181818182,
                "pitch": 33,
                "velocity": 101,
                "duration": 0.14318181818182296,
                "tempo": 120.0
            },
            {
                "start_time": 36.23863636363636,
                "end_time": 36.38636363636363,
                "pitch": 40,
                "velocity": 101,
                "duration": 0.14772727272727337,
                "tempo": 120.0
            },
            {
                "start_time": 36.40909090909091,
                "end_time": 36.99318181818182,
                "pitch": 43,
                "velocity": 101,
                "duration": 0.5840909090909108,
                "tempo": 120.0
            },
            {
                "start_time": 37.08409090909091,
                "end_time": 37.23409090909091,
                "pitch": 40,
                "velocity": 101,
                "duration": 0.14999999999999858,
                "tempo": 120.0
            },
            {
                "start_time": 37.25681818181818,
                "end_time": 37.55227272727272,
                "pitch": 31,
                "velocity": 101,
                "duration": 0.29545454545453964,
                "tempo": 120.0
            },
            {
                "start_time": 37.590909090909086,
                "end_time": 37.89772727272727,
                "pitch": 33,
                "velocity": 101,
                "duration": 0.306818181818187,
                "tempo": 120.0
            },
            {
                "start_time": 37.94318181818181,
                "end_time": 38.377272727272725,
                "pitch": 29,
                "velocity": 101,
                "duration": 0.4340909090909122,
                "tempo": 120.0
            },
            {
                "start_time": 38.45454545454545,
                "end_time": 38.595454545454544,
                "pitch": 36,
                "velocity": 101,
                "duration": 0.14090909090909065,
                "tempo": 120.0
            },
            {
                "start_time": 38.62045454545454,
                "end_time": 38.92272727272727,
                "pitch": 36,
                "velocity": 101,
                "duration": 0.30227272727272947,
                "tempo": 120.0
            },
            {
                "start_time": 38.965909090909086,
                "end_time": 39.10681818181818,
                "pitch": 29,
                "velocity": 101,
                "duration": 0.14090909090909065,
                "tempo": 120.0
            },
            {
                "start_time": 39.13409090909091,
                "end_time": 39.71363636363636,
                "pitch": 36,
                "velocity": 101,
                "duration": 0.5795454545454533,
                "tempo": 120.0
            },
            {
                "start_time": 39.80227272727272,
                "end_time": 40.1,
                "pitch": 29,
                "velocity": 101,
                "duration": 0.29772727272727906,
                "tempo": 120.0
            },
            {
                "start_time": 40.14090909090909,
                "end_time": 40.29090909090909,
                "pitch": 29,
                "velocity": 101,
                "duration": 0.14999999999999858,
                "tempo": 120.0
            },
            {
                "start_time": 40.31818181818181,
                "end_time": 40.46363636363636,
                "pitch": 36,
                "velocity": 101,
                "duration": 0.14545454545454817,
                "tempo": 120.0
            },
            {
                "start_time": 40.49090909090909,
                "end_time": 40.63636363636363,
                "pitch": 41,
                "velocity": 101,
                "duration": 0.14545454545454106,
                "tempo": 120.0
            },
            {
                "start_time": 40.66590909090909,
                "end_time": 41.08863636363636,
                "pitch": 29,
                "velocity": 101,
                "duration": 0.42272727272727195,
                "tempo": 120.0
            },
            {
                "start_time": 41.16590909090909,
                "end_time": 41.30681818181818,
                "pitch": 36,
                "velocity": 101,
                "duration": 0.14090909090909065,
                "tempo": 120.0
            },
            {
                "start_time": 41.33181818181818,
                "end_time": 41.625,
                "pitch": 36,
                "velocity": 101,
                "duration": 0.29318181818182154,
                "tempo": 120.0
            },
            {
                "start_time": 41.668181818181814,
                "end_time": 41.81363636363636,
                "pitch": 29,
                "velocity": 101,
                "duration": 0.14545454545454817,
                "tempo": 120.0
            },
            {
                "start_time": 41.840909090909086,
                "end_time": 42.425,
                "pitch": 36,
                "velocity": 101,
                "duration": 0.5840909090909108,
                "tempo": 120.0
            },
            {
                "start_time": 42.51363636363636,
                "end_time": 42.81136363636364,
                "pitch": 29,
                "velocity": 101,
                "duration": 0.29772727272727906,
                "tempo": 120.0
            },
            {
                "start_time": 42.85227272727273,
                "end_time": 43.002272727272725,
                "pitch": 29,
                "velocity": 101,
                "duration": 0.14999999999999858,
                "tempo": 120.0
            },
            {
                "start_time": 43.02954545454545,
                "end_time": 43.175,
                "pitch": 36,
                "velocity": 101,
                "duration": 0.14545454545454817,
                "tempo": 120.0
            },
            {
                "start_time": 43.20227272727273,
                "end_time": 43.34772727272727,
                "pitch": 41,
                "velocity": 101,
                "duration": 0.14545454545454106,
                "tempo": 120.0
            },
            {
                "start_time": 43.377272727272725,
                "end_time": 43.8,
                "pitch": 27,
                "velocity": 101,
                "duration": 0.42272727272727195,
                "tempo": 120.0
            },
            {
                "start_time": 43.877272727272725,
                "end_time": 44.018181818181816,
                "pitch": 34,
                "velocity": 101,
                "duration": 0.14090909090909065,
                "tempo": 120.0
            },
            {
                "start_time": 44.043181818181814,
                "end_time": 44.336363636363636,
                "pitch": 34,
                "velocity": 101,
                "duration": 0.29318181818182154,
                "tempo": 120.0
            },
            {
                "start_time": 44.37954545454545,
                "end_time": 44.525,
                "pitch": 27,
                "velocity": 101,
                "duration": 0.14545454545454817,
                "tempo": 120.0
            },
            {
                "start_time": 44.55227272727272,
                "end_time": 45.13636363636363,
                "pitch": 34,
                "velocity": 101,
                "duration": 0.5840909090909108,
                "tempo": 120.0
            },
            {
                "start_time": 45.22727272727273,
                "end_time": 45.52272727272727,
                "pitch": 27,
                "velocity": 101,
                "duration": 0.29545454545454675,
                "tempo": 120.0
            },
            {
                "start_time": 45.56363636363636,
                "end_time": 45.71363636363636,
                "pitch": 27,
                "velocity": 101,
                "duration": 0.14999999999999858,
                "tempo": 120.0
            },
            {
                "start_time": 45.74090909090909,
                "end_time": 45.88636363636363,
                "pitch": 34,
                "velocity": 101,
                "duration": 0.14545454545454106,
                "tempo": 120.0
            },
            {
                "start_time": 45.913636363636364,
                "end_time": 46.059090909090905,
                "pitch": 39,
                "velocity": 101,
                "duration": 0.14545454545454106,
                "tempo": 120.0
            },
            {
                "start_time": 46.08863636363636,
                "end_time": 46.51136363636363,
                "pitch": 27,
                "velocity": 101,
                "duration": 0.42272727272727195,
                "tempo": 120.0
            },
            {
                "start_time": 46.590909090909086,
                "end_time": 46.72954545454545,
                "pitch": 34,
                "velocity": 101,
                "duration": 0.13863636363636545,
                "tempo": 120.0
            },
            {
                "start_time": 46.75454545454545,
                "end_time": 47.05681818181818,
                "pitch": 34,
                "velocity": 101,
                "duration": 0.30227272727272947,
                "tempo": 120.0
            },
            {
                "start_time": 47.099999999999994,
                "end_time": 47.24318181818182,
                "pitch": 27,
                "velocity": 101,
                "duration": 0.14318181818182296,
                "tempo": 120.0
            },
            {
                "start_time": 47.27045454545454,
                "end_time": 47.84772727272727,
                "pitch": 34,
                "velocity": 101,
                "duration": 0.577272727272728,
                "tempo": 120.0
            },
            {
                "start_time": 47.93636363636364,
                "end_time": 48.23181818181818,
                "pitch": 27,
                "velocity": 101,
                "duration": 0.29545454545453964,
                "tempo": 120.0
            },
            {
                "start_time": 48.27045454545454,
                "end_time": 48.41590909090909,
                "pitch": 27,
                "velocity": 101,
                "duration": 0.14545454545454817,
                "tempo": 120.0
            },
            {
                "start_time": 48.44090909090909,
                "end_time": 48.58863636363636,
                "pitch": 34,
                "velocity": 101,
                "duration": 0.14772727272727337,
                "tempo": 120.0
            },
            {
                "start_time": 48.611363636363635,
                "end_time": 48.75909090909091,
                "pitch": 39,
                "velocity": 101,
                "duration": 0.14772727272727337,
                "tempo": 120.0
            },
            {
                "start_time": 48.788636363636364,
                "end_time": 49.22272727272727,
                "pitch": 29,
                "velocity": 101,
                "duration": 0.4340909090909051,
                "tempo": 120.0
            },
            {
                "start_time": 49.3,
                "end_time": 49.44090909090909,
                "pitch": 37,
                "velocity": 101,
                "duration": 0.14090909090909065,
                "tempo": 120.0
            },
            {
                "start_time": 49.465909090909086,
                "end_time": 49.768181818181816,
                "pitch": 37,
                "velocity": 101,
                "duration": 0.30227272727272947,
                "tempo": 120.0
            },
            {
                "start_time": 49.81136363636364,
                "end_time": 49.95454545454545,
                "pitch": 29,
                "velocity": 101,
                "duration": 0.14318181818181586,
                "tempo": 120.0
            },
            {
                "start_time": 49.97954545454545,
                "end_time": 50.559090909090905,
                "pitch": 37,
                "velocity": 101,
                "duration": 0.5795454545454533,
                "tempo": 120.0
            },
            {
                "start_time": 50.64772727272727,
                "end_time": 50.945454545454545,
                "pitch": 29,
                "velocity": 101,
                "duration": 0.29772727272727195,
                "tempo": 120.0
            },
            {
                "start_time": 50.986363636363635,
                "end_time": 51.13636363636363,
                "pitch": 32,
                "velocity": 101,
                "duration": 0.14999999999999858,
                "tempo": 120.0
            },
            {
                "start_time": 51.163636363636364,
                "end_time": 51.309090909090905,
                "pitch": 37,
                "velocity": 101,
                "duration": 0.14545454545454106,
                "tempo": 120.0
            },
            {
                "start_time": 51.336363636363636,
                "end_time": 51.48181818181818,
                "pitch": 41,
                "velocity": 101,
                "duration": 0.14545454545454106,
                "tempo": 120.0
            },
            {
                "start_time": 51.51136363636363,
                "end_time": 51.934090909090905,
                "pitch": 29,
                "velocity": 101,
                "duration": 0.42272727272727195,
                "tempo": 120.0
            },
            {
                "start_time": 52.01136363636363,
                "end_time": 52.152272727272724,
                "pitch": 37,
                "velocity": 101,
                "duration": 0.14090909090909065,
                "tempo": 120.0
            },
            {
                "start_time": 52.17727272727272,
                "end_time": 52.47954545454545,
                "pitch": 37,
                "velocity": 101,
                "duration": 0.30227272727272947,
                "tempo": 120.0
            },
            {
                "start_time": 52.52272727272727,
                "end_time": 52.66590909090909,
                "pitch": 29,
                "velocity": 101,
                "duration": 0.14318181818181586,
                "tempo": 120.0
            },
            {
                "start_time": 52.69090909090909,
                "end_time": 53.27045454545454,
                "pitch": 37,
                "velocity": 101,
                "duration": 0.5795454545454533,
                "tempo": 120.0
            },
            {
                "start_time": 53.361363636363635,
                "end_time": 53.65681818181818,
                "pitch": 29,
                "velocity": 101,
                "duration": 0.29545454545454675,
                "tempo": 120.0
            },
            {
                "start_time": 53.69772727272727,
                "end_time": 53.84772727272727,
                "pitch": 32,
                "velocity": 101,
                "duration": 0.14999999999999858,
                "tempo": 120.0
            },
            {
                "start_time": 53.875,
                "end_time": 54.02045454545454,
                "pitch": 37,
                "velocity": 101,
                "duration": 0.14545454545454106,
                "tempo": 120.0
            },
            {
                "start_time": 54.04545454545454,
                "end_time": 54.19318181818181,
                "pitch": 41,
                "velocity": 101,
                "duration": 0.14772727272727337,
                "tempo": 120.0
            },
            {
                "start_time": 54.220454545454544,
                "end_time": 54.643181818181816,
                "pitch": 36,
                "velocity": 101,
                "duration": 0.42272727272727195,
                "tempo": 120.0
            },
            {
                "start_time": 54.71818181818182,
                "end_time": 55.14545454545454,
                "pitch": 31,
                "velocity": 101,
                "duration": 0.42727272727272236,
                "tempo": 120.0
            },
            {
                "start_time": 55.224999999999994,
                "end_time": 55.525,
                "pitch": 36,
                "velocity": 101,
                "duration": 0.30000000000000426,
                "tempo": 120.0
            },
            {
                "start_time": 55.570454545454545,
                "end_time": 56.002272727272725,
                "pitch": 38,
                "velocity": 101,
                "duration": 0.4318181818181799,
                "tempo": 120.0
            },
            {
                "start_time": 56.07727272727273,
                "end_time": 56.50454545454545,
                "pitch": 33,
                "velocity": 101,
                "duration": 0.42727272727272236,
                "tempo": 120.0
            },
            {
                "start_time": 56.584090909090904,
                "end_time": 56.88409090909091,
                "pitch": 38,
                "velocity": 101,
                "duration": 0.30000000000000426,
                "tempo": 120.0
            },
            {
                "start_time": 56.929545454545455,
                "end_time": 57.35681818181818,
                "pitch": 39,
                "velocity": 101,
                "duration": 0.42727272727272236,
                "tempo": 120.0
            },
            {
                "start_time": 57.429545454545455,
                "end_time": 57.85909090909091,
                "pitch": 34,
                "velocity": 101,
                "duration": 0.4295454545454547,
                "tempo": 120.0
            },
            {
                "start_time": 57.94090909090909,
                "end_time": 58.23409090909091,
                "pitch": 39,
                "velocity": 101,
                "duration": 0.29318181818182154,
                "tempo": 120.0
            },
            {
                "start_time": 58.27272727272727,
                "end_time": 58.69772727272727,
                "pitch": 41,
                "velocity": 101,
                "duration": 0.42499999999999716,
                "tempo": 120.0
            },
            {
                "start_time": 58.777272727272724,
                "end_time": 59.21363636363636,
                "pitch": 36,
                "velocity": 101,
                "duration": 0.4363636363636374,
                "tempo": 120.0
            },
            {
                "start_time": 59.29090909090909,
                "end_time": 59.590909090909086,
                "pitch": 41,
                "velocity": 101,
                "duration": 0.29999999999999716,
                "tempo": 120.0
            },
            {
                "start_time": 59.627272727272725,
                "end_time": 59.80681818181818,
                "pitch": 41,
                "velocity": 4,
                "duration": 0.17954545454545467,
                "tempo": 120.0
            },
            {
                "start_time": 59.809090909090905,
                "end_time": 59.95227272727272,
                "pitch": 43,
                "velocity": 101,
                "duration": 0.14318181818181586,
                "tempo": 120.0
            },
            {
                "start_time": 59.98181818181818,
                "end_time": 60.12272727272727,
                "pitch": 43,
                "velocity": 101,
                "duration": 0.14090909090909065,
                "tempo": 120.0
            },
            {
                "start_time": 60.14090909090909,
                "end_time": 60.31590909090909,
                "pitch": 43,
                "velocity": 4,
                "duration": 0.17499999999999716,
                "tempo": 120.0
            },
            {
                "start_time": 60.31590909090909,
                "end_time": 60.45681818181818,
                "pitch": 43,
                "velocity": 101,
                "duration": 0.14090909090909065,
                "tempo": 120.0
            },
            {
                "start_time": 60.47727272727273,
                "end_time": 60.65,
                "pitch": 43,
                "velocity": 4,
                "duration": 0.17272727272727195,
                "tempo": 120.0
            },
            {
                "start_time": 60.65,
                "end_time": 60.788636363636364,
                "pitch": 43,
                "velocity": 101,
                "duration": 0.13863636363636545,
                "tempo": 120.0
            },
            {
                "start_time": 60.81590909090909,
                "end_time": 60.949999999999996,
                "pitch": 43,
                "velocity": 101,
                "duration": 0.13409090909090793,
                "tempo": 120.0
            },
            {
                "start_time": 60.970454545454544,
                "end_time": 62.31363636363636,
                "pitch": 43,
                "velocity": 4,
                "duration": 1.3431818181818187,
                "tempo": 120.0
            }
        ],
        "Vibraphone": [
            {
                "start_time": 37.94318181818181,
                "end_time": 38.0,
                "pitch": 76,
                "velocity": 80,
                "duration": 0.056818181818186986,
                "tempo": 120.0
            },
            {
                "start_time": 38.02045454545454,
                "end_time": 38.086363636363636,
                "pitch": 72,
                "velocity": 80,
                "duration": 0.06590909090909491,
                "tempo": 120.0
            },
            {
                "start_time": 38.10909090909091,
                "end_time": 38.17272727272727,
                "pitch": 69,
                "velocity": 80,
                "duration": 0.0636363636363626,
                "tempo": 120.0
            },
            {
                "start_time": 38.19318181818181,
                "end_time": 38.25909090909091,
                "pitch": 65,
                "velocity": 80,
                "duration": 0.06590909090909491,
                "tempo": 120.0
            },
            {
                "start_time": 38.28181818181818,
                "end_time": 38.34318181818182,
                "pitch": 76,
                "velocity": 80,
                "duration": 0.0613636363636374,
                "tempo": 120.0
            },
            {
                "start_time": 38.36363636363636,
                "end_time": 38.42727272727272,
                "pitch": 72,
                "velocity": 80,
                "duration": 0.0636363636363626,
                "tempo": 120.0
            },
            {
                "start_time": 38.45454545454545,
                "end_time": 38.51136363636363,
                "pitch": 69,
                "velocity": 80,
                "duration": 0.05681818181817988,
                "tempo": 120.0
            },
            {
                "start_time": 38.529545454545456,
                "end_time": 38.595454545454544,
                "pitch": 65,
                "velocity": 80,
                "duration": 0.06590909090908781,
                "tempo": 120.0
            },
            {
                "start_time": 38.62045454545454,
                "end_time": 38.679545454545455,
                "pitch": 76,
                "velocity": 80,
                "duration": 0.05909090909091219,
                "tempo": 120.0
            },
            {
                "start_time": 38.699999999999996,
                "end_time": 38.76590909090909,
                "pitch": 72,
                "velocity": 80,
                "duration": 0.06590909090909491,
                "tempo": 120.0
            },
            {
                "start_time": 38.788636363636364,
                "end_time": 38.85227272727273,
                "pitch": 69,
                "velocity": 80,
                "duration": 0.0636363636363626,
                "tempo": 120.0
            },
            {
                "start_time": 38.87272727272727,
                "end_time": 38.93863636363636,
                "pitch": 65,
                "velocity": 80,
                "duration": 0.06590909090909491,
                "tempo": 120.0
            },
            {
                "start_time": 38.965909090909086,
                "end_time": 39.02272727272727,
                "pitch": 76,
                "velocity": 80,
                "duration": 0.056818181818186986,
                "tempo": 120.0
            },
            {
                "start_time": 39.043181818181814,
                "end_time": 39.10681818181818,
                "pitch": 72,
                "velocity": 80,
                "duration": 0.0636363636363626,
                "tempo": 120.0
            },
            {
                "start_time": 39.13409090909091,
                "end_time": 39.19090909090909,
                "pitch": 69,
                "velocity": 80,
                "duration": 0.05681818181817988,
                "tempo": 120.0
            },
            {
                "start_time": 39.211363636363636,
                "end_time": 39.275,
                "pitch": 65,
                "velocity": 80,
                "duration": 0.0636363636363626,
                "tempo": 120.0
            },
            {
                "start_time": 39.29772727272727,
                "end_time": 39.35909090909091,
                "pitch": 76,
                "velocity": 80,
                "duration": 0.0613636363636374,
                "tempo": 120.0
            },
            {
                "start_time": 39.377272727272725,
                "end_time": 39.44318181818181,
                "pitch": 72,
                "velocity": 80,
                "duration": 0.06590909090908781,
                "tempo": 120.0
            },
            {
                "start_time": 39.46818181818182,
                "end_time": 39.527272727272724,
                "pitch": 69,
                "velocity": 80,
                "duration": 0.059090909090905086,
                "tempo": 120.0
            },
            {
                "start_time": 39.54545454545455,
                "end_time": 39.611363636363635,
                "pitch": 65,
                "velocity": 80,
                "duration": 0.06590909090908781,
                "tempo": 120.0
            },
            {
                "start_time": 39.62954545454545,
                "end_time": 39.695454545454545,
                "pitch": 76,
                "velocity": 80,
                "duration": 0.06590909090909491,
                "tempo": 120.0
            },
            {
                "start_time": 39.71363636363636,
                "end_time": 39.777272727272724,
                "pitch": 72,
                "velocity": 80,
                "duration": 0.0636363636363626,
                "tempo": 120.0
            },
            {
                "start_time": 39.80227272727272,
                "end_time": 39.861363636363635,
                "pitch": 69,
                "velocity": 80,
                "duration": 0.05909090909091219,
                "tempo": 120.0
            },
            {
                "start_time": 39.88181818181818,
                "end_time": 39.945454545454545,
                "pitch": 65,
                "velocity": 80,
                "duration": 0.0636363636363626,
                "tempo": 120.0
            },
            {
                "start_time": 39.96818181818182,
                "end_time": 40.03181818181818,
                "pitch": 76,
                "velocity": 80,
                "duration": 0.0636363636363626,
                "tempo": 120.0
            },
            {
                "start_time": 40.05227272727272,
                "end_time": 40.11818181818182,
                "pitch": 72,
                "velocity": 80,
                "duration": 0.06590909090909491,
                "tempo": 120.0
            },
            {
                "start_time": 40.14090909090909,
                "end_time": 40.20454545454545,
                "pitch": 69,
                "velocity": 80,
                "duration": 0.0636363636363626,
                "tempo": 120.0
            },
            {
                "start_time": 40.22272727272727,
                "end_time": 40.29090909090909,
                "pitch": 65,
                "velocity": 80,
                "duration": 0.06818181818182012,
                "tempo": 120.0
            },
            {
                "start_time": 40.31818181818181,
                "end_time": 40.377272727272725,
                "pitch": 76,
                "velocity": 80,
                "duration": 0.05909090909091219,
                "tempo": 120.0
            },
            {
                "start_time": 40.39545454545454,
                "end_time": 40.46363636363636,
                "pitch": 72,
                "velocity": 80,
                "duration": 0.06818181818182012,
                "tempo": 120.0
            },
            {
                "start_time": 40.49090909090909,
                "end_time": 40.55,
                "pitch": 69,
                "velocity": 80,
                "duration": 0.059090909090905086,
                "tempo": 120.0
            },
            {
                "start_time": 40.56818181818181,
                "end_time": 40.63636363636363,
                "pitch": 65,
                "velocity": 80,
                "duration": 0.06818181818182012,
                "tempo": 120.0
            },
            {
                "start_time": 40.66590909090909,
                "end_time": 40.720454545454544,
                "pitch": 75,
                "velocity": 80,
                "duration": 0.054545454545454675,
                "tempo": 120.0
            },
            {
                "start_time": 40.73863636363636,
                "end_time": 40.804545454545455,
                "pitch": 72,
                "velocity": 80,
                "duration": 0.06590909090909491,
                "tempo": 120.0
            },
            {
                "start_time": 40.824999999999996,
                "end_time": 40.88636363636363,
                "pitch": 68,
                "velocity": 80,
                "duration": 0.0613636363636374,
                "tempo": 120.0
            },
            {
                "start_time": 40.90681818181818,
                "end_time": 40.970454545454544,
                "pitch": 65,
                "velocity": 80,
                "duration": 0.0636363636363626,
                "tempo": 120.0
            },
            {
                "start_time": 40.99318181818182,
                "end_time": 41.054545454545455,
                "pitch": 75,
                "velocity": 80,
                "duration": 0.0613636363636374,
                "tempo": 120.0
            },
            {
                "start_time": 41.074999999999996,
                "end_time": 41.13863636363636,
                "pitch": 72,
                "velocity": 80,
                "duration": 0.0636363636363626,
                "tempo": 120.0
            },
            {
                "start_time": 41.16590909090909,
                "end_time": 41.22272727272727,
                "pitch": 68,
                "velocity": 80,
                "duration": 0.05681818181817988,
                "tempo": 120.0
            },
            {
                "start_time": 41.24090909090909,
                "end_time": 41.30681818181818,
                "pitch": 65,
                "velocity": 80,
                "duration": 0.06590909090908781,
                "tempo": 120.0
            },
            {
                "start_time": 41.33181818181818,
                "end_time": 41.39090909090909,
                "pitch": 75,
                "velocity": 80,
                "duration": 0.05909090909091219,
                "tempo": 120.0
            },
            {
                "start_time": 41.40909090909091,
                "end_time": 41.475,
                "pitch": 72,
                "velocity": 80,
                "duration": 0.06590909090909491,
                "tempo": 120.0
            },
            {
                "start_time": 41.49545454545454,
                "end_time": 41.559090909090905,
                "pitch": 68,
                "velocity": 80,
                "duration": 0.0636363636363626,
                "tempo": 120.0
            },
            {
                "start_time": 41.57727272727273,
                "end_time": 41.64090909090909,
                "pitch": 65,
                "velocity": 80,
                "duration": 0.0636363636363626,
                "tempo": 120.0
            },
            {
                "start_time": 41.668181818181814,
                "end_time": 41.72727272727273,
                "pitch": 75,
                "velocity": 80,
                "duration": 0.05909090909091219,
                "tempo": 120.0
            },
            {
                "start_time": 41.74772727272727,
                "end_time": 41.81363636363636,
                "pitch": 72,
                "velocity": 80,
                "duration": 0.06590909090909491,
                "tempo": 120.0
            },
            {
                "start_time": 41.840909090909086,
                "end_time": 41.9,
                "pitch": 68,
                "velocity": 80,
                "duration": 0.05909090909091219,
                "tempo": 120.0
            },
            {
                "start_time": 41.92045454545455,
                "end_time": 41.986363636363635,
                "pitch": 65,
                "velocity": 80,
                "duration": 0.06590909090908781,
                "tempo": 120.0
            },
            {
                "start_time": 42.00909090909091,
                "end_time": 42.070454545454545,
                "pitch": 75,
                "velocity": 80,
                "duration": 0.0613636363636374,
                "tempo": 120.0
            },
            {
                "start_time": 42.08863636363636,
                "end_time": 42.15454545454545,
                "pitch": 72,
                "velocity": 80,
                "duration": 0.06590909090908781,
                "tempo": 120.0
            },
            {
                "start_time": 42.179545454545455,
                "end_time": 42.23863636363636,
                "pitch": 68,
                "velocity": 80,
                "duration": 0.059090909090905086,
                "tempo": 120.0
            },
            {
                "start_time": 42.25681818181818,
                "end_time": 42.32272727272727,
                "pitch": 65,
                "velocity": 80,
                "duration": 0.06590909090908781,
                "tempo": 120.0
            },
            {
                "start_time": 42.34318181818182,
                "end_time": 42.40681818181818,
                "pitch": 75,
                "velocity": 80,
                "duration": 0.0636363636363626,
                "tempo": 120.0
            },
            {
                "start_time": 42.425,
                "end_time": 42.48863636363636,
                "pitch": 72,
                "velocity": 80,
                "duration": 0.0636363636363626,
                "tempo": 120.0
            },
            {
                "start_time": 42.51363636363636,
                "end_time": 42.57272727272727,
                "pitch": 68,
                "velocity": 80,
                "duration": 0.05909090909091219,
                "tempo": 120.0
            },
            {
                "start_time": 42.59318181818182,
                "end_time": 42.65681818181818,
                "pitch": 65,
                "velocity": 80,
                "duration": 0.0636363636363626,
                "tempo": 120.0
            },
            {
                "start_time": 42.679545454545455,
                "end_time": 42.74318181818182,
                "pitch": 75,
                "velocity": 80,
                "duration": 0.0636363636363626,
                "tempo": 120.0
            },
            {
                "start_time": 42.76363636363636,
                "end_time": 42.82954545454545,
                "pitch": 72,
                "velocity": 80,
                "duration": 0.06590909090909491,
                "tempo": 120.0
            },
            {
                "start_time": 42.85227272727273,
                "end_time": 42.91590909090909,
                "pitch": 68,
                "velocity": 80,
                "duration": 0.0636363636363626,
                "tempo": 120.0
            },
            {
                "start_time": 42.934090909090905,
                "end_time": 43.002272727272725,
                "pitch": 65,
                "velocity": 80,
                "duration": 0.06818181818182012,
                "tempo": 120.0
            },
            {
                "start_time": 43.02954545454545,
                "end_time": 43.08863636363636,
                "pitch": 75,
                "velocity": 80,
                "duration": 0.05909090909091219,
                "tempo": 120.0
            },
            {
                "start_time": 43.10681818181818,
                "end_time": 43.175,
                "pitch": 72,
                "velocity": 80,
                "duration": 0.06818181818182012,
                "tempo": 120.0
            },
            {
                "start_time": 43.20227272727273,
                "end_time": 43.26136363636363,
                "pitch": 68,
                "velocity": 80,
                "duration": 0.059090909090905086,
                "tempo": 120.0
            },
            {
                "start_time": 43.27954545454545,
                "end_time": 43.34772727272727,
                "pitch": 65,
                "velocity": 80,
                "duration": 0.06818181818182012,
                "tempo": 120.0
            },
            {
                "start_time": 43.377272727272725,
                "end_time": 43.43181818181818,
                "pitch": 74,
                "velocity": 80,
                "duration": 0.054545454545454675,
                "tempo": 120.0
            },
            {
                "start_time": 43.449999999999996,
                "end_time": 43.51590909090909,
                "pitch": 70,
                "velocity": 80,
                "duration": 0.06590909090909491,
                "tempo": 120.0
            },
            {
                "start_time": 43.53636363636363,
                "end_time": 43.59772727272727,
                "pitch": 67,
                "velocity": 80,
                "duration": 0.0613636363636374,
                "tempo": 120.0
            },
            {
                "start_time": 43.61818181818182,
                "end_time": 43.68181818181818,
                "pitch": 63,
                "velocity": 80,
                "duration": 0.0636363636363626,
                "tempo": 120.0
            },
            {
                "start_time": 43.70454545454545,
                "end_time": 43.76590909090909,
                "pitch": 74,
                "velocity": 80,
                "duration": 0.0613636363636374,
                "tempo": 120.0
            },
            {
                "start_time": 43.78636363636363,
                "end_time": 43.85,
                "pitch": 70,
                "velocity": 80,
                "duration": 0.06363636363636971,
                "tempo": 120.0
            },
            {
                "start_time": 43.877272727272725,
                "end_time": 43.934090909090905,
                "pitch": 67,
                "velocity": 80,
                "duration": 0.05681818181817988,
                "tempo": 120.0
            },
            {
                "start_time": 43.95454545454545,
                "end_time": 44.018181818181816,
                "pitch": 63,
                "velocity": 80,
                "duration": 0.0636363636363626,
                "tempo": 120.0
            },
            {
                "start_time": 44.043181818181814,
                "end_time": 44.10227272727273,
                "pitch": 74,
                "velocity": 80,
                "duration": 0.05909090909091219,
                "tempo": 120.0
            },
            {
                "start_time": 44.12045454545454,
                "end_time": 44.18636363636364,
                "pitch": 70,
                "velocity": 80,
                "duration": 0.06590909090909491,
                "tempo": 120.0
            },
            {
                "start_time": 44.20681818181818,
                "end_time": 44.27045454545454,
                "pitch": 67,
                "velocity": 80,
                "duration": 0.0636363636363626,
                "tempo": 120.0
            },
            {
                "start_time": 44.288636363636364,
                "end_time": 44.35227272727273,
                "pitch": 63,
                "velocity": 80,
                "duration": 0.0636363636363626,
                "tempo": 120.0
            },
            {
                "start_time": 44.37954545454545,
                "end_time": 44.43863636363636,
                "pitch": 74,
                "velocity": 80,
                "duration": 0.05909090909091219,
                "tempo": 120.0
            },
            {
                "start_time": 44.459090909090904,
                "end_time": 44.525,
                "pitch": 70,
                "velocity": 80,
                "duration": 0.06590909090909491,
                "tempo": 120.0
            },
            {
                "start_time": 44.55227272727272,
                "end_time": 44.611363636363635,
                "pitch": 67,
                "velocity": 80,
                "duration": 0.05909090909091219,
                "tempo": 120.0
            },
            {
                "start_time": 44.63181818181818,
                "end_time": 44.69772727272727,
                "pitch": 63,
                "velocity": 80,
                "duration": 0.06590909090908781,
                "tempo": 120.0
            },
            {
                "start_time": 44.720454545454544,
                "end_time": 44.78181818181818,
                "pitch": 74,
                "velocity": 80,
                "duration": 0.0613636363636374,
                "tempo": 120.0
            },
            {
                "start_time": 44.80227272727272,
                "end_time": 44.86590909090909,
                "pitch": 70,
                "velocity": 80,
                "duration": 0.06363636363636971,
                "tempo": 120.0
            },
            {
                "start_time": 44.89090909090909,
                "end_time": 44.949999999999996,
                "pitch": 67,
                "velocity": 80,
                "duration": 0.059090909090905086,
                "tempo": 120.0
            },
            {
                "start_time": 44.96818181818182,
                "end_time": 45.03409090909091,
                "pitch": 63,
                "velocity": 80,
                "duration": 0.06590909090908781,
                "tempo": 120.0
            },
            {
                "start_time": 45.054545454545455,
                "end_time": 45.11818181818182,
                "pitch": 74,
                "velocity": 80,
                "duration": 0.0636363636363626,
                "tempo": 120.0
            },
            {
                "start_time": 45.13636363636363,
                "end_time": 45.20227272727273,
                "pitch": 70,
                "velocity": 80,
                "duration": 0.06590909090909491,
                "tempo": 120.0
            },
            {
                "start_time": 45.22727272727273,
                "end_time": 45.28409090909091,
                "pitch": 67,
                "velocity": 80,
                "duration": 0.05681818181817988,
                "tempo": 120.0
            },
            {
                "start_time": 45.304545454545455,
                "end_time": 45.36818181818182,
                "pitch": 63,
                "velocity": 80,
                "duration": 0.0636363636363626,
                "tempo": 120.0
            },
            {
                "start_time": 45.393181818181816,
                "end_time": 45.45454545454545,
                "pitch": 74,
                "velocity": 80,
                "duration": 0.0613636363636374,
                "tempo": 120.0
            },
            {
                "start_time": 45.474999999999994,
                "end_time": 45.54090909090909,
                "pitch": 70,
                "velocity": 80,
                "duration": 0.06590909090909491,
                "tempo": 120.0
            },
            {
                "start_time": 45.56363636363636,
                "end_time": 45.627272727272725,
                "pitch": 67,
                "velocity": 80,
                "duration": 0.0636363636363626,
                "tempo": 120.0
            },
            {
                "start_time": 45.64772727272727,
                "end_time": 45.71363636363636,
                "pitch": 63,
                "velocity": 80,
                "duration": 0.06590909090908781,
                "tempo": 120.0
            },
            {
                "start_time": 45.74090909090909,
                "end_time": 45.8,
                "pitch": 74,
                "velocity": 80,
                "duration": 0.059090909090905086,
                "tempo": 120.0
            },
            {
                "start_time": 45.81818181818181,
                "end_time": 45.88636363636363,
                "pitch": 70,
                "velocity": 80,
                "duration": 0.06818181818182012,
                "tempo": 120.0
            },
            {
                "start_time": 45.913636363636364,
                "end_time": 45.97272727272727,
                "pitch": 67,
                "velocity": 80,
                "duration": 0.059090909090905086,
                "tempo": 120.0
            },
            {
                "start_time": 45.99090909090909,
                "end_time": 46.059090909090905,
                "pitch": 63,
                "velocity": 80,
                "duration": 0.06818181818181301,
                "tempo": 120.0
            },
            {
                "start_time": 46.08863636363636,
                "end_time": 46.143181818181816,
                "pitch": 73,
                "velocity": 80,
                "duration": 0.054545454545454675,
                "tempo": 120.0
            },
            {
                "start_time": 46.16136363636363,
                "end_time": 46.22727272727273,
                "pitch": 70,
                "velocity": 80,
                "duration": 0.06590909090909491,
                "tempo": 120.0
            },
            {
                "start_time": 46.25,
                "end_time": 46.31136363636364,
                "pitch": 66,
                "velocity": 80,
                "duration": 0.0613636363636374,
                "tempo": 120.0
            },
            {
                "start_time": 46.32954545454545,
                "end_time": 46.393181818181816,
                "pitch": 63,
                "velocity": 80,
                "duration": 0.0636363636363626,
                "tempo": 120.0
            },
            {
                "start_time": 46.42045454545455,
                "end_time": 46.47727272727273,
                "pitch": 73,
                "velocity": 80,
                "duration": 0.05681818181817988,
                "tempo": 120.0
            },
            {
                "start_time": 46.49772727272727,
                "end_time": 46.56136363636364,
                "pitch": 70,
                "velocity": 80,
                "duration": 0.06363636363636971,
                "tempo": 120.0
            },
            {
                "start_time": 46.590909090909086,
                "end_time": 46.64545454545454,
                "pitch": 66,
                "velocity": 80,
                "duration": 0.054545454545454675,
                "tempo": 120.0
            },
            {
                "start_time": 46.66590909090909,
                "end_time": 46.72954545454545,
                "pitch": 63,
                "velocity": 80,
                "duration": 0.0636363636363626,
                "tempo": 120.0
            },
            {
                "start_time": 46.75454545454545,
                "end_time": 46.81590909090909,
                "pitch": 73,
                "velocity": 80,
                "duration": 0.0613636363636374,
                "tempo": 120.0
            },
            {
                "start_time": 46.834090909090904,
                "end_time": 46.902272727272724,
                "pitch": 70,
                "velocity": 80,
                "duration": 0.06818181818182012,
                "tempo": 120.0
            },
            {
                "start_time": 46.92727272727272,
                "end_time": 46.986363636363635,
                "pitch": 66,
                "velocity": 80,
                "duration": 0.05909090909091219,
                "tempo": 120.0
            },
            {
                "start_time": 47.00681818181818,
                "end_time": 47.07272727272727,
                "pitch": 63,
                "velocity": 80,
                "duration": 0.06590909090908781,
                "tempo": 120.0
            },
            {
                "start_time": 47.099999999999994,
                "end_time": 47.15909090909091,
                "pitch": 73,
                "velocity": 80,
                "duration": 0.05909090909091219,
                "tempo": 120.0
            },
            {
                "start_time": 47.17727272727272,
                "end_time": 47.24318181818182,
                "pitch": 70,
                "velocity": 80,
                "duration": 0.06590909090909491,
                "tempo": 120.0
            },
            {
                "start_time": 47.27045454545454,
                "end_time": 47.324999999999996,
                "pitch": 66,
                "velocity": 80,
                "duration": 0.054545454545454675,
                "tempo": 120.0
            },
            {
                "start_time": 47.345454545454544,
                "end_time": 47.40909090909091,
                "pitch": 63,
                "velocity": 80,
                "duration": 0.0636363636363626,
                "tempo": 120.0
            },
            {
                "start_time": 47.43181818181818,
                "end_time": 47.49318181818182,
                "pitch": 73,
                "velocity": 80,
                "duration": 0.0613636363636374,
                "tempo": 120.0
            },
            {
                "start_time": 47.51363636363636,
                "end_time": 47.57727272727273,
                "pitch": 70,
                "velocity": 80,
                "duration": 0.06363636363636971,
                "tempo": 120.0
            },
            {
                "start_time": 47.59772727272727,
                "end_time": 47.66136363636363,
                "pitch": 66,
                "velocity": 80,
                "duration": 0.0636363636363626,
                "tempo": 120.0
            },
            {
                "start_time": 47.679545454545455,
                "end_time": 47.74545454545454,
                "pitch": 63,
                "velocity": 80,
                "duration": 0.06590909090908781,
                "tempo": 120.0
            },
            {
                "start_time": 47.76590909090909,
                "end_time": 47.82954545454545,
                "pitch": 73,
                "velocity": 80,
                "duration": 0.0636363636363626,
                "tempo": 120.0
            },
            {
                "start_time": 47.84772727272727,
                "end_time": 47.913636363636364,
                "pitch": 70,
                "velocity": 80,
                "duration": 0.06590909090909491,
                "tempo": 120.0
            },
            {
                "start_time": 47.93636363636364,
                "end_time": 47.99545454545454,
                "pitch": 66,
                "velocity": 80,
                "duration": 0.059090909090905086,
                "tempo": 120.0
            },
            {
                "start_time": 48.01590909090909,
                "end_time": 48.07954545454545,
                "pitch": 63,
                "velocity": 80,
                "duration": 0.0636363636363626,
                "tempo": 120.0
            },
            {
                "start_time": 48.10227272727273,
                "end_time": 48.163636363636364,
                "pitch": 73,
                "velocity": 80,
                "duration": 0.0613636363636374,
                "tempo": 120.0
            },
            {
                "start_time": 48.184090909090905,
                "end_time": 48.24772727272727,
                "pitch": 70,
                "velocity": 80,
                "duration": 0.0636363636363626,
                "tempo": 120.0
            },
            {
                "start_time": 48.27045454545454,
                "end_time": 48.33181818181818,
                "pitch": 66,
                "velocity": 80,
                "duration": 0.0613636363636374,
                "tempo": 120.0
            },
            {
                "start_time": 48.349999999999994,
                "end_time": 48.41590909090909,
                "pitch": 63,
                "velocity": 80,
                "duration": 0.06590909090909491,
                "tempo": 120.0
            },
            {
                "start_time": 48.44090909090909,
                "end_time": 48.502272727272725,
                "pitch": 73,
                "velocity": 80,
                "duration": 0.0613636363636374,
                "tempo": 120.0
            },
            {
                "start_time": 48.52045454545454,
                "end_time": 48.58863636363636,
                "pitch": 70,
                "velocity": 80,
                "duration": 0.06818181818182012,
                "tempo": 120.0
            },
            {
                "start_time": 48.611363636363635,
                "end_time": 48.67272727272727,
                "pitch": 66,
                "velocity": 80,
                "duration": 0.0613636363636374,
                "tempo": 120.0
            },
            {
                "start_time": 48.69318181818181,
                "end_time": 48.75909090909091,
                "pitch": 63,
                "velocity": 80,
                "duration": 0.06590909090909491,
                "tempo": 120.0
            },
            {
                "start_time": 48.788636363636364,
                "end_time": 48.845454545454544,
                "pitch": 72,
                "velocity": 80,
                "duration": 0.05681818181817988,
                "tempo": 120.0
            },
            {
                "start_time": 48.86590909090909,
                "end_time": 48.93181818181818,
                "pitch": 68,
                "velocity": 80,
                "duration": 0.06590909090908781,
                "tempo": 120.0
            },
            {
                "start_time": 48.95454545454545,
                "end_time": 49.018181818181816,
                "pitch": 65,
                "velocity": 80,
                "duration": 0.0636363636363626,
                "tempo": 120.0
            },
            {
                "start_time": 49.038636363636364,
                "end_time": 49.10454545454545,
                "pitch": 61,
                "velocity": 80,
                "duration": 0.06590909090908781,
                "tempo": 120.0
            },
            {
                "start_time": 49.127272727272725,
                "end_time": 49.18863636363636,
                "pitch": 72,
                "velocity": 80,
                "duration": 0.0613636363636374,
                "tempo": 120.0
            },
            {
                "start_time": 49.209090909090904,
                "end_time": 49.27272727272727,
                "pitch": 68,
                "velocity": 80,
                "duration": 0.06363636363636971,
                "tempo": 120.0
            },
            {
                "start_time": 49.3,
                "end_time": 49.35681818181818,
                "pitch": 65,
                "velocity": 80,
                "duration": 0.05681818181817988,
                "tempo": 120.0
            },
            {
                "start_time": 49.377272727272725,
                "end_time": 49.44090909090909,
                "pitch": 61,
                "velocity": 80,
                "duration": 0.0636363636363626,
                "tempo": 120.0
            },
            {
                "start_time": 49.465909090909086,
                "end_time": 49.527272727272724,
                "pitch": 72,
                "velocity": 80,
                "duration": 0.0613636363636374,
                "tempo": 120.0
            },
            {
                "start_time": 49.54545454545454,
                "end_time": 49.61363636363636,
                "pitch": 68,
                "velocity": 80,
                "duration": 0.06818181818182012,
                "tempo": 120.0
            },
            {
                "start_time": 49.63409090909091,
                "end_time": 49.699999999999996,
                "pitch": 65,
                "velocity": 80,
                "duration": 0.06590909090908781,
                "tempo": 120.0
            },
            {
                "start_time": 49.71818181818182,
                "end_time": 49.78409090909091,
                "pitch": 61,
                "velocity": 80,
                "duration": 0.06590909090908781,
                "tempo": 120.0
            },
            {
                "start_time": 49.81136363636364,
                "end_time": 49.87045454545454,
                "pitch": 72,
                "velocity": 80,
                "duration": 0.059090909090905086,
                "tempo": 120.0
            },
            {
                "start_time": 49.88863636363636,
                "end_time": 49.95454545454545,
                "pitch": 68,
                "velocity": 80,
                "duration": 0.06590909090909491,
                "tempo": 120.0
            },
            {
                "start_time": 49.97954545454545,
                "end_time": 50.03636363636363,
                "pitch": 65,
                "velocity": 80,
                "duration": 0.05681818181817988,
                "tempo": 120.0
            },
            {
                "start_time": 50.05681818181818,
                "end_time": 50.12045454545454,
                "pitch": 61,
                "velocity": 80,
                "duration": 0.0636363636363626,
                "tempo": 120.0
            },
            {
                "start_time": 50.143181818181816,
                "end_time": 50.20454545454545,
                "pitch": 72,
                "velocity": 80,
                "duration": 0.0613636363636374,
                "tempo": 120.0
            },
            {
                "start_time": 50.224999999999994,
                "end_time": 50.288636363636364,
                "pitch": 68,
                "velocity": 80,
                "duration": 0.06363636363636971,
                "tempo": 120.0
            },
            {
                "start_time": 50.31363636363636,
                "end_time": 50.37272727272727,
                "pitch": 65,
                "velocity": 80,
                "duration": 0.059090909090905086,
                "tempo": 120.0
            },
            {
                "start_time": 50.39090909090909,
                "end_time": 50.45681818181818,
                "pitch": 61,
                "velocity": 80,
                "duration": 0.06590909090908781,
                "tempo": 120.0
            },
            {
                "start_time": 50.47727272727273,
                "end_time": 50.54090909090909,
                "pitch": 72,
                "velocity": 80,
                "duration": 0.0636363636363626,
                "tempo": 120.0
            },
            {
                "start_time": 50.559090909090905,
                "end_time": 50.625,
                "pitch": 68,
                "velocity": 80,
                "duration": 0.06590909090909491,
                "tempo": 120.0
            },
            {
                "start_time": 50.64772727272727,
                "end_time": 50.709090909090904,
                "pitch": 65,
                "velocity": 80,
                "duration": 0.06136363636363029,
                "tempo": 120.0
            },
            {
                "start_time": 50.72727272727273,
                "end_time": 50.79090909090909,
                "pitch": 61,
                "velocity": 80,
                "duration": 0.0636363636363626,
                "tempo": 120.0
            },
            {
                "start_time": 50.81363636363636,
                "end_time": 50.877272727272725,
                "pitch": 72,
                "velocity": 80,
                "duration": 0.0636363636363626,
                "tempo": 120.0
            },
            {
                "start_time": 50.89772727272727,
                "end_time": 50.96363636363636,
                "pitch": 68,
                "velocity": 80,
                "duration": 0.06590909090908781,
                "tempo": 120.0
            },
            {
                "start_time": 50.986363636363635,
                "end_time": 51.05,
                "pitch": 65,
                "velocity": 80,
                "duration": 0.0636363636363626,
                "tempo": 120.0
            },
            {
                "start_time": 51.070454545454545,
                "end_time": 51.13636363636363,
                "pitch": 61,
                "velocity": 80,
                "duration": 0.06590909090908781,
                "tempo": 120.0
            },
            {
                "start_time": 51.163636363636364,
                "end_time": 51.22272727272727,
                "pitch": 72,
                "velocity": 80,
                "duration": 0.059090909090905086,
                "tempo": 120.0
            },
            {
                "start_time": 51.24318181818182,
                "end_time": 51.309090909090905,
                "pitch": 68,
                "velocity": 80,
                "duration": 0.06590909090908781,
                "tempo": 120.0
            },
            {
                "start_time": 51.336363636363636,
                "end_time": 51.39545454545454,
                "pitch": 65,
                "velocity": 80,
                "duration": 0.059090909090905086,
                "tempo": 120.0
            },
            {
                "start_time": 51.413636363636364,
                "end_time": 51.48181818181818,
                "pitch": 61,
                "velocity": 80,
                "duration": 0.06818181818181301,
                "tempo": 120.0
            },
            {
                "start_time": 51.51136363636363,
                "end_time": 51.56590909090909,
                "pitch": 71,
                "velocity": 80,
                "duration": 0.054545454545454675,
                "tempo": 120.0
            },
            {
                "start_time": 51.584090909090904,
                "end_time": 51.65,
                "pitch": 68,
                "velocity": 80,
                "duration": 0.06590909090909491,
                "tempo": 120.0
            },
            {
                "start_time": 51.67045454545454,
                "end_time": 51.73409090909091,
                "pitch": 64,
                "velocity": 80,
                "duration": 0.06363636363636971,
                "tempo": 120.0
            },
            {
                "start_time": 51.752272727272725,
                "end_time": 51.81818181818181,
                "pitch": 61,
                "velocity": 80,
                "duration": 0.06590909090908781,
                "tempo": 120.0
            },
            {
                "start_time": 51.83863636363636,
                "end_time": 51.9,
                "pitch": 71,
                "velocity": 80,
                "duration": 0.0613636363636374,
                "tempo": 120.0
            },
            {
                "start_time": 51.92045454545454,
                "end_time": 51.98409090909091,
                "pitch": 68,
                "velocity": 80,
                "duration": 0.06363636363636971,
                "tempo": 120.0
            },
            {
                "start_time": 52.01136363636363,
                "end_time": 52.06818181818181,
                "pitch": 64,
                "velocity": 80,
                "duration": 0.05681818181817988,
                "tempo": 120.0
            },
            {
                "start_time": 52.08863636363636,
                "end_time": 52.152272727272724,
                "pitch": 61,
                "velocity": 80,
                "duration": 0.0636363636363626,
                "tempo": 120.0
            },
            {
                "start_time": 52.17727272727272,
                "end_time": 52.23863636363636,
                "pitch": 71,
                "velocity": 80,
                "duration": 0.0613636363636374,
                "tempo": 120.0
            },
            {
                "start_time": 52.25681818181818,
                "end_time": 52.324999999999996,
                "pitch": 68,
                "velocity": 80,
                "duration": 0.06818181818181301,
                "tempo": 120.0
            },
            {
                "start_time": 52.345454545454544,
                "end_time": 52.41136363636363,
                "pitch": 64,
                "velocity": 80,
                "duration": 0.06590909090908781,
                "tempo": 120.0
            },
            {
                "start_time": 52.429545454545455,
                "end_time": 52.49545454545454,
                "pitch": 61,
                "velocity": 80,
                "duration": 0.06590909090908781,
                "tempo": 120.0
            },
            {
                "start_time": 52.52272727272727,
                "end_time": 52.58181818181818,
                "pitch": 71,
                "velocity": 80,
                "duration": 0.059090909090905086,
                "tempo": 120.0
            },
            {
                "start_time": 52.599999999999994,
                "end_time": 52.66590909090909,
                "pitch": 68,
                "velocity": 80,
                "duration": 0.06590909090909491,
                "tempo": 120.0
            },
            {
                "start_time": 52.69090909090909,
                "end_time": 52.74772727272727,
                "pitch": 64,
                "velocity": 80,
                "duration": 0.05681818181817988,
                "tempo": 120.0
            },
            {
                "start_time": 52.768181818181816,
                "end_time": 52.83181818181818,
                "pitch": 61,
                "velocity": 80,
                "duration": 0.0636363636363626,
                "tempo": 120.0
            },
            {
                "start_time": 52.85454545454545,
                "end_time": 52.91590909090909,
                "pitch": 71,
                "velocity": 80,
                "duration": 0.0613636363636374,
                "tempo": 120.0
            },
            {
                "start_time": 52.93636363636363,
                "end_time": 53.0,
                "pitch": 68,
                "velocity": 80,
                "duration": 0.06363636363636971,
                "tempo": 120.0
            },
            {
                "start_time": 53.025,
                "end_time": 53.084090909090904,
                "pitch": 64,
                "velocity": 80,
                "duration": 0.059090909090905086,
                "tempo": 120.0
            },
            {
                "start_time": 53.10227272727273,
                "end_time": 53.168181818181814,
                "pitch": 61,
                "velocity": 80,
                "duration": 0.06590909090908781,
                "tempo": 120.0
            },
            {
                "start_time": 53.18863636363636,
                "end_time": 53.252272727272725,
                "pitch": 71,
                "velocity": 80,
                "duration": 0.0636363636363626,
                "tempo": 120.0
            },
            {
                "start_time": 53.27045454545454,
                "end_time": 53.336363636363636,
                "pitch": 68,
                "velocity": 80,
                "duration": 0.06590909090909491,
                "tempo": 120.0
            },
            {
                "start_time": 53.361363636363635,
                "end_time": 53.42045454545454,
                "pitch": 64,
                "velocity": 80,
                "duration": 0.059090909090905086,
                "tempo": 120.0
            },
            {
                "start_time": 53.43863636363636,
                "end_time": 53.502272727272725,
                "pitch": 61,
                "velocity": 80,
                "duration": 0.0636363636363626,
                "tempo": 120.0
            },
            {
                "start_time": 53.527272727272724,
                "end_time": 53.58863636363636,
                "pitch": 71,
                "velocity": 80,
                "duration": 0.0613636363636374,
                "tempo": 120.0
            },
            {
                "start_time": 53.60909090909091,
                "end_time": 53.675,
                "pitch": 68,
                "velocity": 80,
                "duration": 0.06590909090908781,
                "tempo": 120.0
            },
            {
                "start_time": 53.69772727272727,
                "end_time": 53.76136363636363,
                "pitch": 64,
                "velocity": 80,
                "duration": 0.0636363636363626,
                "tempo": 120.0
            },
            {
                "start_time": 53.78181818181818,
                "end_time": 53.84772727272727,
                "pitch": 61,
                "velocity": 80,
                "duration": 0.06590909090908781,
                "tempo": 120.0
            },
            {
                "start_time": 53.875,
                "end_time": 53.934090909090905,
                "pitch": 71,
                "velocity": 80,
                "duration": 0.059090909090905086,
                "tempo": 120.0
            },
            {
                "start_time": 53.95454545454545,
                "end_time": 54.02045454545454,
                "pitch": 68,
                "velocity": 80,
                "duration": 0.06590909090908781,
                "tempo": 120.0
            },
            {
                "start_time": 54.04545454545454,
                "end_time": 54.10681818181818,
                "pitch": 64,
                "velocity": 80,
                "duration": 0.0613636363636374,
                "tempo": 120.0
            },
            {
                "start_time": 54.125,
                "end_time": 54.19318181818181,
                "pitch": 61,
                "velocity": 80,
                "duration": 0.06818181818181301,
                "tempo": 120.0
            },
            {
                "start_time": 54.220454545454544,
                "end_time": 54.643181818181816,
                "pitch": 63,
                "velocity": 80,
                "duration": 0.42272727272727195,
                "tempo": 120.0
            },
            {
                "start_time": 54.71818181818182,
                "end_time": 55.14545454545454,
                "pitch": 60,
                "velocity": 80,
                "duration": 0.42727272727272236,
                "tempo": 120.0
            },
            {
                "start_time": 55.224999999999994,
                "end_time": 55.525,
                "pitch": 63,
                "velocity": 80,
                "duration": 0.30000000000000426,
                "tempo": 120.0
            },
            {
                "start_time": 55.570454545454545,
                "end_time": 56.002272727272725,
                "pitch": 65,
                "velocity": 80,
                "duration": 0.4318181818181799,
                "tempo": 120.0
            },
            {
                "start_time": 56.07727272727273,
                "end_time": 56.50454545454545,
                "pitch": 62,
                "velocity": 80,
                "duration": 0.42727272727272236,
                "tempo": 120.0
            },
            {
                "start_time": 56.584090909090904,
                "end_time": 56.88409090909091,
                "pitch": 65,
                "velocity": 80,
                "duration": 0.30000000000000426,
                "tempo": 120.0
            },
            {
                "start_time": 56.929545454545455,
                "end_time": 57.35681818181818,
                "pitch": 66,
                "velocity": 80,
                "duration": 0.42727272727272236,
                "tempo": 120.0
            },
            {
                "start_time": 57.429545454545455,
                "end_time": 57.85909090909091,
                "pitch": 63,
                "velocity": 80,
                "duration": 0.4295454545454547,
                "tempo": 120.0
            },
            {
                "start_time": 57.94090909090909,
                "end_time": 58.23409090909091,
                "pitch": 66,
                "velocity": 80,
                "duration": 0.29318181818182154,
                "tempo": 120.0
            },
            {
                "start_time": 58.27272727272727,
                "end_time": 58.434090909090905,
                "pitch": 66,
                "velocity": 4,
                "duration": 0.1613636363636317,
                "tempo": 120.0
            },
            {
                "start_time": 58.434090909090905,
                "end_time": 58.574999999999996,
                "pitch": 60,
                "velocity": 4,
                "duration": 0.14090909090909065,
                "tempo": 120.0
            },
            {
                "start_time": 58.43636363636363,
                "end_time": 58.574999999999996,
                "pitch": 60,
                "velocity": 80,
                "duration": 0.13863636363636545,
                "tempo": 120.0
            },
            {
                "start_time": 58.595454545454544,
                "end_time": 58.75,
                "pitch": 61,
                "velocity": 80,
                "duration": 0.1545454545454561,
                "tempo": 120.0
            },
            {
                "start_time": 58.777272727272724,
                "end_time": 58.92727272727272,
                "pitch": 63,
                "velocity": 80,
                "duration": 0.14999999999999858,
                "tempo": 120.0
            },
            {
                "start_time": 58.95227272727272,
                "end_time": 59.095454545454544,
                "pitch": 65,
                "velocity": 80,
                "duration": 0.14318181818182296,
                "tempo": 120.0
            },
            {
                "start_time": 59.11818181818182,
                "end_time": 59.26363636363636,
                "pitch": 66,
                "velocity": 80,
                "duration": 0.14545454545454106,
                "tempo": 120.0
            },
            {
                "start_time": 59.29090909090909,
                "end_time": 59.43636363636363,
                "pitch": 68,
                "velocity": 80,
                "duration": 0.14545454545454106,
                "tempo": 120.0
            },
            {
                "start_time": 59.461363636363636,
                "end_time": 59.60909090909091,
                "pitch": 70,
                "velocity": 80,
                "duration": 0.14772727272727337,
                "tempo": 120.0
            },
            {
                "start_time": 59.627272727272725,
                "end_time": 59.80681818181818,
                "pitch": 70,
                "velocity": 4,
                "duration": 0.17954545454545467,
                "tempo": 120.0
            },
            {
                "start_time": 59.809090909090905,
                "end_time": 59.95227272727272,
                "pitch": 69,
                "velocity": 80,
                "duration": 0.14318181818181586,
                "tempo": 120.0
            },
            {
                "start_time": 59.98181818181818,
                "end_time": 60.12272727272727,
                "pitch": 69,
                "velocity": 80,
                "duration": 0.14090909090909065,
                "tempo": 120.0
            },
            {
                "start_time": 60.14090909090909,
                "end_time": 60.31590909090909,
                "pitch": 69,
                "velocity": 4,
                "duration": 0.17499999999999716,
                "tempo": 120.0
            },
            {
                "start_time": 60.31590909090909,
                "end_time": 60.45681818181818,
                "pitch": 69,
                "velocity": 80,
                "duration": 0.14090909090909065,
                "tempo": 120.0
            },
            {
                "start_time": 60.47727272727273,
                "end_time": 60.65,
                "pitch": 69,
                "velocity": 4,
                "duration": 0.17272727272727195,
                "tempo": 120.0
            },
            {
                "start_time": 60.65,
                "end_time": 60.788636363636364,
                "pitch": 69,
                "velocity": 80,
                "duration": 0.13863636363636545,
                "tempo": 120.0
            },
            {
                "start_time": 60.81590909090909,
                "end_time": 60.949999999999996,
                "pitch": 69,
                "velocity": 80,
                "duration": 0.13409090909090793,
                "tempo": 120.0
            },
            {
                "start_time": 60.970454545454544,
                "end_time": 62.31363636363636,
                "pitch": 69,
                "velocity": 4,
                "duration": 1.3431818181818187,
                "tempo": 120.0
            }
        ]
    }
}