{
    "track_id": "05 Setting",
    "mood": "happy",
    "instruments": {
        "French Horn": [
            {
                "start_time": 0.6,
                "end_time": 1.1931818181818181,
                "pitch": 74,
                "velocity": 127,
                "duration": 0.5931818181818181,
                "tempo": 120.0
            },
            {
                "start_time": 1.1931818181818181,
                "end_time": 1.7636363636363634,
                "pitch": 72,
                "velocity": 127,
                "duration": 0.5704545454545453,
                "tempo": 120.0
            },
            {
                "start_time": 1.7636363636363634,
                "end_time": 2.334090909090909,
                "pitch": 67,
                "velocity": 127,
                "duration": 0.5704545454545455,
                "tempo": 120.0
            },
            {
                "start_time": 2.334090909090909,
                "end_time": 2.9386363636363635,
                "pitch": 70,
                "velocity": 127,
                "duration": 0.6045454545454545,
                "tempo": 120.0
            },
            {
                "start_time": 2.9386363636363635,
                "end_time": 4.277272727272727,
                "pitch": 69,
                "velocity": 127,
                "duration": 1.3386363636363638,
                "tempo": 120.0
            },
            {
                "start_time": 4.277272727272727,
                "end_time": 5.884090909090909,
                "pitch": 65,
                "velocity": 127,
                "duration": 1.6068181818181815,
                "tempo": 120.0
            },
            {
                "start_time": 5.884090909090909,
                "end_time": 6.045454545454545,
                "pitch": 69,
                "velocity": 127,
                "duration": 0.16136363636363615,
                "tempo": 120.0
            },
            {
                "start_time": 6.045454545454545,
                "end_time": 6.245454545454545,
                "pitch": 67,
                "velocity": 127,
                "duration": 0.20000000000000018,
                "tempo": 120.0
            },
            {
                "start_time": 6.245454545454545,
                "end_time": 6.8181818181818175,
                "pitch": 67,
                "velocity": 127,
                "duration": 0.5727272727272723,
                "tempo": 120.0
            },
            {
                "start_time": 6.8181818181818175,
                "end_time": 7.422727272727272,
                "pitch": 64,
                "velocity": 127,
                "duration": 0.6045454545454545,
                "tempo": 120.0
            },
            {
                "start_time": 7.422727272727272,
                "end_time": 8.018181818181818,
                "pitch": 60,
                "velocity": 127,
                "duration": 0.5954545454545457,
                "tempo": 120.0
            },
            {
                "start_time": 8.018181818181818,
                "end_time": 8.554545454545455,
                "pitch": 70,
                "velocity": 127,
                "duration": 0.536363636363637,
                "tempo": 120.0
            },
            {
                "start_time": 8.554545454545455,
                "end_time": 8.956818181818182,
                "pitch": 69,
                "velocity": 127,
                "duration": 0.40227272727272734,
                "tempo": 120.0
            },
            {
                "start_time": 8.956818181818182,
                "end_time": 9.159090909090908,
                "pitch": 67,
                "velocity": 127,
                "duration": 0.20227272727272627,
                "tempo": 120.0
            },
            {
                "start_time": 9.159090909090908,
                "end_time": 10.720454545454546,
                "pitch": 69,
                "velocity": 127,
                "duration": 1.5613636363636374,
                "tempo": 120.0
            },
            {
                "start_time": 10.720454545454546,
                "end_time": 12.472727272727273,
                "pitch": 64,
                "velocity": 127,
                "duration": 1.752272727272727,
                "tempo": 120.0
            },
            {
                "start_time": 12.472727272727273,
                "end_time": 13.045454545454545,
                "pitch": 69,
                "velocity": 127,
                "duration": 0.5727272727272723,
                "tempo": 120.0
            },
            {
                "start_time": 13.045454545454545,
                "end_time": 13.649999999999999,
                "pitch": 74,
                "velocity": 127,
                "duration": 0.6045454545454536,
                "tempo": 120.0
            },
            {
                "start_time": 13.659090909090908,
                "end_time": 14.252272727272727,
                "pitch": 72,
                "velocity": 127,
                "duration": 0.5931818181818187,
                "tempo": 120.0
            },
            {
                "start_time": 14.252272727272727,
                "end_time": 14.263636363636364,
                "pitch": 76,
                "velocity": 127,
                "duration": 0.011363636363636687,
                "tempo": 120.0
            },
            {
                "start_time": 14.263636363636364,
                "end_time": 14.795454545454545,
                "pitch": 76,
                "velocity": 127,
                "duration": 0.5318181818181813,
                "tempo": 120.0
            },
            {
                "start_time": 14.795454545454545,
                "end_time": 15.197727272727272,
                "pitch": 74,
                "velocity": 127,
                "duration": 0.40227272727272734,
                "tempo": 120.0
            },
            {
                "start_time": 15.197727272727272,
                "end_time": 16.95,
                "pitch": 76,
                "velocity": 127,
                "duration": 1.752272727272727,
                "tempo": 120.0
            },
            {
                "start_time": 16.95,
                "end_time": 18.33863636363636,
                "pitch": 72,
                "velocity": 127,
                "duration": 1.388636363636362,
                "tempo": 120.0
            },
            {
                "start_time": 18.33863636363636,
                "end_time": 18.709090909090907,
                "pitch": 76,
                "velocity": 127,
                "duration": 0.37045454545454604,
                "tempo": 120.0
            },
            {
                "start_time": 18.709090909090907,
                "end_time": 19.277272727272727,
                "pitch": 77,
                "velocity": 127,
                "duration": 0.5681818181818201,
                "tempo": 120.0
            },
            {
                "start_time": 19.277272727272727,
                "end_time": 19.88181818181818,
                "pitch": 76,
                "velocity": 127,
                "duration": 0.6045454545454518,
                "tempo": 120.0
            },
            {
                "start_time": 19.88181818181818,
                "end_time": 20.28181818181818,
                "pitch": 74,
                "velocity": 127,
                "duration": 0.40000000000000213,
                "tempo": 120.0
            },
            {
                "start_time": 20.28181818181818,
                "end_time": 20.84318181818182,
                "pitch": 79,
                "velocity": 127,
                "duration": 0.5613636363636374,
                "tempo": 120.0
            },
            {
                "start_time": 20.84318181818182,
                "end_time": 21.41590909090909,
                "pitch": 77,
                "velocity": 127,
                "duration": 0.5727272727272705,
                "tempo": 120.0
            },
            {
                "start_time": 21.41590909090909,
                "end_time": 21.80681818181818,
                "pitch": 76,
                "velocity": 127,
                "duration": 0.39090909090909065,
                "tempo": 120.0
            },
            {
                "start_time": 21.80681818181818,
                "end_time": 23.16590909090909,
                "pitch": 74,
                "velocity": 127,
                "duration": 1.3590909090909093,
                "tempo": 120.0
            },
            {
                "start_time": 23.16590909090909,
                "end_time": 24.927272727272726,
                "pitch": 73,
                "velocity": 127,
                "duration": 1.7613636363636367,
                "tempo": 120.0
            },
            {
                "start_time": 24.927272727272726,
                "end_time": 26.5,
                "pitch": 74,
                "velocity": 127,
                "duration": 1.572727272727274,
                "tempo": 120.0
            },
            {
                "start_time": 26.5,
                "end_time": 27.261363636363637,
                "pitch": 77,
                "velocity": 127,
                "duration": 0.7613636363636367,
                "tempo": 120.0
            },
            {
                "start_time": 27.261363636363637,
                "end_time": 28.034090909090907,
                "pitch": 81,
                "velocity": 127,
                "duration": 0.7727272727272698,
                "tempo": 120.0
            },
            {
                "start_time": 28.034090909090907,
                "end_time": 29.388636363636362,
                "pitch": 79,
                "velocity": 127,
                "duration": 1.3545454545454554,
                "tempo": 120.0
            },
            {
                "start_time": 29.388636363636362,
                "end_time": 30.77272727272727,
                "pitch": 76,
                "velocity": 127,
                "duration": 1.384090909090908,
                "tempo": 120.0
            },
            {
                "start_time": 30.77272727272727,
                "end_time": 30.972727272727273,
                "pitch": 74,
                "velocity": 127,
                "duration": 0.20000000000000284,
                "tempo": 120.0
            },
            {
                "start_time": 30.972727272727273,
                "end_time": 31.174999999999997,
                "pitch": 76,
                "velocity": 127,
                "duration": 0.2022727272727245,
                "tempo": 120.0
            },
            {
                "start_time": 31.174999999999997,
                "end_time": 31.729545454545452,
                "pitch": 77,
                "velocity": 127,
                "duration": 0.5545454545454547,
                "tempo": 120.0
            },
            {
                "start_time": 31.729545454545452,
                "end_time": 32.31818181818182,
                "pitch": 76,
                "velocity": 127,
                "duration": 0.5886363636363683,
                "tempo": 120.0
            },
            {
                "start_time": 32.31818181818182,
                "end_time": 32.71818181818182,
                "pitch": 74,
                "velocity": 127,
                "duration": 0.3999999999999986,
                "tempo": 120.0
            },
            {
                "start_time": 32.71818181818182,
                "end_time": 33.31818181818181,
                "pitch": 79,
                "velocity": 127,
                "duration": 0.5999999999999943,
                "tempo": 120.0
            },
            {
                "start_time": 33.31818181818181,
                "end_time": 33.85681818181818,
                "pitch": 77,
                "velocity": 127,
                "duration": 0.538636363636364,
                "tempo": 120.0
            },
            {
                "start_time": 33.85681818181818,
                "end_time": 34.25681818181818,
                "pitch": 76,
                "velocity": 127,
                "duration": 0.4000000000000057,
                "tempo": 120.0
            },
            {
                "start_time": 34.25681818181818,
                "end_time": 35.61818181818182,
                "pitch": 74,
                "velocity": 127,
                "duration": 1.3613636363636346,
                "tempo": 120.0
            },
            {
                "start_time": 35.61818181818182,
                "end_time": 37.38181818181818,
                "pitch": 73,
                "velocity": 127,
                "duration": 1.7636363636363654,
                "tempo": 120.0
            },
            {
                "start_time": 37.38181818181818,
                "end_time": 38.324999999999996,
                "pitch": 81,
                "velocity": 127,
                "duration": 0.943181818181813,
                "tempo": 120.0
            },
            {
                "start_time": 38.324999999999996,
                "end_time": 38.525,
                "pitch": 81,
                "velocity": 127,
                "duration": 0.20000000000000284,
                "tempo": 120.0
            },
            {
                "start_time": 38.525,
                "end_time": 38.725,
                "pitch": 79,
                "velocity": 127,
                "duration": 0.20000000000000284,
                "tempo": 120.0
            },
            {
                "start_time": 38.725,
                "end_time": 39.69772727272727,
                "pitch": 77,
                "velocity": 127,
                "duration": 0.9727272727272691,
                "tempo": 120.0
            },
            {
                "start_time": 39.69772727272727,
                "end_time": 39.93863636363636,
                "pitch": 77,
                "velocity": 127,
                "duration": 0.24090909090909207,
                "tempo": 120.0
            },
            {
                "start_time": 39.93863636363636,
                "end_time": 40.19772727272727,
                "pitch": 79,
                "velocity": 127,
                "duration": 0.25909090909090793,
                "tempo": 120.0
            },
            {
                "start_time": 40.19772727272727,
                "end_time": 40.46818181818182,
                "pitch": 81,
                "velocity": 127,
                "duration": 0.27045454545454817,
                "tempo": 120.0
            },
            {
                "start_time": 40.46818181818182,
                "end_time": 41.82954545454545,
                "pitch": 76,
                "velocity": 127,
                "duration": 1.3613636363636346,
                "tempo": 120.0
            },
            {
                "start_time": 41.82954545454545,
                "end_time": 43.20227272727273,
                "pitch": 72,
                "velocity": 127,
                "duration": 1.3727272727272748,
                "tempo": 120.0
            },
            {
                "start_time": 43.20227272727273,
                "end_time": 43.402272727272724,
                "pitch": 74,
                "velocity": 127,
                "duration": 0.19999999999999574,
                "tempo": 120.0
            },
            {
                "start_time": 43.402272727272724,
                "end_time": 43.60227272727273,
                "pitch": 76,
                "velocity": 127,
                "duration": 0.20000000000000284,
                "tempo": 120.0
            },
            {
                "start_time": 43.60227272727273,
                "end_time": 44.15,
                "pitch": 77,
                "velocity": 127,
                "duration": 0.547727272727272,
                "tempo": 120.0
            },
            {
                "start_time": 44.15,
                "end_time": 44.736363636363635,
                "pitch": 76,
                "velocity": 127,
                "duration": 0.586363636363636,
                "tempo": 120.0
            },
            {
                "start_time": 44.736363636363635,
                "end_time": 45.13863636363636,
                "pitch": 74,
                "velocity": 127,
                "duration": 0.4022727272727238,
                "tempo": 120.0
            },
            {
                "start_time": 45.13863636363636,
                "end_time": 45.73863636363636,
                "pitch": 82,
                "velocity": 127,
                "duration": 0.6000000000000014,
                "tempo": 120.0
            },
            {
                "start_time": 45.73863636363636,
                "end_time": 46.309090909090905,
                "pitch": 81,
                "velocity": 127,
                "duration": 0.5704545454545453,
                "tempo": 120.0
            },
            {
                "start_time": 46.309090909090905,
                "end_time": 46.679545454545455,
                "pitch": 79,
                "velocity": 127,
                "duration": 0.3704545454545496,
                "tempo": 120.0
            },
            {
                "start_time": 46.679545454545455,
                "end_time": 48.07954545454545,
                "pitch": 81,
                "velocity": 127,
                "duration": 1.3999999999999986,
                "tempo": 120.0
            },
            {
                "start_time": 48.07954545454545,
                "end_time": 49.820454545454545,
                "pitch": 76,
                "velocity": 127,
                "duration": 1.740909090909092,
                "tempo": 120.0
            },
            {
                "start_time": 49.820454545454545,
                "end_time": 50.18181818181818,
                "pitch": 69,
                "velocity": 127,
                "duration": 0.36136363636363455,
                "tempo": 120.0
            }
        ],
        "Harpsichord": [
            {
                "start_time": 0.39999999999999997,
                "end_time": 0.7999999999999999,
                "pitch": 60,
                "velocity": 101,
                "duration": 0.39999999999999997,
                "tempo": 120.0
            },
            {
                "start_time": 0.7999999999999999,
                "end_time": 0.9954545454545454,
                "pitch": 60,
                "velocity": 101,
                "duration": 0.19545454545454544,
                "tempo": 120.0
            },
            {
                "start_time": 0.9954545454545454,
                "end_time": 1.393181818181818,
                "pitch": 62,
                "velocity": 101,
                "duration": 0.3977272727272727,
                "tempo": 120.0
            },
            {
                "start_time": 1.393181818181818,
                "end_time": 1.7636363636363634,
                "pitch": 62,
                "velocity": 101,
                "duration": 0.37045454545454537,
                "tempo": 120.0
            },
            {
                "start_time": 1.7636363636363634,
                "end_time": 1.9636363636363636,
                "pitch": 62,
                "velocity": 101,
                "duration": 0.20000000000000018,
                "tempo": 120.0
            },
            {
                "start_time": 1.9636363636363636,
                "end_time": 2.334090909090909,
                "pitch": 60,
                "velocity": 101,
                "duration": 0.37045454545454537,
                "tempo": 120.0
            },
            {
                "start_time": 2.334090909090909,
                "end_time": 2.536363636363636,
                "pitch": 60,
                "velocity": 101,
                "duration": 0.20227272727272716,
                "tempo": 120.0
            },
            {
                "start_time": 2.536363636363636,
                "end_time": 2.9386363636363635,
                "pitch": 62,
                "velocity": 101,
                "duration": 0.40227272727272734,
                "tempo": 120.0
            },
            {
                "start_time": 2.9386363636363635,
                "end_time": 3.5386363636363636,
                "pitch": 64,
                "velocity": 101,
                "duration": 0.6000000000000001,
                "tempo": 120.0
            },
            {
                "start_time": 3.5386363636363636,
                "end_time": 3.9068181818181817,
                "pitch": 62,
                "velocity": 101,
                "duration": 0.36818181818181817,
                "tempo": 120.0
            },
            {
                "start_time": 3.9068181818181817,
                "end_time": 4.093181818181818,
                "pitch": 62,
                "velocity": 101,
                "duration": 0.18636363636363606,
                "tempo": 120.0
            },
            {
                "start_time": 4.093181818181818,
                "end_time": 4.477272727272727,
                "pitch": 64,
                "velocity": 101,
                "duration": 0.3840909090909088,
                "tempo": 120.0
            },
            {
                "start_time": 4.477272727272727,
                "end_time": 4.879545454545454,
                "pitch": 64,
                "velocity": 101,
                "duration": 0.40227272727272734,
                "tempo": 120.0
            },
            {
                "start_time": 4.879545454545454,
                "end_time": 5.081818181818182,
                "pitch": 64,
                "velocity": 101,
                "duration": 0.20227272727272805,
                "tempo": 120.0
            },
            {
                "start_time": 5.081818181818182,
                "end_time": 5.4818181818181815,
                "pitch": 62,
                "velocity": 101,
                "duration": 0.39999999999999947,
                "tempo": 120.0
            },
            {
                "start_time": 5.4818181818181815,
                "end_time": 5.681818181818182,
                "pitch": 62,
                "velocity": 101,
                "duration": 0.20000000000000018,
                "tempo": 120.0
            },
            {
                "start_time": 5.681818181818182,
                "end_time": 6.045454545454545,
                "pitch": 64,
                "velocity": 101,
                "duration": 0.3636363636363633,
                "tempo": 120.0
            },
            {
                "start_time": 6.045454545454545,
                "end_time": 6.61590909090909,
                "pitch": 62,
                "velocity": 101,
                "duration": 0.5704545454545453,
                "tempo": 120.0
            },
            {
                "start_time": 6.61590909090909,
                "end_time": 7.018181818181818,
                "pitch": 60,
                "velocity": 101,
                "duration": 0.40227272727272734,
                "tempo": 120.0
            },
            {
                "start_time": 7.018181818181818,
                "end_time": 7.220454545454545,
                "pitch": 60,
                "velocity": 101,
                "duration": 0.20227272727272716,
                "tempo": 120.0
            },
            {
                "start_time": 7.220454545454545,
                "end_time": 7.622727272727272,
                "pitch": 62,
                "velocity": 101,
                "duration": 0.40227272727272734,
                "tempo": 120.0
            },
            {
                "start_time": 7.622727272727272,
                "end_time": 8.027272727272727,
                "pitch": 62,
                "velocity": 101,
                "duration": 0.4045454545454552,
                "tempo": 120.0
            },
            {
                "start_time": 8.027272727272727,
                "end_time": 8.184090909090909,
                "pitch": 62,
                "velocity": 101,
                "duration": 0.1568181818181813,
                "tempo": 120.0
            },
            {
                "start_time": 8.184090909090909,
                "end_time": 8.554545454545455,
                "pitch": 60,
                "velocity": 101,
                "duration": 0.37045454545454604,
                "tempo": 120.0
            },
            {
                "start_time": 8.554545454545455,
                "end_time": 8.756818181818181,
                "pitch": 60,
                "velocity": 101,
                "duration": 0.20227272727272627,
                "tempo": 120.0
            },
            {
                "start_time": 8.756818181818181,
                "end_time": 9.159090909090908,
                "pitch": 62,
                "velocity": 101,
                "duration": 0.40227272727272734,
                "tempo": 120.0
            },
            {
                "start_time": 9.35909090909091,
                "end_time": 9.561363636363636,
                "pitch": 64,
                "velocity": 101,
                "duration": 0.20227272727272627,
                "tempo": 120.0
            },
            {
                "start_time": 9.561363636363636,
                "end_time": 9.763636363636364,
                "pitch": 64,
                "velocity": 101,
                "duration": 0.20227272727272805,
                "tempo": 120.0
            },
            {
                "start_time": 9.963636363636363,
                "end_time": 10.163636363636364,
                "pitch": 64,
                "velocity": 101,
                "duration": 0.20000000000000107,
                "tempo": 120.0
            },
            {
                "start_time": 10.163636363636364,
                "end_time": 10.334090909090909,
                "pitch": 64,
                "velocity": 101,
                "duration": 0.17045454545454497,
                "tempo": 120.0
            },
            {
                "start_time": 10.536363636363635,
                "end_time": 10.720454545454546,
                "pitch": 64,
                "velocity": 101,
                "duration": 0.18409090909091042,
                "tempo": 120.0
            },
            {
                "start_time": 10.720454545454546,
                "end_time": 10.906818181818181,
                "pitch": 64,
                "velocity": 101,
                "duration": 0.18636363636363562,
                "tempo": 120.0
            },
            {
                "start_time": 11.10681818181818,
                "end_time": 11.306818181818182,
                "pitch": 64,
                "velocity": 101,
                "duration": 0.20000000000000107,
                "tempo": 120.0
            },
            {
                "start_time": 11.306818181818182,
                "end_time": 11.506818181818181,
                "pitch": 64,
                "velocity": 101,
                "duration": 0.1999999999999993,
                "tempo": 120.0
            },
            {
                "start_time": 11.709090909090909,
                "end_time": 11.909090909090908,
                "pitch": 70,
                "velocity": 101,
                "duration": 0.1999999999999993,
                "tempo": 120.0
            },
            {
                "start_time": 11.909090909090908,
                "end_time": 12.111363636363636,
                "pitch": 69,
                "velocity": 101,
                "duration": 0.20227272727272805,
                "tempo": 120.0
            },
            {
                "start_time": 12.111363636363636,
                "end_time": 12.281818181818181,
                "pitch": 67,
                "velocity": 101,
                "duration": 0.17045454545454497,
                "tempo": 120.0
            },
            {
                "start_time": 12.281818181818181,
                "end_time": 12.48409090909091,
                "pitch": 64,
                "velocity": 101,
                "duration": 0.20227272727272805,
                "tempo": 120.0
            },
            {
                "start_time": 12.48409090909091,
                "end_time": 12.854545454545454,
                "pitch": 62,
                "velocity": 101,
                "duration": 0.37045454545454426,
                "tempo": 120.0
            },
            {
                "start_time": 12.854545454545454,
                "end_time": 13.256818181818181,
                "pitch": 60,
                "velocity": 101,
                "duration": 0.40227272727272734,
                "tempo": 120.0
            },
            {
                "start_time": 13.256818181818181,
                "end_time": 13.456818181818182,
                "pitch": 60,
                "velocity": 101,
                "duration": 0.20000000000000107,
                "tempo": 120.0
            },
            {
                "start_time": 13.456818181818182,
                "end_time": 13.861363636363636,
                "pitch": 62,
                "velocity": 101,
                "duration": 0.4045454545454543,
                "tempo": 120.0
            },
            {
                "start_time": 13.861363636363636,
                "end_time": 14.263636363636364,
                "pitch": 62,
                "velocity": 101,
                "duration": 0.40227272727272734,
                "tempo": 120.0
            },
            {
                "start_time": 14.263636363636364,
                "end_time": 14.424999999999999,
                "pitch": 62,
                "velocity": 101,
                "duration": 0.16136363636363527,
                "tempo": 120.0
            },
            {
                "start_time": 14.424999999999999,
                "end_time": 14.795454545454545,
                "pitch": 60,
                "velocity": 101,
                "duration": 0.37045454545454604,
                "tempo": 120.0
            },
            {
                "start_time": 14.795454545454545,
                "end_time": 14.995454545454544,
                "pitch": 60,
                "velocity": 101,
                "duration": 0.1999999999999993,
                "tempo": 120.0
            },
            {
                "start_time": 14.995454545454544,
                "end_time": 15.393181818181818,
                "pitch": 62,
                "velocity": 101,
                "duration": 0.3977272727272734,
                "tempo": 120.0
            },
            {
                "start_time": 15.393181818181818,
                "end_time": 15.993181818181817,
                "pitch": 65,
                "velocity": 101,
                "duration": 0.5999999999999996,
                "tempo": 120.0
            },
            {
                "start_time": 15.993181818181817,
                "end_time": 16.395454545454545,
                "pitch": 64,
                "velocity": 101,
                "duration": 0.40227272727272734,
                "tempo": 120.0
            },
            {
                "start_time": 16.395454545454545,
                "end_time": 16.56590909090909,
                "pitch": 64,
                "velocity": 101,
                "duration": 0.17045454545454675,
                "tempo": 120.0
            },
            {
                "start_time": 16.56590909090909,
                "end_time": 16.95,
                "pitch": 65,
                "velocity": 101,
                "duration": 0.38409090909090793,
                "tempo": 120.0
            },
            {
                "start_time": 16.95,
                "end_time": 17.336363636363636,
                "pitch": 65,
                "velocity": 101,
                "duration": 0.3863636363636367,
                "tempo": 120.0
            },
            {
                "start_time": 17.336363636363636,
                "end_time": 17.536363636363635,
                "pitch": 65,
                "velocity": 101,
                "duration": 0.1999999999999993,
                "tempo": 120.0
            },
            {
                "start_time": 17.536363636363635,
                "end_time": 17.936363636363634,
                "pitch": 64,
                "velocity": 101,
                "duration": 0.3999999999999986,
                "tempo": 120.0
            },
            {
                "start_time": 17.936363636363634,
                "end_time": 18.136363636363637,
                "pitch": 64,
                "velocity": 101,
                "duration": 0.20000000000000284,
                "tempo": 120.0
            },
            {
                "start_time": 18.136363636363637,
                "end_time": 18.538636363636364,
                "pitch": 65,
                "velocity": 101,
                "duration": 0.40227272727272734,
                "tempo": 120.0
            },
            {
                "start_time": 18.538636363636364,
                "end_time": 19.077272727272728,
                "pitch": 64,
                "velocity": 101,
                "duration": 0.538636363636364,
                "tempo": 120.0
            },
            {
                "start_time": 19.077272727272728,
                "end_time": 19.477272727272727,
                "pitch": 62,
                "velocity": 101,
                "duration": 0.3999999999999986,
                "tempo": 120.0
            },
            {
                "start_time": 19.477272727272727,
                "end_time": 19.679545454545455,
                "pitch": 62,
                "velocity": 101,
                "duration": 0.20227272727272805,
                "tempo": 120.0
            },
            {
                "start_time": 19.679545454545455,
                "end_time": 20.081818181818182,
                "pitch": 64,
                "velocity": 101,
                "duration": 0.40227272727272734,
                "tempo": 120.0
            },
            {
                "start_time": 20.081818181818182,
                "end_time": 20.48181818181818,
                "pitch": 64,
                "velocity": 101,
                "duration": 0.3999999999999986,
                "tempo": 120.0
            },
            {
                "start_time": 20.48181818181818,
                "end_time": 20.68409090909091,
                "pitch": 64,
                "velocity": 101,
                "duration": 0.20227272727272805,
                "tempo": 120.0
            },
            {
                "start_time": 20.68409090909091,
                "end_time": 21.043181818181818,
                "pitch": 62,
                "velocity": 101,
                "duration": 0.35909090909090935,
                "tempo": 120.0
            },
            {
                "start_time": 21.043181818181818,
                "end_time": 21.229545454545452,
                "pitch": 62,
                "velocity": 101,
                "duration": 0.18636363636363384,
                "tempo": 120.0
            },
            {
                "start_time": 21.229545454545452,
                "end_time": 21.611363636363635,
                "pitch": 64,
                "velocity": 101,
                "duration": 0.3818181818181827,
                "tempo": 120.0
            },
            {
                "start_time": 21.80681818181818,
                "end_time": 22.00681818181818,
                "pitch": 65,
                "velocity": 101,
                "duration": 0.1999999999999993,
                "tempo": 120.0
            },
            {
                "start_time": 22.00681818181818,
                "end_time": 22.206818181818182,
                "pitch": 64,
                "velocity": 101,
                "duration": 0.20000000000000284,
                "tempo": 120.0
            },
            {
                "start_time": 22.206818181818182,
                "end_time": 22.411363636363635,
                "pitch": 62,
                "velocity": 101,
                "duration": 0.20454545454545325,
                "tempo": 120.0
            },
            {
                "start_time": 22.411363636363635,
                "end_time": 22.618181818181817,
                "pitch": 61,
                "velocity": 101,
                "duration": 0.206818181818182,
                "tempo": 120.0
            },
            {
                "start_time": 22.618181818181817,
                "end_time": 22.813636363636363,
                "pitch": 58,
                "velocity": 101,
                "duration": 0.19545454545454533,
                "tempo": 120.0
            },
            {
                "start_time": 22.813636363636363,
                "end_time": 22.979545454545452,
                "pitch": 57,
                "velocity": 101,
                "duration": 0.16590909090908923,
                "tempo": 120.0
            },
            {
                "start_time": 22.979545454545452,
                "end_time": 23.16590909090909,
                "pitch": 55,
                "velocity": 101,
                "duration": 0.1863636363636374,
                "tempo": 120.0
            },
            {
                "start_time": 23.16590909090909,
                "end_time": 23.349999999999998,
                "pitch": 52,
                "velocity": 101,
                "duration": 0.18409090909090864,
                "tempo": 120.0
            },
            {
                "start_time": 23.349999999999998,
                "end_time": 23.552272727272726,
                "pitch": 65,
                "velocity": 101,
                "duration": 0.20227272727272805,
                "tempo": 120.0
            },
            {
                "start_time": 23.552272727272726,
                "end_time": 23.754545454545454,
                "pitch": 64,
                "velocity": 101,
                "duration": 0.20227272727272805,
                "tempo": 120.0
            },
            {
                "start_time": 23.754545454545454,
                "end_time": 23.954545454545453,
                "pitch": 62,
                "velocity": 101,
                "duration": 0.1999999999999993,
                "tempo": 120.0
            },
            {
                "start_time": 23.954545454545453,
                "end_time": 24.154545454545453,
                "pitch": 61,
                "velocity": 101,
                "duration": 0.1999999999999993,
                "tempo": 120.0
            },
            {
                "start_time": 24.154545454545453,
                "end_time": 24.354545454545452,
                "pitch": 58,
                "velocity": 101,
                "duration": 0.1999999999999993,
                "tempo": 120.0
            },
            {
                "start_time": 24.354545454545452,
                "end_time": 24.55681818181818,
                "pitch": 57,
                "velocity": 101,
                "duration": 0.20227272727272805,
                "tempo": 120.0
            },
            {
                "start_time": 24.55681818181818,
                "end_time": 24.75681818181818,
                "pitch": 55,
                "velocity": 101,
                "duration": 0.1999999999999993,
                "tempo": 120.0
            },
            {
                "start_time": 24.75681818181818,
                "end_time": 24.927272727272726,
                "pitch": 52,
                "velocity": 101,
                "duration": 0.17045454545454675,
                "tempo": 120.0
            },
            {
                "start_time": 24.927272727272726,
                "end_time": 26.5,
                "pitch": 53,
                "velocity": 101,
                "duration": 1.572727272727274,
                "tempo": 120.0
            },
            {
                "start_time": 26.5,
                "end_time": 28.045454545454543,
                "pitch": 50,
                "velocity": 101,
                "duration": 1.5454545454545432,
                "tempo": 120.0
            },
            {
                "start_time": 28.045454545454543,
                "end_time": 29.568181818181817,
                "pitch": 52,
                "velocity": 101,
                "duration": 1.5227272727272734,
                "tempo": 120.0
            },
            {
                "start_time": 29.568181818181817,
                "end_time": 31.174999999999997,
                "pitch": 55,
                "velocity": 101,
                "duration": 1.6068181818181806,
                "tempo": 120.0
            },
            {
                "start_time": 31.174999999999997,
                "end_time": 32.71818181818182,
                "pitch": 57,
                "velocity": 101,
                "duration": 1.5431818181818215,
                "tempo": 120.0
            },
            {
                "start_time": 32.71818181818182,
                "end_time": 34.25681818181818,
                "pitch": 55,
                "velocity": 101,
                "duration": 1.538636363636364,
                "tempo": 120.0
            },
            {
                "start_time": 34.25681818181818,
                "end_time": 35.61818181818182,
                "pitch": 53,
                "velocity": 101,
                "duration": 1.3613636363636346,
                "tempo": 120.0
            },
            {
                "start_time": 35.61818181818182,
                "end_time": 37.38181818181818,
                "pitch": 52,
                "velocity": 101,
                "duration": 1.7636363636363654,
                "tempo": 120.0
            },
            {
                "start_time": 37.38181818181818,
                "end_time": 38.925,
                "pitch": 53,
                "velocity": 101,
                "duration": 1.5431818181818144,
                "tempo": 120.0
            },
            {
                "start_time": 38.925,
                "end_time": 39.88181818181818,
                "pitch": 57,
                "velocity": 101,
                "duration": 0.9568181818181856,
                "tempo": 120.0
            },
            {
                "start_time": 39.88181818181818,
                "end_time": 40.06818181818181,
                "pitch": 57,
                "velocity": 101,
                "duration": 0.1863636363636303,
                "tempo": 120.0
            },
            {
                "start_time": 40.06818181818181,
                "end_time": 40.268181818181816,
                "pitch": 55,
                "velocity": 101,
                "duration": 0.20000000000000284,
                "tempo": 120.0
            },
            {
                "start_time": 40.268181818181816,
                "end_time": 40.46818181818182,
                "pitch": 53,
                "velocity": 101,
                "duration": 0.20000000000000284,
                "tempo": 120.0
            },
            {
                "start_time": 40.46818181818182,
                "end_time": 42.02954545454545,
                "pitch": 48,
                "velocity": 101,
                "duration": 1.5613636363636303,
                "tempo": 120.0
            },
            {
                "start_time": 42.02954545454545,
                "end_time": 42.80227272727272,
                "pitch": 52,
                "velocity": 101,
                "duration": 0.7727272727272734,
                "tempo": 120.0
            },
            {
                "start_time": 42.80227272727272,
                "end_time": 43.61363636363636,
                "pitch": 55,
                "velocity": 101,
                "duration": 0.8113636363636374,
                "tempo": 120.0
            },
            {
                "start_time": 43.61363636363636,
                "end_time": 43.8,
                "pitch": 50,
                "velocity": 101,
                "duration": 0.1863636363636374,
                "tempo": 120.0
            },
            {
                "start_time": 43.8,
                "end_time": 43.965909090909086,
                "pitch": 50,
                "velocity": 101,
                "duration": 0.16590909090908923,
                "tempo": 120.0
            },
            {
                "start_time": 43.965909090909086,
                "end_time": 44.15,
                "pitch": 52,
                "velocity": 101,
                "duration": 0.1840909090909122,
                "tempo": 120.0
            },
            {
                "start_time": 44.15,
                "end_time": 44.336363636363636,
                "pitch": 52,
                "velocity": 101,
                "duration": 0.1863636363636374,
                "tempo": 120.0
            },
            {
                "start_time": 44.336363636363636,
                "end_time": 44.53636363636363,
                "pitch": 53,
                "velocity": 101,
                "duration": 0.19999999999999574,
                "tempo": 120.0
            },
            {
                "start_time": 44.53636363636363,
                "end_time": 44.736363636363635,
                "pitch": 53,
                "velocity": 101,
                "duration": 0.20000000000000284,
                "tempo": 120.0
            },
            {
                "start_time": 44.736363636363635,
                "end_time": 44.93636363636364,
                "pitch": 50,
                "velocity": 101,
                "duration": 0.20000000000000284,
                "tempo": 120.0
            },
            {
                "start_time": 44.93636363636364,
                "end_time": 45.13863636363636,
                "pitch": 50,
                "velocity": 101,
                "duration": 0.20227272727272094,
                "tempo": 120.0
            },
            {
                "start_time": 45.13863636363636,
                "end_time": 45.33863636363636,
                "pitch": 55,
                "velocity": 101,
                "duration": 0.20000000000000284,
                "tempo": 120.0
            },
            {
                "start_time": 45.33863636363636,
                "end_time": 45.538636363636364,
                "pitch": 55,
                "velocity": 101,
                "duration": 0.20000000000000284,
                "tempo": 120.0
            },
            {
                "start_time": 45.538636363636364,
                "end_time": 45.73863636363636,
                "pitch": 53,
                "velocity": 101,
                "duration": 0.19999999999999574,
                "tempo": 120.0
            },
            {
                "start_time": 45.73863636363636,
                "end_time": 45.93863636363636,
                "pitch": 53,
                "velocity": 101,
                "duration": 0.20000000000000284,
                "tempo": 120.0
            },
            {
                "start_time": 45.93863636363636,
                "end_time": 46.10909090909091,
                "pitch": 52,
                "velocity": 101,
                "duration": 0.17045454545454675,
                "tempo": 120.0
            },
            {
                "start_time": 46.10909090909091,
                "end_time": 46.309090909090905,
                "pitch": 52,
                "velocity": 101,
                "duration": 0.19999999999999574,
                "tempo": 120.0
            },
            {
                "start_time": 46.309090909090905,
                "end_time": 46.49318181818182,
                "pitch": 50,
                "velocity": 101,
                "duration": 0.1840909090909122,
                "tempo": 120.0
            },
            {
                "start_time": 46.49318181818182,
                "end_time": 46.679545454545455,
                "pitch": 50,
                "velocity": 101,
                "duration": 0.1863636363636374,
                "tempo": 120.0
            },
            {
                "start_time": 46.679545454545455,
                "end_time": 46.87954545454545,
                "pitch": 61,
                "velocity": 101,
                "duration": 0.19999999999999574,
                "tempo": 120.0
            },
            {
                "start_time": 46.87954545454545,
                "end_time": 47.07954545454545,
                "pitch": 58,
                "velocity": 101,
                "duration": 0.20000000000000284,
                "tempo": 120.0
            },
            {
                "start_time": 47.07954545454545,
                "end_time": 47.27954545454545,
                "pitch": 57,
                "velocity": 101,
                "duration": 0.19999999999999574,
                "tempo": 120.0
            },
            {
                "start_time": 47.27954545454545,
                "end_time": 47.47954545454545,
                "pitch": 64,
                "velocity": 101,
                "duration": 0.20000000000000284,
                "tempo": 120.0
            },
            {
                "start_time": 47.47954545454545,
                "end_time": 47.679545454545455,
                "pitch": 62,
                "velocity": 101,
                "duration": 0.20000000000000284,
                "tempo": 120.0
            },
            {
                "start_time": 47.679545454545455,
                "end_time": 47.87954545454545,
                "pitch": 61,
                "velocity": 101,
                "duration": 0.19999999999999574,
                "tempo": 120.0
            },
            {
                "start_time": 47.87954545454545,
                "end_time": 48.07954545454545,
                "pitch": 61,
                "velocity": 101,
                "duration": 0.20000000000000284,
                "tempo": 120.0
            },
            {
                "start_time": 48.07954545454545,
                "end_time": 48.25,
                "pitch": 58,
                "velocity": 101,
                "duration": 0.17045454545454675,
                "tempo": 120.0
            },
            {
                "start_time": 48.25,
                "end_time": 48.434090909090905,
                "pitch": 57,
                "velocity": 101,
                "duration": 0.18409090909090509,
                "tempo": 120.0
            },
            {
                "start_time": 48.434090909090905,
                "end_time": 48.62045454545454,
                "pitch": 64,
                "velocity": 101,
                "duration": 0.1863636363636374,
                "tempo": 120.0
            },
            {
                "start_time": 48.62045454545454,
                "end_time": 48.820454545454545,
                "pitch": 62,
                "velocity": 101,
                "duration": 0.20000000000000284,
                "tempo": 120.0
            },
            {
                "start_time": 48.820454545454545,
                "end_time": 49.02045454545454,
                "pitch": 61,
                "velocity": 101,
                "duration": 0.19999999999999574,
                "tempo": 120.0
            },
            {
                "start_time": 49.02045454545454,
                "end_time": 49.220454545454544,
                "pitch": 67,
                "velocity": 101,
                "duration": 0.20000000000000284,
                "tempo": 120.0
            },
            {
                "start_time": 49.220454545454544,
                "end_time": 49.42045454545454,
                "pitch": 65,
                "velocity": 101,
                "duration": 0.19999999999999574,
                "tempo": 120.0
            },
            {
                "start_time": 49.42045454545454,
                "end_time": 49.62045454545454,
                "pitch": 64,
                "velocity": 101,
                "duration": 0.20000000000000284,
                "tempo": 120.0
            },
            {
                "start_time": 49.62045454545454,
                "end_time": 49.820454545454545,
                "pitch": 61,
                "velocity": 101,
                "duration": 0.20000000000000284,
                "tempo": 120.0
            },
            {
                "start_time": 49.820454545454545,
                "end_time": 50.18181818181818,
                "pitch": 62,
                "velocity": 101,
                "duration": 0.36136363636363455,
                "tempo": 120.0
            }
        ],
        "Synth Bass 1": [
            {
                "start_time": 0.19999999999999998,
                "end_time": 0.39999999999999997,
                "pitch": 50,
                "velocity": 101,
                "duration": 0.19999999999999998,
                "tempo": 120.0
            },
            {
                "start_time": 0.39999999999999997,
                "end_time": 0.6,
                "pitch": 50,
                "velocity": 101,
                "duration": 0.2,
                "tempo": 120.0
            },
            {
                "start_time": 0.6,
                "end_time": 0.7999999999999999,
                "pitch": 50,
                "velocity": 101,
                "duration": 0.19999999999999996,
                "tempo": 120.0
            },
            {
                "start_time": 0.7999999999999999,
                "end_time": 0.9954545454545454,
                "pitch": 50,
                "velocity": 101,
                "duration": 0.19545454545454544,
                "tempo": 120.0
            },
            {
                "start_time": 0.9954545454545454,
                "end_time": 1.1931818181818181,
                "pitch": 50,
                "velocity": 101,
                "duration": 0.19772727272727275,
                "tempo": 120.0
            },
            {
                "start_time": 1.1931818181818181,
                "end_time": 1.393181818181818,
                "pitch": 50,
                "velocity": 101,
                "duration": 0.19999999999999996,
                "tempo": 120.0
            },
            {
                "start_time": 1.393181818181818,
                "end_time": 1.593181818181818,
                "pitch": 50,
                "velocity": 101,
                "duration": 0.19999999999999996,
                "tempo": 120.0
            },
            {
                "start_time": 1.593181818181818,
                "end_time": 1.7636363636363634,
                "pitch": 50,
                "velocity": 101,
                "duration": 0.17045454545454541,
                "tempo": 120.0
            },
            {
                "start_time": 1.7636363636363634,
                "end_time": 1.9636363636363636,
                "pitch": 50,
                "velocity": 101,
                "duration": 0.20000000000000018,
                "tempo": 120.0
            },
            {
                "start_time": 1.9636363636363636,
                "end_time": 2.15,
                "pitch": 50,
                "velocity": 101,
                "duration": 0.1863636363636363,
                "tempo": 120.0
            },
            {
                "start_time": 2.15,
                "end_time": 2.334090909090909,
                "pitch": 50,
                "velocity": 101,
                "duration": 0.18409090909090908,
                "tempo": 120.0
            },
            {
                "start_time": 2.334090909090909,
                "end_time": 2.536363636363636,
                "pitch": 50,
                "velocity": 101,
                "duration": 0.20227272727272716,
                "tempo": 120.0
            },
            {
                "start_time": 2.536363636363636,
                "end_time": 2.7386363636363633,
                "pitch": 50,
                "velocity": 101,
                "duration": 0.20227272727272716,
                "tempo": 120.0
            },
            {
                "start_time": 2.7386363636363633,
                "end_time": 2.9386363636363635,
                "pitch": 48,
                "velocity": 101,
                "duration": 0.20000000000000018,
                "tempo": 120.0
            },
            {
                "start_time": 2.9386363636363635,
                "end_time": 3.1386363636363637,
                "pitch": 48,
                "velocity": 101,
                "duration": 0.20000000000000018,
                "tempo": 120.0
            },
            {
                "start_time": 3.1386363636363637,
                "end_time": 3.3386363636363634,
                "pitch": 46,
                "velocity": 101,
                "duration": 0.19999999999999973,
                "tempo": 120.0
            },
            {
                "start_time": 3.3386363636363634,
                "end_time": 3.5386363636363636,
                "pitch": 46,
                "velocity": 101,
                "duration": 0.20000000000000018,
                "tempo": 120.0
            },
            {
                "start_time": 3.5386363636363636,
                "end_time": 3.7386363636363633,
                "pitch": 46,
                "velocity": 101,
                "duration": 0.19999999999999973,
                "tempo": 120.0
            },
            {
                "start_time": 3.7386363636363633,
                "end_time": 3.9068181818181817,
                "pitch": 46,
                "velocity": 101,
                "duration": 0.16818181818181843,
                "tempo": 120.0
            },
            {
                "start_time": 3.9068181818181817,
                "end_time": 4.093181818181818,
                "pitch": 46,
                "velocity": 101,
                "duration": 0.18636363636363606,
                "tempo": 120.0
            },
            {
                "start_time": 4.093181818181818,
                "end_time": 4.277272727272727,
                "pitch": 46,
                "velocity": 101,
                "duration": 0.18409090909090953,
                "tempo": 120.0
            },
            {
                "start_time": 4.277272727272727,
                "end_time": 4.477272727272727,
                "pitch": 46,
                "velocity": 101,
                "duration": 0.1999999999999993,
                "tempo": 120.0
            },
            {
                "start_time": 4.477272727272727,
                "end_time": 4.677272727272727,
                "pitch": 46,
                "velocity": 101,
                "duration": 0.20000000000000018,
                "tempo": 120.0
            },
            {
                "start_time": 4.677272727272727,
                "end_time": 4.879545454545454,
                "pitch": 46,
                "velocity": 101,
                "duration": 0.20227272727272716,
                "tempo": 120.0
            },
            {
                "start_time": 4.879545454545454,
                "end_time": 5.081818181818182,
                "pitch": 46,
                "velocity": 101,
                "duration": 0.20227272727272805,
                "tempo": 120.0
            },
            {
                "start_time": 5.081818181818182,
                "end_time": 5.281818181818181,
                "pitch": 46,
                "velocity": 101,
                "duration": 0.1999999999999993,
                "tempo": 120.0
            },
            {
                "start_time": 5.281818181818181,
                "end_time": 5.4818181818181815,
                "pitch": 46,
                "velocity": 101,
                "duration": 0.20000000000000018,
                "tempo": 120.0
            },
            {
                "start_time": 5.4818181818181815,
                "end_time": 5.681818181818182,
                "pitch": 46,
                "velocity": 101,
                "duration": 0.20000000000000018,
                "tempo": 120.0
            },
            {
                "start_time": 5.681818181818182,
                "end_time": 5.884090909090909,
                "pitch": 46,
                "velocity": 101,
                "duration": 0.20227272727272716,
                "tempo": 120.0
            },
            {
                "start_time": 5.884090909090909,
                "end_time": 6.054545454545455,
                "pitch": 45,
                "velocity": 101,
                "duration": 0.17045454545454586,
                "tempo": 120.0
            },
            {
                "start_time": 6.054545454545455,
                "end_time": 6.245454545454545,
                "pitch": 45,
                "velocity": 101,
                "duration": 0.19090909090909047,
                "tempo": 120.0
            },
            {
                "start_time": 6.245454545454545,
                "end_time": 6.431818181818182,
                "pitch": 43,
                "velocity": 101,
                "duration": 0.1863636363636365,
                "tempo": 120.0
            },
            {
                "start_time": 6.431818181818182,
                "end_time": 6.61590909090909,
                "pitch": 43,
                "velocity": 101,
                "duration": 0.18409090909090864,
                "tempo": 120.0
            },
            {
                "start_time": 6.627272727272727,
                "end_time": 6.8181818181818175,
                "pitch": 43,
                "velocity": 101,
                "duration": 0.19090909090909047,
                "tempo": 120.0
            },
            {
                "start_time": 6.8181818181818175,
                "end_time": 7.029545454545454,
                "pitch": 43,
                "velocity": 101,
                "duration": 0.21136363636363686,
                "tempo": 120.0
            },
            {
                "start_time": 7.029545454545454,
                "end_time": 7.2295454545454545,
                "pitch": 43,
                "velocity": 101,
                "duration": 0.20000000000000018,
                "tempo": 120.0
            },
            {
                "start_time": 7.2295454545454545,
                "end_time": 7.422727272727272,
                "pitch": 43,
                "velocity": 101,
                "duration": 0.19318181818181746,
                "tempo": 120.0
            },
            {
                "start_time": 7.422727272727272,
                "end_time": 7.631818181818182,
                "pitch": 43,
                "velocity": 101,
                "duration": 0.20909090909090988,
                "tempo": 120.0
            },
            {
                "start_time": 7.631818181818182,
                "end_time": 7.822727272727272,
                "pitch": 43,
                "velocity": 101,
                "duration": 0.19090909090909047,
                "tempo": 120.0
            },
            {
                "start_time": 7.822727272727272,
                "end_time": 8.027272727272727,
                "pitch": 43,
                "velocity": 101,
                "duration": 0.20454545454545503,
                "tempo": 120.0
            },
            {
                "start_time": 8.027272727272727,
                "end_time": 8.184090909090909,
                "pitch": 43,
                "velocity": 101,
                "duration": 0.1568181818181813,
                "tempo": 120.0
            },
            {
                "start_time": 8.184090909090909,
                "end_time": 8.370454545454544,
                "pitch": 43,
                "velocity": 101,
                "duration": 0.18636363636363562,
                "tempo": 120.0
            },
            {
                "start_time": 8.370454545454544,
                "end_time": 8.554545454545455,
                "pitch": 43,
                "velocity": 101,
                "duration": 0.18409090909091042,
                "tempo": 120.0
            },
            {
                "start_time": 8.554545454545455,
                "end_time": 8.756818181818181,
                "pitch": 43,
                "velocity": 101,
                "duration": 0.20227272727272627,
                "tempo": 120.0
            },
            {
                "start_time": 8.756818181818181,
                "end_time": 8.956818181818182,
                "pitch": 43,
                "velocity": 101,
                "duration": 0.20000000000000107,
                "tempo": 120.0
            },
            {
                "start_time": 8.956818181818182,
                "end_time": 9.159090909090908,
                "pitch": 46,
                "velocity": 101,
                "duration": 0.20227272727272627,
                "tempo": 120.0
            },
            {
                "start_time": 9.159090909090908,
                "end_time": 9.35909090909091,
                "pitch": 46,
                "velocity": 101,
                "duration": 0.20000000000000107,
                "tempo": 120.0
            },
            {
                "start_time": 9.35909090909091,
                "end_time": 9.561363636363636,
                "pitch": 45,
                "velocity": 101,
                "duration": 0.20227272727272627,
                "tempo": 120.0
            },
            {
                "start_time": 9.561363636363636,
                "end_time": 9.763636363636364,
                "pitch": 45,
                "velocity": 101,
                "duration": 0.20227272727272805,
                "tempo": 120.0
            },
            {
                "start_time": 9.963636363636363,
                "end_time": 10.163636363636364,
                "pitch": 45,
                "velocity": 101,
                "duration": 0.20000000000000107,
                "tempo": 120.0
            },
            {
                "start_time": 10.163636363636364,
                "end_time": 10.334090909090909,
                "pitch": 45,
                "velocity": 101,
                "duration": 0.17045454545454497,
                "tempo": 120.0
            },
            {
                "start_time": 10.536363636363635,
                "end_time": 10.720454545454546,
                "pitch": 45,
                "velocity": 101,
                "duration": 0.18409090909091042,
                "tempo": 120.0
            },
            {
                "start_time": 10.720454545454546,
                "end_time": 10.906818181818181,
                "pitch": 45,
                "velocity": 101,
                "duration": 0.18636363636363562,
                "tempo": 120.0
            },
            {
                "start_time": 11.10681818181818,
                "end_time": 11.306818181818182,
                "pitch": 52,
                "velocity": 101,
                "duration": 0.20000000000000107,
                "tempo": 120.0
            },
            {
                "start_time": 11.506818181818181,
                "end_time": 11.709090909090909,
                "pitch": 52,
                "velocity": 101,
                "duration": 0.20227272727272805,
                "tempo": 120.0
            },
            {
                "start_time": 11.909090909090908,
                "end_time": 12.111363636363636,
                "pitch": 52,
                "velocity": 101,
                "duration": 0.20227272727272805,
                "tempo": 120.0
            },
            {
                "start_time": 12.111363636363636,
                "end_time": 12.48409090909091,
                "pitch": 55,
                "velocity": 101,
                "duration": 0.372727272727273,
                "tempo": 120.0
            },
            {
                "start_time": 12.48409090909091,
                "end_time": 12.659090909090908,
                "pitch": 50,
                "velocity": 101,
                "duration": 0.17499999999999893,
                "tempo": 120.0
            },
            {
                "start_time": 12.659090909090908,
                "end_time": 12.854545454545454,
                "pitch": 50,
                "velocity": 101,
                "duration": 0.19545454545454533,
                "tempo": 120.0
            },
            {
                "start_time": 12.854545454545454,
                "end_time": 13.054545454545455,
                "pitch": 50,
                "velocity": 101,
                "duration": 0.20000000000000107,
                "tempo": 120.0
            },
            {
                "start_time": 13.054545454545455,
                "end_time": 13.256818181818181,
                "pitch": 50,
                "velocity": 101,
                "duration": 0.20227272727272627,
                "tempo": 120.0
            },
            {
                "start_time": 13.256818181818181,
                "end_time": 13.456818181818182,
                "pitch": 50,
                "velocity": 101,
                "duration": 0.20000000000000107,
                "tempo": 120.0
            },
            {
                "start_time": 13.456818181818182,
                "end_time": 13.659090909090908,
                "pitch": 50,
                "velocity": 101,
                "duration": 0.20227272727272627,
                "tempo": 120.0
            },
            {
                "start_time": 13.659090909090908,
                "end_time": 13.861363636363636,
                "pitch": 50,
                "velocity": 101,
                "duration": 0.20227272727272805,
                "tempo": 120.0
            },
            {
                "start_time": 13.861363636363636,
                "end_time": 14.061363636363636,
                "pitch": 50,
                "velocity": 101,
                "duration": 0.1999999999999993,
                "tempo": 120.0
            },
            {
                "start_time": 14.061363636363636,
                "end_time": 14.263636363636364,
                "pitch": 50,
                "velocity": 101,
                "duration": 0.20227272727272805,
                "tempo": 120.0
            },
            {
                "start_time": 14.263636363636364,
                "end_time": 14.424999999999999,
                "pitch": 50,
                "velocity": 101,
                "duration": 0.16136363636363527,
                "tempo": 120.0
            },
            {
                "start_time": 14.424999999999999,
                "end_time": 14.611363636363636,
                "pitch": 50,
                "velocity": 101,
                "duration": 0.1863636363636374,
                "tempo": 120.0
            },
            {
                "start_time": 14.611363636363636,
                "end_time": 14.795454545454545,
                "pitch": 50,
                "velocity": 101,
                "duration": 0.18409090909090864,
                "tempo": 120.0
            },
            {
                "start_time": 14.795454545454545,
                "end_time": 14.995454545454544,
                "pitch": 50,
                "velocity": 101,
                "duration": 0.1999999999999993,
                "tempo": 120.0
            },
            {
                "start_time": 14.995454545454544,
                "end_time": 15.197727272727272,
                "pitch": 50,
                "velocity": 101,
                "duration": 0.20227272727272805,
                "tempo": 120.0
            },
            {
                "start_time": 15.197727272727272,
                "end_time": 15.393181818181818,
                "pitch": 45,
                "velocity": 101,
                "duration": 0.19545454545454533,
                "tempo": 120.0
            },
            {
                "start_time": 15.393181818181818,
                "end_time": 15.588636363636363,
                "pitch": 45,
                "velocity": 101,
                "duration": 0.19545454545454533,
                "tempo": 120.0
            },
            {
                "start_time": 15.588636363636363,
                "end_time": 15.790909090909091,
                "pitch": 48,
                "velocity": 101,
                "duration": 0.20227272727272805,
                "tempo": 120.0
            },
            {
                "start_time": 15.790909090909091,
                "end_time": 15.993181818181817,
                "pitch": 48,
                "velocity": 101,
                "duration": 0.20227272727272627,
                "tempo": 120.0
            },
            {
                "start_time": 15.993181818181817,
                "end_time": 16.193181818181817,
                "pitch": 48,
                "velocity": 101,
                "duration": 0.1999999999999993,
                "tempo": 120.0
            },
            {
                "start_time": 16.193181818181817,
                "end_time": 16.395454545454545,
                "pitch": 48,
                "velocity": 101,
                "duration": 0.20227272727272805,
                "tempo": 120.0
            },
            {
                "start_time": 16.395454545454545,
                "end_time": 16.56590909090909,
                "pitch": 48,
                "velocity": 101,
                "duration": 0.17045454545454675,
                "tempo": 120.0
            },
            {
                "start_time": 16.56590909090909,
                "end_time": 16.76590909090909,
                "pitch": 48,
                "velocity": 101,
                "duration": 0.1999999999999993,
                "tempo": 120.0
            },
            {
                "start_time": 16.76590909090909,
                "end_time": 16.95,
                "pitch": 48,
                "velocity": 101,
                "duration": 0.18409090909090864,
                "tempo": 120.0
            },
            {
                "start_time": 16.95,
                "end_time": 17.136363636363637,
                "pitch": 48,
                "velocity": 101,
                "duration": 0.1863636363636374,
                "tempo": 120.0
            },
            {
                "start_time": 17.136363636363637,
                "end_time": 17.336363636363636,
                "pitch": 48,
                "velocity": 101,
                "duration": 0.1999999999999993,
                "tempo": 120.0
            },
            {
                "start_time": 17.336363636363636,
                "end_time": 17.536363636363635,
                "pitch": 48,
                "velocity": 101,
                "duration": 0.1999999999999993,
                "tempo": 120.0
            },
            {
                "start_time": 17.536363636363635,
                "end_time": 17.736363636363635,
                "pitch": 48,
                "velocity": 101,
                "duration": 0.1999999999999993,
                "tempo": 120.0
            },
            {
                "start_time": 17.736363636363635,
                "end_time": 17.936363636363634,
                "pitch": 48,
                "velocity": 101,
                "duration": 0.1999999999999993,
                "tempo": 120.0
            },
            {
                "start_time": 17.936363636363634,
                "end_time": 18.136363636363637,
                "pitch": 48,
                "velocity": 101,
                "duration": 0.20000000000000284,
                "tempo": 120.0
            },
            {
                "start_time": 18.136363636363637,
                "end_time": 18.33863636363636,
                "pitch": 48,
                "velocity": 101,
                "duration": 0.2022727272727245,
                "tempo": 120.0
            },
            {
                "start_time": 18.33863636363636,
                "end_time": 18.538636363636364,
                "pitch": 46,
                "velocity": 101,
                "duration": 0.20000000000000284,
                "tempo": 120.0
            },
            {
                "start_time": 18.538636363636364,
                "end_time": 18.709090909090907,
                "pitch": 46,
                "velocity": 101,
                "duration": 0.1704545454545432,
                "tempo": 120.0
            },
            {
                "start_time": 18.709090909090907,
                "end_time": 18.893181818181816,
                "pitch": 43,
                "velocity": 101,
                "duration": 0.18409090909090864,
                "tempo": 120.0
            },
            {
                "start_time": 18.893181818181816,
                "end_time": 19.077272727272728,
                "pitch": 43,
                "velocity": 101,
                "duration": 0.1840909090909122,
                "tempo": 120.0
            },
            {
                "start_time": 19.077272727272728,
                "end_time": 19.277272727272727,
                "pitch": 43,
                "velocity": 101,
                "duration": 0.1999999999999993,
                "tempo": 120.0
            },
            {
                "start_time": 19.277272727272727,
                "end_time": 19.477272727272727,
                "pitch": 43,
                "velocity": 101,
                "duration": 0.1999999999999993,
                "tempo": 120.0
            },
            {
                "start_time": 19.477272727272727,
                "end_time": 19.679545454545455,
                "pitch": 43,
                "velocity": 101,
                "duration": 0.20227272727272805,
                "tempo": 120.0
            },
            {
                "start_time": 19.679545454545455,
                "end_time": 19.88181818181818,
                "pitch": 43,
                "velocity": 101,
                "duration": 0.2022727272727245,
                "tempo": 120.0
            },
            {
                "start_time": 19.88181818181818,
                "end_time": 20.081818181818182,
                "pitch": 43,
                "velocity": 101,
                "duration": 0.20000000000000284,
                "tempo": 120.0
            },
            {
                "start_time": 20.081818181818182,
                "end_time": 20.28181818181818,
                "pitch": 43,
                "velocity": 101,
                "duration": 0.1999999999999993,
                "tempo": 120.0
            },
            {
                "start_time": 20.28181818181818,
                "end_time": 20.48181818181818,
                "pitch": 43,
                "velocity": 101,
                "duration": 0.1999999999999993,
                "tempo": 120.0
            },
            {
                "start_time": 20.48181818181818,
                "end_time": 20.68409090909091,
                "pitch": 43,
                "velocity": 101,
                "duration": 0.20227272727272805,
                "tempo": 120.0
            },
            {
                "start_time": 20.68409090909091,
                "end_time": 20.84318181818182,
                "pitch": 43,
                "velocity": 101,
                "duration": 0.15909090909091006,
                "tempo": 120.0
            },
            {
                "start_time": 20.84318181818182,
                "end_time": 21.043181818181818,
                "pitch": 43,
                "velocity": 101,
                "duration": 0.1999999999999993,
                "tempo": 120.0
            },
            {
                "start_time": 21.043181818181818,
                "end_time": 21.229545454545452,
                "pitch": 43,
                "velocity": 101,
                "duration": 0.18636363636363384,
                "tempo": 120.0
            },
            {
                "start_time": 21.229545454545452,
                "end_time": 21.41590909090909,
                "pitch": 43,
                "velocity": 101,
                "duration": 0.1863636363636374,
                "tempo": 120.0
            },
            {
                "start_time": 21.41590909090909,
                "end_time": 21.611363636363635,
                "pitch": 46,
                "velocity": 101,
                "duration": 0.19545454545454533,
                "tempo": 120.0
            },
            {
                "start_time": 21.611363636363635,
                "end_time": 21.81590909090909,
                "pitch": 46,
                "velocity": 101,
                "duration": 0.2045454545454568,
                "tempo": 120.0
            },
            {
                "start_time": 21.81590909090909,
                "end_time": 22.00681818181818,
                "pitch": 45,
                "velocity": 101,
                "duration": 0.1909090909090878,
                "tempo": 120.0
            },
            {
                "start_time": 22.00681818181818,
                "end_time": 22.206818181818182,
                "pitch": 45,
                "velocity": 101,
                "duration": 0.20000000000000284,
                "tempo": 120.0
            },
            {
                "start_time": 22.206818181818182,
                "end_time": 22.411363636363635,
                "pitch": 45,
                "velocity": 101,
                "duration": 0.20454545454545325,
                "tempo": 120.0
            },
            {
                "start_time": 22.411363636363635,
                "end_time": 22.618181818181817,
                "pitch": 45,
                "velocity": 101,
                "duration": 0.206818181818182,
                "tempo": 120.0
            },
            {
                "start_time": 22.618181818181817,
                "end_time": 22.813636363636363,
                "pitch": 45,
                "velocity": 101,
                "duration": 0.19545454545454533,
                "tempo": 120.0
            },
            {
                "start_time": 22.813636363636363,
                "end_time": 22.979545454545452,
                "pitch": 45,
                "velocity": 101,
                "duration": 0.16590909090908923,
                "tempo": 120.0
            },
            {
                "start_time": 22.979545454545452,
                "end_time": 23.16590909090909,
                "pitch": 45,
                "velocity": 101,
                "duration": 0.1863636363636374,
                "tempo": 120.0
            },
            {
                "start_time": 23.16590909090909,
                "end_time": 23.349999999999998,
                "pitch": 45,
                "velocity": 101,
                "duration": 0.18409090909090864,
                "tempo": 120.0
            },
            {
                "start_time": 23.349999999999998,
                "end_time": 23.552272727272726,
                "pitch": 52,
                "velocity": 101,
                "duration": 0.20227272727272805,
                "tempo": 120.0
            },
            {
                "start_time": 23.552272727272726,
                "end_time": 23.754545454545454,
                "pitch": 50,
                "velocity": 101,
                "duration": 0.20227272727272805,
                "tempo": 120.0
            },
            {
                "start_time": 23.754545454545454,
                "end_time": 23.954545454545453,
                "pitch": 49,
                "velocity": 101,
                "duration": 0.1999999999999993,
                "tempo": 120.0
            },
            {
                "start_time": 23.954545454545453,
                "end_time": 24.154545454545453,
                "pitch": 46,
                "velocity": 101,
                "duration": 0.1999999999999993,
                "tempo": 120.0
            },
            {
                "start_time": 24.154545454545453,
                "end_time": 24.354545454545452,
                "pitch": 43,
                "velocity": 101,
                "duration": 0.1999999999999993,
                "tempo": 120.0
            },
            {
                "start_time": 24.354545454545452,
                "end_time": 24.55681818181818,
                "pitch": 45,
                "velocity": 101,
                "duration": 0.20227272727272805,
                "tempo": 120.0
            },
            {
                "start_time": 24.55681818181818,
                "end_time": 24.75681818181818,
                "pitch": 46,
                "velocity": 101,
                "duration": 0.1999999999999993,
                "tempo": 120.0
            },
            {
                "start_time": 24.75681818181818,
                "end_time": 24.927272727272726,
                "pitch": 43,
                "velocity": 101,
                "duration": 0.17045454545454675,
                "tempo": 120.0
            },
            {
                "start_time": 24.927272727272726,
                "end_time": 25.111363636363635,
                "pitch": 50,
                "velocity": 101,
                "duration": 0.18409090909090864,
                "tempo": 120.0
            },
            {
                "start_time": 25.111363636363635,
                "end_time": 25.295454545454543,
                "pitch": 50,
                "velocity": 101,
                "duration": 0.18409090909090864,
                "tempo": 120.0
            },
            {
                "start_time": 25.295454545454543,
                "end_time": 25.495454545454542,
                "pitch": 50,
                "velocity": 101,
                "duration": 0.1999999999999993,
                "tempo": 120.0
            },
            {
                "start_time": 25.495454545454542,
                "end_time": 25.695454545454545,
                "pitch": 50,
                "velocity": 101,
                "duration": 0.20000000000000284,
                "tempo": 120.0
            },
            {
                "start_time": 25.695454545454545,
                "end_time": 25.89772727272727,
                "pitch": 52,
                "velocity": 101,
                "duration": 0.2022727272727245,
                "tempo": 120.0
            },
            {
                "start_time": 25.89772727272727,
                "end_time": 26.099999999999998,
                "pitch": 52,
                "velocity": 101,
                "duration": 0.20227272727272805,
                "tempo": 120.0
            },
            {
                "start_time": 26.099999999999998,
                "end_time": 26.299999999999997,
                "pitch": 52,
                "velocity": 101,
                "duration": 0.1999999999999993,
                "tempo": 120.0
            },
            {
                "start_time": 26.299999999999997,
                "end_time": 26.5,
                "pitch": 52,
                "velocity": 101,
                "duration": 0.20000000000000284,
                "tempo": 120.0
            },
            {
                "start_time": 26.5,
                "end_time": 26.7,
                "pitch": 53,
                "velocity": 101,
                "duration": 0.1999999999999993,
                "tempo": 120.0
            },
            {
                "start_time": 26.7,
                "end_time": 26.9,
                "pitch": 53,
                "velocity": 101,
                "duration": 0.1999999999999993,
                "tempo": 120.0
            },
            {
                "start_time": 26.9,
                "end_time": 27.061363636363634,
                "pitch": 53,
                "velocity": 101,
                "duration": 0.16136363636363527,
                "tempo": 120.0
            },
            {
                "start_time": 27.061363636363634,
                "end_time": 27.27272727272727,
                "pitch": 53,
                "velocity": 101,
                "duration": 0.21136363636363598,
                "tempo": 120.0
            },
            {
                "start_time": 27.27272727272727,
                "end_time": 27.44772727272727,
                "pitch": 50,
                "velocity": 101,
                "duration": 0.1750000000000007,
                "tempo": 120.0
            },
            {
                "start_time": 27.456818181818182,
                "end_time": 27.643181818181816,
                "pitch": 50,
                "velocity": 101,
                "duration": 0.18636363636363384,
                "tempo": 120.0
            },
            {
                "start_time": 27.643181818181816,
                "end_time": 27.843181818181815,
                "pitch": 50,
                "velocity": 101,
                "duration": 0.1999999999999993,
                "tempo": 120.0
            },
            {
                "start_time": 27.843181818181815,
                "end_time": 28.045454545454543,
                "pitch": 50,
                "velocity": 101,
                "duration": 0.20227272727272805,
                "tempo": 120.0
            },
            {
                "start_time": 28.045454545454543,
                "end_time": 28.245454545454542,
                "pitch": 48,
                "velocity": 101,
                "duration": 0.1999999999999993,
                "tempo": 120.0
            },
            {
                "start_time": 28.245454545454542,
                "end_time": 28.445454545454545,
                "pitch": 48,
                "velocity": 101,
                "duration": 0.20000000000000284,
                "tempo": 120.0
            },
            {
                "start_time": 28.445454545454545,
                "end_time": 28.645454545454545,
                "pitch": 48,
                "velocity": 101,
                "duration": 0.1999999999999993,
                "tempo": 120.0
            },
            {
                "start_time": 28.645454545454545,
                "end_time": 28.847727272727273,
                "pitch": 48,
                "velocity": 101,
                "duration": 0.20227272727272805,
                "tempo": 120.0
            },
            {
                "start_time": 28.847727272727273,
                "end_time": 29.047727272727272,
                "pitch": 50,
                "velocity": 101,
                "duration": 0.1999999999999993,
                "tempo": 120.0
            },
            {
                "start_time": 29.047727272727272,
                "end_time": 29.206818181818182,
                "pitch": 50,
                "velocity": 101,
                "duration": 0.15909090909091006,
                "tempo": 120.0
            },
            {
                "start_time": 29.206818181818182,
                "end_time": 29.388636363636362,
                "pitch": 50,
                "velocity": 101,
                "duration": 0.18181818181817988,
                "tempo": 120.0
            },
            {
                "start_time": 29.388636363636362,
                "end_time": 29.568181818181817,
                "pitch": 50,
                "velocity": 101,
                "duration": 0.17954545454545467,
                "tempo": 120.0
            },
            {
                "start_time": 29.568181818181817,
                "end_time": 29.770454545454545,
                "pitch": 52,
                "velocity": 101,
                "duration": 0.20227272727272805,
                "tempo": 120.0
            },
            {
                "start_time": 29.770454545454545,
                "end_time": 29.972727272727273,
                "pitch": 52,
                "velocity": 101,
                "duration": 0.20227272727272805,
                "tempo": 120.0
            },
            {
                "start_time": 29.972727272727273,
                "end_time": 30.172727272727272,
                "pitch": 52,
                "velocity": 101,
                "duration": 0.1999999999999993,
                "tempo": 120.0
            },
            {
                "start_time": 30.172727272727272,
                "end_time": 30.37272727272727,
                "pitch": 52,
                "velocity": 101,
                "duration": 0.1999999999999993,
                "tempo": 120.0
            },
            {
                "start_time": 30.37272727272727,
                "end_time": 30.57272727272727,
                "pitch": 48,
                "velocity": 101,
                "duration": 0.1999999999999993,
                "tempo": 120.0
            },
            {
                "start_time": 30.57272727272727,
                "end_time": 30.77272727272727,
                "pitch": 48,
                "velocity": 101,
                "duration": 0.1999999999999993,
                "tempo": 120.0
            },
            {
                "start_time": 30.77272727272727,
                "end_time": 30.972727272727273,
                "pitch": 48,
                "velocity": 101,
                "duration": 0.20000000000000284,
                "tempo": 120.0
            },
            {
                "start_time": 30.972727272727273,
                "end_time": 31.174999999999997,
                "pitch": 48,
                "velocity": 101,
                "duration": 0.2022727272727245,
                "tempo": 120.0
            },
            {
                "start_time": 31.174999999999997,
                "end_time": 31.343181818181815,
                "pitch": 46,
                "velocity": 101,
                "duration": 0.168181818181818,
                "tempo": 120.0
            },
            {
                "start_time": 31.343181818181815,
                "end_time": 31.543181818181818,
                "pitch": 46,
                "velocity": 101,
                "duration": 0.20000000000000284,
                "tempo": 120.0
            },
            {
                "start_time": 31.543181818181818,
                "end_time": 31.729545454545452,
                "pitch": 46,
                "velocity": 101,
                "duration": 0.18636363636363384,
                "tempo": 120.0
            },
            {
                "start_time": 31.729545454545452,
                "end_time": 31.91363636363636,
                "pitch": 46,
                "velocity": 101,
                "duration": 0.18409090909090864,
                "tempo": 120.0
            },
            {
                "start_time": 31.91363636363636,
                "end_time": 32.11590909090909,
                "pitch": 48,
                "velocity": 101,
                "duration": 0.2022727272727316,
                "tempo": 120.0
            },
            {
                "start_time": 32.11590909090909,
                "end_time": 32.31818181818182,
                "pitch": 48,
                "velocity": 101,
                "duration": 0.20227272727272805,
                "tempo": 120.0
            },
            {
                "start_time": 32.31818181818182,
                "end_time": 32.518181818181816,
                "pitch": 48,
                "velocity": 101,
                "duration": 0.19999999999999574,
                "tempo": 120.0
            },
            {
                "start_time": 32.518181818181816,
                "end_time": 32.71818181818182,
                "pitch": 48,
                "velocity": 101,
                "duration": 0.20000000000000284,
                "tempo": 120.0
            },
            {
                "start_time": 32.71818181818182,
                "end_time": 32.918181818181814,
                "pitch": 50,
                "velocity": 101,
                "duration": 0.19999999999999574,
                "tempo": 120.0
            },
            {
                "start_time": 32.918181818181814,
                "end_time": 33.11818181818182,
                "pitch": 50,
                "velocity": 101,
                "duration": 0.20000000000000284,
                "tempo": 120.0
            },
            {
                "start_time": 33.11818181818182,
                "end_time": 33.31818181818181,
                "pitch": 50,
                "velocity": 101,
                "duration": 0.19999999999999574,
                "tempo": 120.0
            },
            {
                "start_time": 33.31818181818181,
                "end_time": 33.486363636363635,
                "pitch": 50,
                "velocity": 101,
                "duration": 0.16818181818182154,
                "tempo": 120.0
            },
            {
                "start_time": 33.486363636363635,
                "end_time": 33.67272727272727,
                "pitch": 46,
                "velocity": 101,
                "duration": 0.1863636363636374,
                "tempo": 120.0
            },
            {
                "start_time": 33.67272727272727,
                "end_time": 33.85681818181818,
                "pitch": 46,
                "velocity": 101,
                "duration": 0.18409090909090509,
                "tempo": 120.0
            },
            {
                "start_time": 33.85681818181818,
                "end_time": 34.05681818181818,
                "pitch": 46,
                "velocity": 101,
                "duration": 0.20000000000000284,
                "tempo": 120.0
            },
            {
                "start_time": 34.05681818181818,
                "end_time": 34.25681818181818,
                "pitch": 46,
                "velocity": 101,
                "duration": 0.20000000000000284,
                "tempo": 120.0
            },
            {
                "start_time": 34.25681818181818,
                "end_time": 34.45681818181818,
                "pitch": 45,
                "velocity": 101,
                "duration": 0.19999999999999574,
                "tempo": 120.0
            },
            {
                "start_time": 34.45681818181818,
                "end_time": 34.65681818181818,
                "pitch": 45,
                "velocity": 101,
                "duration": 0.20000000000000284,
                "tempo": 120.0
            },
            {
                "start_time": 34.65681818181818,
                "end_time": 34.85681818181818,
                "pitch": 45,
                "velocity": 101,
                "duration": 0.19999999999999574,
                "tempo": 120.0
            },
            {
                "start_time": 34.85681818181818,
                "end_time": 35.05681818181818,
                "pitch": 45,
                "velocity": 101,
                "duration": 0.20000000000000284,
                "tempo": 120.0
            },
            {
                "start_time": 35.05681818181818,
                "end_time": 35.25681818181818,
                "pitch": 49,
                "velocity": 101,
                "duration": 0.20000000000000284,
                "tempo": 120.0
            },
            {
                "start_time": 35.25681818181818,
                "end_time": 35.45681818181818,
                "pitch": 49,
                "velocity": 101,
                "duration": 0.19999999999999574,
                "tempo": 120.0
            },
            {
                "start_time": 35.45681818181818,
                "end_time": 35.61818181818182,
                "pitch": 49,
                "velocity": 101,
                "duration": 0.16136363636363882,
                "tempo": 120.0
            },
            {
                "start_time": 35.61818181818182,
                "end_time": 35.820454545454545,
                "pitch": 49,
                "velocity": 101,
                "duration": 0.20227272727272805,
                "tempo": 120.0
            },
            {
                "start_time": 35.820454545454545,
                "end_time": 36.0,
                "pitch": 50,
                "velocity": 101,
                "duration": 0.17954545454545467,
                "tempo": 120.0
            },
            {
                "start_time": 36.0,
                "end_time": 36.18181818181818,
                "pitch": 50,
                "velocity": 101,
                "duration": 0.18181818181817988,
                "tempo": 120.0
            },
            {
                "start_time": 36.18181818181818,
                "end_time": 36.38181818181818,
                "pitch": 50,
                "velocity": 101,
                "duration": 0.20000000000000284,
                "tempo": 120.0
            },
            {
                "start_time": 36.38181818181818,
                "end_time": 36.58181818181818,
                "pitch": 50,
                "velocity": 101,
                "duration": 0.19999999999999574,
                "tempo": 120.0
            },
            {
                "start_time": 36.58181818181818,
                "end_time": 36.78181818181818,
                "pitch": 52,
                "velocity": 101,
                "duration": 0.20000000000000284,
                "tempo": 120.0
            },
            {
                "start_time": 36.78181818181818,
                "end_time": 36.98181818181818,
                "pitch": 52,
                "velocity": 101,
                "duration": 0.19999999999999574,
                "tempo": 120.0
            },
            {
                "start_time": 36.98181818181818,
                "end_time": 37.18181818181818,
                "pitch": 52,
                "velocity": 101,
                "duration": 0.20000000000000284,
                "tempo": 120.0
            },
            {
                "start_time": 37.18181818181818,
                "end_time": 37.38181818181818,
                "pitch": 52,
                "velocity": 101,
                "duration": 0.20000000000000284,
                "tempo": 120.0
            },
            {
                "start_time": 37.39090909090909,
                "end_time": 37.55227272727272,
                "pitch": 50,
                "velocity": 101,
                "duration": 0.1613636363636317,
                "tempo": 120.0
            },
            {
                "start_time": 37.55227272727272,
                "end_time": 37.75454545454545,
                "pitch": 50,
                "velocity": 101,
                "duration": 0.20227272727272805,
                "tempo": 120.0
            },
            {
                "start_time": 37.75454545454545,
                "end_time": 37.93863636363636,
                "pitch": 50,
                "velocity": 101,
                "duration": 0.1840909090909122,
                "tempo": 120.0
            },
            {
                "start_time": 37.93863636363636,
                "end_time": 38.125,
                "pitch": 50,
                "velocity": 101,
                "duration": 0.1863636363636374,
                "tempo": 120.0
            },
            {
                "start_time": 38.125,
                "end_time": 38.324999999999996,
                "pitch": 52,
                "velocity": 101,
                "duration": 0.19999999999999574,
                "tempo": 120.0
            },
            {
                "start_time": 38.324999999999996,
                "end_time": 38.525,
                "pitch": 52,
                "velocity": 101,
                "duration": 0.20000000000000284,
                "tempo": 120.0
            },
            {
                "start_time": 38.525,
                "end_time": 38.725,
                "pitch": 52,
                "velocity": 101,
                "duration": 0.20000000000000284,
                "tempo": 120.0
            },
            {
                "start_time": 38.725,
                "end_time": 38.925,
                "pitch": 52,
                "velocity": 101,
                "duration": 0.19999999999999574,
                "tempo": 120.0
            },
            {
                "start_time": 38.925,
                "end_time": 39.125,
                "pitch": 53,
                "velocity": 101,
                "duration": 0.20000000000000284,
                "tempo": 120.0
            },
            {
                "start_time": 39.125,
                "end_time": 39.324999999999996,
                "pitch": 53,
                "velocity": 101,
                "duration": 0.19999999999999574,
                "tempo": 120.0
            },
            {
                "start_time": 39.324999999999996,
                "end_time": 39.525,
                "pitch": 53,
                "velocity": 101,
                "duration": 0.20000000000000284,
                "tempo": 120.0
            },
            {
                "start_time": 39.525,
                "end_time": 39.69772727272727,
                "pitch": 53,
                "velocity": 101,
                "duration": 0.17272727272727195,
                "tempo": 120.0
            },
            {
                "start_time": 39.69772727272727,
                "end_time": 39.88181818181818,
                "pitch": 57,
                "velocity": 101,
                "duration": 0.1840909090909122,
                "tempo": 120.0
            },
            {
                "start_time": 39.88181818181818,
                "end_time": 40.06818181818181,
                "pitch": 57,
                "velocity": 101,
                "duration": 0.1863636363636303,
                "tempo": 120.0
            },
            {
                "start_time": 40.06818181818181,
                "end_time": 40.268181818181816,
                "pitch": 57,
                "velocity": 101,
                "duration": 0.20000000000000284,
                "tempo": 120.0
            },
            {
                "start_time": 40.268181818181816,
                "end_time": 40.46818181818182,
                "pitch": 57,
                "velocity": 101,
                "duration": 0.20000000000000284,
                "tempo": 120.0
            },
            {
                "start_time": 40.46818181818182,
                "end_time": 40.668181818181814,
                "pitch": 48,
                "velocity": 101,
                "duration": 0.19999999999999574,
                "tempo": 120.0
            },
            {
                "start_time": 40.668181818181814,
                "end_time": 40.86818181818182,
                "pitch": 48,
                "velocity": 101,
                "duration": 0.20000000000000284,
                "tempo": 120.0
            },
            {
                "start_time": 40.86818181818182,
                "end_time": 41.06818181818181,
                "pitch": 48,
                "velocity": 101,
                "duration": 0.19999999999999574,
                "tempo": 120.0
            },
            {
                "start_time": 41.06818181818181,
                "end_time": 41.27045454545454,
                "pitch": 48,
                "velocity": 101,
                "duration": 0.20227272727272805,
                "tempo": 120.0
            },
            {
                "start_time": 41.27045454545454,
                "end_time": 41.470454545454544,
                "pitch": 50,
                "velocity": 101,
                "duration": 0.20000000000000284,
                "tempo": 120.0
            },
            {
                "start_time": 41.470454545454544,
                "end_time": 41.67045454545455,
                "pitch": 50,
                "velocity": 101,
                "duration": 0.20000000000000284,
                "tempo": 120.0
            },
            {
                "start_time": 41.67045454545455,
                "end_time": 41.840909090909086,
                "pitch": 50,
                "velocity": 101,
                "duration": 0.17045454545453964,
                "tempo": 120.0
            },
            {
                "start_time": 41.840909090909086,
                "end_time": 42.04090909090909,
                "pitch": 50,
                "velocity": 101,
                "duration": 0.20000000000000284,
                "tempo": 120.0
            },
            {
                "start_time": 42.04090909090909,
                "end_time": 42.215909090909086,
                "pitch": 52,
                "velocity": 101,
                "duration": 0.17499999999999716,
                "tempo": 120.0
            },
            {
                "start_time": 42.215909090909086,
                "end_time": 42.4,
                "pitch": 52,
                "velocity": 101,
                "duration": 0.1840909090909122,
                "tempo": 120.0
            },
            {
                "start_time": 42.4,
                "end_time": 42.60227272727273,
                "pitch": 52,
                "velocity": 101,
                "duration": 0.20227272727272805,
                "tempo": 120.0
            },
            {
                "start_time": 42.60227272727273,
                "end_time": 42.81363636363636,
                "pitch": 52,
                "velocity": 101,
                "duration": 0.21136363636363598,
                "tempo": 120.0
            },
            {
                "start_time": 42.81363636363636,
                "end_time": 43.002272727272725,
                "pitch": 55,
                "velocity": 101,
                "duration": 0.1886363636363626,
                "tempo": 120.0
            },
            {
                "start_time": 43.002272727272725,
                "end_time": 43.21363636363636,
                "pitch": 55,
                "velocity": 101,
                "duration": 0.21136363636363598,
                "tempo": 120.0
            },
            {
                "start_time": 43.21363636363636,
                "end_time": 43.413636363636364,
                "pitch": 55,
                "velocity": 101,
                "duration": 0.20000000000000284,
                "tempo": 120.0
            },
            {
                "start_time": 43.413636363636364,
                "end_time": 43.61363636363636,
                "pitch": 55,
                "velocity": 101,
                "duration": 0.19999999999999574,
                "tempo": 120.0
            },
            {
                "start_time": 43.61363636363636,
                "end_time": 43.809090909090905,
                "pitch": 46,
                "velocity": 101,
                "duration": 0.19545454545454533,
                "tempo": 120.0
            },
            {
                "start_time": 43.809090909090905,
                "end_time": 43.965909090909086,
                "pitch": 46,
                "velocity": 101,
                "duration": 0.1568181818181813,
                "tempo": 120.0
            },
            {
                "start_time": 43.965909090909086,
                "end_time": 44.15,
                "pitch": 46,
                "velocity": 101,
                "duration": 0.1840909090909122,
                "tempo": 120.0
            },
            {
                "start_time": 44.15,
                "end_time": 44.336363636363636,
                "pitch": 46,
                "velocity": 101,
                "duration": 0.1863636363636374,
                "tempo": 120.0
            },
            {
                "start_time": 44.336363636363636,
                "end_time": 44.53636363636363,
                "pitch": 48,
                "velocity": 101,
                "duration": 0.19999999999999574,
                "tempo": 120.0
            },
            {
                "start_time": 44.53636363636363,
                "end_time": 44.736363636363635,
                "pitch": 48,
                "velocity": 101,
                "duration": 0.20000000000000284,
                "tempo": 120.0
            },
            {
                "start_time": 44.736363636363635,
                "end_time": 44.93636363636364,
                "pitch": 48,
                "velocity": 101,
                "duration": 0.20000000000000284,
                "tempo": 120.0
            },
            {
                "start_time": 44.93636363636364,
                "end_time": 45.13863636363636,
                "pitch": 48,
                "velocity": 101,
                "duration": 0.20227272727272094,
                "tempo": 120.0
            },
            {
                "start_time": 45.13863636363636,
                "end_time": 45.33863636363636,
                "pitch": 50,
                "velocity": 101,
                "duration": 0.20000000000000284,
                "tempo": 120.0
            },
            {
                "start_time": 45.33863636363636,
                "end_time": 45.538636363636364,
                "pitch": 50,
                "velocity": 101,
                "duration": 0.20000000000000284,
                "tempo": 120.0
            },
            {
                "start_time": 45.538636363636364,
                "end_time": 45.73863636363636,
                "pitch": 50,
                "velocity": 101,
                "duration": 0.19999999999999574,
                "tempo": 120.0
            },
            {
                "start_time": 45.73863636363636,
                "end_time": 45.93863636363636,
                "pitch": 50,
                "velocity": 101,
                "duration": 0.20000000000000284,
                "tempo": 120.0
            },
            {
                "start_time": 45.93863636363636,
                "end_time": 46.10909090909091,
                "pitch": 53,
                "velocity": 101,
                "duration": 0.17045454545454675,
                "tempo": 120.0
            },
            {
                "start_time": 46.10909090909091,
                "end_time": 46.309090909090905,
                "pitch": 53,
                "velocity": 101,
                "duration": 0.19999999999999574,
                "tempo": 120.0
            },
            {
                "start_time": 46.309090909090905,
                "end_time": 46.49318181818182,
                "pitch": 53,
                "velocity": 101,
                "duration": 0.1840909090909122,
                "tempo": 120.0
            },
            {
                "start_time": 46.49318181818182,
                "end_time": 46.679545454545455,
                "pitch": 53,
                "velocity": 101,
                "duration": 0.1863636363636374,
                "tempo": 120.0
            },
            {
                "start_time": 46.679545454545455,
                "end_time": 46.87954545454545,
                "pitch": 52,
                "velocity": 101,
                "duration": 0.19999999999999574,
                "tempo": 120.0
            },
            {
                "start_time": 46.87954545454545,
                "end_time": 47.07954545454545,
                "pitch": 52,
                "velocity": 101,
                "duration": 0.20000000000000284,
                "tempo": 120.0
            },
            {
                "start_time": 47.07954545454545,
                "end_time": 47.27954545454545,
                "pitch": 52,
                "velocity": 101,
                "duration": 0.19999999999999574,
                "tempo": 120.0
            },
            {
                "start_time": 47.27954545454545,
                "end_time": 47.47954545454545,
                "pitch": 52,
                "velocity": 101,
                "duration": 0.20000000000000284,
                "tempo": 120.0
            },
            {
                "start_time": 47.47954545454545,
                "end_time": 47.679545454545455,
                "pitch": 50,
                "velocity": 101,
                "duration": 0.20000000000000284,
                "tempo": 120.0
            },
            {
                "start_time": 47.679545454545455,
                "end_time": 47.87954545454545,
                "pitch": 50,
                "velocity": 101,
                "duration": 0.19999999999999574,
                "tempo": 120.0
            },
            {
                "start_time": 47.87954545454545,
                "end_time": 48.07954545454545,
                "pitch": 50,
                "velocity": 101,
                "duration": 0.20000000000000284,
                "tempo": 120.0
            },
            {
                "start_time": 48.07954545454545,
                "end_time": 48.25,
                "pitch": 50,
                "velocity": 101,
                "duration": 0.17045454545454675,
                "tempo": 120.0
            },
            {
                "start_time": 48.25,
                "end_time": 48.434090909090905,
                "pitch": 49,
                "velocity": 101,
                "duration": 0.18409090909090509,
                "tempo": 120.0
            },
            {
                "start_time": 48.434090909090905,
                "end_time": 48.62045454545454,
                "pitch": 49,
                "velocity": 101,
                "duration": 0.1863636363636374,
                "tempo": 120.0
            },
            {
                "start_time": 48.62045454545454,
                "end_time": 48.820454545454545,
                "pitch": 49,
                "velocity": 101,
                "duration": 0.20000000000000284,
                "tempo": 120.0
            },
            {
                "start_time": 48.820454545454545,
                "end_time": 49.02045454545454,
                "pitch": 49,
                "velocity": 101,
                "duration": 0.19999999999999574,
                "tempo": 120.0
            },
            {
                "start_time": 49.02045454545454,
                "end_time": 49.220454545454544,
                "pitch": 52,
                "velocity": 101,
                "duration": 0.20000000000000284,
                "tempo": 120.0
            },
            {
                "start_time": 49.220454545454544,
                "end_time": 49.42045454545454,
                "pitch": 52,
                "velocity": 101,
                "duration": 0.19999999999999574,
                "tempo": 120.0
            },
            {
                "start_time": 49.42045454545454,
                "end_time": 49.62045454545454,
                "pitch": 52,
                "velocity": 101,
                "duration": 0.20000000000000284,
                "tempo": 120.0
            },
            {
                "start_time": 49.62045454545454,
                "end_time": 49.820454545454545,
                "pitch": 52,
                "velocity": 101,
                "duration": 0.20000000000000284,
                "tempo": 120.0
            },
            {
                "start_time": 49.820454545454545,
                "end_time": 50.02045454545454,
                "pitch": 50,
                "velocity": 101,
                "duration": 0.19999999999999574,
                "tempo": 120.0
            },
            {
                "start_time": 50.02045454545454,
                "end_time": 50.18181818181818,
                "pitch": 50,
                "velocity": 101,
                "duration": 0.16136363636363882,
                "tempo": 120.0
            }
        ]
    }
}