{
    "track_id": "05 Town",
    "mood": "happy",
    "instruments": {
        "Clarinet": [
            {
                "start_time": 86.5,
                "end_time": 87.80454545454545,
                "pitch": 64,
                "velocity": 40,
                "duration": 1.3045454545454476,
                "tempo": 120.0
            },
            {
                "start_time": 87.83863636363635,
                "end_time": 88.07954545454545,
                "pitch": 62,
                "velocity": 40,
                "duration": 0.24090909090909918,
                "tempo": 120.0
            },
            {
                "start_time": 86.5,
                "end_time": 88.35681818181818,
                "pitch": 60,
                "velocity": 40,
                "duration": 1.8568181818181841,
                "tempo": 120.0
            },
            {
                "start_time": 88.11590909090908,
                "end_time": 88.35681818181818,
                "pitch": 60,
                "velocity": 40,
                "duration": 0.24090909090909918,
                "tempo": 120.0
            },
            {
                "start_time": 87.83863636363635,
                "end_time": 88.39318181818182,
                "pitch": 64,
                "velocity": 40,
                "duration": 0.5545454545454618,
                "tempo": 120.0
            },
            {
                "start_time": 88.39318181818182,
                "end_time": 89.69090909090909,
                "pitch": 57,
                "velocity": 40,
                "duration": 1.297727272727272,
                "tempo": 120.0
            },
            {
                "start_time": 89.72727272727272,
                "end_time": 90.23636363636363,
                "pitch": 60,
                "velocity": 40,
                "duration": 0.509090909090915,
                "tempo": 120.0
            },
            {
                "start_time": 88.39318181818182,
                "end_time": 92.11363636363636,
                "pitch": 64,
                "velocity": 40,
                "duration": 3.720454545454544,
                "tempo": 120.0
            },
            {
                "start_time": 90.27045454545454,
                "end_time": 92.11363636363636,
                "pitch": 64,
                "velocity": 40,
                "duration": 1.8431818181818187,
                "tempo": 120.0
            },
            {
                "start_time": 88.11590909090908,
                "end_time": 92.39090909090909,
                "pitch": 62,
                "velocity": 40,
                "duration": 4.275000000000006,
                "tempo": 120.0
            },
            {
                "start_time": 92.14999999999999,
                "end_time": 92.39090909090909,
                "pitch": 62,
                "velocity": 40,
                "duration": 0.24090909090909918,
                "tempo": 120.0
            },
            {
                "start_time": 90.27045454545454,
                "end_time": 92.66818181818181,
                "pitch": 60,
                "velocity": 40,
                "duration": 2.3977272727272663,
                "tempo": 120.0
            },
            {
                "start_time": 92.42727272727272,
                "end_time": 92.66818181818181,
                "pitch": 60,
                "velocity": 40,
                "duration": 0.24090909090908497,
                "tempo": 120.0
            },
            {
                "start_time": 92.14999999999999,
                "end_time": 92.70454545454545,
                "pitch": 64,
                "velocity": 40,
                "duration": 0.5545454545454618,
                "tempo": 120.0
            },
            {
                "start_time": 92.70454545454545,
                "end_time": 93.73863636363636,
                "pitch": 57,
                "velocity": 40,
                "duration": 1.0340909090909065,
                "tempo": 120.0
            },
            {
                "start_time": 93.77499999999999,
                "end_time": 94.27499999999999,
                "pitch": 69,
                "velocity": 40,
                "duration": 0.5,
                "tempo": 120.0
            },
            {
                "start_time": 94.3090909090909,
                "end_time": 95.08636363636363,
                "pitch": 69,
                "velocity": 40,
                "duration": 0.7772727272727309,
                "tempo": 120.0
            },
            {
                "start_time": 92.42727272727272,
                "end_time": 96.43636363636364,
                "pitch": 62,
                "velocity": 40,
                "duration": 4.009090909090915,
                "tempo": 120.0
            },
            {
                "start_time": 95.12045454545454,
                "end_time": 96.43636363636364,
                "pitch": 62,
                "velocity": 40,
                "duration": 1.315909090909102,
                "tempo": 120.0
            },
            {
                "start_time": 92.70454545454545,
                "end_time": 96.70454545454545,
                "pitch": 64,
                "velocity": 40,
                "duration": 4.0,
                "tempo": 120.0
            },
            {
                "start_time": 96.47045454545454,
                "end_time": 96.70454545454545,
                "pitch": 64,
                "velocity": 40,
                "duration": 0.23409090909090935,
                "tempo": 120.0
            },
            {
                "start_time": 96.74090909090908,
                "end_time": 96.97727272727272,
                "pitch": 64,
                "velocity": 40,
                "duration": 0.23636363636363455,
                "tempo": 120.0
            },
            {
                "start_time": 97.01363636363637,
                "end_time": 98.59318181818182,
                "pitch": 69,
                "velocity": 40,
                "duration": 1.5795454545454533,
                "tempo": 120.0
            },
            {
                "start_time": 98.62954545454545,
                "end_time": 98.86136363636363,
                "pitch": 69,
                "velocity": 40,
                "duration": 0.23181818181818414,
                "tempo": 120.0
            },
            {
                "start_time": 95.12045454545454,
                "end_time": 98.89545454545454,
                "pitch": 0,
                "velocity": 40,
                "duration": 3.7750000000000057,
                "tempo": 120.0
            },
            {
                "start_time": 98.89545454545454,
                "end_time": 99.12954545454545,
                "pitch": 65,
                "velocity": 40,
                "duration": 0.23409090909090935,
                "tempo": 120.0
            },
            {
                "start_time": 96.47045454545454,
                "end_time": 100.74318181818181,
                "pitch": 62,
                "velocity": 40,
                "duration": 4.272727272727266,
                "tempo": 120.0
            },
            {
                "start_time": 99.16363636363636,
                "end_time": 100.74318181818181,
                "pitch": 62,
                "velocity": 40,
                "duration": 1.5795454545454533,
                "tempo": 120.0
            },
            {
                "start_time": 100.77954545454546,
                "end_time": 101.01590909090909,
                "pitch": 64,
                "velocity": 40,
                "duration": 0.23636363636363455,
                "tempo": 120.0
            },
            {
                "start_time": 101.05227272727272,
                "end_time": 101.28636363636363,
                "pitch": 64,
                "velocity": 40,
                "duration": 0.23409090909090935,
                "tempo": 120.0
            },
            {
                "start_time": 97.01363636363637,
                "end_time": 101.32272727272726,
                "pitch": 78,
                "velocity": 40,
                "duration": 4.309090909090898,
                "tempo": 120.0
            },
            {
                "start_time": 101.32272727272726,
                "end_time": 102.90227272727272,
                "pitch": 69,
                "velocity": 40,
                "duration": 1.5795454545454533,
                "tempo": 120.0
            },
            {
                "start_time": 102.93863636363636,
                "end_time": 103.175,
                "pitch": 57,
                "velocity": 40,
                "duration": 0.23636363636363455,
                "tempo": 120.0
            },
            {
                "start_time": 103.21136363636363,
                "end_time": 103.44772727272726,
                "pitch": 57,
                "velocity": 40,
                "duration": 0.23636363636363455,
                "tempo": 120.0
            },
            {
                "start_time": 103.48409090909091,
                "end_time": 103.72045454545454,
                "pitch": 60,
                "velocity": 40,
                "duration": 0.23636363636363455,
                "tempo": 120.0
            },
            {
                "start_time": 103.75454545454545,
                "end_time": 104.52045454545454,
                "pitch": 58,
                "velocity": 40,
                "duration": 0.7659090909090907,
                "tempo": 120.0
            },
            {
                "start_time": 104.55454545454545,
                "end_time": 105.32499999999999,
                "pitch": 70,
                "velocity": 40,
                "duration": 0.7704545454545411,
                "tempo": 120.0
            },
            {
                "start_time": 105.35909090909091,
                "end_time": 105.87045454545454,
                "pitch": 70,
                "velocity": 40,
                "duration": 0.511363636363626,
                "tempo": 120.0
            },
            {
                "start_time": 105.90454545454546,
                "end_time": 106.67045454545455,
                "pitch": 69,
                "velocity": 40,
                "duration": 0.7659090909090907,
                "tempo": 120.0
            },
            {
                "start_time": 98.89545454545454,
                "end_time": 106.70454545454545,
                "pitch": 0,
                "velocity": 40,
                "duration": 7.809090909090912,
                "tempo": 120.0
            },
            {
                "start_time": 99.16363636363636,
                "end_time": 107.48636363636363,
                "pitch": 65,
                "velocity": 40,
                "duration": 8.322727272727278,
                "tempo": 120.0
            },
            {
                "start_time": 106.70454545454545,
                "end_time": 107.48636363636363,
                "pitch": 65,
                "velocity": 40,
                "duration": 0.7818181818181813,
                "tempo": 120.0
            },
            {
                "start_time": 100.77954545454546,
                "end_time": 108.02954545454546,
                "pitch": 62,
                "velocity": 40,
                "duration": 7.25,
                "tempo": 120.0
            },
            {
                "start_time": 107.52045454545454,
                "end_time": 108.02954545454546,
                "pitch": 62,
                "velocity": 40,
                "duration": 0.509090909090915,
                "tempo": 120.0
            },
            {
                "start_time": 108.06363636363636,
                "end_time": 108.06590909090909,
                "pitch": 62,
                "velocity": 40,
                "duration": 0.0022727272727252057,
                "tempo": 120.0
            },
            {
                "start_time": 103.75454545454545,
                "end_time": 108.82954545454545,
                "pitch": 64,
                "velocity": 40,
                "duration": 5.075000000000003,
                "tempo": 120.0
            },
            {
                "start_time": 108.06590909090909,
                "end_time": 108.82954545454545,
                "pitch": 64,
                "velocity": 40,
                "duration": 0.7636363636363654,
                "tempo": 120.0
            },
            {
                "start_time": 108.86363636363636,
                "end_time": 109.64090909090909,
                "pitch": 74,
                "velocity": 40,
                "duration": 0.7772727272727309,
                "tempo": 120.0
            },
            {
                "start_time": 109.675,
                "end_time": 110.18636363636364,
                "pitch": 72,
                "velocity": 40,
                "duration": 0.5113636363636402,
                "tempo": 120.0
            },
            {
                "start_time": 108.86363636363636,
                "end_time": 110.22045454545454,
                "pitch": 76,
                "velocity": 40,
                "duration": 1.3568181818181841,
                "tempo": 120.0
            },
            {
                "start_time": 110.22045454545454,
                "end_time": 110.98863636363636,
                "pitch": 70,
                "velocity": 40,
                "duration": 0.7681818181818159,
                "tempo": 120.0
            },
            {
                "start_time": 111.02272727272727,
                "end_time": 111.79545454545455,
                "pitch": 70,
                "velocity": 40,
                "duration": 0.7727272727272805,
                "tempo": 120.0
            },
            {
                "start_time": 111.82954545454545,
                "end_time": 112.34090909090908,
                "pitch": 69,
                "velocity": 40,
                "duration": 0.511363636363626,
                "tempo": 120.0
            },
            {
                "start_time": 112.375,
                "end_time": 113.675,
                "pitch": 67,
                "velocity": 40,
                "duration": 1.2999999999999972,
                "tempo": 120.0
            },
            {
                "start_time": 109.675,
                "end_time": 113.94999999999999,
                "pitch": 74,
                "velocity": 40,
                "duration": 4.2749999999999915,
                "tempo": 120.0
            },
            {
                "start_time": 113.7090909090909,
                "end_time": 113.94999999999999,
                "pitch": 74,
                "velocity": 40,
                "duration": 0.24090909090908497,
                "tempo": 120.0
            },
            {
                "start_time": 110.22045454545454,
                "end_time": 114.22727272727272,
                "pitch": 76,
                "velocity": 40,
                "duration": 4.006818181818176,
                "tempo": 120.0
            },
            {
                "start_time": 113.98636363636363,
                "end_time": 114.22727272727272,
                "pitch": 76,
                "velocity": 40,
                "duration": 0.24090909090908497,
                "tempo": 120.0
            },
            {
                "start_time": 114.26363636363635,
                "end_time": 116.37727272727273,
                "pitch": 76,
                "velocity": 40,
                "duration": 2.113636363636374,
                "tempo": 120.0
            },
            {
                "start_time": 116.41363636363636,
                "end_time": 117.4590909090909,
                "pitch": 81,
                "velocity": 40,
                "duration": 1.0454545454545467,
                "tempo": 120.0
            },
            {
                "start_time": 113.7090909090909,
                "end_time": 117.49318181818181,
                "pitch": 42,
                "velocity": 40,
                "duration": 3.7840909090909065,
                "tempo": 120.0
            },
            {
                "start_time": 113.98636363636363,
                "end_time": 118.26590909090909,
                "pitch": 74,
                "velocity": 40,
                "duration": 4.279545454545456,
                "tempo": 120.0
            },
            {
                "start_time": 117.49318181818181,
                "end_time": 118.26590909090909,
                "pitch": 74,
                "velocity": 40,
                "duration": 0.7727272727272805,
                "tempo": 120.0
            },
            {
                "start_time": 118.30227272727272,
                "end_time": 118.53863636363636,
                "pitch": 76,
                "velocity": 40,
                "duration": 0.23636363636363455,
                "tempo": 120.0
            },
            {
                "start_time": 107.52045454545454,
                "end_time": 120.45681818181818,
                "pitch": 65,
                "velocity": 40,
                "duration": 12.936363636363637,
                "tempo": 120.0
            },
            {
                "start_time": 118.57272727272726,
                "end_time": 120.45681818181818,
                "pitch": 76,
                "velocity": 40,
                "duration": 1.884090909090915,
                "tempo": 120.0
            },
            {
                "start_time": 120.45681818181818,
                "end_time": 120.69772727272726,
                "pitch": 62,
                "velocity": 40,
                "duration": 0.24090909090908497,
                "tempo": 120.0
            },
            {
                "start_time": 120.73409090909091,
                "end_time": 122.30454545454545,
                "pitch": 70,
                "velocity": 40,
                "duration": 1.5704545454545382,
                "tempo": 120.0
            },
            {
                "start_time": 122.33863636363635,
                "end_time": 122.57727272727273,
                "pitch": 70,
                "velocity": 40,
                "duration": 0.23863636363637397,
                "tempo": 120.0
            },
            {
                "start_time": 122.61136363636363,
                "end_time": 122.84772727272727,
                "pitch": 69,
                "velocity": 40,
                "duration": 0.23636363636363455,
                "tempo": 120.0
            },
            {
                "start_time": 106.70454545454545,
                "end_time": 122.8840909090909,
                "pitch": 0,
                "velocity": 40,
                "duration": 16.179545454545448,
                "tempo": 120.0
            },
            {
                "start_time": 122.8840909090909,
                "end_time": 123.92045454545453,
                "pitch": 62,
                "velocity": 40,
                "duration": 1.0363636363636317,
                "tempo": 120.0
            },
            {
                "start_time": 120.45681818181818,
                "end_time": 124.73636363636363,
                "pitch": 65,
                "velocity": 40,
                "duration": 4.279545454545456,
                "tempo": 120.0
            },
            {
                "start_time": 123.95454545454545,
                "end_time": 124.73636363636363,
                "pitch": 65,
                "velocity": 40,
                "duration": 0.7818181818181813,
                "tempo": 120.0
            },
            {
                "start_time": 124.77045454545454,
                "end_time": 125.27727272727272,
                "pitch": 65,
                "velocity": 40,
                "duration": 0.5068181818181756,
                "tempo": 120.0
            },
            {
                "start_time": 125.31136363636362,
                "end_time": 126.07954545454545,
                "pitch": 60,
                "velocity": 40,
                "duration": 0.7681818181818301,
                "tempo": 120.0
            },
            {
                "start_time": 125.31136363636362,
                "end_time": 126.89545454545454,
                "pitch": 64,
                "velocity": 40,
                "duration": 1.5840909090909179,
                "tempo": 120.0
            },
            {
                "start_time": 126.11363636363636,
                "end_time": 126.89545454545454,
                "pitch": 64,
                "velocity": 40,
                "duration": 0.7818181818181813,
                "tempo": 120.0
            },
            {
                "start_time": 123.95454545454545,
                "end_time": 127.43636363636362,
                "pitch": 62,
                "velocity": 40,
                "duration": 3.48181818181817,
                "tempo": 120.0
            },
            {
                "start_time": 126.93181818181817,
                "end_time": 127.43636363636362,
                "pitch": 62,
                "velocity": 40,
                "duration": 0.5045454545454504,
                "tempo": 120.0
            },
            {
                "start_time": 126.11363636363636,
                "end_time": 128.23863636363635,
                "pitch": 60,
                "velocity": 40,
                "duration": 2.124999999999986,
                "tempo": 120.0
            },
            {
                "start_time": 127.47045454545454,
                "end_time": 128.23863636363635,
                "pitch": 60,
                "velocity": 25,
                "duration": 0.7681818181818016,
                "tempo": 120.0
            },
            {
                "start_time": 126.93181818181817,
                "end_time": 129.04545454545453,
                "pitch": 64,
                "velocity": 40,
                "duration": 2.1136363636363598,
                "tempo": 120.0
            },
            {
                "start_time": 128.27272727272728,
                "end_time": 129.04545454545453,
                "pitch": 64,
                "velocity": 25,
                "duration": 0.7727272727272521,
                "tempo": 120.0
            },
            {
                "start_time": 127.47045454545454,
                "end_time": 129.3181818181818,
                "pitch": 62,
                "velocity": 25,
                "duration": 1.847727272727269,
                "tempo": 120.0
            },
            {
                "start_time": 129.08181818181816,
                "end_time": 129.3181818181818,
                "pitch": 62,
                "velocity": 25,
                "duration": 0.23636363636364877,
                "tempo": 120.0
            }
        ],
        "Oboe": [
            {
                "start_time": 34.48409090909091,
                "end_time": 34.86818181818182,
                "pitch": 46,
                "velocity": 80,
                "duration": 0.38409090909090793,
                "tempo": 120.0
            },
            {
                "start_time": 34.88409090909091,
                "end_time": 35.268181818181816,
                "pitch": 48,
                "velocity": 80,
                "duration": 0.38409090909090793,
                "tempo": 120.0
            },
            {
                "start_time": 35.28636363636363,
                "end_time": 35.53636363636363,
                "pitch": 50,
                "velocity": 80,
                "duration": 0.25,
                "tempo": 120.0
            },
            {
                "start_time": 35.55227272727272,
                "end_time": 35.94318181818181,
                "pitch": 52,
                "velocity": 80,
                "duration": 0.39090909090909065,
                "tempo": 120.0
            },
            {
                "start_time": 35.961363636363636,
                "end_time": 36.34772727272727,
                "pitch": 52,
                "velocity": 80,
                "duration": 0.38636363636363313,
                "tempo": 120.0
            },
            {
                "start_time": 36.36590909090909,
                "end_time": 36.61590909090909,
                "pitch": 55,
                "velocity": 80,
                "duration": 0.25,
                "tempo": 120.0
            },
            {
                "start_time": 36.63181818181818,
                "end_time": 37.02272727272727,
                "pitch": 52,
                "velocity": 80,
                "duration": 0.39090909090909065,
                "tempo": 120.0
            },
            {
                "start_time": 35.55227272727272,
                "end_time": 37.42727272727272,
                "pitch": 50,
                "velocity": 80,
                "duration": 1.875,
                "tempo": 120.0
            },
            {
                "start_time": 37.04090909090909,
                "end_time": 37.42727272727272,
                "pitch": 50,
                "velocity": 80,
                "duration": 0.38636363636363313,
                "tempo": 120.0
            },
            {
                "start_time": 35.28636363636363,
                "end_time": 37.695454545454545,
                "pitch": 48,
                "velocity": 80,
                "duration": 2.4090909090909136,
                "tempo": 120.0
            },
            {
                "start_time": 37.445454545454545,
                "end_time": 37.695454545454545,
                "pitch": 48,
                "velocity": 80,
                "duration": 0.25,
                "tempo": 120.0
            },
            {
                "start_time": 37.04090909090909,
                "end_time": 37.71363636363636,
                "pitch": 52,
                "velocity": 80,
                "duration": 0.672727272727272,
                "tempo": 120.0
            },
            {
                "start_time": 37.71363636363636,
                "end_time": 38.775,
                "pitch": 45,
                "velocity": 80,
                "duration": 1.0613636363636374,
                "tempo": 120.0
            },
            {
                "start_time": 38.793181818181814,
                "end_time": 39.17727272727272,
                "pitch": 45,
                "velocity": 80,
                "duration": 0.38409090909090793,
                "tempo": 120.0
            },
            {
                "start_time": 34.88409090909091,
                "end_time": 39.19318181818181,
                "pitch": 26,
                "velocity": 80,
                "duration": 4.309090909090905,
                "tempo": 120.0
            },
            {
                "start_time": 39.19318181818181,
                "end_time": 39.57727272727273,
                "pitch": 48,
                "velocity": 80,
                "duration": 0.38409090909091503,
                "tempo": 120.0
            },
            {
                "start_time": 37.445454545454545,
                "end_time": 39.845454545454544,
                "pitch": 50,
                "velocity": 80,
                "duration": 2.3999999999999986,
                "tempo": 120.0
            },
            {
                "start_time": 39.595454545454544,
                "end_time": 39.845454545454544,
                "pitch": 50,
                "velocity": 80,
                "duration": 0.25,
                "tempo": 120.0
            },
            {
                "start_time": 37.71363636363636,
                "end_time": 40.25454545454545,
                "pitch": 52,
                "velocity": 80,
                "duration": 2.5409090909090892,
                "tempo": 120.0
            },
            {
                "start_time": 39.86363636363636,
                "end_time": 40.25454545454545,
                "pitch": 52,
                "velocity": 80,
                "duration": 0.39090909090909065,
                "tempo": 120.0
            },
            {
                "start_time": 40.27045454545454,
                "end_time": 40.66136363636363,
                "pitch": 52,
                "velocity": 80,
                "duration": 0.39090909090909065,
                "tempo": 120.0
            },
            {
                "start_time": 36.36590909090909,
                "end_time": 40.679545454545455,
                "pitch": 66,
                "velocity": 80,
                "duration": 4.313636363636363,
                "tempo": 120.0
            },
            {
                "start_time": 40.679545454545455,
                "end_time": 40.934090909090905,
                "pitch": 55,
                "velocity": 80,
                "duration": 0.2545454545454504,
                "tempo": 120.0
            },
            {
                "start_time": 36.63181818181818,
                "end_time": 40.95227272727273,
                "pitch": 0,
                "velocity": 80,
                "duration": 4.320454545454545,
                "tempo": 120.0
            },
            {
                "start_time": 39.595454545454544,
                "end_time": 43.084090909090904,
                "pitch": 48,
                "velocity": 80,
                "duration": 3.4886363636363598,
                "tempo": 120.0
            },
            {
                "start_time": 40.95227272727273,
                "end_time": 43.084090909090904,
                "pitch": 48,
                "velocity": 80,
                "duration": 2.1318181818181756,
                "tempo": 120.0
            },
            {
                "start_time": 43.10227272727273,
                "end_time": 43.49318181818182,
                "pitch": 46,
                "velocity": 80,
                "duration": 0.39090909090909065,
                "tempo": 120.0
            },
            {
                "start_time": 39.19318181818181,
                "end_time": 43.51136363636363,
                "pitch": 26,
                "velocity": 80,
                "duration": 4.31818181818182,
                "tempo": 120.0
            },
            {
                "start_time": 43.51136363636363,
                "end_time": 43.893181818181816,
                "pitch": 48,
                "velocity": 80,
                "duration": 0.3818181818181827,
                "tempo": 120.0
            },
            {
                "start_time": 39.86363636363636,
                "end_time": 44.15681818181818,
                "pitch": 50,
                "velocity": 80,
                "duration": 4.2931818181818215,
                "tempo": 120.0
            },
            {
                "start_time": 43.90909090909091,
                "end_time": 44.15681818181818,
                "pitch": 50,
                "velocity": 80,
                "duration": 0.2477272727272748,
                "tempo": 120.0
            },
            {
                "start_time": 43.10227272727273,
                "end_time": 44.56363636363636,
                "pitch": 52,
                "velocity": 80,
                "duration": 1.461363636363636,
                "tempo": 120.0
            },
            {
                "start_time": 44.17272727272727,
                "end_time": 44.56363636363636,
                "pitch": 52,
                "velocity": 80,
                "duration": 0.39090909090909065,
                "tempo": 120.0
            },
            {
                "start_time": 44.58181818181818,
                "end_time": 44.96818181818182,
                "pitch": 52,
                "velocity": 80,
                "duration": 0.38636363636364024,
                "tempo": 120.0
            },
            {
                "start_time": 40.679545454545455,
                "end_time": 44.98409090909091,
                "pitch": 66,
                "velocity": 80,
                "duration": 4.304545454545455,
                "tempo": 120.0
            },
            {
                "start_time": 44.98409090909091,
                "end_time": 45.236363636363635,
                "pitch": 55,
                "velocity": 80,
                "duration": 0.2522727272727252,
                "tempo": 120.0
            },
            {
                "start_time": 45.252272727272725,
                "end_time": 45.643181818181816,
                "pitch": 55,
                "velocity": 80,
                "duration": 0.39090909090909065,
                "tempo": 120.0
            },
            {
                "start_time": 45.66136363636363,
                "end_time": 46.04772727272727,
                "pitch": 53,
                "velocity": 80,
                "duration": 0.38636363636364024,
                "tempo": 120.0
            },
            {
                "start_time": 44.98409090909091,
                "end_time": 46.06363636363636,
                "pitch": 66,
                "velocity": 80,
                "duration": 1.0795454545454533,
                "tempo": 120.0
            },
            {
                "start_time": 46.06363636363636,
                "end_time": 46.31590909090909,
                "pitch": 55,
                "velocity": 80,
                "duration": 0.2522727272727252,
                "tempo": 120.0
            },
            {
                "start_time": 46.33181818181818,
                "end_time": 46.586363636363636,
                "pitch": 55,
                "velocity": 80,
                "duration": 0.2545454545454575,
                "tempo": 120.0
            },
            {
                "start_time": 46.877272727272725,
                "end_time": 47.39545454545454,
                "pitch": 57,
                "velocity": 80,
                "duration": 0.5181818181818159,
                "tempo": 120.0
            },
            {
                "start_time": 47.41136363636363,
                "end_time": 47.80227272727272,
                "pitch": 57,
                "velocity": 80,
                "duration": 0.39090909090909065,
                "tempo": 120.0
            },
            {
                "start_time": 47.820454545454545,
                "end_time": 48.20681818181818,
                "pitch": 57,
                "velocity": 80,
                "duration": 0.38636363636363313,
                "tempo": 120.0
            },
            {
                "start_time": 40.95227272727273,
                "end_time": 48.224999999999994,
                "pitch": 0,
                "velocity": 80,
                "duration": 7.272727272727266,
                "tempo": 120.0
            },
            {
                "start_time": 48.224999999999994,
                "end_time": 48.474999999999994,
                "pitch": 53,
                "velocity": 80,
                "duration": 0.25,
                "tempo": 120.0
            },
            {
                "start_time": 44.17272727272727,
                "end_time": 48.875,
                "pitch": 50,
                "velocity": 80,
                "duration": 4.702272727272728,
                "tempo": 120.0
            },
            {
                "start_time": 48.49090909090909,
                "end_time": 48.875,
                "pitch": 50,
                "velocity": 80,
                "duration": 0.38409090909090793,
                "tempo": 120.0
            },
            {
                "start_time": 48.893181818181816,
                "end_time": 49.28181818181818,
                "pitch": 52,
                "velocity": 80,
                "duration": 0.38863636363636545,
                "tempo": 120.0
            },
            {
                "start_time": 49.3,
                "end_time": 49.554545454545455,
                "pitch": 52,
                "velocity": 80,
                "duration": 0.2545454545454575,
                "tempo": 120.0
            },
            {
                "start_time": 46.06363636363636,
                "end_time": 49.570454545454545,
                "pitch": 66,
                "velocity": 80,
                "duration": 3.5068181818181827,
                "tempo": 120.0
            },
            {
                "start_time": 48.224999999999994,
                "end_time": 50.224999999999994,
                "pitch": 0,
                "velocity": 80,
                "duration": 2.0,
                "tempo": 120.0
            },
            {
                "start_time": 49.570454545454545,
                "end_time": 50.224999999999994,
                "pitch": 55,
                "velocity": 80,
                "duration": 0.654545454545449,
                "tempo": 120.0
            },
            {
                "start_time": 50.224999999999994,
                "end_time": 50.24318181818182,
                "pitch": 55,
                "velocity": 80,
                "duration": 0.018181818181822962,
                "tempo": 120.0
            },
            {
                "start_time": 50.224999999999994,
                "end_time": 50.361363636363635,
                "pitch": 0,
                "velocity": 80,
                "duration": 0.13636363636364024,
                "tempo": 120.0
            },
            {
                "start_time": 50.24318181818182,
                "end_time": 50.361363636363635,
                "pitch": 55,
                "velocity": 80,
                "duration": 0.11818181818181728,
                "tempo": 120.0
            },
            {
                "start_time": 50.361363636363635,
                "end_time": 50.37954545454545,
                "pitch": 55,
                "velocity": 80,
                "duration": 0.018181818181815856,
                "tempo": 120.0
            },
            {
                "start_time": 50.24318181818182,
                "end_time": 50.37954545454545,
                "pitch": 67,
                "velocity": 80,
                "duration": 0.13636363636363313,
                "tempo": 120.0
            },
            {
                "start_time": 50.361363636363635,
                "end_time": 50.49772727272727,
                "pitch": 0,
                "velocity": 80,
                "duration": 0.13636363636363313,
                "tempo": 120.0
            },
            {
                "start_time": 50.37954545454545,
                "end_time": 50.49772727272727,
                "pitch": 55,
                "velocity": 80,
                "duration": 0.11818181818181728,
                "tempo": 120.0
            },
            {
                "start_time": 50.49772727272727,
                "end_time": 50.51363636363636,
                "pitch": 55,
                "velocity": 80,
                "duration": 0.01590909090909065,
                "tempo": 120.0
            },
            {
                "start_time": 50.37954545454545,
                "end_time": 50.51363636363636,
                "pitch": 67,
                "velocity": 80,
                "duration": 0.13409090909090793,
                "tempo": 120.0
            },
            {
                "start_time": 50.49772727272727,
                "end_time": 50.63409090909091,
                "pitch": 0,
                "velocity": 80,
                "duration": 0.13636363636364024,
                "tempo": 120.0
            },
            {
                "start_time": 50.51363636363636,
                "end_time": 50.63409090909091,
                "pitch": 55,
                "velocity": 80,
                "duration": 0.12045454545454959,
                "tempo": 120.0
            },
            {
                "start_time": 50.63409090909091,
                "end_time": 50.65,
                "pitch": 55,
                "velocity": 80,
                "duration": 0.01590909090909065,
                "tempo": 120.0
            },
            {
                "start_time": 50.51363636363636,
                "end_time": 50.65,
                "pitch": 67,
                "velocity": 80,
                "duration": 0.13636363636364024,
                "tempo": 120.0
            },
            {
                "start_time": 50.63409090909091,
                "end_time": 50.768181818181816,
                "pitch": 0,
                "velocity": 80,
                "duration": 0.13409090909090793,
                "tempo": 120.0
            },
            {
                "start_time": 50.65,
                "end_time": 50.768181818181816,
                "pitch": 55,
                "velocity": 80,
                "duration": 0.11818181818181728,
                "tempo": 120.0
            },
            {
                "start_time": 50.768181818181816,
                "end_time": 50.78409090909091,
                "pitch": 55,
                "velocity": 80,
                "duration": 0.01590909090909065,
                "tempo": 120.0
            },
            {
                "start_time": 50.65,
                "end_time": 50.78409090909091,
                "pitch": 67,
                "velocity": 80,
                "duration": 0.13409090909090793,
                "tempo": 120.0
            },
            {
                "start_time": 50.768181818181816,
                "end_time": 50.902272727272724,
                "pitch": 0,
                "velocity": 80,
                "duration": 0.13409090909090793,
                "tempo": 120.0
            },
            {
                "start_time": 50.78409090909091,
                "end_time": 50.902272727272724,
                "pitch": 55,
                "velocity": 80,
                "duration": 0.11818181818181728,
                "tempo": 120.0
            },
            {
                "start_time": 50.902272727272724,
                "end_time": 50.918181818181814,
                "pitch": 55,
                "velocity": 80,
                "duration": 0.01590909090909065,
                "tempo": 120.0
            },
            {
                "start_time": 50.78409090909091,
                "end_time": 50.918181818181814,
                "pitch": 67,
                "velocity": 80,
                "duration": 0.13409090909090793,
                "tempo": 120.0
            },
            {
                "start_time": 50.902272727272724,
                "end_time": 51.03636363636363,
                "pitch": 0,
                "velocity": 80,
                "duration": 0.13409090909090793,
                "tempo": 120.0
            },
            {
                "start_time": 50.918181818181814,
                "end_time": 51.03636363636363,
                "pitch": 55,
                "velocity": 80,
                "duration": 0.11818181818181728,
                "tempo": 120.0
            },
            {
                "start_time": 51.03636363636363,
                "end_time": 51.05227272727272,
                "pitch": 55,
                "velocity": 80,
                "duration": 0.01590909090909065,
                "tempo": 120.0
            },
            {
                "start_time": 50.918181818181814,
                "end_time": 51.05227272727272,
                "pitch": 67,
                "velocity": 80,
                "duration": 0.13409090909090793,
                "tempo": 120.0
            },
            {
                "start_time": 51.03636363636363,
                "end_time": 51.17045454545454,
                "pitch": 0,
                "velocity": 80,
                "duration": 0.13409090909090793,
                "tempo": 120.0
            },
            {
                "start_time": 51.05227272727272,
                "end_time": 51.17045454545454,
                "pitch": 55,
                "velocity": 80,
                "duration": 0.11818181818181728,
                "tempo": 120.0
            },
            {
                "start_time": 51.17045454545454,
                "end_time": 51.18636363636364,
                "pitch": 55,
                "velocity": 80,
                "duration": 0.015909090909097756,
                "tempo": 120.0
            },
            {
                "start_time": 51.05227272727272,
                "end_time": 51.18636363636364,
                "pitch": 67,
                "velocity": 80,
                "duration": 0.13409090909091503,
                "tempo": 120.0
            },
            {
                "start_time": 51.17045454545454,
                "end_time": 51.30227272727272,
                "pitch": 0,
                "velocity": 80,
                "duration": 0.13181818181818272,
                "tempo": 120.0
            },
            {
                "start_time": 51.18636363636364,
                "end_time": 51.30227272727272,
                "pitch": 55,
                "velocity": 80,
                "duration": 0.11590909090908497,
                "tempo": 120.0
            },
            {
                "start_time": 51.30227272727272,
                "end_time": 51.320454545454545,
                "pitch": 55,
                "velocity": 80,
                "duration": 0.018181818181822962,
                "tempo": 120.0
            },
            {
                "start_time": 51.18636363636364,
                "end_time": 51.320454545454545,
                "pitch": 67,
                "velocity": 80,
                "duration": 0.13409090909090793,
                "tempo": 120.0
            },
            {
                "start_time": 51.30227272727272,
                "end_time": 51.43636363636364,
                "pitch": 0,
                "velocity": 80,
                "duration": 0.13409090909091503,
                "tempo": 120.0
            },
            {
                "start_time": 51.320454545454545,
                "end_time": 51.43636363636364,
                "pitch": 55,
                "velocity": 80,
                "duration": 0.11590909090909207,
                "tempo": 120.0
            },
            {
                "start_time": 51.43636363636364,
                "end_time": 51.45454545454545,
                "pitch": 55,
                "velocity": 80,
                "duration": 0.018181818181815856,
                "tempo": 120.0
            },
            {
                "start_time": 51.320454545454545,
                "end_time": 51.45454545454545,
                "pitch": 67,
                "velocity": 80,
                "duration": 0.13409090909090793,
                "tempo": 120.0
            },
            {
                "start_time": 51.43636363636364,
                "end_time": 51.570454545454545,
                "pitch": 0,
                "velocity": 80,
                "duration": 0.13409090909090793,
                "tempo": 120.0
            },
            {
                "start_time": 51.45454545454545,
                "end_time": 51.570454545454545,
                "pitch": 55,
                "velocity": 80,
                "duration": 0.11590909090909207,
                "tempo": 120.0
            },
            {
                "start_time": 51.570454545454545,
                "end_time": 51.586363636363636,
                "pitch": 55,
                "velocity": 80,
                "duration": 0.01590909090909065,
                "tempo": 120.0
            },
            {
                "start_time": 51.45454545454545,
                "end_time": 51.58863636363636,
                "pitch": 67,
                "velocity": 80,
                "duration": 0.13409090909090793,
                "tempo": 120.0
            },
            {
                "start_time": 51.586363636363636,
                "end_time": 51.58863636363636,
                "pitch": 67,
                "velocity": 80,
                "duration": 0.0022727272727252057,
                "tempo": 120.0
            },
            {
                "start_time": 51.58863636363636,
                "end_time": 51.70454545454545,
                "pitch": 55,
                "velocity": 80,
                "duration": 0.11590909090909207,
                "tempo": 120.0
            }
        ],
        "French Horn": [
            {
                "start_time": 68.97727272727272,
                "end_time": 72.22272727272727,
                "pitch": 48,
                "velocity": 64,
                "duration": 3.2454545454545496,
                "tempo": 120.0
            },
            {
                "start_time": 72.5090909090909,
                "end_time": 72.7590909090909,
                "pitch": 46,
                "velocity": 64,
                "duration": 0.25,
                "tempo": 120.0
            },
            {
                "start_time": 72.9090909090909,
                "end_time": 73.29545454545455,
                "pitch": 46,
                "velocity": 64,
                "duration": 0.38636363636364024,
                "tempo": 120.0
            },
            {
                "start_time": 73.31363636363636,
                "end_time": 76.5340909090909,
                "pitch": 48,
                "velocity": 64,
                "duration": 3.220454545454544,
                "tempo": 120.0
            },
            {
                "start_time": 76.81818181818181,
                "end_time": 77.07045454545454,
                "pitch": 48,
                "velocity": 64,
                "duration": 0.2522727272727252,
                "tempo": 120.0
            },
            {
                "start_time": 77.22272727272727,
                "end_time": 77.61363636363636,
                "pitch": 48,
                "velocity": 64,
                "duration": 0.39090909090909065,
                "tempo": 120.0
            },
            {
                "start_time": 77.63181818181818,
                "end_time": 80.85227272727272,
                "pitch": 48,
                "velocity": 64,
                "duration": 3.220454545454544,
                "tempo": 120.0
            },
            {
                "start_time": 72.5090909090909,
                "end_time": 81.12954545454545,
                "pitch": 52,
                "velocity": 64,
                "duration": 8.62045454545455,
                "tempo": 120.0
            },
            {
                "start_time": 81.12954545454545,
                "end_time": 81.37045454545454,
                "pitch": 46,
                "velocity": 64,
                "duration": 0.24090909090908497,
                "tempo": 120.0
            },
            {
                "start_time": 81.52499999999999,
                "end_time": 81.92272727272727,
                "pitch": 46,
                "velocity": 64,
                "duration": 0.3977272727272805,
                "tempo": 120.0
            },
            {
                "start_time": 73.31363636363636,
                "end_time": 81.94318181818181,
                "pitch": 26,
                "velocity": 64,
                "duration": 8.62954545454545,
                "tempo": 120.0
            },
            {
                "start_time": 81.94318181818181,
                "end_time": 85.16136363636363,
                "pitch": 48,
                "velocity": 64,
                "duration": 3.2181818181818187,
                "tempo": 120.0
            },
            {
                "start_time": 85.44545454545454,
                "end_time": 85.69090909090909,
                "pitch": 48,
                "velocity": 64,
                "duration": 0.2454545454545496,
                "tempo": 120.0
            },
            {
                "start_time": 85.83636363636363,
                "end_time": 86.20681818181818,
                "pitch": 48,
                "velocity": 64,
                "duration": 0.3704545454545496,
                "tempo": 120.0
            }
        ],
        "Acoustic Bass": [
            {
                "start_time": 0.0022727272727272726,
                "end_time": 0.3795454545454545,
                "pitch": 41,
                "velocity": 64,
                "duration": 0.37727272727272726,
                "tempo": 120.0
            },
            {
                "start_time": 0.3977272727272727,
                "end_time": 0.5136363636363636,
                "pitch": 41,
                "velocity": 64,
                "duration": 0.11590909090909085,
                "tempo": 120.0
            },
            {
                "start_time": 0.7954545454545454,
                "end_time": 1.584090909090909,
                "pitch": 41,
                "velocity": 64,
                "duration": 0.7886363636363636,
                "tempo": 120.0
            },
            {
                "start_time": 1.6022727272727273,
                "end_time": 2.120454545454545,
                "pitch": 36,
                "velocity": 64,
                "duration": 0.5181818181818179,
                "tempo": 120.0
            },
            {
                "start_time": 1.6022727272727273,
                "end_time": 2.5272727272727273,
                "pitch": 41,
                "velocity": 64,
                "duration": 0.925,
                "tempo": 120.0
            },
            {
                "start_time": 2.1386363636363637,
                "end_time": 2.5272727272727273,
                "pitch": 41,
                "velocity": 64,
                "duration": 0.38863636363636367,
                "tempo": 120.0
            },
            {
                "start_time": 2.5454545454545454,
                "end_time": 2.6636363636363636,
                "pitch": 41,
                "velocity": 64,
                "duration": 0.11818181818181817,
                "tempo": 120.0
            },
            {
                "start_time": 2.9477272727272728,
                "end_time": 3.734090909090909,
                "pitch": 41,
                "velocity": 64,
                "duration": 0.7863636363636362,
                "tempo": 120.0
            },
            {
                "start_time": 2.1386363636363637,
                "end_time": 4.279545454545454,
                "pitch": 36,
                "velocity": 64,
                "duration": 2.1409090909090907,
                "tempo": 120.0
            },
            {
                "start_time": 3.752272727272727,
                "end_time": 4.279545454545454,
                "pitch": 36,
                "velocity": 64,
                "duration": 0.5272727272727273,
                "tempo": 120.0
            },
            {
                "start_time": 3.752272727272727,
                "end_time": 4.679545454545455,
                "pitch": 41,
                "velocity": 64,
                "duration": 0.9272727272727277,
                "tempo": 120.0
            },
            {
                "start_time": 4.295454545454545,
                "end_time": 4.679545454545455,
                "pitch": 41,
                "velocity": 64,
                "duration": 0.3840909090909097,
                "tempo": 120.0
            },
            {
                "start_time": 4.697727272727272,
                "end_time": 4.8136363636363635,
                "pitch": 41,
                "velocity": 64,
                "duration": 0.11590909090909118,
                "tempo": 120.0
            },
            {
                "start_time": 5.1045454545454545,
                "end_time": 5.893181818181818,
                "pitch": 41,
                "velocity": 64,
                "duration": 0.7886363636363631,
                "tempo": 120.0
            },
            {
                "start_time": 5.911363636363636,
                "end_time": 6.429545454545455,
                "pitch": 41,
                "velocity": 64,
                "duration": 0.5181818181818185,
                "tempo": 120.0
            },
            {
                "start_time": 6.447727272727272,
                "end_time": 6.836363636363636,
                "pitch": 43,
                "velocity": 64,
                "duration": 0.38863636363636367,
                "tempo": 120.0
            },
            {
                "start_time": 6.8545454545454545,
                "end_time": 6.972727272727273,
                "pitch": 43,
                "velocity": 64,
                "duration": 0.11818181818181817,
                "tempo": 120.0
            },
            {
                "start_time": 7.259090909090909,
                "end_time": 8.043181818181818,
                "pitch": 43,
                "velocity": 64,
                "duration": 0.7840909090909092,
                "tempo": 120.0
            },
            {
                "start_time": 0.0022727272727272726,
                "end_time": 8.061363636363636,
                "pitch": 0,
                "velocity": 64,
                "duration": 8.059090909090909,
                "tempo": 120.0
            },
            {
                "start_time": 8.061363636363636,
                "end_time": 8.588636363636363,
                "pitch": 38,
                "velocity": 64,
                "duration": 0.5272727272727273,
                "tempo": 120.0
            },
            {
                "start_time": 8.60681818181818,
                "end_time": 8.99090909090909,
                "pitch": 43,
                "velocity": 64,
                "duration": 0.3840909090909097,
                "tempo": 120.0
            },
            {
                "start_time": 9.006818181818181,
                "end_time": 9.122727272727273,
                "pitch": 43,
                "velocity": 64,
                "duration": 0.11590909090909207,
                "tempo": 120.0
            },
            {
                "start_time": 9.413636363636364,
                "end_time": 10.213636363636363,
                "pitch": 43,
                "velocity": 64,
                "duration": 0.7999999999999989,
                "tempo": 120.0
            },
            {
                "start_time": 10.229545454545454,
                "end_time": 10.738636363636363,
                "pitch": 43,
                "velocity": 64,
                "duration": 0.5090909090909097,
                "tempo": 120.0
            },
            {
                "start_time": 10.756818181818181,
                "end_time": 11.147727272727272,
                "pitch": 44,
                "velocity": 64,
                "duration": 0.39090909090909065,
                "tempo": 120.0
            },
            {
                "start_time": 11.163636363636362,
                "end_time": 11.284090909090908,
                "pitch": 45,
                "velocity": 64,
                "duration": 0.12045454545454604,
                "tempo": 120.0
            },
            {
                "start_time": 11.572727272727272,
                "end_time": 11.827272727272726,
                "pitch": 45,
                "velocity": 64,
                "duration": 0.25454545454545396,
                "tempo": 120.0
            },
            {
                "start_time": 11.845454545454546,
                "end_time": 12.363636363636363,
                "pitch": 50,
                "velocity": 64,
                "duration": 0.5181818181818176,
                "tempo": 120.0
            },
            {
                "start_time": 12.381818181818181,
                "end_time": 12.897727272727272,
                "pitch": 48,
                "velocity": 64,
                "duration": 0.5159090909090907,
                "tempo": 120.0
            },
            {
                "start_time": 12.915909090909091,
                "end_time": 13.306818181818182,
                "pitch": 46,
                "velocity": 64,
                "duration": 0.39090909090909065,
                "tempo": 120.0
            },
            {
                "start_time": 13.322727272727272,
                "end_time": 13.443181818181818,
                "pitch": 46,
                "velocity": 64,
                "duration": 0.12045454545454604,
                "tempo": 120.0
            },
            {
                "start_time": 13.727272727272727,
                "end_time": 14.513636363636364,
                "pitch": 46,
                "velocity": 64,
                "duration": 0.786363636363637,
                "tempo": 120.0
            },
            {
                "start_time": 14.531818181818181,
                "end_time": 15.056818181818182,
                "pitch": 46,
                "velocity": 64,
                "duration": 0.5250000000000004,
                "tempo": 120.0
            },
            {
                "start_time": 15.075,
                "end_time": 15.459090909090909,
                "pitch": 48,
                "velocity": 64,
                "duration": 0.3840909090909097,
                "tempo": 120.0
            },
            {
                "start_time": 15.477272727272727,
                "end_time": 15.593181818181817,
                "pitch": 48,
                "velocity": 64,
                "duration": 0.1159090909090903,
                "tempo": 120.0
            },
            {
                "start_time": 15.877272727272727,
                "end_time": 16.4,
                "pitch": 48,
                "velocity": 64,
                "duration": 0.5227272727272716,
                "tempo": 120.0
            },
            {
                "start_time": 4.295454545454545,
                "end_time": 16.672727272727272,
                "pitch": 36,
                "velocity": 64,
                "duration": 12.377272727272727,
                "tempo": 120.0
            },
            {
                "start_time": 16.418181818181818,
                "end_time": 16.672727272727272,
                "pitch": 36,
                "velocity": 64,
                "duration": 0.25454545454545396,
                "tempo": 120.0
            },
            {
                "start_time": 16.69090909090909,
                "end_time": 16.94090909090909,
                "pitch": 38,
                "velocity": 64,
                "duration": 0.25,
                "tempo": 120.0
            },
            {
                "start_time": 16.956818181818182,
                "end_time": 17.209090909090907,
                "pitch": 40,
                "velocity": 64,
                "duration": 0.2522727272727252,
                "tempo": 120.0
            },
            {
                "start_time": 17.224999999999998,
                "end_time": 17.61590909090909,
                "pitch": 40,
                "velocity": 64,
                "duration": 0.39090909090909065,
                "tempo": 120.0
            },
            {
                "start_time": 17.634090909090908,
                "end_time": 17.752272727272725,
                "pitch": 41,
                "velocity": 64,
                "duration": 0.11818181818181728,
                "tempo": 120.0
            },
            {
                "start_time": 18.043181818181818,
                "end_time": 18.831818181818182,
                "pitch": 41,
                "velocity": 64,
                "duration": 0.788636363636364,
                "tempo": 120.0
            },
            {
                "start_time": 16.69090909090909,
                "end_time": 19.368181818181817,
                "pitch": 36,
                "velocity": 64,
                "duration": 2.677272727272726,
                "tempo": 120.0
            },
            {
                "start_time": 18.849999999999998,
                "end_time": 19.368181818181817,
                "pitch": 36,
                "velocity": 64,
                "duration": 0.5181818181818194,
                "tempo": 120.0
            },
            {
                "start_time": 18.849999999999998,
                "end_time": 19.775,
                "pitch": 41,
                "velocity": 64,
                "duration": 0.9250000000000007,
                "tempo": 120.0
            },
            {
                "start_time": 19.386363636363637,
                "end_time": 19.775,
                "pitch": 41,
                "velocity": 64,
                "duration": 0.3886363636363619,
                "tempo": 120.0
            },
            {
                "start_time": 19.793181818181818,
                "end_time": 19.911363636363635,
                "pitch": 41,
                "velocity": 64,
                "duration": 0.11818181818181728,
                "tempo": 120.0
            },
            {
                "start_time": 20.19772727272727,
                "end_time": 20.98181818181818,
                "pitch": 41,
                "velocity": 64,
                "duration": 0.7840909090909101,
                "tempo": 120.0
            },
            {
                "start_time": 19.386363636363637,
                "end_time": 21.527272727272727,
                "pitch": 36,
                "velocity": 64,
                "duration": 2.1409090909090907,
                "tempo": 120.0
            },
            {
                "start_time": 21.0,
                "end_time": 21.527272727272727,
                "pitch": 36,
                "velocity": 64,
                "duration": 0.5272727272727273,
                "tempo": 120.0
            },
            {
                "start_time": 21.0,
                "end_time": 21.929545454545455,
                "pitch": 41,
                "velocity": 64,
                "duration": 0.9295454545454547,
                "tempo": 120.0
            },
            {
                "start_time": 21.545454545454543,
                "end_time": 21.929545454545455,
                "pitch": 41,
                "velocity": 64,
                "duration": 0.3840909090909115,
                "tempo": 120.0
            },
            {
                "start_time": 21.945454545454545,
                "end_time": 22.063636363636363,
                "pitch": 41,
                "velocity": 64,
                "duration": 0.11818181818181728,
                "tempo": 120.0
            },
            {
                "start_time": 22.352272727272727,
                "end_time": 23.143181818181816,
                "pitch": 41,
                "velocity": 64,
                "duration": 0.7909090909090892,
                "tempo": 120.0
            },
            {
                "start_time": 23.159090909090907,
                "end_time": 23.677272727272726,
                "pitch": 41,
                "velocity": 64,
                "duration": 0.5181818181818194,
                "tempo": 120.0
            },
            {
                "start_time": 6.447727272727272,
                "end_time": 23.695454545454545,
                "pitch": 54,
                "velocity": 64,
                "duration": 17.247727272727275,
                "tempo": 120.0
            },
            {
                "start_time": 23.695454545454545,
                "end_time": 24.086363636363636,
                "pitch": 43,
                "velocity": 64,
                "duration": 0.39090909090909065,
                "tempo": 120.0
            },
            {
                "start_time": 24.102272727272727,
                "end_time": 24.220454545454544,
                "pitch": 43,
                "velocity": 64,
                "duration": 0.11818181818181728,
                "tempo": 120.0
            },
            {
                "start_time": 24.50681818181818,
                "end_time": 25.293181818181818,
                "pitch": 43,
                "velocity": 64,
                "duration": 0.7863636363636388,
                "tempo": 120.0
            },
            {
                "start_time": 8.061363636363636,
                "end_time": 25.30909090909091,
                "pitch": 0,
                "velocity": 64,
                "duration": 17.247727272727275,
                "tempo": 120.0
            },
            {
                "start_time": 16.956818181818182,
                "end_time": 25.836363636363636,
                "pitch": 38,
                "velocity": 64,
                "duration": 8.879545454545454,
                "tempo": 120.0
            },
            {
                "start_time": 25.30909090909091,
                "end_time": 25.836363636363636,
                "pitch": 38,
                "velocity": 64,
                "duration": 0.5272727272727273,
                "tempo": 120.0
            },
            {
                "start_time": 8.60681818181818,
                "end_time": 25.854545454545452,
                "pitch": 53,
                "velocity": 64,
                "duration": 17.24772727272727,
                "tempo": 120.0
            },
            {
                "start_time": 25.854545454545452,
                "end_time": 26.238636363636363,
                "pitch": 43,
                "velocity": 64,
                "duration": 0.3840909090909115,
                "tempo": 120.0
            },
            {
                "start_time": 26.254545454545454,
                "end_time": 26.37272727272727,
                "pitch": 43,
                "velocity": 64,
                "duration": 0.11818181818181728,
                "tempo": 120.0
            },
            {
                "start_time": 26.661363636363635,
                "end_time": 27.461363636363636,
                "pitch": 43,
                "velocity": 64,
                "duration": 0.8000000000000007,
                "tempo": 120.0
            },
            {
                "start_time": 27.479545454545452,
                "end_time": 27.99772727272727,
                "pitch": 43,
                "velocity": 64,
                "duration": 0.5181818181818194,
                "tempo": 120.0
            },
            {
                "start_time": 28.013636363636362,
                "end_time": 28.39772727272727,
                "pitch": 44,
                "velocity": 64,
                "duration": 0.38409090909090793,
                "tempo": 120.0
            },
            {
                "start_time": 28.41590909090909,
                "end_time": 28.53181818181818,
                "pitch": 45,
                "velocity": 64,
                "duration": 0.11590909090909207,
                "tempo": 120.0
            },
            {
                "start_time": 28.818181818181817,
                "end_time": 29.065909090909088,
                "pitch": 45,
                "velocity": 64,
                "duration": 0.24772727272727124,
                "tempo": 120.0
            },
            {
                "start_time": 11.845454545454546,
                "end_time": 29.084090909090907,
                "pitch": 19,
                "velocity": 64,
                "duration": 17.23863636363636,
                "tempo": 120.0
            },
            {
                "start_time": 12.381818181818181,
                "end_time": 29.33863636363636,
                "pitch": 50,
                "velocity": 64,
                "duration": 16.95681818181818,
                "tempo": 120.0
            },
            {
                "start_time": 29.084090909090907,
                "end_time": 29.33863636363636,
                "pitch": 50,
                "velocity": 64,
                "duration": 0.25454545454545396,
                "tempo": 120.0
            },
            {
                "start_time": 29.629545454545454,
                "end_time": 30.14772727272727,
                "pitch": 48,
                "velocity": 64,
                "duration": 0.5181818181818159,
                "tempo": 120.0
            },
            {
                "start_time": 12.915909090909091,
                "end_time": 30.16363636363636,
                "pitch": 52,
                "velocity": 64,
                "duration": 17.247727272727268,
                "tempo": 120.0
            },
            {
                "start_time": 30.16363636363636,
                "end_time": 30.554545454545455,
                "pitch": 46,
                "velocity": 64,
                "duration": 0.3909090909090942,
                "tempo": 120.0
            },
            {
                "start_time": 30.57272727272727,
                "end_time": 30.690909090909088,
                "pitch": 46,
                "velocity": 64,
                "duration": 0.11818181818181728,
                "tempo": 120.0
            },
            {
                "start_time": 30.974999999999998,
                "end_time": 31.227272727272727,
                "pitch": 46,
                "velocity": 64,
                "duration": 0.25227272727272876,
                "tempo": 120.0
            },
            {
                "start_time": 15.075,
                "end_time": 31.243181818181817,
                "pitch": 32,
                "velocity": 64,
                "duration": 16.168181818181818,
                "tempo": 120.0
            },
            {
                "start_time": 31.243181818181817,
                "end_time": 31.627272727272725,
                "pitch": 48,
                "velocity": 64,
                "duration": 0.38409090909090793,
                "tempo": 120.0
            },
            {
                "start_time": 31.645454545454545,
                "end_time": 31.761363636363633,
                "pitch": 48,
                "velocity": 64,
                "duration": 0.11590909090908852,
                "tempo": 120.0
            },
            {
                "start_time": 21.545454545454543,
                "end_time": 32.30681818181818,
                "pitch": 36,
                "velocity": 64,
                "duration": 10.761363636363637,
                "tempo": 120.0
            },
            {
                "start_time": 32.05227272727272,
                "end_time": 32.30681818181818,
                "pitch": 36,
                "velocity": 64,
                "duration": 0.2545454545454575,
                "tempo": 120.0
            },
            {
                "start_time": 32.324999999999996,
                "end_time": 32.70681818181818,
                "pitch": 41,
                "velocity": 64,
                "duration": 0.3818181818181827,
                "tempo": 120.0
            },
            {
                "start_time": 32.725,
                "end_time": 32.840909090909086,
                "pitch": 41,
                "velocity": 64,
                "duration": 0.11590909090908497,
                "tempo": 120.0
            },
            {
                "start_time": 33.125,
                "end_time": 33.92045454545455,
                "pitch": 41,
                "velocity": 64,
                "duration": 0.7954545454545467,
                "tempo": 120.0
            },
            {
                "start_time": 33.93863636363636,
                "end_time": 34.465909090909086,
                "pitch": 41,
                "velocity": 64,
                "duration": 0.5272727272727238,
                "tempo": 120.0
            },
            {
                "start_time": 23.695454545454545,
                "end_time": 34.48409090909091,
                "pitch": 54,
                "velocity": 64,
                "duration": 10.788636363636364,
                "tempo": 120.0
            },
            {
                "start_time": 34.48409090909091,
                "end_time": 34.86818181818182,
                "pitch": 43,
                "velocity": 64,
                "duration": 0.38409090909090793,
                "tempo": 120.0
            },
            {
                "start_time": 34.88409090909091,
                "end_time": 35.0,
                "pitch": 43,
                "velocity": 64,
                "duration": 0.11590909090909207,
                "tempo": 120.0
            },
            {
                "start_time": 35.28636363636363,
                "end_time": 35.53636363636363,
                "pitch": 43,
                "velocity": 64,
                "duration": 0.25,
                "tempo": 120.0
            },
            {
                "start_time": 25.30909090909091,
                "end_time": 35.824999999999996,
                "pitch": 0,
                "velocity": 64,
                "duration": 10.515909090909087,
                "tempo": 120.0
            },
            {
                "start_time": 32.324999999999996,
                "end_time": 36.07954545454545,
                "pitch": 36,
                "velocity": 64,
                "duration": 3.7545454545454575,
                "tempo": 120.0
            },
            {
                "start_time": 35.824999999999996,
                "end_time": 36.07954545454545,
                "pitch": 36,
                "velocity": 64,
                "duration": 0.2545454545454575,
                "tempo": 120.0
            },
            {
                "start_time": 36.09772727272727,
                "end_time": 36.61590909090909,
                "pitch": 36,
                "velocity": 64,
                "duration": 0.518181818181823,
                "tempo": 120.0
            },
            {
                "start_time": 36.63409090909091,
                "end_time": 37.025,
                "pitch": 41,
                "velocity": 64,
                "duration": 0.39090909090909065,
                "tempo": 120.0
            },
            {
                "start_time": 37.04090909090909,
                "end_time": 37.15909090909091,
                "pitch": 41,
                "velocity": 64,
                "duration": 0.11818181818181728,
                "tempo": 120.0
            },
            {
                "start_time": 37.445454545454545,
                "end_time": 37.695454545454545,
                "pitch": 41,
                "velocity": 64,
                "duration": 0.25,
                "tempo": 120.0
            },
            {
                "start_time": 37.98181818181818,
                "end_time": 38.23181818181818,
                "pitch": 41,
                "velocity": 64,
                "duration": 0.25,
                "tempo": 120.0
            },
            {
                "start_time": 38.24772727272727,
                "end_time": 38.775,
                "pitch": 42,
                "velocity": 64,
                "duration": 0.5272727272727309,
                "tempo": 120.0
            },
            {
                "start_time": 34.48409090909091,
                "end_time": 38.793181818181814,
                "pitch": 54,
                "velocity": 64,
                "duration": 4.309090909090905,
                "tempo": 120.0
            },
            {
                "start_time": 38.793181818181814,
                "end_time": 39.17727272727272,
                "pitch": 43,
                "velocity": 64,
                "duration": 0.38409090909090793,
                "tempo": 120.0
            },
            {
                "start_time": 39.195454545454545,
                "end_time": 39.31136363636364,
                "pitch": 43,
                "velocity": 64,
                "duration": 0.11590909090909207,
                "tempo": 120.0
            },
            {
                "start_time": 39.595454545454544,
                "end_time": 39.845454545454544,
                "pitch": 43,
                "velocity": 64,
                "duration": 0.25,
                "tempo": 120.0
            },
            {
                "start_time": 35.824999999999996,
                "end_time": 40.13636363636363,
                "pitch": 0,
                "velocity": 64,
                "duration": 4.311363636363637,
                "tempo": 120.0
            },
            {
                "start_time": 36.63409090909091,
                "end_time": 40.39090909090909,
                "pitch": 36,
                "velocity": 64,
                "duration": 3.7568181818181827,
                "tempo": 120.0
            },
            {
                "start_time": 40.13636363636363,
                "end_time": 40.39090909090909,
                "pitch": 36,
                "velocity": 64,
                "duration": 0.2545454545454575,
                "tempo": 120.0
            },
            {
                "start_time": 40.40681818181818,
                "end_time": 40.934090909090905,
                "pitch": 36,
                "velocity": 64,
                "duration": 0.5272727272727238,
                "tempo": 120.0
            },
            {
                "start_time": 40.95227272727273,
                "end_time": 41.336363636363636,
                "pitch": 41,
                "velocity": 64,
                "duration": 0.38409090909090793,
                "tempo": 120.0
            },
            {
                "start_time": 41.35454545454545,
                "end_time": 41.470454545454544,
                "pitch": 41,
                "velocity": 64,
                "duration": 0.11590909090909207,
                "tempo": 120.0
            },
            {
                "start_time": 41.75454545454545,
                "end_time": 42.00681818181818,
                "pitch": 41,
                "velocity": 64,
                "duration": 0.2522727272727323,
                "tempo": 120.0
            },
            {
                "start_time": 42.02272727272727,
                "end_time": 42.27272727272727,
                "pitch": 41,
                "velocity": 64,
                "duration": 0.25,
                "tempo": 120.0
            },
            {
                "start_time": 42.55681818181818,
                "end_time": 43.086363636363636,
                "pitch": 41,
                "velocity": 64,
                "duration": 0.5295454545454561,
                "tempo": 120.0
            },
            {
                "start_time": 38.793181818181814,
                "end_time": 43.10227272727273,
                "pitch": 54,
                "velocity": 64,
                "duration": 4.309090909090912,
                "tempo": 120.0
            },
            {
                "start_time": 43.10227272727273,
                "end_time": 43.49318181818182,
                "pitch": 43,
                "velocity": 64,
                "duration": 0.39090909090909065,
                "tempo": 120.0
            },
            {
                "start_time": 43.51136363636363,
                "end_time": 43.62954545454545,
                "pitch": 43,
                "velocity": 64,
                "duration": 0.11818181818181728,
                "tempo": 120.0
            },
            {
                "start_time": 43.91136363636363,
                "end_time": 44.15681818181818,
                "pitch": 43,
                "velocity": 64,
                "duration": 0.2454545454545496,
                "tempo": 120.0
            },
            {
                "start_time": 40.13636363636363,
                "end_time": 44.445454545454545,
                "pitch": 0,
                "velocity": 64,
                "duration": 4.309090909090912,
                "tempo": 120.0
            },
            {
                "start_time": 40.95227272727273,
                "end_time": 44.699999999999996,
                "pitch": 36,
                "velocity": 64,
                "duration": 3.7477272727272677,
                "tempo": 120.0
            },
            {
                "start_time": 44.445454545454545,
                "end_time": 44.699999999999996,
                "pitch": 36,
                "velocity": 64,
                "duration": 0.2545454545454504,
                "tempo": 120.0
            },
            {
                "start_time": 44.71818181818182,
                "end_time": 44.96818181818182,
                "pitch": 36,
                "velocity": 64,
                "duration": 0.25,
                "tempo": 120.0
            },
            {
                "start_time": 44.986363636363635,
                "end_time": 45.236363636363635,
                "pitch": 36,
                "velocity": 64,
                "duration": 0.25,
                "tempo": 120.0
            },
            {
                "start_time": 45.25454545454545,
                "end_time": 45.643181818181816,
                "pitch": 37,
                "velocity": 64,
                "duration": 0.38863636363636545,
                "tempo": 120.0
            },
            {
                "start_time": 45.66136363636363,
                "end_time": 45.77954545454545,
                "pitch": 38,
                "velocity": 64,
                "duration": 0.11818181818181728,
                "tempo": 120.0
            },
            {
                "start_time": 46.06590909090909,
                "end_time": 46.586363636363636,
                "pitch": 38,
                "velocity": 64,
                "duration": 0.5204545454545482,
                "tempo": 120.0
            },
            {
                "start_time": 46.60454545454545,
                "end_time": 46.85909090909091,
                "pitch": 38,
                "velocity": 64,
                "duration": 0.2545454545454575,
                "tempo": 120.0
            },
            {
                "start_time": 46.877272727272725,
                "end_time": 47.127272727272725,
                "pitch": 40,
                "velocity": 64,
                "duration": 0.25,
                "tempo": 120.0
            },
            {
                "start_time": 47.14545454545454,
                "end_time": 47.39545454545454,
                "pitch": 40,
                "velocity": 64,
                "duration": 0.25,
                "tempo": 120.0
            },
            {
                "start_time": 43.10227272727273,
                "end_time": 47.413636363636364,
                "pitch": 54,
                "velocity": 64,
                "duration": 4.311363636363637,
                "tempo": 120.0
            },
            {
                "start_time": 47.413636363636364,
                "end_time": 47.80227272727272,
                "pitch": 46,
                "velocity": 64,
                "duration": 0.38863636363635834,
                "tempo": 120.0
            },
            {
                "start_time": 47.820454545454545,
                "end_time": 47.93863636363636,
                "pitch": 46,
                "velocity": 64,
                "duration": 0.11818181818181728,
                "tempo": 120.0
            },
            {
                "start_time": 48.224999999999994,
                "end_time": 48.74318181818182,
                "pitch": 46,
                "velocity": 64,
                "duration": 0.518181818181823,
                "tempo": 120.0
            },
            {
                "start_time": 48.75909090909091,
                "end_time": 49.00909090909091,
                "pitch": 46,
                "velocity": 64,
                "duration": 0.25,
                "tempo": 120.0
            },
            {
                "start_time": 49.027272727272724,
                "end_time": 49.28181818181818,
                "pitch": 45,
                "velocity": 64,
                "duration": 0.2545454545454575,
                "tempo": 120.0
            },
            {
                "start_time": 49.3,
                "end_time": 49.554545454545455,
                "pitch": 46,
                "velocity": 64,
                "duration": 0.2545454545454575,
                "tempo": 120.0
            },
            {
                "start_time": 31.243181818181817,
                "end_time": 49.57272727272727,
                "pitch": 32,
                "velocity": 64,
                "duration": 18.329545454545453,
                "tempo": 120.0
            },
            {
                "start_time": 49.57272727272727,
                "end_time": 49.82272727272727,
                "pitch": 48,
                "velocity": 64,
                "duration": 0.25,
                "tempo": 120.0
            },
            {
                "start_time": 49.83863636363636,
                "end_time": 50.08863636363636,
                "pitch": 36,
                "velocity": 64,
                "duration": 0.25,
                "tempo": 120.0
            },
            {
                "start_time": 50.10681818181818,
                "end_time": 50.361363636363635,
                "pitch": 40,
                "velocity": 64,
                "duration": 0.2545454545454575,
                "tempo": 120.0
            },
            {
                "start_time": 47.413636363636364,
                "end_time": 50.37954545454545,
                "pitch": 54,
                "velocity": 64,
                "duration": 2.9659090909090864,
                "tempo": 120.0
            },
            {
                "start_time": 50.37954545454545,
                "end_time": 50.63409090909091,
                "pitch": 43,
                "velocity": 64,
                "duration": 0.2545454545454575,
                "tempo": 120.0
            },
            {
                "start_time": 44.445454545454545,
                "end_time": 50.652272727272724,
                "pitch": 0,
                "velocity": 64,
                "duration": 6.2068181818181785,
                "tempo": 120.0
            },
            {
                "start_time": 50.652272727272724,
                "end_time": 50.902272727272724,
                "pitch": 48,
                "velocity": 64,
                "duration": 0.25,
                "tempo": 120.0
            },
            {
                "start_time": 50.10681818181818,
                "end_time": 51.70454545454545,
                "pitch": 36,
                "velocity": 64,
                "duration": 1.5977272727272762,
                "tempo": 120.0
            },
            {
                "start_time": 51.18636363636364,
                "end_time": 51.70454545454545,
                "pitch": 36,
                "velocity": 64,
                "duration": 0.5181818181818159,
                "tempo": 120.0
            },
            {
                "start_time": 51.72272727272727,
                "end_time": 52.11363636363636,
                "pitch": 41,
                "velocity": 64,
                "duration": 0.39090909090909065,
                "tempo": 120.0
            },
            {
                "start_time": 52.12954545454545,
                "end_time": 52.25,
                "pitch": 41,
                "velocity": 64,
                "duration": 0.12045454545454959,
                "tempo": 120.0
            },
            {
                "start_time": 52.538636363636364,
                "end_time": 53.32954545454545,
                "pitch": 41,
                "velocity": 64,
                "duration": 0.7909090909090892,
                "tempo": 120.0
            },
            {
                "start_time": 51.72272727272727,
                "end_time": 53.86363636363636,
                "pitch": 36,
                "velocity": 64,
                "duration": 2.1409090909090907,
                "tempo": 120.0
            },
            {
                "start_time": 53.345454545454544,
                "end_time": 53.86363636363636,
                "pitch": 36,
                "velocity": 64,
                "duration": 0.5181818181818159,
                "tempo": 120.0
            },
            {
                "start_time": 53.345454545454544,
                "end_time": 54.27272727272727,
                "pitch": 41,
                "velocity": 64,
                "duration": 0.9272727272727295,
                "tempo": 120.0
            },
            {
                "start_time": 53.88181818181818,
                "end_time": 54.27272727272727,
                "pitch": 41,
                "velocity": 64,
                "duration": 0.39090909090909065,
                "tempo": 120.0
            },
            {
                "start_time": 54.288636363636364,
                "end_time": 54.40909090909091,
                "pitch": 41,
                "velocity": 64,
                "duration": 0.12045454545454248,
                "tempo": 120.0
            },
            {
                "start_time": 54.69318181818181,
                "end_time": 55.47954545454545,
                "pitch": 41,
                "velocity": 64,
                "duration": 0.7863636363636388,
                "tempo": 120.0
            },
            {
                "start_time": 53.88181818181818,
                "end_time": 56.025,
                "pitch": 36,
                "velocity": 64,
                "duration": 2.143181818181816,
                "tempo": 120.0
            },
            {
                "start_time": 55.49545454545454,
                "end_time": 56.025,
                "pitch": 36,
                "velocity": 64,
                "duration": 0.5295454545454561,
                "tempo": 120.0
            },
            {
                "start_time": 55.49545454545454,
                "end_time": 56.425,
                "pitch": 41,
                "velocity": 64,
                "duration": 0.9295454545454547,
                "tempo": 120.0
            },
            {
                "start_time": 56.04090909090909,
                "end_time": 56.425,
                "pitch": 41,
                "velocity": 64,
                "duration": 0.38409090909090793,
                "tempo": 120.0
            },
            {
                "start_time": 56.44318181818181,
                "end_time": 56.559090909090905,
                "pitch": 41,
                "velocity": 64,
                "duration": 0.11590909090909207,
                "tempo": 120.0
            },
            {
                "start_time": 56.849999999999994,
                "end_time": 57.63863636363636,
                "pitch": 41,
                "velocity": 64,
                "duration": 0.788636363636364,
                "tempo": 120.0
            },
            {
                "start_time": 57.65681818181818,
                "end_time": 58.175,
                "pitch": 41,
                "velocity": 64,
                "duration": 0.5181818181818159,
                "tempo": 120.0
            },
            {
                "start_time": 50.37954545454545,
                "end_time": 58.19318181818181,
                "pitch": 54,
                "velocity": 64,
                "duration": 7.813636363636363,
                "tempo": 120.0
            },
            {
                "start_time": 58.19318181818181,
                "end_time": 58.58181818181818,
                "pitch": 43,
                "velocity": 64,
                "duration": 0.38863636363636545,
                "tempo": 120.0
            },
            {
                "start_time": 58.599999999999994,
                "end_time": 58.71818181818182,
                "pitch": 43,
                "velocity": 64,
                "duration": 0.11818181818182438,
                "tempo": 120.0
            },
            {
                "start_time": 59.002272727272725,
                "end_time": 59.788636363636364,
                "pitch": 43,
                "velocity": 64,
                "duration": 0.7863636363636388,
                "tempo": 120.0
            },
            {
                "start_time": 50.652272727272724,
                "end_time": 59.80681818181818,
                "pitch": 0,
                "velocity": 64,
                "duration": 9.154545454545456,
                "tempo": 120.0
            },
            {
                "start_time": 46.877272727272725,
                "end_time": 60.334090909090904,
                "pitch": 38,
                "velocity": 64,
                "duration": 13.456818181818178,
                "tempo": 120.0
            },
            {
                "start_time": 59.80681818181818,
                "end_time": 60.334090909090904,
                "pitch": 38,
                "velocity": 64,
                "duration": 0.5272727272727238,
                "tempo": 120.0
            },
            {
                "start_time": 25.854545454545452,
                "end_time": 60.349999999999994,
                "pitch": 53,
                "velocity": 64,
                "duration": 34.49545454545454,
                "tempo": 120.0
            },
            {
                "start_time": 60.349999999999994,
                "end_time": 60.73409090909091,
                "pitch": 43,
                "velocity": 64,
                "duration": 0.38409090909091503,
                "tempo": 120.0
            },
            {
                "start_time": 60.752272727272725,
                "end_time": 60.86818181818182,
                "pitch": 43,
                "velocity": 64,
                "duration": 0.11590909090909207,
                "tempo": 120.0
            },
            {
                "start_time": 61.15909090909091,
                "end_time": 61.95681818181818,
                "pitch": 43,
                "velocity": 64,
                "duration": 0.797727272727272,
                "tempo": 120.0
            },
            {
                "start_time": 61.974999999999994,
                "end_time": 62.49318181818182,
                "pitch": 43,
                "velocity": 64,
                "duration": 0.518181818181823,
                "tempo": 120.0
            },
            {
                "start_time": 62.51136363636363,
                "end_time": 62.89545454545454,
                "pitch": 44,
                "velocity": 64,
                "duration": 0.38409090909090793,
                "tempo": 120.0
            },
            {
                "start_time": 62.91136363636363,
                "end_time": 63.02954545454545,
                "pitch": 45,
                "velocity": 64,
                "duration": 0.11818181818181728,
                "tempo": 120.0
            },
            {
                "start_time": 63.31363636363636,
                "end_time": 63.56363636363636,
                "pitch": 45,
                "velocity": 64,
                "duration": 0.25,
                "tempo": 120.0
            },
            {
                "start_time": 29.084090909090907,
                "end_time": 63.58181818181818,
                "pitch": 19,
                "velocity": 64,
                "duration": 34.497727272727275,
                "tempo": 120.0
            },
            {
                "start_time": 29.629545454545454,
                "end_time": 63.836363636363636,
                "pitch": 50,
                "velocity": 64,
                "duration": 34.20681818181818,
                "tempo": 120.0
            },
            {
                "start_time": 63.58181818181818,
                "end_time": 63.836363636363636,
                "pitch": 50,
                "velocity": 64,
                "duration": 0.2545454545454575,
                "tempo": 120.0
            },
            {
                "start_time": 64.125,
                "end_time": 64.64318181818182,
                "pitch": 48,
                "velocity": 64,
                "duration": 0.5181818181818159,
                "tempo": 120.0
            },
            {
                "start_time": 30.16363636363636,
                "end_time": 64.66136363636363,
                "pitch": 52,
                "velocity": 64,
                "duration": 34.497727272727275,
                "tempo": 120.0
            },
            {
                "start_time": 64.66136363636363,
                "end_time": 65.05227272727272,
                "pitch": 46,
                "velocity": 64,
                "duration": 0.39090909090909065,
                "tempo": 120.0
            },
            {
                "start_time": 65.06818181818181,
                "end_time": 65.18636363636364,
                "pitch": 46,
                "velocity": 64,
                "duration": 0.11818181818182438,
                "tempo": 120.0
            },
            {
                "start_time": 65.47272727272727,
                "end_time": 65.72272727272727,
                "pitch": 46,
                "velocity": 64,
                "duration": 0.25,
                "tempo": 120.0
            },
            {
                "start_time": 49.57272727272727,
                "end_time": 65.74090909090908,
                "pitch": 32,
                "velocity": 64,
                "duration": 16.168181818181814,
                "tempo": 120.0
            },
            {
                "start_time": 65.74090909090908,
                "end_time": 66.125,
                "pitch": 48,
                "velocity": 64,
                "duration": 0.38409090909091503,
                "tempo": 120.0
            },
            {
                "start_time": 66.14090909090909,
                "end_time": 66.2590909090909,
                "pitch": 48,
                "velocity": 64,
                "duration": 0.11818181818181017,
                "tempo": 120.0
            },
            {
                "start_time": 56.04090909090909,
                "end_time": 66.80227272727272,
                "pitch": 36,
                "velocity": 64,
                "duration": 10.761363636363633,
                "tempo": 120.0
            },
            {
                "start_time": 66.54772727272727,
                "end_time": 66.80227272727272,
                "pitch": 36,
                "velocity": 64,
                "duration": 0.2545454545454504,
                "tempo": 120.0
            },
            {
                "start_time": 66.82045454545454,
                "end_time": 67.20454545454545,
                "pitch": 41,
                "velocity": 64,
                "duration": 0.38409090909091503,
                "tempo": 120.0
            },
            {
                "start_time": 67.22045454545454,
                "end_time": 67.33863636363635,
                "pitch": 41,
                "velocity": 64,
                "duration": 0.11818181818181017,
                "tempo": 120.0
            },
            {
                "start_time": 67.62727272727273,
                "end_time": 68.41818181818182,
                "pitch": 41,
                "velocity": 64,
                "duration": 0.7909090909090963,
                "tempo": 120.0
            },
            {
                "start_time": 68.43409090909091,
                "end_time": 68.95227272727273,
                "pitch": 41,
                "velocity": 64,
                "duration": 0.5181818181818159,
                "tempo": 120.0
            },
            {
                "start_time": 66.82045454545454,
                "end_time": 86.225,
                "pitch": 36,
                "velocity": 64,
                "duration": 19.404545454545456,
                "tempo": 120.0
            },
            {
                "start_time": 86.225,
                "end_time": 86.62045454545454,
                "pitch": 41,
                "velocity": 64,
                "duration": 0.39545454545454106,
                "tempo": 120.0
            },
            {
                "start_time": 86.63863636363637,
                "end_time": 86.7590909090909,
                "pitch": 41,
                "velocity": 64,
                "duration": 0.12045454545453538,
                "tempo": 120.0
            },
            {
                "start_time": 87.04090909090908,
                "end_time": 87.82045454545454,
                "pitch": 41,
                "velocity": 64,
                "duration": 0.7795454545454561,
                "tempo": 120.0
            },
            {
                "start_time": 86.225,
                "end_time": 88.37272727272727,
                "pitch": 36,
                "velocity": 64,
                "duration": 2.1477272727272805,
                "tempo": 120.0
            },
            {
                "start_time": 87.83863636363635,
                "end_time": 88.37272727272727,
                "pitch": 36,
                "velocity": 64,
                "duration": 0.5340909090909207,
                "tempo": 120.0
            },
            {
                "start_time": 87.83863636363635,
                "end_time": 88.77045454545454,
                "pitch": 41,
                "velocity": 64,
                "duration": 0.931818181818187,
                "tempo": 120.0
            },
            {
                "start_time": 88.39090909090909,
                "end_time": 88.77045454545454,
                "pitch": 41,
                "velocity": 64,
                "duration": 0.3795454545454504,
                "tempo": 120.0
            },
            {
                "start_time": 88.78636363636363,
                "end_time": 88.89999999999999,
                "pitch": 41,
                "velocity": 64,
                "duration": 0.11363636363635976,
                "tempo": 120.0
            },
            {
                "start_time": 89.18636363636364,
                "end_time": 89.97954545454544,
                "pitch": 41,
                "velocity": 64,
                "duration": 0.7931818181818073,
                "tempo": 120.0
            },
            {
                "start_time": 88.39090909090909,
                "end_time": 90.52499999999999,
                "pitch": 36,
                "velocity": 64,
                "duration": 2.134090909090901,
                "tempo": 120.0
            },
            {
                "start_time": 89.99772727272727,
                "end_time": 90.52499999999999,
                "pitch": 36,
                "velocity": 64,
                "duration": 0.5272727272727167,
                "tempo": 120.0
            },
            {
                "start_time": 89.99772727272727,
                "end_time": 90.9340909090909,
                "pitch": 41,
                "velocity": 64,
                "duration": 0.9363636363636232,
                "tempo": 120.0
            },
            {
                "start_time": 90.54318181818181,
                "end_time": 90.9340909090909,
                "pitch": 41,
                "velocity": 64,
                "duration": 0.39090909090909065,
                "tempo": 120.0
            },
            {
                "start_time": 90.94999999999999,
                "end_time": 91.07045454545454,
                "pitch": 41,
                "velocity": 64,
                "duration": 0.12045454545454959,
                "tempo": 120.0
            },
            {
                "start_time": 91.35,
                "end_time": 92.13181818181818,
                "pitch": 41,
                "velocity": 64,
                "duration": 0.7818181818181813,
                "tempo": 120.0
            },
            {
                "start_time": 92.14772727272727,
                "end_time": 92.14999999999999,
                "pitch": 41,
                "velocity": 64,
                "duration": 0.0022727272727252057,
                "tempo": 120.0
            },
            {
                "start_time": 90.54318181818181,
                "end_time": 92.6840909090909,
                "pitch": 36,
                "velocity": 64,
                "duration": 2.1409090909090907,
                "tempo": 120.0
            },
            {
                "start_time": 92.14999999999999,
                "end_time": 92.6840909090909,
                "pitch": 36,
                "velocity": 64,
                "duration": 0.5340909090909065,
                "tempo": 120.0
            },
            {
                "start_time": 92.70227272727273,
                "end_time": 93.08636363636363,
                "pitch": 41,
                "velocity": 64,
                "duration": 0.3840909090909008,
                "tempo": 120.0
            },
            {
                "start_time": 93.10454545454544,
                "end_time": 93.22045454545454,
                "pitch": 41,
                "velocity": 64,
                "duration": 0.11590909090909918,
                "tempo": 120.0
            },
            {
                "start_time": 93.50681818181818,
                "end_time": 94.29090909090908,
                "pitch": 41,
                "velocity": 64,
                "duration": 0.7840909090909065,
                "tempo": 120.0
            },
            {
                "start_time": 92.70227272727273,
                "end_time": 94.83636363636363,
                "pitch": 36,
                "velocity": 64,
                "duration": 2.134090909090901,
                "tempo": 120.0
            },
            {
                "start_time": 94.30681818181817,
                "end_time": 94.83636363636363,
                "pitch": 36,
                "velocity": 64,
                "duration": 0.5295454545454561,
                "tempo": 120.0
            },
            {
                "start_time": 94.85227272727272,
                "end_time": 95.23636363636363,
                "pitch": 38,
                "velocity": 64,
                "duration": 0.38409090909091503,
                "tempo": 120.0
            },
            {
                "start_time": 95.25454545454545,
                "end_time": 95.37045454545454,
                "pitch": 38,
                "velocity": 64,
                "duration": 0.11590909090908497,
                "tempo": 120.0
            },
            {
                "start_time": 95.66363636363636,
                "end_time": 96.44999999999999,
                "pitch": 38,
                "velocity": 64,
                "duration": 0.7863636363636317,
                "tempo": 120.0
            },
            {
                "start_time": 94.30681818181817,
                "end_time": 96.46818181818182,
                "pitch": 41,
                "velocity": 64,
                "duration": 2.161363636363646,
                "tempo": 120.0
            },
            {
                "start_time": 96.46818181818182,
                "end_time": 96.99545454545454,
                "pitch": 33,
                "velocity": 64,
                "duration": 0.5272727272727167,
                "tempo": 120.0
            },
            {
                "start_time": 97.01136363636363,
                "end_time": 97.39772727272727,
                "pitch": 38,
                "velocity": 64,
                "duration": 0.38636363636364024,
                "tempo": 120.0
            },
            {
                "start_time": 97.41363636363636,
                "end_time": 97.52954545454546,
                "pitch": 38,
                "velocity": 64,
                "duration": 0.11590909090909918,
                "tempo": 120.0
            },
            {
                "start_time": 97.81590909090909,
                "end_time": 98.60909090909091,
                "pitch": 38,
                "velocity": 64,
                "duration": 0.7931818181818215,
                "tempo": 120.0
            },
            {
                "start_time": 96.46818181818182,
                "end_time": 98.62727272727273,
                "pitch": 41,
                "velocity": 64,
                "duration": 2.1590909090909065,
                "tempo": 120.0
            },
            {
                "start_time": 98.62727272727273,
                "end_time": 99.14545454545454,
                "pitch": 33,
                "velocity": 64,
                "duration": 0.5181818181818159,
                "tempo": 120.0
            },
            {
                "start_time": 97.01136363636363,
                "end_time": 99.16136363636363,
                "pitch": 7,
                "velocity": 64,
                "duration": 2.1500000000000057,
                "tempo": 120.0
            },
            {
                "start_time": 99.16136363636363,
                "end_time": 99.55454545454545,
                "pitch": 38,
                "velocity": 64,
                "duration": 0.39318181818181586,
                "tempo": 120.0
            },
            {
                "start_time": 99.57045454545454,
                "end_time": 99.68863636363636,
                "pitch": 38,
                "velocity": 64,
                "duration": 0.11818181818182438,
                "tempo": 120.0
            },
            {
                "start_time": 99.975,
                "end_time": 100.7590909090909,
                "pitch": 38,
                "velocity": 64,
                "duration": 0.7840909090909065,
                "tempo": 120.0
            },
            {
                "start_time": 98.62727272727273,
                "end_time": 100.77727272727272,
                "pitch": 41,
                "velocity": 64,
                "duration": 2.1499999999999915,
                "tempo": 120.0
            },
            {
                "start_time": 100.77727272727272,
                "end_time": 101.30454545454545,
                "pitch": 33,
                "velocity": 64,
                "duration": 0.5272727272727309,
                "tempo": 120.0
            },
            {
                "start_time": 99.16136363636363,
                "end_time": 101.32272727272726,
                "pitch": 7,
                "velocity": 64,
                "duration": 2.1613636363636317,
                "tempo": 120.0
            },
            {
                "start_time": 101.32272727272726,
                "end_time": 101.71363636363635,
                "pitch": 38,
                "velocity": 64,
                "duration": 0.39090909090909065,
                "tempo": 120.0
            },
            {
                "start_time": 101.72954545454544,
                "end_time": 101.85,
                "pitch": 38,
                "velocity": 64,
                "duration": 0.12045454545454959,
                "tempo": 120.0
            },
            {
                "start_time": 102.12954545454545,
                "end_time": 102.92045454545455,
                "pitch": 38,
                "velocity": 64,
                "duration": 0.7909090909090963,
                "tempo": 120.0
            },
            {
                "start_time": 94.85227272727272,
                "end_time": 103.46363636363635,
                "pitch": 36,
                "velocity": 64,
                "duration": 8.611363636363635,
                "tempo": 120.0
            },
            {
                "start_time": 102.93863636363636,
                "end_time": 103.46363636363635,
                "pitch": 36,
                "velocity": 64,
                "duration": 0.5249999999999915,
                "tempo": 120.0
            },
            {
                "start_time": 103.48181818181817,
                "end_time": 103.87272727272726,
                "pitch": 34,
                "velocity": 64,
                "duration": 0.39090909090909065,
                "tempo": 120.0
            },
            {
                "start_time": 103.89090909090909,
                "end_time": 104.0090909090909,
                "pitch": 34,
                "velocity": 64,
                "duration": 0.11818181818181017,
                "tempo": 120.0
            },
            {
                "start_time": 104.29090909090908,
                "end_time": 105.07045454545454,
                "pitch": 34,
                "velocity": 64,
                "duration": 0.7795454545454561,
                "tempo": 120.0
            },
            {
                "start_time": 105.08863636363635,
                "end_time": 105.61590909090908,
                "pitch": 29,
                "velocity": 64,
                "duration": 0.5272727272727309,
                "tempo": 120.0
            },
            {
                "start_time": 105.6340909090909,
                "end_time": 106.02272727272727,
                "pitch": 34,
                "velocity": 64,
                "duration": 0.38863636363636545,
                "tempo": 120.0
            },
            {
                "start_time": 106.04090909090908,
                "end_time": 106.1590909090909,
                "pitch": 34,
                "velocity": 64,
                "duration": 0.11818181818182438,
                "tempo": 120.0
            },
            {
                "start_time": 106.44090909090909,
                "end_time": 107.22954545454544,
                "pitch": 34,
                "velocity": 64,
                "duration": 0.7886363636363569,
                "tempo": 120.0
            },
            {
                "start_time": 107.24772727272726,
                "end_time": 107.77499999999999,
                "pitch": 34,
                "velocity": 64,
                "duration": 0.5272727272727309,
                "tempo": 120.0
            },
            {
                "start_time": 63.58181818181818,
                "end_time": 107.79318181818181,
                "pitch": 19,
                "velocity": 64,
                "duration": 44.21136363636363,
                "tempo": 120.0
            },
            {
                "start_time": 107.79318181818181,
                "end_time": 108.18181818181817,
                "pitch": 36,
                "velocity": 64,
                "duration": 0.38863636363636545,
                "tempo": 120.0
            },
            {
                "start_time": 108.19999999999999,
                "end_time": 108.32045454545454,
                "pitch": 36,
                "velocity": 64,
                "duration": 0.12045454545454959,
                "tempo": 120.0
            },
            {
                "start_time": 108.6,
                "end_time": 109.38181818181818,
                "pitch": 36,
                "velocity": 64,
                "duration": 0.7818181818181813,
                "tempo": 120.0
            },
            {
                "start_time": 103.48181818181817,
                "end_time": 109.39772727272727,
                "pitch": 40,
                "velocity": 64,
                "duration": 5.915909090909096,
                "tempo": 120.0
            },
            {
                "start_time": 109.39772727272727,
                "end_time": 109.9340909090909,
                "pitch": 31,
                "velocity": 64,
                "duration": 0.5363636363636317,
                "tempo": 120.0
            },
            {
                "start_time": 59.80681818181818,
                "end_time": 109.95227272727273,
                "pitch": 0,
                "velocity": 64,
                "duration": 50.14545454545455,
                "tempo": 120.0
            },
            {
                "start_time": 109.95227272727273,
                "end_time": 110.33636363636363,
                "pitch": 36,
                "velocity": 64,
                "duration": 0.3840909090909008,
                "tempo": 120.0
            },
            {
                "start_time": 110.35454545454544,
                "end_time": 110.47045454545454,
                "pitch": 36,
                "velocity": 64,
                "duration": 0.11590909090909918,
                "tempo": 120.0
            },
            {
                "start_time": 110.75681818181818,
                "end_time": 111.54090909090908,
                "pitch": 36,
                "velocity": 64,
                "duration": 0.7840909090909065,
                "tempo": 120.0
            },
            {
                "start_time": 111.5590909090909,
                "end_time": 112.0840909090909,
                "pitch": 36,
                "velocity": 64,
                "duration": 0.5250000000000057,
                "tempo": 120.0
            },
            {
                "start_time": 112.10227272727272,
                "end_time": 112.49318181818181,
                "pitch": 37,
                "velocity": 64,
                "duration": 0.39090909090909065,
                "tempo": 120.0
            },
            {
                "start_time": 102.93863636363636,
                "end_time": 112.62954545454545,
                "pitch": 38,
                "velocity": 64,
                "duration": 9.690909090909088,
                "tempo": 120.0
            },
            {
                "start_time": 112.51136363636363,
                "end_time": 112.62954545454545,
                "pitch": 38,
                "velocity": 64,
                "duration": 0.11818181818182438,
                "tempo": 120.0
            },
            {
                "start_time": 112.9090909090909,
                "end_time": 113.69090909090909,
                "pitch": 38,
                "velocity": 64,
                "duration": 0.7818181818181813,
                "tempo": 120.0
            },
            {
                "start_time": 100.77727272727272,
                "end_time": 113.7090909090909,
                "pitch": 41,
                "velocity": 64,
                "duration": 12.931818181818187,
                "tempo": 120.0
            },
            {
                "start_time": 113.7090909090909,
                "end_time": 114.24545454545454,
                "pitch": 33,
                "velocity": 64,
                "duration": 0.5363636363636317,
                "tempo": 120.0
            },
            {
                "start_time": 101.32272727272726,
                "end_time": 114.26136363636363,
                "pitch": 7,
                "velocity": 64,
                "duration": 12.938636363636363,
                "tempo": 120.0
            },
            {
                "start_time": 114.26136363636363,
                "end_time": 114.64772727272727,
                "pitch": 38,
                "velocity": 64,
                "duration": 0.38636363636364024,
                "tempo": 120.0
            },
            {
                "start_time": 114.66363636363636,
                "end_time": 114.78181818181818,
                "pitch": 38,
                "velocity": 64,
                "duration": 0.11818181818182438,
                "tempo": 120.0
            },
            {
                "start_time": 115.06590909090909,
                "end_time": 115.85227272727272,
                "pitch": 38,
                "velocity": 64,
                "duration": 0.7863636363636317,
                "tempo": 120.0
            },
            {
                "start_time": 113.7090909090909,
                "end_time": 115.86818181818181,
                "pitch": 41,
                "velocity": 64,
                "duration": 2.1590909090909065,
                "tempo": 120.0
            },
            {
                "start_time": 115.86818181818181,
                "end_time": 116.39545454545454,
                "pitch": 33,
                "velocity": 64,
                "duration": 0.5272727272727309,
                "tempo": 120.0
            },
            {
                "start_time": 114.26136363636363,
                "end_time": 116.41136363636363,
                "pitch": 7,
                "velocity": 64,
                "duration": 2.1500000000000057,
                "tempo": 120.0
            },
            {
                "start_time": 116.41136363636363,
                "end_time": 116.80454545454545,
                "pitch": 38,
                "velocity": 64,
                "duration": 0.39318181818181586,
                "tempo": 120.0
            },
            {
                "start_time": 116.82045454545454,
                "end_time": 116.94090909090909,
                "pitch": 38,
                "velocity": 64,
                "duration": 0.12045454545454959,
                "tempo": 120.0
            },
            {
                "start_time": 117.225,
                "end_time": 118.01136363636363,
                "pitch": 38,
                "velocity": 64,
                "duration": 0.7863636363636317,
                "tempo": 120.0
            },
            {
                "start_time": 115.86818181818181,
                "end_time": 118.02954545454544,
                "pitch": 41,
                "velocity": 64,
                "duration": 2.1613636363636317,
                "tempo": 120.0
            },
            {
                "start_time": 118.02954545454544,
                "end_time": 118.55454545454545,
                "pitch": 33,
                "velocity": 64,
                "duration": 0.5250000000000057,
                "tempo": 120.0
            },
            {
                "start_time": 116.41136363636363,
                "end_time": 118.57272727272726,
                "pitch": 7,
                "velocity": 64,
                "duration": 2.1613636363636317,
                "tempo": 120.0
            },
            {
                "start_time": 118.57272727272726,
                "end_time": 118.95681818181818,
                "pitch": 38,
                "velocity": 64,
                "duration": 0.38409090909091503,
                "tempo": 120.0
            },
            {
                "start_time": 118.97272727272727,
                "end_time": 119.09090909090908,
                "pitch": 38,
                "velocity": 64,
                "duration": 0.11818181818181017,
                "tempo": 120.0
            },
            {
                "start_time": 119.375,
                "end_time": 120.16136363636363,
                "pitch": 38,
                "velocity": 64,
                "duration": 0.7863636363636317,
                "tempo": 120.0
            },
            {
                "start_time": 120.17954545454545,
                "end_time": 120.71363636363635,
                "pitch": 36,
                "velocity": 64,
                "duration": 0.5340909090909065,
                "tempo": 120.0
            },
            {
                "start_time": 109.39772727272727,
                "end_time": 120.73181818181817,
                "pitch": 40,
                "velocity": 64,
                "duration": 11.334090909090904,
                "tempo": 120.0
            },
            {
                "start_time": 120.73181818181817,
                "end_time": 121.12272727272726,
                "pitch": 34,
                "velocity": 64,
                "duration": 0.39090909090909065,
                "tempo": 120.0
            },
            {
                "start_time": 121.14090909090909,
                "end_time": 121.2590909090909,
                "pitch": 34,
                "velocity": 64,
                "duration": 0.11818181818181017,
                "tempo": 120.0
            },
            {
                "start_time": 121.54090909090908,
                "end_time": 122.32045454545454,
                "pitch": 34,
                "velocity": 64,
                "duration": 0.7795454545454561,
                "tempo": 120.0
            },
            {
                "start_time": 105.08863636363635,
                "end_time": 122.33863636363635,
                "pitch": 2,
                "velocity": 64,
                "duration": 17.25,
                "tempo": 120.0
            },
            {
                "start_time": 122.33863636363635,
                "end_time": 122.86590909090908,
                "pitch": 29,
                "velocity": 64,
                "duration": 0.5272727272727309,
                "tempo": 120.0
            },
            {
                "start_time": 105.6340909090909,
                "end_time": 122.88181818181818,
                "pitch": 42,
                "velocity": 64,
                "duration": 17.247727272727275,
                "tempo": 120.0
            },
            {
                "start_time": 122.88181818181818,
                "end_time": 123.26818181818182,
                "pitch": 34,
                "velocity": 64,
                "duration": 0.38636363636364024,
                "tempo": 120.0
            },
            {
                "start_time": 123.2840909090909,
                "end_time": 123.39999999999999,
                "pitch": 34,
                "velocity": 64,
                "duration": 0.11590909090908497,
                "tempo": 120.0
            },
            {
                "start_time": 123.68636363636364,
                "end_time": 124.47954545454544,
                "pitch": 34,
                "velocity": 64,
                "duration": 0.7931818181818073,
                "tempo": 120.0
            },
            {
                "start_time": 124.49772727272726,
                "end_time": 125.02499999999999,
                "pitch": 34,
                "velocity": 64,
                "duration": 0.5272727272727309,
                "tempo": 120.0
            },
            {
                "start_time": 107.79318181818181,
                "end_time": 125.04318181818181,
                "pitch": 19,
                "velocity": 64,
                "duration": 17.25,
                "tempo": 120.0
            },
            {
                "start_time": 125.04318181818181,
                "end_time": 125.42727272727272,
                "pitch": 36,
                "velocity": 64,
                "duration": 0.38409090909091503,
                "tempo": 120.0
            },
            {
                "start_time": 125.44318181818181,
                "end_time": 125.56136363636362,
                "pitch": 36,
                "velocity": 64,
                "duration": 0.11818181818181017,
                "tempo": 120.0
            },
            {
                "start_time": 125.84545454545454,
                "end_time": 126.64090909090909,
                "pitch": 36,
                "velocity": 64,
                "duration": 0.7954545454545467,
                "tempo": 120.0
            },
            {
                "start_time": 120.73181818181817,
                "end_time": 126.6590909090909,
                "pitch": 40,
                "velocity": 64,
                "duration": 5.927272727272737,
                "tempo": 120.0
            },
            {
                "start_time": 126.6590909090909,
                "end_time": 127.1840909090909,
                "pitch": 31,
                "velocity": 64,
                "duration": 0.5249999999999915,
                "tempo": 120.0
            },
            {
                "start_time": 109.95227272727273,
                "end_time": 127.20454545454545,
                "pitch": 0,
                "velocity": 64,
                "duration": 17.252272727272725,
                "tempo": 120.0
            },
            {
                "start_time": 127.20454545454545,
                "end_time": 127.58636363636363,
                "pitch": 36,
                "velocity": 64,
                "duration": 0.3818181818181756,
                "tempo": 120.0
            },
            {
                "start_time": 127.60454545454544,
                "end_time": 127.72045454545454,
                "pitch": 36,
                "velocity": 64,
                "duration": 0.11590909090909918,
                "tempo": 120.0
            },
            {
                "start_time": 128.00681818181818,
                "end_time": 129.3340909090909,
                "pitch": 36,
                "velocity": 64,
                "duration": 1.3272727272727138,
                "tempo": 120.0
            },
            {
                "start_time": 118.02954545454544,
                "end_time": 129.74318181818182,
                "pitch": 41,
                "velocity": 64,
                "duration": 11.713636363636382,
                "tempo": 120.0
            },
            {
                "start_time": 129.35681818181817,
                "end_time": 129.74318181818182,
                "pitch": 41,
                "velocity": 64,
                "duration": 0.38636363636365445,
                "tempo": 120.0
            },
            {
                "start_time": 129.76136363636363,
                "end_time": 129.87954545454545,
                "pitch": 41,
                "velocity": 64,
                "duration": 0.11818181818182438,
                "tempo": 120.0
            }
        ],
        "Church Organ": [
            {
                "start_time": 68.97272727272727,
                "end_time": 72.20454545454545,
                "pitch": 36,
                "velocity": 64,
                "duration": 3.231818181818184,
                "tempo": 120.0
            },
            {
                "start_time": 72.50681818181818,
                "end_time": 72.74090909090908,
                "pitch": 34,
                "velocity": 64,
                "duration": 0.23409090909090935,
                "tempo": 120.0
            },
            {
                "start_time": 72.9090909090909,
                "end_time": 73.27727272727272,
                "pitch": 34,
                "velocity": 64,
                "duration": 0.36818181818181017,
                "tempo": 120.0
            },
            {
                "start_time": 73.31136363636364,
                "end_time": 76.51590909090909,
                "pitch": 36,
                "velocity": 64,
                "duration": 3.2045454545454533,
                "tempo": 120.0
            },
            {
                "start_time": 76.81818181818181,
                "end_time": 77.05227272727272,
                "pitch": 36,
                "velocity": 64,
                "duration": 0.23409090909090935,
                "tempo": 120.0
            },
            {
                "start_time": 77.22045454545454,
                "end_time": 77.59545454545454,
                "pitch": 36,
                "velocity": 64,
                "duration": 0.375,
                "tempo": 120.0
            },
            {
                "start_time": 77.62954545454545,
                "end_time": 80.8340909090909,
                "pitch": 36,
                "velocity": 64,
                "duration": 3.2045454545454533,
                "tempo": 120.0
            },
            {
                "start_time": 72.50681818181818,
                "end_time": 81.12954545454545,
                "pitch": 40,
                "velocity": 64,
                "duration": 8.622727272727275,
                "tempo": 120.0
            },
            {
                "start_time": 81.12954545454545,
                "end_time": 81.35454545454544,
                "pitch": 34,
                "velocity": 64,
                "duration": 0.22499999999999432,
                "tempo": 120.0
            },
            {
                "start_time": 81.52272727272727,
                "end_time": 81.90454545454546,
                "pitch": 34,
                "velocity": 64,
                "duration": 0.38181818181818983,
                "tempo": 120.0
            },
            {
                "start_time": 73.31136363636364,
                "end_time": 81.94090909090909,
                "pitch": 14,
                "velocity": 64,
                "duration": 8.62954545454545,
                "tempo": 120.0
            },
            {
                "start_time": 81.94090909090909,
                "end_time": 85.14545454545454,
                "pitch": 36,
                "velocity": 64,
                "duration": 3.2045454545454533,
                "tempo": 120.0
            },
            {
                "start_time": 85.44318181818181,
                "end_time": 85.67272727272727,
                "pitch": 36,
                "velocity": 64,
                "duration": 0.22954545454545894,
                "tempo": 120.0
            },
            {
                "start_time": 85.83636363636363,
                "end_time": 86.19090909090909,
                "pitch": 36,
                "velocity": 64,
                "duration": 0.35454545454545894,
                "tempo": 120.0
            }
        ],
        "Acoustic Grand Piano": [
            {
                "start_time": 0.006818181818181818,
                "end_time": 2.120454545454545,
                "pitch": 65,
                "velocity": 51,
                "duration": 2.1136363636363633,
                "tempo": 120.0
            },
            {
                "start_time": 17.227272727272727,
                "end_time": 19.368181818181817,
                "pitch": 65,
                "velocity": 51,
                "duration": 2.1409090909090907,
                "tempo": 120.0
            },
            {
                "start_time": 51.724999999999994,
                "end_time": 53.865909090909085,
                "pitch": 65,
                "velocity": 51,
                "duration": 2.1409090909090907,
                "tempo": 120.0
            },
            {
                "start_time": 87.04090909090908,
                "end_time": 87.28636363636363,
                "pitch": 81,
                "velocity": 32,
                "duration": 0.2454545454545496,
                "tempo": 120.0
            },
            {
                "start_time": 87.57272727272726,
                "end_time": 87.82045454545454,
                "pitch": 81,
                "velocity": 32,
                "duration": 0.2477272727272748,
                "tempo": 120.0
            },
            {
                "start_time": 87.8409090909091,
                "end_time": 88.63863636363637,
                "pitch": 79,
                "velocity": 32,
                "duration": 0.797727272727272,
                "tempo": 120.0
            },
            {
                "start_time": 88.65681818181818,
                "end_time": 88.90227272727272,
                "pitch": 81,
                "velocity": 32,
                "duration": 0.24545454545453538,
                "tempo": 120.0
            },
            {
                "start_time": 89.18636363636364,
                "end_time": 89.43636363636364,
                "pitch": 82,
                "velocity": 32,
                "duration": 0.25,
                "tempo": 120.0
            },
            {
                "start_time": 89.72727272727272,
                "end_time": 89.98181818181818,
                "pitch": 82,
                "velocity": 32,
                "duration": 0.2545454545454646,
                "tempo": 120.0
            },
            {
                "start_time": 90.0,
                "end_time": 90.79772727272727,
                "pitch": 81,
                "velocity": 32,
                "duration": 0.797727272727272,
                "tempo": 120.0
            },
            {
                "start_time": 91.35227272727272,
                "end_time": 91.59772727272727,
                "pitch": 79,
                "velocity": 32,
                "duration": 0.2454545454545496,
                "tempo": 120.0
            },
            {
                "start_time": 91.88181818181818,
                "end_time": 92.13181818181818,
                "pitch": 81,
                "velocity": 32,
                "duration": 0.25,
                "tempo": 120.0
            },
            {
                "start_time": 92.14999999999999,
                "end_time": 92.95454545454545,
                "pitch": 79,
                "velocity": 32,
                "duration": 0.8045454545454618,
                "tempo": 120.0
            },
            {
                "start_time": 92.97045454545454,
                "end_time": 93.22272727272727,
                "pitch": 81,
                "velocity": 32,
                "duration": 0.2522727272727252,
                "tempo": 120.0
            },
            {
                "start_time": 93.50681818181818,
                "end_time": 93.75681818181818,
                "pitch": 82,
                "velocity": 32,
                "duration": 0.25,
                "tempo": 120.0
            },
            {
                "start_time": 94.04318181818181,
                "end_time": 94.29090909090908,
                "pitch": 82,
                "velocity": 32,
                "duration": 0.2477272727272748,
                "tempo": 120.0
            },
            {
                "start_time": 94.3090909090909,
                "end_time": 95.10227272727272,
                "pitch": 81,
                "velocity": 32,
                "duration": 0.7931818181818215,
                "tempo": 120.0
            },
            {
                "start_time": 95.12045454545454,
                "end_time": 96.72272727272727,
                "pitch": 79,
                "velocity": 32,
                "duration": 1.6022727272727337,
                "tempo": 120.0
            },
            {
                "start_time": 96.74318181818181,
                "end_time": 96.99545454545454,
                "pitch": 79,
                "velocity": 32,
                "duration": 0.2522727272727252,
                "tempo": 120.0
            },
            {
                "start_time": 97.01363636363637,
                "end_time": 98.60909090909091,
                "pitch": 77,
                "velocity": 32,
                "duration": 1.595454545454544,
                "tempo": 120.0
            },
            {
                "start_time": 98.62954545454545,
                "end_time": 98.87727272727273,
                "pitch": 74,
                "velocity": 32,
                "duration": 0.2477272727272748,
                "tempo": 120.0
            },
            {
                "start_time": 98.89772727272727,
                "end_time": 99.14545454545454,
                "pitch": 76,
                "velocity": 32,
                "duration": 0.2477272727272748,
                "tempo": 120.0
            },
            {
                "start_time": 99.16363636363636,
                "end_time": 99.41818181818181,
                "pitch": 76,
                "velocity": 32,
                "duration": 0.2545454545454504,
                "tempo": 120.0
            },
            {
                "start_time": 99.4340909090909,
                "end_time": 99.43636363636364,
                "pitch": 90,
                "velocity": 32,
                "duration": 0.0022727272727394165,
                "tempo": 120.0
            },
            {
                "start_time": 99.43636363636364,
                "end_time": 100.76136363636363,
                "pitch": 81,
                "velocity": 32,
                "duration": 1.3249999999999886,
                "tempo": 120.0
            },
            {
                "start_time": 100.77954545454546,
                "end_time": 101.03181818181818,
                "pitch": 81,
                "velocity": 32,
                "duration": 0.2522727272727252,
                "tempo": 120.0
            },
            {
                "start_time": 0.006818181818181818,
                "end_time": 101.05227272727272,
                "pitch": 0,
                "velocity": 51,
                "duration": 101.04545454545455,
                "tempo": 120.0
            },
            {
                "start_time": 98.62954545454545,
                "end_time": 101.30454545454545,
                "pitch": 77,
                "velocity": 32,
                "duration": 2.674999999999997,
                "tempo": 120.0
            },
            {
                "start_time": 101.05227272727272,
                "end_time": 101.30454545454545,
                "pitch": 77,
                "velocity": 32,
                "duration": 0.2522727272727252,
                "tempo": 120.0
            },
            {
                "start_time": 98.89772727272727,
                "end_time": 103.21136363636363,
                "pitch": 74,
                "velocity": 32,
                "duration": 4.313636363636363,
                "tempo": 120.0
            },
            {
                "start_time": 101.32272727272726,
                "end_time": 103.21136363636363,
                "pitch": 74,
                "velocity": 32,
                "duration": 1.8886363636363654,
                "tempo": 120.0
            },
            {
                "start_time": 103.21136363636363,
                "end_time": 103.73636363636363,
                "pitch": 74,
                "velocity": 32,
                "duration": 0.5250000000000057,
                "tempo": 120.0
            },
            {
                "start_time": 104.29090909090908,
                "end_time": 104.53636363636363,
                "pitch": 76,
                "velocity": 32,
                "duration": 0.2454545454545496,
                "tempo": 120.0
            },
            {
                "start_time": 104.29090909090908,
                "end_time": 105.07045454545454,
                "pitch": 74,
                "velocity": 32,
                "duration": 0.7795454545454561,
                "tempo": 120.0
            },
            {
                "start_time": 104.82045454545454,
                "end_time": 105.07045454545454,
                "pitch": 74,
                "velocity": 32,
                "duration": 0.25,
                "tempo": 120.0
            },
            {
                "start_time": 101.32272727272726,
                "end_time": 105.88636363636363,
                "pitch": 77,
                "velocity": 32,
                "duration": 4.563636363636363,
                "tempo": 120.0
            },
            {
                "start_time": 105.08863636363635,
                "end_time": 105.88636363636363,
                "pitch": 77,
                "velocity": 32,
                "duration": 0.797727272727272,
                "tempo": 120.0
            },
            {
                "start_time": 105.90454545454546,
                "end_time": 106.16136363636363,
                "pitch": 77,
                "velocity": 32,
                "duration": 0.2568181818181756,
                "tempo": 120.0
            },
            {
                "start_time": 104.82045454545454,
                "end_time": 106.68636363636364,
                "pitch": 76,
                "velocity": 32,
                "duration": 1.8659090909090992,
                "tempo": 120.0
            },
            {
                "start_time": 106.44090909090909,
                "end_time": 106.68636363636364,
                "pitch": 76,
                "velocity": 32,
                "duration": 0.2454545454545496,
                "tempo": 120.0
            },
            {
                "start_time": 106.97727272727272,
                "end_time": 107.22954545454544,
                "pitch": 76,
                "velocity": 32,
                "duration": 0.2522727272727252,
                "tempo": 120.0
            },
            {
                "start_time": 105.08863636363635,
                "end_time": 108.04772727272727,
                "pitch": 74,
                "velocity": 32,
                "duration": 2.959090909090918,
                "tempo": 120.0
            },
            {
                "start_time": 107.25,
                "end_time": 108.04772727272727,
                "pitch": 74,
                "velocity": 32,
                "duration": 0.797727272727272,
                "tempo": 120.0
            },
            {
                "start_time": 108.60227272727272,
                "end_time": 108.84545454545454,
                "pitch": 76,
                "velocity": 32,
                "duration": 0.24318181818182438,
                "tempo": 120.0
            },
            {
                "start_time": 108.60227272727272,
                "end_time": 109.38181818181818,
                "pitch": 74,
                "velocity": 32,
                "duration": 0.7795454545454561,
                "tempo": 120.0
            },
            {
                "start_time": 109.13181818181818,
                "end_time": 109.38181818181818,
                "pitch": 74,
                "velocity": 32,
                "duration": 0.25,
                "tempo": 120.0
            },
            {
                "start_time": 107.25,
                "end_time": 110.20227272727273,
                "pitch": 77,
                "velocity": 32,
                "duration": 2.952272727272728,
                "tempo": 120.0
            },
            {
                "start_time": 109.39999999999999,
                "end_time": 110.20227272727273,
                "pitch": 77,
                "velocity": 32,
                "duration": 0.8022727272727366,
                "tempo": 120.0
            },
            {
                "start_time": 110.22045454545454,
                "end_time": 110.73863636363636,
                "pitch": 77,
                "velocity": 32,
                "duration": 0.5181818181818159,
                "tempo": 120.0
            },
            {
                "start_time": 109.13181818181818,
                "end_time": 110.75681818181818,
                "pitch": 76,
                "velocity": 32,
                "duration": 1.625,
                "tempo": 120.0
            },
            {
                "start_time": 109.39999999999999,
                "end_time": 111.27272727272727,
                "pitch": 74,
                "velocity": 32,
                "duration": 1.8727272727272748,
                "tempo": 120.0
            },
            {
                "start_time": 110.75681818181818,
                "end_time": 111.27272727272727,
                "pitch": 74,
                "velocity": 32,
                "duration": 0.5159090909090907,
                "tempo": 120.0
            },
            {
                "start_time": 111.29090909090908,
                "end_time": 111.81363636363636,
                "pitch": 72,
                "velocity": 32,
                "duration": 0.5227272727272805,
                "tempo": 120.0
            },
            {
                "start_time": 110.75681818181818,
                "end_time": 111.82954545454545,
                "pitch": 76,
                "velocity": 32,
                "duration": 1.0727272727272776,
                "tempo": 120.0
            },
            {
                "start_time": 111.82954545454545,
                "end_time": 112.35681818181817,
                "pitch": 67,
                "velocity": 32,
                "duration": 0.5272727272727167,
                "tempo": 120.0
            },
            {
                "start_time": 112.375,
                "end_time": 112.89318181818182,
                "pitch": 67,
                "velocity": 32,
                "duration": 0.5181818181818159,
                "tempo": 120.0
            },
            {
                "start_time": 97.01363636363637,
                "end_time": 112.91136363636363,
                "pitch": 42,
                "velocity": 32,
                "duration": 15.897727272727266,
                "tempo": 120.0
            },
            {
                "start_time": 112.91136363636363,
                "end_time": 113.15681818181818,
                "pitch": 77,
                "velocity": 32,
                "duration": 0.2454545454545496,
                "tempo": 120.0
            },
            {
                "start_time": 113.44318181818181,
                "end_time": 113.69090909090909,
                "pitch": 77,
                "velocity": 32,
                "duration": 0.2477272727272748,
                "tempo": 120.0
            },
            {
                "start_time": 111.82954545454545,
                "end_time": 114.51363636363635,
                "pitch": 76,
                "velocity": 32,
                "duration": 2.684090909090898,
                "tempo": 120.0
            },
            {
                "start_time": 113.7090909090909,
                "end_time": 114.51363636363635,
                "pitch": 76,
                "velocity": 32,
                "duration": 0.8045454545454476,
                "tempo": 120.0
            },
            {
                "start_time": 114.53181818181818,
                "end_time": 114.78181818181818,
                "pitch": 77,
                "velocity": 32,
                "duration": 0.25,
                "tempo": 120.0
            },
            {
                "start_time": 115.06590909090909,
                "end_time": 115.31590909090909,
                "pitch": 77,
                "velocity": 32,
                "duration": 0.25,
                "tempo": 120.0
            },
            {
                "start_time": 115.60227272727272,
                "end_time": 115.85227272727272,
                "pitch": 77,
                "velocity": 32,
                "duration": 0.25,
                "tempo": 120.0
            },
            {
                "start_time": 115.87045454545454,
                "end_time": 116.12272727272726,
                "pitch": 76,
                "velocity": 32,
                "duration": 0.2522727272727252,
                "tempo": 120.0
            },
            {
                "start_time": 116.14318181818182,
                "end_time": 116.39545454545454,
                "pitch": 79,
                "velocity": 32,
                "duration": 0.2522727272727252,
                "tempo": 120.0
            },
            {
                "start_time": 116.41363636363636,
                "end_time": 117.2090909090909,
                "pitch": 79,
                "velocity": 32,
                "duration": 0.7954545454545467,
                "tempo": 120.0
            },
            {
                "start_time": 112.91136363636363,
                "end_time": 117.22727272727272,
                "pitch": 42,
                "velocity": 32,
                "duration": 4.315909090909088,
                "tempo": 120.0
            },
            {
                "start_time": 117.22727272727272,
                "end_time": 117.47727272727272,
                "pitch": 77,
                "velocity": 32,
                "duration": 0.25,
                "tempo": 120.0
            },
            {
                "start_time": 117.76136363636363,
                "end_time": 118.01136363636363,
                "pitch": 77,
                "velocity": 32,
                "duration": 0.25,
                "tempo": 120.0
            },
            {
                "start_time": 118.02954545454544,
                "end_time": 118.82272727272726,
                "pitch": 76,
                "velocity": 32,
                "duration": 0.7931818181818215,
                "tempo": 120.0
            },
            {
                "start_time": 118.84090909090908,
                "end_time": 119.09090909090908,
                "pitch": 77,
                "velocity": 32,
                "duration": 0.25,
                "tempo": 120.0
            },
            {
                "start_time": 119.37727272727273,
                "end_time": 119.62727272727273,
                "pitch": 77,
                "velocity": 32,
                "duration": 0.25,
                "tempo": 120.0
            },
            {
                "start_time": 119.91136363636363,
                "end_time": 120.16136363636363,
                "pitch": 77,
                "velocity": 32,
                "duration": 0.25,
                "tempo": 120.0
            },
            {
                "start_time": 120.17954545454545,
                "end_time": 120.98863636363636,
                "pitch": 76,
                "velocity": 32,
                "duration": 0.8090909090909122,
                "tempo": 120.0
            },
            {
                "start_time": 121.54090909090908,
                "end_time": 121.78636363636363,
                "pitch": 77,
                "velocity": 32,
                "duration": 0.2454545454545496,
                "tempo": 120.0
            },
            {
                "start_time": 111.29090909090908,
                "end_time": 122.32045454545454,
                "pitch": 74,
                "velocity": 32,
                "duration": 11.029545454545456,
                "tempo": 120.0
            },
            {
                "start_time": 122.07272727272726,
                "end_time": 122.32045454545454,
                "pitch": 74,
                "velocity": 32,
                "duration": 0.2477272727272748,
                "tempo": 120.0
            },
            {
                "start_time": 122.34090909090908,
                "end_time": 123.1340909090909,
                "pitch": 77,
                "velocity": 32,
                "duration": 0.7931818181818215,
                "tempo": 120.0
            },
            {
                "start_time": 123.15227272727272,
                "end_time": 123.40227272727272,
                "pitch": 77,
                "velocity": 32,
                "duration": 0.25,
                "tempo": 120.0
            },
            {
                "start_time": 122.07272727272726,
                "end_time": 123.93636363636364,
                "pitch": 76,
                "velocity": 32,
                "duration": 1.863636363636374,
                "tempo": 120.0
            },
            {
                "start_time": 123.68863636363636,
                "end_time": 123.93636363636364,
                "pitch": 76,
                "velocity": 32,
                "duration": 0.2477272727272748,
                "tempo": 120.0
            },
            {
                "start_time": 124.225,
                "end_time": 124.75227272727273,
                "pitch": 76,
                "velocity": 32,
                "duration": 0.5272727272727309,
                "tempo": 120.0
            },
            {
                "start_time": 116.14318181818182,
                "end_time": 124.77045454545454,
                "pitch": 90,
                "velocity": 32,
                "duration": 8.627272727272725,
                "tempo": 120.0
            },
            {
                "start_time": 124.77045454545454,
                "end_time": 125.29318181818181,
                "pitch": 79,
                "velocity": 32,
                "duration": 0.5227272727272663,
                "tempo": 120.0
            },
            {
                "start_time": 125.31136363636362,
                "end_time": 125.56136363636362,
                "pitch": 82,
                "velocity": 32,
                "duration": 0.25,
                "tempo": 120.0
            },
            {
                "start_time": 125.57954545454545,
                "end_time": 125.82954545454545,
                "pitch": 82,
                "velocity": 32,
                "duration": 0.25,
                "tempo": 120.0
            },
            {
                "start_time": 125.84772727272727,
                "end_time": 126.09545454545454,
                "pitch": 81,
                "velocity": 32,
                "duration": 0.2477272727272748,
                "tempo": 120.0
            },
            {
                "start_time": 126.11363636363636,
                "end_time": 126.36818181818181,
                "pitch": 81,
                "velocity": 32,
                "duration": 0.2545454545454504,
                "tempo": 120.0
            },
            {
                "start_time": 125.31136363636362,
                "end_time": 126.64090909090909,
                "pitch": 79,
                "velocity": 32,
                "duration": 1.3295454545454675,
                "tempo": 120.0
            },
            {
                "start_time": 126.38636363636363,
                "end_time": 126.64090909090909,
                "pitch": 79,
                "velocity": 32,
                "duration": 0.2545454545454646,
                "tempo": 120.0
            },
            {
                "start_time": 101.05227272727272,
                "end_time": 126.6590909090909,
                "pitch": 0,
                "velocity": 32,
                "duration": 25.606818181818184,
                "tempo": 120.0
            },
            {
                "start_time": 126.6590909090909,
                "end_time": 126.91363636363636,
                "pitch": 77,
                "velocity": 32,
                "duration": 0.2545454545454504,
                "tempo": 120.0
            },
            {
                "start_time": 126.93181818181817,
                "end_time": 127.18636363636362,
                "pitch": 77,
                "velocity": 32,
                "duration": 0.2545454545454504,
                "tempo": 120.0
            },
            {
                "start_time": 127.20454545454545,
                "end_time": 127.45227272727273,
                "pitch": 77,
                "velocity": 32,
                "duration": 0.2477272727272748,
                "tempo": 120.0
            },
            {
                "start_time": 127.47272727272727,
                "end_time": 127.72045454545454,
                "pitch": 76,
                "velocity": 32,
                "duration": 0.2477272727272748,
                "tempo": 120.0
            },
            {
                "start_time": 127.73863636363636,
                "end_time": 127.98863636363636,
                "pitch": 72,
                "velocity": 32,
                "duration": 0.25,
                "tempo": 120.0
            },
            {
                "start_time": 128.00681818181818,
                "end_time": 128.25681818181818,
                "pitch": 72,
                "velocity": 32,
                "duration": 0.25,
                "tempo": 120.0
            },
            {
                "start_time": 127.73863636363636,
                "end_time": 128.275,
                "pitch": 76,
                "velocity": 32,
                "duration": 0.5363636363636459,
                "tempo": 120.0
            },
            {
                "start_time": 128.275,
                "end_time": 128.52272727272728,
                "pitch": 70,
                "velocity": 32,
                "duration": 0.2477272727272748,
                "tempo": 120.0
            },
            {
                "start_time": 128.54090909090908,
                "end_time": 128.79090909090908,
                "pitch": 70,
                "velocity": 32,
                "duration": 0.25,
                "tempo": 120.0
            },
            {
                "start_time": 128.8090909090909,
                "end_time": 129.06363636363636,
                "pitch": 67,
                "velocity": 32,
                "duration": 0.2545454545454504,
                "tempo": 120.0
            },
            {
                "start_time": 129.08181818181816,
                "end_time": 129.33636363636364,
                "pitch": 67,
                "velocity": 32,
                "duration": 0.25454545454547883,
                "tempo": 120.0
            },
            {
                "start_time": 126.6590909090909,
                "end_time": 129.36136363636362,
                "pitch": 0,
                "velocity": 32,
                "duration": 2.702272727272714,
                "tempo": 120.0
            },
            {
                "start_time": 129.36136363636362,
                "end_time": 129.89545454545453,
                "pitch": 65,
                "velocity": 51,
                "duration": 0.5340909090909065,
                "tempo": 120.0
            }
        ]
    }
}