{
    "track_id": "05 Victory",
    "mood": "happy",
    "instruments": {
        "Electric Piano 1": [
            {
                "start_time": 8.043181818181818,
                "end_time": 10.454545454545453,
                "pitch": 54,
                "velocity": 64,
                "duration": 2.4113636363636353,
                "tempo": 120.0
            },
            {
                "start_time": 10.456818181818182,
                "end_time": 10.85681818181818,
                "pitch": 56,
                "velocity": 64,
                "duration": 0.3999999999999986,
                "tempo": 120.0
            },
            {
                "start_time": 10.85909090909091,
                "end_time": 11.261363636363637,
                "pitch": 57,
                "velocity": 64,
                "duration": 0.40227272727272734,
                "tempo": 120.0
            },
            {
                "start_time": 11.263636363636364,
                "end_time": 13.677272727272726,
                "pitch": 52,
                "velocity": 64,
                "duration": 2.4136363636363622,
                "tempo": 120.0
            },
            {
                "start_time": 13.679545454545455,
                "end_time": 14.077272727272726,
                "pitch": 54,
                "velocity": 64,
                "duration": 0.3977272727272716,
                "tempo": 120.0
            },
            {
                "start_time": 14.079545454545453,
                "end_time": 14.479545454545454,
                "pitch": 56,
                "velocity": 64,
                "duration": 0.40000000000000036,
                "tempo": 120.0
            },
            {
                "start_time": 14.48181818181818,
                "end_time": 16.904545454545453,
                "pitch": 50,
                "velocity": 64,
                "duration": 2.422727272727272,
                "tempo": 120.0
            },
            {
                "start_time": 16.90681818181818,
                "end_time": 17.30681818181818,
                "pitch": 52,
                "velocity": 64,
                "duration": 0.3999999999999986,
                "tempo": 120.0
            },
            {
                "start_time": 17.30681818181818,
                "end_time": 17.709090909090907,
                "pitch": 54,
                "velocity": 64,
                "duration": 0.40227272727272734,
                "tempo": 120.0
            },
            {
                "start_time": 17.711363636363636,
                "end_time": 19.313636363636363,
                "pitch": 49,
                "velocity": 64,
                "duration": 1.6022727272727266,
                "tempo": 120.0
            },
            {
                "start_time": 19.31590909090909,
                "end_time": 20.118181818181817,
                "pitch": 50,
                "velocity": 64,
                "duration": 0.8022727272727259,
                "tempo": 120.0
            },
            {
                "start_time": 20.120454545454546,
                "end_time": 20.920454545454543,
                "pitch": 52,
                "velocity": 64,
                "duration": 0.7999999999999972,
                "tempo": 120.0
            },
            {
                "start_time": 20.925,
                "end_time": 23.329545454545453,
                "pitch": 54,
                "velocity": 64,
                "duration": 2.4045454545454525,
                "tempo": 120.0
            },
            {
                "start_time": 23.331818181818182,
                "end_time": 23.74090909090909,
                "pitch": 56,
                "velocity": 64,
                "duration": 0.4090909090909065,
                "tempo": 120.0
            },
            {
                "start_time": 23.743181818181817,
                "end_time": 24.145454545454545,
                "pitch": 57,
                "velocity": 64,
                "duration": 0.40227272727272734,
                "tempo": 120.0
            },
            {
                "start_time": 24.14772727272727,
                "end_time": 26.552272727272726,
                "pitch": 52,
                "velocity": 64,
                "duration": 2.404545454545456,
                "tempo": 120.0
            },
            {
                "start_time": 26.554545454545455,
                "end_time": 26.956818181818182,
                "pitch": 54,
                "velocity": 64,
                "duration": 0.40227272727272734,
                "tempo": 120.0
            },
            {
                "start_time": 26.959090909090907,
                "end_time": 27.35681818181818,
                "pitch": 56,
                "velocity": 64,
                "duration": 0.3977272727272734,
                "tempo": 120.0
            },
            {
                "start_time": 27.35909090909091,
                "end_time": 28.96363636363636,
                "pitch": 50,
                "velocity": 64,
                "duration": 1.6045454545454518,
                "tempo": 120.0
            },
            {
                "start_time": 28.96590909090909,
                "end_time": 29.563636363636363,
                "pitch": 52,
                "velocity": 64,
                "duration": 0.5977272727272727,
                "tempo": 120.0
            },
            {
                "start_time": 29.565909090909088,
                "end_time": 30.168181818181818,
                "pitch": 54,
                "velocity": 64,
                "duration": 0.6022727272727302,
                "tempo": 120.0
            },
            {
                "start_time": 30.170454545454543,
                "end_time": 30.568181818181817,
                "pitch": 56,
                "velocity": 64,
                "duration": 0.3977272727272734,
                "tempo": 120.0
            },
            {
                "start_time": 30.570454545454545,
                "end_time": 32.184090909090905,
                "pitch": 49,
                "velocity": 64,
                "duration": 1.6136363636363598,
                "tempo": 120.0
            },
            {
                "start_time": 32.18636363636364,
                "end_time": 32.45227272727273,
                "pitch": 50,
                "velocity": 64,
                "duration": 0.26590909090909065,
                "tempo": 120.0
            },
            {
                "start_time": 32.45454545454545,
                "end_time": 32.71818181818182,
                "pitch": 49,
                "velocity": 64,
                "duration": 0.26363636363636545,
                "tempo": 120.0
            },
            {
                "start_time": 32.720454545454544,
                "end_time": 32.98863636363636,
                "pitch": 50,
                "velocity": 64,
                "duration": 0.26818181818181586,
                "tempo": 120.0
            },
            {
                "start_time": 32.99090909090909,
                "end_time": 33.25454545454545,
                "pitch": 52,
                "velocity": 64,
                "duration": 0.26363636363635834,
                "tempo": 120.0
            },
            {
                "start_time": 33.25681818181818,
                "end_time": 33.52272727272727,
                "pitch": 50,
                "velocity": 64,
                "duration": 0.26590909090909065,
                "tempo": 120.0
            },
            {
                "start_time": 33.525,
                "end_time": 33.788636363636364,
                "pitch": 52,
                "velocity": 64,
                "duration": 0.26363636363636545,
                "tempo": 120.0
            },
            {
                "start_time": 33.79090909090909,
                "end_time": 36.195454545454545,
                "pitch": 54,
                "velocity": 64,
                "duration": 2.404545454545456,
                "tempo": 120.0
            },
            {
                "start_time": 36.19772727272727,
                "end_time": 36.595454545454544,
                "pitch": 56,
                "velocity": 64,
                "duration": 0.3977272727272734,
                "tempo": 120.0
            },
            {
                "start_time": 36.59772727272727,
                "end_time": 36.99772727272727,
                "pitch": 57,
                "velocity": 64,
                "duration": 0.3999999999999986,
                "tempo": 120.0
            },
            {
                "start_time": 37.0,
                "end_time": 38.6,
                "pitch": 59,
                "velocity": 64,
                "duration": 1.6000000000000014,
                "tempo": 120.0
            },
            {
                "start_time": 38.60227272727273,
                "end_time": 39.209090909090904,
                "pitch": 57,
                "velocity": 64,
                "duration": 0.606818181818177,
                "tempo": 120.0
            },
            {
                "start_time": 39.211363636363636,
                "end_time": 39.81590909090909,
                "pitch": 59,
                "velocity": 64,
                "duration": 0.6045454545454518,
                "tempo": 120.0
            },
            {
                "start_time": 39.81818181818181,
                "end_time": 40.215909090909086,
                "pitch": 61,
                "velocity": 64,
                "duration": 0.3977272727272734,
                "tempo": 120.0
            },
            {
                "start_time": 40.21818181818182,
                "end_time": 41.820454545454545,
                "pitch": 62,
                "velocity": 64,
                "duration": 1.6022727272727266,
                "tempo": 120.0
            },
            {
                "start_time": 41.824999999999996,
                "end_time": 42.42272727272727,
                "pitch": 59,
                "velocity": 64,
                "duration": 0.5977272727272762,
                "tempo": 120.0
            },
            {
                "start_time": 42.425,
                "end_time": 43.025,
                "pitch": 61,
                "velocity": 64,
                "duration": 0.6000000000000014,
                "tempo": 120.0
            },
            {
                "start_time": 43.027272727272724,
                "end_time": 43.42727272727272,
                "pitch": 63,
                "velocity": 64,
                "duration": 0.3999999999999986,
                "tempo": 120.0
            },
            {
                "start_time": 43.429545454545455,
                "end_time": 45.03181818181818,
                "pitch": 64,
                "velocity": 64,
                "duration": 1.6022727272727266,
                "tempo": 120.0
            },
            {
                "start_time": 45.03409090909091,
                "end_time": 45.29772727272727,
                "pitch": 64,
                "velocity": 64,
                "duration": 0.26363636363636545,
                "tempo": 120.0
            },
            {
                "start_time": 45.3,
                "end_time": 45.56363636363636,
                "pitch": 66,
                "velocity": 64,
                "duration": 0.26363636363636545,
                "tempo": 120.0
            },
            {
                "start_time": 45.56590909090909,
                "end_time": 45.83181818181818,
                "pitch": 64,
                "velocity": 64,
                "duration": 0.26590909090909065,
                "tempo": 120.0
            },
            {
                "start_time": 45.834090909090904,
                "end_time": 46.09772727272727,
                "pitch": 62,
                "velocity": 64,
                "duration": 0.26363636363636545,
                "tempo": 120.0
            },
            {
                "start_time": 46.099999999999994,
                "end_time": 46.36818181818182,
                "pitch": 64,
                "velocity": 64,
                "duration": 0.26818181818182296,
                "tempo": 120.0
            },
            {
                "start_time": 46.37045454545454,
                "end_time": 46.643181818181816,
                "pitch": 59,
                "velocity": 64,
                "duration": 0.2727272727272734,
                "tempo": 120.0
            },
            {
                "start_time": 46.64545454545454,
                "end_time": 48.24772727272727,
                "pitch": 61,
                "velocity": 64,
                "duration": 1.6022727272727266,
                "tempo": 120.0
            },
            {
                "start_time": 48.25,
                "end_time": 48.51590909090909,
                "pitch": 59,
                "velocity": 64,
                "duration": 0.26590909090909065,
                "tempo": 120.0
            },
            {
                "start_time": 48.518181818181816,
                "end_time": 48.78181818181818,
                "pitch": 57,
                "velocity": 64,
                "duration": 0.26363636363636545,
                "tempo": 120.0
            },
            {
                "start_time": 48.78409090909091,
                "end_time": 49.05,
                "pitch": 56,
                "velocity": 64,
                "duration": 0.26590909090909065,
                "tempo": 120.0
            },
            {
                "start_time": 49.05227272727272,
                "end_time": 49.31590909090909,
                "pitch": 64,
                "velocity": 64,
                "duration": 0.26363636363636545,
                "tempo": 120.0
            },
            {
                "start_time": 49.31818181818181,
                "end_time": 49.584090909090904,
                "pitch": 62,
                "velocity": 64,
                "duration": 0.26590909090909065,
                "tempo": 120.0
            },
            {
                "start_time": 49.586363636363636,
                "end_time": 49.85227272727273,
                "pitch": 61,
                "velocity": 64,
                "duration": 0.26590909090909065,
                "tempo": 120.0
            },
            {
                "start_time": 49.85454545454545,
                "end_time": 51.45454545454545,
                "pitch": 59,
                "velocity": 64,
                "duration": 1.6000000000000014,
                "tempo": 120.0
            },
            {
                "start_time": 51.45681818181818,
                "end_time": 52.25909090909091,
                "pitch": 61,
                "velocity": 64,
                "duration": 0.8022727272727295,
                "tempo": 120.0
            },
            {
                "start_time": 52.26136363636363,
                "end_time": 52.525,
                "pitch": 62,
                "velocity": 64,
                "duration": 0.26363636363636545,
                "tempo": 120.0
            },
            {
                "start_time": 52.527272727272724,
                "end_time": 52.793181818181814,
                "pitch": 61,
                "velocity": 64,
                "duration": 0.26590909090909065,
                "tempo": 120.0
            },
            {
                "start_time": 52.79545454545454,
                "end_time": 53.06136363636363,
                "pitch": 57,
                "velocity": 64,
                "duration": 0.26590909090909065,
                "tempo": 120.0
            },
            {
                "start_time": 53.06363636363636,
                "end_time": 54.675,
                "pitch": 59,
                "velocity": 64,
                "duration": 1.6113636363636346,
                "tempo": 120.0
            },
            {
                "start_time": 54.67727272727272,
                "end_time": 55.277272727272724,
                "pitch": 56,
                "velocity": 64,
                "duration": 0.6000000000000014,
                "tempo": 120.0
            },
            {
                "start_time": 55.27954545454545,
                "end_time": 55.87954545454545,
                "pitch": 57,
                "velocity": 64,
                "duration": 0.6000000000000014,
                "tempo": 120.0
            },
            {
                "start_time": 55.881818181818176,
                "end_time": 56.27954545454545,
                "pitch": 52,
                "velocity": 64,
                "duration": 0.3977272727272734,
                "tempo": 120.0
            },
            {
                "start_time": 56.28409090909091,
                "end_time": 59.48863636363636,
                "pitch": 54,
                "velocity": 64,
                "duration": 3.2045454545454533,
                "tempo": 120.0
            },
            {
                "start_time": 59.490909090909085,
                "end_time": 59.49772727272727,
                "pitch": 54,
                "velocity": 64,
                "duration": 0.0068181818181827225,
                "tempo": 120.0
            }
        ],
        "Acoustic Bass": [
            {
                "start_time": 1.609090909090909,
                "end_time": 1.7386363636363635,
                "pitch": 45,
                "velocity": 51,
                "duration": 0.12954545454545463,
                "tempo": 120.0
            },
            {
                "start_time": 1.7409090909090907,
                "end_time": 1.8727272727272726,
                "pitch": 45,
                "velocity": 51,
                "duration": 0.13181818181818183,
                "tempo": 120.0
            },
            {
                "start_time": 1.875,
                "end_time": 2.009090909090909,
                "pitch": 45,
                "velocity": 51,
                "duration": 0.13409090909090882,
                "tempo": 120.0
            },
            {
                "start_time": 2.009090909090909,
                "end_time": 2.1409090909090907,
                "pitch": 45,
                "velocity": 51,
                "duration": 0.13181818181818183,
                "tempo": 120.0
            },
            {
                "start_time": 2.143181818181818,
                "end_time": 2.275,
                "pitch": 45,
                "velocity": 51,
                "duration": 0.13181818181818183,
                "tempo": 120.0
            },
            {
                "start_time": 2.2772727272727273,
                "end_time": 2.409090909090909,
                "pitch": 45,
                "velocity": 51,
                "duration": 0.13181818181818183,
                "tempo": 120.0
            },
            {
                "start_time": 2.409090909090909,
                "end_time": 2.543181818181818,
                "pitch": 45,
                "velocity": 51,
                "duration": 0.13409090909090882,
                "tempo": 120.0
            },
            {
                "start_time": 2.543181818181818,
                "end_time": 2.6772727272727272,
                "pitch": 45,
                "velocity": 51,
                "duration": 0.13409090909090926,
                "tempo": 120.0
            },
            {
                "start_time": 2.6795454545454542,
                "end_time": 2.811363636363636,
                "pitch": 45,
                "velocity": 51,
                "duration": 0.13181818181818183,
                "tempo": 120.0
            },
            {
                "start_time": 2.8136363636363635,
                "end_time": 2.9454545454545453,
                "pitch": 45,
                "velocity": 51,
                "duration": 0.13181818181818183,
                "tempo": 120.0
            },
            {
                "start_time": 2.9454545454545453,
                "end_time": 3.0795454545454546,
                "pitch": 45,
                "velocity": 51,
                "duration": 0.13409090909090926,
                "tempo": 120.0
            },
            {
                "start_time": 3.0795454545454546,
                "end_time": 3.2136363636363634,
                "pitch": 45,
                "velocity": 51,
                "duration": 0.13409090909090882,
                "tempo": 120.0
            },
            {
                "start_time": 3.215909090909091,
                "end_time": 3.3454545454545452,
                "pitch": 45,
                "velocity": 51,
                "duration": 0.1295454545454544,
                "tempo": 120.0
            },
            {
                "start_time": 3.3477272727272727,
                "end_time": 3.4795454545454545,
                "pitch": 45,
                "velocity": 51,
                "duration": 0.13181818181818183,
                "tempo": 120.0
            },
            {
                "start_time": 3.4795454545454545,
                "end_time": 3.6136363636363633,
                "pitch": 45,
                "velocity": 51,
                "duration": 0.13409090909090882,
                "tempo": 120.0
            },
            {
                "start_time": 3.6136363636363633,
                "end_time": 3.745454545454545,
                "pitch": 45,
                "velocity": 51,
                "duration": 0.13181818181818183,
                "tempo": 120.0
            },
            {
                "start_time": 3.7477272727272726,
                "end_time": 3.8795454545454544,
                "pitch": 45,
                "velocity": 51,
                "duration": 0.13181818181818183,
                "tempo": 120.0
            },
            {
                "start_time": 3.881818181818182,
                "end_time": 4.013636363636364,
                "pitch": 45,
                "velocity": 51,
                "duration": 0.13181818181818183,
                "tempo": 120.0
            },
            {
                "start_time": 4.013636363636364,
                "end_time": 4.1477272727272725,
                "pitch": 45,
                "velocity": 51,
                "duration": 0.13409090909090882,
                "tempo": 120.0
            },
            {
                "start_time": 4.1477272727272725,
                "end_time": 4.279545454545454,
                "pitch": 45,
                "velocity": 51,
                "duration": 0.13181818181818183,
                "tempo": 120.0
            },
            {
                "start_time": 4.281818181818181,
                "end_time": 4.413636363636363,
                "pitch": 45,
                "velocity": 51,
                "duration": 0.13181818181818183,
                "tempo": 120.0
            },
            {
                "start_time": 4.415909090909091,
                "end_time": 4.547727272727273,
                "pitch": 45,
                "velocity": 51,
                "duration": 0.13181818181818183,
                "tempo": 120.0
            },
            {
                "start_time": 4.55,
                "end_time": 4.681818181818182,
                "pitch": 45,
                "velocity": 51,
                "duration": 0.13181818181818183,
                "tempo": 120.0
            },
            {
                "start_time": 4.684090909090909,
                "end_time": 4.818181818181818,
                "pitch": 45,
                "velocity": 51,
                "duration": 0.1340909090909097,
                "tempo": 120.0
            },
            {
                "start_time": 4.820454545454545,
                "end_time": 4.95,
                "pitch": 45,
                "velocity": 51,
                "duration": 0.12954545454545485,
                "tempo": 120.0
            },
            {
                "start_time": 4.952272727272727,
                "end_time": 5.084090909090909,
                "pitch": 45,
                "velocity": 51,
                "duration": 0.13181818181818183,
                "tempo": 120.0
            },
            {
                "start_time": 5.084090909090909,
                "end_time": 5.218181818181818,
                "pitch": 45,
                "velocity": 51,
                "duration": 0.13409090909090882,
                "tempo": 120.0
            },
            {
                "start_time": 5.218181818181818,
                "end_time": 5.352272727272727,
                "pitch": 45,
                "velocity": 51,
                "duration": 0.13409090909090882,
                "tempo": 120.0
            },
            {
                "start_time": 5.352272727272727,
                "end_time": 5.486363636363636,
                "pitch": 45,
                "velocity": 51,
                "duration": 0.1340909090909097,
                "tempo": 120.0
            },
            {
                "start_time": 5.488636363636363,
                "end_time": 5.620454545454545,
                "pitch": 45,
                "velocity": 51,
                "duration": 0.13181818181818183,
                "tempo": 120.0
            },
            {
                "start_time": 5.622727272727272,
                "end_time": 5.754545454545454,
                "pitch": 45,
                "velocity": 51,
                "duration": 0.13181818181818183,
                "tempo": 120.0
            },
            {
                "start_time": 5.756818181818182,
                "end_time": 5.888636363636364,
                "pitch": 45,
                "velocity": 51,
                "duration": 0.13181818181818183,
                "tempo": 120.0
            },
            {
                "start_time": 5.890909090909091,
                "end_time": 6.0249999999999995,
                "pitch": 45,
                "velocity": 51,
                "duration": 0.13409090909090882,
                "tempo": 120.0
            },
            {
                "start_time": 6.0249999999999995,
                "end_time": 6.156818181818181,
                "pitch": 45,
                "velocity": 51,
                "duration": 0.13181818181818183,
                "tempo": 120.0
            },
            {
                "start_time": 6.159090909090909,
                "end_time": 6.290909090909091,
                "pitch": 45,
                "velocity": 51,
                "duration": 0.13181818181818183,
                "tempo": 120.0
            },
            {
                "start_time": 6.293181818181818,
                "end_time": 6.425,
                "pitch": 45,
                "velocity": 51,
                "duration": 0.13181818181818183,
                "tempo": 120.0
            },
            {
                "start_time": 6.427272727272727,
                "end_time": 6.6931818181818175,
                "pitch": 45,
                "velocity": 64,
                "duration": 0.26590909090909065,
                "tempo": 120.0
            },
            {
                "start_time": 6.695454545454545,
                "end_time": 6.961363636363636,
                "pitch": 44,
                "velocity": 64,
                "duration": 0.26590909090909065,
                "tempo": 120.0
            },
            {
                "start_time": 6.961363636363636,
                "end_time": 7.227272727272727,
                "pitch": 42,
                "velocity": 64,
                "duration": 0.26590909090909065,
                "tempo": 120.0
            },
            {
                "start_time": 7.2295454545454545,
                "end_time": 7.497727272727272,
                "pitch": 40,
                "velocity": 64,
                "duration": 0.26818181818181763,
                "tempo": 120.0
            },
            {
                "start_time": 7.497727272727272,
                "end_time": 7.768181818181818,
                "pitch": 39,
                "velocity": 64,
                "duration": 0.2704545454545455,
                "tempo": 120.0
            },
            {
                "start_time": 7.7704545454545455,
                "end_time": 8.047727272727272,
                "pitch": 37,
                "velocity": 64,
                "duration": 0.27727272727272645,
                "tempo": 120.0
            },
            {
                "start_time": 8.047727272727272,
                "end_time": 8.177272727272728,
                "pitch": 45,
                "velocity": 51,
                "duration": 0.12954545454545574,
                "tempo": 120.0
            },
            {
                "start_time": 8.177272727272728,
                "end_time": 8.309090909090909,
                "pitch": 45,
                "velocity": 51,
                "duration": 0.13181818181818095,
                "tempo": 120.0
            },
            {
                "start_time": 8.311363636363636,
                "end_time": 8.443181818181818,
                "pitch": 45,
                "velocity": 51,
                "duration": 0.13181818181818272,
                "tempo": 120.0
            },
            {
                "start_time": 8.445454545454545,
                "end_time": 8.577272727272726,
                "pitch": 45,
                "velocity": 51,
                "duration": 0.13181818181818095,
                "tempo": 120.0
            },
            {
                "start_time": 8.579545454545453,
                "end_time": 8.711363636363636,
                "pitch": 45,
                "velocity": 51,
                "duration": 0.13181818181818272,
                "tempo": 120.0
            },
            {
                "start_time": 8.713636363636363,
                "end_time": 8.847727272727273,
                "pitch": 45,
                "velocity": 51,
                "duration": 0.1340909090909097,
                "tempo": 120.0
            },
            {
                "start_time": 8.847727272727273,
                "end_time": 8.98181818181818,
                "pitch": 45,
                "velocity": 51,
                "duration": 0.13409090909090793,
                "tempo": 120.0
            },
            {
                "start_time": 8.98181818181818,
                "end_time": 9.11590909090909,
                "pitch": 45,
                "velocity": 51,
                "duration": 0.1340909090909097,
                "tempo": 120.0
            },
            {
                "start_time": 9.11590909090909,
                "end_time": 9.25,
                "pitch": 45,
                "velocity": 51,
                "duration": 0.1340909090909097,
                "tempo": 120.0
            },
            {
                "start_time": 9.252272727272727,
                "end_time": 9.384090909090908,
                "pitch": 45,
                "velocity": 51,
                "duration": 0.13181818181818095,
                "tempo": 120.0
            },
            {
                "start_time": 9.386363636363637,
                "end_time": 9.518181818181818,
                "pitch": 45,
                "velocity": 51,
                "duration": 0.13181818181818095,
                "tempo": 120.0
            },
            {
                "start_time": 9.520454545454545,
                "end_time": 9.654545454545454,
                "pitch": 45,
                "velocity": 51,
                "duration": 0.1340909090909097,
                "tempo": 120.0
            },
            {
                "start_time": 9.656818181818181,
                "end_time": 9.786363636363635,
                "pitch": 45,
                "velocity": 51,
                "duration": 0.12954545454545396,
                "tempo": 120.0
            },
            {
                "start_time": 9.788636363636364,
                "end_time": 9.920454545454545,
                "pitch": 45,
                "velocity": 51,
                "duration": 0.13181818181818095,
                "tempo": 120.0
            },
            {
                "start_time": 9.920454545454545,
                "end_time": 10.054545454545455,
                "pitch": 45,
                "velocity": 51,
                "duration": 0.1340909090909097,
                "tempo": 120.0
            },
            {
                "start_time": 10.054545454545455,
                "end_time": 10.188636363636363,
                "pitch": 45,
                "velocity": 51,
                "duration": 0.13409090909090793,
                "tempo": 120.0
            },
            {
                "start_time": 10.188636363636363,
                "end_time": 10.322727272727272,
                "pitch": 45,
                "velocity": 51,
                "duration": 0.1340909090909097,
                "tempo": 120.0
            },
            {
                "start_time": 10.322727272727272,
                "end_time": 10.456818181818182,
                "pitch": 45,
                "velocity": 51,
                "duration": 0.1340909090909097,
                "tempo": 120.0
            },
            {
                "start_time": 10.459090909090909,
                "end_time": 10.59090909090909,
                "pitch": 45,
                "velocity": 51,
                "duration": 0.13181818181818095,
                "tempo": 120.0
            },
            {
                "start_time": 10.593181818181817,
                "end_time": 10.725,
                "pitch": 45,
                "velocity": 51,
                "duration": 0.13181818181818272,
                "tempo": 120.0
            },
            {
                "start_time": 10.727272727272727,
                "end_time": 10.861363636363636,
                "pitch": 45,
                "velocity": 51,
                "duration": 0.1340909090909097,
                "tempo": 120.0
            },
            {
                "start_time": 10.861363636363636,
                "end_time": 10.995454545454544,
                "pitch": 45,
                "velocity": 51,
                "duration": 0.13409090909090793,
                "tempo": 120.0
            },
            {
                "start_time": 10.995454545454544,
                "end_time": 11.129545454545454,
                "pitch": 45,
                "velocity": 51,
                "duration": 0.1340909090909097,
                "tempo": 120.0
            },
            {
                "start_time": 11.129545454545454,
                "end_time": 11.26590909090909,
                "pitch": 45,
                "velocity": 51,
                "duration": 0.1363636363636367,
                "tempo": 120.0
            },
            {
                "start_time": 11.26590909090909,
                "end_time": 11.397727272727272,
                "pitch": 45,
                "velocity": 51,
                "duration": 0.13181818181818095,
                "tempo": 120.0
            },
            {
                "start_time": 11.399999999999999,
                "end_time": 11.531818181818181,
                "pitch": 45,
                "velocity": 51,
                "duration": 0.13181818181818272,
                "tempo": 120.0
            },
            {
                "start_time": 11.534090909090908,
                "end_time": 11.665909090909091,
                "pitch": 45,
                "velocity": 51,
                "duration": 0.13181818181818272,
                "tempo": 120.0
            },
            {
                "start_time": 11.668181818181818,
                "end_time": 11.799999999999999,
                "pitch": 45,
                "velocity": 51,
                "duration": 0.13181818181818095,
                "tempo": 120.0
            },
            {
                "start_time": 11.802272727272726,
                "end_time": 11.934090909090909,
                "pitch": 45,
                "velocity": 51,
                "duration": 0.13181818181818272,
                "tempo": 120.0
            },
            {
                "start_time": 11.934090909090909,
                "end_time": 12.06590909090909,
                "pitch": 45,
                "velocity": 51,
                "duration": 0.13181818181818095,
                "tempo": 120.0
            },
            {
                "start_time": 12.068181818181818,
                "end_time": 12.202272727272726,
                "pitch": 45,
                "velocity": 51,
                "duration": 0.13409090909090793,
                "tempo": 120.0
            },
            {
                "start_time": 12.202272727272726,
                "end_time": 12.336363636363636,
                "pitch": 45,
                "velocity": 51,
                "duration": 0.1340909090909097,
                "tempo": 120.0
            },
            {
                "start_time": 12.336363636363636,
                "end_time": 12.470454545454546,
                "pitch": 45,
                "velocity": 51,
                "duration": 0.1340909090909097,
                "tempo": 120.0
            },
            {
                "start_time": 12.472727272727273,
                "end_time": 12.604545454545454,
                "pitch": 45,
                "velocity": 51,
                "duration": 0.13181818181818095,
                "tempo": 120.0
            },
            {
                "start_time": 12.60681818181818,
                "end_time": 12.738636363636363,
                "pitch": 45,
                "velocity": 51,
                "duration": 0.13181818181818272,
                "tempo": 120.0
            },
            {
                "start_time": 12.74090909090909,
                "end_time": 12.875,
                "pitch": 45,
                "velocity": 51,
                "duration": 0.1340909090909097,
                "tempo": 120.0
            },
            {
                "start_time": 12.875,
                "end_time": 13.006818181818181,
                "pitch": 45,
                "velocity": 51,
                "duration": 0.13181818181818095,
                "tempo": 120.0
            },
            {
                "start_time": 13.009090909090908,
                "end_time": 13.143181818181818,
                "pitch": 45,
                "velocity": 51,
                "duration": 0.1340909090909097,
                "tempo": 120.0
            },
            {
                "start_time": 13.143181818181818,
                "end_time": 13.277272727272727,
                "pitch": 45,
                "velocity": 51,
                "duration": 0.1340909090909097,
                "tempo": 120.0
            },
            {
                "start_time": 13.277272727272727,
                "end_time": 13.411363636363635,
                "pitch": 45,
                "velocity": 51,
                "duration": 0.13409090909090793,
                "tempo": 120.0
            },
            {
                "start_time": 13.411363636363635,
                "end_time": 13.545454545454545,
                "pitch": 45,
                "velocity": 51,
                "duration": 0.1340909090909097,
                "tempo": 120.0
            },
            {
                "start_time": 13.547727272727272,
                "end_time": 13.679545454545455,
                "pitch": 45,
                "velocity": 51,
                "duration": 0.13181818181818272,
                "tempo": 120.0
            },
            {
                "start_time": 13.681818181818182,
                "end_time": 13.813636363636363,
                "pitch": 45,
                "velocity": 51,
                "duration": 0.13181818181818095,
                "tempo": 120.0
            },
            {
                "start_time": 13.813636363636363,
                "end_time": 13.947727272727272,
                "pitch": 45,
                "velocity": 51,
                "duration": 0.1340909090909097,
                "tempo": 120.0
            },
            {
                "start_time": 13.947727272727272,
                "end_time": 14.081818181818182,
                "pitch": 45,
                "velocity": 51,
                "duration": 0.1340909090909097,
                "tempo": 120.0
            },
            {
                "start_time": 14.081818181818182,
                "end_time": 14.213636363636363,
                "pitch": 45,
                "velocity": 51,
                "duration": 0.13181818181818095,
                "tempo": 120.0
            },
            {
                "start_time": 14.21590909090909,
                "end_time": 14.35,
                "pitch": 45,
                "velocity": 51,
                "duration": 0.1340909090909097,
                "tempo": 120.0
            },
            {
                "start_time": 14.35,
                "end_time": 14.484090909090908,
                "pitch": 45,
                "velocity": 51,
                "duration": 0.13409090909090793,
                "tempo": 120.0
            },
            {
                "start_time": 14.486363636363636,
                "end_time": 14.618181818181817,
                "pitch": 45,
                "velocity": 51,
                "duration": 0.13181818181818095,
                "tempo": 120.0
            },
            {
                "start_time": 14.620454545454544,
                "end_time": 14.752272727272727,
                "pitch": 45,
                "velocity": 51,
                "duration": 0.13181818181818272,
                "tempo": 120.0
            },
            {
                "start_time": 14.754545454545454,
                "end_time": 14.886363636363635,
                "pitch": 45,
                "velocity": 51,
                "duration": 0.13181818181818095,
                "tempo": 120.0
            },
            {
                "start_time": 14.888636363636364,
                "end_time": 15.024999999999999,
                "pitch": 45,
                "velocity": 51,
                "duration": 0.1363636363636349,
                "tempo": 120.0
            },
            {
                "start_time": 15.024999999999999,
                "end_time": 15.161363636363635,
                "pitch": 45,
                "velocity": 51,
                "duration": 0.1363636363636367,
                "tempo": 120.0
            },
            {
                "start_time": 15.161363636363635,
                "end_time": 15.297727272727272,
                "pitch": 45,
                "velocity": 51,
                "duration": 0.1363636363636367,
                "tempo": 120.0
            },
            {
                "start_time": 15.299999999999999,
                "end_time": 15.431818181818182,
                "pitch": 45,
                "velocity": 51,
                "duration": 0.13181818181818272,
                "tempo": 120.0
            },
            {
                "start_time": 15.434090909090909,
                "end_time": 15.568181818181817,
                "pitch": 45,
                "velocity": 51,
                "duration": 0.13409090909090793,
                "tempo": 120.0
            },
            {
                "start_time": 15.568181818181817,
                "end_time": 15.702272727272726,
                "pitch": 45,
                "velocity": 51,
                "duration": 0.1340909090909097,
                "tempo": 120.0
            },
            {
                "start_time": 15.702272727272726,
                "end_time": 15.836363636363636,
                "pitch": 45,
                "velocity": 51,
                "duration": 0.1340909090909097,
                "tempo": 120.0
            },
            {
                "start_time": 15.836363636363636,
                "end_time": 15.970454545454544,
                "pitch": 45,
                "velocity": 51,
                "duration": 0.13409090909090793,
                "tempo": 120.0
            },
            {
                "start_time": 15.972727272727273,
                "end_time": 16.104545454545455,
                "pitch": 45,
                "velocity": 51,
                "duration": 0.13181818181818272,
                "tempo": 120.0
            },
            {
                "start_time": 16.10681818181818,
                "end_time": 16.238636363636363,
                "pitch": 45,
                "velocity": 51,
                "duration": 0.13181818181818272,
                "tempo": 120.0
            },
            {
                "start_time": 16.24090909090909,
                "end_time": 16.37272727272727,
                "pitch": 45,
                "velocity": 51,
                "duration": 0.13181818181818272,
                "tempo": 120.0
            },
            {
                "start_time": 16.375,
                "end_time": 16.509090909090908,
                "pitch": 45,
                "velocity": 51,
                "duration": 0.13409090909090793,
                "tempo": 120.0
            },
            {
                "start_time": 16.509090909090908,
                "end_time": 16.64090909090909,
                "pitch": 45,
                "velocity": 51,
                "duration": 0.13181818181818272,
                "tempo": 120.0
            },
            {
                "start_time": 16.643181818181816,
                "end_time": 16.775,
                "pitch": 45,
                "velocity": 51,
                "duration": 0.13181818181818272,
                "tempo": 120.0
            },
            {
                "start_time": 16.775,
                "end_time": 16.909090909090907,
                "pitch": 45,
                "velocity": 51,
                "duration": 0.13409090909090793,
                "tempo": 120.0
            },
            {
                "start_time": 16.911363636363635,
                "end_time": 17.04090909090909,
                "pitch": 45,
                "velocity": 51,
                "duration": 0.12954545454545396,
                "tempo": 120.0
            },
            {
                "start_time": 17.043181818181818,
                "end_time": 17.175,
                "pitch": 45,
                "velocity": 51,
                "duration": 0.13181818181818272,
                "tempo": 120.0
            },
            {
                "start_time": 17.177272727272726,
                "end_time": 17.30909090909091,
                "pitch": 45,
                "velocity": 51,
                "duration": 0.13181818181818272,
                "tempo": 120.0
            },
            {
                "start_time": 17.311363636363634,
                "end_time": 17.443181818181817,
                "pitch": 45,
                "velocity": 51,
                "duration": 0.13181818181818272,
                "tempo": 120.0
            },
            {
                "start_time": 17.445454545454545,
                "end_time": 17.577272727272728,
                "pitch": 45,
                "velocity": 51,
                "duration": 0.13181818181818272,
                "tempo": 120.0
            },
            {
                "start_time": 17.579545454545453,
                "end_time": 17.71363636363636,
                "pitch": 45,
                "velocity": 51,
                "duration": 0.13409090909090793,
                "tempo": 120.0
            },
            {
                "start_time": 17.71590909090909,
                "end_time": 17.845454545454544,
                "pitch": 45,
                "velocity": 51,
                "duration": 0.12954545454545396,
                "tempo": 120.0
            },
            {
                "start_time": 17.847727272727273,
                "end_time": 17.979545454545455,
                "pitch": 45,
                "velocity": 51,
                "duration": 0.13181818181818272,
                "tempo": 120.0
            },
            {
                "start_time": 17.979545454545455,
                "end_time": 18.113636363636363,
                "pitch": 45,
                "velocity": 51,
                "duration": 0.13409090909090793,
                "tempo": 120.0
            },
            {
                "start_time": 18.113636363636363,
                "end_time": 18.24772727272727,
                "pitch": 45,
                "velocity": 51,
                "duration": 0.13409090909090793,
                "tempo": 120.0
            },
            {
                "start_time": 18.24772727272727,
                "end_time": 18.38181818181818,
                "pitch": 45,
                "velocity": 51,
                "duration": 0.13409090909090793,
                "tempo": 120.0
            },
            {
                "start_time": 18.38181818181818,
                "end_time": 18.51590909090909,
                "pitch": 45,
                "velocity": 51,
                "duration": 0.13409090909091148,
                "tempo": 120.0
            },
            {
                "start_time": 18.51590909090909,
                "end_time": 18.65,
                "pitch": 45,
                "velocity": 51,
                "duration": 0.13409090909090793,
                "tempo": 120.0
            },
            {
                "start_time": 18.65,
                "end_time": 18.78181818181818,
                "pitch": 45,
                "velocity": 51,
                "duration": 0.13181818181818272,
                "tempo": 120.0
            },
            {
                "start_time": 18.784090909090907,
                "end_time": 18.91590909090909,
                "pitch": 45,
                "velocity": 51,
                "duration": 0.13181818181818272,
                "tempo": 120.0
            },
            {
                "start_time": 18.918181818181818,
                "end_time": 19.05,
                "pitch": 45,
                "velocity": 51,
                "duration": 0.13181818181818272,
                "tempo": 120.0
            },
            {
                "start_time": 19.052272727272726,
                "end_time": 19.18409090909091,
                "pitch": 45,
                "velocity": 51,
                "duration": 0.13181818181818272,
                "tempo": 120.0
            },
            {
                "start_time": 19.18409090909091,
                "end_time": 19.318181818181817,
                "pitch": 45,
                "velocity": 51,
                "duration": 0.13409090909090793,
                "tempo": 120.0
            },
            {
                "start_time": 19.320454545454545,
                "end_time": 19.452272727272728,
                "pitch": 45,
                "velocity": 51,
                "duration": 0.13181818181818272,
                "tempo": 120.0
            },
            {
                "start_time": 19.452272727272728,
                "end_time": 19.586363636363636,
                "pitch": 45,
                "velocity": 51,
                "duration": 0.13409090909090793,
                "tempo": 120.0
            },
            {
                "start_time": 19.586363636363636,
                "end_time": 19.720454545454544,
                "pitch": 45,
                "velocity": 51,
                "duration": 0.13409090909090793,
                "tempo": 120.0
            },
            {
                "start_time": 19.720454545454544,
                "end_time": 19.854545454545452,
                "pitch": 45,
                "velocity": 51,
                "duration": 0.13409090909090793,
                "tempo": 120.0
            },
            {
                "start_time": 19.854545454545452,
                "end_time": 19.986363636363635,
                "pitch": 45,
                "velocity": 51,
                "duration": 0.13181818181818272,
                "tempo": 120.0
            },
            {
                "start_time": 19.988636363636363,
                "end_time": 20.120454545454546,
                "pitch": 45,
                "velocity": 51,
                "duration": 0.13181818181818272,
                "tempo": 120.0
            },
            {
                "start_time": 20.12272727272727,
                "end_time": 20.254545454545454,
                "pitch": 45,
                "velocity": 51,
                "duration": 0.13181818181818272,
                "tempo": 120.0
            },
            {
                "start_time": 20.25681818181818,
                "end_time": 20.388636363636362,
                "pitch": 45,
                "velocity": 51,
                "duration": 0.13181818181818272,
                "tempo": 120.0
            },
            {
                "start_time": 20.39090909090909,
                "end_time": 20.522727272727273,
                "pitch": 45,
                "velocity": 51,
                "duration": 0.13181818181818272,
                "tempo": 120.0
            },
            {
                "start_time": 20.525,
                "end_time": 20.65681818181818,
                "pitch": 45,
                "velocity": 51,
                "duration": 0.13181818181818272,
                "tempo": 120.0
            },
            {
                "start_time": 20.659090909090907,
                "end_time": 20.79090909090909,
                "pitch": 45,
                "velocity": 51,
                "duration": 0.13181818181818272,
                "tempo": 120.0
            },
            {
                "start_time": 20.79090909090909,
                "end_time": 20.927272727272726,
                "pitch": 45,
                "velocity": 51,
                "duration": 0.1363636363636367,
                "tempo": 120.0
            },
            {
                "start_time": 20.927272727272726,
                "end_time": 21.05681818181818,
                "pitch": 45,
                "velocity": 51,
                "duration": 0.12954545454545396,
                "tempo": 120.0
            },
            {
                "start_time": 21.05909090909091,
                "end_time": 21.19090909090909,
                "pitch": 45,
                "velocity": 51,
                "duration": 0.13181818181818272,
                "tempo": 120.0
            },
            {
                "start_time": 21.193181818181817,
                "end_time": 21.325,
                "pitch": 45,
                "velocity": 51,
                "duration": 0.13181818181818272,
                "tempo": 120.0
            },
            {
                "start_time": 21.325,
                "end_time": 21.459090909090907,
                "pitch": 45,
                "velocity": 51,
                "duration": 0.13409090909090793,
                "tempo": 120.0
            },
            {
                "start_time": 21.461363636363636,
                "end_time": 21.59318181818182,
                "pitch": 45,
                "velocity": 51,
                "duration": 0.13181818181818272,
                "tempo": 120.0
            },
            {
                "start_time": 21.595454545454544,
                "end_time": 21.727272727272727,
                "pitch": 45,
                "velocity": 51,
                "duration": 0.13181818181818272,
                "tempo": 120.0
            },
            {
                "start_time": 21.729545454545452,
                "end_time": 21.861363636363635,
                "pitch": 45,
                "velocity": 51,
                "duration": 0.13181818181818272,
                "tempo": 120.0
            },
            {
                "start_time": 21.863636363636363,
                "end_time": 21.995454545454546,
                "pitch": 45,
                "velocity": 51,
                "duration": 0.13181818181818272,
                "tempo": 120.0
            },
            {
                "start_time": 21.995454545454546,
                "end_time": 22.129545454545454,
                "pitch": 45,
                "velocity": 51,
                "duration": 0.13409090909090793,
                "tempo": 120.0
            },
            {
                "start_time": 22.129545454545454,
                "end_time": 22.263636363636362,
                "pitch": 45,
                "velocity": 51,
                "duration": 0.13409090909090793,
                "tempo": 120.0
            },
            {
                "start_time": 22.263636363636362,
                "end_time": 22.397727272727273,
                "pitch": 45,
                "velocity": 51,
                "duration": 0.13409090909091148,
                "tempo": 120.0
            },
            {
                "start_time": 22.397727272727273,
                "end_time": 22.53181818181818,
                "pitch": 45,
                "velocity": 51,
                "duration": 0.13409090909090793,
                "tempo": 120.0
            },
            {
                "start_time": 22.534090909090907,
                "end_time": 22.66590909090909,
                "pitch": 45,
                "velocity": 51,
                "duration": 0.13181818181818272,
                "tempo": 120.0
            },
            {
                "start_time": 22.66590909090909,
                "end_time": 22.797727272727272,
                "pitch": 45,
                "velocity": 51,
                "duration": 0.13181818181818272,
                "tempo": 120.0
            },
            {
                "start_time": 22.799999999999997,
                "end_time": 22.93181818181818,
                "pitch": 45,
                "velocity": 51,
                "duration": 0.13181818181818272,
                "tempo": 120.0
            },
            {
                "start_time": 22.93409090909091,
                "end_time": 23.06590909090909,
                "pitch": 45,
                "velocity": 51,
                "duration": 0.13181818181818272,
                "tempo": 120.0
            },
            {
                "start_time": 23.068181818181817,
                "end_time": 23.2,
                "pitch": 45,
                "velocity": 51,
                "duration": 0.13181818181818272,
                "tempo": 120.0
            },
            {
                "start_time": 23.2,
                "end_time": 23.334090909090907,
                "pitch": 45,
                "velocity": 51,
                "duration": 0.13409090909090793,
                "tempo": 120.0
            },
            {
                "start_time": 23.334090909090907,
                "end_time": 23.470454545454544,
                "pitch": 45,
                "velocity": 51,
                "duration": 0.1363636363636367,
                "tempo": 120.0
            },
            {
                "start_time": 23.470454545454544,
                "end_time": 23.60681818181818,
                "pitch": 45,
                "velocity": 51,
                "duration": 0.1363636363636367,
                "tempo": 120.0
            },
            {
                "start_time": 23.60909090909091,
                "end_time": 23.745454545454546,
                "pitch": 45,
                "velocity": 51,
                "duration": 0.1363636363636367,
                "tempo": 120.0
            },
            {
                "start_time": 23.745454545454546,
                "end_time": 23.879545454545454,
                "pitch": 45,
                "velocity": 51,
                "duration": 0.13409090909090793,
                "tempo": 120.0
            },
            {
                "start_time": 23.879545454545454,
                "end_time": 24.013636363636362,
                "pitch": 45,
                "velocity": 51,
                "duration": 0.13409090909090793,
                "tempo": 120.0
            },
            {
                "start_time": 24.013636363636362,
                "end_time": 24.15,
                "pitch": 45,
                "velocity": 51,
                "duration": 0.1363636363636367,
                "tempo": 120.0
            },
            {
                "start_time": 24.15,
                "end_time": 24.28181818181818,
                "pitch": 45,
                "velocity": 51,
                "duration": 0.13181818181818272,
                "tempo": 120.0
            },
            {
                "start_time": 24.28181818181818,
                "end_time": 24.413636363636364,
                "pitch": 45,
                "velocity": 51,
                "duration": 0.13181818181818272,
                "tempo": 120.0
            },
            {
                "start_time": 24.41590909090909,
                "end_time": 24.547727272727272,
                "pitch": 45,
                "velocity": 51,
                "duration": 0.13181818181818272,
                "tempo": 120.0
            },
            {
                "start_time": 24.549999999999997,
                "end_time": 24.68181818181818,
                "pitch": 45,
                "velocity": 51,
                "duration": 0.13181818181818272,
                "tempo": 120.0
            },
            {
                "start_time": 24.68409090909091,
                "end_time": 24.81590909090909,
                "pitch": 45,
                "velocity": 51,
                "duration": 0.13181818181818272,
                "tempo": 120.0
            },
            {
                "start_time": 24.818181818181817,
                "end_time": 24.952272727272724,
                "pitch": 45,
                "velocity": 51,
                "duration": 0.13409090909090793,
                "tempo": 120.0
            },
            {
                "start_time": 24.952272727272724,
                "end_time": 25.084090909090907,
                "pitch": 45,
                "velocity": 51,
                "duration": 0.13181818181818272,
                "tempo": 120.0
            },
            {
                "start_time": 25.086363636363636,
                "end_time": 25.21818181818182,
                "pitch": 45,
                "velocity": 51,
                "duration": 0.13181818181818272,
                "tempo": 120.0
            },
            {
                "start_time": 25.21818181818182,
                "end_time": 25.352272727272727,
                "pitch": 45,
                "velocity": 51,
                "duration": 0.13409090909090793,
                "tempo": 120.0
            },
            {
                "start_time": 25.352272727272727,
                "end_time": 25.48409090909091,
                "pitch": 45,
                "velocity": 51,
                "duration": 0.13181818181818272,
                "tempo": 120.0
            },
            {
                "start_time": 25.486363636363635,
                "end_time": 25.618181818181817,
                "pitch": 45,
                "velocity": 51,
                "duration": 0.13181818181818272,
                "tempo": 120.0
            },
            {
                "start_time": 25.620454545454542,
                "end_time": 25.752272727272725,
                "pitch": 45,
                "velocity": 51,
                "duration": 0.13181818181818272,
                "tempo": 120.0
            },
            {
                "start_time": 25.754545454545454,
                "end_time": 25.886363636363637,
                "pitch": 45,
                "velocity": 51,
                "duration": 0.13181818181818272,
                "tempo": 120.0
            },
            {
                "start_time": 25.888636363636362,
                "end_time": 26.020454545454545,
                "pitch": 45,
                "velocity": 51,
                "duration": 0.13181818181818272,
                "tempo": 120.0
            },
            {
                "start_time": 26.02272727272727,
                "end_time": 26.154545454545453,
                "pitch": 45,
                "velocity": 51,
                "duration": 0.13181818181818272,
                "tempo": 120.0
            },
            {
                "start_time": 26.15681818181818,
                "end_time": 26.288636363636364,
                "pitch": 45,
                "velocity": 51,
                "duration": 0.13181818181818272,
                "tempo": 120.0
            },
            {
                "start_time": 26.29090909090909,
                "end_time": 26.422727272727272,
                "pitch": 45,
                "velocity": 51,
                "duration": 0.13181818181818272,
                "tempo": 120.0
            },
            {
                "start_time": 26.422727272727272,
                "end_time": 26.55681818181818,
                "pitch": 45,
                "velocity": 51,
                "duration": 0.13409090909090793,
                "tempo": 120.0
            },
            {
                "start_time": 26.55909090909091,
                "end_time": 26.69090909090909,
                "pitch": 45,
                "velocity": 51,
                "duration": 0.13181818181818272,
                "tempo": 120.0
            },
            {
                "start_time": 26.69090909090909,
                "end_time": 26.825,
                "pitch": 45,
                "velocity": 51,
                "duration": 0.13409090909090793,
                "tempo": 120.0
            },
            {
                "start_time": 26.825,
                "end_time": 26.959090909090907,
                "pitch": 45,
                "velocity": 51,
                "duration": 0.13409090909090793,
                "tempo": 120.0
            },
            {
                "start_time": 26.961363636363636,
                "end_time": 27.093181818181815,
                "pitch": 45,
                "velocity": 51,
                "duration": 0.13181818181817917,
                "tempo": 120.0
            },
            {
                "start_time": 27.093181818181815,
                "end_time": 27.227272727272727,
                "pitch": 45,
                "velocity": 51,
                "duration": 0.13409090909091148,
                "tempo": 120.0
            },
            {
                "start_time": 27.227272727272727,
                "end_time": 27.361363636363635,
                "pitch": 45,
                "velocity": 51,
                "duration": 0.13409090909090793,
                "tempo": 120.0
            },
            {
                "start_time": 27.363636363636363,
                "end_time": 27.493181818181817,
                "pitch": 45,
                "velocity": 51,
                "duration": 0.12954545454545396,
                "tempo": 120.0
            },
            {
                "start_time": 27.495454545454542,
                "end_time": 27.627272727272725,
                "pitch": 45,
                "velocity": 51,
                "duration": 0.13181818181818272,
                "tempo": 120.0
            },
            {
                "start_time": 27.627272727272725,
                "end_time": 27.761363636363637,
                "pitch": 45,
                "velocity": 51,
                "duration": 0.13409090909091148,
                "tempo": 120.0
            },
            {
                "start_time": 27.761363636363637,
                "end_time": 27.895454545454545,
                "pitch": 45,
                "velocity": 51,
                "duration": 0.13409090909090793,
                "tempo": 120.0
            },
            {
                "start_time": 27.895454545454545,
                "end_time": 28.029545454545453,
                "pitch": 45,
                "velocity": 51,
                "duration": 0.13409090909090793,
                "tempo": 120.0
            },
            {
                "start_time": 28.029545454545453,
                "end_time": 28.163636363636364,
                "pitch": 45,
                "velocity": 51,
                "duration": 0.13409090909091148,
                "tempo": 120.0
            },
            {
                "start_time": 28.163636363636364,
                "end_time": 28.297727272727272,
                "pitch": 45,
                "velocity": 51,
                "duration": 0.13409090909090793,
                "tempo": 120.0
            },
            {
                "start_time": 28.297727272727272,
                "end_time": 28.429545454545455,
                "pitch": 45,
                "velocity": 51,
                "duration": 0.13181818181818272,
                "tempo": 120.0
            },
            {
                "start_time": 28.43181818181818,
                "end_time": 28.563636363636363,
                "pitch": 45,
                "velocity": 51,
                "duration": 0.13181818181818272,
                "tempo": 120.0
            },
            {
                "start_time": 28.565909090909088,
                "end_time": 28.69772727272727,
                "pitch": 45,
                "velocity": 51,
                "duration": 0.13181818181818272,
                "tempo": 120.0
            },
            {
                "start_time": 28.7,
                "end_time": 28.831818181818182,
                "pitch": 45,
                "velocity": 51,
                "duration": 0.13181818181818272,
                "tempo": 120.0
            },
            {
                "start_time": 28.834090909090907,
                "end_time": 28.968181818181815,
                "pitch": 45,
                "velocity": 51,
                "duration": 0.13409090909090793,
                "tempo": 120.0
            },
            {
                "start_time": 28.970454545454544,
                "end_time": 29.099999999999998,
                "pitch": 45,
                "velocity": 51,
                "duration": 0.12954545454545396,
                "tempo": 120.0
            },
            {
                "start_time": 29.102272727272727,
                "end_time": 29.23409090909091,
                "pitch": 45,
                "velocity": 51,
                "duration": 0.13181818181818272,
                "tempo": 120.0
            },
            {
                "start_time": 29.23409090909091,
                "end_time": 29.368181818181817,
                "pitch": 45,
                "velocity": 51,
                "duration": 0.13409090909090793,
                "tempo": 120.0
            },
            {
                "start_time": 29.368181818181817,
                "end_time": 29.5,
                "pitch": 45,
                "velocity": 51,
                "duration": 0.13181818181818272,
                "tempo": 120.0
            },
            {
                "start_time": 29.502272727272725,
                "end_time": 29.634090909090908,
                "pitch": 45,
                "velocity": 51,
                "duration": 0.13181818181818272,
                "tempo": 120.0
            },
            {
                "start_time": 29.636363636363637,
                "end_time": 29.768181818181816,
                "pitch": 45,
                "velocity": 51,
                "duration": 0.13181818181817917,
                "tempo": 120.0
            },
            {
                "start_time": 29.770454545454545,
                "end_time": 29.902272727272727,
                "pitch": 45,
                "velocity": 51,
                "duration": 0.13181818181818272,
                "tempo": 120.0
            },
            {
                "start_time": 29.904545454545453,
                "end_time": 30.036363636363635,
                "pitch": 45,
                "velocity": 51,
                "duration": 0.13181818181818272,
                "tempo": 120.0
            },
            {
                "start_time": 30.03863636363636,
                "end_time": 30.172727272727272,
                "pitch": 45,
                "velocity": 51,
                "duration": 0.13409090909091148,
                "tempo": 120.0
            },
            {
                "start_time": 30.172727272727272,
                "end_time": 30.304545454545455,
                "pitch": 45,
                "velocity": 51,
                "duration": 0.13181818181818272,
                "tempo": 120.0
            },
            {
                "start_time": 30.30681818181818,
                "end_time": 30.438636363636363,
                "pitch": 45,
                "velocity": 51,
                "duration": 0.13181818181818272,
                "tempo": 120.0
            },
            {
                "start_time": 30.438636363636363,
                "end_time": 30.57272727272727,
                "pitch": 45,
                "velocity": 51,
                "duration": 0.13409090909090793,
                "tempo": 120.0
            },
            {
                "start_time": 30.575,
                "end_time": 30.709090909090907,
                "pitch": 45,
                "velocity": 51,
                "duration": 0.13409090909090793,
                "tempo": 120.0
            },
            {
                "start_time": 30.709090909090907,
                "end_time": 30.845454545454544,
                "pitch": 45,
                "velocity": 51,
                "duration": 0.1363636363636367,
                "tempo": 120.0
            },
            {
                "start_time": 30.847727272727273,
                "end_time": 30.98409090909091,
                "pitch": 45,
                "velocity": 51,
                "duration": 0.1363636363636367,
                "tempo": 120.0
            },
            {
                "start_time": 30.98409090909091,
                "end_time": 31.118181818181817,
                "pitch": 45,
                "velocity": 51,
                "duration": 0.13409090909090793,
                "tempo": 120.0
            },
            {
                "start_time": 31.118181818181817,
                "end_time": 31.252272727272725,
                "pitch": 45,
                "velocity": 51,
                "duration": 0.13409090909090793,
                "tempo": 120.0
            },
            {
                "start_time": 31.252272727272725,
                "end_time": 31.386363636363633,
                "pitch": 45,
                "velocity": 51,
                "duration": 0.13409090909090793,
                "tempo": 120.0
            },
            {
                "start_time": 31.388636363636362,
                "end_time": 31.520454545454545,
                "pitch": 45,
                "velocity": 51,
                "duration": 0.13181818181818272,
                "tempo": 120.0
            },
            {
                "start_time": 31.520454545454545,
                "end_time": 31.652272727272727,
                "pitch": 45,
                "velocity": 51,
                "duration": 0.13181818181818272,
                "tempo": 120.0
            },
            {
                "start_time": 31.654545454545453,
                "end_time": 31.786363636363635,
                "pitch": 45,
                "velocity": 51,
                "duration": 0.13181818181818272,
                "tempo": 120.0
            },
            {
                "start_time": 31.78863636363636,
                "end_time": 31.920454545454543,
                "pitch": 45,
                "velocity": 51,
                "duration": 0.13181818181818272,
                "tempo": 120.0
            },
            {
                "start_time": 31.922727272727272,
                "end_time": 32.054545454545455,
                "pitch": 45,
                "velocity": 51,
                "duration": 0.13181818181818272,
                "tempo": 120.0
            },
            {
                "start_time": 32.054545454545455,
                "end_time": 32.18863636363636,
                "pitch": 45,
                "velocity": 51,
                "duration": 0.13409090909090793,
                "tempo": 120.0
            },
            {
                "start_time": 32.19090909090909,
                "end_time": 32.45454545454545,
                "pitch": 45,
                "velocity": 64,
                "duration": 0.26363636363636545,
                "tempo": 120.0
            },
            {
                "start_time": 32.45681818181818,
                "end_time": 32.72272727272727,
                "pitch": 44,
                "velocity": 64,
                "duration": 0.26590909090909065,
                "tempo": 120.0
            },
            {
                "start_time": 32.725,
                "end_time": 32.99090909090909,
                "pitch": 42,
                "velocity": 64,
                "duration": 0.26590909090909065,
                "tempo": 120.0
            },
            {
                "start_time": 32.99318181818182,
                "end_time": 33.25909090909091,
                "pitch": 40,
                "velocity": 64,
                "duration": 0.26590909090909065,
                "tempo": 120.0
            },
            {
                "start_time": 33.25909090909091,
                "end_time": 33.525,
                "pitch": 39,
                "velocity": 64,
                "duration": 0.26590909090909065,
                "tempo": 120.0
            },
            {
                "start_time": 33.527272727272724,
                "end_time": 33.793181818181814,
                "pitch": 37,
                "velocity": 64,
                "duration": 0.26590909090909065,
                "tempo": 120.0
            },
            {
                "start_time": 33.79545454545455,
                "end_time": 33.925,
                "pitch": 45,
                "velocity": 51,
                "duration": 0.1295454545454504,
                "tempo": 120.0
            },
            {
                "start_time": 33.92727272727272,
                "end_time": 34.059090909090905,
                "pitch": 45,
                "velocity": 51,
                "duration": 0.13181818181818272,
                "tempo": 120.0
            },
            {
                "start_time": 34.06136363636364,
                "end_time": 34.19318181818181,
                "pitch": 45,
                "velocity": 51,
                "duration": 0.13181818181817562,
                "tempo": 120.0
            },
            {
                "start_time": 34.19318181818181,
                "end_time": 34.32727272727273,
                "pitch": 45,
                "velocity": 51,
                "duration": 0.13409090909091503,
                "tempo": 120.0
            },
            {
                "start_time": 34.32727272727273,
                "end_time": 34.45909090909091,
                "pitch": 45,
                "velocity": 51,
                "duration": 0.13181818181818272,
                "tempo": 120.0
            },
            {
                "start_time": 34.461363636363636,
                "end_time": 34.59318181818182,
                "pitch": 45,
                "velocity": 51,
                "duration": 0.13181818181818272,
                "tempo": 120.0
            },
            {
                "start_time": 34.595454545454544,
                "end_time": 34.72727272727273,
                "pitch": 45,
                "velocity": 51,
                "duration": 0.13181818181818272,
                "tempo": 120.0
            },
            {
                "start_time": 34.72954545454545,
                "end_time": 34.861363636363635,
                "pitch": 45,
                "velocity": 51,
                "duration": 0.13181818181818272,
                "tempo": 120.0
            },
            {
                "start_time": 34.86363636363636,
                "end_time": 34.99545454545454,
                "pitch": 45,
                "velocity": 51,
                "duration": 0.13181818181818272,
                "tempo": 120.0
            },
            {
                "start_time": 34.99772727272727,
                "end_time": 35.12954545454545,
                "pitch": 45,
                "velocity": 51,
                "duration": 0.13181818181818272,
                "tempo": 120.0
            },
            {
                "start_time": 35.13181818181818,
                "end_time": 35.263636363636365,
                "pitch": 45,
                "velocity": 51,
                "duration": 0.13181818181818272,
                "tempo": 120.0
            },
            {
                "start_time": 35.26590909090909,
                "end_time": 35.39772727272727,
                "pitch": 45,
                "velocity": 51,
                "duration": 0.13181818181818272,
                "tempo": 120.0
            },
            {
                "start_time": 35.4,
                "end_time": 35.529545454545456,
                "pitch": 45,
                "velocity": 51,
                "duration": 0.12954545454545752,
                "tempo": 120.0
            },
            {
                "start_time": 35.53181818181818,
                "end_time": 35.663636363636364,
                "pitch": 45,
                "velocity": 51,
                "duration": 0.13181818181818272,
                "tempo": 120.0
            },
            {
                "start_time": 35.66590909090909,
                "end_time": 35.79772727272727,
                "pitch": 45,
                "velocity": 51,
                "duration": 0.13181818181818272,
                "tempo": 120.0
            },
            {
                "start_time": 35.79772727272727,
                "end_time": 35.93181818181818,
                "pitch": 45,
                "velocity": 51,
                "duration": 0.13409090909090793,
                "tempo": 120.0
            },
            {
                "start_time": 35.93181818181818,
                "end_time": 36.06363636363636,
                "pitch": 45,
                "velocity": 51,
                "duration": 0.13181818181818272,
                "tempo": 120.0
            },
            {
                "start_time": 36.06590909090909,
                "end_time": 36.199999999999996,
                "pitch": 45,
                "velocity": 51,
                "duration": 0.13409090909090793,
                "tempo": 120.0
            },
            {
                "start_time": 36.199999999999996,
                "end_time": 36.33181818181818,
                "pitch": 45,
                "velocity": 51,
                "duration": 0.13181818181818272,
                "tempo": 120.0
            },
            {
                "start_time": 36.33181818181818,
                "end_time": 36.465909090909086,
                "pitch": 45,
                "velocity": 51,
                "duration": 0.13409090909090793,
                "tempo": 120.0
            },
            {
                "start_time": 36.465909090909086,
                "end_time": 36.6,
                "pitch": 45,
                "velocity": 51,
                "duration": 0.13409090909091503,
                "tempo": 120.0
            },
            {
                "start_time": 36.6,
                "end_time": 36.73181818181818,
                "pitch": 45,
                "velocity": 51,
                "duration": 0.13181818181817562,
                "tempo": 120.0
            },
            {
                "start_time": 36.73409090909091,
                "end_time": 36.86818181818182,
                "pitch": 45,
                "velocity": 51,
                "duration": 0.13409090909090793,
                "tempo": 120.0
            },
            {
                "start_time": 36.86818181818182,
                "end_time": 37.002272727272725,
                "pitch": 45,
                "velocity": 51,
                "duration": 0.13409090909090793,
                "tempo": 120.0
            },
            {
                "start_time": 37.00454545454545,
                "end_time": 37.13636363636363,
                "pitch": 45,
                "velocity": 51,
                "duration": 0.13181818181818272,
                "tempo": 120.0
            },
            {
                "start_time": 37.13636363636363,
                "end_time": 37.268181818181816,
                "pitch": 45,
                "velocity": 51,
                "duration": 0.13181818181818272,
                "tempo": 120.0
            },
            {
                "start_time": 37.27045454545454,
                "end_time": 37.402272727272724,
                "pitch": 45,
                "velocity": 51,
                "duration": 0.13181818181818272,
                "tempo": 120.0
            },
            {
                "start_time": 37.404545454545456,
                "end_time": 37.53636363636363,
                "pitch": 45,
                "velocity": 51,
                "duration": 0.13181818181817562,
                "tempo": 120.0
            },
            {
                "start_time": 37.53636363636363,
                "end_time": 37.668181818181814,
                "pitch": 45,
                "velocity": 51,
                "duration": 0.13181818181818272,
                "tempo": 120.0
            },
            {
                "start_time": 37.67045454545455,
                "end_time": 37.80227272727272,
                "pitch": 45,
                "velocity": 51,
                "duration": 0.13181818181817562,
                "tempo": 120.0
            },
            {
                "start_time": 37.804545454545455,
                "end_time": 37.93636363636364,
                "pitch": 45,
                "velocity": 51,
                "duration": 0.13181818181818272,
                "tempo": 120.0
            },
            {
                "start_time": 37.93636363636364,
                "end_time": 38.070454545454545,
                "pitch": 45,
                "velocity": 51,
                "duration": 0.13409090909090793,
                "tempo": 120.0
            },
            {
                "start_time": 38.070454545454545,
                "end_time": 38.20227272727273,
                "pitch": 45,
                "velocity": 51,
                "duration": 0.13181818181818272,
                "tempo": 120.0
            },
            {
                "start_time": 38.20454545454545,
                "end_time": 38.336363636363636,
                "pitch": 45,
                "velocity": 51,
                "duration": 0.13181818181818272,
                "tempo": 120.0
            },
            {
                "start_time": 38.33863636363636,
                "end_time": 38.470454545454544,
                "pitch": 45,
                "velocity": 51,
                "duration": 0.13181818181818272,
                "tempo": 120.0
            },
            {
                "start_time": 38.47272727272727,
                "end_time": 38.60454545454545,
                "pitch": 45,
                "velocity": 51,
                "duration": 0.13181818181818272,
                "tempo": 120.0
            },
            {
                "start_time": 38.60681818181818,
                "end_time": 38.73863636363636,
                "pitch": 45,
                "velocity": 51,
                "duration": 0.13181818181818272,
                "tempo": 120.0
            },
            {
                "start_time": 38.73863636363636,
                "end_time": 38.87272727272727,
                "pitch": 45,
                "velocity": 51,
                "duration": 0.13409090909090793,
                "tempo": 120.0
            },
            {
                "start_time": 38.87272727272727,
                "end_time": 39.00681818181818,
                "pitch": 45,
                "velocity": 51,
                "duration": 0.13409090909091503,
                "tempo": 120.0
            },
            {
                "start_time": 39.00909090909091,
                "end_time": 39.143181818181816,
                "pitch": 45,
                "velocity": 51,
                "duration": 0.13409090909090793,
                "tempo": 120.0
            },
            {
                "start_time": 39.14545454545454,
                "end_time": 39.28181818181818,
                "pitch": 45,
                "velocity": 51,
                "duration": 0.13636363636364024,
                "tempo": 120.0
            },
            {
                "start_time": 39.28181818181818,
                "end_time": 39.418181818181814,
                "pitch": 45,
                "velocity": 51,
                "duration": 0.13636363636363313,
                "tempo": 120.0
            },
            {
                "start_time": 39.42045454545455,
                "end_time": 39.55227272727272,
                "pitch": 45,
                "velocity": 51,
                "duration": 0.13181818181817562,
                "tempo": 120.0
            },
            {
                "start_time": 39.55227272727272,
                "end_time": 39.68636363636364,
                "pitch": 45,
                "velocity": 51,
                "duration": 0.13409090909091503,
                "tempo": 120.0
            },
            {
                "start_time": 39.68636363636364,
                "end_time": 39.820454545454545,
                "pitch": 45,
                "velocity": 51,
                "duration": 0.13409090909090793,
                "tempo": 120.0
            },
            {
                "start_time": 39.820454545454545,
                "end_time": 39.95227272727273,
                "pitch": 45,
                "velocity": 51,
                "duration": 0.13181818181818272,
                "tempo": 120.0
            },
            {
                "start_time": 39.95454545454545,
                "end_time": 40.086363636363636,
                "pitch": 45,
                "velocity": 51,
                "duration": 0.13181818181818272,
                "tempo": 120.0
            },
            {
                "start_time": 40.086363636363636,
                "end_time": 40.220454545454544,
                "pitch": 45,
                "velocity": 51,
                "duration": 0.13409090909090793,
                "tempo": 120.0
            },
            {
                "start_time": 40.22272727272727,
                "end_time": 40.35454545454545,
                "pitch": 45,
                "velocity": 51,
                "duration": 0.13181818181818272,
                "tempo": 120.0
            },
            {
                "start_time": 40.35454545454545,
                "end_time": 40.48863636363636,
                "pitch": 45,
                "velocity": 51,
                "duration": 0.13409090909090793,
                "tempo": 120.0
            },
            {
                "start_time": 40.48863636363636,
                "end_time": 40.62272727272727,
                "pitch": 45,
                "velocity": 51,
                "duration": 0.13409090909090793,
                "tempo": 120.0
            },
            {
                "start_time": 40.625,
                "end_time": 40.75681818181818,
                "pitch": 45,
                "velocity": 51,
                "duration": 0.13181818181818272,
                "tempo": 120.0
            },
            {
                "start_time": 40.75681818181818,
                "end_time": 40.89090909090909,
                "pitch": 45,
                "velocity": 51,
                "duration": 0.13409090909090793,
                "tempo": 120.0
            },
            {
                "start_time": 40.89090909090909,
                "end_time": 41.02272727272727,
                "pitch": 45,
                "velocity": 51,
                "duration": 0.13181818181818272,
                "tempo": 120.0
            },
            {
                "start_time": 41.025,
                "end_time": 41.15681818181818,
                "pitch": 45,
                "velocity": 51,
                "duration": 0.13181818181818272,
                "tempo": 120.0
            },
            {
                "start_time": 41.15681818181818,
                "end_time": 41.29090909090909,
                "pitch": 45,
                "velocity": 51,
                "duration": 0.13409090909090793,
                "tempo": 120.0
            },
            {
                "start_time": 41.29090909090909,
                "end_time": 41.42272727272727,
                "pitch": 45,
                "velocity": 51,
                "duration": 0.13181818181818272,
                "tempo": 120.0
            },
            {
                "start_time": 41.425,
                "end_time": 41.55681818181818,
                "pitch": 45,
                "velocity": 51,
                "duration": 0.13181818181818272,
                "tempo": 120.0
            },
            {
                "start_time": 41.559090909090905,
                "end_time": 41.69090909090909,
                "pitch": 45,
                "velocity": 51,
                "duration": 0.13181818181818272,
                "tempo": 120.0
            },
            {
                "start_time": 41.69090909090909,
                "end_time": 41.82727272727273,
                "pitch": 45,
                "velocity": 51,
                "duration": 0.13636363636364024,
                "tempo": 120.0
            },
            {
                "start_time": 41.82727272727273,
                "end_time": 41.95681818181818,
                "pitch": 45,
                "velocity": 51,
                "duration": 0.1295454545454504,
                "tempo": 120.0
            },
            {
                "start_time": 41.959090909090904,
                "end_time": 42.090909090909086,
                "pitch": 45,
                "velocity": 51,
                "duration": 0.13181818181818272,
                "tempo": 120.0
            },
            {
                "start_time": 42.09318181818182,
                "end_time": 42.225,
                "pitch": 45,
                "velocity": 51,
                "duration": 0.13181818181818272,
                "tempo": 120.0
            },
            {
                "start_time": 42.22727272727273,
                "end_time": 42.35909090909091,
                "pitch": 45,
                "velocity": 51,
                "duration": 0.13181818181818272,
                "tempo": 120.0
            },
            {
                "start_time": 42.361363636363635,
                "end_time": 42.49318181818182,
                "pitch": 45,
                "velocity": 51,
                "duration": 0.13181818181818272,
                "tempo": 120.0
            },
            {
                "start_time": 42.49545454545454,
                "end_time": 42.627272727272725,
                "pitch": 45,
                "velocity": 51,
                "duration": 0.13181818181818272,
                "tempo": 120.0
            },
            {
                "start_time": 42.62954545454545,
                "end_time": 42.76136363636363,
                "pitch": 45,
                "velocity": 51,
                "duration": 0.13181818181818272,
                "tempo": 120.0
            },
            {
                "start_time": 42.76363636363636,
                "end_time": 42.89545454545454,
                "pitch": 45,
                "velocity": 51,
                "duration": 0.13181818181818272,
                "tempo": 120.0
            },
            {
                "start_time": 42.89545454545454,
                "end_time": 43.02954545454545,
                "pitch": 45,
                "velocity": 51,
                "duration": 0.13409090909090793,
                "tempo": 120.0
            },
            {
                "start_time": 43.02954545454545,
                "end_time": 43.16136363636363,
                "pitch": 45,
                "velocity": 51,
                "duration": 0.13181818181818272,
                "tempo": 120.0
            },
            {
                "start_time": 43.163636363636364,
                "end_time": 43.29545454545455,
                "pitch": 45,
                "velocity": 51,
                "duration": 0.13181818181818272,
                "tempo": 120.0
            },
            {
                "start_time": 43.29772727272727,
                "end_time": 43.43181818181818,
                "pitch": 45,
                "velocity": 51,
                "duration": 0.13409090909090793,
                "tempo": 120.0
            },
            {
                "start_time": 43.43181818181818,
                "end_time": 43.56363636363636,
                "pitch": 45,
                "velocity": 51,
                "duration": 0.13181818181818272,
                "tempo": 120.0
            },
            {
                "start_time": 43.56363636363636,
                "end_time": 43.695454545454545,
                "pitch": 45,
                "velocity": 51,
                "duration": 0.13181818181818272,
                "tempo": 120.0
            },
            {
                "start_time": 43.69772727272727,
                "end_time": 43.82954545454545,
                "pitch": 45,
                "velocity": 51,
                "duration": 0.13181818181818272,
                "tempo": 120.0
            },
            {
                "start_time": 43.83181818181818,
                "end_time": 43.96363636363636,
                "pitch": 45,
                "velocity": 51,
                "duration": 0.13181818181818272,
                "tempo": 120.0
            },
            {
                "start_time": 43.96363636363636,
                "end_time": 44.09772727272727,
                "pitch": 45,
                "velocity": 51,
                "duration": 0.13409090909090793,
                "tempo": 120.0
            },
            {
                "start_time": 44.09772727272727,
                "end_time": 44.22954545454545,
                "pitch": 45,
                "velocity": 51,
                "duration": 0.13181818181818272,
                "tempo": 120.0
            },
            {
                "start_time": 44.23181818181818,
                "end_time": 44.36363636363636,
                "pitch": 45,
                "velocity": 51,
                "duration": 0.13181818181818272,
                "tempo": 120.0
            },
            {
                "start_time": 44.36590909090909,
                "end_time": 44.5,
                "pitch": 45,
                "velocity": 51,
                "duration": 0.13409090909090793,
                "tempo": 120.0
            },
            {
                "start_time": 44.5,
                "end_time": 44.63409090909091,
                "pitch": 45,
                "velocity": 51,
                "duration": 0.13409090909090793,
                "tempo": 120.0
            },
            {
                "start_time": 44.63409090909091,
                "end_time": 44.76590909090909,
                "pitch": 45,
                "velocity": 51,
                "duration": 0.13181818181818272,
                "tempo": 120.0
            },
            {
                "start_time": 44.768181818181816,
                "end_time": 44.9,
                "pitch": 45,
                "velocity": 51,
                "duration": 0.13181818181818272,
                "tempo": 120.0
            },
            {
                "start_time": 44.902272727272724,
                "end_time": 45.03636363636363,
                "pitch": 45,
                "velocity": 51,
                "duration": 0.13409090909090793,
                "tempo": 120.0
            },
            {
                "start_time": 45.03636363636363,
                "end_time": 45.168181818181814,
                "pitch": 45,
                "velocity": 51,
                "duration": 0.13181818181818272,
                "tempo": 120.0
            },
            {
                "start_time": 45.168181818181814,
                "end_time": 45.30227272727272,
                "pitch": 45,
                "velocity": 51,
                "duration": 0.13409090909090793,
                "tempo": 120.0
            },
            {
                "start_time": 45.30227272727272,
                "end_time": 45.434090909090905,
                "pitch": 45,
                "velocity": 51,
                "duration": 0.13181818181818272,
                "tempo": 120.0
            },
            {
                "start_time": 45.43636363636364,
                "end_time": 45.56818181818181,
                "pitch": 45,
                "velocity": 51,
                "duration": 0.13181818181817562,
                "tempo": 120.0
            },
            {
                "start_time": 45.570454545454545,
                "end_time": 45.70227272727273,
                "pitch": 45,
                "velocity": 51,
                "duration": 0.13181818181818272,
                "tempo": 120.0
            },
            {
                "start_time": 45.70227272727273,
                "end_time": 45.836363636363636,
                "pitch": 45,
                "velocity": 51,
                "duration": 0.13409090909090793,
                "tempo": 120.0
            },
            {
                "start_time": 45.836363636363636,
                "end_time": 45.96818181818182,
                "pitch": 45,
                "velocity": 51,
                "duration": 0.13181818181818272,
                "tempo": 120.0
            },
            {
                "start_time": 45.970454545454544,
                "end_time": 46.10227272727273,
                "pitch": 45,
                "velocity": 51,
                "duration": 0.13181818181818272,
                "tempo": 120.0
            },
            {
                "start_time": 46.10454545454545,
                "end_time": 46.236363636363635,
                "pitch": 45,
                "velocity": 51,
                "duration": 0.13181818181818272,
                "tempo": 120.0
            },
            {
                "start_time": 46.236363636363635,
                "end_time": 46.37272727272727,
                "pitch": 45,
                "velocity": 51,
                "duration": 0.13636363636363313,
                "tempo": 120.0
            },
            {
                "start_time": 46.375,
                "end_time": 46.50909090909091,
                "pitch": 45,
                "velocity": 51,
                "duration": 0.13409090909090793,
                "tempo": 120.0
            },
            {
                "start_time": 46.51136363636363,
                "end_time": 46.64772727272727,
                "pitch": 45,
                "velocity": 51,
                "duration": 0.13636363636364024,
                "tempo": 120.0
            },
            {
                "start_time": 46.65,
                "end_time": 46.77954545454545,
                "pitch": 45,
                "velocity": 51,
                "duration": 0.1295454545454504,
                "tempo": 120.0
            },
            {
                "start_time": 46.78181818181818,
                "end_time": 46.913636363636364,
                "pitch": 45,
                "velocity": 51,
                "duration": 0.13181818181818272,
                "tempo": 120.0
            },
            {
                "start_time": 46.91590909090909,
                "end_time": 47.04772727272727,
                "pitch": 45,
                "velocity": 51,
                "duration": 0.13181818181818272,
                "tempo": 120.0
            },
            {
                "start_time": 47.04772727272727,
                "end_time": 47.18181818181818,
                "pitch": 45,
                "velocity": 51,
                "duration": 0.13409090909090793,
                "tempo": 120.0
            },
            {
                "start_time": 47.18181818181818,
                "end_time": 47.31363636363636,
                "pitch": 45,
                "velocity": 51,
                "duration": 0.13181818181818272,
                "tempo": 120.0
            },
            {
                "start_time": 47.31590909090909,
                "end_time": 47.44772727272727,
                "pitch": 45,
                "velocity": 51,
                "duration": 0.13181818181818272,
                "tempo": 120.0
            },
            {
                "start_time": 47.449999999999996,
                "end_time": 47.58181818181818,
                "pitch": 45,
                "velocity": 51,
                "duration": 0.13181818181818272,
                "tempo": 120.0
            },
            {
                "start_time": 47.584090909090904,
                "end_time": 47.715909090909086,
                "pitch": 45,
                "velocity": 51,
                "duration": 0.13181818181818272,
                "tempo": 120.0
            },
            {
                "start_time": 47.71818181818182,
                "end_time": 47.85227272727273,
                "pitch": 45,
                "velocity": 51,
                "duration": 0.13409090909090793,
                "tempo": 120.0
            },
            {
                "start_time": 47.85227272727273,
                "end_time": 47.98409090909091,
                "pitch": 45,
                "velocity": 51,
                "duration": 0.13181818181818272,
                "tempo": 120.0
            },
            {
                "start_time": 47.986363636363635,
                "end_time": 48.11818181818182,
                "pitch": 45,
                "velocity": 51,
                "duration": 0.13181818181818272,
                "tempo": 120.0
            },
            {
                "start_time": 48.12045454545454,
                "end_time": 48.252272727272725,
                "pitch": 45,
                "velocity": 51,
                "duration": 0.13181818181818272,
                "tempo": 120.0
            },
            {
                "start_time": 48.25454545454545,
                "end_time": 48.38409090909091,
                "pitch": 45,
                "velocity": 51,
                "duration": 0.12954545454545752,
                "tempo": 120.0
            },
            {
                "start_time": 48.38636363636363,
                "end_time": 48.518181818181816,
                "pitch": 45,
                "velocity": 51,
                "duration": 0.13181818181818272,
                "tempo": 120.0
            },
            {
                "start_time": 48.52045454545454,
                "end_time": 48.652272727272724,
                "pitch": 45,
                "velocity": 51,
                "duration": 0.13181818181818272,
                "tempo": 120.0
            },
            {
                "start_time": 48.652272727272724,
                "end_time": 48.78636363636363,
                "pitch": 45,
                "velocity": 51,
                "duration": 0.13409090909090793,
                "tempo": 120.0
            },
            {
                "start_time": 48.788636363636364,
                "end_time": 48.918181818181814,
                "pitch": 45,
                "velocity": 51,
                "duration": 0.1295454545454504,
                "tempo": 120.0
            },
            {
                "start_time": 48.92045454545454,
                "end_time": 49.054545454545455,
                "pitch": 45,
                "velocity": 51,
                "duration": 0.13409090909091503,
                "tempo": 120.0
            },
            {
                "start_time": 49.054545454545455,
                "end_time": 49.18636363636364,
                "pitch": 45,
                "velocity": 51,
                "duration": 0.13181818181818272,
                "tempo": 120.0
            },
            {
                "start_time": 49.18636363636364,
                "end_time": 49.320454545454545,
                "pitch": 45,
                "velocity": 51,
                "duration": 0.13409090909090793,
                "tempo": 120.0
            },
            {
                "start_time": 49.32272727272727,
                "end_time": 49.45227272727273,
                "pitch": 45,
                "velocity": 51,
                "duration": 0.12954545454545752,
                "tempo": 120.0
            },
            {
                "start_time": 49.45454545454545,
                "end_time": 49.58863636363636,
                "pitch": 45,
                "velocity": 51,
                "duration": 0.13409090909090793,
                "tempo": 120.0
            },
            {
                "start_time": 49.58863636363636,
                "end_time": 49.72272727272727,
                "pitch": 45,
                "velocity": 51,
                "duration": 0.13409090909090793,
                "tempo": 120.0
            },
            {
                "start_time": 49.72272727272727,
                "end_time": 49.85681818181818,
                "pitch": 45,
                "velocity": 51,
                "duration": 0.13409090909090793,
                "tempo": 120.0
            },
            {
                "start_time": 49.85909090909091,
                "end_time": 49.990909090909085,
                "pitch": 45,
                "velocity": 51,
                "duration": 0.13181818181817562,
                "tempo": 120.0
            },
            {
                "start_time": 49.990909090909085,
                "end_time": 50.12272727272727,
                "pitch": 45,
                "velocity": 51,
                "duration": 0.13181818181818272,
                "tempo": 120.0
            },
            {
                "start_time": 50.125,
                "end_time": 50.25681818181818,
                "pitch": 45,
                "velocity": 51,
                "duration": 0.13181818181818272,
                "tempo": 120.0
            },
            {
                "start_time": 50.25909090909091,
                "end_time": 50.39090909090909,
                "pitch": 45,
                "velocity": 51,
                "duration": 0.13181818181818272,
                "tempo": 120.0
            },
            {
                "start_time": 50.39090909090909,
                "end_time": 50.52272727272727,
                "pitch": 45,
                "velocity": 51,
                "duration": 0.13181818181818272,
                "tempo": 120.0
            },
            {
                "start_time": 50.525,
                "end_time": 50.65681818181818,
                "pitch": 45,
                "velocity": 51,
                "duration": 0.13181818181818272,
                "tempo": 120.0
            },
            {
                "start_time": 50.65909090909091,
                "end_time": 50.79090909090909,
                "pitch": 45,
                "velocity": 51,
                "duration": 0.13181818181818272,
                "tempo": 120.0
            },
            {
                "start_time": 50.79090909090909,
                "end_time": 50.925,
                "pitch": 45,
                "velocity": 51,
                "duration": 0.13409090909090793,
                "tempo": 120.0
            },
            {
                "start_time": 50.925,
                "end_time": 51.05681818181818,
                "pitch": 45,
                "velocity": 51,
                "duration": 0.13181818181818272,
                "tempo": 120.0
            },
            {
                "start_time": 51.059090909090905,
                "end_time": 51.19090909090909,
                "pitch": 45,
                "velocity": 51,
                "duration": 0.13181818181818272,
                "tempo": 120.0
            },
            {
                "start_time": 51.19318181818181,
                "end_time": 51.324999999999996,
                "pitch": 45,
                "velocity": 51,
                "duration": 0.13181818181818272,
                "tempo": 120.0
            },
            {
                "start_time": 51.324999999999996,
                "end_time": 51.459090909090904,
                "pitch": 45,
                "velocity": 51,
                "duration": 0.13409090909090793,
                "tempo": 120.0
            },
            {
                "start_time": 51.461363636363636,
                "end_time": 51.59318181818182,
                "pitch": 45,
                "velocity": 51,
                "duration": 0.13181818181818272,
                "tempo": 120.0
            },
            {
                "start_time": 51.59318181818182,
                "end_time": 51.72727272727273,
                "pitch": 45,
                "velocity": 51,
                "duration": 0.13409090909090793,
                "tempo": 120.0
            },
            {
                "start_time": 51.72954545454545,
                "end_time": 51.861363636363635,
                "pitch": 45,
                "velocity": 51,
                "duration": 0.13181818181818272,
                "tempo": 120.0
            },
            {
                "start_time": 51.86363636363636,
                "end_time": 51.99545454545454,
                "pitch": 45,
                "velocity": 51,
                "duration": 0.13181818181818272,
                "tempo": 120.0
            },
            {
                "start_time": 51.99545454545454,
                "end_time": 52.12954545454545,
                "pitch": 45,
                "velocity": 51,
                "duration": 0.13409090909090793,
                "tempo": 120.0
            },
            {
                "start_time": 52.12954545454545,
                "end_time": 52.26363636363636,
                "pitch": 45,
                "velocity": 51,
                "duration": 0.13409090909090793,
                "tempo": 120.0
            },
            {
                "start_time": 52.26363636363636,
                "end_time": 52.39545454545454,
                "pitch": 45,
                "velocity": 51,
                "duration": 0.13181818181818272,
                "tempo": 120.0
            },
            {
                "start_time": 52.39772727272727,
                "end_time": 52.52954545454545,
                "pitch": 45,
                "velocity": 51,
                "duration": 0.13181818181817562,
                "tempo": 120.0
            },
            {
                "start_time": 52.53181818181818,
                "end_time": 52.663636363636364,
                "pitch": 45,
                "velocity": 51,
                "duration": 0.13181818181818272,
                "tempo": 120.0
            },
            {
                "start_time": 52.663636363636364,
                "end_time": 52.79772727272727,
                "pitch": 45,
                "velocity": 51,
                "duration": 0.13409090909090793,
                "tempo": 120.0
            },
            {
                "start_time": 52.79772727272727,
                "end_time": 52.929545454545455,
                "pitch": 45,
                "velocity": 51,
                "duration": 0.13181818181818272,
                "tempo": 120.0
            },
            {
                "start_time": 52.93181818181818,
                "end_time": 53.06590909090909,
                "pitch": 45,
                "velocity": 51,
                "duration": 0.13409090909090793,
                "tempo": 120.0
            },
            {
                "start_time": 53.06590909090909,
                "end_time": 53.195454545454545,
                "pitch": 45,
                "velocity": 51,
                "duration": 0.12954545454545752,
                "tempo": 120.0
            },
            {
                "start_time": 53.19772727272727,
                "end_time": 53.32954545454545,
                "pitch": 45,
                "velocity": 51,
                "duration": 0.13181818181818272,
                "tempo": 120.0
            },
            {
                "start_time": 53.33181818181818,
                "end_time": 53.46363636363636,
                "pitch": 45,
                "velocity": 51,
                "duration": 0.13181818181818272,
                "tempo": 120.0
            },
            {
                "start_time": 53.465909090909086,
                "end_time": 53.599999999999994,
                "pitch": 45,
                "velocity": 51,
                "duration": 0.13409090909090793,
                "tempo": 120.0
            },
            {
                "start_time": 53.60227272727273,
                "end_time": 53.73863636363636,
                "pitch": 45,
                "velocity": 51,
                "duration": 0.13636363636363313,
                "tempo": 120.0
            },
            {
                "start_time": 53.73863636363636,
                "end_time": 53.875,
                "pitch": 45,
                "velocity": 51,
                "duration": 0.13636363636364024,
                "tempo": 120.0
            },
            {
                "start_time": 53.875,
                "end_time": 54.00681818181818,
                "pitch": 45,
                "velocity": 51,
                "duration": 0.13181818181818272,
                "tempo": 120.0
            },
            {
                "start_time": 54.00681818181818,
                "end_time": 54.13636363636363,
                "pitch": 45,
                "velocity": 51,
                "duration": 0.1295454545454504,
                "tempo": 120.0
            },
            {
                "start_time": 54.13863636363636,
                "end_time": 54.268181818181816,
                "pitch": 45,
                "velocity": 51,
                "duration": 0.12954545454545752,
                "tempo": 120.0
            },
            {
                "start_time": 54.268181818181816,
                "end_time": 54.40454545454545,
                "pitch": 45,
                "velocity": 51,
                "duration": 0.13636363636363313,
                "tempo": 120.0
            },
            {
                "start_time": 54.40681818181818,
                "end_time": 54.54090909090909,
                "pitch": 45,
                "velocity": 51,
                "duration": 0.13409090909090793,
                "tempo": 120.0
            },
            {
                "start_time": 54.543181818181814,
                "end_time": 54.679545454545455,
                "pitch": 45,
                "velocity": 51,
                "duration": 0.13636363636364024,
                "tempo": 120.0
            },
            {
                "start_time": 54.68181818181818,
                "end_time": 54.81136363636363,
                "pitch": 45,
                "velocity": 51,
                "duration": 0.1295454545454504,
                "tempo": 120.0
            },
            {
                "start_time": 54.81363636363636,
                "end_time": 54.945454545454545,
                "pitch": 45,
                "velocity": 51,
                "duration": 0.13181818181818272,
                "tempo": 120.0
            },
            {
                "start_time": 54.94772727272727,
                "end_time": 55.07954545454545,
                "pitch": 45,
                "velocity": 51,
                "duration": 0.13181818181818272,
                "tempo": 120.0
            },
            {
                "start_time": 55.07954545454545,
                "end_time": 55.21363636363636,
                "pitch": 45,
                "velocity": 51,
                "duration": 0.13409090909090793,
                "tempo": 120.0
            },
            {
                "start_time": 55.215909090909086,
                "end_time": 55.34772727272727,
                "pitch": 45,
                "velocity": 51,
                "duration": 0.13181818181818272,
                "tempo": 120.0
            },
            {
                "start_time": 55.349999999999994,
                "end_time": 55.48181818181818,
                "pitch": 45,
                "velocity": 51,
                "duration": 0.13181818181818272,
                "tempo": 120.0
            },
            {
                "start_time": 55.48409090909091,
                "end_time": 55.615909090909085,
                "pitch": 45,
                "velocity": 51,
                "duration": 0.13181818181817562,
                "tempo": 120.0
            },
            {
                "start_time": 55.61818181818182,
                "end_time": 55.75,
                "pitch": 45,
                "velocity": 51,
                "duration": 0.13181818181818272,
                "tempo": 120.0
            },
            {
                "start_time": 55.75,
                "end_time": 55.88409090909091,
                "pitch": 45,
                "velocity": 51,
                "duration": 0.13409090909090793,
                "tempo": 120.0
            },
            {
                "start_time": 55.88636363636363,
                "end_time": 56.01590909090909,
                "pitch": 45,
                "velocity": 51,
                "duration": 0.12954545454545752,
                "tempo": 120.0
            },
            {
                "start_time": 56.018181818181816,
                "end_time": 56.15,
                "pitch": 45,
                "velocity": 51,
                "duration": 0.13181818181818272,
                "tempo": 120.0
            },
            {
                "start_time": 56.152272727272724,
                "end_time": 56.28636363636363,
                "pitch": 45,
                "velocity": 51,
                "duration": 0.13409090909090793,
                "tempo": 120.0
            },
            {
                "start_time": 56.28636363636363,
                "end_time": 56.41590909090909,
                "pitch": 45,
                "velocity": 51,
                "duration": 0.12954545454545752,
                "tempo": 120.0
            },
            {
                "start_time": 56.418181818181814,
                "end_time": 56.55,
                "pitch": 45,
                "velocity": 51,
                "duration": 0.13181818181818272,
                "tempo": 120.0
            },
            {
                "start_time": 56.55227272727272,
                "end_time": 56.684090909090905,
                "pitch": 45,
                "velocity": 51,
                "duration": 0.13181818181818272,
                "tempo": 120.0
            },
            {
                "start_time": 56.68636363636363,
                "end_time": 56.81818181818181,
                "pitch": 45,
                "velocity": 51,
                "duration": 0.13181818181818272,
                "tempo": 120.0
            },
            {
                "start_time": 56.81818181818181,
                "end_time": 56.949999999999996,
                "pitch": 45,
                "velocity": 51,
                "duration": 0.13181818181818272,
                "tempo": 120.0
            },
            {
                "start_time": 56.95227272727273,
                "end_time": 57.084090909090904,
                "pitch": 45,
                "velocity": 51,
                "duration": 0.13181818181817562,
                "tempo": 120.0
            },
            {
                "start_time": 57.086363636363636,
                "end_time": 57.21818181818182,
                "pitch": 45,
                "velocity": 51,
                "duration": 0.13181818181818272,
                "tempo": 120.0
            },
            {
                "start_time": 57.220454545454544,
                "end_time": 57.35227272727273,
                "pitch": 45,
                "velocity": 51,
                "duration": 0.13181818181818272,
                "tempo": 120.0
            },
            {
                "start_time": 57.35454545454545,
                "end_time": 57.48863636363636,
                "pitch": 45,
                "velocity": 51,
                "duration": 0.13409090909090793,
                "tempo": 120.0
            },
            {
                "start_time": 57.48863636363636,
                "end_time": 57.62045454545454,
                "pitch": 45,
                "velocity": 51,
                "duration": 0.13181818181818272,
                "tempo": 120.0
            },
            {
                "start_time": 57.62272727272727,
                "end_time": 57.75454545454545,
                "pitch": 45,
                "velocity": 51,
                "duration": 0.13181818181818272,
                "tempo": 120.0
            },
            {
                "start_time": 57.756818181818176,
                "end_time": 57.88863636363636,
                "pitch": 45,
                "velocity": 51,
                "duration": 0.13181818181818272,
                "tempo": 120.0
            },
            {
                "start_time": 57.89090909090909,
                "end_time": 58.15454545454545,
                "pitch": 45,
                "velocity": 64,
                "duration": 0.26363636363635834,
                "tempo": 120.0
            },
            {
                "start_time": 58.15681818181818,
                "end_time": 58.42272727272727,
                "pitch": 44,
                "velocity": 64,
                "duration": 0.26590909090909065,
                "tempo": 120.0
            },
            {
                "start_time": 58.42272727272727,
                "end_time": 58.68863636363636,
                "pitch": 42,
                "velocity": 64,
                "duration": 0.26590909090909065,
                "tempo": 120.0
            },
            {
                "start_time": 58.69090909090909,
                "end_time": 58.95681818181818,
                "pitch": 40,
                "velocity": 64,
                "duration": 0.26590909090909065,
                "tempo": 120.0
            },
            {
                "start_time": 58.95681818181818,
                "end_time": 59.224999999999994,
                "pitch": 39,
                "velocity": 64,
                "duration": 0.26818181818181586,
                "tempo": 120.0
            },
            {
                "start_time": 59.224999999999994,
                "end_time": 59.49318181818182,
                "pitch": 37,
                "velocity": 64,
                "duration": 0.26818181818182296,
                "tempo": 120.0
            },
            {
                "start_time": 59.50909090909091,
                "end_time": 59.62954545454545,
                "pitch": 45,
                "velocity": 51,
                "duration": 0.12045454545454248,
                "tempo": 120.0
            },
            {
                "start_time": 59.631818181818176,
                "end_time": 59.76363636363636,
                "pitch": 45,
                "velocity": 51,
                "duration": 0.13181818181818272,
                "tempo": 120.0
            }
        ],
        "Acoustic Guitar (nylon)": [
            {
                "start_time": 1.6068181818181817,
                "end_time": 1.7386363636363635,
                "pitch": 69,
                "velocity": 51,
                "duration": 0.13181818181818183,
                "tempo": 120.0
            },
            {
                "start_time": 1.7386363636363635,
                "end_time": 1.8727272727272726,
                "pitch": 64,
                "velocity": 51,
                "duration": 0.13409090909090904,
                "tempo": 120.0
            },
            {
                "start_time": 1.8727272727272726,
                "end_time": 2.006818181818182,
                "pitch": 69,
                "velocity": 51,
                "duration": 0.13409090909090926,
                "tempo": 120.0
            },
            {
                "start_time": 2.006818181818182,
                "end_time": 2.1409090909090907,
                "pitch": 69,
                "velocity": 51,
                "duration": 0.13409090909090882,
                "tempo": 120.0
            },
            {
                "start_time": 2.1409090909090907,
                "end_time": 2.2727272727272725,
                "pitch": 64,
                "velocity": 51,
                "duration": 0.13181818181818183,
                "tempo": 120.0
            },
            {
                "start_time": 2.275,
                "end_time": 2.4068181818181817,
                "pitch": 69,
                "velocity": 51,
                "duration": 0.13181818181818183,
                "tempo": 120.0
            },
            {
                "start_time": 2.409090909090909,
                "end_time": 2.540909090909091,
                "pitch": 69,
                "velocity": 51,
                "duration": 0.13181818181818183,
                "tempo": 120.0
            },
            {
                "start_time": 2.543181818181818,
                "end_time": 2.675,
                "pitch": 64,
                "velocity": 51,
                "duration": 0.13181818181818183,
                "tempo": 120.0
            },
            {
                "start_time": 2.6772727272727272,
                "end_time": 2.809090909090909,
                "pitch": 69,
                "velocity": 51,
                "duration": 0.13181818181818183,
                "tempo": 120.0
            },
            {
                "start_time": 2.811363636363636,
                "end_time": 2.943181818181818,
                "pitch": 69,
                "velocity": 51,
                "duration": 0.13181818181818183,
                "tempo": 120.0
            },
            {
                "start_time": 2.9454545454545453,
                "end_time": 3.077272727272727,
                "pitch": 64,
                "velocity": 51,
                "duration": 0.13181818181818183,
                "tempo": 120.0
            },
            {
                "start_time": 3.0795454545454546,
                "end_time": 3.2113636363636364,
                "pitch": 69,
                "velocity": 51,
                "duration": 0.13181818181818183,
                "tempo": 120.0
            },
            {
                "start_time": 3.2136363636363634,
                "end_time": 3.343181818181818,
                "pitch": 69,
                "velocity": 51,
                "duration": 0.1295454545454544,
                "tempo": 120.0
            },
            {
                "start_time": 3.3454545454545452,
                "end_time": 3.477272727272727,
                "pitch": 64,
                "velocity": 51,
                "duration": 0.13181818181818183,
                "tempo": 120.0
            },
            {
                "start_time": 3.4795454545454545,
                "end_time": 3.6113636363636363,
                "pitch": 69,
                "velocity": 51,
                "duration": 0.13181818181818183,
                "tempo": 120.0
            },
            {
                "start_time": 3.6136363636363633,
                "end_time": 3.745454545454545,
                "pitch": 69,
                "velocity": 51,
                "duration": 0.13181818181818183,
                "tempo": 120.0
            },
            {
                "start_time": 3.745454545454545,
                "end_time": 3.877272727272727,
                "pitch": 64,
                "velocity": 51,
                "duration": 0.13181818181818183,
                "tempo": 120.0
            },
            {
                "start_time": 3.8795454545454544,
                "end_time": 4.011363636363636,
                "pitch": 69,
                "velocity": 51,
                "duration": 0.1318181818181814,
                "tempo": 120.0
            },
            {
                "start_time": 4.013636363636364,
                "end_time": 4.1454545454545455,
                "pitch": 69,
                "velocity": 51,
                "duration": 0.13181818181818183,
                "tempo": 120.0
            },
            {
                "start_time": 4.1454545454545455,
                "end_time": 4.279545454545454,
                "pitch": 64,
                "velocity": 51,
                "duration": 0.13409090909090882,
                "tempo": 120.0
            },
            {
                "start_time": 4.279545454545454,
                "end_time": 4.411363636363636,
                "pitch": 69,
                "velocity": 51,
                "duration": 0.13181818181818183,
                "tempo": 120.0
            },
            {
                "start_time": 4.413636363636363,
                "end_time": 4.545454545454545,
                "pitch": 69,
                "velocity": 51,
                "duration": 0.13181818181818183,
                "tempo": 120.0
            },
            {
                "start_time": 4.547727272727273,
                "end_time": 4.681818181818182,
                "pitch": 64,
                "velocity": 51,
                "duration": 0.13409090909090882,
                "tempo": 120.0
            },
            {
                "start_time": 4.681818181818182,
                "end_time": 4.8159090909090905,
                "pitch": 69,
                "velocity": 51,
                "duration": 0.13409090909090882,
                "tempo": 120.0
            },
            {
                "start_time": 4.818181818181818,
                "end_time": 4.947727272727272,
                "pitch": 69,
                "velocity": 51,
                "duration": 0.12954545454545396,
                "tempo": 120.0
            },
            {
                "start_time": 4.95,
                "end_time": 5.081818181818182,
                "pitch": 64,
                "velocity": 51,
                "duration": 0.13181818181818183,
                "tempo": 120.0
            },
            {
                "start_time": 5.084090909090909,
                "end_time": 5.215909090909091,
                "pitch": 69,
                "velocity": 51,
                "duration": 0.13181818181818183,
                "tempo": 120.0
            },
            {
                "start_time": 5.218181818181818,
                "end_time": 5.35,
                "pitch": 69,
                "velocity": 51,
                "duration": 0.13181818181818183,
                "tempo": 120.0
            },
            {
                "start_time": 5.352272727272727,
                "end_time": 5.4840909090909085,
                "pitch": 64,
                "velocity": 51,
                "duration": 0.13181818181818183,
                "tempo": 120.0
            },
            {
                "start_time": 5.486363636363636,
                "end_time": 5.618181818181818,
                "pitch": 69,
                "velocity": 51,
                "duration": 0.13181818181818183,
                "tempo": 120.0
            },
            {
                "start_time": 5.620454545454545,
                "end_time": 5.754545454545454,
                "pitch": 69,
                "velocity": 51,
                "duration": 0.13409090909090882,
                "tempo": 120.0
            },
            {
                "start_time": 5.754545454545454,
                "end_time": 5.888636363636364,
                "pitch": 64,
                "velocity": 51,
                "duration": 0.1340909090909097,
                "tempo": 120.0
            },
            {
                "start_time": 5.888636363636364,
                "end_time": 6.0227272727272725,
                "pitch": 69,
                "velocity": 51,
                "duration": 0.13409090909090882,
                "tempo": 120.0
            },
            {
                "start_time": 6.0227272727272725,
                "end_time": 6.156818181818181,
                "pitch": 69,
                "velocity": 51,
                "duration": 0.13409090909090882,
                "tempo": 120.0
            },
            {
                "start_time": 6.156818181818181,
                "end_time": 6.288636363636363,
                "pitch": 64,
                "velocity": 51,
                "duration": 0.13181818181818183,
                "tempo": 120.0
            },
            {
                "start_time": 6.290909090909091,
                "end_time": 6.422727272727273,
                "pitch": 69,
                "velocity": 51,
                "duration": 0.13181818181818183,
                "tempo": 120.0
            },
            {
                "start_time": 6.425,
                "end_time": 6.556818181818182,
                "pitch": 69,
                "velocity": 51,
                "duration": 0.13181818181818183,
                "tempo": 120.0
            },
            {
                "start_time": 6.559090909090909,
                "end_time": 6.6909090909090905,
                "pitch": 64,
                "velocity": 51,
                "duration": 0.13181818181818183,
                "tempo": 120.0
            },
            {
                "start_time": 6.6931818181818175,
                "end_time": 6.824999999999999,
                "pitch": 69,
                "velocity": 51,
                "duration": 0.13181818181818183,
                "tempo": 120.0
            },
            {
                "start_time": 6.827272727272727,
                "end_time": 6.959090909090909,
                "pitch": 69,
                "velocity": 51,
                "duration": 0.13181818181818183,
                "tempo": 120.0
            },
            {
                "start_time": 6.961363636363636,
                "end_time": 7.093181818181818,
                "pitch": 64,
                "velocity": 51,
                "duration": 0.13181818181818183,
                "tempo": 120.0
            },
            {
                "start_time": 7.095454545454545,
                "end_time": 7.227272727272727,
                "pitch": 69,
                "velocity": 51,
                "duration": 0.13181818181818183,
                "tempo": 120.0
            },
            {
                "start_time": 7.227272727272727,
                "end_time": 7.361363636363636,
                "pitch": 69,
                "velocity": 51,
                "duration": 0.1340909090909097,
                "tempo": 120.0
            },
            {
                "start_time": 7.361363636363636,
                "end_time": 7.495454545454545,
                "pitch": 64,
                "velocity": 51,
                "duration": 0.13409090909090882,
                "tempo": 120.0
            },
            {
                "start_time": 7.497727272727272,
                "end_time": 7.629545454545454,
                "pitch": 69,
                "velocity": 51,
                "duration": 0.13181818181818183,
                "tempo": 120.0
            },
            {
                "start_time": 7.631818181818182,
                "end_time": 7.765909090909091,
                "pitch": 69,
                "velocity": 51,
                "duration": 0.13409090909090882,
                "tempo": 120.0
            },
            {
                "start_time": 7.768181818181818,
                "end_time": 7.904545454545454,
                "pitch": 64,
                "velocity": 51,
                "duration": 0.1363636363636367,
                "tempo": 120.0
            },
            {
                "start_time": 7.904545454545454,
                "end_time": 8.045454545454545,
                "pitch": 69,
                "velocity": 51,
                "duration": 0.14090909090909065,
                "tempo": 120.0
            },
            {
                "start_time": 8.045454545454545,
                "end_time": 8.174999999999999,
                "pitch": 69,
                "velocity": 40,
                "duration": 0.12954545454545396,
                "tempo": 120.0
            },
            {
                "start_time": 8.177272727272728,
                "end_time": 8.309090909090909,
                "pitch": 64,
                "velocity": 40,
                "duration": 0.13181818181818095,
                "tempo": 120.0
            },
            {
                "start_time": 8.309090909090909,
                "end_time": 8.440909090909091,
                "pitch": 69,
                "velocity": 40,
                "duration": 0.13181818181818272,
                "tempo": 120.0
            },
            {
                "start_time": 8.443181818181818,
                "end_time": 8.577272727272726,
                "pitch": 69,
                "velocity": 40,
                "duration": 0.13409090909090793,
                "tempo": 120.0
            },
            {
                "start_time": 8.577272727272726,
                "end_time": 8.711363636363636,
                "pitch": 64,
                "velocity": 40,
                "duration": 0.1340909090909097,
                "tempo": 120.0
            },
            {
                "start_time": 8.711363636363636,
                "end_time": 8.845454545454546,
                "pitch": 69,
                "velocity": 40,
                "duration": 0.1340909090909097,
                "tempo": 120.0
            },
            {
                "start_time": 8.845454545454546,
                "end_time": 8.979545454545454,
                "pitch": 69,
                "velocity": 40,
                "duration": 0.13409090909090793,
                "tempo": 120.0
            },
            {
                "start_time": 8.98181818181818,
                "end_time": 9.113636363636363,
                "pitch": 64,
                "velocity": 40,
                "duration": 0.13181818181818272,
                "tempo": 120.0
            },
            {
                "start_time": 9.11590909090909,
                "end_time": 9.247727272727273,
                "pitch": 69,
                "velocity": 40,
                "duration": 0.13181818181818272,
                "tempo": 120.0
            },
            {
                "start_time": 9.25,
                "end_time": 9.381818181818181,
                "pitch": 69,
                "velocity": 40,
                "duration": 0.13181818181818095,
                "tempo": 120.0
            },
            {
                "start_time": 9.384090909090908,
                "end_time": 9.518181818181818,
                "pitch": 64,
                "velocity": 40,
                "duration": 0.1340909090909097,
                "tempo": 120.0
            },
            {
                "start_time": 9.518181818181818,
                "end_time": 9.652272727272727,
                "pitch": 69,
                "velocity": 40,
                "duration": 0.1340909090909097,
                "tempo": 120.0
            },
            {
                "start_time": 9.654545454545454,
                "end_time": 9.784090909090908,
                "pitch": 69,
                "velocity": 40,
                "duration": 0.12954545454545396,
                "tempo": 120.0
            },
            {
                "start_time": 9.786363636363635,
                "end_time": 9.918181818181818,
                "pitch": 64,
                "velocity": 40,
                "duration": 0.13181818181818272,
                "tempo": 120.0
            },
            {
                "start_time": 9.920454545454545,
                "end_time": 10.052272727272726,
                "pitch": 69,
                "velocity": 40,
                "duration": 0.13181818181818095,
                "tempo": 120.0
            },
            {
                "start_time": 10.054545454545455,
                "end_time": 10.186363636363636,
                "pitch": 69,
                "velocity": 40,
                "duration": 0.13181818181818095,
                "tempo": 120.0
            },
            {
                "start_time": 10.188636363636363,
                "end_time": 10.320454545454545,
                "pitch": 64,
                "velocity": 40,
                "duration": 0.13181818181818272,
                "tempo": 120.0
            },
            {
                "start_time": 10.322727272727272,
                "end_time": 10.456818181818182,
                "pitch": 69,
                "velocity": 40,
                "duration": 0.1340909090909097,
                "tempo": 120.0
            },
            {
                "start_time": 10.456818181818182,
                "end_time": 10.588636363636363,
                "pitch": 69,
                "velocity": 40,
                "duration": 0.13181818181818095,
                "tempo": 120.0
            },
            {
                "start_time": 10.59090909090909,
                "end_time": 10.725,
                "pitch": 64,
                "velocity": 40,
                "duration": 0.1340909090909097,
                "tempo": 120.0
            },
            {
                "start_time": 10.725,
                "end_time": 10.85909090909091,
                "pitch": 69,
                "velocity": 40,
                "duration": 0.1340909090909097,
                "tempo": 120.0
            },
            {
                "start_time": 10.861363636363636,
                "end_time": 10.993181818181817,
                "pitch": 69,
                "velocity": 40,
                "duration": 0.13181818181818095,
                "tempo": 120.0
            },
            {
                "start_time": 10.993181818181817,
                "end_time": 11.127272727272727,
                "pitch": 64,
                "velocity": 40,
                "duration": 0.1340909090909097,
                "tempo": 120.0
            },
            {
                "start_time": 11.129545454545454,
                "end_time": 11.263636363636364,
                "pitch": 69,
                "velocity": 40,
                "duration": 0.1340909090909097,
                "tempo": 120.0
            },
            {
                "start_time": 11.26590909090909,
                "end_time": 11.395454545454545,
                "pitch": 69,
                "velocity": 40,
                "duration": 0.12954545454545396,
                "tempo": 120.0
            },
            {
                "start_time": 11.397727272727272,
                "end_time": 11.529545454545454,
                "pitch": 64,
                "velocity": 40,
                "duration": 0.13181818181818272,
                "tempo": 120.0
            },
            {
                "start_time": 11.531818181818181,
                "end_time": 11.665909090909091,
                "pitch": 69,
                "velocity": 40,
                "duration": 0.1340909090909097,
                "tempo": 120.0
            },
            {
                "start_time": 11.665909090909091,
                "end_time": 11.797727272727272,
                "pitch": 69,
                "velocity": 40,
                "duration": 0.13181818181818095,
                "tempo": 120.0
            },
            {
                "start_time": 11.799999999999999,
                "end_time": 11.931818181818182,
                "pitch": 64,
                "velocity": 40,
                "duration": 0.13181818181818272,
                "tempo": 120.0
            },
            {
                "start_time": 11.934090909090909,
                "end_time": 12.06590909090909,
                "pitch": 69,
                "velocity": 40,
                "duration": 0.13181818181818095,
                "tempo": 120.0
            },
            {
                "start_time": 12.06590909090909,
                "end_time": 12.2,
                "pitch": 69,
                "velocity": 40,
                "duration": 0.1340909090909097,
                "tempo": 120.0
            },
            {
                "start_time": 12.202272727272726,
                "end_time": 12.334090909090909,
                "pitch": 64,
                "velocity": 40,
                "duration": 0.13181818181818272,
                "tempo": 120.0
            },
            {
                "start_time": 12.336363636363636,
                "end_time": 12.468181818181817,
                "pitch": 69,
                "velocity": 40,
                "duration": 0.13181818181818095,
                "tempo": 120.0
            },
            {
                "start_time": 12.470454545454546,
                "end_time": 12.602272727272727,
                "pitch": 69,
                "velocity": 40,
                "duration": 0.13181818181818095,
                "tempo": 120.0
            },
            {
                "start_time": 12.604545454545454,
                "end_time": 12.736363636363636,
                "pitch": 64,
                "velocity": 40,
                "duration": 0.13181818181818272,
                "tempo": 120.0
            },
            {
                "start_time": 12.738636363636363,
                "end_time": 12.872727272727271,
                "pitch": 69,
                "velocity": 40,
                "duration": 0.13409090909090793,
                "tempo": 120.0
            },
            {
                "start_time": 12.875,
                "end_time": 13.006818181818181,
                "pitch": 69,
                "velocity": 40,
                "duration": 0.13181818181818095,
                "tempo": 120.0
            },
            {
                "start_time": 13.006818181818181,
                "end_time": 13.14090909090909,
                "pitch": 64,
                "velocity": 40,
                "duration": 0.1340909090909097,
                "tempo": 120.0
            },
            {
                "start_time": 13.143181818181818,
                "end_time": 13.274999999999999,
                "pitch": 69,
                "velocity": 40,
                "duration": 0.13181818181818095,
                "tempo": 120.0
            },
            {
                "start_time": 13.277272727272727,
                "end_time": 13.409090909090908,
                "pitch": 69,
                "velocity": 40,
                "duration": 0.13181818181818095,
                "tempo": 120.0
            },
            {
                "start_time": 13.411363636363635,
                "end_time": 13.543181818181818,
                "pitch": 64,
                "velocity": 40,
                "duration": 0.13181818181818272,
                "tempo": 120.0
            },
            {
                "start_time": 13.545454545454545,
                "end_time": 13.679545454545455,
                "pitch": 69,
                "velocity": 40,
                "duration": 0.1340909090909097,
                "tempo": 120.0
            },
            {
                "start_time": 13.679545454545455,
                "end_time": 13.811363636363636,
                "pitch": 69,
                "velocity": 40,
                "duration": 0.13181818181818095,
                "tempo": 120.0
            },
            {
                "start_time": 13.813636363636363,
                "end_time": 13.945454545454545,
                "pitch": 64,
                "velocity": 40,
                "duration": 0.13181818181818272,
                "tempo": 120.0
            },
            {
                "start_time": 13.945454545454545,
                "end_time": 14.079545454545453,
                "pitch": 69,
                "velocity": 40,
                "duration": 0.13409090909090793,
                "tempo": 120.0
            },
            {
                "start_time": 14.081818181818182,
                "end_time": 14.213636363636363,
                "pitch": 69,
                "velocity": 40,
                "duration": 0.13181818181818095,
                "tempo": 120.0
            },
            {
                "start_time": 14.213636363636363,
                "end_time": 14.347727272727273,
                "pitch": 64,
                "velocity": 40,
                "duration": 0.1340909090909097,
                "tempo": 120.0
            },
            {
                "start_time": 14.35,
                "end_time": 14.484090909090908,
                "pitch": 69,
                "velocity": 40,
                "duration": 0.13409090909090793,
                "tempo": 120.0
            },
            {
                "start_time": 14.484090909090908,
                "end_time": 14.61590909090909,
                "pitch": 69,
                "velocity": 40,
                "duration": 0.13181818181818272,
                "tempo": 120.0
            },
            {
                "start_time": 14.618181818181817,
                "end_time": 14.75,
                "pitch": 64,
                "velocity": 40,
                "duration": 0.13181818181818272,
                "tempo": 120.0
            },
            {
                "start_time": 14.752272727272727,
                "end_time": 14.884090909090908,
                "pitch": 69,
                "velocity": 40,
                "duration": 0.13181818181818095,
                "tempo": 120.0
            },
            {
                "start_time": 14.886363636363635,
                "end_time": 15.022727272727272,
                "pitch": 69,
                "velocity": 40,
                "duration": 0.1363636363636367,
                "tempo": 120.0
            },
            {
                "start_time": 15.022727272727272,
                "end_time": 15.159090909090908,
                "pitch": 64,
                "velocity": 40,
                "duration": 0.1363636363636367,
                "tempo": 120.0
            },
            {
                "start_time": 15.161363636363635,
                "end_time": 15.297727272727272,
                "pitch": 69,
                "velocity": 40,
                "duration": 0.1363636363636367,
                "tempo": 120.0
            },
            {
                "start_time": 15.297727272727272,
                "end_time": 15.431818181818182,
                "pitch": 69,
                "velocity": 40,
                "duration": 0.1340909090909097,
                "tempo": 120.0
            },
            {
                "start_time": 15.431818181818182,
                "end_time": 15.56590909090909,
                "pitch": 64,
                "velocity": 40,
                "duration": 0.13409090909090793,
                "tempo": 120.0
            },
            {
                "start_time": 15.56590909090909,
                "end_time": 15.7,
                "pitch": 69,
                "velocity": 40,
                "duration": 0.1340909090909097,
                "tempo": 120.0
            },
            {
                "start_time": 15.702272727272726,
                "end_time": 15.834090909090909,
                "pitch": 69,
                "velocity": 40,
                "duration": 0.13181818181818272,
                "tempo": 120.0
            },
            {
                "start_time": 15.836363636363636,
                "end_time": 15.968181818181817,
                "pitch": 64,
                "velocity": 40,
                "duration": 0.13181818181818095,
                "tempo": 120.0
            },
            {
                "start_time": 15.970454545454544,
                "end_time": 16.102272727272727,
                "pitch": 69,
                "velocity": 40,
                "duration": 0.13181818181818272,
                "tempo": 120.0
            },
            {
                "start_time": 16.104545454545455,
                "end_time": 16.238636363636363,
                "pitch": 69,
                "velocity": 40,
                "duration": 0.13409090909090793,
                "tempo": 120.0
            },
            {
                "start_time": 16.238636363636363,
                "end_time": 16.37272727272727,
                "pitch": 64,
                "velocity": 40,
                "duration": 0.13409090909090793,
                "tempo": 120.0
            },
            {
                "start_time": 16.37272727272727,
                "end_time": 16.506818181818183,
                "pitch": 69,
                "velocity": 40,
                "duration": 0.13409090909091148,
                "tempo": 120.0
            },
            {
                "start_time": 16.506818181818183,
                "end_time": 16.638636363636362,
                "pitch": 69,
                "velocity": 40,
                "duration": 0.13181818181817917,
                "tempo": 120.0
            },
            {
                "start_time": 16.64090909090909,
                "end_time": 16.772727272727273,
                "pitch": 64,
                "velocity": 40,
                "duration": 0.13181818181818272,
                "tempo": 120.0
            },
            {
                "start_time": 16.775,
                "end_time": 16.90681818181818,
                "pitch": 69,
                "velocity": 40,
                "duration": 0.13181818181818272,
                "tempo": 120.0
            },
            {
                "start_time": 16.909090909090907,
                "end_time": 17.04090909090909,
                "pitch": 69,
                "velocity": 40,
                "duration": 0.13181818181818272,
                "tempo": 120.0
            },
            {
                "start_time": 17.04090909090909,
                "end_time": 17.175,
                "pitch": 64,
                "velocity": 40,
                "duration": 0.13409090909091148,
                "tempo": 120.0
            },
            {
                "start_time": 17.175,
                "end_time": 17.30909090909091,
                "pitch": 69,
                "velocity": 40,
                "duration": 0.13409090909090793,
                "tempo": 120.0
            },
            {
                "start_time": 17.30909090909091,
                "end_time": 17.44090909090909,
                "pitch": 69,
                "velocity": 40,
                "duration": 0.13181818181818272,
                "tempo": 120.0
            },
            {
                "start_time": 17.443181818181817,
                "end_time": 17.575,
                "pitch": 64,
                "velocity": 40,
                "duration": 0.13181818181818272,
                "tempo": 120.0
            },
            {
                "start_time": 17.577272727272728,
                "end_time": 17.711363636363636,
                "pitch": 69,
                "velocity": 40,
                "duration": 0.13409090909090793,
                "tempo": 120.0
            },
            {
                "start_time": 17.71363636363636,
                "end_time": 17.84318181818182,
                "pitch": 69,
                "velocity": 40,
                "duration": 0.12954545454545752,
                "tempo": 120.0
            },
            {
                "start_time": 17.845454545454544,
                "end_time": 17.977272727272727,
                "pitch": 64,
                "velocity": 40,
                "duration": 0.13181818181818272,
                "tempo": 120.0
            },
            {
                "start_time": 17.979545454545455,
                "end_time": 18.111363636363635,
                "pitch": 69,
                "velocity": 40,
                "duration": 0.13181818181817917,
                "tempo": 120.0
            },
            {
                "start_time": 18.113636363636363,
                "end_time": 18.245454545454546,
                "pitch": 69,
                "velocity": 40,
                "duration": 0.13181818181818272,
                "tempo": 120.0
            },
            {
                "start_time": 18.24772727272727,
                "end_time": 18.379545454545454,
                "pitch": 64,
                "velocity": 40,
                "duration": 0.13181818181818272,
                "tempo": 120.0
            },
            {
                "start_time": 18.38181818181818,
                "end_time": 18.513636363636362,
                "pitch": 69,
                "velocity": 40,
                "duration": 0.13181818181818272,
                "tempo": 120.0
            },
            {
                "start_time": 18.51590909090909,
                "end_time": 18.647727272727273,
                "pitch": 69,
                "velocity": 40,
                "duration": 0.13181818181818272,
                "tempo": 120.0
            },
            {
                "start_time": 18.65,
                "end_time": 18.78181818181818,
                "pitch": 64,
                "velocity": 40,
                "duration": 0.13181818181818272,
                "tempo": 120.0
            },
            {
                "start_time": 18.78181818181818,
                "end_time": 18.913636363636364,
                "pitch": 69,
                "velocity": 40,
                "duration": 0.13181818181818272,
                "tempo": 120.0
            },
            {
                "start_time": 18.91590909090909,
                "end_time": 19.047727272727272,
                "pitch": 69,
                "velocity": 40,
                "duration": 0.13181818181818272,
                "tempo": 120.0
            },
            {
                "start_time": 19.05,
                "end_time": 19.18181818181818,
                "pitch": 64,
                "velocity": 40,
                "duration": 0.13181818181817917,
                "tempo": 120.0
            },
            {
                "start_time": 19.18409090909091,
                "end_time": 19.31590909090909,
                "pitch": 69,
                "velocity": 40,
                "duration": 0.13181818181818272,
                "tempo": 120.0
            },
            {
                "start_time": 19.318181818181817,
                "end_time": 19.45,
                "pitch": 69,
                "velocity": 40,
                "duration": 0.13181818181818272,
                "tempo": 120.0
            },
            {
                "start_time": 19.45,
                "end_time": 19.584090909090907,
                "pitch": 64,
                "velocity": 40,
                "duration": 0.13409090909090793,
                "tempo": 120.0
            },
            {
                "start_time": 19.586363636363636,
                "end_time": 19.71818181818182,
                "pitch": 69,
                "velocity": 40,
                "duration": 0.13181818181818272,
                "tempo": 120.0
            },
            {
                "start_time": 19.720454545454544,
                "end_time": 19.852272727272727,
                "pitch": 69,
                "velocity": 40,
                "duration": 0.13181818181818272,
                "tempo": 120.0
            },
            {
                "start_time": 19.852272727272727,
                "end_time": 19.986363636363635,
                "pitch": 64,
                "velocity": 40,
                "duration": 0.13409090909090793,
                "tempo": 120.0
            },
            {
                "start_time": 19.986363636363635,
                "end_time": 20.120454545454546,
                "pitch": 69,
                "velocity": 40,
                "duration": 0.13409090909091148,
                "tempo": 120.0
            },
            {
                "start_time": 20.120454545454546,
                "end_time": 20.254545454545454,
                "pitch": 69,
                "velocity": 40,
                "duration": 0.13409090909090793,
                "tempo": 120.0
            },
            {
                "start_time": 20.254545454545454,
                "end_time": 20.388636363636362,
                "pitch": 64,
                "velocity": 40,
                "duration": 0.13409090909090793,
                "tempo": 120.0
            },
            {
                "start_time": 20.388636363636362,
                "end_time": 20.522727272727273,
                "pitch": 69,
                "velocity": 40,
                "duration": 0.13409090909091148,
                "tempo": 120.0
            },
            {
                "start_time": 20.522727272727273,
                "end_time": 20.65681818181818,
                "pitch": 69,
                "velocity": 40,
                "duration": 0.13409090909090793,
                "tempo": 120.0
            },
            {
                "start_time": 20.65681818181818,
                "end_time": 20.788636363636364,
                "pitch": 64,
                "velocity": 40,
                "duration": 0.13181818181818272,
                "tempo": 120.0
            },
            {
                "start_time": 20.79090909090909,
                "end_time": 20.925,
                "pitch": 69,
                "velocity": 40,
                "duration": 0.13409090909091148,
                "tempo": 120.0
            },
            {
                "start_time": 20.925,
                "end_time": 21.05681818181818,
                "pitch": 69,
                "velocity": 40,
                "duration": 0.13181818181817917,
                "tempo": 120.0
            },
            {
                "start_time": 21.05681818181818,
                "end_time": 21.19090909090909,
                "pitch": 64,
                "velocity": 40,
                "duration": 0.13409090909091148,
                "tempo": 120.0
            },
            {
                "start_time": 21.19090909090909,
                "end_time": 21.32272727272727,
                "pitch": 69,
                "velocity": 40,
                "duration": 0.13181818181817917,
                "tempo": 120.0
            },
            {
                "start_time": 21.325,
                "end_time": 21.456818181818182,
                "pitch": 69,
                "velocity": 40,
                "duration": 0.13181818181818272,
                "tempo": 120.0
            },
            {
                "start_time": 21.459090909090907,
                "end_time": 21.59318181818182,
                "pitch": 64,
                "velocity": 40,
                "duration": 0.13409090909091148,
                "tempo": 120.0
            },
            {
                "start_time": 21.59318181818182,
                "end_time": 21.727272727272727,
                "pitch": 69,
                "velocity": 40,
                "duration": 0.13409090909090793,
                "tempo": 120.0
            },
            {
                "start_time": 21.727272727272727,
                "end_time": 21.85909090909091,
                "pitch": 69,
                "velocity": 40,
                "duration": 0.13181818181818272,
                "tempo": 120.0
            },
            {
                "start_time": 21.861363636363635,
                "end_time": 21.993181818181817,
                "pitch": 64,
                "velocity": 40,
                "duration": 0.13181818181818272,
                "tempo": 120.0
            },
            {
                "start_time": 21.995454545454546,
                "end_time": 22.127272727272725,
                "pitch": 69,
                "velocity": 40,
                "duration": 0.13181818181817917,
                "tempo": 120.0
            },
            {
                "start_time": 22.129545454545454,
                "end_time": 22.261363636363637,
                "pitch": 69,
                "velocity": 40,
                "duration": 0.13181818181818272,
                "tempo": 120.0
            },
            {
                "start_time": 22.263636363636362,
                "end_time": 22.395454545454545,
                "pitch": 64,
                "velocity": 40,
                "duration": 0.13181818181818272,
                "tempo": 120.0
            },
            {
                "start_time": 22.397727272727273,
                "end_time": 22.529545454545453,
                "pitch": 69,
                "velocity": 40,
                "duration": 0.13181818181817917,
                "tempo": 120.0
            },
            {
                "start_time": 22.53181818181818,
                "end_time": 22.663636363636364,
                "pitch": 69,
                "velocity": 40,
                "duration": 0.13181818181818272,
                "tempo": 120.0
            },
            {
                "start_time": 22.66590909090909,
                "end_time": 22.797727272727272,
                "pitch": 64,
                "velocity": 40,
                "duration": 0.13181818181818272,
                "tempo": 120.0
            },
            {
                "start_time": 22.797727272727272,
                "end_time": 22.929545454545455,
                "pitch": 69,
                "velocity": 40,
                "duration": 0.13181818181818272,
                "tempo": 120.0
            },
            {
                "start_time": 22.93181818181818,
                "end_time": 23.063636363636363,
                "pitch": 69,
                "velocity": 40,
                "duration": 0.13181818181818272,
                "tempo": 120.0
            },
            {
                "start_time": 23.06590909090909,
                "end_time": 23.19772727272727,
                "pitch": 64,
                "velocity": 40,
                "duration": 0.13181818181817917,
                "tempo": 120.0
            },
            {
                "start_time": 23.2,
                "end_time": 23.331818181818182,
                "pitch": 69,
                "velocity": 40,
                "duration": 0.13181818181818272,
                "tempo": 120.0
            },
            {
                "start_time": 23.334090909090907,
                "end_time": 23.46818181818182,
                "pitch": 69,
                "velocity": 40,
                "duration": 0.13409090909091148,
                "tempo": 120.0
            },
            {
                "start_time": 23.470454545454544,
                "end_time": 23.604545454545452,
                "pitch": 64,
                "velocity": 40,
                "duration": 0.13409090909090793,
                "tempo": 120.0
            },
            {
                "start_time": 23.60681818181818,
                "end_time": 23.743181818181817,
                "pitch": 69,
                "velocity": 40,
                "duration": 0.1363636363636367,
                "tempo": 120.0
            },
            {
                "start_time": 23.745454545454546,
                "end_time": 23.877272727272725,
                "pitch": 69,
                "velocity": 40,
                "duration": 0.13181818181817917,
                "tempo": 120.0
            },
            {
                "start_time": 23.877272727272725,
                "end_time": 24.011363636363637,
                "pitch": 64,
                "velocity": 40,
                "duration": 0.13409090909091148,
                "tempo": 120.0
            },
            {
                "start_time": 24.013636363636362,
                "end_time": 24.14772727272727,
                "pitch": 69,
                "velocity": 40,
                "duration": 0.13409090909090793,
                "tempo": 120.0
            },
            {
                "start_time": 24.14772727272727,
                "end_time": 24.279545454545453,
                "pitch": 69,
                "velocity": 40,
                "duration": 0.13181818181818272,
                "tempo": 120.0
            },
            {
                "start_time": 24.28181818181818,
                "end_time": 24.413636363636364,
                "pitch": 64,
                "velocity": 40,
                "duration": 0.13181818181818272,
                "tempo": 120.0
            },
            {
                "start_time": 24.413636363636364,
                "end_time": 24.545454545454543,
                "pitch": 69,
                "velocity": 40,
                "duration": 0.13181818181817917,
                "tempo": 120.0
            },
            {
                "start_time": 24.547727272727272,
                "end_time": 24.68181818181818,
                "pitch": 69,
                "velocity": 40,
                "duration": 0.13409090909090793,
                "tempo": 120.0
            },
            {
                "start_time": 24.68181818181818,
                "end_time": 24.81590909090909,
                "pitch": 64,
                "velocity": 40,
                "duration": 0.13409090909091148,
                "tempo": 120.0
            },
            {
                "start_time": 24.81590909090909,
                "end_time": 24.95,
                "pitch": 69,
                "velocity": 40,
                "duration": 0.13409090909090793,
                "tempo": 120.0
            },
            {
                "start_time": 24.95,
                "end_time": 25.081818181818182,
                "pitch": 69,
                "velocity": 40,
                "duration": 0.13181818181818272,
                "tempo": 120.0
            },
            {
                "start_time": 25.084090909090907,
                "end_time": 25.21590909090909,
                "pitch": 64,
                "velocity": 40,
                "duration": 0.13181818181818272,
                "tempo": 120.0
            },
            {
                "start_time": 25.21818181818182,
                "end_time": 25.349999999999998,
                "pitch": 69,
                "velocity": 40,
                "duration": 0.13181818181817917,
                "tempo": 120.0
            },
            {
                "start_time": 25.352272727272727,
                "end_time": 25.48409090909091,
                "pitch": 69,
                "velocity": 40,
                "duration": 0.13181818181818272,
                "tempo": 120.0
            },
            {
                "start_time": 25.48409090909091,
                "end_time": 25.618181818181817,
                "pitch": 64,
                "velocity": 40,
                "duration": 0.13409090909090793,
                "tempo": 120.0
            },
            {
                "start_time": 25.618181818181817,
                "end_time": 25.75,
                "pitch": 69,
                "velocity": 40,
                "duration": 0.13181818181818272,
                "tempo": 120.0
            },
            {
                "start_time": 25.752272727272725,
                "end_time": 25.884090909090908,
                "pitch": 69,
                "velocity": 40,
                "duration": 0.13181818181818272,
                "tempo": 120.0
            },
            {
                "start_time": 25.886363636363637,
                "end_time": 26.018181818181816,
                "pitch": 64,
                "velocity": 40,
                "duration": 0.13181818181817917,
                "tempo": 120.0
            },
            {
                "start_time": 26.020454545454545,
                "end_time": 26.154545454545453,
                "pitch": 69,
                "velocity": 40,
                "duration": 0.13409090909090793,
                "tempo": 120.0
            },
            {
                "start_time": 26.154545454545453,
                "end_time": 26.286363636363635,
                "pitch": 69,
                "velocity": 40,
                "duration": 0.13181818181818272,
                "tempo": 120.0
            },
            {
                "start_time": 26.288636363636364,
                "end_time": 26.420454545454543,
                "pitch": 64,
                "velocity": 40,
                "duration": 0.13181818181817917,
                "tempo": 120.0
            },
            {
                "start_time": 26.422727272727272,
                "end_time": 26.554545454545455,
                "pitch": 69,
                "velocity": 40,
                "duration": 0.13181818181818272,
                "tempo": 120.0
            },
            {
                "start_time": 26.55681818181818,
                "end_time": 26.688636363636363,
                "pitch": 69,
                "velocity": 40,
                "duration": 0.13181818181818272,
                "tempo": 120.0
            },
            {
                "start_time": 26.69090909090909,
                "end_time": 26.82272727272727,
                "pitch": 64,
                "velocity": 40,
                "duration": 0.13181818181817917,
                "tempo": 120.0
            },
            {
                "start_time": 26.825,
                "end_time": 26.959090909090907,
                "pitch": 69,
                "velocity": 40,
                "duration": 0.13409090909090793,
                "tempo": 120.0
            },
            {
                "start_time": 26.959090909090907,
                "end_time": 27.09090909090909,
                "pitch": 69,
                "velocity": 40,
                "duration": 0.13181818181818272,
                "tempo": 120.0
            },
            {
                "start_time": 27.093181818181815,
                "end_time": 27.224999999999998,
                "pitch": 64,
                "velocity": 40,
                "duration": 0.13181818181818272,
                "tempo": 120.0
            },
            {
                "start_time": 27.224999999999998,
                "end_time": 27.35909090909091,
                "pitch": 69,
                "velocity": 40,
                "duration": 0.13409090909091148,
                "tempo": 120.0
            },
            {
                "start_time": 27.361363636363635,
                "end_time": 27.49090909090909,
                "pitch": 69,
                "velocity": 40,
                "duration": 0.12954545454545396,
                "tempo": 120.0
            },
            {
                "start_time": 27.493181818181817,
                "end_time": 27.625,
                "pitch": 64,
                "velocity": 40,
                "duration": 0.13181818181818272,
                "tempo": 120.0
            },
            {
                "start_time": 27.627272727272725,
                "end_time": 27.759090909090908,
                "pitch": 69,
                "velocity": 40,
                "duration": 0.13181818181818272,
                "tempo": 120.0
            },
            {
                "start_time": 27.759090909090908,
                "end_time": 27.893181818181816,
                "pitch": 69,
                "velocity": 40,
                "duration": 0.13409090909090793,
                "tempo": 120.0
            },
            {
                "start_time": 27.893181818181816,
                "end_time": 28.027272727272727,
                "pitch": 64,
                "velocity": 40,
                "duration": 0.13409090909091148,
                "tempo": 120.0
            },
            {
                "start_time": 28.029545454545453,
                "end_time": 28.161363636363635,
                "pitch": 69,
                "velocity": 40,
                "duration": 0.13181818181818272,
                "tempo": 120.0
            },
            {
                "start_time": 28.163636363636364,
                "end_time": 28.295454545454543,
                "pitch": 69,
                "velocity": 40,
                "duration": 0.13181818181817917,
                "tempo": 120.0
            },
            {
                "start_time": 28.295454545454543,
                "end_time": 28.429545454545455,
                "pitch": 64,
                "velocity": 40,
                "duration": 0.13409090909091148,
                "tempo": 120.0
            },
            {
                "start_time": 28.429545454545455,
                "end_time": 28.561363636363634,
                "pitch": 69,
                "velocity": 40,
                "duration": 0.13181818181817917,
                "tempo": 120.0
            },
            {
                "start_time": 28.563636363636363,
                "end_time": 28.69772727272727,
                "pitch": 69,
                "velocity": 40,
                "duration": 0.13409090909090793,
                "tempo": 120.0
            },
            {
                "start_time": 28.69772727272727,
                "end_time": 28.831818181818182,
                "pitch": 64,
                "velocity": 40,
                "duration": 0.13409090909091148,
                "tempo": 120.0
            },
            {
                "start_time": 28.831818181818182,
                "end_time": 28.96590909090909,
                "pitch": 69,
                "velocity": 40,
                "duration": 0.13409090909090793,
                "tempo": 120.0
            },
            {
                "start_time": 28.968181818181815,
                "end_time": 29.099999999999998,
                "pitch": 69,
                "velocity": 40,
                "duration": 0.13181818181818272,
                "tempo": 120.0
            },
            {
                "start_time": 29.099999999999998,
                "end_time": 29.23181818181818,
                "pitch": 64,
                "velocity": 40,
                "duration": 0.13181818181818272,
                "tempo": 120.0
            },
            {
                "start_time": 29.23409090909091,
                "end_time": 29.36590909090909,
                "pitch": 69,
                "velocity": 40,
                "duration": 0.13181818181817917,
                "tempo": 120.0
            },
            {
                "start_time": 29.368181818181817,
                "end_time": 29.5,
                "pitch": 69,
                "velocity": 40,
                "duration": 0.13181818181818272,
                "tempo": 120.0
            },
            {
                "start_time": 29.5,
                "end_time": 29.634090909090908,
                "pitch": 64,
                "velocity": 40,
                "duration": 0.13409090909090793,
                "tempo": 120.0
            },
            {
                "start_time": 29.634090909090908,
                "end_time": 29.76590909090909,
                "pitch": 69,
                "velocity": 40,
                "duration": 0.13181818181818272,
                "tempo": 120.0
            },
            {
                "start_time": 29.768181818181816,
                "end_time": 29.9,
                "pitch": 69,
                "velocity": 40,
                "duration": 0.13181818181818272,
                "tempo": 120.0
            },
            {
                "start_time": 29.902272727272727,
                "end_time": 30.036363636363635,
                "pitch": 64,
                "velocity": 40,
                "duration": 0.13409090909090793,
                "tempo": 120.0
            },
            {
                "start_time": 30.036363636363635,
                "end_time": 30.170454545454543,
                "pitch": 69,
                "velocity": 40,
                "duration": 0.13409090909090793,
                "tempo": 120.0
            },
            {
                "start_time": 30.172727272727272,
                "end_time": 30.302272727272726,
                "pitch": 69,
                "velocity": 40,
                "duration": 0.12954545454545396,
                "tempo": 120.0
            },
            {
                "start_time": 30.304545454545455,
                "end_time": 30.436363636363634,
                "pitch": 64,
                "velocity": 40,
                "duration": 0.13181818181817917,
                "tempo": 120.0
            },
            {
                "start_time": 30.438636363636363,
                "end_time": 30.570454545454545,
                "pitch": 69,
                "velocity": 40,
                "duration": 0.13181818181818272,
                "tempo": 120.0
            },
            {
                "start_time": 30.57272727272727,
                "end_time": 30.706818181818182,
                "pitch": 69,
                "velocity": 40,
                "duration": 0.13409090909091148,
                "tempo": 120.0
            },
            {
                "start_time": 30.709090909090907,
                "end_time": 30.845454545454544,
                "pitch": 64,
                "velocity": 40,
                "duration": 0.1363636363636367,
                "tempo": 120.0
            },
            {
                "start_time": 30.845454545454544,
                "end_time": 30.98181818181818,
                "pitch": 69,
                "velocity": 40,
                "duration": 0.1363636363636367,
                "tempo": 120.0
            },
            {
                "start_time": 30.98409090909091,
                "end_time": 31.11590909090909,
                "pitch": 69,
                "velocity": 40,
                "duration": 0.13181818181817917,
                "tempo": 120.0
            },
            {
                "start_time": 31.118181818181817,
                "end_time": 31.25,
                "pitch": 64,
                "velocity": 40,
                "duration": 0.13181818181818272,
                "tempo": 120.0
            },
            {
                "start_time": 31.252272727272725,
                "end_time": 31.384090909090908,
                "pitch": 69,
                "velocity": 40,
                "duration": 0.13181818181818272,
                "tempo": 120.0
            },
            {
                "start_time": 31.386363636363633,
                "end_time": 31.518181818181816,
                "pitch": 69,
                "velocity": 40,
                "duration": 0.13181818181818272,
                "tempo": 120.0
            },
            {
                "start_time": 31.520454545454545,
                "end_time": 31.652272727272727,
                "pitch": 64,
                "velocity": 40,
                "duration": 0.13181818181818272,
                "tempo": 120.0
            },
            {
                "start_time": 31.652272727272727,
                "end_time": 31.786363636363635,
                "pitch": 69,
                "velocity": 40,
                "duration": 0.13409090909090793,
                "tempo": 120.0
            },
            {
                "start_time": 31.786363636363635,
                "end_time": 31.918181818181818,
                "pitch": 69,
                "velocity": 40,
                "duration": 0.13181818181818272,
                "tempo": 120.0
            },
            {
                "start_time": 31.920454545454543,
                "end_time": 32.05227272727272,
                "pitch": 64,
                "velocity": 40,
                "duration": 0.13181818181817917,
                "tempo": 120.0
            },
            {
                "start_time": 32.054545454545455,
                "end_time": 32.18636363636364,
                "pitch": 69,
                "velocity": 40,
                "duration": 0.13181818181818272,
                "tempo": 120.0
            },
            {
                "start_time": 32.18863636363636,
                "end_time": 32.31818181818182,
                "pitch": 69,
                "velocity": 40,
                "duration": 0.12954545454545752,
                "tempo": 120.0
            },
            {
                "start_time": 32.320454545454545,
                "end_time": 32.45454545454545,
                "pitch": 64,
                "velocity": 40,
                "duration": 0.13409090909090793,
                "tempo": 120.0
            },
            {
                "start_time": 32.45454545454545,
                "end_time": 32.586363636363636,
                "pitch": 69,
                "velocity": 40,
                "duration": 0.13181818181818272,
                "tempo": 120.0
            },
            {
                "start_time": 32.58863636363636,
                "end_time": 32.720454545454544,
                "pitch": 69,
                "velocity": 40,
                "duration": 0.13181818181818272,
                "tempo": 120.0
            },
            {
                "start_time": 32.72272727272727,
                "end_time": 32.85454545454545,
                "pitch": 64,
                "velocity": 40,
                "duration": 0.13181818181818272,
                "tempo": 120.0
            },
            {
                "start_time": 32.85681818181818,
                "end_time": 32.99090909090909,
                "pitch": 69,
                "velocity": 40,
                "duration": 0.13409090909091503,
                "tempo": 120.0
            },
            {
                "start_time": 32.99090909090909,
                "end_time": 33.12272727272727,
                "pitch": 69,
                "velocity": 40,
                "duration": 0.13181818181817562,
                "tempo": 120.0
            },
            {
                "start_time": 33.125,
                "end_time": 33.25681818181818,
                "pitch": 64,
                "velocity": 40,
                "duration": 0.13181818181818272,
                "tempo": 120.0
            },
            {
                "start_time": 33.25909090909091,
                "end_time": 33.39090909090909,
                "pitch": 69,
                "velocity": 40,
                "duration": 0.13181818181818272,
                "tempo": 120.0
            },
            {
                "start_time": 33.39090909090909,
                "end_time": 33.525,
                "pitch": 69,
                "velocity": 40,
                "duration": 0.13409090909090793,
                "tempo": 120.0
            },
            {
                "start_time": 33.525,
                "end_time": 33.65681818181818,
                "pitch": 64,
                "velocity": 40,
                "duration": 0.13181818181818272,
                "tempo": 120.0
            },
            {
                "start_time": 33.65909090909091,
                "end_time": 33.793181818181814,
                "pitch": 69,
                "velocity": 40,
                "duration": 0.13409090909090793,
                "tempo": 120.0
            },
            {
                "start_time": 33.793181818181814,
                "end_time": 33.925,
                "pitch": 69,
                "velocity": 40,
                "duration": 0.13181818181818272,
                "tempo": 120.0
            },
            {
                "start_time": 33.925,
                "end_time": 34.05681818181818,
                "pitch": 64,
                "velocity": 40,
                "duration": 0.13181818181818272,
                "tempo": 120.0
            },
            {
                "start_time": 34.059090909090905,
                "end_time": 34.19090909090909,
                "pitch": 69,
                "velocity": 40,
                "duration": 0.13181818181818272,
                "tempo": 120.0
            },
            {
                "start_time": 34.19318181818181,
                "end_time": 34.324999999999996,
                "pitch": 69,
                "velocity": 40,
                "duration": 0.13181818181818272,
                "tempo": 120.0
            },
            {
                "start_time": 34.32727272727273,
                "end_time": 34.45909090909091,
                "pitch": 64,
                "velocity": 40,
                "duration": 0.13181818181818272,
                "tempo": 120.0
            },
            {
                "start_time": 34.45909090909091,
                "end_time": 34.590909090909086,
                "pitch": 69,
                "velocity": 40,
                "duration": 0.13181818181817562,
                "tempo": 120.0
            },
            {
                "start_time": 34.59318181818182,
                "end_time": 34.72727272727273,
                "pitch": 69,
                "velocity": 40,
                "duration": 0.13409090909090793,
                "tempo": 120.0
            },
            {
                "start_time": 34.72727272727273,
                "end_time": 34.861363636363635,
                "pitch": 64,
                "velocity": 40,
                "duration": 0.13409090909090793,
                "tempo": 120.0
            },
            {
                "start_time": 34.861363636363635,
                "end_time": 34.99545454545454,
                "pitch": 69,
                "velocity": 40,
                "duration": 0.13409090909090793,
                "tempo": 120.0
            },
            {
                "start_time": 34.99545454545454,
                "end_time": 35.127272727272725,
                "pitch": 69,
                "velocity": 40,
                "duration": 0.13181818181818272,
                "tempo": 120.0
            },
            {
                "start_time": 35.12954545454545,
                "end_time": 35.26136363636363,
                "pitch": 64,
                "velocity": 40,
                "duration": 0.13181818181818272,
                "tempo": 120.0
            },
            {
                "start_time": 35.263636363636365,
                "end_time": 35.39545454545454,
                "pitch": 69,
                "velocity": 40,
                "duration": 0.13181818181817562,
                "tempo": 120.0
            },
            {
                "start_time": 35.39772727272727,
                "end_time": 35.529545454545456,
                "pitch": 69,
                "velocity": 40,
                "duration": 0.13181818181818272,
                "tempo": 120.0
            },
            {
                "start_time": 35.529545454545456,
                "end_time": 35.66136363636363,
                "pitch": 64,
                "velocity": 40,
                "duration": 0.13181818181817562,
                "tempo": 120.0
            },
            {
                "start_time": 35.663636363636364,
                "end_time": 35.79545454545455,
                "pitch": 69,
                "velocity": 40,
                "duration": 0.13181818181818272,
                "tempo": 120.0
            },
            {
                "start_time": 35.79772727272727,
                "end_time": 35.929545454545455,
                "pitch": 69,
                "velocity": 40,
                "duration": 0.13181818181818272,
                "tempo": 120.0
            },
            {
                "start_time": 35.93181818181818,
                "end_time": 36.06363636363636,
                "pitch": 64,
                "velocity": 40,
                "duration": 0.13181818181818272,
                "tempo": 120.0
            },
            {
                "start_time": 36.06363636363636,
                "end_time": 36.19772727272727,
                "pitch": 69,
                "velocity": 40,
                "duration": 0.13409090909090793,
                "tempo": 120.0
            },
            {
                "start_time": 36.19772727272727,
                "end_time": 36.32954545454545,
                "pitch": 69,
                "velocity": 40,
                "duration": 0.13181818181818272,
                "tempo": 120.0
            },
            {
                "start_time": 36.33181818181818,
                "end_time": 36.46363636363636,
                "pitch": 64,
                "velocity": 40,
                "duration": 0.13181818181818272,
                "tempo": 120.0
            },
            {
                "start_time": 36.465909090909086,
                "end_time": 36.59772727272727,
                "pitch": 69,
                "velocity": 40,
                "duration": 0.13181818181818272,
                "tempo": 120.0
            },
            {
                "start_time": 36.6,
                "end_time": 36.73181818181818,
                "pitch": 69,
                "velocity": 40,
                "duration": 0.13181818181817562,
                "tempo": 120.0
            },
            {
                "start_time": 36.73181818181818,
                "end_time": 36.86590909090909,
                "pitch": 64,
                "velocity": 40,
                "duration": 0.13409090909091503,
                "tempo": 120.0
            },
            {
                "start_time": 36.86818181818182,
                "end_time": 37.0,
                "pitch": 69,
                "velocity": 40,
                "duration": 0.13181818181818272,
                "tempo": 120.0
            },
            {
                "start_time": 37.002272727272725,
                "end_time": 37.13409090909091,
                "pitch": 69,
                "velocity": 40,
                "duration": 0.13181818181818272,
                "tempo": 120.0
            },
            {
                "start_time": 37.13409090909091,
                "end_time": 37.26590909090909,
                "pitch": 64,
                "velocity": 40,
                "duration": 0.13181818181818272,
                "tempo": 120.0
            },
            {
                "start_time": 37.268181818181816,
                "end_time": 37.4,
                "pitch": 69,
                "velocity": 40,
                "duration": 0.13181818181818272,
                "tempo": 120.0
            },
            {
                "start_time": 37.402272727272724,
                "end_time": 37.53409090909091,
                "pitch": 69,
                "velocity": 40,
                "duration": 0.13181818181818272,
                "tempo": 120.0
            },
            {
                "start_time": 37.53636363636363,
                "end_time": 37.668181818181814,
                "pitch": 64,
                "velocity": 40,
                "duration": 0.13181818181818272,
                "tempo": 120.0
            },
            {
                "start_time": 37.668181818181814,
                "end_time": 37.80227272727272,
                "pitch": 69,
                "velocity": 40,
                "duration": 0.13409090909090793,
                "tempo": 120.0
            },
            {
                "start_time": 37.80227272727272,
                "end_time": 37.934090909090905,
                "pitch": 69,
                "velocity": 40,
                "duration": 0.13181818181818272,
                "tempo": 120.0
            },
            {
                "start_time": 37.93636363636364,
                "end_time": 38.06818181818181,
                "pitch": 64,
                "velocity": 40,
                "duration": 0.13181818181817562,
                "tempo": 120.0
            },
            {
                "start_time": 38.070454545454545,
                "end_time": 38.20227272727273,
                "pitch": 69,
                "velocity": 40,
                "duration": 0.13181818181818272,
                "tempo": 120.0
            },
            {
                "start_time": 38.20227272727273,
                "end_time": 38.33409090909091,
                "pitch": 69,
                "velocity": 40,
                "duration": 0.13181818181818272,
                "tempo": 120.0
            },
            {
                "start_time": 38.336363636363636,
                "end_time": 38.46818181818182,
                "pitch": 64,
                "velocity": 40,
                "duration": 0.13181818181818272,
                "tempo": 120.0
            },
            {
                "start_time": 38.470454545454544,
                "end_time": 38.60227272727273,
                "pitch": 69,
                "velocity": 40,
                "duration": 0.13181818181818272,
                "tempo": 120.0
            },
            {
                "start_time": 38.60454545454545,
                "end_time": 38.736363636363635,
                "pitch": 69,
                "velocity": 40,
                "duration": 0.13181818181818272,
                "tempo": 120.0
            },
            {
                "start_time": 38.73863636363636,
                "end_time": 38.87045454545454,
                "pitch": 64,
                "velocity": 40,
                "duration": 0.13181818181818272,
                "tempo": 120.0
            },
            {
                "start_time": 38.87272727272727,
                "end_time": 39.00454545454545,
                "pitch": 69,
                "velocity": 40,
                "duration": 0.13181818181818272,
                "tempo": 120.0
            },
            {
                "start_time": 39.00681818181818,
                "end_time": 39.143181818181816,
                "pitch": 69,
                "velocity": 40,
                "duration": 0.13636363636363313,
                "tempo": 120.0
            },
            {
                "start_time": 39.143181818181816,
                "end_time": 39.279545454545456,
                "pitch": 64,
                "velocity": 40,
                "duration": 0.13636363636364024,
                "tempo": 120.0
            },
            {
                "start_time": 39.28181818181818,
                "end_time": 39.41590909090909,
                "pitch": 69,
                "velocity": 40,
                "duration": 0.13409090909090793,
                "tempo": 120.0
            },
            {
                "start_time": 39.418181818181814,
                "end_time": 39.55,
                "pitch": 69,
                "velocity": 40,
                "duration": 0.13181818181818272,
                "tempo": 120.0
            },
            {
                "start_time": 39.55227272727272,
                "end_time": 39.684090909090905,
                "pitch": 64,
                "velocity": 40,
                "duration": 0.13181818181818272,
                "tempo": 120.0
            },
            {
                "start_time": 39.68636363636364,
                "end_time": 39.81818181818181,
                "pitch": 69,
                "velocity": 40,
                "duration": 0.13181818181817562,
                "tempo": 120.0
            },
            {
                "start_time": 39.820454545454545,
                "end_time": 39.949999999999996,
                "pitch": 69,
                "velocity": 40,
                "duration": 0.1295454545454504,
                "tempo": 120.0
            },
            {
                "start_time": 39.95227272727273,
                "end_time": 40.084090909090904,
                "pitch": 64,
                "velocity": 40,
                "duration": 0.13181818181817562,
                "tempo": 120.0
            },
            {
                "start_time": 40.086363636363636,
                "end_time": 40.21818181818182,
                "pitch": 69,
                "velocity": 40,
                "duration": 0.13181818181818272,
                "tempo": 120.0
            },
            {
                "start_time": 40.220454545454544,
                "end_time": 40.35227272727273,
                "pitch": 69,
                "velocity": 40,
                "duration": 0.13181818181818272,
                "tempo": 120.0
            },
            {
                "start_time": 40.35454545454545,
                "end_time": 40.486363636363635,
                "pitch": 64,
                "velocity": 40,
                "duration": 0.13181818181818272,
                "tempo": 120.0
            },
            {
                "start_time": 40.48863636363636,
                "end_time": 40.62045454545454,
                "pitch": 69,
                "velocity": 40,
                "duration": 0.13181818181818272,
                "tempo": 120.0
            },
            {
                "start_time": 40.62272727272727,
                "end_time": 40.75454545454545,
                "pitch": 69,
                "velocity": 40,
                "duration": 0.13181818181818272,
                "tempo": 120.0
            },
            {
                "start_time": 40.75681818181818,
                "end_time": 40.88863636363636,
                "pitch": 64,
                "velocity": 40,
                "duration": 0.13181818181817562,
                "tempo": 120.0
            },
            {
                "start_time": 40.88863636363636,
                "end_time": 41.02272727272727,
                "pitch": 69,
                "velocity": 40,
                "duration": 0.13409090909091503,
                "tempo": 120.0
            },
            {
                "start_time": 41.02272727272727,
                "end_time": 41.154545454545456,
                "pitch": 69,
                "velocity": 40,
                "duration": 0.13181818181818272,
                "tempo": 120.0
            },
            {
                "start_time": 41.15681818181818,
                "end_time": 41.288636363636364,
                "pitch": 64,
                "velocity": 40,
                "duration": 0.13181818181818272,
                "tempo": 120.0
            },
            {
                "start_time": 41.29090909090909,
                "end_time": 41.42272727272727,
                "pitch": 69,
                "velocity": 40,
                "duration": 0.13181818181818272,
                "tempo": 120.0
            },
            {
                "start_time": 41.42272727272727,
                "end_time": 41.55681818181818,
                "pitch": 69,
                "velocity": 40,
                "duration": 0.13409090909090793,
                "tempo": 120.0
            },
            {
                "start_time": 41.55681818181818,
                "end_time": 41.68863636363636,
                "pitch": 64,
                "velocity": 40,
                "duration": 0.13181818181818272,
                "tempo": 120.0
            },
            {
                "start_time": 41.69090909090909,
                "end_time": 41.824999999999996,
                "pitch": 69,
                "velocity": 40,
                "duration": 0.13409090909090793,
                "tempo": 120.0
            },
            {
                "start_time": 41.824999999999996,
                "end_time": 41.95681818181818,
                "pitch": 69,
                "velocity": 40,
                "duration": 0.13181818181818272,
                "tempo": 120.0
            },
            {
                "start_time": 41.95681818181818,
                "end_time": 42.08863636363636,
                "pitch": 64,
                "velocity": 40,
                "duration": 0.13181818181818272,
                "tempo": 120.0
            },
            {
                "start_time": 42.090909090909086,
                "end_time": 42.22272727272727,
                "pitch": 69,
                "velocity": 40,
                "duration": 0.13181818181818272,
                "tempo": 120.0
            },
            {
                "start_time": 42.225,
                "end_time": 42.35681818181818,
                "pitch": 69,
                "velocity": 40,
                "duration": 0.13181818181817562,
                "tempo": 120.0
            },
            {
                "start_time": 42.35909090909091,
                "end_time": 42.49318181818182,
                "pitch": 64,
                "velocity": 40,
                "duration": 0.13409090909090793,
                "tempo": 120.0
            },
            {
                "start_time": 42.49318181818182,
                "end_time": 42.627272727272725,
                "pitch": 69,
                "velocity": 40,
                "duration": 0.13409090909090793,
                "tempo": 120.0
            },
            {
                "start_time": 42.627272727272725,
                "end_time": 42.75909090909091,
                "pitch": 69,
                "velocity": 40,
                "duration": 0.13181818181818272,
                "tempo": 120.0
            },
            {
                "start_time": 42.76136363636363,
                "end_time": 42.893181818181816,
                "pitch": 64,
                "velocity": 40,
                "duration": 0.13181818181818272,
                "tempo": 120.0
            },
            {
                "start_time": 42.89545454545454,
                "end_time": 43.027272727272724,
                "pitch": 69,
                "velocity": 40,
                "duration": 0.13181818181818272,
                "tempo": 120.0
            },
            {
                "start_time": 43.02954545454545,
                "end_time": 43.16136363636363,
                "pitch": 69,
                "velocity": 40,
                "duration": 0.13181818181818272,
                "tempo": 120.0
            },
            {
                "start_time": 43.16136363636363,
                "end_time": 43.293181818181814,
                "pitch": 64,
                "velocity": 40,
                "duration": 0.13181818181818272,
                "tempo": 120.0
            },
            {
                "start_time": 43.29545454545455,
                "end_time": 43.429545454545455,
                "pitch": 69,
                "velocity": 40,
                "duration": 0.13409090909090793,
                "tempo": 120.0
            },
            {
                "start_time": 43.43181818181818,
                "end_time": 43.56136363636364,
                "pitch": 69,
                "velocity": 40,
                "duration": 0.12954545454545752,
                "tempo": 120.0
            },
            {
                "start_time": 43.56136363636364,
                "end_time": 43.695454545454545,
                "pitch": 64,
                "velocity": 40,
                "duration": 0.13409090909090793,
                "tempo": 120.0
            },
            {
                "start_time": 43.695454545454545,
                "end_time": 43.82727272727273,
                "pitch": 69,
                "velocity": 40,
                "duration": 0.13181818181818272,
                "tempo": 120.0
            },
            {
                "start_time": 43.82954545454545,
                "end_time": 43.961363636363636,
                "pitch": 69,
                "velocity": 40,
                "duration": 0.13181818181818272,
                "tempo": 120.0
            },
            {
                "start_time": 43.96363636363636,
                "end_time": 44.095454545454544,
                "pitch": 64,
                "velocity": 40,
                "duration": 0.13181818181818272,
                "tempo": 120.0
            },
            {
                "start_time": 44.095454545454544,
                "end_time": 44.22954545454545,
                "pitch": 69,
                "velocity": 40,
                "duration": 0.13409090909090793,
                "tempo": 120.0
            },
            {
                "start_time": 44.22954545454545,
                "end_time": 44.36363636363636,
                "pitch": 69,
                "velocity": 40,
                "duration": 0.13409090909090793,
                "tempo": 120.0
            },
            {
                "start_time": 44.36363636363636,
                "end_time": 44.49772727272727,
                "pitch": 64,
                "velocity": 40,
                "duration": 0.13409090909090793,
                "tempo": 120.0
            },
            {
                "start_time": 44.49772727272727,
                "end_time": 44.63181818181818,
                "pitch": 69,
                "velocity": 40,
                "duration": 0.13409090909091503,
                "tempo": 120.0
            },
            {
                "start_time": 44.63409090909091,
                "end_time": 44.76590909090909,
                "pitch": 69,
                "velocity": 40,
                "duration": 0.13181818181818272,
                "tempo": 120.0
            },
            {
                "start_time": 44.76590909090909,
                "end_time": 44.89772727272727,
                "pitch": 64,
                "velocity": 40,
                "duration": 0.13181818181818272,
                "tempo": 120.0
            },
            {
                "start_time": 44.9,
                "end_time": 45.03409090909091,
                "pitch": 69,
                "velocity": 40,
                "duration": 0.13409090909090793,
                "tempo": 120.0
            },
            {
                "start_time": 45.03636363636363,
                "end_time": 45.16590909090909,
                "pitch": 69,
                "velocity": 40,
                "duration": 0.12954545454545752,
                "tempo": 120.0
            },
            {
                "start_time": 45.168181818181814,
                "end_time": 45.3,
                "pitch": 64,
                "velocity": 40,
                "duration": 0.13181818181818272,
                "tempo": 120.0
            },
            {
                "start_time": 45.30227272727272,
                "end_time": 45.43181818181818,
                "pitch": 69,
                "velocity": 40,
                "duration": 0.12954545454545752,
                "tempo": 120.0
            },
            {
                "start_time": 45.434090909090905,
                "end_time": 45.56818181818181,
                "pitch": 69,
                "velocity": 40,
                "duration": 0.13409090909090793,
                "tempo": 120.0
            },
            {
                "start_time": 45.56818181818181,
                "end_time": 45.699999999999996,
                "pitch": 64,
                "velocity": 40,
                "duration": 0.13181818181818272,
                "tempo": 120.0
            },
            {
                "start_time": 45.70227272727273,
                "end_time": 45.834090909090904,
                "pitch": 69,
                "velocity": 40,
                "duration": 0.13181818181817562,
                "tempo": 120.0
            },
            {
                "start_time": 45.836363636363636,
                "end_time": 45.965909090909086,
                "pitch": 69,
                "velocity": 40,
                "duration": 0.1295454545454504,
                "tempo": 120.0
            },
            {
                "start_time": 45.96818181818182,
                "end_time": 46.099999999999994,
                "pitch": 64,
                "velocity": 40,
                "duration": 0.13181818181817562,
                "tempo": 120.0
            },
            {
                "start_time": 46.10227272727273,
                "end_time": 46.23409090909091,
                "pitch": 69,
                "velocity": 40,
                "duration": 0.13181818181818272,
                "tempo": 120.0
            },
            {
                "start_time": 46.236363636363635,
                "end_time": 46.37272727272727,
                "pitch": 69,
                "velocity": 40,
                "duration": 0.13636363636363313,
                "tempo": 120.0
            },
            {
                "start_time": 46.37272727272727,
                "end_time": 46.50909090909091,
                "pitch": 64,
                "velocity": 40,
                "duration": 0.13636363636364024,
                "tempo": 120.0
            },
            {
                "start_time": 46.50909090909091,
                "end_time": 46.64545454545454,
                "pitch": 69,
                "velocity": 40,
                "duration": 0.13636363636363313,
                "tempo": 120.0
            },
            {
                "start_time": 46.64772727272727,
                "end_time": 46.77954545454545,
                "pitch": 69,
                "velocity": 40,
                "duration": 0.13181818181817562,
                "tempo": 120.0
            },
            {
                "start_time": 46.77954545454545,
                "end_time": 46.91136363636363,
                "pitch": 64,
                "velocity": 40,
                "duration": 0.13181818181818272,
                "tempo": 120.0
            },
            {
                "start_time": 46.913636363636364,
                "end_time": 47.04545454545454,
                "pitch": 69,
                "velocity": 40,
                "duration": 0.13181818181817562,
                "tempo": 120.0
            },
            {
                "start_time": 47.04772727272727,
                "end_time": 47.179545454545455,
                "pitch": 69,
                "velocity": 40,
                "duration": 0.13181818181818272,
                "tempo": 120.0
            },
            {
                "start_time": 47.18181818181818,
                "end_time": 47.31363636363636,
                "pitch": 64,
                "velocity": 40,
                "duration": 0.13181818181818272,
                "tempo": 120.0
            },
            {
                "start_time": 47.31363636363636,
                "end_time": 47.445454545454545,
                "pitch": 69,
                "velocity": 40,
                "duration": 0.13181818181818272,
                "tempo": 120.0
            },
            {
                "start_time": 47.44772727272727,
                "end_time": 47.57954545454545,
                "pitch": 69,
                "velocity": 40,
                "duration": 0.13181818181818272,
                "tempo": 120.0
            },
            {
                "start_time": 47.58181818181818,
                "end_time": 47.715909090909086,
                "pitch": 64,
                "velocity": 40,
                "duration": 0.13409090909090793,
                "tempo": 120.0
            },
            {
                "start_time": 47.715909090909086,
                "end_time": 47.849999999999994,
                "pitch": 69,
                "velocity": 40,
                "duration": 0.13409090909090793,
                "tempo": 120.0
            },
            {
                "start_time": 47.849999999999994,
                "end_time": 47.98181818181818,
                "pitch": 69,
                "velocity": 40,
                "duration": 0.13181818181818272,
                "tempo": 120.0
            },
            {
                "start_time": 47.98409090909091,
                "end_time": 48.11590909090909,
                "pitch": 64,
                "velocity": 40,
                "duration": 0.13181818181818272,
                "tempo": 120.0
            },
            {
                "start_time": 48.11818181818182,
                "end_time": 48.25,
                "pitch": 69,
                "velocity": 40,
                "duration": 0.13181818181818272,
                "tempo": 120.0
            },
            {
                "start_time": 48.252272727272725,
                "end_time": 48.38409090909091,
                "pitch": 69,
                "velocity": 40,
                "duration": 0.13181818181818272,
                "tempo": 120.0
            },
            {
                "start_time": 48.38409090909091,
                "end_time": 48.518181818181816,
                "pitch": 64,
                "velocity": 40,
                "duration": 0.13409090909090793,
                "tempo": 120.0
            },
            {
                "start_time": 48.518181818181816,
                "end_time": 48.65,
                "pitch": 69,
                "velocity": 40,
                "duration": 0.13181818181818272,
                "tempo": 120.0
            },
            {
                "start_time": 48.652272727272724,
                "end_time": 48.78409090909091,
                "pitch": 69,
                "velocity": 40,
                "duration": 0.13181818181818272,
                "tempo": 120.0
            },
            {
                "start_time": 48.78636363636363,
                "end_time": 48.918181818181814,
                "pitch": 64,
                "velocity": 40,
                "duration": 0.13181818181818272,
                "tempo": 120.0
            },
            {
                "start_time": 48.918181818181814,
                "end_time": 49.05227272727272,
                "pitch": 69,
                "velocity": 40,
                "duration": 0.13409090909090793,
                "tempo": 120.0
            },
            {
                "start_time": 49.054545454545455,
                "end_time": 49.184090909090905,
                "pitch": 69,
                "velocity": 40,
                "duration": 0.1295454545454504,
                "tempo": 120.0
            },
            {
                "start_time": 49.18636363636364,
                "end_time": 49.31818181818181,
                "pitch": 64,
                "velocity": 40,
                "duration": 0.13181818181817562,
                "tempo": 120.0
            },
            {
                "start_time": 49.320454545454545,
                "end_time": 49.45227272727273,
                "pitch": 69,
                "velocity": 40,
                "duration": 0.13181818181818272,
                "tempo": 120.0
            },
            {
                "start_time": 49.45227272727273,
                "end_time": 49.586363636363636,
                "pitch": 69,
                "velocity": 40,
                "duration": 0.13409090909090793,
                "tempo": 120.0
            },
            {
                "start_time": 49.58863636363636,
                "end_time": 49.720454545454544,
                "pitch": 64,
                "velocity": 40,
                "duration": 0.13181818181818272,
                "tempo": 120.0
            },
            {
                "start_time": 49.72272727272727,
                "end_time": 49.85681818181818,
                "pitch": 69,
                "velocity": 40,
                "duration": 0.13409090909090793,
                "tempo": 120.0
            },
            {
                "start_time": 49.85681818181818,
                "end_time": 49.98863636363636,
                "pitch": 69,
                "velocity": 40,
                "duration": 0.13181818181818272,
                "tempo": 120.0
            },
            {
                "start_time": 49.990909090909085,
                "end_time": 50.12272727272727,
                "pitch": 64,
                "velocity": 40,
                "duration": 0.13181818181818272,
                "tempo": 120.0
            },
            {
                "start_time": 50.12272727272727,
                "end_time": 50.25454545454545,
                "pitch": 69,
                "velocity": 40,
                "duration": 0.13181818181818272,
                "tempo": 120.0
            },
            {
                "start_time": 50.25681818181818,
                "end_time": 50.38863636363636,
                "pitch": 69,
                "velocity": 40,
                "duration": 0.13181818181817562,
                "tempo": 120.0
            },
            {
                "start_time": 50.39090909090909,
                "end_time": 50.52272727272727,
                "pitch": 64,
                "velocity": 40,
                "duration": 0.13181818181818272,
                "tempo": 120.0
            },
            {
                "start_time": 50.52272727272727,
                "end_time": 50.65681818181818,
                "pitch": 69,
                "velocity": 40,
                "duration": 0.13409090909090793,
                "tempo": 120.0
            },
            {
                "start_time": 50.65681818181818,
                "end_time": 50.788636363636364,
                "pitch": 69,
                "velocity": 40,
                "duration": 0.13181818181818272,
                "tempo": 120.0
            },
            {
                "start_time": 50.79090909090909,
                "end_time": 50.92272727272727,
                "pitch": 64,
                "velocity": 40,
                "duration": 0.13181818181818272,
                "tempo": 120.0
            },
            {
                "start_time": 50.925,
                "end_time": 51.05681818181818,
                "pitch": 69,
                "velocity": 40,
                "duration": 0.13181818181818272,
                "tempo": 120.0
            },
            {
                "start_time": 51.05681818181818,
                "end_time": 51.19090909090909,
                "pitch": 69,
                "velocity": 40,
                "duration": 0.13409090909090793,
                "tempo": 120.0
            },
            {
                "start_time": 51.19090909090909,
                "end_time": 51.32272727272727,
                "pitch": 64,
                "velocity": 40,
                "duration": 0.13181818181818272,
                "tempo": 120.0
            },
            {
                "start_time": 51.324999999999996,
                "end_time": 51.459090909090904,
                "pitch": 69,
                "velocity": 40,
                "duration": 0.13409090909090793,
                "tempo": 120.0
            },
            {
                "start_time": 51.459090909090904,
                "end_time": 51.590909090909086,
                "pitch": 69,
                "velocity": 40,
                "duration": 0.13181818181818272,
                "tempo": 120.0
            },
            {
                "start_time": 51.59318181818182,
                "end_time": 51.724999999999994,
                "pitch": 64,
                "velocity": 40,
                "duration": 0.13181818181817562,
                "tempo": 120.0
            },
            {
                "start_time": 51.72727272727273,
                "end_time": 51.85909090909091,
                "pitch": 69,
                "velocity": 40,
                "duration": 0.13181818181818272,
                "tempo": 120.0
            },
            {
                "start_time": 51.861363636363635,
                "end_time": 51.99318181818182,
                "pitch": 69,
                "velocity": 40,
                "duration": 0.13181818181818272,
                "tempo": 120.0
            },
            {
                "start_time": 51.99545454545454,
                "end_time": 52.127272727272725,
                "pitch": 64,
                "velocity": 40,
                "duration": 0.13181818181818272,
                "tempo": 120.0
            },
            {
                "start_time": 52.12954545454545,
                "end_time": 52.26136363636363,
                "pitch": 69,
                "velocity": 40,
                "duration": 0.13181818181818272,
                "tempo": 120.0
            },
            {
                "start_time": 52.26363636363636,
                "end_time": 52.393181818181816,
                "pitch": 69,
                "velocity": 40,
                "duration": 0.12954545454545752,
                "tempo": 120.0
            },
            {
                "start_time": 52.39545454545454,
                "end_time": 52.52954545454545,
                "pitch": 64,
                "velocity": 40,
                "duration": 0.13409090909090793,
                "tempo": 120.0
            },
            {
                "start_time": 52.52954545454545,
                "end_time": 52.66136363636363,
                "pitch": 69,
                "velocity": 40,
                "duration": 0.13181818181818272,
                "tempo": 120.0
            },
            {
                "start_time": 52.66136363636363,
                "end_time": 52.79545454545454,
                "pitch": 69,
                "velocity": 40,
                "duration": 0.13409090909090793,
                "tempo": 120.0
            },
            {
                "start_time": 52.79772727272727,
                "end_time": 52.92727272727272,
                "pitch": 64,
                "velocity": 40,
                "duration": 0.1295454545454504,
                "tempo": 120.0
            },
            {
                "start_time": 52.929545454545455,
                "end_time": 53.06363636363636,
                "pitch": 69,
                "velocity": 40,
                "duration": 0.13409090909090793,
                "tempo": 120.0
            },
            {
                "start_time": 53.06363636363636,
                "end_time": 53.195454545454545,
                "pitch": 69,
                "velocity": 40,
                "duration": 0.13181818181818272,
                "tempo": 120.0
            },
            {
                "start_time": 53.195454545454545,
                "end_time": 53.32954545454545,
                "pitch": 64,
                "velocity": 40,
                "duration": 0.13409090909090793,
                "tempo": 120.0
            },
            {
                "start_time": 53.32954545454545,
                "end_time": 53.461363636363636,
                "pitch": 69,
                "velocity": 40,
                "duration": 0.13181818181818272,
                "tempo": 120.0
            },
            {
                "start_time": 53.46363636363636,
                "end_time": 53.599999999999994,
                "pitch": 69,
                "velocity": 40,
                "duration": 0.13636363636363313,
                "tempo": 120.0
            },
            {
                "start_time": 53.599999999999994,
                "end_time": 53.736363636363635,
                "pitch": 64,
                "velocity": 40,
                "duration": 0.13636363636364024,
                "tempo": 120.0
            },
            {
                "start_time": 53.73863636363636,
                "end_time": 53.87272727272727,
                "pitch": 69,
                "velocity": 40,
                "duration": 0.13409090909090793,
                "tempo": 120.0
            },
            {
                "start_time": 53.875,
                "end_time": 54.00454545454545,
                "pitch": 69,
                "velocity": 40,
                "duration": 0.1295454545454504,
                "tempo": 120.0
            },
            {
                "start_time": 54.00454545454545,
                "end_time": 54.13409090909091,
                "pitch": 64,
                "velocity": 40,
                "duration": 0.12954545454545752,
                "tempo": 120.0
            },
            {
                "start_time": 54.13636363636363,
                "end_time": 54.26590909090909,
                "pitch": 69,
                "velocity": 40,
                "duration": 0.12954545454545752,
                "tempo": 120.0
            },
            {
                "start_time": 54.268181818181816,
                "end_time": 54.402272727272724,
                "pitch": 69,
                "velocity": 40,
                "duration": 0.13409090909090793,
                "tempo": 120.0
            },
            {
                "start_time": 54.40454545454545,
                "end_time": 54.54090909090909,
                "pitch": 64,
                "velocity": 40,
                "duration": 0.13636363636364024,
                "tempo": 120.0
            },
            {
                "start_time": 54.54090909090909,
                "end_time": 54.679545454545455,
                "pitch": 69,
                "velocity": 40,
                "duration": 0.13863636363636545,
                "tempo": 120.0
            },
            {
                "start_time": 54.679545454545455,
                "end_time": 54.81136363636363,
                "pitch": 69,
                "velocity": 40,
                "duration": 0.13181818181817562,
                "tempo": 120.0
            },
            {
                "start_time": 54.81136363636363,
                "end_time": 54.945454545454545,
                "pitch": 64,
                "velocity": 40,
                "duration": 0.13409090909091503,
                "tempo": 120.0
            },
            {
                "start_time": 54.945454545454545,
                "end_time": 55.07727272727273,
                "pitch": 69,
                "velocity": 40,
                "duration": 0.13181818181818272,
                "tempo": 120.0
            },
            {
                "start_time": 55.07954545454545,
                "end_time": 55.211363636363636,
                "pitch": 69,
                "velocity": 40,
                "duration": 0.13181818181818272,
                "tempo": 120.0
            },
            {
                "start_time": 55.21363636363636,
                "end_time": 55.34772727272727,
                "pitch": 64,
                "velocity": 40,
                "duration": 0.13409090909090793,
                "tempo": 120.0
            },
            {
                "start_time": 55.34772727272727,
                "end_time": 55.48181818181818,
                "pitch": 69,
                "velocity": 40,
                "duration": 0.13409090909090793,
                "tempo": 120.0
            },
            {
                "start_time": 55.48181818181818,
                "end_time": 55.61363636363636,
                "pitch": 69,
                "velocity": 40,
                "duration": 0.13181818181818272,
                "tempo": 120.0
            },
            {
                "start_time": 55.615909090909085,
                "end_time": 55.74772727272727,
                "pitch": 64,
                "velocity": 40,
                "duration": 0.13181818181818272,
                "tempo": 120.0
            },
            {
                "start_time": 55.75,
                "end_time": 55.881818181818176,
                "pitch": 69,
                "velocity": 40,
                "duration": 0.13181818181817562,
                "tempo": 120.0
            },
            {
                "start_time": 55.88409090909091,
                "end_time": 56.01590909090909,
                "pitch": 69,
                "velocity": 40,
                "duration": 0.13181818181818272,
                "tempo": 120.0
            },
            {
                "start_time": 56.01590909090909,
                "end_time": 56.14772727272727,
                "pitch": 64,
                "velocity": 40,
                "duration": 0.13181818181818272,
                "tempo": 120.0
            },
            {
                "start_time": 56.15,
                "end_time": 56.28409090909091,
                "pitch": 69,
                "velocity": 40,
                "duration": 0.13409090909090793,
                "tempo": 120.0
            },
            {
                "start_time": 56.28409090909091,
                "end_time": 56.41590909090909,
                "pitch": 69,
                "velocity": 40,
                "duration": 0.13181818181818272,
                "tempo": 120.0
            },
            {
                "start_time": 56.41590909090909,
                "end_time": 56.55,
                "pitch": 64,
                "velocity": 40,
                "duration": 0.13409090909090793,
                "tempo": 120.0
            },
            {
                "start_time": 56.55,
                "end_time": 56.68181818181818,
                "pitch": 69,
                "velocity": 40,
                "duration": 0.13181818181818272,
                "tempo": 120.0
            },
            {
                "start_time": 56.684090909090905,
                "end_time": 56.81590909090909,
                "pitch": 69,
                "velocity": 40,
                "duration": 0.13181818181818272,
                "tempo": 120.0
            },
            {
                "start_time": 56.81818181818181,
                "end_time": 56.949999999999996,
                "pitch": 64,
                "velocity": 40,
                "duration": 0.13181818181818272,
                "tempo": 120.0
            },
            {
                "start_time": 56.949999999999996,
                "end_time": 57.08181818181818,
                "pitch": 69,
                "velocity": 40,
                "duration": 0.13181818181818272,
                "tempo": 120.0
            },
            {
                "start_time": 57.084090909090904,
                "end_time": 57.21818181818182,
                "pitch": 69,
                "velocity": 40,
                "duration": 0.13409090909091503,
                "tempo": 120.0
            },
            {
                "start_time": 57.21818181818182,
                "end_time": 57.35227272727273,
                "pitch": 64,
                "velocity": 40,
                "duration": 0.13409090909090793,
                "tempo": 120.0
            },
            {
                "start_time": 57.35227272727273,
                "end_time": 57.486363636363635,
                "pitch": 69,
                "velocity": 40,
                "duration": 0.13409090909090793,
                "tempo": 120.0
            },
            {
                "start_time": 57.48863636363636,
                "end_time": 57.62045454545454,
                "pitch": 69,
                "velocity": 40,
                "duration": 0.13181818181818272,
                "tempo": 120.0
            },
            {
                "start_time": 57.62045454545454,
                "end_time": 57.752272727272725,
                "pitch": 64,
                "velocity": 40,
                "duration": 0.13181818181818272,
                "tempo": 120.0
            },
            {
                "start_time": 57.75454545454545,
                "end_time": 57.88636363636363,
                "pitch": 69,
                "velocity": 40,
                "duration": 0.13181818181818272,
                "tempo": 120.0
            },
            {
                "start_time": 57.88863636363636,
                "end_time": 58.02045454545454,
                "pitch": 69,
                "velocity": 40,
                "duration": 0.13181818181818272,
                "tempo": 120.0
            },
            {
                "start_time": 58.02272727272727,
                "end_time": 58.15454545454545,
                "pitch": 64,
                "velocity": 40,
                "duration": 0.13181818181817562,
                "tempo": 120.0
            },
            {
                "start_time": 58.15454545454545,
                "end_time": 58.28636363636363,
                "pitch": 69,
                "velocity": 40,
                "duration": 0.13181818181818272,
                "tempo": 120.0
            },
            {
                "start_time": 58.288636363636364,
                "end_time": 58.42045454545454,
                "pitch": 69,
                "velocity": 40,
                "duration": 0.13181818181817562,
                "tempo": 120.0
            },
            {
                "start_time": 58.42272727272727,
                "end_time": 58.554545454545455,
                "pitch": 64,
                "velocity": 40,
                "duration": 0.13181818181818272,
                "tempo": 120.0
            },
            {
                "start_time": 58.554545454545455,
                "end_time": 58.68863636363636,
                "pitch": 69,
                "velocity": 40,
                "duration": 0.13409090909090793,
                "tempo": 120.0
            },
            {
                "start_time": 58.68863636363636,
                "end_time": 58.820454545454545,
                "pitch": 69,
                "velocity": 40,
                "duration": 0.13181818181818272,
                "tempo": 120.0
            },
            {
                "start_time": 58.82272727272727,
                "end_time": 58.95454545454545,
                "pitch": 64,
                "velocity": 40,
                "duration": 0.13181818181818272,
                "tempo": 120.0
            },
            {
                "start_time": 58.95681818181818,
                "end_time": 59.08863636363636,
                "pitch": 69,
                "velocity": 40,
                "duration": 0.13181818181818272,
                "tempo": 120.0
            },
            {
                "start_time": 59.090909090909086,
                "end_time": 59.22272727272727,
                "pitch": 69,
                "velocity": 40,
                "duration": 0.13181818181818272,
                "tempo": 120.0
            },
            {
                "start_time": 59.224999999999994,
                "end_time": 59.35681818181818,
                "pitch": 64,
                "velocity": 40,
                "duration": 0.13181818181818272,
                "tempo": 120.0
            },
            {
                "start_time": 59.35909090909091,
                "end_time": 59.490909090909085,
                "pitch": 69,
                "velocity": 40,
                "duration": 0.13181818181817562,
                "tempo": 120.0
            },
            {
                "start_time": 59.506818181818176,
                "end_time": 59.627272727272725,
                "pitch": 69,
                "velocity": 51,
                "duration": 0.12045454545454959,
                "tempo": 120.0
            },
            {
                "start_time": 59.62954545454545,
                "end_time": 59.76363636363636,
                "pitch": 64,
                "velocity": 51,
                "duration": 0.13409090909090793,
                "tempo": 120.0
            }
        ]
    }
}