{
    "track_id": "06 - Game de check! Koutsuu Anzen (FM) - Risk Control",
    "mood": "happy",
    "instruments": {
        "Acoustic Grand Piano": [
            {
                "start_time": 0.3840909090909091,
                "end_time": 0.6931818181818181,
                "pitch": 55,
                "velocity": 40,
                "duration": 0.309090909090909,
                "tempo": 120.0
            },
            {
                "start_time": 1.1977272727272728,
                "end_time": 1.9659090909090908,
                "pitch": 50,
                "velocity": 40,
                "duration": 0.7681818181818181,
                "tempo": 120.0
            },
            {
                "start_time": 1.9818181818181817,
                "end_time": 2.340909090909091,
                "pitch": 53,
                "velocity": 40,
                "duration": 0.3590909090909091,
                "tempo": 120.0
            },
            {
                "start_time": 2.784090909090909,
                "end_time": 3.5818181818181816,
                "pitch": 55,
                "velocity": 40,
                "duration": 0.7977272727272724,
                "tempo": 120.0
            },
            {
                "start_time": 3.5977272727272727,
                "end_time": 3.9477272727272728,
                "pitch": 55,
                "velocity": 40,
                "duration": 0.3500000000000001,
                "tempo": 120.0
            },
            {
                "start_time": 4.388636363636364,
                "end_time": 5.1863636363636365,
                "pitch": 55,
                "velocity": 40,
                "duration": 0.7977272727272728,
                "tempo": 120.0
            },
            {
                "start_time": 5.202272727272727,
                "end_time": 5.9795454545454545,
                "pitch": 53,
                "velocity": 40,
                "duration": 0.7772727272727273,
                "tempo": 120.0
            },
            {
                "start_time": 5.995454545454545,
                "end_time": 6.788636363636363,
                "pitch": 55,
                "velocity": 40,
                "duration": 0.793181818181818,
                "tempo": 120.0
            },
            {
                "start_time": 6.806818181818182,
                "end_time": 7.584090909090909,
                "pitch": 55,
                "velocity": 40,
                "duration": 0.7772727272727273,
                "tempo": 120.0
            },
            {
                "start_time": 7.602272727272727,
                "end_time": 8.397727272727272,
                "pitch": 56,
                "velocity": 40,
                "duration": 0.795454545454545,
                "tempo": 120.0
            },
            {
                "start_time": 8.413636363636364,
                "end_time": 9.193181818181818,
                "pitch": 57,
                "velocity": 40,
                "duration": 0.7795454545454543,
                "tempo": 120.0
            },
            {
                "start_time": 9.209090909090909,
                "end_time": 10.006818181818181,
                "pitch": 58,
                "velocity": 40,
                "duration": 0.797727272727272,
                "tempo": 120.0
            },
            {
                "start_time": 10.022727272727272,
                "end_time": 10.802272727272726,
                "pitch": 60,
                "velocity": 40,
                "duration": 0.7795454545454543,
                "tempo": 120.0
            },
            {
                "start_time": 10.818181818181818,
                "end_time": 11.177272727272726,
                "pitch": 58,
                "velocity": 40,
                "duration": 0.3590909090909076,
                "tempo": 120.0
            },
            {
                "start_time": 12.427272727272726,
                "end_time": 12.809090909090909,
                "pitch": 55,
                "velocity": 40,
                "duration": 0.3818181818181827,
                "tempo": 120.0
            }
        ],
        "Electric Guitar (clean)": [
            {
                "start_time": 0.0,
                "end_time": 0.3659090909090909,
                "pitch": 51,
                "velocity": 51,
                "duration": 0.3659090909090909,
                "tempo": 120.0
            },
            {
                "start_time": 0.3840909090909091,
                "end_time": 0.759090909090909,
                "pitch": 58,
                "velocity": 51,
                "duration": 0.37499999999999994,
                "tempo": 120.0
            },
            {
                "start_time": 0.7749999999999999,
                "end_time": 1.1795454545454545,
                "pitch": 46,
                "velocity": 51,
                "duration": 0.40454545454545454,
                "tempo": 120.0
            },
            {
                "start_time": 1.1977272727272728,
                "end_time": 1.5727272727272728,
                "pitch": 53,
                "velocity": 51,
                "duration": 0.375,
                "tempo": 120.0
            },
            {
                "start_time": 1.5886363636363636,
                "end_time": 1.9659090909090908,
                "pitch": 46,
                "velocity": 51,
                "duration": 0.3772727272727272,
                "tempo": 120.0
            },
            {
                "start_time": 1.9818181818181817,
                "end_time": 2.375,
                "pitch": 56,
                "velocity": 51,
                "duration": 0.3931818181818183,
                "tempo": 120.0
            },
            {
                "start_time": 2.3909090909090907,
                "end_time": 2.768181818181818,
                "pitch": 51,
                "velocity": 51,
                "duration": 0.3772727272727274,
                "tempo": 120.0
            },
            {
                "start_time": 2.784090909090909,
                "end_time": 3.1772727272727272,
                "pitch": 58,
                "velocity": 51,
                "duration": 0.3931818181818181,
                "tempo": 120.0
            },
            {
                "start_time": 3.1954545454545453,
                "end_time": 3.5818181818181816,
                "pitch": 51,
                "velocity": 51,
                "duration": 0.38636363636363624,
                "tempo": 120.0
            },
            {
                "start_time": 3.5977272727272727,
                "end_time": 3.9818181818181815,
                "pitch": 58,
                "velocity": 51,
                "duration": 0.3840909090909088,
                "tempo": 120.0
            },
            {
                "start_time": 3.9977272727272726,
                "end_time": 4.372727272727272,
                "pitch": 51,
                "velocity": 51,
                "duration": 0.37499999999999956,
                "tempo": 120.0
            },
            {
                "start_time": 4.388636363636364,
                "end_time": 4.784090909090909,
                "pitch": 58,
                "velocity": 51,
                "duration": 0.3954545454545455,
                "tempo": 120.0
            },
            {
                "start_time": 4.8,
                "end_time": 5.1863636363636365,
                "pitch": 46,
                "velocity": 51,
                "duration": 0.3863636363636367,
                "tempo": 120.0
            },
            {
                "start_time": 5.202272727272727,
                "end_time": 5.586363636363636,
                "pitch": 56,
                "velocity": 51,
                "duration": 0.3840909090909088,
                "tempo": 120.0
            },
            {
                "start_time": 5.602272727272727,
                "end_time": 5.9795454545454545,
                "pitch": 51,
                "velocity": 51,
                "duration": 0.37727272727272787,
                "tempo": 120.0
            },
            {
                "start_time": 5.995454545454545,
                "end_time": 6.388636363636364,
                "pitch": 58,
                "velocity": 51,
                "duration": 0.3931818181818185,
                "tempo": 120.0
            },
            {
                "start_time": 6.406818181818181,
                "end_time": 6.788636363636363,
                "pitch": 51,
                "velocity": 51,
                "duration": 0.38181818181818183,
                "tempo": 120.0
            },
            {
                "start_time": 6.806818181818182,
                "end_time": 7.181818181818182,
                "pitch": 58,
                "velocity": 51,
                "duration": 0.375,
                "tempo": 120.0
            },
            {
                "start_time": 7.197727272727272,
                "end_time": 7.584090909090909,
                "pitch": 51,
                "velocity": 51,
                "duration": 0.3863636363636367,
                "tempo": 120.0
            },
            {
                "start_time": 7.602272727272727,
                "end_time": 7.995454545454545,
                "pitch": 60,
                "velocity": 51,
                "duration": 0.3931818181818185,
                "tempo": 120.0
            },
            {
                "start_time": 8.011363636363637,
                "end_time": 8.397727272727272,
                "pitch": 51,
                "velocity": 51,
                "duration": 0.3863636363636349,
                "tempo": 120.0
            },
            {
                "start_time": 8.413636363636364,
                "end_time": 8.790909090909091,
                "pitch": 60,
                "velocity": 51,
                "duration": 0.377272727272727,
                "tempo": 120.0
            },
            {
                "start_time": 8.806818181818182,
                "end_time": 9.193181818181818,
                "pitch": 53,
                "velocity": 51,
                "duration": 0.3863636363636367,
                "tempo": 120.0
            },
            {
                "start_time": 9.209090909090909,
                "end_time": 9.595454545454546,
                "pitch": 62,
                "velocity": 51,
                "duration": 0.3863636363636367,
                "tempo": 120.0
            },
            {
                "start_time": 9.611363636363636,
                "end_time": 10.006818181818181,
                "pitch": 56,
                "velocity": 51,
                "duration": 0.3954545454545446,
                "tempo": 120.0
            },
            {
                "start_time": 10.022727272727272,
                "end_time": 10.409090909090908,
                "pitch": 63,
                "velocity": 51,
                "duration": 0.3863636363636367,
                "tempo": 120.0
            },
            {
                "start_time": 10.424999999999999,
                "end_time": 10.802272727272726,
                "pitch": 55,
                "velocity": 51,
                "duration": 0.377272727272727,
                "tempo": 120.0
            },
            {
                "start_time": 10.818181818181818,
                "end_time": 11.211363636363636,
                "pitch": 63,
                "velocity": 51,
                "duration": 0.39318181818181763,
                "tempo": 120.0
            },
            {
                "start_time": 11.229545454545454,
                "end_time": 11.613636363636363,
                "pitch": 50,
                "velocity": 51,
                "duration": 0.3840909090909097,
                "tempo": 120.0
            },
            {
                "start_time": 11.631818181818181,
                "end_time": 12.006818181818181,
                "pitch": 46,
                "velocity": 51,
                "duration": 0.375,
                "tempo": 120.0
            },
            {
                "start_time": 12.022727272727272,
                "end_time": 12.409090909090908,
                "pitch": 51,
                "velocity": 51,
                "duration": 0.3863636363636367,
                "tempo": 120.0
            },
            {
                "start_time": 12.427272727272726,
                "end_time": 12.809090909090909,
                "pitch": 58,
                "velocity": 51,
                "duration": 0.3818181818181827,
                "tempo": 120.0
            }
        ]
    }
}