{
    "track_id": "06 Beyond the Dimension",
    "mood": "happy",
    "instruments": {
        "Acoustic Bass": [
            {
                "start_time": 0.03636363636363636,
                "end_time": 0.23409090909090907,
                "pitch": 31,
                "velocity": 80,
                "duration": 0.1977272727272727,
                "tempo": 120.0
            },
            {
                "start_time": 0.23409090909090907,
                "end_time": 0.4340909090909091,
                "pitch": 31,
                "velocity": 80,
                "duration": 0.2,
                "tempo": 120.0
            },
            {
                "start_time": 0.4340909090909091,
                "end_time": 0.634090909090909,
                "pitch": 31,
                "velocity": 80,
                "duration": 0.19999999999999996,
                "tempo": 120.0
            },
            {
                "start_time": 0.634090909090909,
                "end_time": 0.8340909090909091,
                "pitch": 31,
                "velocity": 80,
                "duration": 0.20000000000000007,
                "tempo": 120.0
            },
            {
                "start_time": 0.8363636363636363,
                "end_time": 1.034090909090909,
                "pitch": 31,
                "velocity": 80,
                "duration": 0.19772727272727264,
                "tempo": 120.0
            },
            {
                "start_time": 1.034090909090909,
                "end_time": 1.2340909090909091,
                "pitch": 31,
                "velocity": 80,
                "duration": 0.20000000000000018,
                "tempo": 120.0
            },
            {
                "start_time": 1.2363636363636363,
                "end_time": 1.434090909090909,
                "pitch": 31,
                "velocity": 80,
                "duration": 0.19772727272727275,
                "tempo": 120.0
            },
            {
                "start_time": 1.4363636363636363,
                "end_time": 1.6363636363636362,
                "pitch": 31,
                "velocity": 80,
                "duration": 0.19999999999999996,
                "tempo": 120.0
            },
            {
                "start_time": 1.6363636363636362,
                "end_time": 1.8363636363636362,
                "pitch": 31,
                "velocity": 80,
                "duration": 0.19999999999999996,
                "tempo": 120.0
            },
            {
                "start_time": 1.8363636363636362,
                "end_time": 2.036363636363636,
                "pitch": 31,
                "velocity": 80,
                "duration": 0.19999999999999996,
                "tempo": 120.0
            },
            {
                "start_time": 2.0386363636363636,
                "end_time": 2.2386363636363633,
                "pitch": 31,
                "velocity": 80,
                "duration": 0.19999999999999973,
                "tempo": 120.0
            },
            {
                "start_time": 2.2386363636363633,
                "end_time": 2.4386363636363635,
                "pitch": 31,
                "velocity": 80,
                "duration": 0.20000000000000018,
                "tempo": 120.0
            },
            {
                "start_time": 2.440909090909091,
                "end_time": 2.6386363636363637,
                "pitch": 31,
                "velocity": 80,
                "duration": 0.19772727272727275,
                "tempo": 120.0
            },
            {
                "start_time": 2.6386363636363637,
                "end_time": 2.8454545454545452,
                "pitch": 31,
                "velocity": 80,
                "duration": 0.20681818181818157,
                "tempo": 120.0
            },
            {
                "start_time": 2.8454545454545452,
                "end_time": 3.05,
                "pitch": 31,
                "velocity": 80,
                "duration": 0.20454545454545459,
                "tempo": 120.0
            },
            {
                "start_time": 3.05,
                "end_time": 3.252272727272727,
                "pitch": 31,
                "velocity": 80,
                "duration": 0.20227272727272716,
                "tempo": 120.0
            },
            {
                "start_time": 3.252272727272727,
                "end_time": 3.4499999999999997,
                "pitch": 35,
                "velocity": 80,
                "duration": 0.19772727272727275,
                "tempo": 120.0
            },
            {
                "start_time": 3.452272727272727,
                "end_time": 3.652272727272727,
                "pitch": 35,
                "velocity": 80,
                "duration": 0.19999999999999973,
                "tempo": 120.0
            },
            {
                "start_time": 3.652272727272727,
                "end_time": 3.852272727272727,
                "pitch": 35,
                "velocity": 80,
                "duration": 0.20000000000000018,
                "tempo": 120.0
            },
            {
                "start_time": 3.852272727272727,
                "end_time": 4.052272727272727,
                "pitch": 35,
                "velocity": 80,
                "duration": 0.19999999999999973,
                "tempo": 120.0
            },
            {
                "start_time": 4.052272727272727,
                "end_time": 4.252272727272727,
                "pitch": 35,
                "velocity": 80,
                "duration": 0.20000000000000018,
                "tempo": 120.0
            },
            {
                "start_time": 4.252272727272727,
                "end_time": 4.454545454545454,
                "pitch": 35,
                "velocity": 80,
                "duration": 0.20227272727272716,
                "tempo": 120.0
            },
            {
                "start_time": 4.454545454545454,
                "end_time": 4.654545454545454,
                "pitch": 35,
                "velocity": 80,
                "duration": 0.20000000000000018,
                "tempo": 120.0
            },
            {
                "start_time": 4.656818181818181,
                "end_time": 4.8568181818181815,
                "pitch": 35,
                "velocity": 80,
                "duration": 0.20000000000000018,
                "tempo": 120.0
            },
            {
                "start_time": 4.8568181818181815,
                "end_time": 5.054545454545455,
                "pitch": 35,
                "velocity": 80,
                "duration": 0.1977272727272732,
                "tempo": 120.0
            },
            {
                "start_time": 5.056818181818182,
                "end_time": 5.256818181818182,
                "pitch": 35,
                "velocity": 80,
                "duration": 0.20000000000000018,
                "tempo": 120.0
            },
            {
                "start_time": 5.259090909090909,
                "end_time": 5.459090909090909,
                "pitch": 35,
                "velocity": 80,
                "duration": 0.20000000000000018,
                "tempo": 120.0
            },
            {
                "start_time": 5.459090909090909,
                "end_time": 5.661363636363636,
                "pitch": 35,
                "velocity": 80,
                "duration": 0.20227272727272716,
                "tempo": 120.0
            },
            {
                "start_time": 5.661363636363636,
                "end_time": 5.861363636363636,
                "pitch": 35,
                "velocity": 80,
                "duration": 0.20000000000000018,
                "tempo": 120.0
            },
            {
                "start_time": 5.863636363636363,
                "end_time": 6.0636363636363635,
                "pitch": 35,
                "velocity": 80,
                "duration": 0.20000000000000018,
                "tempo": 120.0
            },
            {
                "start_time": 6.0636363636363635,
                "end_time": 6.263636363636364,
                "pitch": 35,
                "velocity": 80,
                "duration": 0.20000000000000018,
                "tempo": 120.0
            },
            {
                "start_time": 6.263636363636364,
                "end_time": 6.465909090909091,
                "pitch": 35,
                "velocity": 80,
                "duration": 0.20227272727272716,
                "tempo": 120.0
            },
            {
                "start_time": 6.465909090909091,
                "end_time": 6.665909090909091,
                "pitch": 36,
                "velocity": 80,
                "duration": 0.20000000000000018,
                "tempo": 120.0
            },
            {
                "start_time": 6.665909090909091,
                "end_time": 6.86590909090909,
                "pitch": 36,
                "velocity": 80,
                "duration": 0.1999999999999993,
                "tempo": 120.0
            },
            {
                "start_time": 6.868181818181818,
                "end_time": 7.0659090909090905,
                "pitch": 36,
                "velocity": 80,
                "duration": 0.1977272727272723,
                "tempo": 120.0
            },
            {
                "start_time": 7.0681818181818175,
                "end_time": 7.268181818181818,
                "pitch": 36,
                "velocity": 80,
                "duration": 0.20000000000000018,
                "tempo": 120.0
            },
            {
                "start_time": 7.268181818181818,
                "end_time": 7.470454545454545,
                "pitch": 36,
                "velocity": 80,
                "duration": 0.20227272727272716,
                "tempo": 120.0
            },
            {
                "start_time": 7.470454545454545,
                "end_time": 7.672727272727272,
                "pitch": 36,
                "velocity": 80,
                "duration": 0.20227272727272716,
                "tempo": 120.0
            },
            {
                "start_time": 7.672727272727272,
                "end_time": 7.872727272727272,
                "pitch": 36,
                "velocity": 80,
                "duration": 0.20000000000000018,
                "tempo": 120.0
            },
            {
                "start_time": 7.872727272727272,
                "end_time": 8.072727272727272,
                "pitch": 36,
                "velocity": 80,
                "duration": 0.20000000000000018,
                "tempo": 120.0
            },
            {
                "start_time": 8.075,
                "end_time": 8.272727272727272,
                "pitch": 36,
                "velocity": 80,
                "duration": 0.1977272727272723,
                "tempo": 120.0
            },
            {
                "start_time": 8.275,
                "end_time": 8.475,
                "pitch": 36,
                "velocity": 80,
                "duration": 0.1999999999999993,
                "tempo": 120.0
            },
            {
                "start_time": 8.477272727272727,
                "end_time": 8.677272727272728,
                "pitch": 36,
                "velocity": 80,
                "duration": 0.20000000000000107,
                "tempo": 120.0
            },
            {
                "start_time": 8.677272727272728,
                "end_time": 8.879545454545454,
                "pitch": 36,
                "velocity": 80,
                "duration": 0.20227272727272627,
                "tempo": 120.0
            },
            {
                "start_time": 8.879545454545454,
                "end_time": 9.079545454545453,
                "pitch": 36,
                "velocity": 80,
                "duration": 0.1999999999999993,
                "tempo": 120.0
            },
            {
                "start_time": 9.079545454545453,
                "end_time": 9.279545454545454,
                "pitch": 36,
                "velocity": 80,
                "duration": 0.20000000000000107,
                "tempo": 120.0
            },
            {
                "start_time": 9.281818181818181,
                "end_time": 9.479545454545454,
                "pitch": 36,
                "velocity": 80,
                "duration": 0.1977272727272723,
                "tempo": 120.0
            },
            {
                "start_time": 9.48181818181818,
                "end_time": 9.681818181818182,
                "pitch": 36,
                "velocity": 80,
                "duration": 0.20000000000000107,
                "tempo": 120.0
            },
            {
                "start_time": 9.684090909090909,
                "end_time": 9.884090909090908,
                "pitch": 33,
                "velocity": 80,
                "duration": 0.1999999999999993,
                "tempo": 120.0
            },
            {
                "start_time": 9.884090909090908,
                "end_time": 10.088636363636363,
                "pitch": 33,
                "velocity": 80,
                "duration": 0.20454545454545503,
                "tempo": 120.0
            },
            {
                "start_time": 10.09090909090909,
                "end_time": 10.295454545454545,
                "pitch": 33,
                "velocity": 80,
                "duration": 0.20454545454545503,
                "tempo": 120.0
            },
            {
                "start_time": 10.295454545454545,
                "end_time": 10.49090909090909,
                "pitch": 33,
                "velocity": 80,
                "duration": 0.19545454545454533,
                "tempo": 120.0
            },
            {
                "start_time": 10.493181818181817,
                "end_time": 10.686363636363636,
                "pitch": 33,
                "velocity": 80,
                "duration": 0.19318181818181834,
                "tempo": 120.0
            },
            {
                "start_time": 10.688636363636363,
                "end_time": 10.893181818181818,
                "pitch": 33,
                "velocity": 80,
                "duration": 0.20454545454545503,
                "tempo": 120.0
            },
            {
                "start_time": 10.893181818181818,
                "end_time": 11.097727272727273,
                "pitch": 33,
                "velocity": 80,
                "duration": 0.20454545454545503,
                "tempo": 120.0
            },
            {
                "start_time": 11.1,
                "end_time": 11.302272727272726,
                "pitch": 33,
                "velocity": 80,
                "duration": 0.20227272727272627,
                "tempo": 120.0
            },
            {
                "start_time": 11.302272727272726,
                "end_time": 11.502272727272727,
                "pitch": 29,
                "velocity": 80,
                "duration": 0.20000000000000107,
                "tempo": 120.0
            },
            {
                "start_time": 11.502272727272727,
                "end_time": 11.702272727272726,
                "pitch": 29,
                "velocity": 80,
                "duration": 0.1999999999999993,
                "tempo": 120.0
            },
            {
                "start_time": 11.702272727272726,
                "end_time": 11.902272727272727,
                "pitch": 29,
                "velocity": 80,
                "duration": 0.20000000000000107,
                "tempo": 120.0
            },
            {
                "start_time": 11.902272727272727,
                "end_time": 12.104545454545454,
                "pitch": 29,
                "velocity": 80,
                "duration": 0.20227272727272627,
                "tempo": 120.0
            },
            {
                "start_time": 12.104545454545454,
                "end_time": 12.304545454545455,
                "pitch": 26,
                "velocity": 80,
                "duration": 0.20000000000000107,
                "tempo": 120.0
            },
            {
                "start_time": 12.306818181818182,
                "end_time": 12.506818181818181,
                "pitch": 26,
                "velocity": 80,
                "duration": 0.1999999999999993,
                "tempo": 120.0
            },
            {
                "start_time": 12.509090909090908,
                "end_time": 12.709090909090909,
                "pitch": 26,
                "velocity": 80,
                "duration": 0.20000000000000107,
                "tempo": 120.0
            },
            {
                "start_time": 12.709090909090909,
                "end_time": 12.911363636363635,
                "pitch": 26,
                "velocity": 80,
                "duration": 0.20227272727272627,
                "tempo": 120.0
            },
            {
                "start_time": 12.911363636363635,
                "end_time": 13.111363636363636,
                "pitch": 31,
                "velocity": 80,
                "duration": 0.20000000000000107,
                "tempo": 120.0
            },
            {
                "start_time": 13.113636363636363,
                "end_time": 13.313636363636363,
                "pitch": 31,
                "velocity": 80,
                "duration": 0.1999999999999993,
                "tempo": 120.0
            },
            {
                "start_time": 13.31590909090909,
                "end_time": 13.51590909090909,
                "pitch": 31,
                "velocity": 80,
                "duration": 0.20000000000000107,
                "tempo": 120.0
            },
            {
                "start_time": 13.51590909090909,
                "end_time": 13.71590909090909,
                "pitch": 31,
                "velocity": 80,
                "duration": 0.1999999999999993,
                "tempo": 120.0
            },
            {
                "start_time": 13.71590909090909,
                "end_time": 13.915909090909091,
                "pitch": 31,
                "velocity": 80,
                "duration": 0.20000000000000107,
                "tempo": 120.0
            },
            {
                "start_time": 13.915909090909091,
                "end_time": 14.118181818181817,
                "pitch": 31,
                "velocity": 80,
                "duration": 0.20227272727272627,
                "tempo": 120.0
            },
            {
                "start_time": 14.118181818181817,
                "end_time": 14.318181818181818,
                "pitch": 31,
                "velocity": 80,
                "duration": 0.20000000000000107,
                "tempo": 120.0
            },
            {
                "start_time": 14.320454545454545,
                "end_time": 14.520454545454545,
                "pitch": 31,
                "velocity": 80,
                "duration": 0.1999999999999993,
                "tempo": 120.0
            },
            {
                "start_time": 14.522727272727272,
                "end_time": 14.722727272727273,
                "pitch": 31,
                "velocity": 80,
                "duration": 0.20000000000000107,
                "tempo": 120.0
            },
            {
                "start_time": 14.722727272727273,
                "end_time": 14.924999999999999,
                "pitch": 31,
                "velocity": 80,
                "duration": 0.20227272727272627,
                "tempo": 120.0
            },
            {
                "start_time": 14.924999999999999,
                "end_time": 15.125,
                "pitch": 31,
                "velocity": 80,
                "duration": 0.20000000000000107,
                "tempo": 120.0
            },
            {
                "start_time": 15.125,
                "end_time": 15.327272727272726,
                "pitch": 31,
                "velocity": 80,
                "duration": 0.20227272727272627,
                "tempo": 120.0
            },
            {
                "start_time": 15.327272727272726,
                "end_time": 15.527272727272727,
                "pitch": 31,
                "velocity": 80,
                "duration": 0.20000000000000107,
                "tempo": 120.0
            },
            {
                "start_time": 15.529545454545454,
                "end_time": 15.729545454545454,
                "pitch": 31,
                "velocity": 80,
                "duration": 0.1999999999999993,
                "tempo": 120.0
            },
            {
                "start_time": 15.729545454545454,
                "end_time": 15.929545454545453,
                "pitch": 31,
                "velocity": 80,
                "duration": 0.1999999999999993,
                "tempo": 120.0
            },
            {
                "start_time": 15.929545454545453,
                "end_time": 16.131818181818183,
                "pitch": 31,
                "velocity": 80,
                "duration": 0.20227272727272982,
                "tempo": 120.0
            },
            {
                "start_time": 16.131818181818183,
                "end_time": 16.331818181818182,
                "pitch": 35,
                "velocity": 80,
                "duration": 0.1999999999999993,
                "tempo": 120.0
            },
            {
                "start_time": 16.331818181818182,
                "end_time": 16.53409090909091,
                "pitch": 35,
                "velocity": 80,
                "duration": 0.20227272727272805,
                "tempo": 120.0
            },
            {
                "start_time": 16.53409090909091,
                "end_time": 16.736363636363635,
                "pitch": 35,
                "velocity": 80,
                "duration": 0.2022727272727245,
                "tempo": 120.0
            },
            {
                "start_time": 16.736363636363635,
                "end_time": 16.936363636363634,
                "pitch": 35,
                "velocity": 80,
                "duration": 0.1999999999999993,
                "tempo": 120.0
            },
            {
                "start_time": 16.936363636363634,
                "end_time": 17.136363636363637,
                "pitch": 35,
                "velocity": 80,
                "duration": 0.20000000000000284,
                "tempo": 120.0
            },
            {
                "start_time": 17.136363636363637,
                "end_time": 17.33863636363636,
                "pitch": 35,
                "velocity": 80,
                "duration": 0.2022727272727245,
                "tempo": 120.0
            },
            {
                "start_time": 17.33863636363636,
                "end_time": 17.538636363636364,
                "pitch": 35,
                "velocity": 80,
                "duration": 0.20000000000000284,
                "tempo": 120.0
            },
            {
                "start_time": 17.54090909090909,
                "end_time": 17.74090909090909,
                "pitch": 35,
                "velocity": 80,
                "duration": 0.1999999999999993,
                "tempo": 120.0
            },
            {
                "start_time": 17.74090909090909,
                "end_time": 17.938636363636363,
                "pitch": 35,
                "velocity": 80,
                "duration": 0.19772727272727408,
                "tempo": 120.0
            },
            {
                "start_time": 17.94090909090909,
                "end_time": 18.145454545454545,
                "pitch": 35,
                "velocity": 80,
                "duration": 0.20454545454545325,
                "tempo": 120.0
            },
            {
                "start_time": 18.145454545454545,
                "end_time": 18.349999999999998,
                "pitch": 35,
                "velocity": 80,
                "duration": 0.20454545454545325,
                "tempo": 120.0
            },
            {
                "start_time": 18.352272727272727,
                "end_time": 18.547727272727272,
                "pitch": 35,
                "velocity": 80,
                "duration": 0.19545454545454533,
                "tempo": 120.0
            },
            {
                "start_time": 18.547727272727272,
                "end_time": 18.743181818181817,
                "pitch": 35,
                "velocity": 80,
                "duration": 0.19545454545454533,
                "tempo": 120.0
            },
            {
                "start_time": 18.743181818181817,
                "end_time": 18.95,
                "pitch": 35,
                "velocity": 80,
                "duration": 0.206818181818182,
                "tempo": 120.0
            },
            {
                "start_time": 18.95,
                "end_time": 19.154545454545453,
                "pitch": 35,
                "velocity": 80,
                "duration": 0.20454545454545325,
                "tempo": 120.0
            },
            {
                "start_time": 19.154545454545453,
                "end_time": 19.35681818181818,
                "pitch": 35,
                "velocity": 80,
                "duration": 0.20227272727272805,
                "tempo": 120.0
            },
            {
                "start_time": 19.35681818181818,
                "end_time": 19.554545454545455,
                "pitch": 36,
                "velocity": 80,
                "duration": 0.19772727272727408,
                "tempo": 120.0
            },
            {
                "start_time": 19.55681818181818,
                "end_time": 19.75681818181818,
                "pitch": 36,
                "velocity": 80,
                "duration": 0.1999999999999993,
                "tempo": 120.0
            },
            {
                "start_time": 19.759090909090908,
                "end_time": 19.959090909090907,
                "pitch": 36,
                "velocity": 80,
                "duration": 0.1999999999999993,
                "tempo": 120.0
            },
            {
                "start_time": 19.959090909090907,
                "end_time": 20.159090909090907,
                "pitch": 36,
                "velocity": 80,
                "duration": 0.1999999999999993,
                "tempo": 120.0
            },
            {
                "start_time": 20.159090909090907,
                "end_time": 20.35909090909091,
                "pitch": 36,
                "velocity": 80,
                "duration": 0.20000000000000284,
                "tempo": 120.0
            },
            {
                "start_time": 20.35909090909091,
                "end_time": 20.561363636363634,
                "pitch": 36,
                "velocity": 80,
                "duration": 0.2022727272727245,
                "tempo": 120.0
            },
            {
                "start_time": 20.561363636363634,
                "end_time": 20.761363636363637,
                "pitch": 36,
                "velocity": 80,
                "duration": 0.20000000000000284,
                "tempo": 120.0
            },
            {
                "start_time": 20.763636363636362,
                "end_time": 20.96363636363636,
                "pitch": 36,
                "velocity": 80,
                "duration": 0.1999999999999993,
                "tempo": 120.0
            },
            {
                "start_time": 20.96363636363636,
                "end_time": 21.163636363636364,
                "pitch": 36,
                "velocity": 80,
                "duration": 0.20000000000000284,
                "tempo": 120.0
            },
            {
                "start_time": 21.163636363636364,
                "end_time": 21.363636363636363,
                "pitch": 36,
                "velocity": 80,
                "duration": 0.1999999999999993,
                "tempo": 120.0
            },
            {
                "start_time": 21.363636363636363,
                "end_time": 21.563636363636363,
                "pitch": 36,
                "velocity": 80,
                "duration": 0.1999999999999993,
                "tempo": 120.0
            },
            {
                "start_time": 21.563636363636363,
                "end_time": 21.76590909090909,
                "pitch": 36,
                "velocity": 80,
                "duration": 0.20227272727272805,
                "tempo": 120.0
            },
            {
                "start_time": 21.76590909090909,
                "end_time": 21.96590909090909,
                "pitch": 36,
                "velocity": 80,
                "duration": 0.1999999999999993,
                "tempo": 120.0
            },
            {
                "start_time": 21.96818181818182,
                "end_time": 22.168181818181818,
                "pitch": 36,
                "velocity": 80,
                "duration": 0.1999999999999993,
                "tempo": 120.0
            },
            {
                "start_time": 22.168181818181818,
                "end_time": 22.36590909090909,
                "pitch": 36,
                "velocity": 80,
                "duration": 0.19772727272727053,
                "tempo": 120.0
            },
            {
                "start_time": 22.368181818181817,
                "end_time": 22.570454545454545,
                "pitch": 36,
                "velocity": 80,
                "duration": 0.20227272727272805,
                "tempo": 120.0
            },
            {
                "start_time": 22.570454545454545,
                "end_time": 22.770454545454545,
                "pitch": 33,
                "velocity": 80,
                "duration": 0.1999999999999993,
                "tempo": 120.0
            },
            {
                "start_time": 22.770454545454545,
                "end_time": 22.970454545454544,
                "pitch": 33,
                "velocity": 80,
                "duration": 0.1999999999999993,
                "tempo": 120.0
            },
            {
                "start_time": 22.972727272727273,
                "end_time": 23.170454545454543,
                "pitch": 33,
                "velocity": 80,
                "duration": 0.19772727272727053,
                "tempo": 120.0
            },
            {
                "start_time": 23.170454545454543,
                "end_time": 23.370454545454546,
                "pitch": 33,
                "velocity": 80,
                "duration": 0.20000000000000284,
                "tempo": 120.0
            },
            {
                "start_time": 23.37272727272727,
                "end_time": 23.570454545454545,
                "pitch": 33,
                "velocity": 80,
                "duration": 0.19772727272727408,
                "tempo": 120.0
            },
            {
                "start_time": 23.57272727272727,
                "end_time": 23.77272727272727,
                "pitch": 33,
                "velocity": 80,
                "duration": 0.1999999999999993,
                "tempo": 120.0
            },
            {
                "start_time": 23.775,
                "end_time": 23.974999999999998,
                "pitch": 33,
                "velocity": 80,
                "duration": 0.1999999999999993,
                "tempo": 120.0
            },
            {
                "start_time": 23.974999999999998,
                "end_time": 24.174999999999997,
                "pitch": 33,
                "velocity": 80,
                "duration": 0.1999999999999993,
                "tempo": 120.0
            },
            {
                "start_time": 24.177272727272726,
                "end_time": 24.375,
                "pitch": 29,
                "velocity": 80,
                "duration": 0.19772727272727408,
                "tempo": 120.0
            },
            {
                "start_time": 24.375,
                "end_time": 24.577272727272724,
                "pitch": 29,
                "velocity": 80,
                "duration": 0.2022727272727245,
                "tempo": 120.0
            },
            {
                "start_time": 24.577272727272724,
                "end_time": 24.777272727272727,
                "pitch": 29,
                "velocity": 80,
                "duration": 0.20000000000000284,
                "tempo": 120.0
            },
            {
                "start_time": 24.779545454545453,
                "end_time": 24.979545454545452,
                "pitch": 29,
                "velocity": 80,
                "duration": 0.1999999999999993,
                "tempo": 120.0
            },
            {
                "start_time": 24.979545454545452,
                "end_time": 25.179545454545455,
                "pitch": 31,
                "velocity": 80,
                "duration": 0.20000000000000284,
                "tempo": 120.0
            },
            {
                "start_time": 25.179545454545455,
                "end_time": 25.384090909090908,
                "pitch": 31,
                "velocity": 80,
                "duration": 0.20454545454545325,
                "tempo": 120.0
            },
            {
                "start_time": 25.386363636363637,
                "end_time": 25.58863636363636,
                "pitch": 31,
                "velocity": 80,
                "duration": 0.2022727272727245,
                "tempo": 120.0
            },
            {
                "start_time": 25.59090909090909,
                "end_time": 25.786363636363635,
                "pitch": 31,
                "velocity": 80,
                "duration": 0.19545454545454533,
                "tempo": 120.0
            },
            {
                "start_time": 25.788636363636364,
                "end_time": 25.98181818181818,
                "pitch": 34,
                "velocity": 80,
                "duration": 0.19318181818181657,
                "tempo": 120.0
            },
            {
                "start_time": 25.98181818181818,
                "end_time": 26.186363636363634,
                "pitch": 34,
                "velocity": 80,
                "duration": 0.20454545454545325,
                "tempo": 120.0
            },
            {
                "start_time": 26.188636363636363,
                "end_time": 26.393181818181816,
                "pitch": 34,
                "velocity": 80,
                "duration": 0.20454545454545325,
                "tempo": 120.0
            },
            {
                "start_time": 26.393181818181816,
                "end_time": 26.593181818181815,
                "pitch": 34,
                "velocity": 80,
                "duration": 0.1999999999999993,
                "tempo": 120.0
            },
            {
                "start_time": 26.595454545454544,
                "end_time": 26.793181818181818,
                "pitch": 34,
                "velocity": 80,
                "duration": 0.19772727272727408,
                "tempo": 120.0
            },
            {
                "start_time": 26.795454545454543,
                "end_time": 26.995454545454542,
                "pitch": 34,
                "velocity": 80,
                "duration": 0.1999999999999993,
                "tempo": 120.0
            },
            {
                "start_time": 26.995454545454542,
                "end_time": 27.19772727272727,
                "pitch": 34,
                "velocity": 80,
                "duration": 0.20227272727272805,
                "tempo": 120.0
            },
            {
                "start_time": 27.19772727272727,
                "end_time": 27.39772727272727,
                "pitch": 34,
                "velocity": 80,
                "duration": 0.1999999999999993,
                "tempo": 120.0
            },
            {
                "start_time": 27.4,
                "end_time": 27.597727272727273,
                "pitch": 37,
                "velocity": 80,
                "duration": 0.19772727272727408,
                "tempo": 120.0
            },
            {
                "start_time": 27.597727272727273,
                "end_time": 27.797727272727272,
                "pitch": 37,
                "velocity": 80,
                "duration": 0.1999999999999993,
                "tempo": 120.0
            },
            {
                "start_time": 27.797727272727272,
                "end_time": 27.99772727272727,
                "pitch": 37,
                "velocity": 80,
                "duration": 0.1999999999999993,
                "tempo": 120.0
            },
            {
                "start_time": 27.99772727272727,
                "end_time": 28.2,
                "pitch": 37,
                "velocity": 80,
                "duration": 0.20227272727272805,
                "tempo": 120.0
            },
            {
                "start_time": 28.2,
                "end_time": 28.4,
                "pitch": 37,
                "velocity": 80,
                "duration": 0.1999999999999993,
                "tempo": 120.0
            },
            {
                "start_time": 28.402272727272727,
                "end_time": 28.602272727272727,
                "pitch": 37,
                "velocity": 80,
                "duration": 0.1999999999999993,
                "tempo": 120.0
            },
            {
                "start_time": 28.602272727272727,
                "end_time": 28.802272727272726,
                "pitch": 37,
                "velocity": 80,
                "duration": 0.1999999999999993,
                "tempo": 120.0
            },
            {
                "start_time": 28.802272727272726,
                "end_time": 29.004545454545454,
                "pitch": 37,
                "velocity": 80,
                "duration": 0.20227272727272805,
                "tempo": 120.0
            },
            {
                "start_time": 29.004545454545454,
                "end_time": 29.204545454545453,
                "pitch": 36,
                "velocity": 80,
                "duration": 0.1999999999999993,
                "tempo": 120.0
            },
            {
                "start_time": 29.204545454545453,
                "end_time": 29.404545454545453,
                "pitch": 36,
                "velocity": 80,
                "duration": 0.1999999999999993,
                "tempo": 120.0
            },
            {
                "start_time": 29.40681818181818,
                "end_time": 29.604545454545452,
                "pitch": 36,
                "velocity": 80,
                "duration": 0.19772727272727053,
                "tempo": 120.0
            },
            {
                "start_time": 29.60681818181818,
                "end_time": 29.80681818181818,
                "pitch": 36,
                "velocity": 80,
                "duration": 0.1999999999999993,
                "tempo": 120.0
            },
            {
                "start_time": 29.80681818181818,
                "end_time": 30.00681818181818,
                "pitch": 36,
                "velocity": 80,
                "duration": 0.1999999999999993,
                "tempo": 120.0
            },
            {
                "start_time": 30.00681818181818,
                "end_time": 30.206818181818182,
                "pitch": 36,
                "velocity": 80,
                "duration": 0.20000000000000284,
                "tempo": 120.0
            },
            {
                "start_time": 30.209090909090907,
                "end_time": 30.409090909090907,
                "pitch": 36,
                "velocity": 80,
                "duration": 0.1999999999999993,
                "tempo": 120.0
            },
            {
                "start_time": 30.409090909090907,
                "end_time": 30.611363636363635,
                "pitch": 36,
                "velocity": 80,
                "duration": 0.20227272727272805,
                "tempo": 120.0
            },
            {
                "start_time": 30.611363636363635,
                "end_time": 30.80909090909091,
                "pitch": 33,
                "velocity": 80,
                "duration": 0.19772727272727408,
                "tempo": 120.0
            },
            {
                "start_time": 30.811363636363634,
                "end_time": 31.011363636363633,
                "pitch": 33,
                "velocity": 80,
                "duration": 0.1999999999999993,
                "tempo": 120.0
            },
            {
                "start_time": 31.011363636363633,
                "end_time": 31.21363636363636,
                "pitch": 33,
                "velocity": 80,
                "duration": 0.20227272727272805,
                "tempo": 120.0
            },
            {
                "start_time": 31.21363636363636,
                "end_time": 31.41363636363636,
                "pitch": 33,
                "velocity": 80,
                "duration": 0.1999999999999993,
                "tempo": 120.0
            },
            {
                "start_time": 31.41590909090909,
                "end_time": 31.613636363636363,
                "pitch": 26,
                "velocity": 80,
                "duration": 0.19772727272727408,
                "tempo": 120.0
            },
            {
                "start_time": 31.613636363636363,
                "end_time": 31.813636363636363,
                "pitch": 26,
                "velocity": 80,
                "duration": 0.1999999999999993,
                "tempo": 120.0
            },
            {
                "start_time": 31.813636363636363,
                "end_time": 32.013636363636365,
                "pitch": 26,
                "velocity": 80,
                "duration": 0.20000000000000284,
                "tempo": 120.0
            },
            {
                "start_time": 32.013636363636365,
                "end_time": 32.215909090909086,
                "pitch": 26,
                "velocity": 80,
                "duration": 0.20227272727272094,
                "tempo": 120.0
            },
            {
                "start_time": 32.21818181818182,
                "end_time": 32.41590909090909,
                "pitch": 34,
                "velocity": 80,
                "duration": 0.19772727272727053,
                "tempo": 120.0
            },
            {
                "start_time": 32.418181818181814,
                "end_time": 32.61818181818182,
                "pitch": 34,
                "velocity": 80,
                "duration": 0.20000000000000284,
                "tempo": 120.0
            },
            {
                "start_time": 32.61818181818182,
                "end_time": 32.820454545454545,
                "pitch": 34,
                "velocity": 80,
                "duration": 0.20227272727272805,
                "tempo": 120.0
            },
            {
                "start_time": 32.820454545454545,
                "end_time": 33.02045454545454,
                "pitch": 34,
                "velocity": 80,
                "duration": 0.19999999999999574,
                "tempo": 120.0
            },
            {
                "start_time": 33.02272727272727,
                "end_time": 33.220454545454544,
                "pitch": 34,
                "velocity": 80,
                "duration": 0.19772727272727053,
                "tempo": 120.0
            },
            {
                "start_time": 33.220454545454544,
                "end_time": 33.42045454545455,
                "pitch": 34,
                "velocity": 80,
                "duration": 0.20000000000000284,
                "tempo": 120.0
            },
            {
                "start_time": 33.42272727272727,
                "end_time": 33.62045454545454,
                "pitch": 34,
                "velocity": 80,
                "duration": 0.19772727272727053,
                "tempo": 120.0
            },
            {
                "start_time": 33.62272727272727,
                "end_time": 33.82727272727273,
                "pitch": 34,
                "velocity": 80,
                "duration": 0.20454545454546036,
                "tempo": 120.0
            },
            {
                "start_time": 33.82954545454545,
                "end_time": 34.03181818181818,
                "pitch": 30,
                "velocity": 80,
                "duration": 0.20227272727272805,
                "tempo": 120.0
            },
            {
                "start_time": 34.03409090909091,
                "end_time": 34.23409090909091,
                "pitch": 30,
                "velocity": 80,
                "duration": 0.20000000000000284,
                "tempo": 120.0
            },
            {
                "start_time": 34.236363636363635,
                "end_time": 34.43636363636364,
                "pitch": 30,
                "velocity": 80,
                "duration": 0.20000000000000284,
                "tempo": 120.0
            },
            {
                "start_time": 34.43636363636364,
                "end_time": 34.63636363636363,
                "pitch": 30,
                "velocity": 80,
                "duration": 0.19999999999999574,
                "tempo": 120.0
            },
            {
                "start_time": 34.63636363636363,
                "end_time": 34.836363636363636,
                "pitch": 30,
                "velocity": 80,
                "duration": 0.20000000000000284,
                "tempo": 120.0
            },
            {
                "start_time": 34.836363636363636,
                "end_time": 35.03636363636363,
                "pitch": 30,
                "velocity": 80,
                "duration": 0.19999999999999574,
                "tempo": 120.0
            },
            {
                "start_time": 35.038636363636364,
                "end_time": 35.236363636363635,
                "pitch": 30,
                "velocity": 80,
                "duration": 0.19772727272727053,
                "tempo": 120.0
            },
            {
                "start_time": 35.23863636363636,
                "end_time": 35.43863636363636,
                "pitch": 30,
                "velocity": 80,
                "duration": 0.20000000000000284,
                "tempo": 120.0
            },
            {
                "start_time": 35.43863636363636,
                "end_time": 35.63636363636363,
                "pitch": 32,
                "velocity": 80,
                "duration": 0.19772727272727053,
                "tempo": 120.0
            },
            {
                "start_time": 35.638636363636365,
                "end_time": 35.83863636363636,
                "pitch": 32,
                "velocity": 80,
                "duration": 0.19999999999999574,
                "tempo": 120.0
            },
            {
                "start_time": 35.83863636363636,
                "end_time": 36.038636363636364,
                "pitch": 32,
                "velocity": 80,
                "duration": 0.20000000000000284,
                "tempo": 120.0
            },
            {
                "start_time": 36.038636363636364,
                "end_time": 36.24090909090909,
                "pitch": 32,
                "velocity": 80,
                "duration": 0.20227272727272805,
                "tempo": 120.0
            },
            {
                "start_time": 36.24090909090909,
                "end_time": 36.44090909090909,
                "pitch": 32,
                "velocity": 80,
                "duration": 0.19999999999999574,
                "tempo": 120.0
            },
            {
                "start_time": 36.44090909090909,
                "end_time": 36.64090909090909,
                "pitch": 32,
                "velocity": 80,
                "duration": 0.20000000000000284,
                "tempo": 120.0
            },
            {
                "start_time": 36.643181818181816,
                "end_time": 36.840909090909086,
                "pitch": 32,
                "velocity": 80,
                "duration": 0.19772727272727053,
                "tempo": 120.0
            },
            {
                "start_time": 36.84318181818182,
                "end_time": 37.043181818181814,
                "pitch": 32,
                "velocity": 80,
                "duration": 0.19999999999999574,
                "tempo": 120.0
            },
            {
                "start_time": 37.043181818181814,
                "end_time": 37.24318181818182,
                "pitch": 29,
                "velocity": 80,
                "duration": 0.20000000000000284,
                "tempo": 120.0
            },
            {
                "start_time": 37.24318181818182,
                "end_time": 37.44318181818181,
                "pitch": 29,
                "velocity": 80,
                "duration": 0.19999999999999574,
                "tempo": 120.0
            },
            {
                "start_time": 37.44318181818181,
                "end_time": 37.643181818181816,
                "pitch": 29,
                "velocity": 80,
                "duration": 0.20000000000000284,
                "tempo": 120.0
            },
            {
                "start_time": 37.643181818181816,
                "end_time": 37.84318181818182,
                "pitch": 29,
                "velocity": 80,
                "duration": 0.20000000000000284,
                "tempo": 120.0
            },
            {
                "start_time": 37.845454545454544,
                "end_time": 38.043181818181814,
                "pitch": 26,
                "velocity": 80,
                "duration": 0.19772727272727053,
                "tempo": 120.0
            },
            {
                "start_time": 38.043181818181814,
                "end_time": 38.24545454545454,
                "pitch": 26,
                "velocity": 80,
                "duration": 0.20227272727272805,
                "tempo": 120.0
            },
            {
                "start_time": 38.24545454545454,
                "end_time": 38.445454545454545,
                "pitch": 26,
                "velocity": 80,
                "duration": 0.20000000000000284,
                "tempo": 120.0
            },
            {
                "start_time": 38.44772727272727,
                "end_time": 38.64545454545454,
                "pitch": 26,
                "velocity": 80,
                "duration": 0.19772727272727053,
                "tempo": 120.0
            }
        ],
        "Vibraphone": [
            {
                "start_time": 0.03409090909090909,
                "end_time": 0.2318181818181818,
                "pitch": 59,
                "velocity": 64,
                "duration": 0.19772727272727272,
                "tempo": 120.0
            },
            {
                "start_time": 0.23409090909090907,
                "end_time": 0.3318181818181818,
                "pitch": 59,
                "velocity": 64,
                "duration": 0.09772727272727272,
                "tempo": 120.0
            },
            {
                "start_time": 0.33409090909090905,
                "end_time": 0.4318181818181818,
                "pitch": 59,
                "velocity": 64,
                "duration": 0.09772727272727277,
                "tempo": 120.0
            },
            {
                "start_time": 0.4340909090909091,
                "end_time": 0.6318181818181818,
                "pitch": 59,
                "velocity": 64,
                "duration": 0.19772727272727275,
                "tempo": 120.0
            },
            {
                "start_time": 0.634090909090909,
                "end_time": 0.7318181818181818,
                "pitch": 59,
                "velocity": 64,
                "duration": 0.09772727272727277,
                "tempo": 120.0
            },
            {
                "start_time": 0.734090909090909,
                "end_time": 0.8340909090909091,
                "pitch": 59,
                "velocity": 64,
                "duration": 0.10000000000000009,
                "tempo": 120.0
            },
            {
                "start_time": 0.8340909090909091,
                "end_time": 1.034090909090909,
                "pitch": 59,
                "velocity": 64,
                "duration": 0.19999999999999984,
                "tempo": 120.0
            },
            {
                "start_time": 1.034090909090909,
                "end_time": 1.134090909090909,
                "pitch": 59,
                "velocity": 64,
                "duration": 0.10000000000000009,
                "tempo": 120.0
            },
            {
                "start_time": 1.134090909090909,
                "end_time": 1.2340909090909091,
                "pitch": 59,
                "velocity": 64,
                "duration": 0.10000000000000009,
                "tempo": 120.0
            },
            {
                "start_time": 1.2340909090909091,
                "end_time": 1.434090909090909,
                "pitch": 59,
                "velocity": 64,
                "duration": 0.19999999999999996,
                "tempo": 120.0
            },
            {
                "start_time": 1.434090909090909,
                "end_time": 1.534090909090909,
                "pitch": 59,
                "velocity": 64,
                "duration": 0.09999999999999987,
                "tempo": 120.0
            },
            {
                "start_time": 1.534090909090909,
                "end_time": 1.634090909090909,
                "pitch": 59,
                "velocity": 64,
                "duration": 0.10000000000000009,
                "tempo": 120.0
            },
            {
                "start_time": 1.6363636363636362,
                "end_time": 1.834090909090909,
                "pitch": 59,
                "velocity": 64,
                "duration": 0.19772727272727275,
                "tempo": 120.0
            },
            {
                "start_time": 1.834090909090909,
                "end_time": 1.934090909090909,
                "pitch": 59,
                "velocity": 64,
                "duration": 0.10000000000000009,
                "tempo": 120.0
            },
            {
                "start_time": 1.9363636363636363,
                "end_time": 2.036363636363636,
                "pitch": 59,
                "velocity": 64,
                "duration": 0.09999999999999987,
                "tempo": 120.0
            },
            {
                "start_time": 2.036363636363636,
                "end_time": 2.2363636363636363,
                "pitch": 59,
                "velocity": 64,
                "duration": 0.20000000000000018,
                "tempo": 120.0
            },
            {
                "start_time": 2.2386363636363633,
                "end_time": 2.3386363636363634,
                "pitch": 59,
                "velocity": 64,
                "duration": 0.10000000000000009,
                "tempo": 120.0
            },
            {
                "start_time": 2.3386363636363634,
                "end_time": 2.4386363636363635,
                "pitch": 59,
                "velocity": 64,
                "duration": 0.10000000000000009,
                "tempo": 120.0
            },
            {
                "start_time": 2.4386363636363635,
                "end_time": 2.6386363636363637,
                "pitch": 59,
                "velocity": 64,
                "duration": 0.20000000000000018,
                "tempo": 120.0
            },
            {
                "start_time": 2.6386363636363637,
                "end_time": 2.7409090909090907,
                "pitch": 59,
                "velocity": 64,
                "duration": 0.10227272727272707,
                "tempo": 120.0
            },
            {
                "start_time": 2.7409090909090907,
                "end_time": 2.8431818181818183,
                "pitch": 59,
                "velocity": 64,
                "duration": 0.10227272727272751,
                "tempo": 120.0
            },
            {
                "start_time": 2.8454545454545452,
                "end_time": 3.05,
                "pitch": 59,
                "velocity": 64,
                "duration": 0.20454545454545459,
                "tempo": 120.0
            },
            {
                "start_time": 3.05,
                "end_time": 3.15,
                "pitch": 59,
                "velocity": 64,
                "duration": 0.10000000000000009,
                "tempo": 120.0
            },
            {
                "start_time": 3.15,
                "end_time": 3.25,
                "pitch": 59,
                "velocity": 64,
                "duration": 0.10000000000000009,
                "tempo": 120.0
            },
            {
                "start_time": 3.252272727272727,
                "end_time": 3.4499999999999997,
                "pitch": 62,
                "velocity": 64,
                "duration": 0.19772727272727275,
                "tempo": 120.0
            },
            {
                "start_time": 3.4499999999999997,
                "end_time": 3.55,
                "pitch": 62,
                "velocity": 64,
                "duration": 0.10000000000000009,
                "tempo": 120.0
            },
            {
                "start_time": 3.55,
                "end_time": 3.65,
                "pitch": 62,
                "velocity": 64,
                "duration": 0.10000000000000009,
                "tempo": 120.0
            },
            {
                "start_time": 3.652272727272727,
                "end_time": 3.8499999999999996,
                "pitch": 62,
                "velocity": 64,
                "duration": 0.19772727272727275,
                "tempo": 120.0
            },
            {
                "start_time": 3.852272727272727,
                "end_time": 3.9499999999999997,
                "pitch": 62,
                "velocity": 64,
                "duration": 0.09772727272727266,
                "tempo": 120.0
            },
            {
                "start_time": 3.952272727272727,
                "end_time": 4.052272727272727,
                "pitch": 62,
                "velocity": 64,
                "duration": 0.09999999999999964,
                "tempo": 120.0
            },
            {
                "start_time": 4.052272727272727,
                "end_time": 4.25,
                "pitch": 62,
                "velocity": 64,
                "duration": 0.1977272727272732,
                "tempo": 120.0
            },
            {
                "start_time": 4.252272727272727,
                "end_time": 4.352272727272727,
                "pitch": 62,
                "velocity": 64,
                "duration": 0.09999999999999964,
                "tempo": 120.0
            },
            {
                "start_time": 4.352272727272727,
                "end_time": 4.452272727272727,
                "pitch": 62,
                "velocity": 64,
                "duration": 0.10000000000000053,
                "tempo": 120.0
            },
            {
                "start_time": 4.454545454545454,
                "end_time": 4.654545454545454,
                "pitch": 62,
                "velocity": 64,
                "duration": 0.20000000000000018,
                "tempo": 120.0
            },
            {
                "start_time": 4.654545454545454,
                "end_time": 4.754545454545454,
                "pitch": 62,
                "velocity": 64,
                "duration": 0.09999999999999964,
                "tempo": 120.0
            },
            {
                "start_time": 4.754545454545454,
                "end_time": 4.8545454545454545,
                "pitch": 62,
                "velocity": 64,
                "duration": 0.10000000000000053,
                "tempo": 120.0
            },
            {
                "start_time": 4.8568181818181815,
                "end_time": 5.054545454545455,
                "pitch": 62,
                "velocity": 64,
                "duration": 0.1977272727272732,
                "tempo": 120.0
            },
            {
                "start_time": 5.054545454545455,
                "end_time": 5.154545454545454,
                "pitch": 62,
                "velocity": 64,
                "duration": 0.09999999999999964,
                "tempo": 120.0
            },
            {
                "start_time": 5.156818181818181,
                "end_time": 5.256818181818182,
                "pitch": 62,
                "velocity": 64,
                "duration": 0.10000000000000053,
                "tempo": 120.0
            },
            {
                "start_time": 5.256818181818182,
                "end_time": 5.456818181818181,
                "pitch": 62,
                "velocity": 64,
                "duration": 0.1999999999999993,
                "tempo": 120.0
            },
            {
                "start_time": 5.459090909090909,
                "end_time": 5.559090909090909,
                "pitch": 62,
                "velocity": 64,
                "duration": 0.09999999999999964,
                "tempo": 120.0
            },
            {
                "start_time": 5.559090909090909,
                "end_time": 5.659090909090909,
                "pitch": 62,
                "velocity": 64,
                "duration": 0.10000000000000053,
                "tempo": 120.0
            },
            {
                "start_time": 5.661363636363636,
                "end_time": 5.861363636363636,
                "pitch": 62,
                "velocity": 64,
                "duration": 0.20000000000000018,
                "tempo": 120.0
            },
            {
                "start_time": 5.861363636363636,
                "end_time": 5.961363636363636,
                "pitch": 62,
                "velocity": 64,
                "duration": 0.09999999999999964,
                "tempo": 120.0
            },
            {
                "start_time": 5.961363636363636,
                "end_time": 6.0613636363636365,
                "pitch": 62,
                "velocity": 64,
                "duration": 0.10000000000000053,
                "tempo": 120.0
            },
            {
                "start_time": 6.0636363636363635,
                "end_time": 6.261363636363636,
                "pitch": 62,
                "velocity": 64,
                "duration": 0.1977272727272723,
                "tempo": 120.0
            },
            {
                "start_time": 6.261363636363636,
                "end_time": 6.361363636363636,
                "pitch": 62,
                "velocity": 64,
                "duration": 0.10000000000000053,
                "tempo": 120.0
            },
            {
                "start_time": 6.363636363636363,
                "end_time": 6.463636363636363,
                "pitch": 62,
                "velocity": 64,
                "duration": 0.09999999999999964,
                "tempo": 120.0
            },
            {
                "start_time": 6.465909090909091,
                "end_time": 6.665909090909091,
                "pitch": 64,
                "velocity": 64,
                "duration": 0.20000000000000018,
                "tempo": 120.0
            },
            {
                "start_time": 6.665909090909091,
                "end_time": 6.765909090909091,
                "pitch": 64,
                "velocity": 64,
                "duration": 0.09999999999999964,
                "tempo": 120.0
            },
            {
                "start_time": 6.765909090909091,
                "end_time": 6.86590909090909,
                "pitch": 64,
                "velocity": 64,
                "duration": 0.09999999999999964,
                "tempo": 120.0
            },
            {
                "start_time": 6.86590909090909,
                "end_time": 7.0659090909090905,
                "pitch": 64,
                "velocity": 64,
                "duration": 0.20000000000000018,
                "tempo": 120.0
            },
            {
                "start_time": 7.0659090909090905,
                "end_time": 7.16590909090909,
                "pitch": 64,
                "velocity": 64,
                "duration": 0.09999999999999964,
                "tempo": 120.0
            },
            {
                "start_time": 7.16590909090909,
                "end_time": 7.268181818181818,
                "pitch": 64,
                "velocity": 64,
                "duration": 0.10227272727272751,
                "tempo": 120.0
            },
            {
                "start_time": 7.268181818181818,
                "end_time": 7.468181818181818,
                "pitch": 64,
                "velocity": 64,
                "duration": 0.20000000000000018,
                "tempo": 120.0
            },
            {
                "start_time": 7.470454545454545,
                "end_time": 7.570454545454545,
                "pitch": 64,
                "velocity": 64,
                "duration": 0.10000000000000053,
                "tempo": 120.0
            },
            {
                "start_time": 7.570454545454545,
                "end_time": 7.670454545454545,
                "pitch": 64,
                "velocity": 64,
                "duration": 0.09999999999999964,
                "tempo": 120.0
            },
            {
                "start_time": 7.670454545454545,
                "end_time": 7.872727272727272,
                "pitch": 64,
                "velocity": 64,
                "duration": 0.20227272727272716,
                "tempo": 120.0
            },
            {
                "start_time": 7.872727272727272,
                "end_time": 7.972727272727273,
                "pitch": 64,
                "velocity": 64,
                "duration": 0.10000000000000053,
                "tempo": 120.0
            },
            {
                "start_time": 7.972727272727273,
                "end_time": 8.072727272727272,
                "pitch": 64,
                "velocity": 64,
                "duration": 0.09999999999999964,
                "tempo": 120.0
            },
            {
                "start_time": 8.072727272727272,
                "end_time": 8.272727272727272,
                "pitch": 64,
                "velocity": 64,
                "duration": 0.1999999999999993,
                "tempo": 120.0
            },
            {
                "start_time": 8.272727272727272,
                "end_time": 8.372727272727273,
                "pitch": 64,
                "velocity": 64,
                "duration": 0.10000000000000142,
                "tempo": 120.0
            },
            {
                "start_time": 8.375,
                "end_time": 8.475,
                "pitch": 64,
                "velocity": 64,
                "duration": 0.09999999999999964,
                "tempo": 120.0
            },
            {
                "start_time": 8.475,
                "end_time": 8.674999999999999,
                "pitch": 64,
                "velocity": 64,
                "duration": 0.1999999999999993,
                "tempo": 120.0
            },
            {
                "start_time": 8.677272727272728,
                "end_time": 8.777272727272727,
                "pitch": 64,
                "velocity": 64,
                "duration": 0.09999999999999964,
                "tempo": 120.0
            },
            {
                "start_time": 8.777272727272727,
                "end_time": 8.877272727272727,
                "pitch": 64,
                "velocity": 64,
                "duration": 0.09999999999999964,
                "tempo": 120.0
            },
            {
                "start_time": 8.879545454545454,
                "end_time": 9.079545454545453,
                "pitch": 64,
                "velocity": 64,
                "duration": 0.1999999999999993,
                "tempo": 120.0
            },
            {
                "start_time": 9.079545454545453,
                "end_time": 9.179545454545455,
                "pitch": 64,
                "velocity": 64,
                "duration": 0.10000000000000142,
                "tempo": 120.0
            },
            {
                "start_time": 9.179545454545455,
                "end_time": 9.279545454545454,
                "pitch": 64,
                "velocity": 64,
                "duration": 0.09999999999999964,
                "tempo": 120.0
            },
            {
                "start_time": 9.279545454545454,
                "end_time": 9.479545454545454,
                "pitch": 64,
                "velocity": 64,
                "duration": 0.1999999999999993,
                "tempo": 120.0
            },
            {
                "start_time": 9.479545454545454,
                "end_time": 9.579545454545453,
                "pitch": 64,
                "velocity": 64,
                "duration": 0.09999999999999964,
                "tempo": 120.0
            },
            {
                "start_time": 9.581818181818182,
                "end_time": 9.681818181818182,
                "pitch": 64,
                "velocity": 64,
                "duration": 0.09999999999999964,
                "tempo": 120.0
            },
            {
                "start_time": 9.681818181818182,
                "end_time": 9.881818181818181,
                "pitch": 60,
                "velocity": 64,
                "duration": 0.1999999999999993,
                "tempo": 120.0
            },
            {
                "start_time": 9.884090909090908,
                "end_time": 9.98409090909091,
                "pitch": 60,
                "velocity": 64,
                "duration": 0.10000000000000142,
                "tempo": 120.0
            },
            {
                "start_time": 9.986363636363636,
                "end_time": 10.088636363636363,
                "pitch": 60,
                "velocity": 64,
                "duration": 0.10227272727272663,
                "tempo": 120.0
            },
            {
                "start_time": 10.088636363636363,
                "end_time": 10.293181818181818,
                "pitch": 60,
                "velocity": 64,
                "duration": 0.20454545454545503,
                "tempo": 120.0
            },
            {
                "start_time": 10.295454545454545,
                "end_time": 10.39090909090909,
                "pitch": 60,
                "velocity": 64,
                "duration": 0.09545454545454568,
                "tempo": 120.0
            },
            {
                "start_time": 10.393181818181818,
                "end_time": 10.49090909090909,
                "pitch": 60,
                "velocity": 64,
                "duration": 0.09772727272727266,
                "tempo": 120.0
            },
            {
                "start_time": 10.49090909090909,
                "end_time": 10.686363636363636,
                "pitch": 60,
                "velocity": 64,
                "duration": 0.19545454545454533,
                "tempo": 120.0
            },
            {
                "start_time": 10.686363636363636,
                "end_time": 10.788636363636362,
                "pitch": 60,
                "velocity": 64,
                "duration": 0.10227272727272663,
                "tempo": 120.0
            },
            {
                "start_time": 10.788636363636362,
                "end_time": 10.893181818181818,
                "pitch": 60,
                "velocity": 64,
                "duration": 0.10454545454545539,
                "tempo": 120.0
            },
            {
                "start_time": 10.893181818181818,
                "end_time": 11.097727272727273,
                "pitch": 60,
                "velocity": 64,
                "duration": 0.20454545454545503,
                "tempo": 120.0
            },
            {
                "start_time": 11.097727272727273,
                "end_time": 11.197727272727272,
                "pitch": 60,
                "velocity": 64,
                "duration": 0.09999999999999964,
                "tempo": 120.0
            },
            {
                "start_time": 11.2,
                "end_time": 11.299999999999999,
                "pitch": 60,
                "velocity": 64,
                "duration": 0.09999999999999964,
                "tempo": 120.0
            },
            {
                "start_time": 11.299999999999999,
                "end_time": 11.5,
                "pitch": 57,
                "velocity": 64,
                "duration": 0.20000000000000107,
                "tempo": 120.0
            },
            {
                "start_time": 11.502272727272727,
                "end_time": 11.6,
                "pitch": 57,
                "velocity": 64,
                "duration": 0.09772727272727266,
                "tempo": 120.0
            },
            {
                "start_time": 11.602272727272727,
                "end_time": 11.702272727272726,
                "pitch": 57,
                "velocity": 64,
                "duration": 0.09999999999999964,
                "tempo": 120.0
            },
            {
                "start_time": 11.702272727272726,
                "end_time": 11.902272727272727,
                "pitch": 57,
                "velocity": 64,
                "duration": 0.20000000000000107,
                "tempo": 120.0
            },
            {
                "start_time": 11.902272727272727,
                "end_time": 12.002272727272727,
                "pitch": 57,
                "velocity": 64,
                "duration": 0.09999999999999964,
                "tempo": 120.0
            },
            {
                "start_time": 12.002272727272727,
                "end_time": 12.102272727272727,
                "pitch": 57,
                "velocity": 64,
                "duration": 0.09999999999999964,
                "tempo": 120.0
            },
            {
                "start_time": 12.104545454545454,
                "end_time": 12.304545454545455,
                "pitch": 54,
                "velocity": 64,
                "duration": 0.20000000000000107,
                "tempo": 120.0
            },
            {
                "start_time": 12.304545454545455,
                "end_time": 12.404545454545454,
                "pitch": 54,
                "velocity": 64,
                "duration": 0.09999999999999964,
                "tempo": 120.0
            },
            {
                "start_time": 12.406818181818181,
                "end_time": 12.506818181818181,
                "pitch": 54,
                "velocity": 64,
                "duration": 0.09999999999999964,
                "tempo": 120.0
            },
            {
                "start_time": 12.506818181818181,
                "end_time": 12.706818181818182,
                "pitch": 54,
                "velocity": 64,
                "duration": 0.20000000000000107,
                "tempo": 120.0
            },
            {
                "start_time": 12.709090909090909,
                "end_time": 12.809090909090909,
                "pitch": 54,
                "velocity": 64,
                "duration": 0.09999999999999964,
                "tempo": 120.0
            },
            {
                "start_time": 12.809090909090909,
                "end_time": 12.911363636363635,
                "pitch": 54,
                "velocity": 64,
                "duration": 0.10227272727272663,
                "tempo": 120.0
            },
            {
                "start_time": 12.911363636363635,
                "end_time": 13.111363636363636,
                "pitch": 59,
                "velocity": 64,
                "duration": 0.20000000000000107,
                "tempo": 120.0
            },
            {
                "start_time": 13.111363636363636,
                "end_time": 13.211363636363636,
                "pitch": 59,
                "velocity": 64,
                "duration": 0.09999999999999964,
                "tempo": 120.0
            },
            {
                "start_time": 13.213636363636363,
                "end_time": 13.313636363636363,
                "pitch": 59,
                "velocity": 64,
                "duration": 0.09999999999999964,
                "tempo": 120.0
            },
            {
                "start_time": 13.313636363636363,
                "end_time": 13.513636363636364,
                "pitch": 59,
                "velocity": 64,
                "duration": 0.20000000000000107,
                "tempo": 120.0
            },
            {
                "start_time": 13.51590909090909,
                "end_time": 13.613636363636363,
                "pitch": 59,
                "velocity": 64,
                "duration": 0.09772727272727266,
                "tempo": 120.0
            },
            {
                "start_time": 13.61590909090909,
                "end_time": 13.71590909090909,
                "pitch": 59,
                "velocity": 64,
                "duration": 0.09999999999999964,
                "tempo": 120.0
            },
            {
                "start_time": 13.71590909090909,
                "end_time": 13.913636363636362,
                "pitch": 59,
                "velocity": 64,
                "duration": 0.1977272727272723,
                "tempo": 120.0
            },
            {
                "start_time": 13.915909090909091,
                "end_time": 14.01590909090909,
                "pitch": 59,
                "velocity": 64,
                "duration": 0.09999999999999964,
                "tempo": 120.0
            },
            {
                "start_time": 14.01590909090909,
                "end_time": 14.11590909090909,
                "pitch": 59,
                "velocity": 64,
                "duration": 0.09999999999999964,
                "tempo": 120.0
            },
            {
                "start_time": 14.118181818181817,
                "end_time": 14.318181818181818,
                "pitch": 59,
                "velocity": 64,
                "duration": 0.20000000000000107,
                "tempo": 120.0
            },
            {
                "start_time": 14.318181818181818,
                "end_time": 14.418181818181818,
                "pitch": 59,
                "velocity": 64,
                "duration": 0.09999999999999964,
                "tempo": 120.0
            },
            {
                "start_time": 14.420454545454545,
                "end_time": 14.520454545454545,
                "pitch": 59,
                "velocity": 64,
                "duration": 0.09999999999999964,
                "tempo": 120.0
            },
            {
                "start_time": 14.520454545454545,
                "end_time": 14.720454545454544,
                "pitch": 59,
                "velocity": 64,
                "duration": 0.1999999999999993,
                "tempo": 120.0
            },
            {
                "start_time": 14.722727272727273,
                "end_time": 14.822727272727272,
                "pitch": 59,
                "velocity": 64,
                "duration": 0.09999999999999964,
                "tempo": 120.0
            },
            {
                "start_time": 14.822727272727272,
                "end_time": 14.922727272727272,
                "pitch": 59,
                "velocity": 64,
                "duration": 0.09999999999999964,
                "tempo": 120.0
            },
            {
                "start_time": 14.924999999999999,
                "end_time": 15.125,
                "pitch": 59,
                "velocity": 64,
                "duration": 0.20000000000000107,
                "tempo": 120.0
            },
            {
                "start_time": 15.125,
                "end_time": 15.225,
                "pitch": 59,
                "velocity": 64,
                "duration": 0.09999999999999964,
                "tempo": 120.0
            },
            {
                "start_time": 15.225,
                "end_time": 15.327272727272726,
                "pitch": 59,
                "velocity": 64,
                "duration": 0.10227272727272663,
                "tempo": 120.0
            },
            {
                "start_time": 15.327272727272726,
                "end_time": 15.527272727272727,
                "pitch": 59,
                "velocity": 64,
                "duration": 0.20000000000000107,
                "tempo": 120.0
            },
            {
                "start_time": 15.527272727272727,
                "end_time": 15.627272727272727,
                "pitch": 59,
                "velocity": 64,
                "duration": 0.09999999999999964,
                "tempo": 120.0
            },
            {
                "start_time": 15.629545454545454,
                "end_time": 15.727272727272727,
                "pitch": 59,
                "velocity": 64,
                "duration": 0.09772727272727266,
                "tempo": 120.0
            },
            {
                "start_time": 15.729545454545454,
                "end_time": 15.927272727272726,
                "pitch": 59,
                "velocity": 64,
                "duration": 0.1977272727272723,
                "tempo": 120.0
            },
            {
                "start_time": 15.929545454545453,
                "end_time": 16.029545454545453,
                "pitch": 59,
                "velocity": 64,
                "duration": 0.09999999999999964,
                "tempo": 120.0
            },
            {
                "start_time": 16.029545454545453,
                "end_time": 16.129545454545454,
                "pitch": 59,
                "velocity": 64,
                "duration": 0.10000000000000142,
                "tempo": 120.0
            },
            {
                "start_time": 16.131818181818183,
                "end_time": 16.331818181818182,
                "pitch": 62,
                "velocity": 64,
                "duration": 0.1999999999999993,
                "tempo": 120.0
            },
            {
                "start_time": 16.331818181818182,
                "end_time": 16.43181818181818,
                "pitch": 62,
                "velocity": 64,
                "duration": 0.09999999999999787,
                "tempo": 120.0
            },
            {
                "start_time": 16.43181818181818,
                "end_time": 16.53409090909091,
                "pitch": 62,
                "velocity": 64,
                "duration": 0.10227272727273018,
                "tempo": 120.0
            },
            {
                "start_time": 16.53409090909091,
                "end_time": 16.73409090909091,
                "pitch": 62,
                "velocity": 64,
                "duration": 0.1999999999999993,
                "tempo": 120.0
            },
            {
                "start_time": 16.73409090909091,
                "end_time": 16.834090909090907,
                "pitch": 62,
                "velocity": 64,
                "duration": 0.09999999999999787,
                "tempo": 120.0
            },
            {
                "start_time": 16.836363636363636,
                "end_time": 16.93409090909091,
                "pitch": 62,
                "velocity": 64,
                "duration": 0.09772727272727266,
                "tempo": 120.0
            },
            {
                "start_time": 16.936363636363634,
                "end_time": 17.134090909090908,
                "pitch": 62,
                "velocity": 64,
                "duration": 0.19772727272727408,
                "tempo": 120.0
            },
            {
                "start_time": 17.136363636363637,
                "end_time": 17.236363636363635,
                "pitch": 62,
                "velocity": 64,
                "duration": 0.09999999999999787,
                "tempo": 120.0
            },
            {
                "start_time": 17.236363636363635,
                "end_time": 17.336363636363636,
                "pitch": 62,
                "velocity": 64,
                "duration": 0.10000000000000142,
                "tempo": 120.0
            },
            {
                "start_time": 17.33863636363636,
                "end_time": 17.538636363636364,
                "pitch": 62,
                "velocity": 64,
                "duration": 0.20000000000000284,
                "tempo": 120.0
            },
            {
                "start_time": 17.538636363636364,
                "end_time": 17.638636363636362,
                "pitch": 62,
                "velocity": 64,
                "duration": 0.09999999999999787,
                "tempo": 120.0
            },
            {
                "start_time": 17.638636363636362,
                "end_time": 17.738636363636363,
                "pitch": 62,
                "velocity": 64,
                "duration": 0.10000000000000142,
                "tempo": 120.0
            },
            {
                "start_time": 17.74090909090909,
                "end_time": 17.938636363636363,
                "pitch": 62,
                "velocity": 64,
                "duration": 0.19772727272727408,
                "tempo": 120.0
            },
            {
                "start_time": 17.938636363636363,
                "end_time": 18.04090909090909,
                "pitch": 62,
                "velocity": 64,
                "duration": 0.10227272727272663,
                "tempo": 120.0
            },
            {
                "start_time": 18.043181818181818,
                "end_time": 18.145454545454545,
                "pitch": 62,
                "velocity": 64,
                "duration": 0.10227272727272663,
                "tempo": 120.0
            },
            {
                "start_time": 18.145454545454545,
                "end_time": 18.349999999999998,
                "pitch": 62,
                "velocity": 64,
                "duration": 0.20454545454545325,
                "tempo": 120.0
            },
            {
                "start_time": 18.349999999999998,
                "end_time": 18.44772727272727,
                "pitch": 62,
                "velocity": 64,
                "duration": 0.09772727272727266,
                "tempo": 120.0
            },
            {
                "start_time": 18.44772727272727,
                "end_time": 18.545454545454543,
                "pitch": 62,
                "velocity": 64,
                "duration": 0.09772727272727266,
                "tempo": 120.0
            },
            {
                "start_time": 18.547727272727272,
                "end_time": 18.743181818181817,
                "pitch": 62,
                "velocity": 64,
                "duration": 0.19545454545454533,
                "tempo": 120.0
            },
            {
                "start_time": 18.743181818181817,
                "end_time": 18.845454545454544,
                "pitch": 62,
                "velocity": 64,
                "duration": 0.10227272727272663,
                "tempo": 120.0
            },
            {
                "start_time": 18.845454545454544,
                "end_time": 18.94772727272727,
                "pitch": 62,
                "velocity": 64,
                "duration": 0.10227272727272663,
                "tempo": 120.0
            },
            {
                "start_time": 18.95,
                "end_time": 19.154545454545453,
                "pitch": 62,
                "velocity": 64,
                "duration": 0.20454545454545325,
                "tempo": 120.0
            },
            {
                "start_time": 19.154545454545453,
                "end_time": 19.254545454545454,
                "pitch": 62,
                "velocity": 64,
                "duration": 0.10000000000000142,
                "tempo": 120.0
            },
            {
                "start_time": 19.254545454545454,
                "end_time": 19.354545454545452,
                "pitch": 62,
                "velocity": 64,
                "duration": 0.09999999999999787,
                "tempo": 120.0
            },
            {
                "start_time": 19.354545454545452,
                "end_time": 19.554545454545455,
                "pitch": 64,
                "velocity": 64,
                "duration": 0.20000000000000284,
                "tempo": 120.0
            },
            {
                "start_time": 19.554545454545455,
                "end_time": 19.654545454545453,
                "pitch": 64,
                "velocity": 64,
                "duration": 0.09999999999999787,
                "tempo": 120.0
            },
            {
                "start_time": 19.65681818181818,
                "end_time": 19.75681818181818,
                "pitch": 64,
                "velocity": 64,
                "duration": 0.09999999999999787,
                "tempo": 120.0
            },
            {
                "start_time": 19.75681818181818,
                "end_time": 19.956818181818182,
                "pitch": 64,
                "velocity": 64,
                "duration": 0.20000000000000284,
                "tempo": 120.0
            },
            {
                "start_time": 19.959090909090907,
                "end_time": 20.05681818181818,
                "pitch": 64,
                "velocity": 64,
                "duration": 0.09772727272727266,
                "tempo": 120.0
            },
            {
                "start_time": 20.05909090909091,
                "end_time": 20.159090909090907,
                "pitch": 64,
                "velocity": 64,
                "duration": 0.09999999999999787,
                "tempo": 120.0
            },
            {
                "start_time": 20.159090909090907,
                "end_time": 20.35909090909091,
                "pitch": 64,
                "velocity": 64,
                "duration": 0.20000000000000284,
                "tempo": 120.0
            },
            {
                "start_time": 20.35909090909091,
                "end_time": 20.459090909090907,
                "pitch": 64,
                "velocity": 64,
                "duration": 0.09999999999999787,
                "tempo": 120.0
            },
            {
                "start_time": 20.459090909090907,
                "end_time": 20.55909090909091,
                "pitch": 64,
                "velocity": 64,
                "duration": 0.10000000000000142,
                "tempo": 120.0
            },
            {
                "start_time": 20.561363636363634,
                "end_time": 20.761363636363637,
                "pitch": 64,
                "velocity": 64,
                "duration": 0.20000000000000284,
                "tempo": 120.0
            },
            {
                "start_time": 20.761363636363637,
                "end_time": 20.861363636363635,
                "pitch": 64,
                "velocity": 64,
                "duration": 0.09999999999999787,
                "tempo": 120.0
            },
            {
                "start_time": 20.861363636363635,
                "end_time": 20.961363636363636,
                "pitch": 64,
                "velocity": 64,
                "duration": 0.10000000000000142,
                "tempo": 120.0
            },
            {
                "start_time": 20.96363636363636,
                "end_time": 21.161363636363635,
                "pitch": 64,
                "velocity": 64,
                "duration": 0.19772727272727408,
                "tempo": 120.0
            },
            {
                "start_time": 21.163636363636364,
                "end_time": 21.261363636363637,
                "pitch": 64,
                "velocity": 64,
                "duration": 0.09772727272727266,
                "tempo": 120.0
            },
            {
                "start_time": 21.263636363636362,
                "end_time": 21.361363636363635,
                "pitch": 64,
                "velocity": 64,
                "duration": 0.09772727272727266,
                "tempo": 120.0
            },
            {
                "start_time": 21.363636363636363,
                "end_time": 21.561363636363634,
                "pitch": 64,
                "velocity": 64,
                "duration": 0.19772727272727053,
                "tempo": 120.0
            },
            {
                "start_time": 21.563636363636363,
                "end_time": 21.663636363636364,
                "pitch": 64,
                "velocity": 64,
                "duration": 0.10000000000000142,
                "tempo": 120.0
            },
            {
                "start_time": 21.663636363636364,
                "end_time": 21.763636363636362,
                "pitch": 64,
                "velocity": 64,
                "duration": 0.09999999999999787,
                "tempo": 120.0
            },
            {
                "start_time": 21.76590909090909,
                "end_time": 21.96590909090909,
                "pitch": 64,
                "velocity": 64,
                "duration": 0.1999999999999993,
                "tempo": 120.0
            },
            {
                "start_time": 21.96590909090909,
                "end_time": 22.06590909090909,
                "pitch": 64,
                "velocity": 64,
                "duration": 0.10000000000000142,
                "tempo": 120.0
            },
            {
                "start_time": 22.06590909090909,
                "end_time": 22.16590909090909,
                "pitch": 64,
                "velocity": 64,
                "duration": 0.09999999999999787,
                "tempo": 120.0
            },
            {
                "start_time": 22.16590909090909,
                "end_time": 22.36590909090909,
                "pitch": 64,
                "velocity": 64,
                "duration": 0.1999999999999993,
                "tempo": 120.0
            },
            {
                "start_time": 22.36590909090909,
                "end_time": 22.46590909090909,
                "pitch": 64,
                "velocity": 64,
                "duration": 0.10000000000000142,
                "tempo": 120.0
            },
            {
                "start_time": 22.46818181818182,
                "end_time": 22.568181818181817,
                "pitch": 64,
                "velocity": 64,
                "duration": 0.09999999999999787,
                "tempo": 120.0
            },
            {
                "start_time": 22.568181818181817,
                "end_time": 22.768181818181816,
                "pitch": 60,
                "velocity": 64,
                "duration": 0.1999999999999993,
                "tempo": 120.0
            },
            {
                "start_time": 22.770454545454545,
                "end_time": 22.868181818181817,
                "pitch": 60,
                "velocity": 64,
                "duration": 0.09772727272727266,
                "tempo": 120.0
            },
            {
                "start_time": 22.870454545454546,
                "end_time": 22.970454545454544,
                "pitch": 60,
                "velocity": 64,
                "duration": 0.09999999999999787,
                "tempo": 120.0
            },
            {
                "start_time": 22.970454545454544,
                "end_time": 23.170454545454543,
                "pitch": 60,
                "velocity": 64,
                "duration": 0.1999999999999993,
                "tempo": 120.0
            },
            {
                "start_time": 23.170454545454543,
                "end_time": 23.270454545454545,
                "pitch": 60,
                "velocity": 64,
                "duration": 0.10000000000000142,
                "tempo": 120.0
            },
            {
                "start_time": 23.270454545454545,
                "end_time": 23.370454545454546,
                "pitch": 60,
                "velocity": 64,
                "duration": 0.10000000000000142,
                "tempo": 120.0
            },
            {
                "start_time": 23.370454545454546,
                "end_time": 23.570454545454545,
                "pitch": 60,
                "velocity": 64,
                "duration": 0.1999999999999993,
                "tempo": 120.0
            },
            {
                "start_time": 23.570454545454545,
                "end_time": 23.670454545454543,
                "pitch": 60,
                "velocity": 64,
                "duration": 0.09999999999999787,
                "tempo": 120.0
            },
            {
                "start_time": 23.672727272727272,
                "end_time": 23.77272727272727,
                "pitch": 60,
                "velocity": 64,
                "duration": 0.09999999999999787,
                "tempo": 120.0
            },
            {
                "start_time": 23.77272727272727,
                "end_time": 23.972727272727273,
                "pitch": 60,
                "velocity": 64,
                "duration": 0.20000000000000284,
                "tempo": 120.0
            },
            {
                "start_time": 23.974999999999998,
                "end_time": 24.07272727272727,
                "pitch": 60,
                "velocity": 64,
                "duration": 0.09772727272727266,
                "tempo": 120.0
            },
            {
                "start_time": 24.075,
                "end_time": 24.174999999999997,
                "pitch": 60,
                "velocity": 64,
                "duration": 0.09999999999999787,
                "tempo": 120.0
            },
            {
                "start_time": 24.174999999999997,
                "end_time": 24.375,
                "pitch": 57,
                "velocity": 64,
                "duration": 0.20000000000000284,
                "tempo": 120.0
            },
            {
                "start_time": 24.375,
                "end_time": 24.474999999999998,
                "pitch": 57,
                "velocity": 64,
                "duration": 0.09999999999999787,
                "tempo": 120.0
            },
            {
                "start_time": 24.474999999999998,
                "end_time": 24.575,
                "pitch": 57,
                "velocity": 64,
                "duration": 0.10000000000000142,
                "tempo": 120.0
            },
            {
                "start_time": 24.577272727272724,
                "end_time": 24.777272727272727,
                "pitch": 57,
                "velocity": 64,
                "duration": 0.20000000000000284,
                "tempo": 120.0
            },
            {
                "start_time": 24.777272727272727,
                "end_time": 24.877272727272725,
                "pitch": 57,
                "velocity": 64,
                "duration": 0.09999999999999787,
                "tempo": 120.0
            },
            {
                "start_time": 24.877272727272725,
                "end_time": 24.977272727272727,
                "pitch": 57,
                "velocity": 64,
                "duration": 0.10000000000000142,
                "tempo": 120.0
            },
            {
                "start_time": 24.979545454545452,
                "end_time": 25.177272727272726,
                "pitch": 59,
                "velocity": 64,
                "duration": 0.19772727272727408,
                "tempo": 120.0
            },
            {
                "start_time": 25.179545454545455,
                "end_time": 25.279545454545453,
                "pitch": 59,
                "velocity": 64,
                "duration": 0.09999999999999787,
                "tempo": 120.0
            },
            {
                "start_time": 25.28181818181818,
                "end_time": 25.384090909090908,
                "pitch": 59,
                "velocity": 64,
                "duration": 0.10227272727272663,
                "tempo": 120.0
            },
            {
                "start_time": 25.384090909090908,
                "end_time": 25.58863636363636,
                "pitch": 59,
                "velocity": 64,
                "duration": 0.20454545454545325,
                "tempo": 120.0
            },
            {
                "start_time": 25.58863636363636,
                "end_time": 25.686363636363634,
                "pitch": 59,
                "velocity": 64,
                "duration": 0.09772727272727266,
                "tempo": 120.0
            },
            {
                "start_time": 25.688636363636363,
                "end_time": 25.786363636363635,
                "pitch": 59,
                "velocity": 64,
                "duration": 0.09772727272727266,
                "tempo": 120.0
            }
        ],
        "Violin": [
            {
                "start_time": 25.786363636363635,
                "end_time": 27.39772727272727,
                "pitch": 61,
                "velocity": 101,
                "duration": 1.6113636363636346,
                "tempo": 120.0
            },
            {
                "start_time": 27.39772727272727,
                "end_time": 29.004545454545454,
                "pitch": 64,
                "velocity": 101,
                "duration": 1.6068181818181841,
                "tempo": 120.0
            },
            {
                "start_time": 29.004545454545454,
                "end_time": 30.60909090909091,
                "pitch": 63,
                "velocity": 101,
                "duration": 1.6045454545454554,
                "tempo": 120.0
            },
            {
                "start_time": 30.611363636363635,
                "end_time": 31.41363636363636,
                "pitch": 60,
                "velocity": 101,
                "duration": 0.8022727272727259,
                "tempo": 120.0
            },
            {
                "start_time": 31.41363636363636,
                "end_time": 32.215909090909086,
                "pitch": 66,
                "velocity": 101,
                "duration": 0.8022727272727259,
                "tempo": 120.0
            },
            {
                "start_time": 32.215909090909086,
                "end_time": 33.82727272727273,
                "pitch": 61,
                "velocity": 101,
                "duration": 1.6113636363636417,
                "tempo": 120.0
            },
            {
                "start_time": 33.82727272727273,
                "end_time": 35.43863636363636,
                "pitch": 58,
                "velocity": 101,
                "duration": 1.6113636363636346,
                "tempo": 120.0
            },
            {
                "start_time": 35.43863636363636,
                "end_time": 37.043181818181814,
                "pitch": 60,
                "velocity": 101,
                "duration": 1.6045454545454518,
                "tempo": 120.0
            },
            {
                "start_time": 37.043181818181814,
                "end_time": 37.84318181818182,
                "pitch": 57,
                "velocity": 101,
                "duration": 0.8000000000000043,
                "tempo": 120.0
            },
            {
                "start_time": 37.84318181818182,
                "end_time": 38.64545454545454,
                "pitch": 54,
                "velocity": 101,
                "duration": 0.8022727272727224,
                "tempo": 120.0
            }
        ],
        "Trumpet": [
            {
                "start_time": 0.03409090909090909,
                "end_time": 0.16363636363636364,
                "pitch": 59,
                "velocity": 80,
                "duration": 0.12954545454545455,
                "tempo": 120.0
            },
            {
                "start_time": 0.1659090909090909,
                "end_time": 0.29772727272727273,
                "pitch": 60,
                "velocity": 80,
                "duration": 0.13181818181818183,
                "tempo": 120.0
            },
            {
                "start_time": 0.3,
                "end_time": 0.4318181818181818,
                "pitch": 62,
                "velocity": 80,
                "duration": 0.13181818181818183,
                "tempo": 120.0
            },
            {
                "start_time": 0.4318181818181818,
                "end_time": 0.5659090909090909,
                "pitch": 64,
                "velocity": 80,
                "duration": 0.1340909090909091,
                "tempo": 120.0
            },
            {
                "start_time": 0.5659090909090909,
                "end_time": 0.6977272727272726,
                "pitch": 62,
                "velocity": 80,
                "duration": 0.13181818181818172,
                "tempo": 120.0
            },
            {
                "start_time": 0.7,
                "end_time": 0.8318181818181818,
                "pitch": 60,
                "velocity": 80,
                "duration": 0.13181818181818183,
                "tempo": 120.0
            },
            {
                "start_time": 0.8340909090909091,
                "end_time": 0.9659090909090908,
                "pitch": 59,
                "velocity": 80,
                "duration": 0.13181818181818172,
                "tempo": 120.0
            },
            {
                "start_time": 0.9681818181818181,
                "end_time": 1.0999999999999999,
                "pitch": 62,
                "velocity": 80,
                "duration": 0.13181818181818172,
                "tempo": 120.0
            },
            {
                "start_time": 1.0999999999999999,
                "end_time": 1.2340909090909091,
                "pitch": 64,
                "velocity": 80,
                "duration": 0.13409090909090926,
                "tempo": 120.0
            },
            {
                "start_time": 1.2340909090909091,
                "end_time": 1.3659090909090907,
                "pitch": 66,
                "velocity": 80,
                "duration": 0.1318181818181816,
                "tempo": 120.0
            },
            {
                "start_time": 1.3681818181818182,
                "end_time": 1.5,
                "pitch": 67,
                "velocity": 80,
                "duration": 0.13181818181818183,
                "tempo": 120.0
            },
            {
                "start_time": 1.5,
                "end_time": 1.634090909090909,
                "pitch": 66,
                "velocity": 80,
                "duration": 0.13409090909090904,
                "tempo": 120.0
            },
            {
                "start_time": 1.634090909090909,
                "end_time": 1.7659090909090909,
                "pitch": 67,
                "velocity": 80,
                "duration": 0.13181818181818183,
                "tempo": 120.0
            },
            {
                "start_time": 1.768181818181818,
                "end_time": 1.9,
                "pitch": 66,
                "velocity": 80,
                "duration": 0.13181818181818183,
                "tempo": 120.0
            },
            {
                "start_time": 1.9022727272727271,
                "end_time": 2.036363636363636,
                "pitch": 64,
                "velocity": 80,
                "duration": 0.13409090909090904,
                "tempo": 120.0
            },
            {
                "start_time": 2.036363636363636,
                "end_time": 2.436363636363636,
                "pitch": 62,
                "velocity": 80,
                "duration": 0.3999999999999999,
                "tempo": 120.0
            },
            {
                "start_time": 2.4386363636363635,
                "end_time": 2.5704545454545453,
                "pitch": 64,
                "velocity": 80,
                "duration": 0.13181818181818183,
                "tempo": 120.0
            },
            {
                "start_time": 2.5704545454545453,
                "end_time": 2.7068181818181816,
                "pitch": 62,
                "velocity": 80,
                "duration": 0.13636363636363624,
                "tempo": 120.0
            },
            {
                "start_time": 2.7068181818181816,
                "end_time": 2.8431818181818183,
                "pitch": 60,
                "velocity": 80,
                "duration": 0.1363636363636367,
                "tempo": 120.0
            },
            {
                "start_time": 2.8431818181818183,
                "end_time": 2.9795454545454545,
                "pitch": 57,
                "velocity": 80,
                "duration": 0.13636363636363624,
                "tempo": 120.0
            },
            {
                "start_time": 2.9818181818181815,
                "end_time": 3.1159090909090907,
                "pitch": 59,
                "velocity": 80,
                "duration": 0.13409090909090926,
                "tempo": 120.0
            },
            {
                "start_time": 3.1159090909090907,
                "end_time": 3.25,
                "pitch": 60,
                "velocity": 80,
                "duration": 0.13409090909090926,
                "tempo": 120.0
            },
            {
                "start_time": 3.25,
                "end_time": 3.381818181818182,
                "pitch": 62,
                "velocity": 80,
                "duration": 0.13181818181818183,
                "tempo": 120.0
            },
            {
                "start_time": 3.384090909090909,
                "end_time": 3.5159090909090907,
                "pitch": 59,
                "velocity": 80,
                "duration": 0.13181818181818183,
                "tempo": 120.0
            },
            {
                "start_time": 3.5159090909090907,
                "end_time": 3.65,
                "pitch": 60,
                "velocity": 80,
                "duration": 0.13409090909090926,
                "tempo": 120.0
            },
            {
                "start_time": 3.65,
                "end_time": 3.7840909090909087,
                "pitch": 62,
                "velocity": 80,
                "duration": 0.13409090909090882,
                "tempo": 120.0
            },
            {
                "start_time": 3.7840909090909087,
                "end_time": 3.9159090909090906,
                "pitch": 64,
                "velocity": 80,
                "duration": 0.13181818181818183,
                "tempo": 120.0
            },
            {
                "start_time": 3.918181818181818,
                "end_time": 4.05,
                "pitch": 66,
                "velocity": 80,
                "duration": 0.13181818181818183,
                "tempo": 120.0
            },
            {
                "start_time": 4.05,
                "end_time": 4.184090909090909,
                "pitch": 64,
                "velocity": 80,
                "duration": 0.13409090909090882,
                "tempo": 120.0
            },
            {
                "start_time": 4.184090909090909,
                "end_time": 4.318181818181818,
                "pitch": 66,
                "velocity": 80,
                "duration": 0.1340909090909097,
                "tempo": 120.0
            },
            {
                "start_time": 4.318181818181818,
                "end_time": 4.452272727272727,
                "pitch": 67,
                "velocity": 80,
                "duration": 0.13409090909090882,
                "tempo": 120.0
            },
            {
                "start_time": 4.452272727272727,
                "end_time": 4.586363636363636,
                "pitch": 66,
                "velocity": 80,
                "duration": 0.13409090909090882,
                "tempo": 120.0
            },
            {
                "start_time": 4.586363636363636,
                "end_time": 4.720454545454545,
                "pitch": 62,
                "velocity": 80,
                "duration": 0.13409090909090882,
                "tempo": 120.0
            },
            {
                "start_time": 4.720454545454545,
                "end_time": 4.8545454545454545,
                "pitch": 59,
                "velocity": 80,
                "duration": 0.1340909090909097,
                "tempo": 120.0
            },
            {
                "start_time": 4.8545454545454545,
                "end_time": 4.986363636363636,
                "pitch": 60,
                "velocity": 80,
                "duration": 0.13181818181818183,
                "tempo": 120.0
            },
            {
                "start_time": 4.988636363636363,
                "end_time": 5.120454545454545,
                "pitch": 64,
                "velocity": 80,
                "duration": 0.13181818181818183,
                "tempo": 120.0
            },
            {
                "start_time": 5.122727272727272,
                "end_time": 5.256818181818182,
                "pitch": 66,
                "velocity": 80,
                "duration": 0.1340909090909097,
                "tempo": 120.0
            },
            {
                "start_time": 5.256818181818182,
                "end_time": 5.659090909090909,
                "pitch": 62,
                "velocity": 80,
                "duration": 0.40227272727272734,
                "tempo": 120.0
            },
            {
                "start_time": 5.659090909090909,
                "end_time": 5.793181818181818,
                "pitch": 59,
                "velocity": 80,
                "duration": 0.13409090909090882,
                "tempo": 120.0
            },
            {
                "start_time": 5.793181818181818,
                "end_time": 5.927272727272727,
                "pitch": 60,
                "velocity": 80,
                "duration": 0.13409090909090882,
                "tempo": 120.0
            },
            {
                "start_time": 5.927272727272727,
                "end_time": 6.0613636363636365,
                "pitch": 62,
                "velocity": 80,
                "duration": 0.1340909090909097,
                "tempo": 120.0
            },
            {
                "start_time": 6.0613636363636365,
                "end_time": 6.1931818181818175,
                "pitch": 64,
                "velocity": 80,
                "duration": 0.13181818181818095,
                "tempo": 120.0
            },
            {
                "start_time": 6.195454545454545,
                "end_time": 6.327272727272727,
                "pitch": 66,
                "velocity": 80,
                "duration": 0.13181818181818183,
                "tempo": 120.0
            },
            {
                "start_time": 6.329545454545454,
                "end_time": 6.463636363636363,
                "pitch": 67,
                "velocity": 80,
                "duration": 0.13409090909090882,
                "tempo": 120.0
            },
            {
                "start_time": 6.463636363636363,
                "end_time": 6.597727272727273,
                "pitch": 64,
                "velocity": 80,
                "duration": 0.1340909090909097,
                "tempo": 120.0
            },
            {
                "start_time": 6.597727272727273,
                "end_time": 6.7318181818181815,
                "pitch": 66,
                "velocity": 80,
                "duration": 0.13409090909090882,
                "tempo": 120.0
            },
            {
                "start_time": 6.7318181818181815,
                "end_time": 6.863636363636363,
                "pitch": 67,
                "velocity": 80,
                "duration": 0.13181818181818183,
                "tempo": 120.0
            },
            {
                "start_time": 6.86590909090909,
                "end_time": 7.265909090909091,
                "pitch": 64,
                "velocity": 80,
                "duration": 0.40000000000000036,
                "tempo": 120.0
            },
            {
                "start_time": 7.268181818181818,
                "end_time": 7.3999999999999995,
                "pitch": 60,
                "velocity": 80,
                "duration": 0.13181818181818183,
                "tempo": 120.0
            },
            {
                "start_time": 7.402272727272727,
                "end_time": 7.534090909090908,
                "pitch": 62,
                "velocity": 80,
                "duration": 0.13181818181818095,
                "tempo": 120.0
            },
            {
                "start_time": 7.536363636363636,
                "end_time": 7.670454545454545,
                "pitch": 64,
                "velocity": 80,
                "duration": 0.13409090909090882,
                "tempo": 120.0
            },
            {
                "start_time": 7.670454545454545,
                "end_time": 7.804545454545454,
                "pitch": 60,
                "velocity": 80,
                "duration": 0.13409090909090882,
                "tempo": 120.0
            },
            {
                "start_time": 7.804545454545454,
                "end_time": 7.9386363636363635,
                "pitch": 57,
                "velocity": 80,
                "duration": 0.1340909090909097,
                "tempo": 120.0
            },
            {
                "start_time": 7.9386363636363635,
                "end_time": 8.072727272727272,
                "pitch": 59,
                "velocity": 80,
                "duration": 0.13409090909090882,
                "tempo": 120.0
            },
            {
                "start_time": 8.072727272727272,
                "end_time": 8.204545454545455,
                "pitch": 60,
                "velocity": 80,
                "duration": 0.13181818181818272,
                "tempo": 120.0
            },
            {
                "start_time": 8.204545454545455,
                "end_time": 8.338636363636363,
                "pitch": 62,
                "velocity": 80,
                "duration": 0.13409090909090793,
                "tempo": 120.0
            },
            {
                "start_time": 8.338636363636363,
                "end_time": 8.472727272727273,
                "pitch": 64,
                "velocity": 80,
                "duration": 0.1340909090909097,
                "tempo": 120.0
            },
            {
                "start_time": 8.475,
                "end_time": 8.60681818181818,
                "pitch": 67,
                "velocity": 80,
                "duration": 0.13181818181818095,
                "tempo": 120.0
            },
            {
                "start_time": 8.60909090909091,
                "end_time": 8.74090909090909,
                "pitch": 66,
                "velocity": 80,
                "duration": 0.13181818181818095,
                "tempo": 120.0
            },
            {
                "start_time": 8.743181818181817,
                "end_time": 8.877272727272727,
                "pitch": 64,
                "velocity": 80,
                "duration": 0.1340909090909097,
                "tempo": 120.0
            },
            {
                "start_time": 8.877272727272727,
                "end_time": 9.011363636363637,
                "pitch": 60,
                "velocity": 80,
                "duration": 0.1340909090909097,
                "tempo": 120.0
            },
            {
                "start_time": 9.011363636363637,
                "end_time": 9.145454545454545,
                "pitch": 64,
                "velocity": 80,
                "duration": 0.13409090909090793,
                "tempo": 120.0
            },
            {
                "start_time": 9.145454545454545,
                "end_time": 9.279545454545454,
                "pitch": 66,
                "velocity": 80,
                "duration": 0.1340909090909097,
                "tempo": 120.0
            },
            {
                "start_time": 9.279545454545454,
                "end_time": 9.411363636363635,
                "pitch": 67,
                "velocity": 80,
                "duration": 0.13181818181818095,
                "tempo": 120.0
            },
            {
                "start_time": 9.413636363636364,
                "end_time": 9.545454545454545,
                "pitch": 69,
                "velocity": 80,
                "duration": 0.13181818181818095,
                "tempo": 120.0
            },
            {
                "start_time": 9.545454545454545,
                "end_time": 9.679545454545455,
                "pitch": 71,
                "velocity": 80,
                "duration": 0.1340909090909097,
                "tempo": 120.0
            },
            {
                "start_time": 9.681818181818182,
                "end_time": 9.813636363636363,
                "pitch": 69,
                "velocity": 80,
                "duration": 0.13181818181818095,
                "tempo": 120.0
            },
            {
                "start_time": 9.81590909090909,
                "end_time": 9.95,
                "pitch": 64,
                "velocity": 80,
                "duration": 0.1340909090909097,
                "tempo": 120.0
            },
            {
                "start_time": 9.95,
                "end_time": 10.088636363636363,
                "pitch": 60,
                "velocity": 80,
                "duration": 0.13863636363636367,
                "tempo": 120.0
            },
            {
                "start_time": 10.088636363636363,
                "end_time": 10.225,
                "pitch": 67,
                "velocity": 80,
                "duration": 0.1363636363636367,
                "tempo": 120.0
            },
            {
                "start_time": 10.225,
                "end_time": 10.35909090909091,
                "pitch": 66,
                "velocity": 80,
                "duration": 0.1340909090909097,
                "tempo": 120.0
            },
            {
                "start_time": 10.35909090909091,
                "end_time": 10.488636363636363,
                "pitch": 64,
                "velocity": 80,
                "duration": 0.12954545454545396,
                "tempo": 120.0
            },
            {
                "start_time": 10.49090909090909,
                "end_time": 10.620454545454544,
                "pitch": 69,
                "velocity": 80,
                "duration": 0.12954545454545396,
                "tempo": 120.0
            },
            {
                "start_time": 10.620454545454544,
                "end_time": 10.754545454545454,
                "pitch": 64,
                "velocity": 80,
                "duration": 0.1340909090909097,
                "tempo": 120.0
            },
            {
                "start_time": 10.754545454545454,
                "end_time": 10.89090909090909,
                "pitch": 66,
                "velocity": 80,
                "duration": 0.1363636363636367,
                "tempo": 120.0
            },
            {
                "start_time": 10.893181818181818,
                "end_time": 11.027272727272727,
                "pitch": 67,
                "velocity": 80,
                "duration": 0.1340909090909097,
                "tempo": 120.0
            },
            {
                "start_time": 11.029545454545454,
                "end_time": 11.163636363636362,
                "pitch": 69,
                "velocity": 80,
                "duration": 0.13409090909090793,
                "tempo": 120.0
            },
            {
                "start_time": 11.165909090909091,
                "end_time": 11.299999999999999,
                "pitch": 67,
                "velocity": 80,
                "duration": 0.13409090909090793,
                "tempo": 120.0
            },
            {
                "start_time": 11.299999999999999,
                "end_time": 11.431818181818182,
                "pitch": 65,
                "velocity": 80,
                "duration": 0.13181818181818272,
                "tempo": 120.0
            },
            {
                "start_time": 11.434090909090909,
                "end_time": 11.56590909090909,
                "pitch": 67,
                "velocity": 80,
                "duration": 0.13181818181818095,
                "tempo": 120.0
            },
            {
                "start_time": 11.568181818181818,
                "end_time": 11.7,
                "pitch": 65,
                "velocity": 80,
                "duration": 0.13181818181818095,
                "tempo": 120.0
            },
            {
                "start_time": 11.702272727272726,
                "end_time": 12.102272727272727,
                "pitch": 62,
                "velocity": 80,
                "duration": 0.40000000000000036,
                "tempo": 120.0
            },
            {
                "start_time": 12.102272727272727,
                "end_time": 12.236363636363636,
                "pitch": 65,
                "velocity": 80,
                "duration": 0.1340909090909097,
                "tempo": 120.0
            },
            {
                "start_time": 12.236363636363636,
                "end_time": 12.370454545454544,
                "pitch": 64,
                "velocity": 80,
                "duration": 0.13409090909090793,
                "tempo": 120.0
            },
            {
                "start_time": 12.372727272727271,
                "end_time": 12.504545454545454,
                "pitch": 62,
                "velocity": 80,
                "duration": 0.13181818181818272,
                "tempo": 120.0
            },
            {
                "start_time": 12.506818181818181,
                "end_time": 12.64090909090909,
                "pitch": 60,
                "velocity": 80,
                "duration": 0.1340909090909097,
                "tempo": 120.0
            },
            {
                "start_time": 12.64090909090909,
                "end_time": 12.774999999999999,
                "pitch": 59,
                "velocity": 80,
                "duration": 0.13409090909090793,
                "tempo": 120.0
            },
            {
                "start_time": 12.774999999999999,
                "end_time": 12.909090909090908,
                "pitch": 57,
                "velocity": 80,
                "duration": 0.1340909090909097,
                "tempo": 120.0
            },
            {
                "start_time": 12.911363636363635,
                "end_time": 13.043181818181818,
                "pitch": 59,
                "velocity": 80,
                "duration": 0.13181818181818272,
                "tempo": 120.0
            },
            {
                "start_time": 13.043181818181818,
                "end_time": 13.177272727272726,
                "pitch": 60,
                "velocity": 80,
                "duration": 0.13409090909090793,
                "tempo": 120.0
            },
            {
                "start_time": 13.177272727272726,
                "end_time": 13.311363636363636,
                "pitch": 62,
                "velocity": 80,
                "duration": 0.1340909090909097,
                "tempo": 120.0
            },
            {
                "start_time": 13.313636363636363,
                "end_time": 13.445454545454545,
                "pitch": 64,
                "velocity": 80,
                "duration": 0.13181818181818272,
                "tempo": 120.0
            },
            {
                "start_time": 13.447727272727272,
                "end_time": 13.579545454545453,
                "pitch": 62,
                "velocity": 80,
                "duration": 0.13181818181818095,
                "tempo": 120.0
            },
            {
                "start_time": 13.581818181818182,
                "end_time": 13.713636363636363,
                "pitch": 60,
                "velocity": 80,
                "duration": 0.13181818181818095,
                "tempo": 120.0
            },
            {
                "start_time": 13.71590909090909,
                "end_time": 13.847727272727273,
                "pitch": 59,
                "velocity": 80,
                "duration": 0.13181818181818272,
                "tempo": 120.0
            },
            {
                "start_time": 13.847727272727273,
                "end_time": 13.98181818181818,
                "pitch": 62,
                "velocity": 80,
                "duration": 0.13409090909090793,
                "tempo": 120.0
            },
            {
                "start_time": 13.98181818181818,
                "end_time": 14.11590909090909,
                "pitch": 64,
                "velocity": 80,
                "duration": 0.1340909090909097,
                "tempo": 120.0
            },
            {
                "start_time": 14.11590909090909,
                "end_time": 14.25,
                "pitch": 66,
                "velocity": 80,
                "duration": 0.1340909090909097,
                "tempo": 120.0
            },
            {
                "start_time": 14.25,
                "end_time": 14.384090909090908,
                "pitch": 67,
                "velocity": 80,
                "duration": 0.13409090909090793,
                "tempo": 120.0
            },
            {
                "start_time": 14.384090909090908,
                "end_time": 14.518181818181818,
                "pitch": 66,
                "velocity": 80,
                "duration": 0.1340909090909097,
                "tempo": 120.0
            },
            {
                "start_time": 14.520454545454545,
                "end_time": 14.652272727272727,
                "pitch": 67,
                "velocity": 80,
                "duration": 0.13181818181818272,
                "tempo": 120.0
            },
            {
                "start_time": 14.654545454545454,
                "end_time": 14.788636363636362,
                "pitch": 66,
                "velocity": 80,
                "duration": 0.13409090909090793,
                "tempo": 120.0
            },
            {
                "start_time": 14.788636363636362,
                "end_time": 14.922727272727272,
                "pitch": 64,
                "velocity": 80,
                "duration": 0.1340909090909097,
                "tempo": 120.0
            },
            {
                "start_time": 14.922727272727272,
                "end_time": 15.325,
                "pitch": 62,
                "velocity": 80,
                "duration": 0.40227272727272734,
                "tempo": 120.0
            },
            {
                "start_time": 15.327272727272726,
                "end_time": 15.459090909090909,
                "pitch": 64,
                "velocity": 80,
                "duration": 0.13181818181818272,
                "tempo": 120.0
            },
            {
                "start_time": 15.461363636363636,
                "end_time": 15.593181818181817,
                "pitch": 62,
                "velocity": 80,
                "duration": 0.13181818181818095,
                "tempo": 120.0
            },
            {
                "start_time": 15.595454545454544,
                "end_time": 15.727272727272727,
                "pitch": 60,
                "velocity": 80,
                "duration": 0.13181818181818272,
                "tempo": 120.0
            },
            {
                "start_time": 15.727272727272727,
                "end_time": 15.861363636363636,
                "pitch": 57,
                "velocity": 80,
                "duration": 0.1340909090909097,
                "tempo": 120.0
            },
            {
                "start_time": 15.861363636363636,
                "end_time": 15.995454545454544,
                "pitch": 59,
                "velocity": 80,
                "duration": 0.13409090909090793,
                "tempo": 120.0
            },
            {
                "start_time": 15.995454545454544,
                "end_time": 16.129545454545454,
                "pitch": 60,
                "velocity": 80,
                "duration": 0.1340909090909097,
                "tempo": 120.0
            },
            {
                "start_time": 16.129545454545454,
                "end_time": 16.263636363636362,
                "pitch": 62,
                "velocity": 80,
                "duration": 0.13409090909090793,
                "tempo": 120.0
            },
            {
                "start_time": 16.263636363636362,
                "end_time": 16.397727272727273,
                "pitch": 59,
                "velocity": 80,
                "duration": 0.13409090909091148,
                "tempo": 120.0
            },
            {
                "start_time": 16.397727272727273,
                "end_time": 16.53181818181818,
                "pitch": 60,
                "velocity": 80,
                "duration": 0.13409090909090793,
                "tempo": 120.0
            },
            {
                "start_time": 16.53409090909091,
                "end_time": 16.66590909090909,
                "pitch": 62,
                "velocity": 80,
                "duration": 0.13181818181817917,
                "tempo": 120.0
            },
            {
                "start_time": 16.668181818181818,
                "end_time": 16.8,
                "pitch": 64,
                "velocity": 80,
                "duration": 0.13181818181818272,
                "tempo": 120.0
            },
            {
                "start_time": 16.802272727272726,
                "end_time": 16.93409090909091,
                "pitch": 66,
                "velocity": 80,
                "duration": 0.13181818181818272,
                "tempo": 120.0
            },
            {
                "start_time": 16.93409090909091,
                "end_time": 17.068181818181817,
                "pitch": 64,
                "velocity": 80,
                "duration": 0.13409090909090793,
                "tempo": 120.0
            },
            {
                "start_time": 17.068181818181817,
                "end_time": 17.202272727272728,
                "pitch": 66,
                "velocity": 80,
                "duration": 0.13409090909091148,
                "tempo": 120.0
            },
            {
                "start_time": 17.202272727272728,
                "end_time": 17.336363636363636,
                "pitch": 67,
                "velocity": 80,
                "duration": 0.13409090909090793,
                "tempo": 120.0
            },
            {
                "start_time": 17.336363636363636,
                "end_time": 17.470454545454544,
                "pitch": 66,
                "velocity": 80,
                "duration": 0.13409090909090793,
                "tempo": 120.0
            },
            {
                "start_time": 17.470454545454544,
                "end_time": 17.604545454545455,
                "pitch": 62,
                "velocity": 80,
                "duration": 0.13409090909091148,
                "tempo": 120.0
            },
            {
                "start_time": 17.604545454545455,
                "end_time": 17.738636363636363,
                "pitch": 59,
                "velocity": 80,
                "duration": 0.13409090909090793,
                "tempo": 120.0
            },
            {
                "start_time": 17.738636363636363,
                "end_time": 17.870454545454546,
                "pitch": 60,
                "velocity": 80,
                "duration": 0.13181818181818272,
                "tempo": 120.0
            },
            {
                "start_time": 17.87272727272727,
                "end_time": 18.00681818181818,
                "pitch": 64,
                "velocity": 80,
                "duration": 0.13409090909090793,
                "tempo": 120.0
            },
            {
                "start_time": 18.00681818181818,
                "end_time": 18.143181818181816,
                "pitch": 66,
                "velocity": 80,
                "duration": 0.1363636363636367,
                "tempo": 120.0
            },
            {
                "start_time": 18.145454545454545,
                "end_time": 18.545454545454543,
                "pitch": 62,
                "velocity": 80,
                "duration": 0.3999999999999986,
                "tempo": 120.0
            },
            {
                "start_time": 18.545454545454543,
                "end_time": 18.677272727272726,
                "pitch": 59,
                "velocity": 80,
                "duration": 0.13181818181818272,
                "tempo": 120.0
            },
            {
                "start_time": 18.677272727272726,
                "end_time": 18.80909090909091,
                "pitch": 60,
                "velocity": 80,
                "duration": 0.13181818181818272,
                "tempo": 120.0
            },
            {
                "start_time": 18.811363636363634,
                "end_time": 18.94772727272727,
                "pitch": 62,
                "velocity": 80,
                "duration": 0.1363636363636367,
                "tempo": 120.0
            },
            {
                "start_time": 18.94772727272727,
                "end_time": 19.084090909090907,
                "pitch": 64,
                "velocity": 80,
                "duration": 0.1363636363636367,
                "tempo": 120.0
            },
            {
                "start_time": 19.084090909090907,
                "end_time": 19.220454545454544,
                "pitch": 66,
                "velocity": 80,
                "duration": 0.1363636363636367,
                "tempo": 120.0
            },
            {
                "start_time": 19.220454545454544,
                "end_time": 19.354545454545452,
                "pitch": 67,
                "velocity": 80,
                "duration": 0.13409090909090793,
                "tempo": 120.0
            },
            {
                "start_time": 19.354545454545452,
                "end_time": 19.486363636363635,
                "pitch": 64,
                "velocity": 80,
                "duration": 0.13181818181818272,
                "tempo": 120.0
            },
            {
                "start_time": 19.488636363636363,
                "end_time": 19.620454545454546,
                "pitch": 66,
                "velocity": 80,
                "duration": 0.13181818181818272,
                "tempo": 120.0
            },
            {
                "start_time": 19.620454545454546,
                "end_time": 19.754545454545454,
                "pitch": 67,
                "velocity": 80,
                "duration": 0.13409090909090793,
                "tempo": 120.0
            },
            {
                "start_time": 19.75681818181818,
                "end_time": 20.15681818181818,
                "pitch": 64,
                "velocity": 80,
                "duration": 0.40000000000000213,
                "tempo": 120.0
            },
            {
                "start_time": 20.159090909090907,
                "end_time": 20.29090909090909,
                "pitch": 60,
                "velocity": 80,
                "duration": 0.13181818181818272,
                "tempo": 120.0
            },
            {
                "start_time": 20.29090909090909,
                "end_time": 20.425,
                "pitch": 62,
                "velocity": 80,
                "duration": 0.13409090909091148,
                "tempo": 120.0
            },
            {
                "start_time": 20.425,
                "end_time": 20.55909090909091,
                "pitch": 64,
                "velocity": 80,
                "duration": 0.13409090909090793,
                "tempo": 120.0
            },
            {
                "start_time": 20.55909090909091,
                "end_time": 20.693181818181817,
                "pitch": 60,
                "velocity": 80,
                "duration": 0.13409090909090793,
                "tempo": 120.0
            },
            {
                "start_time": 20.693181818181817,
                "end_time": 20.827272727272724,
                "pitch": 57,
                "velocity": 80,
                "duration": 0.13409090909090793,
                "tempo": 120.0
            },
            {
                "start_time": 20.827272727272724,
                "end_time": 20.961363636363636,
                "pitch": 59,
                "velocity": 80,
                "duration": 0.13409090909091148,
                "tempo": 120.0
            },
            {
                "start_time": 20.961363636363636,
                "end_time": 21.09318181818182,
                "pitch": 60,
                "velocity": 80,
                "duration": 0.13181818181818272,
                "tempo": 120.0
            },
            {
                "start_time": 21.095454545454544,
                "end_time": 21.227272727272727,
                "pitch": 62,
                "velocity": 80,
                "duration": 0.13181818181818272,
                "tempo": 120.0
            },
            {
                "start_time": 21.229545454545452,
                "end_time": 21.361363636363635,
                "pitch": 64,
                "velocity": 80,
                "duration": 0.13181818181818272,
                "tempo": 120.0
            },
            {
                "start_time": 21.361363636363635,
                "end_time": 21.495454545454546,
                "pitch": 67,
                "velocity": 80,
                "duration": 0.13409090909091148,
                "tempo": 120.0
            },
            {
                "start_time": 21.495454545454546,
                "end_time": 21.629545454545454,
                "pitch": 66,
                "velocity": 80,
                "duration": 0.13409090909090793,
                "tempo": 120.0
            },
            {
                "start_time": 21.629545454545454,
                "end_time": 21.763636363636362,
                "pitch": 64,
                "velocity": 80,
                "duration": 0.13409090909090793,
                "tempo": 120.0
            },
            {
                "start_time": 21.763636363636362,
                "end_time": 21.897727272727273,
                "pitch": 60,
                "velocity": 80,
                "duration": 0.13409090909091148,
                "tempo": 120.0
            },
            {
                "start_time": 21.897727272727273,
                "end_time": 22.03181818181818,
                "pitch": 64,
                "velocity": 80,
                "duration": 0.13409090909090793,
                "tempo": 120.0
            },
            {
                "start_time": 22.03181818181818,
                "end_time": 22.16590909090909,
                "pitch": 66,
                "velocity": 80,
                "duration": 0.13409090909090793,
                "tempo": 120.0
            },
            {
                "start_time": 22.16590909090909,
                "end_time": 22.297727272727272,
                "pitch": 67,
                "velocity": 80,
                "duration": 0.13181818181818272,
                "tempo": 120.0
            },
            {
                "start_time": 22.299999999999997,
                "end_time": 22.43181818181818,
                "pitch": 69,
                "velocity": 80,
                "duration": 0.13181818181818272,
                "tempo": 120.0
            },
            {
                "start_time": 22.43409090909091,
                "end_time": 22.568181818181817,
                "pitch": 71,
                "velocity": 80,
                "duration": 0.13409090909090793,
                "tempo": 120.0
            },
            {
                "start_time": 22.568181818181817,
                "end_time": 22.702272727272724,
                "pitch": 69,
                "velocity": 80,
                "duration": 0.13409090909090793,
                "tempo": 120.0
            },
            {
                "start_time": 22.702272727272724,
                "end_time": 22.834090909090907,
                "pitch": 64,
                "velocity": 80,
                "duration": 0.13181818181818272,
                "tempo": 120.0
            },
            {
                "start_time": 22.836363636363636,
                "end_time": 22.96818181818182,
                "pitch": 60,
                "velocity": 80,
                "duration": 0.13181818181818272,
                "tempo": 120.0
            },
            {
                "start_time": 22.970454545454544,
                "end_time": 23.102272727272727,
                "pitch": 67,
                "velocity": 80,
                "duration": 0.13181818181818272,
                "tempo": 120.0
            },
            {
                "start_time": 23.102272727272727,
                "end_time": 23.236363636363635,
                "pitch": 66,
                "velocity": 80,
                "duration": 0.13409090909090793,
                "tempo": 120.0
            },
            {
                "start_time": 23.236363636363635,
                "end_time": 23.370454545454546,
                "pitch": 64,
                "velocity": 80,
                "duration": 0.13409090909091148,
                "tempo": 120.0
            },
            {
                "start_time": 23.370454545454546,
                "end_time": 23.502272727272725,
                "pitch": 69,
                "velocity": 80,
                "duration": 0.13181818181817917,
                "tempo": 120.0
            },
            {
                "start_time": 23.504545454545454,
                "end_time": 23.636363636363637,
                "pitch": 64,
                "velocity": 80,
                "duration": 0.13181818181818272,
                "tempo": 120.0
            },
            {
                "start_time": 23.638636363636362,
                "end_time": 23.770454545454545,
                "pitch": 66,
                "velocity": 80,
                "duration": 0.13181818181818272,
                "tempo": 120.0
            },
            {
                "start_time": 23.77272727272727,
                "end_time": 23.904545454545453,
                "pitch": 67,
                "velocity": 80,
                "duration": 0.13181818181818272,
                "tempo": 120.0
            },
            {
                "start_time": 23.90681818181818,
                "end_time": 24.038636363636364,
                "pitch": 69,
                "velocity": 80,
                "duration": 0.13181818181818272,
                "tempo": 120.0
            },
            {
                "start_time": 24.04090909090909,
                "end_time": 24.172727272727272,
                "pitch": 67,
                "velocity": 80,
                "duration": 0.13181818181818272,
                "tempo": 120.0
            },
            {
                "start_time": 24.174999999999997,
                "end_time": 24.30681818181818,
                "pitch": 65,
                "velocity": 80,
                "duration": 0.13181818181818272,
                "tempo": 120.0
            },
            {
                "start_time": 24.30681818181818,
                "end_time": 24.44090909090909,
                "pitch": 67,
                "velocity": 80,
                "duration": 0.13409090909091148,
                "tempo": 120.0
            },
            {
                "start_time": 24.44090909090909,
                "end_time": 24.575,
                "pitch": 65,
                "velocity": 80,
                "duration": 0.13409090909090793,
                "tempo": 120.0
            },
            {
                "start_time": 24.575,
                "end_time": 24.709090909090907,
                "pitch": 62,
                "velocity": 80,
                "duration": 0.13409090909090793,
                "tempo": 120.0
            },
            {
                "start_time": 24.709090909090907,
                "end_time": 24.84318181818182,
                "pitch": 64,
                "velocity": 80,
                "duration": 0.13409090909091148,
                "tempo": 120.0
            },
            {
                "start_time": 24.84318181818182,
                "end_time": 24.977272727272727,
                "pitch": 65,
                "velocity": 80,
                "duration": 0.13409090909090793,
                "tempo": 120.0
            },
            {
                "start_time": 24.977272727272727,
                "end_time": 25.10909090909091,
                "pitch": 67,
                "velocity": 80,
                "duration": 0.13181818181818272,
                "tempo": 120.0
            },
            {
                "start_time": 25.111363636363635,
                "end_time": 25.245454545454542,
                "pitch": 62,
                "velocity": 80,
                "duration": 0.13409090909090793,
                "tempo": 120.0
            },
            {
                "start_time": 25.245454545454542,
                "end_time": 25.38181818181818,
                "pitch": 64,
                "velocity": 80,
                "duration": 0.1363636363636367,
                "tempo": 120.0
            },
            {
                "start_time": 25.384090909090908,
                "end_time": 25.520454545454545,
                "pitch": 65,
                "velocity": 80,
                "duration": 0.1363636363636367,
                "tempo": 120.0
            },
            {
                "start_time": 25.520454545454545,
                "end_time": 25.654545454545453,
                "pitch": 67,
                "velocity": 80,
                "duration": 0.13409090909090793,
                "tempo": 120.0
            },
            {
                "start_time": 25.654545454545453,
                "end_time": 25.784090909090907,
                "pitch": 69,
                "velocity": 80,
                "duration": 0.12954545454545396,
                "tempo": 120.0
            },
            {
                "start_time": 25.786363636363635,
                "end_time": 26.459090909090907,
                "pitch": 69,
                "velocity": 80,
                "duration": 0.672727272727272,
                "tempo": 120.0
            },
            {
                "start_time": 26.459090909090907,
                "end_time": 26.593181818181815,
                "pitch": 67,
                "velocity": 80,
                "duration": 0.13409090909090793,
                "tempo": 120.0
            },
            {
                "start_time": 26.593181818181815,
                "end_time": 26.724999999999998,
                "pitch": 70,
                "velocity": 80,
                "duration": 0.13181818181818272,
                "tempo": 120.0
            },
            {
                "start_time": 26.727272727272727,
                "end_time": 26.85909090909091,
                "pitch": 72,
                "velocity": 80,
                "duration": 0.13181818181818272,
                "tempo": 120.0
            },
            {
                "start_time": 26.861363636363635,
                "end_time": 26.995454545454542,
                "pitch": 70,
                "velocity": 80,
                "duration": 0.13409090909090793,
                "tempo": 120.0
            },
            {
                "start_time": 26.995454545454542,
                "end_time": 27.129545454545454,
                "pitch": 69,
                "velocity": 80,
                "duration": 0.13409090909091148,
                "tempo": 120.0
            },
            {
                "start_time": 27.129545454545454,
                "end_time": 27.263636363636362,
                "pitch": 70,
                "velocity": 80,
                "duration": 0.13409090909090793,
                "tempo": 120.0
            },
            {
                "start_time": 27.263636363636362,
                "end_time": 27.39772727272727,
                "pitch": 69,
                "velocity": 80,
                "duration": 0.13409090909090793,
                "tempo": 120.0
            },
            {
                "start_time": 27.39772727272727,
                "end_time": 28.063636363636363,
                "pitch": 68,
                "velocity": 80,
                "duration": 0.6659090909090928,
                "tempo": 120.0
            },
            {
                "start_time": 28.065909090909088,
                "end_time": 28.19772727272727,
                "pitch": 65,
                "velocity": 80,
                "duration": 0.13181818181818272,
                "tempo": 120.0
            },
            {
                "start_time": 28.2,
                "end_time": 28.331818181818182,
                "pitch": 70,
                "velocity": 80,
                "duration": 0.13181818181818272,
                "tempo": 120.0
            },
            {
                "start_time": 28.334090909090907,
                "end_time": 28.46590909090909,
                "pitch": 72,
                "velocity": 80,
                "duration": 0.13181818181818272,
                "tempo": 120.0
            },
            {
                "start_time": 28.468181818181815,
                "end_time": 28.599999999999998,
                "pitch": 70,
                "velocity": 80,
                "duration": 0.13181818181818272,
                "tempo": 120.0
            },
            {
                "start_time": 28.602272727272727,
                "end_time": 28.73409090909091,
                "pitch": 68,
                "velocity": 80,
                "duration": 0.13181818181818272,
                "tempo": 120.0
            },
            {
                "start_time": 28.73409090909091,
                "end_time": 28.868181818181817,
                "pitch": 70,
                "velocity": 80,
                "duration": 0.13409090909090793,
                "tempo": 120.0
            },
            {
                "start_time": 28.868181818181817,
                "end_time": 29.002272727272725,
                "pitch": 68,
                "velocity": 80,
                "duration": 0.13409090909090793,
                "tempo": 120.0
            },
            {
                "start_time": 29.004545454545454,
                "end_time": 29.136363636363637,
                "pitch": 67,
                "velocity": 80,
                "duration": 0.13181818181818272,
                "tempo": 120.0
            },
            {
                "start_time": 29.136363636363637,
                "end_time": 29.270454545454545,
                "pitch": 64,
                "velocity": 80,
                "duration": 0.13409090909090793,
                "tempo": 120.0
            },
            {
                "start_time": 29.270454545454545,
                "end_time": 29.404545454545453,
                "pitch": 65,
                "velocity": 80,
                "duration": 0.13409090909090793,
                "tempo": 120.0
            },
            {
                "start_time": 29.404545454545453,
                "end_time": 29.53863636363636,
                "pitch": 67,
                "velocity": 80,
                "duration": 0.13409090909090793,
                "tempo": 120.0
            },
            {
                "start_time": 29.53863636363636,
                "end_time": 29.670454545454543,
                "pitch": 70,
                "velocity": 80,
                "duration": 0.13181818181818272,
                "tempo": 120.0
            },
            {
                "start_time": 29.672727272727272,
                "end_time": 29.804545454545455,
                "pitch": 64,
                "velocity": 80,
                "duration": 0.13181818181818272,
                "tempo": 120.0
            },
            {
                "start_time": 29.804545454545455,
                "end_time": 29.938636363636363,
                "pitch": 67,
                "velocity": 80,
                "duration": 0.13409090909090793,
                "tempo": 120.0
            },
            {
                "start_time": 29.938636363636363,
                "end_time": 30.07272727272727,
                "pitch": 65,
                "velocity": 80,
                "duration": 0.13409090909090793,
                "tempo": 120.0
            },
            {
                "start_time": 30.07272727272727,
                "end_time": 30.206818181818182,
                "pitch": 64,
                "velocity": 80,
                "duration": 0.13409090909091148,
                "tempo": 120.0
            },
            {
                "start_time": 30.206818181818182,
                "end_time": 30.60909090909091,
                "pitch": 67,
                "velocity": 80,
                "duration": 0.40227272727272734,
                "tempo": 120.0
            },
            {
                "start_time": 30.60909090909091,
                "end_time": 30.74090909090909,
                "pitch": 60,
                "velocity": 80,
                "duration": 0.13181818181817917,
                "tempo": 120.0
            },
            {
                "start_time": 30.743181818181817,
                "end_time": 30.875,
                "pitch": 67,
                "velocity": 80,
                "duration": 0.13181818181818272,
                "tempo": 120.0
            },
            {
                "start_time": 30.877272727272725,
                "end_time": 31.011363636363633,
                "pitch": 65,
                "velocity": 80,
                "duration": 0.13409090909090793,
                "tempo": 120.0
            },
            {
                "start_time": 31.011363636363633,
                "end_time": 31.411363636363635,
                "pitch": 64,
                "velocity": 80,
                "duration": 0.40000000000000213,
                "tempo": 120.0
            },
            {
                "start_time": 31.41363636363636,
                "end_time": 31.545454545454543,
                "pitch": 62,
                "velocity": 80,
                "duration": 0.13181818181818272,
                "tempo": 120.0
            },
            {
                "start_time": 31.545454545454543,
                "end_time": 31.679545454545455,
                "pitch": 65,
                "velocity": 80,
                "duration": 0.13409090909091148,
                "tempo": 120.0
            },
            {
                "start_time": 31.679545454545455,
                "end_time": 31.813636363636363,
                "pitch": 64,
                "velocity": 80,
                "duration": 0.13409090909090793,
                "tempo": 120.0
            },
            {
                "start_time": 31.813636363636363,
                "end_time": 32.215909090909086,
                "pitch": 62,
                "velocity": 80,
                "duration": 0.4022727272727238,
                "tempo": 120.0
            },
            {
                "start_time": 32.215909090909086,
                "end_time": 33.02045454545454,
                "pitch": 69,
                "velocity": 80,
                "duration": 0.8045454545454547,
                "tempo": 120.0
            },
            {
                "start_time": 33.02045454545454,
                "end_time": 33.152272727272724,
                "pitch": 67,
                "velocity": 80,
                "duration": 0.13181818181818272,
                "tempo": 120.0
            },
            {
                "start_time": 33.154545454545456,
                "end_time": 33.28636363636363,
                "pitch": 69,
                "velocity": 80,
                "duration": 0.13181818181817562,
                "tempo": 120.0
            },
            {
                "start_time": 33.28636363636363,
                "end_time": 33.42045454545455,
                "pitch": 70,
                "velocity": 80,
                "duration": 0.13409090909091503,
                "tempo": 120.0
            },
            {
                "start_time": 33.42045454545455,
                "end_time": 33.554545454545455,
                "pitch": 65,
                "velocity": 80,
                "duration": 0.13409090909090793,
                "tempo": 120.0
            },
            {
                "start_time": 33.554545454545455,
                "end_time": 33.68863636363636,
                "pitch": 67,
                "velocity": 80,
                "duration": 0.13409090909090793,
                "tempo": 120.0
            },
            {
                "start_time": 33.68863636363636,
                "end_time": 33.82727272727273,
                "pitch": 68,
                "velocity": 80,
                "duration": 0.13863636363636545,
                "tempo": 120.0
            },
            {
                "start_time": 33.82727272727273,
                "end_time": 33.96363636363636,
                "pitch": 66,
                "velocity": 80,
                "duration": 0.13636363636363313,
                "tempo": 120.0
            },
            {
                "start_time": 33.96363636363636,
                "end_time": 34.09772727272727,
                "pitch": 68,
                "velocity": 80,
                "duration": 0.13409090909090793,
                "tempo": 120.0
            },
            {
                "start_time": 34.1,
                "end_time": 34.23409090909091,
                "pitch": 66,
                "velocity": 80,
                "duration": 0.13409090909090793,
                "tempo": 120.0
            },
            {
                "start_time": 34.23409090909091,
                "end_time": 34.36818181818182,
                "pitch": 65,
                "velocity": 80,
                "duration": 0.13409090909090793,
                "tempo": 120.0
            },
            {
                "start_time": 34.36818181818182,
                "end_time": 34.502272727272725,
                "pitch": 66,
                "velocity": 80,
                "duration": 0.13409090909090793,
                "tempo": 120.0
            },
            {
                "start_time": 34.502272727272725,
                "end_time": 34.63636363636363,
                "pitch": 66,
                "velocity": 80,
                "duration": 0.13409090909090793,
                "tempo": 120.0
            },
            {
                "start_time": 34.63636363636363,
                "end_time": 34.768181818181816,
                "pitch": 63,
                "velocity": 80,
                "duration": 0.13181818181818272,
                "tempo": 120.0
            },
            {
                "start_time": 34.77045454545454,
                "end_time": 34.902272727272724,
                "pitch": 65,
                "velocity": 80,
                "duration": 0.13181818181818272,
                "tempo": 120.0
            },
            {
                "start_time": 34.902272727272724,
                "end_time": 35.03636363636363,
                "pitch": 63,
                "velocity": 80,
                "duration": 0.13409090909090793,
                "tempo": 120.0
            },
            {
                "start_time": 35.03636363636363,
                "end_time": 35.168181818181814,
                "pitch": 61,
                "velocity": 80,
                "duration": 0.13181818181818272,
                "tempo": 120.0
            },
            {
                "start_time": 35.17045454545455,
                "end_time": 35.30227272727272,
                "pitch": 63,
                "velocity": 80,
                "duration": 0.13181818181817562,
                "tempo": 120.0
            },
            {
                "start_time": 35.304545454545455,
                "end_time": 35.43636363636364,
                "pitch": 61,
                "velocity": 80,
                "duration": 0.13181818181818272,
                "tempo": 120.0
            },
            {
                "start_time": 35.43636363636364,
                "end_time": 35.570454545454545,
                "pitch": 60,
                "velocity": 80,
                "duration": 0.13409090909090793,
                "tempo": 120.0
            },
            {
                "start_time": 35.570454545454545,
                "end_time": 35.70227272727273,
                "pitch": 65,
                "velocity": 80,
                "duration": 0.13181818181818272,
                "tempo": 120.0
            },
            {
                "start_time": 35.70454545454545,
                "end_time": 35.836363636363636,
                "pitch": 64,
                "velocity": 80,
                "duration": 0.13181818181818272,
                "tempo": 120.0
            },
            {
                "start_time": 35.83863636363636,
                "end_time": 35.970454545454544,
                "pitch": 62,
                "velocity": 80,
                "duration": 0.13181818181818272,
                "tempo": 120.0
            },
            {
                "start_time": 35.970454545454544,
                "end_time": 36.10454545454545,
                "pitch": 65,
                "velocity": 80,
                "duration": 0.13409090909090793,
                "tempo": 120.0
            },
            {
                "start_time": 36.10454545454545,
                "end_time": 36.23863636363636,
                "pitch": 63,
                "velocity": 80,
                "duration": 0.13409090909090793,
                "tempo": 120.0
            },
            {
                "start_time": 36.23863636363636,
                "end_time": 36.37272727272727,
                "pitch": 60,
                "velocity": 80,
                "duration": 0.13409090909090793,
                "tempo": 120.0
            },
            {
                "start_time": 36.37272727272727,
                "end_time": 36.50681818181818,
                "pitch": 65,
                "velocity": 80,
                "duration": 0.13409090909091503,
                "tempo": 120.0
            },
            {
                "start_time": 36.50681818181818,
                "end_time": 36.64090909090909,
                "pitch": 63,
                "velocity": 80,
                "duration": 0.13409090909090793,
                "tempo": 120.0
            },
            {
                "start_time": 36.64090909090909,
                "end_time": 36.775,
                "pitch": 62,
                "velocity": 80,
                "duration": 0.13409090909090793,
                "tempo": 120.0
            },
            {
                "start_time": 36.775,
                "end_time": 36.90681818181818,
                "pitch": 65,
                "velocity": 80,
                "duration": 0.13181818181818272,
                "tempo": 120.0
            },
            {
                "start_time": 36.90909090909091,
                "end_time": 37.04090909090909,
                "pitch": 63,
                "velocity": 80,
                "duration": 0.13181818181818272,
                "tempo": 120.0
            },
            {
                "start_time": 37.043181818181814,
                "end_time": 37.175,
                "pitch": 59,
                "velocity": 80,
                "duration": 0.13181818181818272,
                "tempo": 120.0
            },
            {
                "start_time": 37.175,
                "end_time": 37.30681818181818,
                "pitch": 65,
                "velocity": 80,
                "duration": 0.13181818181818272,
                "tempo": 120.0
            },
            {
                "start_time": 37.309090909090905,
                "end_time": 37.44090909090909,
                "pitch": 63,
                "velocity": 80,
                "duration": 0.13181818181818272,
                "tempo": 120.0
            },
            {
                "start_time": 37.44318181818181,
                "end_time": 37.574999999999996,
                "pitch": 62,
                "velocity": 80,
                "duration": 0.13181818181818272,
                "tempo": 120.0
            },
            {
                "start_time": 37.574999999999996,
                "end_time": 37.70909090909091,
                "pitch": 65,
                "velocity": 80,
                "duration": 0.13409090909091503,
                "tempo": 120.0
            },
            {
                "start_time": 37.70909090909091,
                "end_time": 37.84318181818182,
                "pitch": 63,
                "velocity": 80,
                "duration": 0.13409090909090793,
                "tempo": 120.0
            },
            {
                "start_time": 37.84318181818182,
                "end_time": 37.975,
                "pitch": 60,
                "velocity": 80,
                "duration": 0.13181818181818272,
                "tempo": 120.0
            },
            {
                "start_time": 37.97727272727273,
                "end_time": 38.10909090909091,
                "pitch": 66,
                "velocity": 80,
                "duration": 0.13181818181818272,
                "tempo": 120.0
            },
            {
                "start_time": 38.10909090909091,
                "end_time": 38.24318181818182,
                "pitch": 63,
                "velocity": 80,
                "duration": 0.13409090909090793,
                "tempo": 120.0
            },
            {
                "start_time": 38.24545454545454,
                "end_time": 38.377272727272725,
                "pitch": 60,
                "velocity": 80,
                "duration": 0.13181818181818272,
                "tempo": 120.0
            },
            {
                "start_time": 38.37954545454545,
                "end_time": 38.51136363636363,
                "pitch": 57,
                "velocity": 80,
                "duration": 0.13181818181818272,
                "tempo": 120.0
            },
            {
                "start_time": 38.51363636363636,
                "end_time": 38.64545454545454,
                "pitch": 54,
                "velocity": 80,
                "duration": 0.13181818181818272,
                "tempo": 120.0
            },
            {
                "start_time": 38.652272727272724,
                "end_time": 38.654545454545456,
                "pitch": 59,
                "velocity": 80,
                "duration": 0.002272727272732311,
                "tempo": 120.0
            }
        ]
    }
}