{
    "track_id": "06 Cemetery",
    "mood": "happy",
    "instruments": {
        "Acoustic Bass": [
            {
                "start_time": 1.6749999999999998,
                "end_time": 2.134090909090909,
                "pitch": 42,
                "velocity": 80,
                "duration": 0.459090909090909,
                "tempo": 120.0
            },
            {
                "start_time": 2.1363636363636362,
                "end_time": 2.359090909090909,
                "pitch": 42,
                "velocity": 80,
                "duration": 0.22272727272727266,
                "tempo": 120.0
            },
            {
                "start_time": 2.3613636363636363,
                "end_time": 2.590909090909091,
                "pitch": 42,
                "velocity": 80,
                "duration": 0.2295454545454545,
                "tempo": 120.0
            },
            {
                "start_time": 3.065909090909091,
                "end_time": 3.2954545454545454,
                "pitch": 42,
                "velocity": 80,
                "duration": 0.2295454545454545,
                "tempo": 120.0
            },
            {
                "start_time": 3.536363636363636,
                "end_time": 3.9977272727272726,
                "pitch": 42,
                "velocity": 80,
                "duration": 0.4613636363636364,
                "tempo": 120.0
            },
            {
                "start_time": 3.9977272727272726,
                "end_time": 4.227272727272727,
                "pitch": 42,
                "velocity": 80,
                "duration": 0.22954545454545405,
                "tempo": 120.0
            },
            {
                "start_time": 4.227272727272727,
                "end_time": 4.459090909090909,
                "pitch": 42,
                "velocity": 80,
                "duration": 0.23181818181818237,
                "tempo": 120.0
            },
            {
                "start_time": 4.927272727272727,
                "end_time": 5.152272727272727,
                "pitch": 42,
                "velocity": 80,
                "duration": 0.22500000000000053,
                "tempo": 120.0
            },
            {
                "start_time": 5.3954545454545455,
                "end_time": 5.861363636363636,
                "pitch": 42,
                "velocity": 80,
                "duration": 0.46590909090909083,
                "tempo": 120.0
            },
            {
                "start_time": 5.861363636363636,
                "end_time": 6.090909090909091,
                "pitch": 42,
                "velocity": 80,
                "duration": 0.2295454545454545,
                "tempo": 120.0
            },
            {
                "start_time": 6.093181818181818,
                "end_time": 6.322727272727272,
                "pitch": 42,
                "velocity": 80,
                "duration": 0.2295454545454545,
                "tempo": 120.0
            },
            {
                "start_time": 6.790909090909091,
                "end_time": 7.015909090909091,
                "pitch": 42,
                "velocity": 80,
                "duration": 0.22499999999999964,
                "tempo": 120.0
            },
            {
                "start_time": 7.256818181818182,
                "end_time": 7.722727272727273,
                "pitch": 42,
                "velocity": 80,
                "duration": 0.46590909090909083,
                "tempo": 120.0
            },
            {
                "start_time": 7.725,
                "end_time": 7.959090909090909,
                "pitch": 42,
                "velocity": 80,
                "duration": 0.23409090909090935,
                "tempo": 120.0
            },
            {
                "start_time": 7.959090909090909,
                "end_time": 8.190909090909091,
                "pitch": 42,
                "velocity": 80,
                "duration": 0.23181818181818237,
                "tempo": 120.0
            },
            {
                "start_time": 8.659090909090908,
                "end_time": 8.884090909090908,
                "pitch": 42,
                "velocity": 80,
                "duration": 0.22499999999999964,
                "tempo": 120.0
            },
            {
                "start_time": 9.120454545454544,
                "end_time": 9.593181818181817,
                "pitch": 42,
                "velocity": 80,
                "duration": 0.47272727272727266,
                "tempo": 120.0
            },
            {
                "start_time": 9.593181818181817,
                "end_time": 9.825,
                "pitch": 42,
                "velocity": 80,
                "duration": 0.23181818181818237,
                "tempo": 120.0
            },
            {
                "start_time": 9.827272727272726,
                "end_time": 10.061363636363636,
                "pitch": 42,
                "velocity": 80,
                "duration": 0.23409090909090935,
                "tempo": 120.0
            },
            {
                "start_time": 10.527272727272727,
                "end_time": 10.754545454545454,
                "pitch": 42,
                "velocity": 80,
                "duration": 0.22727272727272663,
                "tempo": 120.0
            },
            {
                "start_time": 10.988636363636363,
                "end_time": 11.459090909090909,
                "pitch": 42,
                "velocity": 80,
                "duration": 0.4704545454545457,
                "tempo": 120.0
            },
            {
                "start_time": 11.459090909090909,
                "end_time": 11.695454545454545,
                "pitch": 42,
                "velocity": 80,
                "duration": 0.23636363636363633,
                "tempo": 120.0
            },
            {
                "start_time": 11.695454545454545,
                "end_time": 11.929545454545455,
                "pitch": 42,
                "velocity": 80,
                "duration": 0.23409090909090935,
                "tempo": 120.0
            },
            {
                "start_time": 12.165909090909091,
                "end_time": 12.393181818181818,
                "pitch": 37,
                "velocity": 80,
                "duration": 0.22727272727272663,
                "tempo": 120.0
            },
            {
                "start_time": 12.393181818181818,
                "end_time": 12.622727272727271,
                "pitch": 40,
                "velocity": 80,
                "duration": 0.2295454545454536,
                "tempo": 120.0
            },
            {
                "start_time": 12.622727272727271,
                "end_time": 12.85681818181818,
                "pitch": 37,
                "velocity": 80,
                "duration": 0.23409090909090935,
                "tempo": 120.0
            },
            {
                "start_time": 12.85909090909091,
                "end_time": 13.325,
                "pitch": 42,
                "velocity": 80,
                "duration": 0.46590909090908994,
                "tempo": 120.0
            },
            {
                "start_time": 13.327272727272726,
                "end_time": 13.561363636363636,
                "pitch": 42,
                "velocity": 80,
                "duration": 0.23409090909090935,
                "tempo": 120.0
            },
            {
                "start_time": 13.561363636363636,
                "end_time": 13.795454545454545,
                "pitch": 42,
                "velocity": 80,
                "duration": 0.23409090909090935,
                "tempo": 120.0
            },
            {
                "start_time": 14.263636363636364,
                "end_time": 14.488636363636363,
                "pitch": 42,
                "velocity": 80,
                "duration": 0.22499999999999964,
                "tempo": 120.0
            },
            {
                "start_time": 14.725,
                "end_time": 15.195454545454545,
                "pitch": 42,
                "velocity": 80,
                "duration": 0.4704545454545457,
                "tempo": 120.0
            },
            {
                "start_time": 15.195454545454545,
                "end_time": 15.429545454545455,
                "pitch": 45,
                "velocity": 80,
                "duration": 0.23409090909090935,
                "tempo": 120.0
            },
            {
                "start_time": 15.431818181818182,
                "end_time": 15.665909090909091,
                "pitch": 49,
                "velocity": 80,
                "duration": 0.23409090909090935,
                "tempo": 120.0
            },
            {
                "start_time": 15.665909090909091,
                "end_time": 16.35681818181818,
                "pitch": 48,
                "velocity": 80,
                "duration": 0.6909090909090896,
                "tempo": 120.0
            },
            {
                "start_time": 16.59090909090909,
                "end_time": 17.063636363636363,
                "pitch": 42,
                "velocity": 80,
                "duration": 0.47272727272727266,
                "tempo": 120.0
            },
            {
                "start_time": 17.063636363636363,
                "end_time": 17.295454545454543,
                "pitch": 42,
                "velocity": 80,
                "duration": 0.2318181818181806,
                "tempo": 120.0
            },
            {
                "start_time": 17.297727272727272,
                "end_time": 17.525,
                "pitch": 42,
                "velocity": 80,
                "duration": 0.22727272727272663,
                "tempo": 120.0
            },
            {
                "start_time": 17.993181818181817,
                "end_time": 18.224999999999998,
                "pitch": 42,
                "velocity": 80,
                "duration": 0.2318181818181806,
                "tempo": 120.0
            },
            {
                "start_time": 18.461363636363636,
                "end_time": 18.929545454545455,
                "pitch": 42,
                "velocity": 80,
                "duration": 0.4681818181818187,
                "tempo": 120.0
            },
            {
                "start_time": 18.929545454545455,
                "end_time": 19.16590909090909,
                "pitch": 42,
                "velocity": 80,
                "duration": 0.23636363636363455,
                "tempo": 120.0
            },
            {
                "start_time": 19.16590909090909,
                "end_time": 19.395454545454545,
                "pitch": 42,
                "velocity": 80,
                "duration": 0.22954545454545539,
                "tempo": 120.0
            },
            {
                "start_time": 19.625,
                "end_time": 19.85681818181818,
                "pitch": 37,
                "velocity": 80,
                "duration": 0.2318181818181806,
                "tempo": 120.0
            },
            {
                "start_time": 19.85909090909091,
                "end_time": 20.09318181818182,
                "pitch": 40,
                "velocity": 80,
                "duration": 0.23409090909090935,
                "tempo": 120.0
            },
            {
                "start_time": 20.09318181818182,
                "end_time": 20.327272727272728,
                "pitch": 37,
                "velocity": 80,
                "duration": 0.23409090909090935,
                "tempo": 120.0
            },
            {
                "start_time": 20.329545454545453,
                "end_time": 20.793181818181818,
                "pitch": 42,
                "velocity": 80,
                "duration": 0.46363636363636473,
                "tempo": 120.0
            },
            {
                "start_time": 20.793181818181818,
                "end_time": 21.022727272727273,
                "pitch": 42,
                "velocity": 80,
                "duration": 0.22954545454545539,
                "tempo": 120.0
            },
            {
                "start_time": 21.022727272727273,
                "end_time": 21.25681818181818,
                "pitch": 42,
                "velocity": 80,
                "duration": 0.2340909090909058,
                "tempo": 120.0
            },
            {
                "start_time": 21.727272727272727,
                "end_time": 21.959090909090907,
                "pitch": 42,
                "velocity": 80,
                "duration": 0.2318181818181806,
                "tempo": 120.0
            },
            {
                "start_time": 22.195454545454545,
                "end_time": 22.659090909090907,
                "pitch": 38,
                "velocity": 80,
                "duration": 0.4636363636363612,
                "tempo": 120.0
            },
            {
                "start_time": 22.659090909090907,
                "end_time": 22.888636363636362,
                "pitch": 39,
                "velocity": 80,
                "duration": 0.22954545454545539,
                "tempo": 120.0
            },
            {
                "start_time": 22.888636363636362,
                "end_time": 23.12272727272727,
                "pitch": 41,
                "velocity": 80,
                "duration": 0.23409090909090935,
                "tempo": 120.0
            },
            {
                "start_time": 23.125,
                "end_time": 23.59318181818182,
                "pitch": 42,
                "velocity": 80,
                "duration": 0.4681818181818187,
                "tempo": 120.0
            },
            {
                "start_time": 23.59318181818182,
                "end_time": 23.827272727272724,
                "pitch": 37,
                "velocity": 80,
                "duration": 0.2340909090909058,
                "tempo": 120.0
            },
            {
                "start_time": 23.829545454545453,
                "end_time": 24.063636363636363,
                "pitch": 39,
                "velocity": 80,
                "duration": 0.23409090909090935,
                "tempo": 120.0
            },
            {
                "start_time": 24.063636363636363,
                "end_time": 24.299999999999997,
                "pitch": 37,
                "velocity": 80,
                "duration": 0.23636363636363455,
                "tempo": 120.0
            },
            {
                "start_time": 24.299999999999997,
                "end_time": 24.525,
                "pitch": 42,
                "velocity": 80,
                "duration": 0.22500000000000142,
                "tempo": 120.0
            },
            {
                "start_time": 24.525,
                "end_time": 24.754545454545454,
                "pitch": 42,
                "velocity": 80,
                "duration": 0.22954545454545539,
                "tempo": 120.0
            },
            {
                "start_time": 24.75681818181818,
                "end_time": 24.988636363636363,
                "pitch": 42,
                "velocity": 80,
                "duration": 0.23181818181818414,
                "tempo": 120.0
            },
            {
                "start_time": 25.461363636363636,
                "end_time": 25.693181818181817,
                "pitch": 42,
                "velocity": 80,
                "duration": 0.2318181818181806,
                "tempo": 120.0
            },
            {
                "start_time": 26.168181818181818,
                "end_time": 26.393181818181816,
                "pitch": 42,
                "velocity": 80,
                "duration": 0.22499999999999787,
                "tempo": 120.0
            },
            {
                "start_time": 26.85909090909091,
                "end_time": 27.09090909090909,
                "pitch": 42,
                "velocity": 80,
                "duration": 0.2318181818181806,
                "tempo": 120.0
            },
            {
                "start_time": 28.025,
                "end_time": 28.254545454545454,
                "pitch": 42,
                "velocity": 80,
                "duration": 0.22954545454545539,
                "tempo": 120.0
            },
            {
                "start_time": 28.254545454545454,
                "end_time": 28.49090909090909,
                "pitch": 42,
                "velocity": 80,
                "duration": 0.23636363636363455,
                "tempo": 120.0
            },
            {
                "start_time": 28.49090909090909,
                "end_time": 28.724999999999998,
                "pitch": 42,
                "velocity": 80,
                "duration": 0.23409090909090935,
                "tempo": 120.0
            },
            {
                "start_time": 29.195454545454545,
                "end_time": 29.427272727272726,
                "pitch": 42,
                "velocity": 80,
                "duration": 0.2318181818181806,
                "tempo": 120.0
            },
            {
                "start_time": 29.66363636363636,
                "end_time": 30.593181818181815,
                "pitch": 45,
                "velocity": 80,
                "duration": 0.9295454545454547,
                "tempo": 120.0
            },
            {
                "start_time": 30.595454545454544,
                "end_time": 31.05681818181818,
                "pitch": 44,
                "velocity": 80,
                "duration": 0.461363636363636,
                "tempo": 120.0
            },
            {
                "start_time": 31.05681818181818,
                "end_time": 31.286363636363635,
                "pitch": 37,
                "velocity": 80,
                "duration": 0.22954545454545539,
                "tempo": 120.0
            },
            {
                "start_time": 31.286363636363635,
                "end_time": 31.520454545454545,
                "pitch": 39,
                "velocity": 80,
                "duration": 0.23409090909090935,
                "tempo": 120.0
            },
            {
                "start_time": 31.52272727272727,
                "end_time": 31.759090909090908,
                "pitch": 40,
                "velocity": 80,
                "duration": 0.2363636363636381,
                "tempo": 120.0
            },
            {
                "start_time": 31.759090909090908,
                "end_time": 31.988636363636363,
                "pitch": 42,
                "velocity": 80,
                "duration": 0.22954545454545539,
                "tempo": 120.0
            },
            {
                "start_time": 31.99090909090909,
                "end_time": 32.225,
                "pitch": 42,
                "velocity": 80,
                "duration": 0.2340909090909129,
                "tempo": 120.0
            },
            {
                "start_time": 32.22727272727273,
                "end_time": 32.45909090909091,
                "pitch": 42,
                "velocity": 80,
                "duration": 0.23181818181818414,
                "tempo": 120.0
            },
            {
                "start_time": 32.925,
                "end_time": 33.152272727272724,
                "pitch": 42,
                "velocity": 80,
                "duration": 0.22727272727272663,
                "tempo": 120.0
            },
            {
                "start_time": 33.627272727272725,
                "end_time": 33.85681818181818,
                "pitch": 42,
                "velocity": 80,
                "duration": 0.22954545454545183,
                "tempo": 120.0
            },
            {
                "start_time": 34.324999999999996,
                "end_time": 34.55,
                "pitch": 42,
                "velocity": 80,
                "duration": 0.22500000000000142,
                "tempo": 120.0
            },
            {
                "start_time": 35.49545454545454,
                "end_time": 35.725,
                "pitch": 42,
                "velocity": 80,
                "duration": 0.22954545454545894,
                "tempo": 120.0
            },
            {
                "start_time": 35.725,
                "end_time": 35.961363636363636,
                "pitch": 42,
                "velocity": 80,
                "duration": 0.23636363636363455,
                "tempo": 120.0
            },
            {
                "start_time": 35.961363636363636,
                "end_time": 36.195454545454545,
                "pitch": 42,
                "velocity": 80,
                "duration": 0.23409090909090935,
                "tempo": 120.0
            },
            {
                "start_time": 36.66136363636363,
                "end_time": 36.88863636363636,
                "pitch": 42,
                "velocity": 80,
                "duration": 0.22727272727272663,
                "tempo": 120.0
            },
            {
                "start_time": 37.36363636363636,
                "end_time": 37.47727272727273,
                "pitch": 40,
                "velocity": 80,
                "duration": 0.11363636363636687,
                "tempo": 120.0
            },
            {
                "start_time": 37.47727272727273,
                "end_time": 37.595454545454544,
                "pitch": 38,
                "velocity": 80,
                "duration": 0.11818181818181728,
                "tempo": 120.0
            },
            {
                "start_time": 37.595454545454544,
                "end_time": 37.711363636363636,
                "pitch": 37,
                "velocity": 80,
                "duration": 0.11590909090909207,
                "tempo": 120.0
            },
            {
                "start_time": 37.71363636363636,
                "end_time": 37.82954545454545,
                "pitch": 35,
                "velocity": 80,
                "duration": 0.11590909090909207,
                "tempo": 120.0
            },
            {
                "start_time": 37.82954545454545,
                "end_time": 37.94318181818181,
                "pitch": 36,
                "velocity": 80,
                "duration": 0.11363636363635976,
                "tempo": 120.0
            },
            {
                "start_time": 37.945454545454545,
                "end_time": 38.059090909090905,
                "pitch": 37,
                "velocity": 80,
                "duration": 0.11363636363635976,
                "tempo": 120.0
            },
            {
                "start_time": 38.06136363636364,
                "end_time": 38.17045454545455,
                "pitch": 30,
                "velocity": 80,
                "duration": 0.10909090909090935,
                "tempo": 120.0
            },
            {
                "start_time": 39.220454545454544,
                "end_time": 40.15681818181818,
                "pitch": 42,
                "velocity": 80,
                "duration": 0.9363636363636374,
                "tempo": 120.0
            },
            {
                "start_time": 40.15909090909091,
                "end_time": 41.095454545454544,
                "pitch": 49,
                "velocity": 80,
                "duration": 0.9363636363636374,
                "tempo": 120.0
            },
            {
                "start_time": 41.09772727272727,
                "end_time": 42.025,
                "pitch": 48,
                "velocity": 80,
                "duration": 0.9272727272727295,
                "tempo": 120.0
            },
            {
                "start_time": 42.025,
                "end_time": 42.96363636363636,
                "pitch": 45,
                "velocity": 80,
                "duration": 0.9386363636363626,
                "tempo": 120.0
            },
            {
                "start_time": 42.96363636363636,
                "end_time": 43.893181818181816,
                "pitch": 42,
                "velocity": 80,
                "duration": 0.9295454545454547,
                "tempo": 120.0
            },
            {
                "start_time": 43.893181818181816,
                "end_time": 44.820454545454545,
                "pitch": 52,
                "velocity": 80,
                "duration": 0.9272727272727295,
                "tempo": 120.0
            },
            {
                "start_time": 44.82272727272727,
                "end_time": 45.76136363636363,
                "pitch": 51,
                "velocity": 80,
                "duration": 0.9386363636363626,
                "tempo": 120.0
            },
            {
                "start_time": 45.76136363636363,
                "end_time": 46.627272727272725,
                "pitch": 48,
                "velocity": 80,
                "duration": 0.8659090909090921,
                "tempo": 120.0
            }
        ],
        "Electric Piano 1": [
            {
                "start_time": 0.02727272727272727,
                "end_time": 0.325,
                "pitch": 75,
                "velocity": 80,
                "duration": 0.29772727272727273,
                "tempo": 120.0
            },
            {
                "start_time": 0.32727272727272727,
                "end_time": 0.6431818181818182,
                "pitch": 70,
                "velocity": 80,
                "duration": 0.3159090909090909,
                "tempo": 120.0
            },
            {
                "start_time": 0.6454545454545454,
                "end_time": 0.9613636363636363,
                "pitch": 74,
                "velocity": 80,
                "duration": 0.3159090909090909,
                "tempo": 120.0
            },
            {
                "start_time": 0.9636363636363636,
                "end_time": 1.3477272727272727,
                "pitch": 73,
                "velocity": 80,
                "duration": 0.38409090909090904,
                "tempo": 120.0
            },
            {
                "start_time": 1.3499999999999999,
                "end_time": 1.6704545454545454,
                "pitch": 67,
                "velocity": 80,
                "duration": 0.32045454545454555,
                "tempo": 120.0
            },
            {
                "start_time": 1.6727272727272726,
                "end_time": 2.245454545454545,
                "pitch": 54,
                "velocity": 80,
                "duration": 0.5727272727272725,
                "tempo": 120.0
            },
            {
                "start_time": 2.359090909090909,
                "end_time": 2.475,
                "pitch": 54,
                "velocity": 80,
                "duration": 0.11590909090909118,
                "tempo": 120.0
            },
            {
                "start_time": 3.0636363636363635,
                "end_time": 3.1772727272727272,
                "pitch": 54,
                "velocity": 80,
                "duration": 0.11363636363636376,
                "tempo": 120.0
            },
            {
                "start_time": 3.5318181818181817,
                "end_time": 4.1090909090909085,
                "pitch": 54,
                "velocity": 80,
                "duration": 0.5772727272727267,
                "tempo": 120.0
            },
            {
                "start_time": 4.225,
                "end_time": 4.340909090909091,
                "pitch": 54,
                "velocity": 80,
                "duration": 0.11590909090909118,
                "tempo": 120.0
            },
            {
                "start_time": 4.925,
                "end_time": 5.038636363636363,
                "pitch": 54,
                "velocity": 80,
                "duration": 0.11363636363636331,
                "tempo": 120.0
            },
            {
                "start_time": 5.393181818181818,
                "end_time": 5.972727272727273,
                "pitch": 54,
                "velocity": 80,
                "duration": 0.579545454545455,
                "tempo": 120.0
            },
            {
                "start_time": 6.090909090909091,
                "end_time": 6.204545454545454,
                "pitch": 54,
                "velocity": 80,
                "duration": 0.11363636363636331,
                "tempo": 120.0
            },
            {
                "start_time": 6.788636363636363,
                "end_time": 6.902272727272727,
                "pitch": 54,
                "velocity": 80,
                "duration": 0.1136363636363642,
                "tempo": 120.0
            },
            {
                "start_time": 7.252272727272727,
                "end_time": 7.838636363636363,
                "pitch": 54,
                "velocity": 80,
                "duration": 0.586363636363636,
                "tempo": 120.0
            },
            {
                "start_time": 7.956818181818181,
                "end_time": 8.072727272727272,
                "pitch": 54,
                "velocity": 80,
                "duration": 0.11590909090909118,
                "tempo": 120.0
            },
            {
                "start_time": 8.656818181818181,
                "end_time": 8.768181818181818,
                "pitch": 54,
                "velocity": 80,
                "duration": 0.11136363636363633,
                "tempo": 120.0
            },
            {
                "start_time": 9.35681818181818,
                "end_time": 9.588636363636363,
                "pitch": 54,
                "velocity": 80,
                "duration": 0.23181818181818237,
                "tempo": 120.0
            },
            {
                "start_time": 9.59090909090909,
                "end_time": 9.822727272727272,
                "pitch": 57,
                "velocity": 80,
                "duration": 0.23181818181818237,
                "tempo": 120.0
            },
            {
                "start_time": 10.059090909090909,
                "end_time": 10.293181818181818,
                "pitch": 54,
                "velocity": 80,
                "duration": 0.23409090909090935,
                "tempo": 120.0
            },
            {
                "start_time": 10.295454545454545,
                "end_time": 10.522727272727272,
                "pitch": 60,
                "velocity": 80,
                "duration": 0.22727272727272663,
                "tempo": 120.0
            },
            {
                "start_time": 10.525,
                "end_time": 10.752272727272727,
                "pitch": 61,
                "velocity": 80,
                "duration": 0.22727272727272663,
                "tempo": 120.0
            },
            {
                "start_time": 10.988636363636363,
                "end_time": 11.222727272727273,
                "pitch": 54,
                "velocity": 80,
                "duration": 0.23409090909090935,
                "tempo": 120.0
            },
            {
                "start_time": 11.459090909090909,
                "end_time": 11.69090909090909,
                "pitch": 57,
                "velocity": 80,
                "duration": 0.2318181818181806,
                "tempo": 120.0
            },
            {
                "start_time": 11.693181818181818,
                "end_time": 11.924999999999999,
                "pitch": 54,
                "velocity": 80,
                "duration": 0.2318181818181806,
                "tempo": 120.0
            },
            {
                "start_time": 11.927272727272726,
                "end_time": 12.854545454545454,
                "pitch": 60,
                "velocity": 80,
                "duration": 0.9272727272727277,
                "tempo": 120.0
            },
            {
                "start_time": 12.85681818181818,
                "end_time": 13.088636363636363,
                "pitch": 54,
                "velocity": 80,
                "duration": 0.23181818181818237,
                "tempo": 120.0
            },
            {
                "start_time": 13.325,
                "end_time": 13.559090909090909,
                "pitch": 57,
                "velocity": 80,
                "duration": 0.23409090909090935,
                "tempo": 120.0
            },
            {
                "start_time": 13.795454545454545,
                "end_time": 14.027272727272727,
                "pitch": 54,
                "velocity": 80,
                "duration": 0.23181818181818237,
                "tempo": 120.0
            },
            {
                "start_time": 14.029545454545454,
                "end_time": 14.256818181818181,
                "pitch": 60,
                "velocity": 80,
                "duration": 0.22727272727272663,
                "tempo": 120.0
            },
            {
                "start_time": 14.259090909090908,
                "end_time": 14.486363636363636,
                "pitch": 61,
                "velocity": 80,
                "duration": 0.2272727272727284,
                "tempo": 120.0
            },
            {
                "start_time": 14.722727272727273,
                "end_time": 15.19090909090909,
                "pitch": 64,
                "velocity": 80,
                "duration": 0.4681818181818169,
                "tempo": 120.0
            },
            {
                "start_time": 15.193181818181817,
                "end_time": 15.424999999999999,
                "pitch": 63,
                "velocity": 80,
                "duration": 0.23181818181818237,
                "tempo": 120.0
            },
            {
                "start_time": 15.427272727272726,
                "end_time": 15.661363636363635,
                "pitch": 61,
                "velocity": 80,
                "duration": 0.23409090909090935,
                "tempo": 120.0
            },
            {
                "start_time": 15.663636363636362,
                "end_time": 16.354545454545455,
                "pitch": 63,
                "velocity": 80,
                "duration": 0.6909090909090931,
                "tempo": 120.0
            },
            {
                "start_time": 16.827272727272728,
                "end_time": 17.05909090909091,
                "pitch": 54,
                "velocity": 80,
                "duration": 0.2318181818181806,
                "tempo": 120.0
            },
            {
                "start_time": 17.061363636363634,
                "end_time": 17.293181818181818,
                "pitch": 57,
                "velocity": 80,
                "duration": 0.23181818181818414,
                "tempo": 120.0
            },
            {
                "start_time": 17.525,
                "end_time": 17.752272727272725,
                "pitch": 54,
                "velocity": 80,
                "duration": 0.22727272727272663,
                "tempo": 120.0
            },
            {
                "start_time": 17.754545454545454,
                "end_time": 17.986363636363635,
                "pitch": 60,
                "velocity": 80,
                "duration": 0.2318181818181806,
                "tempo": 120.0
            },
            {
                "start_time": 17.988636363636363,
                "end_time": 18.222727272727273,
                "pitch": 61,
                "velocity": 80,
                "duration": 0.23409090909090935,
                "tempo": 120.0
            },
            {
                "start_time": 18.459090909090907,
                "end_time": 18.693181818181817,
                "pitch": 54,
                "velocity": 80,
                "duration": 0.23409090909090935,
                "tempo": 120.0
            },
            {
                "start_time": 18.927272727272726,
                "end_time": 19.161363636363635,
                "pitch": 57,
                "velocity": 80,
                "duration": 0.23409090909090935,
                "tempo": 120.0
            },
            {
                "start_time": 19.163636363636364,
                "end_time": 19.39090909090909,
                "pitch": 54,
                "velocity": 80,
                "duration": 0.22727272727272663,
                "tempo": 120.0
            },
            {
                "start_time": 19.393181818181816,
                "end_time": 20.325,
                "pitch": 60,
                "velocity": 80,
                "duration": 0.9318181818181834,
                "tempo": 120.0
            },
            {
                "start_time": 20.327272727272728,
                "end_time": 20.55909090909091,
                "pitch": 65,
                "velocity": 80,
                "duration": 0.2318181818181806,
                "tempo": 120.0
            },
            {
                "start_time": 20.561363636363634,
                "end_time": 20.672727272727272,
                "pitch": 66,
                "velocity": 80,
                "duration": 0.11136363636363811,
                "tempo": 120.0
            },
            {
                "start_time": 20.79090909090909,
                "end_time": 21.018181818181816,
                "pitch": 60,
                "velocity": 80,
                "duration": 0.22727272727272663,
                "tempo": 120.0
            },
            {
                "start_time": 21.020454545454545,
                "end_time": 21.136363636363637,
                "pitch": 61,
                "velocity": 80,
                "duration": 0.11590909090909207,
                "tempo": 120.0
            },
            {
                "start_time": 21.254545454545454,
                "end_time": 21.488636363636363,
                "pitch": 56,
                "velocity": 80,
                "duration": 0.23409090909090935,
                "tempo": 120.0
            },
            {
                "start_time": 21.488636363636363,
                "end_time": 21.604545454545452,
                "pitch": 57,
                "velocity": 80,
                "duration": 0.11590909090908852,
                "tempo": 120.0
            },
            {
                "start_time": 21.724999999999998,
                "end_time": 21.956818181818182,
                "pitch": 54,
                "velocity": 80,
                "duration": 0.23181818181818414,
                "tempo": 120.0
            },
            {
                "start_time": 22.193181818181817,
                "end_time": 23.120454545454546,
                "pitch": 57,
                "velocity": 80,
                "duration": 0.9272727272727295,
                "tempo": 120.0
            },
            {
                "start_time": 23.12272727272727,
                "end_time": 24.295454545454543,
                "pitch": 54,
                "velocity": 80,
                "duration": 1.172727272727272,
                "tempo": 120.0
            },
            {
                "start_time": 24.297727272727272,
                "end_time": 24.44090909090909,
                "pitch": 60,
                "velocity": 101,
                "duration": 0.1431818181818194,
                "tempo": 120.0
            },
            {
                "start_time": 24.443181818181817,
                "end_time": 24.58863636363636,
                "pitch": 61,
                "velocity": 101,
                "duration": 0.14545454545454461,
                "tempo": 120.0
            },
            {
                "start_time": 24.59090909090909,
                "end_time": 24.752272727272725,
                "pitch": 57,
                "velocity": 101,
                "duration": 0.16136363636363527,
                "tempo": 120.0
            },
            {
                "start_time": 24.754545454545454,
                "end_time": 24.904545454545453,
                "pitch": 60,
                "velocity": 101,
                "duration": 0.14999999999999858,
                "tempo": 120.0
            },
            {
                "start_time": 24.904545454545453,
                "end_time": 25.054545454545455,
                "pitch": 61,
                "velocity": 101,
                "duration": 0.15000000000000213,
                "tempo": 120.0
            },
            {
                "start_time": 25.05681818181818,
                "end_time": 25.222727272727273,
                "pitch": 57,
                "velocity": 101,
                "duration": 0.16590909090909278,
                "tempo": 120.0
            },
            {
                "start_time": 25.222727272727273,
                "end_time": 25.456818181818182,
                "pitch": 60,
                "velocity": 101,
                "duration": 0.23409090909090935,
                "tempo": 120.0
            },
            {
                "start_time": 25.459090909090907,
                "end_time": 25.693181818181817,
                "pitch": 61,
                "velocity": 101,
                "duration": 0.23409090909090935,
                "tempo": 120.0
            },
            {
                "start_time": 26.163636363636364,
                "end_time": 26.39090909090909,
                "pitch": 54,
                "velocity": 64,
                "duration": 0.22727272727272663,
                "tempo": 120.0
            },
            {
                "start_time": 26.85681818181818,
                "end_time": 27.09090909090909,
                "pitch": 54,
                "velocity": 64,
                "duration": 0.23409090909090935,
                "tempo": 120.0
            },
            {
                "start_time": 28.020454545454545,
                "end_time": 28.170454545454543,
                "pitch": 60,
                "velocity": 101,
                "duration": 0.14999999999999858,
                "tempo": 120.0
            },
            {
                "start_time": 28.170454545454543,
                "end_time": 28.320454545454545,
                "pitch": 61,
                "velocity": 101,
                "duration": 0.15000000000000213,
                "tempo": 120.0
            },
            {
                "start_time": 28.320454545454545,
                "end_time": 28.488636363636363,
                "pitch": 57,
                "velocity": 101,
                "duration": 0.168181818181818,
                "tempo": 120.0
            },
            {
                "start_time": 28.488636363636363,
                "end_time": 28.638636363636362,
                "pitch": 60,
                "velocity": 101,
                "duration": 0.14999999999999858,
                "tempo": 120.0
            },
            {
                "start_time": 28.64090909090909,
                "end_time": 28.79090909090909,
                "pitch": 61,
                "velocity": 101,
                "duration": 0.14999999999999858,
                "tempo": 120.0
            },
            {
                "start_time": 28.79090909090909,
                "end_time": 28.959090909090907,
                "pitch": 57,
                "velocity": 101,
                "duration": 0.168181818181818,
                "tempo": 120.0
            },
            {
                "start_time": 28.959090909090907,
                "end_time": 29.193181818181817,
                "pitch": 60,
                "velocity": 101,
                "duration": 0.23409090909090935,
                "tempo": 120.0
            },
            {
                "start_time": 29.193181818181817,
                "end_time": 29.427272727272726,
                "pitch": 61,
                "velocity": 101,
                "duration": 0.23409090909090935,
                "tempo": 120.0
            },
            {
                "start_time": 29.659090909090907,
                "end_time": 30.59090909090909,
                "pitch": 64,
                "velocity": 64,
                "duration": 0.9318181818181834,
                "tempo": 120.0
            },
            {
                "start_time": 30.593181818181815,
                "end_time": 31.754545454545454,
                "pitch": 63,
                "velocity": 64,
                "duration": 1.1613636363636388,
                "tempo": 120.0
            },
            {
                "start_time": 31.75681818181818,
                "end_time": 31.904545454545453,
                "pitch": 60,
                "velocity": 101,
                "duration": 0.14772727272727337,
                "tempo": 120.0
            },
            {
                "start_time": 31.904545454545453,
                "end_time": 32.05681818181818,
                "pitch": 61,
                "velocity": 101,
                "duration": 0.15227272727272734,
                "tempo": 120.0
            },
            {
                "start_time": 32.05681818181818,
                "end_time": 32.22272727272727,
                "pitch": 57,
                "velocity": 101,
                "duration": 0.16590909090908923,
                "tempo": 120.0
            },
            {
                "start_time": 32.225,
                "end_time": 32.375,
                "pitch": 60,
                "velocity": 101,
                "duration": 0.14999999999999858,
                "tempo": 120.0
            },
            {
                "start_time": 32.375,
                "end_time": 32.525,
                "pitch": 61,
                "velocity": 101,
                "duration": 0.14999999999999858,
                "tempo": 120.0
            },
            {
                "start_time": 32.527272727272724,
                "end_time": 32.69318181818182,
                "pitch": 57,
                "velocity": 101,
                "duration": 0.16590909090909634,
                "tempo": 120.0
            },
            {
                "start_time": 32.69318181818182,
                "end_time": 32.92272727272727,
                "pitch": 60,
                "velocity": 101,
                "duration": 0.22954545454545183,
                "tempo": 120.0
            },
            {
                "start_time": 32.92272727272727,
                "end_time": 33.152272727272724,
                "pitch": 61,
                "velocity": 101,
                "duration": 0.22954545454545183,
                "tempo": 120.0
            },
            {
                "start_time": 33.625,
                "end_time": 33.85681818181818,
                "pitch": 54,
                "velocity": 64,
                "duration": 0.23181818181817704,
                "tempo": 120.0
            },
            {
                "start_time": 34.32272727272727,
                "end_time": 34.55,
                "pitch": 54,
                "velocity": 64,
                "duration": 0.22727272727272663,
                "tempo": 120.0
            },
            {
                "start_time": 35.49090909090909,
                "end_time": 35.64090909090909,
                "pitch": 60,
                "velocity": 101,
                "duration": 0.14999999999999858,
                "tempo": 120.0
            },
            {
                "start_time": 35.64090909090909,
                "end_time": 35.79090909090909,
                "pitch": 61,
                "velocity": 101,
                "duration": 0.14999999999999858,
                "tempo": 120.0
            },
            {
                "start_time": 35.79090909090909,
                "end_time": 35.95909090909091,
                "pitch": 57,
                "velocity": 101,
                "duration": 0.16818181818182154,
                "tempo": 120.0
            },
            {
                "start_time": 35.95909090909091,
                "end_time": 36.10909090909091,
                "pitch": 60,
                "velocity": 101,
                "duration": 0.14999999999999858,
                "tempo": 120.0
            },
            {
                "start_time": 36.111363636363635,
                "end_time": 36.26136363636363,
                "pitch": 61,
                "velocity": 101,
                "duration": 0.14999999999999858,
                "tempo": 120.0
            },
            {
                "start_time": 36.26136363636363,
                "end_time": 36.429545454545455,
                "pitch": 57,
                "velocity": 101,
                "duration": 0.16818181818182154,
                "tempo": 120.0
            },
            {
                "start_time": 36.429545454545455,
                "end_time": 36.65681818181818,
                "pitch": 60,
                "velocity": 101,
                "duration": 0.22727272727272663,
                "tempo": 120.0
            },
            {
                "start_time": 36.65909090909091,
                "end_time": 36.88636363636363,
                "pitch": 61,
                "velocity": 101,
                "duration": 0.22727272727272663,
                "tempo": 120.0
            },
            {
                "start_time": 37.35909090909091,
                "end_time": 37.475,
                "pitch": 64,
                "velocity": 64,
                "duration": 0.11590909090909207,
                "tempo": 120.0
            },
            {
                "start_time": 37.475,
                "end_time": 37.590909090909086,
                "pitch": 62,
                "velocity": 64,
                "duration": 0.11590909090908497,
                "tempo": 120.0
            },
            {
                "start_time": 37.59318181818182,
                "end_time": 37.70909090909091,
                "pitch": 61,
                "velocity": 64,
                "duration": 0.11590909090909207,
                "tempo": 120.0
            },
            {
                "start_time": 37.711363636363636,
                "end_time": 37.82727272727273,
                "pitch": 59,
                "velocity": 64,
                "duration": 0.11590909090909207,
                "tempo": 120.0
            },
            {
                "start_time": 37.82727272727273,
                "end_time": 37.94090909090909,
                "pitch": 60,
                "velocity": 64,
                "duration": 0.11363636363635976,
                "tempo": 120.0
            },
            {
                "start_time": 37.94318181818181,
                "end_time": 38.05681818181818,
                "pitch": 61,
                "velocity": 64,
                "duration": 0.11363636363636687,
                "tempo": 120.0
            },
            {
                "start_time": 38.05681818181818,
                "end_time": 38.17045454545455,
                "pitch": 54,
                "velocity": 64,
                "duration": 0.11363636363636687,
                "tempo": 120.0
            },
            {
                "start_time": 39.215909090909086,
                "end_time": 40.152272727272724,
                "pitch": 42,
                "velocity": 80,
                "duration": 0.9363636363636374,
                "tempo": 120.0
            },
            {
                "start_time": 40.154545454545456,
                "end_time": 41.09318181818182,
                "pitch": 49,
                "velocity": 80,
                "duration": 0.9386363636363626,
                "tempo": 120.0
            },
            {
                "start_time": 41.09318181818182,
                "end_time": 42.02045454545454,
                "pitch": 48,
                "velocity": 80,
                "duration": 0.9272727272727224,
                "tempo": 120.0
            },
            {
                "start_time": 42.02272727272727,
                "end_time": 42.959090909090904,
                "pitch": 45,
                "velocity": 80,
                "duration": 0.9363636363636303,
                "tempo": 120.0
            },
            {
                "start_time": 42.961363636363636,
                "end_time": 43.88863636363636,
                "pitch": 42,
                "velocity": 80,
                "duration": 0.9272727272727224,
                "tempo": 120.0
            },
            {
                "start_time": 43.89090909090909,
                "end_time": 44.81590909090909,
                "pitch": 52,
                "velocity": 80,
                "duration": 0.9249999999999972,
                "tempo": 120.0
            },
            {
                "start_time": 44.81818181818181,
                "end_time": 45.75681818181818,
                "pitch": 51,
                "velocity": 80,
                "duration": 0.9386363636363697,
                "tempo": 120.0
            },
            {
                "start_time": 45.75681818181818,
                "end_time": 46.627272727272725,
                "pitch": 48,
                "velocity": 80,
                "duration": 0.8704545454545425,
                "tempo": 120.0
            }
        ]
    }
}