{
    "track_id": "06 Celebration 2",
    "mood": "happy",
    "instruments": {
        "Trumpet": [
            {
                "start_time": 0.00909090909090909,
                "end_time": 0.5204545454545454,
                "pitch": 63,
                "velocity": 40,
                "duration": 0.5113636363636364,
                "tempo": 120.0
            },
            {
                "start_time": 0.609090909090909,
                "end_time": 0.6681818181818181,
                "pitch": 63,
                "velocity": 40,
                "duration": 0.05909090909090908,
                "tempo": 120.0
            },
            {
                "start_time": 0.8068181818181818,
                "end_time": 1.3113636363636363,
                "pitch": 67,
                "velocity": 40,
                "duration": 0.5045454545454545,
                "tempo": 120.0
            },
            {
                "start_time": 1.4022727272727271,
                "end_time": 1.4522727272727272,
                "pitch": 63,
                "velocity": 40,
                "duration": 0.050000000000000044,
                "tempo": 120.0
            },
            {
                "start_time": 1.6022727272727273,
                "end_time": 2.0045454545454544,
                "pitch": 67,
                "velocity": 40,
                "duration": 0.4022727272727271,
                "tempo": 120.0
            },
            {
                "start_time": 2.0045454545454544,
                "end_time": 2.0545454545454542,
                "pitch": 65,
                "velocity": 40,
                "duration": 0.04999999999999982,
                "tempo": 120.0
            },
            {
                "start_time": 2.2045454545454546,
                "end_time": 2.2545454545454544,
                "pitch": 65,
                "velocity": 40,
                "duration": 0.04999999999999982,
                "tempo": 120.0
            },
            {
                "start_time": 2.4045454545454543,
                "end_time": 2.7545454545454544,
                "pitch": 63,
                "velocity": 40,
                "duration": 0.3500000000000001,
                "tempo": 120.0
            },
            {
                "start_time": 2.8045454545454542,
                "end_time": 3.1545454545454543,
                "pitch": 59,
                "velocity": 40,
                "duration": 0.3500000000000001,
                "tempo": 120.0
            },
            {
                "start_time": 3.2045454545454546,
                "end_time": 3.715909090909091,
                "pitch": 65,
                "velocity": 40,
                "duration": 0.5113636363636362,
                "tempo": 120.0
            },
            {
                "start_time": 3.8068181818181817,
                "end_time": 3.868181818181818,
                "pitch": 67,
                "velocity": 40,
                "duration": 0.06136363636363651,
                "tempo": 120.0
            },
            {
                "start_time": 4.006818181818182,
                "end_time": 4.6068181818181815,
                "pitch": 67,
                "velocity": 40,
                "duration": 0.5999999999999996,
                "tempo": 120.0
            },
            {
                "start_time": 4.6068181818181815,
                "end_time": 4.656818181818181,
                "pitch": 65,
                "velocity": 40,
                "duration": 0.04999999999999982,
                "tempo": 120.0
            },
            {
                "start_time": 4.809090909090909,
                "end_time": 5.059090909090909,
                "pitch": 68,
                "velocity": 40,
                "duration": 0.25,
                "tempo": 120.0
            },
            {
                "start_time": 5.209090909090909,
                "end_time": 5.2704545454545455,
                "pitch": 68,
                "velocity": 40,
                "duration": 0.06136363636363651,
                "tempo": 120.0
            },
            {
                "start_time": 5.409090909090909,
                "end_time": 5.470454545454545,
                "pitch": 65,
                "velocity": 40,
                "duration": 0.06136363636363562,
                "tempo": 120.0
            },
            {
                "start_time": 5.611363636363636,
                "end_time": 6.213636363636363,
                "pitch": 65,
                "velocity": 40,
                "duration": 0.6022727272727266,
                "tempo": 120.0
            },
            {
                "start_time": 6.413636363636363,
                "end_time": 6.715909090909091,
                "pitch": 70,
                "velocity": 40,
                "duration": 0.3022727272727277,
                "tempo": 120.0
            },
            {
                "start_time": 6.8159090909090905,
                "end_time": 7.118181818181818,
                "pitch": 75,
                "velocity": 40,
                "duration": 0.3022727272727277,
                "tempo": 120.0
            },
            {
                "start_time": 7.218181818181818,
                "end_time": 7.518181818181818,
                "pitch": 75,
                "velocity": 40,
                "duration": 0.2999999999999998,
                "tempo": 120.0
            },
            {
                "start_time": 7.620454545454545,
                "end_time": 7.679545454545454,
                "pitch": 74,
                "velocity": 40,
                "duration": 0.05909090909090864,
                "tempo": 120.0
            },
            {
                "start_time": 7.820454545454545,
                "end_time": 7.881818181818182,
                "pitch": 75,
                "velocity": 40,
                "duration": 0.06136363636363651,
                "tempo": 120.0
            },
            {
                "start_time": 8.020454545454545,
                "end_time": 8.422727272727272,
                "pitch": 74,
                "velocity": 40,
                "duration": 0.40227272727272734,
                "tempo": 120.0
            },
            {
                "start_time": 8.422727272727272,
                "end_time": 8.48181818181818,
                "pitch": 70,
                "velocity": 40,
                "duration": 0.05909090909090864,
                "tempo": 120.0
            },
            {
                "start_time": 8.622727272727273,
                "end_time": 8.684090909090909,
                "pitch": 70,
                "velocity": 40,
                "duration": 0.06136363636363562,
                "tempo": 120.0
            },
            {
                "start_time": 8.822727272727272,
                "end_time": 9.174999999999999,
                "pitch": 68,
                "velocity": 40,
                "duration": 0.3522727272727266,
                "tempo": 120.0
            },
            {
                "start_time": 9.225,
                "end_time": 9.688636363636363,
                "pitch": 63,
                "velocity": 40,
                "duration": 0.46363636363636296,
                "tempo": 120.0
            },
            {
                "start_time": 9.829545454545453,
                "end_time": 10.181818181818182,
                "pitch": 72,
                "velocity": 40,
                "duration": 0.3522727272727284,
                "tempo": 120.0
            },
            {
                "start_time": 10.23181818181818,
                "end_time": 10.284090909090908,
                "pitch": 68,
                "velocity": 40,
                "duration": 0.05227272727272769,
                "tempo": 120.0
            },
            {
                "start_time": 10.44090909090909,
                "end_time": 11.01590909090909,
                "pitch": 68,
                "velocity": 40,
                "duration": 0.5750000000000011,
                "tempo": 120.0
            },
            {
                "start_time": 11.125,
                "end_time": 11.186363636363636,
                "pitch": 67,
                "velocity": 40,
                "duration": 0.06136363636363562,
                "tempo": 120.0
            },
            {
                "start_time": 11.372727272727273,
                "end_time": 11.495454545454544,
                "pitch": 65,
                "velocity": 40,
                "duration": 0.12272727272727124,
                "tempo": 120.0
            },
            {
                "start_time": 11.618181818181817,
                "end_time": 11.74090909090909,
                "pitch": 59,
                "velocity": 40,
                "duration": 0.12272727272727302,
                "tempo": 120.0
            },
            {
                "start_time": 11.863636363636363,
                "end_time": 11.968181818181817,
                "pitch": 67,
                "velocity": 40,
                "duration": 0.10454545454545361,
                "tempo": 120.0
            },
            {
                "start_time": 12.070454545454545,
                "end_time": 12.131818181818181,
                "pitch": 65,
                "velocity": 40,
                "duration": 0.06136363636363562,
                "tempo": 120.0
            },
            {
                "start_time": 12.277272727272727,
                "end_time": 12.379545454545454,
                "pitch": 65,
                "velocity": 40,
                "duration": 0.10227272727272663,
                "tempo": 120.0
            },
            {
                "start_time": 14.686363636363636,
                "end_time": 14.938636363636363,
                "pitch": 67,
                "velocity": 40,
                "duration": 0.252272727272727,
                "tempo": 120.0
            },
            {
                "start_time": 15.088636363636363,
                "end_time": 15.352272727272727,
                "pitch": 67,
                "velocity": 40,
                "duration": 0.26363636363636367,
                "tempo": 120.0
            },
            {
                "start_time": 15.509090909090908,
                "end_time": 15.622727272727271,
                "pitch": 67,
                "velocity": 40,
                "duration": 0.11363636363636331,
                "tempo": 120.0
            },
            {
                "start_time": 15.713636363636363,
                "end_time": 15.772727272727272,
                "pitch": 65,
                "velocity": 40,
                "duration": 0.05909090909090864,
                "tempo": 120.0
            },
            {
                "start_time": 15.913636363636362,
                "end_time": 15.963636363636363,
                "pitch": 65,
                "velocity": 40,
                "duration": 0.05000000000000071,
                "tempo": 120.0
            },
            {
                "start_time": 16.111363636363635,
                "end_time": 16.15909090909091,
                "pitch": 63,
                "velocity": 40,
                "duration": 0.047727272727275505,
                "tempo": 120.0
            },
            {
                "start_time": 16.268181818181816,
                "end_time": 17.706818181818182,
                "pitch": 62,
                "velocity": 40,
                "duration": 1.4386363636363662,
                "tempo": 120.0
            },
            {
                "start_time": 17.902272727272727,
                "end_time": 18.152272727272727,
                "pitch": 60,
                "velocity": 40,
                "duration": 0.25,
                "tempo": 120.0
            },
            {
                "start_time": 18.304545454545455,
                "end_time": 18.56590909090909,
                "pitch": 60,
                "velocity": 40,
                "duration": 0.2613636363636367,
                "tempo": 120.0
            },
            {
                "start_time": 18.724999999999998,
                "end_time": 18.827272727272728,
                "pitch": 60,
                "velocity": 40,
                "duration": 0.10227272727273018,
                "tempo": 120.0
            },
            {
                "start_time": 18.927272727272726,
                "end_time": 18.988636363636363,
                "pitch": 58,
                "velocity": 40,
                "duration": 0.0613636363636374,
                "tempo": 120.0
            },
            {
                "start_time": 19.129545454545454,
                "end_time": 19.188636363636363,
                "pitch": 58,
                "velocity": 40,
                "duration": 0.05909090909090864,
                "tempo": 120.0
            },
            {
                "start_time": 19.327272727272728,
                "end_time": 19.404545454545453,
                "pitch": 56,
                "velocity": 40,
                "duration": 0.0772727272727245,
                "tempo": 120.0
            },
            {
                "start_time": 19.48409090909091,
                "end_time": 19.522727272727273,
                "pitch": 55,
                "velocity": 40,
                "duration": 0.038636363636364024,
                "tempo": 120.0
            },
            {
                "start_time": 19.522727272727273,
                "end_time": 19.768181818181816,
                "pitch": 47,
                "velocity": 40,
                "duration": 0.24545454545454248,
                "tempo": 120.0
            },
            {
                "start_time": 19.913636363636364,
                "end_time": 20.222727272727273,
                "pitch": 47,
                "velocity": 40,
                "duration": 0.30909090909090864,
                "tempo": 120.0
            },
            {
                "start_time": 20.325,
                "end_time": 20.425,
                "pitch": 47,
                "velocity": 40,
                "duration": 0.10000000000000142,
                "tempo": 120.0
            },
            {
                "start_time": 20.527272727272727,
                "end_time": 20.60681818181818,
                "pitch": 47,
                "velocity": 25,
                "duration": 0.07954545454545325,
                "tempo": 120.0
            },
            {
                "start_time": 20.727272727272727,
                "end_time": 20.788636363636364,
                "pitch": 48,
                "velocity": 40,
                "duration": 0.0613636363636374,
                "tempo": 120.0
            },
            {
                "start_time": 20.927272727272726,
                "end_time": 21.00681818181818,
                "pitch": 53,
                "velocity": 40,
                "duration": 0.07954545454545325,
                "tempo": 120.0
            },
            {
                "start_time": 21.08863636363636,
                "end_time": 22.095454545454544,
                "pitch": 53,
                "velocity": 40,
                "duration": 1.0068181818181827,
                "tempo": 120.0
            },
            {
                "start_time": 22.136363636363637,
                "end_time": 22.21818181818182,
                "pitch": 48,
                "velocity": 40,
                "duration": 0.08181818181818201,
                "tempo": 120.0
            },
            {
                "start_time": 22.320454545454545,
                "end_time": 22.420454545454543,
                "pitch": 48,
                "velocity": 25,
                "duration": 0.09999999999999787,
                "tempo": 120.0
            },
            {
                "start_time": 22.538636363636364,
                "end_time": 22.586363636363636,
                "pitch": 50,
                "velocity": 40,
                "duration": 0.04772727272727195,
                "tempo": 120.0
            },
            {
                "start_time": 22.695454545454545,
                "end_time": 23.027272727272727,
                "pitch": 51,
                "velocity": 40,
                "duration": 0.331818181818182,
                "tempo": 120.0
            },
            {
                "start_time": 23.127272727272725,
                "end_time": 23.38181818181818,
                "pitch": 53,
                "velocity": 40,
                "duration": 0.25454545454545396,
                "tempo": 120.0
            },
            {
                "start_time": 23.536363636363635,
                "end_time": 23.636363636363637,
                "pitch": 53,
                "velocity": 40,
                "duration": 0.10000000000000142,
                "tempo": 120.0
            },
            {
                "start_time": 23.71818181818182,
                "end_time": 23.788636363636364,
                "pitch": 56,
                "velocity": 40,
                "duration": 0.07045454545454533,
                "tempo": 120.0
            },
            {
                "start_time": 23.797727272727272,
                "end_time": 24.038636363636364,
                "pitch": 56,
                "velocity": 40,
                "duration": 0.24090909090909207,
                "tempo": 120.0
            },
            {
                "start_time": 24.138636363636362,
                "end_time": 24.220454545454544,
                "pitch": 53,
                "velocity": 40,
                "duration": 0.08181818181818201,
                "tempo": 120.0
            },
            {
                "start_time": 24.299999999999997,
                "end_time": 24.33863636363636,
                "pitch": 53,
                "velocity": 40,
                "duration": 0.038636363636364024,
                "tempo": 120.0
            },
            {
                "start_time": 24.33863636363636,
                "end_time": 25.045454545454543,
                "pitch": 55,
                "velocity": 40,
                "duration": 0.706818181818182,
                "tempo": 120.0
            },
            {
                "start_time": 25.152272727272727,
                "end_time": 25.349999999999998,
                "pitch": 62,
                "velocity": 40,
                "duration": 0.19772727272727053,
                "tempo": 120.0
            },
            {
                "start_time": 25.409090909090907,
                "end_time": 25.545454545454543,
                "pitch": 62,
                "velocity": 40,
                "duration": 0.1363636363636367,
                "tempo": 120.0
            },
            {
                "start_time": 25.545454545454543,
                "end_time": 25.727272727272727,
                "pitch": 79,
                "velocity": 40,
                "duration": 0.18181818181818343,
                "tempo": 120.0
            },
            {
                "start_time": 25.90681818181818,
                "end_time": 25.94772727272727,
                "pitch": 79,
                "velocity": 40,
                "duration": 0.04090909090908923,
                "tempo": 120.0
            },
            {
                "start_time": 25.94772727272727,
                "end_time": 26.243181818181817,
                "pitch": 70,
                "velocity": 40,
                "duration": 0.29545454545454675,
                "tempo": 120.0
            },
            {
                "start_time": 26.34090909090909,
                "end_time": 26.64772727272727,
                "pitch": 75,
                "velocity": 40,
                "duration": 0.3068181818181799,
                "tempo": 120.0
            },
            {
                "start_time": 26.75,
                "end_time": 27.049999999999997,
                "pitch": 75,
                "velocity": 40,
                "duration": 0.29999999999999716,
                "tempo": 120.0
            },
            {
                "start_time": 27.15,
                "end_time": 27.211363636363636,
                "pitch": 74,
                "velocity": 40,
                "duration": 0.0613636363636374,
                "tempo": 120.0
            },
            {
                "start_time": 27.349999999999998,
                "end_time": 27.4,
                "pitch": 75,
                "velocity": 40,
                "duration": 0.05000000000000071,
                "tempo": 120.0
            },
            {
                "start_time": 27.511363636363637,
                "end_time": 27.943181818181817,
                "pitch": 74,
                "velocity": 40,
                "duration": 0.4318181818181799,
                "tempo": 120.0
            },
            {
                "start_time": 27.943181818181817,
                "end_time": 28.004545454545454,
                "pitch": 70,
                "velocity": 40,
                "duration": 0.0613636363636374,
                "tempo": 120.0
            },
            {
                "start_time": 28.14772727272727,
                "end_time": 28.209090909090907,
                "pitch": 70,
                "velocity": 40,
                "duration": 0.0613636363636374,
                "tempo": 120.0
            },
            {
                "start_time": 28.352272727272727,
                "end_time": 28.71590909090909,
                "pitch": 68,
                "velocity": 40,
                "duration": 0.3636363636363633,
                "tempo": 120.0
            },
            {
                "start_time": 28.75681818181818,
                "end_time": 29.224999999999998,
                "pitch": 63,
                "velocity": 40,
                "duration": 0.4681818181818187,
                "tempo": 120.0
            },
            {
                "start_time": 29.35909090909091,
                "end_time": 29.704545454545453,
                "pitch": 72,
                "velocity": 40,
                "duration": 0.3454545454545439,
                "tempo": 120.0
            },
            {
                "start_time": 29.75681818181818,
                "end_time": 29.811363636363634,
                "pitch": 68,
                "velocity": 40,
                "duration": 0.054545454545454675,
                "tempo": 120.0
            },
            {
                "start_time": 29.968181818181815,
                "end_time": 30.470454545454544,
                "pitch": 68,
                "velocity": 40,
                "duration": 0.5022727272727288,
                "tempo": 120.0
            },
            {
                "start_time": 30.55909090909091,
                "end_time": 30.60681818181818,
                "pitch": 67,
                "velocity": 40,
                "duration": 0.04772727272727195,
                "tempo": 120.0
            },
            {
                "start_time": 30.71590909090909,
                "end_time": 30.754545454545454,
                "pitch": 67,
                "velocity": 40,
                "duration": 0.038636363636364024,
                "tempo": 120.0
            },
            {
                "start_time": 30.754545454545454,
                "end_time": 30.852272727272727,
                "pitch": 65,
                "velocity": 40,
                "duration": 0.09772727272727266,
                "tempo": 120.0
            },
            {
                "start_time": 30.95,
                "end_time": 31.049999999999997,
                "pitch": 59,
                "velocity": 40,
                "duration": 0.09999999999999787,
                "tempo": 120.0
            },
            {
                "start_time": 31.14772727272727,
                "end_time": 31.252272727272725,
                "pitch": 67,
                "velocity": 40,
                "duration": 0.10454545454545539,
                "tempo": 120.0
            },
            {
                "start_time": 31.35681818181818,
                "end_time": 31.420454545454543,
                "pitch": 65,
                "velocity": 40,
                "duration": 0.0636363636363626,
                "tempo": 120.0
            },
            {
                "start_time": 31.568181818181817,
                "end_time": 31.670454545454543,
                "pitch": 65,
                "velocity": 40,
                "duration": 0.10227272727272663,
                "tempo": 120.0
            },
            {
                "start_time": 31.831818181818182,
                "end_time": 33.06590909090909,
                "pitch": 63,
                "velocity": 40,
                "duration": 1.2340909090909058,
                "tempo": 120.0
            },
            {
                "start_time": 33.17727272727272,
                "end_time": 33.236363636363635,
                "pitch": 63,
                "velocity": 40,
                "duration": 0.05909090909091219,
                "tempo": 120.0
            }
        ],
        "Violin": [
            {
                "start_time": 0.20909090909090908,
                "end_time": 0.3090909090909091,
                "pitch": 75,
                "velocity": 127,
                "duration": 0.1,
                "tempo": 120.0
            }
        ]
    }
}