{
    "track_id": "06 Chance BGM",
    "mood": "happy",
    "instruments": {
        "Trumpet": [
            {
                "start_time": 0.004545454545454545,
                "end_time": 0.7977272727272727,
                "pitch": 69,
                "velocity": 64,
                "duration": 0.7931818181818182,
                "tempo": 120.0
            },
            {
                "start_time": 0.7977272727272727,
                "end_time": 1.4068181818181817,
                "pitch": 69,
                "velocity": 64,
                "duration": 0.609090909090909,
                "tempo": 120.0
            },
            {
                "start_time": 1.4068181818181817,
                "end_time": 1.609090909090909,
                "pitch": 69,
                "velocity": 64,
                "duration": 0.20227272727272716,
                "tempo": 120.0
            },
            {
                "start_time": 1.609090909090909,
                "end_time": 2.3863636363636362,
                "pitch": 69,
                "velocity": 64,
                "duration": 0.7772727272727273,
                "tempo": 120.0
            },
            {
                "start_time": 2.3863636363636362,
                "end_time": 2.6568181818181817,
                "pitch": 61,
                "velocity": 64,
                "duration": 0.2704545454545455,
                "tempo": 120.0
            },
            {
                "start_time": 2.6568181818181817,
                "end_time": 2.9272727272727272,
                "pitch": 64,
                "velocity": 64,
                "duration": 0.2704545454545455,
                "tempo": 120.0
            },
            {
                "start_time": 2.9272727272727272,
                "end_time": 3.1977272727272728,
                "pitch": 69,
                "velocity": 64,
                "duration": 0.2704545454545455,
                "tempo": 120.0
            },
            {
                "start_time": 3.1977272727272728,
                "end_time": 4.0,
                "pitch": 73,
                "velocity": 64,
                "duration": 0.8022727272727272,
                "tempo": 120.0
            },
            {
                "start_time": 4.0,
                "end_time": 4.5659090909090905,
                "pitch": 73,
                "velocity": 64,
                "duration": 0.5659090909090905,
                "tempo": 120.0
            },
            {
                "start_time": 4.5659090909090905,
                "end_time": 4.765909090909091,
                "pitch": 73,
                "velocity": 64,
                "duration": 0.20000000000000018,
                "tempo": 120.0
            },
            {
                "start_time": 4.765909090909091,
                "end_time": 5.577272727272727,
                "pitch": 73,
                "velocity": 64,
                "duration": 0.8113636363636365,
                "tempo": 120.0
            },
            {
                "start_time": 2.6568181818181817,
                "end_time": 5.845454545454545,
                "pitch": 61,
                "velocity": 64,
                "duration": 3.188636363636363,
                "tempo": 120.0
            },
            {
                "start_time": 5.577272727272727,
                "end_time": 5.845454545454545,
                "pitch": 61,
                "velocity": 64,
                "duration": 0.26818181818181763,
                "tempo": 120.0
            },
            {
                "start_time": 5.845454545454545,
                "end_time": 6.11590909090909,
                "pitch": 64,
                "velocity": 64,
                "duration": 0.2704545454545455,
                "tempo": 120.0
            },
            {
                "start_time": 2.9272727272727272,
                "end_time": 6.11590909090909,
                "pitch": 76,
                "velocity": 64,
                "duration": 3.188636363636363,
                "tempo": 120.0
            },
            {
                "start_time": 3.1977272727272728,
                "end_time": 6.388636363636364,
                "pitch": 69,
                "velocity": 64,
                "duration": 3.190909090909091,
                "tempo": 120.0
            },
            {
                "start_time": 6.11590909090909,
                "end_time": 6.388636363636364,
                "pitch": 69,
                "velocity": 64,
                "duration": 0.2727272727272734,
                "tempo": 120.0
            },
            {
                "start_time": 6.11590909090909,
                "end_time": 7.16590909090909,
                "pitch": 76,
                "velocity": 64,
                "duration": 1.0499999999999998,
                "tempo": 120.0
            },
            {
                "start_time": 6.388636363636364,
                "end_time": 7.16590909090909,
                "pitch": 76,
                "velocity": 64,
                "duration": 0.7772727272727264,
                "tempo": 120.0
            },
            {
                "start_time": 7.16590909090909,
                "end_time": 7.7749999999999995,
                "pitch": 76,
                "velocity": 64,
                "duration": 0.6090909090909093,
                "tempo": 120.0
            },
            {
                "start_time": 7.7749999999999995,
                "end_time": 7.977272727272727,
                "pitch": 76,
                "velocity": 64,
                "duration": 0.20227272727272716,
                "tempo": 120.0
            },
            {
                "start_time": 7.977272727272727,
                "end_time": 8.754545454545454,
                "pitch": 76,
                "velocity": 64,
                "duration": 0.7772727272727273,
                "tempo": 120.0
            },
            {
                "start_time": 5.845454545454545,
                "end_time": 9.022727272727272,
                "pitch": 61,
                "velocity": 64,
                "duration": 3.177272727272727,
                "tempo": 120.0
            },
            {
                "start_time": 8.754545454545454,
                "end_time": 9.022727272727272,
                "pitch": 61,
                "velocity": 64,
                "duration": 0.26818181818181763,
                "tempo": 120.0
            },
            {
                "start_time": 8.754545454545454,
                "end_time": 9.293181818181818,
                "pitch": 64,
                "velocity": 64,
                "duration": 0.538636363636364,
                "tempo": 120.0
            },
            {
                "start_time": 9.022727272727272,
                "end_time": 9.293181818181818,
                "pitch": 64,
                "velocity": 64,
                "duration": 0.2704545454545464,
                "tempo": 120.0
            },
            {
                "start_time": 6.388636363636364,
                "end_time": 9.56590909090909,
                "pitch": 69,
                "velocity": 64,
                "duration": 3.177272727272726,
                "tempo": 120.0
            },
            {
                "start_time": 9.293181818181818,
                "end_time": 9.56590909090909,
                "pitch": 69,
                "velocity": 64,
                "duration": 0.2727272727272716,
                "tempo": 120.0
            },
            {
                "start_time": 9.56590909090909,
                "end_time": 10.36590909090909,
                "pitch": 81,
                "velocity": 64,
                "duration": 0.8000000000000007,
                "tempo": 120.0
            },
            {
                "start_time": 10.36590909090909,
                "end_time": 10.934090909090909,
                "pitch": 81,
                "velocity": 64,
                "duration": 0.5681818181818183,
                "tempo": 120.0
            },
            {
                "start_time": 10.934090909090909,
                "end_time": 11.134090909090908,
                "pitch": 81,
                "velocity": 64,
                "duration": 0.1999999999999993,
                "tempo": 120.0
            },
            {
                "start_time": 2.3863636363636362,
                "end_time": 11.934090909090909,
                "pitch": 57,
                "velocity": 64,
                "duration": 9.547727272727272,
                "tempo": 120.0
            },
            {
                "start_time": 11.134090909090908,
                "end_time": 11.934090909090909,
                "pitch": 81,
                "velocity": 64,
                "duration": 0.8000000000000007,
                "tempo": 120.0
            },
            {
                "start_time": 9.022727272727272,
                "end_time": 12.2,
                "pitch": 61,
                "velocity": 64,
                "duration": 3.1772727272727277,
                "tempo": 120.0
            },
            {
                "start_time": 11.934090909090909,
                "end_time": 12.2,
                "pitch": 61,
                "velocity": 64,
                "duration": 0.26590909090909065,
                "tempo": 120.0
            },
            {
                "start_time": 12.2,
                "end_time": 12.46590909090909,
                "pitch": 64,
                "velocity": 64,
                "duration": 0.26590909090909065,
                "tempo": 120.0
            },
            {
                "start_time": 9.293181818181818,
                "end_time": 12.46590909090909,
                "pitch": 76,
                "velocity": 64,
                "duration": 3.172727272727272,
                "tempo": 120.0
            },
            {
                "start_time": 12.46590909090909,
                "end_time": 12.73409090909091,
                "pitch": 69,
                "velocity": 64,
                "duration": 0.2681818181818194,
                "tempo": 120.0
            },
            {
                "start_time": 12.73409090909091,
                "end_time": 13.004545454545454,
                "pitch": 69,
                "velocity": 64,
                "duration": 0.2704545454545446,
                "tempo": 120.0
            }
        ]
    }
}