{
    "track_id": "06 Dass XXX",
    "mood": "happy",
    "instruments": {
        "Electric Piano 1": [
            {
                "start_time": 0.4386363636363636,
                "end_time": 0.9340909090909091,
                "pitch": 56,
                "velocity": 25,
                "duration": 0.4954545454545455,
                "tempo": 120.0
            },
            {
                "start_time": 1.190909090909091,
                "end_time": 1.4249999999999998,
                "pitch": 56,
                "velocity": 25,
                "duration": 0.2340909090909089,
                "tempo": 120.0
            },
            {
                "start_time": 1.6568181818181817,
                "end_time": 1.9045454545454545,
                "pitch": 56,
                "velocity": 25,
                "duration": 0.2477272727272728,
                "tempo": 120.0
            },
            {
                "start_time": 2.3909090909090907,
                "end_time": 2.8636363636363633,
                "pitch": 56,
                "velocity": 25,
                "duration": 0.47272727272727266,
                "tempo": 120.0
            },
            {
                "start_time": 3.1136363636363633,
                "end_time": 3.3477272727272727,
                "pitch": 56,
                "velocity": 25,
                "duration": 0.23409090909090935,
                "tempo": 120.0
            },
            {
                "start_time": 3.5977272727272727,
                "end_time": 3.8318181818181816,
                "pitch": 56,
                "velocity": 25,
                "duration": 0.2340909090909089,
                "tempo": 120.0
            },
            {
                "start_time": 4.0636363636363635,
                "end_time": 4.3113636363636365,
                "pitch": 56,
                "velocity": 25,
                "duration": 0.24772727272727302,
                "tempo": 120.0
            },
            {
                "start_time": 4.3113636363636365,
                "end_time": 4.797727272727273,
                "pitch": 54,
                "velocity": 25,
                "duration": 0.48636363636363633,
                "tempo": 120.0
            },
            {
                "start_time": 5.036363636363636,
                "end_time": 5.2704545454545455,
                "pitch": 54,
                "velocity": 25,
                "duration": 0.23409090909090935,
                "tempo": 120.0
            },
            {
                "start_time": 5.5204545454545455,
                "end_time": 6.243181818181818,
                "pitch": 54,
                "velocity": 25,
                "duration": 0.7227272727272727,
                "tempo": 120.0
            },
            {
                "start_time": 6.243181818181818,
                "end_time": 6.727272727272727,
                "pitch": 56,
                "velocity": 25,
                "duration": 0.48409090909090846,
                "tempo": 120.0
            },
            {
                "start_time": 6.963636363636363,
                "end_time": 7.213636363636363,
                "pitch": 56,
                "velocity": 25,
                "duration": 0.25,
                "tempo": 120.0
            },
            {
                "start_time": 7.445454545454545,
                "end_time": 7.686363636363636,
                "pitch": 56,
                "velocity": 25,
                "duration": 0.2409090909090903,
                "tempo": 120.0
            },
            {
                "start_time": 8.168181818181818,
                "end_time": 8.659090909090908,
                "pitch": 59,
                "velocity": 25,
                "duration": 0.4909090909090903,
                "tempo": 120.0
            },
            {
                "start_time": 8.897727272727272,
                "end_time": 9.15,
                "pitch": 59,
                "velocity": 25,
                "duration": 0.25227272727272876,
                "tempo": 120.0
            },
            {
                "start_time": 9.386363636363637,
                "end_time": 9.634090909090908,
                "pitch": 59,
                "velocity": 25,
                "duration": 0.24772727272727124,
                "tempo": 120.0
            },
            {
                "start_time": 10.097727272727273,
                "end_time": 10.593181818181817,
                "pitch": 59,
                "velocity": 25,
                "duration": 0.49545454545454426,
                "tempo": 120.0
            },
            {
                "start_time": 10.854545454545454,
                "end_time": 11.088636363636363,
                "pitch": 59,
                "velocity": 25,
                "duration": 0.23409090909090935,
                "tempo": 120.0
            },
            {
                "start_time": 11.327272727272726,
                "end_time": 11.56590909090909,
                "pitch": 59,
                "velocity": 25,
                "duration": 0.2386363636363633,
                "tempo": 120.0
            },
            {
                "start_time": 11.788636363636362,
                "end_time": 12.045454545454545,
                "pitch": 59,
                "velocity": 25,
                "duration": 0.2568181818181827,
                "tempo": 120.0
            },
            {
                "start_time": 12.045454545454545,
                "end_time": 12.524999999999999,
                "pitch": 59,
                "velocity": 25,
                "duration": 0.4795454545454536,
                "tempo": 120.0
            },
            {
                "start_time": 12.784090909090908,
                "end_time": 13.011363636363635,
                "pitch": 59,
                "velocity": 25,
                "duration": 0.22727272727272663,
                "tempo": 120.0
            },
            {
                "start_time": 13.256818181818181,
                "end_time": 13.979545454545454,
                "pitch": 59,
                "velocity": 25,
                "duration": 0.7227272727272727,
                "tempo": 120.0
            },
            {
                "start_time": 13.979545454545454,
                "end_time": 14.468181818181817,
                "pitch": 58,
                "velocity": 25,
                "duration": 0.4886363636363633,
                "tempo": 120.0
            },
            {
                "start_time": 14.709090909090909,
                "end_time": 14.931818181818182,
                "pitch": 58,
                "velocity": 25,
                "duration": 0.22272727272727266,
                "tempo": 120.0
            },
            {
                "start_time": 15.172727272727272,
                "end_time": 15.436363636363636,
                "pitch": 58,
                "velocity": 25,
                "duration": 0.26363636363636367,
                "tempo": 120.0
            },
            {
                "start_time": 16.04090909090909,
                "end_time": 16.65681818181818,
                "pitch": 59,
                "velocity": 25,
                "duration": 0.6159090909090921,
                "tempo": 120.0
            },
            {
                "start_time": 16.89090909090909,
                "end_time": 17.143181818181816,
                "pitch": 59,
                "velocity": 25,
                "duration": 0.2522727272727252,
                "tempo": 120.0
            },
            {
                "start_time": 17.381818181818183,
                "end_time": 17.62272727272727,
                "pitch": 59,
                "velocity": 25,
                "duration": 0.24090909090908852,
                "tempo": 120.0
            },
            {
                "start_time": 18.08863636363636,
                "end_time": 18.584090909090907,
                "pitch": 59,
                "velocity": 25,
                "duration": 0.49545454545454604,
                "tempo": 120.0
            },
            {
                "start_time": 18.820454545454545,
                "end_time": 19.070454545454545,
                "pitch": 59,
                "velocity": 25,
                "duration": 0.25,
                "tempo": 120.0
            },
            {
                "start_time": 19.304545454545455,
                "end_time": 19.554545454545455,
                "pitch": 59,
                "velocity": 25,
                "duration": 0.25,
                "tempo": 120.0
            },
            {
                "start_time": 19.793181818181818,
                "end_time": 20.034090909090907,
                "pitch": 59,
                "velocity": 25,
                "duration": 0.24090909090908852,
                "tempo": 120.0
            },
            {
                "start_time": 20.034090909090907,
                "end_time": 20.509090909090908,
                "pitch": 59,
                "velocity": 25,
                "duration": 0.4750000000000014,
                "tempo": 120.0
            },
            {
                "start_time": 20.763636363636362,
                "end_time": 20.99772727272727,
                "pitch": 59,
                "velocity": 25,
                "duration": 0.23409090909090935,
                "tempo": 120.0
            },
            {
                "start_time": 21.23181818181818,
                "end_time": 21.98181818181818,
                "pitch": 59,
                "velocity": 25,
                "duration": 0.75,
                "tempo": 120.0
            },
            {
                "start_time": 21.98181818181818,
                "end_time": 22.452272727272724,
                "pitch": 58,
                "velocity": 25,
                "duration": 0.4704545454545439,
                "tempo": 120.0
            },
            {
                "start_time": 22.7,
                "end_time": 22.929545454545455,
                "pitch": 58,
                "velocity": 25,
                "duration": 0.22954545454545539,
                "tempo": 120.0
            },
            {
                "start_time": 23.177272727272726,
                "end_time": 23.413636363636364,
                "pitch": 58,
                "velocity": 25,
                "duration": 0.2363636363636381,
                "tempo": 120.0
            },
            {
                "start_time": 23.909090909090907,
                "end_time": 24.395454545454545,
                "pitch": 59,
                "velocity": 25,
                "duration": 0.4863636363636381,
                "tempo": 120.0
            },
            {
                "start_time": 24.636363636363637,
                "end_time": 24.875,
                "pitch": 59,
                "velocity": 25,
                "duration": 0.2386363636363633,
                "tempo": 120.0
            },
            {
                "start_time": 25.113636363636363,
                "end_time": 25.34090909090909,
                "pitch": 59,
                "velocity": 25,
                "duration": 0.22727272727272663,
                "tempo": 120.0
            },
            {
                "start_time": 25.836363636363636,
                "end_time": 26.32272727272727,
                "pitch": 59,
                "velocity": 25,
                "duration": 0.48636363636363455,
                "tempo": 120.0
            },
            {
                "start_time": 26.55909090909091,
                "end_time": 26.811363636363634,
                "pitch": 59,
                "velocity": 25,
                "duration": 0.2522727272727252,
                "tempo": 120.0
            },
            {
                "start_time": 27.049999999999997,
                "end_time": 27.29090909090909,
                "pitch": 59,
                "velocity": 25,
                "duration": 0.24090909090909207,
                "tempo": 120.0
            },
            {
                "start_time": 27.536363636363635,
                "end_time": 27.76590909090909,
                "pitch": 59,
                "velocity": 25,
                "duration": 0.22954545454545539,
                "tempo": 120.0
            },
            {
                "start_time": 27.76590909090909,
                "end_time": 28.254545454545454,
                "pitch": 59,
                "velocity": 25,
                "duration": 0.4886363636363633,
                "tempo": 120.0
            },
            {
                "start_time": 28.49090909090909,
                "end_time": 28.74090909090909,
                "pitch": 59,
                "velocity": 25,
                "duration": 0.25,
                "tempo": 120.0
            },
            {
                "start_time": 28.979545454545452,
                "end_time": 29.709090909090907,
                "pitch": 59,
                "velocity": 25,
                "duration": 0.7295454545454554,
                "tempo": 120.0
            },
            {
                "start_time": 29.709090909090907,
                "end_time": 30.18409090909091,
                "pitch": 58,
                "velocity": 25,
                "duration": 0.4750000000000014,
                "tempo": 120.0
            },
            {
                "start_time": 30.438636363636363,
                "end_time": 30.672727272727272,
                "pitch": 58,
                "velocity": 25,
                "duration": 0.23409090909090935,
                "tempo": 120.0
            },
            {
                "start_time": 30.911363636363635,
                "end_time": 62.054545454545455,
                "pitch": 58,
                "velocity": 25,
                "duration": 31.14318181818182,
                "tempo": 120.0
            },
            {
                "start_time": 62.55,
                "end_time": 63.03409090909091,
                "pitch": 57,
                "velocity": 25,
                "duration": 0.48409090909090935,
                "tempo": 120.0
            },
            {
                "start_time": 63.268181818181816,
                "end_time": 63.5,
                "pitch": 57,
                "velocity": 25,
                "duration": 0.23181818181818414,
                "tempo": 120.0
            },
            {
                "start_time": 63.74545454545454,
                "end_time": 63.97727272727273,
                "pitch": 57,
                "velocity": 25,
                "duration": 0.23181818181818414,
                "tempo": 120.0
            },
            {
                "start_time": 64.47272727272727,
                "end_time": 64.9590909090909,
                "pitch": 57,
                "velocity": 25,
                "duration": 0.48636363636363455,
                "tempo": 120.0
            },
            {
                "start_time": 65.2,
                "end_time": 65.45681818181818,
                "pitch": 57,
                "velocity": 25,
                "duration": 0.2568181818181756,
                "tempo": 120.0
            },
            {
                "start_time": 65.69090909090909,
                "end_time": 65.92727272727272,
                "pitch": 57,
                "velocity": 25,
                "duration": 0.23636363636363455,
                "tempo": 120.0
            },
            {
                "start_time": 66.17272727272727,
                "end_time": 66.40454545454546,
                "pitch": 57,
                "velocity": 25,
                "duration": 0.23181818181818414,
                "tempo": 120.0
            },
            {
                "start_time": 66.40454545454546,
                "end_time": 66.89090909090909,
                "pitch": 55,
                "velocity": 25,
                "duration": 0.48636363636363455,
                "tempo": 120.0
            },
            {
                "start_time": 67.125,
                "end_time": 67.375,
                "pitch": 55,
                "velocity": 25,
                "duration": 0.25,
                "tempo": 120.0
            },
            {
                "start_time": 67.61363636363636,
                "end_time": 68.3409090909091,
                "pitch": 55,
                "velocity": 25,
                "duration": 0.7272727272727337,
                "tempo": 120.0
            },
            {
                "start_time": 68.34318181818182,
                "end_time": 68.81818181818181,
                "pitch": 57,
                "velocity": 25,
                "duration": 0.4749999999999943,
                "tempo": 120.0
            },
            {
                "start_time": 69.06818181818181,
                "end_time": 69.30227272727272,
                "pitch": 57,
                "velocity": 25,
                "duration": 0.23409090909090935,
                "tempo": 120.0
            },
            {
                "start_time": 69.54090909090908,
                "end_time": 85.26136363636363,
                "pitch": 57,
                "velocity": 25,
                "duration": 15.720454545454544,
                "tempo": 120.0
            },
            {
                "start_time": 85.73863636363636,
                "end_time": 86.225,
                "pitch": 57,
                "velocity": 25,
                "duration": 0.48636363636363455,
                "tempo": 120.0
            },
            {
                "start_time": 86.4659090909091,
                "end_time": 86.72045454545454,
                "pitch": 57,
                "velocity": 25,
                "duration": 0.2545454545454504,
                "tempo": 120.0
            },
            {
                "start_time": 86.95454545454545,
                "end_time": 87.2090909090909,
                "pitch": 57,
                "velocity": 25,
                "duration": 0.2545454545454504,
                "tempo": 120.0
            },
            {
                "start_time": 87.67954545454545,
                "end_time": 88.15681818181818,
                "pitch": 57,
                "velocity": 25,
                "duration": 0.47727272727273373,
                "tempo": 120.0
            },
            {
                "start_time": 88.41363636363636,
                "end_time": 88.65227272727272,
                "pitch": 57,
                "velocity": 25,
                "duration": 0.23863636363635976,
                "tempo": 120.0
            },
            {
                "start_time": 88.88863636363637,
                "end_time": 89.13863636363637,
                "pitch": 57,
                "velocity": 25,
                "duration": 0.25,
                "tempo": 120.0
            },
            {
                "start_time": 89.375,
                "end_time": 89.62727272727273,
                "pitch": 57,
                "velocity": 25,
                "duration": 0.2522727272727252,
                "tempo": 120.0
            },
            {
                "start_time": 89.62727272727273,
                "end_time": 90.10681818181818,
                "pitch": 55,
                "velocity": 25,
                "duration": 0.47954545454545894,
                "tempo": 120.0
            },
            {
                "start_time": 90.35227272727272,
                "end_time": 90.58181818181818,
                "pitch": 55,
                "velocity": 25,
                "duration": 0.22954545454545894,
                "tempo": 120.0
            },
            {
                "start_time": 90.8340909090909,
                "end_time": 91.55454545454545,
                "pitch": 55,
                "velocity": 25,
                "duration": 0.7204545454545439,
                "tempo": 120.0
            },
            {
                "start_time": 91.55454545454545,
                "end_time": 92.05,
                "pitch": 57,
                "velocity": 25,
                "duration": 0.4954545454545496,
                "tempo": 120.0
            },
            {
                "start_time": 92.2840909090909,
                "end_time": 92.51818181818182,
                "pitch": 57,
                "velocity": 25,
                "duration": 0.23409090909090935,
                "tempo": 120.0
            },
            {
                "start_time": 92.76363636363637,
                "end_time": 123.87272727272726,
                "pitch": 57,
                "velocity": 25,
                "duration": 31.109090909090895,
                "tempo": 120.0
            }
        ],
        "Acoustic Guitar (nylon)": [
            {
                "start_time": 31.65681818181818,
                "end_time": 31.770454545454545,
                "pitch": 25,
                "velocity": 32,
                "duration": 0.11363636363636331,
                "tempo": 120.0
            },
            {
                "start_time": 31.77272727272727,
                "end_time": 31.888636363636362,
                "pitch": 28,
                "velocity": 32,
                "duration": 0.11590909090909207,
                "tempo": 120.0
            },
            {
                "start_time": 31.888636363636362,
                "end_time": 32.00681818181818,
                "pitch": 32,
                "velocity": 32,
                "duration": 0.11818181818182083,
                "tempo": 120.0
            },
            {
                "start_time": 32.00681818181818,
                "end_time": 32.12272727272727,
                "pitch": 37,
                "velocity": 32,
                "duration": 0.11590909090908497,
                "tempo": 120.0
            },
            {
                "start_time": 32.125,
                "end_time": 32.25681818181818,
                "pitch": 40,
                "velocity": 32,
                "duration": 0.13181818181818272,
                "tempo": 120.0
            },
            {
                "start_time": 32.25681818181818,
                "end_time": 32.375,
                "pitch": 44,
                "velocity": 32,
                "duration": 0.11818181818181728,
                "tempo": 120.0
            },
            {
                "start_time": 32.377272727272725,
                "end_time": 32.49318181818182,
                "pitch": 49,
                "velocity": 32,
                "duration": 0.11590909090909207,
                "tempo": 120.0
            },
            {
                "start_time": 32.49318181818182,
                "end_time": 32.611363636363635,
                "pitch": 52,
                "velocity": 32,
                "duration": 0.11818181818181728,
                "tempo": 120.0
            },
            {
                "start_time": 32.611363636363635,
                "end_time": 32.72727272727273,
                "pitch": 56,
                "velocity": 32,
                "duration": 0.11590909090909207,
                "tempo": 120.0
            },
            {
                "start_time": 32.72727272727273,
                "end_time": 32.86363636363636,
                "pitch": 61,
                "velocity": 32,
                "duration": 0.13636363636363313,
                "tempo": 120.0
            },
            {
                "start_time": 32.86363636363636,
                "end_time": 32.98181818181818,
                "pitch": 64,
                "velocity": 32,
                "duration": 0.11818181818181728,
                "tempo": 120.0
            },
            {
                "start_time": 32.98181818181818,
                "end_time": 33.1,
                "pitch": 68,
                "velocity": 32,
                "duration": 0.11818181818182438,
                "tempo": 120.0
            },
            {
                "start_time": 33.1,
                "end_time": 33.215909090909086,
                "pitch": 73,
                "velocity": 32,
                "duration": 0.11590909090908497,
                "tempo": 120.0
            },
            {
                "start_time": 33.215909090909086,
                "end_time": 33.33409090909091,
                "pitch": 76,
                "velocity": 32,
                "duration": 0.11818181818182438,
                "tempo": 120.0
            },
            {
                "start_time": 33.33409090909091,
                "end_time": 33.465909090909086,
                "pitch": 80,
                "velocity": 32,
                "duration": 0.13181818181817562,
                "tempo": 120.0
            },
            {
                "start_time": 33.465909090909086,
                "end_time": 33.58409090909091,
                "pitch": 85,
                "velocity": 32,
                "duration": 0.11818181818182438,
                "tempo": 120.0
            },
            {
                "start_time": 33.58409090909091,
                "end_time": 33.69772727272727,
                "pitch": 25,
                "velocity": 32,
                "duration": 0.11363636363635976,
                "tempo": 120.0
            },
            {
                "start_time": 33.69772727272727,
                "end_time": 33.81590909090909,
                "pitch": 29,
                "velocity": 32,
                "duration": 0.11818181818181728,
                "tempo": 120.0
            },
            {
                "start_time": 33.81590909090909,
                "end_time": 33.93181818181818,
                "pitch": 32,
                "velocity": 32,
                "duration": 0.11590909090909207,
                "tempo": 120.0
            },
            {
                "start_time": 33.934090909090905,
                "end_time": 34.06818181818181,
                "pitch": 37,
                "velocity": 32,
                "duration": 0.13409090909090793,
                "tempo": 120.0
            },
            {
                "start_time": 34.06818181818181,
                "end_time": 34.18636363636364,
                "pitch": 41,
                "velocity": 32,
                "duration": 0.11818181818182438,
                "tempo": 120.0
            },
            {
                "start_time": 34.18636363636364,
                "end_time": 34.30681818181818,
                "pitch": 44,
                "velocity": 32,
                "duration": 0.12045454545454248,
                "tempo": 120.0
            },
            {
                "start_time": 34.30681818181818,
                "end_time": 34.425,
                "pitch": 49,
                "velocity": 32,
                "duration": 0.11818181818181728,
                "tempo": 120.0
            },
            {
                "start_time": 34.425,
                "end_time": 34.54545454545455,
                "pitch": 53,
                "velocity": 32,
                "duration": 0.12045454545454959,
                "tempo": 120.0
            },
            {
                "start_time": 34.54545454545455,
                "end_time": 34.675,
                "pitch": 56,
                "velocity": 32,
                "duration": 0.1295454545454504,
                "tempo": 120.0
            },
            {
                "start_time": 34.675,
                "end_time": 34.793181818181814,
                "pitch": 61,
                "velocity": 32,
                "duration": 0.11818181818181728,
                "tempo": 120.0
            },
            {
                "start_time": 34.793181818181814,
                "end_time": 34.90681818181818,
                "pitch": 65,
                "velocity": 32,
                "duration": 0.11363636363636687,
                "tempo": 120.0
            },
            {
                "start_time": 34.90681818181818,
                "end_time": 35.02272727272727,
                "pitch": 68,
                "velocity": 32,
                "duration": 0.11590909090909207,
                "tempo": 120.0
            },
            {
                "start_time": 35.02272727272727,
                "end_time": 35.138636363636365,
                "pitch": 73,
                "velocity": 32,
                "duration": 0.11590909090909207,
                "tempo": 120.0
            },
            {
                "start_time": 35.138636363636365,
                "end_time": 35.275,
                "pitch": 77,
                "velocity": 32,
                "duration": 0.13636363636363313,
                "tempo": 120.0
            },
            {
                "start_time": 35.275,
                "end_time": 35.393181818181816,
                "pitch": 80,
                "velocity": 32,
                "duration": 0.11818181818181728,
                "tempo": 120.0
            },
            {
                "start_time": 35.393181818181816,
                "end_time": 35.50909090909091,
                "pitch": 85,
                "velocity": 32,
                "duration": 0.11590909090909207,
                "tempo": 120.0
            },
            {
                "start_time": 35.51136363636363,
                "end_time": 35.625,
                "pitch": 25,
                "velocity": 32,
                "duration": 0.11363636363636687,
                "tempo": 120.0
            },
            {
                "start_time": 35.625,
                "end_time": 35.74318181818182,
                "pitch": 30,
                "velocity": 32,
                "duration": 0.11818181818181728,
                "tempo": 120.0
            },
            {
                "start_time": 35.74318181818182,
                "end_time": 35.877272727272725,
                "pitch": 34,
                "velocity": 32,
                "duration": 0.13409090909090793,
                "tempo": 120.0
            },
            {
                "start_time": 35.877272727272725,
                "end_time": 35.99318181818182,
                "pitch": 37,
                "velocity": 32,
                "duration": 0.11590909090909207,
                "tempo": 120.0
            },
            {
                "start_time": 35.99318181818182,
                "end_time": 36.11363636363636,
                "pitch": 42,
                "velocity": 32,
                "duration": 0.12045454545454248,
                "tempo": 120.0
            },
            {
                "start_time": 36.11363636363636,
                "end_time": 36.23409090909091,
                "pitch": 46,
                "velocity": 32,
                "duration": 0.12045454545454959,
                "tempo": 120.0
            },
            {
                "start_time": 36.23409090909091,
                "end_time": 36.35227272727273,
                "pitch": 49,
                "velocity": 32,
                "duration": 0.11818181818181728,
                "tempo": 120.0
            },
            {
                "start_time": 36.35227272727273,
                "end_time": 36.49090909090909,
                "pitch": 54,
                "velocity": 32,
                "duration": 0.13863636363636545,
                "tempo": 120.0
            },
            {
                "start_time": 36.49090909090909,
                "end_time": 36.60454545454545,
                "pitch": 58,
                "velocity": 32,
                "duration": 0.11363636363635976,
                "tempo": 120.0
            },
            {
                "start_time": 36.60454545454545,
                "end_time": 36.72272727272727,
                "pitch": 61,
                "velocity": 32,
                "duration": 0.11818181818181728,
                "tempo": 120.0
            },
            {
                "start_time": 36.72272727272727,
                "end_time": 36.83863636363636,
                "pitch": 66,
                "velocity": 32,
                "duration": 0.11590909090909207,
                "tempo": 120.0
            },
            {
                "start_time": 36.83863636363636,
                "end_time": 36.95681818181818,
                "pitch": 70,
                "velocity": 32,
                "duration": 0.11818181818181728,
                "tempo": 120.0
            },
            {
                "start_time": 36.95681818181818,
                "end_time": 37.086363636363636,
                "pitch": 73,
                "velocity": 32,
                "duration": 0.12954545454545752,
                "tempo": 120.0
            },
            {
                "start_time": 37.08863636363636,
                "end_time": 37.20227272727273,
                "pitch": 78,
                "velocity": 32,
                "duration": 0.11363636363636687,
                "tempo": 120.0
            },
            {
                "start_time": 37.20454545454545,
                "end_time": 37.31818181818181,
                "pitch": 82,
                "velocity": 32,
                "duration": 0.11363636363635976,
                "tempo": 120.0
            },
            {
                "start_time": 37.31818181818181,
                "end_time": 37.434090909090905,
                "pitch": 85,
                "velocity": 32,
                "duration": 0.11590909090909207,
                "tempo": 120.0
            },
            {
                "start_time": 37.434090909090905,
                "end_time": 37.54772727272727,
                "pitch": 27,
                "velocity": 32,
                "duration": 0.11363636363636687,
                "tempo": 120.0
            },
            {
                "start_time": 37.54772727272727,
                "end_time": 37.68181818181818,
                "pitch": 31,
                "velocity": 32,
                "duration": 0.13409090909090793,
                "tempo": 120.0
            },
            {
                "start_time": 37.68181818181818,
                "end_time": 37.8,
                "pitch": 34,
                "velocity": 32,
                "duration": 0.11818181818181728,
                "tempo": 120.0
            },
            {
                "start_time": 37.8,
                "end_time": 37.91590909090909,
                "pitch": 39,
                "velocity": 32,
                "duration": 0.11590909090909207,
                "tempo": 120.0
            },
            {
                "start_time": 37.91590909090909,
                "end_time": 38.03636363636363,
                "pitch": 43,
                "velocity": 32,
                "duration": 0.12045454545454248,
                "tempo": 120.0
            },
            {
                "start_time": 38.03636363636363,
                "end_time": 38.15681818181818,
                "pitch": 46,
                "velocity": 32,
                "duration": 0.12045454545454959,
                "tempo": 120.0
            },
            {
                "start_time": 38.15681818181818,
                "end_time": 38.29090909090909,
                "pitch": 51,
                "velocity": 32,
                "duration": 0.13409090909090793,
                "tempo": 120.0
            },
            {
                "start_time": 38.29090909090909,
                "end_time": 38.413636363636364,
                "pitch": 55,
                "velocity": 32,
                "duration": 0.1227272727272748,
                "tempo": 120.0
            },
            {
                "start_time": 38.413636363636364,
                "end_time": 38.529545454545456,
                "pitch": 58,
                "velocity": 32,
                "duration": 0.11590909090909207,
                "tempo": 120.0
            },
            {
                "start_time": 38.529545454545456,
                "end_time": 38.64545454545454,
                "pitch": 63,
                "velocity": 32,
                "duration": 0.11590909090908497,
                "tempo": 120.0
            },
            {
                "start_time": 38.64545454545454,
                "end_time": 38.76363636363636,
                "pitch": 67,
                "velocity": 32,
                "duration": 0.11818181818181728,
                "tempo": 120.0
            },
            {
                "start_time": 38.76363636363636,
                "end_time": 38.89772727272727,
                "pitch": 70,
                "velocity": 32,
                "duration": 0.13409090909091503,
                "tempo": 120.0
            },
            {
                "start_time": 39.36818181818182,
                "end_time": 39.49772727272727,
                "pitch": 25,
                "velocity": 32,
                "duration": 0.1295454545454504,
                "tempo": 120.0
            },
            {
                "start_time": 39.49772727272727,
                "end_time": 39.61363636363636,
                "pitch": 28,
                "velocity": 32,
                "duration": 0.11590909090909207,
                "tempo": 120.0
            },
            {
                "start_time": 39.61363636363636,
                "end_time": 39.72727272727273,
                "pitch": 32,
                "velocity": 32,
                "duration": 0.11363636363636687,
                "tempo": 120.0
            },
            {
                "start_time": 39.72954545454545,
                "end_time": 39.84318181818182,
                "pitch": 37,
                "velocity": 32,
                "duration": 0.11363636363636687,
                "tempo": 120.0
            },
            {
                "start_time": 39.84318181818182,
                "end_time": 39.96363636363636,
                "pitch": 40,
                "velocity": 32,
                "duration": 0.12045454545454248,
                "tempo": 120.0
            },
            {
                "start_time": 39.96363636363636,
                "end_time": 40.1,
                "pitch": 44,
                "velocity": 32,
                "duration": 0.13636363636364024,
                "tempo": 120.0
            },
            {
                "start_time": 40.1,
                "end_time": 40.21818181818182,
                "pitch": 49,
                "velocity": 32,
                "duration": 0.11818181818181728,
                "tempo": 120.0
            },
            {
                "start_time": 40.220454545454544,
                "end_time": 40.340909090909086,
                "pitch": 52,
                "velocity": 32,
                "duration": 0.12045454545454248,
                "tempo": 120.0
            },
            {
                "start_time": 40.340909090909086,
                "end_time": 40.45454545454545,
                "pitch": 56,
                "velocity": 32,
                "duration": 0.11363636363636687,
                "tempo": 120.0
            },
            {
                "start_time": 40.45681818181818,
                "end_time": 40.574999999999996,
                "pitch": 61,
                "velocity": 32,
                "duration": 0.11818181818181728,
                "tempo": 120.0
            },
            {
                "start_time": 40.574999999999996,
                "end_time": 40.709090909090904,
                "pitch": 64,
                "velocity": 32,
                "duration": 0.13409090909090793,
                "tempo": 120.0
            },
            {
                "start_time": 40.709090909090904,
                "end_time": 40.82727272727273,
                "pitch": 68,
                "velocity": 32,
                "duration": 0.11818181818182438,
                "tempo": 120.0
            },
            {
                "start_time": 40.82727272727273,
                "end_time": 40.94318181818181,
                "pitch": 73,
                "velocity": 32,
                "duration": 0.11590909090908497,
                "tempo": 120.0
            },
            {
                "start_time": 40.94318181818181,
                "end_time": 41.06136363636364,
                "pitch": 76,
                "velocity": 32,
                "duration": 0.11818181818182438,
                "tempo": 120.0
            },
            {
                "start_time": 41.06136363636364,
                "end_time": 41.17727272727272,
                "pitch": 80,
                "velocity": 32,
                "duration": 0.11590909090908497,
                "tempo": 120.0
            },
            {
                "start_time": 41.17727272727272,
                "end_time": 41.31136363636364,
                "pitch": 85,
                "velocity": 32,
                "duration": 0.13409090909091503,
                "tempo": 120.0
            },
            {
                "start_time": 41.31136363636364,
                "end_time": 41.429545454545455,
                "pitch": 25,
                "velocity": 32,
                "duration": 0.11818181818181728,
                "tempo": 120.0
            },
            {
                "start_time": 41.429545454545455,
                "end_time": 41.55,
                "pitch": 29,
                "velocity": 32,
                "duration": 0.12045454545454248,
                "tempo": 120.0
            },
            {
                "start_time": 41.55,
                "end_time": 41.67045454545455,
                "pitch": 32,
                "velocity": 32,
                "duration": 0.12045454545454959,
                "tempo": 120.0
            },
            {
                "start_time": 41.67045454545455,
                "end_time": 41.79090909090909,
                "pitch": 37,
                "velocity": 32,
                "duration": 0.12045454545454248,
                "tempo": 120.0
            },
            {
                "start_time": 41.79090909090909,
                "end_time": 41.92045454545455,
                "pitch": 41,
                "velocity": 32,
                "duration": 0.12954545454545752,
                "tempo": 120.0
            },
            {
                "start_time": 41.92045454545455,
                "end_time": 42.03636363636363,
                "pitch": 44,
                "velocity": 32,
                "duration": 0.11590909090908497,
                "tempo": 120.0
            },
            {
                "start_time": 42.03636363636363,
                "end_time": 42.15,
                "pitch": 49,
                "velocity": 32,
                "duration": 0.11363636363636687,
                "tempo": 120.0
            },
            {
                "start_time": 42.15,
                "end_time": 42.26590909090909,
                "pitch": 53,
                "velocity": 32,
                "duration": 0.11590909090909207,
                "tempo": 120.0
            },
            {
                "start_time": 42.26590909090909,
                "end_time": 42.38181818181818,
                "pitch": 56,
                "velocity": 32,
                "duration": 0.11590909090909207,
                "tempo": 120.0
            },
            {
                "start_time": 42.38181818181818,
                "end_time": 42.518181818181816,
                "pitch": 61,
                "velocity": 32,
                "duration": 0.13636363636363313,
                "tempo": 120.0
            },
            {
                "start_time": 42.518181818181816,
                "end_time": 42.63636363636363,
                "pitch": 65,
                "velocity": 32,
                "duration": 0.11818181818181728,
                "tempo": 120.0
            },
            {
                "start_time": 42.63636363636363,
                "end_time": 42.75454545454545,
                "pitch": 68,
                "velocity": 32,
                "duration": 0.11818181818181728,
                "tempo": 120.0
            },
            {
                "start_time": 42.75454545454545,
                "end_time": 42.87045454545454,
                "pitch": 73,
                "velocity": 32,
                "duration": 0.11590909090909207,
                "tempo": 120.0
            },
            {
                "start_time": 42.87045454545454,
                "end_time": 42.98863636363636,
                "pitch": 77,
                "velocity": 32,
                "duration": 0.11818181818181728,
                "tempo": 120.0
            },
            {
                "start_time": 42.98863636363636,
                "end_time": 43.12045454545454,
                "pitch": 80,
                "velocity": 32,
                "duration": 0.13181818181818272,
                "tempo": 120.0
            },
            {
                "start_time": 43.12272727272727,
                "end_time": 43.23863636363636,
                "pitch": 85,
                "velocity": 32,
                "duration": 0.11590909090909207,
                "tempo": 120.0
            },
            {
                "start_time": 43.23863636363636,
                "end_time": 43.35681818181818,
                "pitch": 25,
                "velocity": 32,
                "duration": 0.11818181818181728,
                "tempo": 120.0
            },
            {
                "start_time": 43.35681818181818,
                "end_time": 43.47727272727273,
                "pitch": 30,
                "velocity": 32,
                "duration": 0.12045454545454959,
                "tempo": 120.0
            },
            {
                "start_time": 43.47727272727273,
                "end_time": 43.595454545454544,
                "pitch": 34,
                "velocity": 32,
                "duration": 0.11818181818181728,
                "tempo": 120.0
            },
            {
                "start_time": 43.595454545454544,
                "end_time": 43.73409090909091,
                "pitch": 37,
                "velocity": 32,
                "duration": 0.13863636363636545,
                "tempo": 120.0
            },
            {
                "start_time": 43.73409090909091,
                "end_time": 43.85,
                "pitch": 42,
                "velocity": 32,
                "duration": 0.11590909090909207,
                "tempo": 120.0
            },
            {
                "start_time": 43.85,
                "end_time": 43.96818181818182,
                "pitch": 46,
                "velocity": 32,
                "duration": 0.11818181818181728,
                "tempo": 120.0
            },
            {
                "start_time": 43.96818181818182,
                "end_time": 44.084090909090904,
                "pitch": 49,
                "velocity": 32,
                "duration": 0.11590909090908497,
                "tempo": 120.0
            },
            {
                "start_time": 44.084090909090904,
                "end_time": 44.20227272727273,
                "pitch": 54,
                "velocity": 32,
                "duration": 0.11818181818182438,
                "tempo": 120.0
            },
            {
                "start_time": 44.20227272727273,
                "end_time": 44.33181818181818,
                "pitch": 58,
                "velocity": 32,
                "duration": 0.1295454545454504,
                "tempo": 120.0
            },
            {
                "start_time": 44.33181818181818,
                "end_time": 44.44772727272727,
                "pitch": 61,
                "velocity": 32,
                "duration": 0.11590909090909207,
                "tempo": 120.0
            },
            {
                "start_time": 44.44772727272727,
                "end_time": 44.56136363636364,
                "pitch": 66,
                "velocity": 32,
                "duration": 0.11363636363636687,
                "tempo": 120.0
            },
            {
                "start_time": 44.56136363636364,
                "end_time": 44.67727272727272,
                "pitch": 70,
                "velocity": 32,
                "duration": 0.11590909090908497,
                "tempo": 120.0
            },
            {
                "start_time": 44.67727272727272,
                "end_time": 44.79545454545455,
                "pitch": 73,
                "velocity": 32,
                "duration": 0.11818181818182438,
                "tempo": 120.0
            },
            {
                "start_time": 44.79545454545455,
                "end_time": 44.929545454545455,
                "pitch": 78,
                "velocity": 32,
                "duration": 0.13409090909090793,
                "tempo": 120.0
            },
            {
                "start_time": 44.929545454545455,
                "end_time": 45.04772727272727,
                "pitch": 82,
                "velocity": 32,
                "duration": 0.11818181818181728,
                "tempo": 120.0
            },
            {
                "start_time": 45.04772727272727,
                "end_time": 45.16590909090909,
                "pitch": 85,
                "velocity": 32,
                "duration": 0.11818181818181728,
                "tempo": 120.0
            },
            {
                "start_time": 45.16590909090909,
                "end_time": 45.28409090909091,
                "pitch": 27,
                "velocity": 32,
                "duration": 0.11818181818181728,
                "tempo": 120.0
            },
            {
                "start_time": 45.28409090909091,
                "end_time": 45.40454545454545,
                "pitch": 31,
                "velocity": 32,
                "duration": 0.12045454545454248,
                "tempo": 120.0
            },
            {
                "start_time": 45.40454545454545,
                "end_time": 45.54090909090909,
                "pitch": 34,
                "velocity": 32,
                "duration": 0.13636363636364024,
                "tempo": 120.0
            },
            {
                "start_time": 45.54090909090909,
                "end_time": 45.65909090909091,
                "pitch": 39,
                "velocity": 32,
                "duration": 0.11818181818181728,
                "tempo": 120.0
            },
            {
                "start_time": 45.66136363636363,
                "end_time": 45.777272727272724,
                "pitch": 43,
                "velocity": 32,
                "duration": 0.11590909090909207,
                "tempo": 120.0
            },
            {
                "start_time": 45.777272727272724,
                "end_time": 45.893181818181816,
                "pitch": 46,
                "velocity": 32,
                "duration": 0.11590909090909207,
                "tempo": 120.0
            },
            {
                "start_time": 45.893181818181816,
                "end_time": 46.00909090909091,
                "pitch": 51,
                "velocity": 32,
                "duration": 0.11590909090909207,
                "tempo": 120.0
            },
            {
                "start_time": 46.00909090909091,
                "end_time": 46.14545454545454,
                "pitch": 55,
                "velocity": 32,
                "duration": 0.13636363636363313,
                "tempo": 120.0
            },
            {
                "start_time": 46.14545454545454,
                "end_time": 46.26136363636363,
                "pitch": 58,
                "velocity": 32,
                "duration": 0.11590909090909207,
                "tempo": 120.0
            },
            {
                "start_time": 46.26136363636363,
                "end_time": 46.377272727272725,
                "pitch": 63,
                "velocity": 32,
                "duration": 0.11590909090909207,
                "tempo": 120.0
            },
            {
                "start_time": 46.377272727272725,
                "end_time": 46.49545454545454,
                "pitch": 67,
                "velocity": 32,
                "duration": 0.11818181818181728,
                "tempo": 120.0
            },
            {
                "start_time": 46.49545454545454,
                "end_time": 46.61363636363636,
                "pitch": 70,
                "velocity": 32,
                "duration": 0.11818181818181728,
                "tempo": 120.0
            },
            {
                "start_time": 47.08863636363636,
                "end_time": 47.20454545454545,
                "pitch": 26,
                "velocity": 32,
                "duration": 0.11590909090909207,
                "tempo": 120.0
            },
            {
                "start_time": 47.20454545454545,
                "end_time": 47.33863636363636,
                "pitch": 29,
                "velocity": 32,
                "duration": 0.13409090909090793,
                "tempo": 120.0
            },
            {
                "start_time": 47.33863636363636,
                "end_time": 47.45454545454545,
                "pitch": 33,
                "velocity": 32,
                "duration": 0.11590909090909207,
                "tempo": 120.0
            },
            {
                "start_time": 47.45454545454545,
                "end_time": 47.57272727272727,
                "pitch": 38,
                "velocity": 32,
                "duration": 0.11818181818181728,
                "tempo": 120.0
            },
            {
                "start_time": 47.57272727272727,
                "end_time": 47.69090909090909,
                "pitch": 41,
                "velocity": 32,
                "duration": 0.11818181818181728,
                "tempo": 120.0
            },
            {
                "start_time": 47.69090909090909,
                "end_time": 47.81136363636364,
                "pitch": 45,
                "velocity": 32,
                "duration": 0.12045454545454959,
                "tempo": 120.0
            },
            {
                "start_time": 47.81136363636364,
                "end_time": 47.94772727272727,
                "pitch": 50,
                "velocity": 32,
                "duration": 0.13636363636363313,
                "tempo": 120.0
            },
            {
                "start_time": 47.94772727272727,
                "end_time": 48.06818181818181,
                "pitch": 53,
                "velocity": 32,
                "duration": 0.12045454545454248,
                "tempo": 120.0
            },
            {
                "start_time": 48.06818181818181,
                "end_time": 48.184090909090905,
                "pitch": 57,
                "velocity": 32,
                "duration": 0.11590909090909207,
                "tempo": 120.0
            },
            {
                "start_time": 48.184090909090905,
                "end_time": 48.30227272727272,
                "pitch": 62,
                "velocity": 32,
                "duration": 0.11818181818181728,
                "tempo": 120.0
            },
            {
                "start_time": 48.30227272727272,
                "end_time": 48.418181818181814,
                "pitch": 65,
                "velocity": 32,
                "duration": 0.11590909090909207,
                "tempo": 120.0
            },
            {
                "start_time": 48.418181818181814,
                "end_time": 48.55227272727272,
                "pitch": 69,
                "velocity": 32,
                "duration": 0.13409090909090793,
                "tempo": 120.0
            },
            {
                "start_time": 48.55227272727272,
                "end_time": 48.67045454545454,
                "pitch": 74,
                "velocity": 32,
                "duration": 0.11818181818181728,
                "tempo": 120.0
            },
            {
                "start_time": 48.67045454545454,
                "end_time": 48.79090909090909,
                "pitch": 77,
                "velocity": 32,
                "duration": 0.12045454545454959,
                "tempo": 120.0
            },
            {
                "start_time": 48.79090909090909,
                "end_time": 48.91136363636363,
                "pitch": 81,
                "velocity": 32,
                "duration": 0.12045454545454248,
                "tempo": 120.0
            },
            {
                "start_time": 48.91136363636363,
                "end_time": 49.02954545454545,
                "pitch": 86,
                "velocity": 32,
                "duration": 0.11818181818181728,
                "tempo": 120.0
            },
            {
                "start_time": 49.03181818181818,
                "end_time": 49.15681818181818,
                "pitch": 26,
                "velocity": 32,
                "duration": 0.125,
                "tempo": 120.0
            },
            {
                "start_time": 49.15681818181818,
                "end_time": 49.27045454545454,
                "pitch": 30,
                "velocity": 32,
                "duration": 0.11363636363635976,
                "tempo": 120.0
            },
            {
                "start_time": 49.27045454545454,
                "end_time": 49.38181818181818,
                "pitch": 33,
                "velocity": 32,
                "duration": 0.11136363636364166,
                "tempo": 120.0
            },
            {
                "start_time": 49.38181818181818,
                "end_time": 49.49545454545454,
                "pitch": 38,
                "velocity": 32,
                "duration": 0.11363636363635976,
                "tempo": 120.0
            },
            {
                "start_time": 49.49545454545454,
                "end_time": 49.61363636363636,
                "pitch": 42,
                "velocity": 32,
                "duration": 0.11818181818181728,
                "tempo": 120.0
            },
            {
                "start_time": 49.61363636363636,
                "end_time": 49.752272727272725,
                "pitch": 45,
                "velocity": 32,
                "duration": 0.13863636363636545,
                "tempo": 120.0
            },
            {
                "start_time": 49.752272727272725,
                "end_time": 49.87045454545454,
                "pitch": 50,
                "velocity": 32,
                "duration": 0.11818181818181728,
                "tempo": 120.0
            },
            {
                "start_time": 49.87045454545454,
                "end_time": 49.990909090909085,
                "pitch": 54,
                "velocity": 32,
                "duration": 0.12045454545454248,
                "tempo": 120.0
            },
            {
                "start_time": 49.990909090909085,
                "end_time": 50.10681818181818,
                "pitch": 57,
                "velocity": 32,
                "duration": 0.11590909090909207,
                "tempo": 120.0
            },
            {
                "start_time": 50.10681818181818,
                "end_time": 50.224999999999994,
                "pitch": 62,
                "velocity": 32,
                "duration": 0.11818181818181728,
                "tempo": 120.0
            },
            {
                "start_time": 50.224999999999994,
                "end_time": 50.35681818181818,
                "pitch": 66,
                "velocity": 32,
                "duration": 0.13181818181818272,
                "tempo": 120.0
            },
            {
                "start_time": 50.35681818181818,
                "end_time": 50.474999999999994,
                "pitch": 69,
                "velocity": 32,
                "duration": 0.11818181818181728,
                "tempo": 120.0
            },
            {
                "start_time": 50.474999999999994,
                "end_time": 50.590909090909086,
                "pitch": 74,
                "velocity": 32,
                "duration": 0.11590909090909207,
                "tempo": 120.0
            },
            {
                "start_time": 50.590909090909086,
                "end_time": 50.709090909090904,
                "pitch": 78,
                "velocity": 32,
                "duration": 0.11818181818181728,
                "tempo": 120.0
            },
            {
                "start_time": 50.709090909090904,
                "end_time": 50.824999999999996,
                "pitch": 81,
                "velocity": 32,
                "duration": 0.11590909090909207,
                "tempo": 120.0
            },
            {
                "start_time": 50.824999999999996,
                "end_time": 50.959090909090904,
                "pitch": 86,
                "velocity": 32,
                "duration": 0.13409090909090793,
                "tempo": 120.0
            },
            {
                "start_time": 50.959090909090904,
                "end_time": 51.07727272727273,
                "pitch": 26,
                "velocity": 32,
                "duration": 0.11818181818182438,
                "tempo": 120.0
            },
            {
                "start_time": 51.07727272727273,
                "end_time": 51.19772727272727,
                "pitch": 31,
                "velocity": 32,
                "duration": 0.12045454545454248,
                "tempo": 120.0
            },
            {
                "start_time": 51.19772727272727,
                "end_time": 51.31818181818181,
                "pitch": 35,
                "velocity": 32,
                "duration": 0.12045454545454248,
                "tempo": 120.0
            },
            {
                "start_time": 51.31818181818181,
                "end_time": 51.43863636363636,
                "pitch": 38,
                "velocity": 32,
                "duration": 0.12045454545454959,
                "tempo": 120.0
            },
            {
                "start_time": 51.43863636363636,
                "end_time": 51.56818181818181,
                "pitch": 43,
                "velocity": 32,
                "duration": 0.1295454545454504,
                "tempo": 120.0
            },
            {
                "start_time": 51.56818181818181,
                "end_time": 51.684090909090905,
                "pitch": 47,
                "velocity": 32,
                "duration": 0.11590909090909207,
                "tempo": 120.0
            },
            {
                "start_time": 51.684090909090905,
                "end_time": 51.79772727272727,
                "pitch": 50,
                "velocity": 32,
                "duration": 0.11363636363636687,
                "tempo": 120.0
            },
            {
                "start_time": 51.79772727272727,
                "end_time": 51.913636363636364,
                "pitch": 55,
                "velocity": 32,
                "duration": 0.11590909090909207,
                "tempo": 120.0
            },
            {
                "start_time": 51.91590909090909,
                "end_time": 52.02954545454545,
                "pitch": 59,
                "velocity": 32,
                "duration": 0.11363636363635976,
                "tempo": 120.0
            },
            {
                "start_time": 52.02954545454545,
                "end_time": 52.16590909090909,
                "pitch": 62,
                "velocity": 32,
                "duration": 0.13636363636364024,
                "tempo": 120.0
            },
            {
                "start_time": 52.16590909090909,
                "end_time": 52.28409090909091,
                "pitch": 67,
                "velocity": 32,
                "duration": 0.11818181818181728,
                "tempo": 120.0
            },
            {
                "start_time": 52.28409090909091,
                "end_time": 52.402272727272724,
                "pitch": 71,
                "velocity": 32,
                "duration": 0.11818181818181728,
                "tempo": 120.0
            },
            {
                "start_time": 52.402272727272724,
                "end_time": 52.518181818181816,
                "pitch": 74,
                "velocity": 32,
                "duration": 0.11590909090909207,
                "tempo": 120.0
            },
            {
                "start_time": 52.518181818181816,
                "end_time": 52.63636363636363,
                "pitch": 79,
                "velocity": 32,
                "duration": 0.11818181818181728,
                "tempo": 120.0
            },
            {
                "start_time": 52.63636363636363,
                "end_time": 52.77045454545454,
                "pitch": 83,
                "velocity": 32,
                "duration": 0.13409090909090793,
                "tempo": 120.0
            },
            {
                "start_time": 52.77045454545454,
                "end_time": 52.88636363636363,
                "pitch": 86,
                "velocity": 32,
                "duration": 0.11590909090909207,
                "tempo": 120.0
            },
            {
                "start_time": 52.88636363636363,
                "end_time": 53.00454545454545,
                "pitch": 28,
                "velocity": 32,
                "duration": 0.11818181818181728,
                "tempo": 120.0
            },
            {
                "start_time": 53.00454545454545,
                "end_time": 53.125,
                "pitch": 32,
                "velocity": 32,
                "duration": 0.12045454545454959,
                "tempo": 120.0
            },
            {
                "start_time": 53.125,
                "end_time": 53.24318181818182,
                "pitch": 35,
                "velocity": 32,
                "duration": 0.11818181818181728,
                "tempo": 120.0
            },
            {
                "start_time": 53.24545454545454,
                "end_time": 53.38181818181818,
                "pitch": 40,
                "velocity": 32,
                "duration": 0.13636363636364024,
                "tempo": 120.0
            },
            {
                "start_time": 53.38181818181818,
                "end_time": 53.49772727272727,
                "pitch": 44,
                "velocity": 32,
                "duration": 0.11590909090908497,
                "tempo": 120.0
            },
            {
                "start_time": 53.49772727272727,
                "end_time": 53.61363636363636,
                "pitch": 47,
                "velocity": 32,
                "duration": 0.11590909090909207,
                "tempo": 120.0
            },
            {
                "start_time": 53.615909090909085,
                "end_time": 53.72954545454545,
                "pitch": 52,
                "velocity": 32,
                "duration": 0.11363636363636687,
                "tempo": 120.0
            },
            {
                "start_time": 53.72954545454545,
                "end_time": 53.849999999999994,
                "pitch": 56,
                "velocity": 32,
                "duration": 0.12045454545454248,
                "tempo": 120.0
            },
            {
                "start_time": 53.849999999999994,
                "end_time": 53.97954545454545,
                "pitch": 59,
                "velocity": 32,
                "duration": 0.12954545454545752,
                "tempo": 120.0
            },
            {
                "start_time": 53.97954545454545,
                "end_time": 54.095454545454544,
                "pitch": 64,
                "velocity": 32,
                "duration": 0.11590909090909207,
                "tempo": 120.0
            },
            {
                "start_time": 54.095454545454544,
                "end_time": 54.209090909090904,
                "pitch": 68,
                "velocity": 32,
                "duration": 0.11363636363635976,
                "tempo": 120.0
            },
            {
                "start_time": 54.209090909090904,
                "end_time": 54.32727272727273,
                "pitch": 71,
                "velocity": 32,
                "duration": 0.11818181818182438,
                "tempo": 120.0
            },
            {
                "start_time": 54.809090909090905,
                "end_time": 54.92727272727272,
                "pitch": 26,
                "velocity": 32,
                "duration": 0.11818181818181728,
                "tempo": 120.0
            },
            {
                "start_time": 54.92727272727272,
                "end_time": 55.04772727272727,
                "pitch": 29,
                "velocity": 32,
                "duration": 0.12045454545454959,
                "tempo": 120.0
            },
            {
                "start_time": 55.04772727272727,
                "end_time": 55.184090909090905,
                "pitch": 33,
                "velocity": 32,
                "duration": 0.13636363636363313,
                "tempo": 120.0
            },
            {
                "start_time": 55.184090909090905,
                "end_time": 55.304545454545455,
                "pitch": 38,
                "velocity": 32,
                "duration": 0.12045454545454959,
                "tempo": 120.0
            },
            {
                "start_time": 55.304545454545455,
                "end_time": 55.42045454545454,
                "pitch": 41,
                "velocity": 32,
                "duration": 0.11590909090908497,
                "tempo": 120.0
            },
            {
                "start_time": 55.42045454545454,
                "end_time": 55.538636363636364,
                "pitch": 45,
                "velocity": 32,
                "duration": 0.11818181818182438,
                "tempo": 120.0
            },
            {
                "start_time": 55.538636363636364,
                "end_time": 55.65454545454545,
                "pitch": 50,
                "velocity": 32,
                "duration": 0.11590909090908497,
                "tempo": 120.0
            },
            {
                "start_time": 55.65454545454545,
                "end_time": 55.788636363636364,
                "pitch": 53,
                "velocity": 32,
                "duration": 0.13409090909091503,
                "tempo": 120.0
            },
            {
                "start_time": 55.788636363636364,
                "end_time": 55.90681818181818,
                "pitch": 57,
                "velocity": 32,
                "duration": 0.11818181818181728,
                "tempo": 120.0
            },
            {
                "start_time": 55.90681818181818,
                "end_time": 56.027272727272724,
                "pitch": 62,
                "velocity": 32,
                "duration": 0.12045454545454248,
                "tempo": 120.0
            },
            {
                "start_time": 56.02954545454545,
                "end_time": 56.14772727272727,
                "pitch": 65,
                "velocity": 32,
                "duration": 0.11818181818182438,
                "tempo": 120.0
            },
            {
                "start_time": 56.14772727272727,
                "end_time": 56.268181818181816,
                "pitch": 69,
                "velocity": 32,
                "duration": 0.12045454545454248,
                "tempo": 120.0
            },
            {
                "start_time": 56.268181818181816,
                "end_time": 56.39545454545454,
                "pitch": 74,
                "velocity": 32,
                "duration": 0.1272727272727252,
                "tempo": 120.0
            },
            {
                "start_time": 56.39545454545454,
                "end_time": 56.506818181818176,
                "pitch": 77,
                "velocity": 32,
                "duration": 0.11136363636363455,
                "tempo": 120.0
            },
            {
                "start_time": 56.50909090909091,
                "end_time": 56.62045454545454,
                "pitch": 81,
                "velocity": 32,
                "duration": 0.11136363636363455,
                "tempo": 120.0
            },
            {
                "start_time": 56.62045454545454,
                "end_time": 56.73181818181818,
                "pitch": 86,
                "velocity": 32,
                "duration": 0.11136363636363455,
                "tempo": 120.0
            },
            {
                "start_time": 56.73181818181818,
                "end_time": 56.849999999999994,
                "pitch": 26,
                "velocity": 32,
                "duration": 0.11818181818181728,
                "tempo": 120.0
            },
            {
                "start_time": 56.849999999999994,
                "end_time": 56.98863636363636,
                "pitch": 30,
                "velocity": 32,
                "duration": 0.13863636363636545,
                "tempo": 120.0
            },
            {
                "start_time": 56.98863636363636,
                "end_time": 57.10681818181818,
                "pitch": 33,
                "velocity": 32,
                "duration": 0.11818181818181728,
                "tempo": 120.0
            },
            {
                "start_time": 57.10681818181818,
                "end_time": 57.22727272727273,
                "pitch": 38,
                "velocity": 32,
                "duration": 0.12045454545454959,
                "tempo": 120.0
            },
            {
                "start_time": 57.22727272727273,
                "end_time": 57.345454545454544,
                "pitch": 42,
                "velocity": 32,
                "duration": 0.11818181818181728,
                "tempo": 120.0
            },
            {
                "start_time": 57.345454545454544,
                "end_time": 57.46363636363636,
                "pitch": 45,
                "velocity": 32,
                "duration": 0.11818181818181728,
                "tempo": 120.0
            },
            {
                "start_time": 57.46363636363636,
                "end_time": 57.595454545454544,
                "pitch": 50,
                "velocity": 32,
                "duration": 0.13181818181818272,
                "tempo": 120.0
            },
            {
                "start_time": 57.59772727272727,
                "end_time": 57.715909090909086,
                "pitch": 54,
                "velocity": 32,
                "duration": 0.11818181818181728,
                "tempo": 120.0
            },
            {
                "start_time": 57.715909090909086,
                "end_time": 57.83181818181818,
                "pitch": 57,
                "velocity": 32,
                "duration": 0.11590909090909207,
                "tempo": 120.0
            },
            {
                "start_time": 57.83181818181818,
                "end_time": 57.949999999999996,
                "pitch": 62,
                "velocity": 32,
                "duration": 0.11818181818181728,
                "tempo": 120.0
            },
            {
                "start_time": 57.949999999999996,
                "end_time": 58.06590909090909,
                "pitch": 66,
                "velocity": 32,
                "duration": 0.11590909090909207,
                "tempo": 120.0
            },
            {
                "start_time": 58.06590909090909,
                "end_time": 58.199999999999996,
                "pitch": 69,
                "velocity": 32,
                "duration": 0.13409090909090793,
                "tempo": 120.0
            },
            {
                "start_time": 58.199999999999996,
                "end_time": 58.31818181818181,
                "pitch": 74,
                "velocity": 32,
                "duration": 0.11818181818181728,
                "tempo": 120.0
            },
            {
                "start_time": 58.31818181818181,
                "end_time": 58.43863636363636,
                "pitch": 78,
                "velocity": 32,
                "duration": 0.12045454545454959,
                "tempo": 120.0
            },
            {
                "start_time": 58.43863636363636,
                "end_time": 58.559090909090905,
                "pitch": 81,
                "velocity": 32,
                "duration": 0.12045454545454248,
                "tempo": 120.0
            },
            {
                "start_time": 58.559090909090905,
                "end_time": 58.679545454545455,
                "pitch": 86,
                "velocity": 32,
                "duration": 0.12045454545454959,
                "tempo": 120.0
            },
            {
                "start_time": 58.679545454545455,
                "end_time": 58.809090909090905,
                "pitch": 26,
                "velocity": 32,
                "duration": 0.1295454545454504,
                "tempo": 120.0
            },
            {
                "start_time": 58.809090909090905,
                "end_time": 58.925,
                "pitch": 31,
                "velocity": 32,
                "duration": 0.11590909090909207,
                "tempo": 120.0
            },
            {
                "start_time": 58.925,
                "end_time": 59.038636363636364,
                "pitch": 35,
                "velocity": 32,
                "duration": 0.11363636363636687,
                "tempo": 120.0
            },
            {
                "start_time": 59.038636363636364,
                "end_time": 59.15454545454545,
                "pitch": 38,
                "velocity": 32,
                "duration": 0.11590909090908497,
                "tempo": 120.0
            },
            {
                "start_time": 59.15454545454545,
                "end_time": 59.27272727272727,
                "pitch": 43,
                "velocity": 32,
                "duration": 0.11818181818182438,
                "tempo": 120.0
            },
            {
                "start_time": 59.27272727272727,
                "end_time": 59.40681818181818,
                "pitch": 47,
                "velocity": 32,
                "duration": 0.13409090909090793,
                "tempo": 120.0
            },
            {
                "start_time": 59.40681818181818,
                "end_time": 59.525,
                "pitch": 50,
                "velocity": 32,
                "duration": 0.11818181818181728,
                "tempo": 120.0
            },
            {
                "start_time": 59.525,
                "end_time": 59.643181818181816,
                "pitch": 55,
                "velocity": 32,
                "duration": 0.11818181818181728,
                "tempo": 120.0
            },
            {
                "start_time": 59.643181818181816,
                "end_time": 59.756818181818176,
                "pitch": 59,
                "velocity": 32,
                "duration": 0.11363636363635976,
                "tempo": 120.0
            },
            {
                "start_time": 59.75909090909091,
                "end_time": 59.877272727272725,
                "pitch": 62,
                "velocity": 32,
                "duration": 0.11818181818181728,
                "tempo": 120.0
            },
            {
                "start_time": 59.877272727272725,
                "end_time": 60.00909090909091,
                "pitch": 67,
                "velocity": 32,
                "duration": 0.13181818181818272,
                "tempo": 120.0
            },
            {
                "start_time": 60.00909090909091,
                "end_time": 60.127272727272725,
                "pitch": 71,
                "velocity": 32,
                "duration": 0.11818181818181728,
                "tempo": 120.0
            },
            {
                "start_time": 60.127272727272725,
                "end_time": 60.24545454545454,
                "pitch": 74,
                "velocity": 32,
                "duration": 0.11818181818181728,
                "tempo": 120.0
            },
            {
                "start_time": 60.24545454545454,
                "end_time": 60.365909090909085,
                "pitch": 79,
                "velocity": 32,
                "duration": 0.12045454545454248,
                "tempo": 120.0
            },
            {
                "start_time": 60.365909090909085,
                "end_time": 60.486363636363635,
                "pitch": 83,
                "velocity": 32,
                "duration": 0.12045454545454959,
                "tempo": 120.0
            },
            {
                "start_time": 60.486363636363635,
                "end_time": 60.62272727272727,
                "pitch": 86,
                "velocity": 32,
                "duration": 0.13636363636363313,
                "tempo": 120.0
            },
            {
                "start_time": 60.62272727272727,
                "end_time": 60.736363636363635,
                "pitch": 28,
                "velocity": 32,
                "duration": 0.11363636363636687,
                "tempo": 120.0
            },
            {
                "start_time": 60.73863636363636,
                "end_time": 60.85454545454545,
                "pitch": 32,
                "velocity": 32,
                "duration": 0.11590909090909207,
                "tempo": 120.0
            },
            {
                "start_time": 60.85454545454545,
                "end_time": 60.97272727272727,
                "pitch": 35,
                "velocity": 32,
                "duration": 0.11818181818181728,
                "tempo": 120.0
            },
            {
                "start_time": 60.97272727272727,
                "end_time": 61.08863636363636,
                "pitch": 40,
                "velocity": 32,
                "duration": 0.11590909090909207,
                "tempo": 120.0
            },
            {
                "start_time": 61.08863636363636,
                "end_time": 61.220454545454544,
                "pitch": 44,
                "velocity": 32,
                "duration": 0.13181818181818272,
                "tempo": 120.0
            },
            {
                "start_time": 61.220454545454544,
                "end_time": 61.336363636363636,
                "pitch": 47,
                "velocity": 32,
                "duration": 0.11590909090909207,
                "tempo": 120.0
            },
            {
                "start_time": 61.336363636363636,
                "end_time": 61.449999999999996,
                "pitch": 52,
                "velocity": 32,
                "duration": 0.11363636363635976,
                "tempo": 120.0
            },
            {
                "start_time": 61.449999999999996,
                "end_time": 61.56590909090909,
                "pitch": 56,
                "velocity": 32,
                "duration": 0.11590909090909207,
                "tempo": 120.0
            },
            {
                "start_time": 61.56590909090909,
                "end_time": 61.684090909090905,
                "pitch": 59,
                "velocity": 32,
                "duration": 0.11818181818181728,
                "tempo": 120.0
            },
            {
                "start_time": 61.684090909090905,
                "end_time": 61.81818181818181,
                "pitch": 64,
                "velocity": 32,
                "duration": 0.13409090909090793,
                "tempo": 120.0
            },
            {
                "start_time": 61.81818181818181,
                "end_time": 61.93636363636363,
                "pitch": 68,
                "velocity": 32,
                "duration": 0.11818181818181728,
                "tempo": 120.0
            },
            {
                "start_time": 61.93636363636363,
                "end_time": 92.99545454545454,
                "pitch": 71,
                "velocity": 32,
                "duration": 31.059090909090905,
                "tempo": 120.0
            },
            {
                "start_time": 93.47727272727272,
                "end_time": 93.59545454545454,
                "pitch": 26,
                "velocity": 32,
                "duration": 0.11818181818182438,
                "tempo": 120.0
            },
            {
                "start_time": 93.59545454545454,
                "end_time": 93.71590909090908,
                "pitch": 29,
                "velocity": 32,
                "duration": 0.12045454545453538,
                "tempo": 120.0
            },
            {
                "start_time": 93.71590909090908,
                "end_time": 93.85227272727272,
                "pitch": 33,
                "velocity": 32,
                "duration": 0.13636363636364024,
                "tempo": 120.0
            },
            {
                "start_time": 93.85227272727272,
                "end_time": 93.97272727272727,
                "pitch": 38,
                "velocity": 32,
                "duration": 0.12045454545454959,
                "tempo": 120.0
            },
            {
                "start_time": 93.97272727272727,
                "end_time": 94.08863636363635,
                "pitch": 41,
                "velocity": 32,
                "duration": 0.11590909090908497,
                "tempo": 120.0
            },
            {
                "start_time": 94.08863636363635,
                "end_time": 94.20681818181818,
                "pitch": 45,
                "velocity": 32,
                "duration": 0.11818181818182438,
                "tempo": 120.0
            },
            {
                "start_time": 94.20681818181818,
                "end_time": 94.32272727272726,
                "pitch": 50,
                "velocity": 32,
                "duration": 0.11590909090908497,
                "tempo": 120.0
            },
            {
                "start_time": 94.32272727272726,
                "end_time": 94.45681818181818,
                "pitch": 53,
                "velocity": 32,
                "duration": 0.13409090909091503,
                "tempo": 120.0
            },
            {
                "start_time": 94.45681818181818,
                "end_time": 94.57272727272726,
                "pitch": 57,
                "velocity": 32,
                "duration": 0.11590909090908497,
                "tempo": 120.0
            },
            {
                "start_time": 94.57272727272726,
                "end_time": 94.69318181818181,
                "pitch": 62,
                "velocity": 32,
                "duration": 0.12045454545454959,
                "tempo": 120.0
            },
            {
                "start_time": 94.69318181818181,
                "end_time": 94.8090909090909,
                "pitch": 65,
                "velocity": 32,
                "duration": 0.11590909090908497,
                "tempo": 120.0
            },
            {
                "start_time": 94.8090909090909,
                "end_time": 94.92727272727272,
                "pitch": 69,
                "velocity": 32,
                "duration": 0.11818181818182438,
                "tempo": 120.0
            },
            {
                "start_time": 94.92727272727272,
                "end_time": 95.0590909090909,
                "pitch": 74,
                "velocity": 32,
                "duration": 0.13181818181817562,
                "tempo": 120.0
            },
            {
                "start_time": 95.0590909090909,
                "end_time": 95.175,
                "pitch": 77,
                "velocity": 32,
                "duration": 0.11590909090909918,
                "tempo": 120.0
            },
            {
                "start_time": 95.175,
                "end_time": 95.28863636363636,
                "pitch": 81,
                "velocity": 32,
                "duration": 0.11363636363635976,
                "tempo": 120.0
            },
            {
                "start_time": 95.28863636363636,
                "end_time": 95.40454545454546,
                "pitch": 86,
                "velocity": 32,
                "duration": 0.11590909090909918,
                "tempo": 120.0
            },
            {
                "start_time": 95.40454545454546,
                "end_time": 95.52272727272727,
                "pitch": 26,
                "velocity": 32,
                "duration": 0.11818181818181017,
                "tempo": 120.0
            },
            {
                "start_time": 95.52272727272727,
                "end_time": 95.6590909090909,
                "pitch": 30,
                "velocity": 32,
                "duration": 0.13636363636364024,
                "tempo": 120.0
            },
            {
                "start_time": 95.6590909090909,
                "end_time": 95.77954545454546,
                "pitch": 33,
                "velocity": 32,
                "duration": 0.12045454545454959,
                "tempo": 120.0
            },
            {
                "start_time": 95.77954545454546,
                "end_time": 95.89999999999999,
                "pitch": 38,
                "velocity": 32,
                "duration": 0.12045454545453538,
                "tempo": 120.0
            },
            {
                "start_time": 95.89999999999999,
                "end_time": 96.01590909090909,
                "pitch": 42,
                "velocity": 32,
                "duration": 0.11590909090909918,
                "tempo": 120.0
            },
            {
                "start_time": 96.01590909090909,
                "end_time": 96.1340909090909,
                "pitch": 45,
                "velocity": 32,
                "duration": 0.11818181818181017,
                "tempo": 120.0
            },
            {
                "start_time": 96.1340909090909,
                "end_time": 96.26590909090909,
                "pitch": 50,
                "velocity": 32,
                "duration": 0.13181818181818983,
                "tempo": 120.0
            },
            {
                "start_time": 96.26590909090909,
                "end_time": 96.3840909090909,
                "pitch": 54,
                "velocity": 32,
                "duration": 0.11818181818181017,
                "tempo": 120.0
            },
            {
                "start_time": 96.3840909090909,
                "end_time": 96.5,
                "pitch": 57,
                "velocity": 32,
                "duration": 0.11590909090909918,
                "tempo": 120.0
            },
            {
                "start_time": 96.5,
                "end_time": 96.62045454545454,
                "pitch": 62,
                "velocity": 32,
                "duration": 0.12045454545453538,
                "tempo": 120.0
            },
            {
                "start_time": 96.62045454545454,
                "end_time": 96.73636363636363,
                "pitch": 66,
                "velocity": 32,
                "duration": 0.11590909090909918,
                "tempo": 120.0
            },
            {
                "start_time": 96.73636363636363,
                "end_time": 96.87272727272727,
                "pitch": 69,
                "velocity": 32,
                "duration": 0.13636363636364024,
                "tempo": 120.0
            },
            {
                "start_time": 96.87272727272727,
                "end_time": 96.99090909090908,
                "pitch": 74,
                "velocity": 32,
                "duration": 0.11818181818181017,
                "tempo": 120.0
            },
            {
                "start_time": 96.99090909090908,
                "end_time": 97.11136363636363,
                "pitch": 78,
                "velocity": 32,
                "duration": 0.12045454545454959,
                "tempo": 120.0
            },
            {
                "start_time": 97.11136363636363,
                "end_time": 97.23181818181818,
                "pitch": 81,
                "velocity": 32,
                "duration": 0.12045454545454959,
                "tempo": 120.0
            },
            {
                "start_time": 97.23181818181818,
                "end_time": 97.35,
                "pitch": 86,
                "velocity": 32,
                "duration": 0.11818181818181017,
                "tempo": 120.0
            },
            {
                "start_time": 97.35,
                "end_time": 97.47954545454544,
                "pitch": 26,
                "velocity": 32,
                "duration": 0.1295454545454504,
                "tempo": 120.0
            },
            {
                "start_time": 97.47954545454544,
                "end_time": 97.59545454545454,
                "pitch": 31,
                "velocity": 32,
                "duration": 0.11590909090909918,
                "tempo": 120.0
            },
            {
                "start_time": 97.59545454545454,
                "end_time": 97.71136363636363,
                "pitch": 35,
                "velocity": 32,
                "duration": 0.11590909090908497,
                "tempo": 120.0
            },
            {
                "start_time": 97.71136363636363,
                "end_time": 97.82727272727273,
                "pitch": 38,
                "velocity": 32,
                "duration": 0.11590909090909918,
                "tempo": 120.0
            },
            {
                "start_time": 97.82727272727273,
                "end_time": 97.94318181818181,
                "pitch": 43,
                "velocity": 32,
                "duration": 0.11590909090908497,
                "tempo": 120.0
            },
            {
                "start_time": 97.94318181818181,
                "end_time": 98.07954545454545,
                "pitch": 47,
                "velocity": 32,
                "duration": 0.13636363636364024,
                "tempo": 120.0
            },
            {
                "start_time": 98.07954545454545,
                "end_time": 98.19545454545454,
                "pitch": 50,
                "velocity": 32,
                "duration": 0.11590909090908497,
                "tempo": 120.0
            },
            {
                "start_time": 98.19545454545454,
                "end_time": 98.31590909090909,
                "pitch": 55,
                "velocity": 32,
                "duration": 0.12045454545454959,
                "tempo": 120.0
            },
            {
                "start_time": 98.31590909090909,
                "end_time": 98.42954545454545,
                "pitch": 59,
                "velocity": 32,
                "duration": 0.11363636363635976,
                "tempo": 120.0
            },
            {
                "start_time": 98.43181818181817,
                "end_time": 98.55,
                "pitch": 62,
                "velocity": 32,
                "duration": 0.11818181818182438,
                "tempo": 120.0
            },
            {
                "start_time": 98.55,
                "end_time": 98.6840909090909,
                "pitch": 67,
                "velocity": 32,
                "duration": 0.13409090909090082,
                "tempo": 120.0
            },
            {
                "start_time": 98.6840909090909,
                "end_time": 98.80227272727272,
                "pitch": 71,
                "velocity": 32,
                "duration": 0.11818181818182438,
                "tempo": 120.0
            },
            {
                "start_time": 98.80227272727272,
                "end_time": 98.92045454545455,
                "pitch": 74,
                "velocity": 32,
                "duration": 0.11818181818182438,
                "tempo": 120.0
            },
            {
                "start_time": 98.92045454545455,
                "end_time": 99.04090909090908,
                "pitch": 79,
                "velocity": 32,
                "duration": 0.12045454545453538,
                "tempo": 120.0
            },
            {
                "start_time": 99.04318181818181,
                "end_time": 99.16136363636363,
                "pitch": 83,
                "velocity": 32,
                "duration": 0.11818181818182438,
                "tempo": 120.0
            },
            {
                "start_time": 99.16136363636363,
                "end_time": 99.29772727272727,
                "pitch": 86,
                "velocity": 32,
                "duration": 0.13636363636364024,
                "tempo": 120.0
            },
            {
                "start_time": 99.29772727272727,
                "end_time": 99.41363636363636,
                "pitch": 28,
                "velocity": 32,
                "duration": 0.11590909090908497,
                "tempo": 120.0
            },
            {
                "start_time": 99.41363636363636,
                "end_time": 99.53181818181818,
                "pitch": 32,
                "velocity": 32,
                "duration": 0.11818181818182438,
                "tempo": 120.0
            },
            {
                "start_time": 99.5340909090909,
                "end_time": 99.64999999999999,
                "pitch": 35,
                "velocity": 32,
                "duration": 0.11590909090908497,
                "tempo": 120.0
            },
            {
                "start_time": 99.64999999999999,
                "end_time": 99.76818181818182,
                "pitch": 40,
                "velocity": 32,
                "duration": 0.11818181818182438,
                "tempo": 120.0
            },
            {
                "start_time": 99.76818181818182,
                "end_time": 99.89999999999999,
                "pitch": 44,
                "velocity": 32,
                "duration": 0.13181818181817562,
                "tempo": 120.0
            },
            {
                "start_time": 99.89999999999999,
                "end_time": 100.01590909090909,
                "pitch": 47,
                "velocity": 32,
                "duration": 0.11590909090909918,
                "tempo": 120.0
            },
            {
                "start_time": 100.01590909090909,
                "end_time": 100.12954545454545,
                "pitch": 52,
                "velocity": 32,
                "duration": 0.11363636363635976,
                "tempo": 120.0
            },
            {
                "start_time": 100.12954545454545,
                "end_time": 100.24545454545454,
                "pitch": 56,
                "velocity": 32,
                "duration": 0.11590909090908497,
                "tempo": 120.0
            },
            {
                "start_time": 100.24545454545454,
                "end_time": 100.36363636363636,
                "pitch": 59,
                "velocity": 32,
                "duration": 0.11818181818182438,
                "tempo": 120.0
            },
            {
                "start_time": 100.36363636363636,
                "end_time": 100.49772727272727,
                "pitch": 64,
                "velocity": 32,
                "duration": 0.13409090909091503,
                "tempo": 120.0
            },
            {
                "start_time": 100.49772727272727,
                "end_time": 100.61590909090908,
                "pitch": 68,
                "velocity": 32,
                "duration": 0.11818181818181017,
                "tempo": 120.0
            },
            {
                "start_time": 100.61590909090908,
                "end_time": 100.73409090909091,
                "pitch": 71,
                "velocity": 32,
                "duration": 0.11818181818182438,
                "tempo": 120.0
            },
            {
                "start_time": 101.22954545454544,
                "end_time": 101.34545454545454,
                "pitch": 26,
                "velocity": 32,
                "duration": 0.11590909090909918,
                "tempo": 120.0
            },
            {
                "start_time": 101.34545454545454,
                "end_time": 101.46363636363635,
                "pitch": 29,
                "velocity": 32,
                "duration": 0.11818181818181017,
                "tempo": 120.0
            },
            {
                "start_time": 101.46363636363635,
                "end_time": 101.58181818181818,
                "pitch": 33,
                "velocity": 32,
                "duration": 0.11818181818182438,
                "tempo": 120.0
            },
            {
                "start_time": 101.58181818181818,
                "end_time": 101.71590909090908,
                "pitch": 38,
                "velocity": 32,
                "duration": 0.13409090909090082,
                "tempo": 120.0
            },
            {
                "start_time": 101.71818181818182,
                "end_time": 101.83636363636363,
                "pitch": 41,
                "velocity": 32,
                "duration": 0.11818181818181017,
                "tempo": 120.0
            },
            {
                "start_time": 101.83636363636363,
                "end_time": 101.95681818181818,
                "pitch": 45,
                "velocity": 32,
                "duration": 0.12045454545454959,
                "tempo": 120.0
            },
            {
                "start_time": 101.95681818181818,
                "end_time": 102.07499999999999,
                "pitch": 50,
                "velocity": 32,
                "duration": 0.11818181818181017,
                "tempo": 120.0
            },
            {
                "start_time": 102.07499999999999,
                "end_time": 102.19545454545454,
                "pitch": 53,
                "velocity": 32,
                "duration": 0.12045454545454959,
                "tempo": 120.0
            },
            {
                "start_time": 102.19545454545454,
                "end_time": 102.32272727272726,
                "pitch": 57,
                "velocity": 32,
                "duration": 0.1272727272727252,
                "tempo": 120.0
            },
            {
                "start_time": 102.32272727272726,
                "end_time": 102.43636363636364,
                "pitch": 62,
                "velocity": 32,
                "duration": 0.11363636363637397,
                "tempo": 120.0
            },
            {
                "start_time": 102.43636363636364,
                "end_time": 102.54772727272727,
                "pitch": 65,
                "velocity": 32,
                "duration": 0.11136363636363455,
                "tempo": 120.0
            },
            {
                "start_time": 102.54772727272727,
                "end_time": 102.66136363636363,
                "pitch": 69,
                "velocity": 32,
                "duration": 0.11363636363635976,
                "tempo": 120.0
            },
            {
                "start_time": 102.66136363636363,
                "end_time": 102.77727272727272,
                "pitch": 74,
                "velocity": 32,
                "duration": 0.11590909090908497,
                "tempo": 120.0
            },
            {
                "start_time": 102.77727272727272,
                "end_time": 102.91136363636363,
                "pitch": 77,
                "velocity": 32,
                "duration": 0.13409090909091503,
                "tempo": 120.0
            },
            {
                "start_time": 102.91136363636363,
                "end_time": 103.02727272727272,
                "pitch": 81,
                "velocity": 32,
                "duration": 0.11590909090908497,
                "tempo": 120.0
            },
            {
                "start_time": 103.02954545454546,
                "end_time": 103.14545454545454,
                "pitch": 86,
                "velocity": 32,
                "duration": 0.11590909090908497,
                "tempo": 120.0
            },
            {
                "start_time": 103.14545454545454,
                "end_time": 103.26363636363637,
                "pitch": 26,
                "velocity": 32,
                "duration": 0.11818181818182438,
                "tempo": 120.0
            },
            {
                "start_time": 103.26363636363637,
                "end_time": 103.3840909090909,
                "pitch": 30,
                "velocity": 32,
                "duration": 0.12045454545453538,
                "tempo": 120.0
            },
            {
                "start_time": 103.3840909090909,
                "end_time": 103.52045454545454,
                "pitch": 33,
                "velocity": 32,
                "duration": 0.13636363636364024,
                "tempo": 120.0
            },
            {
                "start_time": 103.52045454545454,
                "end_time": 103.64090909090909,
                "pitch": 38,
                "velocity": 32,
                "duration": 0.12045454545454959,
                "tempo": 120.0
            },
            {
                "start_time": 103.64090909090909,
                "end_time": 103.75681818181818,
                "pitch": 42,
                "velocity": 32,
                "duration": 0.11590909090908497,
                "tempo": 120.0
            },
            {
                "start_time": 103.75681818181818,
                "end_time": 103.875,
                "pitch": 45,
                "velocity": 32,
                "duration": 0.11818181818182438,
                "tempo": 120.0
            },
            {
                "start_time": 103.875,
                "end_time": 103.98863636363636,
                "pitch": 50,
                "velocity": 32,
                "duration": 0.11363636363635976,
                "tempo": 120.0
            },
            {
                "start_time": 103.98863636363636,
                "end_time": 104.125,
                "pitch": 54,
                "velocity": 32,
                "duration": 0.13636363636364024,
                "tempo": 120.0
            },
            {
                "start_time": 104.125,
                "end_time": 104.24318181818181,
                "pitch": 57,
                "velocity": 32,
                "duration": 0.11818181818181017,
                "tempo": 120.0
            },
            {
                "start_time": 104.24318181818181,
                "end_time": 104.36363636363636,
                "pitch": 62,
                "velocity": 32,
                "duration": 0.12045454545454959,
                "tempo": 120.0
            },
            {
                "start_time": 104.36363636363636,
                "end_time": 104.48181818181817,
                "pitch": 66,
                "velocity": 32,
                "duration": 0.11818181818181017,
                "tempo": 120.0
            },
            {
                "start_time": 104.48409090909091,
                "end_time": 104.60454545454544,
                "pitch": 69,
                "velocity": 32,
                "duration": 0.12045454545453538,
                "tempo": 120.0
            },
            {
                "start_time": 104.60454545454544,
                "end_time": 104.73409090909091,
                "pitch": 74,
                "velocity": 32,
                "duration": 0.12954545454546462,
                "tempo": 120.0
            },
            {
                "start_time": 104.73409090909091,
                "end_time": 104.85,
                "pitch": 78,
                "velocity": 32,
                "duration": 0.11590909090908497,
                "tempo": 120.0
            },
            {
                "start_time": 104.85,
                "end_time": 104.96590909090908,
                "pitch": 81,
                "velocity": 32,
                "duration": 0.11590909090908497,
                "tempo": 120.0
            },
            {
                "start_time": 104.96590909090908,
                "end_time": 105.07954545454545,
                "pitch": 86,
                "velocity": 32,
                "duration": 0.11363636363637397,
                "tempo": 120.0
            },
            {
                "start_time": 105.07954545454545,
                "end_time": 105.19545454545454,
                "pitch": 26,
                "velocity": 32,
                "duration": 0.11590909090908497,
                "tempo": 120.0
            },
            {
                "start_time": 105.19545454545454,
                "end_time": 105.33181818181818,
                "pitch": 31,
                "velocity": 32,
                "duration": 0.13636363636364024,
                "tempo": 120.0
            },
            {
                "start_time": 105.33181818181818,
                "end_time": 105.44999999999999,
                "pitch": 35,
                "velocity": 32,
                "duration": 0.11818181818181017,
                "tempo": 120.0
            },
            {
                "start_time": 105.44999999999999,
                "end_time": 105.56818181818181,
                "pitch": 38,
                "velocity": 32,
                "duration": 0.11818181818182438,
                "tempo": 120.0
            },
            {
                "start_time": 105.56818181818181,
                "end_time": 105.68636363636364,
                "pitch": 43,
                "velocity": 32,
                "duration": 0.11818181818182438,
                "tempo": 120.0
            },
            {
                "start_time": 105.68636363636364,
                "end_time": 105.80681818181817,
                "pitch": 47,
                "velocity": 32,
                "duration": 0.12045454545453538,
                "tempo": 120.0
            },
            {
                "start_time": 105.80681818181817,
                "end_time": 105.94318181818181,
                "pitch": 50,
                "velocity": 32,
                "duration": 0.13636363636364024,
                "tempo": 120.0
            },
            {
                "start_time": 105.94318181818181,
                "end_time": 106.06363636363636,
                "pitch": 55,
                "velocity": 32,
                "duration": 0.12045454545454959,
                "tempo": 120.0
            },
            {
                "start_time": 106.06363636363636,
                "end_time": 106.17954545454545,
                "pitch": 59,
                "velocity": 32,
                "duration": 0.11590909090908497,
                "tempo": 120.0
            },
            {
                "start_time": 106.17954545454545,
                "end_time": 106.29772727272727,
                "pitch": 62,
                "velocity": 32,
                "duration": 0.11818181818182438,
                "tempo": 120.0
            },
            {
                "start_time": 106.3,
                "end_time": 106.41590909090908,
                "pitch": 67,
                "velocity": 32,
                "duration": 0.11590909090908497,
                "tempo": 120.0
            },
            {
                "start_time": 106.41590909090908,
                "end_time": 106.55227272727272,
                "pitch": 71,
                "velocity": 32,
                "duration": 0.13636363636364024,
                "tempo": 120.0
            },
            {
                "start_time": 106.55227272727272,
                "end_time": 106.66590909090908,
                "pitch": 74,
                "velocity": 32,
                "duration": 0.11363636363635976,
                "tempo": 120.0
            },
            {
                "start_time": 106.66818181818181,
                "end_time": 106.7840909090909,
                "pitch": 79,
                "velocity": 32,
                "duration": 0.11590909090909918,
                "tempo": 120.0
            },
            {
                "start_time": 106.7840909090909,
                "end_time": 106.90227272727272,
                "pitch": 83,
                "velocity": 32,
                "duration": 0.11818181818181017,
                "tempo": 120.0
            },
            {
                "start_time": 106.90227272727272,
                "end_time": 107.01818181818182,
                "pitch": 86,
                "velocity": 32,
                "duration": 0.11590909090909918,
                "tempo": 120.0
            },
            {
                "start_time": 107.01818181818182,
                "end_time": 107.14772727272727,
                "pitch": 28,
                "velocity": 32,
                "duration": 0.1295454545454504,
                "tempo": 120.0
            },
            {
                "start_time": 107.14772727272727,
                "end_time": 107.26363636363637,
                "pitch": 32,
                "velocity": 32,
                "duration": 0.11590909090909918,
                "tempo": 120.0
            },
            {
                "start_time": 107.26363636363637,
                "end_time": 107.37954545454545,
                "pitch": 35,
                "velocity": 32,
                "duration": 0.11590909090908497,
                "tempo": 120.0
            },
            {
                "start_time": 107.37954545454545,
                "end_time": 107.49318181818181,
                "pitch": 40,
                "velocity": 32,
                "duration": 0.11363636363635976,
                "tempo": 120.0
            },
            {
                "start_time": 107.49318181818181,
                "end_time": 107.61363636363636,
                "pitch": 44,
                "velocity": 32,
                "duration": 0.12045454545454959,
                "tempo": 120.0
            },
            {
                "start_time": 107.61363636363636,
                "end_time": 107.75,
                "pitch": 47,
                "velocity": 32,
                "duration": 0.13636363636364024,
                "tempo": 120.0
            },
            {
                "start_time": 107.75,
                "end_time": 107.86818181818181,
                "pitch": 52,
                "velocity": 32,
                "duration": 0.11818181818181017,
                "tempo": 120.0
            },
            {
                "start_time": 107.86818181818181,
                "end_time": 107.99090909090908,
                "pitch": 56,
                "velocity": 32,
                "duration": 0.1227272727272748,
                "tempo": 120.0
            },
            {
                "start_time": 107.99090909090908,
                "end_time": 108.10681818181817,
                "pitch": 59,
                "velocity": 32,
                "duration": 0.11590909090908497,
                "tempo": 120.0
            },
            {
                "start_time": 108.10681818181817,
                "end_time": 108.225,
                "pitch": 64,
                "velocity": 32,
                "duration": 0.11818181818182438,
                "tempo": 120.0
            },
            {
                "start_time": 108.225,
                "end_time": 108.35909090909091,
                "pitch": 68,
                "velocity": 32,
                "duration": 0.13409090909091503,
                "tempo": 120.0
            },
            {
                "start_time": 108.35909090909091,
                "end_time": 108.47954545454544,
                "pitch": 71,
                "velocity": 32,
                "duration": 0.12045454545453538,
                "tempo": 120.0
            },
            {
                "start_time": 108.96136363636363,
                "end_time": 109.07727272727273,
                "pitch": 25,
                "velocity": 32,
                "duration": 0.11590909090909918,
                "tempo": 120.0
            },
            {
                "start_time": 109.07727272727273,
                "end_time": 109.19545454545454,
                "pitch": 28,
                "velocity": 32,
                "duration": 0.11818181818181017,
                "tempo": 120.0
            },
            {
                "start_time": 109.19772727272726,
                "end_time": 109.31363636363636,
                "pitch": 32,
                "velocity": 32,
                "duration": 0.11590909090909918,
                "tempo": 120.0
            },
            {
                "start_time": 109.31363636363636,
                "end_time": 109.43181818181817,
                "pitch": 37,
                "velocity": 32,
                "duration": 0.11818181818181017,
                "tempo": 120.0
            },
            {
                "start_time": 109.4340909090909,
                "end_time": 109.56590909090909,
                "pitch": 40,
                "velocity": 32,
                "duration": 0.13181818181818983,
                "tempo": 120.0
            },
            {
                "start_time": 109.56590909090909,
                "end_time": 109.68636363636364,
                "pitch": 44,
                "velocity": 32,
                "duration": 0.12045454545454959,
                "tempo": 120.0
            },
            {
                "start_time": 109.68636363636364,
                "end_time": 109.80227272727272,
                "pitch": 49,
                "velocity": 32,
                "duration": 0.11590909090908497,
                "tempo": 120.0
            },
            {
                "start_time": 109.80227272727272,
                "end_time": 109.92045454545455,
                "pitch": 52,
                "velocity": 32,
                "duration": 0.11818181818182438,
                "tempo": 120.0
            },
            {
                "start_time": 109.92045454545455,
                "end_time": 110.03636363636363,
                "pitch": 56,
                "velocity": 32,
                "duration": 0.11590909090908497,
                "tempo": 120.0
            },
            {
                "start_time": 110.03636363636363,
                "end_time": 110.17045454545455,
                "pitch": 61,
                "velocity": 32,
                "duration": 0.13409090909091503,
                "tempo": 120.0
            },
            {
                "start_time": 110.17045454545455,
                "end_time": 110.28636363636363,
                "pitch": 64,
                "velocity": 32,
                "duration": 0.11590909090908497,
                "tempo": 120.0
            },
            {
                "start_time": 110.28636363636363,
                "end_time": 110.40454545454546,
                "pitch": 68,
                "velocity": 32,
                "duration": 0.11818181818182438,
                "tempo": 120.0
            },
            {
                "start_time": 110.40454545454546,
                "end_time": 110.52045454545454,
                "pitch": 73,
                "velocity": 32,
                "duration": 0.11590909090908497,
                "tempo": 120.0
            },
            {
                "start_time": 110.52272727272727,
                "end_time": 110.64090909090909,
                "pitch": 76,
                "velocity": 32,
                "duration": 0.11818181818182438,
                "tempo": 120.0
            },
            {
                "start_time": 110.64090909090909,
                "end_time": 110.77499999999999,
                "pitch": 80,
                "velocity": 32,
                "duration": 0.13409090909090082,
                "tempo": 120.0
            },
            {
                "start_time": 110.77499999999999,
                "end_time": 110.89318181818182,
                "pitch": 85,
                "velocity": 32,
                "duration": 0.11818181818182438,
                "tempo": 120.0
            },
            {
                "start_time": 110.89318181818182,
                "end_time": 111.0090909090909,
                "pitch": 25,
                "velocity": 32,
                "duration": 0.11590909090908497,
                "tempo": 120.0
            },
            {
                "start_time": 111.0090909090909,
                "end_time": 111.12727272727273,
                "pitch": 29,
                "velocity": 32,
                "duration": 0.11818181818182438,
                "tempo": 120.0
            },
            {
                "start_time": 111.12727272727273,
                "end_time": 111.24545454545454,
                "pitch": 32,
                "velocity": 32,
                "duration": 0.11818181818181017,
                "tempo": 120.0
            },
            {
                "start_time": 111.24545454545454,
                "end_time": 111.37954545454545,
                "pitch": 37,
                "velocity": 32,
                "duration": 0.13409090909091503,
                "tempo": 120.0
            },
            {
                "start_time": 111.37954545454545,
                "end_time": 111.5,
                "pitch": 41,
                "velocity": 32,
                "duration": 0.12045454545454959,
                "tempo": 120.0
            },
            {
                "start_time": 111.5,
                "end_time": 111.62045454545454,
                "pitch": 44,
                "velocity": 32,
                "duration": 0.12045454545453538,
                "tempo": 120.0
            },
            {
                "start_time": 111.62045454545454,
                "end_time": 111.73636363636363,
                "pitch": 49,
                "velocity": 32,
                "duration": 0.11590909090909918,
                "tempo": 120.0
            },
            {
                "start_time": 111.73863636363636,
                "end_time": 111.85909090909091,
                "pitch": 53,
                "velocity": 32,
                "duration": 0.12045454545454959,
                "tempo": 120.0
            },
            {
                "start_time": 111.85909090909091,
                "end_time": 111.98863636363636,
                "pitch": 56,
                "velocity": 32,
                "duration": 0.1295454545454504,
                "tempo": 120.0
            },
            {
                "start_time": 111.98863636363636,
                "end_time": 112.10454545454544,
                "pitch": 61,
                "velocity": 32,
                "duration": 0.11590909090908497,
                "tempo": 120.0
            },
            {
                "start_time": 112.10681818181817,
                "end_time": 112.22045454545454,
                "pitch": 65,
                "velocity": 32,
                "duration": 0.11363636363637397,
                "tempo": 120.0
            },
            {
                "start_time": 112.22045454545454,
                "end_time": 112.33636363636363,
                "pitch": 68,
                "velocity": 32,
                "duration": 0.11590909090908497,
                "tempo": 120.0
            },
            {
                "start_time": 112.33636363636363,
                "end_time": 112.45227272727273,
                "pitch": 73,
                "velocity": 32,
                "duration": 0.11590909090909918,
                "tempo": 120.0
            },
            {
                "start_time": 112.45227272727273,
                "end_time": 112.58863636363635,
                "pitch": 77,
                "velocity": 32,
                "duration": 0.13636363636362603,
                "tempo": 120.0
            },
            {
                "start_time": 112.58863636363635,
                "end_time": 112.70454545454545,
                "pitch": 80,
                "velocity": 32,
                "duration": 0.11590909090909918,
                "tempo": 120.0
            },
            {
                "start_time": 112.70681818181818,
                "end_time": 112.82272727272726,
                "pitch": 85,
                "velocity": 32,
                "duration": 0.11590909090908497,
                "tempo": 120.0
            },
            {
                "start_time": 112.82272727272726,
                "end_time": 112.93863636363636,
                "pitch": 25,
                "velocity": 32,
                "duration": 0.11590909090909918,
                "tempo": 120.0
            },
            {
                "start_time": 112.93863636363636,
                "end_time": 113.05681818181817,
                "pitch": 30,
                "velocity": 32,
                "duration": 0.11818181818181017,
                "tempo": 120.0
            },
            {
                "start_time": 113.0590909090909,
                "end_time": 113.19318181818181,
                "pitch": 34,
                "velocity": 32,
                "duration": 0.13409090909091503,
                "tempo": 120.0
            },
            {
                "start_time": 113.19318181818181,
                "end_time": 113.31136363636364,
                "pitch": 37,
                "velocity": 32,
                "duration": 0.11818181818182438,
                "tempo": 120.0
            },
            {
                "start_time": 113.31136363636364,
                "end_time": 113.42954545454545,
                "pitch": 42,
                "velocity": 32,
                "duration": 0.11818181818181017,
                "tempo": 120.0
            },
            {
                "start_time": 113.42954545454545,
                "end_time": 113.55,
                "pitch": 46,
                "velocity": 32,
                "duration": 0.12045454545454959,
                "tempo": 120.0
            },
            {
                "start_time": 113.55,
                "end_time": 113.66818181818181,
                "pitch": 49,
                "velocity": 32,
                "duration": 0.11818181818181017,
                "tempo": 120.0
            },
            {
                "start_time": 113.67045454545455,
                "end_time": 113.80681818181817,
                "pitch": 54,
                "velocity": 32,
                "duration": 0.13636363636362603,
                "tempo": 120.0
            },
            {
                "start_time": 113.80681818181817,
                "end_time": 113.92272727272727,
                "pitch": 58,
                "velocity": 32,
                "duration": 0.11590909090909918,
                "tempo": 120.0
            },
            {
                "start_time": 113.92272727272727,
                "end_time": 114.04318181818181,
                "pitch": 61,
                "velocity": 32,
                "duration": 0.12045454545453538,
                "tempo": 120.0
            },
            {
                "start_time": 114.04318181818181,
                "end_time": 114.1590909090909,
                "pitch": 66,
                "velocity": 32,
                "duration": 0.11590909090909918,
                "tempo": 120.0
            },
            {
                "start_time": 114.1590909090909,
                "end_time": 114.27727272727272,
                "pitch": 70,
                "velocity": 32,
                "duration": 0.11818181818181017,
                "tempo": 120.0
            },
            {
                "start_time": 114.27727272727272,
                "end_time": 114.4090909090909,
                "pitch": 73,
                "velocity": 32,
                "duration": 0.13181818181818983,
                "tempo": 120.0
            },
            {
                "start_time": 114.4090909090909,
                "end_time": 114.52499999999999,
                "pitch": 78,
                "velocity": 32,
                "duration": 0.11590909090908497,
                "tempo": 120.0
            },
            {
                "start_time": 114.52499999999999,
                "end_time": 114.63863636363635,
                "pitch": 82,
                "velocity": 32,
                "duration": 0.11363636363635976,
                "tempo": 120.0
            },
            {
                "start_time": 114.63863636363635,
                "end_time": 114.75454545454545,
                "pitch": 85,
                "velocity": 32,
                "duration": 0.11590909090909918,
                "tempo": 120.0
            },
            {
                "start_time": 114.75454545454545,
                "end_time": 114.87045454545454,
                "pitch": 27,
                "velocity": 32,
                "duration": 0.11590909090908497,
                "tempo": 120.0
            },
            {
                "start_time": 114.87045454545454,
                "end_time": 115.00454545454545,
                "pitch": 31,
                "velocity": 32,
                "duration": 0.13409090909091503,
                "tempo": 120.0
            },
            {
                "start_time": 115.00681818181818,
                "end_time": 115.12272727272726,
                "pitch": 34,
                "velocity": 32,
                "duration": 0.11590909090908497,
                "tempo": 120.0
            },
            {
                "start_time": 115.12272727272726,
                "end_time": 115.24090909090908,
                "pitch": 39,
                "velocity": 32,
                "duration": 0.11818181818182438,
                "tempo": 120.0
            },
            {
                "start_time": 115.24090909090908,
                "end_time": 115.36136363636363,
                "pitch": 43,
                "velocity": 32,
                "duration": 0.12045454545454959,
                "tempo": 120.0
            },
            {
                "start_time": 115.36136363636363,
                "end_time": 115.47954545454544,
                "pitch": 46,
                "velocity": 32,
                "duration": 0.11818181818181017,
                "tempo": 120.0
            },
            {
                "start_time": 115.48181818181817,
                "end_time": 115.61590909090908,
                "pitch": 51,
                "velocity": 32,
                "duration": 0.13409090909091503,
                "tempo": 120.0
            },
            {
                "start_time": 115.61590909090908,
                "end_time": 115.73863636363636,
                "pitch": 55,
                "velocity": 32,
                "duration": 0.1227272727272748,
                "tempo": 120.0
            },
            {
                "start_time": 115.73863636363636,
                "end_time": 115.85454545454544,
                "pitch": 58,
                "velocity": 32,
                "duration": 0.11590909090908497,
                "tempo": 120.0
            },
            {
                "start_time": 115.85454545454544,
                "end_time": 115.97272727272727,
                "pitch": 63,
                "velocity": 32,
                "duration": 0.11818181818182438,
                "tempo": 120.0
            },
            {
                "start_time": 115.97272727272727,
                "end_time": 116.09090909090908,
                "pitch": 67,
                "velocity": 32,
                "duration": 0.11818181818181017,
                "tempo": 120.0
            },
            {
                "start_time": 116.09090909090908,
                "end_time": 116.22727272727272,
                "pitch": 70,
                "velocity": 32,
                "duration": 0.13636363636364024,
                "tempo": 120.0
            },
            {
                "start_time": 116.69318181818181,
                "end_time": 116.82272727272726,
                "pitch": 25,
                "velocity": 32,
                "duration": 0.1295454545454504,
                "tempo": 120.0
            },
            {
                "start_time": 116.82272727272726,
                "end_time": 116.93863636363636,
                "pitch": 28,
                "velocity": 32,
                "duration": 0.11590909090909918,
                "tempo": 120.0
            },
            {
                "start_time": 116.93863636363636,
                "end_time": 117.05227272727272,
                "pitch": 32,
                "velocity": 32,
                "duration": 0.11363636363635976,
                "tempo": 120.0
            },
            {
                "start_time": 117.05227272727272,
                "end_time": 117.16818181818181,
                "pitch": 37,
                "velocity": 32,
                "duration": 0.11590909090908497,
                "tempo": 120.0
            },
            {
                "start_time": 117.16818181818181,
                "end_time": 117.28863636363636,
                "pitch": 40,
                "velocity": 32,
                "duration": 0.12045454545454959,
                "tempo": 120.0
            },
            {
                "start_time": 117.28863636363636,
                "end_time": 117.425,
                "pitch": 44,
                "velocity": 32,
                "duration": 0.13636363636364024,
                "tempo": 120.0
            },
            {
                "start_time": 117.425,
                "end_time": 117.54318181818181,
                "pitch": 49,
                "velocity": 32,
                "duration": 0.11818181818181017,
                "tempo": 120.0
            },
            {
                "start_time": 117.54318181818181,
                "end_time": 117.66590909090908,
                "pitch": 52,
                "velocity": 32,
                "duration": 0.1227272727272748,
                "tempo": 120.0
            },
            {
                "start_time": 117.66590909090908,
                "end_time": 117.77954545454544,
                "pitch": 56,
                "velocity": 32,
                "duration": 0.11363636363635976,
                "tempo": 120.0
            },
            {
                "start_time": 117.78181818181818,
                "end_time": 117.89999999999999,
                "pitch": 61,
                "velocity": 32,
                "duration": 0.11818181818181017,
                "tempo": 120.0
            },
            {
                "start_time": 117.89999999999999,
                "end_time": 118.0340909090909,
                "pitch": 64,
                "velocity": 32,
                "duration": 0.13409090909091503,
                "tempo": 120.0
            },
            {
                "start_time": 118.0340909090909,
                "end_time": 118.15227272727272,
                "pitch": 68,
                "velocity": 32,
                "duration": 0.11818181818181017,
                "tempo": 120.0
            },
            {
                "start_time": 118.15227272727272,
                "end_time": 118.26818181818182,
                "pitch": 73,
                "velocity": 32,
                "duration": 0.11590909090909918,
                "tempo": 120.0
            },
            {
                "start_time": 118.26818181818182,
                "end_time": 118.38636363636363,
                "pitch": 76,
                "velocity": 32,
                "duration": 0.11818181818181017,
                "tempo": 120.0
            },
            {
                "start_time": 118.38636363636363,
                "end_time": 118.50227272727273,
                "pitch": 80,
                "velocity": 32,
                "duration": 0.11590909090909918,
                "tempo": 120.0
            },
            {
                "start_time": 118.50227272727273,
                "end_time": 118.63636363636363,
                "pitch": 85,
                "velocity": 32,
                "duration": 0.13409090909090082,
                "tempo": 120.0
            },
            {
                "start_time": 118.63636363636363,
                "end_time": 118.75454545454545,
                "pitch": 25,
                "velocity": 32,
                "duration": 0.11818181818182438,
                "tempo": 120.0
            },
            {
                "start_time": 118.75454545454545,
                "end_time": 118.875,
                "pitch": 29,
                "velocity": 32,
                "duration": 0.12045454545454959,
                "tempo": 120.0
            },
            {
                "start_time": 118.875,
                "end_time": 118.99545454545454,
                "pitch": 32,
                "velocity": 32,
                "duration": 0.12045454545453538,
                "tempo": 120.0
            },
            {
                "start_time": 118.99545454545454,
                "end_time": 119.11590909090908,
                "pitch": 37,
                "velocity": 32,
                "duration": 0.12045454545454959,
                "tempo": 120.0
            },
            {
                "start_time": 119.11590909090908,
                "end_time": 119.24545454545454,
                "pitch": 41,
                "velocity": 32,
                "duration": 0.1295454545454504,
                "tempo": 120.0
            },
            {
                "start_time": 119.24545454545454,
                "end_time": 119.36136363636363,
                "pitch": 44,
                "velocity": 32,
                "duration": 0.11590909090909918,
                "tempo": 120.0
            },
            {
                "start_time": 119.36136363636363,
                "end_time": 119.475,
                "pitch": 49,
                "velocity": 32,
                "duration": 0.11363636363635976,
                "tempo": 120.0
            },
            {
                "start_time": 119.475,
                "end_time": 119.59090909090908,
                "pitch": 53,
                "velocity": 32,
                "duration": 0.11590909090908497,
                "tempo": 120.0
            },
            {
                "start_time": 119.59090909090908,
                "end_time": 119.70681818181818,
                "pitch": 56,
                "velocity": 32,
                "duration": 0.11590909090909918,
                "tempo": 120.0
            },
            {
                "start_time": 119.70681818181818,
                "end_time": 119.84090909090908,
                "pitch": 61,
                "velocity": 32,
                "duration": 0.13409090909090082,
                "tempo": 120.0
            },
            {
                "start_time": 119.84318181818182,
                "end_time": 119.95681818181818,
                "pitch": 65,
                "velocity": 32,
                "duration": 0.11363636363635976,
                "tempo": 120.0
            },
            {
                "start_time": 119.9590909090909,
                "end_time": 120.07499999999999,
                "pitch": 68,
                "velocity": 32,
                "duration": 0.11590909090908497,
                "tempo": 120.0
            },
            {
                "start_time": 120.07499999999999,
                "end_time": 120.19318181818181,
                "pitch": 73,
                "velocity": 32,
                "duration": 0.11818181818182438,
                "tempo": 120.0
            },
            {
                "start_time": 120.19318181818181,
                "end_time": 120.31136363636364,
                "pitch": 77,
                "velocity": 32,
                "duration": 0.11818181818182438,
                "tempo": 120.0
            },
            {
                "start_time": 120.31136363636364,
                "end_time": 120.44545454545454,
                "pitch": 80,
                "velocity": 32,
                "duration": 0.13409090909090082,
                "tempo": 120.0
            },
            {
                "start_time": 120.44545454545454,
                "end_time": 120.56363636363636,
                "pitch": 85,
                "velocity": 32,
                "duration": 0.11818181818182438,
                "tempo": 120.0
            },
            {
                "start_time": 120.56363636363636,
                "end_time": 120.68181818181817,
                "pitch": 25,
                "velocity": 32,
                "duration": 0.11818181818181017,
                "tempo": 120.0
            },
            {
                "start_time": 120.68181818181817,
                "end_time": 120.80227272727272,
                "pitch": 30,
                "velocity": 32,
                "duration": 0.12045454545454959,
                "tempo": 120.0
            },
            {
                "start_time": 120.80227272727272,
                "end_time": 120.92045454545453,
                "pitch": 34,
                "velocity": 32,
                "duration": 0.11818181818181017,
                "tempo": 120.0
            },
            {
                "start_time": 120.92045454545453,
                "end_time": 121.0590909090909,
                "pitch": 37,
                "velocity": 32,
                "duration": 0.13863636363636545,
                "tempo": 120.0
            },
            {
                "start_time": 121.0590909090909,
                "end_time": 121.175,
                "pitch": 42,
                "velocity": 32,
                "duration": 0.11590909090909918,
                "tempo": 120.0
            },
            {
                "start_time": 121.175,
                "end_time": 121.29318181818181,
                "pitch": 46,
                "velocity": 32,
                "duration": 0.11818181818181017,
                "tempo": 120.0
            },
            {
                "start_time": 121.29318181818181,
                "end_time": 121.4090909090909,
                "pitch": 49,
                "velocity": 32,
                "duration": 0.11590909090909918,
                "tempo": 120.0
            },
            {
                "start_time": 121.4090909090909,
                "end_time": 121.52727272727272,
                "pitch": 54,
                "velocity": 32,
                "duration": 0.11818181818181017,
                "tempo": 120.0
            },
            {
                "start_time": 121.52727272727272,
                "end_time": 121.65681818181818,
                "pitch": 58,
                "velocity": 32,
                "duration": 0.12954545454546462,
                "tempo": 120.0
            },
            {
                "start_time": 121.65681818181818,
                "end_time": 121.77272727272727,
                "pitch": 61,
                "velocity": 32,
                "duration": 0.11590909090908497,
                "tempo": 120.0
            },
            {
                "start_time": 121.77272727272727,
                "end_time": 121.88636363636363,
                "pitch": 66,
                "velocity": 32,
                "duration": 0.11363636363635976,
                "tempo": 120.0
            },
            {
                "start_time": 121.88636363636363,
                "end_time": 122.00227272727273,
                "pitch": 70,
                "velocity": 32,
                "duration": 0.11590909090909918,
                "tempo": 120.0
            },
            {
                "start_time": 122.00227272727273,
                "end_time": 122.12045454545454,
                "pitch": 73,
                "velocity": 32,
                "duration": 0.11818181818181017,
                "tempo": 120.0
            },
            {
                "start_time": 122.12045454545454,
                "end_time": 122.25454545454545,
                "pitch": 78,
                "velocity": 32,
                "duration": 0.13409090909091503,
                "tempo": 120.0
            },
            {
                "start_time": 122.25454545454545,
                "end_time": 122.37272727272726,
                "pitch": 82,
                "velocity": 32,
                "duration": 0.11818181818181017,
                "tempo": 120.0
            },
            {
                "start_time": 122.37272727272726,
                "end_time": 122.49090909090908,
                "pitch": 85,
                "velocity": 32,
                "duration": 0.11818181818182438,
                "tempo": 120.0
            },
            {
                "start_time": 122.49090909090908,
                "end_time": 122.60681818181817,
                "pitch": 27,
                "velocity": 32,
                "duration": 0.11590909090908497,
                "tempo": 120.0
            },
            {
                "start_time": 122.60681818181817,
                "end_time": 122.725,
                "pitch": 31,
                "velocity": 32,
                "duration": 0.11818181818182438,
                "tempo": 120.0
            },
            {
                "start_time": 122.725,
                "end_time": 122.85909090909091,
                "pitch": 34,
                "velocity": 32,
                "duration": 0.13409090909091503,
                "tempo": 120.0
            },
            {
                "start_time": 122.85909090909091,
                "end_time": 122.97727272727272,
                "pitch": 39,
                "velocity": 32,
                "duration": 0.11818181818181017,
                "tempo": 120.0
            },
            {
                "start_time": 122.97727272727272,
                "end_time": 123.09772727272727,
                "pitch": 43,
                "velocity": 32,
                "duration": 0.12045454545454959,
                "tempo": 120.0
            },
            {
                "start_time": 123.09772727272727,
                "end_time": 123.21590909090908,
                "pitch": 46,
                "velocity": 32,
                "duration": 0.11818181818181017,
                "tempo": 120.0
            },
            {
                "start_time": 123.21590909090908,
                "end_time": 123.33636363636363,
                "pitch": 51,
                "velocity": 32,
                "duration": 0.12045454545454959,
                "tempo": 120.0
            },
            {
                "start_time": 123.33636363636363,
                "end_time": 123.46590909090908,
                "pitch": 55,
                "velocity": 32,
                "duration": 0.1295454545454504,
                "tempo": 120.0
            },
            {
                "start_time": 123.46590909090908,
                "end_time": 123.56590909090909,
                "pitch": 58,
                "velocity": 32,
                "duration": 0.10000000000000853,
                "tempo": 120.0
            },
            {
                "start_time": 123.56818181818181,
                "end_time": 123.67045454545453,
                "pitch": 63,
                "velocity": 32,
                "duration": 0.10227272727271952,
                "tempo": 120.0
            },
            {
                "start_time": 123.67045454545453,
                "end_time": 123.77272727272727,
                "pitch": 67,
                "velocity": 32,
                "duration": 0.10227272727273373,
                "tempo": 120.0
            }
        ],
        "Acoustic Bass": [
            {
                "start_time": 7.684090909090909,
                "end_time": 8.168181818181818,
                "pitch": 32,
                "velocity": 101,
                "duration": 0.48409090909090935,
                "tempo": 120.0
            },
            {
                "start_time": 8.418181818181818,
                "end_time": 8.656818181818181,
                "pitch": 32,
                "velocity": 101,
                "duration": 0.2386363636363633,
                "tempo": 120.0
            },
            {
                "start_time": 8.897727272727272,
                "end_time": 9.15,
                "pitch": 32,
                "velocity": 101,
                "duration": 0.25227272727272876,
                "tempo": 120.0
            },
            {
                "start_time": 9.384090909090908,
                "end_time": 9.631818181818181,
                "pitch": 30,
                "velocity": 101,
                "duration": 0.24772727272727302,
                "tempo": 120.0
            },
            {
                "start_time": 9.631818181818181,
                "end_time": 10.097727272727273,
                "pitch": 28,
                "velocity": 101,
                "duration": 0.4659090909090917,
                "tempo": 120.0
            },
            {
                "start_time": 10.35,
                "end_time": 10.59090909090909,
                "pitch": 28,
                "velocity": 101,
                "duration": 0.2409090909090903,
                "tempo": 120.0
            },
            {
                "start_time": 10.852272727272727,
                "end_time": 11.088636363636363,
                "pitch": 28,
                "velocity": 101,
                "duration": 0.23636363636363633,
                "tempo": 120.0
            },
            {
                "start_time": 11.325,
                "end_time": 11.56590909090909,
                "pitch": 32,
                "velocity": 101,
                "duration": 0.2409090909090903,
                "tempo": 120.0
            },
            {
                "start_time": 11.56590909090909,
                "end_time": 12.045454545454545,
                "pitch": 30,
                "velocity": 101,
                "duration": 0.4795454545454554,
                "tempo": 120.0
            },
            {
                "start_time": 12.284090909090908,
                "end_time": 12.524999999999999,
                "pitch": 30,
                "velocity": 101,
                "duration": 0.2409090909090903,
                "tempo": 120.0
            },
            {
                "start_time": 12.781818181818181,
                "end_time": 13.493181818181817,
                "pitch": 30,
                "velocity": 101,
                "duration": 0.711363636363636,
                "tempo": 120.0
            },
            {
                "start_time": 13.493181818181817,
                "end_time": 13.977272727272727,
                "pitch": 27,
                "velocity": 101,
                "duration": 0.48409090909090935,
                "tempo": 120.0
            },
            {
                "start_time": 14.211363636363636,
                "end_time": 14.468181818181817,
                "pitch": 27,
                "velocity": 101,
                "duration": 0.25681818181818095,
                "tempo": 120.0
            },
            {
                "start_time": 14.709090909090909,
                "end_time": 14.931818181818182,
                "pitch": 27,
                "velocity": 101,
                "duration": 0.22272727272727266,
                "tempo": 120.0
            },
            {
                "start_time": 15.172727272727272,
                "end_time": 15.436363636363636,
                "pitch": 30,
                "velocity": 101,
                "duration": 0.26363636363636367,
                "tempo": 120.0
            },
            {
                "start_time": 15.436363636363636,
                "end_time": 15.577272727272726,
                "pitch": 32,
                "velocity": 80,
                "duration": 0.14090909090909065,
                "tempo": 120.0
            },
            {
                "start_time": 15.577272727272726,
                "end_time": 15.745454545454544,
                "pitch": 32,
                "velocity": 80,
                "duration": 0.168181818181818,
                "tempo": 120.0
            },
            {
                "start_time": 15.745454545454544,
                "end_time": 15.89090909090909,
                "pitch": 32,
                "velocity": 80,
                "duration": 0.1454545454545464,
                "tempo": 120.0
            },
            {
                "start_time": 15.89090909090909,
                "end_time": 16.038636363636364,
                "pitch": 32,
                "velocity": 80,
                "duration": 0.14772727272727337,
                "tempo": 120.0
            },
            {
                "start_time": 16.038636363636364,
                "end_time": 16.18409090909091,
                "pitch": 32,
                "velocity": 80,
                "duration": 0.14545454545454461,
                "tempo": 120.0
            },
            {
                "start_time": 16.18409090909091,
                "end_time": 16.336363636363636,
                "pitch": 32,
                "velocity": 80,
                "duration": 0.15227272727272734,
                "tempo": 120.0
            },
            {
                "start_time": 16.336363636363636,
                "end_time": 16.504545454545454,
                "pitch": 32,
                "velocity": 80,
                "duration": 0.168181818181818,
                "tempo": 120.0
            },
            {
                "start_time": 16.504545454545454,
                "end_time": 16.654545454545453,
                "pitch": 32,
                "velocity": 80,
                "duration": 0.14999999999999858,
                "tempo": 120.0
            },
            {
                "start_time": 16.654545454545453,
                "end_time": 16.770454545454545,
                "pitch": 32,
                "velocity": 80,
                "duration": 0.11590909090909207,
                "tempo": 120.0
            },
            {
                "start_time": 16.772727272727273,
                "end_time": 16.89090909090909,
                "pitch": 32,
                "velocity": 80,
                "duration": 0.11818181818181728,
                "tempo": 120.0
            },
            {
                "start_time": 16.89090909090909,
                "end_time": 17.006818181818183,
                "pitch": 32,
                "velocity": 80,
                "duration": 0.11590909090909207,
                "tempo": 120.0
            },
            {
                "start_time": 17.006818181818183,
                "end_time": 17.143181818181816,
                "pitch": 32,
                "velocity": 80,
                "duration": 0.13636363636363313,
                "tempo": 120.0
            },
            {
                "start_time": 17.143181818181816,
                "end_time": 17.259090909090908,
                "pitch": 32,
                "velocity": 80,
                "duration": 0.11590909090909207,
                "tempo": 120.0
            },
            {
                "start_time": 17.261363636363637,
                "end_time": 17.381818181818183,
                "pitch": 32,
                "velocity": 80,
                "duration": 0.12045454545454604,
                "tempo": 120.0
            },
            {
                "start_time": 17.381818181818183,
                "end_time": 17.5,
                "pitch": 30,
                "velocity": 80,
                "duration": 0.11818181818181728,
                "tempo": 120.0
            },
            {
                "start_time": 17.5,
                "end_time": 17.620454545454546,
                "pitch": 30,
                "velocity": 80,
                "duration": 0.12045454545454604,
                "tempo": 120.0
            },
            {
                "start_time": 17.62272727272727,
                "end_time": 17.74772727272727,
                "pitch": 28,
                "velocity": 80,
                "duration": 0.125,
                "tempo": 120.0
            },
            {
                "start_time": 17.74772727272727,
                "end_time": 17.861363636363635,
                "pitch": 28,
                "velocity": 80,
                "duration": 0.11363636363636331,
                "tempo": 120.0
            },
            {
                "start_time": 17.861363636363635,
                "end_time": 17.972727272727273,
                "pitch": 28,
                "velocity": 80,
                "duration": 0.11136363636363811,
                "tempo": 120.0
            },
            {
                "start_time": 17.972727272727273,
                "end_time": 18.086363636363636,
                "pitch": 28,
                "velocity": 80,
                "duration": 0.11363636363636331,
                "tempo": 120.0
            },
            {
                "start_time": 18.086363636363636,
                "end_time": 18.204545454545453,
                "pitch": 28,
                "velocity": 80,
                "duration": 0.11818181818181728,
                "tempo": 120.0
            },
            {
                "start_time": 18.204545454545453,
                "end_time": 18.34318181818182,
                "pitch": 28,
                "velocity": 80,
                "duration": 0.13863636363636545,
                "tempo": 120.0
            },
            {
                "start_time": 18.34318181818182,
                "end_time": 18.461363636363636,
                "pitch": 28,
                "velocity": 80,
                "duration": 0.11818181818181728,
                "tempo": 120.0
            },
            {
                "start_time": 18.461363636363636,
                "end_time": 18.581818181818182,
                "pitch": 28,
                "velocity": 80,
                "duration": 0.12045454545454604,
                "tempo": 120.0
            },
            {
                "start_time": 18.581818181818182,
                "end_time": 18.69772727272727,
                "pitch": 28,
                "velocity": 80,
                "duration": 0.11590909090908852,
                "tempo": 120.0
            },
            {
                "start_time": 18.69772727272727,
                "end_time": 18.818181818181817,
                "pitch": 28,
                "velocity": 80,
                "duration": 0.12045454545454604,
                "tempo": 120.0
            },
            {
                "start_time": 18.818181818181817,
                "end_time": 18.95,
                "pitch": 28,
                "velocity": 80,
                "duration": 0.13181818181818272,
                "tempo": 120.0
            },
            {
                "start_time": 18.95,
                "end_time": 19.070454545454545,
                "pitch": 28,
                "velocity": 80,
                "duration": 0.12045454545454604,
                "tempo": 120.0
            },
            {
                "start_time": 19.070454545454545,
                "end_time": 19.18409090909091,
                "pitch": 28,
                "velocity": 80,
                "duration": 0.11363636363636331,
                "tempo": 120.0
            },
            {
                "start_time": 19.18409090909091,
                "end_time": 19.304545454545455,
                "pitch": 28,
                "velocity": 80,
                "duration": 0.12045454545454604,
                "tempo": 120.0
            },
            {
                "start_time": 19.304545454545455,
                "end_time": 19.418181818181818,
                "pitch": 32,
                "velocity": 80,
                "duration": 0.11363636363636331,
                "tempo": 120.0
            },
            {
                "start_time": 19.420454545454543,
                "end_time": 19.554545454545455,
                "pitch": 32,
                "velocity": 80,
                "duration": 0.13409090909091148,
                "tempo": 120.0
            },
            {
                "start_time": 19.554545454545455,
                "end_time": 19.672727272727272,
                "pitch": 30,
                "velocity": 80,
                "duration": 0.11818181818181728,
                "tempo": 120.0
            },
            {
                "start_time": 19.672727272727272,
                "end_time": 19.79090909090909,
                "pitch": 30,
                "velocity": 80,
                "duration": 0.11818181818181728,
                "tempo": 120.0
            },
            {
                "start_time": 19.793181818181818,
                "end_time": 19.911363636363635,
                "pitch": 30,
                "velocity": 80,
                "duration": 0.11818181818181728,
                "tempo": 120.0
            },
            {
                "start_time": 19.911363636363635,
                "end_time": 20.03181818181818,
                "pitch": 30,
                "velocity": 80,
                "duration": 0.12045454545454604,
                "tempo": 120.0
            },
            {
                "start_time": 20.03181818181818,
                "end_time": 20.161363636363635,
                "pitch": 30,
                "velocity": 80,
                "duration": 0.12954545454545396,
                "tempo": 120.0
            },
            {
                "start_time": 20.161363636363635,
                "end_time": 20.279545454545453,
                "pitch": 30,
                "velocity": 80,
                "duration": 0.11818181818181728,
                "tempo": 120.0
            },
            {
                "start_time": 20.279545454545453,
                "end_time": 20.393181818181816,
                "pitch": 30,
                "velocity": 80,
                "duration": 0.11363636363636331,
                "tempo": 120.0
            },
            {
                "start_time": 20.393181818181816,
                "end_time": 20.509090909090908,
                "pitch": 30,
                "velocity": 80,
                "duration": 0.11590909090909207,
                "tempo": 120.0
            },
            {
                "start_time": 20.509090909090908,
                "end_time": 20.625,
                "pitch": 30,
                "velocity": 80,
                "duration": 0.11590909090909207,
                "tempo": 120.0
            },
            {
                "start_time": 20.625,
                "end_time": 20.761363636363637,
                "pitch": 30,
                "velocity": 80,
                "duration": 0.1363636363636367,
                "tempo": 120.0
            },
            {
                "start_time": 20.761363636363637,
                "end_time": 20.877272727272725,
                "pitch": 30,
                "velocity": 80,
                "duration": 0.11590909090908852,
                "tempo": 120.0
            },
            {
                "start_time": 20.877272727272725,
                "end_time": 20.99772727272727,
                "pitch": 30,
                "velocity": 80,
                "duration": 0.12045454545454604,
                "tempo": 120.0
            },
            {
                "start_time": 20.99772727272727,
                "end_time": 21.111363636363635,
                "pitch": 30,
                "velocity": 80,
                "duration": 0.11363636363636331,
                "tempo": 120.0
            },
            {
                "start_time": 21.111363636363635,
                "end_time": 21.23181818181818,
                "pitch": 30,
                "velocity": 80,
                "duration": 0.12045454545454604,
                "tempo": 120.0
            },
            {
                "start_time": 21.23181818181818,
                "end_time": 21.36590909090909,
                "pitch": 30,
                "velocity": 80,
                "duration": 0.13409090909090793,
                "tempo": 120.0
            },
            {
                "start_time": 21.36590909090909,
                "end_time": 21.48409090909091,
                "pitch": 30,
                "velocity": 80,
                "duration": 0.11818181818182083,
                "tempo": 120.0
            },
            {
                "start_time": 21.48409090909091,
                "end_time": 21.602272727272727,
                "pitch": 27,
                "velocity": 80,
                "duration": 0.11818181818181728,
                "tempo": 120.0
            },
            {
                "start_time": 21.602272727272727,
                "end_time": 21.722727272727273,
                "pitch": 27,
                "velocity": 80,
                "duration": 0.12045454545454604,
                "tempo": 120.0
            },
            {
                "start_time": 21.722727272727273,
                "end_time": 21.84318181818182,
                "pitch": 27,
                "velocity": 80,
                "duration": 0.12045454545454604,
                "tempo": 120.0
            },
            {
                "start_time": 21.84318181818182,
                "end_time": 21.979545454545452,
                "pitch": 27,
                "velocity": 80,
                "duration": 0.13636363636363313,
                "tempo": 120.0
            },
            {
                "start_time": 21.98181818181818,
                "end_time": 22.095454545454544,
                "pitch": 27,
                "velocity": 80,
                "duration": 0.11363636363636331,
                "tempo": 120.0
            },
            {
                "start_time": 22.095454545454544,
                "end_time": 22.21590909090909,
                "pitch": 27,
                "velocity": 80,
                "duration": 0.12045454545454604,
                "tempo": 120.0
            },
            {
                "start_time": 22.21590909090909,
                "end_time": 22.331818181818182,
                "pitch": 27,
                "velocity": 80,
                "duration": 0.11590909090909207,
                "tempo": 120.0
            },
            {
                "start_time": 22.331818181818182,
                "end_time": 22.452272727272724,
                "pitch": 27,
                "velocity": 80,
                "duration": 0.12045454545454248,
                "tempo": 120.0
            },
            {
                "start_time": 22.452272727272724,
                "end_time": 22.581818181818182,
                "pitch": 27,
                "velocity": 80,
                "duration": 0.12954545454545752,
                "tempo": 120.0
            },
            {
                "start_time": 22.581818181818182,
                "end_time": 22.69772727272727,
                "pitch": 27,
                "velocity": 80,
                "duration": 0.11590909090908852,
                "tempo": 120.0
            },
            {
                "start_time": 22.69772727272727,
                "end_time": 22.811363636363634,
                "pitch": 27,
                "velocity": 80,
                "duration": 0.11363636363636331,
                "tempo": 120.0
            },
            {
                "start_time": 22.811363636363634,
                "end_time": 22.927272727272726,
                "pitch": 27,
                "velocity": 80,
                "duration": 0.11590909090909207,
                "tempo": 120.0
            },
            {
                "start_time": 22.927272727272726,
                "end_time": 23.043181818181818,
                "pitch": 27,
                "velocity": 80,
                "duration": 0.11590909090909207,
                "tempo": 120.0
            },
            {
                "start_time": 23.043181818181818,
                "end_time": 23.177272727272726,
                "pitch": 27,
                "velocity": 80,
                "duration": 0.13409090909090793,
                "tempo": 120.0
            },
            {
                "start_time": 23.177272727272726,
                "end_time": 23.293181818181818,
                "pitch": 30,
                "velocity": 80,
                "duration": 0.11590909090909207,
                "tempo": 120.0
            },
            {
                "start_time": 23.293181818181818,
                "end_time": 23.413636363636364,
                "pitch": 30,
                "velocity": 80,
                "duration": 0.12045454545454604,
                "tempo": 120.0
            },
            {
                "start_time": 23.413636363636364,
                "end_time": 23.529545454545453,
                "pitch": 32,
                "velocity": 80,
                "duration": 0.11590909090908852,
                "tempo": 120.0
            },
            {
                "start_time": 23.529545454545453,
                "end_time": 23.65,
                "pitch": 32,
                "velocity": 80,
                "duration": 0.12045454545454604,
                "tempo": 120.0
            },
            {
                "start_time": 23.65,
                "end_time": 23.786363636363635,
                "pitch": 32,
                "velocity": 80,
                "duration": 0.1363636363636367,
                "tempo": 120.0
            },
            {
                "start_time": 23.786363636363635,
                "end_time": 23.90681818181818,
                "pitch": 32,
                "velocity": 80,
                "duration": 0.12045454545454604,
                "tempo": 120.0
            },
            {
                "start_time": 23.90681818181818,
                "end_time": 24.02272727272727,
                "pitch": 32,
                "velocity": 80,
                "duration": 0.11590909090908852,
                "tempo": 120.0
            },
            {
                "start_time": 24.02272727272727,
                "end_time": 24.143181818181816,
                "pitch": 32,
                "velocity": 80,
                "duration": 0.12045454545454604,
                "tempo": 120.0
            },
            {
                "start_time": 24.143181818181816,
                "end_time": 24.259090909090908,
                "pitch": 32,
                "velocity": 80,
                "duration": 0.11590909090909207,
                "tempo": 120.0
            },
            {
                "start_time": 24.259090909090908,
                "end_time": 24.395454545454545,
                "pitch": 32,
                "velocity": 80,
                "duration": 0.1363636363636367,
                "tempo": 120.0
            },
            {
                "start_time": 24.395454545454545,
                "end_time": 24.513636363636362,
                "pitch": 32,
                "velocity": 80,
                "duration": 0.11818181818181728,
                "tempo": 120.0
            },
            {
                "start_time": 24.513636363636362,
                "end_time": 24.634090909090908,
                "pitch": 32,
                "velocity": 80,
                "duration": 0.12045454545454604,
                "tempo": 120.0
            },
            {
                "start_time": 24.634090909090908,
                "end_time": 24.752272727272725,
                "pitch": 32,
                "velocity": 80,
                "duration": 0.11818181818181728,
                "tempo": 120.0
            },
            {
                "start_time": 24.752272727272725,
                "end_time": 24.87272727272727,
                "pitch": 32,
                "velocity": 80,
                "duration": 0.12045454545454604,
                "tempo": 120.0
            },
            {
                "start_time": 24.875,
                "end_time": 25.0,
                "pitch": 32,
                "velocity": 80,
                "duration": 0.125,
                "tempo": 120.0
            },
            {
                "start_time": 25.0,
                "end_time": 25.113636363636363,
                "pitch": 32,
                "velocity": 80,
                "duration": 0.11363636363636331,
                "tempo": 120.0
            },
            {
                "start_time": 25.113636363636363,
                "end_time": 25.224999999999998,
                "pitch": 30,
                "velocity": 80,
                "duration": 0.11136363636363455,
                "tempo": 120.0
            },
            {
                "start_time": 25.224999999999998,
                "end_time": 25.33863636363636,
                "pitch": 30,
                "velocity": 80,
                "duration": 0.11363636363636331,
                "tempo": 120.0
            },
            {
                "start_time": 25.33863636363636,
                "end_time": 25.456818181818182,
                "pitch": 28,
                "velocity": 80,
                "duration": 0.11818181818182083,
                "tempo": 120.0
            },
            {
                "start_time": 25.456818181818182,
                "end_time": 25.59318181818182,
                "pitch": 28,
                "velocity": 80,
                "duration": 0.1363636363636367,
                "tempo": 120.0
            },
            {
                "start_time": 25.59318181818182,
                "end_time": 25.71363636363636,
                "pitch": 28,
                "velocity": 80,
                "duration": 0.12045454545454248,
                "tempo": 120.0
            },
            {
                "start_time": 25.71363636363636,
                "end_time": 25.834090909090907,
                "pitch": 28,
                "velocity": 80,
                "duration": 0.12045454545454604,
                "tempo": 120.0
            },
            {
                "start_time": 25.834090909090907,
                "end_time": 25.95,
                "pitch": 28,
                "velocity": 80,
                "duration": 0.11590909090909207,
                "tempo": 120.0
            },
            {
                "start_time": 25.95,
                "end_time": 26.070454545454545,
                "pitch": 28,
                "velocity": 80,
                "duration": 0.12045454545454604,
                "tempo": 120.0
            },
            {
                "start_time": 26.070454545454545,
                "end_time": 26.202272727272724,
                "pitch": 28,
                "velocity": 80,
                "duration": 0.13181818181817917,
                "tempo": 120.0
            },
            {
                "start_time": 26.204545454545453,
                "end_time": 26.32272727272727,
                "pitch": 28,
                "velocity": 80,
                "duration": 0.11818181818181728,
                "tempo": 120.0
            },
            {
                "start_time": 26.32272727272727,
                "end_time": 26.438636363636363,
                "pitch": 28,
                "velocity": 80,
                "duration": 0.11590909090909207,
                "tempo": 120.0
            },
            {
                "start_time": 26.438636363636363,
                "end_time": 26.55909090909091,
                "pitch": 28,
                "velocity": 80,
                "duration": 0.12045454545454604,
                "tempo": 120.0
            },
            {
                "start_time": 26.55909090909091,
                "end_time": 26.672727272727272,
                "pitch": 28,
                "velocity": 80,
                "duration": 0.11363636363636331,
                "tempo": 120.0
            },
            {
                "start_time": 26.672727272727272,
                "end_time": 26.811363636363634,
                "pitch": 28,
                "velocity": 80,
                "duration": 0.1386363636363619,
                "tempo": 120.0
            },
            {
                "start_time": 26.811363636363634,
                "end_time": 26.927272727272726,
                "pitch": 28,
                "velocity": 80,
                "duration": 0.11590909090909207,
                "tempo": 120.0
            },
            {
                "start_time": 26.927272727272726,
                "end_time": 27.049999999999997,
                "pitch": 28,
                "velocity": 80,
                "duration": 0.12272727272727124,
                "tempo": 120.0
            },
            {
                "start_time": 27.049999999999997,
                "end_time": 27.168181818181818,
                "pitch": 32,
                "velocity": 80,
                "duration": 0.11818181818182083,
                "tempo": 120.0
            },
            {
                "start_time": 27.168181818181818,
                "end_time": 27.288636363636364,
                "pitch": 32,
                "velocity": 80,
                "duration": 0.12045454545454604,
                "tempo": 120.0
            },
            {
                "start_time": 27.288636363636364,
                "end_time": 27.418181818181818,
                "pitch": 30,
                "velocity": 80,
                "duration": 0.12954545454545396,
                "tempo": 120.0
            },
            {
                "start_time": 27.418181818181818,
                "end_time": 27.534090909090907,
                "pitch": 30,
                "velocity": 80,
                "duration": 0.11590909090908852,
                "tempo": 120.0
            },
            {
                "start_time": 27.534090909090907,
                "end_time": 27.65,
                "pitch": 30,
                "velocity": 80,
                "duration": 0.11590909090909207,
                "tempo": 120.0
            },
            {
                "start_time": 27.65,
                "end_time": 27.76590909090909,
                "pitch": 30,
                "velocity": 80,
                "duration": 0.11590909090909207,
                "tempo": 120.0
            },
            {
                "start_time": 27.76590909090909,
                "end_time": 27.88181818181818,
                "pitch": 30,
                "velocity": 80,
                "duration": 0.11590909090908852,
                "tempo": 120.0
            },
            {
                "start_time": 27.88181818181818,
                "end_time": 28.018181818181816,
                "pitch": 30,
                "velocity": 80,
                "duration": 0.1363636363636367,
                "tempo": 120.0
            },
            {
                "start_time": 28.018181818181816,
                "end_time": 28.134090909090908,
                "pitch": 30,
                "velocity": 80,
                "duration": 0.11590909090909207,
                "tempo": 120.0
            },
            {
                "start_time": 28.134090909090908,
                "end_time": 28.252272727272725,
                "pitch": 30,
                "velocity": 80,
                "duration": 0.11818181818181728,
                "tempo": 120.0
            },
            {
                "start_time": 28.252272727272725,
                "end_time": 28.370454545454542,
                "pitch": 30,
                "velocity": 80,
                "duration": 0.11818181818181728,
                "tempo": 120.0
            },
            {
                "start_time": 28.370454545454542,
                "end_time": 28.488636363636363,
                "pitch": 30,
                "velocity": 80,
                "duration": 0.11818181818182083,
                "tempo": 120.0
            },
            {
                "start_time": 28.488636363636363,
                "end_time": 28.62272727272727,
                "pitch": 30,
                "velocity": 80,
                "duration": 0.13409090909090793,
                "tempo": 120.0
            },
            {
                "start_time": 28.62272727272727,
                "end_time": 28.74090909090909,
                "pitch": 30,
                "velocity": 80,
                "duration": 0.11818181818181728,
                "tempo": 120.0
            },
            {
                "start_time": 28.74090909090909,
                "end_time": 28.85909090909091,
                "pitch": 30,
                "velocity": 80,
                "duration": 0.11818181818182083,
                "tempo": 120.0
            },
            {
                "start_time": 28.85909090909091,
                "end_time": 28.979545454545452,
                "pitch": 30,
                "velocity": 80,
                "duration": 0.12045454545454248,
                "tempo": 120.0
            },
            {
                "start_time": 28.979545454545452,
                "end_time": 29.097727272727273,
                "pitch": 30,
                "velocity": 80,
                "duration": 0.11818181818182083,
                "tempo": 120.0
            },
            {
                "start_time": 29.097727272727273,
                "end_time": 29.236363636363635,
                "pitch": 30,
                "velocity": 80,
                "duration": 0.1386363636363619,
                "tempo": 120.0
            },
            {
                "start_time": 29.236363636363635,
                "end_time": 29.352272727272727,
                "pitch": 27,
                "velocity": 80,
                "duration": 0.11590909090909207,
                "tempo": 120.0
            },
            {
                "start_time": 29.352272727272727,
                "end_time": 29.470454545454544,
                "pitch": 27,
                "velocity": 80,
                "duration": 0.11818181818181728,
                "tempo": 120.0
            },
            {
                "start_time": 29.470454545454544,
                "end_time": 29.58863636363636,
                "pitch": 27,
                "velocity": 80,
                "duration": 0.11818181818181728,
                "tempo": 120.0
            },
            {
                "start_time": 29.58863636363636,
                "end_time": 29.706818181818182,
                "pitch": 27,
                "velocity": 80,
                "duration": 0.11818181818182083,
                "tempo": 120.0
            },
            {
                "start_time": 29.709090909090907,
                "end_time": 29.836363636363636,
                "pitch": 27,
                "velocity": 80,
                "duration": 0.12727272727272876,
                "tempo": 120.0
            },
            {
                "start_time": 29.836363636363636,
                "end_time": 29.954545454545453,
                "pitch": 27,
                "velocity": 80,
                "duration": 0.11818181818181728,
                "tempo": 120.0
            },
            {
                "start_time": 29.954545454545453,
                "end_time": 30.068181818181817,
                "pitch": 27,
                "velocity": 80,
                "duration": 0.11363636363636331,
                "tempo": 120.0
            },
            {
                "start_time": 30.068181818181817,
                "end_time": 30.18409090909091,
                "pitch": 27,
                "velocity": 80,
                "duration": 0.11590909090909207,
                "tempo": 120.0
            },
            {
                "start_time": 30.18409090909091,
                "end_time": 30.299999999999997,
                "pitch": 27,
                "velocity": 80,
                "duration": 0.11590909090908852,
                "tempo": 120.0
            },
            {
                "start_time": 30.299999999999997,
                "end_time": 30.436363636363634,
                "pitch": 27,
                "velocity": 80,
                "duration": 0.1363636363636367,
                "tempo": 120.0
            },
            {
                "start_time": 30.436363636363634,
                "end_time": 30.552272727272726,
                "pitch": 27,
                "velocity": 80,
                "duration": 0.11590909090909207,
                "tempo": 120.0
            },
            {
                "start_time": 30.552272727272726,
                "end_time": 30.672727272727272,
                "pitch": 27,
                "velocity": 80,
                "duration": 0.12045454545454604,
                "tempo": 120.0
            },
            {
                "start_time": 30.672727272727272,
                "end_time": 30.79090909090909,
                "pitch": 27,
                "velocity": 80,
                "duration": 0.11818181818181728,
                "tempo": 120.0
            },
            {
                "start_time": 30.79090909090909,
                "end_time": 30.909090909090907,
                "pitch": 27,
                "velocity": 80,
                "duration": 0.11818181818181728,
                "tempo": 120.0
            },
            {
                "start_time": 30.909090909090907,
                "end_time": 31.047727272727272,
                "pitch": 30,
                "velocity": 80,
                "duration": 0.13863636363636545,
                "tempo": 120.0
            },
            {
                "start_time": 31.047727272727272,
                "end_time": 31.168181818181818,
                "pitch": 30,
                "velocity": 80,
                "duration": 0.12045454545454604,
                "tempo": 120.0
            },
            {
                "start_time": 31.168181818181818,
                "end_time": 31.284090909090907,
                "pitch": 28,
                "velocity": 64,
                "duration": 0.11590909090908852,
                "tempo": 120.0
            },
            {
                "start_time": 31.284090909090907,
                "end_time": 31.402272727272727,
                "pitch": 28,
                "velocity": 64,
                "duration": 0.11818181818182083,
                "tempo": 120.0
            },
            {
                "start_time": 31.404545454545453,
                "end_time": 31.520454545454545,
                "pitch": 40,
                "velocity": 64,
                "duration": 0.11590909090909207,
                "tempo": 120.0
            },
            {
                "start_time": 31.520454545454545,
                "end_time": 31.654545454545453,
                "pitch": 40,
                "velocity": 64,
                "duration": 0.13409090909090793,
                "tempo": 120.0
            },
            {
                "start_time": 31.65681818181818,
                "end_time": 31.770454545454545,
                "pitch": 28,
                "velocity": 64,
                "duration": 0.11363636363636331,
                "tempo": 120.0
            },
            {
                "start_time": 31.770454545454545,
                "end_time": 31.888636363636362,
                "pitch": 28,
                "velocity": 64,
                "duration": 0.11818181818181728,
                "tempo": 120.0
            },
            {
                "start_time": 31.888636363636362,
                "end_time": 32.00454545454545,
                "pitch": 40,
                "velocity": 64,
                "duration": 0.11590909090908852,
                "tempo": 120.0
            },
            {
                "start_time": 32.00454545454545,
                "end_time": 32.12272727272727,
                "pitch": 40,
                "velocity": 64,
                "duration": 0.11818181818181728,
                "tempo": 120.0
            },
            {
                "start_time": 32.12272727272727,
                "end_time": 32.25681818181818,
                "pitch": 28,
                "velocity": 64,
                "duration": 0.13409090909091503,
                "tempo": 120.0
            },
            {
                "start_time": 32.25681818181818,
                "end_time": 32.375,
                "pitch": 28,
                "velocity": 64,
                "duration": 0.11818181818181728,
                "tempo": 120.0
            },
            {
                "start_time": 32.375,
                "end_time": 32.49090909090909,
                "pitch": 40,
                "velocity": 64,
                "duration": 0.11590909090909207,
                "tempo": 120.0
            },
            {
                "start_time": 32.49090909090909,
                "end_time": 32.611363636363635,
                "pitch": 40,
                "velocity": 64,
                "duration": 0.12045454545454248,
                "tempo": 120.0
            },
            {
                "start_time": 32.611363636363635,
                "end_time": 32.72727272727273,
                "pitch": 28,
                "velocity": 64,
                "duration": 0.11590909090909207,
                "tempo": 120.0
            },
            {
                "start_time": 32.72727272727273,
                "end_time": 32.86363636363636,
                "pitch": 28,
                "velocity": 64,
                "duration": 0.13636363636363313,
                "tempo": 120.0
            },
            {
                "start_time": 32.86363636363636,
                "end_time": 32.97954545454545,
                "pitch": 40,
                "velocity": 64,
                "duration": 0.11590909090909207,
                "tempo": 120.0
            },
            {
                "start_time": 32.97954545454545,
                "end_time": 33.09772727272727,
                "pitch": 40,
                "velocity": 64,
                "duration": 0.11818181818181728,
                "tempo": 120.0
            },
            {
                "start_time": 33.09772727272727,
                "end_time": 33.21363636363636,
                "pitch": 25,
                "velocity": 64,
                "duration": 0.11590909090909207,
                "tempo": 120.0
            },
            {
                "start_time": 33.21363636363636,
                "end_time": 33.33181818181818,
                "pitch": 25,
                "velocity": 64,
                "duration": 0.11818181818181728,
                "tempo": 120.0
            },
            {
                "start_time": 33.33181818181818,
                "end_time": 33.465909090909086,
                "pitch": 37,
                "velocity": 64,
                "duration": 0.13409090909090793,
                "tempo": 120.0
            },
            {
                "start_time": 33.465909090909086,
                "end_time": 33.58181818181818,
                "pitch": 37,
                "velocity": 64,
                "duration": 0.11590909090909207,
                "tempo": 120.0
            },
            {
                "start_time": 33.58181818181818,
                "end_time": 33.69772727272727,
                "pitch": 25,
                "velocity": 64,
                "duration": 0.11590909090909207,
                "tempo": 120.0
            },
            {
                "start_time": 33.69772727272727,
                "end_time": 33.81590909090909,
                "pitch": 25,
                "velocity": 64,
                "duration": 0.11818181818181728,
                "tempo": 120.0
            },
            {
                "start_time": 33.81590909090909,
                "end_time": 33.93181818181818,
                "pitch": 37,
                "velocity": 64,
                "duration": 0.11590909090909207,
                "tempo": 120.0
            },
            {
                "start_time": 33.93181818181818,
                "end_time": 34.06590909090909,
                "pitch": 37,
                "velocity": 64,
                "duration": 0.13409090909090793,
                "tempo": 120.0
            },
            {
                "start_time": 34.06590909090909,
                "end_time": 34.184090909090905,
                "pitch": 25,
                "velocity": 64,
                "duration": 0.11818181818181728,
                "tempo": 120.0
            },
            {
                "start_time": 34.184090909090905,
                "end_time": 34.304545454545455,
                "pitch": 25,
                "velocity": 64,
                "duration": 0.12045454545454959,
                "tempo": 120.0
            },
            {
                "start_time": 34.30681818181818,
                "end_time": 34.42272727272727,
                "pitch": 37,
                "velocity": 64,
                "duration": 0.11590909090909207,
                "tempo": 120.0
            },
            {
                "start_time": 34.42272727272727,
                "end_time": 34.54545454545455,
                "pitch": 37,
                "velocity": 64,
                "duration": 0.1227272727272748,
                "tempo": 120.0
            },
            {
                "start_time": 34.54545454545455,
                "end_time": 34.675,
                "pitch": 25,
                "velocity": 64,
                "duration": 0.1295454545454504,
                "tempo": 120.0
            },
            {
                "start_time": 34.675,
                "end_time": 34.79090909090909,
                "pitch": 25,
                "velocity": 64,
                "duration": 0.11590909090909207,
                "tempo": 120.0
            },
            {
                "start_time": 34.79090909090909,
                "end_time": 34.904545454545456,
                "pitch": 37,
                "velocity": 64,
                "duration": 0.11363636363636687,
                "tempo": 120.0
            },
            {
                "start_time": 34.904545454545456,
                "end_time": 35.02045454545454,
                "pitch": 37,
                "velocity": 64,
                "duration": 0.11590909090908497,
                "tempo": 120.0
            },
            {
                "start_time": 35.02272727272727,
                "end_time": 35.138636363636365,
                "pitch": 30,
                "velocity": 64,
                "duration": 0.11590909090909207,
                "tempo": 120.0
            },
            {
                "start_time": 35.138636363636365,
                "end_time": 35.27272727272727,
                "pitch": 30,
                "velocity": 64,
                "duration": 0.13409090909090793,
                "tempo": 120.0
            },
            {
                "start_time": 35.27272727272727,
                "end_time": 35.39090909090909,
                "pitch": 42,
                "velocity": 64,
                "duration": 0.11818181818181728,
                "tempo": 120.0
            },
            {
                "start_time": 35.39090909090909,
                "end_time": 35.50909090909091,
                "pitch": 42,
                "velocity": 64,
                "duration": 0.11818181818181728,
                "tempo": 120.0
            },
            {
                "start_time": 35.50909090909091,
                "end_time": 35.625,
                "pitch": 30,
                "velocity": 64,
                "duration": 0.11590909090909207,
                "tempo": 120.0
            },
            {
                "start_time": 35.625,
                "end_time": 35.74090909090909,
                "pitch": 30,
                "velocity": 64,
                "duration": 0.11590909090909207,
                "tempo": 120.0
            },
            {
                "start_time": 35.74090909090909,
                "end_time": 35.875,
                "pitch": 42,
                "velocity": 64,
                "duration": 0.13409090909090793,
                "tempo": 120.0
            },
            {
                "start_time": 35.875,
                "end_time": 35.99318181818182,
                "pitch": 42,
                "velocity": 64,
                "duration": 0.11818181818181728,
                "tempo": 120.0
            },
            {
                "start_time": 35.99318181818182,
                "end_time": 36.111363636363635,
                "pitch": 30,
                "velocity": 64,
                "duration": 0.11818181818181728,
                "tempo": 120.0
            },
            {
                "start_time": 36.111363636363635,
                "end_time": 36.23181818181818,
                "pitch": 30,
                "velocity": 64,
                "duration": 0.12045454545454248,
                "tempo": 120.0
            },
            {
                "start_time": 36.23181818181818,
                "end_time": 36.35,
                "pitch": 42,
                "velocity": 64,
                "duration": 0.11818181818182438,
                "tempo": 120.0
            },
            {
                "start_time": 36.35,
                "end_time": 36.48863636363636,
                "pitch": 42,
                "velocity": 64,
                "duration": 0.13863636363635834,
                "tempo": 120.0
            },
            {
                "start_time": 36.48863636363636,
                "end_time": 36.60454545454545,
                "pitch": 30,
                "velocity": 64,
                "duration": 0.11590909090909207,
                "tempo": 120.0
            },
            {
                "start_time": 36.60454545454545,
                "end_time": 36.72272727272727,
                "pitch": 30,
                "velocity": 64,
                "duration": 0.11818181818181728,
                "tempo": 120.0
            },
            {
                "start_time": 36.72272727272727,
                "end_time": 36.83863636363636,
                "pitch": 42,
                "velocity": 64,
                "duration": 0.11590909090909207,
                "tempo": 120.0
            },
            {
                "start_time": 36.83863636363636,
                "end_time": 36.95681818181818,
                "pitch": 42,
                "velocity": 64,
                "duration": 0.11818181818181728,
                "tempo": 120.0
            },
            {
                "start_time": 36.95681818181818,
                "end_time": 37.086363636363636,
                "pitch": 27,
                "velocity": 64,
                "duration": 0.12954545454545752,
                "tempo": 120.0
            },
            {
                "start_time": 37.086363636363636,
                "end_time": 37.20227272727273,
                "pitch": 27,
                "velocity": 64,
                "duration": 0.11590909090909207,
                "tempo": 120.0
            },
            {
                "start_time": 37.20227272727273,
                "end_time": 37.31818181818181,
                "pitch": 39,
                "velocity": 64,
                "duration": 0.11590909090908497,
                "tempo": 120.0
            },
            {
                "start_time": 37.31818181818181,
                "end_time": 37.43181818181818,
                "pitch": 39,
                "velocity": 64,
                "duration": 0.11363636363636687,
                "tempo": 120.0
            },
            {
                "start_time": 37.43181818181818,
                "end_time": 37.54772727272727,
                "pitch": 27,
                "velocity": 64,
                "duration": 0.11590909090909207,
                "tempo": 120.0
            },
            {
                "start_time": 37.54772727272727,
                "end_time": 37.68181818181818,
                "pitch": 27,
                "velocity": 64,
                "duration": 0.13409090909090793,
                "tempo": 120.0
            },
            {
                "start_time": 37.68181818181818,
                "end_time": 37.79772727272727,
                "pitch": 39,
                "velocity": 64,
                "duration": 0.11590909090909207,
                "tempo": 120.0
            },
            {
                "start_time": 37.79772727272727,
                "end_time": 37.91590909090909,
                "pitch": 39,
                "velocity": 64,
                "duration": 0.11818181818181728,
                "tempo": 120.0
            },
            {
                "start_time": 37.91590909090909,
                "end_time": 38.03409090909091,
                "pitch": 27,
                "velocity": 64,
                "duration": 0.11818181818181728,
                "tempo": 120.0
            },
            {
                "start_time": 38.03409090909091,
                "end_time": 38.154545454545456,
                "pitch": 27,
                "velocity": 64,
                "duration": 0.12045454545454959,
                "tempo": 120.0
            },
            {
                "start_time": 38.154545454545456,
                "end_time": 38.29090909090909,
                "pitch": 39,
                "velocity": 64,
                "duration": 0.13636363636363313,
                "tempo": 120.0
            },
            {
                "start_time": 38.29090909090909,
                "end_time": 38.41136363636363,
                "pitch": 39,
                "velocity": 64,
                "duration": 0.12045454545454248,
                "tempo": 120.0
            },
            {
                "start_time": 38.41136363636363,
                "end_time": 38.527272727272724,
                "pitch": 27,
                "velocity": 64,
                "duration": 0.11590909090909207,
                "tempo": 120.0
            },
            {
                "start_time": 38.527272727272724,
                "end_time": 38.64545454545454,
                "pitch": 27,
                "velocity": 64,
                "duration": 0.11818181818181728,
                "tempo": 120.0
            },
            {
                "start_time": 38.64545454545454,
                "end_time": 38.76136363636363,
                "pitch": 39,
                "velocity": 64,
                "duration": 0.11590909090909207,
                "tempo": 120.0
            },
            {
                "start_time": 38.76136363636363,
                "end_time": 38.89772727272727,
                "pitch": 39,
                "velocity": 64,
                "duration": 0.13636363636364024,
                "tempo": 120.0
            },
            {
                "start_time": 38.89772727272727,
                "end_time": 39.01363636363636,
                "pitch": 28,
                "velocity": 64,
                "duration": 0.11590909090908497,
                "tempo": 120.0
            },
            {
                "start_time": 39.01363636363636,
                "end_time": 39.13181818181818,
                "pitch": 28,
                "velocity": 64,
                "duration": 0.11818181818182438,
                "tempo": 120.0
            },
            {
                "start_time": 39.13181818181818,
                "end_time": 39.25,
                "pitch": 40,
                "velocity": 64,
                "duration": 0.11818181818181728,
                "tempo": 120.0
            },
            {
                "start_time": 39.25,
                "end_time": 39.36590909090909,
                "pitch": 40,
                "velocity": 64,
                "duration": 0.11590909090909207,
                "tempo": 120.0
            },
            {
                "start_time": 39.36590909090909,
                "end_time": 39.49545454545454,
                "pitch": 28,
                "velocity": 64,
                "duration": 0.1295454545454504,
                "tempo": 120.0
            },
            {
                "start_time": 39.49545454545454,
                "end_time": 39.611363636363635,
                "pitch": 28,
                "velocity": 64,
                "duration": 0.11590909090909207,
                "tempo": 120.0
            },
            {
                "start_time": 39.611363636363635,
                "end_time": 39.72727272727273,
                "pitch": 40,
                "velocity": 64,
                "duration": 0.11590909090909207,
                "tempo": 120.0
            },
            {
                "start_time": 39.72727272727273,
                "end_time": 39.84318181818182,
                "pitch": 40,
                "velocity": 64,
                "duration": 0.11590909090909207,
                "tempo": 120.0
            },
            {
                "start_time": 39.84318181818182,
                "end_time": 39.961363636363636,
                "pitch": 28,
                "velocity": 64,
                "duration": 0.11818181818181728,
                "tempo": 120.0
            },
            {
                "start_time": 39.961363636363636,
                "end_time": 40.1,
                "pitch": 28,
                "velocity": 64,
                "duration": 0.13863636363636545,
                "tempo": 120.0
            },
            {
                "start_time": 40.1,
                "end_time": 40.21818181818182,
                "pitch": 40,
                "velocity": 64,
                "duration": 0.11818181818181728,
                "tempo": 120.0
            },
            {
                "start_time": 40.21818181818182,
                "end_time": 40.33863636363636,
                "pitch": 40,
                "velocity": 64,
                "duration": 0.12045454545454248,
                "tempo": 120.0
            },
            {
                "start_time": 40.33863636363636,
                "end_time": 40.45454545454545,
                "pitch": 28,
                "velocity": 64,
                "duration": 0.11590909090909207,
                "tempo": 120.0
            },
            {
                "start_time": 40.45454545454545,
                "end_time": 40.574999999999996,
                "pitch": 28,
                "velocity": 64,
                "duration": 0.12045454545454248,
                "tempo": 120.0
            },
            {
                "start_time": 40.574999999999996,
                "end_time": 40.70681818181818,
                "pitch": 40,
                "velocity": 64,
                "duration": 0.13181818181818272,
                "tempo": 120.0
            },
            {
                "start_time": 40.709090909090904,
                "end_time": 40.82727272727273,
                "pitch": 40,
                "velocity": 64,
                "duration": 0.11818181818182438,
                "tempo": 120.0
            },
            {
                "start_time": 40.82727272727273,
                "end_time": 40.94318181818181,
                "pitch": 25,
                "velocity": 64,
                "duration": 0.11590909090908497,
                "tempo": 120.0
            },
            {
                "start_time": 40.94318181818181,
                "end_time": 41.059090909090905,
                "pitch": 25,
                "velocity": 64,
                "duration": 0.11590909090909207,
                "tempo": 120.0
            },
            {
                "start_time": 41.06136363636364,
                "end_time": 41.17727272727272,
                "pitch": 37,
                "velocity": 64,
                "duration": 0.11590909090908497,
                "tempo": 120.0
            },
            {
                "start_time": 41.17727272727272,
                "end_time": 41.31136363636364,
                "pitch": 37,
                "velocity": 64,
                "duration": 0.13409090909091503,
                "tempo": 120.0
            },
            {
                "start_time": 41.31136363636364,
                "end_time": 41.42727272727272,
                "pitch": 25,
                "velocity": 64,
                "duration": 0.11590909090908497,
                "tempo": 120.0
            },
            {
                "start_time": 41.42727272727272,
                "end_time": 41.54772727272727,
                "pitch": 25,
                "velocity": 64,
                "duration": 0.12045454545454959,
                "tempo": 120.0
            },
            {
                "start_time": 41.55,
                "end_time": 41.668181818181814,
                "pitch": 37,
                "velocity": 64,
                "duration": 0.11818181818181728,
                "tempo": 120.0
            },
            {
                "start_time": 41.668181818181814,
                "end_time": 41.788636363636364,
                "pitch": 37,
                "velocity": 64,
                "duration": 0.12045454545454959,
                "tempo": 120.0
            },
            {
                "start_time": 41.788636363636364,
                "end_time": 41.92045454545455,
                "pitch": 25,
                "velocity": 64,
                "duration": 0.13181818181818272,
                "tempo": 120.0
            },
            {
                "start_time": 41.92045454545455,
                "end_time": 42.03636363636363,
                "pitch": 25,
                "velocity": 64,
                "duration": 0.11590909090908497,
                "tempo": 120.0
            },
            {
                "start_time": 42.03636363636363,
                "end_time": 42.14772727272727,
                "pitch": 37,
                "velocity": 64,
                "duration": 0.11136363636364166,
                "tempo": 120.0
            },
            {
                "start_time": 42.15,
                "end_time": 42.26590909090909,
                "pitch": 37,
                "velocity": 64,
                "duration": 0.11590909090909207,
                "tempo": 120.0
            },
            {
                "start_time": 42.26590909090909,
                "end_time": 42.38181818181818,
                "pitch": 25,
                "velocity": 64,
                "duration": 0.11590909090909207,
                "tempo": 120.0
            },
            {
                "start_time": 42.38181818181818,
                "end_time": 42.518181818181816,
                "pitch": 25,
                "velocity": 64,
                "duration": 0.13636363636363313,
                "tempo": 120.0
            },
            {
                "start_time": 42.518181818181816,
                "end_time": 42.63409090909091,
                "pitch": 37,
                "velocity": 64,
                "duration": 0.11590909090909207,
                "tempo": 120.0
            },
            {
                "start_time": 42.63409090909091,
                "end_time": 42.752272727272725,
                "pitch": 37,
                "velocity": 64,
                "duration": 0.11818181818181728,
                "tempo": 120.0
            },
            {
                "start_time": 42.75454545454545,
                "end_time": 42.86818181818182,
                "pitch": 30,
                "velocity": 64,
                "duration": 0.11363636363636687,
                "tempo": 120.0
            },
            {
                "start_time": 42.86818181818182,
                "end_time": 42.986363636363635,
                "pitch": 30,
                "velocity": 64,
                "duration": 0.11818181818181728,
                "tempo": 120.0
            },
            {
                "start_time": 42.986363636363635,
                "end_time": 43.12045454545454,
                "pitch": 42,
                "velocity": 64,
                "duration": 0.13409090909090793,
                "tempo": 120.0
            },
            {
                "start_time": 43.12045454545454,
                "end_time": 43.236363636363635,
                "pitch": 42,
                "velocity": 64,
                "duration": 0.11590909090909207,
                "tempo": 120.0
            },
            {
                "start_time": 43.236363636363635,
                "end_time": 43.35454545454545,
                "pitch": 30,
                "velocity": 64,
                "duration": 0.11818181818181728,
                "tempo": 120.0
            },
            {
                "start_time": 43.35454545454545,
                "end_time": 43.475,
                "pitch": 30,
                "velocity": 64,
                "duration": 0.12045454545454959,
                "tempo": 120.0
            },
            {
                "start_time": 43.475,
                "end_time": 43.595454545454544,
                "pitch": 42,
                "velocity": 64,
                "duration": 0.12045454545454248,
                "tempo": 120.0
            },
            {
                "start_time": 43.595454545454544,
                "end_time": 43.73181818181818,
                "pitch": 42,
                "velocity": 64,
                "duration": 0.13636363636363313,
                "tempo": 120.0
            },
            {
                "start_time": 43.73409090909091,
                "end_time": 43.84772727272727,
                "pitch": 30,
                "velocity": 64,
                "duration": 0.11363636363635976,
                "tempo": 120.0
            },
            {
                "start_time": 43.85,
                "end_time": 43.965909090909086,
                "pitch": 30,
                "velocity": 64,
                "duration": 0.11590909090908497,
                "tempo": 120.0
            },
            {
                "start_time": 43.965909090909086,
                "end_time": 44.08181818181818,
                "pitch": 42,
                "velocity": 64,
                "duration": 0.11590909090909207,
                "tempo": 120.0
            },
            {
                "start_time": 44.08181818181818,
                "end_time": 44.199999999999996,
                "pitch": 42,
                "velocity": 64,
                "duration": 0.11818181818181728,
                "tempo": 120.0
            },
            {
                "start_time": 44.199999999999996,
                "end_time": 44.32954545454545,
                "pitch": 30,
                "velocity": 64,
                "duration": 0.12954545454545752,
                "tempo": 120.0
            },
            {
                "start_time": 44.32954545454545,
                "end_time": 44.445454545454545,
                "pitch": 30,
                "velocity": 64,
                "duration": 0.11590909090909207,
                "tempo": 120.0
            },
            {
                "start_time": 44.44772727272727,
                "end_time": 44.56136363636364,
                "pitch": 42,
                "velocity": 64,
                "duration": 0.11363636363636687,
                "tempo": 120.0
            },
            {
                "start_time": 44.56136363636364,
                "end_time": 44.67727272727272,
                "pitch": 42,
                "velocity": 64,
                "duration": 0.11590909090908497,
                "tempo": 120.0
            },
            {
                "start_time": 44.67727272727272,
                "end_time": 44.793181818181814,
                "pitch": 27,
                "velocity": 64,
                "duration": 0.11590909090909207,
                "tempo": 120.0
            },
            {
                "start_time": 44.793181818181814,
                "end_time": 44.929545454545455,
                "pitch": 27,
                "velocity": 64,
                "duration": 0.13636363636364024,
                "tempo": 120.0
            },
            {
                "start_time": 44.929545454545455,
                "end_time": 45.04545454545455,
                "pitch": 39,
                "velocity": 64,
                "duration": 0.11590909090909207,
                "tempo": 120.0
            },
            {
                "start_time": 45.04772727272727,
                "end_time": 45.163636363636364,
                "pitch": 39,
                "velocity": 64,
                "duration": 0.11590909090909207,
                "tempo": 120.0
            },
            {
                "start_time": 45.163636363636364,
                "end_time": 45.28181818181818,
                "pitch": 27,
                "velocity": 64,
                "duration": 0.11818181818181728,
                "tempo": 120.0
            },
            {
                "start_time": 45.28181818181818,
                "end_time": 45.402272727272724,
                "pitch": 27,
                "velocity": 64,
                "duration": 0.12045454545454248,
                "tempo": 120.0
            },
            {
                "start_time": 45.402272727272724,
                "end_time": 45.538636363636364,
                "pitch": 39,
                "velocity": 64,
                "duration": 0.13636363636364024,
                "tempo": 120.0
            },
            {
                "start_time": 45.538636363636364,
                "end_time": 45.65909090909091,
                "pitch": 39,
                "velocity": 64,
                "duration": 0.12045454545454248,
                "tempo": 120.0
            },
            {
                "start_time": 45.65909090909091,
                "end_time": 45.775,
                "pitch": 27,
                "velocity": 64,
                "duration": 0.11590909090909207,
                "tempo": 120.0
            },
            {
                "start_time": 45.777272727272724,
                "end_time": 45.893181818181816,
                "pitch": 27,
                "velocity": 64,
                "duration": 0.11590909090909207,
                "tempo": 120.0
            },
            {
                "start_time": 45.893181818181816,
                "end_time": 46.00909090909091,
                "pitch": 39,
                "velocity": 64,
                "duration": 0.11590909090909207,
                "tempo": 120.0
            },
            {
                "start_time": 46.00909090909091,
                "end_time": 46.143181818181816,
                "pitch": 39,
                "velocity": 64,
                "duration": 0.13409090909090793,
                "tempo": 120.0
            },
            {
                "start_time": 46.14545454545454,
                "end_time": 46.25909090909091,
                "pitch": 27,
                "velocity": 64,
                "duration": 0.11363636363636687,
                "tempo": 120.0
            },
            {
                "start_time": 46.25909090909091,
                "end_time": 46.377272727272725,
                "pitch": 27,
                "velocity": 64,
                "duration": 0.11818181818181728,
                "tempo": 120.0
            },
            {
                "start_time": 46.377272727272725,
                "end_time": 46.49318181818182,
                "pitch": 39,
                "velocity": 64,
                "duration": 0.11590909090909207,
                "tempo": 120.0
            },
            {
                "start_time": 46.49318181818182,
                "end_time": 46.611363636363635,
                "pitch": 39,
                "velocity": 64,
                "duration": 0.11818181818181728,
                "tempo": 120.0
            },
            {
                "start_time": 46.611363636363635,
                "end_time": 46.74090909090909,
                "pitch": 29,
                "velocity": 64,
                "duration": 0.12954545454545752,
                "tempo": 120.0
            },
            {
                "start_time": 46.74090909090909,
                "end_time": 46.85681818181818,
                "pitch": 29,
                "velocity": 64,
                "duration": 0.11590909090908497,
                "tempo": 120.0
            },
            {
                "start_time": 46.85681818181818,
                "end_time": 46.97272727272727,
                "pitch": 41,
                "velocity": 64,
                "duration": 0.11590909090909207,
                "tempo": 120.0
            },
            {
                "start_time": 46.97272727272727,
                "end_time": 47.08863636363636,
                "pitch": 41,
                "velocity": 64,
                "duration": 0.11590909090909207,
                "tempo": 120.0
            },
            {
                "start_time": 47.08863636363636,
                "end_time": 47.20227272727273,
                "pitch": 29,
                "velocity": 64,
                "duration": 0.11363636363636687,
                "tempo": 120.0
            },
            {
                "start_time": 47.20227272727273,
                "end_time": 47.336363636363636,
                "pitch": 29,
                "velocity": 64,
                "duration": 0.13409090909090793,
                "tempo": 120.0
            },
            {
                "start_time": 47.336363636363636,
                "end_time": 47.45454545454545,
                "pitch": 41,
                "velocity": 64,
                "duration": 0.11818181818181728,
                "tempo": 120.0
            },
            {
                "start_time": 47.45454545454545,
                "end_time": 47.570454545454545,
                "pitch": 41,
                "velocity": 64,
                "duration": 0.11590909090909207,
                "tempo": 120.0
            },
            {
                "start_time": 47.570454545454545,
                "end_time": 47.69090909090909,
                "pitch": 29,
                "velocity": 64,
                "duration": 0.12045454545454248,
                "tempo": 120.0
            },
            {
                "start_time": 47.69090909090909,
                "end_time": 47.81136363636364,
                "pitch": 29,
                "velocity": 64,
                "duration": 0.12045454545454959,
                "tempo": 120.0
            },
            {
                "start_time": 47.81136363636364,
                "end_time": 47.945454545454545,
                "pitch": 41,
                "velocity": 64,
                "duration": 0.13409090909090793,
                "tempo": 120.0
            },
            {
                "start_time": 47.94772727272727,
                "end_time": 48.06818181818181,
                "pitch": 41,
                "velocity": 64,
                "duration": 0.12045454545454248,
                "tempo": 120.0
            },
            {
                "start_time": 48.06818181818181,
                "end_time": 48.18181818181818,
                "pitch": 29,
                "velocity": 64,
                "duration": 0.11363636363636687,
                "tempo": 120.0
            },
            {
                "start_time": 48.18181818181818,
                "end_time": 48.3,
                "pitch": 29,
                "velocity": 64,
                "duration": 0.11818181818181728,
                "tempo": 120.0
            },
            {
                "start_time": 48.3,
                "end_time": 48.41590909090909,
                "pitch": 41,
                "velocity": 64,
                "duration": 0.11590909090909207,
                "tempo": 120.0
            },
            {
                "start_time": 48.41590909090909,
                "end_time": 48.55,
                "pitch": 41,
                "velocity": 64,
                "duration": 0.13409090909090793,
                "tempo": 120.0
            },
            {
                "start_time": 48.55227272727272,
                "end_time": 48.67045454545454,
                "pitch": 26,
                "velocity": 64,
                "duration": 0.11818181818181728,
                "tempo": 120.0
            },
            {
                "start_time": 48.67045454545454,
                "end_time": 48.79090909090909,
                "pitch": 26,
                "velocity": 64,
                "duration": 0.12045454545454959,
                "tempo": 120.0
            },
            {
                "start_time": 48.79090909090909,
                "end_time": 48.90909090909091,
                "pitch": 38,
                "velocity": 64,
                "duration": 0.11818181818181728,
                "tempo": 120.0
            },
            {
                "start_time": 48.91136363636363,
                "end_time": 49.02954545454545,
                "pitch": 38,
                "velocity": 64,
                "duration": 0.11818181818181728,
                "tempo": 120.0
            },
            {
                "start_time": 49.02954545454545,
                "end_time": 49.15681818181818,
                "pitch": 26,
                "velocity": 64,
                "duration": 0.1272727272727323,
                "tempo": 120.0
            },
            {
                "start_time": 49.15681818181818,
                "end_time": 49.268181818181816,
                "pitch": 26,
                "velocity": 64,
                "duration": 0.11136363636363455,
                "tempo": 120.0
            },
            {
                "start_time": 49.27045454545454,
                "end_time": 49.38181818181818,
                "pitch": 38,
                "velocity": 64,
                "duration": 0.11136363636364166,
                "tempo": 120.0
            },
            {
                "start_time": 49.38181818181818,
                "end_time": 49.49545454545454,
                "pitch": 38,
                "velocity": 64,
                "duration": 0.11363636363635976,
                "tempo": 120.0
            },
            {
                "start_time": 49.49545454545454,
                "end_time": 49.61363636363636,
                "pitch": 26,
                "velocity": 64,
                "duration": 0.11818181818181728,
                "tempo": 120.0
            },
            {
                "start_time": 49.61363636363636,
                "end_time": 49.752272727272725,
                "pitch": 26,
                "velocity": 64,
                "duration": 0.13863636363636545,
                "tempo": 120.0
            },
            {
                "start_time": 49.752272727272725,
                "end_time": 49.86818181818182,
                "pitch": 38,
                "velocity": 64,
                "duration": 0.11590909090909207,
                "tempo": 120.0
            },
            {
                "start_time": 49.86818181818182,
                "end_time": 49.990909090909085,
                "pitch": 38,
                "velocity": 64,
                "duration": 0.12272727272726769,
                "tempo": 120.0
            },
            {
                "start_time": 49.990909090909085,
                "end_time": 50.10454545454545,
                "pitch": 26,
                "velocity": 64,
                "duration": 0.11363636363636687,
                "tempo": 120.0
            },
            {
                "start_time": 50.10454545454545,
                "end_time": 50.224999999999994,
                "pitch": 26,
                "velocity": 64,
                "duration": 0.12045454545454248,
                "tempo": 120.0
            },
            {
                "start_time": 50.224999999999994,
                "end_time": 50.35681818181818,
                "pitch": 38,
                "velocity": 64,
                "duration": 0.13181818181818272,
                "tempo": 120.0
            },
            {
                "start_time": 50.35681818181818,
                "end_time": 50.474999999999994,
                "pitch": 38,
                "velocity": 64,
                "duration": 0.11818181818181728,
                "tempo": 120.0
            },
            {
                "start_time": 50.474999999999994,
                "end_time": 50.590909090909086,
                "pitch": 31,
                "velocity": 64,
                "duration": 0.11590909090909207,
                "tempo": 120.0
            },
            {
                "start_time": 50.590909090909086,
                "end_time": 50.70681818181818,
                "pitch": 31,
                "velocity": 64,
                "duration": 0.11590909090909207,
                "tempo": 120.0
            },
            {
                "start_time": 50.709090909090904,
                "end_time": 50.824999999999996,
                "pitch": 43,
                "velocity": 64,
                "duration": 0.11590909090909207,
                "tempo": 120.0
            },
            {
                "start_time": 50.824999999999996,
                "end_time": 50.959090909090904,
                "pitch": 43,
                "velocity": 64,
                "duration": 0.13409090909090793,
                "tempo": 120.0
            },
            {
                "start_time": 50.959090909090904,
                "end_time": 51.074999999999996,
                "pitch": 31,
                "velocity": 64,
                "duration": 0.11590909090909207,
                "tempo": 120.0
            },
            {
                "start_time": 51.07727272727273,
                "end_time": 51.195454545454545,
                "pitch": 31,
                "velocity": 64,
                "duration": 0.11818181818181728,
                "tempo": 120.0
            },
            {
                "start_time": 51.19772727272727,
                "end_time": 51.31590909090909,
                "pitch": 43,
                "velocity": 64,
                "duration": 0.11818181818181728,
                "tempo": 120.0
            },
            {
                "start_time": 51.31590909090909,
                "end_time": 51.43636363636364,
                "pitch": 43,
                "velocity": 64,
                "duration": 0.12045454545454959,
                "tempo": 120.0
            },
            {
                "start_time": 51.43636363636364,
                "end_time": 51.56818181818181,
                "pitch": 31,
                "velocity": 64,
                "duration": 0.13181818181817562,
                "tempo": 120.0
            },
            {
                "start_time": 51.56818181818181,
                "end_time": 51.684090909090905,
                "pitch": 31,
                "velocity": 64,
                "duration": 0.11590909090909207,
                "tempo": 120.0
            },
            {
                "start_time": 51.684090909090905,
                "end_time": 51.79772727272727,
                "pitch": 43,
                "velocity": 64,
                "duration": 0.11363636363636687,
                "tempo": 120.0
            },
            {
                "start_time": 51.79772727272727,
                "end_time": 51.913636363636364,
                "pitch": 43,
                "velocity": 64,
                "duration": 0.11590909090909207,
                "tempo": 120.0
            },
            {
                "start_time": 51.913636363636364,
                "end_time": 52.02954545454545,
                "pitch": 31,
                "velocity": 64,
                "duration": 0.11590909090908497,
                "tempo": 120.0
            },
            {
                "start_time": 52.02954545454545,
                "end_time": 52.16590909090909,
                "pitch": 31,
                "velocity": 64,
                "duration": 0.13636363636364024,
                "tempo": 120.0
            },
            {
                "start_time": 52.16590909090909,
                "end_time": 52.28181818181818,
                "pitch": 43,
                "velocity": 64,
                "duration": 0.11590909090909207,
                "tempo": 120.0
            },
            {
                "start_time": 52.28181818181818,
                "end_time": 52.402272727272724,
                "pitch": 43,
                "velocity": 64,
                "duration": 0.12045454545454248,
                "tempo": 120.0
            },
            {
                "start_time": 52.402272727272724,
                "end_time": 52.51590909090909,
                "pitch": 28,
                "velocity": 64,
                "duration": 0.11363636363636687,
                "tempo": 120.0
            },
            {
                "start_time": 52.518181818181816,
                "end_time": 52.63409090909091,
                "pitch": 28,
                "velocity": 64,
                "duration": 0.11590909090909207,
                "tempo": 120.0
            },
            {
                "start_time": 52.63409090909091,
                "end_time": 52.768181818181816,
                "pitch": 40,
                "velocity": 64,
                "duration": 0.13409090909090793,
                "tempo": 120.0
            },
            {
                "start_time": 52.768181818181816,
                "end_time": 52.88409090909091,
                "pitch": 40,
                "velocity": 64,
                "duration": 0.11590909090909207,
                "tempo": 120.0
            },
            {
                "start_time": 52.88636363636363,
                "end_time": 53.002272727272725,
                "pitch": 28,
                "velocity": 64,
                "duration": 0.11590909090909207,
                "tempo": 120.0
            },
            {
                "start_time": 53.002272727272725,
                "end_time": 53.12272727272727,
                "pitch": 28,
                "velocity": 64,
                "duration": 0.12045454545454248,
                "tempo": 120.0
            },
            {
                "start_time": 53.12272727272727,
                "end_time": 53.24318181818182,
                "pitch": 40,
                "velocity": 64,
                "duration": 0.12045454545454959,
                "tempo": 120.0
            },
            {
                "start_time": 53.24318181818182,
                "end_time": 53.37954545454545,
                "pitch": 40,
                "velocity": 64,
                "duration": 0.13636363636363313,
                "tempo": 120.0
            },
            {
                "start_time": 53.37954545454545,
                "end_time": 53.49772727272727,
                "pitch": 28,
                "velocity": 64,
                "duration": 0.11818181818181728,
                "tempo": 120.0
            },
            {
                "start_time": 53.49772727272727,
                "end_time": 53.61363636363636,
                "pitch": 28,
                "velocity": 64,
                "duration": 0.11590909090909207,
                "tempo": 120.0
            },
            {
                "start_time": 53.61363636363636,
                "end_time": 53.72954545454545,
                "pitch": 40,
                "velocity": 64,
                "duration": 0.11590909090909207,
                "tempo": 120.0
            },
            {
                "start_time": 53.72954545454545,
                "end_time": 53.84772727272727,
                "pitch": 40,
                "velocity": 64,
                "duration": 0.11818181818181728,
                "tempo": 120.0
            },
            {
                "start_time": 53.84772727272727,
                "end_time": 53.97954545454545,
                "pitch": 28,
                "velocity": 64,
                "duration": 0.13181818181818272,
                "tempo": 120.0
            },
            {
                "start_time": 53.97954545454545,
                "end_time": 54.09318181818182,
                "pitch": 28,
                "velocity": 64,
                "duration": 0.11363636363636687,
                "tempo": 120.0
            },
            {
                "start_time": 54.09318181818182,
                "end_time": 54.209090909090904,
                "pitch": 40,
                "velocity": 64,
                "duration": 0.11590909090908497,
                "tempo": 120.0
            },
            {
                "start_time": 54.209090909090904,
                "end_time": 54.324999999999996,
                "pitch": 40,
                "velocity": 64,
                "duration": 0.11590909090909207,
                "tempo": 120.0
            },
            {
                "start_time": 54.324999999999996,
                "end_time": 54.44090909090909,
                "pitch": 29,
                "velocity": 64,
                "duration": 0.11590909090909207,
                "tempo": 120.0
            },
            {
                "start_time": 54.44090909090909,
                "end_time": 54.574999999999996,
                "pitch": 29,
                "velocity": 64,
                "duration": 0.13409090909090793,
                "tempo": 120.0
            },
            {
                "start_time": 54.574999999999996,
                "end_time": 54.69090909090909,
                "pitch": 41,
                "velocity": 64,
                "duration": 0.11590909090909207,
                "tempo": 120.0
            },
            {
                "start_time": 54.69090909090909,
                "end_time": 54.809090909090905,
                "pitch": 41,
                "velocity": 64,
                "duration": 0.11818181818181728,
                "tempo": 120.0
            },
            {
                "start_time": 54.809090909090905,
                "end_time": 54.925,
                "pitch": 29,
                "velocity": 64,
                "duration": 0.11590909090909207,
                "tempo": 120.0
            },
            {
                "start_time": 54.92727272727272,
                "end_time": 55.04545454545454,
                "pitch": 29,
                "velocity": 64,
                "duration": 0.11818181818181728,
                "tempo": 120.0
            },
            {
                "start_time": 55.04772727272727,
                "end_time": 55.184090909090905,
                "pitch": 41,
                "velocity": 64,
                "duration": 0.13636363636363313,
                "tempo": 120.0
            },
            {
                "start_time": 55.184090909090905,
                "end_time": 55.304545454545455,
                "pitch": 41,
                "velocity": 64,
                "duration": 0.12045454545454959,
                "tempo": 120.0
            },
            {
                "start_time": 55.304545454545455,
                "end_time": 55.42045454545454,
                "pitch": 29,
                "velocity": 64,
                "duration": 0.11590909090908497,
                "tempo": 120.0
            },
            {
                "start_time": 55.42045454545454,
                "end_time": 55.538636363636364,
                "pitch": 29,
                "velocity": 64,
                "duration": 0.11818181818182438,
                "tempo": 120.0
            },
            {
                "start_time": 55.538636363636364,
                "end_time": 55.652272727272724,
                "pitch": 41,
                "velocity": 64,
                "duration": 0.11363636363635976,
                "tempo": 120.0
            },
            {
                "start_time": 55.65454545454545,
                "end_time": 55.788636363636364,
                "pitch": 41,
                "velocity": 64,
                "duration": 0.13409090909091503,
                "tempo": 120.0
            },
            {
                "start_time": 55.788636363636364,
                "end_time": 55.90454545454545,
                "pitch": 29,
                "velocity": 64,
                "duration": 0.11590909090908497,
                "tempo": 120.0
            },
            {
                "start_time": 55.90681818181818,
                "end_time": 56.027272727272724,
                "pitch": 29,
                "velocity": 64,
                "duration": 0.12045454545454248,
                "tempo": 120.0
            },
            {
                "start_time": 56.027272727272724,
                "end_time": 56.14545454545454,
                "pitch": 41,
                "velocity": 64,
                "duration": 0.11818181818181728,
                "tempo": 120.0
            },
            {
                "start_time": 56.14545454545454,
                "end_time": 56.26590909090909,
                "pitch": 41,
                "velocity": 64,
                "duration": 0.12045454545454959,
                "tempo": 120.0
            },
            {
                "start_time": 56.26590909090909,
                "end_time": 56.393181818181816,
                "pitch": 26,
                "velocity": 64,
                "duration": 0.1272727272727252,
                "tempo": 120.0
            },
            {
                "start_time": 56.393181818181816,
                "end_time": 56.506818181818176,
                "pitch": 26,
                "velocity": 64,
                "duration": 0.11363636363635976,
                "tempo": 120.0
            },
            {
                "start_time": 56.506818181818176,
                "end_time": 56.61818181818182,
                "pitch": 38,
                "velocity": 64,
                "duration": 0.11136363636364166,
                "tempo": 120.0
            },
            {
                "start_time": 56.62045454545454,
                "end_time": 56.73181818181818,
                "pitch": 38,
                "velocity": 64,
                "duration": 0.11136363636363455,
                "tempo": 120.0
            },
            {
                "start_time": 56.73181818181818,
                "end_time": 56.849999999999994,
                "pitch": 26,
                "velocity": 64,
                "duration": 0.11818181818181728,
                "tempo": 120.0
            },
            {
                "start_time": 56.849999999999994,
                "end_time": 56.986363636363635,
                "pitch": 26,
                "velocity": 64,
                "duration": 0.13636363636364024,
                "tempo": 120.0
            },
            {
                "start_time": 56.986363636363635,
                "end_time": 57.10681818181818,
                "pitch": 38,
                "velocity": 64,
                "duration": 0.12045454545454248,
                "tempo": 120.0
            },
            {
                "start_time": 57.10681818181818,
                "end_time": 57.22727272727273,
                "pitch": 38,
                "velocity": 64,
                "duration": 0.12045454545454959,
                "tempo": 120.0
            },
            {
                "start_time": 57.22727272727273,
                "end_time": 57.34318181818182,
                "pitch": 26,
                "velocity": 64,
                "duration": 0.11590909090909207,
                "tempo": 120.0
            },
            {
                "start_time": 57.34318181818182,
                "end_time": 57.46363636363636,
                "pitch": 26,
                "velocity": 64,
                "duration": 0.12045454545454248,
                "tempo": 120.0
            },
            {
                "start_time": 57.46363636363636,
                "end_time": 57.595454545454544,
                "pitch": 38,
                "velocity": 64,
                "duration": 0.13181818181818272,
                "tempo": 120.0
            },
            {
                "start_time": 57.595454545454544,
                "end_time": 57.715909090909086,
                "pitch": 38,
                "velocity": 64,
                "duration": 0.12045454545454248,
                "tempo": 120.0
            },
            {
                "start_time": 57.715909090909086,
                "end_time": 57.82954545454545,
                "pitch": 26,
                "velocity": 64,
                "duration": 0.11363636363636687,
                "tempo": 120.0
            },
            {
                "start_time": 57.82954545454545,
                "end_time": 57.94772727272727,
                "pitch": 26,
                "velocity": 64,
                "duration": 0.11818181818181728,
                "tempo": 120.0
            },
            {
                "start_time": 57.94772727272727,
                "end_time": 58.06363636363636,
                "pitch": 38,
                "velocity": 64,
                "duration": 0.11590909090909207,
                "tempo": 120.0
            },
            {
                "start_time": 58.06363636363636,
                "end_time": 58.199999999999996,
                "pitch": 38,
                "velocity": 64,
                "duration": 0.13636363636363313,
                "tempo": 120.0
            },
            {
                "start_time": 58.199999999999996,
                "end_time": 58.31818181818181,
                "pitch": 31,
                "velocity": 64,
                "duration": 0.11818181818181728,
                "tempo": 120.0
            },
            {
                "start_time": 58.31818181818181,
                "end_time": 58.43863636363636,
                "pitch": 31,
                "velocity": 64,
                "duration": 0.12045454545454959,
                "tempo": 120.0
            },
            {
                "start_time": 58.43863636363636,
                "end_time": 58.55681818181818,
                "pitch": 43,
                "velocity": 64,
                "duration": 0.11818181818181728,
                "tempo": 120.0
            },
            {
                "start_time": 58.559090909090905,
                "end_time": 58.67727272727272,
                "pitch": 43,
                "velocity": 64,
                "duration": 0.11818181818181728,
                "tempo": 120.0
            },
            {
                "start_time": 58.67727272727272,
                "end_time": 58.80681818181818,
                "pitch": 31,
                "velocity": 64,
                "duration": 0.12954545454545752,
                "tempo": 120.0
            },
            {
                "start_time": 58.80681818181818,
                "end_time": 58.92272727272727,
                "pitch": 31,
                "velocity": 64,
                "duration": 0.11590909090909207,
                "tempo": 120.0
            },
            {
                "start_time": 58.92272727272727,
                "end_time": 59.038636363636364,
                "pitch": 43,
                "velocity": 64,
                "duration": 0.11590909090909207,
                "tempo": 120.0
            },
            {
                "start_time": 59.038636363636364,
                "end_time": 59.15454545454545,
                "pitch": 43,
                "velocity": 64,
                "duration": 0.11590909090908497,
                "tempo": 120.0
            },
            {
                "start_time": 59.15454545454545,
                "end_time": 59.27045454545454,
                "pitch": 31,
                "velocity": 64,
                "duration": 0.11590909090909207,
                "tempo": 120.0
            },
            {
                "start_time": 59.27045454545454,
                "end_time": 59.40681818181818,
                "pitch": 31,
                "velocity": 64,
                "duration": 0.13636363636364024,
                "tempo": 120.0
            },
            {
                "start_time": 59.40681818181818,
                "end_time": 59.52272727272727,
                "pitch": 43,
                "velocity": 64,
                "duration": 0.11590909090909207,
                "tempo": 120.0
            },
            {
                "start_time": 59.52272727272727,
                "end_time": 59.64090909090909,
                "pitch": 43,
                "velocity": 64,
                "duration": 0.11818181818181728,
                "tempo": 120.0
            },
            {
                "start_time": 59.643181818181816,
                "end_time": 59.756818181818176,
                "pitch": 31,
                "velocity": 64,
                "duration": 0.11363636363635976,
                "tempo": 120.0
            },
            {
                "start_time": 59.756818181818176,
                "end_time": 59.875,
                "pitch": 31,
                "velocity": 64,
                "duration": 0.11818181818182438,
                "tempo": 120.0
            },
            {
                "start_time": 59.875,
                "end_time": 60.006818181818176,
                "pitch": 43,
                "velocity": 64,
                "duration": 0.13181818181817562,
                "tempo": 120.0
            },
            {
                "start_time": 60.00909090909091,
                "end_time": 60.125,
                "pitch": 43,
                "velocity": 64,
                "duration": 0.11590909090909207,
                "tempo": 120.0
            },
            {
                "start_time": 60.125,
                "end_time": 60.24318181818182,
                "pitch": 28,
                "velocity": 64,
                "duration": 0.11818181818181728,
                "tempo": 120.0
            },
            {
                "start_time": 60.24545454545454,
                "end_time": 60.365909090909085,
                "pitch": 28,
                "velocity": 64,
                "duration": 0.12045454545454248,
                "tempo": 120.0
            },
            {
                "start_time": 60.365909090909085,
                "end_time": 60.48409090909091,
                "pitch": 40,
                "velocity": 64,
                "duration": 0.11818181818182438,
                "tempo": 120.0
            },
            {
                "start_time": 60.48409090909091,
                "end_time": 60.62045454545454,
                "pitch": 40,
                "velocity": 64,
                "duration": 0.13636363636363313,
                "tempo": 120.0
            },
            {
                "start_time": 60.62272727272727,
                "end_time": 60.736363636363635,
                "pitch": 28,
                "velocity": 64,
                "duration": 0.11363636363636687,
                "tempo": 120.0
            },
            {
                "start_time": 60.736363636363635,
                "end_time": 60.85454545454545,
                "pitch": 28,
                "velocity": 64,
                "duration": 0.11818181818181728,
                "tempo": 120.0
            },
            {
                "start_time": 60.85454545454545,
                "end_time": 60.970454545454544,
                "pitch": 40,
                "velocity": 64,
                "duration": 0.11590909090909207,
                "tempo": 120.0
            },
            {
                "start_time": 60.970454545454544,
                "end_time": 61.08863636363636,
                "pitch": 40,
                "velocity": 64,
                "duration": 0.11818181818181728,
                "tempo": 120.0
            },
            {
                "start_time": 61.08863636363636,
                "end_time": 61.21818181818182,
                "pitch": 28,
                "velocity": 64,
                "duration": 0.12954545454545752,
                "tempo": 120.0
            },
            {
                "start_time": 61.21818181818182,
                "end_time": 61.334090909090904,
                "pitch": 28,
                "velocity": 64,
                "duration": 0.11590909090908497,
                "tempo": 120.0
            },
            {
                "start_time": 61.334090909090904,
                "end_time": 61.44772727272727,
                "pitch": 40,
                "velocity": 64,
                "duration": 0.11363636363636687,
                "tempo": 120.0
            },
            {
                "start_time": 61.44772727272727,
                "end_time": 61.56590909090909,
                "pitch": 40,
                "velocity": 64,
                "duration": 0.11818181818181728,
                "tempo": 120.0
            },
            {
                "start_time": 61.56590909090909,
                "end_time": 61.68181818181818,
                "pitch": 28,
                "velocity": 64,
                "duration": 0.11590909090909207,
                "tempo": 120.0
            },
            {
                "start_time": 61.68181818181818,
                "end_time": 61.81590909090909,
                "pitch": 28,
                "velocity": 64,
                "duration": 0.13409090909090793,
                "tempo": 120.0
            },
            {
                "start_time": 61.81590909090909,
                "end_time": 61.934090909090905,
                "pitch": 40,
                "velocity": 64,
                "duration": 0.11818181818181728,
                "tempo": 120.0
            },
            {
                "start_time": 61.934090909090905,
                "end_time": 62.054545454545455,
                "pitch": 40,
                "velocity": 64,
                "duration": 0.12045454545454959,
                "tempo": 120.0
            },
            {
                "start_time": 62.054545454545455,
                "end_time": 62.17045454545454,
                "pitch": 33,
                "velocity": 80,
                "duration": 0.11590909090908497,
                "tempo": 120.0
            },
            {
                "start_time": 62.17045454545454,
                "end_time": 62.29090909090909,
                "pitch": 33,
                "velocity": 80,
                "duration": 0.12045454545454959,
                "tempo": 120.0
            },
            {
                "start_time": 62.29090909090909,
                "end_time": 62.42727272727272,
                "pitch": 33,
                "velocity": 80,
                "duration": 0.13636363636363313,
                "tempo": 120.0
            },
            {
                "start_time": 62.42727272727272,
                "end_time": 62.54772727272727,
                "pitch": 33,
                "velocity": 80,
                "duration": 0.12045454545454959,
                "tempo": 120.0
            },
            {
                "start_time": 62.54772727272727,
                "end_time": 62.663636363636364,
                "pitch": 33,
                "velocity": 80,
                "duration": 0.11590909090909207,
                "tempo": 120.0
            },
            {
                "start_time": 62.663636363636364,
                "end_time": 62.78181818181818,
                "pitch": 33,
                "velocity": 80,
                "duration": 0.11818181818181728,
                "tempo": 120.0
            },
            {
                "start_time": 62.78181818181818,
                "end_time": 62.897727272727266,
                "pitch": 33,
                "velocity": 80,
                "duration": 0.11590909090908497,
                "tempo": 120.0
            },
            {
                "start_time": 62.897727272727266,
                "end_time": 63.03181818181818,
                "pitch": 33,
                "velocity": 80,
                "duration": 0.13409090909091503,
                "tempo": 120.0
            },
            {
                "start_time": 63.03181818181818,
                "end_time": 63.147727272727266,
                "pitch": 33,
                "velocity": 80,
                "duration": 0.11590909090908497,
                "tempo": 120.0
            },
            {
                "start_time": 63.147727272727266,
                "end_time": 63.26590909090909,
                "pitch": 33,
                "velocity": 80,
                "duration": 0.11818181818182438,
                "tempo": 120.0
            },
            {
                "start_time": 63.26590909090909,
                "end_time": 63.381818181818176,
                "pitch": 33,
                "velocity": 80,
                "duration": 0.11590909090908497,
                "tempo": 120.0
            },
            {
                "start_time": 63.381818181818176,
                "end_time": 63.5,
                "pitch": 33,
                "velocity": 80,
                "duration": 0.11818181818182438,
                "tempo": 120.0
            },
            {
                "start_time": 63.5,
                "end_time": 63.62954545454545,
                "pitch": 33,
                "velocity": 80,
                "duration": 0.1295454545454504,
                "tempo": 120.0
            },
            {
                "start_time": 63.62954545454545,
                "end_time": 63.74545454545454,
                "pitch": 33,
                "velocity": 80,
                "duration": 0.11590909090909207,
                "tempo": 120.0
            },
            {
                "start_time": 63.74545454545454,
                "end_time": 63.85909090909091,
                "pitch": 31,
                "velocity": 80,
                "duration": 0.11363636363636687,
                "tempo": 120.0
            },
            {
                "start_time": 63.85909090909091,
                "end_time": 63.974999999999994,
                "pitch": 31,
                "velocity": 80,
                "duration": 0.11590909090908497,
                "tempo": 120.0
            },
            {
                "start_time": 63.97727272727273,
                "end_time": 64.09318181818182,
                "pitch": 29,
                "velocity": 80,
                "duration": 0.11590909090909207,
                "tempo": 120.0
            },
            {
                "start_time": 64.09318181818182,
                "end_time": 64.23181818181818,
                "pitch": 29,
                "velocity": 80,
                "duration": 0.13863636363636545,
                "tempo": 120.0
            },
            {
                "start_time": 64.23181818181818,
                "end_time": 64.35,
                "pitch": 29,
                "velocity": 80,
                "duration": 0.11818181818181017,
                "tempo": 120.0
            },
            {
                "start_time": 64.35,
                "end_time": 64.47045454545454,
                "pitch": 29,
                "velocity": 80,
                "duration": 0.12045454545454959,
                "tempo": 120.0
            },
            {
                "start_time": 64.47272727272727,
                "end_time": 64.58636363636363,
                "pitch": 29,
                "velocity": 80,
                "duration": 0.11363636363635976,
                "tempo": 120.0
            },
            {
                "start_time": 64.58636363636363,
                "end_time": 64.70681818181818,
                "pitch": 29,
                "velocity": 80,
                "duration": 0.12045454545454959,
                "tempo": 120.0
            },
            {
                "start_time": 64.70681818181818,
                "end_time": 64.8409090909091,
                "pitch": 29,
                "velocity": 80,
                "duration": 0.13409090909091503,
                "tempo": 120.0
            },
            {
                "start_time": 64.8409090909091,
                "end_time": 64.9590909090909,
                "pitch": 29,
                "velocity": 80,
                "duration": 0.11818181818181017,
                "tempo": 120.0
            },
            {
                "start_time": 64.9590909090909,
                "end_time": 65.07727272727273,
                "pitch": 29,
                "velocity": 80,
                "duration": 0.11818181818182438,
                "tempo": 120.0
            },
            {
                "start_time": 65.07727272727273,
                "end_time": 65.2,
                "pitch": 29,
                "velocity": 80,
                "duration": 0.1227272727272748,
                "tempo": 120.0
            },
            {
                "start_time": 65.2,
                "end_time": 65.31590909090909,
                "pitch": 29,
                "velocity": 80,
                "duration": 0.11590909090908497,
                "tempo": 120.0
            },
            {
                "start_time": 65.31590909090909,
                "end_time": 65.45454545454545,
                "pitch": 29,
                "velocity": 80,
                "duration": 0.13863636363636545,
                "tempo": 120.0
            },
            {
                "start_time": 65.45454545454545,
                "end_time": 65.57045454545454,
                "pitch": 29,
                "velocity": 80,
                "duration": 0.11590909090908497,
                "tempo": 120.0
            },
            {
                "start_time": 65.57045454545454,
                "end_time": 65.69090909090909,
                "pitch": 29,
                "velocity": 80,
                "duration": 0.12045454545454959,
                "tempo": 120.0
            },
            {
                "start_time": 65.69090909090909,
                "end_time": 65.80681818181817,
                "pitch": 33,
                "velocity": 80,
                "duration": 0.11590909090908497,
                "tempo": 120.0
            },
            {
                "start_time": 65.80681818181817,
                "end_time": 65.92727272727272,
                "pitch": 33,
                "velocity": 80,
                "duration": 0.12045454545454959,
                "tempo": 120.0
            },
            {
                "start_time": 65.92727272727272,
                "end_time": 66.05681818181817,
                "pitch": 31,
                "velocity": 80,
                "duration": 0.1295454545454504,
                "tempo": 120.0
            },
            {
                "start_time": 66.05681818181817,
                "end_time": 66.17045454545455,
                "pitch": 31,
                "velocity": 80,
                "duration": 0.11363636363637397,
                "tempo": 120.0
            },
            {
                "start_time": 66.17045454545455,
                "end_time": 66.28636363636363,
                "pitch": 31,
                "velocity": 80,
                "duration": 0.11590909090908497,
                "tempo": 120.0
            },
            {
                "start_time": 66.28636363636363,
                "end_time": 66.40227272727273,
                "pitch": 31,
                "velocity": 80,
                "duration": 0.11590909090909918,
                "tempo": 120.0
            },
            {
                "start_time": 66.40227272727273,
                "end_time": 66.51818181818182,
                "pitch": 31,
                "velocity": 80,
                "duration": 0.11590909090908497,
                "tempo": 120.0
            },
            {
                "start_time": 66.51818181818182,
                "end_time": 66.65454545454546,
                "pitch": 31,
                "velocity": 80,
                "duration": 0.13636363636364024,
                "tempo": 120.0
            },
            {
                "start_time": 66.65454545454546,
                "end_time": 66.77045454545454,
                "pitch": 31,
                "velocity": 80,
                "duration": 0.11590909090908497,
                "tempo": 120.0
            },
            {
                "start_time": 66.77045454545454,
                "end_time": 66.89090909090909,
                "pitch": 31,
                "velocity": 80,
                "duration": 0.12045454545454959,
                "tempo": 120.0
            },
            {
                "start_time": 66.89090909090909,
                "end_time": 67.00454545454545,
                "pitch": 31,
                "velocity": 80,
                "duration": 0.11363636363635976,
                "tempo": 120.0
            },
            {
                "start_time": 67.00681818181818,
                "end_time": 67.125,
                "pitch": 31,
                "velocity": 80,
                "duration": 0.11818181818182438,
                "tempo": 120.0
            },
            {
                "start_time": 67.125,
                "end_time": 67.25681818181818,
                "pitch": 31,
                "velocity": 80,
                "duration": 0.13181818181817562,
                "tempo": 120.0
            },
            {
                "start_time": 67.25681818181818,
                "end_time": 67.375,
                "pitch": 31,
                "velocity": 80,
                "duration": 0.11818181818182438,
                "tempo": 120.0
            },
            {
                "start_time": 67.375,
                "end_time": 67.49090909090908,
                "pitch": 31,
                "velocity": 80,
                "duration": 0.11590909090908497,
                "tempo": 120.0
            },
            {
                "start_time": 67.49090909090908,
                "end_time": 67.61136363636363,
                "pitch": 31,
                "velocity": 80,
                "duration": 0.12045454545454959,
                "tempo": 120.0
            },
            {
                "start_time": 67.61136363636363,
                "end_time": 67.73181818181818,
                "pitch": 31,
                "velocity": 80,
                "duration": 0.12045454545454959,
                "tempo": 120.0
            },
            {
                "start_time": 67.73181818181818,
                "end_time": 67.87045454545454,
                "pitch": 31,
                "velocity": 80,
                "duration": 0.13863636363635123,
                "tempo": 120.0
            },
            {
                "start_time": 67.87045454545454,
                "end_time": 67.98636363636363,
                "pitch": 28,
                "velocity": 80,
                "duration": 0.11590909090909918,
                "tempo": 120.0
            },
            {
                "start_time": 67.98636363636363,
                "end_time": 68.10454545454544,
                "pitch": 28,
                "velocity": 80,
                "duration": 0.11818181818181017,
                "tempo": 120.0
            },
            {
                "start_time": 68.10454545454544,
                "end_time": 68.22272727272727,
                "pitch": 28,
                "velocity": 80,
                "duration": 0.11818181818182438,
                "tempo": 120.0
            },
            {
                "start_time": 68.22272727272727,
                "end_time": 68.3409090909091,
                "pitch": 28,
                "velocity": 80,
                "duration": 0.11818181818182438,
                "tempo": 120.0
            },
            {
                "start_time": 68.3409090909091,
                "end_time": 68.47045454545454,
                "pitch": 28,
                "velocity": 80,
                "duration": 0.1295454545454504,
                "tempo": 120.0
            },
            {
                "start_time": 68.47045454545454,
                "end_time": 68.58636363636363,
                "pitch": 28,
                "velocity": 80,
                "duration": 0.11590909090908497,
                "tempo": 120.0
            },
            {
                "start_time": 68.58863636363635,
                "end_time": 68.7,
                "pitch": 28,
                "velocity": 80,
                "duration": 0.11136363636364877,
                "tempo": 120.0
            },
            {
                "start_time": 68.7,
                "end_time": 68.81818181818181,
                "pitch": 28,
                "velocity": 80,
                "duration": 0.11818181818181017,
                "tempo": 120.0
            },
            {
                "start_time": 68.81818181818181,
                "end_time": 68.93181818181817,
                "pitch": 28,
                "velocity": 80,
                "duration": 0.11363636363635976,
                "tempo": 120.0
            },
            {
                "start_time": 68.93181818181817,
                "end_time": 69.06818181818181,
                "pitch": 28,
                "velocity": 80,
                "duration": 0.13636363636364024,
                "tempo": 120.0
            },
            {
                "start_time": 69.06818181818181,
                "end_time": 69.18181818181817,
                "pitch": 28,
                "velocity": 80,
                "duration": 0.11363636363635976,
                "tempo": 120.0
            },
            {
                "start_time": 69.18181818181817,
                "end_time": 69.30227272727272,
                "pitch": 28,
                "velocity": 80,
                "duration": 0.12045454545454959,
                "tempo": 120.0
            },
            {
                "start_time": 69.30227272727272,
                "end_time": 69.42045454545455,
                "pitch": 28,
                "velocity": 80,
                "duration": 0.11818181818182438,
                "tempo": 120.0
            },
            {
                "start_time": 69.42045454545455,
                "end_time": 69.53863636363636,
                "pitch": 28,
                "velocity": 80,
                "duration": 0.11818181818181017,
                "tempo": 120.0
            },
            {
                "start_time": 69.53863636363636,
                "end_time": 69.675,
                "pitch": 31,
                "velocity": 80,
                "duration": 0.13636363636364024,
                "tempo": 120.0
            },
            {
                "start_time": 69.67727272727272,
                "end_time": 69.79772727272727,
                "pitch": 31,
                "velocity": 80,
                "duration": 0.12045454545454959,
                "tempo": 120.0
            },
            {
                "start_time": 69.79772727272727,
                "end_time": 69.91136363636363,
                "pitch": 33,
                "velocity": 64,
                "duration": 0.11363636363635976,
                "tempo": 120.0
            },
            {
                "start_time": 69.91136363636363,
                "end_time": 70.02954545454546,
                "pitch": 33,
                "velocity": 64,
                "duration": 0.11818181818182438,
                "tempo": 120.0
            },
            {
                "start_time": 70.02954545454546,
                "end_time": 70.14545454545454,
                "pitch": 33,
                "velocity": 64,
                "duration": 0.11590909090908497,
                "tempo": 120.0
            },
            {
                "start_time": 70.14545454545454,
                "end_time": 70.27954545454546,
                "pitch": 33,
                "velocity": 64,
                "duration": 0.13409090909091503,
                "tempo": 120.0
            },
            {
                "start_time": 70.27954545454546,
                "end_time": 70.39545454545454,
                "pitch": 33,
                "velocity": 64,
                "duration": 0.11590909090908497,
                "tempo": 120.0
            },
            {
                "start_time": 70.39545454545454,
                "end_time": 70.51590909090909,
                "pitch": 33,
                "velocity": 64,
                "duration": 0.12045454545454959,
                "tempo": 120.0
            },
            {
                "start_time": 70.51590909090909,
                "end_time": 70.63181818181818,
                "pitch": 33,
                "velocity": 64,
                "duration": 0.11590909090908497,
                "tempo": 120.0
            },
            {
                "start_time": 70.63181818181818,
                "end_time": 70.75,
                "pitch": 33,
                "velocity": 64,
                "duration": 0.11818181818182438,
                "tempo": 120.0
            },
            {
                "start_time": 70.75,
                "end_time": 70.8840909090909,
                "pitch": 33,
                "velocity": 64,
                "duration": 0.13409090909090082,
                "tempo": 120.0
            },
            {
                "start_time": 70.88636363636363,
                "end_time": 71.00227272727273,
                "pitch": 33,
                "velocity": 64,
                "duration": 0.11590909090909918,
                "tempo": 120.0
            },
            {
                "start_time": 71.00227272727273,
                "end_time": 71.12045454545454,
                "pitch": 33,
                "velocity": 64,
                "duration": 0.11818181818181017,
                "tempo": 120.0
            },
            {
                "start_time": 71.12045454545454,
                "end_time": 71.23863636363636,
                "pitch": 33,
                "velocity": 64,
                "duration": 0.11818181818182438,
                "tempo": 120.0
            },
            {
                "start_time": 71.23863636363636,
                "end_time": 71.35454545454544,
                "pitch": 33,
                "velocity": 64,
                "duration": 0.11590909090908497,
                "tempo": 120.0
            },
            {
                "start_time": 71.35454545454544,
                "end_time": 71.49090909090908,
                "pitch": 33,
                "velocity": 64,
                "duration": 0.13636363636364024,
                "tempo": 120.0
            },
            {
                "start_time": 71.49090909090908,
                "end_time": 71.60909090909091,
                "pitch": 33,
                "velocity": 64,
                "duration": 0.11818181818182438,
                "tempo": 120.0
            },
            {
                "start_time": 71.60909090909091,
                "end_time": 71.72727272727272,
                "pitch": 33,
                "velocity": 64,
                "duration": 0.11818181818181017,
                "tempo": 120.0
            },
            {
                "start_time": 71.72727272727272,
                "end_time": 71.84318181818182,
                "pitch": 33,
                "velocity": 64,
                "duration": 0.11590909090909918,
                "tempo": 120.0
            },
            {
                "start_time": 71.84318181818182,
                "end_time": 71.9590909090909,
                "pitch": 33,
                "velocity": 64,
                "duration": 0.11590909090908497,
                "tempo": 120.0
            },
            {
                "start_time": 71.9590909090909,
                "end_time": 72.09318181818182,
                "pitch": 33,
                "velocity": 64,
                "duration": 0.13409090909091503,
                "tempo": 120.0
            },
            {
                "start_time": 72.09318181818182,
                "end_time": 72.2090909090909,
                "pitch": 33,
                "velocity": 64,
                "duration": 0.11590909090908497,
                "tempo": 120.0
            },
            {
                "start_time": 72.21136363636363,
                "end_time": 72.32727272727273,
                "pitch": 33,
                "velocity": 64,
                "duration": 0.11590909090909918,
                "tempo": 120.0
            },
            {
                "start_time": 72.32727272727273,
                "end_time": 72.44545454545454,
                "pitch": 33,
                "velocity": 64,
                "duration": 0.11818181818181017,
                "tempo": 120.0
            },
            {
                "start_time": 72.44545454545454,
                "end_time": 72.56363636363636,
                "pitch": 33,
                "velocity": 64,
                "duration": 0.11818181818182438,
                "tempo": 120.0
            },
            {
                "start_time": 72.56363636363636,
                "end_time": 72.69772727272726,
                "pitch": 33,
                "velocity": 64,
                "duration": 0.13409090909090082,
                "tempo": 120.0
            },
            {
                "start_time": 72.69772727272726,
                "end_time": 72.81818181818181,
                "pitch": 33,
                "velocity": 64,
                "duration": 0.12045454545454959,
                "tempo": 120.0
            },
            {
                "start_time": 72.81818181818181,
                "end_time": 72.93636363636364,
                "pitch": 33,
                "velocity": 64,
                "duration": 0.11818181818182438,
                "tempo": 120.0
            },
            {
                "start_time": 72.93636363636364,
                "end_time": 73.05681818181817,
                "pitch": 33,
                "velocity": 64,
                "duration": 0.12045454545453538,
                "tempo": 120.0
            },
            {
                "start_time": 73.05681818181817,
                "end_time": 73.17727272727272,
                "pitch": 33,
                "velocity": 64,
                "duration": 0.12045454545454959,
                "tempo": 120.0
            },
            {
                "start_time": 73.17727272727272,
                "end_time": 73.30454545454545,
                "pitch": 33,
                "velocity": 64,
                "duration": 0.1272727272727252,
                "tempo": 120.0
            },
            {
                "start_time": 73.30454545454545,
                "end_time": 73.41590909090908,
                "pitch": 33,
                "velocity": 64,
                "duration": 0.11136363636363455,
                "tempo": 120.0
            },
            {
                "start_time": 73.41590909090908,
                "end_time": 73.52954545454546,
                "pitch": 33,
                "velocity": 64,
                "duration": 0.11363636363637397,
                "tempo": 120.0
            },
            {
                "start_time": 73.52954545454546,
                "end_time": 73.64318181818182,
                "pitch": 33,
                "velocity": 64,
                "duration": 0.11363636363635976,
                "tempo": 120.0
            },
            {
                "start_time": 73.64318181818182,
                "end_time": 73.76136363636363,
                "pitch": 29,
                "velocity": 64,
                "duration": 0.11818181818181017,
                "tempo": 120.0
            },
            {
                "start_time": 73.76136363636363,
                "end_time": 73.89772727272727,
                "pitch": 29,
                "velocity": 64,
                "duration": 0.13636363636364024,
                "tempo": 120.0
            },
            {
                "start_time": 73.89772727272727,
                "end_time": 74.01818181818182,
                "pitch": 29,
                "velocity": 64,
                "duration": 0.12045454545454959,
                "tempo": 120.0
            },
            {
                "start_time": 74.01818181818182,
                "end_time": 74.13636363636363,
                "pitch": 29,
                "velocity": 64,
                "duration": 0.11818181818181017,
                "tempo": 120.0
            },
            {
                "start_time": 74.13863636363637,
                "end_time": 74.25454545454545,
                "pitch": 29,
                "velocity": 64,
                "duration": 0.11590909090908497,
                "tempo": 120.0
            },
            {
                "start_time": 74.25454545454545,
                "end_time": 74.37272727272727,
                "pitch": 29,
                "velocity": 64,
                "duration": 0.11818181818182438,
                "tempo": 120.0
            },
            {
                "start_time": 74.37272727272727,
                "end_time": 74.50681818181818,
                "pitch": 29,
                "velocity": 64,
                "duration": 0.13409090909090082,
                "tempo": 120.0
            },
            {
                "start_time": 74.50681818181818,
                "end_time": 74.625,
                "pitch": 29,
                "velocity": 64,
                "duration": 0.11818181818182438,
                "tempo": 120.0
            },
            {
                "start_time": 74.625,
                "end_time": 74.74545454545454,
                "pitch": 29,
                "velocity": 64,
                "duration": 0.12045454545453538,
                "tempo": 120.0
            },
            {
                "start_time": 74.74545454545454,
                "end_time": 74.86363636363636,
                "pitch": 29,
                "velocity": 64,
                "duration": 0.11818181818182438,
                "tempo": 120.0
            },
            {
                "start_time": 74.86363636363636,
                "end_time": 74.98409090909091,
                "pitch": 29,
                "velocity": 64,
                "duration": 0.12045454545454959,
                "tempo": 120.0
            },
            {
                "start_time": 74.98409090909091,
                "end_time": 75.12045454545454,
                "pitch": 29,
                "velocity": 64,
                "duration": 0.13636363636362603,
                "tempo": 120.0
            },
            {
                "start_time": 75.12045454545454,
                "end_time": 75.23636363636363,
                "pitch": 29,
                "velocity": 64,
                "duration": 0.11590909090909918,
                "tempo": 120.0
            },
            {
                "start_time": 75.23863636363636,
                "end_time": 75.35681818181818,
                "pitch": 29,
                "velocity": 64,
                "duration": 0.11818181818182438,
                "tempo": 120.0
            },
            {
                "start_time": 75.35681818181818,
                "end_time": 75.475,
                "pitch": 29,
                "velocity": 64,
                "duration": 0.11818181818181017,
                "tempo": 120.0
            },
            {
                "start_time": 75.475,
                "end_time": 75.59318181818182,
                "pitch": 29,
                "velocity": 64,
                "duration": 0.11818181818182438,
                "tempo": 120.0
            },
            {
                "start_time": 75.59318181818182,
                "end_time": 75.72272727272727,
                "pitch": 31,
                "velocity": 64,
                "duration": 0.1295454545454504,
                "tempo": 120.0
            },
            {
                "start_time": 75.72272727272727,
                "end_time": 75.83863636363635,
                "pitch": 31,
                "velocity": 64,
                "duration": 0.11590909090908497,
                "tempo": 120.0
            },
            {
                "start_time": 75.83863636363635,
                "end_time": 75.95227272727273,
                "pitch": 31,
                "velocity": 64,
                "duration": 0.11363636363637397,
                "tempo": 120.0
            },
            {
                "start_time": 75.95227272727273,
                "end_time": 76.06818181818181,
                "pitch": 31,
                "velocity": 64,
                "duration": 0.11590909090908497,
                "tempo": 120.0
            },
            {
                "start_time": 76.06818181818181,
                "end_time": 76.18409090909091,
                "pitch": 31,
                "velocity": 64,
                "duration": 0.11590909090909918,
                "tempo": 120.0
            },
            {
                "start_time": 76.18409090909091,
                "end_time": 76.32045454545454,
                "pitch": 31,
                "velocity": 64,
                "duration": 0.13636363636362603,
                "tempo": 120.0
            },
            {
                "start_time": 76.32045454545454,
                "end_time": 76.43863636363636,
                "pitch": 31,
                "velocity": 64,
                "duration": 0.11818181818182438,
                "tempo": 120.0
            },
            {
                "start_time": 76.43863636363636,
                "end_time": 76.55681818181817,
                "pitch": 31,
                "velocity": 64,
                "duration": 0.11818181818181017,
                "tempo": 120.0
            },
            {
                "start_time": 76.55681818181817,
                "end_time": 76.675,
                "pitch": 31,
                "velocity": 64,
                "duration": 0.11818181818182438,
                "tempo": 120.0
            },
            {
                "start_time": 76.675,
                "end_time": 76.79545454545455,
                "pitch": 31,
                "velocity": 64,
                "duration": 0.12045454545454959,
                "tempo": 120.0
            },
            {
                "start_time": 76.79545454545455,
                "end_time": 76.93181818181817,
                "pitch": 31,
                "velocity": 64,
                "duration": 0.13636363636362603,
                "tempo": 120.0
            },
            {
                "start_time": 76.93181818181817,
                "end_time": 77.05227272727272,
                "pitch": 31,
                "velocity": 64,
                "duration": 0.12045454545454959,
                "tempo": 120.0
            },
            {
                "start_time": 77.05227272727272,
                "end_time": 77.16818181818181,
                "pitch": 31,
                "velocity": 64,
                "duration": 0.11590909090908497,
                "tempo": 120.0
            },
            {
                "start_time": 77.16818181818181,
                "end_time": 77.28636363636363,
                "pitch": 31,
                "velocity": 64,
                "duration": 0.11818181818182438,
                "tempo": 120.0
            },
            {
                "start_time": 77.28636363636363,
                "end_time": 77.40454545454546,
                "pitch": 31,
                "velocity": 64,
                "duration": 0.11818181818182438,
                "tempo": 120.0
            },
            {
                "start_time": 77.40454545454546,
                "end_time": 77.54090909090908,
                "pitch": 31,
                "velocity": 64,
                "duration": 0.13636363636362603,
                "tempo": 120.0
            },
            {
                "start_time": 77.54318181818181,
                "end_time": 77.65681818181818,
                "pitch": 33,
                "velocity": 64,
                "duration": 0.11363636363637397,
                "tempo": 120.0
            },
            {
                "start_time": 77.65681818181818,
                "end_time": 77.77499999999999,
                "pitch": 33,
                "velocity": 64,
                "duration": 0.11818181818181017,
                "tempo": 120.0
            },
            {
                "start_time": 77.77499999999999,
                "end_time": 77.89318181818182,
                "pitch": 33,
                "velocity": 64,
                "duration": 0.11818181818182438,
                "tempo": 120.0
            },
            {
                "start_time": 77.89318181818182,
                "end_time": 78.01136363636363,
                "pitch": 33,
                "velocity": 64,
                "duration": 0.11818181818181017,
                "tempo": 120.0
            },
            {
                "start_time": 78.01136363636363,
                "end_time": 78.14090909090909,
                "pitch": 33,
                "velocity": 64,
                "duration": 0.12954545454546462,
                "tempo": 120.0
            },
            {
                "start_time": 78.14090909090909,
                "end_time": 78.25681818181818,
                "pitch": 33,
                "velocity": 64,
                "duration": 0.11590909090908497,
                "tempo": 120.0
            },
            {
                "start_time": 78.25681818181818,
                "end_time": 78.37272727272727,
                "pitch": 33,
                "velocity": 64,
                "duration": 0.11590909090909918,
                "tempo": 120.0
            },
            {
                "start_time": 78.37272727272727,
                "end_time": 78.48636363636363,
                "pitch": 33,
                "velocity": 64,
                "duration": 0.11363636363635976,
                "tempo": 120.0
            },
            {
                "start_time": 78.48636363636363,
                "end_time": 78.60681818181818,
                "pitch": 33,
                "velocity": 64,
                "duration": 0.12045454545454959,
                "tempo": 120.0
            },
            {
                "start_time": 78.60681818181818,
                "end_time": 78.74318181818181,
                "pitch": 33,
                "velocity": 64,
                "duration": 0.13636363636362603,
                "tempo": 120.0
            },
            {
                "start_time": 78.74318181818181,
                "end_time": 78.86363636363636,
                "pitch": 33,
                "velocity": 64,
                "duration": 0.12045454545454959,
                "tempo": 120.0
            },
            {
                "start_time": 78.86363636363636,
                "end_time": 78.98181818181818,
                "pitch": 33,
                "velocity": 64,
                "duration": 0.11818181818182438,
                "tempo": 120.0
            },
            {
                "start_time": 78.98181818181818,
                "end_time": 79.1,
                "pitch": 33,
                "velocity": 64,
                "duration": 0.11818181818181017,
                "tempo": 120.0
            },
            {
                "start_time": 79.1,
                "end_time": 79.21818181818182,
                "pitch": 33,
                "velocity": 64,
                "duration": 0.11818181818182438,
                "tempo": 120.0
            },
            {
                "start_time": 79.21818181818182,
                "end_time": 79.35227272727272,
                "pitch": 33,
                "velocity": 64,
                "duration": 0.13409090909090082,
                "tempo": 120.0
            },
            {
                "start_time": 79.35227272727272,
                "end_time": 79.47272727272727,
                "pitch": 33,
                "velocity": 64,
                "duration": 0.12045454545454959,
                "tempo": 120.0
            },
            {
                "start_time": 79.47272727272727,
                "end_time": 79.58636363636363,
                "pitch": 33,
                "velocity": 64,
                "duration": 0.11363636363635976,
                "tempo": 120.0
            },
            {
                "start_time": 79.58636363636363,
                "end_time": 79.70454545454545,
                "pitch": 33,
                "velocity": 64,
                "duration": 0.11818181818182438,
                "tempo": 120.0
            },
            {
                "start_time": 79.70454545454545,
                "end_time": 79.82045454545454,
                "pitch": 33,
                "velocity": 64,
                "duration": 0.11590909090908497,
                "tempo": 120.0
            },
            {
                "start_time": 79.82045454545454,
                "end_time": 79.95454545454545,
                "pitch": 33,
                "velocity": 64,
                "duration": 0.13409090909091503,
                "tempo": 120.0
            },
            {
                "start_time": 79.95454545454545,
                "end_time": 80.07272727272726,
                "pitch": 33,
                "velocity": 64,
                "duration": 0.11818181818181017,
                "tempo": 120.0
            },
            {
                "start_time": 80.07272727272726,
                "end_time": 80.19318181818181,
                "pitch": 33,
                "velocity": 64,
                "duration": 0.12045454545454959,
                "tempo": 120.0
            },
            {
                "start_time": 80.19318181818181,
                "end_time": 80.31363636363636,
                "pitch": 33,
                "velocity": 64,
                "duration": 0.12045454545454959,
                "tempo": 120.0
            },
            {
                "start_time": 80.31363636363636,
                "end_time": 80.43181818181817,
                "pitch": 33,
                "velocity": 64,
                "duration": 0.11818181818181017,
                "tempo": 120.0
            },
            {
                "start_time": 80.43181818181817,
                "end_time": 80.56363636363636,
                "pitch": 33,
                "velocity": 64,
                "duration": 0.13181818181818983,
                "tempo": 120.0
            },
            {
                "start_time": 80.56363636363636,
                "end_time": 80.67954545454545,
                "pitch": 33,
                "velocity": 64,
                "duration": 0.11590909090908497,
                "tempo": 120.0
            },
            {
                "start_time": 80.67954545454545,
                "end_time": 80.79318181818181,
                "pitch": 33,
                "velocity": 64,
                "duration": 0.11363636363635976,
                "tempo": 120.0
            },
            {
                "start_time": 80.79318181818181,
                "end_time": 80.9090909090909,
                "pitch": 33,
                "velocity": 64,
                "duration": 0.11590909090909918,
                "tempo": 120.0
            },
            {
                "start_time": 80.9090909090909,
                "end_time": 81.02499999999999,
                "pitch": 33,
                "velocity": 64,
                "duration": 0.11590909090908497,
                "tempo": 120.0
            },
            {
                "start_time": 81.02727272727272,
                "end_time": 81.16136363636363,
                "pitch": 33,
                "velocity": 64,
                "duration": 0.13409090909091503,
                "tempo": 120.0
            },
            {
                "start_time": 81.16136363636363,
                "end_time": 81.27954545454546,
                "pitch": 33,
                "velocity": 64,
                "duration": 0.11818181818182438,
                "tempo": 120.0
            },
            {
                "start_time": 81.27954545454546,
                "end_time": 81.39772727272727,
                "pitch": 33,
                "velocity": 64,
                "duration": 0.11818181818181017,
                "tempo": 120.0
            },
            {
                "start_time": 81.39772727272727,
                "end_time": 81.51363636363637,
                "pitch": 29,
                "velocity": 64,
                "duration": 0.11590909090909918,
                "tempo": 120.0
            },
            {
                "start_time": 81.51363636363637,
                "end_time": 81.62954545454545,
                "pitch": 29,
                "velocity": 64,
                "duration": 0.11590909090908497,
                "tempo": 120.0
            },
            {
                "start_time": 81.63181818181818,
                "end_time": 81.76363636363637,
                "pitch": 29,
                "velocity": 64,
                "duration": 0.13181818181818983,
                "tempo": 120.0
            },
            {
                "start_time": 81.76363636363637,
                "end_time": 81.88181818181818,
                "pitch": 29,
                "velocity": 64,
                "duration": 0.11818181818181017,
                "tempo": 120.0
            },
            {
                "start_time": 81.88181818181818,
                "end_time": 82.0,
                "pitch": 29,
                "velocity": 64,
                "duration": 0.11818181818182438,
                "tempo": 120.0
            },
            {
                "start_time": 82.0,
                "end_time": 82.12045454545454,
                "pitch": 29,
                "velocity": 64,
                "duration": 0.12045454545453538,
                "tempo": 120.0
            },
            {
                "start_time": 82.12045454545454,
                "end_time": 82.24090909090908,
                "pitch": 29,
                "velocity": 64,
                "duration": 0.12045454545454959,
                "tempo": 120.0
            },
            {
                "start_time": 82.24090909090908,
                "end_time": 82.37727272727273,
                "pitch": 29,
                "velocity": 64,
                "duration": 0.13636363636364024,
                "tempo": 120.0
            },
            {
                "start_time": 82.37727272727273,
                "end_time": 82.49318181818181,
                "pitch": 29,
                "velocity": 64,
                "duration": 0.11590909090908497,
                "tempo": 120.0
            },
            {
                "start_time": 82.49318181818181,
                "end_time": 82.60909090909091,
                "pitch": 29,
                "velocity": 64,
                "duration": 0.11590909090909918,
                "tempo": 120.0
            },
            {
                "start_time": 82.61136363636363,
                "end_time": 82.72727272727272,
                "pitch": 29,
                "velocity": 64,
                "duration": 0.11590909090908497,
                "tempo": 120.0
            },
            {
                "start_time": 82.72727272727272,
                "end_time": 82.84318181818182,
                "pitch": 29,
                "velocity": 64,
                "duration": 0.11590909090909918,
                "tempo": 120.0
            },
            {
                "start_time": 82.84318181818182,
                "end_time": 82.975,
                "pitch": 29,
                "velocity": 64,
                "duration": 0.13181818181817562,
                "tempo": 120.0
            },
            {
                "start_time": 82.975,
                "end_time": 83.0909090909091,
                "pitch": 29,
                "velocity": 64,
                "duration": 0.11590909090909918,
                "tempo": 120.0
            },
            {
                "start_time": 83.0909090909091,
                "end_time": 83.20454545454545,
                "pitch": 29,
                "velocity": 64,
                "duration": 0.11363636363635976,
                "tempo": 120.0
            },
            {
                "start_time": 83.20454545454545,
                "end_time": 83.32272727272726,
                "pitch": 29,
                "velocity": 64,
                "duration": 0.11818181818181017,
                "tempo": 120.0
            },
            {
                "start_time": 83.32272727272726,
                "end_time": 83.43636363636364,
                "pitch": 31,
                "velocity": 64,
                "duration": 0.11363636363637397,
                "tempo": 120.0
            },
            {
                "start_time": 83.43636363636364,
                "end_time": 83.57045454545454,
                "pitch": 31,
                "velocity": 64,
                "duration": 0.13409090909090082,
                "tempo": 120.0
            },
            {
                "start_time": 83.57045454545454,
                "end_time": 83.68636363636364,
                "pitch": 31,
                "velocity": 64,
                "duration": 0.11590909090909918,
                "tempo": 120.0
            },
            {
                "start_time": 83.68636363636364,
                "end_time": 83.80454545454545,
                "pitch": 31,
                "velocity": 64,
                "duration": 0.11818181818181017,
                "tempo": 120.0
            },
            {
                "start_time": 83.80454545454545,
                "end_time": 83.92045454545455,
                "pitch": 31,
                "velocity": 64,
                "duration": 0.11590909090909918,
                "tempo": 120.0
            },
            {
                "start_time": 83.92045454545455,
                "end_time": 84.03863636363636,
                "pitch": 31,
                "velocity": 64,
                "duration": 0.11818181818181017,
                "tempo": 120.0
            },
            {
                "start_time": 84.04090909090908,
                "end_time": 84.175,
                "pitch": 31,
                "velocity": 64,
                "duration": 0.13409090909091503,
                "tempo": 120.0
            },
            {
                "start_time": 84.175,
                "end_time": 84.29090909090908,
                "pitch": 31,
                "velocity": 64,
                "duration": 0.11590909090908497,
                "tempo": 120.0
            },
            {
                "start_time": 84.29318181818181,
                "end_time": 84.41136363636363,
                "pitch": 31,
                "velocity": 64,
                "duration": 0.11818181818182438,
                "tempo": 120.0
            },
            {
                "start_time": 84.41136363636363,
                "end_time": 84.53181818181818,
                "pitch": 31,
                "velocity": 64,
                "duration": 0.12045454545454959,
                "tempo": 120.0
            },
            {
                "start_time": 84.53181818181818,
                "end_time": 84.64999999999999,
                "pitch": 31,
                "velocity": 64,
                "duration": 0.11818181818181017,
                "tempo": 120.0
            },
            {
                "start_time": 84.64999999999999,
                "end_time": 84.78863636363636,
                "pitch": 31,
                "velocity": 64,
                "duration": 0.13863636363636545,
                "tempo": 120.0
            },
            {
                "start_time": 84.78863636363636,
                "end_time": 84.90454545454546,
                "pitch": 31,
                "velocity": 64,
                "duration": 0.11590909090909918,
                "tempo": 120.0
            },
            {
                "start_time": 84.90681818181818,
                "end_time": 85.02272727272727,
                "pitch": 31,
                "velocity": 64,
                "duration": 0.11590909090908497,
                "tempo": 120.0
            },
            {
                "start_time": 85.02272727272727,
                "end_time": 85.14090909090909,
                "pitch": 31,
                "velocity": 64,
                "duration": 0.11818181818182438,
                "tempo": 120.0
            },
            {
                "start_time": 85.14090909090909,
                "end_time": 85.26136363636363,
                "pitch": 31,
                "velocity": 64,
                "duration": 0.12045454545453538,
                "tempo": 120.0
            },
            {
                "start_time": 85.26136363636363,
                "end_time": 85.39090909090909,
                "pitch": 33,
                "velocity": 80,
                "duration": 0.12954545454546462,
                "tempo": 120.0
            },
            {
                "start_time": 85.39090909090909,
                "end_time": 85.50454545454545,
                "pitch": 33,
                "velocity": 80,
                "duration": 0.11363636363635976,
                "tempo": 120.0
            },
            {
                "start_time": 85.50454545454545,
                "end_time": 85.62045454545454,
                "pitch": 33,
                "velocity": 80,
                "duration": 0.11590909090908497,
                "tempo": 120.0
            },
            {
                "start_time": 85.62045454545454,
                "end_time": 85.73636363636363,
                "pitch": 33,
                "velocity": 80,
                "duration": 0.11590909090909918,
                "tempo": 120.0
            },
            {
                "start_time": 85.73636363636363,
                "end_time": 85.85227272727272,
                "pitch": 33,
                "velocity": 80,
                "duration": 0.11590909090908497,
                "tempo": 120.0
            },
            {
                "start_time": 85.85227272727272,
                "end_time": 85.98863636363636,
                "pitch": 33,
                "velocity": 80,
                "duration": 0.13636363636364024,
                "tempo": 120.0
            },
            {
                "start_time": 85.98863636363636,
                "end_time": 86.10454545454544,
                "pitch": 33,
                "velocity": 80,
                "duration": 0.11590909090908497,
                "tempo": 120.0
            },
            {
                "start_time": 86.10454545454544,
                "end_time": 86.225,
                "pitch": 33,
                "velocity": 80,
                "duration": 0.12045454545454959,
                "tempo": 120.0
            },
            {
                "start_time": 86.225,
                "end_time": 86.34318181818182,
                "pitch": 33,
                "velocity": 80,
                "duration": 0.11818181818182438,
                "tempo": 120.0
            },
            {
                "start_time": 86.34318181818182,
                "end_time": 86.46363636363635,
                "pitch": 33,
                "velocity": 80,
                "duration": 0.12045454545453538,
                "tempo": 120.0
            },
            {
                "start_time": 86.46363636363635,
                "end_time": 86.6,
                "pitch": 33,
                "velocity": 80,
                "duration": 0.13636363636364024,
                "tempo": 120.0
            },
            {
                "start_time": 86.6,
                "end_time": 86.72045454545454,
                "pitch": 33,
                "velocity": 80,
                "duration": 0.12045454545454959,
                "tempo": 120.0
            },
            {
                "start_time": 86.72045454545454,
                "end_time": 86.83636363636363,
                "pitch": 33,
                "velocity": 80,
                "duration": 0.11590909090908497,
                "tempo": 120.0
            },
            {
                "start_time": 86.83636363636363,
                "end_time": 86.95454545454545,
                "pitch": 33,
                "velocity": 80,
                "duration": 0.11818181818182438,
                "tempo": 120.0
            },
            {
                "start_time": 86.95454545454545,
                "end_time": 87.07272727272726,
                "pitch": 31,
                "velocity": 80,
                "duration": 0.11818181818181017,
                "tempo": 120.0
            },
            {
                "start_time": 87.07272727272726,
                "end_time": 87.20681818181818,
                "pitch": 31,
                "velocity": 80,
                "duration": 0.13409090909091503,
                "tempo": 120.0
            },
            {
                "start_time": 87.2090909090909,
                "end_time": 87.325,
                "pitch": 29,
                "velocity": 80,
                "duration": 0.11590909090909918,
                "tempo": 120.0
            },
            {
                "start_time": 87.325,
                "end_time": 87.44090909090909,
                "pitch": 29,
                "velocity": 80,
                "duration": 0.11590909090908497,
                "tempo": 120.0
            },
            {
                "start_time": 87.44318181818181,
                "end_time": 87.5590909090909,
                "pitch": 29,
                "velocity": 80,
                "duration": 0.11590909090908497,
                "tempo": 120.0
            },
            {
                "start_time": 87.5590909090909,
                "end_time": 87.67954545454545,
                "pitch": 29,
                "velocity": 80,
                "duration": 0.12045454545454959,
                "tempo": 120.0
            },
            {
                "start_time": 87.67954545454545,
                "end_time": 87.80681818181817,
                "pitch": 29,
                "velocity": 80,
                "duration": 0.1272727272727252,
                "tempo": 120.0
            },
            {
                "start_time": 87.8090909090909,
                "end_time": 87.925,
                "pitch": 29,
                "velocity": 80,
                "duration": 0.11590909090909918,
                "tempo": 120.0
            },
            {
                "start_time": 87.925,
                "end_time": 88.03863636363636,
                "pitch": 29,
                "velocity": 80,
                "duration": 0.11363636363635976,
                "tempo": 120.0
            },
            {
                "start_time": 88.03863636363636,
                "end_time": 88.15454545454546,
                "pitch": 29,
                "velocity": 80,
                "duration": 0.11590909090909918,
                "tempo": 120.0
            },
            {
                "start_time": 88.15454545454546,
                "end_time": 88.27272727272727,
                "pitch": 29,
                "velocity": 80,
                "duration": 0.11818181818181017,
                "tempo": 120.0
            },
            {
                "start_time": 88.27272727272727,
                "end_time": 88.41136363636363,
                "pitch": 29,
                "velocity": 80,
                "duration": 0.13863636363636545,
                "tempo": 120.0
            },
            {
                "start_time": 88.41136363636363,
                "end_time": 88.52954545454546,
                "pitch": 29,
                "velocity": 80,
                "duration": 0.11818181818182438,
                "tempo": 120.0
            },
            {
                "start_time": 88.52954545454546,
                "end_time": 88.64999999999999,
                "pitch": 29,
                "velocity": 80,
                "duration": 0.12045454545453538,
                "tempo": 120.0
            },
            {
                "start_time": 88.64999999999999,
                "end_time": 88.76590909090909,
                "pitch": 29,
                "velocity": 80,
                "duration": 0.11590909090909918,
                "tempo": 120.0
            },
            {
                "start_time": 88.76590909090909,
                "end_time": 88.88636363636363,
                "pitch": 29,
                "velocity": 80,
                "duration": 0.12045454545453538,
                "tempo": 120.0
            },
            {
                "start_time": 88.88636363636363,
                "end_time": 89.02045454545454,
                "pitch": 33,
                "velocity": 80,
                "duration": 0.13409090909091503,
                "tempo": 120.0
            },
            {
                "start_time": 89.02045454545454,
                "end_time": 89.13863636363637,
                "pitch": 33,
                "velocity": 80,
                "duration": 0.11818181818182438,
                "tempo": 120.0
            },
            {
                "start_time": 89.13863636363637,
                "end_time": 89.25454545454545,
                "pitch": 31,
                "velocity": 80,
                "duration": 0.11590909090908497,
                "tempo": 120.0
            },
            {
                "start_time": 89.25454545454545,
                "end_time": 89.37272727272727,
                "pitch": 31,
                "velocity": 80,
                "duration": 0.11818181818182438,
                "tempo": 120.0
            },
            {
                "start_time": 89.37272727272727,
                "end_time": 89.49090909090908,
                "pitch": 31,
                "velocity": 80,
                "duration": 0.11818181818181017,
                "tempo": 120.0
            },
            {
                "start_time": 89.49090909090908,
                "end_time": 89.62727272727273,
                "pitch": 31,
                "velocity": 80,
                "duration": 0.13636363636364024,
                "tempo": 120.0
            },
            {
                "start_time": 89.62727272727273,
                "end_time": 89.74318181818181,
                "pitch": 31,
                "velocity": 80,
                "duration": 0.11590909090908497,
                "tempo": 120.0
            },
            {
                "start_time": 89.74318181818181,
                "end_time": 89.86590909090908,
                "pitch": 31,
                "velocity": 80,
                "duration": 0.1227272727272748,
                "tempo": 120.0
            },
            {
                "start_time": 89.86590909090908,
                "end_time": 89.98409090909091,
                "pitch": 31,
                "velocity": 80,
                "duration": 0.11818181818182438,
                "tempo": 120.0
            },
            {
                "start_time": 89.98409090909091,
                "end_time": 90.10454545454544,
                "pitch": 31,
                "velocity": 80,
                "duration": 0.12045454545453538,
                "tempo": 120.0
            },
            {
                "start_time": 90.10454545454544,
                "end_time": 90.23409090909091,
                "pitch": 31,
                "velocity": 80,
                "duration": 0.12954545454546462,
                "tempo": 120.0
            },
            {
                "start_time": 90.23636363636363,
                "end_time": 90.35227272727272,
                "pitch": 31,
                "velocity": 80,
                "duration": 0.11590909090908497,
                "tempo": 120.0
            },
            {
                "start_time": 90.35227272727272,
                "end_time": 90.4659090909091,
                "pitch": 31,
                "velocity": 80,
                "duration": 0.11363636363637397,
                "tempo": 120.0
            },
            {
                "start_time": 90.4659090909091,
                "end_time": 90.58181818181818,
                "pitch": 31,
                "velocity": 80,
                "duration": 0.11590909090908497,
                "tempo": 120.0
            },
            {
                "start_time": 90.58181818181818,
                "end_time": 90.69772727272726,
                "pitch": 31,
                "velocity": 80,
                "duration": 0.11590909090908497,
                "tempo": 120.0
            },
            {
                "start_time": 90.69772727272726,
                "end_time": 90.83181818181818,
                "pitch": 31,
                "velocity": 80,
                "duration": 0.13409090909091503,
                "tempo": 120.0
            },
            {
                "start_time": 90.83181818181818,
                "end_time": 90.94999999999999,
                "pitch": 31,
                "velocity": 80,
                "duration": 0.11818181818181017,
                "tempo": 120.0
            },
            {
                "start_time": 90.94999999999999,
                "end_time": 91.07045454545454,
                "pitch": 31,
                "velocity": 80,
                "duration": 0.12045454545454959,
                "tempo": 120.0
            },
            {
                "start_time": 91.07045454545454,
                "end_time": 91.1840909090909,
                "pitch": 28,
                "velocity": 80,
                "duration": 0.11363636363635976,
                "tempo": 120.0
            },
            {
                "start_time": 91.1840909090909,
                "end_time": 91.30227272727272,
                "pitch": 28,
                "velocity": 80,
                "duration": 0.11818181818182438,
                "tempo": 120.0
            },
            {
                "start_time": 91.30227272727272,
                "end_time": 91.4340909090909,
                "pitch": 28,
                "velocity": 80,
                "duration": 0.13181818181817562,
                "tempo": 120.0
            },
            {
                "start_time": 91.4340909090909,
                "end_time": 91.55227272727272,
                "pitch": 28,
                "velocity": 80,
                "duration": 0.11818181818182438,
                "tempo": 120.0
            },
            {
                "start_time": 91.55454545454545,
                "end_time": 91.67045454545455,
                "pitch": 28,
                "velocity": 80,
                "duration": 0.11590909090909918,
                "tempo": 120.0
            },
            {
                "start_time": 91.67045454545455,
                "end_time": 91.79318181818181,
                "pitch": 28,
                "velocity": 80,
                "duration": 0.12272727272726058,
                "tempo": 120.0
            },
            {
                "start_time": 91.79318181818181,
                "end_time": 91.91136363636363,
                "pitch": 28,
                "velocity": 80,
                "duration": 0.11818181818182438,
                "tempo": 120.0
            },
            {
                "start_time": 91.91136363636363,
                "end_time": 92.04772727272727,
                "pitch": 28,
                "velocity": 80,
                "duration": 0.13636363636364024,
                "tempo": 120.0
            },
            {
                "start_time": 92.05,
                "end_time": 92.16363636363636,
                "pitch": 28,
                "velocity": 80,
                "duration": 0.11363636363635976,
                "tempo": 120.0
            },
            {
                "start_time": 92.16363636363636,
                "end_time": 92.28181818181818,
                "pitch": 28,
                "velocity": 80,
                "duration": 0.11818181818182438,
                "tempo": 120.0
            },
            {
                "start_time": 92.2840909090909,
                "end_time": 92.39772727272727,
                "pitch": 28,
                "velocity": 80,
                "duration": 0.11363636363635976,
                "tempo": 120.0
            },
            {
                "start_time": 92.39772727272727,
                "end_time": 92.51590909090909,
                "pitch": 28,
                "velocity": 80,
                "duration": 0.11818181818182438,
                "tempo": 120.0
            },
            {
                "start_time": 92.51590909090909,
                "end_time": 92.64545454545454,
                "pitch": 28,
                "velocity": 80,
                "duration": 0.1295454545454504,
                "tempo": 120.0
            },
            {
                "start_time": 92.64545454545454,
                "end_time": 92.76136363636363,
                "pitch": 28,
                "velocity": 80,
                "duration": 0.11590909090908497,
                "tempo": 120.0
            },
            {
                "start_time": 92.76136363636363,
                "end_time": 92.87727272727273,
                "pitch": 31,
                "velocity": 80,
                "duration": 0.11590909090909918,
                "tempo": 120.0
            },
            {
                "start_time": 92.87727272727273,
                "end_time": 92.99318181818181,
                "pitch": 31,
                "velocity": 80,
                "duration": 0.11590909090908497,
                "tempo": 120.0
            },
            {
                "start_time": 92.99318181818181,
                "end_time": 93.10909090909091,
                "pitch": 29,
                "velocity": 64,
                "duration": 0.11590909090909918,
                "tempo": 120.0
            },
            {
                "start_time": 93.10909090909091,
                "end_time": 93.24318181818181,
                "pitch": 29,
                "velocity": 64,
                "duration": 0.13409090909090082,
                "tempo": 120.0
            },
            {
                "start_time": 93.24318181818181,
                "end_time": 93.35909090909091,
                "pitch": 41,
                "velocity": 64,
                "duration": 0.11590909090909918,
                "tempo": 120.0
            },
            {
                "start_time": 93.35909090909091,
                "end_time": 93.47727272727272,
                "pitch": 41,
                "velocity": 64,
                "duration": 0.11818181818181017,
                "tempo": 120.0
            },
            {
                "start_time": 93.47727272727272,
                "end_time": 93.59318181818182,
                "pitch": 29,
                "velocity": 64,
                "duration": 0.11590909090909918,
                "tempo": 120.0
            },
            {
                "start_time": 93.59545454545454,
                "end_time": 93.71363636363635,
                "pitch": 29,
                "velocity": 64,
                "duration": 0.11818181818181017,
                "tempo": 120.0
            },
            {
                "start_time": 93.71590909090908,
                "end_time": 93.85227272727272,
                "pitch": 41,
                "velocity": 64,
                "duration": 0.13636363636364024,
                "tempo": 120.0
            },
            {
                "start_time": 93.85227272727272,
                "end_time": 93.97272727272727,
                "pitch": 41,
                "velocity": 64,
                "duration": 0.12045454545454959,
                "tempo": 120.0
            },
            {
                "start_time": 93.97272727272727,
                "end_time": 94.08863636363635,
                "pitch": 29,
                "velocity": 64,
                "duration": 0.11590909090908497,
                "tempo": 120.0
            },
            {
                "start_time": 94.08863636363635,
                "end_time": 94.20681818181818,
                "pitch": 29,
                "velocity": 64,
                "duration": 0.11818181818182438,
                "tempo": 120.0
            },
            {
                "start_time": 94.20681818181818,
                "end_time": 94.32045454545454,
                "pitch": 41,
                "velocity": 64,
                "duration": 0.11363636363635976,
                "tempo": 120.0
            },
            {
                "start_time": 94.32272727272726,
                "end_time": 94.45681818181818,
                "pitch": 41,
                "velocity": 64,
                "duration": 0.13409090909091503,
                "tempo": 120.0
            },
            {
                "start_time": 94.45681818181818,
                "end_time": 94.57272727272726,
                "pitch": 29,
                "velocity": 64,
                "duration": 0.11590909090908497,
                "tempo": 120.0
            },
            {
                "start_time": 94.57272727272726,
                "end_time": 94.69090909090909,
                "pitch": 29,
                "velocity": 64,
                "duration": 0.11818181818182438,
                "tempo": 120.0
            },
            {
                "start_time": 94.69090909090909,
                "end_time": 94.8090909090909,
                "pitch": 41,
                "velocity": 64,
                "duration": 0.11818181818181017,
                "tempo": 120.0
            },
            {
                "start_time": 94.8090909090909,
                "end_time": 94.92727272727272,
                "pitch": 41,
                "velocity": 64,
                "duration": 0.11818181818182438,
                "tempo": 120.0
            },
            {
                "start_time": 94.92727272727272,
                "end_time": 95.05681818181817,
                "pitch": 26,
                "velocity": 64,
                "duration": 0.1295454545454504,
                "tempo": 120.0
            },
            {
                "start_time": 95.05681818181817,
                "end_time": 95.17272727272727,
                "pitch": 26,
                "velocity": 64,
                "duration": 0.11590909090909918,
                "tempo": 120.0
            },
            {
                "start_time": 95.17272727272727,
                "end_time": 95.28863636363636,
                "pitch": 38,
                "velocity": 64,
                "duration": 0.11590909090908497,
                "tempo": 120.0
            },
            {
                "start_time": 95.28863636363636,
                "end_time": 95.40227272727272,
                "pitch": 38,
                "velocity": 64,
                "duration": 0.11363636363635976,
                "tempo": 120.0
            },
            {
                "start_time": 95.40454545454546,
                "end_time": 95.52045454545454,
                "pitch": 26,
                "velocity": 64,
                "duration": 0.11590909090908497,
                "tempo": 120.0
            },
            {
                "start_time": 95.52045454545454,
                "end_time": 95.6590909090909,
                "pitch": 26,
                "velocity": 64,
                "duration": 0.13863636363636545,
                "tempo": 120.0
            },
            {
                "start_time": 95.6590909090909,
                "end_time": 95.77727272727272,
                "pitch": 38,
                "velocity": 64,
                "duration": 0.11818181818181017,
                "tempo": 120.0
            },
            {
                "start_time": 95.77954545454546,
                "end_time": 95.89772727272727,
                "pitch": 38,
                "velocity": 64,
                "duration": 0.11818181818181017,
                "tempo": 120.0
            },
            {
                "start_time": 95.89999999999999,
                "end_time": 96.01590909090909,
                "pitch": 26,
                "velocity": 64,
                "duration": 0.11590909090909918,
                "tempo": 120.0
            },
            {
                "start_time": 96.01590909090909,
                "end_time": 96.13181818181818,
                "pitch": 26,
                "velocity": 64,
                "duration": 0.11590909090908497,
                "tempo": 120.0
            },
            {
                "start_time": 96.1340909090909,
                "end_time": 96.26363636363637,
                "pitch": 38,
                "velocity": 64,
                "duration": 0.12954545454546462,
                "tempo": 120.0
            },
            {
                "start_time": 96.26363636363637,
                "end_time": 96.3840909090909,
                "pitch": 38,
                "velocity": 64,
                "duration": 0.12045454545453538,
                "tempo": 120.0
            },
            {
                "start_time": 96.3840909090909,
                "end_time": 96.49772727272727,
                "pitch": 26,
                "velocity": 64,
                "duration": 0.11363636363637397,
                "tempo": 120.0
            },
            {
                "start_time": 96.5,
                "end_time": 96.61818181818181,
                "pitch": 26,
                "velocity": 64,
                "duration": 0.11818181818181017,
                "tempo": 120.0
            },
            {
                "start_time": 96.61818181818181,
                "end_time": 96.73636363636363,
                "pitch": 38,
                "velocity": 64,
                "duration": 0.11818181818182438,
                "tempo": 120.0
            },
            {
                "start_time": 96.73636363636363,
                "end_time": 96.87045454545454,
                "pitch": 38,
                "velocity": 64,
                "duration": 0.13409090909090082,
                "tempo": 120.0
            },
            {
                "start_time": 96.87045454545454,
                "end_time": 96.98863636363636,
                "pitch": 31,
                "velocity": 64,
                "duration": 0.11818181818182438,
                "tempo": 120.0
            },
            {
                "start_time": 96.98863636363636,
                "end_time": 97.10909090909091,
                "pitch": 31,
                "velocity": 64,
                "duration": 0.12045454545454959,
                "tempo": 120.0
            },
            {
                "start_time": 97.11136363636363,
                "end_time": 97.22954545454544,
                "pitch": 43,
                "velocity": 64,
                "duration": 0.11818181818181017,
                "tempo": 120.0
            },
            {
                "start_time": 97.22954545454544,
                "end_time": 97.35,
                "pitch": 43,
                "velocity": 64,
                "duration": 0.12045454545454959,
                "tempo": 120.0
            },
            {
                "start_time": 97.35,
                "end_time": 97.47954545454544,
                "pitch": 31,
                "velocity": 64,
                "duration": 0.1295454545454504,
                "tempo": 120.0
            },
            {
                "start_time": 97.47954545454544,
                "end_time": 97.59545454545454,
                "pitch": 31,
                "velocity": 64,
                "duration": 0.11590909090909918,
                "tempo": 120.0
            },
            {
                "start_time": 97.59545454545454,
                "end_time": 97.7090909090909,
                "pitch": 43,
                "velocity": 64,
                "duration": 0.11363636363635976,
                "tempo": 120.0
            },
            {
                "start_time": 97.7090909090909,
                "end_time": 97.82499999999999,
                "pitch": 43,
                "velocity": 64,
                "duration": 0.11590909090908497,
                "tempo": 120.0
            },
            {
                "start_time": 97.82499999999999,
                "end_time": 97.94318181818181,
                "pitch": 31,
                "velocity": 64,
                "duration": 0.11818181818182438,
                "tempo": 120.0
            },
            {
                "start_time": 97.94318181818181,
                "end_time": 98.07727272727273,
                "pitch": 31,
                "velocity": 64,
                "duration": 0.13409090909091503,
                "tempo": 120.0
            },
            {
                "start_time": 98.07727272727273,
                "end_time": 98.19545454545454,
                "pitch": 43,
                "velocity": 64,
                "duration": 0.11818181818181017,
                "tempo": 120.0
            },
            {
                "start_time": 98.19545454545454,
                "end_time": 98.31363636363636,
                "pitch": 43,
                "velocity": 64,
                "duration": 0.11818181818182438,
                "tempo": 120.0
            },
            {
                "start_time": 98.31363636363636,
                "end_time": 98.42954545454545,
                "pitch": 31,
                "velocity": 64,
                "duration": 0.11590909090908497,
                "tempo": 120.0
            },
            {
                "start_time": 98.42954545454545,
                "end_time": 98.55,
                "pitch": 31,
                "velocity": 64,
                "duration": 0.12045454545454959,
                "tempo": 120.0
            },
            {
                "start_time": 98.55,
                "end_time": 98.68181818181817,
                "pitch": 43,
                "velocity": 64,
                "duration": 0.13181818181817562,
                "tempo": 120.0
            },
            {
                "start_time": 98.6840909090909,
                "end_time": 98.80227272727272,
                "pitch": 43,
                "velocity": 64,
                "duration": 0.11818181818182438,
                "tempo": 120.0
            },
            {
                "start_time": 98.80227272727272,
                "end_time": 98.92045454545455,
                "pitch": 28,
                "velocity": 64,
                "duration": 0.11818181818182438,
                "tempo": 120.0
            },
            {
                "start_time": 98.92045454545455,
                "end_time": 99.04090909090908,
                "pitch": 28,
                "velocity": 64,
                "duration": 0.12045454545453538,
                "tempo": 120.0
            },
            {
                "start_time": 99.04090909090908,
                "end_time": 99.16136363636363,
                "pitch": 40,
                "velocity": 64,
                "duration": 0.12045454545454959,
                "tempo": 120.0
            },
            {
                "start_time": 99.16136363636363,
                "end_time": 99.29772727272727,
                "pitch": 40,
                "velocity": 64,
                "duration": 0.13636363636364024,
                "tempo": 120.0
            },
            {
                "start_time": 99.29772727272727,
                "end_time": 99.41363636363636,
                "pitch": 28,
                "velocity": 64,
                "duration": 0.11590909090908497,
                "tempo": 120.0
            },
            {
                "start_time": 99.41363636363636,
                "end_time": 99.53181818181818,
                "pitch": 28,
                "velocity": 64,
                "duration": 0.11818181818182438,
                "tempo": 120.0
            },
            {
                "start_time": 99.53181818181818,
                "end_time": 99.64999999999999,
                "pitch": 40,
                "velocity": 64,
                "duration": 0.11818181818181017,
                "tempo": 120.0
            },
            {
                "start_time": 99.64999999999999,
                "end_time": 99.76818181818182,
                "pitch": 40,
                "velocity": 64,
                "duration": 0.11818181818182438,
                "tempo": 120.0
            },
            {
                "start_time": 99.76818181818182,
                "end_time": 99.89772727272727,
                "pitch": 28,
                "velocity": 64,
                "duration": 0.1295454545454504,
                "tempo": 120.0
            },
            {
                "start_time": 99.89999999999999,
                "end_time": 100.01363636363637,
                "pitch": 28,
                "velocity": 64,
                "duration": 0.11363636363637397,
                "tempo": 120.0
            },
            {
                "start_time": 100.01363636363637,
                "end_time": 100.12727272727273,
                "pitch": 40,
                "velocity": 64,
                "duration": 0.11363636363635976,
                "tempo": 120.0
            },
            {
                "start_time": 100.12727272727273,
                "end_time": 100.24545454545454,
                "pitch": 40,
                "velocity": 64,
                "duration": 0.11818181818181017,
                "tempo": 120.0
            },
            {
                "start_time": 100.24545454545454,
                "end_time": 100.36136363636363,
                "pitch": 28,
                "velocity": 64,
                "duration": 0.11590909090909918,
                "tempo": 120.0
            },
            {
                "start_time": 100.36136363636363,
                "end_time": 100.49545454545454,
                "pitch": 28,
                "velocity": 64,
                "duration": 0.13409090909090082,
                "tempo": 120.0
            },
            {
                "start_time": 100.49545454545454,
                "end_time": 100.61363636363636,
                "pitch": 40,
                "velocity": 64,
                "duration": 0.11818181818182438,
                "tempo": 120.0
            },
            {
                "start_time": 100.61363636363636,
                "end_time": 100.73409090909091,
                "pitch": 40,
                "velocity": 64,
                "duration": 0.12045454545454959,
                "tempo": 120.0
            },
            {
                "start_time": 100.73409090909091,
                "end_time": 100.85,
                "pitch": 29,
                "velocity": 64,
                "duration": 0.11590909090908497,
                "tempo": 120.0
            },
            {
                "start_time": 100.85227272727272,
                "end_time": 100.97272727272727,
                "pitch": 29,
                "velocity": 64,
                "duration": 0.12045454545454959,
                "tempo": 120.0
            },
            {
                "start_time": 100.97272727272727,
                "end_time": 101.10909090909091,
                "pitch": 41,
                "velocity": 64,
                "duration": 0.13636363636364024,
                "tempo": 120.0
            },
            {
                "start_time": 101.10909090909091,
                "end_time": 101.22727272727272,
                "pitch": 41,
                "velocity": 64,
                "duration": 0.11818181818181017,
                "tempo": 120.0
            },
            {
                "start_time": 101.22727272727272,
                "end_time": 101.34318181818182,
                "pitch": 29,
                "velocity": 64,
                "duration": 0.11590909090909918,
                "tempo": 120.0
            },
            {
                "start_time": 101.34318181818182,
                "end_time": 101.46363636363635,
                "pitch": 29,
                "velocity": 64,
                "duration": 0.12045454545453538,
                "tempo": 120.0
            },
            {
                "start_time": 101.46363636363635,
                "end_time": 101.57954545454545,
                "pitch": 41,
                "velocity": 64,
                "duration": 0.11590909090909918,
                "tempo": 120.0
            },
            {
                "start_time": 101.58181818181818,
                "end_time": 101.71590909090908,
                "pitch": 41,
                "velocity": 64,
                "duration": 0.13409090909090082,
                "tempo": 120.0
            },
            {
                "start_time": 101.71590909090908,
                "end_time": 101.8340909090909,
                "pitch": 29,
                "velocity": 64,
                "duration": 0.11818181818182438,
                "tempo": 120.0
            },
            {
                "start_time": 101.8340909090909,
                "end_time": 101.95454545454545,
                "pitch": 29,
                "velocity": 64,
                "duration": 0.12045454545454959,
                "tempo": 120.0
            },
            {
                "start_time": 101.95454545454545,
                "end_time": 102.07499999999999,
                "pitch": 41,
                "velocity": 64,
                "duration": 0.12045454545453538,
                "tempo": 120.0
            },
            {
                "start_time": 102.07499999999999,
                "end_time": 102.19545454545454,
                "pitch": 41,
                "velocity": 64,
                "duration": 0.12045454545454959,
                "tempo": 120.0
            },
            {
                "start_time": 102.19545454545454,
                "end_time": 102.32045454545454,
                "pitch": 29,
                "velocity": 64,
                "duration": 0.125,
                "tempo": 120.0
            },
            {
                "start_time": 102.32045454545454,
                "end_time": 102.4340909090909,
                "pitch": 29,
                "velocity": 64,
                "duration": 0.11363636363635976,
                "tempo": 120.0
            },
            {
                "start_time": 102.43636363636364,
                "end_time": 102.54545454545455,
                "pitch": 41,
                "velocity": 64,
                "duration": 0.10909090909090935,
                "tempo": 120.0
            },
            {
                "start_time": 102.54772727272727,
                "end_time": 102.6590909090909,
                "pitch": 41,
                "velocity": 64,
                "duration": 0.11136363636363455,
                "tempo": 120.0
            },
            {
                "start_time": 102.66136363636363,
                "end_time": 102.77499999999999,
                "pitch": 26,
                "velocity": 64,
                "duration": 0.11363636363635976,
                "tempo": 120.0
            },
            {
                "start_time": 102.77499999999999,
                "end_time": 102.91136363636363,
                "pitch": 26,
                "velocity": 64,
                "duration": 0.13636363636364024,
                "tempo": 120.0
            },
            {
                "start_time": 102.91136363636363,
                "end_time": 103.02727272727272,
                "pitch": 38,
                "velocity": 64,
                "duration": 0.11590909090908497,
                "tempo": 120.0
            },
            {
                "start_time": 103.02727272727272,
                "end_time": 103.14318181818182,
                "pitch": 38,
                "velocity": 64,
                "duration": 0.11590909090909918,
                "tempo": 120.0
            },
            {
                "start_time": 103.14318181818182,
                "end_time": 103.26136363636363,
                "pitch": 26,
                "velocity": 64,
                "duration": 0.11818181818181017,
                "tempo": 120.0
            },
            {
                "start_time": 103.26136363636363,
                "end_time": 103.38181818181818,
                "pitch": 26,
                "velocity": 64,
                "duration": 0.12045454545454959,
                "tempo": 120.0
            },
            {
                "start_time": 103.38181818181818,
                "end_time": 103.51818181818182,
                "pitch": 38,
                "velocity": 64,
                "duration": 0.13636363636364024,
                "tempo": 120.0
            },
            {
                "start_time": 103.52045454545454,
                "end_time": 103.63863636363637,
                "pitch": 38,
                "velocity": 64,
                "duration": 0.11818181818182438,
                "tempo": 120.0
            },
            {
                "start_time": 103.63863636363637,
                "end_time": 103.75454545454545,
                "pitch": 26,
                "velocity": 64,
                "duration": 0.11590909090908497,
                "tempo": 120.0
            },
            {
                "start_time": 103.75681818181818,
                "end_time": 103.87272727272726,
                "pitch": 26,
                "velocity": 64,
                "duration": 0.11590909090908497,
                "tempo": 120.0
            },
            {
                "start_time": 103.87272727272726,
                "end_time": 103.98863636363636,
                "pitch": 38,
                "velocity": 64,
                "duration": 0.11590909090909918,
                "tempo": 120.0
            },
            {
                "start_time": 103.98863636363636,
                "end_time": 104.12272727272726,
                "pitch": 38,
                "velocity": 64,
                "duration": 0.13409090909090082,
                "tempo": 120.0
            },
            {
                "start_time": 104.125,
                "end_time": 104.24090909090908,
                "pitch": 26,
                "velocity": 64,
                "duration": 0.11590909090908497,
                "tempo": 120.0
            },
            {
                "start_time": 104.24090909090908,
                "end_time": 104.36363636363636,
                "pitch": 26,
                "velocity": 64,
                "duration": 0.1227272727272748,
                "tempo": 120.0
            },
            {
                "start_time": 104.36363636363636,
                "end_time": 104.48181818181817,
                "pitch": 38,
                "velocity": 64,
                "duration": 0.11818181818181017,
                "tempo": 120.0
            },
            {
                "start_time": 104.48181818181817,
                "end_time": 104.60227272727272,
                "pitch": 38,
                "velocity": 64,
                "duration": 0.12045454545454959,
                "tempo": 120.0
            },
            {
                "start_time": 104.60227272727272,
                "end_time": 104.73181818181817,
                "pitch": 31,
                "velocity": 64,
                "duration": 0.1295454545454504,
                "tempo": 120.0
            },
            {
                "start_time": 104.73409090909091,
                "end_time": 104.84772727272727,
                "pitch": 31,
                "velocity": 64,
                "duration": 0.11363636363635976,
                "tempo": 120.0
            },
            {
                "start_time": 104.85,
                "end_time": 104.96363636363635,
                "pitch": 43,
                "velocity": 64,
                "duration": 0.11363636363635976,
                "tempo": 120.0
            },
            {
                "start_time": 104.96363636363635,
                "end_time": 105.07954545454545,
                "pitch": 43,
                "velocity": 64,
                "duration": 0.11590909090909918,
                "tempo": 120.0
            },
            {
                "start_time": 105.07954545454545,
                "end_time": 105.19545454545454,
                "pitch": 31,
                "velocity": 64,
                "duration": 0.11590909090908497,
                "tempo": 120.0
            },
            {
                "start_time": 105.19545454545454,
                "end_time": 105.32954545454545,
                "pitch": 31,
                "velocity": 64,
                "duration": 0.13409090909091503,
                "tempo": 120.0
            },
            {
                "start_time": 105.32954545454545,
                "end_time": 105.44772727272726,
                "pitch": 43,
                "velocity": 64,
                "duration": 0.11818181818181017,
                "tempo": 120.0
            },
            {
                "start_time": 105.44772727272726,
                "end_time": 105.56590909090909,
                "pitch": 43,
                "velocity": 64,
                "duration": 0.11818181818182438,
                "tempo": 120.0
            },
            {
                "start_time": 105.56590909090909,
                "end_time": 105.6840909090909,
                "pitch": 31,
                "velocity": 64,
                "duration": 0.11818181818181017,
                "tempo": 120.0
            },
            {
                "start_time": 105.68636363636364,
                "end_time": 105.80681818181817,
                "pitch": 31,
                "velocity": 64,
                "duration": 0.12045454545453538,
                "tempo": 120.0
            },
            {
                "start_time": 105.80681818181817,
                "end_time": 105.94090909090909,
                "pitch": 43,
                "velocity": 64,
                "duration": 0.13409090909091503,
                "tempo": 120.0
            },
            {
                "start_time": 105.94090909090909,
                "end_time": 106.06136363636364,
                "pitch": 43,
                "velocity": 64,
                "duration": 0.12045454545454959,
                "tempo": 120.0
            },
            {
                "start_time": 106.06363636363636,
                "end_time": 106.17727272727272,
                "pitch": 31,
                "velocity": 64,
                "duration": 0.11363636363635976,
                "tempo": 120.0
            },
            {
                "start_time": 106.17727272727272,
                "end_time": 106.29772727272727,
                "pitch": 31,
                "velocity": 64,
                "duration": 0.12045454545454959,
                "tempo": 120.0
            },
            {
                "start_time": 106.29772727272727,
                "end_time": 106.41363636363636,
                "pitch": 43,
                "velocity": 64,
                "duration": 0.11590909090908497,
                "tempo": 120.0
            },
            {
                "start_time": 106.41363636363636,
                "end_time": 106.55,
                "pitch": 43,
                "velocity": 64,
                "duration": 0.13636363636364024,
                "tempo": 120.0
            },
            {
                "start_time": 106.55,
                "end_time": 106.66590909090908,
                "pitch": 28,
                "velocity": 64,
                "duration": 0.11590909090908497,
                "tempo": 120.0
            },
            {
                "start_time": 106.66590909090908,
                "end_time": 106.7840909090909,
                "pitch": 28,
                "velocity": 64,
                "duration": 0.11818181818182438,
                "tempo": 120.0
            },
            {
                "start_time": 106.7840909090909,
                "end_time": 106.89999999999999,
                "pitch": 40,
                "velocity": 64,
                "duration": 0.11590909090908497,
                "tempo": 120.0
            },
            {
                "start_time": 106.89999999999999,
                "end_time": 107.01818181818182,
                "pitch": 40,
                "velocity": 64,
                "duration": 0.11818181818182438,
                "tempo": 120.0
            },
            {
                "start_time": 107.01818181818182,
                "end_time": 107.14772727272727,
                "pitch": 28,
                "velocity": 64,
                "duration": 0.1295454545454504,
                "tempo": 120.0
            },
            {
                "start_time": 107.14772727272727,
                "end_time": 107.26363636363637,
                "pitch": 28,
                "velocity": 64,
                "duration": 0.11590909090909918,
                "tempo": 120.0
            },
            {
                "start_time": 107.26363636363637,
                "end_time": 107.37727272727273,
                "pitch": 40,
                "velocity": 64,
                "duration": 0.11363636363635976,
                "tempo": 120.0
            },
            {
                "start_time": 107.37727272727273,
                "end_time": 107.49318181818181,
                "pitch": 40,
                "velocity": 64,
                "duration": 0.11590909090908497,
                "tempo": 120.0
            },
            {
                "start_time": 107.49318181818181,
                "end_time": 107.61136363636363,
                "pitch": 28,
                "velocity": 64,
                "duration": 0.11818181818182438,
                "tempo": 120.0
            },
            {
                "start_time": 107.61136363636363,
                "end_time": 107.75,
                "pitch": 28,
                "velocity": 64,
                "duration": 0.13863636363636545,
                "tempo": 120.0
            },
            {
                "start_time": 107.75,
                "end_time": 107.86818181818181,
                "pitch": 40,
                "velocity": 64,
                "duration": 0.11818181818181017,
                "tempo": 120.0
            },
            {
                "start_time": 107.86818181818181,
                "end_time": 107.98863636363636,
                "pitch": 40,
                "velocity": 64,
                "duration": 0.12045454545454959,
                "tempo": 120.0
            },
            {
                "start_time": 107.98863636363636,
                "end_time": 108.10681818181817,
                "pitch": 28,
                "velocity": 64,
                "duration": 0.11818181818181017,
                "tempo": 120.0
            },
            {
                "start_time": 108.10681818181817,
                "end_time": 108.22272727272727,
                "pitch": 28,
                "velocity": 64,
                "duration": 0.11590909090909918,
                "tempo": 120.0
            },
            {
                "start_time": 108.225,
                "end_time": 108.35909090909091,
                "pitch": 40,
                "velocity": 64,
                "duration": 0.13409090909091503,
                "tempo": 120.0
            },
            {
                "start_time": 108.35909090909091,
                "end_time": 108.47727272727272,
                "pitch": 40,
                "velocity": 64,
                "duration": 0.11818181818181017,
                "tempo": 120.0
            },
            {
                "start_time": 108.47727272727272,
                "end_time": 108.59318181818182,
                "pitch": 28,
                "velocity": 64,
                "duration": 0.11590909090909918,
                "tempo": 120.0
            },
            {
                "start_time": 108.59318181818182,
                "end_time": 108.71136363636363,
                "pitch": 28,
                "velocity": 64,
                "duration": 0.11818181818181017,
                "tempo": 120.0
            },
            {
                "start_time": 108.71136363636363,
                "end_time": 108.82727272727273,
                "pitch": 40,
                "velocity": 64,
                "duration": 0.11590909090909918,
                "tempo": 120.0
            },
            {
                "start_time": 108.82727272727273,
                "end_time": 108.96136363636363,
                "pitch": 40,
                "velocity": 64,
                "duration": 0.13409090909090082,
                "tempo": 120.0
            },
            {
                "start_time": 108.96136363636363,
                "end_time": 109.07727272727273,
                "pitch": 28,
                "velocity": 64,
                "duration": 0.11590909090909918,
                "tempo": 120.0
            },
            {
                "start_time": 109.07727272727273,
                "end_time": 109.19545454545454,
                "pitch": 28,
                "velocity": 64,
                "duration": 0.11818181818181017,
                "tempo": 120.0
            },
            {
                "start_time": 109.19545454545454,
                "end_time": 109.31363636363636,
                "pitch": 40,
                "velocity": 64,
                "duration": 0.11818181818182438,
                "tempo": 120.0
            },
            {
                "start_time": 109.31363636363636,
                "end_time": 109.43181818181817,
                "pitch": 40,
                "velocity": 64,
                "duration": 0.11818181818181017,
                "tempo": 120.0
            },
            {
                "start_time": 109.43181818181817,
                "end_time": 109.56590909090909,
                "pitch": 28,
                "velocity": 64,
                "duration": 0.13409090909091503,
                "tempo": 120.0
            },
            {
                "start_time": 109.56590909090909,
                "end_time": 109.6840909090909,
                "pitch": 28,
                "velocity": 64,
                "duration": 0.11818181818181017,
                "tempo": 120.0
            },
            {
                "start_time": 109.6840909090909,
                "end_time": 109.8,
                "pitch": 40,
                "velocity": 64,
                "duration": 0.11590909090909918,
                "tempo": 120.0
            },
            {
                "start_time": 109.80227272727272,
                "end_time": 109.92045454545455,
                "pitch": 40,
                "velocity": 64,
                "duration": 0.11818181818182438,
                "tempo": 120.0
            },
            {
                "start_time": 109.92045454545455,
                "end_time": 110.0340909090909,
                "pitch": 28,
                "velocity": 64,
                "duration": 0.11363636363635976,
                "tempo": 120.0
            },
            {
                "start_time": 110.0340909090909,
                "end_time": 110.17045454545455,
                "pitch": 28,
                "velocity": 64,
                "duration": 0.13636363636364024,
                "tempo": 120.0
            },
            {
                "start_time": 110.17045454545455,
                "end_time": 110.28636363636363,
                "pitch": 40,
                "velocity": 64,
                "duration": 0.11590909090908497,
                "tempo": 120.0
            },
            {
                "start_time": 110.28636363636363,
                "end_time": 110.40454545454546,
                "pitch": 40,
                "velocity": 64,
                "duration": 0.11818181818182438,
                "tempo": 120.0
            },
            {
                "start_time": 110.40454545454546,
                "end_time": 110.52045454545454,
                "pitch": 25,
                "velocity": 64,
                "duration": 0.11590909090908497,
                "tempo": 120.0
            },
            {
                "start_time": 110.52045454545454,
                "end_time": 110.63863636363635,
                "pitch": 25,
                "velocity": 64,
                "duration": 0.11818181818181017,
                "tempo": 120.0
            },
            {
                "start_time": 110.63863636363635,
                "end_time": 110.77272727272727,
                "pitch": 37,
                "velocity": 64,
                "duration": 0.13409090909091503,
                "tempo": 120.0
            },
            {
                "start_time": 110.77499999999999,
                "end_time": 110.89090909090909,
                "pitch": 37,
                "velocity": 64,
                "duration": 0.11590909090909918,
                "tempo": 120.0
            },
            {
                "start_time": 110.89090909090909,
                "end_time": 111.00681818181818,
                "pitch": 25,
                "velocity": 64,
                "duration": 0.11590909090908497,
                "tempo": 120.0
            },
            {
                "start_time": 111.00681818181818,
                "end_time": 111.125,
                "pitch": 25,
                "velocity": 64,
                "duration": 0.11818181818182438,
                "tempo": 120.0
            },
            {
                "start_time": 111.12727272727273,
                "end_time": 111.24318181818181,
                "pitch": 37,
                "velocity": 64,
                "duration": 0.11590909090908497,
                "tempo": 120.0
            },
            {
                "start_time": 111.24318181818181,
                "end_time": 111.37954545454545,
                "pitch": 37,
                "velocity": 64,
                "duration": 0.13636363636364024,
                "tempo": 120.0
            },
            {
                "start_time": 111.37954545454545,
                "end_time": 111.49772727272726,
                "pitch": 25,
                "velocity": 64,
                "duration": 0.11818181818181017,
                "tempo": 120.0
            },
            {
                "start_time": 111.49772727272726,
                "end_time": 111.61818181818181,
                "pitch": 25,
                "velocity": 64,
                "duration": 0.12045454545454959,
                "tempo": 120.0
            },
            {
                "start_time": 111.61818181818181,
                "end_time": 111.73636363636363,
                "pitch": 37,
                "velocity": 64,
                "duration": 0.11818181818182438,
                "tempo": 120.0
            },
            {
                "start_time": 111.73636363636363,
                "end_time": 111.85909090909091,
                "pitch": 37,
                "velocity": 64,
                "duration": 0.1227272727272748,
                "tempo": 120.0
            },
            {
                "start_time": 111.85909090909091,
                "end_time": 111.98863636363636,
                "pitch": 25,
                "velocity": 64,
                "duration": 0.1295454545454504,
                "tempo": 120.0
            },
            {
                "start_time": 111.98863636363636,
                "end_time": 112.10454545454544,
                "pitch": 25,
                "velocity": 64,
                "duration": 0.11590909090908497,
                "tempo": 120.0
            },
            {
                "start_time": 112.10454545454544,
                "end_time": 112.21818181818182,
                "pitch": 37,
                "velocity": 64,
                "duration": 0.11363636363637397,
                "tempo": 120.0
            },
            {
                "start_time": 112.21818181818182,
                "end_time": 112.3340909090909,
                "pitch": 37,
                "velocity": 64,
                "duration": 0.11590909090908497,
                "tempo": 120.0
            },
            {
                "start_time": 112.3340909090909,
                "end_time": 112.45227272727273,
                "pitch": 30,
                "velocity": 64,
                "duration": 0.11818181818182438,
                "tempo": 120.0
            },
            {
                "start_time": 112.45227272727273,
                "end_time": 112.58636363636363,
                "pitch": 30,
                "velocity": 64,
                "duration": 0.13409090909090082,
                "tempo": 120.0
            },
            {
                "start_time": 112.58636363636363,
                "end_time": 112.70454545454545,
                "pitch": 42,
                "velocity": 64,
                "duration": 0.11818181818182438,
                "tempo": 120.0
            },
            {
                "start_time": 112.70454545454545,
                "end_time": 112.82272727272726,
                "pitch": 42,
                "velocity": 64,
                "duration": 0.11818181818181017,
                "tempo": 120.0
            },
            {
                "start_time": 112.82272727272726,
                "end_time": 112.93863636363636,
                "pitch": 30,
                "velocity": 64,
                "duration": 0.11590909090909918,
                "tempo": 120.0
            },
            {
                "start_time": 112.93863636363636,
                "end_time": 113.05681818181817,
                "pitch": 30,
                "velocity": 64,
                "duration": 0.11818181818181017,
                "tempo": 120.0
            },
            {
                "start_time": 113.05681818181817,
                "end_time": 113.19090909090909,
                "pitch": 42,
                "velocity": 64,
                "duration": 0.13409090909091503,
                "tempo": 120.0
            },
            {
                "start_time": 113.19090909090909,
                "end_time": 113.3090909090909,
                "pitch": 42,
                "velocity": 64,
                "duration": 0.11818181818181017,
                "tempo": 120.0
            },
            {
                "start_time": 113.3090909090909,
                "end_time": 113.42954545454545,
                "pitch": 30,
                "velocity": 64,
                "duration": 0.12045454545454959,
                "tempo": 120.0
            },
            {
                "start_time": 113.42954545454545,
                "end_time": 113.55,
                "pitch": 30,
                "velocity": 64,
                "duration": 0.12045454545454959,
                "tempo": 120.0
            },
            {
                "start_time": 113.55,
                "end_time": 113.66818181818181,
                "pitch": 42,
                "velocity": 64,
                "duration": 0.11818181818181017,
                "tempo": 120.0
            },
            {
                "start_time": 113.66818181818181,
                "end_time": 113.80681818181817,
                "pitch": 42,
                "velocity": 64,
                "duration": 0.13863636363636545,
                "tempo": 120.0
            },
            {
                "start_time": 113.80681818181817,
                "end_time": 113.92045454545455,
                "pitch": 30,
                "velocity": 64,
                "duration": 0.11363636363637397,
                "tempo": 120.0
            },
            {
                "start_time": 113.92272727272727,
                "end_time": 114.04090909090908,
                "pitch": 30,
                "velocity": 64,
                "duration": 0.11818181818181017,
                "tempo": 120.0
            },
            {
                "start_time": 114.04090909090908,
                "end_time": 114.1590909090909,
                "pitch": 42,
                "velocity": 64,
                "duration": 0.11818181818182438,
                "tempo": 120.0
            },
            {
                "start_time": 114.1590909090909,
                "end_time": 114.27727272727272,
                "pitch": 42,
                "velocity": 64,
                "duration": 0.11818181818181017,
                "tempo": 120.0
            },
            {
                "start_time": 114.27727272727272,
                "end_time": 114.40681818181818,
                "pitch": 27,
                "velocity": 64,
                "duration": 0.12954545454546462,
                "tempo": 120.0
            },
            {
                "start_time": 114.40681818181818,
                "end_time": 114.52272727272727,
                "pitch": 27,
                "velocity": 64,
                "duration": 0.11590909090908497,
                "tempo": 120.0
            },
            {
                "start_time": 114.52272727272727,
                "end_time": 114.63863636363635,
                "pitch": 39,
                "velocity": 64,
                "duration": 0.11590909090908497,
                "tempo": 120.0
            },
            {
                "start_time": 114.63863636363635,
                "end_time": 114.75227272727273,
                "pitch": 39,
                "velocity": 64,
                "duration": 0.11363636363637397,
                "tempo": 120.0
            },
            {
                "start_time": 114.75227272727273,
                "end_time": 114.86818181818181,
                "pitch": 27,
                "velocity": 64,
                "duration": 0.11590909090908497,
                "tempo": 120.0
            },
            {
                "start_time": 114.86818181818181,
                "end_time": 115.00454545454545,
                "pitch": 27,
                "velocity": 64,
                "duration": 0.13636363636364024,
                "tempo": 120.0
            },
            {
                "start_time": 115.00454545454545,
                "end_time": 115.12272727272726,
                "pitch": 39,
                "velocity": 64,
                "duration": 0.11818181818181017,
                "tempo": 120.0
            },
            {
                "start_time": 115.12272727272726,
                "end_time": 115.24090909090908,
                "pitch": 39,
                "velocity": 64,
                "duration": 0.11818181818182438,
                "tempo": 120.0
            },
            {
                "start_time": 115.24090909090908,
                "end_time": 115.35909090909091,
                "pitch": 27,
                "velocity": 64,
                "duration": 0.11818181818182438,
                "tempo": 120.0
            },
            {
                "start_time": 115.35909090909091,
                "end_time": 115.47954545454544,
                "pitch": 27,
                "velocity": 64,
                "duration": 0.12045454545453538,
                "tempo": 120.0
            },
            {
                "start_time": 115.47954545454544,
                "end_time": 115.61590909090908,
                "pitch": 39,
                "velocity": 64,
                "duration": 0.13636363636364024,
                "tempo": 120.0
            },
            {
                "start_time": 115.61590909090908,
                "end_time": 115.73636363636363,
                "pitch": 39,
                "velocity": 64,
                "duration": 0.12045454545454959,
                "tempo": 120.0
            },
            {
                "start_time": 115.73636363636363,
                "end_time": 115.85454545454544,
                "pitch": 27,
                "velocity": 64,
                "duration": 0.11818181818181017,
                "tempo": 120.0
            },
            {
                "start_time": 115.85454545454544,
                "end_time": 115.97045454545454,
                "pitch": 27,
                "velocity": 64,
                "duration": 0.11590909090909918,
                "tempo": 120.0
            },
            {
                "start_time": 115.97272727272727,
                "end_time": 116.08863636363635,
                "pitch": 39,
                "velocity": 64,
                "duration": 0.11590909090908497,
                "tempo": 120.0
            },
            {
                "start_time": 116.08863636363635,
                "end_time": 116.225,
                "pitch": 39,
                "velocity": 64,
                "duration": 0.13636363636364024,
                "tempo": 120.0
            },
            {
                "start_time": 116.225,
                "end_time": 116.34090909090908,
                "pitch": 28,
                "velocity": 64,
                "duration": 0.11590909090908497,
                "tempo": 120.0
            },
            {
                "start_time": 116.34090909090908,
                "end_time": 116.4590909090909,
                "pitch": 28,
                "velocity": 64,
                "duration": 0.11818181818182438,
                "tempo": 120.0
            },
            {
                "start_time": 116.4590909090909,
                "end_time": 116.57499999999999,
                "pitch": 40,
                "velocity": 64,
                "duration": 0.11590909090908497,
                "tempo": 120.0
            },
            {
                "start_time": 116.57499999999999,
                "end_time": 116.69090909090909,
                "pitch": 40,
                "velocity": 64,
                "duration": 0.11590909090909918,
                "tempo": 120.0
            },
            {
                "start_time": 116.69090909090909,
                "end_time": 116.82045454545454,
                "pitch": 28,
                "velocity": 64,
                "duration": 0.1295454545454504,
                "tempo": 120.0
            },
            {
                "start_time": 116.82045454545454,
                "end_time": 116.93636363636364,
                "pitch": 28,
                "velocity": 64,
                "duration": 0.11590909090909918,
                "tempo": 120.0
            },
            {
                "start_time": 116.93636363636364,
                "end_time": 117.05227272727272,
                "pitch": 40,
                "velocity": 64,
                "duration": 0.11590909090908497,
                "tempo": 120.0
            },
            {
                "start_time": 117.05227272727272,
                "end_time": 117.16818181818181,
                "pitch": 40,
                "velocity": 64,
                "duration": 0.11590909090908497,
                "tempo": 120.0
            },
            {
                "start_time": 117.16818181818181,
                "end_time": 117.28636363636363,
                "pitch": 28,
                "velocity": 64,
                "duration": 0.11818181818182438,
                "tempo": 120.0
            },
            {
                "start_time": 117.28636363636363,
                "end_time": 117.425,
                "pitch": 28,
                "velocity": 64,
                "duration": 0.13863636363636545,
                "tempo": 120.0
            },
            {
                "start_time": 117.425,
                "end_time": 117.54318181818181,
                "pitch": 40,
                "velocity": 64,
                "duration": 0.11818181818181017,
                "tempo": 120.0
            },
            {
                "start_time": 117.54318181818181,
                "end_time": 117.66363636363636,
                "pitch": 40,
                "velocity": 64,
                "duration": 0.12045454545454959,
                "tempo": 120.0
            },
            {
                "start_time": 117.66363636363636,
                "end_time": 117.77954545454544,
                "pitch": 28,
                "velocity": 64,
                "duration": 0.11590909090908497,
                "tempo": 120.0
            },
            {
                "start_time": 117.77954545454544,
                "end_time": 117.89999999999999,
                "pitch": 28,
                "velocity": 64,
                "duration": 0.12045454545454959,
                "tempo": 120.0
            },
            {
                "start_time": 117.89999999999999,
                "end_time": 118.03181818181818,
                "pitch": 40,
                "velocity": 64,
                "duration": 0.13181818181818983,
                "tempo": 120.0
            },
            {
                "start_time": 118.0340909090909,
                "end_time": 118.15227272727272,
                "pitch": 40,
                "velocity": 64,
                "duration": 0.11818181818181017,
                "tempo": 120.0
            },
            {
                "start_time": 118.15227272727272,
                "end_time": 118.26818181818182,
                "pitch": 25,
                "velocity": 64,
                "duration": 0.11590909090909918,
                "tempo": 120.0
            },
            {
                "start_time": 118.26818181818182,
                "end_time": 118.3840909090909,
                "pitch": 25,
                "velocity": 64,
                "duration": 0.11590909090908497,
                "tempo": 120.0
            },
            {
                "start_time": 118.38636363636363,
                "end_time": 118.50227272727273,
                "pitch": 37,
                "velocity": 64,
                "duration": 0.11590909090909918,
                "tempo": 120.0
            },
            {
                "start_time": 118.50227272727273,
                "end_time": 118.63636363636363,
                "pitch": 37,
                "velocity": 64,
                "duration": 0.13409090909090082,
                "tempo": 120.0
            },
            {
                "start_time": 118.63636363636363,
                "end_time": 118.75227272727273,
                "pitch": 25,
                "velocity": 64,
                "duration": 0.11590909090909918,
                "tempo": 120.0
            },
            {
                "start_time": 118.75227272727273,
                "end_time": 118.87272727272726,
                "pitch": 25,
                "velocity": 64,
                "duration": 0.12045454545453538,
                "tempo": 120.0
            },
            {
                "start_time": 118.87272727272726,
                "end_time": 118.99318181818181,
                "pitch": 37,
                "velocity": 64,
                "duration": 0.12045454545454959,
                "tempo": 120.0
            },
            {
                "start_time": 118.99318181818181,
                "end_time": 119.11363636363636,
                "pitch": 37,
                "velocity": 64,
                "duration": 0.12045454545454959,
                "tempo": 120.0
            },
            {
                "start_time": 119.11363636363636,
                "end_time": 119.24545454545454,
                "pitch": 25,
                "velocity": 64,
                "duration": 0.13181818181817562,
                "tempo": 120.0
            },
            {
                "start_time": 119.24545454545454,
                "end_time": 119.36136363636363,
                "pitch": 25,
                "velocity": 64,
                "duration": 0.11590909090909918,
                "tempo": 120.0
            },
            {
                "start_time": 119.36136363636363,
                "end_time": 119.47272727272727,
                "pitch": 37,
                "velocity": 64,
                "duration": 0.11136363636363455,
                "tempo": 120.0
            },
            {
                "start_time": 119.47272727272727,
                "end_time": 119.59090909090908,
                "pitch": 37,
                "velocity": 64,
                "duration": 0.11818181818181017,
                "tempo": 120.0
            },
            {
                "start_time": 119.59090909090908,
                "end_time": 119.70454545454545,
                "pitch": 25,
                "velocity": 64,
                "duration": 0.11363636363637397,
                "tempo": 120.0
            },
            {
                "start_time": 119.70454545454545,
                "end_time": 119.84090909090908,
                "pitch": 25,
                "velocity": 64,
                "duration": 0.13636363636362603,
                "tempo": 120.0
            },
            {
                "start_time": 119.84090909090908,
                "end_time": 119.95681818181818,
                "pitch": 37,
                "velocity": 64,
                "duration": 0.11590909090909918,
                "tempo": 120.0
            },
            {
                "start_time": 119.95681818181818,
                "end_time": 120.07499999999999,
                "pitch": 37,
                "velocity": 64,
                "duration": 0.11818181818181017,
                "tempo": 120.0
            },
            {
                "start_time": 120.07499999999999,
                "end_time": 120.19090909090909,
                "pitch": 30,
                "velocity": 64,
                "duration": 0.11590909090909918,
                "tempo": 120.0
            },
            {
                "start_time": 120.19090909090909,
                "end_time": 120.3090909090909,
                "pitch": 30,
                "velocity": 64,
                "duration": 0.11818181818181017,
                "tempo": 120.0
            },
            {
                "start_time": 120.3090909090909,
                "end_time": 120.44545454545454,
                "pitch": 42,
                "velocity": 64,
                "duration": 0.13636363636364024,
                "tempo": 120.0
            },
            {
                "start_time": 120.44545454545454,
                "end_time": 120.56136363636364,
                "pitch": 42,
                "velocity": 64,
                "duration": 0.11590909090909918,
                "tempo": 120.0
            },
            {
                "start_time": 120.56136363636364,
                "end_time": 120.67954545454545,
                "pitch": 30,
                "velocity": 64,
                "duration": 0.11818181818181017,
                "tempo": 120.0
            },
            {
                "start_time": 120.67954545454545,
                "end_time": 120.8,
                "pitch": 30,
                "velocity": 64,
                "duration": 0.12045454545454959,
                "tempo": 120.0
            },
            {
                "start_time": 120.8,
                "end_time": 120.92045454545453,
                "pitch": 42,
                "velocity": 64,
                "duration": 0.12045454545453538,
                "tempo": 120.0
            },
            {
                "start_time": 120.92045454545453,
                "end_time": 121.05681818181817,
                "pitch": 42,
                "velocity": 64,
                "duration": 0.13636363636364024,
                "tempo": 120.0
            },
            {
                "start_time": 121.0590909090909,
                "end_time": 121.17272727272727,
                "pitch": 30,
                "velocity": 64,
                "duration": 0.11363636363637397,
                "tempo": 120.0
            },
            {
                "start_time": 121.175,
                "end_time": 121.29090909090908,
                "pitch": 30,
                "velocity": 64,
                "duration": 0.11590909090908497,
                "tempo": 120.0
            },
            {
                "start_time": 121.29090909090908,
                "end_time": 121.40681818181818,
                "pitch": 42,
                "velocity": 64,
                "duration": 0.11590909090909918,
                "tempo": 120.0
            },
            {
                "start_time": 121.40681818181818,
                "end_time": 121.52499999999999,
                "pitch": 42,
                "velocity": 64,
                "duration": 0.11818181818181017,
                "tempo": 120.0
            },
            {
                "start_time": 121.52499999999999,
                "end_time": 121.65454545454544,
                "pitch": 30,
                "velocity": 64,
                "duration": 0.1295454545454504,
                "tempo": 120.0
            },
            {
                "start_time": 121.65454545454544,
                "end_time": 121.77045454545454,
                "pitch": 30,
                "velocity": 64,
                "duration": 0.11590909090909918,
                "tempo": 120.0
            },
            {
                "start_time": 121.77272727272727,
                "end_time": 121.88636363636363,
                "pitch": 42,
                "velocity": 64,
                "duration": 0.11363636363635976,
                "tempo": 120.0
            },
            {
                "start_time": 121.88636363636363,
                "end_time": 122.00227272727273,
                "pitch": 42,
                "velocity": 64,
                "duration": 0.11590909090909918,
                "tempo": 120.0
            },
            {
                "start_time": 122.00227272727273,
                "end_time": 122.11818181818181,
                "pitch": 27,
                "velocity": 64,
                "duration": 0.11590909090908497,
                "tempo": 120.0
            },
            {
                "start_time": 122.11818181818181,
                "end_time": 122.25454545454545,
                "pitch": 27,
                "velocity": 64,
                "duration": 0.13636363636364024,
                "tempo": 120.0
            },
            {
                "start_time": 122.25454545454545,
                "end_time": 122.37272727272726,
                "pitch": 39,
                "velocity": 64,
                "duration": 0.11818181818181017,
                "tempo": 120.0
            },
            {
                "start_time": 122.37272727272726,
                "end_time": 122.48863636363636,
                "pitch": 39,
                "velocity": 64,
                "duration": 0.11590909090909918,
                "tempo": 120.0
            },
            {
                "start_time": 122.48863636363636,
                "end_time": 122.60454545454544,
                "pitch": 27,
                "velocity": 64,
                "duration": 0.11590909090908497,
                "tempo": 120.0
            },
            {
                "start_time": 122.60454545454544,
                "end_time": 122.72272727272727,
                "pitch": 27,
                "velocity": 64,
                "duration": 0.11818181818182438,
                "tempo": 120.0
            },
            {
                "start_time": 122.725,
                "end_time": 122.85909090909091,
                "pitch": 39,
                "velocity": 64,
                "duration": 0.13409090909091503,
                "tempo": 120.0
            },
            {
                "start_time": 122.85909090909091,
                "end_time": 122.975,
                "pitch": 39,
                "velocity": 64,
                "duration": 0.11590909090908497,
                "tempo": 120.0
            },
            {
                "start_time": 122.97727272727272,
                "end_time": 123.09545454545454,
                "pitch": 27,
                "velocity": 64,
                "duration": 0.11818181818182438,
                "tempo": 120.0
            },
            {
                "start_time": 123.09545454545454,
                "end_time": 123.21590909090908,
                "pitch": 27,
                "velocity": 64,
                "duration": 0.12045454545453538,
                "tempo": 120.0
            },
            {
                "start_time": 123.21590909090908,
                "end_time": 123.3340909090909,
                "pitch": 39,
                "velocity": 64,
                "duration": 0.11818181818182438,
                "tempo": 120.0
            },
            {
                "start_time": 123.3340909090909,
                "end_time": 123.46363636363635,
                "pitch": 39,
                "velocity": 64,
                "duration": 0.1295454545454504,
                "tempo": 120.0
            },
            {
                "start_time": 123.46363636363635,
                "end_time": 123.56590909090909,
                "pitch": 27,
                "velocity": 64,
                "duration": 0.10227272727273373,
                "tempo": 120.0
            },
            {
                "start_time": 123.56590909090909,
                "end_time": 123.66818181818181,
                "pitch": 27,
                "velocity": 64,
                "duration": 0.10227272727271952,
                "tempo": 120.0
            },
            {
                "start_time": 123.66818181818181,
                "end_time": 123.77045454545454,
                "pitch": 39,
                "velocity": 64,
                "duration": 0.10227272727273373,
                "tempo": 120.0
            }
        ],
        "Harpsichord": [
            {
                "start_time": 69.8,
                "end_time": 69.91363636363636,
                "pitch": 69,
                "velocity": 32,
                "duration": 0.11363636363635976,
                "tempo": 120.0
            },
            {
                "start_time": 69.91363636363636,
                "end_time": 70.02954545454546,
                "pitch": 64,
                "velocity": 32,
                "duration": 0.11590909090909918,
                "tempo": 120.0
            },
            {
                "start_time": 70.02954545454546,
                "end_time": 70.14545454545454,
                "pitch": 57,
                "velocity": 32,
                "duration": 0.11590909090908497,
                "tempo": 120.0
            },
            {
                "start_time": 70.14772727272727,
                "end_time": 70.27954545454546,
                "pitch": 64,
                "velocity": 32,
                "duration": 0.13181818181818983,
                "tempo": 120.0
            },
            {
                "start_time": 70.27954545454546,
                "end_time": 70.39772727272727,
                "pitch": 69,
                "velocity": 32,
                "duration": 0.11818181818181017,
                "tempo": 120.0
            },
            {
                "start_time": 70.39772727272727,
                "end_time": 70.51590909090909,
                "pitch": 64,
                "velocity": 32,
                "duration": 0.11818181818182438,
                "tempo": 120.0
            },
            {
                "start_time": 70.51590909090909,
                "end_time": 70.6340909090909,
                "pitch": 57,
                "velocity": 32,
                "duration": 0.11818181818181017,
                "tempo": 120.0
            },
            {
                "start_time": 70.6340909090909,
                "end_time": 70.75,
                "pitch": 64,
                "velocity": 32,
                "duration": 0.11590909090909918,
                "tempo": 120.0
            },
            {
                "start_time": 70.75,
                "end_time": 70.88636363636363,
                "pitch": 69,
                "velocity": 32,
                "duration": 0.13636363636362603,
                "tempo": 120.0
            },
            {
                "start_time": 70.88636363636363,
                "end_time": 71.00227272727273,
                "pitch": 64,
                "velocity": 32,
                "duration": 0.11590909090909918,
                "tempo": 120.0
            },
            {
                "start_time": 71.00454545454545,
                "end_time": 71.12045454545454,
                "pitch": 57,
                "velocity": 32,
                "duration": 0.11590909090908497,
                "tempo": 120.0
            },
            {
                "start_time": 71.12045454545454,
                "end_time": 71.23863636363636,
                "pitch": 64,
                "velocity": 32,
                "duration": 0.11818181818182438,
                "tempo": 120.0
            },
            {
                "start_time": 71.23863636363636,
                "end_time": 71.35454545454544,
                "pitch": 69,
                "velocity": 32,
                "duration": 0.11590909090908497,
                "tempo": 120.0
            },
            {
                "start_time": 71.35681818181818,
                "end_time": 71.49090909090908,
                "pitch": 64,
                "velocity": 32,
                "duration": 0.13409090909090082,
                "tempo": 120.0
            },
            {
                "start_time": 71.49090909090908,
                "end_time": 71.60909090909091,
                "pitch": 57,
                "velocity": 32,
                "duration": 0.11818181818182438,
                "tempo": 120.0
            },
            {
                "start_time": 71.60909090909091,
                "end_time": 71.72727272727272,
                "pitch": 64,
                "velocity": 32,
                "duration": 0.11818181818181017,
                "tempo": 120.0
            },
            {
                "start_time": 71.72727272727272,
                "end_time": 71.84318181818182,
                "pitch": 69,
                "velocity": 32,
                "duration": 0.11590909090909918,
                "tempo": 120.0
            },
            {
                "start_time": 71.84318181818182,
                "end_time": 71.9590909090909,
                "pitch": 64,
                "velocity": 32,
                "duration": 0.11590909090908497,
                "tempo": 120.0
            },
            {
                "start_time": 71.96136363636363,
                "end_time": 72.09318181818182,
                "pitch": 57,
                "velocity": 32,
                "duration": 0.13181818181818983,
                "tempo": 120.0
            },
            {
                "start_time": 72.09318181818182,
                "end_time": 72.21136363636363,
                "pitch": 64,
                "velocity": 32,
                "duration": 0.11818181818181017,
                "tempo": 120.0
            },
            {
                "start_time": 72.21136363636363,
                "end_time": 72.32727272727273,
                "pitch": 69,
                "velocity": 32,
                "duration": 0.11590909090909918,
                "tempo": 120.0
            },
            {
                "start_time": 72.32727272727273,
                "end_time": 72.44545454545454,
                "pitch": 64,
                "velocity": 32,
                "duration": 0.11818181818181017,
                "tempo": 120.0
            },
            {
                "start_time": 72.44545454545454,
                "end_time": 72.56363636363636,
                "pitch": 57,
                "velocity": 32,
                "duration": 0.11818181818182438,
                "tempo": 120.0
            },
            {
                "start_time": 72.56363636363636,
                "end_time": 72.69772727272726,
                "pitch": 64,
                "velocity": 32,
                "duration": 0.13409090909090082,
                "tempo": 120.0
            },
            {
                "start_time": 72.69772727272726,
                "end_time": 72.81818181818181,
                "pitch": 69,
                "velocity": 32,
                "duration": 0.12045454545454959,
                "tempo": 120.0
            },
            {
                "start_time": 72.81818181818181,
                "end_time": 72.93863636363636,
                "pitch": 64,
                "velocity": 32,
                "duration": 0.12045454545454959,
                "tempo": 120.0
            },
            {
                "start_time": 72.93863636363636,
                "end_time": 73.05681818181817,
                "pitch": 57,
                "velocity": 32,
                "duration": 0.11818181818181017,
                "tempo": 120.0
            },
            {
                "start_time": 73.05681818181817,
                "end_time": 73.17727272727272,
                "pitch": 64,
                "velocity": 32,
                "duration": 0.12045454545454959,
                "tempo": 120.0
            },
            {
                "start_time": 73.17727272727272,
                "end_time": 73.30454545454545,
                "pitch": 69,
                "velocity": 32,
                "duration": 0.1272727272727252,
                "tempo": 120.0
            },
            {
                "start_time": 73.30454545454545,
                "end_time": 73.41818181818182,
                "pitch": 64,
                "velocity": 32,
                "duration": 0.11363636363637397,
                "tempo": 120.0
            },
            {
                "start_time": 73.41818181818182,
                "end_time": 73.52954545454546,
                "pitch": 57,
                "velocity": 32,
                "duration": 0.11136363636363455,
                "tempo": 120.0
            },
            {
                "start_time": 73.52954545454546,
                "end_time": 73.64318181818182,
                "pitch": 64,
                "velocity": 32,
                "duration": 0.11363636363635976,
                "tempo": 120.0
            },
            {
                "start_time": 73.64318181818182,
                "end_time": 73.76136363636363,
                "pitch": 69,
                "velocity": 32,
                "duration": 0.11818181818181017,
                "tempo": 120.0
            },
            {
                "start_time": 73.76136363636363,
                "end_time": 73.89772727272727,
                "pitch": 64,
                "velocity": 32,
                "duration": 0.13636363636364024,
                "tempo": 120.0
            },
            {
                "start_time": 73.89772727272727,
                "end_time": 74.01818181818182,
                "pitch": 57,
                "velocity": 32,
                "duration": 0.12045454545454959,
                "tempo": 120.0
            },
            {
                "start_time": 74.01818181818182,
                "end_time": 74.13863636363637,
                "pitch": 64,
                "velocity": 32,
                "duration": 0.12045454545454959,
                "tempo": 120.0
            },
            {
                "start_time": 74.13863636363637,
                "end_time": 74.25454545454545,
                "pitch": 69,
                "velocity": 32,
                "duration": 0.11590909090908497,
                "tempo": 120.0
            },
            {
                "start_time": 74.25454545454545,
                "end_time": 74.37272727272727,
                "pitch": 64,
                "velocity": 32,
                "duration": 0.11818181818182438,
                "tempo": 120.0
            },
            {
                "start_time": 74.37272727272727,
                "end_time": 74.50681818181818,
                "pitch": 57,
                "velocity": 32,
                "duration": 0.13409090909090082,
                "tempo": 120.0
            },
            {
                "start_time": 74.5090909090909,
                "end_time": 74.625,
                "pitch": 64,
                "velocity": 32,
                "duration": 0.11590909090909918,
                "tempo": 120.0
            },
            {
                "start_time": 74.625,
                "end_time": 74.74545454545454,
                "pitch": 69,
                "velocity": 32,
                "duration": 0.12045454545453538,
                "tempo": 120.0
            },
            {
                "start_time": 74.74545454545454,
                "end_time": 74.86363636363636,
                "pitch": 64,
                "velocity": 32,
                "duration": 0.11818181818182438,
                "tempo": 120.0
            },
            {
                "start_time": 74.86590909090908,
                "end_time": 74.98409090909091,
                "pitch": 57,
                "velocity": 32,
                "duration": 0.11818181818182438,
                "tempo": 120.0
            },
            {
                "start_time": 74.98409090909091,
                "end_time": 75.12045454545454,
                "pitch": 64,
                "velocity": 32,
                "duration": 0.13636363636362603,
                "tempo": 120.0
            },
            {
                "start_time": 75.12272727272727,
                "end_time": 75.23863636363636,
                "pitch": 69,
                "velocity": 32,
                "duration": 0.11590909090908497,
                "tempo": 120.0
            },
            {
                "start_time": 75.23863636363636,
                "end_time": 75.35681818181818,
                "pitch": 64,
                "velocity": 32,
                "duration": 0.11818181818182438,
                "tempo": 120.0
            },
            {
                "start_time": 75.35681818181818,
                "end_time": 75.475,
                "pitch": 57,
                "velocity": 32,
                "duration": 0.11818181818181017,
                "tempo": 120.0
            },
            {
                "start_time": 75.475,
                "end_time": 75.59318181818182,
                "pitch": 64,
                "velocity": 32,
                "duration": 0.11818181818182438,
                "tempo": 120.0
            },
            {
                "start_time": 75.59318181818182,
                "end_time": 75.72272727272727,
                "pitch": 69,
                "velocity": 32,
                "duration": 0.1295454545454504,
                "tempo": 120.0
            },
            {
                "start_time": 75.725,
                "end_time": 75.83863636363635,
                "pitch": 64,
                "velocity": 32,
                "duration": 0.11363636363635976,
                "tempo": 120.0
            },
            {
                "start_time": 75.83863636363635,
                "end_time": 75.95454545454545,
                "pitch": 57,
                "velocity": 32,
                "duration": 0.11590909090909918,
                "tempo": 120.0
            },
            {
                "start_time": 75.95454545454545,
                "end_time": 76.06818181818181,
                "pitch": 64,
                "velocity": 32,
                "duration": 0.11363636363635976,
                "tempo": 120.0
            },
            {
                "start_time": 76.06818181818181,
                "end_time": 76.18636363636364,
                "pitch": 69,
                "velocity": 32,
                "duration": 0.11818181818182438,
                "tempo": 120.0
            },
            {
                "start_time": 76.18636363636364,
                "end_time": 76.32045454545454,
                "pitch": 64,
                "velocity": 32,
                "duration": 0.13409090909090082,
                "tempo": 120.0
            },
            {
                "start_time": 76.32045454545454,
                "end_time": 76.43863636363636,
                "pitch": 57,
                "velocity": 32,
                "duration": 0.11818181818182438,
                "tempo": 120.0
            },
            {
                "start_time": 76.43863636363636,
                "end_time": 76.55681818181817,
                "pitch": 64,
                "velocity": 32,
                "duration": 0.11818181818181017,
                "tempo": 120.0
            },
            {
                "start_time": 76.55681818181817,
                "end_time": 76.675,
                "pitch": 69,
                "velocity": 32,
                "duration": 0.11818181818182438,
                "tempo": 120.0
            },
            {
                "start_time": 76.67727272727272,
                "end_time": 76.79545454545455,
                "pitch": 64,
                "velocity": 32,
                "duration": 0.11818181818182438,
                "tempo": 120.0
            },
            {
                "start_time": 76.79545454545455,
                "end_time": 76.93181818181817,
                "pitch": 57,
                "velocity": 32,
                "duration": 0.13636363636362603,
                "tempo": 120.0
            },
            {
                "start_time": 76.93181818181817,
                "end_time": 77.05227272727272,
                "pitch": 64,
                "velocity": 32,
                "duration": 0.12045454545454959,
                "tempo": 120.0
            },
            {
                "start_time": 77.05227272727272,
                "end_time": 77.16818181818181,
                "pitch": 69,
                "velocity": 32,
                "duration": 0.11590909090908497,
                "tempo": 120.0
            },
            {
                "start_time": 77.16818181818181,
                "end_time": 77.28863636363636,
                "pitch": 64,
                "velocity": 32,
                "duration": 0.12045454545454959,
                "tempo": 120.0
            },
            {
                "start_time": 77.28863636363636,
                "end_time": 77.40454545454546,
                "pitch": 57,
                "velocity": 32,
                "duration": 0.11590909090909918,
                "tempo": 120.0
            },
            {
                "start_time": 77.40681818181818,
                "end_time": 77.54318181818181,
                "pitch": 64,
                "velocity": 32,
                "duration": 0.13636363636362603,
                "tempo": 120.0
            },
            {
                "start_time": 77.54318181818181,
                "end_time": 77.65681818181818,
                "pitch": 69,
                "velocity": 32,
                "duration": 0.11363636363637397,
                "tempo": 120.0
            },
            {
                "start_time": 77.65681818181818,
                "end_time": 77.77499999999999,
                "pitch": 64,
                "velocity": 32,
                "duration": 0.11818181818181017,
                "tempo": 120.0
            },
            {
                "start_time": 77.77499999999999,
                "end_time": 77.89318181818182,
                "pitch": 57,
                "velocity": 32,
                "duration": 0.11818181818182438,
                "tempo": 120.0
            },
            {
                "start_time": 77.89318181818182,
                "end_time": 78.01136363636363,
                "pitch": 64,
                "velocity": 32,
                "duration": 0.11818181818181017,
                "tempo": 120.0
            },
            {
                "start_time": 78.01136363636363,
                "end_time": 78.14090909090909,
                "pitch": 69,
                "velocity": 32,
                "duration": 0.12954545454546462,
                "tempo": 120.0
            },
            {
                "start_time": 78.14090909090909,
                "end_time": 78.25681818181818,
                "pitch": 64,
                "velocity": 32,
                "duration": 0.11590909090908497,
                "tempo": 120.0
            },
            {
                "start_time": 78.25681818181818,
                "end_time": 78.37272727272727,
                "pitch": 57,
                "velocity": 32,
                "duration": 0.11590909090909918,
                "tempo": 120.0
            },
            {
                "start_time": 78.37272727272727,
                "end_time": 78.48636363636363,
                "pitch": 64,
                "velocity": 32,
                "duration": 0.11363636363635976,
                "tempo": 120.0
            },
            {
                "start_time": 78.48636363636363,
                "end_time": 78.60681818181818,
                "pitch": 69,
                "velocity": 32,
                "duration": 0.12045454545454959,
                "tempo": 120.0
            },
            {
                "start_time": 78.60681818181818,
                "end_time": 78.74318181818181,
                "pitch": 64,
                "velocity": 32,
                "duration": 0.13636363636362603,
                "tempo": 120.0
            },
            {
                "start_time": 78.74318181818181,
                "end_time": 78.86363636363636,
                "pitch": 57,
                "velocity": 32,
                "duration": 0.12045454545454959,
                "tempo": 120.0
            },
            {
                "start_time": 78.86363636363636,
                "end_time": 78.98409090909091,
                "pitch": 64,
                "velocity": 32,
                "duration": 0.12045454545454959,
                "tempo": 120.0
            },
            {
                "start_time": 78.98409090909091,
                "end_time": 79.1,
                "pitch": 69,
                "velocity": 32,
                "duration": 0.11590909090908497,
                "tempo": 120.0
            },
            {
                "start_time": 79.1,
                "end_time": 79.21818181818182,
                "pitch": 64,
                "velocity": 32,
                "duration": 0.11818181818182438,
                "tempo": 120.0
            },
            {
                "start_time": 79.21818181818182,
                "end_time": 79.35227272727272,
                "pitch": 57,
                "velocity": 32,
                "duration": 0.13409090909090082,
                "tempo": 120.0
            },
            {
                "start_time": 79.35227272727272,
                "end_time": 79.47272727272727,
                "pitch": 64,
                "velocity": 32,
                "duration": 0.12045454545454959,
                "tempo": 120.0
            },
            {
                "start_time": 79.47272727272727,
                "end_time": 79.58636363636363,
                "pitch": 69,
                "velocity": 32,
                "duration": 0.11363636363635976,
                "tempo": 120.0
            },
            {
                "start_time": 79.58863636363635,
                "end_time": 79.70454545454545,
                "pitch": 64,
                "velocity": 32,
                "duration": 0.11590909090909918,
                "tempo": 120.0
            },
            {
                "start_time": 79.70454545454545,
                "end_time": 79.82045454545454,
                "pitch": 57,
                "velocity": 32,
                "duration": 0.11590909090908497,
                "tempo": 120.0
            },
            {
                "start_time": 79.82045454545454,
                "end_time": 79.95454545454545,
                "pitch": 64,
                "velocity": 32,
                "duration": 0.13409090909091503,
                "tempo": 120.0
            },
            {
                "start_time": 79.95454545454545,
                "end_time": 80.07272727272726,
                "pitch": 69,
                "velocity": 32,
                "duration": 0.11818181818181017,
                "tempo": 120.0
            },
            {
                "start_time": 80.07272727272726,
                "end_time": 80.19318181818181,
                "pitch": 64,
                "velocity": 32,
                "duration": 0.12045454545454959,
                "tempo": 120.0
            },
            {
                "start_time": 80.19318181818181,
                "end_time": 80.31363636363636,
                "pitch": 57,
                "velocity": 32,
                "duration": 0.12045454545454959,
                "tempo": 120.0
            },
            {
                "start_time": 80.31363636363636,
                "end_time": 80.43409090909091,
                "pitch": 64,
                "velocity": 32,
                "duration": 0.12045454545454959,
                "tempo": 120.0
            },
            {
                "start_time": 80.43409090909091,
                "end_time": 80.56590909090909,
                "pitch": 69,
                "velocity": 32,
                "duration": 0.13181818181817562,
                "tempo": 120.0
            },
            {
                "start_time": 80.56590909090909,
                "end_time": 80.67954545454545,
                "pitch": 64,
                "velocity": 32,
                "duration": 0.11363636363635976,
                "tempo": 120.0
            },
            {
                "start_time": 80.67954545454545,
                "end_time": 80.79318181818181,
                "pitch": 57,
                "velocity": 32,
                "duration": 0.11363636363635976,
                "tempo": 120.0
            },
            {
                "start_time": 80.79318181818181,
                "end_time": 80.9090909090909,
                "pitch": 64,
                "velocity": 32,
                "duration": 0.11590909090909918,
                "tempo": 120.0
            },
            {
                "start_time": 80.9090909090909,
                "end_time": 81.02727272727272,
                "pitch": 69,
                "velocity": 32,
                "duration": 0.11818181818181017,
                "tempo": 120.0
            },
            {
                "start_time": 81.02727272727272,
                "end_time": 81.16136363636363,
                "pitch": 64,
                "velocity": 32,
                "duration": 0.13409090909091503,
                "tempo": 120.0
            },
            {
                "start_time": 81.16136363636363,
                "end_time": 81.27954545454546,
                "pitch": 57,
                "velocity": 32,
                "duration": 0.11818181818182438,
                "tempo": 120.0
            },
            {
                "start_time": 81.27954545454546,
                "end_time": 81.39999999999999,
                "pitch": 64,
                "velocity": 32,
                "duration": 0.12045454545453538,
                "tempo": 120.0
            },
            {
                "start_time": 81.39999999999999,
                "end_time": 81.51363636363637,
                "pitch": 69,
                "velocity": 32,
                "duration": 0.11363636363637397,
                "tempo": 120.0
            },
            {
                "start_time": 81.51363636363637,
                "end_time": 81.63181818181818,
                "pitch": 64,
                "velocity": 32,
                "duration": 0.11818181818181017,
                "tempo": 120.0
            },
            {
                "start_time": 81.63181818181818,
                "end_time": 81.76363636363637,
                "pitch": 57,
                "velocity": 32,
                "duration": 0.13181818181818983,
                "tempo": 120.0
            },
            {
                "start_time": 81.76590909090909,
                "end_time": 81.88181818181818,
                "pitch": 64,
                "velocity": 32,
                "duration": 0.11590909090908497,
                "tempo": 120.0
            },
            {
                "start_time": 81.88181818181818,
                "end_time": 82.0,
                "pitch": 69,
                "velocity": 32,
                "duration": 0.11818181818182438,
                "tempo": 120.0
            },
            {
                "start_time": 82.0,
                "end_time": 82.12045454545454,
                "pitch": 64,
                "velocity": 32,
                "duration": 0.12045454545453538,
                "tempo": 120.0
            },
            {
                "start_time": 82.12045454545454,
                "end_time": 82.24090909090908,
                "pitch": 57,
                "velocity": 32,
                "duration": 0.12045454545454959,
                "tempo": 120.0
            },
            {
                "start_time": 82.24090909090908,
                "end_time": 82.37727272727273,
                "pitch": 64,
                "velocity": 32,
                "duration": 0.13636363636364024,
                "tempo": 120.0
            },
            {
                "start_time": 82.37727272727273,
                "end_time": 82.49318181818181,
                "pitch": 69,
                "velocity": 32,
                "duration": 0.11590909090908497,
                "tempo": 120.0
            },
            {
                "start_time": 82.49318181818181,
                "end_time": 82.61136363636363,
                "pitch": 64,
                "velocity": 32,
                "duration": 0.11818181818182438,
                "tempo": 120.0
            },
            {
                "start_time": 82.61136363636363,
                "end_time": 82.72727272727272,
                "pitch": 57,
                "velocity": 32,
                "duration": 0.11590909090908497,
                "tempo": 120.0
            },
            {
                "start_time": 82.72727272727272,
                "end_time": 82.84545454545454,
                "pitch": 64,
                "velocity": 32,
                "duration": 0.11818181818182438,
                "tempo": 120.0
            },
            {
                "start_time": 82.84545454545454,
                "end_time": 82.975,
                "pitch": 69,
                "velocity": 32,
                "duration": 0.1295454545454504,
                "tempo": 120.0
            },
            {
                "start_time": 82.975,
                "end_time": 83.0909090909091,
                "pitch": 64,
                "velocity": 32,
                "duration": 0.11590909090909918,
                "tempo": 120.0
            },
            {
                "start_time": 83.0909090909091,
                "end_time": 83.20681818181818,
                "pitch": 57,
                "velocity": 32,
                "duration": 0.11590909090908497,
                "tempo": 120.0
            },
            {
                "start_time": 83.20681818181818,
                "end_time": 83.32272727272726,
                "pitch": 64,
                "velocity": 32,
                "duration": 0.11590909090908497,
                "tempo": 120.0
            },
            {
                "start_time": 83.32272727272726,
                "end_time": 83.43636363636364,
                "pitch": 69,
                "velocity": 32,
                "duration": 0.11363636363637397,
                "tempo": 120.0
            },
            {
                "start_time": 83.43863636363636,
                "end_time": 83.57045454545454,
                "pitch": 64,
                "velocity": 32,
                "duration": 0.13181818181817562,
                "tempo": 120.0
            },
            {
                "start_time": 83.57045454545454,
                "end_time": 83.68863636363636,
                "pitch": 57,
                "velocity": 32,
                "duration": 0.11818181818182438,
                "tempo": 120.0
            },
            {
                "start_time": 83.68863636363636,
                "end_time": 83.80454545454545,
                "pitch": 64,
                "velocity": 32,
                "duration": 0.11590909090908497,
                "tempo": 120.0
            },
            {
                "start_time": 83.80454545454545,
                "end_time": 83.92045454545455,
                "pitch": 69,
                "velocity": 32,
                "duration": 0.11590909090909918,
                "tempo": 120.0
            },
            {
                "start_time": 83.92272727272727,
                "end_time": 84.04090909090908,
                "pitch": 64,
                "velocity": 32,
                "duration": 0.11818181818181017,
                "tempo": 120.0
            },
            {
                "start_time": 84.04090909090908,
                "end_time": 84.175,
                "pitch": 57,
                "velocity": 32,
                "duration": 0.13409090909091503,
                "tempo": 120.0
            },
            {
                "start_time": 84.175,
                "end_time": 84.29318181818181,
                "pitch": 64,
                "velocity": 32,
                "duration": 0.11818181818181017,
                "tempo": 120.0
            },
            {
                "start_time": 84.29318181818181,
                "end_time": 84.41136363636363,
                "pitch": 69,
                "velocity": 32,
                "duration": 0.11818181818182438,
                "tempo": 120.0
            },
            {
                "start_time": 84.41136363636363,
                "end_time": 84.53181818181818,
                "pitch": 64,
                "velocity": 32,
                "duration": 0.12045454545454959,
                "tempo": 120.0
            },
            {
                "start_time": 84.53181818181818,
                "end_time": 84.64999999999999,
                "pitch": 57,
                "velocity": 32,
                "duration": 0.11818181818181017,
                "tempo": 120.0
            },
            {
                "start_time": 84.64999999999999,
                "end_time": 84.78863636363636,
                "pitch": 64,
                "velocity": 32,
                "duration": 0.13863636363636545,
                "tempo": 120.0
            },
            {
                "start_time": 84.78863636363636,
                "end_time": 84.90681818181818,
                "pitch": 69,
                "velocity": 32,
                "duration": 0.11818181818182438,
                "tempo": 120.0
            },
            {
                "start_time": 84.90681818181818,
                "end_time": 85.02272727272727,
                "pitch": 64,
                "velocity": 32,
                "duration": 0.11590909090908497,
                "tempo": 120.0
            },
            {
                "start_time": 85.02499999999999,
                "end_time": 85.14090909090909,
                "pitch": 57,
                "velocity": 32,
                "duration": 0.11590909090909918,
                "tempo": 120.0
            }
        ]
    }
}