{
    "track_id": "06 Hot Road",
    "mood": "happy",
    "instruments": {
        "Trumpet": [
            {
                "start_time": 0.00909090909090909,
                "end_time": 0.4477272727272727,
                "pitch": 0,
                "velocity": 4,
                "duration": 0.4386363636363636,
                "tempo": 120.0
            },
            {
                "start_time": 0.44999999999999996,
                "end_time": 0.6477272727272727,
                "pitch": 62,
                "velocity": 40,
                "duration": 0.19772727272727275,
                "tempo": 120.0
            },
            {
                "start_time": 0.6727272727272727,
                "end_time": 0.7204545454545455,
                "pitch": 62,
                "velocity": 40,
                "duration": 0.04772727272727273,
                "tempo": 120.0
            },
            {
                "start_time": 0.7204545454545455,
                "end_time": 0.7772727272727272,
                "pitch": 64,
                "velocity": 40,
                "duration": 0.05681818181818177,
                "tempo": 120.0
            },
            {
                "start_time": 0.7795454545454545,
                "end_time": 0.8159090909090909,
                "pitch": 65,
                "velocity": 40,
                "duration": 0.036363636363636376,
                "tempo": 120.0
            },
            {
                "start_time": 0.8159090909090909,
                "end_time": 0.8636363636363636,
                "pitch": 67,
                "velocity": 40,
                "duration": 0.04772727272727273,
                "tempo": 120.0
            },
            {
                "start_time": 0.8636363636363636,
                "end_time": 0.9272727272727272,
                "pitch": 69,
                "velocity": 40,
                "duration": 0.0636363636363636,
                "tempo": 120.0
            },
            {
                "start_time": 0.9295454545454545,
                "end_time": 0.9909090909090909,
                "pitch": 71,
                "velocity": 40,
                "duration": 0.0613636363636364,
                "tempo": 120.0
            },
            {
                "start_time": 0.9931818181818182,
                "end_time": 1.0568181818181817,
                "pitch": 72,
                "velocity": 40,
                "duration": 0.06363636363636349,
                "tempo": 120.0
            },
            {
                "start_time": 1.0568181818181817,
                "end_time": 1.125,
                "pitch": 74,
                "velocity": 40,
                "duration": 0.06818181818181834,
                "tempo": 120.0
            },
            {
                "start_time": 1.125,
                "end_time": 1.843181818181818,
                "pitch": 76,
                "velocity": 51,
                "duration": 0.718181818181818,
                "tempo": 120.0
            },
            {
                "start_time": 2.068181818181818,
                "end_time": 2.334090909090909,
                "pitch": 69,
                "velocity": 51,
                "duration": 0.2659090909090911,
                "tempo": 120.0
            },
            {
                "start_time": 2.4204545454545454,
                "end_time": 2.686363636363636,
                "pitch": 72,
                "velocity": 51,
                "duration": 0.26590909090909065,
                "tempo": 120.0
            },
            {
                "start_time": 2.7772727272727273,
                "end_time": 2.9545454545454546,
                "pitch": 79,
                "velocity": 51,
                "duration": 0.17727272727272725,
                "tempo": 120.0
            },
            {
                "start_time": 3.0113636363636362,
                "end_time": 3.2727272727272725,
                "pitch": 77,
                "velocity": 51,
                "duration": 0.26136363636363624,
                "tempo": 120.0
            },
            {
                "start_time": 3.3636363636363633,
                "end_time": 3.625,
                "pitch": 76,
                "velocity": 51,
                "duration": 0.2613636363636367,
                "tempo": 120.0
            },
            {
                "start_time": 3.715909090909091,
                "end_time": 4.238636363636363,
                "pitch": 71,
                "velocity": 51,
                "duration": 0.5227272727272725,
                "tempo": 120.0
            },
            {
                "start_time": 4.413636363636363,
                "end_time": 4.588636363636364,
                "pitch": 67,
                "velocity": 51,
                "duration": 0.1750000000000007,
                "tempo": 120.0
            },
            {
                "start_time": 4.6477272727272725,
                "end_time": 4.827272727272727,
                "pitch": 71,
                "velocity": 51,
                "duration": 0.17954545454545467,
                "tempo": 120.0
            },
            {
                "start_time": 4.886363636363636,
                "end_time": 5.227272727272727,
                "pitch": 69,
                "velocity": 51,
                "duration": 0.34090909090909083,
                "tempo": 120.0
            },
            {
                "start_time": 5.343181818181818,
                "end_time": 5.695454545454545,
                "pitch": 76,
                "velocity": 51,
                "duration": 0.3522727272727275,
                "tempo": 120.0
            },
            {
                "start_time": 5.8113636363636365,
                "end_time": 5.890909090909091,
                "pitch": 74,
                "velocity": 51,
                "duration": 0.07954545454545414,
                "tempo": 120.0
            },
            {
                "start_time": 5.934090909090909,
                "end_time": 6.004545454545454,
                "pitch": 72,
                "velocity": 51,
                "duration": 0.07045454545454533,
                "tempo": 120.0
            },
            {
                "start_time": 6.040909090909091,
                "end_time": 6.156818181818181,
                "pitch": 72,
                "velocity": 4,
                "duration": 0.1159090909090903,
                "tempo": 120.0
            },
            {
                "start_time": 6.156818181818181,
                "end_time": 6.2340909090909085,
                "pitch": 71,
                "velocity": 51,
                "duration": 0.07727272727272716,
                "tempo": 120.0
            },
            {
                "start_time": 6.2749999999999995,
                "end_time": 6.390909090909091,
                "pitch": 71,
                "velocity": 4,
                "duration": 0.11590909090909118,
                "tempo": 120.0
            },
            {
                "start_time": 6.390909090909091,
                "end_time": 6.472727272727273,
                "pitch": 72,
                "velocity": 51,
                "duration": 0.08181818181818201,
                "tempo": 120.0
            },
            {
                "start_time": 6.515909090909091,
                "end_time": 6.593181818181818,
                "pitch": 71,
                "velocity": 51,
                "duration": 0.07727272727272716,
                "tempo": 120.0
            },
            {
                "start_time": 6.629545454545454,
                "end_time": 6.713636363636363,
                "pitch": 67,
                "velocity": 51,
                "duration": 0.084090909090909,
                "tempo": 120.0
            },
            {
                "start_time": 6.754545454545454,
                "end_time": 7.436363636363636,
                "pitch": 64,
                "velocity": 51,
                "duration": 0.6818181818181817,
                "tempo": 120.0
            },
            {
                "start_time": 0.8159090909090909,
                "end_time": 7.9022727272727264,
                "pitch": 55,
                "velocity": 40,
                "duration": 7.086363636363636,
                "tempo": 120.0
            },
            {
                "start_time": 7.675,
                "end_time": 7.9022727272727264,
                "pitch": 64,
                "velocity": 4,
                "duration": 0.22727272727272663,
                "tempo": 120.0
            },
            {
                "start_time": 7.9022727272727264,
                "end_time": 8.084090909090909,
                "pitch": 67,
                "velocity": 51,
                "duration": 0.18181818181818254,
                "tempo": 120.0
            },
            {
                "start_time": 8.134090909090908,
                "end_time": 8.254545454545454,
                "pitch": 67,
                "velocity": 4,
                "duration": 0.12045454545454604,
                "tempo": 120.0
            },
            {
                "start_time": 8.254545454545454,
                "end_time": 8.520454545454545,
                "pitch": 68,
                "velocity": 51,
                "duration": 0.26590909090909065,
                "tempo": 120.0
            },
            {
                "start_time": 8.611363636363636,
                "end_time": 9.304545454545455,
                "pitch": 69,
                "velocity": 51,
                "duration": 0.6931818181818183,
                "tempo": 120.0
            },
            {
                "start_time": 9.536363636363635,
                "end_time": 9.795454545454545,
                "pitch": 71,
                "velocity": 51,
                "duration": 0.2590909090909097,
                "tempo": 120.0
            },
            {
                "start_time": 9.879545454545454,
                "end_time": 10.145454545454545,
                "pitch": 72,
                "velocity": 51,
                "duration": 0.26590909090909065,
                "tempo": 120.0
            },
            {
                "start_time": 10.238636363636363,
                "end_time": 10.420454545454545,
                "pitch": 74,
                "velocity": 51,
                "duration": 0.18181818181818166,
                "tempo": 120.0
            },
            {
                "start_time": 10.479545454545454,
                "end_time": 11.177272727272726,
                "pitch": 67,
                "velocity": 51,
                "duration": 0.6977272727272723,
                "tempo": 120.0
            },
            {
                "start_time": 11.406818181818181,
                "end_time": 11.586363636363636,
                "pitch": 71,
                "velocity": 51,
                "duration": 0.17954545454545467,
                "tempo": 120.0
            },
            {
                "start_time": 11.638636363636364,
                "end_time": 11.720454545454546,
                "pitch": 69,
                "velocity": 51,
                "duration": 0.08181818181818201,
                "tempo": 120.0
            },
            {
                "start_time": 11.763636363636364,
                "end_time": 11.836363636363636,
                "pitch": 63,
                "velocity": 51,
                "duration": 0.07272727272727231,
                "tempo": 120.0
            },
            {
                "start_time": 11.877272727272727,
                "end_time": 11.99090909090909,
                "pitch": 63,
                "velocity": 4,
                "duration": 0.11363636363636331,
                "tempo": 120.0
            },
            {
                "start_time": 11.993181818181817,
                "end_time": 12.072727272727272,
                "pitch": 64,
                "velocity": 51,
                "duration": 0.07954545454545503,
                "tempo": 120.0
            },
            {
                "start_time": 12.10909090909091,
                "end_time": 12.225,
                "pitch": 64,
                "velocity": 4,
                "duration": 0.1159090909090903,
                "tempo": 120.0
            },
            {
                "start_time": 12.225,
                "end_time": 12.572727272727272,
                "pitch": 65,
                "velocity": 51,
                "duration": 0.34772727272727266,
                "tempo": 120.0
            },
            {
                "start_time": 12.69090909090909,
                "end_time": 12.95,
                "pitch": 69,
                "velocity": 51,
                "duration": 0.2590909090909097,
                "tempo": 120.0
            },
            {
                "start_time": 13.043181818181818,
                "end_time": 13.218181818181817,
                "pitch": 72,
                "velocity": 51,
                "duration": 0.17499999999999893,
                "tempo": 120.0
            },
            {
                "start_time": 13.270454545454545,
                "end_time": 13.531818181818181,
                "pitch": 76,
                "velocity": 51,
                "duration": 0.2613636363636367,
                "tempo": 120.0
            },
            {
                "start_time": 13.61590909090909,
                "end_time": 13.881818181818181,
                "pitch": 72,
                "velocity": 51,
                "duration": 0.26590909090909065,
                "tempo": 120.0
            },
            {
                "start_time": 13.975,
                "end_time": 14.156818181818181,
                "pitch": 69,
                "velocity": 51,
                "duration": 0.18181818181818166,
                "tempo": 120.0
            },
            {
                "start_time": 14.213636363636363,
                "end_time": 14.913636363636362,
                "pitch": 74,
                "velocity": 51,
                "duration": 0.6999999999999993,
                "tempo": 120.0
            },
            {
                "start_time": 15.14090909090909,
                "end_time": 15.318181818181817,
                "pitch": 67,
                "velocity": 51,
                "duration": 0.17727272727272592,
                "tempo": 120.0
            },
            {
                "start_time": 15.370454545454544,
                "end_time": 15.447727272727272,
                "pitch": 69,
                "velocity": 51,
                "duration": 0.07727272727272805,
                "tempo": 120.0
            },
            {
                "start_time": 15.49090909090909,
                "end_time": 15.663636363636362,
                "pitch": 71,
                "velocity": 51,
                "duration": 0.17272727272727195,
                "tempo": 120.0
            },
            {
                "start_time": 15.720454545454544,
                "end_time": 15.802272727272726,
                "pitch": 72,
                "velocity": 51,
                "duration": 0.08181818181818201,
                "tempo": 120.0
            },
            {
                "start_time": 15.847727272727273,
                "end_time": 15.920454545454545,
                "pitch": 74,
                "velocity": 51,
                "duration": 0.07272727272727231,
                "tempo": 120.0
            },
            {
                "start_time": 15.959090909090909,
                "end_time": 16.04090909090909,
                "pitch": 77,
                "velocity": 51,
                "duration": 0.08181818181818024,
                "tempo": 120.0
            },
            {
                "start_time": 16.079545454545453,
                "end_time": 16.777272727272727,
                "pitch": 76,
                "velocity": 51,
                "duration": 0.6977272727272741,
                "tempo": 120.0
            },
            {
                "start_time": 17.009090909090908,
                "end_time": 17.086363636363636,
                "pitch": 64,
                "velocity": 51,
                "duration": 0.07727272727272805,
                "tempo": 120.0
            },
            {
                "start_time": 17.127272727272725,
                "end_time": 17.202272727272728,
                "pitch": 65,
                "velocity": 51,
                "duration": 0.07500000000000284,
                "tempo": 120.0
            },
            {
                "start_time": 17.245454545454546,
                "end_time": 17.31590909090909,
                "pitch": 69,
                "velocity": 51,
                "duration": 0.07045454545454533,
                "tempo": 120.0
            },
            {
                "start_time": 17.35681818181818,
                "end_time": 17.43181818181818,
                "pitch": 72,
                "velocity": 51,
                "duration": 0.07499999999999929,
                "tempo": 120.0
            },
            {
                "start_time": 17.46818181818182,
                "end_time": 17.547727272727272,
                "pitch": 76,
                "velocity": 51,
                "duration": 0.07954545454545325,
                "tempo": 120.0
            },
            {
                "start_time": 17.59090909090909,
                "end_time": 17.663636363636364,
                "pitch": 76,
                "velocity": 51,
                "duration": 0.07272727272727408,
                "tempo": 120.0
            },
            {
                "start_time": 17.7,
                "end_time": 17.818181818181817,
                "pitch": 76,
                "velocity": 4,
                "duration": 0.11818181818181728,
                "tempo": 120.0
            },
            {
                "start_time": 17.818181818181817,
                "end_time": 18.604545454545455,
                "pitch": 74,
                "velocity": 51,
                "duration": 0.7863636363636388,
                "tempo": 120.0
            },
            {
                "start_time": 18.875,
                "end_time": 18.99772727272727,
                "pitch": 74,
                "velocity": 4,
                "duration": 0.12272727272727124,
                "tempo": 120.0
            },
            {
                "start_time": 18.99772727272727,
                "end_time": 19.068181818181817,
                "pitch": 64,
                "velocity": 51,
                "duration": 0.07045454545454533,
                "tempo": 120.0
            },
            {
                "start_time": 19.10681818181818,
                "end_time": 19.18409090909091,
                "pitch": 67,
                "velocity": 51,
                "duration": 0.07727272727272805,
                "tempo": 120.0
            },
            {
                "start_time": 19.222727272727273,
                "end_time": 19.297727272727272,
                "pitch": 71,
                "velocity": 51,
                "duration": 0.07499999999999929,
                "tempo": 120.0
            },
            {
                "start_time": 19.34318181818182,
                "end_time": 19.41590909090909,
                "pitch": 74,
                "velocity": 51,
                "duration": 0.07272727272727053,
                "tempo": 120.0
            },
            {
                "start_time": 19.454545454545453,
                "end_time": 19.536363636363635,
                "pitch": 74,
                "velocity": 51,
                "duration": 0.08181818181818201,
                "tempo": 120.0
            },
            {
                "start_time": 19.581818181818182,
                "end_time": 19.65681818181818,
                "pitch": 73,
                "velocity": 51,
                "duration": 0.07499999999999929,
                "tempo": 120.0
            },
            {
                "start_time": 19.693181818181817,
                "end_time": 20.036363636363635,
                "pitch": 72,
                "velocity": 51,
                "duration": 0.3431818181818187,
                "tempo": 120.0
            },
            {
                "start_time": 20.15,
                "end_time": 20.413636363636364,
                "pitch": 69,
                "velocity": 51,
                "duration": 0.26363636363636545,
                "tempo": 120.0
            },
            {
                "start_time": 20.509090909090908,
                "end_time": 20.688636363636363,
                "pitch": 65,
                "velocity": 51,
                "duration": 0.17954545454545467,
                "tempo": 120.0
            },
            {
                "start_time": 20.743181818181817,
                "end_time": 21.002272727272725,
                "pitch": 62,
                "velocity": 51,
                "duration": 0.25909090909090793,
                "tempo": 120.0
            },
            {
                "start_time": 21.086363636363636,
                "end_time": 21.349999999999998,
                "pitch": 64,
                "velocity": 51,
                "duration": 0.2636363636363619,
                "tempo": 120.0
            },
            {
                "start_time": 21.445454545454545,
                "end_time": 21.618181818181817,
                "pitch": 65,
                "velocity": 51,
                "duration": 0.17272727272727195,
                "tempo": 120.0
            },
            {
                "start_time": 21.672727272727272,
                "end_time": 21.752272727272725,
                "pitch": 64,
                "velocity": 51,
                "duration": 0.07954545454545325,
                "tempo": 120.0
            },
            {
                "start_time": 21.797727272727272,
                "end_time": 21.870454545454546,
                "pitch": 63,
                "velocity": 51,
                "duration": 0.07272727272727408,
                "tempo": 120.0
            },
            {
                "start_time": 21.90681818181818,
                "end_time": 21.986363636363635,
                "pitch": 64,
                "velocity": 51,
                "duration": 0.07954545454545325,
                "tempo": 120.0
            },
            {
                "start_time": 22.025,
                "end_time": 22.104545454545452,
                "pitch": 65,
                "velocity": 51,
                "duration": 0.07954545454545325,
                "tempo": 120.0
            },
            {
                "start_time": 22.143181818181816,
                "end_time": 22.222727272727273,
                "pitch": 64,
                "velocity": 51,
                "duration": 0.0795454545454568,
                "tempo": 120.0
            },
            {
                "start_time": 22.268181818181816,
                "end_time": 22.33863636363636,
                "pitch": 65,
                "velocity": 51,
                "duration": 0.07045454545454533,
                "tempo": 120.0
            },
            {
                "start_time": 22.377272727272725,
                "end_time": 22.456818181818182,
                "pitch": 67,
                "velocity": 51,
                "duration": 0.0795454545454568,
                "tempo": 120.0
            },
            {
                "start_time": 22.495454545454546,
                "end_time": 22.575,
                "pitch": 66,
                "velocity": 51,
                "duration": 0.07954545454545325,
                "tempo": 120.0
            },
            {
                "start_time": 22.613636363636363,
                "end_time": 22.69090909090909,
                "pitch": 67,
                "velocity": 51,
                "duration": 0.07727272727272805,
                "tempo": 120.0
            },
            {
                "start_time": 22.73409090909091,
                "end_time": 22.804545454545455,
                "pitch": 68,
                "velocity": 51,
                "duration": 0.07045454545454533,
                "tempo": 120.0
            },
            {
                "start_time": 22.84318181818182,
                "end_time": 22.920454545454543,
                "pitch": 67,
                "velocity": 51,
                "duration": 0.0772727272727245,
                "tempo": 120.0
            },
            {
                "start_time": 22.96363636363636,
                "end_time": 23.034090909090907,
                "pitch": 68,
                "velocity": 51,
                "duration": 0.07045454545454533,
                "tempo": 120.0
            },
            {
                "start_time": 23.070454545454545,
                "end_time": 23.15,
                "pitch": 69,
                "velocity": 51,
                "duration": 0.07954545454545325,
                "tempo": 120.0
            },
            {
                "start_time": 23.188636363636363,
                "end_time": 23.268181818181816,
                "pitch": 72,
                "velocity": 51,
                "duration": 0.07954545454545325,
                "tempo": 120.0
            },
            {
                "start_time": 23.30909090909091,
                "end_time": 23.420454545454543,
                "pitch": 72,
                "velocity": 4,
                "duration": 0.11136363636363455,
                "tempo": 120.0
            },
            {
                "start_time": 23.420454545454543,
                "end_time": 24.2,
                "pitch": 76,
                "velocity": 4,
                "duration": 0.7795454545454561,
                "tempo": 120.0
            },
            {
                "start_time": 23.422727272727272,
                "end_time": 24.2,
                "pitch": 76,
                "velocity": 51,
                "duration": 0.7772727272727273,
                "tempo": 120.0
            },
            {
                "start_time": 24.474999999999998,
                "end_time": 24.73409090909091,
                "pitch": 69,
                "velocity": 51,
                "duration": 0.2590909090909115,
                "tempo": 120.0
            },
            {
                "start_time": 24.82272727272727,
                "end_time": 25.081818181818182,
                "pitch": 72,
                "velocity": 51,
                "duration": 0.2590909090909115,
                "tempo": 120.0
            },
            {
                "start_time": 25.172727272727272,
                "end_time": 25.349999999999998,
                "pitch": 76,
                "velocity": 51,
                "duration": 0.17727272727272592,
                "tempo": 120.0
            },
            {
                "start_time": 25.402272727272727,
                "end_time": 26.113636363636363,
                "pitch": 74,
                "velocity": 51,
                "duration": 0.711363636363636,
                "tempo": 120.0
            },
            {
                "start_time": 26.343181818181815,
                "end_time": 26.602272727272727,
                "pitch": 67,
                "velocity": 51,
                "duration": 0.2590909090909115,
                "tempo": 120.0
            },
            {
                "start_time": 26.688636363636363,
                "end_time": 26.952272727272724,
                "pitch": 71,
                "velocity": 51,
                "duration": 0.2636363636363619,
                "tempo": 120.0
            },
            {
                "start_time": 27.049999999999997,
                "end_time": 27.227272727272727,
                "pitch": 74,
                "velocity": 51,
                "duration": 0.17727272727272947,
                "tempo": 120.0
            },
            {
                "start_time": 27.284090909090907,
                "end_time": 27.361363636363635,
                "pitch": 72,
                "velocity": 51,
                "duration": 0.07727272727272805,
                "tempo": 120.0
            },
            {
                "start_time": 27.404545454545453,
                "end_time": 27.474999999999998,
                "pitch": 71,
                "velocity": 51,
                "duration": 0.07045454545454533,
                "tempo": 120.0
            },
            {
                "start_time": 27.513636363636362,
                "end_time": 27.59090909090909,
                "pitch": 72,
                "velocity": 51,
                "duration": 0.07727272727272805,
                "tempo": 120.0
            },
            {
                "start_time": 27.627272727272725,
                "end_time": 27.704545454545453,
                "pitch": 68,
                "velocity": 51,
                "duration": 0.07727272727272805,
                "tempo": 120.0
            },
            {
                "start_time": 27.745454545454542,
                "end_time": 27.82272727272727,
                "pitch": 69,
                "velocity": 51,
                "duration": 0.07727272727272805,
                "tempo": 120.0
            },
            {
                "start_time": 27.85909090909091,
                "end_time": 27.938636363636363,
                "pitch": 64,
                "velocity": 51,
                "duration": 0.07954545454545325,
                "tempo": 120.0
            },
            {
                "start_time": 27.979545454545452,
                "end_time": 28.05681818181818,
                "pitch": 68,
                "velocity": 51,
                "duration": 0.07727272727272805,
                "tempo": 120.0
            },
            {
                "start_time": 28.097727272727273,
                "end_time": 28.27272727272727,
                "pitch": 65,
                "velocity": 51,
                "duration": 0.17499999999999716,
                "tempo": 120.0
            },
            {
                "start_time": 28.334090909090907,
                "end_time": 28.404545454545453,
                "pitch": 62,
                "velocity": 51,
                "duration": 0.07045454545454533,
                "tempo": 120.0
            },
            {
                "start_time": 28.443181818181817,
                "end_time": 28.518181818181816,
                "pitch": 64,
                "velocity": 51,
                "duration": 0.07499999999999929,
                "tempo": 120.0
            },
            {
                "start_time": 28.55681818181818,
                "end_time": 28.634090909090908,
                "pitch": 65,
                "velocity": 51,
                "duration": 0.07727272727272805,
                "tempo": 120.0
            },
            {
                "start_time": 28.672727272727272,
                "end_time": 28.75,
                "pitch": 67,
                "velocity": 51,
                "duration": 0.07727272727272805,
                "tempo": 120.0
            },
            {
                "start_time": 28.78863636363636,
                "end_time": 28.868181818181817,
                "pitch": 69,
                "velocity": 51,
                "duration": 0.0795454545454568,
                "tempo": 120.0
            },
            {
                "start_time": 28.90681818181818,
                "end_time": 28.98409090909091,
                "pitch": 72,
                "velocity": 51,
                "duration": 0.07727272727272805,
                "tempo": 120.0
            },
            {
                "start_time": 29.020454545454545,
                "end_time": 29.102272727272727,
                "pitch": 76,
                "velocity": 51,
                "duration": 0.08181818181818201,
                "tempo": 120.0
            },
            {
                "start_time": 29.145454545454545,
                "end_time": 29.831818181818182,
                "pitch": 79,
                "velocity": 51,
                "duration": 0.6863636363636374,
                "tempo": 120.0
            },
            {
                "start_time": 30.068181818181817,
                "end_time": 30.770454545454545,
                "pitch": 81,
                "velocity": 51,
                "duration": 0.702272727272728,
                "tempo": 120.0
            },
            {
                "start_time": 31.0,
                "end_time": 31.709090909090907,
                "pitch": 76,
                "velocity": 51,
                "duration": 0.7090909090909072,
                "tempo": 120.0
            },
            {
                "start_time": 31.93409090909091,
                "end_time": 32.195454545454545,
                "pitch": 69,
                "velocity": 51,
                "duration": 0.2613636363636367,
                "tempo": 120.0
            },
            {
                "start_time": 32.279545454545456,
                "end_time": 32.54545454545455,
                "pitch": 72,
                "velocity": 51,
                "duration": 0.26590909090909065,
                "tempo": 120.0
            },
            {
                "start_time": 32.638636363636365,
                "end_time": 32.820454545454545,
                "pitch": 79,
                "velocity": 51,
                "duration": 0.18181818181817988,
                "tempo": 120.0
            },
            {
                "start_time": 32.877272727272725,
                "end_time": 33.14090909090909,
                "pitch": 77,
                "velocity": 51,
                "duration": 0.26363636363636545,
                "tempo": 120.0
            },
            {
                "start_time": 33.22954545454545,
                "end_time": 33.48863636363636,
                "pitch": 76,
                "velocity": 51,
                "duration": 0.25909090909090793,
                "tempo": 120.0
            },
            {
                "start_time": 33.57727272727273,
                "end_time": 34.095454545454544,
                "pitch": 71,
                "velocity": 51,
                "duration": 0.5181818181818159,
                "tempo": 120.0
            },
            {
                "start_time": 34.27045454545454,
                "end_time": 34.445454545454545,
                "pitch": 67,
                "velocity": 51,
                "duration": 0.17500000000000426,
                "tempo": 120.0
            },
            {
                "start_time": 34.50454545454545,
                "end_time": 34.684090909090905,
                "pitch": 71,
                "velocity": 51,
                "duration": 0.17954545454545467,
                "tempo": 120.0
            },
            {
                "start_time": 34.74318181818182,
                "end_time": 35.08409090909091,
                "pitch": 69,
                "velocity": 51,
                "duration": 0.3409090909090935,
                "tempo": 120.0
            },
            {
                "start_time": 35.199999999999996,
                "end_time": 35.55681818181818,
                "pitch": 76,
                "velocity": 51,
                "duration": 0.35681818181818414,
                "tempo": 120.0
            },
            {
                "start_time": 35.675,
                "end_time": 35.752272727272725,
                "pitch": 74,
                "velocity": 51,
                "duration": 0.07727272727272805,
                "tempo": 120.0
            },
            {
                "start_time": 35.793181818181814,
                "end_time": 35.86363636363636,
                "pitch": 72,
                "velocity": 51,
                "duration": 0.07045454545454533,
                "tempo": 120.0
            },
            {
                "start_time": 35.89772727272727,
                "end_time": 36.01136363636363,
                "pitch": 72,
                "velocity": 4,
                "duration": 0.11363636363635976,
                "tempo": 120.0
            },
            {
                "start_time": 36.01363636363636,
                "end_time": 36.08863636363636,
                "pitch": 71,
                "velocity": 51,
                "duration": 0.07500000000000284,
                "tempo": 120.0
            },
            {
                "start_time": 36.12954545454545,
                "end_time": 36.24318181818182,
                "pitch": 71,
                "velocity": 4,
                "duration": 0.11363636363636687,
                "tempo": 120.0
            },
            {
                "start_time": 36.24318181818182,
                "end_time": 36.324999999999996,
                "pitch": 72,
                "velocity": 51,
                "duration": 0.08181818181817846,
                "tempo": 120.0
            },
            {
                "start_time": 36.36590909090909,
                "end_time": 36.44318181818181,
                "pitch": 71,
                "velocity": 51,
                "duration": 0.07727272727272094,
                "tempo": 120.0
            },
            {
                "start_time": 36.47954545454545,
                "end_time": 36.56136363636364,
                "pitch": 67,
                "velocity": 51,
                "duration": 0.08181818181818556,
                "tempo": 120.0
            },
            {
                "start_time": 36.60227272727273,
                "end_time": 37.06818181818181,
                "pitch": 64,
                "velocity": 51,
                "duration": 0.4659090909090864,
                "tempo": 120.0
            }
        ],
        "French Horn": [
            {
                "start_time": 0.00909090909090909,
                "end_time": 0.21136363636363636,
                "pitch": 0,
                "velocity": 4,
                "duration": 0.20227272727272727,
                "tempo": 120.0
            },
            {
                "start_time": 0.21136363636363636,
                "end_time": 0.4022727272727272,
                "pitch": 62,
                "velocity": 80,
                "duration": 0.19090909090909086,
                "tempo": 120.0
            },
            {
                "start_time": 0.44999999999999996,
                "end_time": 0.4954545454545454,
                "pitch": 62,
                "velocity": 80,
                "duration": 0.04545454545454547,
                "tempo": 120.0
            },
            {
                "start_time": 0.4954545454545454,
                "end_time": 0.5454545454545454,
                "pitch": 64,
                "velocity": 80,
                "duration": 0.04999999999999999,
                "tempo": 120.0
            },
            {
                "start_time": 0.4954545454545454,
                "end_time": 0.5454545454545454,
                "pitch": 64,
                "velocity": 80,
                "duration": 0.04999999999999999,
                "tempo": 120.0
            },
            {
                "start_time": 0.5477272727272727,
                "end_time": 0.5954545454545455,
                "pitch": 65,
                "velocity": 80,
                "duration": 0.04772727272727273,
                "tempo": 120.0
            },
            {
                "start_time": 0.5977272727272727,
                "end_time": 0.6477272727272727,
                "pitch": 67,
                "velocity": 80,
                "duration": 0.050000000000000044,
                "tempo": 120.0
            },
            {
                "start_time": 0.6477272727272727,
                "end_time": 0.7113636363636363,
                "pitch": 69,
                "velocity": 80,
                "duration": 0.0636363636363636,
                "tempo": 120.0
            },
            {
                "start_time": 0.7113636363636363,
                "end_time": 0.7772727272727272,
                "pitch": 71,
                "velocity": 80,
                "duration": 0.06590909090909092,
                "tempo": 120.0
            },
            {
                "start_time": 0.7113636363636363,
                "end_time": 0.7772727272727272,
                "pitch": 71,
                "velocity": 80,
                "duration": 0.06590909090909092,
                "tempo": 120.0
            },
            {
                "start_time": 0.7795454545454545,
                "end_time": 0.8386363636363636,
                "pitch": 72,
                "velocity": 80,
                "duration": 0.05909090909090908,
                "tempo": 120.0
            },
            {
                "start_time": 0.8409090909090908,
                "end_time": 0.8999999999999999,
                "pitch": 74,
                "velocity": 80,
                "duration": 0.05909090909090908,
                "tempo": 120.0
            },
            {
                "start_time": 0.8999999999999999,
                "end_time": 0.9113636363636363,
                "pitch": 62,
                "velocity": 4,
                "duration": 0.011363636363636354,
                "tempo": 120.0
            },
            {
                "start_time": 1.125,
                "end_time": 1.1886363636363635,
                "pitch": 65,
                "velocity": 80,
                "duration": 0.06363636363636349,
                "tempo": 120.0
            },
            {
                "start_time": 1.2454545454545454,
                "end_time": 1.309090909090909,
                "pitch": 65,
                "velocity": 80,
                "duration": 0.06363636363636371,
                "tempo": 120.0
            },
            {
                "start_time": 1.3659090909090907,
                "end_time": 1.4318181818181817,
                "pitch": 65,
                "velocity": 80,
                "duration": 0.06590909090909092,
                "tempo": 120.0
            },
            {
                "start_time": 1.4886363636363635,
                "end_time": 1.5545454545454545,
                "pitch": 65,
                "velocity": 80,
                "duration": 0.06590909090909092,
                "tempo": 120.0
            },
            {
                "start_time": 1.609090909090909,
                "end_time": 1.8409090909090908,
                "pitch": 65,
                "velocity": 4,
                "duration": 0.23181818181818192,
                "tempo": 120.0
            },
            {
                "start_time": 1.843181818181818,
                "end_time": 1.9022727272727271,
                "pitch": 65,
                "velocity": 80,
                "duration": 0.05909090909090908,
                "tempo": 120.0
            },
            {
                "start_time": 1.9545454545454544,
                "end_time": 2.190909090909091,
                "pitch": 65,
                "velocity": 4,
                "duration": 0.23636363636363655,
                "tempo": 120.0
            },
            {
                "start_time": 2.190909090909091,
                "end_time": 2.5522727272727272,
                "pitch": 65,
                "velocity": 80,
                "duration": 0.36136363636363633,
                "tempo": 120.0
            },
            {
                "start_time": 2.7772727272727273,
                "end_time": 3.0113636363636362,
                "pitch": 65,
                "velocity": 4,
                "duration": 0.2340909090909089,
                "tempo": 120.0
            },
            {
                "start_time": 3.0113636363636362,
                "end_time": 3.0727272727272728,
                "pitch": 64,
                "velocity": 80,
                "duration": 0.06136363636363651,
                "tempo": 120.0
            },
            {
                "start_time": 3.1295454545454544,
                "end_time": 3.1886363636363635,
                "pitch": 64,
                "velocity": 80,
                "duration": 0.05909090909090908,
                "tempo": 120.0
            },
            {
                "start_time": 3.243181818181818,
                "end_time": 3.3068181818181817,
                "pitch": 64,
                "velocity": 80,
                "duration": 0.06363636363636349,
                "tempo": 120.0
            },
            {
                "start_time": 3.3636363636363633,
                "end_time": 3.425,
                "pitch": 64,
                "velocity": 80,
                "duration": 0.06136363636363651,
                "tempo": 120.0
            },
            {
                "start_time": 3.4795454545454545,
                "end_time": 3.715909090909091,
                "pitch": 64,
                "velocity": 4,
                "duration": 0.23636363636363633,
                "tempo": 120.0
            },
            {
                "start_time": 3.715909090909091,
                "end_time": 3.777272727272727,
                "pitch": 64,
                "velocity": 80,
                "duration": 0.061363636363636065,
                "tempo": 120.0
            },
            {
                "start_time": 3.829545454545454,
                "end_time": 4.0636363636363635,
                "pitch": 64,
                "velocity": 4,
                "duration": 0.23409090909090935,
                "tempo": 120.0
            },
            {
                "start_time": 4.0659090909090905,
                "end_time": 4.125,
                "pitch": 64,
                "velocity": 80,
                "duration": 0.05909090909090953,
                "tempo": 120.0
            },
            {
                "start_time": 4.177272727272727,
                "end_time": 4.293181818181818,
                "pitch": 64,
                "velocity": 4,
                "duration": 0.11590909090909118,
                "tempo": 120.0
            },
            {
                "start_time": 4.295454545454545,
                "end_time": 4.3545454545454545,
                "pitch": 64,
                "velocity": 80,
                "duration": 0.05909090909090953,
                "tempo": 120.0
            },
            {
                "start_time": 4.413636363636363,
                "end_time": 4.556818181818182,
                "pitch": 63,
                "velocity": 80,
                "duration": 0.14318181818181852,
                "tempo": 120.0
            },
            {
                "start_time": 4.6499999999999995,
                "end_time": 4.884090909090909,
                "pitch": 63,
                "velocity": 4,
                "duration": 0.23409090909090935,
                "tempo": 120.0
            },
            {
                "start_time": 4.886363636363636,
                "end_time": 4.945454545454545,
                "pitch": 62,
                "velocity": 80,
                "duration": 0.05909090909090953,
                "tempo": 120.0
            },
            {
                "start_time": 5.0,
                "end_time": 5.059090909090909,
                "pitch": 62,
                "velocity": 80,
                "duration": 0.05909090909090864,
                "tempo": 120.0
            },
            {
                "start_time": 5.11590909090909,
                "end_time": 5.175,
                "pitch": 62,
                "velocity": 80,
                "duration": 0.05909090909090953,
                "tempo": 120.0
            },
            {
                "start_time": 5.227272727272727,
                "end_time": 5.288636363636363,
                "pitch": 62,
                "velocity": 80,
                "duration": 0.06136363636363651,
                "tempo": 120.0
            },
            {
                "start_time": 5.343181818181818,
                "end_time": 5.579545454545454,
                "pitch": 62,
                "velocity": 4,
                "duration": 0.23636363636363633,
                "tempo": 120.0
            },
            {
                "start_time": 5.579545454545454,
                "end_time": 5.790909090909091,
                "pitch": 62,
                "velocity": 80,
                "duration": 0.21136363636363686,
                "tempo": 120.0
            },
            {
                "start_time": 5.934090909090909,
                "end_time": 6.136363636363636,
                "pitch": 65,
                "velocity": 80,
                "duration": 0.20227272727272716,
                "tempo": 120.0
            },
            {
                "start_time": 6.2749999999999995,
                "end_time": 6.420454545454545,
                "pitch": 69,
                "velocity": 80,
                "duration": 0.1454545454545455,
                "tempo": 120.0
            },
            {
                "start_time": 6.515909090909091,
                "end_time": 6.752272727272727,
                "pitch": 69,
                "velocity": 4,
                "duration": 0.23636363636363633,
                "tempo": 120.0
            },
            {
                "start_time": 6.754545454545454,
                "end_time": 6.8136363636363635,
                "pitch": 67,
                "velocity": 80,
                "duration": 0.05909090909090953,
                "tempo": 120.0
            },
            {
                "start_time": 6.868181818181818,
                "end_time": 6.927272727272727,
                "pitch": 67,
                "velocity": 80,
                "duration": 0.05909090909090864,
                "tempo": 120.0
            },
            {
                "start_time": 6.9795454545454545,
                "end_time": 7.043181818181818,
                "pitch": 67,
                "velocity": 80,
                "duration": 0.06363636363636349,
                "tempo": 120.0
            },
            {
                "start_time": 7.095454545454545,
                "end_time": 7.156818181818181,
                "pitch": 67,
                "velocity": 80,
                "duration": 0.06136363636363651,
                "tempo": 120.0
            },
            {
                "start_time": 7.209090909090909,
                "end_time": 7.672727272727272,
                "pitch": 67,
                "velocity": 4,
                "duration": 0.46363636363636296,
                "tempo": 120.0
            },
            {
                "start_time": 7.675,
                "end_time": 7.8159090909090905,
                "pitch": 64,
                "velocity": 80,
                "duration": 0.14090909090909065,
                "tempo": 120.0
            },
            {
                "start_time": 7.904545454545454,
                "end_time": 8.025,
                "pitch": 64,
                "velocity": 4,
                "duration": 0.12045454545454604,
                "tempo": 120.0
            },
            {
                "start_time": 8.027272727272727,
                "end_time": 8.236363636363636,
                "pitch": 64,
                "velocity": 80,
                "duration": 0.209090909090909,
                "tempo": 120.0
            },
            {
                "start_time": 8.375,
                "end_time": 8.60909090909091,
                "pitch": 64,
                "velocity": 4,
                "duration": 0.23409090909090935,
                "tempo": 120.0
            },
            {
                "start_time": 8.611363636363636,
                "end_time": 8.670454545454545,
                "pitch": 65,
                "velocity": 80,
                "duration": 0.05909090909090864,
                "tempo": 120.0
            },
            {
                "start_time": 8.725,
                "end_time": 8.784090909090908,
                "pitch": 65,
                "velocity": 80,
                "duration": 0.05909090909090864,
                "tempo": 120.0
            },
            {
                "start_time": 8.838636363636363,
                "end_time": 8.9,
                "pitch": 65,
                "velocity": 80,
                "duration": 0.0613636363636374,
                "tempo": 120.0
            },
            {
                "start_time": 8.952272727272726,
                "end_time": 9.013636363636364,
                "pitch": 65,
                "velocity": 80,
                "duration": 0.0613636363636374,
                "tempo": 120.0
            },
            {
                "start_time": 9.06590909090909,
                "end_time": 9.304545454545455,
                "pitch": 65,
                "velocity": 4,
                "duration": 0.2386363636363651,
                "tempo": 120.0
            },
            {
                "start_time": 9.304545454545455,
                "end_time": 9.36590909090909,
                "pitch": 65,
                "velocity": 80,
                "duration": 0.06136363636363562,
                "tempo": 120.0
            },
            {
                "start_time": 9.418181818181818,
                "end_time": 9.654545454545454,
                "pitch": 65,
                "velocity": 4,
                "duration": 0.23636363636363633,
                "tempo": 120.0
            },
            {
                "start_time": 9.656818181818181,
                "end_time": 10.009090909090908,
                "pitch": 65,
                "velocity": 80,
                "duration": 0.3522727272727266,
                "tempo": 120.0
            },
            {
                "start_time": 10.238636363636363,
                "end_time": 10.477272727272727,
                "pitch": 65,
                "velocity": 4,
                "duration": 0.2386363636363633,
                "tempo": 120.0
            },
            {
                "start_time": 10.479545454545454,
                "end_time": 10.538636363636362,
                "pitch": 64,
                "velocity": 80,
                "duration": 0.05909090909090864,
                "tempo": 120.0
            },
            {
                "start_time": 10.595454545454546,
                "end_time": 10.656818181818181,
                "pitch": 64,
                "velocity": 80,
                "duration": 0.06136363636363562,
                "tempo": 120.0
            },
            {
                "start_time": 10.711363636363636,
                "end_time": 10.775,
                "pitch": 64,
                "velocity": 80,
                "duration": 0.06363636363636438,
                "tempo": 120.0
            },
            {
                "start_time": 10.829545454545453,
                "end_time": 10.89090909090909,
                "pitch": 64,
                "velocity": 80,
                "duration": 0.0613636363636374,
                "tempo": 120.0
            },
            {
                "start_time": 10.945454545454545,
                "end_time": 11.177272727272726,
                "pitch": 64,
                "velocity": 4,
                "duration": 0.2318181818181806,
                "tempo": 120.0
            },
            {
                "start_time": 11.177272727272726,
                "end_time": 11.236363636363636,
                "pitch": 64,
                "velocity": 80,
                "duration": 0.059090909090910415,
                "tempo": 120.0
            },
            {
                "start_time": 11.288636363636362,
                "end_time": 11.524999999999999,
                "pitch": 64,
                "velocity": 4,
                "duration": 0.23636363636363633,
                "tempo": 120.0
            },
            {
                "start_time": 11.527272727272727,
                "end_time": 11.586363636363636,
                "pitch": 64,
                "velocity": 80,
                "duration": 0.05909090909090864,
                "tempo": 120.0
            },
            {
                "start_time": 11.638636363636364,
                "end_time": 11.763636363636364,
                "pitch": 64,
                "velocity": 4,
                "duration": 0.125,
                "tempo": 120.0
            },
            {
                "start_time": 11.763636363636364,
                "end_time": 11.820454545454545,
                "pitch": 64,
                "velocity": 80,
                "duration": 0.05681818181818166,
                "tempo": 120.0
            },
            {
                "start_time": 11.877272727272727,
                "end_time": 12.022727272727272,
                "pitch": 63,
                "velocity": 80,
                "duration": 0.14545454545454461,
                "tempo": 120.0
            },
            {
                "start_time": 12.10909090909091,
                "end_time": 12.343181818181817,
                "pitch": 63,
                "velocity": 4,
                "duration": 0.23409090909090757,
                "tempo": 120.0
            },
            {
                "start_time": 12.345454545454546,
                "end_time": 12.406818181818181,
                "pitch": 62,
                "velocity": 80,
                "duration": 0.06136363636363562,
                "tempo": 120.0
            },
            {
                "start_time": 12.463636363636363,
                "end_time": 12.520454545454545,
                "pitch": 62,
                "velocity": 80,
                "duration": 0.05681818181818166,
                "tempo": 120.0
            },
            {
                "start_time": 12.572727272727272,
                "end_time": 12.636363636363635,
                "pitch": 62,
                "velocity": 80,
                "duration": 0.0636363636363626,
                "tempo": 120.0
            },
            {
                "start_time": 12.69090909090909,
                "end_time": 12.75,
                "pitch": 62,
                "velocity": 80,
                "duration": 0.059090909090910415,
                "tempo": 120.0
            },
            {
                "start_time": 12.804545454545455,
                "end_time": 13.040909090909091,
                "pitch": 62,
                "velocity": 4,
                "duration": 0.23636363636363633,
                "tempo": 120.0
            },
            {
                "start_time": 13.043181818181818,
                "end_time": 13.252272727272727,
                "pitch": 62,
                "velocity": 80,
                "duration": 0.209090909090909,
                "tempo": 120.0
            },
            {
                "start_time": 13.39090909090909,
                "end_time": 13.595454545454546,
                "pitch": 65,
                "velocity": 80,
                "duration": 0.20454545454545503,
                "tempo": 120.0
            },
            {
                "start_time": 13.736363636363636,
                "end_time": 13.881818181818181,
                "pitch": 69,
                "velocity": 80,
                "duration": 0.14545454545454461,
                "tempo": 120.0
            },
            {
                "start_time": 13.975,
                "end_time": 14.213636363636363,
                "pitch": 69,
                "velocity": 4,
                "duration": 0.2386363636363633,
                "tempo": 120.0
            },
            {
                "start_time": 14.213636363636363,
                "end_time": 14.274999999999999,
                "pitch": 69,
                "velocity": 80,
                "duration": 0.06136363636363562,
                "tempo": 120.0
            },
            {
                "start_time": 14.33181818181818,
                "end_time": 14.393181818181818,
                "pitch": 69,
                "velocity": 80,
                "duration": 0.0613636363636374,
                "tempo": 120.0
            },
            {
                "start_time": 14.447727272727272,
                "end_time": 14.511363636363635,
                "pitch": 69,
                "velocity": 80,
                "duration": 0.0636363636363626,
                "tempo": 120.0
            },
            {
                "start_time": 14.563636363636363,
                "end_time": 14.627272727272727,
                "pitch": 69,
                "velocity": 80,
                "duration": 0.06363636363636438,
                "tempo": 120.0
            },
            {
                "start_time": 14.681818181818182,
                "end_time": 14.913636363636362,
                "pitch": 69,
                "velocity": 4,
                "duration": 0.2318181818181806,
                "tempo": 120.0
            },
            {
                "start_time": 14.913636363636362,
                "end_time": 14.972727272727273,
                "pitch": 67,
                "velocity": 80,
                "duration": 0.059090909090910415,
                "tempo": 120.0
            },
            {
                "start_time": 15.022727272727272,
                "end_time": 15.256818181818181,
                "pitch": 67,
                "velocity": 4,
                "duration": 0.23409090909090935,
                "tempo": 120.0
            },
            {
                "start_time": 15.256818181818181,
                "end_time": 15.318181818181817,
                "pitch": 67,
                "velocity": 80,
                "duration": 0.06136363636363562,
                "tempo": 120.0
            },
            {
                "start_time": 15.372727272727271,
                "end_time": 15.49090909090909,
                "pitch": 67,
                "velocity": 4,
                "duration": 0.11818181818181905,
                "tempo": 120.0
            },
            {
                "start_time": 15.49090909090909,
                "end_time": 15.697727272727272,
                "pitch": 67,
                "velocity": 80,
                "duration": 0.206818181818182,
                "tempo": 120.0
            },
            {
                "start_time": 15.85,
                "end_time": 16.602272727272727,
                "pitch": 69,
                "velocity": 80,
                "duration": 0.752272727272727,
                "tempo": 120.0
            },
            {
                "start_time": 16.777272727272727,
                "end_time": 17.152272727272727,
                "pitch": 65,
                "velocity": 80,
                "duration": 0.375,
                "tempo": 120.0
            },
            {
                "start_time": 17.245454545454546,
                "end_time": 17.331818181818182,
                "pitch": 65,
                "velocity": 80,
                "duration": 0.08636363636363598,
                "tempo": 120.0
            },
            {
                "start_time": 17.35909090909091,
                "end_time": 17.44772727272727,
                "pitch": 65,
                "velocity": 80,
                "duration": 0.08863636363636118,
                "tempo": 120.0
            },
            {
                "start_time": 17.46818181818182,
                "end_time": 17.59090909090909,
                "pitch": 65,
                "velocity": 4,
                "duration": 0.12272727272727124,
                "tempo": 120.0
            },
            {
                "start_time": 17.59090909090909,
                "end_time": 18.436363636363634,
                "pitch": 64,
                "velocity": 80,
                "duration": 0.8454545454545439,
                "tempo": 120.0
            },
            {
                "start_time": 18.643181818181816,
                "end_time": 18.922727272727272,
                "pitch": 64,
                "velocity": 80,
                "duration": 0.2795454545454561,
                "tempo": 120.0
            },
            {
                "start_time": 18.99772727272727,
                "end_time": 19.26590909090909,
                "pitch": 64,
                "velocity": 80,
                "duration": 0.2681818181818194,
                "tempo": 120.0
            },
            {
                "start_time": 19.34318181818182,
                "end_time": 19.520454545454545,
                "pitch": 64,
                "velocity": 80,
                "duration": 0.17727272727272592,
                "tempo": 120.0
            },
            {
                "start_time": 19.581818181818182,
                "end_time": 20.327272727272728,
                "pitch": 62,
                "velocity": 80,
                "duration": 0.745454545454546,
                "tempo": 120.0
            },
            {
                "start_time": 20.511363636363637,
                "end_time": 21.26590909090909,
                "pitch": 65,
                "velocity": 80,
                "duration": 0.754545454545454,
                "tempo": 120.0
            },
            {
                "start_time": 21.445454545454545,
                "end_time": 21.71818181818182,
                "pitch": 64,
                "velocity": 80,
                "duration": 0.2727272727272734,
                "tempo": 120.0
            },
            {
                "start_time": 21.797727272727272,
                "end_time": 22.172727272727272,
                "pitch": 63,
                "velocity": 80,
                "duration": 0.375,
                "tempo": 120.0
            },
            {
                "start_time": 22.268181818181816,
                "end_time": 22.64090909090909,
                "pitch": 62,
                "velocity": 80,
                "duration": 0.3727272727272748,
                "tempo": 120.0
            },
            {
                "start_time": 22.73409090909091,
                "end_time": 22.820454545454545,
                "pitch": 62,
                "velocity": 80,
                "duration": 0.08636363636363598,
                "tempo": 120.0
            },
            {
                "start_time": 22.84318181818182,
                "end_time": 22.96363636363636,
                "pitch": 62,
                "velocity": 4,
                "duration": 0.12045454545454248,
                "tempo": 120.0
            },
            {
                "start_time": 22.96363636363636,
                "end_time": 23.23409090909091,
                "pitch": 65,
                "velocity": 4,
                "duration": 0.27045454545454817,
                "tempo": 120.0
            },
            {
                "start_time": 22.96363636363636,
                "end_time": 23.23409090909091,
                "pitch": 65,
                "velocity": 80,
                "duration": 0.27045454545454817,
                "tempo": 120.0
            },
            {
                "start_time": 23.30909090909091,
                "end_time": 24.454545454545453,
                "pitch": 65,
                "velocity": 80,
                "duration": 1.1454545454545446,
                "tempo": 120.0
            },
            {
                "start_time": 24.709090909090907,
                "end_time": 24.799999999999997,
                "pitch": 65,
                "velocity": 80,
                "duration": 0.09090909090908994,
                "tempo": 120.0
            },
            {
                "start_time": 24.82272727272727,
                "end_time": 24.913636363636364,
                "pitch": 65,
                "velocity": 80,
                "duration": 0.09090909090909349,
                "tempo": 120.0
            },
            {
                "start_time": 24.936363636363634,
                "end_time": 25.052272727272726,
                "pitch": 65,
                "velocity": 4,
                "duration": 0.11590909090909207,
                "tempo": 120.0
            },
            {
                "start_time": 25.054545454545455,
                "end_time": 25.904545454545453,
                "pitch": 64,
                "velocity": 80,
                "duration": 0.8499999999999979,
                "tempo": 120.0
            },
            {
                "start_time": 26.113636363636363,
                "end_time": 26.388636363636362,
                "pitch": 64,
                "velocity": 80,
                "duration": 0.2749999999999986,
                "tempo": 120.0
            },
            {
                "start_time": 26.46363636363636,
                "end_time": 26.73409090909091,
                "pitch": 64,
                "velocity": 80,
                "duration": 0.27045454545454817,
                "tempo": 120.0
            },
            {
                "start_time": 26.80909090909091,
                "end_time": 26.986363636363635,
                "pitch": 64,
                "velocity": 80,
                "duration": 0.17727272727272592,
                "tempo": 120.0
            },
            {
                "start_time": 27.049999999999997,
                "end_time": 27.329545454545453,
                "pitch": 62,
                "velocity": 80,
                "duration": 0.2795454545454561,
                "tempo": 120.0
            },
            {
                "start_time": 27.404545454545453,
                "end_time": 27.87272727272727,
                "pitch": 65,
                "velocity": 80,
                "duration": 0.4681818181818187,
                "tempo": 120.0
            },
            {
                "start_time": 27.979545454545452,
                "end_time": 28.25681818181818,
                "pitch": 69,
                "velocity": 80,
                "duration": 0.27727272727272734,
                "tempo": 120.0
            },
            {
                "start_time": 28.334090909090907,
                "end_time": 28.799999999999997,
                "pitch": 72,
                "velocity": 80,
                "duration": 0.46590909090908994,
                "tempo": 120.0
            },
            {
                "start_time": 28.90681818181818,
                "end_time": 29.143181818181816,
                "pitch": 72,
                "velocity": 4,
                "duration": 0.23636363636363455,
                "tempo": 120.0
            },
            {
                "start_time": 29.145454545454545,
                "end_time": 29.202272727272724,
                "pitch": 71,
                "velocity": 80,
                "duration": 0.05681818181817988,
                "tempo": 120.0
            },
            {
                "start_time": 29.252272727272725,
                "end_time": 29.486363636363635,
                "pitch": 71,
                "velocity": 4,
                "duration": 0.23409090909090935,
                "tempo": 120.0
            },
            {
                "start_time": 29.486363636363635,
                "end_time": 29.545454545454543,
                "pitch": 71,
                "velocity": 80,
                "duration": 0.05909090909090864,
                "tempo": 120.0
            },
            {
                "start_time": 29.595454545454544,
                "end_time": 29.952272727272724,
                "pitch": 71,
                "velocity": 4,
                "duration": 0.3568181818181806,
                "tempo": 120.0
            },
            {
                "start_time": 29.952272727272724,
                "end_time": 30.013636363636362,
                "pitch": 73,
                "velocity": 4,
                "duration": 0.0613636363636374,
                "tempo": 120.0
            },
            {
                "start_time": 29.954545454545453,
                "end_time": 30.013636363636362,
                "pitch": 73,
                "velocity": 80,
                "duration": 0.05909090909090864,
                "tempo": 120.0
            },
            {
                "start_time": 30.068181818181817,
                "end_time": 30.188636363636363,
                "pitch": 73,
                "velocity": 4,
                "duration": 0.12045454545454604,
                "tempo": 120.0
            },
            {
                "start_time": 30.188636363636363,
                "end_time": 30.549999999999997,
                "pitch": 73,
                "velocity": 80,
                "duration": 0.36136363636363455,
                "tempo": 120.0
            },
            {
                "start_time": 30.770454545454545,
                "end_time": 30.99772727272727,
                "pitch": 61,
                "velocity": 4,
                "duration": 0.22727272727272663,
                "tempo": 120.0
            },
            {
                "start_time": 30.99772727272727,
                "end_time": 31.061363636363634,
                "pitch": 65,
                "velocity": 4,
                "duration": 0.0636363636363626,
                "tempo": 120.0
            },
            {
                "start_time": 31.0,
                "end_time": 31.061363636363634,
                "pitch": 65,
                "velocity": 80,
                "duration": 0.061363636363633844,
                "tempo": 120.0
            },
            {
                "start_time": 31.118181818181817,
                "end_time": 31.18181818181818,
                "pitch": 65,
                "velocity": 80,
                "duration": 0.0636363636363626,
                "tempo": 120.0
            },
            {
                "start_time": 31.236363636363635,
                "end_time": 31.302272727272726,
                "pitch": 65,
                "velocity": 80,
                "duration": 0.06590909090909136,
                "tempo": 120.0
            },
            {
                "start_time": 31.35681818181818,
                "end_time": 31.422727272727272,
                "pitch": 65,
                "velocity": 80,
                "duration": 0.06590909090909136,
                "tempo": 120.0
            },
            {
                "start_time": 31.477272727272727,
                "end_time": 31.709090909090907,
                "pitch": 65,
                "velocity": 4,
                "duration": 0.2318181818181806,
                "tempo": 120.0
            },
            {
                "start_time": 31.709090909090907,
                "end_time": 31.768181818181816,
                "pitch": 65,
                "velocity": 80,
                "duration": 0.05909090909090864,
                "tempo": 120.0
            },
            {
                "start_time": 31.820454545454545,
                "end_time": 32.054545454545455,
                "pitch": 65,
                "velocity": 4,
                "duration": 0.23409090909090935,
                "tempo": 120.0
            },
            {
                "start_time": 32.05681818181818,
                "end_time": 32.40909090909091,
                "pitch": 65,
                "velocity": 80,
                "duration": 0.3522727272727266,
                "tempo": 120.0
            },
            {
                "start_time": 32.638636363636365,
                "end_time": 32.877272727272725,
                "pitch": 65,
                "velocity": 4,
                "duration": 0.23863636363635976,
                "tempo": 120.0
            },
            {
                "start_time": 32.877272727272725,
                "end_time": 32.93863636363636,
                "pitch": 64,
                "velocity": 80,
                "duration": 0.0613636363636374,
                "tempo": 120.0
            },
            {
                "start_time": 32.99772727272727,
                "end_time": 33.05681818181818,
                "pitch": 64,
                "velocity": 80,
                "duration": 0.05909090909091219,
                "tempo": 120.0
            },
            {
                "start_time": 33.111363636363635,
                "end_time": 33.175,
                "pitch": 64,
                "velocity": 80,
                "duration": 0.0636363636363626,
                "tempo": 120.0
            },
            {
                "start_time": 33.22954545454545,
                "end_time": 33.29090909090909,
                "pitch": 64,
                "velocity": 80,
                "duration": 0.0613636363636374,
                "tempo": 120.0
            },
            {
                "start_time": 33.34772727272727,
                "end_time": 33.57727272727273,
                "pitch": 64,
                "velocity": 4,
                "duration": 0.22954545454545894,
                "tempo": 120.0
            },
            {
                "start_time": 33.57727272727273,
                "end_time": 33.63636363636363,
                "pitch": 64,
                "velocity": 80,
                "duration": 0.059090909090905086,
                "tempo": 120.0
            },
            {
                "start_time": 33.68863636363636,
                "end_time": 33.92045454545455,
                "pitch": 64,
                "velocity": 4,
                "duration": 0.23181818181818414,
                "tempo": 120.0
            },
            {
                "start_time": 33.92045454545455,
                "end_time": 33.98181818181818,
                "pitch": 64,
                "velocity": 80,
                "duration": 0.06136363636363029,
                "tempo": 120.0
            },
            {
                "start_time": 34.03409090909091,
                "end_time": 34.15,
                "pitch": 64,
                "velocity": 4,
                "duration": 0.11590909090909207,
                "tempo": 120.0
            },
            {
                "start_time": 34.15,
                "end_time": 34.211363636363636,
                "pitch": 64,
                "velocity": 80,
                "duration": 0.0613636363636374,
                "tempo": 120.0
            },
            {
                "start_time": 34.27045454545454,
                "end_time": 34.413636363636364,
                "pitch": 63,
                "velocity": 80,
                "duration": 0.14318181818182296,
                "tempo": 120.0
            },
            {
                "start_time": 34.50454545454545,
                "end_time": 34.74090909090909,
                "pitch": 63,
                "velocity": 4,
                "duration": 0.23636363636364166,
                "tempo": 120.0
            },
            {
                "start_time": 34.74318181818182,
                "end_time": 34.80227272727272,
                "pitch": 62,
                "velocity": 80,
                "duration": 0.059090909090905086,
                "tempo": 120.0
            },
            {
                "start_time": 34.85681818181818,
                "end_time": 34.91590909090909,
                "pitch": 62,
                "velocity": 80,
                "duration": 0.05909090909091219,
                "tempo": 120.0
            },
            {
                "start_time": 34.97272727272727,
                "end_time": 35.03181818181818,
                "pitch": 62,
                "velocity": 80,
                "duration": 0.05909090909091219,
                "tempo": 120.0
            },
            {
                "start_time": 35.08409090909091,
                "end_time": 35.14545454545454,
                "pitch": 62,
                "velocity": 80,
                "duration": 0.06136363636363029,
                "tempo": 120.0
            },
            {
                "start_time": 35.199999999999996,
                "end_time": 35.43863636363636,
                "pitch": 62,
                "velocity": 4,
                "duration": 0.23863636363636687,
                "tempo": 120.0
            },
            {
                "start_time": 35.44090909090909,
                "end_time": 35.654545454545456,
                "pitch": 62,
                "velocity": 80,
                "duration": 0.2136363636363683,
                "tempo": 120.0
            },
            {
                "start_time": 35.793181818181814,
                "end_time": 35.99318181818182,
                "pitch": 65,
                "velocity": 80,
                "duration": 0.20000000000000284,
                "tempo": 120.0
            },
            {
                "start_time": 36.12954545454545,
                "end_time": 36.27272727272727,
                "pitch": 69,
                "velocity": 80,
                "duration": 0.14318181818182296,
                "tempo": 120.0
            },
            {
                "start_time": 36.36590909090909,
                "end_time": 36.60227272727273,
                "pitch": 69,
                "velocity": 4,
                "duration": 0.23636363636363455,
                "tempo": 120.0
            },
            {
                "start_time": 36.60227272727273,
                "end_time": 36.663636363636364,
                "pitch": 67,
                "velocity": 80,
                "duration": 0.0613636363636374,
                "tempo": 120.0
            },
            {
                "start_time": 36.720454545454544,
                "end_time": 36.78181818181818,
                "pitch": 67,
                "velocity": 80,
                "duration": 0.0613636363636374,
                "tempo": 120.0
            },
            {
                "start_time": 36.836363636363636,
                "end_time": 36.9,
                "pitch": 67,
                "velocity": 80,
                "duration": 0.0636363636363626,
                "tempo": 120.0
            },
            {
                "start_time": 36.95227272727273,
                "end_time": 37.01590909090909,
                "pitch": 67,
                "velocity": 80,
                "duration": 0.0636363636363626,
                "tempo": 120.0
            }
        ],
        "Acoustic Bass": [
            {
                "start_time": 0.00909090909090909,
                "end_time": 0.21136363636363636,
                "pitch": 0,
                "velocity": 4,
                "duration": 0.20227272727272727,
                "tempo": 120.0
            },
            {
                "start_time": 0.21136363636363636,
                "end_time": 0.4022727272727272,
                "pitch": 38,
                "velocity": 101,
                "duration": 0.19090909090909086,
                "tempo": 120.0
            },
            {
                "start_time": 0.44999999999999996,
                "end_time": 0.4954545454545454,
                "pitch": 38,
                "velocity": 101,
                "duration": 0.04545454545454547,
                "tempo": 120.0
            },
            {
                "start_time": 0.4954545454545454,
                "end_time": 0.5454545454545454,
                "pitch": 38,
                "velocity": 101,
                "duration": 0.04999999999999999,
                "tempo": 120.0
            },
            {
                "start_time": 0.5454545454545454,
                "end_time": 0.5954545454545455,
                "pitch": 36,
                "velocity": 101,
                "duration": 0.050000000000000044,
                "tempo": 120.0
            },
            {
                "start_time": 0.5477272727272727,
                "end_time": 0.5954545454545455,
                "pitch": 36,
                "velocity": 101,
                "duration": 0.04772727272727273,
                "tempo": 120.0
            },
            {
                "start_time": 0.5977272727272727,
                "end_time": 0.6477272727272727,
                "pitch": 35,
                "velocity": 101,
                "duration": 0.050000000000000044,
                "tempo": 120.0
            },
            {
                "start_time": 0.6477272727272727,
                "end_time": 0.7113636363636363,
                "pitch": 34,
                "velocity": 101,
                "duration": 0.0636363636363636,
                "tempo": 120.0
            },
            {
                "start_time": 0.7113636363636363,
                "end_time": 0.7772727272727272,
                "pitch": 33,
                "velocity": 101,
                "duration": 0.06590909090909092,
                "tempo": 120.0
            },
            {
                "start_time": 0.7795454545454545,
                "end_time": 0.8386363636363636,
                "pitch": 32,
                "velocity": 101,
                "duration": 0.05909090909090908,
                "tempo": 120.0
            },
            {
                "start_time": 0.8409090909090908,
                "end_time": 0.8999999999999999,
                "pitch": 31,
                "velocity": 101,
                "duration": 0.05909090909090908,
                "tempo": 120.0
            },
            {
                "start_time": 0.8999999999999999,
                "end_time": 1.1886363636363635,
                "pitch": 29,
                "velocity": 101,
                "duration": 0.2886363636363636,
                "tempo": 120.0
            },
            {
                "start_time": 1.2454545454545454,
                "end_time": 1.5545454545454545,
                "pitch": 36,
                "velocity": 101,
                "duration": 0.3090909090909091,
                "tempo": 120.0
            },
            {
                "start_time": 0.8999999999999999,
                "end_time": 1.8022727272727272,
                "pitch": 41,
                "velocity": 101,
                "duration": 0.9022727272727273,
                "tempo": 120.0
            },
            {
                "start_time": 1.609090909090909,
                "end_time": 1.8022727272727272,
                "pitch": 41,
                "velocity": 101,
                "duration": 0.19318181818181834,
                "tempo": 120.0
            },
            {
                "start_time": 1.843181818181818,
                "end_time": 1.9522727272727272,
                "pitch": 29,
                "velocity": 4,
                "duration": 0.10909090909090913,
                "tempo": 120.0
            },
            {
                "start_time": 1.9545454545454544,
                "end_time": 2.05,
                "pitch": 29,
                "velocity": 101,
                "duration": 0.09545454545454546,
                "tempo": 120.0
            },
            {
                "start_time": 2.068181818181818,
                "end_time": 2.190909090909091,
                "pitch": 29,
                "velocity": 4,
                "duration": 0.12272727272727302,
                "tempo": 120.0
            },
            {
                "start_time": 2.190909090909091,
                "end_time": 2.284090909090909,
                "pitch": 29,
                "velocity": 101,
                "duration": 0.09318181818181825,
                "tempo": 120.0
            },
            {
                "start_time": 2.3022727272727272,
                "end_time": 2.502272727272727,
                "pitch": 36,
                "velocity": 101,
                "duration": 0.19999999999999973,
                "tempo": 120.0
            },
            {
                "start_time": 2.540909090909091,
                "end_time": 2.7363636363636363,
                "pitch": 41,
                "velocity": 101,
                "duration": 0.19545454545454533,
                "tempo": 120.0
            },
            {
                "start_time": 2.7772727272727273,
                "end_time": 3.0727272727272728,
                "pitch": 28,
                "velocity": 101,
                "duration": 0.2954545454545454,
                "tempo": 120.0
            },
            {
                "start_time": 3.1295454545454544,
                "end_time": 3.425,
                "pitch": 35,
                "velocity": 101,
                "duration": 0.2954545454545454,
                "tempo": 120.0
            },
            {
                "start_time": 3.4795454545454545,
                "end_time": 3.675,
                "pitch": 40,
                "velocity": 101,
                "duration": 0.19545454545454533,
                "tempo": 120.0
            },
            {
                "start_time": 3.715909090909091,
                "end_time": 3.829545454545454,
                "pitch": 28,
                "velocity": 4,
                "duration": 0.11363636363636331,
                "tempo": 120.0
            },
            {
                "start_time": 3.829545454545454,
                "end_time": 3.9272727272727272,
                "pitch": 28,
                "velocity": 101,
                "duration": 0.0977272727272731,
                "tempo": 120.0
            },
            {
                "start_time": 3.9454545454545453,
                "end_time": 4.0636363636363635,
                "pitch": 28,
                "velocity": 4,
                "duration": 0.11818181818181817,
                "tempo": 120.0
            },
            {
                "start_time": 4.0659090909090905,
                "end_time": 4.156818181818181,
                "pitch": 28,
                "velocity": 101,
                "duration": 0.09090909090909083,
                "tempo": 120.0
            },
            {
                "start_time": 4.177272727272727,
                "end_time": 4.293181818181818,
                "pitch": 28,
                "velocity": 4,
                "duration": 0.11590909090909118,
                "tempo": 120.0
            },
            {
                "start_time": 4.295454545454545,
                "end_time": 4.386363636363636,
                "pitch": 40,
                "velocity": 101,
                "duration": 0.09090909090909083,
                "tempo": 120.0
            },
            {
                "start_time": 4.413636363636363,
                "end_time": 4.6068181818181815,
                "pitch": 39,
                "velocity": 101,
                "duration": 0.19318181818181834,
                "tempo": 120.0
            },
            {
                "start_time": 4.6499999999999995,
                "end_time": 4.945454545454545,
                "pitch": 26,
                "velocity": 101,
                "duration": 0.29545454545454586,
                "tempo": 120.0
            },
            {
                "start_time": 5.0,
                "end_time": 5.288636363636363,
                "pitch": 33,
                "velocity": 101,
                "duration": 0.28863636363636314,
                "tempo": 120.0
            },
            {
                "start_time": 5.343181818181818,
                "end_time": 5.538636363636363,
                "pitch": 38,
                "velocity": 101,
                "duration": 0.19545454545454533,
                "tempo": 120.0
            },
            {
                "start_time": 5.579545454545454,
                "end_time": 5.695454545454545,
                "pitch": 26,
                "velocity": 4,
                "duration": 0.11590909090909118,
                "tempo": 120.0
            },
            {
                "start_time": 5.695454545454545,
                "end_time": 5.790909090909091,
                "pitch": 31,
                "velocity": 101,
                "duration": 0.09545454545454568,
                "tempo": 120.0
            },
            {
                "start_time": 5.8113636363636365,
                "end_time": 5.934090909090909,
                "pitch": 31,
                "velocity": 4,
                "duration": 0.12272727272727213,
                "tempo": 120.0
            },
            {
                "start_time": 5.934090909090909,
                "end_time": 6.0204545454545455,
                "pitch": 31,
                "velocity": 101,
                "duration": 0.08636363636363686,
                "tempo": 120.0
            },
            {
                "start_time": 6.040909090909091,
                "end_time": 6.2340909090909085,
                "pitch": 38,
                "velocity": 101,
                "duration": 0.19318181818181746,
                "tempo": 120.0
            },
            {
                "start_time": 6.2749999999999995,
                "end_time": 6.472727272727273,
                "pitch": 43,
                "velocity": 101,
                "duration": 0.1977272727272732,
                "tempo": 120.0
            },
            {
                "start_time": 6.515909090909091,
                "end_time": 6.8136363636363635,
                "pitch": 24,
                "velocity": 101,
                "duration": 0.29772727272727284,
                "tempo": 120.0
            },
            {
                "start_time": 6.868181818181818,
                "end_time": 7.156818181818181,
                "pitch": 31,
                "velocity": 101,
                "duration": 0.28863636363636314,
                "tempo": 120.0
            },
            {
                "start_time": 7.209090909090909,
                "end_time": 7.402272727272727,
                "pitch": 36,
                "velocity": 101,
                "duration": 0.19318181818181834,
                "tempo": 120.0
            },
            {
                "start_time": 7.436363636363636,
                "end_time": 7.672727272727272,
                "pitch": 36,
                "velocity": 4,
                "duration": 0.23636363636363633,
                "tempo": 120.0
            },
            {
                "start_time": 7.675,
                "end_time": 7.86590909090909,
                "pitch": 36,
                "velocity": 101,
                "duration": 0.19090909090909047,
                "tempo": 120.0
            },
            {
                "start_time": 7.904545454545454,
                "end_time": 8.025,
                "pitch": 36,
                "velocity": 4,
                "duration": 0.12045454545454604,
                "tempo": 120.0
            },
            {
                "start_time": 8.027272727272727,
                "end_time": 8.202272727272726,
                "pitch": 36,
                "velocity": 101,
                "duration": 0.17499999999999893,
                "tempo": 120.0
            },
            {
                "start_time": 8.220454545454546,
                "end_time": 8.270454545454545,
                "pitch": 35,
                "velocity": 101,
                "duration": 0.049999999999998934,
                "tempo": 120.0
            },
            {
                "start_time": 8.270454545454545,
                "end_time": 8.320454545454545,
                "pitch": 34,
                "velocity": 101,
                "duration": 0.05000000000000071,
                "tempo": 120.0
            },
            {
                "start_time": 8.322727272727272,
                "end_time": 8.375,
                "pitch": 33,
                "velocity": 101,
                "duration": 0.05227272727272769,
                "tempo": 120.0
            },
            {
                "start_time": 8.375,
                "end_time": 8.636363636363637,
                "pitch": 29,
                "velocity": 101,
                "duration": 0.2613636363636367,
                "tempo": 120.0
            },
            {
                "start_time": 8.725,
                "end_time": 8.98181818181818,
                "pitch": 36,
                "velocity": 101,
                "duration": 0.25681818181818095,
                "tempo": 120.0
            },
            {
                "start_time": 8.375,
                "end_time": 9.247727272727273,
                "pitch": 41,
                "velocity": 101,
                "duration": 0.872727272727273,
                "tempo": 120.0
            },
            {
                "start_time": 9.06590909090909,
                "end_time": 9.247727272727273,
                "pitch": 41,
                "velocity": 101,
                "duration": 0.18181818181818343,
                "tempo": 120.0
            },
            {
                "start_time": 9.304545454545455,
                "end_time": 9.418181818181818,
                "pitch": 29,
                "velocity": 4,
                "duration": 0.11363636363636331,
                "tempo": 120.0
            },
            {
                "start_time": 9.418181818181818,
                "end_time": 9.5,
                "pitch": 29,
                "velocity": 101,
                "duration": 0.08181818181818201,
                "tempo": 120.0
            },
            {
                "start_time": 9.536363636363635,
                "end_time": 9.654545454545454,
                "pitch": 29,
                "velocity": 4,
                "duration": 0.11818181818181905,
                "tempo": 120.0
            },
            {
                "start_time": 9.656818181818181,
                "end_time": 9.729545454545454,
                "pitch": 29,
                "velocity": 101,
                "duration": 0.07272727272727231,
                "tempo": 120.0
            },
            {
                "start_time": 9.763636363636364,
                "end_time": 9.943181818181818,
                "pitch": 36,
                "velocity": 101,
                "duration": 0.17954545454545467,
                "tempo": 120.0
            },
            {
                "start_time": 9.995454545454544,
                "end_time": 10.179545454545455,
                "pitch": 41,
                "velocity": 101,
                "duration": 0.18409090909091042,
                "tempo": 120.0
            },
            {
                "start_time": 10.238636363636363,
                "end_time": 10.506818181818181,
                "pitch": 28,
                "velocity": 101,
                "duration": 0.26818181818181763,
                "tempo": 120.0
            },
            {
                "start_time": 10.595454545454546,
                "end_time": 10.85909090909091,
                "pitch": 35,
                "velocity": 101,
                "duration": 0.26363636363636367,
                "tempo": 120.0
            },
            {
                "start_time": 10.945454545454545,
                "end_time": 11.122727272727273,
                "pitch": 40,
                "velocity": 101,
                "duration": 0.1772727272727277,
                "tempo": 120.0
            },
            {
                "start_time": 11.177272727272726,
                "end_time": 11.288636363636362,
                "pitch": 28,
                "velocity": 4,
                "duration": 0.11136363636363633,
                "tempo": 120.0
            },
            {
                "start_time": 11.288636363636362,
                "end_time": 11.368181818181817,
                "pitch": 28,
                "velocity": 101,
                "duration": 0.07954545454545503,
                "tempo": 120.0
            },
            {
                "start_time": 11.406818181818181,
                "end_time": 11.524999999999999,
                "pitch": 28,
                "velocity": 4,
                "duration": 0.11818181818181728,
                "tempo": 120.0
            },
            {
                "start_time": 11.527272727272727,
                "end_time": 11.602272727272727,
                "pitch": 28,
                "velocity": 101,
                "duration": 0.07499999999999929,
                "tempo": 120.0
            },
            {
                "start_time": 11.638636363636364,
                "end_time": 11.763636363636364,
                "pitch": 28,
                "velocity": 4,
                "duration": 0.125,
                "tempo": 120.0
            },
            {
                "start_time": 11.763636363636364,
                "end_time": 11.836363636363636,
                "pitch": 40,
                "velocity": 101,
                "duration": 0.07272727272727231,
                "tempo": 120.0
            },
            {
                "start_time": 11.877272727272727,
                "end_time": 12.054545454545455,
                "pitch": 39,
                "velocity": 101,
                "duration": 0.1772727272727277,
                "tempo": 120.0
            },
            {
                "start_time": 12.10909090909091,
                "end_time": 12.372727272727271,
                "pitch": 26,
                "velocity": 101,
                "duration": 0.2636363636363619,
                "tempo": 120.0
            },
            {
                "start_time": 12.463636363636363,
                "end_time": 12.718181818181817,
                "pitch": 33,
                "velocity": 101,
                "duration": 0.25454545454545396,
                "tempo": 120.0
            },
            {
                "start_time": 12.804545454545455,
                "end_time": 12.984090909090908,
                "pitch": 38,
                "velocity": 101,
                "duration": 0.1795454545454529,
                "tempo": 120.0
            },
            {
                "start_time": 13.043181818181818,
                "end_time": 13.152272727272727,
                "pitch": 26,
                "velocity": 4,
                "duration": 0.10909090909090935,
                "tempo": 120.0
            },
            {
                "start_time": 13.154545454545454,
                "end_time": 13.234090909090908,
                "pitch": 26,
                "velocity": 101,
                "duration": 0.07954545454545325,
                "tempo": 120.0
            },
            {
                "start_time": 13.270454545454545,
                "end_time": 13.39090909090909,
                "pitch": 26,
                "velocity": 4,
                "duration": 0.12045454545454604,
                "tempo": 120.0
            },
            {
                "start_time": 13.39090909090909,
                "end_time": 13.46590909090909,
                "pitch": 26,
                "velocity": 101,
                "duration": 0.07499999999999929,
                "tempo": 120.0
            },
            {
                "start_time": 13.5,
                "end_time": 13.677272727272726,
                "pitch": 33,
                "velocity": 101,
                "duration": 0.17727272727272592,
                "tempo": 120.0
            },
            {
                "start_time": 13.736363636363636,
                "end_time": 13.915909090909091,
                "pitch": 38,
                "velocity": 101,
                "duration": 0.17954545454545467,
                "tempo": 120.0
            },
            {
                "start_time": 13.975,
                "end_time": 14.24090909090909,
                "pitch": 31,
                "velocity": 101,
                "duration": 0.26590909090909065,
                "tempo": 120.0
            },
            {
                "start_time": 14.33181818181818,
                "end_time": 14.593181818181817,
                "pitch": 38,
                "velocity": 101,
                "duration": 0.2613636363636367,
                "tempo": 120.0
            },
            {
                "start_time": 14.681818181818182,
                "end_time": 14.859090909090908,
                "pitch": 43,
                "velocity": 101,
                "duration": 0.17727272727272592,
                "tempo": 120.0
            },
            {
                "start_time": 14.913636363636362,
                "end_time": 15.170454545454545,
                "pitch": 43,
                "velocity": 4,
                "duration": 0.2568181818181827,
                "tempo": 120.0
            },
            {
                "start_time": 15.172727272727272,
                "end_time": 15.236363636363636,
                "pitch": 43,
                "velocity": 101,
                "duration": 0.06363636363636438,
                "tempo": 120.0
            },
            {
                "start_time": 15.238636363636363,
                "end_time": 15.302272727272726,
                "pitch": 42,
                "velocity": 101,
                "duration": 0.0636363636363626,
                "tempo": 120.0
            },
            {
                "start_time": 15.302272727272726,
                "end_time": 15.370454545454544,
                "pitch": 41,
                "velocity": 101,
                "duration": 0.06818181818181834,
                "tempo": 120.0
            },
            {
                "start_time": 15.372727272727271,
                "end_time": 15.434090909090909,
                "pitch": 40,
                "velocity": 101,
                "duration": 0.0613636363636374,
                "tempo": 120.0
            },
            {
                "start_time": 15.434090909090909,
                "end_time": 15.49090909090909,
                "pitch": 39,
                "velocity": 101,
                "duration": 0.05681818181818166,
                "tempo": 120.0
            },
            {
                "start_time": 15.49090909090909,
                "end_time": 15.531818181818181,
                "pitch": 38,
                "velocity": 101,
                "duration": 0.040909090909091006,
                "tempo": 120.0
            },
            {
                "start_time": 15.531818181818181,
                "end_time": 15.58181818181818,
                "pitch": 37,
                "velocity": 101,
                "duration": 0.049999999999998934,
                "tempo": 120.0
            },
            {
                "start_time": 15.58181818181818,
                "end_time": 15.631818181818181,
                "pitch": 36,
                "velocity": 101,
                "duration": 0.05000000000000071,
                "tempo": 120.0
            },
            {
                "start_time": 15.631818181818181,
                "end_time": 15.681818181818182,
                "pitch": 35,
                "velocity": 101,
                "duration": 0.05000000000000071,
                "tempo": 120.0
            },
            {
                "start_time": 15.684090909090909,
                "end_time": 15.734090909090908,
                "pitch": 34,
                "velocity": 101,
                "duration": 0.049999999999998934,
                "tempo": 120.0
            },
            {
                "start_time": 15.734090909090908,
                "end_time": 15.786363636363635,
                "pitch": 33,
                "velocity": 101,
                "duration": 0.05227272727272769,
                "tempo": 120.0
            },
            {
                "start_time": 15.786363636363635,
                "end_time": 15.847727272727273,
                "pitch": 32,
                "velocity": 101,
                "duration": 0.0613636363636374,
                "tempo": 120.0
            },
            {
                "start_time": 15.85,
                "end_time": 16.10909090909091,
                "pitch": 29,
                "velocity": 101,
                "duration": 0.2590909090909097,
                "tempo": 120.0
            },
            {
                "start_time": 16.193181818181817,
                "end_time": 16.452272727272728,
                "pitch": 36,
                "velocity": 101,
                "duration": 0.2590909090909115,
                "tempo": 120.0
            },
            {
                "start_time": 15.847727272727273,
                "end_time": 16.720454545454544,
                "pitch": 41,
                "velocity": 101,
                "duration": 0.8727272727272712,
                "tempo": 120.0
            },
            {
                "start_time": 16.538636363636364,
                "end_time": 16.720454545454544,
                "pitch": 41,
                "velocity": 101,
                "duration": 0.18181818181817988,
                "tempo": 120.0
            },
            {
                "start_time": 16.777272727272727,
                "end_time": 16.89090909090909,
                "pitch": 29,
                "velocity": 4,
                "duration": 0.11363636363636331,
                "tempo": 120.0
            },
            {
                "start_time": 16.89090909090909,
                "end_time": 16.970454545454544,
                "pitch": 29,
                "velocity": 101,
                "duration": 0.07954545454545325,
                "tempo": 120.0
            },
            {
                "start_time": 17.009090909090908,
                "end_time": 17.125,
                "pitch": 29,
                "velocity": 4,
                "duration": 0.11590909090909207,
                "tempo": 120.0
            },
            {
                "start_time": 17.127272727272725,
                "end_time": 17.202272727272728,
                "pitch": 29,
                "velocity": 101,
                "duration": 0.07500000000000284,
                "tempo": 120.0
            },
            {
                "start_time": 17.245454545454546,
                "end_time": 17.413636363636364,
                "pitch": 36,
                "velocity": 101,
                "duration": 0.168181818181818,
                "tempo": 120.0
            },
            {
                "start_time": 17.46818181818182,
                "end_time": 17.647727272727273,
                "pitch": 41,
                "velocity": 101,
                "duration": 0.17954545454545467,
                "tempo": 120.0
            },
            {
                "start_time": 17.702272727272728,
                "end_time": 17.96590909090909,
                "pitch": 28,
                "velocity": 101,
                "duration": 0.2636363636363619,
                "tempo": 120.0
            },
            {
                "start_time": 18.052272727272726,
                "end_time": 18.318181818181817,
                "pitch": 35,
                "velocity": 101,
                "duration": 0.26590909090909065,
                "tempo": 120.0
            },
            {
                "start_time": 18.404545454545453,
                "end_time": 18.586363636363636,
                "pitch": 40,
                "velocity": 101,
                "duration": 0.18181818181818343,
                "tempo": 120.0
            },
            {
                "start_time": 18.643181818181816,
                "end_time": 18.759090909090908,
                "pitch": 28,
                "velocity": 4,
                "duration": 0.11590909090909207,
                "tempo": 120.0
            },
            {
                "start_time": 18.759090909090908,
                "end_time": 18.83863636363636,
                "pitch": 28,
                "velocity": 101,
                "duration": 0.07954545454545325,
                "tempo": 120.0
            },
            {
                "start_time": 18.875,
                "end_time": 18.99772727272727,
                "pitch": 28,
                "velocity": 4,
                "duration": 0.12272727272727124,
                "tempo": 120.0
            },
            {
                "start_time": 18.99772727272727,
                "end_time": 19.068181818181817,
                "pitch": 28,
                "velocity": 101,
                "duration": 0.07045454545454533,
                "tempo": 120.0
            },
            {
                "start_time": 19.10681818181818,
                "end_time": 19.222727272727273,
                "pitch": 28,
                "velocity": 4,
                "duration": 0.11590909090909207,
                "tempo": 120.0
            },
            {
                "start_time": 19.222727272727273,
                "end_time": 19.297727272727272,
                "pitch": 40,
                "velocity": 101,
                "duration": 0.07499999999999929,
                "tempo": 120.0
            },
            {
                "start_time": 19.34318181818182,
                "end_time": 19.520454545454545,
                "pitch": 39,
                "velocity": 101,
                "duration": 0.17727272727272592,
                "tempo": 120.0
            },
            {
                "start_time": 19.581818181818182,
                "end_time": 19.84318181818182,
                "pitch": 26,
                "velocity": 101,
                "duration": 0.2613636363636367,
                "tempo": 120.0
            },
            {
                "start_time": 19.927272727272726,
                "end_time": 20.179545454545455,
                "pitch": 33,
                "velocity": 101,
                "duration": 0.25227272727272876,
                "tempo": 120.0
            },
            {
                "start_time": 20.263636363636362,
                "end_time": 20.44772727272727,
                "pitch": 38,
                "velocity": 101,
                "duration": 0.18409090909090864,
                "tempo": 120.0
            },
            {
                "start_time": 20.511363636363637,
                "end_time": 20.62272727272727,
                "pitch": 26,
                "velocity": 4,
                "duration": 0.11136363636363455,
                "tempo": 120.0
            },
            {
                "start_time": 20.62272727272727,
                "end_time": 20.706818181818182,
                "pitch": 26,
                "velocity": 101,
                "duration": 0.08409090909091077,
                "tempo": 120.0
            },
            {
                "start_time": 20.743181818181817,
                "end_time": 20.85909090909091,
                "pitch": 26,
                "velocity": 4,
                "duration": 0.11590909090909207,
                "tempo": 120.0
            },
            {
                "start_time": 20.85909090909091,
                "end_time": 20.936363636363634,
                "pitch": 26,
                "velocity": 101,
                "duration": 0.0772727272727245,
                "tempo": 120.0
            },
            {
                "start_time": 20.972727272727273,
                "end_time": 21.15,
                "pitch": 33,
                "velocity": 101,
                "duration": 0.17727272727272592,
                "tempo": 120.0
            },
            {
                "start_time": 21.204545454545453,
                "end_time": 21.384090909090908,
                "pitch": 38,
                "velocity": 101,
                "duration": 0.17954545454545467,
                "tempo": 120.0
            },
            {
                "start_time": 21.445454545454545,
                "end_time": 21.702272727272724,
                "pitch": 40,
                "velocity": 101,
                "duration": 0.25681818181817917,
                "tempo": 120.0
            },
            {
                "start_time": 21.797727272727272,
                "end_time": 22.143181818181816,
                "pitch": 39,
                "velocity": 101,
                "duration": 0.3454545454545439,
                "tempo": 120.0
            },
            {
                "start_time": 22.268181818181816,
                "end_time": 22.613636363636363,
                "pitch": 38,
                "velocity": 101,
                "duration": 0.34545454545454746,
                "tempo": 120.0
            },
            {
                "start_time": 22.73409090909091,
                "end_time": 22.804545454545455,
                "pitch": 43,
                "velocity": 101,
                "duration": 0.07045454545454533,
                "tempo": 120.0
            },
            {
                "start_time": 22.84318181818182,
                "end_time": 22.96363636363636,
                "pitch": 43,
                "velocity": 4,
                "duration": 0.12045454545454248,
                "tempo": 120.0
            },
            {
                "start_time": 22.96363636363636,
                "end_time": 23.034090909090907,
                "pitch": 43,
                "velocity": 101,
                "duration": 0.07045454545454533,
                "tempo": 120.0
            },
            {
                "start_time": 23.070454545454545,
                "end_time": 23.252272727272725,
                "pitch": 42,
                "velocity": 101,
                "duration": 0.18181818181817988,
                "tempo": 120.0
            },
            {
                "start_time": 23.30909090909091,
                "end_time": 23.568181818181817,
                "pitch": 29,
                "velocity": 101,
                "duration": 0.25909090909090793,
                "tempo": 120.0
            },
            {
                "start_time": 23.652272727272727,
                "end_time": 23.913636363636364,
                "pitch": 36,
                "velocity": 101,
                "duration": 0.2613636363636367,
                "tempo": 120.0
            },
            {
                "start_time": 23.99772727272727,
                "end_time": 24.18181818181818,
                "pitch": 41,
                "velocity": 101,
                "duration": 0.18409090909090864,
                "tempo": 120.0
            },
            {
                "start_time": 24.236363636363635,
                "end_time": 24.354545454545452,
                "pitch": 29,
                "velocity": 4,
                "duration": 0.11818181818181728,
                "tempo": 120.0
            },
            {
                "start_time": 24.354545454545452,
                "end_time": 24.438636363636363,
                "pitch": 29,
                "velocity": 101,
                "duration": 0.08409090909091077,
                "tempo": 120.0
            },
            {
                "start_time": 24.474999999999998,
                "end_time": 24.59090909090909,
                "pitch": 29,
                "velocity": 4,
                "duration": 0.11590909090909207,
                "tempo": 120.0
            },
            {
                "start_time": 24.59090909090909,
                "end_time": 24.668181818181818,
                "pitch": 29,
                "velocity": 101,
                "duration": 0.07727272727272805,
                "tempo": 120.0
            },
            {
                "start_time": 24.709090909090907,
                "end_time": 24.88181818181818,
                "pitch": 36,
                "velocity": 101,
                "duration": 0.17272727272727195,
                "tempo": 120.0
            },
            {
                "start_time": 24.936363636363634,
                "end_time": 25.11590909090909,
                "pitch": 41,
                "velocity": 101,
                "duration": 0.17954545454545467,
                "tempo": 120.0
            },
            {
                "start_time": 25.172727272727272,
                "end_time": 25.43409090909091,
                "pitch": 28,
                "velocity": 101,
                "duration": 0.2613636363636367,
                "tempo": 120.0
            },
            {
                "start_time": 25.520454545454545,
                "end_time": 25.786363636363635,
                "pitch": 35,
                "velocity": 101,
                "duration": 0.26590909090909065,
                "tempo": 120.0
            },
            {
                "start_time": 25.87272727272727,
                "end_time": 26.054545454545455,
                "pitch": 40,
                "velocity": 101,
                "duration": 0.18181818181818343,
                "tempo": 120.0
            },
            {
                "start_time": 26.113636363636363,
                "end_time": 26.224999999999998,
                "pitch": 28,
                "velocity": 4,
                "duration": 0.11136363636363455,
                "tempo": 120.0
            },
            {
                "start_time": 26.224999999999998,
                "end_time": 26.30681818181818,
                "pitch": 28,
                "velocity": 101,
                "duration": 0.08181818181818201,
                "tempo": 120.0
            },
            {
                "start_time": 26.343181818181815,
                "end_time": 26.46363636363636,
                "pitch": 28,
                "velocity": 4,
                "duration": 0.12045454545454604,
                "tempo": 120.0
            },
            {
                "start_time": 26.46363636363636,
                "end_time": 26.536363636363635,
                "pitch": 28,
                "velocity": 101,
                "duration": 0.07272727272727408,
                "tempo": 120.0
            },
            {
                "start_time": 26.570454545454545,
                "end_time": 26.688636363636363,
                "pitch": 28,
                "velocity": 4,
                "duration": 0.11818181818181728,
                "tempo": 120.0
            },
            {
                "start_time": 26.688636363636363,
                "end_time": 26.76590909090909,
                "pitch": 40,
                "velocity": 101,
                "duration": 0.07727272727272805,
                "tempo": 120.0
            },
            {
                "start_time": 26.80909090909091,
                "end_time": 26.986363636363635,
                "pitch": 39,
                "velocity": 101,
                "duration": 0.17727272727272592,
                "tempo": 120.0
            },
            {
                "start_time": 27.049999999999997,
                "end_time": 27.311363636363634,
                "pitch": 26,
                "velocity": 101,
                "duration": 0.2613636363636367,
                "tempo": 120.0
            },
            {
                "start_time": 27.40681818181818,
                "end_time": 27.65681818181818,
                "pitch": 33,
                "velocity": 101,
                "duration": 0.25,
                "tempo": 120.0
            },
            {
                "start_time": 27.745454545454542,
                "end_time": 27.922727272727272,
                "pitch": 38,
                "velocity": 101,
                "duration": 0.17727272727272947,
                "tempo": 120.0
            },
            {
                "start_time": 27.979545454545452,
                "end_time": 28.095454545454544,
                "pitch": 26,
                "velocity": 4,
                "duration": 0.11590909090909207,
                "tempo": 120.0
            },
            {
                "start_time": 28.097727272727273,
                "end_time": 28.174999999999997,
                "pitch": 26,
                "velocity": 101,
                "duration": 0.0772727272727245,
                "tempo": 120.0
            },
            {
                "start_time": 28.211363636363636,
                "end_time": 28.334090909090907,
                "pitch": 26,
                "velocity": 4,
                "duration": 0.12272727272727124,
                "tempo": 120.0
            },
            {
                "start_time": 28.334090909090907,
                "end_time": 28.404545454545453,
                "pitch": 26,
                "velocity": 101,
                "duration": 0.07045454545454533,
                "tempo": 120.0
            },
            {
                "start_time": 28.443181818181817,
                "end_time": 28.618181818181817,
                "pitch": 33,
                "velocity": 101,
                "duration": 0.1750000000000007,
                "tempo": 120.0
            },
            {
                "start_time": 28.672727272727272,
                "end_time": 28.849999999999998,
                "pitch": 38,
                "velocity": 101,
                "duration": 0.17727272727272592,
                "tempo": 120.0
            },
            {
                "start_time": 5.695454545454545,
                "end_time": 29.143181818181816,
                "pitch": 19,
                "velocity": 4,
                "duration": 23.44772727272727,
                "tempo": 120.0
            },
            {
                "start_time": 28.90681818181818,
                "end_time": 29.143181818181816,
                "pitch": 26,
                "velocity": 4,
                "duration": 0.23636363636363455,
                "tempo": 120.0
            },
            {
                "start_time": 29.145454545454545,
                "end_time": 29.218181818181815,
                "pitch": 31,
                "velocity": 101,
                "duration": 0.07272727272727053,
                "tempo": 120.0
            },
            {
                "start_time": 29.252272727272725,
                "end_time": 29.486363636363635,
                "pitch": 31,
                "velocity": 4,
                "duration": 0.23409090909090935,
                "tempo": 120.0
            },
            {
                "start_time": 29.486363636363635,
                "end_time": 29.745454545454542,
                "pitch": 31,
                "velocity": 101,
                "duration": 0.25909090909090793,
                "tempo": 120.0
            },
            {
                "start_time": 29.831818181818182,
                "end_time": 29.952272727272724,
                "pitch": 31,
                "velocity": 4,
                "duration": 0.12045454545454248,
                "tempo": 120.0
            },
            {
                "start_time": 29.954545454545453,
                "end_time": 30.03181818181818,
                "pitch": 31,
                "velocity": 101,
                "duration": 0.07727272727272805,
                "tempo": 120.0
            },
            {
                "start_time": 30.068181818181817,
                "end_time": 30.188636363636363,
                "pitch": 31,
                "velocity": 4,
                "duration": 0.12045454545454604,
                "tempo": 120.0
            },
            {
                "start_time": 30.188636363636363,
                "end_time": 30.26590909090909,
                "pitch": 31,
                "velocity": 101,
                "duration": 0.07727272727272805,
                "tempo": 120.0
            },
            {
                "start_time": 30.302272727272726,
                "end_time": 30.368181818181817,
                "pitch": 30,
                "velocity": 101,
                "duration": 0.06590909090909136,
                "tempo": 120.0
            },
            {
                "start_time": 30.368181818181817,
                "end_time": 30.436363636363634,
                "pitch": 29,
                "velocity": 101,
                "duration": 0.06818181818181657,
                "tempo": 120.0
            },
            {
                "start_time": 30.436363636363634,
                "end_time": 30.502272727272725,
                "pitch": 28,
                "velocity": 101,
                "duration": 0.06590909090909136,
                "tempo": 120.0
            },
            {
                "start_time": 30.502272727272725,
                "end_time": 30.568181818181817,
                "pitch": 27,
                "velocity": 101,
                "duration": 0.06590909090909136,
                "tempo": 120.0
            },
            {
                "start_time": 30.568181818181817,
                "end_time": 30.618181818181817,
                "pitch": 27,
                "velocity": 101,
                "duration": 0.05000000000000071,
                "tempo": 120.0
            },
            {
                "start_time": 30.618181818181817,
                "end_time": 30.668181818181818,
                "pitch": 26,
                "velocity": 101,
                "duration": 0.05000000000000071,
                "tempo": 120.0
            },
            {
                "start_time": 30.668181818181818,
                "end_time": 30.71590909090909,
                "pitch": 25,
                "velocity": 101,
                "duration": 0.04772727272727195,
                "tempo": 120.0
            },
            {
                "start_time": 30.71590909090909,
                "end_time": 30.768181818181816,
                "pitch": 24,
                "velocity": 101,
                "duration": 0.052272727272725916,
                "tempo": 120.0
            },
            {
                "start_time": 30.768181818181816,
                "end_time": 31.027272727272727,
                "pitch": 29,
                "velocity": 101,
                "duration": 0.2590909090909115,
                "tempo": 120.0
            },
            {
                "start_time": 30.770454545454545,
                "end_time": 31.027272727272727,
                "pitch": 29,
                "velocity": 101,
                "duration": 0.2568181818181827,
                "tempo": 120.0
            },
            {
                "start_time": 31.118181818181817,
                "end_time": 31.386363636363633,
                "pitch": 36,
                "velocity": 101,
                "duration": 0.26818181818181586,
                "tempo": 120.0
            },
            {
                "start_time": 31.477272727272727,
                "end_time": 31.654545454545453,
                "pitch": 41,
                "velocity": 101,
                "duration": 0.17727272727272592,
                "tempo": 120.0
            },
            {
                "start_time": 31.709090909090907,
                "end_time": 31.820454545454545,
                "pitch": 29,
                "velocity": 4,
                "duration": 0.11136363636363811,
                "tempo": 120.0
            },
            {
                "start_time": 31.820454545454545,
                "end_time": 31.9,
                "pitch": 29,
                "velocity": 101,
                "duration": 0.07954545454545325,
                "tempo": 120.0
            },
            {
                "start_time": 31.93409090909091,
                "end_time": 32.054545454545455,
                "pitch": 29,
                "velocity": 4,
                "duration": 0.12045454545454604,
                "tempo": 120.0
            },
            {
                "start_time": 32.05681818181818,
                "end_time": 32.12954545454545,
                "pitch": 29,
                "velocity": 101,
                "duration": 0.07272727272727053,
                "tempo": 120.0
            },
            {
                "start_time": 32.163636363636364,
                "end_time": 32.340909090909086,
                "pitch": 36,
                "velocity": 101,
                "duration": 0.17727272727272236,
                "tempo": 120.0
            },
            {
                "start_time": 32.39545454545454,
                "end_time": 32.57954545454545,
                "pitch": 41,
                "velocity": 101,
                "duration": 0.1840909090909122,
                "tempo": 120.0
            },
            {
                "start_time": 32.638636363636365,
                "end_time": 32.90681818181818,
                "pitch": 28,
                "velocity": 101,
                "duration": 0.26818181818181586,
                "tempo": 120.0
            },
            {
                "start_time": 32.99772727272727,
                "end_time": 33.25909090909091,
                "pitch": 35,
                "velocity": 101,
                "duration": 0.26136363636364024,
                "tempo": 120.0
            },
            {
                "start_time": 33.34772727272727,
                "end_time": 33.52272727272727,
                "pitch": 40,
                "velocity": 101,
                "duration": 0.17500000000000426,
                "tempo": 120.0
            },
            {
                "start_time": 33.57727272727273,
                "end_time": 33.68863636363636,
                "pitch": 28,
                "velocity": 4,
                "duration": 0.11136363636363455,
                "tempo": 120.0
            },
            {
                "start_time": 33.68863636363636,
                "end_time": 33.768181818181816,
                "pitch": 28,
                "velocity": 101,
                "duration": 0.07954545454545325,
                "tempo": 120.0
            },
            {
                "start_time": 33.8,
                "end_time": 33.92045454545455,
                "pitch": 28,
                "velocity": 4,
                "duration": 0.12045454545454959,
                "tempo": 120.0
            },
            {
                "start_time": 33.92045454545455,
                "end_time": 33.99772727272727,
                "pitch": 28,
                "velocity": 101,
                "duration": 0.07727272727272094,
                "tempo": 120.0
            },
            {
                "start_time": 34.03409090909091,
                "end_time": 34.15,
                "pitch": 28,
                "velocity": 4,
                "duration": 0.11590909090909207,
                "tempo": 120.0
            },
            {
                "start_time": 34.15,
                "end_time": 34.22727272727273,
                "pitch": 40,
                "velocity": 101,
                "duration": 0.07727272727272805,
                "tempo": 120.0
            },
            {
                "start_time": 34.27045454545454,
                "end_time": 34.44772727272727,
                "pitch": 39,
                "velocity": 101,
                "duration": 0.17727272727272947,
                "tempo": 120.0
            },
            {
                "start_time": 34.50454545454545,
                "end_time": 34.768181818181816,
                "pitch": 26,
                "velocity": 101,
                "duration": 0.26363636363636545,
                "tempo": 120.0
            },
            {
                "start_time": 34.85681818181818,
                "end_time": 35.11363636363636,
                "pitch": 33,
                "velocity": 101,
                "duration": 0.2568181818181827,
                "tempo": 120.0
            },
            {
                "start_time": 35.199999999999996,
                "end_time": 35.38181818181818,
                "pitch": 38,
                "velocity": 101,
                "duration": 0.18181818181818699,
                "tempo": 120.0
            },
            {
                "start_time": 29.143181818181816,
                "end_time": 35.55681818181818,
                "pitch": 19,
                "velocity": 4,
                "duration": 6.413636363636364,
                "tempo": 120.0
            },
            {
                "start_time": 35.44090909090909,
                "end_time": 35.55681818181818,
                "pitch": 26,
                "velocity": 4,
                "duration": 0.11590909090909207,
                "tempo": 120.0
            },
            {
                "start_time": 35.55681818181818,
                "end_time": 35.638636363636365,
                "pitch": 31,
                "velocity": 101,
                "duration": 0.08181818181818556,
                "tempo": 120.0
            },
            {
                "start_time": 35.675,
                "end_time": 35.793181818181814,
                "pitch": 31,
                "velocity": 4,
                "duration": 0.11818181818181728,
                "tempo": 120.0
            },
            {
                "start_time": 35.79545454545455,
                "end_time": 35.86363636363636,
                "pitch": 31,
                "velocity": 101,
                "duration": 0.06818181818181301,
                "tempo": 120.0
            },
            {
                "start_time": 35.89772727272727,
                "end_time": 36.07272727272727,
                "pitch": 38,
                "velocity": 101,
                "duration": 0.17499999999999716,
                "tempo": 120.0
            },
            {
                "start_time": 36.12954545454545,
                "end_time": 36.30681818181818,
                "pitch": 43,
                "velocity": 101,
                "duration": 0.17727272727272947,
                "tempo": 120.0
            },
            {
                "start_time": 36.36590909090909,
                "end_time": 36.62954545454545,
                "pitch": 24,
                "velocity": 101,
                "duration": 0.26363636363635834,
                "tempo": 120.0
            },
            {
                "start_time": 36.720454545454544,
                "end_time": 36.98181818181818,
                "pitch": 31,
                "velocity": 101,
                "duration": 0.26136363636363313,
                "tempo": 120.0
            }
        ]
    }
}