{
    "track_id": "06 Unknown",
    "mood": "happy",
    "instruments": {
        "Trumpet": [
            {
                "start_time": 1.5136363636363637,
                "end_time": 2.3613636363636363,
                "pitch": 65,
                "velocity": 101,
                "duration": 0.8477272727272727,
                "tempo": 120.0
            },
            {
                "start_time": 2.3613636363636363,
                "end_time": 2.7659090909090907,
                "pitch": 65,
                "velocity": 101,
                "duration": 0.4045454545454543,
                "tempo": 120.0
            },
            {
                "start_time": 2.7659090909090907,
                "end_time": 3.1977272727272728,
                "pitch": 65,
                "velocity": 101,
                "duration": 0.4318181818181821,
                "tempo": 120.0
            },
            {
                "start_time": 3.1977272727272728,
                "end_time": 3.4386363636363635,
                "pitch": 65,
                "velocity": 101,
                "duration": 0.24090909090909074,
                "tempo": 120.0
            },
            {
                "start_time": 3.4386363636363635,
                "end_time": 4.0636363636363635,
                "pitch": 65,
                "velocity": 101,
                "duration": 0.625,
                "tempo": 120.0
            },
            {
                "start_time": 4.0636363636363635,
                "end_time": 5.134090909090909,
                "pitch": 60,
                "velocity": 101,
                "duration": 1.0704545454545453,
                "tempo": 120.0
            },
            {
                "start_time": 5.134090909090909,
                "end_time": 5.765909090909091,
                "pitch": 69,
                "velocity": 101,
                "duration": 0.6318181818181818,
                "tempo": 120.0
            },
            {
                "start_time": 5.765909090909091,
                "end_time": 6.820454545454545,
                "pitch": 65,
                "velocity": 101,
                "duration": 1.0545454545454547,
                "tempo": 120.0
            },
            {
                "start_time": 6.820454545454545,
                "end_time": 8.084090909090909,
                "pitch": 63,
                "velocity": 101,
                "duration": 1.2636363636363637,
                "tempo": 120.0
            },
            {
                "start_time": 8.084090909090909,
                "end_time": 8.506818181818181,
                "pitch": 63,
                "velocity": 101,
                "duration": 0.42272727272727195,
                "tempo": 120.0
            },
            {
                "start_time": 8.506818181818181,
                "end_time": 9.368181818181817,
                "pitch": 63,
                "velocity": 101,
                "duration": 0.8613636363636363,
                "tempo": 120.0
            },
            {
                "start_time": 9.368181818181817,
                "end_time": 9.677272727272726,
                "pitch": 67,
                "velocity": 101,
                "duration": 0.30909090909090864,
                "tempo": 120.0
            },
            {
                "start_time": 9.677272727272726,
                "end_time": 10.020454545454545,
                "pitch": 65,
                "velocity": 101,
                "duration": 0.3431818181818187,
                "tempo": 120.0
            },
            {
                "start_time": 10.020454545454545,
                "end_time": 10.222727272727273,
                "pitch": 63,
                "velocity": 101,
                "duration": 0.20227272727272805,
                "tempo": 120.0
            },
            {
                "start_time": 10.222727272727273,
                "end_time": 11.709090909090909,
                "pitch": 60,
                "velocity": 101,
                "duration": 1.4863636363636363,
                "tempo": 120.0
            },
            {
                "start_time": 11.709090909090909,
                "end_time": 11.938636363636363,
                "pitch": 57,
                "velocity": 101,
                "duration": 0.2295454545454536,
                "tempo": 120.0
            },
            {
                "start_time": 11.938636363636363,
                "end_time": 13.627272727272727,
                "pitch": 57,
                "velocity": 101,
                "duration": 1.6886363636363644,
                "tempo": 120.0
            },
            {
                "start_time": 13.627272727272727,
                "end_time": 15.111363636363636,
                "pitch": 69,
                "velocity": 101,
                "duration": 1.4840909090909093,
                "tempo": 120.0
            },
            {
                "start_time": 15.111363636363636,
                "end_time": 16.195454545454545,
                "pitch": 65,
                "velocity": 101,
                "duration": 1.084090909090909,
                "tempo": 120.0
            },
            {
                "start_time": 16.195454545454545,
                "end_time": 16.49772727272727,
                "pitch": 65,
                "velocity": 101,
                "duration": 0.3022727272727259,
                "tempo": 120.0
            },
            {
                "start_time": 16.49772727272727,
                "end_time": 16.811363636363634,
                "pitch": 65,
                "velocity": 101,
                "duration": 0.3136363636363626,
                "tempo": 120.0
            },
            {
                "start_time": 16.811363636363634,
                "end_time": 16.99772727272727,
                "pitch": 65,
                "velocity": 101,
                "duration": 0.1863636363636374,
                "tempo": 120.0
            },
            {
                "start_time": 16.99772727272727,
                "end_time": 17.65,
                "pitch": 65,
                "velocity": 101,
                "duration": 0.6522727272727273,
                "tempo": 120.0
            },
            {
                "start_time": 17.65,
                "end_time": 18.71363636363636,
                "pitch": 60,
                "velocity": 101,
                "duration": 1.0636363636363626,
                "tempo": 120.0
            },
            {
                "start_time": 18.71363636363636,
                "end_time": 19.36590909090909,
                "pitch": 69,
                "velocity": 101,
                "duration": 0.6522727272727273,
                "tempo": 120.0
            },
            {
                "start_time": 19.36590909090909,
                "end_time": 20.438636363636363,
                "pitch": 65,
                "velocity": 101,
                "duration": 1.072727272727274,
                "tempo": 120.0
            },
            {
                "start_time": 20.438636363636363,
                "end_time": 21.68409090909091,
                "pitch": 63,
                "velocity": 101,
                "duration": 1.245454545454546,
                "tempo": 120.0
            },
            {
                "start_time": 21.68409090909091,
                "end_time": 22.136363636363637,
                "pitch": 65,
                "velocity": 101,
                "duration": 0.45227272727272805,
                "tempo": 120.0
            },
            {
                "start_time": 22.136363636363637,
                "end_time": 22.96818181818182,
                "pitch": 67,
                "velocity": 101,
                "duration": 0.831818181818182,
                "tempo": 120.0
            },
            {
                "start_time": 22.96818181818182,
                "end_time": 23.277272727272727,
                "pitch": 67,
                "velocity": 101,
                "duration": 0.30909090909090864,
                "tempo": 120.0
            },
            {
                "start_time": 23.277272727272727,
                "end_time": 23.618181818181817,
                "pitch": 65,
                "velocity": 101,
                "duration": 0.34090909090908994,
                "tempo": 120.0
            },
            {
                "start_time": 23.618181818181817,
                "end_time": 23.82272727272727,
                "pitch": 64,
                "velocity": 101,
                "duration": 0.20454545454545325,
                "tempo": 120.0
            },
            {
                "start_time": 23.82272727272727,
                "end_time": 27.224999999999998,
                "pitch": 60,
                "velocity": 101,
                "duration": 3.4022727272727273,
                "tempo": 120.0
            },
            {
                "start_time": 27.224999999999998,
                "end_time": 28.065909090909088,
                "pitch": 58,
                "velocity": 101,
                "duration": 0.8409090909090899,
                "tempo": 120.0
            },
            {
                "start_time": 28.065909090909088,
                "end_time": 28.509090909090908,
                "pitch": 58,
                "velocity": 101,
                "duration": 0.4431818181818201,
                "tempo": 120.0
            },
            {
                "start_time": 28.509090909090908,
                "end_time": 28.938636363636363,
                "pitch": 58,
                "velocity": 101,
                "duration": 0.4295454545454547,
                "tempo": 120.0
            },
            {
                "start_time": 28.938636363636363,
                "end_time": 29.75,
                "pitch": 57,
                "velocity": 101,
                "duration": 0.8113636363636374,
                "tempo": 120.0
            },
            {
                "start_time": 29.75,
                "end_time": 30.62272727272727,
                "pitch": 57,
                "velocity": 101,
                "duration": 0.8727272727272712,
                "tempo": 120.0
            },
            {
                "start_time": 30.62272727272727,
                "end_time": 30.895454545454545,
                "pitch": 67,
                "velocity": 101,
                "duration": 0.2727272727272734,
                "tempo": 120.0
            },
            {
                "start_time": 30.895454545454545,
                "end_time": 31.19772727272727,
                "pitch": 65,
                "velocity": 101,
                "duration": 0.3022727272727259,
                "tempo": 120.0
            },
            {
                "start_time": 31.19772727272727,
                "end_time": 31.474999999999998,
                "pitch": 64,
                "velocity": 101,
                "duration": 0.27727272727272734,
                "tempo": 120.0
            },
            {
                "start_time": 31.474999999999998,
                "end_time": 31.754545454545454,
                "pitch": 61,
                "velocity": 101,
                "duration": 0.2795454545454561,
                "tempo": 120.0
            },
            {
                "start_time": 31.754545454545454,
                "end_time": 32.04772727272727,
                "pitch": 62,
                "velocity": 101,
                "duration": 0.293181818181818,
                "tempo": 120.0
            },
            {
                "start_time": 32.04772727272727,
                "end_time": 32.30681818181818,
                "pitch": 64,
                "velocity": 101,
                "duration": 0.25909090909090793,
                "tempo": 120.0
            },
            {
                "start_time": 32.30681818181818,
                "end_time": 33.19090909090909,
                "pitch": 62,
                "velocity": 101,
                "duration": 0.8840909090909079,
                "tempo": 120.0
            },
            {
                "start_time": 33.19090909090909,
                "end_time": 33.59318181818182,
                "pitch": 60,
                "velocity": 101,
                "duration": 0.4022727272727309,
                "tempo": 120.0
            },
            {
                "start_time": 33.59318181818182,
                "end_time": 33.80681818181818,
                "pitch": 58,
                "velocity": 101,
                "duration": 0.21363636363636118,
                "tempo": 120.0
            },
            {
                "start_time": 33.80681818181818,
                "end_time": 33.99318181818182,
                "pitch": 60,
                "velocity": 101,
                "duration": 0.1863636363636374,
                "tempo": 120.0
            },
            {
                "start_time": 33.99318181818182,
                "end_time": 35.074999999999996,
                "pitch": 58,
                "velocity": 101,
                "duration": 1.0818181818181785,
                "tempo": 120.0
            },
            {
                "start_time": 35.074999999999996,
                "end_time": 35.50681818181818,
                "pitch": 58,
                "velocity": 101,
                "duration": 0.431818181818187,
                "tempo": 120.0
            },
            {
                "start_time": 35.50681818181818,
                "end_time": 35.70681818181818,
                "pitch": 58,
                "velocity": 101,
                "duration": 0.19999999999999574,
                "tempo": 120.0
            },
            {
                "start_time": 35.70681818181818,
                "end_time": 37.434090909090905,
                "pitch": 57,
                "velocity": 101,
                "duration": 1.7272727272727266,
                "tempo": 120.0
            },
            {
                "start_time": 37.434090909090905,
                "end_time": 38.67727272727272,
                "pitch": 61,
                "velocity": 101,
                "duration": 1.2431818181818173,
                "tempo": 120.0
            },
            {
                "start_time": 38.67727272727272,
                "end_time": 39.127272727272725,
                "pitch": 57,
                "velocity": 101,
                "duration": 0.45000000000000284,
                "tempo": 120.0
            },
            {
                "start_time": 39.127272727272725,
                "end_time": 39.961363636363636,
                "pitch": 65,
                "velocity": 101,
                "duration": 0.8340909090909108,
                "tempo": 120.0
            },
            {
                "start_time": 39.961363636363636,
                "end_time": 40.80227272727272,
                "pitch": 64,
                "velocity": 101,
                "duration": 0.8409090909090864,
                "tempo": 120.0
            },
            {
                "start_time": 40.80227272727272,
                "end_time": 41.24318181818182,
                "pitch": 69,
                "velocity": 101,
                "duration": 0.4409090909090949,
                "tempo": 120.0
            }
        ],
        "Synth Bass 1": [
            {
                "start_time": 0.44999999999999996,
                "end_time": 0.7818181818181817,
                "pitch": 48,
                "velocity": 127,
                "duration": 0.3318181818181818,
                "tempo": 120.0
            },
            {
                "start_time": 0.7818181818181817,
                "end_time": 1.0818181818181818,
                "pitch": 51,
                "velocity": 127,
                "duration": 0.30000000000000004,
                "tempo": 120.0
            },
            {
                "start_time": 1.0818181818181818,
                "end_time": 1.3136363636363635,
                "pitch": 52,
                "velocity": 127,
                "duration": 0.2318181818181817,
                "tempo": 120.0
            },
            {
                "start_time": 1.3136363636363635,
                "end_time": 1.7159090909090908,
                "pitch": 53,
                "velocity": 127,
                "duration": 0.40227272727272734,
                "tempo": 120.0
            },
            {
                "start_time": 1.7159090909090908,
                "end_time": 2.125,
                "pitch": 53,
                "velocity": 127,
                "duration": 0.40909090909090917,
                "tempo": 120.0
            },
            {
                "start_time": 2.125,
                "end_time": 2.4636363636363634,
                "pitch": 48,
                "velocity": 127,
                "duration": 0.3386363636363634,
                "tempo": 120.0
            },
            {
                "start_time": 2.4636363636363634,
                "end_time": 2.7659090909090907,
                "pitch": 51,
                "velocity": 127,
                "duration": 0.30227272727272725,
                "tempo": 120.0
            },
            {
                "start_time": 2.7659090909090907,
                "end_time": 2.9977272727272726,
                "pitch": 52,
                "velocity": 127,
                "duration": 0.23181818181818192,
                "tempo": 120.0
            },
            {
                "start_time": 2.9977272727272726,
                "end_time": 3.4386363636363635,
                "pitch": 53,
                "velocity": 127,
                "duration": 0.4409090909090909,
                "tempo": 120.0
            },
            {
                "start_time": 3.4386363636363635,
                "end_time": 3.8499999999999996,
                "pitch": 53,
                "velocity": 127,
                "duration": 0.41136363636363615,
                "tempo": 120.0
            },
            {
                "start_time": 3.8499999999999996,
                "end_time": 4.156818181818181,
                "pitch": 48,
                "velocity": 127,
                "duration": 0.30681818181818166,
                "tempo": 120.0
            },
            {
                "start_time": 4.156818181818181,
                "end_time": 4.4818181818181815,
                "pitch": 51,
                "velocity": 127,
                "duration": 0.3250000000000002,
                "tempo": 120.0
            },
            {
                "start_time": 4.4818181818181815,
                "end_time": 4.681818181818182,
                "pitch": 52,
                "velocity": 127,
                "duration": 0.20000000000000018,
                "tempo": 120.0
            },
            {
                "start_time": 4.681818181818182,
                "end_time": 5.134090909090909,
                "pitch": 53,
                "velocity": 127,
                "duration": 0.45227272727272716,
                "tempo": 120.0
            },
            {
                "start_time": 5.134090909090909,
                "end_time": 5.5636363636363635,
                "pitch": 53,
                "velocity": 127,
                "duration": 0.4295454545454547,
                "tempo": 120.0
            },
            {
                "start_time": 5.5636363636363635,
                "end_time": 5.86590909090909,
                "pitch": 48,
                "velocity": 127,
                "duration": 0.3022727272727268,
                "tempo": 120.0
            },
            {
                "start_time": 5.86590909090909,
                "end_time": 6.181818181818182,
                "pitch": 51,
                "velocity": 127,
                "duration": 0.31590909090909136,
                "tempo": 120.0
            },
            {
                "start_time": 6.181818181818182,
                "end_time": 6.368181818181818,
                "pitch": 52,
                "velocity": 127,
                "duration": 0.1863636363636365,
                "tempo": 120.0
            },
            {
                "start_time": 6.368181818181818,
                "end_time": 6.820454545454545,
                "pitch": 53,
                "velocity": 127,
                "duration": 0.45227272727272716,
                "tempo": 120.0
            },
            {
                "start_time": 6.820454545454545,
                "end_time": 7.252272727272727,
                "pitch": 51,
                "velocity": 127,
                "duration": 0.43181818181818166,
                "tempo": 120.0
            },
            {
                "start_time": 7.252272727272727,
                "end_time": 7.552272727272727,
                "pitch": 46,
                "velocity": 127,
                "duration": 0.2999999999999998,
                "tempo": 120.0
            },
            {
                "start_time": 7.552272727272727,
                "end_time": 7.884090909090909,
                "pitch": 49,
                "velocity": 127,
                "duration": 0.331818181818182,
                "tempo": 120.0
            },
            {
                "start_time": 7.884090909090909,
                "end_time": 8.095454545454546,
                "pitch": 50,
                "velocity": 127,
                "duration": 0.21136363636363686,
                "tempo": 120.0
            },
            {
                "start_time": 8.095454545454546,
                "end_time": 8.506818181818181,
                "pitch": 51,
                "velocity": 127,
                "duration": 0.41136363636363527,
                "tempo": 120.0
            },
            {
                "start_time": 8.506818181818181,
                "end_time": 8.938636363636363,
                "pitch": 51,
                "velocity": 127,
                "duration": 0.43181818181818166,
                "tempo": 120.0
            },
            {
                "start_time": 8.938636363636363,
                "end_time": 9.268181818181818,
                "pitch": 46,
                "velocity": 127,
                "duration": 0.32954545454545503,
                "tempo": 120.0
            },
            {
                "start_time": 9.268181818181818,
                "end_time": 9.575,
                "pitch": 49,
                "velocity": 127,
                "duration": 0.30681818181818166,
                "tempo": 120.0
            },
            {
                "start_time": 9.575,
                "end_time": 9.820454545454545,
                "pitch": 50,
                "velocity": 127,
                "duration": 0.24545454545454604,
                "tempo": 120.0
            },
            {
                "start_time": 9.820454545454545,
                "end_time": 10.222727272727273,
                "pitch": 51,
                "velocity": 127,
                "duration": 0.40227272727272734,
                "tempo": 120.0
            },
            {
                "start_time": 10.222727272727273,
                "end_time": 10.625,
                "pitch": 53,
                "velocity": 127,
                "duration": 0.40227272727272734,
                "tempo": 120.0
            },
            {
                "start_time": 10.625,
                "end_time": 10.96590909090909,
                "pitch": 48,
                "velocity": 127,
                "duration": 0.34090909090908994,
                "tempo": 120.0
            },
            {
                "start_time": 10.96590909090909,
                "end_time": 11.272727272727272,
                "pitch": 51,
                "velocity": 127,
                "duration": 0.30681818181818166,
                "tempo": 120.0
            },
            {
                "start_time": 11.272727272727272,
                "end_time": 11.506818181818181,
                "pitch": 52,
                "velocity": 127,
                "duration": 0.23409090909090935,
                "tempo": 120.0
            },
            {
                "start_time": 11.506818181818181,
                "end_time": 11.938636363636363,
                "pitch": 53,
                "velocity": 127,
                "duration": 0.43181818181818166,
                "tempo": 120.0
            },
            {
                "start_time": 11.938636363636363,
                "end_time": 12.34090909090909,
                "pitch": 53,
                "velocity": 127,
                "duration": 0.40227272727272734,
                "tempo": 120.0
            },
            {
                "start_time": 12.34090909090909,
                "end_time": 12.659090909090908,
                "pitch": 48,
                "velocity": 127,
                "duration": 0.31818181818181834,
                "tempo": 120.0
            },
            {
                "start_time": 12.659090909090908,
                "end_time": 12.988636363636363,
                "pitch": 51,
                "velocity": 127,
                "duration": 0.32954545454545503,
                "tempo": 120.0
            },
            {
                "start_time": 12.988636363636363,
                "end_time": 13.195454545454545,
                "pitch": 52,
                "velocity": 127,
                "duration": 0.206818181818182,
                "tempo": 120.0
            },
            {
                "start_time": 13.195454545454545,
                "end_time": 13.627272727272727,
                "pitch": 53,
                "velocity": 127,
                "duration": 0.43181818181818166,
                "tempo": 120.0
            },
            {
                "start_time": 13.627272727272727,
                "end_time": 14.068181818181818,
                "pitch": 53,
                "velocity": 127,
                "duration": 0.44090909090909136,
                "tempo": 120.0
            },
            {
                "start_time": 14.068181818181818,
                "end_time": 14.375,
                "pitch": 48,
                "velocity": 127,
                "duration": 0.30681818181818166,
                "tempo": 120.0
            },
            {
                "start_time": 14.375,
                "end_time": 14.693181818181818,
                "pitch": 51,
                "velocity": 127,
                "duration": 0.31818181818181834,
                "tempo": 120.0
            },
            {
                "start_time": 14.693181818181818,
                "end_time": 14.881818181818181,
                "pitch": 52,
                "velocity": 127,
                "duration": 0.1886363636363626,
                "tempo": 120.0
            },
            {
                "start_time": 14.881818181818181,
                "end_time": 15.313636363636363,
                "pitch": 53,
                "velocity": 127,
                "duration": 0.43181818181818166,
                "tempo": 120.0
            },
            {
                "start_time": 15.313636363636363,
                "end_time": 15.754545454545454,
                "pitch": 53,
                "velocity": 127,
                "duration": 0.44090909090909136,
                "tempo": 120.0
            },
            {
                "start_time": 15.754545454545454,
                "end_time": 16.063636363636363,
                "pitch": 48,
                "velocity": 127,
                "duration": 0.30909090909090864,
                "tempo": 120.0
            },
            {
                "start_time": 16.063636363636363,
                "end_time": 16.397727272727273,
                "pitch": 51,
                "velocity": 127,
                "duration": 0.33409090909091077,
                "tempo": 120.0
            },
            {
                "start_time": 16.397727272727273,
                "end_time": 16.597727272727273,
                "pitch": 52,
                "velocity": 127,
                "duration": 0.1999999999999993,
                "tempo": 120.0
            },
            {
                "start_time": 16.597727272727273,
                "end_time": 16.99772727272727,
                "pitch": 53,
                "velocity": 127,
                "duration": 0.3999999999999986,
                "tempo": 120.0
            },
            {
                "start_time": 16.99772727272727,
                "end_time": 17.44772727272727,
                "pitch": 53,
                "velocity": 127,
                "duration": 0.4499999999999993,
                "tempo": 120.0
            },
            {
                "start_time": 17.44772727272727,
                "end_time": 17.779545454545453,
                "pitch": 48,
                "velocity": 127,
                "duration": 0.331818181818182,
                "tempo": 120.0
            },
            {
                "start_time": 17.779545454545453,
                "end_time": 18.081818181818182,
                "pitch": 51,
                "velocity": 127,
                "duration": 0.30227272727272947,
                "tempo": 120.0
            },
            {
                "start_time": 18.081818181818182,
                "end_time": 18.311363636363634,
                "pitch": 52,
                "velocity": 127,
                "duration": 0.22954545454545183,
                "tempo": 120.0
            },
            {
                "start_time": 18.311363636363634,
                "end_time": 18.71363636363636,
                "pitch": 53,
                "velocity": 127,
                "duration": 0.40227272727272734,
                "tempo": 120.0
            },
            {
                "start_time": 18.71363636363636,
                "end_time": 19.134090909090908,
                "pitch": 53,
                "velocity": 127,
                "duration": 0.42045454545454675,
                "tempo": 120.0
            },
            {
                "start_time": 19.134090909090908,
                "end_time": 19.46590909090909,
                "pitch": 48,
                "velocity": 127,
                "duration": 0.331818181818182,
                "tempo": 120.0
            },
            {
                "start_time": 19.46590909090909,
                "end_time": 19.76590909090909,
                "pitch": 51,
                "velocity": 127,
                "duration": 0.3000000000000007,
                "tempo": 120.0
            },
            {
                "start_time": 19.76590909090909,
                "end_time": 19.99772727272727,
                "pitch": 52,
                "velocity": 127,
                "duration": 0.2318181818181806,
                "tempo": 120.0
            },
            {
                "start_time": 19.99772727272727,
                "end_time": 20.438636363636363,
                "pitch": 53,
                "velocity": 127,
                "duration": 0.44090909090909136,
                "tempo": 120.0
            },
            {
                "start_time": 20.438636363636363,
                "end_time": 20.849999999999998,
                "pitch": 51,
                "velocity": 127,
                "duration": 0.41136363636363527,
                "tempo": 120.0
            },
            {
                "start_time": 20.849999999999998,
                "end_time": 21.159090909090907,
                "pitch": 46,
                "velocity": 127,
                "duration": 0.30909090909090864,
                "tempo": 120.0
            },
            {
                "start_time": 21.159090909090907,
                "end_time": 21.48409090909091,
                "pitch": 49,
                "velocity": 127,
                "duration": 0.32500000000000284,
                "tempo": 120.0
            },
            {
                "start_time": 21.48409090909091,
                "end_time": 21.695454545454545,
                "pitch": 50,
                "velocity": 127,
                "duration": 0.21136363636363598,
                "tempo": 120.0
            },
            {
                "start_time": 21.695454545454545,
                "end_time": 22.136363636363637,
                "pitch": 51,
                "velocity": 127,
                "duration": 0.44090909090909136,
                "tempo": 120.0
            },
            {
                "start_time": 22.136363636363637,
                "end_time": 22.568181818181817,
                "pitch": 51,
                "velocity": 127,
                "duration": 0.4318181818181799,
                "tempo": 120.0
            },
            {
                "start_time": 22.568181818181817,
                "end_time": 22.868181818181817,
                "pitch": 46,
                "velocity": 127,
                "duration": 0.3000000000000007,
                "tempo": 120.0
            },
            {
                "start_time": 22.868181818181817,
                "end_time": 23.18409090909091,
                "pitch": 49,
                "velocity": 127,
                "duration": 0.31590909090909136,
                "tempo": 120.0
            },
            {
                "start_time": 23.18409090909091,
                "end_time": 23.37272727272727,
                "pitch": 50,
                "velocity": 127,
                "duration": 0.1886363636363626,
                "tempo": 120.0
            },
            {
                "start_time": 23.37272727272727,
                "end_time": 23.82272727272727,
                "pitch": 51,
                "velocity": 127,
                "duration": 0.4499999999999993,
                "tempo": 120.0
            },
            {
                "start_time": 23.82272727272727,
                "end_time": 24.254545454545454,
                "pitch": 53,
                "velocity": 127,
                "duration": 0.43181818181818343,
                "tempo": 120.0
            },
            {
                "start_time": 24.254545454545454,
                "end_time": 24.554545454545455,
                "pitch": 48,
                "velocity": 127,
                "duration": 0.3000000000000007,
                "tempo": 120.0
            },
            {
                "start_time": 24.554545454545455,
                "end_time": 24.886363636363637,
                "pitch": 51,
                "velocity": 127,
                "duration": 0.331818181818182,
                "tempo": 120.0
            },
            {
                "start_time": 24.886363636363637,
                "end_time": 25.08863636363636,
                "pitch": 52,
                "velocity": 127,
                "duration": 0.2022727272727245,
                "tempo": 120.0
            },
            {
                "start_time": 25.08863636363636,
                "end_time": 25.509090909090908,
                "pitch": 53,
                "velocity": 127,
                "duration": 0.42045454545454675,
                "tempo": 120.0
            },
            {
                "start_time": 25.509090909090908,
                "end_time": 25.94090909090909,
                "pitch": 53,
                "velocity": 127,
                "duration": 0.43181818181818343,
                "tempo": 120.0
            },
            {
                "start_time": 25.94090909090909,
                "end_time": 26.27272727272727,
                "pitch": 48,
                "velocity": 127,
                "duration": 0.33181818181817846,
                "tempo": 120.0
            },
            {
                "start_time": 26.27272727272727,
                "end_time": 26.577272727272724,
                "pitch": 53,
                "velocity": 127,
                "duration": 0.3045454545454547,
                "tempo": 120.0
            },
            {
                "start_time": 26.577272727272724,
                "end_time": 26.82272727272727,
                "pitch": 52,
                "velocity": 127,
                "duration": 0.24545454545454604,
                "tempo": 120.0
            },
            {
                "start_time": 26.82272727272727,
                "end_time": 27.025,
                "pitch": 51,
                "velocity": 127,
                "duration": 0.20227272727272805,
                "tempo": 120.0
            },
            {
                "start_time": 27.025,
                "end_time": 27.224999999999998,
                "pitch": 50,
                "velocity": 127,
                "duration": 0.1999999999999993,
                "tempo": 120.0
            },
            {
                "start_time": 27.224999999999998,
                "end_time": 27.438636363636363,
                "pitch": 34,
                "velocity": 127,
                "duration": 0.21363636363636473,
                "tempo": 120.0
            },
            {
                "start_time": 27.438636363636363,
                "end_time": 27.625,
                "pitch": 34,
                "velocity": 127,
                "duration": 0.1863636363636374,
                "tempo": 120.0
            },
            {
                "start_time": 27.86590909090909,
                "end_time": 28.065909090909088,
                "pitch": 34,
                "velocity": 127,
                "duration": 0.1999999999999993,
                "tempo": 120.0
            },
            {
                "start_time": 28.065909090909088,
                "end_time": 28.938636363636363,
                "pitch": 34,
                "velocity": 127,
                "duration": 0.8727272727272748,
                "tempo": 120.0
            },
            {
                "start_time": 28.938636363636363,
                "end_time": 29.14090909090909,
                "pitch": 36,
                "velocity": 127,
                "duration": 0.20227272727272805,
                "tempo": 120.0
            },
            {
                "start_time": 29.14090909090909,
                "end_time": 29.34090909090909,
                "pitch": 36,
                "velocity": 127,
                "duration": 0.1999999999999993,
                "tempo": 120.0
            },
            {
                "start_time": 29.563636363636363,
                "end_time": 29.75,
                "pitch": 36,
                "velocity": 127,
                "duration": 0.1863636363636374,
                "tempo": 120.0
            },
            {
                "start_time": 29.75,
                "end_time": 30.62272727272727,
                "pitch": 36,
                "velocity": 127,
                "duration": 0.8727272727272712,
                "tempo": 120.0
            },
            {
                "start_time": 30.62272727272727,
                "end_time": 30.825,
                "pitch": 37,
                "velocity": 127,
                "duration": 0.20227272727272805,
                "tempo": 120.0
            },
            {
                "start_time": 30.825,
                "end_time": 31.065909090909088,
                "pitch": 37,
                "velocity": 127,
                "duration": 0.24090909090908852,
                "tempo": 120.0
            },
            {
                "start_time": 31.270454545454545,
                "end_time": 31.474999999999998,
                "pitch": 37,
                "velocity": 127,
                "duration": 0.20454545454545325,
                "tempo": 120.0
            },
            {
                "start_time": 31.474999999999998,
                "end_time": 32.30681818181818,
                "pitch": 37,
                "velocity": 127,
                "duration": 0.831818181818182,
                "tempo": 120.0
            },
            {
                "start_time": 32.30681818181818,
                "end_time": 32.513636363636365,
                "pitch": 38,
                "velocity": 127,
                "duration": 0.20681818181818556,
                "tempo": 120.0
            },
            {
                "start_time": 32.513636363636365,
                "end_time": 32.75909090909091,
                "pitch": 38,
                "velocity": 127,
                "duration": 0.24545454545454248,
                "tempo": 120.0
            },
            {
                "start_time": 32.95909090909091,
                "end_time": 33.19090909090909,
                "pitch": 38,
                "velocity": 127,
                "duration": 0.23181818181817704,
                "tempo": 120.0
            },
            {
                "start_time": 33.19090909090909,
                "end_time": 33.59318181818182,
                "pitch": 38,
                "velocity": 127,
                "duration": 0.4022727272727309,
                "tempo": 120.0
            },
            {
                "start_time": 33.59318181818182,
                "end_time": 33.99318181818182,
                "pitch": 33,
                "velocity": 127,
                "duration": 0.3999999999999986,
                "tempo": 120.0
            },
            {
                "start_time": 33.99318181818182,
                "end_time": 34.23863636363636,
                "pitch": 34,
                "velocity": 127,
                "duration": 0.24545454545454248,
                "tempo": 120.0
            },
            {
                "start_time": 34.23863636363636,
                "end_time": 34.44318181818181,
                "pitch": 34,
                "velocity": 127,
                "duration": 0.20454545454545325,
                "tempo": 120.0
            },
            {
                "start_time": 34.643181818181816,
                "end_time": 34.875,
                "pitch": 34,
                "velocity": 127,
                "duration": 0.23181818181818414,
                "tempo": 120.0
            },
            {
                "start_time": 34.875,
                "end_time": 35.70681818181818,
                "pitch": 34,
                "velocity": 127,
                "duration": 0.8318181818181785,
                "tempo": 120.0
            },
            {
                "start_time": 35.70681818181818,
                "end_time": 35.93863636363636,
                "pitch": 36,
                "velocity": 127,
                "duration": 0.23181818181818414,
                "tempo": 120.0
            },
            {
                "start_time": 35.93863636363636,
                "end_time": 36.12954545454545,
                "pitch": 36,
                "velocity": 127,
                "duration": 0.1909090909090878,
                "tempo": 120.0
            },
            {
                "start_time": 36.35909090909091,
                "end_time": 36.56136363636364,
                "pitch": 36,
                "velocity": 127,
                "duration": 0.20227272727272805,
                "tempo": 120.0
            },
            {
                "start_time": 36.56136363636364,
                "end_time": 37.434090909090905,
                "pitch": 36,
                "velocity": 127,
                "duration": 0.8727272727272677,
                "tempo": 120.0
            },
            {
                "start_time": 37.434090909090905,
                "end_time": 37.63863636363636,
                "pitch": 37,
                "velocity": 127,
                "duration": 0.20454545454545325,
                "tempo": 120.0
            },
            {
                "start_time": 37.63863636363636,
                "end_time": 37.845454545454544,
                "pitch": 37,
                "velocity": 127,
                "duration": 0.20681818181818556,
                "tempo": 120.0
            },
            {
                "start_time": 38.059090909090905,
                "end_time": 38.24545454545454,
                "pitch": 37,
                "velocity": 127,
                "duration": 0.1863636363636374,
                "tempo": 120.0
            },
            {
                "start_time": 38.24545454545454,
                "end_time": 39.127272727272725,
                "pitch": 37,
                "velocity": 127,
                "duration": 0.8818181818181827,
                "tempo": 120.0
            },
            {
                "start_time": 39.127272727272725,
                "end_time": 39.32954545454545,
                "pitch": 33,
                "velocity": 127,
                "duration": 0.20227272727272805,
                "tempo": 120.0
            },
            {
                "start_time": 39.32954545454545,
                "end_time": 39.559090909090905,
                "pitch": 33,
                "velocity": 127,
                "duration": 0.22954545454545183,
                "tempo": 120.0
            },
            {
                "start_time": 39.76136363636363,
                "end_time": 39.961363636363636,
                "pitch": 33,
                "velocity": 127,
                "duration": 0.20000000000000284,
                "tempo": 120.0
            },
            {
                "start_time": 39.961363636363636,
                "end_time": 40.80227272727272,
                "pitch": 33,
                "velocity": 127,
                "duration": 0.8409090909090864,
                "tempo": 120.0
            },
            {
                "start_time": 40.80227272727272,
                "end_time": 41.24318181818182,
                "pitch": 53,
                "velocity": 127,
                "duration": 0.4409090909090949,
                "tempo": 120.0
            }
        ],
        "Vibraphone": [
            {
                "start_time": 0.10909090909090909,
                "end_time": 0.25,
                "pitch": 81,
                "velocity": 101,
                "duration": 0.14090909090909093,
                "tempo": 120.0
            },
            {
                "start_time": 0.25,
                "end_time": 0.35,
                "pitch": 77,
                "velocity": 101,
                "duration": 0.09999999999999998,
                "tempo": 120.0
            },
            {
                "start_time": 0.35,
                "end_time": 0.44999999999999996,
                "pitch": 77,
                "velocity": 101,
                "duration": 0.09999999999999998,
                "tempo": 120.0
            },
            {
                "start_time": 0.44999999999999996,
                "end_time": 0.5499999999999999,
                "pitch": 81,
                "velocity": 101,
                "duration": 0.09999999999999998,
                "tempo": 120.0
            },
            {
                "start_time": 0.5499999999999999,
                "end_time": 0.65,
                "pitch": 81,
                "velocity": 101,
                "duration": 0.10000000000000009,
                "tempo": 120.0
            },
            {
                "start_time": 0.65,
                "end_time": 0.7818181818181817,
                "pitch": 77,
                "velocity": 101,
                "duration": 0.13181818181818172,
                "tempo": 120.0
            },
            {
                "start_time": 0.7818181818181817,
                "end_time": 0.8818181818181817,
                "pitch": 77,
                "velocity": 101,
                "duration": 0.09999999999999998,
                "tempo": 120.0
            },
            {
                "start_time": 0.8818181818181817,
                "end_time": 0.9818181818181818,
                "pitch": 81,
                "velocity": 101,
                "duration": 0.10000000000000009,
                "tempo": 120.0
            },
            {
                "start_time": 0.9818181818181818,
                "end_time": 1.0818181818181818,
                "pitch": 81,
                "velocity": 101,
                "duration": 0.09999999999999998,
                "tempo": 120.0
            },
            {
                "start_time": 1.0818181818181818,
                "end_time": 1.184090909090909,
                "pitch": 77,
                "velocity": 101,
                "duration": 0.10227272727272729,
                "tempo": 120.0
            },
            {
                "start_time": 1.184090909090909,
                "end_time": 1.3136363636363635,
                "pitch": 77,
                "velocity": 101,
                "duration": 0.1295454545454544,
                "tempo": 120.0
            },
            {
                "start_time": 1.3136363636363635,
                "end_time": 1.4136363636363636,
                "pitch": 81,
                "velocity": 101,
                "duration": 0.10000000000000009,
                "tempo": 120.0
            },
            {
                "start_time": 1.4136363636363636,
                "end_time": 1.5136363636363637,
                "pitch": 81,
                "velocity": 101,
                "duration": 0.10000000000000009,
                "tempo": 120.0
            },
            {
                "start_time": 1.5136363636363637,
                "end_time": 1.6159090909090907,
                "pitch": 77,
                "velocity": 101,
                "duration": 0.10227272727272707,
                "tempo": 120.0
            },
            {
                "start_time": 1.6159090909090907,
                "end_time": 1.7159090909090908,
                "pitch": 77,
                "velocity": 101,
                "duration": 0.10000000000000009,
                "tempo": 120.0
            },
            {
                "start_time": 1.7159090909090908,
                "end_time": 1.8454545454545455,
                "pitch": 82,
                "velocity": 101,
                "duration": 0.12954545454545463,
                "tempo": 120.0
            },
            {
                "start_time": 1.8454545454545455,
                "end_time": 1.9386363636363635,
                "pitch": 82,
                "velocity": 101,
                "duration": 0.09318181818181803,
                "tempo": 120.0
            },
            {
                "start_time": 1.9386363636363635,
                "end_time": 2.0318181818181817,
                "pitch": 77,
                "velocity": 101,
                "duration": 0.09318181818181825,
                "tempo": 120.0
            },
            {
                "start_time": 2.0318181818181817,
                "end_time": 2.125,
                "pitch": 77,
                "velocity": 101,
                "duration": 0.09318181818181825,
                "tempo": 120.0
            },
            {
                "start_time": 2.125,
                "end_time": 2.227272727272727,
                "pitch": 82,
                "velocity": 101,
                "duration": 0.10227272727272707,
                "tempo": 120.0
            },
            {
                "start_time": 2.227272727272727,
                "end_time": 2.3613636363636363,
                "pitch": 82,
                "velocity": 101,
                "duration": 0.13409090909090926,
                "tempo": 120.0
            },
            {
                "start_time": 2.3613636363636363,
                "end_time": 2.4636363636363634,
                "pitch": 77,
                "velocity": 101,
                "duration": 0.10227272727272707,
                "tempo": 120.0
            },
            {
                "start_time": 2.4636363636363634,
                "end_time": 2.565909090909091,
                "pitch": 77,
                "velocity": 101,
                "duration": 0.10227272727272751,
                "tempo": 120.0
            },
            {
                "start_time": 2.565909090909091,
                "end_time": 2.6659090909090906,
                "pitch": 82,
                "velocity": 101,
                "duration": 0.09999999999999964,
                "tempo": 120.0
            },
            {
                "start_time": 2.6659090909090906,
                "end_time": 2.7659090909090907,
                "pitch": 82,
                "velocity": 101,
                "duration": 0.10000000000000009,
                "tempo": 120.0
            },
            {
                "start_time": 2.7659090909090907,
                "end_time": 2.8977272727272725,
                "pitch": 77,
                "velocity": 101,
                "duration": 0.13181818181818183,
                "tempo": 120.0
            },
            {
                "start_time": 2.8977272727272725,
                "end_time": 2.9977272727272726,
                "pitch": 77,
                "velocity": 101,
                "duration": 0.10000000000000009,
                "tempo": 120.0
            },
            {
                "start_time": 2.9977272727272726,
                "end_time": 3.0977272727272727,
                "pitch": 82,
                "velocity": 101,
                "duration": 0.10000000000000009,
                "tempo": 120.0
            },
            {
                "start_time": 3.0977272727272727,
                "end_time": 3.1977272727272728,
                "pitch": 82,
                "velocity": 101,
                "duration": 0.10000000000000009,
                "tempo": 120.0
            },
            {
                "start_time": 3.1977272727272728,
                "end_time": 3.3,
                "pitch": 77,
                "velocity": 101,
                "duration": 0.10227272727272707,
                "tempo": 120.0
            },
            {
                "start_time": 3.3,
                "end_time": 3.4386363636363635,
                "pitch": 77,
                "velocity": 101,
                "duration": 0.13863636363636367,
                "tempo": 120.0
            },
            {
                "start_time": 3.4386363636363635,
                "end_time": 3.543181818181818,
                "pitch": 81,
                "velocity": 101,
                "duration": 0.1045454545454545,
                "tempo": 120.0
            },
            {
                "start_time": 3.543181818181818,
                "end_time": 3.645454545454545,
                "pitch": 81,
                "velocity": 101,
                "duration": 0.10227272727272707,
                "tempo": 120.0
            },
            {
                "start_time": 3.645454545454545,
                "end_time": 3.7477272727272726,
                "pitch": 77,
                "velocity": 101,
                "duration": 0.10227272727272751,
                "tempo": 120.0
            },
            {
                "start_time": 3.7477272727272726,
                "end_time": 3.8499999999999996,
                "pitch": 77,
                "velocity": 101,
                "duration": 0.10227272727272707,
                "tempo": 120.0
            },
            {
                "start_time": 3.8499999999999996,
                "end_time": 3.9704545454545452,
                "pitch": 81,
                "velocity": 101,
                "duration": 0.12045454545454559,
                "tempo": 120.0
            },
            {
                "start_time": 3.9704545454545452,
                "end_time": 4.0636363636363635,
                "pitch": 81,
                "velocity": 101,
                "duration": 0.09318181818181825,
                "tempo": 120.0
            },
            {
                "start_time": 4.0636363636363635,
                "end_time": 4.156818181818181,
                "pitch": 77,
                "velocity": 101,
                "duration": 0.09318181818181781,
                "tempo": 120.0
            },
            {
                "start_time": 4.156818181818181,
                "end_time": 4.25,
                "pitch": 77,
                "velocity": 101,
                "duration": 0.0931818181818187,
                "tempo": 120.0
            },
            {
                "start_time": 4.25,
                "end_time": 4.35,
                "pitch": 81,
                "velocity": 101,
                "duration": 0.09999999999999964,
                "tempo": 120.0
            },
            {
                "start_time": 4.35,
                "end_time": 4.4818181818181815,
                "pitch": 81,
                "velocity": 101,
                "duration": 0.13181818181818183,
                "tempo": 120.0
            },
            {
                "start_time": 4.4818181818181815,
                "end_time": 4.581818181818182,
                "pitch": 77,
                "velocity": 101,
                "duration": 0.10000000000000053,
                "tempo": 120.0
            },
            {
                "start_time": 4.581818181818182,
                "end_time": 4.681818181818182,
                "pitch": 77,
                "velocity": 101,
                "duration": 0.09999999999999964,
                "tempo": 120.0
            },
            {
                "start_time": 4.681818181818182,
                "end_time": 4.784090909090909,
                "pitch": 81,
                "velocity": 101,
                "duration": 0.10227272727272751,
                "tempo": 120.0
            },
            {
                "start_time": 4.784090909090909,
                "end_time": 4.886363636363636,
                "pitch": 81,
                "velocity": 101,
                "duration": 0.10227272727272663,
                "tempo": 120.0
            },
            {
                "start_time": 4.886363636363636,
                "end_time": 5.029545454545454,
                "pitch": 77,
                "velocity": 101,
                "duration": 0.14318181818181852,
                "tempo": 120.0
            },
            {
                "start_time": 5.029545454545454,
                "end_time": 5.134090909090909,
                "pitch": 77,
                "velocity": 101,
                "duration": 0.1045454545454545,
                "tempo": 120.0
            },
            {
                "start_time": 5.134090909090909,
                "end_time": 5.2340909090909085,
                "pitch": 81,
                "velocity": 101,
                "duration": 0.09999999999999964,
                "tempo": 120.0
            },
            {
                "start_time": 5.2340909090909085,
                "end_time": 5.334090909090909,
                "pitch": 81,
                "velocity": 101,
                "duration": 0.10000000000000053,
                "tempo": 120.0
            },
            {
                "start_time": 5.334090909090909,
                "end_time": 5.434090909090909,
                "pitch": 77,
                "velocity": 101,
                "duration": 0.09999999999999964,
                "tempo": 120.0
            },
            {
                "start_time": 5.434090909090909,
                "end_time": 5.5636363636363635,
                "pitch": 77,
                "velocity": 101,
                "duration": 0.12954545454545485,
                "tempo": 120.0
            },
            {
                "start_time": 5.5636363636363635,
                "end_time": 5.665909090909091,
                "pitch": 81,
                "velocity": 101,
                "duration": 0.10227272727272751,
                "tempo": 120.0
            },
            {
                "start_time": 5.665909090909091,
                "end_time": 5.765909090909091,
                "pitch": 81,
                "velocity": 101,
                "duration": 0.09999999999999964,
                "tempo": 120.0
            },
            {
                "start_time": 5.765909090909091,
                "end_time": 5.86590909090909,
                "pitch": 77,
                "velocity": 101,
                "duration": 0.09999999999999964,
                "tempo": 120.0
            },
            {
                "start_time": 5.86590909090909,
                "end_time": 5.965909090909091,
                "pitch": 77,
                "velocity": 101,
                "duration": 0.10000000000000053,
                "tempo": 120.0
            },
            {
                "start_time": 5.965909090909091,
                "end_time": 6.088636363636363,
                "pitch": 81,
                "velocity": 101,
                "duration": 0.12272727272727213,
                "tempo": 120.0
            },
            {
                "start_time": 6.088636363636363,
                "end_time": 6.181818181818182,
                "pitch": 81,
                "velocity": 101,
                "duration": 0.0931818181818187,
                "tempo": 120.0
            },
            {
                "start_time": 6.181818181818182,
                "end_time": 6.2749999999999995,
                "pitch": 77,
                "velocity": 101,
                "duration": 0.09318181818181781,
                "tempo": 120.0
            },
            {
                "start_time": 6.2749999999999995,
                "end_time": 6.368181818181818,
                "pitch": 77,
                "velocity": 101,
                "duration": 0.0931818181818187,
                "tempo": 120.0
            },
            {
                "start_time": 6.368181818181818,
                "end_time": 6.470454545454545,
                "pitch": 81,
                "velocity": 101,
                "duration": 0.10227272727272663,
                "tempo": 120.0
            },
            {
                "start_time": 6.470454545454545,
                "end_time": 6.613636363636363,
                "pitch": 81,
                "velocity": 101,
                "duration": 0.14318181818181852,
                "tempo": 120.0
            },
            {
                "start_time": 6.613636363636363,
                "end_time": 6.718181818181818,
                "pitch": 77,
                "velocity": 101,
                "duration": 0.1045454545454545,
                "tempo": 120.0
            },
            {
                "start_time": 6.718181818181818,
                "end_time": 6.820454545454545,
                "pitch": 77,
                "velocity": 101,
                "duration": 0.10227272727272751,
                "tempo": 120.0
            },
            {
                "start_time": 6.820454545454545,
                "end_time": 6.920454545454545,
                "pitch": 79,
                "velocity": 101,
                "duration": 0.09999999999999964,
                "tempo": 120.0
            },
            {
                "start_time": 6.920454545454545,
                "end_time": 7.0204545454545455,
                "pitch": 79,
                "velocity": 101,
                "duration": 0.10000000000000053,
                "tempo": 120.0
            },
            {
                "start_time": 7.0204545454545455,
                "end_time": 7.1499999999999995,
                "pitch": 75,
                "velocity": 101,
                "duration": 0.12954545454545396,
                "tempo": 120.0
            },
            {
                "start_time": 7.1499999999999995,
                "end_time": 7.252272727272727,
                "pitch": 75,
                "velocity": 101,
                "duration": 0.10227272727272751,
                "tempo": 120.0
            },
            {
                "start_time": 7.252272727272727,
                "end_time": 7.352272727272727,
                "pitch": 79,
                "velocity": 101,
                "duration": 0.09999999999999964,
                "tempo": 120.0
            },
            {
                "start_time": 7.352272727272727,
                "end_time": 7.452272727272727,
                "pitch": 79,
                "velocity": 101,
                "duration": 0.10000000000000053,
                "tempo": 120.0
            },
            {
                "start_time": 7.452272727272727,
                "end_time": 7.552272727272727,
                "pitch": 75,
                "velocity": 101,
                "duration": 0.09999999999999964,
                "tempo": 120.0
            },
            {
                "start_time": 7.552272727272727,
                "end_time": 7.684090909090909,
                "pitch": 75,
                "velocity": 101,
                "duration": 0.13181818181818183,
                "tempo": 120.0
            },
            {
                "start_time": 7.684090909090909,
                "end_time": 7.784090909090908,
                "pitch": 79,
                "velocity": 101,
                "duration": 0.09999999999999964,
                "tempo": 120.0
            },
            {
                "start_time": 7.784090909090908,
                "end_time": 7.884090909090909,
                "pitch": 79,
                "velocity": 101,
                "duration": 0.10000000000000053,
                "tempo": 120.0
            },
            {
                "start_time": 7.884090909090909,
                "end_time": 7.9840909090909085,
                "pitch": 75,
                "velocity": 101,
                "duration": 0.09999999999999964,
                "tempo": 120.0
            },
            {
                "start_time": 7.9840909090909085,
                "end_time": 8.095454545454546,
                "pitch": 75,
                "velocity": 101,
                "duration": 0.11136363636363722,
                "tempo": 120.0
            },
            {
                "start_time": 8.095454545454546,
                "end_time": 8.218181818181817,
                "pitch": 79,
                "velocity": 101,
                "duration": 0.12272727272727124,
                "tempo": 120.0
            },
            {
                "start_time": 8.218181818181817,
                "end_time": 8.313636363636363,
                "pitch": 79,
                "velocity": 101,
                "duration": 0.09545454545454568,
                "tempo": 120.0
            },
            {
                "start_time": 8.313636363636363,
                "end_time": 8.409090909090908,
                "pitch": 75,
                "velocity": 101,
                "duration": 0.09545454545454568,
                "tempo": 120.0
            },
            {
                "start_time": 8.409090909090908,
                "end_time": 8.506818181818181,
                "pitch": 75,
                "velocity": 101,
                "duration": 0.09772727272727266,
                "tempo": 120.0
            },
            {
                "start_time": 8.506818181818181,
                "end_time": 8.60681818181818,
                "pitch": 79,
                "velocity": 101,
                "duration": 0.09999999999999964,
                "tempo": 120.0
            },
            {
                "start_time": 8.60681818181818,
                "end_time": 8.736363636363636,
                "pitch": 79,
                "velocity": 101,
                "duration": 0.12954545454545574,
                "tempo": 120.0
            },
            {
                "start_time": 8.736363636363636,
                "end_time": 8.836363636363636,
                "pitch": 75,
                "velocity": 101,
                "duration": 0.09999999999999964,
                "tempo": 120.0
            },
            {
                "start_time": 8.836363636363636,
                "end_time": 8.938636363636363,
                "pitch": 75,
                "velocity": 101,
                "duration": 0.10227272727272663,
                "tempo": 120.0
            },
            {
                "start_time": 8.938636363636363,
                "end_time": 9.038636363636364,
                "pitch": 79,
                "velocity": 101,
                "duration": 0.10000000000000142,
                "tempo": 120.0
            },
            {
                "start_time": 9.038636363636364,
                "end_time": 9.138636363636364,
                "pitch": 79,
                "velocity": 101,
                "duration": 0.09999999999999964,
                "tempo": 120.0
            },
            {
                "start_time": 9.138636363636364,
                "end_time": 9.268181818181818,
                "pitch": 75,
                "velocity": 101,
                "duration": 0.12954545454545396,
                "tempo": 120.0
            },
            {
                "start_time": 9.268181818181818,
                "end_time": 9.379545454545454,
                "pitch": 75,
                "velocity": 101,
                "duration": 0.11136363636363633,
                "tempo": 120.0
            },
            {
                "start_time": 9.379545454545454,
                "end_time": 9.472727272727273,
                "pitch": 79,
                "velocity": 101,
                "duration": 0.0931818181818187,
                "tempo": 120.0
            },
            {
                "start_time": 9.472727272727273,
                "end_time": 9.575,
                "pitch": 79,
                "velocity": 101,
                "duration": 0.10227272727272663,
                "tempo": 120.0
            },
            {
                "start_time": 9.575,
                "end_time": 9.686363636363636,
                "pitch": 75,
                "velocity": 101,
                "duration": 0.11136363636363633,
                "tempo": 120.0
            },
            {
                "start_time": 9.686363636363636,
                "end_time": 9.820454545454545,
                "pitch": 75,
                "velocity": 101,
                "duration": 0.1340909090909097,
                "tempo": 120.0
            },
            {
                "start_time": 9.820454545454545,
                "end_time": 9.920454545454545,
                "pitch": 79,
                "velocity": 101,
                "duration": 0.09999999999999964,
                "tempo": 120.0
            },
            {
                "start_time": 9.920454545454545,
                "end_time": 10.020454545454545,
                "pitch": 79,
                "velocity": 101,
                "duration": 0.09999999999999964,
                "tempo": 120.0
            },
            {
                "start_time": 10.020454545454545,
                "end_time": 10.122727272727273,
                "pitch": 75,
                "velocity": 101,
                "duration": 0.1022727272727284,
                "tempo": 120.0
            },
            {
                "start_time": 10.122727272727273,
                "end_time": 10.222727272727273,
                "pitch": 75,
                "velocity": 101,
                "duration": 0.09999999999999964,
                "tempo": 120.0
            },
            {
                "start_time": 10.222727272727273,
                "end_time": 10.343181818181817,
                "pitch": 81,
                "velocity": 101,
                "duration": 0.12045454545454426,
                "tempo": 120.0
            },
            {
                "start_time": 10.343181818181817,
                "end_time": 10.438636363636363,
                "pitch": 81,
                "velocity": 101,
                "duration": 0.09545454545454568,
                "tempo": 120.0
            },
            {
                "start_time": 10.438636363636363,
                "end_time": 10.531818181818181,
                "pitch": 77,
                "velocity": 101,
                "duration": 0.0931818181818187,
                "tempo": 120.0
            },
            {
                "start_time": 10.531818181818181,
                "end_time": 10.625,
                "pitch": 77,
                "velocity": 101,
                "duration": 0.0931818181818187,
                "tempo": 120.0
            },
            {
                "start_time": 10.625,
                "end_time": 10.725,
                "pitch": 81,
                "velocity": 101,
                "duration": 0.09999999999999964,
                "tempo": 120.0
            },
            {
                "start_time": 10.725,
                "end_time": 10.85681818181818,
                "pitch": 81,
                "velocity": 101,
                "duration": 0.13181818181818095,
                "tempo": 120.0
            },
            {
                "start_time": 10.85681818181818,
                "end_time": 10.956818181818182,
                "pitch": 77,
                "velocity": 101,
                "duration": 0.10000000000000142,
                "tempo": 120.0
            },
            {
                "start_time": 10.956818181818182,
                "end_time": 11.056818181818182,
                "pitch": 77,
                "velocity": 101,
                "duration": 0.09999999999999964,
                "tempo": 120.0
            },
            {
                "start_time": 11.056818181818182,
                "end_time": 11.159090909090908,
                "pitch": 81,
                "velocity": 101,
                "duration": 0.10227272727272663,
                "tempo": 120.0
            },
            {
                "start_time": 11.159090909090908,
                "end_time": 11.261363636363637,
                "pitch": 81,
                "velocity": 101,
                "duration": 0.1022727272727284,
                "tempo": 120.0
            },
            {
                "start_time": 11.261363636363637,
                "end_time": 11.404545454545454,
                "pitch": 77,
                "velocity": 101,
                "duration": 0.14318181818181763,
                "tempo": 120.0
            },
            {
                "start_time": 11.404545454545454,
                "end_time": 11.506818181818181,
                "pitch": 77,
                "velocity": 101,
                "duration": 0.10227272727272663,
                "tempo": 120.0
            },
            {
                "start_time": 11.506818181818181,
                "end_time": 11.60909090909091,
                "pitch": 81,
                "velocity": 101,
                "duration": 0.1022727272727284,
                "tempo": 120.0
            },
            {
                "start_time": 11.60909090909091,
                "end_time": 11.709090909090909,
                "pitch": 81,
                "velocity": 101,
                "duration": 0.09999999999999964,
                "tempo": 120.0
            },
            {
                "start_time": 11.709090909090909,
                "end_time": 11.809090909090909,
                "pitch": 77,
                "velocity": 101,
                "duration": 0.09999999999999964,
                "tempo": 120.0
            },
            {
                "start_time": 11.809090909090909,
                "end_time": 11.938636363636363,
                "pitch": 77,
                "velocity": 101,
                "duration": 0.12954545454545396,
                "tempo": 120.0
            },
            {
                "start_time": 11.938636363636363,
                "end_time": 12.040909090909091,
                "pitch": 81,
                "velocity": 101,
                "duration": 0.1022727272727284,
                "tempo": 120.0
            },
            {
                "start_time": 12.040909090909091,
                "end_time": 12.14090909090909,
                "pitch": 81,
                "velocity": 101,
                "duration": 0.09999999999999964,
                "tempo": 120.0
            },
            {
                "start_time": 12.14090909090909,
                "end_time": 12.24090909090909,
                "pitch": 77,
                "velocity": 101,
                "duration": 0.09999999999999964,
                "tempo": 120.0
            },
            {
                "start_time": 12.24090909090909,
                "end_time": 12.34090909090909,
                "pitch": 77,
                "velocity": 101,
                "duration": 0.09999999999999964,
                "tempo": 120.0
            },
            {
                "start_time": 12.34090909090909,
                "end_time": 12.463636363636363,
                "pitch": 81,
                "velocity": 101,
                "duration": 0.12272727272727302,
                "tempo": 120.0
            },
            {
                "start_time": 12.463636363636363,
                "end_time": 12.556818181818182,
                "pitch": 81,
                "velocity": 101,
                "duration": 0.0931818181818187,
                "tempo": 120.0
            },
            {
                "start_time": 12.556818181818182,
                "end_time": 12.649999999999999,
                "pitch": 77,
                "velocity": 101,
                "duration": 0.09318181818181692,
                "tempo": 120.0
            },
            {
                "start_time": 12.649999999999999,
                "end_time": 12.743181818181817,
                "pitch": 77,
                "velocity": 101,
                "duration": 0.0931818181818187,
                "tempo": 120.0
            },
            {
                "start_time": 12.743181818181817,
                "end_time": 12.845454545454546,
                "pitch": 81,
                "velocity": 101,
                "duration": 0.1022727272727284,
                "tempo": 120.0
            },
            {
                "start_time": 12.845454545454546,
                "end_time": 12.988636363636363,
                "pitch": 81,
                "velocity": 101,
                "duration": 0.14318181818181763,
                "tempo": 120.0
            },
            {
                "start_time": 12.988636363636363,
                "end_time": 13.09090909090909,
                "pitch": 77,
                "velocity": 101,
                "duration": 0.10227272727272663,
                "tempo": 120.0
            },
            {
                "start_time": 13.09090909090909,
                "end_time": 13.195454545454545,
                "pitch": 77,
                "velocity": 101,
                "duration": 0.10454545454545539,
                "tempo": 120.0
            },
            {
                "start_time": 13.195454545454545,
                "end_time": 13.295454545454545,
                "pitch": 81,
                "velocity": 101,
                "duration": 0.09999999999999964,
                "tempo": 120.0
            },
            {
                "start_time": 13.295454545454545,
                "end_time": 13.395454545454545,
                "pitch": 81,
                "velocity": 101,
                "duration": 0.09999999999999964,
                "tempo": 120.0
            },
            {
                "start_time": 13.395454545454545,
                "end_time": 13.524999999999999,
                "pitch": 77,
                "velocity": 101,
                "duration": 0.12954545454545396,
                "tempo": 120.0
            },
            {
                "start_time": 13.524999999999999,
                "end_time": 13.627272727272727,
                "pitch": 77,
                "velocity": 101,
                "duration": 0.1022727272727284,
                "tempo": 120.0
            },
            {
                "start_time": 13.627272727272727,
                "end_time": 13.727272727272727,
                "pitch": 81,
                "velocity": 101,
                "duration": 0.09999999999999964,
                "tempo": 120.0
            },
            {
                "start_time": 13.727272727272727,
                "end_time": 13.827272727272726,
                "pitch": 81,
                "velocity": 101,
                "duration": 0.09999999999999964,
                "tempo": 120.0
            },
            {
                "start_time": 13.827272727272726,
                "end_time": 13.927272727272726,
                "pitch": 77,
                "velocity": 101,
                "duration": 0.09999999999999964,
                "tempo": 120.0
            },
            {
                "start_time": 13.927272727272726,
                "end_time": 14.059090909090909,
                "pitch": 77,
                "velocity": 101,
                "duration": 0.13181818181818272,
                "tempo": 120.0
            },
            {
                "start_time": 14.068181818181818,
                "end_time": 14.170454545454545,
                "pitch": 81,
                "velocity": 101,
                "duration": 0.10227272727272663,
                "tempo": 120.0
            },
            {
                "start_time": 14.170454545454545,
                "end_time": 14.263636363636364,
                "pitch": 81,
                "velocity": 101,
                "duration": 0.0931818181818187,
                "tempo": 120.0
            },
            {
                "start_time": 14.263636363636364,
                "end_time": 14.272727272727272,
                "pitch": 90,
                "velocity": 101,
                "duration": 0.009090909090907928,
                "tempo": 120.0
            },
            {
                "start_time": 14.272727272727272,
                "end_time": 14.375,
                "pitch": 77,
                "velocity": 101,
                "duration": 0.1022727272727284,
                "tempo": 120.0
            },
            {
                "start_time": 14.375,
                "end_time": 14.468181818181817,
                "pitch": 77,
                "velocity": 101,
                "duration": 0.09318181818181692,
                "tempo": 120.0
            },
            {
                "start_time": 14.468181818181817,
                "end_time": 14.479545454545454,
                "pitch": 43,
                "velocity": 101,
                "duration": 0.011363636363636687,
                "tempo": 120.0
            },
            {
                "start_time": 14.479545454545454,
                "end_time": 14.6,
                "pitch": 81,
                "velocity": 101,
                "duration": 0.12045454545454604,
                "tempo": 120.0
            },
            {
                "start_time": 14.6,
                "end_time": 14.693181818181818,
                "pitch": 81,
                "velocity": 101,
                "duration": 0.0931818181818187,
                "tempo": 120.0
            },
            {
                "start_time": 14.693181818181818,
                "end_time": 14.788636363636362,
                "pitch": 77,
                "velocity": 101,
                "duration": 0.0954545454545439,
                "tempo": 120.0
            },
            {
                "start_time": 14.788636363636362,
                "end_time": 14.881818181818181,
                "pitch": 77,
                "velocity": 101,
                "duration": 0.0931818181818187,
                "tempo": 120.0
            },
            {
                "start_time": 14.881818181818181,
                "end_time": 14.98181818181818,
                "pitch": 81,
                "velocity": 101,
                "duration": 0.09999999999999964,
                "tempo": 120.0
            },
            {
                "start_time": 14.98181818181818,
                "end_time": 15.111363636363636,
                "pitch": 81,
                "velocity": 101,
                "duration": 0.12954545454545574,
                "tempo": 120.0
            },
            {
                "start_time": 15.111363636363636,
                "end_time": 15.213636363636363,
                "pitch": 77,
                "velocity": 101,
                "duration": 0.10227272727272663,
                "tempo": 120.0
            },
            {
                "start_time": 15.213636363636363,
                "end_time": 15.313636363636363,
                "pitch": 77,
                "velocity": 101,
                "duration": 0.09999999999999964,
                "tempo": 120.0
            },
            {
                "start_time": 15.313636363636363,
                "end_time": 15.413636363636362,
                "pitch": 82,
                "velocity": 101,
                "duration": 0.09999999999999964,
                "tempo": 120.0
            },
            {
                "start_time": 15.413636363636362,
                "end_time": 15.513636363636364,
                "pitch": 82,
                "velocity": 101,
                "duration": 0.10000000000000142,
                "tempo": 120.0
            },
            {
                "start_time": 15.513636363636364,
                "end_time": 15.654545454545454,
                "pitch": 77,
                "velocity": 101,
                "duration": 0.14090909090909065,
                "tempo": 120.0
            },
            {
                "start_time": 15.654545454545454,
                "end_time": 15.754545454545454,
                "pitch": 77,
                "velocity": 101,
                "duration": 0.09999999999999964,
                "tempo": 120.0
            },
            {
                "start_time": 15.754545454545454,
                "end_time": 15.85681818181818,
                "pitch": 82,
                "velocity": 101,
                "duration": 0.10227272727272663,
                "tempo": 120.0
            },
            {
                "start_time": 15.85681818181818,
                "end_time": 15.959090909090909,
                "pitch": 82,
                "velocity": 101,
                "duration": 0.1022727272727284,
                "tempo": 120.0
            },
            {
                "start_time": 15.959090909090909,
                "end_time": 16.063636363636363,
                "pitch": 77,
                "velocity": 101,
                "duration": 0.10454545454545361,
                "tempo": 120.0
            },
            {
                "start_time": 16.063636363636363,
                "end_time": 16.195454545454545,
                "pitch": 77,
                "velocity": 101,
                "duration": 0.13181818181818272,
                "tempo": 120.0
            },
            {
                "start_time": 16.195454545454545,
                "end_time": 16.295454545454543,
                "pitch": 82,
                "velocity": 101,
                "duration": 0.09999999999999787,
                "tempo": 120.0
            },
            {
                "start_time": 16.295454545454543,
                "end_time": 16.397727272727273,
                "pitch": 82,
                "velocity": 101,
                "duration": 0.10227272727273018,
                "tempo": 120.0
            },
            {
                "start_time": 16.397727272727273,
                "end_time": 16.49772727272727,
                "pitch": 77,
                "velocity": 101,
                "duration": 0.09999999999999787,
                "tempo": 120.0
            },
            {
                "start_time": 16.49772727272727,
                "end_time": 16.597727272727273,
                "pitch": 77,
                "velocity": 101,
                "duration": 0.10000000000000142,
                "tempo": 120.0
            },
            {
                "start_time": 16.597727272727273,
                "end_time": 16.71818181818182,
                "pitch": 82,
                "velocity": 101,
                "duration": 0.12045454545454604,
                "tempo": 120.0
            },
            {
                "start_time": 16.71818181818182,
                "end_time": 16.811363636363634,
                "pitch": 82,
                "velocity": 101,
                "duration": 0.09318181818181515,
                "tempo": 120.0
            },
            {
                "start_time": 16.811363636363634,
                "end_time": 16.904545454545453,
                "pitch": 77,
                "velocity": 101,
                "duration": 0.0931818181818187,
                "tempo": 120.0
            },
            {
                "start_time": 16.904545454545453,
                "end_time": 16.99772727272727,
                "pitch": 77,
                "velocity": 101,
                "duration": 0.0931818181818187,
                "tempo": 120.0
            },
            {
                "start_time": 16.99772727272727,
                "end_time": 17.099999999999998,
                "pitch": 81,
                "velocity": 101,
                "duration": 0.10227272727272663,
                "tempo": 120.0
            },
            {
                "start_time": 17.099999999999998,
                "end_time": 17.243181818181817,
                "pitch": 81,
                "velocity": 101,
                "duration": 0.1431818181818194,
                "tempo": 120.0
            },
            {
                "start_time": 17.243181818181817,
                "end_time": 17.345454545454544,
                "pitch": 77,
                "velocity": 101,
                "duration": 0.10227272727272663,
                "tempo": 120.0
            },
            {
                "start_time": 17.345454545454544,
                "end_time": 17.44772727272727,
                "pitch": 77,
                "velocity": 101,
                "duration": 0.10227272727272663,
                "tempo": 120.0
            },
            {
                "start_time": 17.44772727272727,
                "end_time": 17.547727272727272,
                "pitch": 81,
                "velocity": 101,
                "duration": 0.10000000000000142,
                "tempo": 120.0
            },
            {
                "start_time": 17.547727272727272,
                "end_time": 17.65,
                "pitch": 81,
                "velocity": 101,
                "duration": 0.10227272727272663,
                "tempo": 120.0
            },
            {
                "start_time": 17.65,
                "end_time": 17.779545454545453,
                "pitch": 77,
                "velocity": 101,
                "duration": 0.12954545454545396,
                "tempo": 120.0
            },
            {
                "start_time": 17.779545454545453,
                "end_time": 17.879545454545454,
                "pitch": 77,
                "velocity": 101,
                "duration": 0.10000000000000142,
                "tempo": 120.0
            },
            {
                "start_time": 17.879545454545454,
                "end_time": 17.979545454545455,
                "pitch": 81,
                "velocity": 101,
                "duration": 0.10000000000000142,
                "tempo": 120.0
            },
            {
                "start_time": 17.979545454545455,
                "end_time": 18.081818181818182,
                "pitch": 81,
                "velocity": 101,
                "duration": 0.10227272727272663,
                "tempo": 120.0
            },
            {
                "start_time": 18.081818181818182,
                "end_time": 18.18181818181818,
                "pitch": 77,
                "velocity": 101,
                "duration": 0.09999999999999787,
                "tempo": 120.0
            },
            {
                "start_time": 18.18181818181818,
                "end_time": 18.311363636363634,
                "pitch": 77,
                "velocity": 101,
                "duration": 0.12954545454545396,
                "tempo": 120.0
            },
            {
                "start_time": 18.311363636363634,
                "end_time": 18.411363636363635,
                "pitch": 81,
                "velocity": 101,
                "duration": 0.10000000000000142,
                "tempo": 120.0
            },
            {
                "start_time": 18.411363636363635,
                "end_time": 18.511363636363637,
                "pitch": 81,
                "velocity": 101,
                "duration": 0.10000000000000142,
                "tempo": 120.0
            },
            {
                "start_time": 18.511363636363637,
                "end_time": 18.613636363636363,
                "pitch": 77,
                "velocity": 101,
                "duration": 0.10227272727272663,
                "tempo": 120.0
            },
            {
                "start_time": 18.613636363636363,
                "end_time": 18.71363636363636,
                "pitch": 77,
                "velocity": 101,
                "duration": 0.09999999999999787,
                "tempo": 120.0
            },
            {
                "start_time": 18.71363636363636,
                "end_time": 18.847727272727273,
                "pitch": 81,
                "velocity": 101,
                "duration": 0.13409090909091148,
                "tempo": 120.0
            },
            {
                "start_time": 18.847727272727273,
                "end_time": 18.943181818181817,
                "pitch": 81,
                "velocity": 101,
                "duration": 0.0954545454545439,
                "tempo": 120.0
            },
            {
                "start_time": 18.943181818181817,
                "end_time": 19.038636363636364,
                "pitch": 77,
                "velocity": 101,
                "duration": 0.09545454545454746,
                "tempo": 120.0
            },
            {
                "start_time": 19.038636363636364,
                "end_time": 19.134090909090908,
                "pitch": 77,
                "velocity": 101,
                "duration": 0.0954545454545439,
                "tempo": 120.0
            },
            {
                "start_time": 19.134090909090908,
                "end_time": 19.23409090909091,
                "pitch": 81,
                "velocity": 101,
                "duration": 0.10000000000000142,
                "tempo": 120.0
            },
            {
                "start_time": 19.23409090909091,
                "end_time": 19.36590909090909,
                "pitch": 81,
                "velocity": 101,
                "duration": 0.13181818181817917,
                "tempo": 120.0
            },
            {
                "start_time": 19.36590909090909,
                "end_time": 19.46590909090909,
                "pitch": 77,
                "velocity": 101,
                "duration": 0.10000000000000142,
                "tempo": 120.0
            },
            {
                "start_time": 19.46590909090909,
                "end_time": 19.56590909090909,
                "pitch": 77,
                "velocity": 101,
                "duration": 0.10000000000000142,
                "tempo": 120.0
            },
            {
                "start_time": 19.56590909090909,
                "end_time": 19.66590909090909,
                "pitch": 81,
                "velocity": 101,
                "duration": 0.09999999999999787,
                "tempo": 120.0
            },
            {
                "start_time": 19.66590909090909,
                "end_time": 19.76590909090909,
                "pitch": 81,
                "velocity": 101,
                "duration": 0.10000000000000142,
                "tempo": 120.0
            },
            {
                "start_time": 19.76590909090909,
                "end_time": 19.897727272727273,
                "pitch": 77,
                "velocity": 101,
                "duration": 0.13181818181818272,
                "tempo": 120.0
            },
            {
                "start_time": 19.897727272727273,
                "end_time": 19.99772727272727,
                "pitch": 77,
                "velocity": 101,
                "duration": 0.09999999999999787,
                "tempo": 120.0
            },
            {
                "start_time": 19.99772727272727,
                "end_time": 20.097727272727273,
                "pitch": 81,
                "velocity": 101,
                "duration": 0.10000000000000142,
                "tempo": 120.0
            },
            {
                "start_time": 20.097727272727273,
                "end_time": 20.19772727272727,
                "pitch": 81,
                "velocity": 101,
                "duration": 0.09999999999999787,
                "tempo": 120.0
            },
            {
                "start_time": 20.19772727272727,
                "end_time": 20.3,
                "pitch": 77,
                "velocity": 101,
                "duration": 0.10227272727273018,
                "tempo": 120.0
            },
            {
                "start_time": 20.3,
                "end_time": 20.438636363636363,
                "pitch": 77,
                "velocity": 101,
                "duration": 0.1386363636363619,
                "tempo": 120.0
            },
            {
                "start_time": 20.438636363636363,
                "end_time": 20.543181818181818,
                "pitch": 79,
                "velocity": 101,
                "duration": 0.10454545454545539,
                "tempo": 120.0
            },
            {
                "start_time": 20.543181818181818,
                "end_time": 20.645454545454545,
                "pitch": 79,
                "velocity": 101,
                "duration": 0.10227272727272663,
                "tempo": 120.0
            },
            {
                "start_time": 20.645454545454545,
                "end_time": 20.74772727272727,
                "pitch": 75,
                "velocity": 101,
                "duration": 0.10227272727272663,
                "tempo": 120.0
            },
            {
                "start_time": 20.74772727272727,
                "end_time": 20.849999999999998,
                "pitch": 75,
                "velocity": 101,
                "duration": 0.10227272727272663,
                "tempo": 120.0
            },
            {
                "start_time": 20.849999999999998,
                "end_time": 20.972727272727273,
                "pitch": 79,
                "velocity": 101,
                "duration": 0.1227272727272748,
                "tempo": 120.0
            },
            {
                "start_time": 20.972727272727273,
                "end_time": 21.06590909090909,
                "pitch": 79,
                "velocity": 101,
                "duration": 0.0931818181818187,
                "tempo": 120.0
            },
            {
                "start_time": 21.06590909090909,
                "end_time": 21.159090909090907,
                "pitch": 75,
                "velocity": 101,
                "duration": 0.09318181818181515,
                "tempo": 120.0
            },
            {
                "start_time": 21.159090909090907,
                "end_time": 21.252272727272725,
                "pitch": 75,
                "velocity": 101,
                "duration": 0.0931818181818187,
                "tempo": 120.0
            },
            {
                "start_time": 21.252272727272725,
                "end_time": 21.352272727272727,
                "pitch": 79,
                "velocity": 101,
                "duration": 0.10000000000000142,
                "tempo": 120.0
            },
            {
                "start_time": 21.352272727272727,
                "end_time": 21.48409090909091,
                "pitch": 79,
                "velocity": 101,
                "duration": 0.13181818181818272,
                "tempo": 120.0
            },
            {
                "start_time": 21.48409090909091,
                "end_time": 21.584090909090907,
                "pitch": 75,
                "velocity": 101,
                "duration": 0.09999999999999787,
                "tempo": 120.0
            },
            {
                "start_time": 21.584090909090907,
                "end_time": 21.68409090909091,
                "pitch": 75,
                "velocity": 101,
                "duration": 0.10000000000000142,
                "tempo": 120.0
            },
            {
                "start_time": 21.68409090909091,
                "end_time": 21.786363636363635,
                "pitch": 79,
                "velocity": 101,
                "duration": 0.10227272727272663,
                "tempo": 120.0
            },
            {
                "start_time": 21.786363636363635,
                "end_time": 21.888636363636362,
                "pitch": 79,
                "velocity": 101,
                "duration": 0.10227272727272663,
                "tempo": 120.0
            },
            {
                "start_time": 21.888636363636362,
                "end_time": 22.034090909090907,
                "pitch": 75,
                "velocity": 101,
                "duration": 0.14545454545454461,
                "tempo": 120.0
            },
            {
                "start_time": 22.034090909090907,
                "end_time": 22.136363636363637,
                "pitch": 75,
                "velocity": 101,
                "duration": 0.10227272727273018,
                "tempo": 120.0
            },
            {
                "start_time": 22.136363636363637,
                "end_time": 22.236363636363635,
                "pitch": 79,
                "velocity": 101,
                "duration": 0.09999999999999787,
                "tempo": 120.0
            },
            {
                "start_time": 22.236363636363635,
                "end_time": 22.336363636363636,
                "pitch": 79,
                "velocity": 101,
                "duration": 0.10000000000000142,
                "tempo": 120.0
            },
            {
                "start_time": 22.336363636363636,
                "end_time": 22.436363636363634,
                "pitch": 75,
                "velocity": 101,
                "duration": 0.09999999999999787,
                "tempo": 120.0
            },
            {
                "start_time": 22.436363636363634,
                "end_time": 22.568181818181817,
                "pitch": 75,
                "velocity": 101,
                "duration": 0.13181818181818272,
                "tempo": 120.0
            },
            {
                "start_time": 22.568181818181817,
                "end_time": 22.668181818181818,
                "pitch": 79,
                "velocity": 101,
                "duration": 0.10000000000000142,
                "tempo": 120.0
            },
            {
                "start_time": 22.668181818181818,
                "end_time": 22.768181818181816,
                "pitch": 79,
                "velocity": 101,
                "duration": 0.09999999999999787,
                "tempo": 120.0
            },
            {
                "start_time": 22.768181818181816,
                "end_time": 22.868181818181817,
                "pitch": 75,
                "velocity": 101,
                "duration": 0.10000000000000142,
                "tempo": 120.0
            },
            {
                "start_time": 22.868181818181817,
                "end_time": 22.96818181818182,
                "pitch": 75,
                "velocity": 101,
                "duration": 0.10000000000000142,
                "tempo": 120.0
            },
            {
                "start_time": 22.96818181818182,
                "end_time": 23.09090909090909,
                "pitch": 79,
                "velocity": 101,
                "duration": 0.12272727272727124,
                "tempo": 120.0
            },
            {
                "start_time": 23.09090909090909,
                "end_time": 23.18409090909091,
                "pitch": 79,
                "velocity": 101,
                "duration": 0.0931818181818187,
                "tempo": 120.0
            },
            {
                "start_time": 23.18409090909091,
                "end_time": 23.277272727272727,
                "pitch": 75,
                "velocity": 101,
                "duration": 0.0931818181818187,
                "tempo": 120.0
            },
            {
                "start_time": 23.277272727272727,
                "end_time": 23.37272727272727,
                "pitch": 75,
                "velocity": 101,
                "duration": 0.0954545454545439,
                "tempo": 120.0
            },
            {
                "start_time": 23.37272727272727,
                "end_time": 23.472727272727273,
                "pitch": 79,
                "velocity": 101,
                "duration": 0.10000000000000142,
                "tempo": 120.0
            },
            {
                "start_time": 23.472727272727273,
                "end_time": 23.618181818181817,
                "pitch": 79,
                "velocity": 101,
                "duration": 0.14545454545454461,
                "tempo": 120.0
            },
            {
                "start_time": 23.618181818181817,
                "end_time": 23.720454545454544,
                "pitch": 75,
                "velocity": 101,
                "duration": 0.10227272727272663,
                "tempo": 120.0
            },
            {
                "start_time": 23.720454545454544,
                "end_time": 23.82272727272727,
                "pitch": 75,
                "velocity": 101,
                "duration": 0.10227272727272663,
                "tempo": 120.0
            },
            {
                "start_time": 23.82272727272727,
                "end_time": 23.922727272727272,
                "pitch": 81,
                "velocity": 101,
                "duration": 0.10000000000000142,
                "tempo": 120.0
            },
            {
                "start_time": 23.922727272727272,
                "end_time": 24.02272727272727,
                "pitch": 81,
                "velocity": 101,
                "duration": 0.09999999999999787,
                "tempo": 120.0
            },
            {
                "start_time": 24.02272727272727,
                "end_time": 24.154545454545453,
                "pitch": 77,
                "velocity": 101,
                "duration": 0.13181818181818272,
                "tempo": 120.0
            },
            {
                "start_time": 24.154545454545453,
                "end_time": 24.254545454545454,
                "pitch": 77,
                "velocity": 101,
                "duration": 0.10000000000000142,
                "tempo": 120.0
            },
            {
                "start_time": 24.254545454545454,
                "end_time": 24.354545454545452,
                "pitch": 81,
                "velocity": 101,
                "duration": 0.09999999999999787,
                "tempo": 120.0
            },
            {
                "start_time": 24.354545454545452,
                "end_time": 24.454545454545453,
                "pitch": 81,
                "velocity": 101,
                "duration": 0.10000000000000142,
                "tempo": 120.0
            },
            {
                "start_time": 24.454545454545453,
                "end_time": 24.554545454545455,
                "pitch": 77,
                "velocity": 101,
                "duration": 0.10000000000000142,
                "tempo": 120.0
            },
            {
                "start_time": 24.554545454545455,
                "end_time": 24.686363636363634,
                "pitch": 77,
                "velocity": 101,
                "duration": 0.13181818181817917,
                "tempo": 120.0
            },
            {
                "start_time": 24.686363636363634,
                "end_time": 24.786363636363635,
                "pitch": 81,
                "velocity": 101,
                "duration": 0.10000000000000142,
                "tempo": 120.0
            },
            {
                "start_time": 24.786363636363635,
                "end_time": 24.886363636363637,
                "pitch": 81,
                "velocity": 101,
                "duration": 0.10000000000000142,
                "tempo": 120.0
            },
            {
                "start_time": 24.886363636363637,
                "end_time": 24.986363636363635,
                "pitch": 77,
                "velocity": 101,
                "duration": 0.09999999999999787,
                "tempo": 120.0
            },
            {
                "start_time": 24.986363636363635,
                "end_time": 25.08863636363636,
                "pitch": 77,
                "velocity": 101,
                "duration": 0.10227272727272663,
                "tempo": 120.0
            },
            {
                "start_time": 25.08863636363636,
                "end_time": 25.222727272727273,
                "pitch": 81,
                "velocity": 101,
                "duration": 0.13409090909091148,
                "tempo": 120.0
            },
            {
                "start_time": 25.222727272727273,
                "end_time": 25.318181818181817,
                "pitch": 81,
                "velocity": 101,
                "duration": 0.0954545454545439,
                "tempo": 120.0
            },
            {
                "start_time": 25.318181818181817,
                "end_time": 25.413636363636364,
                "pitch": 77,
                "velocity": 101,
                "duration": 0.09545454545454746,
                "tempo": 120.0
            },
            {
                "start_time": 25.413636363636364,
                "end_time": 25.509090909090908,
                "pitch": 77,
                "velocity": 101,
                "duration": 0.0954545454545439,
                "tempo": 120.0
            },
            {
                "start_time": 25.509090909090908,
                "end_time": 25.60909090909091,
                "pitch": 81,
                "velocity": 101,
                "duration": 0.10000000000000142,
                "tempo": 120.0
            },
            {
                "start_time": 25.60909090909091,
                "end_time": 25.738636363636363,
                "pitch": 81,
                "velocity": 101,
                "duration": 0.12954545454545396,
                "tempo": 120.0
            },
            {
                "start_time": 25.738636363636363,
                "end_time": 25.84090909090909,
                "pitch": 77,
                "velocity": 101,
                "duration": 0.10227272727272663,
                "tempo": 120.0
            },
            {
                "start_time": 25.84090909090909,
                "end_time": 25.94090909090909,
                "pitch": 77,
                "velocity": 101,
                "duration": 0.10000000000000142,
                "tempo": 120.0
            },
            {
                "start_time": 25.94090909090909,
                "end_time": 26.04090909090909,
                "pitch": 81,
                "velocity": 101,
                "duration": 0.09999999999999787,
                "tempo": 120.0
            },
            {
                "start_time": 26.04090909090909,
                "end_time": 26.14090909090909,
                "pitch": 81,
                "velocity": 101,
                "duration": 0.10000000000000142,
                "tempo": 120.0
            },
            {
                "start_time": 26.14090909090909,
                "end_time": 26.27272727272727,
                "pitch": 77,
                "velocity": 101,
                "duration": 0.13181818181817917,
                "tempo": 120.0
            },
            {
                "start_time": 26.27272727272727,
                "end_time": 26.37272727272727,
                "pitch": 77,
                "velocity": 101,
                "duration": 0.10000000000000142,
                "tempo": 120.0
            },
            {
                "start_time": 26.37272727272727,
                "end_time": 26.474999999999998,
                "pitch": 81,
                "velocity": 101,
                "duration": 0.10227272727272663,
                "tempo": 120.0
            },
            {
                "start_time": 26.474999999999998,
                "end_time": 26.577272727272724,
                "pitch": 81,
                "velocity": 101,
                "duration": 0.10227272727272663,
                "tempo": 120.0
            },
            {
                "start_time": 26.577272727272724,
                "end_time": 26.679545454545455,
                "pitch": 79,
                "velocity": 101,
                "duration": 0.10227272727273018,
                "tempo": 120.0
            },
            {
                "start_time": 26.679545454545455,
                "end_time": 26.82272727272727,
                "pitch": 79,
                "velocity": 101,
                "duration": 0.14318181818181586,
                "tempo": 120.0
            },
            {
                "start_time": 26.82272727272727,
                "end_time": 26.922727272727272,
                "pitch": 77,
                "velocity": 101,
                "duration": 0.10000000000000142,
                "tempo": 120.0
            },
            {
                "start_time": 26.922727272727272,
                "end_time": 27.025,
                "pitch": 77,
                "velocity": 101,
                "duration": 0.10227272727272663,
                "tempo": 120.0
            },
            {
                "start_time": 27.025,
                "end_time": 27.125,
                "pitch": 76,
                "velocity": 101,
                "duration": 0.10000000000000142,
                "tempo": 120.0
            },
            {
                "start_time": 27.125,
                "end_time": 27.224999999999998,
                "pitch": 76,
                "velocity": 101,
                "duration": 0.09999999999999787,
                "tempo": 120.0
            },
            {
                "start_time": 27.224999999999998,
                "end_time": 27.345454545454544,
                "pitch": 74,
                "velocity": 101,
                "duration": 0.12045454545454604,
                "tempo": 120.0
            },
            {
                "start_time": 27.345454545454544,
                "end_time": 27.438636363636363,
                "pitch": 74,
                "velocity": 101,
                "duration": 0.0931818181818187,
                "tempo": 120.0
            },
            {
                "start_time": 27.438636363636363,
                "end_time": 27.53181818181818,
                "pitch": 76,
                "velocity": 101,
                "duration": 0.0931818181818187,
                "tempo": 120.0
            },
            {
                "start_time": 27.53181818181818,
                "end_time": 27.625,
                "pitch": 76,
                "velocity": 101,
                "duration": 0.0931818181818187,
                "tempo": 120.0
            },
            {
                "start_time": 27.625,
                "end_time": 27.724999999999998,
                "pitch": 77,
                "velocity": 101,
                "duration": 0.09999999999999787,
                "tempo": 120.0
            },
            {
                "start_time": 27.724999999999998,
                "end_time": 27.85681818181818,
                "pitch": 77,
                "velocity": 101,
                "duration": 0.13181818181818272,
                "tempo": 120.0
            },
            {
                "start_time": 27.85681818181818,
                "end_time": 27.956818181818182,
                "pitch": 74,
                "velocity": 101,
                "duration": 0.10000000000000142,
                "tempo": 120.0
            },
            {
                "start_time": 27.956818181818182,
                "end_time": 28.065909090909088,
                "pitch": 74,
                "velocity": 101,
                "duration": 0.1090909090909058,
                "tempo": 120.0
            },
            {
                "start_time": 28.065909090909088,
                "end_time": 28.159090909090907,
                "pitch": 79,
                "velocity": 101,
                "duration": 0.0931818181818187,
                "tempo": 120.0
            },
            {
                "start_time": 28.159090909090907,
                "end_time": 28.261363636363637,
                "pitch": 79,
                "velocity": 101,
                "duration": 0.10227272727273018,
                "tempo": 120.0
            },
            {
                "start_time": 28.261363636363637,
                "end_time": 28.404545454545453,
                "pitch": 77,
                "velocity": 101,
                "duration": 0.14318181818181586,
                "tempo": 120.0
            },
            {
                "start_time": 28.404545454545453,
                "end_time": 28.509090909090908,
                "pitch": 77,
                "velocity": 101,
                "duration": 0.10454545454545539,
                "tempo": 120.0
            },
            {
                "start_time": 28.509090909090908,
                "end_time": 28.60909090909091,
                "pitch": 76,
                "velocity": 101,
                "duration": 0.10000000000000142,
                "tempo": 120.0
            },
            {
                "start_time": 28.60909090909091,
                "end_time": 28.709090909090907,
                "pitch": 76,
                "velocity": 101,
                "duration": 0.09999999999999787,
                "tempo": 120.0
            },
            {
                "start_time": 28.709090909090907,
                "end_time": 28.80909090909091,
                "pitch": 77,
                "velocity": 101,
                "duration": 0.10000000000000142,
                "tempo": 120.0
            },
            {
                "start_time": 28.80909090909091,
                "end_time": 28.938636363636363,
                "pitch": 77,
                "velocity": 101,
                "duration": 0.12954545454545396,
                "tempo": 120.0
            },
            {
                "start_time": 28.938636363636363,
                "end_time": 29.04090909090909,
                "pitch": 72,
                "velocity": 101,
                "duration": 0.10227272727272663,
                "tempo": 120.0
            },
            {
                "start_time": 29.04090909090909,
                "end_time": 29.14090909090909,
                "pitch": 72,
                "velocity": 101,
                "duration": 0.10000000000000142,
                "tempo": 120.0
            },
            {
                "start_time": 29.14090909090909,
                "end_time": 29.24090909090909,
                "pitch": 74,
                "velocity": 101,
                "duration": 0.09999999999999787,
                "tempo": 120.0
            },
            {
                "start_time": 29.24090909090909,
                "end_time": 29.34090909090909,
                "pitch": 74,
                "velocity": 101,
                "duration": 0.10000000000000142,
                "tempo": 120.0
            },
            {
                "start_time": 29.34090909090909,
                "end_time": 29.461363636363636,
                "pitch": 76,
                "velocity": 101,
                "duration": 0.12045454545454604,
                "tempo": 120.0
            },
            {
                "start_time": 29.461363636363636,
                "end_time": 29.554545454545455,
                "pitch": 76,
                "velocity": 101,
                "duration": 0.0931818181818187,
                "tempo": 120.0
            },
            {
                "start_time": 29.554545454545455,
                "end_time": 29.64772727272727,
                "pitch": 72,
                "velocity": 101,
                "duration": 0.09318181818181515,
                "tempo": 120.0
            },
            {
                "start_time": 29.64772727272727,
                "end_time": 29.75,
                "pitch": 72,
                "velocity": 101,
                "duration": 0.10227272727273018,
                "tempo": 120.0
            },
            {
                "start_time": 29.75,
                "end_time": 29.843181818181815,
                "pitch": 77,
                "velocity": 101,
                "duration": 0.09318181818181515,
                "tempo": 120.0
            },
            {
                "start_time": 29.843181818181815,
                "end_time": 29.986363636363635,
                "pitch": 77,
                "velocity": 101,
                "duration": 0.1431818181818194,
                "tempo": 120.0
            },
            {
                "start_time": 29.986363636363635,
                "end_time": 30.08863636363636,
                "pitch": 76,
                "velocity": 101,
                "duration": 0.10227272727272663,
                "tempo": 120.0
            },
            {
                "start_time": 30.08863636363636,
                "end_time": 30.190909090909088,
                "pitch": 76,
                "velocity": 101,
                "duration": 0.10227272727272663,
                "tempo": 120.0
            },
            {
                "start_time": 30.190909090909088,
                "end_time": 30.293181818181818,
                "pitch": 74,
                "velocity": 101,
                "duration": 0.10227272727273018,
                "tempo": 120.0
            },
            {
                "start_time": 30.293181818181818,
                "end_time": 30.393181818181816,
                "pitch": 74,
                "velocity": 101,
                "duration": 0.09999999999999787,
                "tempo": 120.0
            },
            {
                "start_time": 30.393181818181816,
                "end_time": 30.52272727272727,
                "pitch": 72,
                "velocity": 101,
                "duration": 0.12954545454545396,
                "tempo": 120.0
            },
            {
                "start_time": 30.52272727272727,
                "end_time": 30.62272727272727,
                "pitch": 72,
                "velocity": 101,
                "duration": 0.10000000000000142,
                "tempo": 120.0
            },
            {
                "start_time": 30.62272727272727,
                "end_time": 30.724999999999998,
                "pitch": 70,
                "velocity": 101,
                "duration": 0.10227272727272663,
                "tempo": 120.0
            },
            {
                "start_time": 30.724999999999998,
                "end_time": 30.825,
                "pitch": 70,
                "velocity": 101,
                "duration": 0.10000000000000142,
                "tempo": 120.0
            },
            {
                "start_time": 30.825,
                "end_time": 30.924999999999997,
                "pitch": 72,
                "velocity": 101,
                "duration": 0.09999999999999787,
                "tempo": 120.0
            },
            {
                "start_time": 30.924999999999997,
                "end_time": 31.054545454545455,
                "pitch": 72,
                "velocity": 101,
                "duration": 0.12954545454545752,
                "tempo": 120.0
            },
            {
                "start_time": 31.065909090909088,
                "end_time": 31.15681818181818,
                "pitch": 74,
                "velocity": 101,
                "duration": 0.09090909090909349,
                "tempo": 120.0
            },
            {
                "start_time": 31.168181818181818,
                "end_time": 31.261363636363633,
                "pitch": 74,
                "velocity": 101,
                "duration": 0.09318181818181515,
                "tempo": 120.0
            },
            {
                "start_time": 31.270454545454545,
                "end_time": 31.363636363636363,
                "pitch": 70,
                "velocity": 101,
                "duration": 0.0931818181818187,
                "tempo": 120.0
            },
            {
                "start_time": 31.37272727272727,
                "end_time": 31.474999999999998,
                "pitch": 70,
                "velocity": 101,
                "duration": 0.10227272727272663,
                "tempo": 120.0
            },
            {
                "start_time": 31.474999999999998,
                "end_time": 31.597727272727273,
                "pitch": 65,
                "velocity": 101,
                "duration": 0.1227272727272748,
                "tempo": 120.0
            },
            {
                "start_time": 31.597727272727273,
                "end_time": 31.690909090909088,
                "pitch": 65,
                "velocity": 101,
                "duration": 0.09318181818181515,
                "tempo": 120.0
            },
            {
                "start_time": 31.690909090909088,
                "end_time": 31.78181818181818,
                "pitch": 64,
                "velocity": 101,
                "duration": 0.09090909090909349,
                "tempo": 120.0
            },
            {
                "start_time": 31.78181818181818,
                "end_time": 31.875,
                "pitch": 64,
                "velocity": 101,
                "duration": 0.0931818181818187,
                "tempo": 120.0
            },
            {
                "start_time": 31.875,
                "end_time": 31.977272727272727,
                "pitch": 62,
                "velocity": 101,
                "duration": 0.10227272727272663,
                "tempo": 120.0
            },
            {
                "start_time": 31.977272727272727,
                "end_time": 32.10681818181818,
                "pitch": 62,
                "velocity": 101,
                "duration": 0.1295454545454504,
                "tempo": 120.0
            },
            {
                "start_time": 32.10681818181818,
                "end_time": 32.20681818181818,
                "pitch": 60,
                "velocity": 101,
                "duration": 0.10000000000000142,
                "tempo": 120.0
            },
            {
                "start_time": 32.20681818181818,
                "end_time": 32.30681818181818,
                "pitch": 60,
                "velocity": 101,
                "duration": 0.10000000000000142,
                "tempo": 120.0
            },
            {
                "start_time": 32.30681818181818,
                "end_time": 32.40909090909091,
                "pitch": 74,
                "velocity": 101,
                "duration": 0.10227272727272663,
                "tempo": 120.0
            },
            {
                "start_time": 32.40909090909091,
                "end_time": 32.513636363636365,
                "pitch": 74,
                "velocity": 101,
                "duration": 0.10454545454545894,
                "tempo": 120.0
            },
            {
                "start_time": 32.513636363636365,
                "end_time": 32.65681818181818,
                "pitch": 76,
                "velocity": 101,
                "duration": 0.14318181818181586,
                "tempo": 120.0
            },
            {
                "start_time": 32.65681818181818,
                "end_time": 32.75909090909091,
                "pitch": 76,
                "velocity": 101,
                "duration": 0.10227272727272663,
                "tempo": 120.0
            },
            {
                "start_time": 32.75909090909091,
                "end_time": 32.85909090909091,
                "pitch": 77,
                "velocity": 101,
                "duration": 0.10000000000000142,
                "tempo": 120.0
            },
            {
                "start_time": 32.85909090909091,
                "end_time": 32.95909090909091,
                "pitch": 77,
                "velocity": 101,
                "duration": 0.10000000000000142,
                "tempo": 120.0
            },
            {
                "start_time": 32.95909090909091,
                "end_time": 33.059090909090905,
                "pitch": 74,
                "velocity": 101,
                "duration": 0.09999999999999432,
                "tempo": 120.0
            },
            {
                "start_time": 33.059090909090905,
                "end_time": 33.19090909090909,
                "pitch": 74,
                "velocity": 101,
                "duration": 0.13181818181818272,
                "tempo": 120.0
            },
            {
                "start_time": 33.19090909090909,
                "end_time": 33.29090909090909,
                "pitch": 81,
                "velocity": 101,
                "duration": 0.10000000000000142,
                "tempo": 120.0
            },
            {
                "start_time": 33.29090909090909,
                "end_time": 33.39090909090909,
                "pitch": 81,
                "velocity": 101,
                "duration": 0.10000000000000142,
                "tempo": 120.0
            },
            {
                "start_time": 33.39090909090909,
                "end_time": 33.49090909090909,
                "pitch": 79,
                "velocity": 101,
                "duration": 0.10000000000000142,
                "tempo": 120.0
            },
            {
                "start_time": 33.49090909090909,
                "end_time": 33.59318181818182,
                "pitch": 79,
                "velocity": 101,
                "duration": 0.10227272727272663,
                "tempo": 120.0
            },
            {
                "start_time": 33.59318181818182,
                "end_time": 33.71363636363636,
                "pitch": 77,
                "velocity": 101,
                "duration": 0.12045454545454248,
                "tempo": 120.0
            },
            {
                "start_time": 33.71363636363636,
                "end_time": 33.80681818181818,
                "pitch": 77,
                "velocity": 101,
                "duration": 0.0931818181818187,
                "tempo": 120.0
            },
            {
                "start_time": 33.80681818181818,
                "end_time": 33.9,
                "pitch": 76,
                "velocity": 101,
                "duration": 0.0931818181818187,
                "tempo": 120.0
            },
            {
                "start_time": 33.9,
                "end_time": 33.99318181818182,
                "pitch": 76,
                "velocity": 101,
                "duration": 0.0931818181818187,
                "tempo": 120.0
            },
            {
                "start_time": 33.99318181818182,
                "end_time": 34.09318181818182,
                "pitch": 74,
                "velocity": 101,
                "duration": 0.10000000000000142,
                "tempo": 120.0
            },
            {
                "start_time": 34.09318181818182,
                "end_time": 34.23863636363636,
                "pitch": 74,
                "velocity": 101,
                "duration": 0.14545454545454106,
                "tempo": 120.0
            },
            {
                "start_time": 34.23863636363636,
                "end_time": 34.340909090909086,
                "pitch": 76,
                "velocity": 101,
                "duration": 0.10227272727272663,
                "tempo": 120.0
            },
            {
                "start_time": 34.340909090909086,
                "end_time": 34.44318181818181,
                "pitch": 76,
                "velocity": 101,
                "duration": 0.10227272727272663,
                "tempo": 120.0
            },
            {
                "start_time": 34.44318181818181,
                "end_time": 34.543181818181814,
                "pitch": 77,
                "velocity": 101,
                "duration": 0.10000000000000142,
                "tempo": 120.0
            },
            {
                "start_time": 34.543181818181814,
                "end_time": 34.643181818181816,
                "pitch": 77,
                "velocity": 101,
                "duration": 0.10000000000000142,
                "tempo": 120.0
            },
            {
                "start_time": 34.643181818181816,
                "end_time": 34.775,
                "pitch": 74,
                "velocity": 101,
                "duration": 0.13181818181818272,
                "tempo": 120.0
            },
            {
                "start_time": 34.775,
                "end_time": 34.875,
                "pitch": 74,
                "velocity": 101,
                "duration": 0.10000000000000142,
                "tempo": 120.0
            },
            {
                "start_time": 34.875,
                "end_time": 34.975,
                "pitch": 79,
                "velocity": 101,
                "duration": 0.10000000000000142,
                "tempo": 120.0
            },
            {
                "start_time": 34.975,
                "end_time": 35.074999999999996,
                "pitch": 79,
                "velocity": 101,
                "duration": 0.09999999999999432,
                "tempo": 120.0
            },
            {
                "start_time": 35.074999999999996,
                "end_time": 35.175,
                "pitch": 77,
                "velocity": 101,
                "duration": 0.10000000000000142,
                "tempo": 120.0
            },
            {
                "start_time": 35.175,
                "end_time": 35.30681818181818,
                "pitch": 77,
                "velocity": 101,
                "duration": 0.13181818181818272,
                "tempo": 120.0
            },
            {
                "start_time": 35.30681818181818,
                "end_time": 35.40681818181818,
                "pitch": 76,
                "velocity": 101,
                "duration": 0.10000000000000142,
                "tempo": 120.0
            },
            {
                "start_time": 35.40681818181818,
                "end_time": 35.50681818181818,
                "pitch": 76,
                "velocity": 101,
                "duration": 0.10000000000000142,
                "tempo": 120.0
            },
            {
                "start_time": 35.50681818181818,
                "end_time": 35.60681818181818,
                "pitch": 77,
                "velocity": 101,
                "duration": 0.09999999999999432,
                "tempo": 120.0
            },
            {
                "start_time": 35.60681818181818,
                "end_time": 35.70681818181818,
                "pitch": 77,
                "velocity": 101,
                "duration": 0.10000000000000142,
                "tempo": 120.0
            },
            {
                "start_time": 35.70681818181818,
                "end_time": 35.84318181818182,
                "pitch": 72,
                "velocity": 101,
                "duration": 0.13636363636364024,
                "tempo": 120.0
            },
            {
                "start_time": 35.84318181818182,
                "end_time": 35.93863636363636,
                "pitch": 72,
                "velocity": 101,
                "duration": 0.0954545454545439,
                "tempo": 120.0
            },
            {
                "start_time": 35.93863636363636,
                "end_time": 36.03409090909091,
                "pitch": 74,
                "velocity": 101,
                "duration": 0.0954545454545439,
                "tempo": 120.0
            },
            {
                "start_time": 36.03409090909091,
                "end_time": 36.12954545454545,
                "pitch": 74,
                "velocity": 101,
                "duration": 0.0954545454545439,
                "tempo": 120.0
            },
            {
                "start_time": 36.12954545454545,
                "end_time": 36.22954545454545,
                "pitch": 76,
                "velocity": 101,
                "duration": 0.10000000000000142,
                "tempo": 120.0
            },
            {
                "start_time": 36.22954545454545,
                "end_time": 36.35909090909091,
                "pitch": 76,
                "velocity": 101,
                "duration": 0.12954545454545752,
                "tempo": 120.0
            },
            {
                "start_time": 36.35909090909091,
                "end_time": 36.461363636363636,
                "pitch": 72,
                "velocity": 101,
                "duration": 0.10227272727272663,
                "tempo": 120.0
            },
            {
                "start_time": 36.461363636363636,
                "end_time": 36.56136363636364,
                "pitch": 72,
                "velocity": 101,
                "duration": 0.10000000000000142,
                "tempo": 120.0
            },
            {
                "start_time": 36.56136363636364,
                "end_time": 36.66136363636363,
                "pitch": 77,
                "velocity": 101,
                "duration": 0.09999999999999432,
                "tempo": 120.0
            },
            {
                "start_time": 36.66136363636363,
                "end_time": 36.76136363636363,
                "pitch": 77,
                "velocity": 101,
                "duration": 0.10000000000000142,
                "tempo": 120.0
            },
            {
                "start_time": 36.76136363636363,
                "end_time": 36.893181818181816,
                "pitch": 76,
                "velocity": 101,
                "duration": 0.13181818181818272,
                "tempo": 120.0
            },
            {
                "start_time": 36.893181818181816,
                "end_time": 36.99318181818182,
                "pitch": 76,
                "velocity": 101,
                "duration": 0.10000000000000142,
                "tempo": 120.0
            },
            {
                "start_time": 36.99318181818182,
                "end_time": 37.09318181818182,
                "pitch": 74,
                "velocity": 101,
                "duration": 0.10000000000000142,
                "tempo": 120.0
            },
            {
                "start_time": 37.09318181818182,
                "end_time": 37.19318181818181,
                "pitch": 74,
                "velocity": 101,
                "duration": 0.09999999999999432,
                "tempo": 120.0
            },
            {
                "start_time": 37.19318181818181,
                "end_time": 37.293181818181814,
                "pitch": 72,
                "velocity": 101,
                "duration": 0.10000000000000142,
                "tempo": 120.0
            },
            {
                "start_time": 37.293181818181814,
                "end_time": 37.434090909090905,
                "pitch": 72,
                "velocity": 101,
                "duration": 0.14090909090909065,
                "tempo": 120.0
            },
            {
                "start_time": 37.434090909090905,
                "end_time": 37.53636363636363,
                "pitch": 74,
                "velocity": 101,
                "duration": 0.10227272727272663,
                "tempo": 120.0
            },
            {
                "start_time": 37.53636363636363,
                "end_time": 37.63863636363636,
                "pitch": 74,
                "velocity": 101,
                "duration": 0.10227272727272663,
                "tempo": 120.0
            },
            {
                "start_time": 37.63863636363636,
                "end_time": 37.74318181818182,
                "pitch": 76,
                "velocity": 101,
                "duration": 0.10454545454545894,
                "tempo": 120.0
            },
            {
                "start_time": 37.74318181818182,
                "end_time": 37.845454545454544,
                "pitch": 76,
                "velocity": 101,
                "duration": 0.10227272727272663,
                "tempo": 120.0
            },
            {
                "start_time": 37.845454545454544,
                "end_time": 37.965909090909086,
                "pitch": 77,
                "velocity": 101,
                "duration": 0.12045454545454248,
                "tempo": 120.0
            },
            {
                "start_time": 37.965909090909086,
                "end_time": 38.059090909090905,
                "pitch": 77,
                "velocity": 101,
                "duration": 0.0931818181818187,
                "tempo": 120.0
            },
            {
                "start_time": 38.059090909090905,
                "end_time": 38.152272727272724,
                "pitch": 74,
                "velocity": 101,
                "duration": 0.0931818181818187,
                "tempo": 120.0
            },
            {
                "start_time": 38.152272727272724,
                "end_time": 38.24545454545454,
                "pitch": 74,
                "velocity": 101,
                "duration": 0.0931818181818187,
                "tempo": 120.0
            },
            {
                "start_time": 38.24545454545454,
                "end_time": 38.345454545454544,
                "pitch": 79,
                "velocity": 101,
                "duration": 0.10000000000000142,
                "tempo": 120.0
            },
            {
                "start_time": 38.345454545454544,
                "end_time": 38.475,
                "pitch": 79,
                "velocity": 101,
                "duration": 0.12954545454545752,
                "tempo": 120.0
            },
            {
                "start_time": 38.475,
                "end_time": 38.574999999999996,
                "pitch": 77,
                "velocity": 101,
                "duration": 0.09999999999999432,
                "tempo": 120.0
            },
            {
                "start_time": 38.574999999999996,
                "end_time": 38.67727272727272,
                "pitch": 77,
                "velocity": 101,
                "duration": 0.10227272727272663,
                "tempo": 120.0
            },
            {
                "start_time": 38.67727272727272,
                "end_time": 38.779545454545456,
                "pitch": 76,
                "velocity": 101,
                "duration": 0.10227272727273373,
                "tempo": 120.0
            },
            {
                "start_time": 38.779545454545456,
                "end_time": 38.88181818181818,
                "pitch": 76,
                "velocity": 101,
                "duration": 0.10227272727272663,
                "tempo": 120.0
            },
            {
                "start_time": 38.88181818181818,
                "end_time": 39.025,
                "pitch": 74,
                "velocity": 101,
                "duration": 0.14318181818181586,
                "tempo": 120.0
            },
            {
                "start_time": 39.025,
                "end_time": 39.127272727272725,
                "pitch": 74,
                "velocity": 101,
                "duration": 0.10227272727272663,
                "tempo": 120.0
            },
            {
                "start_time": 39.127272727272725,
                "end_time": 39.22727272727273,
                "pitch": 76,
                "velocity": 101,
                "duration": 0.10000000000000142,
                "tempo": 120.0
            },
            {
                "start_time": 39.22727272727273,
                "end_time": 39.32954545454545,
                "pitch": 76,
                "velocity": 101,
                "duration": 0.10227272727272663,
                "tempo": 120.0
            },
            {
                "start_time": 39.32954545454545,
                "end_time": 39.429545454545455,
                "pitch": 77,
                "velocity": 101,
                "duration": 0.10000000000000142,
                "tempo": 120.0
            },
            {
                "start_time": 39.429545454545455,
                "end_time": 39.559090909090905,
                "pitch": 77,
                "velocity": 101,
                "duration": 0.1295454545454504,
                "tempo": 120.0
            },
            {
                "start_time": 39.559090909090905,
                "end_time": 39.65909090909091,
                "pitch": 79,
                "velocity": 101,
                "duration": 0.10000000000000142,
                "tempo": 120.0
            },
            {
                "start_time": 39.65909090909091,
                "end_time": 39.76136363636363,
                "pitch": 79,
                "velocity": 101,
                "duration": 0.10227272727272663,
                "tempo": 120.0
            },
            {
                "start_time": 39.76136363636363,
                "end_time": 39.861363636363635,
                "pitch": 76,
                "velocity": 101,
                "duration": 0.10000000000000142,
                "tempo": 120.0
            },
            {
                "start_time": 39.861363636363635,
                "end_time": 39.961363636363636,
                "pitch": 76,
                "velocity": 101,
                "duration": 0.10000000000000142,
                "tempo": 120.0
            },
            {
                "start_time": 39.961363636363636,
                "end_time": 40.08181818181818,
                "pitch": 81,
                "velocity": 101,
                "duration": 0.12045454545454248,
                "tempo": 120.0
            },
            {
                "start_time": 40.08181818181818,
                "end_time": 40.175,
                "pitch": 81,
                "velocity": 101,
                "duration": 0.0931818181818187,
                "tempo": 120.0
            },
            {
                "start_time": 40.175,
                "end_time": 40.268181818181816,
                "pitch": 79,
                "velocity": 101,
                "duration": 0.0931818181818187,
                "tempo": 120.0
            },
            {
                "start_time": 40.268181818181816,
                "end_time": 40.361363636363635,
                "pitch": 79,
                "velocity": 101,
                "duration": 0.0931818181818187,
                "tempo": 120.0
            },
            {
                "start_time": 40.361363636363635,
                "end_time": 40.461363636363636,
                "pitch": 77,
                "velocity": 101,
                "duration": 0.10000000000000142,
                "tempo": 120.0
            },
            {
                "start_time": 40.461363636363636,
                "end_time": 40.60227272727273,
                "pitch": 77,
                "velocity": 101,
                "duration": 0.14090909090909065,
                "tempo": 120.0
            },
            {
                "start_time": 40.60227272727273,
                "end_time": 40.70227272727273,
                "pitch": 76,
                "velocity": 101,
                "duration": 0.10000000000000142,
                "tempo": 120.0
            },
            {
                "start_time": 40.70227272727273,
                "end_time": 40.80227272727272,
                "pitch": 76,
                "velocity": 101,
                "duration": 0.09999999999999432,
                "tempo": 120.0
            },
            {
                "start_time": 40.80227272727272,
                "end_time": 40.904545454545456,
                "pitch": 81,
                "velocity": 101,
                "duration": 0.10227272727273373,
                "tempo": 120.0
            },
            {
                "start_time": 40.904545454545456,
                "end_time": 41.00909090909091,
                "pitch": 81,
                "velocity": 101,
                "duration": 0.10454545454545183,
                "tempo": 120.0
            },
            {
                "start_time": 41.00909090909091,
                "end_time": 41.14090909090909,
                "pitch": 77,
                "velocity": 101,
                "duration": 0.13181818181818272,
                "tempo": 120.0
            },
            {
                "start_time": 41.14090909090909,
                "end_time": 41.24318181818182,
                "pitch": 77,
                "velocity": 101,
                "duration": 0.10227272727272663,
                "tempo": 120.0
            }
        ]
    }
}