{
    "track_id": "07 - Game de check! Koutsuu Anzen (FM) - You_re The Best Driver",
    "mood": "happy",
    "instruments": {
        "Clarinet": [
            {
                "start_time": 0.0,
                "end_time": 0.33409090909090905,
                "pitch": 79,
                "velocity": 40,
                "duration": 0.33409090909090905,
                "tempo": 120.0
            },
            {
                "start_time": 0.35,
                "end_time": 0.634090909090909,
                "pitch": 79,
                "velocity": 40,
                "duration": 0.28409090909090906,
                "tempo": 120.0
            },
            {
                "start_time": 0.65,
                "end_time": 0.9340909090909091,
                "pitch": 79,
                "velocity": 40,
                "duration": 0.28409090909090906,
                "tempo": 120.0
            },
            {
                "start_time": 0.9522727272727273,
                "end_time": 1.2340909090909091,
                "pitch": 79,
                "velocity": 40,
                "duration": 0.28181818181818186,
                "tempo": 120.0
            },
            {
                "start_time": 1.2522727272727272,
                "end_time": 1.384090909090909,
                "pitch": 79,
                "velocity": 40,
                "duration": 0.13181818181818183,
                "tempo": 120.0
            },
            {
                "start_time": 1.4022727272727271,
                "end_time": 1.534090909090909,
                "pitch": 79,
                "velocity": 40,
                "duration": 0.13181818181818183,
                "tempo": 120.0
            },
            {
                "start_time": 1.5522727272727272,
                "end_time": 1.690909090909091,
                "pitch": 79,
                "velocity": 40,
                "duration": 0.13863636363636367,
                "tempo": 120.0
            },
            {
                "start_time": 1.7068181818181818,
                "end_time": 2.436363636363636,
                "pitch": 79,
                "velocity": 40,
                "duration": 0.7295454545454543,
                "tempo": 120.0
            },
            {
                "start_time": 2.452272727272727,
                "end_time": 2.7386363636363633,
                "pitch": 80,
                "velocity": 40,
                "duration": 0.28636363636363615,
                "tempo": 120.0
            },
            {
                "start_time": 2.7545454545454544,
                "end_time": 3.0477272727272724,
                "pitch": 80,
                "velocity": 40,
                "duration": 0.293181818181818,
                "tempo": 120.0
            },
            {
                "start_time": 3.065909090909091,
                "end_time": 3.340909090909091,
                "pitch": 80,
                "velocity": 40,
                "duration": 0.2749999999999999,
                "tempo": 120.0
            },
            {
                "start_time": 3.3568181818181815,
                "end_time": 3.6409090909090907,
                "pitch": 80,
                "velocity": 40,
                "duration": 0.28409090909090917,
                "tempo": 120.0
            },
            {
                "start_time": 3.6568181818181817,
                "end_time": 3.7909090909090906,
                "pitch": 82,
                "velocity": 40,
                "duration": 0.13409090909090882,
                "tempo": 120.0
            },
            {
                "start_time": 3.8068181818181817,
                "end_time": 3.940909090909091,
                "pitch": 80,
                "velocity": 40,
                "duration": 0.13409090909090926,
                "tempo": 120.0
            },
            {
                "start_time": 3.9568181818181816,
                "end_time": 4.090909090909091,
                "pitch": 79,
                "velocity": 40,
                "duration": 0.13409090909090926,
                "tempo": 120.0
            },
            {
                "start_time": 4.1068181818181815,
                "end_time": 4.843181818181818,
                "pitch": 80,
                "velocity": 40,
                "duration": 0.7363636363636363,
                "tempo": 120.0
            },
            {
                "start_time": 4.8590909090909085,
                "end_time": 5.143181818181818,
                "pitch": 79,
                "velocity": 40,
                "duration": 0.28409090909090917,
                "tempo": 120.0
            },
            {
                "start_time": 5.159090909090909,
                "end_time": 5.443181818181818,
                "pitch": 79,
                "velocity": 40,
                "duration": 0.28409090909090917,
                "tempo": 120.0
            },
            {
                "start_time": 5.459090909090909,
                "end_time": 5.743181818181818,
                "pitch": 79,
                "velocity": 40,
                "duration": 0.28409090909090917,
                "tempo": 120.0
            },
            {
                "start_time": 5.759090909090909,
                "end_time": 6.045454545454545,
                "pitch": 79,
                "velocity": 40,
                "duration": 0.28636363636363615,
                "tempo": 120.0
            },
            {
                "start_time": 6.0613636363636365,
                "end_time": 6.195454545454545,
                "pitch": 79,
                "velocity": 40,
                "duration": 0.13409090909090882,
                "tempo": 120.0
            },
            {
                "start_time": 6.211363636363636,
                "end_time": 6.345454545454545,
                "pitch": 79,
                "velocity": 40,
                "duration": 0.13409090909090882,
                "tempo": 120.0
            },
            {
                "start_time": 6.361363636363636,
                "end_time": 6.495454545454545,
                "pitch": 79,
                "velocity": 40,
                "duration": 0.13409090909090882,
                "tempo": 120.0
            },
            {
                "start_time": 6.511363636363636,
                "end_time": 7.245454545454545,
                "pitch": 79,
                "velocity": 40,
                "duration": 0.7340909090909093,
                "tempo": 120.0
            },
            {
                "start_time": 7.261363636363636,
                "end_time": 7.3954545454545455,
                "pitch": 80,
                "velocity": 40,
                "duration": 0.1340909090909097,
                "tempo": 120.0
            },
            {
                "start_time": 7.411363636363636,
                "end_time": 7.445454545454545,
                "pitch": 80,
                "velocity": 40,
                "duration": 0.03409090909090917,
                "tempo": 120.0
            },
            {
                "start_time": 8.013636363636364,
                "end_time": 8.145454545454545,
                "pitch": 80,
                "velocity": 40,
                "duration": 0.13181818181818095,
                "tempo": 120.0
            },
            {
                "start_time": 8.163636363636364,
                "end_time": 8.197727272727272,
                "pitch": 80,
                "velocity": 40,
                "duration": 0.034090909090908283,
                "tempo": 120.0
            },
            {
                "start_time": 8.763636363636364,
                "end_time": 9.059090909090909,
                "pitch": 82,
                "velocity": 40,
                "duration": 0.29545454545454497,
                "tempo": 120.0
            },
            {
                "start_time": 9.075,
                "end_time": 9.35,
                "pitch": 82,
                "velocity": 40,
                "duration": 0.27500000000000036,
                "tempo": 120.0
            },
            {
                "start_time": 9.36590909090909,
                "end_time": 9.65,
                "pitch": 82,
                "velocity": 40,
                "duration": 0.28409090909091006,
                "tempo": 120.0
            },
            {
                "start_time": 9.668181818181818,
                "end_time": 9.802272727272726,
                "pitch": 79,
                "velocity": 40,
                "duration": 0.13409090909090793,
                "tempo": 120.0
            },
            {
                "start_time": 9.818181818181818,
                "end_time": 9.952272727272726,
                "pitch": 79,
                "velocity": 40,
                "duration": 0.13409090909090793,
                "tempo": 120.0
            },
            {
                "start_time": 9.968181818181817,
                "end_time": 10.102272727272727,
                "pitch": 75,
                "velocity": 40,
                "duration": 0.1340909090909097,
                "tempo": 120.0
            },
            {
                "start_time": 10.118181818181817,
                "end_time": 10.252272727272727,
                "pitch": 75,
                "velocity": 40,
                "duration": 0.1340909090909097,
                "tempo": 120.0
            },
            {
                "start_time": 10.268181818181818,
                "end_time": 10.402272727272727,
                "pitch": 70,
                "velocity": 40,
                "duration": 0.1340909090909097,
                "tempo": 120.0
            },
            {
                "start_time": 10.420454545454545,
                "end_time": 10.554545454545455,
                "pitch": 70,
                "velocity": 40,
                "duration": 0.1340909090909097,
                "tempo": 120.0
            },
            {
                "start_time": 10.570454545454545,
                "end_time": 10.704545454545453,
                "pitch": 75,
                "velocity": 40,
                "duration": 0.13409090909090793,
                "tempo": 120.0
            },
            {
                "start_time": 10.720454545454546,
                "end_time": 10.854545454545454,
                "pitch": 75,
                "velocity": 40,
                "duration": 0.13409090909090793,
                "tempo": 120.0
            },
            {
                "start_time": 10.870454545454544,
                "end_time": 11.004545454545454,
                "pitch": 79,
                "velocity": 40,
                "duration": 0.1340909090909097,
                "tempo": 120.0
            },
            {
                "start_time": 11.020454545454545,
                "end_time": 11.154545454545454,
                "pitch": 79,
                "velocity": 40,
                "duration": 0.1340909090909097,
                "tempo": 120.0
            },
            {
                "start_time": 11.172727272727272,
                "end_time": 11.306818181818182,
                "pitch": 75,
                "velocity": 40,
                "duration": 0.1340909090909097,
                "tempo": 120.0
            },
            {
                "start_time": 11.322727272727272,
                "end_time": 11.456818181818182,
                "pitch": 75,
                "velocity": 40,
                "duration": 0.1340909090909097,
                "tempo": 120.0
            },
            {
                "start_time": 11.472727272727273,
                "end_time": 11.60681818181818,
                "pitch": 70,
                "velocity": 40,
                "duration": 0.13409090909090793,
                "tempo": 120.0
            },
            {
                "start_time": 11.622727272727273,
                "end_time": 11.756818181818181,
                "pitch": 70,
                "velocity": 40,
                "duration": 0.13409090909090793,
                "tempo": 120.0
            },
            {
                "start_time": 11.772727272727272,
                "end_time": 11.906818181818181,
                "pitch": 75,
                "velocity": 40,
                "duration": 0.1340909090909097,
                "tempo": 120.0
            },
            {
                "start_time": 11.924999999999999,
                "end_time": 12.059090909090909,
                "pitch": 75,
                "velocity": 40,
                "duration": 0.1340909090909097,
                "tempo": 120.0
            },
            {
                "start_time": 12.075,
                "end_time": 12.209090909090909,
                "pitch": 77,
                "velocity": 40,
                "duration": 0.1340909090909097,
                "tempo": 120.0
            },
            {
                "start_time": 12.225,
                "end_time": 12.35909090909091,
                "pitch": 77,
                "velocity": 40,
                "duration": 0.1340909090909097,
                "tempo": 120.0
            },
            {
                "start_time": 12.375,
                "end_time": 12.509090909090908,
                "pitch": 74,
                "velocity": 40,
                "duration": 0.13409090909090793,
                "tempo": 120.0
            },
            {
                "start_time": 12.524999999999999,
                "end_time": 12.659090909090908,
                "pitch": 74,
                "velocity": 40,
                "duration": 0.1340909090909097,
                "tempo": 120.0
            },
            {
                "start_time": 12.677272727272726,
                "end_time": 12.81590909090909,
                "pitch": 70,
                "velocity": 40,
                "duration": 0.13863636363636367,
                "tempo": 120.0
            },
            {
                "start_time": 12.831818181818182,
                "end_time": 12.970454545454546,
                "pitch": 70,
                "velocity": 40,
                "duration": 0.13863636363636367,
                "tempo": 120.0
            },
            {
                "start_time": 12.986363636363636,
                "end_time": 13.120454545454544,
                "pitch": 74,
                "velocity": 40,
                "duration": 0.13409090909090793,
                "tempo": 120.0
            },
            {
                "start_time": 13.136363636363635,
                "end_time": 13.270454545454545,
                "pitch": 74,
                "velocity": 40,
                "duration": 0.1340909090909097,
                "tempo": 120.0
            },
            {
                "start_time": 13.286363636363635,
                "end_time": 13.415909090909091,
                "pitch": 77,
                "velocity": 40,
                "duration": 0.12954545454545574,
                "tempo": 120.0
            },
            {
                "start_time": 13.431818181818182,
                "end_time": 13.561363636363636,
                "pitch": 77,
                "velocity": 40,
                "duration": 0.12954545454545396,
                "tempo": 120.0
            },
            {
                "start_time": 13.579545454545453,
                "end_time": 13.71590909090909,
                "pitch": 80,
                "velocity": 40,
                "duration": 0.1363636363636367,
                "tempo": 120.0
            },
            {
                "start_time": 13.734090909090908,
                "end_time": 13.872727272727271,
                "pitch": 80,
                "velocity": 40,
                "duration": 0.13863636363636367,
                "tempo": 120.0
            },
            {
                "start_time": 13.888636363636364,
                "end_time": 14.018181818181818,
                "pitch": 79,
                "velocity": 40,
                "duration": 0.12954545454545396,
                "tempo": 120.0
            },
            {
                "start_time": 14.034090909090908,
                "end_time": 14.163636363636362,
                "pitch": 79,
                "velocity": 40,
                "duration": 0.12954545454545396,
                "tempo": 120.0
            },
            {
                "start_time": 14.179545454545455,
                "end_time": 14.313636363636363,
                "pitch": 77,
                "velocity": 40,
                "duration": 0.13409090909090793,
                "tempo": 120.0
            },
            {
                "start_time": 14.33181818181818,
                "end_time": 14.46590909090909,
                "pitch": 77,
                "velocity": 40,
                "duration": 0.1340909090909097,
                "tempo": 120.0
            },
            {
                "start_time": 14.48181818181818,
                "end_time": 14.61590909090909,
                "pitch": 77,
                "velocity": 40,
                "duration": 0.1340909090909097,
                "tempo": 120.0
            },
            {
                "start_time": 14.631818181818181,
                "end_time": 14.76590909090909,
                "pitch": 77,
                "velocity": 40,
                "duration": 0.1340909090909097,
                "tempo": 120.0
            },
            {
                "start_time": 14.781818181818181,
                "end_time": 14.915909090909091,
                "pitch": 75,
                "velocity": 40,
                "duration": 0.1340909090909097,
                "tempo": 120.0
            },
            {
                "start_time": 14.931818181818182,
                "end_time": 15.06590909090909,
                "pitch": 75,
                "velocity": 40,
                "duration": 0.13409090909090793,
                "tempo": 120.0
            },
            {
                "start_time": 15.084090909090909,
                "end_time": 15.21590909090909,
                "pitch": 74,
                "velocity": 40,
                "duration": 0.13181818181818095,
                "tempo": 120.0
            },
            {
                "start_time": 15.234090909090908,
                "end_time": 15.36590909090909,
                "pitch": 74,
                "velocity": 40,
                "duration": 0.13181818181818272,
                "tempo": 120.0
            },
            {
                "start_time": 15.384090909090908,
                "end_time": 15.518181818181818,
                "pitch": 72,
                "velocity": 40,
                "duration": 0.1340909090909097,
                "tempo": 120.0
            },
            {
                "start_time": 15.534090909090908,
                "end_time": 15.668181818181818,
                "pitch": 72,
                "velocity": 40,
                "duration": 0.1340909090909097,
                "tempo": 120.0
            },
            {
                "start_time": 15.684090909090909,
                "end_time": 15.818181818181817,
                "pitch": 77,
                "velocity": 40,
                "duration": 0.13409090909090793,
                "tempo": 120.0
            },
            {
                "start_time": 15.836363636363636,
                "end_time": 15.970454545454544,
                "pitch": 77,
                "velocity": 40,
                "duration": 0.13409090909090793,
                "tempo": 120.0
            },
            {
                "start_time": 15.986363636363636,
                "end_time": 16.120454545454546,
                "pitch": 75,
                "velocity": 40,
                "duration": 0.1340909090909097,
                "tempo": 120.0
            },
            {
                "start_time": 16.136363636363637,
                "end_time": 16.270454545454545,
                "pitch": 75,
                "velocity": 40,
                "duration": 0.13409090909090793,
                "tempo": 120.0
            },
            {
                "start_time": 16.286363636363635,
                "end_time": 16.420454545454543,
                "pitch": 74,
                "velocity": 40,
                "duration": 0.13409090909090793,
                "tempo": 120.0
            },
            {
                "start_time": 16.436363636363634,
                "end_time": 16.570454545454545,
                "pitch": 74,
                "velocity": 40,
                "duration": 0.13409090909091148,
                "tempo": 120.0
            },
            {
                "start_time": 16.586363636363636,
                "end_time": 16.720454545454544,
                "pitch": 72,
                "velocity": 40,
                "duration": 0.13409090909090793,
                "tempo": 120.0
            },
            {
                "start_time": 16.736363636363635,
                "end_time": 16.870454545454546,
                "pitch": 72,
                "velocity": 40,
                "duration": 0.13409090909091148,
                "tempo": 120.0
            },
            {
                "start_time": 16.888636363636362,
                "end_time": 17.022727272727273,
                "pitch": 70,
                "velocity": 40,
                "duration": 0.13409090909091148,
                "tempo": 120.0
            },
            {
                "start_time": 17.038636363636364,
                "end_time": 17.172727272727272,
                "pitch": 70,
                "velocity": 40,
                "duration": 0.13409090909090793,
                "tempo": 120.0
            },
            {
                "start_time": 17.188636363636363,
                "end_time": 17.327272727272728,
                "pitch": 74,
                "velocity": 40,
                "duration": 0.13863636363636545,
                "tempo": 120.0
            },
            {
                "start_time": 17.345454545454544,
                "end_time": 17.48409090909091,
                "pitch": 74,
                "velocity": 40,
                "duration": 0.13863636363636545,
                "tempo": 120.0
            },
            {
                "start_time": 17.5,
                "end_time": 17.629545454545454,
                "pitch": 77,
                "velocity": 40,
                "duration": 0.12954545454545396,
                "tempo": 120.0
            },
            {
                "start_time": 17.645454545454545,
                "end_time": 17.775,
                "pitch": 77,
                "velocity": 40,
                "duration": 0.12954545454545396,
                "tempo": 120.0
            },
            {
                "start_time": 17.79090909090909,
                "end_time": 17.929545454545455,
                "pitch": 74,
                "velocity": 40,
                "duration": 0.13863636363636545,
                "tempo": 120.0
            },
            {
                "start_time": 17.945454545454545,
                "end_time": 18.084090909090907,
                "pitch": 77,
                "velocity": 40,
                "duration": 0.1386363636363619,
                "tempo": 120.0
            },
            {
                "start_time": 18.099999999999998,
                "end_time": 18.229545454545455,
                "pitch": 72,
                "velocity": 40,
                "duration": 0.12954545454545752,
                "tempo": 120.0
            },
            {
                "start_time": 18.245454545454546,
                "end_time": 18.375,
                "pitch": 72,
                "velocity": 40,
                "duration": 0.12954545454545396,
                "tempo": 120.0
            },
            {
                "start_time": 18.393181818181816,
                "end_time": 18.527272727272727,
                "pitch": 77,
                "velocity": 40,
                "duration": 0.13409090909091148,
                "tempo": 120.0
            },
            {
                "start_time": 18.543181818181818,
                "end_time": 18.677272727272726,
                "pitch": 77,
                "velocity": 40,
                "duration": 0.13409090909090793,
                "tempo": 120.0
            },
            {
                "start_time": 18.693181818181817,
                "end_time": 18.827272727272728,
                "pitch": 80,
                "velocity": 40,
                "duration": 0.13409090909091148,
                "tempo": 120.0
            },
            {
                "start_time": 18.845454545454544,
                "end_time": 18.979545454545455,
                "pitch": 80,
                "velocity": 40,
                "duration": 0.13409090909091148,
                "tempo": 120.0
            },
            {
                "start_time": 18.995454545454546,
                "end_time": 19.129545454545454,
                "pitch": 79,
                "velocity": 40,
                "duration": 0.13409090909090793,
                "tempo": 120.0
            },
            {
                "start_time": 19.145454545454545,
                "end_time": 19.279545454545453,
                "pitch": 77,
                "velocity": 40,
                "duration": 0.13409090909090793,
                "tempo": 120.0
            },
            {
                "start_time": 19.297727272727272,
                "end_time": 19.429545454545455,
                "pitch": 79,
                "velocity": 40,
                "duration": 0.13181818181818272,
                "tempo": 120.0
            },
            {
                "start_time": 19.44772727272727,
                "end_time": 19.579545454545453,
                "pitch": 79,
                "velocity": 40,
                "duration": 0.13181818181818272,
                "tempo": 120.0
            },
            {
                "start_time": 19.597727272727273,
                "end_time": 19.73181818181818,
                "pitch": 75,
                "velocity": 40,
                "duration": 0.13409090909090793,
                "tempo": 120.0
            },
            {
                "start_time": 19.74772727272727,
                "end_time": 19.88181818181818,
                "pitch": 75,
                "velocity": 40,
                "duration": 0.13409090909090793,
                "tempo": 120.0
            },
            {
                "start_time": 19.897727272727273,
                "end_time": 20.03181818181818,
                "pitch": 70,
                "velocity": 40,
                "duration": 0.13409090909090793,
                "tempo": 120.0
            },
            {
                "start_time": 20.05,
                "end_time": 20.18409090909091,
                "pitch": 70,
                "velocity": 40,
                "duration": 0.13409090909090793,
                "tempo": 120.0
            },
            {
                "start_time": 20.2,
                "end_time": 20.334090909090907,
                "pitch": 75,
                "velocity": 40,
                "duration": 0.13409090909090793,
                "tempo": 120.0
            },
            {
                "start_time": 20.349999999999998,
                "end_time": 20.48409090909091,
                "pitch": 75,
                "velocity": 40,
                "duration": 0.13409090909091148,
                "tempo": 120.0
            },
            {
                "start_time": 20.502272727272725,
                "end_time": 20.636363636363637,
                "pitch": 79,
                "velocity": 40,
                "duration": 0.13409090909091148,
                "tempo": 120.0
            },
            {
                "start_time": 20.652272727272727,
                "end_time": 20.786363636363635,
                "pitch": 79,
                "velocity": 40,
                "duration": 0.13409090909090793,
                "tempo": 120.0
            },
            {
                "start_time": 20.802272727272726,
                "end_time": 20.936363636363634,
                "pitch": 75,
                "velocity": 40,
                "duration": 0.13409090909090793,
                "tempo": 120.0
            },
            {
                "start_time": 20.952272727272724,
                "end_time": 21.086363636363636,
                "pitch": 75,
                "velocity": 40,
                "duration": 0.13409090909091148,
                "tempo": 120.0
            },
            {
                "start_time": 21.102272727272727,
                "end_time": 21.24090909090909,
                "pitch": 70,
                "velocity": 40,
                "duration": 0.1386363636363619,
                "tempo": 120.0
            },
            {
                "start_time": 21.259090909090908,
                "end_time": 21.397727272727273,
                "pitch": 70,
                "velocity": 40,
                "duration": 0.13863636363636545,
                "tempo": 120.0
            },
            {
                "start_time": 21.413636363636364,
                "end_time": 21.543181818181818,
                "pitch": 75,
                "velocity": 40,
                "duration": 0.12954545454545396,
                "tempo": 120.0
            },
            {
                "start_time": 21.55909090909091,
                "end_time": 21.688636363636363,
                "pitch": 75,
                "velocity": 40,
                "duration": 0.12954545454545396,
                "tempo": 120.0
            },
            {
                "start_time": 21.704545454545453,
                "end_time": 21.83863636363636,
                "pitch": 77,
                "velocity": 40,
                "duration": 0.13409090909090793,
                "tempo": 120.0
            },
            {
                "start_time": 21.85681818181818,
                "end_time": 21.988636363636363,
                "pitch": 77,
                "velocity": 40,
                "duration": 0.13181818181818272,
                "tempo": 120.0
            },
            {
                "start_time": 22.00681818181818,
                "end_time": 22.14090909090909,
                "pitch": 74,
                "velocity": 40,
                "duration": 0.13409090909091148,
                "tempo": 120.0
            },
            {
                "start_time": 22.15681818181818,
                "end_time": 22.29090909090909,
                "pitch": 74,
                "velocity": 40,
                "duration": 0.13409090909090793,
                "tempo": 120.0
            },
            {
                "start_time": 22.30909090909091,
                "end_time": 22.445454545454545,
                "pitch": 70,
                "velocity": 40,
                "duration": 0.1363636363636367,
                "tempo": 120.0
            },
            {
                "start_time": 22.46363636363636,
                "end_time": 22.602272727272727,
                "pitch": 70,
                "velocity": 40,
                "duration": 0.13863636363636545,
                "tempo": 120.0
            },
            {
                "start_time": 22.618181818181817,
                "end_time": 22.74772727272727,
                "pitch": 74,
                "velocity": 40,
                "duration": 0.12954545454545396,
                "tempo": 120.0
            },
            {
                "start_time": 22.763636363636362,
                "end_time": 22.893181818181816,
                "pitch": 74,
                "velocity": 40,
                "duration": 0.12954545454545396,
                "tempo": 120.0
            },
            {
                "start_time": 22.909090909090907,
                "end_time": 23.043181818181818,
                "pitch": 77,
                "velocity": 40,
                "duration": 0.13409090909091148,
                "tempo": 120.0
            },
            {
                "start_time": 23.061363636363634,
                "end_time": 23.195454545454545,
                "pitch": 77,
                "velocity": 40,
                "duration": 0.13409090909091148,
                "tempo": 120.0
            },
            {
                "start_time": 23.211363636363636,
                "end_time": 23.349999999999998,
                "pitch": 80,
                "velocity": 40,
                "duration": 0.1386363636363619,
                "tempo": 120.0
            },
            {
                "start_time": 23.36590909090909,
                "end_time": 23.504545454545454,
                "pitch": 80,
                "velocity": 40,
                "duration": 0.13863636363636545,
                "tempo": 120.0
            },
            {
                "start_time": 23.52272727272727,
                "end_time": 23.65681818181818,
                "pitch": 79,
                "velocity": 40,
                "duration": 0.13409090909091148,
                "tempo": 120.0
            },
            {
                "start_time": 23.672727272727272,
                "end_time": 23.80681818181818,
                "pitch": 79,
                "velocity": 40,
                "duration": 0.13409090909090793,
                "tempo": 120.0
            },
            {
                "start_time": 23.82272727272727,
                "end_time": 23.952272727272724,
                "pitch": 77,
                "velocity": 40,
                "duration": 0.12954545454545396,
                "tempo": 120.0
            },
            {
                "start_time": 23.96818181818182,
                "end_time": 24.097727272727273,
                "pitch": 77,
                "velocity": 40,
                "duration": 0.12954545454545396,
                "tempo": 120.0
            },
            {
                "start_time": 24.11590909090909,
                "end_time": 24.25,
                "pitch": 70,
                "velocity": 40,
                "duration": 0.13409090909091148,
                "tempo": 120.0
            },
            {
                "start_time": 24.26590909090909,
                "end_time": 24.4,
                "pitch": 70,
                "velocity": 40,
                "duration": 0.13409090909090793,
                "tempo": 120.0
            },
            {
                "start_time": 24.41590909090909,
                "end_time": 24.549999999999997,
                "pitch": 72,
                "velocity": 40,
                "duration": 0.13409090909090793,
                "tempo": 120.0
            },
            {
                "start_time": 24.568181818181817,
                "end_time": 24.702272727272724,
                "pitch": 72,
                "velocity": 40,
                "duration": 0.13409090909090793,
                "tempo": 120.0
            },
            {
                "start_time": 24.71818181818182,
                "end_time": 24.85681818181818,
                "pitch": 74,
                "velocity": 40,
                "duration": 0.1386363636363619,
                "tempo": 120.0
            },
            {
                "start_time": 24.87272727272727,
                "end_time": 25.011363636363637,
                "pitch": 74,
                "velocity": 40,
                "duration": 0.13863636363636545,
                "tempo": 120.0
            },
            {
                "start_time": 25.027272727272727,
                "end_time": 25.15681818181818,
                "pitch": 75,
                "velocity": 40,
                "duration": 0.12954545454545396,
                "tempo": 120.0
            },
            {
                "start_time": 25.172727272727272,
                "end_time": 25.302272727272726,
                "pitch": 75,
                "velocity": 40,
                "duration": 0.12954545454545396,
                "tempo": 120.0
            },
            {
                "start_time": 25.320454545454545,
                "end_time": 25.452272727272724,
                "pitch": 77,
                "velocity": 40,
                "duration": 0.13181818181817917,
                "tempo": 120.0
            },
            {
                "start_time": 25.470454545454544,
                "end_time": 25.602272727272727,
                "pitch": 77,
                "velocity": 40,
                "duration": 0.13181818181818272,
                "tempo": 120.0
            },
            {
                "start_time": 25.620454545454542,
                "end_time": 25.754545454545454,
                "pitch": 75,
                "velocity": 40,
                "duration": 0.13409090909091148,
                "tempo": 120.0
            },
            {
                "start_time": 25.770454545454545,
                "end_time": 25.904545454545453,
                "pitch": 75,
                "velocity": 40,
                "duration": 0.13409090909090793,
                "tempo": 120.0
            },
            {
                "start_time": 25.920454545454543,
                "end_time": 26.054545454545455,
                "pitch": 74,
                "velocity": 40,
                "duration": 0.13409090909091148,
                "tempo": 120.0
            },
            {
                "start_time": 26.07272727272727,
                "end_time": 26.206818181818182,
                "pitch": 74,
                "velocity": 40,
                "duration": 0.13409090909091148,
                "tempo": 120.0
            },
            {
                "start_time": 26.222727272727273,
                "end_time": 26.35681818181818,
                "pitch": 72,
                "velocity": 40,
                "duration": 0.13409090909090793,
                "tempo": 120.0
            },
            {
                "start_time": 26.37272727272727,
                "end_time": 26.50681818181818,
                "pitch": 72,
                "velocity": 40,
                "duration": 0.13409090909090793,
                "tempo": 120.0
            },
            {
                "start_time": 26.525,
                "end_time": 26.659090909090907,
                "pitch": 70,
                "velocity": 40,
                "duration": 0.13409090909090793,
                "tempo": 120.0
            },
            {
                "start_time": 26.674999999999997,
                "end_time": 26.80909090909091,
                "pitch": 70,
                "velocity": 40,
                "duration": 0.13409090909091148,
                "tempo": 120.0
            },
            {
                "start_time": 26.825,
                "end_time": 26.959090909090907,
                "pitch": 74,
                "velocity": 40,
                "duration": 0.13409090909090793,
                "tempo": 120.0
            },
            {
                "start_time": 26.974999999999998,
                "end_time": 27.10909090909091,
                "pitch": 74,
                "velocity": 40,
                "duration": 0.13409090909091148,
                "tempo": 120.0
            },
            {
                "start_time": 27.125,
                "end_time": 27.259090909090908,
                "pitch": 77,
                "velocity": 40,
                "duration": 0.13409090909090793,
                "tempo": 120.0
            },
            {
                "start_time": 27.277272727272727,
                "end_time": 27.411363636363635,
                "pitch": 77,
                "velocity": 40,
                "duration": 0.13409090909090793,
                "tempo": 120.0
            },
            {
                "start_time": 27.427272727272726,
                "end_time": 27.561363636363634,
                "pitch": 74,
                "velocity": 40,
                "duration": 0.13409090909090793,
                "tempo": 120.0
            },
            {
                "start_time": 27.577272727272724,
                "end_time": 27.711363636363636,
                "pitch": 77,
                "velocity": 40,
                "duration": 0.13409090909091148,
                "tempo": 120.0
            },
            {
                "start_time": 27.729545454545452,
                "end_time": 27.763636363636362,
                "pitch": 75,
                "velocity": 40,
                "duration": 0.03409090909091006,
                "tempo": 120.0
            },
            {
                "start_time": 28.329545454545453,
                "end_time": 28.625,
                "pitch": 72,
                "velocity": 40,
                "duration": 0.29545454545454675,
                "tempo": 120.0
            },
            {
                "start_time": 28.64090909090909,
                "end_time": 28.924999999999997,
                "pitch": 74,
                "velocity": 40,
                "duration": 0.2840909090909065,
                "tempo": 120.0
            },
            {
                "start_time": 28.943181818181817,
                "end_time": 29.227272727272727,
                "pitch": 79,
                "velocity": 40,
                "duration": 0.28409090909091006,
                "tempo": 120.0
            },
            {
                "start_time": 29.243181818181817,
                "end_time": 29.518181818181816,
                "pitch": 79,
                "velocity": 40,
                "duration": 0.2749999999999986,
                "tempo": 120.0
            },
            {
                "start_time": 29.536363636363635,
                "end_time": 29.820454545454545,
                "pitch": 79,
                "velocity": 40,
                "duration": 0.28409090909091006,
                "tempo": 120.0
            },
            {
                "start_time": 29.836363636363636,
                "end_time": 30.120454545454542,
                "pitch": 79,
                "velocity": 40,
                "duration": 0.2840909090909065,
                "tempo": 120.0
            },
            {
                "start_time": 30.136363636363633,
                "end_time": 30.270454545454545,
                "pitch": 79,
                "velocity": 40,
                "duration": 0.13409090909091148,
                "tempo": 120.0
            },
            {
                "start_time": 30.28863636363636,
                "end_time": 30.422727272727272,
                "pitch": 79,
                "velocity": 40,
                "duration": 0.13409090909091148,
                "tempo": 120.0
            },
            {
                "start_time": 30.438636363636363,
                "end_time": 30.57272727272727,
                "pitch": 79,
                "velocity": 40,
                "duration": 0.13409090909090793,
                "tempo": 120.0
            },
            {
                "start_time": 30.58863636363636,
                "end_time": 31.327272727272724,
                "pitch": 79,
                "velocity": 40,
                "duration": 0.7386363636363633,
                "tempo": 120.0
            },
            {
                "start_time": 31.343181818181815,
                "end_time": 31.627272727272725,
                "pitch": 80,
                "velocity": 40,
                "duration": 0.28409090909091006,
                "tempo": 120.0
            },
            {
                "start_time": 31.643181818181816,
                "end_time": 31.936363636363634,
                "pitch": 80,
                "velocity": 40,
                "duration": 0.293181818181818,
                "tempo": 120.0
            },
            {
                "start_time": 31.952272727272724,
                "end_time": 32.22727272727273,
                "pitch": 80,
                "velocity": 40,
                "duration": 0.27500000000000213,
                "tempo": 120.0
            },
            {
                "start_time": 32.24545454545454,
                "end_time": 32.527272727272724,
                "pitch": 80,
                "velocity": 40,
                "duration": 0.2818181818181813,
                "tempo": 120.0
            },
            {
                "start_time": 32.54545454545455,
                "end_time": 32.679545454545455,
                "pitch": 82,
                "velocity": 40,
                "duration": 0.13409090909090793,
                "tempo": 120.0
            },
            {
                "start_time": 32.695454545454545,
                "end_time": 32.82954545454545,
                "pitch": 80,
                "velocity": 40,
                "duration": 0.13409090909090793,
                "tempo": 120.0
            },
            {
                "start_time": 32.845454545454544,
                "end_time": 32.97954545454545,
                "pitch": 79,
                "velocity": 40,
                "duration": 0.13409090909090793,
                "tempo": 120.0
            },
            {
                "start_time": 32.99545454545454,
                "end_time": 33.73181818181818,
                "pitch": 80,
                "velocity": 40,
                "duration": 0.7363636363636346,
                "tempo": 120.0
            },
            {
                "start_time": 33.74772727272727,
                "end_time": 34.03181818181818,
                "pitch": 79,
                "velocity": 40,
                "duration": 0.2840909090909136,
                "tempo": 120.0
            },
            {
                "start_time": 34.04772727272727,
                "end_time": 34.33181818181818,
                "pitch": 79,
                "velocity": 40,
                "duration": 0.2840909090909065,
                "tempo": 120.0
            },
            {
                "start_time": 34.35,
                "end_time": 34.63181818181818,
                "pitch": 79,
                "velocity": 40,
                "duration": 0.2818181818181813,
                "tempo": 120.0
            },
            {
                "start_time": 34.65,
                "end_time": 34.934090909090905,
                "pitch": 79,
                "velocity": 40,
                "duration": 0.2840909090909065,
                "tempo": 120.0
            },
            {
                "start_time": 34.949999999999996,
                "end_time": 35.08409090909091,
                "pitch": 79,
                "velocity": 40,
                "duration": 0.13409090909091503,
                "tempo": 120.0
            },
            {
                "start_time": 35.1,
                "end_time": 35.23409090909091,
                "pitch": 79,
                "velocity": 40,
                "duration": 0.13409090909090793,
                "tempo": 120.0
            },
            {
                "start_time": 35.25,
                "end_time": 35.38409090909091,
                "pitch": 79,
                "velocity": 40,
                "duration": 0.13409090909090793,
                "tempo": 120.0
            },
            {
                "start_time": 35.4,
                "end_time": 36.13636363636363,
                "pitch": 79,
                "velocity": 40,
                "duration": 0.7363636363636346,
                "tempo": 120.0
            },
            {
                "start_time": 36.152272727272724,
                "end_time": 36.43636363636364,
                "pitch": 80,
                "velocity": 40,
                "duration": 0.2840909090909136,
                "tempo": 120.0
            },
            {
                "start_time": 36.45454545454545,
                "end_time": 36.736363636363635,
                "pitch": 80,
                "velocity": 40,
                "duration": 0.2818181818181813,
                "tempo": 120.0
            },
            {
                "start_time": 36.75454545454545,
                "end_time": 37.05681818181818,
                "pitch": 80,
                "velocity": 40,
                "duration": 0.30227272727272947,
                "tempo": 120.0
            },
            {
                "start_time": 37.074999999999996,
                "end_time": 37.43181818181818,
                "pitch": 80,
                "velocity": 40,
                "duration": 0.35681818181818414,
                "tempo": 120.0
            },
            {
                "start_time": 37.45681818181818,
                "end_time": 37.64772727272727,
                "pitch": 82,
                "velocity": 40,
                "duration": 0.19090909090909491,
                "tempo": 120.0
            },
            {
                "start_time": 37.67272727272727,
                "end_time": 37.86363636363636,
                "pitch": 80,
                "velocity": 40,
                "duration": 0.1909090909090878,
                "tempo": 120.0
            },
            {
                "start_time": 37.88863636363636,
                "end_time": 38.090909090909086,
                "pitch": 79,
                "velocity": 40,
                "duration": 0.20227272727272805,
                "tempo": 120.0
            },
            {
                "start_time": 38.11590909090909,
                "end_time": 39.21818181818182,
                "pitch": 80,
                "velocity": 40,
                "duration": 1.1022727272727266,
                "tempo": 120.0
            },
            {
                "start_time": 39.24318181818182,
                "end_time": 39.44318181818181,
                "pitch": 79,
                "velocity": 40,
                "duration": 0.19999999999999574,
                "tempo": 120.0
            },
            {
                "start_time": 39.46818181818182,
                "end_time": 39.668181818181814,
                "pitch": 79,
                "velocity": 40,
                "duration": 0.19999999999999574,
                "tempo": 120.0
            },
            {
                "start_time": 39.69318181818181,
                "end_time": 39.89545454545454,
                "pitch": 75,
                "velocity": 40,
                "duration": 0.20227272727272805,
                "tempo": 120.0
            },
            {
                "start_time": 39.92045454545455,
                "end_time": 40.12045454545454,
                "pitch": 75,
                "velocity": 40,
                "duration": 0.19999999999999574,
                "tempo": 120.0
            },
            {
                "start_time": 40.14545454545454,
                "end_time": 40.345454545454544,
                "pitch": 70,
                "velocity": 40,
                "duration": 0.20000000000000284,
                "tempo": 120.0
            },
            {
                "start_time": 40.37045454545454,
                "end_time": 40.570454545454545,
                "pitch": 70,
                "velocity": 40,
                "duration": 0.20000000000000284,
                "tempo": 120.0
            },
            {
                "start_time": 40.595454545454544,
                "end_time": 40.79772727272727,
                "pitch": 75,
                "velocity": 40,
                "duration": 0.20227272727272805,
                "tempo": 120.0
            },
            {
                "start_time": 40.82954545454545,
                "end_time": 41.1,
                "pitch": 75,
                "velocity": 40,
                "duration": 0.27045454545454817,
                "tempo": 120.0
            },
            {
                "start_time": 41.13409090909091,
                "end_time": 41.402272727272724,
                "pitch": 79,
                "velocity": 40,
                "duration": 0.26818181818181586,
                "tempo": 120.0
            },
            {
                "start_time": 41.43636363636364,
                "end_time": 41.70681818181818,
                "pitch": 79,
                "velocity": 40,
                "duration": 0.27045454545454106,
                "tempo": 120.0
            },
            {
                "start_time": 41.73863636363636,
                "end_time": 42.00909090909091,
                "pitch": 75,
                "velocity": 40,
                "duration": 0.27045454545454817,
                "tempo": 120.0
            },
            {
                "start_time": 42.043181818181814,
                "end_time": 42.31136363636364,
                "pitch": 75,
                "velocity": 40,
                "duration": 0.26818181818182296,
                "tempo": 120.0
            },
            {
                "start_time": 42.345454545454544,
                "end_time": 42.61590909090909,
                "pitch": 70,
                "velocity": 40,
                "duration": 0.27045454545454817,
                "tempo": 120.0
            },
            {
                "start_time": 42.64772727272727,
                "end_time": 42.918181818181814,
                "pitch": 70,
                "velocity": 40,
                "duration": 0.27045454545454106,
                "tempo": 120.0
            },
            {
                "start_time": 42.95227272727273,
                "end_time": 43.220454545454544,
                "pitch": 75,
                "velocity": 40,
                "duration": 0.26818181818181586,
                "tempo": 120.0
            },
            {
                "start_time": 43.25454545454545,
                "end_time": 43.525,
                "pitch": 75,
                "velocity": 40,
                "duration": 0.27045454545454817,
                "tempo": 120.0
            },
            {
                "start_time": 43.55681818181818,
                "end_time": 43.82727272727273,
                "pitch": 77,
                "velocity": 40,
                "duration": 0.27045454545454817,
                "tempo": 120.0
            },
            {
                "start_time": 43.861363636363635,
                "end_time": 44.12954545454545,
                "pitch": 77,
                "velocity": 40,
                "duration": 0.26818181818181586,
                "tempo": 120.0
            },
            {
                "start_time": 44.163636363636364,
                "end_time": 44.434090909090905,
                "pitch": 74,
                "velocity": 40,
                "duration": 0.27045454545454106,
                "tempo": 120.0
            },
            {
                "start_time": 44.465909090909086,
                "end_time": 44.73863636363636,
                "pitch": 74,
                "velocity": 40,
                "duration": 0.2727272727272734,
                "tempo": 120.0
            },
            {
                "start_time": 44.77272727272727,
                "end_time": 45.04545454545455,
                "pitch": 70,
                "velocity": 40,
                "duration": 0.2727272727272734,
                "tempo": 120.0
            },
            {
                "start_time": 45.07954545454545,
                "end_time": 45.35227272727273,
                "pitch": 70,
                "velocity": 40,
                "duration": 0.2727272727272734,
                "tempo": 120.0
            },
            {
                "start_time": 45.38636363636363,
                "end_time": 45.65681818181818,
                "pitch": 74,
                "velocity": 40,
                "duration": 0.27045454545454817,
                "tempo": 120.0
            },
            {
                "start_time": 45.69090909090909,
                "end_time": 45.95454545454545,
                "pitch": 74,
                "velocity": 40,
                "duration": 0.26363636363636545,
                "tempo": 120.0
            },
            {
                "start_time": 45.98863636363636,
                "end_time": 46.252272727272725,
                "pitch": 77,
                "velocity": 40,
                "duration": 0.26363636363636545,
                "tempo": 120.0
            },
            {
                "start_time": 46.28409090909091,
                "end_time": 46.54772727272727,
                "pitch": 77,
                "velocity": 40,
                "duration": 0.26363636363636545,
                "tempo": 120.0
            },
            {
                "start_time": 46.58181818181818,
                "end_time": 46.845454545454544,
                "pitch": 80,
                "velocity": 40,
                "duration": 0.26363636363636545,
                "tempo": 120.0
            },
            {
                "start_time": 46.87954545454545,
                "end_time": 47.15,
                "pitch": 80,
                "velocity": 40,
                "duration": 0.27045454545454817,
                "tempo": 120.0
            },
            {
                "start_time": 47.184090909090905,
                "end_time": 47.45681818181818,
                "pitch": 79,
                "velocity": 40,
                "duration": 0.2727272727272734,
                "tempo": 120.0
            },
            {
                "start_time": 47.49090909090909,
                "end_time": 47.76363636363636,
                "pitch": 79,
                "velocity": 40,
                "duration": 0.27272727272726627,
                "tempo": 120.0
            },
            {
                "start_time": 47.79772727272727,
                "end_time": 48.070454545454545,
                "pitch": 77,
                "velocity": 40,
                "duration": 0.2727272727272734,
                "tempo": 120.0
            },
            {
                "start_time": 48.10227272727273,
                "end_time": 48.36590909090909,
                "pitch": 77,
                "velocity": 40,
                "duration": 0.26363636363636545,
                "tempo": 120.0
            },
            {
                "start_time": 48.4,
                "end_time": 48.663636363636364,
                "pitch": 77,
                "velocity": 40,
                "duration": 0.26363636363636545,
                "tempo": 120.0
            },
            {
                "start_time": 48.695454545454545,
                "end_time": 48.961363636363636,
                "pitch": 77,
                "velocity": 40,
                "duration": 0.26590909090909065,
                "tempo": 120.0
            },
            {
                "start_time": 48.99318181818182,
                "end_time": 49.25681818181818,
                "pitch": 75,
                "velocity": 40,
                "duration": 0.26363636363636545,
                "tempo": 120.0
            },
            {
                "start_time": 49.29090909090909,
                "end_time": 49.56136363636364,
                "pitch": 75,
                "velocity": 40,
                "duration": 0.27045454545454817,
                "tempo": 120.0
            },
            {
                "start_time": 49.59318181818182,
                "end_time": 49.86363636363636,
                "pitch": 74,
                "velocity": 40,
                "duration": 0.27045454545454106,
                "tempo": 120.0
            },
            {
                "start_time": 49.89772727272727,
                "end_time": 50.16590909090909,
                "pitch": 74,
                "velocity": 40,
                "duration": 0.26818181818181586,
                "tempo": 120.0
            },
            {
                "start_time": 50.199999999999996,
                "end_time": 50.470454545454544,
                "pitch": 72,
                "velocity": 40,
                "duration": 0.27045454545454817,
                "tempo": 120.0
            },
            {
                "start_time": 50.502272727272725,
                "end_time": 50.77272727272727,
                "pitch": 72,
                "velocity": 40,
                "duration": 0.27045454545454817,
                "tempo": 120.0
            },
            {
                "start_time": 50.80681818181818,
                "end_time": 51.074999999999996,
                "pitch": 77,
                "velocity": 40,
                "duration": 0.26818181818181586,
                "tempo": 120.0
            },
            {
                "start_time": 51.10909090909091,
                "end_time": 51.37954545454545,
                "pitch": 77,
                "velocity": 40,
                "duration": 0.27045454545454106,
                "tempo": 120.0
            },
            {
                "start_time": 51.41136363636363,
                "end_time": 51.68181818181818,
                "pitch": 75,
                "velocity": 40,
                "duration": 0.27045454545454817,
                "tempo": 120.0
            },
            {
                "start_time": 51.715909090909086,
                "end_time": 51.98181818181818,
                "pitch": 75,
                "velocity": 40,
                "duration": 0.26590909090909065,
                "tempo": 120.0
            },
            {
                "start_time": 52.01590909090909,
                "end_time": 52.28181818181818,
                "pitch": 74,
                "velocity": 40,
                "duration": 0.26590909090909065,
                "tempo": 120.0
            },
            {
                "start_time": 52.31590909090909,
                "end_time": 52.58181818181818,
                "pitch": 74,
                "velocity": 40,
                "duration": 0.26590909090909065,
                "tempo": 120.0
            },
            {
                "start_time": 52.615909090909085,
                "end_time": 52.88181818181818,
                "pitch": 72,
                "velocity": 40,
                "duration": 0.26590909090909776,
                "tempo": 120.0
            },
            {
                "start_time": 52.91590909090909,
                "end_time": 53.184090909090905,
                "pitch": 72,
                "velocity": 40,
                "duration": 0.26818181818181586,
                "tempo": 120.0
            },
            {
                "start_time": 53.21818181818182,
                "end_time": 53.48863636363636,
                "pitch": 70,
                "velocity": 40,
                "duration": 0.27045454545454106,
                "tempo": 120.0
            },
            {
                "start_time": 53.52045454545454,
                "end_time": 53.79090909090909,
                "pitch": 70,
                "velocity": 40,
                "duration": 0.27045454545454817,
                "tempo": 120.0
            },
            {
                "start_time": 53.824999999999996,
                "end_time": 54.09318181818182,
                "pitch": 74,
                "velocity": 40,
                "duration": 0.26818181818182296,
                "tempo": 120.0
            },
            {
                "start_time": 54.127272727272725,
                "end_time": 54.39772727272727,
                "pitch": 74,
                "velocity": 40,
                "duration": 0.27045454545454817,
                "tempo": 120.0
            },
            {
                "start_time": 54.429545454545455,
                "end_time": 54.699999999999996,
                "pitch": 77,
                "velocity": 40,
                "duration": 0.27045454545454106,
                "tempo": 120.0
            },
            {
                "start_time": 54.73409090909091,
                "end_time": 55.002272727272725,
                "pitch": 77,
                "velocity": 40,
                "duration": 0.26818181818181586,
                "tempo": 120.0
            },
            {
                "start_time": 55.03636363636363,
                "end_time": 55.30681818181818,
                "pitch": 74,
                "velocity": 40,
                "duration": 0.27045454545454817,
                "tempo": 120.0
            },
            {
                "start_time": 55.33863636363636,
                "end_time": 55.60909090909091,
                "pitch": 77,
                "velocity": 40,
                "duration": 0.27045454545454817,
                "tempo": 120.0
            },
            {
                "start_time": 55.643181818181816,
                "end_time": 55.91136363636363,
                "pitch": 72,
                "velocity": 40,
                "duration": 0.26818181818181586,
                "tempo": 120.0
            },
            {
                "start_time": 55.945454545454545,
                "end_time": 56.215909090909086,
                "pitch": 72,
                "velocity": 40,
                "duration": 0.27045454545454106,
                "tempo": 120.0
            },
            {
                "start_time": 56.24772727272727,
                "end_time": 56.518181818181816,
                "pitch": 77,
                "velocity": 40,
                "duration": 0.27045454545454817,
                "tempo": 120.0
            },
            {
                "start_time": 56.55227272727272,
                "end_time": 56.820454545454545,
                "pitch": 77,
                "velocity": 40,
                "duration": 0.26818181818182296,
                "tempo": 120.0
            },
            {
                "start_time": 56.85454545454545,
                "end_time": 57.125,
                "pitch": 80,
                "velocity": 40,
                "duration": 0.27045454545454817,
                "tempo": 120.0
            },
            {
                "start_time": 57.15681818181818,
                "end_time": 57.42727272727272,
                "pitch": 80,
                "velocity": 40,
                "duration": 0.27045454545454106,
                "tempo": 120.0
            },
            {
                "start_time": 57.461363636363636,
                "end_time": 57.72954545454545,
                "pitch": 79,
                "velocity": 40,
                "duration": 0.26818181818181586,
                "tempo": 120.0
            },
            {
                "start_time": 57.76363636363636,
                "end_time": 58.02954545454545,
                "pitch": 77,
                "velocity": 40,
                "duration": 0.26590909090909065,
                "tempo": 120.0
            },
            {
                "start_time": 58.06363636363636,
                "end_time": 58.32954545454545,
                "pitch": 79,
                "velocity": 40,
                "duration": 0.26590909090909065,
                "tempo": 120.0
            },
            {
                "start_time": 58.36363636363636,
                "end_time": 58.62954545454545,
                "pitch": 79,
                "velocity": 40,
                "duration": 0.26590909090909065,
                "tempo": 120.0
            },
            {
                "start_time": 58.663636363636364,
                "end_time": 58.929545454545455,
                "pitch": 75,
                "velocity": 40,
                "duration": 0.26590909090909065,
                "tempo": 120.0
            },
            {
                "start_time": 58.96363636363636,
                "end_time": 59.23409090909091,
                "pitch": 75,
                "velocity": 40,
                "duration": 0.27045454545454817,
                "tempo": 120.0
            },
            {
                "start_time": 59.26590909090909,
                "end_time": 59.53636363636363,
                "pitch": 70,
                "velocity": 40,
                "duration": 0.27045454545454106,
                "tempo": 120.0
            },
            {
                "start_time": 59.570454545454545,
                "end_time": 59.83863636363636,
                "pitch": 70,
                "velocity": 40,
                "duration": 0.26818181818181586,
                "tempo": 120.0
            },
            {
                "start_time": 59.87272727272727,
                "end_time": 60.143181818181816,
                "pitch": 75,
                "velocity": 40,
                "duration": 0.27045454545454817,
                "tempo": 120.0
            },
            {
                "start_time": 60.175,
                "end_time": 60.445454545454545,
                "pitch": 75,
                "velocity": 40,
                "duration": 0.27045454545454817,
                "tempo": 120.0
            },
            {
                "start_time": 60.47954545454545,
                "end_time": 60.74772727272727,
                "pitch": 79,
                "velocity": 40,
                "duration": 0.26818181818181586,
                "tempo": 120.0
            },
            {
                "start_time": 60.78181818181818,
                "end_time": 61.05227272727272,
                "pitch": 79,
                "velocity": 40,
                "duration": 0.27045454545454106,
                "tempo": 120.0
            },
            {
                "start_time": 61.084090909090904,
                "end_time": 61.35454545454545,
                "pitch": 75,
                "velocity": 40,
                "duration": 0.27045454545454817,
                "tempo": 120.0
            },
            {
                "start_time": 61.38863636363636,
                "end_time": 61.65681818181818,
                "pitch": 75,
                "velocity": 40,
                "duration": 0.26818181818182296,
                "tempo": 120.0
            },
            {
                "start_time": 61.69090909090909,
                "end_time": 61.961363636363636,
                "pitch": 70,
                "velocity": 40,
                "duration": 0.27045454545454817,
                "tempo": 120.0
            },
            {
                "start_time": 61.99318181818182,
                "end_time": 62.26363636363636,
                "pitch": 70,
                "velocity": 40,
                "duration": 0.27045454545454106,
                "tempo": 120.0
            },
            {
                "start_time": 62.29772727272727,
                "end_time": 62.56590909090909,
                "pitch": 75,
                "velocity": 40,
                "duration": 0.26818181818181586,
                "tempo": 120.0
            },
            {
                "start_time": 62.599999999999994,
                "end_time": 62.87045454545454,
                "pitch": 75,
                "velocity": 40,
                "duration": 0.27045454545454817,
                "tempo": 120.0
            },
            {
                "start_time": 62.902272727272724,
                "end_time": 63.17272727272727,
                "pitch": 77,
                "velocity": 40,
                "duration": 0.27045454545454817,
                "tempo": 120.0
            },
            {
                "start_time": 63.20681818181818,
                "end_time": 63.474999999999994,
                "pitch": 77,
                "velocity": 40,
                "duration": 0.26818181818181586,
                "tempo": 120.0
            },
            {
                "start_time": 63.50909090909091,
                "end_time": 63.77954545454545,
                "pitch": 74,
                "velocity": 40,
                "duration": 0.27045454545454106,
                "tempo": 120.0
            },
            {
                "start_time": 63.81136363636363,
                "end_time": 64.07954545454545,
                "pitch": 74,
                "velocity": 40,
                "duration": 0.26818181818182296,
                "tempo": 120.0
            },
            {
                "start_time": 64.11136363636363,
                "end_time": 64.37954545454545,
                "pitch": 70,
                "velocity": 40,
                "duration": 0.26818181818181586,
                "tempo": 120.0
            },
            {
                "start_time": 64.41136363636363,
                "end_time": 64.67954545454545,
                "pitch": 70,
                "velocity": 40,
                "duration": 0.26818181818181586,
                "tempo": 120.0
            },
            {
                "start_time": 64.71136363636363,
                "end_time": 64.97954545454544,
                "pitch": 74,
                "velocity": 40,
                "duration": 0.26818181818181586,
                "tempo": 120.0
            },
            {
                "start_time": 65.01136363636364,
                "end_time": 65.28181818181818,
                "pitch": 74,
                "velocity": 40,
                "duration": 0.27045454545454106,
                "tempo": 120.0
            },
            {
                "start_time": 65.31590909090909,
                "end_time": 65.5840909090909,
                "pitch": 77,
                "velocity": 40,
                "duration": 0.26818181818181586,
                "tempo": 120.0
            },
            {
                "start_time": 65.61818181818181,
                "end_time": 65.88863636363637,
                "pitch": 77,
                "velocity": 40,
                "duration": 0.2704545454545553,
                "tempo": 120.0
            },
            {
                "start_time": 65.92045454545455,
                "end_time": 66.19090909090909,
                "pitch": 80,
                "velocity": 40,
                "duration": 0.27045454545454106,
                "tempo": 120.0
            },
            {
                "start_time": 66.225,
                "end_time": 66.49772727272727,
                "pitch": 80,
                "velocity": 40,
                "duration": 0.2727272727272805,
                "tempo": 120.0
            },
            {
                "start_time": 66.53181818181818,
                "end_time": 66.80227272727272,
                "pitch": 79,
                "velocity": 40,
                "duration": 0.27045454545454106,
                "tempo": 120.0
            },
            {
                "start_time": 66.83636363636363,
                "end_time": 67.10909090909091,
                "pitch": 79,
                "velocity": 40,
                "duration": 0.2727272727272805,
                "tempo": 120.0
            },
            {
                "start_time": 67.14318181818182,
                "end_time": 67.41590909090908,
                "pitch": 77,
                "velocity": 40,
                "duration": 0.27272727272726627,
                "tempo": 120.0
            },
            {
                "start_time": 67.44772727272726,
                "end_time": 67.71136363636363,
                "pitch": 77,
                "velocity": 40,
                "duration": 0.26363636363636545,
                "tempo": 120.0
            },
            {
                "start_time": 67.74545454545454,
                "end_time": 68.0090909090909,
                "pitch": 70,
                "velocity": 40,
                "duration": 0.26363636363636545,
                "tempo": 120.0
            },
            {
                "start_time": 68.04318181818182,
                "end_time": 68.30681818181817,
                "pitch": 70,
                "velocity": 40,
                "duration": 0.26363636363635123,
                "tempo": 120.0
            },
            {
                "start_time": 68.33863636363635,
                "end_time": 68.60227272727272,
                "pitch": 72,
                "velocity": 40,
                "duration": 0.26363636363636545,
                "tempo": 120.0
            },
            {
                "start_time": 68.63636363636363,
                "end_time": 68.90681818181818,
                "pitch": 72,
                "velocity": 40,
                "duration": 0.2704545454545553,
                "tempo": 120.0
            },
            {
                "start_time": 68.94090909090909,
                "end_time": 69.2090909090909,
                "pitch": 74,
                "velocity": 40,
                "duration": 0.26818181818181586,
                "tempo": 120.0
            },
            {
                "start_time": 69.24318181818181,
                "end_time": 69.51136363636363,
                "pitch": 74,
                "velocity": 40,
                "duration": 0.26818181818181586,
                "tempo": 120.0
            },
            {
                "start_time": 69.54545454545455,
                "end_time": 69.81590909090909,
                "pitch": 75,
                "velocity": 40,
                "duration": 0.27045454545454106,
                "tempo": 120.0
            },
            {
                "start_time": 69.84772727272727,
                "end_time": 70.11590909090908,
                "pitch": 75,
                "velocity": 40,
                "duration": 0.26818181818181586,
                "tempo": 120.0
            },
            {
                "start_time": 70.14772727272727,
                "end_time": 70.41590909090908,
                "pitch": 77,
                "velocity": 40,
                "duration": 0.26818181818181586,
                "tempo": 120.0
            },
            {
                "start_time": 70.44772727272726,
                "end_time": 70.7159090909091,
                "pitch": 77,
                "velocity": 40,
                "duration": 0.26818181818183007,
                "tempo": 120.0
            },
            {
                "start_time": 70.74772727272727,
                "end_time": 71.01590909090909,
                "pitch": 75,
                "velocity": 40,
                "duration": 0.26818181818181586,
                "tempo": 120.0
            },
            {
                "start_time": 71.05,
                "end_time": 71.31818181818181,
                "pitch": 75,
                "velocity": 40,
                "duration": 0.26818181818181586,
                "tempo": 120.0
            },
            {
                "start_time": 71.35227272727272,
                "end_time": 71.62045454545454,
                "pitch": 74,
                "velocity": 40,
                "duration": 0.26818181818181586,
                "tempo": 120.0
            },
            {
                "start_time": 71.65454545454546,
                "end_time": 71.925,
                "pitch": 74,
                "velocity": 40,
                "duration": 0.27045454545454106,
                "tempo": 120.0
            },
            {
                "start_time": 71.9590909090909,
                "end_time": 72.22727272727272,
                "pitch": 72,
                "velocity": 40,
                "duration": 0.26818181818181586,
                "tempo": 120.0
            },
            {
                "start_time": 72.26136363636363,
                "end_time": 72.52954545454546,
                "pitch": 72,
                "velocity": 40,
                "duration": 0.26818181818183007,
                "tempo": 120.0
            },
            {
                "start_time": 72.56363636363636,
                "end_time": 72.8340909090909,
                "pitch": 70,
                "velocity": 40,
                "duration": 0.27045454545454106,
                "tempo": 120.0
            },
            {
                "start_time": 72.86818181818181,
                "end_time": 73.13636363636363,
                "pitch": 70,
                "velocity": 40,
                "duration": 0.26818181818181586,
                "tempo": 120.0
            },
            {
                "start_time": 73.17045454545455,
                "end_time": 73.43863636363636,
                "pitch": 74,
                "velocity": 40,
                "duration": 0.26818181818181586,
                "tempo": 120.0
            },
            {
                "start_time": 73.47272727272727,
                "end_time": 73.74318181818181,
                "pitch": 74,
                "velocity": 40,
                "duration": 0.27045454545454106,
                "tempo": 120.0
            },
            {
                "start_time": 73.77727272727272,
                "end_time": 74.04545454545455,
                "pitch": 77,
                "velocity": 40,
                "duration": 0.26818181818183007,
                "tempo": 120.0
            },
            {
                "start_time": 74.07954545454545,
                "end_time": 74.34772727272727,
                "pitch": 77,
                "velocity": 40,
                "duration": 0.26818181818181586,
                "tempo": 120.0
            },
            {
                "start_time": 74.38181818181818,
                "end_time": 74.65227272727272,
                "pitch": 74,
                "velocity": 40,
                "duration": 0.27045454545454106,
                "tempo": 120.0
            },
            {
                "start_time": 74.68636363636364,
                "end_time": 74.95454545454545,
                "pitch": 77,
                "velocity": 40,
                "duration": 0.26818181818181586,
                "tempo": 120.0
            },
            {
                "start_time": 74.98863636363636,
                "end_time": 75.05681818181817,
                "pitch": 75,
                "velocity": 40,
                "duration": 0.06818181818181301,
                "tempo": 120.0
            },
            {
                "start_time": 76.20454545454545,
                "end_time": 76.78181818181818,
                "pitch": 72,
                "velocity": 40,
                "duration": 0.577272727272728,
                "tempo": 120.0
            },
            {
                "start_time": 76.81590909090909,
                "end_time": 77.38636363636363,
                "pitch": 74,
                "velocity": 40,
                "duration": 0.5704545454545382,
                "tempo": 120.0
            },
            {
                "start_time": 77.41818181818181,
                "end_time": 77.97954545454544,
                "pitch": 80,
                "velocity": 40,
                "duration": 0.5613636363636374,
                "tempo": 120.0
            },
            {
                "start_time": 78.01136363636363,
                "end_time": 78.27727272727272,
                "pitch": 79,
                "velocity": 40,
                "duration": 0.26590909090909065,
                "tempo": 120.0
            },
            {
                "start_time": 78.30909090909091,
                "end_time": 78.88181818181818,
                "pitch": 77,
                "velocity": 40,
                "duration": 0.5727272727272634,
                "tempo": 120.0
            },
            {
                "start_time": 78.91590909090908,
                "end_time": 79.18636363636364,
                "pitch": 80,
                "velocity": 40,
                "duration": 0.2704545454545553,
                "tempo": 120.0
            },
            {
                "start_time": 79.21818181818182,
                "end_time": 79.48863636363636,
                "pitch": 79,
                "velocity": 40,
                "duration": 0.27045454545454106,
                "tempo": 120.0
            },
            {
                "start_time": 79.52272727272727,
                "end_time": 79.79090909090908,
                "pitch": 77,
                "velocity": 40,
                "duration": 0.26818181818181586,
                "tempo": 120.0
            },
            {
                "start_time": 79.825,
                "end_time": 80.39772727272727,
                "pitch": 80,
                "velocity": 40,
                "duration": 0.5727272727272634,
                "tempo": 120.0
            },
            {
                "start_time": 80.43181818181817,
                "end_time": 80.7,
                "pitch": 80,
                "velocity": 40,
                "duration": 0.26818181818183007,
                "tempo": 120.0
            },
            {
                "start_time": 80.73409090909091,
                "end_time": 81.30681818181817,
                "pitch": 77,
                "velocity": 40,
                "duration": 0.5727272727272634,
                "tempo": 120.0
            },
            {
                "start_time": 81.3409090909091,
                "end_time": 81.60909090909091,
                "pitch": 77,
                "velocity": 40,
                "duration": 0.26818181818181586,
                "tempo": 120.0
            },
            {
                "start_time": 81.64318181818182,
                "end_time": 81.91363636363636,
                "pitch": 79,
                "velocity": 40,
                "duration": 0.27045454545454106,
                "tempo": 120.0
            },
            {
                "start_time": 81.94545454545454,
                "end_time": 82.21363636363635,
                "pitch": 80,
                "velocity": 40,
                "duration": 0.26818181818181586,
                "tempo": 120.0
            },
            {
                "start_time": 82.24545454545454,
                "end_time": 82.81363636363636,
                "pitch": 84,
                "velocity": 40,
                "duration": 0.5681818181818272,
                "tempo": 120.0
            },
            {
                "start_time": 82.84545454545454,
                "end_time": 83.41590909090908,
                "pitch": 84,
                "velocity": 40,
                "duration": 0.5704545454545382,
                "tempo": 120.0
            },
            {
                "start_time": 83.45,
                "end_time": 84.02272727272727,
                "pitch": 84,
                "velocity": 40,
                "duration": 0.5727272727272634,
                "tempo": 120.0
            },
            {
                "start_time": 84.05454545454545,
                "end_time": 84.325,
                "pitch": 79,
                "velocity": 40,
                "duration": 0.2704545454545553,
                "tempo": 120.0
            },
            {
                "start_time": 84.35909090909091,
                "end_time": 84.93181818181817,
                "pitch": 75,
                "velocity": 40,
                "duration": 0.5727272727272634,
                "tempo": 120.0
            },
            {
                "start_time": 84.96363636363635,
                "end_time": 85.23409090909091,
                "pitch": 75,
                "velocity": 40,
                "duration": 0.2704545454545553,
                "tempo": 120.0
            },
            {
                "start_time": 85.26818181818182,
                "end_time": 85.8409090909091,
                "pitch": 75,
                "velocity": 40,
                "duration": 0.5727272727272776,
                "tempo": 120.0
            },
            {
                "start_time": 85.87272727272727,
                "end_time": 86.44545454545454,
                "pitch": 75,
                "velocity": 40,
                "duration": 0.5727272727272634,
                "tempo": 120.0
            },
            {
                "start_time": 86.47954545454544,
                "end_time": 87.05227272727272,
                "pitch": 79,
                "velocity": 40,
                "duration": 0.5727272727272776,
                "tempo": 120.0
            },
            {
                "start_time": 87.08636363636363,
                "end_time": 87.6590909090909,
                "pitch": 80,
                "velocity": 40,
                "duration": 0.5727272727272776,
                "tempo": 120.0
            },
            {
                "start_time": 87.69090909090909,
                "end_time": 87.96136363636363,
                "pitch": 79,
                "velocity": 40,
                "duration": 0.27045454545454106,
                "tempo": 120.0
            },
            {
                "start_time": 87.99545454545454,
                "end_time": 88.56136363636364,
                "pitch": 77,
                "velocity": 40,
                "duration": 0.565909090909102,
                "tempo": 120.0
            },
            {
                "start_time": 88.59545454545454,
                "end_time": 88.86136363636363,
                "pitch": 80,
                "velocity": 40,
                "duration": 0.26590909090909065,
                "tempo": 120.0
            },
            {
                "start_time": 88.89545454545454,
                "end_time": 89.16136363636363,
                "pitch": 79,
                "velocity": 40,
                "duration": 0.26590909090909065,
                "tempo": 120.0
            },
            {
                "start_time": 89.19545454545454,
                "end_time": 89.46363636363635,
                "pitch": 77,
                "velocity": 40,
                "duration": 0.26818181818181586,
                "tempo": 120.0
            },
            {
                "start_time": 89.49772727272727,
                "end_time": 90.07045454545454,
                "pitch": 80,
                "velocity": 40,
                "duration": 0.5727272727272634,
                "tempo": 120.0
            },
            {
                "start_time": 90.10454545454544,
                "end_time": 90.37272727272727,
                "pitch": 80,
                "velocity": 40,
                "duration": 0.26818181818183007,
                "tempo": 120.0
            },
            {
                "start_time": 90.40681818181818,
                "end_time": 90.97954545454544,
                "pitch": 77,
                "velocity": 40,
                "duration": 0.5727272727272634,
                "tempo": 120.0
            },
            {
                "start_time": 91.01363636363637,
                "end_time": 91.28181818181818,
                "pitch": 77,
                "velocity": 40,
                "duration": 0.26818181818181586,
                "tempo": 120.0
            },
            {
                "start_time": 91.31590909090909,
                "end_time": 91.58636363636363,
                "pitch": 79,
                "velocity": 40,
                "duration": 0.27045454545454106,
                "tempo": 120.0
            },
            {
                "start_time": 91.61818181818181,
                "end_time": 91.89090909090909,
                "pitch": 80,
                "velocity": 40,
                "duration": 0.2727272727272805,
                "tempo": 120.0
            },
            {
                "start_time": 91.925,
                "end_time": 92.50454545454545,
                "pitch": 84,
                "velocity": 40,
                "duration": 0.5795454545454533,
                "tempo": 120.0
            },
            {
                "start_time": 92.53863636363636,
                "end_time": 93.10681818181818,
                "pitch": 84,
                "velocity": 40,
                "duration": 0.5681818181818272,
                "tempo": 120.0
            },
            {
                "start_time": 93.13863636363637,
                "end_time": 93.69999999999999,
                "pitch": 84,
                "velocity": 40,
                "duration": 0.5613636363636232,
                "tempo": 120.0
            },
            {
                "start_time": 93.73409090909091,
                "end_time": 93.99772727272727,
                "pitch": 86,
                "velocity": 40,
                "duration": 0.26363636363636545,
                "tempo": 120.0
            },
            {
                "start_time": 94.03181818181818,
                "end_time": 94.59772727272727,
                "pitch": 86,
                "velocity": 40,
                "duration": 0.5659090909090878,
                "tempo": 120.0
            },
            {
                "start_time": 94.63181818181818,
                "end_time": 94.66363636363636,
                "pitch": 73,
                "velocity": 40,
                "duration": 0.0318181818181813,
                "tempo": 120.0
            },
            {
                "start_time": 94.66363636363636,
                "end_time": 94.69772727272726,
                "pitch": 70,
                "velocity": 40,
                "duration": 0.03409090909090651,
                "tempo": 120.0
            },
            {
                "start_time": 94.69772727272726,
                "end_time": 94.73181818181818,
                "pitch": 66,
                "velocity": 40,
                "duration": 0.03409090909092072,
                "tempo": 120.0
            },
            {
                "start_time": 94.73181818181818,
                "end_time": 94.76363636363637,
                "pitch": 64,
                "velocity": 40,
                "duration": 0.0318181818181813,
                "tempo": 120.0
            },
            {
                "start_time": 94.76363636363637,
                "end_time": 94.79772727272727,
                "pitch": 61,
                "velocity": 40,
                "duration": 0.03409090909090651,
                "tempo": 120.0
            },
            {
                "start_time": 94.79772727272727,
                "end_time": 94.83181818181818,
                "pitch": 73,
                "velocity": 40,
                "duration": 0.03409090909090651,
                "tempo": 120.0
            },
            {
                "start_time": 94.83181818181818,
                "end_time": 94.86363636363636,
                "pitch": 70,
                "velocity": 40,
                "duration": 0.0318181818181813,
                "tempo": 120.0
            },
            {
                "start_time": 94.86363636363636,
                "end_time": 94.89772727272727,
                "pitch": 66,
                "velocity": 40,
                "duration": 0.03409090909090651,
                "tempo": 120.0
            },
            {
                "start_time": 94.89772727272727,
                "end_time": 94.92272727272727,
                "pitch": 64,
                "velocity": 40,
                "duration": 0.025000000000005684,
                "tempo": 120.0
            },
            {
                "start_time": 94.92272727272727,
                "end_time": 94.94772727272726,
                "pitch": 73,
                "velocity": 40,
                "duration": 0.024999999999991473,
                "tempo": 120.0
            },
            {
                "start_time": 94.94772727272726,
                "end_time": 94.97272727272727,
                "pitch": 70,
                "velocity": 40,
                "duration": 0.025000000000005684,
                "tempo": 120.0
            },
            {
                "start_time": 94.97272727272727,
                "end_time": 94.99772727272727,
                "pitch": 66,
                "velocity": 40,
                "duration": 0.025000000000005684,
                "tempo": 120.0
            },
            {
                "start_time": 94.99772727272727,
                "end_time": 95.02272727272727,
                "pitch": 64,
                "velocity": 40,
                "duration": 0.024999999999991473,
                "tempo": 120.0
            },
            {
                "start_time": 95.02272727272727,
                "end_time": 95.04772727272727,
                "pitch": 61,
                "velocity": 40,
                "duration": 0.025000000000005684,
                "tempo": 120.0
            },
            {
                "start_time": 95.04772727272727,
                "end_time": 95.07272727272726,
                "pitch": 57,
                "velocity": 40,
                "duration": 0.024999999999991473,
                "tempo": 120.0
            },
            {
                "start_time": 95.07272727272726,
                "end_time": 95.09772727272727,
                "pitch": 54,
                "velocity": 40,
                "duration": 0.025000000000005684,
                "tempo": 120.0
            },
            {
                "start_time": 95.09772727272727,
                "end_time": 95.12272727272727,
                "pitch": 51,
                "velocity": 40,
                "duration": 0.025000000000005684,
                "tempo": 120.0
            },
            {
                "start_time": 95.12272727272727,
                "end_time": 95.14772727272727,
                "pitch": 48,
                "velocity": 40,
                "duration": 0.024999999999991473,
                "tempo": 120.0
            },
            {
                "start_time": 95.14772727272727,
                "end_time": 95.17272727272727,
                "pitch": 73,
                "velocity": 40,
                "duration": 0.025000000000005684,
                "tempo": 120.0
            },
            {
                "start_time": 95.17272727272727,
                "end_time": 95.19772727272726,
                "pitch": 70,
                "velocity": 40,
                "duration": 0.024999999999991473,
                "tempo": 120.0
            },
            {
                "start_time": 95.19772727272726,
                "end_time": 95.22272727272727,
                "pitch": 66,
                "velocity": 40,
                "duration": 0.025000000000005684,
                "tempo": 120.0
            },
            {
                "start_time": 95.22272727272727,
                "end_time": 95.24772727272727,
                "pitch": 64,
                "velocity": 40,
                "duration": 0.025000000000005684,
                "tempo": 120.0
            },
            {
                "start_time": 95.24772727272727,
                "end_time": 95.27272727272727,
                "pitch": 61,
                "velocity": 40,
                "duration": 0.024999999999991473,
                "tempo": 120.0
            },
            {
                "start_time": 95.27272727272727,
                "end_time": 95.29772727272727,
                "pitch": 57,
                "velocity": 40,
                "duration": 0.025000000000005684,
                "tempo": 120.0
            },
            {
                "start_time": 95.29772727272727,
                "end_time": 95.32499999999999,
                "pitch": 54,
                "velocity": 40,
                "duration": 0.02727272727271668,
                "tempo": 120.0
            },
            {
                "start_time": 95.32499999999999,
                "end_time": 95.35,
                "pitch": 51,
                "velocity": 40,
                "duration": 0.025000000000005684,
                "tempo": 120.0
            },
            {
                "start_time": 95.35,
                "end_time": 95.36590909090908,
                "pitch": 48,
                "velocity": 40,
                "duration": 0.01590909090909065,
                "tempo": 120.0
            },
            {
                "start_time": 95.36590909090908,
                "end_time": 95.38181818181818,
                "pitch": 70,
                "velocity": 40,
                "duration": 0.01590909090909065,
                "tempo": 120.0
            },
            {
                "start_time": 95.38181818181818,
                "end_time": 95.39999999999999,
                "pitch": 66,
                "velocity": 40,
                "duration": 0.018181818181815856,
                "tempo": 120.0
            },
            {
                "start_time": 95.39999999999999,
                "end_time": 95.41590909090908,
                "pitch": 63,
                "velocity": 40,
                "duration": 0.01590909090909065,
                "tempo": 120.0
            },
            {
                "start_time": 95.41590909090908,
                "end_time": 95.43181818181817,
                "pitch": 60,
                "velocity": 40,
                "duration": 0.01590909090909065,
                "tempo": 120.0
            },
            {
                "start_time": 95.43181818181817,
                "end_time": 95.44999999999999,
                "pitch": 56,
                "velocity": 40,
                "duration": 0.018181818181815856,
                "tempo": 120.0
            },
            {
                "start_time": 95.44999999999999,
                "end_time": 95.46590909090908,
                "pitch": 53,
                "velocity": 40,
                "duration": 0.01590909090909065,
                "tempo": 120.0
            },
            {
                "start_time": 95.46590909090908,
                "end_time": 95.48181818181818,
                "pitch": 50,
                "velocity": 40,
                "duration": 0.01590909090910486,
                "tempo": 120.0
            },
            {
                "start_time": 95.48181818181818,
                "end_time": 95.5,
                "pitch": 46,
                "velocity": 40,
                "duration": 0.018181818181815856,
                "tempo": 120.0
            },
            {
                "start_time": 95.5,
                "end_time": 95.51590909090909,
                "pitch": 42,
                "velocity": 40,
                "duration": 0.01590909090909065,
                "tempo": 120.0
            },
            {
                "start_time": 95.51590909090909,
                "end_time": 95.53181818181818,
                "pitch": 70,
                "velocity": 40,
                "duration": 0.01590909090909065,
                "tempo": 120.0
            },
            {
                "start_time": 95.53181818181818,
                "end_time": 95.55,
                "pitch": 66,
                "velocity": 40,
                "duration": 0.018181818181815856,
                "tempo": 120.0
            },
            {
                "start_time": 95.55,
                "end_time": 95.56590909090909,
                "pitch": 63,
                "velocity": 40,
                "duration": 0.01590909090909065,
                "tempo": 120.0
            },
            {
                "start_time": 95.56590909090909,
                "end_time": 95.58181818181818,
                "pitch": 60,
                "velocity": 40,
                "duration": 0.01590909090909065,
                "tempo": 120.0
            },
            {
                "start_time": 95.58181818181818,
                "end_time": 95.6,
                "pitch": 56,
                "velocity": 40,
                "duration": 0.018181818181815856,
                "tempo": 120.0
            },
            {
                "start_time": 95.6,
                "end_time": 95.61590909090908,
                "pitch": 53,
                "velocity": 40,
                "duration": 0.01590909090909065,
                "tempo": 120.0
            },
            {
                "start_time": 95.61590909090908,
                "end_time": 95.63181818181818,
                "pitch": 50,
                "velocity": 40,
                "duration": 0.01590909090909065,
                "tempo": 120.0
            },
            {
                "start_time": 95.63181818181818,
                "end_time": 95.64999999999999,
                "pitch": 46,
                "velocity": 40,
                "duration": 0.018181818181815856,
                "tempo": 120.0
            },
            {
                "start_time": 95.64999999999999,
                "end_time": 95.66590909090908,
                "pitch": 42,
                "velocity": 40,
                "duration": 0.01590909090909065,
                "tempo": 120.0
            },
            {
                "start_time": 95.66590909090908,
                "end_time": 95.68181818181817,
                "pitch": 67,
                "velocity": 40,
                "duration": 0.01590909090909065,
                "tempo": 120.0
            },
            {
                "start_time": 95.68181818181817,
                "end_time": 95.73181818181818,
                "pitch": 66,
                "velocity": 40,
                "duration": 0.05000000000001137,
                "tempo": 120.0
            },
            {
                "start_time": 95.73181818181818,
                "end_time": 95.78181818181818,
                "pitch": 64,
                "velocity": 40,
                "duration": 0.04999999999999716,
                "tempo": 120.0
            },
            {
                "start_time": 95.78181818181818,
                "end_time": 95.81590909090909,
                "pitch": 61,
                "velocity": 40,
                "duration": 0.03409090909090651,
                "tempo": 120.0
            },
            {
                "start_time": 95.81590909090909,
                "end_time": 95.83181818181818,
                "pitch": 67,
                "velocity": 40,
                "duration": 0.01590909090909065,
                "tempo": 120.0
            },
            {
                "start_time": 95.83181818181818,
                "end_time": 95.88181818181818,
                "pitch": 66,
                "velocity": 40,
                "duration": 0.04999999999999716,
                "tempo": 120.0
            },
            {
                "start_time": 95.88181818181818,
                "end_time": 95.93181818181817,
                "pitch": 64,
                "velocity": 40,
                "duration": 0.04999999999999716,
                "tempo": 120.0
            },
            {
                "start_time": 95.93181818181817,
                "end_time": 95.96590909090908,
                "pitch": 61,
                "velocity": 40,
                "duration": 0.03409090909090651,
                "tempo": 120.0
            },
            {
                "start_time": 95.96590909090908,
                "end_time": 96.25,
                "pitch": 80,
                "velocity": 40,
                "duration": 0.2840909090909207,
                "tempo": 120.0
            },
            {
                "start_time": 96.26818181818182,
                "end_time": 96.55,
                "pitch": 80,
                "velocity": 40,
                "duration": 0.2818181818181813,
                "tempo": 120.0
            },
            {
                "start_time": 96.56818181818181,
                "end_time": 96.69999999999999,
                "pitch": 80,
                "velocity": 40,
                "duration": 0.13181818181817562,
                "tempo": 120.0
            },
            {
                "start_time": 96.71818181818182,
                "end_time": 97.0,
                "pitch": 84,
                "velocity": 40,
                "duration": 0.2818181818181813,
                "tempo": 120.0
            },
            {
                "start_time": 97.01818181818182,
                "end_time": 97.3,
                "pitch": 79,
                "velocity": 40,
                "duration": 0.2818181818181813,
                "tempo": 120.0
            },
            {
                "start_time": 97.31818181818181,
                "end_time": 97.60227272727272,
                "pitch": 79,
                "velocity": 40,
                "duration": 0.2840909090909065,
                "tempo": 120.0
            },
            {
                "start_time": 97.61818181818181,
                "end_time": 97.75227272727273,
                "pitch": 79,
                "velocity": 40,
                "duration": 0.13409090909091503,
                "tempo": 120.0
            },
            {
                "start_time": 97.76818181818182,
                "end_time": 98.05227272727272,
                "pitch": 86,
                "velocity": 40,
                "duration": 0.2840909090909065,
                "tempo": 120.0
            },
            {
                "start_time": 98.06818181818181,
                "end_time": 98.35227272727272,
                "pitch": 84,
                "velocity": 40,
                "duration": 0.2840909090909065,
                "tempo": 120.0
            },
            {
                "start_time": 98.36818181818181,
                "end_time": 98.65227272727272,
                "pitch": 77,
                "velocity": 40,
                "duration": 0.2840909090909065,
                "tempo": 120.0
            },
            {
                "start_time": 98.66818181818181,
                "end_time": 98.96363636363635,
                "pitch": 77,
                "velocity": 40,
                "duration": 0.29545454545454675,
                "tempo": 120.0
            },
            {
                "start_time": 98.97954545454544,
                "end_time": 99.25454545454545,
                "pitch": 80,
                "velocity": 40,
                "duration": 0.2750000000000057,
                "tempo": 120.0
            },
            {
                "start_time": 99.27045454545454,
                "end_time": 99.4090909090909,
                "pitch": 77,
                "velocity": 40,
                "duration": 0.13863636363636545,
                "tempo": 120.0
            },
            {
                "start_time": 99.425,
                "end_time": 99.7090909090909,
                "pitch": 75,
                "velocity": 40,
                "duration": 0.2840909090909065,
                "tempo": 120.0
            },
            {
                "start_time": 99.725,
                "end_time": 99.85454545454544,
                "pitch": 75,
                "velocity": 40,
                "duration": 0.1295454545454504,
                "tempo": 120.0
            },
            {
                "start_time": 99.87272727272727,
                "end_time": 100.15454545454546,
                "pitch": 75,
                "velocity": 40,
                "duration": 0.2818181818181813,
                "tempo": 120.0
            },
            {
                "start_time": 100.17272727272727,
                "end_time": 100.45454545454545,
                "pitch": 77,
                "velocity": 40,
                "duration": 0.2818181818181813,
                "tempo": 120.0
            },
            {
                "start_time": 100.47272727272727,
                "end_time": 100.75681818181818,
                "pitch": 79,
                "velocity": 40,
                "duration": 0.2840909090909065,
                "tempo": 120.0
            },
            {
                "start_time": 100.77272727272727,
                "end_time": 101.06818181818181,
                "pitch": 80,
                "velocity": 40,
                "duration": 0.29545454545454675,
                "tempo": 120.0
            },
            {
                "start_time": 101.0840909090909,
                "end_time": 101.35909090909091,
                "pitch": 80,
                "velocity": 40,
                "duration": 0.2750000000000057,
                "tempo": 120.0
            },
            {
                "start_time": 101.375,
                "end_time": 101.6590909090909,
                "pitch": 84,
                "velocity": 40,
                "duration": 0.2840909090909065,
                "tempo": 120.0
            },
            {
                "start_time": 101.675,
                "end_time": 101.8090909090909,
                "pitch": 80,
                "velocity": 40,
                "duration": 0.13409090909090082,
                "tempo": 120.0
            },
            {
                "start_time": 101.82499999999999,
                "end_time": 102.10909090909091,
                "pitch": 79,
                "velocity": 40,
                "duration": 0.2840909090909207,
                "tempo": 120.0
            },
            {
                "start_time": 102.125,
                "end_time": 102.2590909090909,
                "pitch": 79,
                "velocity": 40,
                "duration": 0.13409090909090082,
                "tempo": 120.0
            },
            {
                "start_time": 102.27727272727272,
                "end_time": 102.57045454545454,
                "pitch": 79,
                "velocity": 40,
                "duration": 0.29318181818182154,
                "tempo": 120.0
            },
            {
                "start_time": 102.58863636363635,
                "end_time": 102.87272727272727,
                "pitch": 82,
                "velocity": 40,
                "duration": 0.2840909090909207,
                "tempo": 120.0
            },
            {
                "start_time": 102.88863636363637,
                "end_time": 103.16363636363636,
                "pitch": 84,
                "velocity": 40,
                "duration": 0.2749999999999915,
                "tempo": 120.0
            },
            {
                "start_time": 103.17954545454545,
                "end_time": 104.04090909090908,
                "pitch": 82,
                "velocity": 40,
                "duration": 0.8613636363636346,
                "tempo": 120.0
            },
            {
                "start_time": 104.38181818181818,
                "end_time": 104.39999999999999,
                "pitch": 73,
                "velocity": 40,
                "duration": 0.018181818181815856,
                "tempo": 120.0
            },
            {
                "start_time": 104.39999999999999,
                "end_time": 104.41818181818181,
                "pitch": 70,
                "velocity": 40,
                "duration": 0.018181818181815856,
                "tempo": 120.0
            },
            {
                "start_time": 104.41818181818181,
                "end_time": 104.4340909090909,
                "pitch": 66,
                "velocity": 40,
                "duration": 0.01590909090909065,
                "tempo": 120.0
            },
            {
                "start_time": 104.4340909090909,
                "end_time": 104.45227272727273,
                "pitch": 64,
                "velocity": 40,
                "duration": 0.018181818181830067,
                "tempo": 120.0
            },
            {
                "start_time": 104.45227272727273,
                "end_time": 104.46818181818182,
                "pitch": 61,
                "velocity": 40,
                "duration": 0.01590909090909065,
                "tempo": 120.0
            },
            {
                "start_time": 104.46818181818182,
                "end_time": 104.48636363636363,
                "pitch": 57,
                "velocity": 40,
                "duration": 0.018181818181815856,
                "tempo": 120.0
            },
            {
                "start_time": 104.48636363636363,
                "end_time": 104.50454545454545,
                "pitch": 54,
                "velocity": 40,
                "duration": 0.018181818181815856,
                "tempo": 120.0
            },
            {
                "start_time": 104.50454545454545,
                "end_time": 104.52045454545454,
                "pitch": 51,
                "velocity": 40,
                "duration": 0.01590909090909065,
                "tempo": 120.0
            },
            {
                "start_time": 104.52045454545454,
                "end_time": 104.53863636363636,
                "pitch": 48,
                "velocity": 40,
                "duration": 0.018181818181815856,
                "tempo": 120.0
            },
            {
                "start_time": 104.53863636363636,
                "end_time": 104.55454545454545,
                "pitch": 70,
                "velocity": 40,
                "duration": 0.01590909090909065,
                "tempo": 120.0
            },
            {
                "start_time": 104.55454545454545,
                "end_time": 104.57272727272726,
                "pitch": 66,
                "velocity": 40,
                "duration": 0.018181818181815856,
                "tempo": 120.0
            },
            {
                "start_time": 104.57272727272726,
                "end_time": 104.59090909090908,
                "pitch": 63,
                "velocity": 40,
                "duration": 0.018181818181815856,
                "tempo": 120.0
            },
            {
                "start_time": 104.59090909090908,
                "end_time": 104.60681818181817,
                "pitch": 60,
                "velocity": 40,
                "duration": 0.01590909090909065,
                "tempo": 120.0
            },
            {
                "start_time": 104.60681818181817,
                "end_time": 104.625,
                "pitch": 56,
                "velocity": 40,
                "duration": 0.018181818181830067,
                "tempo": 120.0
            },
            {
                "start_time": 104.625,
                "end_time": 104.64090909090909,
                "pitch": 53,
                "velocity": 40,
                "duration": 0.01590909090909065,
                "tempo": 120.0
            },
            {
                "start_time": 104.64090909090909,
                "end_time": 104.6590909090909,
                "pitch": 50,
                "velocity": 40,
                "duration": 0.018181818181815856,
                "tempo": 120.0
            },
            {
                "start_time": 104.6590909090909,
                "end_time": 104.675,
                "pitch": 46,
                "velocity": 40,
                "duration": 0.01590909090909065,
                "tempo": 120.0
            },
            {
                "start_time": 104.675,
                "end_time": 104.69318181818181,
                "pitch": 42,
                "velocity": 40,
                "duration": 0.018181818181815856,
                "tempo": 120.0
            },
            {
                "start_time": 104.69318181818181,
                "end_time": 104.7090909090909,
                "pitch": 67,
                "velocity": 40,
                "duration": 0.01590909090909065,
                "tempo": 120.0
            },
            {
                "start_time": 104.7090909090909,
                "end_time": 104.75681818181818,
                "pitch": 66,
                "velocity": 40,
                "duration": 0.04772727272727195,
                "tempo": 120.0
            },
            {
                "start_time": 104.75681818181818,
                "end_time": 104.80454545454545,
                "pitch": 64,
                "velocity": 40,
                "duration": 0.04772727272727195,
                "tempo": 120.0
            },
            {
                "start_time": 104.80454545454545,
                "end_time": 104.83863636363635,
                "pitch": 61,
                "velocity": 40,
                "duration": 0.03409090909090651,
                "tempo": 120.0
            },
            {
                "start_time": 104.83863636363635,
                "end_time": 104.85454545454544,
                "pitch": 73,
                "velocity": 40,
                "duration": 0.01590909090909065,
                "tempo": 120.0
            },
            {
                "start_time": 104.85454545454544,
                "end_time": 104.87045454545454,
                "pitch": 70,
                "velocity": 40,
                "duration": 0.01590909090909065,
                "tempo": 120.0
            },
            {
                "start_time": 104.87045454545454,
                "end_time": 104.88636363636363,
                "pitch": 66,
                "velocity": 40,
                "duration": 0.01590909090909065,
                "tempo": 120.0
            },
            {
                "start_time": 104.88636363636363,
                "end_time": 104.90227272727272,
                "pitch": 64,
                "velocity": 40,
                "duration": 0.01590909090909065,
                "tempo": 120.0
            },
            {
                "start_time": 104.90227272727272,
                "end_time": 104.91818181818181,
                "pitch": 61,
                "velocity": 40,
                "duration": 0.01590909090909065,
                "tempo": 120.0
            },
            {
                "start_time": 104.91818181818181,
                "end_time": 104.9340909090909,
                "pitch": 57,
                "velocity": 40,
                "duration": 0.01590909090909065,
                "tempo": 120.0
            },
            {
                "start_time": 104.9340909090909,
                "end_time": 104.95227272727273,
                "pitch": 54,
                "velocity": 40,
                "duration": 0.018181818181830067,
                "tempo": 120.0
            },
            {
                "start_time": 104.95227272727273,
                "end_time": 104.96818181818182,
                "pitch": 51,
                "velocity": 40,
                "duration": 0.01590909090909065,
                "tempo": 120.0
            },
            {
                "start_time": 104.96818181818182,
                "end_time": 104.98409090909091,
                "pitch": 48,
                "velocity": 40,
                "duration": 0.01590909090909065,
                "tempo": 120.0
            },
            {
                "start_time": 104.98409090909091,
                "end_time": 105.00227272727273,
                "pitch": 70,
                "velocity": 40,
                "duration": 0.018181818181815856,
                "tempo": 120.0
            },
            {
                "start_time": 105.00227272727273,
                "end_time": 105.01818181818182,
                "pitch": 66,
                "velocity": 40,
                "duration": 0.01590909090909065,
                "tempo": 120.0
            },
            {
                "start_time": 105.01818181818182,
                "end_time": 105.03636363636363,
                "pitch": 63,
                "velocity": 40,
                "duration": 0.018181818181815856,
                "tempo": 120.0
            },
            {
                "start_time": 105.03636363636363,
                "end_time": 105.05227272727272,
                "pitch": 60,
                "velocity": 40,
                "duration": 0.01590909090909065,
                "tempo": 120.0
            },
            {
                "start_time": 105.05227272727272,
                "end_time": 105.07045454545454,
                "pitch": 56,
                "velocity": 40,
                "duration": 0.018181818181815856,
                "tempo": 120.0
            },
            {
                "start_time": 105.07045454545454,
                "end_time": 105.08863636363635,
                "pitch": 53,
                "velocity": 40,
                "duration": 0.018181818181815856,
                "tempo": 120.0
            },
            {
                "start_time": 105.08863636363635,
                "end_time": 105.10454545454544,
                "pitch": 50,
                "velocity": 40,
                "duration": 0.01590909090909065,
                "tempo": 120.0
            },
            {
                "start_time": 105.10454545454544,
                "end_time": 105.12272727272726,
                "pitch": 46,
                "velocity": 40,
                "duration": 0.018181818181815856,
                "tempo": 120.0
            },
            {
                "start_time": 105.12272727272726,
                "end_time": 105.13863636363637,
                "pitch": 42,
                "velocity": 40,
                "duration": 0.01590909090910486,
                "tempo": 120.0
            },
            {
                "start_time": 105.13863636363637,
                "end_time": 105.15681818181818,
                "pitch": 67,
                "velocity": 40,
                "duration": 0.018181818181815856,
                "tempo": 120.0
            },
            {
                "start_time": 105.15681818181818,
                "end_time": 105.2090909090909,
                "pitch": 66,
                "velocity": 40,
                "duration": 0.052272727272722364,
                "tempo": 120.0
            },
            {
                "start_time": 105.2090909090909,
                "end_time": 105.26136363636363,
                "pitch": 64,
                "velocity": 40,
                "duration": 0.052272727272722364,
                "tempo": 120.0
            },
            {
                "start_time": 105.26136363636363,
                "end_time": 105.29545454545455,
                "pitch": 61,
                "velocity": 40,
                "duration": 0.03409090909092072,
                "tempo": 120.0
            },
            {
                "start_time": 105.29545454545455,
                "end_time": 105.31136363636364,
                "pitch": 73,
                "velocity": 40,
                "duration": 0.01590909090909065,
                "tempo": 120.0
            },
            {
                "start_time": 105.31136363636364,
                "end_time": 105.32727272727273,
                "pitch": 70,
                "velocity": 40,
                "duration": 0.01590909090909065,
                "tempo": 120.0
            },
            {
                "start_time": 105.32727272727273,
                "end_time": 105.34545454545454,
                "pitch": 66,
                "velocity": 40,
                "duration": 0.018181818181815856,
                "tempo": 120.0
            },
            {
                "start_time": 105.34545454545454,
                "end_time": 105.36136363636363,
                "pitch": 64,
                "velocity": 40,
                "duration": 0.01590909090909065,
                "tempo": 120.0
            },
            {
                "start_time": 105.36136363636363,
                "end_time": 105.37727272727273,
                "pitch": 61,
                "velocity": 40,
                "duration": 0.01590909090909065,
                "tempo": 120.0
            },
            {
                "start_time": 105.37727272727273,
                "end_time": 105.39545454545454,
                "pitch": 57,
                "velocity": 40,
                "duration": 0.018181818181815856,
                "tempo": 120.0
            },
            {
                "start_time": 105.39545454545454,
                "end_time": 105.41136363636363,
                "pitch": 54,
                "velocity": 40,
                "duration": 0.01590909090909065,
                "tempo": 120.0
            },
            {
                "start_time": 105.41136363636363,
                "end_time": 105.42727272727272,
                "pitch": 51,
                "velocity": 40,
                "duration": 0.01590909090909065,
                "tempo": 120.0
            },
            {
                "start_time": 105.42727272727272,
                "end_time": 105.44545454545454,
                "pitch": 48,
                "velocity": 40,
                "duration": 0.018181818181815856,
                "tempo": 120.0
            },
            {
                "start_time": 105.44545454545454,
                "end_time": 105.46136363636363,
                "pitch": 70,
                "velocity": 40,
                "duration": 0.01590909090909065,
                "tempo": 120.0
            },
            {
                "start_time": 105.46136363636363,
                "end_time": 105.47727272727272,
                "pitch": 66,
                "velocity": 40,
                "duration": 0.01590909090909065,
                "tempo": 120.0
            },
            {
                "start_time": 105.47727272727272,
                "end_time": 105.49545454545454,
                "pitch": 63,
                "velocity": 40,
                "duration": 0.018181818181815856,
                "tempo": 120.0
            },
            {
                "start_time": 105.49545454545454,
                "end_time": 105.51136363636363,
                "pitch": 60,
                "velocity": 40,
                "duration": 0.01590909090909065,
                "tempo": 120.0
            },
            {
                "start_time": 105.51136363636363,
                "end_time": 105.52727272727272,
                "pitch": 56,
                "velocity": 40,
                "duration": 0.01590909090909065,
                "tempo": 120.0
            },
            {
                "start_time": 105.52727272727272,
                "end_time": 105.54545454545455,
                "pitch": 53,
                "velocity": 40,
                "duration": 0.018181818181830067,
                "tempo": 120.0
            },
            {
                "start_time": 105.54545454545455,
                "end_time": 105.56136363636364,
                "pitch": 50,
                "velocity": 40,
                "duration": 0.01590909090909065,
                "tempo": 120.0
            },
            {
                "start_time": 105.56136363636364,
                "end_time": 105.57727272727273,
                "pitch": 46,
                "velocity": 40,
                "duration": 0.01590909090909065,
                "tempo": 120.0
            },
            {
                "start_time": 105.57727272727273,
                "end_time": 105.59318181818182,
                "pitch": 42,
                "velocity": 40,
                "duration": 0.01590909090909065,
                "tempo": 120.0
            }
        ],
        "Acoustic Bass": [
            {
                "start_time": 0.0,
                "end_time": 0.1340909090909091,
                "pitch": 51,
                "velocity": 51,
                "duration": 0.1340909090909091,
                "tempo": 120.0
            },
            {
                "start_time": 0.15454545454545454,
                "end_time": 0.33409090909090905,
                "pitch": 63,
                "velocity": 51,
                "duration": 0.1795454545454545,
                "tempo": 120.0
            },
            {
                "start_time": 0.35,
                "end_time": 0.48409090909090907,
                "pitch": 51,
                "velocity": 51,
                "duration": 0.1340909090909091,
                "tempo": 120.0
            },
            {
                "start_time": 0.5,
                "end_time": 0.634090909090909,
                "pitch": 63,
                "velocity": 51,
                "duration": 0.13409090909090904,
                "tempo": 120.0
            },
            {
                "start_time": 0.65,
                "end_time": 0.7840909090909091,
                "pitch": 51,
                "velocity": 51,
                "duration": 0.13409090909090904,
                "tempo": 120.0
            },
            {
                "start_time": 0.7999999999999999,
                "end_time": 0.9340909090909091,
                "pitch": 63,
                "velocity": 51,
                "duration": 0.13409090909090915,
                "tempo": 120.0
            },
            {
                "start_time": 0.9522727272727273,
                "end_time": 1.084090909090909,
                "pitch": 51,
                "velocity": 51,
                "duration": 0.13181818181818172,
                "tempo": 120.0
            },
            {
                "start_time": 1.1022727272727273,
                "end_time": 1.2340909090909091,
                "pitch": 63,
                "velocity": 51,
                "duration": 0.13181818181818183,
                "tempo": 120.0
            },
            {
                "start_time": 1.2522727272727272,
                "end_time": 1.384090909090909,
                "pitch": 51,
                "velocity": 51,
                "duration": 0.13181818181818183,
                "tempo": 120.0
            },
            {
                "start_time": 1.4022727272727271,
                "end_time": 1.534090909090909,
                "pitch": 63,
                "velocity": 51,
                "duration": 0.13181818181818183,
                "tempo": 120.0
            },
            {
                "start_time": 1.5522727272727272,
                "end_time": 1.690909090909091,
                "pitch": 51,
                "velocity": 51,
                "duration": 0.13863636363636367,
                "tempo": 120.0
            },
            {
                "start_time": 1.7068181818181818,
                "end_time": 1.8454545454545455,
                "pitch": 63,
                "velocity": 51,
                "duration": 0.13863636363636367,
                "tempo": 120.0
            },
            {
                "start_time": 1.8613636363636363,
                "end_time": 1.9909090909090907,
                "pitch": 51,
                "velocity": 51,
                "duration": 0.1295454545454544,
                "tempo": 120.0
            },
            {
                "start_time": 2.006818181818182,
                "end_time": 2.1363636363636362,
                "pitch": 60,
                "velocity": 51,
                "duration": 0.1295454545454544,
                "tempo": 120.0
            },
            {
                "start_time": 2.1522727272727273,
                "end_time": 2.286363636363636,
                "pitch": 62,
                "velocity": 51,
                "duration": 0.13409090909090882,
                "tempo": 120.0
            },
            {
                "start_time": 2.3022727272727272,
                "end_time": 2.436363636363636,
                "pitch": 63,
                "velocity": 51,
                "duration": 0.13409090909090882,
                "tempo": 120.0
            },
            {
                "start_time": 2.452272727272727,
                "end_time": 2.5863636363636364,
                "pitch": 53,
                "velocity": 51,
                "duration": 0.13409090909090926,
                "tempo": 120.0
            },
            {
                "start_time": 2.6045454545454545,
                "end_time": 2.7386363636363633,
                "pitch": 65,
                "velocity": 51,
                "duration": 0.13409090909090882,
                "tempo": 120.0
            },
            {
                "start_time": 2.7545454545454544,
                "end_time": 2.893181818181818,
                "pitch": 53,
                "velocity": 51,
                "duration": 0.13863636363636367,
                "tempo": 120.0
            },
            {
                "start_time": 2.911363636363636,
                "end_time": 3.0477272727272724,
                "pitch": 65,
                "velocity": 51,
                "duration": 0.13636363636363624,
                "tempo": 120.0
            },
            {
                "start_time": 3.065909090909091,
                "end_time": 3.1954545454545453,
                "pitch": 53,
                "velocity": 51,
                "duration": 0.1295454545454544,
                "tempo": 120.0
            },
            {
                "start_time": 3.2113636363636364,
                "end_time": 3.340909090909091,
                "pitch": 65,
                "velocity": 51,
                "duration": 0.1295454545454544,
                "tempo": 120.0
            },
            {
                "start_time": 3.3568181818181815,
                "end_time": 3.4909090909090907,
                "pitch": 53,
                "velocity": 51,
                "duration": 0.13409090909090926,
                "tempo": 120.0
            },
            {
                "start_time": 3.506818181818182,
                "end_time": 3.6409090909090907,
                "pitch": 65,
                "velocity": 51,
                "duration": 0.13409090909090882,
                "tempo": 120.0
            },
            {
                "start_time": 3.6568181818181817,
                "end_time": 3.7909090909090906,
                "pitch": 53,
                "velocity": 51,
                "duration": 0.13409090909090882,
                "tempo": 120.0
            },
            {
                "start_time": 3.8068181818181817,
                "end_time": 3.940909090909091,
                "pitch": 65,
                "velocity": 51,
                "duration": 0.13409090909090926,
                "tempo": 120.0
            },
            {
                "start_time": 3.9568181818181816,
                "end_time": 4.090909090909091,
                "pitch": 53,
                "velocity": 51,
                "duration": 0.13409090909090926,
                "tempo": 120.0
            },
            {
                "start_time": 4.1068181818181815,
                "end_time": 4.24090909090909,
                "pitch": 65,
                "velocity": 51,
                "duration": 0.13409090909090882,
                "tempo": 120.0
            },
            {
                "start_time": 4.259090909090909,
                "end_time": 4.393181818181818,
                "pitch": 53,
                "velocity": 51,
                "duration": 0.13409090909090882,
                "tempo": 120.0
            },
            {
                "start_time": 4.409090909090909,
                "end_time": 4.543181818181818,
                "pitch": 67,
                "velocity": 51,
                "duration": 0.13409090909090882,
                "tempo": 120.0
            },
            {
                "start_time": 4.559090909090909,
                "end_time": 4.693181818181818,
                "pitch": 65,
                "velocity": 51,
                "duration": 0.1340909090909097,
                "tempo": 120.0
            },
            {
                "start_time": 4.709090909090909,
                "end_time": 4.843181818181818,
                "pitch": 63,
                "velocity": 51,
                "duration": 0.13409090909090882,
                "tempo": 120.0
            },
            {
                "start_time": 4.8590909090909085,
                "end_time": 4.993181818181818,
                "pitch": 51,
                "velocity": 51,
                "duration": 0.1340909090909097,
                "tempo": 120.0
            },
            {
                "start_time": 5.009090909090909,
                "end_time": 5.143181818181818,
                "pitch": 63,
                "velocity": 51,
                "duration": 0.13409090909090882,
                "tempo": 120.0
            },
            {
                "start_time": 5.159090909090909,
                "end_time": 5.293181818181818,
                "pitch": 51,
                "velocity": 51,
                "duration": 0.13409090909090882,
                "tempo": 120.0
            },
            {
                "start_time": 5.309090909090909,
                "end_time": 5.443181818181818,
                "pitch": 63,
                "velocity": 51,
                "duration": 0.1340909090909097,
                "tempo": 120.0
            },
            {
                "start_time": 5.459090909090909,
                "end_time": 5.593181818181818,
                "pitch": 51,
                "velocity": 51,
                "duration": 0.13409090909090882,
                "tempo": 120.0
            },
            {
                "start_time": 5.6090909090909085,
                "end_time": 5.743181818181818,
                "pitch": 63,
                "velocity": 51,
                "duration": 0.1340909090909097,
                "tempo": 120.0
            },
            {
                "start_time": 5.759090909090909,
                "end_time": 5.893181818181818,
                "pitch": 51,
                "velocity": 51,
                "duration": 0.13409090909090882,
                "tempo": 120.0
            },
            {
                "start_time": 5.911363636363636,
                "end_time": 6.045454545454545,
                "pitch": 63,
                "velocity": 51,
                "duration": 0.13409090909090882,
                "tempo": 120.0
            },
            {
                "start_time": 6.0613636363636365,
                "end_time": 6.195454545454545,
                "pitch": 51,
                "velocity": 51,
                "duration": 0.13409090909090882,
                "tempo": 120.0
            },
            {
                "start_time": 6.211363636363636,
                "end_time": 6.345454545454545,
                "pitch": 63,
                "velocity": 51,
                "duration": 0.13409090909090882,
                "tempo": 120.0
            },
            {
                "start_time": 6.361363636363636,
                "end_time": 6.495454545454545,
                "pitch": 51,
                "velocity": 51,
                "duration": 0.13409090909090882,
                "tempo": 120.0
            },
            {
                "start_time": 6.511363636363636,
                "end_time": 6.6454545454545455,
                "pitch": 63,
                "velocity": 51,
                "duration": 0.1340909090909097,
                "tempo": 120.0
            },
            {
                "start_time": 6.661363636363636,
                "end_time": 6.795454545454545,
                "pitch": 51,
                "velocity": 51,
                "duration": 0.13409090909090882,
                "tempo": 120.0
            },
            {
                "start_time": 6.811363636363636,
                "end_time": 6.945454545454545,
                "pitch": 60,
                "velocity": 51,
                "duration": 0.1340909090909097,
                "tempo": 120.0
            },
            {
                "start_time": 6.961363636363636,
                "end_time": 7.095454545454545,
                "pitch": 62,
                "velocity": 51,
                "duration": 0.13409090909090882,
                "tempo": 120.0
            },
            {
                "start_time": 7.111363636363636,
                "end_time": 7.245454545454545,
                "pitch": 63,
                "velocity": 51,
                "duration": 0.13409090909090882,
                "tempo": 120.0
            },
            {
                "start_time": 7.261363636363636,
                "end_time": 7.3954545454545455,
                "pitch": 53,
                "velocity": 51,
                "duration": 0.1340909090909097,
                "tempo": 120.0
            },
            {
                "start_time": 7.411363636363636,
                "end_time": 7.445454545454545,
                "pitch": 53,
                "velocity": 51,
                "duration": 0.03409090909090917,
                "tempo": 120.0
            },
            {
                "start_time": 8.013636363636364,
                "end_time": 8.145454545454545,
                "pitch": 53,
                "velocity": 51,
                "duration": 0.13181818181818095,
                "tempo": 120.0
            },
            {
                "start_time": 8.163636363636364,
                "end_time": 8.197727272727272,
                "pitch": 53,
                "velocity": 51,
                "duration": 0.034090909090908283,
                "tempo": 120.0
            },
            {
                "start_time": 8.763636363636364,
                "end_time": 9.059090909090909,
                "pitch": 58,
                "velocity": 51,
                "duration": 0.29545454545454497,
                "tempo": 120.0
            },
            {
                "start_time": 9.075,
                "end_time": 9.35,
                "pitch": 58,
                "velocity": 51,
                "duration": 0.27500000000000036,
                "tempo": 120.0
            },
            {
                "start_time": 9.36590909090909,
                "end_time": 9.65,
                "pitch": 58,
                "velocity": 51,
                "duration": 0.28409090909091006,
                "tempo": 120.0
            },
            {
                "start_time": 9.668181818181818,
                "end_time": 9.802272727272726,
                "pitch": 51,
                "velocity": 51,
                "duration": 0.13409090909090793,
                "tempo": 120.0
            },
            {
                "start_time": 9.818181818181818,
                "end_time": 9.952272727272726,
                "pitch": 51,
                "velocity": 51,
                "duration": 0.13409090909090793,
                "tempo": 120.0
            },
            {
                "start_time": 9.968181818181817,
                "end_time": 10.102272727272727,
                "pitch": 63,
                "velocity": 51,
                "duration": 0.1340909090909097,
                "tempo": 120.0
            },
            {
                "start_time": 10.118181818181817,
                "end_time": 10.252272727272727,
                "pitch": 51,
                "velocity": 51,
                "duration": 0.1340909090909097,
                "tempo": 120.0
            },
            {
                "start_time": 10.268181818181818,
                "end_time": 10.402272727272727,
                "pitch": 51,
                "velocity": 51,
                "duration": 0.1340909090909097,
                "tempo": 120.0
            },
            {
                "start_time": 10.420454545454545,
                "end_time": 10.554545454545455,
                "pitch": 63,
                "velocity": 51,
                "duration": 0.1340909090909097,
                "tempo": 120.0
            },
            {
                "start_time": 10.570454545454545,
                "end_time": 10.704545454545453,
                "pitch": 51,
                "velocity": 51,
                "duration": 0.13409090909090793,
                "tempo": 120.0
            },
            {
                "start_time": 10.720454545454546,
                "end_time": 10.854545454545454,
                "pitch": 63,
                "velocity": 51,
                "duration": 0.13409090909090793,
                "tempo": 120.0
            },
            {
                "start_time": 10.870454545454544,
                "end_time": 11.004545454545454,
                "pitch": 51,
                "velocity": 51,
                "duration": 0.1340909090909097,
                "tempo": 120.0
            },
            {
                "start_time": 11.020454545454545,
                "end_time": 11.154545454545454,
                "pitch": 51,
                "velocity": 51,
                "duration": 0.1340909090909097,
                "tempo": 120.0
            },
            {
                "start_time": 11.172727272727272,
                "end_time": 11.306818181818182,
                "pitch": 63,
                "velocity": 51,
                "duration": 0.1340909090909097,
                "tempo": 120.0
            },
            {
                "start_time": 11.322727272727272,
                "end_time": 11.456818181818182,
                "pitch": 51,
                "velocity": 51,
                "duration": 0.1340909090909097,
                "tempo": 120.0
            },
            {
                "start_time": 11.472727272727273,
                "end_time": 11.60681818181818,
                "pitch": 51,
                "velocity": 51,
                "duration": 0.13409090909090793,
                "tempo": 120.0
            },
            {
                "start_time": 11.622727272727273,
                "end_time": 11.756818181818181,
                "pitch": 63,
                "velocity": 51,
                "duration": 0.13409090909090793,
                "tempo": 120.0
            },
            {
                "start_time": 11.772727272727272,
                "end_time": 11.906818181818181,
                "pitch": 51,
                "velocity": 51,
                "duration": 0.1340909090909097,
                "tempo": 120.0
            },
            {
                "start_time": 11.924999999999999,
                "end_time": 12.059090909090909,
                "pitch": 63,
                "velocity": 51,
                "duration": 0.1340909090909097,
                "tempo": 120.0
            },
            {
                "start_time": 12.075,
                "end_time": 12.209090909090909,
                "pitch": 46,
                "velocity": 51,
                "duration": 0.1340909090909097,
                "tempo": 120.0
            },
            {
                "start_time": 12.225,
                "end_time": 12.35909090909091,
                "pitch": 46,
                "velocity": 51,
                "duration": 0.1340909090909097,
                "tempo": 120.0
            },
            {
                "start_time": 12.375,
                "end_time": 12.509090909090908,
                "pitch": 58,
                "velocity": 51,
                "duration": 0.13409090909090793,
                "tempo": 120.0
            },
            {
                "start_time": 12.524999999999999,
                "end_time": 12.659090909090908,
                "pitch": 46,
                "velocity": 51,
                "duration": 0.1340909090909097,
                "tempo": 120.0
            },
            {
                "start_time": 12.677272727272726,
                "end_time": 12.81590909090909,
                "pitch": 46,
                "velocity": 51,
                "duration": 0.13863636363636367,
                "tempo": 120.0
            },
            {
                "start_time": 12.831818181818182,
                "end_time": 12.970454545454546,
                "pitch": 58,
                "velocity": 51,
                "duration": 0.13863636363636367,
                "tempo": 120.0
            },
            {
                "start_time": 12.986363636363636,
                "end_time": 13.120454545454544,
                "pitch": 46,
                "velocity": 51,
                "duration": 0.13409090909090793,
                "tempo": 120.0
            },
            {
                "start_time": 13.136363636363635,
                "end_time": 13.270454545454545,
                "pitch": 46,
                "velocity": 51,
                "duration": 0.1340909090909097,
                "tempo": 120.0
            },
            {
                "start_time": 13.286363636363635,
                "end_time": 13.415909090909091,
                "pitch": 46,
                "velocity": 51,
                "duration": 0.12954545454545574,
                "tempo": 120.0
            },
            {
                "start_time": 13.431818181818182,
                "end_time": 13.561363636363636,
                "pitch": 46,
                "velocity": 51,
                "duration": 0.12954545454545396,
                "tempo": 120.0
            },
            {
                "start_time": 13.579545454545453,
                "end_time": 13.71590909090909,
                "pitch": 58,
                "velocity": 51,
                "duration": 0.1363636363636367,
                "tempo": 120.0
            },
            {
                "start_time": 13.734090909090908,
                "end_time": 13.872727272727271,
                "pitch": 46,
                "velocity": 51,
                "duration": 0.13863636363636367,
                "tempo": 120.0
            },
            {
                "start_time": 13.888636363636364,
                "end_time": 14.018181818181818,
                "pitch": 60,
                "velocity": 51,
                "duration": 0.12954545454545396,
                "tempo": 120.0
            },
            {
                "start_time": 14.034090909090908,
                "end_time": 14.163636363636362,
                "pitch": 46,
                "velocity": 51,
                "duration": 0.12954545454545396,
                "tempo": 120.0
            },
            {
                "start_time": 14.179545454545455,
                "end_time": 14.313636363636363,
                "pitch": 58,
                "velocity": 51,
                "duration": 0.13409090909090793,
                "tempo": 120.0
            },
            {
                "start_time": 14.33181818181818,
                "end_time": 14.46590909090909,
                "pitch": 46,
                "velocity": 51,
                "duration": 0.1340909090909097,
                "tempo": 120.0
            },
            {
                "start_time": 14.48181818181818,
                "end_time": 14.61590909090909,
                "pitch": 53,
                "velocity": 51,
                "duration": 0.1340909090909097,
                "tempo": 120.0
            },
            {
                "start_time": 14.631818181818181,
                "end_time": 14.76590909090909,
                "pitch": 53,
                "velocity": 51,
                "duration": 0.1340909090909097,
                "tempo": 120.0
            },
            {
                "start_time": 14.781818181818181,
                "end_time": 14.915909090909091,
                "pitch": 65,
                "velocity": 51,
                "duration": 0.1340909090909097,
                "tempo": 120.0
            },
            {
                "start_time": 14.931818181818182,
                "end_time": 15.06590909090909,
                "pitch": 53,
                "velocity": 51,
                "duration": 0.13409090909090793,
                "tempo": 120.0
            },
            {
                "start_time": 15.084090909090909,
                "end_time": 15.21590909090909,
                "pitch": 53,
                "velocity": 51,
                "duration": 0.13181818181818095,
                "tempo": 120.0
            },
            {
                "start_time": 15.234090909090908,
                "end_time": 15.36590909090909,
                "pitch": 65,
                "velocity": 51,
                "duration": 0.13181818181818272,
                "tempo": 120.0
            },
            {
                "start_time": 15.384090909090908,
                "end_time": 15.518181818181818,
                "pitch": 53,
                "velocity": 51,
                "duration": 0.1340909090909097,
                "tempo": 120.0
            },
            {
                "start_time": 15.534090909090908,
                "end_time": 15.668181818181818,
                "pitch": 65,
                "velocity": 51,
                "duration": 0.1340909090909097,
                "tempo": 120.0
            },
            {
                "start_time": 15.684090909090909,
                "end_time": 15.818181818181817,
                "pitch": 53,
                "velocity": 51,
                "duration": 0.13409090909090793,
                "tempo": 120.0
            },
            {
                "start_time": 15.836363636363636,
                "end_time": 15.970454545454544,
                "pitch": 53,
                "velocity": 51,
                "duration": 0.13409090909090793,
                "tempo": 120.0
            },
            {
                "start_time": 15.986363636363636,
                "end_time": 16.120454545454546,
                "pitch": 65,
                "velocity": 51,
                "duration": 0.1340909090909097,
                "tempo": 120.0
            },
            {
                "start_time": 16.136363636363637,
                "end_time": 16.270454545454545,
                "pitch": 53,
                "velocity": 51,
                "duration": 0.13409090909090793,
                "tempo": 120.0
            },
            {
                "start_time": 16.286363636363635,
                "end_time": 16.420454545454543,
                "pitch": 65,
                "velocity": 51,
                "duration": 0.13409090909090793,
                "tempo": 120.0
            },
            {
                "start_time": 16.436363636363634,
                "end_time": 16.570454545454545,
                "pitch": 53,
                "velocity": 51,
                "duration": 0.13409090909091148,
                "tempo": 120.0
            },
            {
                "start_time": 16.586363636363636,
                "end_time": 16.720454545454544,
                "pitch": 67,
                "velocity": 51,
                "duration": 0.13409090909090793,
                "tempo": 120.0
            },
            {
                "start_time": 16.736363636363635,
                "end_time": 16.870454545454546,
                "pitch": 65,
                "velocity": 51,
                "duration": 0.13409090909091148,
                "tempo": 120.0
            },
            {
                "start_time": 16.888636363636362,
                "end_time": 17.022727272727273,
                "pitch": 50,
                "velocity": 51,
                "duration": 0.13409090909091148,
                "tempo": 120.0
            },
            {
                "start_time": 17.038636363636364,
                "end_time": 17.172727272727272,
                "pitch": 50,
                "velocity": 51,
                "duration": 0.13409090909090793,
                "tempo": 120.0
            },
            {
                "start_time": 17.188636363636363,
                "end_time": 17.327272727272728,
                "pitch": 46,
                "velocity": 51,
                "duration": 0.13863636363636545,
                "tempo": 120.0
            },
            {
                "start_time": 17.345454545454544,
                "end_time": 17.48409090909091,
                "pitch": 46,
                "velocity": 51,
                "duration": 0.13863636363636545,
                "tempo": 120.0
            },
            {
                "start_time": 17.5,
                "end_time": 17.629545454545454,
                "pitch": 58,
                "velocity": 51,
                "duration": 0.12954545454545396,
                "tempo": 120.0
            },
            {
                "start_time": 17.645454545454545,
                "end_time": 17.775,
                "pitch": 46,
                "velocity": 51,
                "duration": 0.12954545454545396,
                "tempo": 120.0
            },
            {
                "start_time": 17.79090909090909,
                "end_time": 18.084090909090907,
                "pitch": 58,
                "velocity": 51,
                "duration": 0.293181818181818,
                "tempo": 120.0
            },
            {
                "start_time": 18.099999999999998,
                "end_time": 18.229545454545455,
                "pitch": 53,
                "velocity": 51,
                "duration": 0.12954545454545752,
                "tempo": 120.0
            },
            {
                "start_time": 18.245454545454546,
                "end_time": 18.375,
                "pitch": 53,
                "velocity": 51,
                "duration": 0.12954545454545396,
                "tempo": 120.0
            },
            {
                "start_time": 18.393181818181816,
                "end_time": 18.527272727272727,
                "pitch": 65,
                "velocity": 51,
                "duration": 0.13409090909091148,
                "tempo": 120.0
            },
            {
                "start_time": 18.543181818181818,
                "end_time": 18.677272727272726,
                "pitch": 65,
                "velocity": 51,
                "duration": 0.13409090909090793,
                "tempo": 120.0
            },
            {
                "start_time": 18.693181818181817,
                "end_time": 18.827272727272728,
                "pitch": 68,
                "velocity": 51,
                "duration": 0.13409090909091148,
                "tempo": 120.0
            },
            {
                "start_time": 18.845454545454544,
                "end_time": 18.979545454545455,
                "pitch": 68,
                "velocity": 51,
                "duration": 0.13409090909091148,
                "tempo": 120.0
            },
            {
                "start_time": 18.995454545454546,
                "end_time": 19.129545454545454,
                "pitch": 65,
                "velocity": 51,
                "duration": 0.13409090909090793,
                "tempo": 120.0
            },
            {
                "start_time": 19.145454545454545,
                "end_time": 19.279545454545453,
                "pitch": 65,
                "velocity": 51,
                "duration": 0.13409090909090793,
                "tempo": 120.0
            },
            {
                "start_time": 19.297727272727272,
                "end_time": 19.429545454545455,
                "pitch": 51,
                "velocity": 51,
                "duration": 0.13181818181818272,
                "tempo": 120.0
            },
            {
                "start_time": 19.44772727272727,
                "end_time": 19.579545454545453,
                "pitch": 51,
                "velocity": 51,
                "duration": 0.13181818181818272,
                "tempo": 120.0
            },
            {
                "start_time": 19.597727272727273,
                "end_time": 19.73181818181818,
                "pitch": 63,
                "velocity": 51,
                "duration": 0.13409090909090793,
                "tempo": 120.0
            },
            {
                "start_time": 19.74772727272727,
                "end_time": 19.88181818181818,
                "pitch": 51,
                "velocity": 51,
                "duration": 0.13409090909090793,
                "tempo": 120.0
            },
            {
                "start_time": 19.897727272727273,
                "end_time": 20.03181818181818,
                "pitch": 51,
                "velocity": 51,
                "duration": 0.13409090909090793,
                "tempo": 120.0
            },
            {
                "start_time": 20.05,
                "end_time": 20.18409090909091,
                "pitch": 63,
                "velocity": 51,
                "duration": 0.13409090909090793,
                "tempo": 120.0
            },
            {
                "start_time": 20.2,
                "end_time": 20.334090909090907,
                "pitch": 51,
                "velocity": 51,
                "duration": 0.13409090909090793,
                "tempo": 120.0
            },
            {
                "start_time": 20.349999999999998,
                "end_time": 20.48409090909091,
                "pitch": 63,
                "velocity": 51,
                "duration": 0.13409090909091148,
                "tempo": 120.0
            },
            {
                "start_time": 20.502272727272725,
                "end_time": 20.636363636363637,
                "pitch": 51,
                "velocity": 51,
                "duration": 0.13409090909091148,
                "tempo": 120.0
            },
            {
                "start_time": 20.652272727272727,
                "end_time": 20.786363636363635,
                "pitch": 51,
                "velocity": 51,
                "duration": 0.13409090909090793,
                "tempo": 120.0
            },
            {
                "start_time": 20.802272727272726,
                "end_time": 20.936363636363634,
                "pitch": 63,
                "velocity": 51,
                "duration": 0.13409090909090793,
                "tempo": 120.0
            },
            {
                "start_time": 20.952272727272724,
                "end_time": 21.086363636363636,
                "pitch": 51,
                "velocity": 51,
                "duration": 0.13409090909091148,
                "tempo": 120.0
            },
            {
                "start_time": 21.102272727272727,
                "end_time": 21.24090909090909,
                "pitch": 51,
                "velocity": 51,
                "duration": 0.1386363636363619,
                "tempo": 120.0
            },
            {
                "start_time": 21.259090909090908,
                "end_time": 21.397727272727273,
                "pitch": 63,
                "velocity": 51,
                "duration": 0.13863636363636545,
                "tempo": 120.0
            },
            {
                "start_time": 21.413636363636364,
                "end_time": 21.543181818181818,
                "pitch": 51,
                "velocity": 51,
                "duration": 0.12954545454545396,
                "tempo": 120.0
            },
            {
                "start_time": 21.55909090909091,
                "end_time": 21.688636363636363,
                "pitch": 63,
                "velocity": 51,
                "duration": 0.12954545454545396,
                "tempo": 120.0
            },
            {
                "start_time": 21.704545454545453,
                "end_time": 21.83863636363636,
                "pitch": 46,
                "velocity": 51,
                "duration": 0.13409090909090793,
                "tempo": 120.0
            },
            {
                "start_time": 21.85681818181818,
                "end_time": 21.988636363636363,
                "pitch": 46,
                "velocity": 51,
                "duration": 0.13181818181818272,
                "tempo": 120.0
            },
            {
                "start_time": 22.00681818181818,
                "end_time": 22.14090909090909,
                "pitch": 58,
                "velocity": 51,
                "duration": 0.13409090909091148,
                "tempo": 120.0
            },
            {
                "start_time": 22.15681818181818,
                "end_time": 22.29090909090909,
                "pitch": 46,
                "velocity": 51,
                "duration": 0.13409090909090793,
                "tempo": 120.0
            },
            {
                "start_time": 22.30909090909091,
                "end_time": 22.445454545454545,
                "pitch": 46,
                "velocity": 51,
                "duration": 0.1363636363636367,
                "tempo": 120.0
            },
            {
                "start_time": 22.46363636363636,
                "end_time": 22.602272727272727,
                "pitch": 58,
                "velocity": 51,
                "duration": 0.13863636363636545,
                "tempo": 120.0
            },
            {
                "start_time": 22.618181818181817,
                "end_time": 22.74772727272727,
                "pitch": 46,
                "velocity": 51,
                "duration": 0.12954545454545396,
                "tempo": 120.0
            },
            {
                "start_time": 22.763636363636362,
                "end_time": 22.893181818181816,
                "pitch": 46,
                "velocity": 51,
                "duration": 0.12954545454545396,
                "tempo": 120.0
            },
            {
                "start_time": 22.909090909090907,
                "end_time": 23.043181818181818,
                "pitch": 46,
                "velocity": 51,
                "duration": 0.13409090909091148,
                "tempo": 120.0
            },
            {
                "start_time": 23.061363636363634,
                "end_time": 23.195454545454545,
                "pitch": 46,
                "velocity": 51,
                "duration": 0.13409090909091148,
                "tempo": 120.0
            },
            {
                "start_time": 23.211363636363636,
                "end_time": 23.349999999999998,
                "pitch": 58,
                "velocity": 51,
                "duration": 0.1386363636363619,
                "tempo": 120.0
            },
            {
                "start_time": 23.36590909090909,
                "end_time": 23.504545454545454,
                "pitch": 46,
                "velocity": 51,
                "duration": 0.13863636363636545,
                "tempo": 120.0
            },
            {
                "start_time": 23.52272727272727,
                "end_time": 23.65681818181818,
                "pitch": 60,
                "velocity": 51,
                "duration": 0.13409090909091148,
                "tempo": 120.0
            },
            {
                "start_time": 23.672727272727272,
                "end_time": 23.80681818181818,
                "pitch": 46,
                "velocity": 51,
                "duration": 0.13409090909090793,
                "tempo": 120.0
            },
            {
                "start_time": 23.82272727272727,
                "end_time": 23.952272727272724,
                "pitch": 58,
                "velocity": 51,
                "duration": 0.12954545454545396,
                "tempo": 120.0
            },
            {
                "start_time": 23.96818181818182,
                "end_time": 24.097727272727273,
                "pitch": 46,
                "velocity": 51,
                "duration": 0.12954545454545396,
                "tempo": 120.0
            },
            {
                "start_time": 24.11590909090909,
                "end_time": 24.25,
                "pitch": 53,
                "velocity": 51,
                "duration": 0.13409090909091148,
                "tempo": 120.0
            },
            {
                "start_time": 24.26590909090909,
                "end_time": 24.4,
                "pitch": 53,
                "velocity": 51,
                "duration": 0.13409090909090793,
                "tempo": 120.0
            },
            {
                "start_time": 24.41590909090909,
                "end_time": 24.549999999999997,
                "pitch": 65,
                "velocity": 51,
                "duration": 0.13409090909090793,
                "tempo": 120.0
            },
            {
                "start_time": 24.568181818181817,
                "end_time": 24.702272727272724,
                "pitch": 53,
                "velocity": 51,
                "duration": 0.13409090909090793,
                "tempo": 120.0
            },
            {
                "start_time": 24.71818181818182,
                "end_time": 24.85681818181818,
                "pitch": 53,
                "velocity": 51,
                "duration": 0.1386363636363619,
                "tempo": 120.0
            },
            {
                "start_time": 24.87272727272727,
                "end_time": 25.011363636363637,
                "pitch": 65,
                "velocity": 51,
                "duration": 0.13863636363636545,
                "tempo": 120.0
            },
            {
                "start_time": 25.027272727272727,
                "end_time": 25.15681818181818,
                "pitch": 53,
                "velocity": 51,
                "duration": 0.12954545454545396,
                "tempo": 120.0
            },
            {
                "start_time": 25.172727272727272,
                "end_time": 25.302272727272726,
                "pitch": 65,
                "velocity": 51,
                "duration": 0.12954545454545396,
                "tempo": 120.0
            },
            {
                "start_time": 25.320454545454545,
                "end_time": 25.452272727272724,
                "pitch": 53,
                "velocity": 51,
                "duration": 0.13181818181817917,
                "tempo": 120.0
            },
            {
                "start_time": 25.470454545454544,
                "end_time": 25.602272727272727,
                "pitch": 53,
                "velocity": 51,
                "duration": 0.13181818181818272,
                "tempo": 120.0
            },
            {
                "start_time": 25.620454545454542,
                "end_time": 25.754545454545454,
                "pitch": 65,
                "velocity": 51,
                "duration": 0.13409090909091148,
                "tempo": 120.0
            },
            {
                "start_time": 25.770454545454545,
                "end_time": 25.904545454545453,
                "pitch": 53,
                "velocity": 51,
                "duration": 0.13409090909090793,
                "tempo": 120.0
            },
            {
                "start_time": 25.920454545454543,
                "end_time": 26.054545454545455,
                "pitch": 67,
                "velocity": 51,
                "duration": 0.13409090909091148,
                "tempo": 120.0
            },
            {
                "start_time": 26.07272727272727,
                "end_time": 26.206818181818182,
                "pitch": 65,
                "velocity": 51,
                "duration": 0.13409090909091148,
                "tempo": 120.0
            },
            {
                "start_time": 26.222727272727273,
                "end_time": 26.35681818181818,
                "pitch": 63,
                "velocity": 51,
                "duration": 0.13409090909090793,
                "tempo": 120.0
            },
            {
                "start_time": 26.37272727272727,
                "end_time": 26.50681818181818,
                "pitch": 65,
                "velocity": 51,
                "duration": 0.13409090909090793,
                "tempo": 120.0
            },
            {
                "start_time": 26.525,
                "end_time": 26.659090909090907,
                "pitch": 51,
                "velocity": 51,
                "duration": 0.13409090909090793,
                "tempo": 120.0
            },
            {
                "start_time": 26.674999999999997,
                "end_time": 26.80909090909091,
                "pitch": 51,
                "velocity": 51,
                "duration": 0.13409090909091148,
                "tempo": 120.0
            },
            {
                "start_time": 26.825,
                "end_time": 26.959090909090907,
                "pitch": 63,
                "velocity": 51,
                "duration": 0.13409090909090793,
                "tempo": 120.0
            },
            {
                "start_time": 26.974999999999998,
                "end_time": 27.10909090909091,
                "pitch": 51,
                "velocity": 51,
                "duration": 0.13409090909091148,
                "tempo": 120.0
            },
            {
                "start_time": 27.125,
                "end_time": 27.259090909090908,
                "pitch": 63,
                "velocity": 51,
                "duration": 0.13409090909090793,
                "tempo": 120.0
            },
            {
                "start_time": 27.277272727272727,
                "end_time": 27.411363636363635,
                "pitch": 51,
                "velocity": 51,
                "duration": 0.13409090909090793,
                "tempo": 120.0
            },
            {
                "start_time": 27.427272727272726,
                "end_time": 27.561363636363634,
                "pitch": 63,
                "velocity": 51,
                "duration": 0.13409090909090793,
                "tempo": 120.0
            },
            {
                "start_time": 27.577272727272724,
                "end_time": 27.711363636363636,
                "pitch": 51,
                "velocity": 51,
                "duration": 0.13409090909091148,
                "tempo": 120.0
            },
            {
                "start_time": 27.729545454545452,
                "end_time": 27.868181818181817,
                "pitch": 63,
                "velocity": 51,
                "duration": 0.13863636363636545,
                "tempo": 120.0
            },
            {
                "start_time": 28.329545454545453,
                "end_time": 28.625,
                "pitch": 48,
                "velocity": 51,
                "duration": 0.29545454545454675,
                "tempo": 120.0
            },
            {
                "start_time": 28.64090909090909,
                "end_time": 28.924999999999997,
                "pitch": 50,
                "velocity": 51,
                "duration": 0.2840909090909065,
                "tempo": 120.0
            },
            {
                "start_time": 28.943181818181817,
                "end_time": 29.077272727272724,
                "pitch": 51,
                "velocity": 51,
                "duration": 0.13409090909090793,
                "tempo": 120.0
            },
            {
                "start_time": 29.093181818181815,
                "end_time": 29.227272727272727,
                "pitch": 63,
                "velocity": 51,
                "duration": 0.13409090909091148,
                "tempo": 120.0
            },
            {
                "start_time": 29.243181818181817,
                "end_time": 29.37272727272727,
                "pitch": 51,
                "velocity": 51,
                "duration": 0.12954545454545396,
                "tempo": 120.0
            },
            {
                "start_time": 29.388636363636362,
                "end_time": 29.518181818181816,
                "pitch": 63,
                "velocity": 51,
                "duration": 0.12954545454545396,
                "tempo": 120.0
            },
            {
                "start_time": 29.536363636363635,
                "end_time": 29.670454545454543,
                "pitch": 51,
                "velocity": 51,
                "duration": 0.13409090909090793,
                "tempo": 120.0
            },
            {
                "start_time": 29.686363636363634,
                "end_time": 29.820454545454545,
                "pitch": 63,
                "velocity": 51,
                "duration": 0.13409090909091148,
                "tempo": 120.0
            },
            {
                "start_time": 29.836363636363636,
                "end_time": 29.970454545454544,
                "pitch": 51,
                "velocity": 51,
                "duration": 0.13409090909090793,
                "tempo": 120.0
            },
            {
                "start_time": 29.986363636363635,
                "end_time": 30.120454545454542,
                "pitch": 63,
                "velocity": 51,
                "duration": 0.13409090909090793,
                "tempo": 120.0
            },
            {
                "start_time": 30.136363636363633,
                "end_time": 30.270454545454545,
                "pitch": 51,
                "velocity": 51,
                "duration": 0.13409090909091148,
                "tempo": 120.0
            },
            {
                "start_time": 30.28863636363636,
                "end_time": 30.422727272727272,
                "pitch": 63,
                "velocity": 51,
                "duration": 0.13409090909091148,
                "tempo": 120.0
            },
            {
                "start_time": 30.438636363636363,
                "end_time": 30.57272727272727,
                "pitch": 51,
                "velocity": 51,
                "duration": 0.13409090909090793,
                "tempo": 120.0
            },
            {
                "start_time": 30.58863636363636,
                "end_time": 30.722727272727273,
                "pitch": 63,
                "velocity": 51,
                "duration": 0.13409090909091148,
                "tempo": 120.0
            },
            {
                "start_time": 30.74090909090909,
                "end_time": 30.875,
                "pitch": 51,
                "velocity": 51,
                "duration": 0.13409090909091148,
                "tempo": 120.0
            },
            {
                "start_time": 30.89090909090909,
                "end_time": 31.025,
                "pitch": 60,
                "velocity": 51,
                "duration": 0.13409090909090793,
                "tempo": 120.0
            },
            {
                "start_time": 31.04090909090909,
                "end_time": 31.174999999999997,
                "pitch": 62,
                "velocity": 51,
                "duration": 0.13409090909090793,
                "tempo": 120.0
            },
            {
                "start_time": 31.193181818181817,
                "end_time": 31.327272727272724,
                "pitch": 63,
                "velocity": 51,
                "duration": 0.13409090909090793,
                "tempo": 120.0
            },
            {
                "start_time": 31.343181818181815,
                "end_time": 31.477272727272727,
                "pitch": 53,
                "velocity": 51,
                "duration": 0.13409090909091148,
                "tempo": 120.0
            },
            {
                "start_time": 31.493181818181817,
                "end_time": 31.627272727272725,
                "pitch": 65,
                "velocity": 51,
                "duration": 0.13409090909090793,
                "tempo": 120.0
            },
            {
                "start_time": 31.643181818181816,
                "end_time": 31.78181818181818,
                "pitch": 53,
                "velocity": 51,
                "duration": 0.13863636363636545,
                "tempo": 120.0
            },
            {
                "start_time": 31.797727272727272,
                "end_time": 31.936363636363634,
                "pitch": 65,
                "velocity": 51,
                "duration": 0.1386363636363619,
                "tempo": 120.0
            },
            {
                "start_time": 31.952272727272724,
                "end_time": 32.08181818181818,
                "pitch": 53,
                "velocity": 51,
                "duration": 0.12954545454545396,
                "tempo": 120.0
            },
            {
                "start_time": 32.09772727272727,
                "end_time": 32.22727272727273,
                "pitch": 65,
                "velocity": 51,
                "duration": 0.12954545454545752,
                "tempo": 120.0
            },
            {
                "start_time": 32.24545454545454,
                "end_time": 32.377272727272725,
                "pitch": 53,
                "velocity": 51,
                "duration": 0.13181818181818272,
                "tempo": 120.0
            },
            {
                "start_time": 32.39545454545454,
                "end_time": 32.527272727272724,
                "pitch": 65,
                "velocity": 51,
                "duration": 0.13181818181818272,
                "tempo": 120.0
            },
            {
                "start_time": 32.54545454545455,
                "end_time": 32.679545454545455,
                "pitch": 53,
                "velocity": 51,
                "duration": 0.13409090909090793,
                "tempo": 120.0
            },
            {
                "start_time": 32.695454545454545,
                "end_time": 32.82954545454545,
                "pitch": 65,
                "velocity": 51,
                "duration": 0.13409090909090793,
                "tempo": 120.0
            },
            {
                "start_time": 32.845454545454544,
                "end_time": 32.97954545454545,
                "pitch": 53,
                "velocity": 51,
                "duration": 0.13409090909090793,
                "tempo": 120.0
            },
            {
                "start_time": 32.99545454545454,
                "end_time": 33.12954545454545,
                "pitch": 65,
                "velocity": 51,
                "duration": 0.13409090909090793,
                "tempo": 120.0
            },
            {
                "start_time": 33.14545454545454,
                "end_time": 33.279545454545456,
                "pitch": 53,
                "velocity": 51,
                "duration": 0.13409090909091503,
                "tempo": 120.0
            },
            {
                "start_time": 33.29772727272727,
                "end_time": 33.43181818181818,
                "pitch": 67,
                "velocity": 51,
                "duration": 0.13409090909090793,
                "tempo": 120.0
            },
            {
                "start_time": 33.44772727272727,
                "end_time": 33.58181818181818,
                "pitch": 65,
                "velocity": 51,
                "duration": 0.13409090909090793,
                "tempo": 120.0
            },
            {
                "start_time": 33.59772727272727,
                "end_time": 33.73181818181818,
                "pitch": 63,
                "velocity": 51,
                "duration": 0.13409090909090793,
                "tempo": 120.0
            },
            {
                "start_time": 33.74772727272727,
                "end_time": 33.88181818181818,
                "pitch": 51,
                "velocity": 51,
                "duration": 0.13409090909091503,
                "tempo": 120.0
            },
            {
                "start_time": 33.89772727272727,
                "end_time": 34.03181818181818,
                "pitch": 63,
                "velocity": 51,
                "duration": 0.13409090909090793,
                "tempo": 120.0
            },
            {
                "start_time": 34.04772727272727,
                "end_time": 34.18181818181818,
                "pitch": 51,
                "velocity": 51,
                "duration": 0.13409090909090793,
                "tempo": 120.0
            },
            {
                "start_time": 34.19772727272727,
                "end_time": 34.33181818181818,
                "pitch": 63,
                "velocity": 51,
                "duration": 0.13409090909090793,
                "tempo": 120.0
            },
            {
                "start_time": 34.35,
                "end_time": 34.48181818181818,
                "pitch": 51,
                "velocity": 51,
                "duration": 0.13181818181817562,
                "tempo": 120.0
            },
            {
                "start_time": 34.5,
                "end_time": 34.63181818181818,
                "pitch": 63,
                "velocity": 51,
                "duration": 0.13181818181818272,
                "tempo": 120.0
            },
            {
                "start_time": 34.65,
                "end_time": 34.78409090909091,
                "pitch": 51,
                "velocity": 51,
                "duration": 0.13409090909090793,
                "tempo": 120.0
            },
            {
                "start_time": 34.8,
                "end_time": 34.934090909090905,
                "pitch": 63,
                "velocity": 51,
                "duration": 0.13409090909090793,
                "tempo": 120.0
            },
            {
                "start_time": 34.949999999999996,
                "end_time": 35.08409090909091,
                "pitch": 51,
                "velocity": 51,
                "duration": 0.13409090909091503,
                "tempo": 120.0
            },
            {
                "start_time": 35.1,
                "end_time": 35.23409090909091,
                "pitch": 63,
                "velocity": 51,
                "duration": 0.13409090909090793,
                "tempo": 120.0
            },
            {
                "start_time": 35.25,
                "end_time": 35.38409090909091,
                "pitch": 51,
                "velocity": 51,
                "duration": 0.13409090909090793,
                "tempo": 120.0
            },
            {
                "start_time": 35.4,
                "end_time": 35.53409090909091,
                "pitch": 63,
                "velocity": 51,
                "duration": 0.13409090909090793,
                "tempo": 120.0
            },
            {
                "start_time": 35.55,
                "end_time": 35.684090909090905,
                "pitch": 51,
                "velocity": 51,
                "duration": 0.13409090909090793,
                "tempo": 120.0
            },
            {
                "start_time": 35.70227272727273,
                "end_time": 35.836363636363636,
                "pitch": 60,
                "velocity": 51,
                "duration": 0.13409090909090793,
                "tempo": 120.0
            },
            {
                "start_time": 35.85227272727273,
                "end_time": 35.986363636363635,
                "pitch": 62,
                "velocity": 51,
                "duration": 0.13409090909090793,
                "tempo": 120.0
            },
            {
                "start_time": 36.002272727272725,
                "end_time": 36.13636363636363,
                "pitch": 63,
                "velocity": 51,
                "duration": 0.13409090909090793,
                "tempo": 120.0
            },
            {
                "start_time": 36.152272727272724,
                "end_time": 36.28636363636363,
                "pitch": 53,
                "velocity": 51,
                "duration": 0.13409090909090793,
                "tempo": 120.0
            },
            {
                "start_time": 36.30227272727272,
                "end_time": 36.43636363636364,
                "pitch": 65,
                "velocity": 51,
                "duration": 0.13409090909091503,
                "tempo": 120.0
            },
            {
                "start_time": 36.45454545454545,
                "end_time": 36.586363636363636,
                "pitch": 53,
                "velocity": 51,
                "duration": 0.13181818181818272,
                "tempo": 120.0
            },
            {
                "start_time": 36.60454545454545,
                "end_time": 36.736363636363635,
                "pitch": 65,
                "velocity": 51,
                "duration": 0.13181818181818272,
                "tempo": 120.0
            },
            {
                "start_time": 36.75454545454545,
                "end_time": 36.89545454545454,
                "pitch": 53,
                "velocity": 51,
                "duration": 0.14090909090909065,
                "tempo": 120.0
            },
            {
                "start_time": 36.913636363636364,
                "end_time": 37.05681818181818,
                "pitch": 65,
                "velocity": 51,
                "duration": 0.14318181818181586,
                "tempo": 120.0
            },
            {
                "start_time": 37.074999999999996,
                "end_time": 37.215909090909086,
                "pitch": 53,
                "velocity": 51,
                "duration": 0.14090909090909065,
                "tempo": 120.0
            },
            {
                "start_time": 37.24090909090909,
                "end_time": 37.43181818181818,
                "pitch": 65,
                "velocity": 51,
                "duration": 0.1909090909090878,
                "tempo": 120.0
            },
            {
                "start_time": 37.45681818181818,
                "end_time": 37.64772727272727,
                "pitch": 53,
                "velocity": 51,
                "duration": 0.19090909090909491,
                "tempo": 120.0
            },
            {
                "start_time": 37.67272727272727,
                "end_time": 37.86363636363636,
                "pitch": 65,
                "velocity": 51,
                "duration": 0.1909090909090878,
                "tempo": 120.0
            },
            {
                "start_time": 37.88863636363636,
                "end_time": 38.090909090909086,
                "pitch": 53,
                "velocity": 51,
                "duration": 0.20227272727272805,
                "tempo": 120.0
            },
            {
                "start_time": 38.11590909090909,
                "end_time": 38.31590909090909,
                "pitch": 65,
                "velocity": 51,
                "duration": 0.19999999999999574,
                "tempo": 120.0
            },
            {
                "start_time": 38.340909090909086,
                "end_time": 38.54090909090909,
                "pitch": 53,
                "velocity": 51,
                "duration": 0.20000000000000284,
                "tempo": 120.0
            },
            {
                "start_time": 38.56590909090909,
                "end_time": 38.76590909090909,
                "pitch": 67,
                "velocity": 51,
                "duration": 0.20000000000000284,
                "tempo": 120.0
            },
            {
                "start_time": 38.79090909090909,
                "end_time": 38.99318181818182,
                "pitch": 65,
                "velocity": 51,
                "duration": 0.20227272727272805,
                "tempo": 120.0
            },
            {
                "start_time": 39.018181818181816,
                "end_time": 39.21818181818182,
                "pitch": 63,
                "velocity": 51,
                "duration": 0.20000000000000284,
                "tempo": 120.0
            },
            {
                "start_time": 39.24318181818182,
                "end_time": 39.44318181818181,
                "pitch": 51,
                "velocity": 51,
                "duration": 0.19999999999999574,
                "tempo": 120.0
            },
            {
                "start_time": 39.46818181818182,
                "end_time": 39.668181818181814,
                "pitch": 51,
                "velocity": 51,
                "duration": 0.19999999999999574,
                "tempo": 120.0
            },
            {
                "start_time": 39.69318181818181,
                "end_time": 39.89545454545454,
                "pitch": 63,
                "velocity": 51,
                "duration": 0.20227272727272805,
                "tempo": 120.0
            },
            {
                "start_time": 39.92045454545455,
                "end_time": 40.12045454545454,
                "pitch": 51,
                "velocity": 51,
                "duration": 0.19999999999999574,
                "tempo": 120.0
            },
            {
                "start_time": 40.14545454545454,
                "end_time": 40.345454545454544,
                "pitch": 51,
                "velocity": 51,
                "duration": 0.20000000000000284,
                "tempo": 120.0
            },
            {
                "start_time": 40.37045454545454,
                "end_time": 40.570454545454545,
                "pitch": 63,
                "velocity": 51,
                "duration": 0.20000000000000284,
                "tempo": 120.0
            },
            {
                "start_time": 40.595454545454544,
                "end_time": 40.79772727272727,
                "pitch": 51,
                "velocity": 51,
                "duration": 0.20227272727272805,
                "tempo": 120.0
            },
            {
                "start_time": 40.82954545454545,
                "end_time": 41.1,
                "pitch": 63,
                "velocity": 51,
                "duration": 0.27045454545454817,
                "tempo": 120.0
            },
            {
                "start_time": 41.13409090909091,
                "end_time": 41.402272727272724,
                "pitch": 51,
                "velocity": 51,
                "duration": 0.26818181818181586,
                "tempo": 120.0
            },
            {
                "start_time": 41.43636363636364,
                "end_time": 41.70681818181818,
                "pitch": 51,
                "velocity": 51,
                "duration": 0.27045454545454106,
                "tempo": 120.0
            },
            {
                "start_time": 41.73863636363636,
                "end_time": 42.00909090909091,
                "pitch": 63,
                "velocity": 51,
                "duration": 0.27045454545454817,
                "tempo": 120.0
            },
            {
                "start_time": 42.043181818181814,
                "end_time": 42.31136363636364,
                "pitch": 51,
                "velocity": 51,
                "duration": 0.26818181818182296,
                "tempo": 120.0
            },
            {
                "start_time": 42.345454545454544,
                "end_time": 42.61590909090909,
                "pitch": 51,
                "velocity": 51,
                "duration": 0.27045454545454817,
                "tempo": 120.0
            },
            {
                "start_time": 42.64772727272727,
                "end_time": 42.918181818181814,
                "pitch": 63,
                "velocity": 51,
                "duration": 0.27045454545454106,
                "tempo": 120.0
            },
            {
                "start_time": 42.95227272727273,
                "end_time": 43.220454545454544,
                "pitch": 51,
                "velocity": 51,
                "duration": 0.26818181818181586,
                "tempo": 120.0
            },
            {
                "start_time": 43.25454545454545,
                "end_time": 43.525,
                "pitch": 63,
                "velocity": 51,
                "duration": 0.27045454545454817,
                "tempo": 120.0
            },
            {
                "start_time": 43.55681818181818,
                "end_time": 43.82727272727273,
                "pitch": 46,
                "velocity": 51,
                "duration": 0.27045454545454817,
                "tempo": 120.0
            },
            {
                "start_time": 43.861363636363635,
                "end_time": 44.12954545454545,
                "pitch": 46,
                "velocity": 51,
                "duration": 0.26818181818181586,
                "tempo": 120.0
            },
            {
                "start_time": 44.163636363636364,
                "end_time": 44.434090909090905,
                "pitch": 58,
                "velocity": 51,
                "duration": 0.27045454545454106,
                "tempo": 120.0
            },
            {
                "start_time": 44.465909090909086,
                "end_time": 44.73863636363636,
                "pitch": 46,
                "velocity": 51,
                "duration": 0.2727272727272734,
                "tempo": 120.0
            },
            {
                "start_time": 44.77272727272727,
                "end_time": 45.04545454545455,
                "pitch": 46,
                "velocity": 51,
                "duration": 0.2727272727272734,
                "tempo": 120.0
            },
            {
                "start_time": 45.07954545454545,
                "end_time": 45.35227272727273,
                "pitch": 58,
                "velocity": 51,
                "duration": 0.2727272727272734,
                "tempo": 120.0
            },
            {
                "start_time": 45.38636363636363,
                "end_time": 45.65681818181818,
                "pitch": 46,
                "velocity": 51,
                "duration": 0.27045454545454817,
                "tempo": 120.0
            },
            {
                "start_time": 45.69090909090909,
                "end_time": 45.95454545454545,
                "pitch": 46,
                "velocity": 51,
                "duration": 0.26363636363636545,
                "tempo": 120.0
            },
            {
                "start_time": 45.98863636363636,
                "end_time": 46.252272727272725,
                "pitch": 46,
                "velocity": 51,
                "duration": 0.26363636363636545,
                "tempo": 120.0
            },
            {
                "start_time": 46.28409090909091,
                "end_time": 46.54772727272727,
                "pitch": 46,
                "velocity": 51,
                "duration": 0.26363636363636545,
                "tempo": 120.0
            },
            {
                "start_time": 46.58181818181818,
                "end_time": 46.845454545454544,
                "pitch": 58,
                "velocity": 51,
                "duration": 0.26363636363636545,
                "tempo": 120.0
            },
            {
                "start_time": 46.87954545454545,
                "end_time": 47.15,
                "pitch": 46,
                "velocity": 51,
                "duration": 0.27045454545454817,
                "tempo": 120.0
            },
            {
                "start_time": 47.184090909090905,
                "end_time": 47.45681818181818,
                "pitch": 60,
                "velocity": 51,
                "duration": 0.2727272727272734,
                "tempo": 120.0
            },
            {
                "start_time": 47.49090909090909,
                "end_time": 47.76363636363636,
                "pitch": 46,
                "velocity": 51,
                "duration": 0.27272727272726627,
                "tempo": 120.0
            },
            {
                "start_time": 47.79772727272727,
                "end_time": 48.070454545454545,
                "pitch": 58,
                "velocity": 51,
                "duration": 0.2727272727272734,
                "tempo": 120.0
            },
            {
                "start_time": 48.10227272727273,
                "end_time": 48.36590909090909,
                "pitch": 46,
                "velocity": 51,
                "duration": 0.26363636363636545,
                "tempo": 120.0
            },
            {
                "start_time": 48.4,
                "end_time": 48.663636363636364,
                "pitch": 53,
                "velocity": 51,
                "duration": 0.26363636363636545,
                "tempo": 120.0
            },
            {
                "start_time": 48.695454545454545,
                "end_time": 48.961363636363636,
                "pitch": 53,
                "velocity": 51,
                "duration": 0.26590909090909065,
                "tempo": 120.0
            },
            {
                "start_time": 48.99318181818182,
                "end_time": 49.25681818181818,
                "pitch": 65,
                "velocity": 51,
                "duration": 0.26363636363636545,
                "tempo": 120.0
            },
            {
                "start_time": 49.29090909090909,
                "end_time": 49.56136363636364,
                "pitch": 53,
                "velocity": 51,
                "duration": 0.27045454545454817,
                "tempo": 120.0
            },
            {
                "start_time": 49.59318181818182,
                "end_time": 49.86363636363636,
                "pitch": 53,
                "velocity": 51,
                "duration": 0.27045454545454106,
                "tempo": 120.0
            },
            {
                "start_time": 49.89772727272727,
                "end_time": 50.16590909090909,
                "pitch": 65,
                "velocity": 51,
                "duration": 0.26818181818181586,
                "tempo": 120.0
            },
            {
                "start_time": 50.199999999999996,
                "end_time": 50.470454545454544,
                "pitch": 53,
                "velocity": 51,
                "duration": 0.27045454545454817,
                "tempo": 120.0
            },
            {
                "start_time": 50.502272727272725,
                "end_time": 50.77272727272727,
                "pitch": 65,
                "velocity": 51,
                "duration": 0.27045454545454817,
                "tempo": 120.0
            },
            {
                "start_time": 50.80681818181818,
                "end_time": 51.074999999999996,
                "pitch": 53,
                "velocity": 51,
                "duration": 0.26818181818181586,
                "tempo": 120.0
            },
            {
                "start_time": 51.10909090909091,
                "end_time": 51.37954545454545,
                "pitch": 53,
                "velocity": 51,
                "duration": 0.27045454545454106,
                "tempo": 120.0
            },
            {
                "start_time": 51.41136363636363,
                "end_time": 51.68181818181818,
                "pitch": 65,
                "velocity": 51,
                "duration": 0.27045454545454817,
                "tempo": 120.0
            },
            {
                "start_time": 51.715909090909086,
                "end_time": 51.98181818181818,
                "pitch": 53,
                "velocity": 51,
                "duration": 0.26590909090909065,
                "tempo": 120.0
            },
            {
                "start_time": 52.01590909090909,
                "end_time": 52.28181818181818,
                "pitch": 65,
                "velocity": 51,
                "duration": 0.26590909090909065,
                "tempo": 120.0
            },
            {
                "start_time": 52.31590909090909,
                "end_time": 52.58181818181818,
                "pitch": 53,
                "velocity": 51,
                "duration": 0.26590909090909065,
                "tempo": 120.0
            },
            {
                "start_time": 52.615909090909085,
                "end_time": 52.88181818181818,
                "pitch": 67,
                "velocity": 51,
                "duration": 0.26590909090909776,
                "tempo": 120.0
            },
            {
                "start_time": 52.91590909090909,
                "end_time": 53.184090909090905,
                "pitch": 65,
                "velocity": 51,
                "duration": 0.26818181818181586,
                "tempo": 120.0
            },
            {
                "start_time": 53.21818181818182,
                "end_time": 53.48863636363636,
                "pitch": 50,
                "velocity": 51,
                "duration": 0.27045454545454106,
                "tempo": 120.0
            },
            {
                "start_time": 53.52045454545454,
                "end_time": 53.79090909090909,
                "pitch": 50,
                "velocity": 51,
                "duration": 0.27045454545454817,
                "tempo": 120.0
            },
            {
                "start_time": 53.824999999999996,
                "end_time": 54.09318181818182,
                "pitch": 46,
                "velocity": 51,
                "duration": 0.26818181818182296,
                "tempo": 120.0
            },
            {
                "start_time": 54.127272727272725,
                "end_time": 54.39772727272727,
                "pitch": 46,
                "velocity": 51,
                "duration": 0.27045454545454817,
                "tempo": 120.0
            },
            {
                "start_time": 54.429545454545455,
                "end_time": 54.699999999999996,
                "pitch": 58,
                "velocity": 51,
                "duration": 0.27045454545454106,
                "tempo": 120.0
            },
            {
                "start_time": 54.73409090909091,
                "end_time": 55.002272727272725,
                "pitch": 46,
                "velocity": 51,
                "duration": 0.26818181818181586,
                "tempo": 120.0
            },
            {
                "start_time": 55.03636363636363,
                "end_time": 55.60909090909091,
                "pitch": 58,
                "velocity": 51,
                "duration": 0.5727272727272776,
                "tempo": 120.0
            },
            {
                "start_time": 55.643181818181816,
                "end_time": 55.91136363636363,
                "pitch": 53,
                "velocity": 51,
                "duration": 0.26818181818181586,
                "tempo": 120.0
            },
            {
                "start_time": 55.945454545454545,
                "end_time": 56.215909090909086,
                "pitch": 53,
                "velocity": 51,
                "duration": 0.27045454545454106,
                "tempo": 120.0
            },
            {
                "start_time": 56.24772727272727,
                "end_time": 56.518181818181816,
                "pitch": 65,
                "velocity": 51,
                "duration": 0.27045454545454817,
                "tempo": 120.0
            },
            {
                "start_time": 56.55227272727272,
                "end_time": 56.820454545454545,
                "pitch": 65,
                "velocity": 51,
                "duration": 0.26818181818182296,
                "tempo": 120.0
            },
            {
                "start_time": 56.85454545454545,
                "end_time": 57.125,
                "pitch": 68,
                "velocity": 51,
                "duration": 0.27045454545454817,
                "tempo": 120.0
            },
            {
                "start_time": 57.15681818181818,
                "end_time": 57.42727272727272,
                "pitch": 68,
                "velocity": 51,
                "duration": 0.27045454545454106,
                "tempo": 120.0
            },
            {
                "start_time": 57.461363636363636,
                "end_time": 57.72954545454545,
                "pitch": 65,
                "velocity": 51,
                "duration": 0.26818181818181586,
                "tempo": 120.0
            },
            {
                "start_time": 57.76363636363636,
                "end_time": 58.02954545454545,
                "pitch": 65,
                "velocity": 51,
                "duration": 0.26590909090909065,
                "tempo": 120.0
            },
            {
                "start_time": 58.06363636363636,
                "end_time": 58.32954545454545,
                "pitch": 51,
                "velocity": 51,
                "duration": 0.26590909090909065,
                "tempo": 120.0
            },
            {
                "start_time": 58.36363636363636,
                "end_time": 58.62954545454545,
                "pitch": 51,
                "velocity": 51,
                "duration": 0.26590909090909065,
                "tempo": 120.0
            },
            {
                "start_time": 58.663636363636364,
                "end_time": 58.929545454545455,
                "pitch": 63,
                "velocity": 51,
                "duration": 0.26590909090909065,
                "tempo": 120.0
            },
            {
                "start_time": 58.96363636363636,
                "end_time": 59.23409090909091,
                "pitch": 51,
                "velocity": 51,
                "duration": 0.27045454545454817,
                "tempo": 120.0
            },
            {
                "start_time": 59.26590909090909,
                "end_time": 59.53636363636363,
                "pitch": 51,
                "velocity": 51,
                "duration": 0.27045454545454106,
                "tempo": 120.0
            },
            {
                "start_time": 59.570454545454545,
                "end_time": 59.83863636363636,
                "pitch": 63,
                "velocity": 51,
                "duration": 0.26818181818181586,
                "tempo": 120.0
            },
            {
                "start_time": 59.87272727272727,
                "end_time": 60.143181818181816,
                "pitch": 51,
                "velocity": 51,
                "duration": 0.27045454545454817,
                "tempo": 120.0
            },
            {
                "start_time": 60.175,
                "end_time": 60.445454545454545,
                "pitch": 63,
                "velocity": 51,
                "duration": 0.27045454545454817,
                "tempo": 120.0
            },
            {
                "start_time": 60.47954545454545,
                "end_time": 60.74772727272727,
                "pitch": 51,
                "velocity": 51,
                "duration": 0.26818181818181586,
                "tempo": 120.0
            },
            {
                "start_time": 60.78181818181818,
                "end_time": 61.05227272727272,
                "pitch": 51,
                "velocity": 51,
                "duration": 0.27045454545454106,
                "tempo": 120.0
            },
            {
                "start_time": 61.084090909090904,
                "end_time": 61.35454545454545,
                "pitch": 63,
                "velocity": 51,
                "duration": 0.27045454545454817,
                "tempo": 120.0
            },
            {
                "start_time": 61.38863636363636,
                "end_time": 61.65681818181818,
                "pitch": 51,
                "velocity": 51,
                "duration": 0.26818181818182296,
                "tempo": 120.0
            },
            {
                "start_time": 61.69090909090909,
                "end_time": 61.961363636363636,
                "pitch": 51,
                "velocity": 51,
                "duration": 0.27045454545454817,
                "tempo": 120.0
            },
            {
                "start_time": 61.99318181818182,
                "end_time": 62.26363636363636,
                "pitch": 63,
                "velocity": 51,
                "duration": 0.27045454545454106,
                "tempo": 120.0
            },
            {
                "start_time": 62.29772727272727,
                "end_time": 62.56590909090909,
                "pitch": 51,
                "velocity": 51,
                "duration": 0.26818181818181586,
                "tempo": 120.0
            },
            {
                "start_time": 62.599999999999994,
                "end_time": 62.87045454545454,
                "pitch": 63,
                "velocity": 51,
                "duration": 0.27045454545454817,
                "tempo": 120.0
            },
            {
                "start_time": 62.902272727272724,
                "end_time": 63.17272727272727,
                "pitch": 46,
                "velocity": 51,
                "duration": 0.27045454545454817,
                "tempo": 120.0
            },
            {
                "start_time": 63.20681818181818,
                "end_time": 63.474999999999994,
                "pitch": 46,
                "velocity": 51,
                "duration": 0.26818181818181586,
                "tempo": 120.0
            },
            {
                "start_time": 63.50909090909091,
                "end_time": 63.77954545454545,
                "pitch": 58,
                "velocity": 51,
                "duration": 0.27045454545454106,
                "tempo": 120.0
            },
            {
                "start_time": 63.81136363636363,
                "end_time": 64.07954545454545,
                "pitch": 46,
                "velocity": 51,
                "duration": 0.26818181818182296,
                "tempo": 120.0
            },
            {
                "start_time": 64.11136363636363,
                "end_time": 64.37954545454545,
                "pitch": 46,
                "velocity": 51,
                "duration": 0.26818181818181586,
                "tempo": 120.0
            },
            {
                "start_time": 64.41136363636363,
                "end_time": 64.67954545454545,
                "pitch": 58,
                "velocity": 51,
                "duration": 0.26818181818181586,
                "tempo": 120.0
            },
            {
                "start_time": 64.71136363636363,
                "end_time": 64.97954545454544,
                "pitch": 46,
                "velocity": 51,
                "duration": 0.26818181818181586,
                "tempo": 120.0
            },
            {
                "start_time": 65.01136363636364,
                "end_time": 65.28181818181818,
                "pitch": 46,
                "velocity": 51,
                "duration": 0.27045454545454106,
                "tempo": 120.0
            },
            {
                "start_time": 65.31590909090909,
                "end_time": 65.5840909090909,
                "pitch": 46,
                "velocity": 51,
                "duration": 0.26818181818181586,
                "tempo": 120.0
            },
            {
                "start_time": 65.61818181818181,
                "end_time": 65.88863636363637,
                "pitch": 46,
                "velocity": 51,
                "duration": 0.2704545454545553,
                "tempo": 120.0
            },
            {
                "start_time": 65.92045454545455,
                "end_time": 66.19090909090909,
                "pitch": 58,
                "velocity": 51,
                "duration": 0.27045454545454106,
                "tempo": 120.0
            },
            {
                "start_time": 66.225,
                "end_time": 66.49772727272727,
                "pitch": 46,
                "velocity": 51,
                "duration": 0.2727272727272805,
                "tempo": 120.0
            },
            {
                "start_time": 66.53181818181818,
                "end_time": 66.80227272727272,
                "pitch": 60,
                "velocity": 51,
                "duration": 0.27045454545454106,
                "tempo": 120.0
            },
            {
                "start_time": 66.83636363636363,
                "end_time": 67.10909090909091,
                "pitch": 46,
                "velocity": 51,
                "duration": 0.2727272727272805,
                "tempo": 120.0
            },
            {
                "start_time": 67.14318181818182,
                "end_time": 67.41590909090908,
                "pitch": 58,
                "velocity": 51,
                "duration": 0.27272727272726627,
                "tempo": 120.0
            },
            {
                "start_time": 67.44772727272726,
                "end_time": 67.71136363636363,
                "pitch": 46,
                "velocity": 51,
                "duration": 0.26363636363636545,
                "tempo": 120.0
            },
            {
                "start_time": 67.74545454545454,
                "end_time": 68.0090909090909,
                "pitch": 53,
                "velocity": 51,
                "duration": 0.26363636363636545,
                "tempo": 120.0
            },
            {
                "start_time": 68.04318181818182,
                "end_time": 68.30681818181817,
                "pitch": 53,
                "velocity": 51,
                "duration": 0.26363636363635123,
                "tempo": 120.0
            },
            {
                "start_time": 68.33863636363635,
                "end_time": 68.60227272727272,
                "pitch": 65,
                "velocity": 51,
                "duration": 0.26363636363636545,
                "tempo": 120.0
            },
            {
                "start_time": 68.63636363636363,
                "end_time": 68.90681818181818,
                "pitch": 53,
                "velocity": 51,
                "duration": 0.2704545454545553,
                "tempo": 120.0
            },
            {
                "start_time": 68.94090909090909,
                "end_time": 69.2090909090909,
                "pitch": 53,
                "velocity": 51,
                "duration": 0.26818181818181586,
                "tempo": 120.0
            },
            {
                "start_time": 69.24318181818181,
                "end_time": 69.51136363636363,
                "pitch": 65,
                "velocity": 51,
                "duration": 0.26818181818181586,
                "tempo": 120.0
            },
            {
                "start_time": 69.54545454545455,
                "end_time": 69.81590909090909,
                "pitch": 53,
                "velocity": 51,
                "duration": 0.27045454545454106,
                "tempo": 120.0
            },
            {
                "start_time": 69.84772727272727,
                "end_time": 70.11590909090908,
                "pitch": 65,
                "velocity": 51,
                "duration": 0.26818181818181586,
                "tempo": 120.0
            },
            {
                "start_time": 70.14772727272727,
                "end_time": 70.41590909090908,
                "pitch": 53,
                "velocity": 51,
                "duration": 0.26818181818181586,
                "tempo": 120.0
            },
            {
                "start_time": 70.44772727272726,
                "end_time": 70.7159090909091,
                "pitch": 53,
                "velocity": 51,
                "duration": 0.26818181818183007,
                "tempo": 120.0
            },
            {
                "start_time": 70.74772727272727,
                "end_time": 71.01590909090909,
                "pitch": 65,
                "velocity": 51,
                "duration": 0.26818181818181586,
                "tempo": 120.0
            },
            {
                "start_time": 71.05,
                "end_time": 71.31818181818181,
                "pitch": 53,
                "velocity": 51,
                "duration": 0.26818181818181586,
                "tempo": 120.0
            },
            {
                "start_time": 71.35227272727272,
                "end_time": 71.62045454545454,
                "pitch": 67,
                "velocity": 51,
                "duration": 0.26818181818181586,
                "tempo": 120.0
            },
            {
                "start_time": 71.65454545454546,
                "end_time": 71.925,
                "pitch": 65,
                "velocity": 51,
                "duration": 0.27045454545454106,
                "tempo": 120.0
            },
            {
                "start_time": 71.9590909090909,
                "end_time": 72.22727272727272,
                "pitch": 63,
                "velocity": 51,
                "duration": 0.26818181818181586,
                "tempo": 120.0
            },
            {
                "start_time": 72.26136363636363,
                "end_time": 72.52954545454546,
                "pitch": 65,
                "velocity": 51,
                "duration": 0.26818181818183007,
                "tempo": 120.0
            },
            {
                "start_time": 72.56363636363636,
                "end_time": 72.8340909090909,
                "pitch": 51,
                "velocity": 51,
                "duration": 0.27045454545454106,
                "tempo": 120.0
            },
            {
                "start_time": 72.86818181818181,
                "end_time": 73.13636363636363,
                "pitch": 51,
                "velocity": 51,
                "duration": 0.26818181818181586,
                "tempo": 120.0
            },
            {
                "start_time": 73.17045454545455,
                "end_time": 73.43863636363636,
                "pitch": 63,
                "velocity": 51,
                "duration": 0.26818181818181586,
                "tempo": 120.0
            },
            {
                "start_time": 73.47272727272727,
                "end_time": 73.74318181818181,
                "pitch": 51,
                "velocity": 51,
                "duration": 0.27045454545454106,
                "tempo": 120.0
            },
            {
                "start_time": 73.77727272727272,
                "end_time": 74.04545454545455,
                "pitch": 63,
                "velocity": 51,
                "duration": 0.26818181818183007,
                "tempo": 120.0
            },
            {
                "start_time": 74.07954545454545,
                "end_time": 74.34772727272727,
                "pitch": 51,
                "velocity": 51,
                "duration": 0.26818181818181586,
                "tempo": 120.0
            },
            {
                "start_time": 74.38181818181818,
                "end_time": 74.65227272727272,
                "pitch": 63,
                "velocity": 51,
                "duration": 0.27045454545454106,
                "tempo": 120.0
            },
            {
                "start_time": 74.68636363636364,
                "end_time": 74.95454545454545,
                "pitch": 51,
                "velocity": 51,
                "duration": 0.26818181818181586,
                "tempo": 120.0
            },
            {
                "start_time": 74.98863636363636,
                "end_time": 75.25681818181818,
                "pitch": 51,
                "velocity": 51,
                "duration": 0.26818181818181586,
                "tempo": 120.0
            },
            {
                "start_time": 76.20454545454545,
                "end_time": 76.78181818181818,
                "pitch": 51,
                "velocity": 51,
                "duration": 0.577272727272728,
                "tempo": 120.0
            },
            {
                "start_time": 76.81590909090909,
                "end_time": 77.38636363636363,
                "pitch": 52,
                "velocity": 51,
                "duration": 0.5704545454545382,
                "tempo": 120.0
            },
            {
                "start_time": 77.41818181818181,
                "end_time": 77.68181818181817,
                "pitch": 65,
                "velocity": 51,
                "duration": 0.26363636363636545,
                "tempo": 120.0
            },
            {
                "start_time": 77.7159090909091,
                "end_time": 77.97954545454544,
                "pitch": 65,
                "velocity": 51,
                "duration": 0.26363636363635123,
                "tempo": 120.0
            },
            {
                "start_time": 78.01136363636363,
                "end_time": 78.27727272727272,
                "pitch": 63,
                "velocity": 51,
                "duration": 0.26590909090909065,
                "tempo": 120.0
            },
            {
                "start_time": 78.30909090909091,
                "end_time": 78.88181818181818,
                "pitch": 60,
                "velocity": 51,
                "duration": 0.5727272727272634,
                "tempo": 120.0
            },
            {
                "start_time": 78.91590909090908,
                "end_time": 79.18636363636364,
                "pitch": 65,
                "velocity": 51,
                "duration": 0.2704545454545553,
                "tempo": 120.0
            },
            {
                "start_time": 79.21818181818182,
                "end_time": 79.48863636363636,
                "pitch": 63,
                "velocity": 51,
                "duration": 0.27045454545454106,
                "tempo": 120.0
            },
            {
                "start_time": 79.52272727272727,
                "end_time": 79.79090909090908,
                "pitch": 60,
                "velocity": 51,
                "duration": 0.26818181818181586,
                "tempo": 120.0
            },
            {
                "start_time": 79.825,
                "end_time": 80.09545454545454,
                "pitch": 65,
                "velocity": 51,
                "duration": 0.27045454545454106,
                "tempo": 120.0
            },
            {
                "start_time": 80.12727272727273,
                "end_time": 80.39772727272727,
                "pitch": 65,
                "velocity": 51,
                "duration": 0.27045454545454106,
                "tempo": 120.0
            },
            {
                "start_time": 80.43181818181817,
                "end_time": 80.7,
                "pitch": 63,
                "velocity": 51,
                "duration": 0.26818181818183007,
                "tempo": 120.0
            },
            {
                "start_time": 80.73409090909091,
                "end_time": 81.30681818181817,
                "pitch": 60,
                "velocity": 51,
                "duration": 0.5727272727272634,
                "tempo": 120.0
            },
            {
                "start_time": 81.3409090909091,
                "end_time": 81.60909090909091,
                "pitch": 65,
                "velocity": 51,
                "duration": 0.26818181818181586,
                "tempo": 120.0
            },
            {
                "start_time": 81.64318181818182,
                "end_time": 81.91363636363636,
                "pitch": 63,
                "velocity": 51,
                "duration": 0.27045454545454106,
                "tempo": 120.0
            },
            {
                "start_time": 81.94545454545454,
                "end_time": 82.21363636363635,
                "pitch": 60,
                "velocity": 51,
                "duration": 0.26818181818181586,
                "tempo": 120.0
            },
            {
                "start_time": 82.24545454545454,
                "end_time": 82.51363636363637,
                "pitch": 63,
                "velocity": 51,
                "duration": 0.26818181818183007,
                "tempo": 120.0
            },
            {
                "start_time": 82.54545454545455,
                "end_time": 82.81363636363636,
                "pitch": 63,
                "velocity": 51,
                "duration": 0.26818181818181586,
                "tempo": 120.0
            },
            {
                "start_time": 82.84545454545454,
                "end_time": 83.11363636363636,
                "pitch": 62,
                "velocity": 51,
                "duration": 0.26818181818181586,
                "tempo": 120.0
            },
            {
                "start_time": 83.14545454545454,
                "end_time": 83.71818181818182,
                "pitch": 58,
                "velocity": 51,
                "duration": 0.5727272727272776,
                "tempo": 120.0
            },
            {
                "start_time": 83.75227272727273,
                "end_time": 84.02272727272727,
                "pitch": 58,
                "velocity": 51,
                "duration": 0.27045454545454106,
                "tempo": 120.0
            },
            {
                "start_time": 84.05454545454545,
                "end_time": 84.325,
                "pitch": 62,
                "velocity": 51,
                "duration": 0.2704545454545553,
                "tempo": 120.0
            },
            {
                "start_time": 84.35909090909091,
                "end_time": 84.62727272727273,
                "pitch": 58,
                "velocity": 51,
                "duration": 0.26818181818181586,
                "tempo": 120.0
            },
            {
                "start_time": 84.66136363636363,
                "end_time": 84.93181818181817,
                "pitch": 63,
                "velocity": 51,
                "duration": 0.27045454545454106,
                "tempo": 120.0
            },
            {
                "start_time": 84.96363636363635,
                "end_time": 85.23409090909091,
                "pitch": 63,
                "velocity": 51,
                "duration": 0.2704545454545553,
                "tempo": 120.0
            },
            {
                "start_time": 85.26818181818182,
                "end_time": 85.53636363636363,
                "pitch": 62,
                "velocity": 51,
                "duration": 0.26818181818181586,
                "tempo": 120.0
            },
            {
                "start_time": 85.57045454545454,
                "end_time": 86.14318181818182,
                "pitch": 58,
                "velocity": 51,
                "duration": 0.5727272727272776,
                "tempo": 120.0
            },
            {
                "start_time": 86.17727272727272,
                "end_time": 86.44545454545454,
                "pitch": 58,
                "velocity": 51,
                "duration": 0.26818181818181586,
                "tempo": 120.0
            },
            {
                "start_time": 86.47954545454544,
                "end_time": 86.75,
                "pitch": 63,
                "velocity": 51,
                "duration": 0.2704545454545553,
                "tempo": 120.0
            },
            {
                "start_time": 86.78181818181818,
                "end_time": 86.81590909090909,
                "pitch": 65,
                "velocity": 51,
                "duration": 0.03409090909090651,
                "tempo": 120.0
            },
            {
                "start_time": 86.85,
                "end_time": 87.05227272727272,
                "pitch": 65,
                "velocity": 51,
                "duration": 0.20227272727272805,
                "tempo": 120.0
            },
            {
                "start_time": 87.08636363636363,
                "end_time": 87.35454545454544,
                "pitch": 65,
                "velocity": 51,
                "duration": 0.26818181818181586,
                "tempo": 120.0
            },
            {
                "start_time": 87.38863636363637,
                "end_time": 87.6590909090909,
                "pitch": 65,
                "velocity": 51,
                "duration": 0.27045454545454106,
                "tempo": 120.0
            },
            {
                "start_time": 87.69090909090909,
                "end_time": 87.96136363636363,
                "pitch": 63,
                "velocity": 51,
                "duration": 0.27045454545454106,
                "tempo": 120.0
            },
            {
                "start_time": 87.99545454545454,
                "end_time": 88.56136363636364,
                "pitch": 60,
                "velocity": 51,
                "duration": 0.565909090909102,
                "tempo": 120.0
            },
            {
                "start_time": 88.59545454545454,
                "end_time": 88.86136363636363,
                "pitch": 65,
                "velocity": 51,
                "duration": 0.26590909090909065,
                "tempo": 120.0
            },
            {
                "start_time": 88.89545454545454,
                "end_time": 89.16136363636363,
                "pitch": 63,
                "velocity": 51,
                "duration": 0.26590909090909065,
                "tempo": 120.0
            },
            {
                "start_time": 89.19545454545454,
                "end_time": 89.46363636363635,
                "pitch": 60,
                "velocity": 51,
                "duration": 0.26818181818181586,
                "tempo": 120.0
            },
            {
                "start_time": 89.49772727272727,
                "end_time": 89.76818181818182,
                "pitch": 65,
                "velocity": 51,
                "duration": 0.27045454545454106,
                "tempo": 120.0
            },
            {
                "start_time": 89.8,
                "end_time": 90.07045454545454,
                "pitch": 65,
                "velocity": 51,
                "duration": 0.27045454545454106,
                "tempo": 120.0
            },
            {
                "start_time": 90.10454545454544,
                "end_time": 90.37272727272727,
                "pitch": 63,
                "velocity": 51,
                "duration": 0.26818181818183007,
                "tempo": 120.0
            },
            {
                "start_time": 90.40681818181818,
                "end_time": 90.97954545454544,
                "pitch": 60,
                "velocity": 51,
                "duration": 0.5727272727272634,
                "tempo": 120.0
            },
            {
                "start_time": 91.01363636363637,
                "end_time": 91.28181818181818,
                "pitch": 65,
                "velocity": 51,
                "duration": 0.26818181818181586,
                "tempo": 120.0
            },
            {
                "start_time": 91.31590909090909,
                "end_time": 91.58636363636363,
                "pitch": 63,
                "velocity": 51,
                "duration": 0.27045454545454106,
                "tempo": 120.0
            },
            {
                "start_time": 91.61818181818181,
                "end_time": 91.89090909090909,
                "pitch": 60,
                "velocity": 51,
                "duration": 0.2727272727272805,
                "tempo": 120.0
            },
            {
                "start_time": 91.925,
                "end_time": 92.19772727272726,
                "pitch": 63,
                "velocity": 51,
                "duration": 0.27272727272726627,
                "tempo": 120.0
            },
            {
                "start_time": 92.23181818181818,
                "end_time": 92.50454545454545,
                "pitch": 63,
                "velocity": 51,
                "duration": 0.27272727272726627,
                "tempo": 120.0
            },
            {
                "start_time": 92.53863636363636,
                "end_time": 92.8090909090909,
                "pitch": 62,
                "velocity": 51,
                "duration": 0.27045454545454106,
                "tempo": 120.0
            },
            {
                "start_time": 92.84318181818182,
                "end_time": 93.40454545454546,
                "pitch": 58,
                "velocity": 51,
                "duration": 0.5613636363636374,
                "tempo": 120.0
            },
            {
                "start_time": 93.43636363636364,
                "end_time": 93.69999999999999,
                "pitch": 58,
                "velocity": 51,
                "duration": 0.26363636363635123,
                "tempo": 120.0
            },
            {
                "start_time": 93.73409090909091,
                "end_time": 93.99772727272727,
                "pitch": 62,
                "velocity": 51,
                "duration": 0.26363636363636545,
                "tempo": 120.0
            },
            {
                "start_time": 94.03181818181818,
                "end_time": 94.29772727272727,
                "pitch": 58,
                "velocity": 51,
                "duration": 0.26590909090909065,
                "tempo": 120.0
            },
            {
                "start_time": 94.33181818181818,
                "end_time": 94.89772727272727,
                "pitch": 58,
                "velocity": 51,
                "duration": 0.5659090909090878,
                "tempo": 120.0
            },
            {
                "start_time": 94.92272727272727,
                "end_time": 95.35,
                "pitch": 58,
                "velocity": 51,
                "duration": 0.42727272727272236,
                "tempo": 120.0
            },
            {
                "start_time": 95.36590909090908,
                "end_time": 95.64999999999999,
                "pitch": 60,
                "velocity": 51,
                "duration": 0.2840909090909065,
                "tempo": 120.0
            },
            {
                "start_time": 95.66590909090908,
                "end_time": 95.94999999999999,
                "pitch": 62,
                "velocity": 51,
                "duration": 0.2840909090909065,
                "tempo": 120.0
            },
            {
                "start_time": 95.96590909090908,
                "end_time": 96.25,
                "pitch": 60,
                "velocity": 51,
                "duration": 0.2840909090909207,
                "tempo": 120.0
            },
            {
                "start_time": 96.26818181818182,
                "end_time": 96.55,
                "pitch": 60,
                "velocity": 51,
                "duration": 0.2818181818181813,
                "tempo": 120.0
            },
            {
                "start_time": 96.56818181818181,
                "end_time": 96.69999999999999,
                "pitch": 55,
                "velocity": 51,
                "duration": 0.13181818181817562,
                "tempo": 120.0
            },
            {
                "start_time": 96.71818181818182,
                "end_time": 97.0,
                "pitch": 60,
                "velocity": 51,
                "duration": 0.2818181818181813,
                "tempo": 120.0
            },
            {
                "start_time": 97.01818181818182,
                "end_time": 97.14999999999999,
                "pitch": 60,
                "velocity": 51,
                "duration": 0.13181818181817562,
                "tempo": 120.0
            },
            {
                "start_time": 97.16818181818181,
                "end_time": 97.3,
                "pitch": 58,
                "velocity": 51,
                "duration": 0.13181818181818983,
                "tempo": 120.0
            },
            {
                "start_time": 97.31818181818181,
                "end_time": 97.44999999999999,
                "pitch": 58,
                "velocity": 51,
                "duration": 0.13181818181817562,
                "tempo": 120.0
            },
            {
                "start_time": 97.46818181818182,
                "end_time": 97.60227272727272,
                "pitch": 53,
                "velocity": 51,
                "duration": 0.13409090909090082,
                "tempo": 120.0
            },
            {
                "start_time": 97.61818181818181,
                "end_time": 97.90227272727272,
                "pitch": 58,
                "velocity": 51,
                "duration": 0.2840909090909065,
                "tempo": 120.0
            },
            {
                "start_time": 97.91818181818181,
                "end_time": 98.05227272727272,
                "pitch": 58,
                "velocity": 51,
                "duration": 0.13409090909091503,
                "tempo": 120.0
            },
            {
                "start_time": 98.06818181818181,
                "end_time": 98.20227272727273,
                "pitch": 53,
                "velocity": 51,
                "duration": 0.13409090909091503,
                "tempo": 120.0
            },
            {
                "start_time": 98.21818181818182,
                "end_time": 98.35227272727272,
                "pitch": 58,
                "velocity": 51,
                "duration": 0.13409090909090082,
                "tempo": 120.0
            },
            {
                "start_time": 98.36818181818181,
                "end_time": 98.50227272727273,
                "pitch": 56,
                "velocity": 51,
                "duration": 0.13409090909091503,
                "tempo": 120.0
            },
            {
                "start_time": 98.51818181818182,
                "end_time": 98.65227272727272,
                "pitch": 56,
                "velocity": 51,
                "duration": 0.13409090909090082,
                "tempo": 120.0
            },
            {
                "start_time": 98.66818181818181,
                "end_time": 98.80681818181817,
                "pitch": 51,
                "velocity": 51,
                "duration": 0.13863636363636545,
                "tempo": 120.0
            },
            {
                "start_time": 98.82499999999999,
                "end_time": 99.10909090909091,
                "pitch": 56,
                "velocity": 51,
                "duration": 0.2840909090909207,
                "tempo": 120.0
            },
            {
                "start_time": 99.125,
                "end_time": 99.25454545454545,
                "pitch": 56,
                "velocity": 51,
                "duration": 0.1295454545454504,
                "tempo": 120.0
            },
            {
                "start_time": 99.27045454545454,
                "end_time": 99.4090909090909,
                "pitch": 51,
                "velocity": 51,
                "duration": 0.13863636363636545,
                "tempo": 120.0
            },
            {
                "start_time": 99.425,
                "end_time": 99.56363636363636,
                "pitch": 56,
                "velocity": 51,
                "duration": 0.13863636363636545,
                "tempo": 120.0
            },
            {
                "start_time": 99.57954545454545,
                "end_time": 99.7090909090909,
                "pitch": 58,
                "velocity": 51,
                "duration": 0.1295454545454504,
                "tempo": 120.0
            },
            {
                "start_time": 99.725,
                "end_time": 99.85454545454544,
                "pitch": 58,
                "velocity": 51,
                "duration": 0.1295454545454504,
                "tempo": 120.0
            },
            {
                "start_time": 99.87272727272727,
                "end_time": 100.00454545454545,
                "pitch": 53,
                "velocity": 51,
                "duration": 0.13181818181817562,
                "tempo": 120.0
            },
            {
                "start_time": 100.02272727272727,
                "end_time": 100.30454545454545,
                "pitch": 58,
                "velocity": 51,
                "duration": 0.2818181818181813,
                "tempo": 120.0
            },
            {
                "start_time": 100.32272727272726,
                "end_time": 100.45454545454545,
                "pitch": 58,
                "velocity": 51,
                "duration": 0.13181818181818983,
                "tempo": 120.0
            },
            {
                "start_time": 100.47272727272727,
                "end_time": 100.75681818181818,
                "pitch": 58,
                "velocity": 51,
                "duration": 0.2840909090909065,
                "tempo": 120.0
            },
            {
                "start_time": 100.77272727272727,
                "end_time": 100.91136363636363,
                "pitch": 60,
                "velocity": 51,
                "duration": 0.13863636363636545,
                "tempo": 120.0
            },
            {
                "start_time": 100.92954545454545,
                "end_time": 101.06818181818181,
                "pitch": 60,
                "velocity": 51,
                "duration": 0.13863636363636545,
                "tempo": 120.0
            },
            {
                "start_time": 101.0840909090909,
                "end_time": 101.21363636363635,
                "pitch": 55,
                "velocity": 51,
                "duration": 0.1295454545454504,
                "tempo": 120.0
            },
            {
                "start_time": 101.22954545454544,
                "end_time": 101.5090909090909,
                "pitch": 60,
                "velocity": 51,
                "duration": 0.2795454545454561,
                "tempo": 120.0
            },
            {
                "start_time": 101.52499999999999,
                "end_time": 101.6590909090909,
                "pitch": 60,
                "velocity": 51,
                "duration": 0.13409090909091503,
                "tempo": 120.0
            },
            {
                "start_time": 101.675,
                "end_time": 101.8090909090909,
                "pitch": 55,
                "velocity": 51,
                "duration": 0.13409090909090082,
                "tempo": 120.0
            },
            {
                "start_time": 101.82499999999999,
                "end_time": 101.9590909090909,
                "pitch": 60,
                "velocity": 51,
                "duration": 0.13409090909091503,
                "tempo": 120.0
            },
            {
                "start_time": 101.975,
                "end_time": 102.10909090909091,
                "pitch": 58,
                "velocity": 51,
                "duration": 0.13409090909091503,
                "tempo": 120.0
            },
            {
                "start_time": 102.125,
                "end_time": 102.2590909090909,
                "pitch": 58,
                "velocity": 51,
                "duration": 0.13409090909090082,
                "tempo": 120.0
            },
            {
                "start_time": 102.27727272727272,
                "end_time": 102.41590909090908,
                "pitch": 53,
                "velocity": 51,
                "duration": 0.13863636363636545,
                "tempo": 120.0
            },
            {
                "start_time": 102.43181818181817,
                "end_time": 102.72272727272727,
                "pitch": 58,
                "velocity": 51,
                "duration": 0.29090909090909634,
                "tempo": 120.0
            },
            {
                "start_time": 102.73863636363636,
                "end_time": 102.87272727272727,
                "pitch": 58,
                "velocity": 51,
                "duration": 0.13409090909091503,
                "tempo": 120.0
            },
            {
                "start_time": 102.88863636363637,
                "end_time": 103.01818181818182,
                "pitch": 53,
                "velocity": 51,
                "duration": 0.1295454545454504,
                "tempo": 120.0
            },
            {
                "start_time": 103.0340909090909,
                "end_time": 103.06590909090909,
                "pitch": 58,
                "velocity": 51,
                "duration": 0.0318181818181813,
                "tempo": 120.0
            },
            {
                "start_time": 103.47954545454544,
                "end_time": 103.77499999999999,
                "pitch": 56,
                "velocity": 51,
                "duration": 0.29545454545454675,
                "tempo": 120.0
            },
            {
                "start_time": 103.79090909090908,
                "end_time": 104.07499999999999,
                "pitch": 56,
                "velocity": 51,
                "duration": 0.2840909090909065,
                "tempo": 120.0
            },
            {
                "start_time": 104.09090909090908,
                "end_time": 104.36590909090908,
                "pitch": 56,
                "velocity": 51,
                "duration": 0.2750000000000057,
                "tempo": 120.0
            },
            {
                "start_time": 104.38181818181818,
                "end_time": 104.675,
                "pitch": 65,
                "velocity": 51,
                "duration": 0.29318181818182154,
                "tempo": 120.0
            },
            {
                "start_time": 104.69318181818181,
                "end_time": 104.96818181818182,
                "pitch": 65,
                "velocity": 51,
                "duration": 0.2750000000000057,
                "tempo": 120.0
            },
            {
                "start_time": 104.98409090909091,
                "end_time": 105.27727272727272,
                "pitch": 63,
                "velocity": 51,
                "duration": 0.29318181818180733,
                "tempo": 120.0
            },
            {
                "start_time": 105.29545454545455,
                "end_time": 105.57727272727273,
                "pitch": 65,
                "velocity": 51,
                "duration": 0.2818181818181813,
                "tempo": 120.0
            }
        ],
        "Flute": [
            {
                "start_time": 0.0,
                "end_time": 0.35,
                "pitch": 79,
                "velocity": 40,
                "duration": 0.35,
                "tempo": 120.0
            },
            {
                "start_time": 0.3840909090909091,
                "end_time": 0.65,
                "pitch": 79,
                "velocity": 40,
                "duration": 0.26590909090909093,
                "tempo": 120.0
            },
            {
                "start_time": 0.6840909090909091,
                "end_time": 0.9522727272727273,
                "pitch": 79,
                "velocity": 40,
                "duration": 0.2681818181818182,
                "tempo": 120.0
            },
            {
                "start_time": 0.984090909090909,
                "end_time": 1.2522727272727272,
                "pitch": 79,
                "velocity": 40,
                "duration": 0.2681818181818182,
                "tempo": 120.0
            },
            {
                "start_time": 1.284090909090909,
                "end_time": 1.4022727272727271,
                "pitch": 79,
                "velocity": 40,
                "duration": 0.11818181818181817,
                "tempo": 120.0
            },
            {
                "start_time": 1.434090909090909,
                "end_time": 1.5522727272727272,
                "pitch": 79,
                "velocity": 40,
                "duration": 0.11818181818181817,
                "tempo": 120.0
            },
            {
                "start_time": 1.5863636363636362,
                "end_time": 1.7068181818181818,
                "pitch": 79,
                "velocity": 40,
                "duration": 0.12045454545454559,
                "tempo": 120.0
            },
            {
                "start_time": 1.7409090909090907,
                "end_time": 2.452272727272727,
                "pitch": 79,
                "velocity": 40,
                "duration": 0.7113636363636364,
                "tempo": 120.0
            },
            {
                "start_time": 2.4863636363636363,
                "end_time": 2.7545454545454544,
                "pitch": 80,
                "velocity": 40,
                "duration": 0.2681818181818181,
                "tempo": 120.0
            },
            {
                "start_time": 2.7886363636363636,
                "end_time": 3.065909090909091,
                "pitch": 80,
                "velocity": 40,
                "duration": 0.27727272727272734,
                "tempo": 120.0
            },
            {
                "start_time": 3.0977272727272727,
                "end_time": 3.3568181818181815,
                "pitch": 80,
                "velocity": 40,
                "duration": 0.2590909090909088,
                "tempo": 120.0
            },
            {
                "start_time": 3.3909090909090907,
                "end_time": 3.6568181818181817,
                "pitch": 80,
                "velocity": 40,
                "duration": 0.2659090909090911,
                "tempo": 120.0
            },
            {
                "start_time": 3.690909090909091,
                "end_time": 3.8068181818181817,
                "pitch": 82,
                "velocity": 40,
                "duration": 0.11590909090909074,
                "tempo": 120.0
            },
            {
                "start_time": 3.840909090909091,
                "end_time": 3.9568181818181816,
                "pitch": 80,
                "velocity": 40,
                "duration": 0.11590909090909074,
                "tempo": 120.0
            },
            {
                "start_time": 3.9909090909090907,
                "end_time": 4.1068181818181815,
                "pitch": 79,
                "velocity": 40,
                "duration": 0.11590909090909074,
                "tempo": 120.0
            },
            {
                "start_time": 4.140909090909091,
                "end_time": 4.8590909090909085,
                "pitch": 80,
                "velocity": 40,
                "duration": 0.7181818181818178,
                "tempo": 120.0
            },
            {
                "start_time": 4.893181818181818,
                "end_time": 5.159090909090909,
                "pitch": 79,
                "velocity": 40,
                "duration": 0.26590909090909154,
                "tempo": 120.0
            },
            {
                "start_time": 5.193181818181818,
                "end_time": 5.459090909090909,
                "pitch": 79,
                "velocity": 40,
                "duration": 0.26590909090909065,
                "tempo": 120.0
            },
            {
                "start_time": 5.493181818181818,
                "end_time": 5.759090909090909,
                "pitch": 79,
                "velocity": 40,
                "duration": 0.26590909090909065,
                "tempo": 120.0
            },
            {
                "start_time": 5.793181818181818,
                "end_time": 6.0613636363636365,
                "pitch": 79,
                "velocity": 40,
                "duration": 0.2681818181818185,
                "tempo": 120.0
            },
            {
                "start_time": 6.095454545454545,
                "end_time": 6.211363636363636,
                "pitch": 79,
                "velocity": 40,
                "duration": 0.11590909090909118,
                "tempo": 120.0
            },
            {
                "start_time": 6.245454545454545,
                "end_time": 6.361363636363636,
                "pitch": 79,
                "velocity": 40,
                "duration": 0.11590909090909118,
                "tempo": 120.0
            },
            {
                "start_time": 6.3954545454545455,
                "end_time": 6.511363636363636,
                "pitch": 79,
                "velocity": 40,
                "duration": 0.1159090909090903,
                "tempo": 120.0
            },
            {
                "start_time": 6.545454545454545,
                "end_time": 7.261363636363636,
                "pitch": 79,
                "velocity": 40,
                "duration": 0.7159090909090908,
                "tempo": 120.0
            },
            {
                "start_time": 7.295454545454545,
                "end_time": 7.411363636363636,
                "pitch": 80,
                "velocity": 40,
                "duration": 0.11590909090909118,
                "tempo": 120.0
            },
            {
                "start_time": 7.445454545454545,
                "end_time": 7.461363636363636,
                "pitch": 80,
                "velocity": 40,
                "duration": 0.01590909090909065,
                "tempo": 120.0
            },
            {
                "start_time": 8.045454545454545,
                "end_time": 8.163636363636364,
                "pitch": 80,
                "velocity": 40,
                "duration": 0.11818181818181905,
                "tempo": 120.0
            },
            {
                "start_time": 8.197727272727272,
                "end_time": 8.213636363636363,
                "pitch": 80,
                "velocity": 40,
                "duration": 0.01590909090909065,
                "tempo": 120.0
            },
            {
                "start_time": 8.799999999999999,
                "end_time": 9.075,
                "pitch": 82,
                "velocity": 40,
                "duration": 0.27500000000000036,
                "tempo": 120.0
            },
            {
                "start_time": 9.10681818181818,
                "end_time": 9.36590909090909,
                "pitch": 82,
                "velocity": 40,
                "duration": 0.2590909090909097,
                "tempo": 120.0
            },
            {
                "start_time": 9.4,
                "end_time": 9.668181818181818,
                "pitch": 82,
                "velocity": 40,
                "duration": 0.26818181818181763,
                "tempo": 120.0
            },
            {
                "start_time": 9.7,
                "end_time": 9.818181818181818,
                "pitch": 79,
                "velocity": 40,
                "duration": 0.11818181818181905,
                "tempo": 120.0
            },
            {
                "start_time": 9.852272727272727,
                "end_time": 9.968181818181817,
                "pitch": 79,
                "velocity": 40,
                "duration": 0.1159090909090903,
                "tempo": 120.0
            },
            {
                "start_time": 10.002272727272727,
                "end_time": 10.118181818181817,
                "pitch": 75,
                "velocity": 40,
                "duration": 0.1159090909090903,
                "tempo": 120.0
            },
            {
                "start_time": 10.152272727272727,
                "end_time": 10.268181818181818,
                "pitch": 75,
                "velocity": 40,
                "duration": 0.1159090909090903,
                "tempo": 120.0
            },
            {
                "start_time": 10.302272727272726,
                "end_time": 10.420454545454545,
                "pitch": 70,
                "velocity": 40,
                "duration": 0.11818181818181905,
                "tempo": 120.0
            },
            {
                "start_time": 10.452272727272726,
                "end_time": 10.570454545454545,
                "pitch": 70,
                "velocity": 40,
                "duration": 0.11818181818181905,
                "tempo": 120.0
            },
            {
                "start_time": 10.604545454545454,
                "end_time": 10.720454545454546,
                "pitch": 75,
                "velocity": 40,
                "duration": 0.11590909090909207,
                "tempo": 120.0
            },
            {
                "start_time": 10.754545454545454,
                "end_time": 10.870454545454544,
                "pitch": 75,
                "velocity": 40,
                "duration": 0.1159090909090903,
                "tempo": 120.0
            },
            {
                "start_time": 10.904545454545454,
                "end_time": 11.020454545454545,
                "pitch": 79,
                "velocity": 40,
                "duration": 0.1159090909090903,
                "tempo": 120.0
            },
            {
                "start_time": 11.054545454545455,
                "end_time": 11.172727272727272,
                "pitch": 79,
                "velocity": 40,
                "duration": 0.11818181818181728,
                "tempo": 120.0
            },
            {
                "start_time": 11.204545454545453,
                "end_time": 11.322727272727272,
                "pitch": 75,
                "velocity": 40,
                "duration": 0.11818181818181905,
                "tempo": 120.0
            },
            {
                "start_time": 11.35681818181818,
                "end_time": 11.472727272727273,
                "pitch": 75,
                "velocity": 40,
                "duration": 0.11590909090909207,
                "tempo": 120.0
            },
            {
                "start_time": 11.506818181818181,
                "end_time": 11.622727272727273,
                "pitch": 70,
                "velocity": 40,
                "duration": 0.11590909090909207,
                "tempo": 120.0
            },
            {
                "start_time": 11.656818181818181,
                "end_time": 11.772727272727272,
                "pitch": 70,
                "velocity": 40,
                "duration": 0.1159090909090903,
                "tempo": 120.0
            },
            {
                "start_time": 11.806818181818182,
                "end_time": 11.924999999999999,
                "pitch": 75,
                "velocity": 40,
                "duration": 0.11818181818181728,
                "tempo": 120.0
            },
            {
                "start_time": 11.956818181818182,
                "end_time": 12.075,
                "pitch": 75,
                "velocity": 40,
                "duration": 0.11818181818181728,
                "tempo": 120.0
            },
            {
                "start_time": 12.10909090909091,
                "end_time": 12.225,
                "pitch": 77,
                "velocity": 40,
                "duration": 0.1159090909090903,
                "tempo": 120.0
            },
            {
                "start_time": 12.259090909090908,
                "end_time": 12.375,
                "pitch": 77,
                "velocity": 40,
                "duration": 0.11590909090909207,
                "tempo": 120.0
            },
            {
                "start_time": 12.409090909090908,
                "end_time": 12.524999999999999,
                "pitch": 74,
                "velocity": 40,
                "duration": 0.1159090909090903,
                "tempo": 120.0
            },
            {
                "start_time": 12.559090909090909,
                "end_time": 12.677272727272726,
                "pitch": 74,
                "velocity": 40,
                "duration": 0.11818181818181728,
                "tempo": 120.0
            },
            {
                "start_time": 12.711363636363636,
                "end_time": 12.831818181818182,
                "pitch": 70,
                "velocity": 40,
                "duration": 0.12045454545454604,
                "tempo": 120.0
            },
            {
                "start_time": 12.86590909090909,
                "end_time": 12.986363636363636,
                "pitch": 70,
                "velocity": 40,
                "duration": 0.12045454545454604,
                "tempo": 120.0
            },
            {
                "start_time": 13.020454545454545,
                "end_time": 13.136363636363635,
                "pitch": 74,
                "velocity": 40,
                "duration": 0.1159090909090903,
                "tempo": 120.0
            },
            {
                "start_time": 13.170454545454545,
                "end_time": 13.286363636363635,
                "pitch": 74,
                "velocity": 40,
                "duration": 0.1159090909090903,
                "tempo": 120.0
            },
            {
                "start_time": 13.318181818181818,
                "end_time": 13.431818181818182,
                "pitch": 77,
                "velocity": 40,
                "duration": 0.11363636363636331,
                "tempo": 120.0
            },
            {
                "start_time": 13.46590909090909,
                "end_time": 13.579545454545453,
                "pitch": 77,
                "velocity": 40,
                "duration": 0.11363636363636331,
                "tempo": 120.0
            },
            {
                "start_time": 13.613636363636363,
                "end_time": 13.734090909090908,
                "pitch": 80,
                "velocity": 40,
                "duration": 0.12045454545454426,
                "tempo": 120.0
            },
            {
                "start_time": 13.768181818181818,
                "end_time": 13.888636363636364,
                "pitch": 80,
                "velocity": 40,
                "duration": 0.12045454545454604,
                "tempo": 120.0
            },
            {
                "start_time": 13.920454545454545,
                "end_time": 14.034090909090908,
                "pitch": 79,
                "velocity": 40,
                "duration": 0.11363636363636331,
                "tempo": 120.0
            },
            {
                "start_time": 14.06590909090909,
                "end_time": 14.179545454545455,
                "pitch": 79,
                "velocity": 40,
                "duration": 0.11363636363636509,
                "tempo": 120.0
            },
            {
                "start_time": 14.213636363636363,
                "end_time": 14.33181818181818,
                "pitch": 77,
                "velocity": 40,
                "duration": 0.11818181818181728,
                "tempo": 120.0
            },
            {
                "start_time": 14.363636363636363,
                "end_time": 14.48181818181818,
                "pitch": 77,
                "velocity": 40,
                "duration": 0.11818181818181728,
                "tempo": 120.0
            },
            {
                "start_time": 14.51590909090909,
                "end_time": 14.631818181818181,
                "pitch": 77,
                "velocity": 40,
                "duration": 0.1159090909090903,
                "tempo": 120.0
            },
            {
                "start_time": 14.665909090909091,
                "end_time": 14.781818181818181,
                "pitch": 77,
                "velocity": 40,
                "duration": 0.1159090909090903,
                "tempo": 120.0
            },
            {
                "start_time": 14.81590909090909,
                "end_time": 14.931818181818182,
                "pitch": 75,
                "velocity": 40,
                "duration": 0.11590909090909207,
                "tempo": 120.0
            },
            {
                "start_time": 14.96590909090909,
                "end_time": 15.084090909090909,
                "pitch": 75,
                "velocity": 40,
                "duration": 0.11818181818181905,
                "tempo": 120.0
            },
            {
                "start_time": 15.11590909090909,
                "end_time": 15.234090909090908,
                "pitch": 74,
                "velocity": 40,
                "duration": 0.11818181818181728,
                "tempo": 120.0
            },
            {
                "start_time": 15.26590909090909,
                "end_time": 15.384090909090908,
                "pitch": 74,
                "velocity": 40,
                "duration": 0.11818181818181728,
                "tempo": 120.0
            },
            {
                "start_time": 15.415909090909091,
                "end_time": 15.534090909090908,
                "pitch": 72,
                "velocity": 40,
                "duration": 0.11818181818181728,
                "tempo": 120.0
            },
            {
                "start_time": 15.568181818181817,
                "end_time": 15.684090909090909,
                "pitch": 72,
                "velocity": 40,
                "duration": 0.11590909090909207,
                "tempo": 120.0
            },
            {
                "start_time": 15.718181818181817,
                "end_time": 15.836363636363636,
                "pitch": 77,
                "velocity": 40,
                "duration": 0.11818181818181905,
                "tempo": 120.0
            },
            {
                "start_time": 15.868181818181817,
                "end_time": 15.986363636363636,
                "pitch": 77,
                "velocity": 40,
                "duration": 0.11818181818181905,
                "tempo": 120.0
            },
            {
                "start_time": 16.020454545454545,
                "end_time": 16.136363636363637,
                "pitch": 75,
                "velocity": 40,
                "duration": 0.11590909090909207,
                "tempo": 120.0
            },
            {
                "start_time": 16.170454545454543,
                "end_time": 16.286363636363635,
                "pitch": 75,
                "velocity": 40,
                "duration": 0.11590909090909207,
                "tempo": 120.0
            },
            {
                "start_time": 16.320454545454545,
                "end_time": 16.436363636363634,
                "pitch": 74,
                "velocity": 40,
                "duration": 0.11590909090908852,
                "tempo": 120.0
            },
            {
                "start_time": 16.470454545454544,
                "end_time": 16.586363636363636,
                "pitch": 74,
                "velocity": 40,
                "duration": 0.11590909090909207,
                "tempo": 120.0
            },
            {
                "start_time": 16.620454545454546,
                "end_time": 16.736363636363635,
                "pitch": 72,
                "velocity": 40,
                "duration": 0.11590909090908852,
                "tempo": 120.0
            },
            {
                "start_time": 16.770454545454545,
                "end_time": 16.888636363636362,
                "pitch": 72,
                "velocity": 40,
                "duration": 0.11818181818181728,
                "tempo": 120.0
            },
            {
                "start_time": 16.920454545454543,
                "end_time": 17.038636363636364,
                "pitch": 70,
                "velocity": 40,
                "duration": 0.11818181818182083,
                "tempo": 120.0
            },
            {
                "start_time": 17.07272727272727,
                "end_time": 17.188636363636363,
                "pitch": 70,
                "velocity": 40,
                "duration": 0.11590909090909207,
                "tempo": 120.0
            },
            {
                "start_time": 17.224999999999998,
                "end_time": 17.345454545454544,
                "pitch": 74,
                "velocity": 40,
                "duration": 0.12045454545454604,
                "tempo": 120.0
            },
            {
                "start_time": 17.379545454545454,
                "end_time": 17.5,
                "pitch": 74,
                "velocity": 40,
                "duration": 0.12045454545454604,
                "tempo": 120.0
            },
            {
                "start_time": 17.53181818181818,
                "end_time": 17.645454545454545,
                "pitch": 77,
                "velocity": 40,
                "duration": 0.11363636363636331,
                "tempo": 120.0
            },
            {
                "start_time": 17.677272727272726,
                "end_time": 17.79090909090909,
                "pitch": 77,
                "velocity": 40,
                "duration": 0.11363636363636331,
                "tempo": 120.0
            },
            {
                "start_time": 17.825,
                "end_time": 17.945454545454545,
                "pitch": 74,
                "velocity": 40,
                "duration": 0.12045454545454604,
                "tempo": 120.0
            },
            {
                "start_time": 17.98181818181818,
                "end_time": 18.099999999999998,
                "pitch": 77,
                "velocity": 40,
                "duration": 0.11818181818181728,
                "tempo": 120.0
            },
            {
                "start_time": 18.134090909090908,
                "end_time": 18.245454545454546,
                "pitch": 72,
                "velocity": 40,
                "duration": 0.11136363636363811,
                "tempo": 120.0
            },
            {
                "start_time": 18.279545454545453,
                "end_time": 18.393181818181816,
                "pitch": 72,
                "velocity": 40,
                "duration": 0.11363636363636331,
                "tempo": 120.0
            },
            {
                "start_time": 18.425,
                "end_time": 18.543181818181818,
                "pitch": 77,
                "velocity": 40,
                "duration": 0.11818181818181728,
                "tempo": 120.0
            },
            {
                "start_time": 18.577272727272728,
                "end_time": 18.693181818181817,
                "pitch": 77,
                "velocity": 40,
                "duration": 0.11590909090908852,
                "tempo": 120.0
            },
            {
                "start_time": 18.727272727272727,
                "end_time": 18.845454545454544,
                "pitch": 80,
                "velocity": 40,
                "duration": 0.11818181818181728,
                "tempo": 120.0
            },
            {
                "start_time": 18.877272727272725,
                "end_time": 18.995454545454546,
                "pitch": 80,
                "velocity": 40,
                "duration": 0.11818181818182083,
                "tempo": 120.0
            },
            {
                "start_time": 19.029545454545453,
                "end_time": 19.145454545454545,
                "pitch": 79,
                "velocity": 40,
                "duration": 0.11590909090909207,
                "tempo": 120.0
            },
            {
                "start_time": 19.179545454545455,
                "end_time": 19.297727272727272,
                "pitch": 77,
                "velocity": 40,
                "duration": 0.11818181818181728,
                "tempo": 120.0
            },
            {
                "start_time": 19.329545454545453,
                "end_time": 19.44772727272727,
                "pitch": 79,
                "velocity": 40,
                "duration": 0.11818181818181728,
                "tempo": 120.0
            },
            {
                "start_time": 19.479545454545452,
                "end_time": 19.597727272727273,
                "pitch": 79,
                "velocity": 40,
                "duration": 0.11818181818182083,
                "tempo": 120.0
            },
            {
                "start_time": 19.629545454545454,
                "end_time": 19.74772727272727,
                "pitch": 75,
                "velocity": 40,
                "duration": 0.11818181818181728,
                "tempo": 120.0
            },
            {
                "start_time": 19.78181818181818,
                "end_time": 19.897727272727273,
                "pitch": 75,
                "velocity": 40,
                "duration": 0.11590909090909207,
                "tempo": 120.0
            },
            {
                "start_time": 19.93181818181818,
                "end_time": 20.05,
                "pitch": 70,
                "velocity": 40,
                "duration": 0.11818181818182083,
                "tempo": 120.0
            },
            {
                "start_time": 20.081818181818182,
                "end_time": 20.2,
                "pitch": 70,
                "velocity": 40,
                "duration": 0.11818181818181728,
                "tempo": 120.0
            },
            {
                "start_time": 20.23409090909091,
                "end_time": 20.349999999999998,
                "pitch": 75,
                "velocity": 40,
                "duration": 0.11590909090908852,
                "tempo": 120.0
            },
            {
                "start_time": 20.384090909090908,
                "end_time": 20.502272727272725,
                "pitch": 75,
                "velocity": 40,
                "duration": 0.11818181818181728,
                "tempo": 120.0
            },
            {
                "start_time": 20.534090909090907,
                "end_time": 20.652272727272727,
                "pitch": 79,
                "velocity": 40,
                "duration": 0.11818181818182083,
                "tempo": 120.0
            },
            {
                "start_time": 20.686363636363634,
                "end_time": 20.802272727272726,
                "pitch": 79,
                "velocity": 40,
                "duration": 0.11590909090909207,
                "tempo": 120.0
            },
            {
                "start_time": 20.836363636363636,
                "end_time": 20.952272727272724,
                "pitch": 75,
                "velocity": 40,
                "duration": 0.11590909090908852,
                "tempo": 120.0
            },
            {
                "start_time": 20.986363636363635,
                "end_time": 21.102272727272727,
                "pitch": 75,
                "velocity": 40,
                "duration": 0.11590909090909207,
                "tempo": 120.0
            },
            {
                "start_time": 21.138636363636362,
                "end_time": 21.259090909090908,
                "pitch": 70,
                "velocity": 40,
                "duration": 0.12045454545454604,
                "tempo": 120.0
            },
            {
                "start_time": 21.293181818181818,
                "end_time": 21.413636363636364,
                "pitch": 70,
                "velocity": 40,
                "duration": 0.12045454545454604,
                "tempo": 120.0
            },
            {
                "start_time": 21.445454545454545,
                "end_time": 21.55909090909091,
                "pitch": 75,
                "velocity": 40,
                "duration": 0.11363636363636331,
                "tempo": 120.0
            },
            {
                "start_time": 21.59090909090909,
                "end_time": 21.704545454545453,
                "pitch": 75,
                "velocity": 40,
                "duration": 0.11363636363636331,
                "tempo": 120.0
            },
            {
                "start_time": 21.738636363636363,
                "end_time": 21.85681818181818,
                "pitch": 77,
                "velocity": 40,
                "duration": 0.11818181818181728,
                "tempo": 120.0
            },
            {
                "start_time": 21.888636363636362,
                "end_time": 22.00681818181818,
                "pitch": 77,
                "velocity": 40,
                "duration": 0.11818181818181728,
                "tempo": 120.0
            },
            {
                "start_time": 22.04090909090909,
                "end_time": 22.15681818181818,
                "pitch": 74,
                "velocity": 40,
                "duration": 0.11590909090909207,
                "tempo": 120.0
            },
            {
                "start_time": 22.19090909090909,
                "end_time": 22.30909090909091,
                "pitch": 74,
                "velocity": 40,
                "duration": 0.11818181818181728,
                "tempo": 120.0
            },
            {
                "start_time": 22.34318181818182,
                "end_time": 22.46363636363636,
                "pitch": 70,
                "velocity": 40,
                "duration": 0.12045454545454248,
                "tempo": 120.0
            },
            {
                "start_time": 22.49772727272727,
                "end_time": 22.618181818181817,
                "pitch": 70,
                "velocity": 40,
                "duration": 0.12045454545454604,
                "tempo": 120.0
            },
            {
                "start_time": 22.65,
                "end_time": 22.763636363636362,
                "pitch": 74,
                "velocity": 40,
                "duration": 0.11363636363636331,
                "tempo": 120.0
            },
            {
                "start_time": 22.795454545454543,
                "end_time": 22.909090909090907,
                "pitch": 74,
                "velocity": 40,
                "duration": 0.11363636363636331,
                "tempo": 120.0
            },
            {
                "start_time": 22.943181818181817,
                "end_time": 23.061363636363634,
                "pitch": 77,
                "velocity": 40,
                "duration": 0.11818181818181728,
                "tempo": 120.0
            },
            {
                "start_time": 23.09318181818182,
                "end_time": 23.211363636363636,
                "pitch": 77,
                "velocity": 40,
                "duration": 0.11818181818181728,
                "tempo": 120.0
            },
            {
                "start_time": 23.245454545454546,
                "end_time": 23.36590909090909,
                "pitch": 80,
                "velocity": 40,
                "duration": 0.12045454545454248,
                "tempo": 120.0
            },
            {
                "start_time": 23.402272727272727,
                "end_time": 23.52272727272727,
                "pitch": 80,
                "velocity": 40,
                "duration": 0.12045454545454248,
                "tempo": 120.0
            },
            {
                "start_time": 23.55681818181818,
                "end_time": 23.672727272727272,
                "pitch": 79,
                "velocity": 40,
                "duration": 0.11590909090909207,
                "tempo": 120.0
            },
            {
                "start_time": 23.706818181818182,
                "end_time": 23.82272727272727,
                "pitch": 79,
                "velocity": 40,
                "duration": 0.11590909090908852,
                "tempo": 120.0
            },
            {
                "start_time": 23.854545454545452,
                "end_time": 23.96818181818182,
                "pitch": 77,
                "velocity": 40,
                "duration": 0.11363636363636687,
                "tempo": 120.0
            },
            {
                "start_time": 24.0,
                "end_time": 24.11590909090909,
                "pitch": 77,
                "velocity": 40,
                "duration": 0.11590909090908852,
                "tempo": 120.0
            },
            {
                "start_time": 24.14772727272727,
                "end_time": 24.26590909090909,
                "pitch": 70,
                "velocity": 40,
                "duration": 0.11818181818182083,
                "tempo": 120.0
            },
            {
                "start_time": 24.299999999999997,
                "end_time": 24.41590909090909,
                "pitch": 70,
                "velocity": 40,
                "duration": 0.11590909090909207,
                "tempo": 120.0
            },
            {
                "start_time": 24.45,
                "end_time": 24.568181818181817,
                "pitch": 72,
                "velocity": 40,
                "duration": 0.11818181818181728,
                "tempo": 120.0
            },
            {
                "start_time": 24.599999999999998,
                "end_time": 24.71818181818182,
                "pitch": 72,
                "velocity": 40,
                "duration": 0.11818181818182083,
                "tempo": 120.0
            },
            {
                "start_time": 24.752272727272725,
                "end_time": 24.87272727272727,
                "pitch": 74,
                "velocity": 40,
                "duration": 0.12045454545454604,
                "tempo": 120.0
            },
            {
                "start_time": 24.909090909090907,
                "end_time": 25.027272727272727,
                "pitch": 74,
                "velocity": 40,
                "duration": 0.11818181818182083,
                "tempo": 120.0
            },
            {
                "start_time": 25.061363636363634,
                "end_time": 25.172727272727272,
                "pitch": 75,
                "velocity": 40,
                "duration": 0.11136363636363811,
                "tempo": 120.0
            },
            {
                "start_time": 25.206818181818182,
                "end_time": 25.320454545454545,
                "pitch": 75,
                "velocity": 40,
                "duration": 0.11363636363636331,
                "tempo": 120.0
            },
            {
                "start_time": 25.352272727272727,
                "end_time": 25.470454545454544,
                "pitch": 77,
                "velocity": 40,
                "duration": 0.11818181818181728,
                "tempo": 120.0
            },
            {
                "start_time": 25.502272727272725,
                "end_time": 25.620454545454542,
                "pitch": 77,
                "velocity": 40,
                "duration": 0.11818181818181728,
                "tempo": 120.0
            },
            {
                "start_time": 25.652272727272727,
                "end_time": 25.770454545454545,
                "pitch": 75,
                "velocity": 40,
                "duration": 0.11818181818181728,
                "tempo": 120.0
            },
            {
                "start_time": 25.804545454545455,
                "end_time": 25.920454545454543,
                "pitch": 75,
                "velocity": 40,
                "duration": 0.11590909090908852,
                "tempo": 120.0
            },
            {
                "start_time": 25.954545454545453,
                "end_time": 26.07272727272727,
                "pitch": 74,
                "velocity": 40,
                "duration": 0.11818181818181728,
                "tempo": 120.0
            },
            {
                "start_time": 26.104545454545452,
                "end_time": 26.222727272727273,
                "pitch": 74,
                "velocity": 40,
                "duration": 0.11818181818182083,
                "tempo": 120.0
            },
            {
                "start_time": 26.25681818181818,
                "end_time": 26.37272727272727,
                "pitch": 72,
                "velocity": 40,
                "duration": 0.11590909090909207,
                "tempo": 120.0
            },
            {
                "start_time": 26.40681818181818,
                "end_time": 26.525,
                "pitch": 72,
                "velocity": 40,
                "duration": 0.11818181818181728,
                "tempo": 120.0
            },
            {
                "start_time": 26.55681818181818,
                "end_time": 26.674999999999997,
                "pitch": 70,
                "velocity": 40,
                "duration": 0.11818181818181728,
                "tempo": 120.0
            },
            {
                "start_time": 26.709090909090907,
                "end_time": 26.825,
                "pitch": 70,
                "velocity": 40,
                "duration": 0.11590909090909207,
                "tempo": 120.0
            },
            {
                "start_time": 26.85909090909091,
                "end_time": 26.974999999999998,
                "pitch": 74,
                "velocity": 40,
                "duration": 0.11590909090908852,
                "tempo": 120.0
            },
            {
                "start_time": 27.009090909090908,
                "end_time": 27.125,
                "pitch": 74,
                "velocity": 40,
                "duration": 0.11590909090909207,
                "tempo": 120.0
            },
            {
                "start_time": 27.159090909090907,
                "end_time": 27.277272727272727,
                "pitch": 77,
                "velocity": 40,
                "duration": 0.11818181818182083,
                "tempo": 120.0
            },
            {
                "start_time": 27.30909090909091,
                "end_time": 27.427272727272726,
                "pitch": 77,
                "velocity": 40,
                "duration": 0.11818181818181728,
                "tempo": 120.0
            },
            {
                "start_time": 27.461363636363636,
                "end_time": 27.577272727272724,
                "pitch": 74,
                "velocity": 40,
                "duration": 0.11590909090908852,
                "tempo": 120.0
            },
            {
                "start_time": 27.611363636363635,
                "end_time": 27.729545454545452,
                "pitch": 77,
                "velocity": 40,
                "duration": 0.11818181818181728,
                "tempo": 120.0
            },
            {
                "start_time": 27.763636363636362,
                "end_time": 27.78181818181818,
                "pitch": 75,
                "velocity": 40,
                "duration": 0.01818181818181941,
                "tempo": 120.0
            },
            {
                "start_time": 28.36590909090909,
                "end_time": 28.64090909090909,
                "pitch": 72,
                "velocity": 40,
                "duration": 0.27500000000000213,
                "tempo": 120.0
            },
            {
                "start_time": 28.674999999999997,
                "end_time": 28.943181818181817,
                "pitch": 74,
                "velocity": 40,
                "duration": 0.2681818181818194,
                "tempo": 120.0
            },
            {
                "start_time": 28.977272727272727,
                "end_time": 29.243181818181817,
                "pitch": 79,
                "velocity": 40,
                "duration": 0.26590909090909065,
                "tempo": 120.0
            },
            {
                "start_time": 29.275,
                "end_time": 29.536363636363635,
                "pitch": 79,
                "velocity": 40,
                "duration": 0.2613636363636367,
                "tempo": 120.0
            },
            {
                "start_time": 29.568181818181817,
                "end_time": 29.836363636363636,
                "pitch": 79,
                "velocity": 40,
                "duration": 0.2681818181818194,
                "tempo": 120.0
            },
            {
                "start_time": 29.870454545454542,
                "end_time": 30.136363636363633,
                "pitch": 79,
                "velocity": 40,
                "duration": 0.26590909090909065,
                "tempo": 120.0
            },
            {
                "start_time": 30.170454545454543,
                "end_time": 30.28863636363636,
                "pitch": 79,
                "velocity": 40,
                "duration": 0.11818181818181728,
                "tempo": 120.0
            },
            {
                "start_time": 30.320454545454545,
                "end_time": 30.438636363636363,
                "pitch": 79,
                "velocity": 40,
                "duration": 0.11818181818181728,
                "tempo": 120.0
            },
            {
                "start_time": 30.472727272727273,
                "end_time": 30.58863636363636,
                "pitch": 79,
                "velocity": 40,
                "duration": 0.11590909090908852,
                "tempo": 120.0
            },
            {
                "start_time": 30.62272727272727,
                "end_time": 31.343181818181815,
                "pitch": 79,
                "velocity": 40,
                "duration": 0.7204545454545439,
                "tempo": 120.0
            },
            {
                "start_time": 31.377272727272725,
                "end_time": 31.643181818181816,
                "pitch": 80,
                "velocity": 40,
                "duration": 0.26590909090909065,
                "tempo": 120.0
            },
            {
                "start_time": 31.677272727272726,
                "end_time": 31.952272727272724,
                "pitch": 80,
                "velocity": 40,
                "duration": 0.2749999999999986,
                "tempo": 120.0
            },
            {
                "start_time": 31.986363636363635,
                "end_time": 32.24545454545454,
                "pitch": 80,
                "velocity": 40,
                "duration": 0.25909090909090793,
                "tempo": 120.0
            },
            {
                "start_time": 32.277272727272724,
                "end_time": 32.54545454545455,
                "pitch": 80,
                "velocity": 40,
                "duration": 0.26818181818182296,
                "tempo": 120.0
            },
            {
                "start_time": 32.57727272727273,
                "end_time": 32.695454545454545,
                "pitch": 82,
                "velocity": 40,
                "duration": 0.11818181818181728,
                "tempo": 120.0
            },
            {
                "start_time": 32.72954545454545,
                "end_time": 32.845454545454544,
                "pitch": 80,
                "velocity": 40,
                "duration": 0.11590909090909207,
                "tempo": 120.0
            },
            {
                "start_time": 32.87954545454545,
                "end_time": 32.99545454545454,
                "pitch": 79,
                "velocity": 40,
                "duration": 0.11590909090909207,
                "tempo": 120.0
            },
            {
                "start_time": 33.029545454545456,
                "end_time": 33.74772727272727,
                "pitch": 80,
                "velocity": 40,
                "duration": 0.7181818181818116,
                "tempo": 120.0
            },
            {
                "start_time": 33.78181818181818,
                "end_time": 34.04772727272727,
                "pitch": 79,
                "velocity": 40,
                "duration": 0.26590909090909065,
                "tempo": 120.0
            },
            {
                "start_time": 34.08181818181818,
                "end_time": 34.35,
                "pitch": 79,
                "velocity": 40,
                "duration": 0.26818181818182296,
                "tempo": 120.0
            },
            {
                "start_time": 34.38181818181818,
                "end_time": 34.65,
                "pitch": 79,
                "velocity": 40,
                "duration": 0.26818181818181586,
                "tempo": 120.0
            },
            {
                "start_time": 34.68181818181818,
                "end_time": 34.949999999999996,
                "pitch": 79,
                "velocity": 40,
                "duration": 0.26818181818181586,
                "tempo": 120.0
            },
            {
                "start_time": 34.98409090909091,
                "end_time": 35.1,
                "pitch": 79,
                "velocity": 40,
                "duration": 0.11590909090909207,
                "tempo": 120.0
            },
            {
                "start_time": 35.13409090909091,
                "end_time": 35.25,
                "pitch": 79,
                "velocity": 40,
                "duration": 0.11590909090909207,
                "tempo": 120.0
            },
            {
                "start_time": 35.28409090909091,
                "end_time": 35.4,
                "pitch": 79,
                "velocity": 40,
                "duration": 0.11590909090909207,
                "tempo": 120.0
            },
            {
                "start_time": 35.434090909090905,
                "end_time": 36.152272727272724,
                "pitch": 79,
                "velocity": 40,
                "duration": 0.7181818181818187,
                "tempo": 120.0
            },
            {
                "start_time": 36.18636363636364,
                "end_time": 36.45454545454545,
                "pitch": 80,
                "velocity": 40,
                "duration": 0.26818181818181586,
                "tempo": 120.0
            },
            {
                "start_time": 36.486363636363635,
                "end_time": 36.75454545454545,
                "pitch": 80,
                "velocity": 40,
                "duration": 0.26818181818181586,
                "tempo": 120.0
            },
            {
                "start_time": 36.788636363636364,
                "end_time": 37.074999999999996,
                "pitch": 80,
                "velocity": 40,
                "duration": 0.2863636363636317,
                "tempo": 120.0
            },
            {
                "start_time": 37.10909090909091,
                "end_time": 37.45681818181818,
                "pitch": 80,
                "velocity": 40,
                "duration": 0.3477272727272691,
                "tempo": 120.0
            },
            {
                "start_time": 37.50454545454545,
                "end_time": 37.67272727272727,
                "pitch": 82,
                "velocity": 40,
                "duration": 0.16818181818182154,
                "tempo": 120.0
            },
            {
                "start_time": 37.720454545454544,
                "end_time": 37.88863636363636,
                "pitch": 80,
                "velocity": 40,
                "duration": 0.16818181818181444,
                "tempo": 120.0
            },
            {
                "start_time": 37.93863636363636,
                "end_time": 38.11590909090909,
                "pitch": 79,
                "velocity": 40,
                "duration": 0.17727272727272947,
                "tempo": 120.0
            },
            {
                "start_time": 38.16590909090909,
                "end_time": 39.24318181818182,
                "pitch": 80,
                "velocity": 40,
                "duration": 1.077272727272728,
                "tempo": 120.0
            },
            {
                "start_time": 39.293181818181814,
                "end_time": 39.46818181818182,
                "pitch": 79,
                "velocity": 40,
                "duration": 0.17500000000000426,
                "tempo": 120.0
            },
            {
                "start_time": 39.518181818181816,
                "end_time": 39.69318181818181,
                "pitch": 79,
                "velocity": 40,
                "duration": 0.17499999999999716,
                "tempo": 120.0
            },
            {
                "start_time": 39.74318181818182,
                "end_time": 39.92045454545455,
                "pitch": 75,
                "velocity": 40,
                "duration": 0.17727272727272947,
                "tempo": 120.0
            },
            {
                "start_time": 39.970454545454544,
                "end_time": 40.14545454545454,
                "pitch": 75,
                "velocity": 40,
                "duration": 0.17499999999999716,
                "tempo": 120.0
            },
            {
                "start_time": 40.195454545454545,
                "end_time": 40.37045454545454,
                "pitch": 70,
                "velocity": 40,
                "duration": 0.17499999999999716,
                "tempo": 120.0
            },
            {
                "start_time": 40.42045454545455,
                "end_time": 40.595454545454544,
                "pitch": 70,
                "velocity": 40,
                "duration": 0.17499999999999716,
                "tempo": 120.0
            },
            {
                "start_time": 40.64545454545454,
                "end_time": 40.82954545454545,
                "pitch": 75,
                "velocity": 40,
                "duration": 0.1840909090909122,
                "tempo": 120.0
            },
            {
                "start_time": 40.89772727272727,
                "end_time": 41.13409090909091,
                "pitch": 75,
                "velocity": 40,
                "duration": 0.23636363636363455,
                "tempo": 120.0
            },
            {
                "start_time": 41.199999999999996,
                "end_time": 41.43636363636364,
                "pitch": 79,
                "velocity": 40,
                "duration": 0.23636363636364166,
                "tempo": 120.0
            },
            {
                "start_time": 41.50454545454545,
                "end_time": 41.73863636363636,
                "pitch": 79,
                "velocity": 40,
                "duration": 0.23409090909090935,
                "tempo": 120.0
            },
            {
                "start_time": 41.80681818181818,
                "end_time": 42.043181818181814,
                "pitch": 75,
                "velocity": 40,
                "duration": 0.23636363636363455,
                "tempo": 120.0
            },
            {
                "start_time": 42.10909090909091,
                "end_time": 42.345454545454544,
                "pitch": 75,
                "velocity": 40,
                "duration": 0.23636363636363455,
                "tempo": 120.0
            },
            {
                "start_time": 42.413636363636364,
                "end_time": 42.64772727272727,
                "pitch": 70,
                "velocity": 40,
                "duration": 0.23409090909090935,
                "tempo": 120.0
            },
            {
                "start_time": 42.715909090909086,
                "end_time": 42.95227272727273,
                "pitch": 70,
                "velocity": 40,
                "duration": 0.23636363636364166,
                "tempo": 120.0
            },
            {
                "start_time": 43.018181818181816,
                "end_time": 43.25454545454545,
                "pitch": 75,
                "velocity": 40,
                "duration": 0.23636363636363455,
                "tempo": 120.0
            },
            {
                "start_time": 43.32272727272727,
                "end_time": 43.55681818181818,
                "pitch": 75,
                "velocity": 40,
                "duration": 0.23409090909090935,
                "tempo": 120.0
            },
            {
                "start_time": 43.625,
                "end_time": 43.861363636363635,
                "pitch": 77,
                "velocity": 40,
                "duration": 0.23636363636363455,
                "tempo": 120.0
            },
            {
                "start_time": 43.92727272727272,
                "end_time": 44.163636363636364,
                "pitch": 77,
                "velocity": 40,
                "duration": 0.23636363636364166,
                "tempo": 120.0
            },
            {
                "start_time": 44.23181818181818,
                "end_time": 44.465909090909086,
                "pitch": 74,
                "velocity": 40,
                "duration": 0.23409090909090935,
                "tempo": 120.0
            },
            {
                "start_time": 44.53409090909091,
                "end_time": 44.77272727272727,
                "pitch": 74,
                "velocity": 40,
                "duration": 0.23863636363636687,
                "tempo": 120.0
            },
            {
                "start_time": 44.840909090909086,
                "end_time": 45.07954545454545,
                "pitch": 70,
                "velocity": 40,
                "duration": 0.23863636363636687,
                "tempo": 120.0
            },
            {
                "start_time": 45.14772727272727,
                "end_time": 45.38636363636363,
                "pitch": 70,
                "velocity": 40,
                "duration": 0.23863636363635976,
                "tempo": 120.0
            },
            {
                "start_time": 45.45227272727273,
                "end_time": 45.69090909090909,
                "pitch": 74,
                "velocity": 40,
                "duration": 0.23863636363635976,
                "tempo": 120.0
            },
            {
                "start_time": 45.75681818181818,
                "end_time": 45.98863636363636,
                "pitch": 74,
                "velocity": 40,
                "duration": 0.23181818181817704,
                "tempo": 120.0
            },
            {
                "start_time": 46.054545454545455,
                "end_time": 46.28409090909091,
                "pitch": 77,
                "velocity": 40,
                "duration": 0.22954545454545183,
                "tempo": 120.0
            },
            {
                "start_time": 46.349999999999994,
                "end_time": 46.58181818181818,
                "pitch": 77,
                "velocity": 40,
                "duration": 0.23181818181818414,
                "tempo": 120.0
            },
            {
                "start_time": 46.64772727272727,
                "end_time": 46.87954545454545,
                "pitch": 80,
                "velocity": 40,
                "duration": 0.23181818181817704,
                "tempo": 120.0
            },
            {
                "start_time": 46.94772727272727,
                "end_time": 47.184090909090905,
                "pitch": 80,
                "velocity": 40,
                "duration": 0.23636363636363455,
                "tempo": 120.0
            },
            {
                "start_time": 47.252272727272725,
                "end_time": 47.49090909090909,
                "pitch": 79,
                "velocity": 40,
                "duration": 0.23863636363636687,
                "tempo": 120.0
            },
            {
                "start_time": 47.559090909090905,
                "end_time": 47.79772727272727,
                "pitch": 79,
                "velocity": 40,
                "duration": 0.23863636363636687,
                "tempo": 120.0
            },
            {
                "start_time": 47.86590909090909,
                "end_time": 48.10227272727273,
                "pitch": 77,
                "velocity": 40,
                "duration": 0.23636363636363455,
                "tempo": 120.0
            },
            {
                "start_time": 48.168181818181814,
                "end_time": 48.4,
                "pitch": 77,
                "velocity": 40,
                "duration": 0.23181818181818414,
                "tempo": 120.0
            },
            {
                "start_time": 48.465909090909086,
                "end_time": 48.695454545454545,
                "pitch": 77,
                "velocity": 40,
                "duration": 0.22954545454545894,
                "tempo": 120.0
            },
            {
                "start_time": 48.76363636363636,
                "end_time": 48.99318181818182,
                "pitch": 77,
                "velocity": 40,
                "duration": 0.22954545454545894,
                "tempo": 120.0
            },
            {
                "start_time": 49.059090909090905,
                "end_time": 49.29090909090909,
                "pitch": 75,
                "velocity": 40,
                "duration": 0.23181818181818414,
                "tempo": 120.0
            },
            {
                "start_time": 49.35909090909091,
                "end_time": 49.59318181818182,
                "pitch": 75,
                "velocity": 40,
                "duration": 0.23409090909090935,
                "tempo": 120.0
            },
            {
                "start_time": 49.66136363636363,
                "end_time": 49.89772727272727,
                "pitch": 74,
                "velocity": 40,
                "duration": 0.23636363636364166,
                "tempo": 120.0
            },
            {
                "start_time": 49.96363636363636,
                "end_time": 50.199999999999996,
                "pitch": 74,
                "velocity": 40,
                "duration": 0.23636363636363455,
                "tempo": 120.0
            },
            {
                "start_time": 50.268181818181816,
                "end_time": 50.502272727272725,
                "pitch": 72,
                "velocity": 40,
                "duration": 0.23409090909090935,
                "tempo": 120.0
            },
            {
                "start_time": 50.570454545454545,
                "end_time": 50.80681818181818,
                "pitch": 72,
                "velocity": 40,
                "duration": 0.23636363636363455,
                "tempo": 120.0
            },
            {
                "start_time": 50.87272727272727,
                "end_time": 51.10909090909091,
                "pitch": 77,
                "velocity": 40,
                "duration": 0.23636363636364166,
                "tempo": 120.0
            },
            {
                "start_time": 51.17727272727272,
                "end_time": 51.41136363636363,
                "pitch": 77,
                "velocity": 40,
                "duration": 0.23409090909090935,
                "tempo": 120.0
            },
            {
                "start_time": 51.47954545454545,
                "end_time": 51.715909090909086,
                "pitch": 75,
                "velocity": 40,
                "duration": 0.23636363636363455,
                "tempo": 120.0
            },
            {
                "start_time": 51.78181818181818,
                "end_time": 52.01590909090909,
                "pitch": 75,
                "velocity": 40,
                "duration": 0.23409090909090935,
                "tempo": 120.0
            },
            {
                "start_time": 52.08181818181818,
                "end_time": 52.31590909090909,
                "pitch": 74,
                "velocity": 40,
                "duration": 0.23409090909090935,
                "tempo": 120.0
            },
            {
                "start_time": 52.38181818181818,
                "end_time": 52.615909090909085,
                "pitch": 74,
                "velocity": 40,
                "duration": 0.23409090909090224,
                "tempo": 120.0
            },
            {
                "start_time": 52.68181818181818,
                "end_time": 52.91590909090909,
                "pitch": 72,
                "velocity": 40,
                "duration": 0.23409090909090935,
                "tempo": 120.0
            },
            {
                "start_time": 52.98181818181818,
                "end_time": 53.21818181818182,
                "pitch": 72,
                "velocity": 40,
                "duration": 0.23636363636364166,
                "tempo": 120.0
            },
            {
                "start_time": 53.28636363636363,
                "end_time": 53.52045454545454,
                "pitch": 70,
                "velocity": 40,
                "duration": 0.23409090909090935,
                "tempo": 120.0
            },
            {
                "start_time": 53.58863636363636,
                "end_time": 53.824999999999996,
                "pitch": 70,
                "velocity": 40,
                "duration": 0.23636363636363455,
                "tempo": 120.0
            },
            {
                "start_time": 53.89090909090909,
                "end_time": 54.127272727272725,
                "pitch": 74,
                "velocity": 40,
                "duration": 0.23636363636363455,
                "tempo": 120.0
            },
            {
                "start_time": 54.195454545454545,
                "end_time": 54.429545454545455,
                "pitch": 74,
                "velocity": 40,
                "duration": 0.23409090909090935,
                "tempo": 120.0
            },
            {
                "start_time": 54.49772727272727,
                "end_time": 54.73409090909091,
                "pitch": 77,
                "velocity": 40,
                "duration": 0.23636363636364166,
                "tempo": 120.0
            },
            {
                "start_time": 54.8,
                "end_time": 55.03636363636363,
                "pitch": 77,
                "velocity": 40,
                "duration": 0.23636363636363455,
                "tempo": 120.0
            },
            {
                "start_time": 55.10454545454545,
                "end_time": 55.33863636363636,
                "pitch": 74,
                "velocity": 40,
                "duration": 0.23409090909090935,
                "tempo": 120.0
            },
            {
                "start_time": 55.40681818181818,
                "end_time": 55.643181818181816,
                "pitch": 77,
                "velocity": 40,
                "duration": 0.23636363636363455,
                "tempo": 120.0
            },
            {
                "start_time": 55.709090909090904,
                "end_time": 55.945454545454545,
                "pitch": 72,
                "velocity": 40,
                "duration": 0.23636363636364166,
                "tempo": 120.0
            },
            {
                "start_time": 56.01363636363636,
                "end_time": 56.24772727272727,
                "pitch": 72,
                "velocity": 40,
                "duration": 0.23409090909090935,
                "tempo": 120.0
            },
            {
                "start_time": 56.31590909090909,
                "end_time": 56.55227272727272,
                "pitch": 77,
                "velocity": 40,
                "duration": 0.23636363636363455,
                "tempo": 120.0
            },
            {
                "start_time": 56.61818181818182,
                "end_time": 56.85454545454545,
                "pitch": 77,
                "velocity": 40,
                "duration": 0.23636363636363455,
                "tempo": 120.0
            },
            {
                "start_time": 56.92272727272727,
                "end_time": 57.15681818181818,
                "pitch": 80,
                "velocity": 40,
                "duration": 0.23409090909090935,
                "tempo": 120.0
            },
            {
                "start_time": 57.224999999999994,
                "end_time": 57.461363636363636,
                "pitch": 80,
                "velocity": 40,
                "duration": 0.23636363636364166,
                "tempo": 120.0
            },
            {
                "start_time": 57.527272727272724,
                "end_time": 57.76363636363636,
                "pitch": 79,
                "velocity": 40,
                "duration": 0.23636363636363455,
                "tempo": 120.0
            },
            {
                "start_time": 57.82954545454545,
                "end_time": 58.06363636363636,
                "pitch": 77,
                "velocity": 40,
                "duration": 0.23409090909090935,
                "tempo": 120.0
            },
            {
                "start_time": 58.12954545454545,
                "end_time": 58.36363636363636,
                "pitch": 79,
                "velocity": 40,
                "duration": 0.23409090909090935,
                "tempo": 120.0
            },
            {
                "start_time": 58.429545454545455,
                "end_time": 58.663636363636364,
                "pitch": 79,
                "velocity": 40,
                "duration": 0.23409090909090935,
                "tempo": 120.0
            },
            {
                "start_time": 58.72954545454545,
                "end_time": 58.96363636363636,
                "pitch": 75,
                "velocity": 40,
                "duration": 0.23409090909090935,
                "tempo": 120.0
            },
            {
                "start_time": 59.03181818181818,
                "end_time": 59.26590909090909,
                "pitch": 75,
                "velocity": 40,
                "duration": 0.23409090909090935,
                "tempo": 120.0
            },
            {
                "start_time": 59.334090909090904,
                "end_time": 59.570454545454545,
                "pitch": 70,
                "velocity": 40,
                "duration": 0.23636363636364166,
                "tempo": 120.0
            },
            {
                "start_time": 59.63636363636363,
                "end_time": 59.87272727272727,
                "pitch": 70,
                "velocity": 40,
                "duration": 0.23636363636363455,
                "tempo": 120.0
            },
            {
                "start_time": 59.94090909090909,
                "end_time": 60.175,
                "pitch": 75,
                "velocity": 40,
                "duration": 0.23409090909090935,
                "tempo": 120.0
            },
            {
                "start_time": 60.24318181818182,
                "end_time": 60.47954545454545,
                "pitch": 75,
                "velocity": 40,
                "duration": 0.23636363636363455,
                "tempo": 120.0
            },
            {
                "start_time": 60.54545454545454,
                "end_time": 60.78181818181818,
                "pitch": 79,
                "velocity": 40,
                "duration": 0.23636363636364166,
                "tempo": 120.0
            },
            {
                "start_time": 60.849999999999994,
                "end_time": 61.084090909090904,
                "pitch": 79,
                "velocity": 40,
                "duration": 0.23409090909090935,
                "tempo": 120.0
            },
            {
                "start_time": 61.152272727272724,
                "end_time": 61.38863636363636,
                "pitch": 75,
                "velocity": 40,
                "duration": 0.23636363636363455,
                "tempo": 120.0
            },
            {
                "start_time": 61.45454545454545,
                "end_time": 61.69090909090909,
                "pitch": 75,
                "velocity": 40,
                "duration": 0.23636363636363455,
                "tempo": 120.0
            },
            {
                "start_time": 61.75909090909091,
                "end_time": 61.99318181818182,
                "pitch": 70,
                "velocity": 40,
                "duration": 0.23409090909090935,
                "tempo": 120.0
            },
            {
                "start_time": 62.06136363636363,
                "end_time": 62.29772727272727,
                "pitch": 70,
                "velocity": 40,
                "duration": 0.23636363636364166,
                "tempo": 120.0
            },
            {
                "start_time": 62.36363636363636,
                "end_time": 62.599999999999994,
                "pitch": 75,
                "velocity": 40,
                "duration": 0.23636363636363455,
                "tempo": 120.0
            },
            {
                "start_time": 62.668181818181814,
                "end_time": 62.902272727272724,
                "pitch": 75,
                "velocity": 40,
                "duration": 0.23409090909090935,
                "tempo": 120.0
            },
            {
                "start_time": 62.970454545454544,
                "end_time": 63.20681818181818,
                "pitch": 77,
                "velocity": 40,
                "duration": 0.23636363636363455,
                "tempo": 120.0
            },
            {
                "start_time": 63.272727272727266,
                "end_time": 63.50909090909091,
                "pitch": 77,
                "velocity": 40,
                "duration": 0.23636363636364166,
                "tempo": 120.0
            },
            {
                "start_time": 63.57727272727272,
                "end_time": 63.81136363636363,
                "pitch": 74,
                "velocity": 40,
                "duration": 0.23409090909090935,
                "tempo": 120.0
            },
            {
                "start_time": 63.87954545454545,
                "end_time": 64.11136363636363,
                "pitch": 74,
                "velocity": 40,
                "duration": 0.23181818181818414,
                "tempo": 120.0
            },
            {
                "start_time": 64.17954545454545,
                "end_time": 64.41136363636363,
                "pitch": 70,
                "velocity": 40,
                "duration": 0.23181818181818414,
                "tempo": 120.0
            },
            {
                "start_time": 64.47954545454544,
                "end_time": 64.71136363636363,
                "pitch": 70,
                "velocity": 40,
                "duration": 0.23181818181818414,
                "tempo": 120.0
            },
            {
                "start_time": 64.77954545454546,
                "end_time": 65.01136363636364,
                "pitch": 74,
                "velocity": 40,
                "duration": 0.23181818181818414,
                "tempo": 120.0
            },
            {
                "start_time": 65.07954545454545,
                "end_time": 65.31590909090909,
                "pitch": 74,
                "velocity": 40,
                "duration": 0.23636363636363455,
                "tempo": 120.0
            },
            {
                "start_time": 65.38181818181818,
                "end_time": 65.61818181818181,
                "pitch": 77,
                "velocity": 40,
                "duration": 0.23636363636363455,
                "tempo": 120.0
            },
            {
                "start_time": 65.68636363636364,
                "end_time": 65.92045454545455,
                "pitch": 77,
                "velocity": 40,
                "duration": 0.23409090909090935,
                "tempo": 120.0
            },
            {
                "start_time": 65.98863636363636,
                "end_time": 66.225,
                "pitch": 80,
                "velocity": 40,
                "duration": 0.23636363636363455,
                "tempo": 120.0
            },
            {
                "start_time": 66.29318181818182,
                "end_time": 66.53181818181818,
                "pitch": 80,
                "velocity": 40,
                "duration": 0.23863636363635976,
                "tempo": 120.0
            },
            {
                "start_time": 66.6,
                "end_time": 66.83636363636363,
                "pitch": 79,
                "velocity": 40,
                "duration": 0.23636363636363455,
                "tempo": 120.0
            },
            {
                "start_time": 66.90454545454546,
                "end_time": 67.14318181818182,
                "pitch": 79,
                "velocity": 40,
                "duration": 0.23863636363635976,
                "tempo": 120.0
            },
            {
                "start_time": 67.21136363636363,
                "end_time": 67.44772727272726,
                "pitch": 77,
                "velocity": 40,
                "duration": 0.23636363636363455,
                "tempo": 120.0
            },
            {
                "start_time": 67.51363636363637,
                "end_time": 67.74545454545454,
                "pitch": 77,
                "velocity": 40,
                "duration": 0.23181818181816993,
                "tempo": 120.0
            },
            {
                "start_time": 67.81136363636364,
                "end_time": 68.04318181818182,
                "pitch": 70,
                "velocity": 40,
                "duration": 0.23181818181818414,
                "tempo": 120.0
            },
            {
                "start_time": 68.10909090909091,
                "end_time": 68.33863636363635,
                "pitch": 70,
                "velocity": 40,
                "duration": 0.22954545454544473,
                "tempo": 120.0
            },
            {
                "start_time": 68.40454545454546,
                "end_time": 68.63636363636363,
                "pitch": 72,
                "velocity": 40,
                "duration": 0.23181818181816993,
                "tempo": 120.0
            },
            {
                "start_time": 68.70454545454545,
                "end_time": 68.94090909090909,
                "pitch": 72,
                "velocity": 40,
                "duration": 0.23636363636363455,
                "tempo": 120.0
            },
            {
                "start_time": 69.00681818181818,
                "end_time": 69.24318181818181,
                "pitch": 74,
                "velocity": 40,
                "duration": 0.23636363636363455,
                "tempo": 120.0
            },
            {
                "start_time": 69.31136363636364,
                "end_time": 69.54545454545455,
                "pitch": 74,
                "velocity": 40,
                "duration": 0.23409090909090935,
                "tempo": 120.0
            },
            {
                "start_time": 69.61363636363636,
                "end_time": 69.84772727272727,
                "pitch": 75,
                "velocity": 40,
                "duration": 0.23409090909090935,
                "tempo": 120.0
            },
            {
                "start_time": 69.91590909090908,
                "end_time": 70.14772727272727,
                "pitch": 75,
                "velocity": 40,
                "duration": 0.23181818181818414,
                "tempo": 120.0
            },
            {
                "start_time": 70.2159090909091,
                "end_time": 70.44772727272726,
                "pitch": 77,
                "velocity": 40,
                "duration": 0.23181818181816993,
                "tempo": 120.0
            },
            {
                "start_time": 70.51590909090909,
                "end_time": 70.74772727272727,
                "pitch": 77,
                "velocity": 40,
                "duration": 0.23181818181818414,
                "tempo": 120.0
            },
            {
                "start_time": 70.81590909090909,
                "end_time": 71.05,
                "pitch": 75,
                "velocity": 40,
                "duration": 0.23409090909090935,
                "tempo": 120.0
            },
            {
                "start_time": 71.11590909090908,
                "end_time": 71.35227272727272,
                "pitch": 75,
                "velocity": 40,
                "duration": 0.23636363636363455,
                "tempo": 120.0
            },
            {
                "start_time": 71.42045454545455,
                "end_time": 71.65454545454546,
                "pitch": 74,
                "velocity": 40,
                "duration": 0.23409090909090935,
                "tempo": 120.0
            },
            {
                "start_time": 71.72272727272727,
                "end_time": 71.9590909090909,
                "pitch": 74,
                "velocity": 40,
                "duration": 0.23636363636363455,
                "tempo": 120.0
            },
            {
                "start_time": 72.02499999999999,
                "end_time": 72.26136363636363,
                "pitch": 72,
                "velocity": 40,
                "duration": 0.23636363636363455,
                "tempo": 120.0
            },
            {
                "start_time": 72.32954545454545,
                "end_time": 72.56363636363636,
                "pitch": 72,
                "velocity": 40,
                "duration": 0.23409090909090935,
                "tempo": 120.0
            },
            {
                "start_time": 72.63181818181818,
                "end_time": 72.86818181818181,
                "pitch": 70,
                "velocity": 40,
                "duration": 0.23636363636363455,
                "tempo": 120.0
            },
            {
                "start_time": 72.93409090909091,
                "end_time": 73.17045454545455,
                "pitch": 70,
                "velocity": 40,
                "duration": 0.23636363636363455,
                "tempo": 120.0
            },
            {
                "start_time": 73.23863636363636,
                "end_time": 73.47272727272727,
                "pitch": 74,
                "velocity": 40,
                "duration": 0.23409090909090935,
                "tempo": 120.0
            },
            {
                "start_time": 73.54090909090908,
                "end_time": 73.77727272727272,
                "pitch": 74,
                "velocity": 40,
                "duration": 0.23636363636363455,
                "tempo": 120.0
            },
            {
                "start_time": 73.84318181818182,
                "end_time": 74.07954545454545,
                "pitch": 77,
                "velocity": 40,
                "duration": 0.23636363636363455,
                "tempo": 120.0
            },
            {
                "start_time": 74.14772727272727,
                "end_time": 74.38181818181818,
                "pitch": 77,
                "velocity": 40,
                "duration": 0.23409090909090935,
                "tempo": 120.0
            },
            {
                "start_time": 74.45,
                "end_time": 74.68636363636364,
                "pitch": 74,
                "velocity": 40,
                "duration": 0.23636363636363455,
                "tempo": 120.0
            },
            {
                "start_time": 74.75227272727273,
                "end_time": 74.98863636363636,
                "pitch": 77,
                "velocity": 40,
                "duration": 0.23636363636363455,
                "tempo": 120.0
            },
            {
                "start_time": 75.05681818181817,
                "end_time": 75.08863636363635,
                "pitch": 75,
                "velocity": 40,
                "duration": 0.0318181818181813,
                "tempo": 120.0
            },
            {
                "start_time": 76.27272727272727,
                "end_time": 76.81590909090909,
                "pitch": 72,
                "velocity": 40,
                "duration": 0.5431818181818215,
                "tempo": 120.0
            },
            {
                "start_time": 76.8840909090909,
                "end_time": 77.41818181818181,
                "pitch": 74,
                "velocity": 40,
                "duration": 0.5340909090909065,
                "tempo": 120.0
            },
            {
                "start_time": 77.48409090909091,
                "end_time": 78.01136363636363,
                "pitch": 80,
                "velocity": 40,
                "duration": 0.5272727272727167,
                "tempo": 120.0
            },
            {
                "start_time": 78.07727272727273,
                "end_time": 78.30909090909091,
                "pitch": 79,
                "velocity": 40,
                "duration": 0.23181818181818414,
                "tempo": 120.0
            },
            {
                "start_time": 78.37727272727273,
                "end_time": 78.91590909090908,
                "pitch": 77,
                "velocity": 40,
                "duration": 0.5386363636363569,
                "tempo": 120.0
            },
            {
                "start_time": 78.98409090909091,
                "end_time": 79.21818181818182,
                "pitch": 80,
                "velocity": 40,
                "duration": 0.23409090909090935,
                "tempo": 120.0
            },
            {
                "start_time": 79.28636363636363,
                "end_time": 79.52272727272727,
                "pitch": 79,
                "velocity": 40,
                "duration": 0.23636363636363455,
                "tempo": 120.0
            },
            {
                "start_time": 79.58863636363635,
                "end_time": 79.825,
                "pitch": 77,
                "velocity": 40,
                "duration": 0.23636363636364877,
                "tempo": 120.0
            },
            {
                "start_time": 79.89318181818182,
                "end_time": 80.43181818181817,
                "pitch": 80,
                "velocity": 40,
                "duration": 0.5386363636363569,
                "tempo": 120.0
            },
            {
                "start_time": 80.49772727272727,
                "end_time": 80.73409090909091,
                "pitch": 80,
                "velocity": 40,
                "duration": 0.23636363636363455,
                "tempo": 120.0
            },
            {
                "start_time": 80.80227272727272,
                "end_time": 81.3409090909091,
                "pitch": 77,
                "velocity": 40,
                "duration": 0.5386363636363711,
                "tempo": 120.0
            },
            {
                "start_time": 81.40681818181818,
                "end_time": 81.64318181818182,
                "pitch": 77,
                "velocity": 40,
                "duration": 0.23636363636363455,
                "tempo": 120.0
            },
            {
                "start_time": 81.71136363636363,
                "end_time": 81.94545454545454,
                "pitch": 79,
                "velocity": 40,
                "duration": 0.23409090909090935,
                "tempo": 120.0
            },
            {
                "start_time": 82.01363636363637,
                "end_time": 82.24545454545454,
                "pitch": 80,
                "velocity": 40,
                "duration": 0.23181818181816993,
                "tempo": 120.0
            },
            {
                "start_time": 82.31363636363636,
                "end_time": 82.84545454545454,
                "pitch": 84,
                "velocity": 40,
                "duration": 0.5318181818181813,
                "tempo": 120.0
            },
            {
                "start_time": 82.91363636363636,
                "end_time": 83.45,
                "pitch": 84,
                "velocity": 40,
                "duration": 0.5363636363636459,
                "tempo": 120.0
            },
            {
                "start_time": 83.51590909090909,
                "end_time": 84.05454545454545,
                "pitch": 84,
                "velocity": 40,
                "duration": 0.5386363636363569,
                "tempo": 120.0
            },
            {
                "start_time": 84.12272727272727,
                "end_time": 84.35909090909091,
                "pitch": 79,
                "velocity": 40,
                "duration": 0.23636363636363455,
                "tempo": 120.0
            },
            {
                "start_time": 84.425,
                "end_time": 84.96363636363635,
                "pitch": 75,
                "velocity": 40,
                "duration": 0.5386363636363569,
                "tempo": 120.0
            },
            {
                "start_time": 85.03181818181818,
                "end_time": 85.26818181818182,
                "pitch": 75,
                "velocity": 40,
                "duration": 0.23636363636363455,
                "tempo": 120.0
            },
            {
                "start_time": 85.3340909090909,
                "end_time": 85.87272727272727,
                "pitch": 75,
                "velocity": 40,
                "duration": 0.5386363636363711,
                "tempo": 120.0
            },
            {
                "start_time": 85.94090909090909,
                "end_time": 86.47954545454544,
                "pitch": 75,
                "velocity": 40,
                "duration": 0.5386363636363569,
                "tempo": 120.0
            },
            {
                "start_time": 86.54772727272727,
                "end_time": 87.08636363636363,
                "pitch": 79,
                "velocity": 40,
                "duration": 0.5386363636363569,
                "tempo": 120.0
            },
            {
                "start_time": 87.15227272727272,
                "end_time": 87.69090909090909,
                "pitch": 80,
                "velocity": 40,
                "duration": 0.5386363636363711,
                "tempo": 120.0
            },
            {
                "start_time": 87.7590909090909,
                "end_time": 87.99545454545454,
                "pitch": 79,
                "velocity": 40,
                "duration": 0.23636363636363455,
                "tempo": 120.0
            },
            {
                "start_time": 88.06136363636364,
                "end_time": 88.59545454545454,
                "pitch": 77,
                "velocity": 40,
                "duration": 0.5340909090909065,
                "tempo": 120.0
            },
            {
                "start_time": 88.66136363636363,
                "end_time": 88.89545454545454,
                "pitch": 80,
                "velocity": 40,
                "duration": 0.23409090909090935,
                "tempo": 120.0
            },
            {
                "start_time": 88.96136363636363,
                "end_time": 89.19545454545454,
                "pitch": 79,
                "velocity": 40,
                "duration": 0.23409090909090935,
                "tempo": 120.0
            },
            {
                "start_time": 89.26136363636363,
                "end_time": 89.49772727272727,
                "pitch": 77,
                "velocity": 40,
                "duration": 0.23636363636364877,
                "tempo": 120.0
            },
            {
                "start_time": 89.56590909090909,
                "end_time": 90.10454545454544,
                "pitch": 80,
                "velocity": 40,
                "duration": 0.5386363636363569,
                "tempo": 120.0
            },
            {
                "start_time": 90.17045454545455,
                "end_time": 90.40681818181818,
                "pitch": 80,
                "velocity": 40,
                "duration": 0.23636363636363455,
                "tempo": 120.0
            },
            {
                "start_time": 90.475,
                "end_time": 91.01363636363637,
                "pitch": 77,
                "velocity": 40,
                "duration": 0.5386363636363711,
                "tempo": 120.0
            },
            {
                "start_time": 91.07954545454545,
                "end_time": 91.31590909090909,
                "pitch": 77,
                "velocity": 40,
                "duration": 0.23636363636363455,
                "tempo": 120.0
            },
            {
                "start_time": 91.3840909090909,
                "end_time": 91.61818181818181,
                "pitch": 79,
                "velocity": 40,
                "duration": 0.23409090909090935,
                "tempo": 120.0
            },
            {
                "start_time": 91.68636363636364,
                "end_time": 91.925,
                "pitch": 80,
                "velocity": 40,
                "duration": 0.23863636363635976,
                "tempo": 120.0
            },
            {
                "start_time": 91.99318181818181,
                "end_time": 92.53863636363636,
                "pitch": 84,
                "velocity": 40,
                "duration": 0.5454545454545467,
                "tempo": 120.0
            },
            {
                "start_time": 92.60454545454544,
                "end_time": 93.13863636363637,
                "pitch": 84,
                "velocity": 40,
                "duration": 0.5340909090909207,
                "tempo": 120.0
            },
            {
                "start_time": 93.20681818181818,
                "end_time": 93.73409090909091,
                "pitch": 84,
                "velocity": 40,
                "duration": 0.5272727272727309,
                "tempo": 120.0
            },
            {
                "start_time": 93.8,
                "end_time": 94.03181818181818,
                "pitch": 86,
                "velocity": 40,
                "duration": 0.23181818181818414,
                "tempo": 120.0
            },
            {
                "start_time": 94.09772727272727,
                "end_time": 94.63181818181818,
                "pitch": 86,
                "velocity": 40,
                "duration": 0.5340909090909065,
                "tempo": 120.0
            },
            {
                "start_time": 94.69772727272726,
                "end_time": 94.73181818181818,
                "pitch": 61,
                "velocity": 40,
                "duration": 0.03409090909092072,
                "tempo": 120.0
            },
            {
                "start_time": 94.73181818181818,
                "end_time": 94.76363636363637,
                "pitch": 57,
                "velocity": 40,
                "duration": 0.0318181818181813,
                "tempo": 120.0
            },
            {
                "start_time": 94.76363636363637,
                "end_time": 94.79772727272727,
                "pitch": 54,
                "velocity": 40,
                "duration": 0.03409090909090651,
                "tempo": 120.0
            },
            {
                "start_time": 94.79772727272727,
                "end_time": 94.83181818181818,
                "pitch": 51,
                "velocity": 40,
                "duration": 0.03409090909090651,
                "tempo": 120.0
            },
            {
                "start_time": 94.83181818181818,
                "end_time": 94.86363636363636,
                "pitch": 61,
                "velocity": 40,
                "duration": 0.0318181818181813,
                "tempo": 120.0
            },
            {
                "start_time": 94.86363636363636,
                "end_time": 94.89772727272727,
                "pitch": 57,
                "velocity": 40,
                "duration": 0.03409090909090651,
                "tempo": 120.0
            },
            {
                "start_time": 94.89772727272727,
                "end_time": 94.92272727272727,
                "pitch": 54,
                "velocity": 40,
                "duration": 0.025000000000005684,
                "tempo": 120.0
            },
            {
                "start_time": 94.92272727272727,
                "end_time": 94.94772727272726,
                "pitch": 51,
                "velocity": 40,
                "duration": 0.024999999999991473,
                "tempo": 120.0
            },
            {
                "start_time": 94.94772727272726,
                "end_time": 94.97272727272727,
                "pitch": 49,
                "velocity": 40,
                "duration": 0.025000000000005684,
                "tempo": 120.0
            },
            {
                "start_time": 94.97272727272727,
                "end_time": 94.99772727272727,
                "pitch": 61,
                "velocity": 40,
                "duration": 0.025000000000005684,
                "tempo": 120.0
            },
            {
                "start_time": 94.99772727272727,
                "end_time": 95.02272727272727,
                "pitch": 57,
                "velocity": 40,
                "duration": 0.024999999999991473,
                "tempo": 120.0
            },
            {
                "start_time": 95.02272727272727,
                "end_time": 95.04772727272727,
                "pitch": 54,
                "velocity": 40,
                "duration": 0.025000000000005684,
                "tempo": 120.0
            },
            {
                "start_time": 95.04772727272727,
                "end_time": 95.07272727272726,
                "pitch": 51,
                "velocity": 40,
                "duration": 0.024999999999991473,
                "tempo": 120.0
            },
            {
                "start_time": 95.07272727272726,
                "end_time": 95.09772727272727,
                "pitch": 49,
                "velocity": 40,
                "duration": 0.025000000000005684,
                "tempo": 120.0
            },
            {
                "start_time": 95.09772727272727,
                "end_time": 95.12272727272727,
                "pitch": 45,
                "velocity": 40,
                "duration": 0.025000000000005684,
                "tempo": 120.0
            },
            {
                "start_time": 95.12272727272727,
                "end_time": 95.14772727272727,
                "pitch": 42,
                "velocity": 40,
                "duration": 0.024999999999991473,
                "tempo": 120.0
            },
            {
                "start_time": 95.14772727272727,
                "end_time": 95.17272727272727,
                "pitch": 39,
                "velocity": 40,
                "duration": 0.025000000000005684,
                "tempo": 120.0
            },
            {
                "start_time": 95.17272727272727,
                "end_time": 95.19772727272726,
                "pitch": 36,
                "velocity": 40,
                "duration": 0.024999999999991473,
                "tempo": 120.0
            },
            {
                "start_time": 95.19772727272726,
                "end_time": 95.22272727272727,
                "pitch": 61,
                "velocity": 40,
                "duration": 0.025000000000005684,
                "tempo": 120.0
            },
            {
                "start_time": 95.22272727272727,
                "end_time": 95.24772727272727,
                "pitch": 57,
                "velocity": 40,
                "duration": 0.025000000000005684,
                "tempo": 120.0
            },
            {
                "start_time": 95.24772727272727,
                "end_time": 95.27272727272727,
                "pitch": 54,
                "velocity": 40,
                "duration": 0.024999999999991473,
                "tempo": 120.0
            },
            {
                "start_time": 95.27272727272727,
                "end_time": 95.29772727272727,
                "pitch": 51,
                "velocity": 40,
                "duration": 0.025000000000005684,
                "tempo": 120.0
            },
            {
                "start_time": 95.29772727272727,
                "end_time": 95.32499999999999,
                "pitch": 49,
                "velocity": 40,
                "duration": 0.02727272727271668,
                "tempo": 120.0
            },
            {
                "start_time": 95.32499999999999,
                "end_time": 95.35,
                "pitch": 45,
                "velocity": 40,
                "duration": 0.025000000000005684,
                "tempo": 120.0
            },
            {
                "start_time": 95.35,
                "end_time": 95.36590909090908,
                "pitch": 42,
                "velocity": 40,
                "duration": 0.01590909090909065,
                "tempo": 120.0
            },
            {
                "start_time": 95.36590909090908,
                "end_time": 95.38181818181818,
                "pitch": 39,
                "velocity": 40,
                "duration": 0.01590909090909065,
                "tempo": 120.0
            },
            {
                "start_time": 95.38181818181818,
                "end_time": 95.39999999999999,
                "pitch": 36,
                "velocity": 40,
                "duration": 0.018181818181815856,
                "tempo": 120.0
            },
            {
                "start_time": 95.39999999999999,
                "end_time": 95.41590909090908,
                "pitch": 58,
                "velocity": 40,
                "duration": 0.01590909090909065,
                "tempo": 120.0
            },
            {
                "start_time": 95.41590909090908,
                "end_time": 95.43181818181817,
                "pitch": 54,
                "velocity": 40,
                "duration": 0.01590909090909065,
                "tempo": 120.0
            },
            {
                "start_time": 95.43181818181817,
                "end_time": 95.44999999999999,
                "pitch": 51,
                "velocity": 40,
                "duration": 0.018181818181815856,
                "tempo": 120.0
            },
            {
                "start_time": 95.44999999999999,
                "end_time": 95.46590909090908,
                "pitch": 48,
                "velocity": 40,
                "duration": 0.01590909090909065,
                "tempo": 120.0
            },
            {
                "start_time": 95.46590909090908,
                "end_time": 95.48181818181818,
                "pitch": 44,
                "velocity": 40,
                "duration": 0.01590909090910486,
                "tempo": 120.0
            },
            {
                "start_time": 95.48181818181818,
                "end_time": 95.5,
                "pitch": 41,
                "velocity": 40,
                "duration": 0.018181818181815856,
                "tempo": 120.0
            },
            {
                "start_time": 95.5,
                "end_time": 95.51590909090909,
                "pitch": 38,
                "velocity": 40,
                "duration": 0.01590909090909065,
                "tempo": 120.0
            },
            {
                "start_time": 95.51590909090909,
                "end_time": 95.53181818181818,
                "pitch": 34,
                "velocity": 40,
                "duration": 0.01590909090909065,
                "tempo": 120.0
            },
            {
                "start_time": 95.53181818181818,
                "end_time": 95.55,
                "pitch": 30,
                "velocity": 40,
                "duration": 0.018181818181815856,
                "tempo": 120.0
            },
            {
                "start_time": 95.55,
                "end_time": 95.56590909090909,
                "pitch": 58,
                "velocity": 40,
                "duration": 0.01590909090909065,
                "tempo": 120.0
            },
            {
                "start_time": 95.56590909090909,
                "end_time": 95.58181818181818,
                "pitch": 54,
                "velocity": 40,
                "duration": 0.01590909090909065,
                "tempo": 120.0
            },
            {
                "start_time": 95.58181818181818,
                "end_time": 95.6,
                "pitch": 51,
                "velocity": 40,
                "duration": 0.018181818181815856,
                "tempo": 120.0
            },
            {
                "start_time": 95.6,
                "end_time": 95.61590909090908,
                "pitch": 48,
                "velocity": 40,
                "duration": 0.01590909090909065,
                "tempo": 120.0
            },
            {
                "start_time": 95.61590909090908,
                "end_time": 95.63181818181818,
                "pitch": 44,
                "velocity": 40,
                "duration": 0.01590909090909065,
                "tempo": 120.0
            },
            {
                "start_time": 95.63181818181818,
                "end_time": 95.64999999999999,
                "pitch": 41,
                "velocity": 40,
                "duration": 0.018181818181815856,
                "tempo": 120.0
            },
            {
                "start_time": 95.64999999999999,
                "end_time": 95.66590909090908,
                "pitch": 38,
                "velocity": 40,
                "duration": 0.01590909090909065,
                "tempo": 120.0
            },
            {
                "start_time": 95.66590909090908,
                "end_time": 95.68181818181817,
                "pitch": 34,
                "velocity": 40,
                "duration": 0.01590909090909065,
                "tempo": 120.0
            },
            {
                "start_time": 95.68181818181817,
                "end_time": 95.69999999999999,
                "pitch": 30,
                "velocity": 40,
                "duration": 0.018181818181815856,
                "tempo": 120.0
            },
            {
                "start_time": 95.69999999999999,
                "end_time": 95.71590909090908,
                "pitch": 55,
                "velocity": 40,
                "duration": 0.01590909090909065,
                "tempo": 120.0
            },
            {
                "start_time": 95.71590909090908,
                "end_time": 95.76590909090909,
                "pitch": 54,
                "velocity": 40,
                "duration": 0.05000000000001137,
                "tempo": 120.0
            },
            {
                "start_time": 95.76590909090909,
                "end_time": 95.81590909090909,
                "pitch": 52,
                "velocity": 40,
                "duration": 0.04999999999999716,
                "tempo": 120.0
            },
            {
                "start_time": 95.81590909090909,
                "end_time": 95.85,
                "pitch": 49,
                "velocity": 40,
                "duration": 0.03409090909090651,
                "tempo": 120.0
            },
            {
                "start_time": 95.85,
                "end_time": 95.86590909090908,
                "pitch": 55,
                "velocity": 40,
                "duration": 0.01590909090909065,
                "tempo": 120.0
            },
            {
                "start_time": 95.86590909090908,
                "end_time": 95.91590909090908,
                "pitch": 54,
                "velocity": 40,
                "duration": 0.04999999999999716,
                "tempo": 120.0
            },
            {
                "start_time": 95.91590909090908,
                "end_time": 95.96590909090908,
                "pitch": 52,
                "velocity": 40,
                "duration": 0.04999999999999716,
                "tempo": 120.0
            },
            {
                "start_time": 95.96590909090908,
                "end_time": 96.0,
                "pitch": 49,
                "velocity": 40,
                "duration": 0.03409090909092072,
                "tempo": 120.0
            },
            {
                "start_time": 96.0,
                "end_time": 96.26818181818182,
                "pitch": 80,
                "velocity": 40,
                "duration": 0.26818181818181586,
                "tempo": 120.0
            },
            {
                "start_time": 96.3,
                "end_time": 96.56818181818181,
                "pitch": 80,
                "velocity": 40,
                "duration": 0.26818181818181586,
                "tempo": 120.0
            },
            {
                "start_time": 96.6,
                "end_time": 96.71818181818182,
                "pitch": 80,
                "velocity": 40,
                "duration": 0.11818181818182438,
                "tempo": 120.0
            },
            {
                "start_time": 96.75,
                "end_time": 97.01818181818182,
                "pitch": 84,
                "velocity": 40,
                "duration": 0.26818181818181586,
                "tempo": 120.0
            },
            {
                "start_time": 97.05,
                "end_time": 97.31818181818181,
                "pitch": 79,
                "velocity": 40,
                "duration": 0.26818181818181586,
                "tempo": 120.0
            },
            {
                "start_time": 97.35,
                "end_time": 97.61818181818181,
                "pitch": 79,
                "velocity": 40,
                "duration": 0.26818181818181586,
                "tempo": 120.0
            },
            {
                "start_time": 97.65227272727272,
                "end_time": 97.76818181818182,
                "pitch": 79,
                "velocity": 40,
                "duration": 0.11590909090909918,
                "tempo": 120.0
            },
            {
                "start_time": 97.80227272727272,
                "end_time": 98.06818181818181,
                "pitch": 86,
                "velocity": 40,
                "duration": 0.26590909090909065,
                "tempo": 120.0
            },
            {
                "start_time": 98.10227272727272,
                "end_time": 98.36818181818181,
                "pitch": 84,
                "velocity": 40,
                "duration": 0.26590909090909065,
                "tempo": 120.0
            },
            {
                "start_time": 98.40227272727272,
                "end_time": 98.66818181818181,
                "pitch": 77,
                "velocity": 40,
                "duration": 0.26590909090909065,
                "tempo": 120.0
            },
            {
                "start_time": 98.70454545454545,
                "end_time": 98.97954545454544,
                "pitch": 77,
                "velocity": 40,
                "duration": 0.2749999999999915,
                "tempo": 120.0
            },
            {
                "start_time": 99.01136363636363,
                "end_time": 99.27045454545454,
                "pitch": 80,
                "velocity": 40,
                "duration": 0.25909090909091503,
                "tempo": 120.0
            },
            {
                "start_time": 99.30454545454545,
                "end_time": 99.425,
                "pitch": 77,
                "velocity": 40,
                "duration": 0.12045454545454959,
                "tempo": 120.0
            },
            {
                "start_time": 99.46136363636363,
                "end_time": 99.725,
                "pitch": 75,
                "velocity": 40,
                "duration": 0.26363636363636545,
                "tempo": 120.0
            },
            {
                "start_time": 99.7590909090909,
                "end_time": 99.87272727272727,
                "pitch": 75,
                "velocity": 40,
                "duration": 0.11363636363637397,
                "tempo": 120.0
            },
            {
                "start_time": 99.90454545454546,
                "end_time": 100.17272727272727,
                "pitch": 75,
                "velocity": 40,
                "duration": 0.26818181818181586,
                "tempo": 120.0
            },
            {
                "start_time": 100.20454545454545,
                "end_time": 100.47272727272727,
                "pitch": 77,
                "velocity": 40,
                "duration": 0.26818181818181586,
                "tempo": 120.0
            },
            {
                "start_time": 100.50454545454545,
                "end_time": 100.77272727272727,
                "pitch": 79,
                "velocity": 40,
                "duration": 0.26818181818181586,
                "tempo": 120.0
            },
            {
                "start_time": 100.8090909090909,
                "end_time": 101.0840909090909,
                "pitch": 80,
                "velocity": 40,
                "duration": 0.2750000000000057,
                "tempo": 120.0
            },
            {
                "start_time": 101.11590909090908,
                "end_time": 101.375,
                "pitch": 80,
                "velocity": 40,
                "duration": 0.25909090909091503,
                "tempo": 120.0
            },
            {
                "start_time": 101.4090909090909,
                "end_time": 101.675,
                "pitch": 84,
                "velocity": 40,
                "duration": 0.26590909090909065,
                "tempo": 120.0
            },
            {
                "start_time": 101.7090909090909,
                "end_time": 101.82499999999999,
                "pitch": 80,
                "velocity": 40,
                "duration": 0.11590909090908497,
                "tempo": 120.0
            },
            {
                "start_time": 101.85909090909091,
                "end_time": 102.125,
                "pitch": 79,
                "velocity": 40,
                "duration": 0.26590909090909065,
                "tempo": 120.0
            },
            {
                "start_time": 102.1590909090909,
                "end_time": 102.27727272727272,
                "pitch": 79,
                "velocity": 40,
                "duration": 0.11818181818181017,
                "tempo": 120.0
            },
            {
                "start_time": 102.31136363636364,
                "end_time": 102.58863636363635,
                "pitch": 79,
                "velocity": 40,
                "duration": 0.2772727272727167,
                "tempo": 120.0
            },
            {
                "start_time": 102.62045454545454,
                "end_time": 102.88863636363637,
                "pitch": 82,
                "velocity": 40,
                "duration": 0.26818181818183007,
                "tempo": 120.0
            },
            {
                "start_time": 102.92045454545455,
                "end_time": 103.17954545454545,
                "pitch": 84,
                "velocity": 40,
                "duration": 0.2590909090909008,
                "tempo": 120.0
            },
            {
                "start_time": 103.21363636363635,
                "end_time": 104.07499999999999,
                "pitch": 82,
                "velocity": 40,
                "duration": 0.8613636363636346,
                "tempo": 120.0
            },
            {
                "start_time": 104.41818181818181,
                "end_time": 104.4340909090909,
                "pitch": 61,
                "velocity": 40,
                "duration": 0.01590909090909065,
                "tempo": 120.0
            },
            {
                "start_time": 104.4340909090909,
                "end_time": 104.45227272727273,
                "pitch": 57,
                "velocity": 40,
                "duration": 0.018181818181830067,
                "tempo": 120.0
            },
            {
                "start_time": 104.45227272727273,
                "end_time": 104.46818181818182,
                "pitch": 54,
                "velocity": 40,
                "duration": 0.01590909090909065,
                "tempo": 120.0
            },
            {
                "start_time": 104.46818181818182,
                "end_time": 104.48636363636363,
                "pitch": 51,
                "velocity": 40,
                "duration": 0.018181818181815856,
                "tempo": 120.0
            },
            {
                "start_time": 104.48636363636363,
                "end_time": 104.50454545454545,
                "pitch": 49,
                "velocity": 40,
                "duration": 0.018181818181815856,
                "tempo": 120.0
            },
            {
                "start_time": 104.50454545454545,
                "end_time": 104.52045454545454,
                "pitch": 45,
                "velocity": 40,
                "duration": 0.01590909090909065,
                "tempo": 120.0
            },
            {
                "start_time": 104.52045454545454,
                "end_time": 104.53863636363636,
                "pitch": 42,
                "velocity": 40,
                "duration": 0.018181818181815856,
                "tempo": 120.0
            },
            {
                "start_time": 104.53863636363636,
                "end_time": 104.55454545454545,
                "pitch": 39,
                "velocity": 40,
                "duration": 0.01590909090909065,
                "tempo": 120.0
            },
            {
                "start_time": 104.55454545454545,
                "end_time": 104.57272727272726,
                "pitch": 36,
                "velocity": 40,
                "duration": 0.018181818181815856,
                "tempo": 120.0
            },
            {
                "start_time": 104.57272727272726,
                "end_time": 104.59090909090908,
                "pitch": 58,
                "velocity": 40,
                "duration": 0.018181818181815856,
                "tempo": 120.0
            },
            {
                "start_time": 104.59090909090908,
                "end_time": 104.60681818181817,
                "pitch": 54,
                "velocity": 40,
                "duration": 0.01590909090909065,
                "tempo": 120.0
            },
            {
                "start_time": 104.60681818181817,
                "end_time": 104.625,
                "pitch": 51,
                "velocity": 40,
                "duration": 0.018181818181830067,
                "tempo": 120.0
            },
            {
                "start_time": 104.625,
                "end_time": 104.64090909090909,
                "pitch": 48,
                "velocity": 40,
                "duration": 0.01590909090909065,
                "tempo": 120.0
            },
            {
                "start_time": 104.64090909090909,
                "end_time": 104.6590909090909,
                "pitch": 44,
                "velocity": 40,
                "duration": 0.018181818181815856,
                "tempo": 120.0
            },
            {
                "start_time": 104.6590909090909,
                "end_time": 104.675,
                "pitch": 41,
                "velocity": 40,
                "duration": 0.01590909090909065,
                "tempo": 120.0
            },
            {
                "start_time": 104.675,
                "end_time": 104.69318181818181,
                "pitch": 38,
                "velocity": 40,
                "duration": 0.018181818181815856,
                "tempo": 120.0
            },
            {
                "start_time": 104.69318181818181,
                "end_time": 104.7090909090909,
                "pitch": 34,
                "velocity": 40,
                "duration": 0.01590909090909065,
                "tempo": 120.0
            },
            {
                "start_time": 104.7090909090909,
                "end_time": 104.725,
                "pitch": 30,
                "velocity": 40,
                "duration": 0.01590909090909065,
                "tempo": 120.0
            },
            {
                "start_time": 104.725,
                "end_time": 104.74090909090908,
                "pitch": 55,
                "velocity": 40,
                "duration": 0.01590909090909065,
                "tempo": 120.0
            },
            {
                "start_time": 104.74090909090908,
                "end_time": 104.78863636363636,
                "pitch": 54,
                "velocity": 40,
                "duration": 0.04772727272727195,
                "tempo": 120.0
            },
            {
                "start_time": 104.78863636363636,
                "end_time": 104.83863636363635,
                "pitch": 52,
                "velocity": 40,
                "duration": 0.04999999999999716,
                "tempo": 120.0
            },
            {
                "start_time": 104.83863636363635,
                "end_time": 104.87045454545454,
                "pitch": 49,
                "velocity": 40,
                "duration": 0.0318181818181813,
                "tempo": 120.0
            },
            {
                "start_time": 104.87045454545454,
                "end_time": 104.88636363636363,
                "pitch": 61,
                "velocity": 40,
                "duration": 0.01590909090909065,
                "tempo": 120.0
            },
            {
                "start_time": 104.88636363636363,
                "end_time": 104.90227272727272,
                "pitch": 57,
                "velocity": 40,
                "duration": 0.01590909090909065,
                "tempo": 120.0
            },
            {
                "start_time": 104.90227272727272,
                "end_time": 104.91818181818181,
                "pitch": 54,
                "velocity": 40,
                "duration": 0.01590909090909065,
                "tempo": 120.0
            },
            {
                "start_time": 104.91818181818181,
                "end_time": 104.9340909090909,
                "pitch": 51,
                "velocity": 40,
                "duration": 0.01590909090909065,
                "tempo": 120.0
            },
            {
                "start_time": 104.9340909090909,
                "end_time": 104.95227272727273,
                "pitch": 49,
                "velocity": 40,
                "duration": 0.018181818181830067,
                "tempo": 120.0
            },
            {
                "start_time": 104.95227272727273,
                "end_time": 104.96818181818182,
                "pitch": 45,
                "velocity": 40,
                "duration": 0.01590909090909065,
                "tempo": 120.0
            },
            {
                "start_time": 104.96818181818182,
                "end_time": 104.98409090909091,
                "pitch": 42,
                "velocity": 40,
                "duration": 0.01590909090909065,
                "tempo": 120.0
            },
            {
                "start_time": 104.98409090909091,
                "end_time": 105.00227272727273,
                "pitch": 39,
                "velocity": 40,
                "duration": 0.018181818181815856,
                "tempo": 120.0
            },
            {
                "start_time": 105.00227272727273,
                "end_time": 105.01818181818182,
                "pitch": 36,
                "velocity": 40,
                "duration": 0.01590909090909065,
                "tempo": 120.0
            },
            {
                "start_time": 105.01818181818182,
                "end_time": 105.03636363636363,
                "pitch": 58,
                "velocity": 40,
                "duration": 0.018181818181815856,
                "tempo": 120.0
            },
            {
                "start_time": 105.03636363636363,
                "end_time": 105.05227272727272,
                "pitch": 54,
                "velocity": 40,
                "duration": 0.01590909090909065,
                "tempo": 120.0
            },
            {
                "start_time": 105.05227272727272,
                "end_time": 105.07045454545454,
                "pitch": 51,
                "velocity": 40,
                "duration": 0.018181818181815856,
                "tempo": 120.0
            },
            {
                "start_time": 105.07045454545454,
                "end_time": 105.08863636363635,
                "pitch": 48,
                "velocity": 40,
                "duration": 0.018181818181815856,
                "tempo": 120.0
            },
            {
                "start_time": 105.08863636363635,
                "end_time": 105.10454545454544,
                "pitch": 44,
                "velocity": 40,
                "duration": 0.01590909090909065,
                "tempo": 120.0
            },
            {
                "start_time": 105.10454545454544,
                "end_time": 105.12272727272726,
                "pitch": 41,
                "velocity": 40,
                "duration": 0.018181818181815856,
                "tempo": 120.0
            },
            {
                "start_time": 105.12272727272726,
                "end_time": 105.13863636363637,
                "pitch": 38,
                "velocity": 40,
                "duration": 0.01590909090910486,
                "tempo": 120.0
            },
            {
                "start_time": 105.13863636363637,
                "end_time": 105.15681818181818,
                "pitch": 34,
                "velocity": 40,
                "duration": 0.018181818181815856,
                "tempo": 120.0
            },
            {
                "start_time": 105.15681818181818,
                "end_time": 105.175,
                "pitch": 30,
                "velocity": 40,
                "duration": 0.018181818181815856,
                "tempo": 120.0
            },
            {
                "start_time": 105.175,
                "end_time": 105.19090909090909,
                "pitch": 55,
                "velocity": 40,
                "duration": 0.01590909090909065,
                "tempo": 120.0
            },
            {
                "start_time": 105.19090909090909,
                "end_time": 105.24318181818181,
                "pitch": 54,
                "velocity": 40,
                "duration": 0.052272727272722364,
                "tempo": 120.0
            },
            {
                "start_time": 105.24318181818181,
                "end_time": 105.29545454545455,
                "pitch": 52,
                "velocity": 40,
                "duration": 0.052272727272736574,
                "tempo": 120.0
            },
            {
                "start_time": 105.29545454545455,
                "end_time": 105.32727272727273,
                "pitch": 49,
                "velocity": 40,
                "duration": 0.0318181818181813,
                "tempo": 120.0
            },
            {
                "start_time": 105.32727272727273,
                "end_time": 105.34545454545454,
                "pitch": 61,
                "velocity": 40,
                "duration": 0.018181818181815856,
                "tempo": 120.0
            },
            {
                "start_time": 105.34545454545454,
                "end_time": 105.36136363636363,
                "pitch": 57,
                "velocity": 40,
                "duration": 0.01590909090909065,
                "tempo": 120.0
            },
            {
                "start_time": 105.36136363636363,
                "end_time": 105.37727272727273,
                "pitch": 54,
                "velocity": 40,
                "duration": 0.01590909090909065,
                "tempo": 120.0
            },
            {
                "start_time": 105.37727272727273,
                "end_time": 105.39545454545454,
                "pitch": 51,
                "velocity": 40,
                "duration": 0.018181818181815856,
                "tempo": 120.0
            },
            {
                "start_time": 105.39545454545454,
                "end_time": 105.41136363636363,
                "pitch": 49,
                "velocity": 40,
                "duration": 0.01590909090909065,
                "tempo": 120.0
            },
            {
                "start_time": 105.41136363636363,
                "end_time": 105.42727272727272,
                "pitch": 45,
                "velocity": 40,
                "duration": 0.01590909090909065,
                "tempo": 120.0
            },
            {
                "start_time": 105.42727272727272,
                "end_time": 105.44545454545454,
                "pitch": 42,
                "velocity": 40,
                "duration": 0.018181818181815856,
                "tempo": 120.0
            },
            {
                "start_time": 105.44545454545454,
                "end_time": 105.46136363636363,
                "pitch": 39,
                "velocity": 40,
                "duration": 0.01590909090909065,
                "tempo": 120.0
            },
            {
                "start_time": 105.46136363636363,
                "end_time": 105.47727272727272,
                "pitch": 36,
                "velocity": 40,
                "duration": 0.01590909090909065,
                "tempo": 120.0
            },
            {
                "start_time": 105.47727272727272,
                "end_time": 105.49545454545454,
                "pitch": 58,
                "velocity": 40,
                "duration": 0.018181818181815856,
                "tempo": 120.0
            },
            {
                "start_time": 105.49545454545454,
                "end_time": 105.51136363636363,
                "pitch": 54,
                "velocity": 40,
                "duration": 0.01590909090909065,
                "tempo": 120.0
            },
            {
                "start_time": 105.51136363636363,
                "end_time": 105.52727272727272,
                "pitch": 51,
                "velocity": 40,
                "duration": 0.01590909090909065,
                "tempo": 120.0
            },
            {
                "start_time": 105.52727272727272,
                "end_time": 105.54545454545455,
                "pitch": 48,
                "velocity": 40,
                "duration": 0.018181818181830067,
                "tempo": 120.0
            },
            {
                "start_time": 105.54545454545455,
                "end_time": 105.56136363636364,
                "pitch": 44,
                "velocity": 40,
                "duration": 0.01590909090909065,
                "tempo": 120.0
            },
            {
                "start_time": 105.56136363636364,
                "end_time": 105.57727272727273,
                "pitch": 41,
                "velocity": 40,
                "duration": 0.01590909090909065,
                "tempo": 120.0
            },
            {
                "start_time": 105.57727272727273,
                "end_time": 105.59318181818182,
                "pitch": 38,
                "velocity": 40,
                "duration": 0.01590909090909065,
                "tempo": 120.0
            }
        ]
    }
}