{
    "track_id": "07 Clear #1",
    "mood": "happy",
    "instruments": {
        "Trumpet": [
            {
                "start_time": 0.09772727272727272,
                "end_time": 0.175,
                "pitch": 76,
                "velocity": 80,
                "duration": 0.07727272727272727,
                "tempo": 120.0
            },
            {
                "start_time": 0.2909090909090909,
                "end_time": 0.3659090909090909,
                "pitch": 76,
                "velocity": 80,
                "duration": 0.07500000000000001,
                "tempo": 120.0
            },
            {
                "start_time": 0.3840909090909091,
                "end_time": 0.7795454545454545,
                "pitch": 74,
                "velocity": 80,
                "duration": 0.39545454545454545,
                "tempo": 120.0
            },
            {
                "start_time": 0.8159090909090909,
                "end_time": 1.4840909090909091,
                "pitch": 71,
                "velocity": 80,
                "duration": 0.6681818181818182,
                "tempo": 120.0
            },
            {
                "start_time": 1.5204545454545453,
                "end_time": 1.7863636363636364,
                "pitch": 69,
                "velocity": 80,
                "duration": 0.2659090909090911,
                "tempo": 120.0
            },
            {
                "start_time": 1.8227272727272725,
                "end_time": 2.0886363636363634,
                "pitch": 69,
                "velocity": 80,
                "duration": 0.2659090909090909,
                "tempo": 120.0
            },
            {
                "start_time": 2.125,
                "end_time": 2.493181818181818,
                "pitch": 69,
                "velocity": 80,
                "duration": 0.36818181818181817,
                "tempo": 120.0
            },
            {
                "start_time": 2.5272727272727273,
                "end_time": 5.6454545454545455,
                "pitch": 67,
                "velocity": 80,
                "duration": 3.118181818181818,
                "tempo": 120.0
            }
        ],
        "Acoustic Bass": [
            {
                "start_time": 0.004545454545454545,
                "end_time": 0.07954545454545454,
                "pitch": 43,
                "velocity": 127,
                "duration": 0.075,
                "tempo": 120.0
            },
            {
                "start_time": 0.19318181818181818,
                "end_time": 0.27045454545454545,
                "pitch": 43,
                "velocity": 127,
                "duration": 0.07727272727272727,
                "tempo": 120.0
            },
            {
                "start_time": 0.28863636363636364,
                "end_time": 0.6045454545454545,
                "pitch": 38,
                "velocity": 127,
                "duration": 0.31590909090909086,
                "tempo": 120.0
            },
            {
                "start_time": 0.6227272727272727,
                "end_time": 1.2818181818181817,
                "pitch": 38,
                "velocity": 127,
                "duration": 0.6590909090909091,
                "tempo": 120.0
            },
            {
                "start_time": 1.3181818181818181,
                "end_time": 1.584090909090909,
                "pitch": 36,
                "velocity": 127,
                "duration": 0.2659090909090909,
                "tempo": 120.0
            },
            {
                "start_time": 1.6204545454545454,
                "end_time": 1.8863636363636362,
                "pitch": 36,
                "velocity": 127,
                "duration": 0.2659090909090909,
                "tempo": 120.0
            },
            {
                "start_time": 1.9227272727272726,
                "end_time": 2.290909090909091,
                "pitch": 36,
                "velocity": 127,
                "duration": 0.3681818181818184,
                "tempo": 120.0
            },
            {
                "start_time": 2.327272727272727,
                "end_time": 5.45,
                "pitch": 36,
                "velocity": 127,
                "duration": 3.122727272727273,
                "tempo": 120.0
            }
        ],
        "French Horn": [
            {
                "start_time": 0.09772727272727272,
                "end_time": 0.175,
                "pitch": 72,
                "velocity": 40,
                "duration": 0.07727272727272727,
                "tempo": 120.0
            },
            {
                "start_time": 0.2909090909090909,
                "end_time": 0.3659090909090909,
                "pitch": 72,
                "velocity": 40,
                "duration": 0.07500000000000001,
                "tempo": 120.0
            },
            {
                "start_time": 0.3840909090909091,
                "end_time": 0.7795454545454545,
                "pitch": 71,
                "velocity": 40,
                "duration": 0.39545454545454545,
                "tempo": 120.0
            },
            {
                "start_time": 0.8181818181818181,
                "end_time": 1.4863636363636363,
                "pitch": 67,
                "velocity": 40,
                "duration": 0.6681818181818182,
                "tempo": 120.0
            },
            {
                "start_time": 1.5204545454545453,
                "end_time": 1.7886363636363636,
                "pitch": 65,
                "velocity": 40,
                "duration": 0.2681818181818183,
                "tempo": 120.0
            },
            {
                "start_time": 1.8227272727272725,
                "end_time": 2.090909090909091,
                "pitch": 65,
                "velocity": 40,
                "duration": 0.2681818181818183,
                "tempo": 120.0
            },
            {
                "start_time": 2.127272727272727,
                "end_time": 2.493181818181818,
                "pitch": 65,
                "velocity": 40,
                "duration": 0.3659090909090912,
                "tempo": 120.0
            },
            {
                "start_time": 2.5295454545454543,
                "end_time": 5.6454545454545455,
                "pitch": 64,
                "velocity": 40,
                "duration": 3.115909090909091,
                "tempo": 120.0
            }
        ]
    }
}