{
    "track_id": "07 Mission 2",
    "mood": "happy",
    "instruments": {
        "Electric Piano 1": [
            {
                "start_time": 44.95227272727273,
                "end_time": 44.965909090909086,
                "pitch": 32,
                "velocity": 127,
                "duration": 0.01363636363635834,
                "tempo": 120.0
            },
            {
                "start_time": 44.965909090909086,
                "end_time": 44.98409090909091,
                "pitch": 30,
                "velocity": 127,
                "duration": 0.018181818181822962,
                "tempo": 120.0
            },
            {
                "start_time": 45.018181818181816,
                "end_time": 45.03636363636363,
                "pitch": 32,
                "velocity": 127,
                "duration": 0.018181818181815856,
                "tempo": 120.0
            },
            {
                "start_time": 44.965909090909086,
                "end_time": 45.03636363636363,
                "pitch": 42,
                "velocity": 127,
                "duration": 0.07045454545454533,
                "tempo": 120.0
            },
            {
                "start_time": 45.03636363636363,
                "end_time": 45.05227272727272,
                "pitch": 30,
                "velocity": 127,
                "duration": 0.01590909090909065,
                "tempo": 120.0
            },
            {
                "start_time": 45.08863636363636,
                "end_time": 45.10454545454545,
                "pitch": 32,
                "velocity": 127,
                "duration": 0.01590909090909065,
                "tempo": 120.0
            },
            {
                "start_time": 45.03636363636363,
                "end_time": 45.10454545454545,
                "pitch": 42,
                "velocity": 127,
                "duration": 0.06818181818182012,
                "tempo": 120.0
            },
            {
                "start_time": 45.10454545454545,
                "end_time": 45.13863636363636,
                "pitch": 30,
                "velocity": 127,
                "duration": 0.03409090909090651,
                "tempo": 120.0
            },
            {
                "start_time": 45.13863636363636,
                "end_time": 45.17272727272727,
                "pitch": 27,
                "velocity": 127,
                "duration": 0.03409090909091361,
                "tempo": 120.0
            },
            {
                "start_time": 45.17272727272727,
                "end_time": 45.19090909090909,
                "pitch": 24,
                "velocity": 127,
                "duration": 0.018181818181815856,
                "tempo": 120.0
            },
            {
                "start_time": 45.209090909090904,
                "end_time": 45.224999999999994,
                "pitch": 32,
                "velocity": 127,
                "duration": 0.01590909090909065,
                "tempo": 120.0
            },
            {
                "start_time": 45.10454545454545,
                "end_time": 45.224999999999994,
                "pitch": 42,
                "velocity": 127,
                "duration": 0.12045454545454248,
                "tempo": 120.0
            },
            {
                "start_time": 45.224999999999994,
                "end_time": 45.25909090909091,
                "pitch": 30,
                "velocity": 127,
                "duration": 0.03409090909091361,
                "tempo": 120.0
            },
            {
                "start_time": 45.25909090909091,
                "end_time": 45.293181818181814,
                "pitch": 27,
                "velocity": 127,
                "duration": 0.03409090909090651,
                "tempo": 120.0
            },
            {
                "start_time": 45.293181818181814,
                "end_time": 45.31136363636364,
                "pitch": 24,
                "velocity": 127,
                "duration": 0.018181818181822962,
                "tempo": 120.0
            },
            {
                "start_time": 45.34772727272727,
                "end_time": 45.36363636363636,
                "pitch": 28,
                "velocity": 127,
                "duration": 0.01590909090909065,
                "tempo": 120.0
            },
            {
                "start_time": 45.36363636363636,
                "end_time": 45.37954545454545,
                "pitch": 26,
                "velocity": 127,
                "duration": 0.01590909090909065,
                "tempo": 120.0
            },
            {
                "start_time": 45.41136363636363,
                "end_time": 45.42727272727272,
                "pitch": 28,
                "velocity": 127,
                "duration": 0.01590909090909065,
                "tempo": 120.0
            },
            {
                "start_time": 45.42727272727272,
                "end_time": 45.445454545454545,
                "pitch": 26,
                "velocity": 127,
                "duration": 0.018181818181822962,
                "tempo": 120.0
            },
            {
                "start_time": 45.47727272727273,
                "end_time": 45.49318181818182,
                "pitch": 28,
                "velocity": 127,
                "duration": 0.01590909090909065,
                "tempo": 120.0
            },
            {
                "start_time": 45.49318181818182,
                "end_time": 45.525,
                "pitch": 26,
                "velocity": 127,
                "duration": 0.0318181818181813,
                "tempo": 120.0
            },
            {
                "start_time": 45.525,
                "end_time": 45.559090909090905,
                "pitch": 23,
                "velocity": 127,
                "duration": 0.03409090909090651,
                "tempo": 120.0
            },
            {
                "start_time": 45.559090909090905,
                "end_time": 45.574999999999996,
                "pitch": 20,
                "velocity": 127,
                "duration": 0.01590909090909065,
                "tempo": 120.0
            },
            {
                "start_time": 45.60909090909091,
                "end_time": 45.625,
                "pitch": 28,
                "velocity": 127,
                "duration": 0.01590909090909065,
                "tempo": 120.0
            },
            {
                "start_time": 45.625,
                "end_time": 45.65681818181818,
                "pitch": 26,
                "velocity": 127,
                "duration": 0.0318181818181813,
                "tempo": 120.0
            },
            {
                "start_time": 45.65681818181818,
                "end_time": 45.68863636363636,
                "pitch": 23,
                "velocity": 127,
                "duration": 0.0318181818181813,
                "tempo": 120.0
            },
            {
                "start_time": 45.68863636363636,
                "end_time": 45.70681818181818,
                "pitch": 20,
                "velocity": 127,
                "duration": 0.018181818181815856,
                "tempo": 120.0
            }
        ],
        "Violin": [
            {
                "start_time": 7.9022727272727264,
                "end_time": 9.44090909090909,
                "pitch": 64,
                "velocity": 101,
                "duration": 1.5386363636363631,
                "tempo": 120.0
            },
            {
                "start_time": 9.477272727272727,
                "end_time": 10.229545454545454,
                "pitch": 59,
                "velocity": 101,
                "duration": 0.752272727272727,
                "tempo": 120.0
            },
            {
                "start_time": 10.263636363636364,
                "end_time": 11.018181818181818,
                "pitch": 66,
                "velocity": 101,
                "duration": 0.754545454545454,
                "tempo": 120.0
            },
            {
                "start_time": 11.054545454545455,
                "end_time": 12.586363636363636,
                "pitch": 67,
                "velocity": 101,
                "duration": 1.5318181818181813,
                "tempo": 120.0
            },
            {
                "start_time": 12.618181818181817,
                "end_time": 13.381818181818181,
                "pitch": 66,
                "velocity": 101,
                "duration": 0.7636363636363637,
                "tempo": 120.0
            },
            {
                "start_time": 13.415909090909091,
                "end_time": 14.170454545454545,
                "pitch": 62,
                "velocity": 101,
                "duration": 0.754545454545454,
                "tempo": 120.0
            },
            {
                "start_time": 14.204545454545453,
                "end_time": 15.759090909090908,
                "pitch": 60,
                "velocity": 101,
                "duration": 1.5545454545454547,
                "tempo": 120.0
            },
            {
                "start_time": 15.793181818181818,
                "end_time": 16.538636363636364,
                "pitch": 57,
                "velocity": 101,
                "duration": 0.745454545454546,
                "tempo": 120.0
            },
            {
                "start_time": 16.57272727272727,
                "end_time": 17.325,
                "pitch": 62,
                "velocity": 101,
                "duration": 0.7522727272727288,
                "tempo": 120.0
            },
            {
                "start_time": 17.361363636363635,
                "end_time": 20.493181818181817,
                "pitch": 59,
                "velocity": 101,
                "duration": 3.1318181818181827,
                "tempo": 120.0
            },
            {
                "start_time": 20.529545454545453,
                "end_time": 22.05909090909091,
                "pitch": 64,
                "velocity": 101,
                "duration": 1.529545454545456,
                "tempo": 120.0
            },
            {
                "start_time": 22.09318181818182,
                "end_time": 22.845454545454544,
                "pitch": 59,
                "velocity": 101,
                "duration": 0.7522727272727252,
                "tempo": 120.0
            },
            {
                "start_time": 22.877272727272725,
                "end_time": 23.643181818181816,
                "pitch": 66,
                "velocity": 101,
                "duration": 0.7659090909090907,
                "tempo": 120.0
            },
            {
                "start_time": 23.679545454545455,
                "end_time": 25.211363636363636,
                "pitch": 67,
                "velocity": 101,
                "duration": 1.5318181818181813,
                "tempo": 120.0
            },
            {
                "start_time": 25.245454545454542,
                "end_time": 25.99772727272727,
                "pitch": 66,
                "velocity": 101,
                "duration": 0.7522727272727288,
                "tempo": 120.0
            },
            {
                "start_time": 26.03181818181818,
                "end_time": 26.786363636363635,
                "pitch": 62,
                "velocity": 101,
                "duration": 0.754545454545454,
                "tempo": 120.0
            },
            {
                "start_time": 26.82272727272727,
                "end_time": 28.363636363636363,
                "pitch": 60,
                "velocity": 101,
                "duration": 1.5409090909090928,
                "tempo": 120.0
            },
            {
                "start_time": 28.395454545454545,
                "end_time": 29.15,
                "pitch": 57,
                "velocity": 101,
                "duration": 0.754545454545454,
                "tempo": 120.0
            },
            {
                "start_time": 29.18409090909091,
                "end_time": 29.94772727272727,
                "pitch": 62,
                "velocity": 101,
                "duration": 0.7636363636363619,
                "tempo": 120.0
            },
            {
                "start_time": 29.98181818181818,
                "end_time": 32.30227272727272,
                "pitch": 64,
                "velocity": 101,
                "duration": 2.3204545454545418,
                "tempo": 120.0
            }
        ],
        "Acoustic Bass": [
            {
                "start_time": 0.7886363636363636,
                "end_time": 1.0272727272727271,
                "pitch": 45,
                "velocity": 80,
                "duration": 0.23863636363636354,
                "tempo": 120.0
            },
            {
                "start_time": 1.0613636363636363,
                "end_time": 1.565909090909091,
                "pitch": 45,
                "velocity": 80,
                "duration": 0.5045454545454546,
                "tempo": 120.0
            },
            {
                "start_time": 1.6022727272727273,
                "end_time": 1.6954545454545453,
                "pitch": 40,
                "velocity": 80,
                "duration": 0.09318181818181803,
                "tempo": 120.0
            },
            {
                "start_time": 1.7272727272727273,
                "end_time": 1.8227272727272725,
                "pitch": 40,
                "velocity": 80,
                "duration": 0.09545454545454524,
                "tempo": 120.0
            },
            {
                "start_time": 1.8545454545454545,
                "end_time": 1.95,
                "pitch": 42,
                "velocity": 80,
                "duration": 0.09545454545454546,
                "tempo": 120.0
            },
            {
                "start_time": 1.9818181818181817,
                "end_time": 2.084090909090909,
                "pitch": 40,
                "velocity": 80,
                "duration": 0.10227272727272729,
                "tempo": 120.0
            },
            {
                "start_time": 2.118181818181818,
                "end_time": 2.2045454545454546,
                "pitch": 43,
                "velocity": 80,
                "duration": 0.08636363636363642,
                "tempo": 120.0
            },
            {
                "start_time": 2.2386363636363633,
                "end_time": 2.340909090909091,
                "pitch": 40,
                "velocity": 80,
                "duration": 0.10227272727272751,
                "tempo": 120.0
            },
            {
                "start_time": 2.375,
                "end_time": 2.609090909090909,
                "pitch": 45,
                "velocity": 80,
                "duration": 0.2340909090909089,
                "tempo": 120.0
            },
            {
                "start_time": 2.643181818181818,
                "end_time": 3.0,
                "pitch": 38,
                "velocity": 80,
                "duration": 0.3568181818181819,
                "tempo": 120.0
            },
            {
                "start_time": 3.0340909090909087,
                "end_time": 3.1363636363636362,
                "pitch": 42,
                "velocity": 80,
                "duration": 0.10227272727272751,
                "tempo": 120.0
            },
            {
                "start_time": 3.1727272727272724,
                "end_time": 3.2704545454545455,
                "pitch": 40,
                "velocity": 80,
                "duration": 0.0977272727272731,
                "tempo": 120.0
            },
            {
                "start_time": 3.3022727272727272,
                "end_time": 3.4,
                "pitch": 40,
                "velocity": 80,
                "duration": 0.09772727272727266,
                "tempo": 120.0
            },
            {
                "start_time": 3.434090909090909,
                "end_time": 3.5318181818181817,
                "pitch": 42,
                "velocity": 80,
                "duration": 0.09772727272727266,
                "tempo": 120.0
            },
            {
                "start_time": 3.5636363636363635,
                "end_time": 3.65,
                "pitch": 40,
                "velocity": 80,
                "duration": 0.08636363636363642,
                "tempo": 120.0
            },
            {
                "start_time": 3.684090909090909,
                "end_time": 3.786363636363636,
                "pitch": 43,
                "velocity": 80,
                "duration": 0.10227272727272707,
                "tempo": 120.0
            },
            {
                "start_time": 3.8227272727272728,
                "end_time": 3.9227272727272724,
                "pitch": 40,
                "velocity": 80,
                "duration": 0.09999999999999964,
                "tempo": 120.0
            },
            {
                "start_time": 3.9568181818181816,
                "end_time": 4.1863636363636365,
                "pitch": 38,
                "velocity": 80,
                "duration": 0.22954545454545494,
                "tempo": 120.0
            },
            {
                "start_time": 4.220454545454546,
                "end_time": 4.568181818181818,
                "pitch": 42,
                "velocity": 80,
                "duration": 0.34772727272727266,
                "tempo": 120.0
            },
            {
                "start_time": 4.602272727272727,
                "end_time": 4.702272727272727,
                "pitch": 38,
                "velocity": 80,
                "duration": 0.10000000000000053,
                "tempo": 120.0
            },
            {
                "start_time": 4.738636363636363,
                "end_time": 4.838636363636363,
                "pitch": 40,
                "velocity": 80,
                "duration": 0.09999999999999964,
                "tempo": 120.0
            },
            {
                "start_time": 4.875,
                "end_time": 4.977272727272727,
                "pitch": 40,
                "velocity": 80,
                "duration": 0.10227272727272663,
                "tempo": 120.0
            },
            {
                "start_time": 5.013636363636364,
                "end_time": 5.097727272727273,
                "pitch": 42,
                "velocity": 80,
                "duration": 0.084090909090909,
                "tempo": 120.0
            },
            {
                "start_time": 5.131818181818182,
                "end_time": 5.2295454545454545,
                "pitch": 40,
                "velocity": 80,
                "duration": 0.09772727272727266,
                "tempo": 120.0
            },
            {
                "start_time": 5.263636363636364,
                "end_time": 5.361363636363636,
                "pitch": 43,
                "velocity": 80,
                "duration": 0.09772727272727266,
                "tempo": 120.0
            },
            {
                "start_time": 5.393181818181818,
                "end_time": 5.493181818181818,
                "pitch": 40,
                "velocity": 80,
                "duration": 0.10000000000000053,
                "tempo": 120.0
            },
            {
                "start_time": 5.5249999999999995,
                "end_time": 5.765909090909091,
                "pitch": 45,
                "velocity": 80,
                "duration": 0.24090909090909118,
                "tempo": 120.0
            },
            {
                "start_time": 5.784090909090909,
                "end_time": 6.156818181818181,
                "pitch": 38,
                "velocity": 80,
                "duration": 0.37272727272727213,
                "tempo": 120.0
            },
            {
                "start_time": 6.1909090909090905,
                "end_time": 6.290909090909091,
                "pitch": 42,
                "velocity": 80,
                "duration": 0.10000000000000053,
                "tempo": 120.0
            },
            {
                "start_time": 6.324999999999999,
                "end_time": 6.427272727272727,
                "pitch": 40,
                "velocity": 80,
                "duration": 0.10227272727272751,
                "tempo": 120.0
            },
            {
                "start_time": 6.461363636363636,
                "end_time": 6.547727272727273,
                "pitch": 40,
                "velocity": 80,
                "duration": 0.08636363636363686,
                "tempo": 120.0
            },
            {
                "start_time": 6.584090909090909,
                "end_time": 6.686363636363636,
                "pitch": 42,
                "velocity": 80,
                "duration": 0.10227272727272663,
                "tempo": 120.0
            },
            {
                "start_time": 6.720454545454545,
                "end_time": 6.8181818181818175,
                "pitch": 40,
                "velocity": 80,
                "duration": 0.09772727272727266,
                "tempo": 120.0
            },
            {
                "start_time": 6.852272727272727,
                "end_time": 6.949999999999999,
                "pitch": 43,
                "velocity": 80,
                "duration": 0.09772727272727266,
                "tempo": 120.0
            },
            {
                "start_time": 6.9840909090909085,
                "end_time": 7.079545454545454,
                "pitch": 40,
                "velocity": 80,
                "duration": 0.09545454545454568,
                "tempo": 120.0
            },
            {
                "start_time": 7.113636363636363,
                "end_time": 7.334090909090909,
                "pitch": 38,
                "velocity": 80,
                "duration": 0.22045454545454568,
                "tempo": 120.0
            },
            {
                "start_time": 7.370454545454545,
                "end_time": 7.7340909090909085,
                "pitch": 42,
                "velocity": 80,
                "duration": 0.3636363636363633,
                "tempo": 120.0
            },
            {
                "start_time": 7.768181818181818,
                "end_time": 7.86590909090909,
                "pitch": 38,
                "velocity": 80,
                "duration": 0.09772727272727266,
                "tempo": 120.0
            },
            {
                "start_time": 7.8999999999999995,
                "end_time": 7.986363636363636,
                "pitch": 40,
                "velocity": 80,
                "duration": 0.08636363636363686,
                "tempo": 120.0
            },
            {
                "start_time": 8.020454545454545,
                "end_time": 8.127272727272727,
                "pitch": 40,
                "velocity": 80,
                "duration": 0.10681818181818237,
                "tempo": 120.0
            },
            {
                "start_time": 8.161363636363635,
                "end_time": 8.268181818181818,
                "pitch": 42,
                "velocity": 80,
                "duration": 0.10681818181818237,
                "tempo": 120.0
            },
            {
                "start_time": 8.302272727272728,
                "end_time": 8.4,
                "pitch": 40,
                "velocity": 80,
                "duration": 0.09772727272727266,
                "tempo": 120.0
            },
            {
                "start_time": 8.434090909090909,
                "end_time": 8.531818181818181,
                "pitch": 43,
                "velocity": 80,
                "duration": 0.09772727272727266,
                "tempo": 120.0
            },
            {
                "start_time": 8.563636363636363,
                "end_time": 8.645454545454545,
                "pitch": 40,
                "velocity": 80,
                "duration": 0.08181818181818201,
                "tempo": 120.0
            },
            {
                "start_time": 8.679545454545455,
                "end_time": 8.906818181818181,
                "pitch": 45,
                "velocity": 80,
                "duration": 0.22727272727272663,
                "tempo": 120.0
            },
            {
                "start_time": 8.940909090909091,
                "end_time": 9.31590909090909,
                "pitch": 38,
                "velocity": 80,
                "duration": 0.3749999999999982,
                "tempo": 120.0
            },
            {
                "start_time": 9.352272727272727,
                "end_time": 9.44090909090909,
                "pitch": 42,
                "velocity": 80,
                "duration": 0.08863636363636296,
                "tempo": 120.0
            },
            {
                "start_time": 9.475,
                "end_time": 9.572727272727272,
                "pitch": 40,
                "velocity": 80,
                "duration": 0.09772727272727266,
                "tempo": 120.0
            },
            {
                "start_time": 9.60681818181818,
                "end_time": 9.704545454545453,
                "pitch": 40,
                "velocity": 80,
                "duration": 0.09772727272727266,
                "tempo": 120.0
            },
            {
                "start_time": 9.738636363636363,
                "end_time": 9.834090909090909,
                "pitch": 42,
                "velocity": 80,
                "duration": 0.09545454545454568,
                "tempo": 120.0
            },
            {
                "start_time": 9.868181818181817,
                "end_time": 9.970454545454546,
                "pitch": 40,
                "velocity": 80,
                "duration": 0.1022727272727284,
                "tempo": 120.0
            },
            {
                "start_time": 10.004545454545454,
                "end_time": 10.09090909090909,
                "pitch": 43,
                "velocity": 80,
                "duration": 0.08636363636363598,
                "tempo": 120.0
            },
            {
                "start_time": 10.127272727272727,
                "end_time": 10.229545454545454,
                "pitch": 40,
                "velocity": 80,
                "duration": 0.10227272727272663,
                "tempo": 120.0
            },
            {
                "start_time": 10.263636363636364,
                "end_time": 10.493181818181817,
                "pitch": 38,
                "velocity": 80,
                "duration": 0.2295454545454536,
                "tempo": 120.0
            },
            {
                "start_time": 10.525,
                "end_time": 10.879545454545454,
                "pitch": 42,
                "velocity": 80,
                "duration": 0.3545454545454536,
                "tempo": 120.0
            },
            {
                "start_time": 10.915909090909091,
                "end_time": 11.018181818181818,
                "pitch": 38,
                "velocity": 80,
                "duration": 0.10227272727272663,
                "tempo": 120.0
            },
            {
                "start_time": 11.054545454545455,
                "end_time": 11.154545454545454,
                "pitch": 40,
                "velocity": 80,
                "duration": 0.09999999999999964,
                "tempo": 120.0
            },
            {
                "start_time": 11.186363636363636,
                "end_time": 11.288636363636362,
                "pitch": 40,
                "velocity": 80,
                "duration": 0.10227272727272663,
                "tempo": 120.0
            },
            {
                "start_time": 11.322727272727272,
                "end_time": 11.422727272727272,
                "pitch": 42,
                "velocity": 80,
                "duration": 0.09999999999999964,
                "tempo": 120.0
            },
            {
                "start_time": 11.456818181818182,
                "end_time": 11.540909090909091,
                "pitch": 40,
                "velocity": 80,
                "duration": 0.084090909090909,
                "tempo": 120.0
            },
            {
                "start_time": 11.575,
                "end_time": 11.677272727272726,
                "pitch": 43,
                "velocity": 80,
                "duration": 0.10227272727272663,
                "tempo": 120.0
            },
            {
                "start_time": 11.711363636363636,
                "end_time": 11.81590909090909,
                "pitch": 40,
                "velocity": 80,
                "duration": 0.10454545454545361,
                "tempo": 120.0
            },
            {
                "start_time": 11.85,
                "end_time": 12.077272727272726,
                "pitch": 45,
                "velocity": 80,
                "duration": 0.22727272727272663,
                "tempo": 120.0
            },
            {
                "start_time": 12.111363636363636,
                "end_time": 12.454545454545453,
                "pitch": 38,
                "velocity": 80,
                "duration": 0.3431818181818169,
                "tempo": 120.0
            },
            {
                "start_time": 12.486363636363636,
                "end_time": 12.586363636363636,
                "pitch": 42,
                "velocity": 80,
                "duration": 0.09999999999999964,
                "tempo": 120.0
            },
            {
                "start_time": 12.618181818181817,
                "end_time": 12.722727272727273,
                "pitch": 40,
                "velocity": 80,
                "duration": 0.10454545454545539,
                "tempo": 120.0
            },
            {
                "start_time": 12.756818181818181,
                "end_time": 12.863636363636363,
                "pitch": 40,
                "velocity": 80,
                "duration": 0.10681818181818237,
                "tempo": 120.0
            },
            {
                "start_time": 12.899999999999999,
                "end_time": 12.986363636363636,
                "pitch": 42,
                "velocity": 80,
                "duration": 0.08636363636363775,
                "tempo": 120.0
            },
            {
                "start_time": 13.022727272727272,
                "end_time": 13.120454545454544,
                "pitch": 40,
                "velocity": 80,
                "duration": 0.09772727272727266,
                "tempo": 120.0
            },
            {
                "start_time": 13.152272727272727,
                "end_time": 13.252272727272727,
                "pitch": 43,
                "velocity": 80,
                "duration": 0.09999999999999964,
                "tempo": 120.0
            },
            {
                "start_time": 13.284090909090908,
                "end_time": 13.381818181818181,
                "pitch": 40,
                "velocity": 80,
                "duration": 0.09772727272727266,
                "tempo": 120.0
            },
            {
                "start_time": 13.413636363636362,
                "end_time": 13.654545454545454,
                "pitch": 38,
                "velocity": 80,
                "duration": 0.24090909090909207,
                "tempo": 120.0
            },
            {
                "start_time": 13.672727272727272,
                "end_time": 14.038636363636362,
                "pitch": 42,
                "velocity": 80,
                "duration": 0.3659090909090903,
                "tempo": 120.0
            },
            {
                "start_time": 14.072727272727272,
                "end_time": 14.170454545454545,
                "pitch": 38,
                "velocity": 80,
                "duration": 0.09772727272727266,
                "tempo": 120.0
            },
            {
                "start_time": 14.204545454545453,
                "end_time": 14.306818181818182,
                "pitch": 36,
                "velocity": 80,
                "duration": 0.1022727272727284,
                "tempo": 120.0
            },
            {
                "start_time": 14.34090909090909,
                "end_time": 14.427272727272726,
                "pitch": 36,
                "velocity": 80,
                "duration": 0.08636363636363598,
                "tempo": 120.0
            },
            {
                "start_time": 14.461363636363636,
                "end_time": 14.563636363636363,
                "pitch": 38,
                "velocity": 80,
                "duration": 0.10227272727272663,
                "tempo": 120.0
            },
            {
                "start_time": 14.6,
                "end_time": 14.7,
                "pitch": 36,
                "velocity": 80,
                "duration": 0.09999999999999964,
                "tempo": 120.0
            },
            {
                "start_time": 14.734090909090908,
                "end_time": 14.834090909090909,
                "pitch": 40,
                "velocity": 80,
                "duration": 0.10000000000000142,
                "tempo": 120.0
            },
            {
                "start_time": 14.868181818181817,
                "end_time": 14.968181818181817,
                "pitch": 36,
                "velocity": 80,
                "duration": 0.09999999999999964,
                "tempo": 120.0
            },
            {
                "start_time": 15.002272727272727,
                "end_time": 15.225,
                "pitch": 42,
                "velocity": 80,
                "duration": 0.22272727272727266,
                "tempo": 120.0
            },
            {
                "start_time": 15.261363636363635,
                "end_time": 15.627272727272727,
                "pitch": 36,
                "velocity": 80,
                "duration": 0.36590909090909207,
                "tempo": 120.0
            },
            {
                "start_time": 15.659090909090908,
                "end_time": 15.759090909090908,
                "pitch": 38,
                "velocity": 80,
                "duration": 0.09999999999999964,
                "tempo": 120.0
            },
            {
                "start_time": 15.790909090909091,
                "end_time": 15.877272727272727,
                "pitch": 33,
                "velocity": 80,
                "duration": 0.08636363636363598,
                "tempo": 120.0
            },
            {
                "start_time": 15.911363636363635,
                "end_time": 16.01590909090909,
                "pitch": 33,
                "velocity": 80,
                "duration": 0.10454545454545539,
                "tempo": 120.0
            },
            {
                "start_time": 16.05,
                "end_time": 16.152272727272727,
                "pitch": 36,
                "velocity": 80,
                "duration": 0.10227272727272663,
                "tempo": 120.0
            },
            {
                "start_time": 16.186363636363634,
                "end_time": 16.288636363636364,
                "pitch": 33,
                "velocity": 80,
                "duration": 0.10227272727273018,
                "tempo": 120.0
            },
            {
                "start_time": 16.32272727272727,
                "end_time": 16.422727272727272,
                "pitch": 38,
                "velocity": 80,
                "duration": 0.10000000000000142,
                "tempo": 120.0
            },
            {
                "start_time": 16.456818181818182,
                "end_time": 16.538636363636364,
                "pitch": 33,
                "velocity": 80,
                "duration": 0.08181818181818201,
                "tempo": 120.0
            },
            {
                "start_time": 16.57272727272727,
                "end_time": 16.802272727272726,
                "pitch": 33,
                "velocity": 80,
                "duration": 0.22954545454545539,
                "tempo": 120.0
            },
            {
                "start_time": 16.834090909090907,
                "end_time": 17.204545454545453,
                "pitch": 38,
                "velocity": 80,
                "duration": 0.37045454545454604,
                "tempo": 120.0
            },
            {
                "start_time": 17.238636363636363,
                "end_time": 17.325,
                "pitch": 39,
                "velocity": 80,
                "duration": 0.08636363636363598,
                "tempo": 120.0
            },
            {
                "start_time": 17.361363636363635,
                "end_time": 17.459090909090907,
                "pitch": 40,
                "velocity": 80,
                "duration": 0.09772727272727266,
                "tempo": 120.0
            },
            {
                "start_time": 17.493181818181817,
                "end_time": 17.595454545454544,
                "pitch": 40,
                "velocity": 80,
                "duration": 0.10227272727272663,
                "tempo": 120.0
            },
            {
                "start_time": 17.629545454545454,
                "end_time": 17.729545454545455,
                "pitch": 42,
                "velocity": 80,
                "duration": 0.10000000000000142,
                "tempo": 120.0
            },
            {
                "start_time": 17.761363636363637,
                "end_time": 17.863636363636363,
                "pitch": 40,
                "velocity": 80,
                "duration": 0.10227272727272663,
                "tempo": 120.0
            },
            {
                "start_time": 17.9,
                "end_time": 17.98409090909091,
                "pitch": 43,
                "velocity": 80,
                "duration": 0.08409090909091077,
                "tempo": 120.0
            },
            {
                "start_time": 18.018181818181816,
                "end_time": 18.120454545454546,
                "pitch": 40,
                "velocity": 80,
                "duration": 0.10227272727273018,
                "tempo": 120.0
            },
            {
                "start_time": 18.154545454545453,
                "end_time": 18.384090909090908,
                "pitch": 45,
                "velocity": 80,
                "duration": 0.22954545454545539,
                "tempo": 120.0
            },
            {
                "start_time": 18.418181818181818,
                "end_time": 18.770454545454545,
                "pitch": 38,
                "velocity": 80,
                "duration": 0.3522727272727266,
                "tempo": 120.0
            },
            {
                "start_time": 18.804545454545455,
                "end_time": 18.90681818181818,
                "pitch": 42,
                "velocity": 80,
                "duration": 0.10227272727272663,
                "tempo": 120.0
            },
            {
                "start_time": 18.94090909090909,
                "end_time": 19.038636363636364,
                "pitch": 40,
                "velocity": 80,
                "duration": 0.09772727272727266,
                "tempo": 120.0
            },
            {
                "start_time": 19.07272727272727,
                "end_time": 19.170454545454543,
                "pitch": 40,
                "velocity": 80,
                "duration": 0.09772727272727266,
                "tempo": 120.0
            },
            {
                "start_time": 19.204545454545453,
                "end_time": 19.302272727272726,
                "pitch": 40,
                "velocity": 80,
                "duration": 0.09772727272727266,
                "tempo": 120.0
            },
            {
                "start_time": 19.334090909090907,
                "end_time": 19.420454545454543,
                "pitch": 40,
                "velocity": 80,
                "duration": 0.08636363636363598,
                "tempo": 120.0
            },
            {
                "start_time": 19.456818181818182,
                "end_time": 19.561363636363634,
                "pitch": 40,
                "velocity": 80,
                "duration": 0.10454545454545183,
                "tempo": 120.0
            },
            {
                "start_time": 19.597727272727273,
                "end_time": 19.702272727272728,
                "pitch": 40,
                "velocity": 80,
                "duration": 0.10454545454545539,
                "tempo": 120.0
            },
            {
                "start_time": 19.738636363636363,
                "end_time": 19.96818181818182,
                "pitch": 45,
                "velocity": 80,
                "duration": 0.22954545454545539,
                "tempo": 120.0
            },
            {
                "start_time": 20.0,
                "end_time": 20.493181818181817,
                "pitch": 38,
                "velocity": 80,
                "duration": 0.4931818181818173,
                "tempo": 120.0
            },
            {
                "start_time": 20.529545454545453,
                "end_time": 20.627272727272725,
                "pitch": 40,
                "velocity": 80,
                "duration": 0.09772727272727266,
                "tempo": 120.0
            },
            {
                "start_time": 20.661363636363635,
                "end_time": 20.761363636363637,
                "pitch": 40,
                "velocity": 80,
                "duration": 0.10000000000000142,
                "tempo": 120.0
            },
            {
                "start_time": 20.795454545454543,
                "end_time": 20.879545454545454,
                "pitch": 42,
                "velocity": 80,
                "duration": 0.08409090909091077,
                "tempo": 120.0
            },
            {
                "start_time": 20.913636363636364,
                "end_time": 21.011363636363637,
                "pitch": 40,
                "velocity": 80,
                "duration": 0.09772727272727266,
                "tempo": 120.0
            },
            {
                "start_time": 21.043181818181818,
                "end_time": 21.14090909090909,
                "pitch": 43,
                "velocity": 80,
                "duration": 0.09772727272727266,
                "tempo": 120.0
            },
            {
                "start_time": 21.175,
                "end_time": 21.272727272727273,
                "pitch": 40,
                "velocity": 80,
                "duration": 0.09772727272727266,
                "tempo": 120.0
            },
            {
                "start_time": 21.30681818181818,
                "end_time": 21.545454545454543,
                "pitch": 45,
                "velocity": 80,
                "duration": 0.2386363636363633,
                "tempo": 120.0
            },
            {
                "start_time": 21.561363636363634,
                "end_time": 21.927272727272726,
                "pitch": 38,
                "velocity": 80,
                "duration": 0.36590909090909207,
                "tempo": 120.0
            },
            {
                "start_time": 21.961363636363636,
                "end_time": 22.05909090909091,
                "pitch": 42,
                "velocity": 80,
                "duration": 0.09772727272727266,
                "tempo": 120.0
            },
            {
                "start_time": 22.09318181818182,
                "end_time": 22.193181818181817,
                "pitch": 40,
                "velocity": 80,
                "duration": 0.09999999999999787,
                "tempo": 120.0
            },
            {
                "start_time": 22.229545454545452,
                "end_time": 22.313636363636363,
                "pitch": 40,
                "velocity": 80,
                "duration": 0.08409090909091077,
                "tempo": 120.0
            },
            {
                "start_time": 22.349999999999998,
                "end_time": 22.45,
                "pitch": 42,
                "velocity": 80,
                "duration": 0.10000000000000142,
                "tempo": 120.0
            },
            {
                "start_time": 22.48409090909091,
                "end_time": 22.584090909090907,
                "pitch": 40,
                "velocity": 80,
                "duration": 0.09999999999999787,
                "tempo": 120.0
            },
            {
                "start_time": 22.61590909090909,
                "end_time": 22.71363636363636,
                "pitch": 43,
                "velocity": 80,
                "duration": 0.09772727272727266,
                "tempo": 120.0
            },
            {
                "start_time": 22.74772727272727,
                "end_time": 22.845454545454544,
                "pitch": 40,
                "velocity": 80,
                "duration": 0.09772727272727266,
                "tempo": 120.0
            },
            {
                "start_time": 22.877272727272725,
                "end_time": 23.102272727272727,
                "pitch": 38,
                "velocity": 80,
                "duration": 0.22500000000000142,
                "tempo": 120.0
            },
            {
                "start_time": 23.136363636363637,
                "end_time": 23.509090909090908,
                "pitch": 42,
                "velocity": 80,
                "duration": 0.37272727272727124,
                "tempo": 120.0
            },
            {
                "start_time": 23.543181818181818,
                "end_time": 23.643181818181816,
                "pitch": 38,
                "velocity": 80,
                "duration": 0.09999999999999787,
                "tempo": 120.0
            },
            {
                "start_time": 23.677272727272726,
                "end_time": 23.761363636363637,
                "pitch": 40,
                "velocity": 80,
                "duration": 0.08409090909091077,
                "tempo": 120.0
            },
            {
                "start_time": 23.795454545454543,
                "end_time": 23.9,
                "pitch": 40,
                "velocity": 80,
                "duration": 0.10454545454545539,
                "tempo": 120.0
            },
            {
                "start_time": 23.93409090909091,
                "end_time": 24.036363636363635,
                "pitch": 42,
                "velocity": 80,
                "duration": 0.10227272727272663,
                "tempo": 120.0
            },
            {
                "start_time": 24.070454545454545,
                "end_time": 24.168181818181818,
                "pitch": 40,
                "velocity": 80,
                "duration": 0.09772727272727266,
                "tempo": 120.0
            },
            {
                "start_time": 24.202272727272724,
                "end_time": 24.299999999999997,
                "pitch": 43,
                "velocity": 80,
                "duration": 0.09772727272727266,
                "tempo": 120.0
            },
            {
                "start_time": 24.331818181818182,
                "end_time": 24.413636363636364,
                "pitch": 40,
                "velocity": 80,
                "duration": 0.08181818181818201,
                "tempo": 120.0
            },
            {
                "start_time": 24.445454545454545,
                "end_time": 24.68181818181818,
                "pitch": 45,
                "velocity": 80,
                "duration": 0.23636363636363455,
                "tempo": 120.0
            },
            {
                "start_time": 24.71363636363636,
                "end_time": 25.09090909090909,
                "pitch": 38,
                "velocity": 80,
                "duration": 0.37727272727272876,
                "tempo": 120.0
            },
            {
                "start_time": 25.125,
                "end_time": 25.211363636363636,
                "pitch": 42,
                "velocity": 80,
                "duration": 0.08636363636363598,
                "tempo": 120.0
            },
            {
                "start_time": 25.245454545454542,
                "end_time": 25.34318181818182,
                "pitch": 40,
                "velocity": 80,
                "duration": 0.09772727272727622,
                "tempo": 120.0
            },
            {
                "start_time": 25.375,
                "end_time": 25.474999999999998,
                "pitch": 40,
                "velocity": 80,
                "duration": 0.09999999999999787,
                "tempo": 120.0
            },
            {
                "start_time": 25.50681818181818,
                "end_time": 25.604545454545452,
                "pitch": 42,
                "velocity": 80,
                "duration": 0.09772727272727266,
                "tempo": 120.0
            },
            {
                "start_time": 25.638636363636362,
                "end_time": 25.74090909090909,
                "pitch": 40,
                "velocity": 80,
                "duration": 0.10227272727272663,
                "tempo": 120.0
            },
            {
                "start_time": 25.775,
                "end_time": 25.85909090909091,
                "pitch": 43,
                "velocity": 80,
                "duration": 0.08409090909091077,
                "tempo": 120.0
            },
            {
                "start_time": 25.895454545454545,
                "end_time": 25.99772727272727,
                "pitch": 40,
                "velocity": 80,
                "duration": 0.10227272727272663,
                "tempo": 120.0
            },
            {
                "start_time": 26.03181818181818,
                "end_time": 26.26590909090909,
                "pitch": 38,
                "velocity": 80,
                "duration": 0.23409090909090935,
                "tempo": 120.0
            },
            {
                "start_time": 26.299999999999997,
                "end_time": 26.652272727272727,
                "pitch": 42,
                "velocity": 80,
                "duration": 0.3522727272727302,
                "tempo": 120.0
            },
            {
                "start_time": 26.686363636363634,
                "end_time": 26.786363636363635,
                "pitch": 38,
                "velocity": 80,
                "duration": 0.10000000000000142,
                "tempo": 120.0
            },
            {
                "start_time": 26.82272727272727,
                "end_time": 26.920454545454543,
                "pitch": 36,
                "velocity": 80,
                "duration": 0.09772727272727266,
                "tempo": 120.0
            },
            {
                "start_time": 26.954545454545453,
                "end_time": 27.054545454545455,
                "pitch": 36,
                "velocity": 80,
                "duration": 0.10000000000000142,
                "tempo": 120.0
            },
            {
                "start_time": 27.08863636363636,
                "end_time": 27.188636363636363,
                "pitch": 38,
                "velocity": 80,
                "duration": 0.10000000000000142,
                "tempo": 120.0
            },
            {
                "start_time": 27.222727272727273,
                "end_time": 27.30909090909091,
                "pitch": 36,
                "velocity": 80,
                "duration": 0.08636363636363598,
                "tempo": 120.0
            },
            {
                "start_time": 27.343181818181815,
                "end_time": 27.445454545454545,
                "pitch": 40,
                "velocity": 80,
                "duration": 0.10227272727273018,
                "tempo": 120.0
            },
            {
                "start_time": 27.479545454545452,
                "end_time": 27.581818181818182,
                "pitch": 36,
                "velocity": 80,
                "duration": 0.10227272727273018,
                "tempo": 120.0
            },
            {
                "start_time": 27.61590909090909,
                "end_time": 27.852272727272727,
                "pitch": 42,
                "velocity": 80,
                "duration": 0.2363636363636381,
                "tempo": 120.0
            },
            {
                "start_time": 27.884090909090908,
                "end_time": 28.23181818181818,
                "pitch": 36,
                "velocity": 80,
                "duration": 0.34772727272727266,
                "tempo": 120.0
            },
            {
                "start_time": 28.263636363636362,
                "end_time": 28.363636363636363,
                "pitch": 38,
                "velocity": 80,
                "duration": 0.10000000000000142,
                "tempo": 120.0
            },
            {
                "start_time": 28.395454545454545,
                "end_time": 28.49772727272727,
                "pitch": 33,
                "velocity": 80,
                "duration": 0.10227272727272663,
                "tempo": 120.0
            },
            {
                "start_time": 28.53181818181818,
                "end_time": 28.636363636363637,
                "pitch": 33,
                "velocity": 80,
                "duration": 0.10454545454545539,
                "tempo": 120.0
            },
            {
                "start_time": 28.670454545454543,
                "end_time": 28.75681818181818,
                "pitch": 36,
                "velocity": 80,
                "duration": 0.08636363636363598,
                "tempo": 120.0
            },
            {
                "start_time": 28.79090909090909,
                "end_time": 28.888636363636362,
                "pitch": 33,
                "velocity": 80,
                "duration": 0.09772727272727266,
                "tempo": 120.0
            },
            {
                "start_time": 28.922727272727272,
                "end_time": 29.020454545454545,
                "pitch": 38,
                "velocity": 80,
                "duration": 0.09772727272727266,
                "tempo": 120.0
            },
            {
                "start_time": 29.054545454545455,
                "end_time": 29.15,
                "pitch": 33,
                "velocity": 80,
                "duration": 0.0954545454545439,
                "tempo": 120.0
            },
            {
                "start_time": 29.18409090909091,
                "end_time": 29.422727272727272,
                "pitch": 33,
                "velocity": 80,
                "duration": 0.2386363636363633,
                "tempo": 120.0
            },
            {
                "start_time": 29.440909090909088,
                "end_time": 29.811363636363634,
                "pitch": 38,
                "velocity": 80,
                "duration": 0.37045454545454604,
                "tempo": 120.0
            },
            {
                "start_time": 29.845454545454544,
                "end_time": 29.94772727272727,
                "pitch": 39,
                "velocity": 80,
                "duration": 0.10227272727272663,
                "tempo": 120.0
            },
            {
                "start_time": 29.98181818181818,
                "end_time": 30.084090909090907,
                "pitch": 40,
                "velocity": 80,
                "duration": 0.10227272727272663,
                "tempo": 120.0
            },
            {
                "start_time": 30.118181818181817,
                "end_time": 30.204545454545453,
                "pitch": 40,
                "velocity": 80,
                "duration": 0.08636363636363598,
                "tempo": 120.0
            },
            {
                "start_time": 30.238636363636363,
                "end_time": 30.34090909090909,
                "pitch": 42,
                "velocity": 80,
                "duration": 0.10227272727272663,
                "tempo": 120.0
            },
            {
                "start_time": 30.377272727272725,
                "end_time": 30.474999999999998,
                "pitch": 40,
                "velocity": 80,
                "duration": 0.09772727272727266,
                "tempo": 120.0
            },
            {
                "start_time": 30.50681818181818,
                "end_time": 30.604545454545452,
                "pitch": 43,
                "velocity": 80,
                "duration": 0.09772727272727266,
                "tempo": 120.0
            },
            {
                "start_time": 30.638636363636362,
                "end_time": 30.736363636363635,
                "pitch": 40,
                "velocity": 80,
                "duration": 0.09772727272727266,
                "tempo": 120.0
            },
            {
                "start_time": 30.768181818181816,
                "end_time": 30.99090909090909,
                "pitch": 45,
                "velocity": 80,
                "duration": 0.22272727272727266,
                "tempo": 120.0
            },
            {
                "start_time": 31.025,
                "end_time": 31.39772727272727,
                "pitch": 38,
                "velocity": 80,
                "duration": 0.37272727272727124,
                "tempo": 120.0
            },
            {
                "start_time": 31.43181818181818,
                "end_time": 31.53181818181818,
                "pitch": 42,
                "velocity": 80,
                "duration": 0.10000000000000142,
                "tempo": 120.0
            },
            {
                "start_time": 31.565909090909088,
                "end_time": 31.65,
                "pitch": 40,
                "velocity": 80,
                "duration": 0.08409090909091077,
                "tempo": 120.0
            },
            {
                "start_time": 31.68409090909091,
                "end_time": 31.786363636363635,
                "pitch": 40,
                "velocity": 80,
                "duration": 0.10227272727272663,
                "tempo": 120.0
            },
            {
                "start_time": 31.82272727272727,
                "end_time": 31.924999999999997,
                "pitch": 40,
                "velocity": 80,
                "duration": 0.10227272727272663,
                "tempo": 120.0
            },
            {
                "start_time": 31.959090909090907,
                "end_time": 32.05681818181818,
                "pitch": 40,
                "velocity": 80,
                "duration": 0.09772727272727266,
                "tempo": 120.0
            },
            {
                "start_time": 32.08863636363636,
                "end_time": 32.18863636363636,
                "pitch": 40,
                "velocity": 80,
                "duration": 0.10000000000000142,
                "tempo": 120.0
            },
            {
                "start_time": 32.220454545454544,
                "end_time": 32.30227272727272,
                "pitch": 40,
                "velocity": 80,
                "duration": 0.08181818181817846,
                "tempo": 120.0
            },
            {
                "start_time": 32.336363636363636,
                "end_time": 32.434090909090905,
                "pitch": 42,
                "velocity": 80,
                "duration": 0.09772727272726911,
                "tempo": 120.0
            },
            {
                "start_time": 32.46818181818182,
                "end_time": 32.570454545454545,
                "pitch": 42,
                "velocity": 80,
                "duration": 0.10227272727272663,
                "tempo": 120.0
            },
            {
                "start_time": 32.60454545454545,
                "end_time": 32.70454545454545,
                "pitch": 42,
                "velocity": 80,
                "duration": 0.10000000000000142,
                "tempo": 120.0
            },
            {
                "start_time": 32.736363636363635,
                "end_time": 32.83863636363636,
                "pitch": 43,
                "velocity": 80,
                "duration": 0.10227272727272663,
                "tempo": 120.0
            },
            {
                "start_time": 32.87272727272727,
                "end_time": 32.97272727272727,
                "pitch": 43,
                "velocity": 80,
                "duration": 0.10000000000000142,
                "tempo": 120.0
            },
            {
                "start_time": 33.00681818181818,
                "end_time": 33.090909090909086,
                "pitch": 43,
                "velocity": 80,
                "duration": 0.08409090909090366,
                "tempo": 120.0
            },
            {
                "start_time": 33.125,
                "end_time": 33.22272727272727,
                "pitch": 45,
                "velocity": 80,
                "duration": 0.09772727272726911,
                "tempo": 120.0
            },
            {
                "start_time": 33.25681818181818,
                "end_time": 33.35909090909091,
                "pitch": 45,
                "velocity": 80,
                "duration": 0.10227272727272663,
                "tempo": 120.0
            },
            {
                "start_time": 33.39090909090909,
                "end_time": 33.49318181818182,
                "pitch": 45,
                "velocity": 80,
                "duration": 0.10227272727272663,
                "tempo": 120.0
            },
            {
                "start_time": 33.525,
                "end_time": 33.627272727272725,
                "pitch": 40,
                "velocity": 80,
                "duration": 0.10227272727272663,
                "tempo": 120.0
            },
            {
                "start_time": 33.663636363636364,
                "end_time": 33.74772727272727,
                "pitch": 45,
                "velocity": 80,
                "duration": 0.08409090909090366,
                "tempo": 120.0
            },
            {
                "start_time": 33.78181818181818,
                "end_time": 33.88409090909091,
                "pitch": 40,
                "velocity": 80,
                "duration": 0.10227272727272663,
                "tempo": 120.0
            },
            {
                "start_time": 33.92045454545455,
                "end_time": 34.14772727272727,
                "pitch": 45,
                "velocity": 80,
                "duration": 0.22727272727272663,
                "tempo": 120.0
            },
            {
                "start_time": 34.18181818181818,
                "end_time": 34.53636363636363,
                "pitch": 40,
                "velocity": 80,
                "duration": 0.35454545454545183,
                "tempo": 120.0
            },
            {
                "start_time": 34.570454545454545,
                "end_time": 34.675,
                "pitch": 43,
                "velocity": 80,
                "duration": 0.10454545454545183,
                "tempo": 120.0
            },
            {
                "start_time": 34.70909090909091,
                "end_time": 34.809090909090905,
                "pitch": 38,
                "velocity": 80,
                "duration": 0.09999999999999432,
                "tempo": 120.0
            },
            {
                "start_time": 34.84318181818182,
                "end_time": 34.94318181818181,
                "pitch": 38,
                "velocity": 80,
                "duration": 0.09999999999999432,
                "tempo": 120.0
            },
            {
                "start_time": 34.97727272727273,
                "end_time": 35.07727272727273,
                "pitch": 38,
                "velocity": 80,
                "duration": 0.10000000000000142,
                "tempo": 120.0
            },
            {
                "start_time": 35.111363636363635,
                "end_time": 35.195454545454545,
                "pitch": 42,
                "velocity": 80,
                "duration": 0.08409090909091077,
                "tempo": 120.0
            },
            {
                "start_time": 35.23181818181818,
                "end_time": 35.33409090909091,
                "pitch": 38,
                "velocity": 80,
                "duration": 0.10227272727273373,
                "tempo": 120.0
            },
            {
                "start_time": 35.36818181818182,
                "end_time": 35.470454545454544,
                "pitch": 42,
                "velocity": 80,
                "duration": 0.10227272727272663,
                "tempo": 120.0
            },
            {
                "start_time": 35.50454545454545,
                "end_time": 35.73409090909091,
                "pitch": 43,
                "velocity": 80,
                "duration": 0.22954545454545894,
                "tempo": 120.0
            },
            {
                "start_time": 35.76590909090909,
                "end_time": 36.12045454545454,
                "pitch": 42,
                "velocity": 80,
                "duration": 0.35454545454545183,
                "tempo": 120.0
            },
            {
                "start_time": 36.154545454545456,
                "end_time": 36.25909090909091,
                "pitch": 38,
                "velocity": 80,
                "duration": 0.10454545454545183,
                "tempo": 120.0
            },
            {
                "start_time": 36.29545454545455,
                "end_time": 36.393181818181816,
                "pitch": 43,
                "velocity": 80,
                "duration": 0.09772727272726911,
                "tempo": 120.0
            },
            {
                "start_time": 36.42727272727272,
                "end_time": 36.527272727272724,
                "pitch": 43,
                "velocity": 80,
                "duration": 0.10000000000000142,
                "tempo": 120.0
            },
            {
                "start_time": 36.56136363636364,
                "end_time": 36.64545454545454,
                "pitch": 43,
                "velocity": 80,
                "duration": 0.08409090909090366,
                "tempo": 120.0
            },
            {
                "start_time": 36.679545454545455,
                "end_time": 36.777272727272724,
                "pitch": 38,
                "velocity": 80,
                "duration": 0.09772727272726911,
                "tempo": 120.0
            },
            {
                "start_time": 36.81136363636364,
                "end_time": 36.90909090909091,
                "pitch": 43,
                "velocity": 80,
                "duration": 0.09772727272726911,
                "tempo": 120.0
            },
            {
                "start_time": 36.94090909090909,
                "end_time": 37.038636363636364,
                "pitch": 38,
                "velocity": 80,
                "duration": 0.09772727272727622,
                "tempo": 120.0
            },
            {
                "start_time": 37.07272727272727,
                "end_time": 37.31136363636364,
                "pitch": 43,
                "velocity": 80,
                "duration": 0.23863636363636687,
                "tempo": 120.0
            },
            {
                "start_time": 37.32954545454545,
                "end_time": 37.695454545454545,
                "pitch": 38,
                "velocity": 80,
                "duration": 0.36590909090909207,
                "tempo": 120.0
            },
            {
                "start_time": 37.72727272727273,
                "end_time": 37.824999999999996,
                "pitch": 42,
                "velocity": 80,
                "duration": 0.09772727272726911,
                "tempo": 120.0
            },
            {
                "start_time": 37.85909090909091,
                "end_time": 37.96363636363636,
                "pitch": 36,
                "velocity": 80,
                "duration": 0.10454545454545183,
                "tempo": 120.0
            },
            {
                "start_time": 37.99772727272727,
                "end_time": 38.086363636363636,
                "pitch": 36,
                "velocity": 80,
                "duration": 0.08863636363636829,
                "tempo": 120.0
            },
            {
                "start_time": 38.12045454545454,
                "end_time": 38.22727272727273,
                "pitch": 38,
                "velocity": 80,
                "duration": 0.10681818181818414,
                "tempo": 120.0
            },
            {
                "start_time": 38.26136363636363,
                "end_time": 38.35909090909091,
                "pitch": 36,
                "velocity": 80,
                "duration": 0.09772727272727622,
                "tempo": 120.0
            },
            {
                "start_time": 38.393181818181816,
                "end_time": 38.49090909090909,
                "pitch": 40,
                "velocity": 80,
                "duration": 0.09772727272727622,
                "tempo": 120.0
            },
            {
                "start_time": 38.525,
                "end_time": 38.62272727272727,
                "pitch": 36,
                "velocity": 80,
                "duration": 0.09772727272726911,
                "tempo": 120.0
            },
            {
                "start_time": 38.654545454545456,
                "end_time": 38.877272727272725,
                "pitch": 43,
                "velocity": 80,
                "duration": 0.2227272727272691,
                "tempo": 120.0
            },
            {
                "start_time": 38.91136363636363,
                "end_time": 39.277272727272724,
                "pitch": 42,
                "velocity": 80,
                "duration": 0.36590909090909207,
                "tempo": 120.0
            },
            {
                "start_time": 39.309090909090905,
                "end_time": 39.40909090909091,
                "pitch": 38,
                "velocity": 80,
                "duration": 0.10000000000000142,
                "tempo": 120.0
            },
            {
                "start_time": 39.44090909090909,
                "end_time": 39.525,
                "pitch": 33,
                "velocity": 80,
                "duration": 0.08409090909091077,
                "tempo": 120.0
            },
            {
                "start_time": 39.56136363636364,
                "end_time": 39.663636363636364,
                "pitch": 33,
                "velocity": 80,
                "duration": 0.10227272727272663,
                "tempo": 120.0
            },
            {
                "start_time": 39.69772727272727,
                "end_time": 39.8,
                "pitch": 36,
                "velocity": 80,
                "duration": 0.10227272727272663,
                "tempo": 120.0
            },
            {
                "start_time": 39.834090909090904,
                "end_time": 39.934090909090905,
                "pitch": 33,
                "velocity": 80,
                "duration": 0.10000000000000142,
                "tempo": 120.0
            },
            {
                "start_time": 39.96818181818182,
                "end_time": 40.06818181818181,
                "pitch": 38,
                "velocity": 80,
                "duration": 0.09999999999999432,
                "tempo": 120.0
            },
            {
                "start_time": 40.10227272727273,
                "end_time": 40.20227272727273,
                "pitch": 33,
                "velocity": 80,
                "duration": 0.10000000000000142,
                "tempo": 120.0
            },
            {
                "start_time": 40.220454545454544,
                "end_time": 40.449999999999996,
                "pitch": 40,
                "velocity": 80,
                "duration": 0.22954545454545183,
                "tempo": 120.0
            },
            {
                "start_time": 40.48181818181818,
                "end_time": 40.85227272727273,
                "pitch": 36,
                "velocity": 80,
                "duration": 0.3704545454545496,
                "tempo": 120.0
            },
            {
                "start_time": 40.88636363636363,
                "end_time": 40.97272727272727,
                "pitch": 37,
                "velocity": 80,
                "duration": 0.08636363636363598,
                "tempo": 120.0
            },
            {
                "start_time": 41.00681818181818,
                "end_time": 41.10681818181818,
                "pitch": 38,
                "velocity": 80,
                "duration": 0.09999999999999432,
                "tempo": 120.0
            },
            {
                "start_time": 41.14090909090909,
                "end_time": 41.24090909090909,
                "pitch": 38,
                "velocity": 80,
                "duration": 0.10000000000000142,
                "tempo": 120.0
            },
            {
                "start_time": 41.275,
                "end_time": 41.375,
                "pitch": 40,
                "velocity": 80,
                "duration": 0.10000000000000142,
                "tempo": 120.0
            },
            {
                "start_time": 41.40909090909091,
                "end_time": 41.51136363636363,
                "pitch": 38,
                "velocity": 80,
                "duration": 0.10227272727272663,
                "tempo": 120.0
            },
            {
                "start_time": 41.54545454545455,
                "end_time": 41.63181818181818,
                "pitch": 42,
                "velocity": 80,
                "duration": 0.08636363636363598,
                "tempo": 120.0
            },
            {
                "start_time": 41.66590909090909,
                "end_time": 41.768181818181816,
                "pitch": 38,
                "velocity": 80,
                "duration": 0.10227272727272663,
                "tempo": 120.0
            },
            {
                "start_time": 41.80227272727272,
                "end_time": 42.03181818181818,
                "pitch": 43,
                "velocity": 80,
                "duration": 0.22954545454545894,
                "tempo": 120.0
            },
            {
                "start_time": 42.06363636363636,
                "end_time": 42.418181818181814,
                "pitch": 42,
                "velocity": 80,
                "duration": 0.35454545454545183,
                "tempo": 120.0
            },
            {
                "start_time": 42.45227272727273,
                "end_time": 42.554545454545455,
                "pitch": 38,
                "velocity": 80,
                "duration": 0.10227272727272663,
                "tempo": 120.0
            },
            {
                "start_time": 42.590909090909086,
                "end_time": 42.68863636363636,
                "pitch": 43,
                "velocity": 80,
                "duration": 0.09772727272727622,
                "tempo": 120.0
            },
            {
                "start_time": 42.72272727272727,
                "end_time": 42.82272727272727,
                "pitch": 43,
                "velocity": 80,
                "duration": 0.10000000000000142,
                "tempo": 120.0
            },
            {
                "start_time": 42.85681818181818,
                "end_time": 42.959090909090904,
                "pitch": 45,
                "velocity": 80,
                "duration": 0.10227272727272663,
                "tempo": 120.0
            },
            {
                "start_time": 42.99090909090909,
                "end_time": 43.07727272727273,
                "pitch": 43,
                "velocity": 80,
                "duration": 0.08636363636363598,
                "tempo": 120.0
            },
            {
                "start_time": 43.111363636363635,
                "end_time": 43.21363636363636,
                "pitch": 47,
                "velocity": 80,
                "duration": 0.10227272727272663,
                "tempo": 120.0
            },
            {
                "start_time": 43.24772727272727,
                "end_time": 43.35,
                "pitch": 43,
                "velocity": 80,
                "duration": 0.10227272727273373,
                "tempo": 120.0
            },
            {
                "start_time": 43.38636363636363,
                "end_time": 43.61363636363636,
                "pitch": 48,
                "velocity": 80,
                "duration": 0.22727272727272663,
                "tempo": 120.0
            },
            {
                "start_time": 43.64772727272727,
                "end_time": 44.0,
                "pitch": 47,
                "velocity": 80,
                "duration": 0.3522727272727266,
                "tempo": 120.0
            },
            {
                "start_time": 44.03409090909091,
                "end_time": 44.13636363636363,
                "pitch": 43,
                "velocity": 80,
                "duration": 0.10227272727272663,
                "tempo": 120.0
            },
            {
                "start_time": 44.17272727272727,
                "end_time": 44.27045454545454,
                "pitch": 44,
                "velocity": 80,
                "duration": 0.09772727272726911,
                "tempo": 120.0
            },
            {
                "start_time": 44.30227272727272,
                "end_time": 44.4,
                "pitch": 44,
                "velocity": 80,
                "duration": 0.09772727272727622,
                "tempo": 120.0
            },
            {
                "start_time": 44.434090909090905,
                "end_time": 44.51363636363636,
                "pitch": 44,
                "velocity": 80,
                "duration": 0.07954545454545325,
                "tempo": 120.0
            },
            {
                "start_time": 44.54772727272727,
                "end_time": 44.64772727272727,
                "pitch": 44,
                "velocity": 80,
                "duration": 0.10000000000000142,
                "tempo": 120.0
            },
            {
                "start_time": 44.68181818181818,
                "end_time": 44.78181818181818,
                "pitch": 44,
                "velocity": 80,
                "duration": 0.10000000000000142,
                "tempo": 120.0
            },
            {
                "start_time": 44.81590909090909,
                "end_time": 44.91590909090909,
                "pitch": 44,
                "velocity": 80,
                "duration": 0.10000000000000142,
                "tempo": 120.0
            },
            {
                "start_time": 44.949999999999996,
                "end_time": 45.19090909090909,
                "pitch": 44,
                "velocity": 80,
                "duration": 0.24090909090909207,
                "tempo": 120.0
            },
            {
                "start_time": 45.209090909090904,
                "end_time": 45.44318181818181,
                "pitch": 41,
                "velocity": 80,
                "duration": 0.23409090909090935,
                "tempo": 120.0
            },
            {
                "start_time": 45.47727272727273,
                "end_time": 45.574999999999996,
                "pitch": 40,
                "velocity": 80,
                "duration": 0.09772727272726911,
                "tempo": 120.0
            },
            {
                "start_time": 45.60681818181818,
                "end_time": 45.70681818181818,
                "pitch": 44,
                "velocity": 80,
                "duration": 0.10000000000000142,
                "tempo": 120.0
            },
            {
                "start_time": 45.74090909090909,
                "end_time": 45.840909090909086,
                "pitch": 45,
                "velocity": 80,
                "duration": 0.09999999999999432,
                "tempo": 120.0
            },
            {
                "start_time": 45.875,
                "end_time": 45.961363636363636,
                "pitch": 45,
                "velocity": 80,
                "duration": 0.08636363636363598,
                "tempo": 120.0
            },
            {
                "start_time": 45.99545454545454,
                "end_time": 46.09772727272727,
                "pitch": 45,
                "velocity": 80,
                "duration": 0.10227272727272663,
                "tempo": 120.0
            },
            {
                "start_time": 46.13181818181818,
                "end_time": 46.23181818181818,
                "pitch": 40,
                "velocity": 80,
                "duration": 0.09999999999999432,
                "tempo": 120.0
            },
            {
                "start_time": 46.26590909090909,
                "end_time": 46.36818181818182,
                "pitch": 45,
                "velocity": 80,
                "duration": 0.10227272727272663,
                "tempo": 120.0
            },
            {
                "start_time": 46.4,
                "end_time": 46.502272727272725,
                "pitch": 40,
                "velocity": 80,
                "duration": 0.10227272727272663,
                "tempo": 120.0
            },
            {
                "start_time": 46.53409090909091,
                "end_time": 46.752272727272725,
                "pitch": 45,
                "velocity": 80,
                "duration": 0.2181818181818187,
                "tempo": 120.0
            },
            {
                "start_time": 46.78636363636363,
                "end_time": 47.15681818181818,
                "pitch": 40,
                "velocity": 80,
                "duration": 0.3704545454545496,
                "tempo": 120.0
            },
            {
                "start_time": 47.18863636363636,
                "end_time": 47.29090909090909,
                "pitch": 43,
                "velocity": 80,
                "duration": 0.10227272727272663,
                "tempo": 120.0
            },
            {
                "start_time": 47.324999999999996,
                "end_time": 47.40909090909091,
                "pitch": 38,
                "velocity": 80,
                "duration": 0.08409090909091077,
                "tempo": 120.0
            },
            {
                "start_time": 47.44318181818181,
                "end_time": 47.54545454545454,
                "pitch": 38,
                "velocity": 80,
                "duration": 0.10227272727272663,
                "tempo": 120.0
            },
            {
                "start_time": 47.57954545454545,
                "end_time": 47.68181818181818,
                "pitch": 38,
                "velocity": 80,
                "duration": 0.10227272727272663,
                "tempo": 120.0
            },
            {
                "start_time": 47.71818181818182,
                "end_time": 47.81590909090909,
                "pitch": 42,
                "velocity": 80,
                "duration": 0.09772727272726911,
                "tempo": 120.0
            },
            {
                "start_time": 47.84772727272727,
                "end_time": 47.945454545454545,
                "pitch": 38,
                "velocity": 80,
                "duration": 0.09772727272727622,
                "tempo": 120.0
            },
            {
                "start_time": 47.97954545454545,
                "end_time": 48.07727272727273,
                "pitch": 42,
                "velocity": 80,
                "duration": 0.09772727272727622,
                "tempo": 120.0
            },
            {
                "start_time": 48.09318181818182,
                "end_time": 48.32727272727273,
                "pitch": 43,
                "velocity": 80,
                "duration": 0.23409090909090935,
                "tempo": 120.0
            },
            {
                "start_time": 48.361363636363635,
                "end_time": 48.736363636363635,
                "pitch": 42,
                "velocity": 80,
                "duration": 0.375,
                "tempo": 120.0
            },
            {
                "start_time": 48.77045454545454,
                "end_time": 48.85454545454545,
                "pitch": 38,
                "velocity": 80,
                "duration": 0.08409090909091077,
                "tempo": 120.0
            },
            {
                "start_time": 48.89090909090909,
                "end_time": 48.99090909090909,
                "pitch": 43,
                "velocity": 80,
                "duration": 0.10000000000000142,
                "tempo": 120.0
            },
            {
                "start_time": 49.025,
                "end_time": 49.125,
                "pitch": 43,
                "velocity": 80,
                "duration": 0.10000000000000142,
                "tempo": 120.0
            },
            {
                "start_time": 49.15909090909091,
                "end_time": 49.25909090909091,
                "pitch": 43,
                "velocity": 80,
                "duration": 0.10000000000000142,
                "tempo": 120.0
            },
            {
                "start_time": 49.293181818181814,
                "end_time": 49.393181818181816,
                "pitch": 38,
                "velocity": 80,
                "duration": 0.10000000000000142,
                "tempo": 120.0
            },
            {
                "start_time": 49.42727272727272,
                "end_time": 49.51136363636363,
                "pitch": 43,
                "velocity": 80,
                "duration": 0.08409090909091077,
                "tempo": 120.0
            },
            {
                "start_time": 49.543181818181814,
                "end_time": 49.64545454545454,
                "pitch": 38,
                "velocity": 80,
                "duration": 0.10227272727272663,
                "tempo": 120.0
            },
            {
                "start_time": 49.679545454545455,
                "end_time": 49.913636363636364,
                "pitch": 43,
                "velocity": 80,
                "duration": 0.23409090909090935,
                "tempo": 120.0
            },
            {
                "start_time": 49.94772727272727,
                "end_time": 50.30227272727272,
                "pitch": 38,
                "velocity": 80,
                "duration": 0.35454545454545183,
                "tempo": 120.0
            },
            {
                "start_time": 50.33863636363636,
                "end_time": 50.44090909090909,
                "pitch": 42,
                "velocity": 80,
                "duration": 0.10227272727272663,
                "tempo": 120.0
            },
            {
                "start_time": 50.474999999999994,
                "end_time": 50.57272727272727,
                "pitch": 36,
                "velocity": 80,
                "duration": 0.09772727272727622,
                "tempo": 120.0
            },
            {
                "start_time": 50.60454545454545,
                "end_time": 50.70454545454545,
                "pitch": 36,
                "velocity": 80,
                "duration": 0.10000000000000142,
                "tempo": 120.0
            },
            {
                "start_time": 50.736363636363635,
                "end_time": 50.834090909090904,
                "pitch": 38,
                "velocity": 80,
                "duration": 0.09772727272726911,
                "tempo": 120.0
            },
            {
                "start_time": 50.86818181818182,
                "end_time": 50.95227272727273,
                "pitch": 36,
                "velocity": 80,
                "duration": 0.08409090909091077,
                "tempo": 120.0
            },
            {
                "start_time": 50.986363636363635,
                "end_time": 51.08863636363636,
                "pitch": 40,
                "velocity": 80,
                "duration": 0.10227272727272663,
                "tempo": 120.0
            },
            {
                "start_time": 51.12272727272727,
                "end_time": 51.22727272727273,
                "pitch": 36,
                "velocity": 80,
                "duration": 0.10454545454545894,
                "tempo": 120.0
            },
            {
                "start_time": 51.26136363636363,
                "end_time": 51.49545454545454,
                "pitch": 43,
                "velocity": 80,
                "duration": 0.23409090909090935,
                "tempo": 120.0
            },
            {
                "start_time": 51.52954545454545,
                "end_time": 51.88181818181818,
                "pitch": 42,
                "velocity": 80,
                "duration": 0.35227272727273373,
                "tempo": 120.0
            },
            {
                "start_time": 51.91590909090909,
                "end_time": 52.01590909090909,
                "pitch": 38,
                "velocity": 80,
                "duration": 0.10000000000000142,
                "tempo": 120.0
            },
            {
                "start_time": 52.05,
                "end_time": 52.15,
                "pitch": 33,
                "velocity": 80,
                "duration": 0.10000000000000142,
                "tempo": 120.0
            },
            {
                "start_time": 52.184090909090905,
                "end_time": 52.28409090909091,
                "pitch": 33,
                "velocity": 80,
                "duration": 0.10000000000000142,
                "tempo": 120.0
            },
            {
                "start_time": 52.31818181818181,
                "end_time": 52.402272727272724,
                "pitch": 36,
                "velocity": 80,
                "duration": 0.08409090909091077,
                "tempo": 120.0
            },
            {
                "start_time": 52.43636363636363,
                "end_time": 52.53636363636363,
                "pitch": 33,
                "velocity": 80,
                "duration": 0.10000000000000142,
                "tempo": 120.0
            },
            {
                "start_time": 52.570454545454545,
                "end_time": 52.67045454545454,
                "pitch": 38,
                "velocity": 80,
                "duration": 0.09999999999999432,
                "tempo": 120.0
            },
            {
                "start_time": 52.70454545454545,
                "end_time": 52.804545454545455,
                "pitch": 33,
                "velocity": 80,
                "duration": 0.10000000000000142,
                "tempo": 120.0
            },
            {
                "start_time": 52.83863636363636,
                "end_time": 53.07272727272727,
                "pitch": 40,
                "velocity": 80,
                "duration": 0.23409090909090935,
                "tempo": 120.0
            },
            {
                "start_time": 53.10681818181818,
                "end_time": 53.459090909090904,
                "pitch": 36,
                "velocity": 80,
                "duration": 0.3522727272727266,
                "tempo": 120.0
            },
            {
                "start_time": 53.49318181818182,
                "end_time": 53.59318181818182,
                "pitch": 37,
                "velocity": 80,
                "duration": 0.10000000000000142,
                "tempo": 120.0
            },
            {
                "start_time": 53.627272727272725,
                "end_time": 53.72954545454545,
                "pitch": 38,
                "velocity": 80,
                "duration": 0.10227272727272663,
                "tempo": 120.0
            },
            {
                "start_time": 53.76363636363636,
                "end_time": 53.849999999999994,
                "pitch": 38,
                "velocity": 80,
                "duration": 0.08636363636363598,
                "tempo": 120.0
            },
            {
                "start_time": 53.88409090909091,
                "end_time": 53.986363636363635,
                "pitch": 40,
                "velocity": 80,
                "duration": 0.10227272727272663,
                "tempo": 120.0
            },
            {
                "start_time": 54.02045454545454,
                "end_time": 54.11818181818182,
                "pitch": 38,
                "velocity": 80,
                "duration": 0.09772727272727622,
                "tempo": 120.0
            },
            {
                "start_time": 54.152272727272724,
                "end_time": 54.25,
                "pitch": 42,
                "velocity": 80,
                "duration": 0.09772727272727622,
                "tempo": 120.0
            },
            {
                "start_time": 54.28181818181818,
                "end_time": 54.37954545454545,
                "pitch": 38,
                "velocity": 80,
                "duration": 0.09772727272726911,
                "tempo": 120.0
            },
            {
                "start_time": 54.413636363636364,
                "end_time": 54.63636363636363,
                "pitch": 43,
                "velocity": 80,
                "duration": 0.2227272727272691,
                "tempo": 120.0
            },
            {
                "start_time": 54.67045454545454,
                "end_time": 55.038636363636364,
                "pitch": 42,
                "velocity": 80,
                "duration": 0.3681818181818244,
                "tempo": 120.0
            },
            {
                "start_time": 55.070454545454545,
                "end_time": 55.168181818181814,
                "pitch": 38,
                "velocity": 80,
                "duration": 0.09772727272726911,
                "tempo": 120.0
            },
            {
                "start_time": 55.20227272727273,
                "end_time": 55.288636363636364,
                "pitch": 40,
                "velocity": 80,
                "duration": 0.08636363636363598,
                "tempo": 120.0
            },
            {
                "start_time": 55.324999999999996,
                "end_time": 55.429545454545455,
                "pitch": 40,
                "velocity": 80,
                "duration": 0.10454545454545894,
                "tempo": 120.0
            },
            {
                "start_time": 55.46363636363636,
                "end_time": 55.570454545454545,
                "pitch": 42,
                "velocity": 80,
                "duration": 0.10681818181818414,
                "tempo": 120.0
            },
            {
                "start_time": 55.60454545454545,
                "end_time": 55.70454545454545,
                "pitch": 40,
                "velocity": 80,
                "duration": 0.10000000000000142,
                "tempo": 120.0
            },
            {
                "start_time": 55.736363636363635,
                "end_time": 55.834090909090904,
                "pitch": 43,
                "velocity": 80,
                "duration": 0.09772727272726911,
                "tempo": 120.0
            },
            {
                "start_time": 55.86818181818182,
                "end_time": 55.965909090909086,
                "pitch": 40,
                "velocity": 80,
                "duration": 0.09772727272726911,
                "tempo": 120.0
            },
            {
                "start_time": 55.98181818181818,
                "end_time": 56.211363636363636,
                "pitch": 42,
                "velocity": 80,
                "duration": 0.22954545454545894,
                "tempo": 120.0
            },
            {
                "start_time": 56.24318181818182,
                "end_time": 56.61363636363636,
                "pitch": 38,
                "velocity": 80,
                "duration": 0.3704545454545425,
                "tempo": 120.0
            },
            {
                "start_time": 56.64772727272727,
                "end_time": 56.73409090909091,
                "pitch": 39,
                "velocity": 80,
                "duration": 0.08636363636363598,
                "tempo": 120.0
            },
            {
                "start_time": 56.768181818181816,
                "end_time": 56.86818181818182,
                "pitch": 40,
                "velocity": 80,
                "duration": 0.10000000000000142,
                "tempo": 120.0
            },
            {
                "start_time": 56.902272727272724,
                "end_time": 57.002272727272725,
                "pitch": 40,
                "velocity": 80,
                "duration": 0.10000000000000142,
                "tempo": 120.0
            },
            {
                "start_time": 57.03636363636363,
                "end_time": 57.13636363636363,
                "pitch": 40,
                "velocity": 80,
                "duration": 0.10000000000000142,
                "tempo": 120.0
            },
            {
                "start_time": 57.17045454545454,
                "end_time": 57.27272727272727,
                "pitch": 40,
                "velocity": 80,
                "duration": 0.10227272727273373,
                "tempo": 120.0
            },
            {
                "start_time": 57.30681818181818,
                "end_time": 57.40909090909091,
                "pitch": 40,
                "velocity": 80,
                "duration": 0.10227272727272663,
                "tempo": 120.0
            },
            {
                "start_time": 57.42727272727272,
                "end_time": 57.52954545454545,
                "pitch": 40,
                "velocity": 80,
                "duration": 0.10227272727272663,
                "tempo": 120.0
            },
            {
                "start_time": 57.56590909090909,
                "end_time": 57.8,
                "pitch": 45,
                "velocity": 80,
                "duration": 0.23409090909090935,
                "tempo": 120.0
            },
            {
                "start_time": 57.834090909090904,
                "end_time": 58.320454545454545,
                "pitch": 38,
                "velocity": 80,
                "duration": 0.48636363636364166,
                "tempo": 120.0
            },
            {
                "start_time": 58.35454545454545,
                "end_time": 58.45454545454545,
                "pitch": 40,
                "velocity": 80,
                "duration": 0.10000000000000142,
                "tempo": 120.0
            },
            {
                "start_time": 58.486363636363635,
                "end_time": 58.48863636363636,
                "pitch": 40,
                "velocity": 80,
                "duration": 0.0022727272727252057,
                "tempo": 120.0
            }
        ],
        "Church Organ": [
            {
                "start_time": 0.020454545454545454,
                "end_time": 0.23409090909090907,
                "pitch": 40,
                "velocity": 51,
                "duration": 0.21363636363636362,
                "tempo": 120.0
            },
            {
                "start_time": 0.23409090909090907,
                "end_time": 0.2681818181818182,
                "pitch": 44,
                "velocity": 51,
                "duration": 0.034090909090909116,
                "tempo": 120.0
            },
            {
                "start_time": 0.2681818181818182,
                "end_time": 0.3,
                "pitch": 46,
                "velocity": 51,
                "duration": 0.0318181818181818,
                "tempo": 120.0
            },
            {
                "start_time": 0.3,
                "end_time": 0.33409090909090905,
                "pitch": 48,
                "velocity": 51,
                "duration": 0.03409090909090906,
                "tempo": 120.0
            },
            {
                "start_time": 0.33409090909090905,
                "end_time": 0.36818181818181817,
                "pitch": 50,
                "velocity": 51,
                "duration": 0.034090909090909116,
                "tempo": 120.0
            },
            {
                "start_time": 0.3,
                "end_time": 0.4340909090909091,
                "pitch": 52,
                "velocity": 51,
                "duration": 0.1340909090909091,
                "tempo": 120.0
            },
            {
                "start_time": 0.36818181818181817,
                "end_time": 0.4340909090909091,
                "pitch": 52,
                "velocity": 51,
                "duration": 0.06590909090909092,
                "tempo": 120.0
            },
            {
                "start_time": 0.4340909090909091,
                "end_time": 0.46818181818181814,
                "pitch": 56,
                "velocity": 51,
                "duration": 0.03409090909090906,
                "tempo": 120.0
            },
            {
                "start_time": 0.46818181818181814,
                "end_time": 0.5022727272727272,
                "pitch": 58,
                "velocity": 51,
                "duration": 0.03409090909090906,
                "tempo": 120.0
            },
            {
                "start_time": 0.5022727272727272,
                "end_time": 0.5363636363636364,
                "pitch": 60,
                "velocity": 51,
                "duration": 0.03409090909090917,
                "tempo": 120.0
            },
            {
                "start_time": 0.5363636363636364,
                "end_time": 0.5681818181818181,
                "pitch": 62,
                "velocity": 51,
                "duration": 0.031818181818181746,
                "tempo": 120.0
            },
            {
                "start_time": 0.5022727272727272,
                "end_time": 0.6363636363636364,
                "pitch": 64,
                "velocity": 51,
                "duration": 0.13409090909090915,
                "tempo": 120.0
            },
            {
                "start_time": 0.5681818181818181,
                "end_time": 0.6363636363636364,
                "pitch": 64,
                "velocity": 51,
                "duration": 0.06818181818181823,
                "tempo": 120.0
            },
            {
                "start_time": 0.6363636363636364,
                "end_time": 0.6704545454545454,
                "pitch": 68,
                "velocity": 51,
                "duration": 0.03409090909090906,
                "tempo": 120.0
            },
            {
                "start_time": 0.6704545454545454,
                "end_time": 0.7045454545454545,
                "pitch": 70,
                "velocity": 51,
                "duration": 0.03409090909090906,
                "tempo": 120.0
            },
            {
                "start_time": 0.7045454545454545,
                "end_time": 0.7363636363636363,
                "pitch": 72,
                "velocity": 51,
                "duration": 0.03181818181818186,
                "tempo": 120.0
            },
            {
                "start_time": 0.7363636363636363,
                "end_time": 0.7545454545454545,
                "pitch": 74,
                "velocity": 51,
                "duration": 0.018181818181818188,
                "tempo": 120.0
            },
            {
                "start_time": 0.7045454545454545,
                "end_time": 1.6045454545454545,
                "pitch": 76,
                "velocity": 51,
                "duration": 0.9,
                "tempo": 120.0
            },
            {
                "start_time": 0.7545454545454545,
                "end_time": 1.6045454545454545,
                "pitch": 76,
                "velocity": 51,
                "duration": 0.85,
                "tempo": 120.0
            },
            {
                "start_time": 1.6045454545454545,
                "end_time": 3.1386363636363637,
                "pitch": 64,
                "velocity": 51,
                "duration": 1.5340909090909092,
                "tempo": 120.0
            },
            {
                "start_time": 3.175,
                "end_time": 3.402272727272727,
                "pitch": 40,
                "velocity": 51,
                "duration": 0.22727272727272707,
                "tempo": 120.0
            },
            {
                "start_time": 3.402272727272727,
                "end_time": 3.436363636363636,
                "pitch": 44,
                "velocity": 51,
                "duration": 0.03409090909090917,
                "tempo": 120.0
            },
            {
                "start_time": 3.436363636363636,
                "end_time": 3.465909090909091,
                "pitch": 46,
                "velocity": 51,
                "duration": 0.029545454545454763,
                "tempo": 120.0
            },
            {
                "start_time": 3.465909090909091,
                "end_time": 3.5,
                "pitch": 48,
                "velocity": 51,
                "duration": 0.03409090909090917,
                "tempo": 120.0
            },
            {
                "start_time": 3.5,
                "end_time": 3.5318181818181817,
                "pitch": 50,
                "velocity": 51,
                "duration": 0.031818181818181746,
                "tempo": 120.0
            },
            {
                "start_time": 0.4340909090909091,
                "end_time": 3.5977272727272727,
                "pitch": 7,
                "velocity": 51,
                "duration": 3.1636363636363636,
                "tempo": 120.0
            },
            {
                "start_time": 3.465909090909091,
                "end_time": 3.5977272727272727,
                "pitch": 52,
                "velocity": 51,
                "duration": 0.13181818181818183,
                "tempo": 120.0
            },
            {
                "start_time": 3.5318181818181817,
                "end_time": 3.5977272727272727,
                "pitch": 52,
                "velocity": 51,
                "duration": 0.06590909090909092,
                "tempo": 120.0
            },
            {
                "start_time": 3.5977272727272727,
                "end_time": 3.6159090909090907,
                "pitch": 56,
                "velocity": 51,
                "duration": 0.018181818181818077,
                "tempo": 120.0
            },
            {
                "start_time": 3.6159090909090907,
                "end_time": 3.65,
                "pitch": 58,
                "velocity": 51,
                "duration": 0.03409090909090917,
                "tempo": 120.0
            },
            {
                "start_time": 3.65,
                "end_time": 3.686363636363636,
                "pitch": 60,
                "velocity": 51,
                "duration": 0.036363636363636154,
                "tempo": 120.0
            },
            {
                "start_time": 3.686363636363636,
                "end_time": 3.718181818181818,
                "pitch": 62,
                "velocity": 51,
                "duration": 0.031818181818181746,
                "tempo": 120.0
            },
            {
                "start_time": 0.6363636363636364,
                "end_time": 3.7886363636363636,
                "pitch": 19,
                "velocity": 51,
                "duration": 3.1522727272727273,
                "tempo": 120.0
            },
            {
                "start_time": 3.65,
                "end_time": 3.7886363636363636,
                "pitch": 64,
                "velocity": 51,
                "duration": 0.13863636363636367,
                "tempo": 120.0
            },
            {
                "start_time": 3.718181818181818,
                "end_time": 3.7886363636363636,
                "pitch": 64,
                "velocity": 51,
                "duration": 0.07045454545454577,
                "tempo": 120.0
            },
            {
                "start_time": 3.7886363636363636,
                "end_time": 3.8227272727272728,
                "pitch": 68,
                "velocity": 51,
                "duration": 0.03409090909090917,
                "tempo": 120.0
            },
            {
                "start_time": 3.8227272727272728,
                "end_time": 3.8545454545454545,
                "pitch": 70,
                "velocity": 51,
                "duration": 0.031818181818181746,
                "tempo": 120.0
            },
            {
                "start_time": 3.8545454545454545,
                "end_time": 3.8886363636363637,
                "pitch": 72,
                "velocity": 51,
                "duration": 0.03409090909090917,
                "tempo": 120.0
            },
            {
                "start_time": 3.8886363636363637,
                "end_time": 3.925,
                "pitch": 74,
                "velocity": 51,
                "duration": 0.036363636363636154,
                "tempo": 120.0
            },
            {
                "start_time": 3.8545454545454545,
                "end_time": 6.3590909090909085,
                "pitch": 76,
                "velocity": 51,
                "duration": 2.504545454545454,
                "tempo": 120.0
            },
            {
                "start_time": 3.925,
                "end_time": 6.3590909090909085,
                "pitch": 76,
                "velocity": 51,
                "duration": 2.4340909090909086,
                "tempo": 120.0
            },
            {
                "start_time": 6.3590909090909085,
                "end_time": 6.427272727272727,
                "pitch": 74,
                "velocity": 51,
                "duration": 0.06818181818181834,
                "tempo": 120.0
            },
            {
                "start_time": 6.427272727272727,
                "end_time": 6.463636363636363,
                "pitch": 72,
                "velocity": 51,
                "duration": 0.036363636363636154,
                "tempo": 120.0
            },
            {
                "start_time": 6.463636363636363,
                "end_time": 6.513636363636364,
                "pitch": 71,
                "velocity": 51,
                "duration": 0.05000000000000071,
                "tempo": 120.0
            },
            {
                "start_time": 6.513636363636364,
                "end_time": 6.618181818181818,
                "pitch": 69,
                "velocity": 51,
                "duration": 0.1045454545454545,
                "tempo": 120.0
            },
            {
                "start_time": 6.618181818181818,
                "end_time": 6.722727272727273,
                "pitch": 66,
                "velocity": 51,
                "duration": 0.1045454545454545,
                "tempo": 120.0
            },
            {
                "start_time": 6.722727272727273,
                "end_time": 6.786363636363636,
                "pitch": 63,
                "velocity": 51,
                "duration": 0.06363636363636349,
                "tempo": 120.0
            },
            {
                "start_time": 6.786363636363636,
                "end_time": 6.852272727272727,
                "pitch": 61,
                "velocity": 51,
                "duration": 0.06590909090909047,
                "tempo": 120.0
            },
            {
                "start_time": 6.852272727272727,
                "end_time": 6.915909090909091,
                "pitch": 59,
                "velocity": 51,
                "duration": 0.06363636363636438,
                "tempo": 120.0
            },
            {
                "start_time": 6.915909090909091,
                "end_time": 7.015909090909091,
                "pitch": 57,
                "velocity": 51,
                "duration": 0.09999999999999964,
                "tempo": 120.0
            },
            {
                "start_time": 7.015909090909091,
                "end_time": 7.113636363636363,
                "pitch": 54,
                "velocity": 51,
                "duration": 0.09772727272727266,
                "tempo": 120.0
            },
            {
                "start_time": 7.113636363636363,
                "end_time": 7.181818181818182,
                "pitch": 51,
                "velocity": 51,
                "duration": 0.06818181818181834,
                "tempo": 120.0
            },
            {
                "start_time": 7.181818181818182,
                "end_time": 7.2340909090909085,
                "pitch": 49,
                "velocity": 51,
                "duration": 0.052272727272726804,
                "tempo": 120.0
            },
            {
                "start_time": 7.2340909090909085,
                "end_time": 7.302272727272727,
                "pitch": 47,
                "velocity": 51,
                "duration": 0.06818181818181834,
                "tempo": 120.0
            },
            {
                "start_time": 7.302272727272727,
                "end_time": 7.404545454545454,
                "pitch": 45,
                "velocity": 51,
                "duration": 0.10227272727272751,
                "tempo": 120.0
            },
            {
                "start_time": 7.404545454545454,
                "end_time": 7.86590909090909,
                "pitch": 42,
                "velocity": 51,
                "duration": 0.461363636363636,
                "tempo": 120.0
            },
            {
                "start_time": 33.127272727272725,
                "end_time": 33.88636363636363,
                "pitch": 57,
                "velocity": 80,
                "duration": 0.7590909090909079,
                "tempo": 120.0
            },
            {
                "start_time": 33.92272727272727,
                "end_time": 34.15,
                "pitch": 61,
                "velocity": 80,
                "duration": 0.22727272727272663,
                "tempo": 120.0
            },
            {
                "start_time": 34.15,
                "end_time": 34.675,
                "pitch": 63,
                "velocity": 80,
                "duration": 0.5249999999999986,
                "tempo": 120.0
            },
            {
                "start_time": 34.711363636363636,
                "end_time": 35.470454545454544,
                "pitch": 63,
                "velocity": 80,
                "duration": 0.7590909090909079,
                "tempo": 120.0
            },
            {
                "start_time": 35.50681818181818,
                "end_time": 35.73409090909091,
                "pitch": 64,
                "velocity": 80,
                "duration": 0.22727272727272663,
                "tempo": 120.0
            },
            {
                "start_time": 35.768181818181816,
                "end_time": 35.98409090909091,
                "pitch": 62,
                "velocity": 80,
                "duration": 0.2159090909090935,
                "tempo": 120.0
            },
            {
                "start_time": 36.018181818181816,
                "end_time": 36.25909090909091,
                "pitch": 60,
                "velocity": 80,
                "duration": 0.24090909090909207,
                "tempo": 120.0
            },
            {
                "start_time": 36.29545454545455,
                "end_time": 37.04090909090909,
                "pitch": 59,
                "velocity": 80,
                "duration": 0.7454545454545425,
                "tempo": 120.0
            },
            {
                "start_time": 37.074999999999996,
                "end_time": 37.29545454545455,
                "pitch": 62,
                "velocity": 80,
                "duration": 0.220454545454551,
                "tempo": 120.0
            },
            {
                "start_time": 37.29545454545455,
                "end_time": 37.82727272727273,
                "pitch": 65,
                "velocity": 80,
                "duration": 0.5318181818181813,
                "tempo": 120.0
            },
            {
                "start_time": 37.861363636363635,
                "end_time": 38.62272727272727,
                "pitch": 65,
                "velocity": 80,
                "duration": 0.7613636363636331,
                "tempo": 120.0
            },
            {
                "start_time": 38.65681818181818,
                "end_time": 38.877272727272725,
                "pitch": 64,
                "velocity": 80,
                "duration": 0.2204545454545439,
                "tempo": 120.0
            },
            {
                "start_time": 38.913636363636364,
                "end_time": 39.14772727272727,
                "pitch": 62,
                "velocity": 80,
                "duration": 0.23409090909090935,
                "tempo": 120.0
            },
            {
                "start_time": 39.179545454545455,
                "end_time": 39.40909090909091,
                "pitch": 60,
                "velocity": 80,
                "duration": 0.22954545454545183,
                "tempo": 120.0
            },
            {
                "start_time": 39.44318181818181,
                "end_time": 40.20454545454545,
                "pitch": 57,
                "velocity": 80,
                "duration": 0.7613636363636402,
                "tempo": 120.0
            },
            {
                "start_time": 40.22272727272727,
                "end_time": 40.97272727272727,
                "pitch": 52,
                "velocity": 80,
                "duration": 0.75,
                "tempo": 120.0
            },
            {
                "start_time": 41.00909090909091,
                "end_time": 41.768181818181816,
                "pitch": 53,
                "velocity": 80,
                "duration": 0.7590909090909079,
                "tempo": 120.0
            },
            {
                "start_time": 7.404545454545454,
                "end_time": 42.03181818181818,
                "pitch": 54,
                "velocity": 51,
                "duration": 34.627272727272725,
                "tempo": 120.0
            },
            {
                "start_time": 41.804545454545455,
                "end_time": 42.03181818181818,
                "pitch": 54,
                "velocity": 80,
                "duration": 0.22727272727272663,
                "tempo": 120.0
            },
            {
                "start_time": 42.06590909090909,
                "end_time": 42.29772727272727,
                "pitch": 55,
                "velocity": 80,
                "duration": 0.23181818181818414,
                "tempo": 120.0
            },
            {
                "start_time": 42.334090909090904,
                "end_time": 42.554545454545455,
                "pitch": 57,
                "velocity": 80,
                "duration": 0.220454545454551,
                "tempo": 120.0
            },
            {
                "start_time": 42.59318181818182,
                "end_time": 43.74545454545454,
                "pitch": 58,
                "velocity": 80,
                "duration": 1.1522727272727238,
                "tempo": 120.0
            },
            {
                "start_time": 43.77954545454545,
                "end_time": 44.13863636363636,
                "pitch": 57,
                "velocity": 80,
                "duration": 0.35909090909090935,
                "tempo": 120.0
            },
            {
                "start_time": 6.463636363636363,
                "end_time": 44.78181818181818,
                "pitch": 56,
                "velocity": 51,
                "duration": 38.31818181818182,
                "tempo": 120.0
            },
            {
                "start_time": 44.17272727272727,
                "end_time": 44.78181818181818,
                "pitch": 56,
                "velocity": 80,
                "duration": 0.6090909090909093,
                "tempo": 120.0
            },
            {
                "start_time": 44.81818181818181,
                "end_time": 44.91590909090909,
                "pitch": 57,
                "velocity": 80,
                "duration": 0.09772727272727622,
                "tempo": 120.0
            },
            {
                "start_time": 44.95227272727273,
                "end_time": 45.19090909090909,
                "pitch": 59,
                "velocity": 80,
                "duration": 0.23863636363635976,
                "tempo": 120.0
            },
            {
                "start_time": 45.211363636363636,
                "end_time": 45.445454545454545,
                "pitch": 60,
                "velocity": 80,
                "duration": 0.23409090909090935,
                "tempo": 120.0
            },
            {
                "start_time": 45.47954545454545,
                "end_time": 45.70681818181818,
                "pitch": 62,
                "velocity": 80,
                "duration": 0.22727272727272663,
                "tempo": 120.0
            },
            {
                "start_time": 45.74318181818182,
                "end_time": 46.502272727272725,
                "pitch": 57,
                "velocity": 80,
                "duration": 0.7590909090909079,
                "tempo": 120.0
            },
            {
                "start_time": 46.53636363636363,
                "end_time": 46.77045454545454,
                "pitch": 61,
                "velocity": 80,
                "duration": 0.23409090909090935,
                "tempo": 120.0
            },
            {
                "start_time": 46.77045454545454,
                "end_time": 47.29090909090909,
                "pitch": 63,
                "velocity": 80,
                "duration": 0.5204545454545482,
                "tempo": 120.0
            },
            {
                "start_time": 47.32727272727273,
                "end_time": 48.07727272727273,
                "pitch": 63,
                "velocity": 80,
                "duration": 0.75,
                "tempo": 120.0
            },
            {
                "start_time": 48.095454545454544,
                "end_time": 48.32954545454545,
                "pitch": 64,
                "velocity": 80,
                "duration": 0.23409090909090935,
                "tempo": 120.0
            },
            {
                "start_time": 48.36363636363636,
                "end_time": 48.599999999999994,
                "pitch": 62,
                "velocity": 80,
                "duration": 0.23636363636363455,
                "tempo": 120.0
            },
            {
                "start_time": 48.63409090909091,
                "end_time": 48.85681818181818,
                "pitch": 60,
                "velocity": 80,
                "duration": 0.2227272727272691,
                "tempo": 120.0
            },
            {
                "start_time": 48.89090909090909,
                "end_time": 49.64545454545454,
                "pitch": 59,
                "velocity": 80,
                "duration": 0.7545454545454504,
                "tempo": 120.0
            },
            {
                "start_time": 49.679545454545455,
                "end_time": 49.89545454545454,
                "pitch": 62,
                "velocity": 80,
                "duration": 0.2159090909090864,
                "tempo": 120.0
            },
            {
                "start_time": 49.89545454545454,
                "end_time": 50.44090909090909,
                "pitch": 65,
                "velocity": 80,
                "duration": 0.5454545454545467,
                "tempo": 120.0
            },
            {
                "start_time": 50.47727272727273,
                "end_time": 51.22727272727273,
                "pitch": 65,
                "velocity": 80,
                "duration": 0.75,
                "tempo": 120.0
            },
            {
                "start_time": 51.26136363636363,
                "end_time": 51.49545454545454,
                "pitch": 64,
                "velocity": 80,
                "duration": 0.23409090909090935,
                "tempo": 120.0
            },
            {
                "start_time": 51.53181818181818,
                "end_time": 51.74772727272727,
                "pitch": 62,
                "velocity": 80,
                "duration": 0.2159090909090864,
                "tempo": 120.0
            },
            {
                "start_time": 51.78181818181818,
                "end_time": 52.01590909090909,
                "pitch": 60,
                "velocity": 80,
                "duration": 0.23409090909090935,
                "tempo": 120.0
            },
            {
                "start_time": 52.05227272727272,
                "end_time": 52.804545454545455,
                "pitch": 57,
                "velocity": 80,
                "duration": 0.7522727272727323,
                "tempo": 120.0
            },
            {
                "start_time": 52.83863636363636,
                "end_time": 53.59318181818182,
                "pitch": 52,
                "velocity": 80,
                "duration": 0.7545454545454575,
                "tempo": 120.0
            },
            {
                "start_time": 53.62954545454545,
                "end_time": 54.38181818181818,
                "pitch": 53,
                "velocity": 80,
                "duration": 0.7522727272727323,
                "tempo": 120.0
            },
            {
                "start_time": 54.413636363636364,
                "end_time": 54.63636363636363,
                "pitch": 54,
                "velocity": 80,
                "duration": 0.2227272727272691,
                "tempo": 120.0
            },
            {
                "start_time": 54.67272727272727,
                "end_time": 54.90681818181818,
                "pitch": 55,
                "velocity": 80,
                "duration": 0.23409090909090935,
                "tempo": 120.0
            },
            {
                "start_time": 54.94090909090909,
                "end_time": 55.17045454545454,
                "pitch": 57,
                "velocity": 80,
                "duration": 0.22954545454545183,
                "tempo": 120.0
            },
            {
                "start_time": 55.20454545454545,
                "end_time": 57.53181818181818,
                "pitch": 52,
                "velocity": 80,
                "duration": 2.327272727272728,
                "tempo": 120.0
            },
            {
                "start_time": 58.35909090909091,
                "end_time": 58.48863636363636,
                "pitch": 64,
                "velocity": 64,
                "duration": 0.1295454545454504,
                "tempo": 120.0
            }
        ],
        "Vibraphone": [
            {
                "start_time": 7.904545454545454,
                "end_time": 7.986363636363636,
                "pitch": 64,
                "velocity": 64,
                "duration": 0.08181818181818201,
                "tempo": 120.0
            },
            {
                "start_time": 8.022727272727272,
                "end_time": 8.127272727272727,
                "pitch": 59,
                "velocity": 64,
                "duration": 0.10454545454545539,
                "tempo": 120.0
            },
            {
                "start_time": 8.163636363636364,
                "end_time": 8.268181818181818,
                "pitch": 62,
                "velocity": 64,
                "duration": 0.10454545454545361,
                "tempo": 120.0
            },
            {
                "start_time": 8.304545454545455,
                "end_time": 8.402272727272727,
                "pitch": 57,
                "velocity": 51,
                "duration": 0.09772727272727266,
                "tempo": 120.0
            },
            {
                "start_time": 8.434090909090909,
                "end_time": 8.531818181818181,
                "pitch": 62,
                "velocity": 51,
                "duration": 0.09772727272727266,
                "tempo": 120.0
            },
            {
                "start_time": 8.565909090909091,
                "end_time": 8.645454545454545,
                "pitch": 59,
                "velocity": 51,
                "duration": 0.07954545454545325,
                "tempo": 120.0
            },
            {
                "start_time": 8.679545454545455,
                "end_time": 8.777272727272727,
                "pitch": 64,
                "velocity": 40,
                "duration": 0.09772727272727266,
                "tempo": 120.0
            },
            {
                "start_time": 8.809090909090909,
                "end_time": 8.909090909090908,
                "pitch": 59,
                "velocity": 40,
                "duration": 0.09999999999999964,
                "tempo": 120.0
            },
            {
                "start_time": 8.940909090909091,
                "end_time": 9.038636363636364,
                "pitch": 62,
                "velocity": 40,
                "duration": 0.09772727272727266,
                "tempo": 120.0
            },
            {
                "start_time": 9.072727272727272,
                "end_time": 9.177272727272728,
                "pitch": 57,
                "velocity": 32,
                "duration": 0.10454545454545539,
                "tempo": 120.0
            },
            {
                "start_time": 9.211363636363636,
                "end_time": 9.318181818181818,
                "pitch": 62,
                "velocity": 32,
                "duration": 0.10681818181818237,
                "tempo": 120.0
            },
            {
                "start_time": 9.352272727272727,
                "end_time": 9.44090909090909,
                "pitch": 59,
                "velocity": 32,
                "duration": 0.08863636363636296,
                "tempo": 120.0
            },
            {
                "start_time": 9.477272727272727,
                "end_time": 9.575,
                "pitch": 64,
                "velocity": 51,
                "duration": 0.09772727272727266,
                "tempo": 120.0
            },
            {
                "start_time": 9.60681818181818,
                "end_time": 9.704545454545453,
                "pitch": 69,
                "velocity": 51,
                "duration": 0.09772727272727266,
                "tempo": 120.0
            },
            {
                "start_time": 9.738636363636363,
                "end_time": 9.836363636363636,
                "pitch": 74,
                "velocity": 51,
                "duration": 0.09772727272727266,
                "tempo": 120.0
            },
            {
                "start_time": 9.868181818181817,
                "end_time": 9.970454545454546,
                "pitch": 67,
                "velocity": 51,
                "duration": 0.1022727272727284,
                "tempo": 120.0
            },
            {
                "start_time": 10.006818181818181,
                "end_time": 10.093181818181817,
                "pitch": 72,
                "velocity": 51,
                "duration": 0.08636363636363598,
                "tempo": 120.0
            },
            {
                "start_time": 10.127272727272727,
                "end_time": 10.229545454545454,
                "pitch": 77,
                "velocity": 51,
                "duration": 0.10227272727272663,
                "tempo": 120.0
            },
            {
                "start_time": 10.26590909090909,
                "end_time": 10.361363636363636,
                "pitch": 69,
                "velocity": 51,
                "duration": 0.09545454545454568,
                "tempo": 120.0
            },
            {
                "start_time": 10.395454545454545,
                "end_time": 10.493181818181817,
                "pitch": 74,
                "velocity": 51,
                "duration": 0.09772727272727266,
                "tempo": 120.0
            },
            {
                "start_time": 10.527272727272727,
                "end_time": 10.625,
                "pitch": 79,
                "velocity": 51,
                "duration": 0.09772727272727266,
                "tempo": 120.0
            },
            {
                "start_time": 10.656818181818181,
                "end_time": 10.759090909090908,
                "pitch": 78,
                "velocity": 51,
                "duration": 0.10227272727272663,
                "tempo": 120.0
            },
            {
                "start_time": 10.777272727272727,
                "end_time": 10.881818181818181,
                "pitch": 76,
                "velocity": 51,
                "duration": 0.10454545454545361,
                "tempo": 120.0
            },
            {
                "start_time": 10.915909090909091,
                "end_time": 11.018181818181818,
                "pitch": 69,
                "velocity": 51,
                "duration": 0.10227272727272663,
                "tempo": 120.0
            },
            {
                "start_time": 11.054545454545455,
                "end_time": 11.154545454545454,
                "pitch": 64,
                "velocity": 64,
                "duration": 0.09999999999999964,
                "tempo": 120.0
            },
            {
                "start_time": 11.188636363636363,
                "end_time": 11.288636363636362,
                "pitch": 59,
                "velocity": 64,
                "duration": 0.09999999999999964,
                "tempo": 120.0
            },
            {
                "start_time": 11.322727272727272,
                "end_time": 11.422727272727272,
                "pitch": 62,
                "velocity": 64,
                "duration": 0.09999999999999964,
                "tempo": 120.0
            },
            {
                "start_time": 11.456818181818182,
                "end_time": 11.540909090909091,
                "pitch": 57,
                "velocity": 51,
                "duration": 0.084090909090909,
                "tempo": 120.0
            },
            {
                "start_time": 11.577272727272726,
                "end_time": 11.677272727272726,
                "pitch": 62,
                "velocity": 51,
                "duration": 0.09999999999999964,
                "tempo": 120.0
            },
            {
                "start_time": 11.713636363636363,
                "end_time": 11.81590909090909,
                "pitch": 59,
                "velocity": 51,
                "duration": 0.10227272727272663,
                "tempo": 120.0
            },
            {
                "start_time": 11.85,
                "end_time": 11.947727272727272,
                "pitch": 64,
                "velocity": 40,
                "duration": 0.09772727272727266,
                "tempo": 120.0
            },
            {
                "start_time": 11.979545454545454,
                "end_time": 12.079545454545453,
                "pitch": 59,
                "velocity": 40,
                "duration": 0.09999999999999964,
                "tempo": 120.0
            },
            {
                "start_time": 12.111363636363636,
                "end_time": 12.209090909090909,
                "pitch": 62,
                "velocity": 40,
                "duration": 0.09772727272727266,
                "tempo": 120.0
            },
            {
                "start_time": 12.225,
                "end_time": 12.322727272727272,
                "pitch": 57,
                "velocity": 32,
                "duration": 0.09772727272727266,
                "tempo": 120.0
            },
            {
                "start_time": 12.35681818181818,
                "end_time": 12.454545454545453,
                "pitch": 62,
                "velocity": 32,
                "duration": 0.09772727272727266,
                "tempo": 120.0
            },
            {
                "start_time": 12.488636363636363,
                "end_time": 12.586363636363636,
                "pitch": 59,
                "velocity": 32,
                "duration": 0.09772727272727266,
                "tempo": 120.0
            },
            {
                "start_time": 12.620454545454544,
                "end_time": 12.722727272727273,
                "pitch": 64,
                "velocity": 51,
                "duration": 0.1022727272727284,
                "tempo": 120.0
            },
            {
                "start_time": 12.759090909090908,
                "end_time": 12.863636363636363,
                "pitch": 69,
                "velocity": 51,
                "duration": 0.10454545454545539,
                "tempo": 120.0
            },
            {
                "start_time": 12.899999999999999,
                "end_time": 12.986363636363636,
                "pitch": 74,
                "velocity": 51,
                "duration": 0.08636363636363775,
                "tempo": 120.0
            },
            {
                "start_time": 13.022727272727272,
                "end_time": 13.120454545454544,
                "pitch": 67,
                "velocity": 51,
                "duration": 0.09772727272727266,
                "tempo": 120.0
            },
            {
                "start_time": 13.154545454545454,
                "end_time": 13.252272727272727,
                "pitch": 72,
                "velocity": 51,
                "duration": 0.09772727272727266,
                "tempo": 120.0
            },
            {
                "start_time": 13.286363636363635,
                "end_time": 13.381818181818181,
                "pitch": 77,
                "velocity": 51,
                "duration": 0.09545454545454568,
                "tempo": 120.0
            },
            {
                "start_time": 13.415909090909091,
                "end_time": 13.518181818181818,
                "pitch": 69,
                "velocity": 51,
                "duration": 0.10227272727272663,
                "tempo": 120.0
            },
            {
                "start_time": 13.552272727272726,
                "end_time": 13.656818181818181,
                "pitch": 74,
                "velocity": 51,
                "duration": 0.10454545454545539,
                "tempo": 120.0
            },
            {
                "start_time": 13.672727272727272,
                "end_time": 13.777272727272727,
                "pitch": 79,
                "velocity": 51,
                "duration": 0.10454545454545539,
                "tempo": 120.0
            },
            {
                "start_time": 13.811363636363636,
                "end_time": 13.909090909090908,
                "pitch": 78,
                "velocity": 51,
                "duration": 0.09772727272727266,
                "tempo": 120.0
            },
            {
                "start_time": 13.94090909090909,
                "end_time": 14.038636363636362,
                "pitch": 76,
                "velocity": 51,
                "duration": 0.09772727272727266,
                "tempo": 120.0
            },
            {
                "start_time": 14.072727272727272,
                "end_time": 14.170454545454545,
                "pitch": 69,
                "velocity": 51,
                "duration": 0.09772727272727266,
                "tempo": 120.0
            },
            {
                "start_time": 14.206818181818182,
                "end_time": 14.306818181818182,
                "pitch": 64,
                "velocity": 64,
                "duration": 0.09999999999999964,
                "tempo": 120.0
            },
            {
                "start_time": 14.343181818181817,
                "end_time": 14.427272727272726,
                "pitch": 59,
                "velocity": 64,
                "duration": 0.084090909090909,
                "tempo": 120.0
            },
            {
                "start_time": 14.463636363636363,
                "end_time": 14.56590909090909,
                "pitch": 62,
                "velocity": 64,
                "duration": 0.10227272727272663,
                "tempo": 120.0
            },
            {
                "start_time": 14.6,
                "end_time": 14.7,
                "pitch": 57,
                "velocity": 51,
                "duration": 0.09999999999999964,
                "tempo": 120.0
            },
            {
                "start_time": 14.734090909090908,
                "end_time": 14.834090909090909,
                "pitch": 62,
                "velocity": 51,
                "duration": 0.10000000000000142,
                "tempo": 120.0
            },
            {
                "start_time": 14.868181818181817,
                "end_time": 14.968181818181817,
                "pitch": 59,
                "velocity": 51,
                "duration": 0.09999999999999964,
                "tempo": 120.0
            },
            {
                "start_time": 15.002272727272727,
                "end_time": 15.088636363636363,
                "pitch": 64,
                "velocity": 40,
                "duration": 0.08636363636363598,
                "tempo": 120.0
            },
            {
                "start_time": 15.122727272727271,
                "end_time": 15.227272727272727,
                "pitch": 59,
                "velocity": 40,
                "duration": 0.10454545454545539,
                "tempo": 120.0
            },
            {
                "start_time": 15.261363636363635,
                "end_time": 15.363636363636363,
                "pitch": 62,
                "velocity": 40,
                "duration": 0.1022727272727284,
                "tempo": 120.0
            },
            {
                "start_time": 15.397727272727272,
                "end_time": 15.497727272727271,
                "pitch": 57,
                "velocity": 32,
                "duration": 0.09999999999999964,
                "tempo": 120.0
            },
            {
                "start_time": 15.529545454545454,
                "end_time": 15.627272727272727,
                "pitch": 62,
                "velocity": 32,
                "duration": 0.09772727272727266,
                "tempo": 120.0
            },
            {
                "start_time": 15.661363636363635,
                "end_time": 15.759090909090908,
                "pitch": 59,
                "velocity": 32,
                "duration": 0.09772727272727266,
                "tempo": 120.0
            },
            {
                "start_time": 15.793181818181818,
                "end_time": 15.877272727272727,
                "pitch": 64,
                "velocity": 64,
                "duration": 0.084090909090909,
                "tempo": 120.0
            },
            {
                "start_time": 15.913636363636362,
                "end_time": 16.01590909090909,
                "pitch": 59,
                "velocity": 64,
                "duration": 0.1022727272727284,
                "tempo": 120.0
            },
            {
                "start_time": 16.05,
                "end_time": 16.152272727272727,
                "pitch": 62,
                "velocity": 64,
                "duration": 0.10227272727272663,
                "tempo": 120.0
            },
            {
                "start_time": 16.188636363636363,
                "end_time": 16.288636363636364,
                "pitch": 57,
                "velocity": 51,
                "duration": 0.10000000000000142,
                "tempo": 120.0
            },
            {
                "start_time": 16.32272727272727,
                "end_time": 16.422727272727272,
                "pitch": 62,
                "velocity": 51,
                "duration": 0.10000000000000142,
                "tempo": 120.0
            },
            {
                "start_time": 16.456818181818182,
                "end_time": 16.54090909090909,
                "pitch": 59,
                "velocity": 51,
                "duration": 0.08409090909090722,
                "tempo": 120.0
            },
            {
                "start_time": 16.575,
                "end_time": 16.672727272727272,
                "pitch": 64,
                "velocity": 40,
                "duration": 0.09772727272727266,
                "tempo": 120.0
            },
            {
                "start_time": 16.704545454545453,
                "end_time": 16.802272727272726,
                "pitch": 59,
                "velocity": 40,
                "duration": 0.09772727272727266,
                "tempo": 120.0
            },
            {
                "start_time": 16.836363636363636,
                "end_time": 16.93409090909091,
                "pitch": 62,
                "velocity": 40,
                "duration": 0.09772727272727266,
                "tempo": 120.0
            },
            {
                "start_time": 16.96590909090909,
                "end_time": 17.068181818181817,
                "pitch": 57,
                "velocity": 32,
                "duration": 0.10227272727272663,
                "tempo": 120.0
            },
            {
                "start_time": 17.102272727272727,
                "end_time": 17.204545454545453,
                "pitch": 62,
                "velocity": 32,
                "duration": 0.10227272727272663,
                "tempo": 120.0
            },
            {
                "start_time": 17.24090909090909,
                "end_time": 17.325,
                "pitch": 59,
                "velocity": 32,
                "duration": 0.08409090909091077,
                "tempo": 120.0
            },
            {
                "start_time": 17.361363636363635,
                "end_time": 17.461363636363636,
                "pitch": 64,
                "velocity": 64,
                "duration": 0.10000000000000142,
                "tempo": 120.0
            },
            {
                "start_time": 17.495454545454546,
                "end_time": 17.595454545454544,
                "pitch": 59,
                "velocity": 64,
                "duration": 0.09999999999999787,
                "tempo": 120.0
            },
            {
                "start_time": 17.629545454545454,
                "end_time": 17.729545454545455,
                "pitch": 62,
                "velocity": 64,
                "duration": 0.10000000000000142,
                "tempo": 120.0
            },
            {
                "start_time": 17.763636363636362,
                "end_time": 17.86590909090909,
                "pitch": 57,
                "velocity": 51,
                "duration": 0.10227272727272663,
                "tempo": 120.0
            },
            {
                "start_time": 17.9,
                "end_time": 17.98409090909091,
                "pitch": 62,
                "velocity": 51,
                "duration": 0.08409090909091077,
                "tempo": 120.0
            },
            {
                "start_time": 18.020454545454545,
                "end_time": 18.12272727272727,
                "pitch": 59,
                "velocity": 51,
                "duration": 0.10227272727272663,
                "tempo": 120.0
            },
            {
                "start_time": 18.15681818181818,
                "end_time": 18.254545454545454,
                "pitch": 64,
                "velocity": 40,
                "duration": 0.09772727272727266,
                "tempo": 120.0
            },
            {
                "start_time": 18.286363636363635,
                "end_time": 18.384090909090908,
                "pitch": 59,
                "velocity": 40,
                "duration": 0.09772727272727266,
                "tempo": 120.0
            },
            {
                "start_time": 18.418181818181818,
                "end_time": 18.51590909090909,
                "pitch": 62,
                "velocity": 40,
                "duration": 0.09772727272727266,
                "tempo": 120.0
            },
            {
                "start_time": 18.547727272727272,
                "end_time": 18.65,
                "pitch": 57,
                "velocity": 32,
                "duration": 0.10227272727272663,
                "tempo": 120.0
            },
            {
                "start_time": 18.686363636363634,
                "end_time": 18.770454545454545,
                "pitch": 62,
                "velocity": 32,
                "duration": 0.08409090909091077,
                "tempo": 120.0
            },
            {
                "start_time": 18.804545454545455,
                "end_time": 18.90681818181818,
                "pitch": 59,
                "velocity": 32,
                "duration": 0.10227272727272663,
                "tempo": 120.0
            },
            {
                "start_time": 18.943181818181817,
                "end_time": 19.04090909090909,
                "pitch": 64,
                "velocity": 51,
                "duration": 0.09772727272727266,
                "tempo": 120.0
            },
            {
                "start_time": 19.07272727272727,
                "end_time": 19.170454545454543,
                "pitch": 69,
                "velocity": 51,
                "duration": 0.09772727272727266,
                "tempo": 120.0
            },
            {
                "start_time": 19.204545454545453,
                "end_time": 19.302272727272726,
                "pitch": 74,
                "velocity": 51,
                "duration": 0.09772727272727266,
                "tempo": 120.0
            },
            {
                "start_time": 19.334090909090907,
                "end_time": 19.422727272727272,
                "pitch": 67,
                "velocity": 51,
                "duration": 0.08863636363636473,
                "tempo": 120.0
            },
            {
                "start_time": 19.456818181818182,
                "end_time": 19.561363636363634,
                "pitch": 72,
                "velocity": 51,
                "duration": 0.10454545454545183,
                "tempo": 120.0
            },
            {
                "start_time": 19.597727272727273,
                "end_time": 19.702272727272728,
                "pitch": 77,
                "velocity": 51,
                "duration": 0.10454545454545539,
                "tempo": 120.0
            },
            {
                "start_time": 19.738636363636363,
                "end_time": 19.836363636363636,
                "pitch": 69,
                "velocity": 51,
                "duration": 0.09772727272727266,
                "tempo": 120.0
            },
            {
                "start_time": 19.870454545454546,
                "end_time": 19.96818181818182,
                "pitch": 74,
                "velocity": 51,
                "duration": 0.09772727272727266,
                "tempo": 120.0
            },
            {
                "start_time": 20.002272727272725,
                "end_time": 20.097727272727273,
                "pitch": 79,
                "velocity": 51,
                "duration": 0.09545454545454746,
                "tempo": 120.0
            },
            {
                "start_time": 20.113636363636363,
                "end_time": 20.21590909090909,
                "pitch": 78,
                "velocity": 51,
                "duration": 0.10227272727272663,
                "tempo": 120.0
            },
            {
                "start_time": 20.252272727272725,
                "end_time": 20.354545454545452,
                "pitch": 76,
                "velocity": 51,
                "duration": 0.10227272727272663,
                "tempo": 120.0
            },
            {
                "start_time": 20.388636363636362,
                "end_time": 20.493181818181817,
                "pitch": 69,
                "velocity": 51,
                "duration": 0.10454545454545539,
                "tempo": 120.0
            },
            {
                "start_time": 20.529545454545453,
                "end_time": 20.627272727272725,
                "pitch": 64,
                "velocity": 64,
                "duration": 0.09772727272727266,
                "tempo": 120.0
            },
            {
                "start_time": 20.663636363636364,
                "end_time": 20.761363636363637,
                "pitch": 59,
                "velocity": 64,
                "duration": 0.09772727272727266,
                "tempo": 120.0
            },
            {
                "start_time": 20.795454545454543,
                "end_time": 20.879545454545454,
                "pitch": 62,
                "velocity": 64,
                "duration": 0.08409090909091077,
                "tempo": 120.0
            },
            {
                "start_time": 20.913636363636364,
                "end_time": 21.011363636363637,
                "pitch": 57,
                "velocity": 51,
                "duration": 0.09772727272727266,
                "tempo": 120.0
            },
            {
                "start_time": 21.045454545454543,
                "end_time": 21.143181818181816,
                "pitch": 62,
                "velocity": 51,
                "duration": 0.09772727272727266,
                "tempo": 120.0
            },
            {
                "start_time": 21.175,
                "end_time": 21.272727272727273,
                "pitch": 59,
                "velocity": 51,
                "duration": 0.09772727272727266,
                "tempo": 120.0
            },
            {
                "start_time": 21.30681818181818,
                "end_time": 21.409090909090907,
                "pitch": 64,
                "velocity": 40,
                "duration": 0.10227272727272663,
                "tempo": 120.0
            },
            {
                "start_time": 21.443181818181817,
                "end_time": 21.545454545454543,
                "pitch": 59,
                "velocity": 40,
                "duration": 0.10227272727272663,
                "tempo": 120.0
            },
            {
                "start_time": 21.563636363636363,
                "end_time": 21.66590909090909,
                "pitch": 62,
                "velocity": 40,
                "duration": 0.10227272727272663,
                "tempo": 120.0
            },
            {
                "start_time": 21.7,
                "end_time": 21.797727272727272,
                "pitch": 57,
                "velocity": 32,
                "duration": 0.09772727272727266,
                "tempo": 120.0
            },
            {
                "start_time": 21.829545454545453,
                "end_time": 21.927272727272726,
                "pitch": 62,
                "velocity": 32,
                "duration": 0.09772727272727266,
                "tempo": 120.0
            },
            {
                "start_time": 21.961363636363636,
                "end_time": 22.05909090909091,
                "pitch": 59,
                "velocity": 32,
                "duration": 0.09772727272727266,
                "tempo": 120.0
            },
            {
                "start_time": 22.09318181818182,
                "end_time": 22.195454545454545,
                "pitch": 64,
                "velocity": 51,
                "duration": 0.10227272727272663,
                "tempo": 120.0
            },
            {
                "start_time": 22.229545454545452,
                "end_time": 22.313636363636363,
                "pitch": 69,
                "velocity": 51,
                "duration": 0.08409090909091077,
                "tempo": 120.0
            },
            {
                "start_time": 22.349999999999998,
                "end_time": 22.452272727272724,
                "pitch": 74,
                "velocity": 51,
                "duration": 0.10227272727272663,
                "tempo": 120.0
            },
            {
                "start_time": 22.486363636363635,
                "end_time": 22.584090909090907,
                "pitch": 67,
                "velocity": 51,
                "duration": 0.09772727272727266,
                "tempo": 120.0
            },
            {
                "start_time": 22.61590909090909,
                "end_time": 22.71363636363636,
                "pitch": 72,
                "velocity": 51,
                "duration": 0.09772727272727266,
                "tempo": 120.0
            },
            {
                "start_time": 22.74772727272727,
                "end_time": 22.845454545454544,
                "pitch": 77,
                "velocity": 51,
                "duration": 0.09772727272727266,
                "tempo": 120.0
            },
            {
                "start_time": 22.879545454545454,
                "end_time": 22.98181818181818,
                "pitch": 69,
                "velocity": 51,
                "duration": 0.10227272727272663,
                "tempo": 120.0
            },
            {
                "start_time": 23.0,
                "end_time": 23.102272727272727,
                "pitch": 74,
                "velocity": 51,
                "duration": 0.10227272727272663,
                "tempo": 120.0
            },
            {
                "start_time": 23.136363636363637,
                "end_time": 23.238636363636363,
                "pitch": 79,
                "velocity": 51,
                "duration": 0.10227272727272663,
                "tempo": 120.0
            },
            {
                "start_time": 23.275,
                "end_time": 23.375,
                "pitch": 78,
                "velocity": 51,
                "duration": 0.10000000000000142,
                "tempo": 120.0
            },
            {
                "start_time": 23.409090909090907,
                "end_time": 23.509090909090908,
                "pitch": 76,
                "velocity": 51,
                "duration": 0.10000000000000142,
                "tempo": 120.0
            },
            {
                "start_time": 23.543181818181818,
                "end_time": 23.643181818181816,
                "pitch": 69,
                "velocity": 51,
                "duration": 0.09999999999999787,
                "tempo": 120.0
            },
            {
                "start_time": 23.679545454545455,
                "end_time": 23.763636363636362,
                "pitch": 64,
                "velocity": 64,
                "duration": 0.08409090909090722,
                "tempo": 120.0
            },
            {
                "start_time": 23.797727272727272,
                "end_time": 23.9,
                "pitch": 59,
                "velocity": 64,
                "duration": 0.10227272727272663,
                "tempo": 120.0
            },
            {
                "start_time": 23.93409090909091,
                "end_time": 24.036363636363635,
                "pitch": 62,
                "velocity": 64,
                "duration": 0.10227272727272663,
                "tempo": 120.0
            },
            {
                "start_time": 24.070454545454545,
                "end_time": 24.168181818181818,
                "pitch": 57,
                "velocity": 51,
                "duration": 0.09772727272727266,
                "tempo": 120.0
            },
            {
                "start_time": 24.202272727272724,
                "end_time": 24.299999999999997,
                "pitch": 62,
                "velocity": 51,
                "duration": 0.09772727272727266,
                "tempo": 120.0
            },
            {
                "start_time": 24.331818181818182,
                "end_time": 24.413636363636364,
                "pitch": 59,
                "velocity": 51,
                "duration": 0.08181818181818201,
                "tempo": 120.0
            },
            {
                "start_time": 24.44772727272727,
                "end_time": 24.547727272727272,
                "pitch": 64,
                "velocity": 40,
                "duration": 0.10000000000000142,
                "tempo": 120.0
            },
            {
                "start_time": 24.581818181818182,
                "end_time": 24.68181818181818,
                "pitch": 59,
                "velocity": 40,
                "duration": 0.09999999999999787,
                "tempo": 120.0
            },
            {
                "start_time": 24.71590909090909,
                "end_time": 24.81590909090909,
                "pitch": 62,
                "velocity": 40,
                "duration": 0.10000000000000142,
                "tempo": 120.0
            },
            {
                "start_time": 24.849999999999998,
                "end_time": 24.952272727272724,
                "pitch": 57,
                "velocity": 32,
                "duration": 0.10227272727272663,
                "tempo": 120.0
            },
            {
                "start_time": 24.986363636363635,
                "end_time": 25.09090909090909,
                "pitch": 62,
                "velocity": 32,
                "duration": 0.10454545454545539,
                "tempo": 120.0
            },
            {
                "start_time": 25.125,
                "end_time": 25.211363636363636,
                "pitch": 59,
                "velocity": 32,
                "duration": 0.08636363636363598,
                "tempo": 120.0
            },
            {
                "start_time": 25.24772727272727,
                "end_time": 25.34318181818182,
                "pitch": 64,
                "velocity": 51,
                "duration": 0.09545454545454746,
                "tempo": 120.0
            },
            {
                "start_time": 25.377272727272725,
                "end_time": 25.474999999999998,
                "pitch": 69,
                "velocity": 51,
                "duration": 0.09772727272727266,
                "tempo": 120.0
            },
            {
                "start_time": 25.509090909090908,
                "end_time": 25.604545454545452,
                "pitch": 74,
                "velocity": 51,
                "duration": 0.0954545454545439,
                "tempo": 120.0
            },
            {
                "start_time": 25.638636363636362,
                "end_time": 25.74090909090909,
                "pitch": 67,
                "velocity": 51,
                "duration": 0.10227272727272663,
                "tempo": 120.0
            },
            {
                "start_time": 25.775,
                "end_time": 25.861363636363635,
                "pitch": 72,
                "velocity": 51,
                "duration": 0.08636363636363598,
                "tempo": 120.0
            },
            {
                "start_time": 25.895454545454545,
                "end_time": 25.99772727272727,
                "pitch": 77,
                "velocity": 51,
                "duration": 0.10227272727272663,
                "tempo": 120.0
            },
            {
                "start_time": 26.03181818181818,
                "end_time": 26.13181818181818,
                "pitch": 69,
                "velocity": 51,
                "duration": 0.09999999999999787,
                "tempo": 120.0
            },
            {
                "start_time": 26.16590909090909,
                "end_time": 26.26590909090909,
                "pitch": 74,
                "velocity": 51,
                "duration": 0.10000000000000142,
                "tempo": 120.0
            },
            {
                "start_time": 26.299999999999997,
                "end_time": 26.4,
                "pitch": 79,
                "velocity": 51,
                "duration": 0.10000000000000142,
                "tempo": 120.0
            },
            {
                "start_time": 26.43409090909091,
                "end_time": 26.534090909090907,
                "pitch": 78,
                "velocity": 51,
                "duration": 0.09999999999999787,
                "tempo": 120.0
            },
            {
                "start_time": 26.568181818181817,
                "end_time": 26.652272727272727,
                "pitch": 76,
                "velocity": 51,
                "duration": 0.08409090909091077,
                "tempo": 120.0
            },
            {
                "start_time": 26.686363636363634,
                "end_time": 26.786363636363635,
                "pitch": 69,
                "velocity": 51,
                "duration": 0.10000000000000142,
                "tempo": 120.0
            },
            {
                "start_time": 26.82272727272727,
                "end_time": 26.920454545454543,
                "pitch": 64,
                "velocity": 64,
                "duration": 0.09772727272727266,
                "tempo": 120.0
            },
            {
                "start_time": 26.954545454545453,
                "end_time": 27.054545454545455,
                "pitch": 59,
                "velocity": 64,
                "duration": 0.10000000000000142,
                "tempo": 120.0
            },
            {
                "start_time": 27.09090909090909,
                "end_time": 27.188636363636363,
                "pitch": 62,
                "velocity": 64,
                "duration": 0.09772727272727266,
                "tempo": 120.0
            },
            {
                "start_time": 27.222727272727273,
                "end_time": 27.30909090909091,
                "pitch": 57,
                "velocity": 51,
                "duration": 0.08636363636363598,
                "tempo": 120.0
            },
            {
                "start_time": 27.343181818181815,
                "end_time": 27.445454545454545,
                "pitch": 62,
                "velocity": 51,
                "duration": 0.10227272727273018,
                "tempo": 120.0
            },
            {
                "start_time": 27.479545454545452,
                "end_time": 27.581818181818182,
                "pitch": 59,
                "velocity": 51,
                "duration": 0.10227272727273018,
                "tempo": 120.0
            },
            {
                "start_time": 27.618181818181817,
                "end_time": 27.718181818181815,
                "pitch": 64,
                "velocity": 40,
                "duration": 0.09999999999999787,
                "tempo": 120.0
            },
            {
                "start_time": 27.75,
                "end_time": 27.852272727272727,
                "pitch": 59,
                "velocity": 40,
                "duration": 0.10227272727272663,
                "tempo": 120.0
            },
            {
                "start_time": 27.886363636363637,
                "end_time": 27.986363636363635,
                "pitch": 62,
                "velocity": 40,
                "duration": 0.09999999999999787,
                "tempo": 120.0
            },
            {
                "start_time": 28.002272727272725,
                "end_time": 28.099999999999998,
                "pitch": 57,
                "velocity": 32,
                "duration": 0.09772727272727266,
                "tempo": 120.0
            },
            {
                "start_time": 28.134090909090908,
                "end_time": 28.23181818181818,
                "pitch": 62,
                "velocity": 32,
                "duration": 0.09772727272727266,
                "tempo": 120.0
            },
            {
                "start_time": 28.26590909090909,
                "end_time": 28.363636363636363,
                "pitch": 59,
                "velocity": 32,
                "duration": 0.09772727272727266,
                "tempo": 120.0
            },
            {
                "start_time": 28.39772727272727,
                "end_time": 28.49772727272727,
                "pitch": 64,
                "velocity": 64,
                "duration": 0.10000000000000142,
                "tempo": 120.0
            },
            {
                "start_time": 28.534090909090907,
                "end_time": 28.636363636363637,
                "pitch": 59,
                "velocity": 64,
                "duration": 0.10227272727273018,
                "tempo": 120.0
            },
            {
                "start_time": 28.672727272727272,
                "end_time": 28.75681818181818,
                "pitch": 62,
                "velocity": 64,
                "duration": 0.08409090909090722,
                "tempo": 120.0
            },
            {
                "start_time": 28.793181818181818,
                "end_time": 28.888636363636362,
                "pitch": 57,
                "velocity": 51,
                "duration": 0.0954545454545439,
                "tempo": 120.0
            },
            {
                "start_time": 28.922727272727272,
                "end_time": 29.020454545454545,
                "pitch": 62,
                "velocity": 51,
                "duration": 0.09772727272727266,
                "tempo": 120.0
            },
            {
                "start_time": 29.054545454545455,
                "end_time": 29.152272727272727,
                "pitch": 59,
                "velocity": 51,
                "duration": 0.09772727272727266,
                "tempo": 120.0
            },
            {
                "start_time": 29.18409090909091,
                "end_time": 29.286363636363635,
                "pitch": 64,
                "velocity": 40,
                "duration": 0.10227272727272663,
                "tempo": 120.0
            },
            {
                "start_time": 29.320454545454545,
                "end_time": 29.422727272727272,
                "pitch": 59,
                "velocity": 40,
                "duration": 0.10227272727272663,
                "tempo": 120.0
            },
            {
                "start_time": 29.440909090909088,
                "end_time": 29.543181818181818,
                "pitch": 62,
                "velocity": 40,
                "duration": 0.10227272727273018,
                "tempo": 120.0
            },
            {
                "start_time": 29.577272727272724,
                "end_time": 29.677272727272726,
                "pitch": 57,
                "velocity": 32,
                "duration": 0.10000000000000142,
                "tempo": 120.0
            },
            {
                "start_time": 29.711363636363636,
                "end_time": 29.811363636363634,
                "pitch": 62,
                "velocity": 32,
                "duration": 0.09999999999999787,
                "tempo": 120.0
            },
            {
                "start_time": 29.845454545454544,
                "end_time": 29.94772727272727,
                "pitch": 59,
                "velocity": 32,
                "duration": 0.10227272727272663,
                "tempo": 120.0
            },
            {
                "start_time": 29.98181818181818,
                "end_time": 30.084090909090907,
                "pitch": 64,
                "velocity": 64,
                "duration": 0.10227272727272663,
                "tempo": 120.0
            },
            {
                "start_time": 30.118181818181817,
                "end_time": 30.204545454545453,
                "pitch": 59,
                "velocity": 64,
                "duration": 0.08636363636363598,
                "tempo": 120.0
            },
            {
                "start_time": 30.24090909090909,
                "end_time": 30.34090909090909,
                "pitch": 62,
                "velocity": 64,
                "duration": 0.10000000000000142,
                "tempo": 120.0
            },
            {
                "start_time": 30.377272727272725,
                "end_time": 30.474999999999998,
                "pitch": 57,
                "velocity": 51,
                "duration": 0.09772727272727266,
                "tempo": 120.0
            },
            {
                "start_time": 30.50681818181818,
                "end_time": 30.604545454545452,
                "pitch": 62,
                "velocity": 51,
                "duration": 0.09772727272727266,
                "tempo": 120.0
            },
            {
                "start_time": 30.638636363636362,
                "end_time": 30.736363636363635,
                "pitch": 59,
                "velocity": 51,
                "duration": 0.09772727272727266,
                "tempo": 120.0
            },
            {
                "start_time": 30.770454545454545,
                "end_time": 30.870454545454542,
                "pitch": 64,
                "velocity": 40,
                "duration": 0.09999999999999787,
                "tempo": 120.0
            },
            {
                "start_time": 30.888636363636362,
                "end_time": 30.99090909090909,
                "pitch": 59,
                "velocity": 40,
                "duration": 0.10227272727272663,
                "tempo": 120.0
            },
            {
                "start_time": 31.025,
                "end_time": 31.127272727272725,
                "pitch": 62,
                "velocity": 40,
                "duration": 0.10227272727272663,
                "tempo": 120.0
            },
            {
                "start_time": 31.16363636363636,
                "end_time": 31.263636363636362,
                "pitch": 57,
                "velocity": 32,
                "duration": 0.10000000000000142,
                "tempo": 120.0
            },
            {
                "start_time": 31.297727272727272,
                "end_time": 31.39772727272727,
                "pitch": 62,
                "velocity": 32,
                "duration": 0.09999999999999787,
                "tempo": 120.0
            },
            {
                "start_time": 31.43181818181818,
                "end_time": 31.53181818181818,
                "pitch": 59,
                "velocity": 32,
                "duration": 0.10000000000000142,
                "tempo": 120.0
            },
            {
                "start_time": 31.565909090909088,
                "end_time": 31.65,
                "pitch": 64,
                "velocity": 51,
                "duration": 0.08409090909091077,
                "tempo": 120.0
            },
            {
                "start_time": 31.686363636363634,
                "end_time": 31.78863636363636,
                "pitch": 69,
                "velocity": 51,
                "duration": 0.10227272727272663,
                "tempo": 120.0
            },
            {
                "start_time": 31.82272727272727,
                "end_time": 31.924999999999997,
                "pitch": 74,
                "velocity": 51,
                "duration": 0.10227272727272663,
                "tempo": 120.0
            },
            {
                "start_time": 31.959090909090907,
                "end_time": 32.05681818181818,
                "pitch": 67,
                "velocity": 51,
                "duration": 0.09772727272727266,
                "tempo": 120.0
            },
            {
                "start_time": 32.090909090909086,
                "end_time": 32.18863636363636,
                "pitch": 72,
                "velocity": 51,
                "duration": 0.09772727272727622,
                "tempo": 120.0
            },
            {
                "start_time": 32.220454545454544,
                "end_time": 32.30227272727272,
                "pitch": 77,
                "velocity": 51,
                "duration": 0.08181818181817846,
                "tempo": 120.0
            },
            {
                "start_time": 32.336363636363636,
                "end_time": 32.43636363636364,
                "pitch": 69,
                "velocity": 51,
                "duration": 0.10000000000000142,
                "tempo": 120.0
            },
            {
                "start_time": 32.470454545454544,
                "end_time": 32.570454545454545,
                "pitch": 74,
                "velocity": 51,
                "duration": 0.10000000000000142,
                "tempo": 120.0
            },
            {
                "start_time": 32.60454545454545,
                "end_time": 32.70454545454545,
                "pitch": 78,
                "velocity": 51,
                "duration": 0.10000000000000142,
                "tempo": 120.0
            },
            {
                "start_time": 32.73863636363636,
                "end_time": 32.83863636363636,
                "pitch": 79,
                "velocity": 51,
                "duration": 0.10000000000000142,
                "tempo": 120.0
            },
            {
                "start_time": 32.87272727272727,
                "end_time": 32.97272727272727,
                "pitch": 81,
                "velocity": 51,
                "duration": 0.10000000000000142,
                "tempo": 120.0
            },
            {
                "start_time": 33.00681818181818,
                "end_time": 33.090909090909086,
                "pitch": 83,
                "velocity": 51,
                "duration": 0.08409090909090366,
                "tempo": 120.0
            }
        ],
        "Flute": [
            {
                "start_time": 32.470454545454544,
                "end_time": 32.570454545454545,
                "pitch": 62,
                "velocity": 40,
                "duration": 0.10000000000000142,
                "tempo": 120.0
            },
            {
                "start_time": 32.60454545454545,
                "end_time": 32.70454545454545,
                "pitch": 64,
                "velocity": 40,
                "duration": 0.10000000000000142,
                "tempo": 120.0
            },
            {
                "start_time": 32.73863636363636,
                "end_time": 32.83863636363636,
                "pitch": 66,
                "velocity": 40,
                "duration": 0.10000000000000142,
                "tempo": 120.0
            },
            {
                "start_time": 32.87272727272727,
                "end_time": 32.97272727272727,
                "pitch": 67,
                "velocity": 40,
                "duration": 0.10000000000000142,
                "tempo": 120.0
            },
            {
                "start_time": 33.00681818181818,
                "end_time": 33.090909090909086,
                "pitch": 69,
                "velocity": 40,
                "duration": 0.08409090909090366,
                "tempo": 120.0
            },
            {
                "start_time": 33.127272727272725,
                "end_time": 33.225,
                "pitch": 71,
                "velocity": 40,
                "duration": 0.09772727272727622,
                "tempo": 120.0
            },
            {
                "start_time": 33.25909090909091,
                "end_time": 33.35909090909091,
                "pitch": 72,
                "velocity": 40,
                "duration": 0.10000000000000142,
                "tempo": 120.0
            },
            {
                "start_time": 33.393181818181816,
                "end_time": 33.49318181818182,
                "pitch": 71,
                "velocity": 40,
                "duration": 0.10000000000000142,
                "tempo": 120.0
            },
            {
                "start_time": 33.527272727272724,
                "end_time": 33.62954545454545,
                "pitch": 72,
                "velocity": 40,
                "duration": 0.10227272727272663,
                "tempo": 120.0
            },
            {
                "start_time": 33.663636363636364,
                "end_time": 33.74772727272727,
                "pitch": 69,
                "velocity": 40,
                "duration": 0.08409090909090366,
                "tempo": 120.0
            },
            {
                "start_time": 33.78409090909091,
                "end_time": 33.88636363636363,
                "pitch": 67,
                "velocity": 40,
                "duration": 0.10227272727272663,
                "tempo": 120.0
            },
            {
                "start_time": 33.92045454545455,
                "end_time": 34.018181818181816,
                "pitch": 69,
                "velocity": 40,
                "duration": 0.09772727272726911,
                "tempo": 120.0
            },
            {
                "start_time": 34.05,
                "end_time": 34.15,
                "pitch": 66,
                "velocity": 40,
                "duration": 0.10000000000000142,
                "tempo": 120.0
            },
            {
                "start_time": 34.18181818181818,
                "end_time": 34.279545454545456,
                "pitch": 64,
                "velocity": 40,
                "duration": 0.09772727272727622,
                "tempo": 120.0
            },
            {
                "start_time": 34.31363636363636,
                "end_time": 34.41590909090909,
                "pitch": 66,
                "velocity": 40,
                "duration": 0.10227272727272663,
                "tempo": 120.0
            },
            {
                "start_time": 34.449999999999996,
                "end_time": 34.53636363636363,
                "pitch": 62,
                "velocity": 40,
                "duration": 0.08636363636363598,
                "tempo": 120.0
            },
            {
                "start_time": 34.570454545454545,
                "end_time": 34.675,
                "pitch": 60,
                "velocity": 40,
                "duration": 0.10454545454545183,
                "tempo": 120.0
            },
            {
                "start_time": 34.70909090909091,
                "end_time": 34.809090909090905,
                "pitch": 62,
                "velocity": 40,
                "duration": 0.09999999999999432,
                "tempo": 120.0
            },
            {
                "start_time": 34.84318181818182,
                "end_time": 34.94318181818181,
                "pitch": 60,
                "velocity": 40,
                "duration": 0.09999999999999432,
                "tempo": 120.0
            },
            {
                "start_time": 34.97727272727273,
                "end_time": 35.07727272727273,
                "pitch": 59,
                "velocity": 40,
                "duration": 0.10000000000000142,
                "tempo": 120.0
            },
            {
                "start_time": 35.111363636363635,
                "end_time": 35.19772727272727,
                "pitch": 60,
                "velocity": 40,
                "duration": 0.08636363636363598,
                "tempo": 120.0
            },
            {
                "start_time": 35.23181818181818,
                "end_time": 35.33409090909091,
                "pitch": 62,
                "velocity": 40,
                "duration": 0.10227272727273373,
                "tempo": 120.0
            },
            {
                "start_time": 35.36818181818182,
                "end_time": 35.470454545454544,
                "pitch": 64,
                "velocity": 40,
                "duration": 0.10227272727272663,
                "tempo": 120.0
            },
            {
                "start_time": 35.50681818181818,
                "end_time": 35.60227272727273,
                "pitch": 66,
                "velocity": 40,
                "duration": 0.0954545454545439,
                "tempo": 120.0
            },
            {
                "start_time": 35.63636363636363,
                "end_time": 35.73409090909091,
                "pitch": 64,
                "velocity": 40,
                "duration": 0.09772727272727622,
                "tempo": 120.0
            },
            {
                "start_time": 35.768181818181816,
                "end_time": 35.86363636363636,
                "pitch": 66,
                "velocity": 40,
                "duration": 0.0954545454545439,
                "tempo": 120.0
            },
            {
                "start_time": 35.89772727272727,
                "end_time": 35.98409090909091,
                "pitch": 67,
                "velocity": 40,
                "duration": 0.08636363636363598,
                "tempo": 120.0
            },
            {
                "start_time": 36.018181818181816,
                "end_time": 36.12045454545454,
                "pitch": 66,
                "velocity": 40,
                "duration": 0.10227272727272663,
                "tempo": 120.0
            },
            {
                "start_time": 36.15681818181818,
                "end_time": 36.25909090909091,
                "pitch": 67,
                "velocity": 40,
                "duration": 0.10227272727272663,
                "tempo": 120.0
            },
            {
                "start_time": 36.29545454545455,
                "end_time": 36.39545454545454,
                "pitch": 69,
                "velocity": 40,
                "duration": 0.09999999999999432,
                "tempo": 120.0
            },
            {
                "start_time": 36.429545454545455,
                "end_time": 36.529545454545456,
                "pitch": 71,
                "velocity": 40,
                "duration": 0.10000000000000142,
                "tempo": 120.0
            },
            {
                "start_time": 36.56363636363636,
                "end_time": 36.64545454545454,
                "pitch": 69,
                "velocity": 40,
                "duration": 0.08181818181817846,
                "tempo": 120.0
            },
            {
                "start_time": 36.679545454545455,
                "end_time": 36.777272727272724,
                "pitch": 71,
                "velocity": 40,
                "duration": 0.09772727272726911,
                "tempo": 120.0
            },
            {
                "start_time": 36.81136363636364,
                "end_time": 36.90909090909091,
                "pitch": 67,
                "velocity": 40,
                "duration": 0.09772727272726911,
                "tempo": 120.0
            },
            {
                "start_time": 36.94318181818181,
                "end_time": 37.04090909090909,
                "pitch": 66,
                "velocity": 40,
                "duration": 0.09772727272727622,
                "tempo": 120.0
            },
            {
                "start_time": 37.07272727272727,
                "end_time": 37.175,
                "pitch": 67,
                "velocity": 40,
                "duration": 0.10227272727272663,
                "tempo": 120.0
            },
            {
                "start_time": 37.20909090909091,
                "end_time": 37.31136363636364,
                "pitch": 64,
                "velocity": 40,
                "duration": 0.10227272727272663,
                "tempo": 120.0
            },
            {
                "start_time": 37.32954545454545,
                "end_time": 37.43181818181818,
                "pitch": 62,
                "velocity": 40,
                "duration": 0.10227272727272663,
                "tempo": 120.0
            },
            {
                "start_time": 37.465909090909086,
                "end_time": 37.56363636363636,
                "pitch": 64,
                "velocity": 40,
                "duration": 0.09772727272727622,
                "tempo": 120.0
            },
            {
                "start_time": 37.59772727272727,
                "end_time": 37.695454545454545,
                "pitch": 62,
                "velocity": 40,
                "duration": 0.09772727272727622,
                "tempo": 120.0
            },
            {
                "start_time": 37.72727272727273,
                "end_time": 37.824999999999996,
                "pitch": 60,
                "velocity": 40,
                "duration": 0.09772727272726911,
                "tempo": 120.0
            },
            {
                "start_time": 37.85909090909091,
                "end_time": 37.96363636363636,
                "pitch": 59,
                "velocity": 40,
                "duration": 0.10454545454545183,
                "tempo": 120.0
            },
            {
                "start_time": 38.0,
                "end_time": 38.086363636363636,
                "pitch": 60,
                "velocity": 40,
                "duration": 0.08636363636363598,
                "tempo": 120.0
            },
            {
                "start_time": 38.12272727272727,
                "end_time": 38.22727272727273,
                "pitch": 62,
                "velocity": 40,
                "duration": 0.10454545454545894,
                "tempo": 120.0
            },
            {
                "start_time": 38.26363636363636,
                "end_time": 38.361363636363635,
                "pitch": 64,
                "velocity": 40,
                "duration": 0.09772727272727622,
                "tempo": 120.0
            },
            {
                "start_time": 38.393181818181816,
                "end_time": 38.49090909090909,
                "pitch": 62,
                "velocity": 40,
                "duration": 0.09772727272727622,
                "tempo": 120.0
            },
            {
                "start_time": 38.525,
                "end_time": 38.62272727272727,
                "pitch": 64,
                "velocity": 40,
                "duration": 0.09772727272726911,
                "tempo": 120.0
            },
            {
                "start_time": 38.65681818181818,
                "end_time": 38.75681818181818,
                "pitch": 66,
                "velocity": 40,
                "duration": 0.10000000000000142,
                "tempo": 120.0
            },
            {
                "start_time": 38.775,
                "end_time": 38.877272727272725,
                "pitch": 64,
                "velocity": 40,
                "duration": 0.10227272727272663,
                "tempo": 120.0
            },
            {
                "start_time": 38.91136363636363,
                "end_time": 39.01363636363636,
                "pitch": 66,
                "velocity": 40,
                "duration": 0.10227272727272663,
                "tempo": 120.0
            },
            {
                "start_time": 39.04772727272727,
                "end_time": 39.14545454545454,
                "pitch": 67,
                "velocity": 40,
                "duration": 0.09772727272726911,
                "tempo": 120.0
            },
            {
                "start_time": 39.179545454545455,
                "end_time": 39.277272727272724,
                "pitch": 66,
                "velocity": 40,
                "duration": 0.09772727272726911,
                "tempo": 120.0
            },
            {
                "start_time": 39.31136363636364,
                "end_time": 39.40909090909091,
                "pitch": 67,
                "velocity": 40,
                "duration": 0.09772727272726911,
                "tempo": 120.0
            },
            {
                "start_time": 39.44318181818181,
                "end_time": 39.527272727272724,
                "pitch": 71,
                "velocity": 40,
                "duration": 0.08409090909091077,
                "tempo": 120.0
            },
            {
                "start_time": 39.56136363636364,
                "end_time": 39.663636363636364,
                "pitch": 69,
                "velocity": 40,
                "duration": 0.10227272727272663,
                "tempo": 120.0
            },
            {
                "start_time": 39.69772727272727,
                "end_time": 39.8,
                "pitch": 67,
                "velocity": 40,
                "duration": 0.10227272727272663,
                "tempo": 120.0
            },
            {
                "start_time": 39.836363636363636,
                "end_time": 39.93636363636364,
                "pitch": 69,
                "velocity": 40,
                "duration": 0.10000000000000142,
                "tempo": 120.0
            },
            {
                "start_time": 39.970454545454544,
                "end_time": 40.070454545454545,
                "pitch": 66,
                "velocity": 40,
                "duration": 0.10000000000000142,
                "tempo": 120.0
            },
            {
                "start_time": 40.10454545454545,
                "end_time": 40.20454545454545,
                "pitch": 64,
                "velocity": 40,
                "duration": 0.10000000000000142,
                "tempo": 120.0
            },
            {
                "start_time": 40.220454545454544,
                "end_time": 40.31818181818181,
                "pitch": 66,
                "velocity": 40,
                "duration": 0.09772727272726911,
                "tempo": 120.0
            },
            {
                "start_time": 40.35227272727273,
                "end_time": 40.449999999999996,
                "pitch": 62,
                "velocity": 40,
                "duration": 0.09772727272726911,
                "tempo": 120.0
            },
            {
                "start_time": 40.48409090909091,
                "end_time": 40.57954545454545,
                "pitch": 60,
                "velocity": 40,
                "duration": 0.0954545454545439,
                "tempo": 120.0
            },
            {
                "start_time": 40.61363636363636,
                "end_time": 40.715909090909086,
                "pitch": 59,
                "velocity": 40,
                "duration": 0.10227272727272663,
                "tempo": 120.0
            },
            {
                "start_time": 40.75,
                "end_time": 40.85227272727273,
                "pitch": 60,
                "velocity": 40,
                "duration": 0.10227272727272663,
                "tempo": 120.0
            },
            {
                "start_time": 40.88863636363636,
                "end_time": 40.97272727272727,
                "pitch": 59,
                "velocity": 40,
                "duration": 0.08409090909091077,
                "tempo": 120.0
            },
            {
                "start_time": 41.00909090909091,
                "end_time": 41.10681818181818,
                "pitch": 56,
                "velocity": 40,
                "duration": 0.09772727272726911,
                "tempo": 120.0
            },
            {
                "start_time": 41.14090909090909,
                "end_time": 41.24090909090909,
                "pitch": 57,
                "velocity": 40,
                "duration": 0.10000000000000142,
                "tempo": 120.0
            },
            {
                "start_time": 41.275,
                "end_time": 41.375,
                "pitch": 59,
                "velocity": 40,
                "duration": 0.10000000000000142,
                "tempo": 120.0
            },
            {
                "start_time": 41.41136363636363,
                "end_time": 41.51136363636363,
                "pitch": 60,
                "velocity": 40,
                "duration": 0.10000000000000142,
                "tempo": 120.0
            },
            {
                "start_time": 41.54772727272727,
                "end_time": 41.63181818181818,
                "pitch": 59,
                "velocity": 40,
                "duration": 0.08409090909091077,
                "tempo": 120.0
            },
            {
                "start_time": 41.66590909090909,
                "end_time": 41.768181818181816,
                "pitch": 60,
                "velocity": 40,
                "duration": 0.10227272727272663,
                "tempo": 120.0
            },
            {
                "start_time": 41.804545454545455,
                "end_time": 41.902272727272724,
                "pitch": 62,
                "velocity": 40,
                "duration": 0.09772727272726911,
                "tempo": 120.0
            },
            {
                "start_time": 41.934090909090905,
                "end_time": 42.03181818181818,
                "pitch": 60,
                "velocity": 40,
                "duration": 0.09772727272727622,
                "tempo": 120.0
            },
            {
                "start_time": 42.06590909090909,
                "end_time": 42.163636363636364,
                "pitch": 62,
                "velocity": 40,
                "duration": 0.09772727272727622,
                "tempo": 120.0
            },
            {
                "start_time": 42.195454545454545,
                "end_time": 42.29772727272727,
                "pitch": 64,
                "velocity": 40,
                "duration": 0.10227272727272663,
                "tempo": 120.0
            },
            {
                "start_time": 42.33181818181818,
                "end_time": 42.418181818181814,
                "pitch": 66,
                "velocity": 40,
                "duration": 0.08636363636363598,
                "tempo": 120.0
            },
            {
                "start_time": 42.45227272727273,
                "end_time": 42.554545454545455,
                "pitch": 67,
                "velocity": 40,
                "duration": 0.10227272727272663,
                "tempo": 120.0
            },
            {
                "start_time": 42.590909090909086,
                "end_time": 42.69090909090909,
                "pitch": 69,
                "velocity": 40,
                "duration": 0.10000000000000142,
                "tempo": 120.0
            },
            {
                "start_time": 42.725,
                "end_time": 42.824999999999996,
                "pitch": 71,
                "velocity": 40,
                "duration": 0.09999999999999432,
                "tempo": 120.0
            },
            {
                "start_time": 42.85909090909091,
                "end_time": 42.959090909090904,
                "pitch": 69,
                "velocity": 40,
                "duration": 0.09999999999999432,
                "tempo": 120.0
            },
            {
                "start_time": 42.99318181818182,
                "end_time": 43.07727272727273,
                "pitch": 71,
                "velocity": 40,
                "duration": 0.08409090909091077,
                "tempo": 120.0
            },
            {
                "start_time": 43.11363636363636,
                "end_time": 43.21363636363636,
                "pitch": 72,
                "velocity": 40,
                "duration": 0.10000000000000142,
                "tempo": 120.0
            },
            {
                "start_time": 43.25,
                "end_time": 43.35227272727273,
                "pitch": 71,
                "velocity": 40,
                "duration": 0.10227272727272663,
                "tempo": 120.0
            },
            {
                "start_time": 43.38636363636363,
                "end_time": 43.48409090909091,
                "pitch": 72,
                "velocity": 40,
                "duration": 0.09772727272727622,
                "tempo": 120.0
            },
            {
                "start_time": 43.51590909090909,
                "end_time": 43.61363636363636,
                "pitch": 74,
                "velocity": 40,
                "duration": 0.09772727272726911,
                "tempo": 120.0
            },
            {
                "start_time": 43.64772727272727,
                "end_time": 43.74545454545454,
                "pitch": 72,
                "velocity": 40,
                "duration": 0.09772727272726911,
                "tempo": 120.0
            },
            {
                "start_time": 43.77954545454545,
                "end_time": 43.86363636363636,
                "pitch": 74,
                "velocity": 40,
                "duration": 0.08409090909091077,
                "tempo": 120.0
            },
            {
                "start_time": 43.89772727272727,
                "end_time": 44.0,
                "pitch": 76,
                "velocity": 40,
                "duration": 0.10227272727272663,
                "tempo": 120.0
            },
            {
                "start_time": 44.03636363636363,
                "end_time": 44.13863636363636,
                "pitch": 74,
                "velocity": 40,
                "duration": 0.10227272727272663,
                "tempo": 120.0
            },
            {
                "start_time": 44.17272727272727,
                "end_time": 44.27045454545454,
                "pitch": 72,
                "velocity": 40,
                "duration": 0.09772727272726911,
                "tempo": 120.0
            },
            {
                "start_time": 44.30227272727272,
                "end_time": 44.4,
                "pitch": 74,
                "velocity": 40,
                "duration": 0.09772727272727622,
                "tempo": 120.0
            },
            {
                "start_time": 44.434090909090905,
                "end_time": 44.51590909090909,
                "pitch": 72,
                "velocity": 40,
                "duration": 0.08181818181818556,
                "tempo": 120.0
            },
            {
                "start_time": 44.54772727272727,
                "end_time": 44.64772727272727,
                "pitch": 71,
                "velocity": 40,
                "duration": 0.10000000000000142,
                "tempo": 120.0
            },
            {
                "start_time": 44.68181818181818,
                "end_time": 44.78181818181818,
                "pitch": 72,
                "velocity": 40,
                "duration": 0.10000000000000142,
                "tempo": 120.0
            },
            {
                "start_time": 44.81590909090909,
                "end_time": 44.91590909090909,
                "pitch": 71,
                "velocity": 40,
                "duration": 0.10000000000000142,
                "tempo": 120.0
            },
            {
                "start_time": 45.877272727272725,
                "end_time": 45.961363636363636,
                "pitch": 72,
                "velocity": 40,
                "duration": 0.08409090909091077,
                "tempo": 120.0
            },
            {
                "start_time": 45.99545454545454,
                "end_time": 46.09772727272727,
                "pitch": 71,
                "velocity": 40,
                "duration": 0.10227272727272663,
                "tempo": 120.0
            },
            {
                "start_time": 46.13409090909091,
                "end_time": 46.23409090909091,
                "pitch": 72,
                "velocity": 40,
                "duration": 0.10000000000000142,
                "tempo": 120.0
            },
            {
                "start_time": 46.268181818181816,
                "end_time": 46.36818181818182,
                "pitch": 69,
                "velocity": 40,
                "duration": 0.10000000000000142,
                "tempo": 120.0
            },
            {
                "start_time": 46.402272727272724,
                "end_time": 46.502272727272725,
                "pitch": 67,
                "velocity": 40,
                "duration": 0.10000000000000142,
                "tempo": 120.0
            },
            {
                "start_time": 46.53636363636363,
                "end_time": 46.63636363636363,
                "pitch": 69,
                "velocity": 40,
                "duration": 0.10000000000000142,
                "tempo": 120.0
            },
            {
                "start_time": 46.652272727272724,
                "end_time": 46.75454545454545,
                "pitch": 66,
                "velocity": 40,
                "duration": 0.10227272727272663,
                "tempo": 120.0
            },
            {
                "start_time": 46.788636363636364,
                "end_time": 46.88863636363636,
                "pitch": 64,
                "velocity": 40,
                "duration": 0.09999999999999432,
                "tempo": 120.0
            },
            {
                "start_time": 46.92272727272727,
                "end_time": 47.02272727272727,
                "pitch": 66,
                "velocity": 40,
                "duration": 0.10000000000000142,
                "tempo": 120.0
            },
            {
                "start_time": 47.05681818181818,
                "end_time": 47.15681818181818,
                "pitch": 62,
                "velocity": 40,
                "duration": 0.10000000000000142,
                "tempo": 120.0
            },
            {
                "start_time": 47.19090909090909,
                "end_time": 47.29090909090909,
                "pitch": 60,
                "velocity": 40,
                "duration": 0.10000000000000142,
                "tempo": 120.0
            },
            {
                "start_time": 47.324999999999996,
                "end_time": 47.40909090909091,
                "pitch": 62,
                "velocity": 40,
                "duration": 0.08409090909091077,
                "tempo": 120.0
            },
            {
                "start_time": 47.445454545454545,
                "end_time": 47.54545454545454,
                "pitch": 60,
                "velocity": 40,
                "duration": 0.09999999999999432,
                "tempo": 120.0
            },
            {
                "start_time": 47.58181818181818,
                "end_time": 47.684090909090905,
                "pitch": 59,
                "velocity": 40,
                "duration": 0.10227272727272663,
                "tempo": 120.0
            },
            {
                "start_time": 47.71818181818182,
                "end_time": 47.81590909090909,
                "pitch": 60,
                "velocity": 40,
                "duration": 0.09772727272726911,
                "tempo": 120.0
            },
            {
                "start_time": 47.849999999999994,
                "end_time": 47.94772727272727,
                "pitch": 62,
                "velocity": 40,
                "duration": 0.09772727272727622,
                "tempo": 120.0
            },
            {
                "start_time": 47.97954545454545,
                "end_time": 48.07727272727273,
                "pitch": 64,
                "velocity": 40,
                "duration": 0.09772727272727622,
                "tempo": 120.0
            },
            {
                "start_time": 48.095454545454544,
                "end_time": 48.19318181818181,
                "pitch": 66,
                "velocity": 40,
                "duration": 0.09772727272726911,
                "tempo": 120.0
            },
            {
                "start_time": 48.22727272727273,
                "end_time": 48.32954545454545,
                "pitch": 64,
                "velocity": 40,
                "duration": 0.10227272727272663,
                "tempo": 120.0
            },
            {
                "start_time": 48.36363636363636,
                "end_time": 48.46363636363636,
                "pitch": 66,
                "velocity": 40,
                "duration": 0.10000000000000142,
                "tempo": 120.0
            },
            {
                "start_time": 48.49545454545454,
                "end_time": 48.59772727272727,
                "pitch": 67,
                "velocity": 40,
                "duration": 0.10227272727272663,
                "tempo": 120.0
            },
            {
                "start_time": 48.63409090909091,
                "end_time": 48.736363636363635,
                "pitch": 66,
                "velocity": 40,
                "duration": 0.10227272727272663,
                "tempo": 120.0
            },
            {
                "start_time": 48.77045454545454,
                "end_time": 48.85681818181818,
                "pitch": 67,
                "velocity": 40,
                "duration": 0.08636363636363598,
                "tempo": 120.0
            },
            {
                "start_time": 48.89090909090909,
                "end_time": 48.99090909090909,
                "pitch": 69,
                "velocity": 40,
                "duration": 0.10000000000000142,
                "tempo": 120.0
            },
            {
                "start_time": 49.025,
                "end_time": 49.125,
                "pitch": 71,
                "velocity": 40,
                "duration": 0.10000000000000142,
                "tempo": 120.0
            },
            {
                "start_time": 49.15909090909091,
                "end_time": 49.25909090909091,
                "pitch": 69,
                "velocity": 40,
                "duration": 0.10000000000000142,
                "tempo": 120.0
            },
            {
                "start_time": 49.293181818181814,
                "end_time": 49.393181818181816,
                "pitch": 71,
                "velocity": 40,
                "duration": 0.10000000000000142,
                "tempo": 120.0
            },
            {
                "start_time": 49.42727272727272,
                "end_time": 49.51136363636363,
                "pitch": 67,
                "velocity": 40,
                "duration": 0.08409090909091077,
                "tempo": 120.0
            },
            {
                "start_time": 49.54545454545454,
                "end_time": 49.64545454545454,
                "pitch": 66,
                "velocity": 40,
                "duration": 0.10000000000000142,
                "tempo": 120.0
            },
            {
                "start_time": 49.679545454545455,
                "end_time": 49.77954545454545,
                "pitch": 67,
                "velocity": 40,
                "duration": 0.09999999999999432,
                "tempo": 120.0
            },
            {
                "start_time": 49.81363636363636,
                "end_time": 49.913636363636364,
                "pitch": 64,
                "velocity": 40,
                "duration": 0.10000000000000142,
                "tempo": 120.0
            },
            {
                "start_time": 49.94772727272727,
                "end_time": 50.04772727272727,
                "pitch": 62,
                "velocity": 40,
                "duration": 0.10000000000000142,
                "tempo": 120.0
            },
            {
                "start_time": 50.08181818181818,
                "end_time": 50.184090909090905,
                "pitch": 64,
                "velocity": 40,
                "duration": 0.10227272727272663,
                "tempo": 120.0
            },
            {
                "start_time": 50.21818181818182,
                "end_time": 50.304545454545455,
                "pitch": 62,
                "velocity": 40,
                "duration": 0.08636363636363598,
                "tempo": 120.0
            },
            {
                "start_time": 50.33863636363636,
                "end_time": 50.44090909090909,
                "pitch": 60,
                "velocity": 40,
                "duration": 0.10227272727272663,
                "tempo": 120.0
            },
            {
                "start_time": 50.47727272727273,
                "end_time": 50.57272727272727,
                "pitch": 59,
                "velocity": 40,
                "duration": 0.0954545454545439,
                "tempo": 120.0
            },
            {
                "start_time": 50.60681818181818,
                "end_time": 50.70454545454545,
                "pitch": 60,
                "velocity": 40,
                "duration": 0.09772727272727622,
                "tempo": 120.0
            },
            {
                "start_time": 50.736363636363635,
                "end_time": 50.834090909090904,
                "pitch": 62,
                "velocity": 40,
                "duration": 0.09772727272726911,
                "tempo": 120.0
            },
            {
                "start_time": 50.86818181818182,
                "end_time": 50.95227272727273,
                "pitch": 64,
                "velocity": 40,
                "duration": 0.08409090909091077,
                "tempo": 120.0
            },
            {
                "start_time": 50.98863636363636,
                "end_time": 51.090909090909086,
                "pitch": 62,
                "velocity": 40,
                "duration": 0.10227272727272663,
                "tempo": 120.0
            },
            {
                "start_time": 51.125,
                "end_time": 51.22727272727273,
                "pitch": 64,
                "velocity": 40,
                "duration": 0.10227272727272663,
                "tempo": 120.0
            },
            {
                "start_time": 51.26136363636363,
                "end_time": 51.361363636363635,
                "pitch": 66,
                "velocity": 40,
                "duration": 0.10000000000000142,
                "tempo": 120.0
            },
            {
                "start_time": 51.39545454545454,
                "end_time": 51.49545454545454,
                "pitch": 64,
                "velocity": 40,
                "duration": 0.10000000000000142,
                "tempo": 120.0
            },
            {
                "start_time": 51.52954545454545,
                "end_time": 51.62954545454545,
                "pitch": 66,
                "velocity": 40,
                "duration": 0.10000000000000142,
                "tempo": 120.0
            },
            {
                "start_time": 51.663636363636364,
                "end_time": 51.74772727272727,
                "pitch": 67,
                "velocity": 40,
                "duration": 0.08409090909090366,
                "tempo": 120.0
            },
            {
                "start_time": 51.78181818181818,
                "end_time": 51.88181818181818,
                "pitch": 66,
                "velocity": 40,
                "duration": 0.10000000000000142,
                "tempo": 120.0
            },
            {
                "start_time": 51.91590909090909,
                "end_time": 52.01590909090909,
                "pitch": 67,
                "velocity": 40,
                "duration": 0.10000000000000142,
                "tempo": 120.0
            },
            {
                "start_time": 52.05227272727272,
                "end_time": 52.15,
                "pitch": 71,
                "velocity": 40,
                "duration": 0.09772727272727622,
                "tempo": 120.0
            },
            {
                "start_time": 52.184090909090905,
                "end_time": 52.28409090909091,
                "pitch": 69,
                "velocity": 40,
                "duration": 0.10000000000000142,
                "tempo": 120.0
            },
            {
                "start_time": 52.31818181818181,
                "end_time": 52.402272727272724,
                "pitch": 67,
                "velocity": 40,
                "duration": 0.08409090909091077,
                "tempo": 120.0
            },
            {
                "start_time": 52.43636363636363,
                "end_time": 52.53636363636363,
                "pitch": 69,
                "velocity": 40,
                "duration": 0.10000000000000142,
                "tempo": 120.0
            },
            {
                "start_time": 52.570454545454545,
                "end_time": 52.67045454545454,
                "pitch": 66,
                "velocity": 40,
                "duration": 0.09999999999999432,
                "tempo": 120.0
            },
            {
                "start_time": 52.70454545454545,
                "end_time": 52.804545454545455,
                "pitch": 64,
                "velocity": 40,
                "duration": 0.10000000000000142,
                "tempo": 120.0
            },
            {
                "start_time": 52.83863636363636,
                "end_time": 52.93863636363636,
                "pitch": 66,
                "velocity": 40,
                "duration": 0.10000000000000142,
                "tempo": 120.0
            },
            {
                "start_time": 52.97272727272727,
                "end_time": 53.07272727272727,
                "pitch": 62,
                "velocity": 40,
                "duration": 0.10000000000000142,
                "tempo": 120.0
            },
            {
                "start_time": 53.10681818181818,
                "end_time": 53.19090909090909,
                "pitch": 60,
                "velocity": 40,
                "duration": 0.08409090909091077,
                "tempo": 120.0
            },
            {
                "start_time": 53.224999999999994,
                "end_time": 53.324999999999996,
                "pitch": 59,
                "velocity": 40,
                "duration": 0.10000000000000142,
                "tempo": 120.0
            },
            {
                "start_time": 53.35909090909091,
                "end_time": 53.459090909090904,
                "pitch": 60,
                "velocity": 40,
                "duration": 0.09999999999999432,
                "tempo": 120.0
            },
            {
                "start_time": 53.49318181818182,
                "end_time": 53.59318181818182,
                "pitch": 59,
                "velocity": 40,
                "duration": 0.10000000000000142,
                "tempo": 120.0
            },
            {
                "start_time": 53.62954545454545,
                "end_time": 53.72954545454545,
                "pitch": 56,
                "velocity": 40,
                "duration": 0.10000000000000142,
                "tempo": 120.0
            },
            {
                "start_time": 53.76363636363636,
                "end_time": 53.849999999999994,
                "pitch": 57,
                "velocity": 40,
                "duration": 0.08636363636363598,
                "tempo": 120.0
            },
            {
                "start_time": 53.88409090909091,
                "end_time": 53.986363636363635,
                "pitch": 59,
                "velocity": 40,
                "duration": 0.10227272727272663,
                "tempo": 120.0
            },
            {
                "start_time": 54.02045454545454,
                "end_time": 54.11818181818182,
                "pitch": 60,
                "velocity": 40,
                "duration": 0.09772727272727622,
                "tempo": 120.0
            },
            {
                "start_time": 54.152272727272724,
                "end_time": 54.25,
                "pitch": 59,
                "velocity": 40,
                "duration": 0.09772727272727622,
                "tempo": 120.0
            },
            {
                "start_time": 54.28409090909091,
                "end_time": 54.37954545454545,
                "pitch": 60,
                "velocity": 40,
                "duration": 0.0954545454545439,
                "tempo": 120.0
            },
            {
                "start_time": 54.413636363636364,
                "end_time": 54.51590909090909,
                "pitch": 62,
                "velocity": 40,
                "duration": 0.10227272727272663,
                "tempo": 120.0
            },
            {
                "start_time": 54.53409090909091,
                "end_time": 54.63636363636363,
                "pitch": 60,
                "velocity": 40,
                "duration": 0.10227272727272663,
                "tempo": 120.0
            },
            {
                "start_time": 54.67272727272727,
                "end_time": 54.775,
                "pitch": 62,
                "velocity": 40,
                "duration": 0.10227272727272663,
                "tempo": 120.0
            },
            {
                "start_time": 54.809090909090905,
                "end_time": 54.90681818181818,
                "pitch": 64,
                "velocity": 40,
                "duration": 0.09772727272727622,
                "tempo": 120.0
            },
            {
                "start_time": 54.94090909090909,
                "end_time": 55.038636363636364,
                "pitch": 66,
                "velocity": 40,
                "duration": 0.09772727272727622,
                "tempo": 120.0
            },
            {
                "start_time": 55.07272727272727,
                "end_time": 55.17045454545454,
                "pitch": 67,
                "velocity": 40,
                "duration": 0.09772727272726911,
                "tempo": 120.0
            },
            {
                "start_time": 55.20454545454545,
                "end_time": 55.288636363636364,
                "pitch": 69,
                "velocity": 40,
                "duration": 0.08409090909091077,
                "tempo": 120.0
            },
            {
                "start_time": 55.324999999999996,
                "end_time": 55.429545454545455,
                "pitch": 64,
                "velocity": 40,
                "duration": 0.10454545454545894,
                "tempo": 120.0
            },
            {
                "start_time": 55.465909090909086,
                "end_time": 55.570454545454545,
                "pitch": 69,
                "velocity": 40,
                "duration": 0.10454545454545894,
                "tempo": 120.0
            },
            {
                "start_time": 55.60681818181818,
                "end_time": 55.70454545454545,
                "pitch": 67,
                "velocity": 40,
                "duration": 0.09772727272727622,
                "tempo": 120.0
            },
            {
                "start_time": 55.73863636363636,
                "end_time": 55.834090909090904,
                "pitch": 64,
                "velocity": 32,
                "duration": 0.0954545454545439,
                "tempo": 120.0
            },
            {
                "start_time": 55.86818181818182,
                "end_time": 55.965909090909086,
                "pitch": 66,
                "velocity": 32,
                "duration": 0.09772727272726911,
                "tempo": 120.0
            },
            {
                "start_time": 55.98181818181818,
                "end_time": 56.07954545454545,
                "pitch": 62,
                "velocity": 32,
                "duration": 0.09772727272727622,
                "tempo": 120.0
            },
            {
                "start_time": 56.11363636363636,
                "end_time": 56.211363636363636,
                "pitch": 64,
                "velocity": 40,
                "duration": 0.09772727272727622,
                "tempo": 120.0
            },
            {
                "start_time": 56.24318181818182,
                "end_time": 56.340909090909086,
                "pitch": 69,
                "velocity": 40,
                "duration": 0.09772727272726911,
                "tempo": 120.0
            },
            {
                "start_time": 56.375,
                "end_time": 56.47727272727273,
                "pitch": 67,
                "velocity": 40,
                "duration": 0.10227272727272663,
                "tempo": 120.0
            },
            {
                "start_time": 56.51136363636363,
                "end_time": 56.61363636363636,
                "pitch": 64,
                "velocity": 32,
                "duration": 0.10227272727272663,
                "tempo": 120.0
            },
            {
                "start_time": 56.65,
                "end_time": 56.73409090909091,
                "pitch": 66,
                "velocity": 32,
                "duration": 0.08409090909091077,
                "tempo": 120.0
            },
            {
                "start_time": 56.768181818181816,
                "end_time": 56.86818181818182,
                "pitch": 67,
                "velocity": 32,
                "duration": 0.10000000000000142,
                "tempo": 120.0
            },
            {
                "start_time": 56.90454545454545,
                "end_time": 57.002272727272725,
                "pitch": 64,
                "velocity": 40,
                "duration": 0.09772727272727622,
                "tempo": 120.0
            },
            {
                "start_time": 57.03636363636363,
                "end_time": 57.13636363636363,
                "pitch": 69,
                "velocity": 40,
                "duration": 0.10000000000000142,
                "tempo": 120.0
            },
            {
                "start_time": 57.17272727272727,
                "end_time": 57.27272727272727,
                "pitch": 67,
                "velocity": 40,
                "duration": 0.10000000000000142,
                "tempo": 120.0
            },
            {
                "start_time": 57.309090909090905,
                "end_time": 57.41136363636363,
                "pitch": 64,
                "velocity": 32,
                "duration": 0.10227272727272663,
                "tempo": 120.0
            },
            {
                "start_time": 57.42727272727272,
                "end_time": 57.52954545454545,
                "pitch": 66,
                "velocity": 32,
                "duration": 0.10227272727272663,
                "tempo": 120.0
            },
            {
                "start_time": 57.56818181818181,
                "end_time": 57.66590909090909,
                "pitch": 62,
                "velocity": 32,
                "duration": 0.09772727272727622,
                "tempo": 120.0
            },
            {
                "start_time": 57.699999999999996,
                "end_time": 57.8,
                "pitch": 64,
                "velocity": 40,
                "duration": 0.10000000000000142,
                "tempo": 120.0
            },
            {
                "start_time": 57.834090909090904,
                "end_time": 57.934090909090905,
                "pitch": 69,
                "velocity": 40,
                "duration": 0.10000000000000142,
                "tempo": 120.0
            },
            {
                "start_time": 57.96818181818182,
                "end_time": 58.06818181818181,
                "pitch": 67,
                "velocity": 40,
                "duration": 0.09999999999999432,
                "tempo": 120.0
            },
            {
                "start_time": 58.10227272727273,
                "end_time": 58.18636363636363,
                "pitch": 64,
                "velocity": 32,
                "duration": 0.08409090909090366,
                "tempo": 120.0
            },
            {
                "start_time": 58.220454545454544,
                "end_time": 58.320454545454545,
                "pitch": 66,
                "velocity": 32,
                "duration": 0.10000000000000142,
                "tempo": 120.0
            },
            {
                "start_time": 58.35681818181818,
                "end_time": 58.45454545454545,
                "pitch": 67,
                "velocity": 32,
                "duration": 0.09772727272727622,
                "tempo": 120.0
            }
        ]
    }
}