{
    "track_id": "08 Battle",
    "mood": "happy",
    "instruments": {
        "Lead 2 (sawtooth)": [
            {
                "start_time": 0.0022727272727272726,
                "end_time": 0.08863636363636364,
                "pitch": 60,
                "velocity": 101,
                "duration": 0.08636363636363636,
                "tempo": 120.0
            },
            {
                "start_time": 0.10227272727272727,
                "end_time": 0.18863636363636363,
                "pitch": 58,
                "velocity": 101,
                "duration": 0.08636363636363636,
                "tempo": 120.0
            },
            {
                "start_time": 0.30227272727272725,
                "end_time": 0.41818181818181815,
                "pitch": 55,
                "velocity": 101,
                "duration": 0.1159090909090909,
                "tempo": 120.0
            },
            {
                "start_time": 0.8363636363636363,
                "end_time": 1.0863636363636364,
                "pitch": 54,
                "velocity": 101,
                "duration": 0.2500000000000001,
                "tempo": 120.0
            },
            {
                "start_time": 1.1045454545454545,
                "end_time": 1.2204545454545455,
                "pitch": 53,
                "velocity": 101,
                "duration": 0.11590909090909096,
                "tempo": 120.0
            },
            {
                "start_time": 1.3704545454545454,
                "end_time": 1.8886363636363634,
                "pitch": 48,
                "velocity": 101,
                "duration": 0.5181818181818181,
                "tempo": 120.0
            },
            {
                "start_time": 2.043181818181818,
                "end_time": 2.127272727272727,
                "pitch": 50,
                "velocity": 101,
                "duration": 0.084090909090909,
                "tempo": 120.0
            },
            {
                "start_time": 2.452272727272727,
                "end_time": 2.536363636363636,
                "pitch": 50,
                "velocity": 101,
                "duration": 0.084090909090909,
                "tempo": 120.0
            },
            {
                "start_time": 2.859090909090909,
                "end_time": 2.943181818181818,
                "pitch": 50,
                "velocity": 101,
                "duration": 0.084090909090909,
                "tempo": 120.0
            },
            {
                "start_time": 3.2636363636363637,
                "end_time": 3.3454545454545452,
                "pitch": 50,
                "velocity": 101,
                "duration": 0.08181818181818157,
                "tempo": 120.0
            },
            {
                "start_time": 3.668181818181818,
                "end_time": 3.752272727272727,
                "pitch": 50,
                "velocity": 101,
                "duration": 0.084090909090909,
                "tempo": 120.0
            },
            {
                "start_time": 3.9386363636363635,
                "end_time": 4.0227272727272725,
                "pitch": 50,
                "velocity": 101,
                "duration": 0.084090909090909,
                "tempo": 120.0
            },
            {
                "start_time": 4.209090909090909,
                "end_time": 4.293181818181818,
                "pitch": 50,
                "velocity": 101,
                "duration": 0.084090909090909,
                "tempo": 120.0
            },
            {
                "start_time": 4.611363636363636,
                "end_time": 4.693181818181818,
                "pitch": 50,
                "velocity": 101,
                "duration": 0.08181818181818201,
                "tempo": 120.0
            },
            {
                "start_time": 5.011363636363636,
                "end_time": 5.095454545454545,
                "pitch": 50,
                "velocity": 101,
                "duration": 0.084090909090909,
                "tempo": 120.0
            },
            {
                "start_time": 5.418181818181818,
                "end_time": 5.502272727272727,
                "pitch": 50,
                "velocity": 101,
                "duration": 0.084090909090909,
                "tempo": 120.0
            },
            {
                "start_time": 5.824999999999999,
                "end_time": 5.906818181818181,
                "pitch": 50,
                "velocity": 101,
                "duration": 0.08181818181818201,
                "tempo": 120.0
            },
            {
                "start_time": 6.090909090909091,
                "end_time": 6.175,
                "pitch": 50,
                "velocity": 101,
                "duration": 0.084090909090909,
                "tempo": 120.0
            },
            {
                "start_time": 6.361363636363636,
                "end_time": 6.363636363636363,
                "pitch": 50,
                "velocity": 80,
                "duration": 0.002272727272726982,
                "tempo": 120.0
            },
            {
                "start_time": 2.043181818181818,
                "end_time": 7.0204545454545455,
                "pitch": 48,
                "velocity": 101,
                "duration": 4.9772727272727275,
                "tempo": 120.0
            },
            {
                "start_time": 6.363636363636363,
                "end_time": 7.0204545454545455,
                "pitch": 48,
                "velocity": 80,
                "duration": 0.6568181818181822,
                "tempo": 120.0
            },
            {
                "start_time": 1.3704545454545454,
                "end_time": 7.154545454545454,
                "pitch": 51,
                "velocity": 101,
                "duration": 5.784090909090909,
                "tempo": 120.0
            },
            {
                "start_time": 7.038636363636363,
                "end_time": 7.154545454545454,
                "pitch": 51,
                "velocity": 80,
                "duration": 0.11590909090909118,
                "tempo": 120.0
            },
            {
                "start_time": 7.172727272727272,
                "end_time": 7.288636363636363,
                "pitch": 55,
                "velocity": 80,
                "duration": 0.11590909090909118,
                "tempo": 120.0
            },
            {
                "start_time": 7.840909090909091,
                "end_time": 8.368181818181817,
                "pitch": 50,
                "velocity": 80,
                "duration": 0.5272727272727264,
                "tempo": 120.0
            },
            {
                "start_time": 8.386363636363637,
                "end_time": 8.902272727272727,
                "pitch": 50,
                "velocity": 80,
                "duration": 0.5159090909090907,
                "tempo": 120.0
            },
            {
                "start_time": 9.329545454545453,
                "end_time": 9.447727272727272,
                "pitch": 72,
                "velocity": 32,
                "duration": 0.11818181818181905,
                "tempo": 120.0
            },
            {
                "start_time": 9.329545454545453,
                "end_time": 9.581818181818182,
                "pitch": 75,
                "velocity": 32,
                "duration": 0.25227272727272876,
                "tempo": 120.0
            },
            {
                "start_time": 9.46590909090909,
                "end_time": 9.581818181818182,
                "pitch": 75,
                "velocity": 32,
                "duration": 0.11590909090909207,
                "tempo": 120.0
            },
            {
                "start_time": 9.6,
                "end_time": 9.71590909090909,
                "pitch": 79,
                "velocity": 32,
                "duration": 0.1159090909090903,
                "tempo": 120.0
            },
            {
                "start_time": 9.73181818181818,
                "end_time": 9.85,
                "pitch": 82,
                "velocity": 32,
                "duration": 0.11818181818181905,
                "tempo": 120.0
            },
            {
                "start_time": 10.134090909090908,
                "end_time": 10.25,
                "pitch": 82,
                "velocity": 32,
                "duration": 0.11590909090909207,
                "tempo": 120.0
            },
            {
                "start_time": 7.038636363636363,
                "end_time": 11.329545454545453,
                "pitch": 48,
                "velocity": 80,
                "duration": 4.29090909090909,
                "tempo": 120.0
            },
            {
                "start_time": 10.536363636363635,
                "end_time": 11.329545454545453,
                "pitch": 48,
                "velocity": 80,
                "duration": 0.793181818181818,
                "tempo": 120.0
            },
            {
                "start_time": 11.347727272727273,
                "end_time": 11.463636363636363,
                "pitch": 51,
                "velocity": 80,
                "duration": 0.1159090909090903,
                "tempo": 120.0
            },
            {
                "start_time": 7.172727272727272,
                "end_time": 11.48181818181818,
                "pitch": 65,
                "velocity": 80,
                "duration": 4.309090909090909,
                "tempo": 120.0
            },
            {
                "start_time": 11.48181818181818,
                "end_time": 11.597727272727273,
                "pitch": 55,
                "velocity": 80,
                "duration": 0.11590909090909207,
                "tempo": 120.0
            },
            {
                "start_time": 0.30227272727272725,
                "end_time": 12.677272727272726,
                "pitch": 58,
                "velocity": 101,
                "duration": 12.374999999999998,
                "tempo": 120.0
            },
            {
                "start_time": 12.159090909090908,
                "end_time": 12.677272727272726,
                "pitch": 58,
                "velocity": 80,
                "duration": 0.5181818181818176,
                "tempo": 120.0
            },
            {
                "start_time": 12.695454545454545,
                "end_time": 13.213636363636363,
                "pitch": 55,
                "velocity": 80,
                "duration": 0.5181818181818176,
                "tempo": 120.0
            },
            {
                "start_time": 9.46590909090909,
                "end_time": 13.756818181818181,
                "pitch": 72,
                "velocity": 32,
                "duration": 4.290909090909091,
                "tempo": 120.0
            },
            {
                "start_time": 13.638636363636364,
                "end_time": 13.756818181818181,
                "pitch": 72,
                "velocity": 32,
                "duration": 0.11818181818181728,
                "tempo": 120.0
            },
            {
                "start_time": 13.774999999999999,
                "end_time": 13.89090909090909,
                "pitch": 75,
                "velocity": 32,
                "duration": 0.11590909090909207,
                "tempo": 120.0
            },
            {
                "start_time": 9.6,
                "end_time": 13.909090909090908,
                "pitch": 89,
                "velocity": 32,
                "duration": 4.309090909090909,
                "tempo": 120.0
            },
            {
                "start_time": 9.73181818181818,
                "end_time": 14.024999999999999,
                "pitch": 79,
                "velocity": 32,
                "duration": 4.293181818181818,
                "tempo": 120.0
            },
            {
                "start_time": 13.909090909090908,
                "end_time": 14.024999999999999,
                "pitch": 79,
                "velocity": 32,
                "duration": 0.1159090909090903,
                "tempo": 120.0
            },
            {
                "start_time": 14.040909090909091,
                "end_time": 14.043181818181818,
                "pitch": 79,
                "velocity": 32,
                "duration": 0.002272727272726982,
                "tempo": 120.0
            },
            {
                "start_time": 14.043181818181818,
                "end_time": 14.159090909090908,
                "pitch": 82,
                "velocity": 32,
                "duration": 0.1159090909090903,
                "tempo": 120.0
            },
            {
                "start_time": 14.443181818181818,
                "end_time": 14.559090909090909,
                "pitch": 82,
                "velocity": 32,
                "duration": 0.1159090909090903,
                "tempo": 120.0
            },
            {
                "start_time": 10.536363636363635,
                "end_time": 14.845454545454544,
                "pitch": 27,
                "velocity": 80,
                "duration": 4.309090909090909,
                "tempo": 120.0
            },
            {
                "start_time": 11.347727272727273,
                "end_time": 15.1,
                "pitch": 48,
                "velocity": 80,
                "duration": 3.752272727272727,
                "tempo": 120.0
            },
            {
                "start_time": 14.845454545454544,
                "end_time": 15.1,
                "pitch": 48,
                "velocity": 80,
                "duration": 0.25454545454545574,
                "tempo": 120.0
            },
            {
                "start_time": 15.118181818181817,
                "end_time": 15.236363636363636,
                "pitch": 50,
                "velocity": 80,
                "duration": 0.11818181818181905,
                "tempo": 120.0
            },
            {
                "start_time": 15.252272727272727,
                "end_time": 15.372727272727271,
                "pitch": 50,
                "velocity": 80,
                "duration": 0.12045454545454426,
                "tempo": 120.0
            },
            {
                "start_time": 15.388636363636364,
                "end_time": 15.643181818181818,
                "pitch": 51,
                "velocity": 80,
                "duration": 0.25454545454545396,
                "tempo": 120.0
            },
            {
                "start_time": 15.661363636363635,
                "end_time": 15.779545454545454,
                "pitch": 55,
                "velocity": 80,
                "duration": 0.11818181818181905,
                "tempo": 120.0
            },
            {
                "start_time": 12.695454545454545,
                "end_time": 16.05,
                "pitch": 58,
                "velocity": 80,
                "duration": 3.3545454545454554,
                "tempo": 120.0
            },
            {
                "start_time": 15.934090909090909,
                "end_time": 16.05,
                "pitch": 58,
                "velocity": 80,
                "duration": 0.11590909090909207,
                "tempo": 120.0
            },
            {
                "start_time": 16.068181818181817,
                "end_time": 16.452272727272728,
                "pitch": 58,
                "velocity": 80,
                "duration": 0.3840909090909115,
                "tempo": 120.0
            },
            {
                "start_time": 16.470454545454544,
                "end_time": 16.986363636363635,
                "pitch": 56,
                "velocity": 80,
                "duration": 0.5159090909090907,
                "tempo": 120.0
            },
            {
                "start_time": 17.004545454545454,
                "end_time": 17.53181818181818,
                "pitch": 60,
                "velocity": 80,
                "duration": 0.5272727272727273,
                "tempo": 120.0
            },
            {
                "start_time": 15.118181818181817,
                "end_time": 17.66590909090909,
                "pitch": 48,
                "velocity": 80,
                "duration": 2.547727272727272,
                "tempo": 120.0
            },
            {
                "start_time": 17.55,
                "end_time": 17.66590909090909,
                "pitch": 48,
                "velocity": 80,
                "duration": 0.11590909090908852,
                "tempo": 120.0
            },
            {
                "start_time": 17.68409090909091,
                "end_time": 17.8,
                "pitch": 50,
                "velocity": 80,
                "duration": 0.11590909090909207,
                "tempo": 120.0
            },
            {
                "start_time": 17.81590909090909,
                "end_time": 17.93409090909091,
                "pitch": 50,
                "velocity": 80,
                "duration": 0.11818181818181728,
                "tempo": 120.0
            },
            {
                "start_time": 17.95,
                "end_time": 18.068181818181817,
                "pitch": 51,
                "velocity": 80,
                "duration": 0.11818181818181728,
                "tempo": 120.0
            },
            {
                "start_time": 15.661363636363635,
                "end_time": 18.084090909090907,
                "pitch": 66,
                "velocity": 80,
                "duration": 2.422727272727272,
                "tempo": 120.0
            },
            {
                "start_time": 15.934090909090909,
                "end_time": 18.202272727272728,
                "pitch": 55,
                "velocity": 80,
                "duration": 2.2681818181818194,
                "tempo": 120.0
            },
            {
                "start_time": 18.084090909090907,
                "end_time": 18.202272727272728,
                "pitch": 55,
                "velocity": 80,
                "duration": 0.11818181818182083,
                "tempo": 120.0
            },
            {
                "start_time": 17.68409090909091,
                "end_time": 18.745454545454546,
                "pitch": 48,
                "velocity": 80,
                "duration": 1.0613636363636374,
                "tempo": 120.0
            },
            {
                "start_time": 18.629545454545454,
                "end_time": 18.745454545454546,
                "pitch": 48,
                "velocity": 80,
                "duration": 0.11590909090909207,
                "tempo": 120.0
            },
            {
                "start_time": 19.163636363636364,
                "end_time": 19.418181818181818,
                "pitch": 48,
                "velocity": 80,
                "duration": 0.25454545454545396,
                "tempo": 120.0
            },
            {
                "start_time": 19.436363636363634,
                "end_time": 19.554545454545455,
                "pitch": 50,
                "velocity": 80,
                "duration": 0.11818181818182083,
                "tempo": 120.0
            },
            {
                "start_time": 19.57272727272727,
                "end_time": 19.69090909090909,
                "pitch": 50,
                "velocity": 80,
                "duration": 0.11818181818182083,
                "tempo": 120.0
            },
            {
                "start_time": 19.709090909090907,
                "end_time": 19.959090909090907,
                "pitch": 51,
                "velocity": 80,
                "duration": 0.25,
                "tempo": 120.0
            },
            {
                "start_time": 18.084090909090907,
                "end_time": 19.977272727272727,
                "pitch": 66,
                "velocity": 80,
                "duration": 1.8931818181818194,
                "tempo": 120.0
            },
            {
                "start_time": 19.977272727272727,
                "end_time": 20.09318181818182,
                "pitch": 55,
                "velocity": 80,
                "duration": 0.11590909090909207,
                "tempo": 120.0
            },
            {
                "start_time": 20.243181818181817,
                "end_time": 20.361363636363635,
                "pitch": 58,
                "velocity": 80,
                "duration": 0.11818181818181728,
                "tempo": 120.0
            },
            {
                "start_time": 20.377272727272725,
                "end_time": 20.761363636363637,
                "pitch": 58,
                "velocity": 80,
                "duration": 0.3840909090909115,
                "tempo": 120.0
            },
            {
                "start_time": 20.779545454545453,
                "end_time": 21.30681818181818,
                "pitch": 56,
                "velocity": 80,
                "duration": 0.5272727272727273,
                "tempo": 120.0
            },
            {
                "start_time": 20.243181818181817,
                "end_time": 22.127272727272725,
                "pitch": 55,
                "velocity": 80,
                "duration": 1.884090909090908,
                "tempo": 120.0
            },
            {
                "start_time": 21.325,
                "end_time": 22.127272727272725,
                "pitch": 55,
                "velocity": 80,
                "duration": 0.8022727272727259,
                "tempo": 120.0
            },
            {
                "start_time": 22.127272727272725,
                "end_time": 22.243181818181817,
                "pitch": 47,
                "velocity": 80,
                "duration": 0.11590909090909207,
                "tempo": 120.0
            },
            {
                "start_time": 22.261363636363637,
                "end_time": 22.393181818181816,
                "pitch": 50,
                "velocity": 80,
                "duration": 0.13181818181817917,
                "tempo": 120.0
            },
            {
                "start_time": 22.393181818181816,
                "end_time": 22.511363636363637,
                "pitch": 53,
                "velocity": 80,
                "duration": 0.11818181818182083,
                "tempo": 120.0
            },
            {
                "start_time": 19.977272727272727,
                "end_time": 22.527272727272727,
                "pitch": 66,
                "velocity": 80,
                "duration": 2.5500000000000007,
                "tempo": 120.0
            },
            {
                "start_time": 22.527272727272727,
                "end_time": 22.643181818181816,
                "pitch": 55,
                "velocity": 80,
                "duration": 0.11590909090908852,
                "tempo": 120.0
            },
            {
                "start_time": 22.929545454545455,
                "end_time": 23.268181818181816,
                "pitch": 55,
                "velocity": 80,
                "duration": 0.3386363636363612,
                "tempo": 120.0
            },
            {
                "start_time": 23.268181818181816,
                "end_time": 23.320454545454545,
                "pitch": 53,
                "velocity": 80,
                "duration": 0.05227272727272947,
                "tempo": 120.0
            },
            {
                "start_time": 23.320454545454545,
                "end_time": 23.370454545454546,
                "pitch": 51,
                "velocity": 80,
                "duration": 0.05000000000000071,
                "tempo": 120.0
            },
            {
                "start_time": 23.370454545454546,
                "end_time": 23.422727272727272,
                "pitch": 49,
                "velocity": 80,
                "duration": 0.052272727272725916,
                "tempo": 120.0
            },
            {
                "start_time": 23.422727272727272,
                "end_time": 23.456818181818182,
                "pitch": 46,
                "velocity": 80,
                "duration": 0.03409090909091006,
                "tempo": 120.0
            },
            {
                "start_time": 19.436363636363634,
                "end_time": 27.229545454545452,
                "pitch": 48,
                "velocity": 80,
                "duration": 7.793181818181818,
                "tempo": 120.0
            },
            {
                "start_time": 27.111363636363635,
                "end_time": 27.229545454545452,
                "pitch": 48,
                "velocity": 51,
                "duration": 0.11818181818181728,
                "tempo": 120.0
            },
            {
                "start_time": 27.24772727272727,
                "end_time": 27.363636363636363,
                "pitch": 48,
                "velocity": 51,
                "duration": 0.11590909090909207,
                "tempo": 120.0
            },
            {
                "start_time": 27.38181818181818,
                "end_time": 27.49772727272727,
                "pitch": 50,
                "velocity": 51,
                "duration": 0.11590909090909207,
                "tempo": 120.0
            },
            {
                "start_time": 27.38181818181818,
                "end_time": 27.63181818181818,
                "pitch": 48,
                "velocity": 51,
                "duration": 0.25,
                "tempo": 120.0
            },
            {
                "start_time": 27.51590909090909,
                "end_time": 27.63181818181818,
                "pitch": 48,
                "velocity": 51,
                "duration": 0.11590909090908852,
                "tempo": 120.0
            },
            {
                "start_time": 27.65,
                "end_time": 27.76590909090909,
                "pitch": 46,
                "velocity": 51,
                "duration": 0.11590909090909207,
                "tempo": 120.0
            },
            {
                "start_time": 31.422727272727272,
                "end_time": 31.54090909090909,
                "pitch": 48,
                "velocity": 51,
                "duration": 0.11818181818181728,
                "tempo": 120.0
            },
            {
                "start_time": 31.55909090909091,
                "end_time": 31.677272727272726,
                "pitch": 48,
                "velocity": 51,
                "duration": 0.11818181818181728,
                "tempo": 120.0
            },
            {
                "start_time": 27.51590909090909,
                "end_time": 31.811363636363634,
                "pitch": 50,
                "velocity": 51,
                "duration": 4.295454545454543,
                "tempo": 120.0
            },
            {
                "start_time": 31.693181818181817,
                "end_time": 31.811363636363634,
                "pitch": 50,
                "velocity": 51,
                "duration": 0.11818181818181728,
                "tempo": 120.0
            },
            {
                "start_time": 31.693181818181817,
                "end_time": 31.94772727272727,
                "pitch": 48,
                "velocity": 51,
                "duration": 0.25454545454545396,
                "tempo": 120.0
            },
            {
                "start_time": 31.829545454545453,
                "end_time": 31.94772727272727,
                "pitch": 48,
                "velocity": 51,
                "duration": 0.11818181818181728,
                "tempo": 120.0
            },
            {
                "start_time": 27.65,
                "end_time": 31.96590909090909,
                "pitch": 52,
                "velocity": 51,
                "duration": 4.315909090909091,
                "tempo": 120.0
            },
            {
                "start_time": 31.96590909090909,
                "end_time": 32.08409090909091,
                "pitch": 46,
                "velocity": 51,
                "duration": 0.11818181818182083,
                "tempo": 120.0
            },
            {
                "start_time": 35.73409090909091,
                "end_time": 35.85,
                "pitch": 48,
                "velocity": 51,
                "duration": 0.11590909090909207,
                "tempo": 120.0
            },
            {
                "start_time": 35.86818181818182,
                "end_time": 36.00454545454545,
                "pitch": 48,
                "velocity": 80,
                "duration": 0.13636363636363313,
                "tempo": 120.0
            },
            {
                "start_time": 31.96590909090909,
                "end_time": 36.00454545454545,
                "pitch": 52,
                "velocity": 51,
                "duration": 4.0386363636363605,
                "tempo": 120.0
            },
            {
                "start_time": 36.00454545454545,
                "end_time": 36.12272727272727,
                "pitch": 46,
                "velocity": 80,
                "duration": 0.11818181818181728,
                "tempo": 120.0
            },
            {
                "start_time": 36.14090909090909,
                "end_time": 36.39545454545454,
                "pitch": 46,
                "velocity": 80,
                "duration": 0.2545454545454504,
                "tempo": 120.0
            },
            {
                "start_time": 14.845454545454544,
                "end_time": 36.413636363636364,
                "pitch": 27,
                "velocity": 80,
                "duration": 21.56818181818182,
                "tempo": 120.0
            },
            {
                "start_time": 36.41136363636363,
                "end_time": 36.413636363636364,
                "pitch": 27,
                "velocity": 80,
                "duration": 0.002272727272732311,
                "tempo": 120.0
            },
            {
                "start_time": 36.413636363636364,
                "end_time": 36.66136363636363,
                "pitch": 48,
                "velocity": 80,
                "duration": 0.2477272727272677,
                "tempo": 120.0
            },
            {
                "start_time": 31.829545454545453,
                "end_time": 36.929545454545455,
                "pitch": 50,
                "velocity": 51,
                "duration": 5.100000000000001,
                "tempo": 120.0
            },
            {
                "start_time": 36.81363636363636,
                "end_time": 36.929545454545455,
                "pitch": 50,
                "velocity": 80,
                "duration": 0.11590909090909207,
                "tempo": 120.0
            },
            {
                "start_time": 37.08409090909091,
                "end_time": 37.20227272727273,
                "pitch": 50,
                "velocity": 80,
                "duration": 0.11818181818181728,
                "tempo": 120.0
            },
            {
                "start_time": 11.48181818181818,
                "end_time": 37.35681818181818,
                "pitch": 65,
                "velocity": 80,
                "duration": 25.874999999999996,
                "tempo": 120.0
            },
            {
                "start_time": 37.35681818181818,
                "end_time": 37.475,
                "pitch": 55,
                "velocity": 80,
                "duration": 0.11818181818182438,
                "tempo": 120.0
            },
            {
                "start_time": 7.840909090909091,
                "end_time": 38.277272727272724,
                "pitch": 54,
                "velocity": 80,
                "duration": 30.436363636363634,
                "tempo": 120.0
            },
            {
                "start_time": 38.16136363636363,
                "end_time": 38.277272727272724,
                "pitch": 54,
                "velocity": 80,
                "duration": 0.11590909090909207,
                "tempo": 120.0
            },
            {
                "start_time": 38.429545454545455,
                "end_time": 38.54545454545455,
                "pitch": 53,
                "velocity": 80,
                "duration": 0.11590909090909207,
                "tempo": 120.0
            },
            {
                "start_time": 36.81363636363636,
                "end_time": 38.81590909090909,
                "pitch": 48,
                "velocity": 80,
                "duration": 2.002272727272725,
                "tempo": 120.0
            },
            {
                "start_time": 38.56136363636364,
                "end_time": 38.81590909090909,
                "pitch": 48,
                "velocity": 80,
                "duration": 0.2545454545454504,
                "tempo": 120.0
            },
            {
                "start_time": 38.970454545454544,
                "end_time": 39.08863636363636,
                "pitch": 50,
                "velocity": 80,
                "duration": 0.11818181818181728,
                "tempo": 120.0
            },
            {
                "start_time": 39.24318181818182,
                "end_time": 39.361363636363635,
                "pitch": 50,
                "velocity": 80,
                "duration": 0.11818181818181728,
                "tempo": 120.0
            },
            {
                "start_time": 37.35681818181818,
                "end_time": 39.37954545454545,
                "pitch": 65,
                "velocity": 80,
                "duration": 2.0227272727272734,
                "tempo": 120.0
            },
            {
                "start_time": 39.37954545454545,
                "end_time": 39.63409090909091,
                "pitch": 55,
                "velocity": 80,
                "duration": 0.2545454545454575,
                "tempo": 120.0
            },
            {
                "start_time": 21.325,
                "end_time": 40.304545454545455,
                "pitch": 58,
                "velocity": 80,
                "duration": 18.979545454545455,
                "tempo": 120.0
            },
            {
                "start_time": 39.652272727272724,
                "end_time": 40.304545454545455,
                "pitch": 58,
                "velocity": 80,
                "duration": 0.6522727272727309,
                "tempo": 120.0
            },
            {
                "start_time": 40.320454545454545,
                "end_time": 40.840909090909086,
                "pitch": 58,
                "velocity": 80,
                "duration": 0.5204545454545411,
                "tempo": 120.0
            },
            {
                "start_time": 40.85909090909091,
                "end_time": 40.97727272727273,
                "pitch": 60,
                "velocity": 101,
                "duration": 0.11818181818181728,
                "tempo": 120.0
            },
            {
                "start_time": 0.10227272727272727,
                "end_time": 40.99318181818182,
                "pitch": 64,
                "velocity": 101,
                "duration": 40.89090909090909,
                "tempo": 120.0
            },
            {
                "start_time": 40.99318181818182,
                "end_time": 40.99772727272727,
                "pitch": 58,
                "velocity": 101,
                "duration": 0.004545454545450411,
                "tempo": 120.0
            }
        ],
        "Clarinet": [
            {
                "start_time": 23.474999999999998,
                "end_time": 23.85681818181818,
                "pitch": 60,
                "velocity": 101,
                "duration": 0.3818181818181827,
                "tempo": 120.0
            },
            {
                "start_time": 23.875,
                "end_time": 24.127272727272725,
                "pitch": 62,
                "velocity": 101,
                "duration": 0.2522727272727252,
                "tempo": 120.0
            },
            {
                "start_time": 24.145454545454545,
                "end_time": 24.4,
                "pitch": 63,
                "velocity": 101,
                "duration": 0.25454545454545396,
                "tempo": 120.0
            },
            {
                "start_time": 24.41590909090909,
                "end_time": 24.536363636363635,
                "pitch": 67,
                "velocity": 101,
                "duration": 0.12045454545454604,
                "tempo": 120.0
            },
            {
                "start_time": 25.08863636363636,
                "end_time": 25.206818181818182,
                "pitch": 63,
                "velocity": 101,
                "duration": 0.11818181818182083,
                "tempo": 120.0
            },
            {
                "start_time": 25.224999999999998,
                "end_time": 25.34318181818182,
                "pitch": 66,
                "velocity": 101,
                "duration": 0.11818181818182083,
                "tempo": 120.0
            },
            {
                "start_time": 25.361363636363635,
                "end_time": 25.61590909090909,
                "pitch": 67,
                "velocity": 101,
                "duration": 0.25454545454545396,
                "tempo": 120.0
            },
            {
                "start_time": 25.63181818181818,
                "end_time": 26.018181818181816,
                "pitch": 60,
                "velocity": 101,
                "duration": 0.3863636363636367,
                "tempo": 120.0
            },
            {
                "start_time": 23.875,
                "end_time": 26.034090909090907,
                "pitch": 59,
                "velocity": 101,
                "duration": 2.1590909090909065,
                "tempo": 120.0
            },
            {
                "start_time": 26.034090909090907,
                "end_time": 26.284090909090907,
                "pitch": 62,
                "velocity": 101,
                "duration": 0.25,
                "tempo": 120.0
            },
            {
                "start_time": 24.145454545454545,
                "end_time": 26.302272727272726,
                "pitch": 61,
                "velocity": 101,
                "duration": 2.1568181818181813,
                "tempo": 120.0
            },
            {
                "start_time": 25.224999999999998,
                "end_time": 26.552272727272726,
                "pitch": 63,
                "velocity": 101,
                "duration": 1.327272727272728,
                "tempo": 120.0
            },
            {
                "start_time": 26.302272727272726,
                "end_time": 26.552272727272726,
                "pitch": 63,
                "velocity": 101,
                "duration": 0.25,
                "tempo": 120.0
            },
            {
                "start_time": 24.41590909090909,
                "end_time": 26.568181818181817,
                "pitch": 77,
                "velocity": 101,
                "duration": 2.1522727272727273,
                "tempo": 120.0
            },
            {
                "start_time": 26.568181818181817,
                "end_time": 26.686363636363634,
                "pitch": 67,
                "velocity": 101,
                "duration": 0.11818181818181728,
                "tempo": 120.0
            },
            {
                "start_time": 27.784090909090907,
                "end_time": 28.172727272727272,
                "pitch": 60,
                "velocity": 101,
                "duration": 0.38863636363636545,
                "tempo": 120.0
            },
            {
                "start_time": 26.034090909090907,
                "end_time": 28.190909090909088,
                "pitch": 59,
                "velocity": 101,
                "duration": 2.1568181818181813,
                "tempo": 120.0
            },
            {
                "start_time": 28.190909090909088,
                "end_time": 28.443181818181817,
                "pitch": 62,
                "velocity": 101,
                "duration": 0.25227272727272876,
                "tempo": 120.0
            },
            {
                "start_time": 26.302272727272726,
                "end_time": 28.461363636363636,
                "pitch": 61,
                "velocity": 101,
                "duration": 2.15909090909091,
                "tempo": 120.0
            },
            {
                "start_time": 28.461363636363636,
                "end_time": 28.711363636363636,
                "pitch": 63,
                "velocity": 101,
                "duration": 0.25,
                "tempo": 120.0
            },
            {
                "start_time": 26.568181818181817,
                "end_time": 28.729545454545452,
                "pitch": 77,
                "velocity": 101,
                "duration": 2.1613636363636353,
                "tempo": 120.0
            },
            {
                "start_time": 28.729545454545452,
                "end_time": 28.845454545454544,
                "pitch": 67,
                "velocity": 101,
                "duration": 0.11590909090909207,
                "tempo": 120.0
            },
            {
                "start_time": 25.08863636363636,
                "end_time": 29.40681818181818,
                "pitch": 65,
                "velocity": 101,
                "duration": 4.31818181818182,
                "tempo": 120.0
            },
            {
                "start_time": 29.40681818181818,
                "end_time": 29.525,
                "pitch": 63,
                "velocity": 101,
                "duration": 0.11818181818181728,
                "tempo": 120.0
            },
            {
                "start_time": 25.63181818181818,
                "end_time": 29.65681818181818,
                "pitch": 66,
                "velocity": 101,
                "duration": 4.025000000000002,
                "tempo": 120.0
            },
            {
                "start_time": 29.54090909090909,
                "end_time": 29.65681818181818,
                "pitch": 66,
                "velocity": 101,
                "duration": 0.11590909090909207,
                "tempo": 120.0
            },
            {
                "start_time": 25.361363636363635,
                "end_time": 29.674999999999997,
                "pitch": 78,
                "velocity": 101,
                "duration": 4.313636363636363,
                "tempo": 120.0
            },
            {
                "start_time": 29.674999999999997,
                "end_time": 29.924999999999997,
                "pitch": 67,
                "velocity": 101,
                "duration": 0.25,
                "tempo": 120.0
            },
            {
                "start_time": 29.943181818181817,
                "end_time": 30.327272727272724,
                "pitch": 60,
                "velocity": 101,
                "duration": 0.38409090909090793,
                "tempo": 120.0
            },
            {
                "start_time": 28.190909090909088,
                "end_time": 30.343181818181815,
                "pitch": 59,
                "velocity": 101,
                "duration": 2.1522727272727273,
                "tempo": 120.0
            },
            {
                "start_time": 30.343181818181815,
                "end_time": 30.593181818181815,
                "pitch": 62,
                "velocity": 101,
                "duration": 0.25,
                "tempo": 120.0
            },
            {
                "start_time": 28.461363636363636,
                "end_time": 30.611363636363635,
                "pitch": 61,
                "velocity": 101,
                "duration": 2.1499999999999986,
                "tempo": 120.0
            },
            {
                "start_time": 29.54090909090909,
                "end_time": 30.861363636363635,
                "pitch": 63,
                "velocity": 101,
                "duration": 1.3204545454545453,
                "tempo": 120.0
            },
            {
                "start_time": 30.611363636363635,
                "end_time": 30.861363636363635,
                "pitch": 63,
                "velocity": 101,
                "duration": 0.25,
                "tempo": 120.0
            },
            {
                "start_time": 28.729545454545452,
                "end_time": 30.879545454545454,
                "pitch": 77,
                "velocity": 101,
                "duration": 2.150000000000002,
                "tempo": 120.0
            },
            {
                "start_time": 30.879545454545454,
                "end_time": 30.995454545454542,
                "pitch": 67,
                "velocity": 101,
                "duration": 0.11590909090908852,
                "tempo": 120.0
            },
            {
                "start_time": 27.784090909090907,
                "end_time": 32.10227272727273,
                "pitch": 38,
                "velocity": 101,
                "duration": 4.31818181818182,
                "tempo": 120.0
            },
            {
                "start_time": 32.10227272727273,
                "end_time": 32.486363636363635,
                "pitch": 60,
                "velocity": 101,
                "duration": 0.38409090909090793,
                "tempo": 120.0
            },
            {
                "start_time": 30.343181818181815,
                "end_time": 32.50454545454545,
                "pitch": 59,
                "velocity": 101,
                "duration": 2.1613636363636353,
                "tempo": 120.0
            },
            {
                "start_time": 32.50454545454545,
                "end_time": 32.75454545454545,
                "pitch": 62,
                "velocity": 101,
                "duration": 0.25,
                "tempo": 120.0
            },
            {
                "start_time": 30.611363636363635,
                "end_time": 32.77045454545454,
                "pitch": 61,
                "velocity": 101,
                "duration": 2.1590909090909065,
                "tempo": 120.0
            },
            {
                "start_time": 32.77045454545454,
                "end_time": 33.02045454545454,
                "pitch": 63,
                "velocity": 101,
                "duration": 0.25,
                "tempo": 120.0
            },
            {
                "start_time": 30.879545454545454,
                "end_time": 33.038636363636364,
                "pitch": 77,
                "velocity": 101,
                "duration": 2.15909090909091,
                "tempo": 120.0
            },
            {
                "start_time": 33.038636363636364,
                "end_time": 33.154545454545456,
                "pitch": 67,
                "velocity": 101,
                "duration": 0.11590909090909207,
                "tempo": 120.0
            },
            {
                "start_time": 29.40681818181818,
                "end_time": 33.715909090909086,
                "pitch": 65,
                "velocity": 101,
                "duration": 4.309090909090905,
                "tempo": 120.0
            },
            {
                "start_time": 33.715909090909086,
                "end_time": 33.83409090909091,
                "pitch": 63,
                "velocity": 101,
                "duration": 0.11818181818182438,
                "tempo": 120.0
            },
            {
                "start_time": 29.943181818181817,
                "end_time": 33.96818181818182,
                "pitch": 66,
                "velocity": 101,
                "duration": 4.025000000000002,
                "tempo": 120.0
            },
            {
                "start_time": 33.85,
                "end_time": 33.96818181818182,
                "pitch": 66,
                "velocity": 101,
                "duration": 0.11818181818181728,
                "tempo": 120.0
            },
            {
                "start_time": 29.674999999999997,
                "end_time": 33.98409090909091,
                "pitch": 78,
                "velocity": 101,
                "duration": 4.309090909090912,
                "tempo": 120.0
            },
            {
                "start_time": 33.98409090909091,
                "end_time": 34.23409090909091,
                "pitch": 67,
                "velocity": 101,
                "duration": 0.25,
                "tempo": 120.0
            },
            {
                "start_time": 34.252272727272725,
                "end_time": 34.643181818181816,
                "pitch": 60,
                "velocity": 101,
                "duration": 0.39090909090909065,
                "tempo": 120.0
            },
            {
                "start_time": 32.50454545454545,
                "end_time": 34.66136363636363,
                "pitch": 59,
                "velocity": 101,
                "duration": 2.1568181818181813,
                "tempo": 120.0
            },
            {
                "start_time": 34.66136363636363,
                "end_time": 34.913636363636364,
                "pitch": 62,
                "velocity": 101,
                "duration": 0.2522727272727323,
                "tempo": 120.0
            },
            {
                "start_time": 32.77045454545454,
                "end_time": 34.929545454545455,
                "pitch": 61,
                "velocity": 101,
                "duration": 2.1590909090909136,
                "tempo": 120.0
            },
            {
                "start_time": 33.85,
                "end_time": 35.18181818181818,
                "pitch": 63,
                "velocity": 101,
                "duration": 1.3318181818181785,
                "tempo": 120.0
            },
            {
                "start_time": 34.929545454545455,
                "end_time": 35.18181818181818,
                "pitch": 63,
                "velocity": 101,
                "duration": 0.2522727272727252,
                "tempo": 120.0
            },
            {
                "start_time": 33.038636363636364,
                "end_time": 35.19772727272727,
                "pitch": 77,
                "velocity": 101,
                "duration": 2.1590909090909065,
                "tempo": 120.0
            },
            {
                "start_time": 35.19772727272727,
                "end_time": 35.31590909090909,
                "pitch": 67,
                "velocity": 101,
                "duration": 0.11818181818181728,
                "tempo": 120.0
            }
        ],
        "Acoustic Bass": [
            {
                "start_time": 0.0022727272727272726,
                "end_time": 0.06363636363636363,
                "pitch": 48,
                "velocity": 80,
                "duration": 0.061363636363636356,
                "tempo": 120.0
            },
            {
                "start_time": 0.10227272727272727,
                "end_time": 0.16363636363636364,
                "pitch": 46,
                "velocity": 80,
                "duration": 0.06136363636363637,
                "tempo": 120.0
            },
            {
                "start_time": 0.3045454545454545,
                "end_time": 0.3840909090909091,
                "pitch": 43,
                "velocity": 80,
                "duration": 0.07954545454545459,
                "tempo": 120.0
            },
            {
                "start_time": 0.0022727272727272726,
                "end_time": 0.5704545454545454,
                "pitch": 0,
                "velocity": 80,
                "duration": 0.5681818181818181,
                "tempo": 120.0
            },
            {
                "start_time": 0.5681818181818181,
                "end_time": 0.5704545454545454,
                "pitch": 0,
                "velocity": 80,
                "duration": 0.002272727272727315,
                "tempo": 120.0
            },
            {
                "start_time": 0.5704545454545454,
                "end_time": 0.6522727272727272,
                "pitch": 42,
                "velocity": 80,
                "duration": 0.08181818181818179,
                "tempo": 120.0
            },
            {
                "start_time": 0.8363636363636363,
                "end_time": 1.0522727272727272,
                "pitch": 42,
                "velocity": 80,
                "duration": 0.21590909090909094,
                "tempo": 120.0
            },
            {
                "start_time": 1.1045454545454545,
                "end_time": 1.1863636363636363,
                "pitch": 39,
                "velocity": 80,
                "duration": 0.08181818181818179,
                "tempo": 120.0
            },
            {
                "start_time": 1.3727272727272726,
                "end_time": 1.5886363636363636,
                "pitch": 36,
                "velocity": 80,
                "duration": 0.21590909090909105,
                "tempo": 120.0
            },
            {
                "start_time": 1.6386363636363634,
                "end_time": 1.7227272727272727,
                "pitch": 36,
                "velocity": 80,
                "duration": 0.08409090909090922,
                "tempo": 120.0
            },
            {
                "start_time": 1.7727272727272727,
                "end_time": 1.8568181818181817,
                "pitch": 48,
                "velocity": 80,
                "duration": 0.084090909090909,
                "tempo": 120.0
            },
            {
                "start_time": 1.9068181818181817,
                "end_time": 1.9909090909090907,
                "pitch": 36,
                "velocity": 80,
                "duration": 0.084090909090909,
                "tempo": 120.0
            },
            {
                "start_time": 0.10227272727272727,
                "end_time": 2.043181818181818,
                "pitch": 52,
                "velocity": 80,
                "duration": 1.9409090909090907,
                "tempo": 120.0
            },
            {
                "start_time": 0.3045454545454545,
                "end_time": 2.127272727272727,
                "pitch": 46,
                "velocity": 80,
                "duration": 1.8227272727272725,
                "tempo": 120.0
            },
            {
                "start_time": 2.043181818181818,
                "end_time": 2.127272727272727,
                "pitch": 46,
                "velocity": 80,
                "duration": 0.084090909090909,
                "tempo": 120.0
            },
            {
                "start_time": 2.1795454545454542,
                "end_time": 2.2636363636363637,
                "pitch": 34,
                "velocity": 80,
                "duration": 0.08409090909090944,
                "tempo": 120.0
            },
            {
                "start_time": 2.315909090909091,
                "end_time": 2.4,
                "pitch": 34,
                "velocity": 80,
                "duration": 0.084090909090909,
                "tempo": 120.0
            },
            {
                "start_time": 2.452272727272727,
                "end_time": 2.536363636363636,
                "pitch": 46,
                "velocity": 80,
                "duration": 0.084090909090909,
                "tempo": 120.0
            },
            {
                "start_time": 2.5886363636363634,
                "end_time": 2.6727272727272724,
                "pitch": 34,
                "velocity": 80,
                "duration": 0.084090909090909,
                "tempo": 120.0
            },
            {
                "start_time": 2.7227272727272727,
                "end_time": 2.809090909090909,
                "pitch": 34,
                "velocity": 80,
                "duration": 0.08636363636363642,
                "tempo": 120.0
            },
            {
                "start_time": 2.8613636363636363,
                "end_time": 2.943181818181818,
                "pitch": 46,
                "velocity": 80,
                "duration": 0.08181818181818157,
                "tempo": 120.0
            },
            {
                "start_time": 2.995454545454545,
                "end_time": 3.0795454545454546,
                "pitch": 34,
                "velocity": 80,
                "duration": 0.08409090909090944,
                "tempo": 120.0
            },
            {
                "start_time": 3.1295454545454544,
                "end_time": 3.2136363636363634,
                "pitch": 34,
                "velocity": 80,
                "duration": 0.084090909090909,
                "tempo": 120.0
            },
            {
                "start_time": 3.2636363636363637,
                "end_time": 3.3477272727272727,
                "pitch": 46,
                "velocity": 80,
                "duration": 0.084090909090909,
                "tempo": 120.0
            },
            {
                "start_time": 3.3977272727272725,
                "end_time": 3.4795454545454545,
                "pitch": 34,
                "velocity": 80,
                "duration": 0.08181818181818201,
                "tempo": 120.0
            },
            {
                "start_time": 3.5318181818181817,
                "end_time": 3.6159090909090907,
                "pitch": 34,
                "velocity": 80,
                "duration": 0.084090909090909,
                "tempo": 120.0
            },
            {
                "start_time": 3.668181818181818,
                "end_time": 3.752272727272727,
                "pitch": 46,
                "velocity": 80,
                "duration": 0.084090909090909,
                "tempo": 120.0
            },
            {
                "start_time": 3.8045454545454542,
                "end_time": 3.8886363636363637,
                "pitch": 34,
                "velocity": 80,
                "duration": 0.08409090909090944,
                "tempo": 120.0
            },
            {
                "start_time": 3.940909090909091,
                "end_time": 4.0249999999999995,
                "pitch": 46,
                "velocity": 80,
                "duration": 0.08409090909090855,
                "tempo": 120.0
            },
            {
                "start_time": 4.075,
                "end_time": 4.159090909090909,
                "pitch": 34,
                "velocity": 80,
                "duration": 0.084090909090909,
                "tempo": 120.0
            },
            {
                "start_time": 4.211363636363636,
                "end_time": 4.293181818181818,
                "pitch": 46,
                "velocity": 80,
                "duration": 0.08181818181818201,
                "tempo": 120.0
            },
            {
                "start_time": 4.343181818181818,
                "end_time": 4.427272727272727,
                "pitch": 34,
                "velocity": 80,
                "duration": 0.084090909090909,
                "tempo": 120.0
            },
            {
                "start_time": 4.477272727272727,
                "end_time": 4.559090909090909,
                "pitch": 34,
                "velocity": 80,
                "duration": 0.08181818181818201,
                "tempo": 120.0
            },
            {
                "start_time": 4.611363636363636,
                "end_time": 4.693181818181818,
                "pitch": 46,
                "velocity": 80,
                "duration": 0.08181818181818201,
                "tempo": 120.0
            },
            {
                "start_time": 4.745454545454545,
                "end_time": 4.827272727272727,
                "pitch": 34,
                "velocity": 80,
                "duration": 0.08181818181818201,
                "tempo": 120.0
            },
            {
                "start_time": 4.879545454545454,
                "end_time": 4.961363636363636,
                "pitch": 34,
                "velocity": 80,
                "duration": 0.08181818181818201,
                "tempo": 120.0
            },
            {
                "start_time": 5.013636363636364,
                "end_time": 5.095454545454545,
                "pitch": 46,
                "velocity": 80,
                "duration": 0.08181818181818112,
                "tempo": 120.0
            },
            {
                "start_time": 5.1454545454545455,
                "end_time": 5.2295454545454545,
                "pitch": 34,
                "velocity": 80,
                "duration": 0.084090909090909,
                "tempo": 120.0
            },
            {
                "start_time": 5.281818181818181,
                "end_time": 5.36590909090909,
                "pitch": 34,
                "velocity": 80,
                "duration": 0.084090909090909,
                "tempo": 120.0
            },
            {
                "start_time": 5.418181818181818,
                "end_time": 5.502272727272727,
                "pitch": 46,
                "velocity": 80,
                "duration": 0.084090909090909,
                "tempo": 120.0
            },
            {
                "start_time": 5.554545454545455,
                "end_time": 5.638636363636364,
                "pitch": 34,
                "velocity": 80,
                "duration": 0.084090909090909,
                "tempo": 120.0
            },
            {
                "start_time": 5.6909090909090905,
                "end_time": 5.7727272727272725,
                "pitch": 34,
                "velocity": 80,
                "duration": 0.08181818181818201,
                "tempo": 120.0
            },
            {
                "start_time": 5.824999999999999,
                "end_time": 5.906818181818181,
                "pitch": 46,
                "velocity": 80,
                "duration": 0.08181818181818201,
                "tempo": 120.0
            },
            {
                "start_time": 5.959090909090909,
                "end_time": 6.040909090909091,
                "pitch": 34,
                "velocity": 80,
                "duration": 0.08181818181818201,
                "tempo": 120.0
            },
            {
                "start_time": 6.093181818181818,
                "end_time": 6.175,
                "pitch": 46,
                "velocity": 80,
                "duration": 0.08181818181818201,
                "tempo": 120.0
            },
            {
                "start_time": 6.225,
                "end_time": 6.309090909090909,
                "pitch": 34,
                "velocity": 80,
                "duration": 0.084090909090909,
                "tempo": 120.0
            },
            {
                "start_time": 6.363636363636363,
                "end_time": 6.445454545454545,
                "pitch": 36,
                "velocity": 80,
                "duration": 0.08181818181818201,
                "tempo": 120.0
            },
            {
                "start_time": 6.497727272727272,
                "end_time": 6.581818181818181,
                "pitch": 36,
                "velocity": 80,
                "duration": 0.084090909090909,
                "tempo": 120.0
            },
            {
                "start_time": 1.3727272727272726,
                "end_time": 6.718181818181818,
                "pitch": 39,
                "velocity": 80,
                "duration": 5.345454545454546,
                "tempo": 120.0
            },
            {
                "start_time": 6.634090909090909,
                "end_time": 6.718181818181818,
                "pitch": 39,
                "velocity": 80,
                "duration": 0.084090909090909,
                "tempo": 120.0
            },
            {
                "start_time": 6.634090909090909,
                "end_time": 6.8545454545454545,
                "pitch": 36,
                "velocity": 80,
                "duration": 0.22045454545454568,
                "tempo": 120.0
            },
            {
                "start_time": 6.7704545454545455,
                "end_time": 6.8545454545454545,
                "pitch": 36,
                "velocity": 80,
                "duration": 0.084090909090909,
                "tempo": 120.0
            },
            {
                "start_time": 1.1045454545454545,
                "end_time": 6.986363636363636,
                "pitch": 41,
                "velocity": 80,
                "duration": 5.881818181818182,
                "tempo": 120.0
            },
            {
                "start_time": 6.904545454545454,
                "end_time": 6.986363636363636,
                "pitch": 41,
                "velocity": 80,
                "duration": 0.08181818181818201,
                "tempo": 120.0
            },
            {
                "start_time": 6.7704545454545455,
                "end_time": 7.120454545454545,
                "pitch": 39,
                "velocity": 80,
                "duration": 0.34999999999999964,
                "tempo": 120.0
            },
            {
                "start_time": 7.038636363636363,
                "end_time": 7.120454545454545,
                "pitch": 39,
                "velocity": 80,
                "duration": 0.08181818181818201,
                "tempo": 120.0
            },
            {
                "start_time": 7.172727272727272,
                "end_time": 7.254545454545454,
                "pitch": 39,
                "velocity": 80,
                "duration": 0.08181818181818201,
                "tempo": 120.0
            },
            {
                "start_time": 6.904545454545454,
                "end_time": 7.5227272727272725,
                "pitch": 36,
                "velocity": 80,
                "duration": 0.6181818181818182,
                "tempo": 120.0
            },
            {
                "start_time": 7.306818181818182,
                "end_time": 7.5227272727272725,
                "pitch": 36,
                "velocity": 80,
                "duration": 0.21590909090909083,
                "tempo": 120.0
            },
            {
                "start_time": 7.572727272727272,
                "end_time": 7.656818181818181,
                "pitch": 36,
                "velocity": 80,
                "duration": 0.084090909090909,
                "tempo": 120.0
            },
            {
                "start_time": 7.706818181818181,
                "end_time": 7.79090909090909,
                "pitch": 39,
                "velocity": 80,
                "duration": 0.084090909090909,
                "tempo": 120.0
            },
            {
                "start_time": 7.706818181818181,
                "end_time": 7.925,
                "pitch": 36,
                "velocity": 80,
                "duration": 0.2181818181818187,
                "tempo": 120.0
            },
            {
                "start_time": 7.840909090909091,
                "end_time": 7.925,
                "pitch": 36,
                "velocity": 80,
                "duration": 0.084090909090909,
                "tempo": 120.0
            },
            {
                "start_time": 7.038636363636363,
                "end_time": 8.061363636363636,
                "pitch": 41,
                "velocity": 80,
                "duration": 1.0227272727272725,
                "tempo": 120.0
            },
            {
                "start_time": 7.977272727272727,
                "end_time": 8.061363636363636,
                "pitch": 41,
                "velocity": 80,
                "duration": 0.084090909090909,
                "tempo": 120.0
            },
            {
                "start_time": 7.840909090909091,
                "end_time": 8.197727272727272,
                "pitch": 39,
                "velocity": 80,
                "duration": 0.3568181818181815,
                "tempo": 120.0
            },
            {
                "start_time": 8.111363636363636,
                "end_time": 8.197727272727272,
                "pitch": 39,
                "velocity": 80,
                "duration": 0.08636363636363598,
                "tempo": 120.0
            },
            {
                "start_time": 8.247727272727273,
                "end_time": 8.334090909090909,
                "pitch": 39,
                "velocity": 80,
                "duration": 0.08636363636363598,
                "tempo": 120.0
            },
            {
                "start_time": 7.306818181818182,
                "end_time": 8.386363636363637,
                "pitch": 38,
                "velocity": 80,
                "duration": 1.079545454545455,
                "tempo": 120.0
            },
            {
                "start_time": 7.977272727272727,
                "end_time": 8.602272727272727,
                "pitch": 36,
                "velocity": 80,
                "duration": 0.625,
                "tempo": 120.0
            },
            {
                "start_time": 8.386363636363637,
                "end_time": 8.602272727272727,
                "pitch": 36,
                "velocity": 80,
                "duration": 0.21590909090908994,
                "tempo": 120.0
            },
            {
                "start_time": 8.652272727272727,
                "end_time": 8.736363636363636,
                "pitch": 36,
                "velocity": 80,
                "duration": 0.084090909090909,
                "tempo": 120.0
            },
            {
                "start_time": 8.786363636363635,
                "end_time": 8.870454545454544,
                "pitch": 39,
                "velocity": 80,
                "duration": 0.084090909090909,
                "tempo": 120.0
            },
            {
                "start_time": 8.786363636363635,
                "end_time": 9.004545454545454,
                "pitch": 36,
                "velocity": 80,
                "duration": 0.2181818181818187,
                "tempo": 120.0
            },
            {
                "start_time": 8.920454545454545,
                "end_time": 9.004545454545454,
                "pitch": 36,
                "velocity": 80,
                "duration": 0.084090909090909,
                "tempo": 120.0
            },
            {
                "start_time": 8.111363636363636,
                "end_time": 9.14090909090909,
                "pitch": 41,
                "velocity": 80,
                "duration": 1.0295454545454543,
                "tempo": 120.0
            },
            {
                "start_time": 9.056818181818182,
                "end_time": 9.14090909090909,
                "pitch": 41,
                "velocity": 80,
                "duration": 0.084090909090909,
                "tempo": 120.0
            },
            {
                "start_time": 8.920454545454545,
                "end_time": 9.277272727272727,
                "pitch": 39,
                "velocity": 80,
                "duration": 0.35681818181818237,
                "tempo": 120.0
            },
            {
                "start_time": 9.193181818181818,
                "end_time": 9.277272727272727,
                "pitch": 39,
                "velocity": 80,
                "duration": 0.084090909090909,
                "tempo": 120.0
            },
            {
                "start_time": 9.329545454545453,
                "end_time": 9.413636363636364,
                "pitch": 39,
                "velocity": 80,
                "duration": 0.08409090909091077,
                "tempo": 120.0
            },
            {
                "start_time": 9.193181818181818,
                "end_time": 9.46590909090909,
                "pitch": 41,
                "velocity": 80,
                "duration": 0.2727272727272716,
                "tempo": 120.0
            },
            {
                "start_time": 9.46590909090909,
                "end_time": 9.681818181818182,
                "pitch": 34,
                "velocity": 80,
                "duration": 0.21590909090909172,
                "tempo": 120.0
            },
            {
                "start_time": 9.73409090909091,
                "end_time": 9.81590909090909,
                "pitch": 34,
                "velocity": 80,
                "duration": 0.08181818181818024,
                "tempo": 120.0
            },
            {
                "start_time": 6.363636363636363,
                "end_time": 9.86590909090909,
                "pitch": 14,
                "velocity": 80,
                "duration": 3.502272727272727,
                "tempo": 120.0
            },
            {
                "start_time": 8.386363636363637,
                "end_time": 9.95,
                "pitch": 38,
                "velocity": 80,
                "duration": 1.5636363636363626,
                "tempo": 120.0
            },
            {
                "start_time": 9.86590909090909,
                "end_time": 9.95,
                "pitch": 38,
                "velocity": 80,
                "duration": 0.084090909090909,
                "tempo": 120.0
            },
            {
                "start_time": 9.46590909090909,
                "end_time": 10.0,
                "pitch": 41,
                "velocity": 80,
                "duration": 0.5340909090909101,
                "tempo": 120.0
            },
            {
                "start_time": 10.0,
                "end_time": 10.084090909090909,
                "pitch": 34,
                "velocity": 80,
                "duration": 0.084090909090909,
                "tempo": 120.0
            },
            {
                "start_time": 9.86590909090909,
                "end_time": 10.134090909090908,
                "pitch": 14,
                "velocity": 80,
                "duration": 0.26818181818181763,
                "tempo": 120.0
            },
            {
                "start_time": 10.0,
                "end_time": 10.21590909090909,
                "pitch": 41,
                "velocity": 80,
                "duration": 0.21590909090908994,
                "tempo": 120.0
            },
            {
                "start_time": 10.134090909090908,
                "end_time": 10.21590909090909,
                "pitch": 41,
                "velocity": 80,
                "duration": 0.08181818181818201,
                "tempo": 120.0
            },
            {
                "start_time": 10.268181818181818,
                "end_time": 10.35,
                "pitch": 39,
                "velocity": 80,
                "duration": 0.08181818181818201,
                "tempo": 120.0
            },
            {
                "start_time": 10.402272727272727,
                "end_time": 10.48409090909091,
                "pitch": 39,
                "velocity": 80,
                "duration": 0.08181818181818201,
                "tempo": 120.0
            },
            {
                "start_time": 9.056818181818182,
                "end_time": 10.756818181818181,
                "pitch": 36,
                "velocity": 80,
                "duration": 1.6999999999999993,
                "tempo": 120.0
            },
            {
                "start_time": 10.536363636363635,
                "end_time": 10.756818181818181,
                "pitch": 36,
                "velocity": 80,
                "duration": 0.22045454545454568,
                "tempo": 120.0
            },
            {
                "start_time": 10.806818181818182,
                "end_time": 10.893181818181818,
                "pitch": 36,
                "velocity": 80,
                "duration": 0.08636363636363598,
                "tempo": 120.0
            },
            {
                "start_time": 10.943181818181818,
                "end_time": 11.027272727272727,
                "pitch": 39,
                "velocity": 80,
                "duration": 0.084090909090909,
                "tempo": 120.0
            },
            {
                "start_time": 10.943181818181818,
                "end_time": 11.163636363636362,
                "pitch": 36,
                "velocity": 80,
                "duration": 0.2204545454545439,
                "tempo": 120.0
            },
            {
                "start_time": 11.079545454545453,
                "end_time": 11.163636363636362,
                "pitch": 36,
                "velocity": 80,
                "duration": 0.084090909090909,
                "tempo": 120.0
            },
            {
                "start_time": 10.268181818181818,
                "end_time": 11.297727272727272,
                "pitch": 41,
                "velocity": 80,
                "duration": 1.0295454545454543,
                "tempo": 120.0
            },
            {
                "start_time": 11.213636363636363,
                "end_time": 11.297727272727272,
                "pitch": 41,
                "velocity": 80,
                "duration": 0.084090909090909,
                "tempo": 120.0
            },
            {
                "start_time": 11.079545454545453,
                "end_time": 11.429545454545455,
                "pitch": 39,
                "velocity": 80,
                "duration": 0.3500000000000014,
                "tempo": 120.0
            },
            {
                "start_time": 11.347727272727273,
                "end_time": 11.429545454545455,
                "pitch": 39,
                "velocity": 80,
                "duration": 0.08181818181818201,
                "tempo": 120.0
            },
            {
                "start_time": 11.48181818181818,
                "end_time": 11.563636363636363,
                "pitch": 39,
                "velocity": 80,
                "duration": 0.08181818181818201,
                "tempo": 120.0
            },
            {
                "start_time": 10.536363636363635,
                "end_time": 11.61590909090909,
                "pitch": 38,
                "velocity": 80,
                "duration": 1.079545454545455,
                "tempo": 120.0
            },
            {
                "start_time": 11.213636363636363,
                "end_time": 11.836363636363636,
                "pitch": 36,
                "velocity": 80,
                "duration": 0.622727272727273,
                "tempo": 120.0
            },
            {
                "start_time": 11.61590909090909,
                "end_time": 11.836363636363636,
                "pitch": 36,
                "velocity": 80,
                "duration": 0.22045454545454568,
                "tempo": 120.0
            },
            {
                "start_time": 11.886363636363635,
                "end_time": 11.972727272727273,
                "pitch": 36,
                "velocity": 80,
                "duration": 0.08636363636363775,
                "tempo": 120.0
            },
            {
                "start_time": 12.022727272727272,
                "end_time": 12.10909090909091,
                "pitch": 39,
                "velocity": 80,
                "duration": 0.08636363636363775,
                "tempo": 120.0
            },
            {
                "start_time": 12.022727272727272,
                "end_time": 12.243181818181817,
                "pitch": 36,
                "velocity": 80,
                "duration": 0.22045454545454568,
                "tempo": 120.0
            },
            {
                "start_time": 12.161363636363635,
                "end_time": 12.243181818181817,
                "pitch": 36,
                "velocity": 80,
                "duration": 0.08181818181818201,
                "tempo": 120.0
            },
            {
                "start_time": 11.347727272727273,
                "end_time": 12.377272727272727,
                "pitch": 41,
                "velocity": 80,
                "duration": 1.0295454545454543,
                "tempo": 120.0
            },
            {
                "start_time": 12.293181818181818,
                "end_time": 12.377272727272727,
                "pitch": 41,
                "velocity": 80,
                "duration": 0.084090909090909,
                "tempo": 120.0
            },
            {
                "start_time": 12.161363636363635,
                "end_time": 12.511363636363635,
                "pitch": 39,
                "velocity": 80,
                "duration": 0.34999999999999964,
                "tempo": 120.0
            },
            {
                "start_time": 12.427272727272726,
                "end_time": 12.511363636363635,
                "pitch": 39,
                "velocity": 80,
                "duration": 0.084090909090909,
                "tempo": 120.0
            },
            {
                "start_time": 12.561363636363636,
                "end_time": 12.643181818181818,
                "pitch": 39,
                "velocity": 80,
                "duration": 0.08181818181818201,
                "tempo": 120.0
            },
            {
                "start_time": 11.61590909090909,
                "end_time": 12.695454545454545,
                "pitch": 38,
                "velocity": 80,
                "duration": 1.079545454545455,
                "tempo": 120.0
            },
            {
                "start_time": 12.293181818181818,
                "end_time": 12.911363636363635,
                "pitch": 36,
                "velocity": 80,
                "duration": 0.6181818181818173,
                "tempo": 120.0
            },
            {
                "start_time": 12.695454545454545,
                "end_time": 12.911363636363635,
                "pitch": 36,
                "velocity": 80,
                "duration": 0.21590909090908994,
                "tempo": 120.0
            },
            {
                "start_time": 12.961363636363636,
                "end_time": 13.045454545454545,
                "pitch": 36,
                "velocity": 80,
                "duration": 0.084090909090909,
                "tempo": 120.0
            },
            {
                "start_time": 13.095454545454546,
                "end_time": 13.179545454545455,
                "pitch": 39,
                "velocity": 80,
                "duration": 0.084090909090909,
                "tempo": 120.0
            },
            {
                "start_time": 13.095454545454546,
                "end_time": 13.313636363636363,
                "pitch": 36,
                "velocity": 80,
                "duration": 0.21818181818181692,
                "tempo": 120.0
            },
            {
                "start_time": 13.229545454545454,
                "end_time": 13.313636363636363,
                "pitch": 36,
                "velocity": 80,
                "duration": 0.084090909090909,
                "tempo": 120.0
            },
            {
                "start_time": 12.427272727272726,
                "end_time": 13.45,
                "pitch": 41,
                "velocity": 80,
                "duration": 1.0227272727272734,
                "tempo": 120.0
            },
            {
                "start_time": 13.36590909090909,
                "end_time": 13.45,
                "pitch": 41,
                "velocity": 80,
                "duration": 0.084090909090909,
                "tempo": 120.0
            },
            {
                "start_time": 13.229545454545454,
                "end_time": 13.586363636363636,
                "pitch": 39,
                "velocity": 80,
                "duration": 0.35681818181818237,
                "tempo": 120.0
            },
            {
                "start_time": 13.502272727272727,
                "end_time": 13.586363636363636,
                "pitch": 39,
                "velocity": 80,
                "duration": 0.084090909090909,
                "tempo": 120.0
            },
            {
                "start_time": 13.638636363636364,
                "end_time": 13.722727272727273,
                "pitch": 39,
                "velocity": 80,
                "duration": 0.084090909090909,
                "tempo": 120.0
            },
            {
                "start_time": 13.502272727272727,
                "end_time": 13.774999999999999,
                "pitch": 41,
                "velocity": 80,
                "duration": 0.2727272727272716,
                "tempo": 120.0
            },
            {
                "start_time": 13.774999999999999,
                "end_time": 13.99090909090909,
                "pitch": 34,
                "velocity": 80,
                "duration": 0.21590909090909172,
                "tempo": 120.0
            },
            {
                "start_time": 14.043181818181818,
                "end_time": 14.125,
                "pitch": 34,
                "velocity": 80,
                "duration": 0.08181818181818201,
                "tempo": 120.0
            },
            {
                "start_time": 10.134090909090908,
                "end_time": 14.174999999999999,
                "pitch": 14,
                "velocity": 80,
                "duration": 4.040909090909091,
                "tempo": 120.0
            },
            {
                "start_time": 12.695454545454545,
                "end_time": 14.259090909090908,
                "pitch": 38,
                "velocity": 80,
                "duration": 1.5636363636363626,
                "tempo": 120.0
            },
            {
                "start_time": 14.174999999999999,
                "end_time": 14.259090909090908,
                "pitch": 38,
                "velocity": 80,
                "duration": 0.084090909090909,
                "tempo": 120.0
            },
            {
                "start_time": 13.774999999999999,
                "end_time": 14.309090909090909,
                "pitch": 41,
                "velocity": 80,
                "duration": 0.5340909090909101,
                "tempo": 120.0
            },
            {
                "start_time": 14.309090909090909,
                "end_time": 14.393181818181818,
                "pitch": 34,
                "velocity": 80,
                "duration": 0.084090909090909,
                "tempo": 120.0
            },
            {
                "start_time": 14.174999999999999,
                "end_time": 14.443181818181818,
                "pitch": 14,
                "velocity": 80,
                "duration": 0.2681818181818194,
                "tempo": 120.0
            },
            {
                "start_time": 14.309090909090909,
                "end_time": 14.527272727272727,
                "pitch": 41,
                "velocity": 80,
                "duration": 0.2181818181818187,
                "tempo": 120.0
            },
            {
                "start_time": 14.443181818181818,
                "end_time": 14.527272727272727,
                "pitch": 41,
                "velocity": 80,
                "duration": 0.084090909090909,
                "tempo": 120.0
            },
            {
                "start_time": 14.577272727272726,
                "end_time": 14.661363636363635,
                "pitch": 29,
                "velocity": 80,
                "duration": 0.084090909090909,
                "tempo": 120.0
            },
            {
                "start_time": 14.711363636363636,
                "end_time": 14.793181818181818,
                "pitch": 31,
                "velocity": 80,
                "duration": 0.08181818181818201,
                "tempo": 120.0
            },
            {
                "start_time": 14.845454545454544,
                "end_time": 15.06590909090909,
                "pitch": 31,
                "velocity": 80,
                "duration": 0.22045454545454568,
                "tempo": 120.0
            },
            {
                "start_time": 15.118181818181817,
                "end_time": 15.202272727272726,
                "pitch": 32,
                "velocity": 80,
                "duration": 0.084090909090909,
                "tempo": 120.0
            },
            {
                "start_time": 15.254545454545454,
                "end_time": 15.338636363636363,
                "pitch": 44,
                "velocity": 80,
                "duration": 0.084090909090909,
                "tempo": 120.0
            },
            {
                "start_time": 15.39090909090909,
                "end_time": 15.609090909090908,
                "pitch": 32,
                "velocity": 80,
                "duration": 0.21818181818181692,
                "tempo": 120.0
            },
            {
                "start_time": 15.661363636363635,
                "end_time": 15.745454545454544,
                "pitch": 32,
                "velocity": 80,
                "duration": 0.084090909090909,
                "tempo": 120.0
            },
            {
                "start_time": 15.797727272727272,
                "end_time": 15.881818181818181,
                "pitch": 32,
                "velocity": 80,
                "duration": 0.084090909090909,
                "tempo": 120.0
            },
            {
                "start_time": 15.934090909090909,
                "end_time": 16.018181818181816,
                "pitch": 32,
                "velocity": 80,
                "duration": 0.08409090909090722,
                "tempo": 120.0
            },
            {
                "start_time": 16.068181818181817,
                "end_time": 16.152272727272727,
                "pitch": 32,
                "velocity": 80,
                "duration": 0.08409090909091077,
                "tempo": 120.0
            },
            {
                "start_time": 16.202272727272728,
                "end_time": 16.28409090909091,
                "pitch": 32,
                "velocity": 80,
                "duration": 0.08181818181818201,
                "tempo": 120.0
            },
            {
                "start_time": 16.336363636363636,
                "end_time": 16.418181818181818,
                "pitch": 44,
                "velocity": 80,
                "duration": 0.08181818181818201,
                "tempo": 120.0
            },
            {
                "start_time": 16.470454545454544,
                "end_time": 16.686363636363634,
                "pitch": 32,
                "velocity": 80,
                "duration": 0.21590909090908994,
                "tempo": 120.0
            },
            {
                "start_time": 16.736363636363635,
                "end_time": 16.820454545454545,
                "pitch": 32,
                "velocity": 80,
                "duration": 0.08409090909091077,
                "tempo": 120.0
            },
            {
                "start_time": 16.870454545454546,
                "end_time": 16.954545454545453,
                "pitch": 32,
                "velocity": 80,
                "duration": 0.08409090909090722,
                "tempo": 120.0
            },
            {
                "start_time": 17.004545454545454,
                "end_time": 17.08863636363636,
                "pitch": 32,
                "velocity": 80,
                "duration": 0.08409090909090722,
                "tempo": 120.0
            },
            {
                "start_time": 13.36590909090909,
                "end_time": 17.361363636363635,
                "pitch": 36,
                "velocity": 80,
                "duration": 3.9954545454545443,
                "tempo": 120.0
            },
            {
                "start_time": 17.277272727272727,
                "end_time": 17.361363636363635,
                "pitch": 36,
                "velocity": 80,
                "duration": 0.08409090909090722,
                "tempo": 120.0
            },
            {
                "start_time": 17.413636363636364,
                "end_time": 17.49772727272727,
                "pitch": 48,
                "velocity": 80,
                "duration": 0.08409090909090722,
                "tempo": 120.0
            },
            {
                "start_time": 17.55,
                "end_time": 17.76590909090909,
                "pitch": 36,
                "velocity": 80,
                "duration": 0.21590909090908994,
                "tempo": 120.0
            },
            {
                "start_time": 17.818181818181817,
                "end_time": 17.9,
                "pitch": 36,
                "velocity": 80,
                "duration": 0.08181818181818201,
                "tempo": 120.0
            },
            {
                "start_time": 17.952272727272728,
                "end_time": 18.034090909090907,
                "pitch": 36,
                "velocity": 80,
                "duration": 0.08181818181817846,
                "tempo": 120.0
            },
            {
                "start_time": 18.084090909090907,
                "end_time": 18.168181818181818,
                "pitch": 36,
                "velocity": 80,
                "duration": 0.08409090909091077,
                "tempo": 120.0
            },
            {
                "start_time": 18.220454545454544,
                "end_time": 18.304545454545455,
                "pitch": 36,
                "velocity": 80,
                "duration": 0.08409090909091077,
                "tempo": 120.0
            },
            {
                "start_time": 18.35681818181818,
                "end_time": 18.44090909090909,
                "pitch": 36,
                "velocity": 80,
                "duration": 0.08409090909091077,
                "tempo": 120.0
            },
            {
                "start_time": 18.493181818181817,
                "end_time": 18.577272727272728,
                "pitch": 48,
                "velocity": 80,
                "duration": 0.08409090909091077,
                "tempo": 120.0
            },
            {
                "start_time": 18.629545454545454,
                "end_time": 18.845454545454544,
                "pitch": 36,
                "velocity": 80,
                "duration": 0.21590909090908994,
                "tempo": 120.0
            },
            {
                "start_time": 18.897727272727273,
                "end_time": 18.979545454545455,
                "pitch": 36,
                "velocity": 80,
                "duration": 0.08181818181818201,
                "tempo": 120.0
            },
            {
                "start_time": 19.029545454545453,
                "end_time": 19.113636363636363,
                "pitch": 36,
                "velocity": 80,
                "duration": 0.08409090909091077,
                "tempo": 120.0
            },
            {
                "start_time": 19.16590909090909,
                "end_time": 19.384090909090908,
                "pitch": 32,
                "velocity": 80,
                "duration": 0.2181818181818187,
                "tempo": 120.0
            },
            {
                "start_time": 19.436363636363634,
                "end_time": 19.520454545454545,
                "pitch": 32,
                "velocity": 80,
                "duration": 0.08409090909091077,
                "tempo": 120.0
            },
            {
                "start_time": 19.57272727272727,
                "end_time": 19.65681818181818,
                "pitch": 44,
                "velocity": 80,
                "duration": 0.08409090909091077,
                "tempo": 120.0
            },
            {
                "start_time": 19.709090909090907,
                "end_time": 19.925,
                "pitch": 32,
                "velocity": 80,
                "duration": 0.2159090909090935,
                "tempo": 120.0
            },
            {
                "start_time": 19.977272727272727,
                "end_time": 20.05909090909091,
                "pitch": 32,
                "velocity": 80,
                "duration": 0.08181818181818201,
                "tempo": 120.0
            },
            {
                "start_time": 20.111363636363635,
                "end_time": 20.193181818181817,
                "pitch": 32,
                "velocity": 80,
                "duration": 0.08181818181818201,
                "tempo": 120.0
            },
            {
                "start_time": 20.245454545454546,
                "end_time": 20.327272727272728,
                "pitch": 32,
                "velocity": 80,
                "duration": 0.08181818181818201,
                "tempo": 120.0
            },
            {
                "start_time": 20.379545454545454,
                "end_time": 20.461363636363636,
                "pitch": 32,
                "velocity": 80,
                "duration": 0.08181818181818201,
                "tempo": 120.0
            },
            {
                "start_time": 20.511363636363637,
                "end_time": 20.595454545454544,
                "pitch": 32,
                "velocity": 80,
                "duration": 0.08409090909090722,
                "tempo": 120.0
            },
            {
                "start_time": 20.645454545454545,
                "end_time": 20.729545454545452,
                "pitch": 44,
                "velocity": 80,
                "duration": 0.08409090909090722,
                "tempo": 120.0
            },
            {
                "start_time": 20.779545454545453,
                "end_time": 21.0,
                "pitch": 32,
                "velocity": 80,
                "duration": 0.22045454545454746,
                "tempo": 120.0
            },
            {
                "start_time": 21.05,
                "end_time": 21.136363636363637,
                "pitch": 32,
                "velocity": 80,
                "duration": 0.08636363636363598,
                "tempo": 120.0
            },
            {
                "start_time": 21.186363636363634,
                "end_time": 21.272727272727273,
                "pitch": 32,
                "velocity": 80,
                "duration": 0.08636363636363953,
                "tempo": 120.0
            },
            {
                "start_time": 21.325,
                "end_time": 21.40681818181818,
                "pitch": 32,
                "velocity": 80,
                "duration": 0.08181818181818201,
                "tempo": 120.0
            },
            {
                "start_time": 21.456818181818182,
                "end_time": 21.54090909090909,
                "pitch": 32,
                "velocity": 80,
                "duration": 0.08409090909090722,
                "tempo": 120.0
            },
            {
                "start_time": 21.59090909090909,
                "end_time": 21.675,
                "pitch": 31,
                "velocity": 80,
                "duration": 0.08409090909091077,
                "tempo": 120.0
            },
            {
                "start_time": 21.724999999999998,
                "end_time": 21.80909090909091,
                "pitch": 43,
                "velocity": 80,
                "duration": 0.08409090909091077,
                "tempo": 120.0
            },
            {
                "start_time": 21.85909090909091,
                "end_time": 21.943181818181817,
                "pitch": 31,
                "velocity": 80,
                "duration": 0.08409090909090722,
                "tempo": 120.0
            },
            {
                "start_time": 21.993181818181817,
                "end_time": 22.075,
                "pitch": 31,
                "velocity": 80,
                "duration": 0.08181818181818201,
                "tempo": 120.0
            },
            {
                "start_time": 22.127272727272725,
                "end_time": 22.209090909090907,
                "pitch": 43,
                "velocity": 80,
                "duration": 0.08181818181818201,
                "tempo": 120.0
            },
            {
                "start_time": 22.261363636363637,
                "end_time": 22.34318181818182,
                "pitch": 31,
                "velocity": 80,
                "duration": 0.08181818181818201,
                "tempo": 120.0
            },
            {
                "start_time": 22.395454545454545,
                "end_time": 22.477272727272727,
                "pitch": 31,
                "velocity": 80,
                "duration": 0.08181818181818201,
                "tempo": 120.0
            },
            {
                "start_time": 22.527272727272727,
                "end_time": 22.745454545454546,
                "pitch": 31,
                "velocity": 80,
                "duration": 0.2181818181818187,
                "tempo": 120.0
            },
            {
                "start_time": 22.795454545454543,
                "end_time": 22.877272727272725,
                "pitch": 43,
                "velocity": 80,
                "duration": 0.08181818181818201,
                "tempo": 120.0
            },
            {
                "start_time": 22.929545454545455,
                "end_time": 23.15,
                "pitch": 31,
                "velocity": 80,
                "duration": 0.2204545454545439,
                "tempo": 120.0
            },
            {
                "start_time": 23.202272727272724,
                "end_time": 23.286363636363635,
                "pitch": 43,
                "velocity": 80,
                "duration": 0.08409090909091077,
                "tempo": 120.0
            },
            {
                "start_time": 23.474999999999998,
                "end_time": 23.69090909090909,
                "pitch": 36,
                "velocity": 80,
                "duration": 0.2159090909090935,
                "tempo": 120.0
            },
            {
                "start_time": 23.74090909090909,
                "end_time": 23.825,
                "pitch": 36,
                "velocity": 80,
                "duration": 0.08409090909091077,
                "tempo": 120.0
            },
            {
                "start_time": 23.875,
                "end_time": 23.959090909090907,
                "pitch": 38,
                "velocity": 80,
                "duration": 0.08409090909090722,
                "tempo": 120.0
            },
            {
                "start_time": 23.875,
                "end_time": 24.09318181818182,
                "pitch": 36,
                "velocity": 80,
                "duration": 0.2181818181818187,
                "tempo": 120.0
            },
            {
                "start_time": 24.009090909090908,
                "end_time": 24.09318181818182,
                "pitch": 36,
                "velocity": 80,
                "duration": 0.08409090909091077,
                "tempo": 120.0
            },
            {
                "start_time": 24.145454545454545,
                "end_time": 24.229545454545452,
                "pitch": 39,
                "velocity": 80,
                "duration": 0.08409090909090722,
                "tempo": 120.0
            },
            {
                "start_time": 24.145454545454545,
                "end_time": 24.36590909090909,
                "pitch": 36,
                "velocity": 80,
                "duration": 0.2204545454545439,
                "tempo": 120.0
            },
            {
                "start_time": 24.28181818181818,
                "end_time": 24.36590909090909,
                "pitch": 36,
                "velocity": 80,
                "duration": 0.08409090909090722,
                "tempo": 120.0
            },
            {
                "start_time": 2.043181818181818,
                "end_time": 24.418181818181818,
                "pitch": 52,
                "velocity": 80,
                "duration": 22.375,
                "tempo": 120.0
            },
            {
                "start_time": 24.418181818181818,
                "end_time": 24.502272727272725,
                "pitch": 43,
                "velocity": 80,
                "duration": 0.08409090909090722,
                "tempo": 120.0
            },
            {
                "start_time": 23.474999999999998,
                "end_time": 24.554545454545455,
                "pitch": 0,
                "velocity": 80,
                "duration": 1.0795454545454568,
                "tempo": 120.0
            },
            {
                "start_time": 14.711363636363636,
                "end_time": 24.770454545454545,
                "pitch": 42,
                "velocity": 80,
                "duration": 10.059090909090909,
                "tempo": 120.0
            },
            {
                "start_time": 24.554545454545455,
                "end_time": 24.770454545454545,
                "pitch": 42,
                "velocity": 80,
                "duration": 0.21590909090908994,
                "tempo": 120.0
            },
            {
                "start_time": 24.820454545454545,
                "end_time": 24.904545454545453,
                "pitch": 36,
                "velocity": 80,
                "duration": 0.08409090909090722,
                "tempo": 120.0
            },
            {
                "start_time": 24.954545454545453,
                "end_time": 25.038636363636364,
                "pitch": 48,
                "velocity": 80,
                "duration": 0.08409090909091077,
                "tempo": 120.0
            },
            {
                "start_time": 25.08863636363636,
                "end_time": 25.172727272727272,
                "pitch": 36,
                "velocity": 80,
                "duration": 0.08409090909091077,
                "tempo": 120.0
            },
            {
                "start_time": 25.224999999999998,
                "end_time": 25.30909090909091,
                "pitch": 36,
                "velocity": 80,
                "duration": 0.08409090909091077,
                "tempo": 120.0
            },
            {
                "start_time": 25.361363636363635,
                "end_time": 25.445454545454545,
                "pitch": 36,
                "velocity": 80,
                "duration": 0.08409090909091077,
                "tempo": 120.0
            },
            {
                "start_time": 25.49772727272727,
                "end_time": 25.581818181818182,
                "pitch": 48,
                "velocity": 80,
                "duration": 0.08409090909091077,
                "tempo": 120.0
            },
            {
                "start_time": 25.634090909090908,
                "end_time": 25.849999999999998,
                "pitch": 36,
                "velocity": 80,
                "duration": 0.21590909090908994,
                "tempo": 120.0
            },
            {
                "start_time": 25.902272727272727,
                "end_time": 25.98409090909091,
                "pitch": 36,
                "velocity": 80,
                "duration": 0.08181818181818201,
                "tempo": 120.0
            },
            {
                "start_time": 24.009090909090908,
                "end_time": 26.118181818181817,
                "pitch": 38,
                "velocity": 80,
                "duration": 2.1090909090909093,
                "tempo": 120.0
            },
            {
                "start_time": 26.034090909090907,
                "end_time": 26.118181818181817,
                "pitch": 38,
                "velocity": 80,
                "duration": 0.08409090909091077,
                "tempo": 120.0
            },
            {
                "start_time": 26.034090909090907,
                "end_time": 26.252272727272725,
                "pitch": 36,
                "velocity": 80,
                "duration": 0.2181818181818187,
                "tempo": 120.0
            },
            {
                "start_time": 26.168181818181818,
                "end_time": 26.252272727272725,
                "pitch": 36,
                "velocity": 80,
                "duration": 0.08409090909090722,
                "tempo": 120.0
            },
            {
                "start_time": 24.28181818181818,
                "end_time": 26.384090909090908,
                "pitch": 39,
                "velocity": 80,
                "duration": 2.1022727272727266,
                "tempo": 120.0
            },
            {
                "start_time": 26.302272727272726,
                "end_time": 26.384090909090908,
                "pitch": 39,
                "velocity": 80,
                "duration": 0.08181818181818201,
                "tempo": 120.0
            },
            {
                "start_time": 26.302272727272726,
                "end_time": 26.520454545454545,
                "pitch": 36,
                "velocity": 80,
                "duration": 0.2181818181818187,
                "tempo": 120.0
            },
            {
                "start_time": 26.436363636363634,
                "end_time": 26.520454545454545,
                "pitch": 36,
                "velocity": 80,
                "duration": 0.08409090909091077,
                "tempo": 120.0
            },
            {
                "start_time": 24.418181818181818,
                "end_time": 26.570454545454545,
                "pitch": 52,
                "velocity": 80,
                "duration": 2.1522727272727273,
                "tempo": 120.0
            },
            {
                "start_time": 26.570454545454545,
                "end_time": 26.652272727272727,
                "pitch": 43,
                "velocity": 80,
                "duration": 0.08181818181818201,
                "tempo": 120.0
            },
            {
                "start_time": 24.554545454545455,
                "end_time": 26.704545454545453,
                "pitch": 0,
                "velocity": 80,
                "duration": 2.1499999999999986,
                "tempo": 120.0
            },
            {
                "start_time": 24.820454545454545,
                "end_time": 26.924999999999997,
                "pitch": 42,
                "velocity": 80,
                "duration": 2.104545454545452,
                "tempo": 120.0
            },
            {
                "start_time": 26.704545454545453,
                "end_time": 26.924999999999997,
                "pitch": 42,
                "velocity": 80,
                "duration": 0.2204545454545439,
                "tempo": 120.0
            },
            {
                "start_time": 26.977272727272727,
                "end_time": 27.061363636363634,
                "pitch": 36,
                "velocity": 80,
                "duration": 0.08409090909090722,
                "tempo": 120.0
            },
            {
                "start_time": 27.113636363636363,
                "end_time": 27.195454545454545,
                "pitch": 48,
                "velocity": 80,
                "duration": 0.08181818181818201,
                "tempo": 120.0
            },
            {
                "start_time": 27.25,
                "end_time": 27.331818181818182,
                "pitch": 36,
                "velocity": 80,
                "duration": 0.08181818181818201,
                "tempo": 120.0
            },
            {
                "start_time": 26.168181818181818,
                "end_time": 27.46590909090909,
                "pitch": 38,
                "velocity": 80,
                "duration": 1.297727272727272,
                "tempo": 120.0
            },
            {
                "start_time": 27.38181818181818,
                "end_time": 27.46590909090909,
                "pitch": 38,
                "velocity": 80,
                "duration": 0.08409090909091077,
                "tempo": 120.0
            },
            {
                "start_time": 27.38181818181818,
                "end_time": 27.597727272727273,
                "pitch": 36,
                "velocity": 80,
                "duration": 0.2159090909090935,
                "tempo": 120.0
            },
            {
                "start_time": 27.51590909090909,
                "end_time": 27.597727272727273,
                "pitch": 36,
                "velocity": 80,
                "duration": 0.08181818181818201,
                "tempo": 120.0
            },
            {
                "start_time": 19.16590909090909,
                "end_time": 27.65,
                "pitch": 40,
                "velocity": 80,
                "duration": 8.48409090909091,
                "tempo": 120.0
            },
            {
                "start_time": 27.65,
                "end_time": 27.73181818181818,
                "pitch": 34,
                "velocity": 80,
                "duration": 0.08181818181818201,
                "tempo": 120.0
            },
            {
                "start_time": 14.443181818181818,
                "end_time": 27.784090909090907,
                "pitch": 14,
                "velocity": 80,
                "duration": 13.340909090909088,
                "tempo": 120.0
            },
            {
                "start_time": 27.784090909090907,
                "end_time": 28.004545454545454,
                "pitch": 36,
                "velocity": 80,
                "duration": 0.22045454545454746,
                "tempo": 120.0
            },
            {
                "start_time": 28.05681818181818,
                "end_time": 28.14090909090909,
                "pitch": 36,
                "velocity": 80,
                "duration": 0.08409090909091077,
                "tempo": 120.0
            },
            {
                "start_time": 27.51590909090909,
                "end_time": 28.277272727272727,
                "pitch": 38,
                "velocity": 80,
                "duration": 0.7613636363636367,
                "tempo": 120.0
            },
            {
                "start_time": 28.190909090909088,
                "end_time": 28.277272727272727,
                "pitch": 38,
                "velocity": 80,
                "duration": 0.08636363636363953,
                "tempo": 120.0
            },
            {
                "start_time": 28.190909090909088,
                "end_time": 28.411363636363635,
                "pitch": 36,
                "velocity": 80,
                "duration": 0.22045454545454746,
                "tempo": 120.0
            },
            {
                "start_time": 28.327272727272724,
                "end_time": 28.411363636363635,
                "pitch": 36,
                "velocity": 80,
                "duration": 0.08409090909091077,
                "tempo": 120.0
            },
            {
                "start_time": 28.461363636363636,
                "end_time": 28.46363636363636,
                "pitch": 36,
                "velocity": 80,
                "duration": 0.0022727272727252057,
                "tempo": 120.0
            },
            {
                "start_time": 26.436363636363634,
                "end_time": 28.545454545454543,
                "pitch": 39,
                "velocity": 80,
                "duration": 2.1090909090909093,
                "tempo": 120.0
            },
            {
                "start_time": 28.46363636363636,
                "end_time": 28.545454545454543,
                "pitch": 39,
                "velocity": 80,
                "duration": 0.08181818181818201,
                "tempo": 120.0
            },
            {
                "start_time": 28.595454545454544,
                "end_time": 28.679545454545455,
                "pitch": 36,
                "velocity": 80,
                "duration": 0.08409090909091077,
                "tempo": 120.0
            },
            {
                "start_time": 26.570454545454545,
                "end_time": 28.729545454545452,
                "pitch": 52,
                "velocity": 80,
                "duration": 2.1590909090909065,
                "tempo": 120.0
            },
            {
                "start_time": 28.729545454545452,
                "end_time": 28.811363636363634,
                "pitch": 43,
                "velocity": 80,
                "duration": 0.08181818181818201,
                "tempo": 120.0
            },
            {
                "start_time": 26.704545454545453,
                "end_time": 28.863636363636363,
                "pitch": 0,
                "velocity": 80,
                "duration": 2.15909090909091,
                "tempo": 120.0
            },
            {
                "start_time": 26.977272727272727,
                "end_time": 29.084090909090907,
                "pitch": 42,
                "velocity": 80,
                "duration": 2.1068181818181806,
                "tempo": 120.0
            },
            {
                "start_time": 28.863636363636363,
                "end_time": 29.084090909090907,
                "pitch": 42,
                "velocity": 80,
                "duration": 0.2204545454545439,
                "tempo": 120.0
            },
            {
                "start_time": 29.136363636363637,
                "end_time": 29.220454545454544,
                "pitch": 36,
                "velocity": 80,
                "duration": 0.08409090909090722,
                "tempo": 120.0
            },
            {
                "start_time": 29.270454545454545,
                "end_time": 29.35681818181818,
                "pitch": 48,
                "velocity": 80,
                "duration": 0.08636363636363598,
                "tempo": 120.0
            },
            {
                "start_time": 29.409090909090907,
                "end_time": 29.49090909090909,
                "pitch": 36,
                "velocity": 80,
                "duration": 0.08181818181818201,
                "tempo": 120.0
            },
            {
                "start_time": 29.54090909090909,
                "end_time": 29.625,
                "pitch": 36,
                "velocity": 80,
                "duration": 0.08409090909091077,
                "tempo": 120.0
            },
            {
                "start_time": 29.674999999999997,
                "end_time": 29.759090909090908,
                "pitch": 36,
                "velocity": 80,
                "duration": 0.08409090909091077,
                "tempo": 120.0
            },
            {
                "start_time": 29.80909090909091,
                "end_time": 29.893181818181816,
                "pitch": 48,
                "velocity": 80,
                "duration": 0.08409090909090722,
                "tempo": 120.0
            },
            {
                "start_time": 29.943181818181817,
                "end_time": 30.159090909090907,
                "pitch": 36,
                "velocity": 80,
                "duration": 0.21590909090908994,
                "tempo": 120.0
            },
            {
                "start_time": 30.211363636363636,
                "end_time": 30.293181818181818,
                "pitch": 36,
                "velocity": 80,
                "duration": 0.08181818181818201,
                "tempo": 120.0
            },
            {
                "start_time": 28.327272727272724,
                "end_time": 30.427272727272726,
                "pitch": 38,
                "velocity": 80,
                "duration": 2.1000000000000014,
                "tempo": 120.0
            },
            {
                "start_time": 30.345454545454544,
                "end_time": 30.427272727272726,
                "pitch": 38,
                "velocity": 80,
                "duration": 0.08181818181818201,
                "tempo": 120.0
            },
            {
                "start_time": 30.345454545454544,
                "end_time": 30.561363636363634,
                "pitch": 36,
                "velocity": 80,
                "duration": 0.21590909090908994,
                "tempo": 120.0
            },
            {
                "start_time": 30.477272727272727,
                "end_time": 30.561363636363634,
                "pitch": 36,
                "velocity": 80,
                "duration": 0.08409090909090722,
                "tempo": 120.0
            },
            {
                "start_time": 30.611363636363635,
                "end_time": 30.613636363636363,
                "pitch": 36,
                "velocity": 80,
                "duration": 0.0022727272727287584,
                "tempo": 120.0
            },
            {
                "start_time": 28.595454545454544,
                "end_time": 30.695454545454545,
                "pitch": 39,
                "velocity": 80,
                "duration": 2.1000000000000014,
                "tempo": 120.0
            },
            {
                "start_time": 30.613636363636363,
                "end_time": 30.695454545454545,
                "pitch": 39,
                "velocity": 80,
                "duration": 0.08181818181818201,
                "tempo": 120.0
            },
            {
                "start_time": 30.745454545454542,
                "end_time": 30.829545454545453,
                "pitch": 36,
                "velocity": 80,
                "duration": 0.08409090909091077,
                "tempo": 120.0
            },
            {
                "start_time": 28.729545454545452,
                "end_time": 30.879545454545454,
                "pitch": 52,
                "velocity": 80,
                "duration": 2.150000000000002,
                "tempo": 120.0
            },
            {
                "start_time": 30.879545454545454,
                "end_time": 30.961363636363636,
                "pitch": 43,
                "velocity": 80,
                "duration": 0.08181818181818201,
                "tempo": 120.0
            },
            {
                "start_time": 28.863636363636363,
                "end_time": 31.013636363636362,
                "pitch": 0,
                "velocity": 80,
                "duration": 2.1499999999999986,
                "tempo": 120.0
            },
            {
                "start_time": 29.136363636363637,
                "end_time": 31.23409090909091,
                "pitch": 42,
                "velocity": 80,
                "duration": 2.0977272727272727,
                "tempo": 120.0
            },
            {
                "start_time": 31.013636363636362,
                "end_time": 31.23409090909091,
                "pitch": 42,
                "velocity": 80,
                "duration": 0.22045454545454746,
                "tempo": 120.0
            },
            {
                "start_time": 31.286363636363635,
                "end_time": 31.370454545454542,
                "pitch": 36,
                "velocity": 80,
                "duration": 0.08409090909090722,
                "tempo": 120.0
            },
            {
                "start_time": 31.422727272727272,
                "end_time": 31.50681818181818,
                "pitch": 48,
                "velocity": 80,
                "duration": 0.08409090909090722,
                "tempo": 120.0
            },
            {
                "start_time": 31.55909090909091,
                "end_time": 31.643181818181816,
                "pitch": 36,
                "velocity": 80,
                "duration": 0.08409090909090722,
                "tempo": 120.0
            },
            {
                "start_time": 30.477272727272727,
                "end_time": 31.779545454545453,
                "pitch": 38,
                "velocity": 80,
                "duration": 1.302272727272726,
                "tempo": 120.0
            },
            {
                "start_time": 31.695454545454545,
                "end_time": 31.779545454545453,
                "pitch": 38,
                "velocity": 80,
                "duration": 0.08409090909090722,
                "tempo": 120.0
            },
            {
                "start_time": 31.695454545454545,
                "end_time": 31.91363636363636,
                "pitch": 36,
                "velocity": 80,
                "duration": 0.21818181818181515,
                "tempo": 120.0
            },
            {
                "start_time": 31.831818181818182,
                "end_time": 31.91363636363636,
                "pitch": 36,
                "velocity": 80,
                "duration": 0.08181818181817846,
                "tempo": 120.0
            },
            {
                "start_time": 27.65,
                "end_time": 31.96590909090909,
                "pitch": 40,
                "velocity": 80,
                "duration": 4.315909090909091,
                "tempo": 120.0
            },
            {
                "start_time": 31.96590909090909,
                "end_time": 32.05,
                "pitch": 34,
                "velocity": 80,
                "duration": 0.08409090909090722,
                "tempo": 120.0
            },
            {
                "start_time": 27.784090909090907,
                "end_time": 32.10454545454545,
                "pitch": 14,
                "velocity": 80,
                "duration": 4.320454545454545,
                "tempo": 120.0
            },
            {
                "start_time": 32.10454545454545,
                "end_time": 32.320454545454545,
                "pitch": 36,
                "velocity": 80,
                "duration": 0.2159090909090935,
                "tempo": 120.0
            },
            {
                "start_time": 32.37045454545454,
                "end_time": 32.45227272727273,
                "pitch": 36,
                "velocity": 80,
                "duration": 0.08181818181818556,
                "tempo": 120.0
            },
            {
                "start_time": 31.831818181818182,
                "end_time": 32.586363636363636,
                "pitch": 38,
                "velocity": 80,
                "duration": 0.754545454545454,
                "tempo": 120.0
            },
            {
                "start_time": 32.50454545454545,
                "end_time": 32.586363636363636,
                "pitch": 38,
                "velocity": 80,
                "duration": 0.08181818181818556,
                "tempo": 120.0
            },
            {
                "start_time": 32.50454545454545,
                "end_time": 32.720454545454544,
                "pitch": 36,
                "velocity": 80,
                "duration": 0.2159090909090935,
                "tempo": 120.0
            },
            {
                "start_time": 32.638636363636365,
                "end_time": 32.720454545454544,
                "pitch": 36,
                "velocity": 80,
                "duration": 0.08181818181817846,
                "tempo": 120.0
            },
            {
                "start_time": 30.745454545454542,
                "end_time": 32.85454545454545,
                "pitch": 39,
                "velocity": 80,
                "duration": 2.1090909090909093,
                "tempo": 120.0
            },
            {
                "start_time": 32.77272727272727,
                "end_time": 32.85454545454545,
                "pitch": 39,
                "velocity": 80,
                "duration": 0.08181818181817846,
                "tempo": 120.0
            },
            {
                "start_time": 32.77272727272727,
                "end_time": 32.98863636363636,
                "pitch": 36,
                "velocity": 80,
                "duration": 0.2159090909090864,
                "tempo": 120.0
            },
            {
                "start_time": 32.904545454545456,
                "end_time": 32.98863636363636,
                "pitch": 36,
                "velocity": 80,
                "duration": 0.08409090909090366,
                "tempo": 120.0
            },
            {
                "start_time": 30.879545454545454,
                "end_time": 33.04090909090909,
                "pitch": 52,
                "velocity": 80,
                "duration": 2.1613636363636353,
                "tempo": 120.0
            },
            {
                "start_time": 33.038636363636364,
                "end_time": 33.04090909090909,
                "pitch": 52,
                "velocity": 80,
                "duration": 0.0022727272727252057,
                "tempo": 120.0
            },
            {
                "start_time": 33.04090909090909,
                "end_time": 33.12272727272727,
                "pitch": 43,
                "velocity": 80,
                "duration": 0.08181818181817846,
                "tempo": 120.0
            },
            {
                "start_time": 31.013636363636362,
                "end_time": 33.17272727272727,
                "pitch": 0,
                "velocity": 80,
                "duration": 2.15909090909091,
                "tempo": 120.0
            },
            {
                "start_time": 31.286363636363635,
                "end_time": 33.393181818181816,
                "pitch": 42,
                "velocity": 80,
                "duration": 2.1068181818181806,
                "tempo": 120.0
            },
            {
                "start_time": 33.17272727272727,
                "end_time": 33.393181818181816,
                "pitch": 42,
                "velocity": 80,
                "duration": 0.2204545454545439,
                "tempo": 120.0
            },
            {
                "start_time": 33.445454545454545,
                "end_time": 33.529545454545456,
                "pitch": 36,
                "velocity": 80,
                "duration": 0.08409090909091077,
                "tempo": 120.0
            },
            {
                "start_time": 33.58181818181818,
                "end_time": 33.66590909090909,
                "pitch": 48,
                "velocity": 80,
                "duration": 0.08409090909091077,
                "tempo": 120.0
            },
            {
                "start_time": 33.71818181818182,
                "end_time": 33.8,
                "pitch": 36,
                "velocity": 80,
                "duration": 0.08181818181817846,
                "tempo": 120.0
            },
            {
                "start_time": 33.85227272727273,
                "end_time": 33.934090909090905,
                "pitch": 36,
                "velocity": 80,
                "duration": 0.08181818181817846,
                "tempo": 120.0
            },
            {
                "start_time": 33.986363636363635,
                "end_time": 34.06818181818181,
                "pitch": 36,
                "velocity": 80,
                "duration": 0.08181818181817846,
                "tempo": 120.0
            },
            {
                "start_time": 34.11818181818182,
                "end_time": 34.20227272727273,
                "pitch": 48,
                "velocity": 80,
                "duration": 0.08409090909091077,
                "tempo": 120.0
            },
            {
                "start_time": 34.25454545454545,
                "end_time": 34.47272727272727,
                "pitch": 36,
                "velocity": 80,
                "duration": 0.2181818181818187,
                "tempo": 120.0
            },
            {
                "start_time": 34.525,
                "end_time": 34.60909090909091,
                "pitch": 36,
                "velocity": 80,
                "duration": 0.08409090909091077,
                "tempo": 120.0
            },
            {
                "start_time": 32.638636363636365,
                "end_time": 34.74545454545454,
                "pitch": 38,
                "velocity": 80,
                "duration": 2.106818181818177,
                "tempo": 120.0
            },
            {
                "start_time": 34.66136363636363,
                "end_time": 34.74545454545454,
                "pitch": 38,
                "velocity": 80,
                "duration": 0.08409090909091077,
                "tempo": 120.0
            },
            {
                "start_time": 34.66136363636363,
                "end_time": 34.88181818181818,
                "pitch": 36,
                "velocity": 80,
                "duration": 0.220454545454551,
                "tempo": 120.0
            },
            {
                "start_time": 34.79772727272727,
                "end_time": 34.88181818181818,
                "pitch": 36,
                "velocity": 80,
                "duration": 0.08409090909091077,
                "tempo": 120.0
            },
            {
                "start_time": 32.904545454545456,
                "end_time": 35.013636363636365,
                "pitch": 39,
                "velocity": 80,
                "duration": 2.1090909090909093,
                "tempo": 120.0
            },
            {
                "start_time": 34.93181818181818,
                "end_time": 35.013636363636365,
                "pitch": 39,
                "velocity": 80,
                "duration": 0.08181818181818556,
                "tempo": 120.0
            },
            {
                "start_time": 34.93181818181818,
                "end_time": 35.14772727272727,
                "pitch": 36,
                "velocity": 80,
                "duration": 0.2159090909090935,
                "tempo": 120.0
            },
            {
                "start_time": 35.06363636363636,
                "end_time": 35.14772727272727,
                "pitch": 36,
                "velocity": 80,
                "duration": 0.08409090909091077,
                "tempo": 120.0
            },
            {
                "start_time": 35.199999999999996,
                "end_time": 35.28181818181818,
                "pitch": 43,
                "velocity": 80,
                "duration": 0.08181818181818556,
                "tempo": 120.0
            },
            {
                "start_time": 33.17272727272727,
                "end_time": 35.33181818181818,
                "pitch": 0,
                "velocity": 80,
                "duration": 2.1590909090909065,
                "tempo": 120.0
            },
            {
                "start_time": 33.445454545454545,
                "end_time": 35.55,
                "pitch": 42,
                "velocity": 80,
                "duration": 2.104545454545452,
                "tempo": 120.0
            },
            {
                "start_time": 35.33181818181818,
                "end_time": 35.55,
                "pitch": 42,
                "velocity": 80,
                "duration": 0.2181818181818187,
                "tempo": 120.0
            },
            {
                "start_time": 35.60227272727273,
                "end_time": 35.684090909090905,
                "pitch": 36,
                "velocity": 80,
                "duration": 0.08181818181817846,
                "tempo": 120.0
            },
            {
                "start_time": 35.73409090909091,
                "end_time": 35.81590909090909,
                "pitch": 48,
                "velocity": 80,
                "duration": 0.08181818181817846,
                "tempo": 120.0
            },
            {
                "start_time": 35.86818181818182,
                "end_time": 35.95227272727273,
                "pitch": 36,
                "velocity": 80,
                "duration": 0.08409090909091077,
                "tempo": 120.0
            },
            {
                "start_time": 34.79772727272727,
                "end_time": 36.08863636363636,
                "pitch": 38,
                "velocity": 80,
                "duration": 1.2909090909090892,
                "tempo": 120.0
            },
            {
                "start_time": 36.00454545454545,
                "end_time": 36.08863636363636,
                "pitch": 38,
                "velocity": 80,
                "duration": 0.08409090909091077,
                "tempo": 120.0
            },
            {
                "start_time": 36.00454545454545,
                "end_time": 36.225,
                "pitch": 36,
                "velocity": 80,
                "duration": 0.220454545454551,
                "tempo": 120.0
            },
            {
                "start_time": 36.14090909090909,
                "end_time": 36.225,
                "pitch": 36,
                "velocity": 80,
                "duration": 0.08409090909091077,
                "tempo": 120.0
            },
            {
                "start_time": 31.96590909090909,
                "end_time": 36.277272727272724,
                "pitch": 40,
                "velocity": 80,
                "duration": 4.311363636363634,
                "tempo": 120.0
            },
            {
                "start_time": 36.277272727272724,
                "end_time": 36.361363636363635,
                "pitch": 34,
                "velocity": 80,
                "duration": 0.08409090909091077,
                "tempo": 120.0
            },
            {
                "start_time": 32.10454545454545,
                "end_time": 36.413636363636364,
                "pitch": 14,
                "velocity": 80,
                "duration": 4.309090909090912,
                "tempo": 120.0
            },
            {
                "start_time": 36.413636363636364,
                "end_time": 36.62954545454545,
                "pitch": 36,
                "velocity": 80,
                "duration": 0.2159090909090864,
                "tempo": 120.0
            },
            {
                "start_time": 36.679545454545455,
                "end_time": 36.76363636363636,
                "pitch": 36,
                "velocity": 80,
                "duration": 0.08409090909090366,
                "tempo": 120.0
            },
            {
                "start_time": 36.14090909090909,
                "end_time": 36.89772727272727,
                "pitch": 38,
                "velocity": 80,
                "duration": 0.7568181818181827,
                "tempo": 120.0
            },
            {
                "start_time": 36.81363636363636,
                "end_time": 36.89772727272727,
                "pitch": 38,
                "velocity": 80,
                "duration": 0.08409090909091077,
                "tempo": 120.0
            },
            {
                "start_time": 36.81363636363636,
                "end_time": 37.03181818181818,
                "pitch": 36,
                "velocity": 80,
                "duration": 0.2181818181818187,
                "tempo": 120.0
            },
            {
                "start_time": 36.94772727272727,
                "end_time": 37.03181818181818,
                "pitch": 36,
                "velocity": 80,
                "duration": 0.08409090909091077,
                "tempo": 120.0
            },
            {
                "start_time": 35.06363636363636,
                "end_time": 37.168181818181814,
                "pitch": 39,
                "velocity": 80,
                "duration": 2.104545454545452,
                "tempo": 120.0
            },
            {
                "start_time": 37.08409090909091,
                "end_time": 37.168181818181814,
                "pitch": 39,
                "velocity": 80,
                "duration": 0.08409090909090366,
                "tempo": 120.0
            },
            {
                "start_time": 37.08409090909091,
                "end_time": 37.304545454545455,
                "pitch": 36,
                "velocity": 80,
                "duration": 0.2204545454545439,
                "tempo": 120.0
            },
            {
                "start_time": 37.220454545454544,
                "end_time": 37.304545454545455,
                "pitch": 36,
                "velocity": 80,
                "duration": 0.08409090909091077,
                "tempo": 120.0
            },
            {
                "start_time": 35.199999999999996,
                "end_time": 37.35681818181818,
                "pitch": 52,
                "velocity": 80,
                "duration": 2.1568181818181813,
                "tempo": 120.0
            },
            {
                "start_time": 37.35681818181818,
                "end_time": 37.44090909090909,
                "pitch": 43,
                "velocity": 80,
                "duration": 0.08409090909091077,
                "tempo": 120.0
            },
            {
                "start_time": 35.33181818181818,
                "end_time": 37.49318181818182,
                "pitch": 0,
                "velocity": 80,
                "duration": 2.161363636363639,
                "tempo": 120.0
            },
            {
                "start_time": 35.60227272727273,
                "end_time": 37.70909090909091,
                "pitch": 42,
                "velocity": 80,
                "duration": 2.106818181818184,
                "tempo": 120.0
            },
            {
                "start_time": 37.49318181818182,
                "end_time": 37.70909090909091,
                "pitch": 42,
                "velocity": 80,
                "duration": 0.2159090909090935,
                "tempo": 120.0
            },
            {
                "start_time": 37.75909090909091,
                "end_time": 37.84318181818182,
                "pitch": 36,
                "velocity": 80,
                "duration": 0.08409090909091077,
                "tempo": 120.0
            },
            {
                "start_time": 37.893181818181816,
                "end_time": 37.97727272727273,
                "pitch": 48,
                "velocity": 80,
                "duration": 0.08409090909091077,
                "tempo": 120.0
            },
            {
                "start_time": 38.027272727272724,
                "end_time": 38.10909090909091,
                "pitch": 36,
                "velocity": 80,
                "duration": 0.08181818181818556,
                "tempo": 120.0
            },
            {
                "start_time": 38.16136363636363,
                "end_time": 38.24318181818182,
                "pitch": 36,
                "velocity": 80,
                "duration": 0.08181818181818556,
                "tempo": 120.0
            },
            {
                "start_time": 38.29545454545455,
                "end_time": 38.377272727272725,
                "pitch": 36,
                "velocity": 80,
                "duration": 0.08181818181817846,
                "tempo": 120.0
            },
            {
                "start_time": 38.429545454545455,
                "end_time": 38.51136363636363,
                "pitch": 48,
                "velocity": 80,
                "duration": 0.08181818181817846,
                "tempo": 120.0
            },
            {
                "start_time": 38.56363636363636,
                "end_time": 38.78181818181818,
                "pitch": 36,
                "velocity": 80,
                "duration": 0.2181818181818187,
                "tempo": 120.0
            },
            {
                "start_time": 38.834090909090904,
                "end_time": 38.918181818181814,
                "pitch": 36,
                "velocity": 80,
                "duration": 0.08409090909091077,
                "tempo": 120.0
            },
            {
                "start_time": 36.94772727272727,
                "end_time": 39.054545454545455,
                "pitch": 38,
                "velocity": 80,
                "duration": 2.106818181818184,
                "tempo": 120.0
            },
            {
                "start_time": 38.970454545454544,
                "end_time": 39.054545454545455,
                "pitch": 38,
                "velocity": 80,
                "duration": 0.08409090909091077,
                "tempo": 120.0
            },
            {
                "start_time": 38.970454545454544,
                "end_time": 39.19090909090909,
                "pitch": 36,
                "velocity": 80,
                "duration": 0.2204545454545439,
                "tempo": 120.0
            },
            {
                "start_time": 39.10681818181818,
                "end_time": 39.19090909090909,
                "pitch": 36,
                "velocity": 80,
                "duration": 0.08409090909091077,
                "tempo": 120.0
            },
            {
                "start_time": 37.220454545454544,
                "end_time": 39.32727272727273,
                "pitch": 39,
                "velocity": 80,
                "duration": 2.106818181818184,
                "tempo": 120.0
            },
            {
                "start_time": 39.24318181818182,
                "end_time": 39.32727272727273,
                "pitch": 39,
                "velocity": 80,
                "duration": 0.08409090909091077,
                "tempo": 120.0
            },
            {
                "start_time": 39.24318181818182,
                "end_time": 39.46363636363636,
                "pitch": 36,
                "velocity": 80,
                "duration": 0.2204545454545439,
                "tempo": 120.0
            },
            {
                "start_time": 39.37954545454545,
                "end_time": 39.46363636363636,
                "pitch": 36,
                "velocity": 80,
                "duration": 0.08409090909091077,
                "tempo": 120.0
            },
            {
                "start_time": 39.51590909090909,
                "end_time": 39.6,
                "pitch": 36,
                "velocity": 80,
                "duration": 0.08409090909091077,
                "tempo": 120.0
            },
            {
                "start_time": 36.277272727272724,
                "end_time": 39.652272727272724,
                "pitch": 40,
                "velocity": 80,
                "duration": 3.375,
                "tempo": 120.0
            },
            {
                "start_time": 39.652272727272724,
                "end_time": 39.86818181818182,
                "pitch": 34,
                "velocity": 80,
                "duration": 0.2159090909090935,
                "tempo": 120.0
            },
            {
                "start_time": 39.918181818181814,
                "end_time": 40.002272727272725,
                "pitch": 34,
                "velocity": 80,
                "duration": 0.08409090909091077,
                "tempo": 120.0
            },
            {
                "start_time": 40.05227272727272,
                "end_time": 40.13636363636363,
                "pitch": 46,
                "velocity": 80,
                "duration": 0.08409090909091077,
                "tempo": 120.0
            },
            {
                "start_time": 40.18636363636364,
                "end_time": 40.27045454545454,
                "pitch": 34,
                "velocity": 80,
                "duration": 0.08409090909090366,
                "tempo": 120.0
            },
            {
                "start_time": 40.320454545454545,
                "end_time": 40.404545454545456,
                "pitch": 34,
                "velocity": 80,
                "duration": 0.08409090909091077,
                "tempo": 120.0
            },
            {
                "start_time": 40.45454545454545,
                "end_time": 40.53636363636363,
                "pitch": 35,
                "velocity": 80,
                "duration": 0.08181818181817846,
                "tempo": 120.0
            },
            {
                "start_time": 40.58863636363636,
                "end_time": 40.67045454545455,
                "pitch": 47,
                "velocity": 80,
                "duration": 0.08181818181818556,
                "tempo": 120.0
            },
            {
                "start_time": 40.72272727272727,
                "end_time": 40.80681818181818,
                "pitch": 35,
                "velocity": 80,
                "duration": 0.08409090909091077,
                "tempo": 120.0
            },
            {
                "start_time": 40.861363636363635,
                "end_time": 40.94318181818181,
                "pitch": 48,
                "velocity": 80,
                "duration": 0.08181818181817846,
                "tempo": 120.0
            },
            {
                "start_time": 37.35681818181818,
                "end_time": 40.99545454545454,
                "pitch": 52,
                "velocity": 80,
                "duration": 3.6386363636363654,
                "tempo": 120.0
            },
            {
                "start_time": 40.99545454545454,
                "end_time": 40.99772727272727,
                "pitch": 46,
                "velocity": 80,
                "duration": 0.0022727272727252057,
                "tempo": 120.0
            }
        ],
        "Acoustic Grand Piano": [
            {
                "start_time": 0.006818181818181818,
                "end_time": 0.07727272727272727,
                "pitch": 48,
                "velocity": 51,
                "duration": 0.07045454545454545,
                "tempo": 120.0
            },
            {
                "start_time": 0.10227272727272727,
                "end_time": 0.10454545454545454,
                "pitch": 52,
                "velocity": 51,
                "duration": 0.0022727272727272735,
                "tempo": 120.0
            },
            {
                "start_time": 0.10454545454545454,
                "end_time": 0.17727272727272728,
                "pitch": 46,
                "velocity": 51,
                "duration": 0.07272727272727274,
                "tempo": 120.0
            },
            {
                "start_time": 0.3045454545454545,
                "end_time": 0.4022727272727272,
                "pitch": 43,
                "velocity": 51,
                "duration": 0.09772727272727272,
                "tempo": 120.0
            },
            {
                "start_time": 0.006818181818181818,
                "end_time": 0.5704545454545454,
                "pitch": 0,
                "velocity": 51,
                "duration": 0.5636363636363636,
                "tempo": 120.0
            },
            {
                "start_time": 0.5704545454545454,
                "end_time": 0.6681818181818181,
                "pitch": 42,
                "velocity": 51,
                "duration": 0.09772727272727266,
                "tempo": 120.0
            },
            {
                "start_time": 0.8386363636363636,
                "end_time": 1.0704545454545453,
                "pitch": 42,
                "velocity": 51,
                "duration": 0.2318181818181817,
                "tempo": 120.0
            },
            {
                "start_time": 1.1068181818181817,
                "end_time": 1.2045454545454546,
                "pitch": 39,
                "velocity": 51,
                "duration": 0.09772727272727288,
                "tempo": 120.0
            },
            {
                "start_time": 1.3727272727272726,
                "end_time": 1.8227272727272725,
                "pitch": 36,
                "velocity": 51,
                "duration": 0.44999999999999996,
                "tempo": 120.0
            },
            {
                "start_time": 1.8227272727272725,
                "end_time": 1.8568181818181817,
                "pitch": 33,
                "velocity": 51,
                "duration": 0.03409090909090917,
                "tempo": 120.0
            },
            {
                "start_time": 1.8568181818181817,
                "end_time": 1.8909090909090909,
                "pitch": 31,
                "velocity": 51,
                "duration": 0.03409090909090917,
                "tempo": 120.0
            },
            {
                "start_time": 1.8909090909090909,
                "end_time": 1.9227272727272726,
                "pitch": 29,
                "velocity": 51,
                "duration": 0.031818181818181746,
                "tempo": 120.0
            },
            {
                "start_time": 1.9227272727272726,
                "end_time": 1.9568181818181818,
                "pitch": 26,
                "velocity": 51,
                "duration": 0.03409090909090917,
                "tempo": 120.0
            },
            {
                "start_time": 1.9568181818181818,
                "end_time": 1.9909090909090907,
                "pitch": 23,
                "velocity": 51,
                "duration": 0.03409090909090895,
                "tempo": 120.0
            },
            {
                "start_time": 1.9909090909090907,
                "end_time": 2.009090909090909,
                "pitch": 19,
                "velocity": 51,
                "duration": 0.018181818181818077,
                "tempo": 120.0
            },
            {
                "start_time": 2.0454545454545454,
                "end_time": 2.1454545454545455,
                "pitch": 58,
                "velocity": 51,
                "duration": 0.10000000000000009,
                "tempo": 120.0
            },
            {
                "start_time": 2.4545454545454546,
                "end_time": 2.5522727272727272,
                "pitch": 58,
                "velocity": 51,
                "duration": 0.09772727272727266,
                "tempo": 120.0
            },
            {
                "start_time": 2.8613636363636363,
                "end_time": 3.2295454545454545,
                "pitch": 58,
                "velocity": 51,
                "duration": 0.36818181818181817,
                "tempo": 120.0
            },
            {
                "start_time": 3.2659090909090907,
                "end_time": 3.3636363636363633,
                "pitch": 53,
                "velocity": 51,
                "duration": 0.09772727272727266,
                "tempo": 120.0
            },
            {
                "start_time": 3.4,
                "end_time": 3.4977272727272726,
                "pitch": 58,
                "velocity": 51,
                "duration": 0.09772727272727266,
                "tempo": 120.0
            },
            {
                "start_time": 3.2659090909090907,
                "end_time": 3.5340909090909087,
                "pitch": 26,
                "velocity": 51,
                "duration": 0.2681818181818181,
                "tempo": 120.0
            },
            {
                "start_time": 3.5318181818181817,
                "end_time": 3.5340909090909087,
                "pitch": 26,
                "velocity": 51,
                "duration": 0.002272727272726982,
                "tempo": 120.0
            },
            {
                "start_time": 3.5340909090909087,
                "end_time": 3.631818181818182,
                "pitch": 53,
                "velocity": 51,
                "duration": 0.0977272727272731,
                "tempo": 120.0
            },
            {
                "start_time": 3.6704545454545454,
                "end_time": 3.768181818181818,
                "pitch": 62,
                "velocity": 51,
                "duration": 0.09772727272727266,
                "tempo": 120.0
            },
            {
                "start_time": 3.6704545454545454,
                "end_time": 3.8045454545454542,
                "pitch": 65,
                "velocity": 51,
                "duration": 0.13409090909090882,
                "tempo": 120.0
            },
            {
                "start_time": 3.8045454545454542,
                "end_time": 3.9045454545454543,
                "pitch": 58,
                "velocity": 51,
                "duration": 0.10000000000000009,
                "tempo": 120.0
            },
            {
                "start_time": 3.940909090909091,
                "end_time": 4.040909090909091,
                "pitch": 53,
                "velocity": 51,
                "duration": 0.10000000000000009,
                "tempo": 120.0
            },
            {
                "start_time": 4.077272727272727,
                "end_time": 4.175,
                "pitch": 50,
                "velocity": 51,
                "duration": 0.09772727272727266,
                "tempo": 120.0
            },
            {
                "start_time": 3.8045454545454542,
                "end_time": 4.211363636363636,
                "pitch": 65,
                "velocity": 51,
                "duration": 0.40681818181818175,
                "tempo": 120.0
            },
            {
                "start_time": 4.211363636363636,
                "end_time": 4.309090909090909,
                "pitch": 58,
                "velocity": 51,
                "duration": 0.09772727272727266,
                "tempo": 120.0
            },
            {
                "start_time": 4.613636363636363,
                "end_time": 4.711363636363636,
                "pitch": 58,
                "velocity": 51,
                "duration": 0.09772727272727266,
                "tempo": 120.0
            },
            {
                "start_time": 5.015909090909091,
                "end_time": 5.384090909090909,
                "pitch": 58,
                "velocity": 51,
                "duration": 0.36818181818181817,
                "tempo": 120.0
            },
            {
                "start_time": 3.940909090909091,
                "end_time": 5.420454545454545,
                "pitch": 26,
                "velocity": 51,
                "duration": 1.479545454545454,
                "tempo": 120.0
            },
            {
                "start_time": 4.077272727272727,
                "end_time": 5.5204545454545455,
                "pitch": 53,
                "velocity": 51,
                "duration": 1.4431818181818183,
                "tempo": 120.0
            },
            {
                "start_time": 5.420454545454545,
                "end_time": 5.5204545454545455,
                "pitch": 53,
                "velocity": 51,
                "duration": 0.10000000000000053,
                "tempo": 120.0
            },
            {
                "start_time": 3.4,
                "end_time": 5.556818181818182,
                "pitch": 66,
                "velocity": 51,
                "duration": 2.1568181818181817,
                "tempo": 120.0
            },
            {
                "start_time": 5.556818181818182,
                "end_time": 5.656818181818181,
                "pitch": 58,
                "velocity": 51,
                "duration": 0.09999999999999964,
                "tempo": 120.0
            },
            {
                "start_time": 5.420454545454545,
                "end_time": 5.693181818181818,
                "pitch": 26,
                "velocity": 51,
                "duration": 0.2727272727272734,
                "tempo": 120.0
            },
            {
                "start_time": 5.693181818181818,
                "end_time": 5.790909090909091,
                "pitch": 53,
                "velocity": 51,
                "duration": 0.09772727272727266,
                "tempo": 120.0
            },
            {
                "start_time": 4.211363636363636,
                "end_time": 5.827272727272727,
                "pitch": 65,
                "velocity": 51,
                "duration": 1.6159090909090912,
                "tempo": 120.0
            },
            {
                "start_time": 5.827272727272727,
                "end_time": 5.925,
                "pitch": 62,
                "velocity": 51,
                "duration": 0.09772727272727266,
                "tempo": 120.0
            },
            {
                "start_time": 5.827272727272727,
                "end_time": 5.961363636363636,
                "pitch": 65,
                "velocity": 51,
                "duration": 0.13409090909090882,
                "tempo": 120.0
            },
            {
                "start_time": 5.961363636363636,
                "end_time": 6.059090909090909,
                "pitch": 58,
                "velocity": 51,
                "duration": 0.09772727272727266,
                "tempo": 120.0
            },
            {
                "start_time": 5.693181818181818,
                "end_time": 6.095454545454545,
                "pitch": 26,
                "velocity": 51,
                "duration": 0.40227272727272645,
                "tempo": 120.0
            },
            {
                "start_time": 6.095454545454545,
                "end_time": 6.1931818181818175,
                "pitch": 53,
                "velocity": 51,
                "duration": 0.09772727272727266,
                "tempo": 120.0
            },
            {
                "start_time": 6.227272727272727,
                "end_time": 6.327272727272727,
                "pitch": 50,
                "velocity": 51,
                "duration": 0.10000000000000053,
                "tempo": 120.0
            },
            {
                "start_time": 6.36590909090909,
                "end_time": 7.404545454545454,
                "pitch": 60,
                "velocity": 51,
                "duration": 1.038636363636364,
                "tempo": 120.0
            },
            {
                "start_time": 7.4409090909090905,
                "end_time": 8.486363636363636,
                "pitch": 60,
                "velocity": 51,
                "duration": 1.0454545454545459,
                "tempo": 120.0
            },
            {
                "start_time": 8.520454545454545,
                "end_time": 9.022727272727272,
                "pitch": 60,
                "velocity": 51,
                "duration": 0.502272727272727,
                "tempo": 120.0
            },
            {
                "start_time": 9.195454545454545,
                "end_time": 9.295454545454545,
                "pitch": 60,
                "velocity": 51,
                "duration": 0.09999999999999964,
                "tempo": 120.0
            },
            {
                "start_time": 9.331818181818182,
                "end_time": 9.429545454545455,
                "pitch": 63,
                "velocity": 51,
                "duration": 0.09772727272727266,
                "tempo": 120.0
            },
            {
                "start_time": 9.468181818181817,
                "end_time": 9.56590909090909,
                "pitch": 67,
                "velocity": 51,
                "duration": 0.09772727272727266,
                "tempo": 120.0
            },
            {
                "start_time": 9.6,
                "end_time": 9.7,
                "pitch": 70,
                "velocity": 51,
                "duration": 0.09999999999999964,
                "tempo": 120.0
            },
            {
                "start_time": 10.002272727272727,
                "end_time": 10.1,
                "pitch": 70,
                "velocity": 51,
                "duration": 0.09772727272727266,
                "tempo": 120.0
            },
            {
                "start_time": 10.404545454545454,
                "end_time": 10.502272727272727,
                "pitch": 70,
                "velocity": 51,
                "duration": 0.09772727272727266,
                "tempo": 120.0
            },
            {
                "start_time": 9.331818181818182,
                "end_time": 11.71590909090909,
                "pitch": 60,
                "velocity": 51,
                "duration": 2.384090909090908,
                "tempo": 120.0
            },
            {
                "start_time": 10.538636363636362,
                "end_time": 11.71590909090909,
                "pitch": 60,
                "velocity": 51,
                "duration": 1.1772727272727277,
                "tempo": 120.0
            },
            {
                "start_time": 11.752272727272727,
                "end_time": 12.795454545454545,
                "pitch": 60,
                "velocity": 51,
                "duration": 1.043181818181818,
                "tempo": 120.0
            },
            {
                "start_time": 12.829545454545453,
                "end_time": 13.331818181818182,
                "pitch": 60,
                "velocity": 51,
                "duration": 0.5022727272727288,
                "tempo": 120.0
            },
            {
                "start_time": 13.504545454545454,
                "end_time": 13.604545454545454,
                "pitch": 60,
                "velocity": 51,
                "duration": 0.09999999999999964,
                "tempo": 120.0
            },
            {
                "start_time": 13.64090909090909,
                "end_time": 13.74090909090909,
                "pitch": 63,
                "velocity": 51,
                "duration": 0.09999999999999964,
                "tempo": 120.0
            },
            {
                "start_time": 9.468181818181817,
                "end_time": 13.777272727272727,
                "pitch": 77,
                "velocity": 51,
                "duration": 4.30909090909091,
                "tempo": 120.0
            },
            {
                "start_time": 9.6,
                "end_time": 13.875,
                "pitch": 67,
                "velocity": 51,
                "duration": 4.275,
                "tempo": 120.0
            },
            {
                "start_time": 13.777272727272727,
                "end_time": 13.875,
                "pitch": 67,
                "velocity": 51,
                "duration": 0.09772727272727266,
                "tempo": 120.0
            },
            {
                "start_time": 13.911363636363635,
                "end_time": 14.009090909090908,
                "pitch": 70,
                "velocity": 51,
                "duration": 0.09772727272727266,
                "tempo": 120.0
            },
            {
                "start_time": 14.311363636363636,
                "end_time": 14.409090909090908,
                "pitch": 70,
                "velocity": 51,
                "duration": 0.09772727272727266,
                "tempo": 120.0
            },
            {
                "start_time": 14.713636363636363,
                "end_time": 14.811363636363636,
                "pitch": 70,
                "velocity": 51,
                "duration": 0.09772727272727266,
                "tempo": 120.0
            },
            {
                "start_time": 6.095454545454545,
                "end_time": 14.847727272727273,
                "pitch": 26,
                "velocity": 51,
                "duration": 8.752272727272729,
                "tempo": 120.0
            },
            {
                "start_time": 14.847727272727273,
                "end_time": 15.08181818181818,
                "pitch": 51,
                "velocity": 51,
                "duration": 0.23409090909090757,
                "tempo": 120.0
            },
            {
                "start_time": 5.961363636363636,
                "end_time": 15.120454545454544,
                "pitch": 65,
                "velocity": 51,
                "duration": 9.159090909090908,
                "tempo": 120.0
            },
            {
                "start_time": 15.120454545454544,
                "end_time": 15.218181818181817,
                "pitch": 56,
                "velocity": 51,
                "duration": 0.09772727272727266,
                "tempo": 120.0
            },
            {
                "start_time": 15.256818181818181,
                "end_time": 15.354545454545454,
                "pitch": 56,
                "velocity": 51,
                "duration": 0.09772727272727266,
                "tempo": 120.0
            },
            {
                "start_time": 15.39090909090909,
                "end_time": 15.627272727272727,
                "pitch": 56,
                "velocity": 51,
                "duration": 0.23636363636363633,
                "tempo": 120.0
            },
            {
                "start_time": 10.538636363636362,
                "end_time": 15.663636363636362,
                "pitch": 38,
                "velocity": 51,
                "duration": 5.125,
                "tempo": 120.0
            },
            {
                "start_time": 13.64090909090909,
                "end_time": 15.763636363636364,
                "pitch": 60,
                "velocity": 51,
                "duration": 2.122727272727273,
                "tempo": 120.0
            },
            {
                "start_time": 15.663636363636362,
                "end_time": 15.763636363636364,
                "pitch": 60,
                "velocity": 51,
                "duration": 0.10000000000000142,
                "tempo": 120.0
            },
            {
                "start_time": 15.936363636363636,
                "end_time": 16.03409090909091,
                "pitch": 63,
                "velocity": 51,
                "duration": 0.09772727272727444,
                "tempo": 120.0
            },
            {
                "start_time": 15.936363636363636,
                "end_time": 16.436363636363634,
                "pitch": 60,
                "velocity": 51,
                "duration": 0.4999999999999982,
                "tempo": 120.0
            },
            {
                "start_time": 16.070454545454545,
                "end_time": 16.436363636363634,
                "pitch": 60,
                "velocity": 51,
                "duration": 0.3659090909090885,
                "tempo": 120.0
            },
            {
                "start_time": 16.472727272727273,
                "end_time": 16.970454545454544,
                "pitch": 60,
                "velocity": 51,
                "duration": 0.49772727272727124,
                "tempo": 120.0
            },
            {
                "start_time": 17.006818181818183,
                "end_time": 18.186363636363634,
                "pitch": 60,
                "velocity": 51,
                "duration": 1.1795454545454511,
                "tempo": 120.0
            },
            {
                "start_time": 18.222727272727273,
                "end_time": 19.129545454545454,
                "pitch": 58,
                "velocity": 51,
                "duration": 0.9068181818181813,
                "tempo": 120.0
            },
            {
                "start_time": 14.847727272727273,
                "end_time": 19.168181818181818,
                "pitch": 26,
                "velocity": 51,
                "duration": 4.320454545454545,
                "tempo": 120.0
            },
            {
                "start_time": 19.168181818181818,
                "end_time": 19.402272727272727,
                "pitch": 51,
                "velocity": 51,
                "duration": 0.23409090909090935,
                "tempo": 120.0
            },
            {
                "start_time": 15.120454545454544,
                "end_time": 19.438636363636363,
                "pitch": 65,
                "velocity": 51,
                "duration": 4.318181818181818,
                "tempo": 120.0
            },
            {
                "start_time": 19.438636363636363,
                "end_time": 19.538636363636364,
                "pitch": 56,
                "velocity": 51,
                "duration": 0.10000000000000142,
                "tempo": 120.0
            },
            {
                "start_time": 19.575,
                "end_time": 19.675,
                "pitch": 56,
                "velocity": 51,
                "duration": 0.10000000000000142,
                "tempo": 120.0
            },
            {
                "start_time": 19.711363636363636,
                "end_time": 19.943181818181817,
                "pitch": 56,
                "velocity": 51,
                "duration": 0.2318181818181806,
                "tempo": 120.0
            },
            {
                "start_time": 15.663636363636362,
                "end_time": 19.979545454545452,
                "pitch": 38,
                "velocity": 51,
                "duration": 4.31590909090909,
                "tempo": 120.0
            },
            {
                "start_time": 19.979545454545452,
                "end_time": 20.077272727272728,
                "pitch": 60,
                "velocity": 51,
                "duration": 0.09772727272727622,
                "tempo": 120.0
            },
            {
                "start_time": 16.070454545454545,
                "end_time": 20.34318181818182,
                "pitch": 63,
                "velocity": 51,
                "duration": 4.272727272727273,
                "tempo": 120.0
            },
            {
                "start_time": 20.245454545454546,
                "end_time": 20.34318181818182,
                "pitch": 63,
                "velocity": 51,
                "duration": 0.09772727272727266,
                "tempo": 120.0
            },
            {
                "start_time": 20.245454545454546,
                "end_time": 20.745454545454546,
                "pitch": 60,
                "velocity": 51,
                "duration": 0.5,
                "tempo": 120.0
            },
            {
                "start_time": 20.379545454545454,
                "end_time": 20.745454545454546,
                "pitch": 60,
                "velocity": 51,
                "duration": 0.36590909090909207,
                "tempo": 120.0
            },
            {
                "start_time": 20.78181818181818,
                "end_time": 21.288636363636364,
                "pitch": 60,
                "velocity": 51,
                "duration": 0.5068181818181827,
                "tempo": 120.0
            },
            {
                "start_time": 18.222727272727273,
                "end_time": 21.327272727272724,
                "pitch": 64,
                "velocity": 51,
                "duration": 3.104545454545452,
                "tempo": 120.0
            },
            {
                "start_time": 21.327272727272724,
                "end_time": 22.493181818181817,
                "pitch": 59,
                "velocity": 51,
                "duration": 1.1659090909090928,
                "tempo": 120.0
            },
            {
                "start_time": 6.36590909090909,
                "end_time": 22.627272727272725,
                "pitch": 62,
                "velocity": 51,
                "duration": 16.261363636363633,
                "tempo": 120.0
            },
            {
                "start_time": 22.529545454545453,
                "end_time": 22.627272727272725,
                "pitch": 62,
                "velocity": 51,
                "duration": 0.09772727272727266,
                "tempo": 120.0
            },
            {
                "start_time": 22.93181818181818,
                "end_time": 23.03181818181818,
                "pitch": 62,
                "velocity": 51,
                "duration": 0.10000000000000142,
                "tempo": 120.0
            },
            {
                "start_time": 23.204545454545453,
                "end_time": 23.304545454545455,
                "pitch": 62,
                "velocity": 51,
                "duration": 0.10000000000000142,
                "tempo": 120.0
            },
            {
                "start_time": 23.477272727272727,
                "end_time": 24.111363636363635,
                "pitch": 60,
                "velocity": 51,
                "duration": 0.6340909090909079,
                "tempo": 120.0
            },
            {
                "start_time": 20.379545454545454,
                "end_time": 24.518181818181816,
                "pitch": 63,
                "velocity": 51,
                "duration": 4.138636363636362,
                "tempo": 120.0
            },
            {
                "start_time": 24.14772727272727,
                "end_time": 24.518181818181816,
                "pitch": 63,
                "velocity": 51,
                "duration": 0.37045454545454604,
                "tempo": 120.0
            },
            {
                "start_time": 24.14772727272727,
                "end_time": 25.054545454545455,
                "pitch": 60,
                "velocity": 51,
                "duration": 0.9068181818181849,
                "tempo": 120.0
            },
            {
                "start_time": 24.554545454545455,
                "end_time": 25.054545454545455,
                "pitch": 60,
                "velocity": 51,
                "duration": 0.5,
                "tempo": 120.0
            },
            {
                "start_time": 25.09090909090909,
                "end_time": 25.19090909090909,
                "pitch": 60,
                "velocity": 51,
                "duration": 0.10000000000000142,
                "tempo": 120.0
            },
            {
                "start_time": 24.554545454545455,
                "end_time": 25.327272727272724,
                "pitch": 63,
                "velocity": 51,
                "duration": 0.7727272727272698,
                "tempo": 120.0
            },
            {
                "start_time": 25.227272727272727,
                "end_time": 25.327272727272724,
                "pitch": 63,
                "velocity": 51,
                "duration": 0.09999999999999787,
                "tempo": 120.0
            },
            {
                "start_time": 25.227272727272727,
                "end_time": 25.599999999999998,
                "pitch": 60,
                "velocity": 51,
                "duration": 0.37272727272727124,
                "tempo": 120.0
            },
            {
                "start_time": 25.363636363636363,
                "end_time": 25.599999999999998,
                "pitch": 60,
                "velocity": 51,
                "duration": 0.23636363636363455,
                "tempo": 120.0
            },
            {
                "start_time": 25.636363636363637,
                "end_time": 26.268181818181816,
                "pitch": 60,
                "velocity": 51,
                "duration": 0.6318181818181792,
                "tempo": 120.0
            },
            {
                "start_time": 25.363636363636363,
                "end_time": 26.670454545454543,
                "pitch": 63,
                "velocity": 51,
                "duration": 1.3068181818181799,
                "tempo": 120.0
            },
            {
                "start_time": 26.304545454545455,
                "end_time": 26.670454545454543,
                "pitch": 63,
                "velocity": 51,
                "duration": 0.3659090909090885,
                "tempo": 120.0
            },
            {
                "start_time": 26.304545454545455,
                "end_time": 26.94090909090909,
                "pitch": 60,
                "velocity": 51,
                "duration": 0.6363636363636367,
                "tempo": 120.0
            },
            {
                "start_time": 26.704545454545453,
                "end_time": 26.94090909090909,
                "pitch": 60,
                "velocity": 51,
                "duration": 0.2363636363636381,
                "tempo": 120.0
            },
            {
                "start_time": 21.327272727272724,
                "end_time": 26.979545454545452,
                "pitch": 64,
                "velocity": 51,
                "duration": 5.652272727272727,
                "tempo": 120.0
            },
            {
                "start_time": 26.979545454545452,
                "end_time": 27.347727272727273,
                "pitch": 58,
                "velocity": 51,
                "duration": 0.36818181818182083,
                "tempo": 120.0
            },
            {
                "start_time": 19.979545454545452,
                "end_time": 27.384090909090908,
                "pitch": 38,
                "velocity": 51,
                "duration": 7.404545454545456,
                "tempo": 120.0
            },
            {
                "start_time": 27.384090909090908,
                "end_time": 27.75,
                "pitch": 60,
                "velocity": 51,
                "duration": 0.36590909090909207,
                "tempo": 120.0
            },
            {
                "start_time": 27.786363636363635,
                "end_time": 28.429545454545455,
                "pitch": 60,
                "velocity": 51,
                "duration": 0.6431818181818194,
                "tempo": 120.0
            },
            {
                "start_time": 26.704545454545453,
                "end_time": 28.829545454545453,
                "pitch": 63,
                "velocity": 51,
                "duration": 2.125,
                "tempo": 120.0
            },
            {
                "start_time": 28.46363636363636,
                "end_time": 28.829545454545453,
                "pitch": 63,
                "velocity": 51,
                "duration": 0.36590909090909207,
                "tempo": 120.0
            },
            {
                "start_time": 28.46363636363636,
                "end_time": 29.37272727272727,
                "pitch": 60,
                "velocity": 51,
                "duration": 0.9090909090909101,
                "tempo": 120.0
            },
            {
                "start_time": 28.86590909090909,
                "end_time": 29.37272727272727,
                "pitch": 60,
                "velocity": 51,
                "duration": 0.5068181818181827,
                "tempo": 120.0
            },
            {
                "start_time": 29.409090909090907,
                "end_time": 29.509090909090908,
                "pitch": 60,
                "velocity": 51,
                "duration": 0.10000000000000142,
                "tempo": 120.0
            },
            {
                "start_time": 28.86590909090909,
                "end_time": 29.64090909090909,
                "pitch": 63,
                "velocity": 51,
                "duration": 0.7750000000000021,
                "tempo": 120.0
            },
            {
                "start_time": 29.543181818181818,
                "end_time": 29.64090909090909,
                "pitch": 63,
                "velocity": 51,
                "duration": 0.09772727272727266,
                "tempo": 120.0
            },
            {
                "start_time": 29.543181818181818,
                "end_time": 29.909090909090907,
                "pitch": 60,
                "velocity": 51,
                "duration": 0.3659090909090885,
                "tempo": 120.0
            },
            {
                "start_time": 29.677272727272726,
                "end_time": 29.909090909090907,
                "pitch": 60,
                "velocity": 51,
                "duration": 0.2318181818181806,
                "tempo": 120.0
            },
            {
                "start_time": 29.945454545454545,
                "end_time": 30.579545454545453,
                "pitch": 60,
                "velocity": 51,
                "duration": 0.6340909090909079,
                "tempo": 120.0
            },
            {
                "start_time": 29.677272727272726,
                "end_time": 30.979545454545452,
                "pitch": 63,
                "velocity": 51,
                "duration": 1.302272727272726,
                "tempo": 120.0
            },
            {
                "start_time": 30.613636363636363,
                "end_time": 30.979545454545452,
                "pitch": 63,
                "velocity": 51,
                "duration": 0.3659090909090885,
                "tempo": 120.0
            },
            {
                "start_time": 30.613636363636363,
                "end_time": 31.252272727272725,
                "pitch": 60,
                "velocity": 51,
                "duration": 0.6386363636363619,
                "tempo": 120.0
            },
            {
                "start_time": 31.01590909090909,
                "end_time": 31.252272727272725,
                "pitch": 60,
                "velocity": 51,
                "duration": 0.23636363636363455,
                "tempo": 120.0
            },
            {
                "start_time": 26.979545454545452,
                "end_time": 31.28863636363636,
                "pitch": 64,
                "velocity": 51,
                "duration": 4.309090909090909,
                "tempo": 120.0
            },
            {
                "start_time": 31.28863636363636,
                "end_time": 31.659090909090907,
                "pitch": 58,
                "velocity": 51,
                "duration": 0.37045454545454604,
                "tempo": 120.0
            },
            {
                "start_time": 27.384090909090908,
                "end_time": 31.69772727272727,
                "pitch": 38,
                "velocity": 51,
                "duration": 4.313636363636363,
                "tempo": 120.0
            },
            {
                "start_time": 31.695454545454545,
                "end_time": 31.69772727272727,
                "pitch": 38,
                "velocity": 51,
                "duration": 0.0022727272727252057,
                "tempo": 120.0
            },
            {
                "start_time": 31.69772727272727,
                "end_time": 32.06818181818182,
                "pitch": 60,
                "velocity": 51,
                "duration": 0.3704545454545496,
                "tempo": 120.0
            },
            {
                "start_time": 32.10681818181818,
                "end_time": 32.73863636363636,
                "pitch": 60,
                "velocity": 51,
                "duration": 0.6318181818181827,
                "tempo": 120.0
            },
            {
                "start_time": 31.01590909090909,
                "end_time": 33.138636363636365,
                "pitch": 63,
                "velocity": 51,
                "duration": 2.122727272727275,
                "tempo": 120.0
            },
            {
                "start_time": 32.775,
                "end_time": 33.138636363636365,
                "pitch": 63,
                "velocity": 51,
                "duration": 0.36363636363636687,
                "tempo": 120.0
            },
            {
                "start_time": 32.775,
                "end_time": 33.684090909090905,
                "pitch": 60,
                "velocity": 51,
                "duration": 0.9090909090909065,
                "tempo": 120.0
            },
            {
                "start_time": 33.175,
                "end_time": 33.684090909090905,
                "pitch": 60,
                "velocity": 51,
                "duration": 0.5090909090909079,
                "tempo": 120.0
            },
            {
                "start_time": 33.720454545454544,
                "end_time": 33.81818181818181,
                "pitch": 60,
                "velocity": 51,
                "duration": 0.09772727272726911,
                "tempo": 120.0
            },
            {
                "start_time": 33.175,
                "end_time": 33.95227272727273,
                "pitch": 63,
                "velocity": 51,
                "duration": 0.7772727272727309,
                "tempo": 120.0
            },
            {
                "start_time": 33.85454545454545,
                "end_time": 33.95227272727273,
                "pitch": 63,
                "velocity": 51,
                "duration": 0.09772727272727622,
                "tempo": 120.0
            },
            {
                "start_time": 33.85454545454545,
                "end_time": 34.21818181818182,
                "pitch": 60,
                "velocity": 51,
                "duration": 0.36363636363636687,
                "tempo": 120.0
            },
            {
                "start_time": 33.98863636363636,
                "end_time": 34.21818181818182,
                "pitch": 60,
                "velocity": 51,
                "duration": 0.22954545454545894,
                "tempo": 120.0
            },
            {
                "start_time": 34.25454545454545,
                "end_time": 34.89772727272727,
                "pitch": 60,
                "velocity": 51,
                "duration": 0.643181818181823,
                "tempo": 120.0
            },
            {
                "start_time": 33.98863636363636,
                "end_time": 35.29772727272727,
                "pitch": 63,
                "velocity": 51,
                "duration": 1.3090909090909122,
                "tempo": 120.0
            },
            {
                "start_time": 34.934090909090905,
                "end_time": 35.29772727272727,
                "pitch": 63,
                "velocity": 51,
                "duration": 0.36363636363636687,
                "tempo": 120.0
            },
            {
                "start_time": 34.934090909090905,
                "end_time": 35.56590909090909,
                "pitch": 60,
                "velocity": 51,
                "duration": 0.6318181818181827,
                "tempo": 120.0
            },
            {
                "start_time": 35.33409090909091,
                "end_time": 35.56590909090909,
                "pitch": 60,
                "velocity": 51,
                "duration": 0.23181818181817704,
                "tempo": 120.0
            },
            {
                "start_time": 31.28863636363636,
                "end_time": 35.60227272727273,
                "pitch": 64,
                "velocity": 51,
                "duration": 4.313636363636366,
                "tempo": 120.0
            },
            {
                "start_time": 35.60227272727273,
                "end_time": 35.96818181818182,
                "pitch": 58,
                "velocity": 51,
                "duration": 0.36590909090909207,
                "tempo": 120.0
            },
            {
                "start_time": 36.00681818181818,
                "end_time": 36.377272727272725,
                "pitch": 60,
                "velocity": 51,
                "duration": 0.3704545454545425,
                "tempo": 120.0
            },
            {
                "start_time": 36.41590909090909,
                "end_time": 37.05,
                "pitch": 60,
                "velocity": 51,
                "duration": 0.6340909090909079,
                "tempo": 120.0
            },
            {
                "start_time": 35.33409090909091,
                "end_time": 37.45681818181818,
                "pitch": 63,
                "velocity": 51,
                "duration": 2.1227272727272677,
                "tempo": 120.0
            },
            {
                "start_time": 37.086363636363636,
                "end_time": 37.45681818181818,
                "pitch": 63,
                "velocity": 51,
                "duration": 0.3704545454545425,
                "tempo": 120.0
            },
            {
                "start_time": 37.49318181818182,
                "end_time": 37.49545454545454,
                "pitch": 63,
                "velocity": 51,
                "duration": 0.0022727272727252057,
                "tempo": 120.0
            },
            {
                "start_time": 37.086363636363636,
                "end_time": 37.99318181818182,
                "pitch": 60,
                "velocity": 51,
                "duration": 0.9068181818181813,
                "tempo": 120.0
            },
            {
                "start_time": 37.49545454545454,
                "end_time": 37.99318181818182,
                "pitch": 60,
                "velocity": 51,
                "duration": 0.4977272727272748,
                "tempo": 120.0
            },
            {
                "start_time": 38.029545454545456,
                "end_time": 38.127272727272725,
                "pitch": 79,
                "velocity": 51,
                "duration": 0.09772727272726911,
                "tempo": 120.0
            },
            {
                "start_time": 38.163636363636364,
                "end_time": 38.26136363636363,
                "pitch": 82,
                "velocity": 51,
                "duration": 0.09772727272726911,
                "tempo": 120.0
            },
            {
                "start_time": 38.29772727272727,
                "end_time": 38.39545454545454,
                "pitch": 82,
                "velocity": 51,
                "duration": 0.09772727272726911,
                "tempo": 120.0
            },
            {
                "start_time": 38.43181818181818,
                "end_time": 38.529545454545456,
                "pitch": 81,
                "velocity": 51,
                "duration": 0.09772727272727622,
                "tempo": 120.0
            },
            {
                "start_time": 38.97272727272727,
                "end_time": 39.07272727272727,
                "pitch": 72,
                "velocity": 51,
                "duration": 0.10000000000000142,
                "tempo": 120.0
            },
            {
                "start_time": 39.24545454545454,
                "end_time": 39.345454545454544,
                "pitch": 72,
                "velocity": 51,
                "duration": 0.10000000000000142,
                "tempo": 120.0
            },
            {
                "start_time": 38.97272727272727,
                "end_time": 39.61818181818182,
                "pitch": 75,
                "velocity": 51,
                "duration": 0.6454545454545482,
                "tempo": 120.0
            },
            {
                "start_time": 39.38181818181818,
                "end_time": 39.61818181818182,
                "pitch": 75,
                "velocity": 51,
                "duration": 0.23636363636363455,
                "tempo": 120.0
            },
            {
                "start_time": 13.777272727272727,
                "end_time": 39.654545454545456,
                "pitch": 77,
                "velocity": 51,
                "duration": 25.87727272727273,
                "tempo": 120.0
            },
            {
                "start_time": 39.654545454545456,
                "end_time": 40.28636363636363,
                "pitch": 70,
                "velocity": 51,
                "duration": 0.6318181818181756,
                "tempo": 120.0
            },
            {
                "start_time": 40.32272727272727,
                "end_time": 40.82272727272727,
                "pitch": 70,
                "velocity": 51,
                "duration": 0.5,
                "tempo": 120.0
            },
            {
                "start_time": 40.86590909090909,
                "end_time": 40.959090909090904,
                "pitch": 48,
                "velocity": 51,
                "duration": 0.0931818181818116,
                "tempo": 120.0
            },
            {
                "start_time": 0.3045454545454545,
                "end_time": 40.99772727272727,
                "pitch": 46,
                "velocity": 51,
                "duration": 40.69318181818181,
                "tempo": 120.0
            },
            {
                "start_time": 40.99545454545454,
                "end_time": 40.99772727272727,
                "pitch": 52,
                "velocity": 51,
                "duration": 0.0022727272727252057,
                "tempo": 120.0
            }
        ],
        "Flute": [
            {
                "start_time": 0.006818181818181818,
                "end_time": 0.07727272727272727,
                "pitch": 84,
                "velocity": 80,
                "duration": 0.07045454545454545,
                "tempo": 120.0
            },
            {
                "start_time": 0.10454545454545454,
                "end_time": 0.17727272727272728,
                "pitch": 82,
                "velocity": 80,
                "duration": 0.07272727272727274,
                "tempo": 120.0
            },
            {
                "start_time": 0.3045454545454545,
                "end_time": 0.4022727272727272,
                "pitch": 79,
                "velocity": 80,
                "duration": 0.09772727272727272,
                "tempo": 120.0
            },
            {
                "start_time": 0.8386363636363636,
                "end_time": 1.0704545454545453,
                "pitch": 78,
                "velocity": 80,
                "duration": 0.2318181818181817,
                "tempo": 120.0
            },
            {
                "start_time": 1.1068181818181817,
                "end_time": 1.2045454545454546,
                "pitch": 77,
                "velocity": 80,
                "duration": 0.09772727272727288,
                "tempo": 120.0
            },
            {
                "start_time": 1.375,
                "end_time": 1.8727272727272726,
                "pitch": 72,
                "velocity": 80,
                "duration": 0.4977272727272726,
                "tempo": 120.0
            },
            {
                "start_time": 2.0454545454545454,
                "end_time": 2.1454545454545455,
                "pitch": 70,
                "velocity": 80,
                "duration": 0.10000000000000009,
                "tempo": 120.0
            },
            {
                "start_time": 2.4545454545454546,
                "end_time": 2.5522727272727272,
                "pitch": 70,
                "velocity": 80,
                "duration": 0.09772727272727266,
                "tempo": 120.0
            },
            {
                "start_time": 2.8636363636363633,
                "end_time": 3.2295454545454545,
                "pitch": 70,
                "velocity": 80,
                "duration": 0.3659090909090912,
                "tempo": 120.0
            },
            {
                "start_time": 3.2659090909090907,
                "end_time": 3.3636363636363633,
                "pitch": 65,
                "velocity": 80,
                "duration": 0.09772727272727266,
                "tempo": 120.0
            },
            {
                "start_time": 3.4,
                "end_time": 3.4977272727272726,
                "pitch": 70,
                "velocity": 80,
                "duration": 0.09772727272727266,
                "tempo": 120.0
            },
            {
                "start_time": 3.2659090909090907,
                "end_time": 3.5340909090909087,
                "pitch": 38,
                "velocity": 80,
                "duration": 0.2681818181818181,
                "tempo": 120.0
            },
            {
                "start_time": 3.5340909090909087,
                "end_time": 3.631818181818182,
                "pitch": 65,
                "velocity": 80,
                "duration": 0.0977272727272731,
                "tempo": 120.0
            },
            {
                "start_time": 3.6704545454545454,
                "end_time": 3.768181818181818,
                "pitch": 74,
                "velocity": 80,
                "duration": 0.09772727272727266,
                "tempo": 120.0
            },
            {
                "start_time": 3.6704545454545454,
                "end_time": 3.8068181818181817,
                "pitch": 77,
                "velocity": 80,
                "duration": 0.13636363636363624,
                "tempo": 120.0
            },
            {
                "start_time": 3.8068181818181817,
                "end_time": 3.9045454545454543,
                "pitch": 70,
                "velocity": 80,
                "duration": 0.09772727272727266,
                "tempo": 120.0
            },
            {
                "start_time": 3.5340909090909087,
                "end_time": 3.943181818181818,
                "pitch": 38,
                "velocity": 80,
                "duration": 0.40909090909090917,
                "tempo": 120.0
            },
            {
                "start_time": 3.943181818181818,
                "end_time": 4.040909090909091,
                "pitch": 65,
                "velocity": 80,
                "duration": 0.0977272727272731,
                "tempo": 120.0
            },
            {
                "start_time": 4.077272727272727,
                "end_time": 4.175,
                "pitch": 62,
                "velocity": 80,
                "duration": 0.09772727272727266,
                "tempo": 120.0
            },
            {
                "start_time": 3.8068181818181817,
                "end_time": 4.213636363636364,
                "pitch": 77,
                "velocity": 80,
                "duration": 0.4068181818181822,
                "tempo": 120.0
            },
            {
                "start_time": 4.213636363636364,
                "end_time": 4.309090909090909,
                "pitch": 70,
                "velocity": 80,
                "duration": 0.09545454545454479,
                "tempo": 120.0
            },
            {
                "start_time": 4.613636363636363,
                "end_time": 4.711363636363636,
                "pitch": 70,
                "velocity": 80,
                "duration": 0.09772727272727266,
                "tempo": 120.0
            },
            {
                "start_time": 5.015909090909091,
                "end_time": 5.384090909090909,
                "pitch": 70,
                "velocity": 80,
                "duration": 0.36818181818181817,
                "tempo": 120.0
            },
            {
                "start_time": 3.943181818181818,
                "end_time": 5.420454545454545,
                "pitch": 38,
                "velocity": 80,
                "duration": 1.477272727272727,
                "tempo": 120.0
            },
            {
                "start_time": 4.077272727272727,
                "end_time": 5.5204545454545455,
                "pitch": 65,
                "velocity": 80,
                "duration": 1.4431818181818183,
                "tempo": 120.0
            },
            {
                "start_time": 5.420454545454545,
                "end_time": 5.5204545454545455,
                "pitch": 65,
                "velocity": 80,
                "duration": 0.10000000000000053,
                "tempo": 120.0
            },
            {
                "start_time": 3.4,
                "end_time": 5.556818181818182,
                "pitch": 78,
                "velocity": 80,
                "duration": 2.1568181818181817,
                "tempo": 120.0
            },
            {
                "start_time": 5.556818181818182,
                "end_time": 5.656818181818181,
                "pitch": 70,
                "velocity": 80,
                "duration": 0.09999999999999964,
                "tempo": 120.0
            },
            {
                "start_time": 5.420454545454545,
                "end_time": 5.693181818181818,
                "pitch": 38,
                "velocity": 80,
                "duration": 0.2727272727272734,
                "tempo": 120.0
            },
            {
                "start_time": 5.693181818181818,
                "end_time": 5.790909090909091,
                "pitch": 65,
                "velocity": 80,
                "duration": 0.09772727272727266,
                "tempo": 120.0
            },
            {
                "start_time": 4.213636363636364,
                "end_time": 5.827272727272727,
                "pitch": 77,
                "velocity": 80,
                "duration": 1.6136363636363633,
                "tempo": 120.0
            },
            {
                "start_time": 5.827272727272727,
                "end_time": 5.925,
                "pitch": 74,
                "velocity": 80,
                "duration": 0.09772727272727266,
                "tempo": 120.0
            },
            {
                "start_time": 5.827272727272727,
                "end_time": 5.961363636363636,
                "pitch": 77,
                "velocity": 80,
                "duration": 0.13409090909090882,
                "tempo": 120.0
            },
            {
                "start_time": 5.961363636363636,
                "end_time": 6.059090909090909,
                "pitch": 70,
                "velocity": 80,
                "duration": 0.09772727272727266,
                "tempo": 120.0
            },
            {
                "start_time": 5.693181818181818,
                "end_time": 6.095454545454545,
                "pitch": 38,
                "velocity": 80,
                "duration": 0.40227272727272645,
                "tempo": 120.0
            },
            {
                "start_time": 6.095454545454545,
                "end_time": 6.1931818181818175,
                "pitch": 65,
                "velocity": 80,
                "duration": 0.09772727272727266,
                "tempo": 120.0
            },
            {
                "start_time": 6.2295454545454545,
                "end_time": 6.327272727272727,
                "pitch": 62,
                "velocity": 80,
                "duration": 0.09772727272727266,
                "tempo": 120.0
            },
            {
                "start_time": 6.36590909090909,
                "end_time": 7.004545454545454,
                "pitch": 60,
                "velocity": 101,
                "duration": 0.6386363636363637,
                "tempo": 120.0
            },
            {
                "start_time": 7.038636363636363,
                "end_time": 7.138636363636364,
                "pitch": 63,
                "velocity": 101,
                "duration": 0.10000000000000053,
                "tempo": 120.0
            },
            {
                "start_time": 5.961363636363636,
                "end_time": 7.172727272727272,
                "pitch": 77,
                "velocity": 80,
                "duration": 1.211363636363636,
                "tempo": 120.0
            },
            {
                "start_time": 7.172727272727272,
                "end_time": 7.2727272727272725,
                "pitch": 67,
                "velocity": 101,
                "duration": 0.10000000000000053,
                "tempo": 120.0
            },
            {
                "start_time": 6.36590909090909,
                "end_time": 8.35,
                "pitch": 62,
                "velocity": 101,
                "duration": 1.9840909090909093,
                "tempo": 120.0
            },
            {
                "start_time": 7.843181818181818,
                "end_time": 8.35,
                "pitch": 62,
                "velocity": 101,
                "duration": 0.5068181818181818,
                "tempo": 120.0
            },
            {
                "start_time": 8.386363636363637,
                "end_time": 8.886363636363637,
                "pitch": 62,
                "velocity": 101,
                "duration": 0.5,
                "tempo": 120.0
            },
            {
                "start_time": 1.375,
                "end_time": 9.195454545454545,
                "pitch": 75,
                "velocity": 80,
                "duration": 7.820454545454545,
                "tempo": 120.0
            },
            {
                "start_time": 9.195454545454545,
                "end_time": 9.295454545454545,
                "pitch": 72,
                "velocity": 101,
                "duration": 0.09999999999999964,
                "tempo": 120.0
            },
            {
                "start_time": 9.195454545454545,
                "end_time": 9.431818181818182,
                "pitch": 75,
                "velocity": 101,
                "duration": 0.23636363636363633,
                "tempo": 120.0
            },
            {
                "start_time": 9.331818181818182,
                "end_time": 9.431818181818182,
                "pitch": 75,
                "velocity": 101,
                "duration": 0.09999999999999964,
                "tempo": 120.0
            },
            {
                "start_time": 9.468181818181817,
                "end_time": 9.56590909090909,
                "pitch": 79,
                "velocity": 101,
                "duration": 0.09772727272727266,
                "tempo": 120.0
            },
            {
                "start_time": 0.3045454545454545,
                "end_time": 9.7,
                "pitch": 82,
                "velocity": 80,
                "duration": 9.395454545454545,
                "tempo": 120.0
            },
            {
                "start_time": 9.602272727272727,
                "end_time": 9.7,
                "pitch": 82,
                "velocity": 101,
                "duration": 0.09772727272727266,
                "tempo": 120.0
            },
            {
                "start_time": 10.002272727272727,
                "end_time": 10.1,
                "pitch": 82,
                "velocity": 101,
                "duration": 0.09772727272727266,
                "tempo": 120.0
            },
            {
                "start_time": 10.404545454545454,
                "end_time": 10.502272727272727,
                "pitch": 82,
                "velocity": 101,
                "duration": 0.09772727272727266,
                "tempo": 120.0
            },
            {
                "start_time": 6.095454545454545,
                "end_time": 10.538636363636362,
                "pitch": 38,
                "velocity": 80,
                "duration": 4.4431818181818175,
                "tempo": 120.0
            },
            {
                "start_time": 7.038636363636363,
                "end_time": 11.313636363636363,
                "pitch": 60,
                "velocity": 101,
                "duration": 4.2749999999999995,
                "tempo": 120.0
            },
            {
                "start_time": 10.538636363636362,
                "end_time": 11.313636363636363,
                "pitch": 60,
                "velocity": 101,
                "duration": 0.7750000000000004,
                "tempo": 120.0
            },
            {
                "start_time": 11.35,
                "end_time": 11.447727272727272,
                "pitch": 63,
                "velocity": 101,
                "duration": 0.09772727272727266,
                "tempo": 120.0
            },
            {
                "start_time": 7.172727272727272,
                "end_time": 11.48181818181818,
                "pitch": 77,
                "velocity": 101,
                "duration": 4.309090909090909,
                "tempo": 120.0
            },
            {
                "start_time": 11.48181818181818,
                "end_time": 11.581818181818182,
                "pitch": 67,
                "velocity": 101,
                "duration": 0.10000000000000142,
                "tempo": 120.0
            },
            {
                "start_time": 5.556818181818182,
                "end_time": 12.161363636363635,
                "pitch": 78,
                "velocity": 80,
                "duration": 6.604545454545454,
                "tempo": 120.0
            },
            {
                "start_time": 12.161363636363635,
                "end_time": 12.661363636363635,
                "pitch": 70,
                "velocity": 101,
                "duration": 0.5,
                "tempo": 120.0
            },
            {
                "start_time": 12.695454545454545,
                "end_time": 13.195454545454545,
                "pitch": 67,
                "velocity": 101,
                "duration": 0.5,
                "tempo": 120.0
            },
            {
                "start_time": 9.331818181818182,
                "end_time": 13.64090909090909,
                "pitch": 72,
                "velocity": 101,
                "duration": 4.309090909090909,
                "tempo": 120.0
            },
            {
                "start_time": 13.64090909090909,
                "end_time": 13.74090909090909,
                "pitch": 75,
                "velocity": 101,
                "duration": 0.09999999999999964,
                "tempo": 120.0
            },
            {
                "start_time": 9.468181818181817,
                "end_time": 13.777272727272727,
                "pitch": 89,
                "velocity": 101,
                "duration": 4.30909090909091,
                "tempo": 120.0
            },
            {
                "start_time": 9.602272727272727,
                "end_time": 13.875,
                "pitch": 79,
                "velocity": 101,
                "duration": 4.272727272727273,
                "tempo": 120.0
            },
            {
                "start_time": 13.777272727272727,
                "end_time": 13.875,
                "pitch": 79,
                "velocity": 101,
                "duration": 0.09772727272727266,
                "tempo": 120.0
            },
            {
                "start_time": 13.911363636363635,
                "end_time": 14.009090909090908,
                "pitch": 82,
                "velocity": 101,
                "duration": 0.09772727272727266,
                "tempo": 120.0
            },
            {
                "start_time": 14.311363636363636,
                "end_time": 14.409090909090908,
                "pitch": 82,
                "velocity": 101,
                "duration": 0.09772727272727266,
                "tempo": 120.0
            },
            {
                "start_time": 14.713636363636363,
                "end_time": 14.811363636363636,
                "pitch": 82,
                "velocity": 101,
                "duration": 0.09772727272727266,
                "tempo": 120.0
            },
            {
                "start_time": 10.538636363636362,
                "end_time": 14.85,
                "pitch": 38,
                "velocity": 101,
                "duration": 4.311363636363637,
                "tempo": 120.0
            },
            {
                "start_time": 11.35,
                "end_time": 15.084090909090909,
                "pitch": 60,
                "velocity": 101,
                "duration": 3.7340909090909093,
                "tempo": 120.0
            },
            {
                "start_time": 14.85,
                "end_time": 15.084090909090909,
                "pitch": 60,
                "velocity": 101,
                "duration": 0.23409090909090935,
                "tempo": 120.0
            },
            {
                "start_time": 15.120454545454544,
                "end_time": 15.218181818181817,
                "pitch": 62,
                "velocity": 101,
                "duration": 0.09772727272727266,
                "tempo": 120.0
            },
            {
                "start_time": 15.256818181818181,
                "end_time": 15.354545454545454,
                "pitch": 62,
                "velocity": 101,
                "duration": 0.09772727272727266,
                "tempo": 120.0
            },
            {
                "start_time": 15.393181818181818,
                "end_time": 15.627272727272727,
                "pitch": 63,
                "velocity": 101,
                "duration": 0.23409090909090935,
                "tempo": 120.0
            },
            {
                "start_time": 12.161363636363635,
                "end_time": 15.665909090909091,
                "pitch": 78,
                "velocity": 101,
                "duration": 3.5045454545454557,
                "tempo": 120.0
            },
            {
                "start_time": 15.665909090909091,
                "end_time": 15.763636363636364,
                "pitch": 67,
                "velocity": 101,
                "duration": 0.09772727272727266,
                "tempo": 120.0
            },
            {
                "start_time": 12.695454545454545,
                "end_time": 16.03409090909091,
                "pitch": 70,
                "velocity": 101,
                "duration": 3.3386363636363647,
                "tempo": 120.0
            },
            {
                "start_time": 15.936363636363636,
                "end_time": 16.03409090909091,
                "pitch": 70,
                "velocity": 101,
                "duration": 0.09772727272727444,
                "tempo": 120.0
            },
            {
                "start_time": 16.070454545454545,
                "end_time": 16.436363636363634,
                "pitch": 70,
                "velocity": 101,
                "duration": 0.3659090909090885,
                "tempo": 120.0
            },
            {
                "start_time": 16.472727272727273,
                "end_time": 16.970454545454544,
                "pitch": 68,
                "velocity": 101,
                "duration": 0.49772727272727124,
                "tempo": 120.0
            },
            {
                "start_time": 13.64090909090909,
                "end_time": 17.51590909090909,
                "pitch": 72,
                "velocity": 101,
                "duration": 3.875,
                "tempo": 120.0
            },
            {
                "start_time": 17.009090909090908,
                "end_time": 17.51590909090909,
                "pitch": 72,
                "velocity": 101,
                "duration": 0.5068181818181827,
                "tempo": 120.0
            },
            {
                "start_time": 15.120454545454544,
                "end_time": 17.65,
                "pitch": 60,
                "velocity": 101,
                "duration": 2.5295454545454543,
                "tempo": 120.0
            },
            {
                "start_time": 17.55,
                "end_time": 17.65,
                "pitch": 60,
                "velocity": 101,
                "duration": 0.09999999999999787,
                "tempo": 120.0
            },
            {
                "start_time": 17.68409090909091,
                "end_time": 17.784090909090907,
                "pitch": 62,
                "velocity": 101,
                "duration": 0.09999999999999787,
                "tempo": 120.0
            },
            {
                "start_time": 17.818181818181817,
                "end_time": 17.91590909090909,
                "pitch": 62,
                "velocity": 101,
                "duration": 0.09772727272727266,
                "tempo": 120.0
            },
            {
                "start_time": 17.952272727272728,
                "end_time": 18.05,
                "pitch": 63,
                "velocity": 101,
                "duration": 0.09772727272727266,
                "tempo": 120.0
            },
            {
                "start_time": 15.665909090909091,
                "end_time": 18.086363636363636,
                "pitch": 78,
                "velocity": 101,
                "duration": 2.420454545454545,
                "tempo": 120.0
            },
            {
                "start_time": 15.936363636363636,
                "end_time": 18.186363636363634,
                "pitch": 67,
                "velocity": 101,
                "duration": 2.2499999999999982,
                "tempo": 120.0
            },
            {
                "start_time": 18.086363636363636,
                "end_time": 18.186363636363634,
                "pitch": 67,
                "velocity": 101,
                "duration": 0.09999999999999787,
                "tempo": 120.0
            },
            {
                "start_time": 17.68409090909091,
                "end_time": 18.729545454545455,
                "pitch": 60,
                "velocity": 101,
                "duration": 1.0454545454545467,
                "tempo": 120.0
            },
            {
                "start_time": 18.629545454545454,
                "end_time": 18.729545454545455,
                "pitch": 60,
                "velocity": 101,
                "duration": 0.10000000000000142,
                "tempo": 120.0
            },
            {
                "start_time": 19.168181818181818,
                "end_time": 19.402272727272727,
                "pitch": 60,
                "velocity": 101,
                "duration": 0.23409090909090935,
                "tempo": 120.0
            },
            {
                "start_time": 19.438636363636363,
                "end_time": 19.538636363636364,
                "pitch": 62,
                "velocity": 101,
                "duration": 0.10000000000000142,
                "tempo": 120.0
            },
            {
                "start_time": 19.575,
                "end_time": 19.675,
                "pitch": 62,
                "velocity": 101,
                "duration": 0.10000000000000142,
                "tempo": 120.0
            },
            {
                "start_time": 19.711363636363636,
                "end_time": 19.943181818181817,
                "pitch": 63,
                "velocity": 101,
                "duration": 0.2318181818181806,
                "tempo": 120.0
            },
            {
                "start_time": 18.086363636363636,
                "end_time": 19.979545454545452,
                "pitch": 78,
                "velocity": 101,
                "duration": 1.8931818181818159,
                "tempo": 120.0
            },
            {
                "start_time": 19.979545454545452,
                "end_time": 20.077272727272728,
                "pitch": 67,
                "velocity": 101,
                "duration": 0.09772727272727622,
                "tempo": 120.0
            },
            {
                "start_time": 20.24772727272727,
                "end_time": 20.34318181818182,
                "pitch": 70,
                "velocity": 101,
                "duration": 0.09545454545454746,
                "tempo": 120.0
            },
            {
                "start_time": 20.38181818181818,
                "end_time": 20.745454545454546,
                "pitch": 70,
                "velocity": 101,
                "duration": 0.36363636363636687,
                "tempo": 120.0
            },
            {
                "start_time": 20.78181818181818,
                "end_time": 21.288636363636364,
                "pitch": 68,
                "velocity": 101,
                "duration": 0.5068181818181827,
                "tempo": 120.0
            },
            {
                "start_time": 20.24772727272727,
                "end_time": 22.127272727272725,
                "pitch": 67,
                "velocity": 101,
                "duration": 1.879545454545454,
                "tempo": 120.0
            },
            {
                "start_time": 21.327272727272724,
                "end_time": 22.127272727272725,
                "pitch": 67,
                "velocity": 101,
                "duration": 0.8000000000000007,
                "tempo": 120.0
            },
            {
                "start_time": 22.127272727272725,
                "end_time": 22.227272727272727,
                "pitch": 59,
                "velocity": 101,
                "duration": 0.10000000000000142,
                "tempo": 120.0
            },
            {
                "start_time": 22.261363636363637,
                "end_time": 22.395454545454545,
                "pitch": 62,
                "velocity": 101,
                "duration": 0.13409090909090793,
                "tempo": 120.0
            },
            {
                "start_time": 6.2295454545454545,
                "end_time": 22.495454545454546,
                "pitch": 65,
                "velocity": 80,
                "duration": 16.26590909090909,
                "tempo": 120.0
            },
            {
                "start_time": 22.395454545454545,
                "end_time": 22.495454545454546,
                "pitch": 65,
                "velocity": 101,
                "duration": 0.10000000000000142,
                "tempo": 120.0
            },
            {
                "start_time": 19.979545454545452,
                "end_time": 22.53181818181818,
                "pitch": 78,
                "velocity": 101,
                "duration": 2.5522727272727295,
                "tempo": 120.0
            },
            {
                "start_time": 22.53181818181818,
                "end_time": 22.627272727272725,
                "pitch": 67,
                "velocity": 101,
                "duration": 0.0954545454545439,
                "tempo": 120.0
            },
            {
                "start_time": 22.93181818181818,
                "end_time": 23.44090909090909,
                "pitch": 67,
                "velocity": 101,
                "duration": 0.5090909090909115,
                "tempo": 120.0
            },
            {
                "start_time": 13.911363636363635,
                "end_time": 24.111363636363635,
                "pitch": 79,
                "velocity": 101,
                "duration": 10.2,
                "tempo": 120.0
            },
            {
                "start_time": 23.479545454545452,
                "end_time": 24.111363636363635,
                "pitch": 79,
                "velocity": 64,
                "duration": 0.6318181818181827,
                "tempo": 120.0
            },
            {
                "start_time": 24.14772727272727,
                "end_time": 24.520454545454545,
                "pitch": 82,
                "velocity": 64,
                "duration": 0.3727272727272748,
                "tempo": 120.0
            },
            {
                "start_time": 24.55681818181818,
                "end_time": 25.054545454545455,
                "pitch": 82,
                "velocity": 64,
                "duration": 0.4977272727272748,
                "tempo": 120.0
            },
            {
                "start_time": 25.09090909090909,
                "end_time": 25.19090909090909,
                "pitch": 81,
                "velocity": 64,
                "duration": 0.10000000000000142,
                "tempo": 120.0
            },
            {
                "start_time": 0.10454545454545454,
                "end_time": 25.363636363636363,
                "pitch": 88,
                "velocity": 80,
                "duration": 25.259090909090908,
                "tempo": 120.0
            },
            {
                "start_time": 25.363636363636363,
                "end_time": 25.599999999999998,
                "pitch": 82,
                "velocity": 64,
                "duration": 0.23636363636363455,
                "tempo": 120.0
            },
            {
                "start_time": 24.14772727272727,
                "end_time": 26.268181818181816,
                "pitch": 79,
                "velocity": 64,
                "duration": 2.120454545454546,
                "tempo": 120.0
            },
            {
                "start_time": 25.636363636363637,
                "end_time": 26.268181818181816,
                "pitch": 79,
                "velocity": 64,
                "duration": 0.6318181818181792,
                "tempo": 120.0
            },
            {
                "start_time": 25.636363636363637,
                "end_time": 26.670454545454543,
                "pitch": 82,
                "velocity": 64,
                "duration": 1.0340909090909065,
                "tempo": 120.0
            },
            {
                "start_time": 26.304545454545455,
                "end_time": 26.670454545454543,
                "pitch": 82,
                "velocity": 64,
                "duration": 0.3659090909090885,
                "tempo": 120.0
            },
            {
                "start_time": 26.706818181818182,
                "end_time": 26.94090909090909,
                "pitch": 82,
                "velocity": 64,
                "duration": 0.23409090909090935,
                "tempo": 120.0
            },
            {
                "start_time": 26.979545454545452,
                "end_time": 27.347727272727273,
                "pitch": 75,
                "velocity": 64,
                "duration": 0.36818181818182083,
                "tempo": 120.0
            },
            {
                "start_time": 22.53181818181818,
                "end_time": 27.75,
                "pitch": 78,
                "velocity": 101,
                "duration": 5.218181818181819,
                "tempo": 120.0
            },
            {
                "start_time": 27.386363636363637,
                "end_time": 27.75,
                "pitch": 78,
                "velocity": 64,
                "duration": 0.3636363636363633,
                "tempo": 120.0
            },
            {
                "start_time": 26.304545454545455,
                "end_time": 28.429545454545455,
                "pitch": 79,
                "velocity": 64,
                "duration": 2.125,
                "tempo": 120.0
            },
            {
                "start_time": 27.788636363636364,
                "end_time": 28.429545454545455,
                "pitch": 79,
                "velocity": 64,
                "duration": 0.6409090909090907,
                "tempo": 120.0
            },
            {
                "start_time": 28.46590909090909,
                "end_time": 28.829545454545453,
                "pitch": 82,
                "velocity": 64,
                "duration": 0.3636363636363633,
                "tempo": 120.0
            },
            {
                "start_time": 28.86590909090909,
                "end_time": 29.375,
                "pitch": 82,
                "velocity": 64,
                "duration": 0.5090909090909115,
                "tempo": 120.0
            },
            {
                "start_time": 29.411363636363635,
                "end_time": 29.509090909090908,
                "pitch": 81,
                "velocity": 64,
                "duration": 0.09772727272727266,
                "tempo": 120.0
            },
            {
                "start_time": 25.363636363636363,
                "end_time": 29.677272727272726,
                "pitch": 88,
                "velocity": 64,
                "duration": 4.313636363636363,
                "tempo": 120.0
            },
            {
                "start_time": 29.677272727272726,
                "end_time": 29.909090909090907,
                "pitch": 82,
                "velocity": 64,
                "duration": 0.2318181818181806,
                "tempo": 120.0
            },
            {
                "start_time": 28.46590909090909,
                "end_time": 30.579545454545453,
                "pitch": 79,
                "velocity": 64,
                "duration": 2.1136363636363633,
                "tempo": 120.0
            },
            {
                "start_time": 29.945454545454545,
                "end_time": 30.579545454545453,
                "pitch": 79,
                "velocity": 64,
                "duration": 0.6340909090909079,
                "tempo": 120.0
            },
            {
                "start_time": 29.945454545454545,
                "end_time": 30.979545454545452,
                "pitch": 82,
                "velocity": 64,
                "duration": 1.0340909090909065,
                "tempo": 120.0
            },
            {
                "start_time": 30.61590909090909,
                "end_time": 30.979545454545452,
                "pitch": 82,
                "velocity": 64,
                "duration": 0.3636363636363633,
                "tempo": 120.0
            },
            {
                "start_time": 31.01590909090909,
                "end_time": 31.252272727272725,
                "pitch": 82,
                "velocity": 64,
                "duration": 0.23636363636363455,
                "tempo": 120.0
            },
            {
                "start_time": 26.979545454545452,
                "end_time": 31.28863636363636,
                "pitch": 43,
                "velocity": 64,
                "duration": 4.309090909090909,
                "tempo": 120.0
            },
            {
                "start_time": 27.386363636363637,
                "end_time": 31.659090909090907,
                "pitch": 75,
                "velocity": 64,
                "duration": 4.27272727272727,
                "tempo": 120.0
            },
            {
                "start_time": 31.28863636363636,
                "end_time": 31.659090909090907,
                "pitch": 75,
                "velocity": 64,
                "duration": 0.37045454545454604,
                "tempo": 120.0
            },
            {
                "start_time": 31.69772727272727,
                "end_time": 32.06818181818182,
                "pitch": 78,
                "velocity": 64,
                "duration": 0.3704545454545496,
                "tempo": 120.0
            },
            {
                "start_time": 27.788636363636364,
                "end_time": 32.10681818181818,
                "pitch": 90,
                "velocity": 64,
                "duration": 4.318181818181813,
                "tempo": 120.0
            },
            {
                "start_time": 30.61590909090909,
                "end_time": 32.73863636363636,
                "pitch": 79,
                "velocity": 64,
                "duration": 2.1227272727272712,
                "tempo": 120.0
            },
            {
                "start_time": 32.10681818181818,
                "end_time": 32.73863636363636,
                "pitch": 79,
                "velocity": 64,
                "duration": 0.6318181818181827,
                "tempo": 120.0
            },
            {
                "start_time": 32.775,
                "end_time": 33.138636363636365,
                "pitch": 82,
                "velocity": 64,
                "duration": 0.36363636363636687,
                "tempo": 120.0
            },
            {
                "start_time": 33.175,
                "end_time": 33.684090909090905,
                "pitch": 82,
                "velocity": 64,
                "duration": 0.5090909090909079,
                "tempo": 120.0
            },
            {
                "start_time": 33.720454545454544,
                "end_time": 33.81818181818181,
                "pitch": 81,
                "velocity": 64,
                "duration": 0.09772727272726911,
                "tempo": 120.0
            },
            {
                "start_time": 29.677272727272726,
                "end_time": 33.98863636363636,
                "pitch": 88,
                "velocity": 64,
                "duration": 4.311363636363634,
                "tempo": 120.0
            },
            {
                "start_time": 33.98863636363636,
                "end_time": 34.220454545454544,
                "pitch": 82,
                "velocity": 64,
                "duration": 0.23181818181818414,
                "tempo": 120.0
            },
            {
                "start_time": 32.775,
                "end_time": 34.89772727272727,
                "pitch": 79,
                "velocity": 64,
                "duration": 2.122727272727275,
                "tempo": 120.0
            },
            {
                "start_time": 34.25681818181818,
                "end_time": 34.89772727272727,
                "pitch": 79,
                "velocity": 64,
                "duration": 0.6409090909090907,
                "tempo": 120.0
            },
            {
                "start_time": 34.25681818181818,
                "end_time": 35.3,
                "pitch": 82,
                "velocity": 64,
                "duration": 1.0431818181818144,
                "tempo": 120.0
            },
            {
                "start_time": 34.934090909090905,
                "end_time": 35.3,
                "pitch": 82,
                "velocity": 64,
                "duration": 0.36590909090909207,
                "tempo": 120.0
            },
            {
                "start_time": 35.33409090909091,
                "end_time": 35.56590909090909,
                "pitch": 82,
                "velocity": 64,
                "duration": 0.23181818181817704,
                "tempo": 120.0
            },
            {
                "start_time": 31.28863636363636,
                "end_time": 35.60454545454545,
                "pitch": 43,
                "velocity": 64,
                "duration": 4.315909090909091,
                "tempo": 120.0
            },
            {
                "start_time": 31.69772727272727,
                "end_time": 35.970454545454544,
                "pitch": 75,
                "velocity": 64,
                "duration": 4.272727272727273,
                "tempo": 120.0
            },
            {
                "start_time": 35.60454545454545,
                "end_time": 35.970454545454544,
                "pitch": 75,
                "velocity": 64,
                "duration": 0.36590909090909207,
                "tempo": 120.0
            },
            {
                "start_time": 11.48181818181818,
                "end_time": 36.00681818181818,
                "pitch": 77,
                "velocity": 101,
                "duration": 24.525000000000002,
                "tempo": 120.0
            },
            {
                "start_time": 21.327272727272724,
                "end_time": 36.10681818181818,
                "pitch": 70,
                "velocity": 101,
                "duration": 14.779545454545453,
                "tempo": 120.0
            },
            {
                "start_time": 36.00681818181818,
                "end_time": 36.10681818181818,
                "pitch": 70,
                "velocity": 80,
                "duration": 0.09999999999999432,
                "tempo": 120.0
            },
            {
                "start_time": 36.14090909090909,
                "end_time": 36.24090909090909,
                "pitch": 70,
                "velocity": 80,
                "duration": 0.10000000000000142,
                "tempo": 120.0
            },
            {
                "start_time": 36.277272727272724,
                "end_time": 36.37954545454545,
                "pitch": 69,
                "velocity": 80,
                "duration": 0.10227272727272663,
                "tempo": 120.0
            },
            {
                "start_time": 17.009090909090908,
                "end_time": 36.41590909090909,
                "pitch": 50,
                "velocity": 101,
                "duration": 19.40681818181818,
                "tempo": 120.0
            },
            {
                "start_time": 36.41590909090909,
                "end_time": 36.64545454545454,
                "pitch": 72,
                "velocity": 80,
                "duration": 0.22954545454545183,
                "tempo": 120.0
            },
            {
                "start_time": 36.81590909090909,
                "end_time": 36.913636363636364,
                "pitch": 74,
                "velocity": 80,
                "duration": 0.09772727272727622,
                "tempo": 120.0
            },
            {
                "start_time": 37.086363636363636,
                "end_time": 37.184090909090905,
                "pitch": 74,
                "velocity": 80,
                "duration": 0.09772727272726911,
                "tempo": 120.0
            },
            {
                "start_time": 13.777272727272727,
                "end_time": 37.35681818181818,
                "pitch": 89,
                "velocity": 101,
                "duration": 23.57954545454545,
                "tempo": 120.0
            },
            {
                "start_time": 34.934090909090905,
                "end_time": 37.45681818181818,
                "pitch": 79,
                "velocity": 64,
                "duration": 2.5227272727272734,
                "tempo": 120.0
            },
            {
                "start_time": 37.35681818181818,
                "end_time": 37.45681818181818,
                "pitch": 79,
                "velocity": 80,
                "duration": 0.10000000000000142,
                "tempo": 120.0
            },
            {
                "start_time": 38.163636363636364,
                "end_time": 38.26136363636363,
                "pitch": 78,
                "velocity": 80,
                "duration": 0.09772727272726911,
                "tempo": 120.0
            },
            {
                "start_time": 36.00681818181818,
                "end_time": 38.529545454545456,
                "pitch": 77,
                "velocity": 80,
                "duration": 2.5227272727272734,
                "tempo": 120.0
            },
            {
                "start_time": 38.43181818181818,
                "end_time": 38.529545454545456,
                "pitch": 77,
                "velocity": 80,
                "duration": 0.09772727272727622,
                "tempo": 120.0
            },
            {
                "start_time": 36.81590909090909,
                "end_time": 38.8,
                "pitch": 72,
                "velocity": 80,
                "duration": 1.9840909090909093,
                "tempo": 120.0
            },
            {
                "start_time": 38.56590909090909,
                "end_time": 38.8,
                "pitch": 72,
                "velocity": 80,
                "duration": 0.23409090909090935,
                "tempo": 120.0
            },
            {
                "start_time": 38.97272727272727,
                "end_time": 39.07272727272727,
                "pitch": 74,
                "velocity": 80,
                "duration": 0.10000000000000142,
                "tempo": 120.0
            },
            {
                "start_time": 39.24545454545454,
                "end_time": 39.345454545454544,
                "pitch": 74,
                "velocity": 80,
                "duration": 0.10000000000000142,
                "tempo": 120.0
            },
            {
                "start_time": 37.35681818181818,
                "end_time": 39.38181818181818,
                "pitch": 89,
                "velocity": 80,
                "duration": 2.0250000000000057,
                "tempo": 120.0
            },
            {
                "start_time": 39.38181818181818,
                "end_time": 39.61818181818182,
                "pitch": 79,
                "velocity": 80,
                "duration": 0.23636363636363455,
                "tempo": 120.0
            },
            {
                "start_time": 39.654545454545456,
                "end_time": 40.32272727272727,
                "pitch": 82,
                "velocity": 80,
                "duration": 0.6681818181818144,
                "tempo": 120.0
            },
            {
                "start_time": 40.32272727272727,
                "end_time": 40.86590909090909,
                "pitch": 82,
                "velocity": 80,
                "duration": 0.5431818181818215,
                "tempo": 120.0
            },
            {
                "start_time": 40.86590909090909,
                "end_time": 40.959090909090904,
                "pitch": 84,
                "velocity": 80,
                "duration": 0.0931818181818116,
                "tempo": 120.0
            },
            {
                "start_time": 33.98863636363636,
                "end_time": 40.99772727272727,
                "pitch": 88,
                "velocity": 64,
                "duration": 7.009090909090908,
                "tempo": 120.0
            }
        ],
        "Acoustic Guitar (nylon)": [
            {
                "start_time": 2.0454545454545454,
                "end_time": 2.047727272727273,
                "pitch": 67,
                "velocity": 64,
                "duration": 0.002272727272727426,
                "tempo": 120.0
            },
            {
                "start_time": 2.047727272727273,
                "end_time": 2.127272727272727,
                "pitch": 70,
                "velocity": 64,
                "duration": 0.07954545454545414,
                "tempo": 120.0
            },
            {
                "start_time": 2.1818181818181817,
                "end_time": 2.2636363636363637,
                "pitch": 58,
                "velocity": 64,
                "duration": 0.08181818181818201,
                "tempo": 120.0
            },
            {
                "start_time": 2.315909090909091,
                "end_time": 2.4,
                "pitch": 58,
                "velocity": 64,
                "duration": 0.084090909090909,
                "tempo": 120.0
            },
            {
                "start_time": 2.4545454545454546,
                "end_time": 2.536363636363636,
                "pitch": 70,
                "velocity": 64,
                "duration": 0.08181818181818157,
                "tempo": 120.0
            },
            {
                "start_time": 2.5886363636363634,
                "end_time": 2.6727272727272724,
                "pitch": 58,
                "velocity": 64,
                "duration": 0.084090909090909,
                "tempo": 120.0
            },
            {
                "start_time": 2.725,
                "end_time": 2.809090909090909,
                "pitch": 58,
                "velocity": 64,
                "duration": 0.084090909090909,
                "tempo": 120.0
            },
            {
                "start_time": 2.8636363636363633,
                "end_time": 2.9454545454545453,
                "pitch": 70,
                "velocity": 64,
                "duration": 0.08181818181818201,
                "tempo": 120.0
            },
            {
                "start_time": 2.9977272727272726,
                "end_time": 3.0795454545454546,
                "pitch": 58,
                "velocity": 64,
                "duration": 0.08181818181818201,
                "tempo": 120.0
            },
            {
                "start_time": 3.131818181818182,
                "end_time": 3.2136363636363634,
                "pitch": 58,
                "velocity": 64,
                "duration": 0.08181818181818157,
                "tempo": 120.0
            },
            {
                "start_time": 3.268181818181818,
                "end_time": 3.3477272727272727,
                "pitch": 70,
                "velocity": 64,
                "duration": 0.07954545454545459,
                "tempo": 120.0
            },
            {
                "start_time": 3.4,
                "end_time": 3.4818181818181815,
                "pitch": 58,
                "velocity": 64,
                "duration": 0.08181818181818157,
                "tempo": 120.0
            },
            {
                "start_time": 3.5340909090909087,
                "end_time": 3.6159090909090907,
                "pitch": 58,
                "velocity": 64,
                "duration": 0.08181818181818201,
                "tempo": 120.0
            },
            {
                "start_time": 3.6704545454545454,
                "end_time": 3.752272727272727,
                "pitch": 70,
                "velocity": 64,
                "duration": 0.08181818181818157,
                "tempo": 120.0
            },
            {
                "start_time": 3.8068181818181817,
                "end_time": 3.8886363636363637,
                "pitch": 58,
                "velocity": 64,
                "duration": 0.08181818181818201,
                "tempo": 120.0
            },
            {
                "start_time": 3.943181818181818,
                "end_time": 4.0249999999999995,
                "pitch": 70,
                "velocity": 64,
                "duration": 0.08181818181818157,
                "tempo": 120.0
            },
            {
                "start_time": 4.079545454545454,
                "end_time": 4.159090909090909,
                "pitch": 58,
                "velocity": 64,
                "duration": 0.07954545454545503,
                "tempo": 120.0
            },
            {
                "start_time": 4.213636363636364,
                "end_time": 4.293181818181818,
                "pitch": 70,
                "velocity": 64,
                "duration": 0.07954545454545414,
                "tempo": 120.0
            },
            {
                "start_time": 4.345454545454546,
                "end_time": 4.427272727272727,
                "pitch": 58,
                "velocity": 64,
                "duration": 0.08181818181818112,
                "tempo": 120.0
            },
            {
                "start_time": 4.477272727272727,
                "end_time": 4.5613636363636365,
                "pitch": 58,
                "velocity": 64,
                "duration": 0.08409090909090988,
                "tempo": 120.0
            },
            {
                "start_time": 4.613636363636363,
                "end_time": 4.695454545454545,
                "pitch": 70,
                "velocity": 64,
                "duration": 0.08181818181818201,
                "tempo": 120.0
            },
            {
                "start_time": 4.747727272727272,
                "end_time": 4.827272727272727,
                "pitch": 58,
                "velocity": 64,
                "duration": 0.07954545454545503,
                "tempo": 120.0
            },
            {
                "start_time": 4.879545454545454,
                "end_time": 4.961363636363636,
                "pitch": 58,
                "velocity": 64,
                "duration": 0.08181818181818201,
                "tempo": 120.0
            },
            {
                "start_time": 5.015909090909091,
                "end_time": 5.095454545454545,
                "pitch": 70,
                "velocity": 64,
                "duration": 0.07954545454545414,
                "tempo": 120.0
            },
            {
                "start_time": 5.1477272727272725,
                "end_time": 5.2318181818181815,
                "pitch": 58,
                "velocity": 64,
                "duration": 0.084090909090909,
                "tempo": 120.0
            },
            {
                "start_time": 5.284090909090909,
                "end_time": 5.368181818181818,
                "pitch": 58,
                "velocity": 64,
                "duration": 0.084090909090909,
                "tempo": 120.0
            },
            {
                "start_time": 5.422727272727273,
                "end_time": 5.502272727272727,
                "pitch": 70,
                "velocity": 64,
                "duration": 0.07954545454545414,
                "tempo": 120.0
            },
            {
                "start_time": 5.556818181818182,
                "end_time": 5.638636363636364,
                "pitch": 58,
                "velocity": 64,
                "duration": 0.08181818181818201,
                "tempo": 120.0
            },
            {
                "start_time": 5.693181818181818,
                "end_time": 5.7749999999999995,
                "pitch": 58,
                "velocity": 64,
                "duration": 0.08181818181818112,
                "tempo": 120.0
            },
            {
                "start_time": 5.827272727272727,
                "end_time": 5.909090909090909,
                "pitch": 70,
                "velocity": 64,
                "duration": 0.08181818181818201,
                "tempo": 120.0
            },
            {
                "start_time": 5.961363636363636,
                "end_time": 6.040909090909091,
                "pitch": 58,
                "velocity": 64,
                "duration": 0.07954545454545503,
                "tempo": 120.0
            },
            {
                "start_time": 6.095454545454545,
                "end_time": 6.175,
                "pitch": 70,
                "velocity": 64,
                "duration": 0.07954545454545503,
                "tempo": 120.0
            },
            {
                "start_time": 6.2295454545454545,
                "end_time": 6.311363636363636,
                "pitch": 58,
                "velocity": 64,
                "duration": 0.08181818181818112,
                "tempo": 120.0
            },
            {
                "start_time": 6.36590909090909,
                "end_time": 6.447727272727272,
                "pitch": 55,
                "velocity": 64,
                "duration": 0.08181818181818201,
                "tempo": 120.0
            },
            {
                "start_time": 6.634090909090909,
                "end_time": 6.718181818181818,
                "pitch": 55,
                "velocity": 64,
                "duration": 0.084090909090909,
                "tempo": 120.0
            },
            {
                "start_time": 6.7704545454545455,
                "end_time": 6.8545454545454545,
                "pitch": 55,
                "velocity": 64,
                "duration": 0.084090909090909,
                "tempo": 120.0
            },
            {
                "start_time": 7.040909090909091,
                "end_time": 7.120454545454545,
                "pitch": 55,
                "velocity": 64,
                "duration": 0.07954545454545414,
                "tempo": 120.0
            },
            {
                "start_time": 7.306818181818182,
                "end_time": 7.388636363636364,
                "pitch": 55,
                "velocity": 64,
                "duration": 0.08181818181818201,
                "tempo": 120.0
            },
            {
                "start_time": 7.572727272727272,
                "end_time": 7.656818181818181,
                "pitch": 55,
                "velocity": 64,
                "duration": 0.084090909090909,
                "tempo": 120.0
            },
            {
                "start_time": 7.843181818181818,
                "end_time": 7.925,
                "pitch": 55,
                "velocity": 64,
                "duration": 0.08181818181818201,
                "tempo": 120.0
            },
            {
                "start_time": 8.113636363636363,
                "end_time": 8.197727272727272,
                "pitch": 55,
                "velocity": 64,
                "duration": 0.084090909090909,
                "tempo": 120.0
            },
            {
                "start_time": 8.386363636363637,
                "end_time": 8.602272727272727,
                "pitch": 55,
                "velocity": 64,
                "duration": 0.21590909090908994,
                "tempo": 120.0
            },
            {
                "start_time": 8.786363636363635,
                "end_time": 8.870454545454544,
                "pitch": 55,
                "velocity": 64,
                "duration": 0.084090909090909,
                "tempo": 120.0
            },
            {
                "start_time": 8.922727272727272,
                "end_time": 9.004545454545454,
                "pitch": 55,
                "velocity": 64,
                "duration": 0.08181818181818201,
                "tempo": 120.0
            },
            {
                "start_time": 9.195454545454545,
                "end_time": 9.277272727272727,
                "pitch": 55,
                "velocity": 64,
                "duration": 0.08181818181818201,
                "tempo": 120.0
            },
            {
                "start_time": 9.468181818181817,
                "end_time": 9.547727272727272,
                "pitch": 55,
                "velocity": 64,
                "duration": 0.07954545454545503,
                "tempo": 120.0
            },
            {
                "start_time": 9.602272727272727,
                "end_time": 9.681818181818182,
                "pitch": 55,
                "velocity": 64,
                "duration": 0.07954545454545503,
                "tempo": 120.0
            },
            {
                "start_time": 10.002272727272727,
                "end_time": 10.084090909090909,
                "pitch": 55,
                "velocity": 64,
                "duration": 0.08181818181818201,
                "tempo": 120.0
            },
            {
                "start_time": 10.404545454545454,
                "end_time": 10.48409090909091,
                "pitch": 55,
                "velocity": 64,
                "duration": 0.07954545454545503,
                "tempo": 120.0
            },
            {
                "start_time": 10.540909090909091,
                "end_time": 10.756818181818181,
                "pitch": 55,
                "velocity": 64,
                "duration": 0.21590909090908994,
                "tempo": 120.0
            },
            {
                "start_time": 10.945454545454545,
                "end_time": 11.029545454545454,
                "pitch": 55,
                "velocity": 64,
                "duration": 0.084090909090909,
                "tempo": 120.0
            },
            {
                "start_time": 11.079545454545453,
                "end_time": 11.163636363636362,
                "pitch": 55,
                "velocity": 64,
                "duration": 0.084090909090909,
                "tempo": 120.0
            },
            {
                "start_time": 11.35,
                "end_time": 11.431818181818182,
                "pitch": 55,
                "velocity": 64,
                "duration": 0.08181818181818201,
                "tempo": 120.0
            },
            {
                "start_time": 11.618181818181817,
                "end_time": 11.7,
                "pitch": 55,
                "velocity": 64,
                "duration": 0.08181818181818201,
                "tempo": 120.0
            },
            {
                "start_time": 11.888636363636364,
                "end_time": 11.972727272727273,
                "pitch": 55,
                "velocity": 64,
                "duration": 0.084090909090909,
                "tempo": 120.0
            },
            {
                "start_time": 12.161363636363635,
                "end_time": 12.243181818181817,
                "pitch": 55,
                "velocity": 64,
                "duration": 0.08181818181818201,
                "tempo": 120.0
            },
            {
                "start_time": 12.427272727272726,
                "end_time": 12.511363636363635,
                "pitch": 55,
                "velocity": 64,
                "duration": 0.084090909090909,
                "tempo": 120.0
            },
            {
                "start_time": 12.697727272727272,
                "end_time": 12.911363636363635,
                "pitch": 55,
                "velocity": 64,
                "duration": 0.21363636363636296,
                "tempo": 120.0
            },
            {
                "start_time": 13.097727272727273,
                "end_time": 13.179545454545455,
                "pitch": 55,
                "velocity": 64,
                "duration": 0.08181818181818201,
                "tempo": 120.0
            },
            {
                "start_time": 13.23181818181818,
                "end_time": 13.31590909090909,
                "pitch": 55,
                "velocity": 64,
                "duration": 0.084090909090909,
                "tempo": 120.0
            },
            {
                "start_time": 13.506818181818181,
                "end_time": 13.586363636363636,
                "pitch": 55,
                "velocity": 64,
                "duration": 0.07954545454545503,
                "tempo": 120.0
            },
            {
                "start_time": 13.777272727272727,
                "end_time": 13.859090909090908,
                "pitch": 55,
                "velocity": 64,
                "duration": 0.08181818181818024,
                "tempo": 120.0
            },
            {
                "start_time": 13.911363636363635,
                "end_time": 13.99090909090909,
                "pitch": 55,
                "velocity": 64,
                "duration": 0.07954545454545503,
                "tempo": 120.0
            },
            {
                "start_time": 14.313636363636363,
                "end_time": 14.393181818181818,
                "pitch": 55,
                "velocity": 64,
                "duration": 0.07954545454545503,
                "tempo": 120.0
            },
            {
                "start_time": 14.713636363636363,
                "end_time": 14.795454545454545,
                "pitch": 55,
                "velocity": 64,
                "duration": 0.08181818181818201,
                "tempo": 120.0
            },
            {
                "start_time": 14.85,
                "end_time": 15.06590909090909,
                "pitch": 55,
                "velocity": 64,
                "duration": 0.21590909090908994,
                "tempo": 120.0
            },
            {
                "start_time": 15.120454545454544,
                "end_time": 15.202272727272726,
                "pitch": 56,
                "velocity": 64,
                "duration": 0.08181818181818201,
                "tempo": 120.0
            },
            {
                "start_time": 15.393181818181818,
                "end_time": 15.475,
                "pitch": 56,
                "velocity": 64,
                "duration": 0.08181818181818201,
                "tempo": 120.0
            },
            {
                "start_time": 15.665909090909091,
                "end_time": 15.747727272727271,
                "pitch": 56,
                "velocity": 64,
                "duration": 0.08181818181818024,
                "tempo": 120.0
            },
            {
                "start_time": 15.938636363636363,
                "end_time": 16.018181818181816,
                "pitch": 56,
                "velocity": 64,
                "duration": 0.07954545454545325,
                "tempo": 120.0
            },
            {
                "start_time": 16.07272727272727,
                "end_time": 16.152272727272727,
                "pitch": 56,
                "velocity": 64,
                "duration": 0.0795454545454568,
                "tempo": 120.0
            },
            {
                "start_time": 16.202272727272728,
                "end_time": 16.286363636363635,
                "pitch": 56,
                "velocity": 64,
                "duration": 0.08409090909090722,
                "tempo": 120.0
            },
            {
                "start_time": 16.472727272727273,
                "end_time": 16.552272727272726,
                "pitch": 56,
                "velocity": 64,
                "duration": 0.07954545454545325,
                "tempo": 120.0
            },
            {
                "start_time": 16.738636363636363,
                "end_time": 16.820454545454545,
                "pitch": 56,
                "velocity": 64,
                "duration": 0.08181818181818201,
                "tempo": 120.0
            },
            {
                "start_time": 17.009090909090908,
                "end_time": 17.08863636363636,
                "pitch": 56,
                "velocity": 64,
                "duration": 0.07954545454545325,
                "tempo": 120.0
            },
            {
                "start_time": 17.14090909090909,
                "end_time": 17.224999999999998,
                "pitch": 56,
                "velocity": 64,
                "duration": 0.08409090909090722,
                "tempo": 120.0
            },
            {
                "start_time": 17.277272727272727,
                "end_time": 17.361363636363635,
                "pitch": 55,
                "velocity": 64,
                "duration": 0.08409090909090722,
                "tempo": 120.0
            },
            {
                "start_time": 17.552272727272726,
                "end_time": 17.631818181818183,
                "pitch": 55,
                "velocity": 64,
                "duration": 0.0795454545454568,
                "tempo": 120.0
            },
            {
                "start_time": 17.818181818181817,
                "end_time": 17.9,
                "pitch": 55,
                "velocity": 64,
                "duration": 0.08181818181818201,
                "tempo": 120.0
            },
            {
                "start_time": 18.086363636363636,
                "end_time": 18.168181818181818,
                "pitch": 55,
                "velocity": 64,
                "duration": 0.08181818181818201,
                "tempo": 120.0
            },
            {
                "start_time": 18.224999999999998,
                "end_time": 18.304545454545455,
                "pitch": 55,
                "velocity": 64,
                "duration": 0.0795454545454568,
                "tempo": 120.0
            },
            {
                "start_time": 18.35909090909091,
                "end_time": 18.44090909090909,
                "pitch": 55,
                "velocity": 64,
                "duration": 0.08181818181818201,
                "tempo": 120.0
            },
            {
                "start_time": 18.63181818181818,
                "end_time": 18.71363636363636,
                "pitch": 55,
                "velocity": 64,
                "duration": 0.08181818181818201,
                "tempo": 120.0
            },
            {
                "start_time": 18.897727272727273,
                "end_time": 18.979545454545455,
                "pitch": 55,
                "velocity": 64,
                "duration": 0.08181818181818201,
                "tempo": 120.0
            },
            {
                "start_time": 19.168181818181818,
                "end_time": 19.384090909090908,
                "pitch": 55,
                "velocity": 64,
                "duration": 0.21590909090908994,
                "tempo": 120.0
            },
            {
                "start_time": 19.44090909090909,
                "end_time": 19.520454545454545,
                "pitch": 56,
                "velocity": 64,
                "duration": 0.07954545454545325,
                "tempo": 120.0
            },
            {
                "start_time": 19.711363636363636,
                "end_time": 19.793181818181818,
                "pitch": 56,
                "velocity": 64,
                "duration": 0.08181818181818201,
                "tempo": 120.0
            },
            {
                "start_time": 19.979545454545452,
                "end_time": 20.05909090909091,
                "pitch": 56,
                "velocity": 64,
                "duration": 0.0795454545454568,
                "tempo": 120.0
            },
            {
                "start_time": 20.24772727272727,
                "end_time": 20.327272727272728,
                "pitch": 56,
                "velocity": 64,
                "duration": 0.0795454545454568,
                "tempo": 120.0
            },
            {
                "start_time": 20.38181818181818,
                "end_time": 20.461363636363636,
                "pitch": 56,
                "velocity": 64,
                "duration": 0.0795454545454568,
                "tempo": 120.0
            },
            {
                "start_time": 20.511363636363637,
                "end_time": 20.595454545454544,
                "pitch": 56,
                "velocity": 64,
                "duration": 0.08409090909090722,
                "tempo": 120.0
            },
            {
                "start_time": 20.78181818181818,
                "end_time": 20.863636363636363,
                "pitch": 56,
                "velocity": 64,
                "duration": 0.08181818181818201,
                "tempo": 120.0
            },
            {
                "start_time": 21.052272727272726,
                "end_time": 21.136363636363637,
                "pitch": 56,
                "velocity": 64,
                "duration": 0.08409090909091077,
                "tempo": 120.0
            },
            {
                "start_time": 21.327272727272724,
                "end_time": 21.40681818181818,
                "pitch": 56,
                "velocity": 64,
                "duration": 0.0795454545454568,
                "tempo": 120.0
            },
            {
                "start_time": 21.459090909090907,
                "end_time": 21.54090909090909,
                "pitch": 59,
                "velocity": 64,
                "duration": 0.08181818181818201,
                "tempo": 120.0
            },
            {
                "start_time": 21.59090909090909,
                "end_time": 21.675,
                "pitch": 59,
                "velocity": 64,
                "duration": 0.08409090909091077,
                "tempo": 120.0
            },
            {
                "start_time": 21.85909090909091,
                "end_time": 21.943181818181817,
                "pitch": 59,
                "velocity": 64,
                "duration": 0.08409090909090722,
                "tempo": 120.0
            },
            {
                "start_time": 21.993181818181817,
                "end_time": 22.077272727272724,
                "pitch": 59,
                "velocity": 64,
                "duration": 0.08409090909090722,
                "tempo": 120.0
            },
            {
                "start_time": 22.261363636363637,
                "end_time": 22.34318181818182,
                "pitch": 59,
                "velocity": 64,
                "duration": 0.08181818181818201,
                "tempo": 120.0
            },
            {
                "start_time": 22.53181818181818,
                "end_time": 22.611363636363635,
                "pitch": 59,
                "velocity": 64,
                "duration": 0.07954545454545325,
                "tempo": 120.0
            },
            {
                "start_time": 22.93181818181818,
                "end_time": 23.013636363636362,
                "pitch": 59,
                "velocity": 64,
                "duration": 0.08181818181818201,
                "tempo": 120.0
            },
            {
                "start_time": 23.204545454545453,
                "end_time": 23.286363636363635,
                "pitch": 59,
                "velocity": 64,
                "duration": 0.08181818181818201,
                "tempo": 120.0
            },
            {
                "start_time": 23.479545454545452,
                "end_time": 23.69090909090909,
                "pitch": 55,
                "velocity": 64,
                "duration": 0.21136363636363953,
                "tempo": 120.0
            },
            {
                "start_time": 23.877272727272725,
                "end_time": 23.959090909090907,
                "pitch": 55,
                "velocity": 64,
                "duration": 0.08181818181818201,
                "tempo": 120.0
            },
            {
                "start_time": 24.14772727272727,
                "end_time": 24.229545454545452,
                "pitch": 55,
                "velocity": 64,
                "duration": 0.08181818181818201,
                "tempo": 120.0
            },
            {
                "start_time": 24.28181818181818,
                "end_time": 24.36590909090909,
                "pitch": 55,
                "velocity": 64,
                "duration": 0.08409090909090722,
                "tempo": 120.0
            },
            {
                "start_time": 24.55681818181818,
                "end_time": 24.636363636363637,
                "pitch": 54,
                "velocity": 64,
                "duration": 0.0795454545454568,
                "tempo": 120.0
            },
            {
                "start_time": 24.82272727272727,
                "end_time": 24.904545454545453,
                "pitch": 55,
                "velocity": 64,
                "duration": 0.08181818181818201,
                "tempo": 120.0
            },
            {
                "start_time": 25.09090909090909,
                "end_time": 25.172727272727272,
                "pitch": 55,
                "velocity": 64,
                "duration": 0.08181818181818201,
                "tempo": 120.0
            },
            {
                "start_time": 25.363636363636363,
                "end_time": 25.445454545454545,
                "pitch": 55,
                "velocity": 64,
                "duration": 0.08181818181818201,
                "tempo": 120.0
            },
            {
                "start_time": 25.636363636363637,
                "end_time": 25.849999999999998,
                "pitch": 55,
                "velocity": 64,
                "duration": 0.21363636363636118,
                "tempo": 120.0
            },
            {
                "start_time": 26.036363636363635,
                "end_time": 26.118181818181817,
                "pitch": 55,
                "velocity": 64,
                "duration": 0.08181818181818201,
                "tempo": 120.0
            },
            {
                "start_time": 26.30681818181818,
                "end_time": 26.386363636363637,
                "pitch": 55,
                "velocity": 64,
                "duration": 0.0795454545454568,
                "tempo": 120.0
            },
            {
                "start_time": 26.436363636363634,
                "end_time": 26.520454545454545,
                "pitch": 55,
                "velocity": 64,
                "duration": 0.08409090909091077,
                "tempo": 120.0
            },
            {
                "start_time": 24.55681818181818,
                "end_time": 26.706818181818182,
                "pitch": 0,
                "velocity": 64,
                "duration": 2.150000000000002,
                "tempo": 120.0
            },
            {
                "start_time": 26.706818181818182,
                "end_time": 26.788636363636364,
                "pitch": 54,
                "velocity": 64,
                "duration": 0.08181818181818201,
                "tempo": 120.0
            },
            {
                "start_time": 24.82272727272727,
                "end_time": 26.979545454545452,
                "pitch": 66,
                "velocity": 64,
                "duration": 2.1568181818181813,
                "tempo": 120.0
            },
            {
                "start_time": 26.979545454545452,
                "end_time": 27.061363636363634,
                "pitch": 55,
                "velocity": 64,
                "duration": 0.08181818181818201,
                "tempo": 120.0
            },
            {
                "start_time": 27.25,
                "end_time": 27.331818181818182,
                "pitch": 55,
                "velocity": 64,
                "duration": 0.08181818181818201,
                "tempo": 120.0
            },
            {
                "start_time": 27.518181818181816,
                "end_time": 27.599999999999998,
                "pitch": 55,
                "velocity": 64,
                "duration": 0.08181818181818201,
                "tempo": 120.0
            },
            {
                "start_time": 27.788636363636364,
                "end_time": 28.004545454545454,
                "pitch": 55,
                "velocity": 64,
                "duration": 0.21590909090908994,
                "tempo": 120.0
            },
            {
                "start_time": 28.193181818181817,
                "end_time": 28.277272727272727,
                "pitch": 55,
                "velocity": 64,
                "duration": 0.08409090909091077,
                "tempo": 120.0
            },
            {
                "start_time": 28.46590909090909,
                "end_time": 28.545454545454543,
                "pitch": 55,
                "velocity": 64,
                "duration": 0.07954545454545325,
                "tempo": 120.0
            },
            {
                "start_time": 28.595454545454544,
                "end_time": 28.679545454545455,
                "pitch": 55,
                "velocity": 64,
                "duration": 0.08409090909091077,
                "tempo": 120.0
            },
            {
                "start_time": 26.706818181818182,
                "end_time": 28.86590909090909,
                "pitch": 0,
                "velocity": 64,
                "duration": 2.1590909090909065,
                "tempo": 120.0
            },
            {
                "start_time": 28.86590909090909,
                "end_time": 28.94772727272727,
                "pitch": 54,
                "velocity": 64,
                "duration": 0.08181818181818201,
                "tempo": 120.0
            },
            {
                "start_time": 26.979545454545452,
                "end_time": 29.136363636363637,
                "pitch": 66,
                "velocity": 64,
                "duration": 2.156818181818185,
                "tempo": 120.0
            },
            {
                "start_time": 29.136363636363637,
                "end_time": 29.220454545454544,
                "pitch": 55,
                "velocity": 64,
                "duration": 0.08409090909090722,
                "tempo": 120.0
            },
            {
                "start_time": 29.411363636363635,
                "end_time": 29.49090909090909,
                "pitch": 55,
                "velocity": 64,
                "duration": 0.07954545454545325,
                "tempo": 120.0
            },
            {
                "start_time": 29.679545454545455,
                "end_time": 29.759090909090908,
                "pitch": 55,
                "velocity": 64,
                "duration": 0.07954545454545325,
                "tempo": 120.0
            },
            {
                "start_time": 29.94772727272727,
                "end_time": 30.161363636363635,
                "pitch": 55,
                "velocity": 64,
                "duration": 0.21363636363636473,
                "tempo": 120.0
            },
            {
                "start_time": 30.345454545454544,
                "end_time": 30.427272727272726,
                "pitch": 55,
                "velocity": 64,
                "duration": 0.08181818181818201,
                "tempo": 120.0
            },
            {
                "start_time": 30.61590909090909,
                "end_time": 30.695454545454545,
                "pitch": 55,
                "velocity": 64,
                "duration": 0.0795454545454568,
                "tempo": 120.0
            },
            {
                "start_time": 30.745454545454542,
                "end_time": 30.829545454545453,
                "pitch": 55,
                "velocity": 64,
                "duration": 0.08409090909091077,
                "tempo": 120.0
            },
            {
                "start_time": 28.86590909090909,
                "end_time": 31.01590909090909,
                "pitch": 0,
                "velocity": 64,
                "duration": 2.150000000000002,
                "tempo": 120.0
            },
            {
                "start_time": 31.01590909090909,
                "end_time": 31.097727272727273,
                "pitch": 54,
                "velocity": 64,
                "duration": 0.08181818181818201,
                "tempo": 120.0
            },
            {
                "start_time": 29.136363636363637,
                "end_time": 31.29090909090909,
                "pitch": 66,
                "velocity": 64,
                "duration": 2.1545454545454525,
                "tempo": 120.0
            },
            {
                "start_time": 31.29090909090909,
                "end_time": 31.370454545454542,
                "pitch": 55,
                "velocity": 64,
                "duration": 0.07954545454545325,
                "tempo": 120.0
            },
            {
                "start_time": 31.55909090909091,
                "end_time": 31.643181818181816,
                "pitch": 55,
                "velocity": 64,
                "duration": 0.08409090909090722,
                "tempo": 120.0
            },
            {
                "start_time": 31.831818181818182,
                "end_time": 31.91590909090909,
                "pitch": 55,
                "velocity": 64,
                "duration": 0.08409090909090722,
                "tempo": 120.0
            },
            {
                "start_time": 32.10681818181818,
                "end_time": 32.320454545454545,
                "pitch": 55,
                "velocity": 64,
                "duration": 0.2136363636363683,
                "tempo": 120.0
            },
            {
                "start_time": 32.50454545454545,
                "end_time": 32.58863636363636,
                "pitch": 55,
                "velocity": 64,
                "duration": 0.08409090909091077,
                "tempo": 120.0
            },
            {
                "start_time": 32.775,
                "end_time": 32.85454545454545,
                "pitch": 55,
                "velocity": 64,
                "duration": 0.07954545454545325,
                "tempo": 120.0
            },
            {
                "start_time": 32.90681818181818,
                "end_time": 32.98863636363636,
                "pitch": 55,
                "velocity": 64,
                "duration": 0.08181818181817846,
                "tempo": 120.0
            },
            {
                "start_time": 31.01590909090909,
                "end_time": 33.175,
                "pitch": 0,
                "velocity": 64,
                "duration": 2.1590909090909065,
                "tempo": 120.0
            },
            {
                "start_time": 33.175,
                "end_time": 33.25681818181818,
                "pitch": 54,
                "velocity": 64,
                "duration": 0.08181818181818556,
                "tempo": 120.0
            },
            {
                "start_time": 31.29090909090909,
                "end_time": 33.445454545454545,
                "pitch": 66,
                "velocity": 64,
                "duration": 2.154545454545456,
                "tempo": 120.0
            },
            {
                "start_time": 33.445454545454545,
                "end_time": 33.529545454545456,
                "pitch": 55,
                "velocity": 64,
                "duration": 0.08409090909091077,
                "tempo": 120.0
            },
            {
                "start_time": 33.720454545454544,
                "end_time": 33.80227272727272,
                "pitch": 55,
                "velocity": 64,
                "duration": 0.08181818181817846,
                "tempo": 120.0
            },
            {
                "start_time": 33.98863636363636,
                "end_time": 34.06818181818181,
                "pitch": 55,
                "velocity": 64,
                "duration": 0.07954545454545325,
                "tempo": 120.0
            },
            {
                "start_time": 34.25681818181818,
                "end_time": 34.475,
                "pitch": 55,
                "velocity": 64,
                "duration": 0.2181818181818187,
                "tempo": 120.0
            },
            {
                "start_time": 34.66136363636363,
                "end_time": 34.74545454545454,
                "pitch": 55,
                "velocity": 64,
                "duration": 0.08409090909091077,
                "tempo": 120.0
            },
            {
                "start_time": 34.934090909090905,
                "end_time": 35.013636363636365,
                "pitch": 55,
                "velocity": 64,
                "duration": 0.07954545454546036,
                "tempo": 120.0
            },
            {
                "start_time": 35.06590909090909,
                "end_time": 35.14772727272727,
                "pitch": 55,
                "velocity": 64,
                "duration": 0.08181818181818556,
                "tempo": 120.0
            },
            {
                "start_time": 33.175,
                "end_time": 35.336363636363636,
                "pitch": 0,
                "velocity": 64,
                "duration": 2.161363636363639,
                "tempo": 120.0
            },
            {
                "start_time": 35.336363636363636,
                "end_time": 35.41590909090909,
                "pitch": 54,
                "velocity": 64,
                "duration": 0.07954545454545325,
                "tempo": 120.0
            },
            {
                "start_time": 33.445454545454545,
                "end_time": 35.60454545454545,
                "pitch": 66,
                "velocity": 64,
                "duration": 2.1590909090909065,
                "tempo": 120.0
            },
            {
                "start_time": 35.60454545454545,
                "end_time": 35.684090909090905,
                "pitch": 55,
                "velocity": 64,
                "duration": 0.07954545454545325,
                "tempo": 120.0
            },
            {
                "start_time": 35.87045454545454,
                "end_time": 35.95227272727273,
                "pitch": 55,
                "velocity": 64,
                "duration": 0.08181818181818556,
                "tempo": 120.0
            },
            {
                "start_time": 36.14090909090909,
                "end_time": 36.225,
                "pitch": 55,
                "velocity": 64,
                "duration": 0.08409090909091077,
                "tempo": 120.0
            },
            {
                "start_time": 36.41590909090909,
                "end_time": 36.62954545454545,
                "pitch": 55,
                "velocity": 64,
                "duration": 0.21363636363636118,
                "tempo": 120.0
            },
            {
                "start_time": 36.81590909090909,
                "end_time": 36.89772727272727,
                "pitch": 55,
                "velocity": 64,
                "duration": 0.08181818181818556,
                "tempo": 120.0
            },
            {
                "start_time": 37.086363636363636,
                "end_time": 37.168181818181814,
                "pitch": 55,
                "velocity": 64,
                "duration": 0.08181818181817846,
                "tempo": 120.0
            },
            {
                "start_time": 37.220454545454544,
                "end_time": 37.304545454545455,
                "pitch": 55,
                "velocity": 64,
                "duration": 0.08409090909091077,
                "tempo": 120.0
            },
            {
                "start_time": 35.336363636363636,
                "end_time": 37.49545454545454,
                "pitch": 0,
                "velocity": 64,
                "duration": 2.1590909090909065,
                "tempo": 120.0
            },
            {
                "start_time": 37.49545454545454,
                "end_time": 37.574999999999996,
                "pitch": 54,
                "velocity": 64,
                "duration": 0.07954545454545325,
                "tempo": 120.0
            },
            {
                "start_time": 35.60454545454545,
                "end_time": 37.76136363636363,
                "pitch": 66,
                "velocity": 64,
                "duration": 2.1568181818181813,
                "tempo": 120.0
            },
            {
                "start_time": 37.76136363636363,
                "end_time": 37.84318181818182,
                "pitch": 55,
                "velocity": 64,
                "duration": 0.08181818181818556,
                "tempo": 120.0
            },
            {
                "start_time": 38.029545454545456,
                "end_time": 38.111363636363635,
                "pitch": 55,
                "velocity": 64,
                "duration": 0.08181818181817846,
                "tempo": 120.0
            },
            {
                "start_time": 38.29772727272727,
                "end_time": 38.377272727272725,
                "pitch": 55,
                "velocity": 64,
                "duration": 0.07954545454545325,
                "tempo": 120.0
            },
            {
                "start_time": 37.49545454545454,
                "end_time": 38.56590909090909,
                "pitch": 0,
                "velocity": 64,
                "duration": 1.0704545454545453,
                "tempo": 120.0
            },
            {
                "start_time": 38.56590909090909,
                "end_time": 38.78409090909091,
                "pitch": 48,
                "velocity": 64,
                "duration": 0.2181818181818187,
                "tempo": 120.0
            },
            {
                "start_time": 38.836363636363636,
                "end_time": 38.92045454545455,
                "pitch": 36,
                "velocity": 64,
                "duration": 0.08409090909091077,
                "tempo": 120.0
            },
            {
                "start_time": 38.975,
                "end_time": 39.054545454545455,
                "pitch": 50,
                "velocity": 64,
                "duration": 0.07954545454545325,
                "tempo": 120.0
            },
            {
                "start_time": 39.10909090909091,
                "end_time": 39.19090909090909,
                "pitch": 36,
                "velocity": 64,
                "duration": 0.08181818181817846,
                "tempo": 120.0
            },
            {
                "start_time": 38.975,
                "end_time": 39.24772727272727,
                "pitch": 48,
                "velocity": 64,
                "duration": 0.27272727272726627,
                "tempo": 120.0
            },
            {
                "start_time": 39.24772727272727,
                "end_time": 39.32727272727273,
                "pitch": 51,
                "velocity": 64,
                "duration": 0.07954545454546036,
                "tempo": 120.0
            },
            {
                "start_time": 39.38181818181818,
                "end_time": 39.6,
                "pitch": 55,
                "velocity": 64,
                "duration": 0.2181818181818187,
                "tempo": 120.0
            },
            {
                "start_time": 6.36590909090909,
                "end_time": 40.27045454545454,
                "pitch": 58,
                "velocity": 64,
                "duration": 33.90454545454545,
                "tempo": 120.0
            },
            {
                "start_time": 39.654545454545456,
                "end_time": 40.27045454545454,
                "pitch": 58,
                "velocity": 64,
                "duration": 0.615909090909085,
                "tempo": 120.0
            },
            {
                "start_time": 40.324999999999996,
                "end_time": 40.80681818181818,
                "pitch": 58,
                "velocity": 64,
                "duration": 0.48181818181818414,
                "tempo": 120.0
            }
        ]
    }
}