{
    "track_id": "08 Change 2",
    "mood": "happy",
    "instruments": {
        "Trumpet": [
            {
                "start_time": 0.0022727272727272726,
                "end_time": 0.31136363636363634,
                "pitch": 78,
                "velocity": 4,
                "duration": 0.3090909090909091,
                "tempo": 120.0
            },
            {
                "start_time": 0.31136363636363634,
                "end_time": 0.37727272727272726,
                "pitch": 79,
                "velocity": 4,
                "duration": 0.06590909090909092,
                "tempo": 120.0
            },
            {
                "start_time": 0.37727272727272726,
                "end_time": 0.46136363636363636,
                "pitch": 79,
                "velocity": 4,
                "duration": 0.0840909090909091,
                "tempo": 120.0
            },
            {
                "start_time": 0.37727272727272726,
                "end_time": 0.46136363636363636,
                "pitch": 91,
                "velocity": 4,
                "duration": 0.0840909090909091,
                "tempo": 120.0
            },
            {
                "start_time": 0.46136363636363636,
                "end_time": 0.7636363636363636,
                "pitch": 81,
                "velocity": 4,
                "duration": 0.3022727272727272,
                "tempo": 120.0
            },
            {
                "start_time": 0.7636363636363636,
                "end_time": 1.0772727272727272,
                "pitch": 86,
                "velocity": 4,
                "duration": 0.3136363636363636,
                "tempo": 120.0
            },
            {
                "start_time": 1.0772727272727272,
                "end_time": 1.2340909090909091,
                "pitch": 86,
                "velocity": 4,
                "duration": 0.15681818181818197,
                "tempo": 120.0
            },
            {
                "start_time": 1.2340909090909091,
                "end_time": 1.384090909090909,
                "pitch": 85,
                "velocity": 4,
                "duration": 0.1499999999999999,
                "tempo": 120.0
            },
            {
                "start_time": 1.384090909090909,
                "end_time": 1.6818181818181817,
                "pitch": 83,
                "velocity": 4,
                "duration": 0.2977272727272726,
                "tempo": 120.0
            },
            {
                "start_time": 1.384090909090909,
                "end_time": 1.8295454545454544,
                "pitch": 85,
                "velocity": 4,
                "duration": 0.4454545454545453,
                "tempo": 120.0
            },
            {
                "start_time": 1.6818181818181817,
                "end_time": 1.8295454545454544,
                "pitch": 85,
                "velocity": 4,
                "duration": 0.1477272727272727,
                "tempo": 120.0
            },
            {
                "start_time": 1.6818181818181817,
                "end_time": 2.134090909090909,
                "pitch": 83,
                "velocity": 4,
                "duration": 0.45227272727272716,
                "tempo": 120.0
            },
            {
                "start_time": 1.8295454545454544,
                "end_time": 2.134090909090909,
                "pitch": 83,
                "velocity": 4,
                "duration": 0.30454545454545445,
                "tempo": 120.0
            },
            {
                "start_time": 1.8295454545454544,
                "end_time": 2.284090909090909,
                "pitch": 85,
                "velocity": 4,
                "duration": 0.4545454545454548,
                "tempo": 120.0
            },
            {
                "start_time": 2.134090909090909,
                "end_time": 2.284090909090909,
                "pitch": 85,
                "velocity": 4,
                "duration": 0.15000000000000036,
                "tempo": 120.0
            },
            {
                "start_time": 2.134090909090909,
                "end_time": 2.436363636363636,
                "pitch": 83,
                "velocity": 4,
                "duration": 0.30227272727272725,
                "tempo": 120.0
            },
            {
                "start_time": 2.284090909090909,
                "end_time": 2.436363636363636,
                "pitch": 83,
                "velocity": 4,
                "duration": 0.1522727272727269,
                "tempo": 120.0
            },
            {
                "start_time": 2.436363636363636,
                "end_time": 2.5886363636363634,
                "pitch": 83,
                "velocity": 4,
                "duration": 0.15227272727272734,
                "tempo": 120.0
            },
            {
                "start_time": 0.7636363636363636,
                "end_time": 2.7386363636363633,
                "pitch": 81,
                "velocity": 4,
                "duration": 1.9749999999999996,
                "tempo": 120.0
            },
            {
                "start_time": 2.5886363636363634,
                "end_time": 2.7386363636363633,
                "pitch": 81,
                "velocity": 4,
                "duration": 0.1499999999999999,
                "tempo": 120.0
            },
            {
                "start_time": 2.5886363636363634,
                "end_time": 2.8909090909090907,
                "pitch": 83,
                "velocity": 4,
                "duration": 0.30227272727272725,
                "tempo": 120.0
            },
            {
                "start_time": 2.7386363636363633,
                "end_time": 2.8909090909090907,
                "pitch": 83,
                "velocity": 4,
                "duration": 0.15227272727272734,
                "tempo": 120.0
            },
            {
                "start_time": 2.7386363636363633,
                "end_time": 3.043181818181818,
                "pitch": 81,
                "velocity": 4,
                "duration": 0.3045454545454547,
                "tempo": 120.0
            },
            {
                "start_time": 2.8909090909090907,
                "end_time": 3.043181818181818,
                "pitch": 81,
                "velocity": 4,
                "duration": 0.15227272727272734,
                "tempo": 120.0
            },
            {
                "start_time": 3.043181818181818,
                "end_time": 3.1068181818181815,
                "pitch": 79,
                "velocity": 4,
                "duration": 0.06363636363636349,
                "tempo": 120.0
            },
            {
                "start_time": 0.46136363636363636,
                "end_time": 3.1068181818181815,
                "pitch": 91,
                "velocity": 4,
                "duration": 2.645454545454545,
                "tempo": 120.0
            },
            {
                "start_time": 3.1068181818181815,
                "end_time": 3.190909090909091,
                "pitch": 79,
                "velocity": 4,
                "duration": 0.08409090909090944,
                "tempo": 120.0
            },
            {
                "start_time": 3.190909090909091,
                "end_time": 3.3386363636363634,
                "pitch": 79,
                "velocity": 4,
                "duration": 0.14772727272727249,
                "tempo": 120.0
            },
            {
                "start_time": 3.340909090909091,
                "end_time": 3.4886363636363633,
                "pitch": 71,
                "velocity": 4,
                "duration": 0.14772727272727249,
                "tempo": 120.0
            },
            {
                "start_time": 3.4886363636363633,
                "end_time": 3.6386363636363637,
                "pitch": 73,
                "velocity": 4,
                "duration": 0.15000000000000036,
                "tempo": 120.0
            },
            {
                "start_time": 3.340909090909091,
                "end_time": 3.7909090909090906,
                "pitch": 78,
                "velocity": 4,
                "duration": 0.44999999999999973,
                "tempo": 120.0
            },
            {
                "start_time": 3.6386363636363637,
                "end_time": 3.7909090909090906,
                "pitch": 78,
                "velocity": 4,
                "duration": 0.1522727272727269,
                "tempo": 120.0
            }
        ],
        "Vibraphone": [
            {
                "start_time": 0.0022727272727272726,
                "end_time": 0.31136363636363634,
                "pitch": 66,
                "velocity": 4,
                "duration": 0.3090909090909091,
                "tempo": 120.0
            },
            {
                "start_time": 0.31136363636363634,
                "end_time": 0.37727272727272726,
                "pitch": 67,
                "velocity": 4,
                "duration": 0.06590909090909092,
                "tempo": 120.0
            },
            {
                "start_time": 0.37727272727272726,
                "end_time": 0.46136363636363636,
                "pitch": 67,
                "velocity": 4,
                "duration": 0.0840909090909091,
                "tempo": 120.0
            },
            {
                "start_time": 0.37727272727272726,
                "end_time": 0.46136363636363636,
                "pitch": 79,
                "velocity": 4,
                "duration": 0.0840909090909091,
                "tempo": 120.0
            },
            {
                "start_time": 0.46136363636363636,
                "end_time": 0.7636363636363636,
                "pitch": 69,
                "velocity": 4,
                "duration": 0.3022727272727272,
                "tempo": 120.0
            },
            {
                "start_time": 0.7636363636363636,
                "end_time": 0.7659090909090909,
                "pitch": 69,
                "velocity": 4,
                "duration": 0.002272727272727315,
                "tempo": 120.0
            },
            {
                "start_time": 0.7659090909090909,
                "end_time": 1.0772727272727272,
                "pitch": 74,
                "velocity": 4,
                "duration": 0.3113636363636363,
                "tempo": 120.0
            },
            {
                "start_time": 1.0772727272727272,
                "end_time": 1.2340909090909091,
                "pitch": 74,
                "velocity": 4,
                "duration": 0.15681818181818197,
                "tempo": 120.0
            },
            {
                "start_time": 1.2340909090909091,
                "end_time": 1.384090909090909,
                "pitch": 73,
                "velocity": 4,
                "duration": 0.1499999999999999,
                "tempo": 120.0
            },
            {
                "start_time": 1.384090909090909,
                "end_time": 1.6818181818181817,
                "pitch": 71,
                "velocity": 4,
                "duration": 0.2977272727272726,
                "tempo": 120.0
            },
            {
                "start_time": 1.384090909090909,
                "end_time": 1.8295454545454544,
                "pitch": 73,
                "velocity": 4,
                "duration": 0.4454545454545453,
                "tempo": 120.0
            },
            {
                "start_time": 1.6818181818181817,
                "end_time": 1.8295454545454544,
                "pitch": 73,
                "velocity": 4,
                "duration": 0.1477272727272727,
                "tempo": 120.0
            },
            {
                "start_time": 1.6818181818181817,
                "end_time": 2.134090909090909,
                "pitch": 71,
                "velocity": 4,
                "duration": 0.45227272727272716,
                "tempo": 120.0
            },
            {
                "start_time": 1.8295454545454544,
                "end_time": 2.134090909090909,
                "pitch": 71,
                "velocity": 4,
                "duration": 0.30454545454545445,
                "tempo": 120.0
            },
            {
                "start_time": 1.8295454545454544,
                "end_time": 2.284090909090909,
                "pitch": 73,
                "velocity": 4,
                "duration": 0.4545454545454548,
                "tempo": 120.0
            },
            {
                "start_time": 2.134090909090909,
                "end_time": 2.284090909090909,
                "pitch": 73,
                "velocity": 4,
                "duration": 0.15000000000000036,
                "tempo": 120.0
            },
            {
                "start_time": 2.134090909090909,
                "end_time": 2.436363636363636,
                "pitch": 71,
                "velocity": 4,
                "duration": 0.30227272727272725,
                "tempo": 120.0
            },
            {
                "start_time": 2.284090909090909,
                "end_time": 2.436363636363636,
                "pitch": 71,
                "velocity": 4,
                "duration": 0.1522727272727269,
                "tempo": 120.0
            },
            {
                "start_time": 2.436363636363636,
                "end_time": 2.5886363636363634,
                "pitch": 71,
                "velocity": 4,
                "duration": 0.15227272727272734,
                "tempo": 120.0
            },
            {
                "start_time": 2.5886363636363634,
                "end_time": 2.6045454545454545,
                "pitch": 71,
                "velocity": 4,
                "duration": 0.015909090909091095,
                "tempo": 120.0
            },
            {
                "start_time": 2.6045454545454545,
                "end_time": 2.7386363636363633,
                "pitch": 69,
                "velocity": 4,
                "duration": 0.13409090909090882,
                "tempo": 120.0
            },
            {
                "start_time": 2.7386363636363633,
                "end_time": 2.8068181818181817,
                "pitch": 69,
                "velocity": 4,
                "duration": 0.06818181818181834,
                "tempo": 120.0
            },
            {
                "start_time": 2.8068181818181817,
                "end_time": 2.8909090909090907,
                "pitch": 71,
                "velocity": 4,
                "duration": 0.084090909090909,
                "tempo": 120.0
            },
            {
                "start_time": 2.8909090909090907,
                "end_time": 2.9068181818181817,
                "pitch": 71,
                "velocity": 4,
                "duration": 0.015909090909091095,
                "tempo": 120.0
            },
            {
                "start_time": 2.9068181818181817,
                "end_time": 3.043181818181818,
                "pitch": 69,
                "velocity": 4,
                "duration": 0.13636363636363624,
                "tempo": 120.0
            },
            {
                "start_time": 3.043181818181818,
                "end_time": 3.1068181818181815,
                "pitch": 67,
                "velocity": 4,
                "duration": 0.06363636363636349,
                "tempo": 120.0
            },
            {
                "start_time": 0.46136363636363636,
                "end_time": 3.1068181818181815,
                "pitch": 79,
                "velocity": 4,
                "duration": 2.645454545454545,
                "tempo": 120.0
            },
            {
                "start_time": 3.1068181818181815,
                "end_time": 3.190909090909091,
                "pitch": 67,
                "velocity": 4,
                "duration": 0.08409090909090944,
                "tempo": 120.0
            },
            {
                "start_time": 3.190909090909091,
                "end_time": 3.340909090909091,
                "pitch": 67,
                "velocity": 4,
                "duration": 0.1499999999999999,
                "tempo": 120.0
            },
            {
                "start_time": 3.340909090909091,
                "end_time": 3.4886363636363633,
                "pitch": 59,
                "velocity": 4,
                "duration": 0.14772727272727249,
                "tempo": 120.0
            },
            {
                "start_time": 3.4886363636363633,
                "end_time": 3.6386363636363637,
                "pitch": 61,
                "velocity": 4,
                "duration": 0.15000000000000036,
                "tempo": 120.0
            },
            {
                "start_time": 3.340909090909091,
                "end_time": 3.7909090909090906,
                "pitch": 66,
                "velocity": 4,
                "duration": 0.44999999999999973,
                "tempo": 120.0
            },
            {
                "start_time": 3.6386363636363637,
                "end_time": 3.7909090909090906,
                "pitch": 66,
                "velocity": 4,
                "duration": 0.1522727272727269,
                "tempo": 120.0
            }
        ]
    }
}