{
    "track_id": "08 Inorganic Beat",
    "mood": "happy",
    "instruments": {
        "Acoustic Bass": [
            {
                "start_time": 0.03636363636363636,
                "end_time": 0.23409090909090907,
                "pitch": 33,
                "velocity": 80,
                "duration": 0.1977272727272727,
                "tempo": 120.0
            },
            {
                "start_time": 0.23409090909090907,
                "end_time": 0.4340909090909091,
                "pitch": 33,
                "velocity": 80,
                "duration": 0.2,
                "tempo": 120.0
            },
            {
                "start_time": 0.4340909090909091,
                "end_time": 0.634090909090909,
                "pitch": 33,
                "velocity": 80,
                "duration": 0.19999999999999996,
                "tempo": 120.0
            },
            {
                "start_time": 0.634090909090909,
                "end_time": 0.8340909090909091,
                "pitch": 33,
                "velocity": 80,
                "duration": 0.20000000000000007,
                "tempo": 120.0
            },
            {
                "start_time": 0.8340909090909091,
                "end_time": 1.034090909090909,
                "pitch": 33,
                "velocity": 80,
                "duration": 0.19999999999999984,
                "tempo": 120.0
            },
            {
                "start_time": 1.034090909090909,
                "end_time": 1.2363636363636363,
                "pitch": 33,
                "velocity": 80,
                "duration": 0.20227272727272738,
                "tempo": 120.0
            },
            {
                "start_time": 1.2363636363636363,
                "end_time": 1.4363636363636363,
                "pitch": 33,
                "velocity": 80,
                "duration": 0.19999999999999996,
                "tempo": 120.0
            },
            {
                "start_time": 1.4363636363636363,
                "end_time": 1.6363636363636362,
                "pitch": 33,
                "velocity": 80,
                "duration": 0.19999999999999996,
                "tempo": 120.0
            },
            {
                "start_time": 1.6363636363636362,
                "end_time": 1.8363636363636362,
                "pitch": 29,
                "velocity": 80,
                "duration": 0.19999999999999996,
                "tempo": 120.0
            },
            {
                "start_time": 1.8363636363636362,
                "end_time": 2.036363636363636,
                "pitch": 29,
                "velocity": 80,
                "duration": 0.19999999999999996,
                "tempo": 120.0
            },
            {
                "start_time": 2.0386363636363636,
                "end_time": 2.2386363636363633,
                "pitch": 29,
                "velocity": 80,
                "duration": 0.19999999999999973,
                "tempo": 120.0
            },
            {
                "start_time": 2.2386363636363633,
                "end_time": 2.4454545454545453,
                "pitch": 29,
                "velocity": 80,
                "duration": 0.206818181818182,
                "tempo": 120.0
            },
            {
                "start_time": 2.4454545454545453,
                "end_time": 2.65,
                "pitch": 29,
                "velocity": 80,
                "duration": 0.20454545454545459,
                "tempo": 120.0
            },
            {
                "start_time": 2.65,
                "end_time": 2.8499999999999996,
                "pitch": 29,
                "velocity": 80,
                "duration": 0.19999999999999973,
                "tempo": 120.0
            },
            {
                "start_time": 2.852272727272727,
                "end_time": 3.05,
                "pitch": 29,
                "velocity": 80,
                "duration": 0.19772727272727275,
                "tempo": 120.0
            },
            {
                "start_time": 3.0522727272727272,
                "end_time": 3.252272727272727,
                "pitch": 29,
                "velocity": 80,
                "duration": 0.19999999999999973,
                "tempo": 120.0
            },
            {
                "start_time": 3.252272727272727,
                "end_time": 3.4499999999999997,
                "pitch": 28,
                "velocity": 80,
                "duration": 0.19772727272727275,
                "tempo": 120.0
            },
            {
                "start_time": 3.452272727272727,
                "end_time": 3.652272727272727,
                "pitch": 28,
                "velocity": 80,
                "duration": 0.19999999999999973,
                "tempo": 120.0
            },
            {
                "start_time": 3.652272727272727,
                "end_time": 3.852272727272727,
                "pitch": 28,
                "velocity": 80,
                "duration": 0.20000000000000018,
                "tempo": 120.0
            },
            {
                "start_time": 3.852272727272727,
                "end_time": 4.052272727272727,
                "pitch": 28,
                "velocity": 80,
                "duration": 0.19999999999999973,
                "tempo": 120.0
            },
            {
                "start_time": 4.052272727272727,
                "end_time": 4.252272727272727,
                "pitch": 28,
                "velocity": 80,
                "duration": 0.20000000000000018,
                "tempo": 120.0
            },
            {
                "start_time": 4.252272727272727,
                "end_time": 4.454545454545454,
                "pitch": 28,
                "velocity": 80,
                "duration": 0.20227272727272716,
                "tempo": 120.0
            },
            {
                "start_time": 4.454545454545454,
                "end_time": 4.654545454545454,
                "pitch": 28,
                "velocity": 80,
                "duration": 0.20000000000000018,
                "tempo": 120.0
            },
            {
                "start_time": 4.656818181818181,
                "end_time": 4.8568181818181815,
                "pitch": 28,
                "velocity": 80,
                "duration": 0.20000000000000018,
                "tempo": 120.0
            },
            {
                "start_time": 4.8568181818181815,
                "end_time": 5.056818181818182,
                "pitch": 26,
                "velocity": 80,
                "duration": 0.20000000000000018,
                "tempo": 120.0
            },
            {
                "start_time": 5.056818181818182,
                "end_time": 5.256818181818182,
                "pitch": 26,
                "velocity": 80,
                "duration": 0.20000000000000018,
                "tempo": 120.0
            },
            {
                "start_time": 5.259090909090909,
                "end_time": 5.459090909090909,
                "pitch": 26,
                "velocity": 80,
                "duration": 0.20000000000000018,
                "tempo": 120.0
            },
            {
                "start_time": 5.459090909090909,
                "end_time": 5.661363636363636,
                "pitch": 26,
                "velocity": 80,
                "duration": 0.20227272727272716,
                "tempo": 120.0
            },
            {
                "start_time": 5.661363636363636,
                "end_time": 5.863636363636363,
                "pitch": 33,
                "velocity": 80,
                "duration": 0.20227272727272716,
                "tempo": 120.0
            },
            {
                "start_time": 5.863636363636363,
                "end_time": 6.0636363636363635,
                "pitch": 33,
                "velocity": 80,
                "duration": 0.20000000000000018,
                "tempo": 120.0
            },
            {
                "start_time": 6.0636363636363635,
                "end_time": 6.263636363636364,
                "pitch": 31,
                "velocity": 80,
                "duration": 0.20000000000000018,
                "tempo": 120.0
            },
            {
                "start_time": 6.263636363636364,
                "end_time": 6.465909090909091,
                "pitch": 31,
                "velocity": 80,
                "duration": 0.20227272727272716,
                "tempo": 120.0
            },
            {
                "start_time": 6.465909090909091,
                "end_time": 6.665909090909091,
                "pitch": 29,
                "velocity": 80,
                "duration": 0.20000000000000018,
                "tempo": 120.0
            },
            {
                "start_time": 6.665909090909091,
                "end_time": 6.86590909090909,
                "pitch": 29,
                "velocity": 80,
                "duration": 0.1999999999999993,
                "tempo": 120.0
            },
            {
                "start_time": 6.868181818181818,
                "end_time": 7.0659090909090905,
                "pitch": 29,
                "velocity": 80,
                "duration": 0.1977272727272723,
                "tempo": 120.0
            },
            {
                "start_time": 7.0681818181818175,
                "end_time": 7.268181818181818,
                "pitch": 29,
                "velocity": 80,
                "duration": 0.20000000000000018,
                "tempo": 120.0
            },
            {
                "start_time": 7.268181818181818,
                "end_time": 7.470454545454545,
                "pitch": 29,
                "velocity": 80,
                "duration": 0.20227272727272716,
                "tempo": 120.0
            },
            {
                "start_time": 7.470454545454545,
                "end_time": 7.672727272727272,
                "pitch": 29,
                "velocity": 80,
                "duration": 0.20227272727272716,
                "tempo": 120.0
            },
            {
                "start_time": 7.672727272727272,
                "end_time": 7.872727272727272,
                "pitch": 29,
                "velocity": 80,
                "duration": 0.20000000000000018,
                "tempo": 120.0
            },
            {
                "start_time": 7.875,
                "end_time": 8.075,
                "pitch": 29,
                "velocity": 80,
                "duration": 0.1999999999999993,
                "tempo": 120.0
            },
            {
                "start_time": 8.075,
                "end_time": 8.272727272727272,
                "pitch": 28,
                "velocity": 80,
                "duration": 0.1977272727272723,
                "tempo": 120.0
            },
            {
                "start_time": 8.275,
                "end_time": 8.475,
                "pitch": 28,
                "velocity": 80,
                "duration": 0.1999999999999993,
                "tempo": 120.0
            },
            {
                "start_time": 8.477272727272727,
                "end_time": 8.677272727272728,
                "pitch": 28,
                "velocity": 80,
                "duration": 0.20000000000000107,
                "tempo": 120.0
            },
            {
                "start_time": 8.677272727272728,
                "end_time": 8.879545454545454,
                "pitch": 28,
                "velocity": 80,
                "duration": 0.20227272727272627,
                "tempo": 120.0
            },
            {
                "start_time": 8.879545454545454,
                "end_time": 9.079545454545453,
                "pitch": 28,
                "velocity": 80,
                "duration": 0.1999999999999993,
                "tempo": 120.0
            },
            {
                "start_time": 9.081818181818182,
                "end_time": 9.281818181818181,
                "pitch": 28,
                "velocity": 80,
                "duration": 0.1999999999999993,
                "tempo": 120.0
            },
            {
                "start_time": 9.281818181818181,
                "end_time": 9.48181818181818,
                "pitch": 28,
                "velocity": 80,
                "duration": 0.1999999999999993,
                "tempo": 120.0
            },
            {
                "start_time": 9.48181818181818,
                "end_time": 9.684090909090909,
                "pitch": 28,
                "velocity": 80,
                "duration": 0.20227272727272805,
                "tempo": 120.0
            },
            {
                "start_time": 9.684090909090909,
                "end_time": 9.884090909090908,
                "pitch": 29,
                "velocity": 80,
                "duration": 0.1999999999999993,
                "tempo": 120.0
            },
            {
                "start_time": 9.884090909090908,
                "end_time": 10.088636363636363,
                "pitch": 29,
                "velocity": 80,
                "duration": 0.20454545454545503,
                "tempo": 120.0
            },
            {
                "start_time": 10.09090909090909,
                "end_time": 10.295454545454545,
                "pitch": 29,
                "velocity": 80,
                "duration": 0.20454545454545503,
                "tempo": 120.0
            },
            {
                "start_time": 10.295454545454545,
                "end_time": 10.49090909090909,
                "pitch": 29,
                "velocity": 80,
                "duration": 0.19545454545454533,
                "tempo": 120.0
            },
            {
                "start_time": 10.49090909090909,
                "end_time": 10.688636363636363,
                "pitch": 29,
                "velocity": 80,
                "duration": 0.1977272727272723,
                "tempo": 120.0
            },
            {
                "start_time": 10.688636363636363,
                "end_time": 10.893181818181818,
                "pitch": 29,
                "velocity": 80,
                "duration": 0.20454545454545503,
                "tempo": 120.0
            },
            {
                "start_time": 10.893181818181818,
                "end_time": 11.1,
                "pitch": 29,
                "velocity": 80,
                "duration": 0.206818181818182,
                "tempo": 120.0
            },
            {
                "start_time": 11.1,
                "end_time": 11.302272727272726,
                "pitch": 29,
                "velocity": 80,
                "duration": 0.20227272727272627,
                "tempo": 120.0
            },
            {
                "start_time": 11.302272727272726,
                "end_time": 11.502272727272727,
                "pitch": 31,
                "velocity": 80,
                "duration": 0.20000000000000107,
                "tempo": 120.0
            },
            {
                "start_time": 11.502272727272727,
                "end_time": 11.702272727272726,
                "pitch": 31,
                "velocity": 80,
                "duration": 0.1999999999999993,
                "tempo": 120.0
            },
            {
                "start_time": 11.702272727272726,
                "end_time": 11.902272727272727,
                "pitch": 31,
                "velocity": 80,
                "duration": 0.20000000000000107,
                "tempo": 120.0
            },
            {
                "start_time": 11.902272727272727,
                "end_time": 12.104545454545454,
                "pitch": 31,
                "velocity": 80,
                "duration": 0.20227272727272627,
                "tempo": 120.0
            },
            {
                "start_time": 12.104545454545454,
                "end_time": 12.306818181818182,
                "pitch": 32,
                "velocity": 80,
                "duration": 0.20227272727272805,
                "tempo": 120.0
            },
            {
                "start_time": 12.306818181818182,
                "end_time": 12.509090909090908,
                "pitch": 32,
                "velocity": 80,
                "duration": 0.20227272727272627,
                "tempo": 120.0
            },
            {
                "start_time": 12.509090909090908,
                "end_time": 12.709090909090909,
                "pitch": 32,
                "velocity": 80,
                "duration": 0.20000000000000107,
                "tempo": 120.0
            },
            {
                "start_time": 12.709090909090909,
                "end_time": 12.911363636363635,
                "pitch": 32,
                "velocity": 80,
                "duration": 0.20227272727272627,
                "tempo": 120.0
            },
            {
                "start_time": 12.913636363636362,
                "end_time": 13.111363636363636,
                "pitch": 33,
                "velocity": 80,
                "duration": 0.19772727272727408,
                "tempo": 120.0
            },
            {
                "start_time": 13.113636363636363,
                "end_time": 13.313636363636363,
                "pitch": 33,
                "velocity": 80,
                "duration": 0.1999999999999993,
                "tempo": 120.0
            },
            {
                "start_time": 13.31590909090909,
                "end_time": 13.51590909090909,
                "pitch": 33,
                "velocity": 80,
                "duration": 0.20000000000000107,
                "tempo": 120.0
            },
            {
                "start_time": 13.51590909090909,
                "end_time": 13.71590909090909,
                "pitch": 33,
                "velocity": 80,
                "duration": 0.1999999999999993,
                "tempo": 120.0
            },
            {
                "start_time": 13.71590909090909,
                "end_time": 13.915909090909091,
                "pitch": 33,
                "velocity": 80,
                "duration": 0.20000000000000107,
                "tempo": 120.0
            },
            {
                "start_time": 13.915909090909091,
                "end_time": 14.118181818181817,
                "pitch": 33,
                "velocity": 80,
                "duration": 0.20227272727272627,
                "tempo": 120.0
            },
            {
                "start_time": 14.118181818181817,
                "end_time": 14.320454545454545,
                "pitch": 33,
                "velocity": 80,
                "duration": 0.20227272727272805,
                "tempo": 120.0
            },
            {
                "start_time": 14.320454545454545,
                "end_time": 14.522727272727272,
                "pitch": 33,
                "velocity": 80,
                "duration": 0.20227272727272627,
                "tempo": 120.0
            },
            {
                "start_time": 14.522727272727272,
                "end_time": 14.722727272727273,
                "pitch": 29,
                "velocity": 80,
                "duration": 0.20000000000000107,
                "tempo": 120.0
            },
            {
                "start_time": 14.722727272727273,
                "end_time": 14.924999999999999,
                "pitch": 29,
                "velocity": 80,
                "duration": 0.20227272727272627,
                "tempo": 120.0
            },
            {
                "start_time": 14.924999999999999,
                "end_time": 15.125,
                "pitch": 29,
                "velocity": 80,
                "duration": 0.20000000000000107,
                "tempo": 120.0
            },
            {
                "start_time": 15.125,
                "end_time": 15.327272727272726,
                "pitch": 29,
                "velocity": 80,
                "duration": 0.20227272727272627,
                "tempo": 120.0
            },
            {
                "start_time": 15.327272727272726,
                "end_time": 15.529545454545454,
                "pitch": 29,
                "velocity": 80,
                "duration": 0.20227272727272805,
                "tempo": 120.0
            },
            {
                "start_time": 15.529545454545454,
                "end_time": 15.729545454545454,
                "pitch": 29,
                "velocity": 80,
                "duration": 0.1999999999999993,
                "tempo": 120.0
            },
            {
                "start_time": 15.729545454545454,
                "end_time": 15.929545454545453,
                "pitch": 29,
                "velocity": 80,
                "duration": 0.1999999999999993,
                "tempo": 120.0
            },
            {
                "start_time": 15.929545454545453,
                "end_time": 16.131818181818183,
                "pitch": 29,
                "velocity": 80,
                "duration": 0.20227272727272982,
                "tempo": 120.0
            },
            {
                "start_time": 16.131818181818183,
                "end_time": 16.331818181818182,
                "pitch": 28,
                "velocity": 80,
                "duration": 0.1999999999999993,
                "tempo": 120.0
            },
            {
                "start_time": 16.334090909090907,
                "end_time": 16.53409090909091,
                "pitch": 28,
                "velocity": 80,
                "duration": 0.20000000000000284,
                "tempo": 120.0
            },
            {
                "start_time": 16.53409090909091,
                "end_time": 16.736363636363635,
                "pitch": 28,
                "velocity": 80,
                "duration": 0.2022727272727245,
                "tempo": 120.0
            },
            {
                "start_time": 16.736363636363635,
                "end_time": 16.936363636363634,
                "pitch": 28,
                "velocity": 80,
                "duration": 0.1999999999999993,
                "tempo": 120.0
            },
            {
                "start_time": 16.936363636363634,
                "end_time": 17.136363636363637,
                "pitch": 28,
                "velocity": 80,
                "duration": 0.20000000000000284,
                "tempo": 120.0
            },
            {
                "start_time": 17.136363636363637,
                "end_time": 17.33863636363636,
                "pitch": 28,
                "velocity": 80,
                "duration": 0.2022727272727245,
                "tempo": 120.0
            },
            {
                "start_time": 17.33863636363636,
                "end_time": 17.538636363636364,
                "pitch": 28,
                "velocity": 80,
                "duration": 0.20000000000000284,
                "tempo": 120.0
            },
            {
                "start_time": 17.54090909090909,
                "end_time": 17.74090909090909,
                "pitch": 28,
                "velocity": 80,
                "duration": 0.1999999999999993,
                "tempo": 120.0
            },
            {
                "start_time": 17.74090909090909,
                "end_time": 17.938636363636363,
                "pitch": 26,
                "velocity": 80,
                "duration": 0.19772727272727408,
                "tempo": 120.0
            },
            {
                "start_time": 17.94090909090909,
                "end_time": 18.14090909090909,
                "pitch": 26,
                "velocity": 80,
                "duration": 0.1999999999999993,
                "tempo": 120.0
            },
            {
                "start_time": 18.143181818181816,
                "end_time": 18.34318181818182,
                "pitch": 26,
                "velocity": 80,
                "duration": 0.20000000000000284,
                "tempo": 120.0
            },
            {
                "start_time": 18.34318181818182,
                "end_time": 18.55,
                "pitch": 26,
                "velocity": 80,
                "duration": 0.206818181818182,
                "tempo": 120.0
            },
            {
                "start_time": 18.55,
                "end_time": 18.754545454545454,
                "pitch": 33,
                "velocity": 80,
                "duration": 0.20454545454545325,
                "tempo": 120.0
            },
            {
                "start_time": 18.754545454545454,
                "end_time": 18.954545454545453,
                "pitch": 33,
                "velocity": 80,
                "duration": 0.1999999999999993,
                "tempo": 120.0
            },
            {
                "start_time": 18.956818181818182,
                "end_time": 19.154545454545453,
                "pitch": 31,
                "velocity": 80,
                "duration": 0.19772727272727053,
                "tempo": 120.0
            },
            {
                "start_time": 19.154545454545453,
                "end_time": 19.35681818181818,
                "pitch": 31,
                "velocity": 80,
                "duration": 0.20227272727272805,
                "tempo": 120.0
            },
            {
                "start_time": 19.35681818181818,
                "end_time": 19.554545454545455,
                "pitch": 29,
                "velocity": 80,
                "duration": 0.19772727272727408,
                "tempo": 120.0
            },
            {
                "start_time": 19.55681818181818,
                "end_time": 19.75681818181818,
                "pitch": 29,
                "velocity": 80,
                "duration": 0.1999999999999993,
                "tempo": 120.0
            },
            {
                "start_time": 19.759090909090908,
                "end_time": 19.959090909090907,
                "pitch": 29,
                "velocity": 80,
                "duration": 0.1999999999999993,
                "tempo": 120.0
            },
            {
                "start_time": 19.959090909090907,
                "end_time": 20.159090909090907,
                "pitch": 29,
                "velocity": 80,
                "duration": 0.1999999999999993,
                "tempo": 120.0
            },
            {
                "start_time": 20.159090909090907,
                "end_time": 20.35909090909091,
                "pitch": 29,
                "velocity": 80,
                "duration": 0.20000000000000284,
                "tempo": 120.0
            },
            {
                "start_time": 20.361363636363635,
                "end_time": 20.561363636363634,
                "pitch": 29,
                "velocity": 80,
                "duration": 0.1999999999999993,
                "tempo": 120.0
            },
            {
                "start_time": 20.561363636363634,
                "end_time": 20.763636363636362,
                "pitch": 29,
                "velocity": 80,
                "duration": 0.20227272727272805,
                "tempo": 120.0
            },
            {
                "start_time": 20.763636363636362,
                "end_time": 20.96363636363636,
                "pitch": 29,
                "velocity": 80,
                "duration": 0.1999999999999993,
                "tempo": 120.0
            },
            {
                "start_time": 20.96363636363636,
                "end_time": 21.163636363636364,
                "pitch": 28,
                "velocity": 80,
                "duration": 0.20000000000000284,
                "tempo": 120.0
            },
            {
                "start_time": 21.163636363636364,
                "end_time": 21.363636363636363,
                "pitch": 28,
                "velocity": 80,
                "duration": 0.1999999999999993,
                "tempo": 120.0
            },
            {
                "start_time": 21.363636363636363,
                "end_time": 21.563636363636363,
                "pitch": 28,
                "velocity": 80,
                "duration": 0.1999999999999993,
                "tempo": 120.0
            },
            {
                "start_time": 21.563636363636363,
                "end_time": 21.76590909090909,
                "pitch": 28,
                "velocity": 80,
                "duration": 0.20227272727272805,
                "tempo": 120.0
            },
            {
                "start_time": 21.76590909090909,
                "end_time": 21.96590909090909,
                "pitch": 28,
                "velocity": 80,
                "duration": 0.1999999999999993,
                "tempo": 120.0
            },
            {
                "start_time": 21.96818181818182,
                "end_time": 22.168181818181818,
                "pitch": 28,
                "velocity": 80,
                "duration": 0.1999999999999993,
                "tempo": 120.0
            },
            {
                "start_time": 22.168181818181818,
                "end_time": 22.368181818181817,
                "pitch": 28,
                "velocity": 80,
                "duration": 0.1999999999999993,
                "tempo": 120.0
            },
            {
                "start_time": 22.368181818181817,
                "end_time": 22.570454545454545,
                "pitch": 28,
                "velocity": 80,
                "duration": 0.20227272727272805,
                "tempo": 120.0
            },
            {
                "start_time": 22.570454545454545,
                "end_time": 22.770454545454545,
                "pitch": 29,
                "velocity": 80,
                "duration": 0.1999999999999993,
                "tempo": 120.0
            },
            {
                "start_time": 22.770454545454545,
                "end_time": 22.970454545454544,
                "pitch": 29,
                "velocity": 80,
                "duration": 0.1999999999999993,
                "tempo": 120.0
            },
            {
                "start_time": 22.972727272727273,
                "end_time": 23.170454545454543,
                "pitch": 29,
                "velocity": 80,
                "duration": 0.19772727272727053,
                "tempo": 120.0
            },
            {
                "start_time": 23.170454545454543,
                "end_time": 23.37272727272727,
                "pitch": 29,
                "velocity": 80,
                "duration": 0.20227272727272805,
                "tempo": 120.0
            },
            {
                "start_time": 23.37272727272727,
                "end_time": 23.57272727272727,
                "pitch": 31,
                "velocity": 80,
                "duration": 0.1999999999999993,
                "tempo": 120.0
            },
            {
                "start_time": 23.57272727272727,
                "end_time": 23.77272727272727,
                "pitch": 31,
                "velocity": 80,
                "duration": 0.1999999999999993,
                "tempo": 120.0
            },
            {
                "start_time": 23.775,
                "end_time": 23.974999999999998,
                "pitch": 31,
                "velocity": 80,
                "duration": 0.1999999999999993,
                "tempo": 120.0
            },
            {
                "start_time": 23.974999999999998,
                "end_time": 24.174999999999997,
                "pitch": 31,
                "velocity": 80,
                "duration": 0.1999999999999993,
                "tempo": 120.0
            },
            {
                "start_time": 24.177272727272726,
                "end_time": 24.375,
                "pitch": 33,
                "velocity": 80,
                "duration": 0.19772727272727408,
                "tempo": 120.0
            },
            {
                "start_time": 24.377272727272725,
                "end_time": 24.577272727272724,
                "pitch": 33,
                "velocity": 80,
                "duration": 0.1999999999999993,
                "tempo": 120.0
            },
            {
                "start_time": 24.577272727272724,
                "end_time": 24.777272727272727,
                "pitch": 33,
                "velocity": 80,
                "duration": 0.20000000000000284,
                "tempo": 120.0
            },
            {
                "start_time": 24.779545454545453,
                "end_time": 24.979545454545452,
                "pitch": 33,
                "velocity": 80,
                "duration": 0.1999999999999993,
                "tempo": 120.0
            },
            {
                "start_time": 24.979545454545452,
                "end_time": 25.179545454545455,
                "pitch": 33,
                "velocity": 80,
                "duration": 0.20000000000000284,
                "tempo": 120.0
            },
            {
                "start_time": 25.179545454545455,
                "end_time": 25.384090909090908,
                "pitch": 33,
                "velocity": 80,
                "duration": 0.20454545454545325,
                "tempo": 120.0
            },
            {
                "start_time": 25.384090909090908,
                "end_time": 25.59090909090909,
                "pitch": 33,
                "velocity": 80,
                "duration": 0.206818181818182,
                "tempo": 120.0
            },
            {
                "start_time": 25.59090909090909,
                "end_time": 25.786363636363635,
                "pitch": 33,
                "velocity": 80,
                "duration": 0.19545454545454533,
                "tempo": 120.0
            },
            {
                "start_time": 25.788636363636364,
                "end_time": 25.98181818181818,
                "pitch": 36,
                "velocity": 80,
                "duration": 0.19318181818181657,
                "tempo": 120.0
            },
            {
                "start_time": 25.98409090909091,
                "end_time": 26.18409090909091,
                "pitch": 36,
                "velocity": 80,
                "duration": 0.1999999999999993,
                "tempo": 120.0
            },
            {
                "start_time": 26.18409090909091,
                "end_time": 26.384090909090908,
                "pitch": 36,
                "velocity": 80,
                "duration": 0.1999999999999993,
                "tempo": 120.0
            },
            {
                "start_time": 26.384090909090908,
                "end_time": 26.58863636363636,
                "pitch": 36,
                "velocity": 80,
                "duration": 0.20454545454545325,
                "tempo": 120.0
            },
            {
                "start_time": 26.59090909090909,
                "end_time": 26.795454545454543,
                "pitch": 36,
                "velocity": 80,
                "duration": 0.20454545454545325,
                "tempo": 120.0
            },
            {
                "start_time": 26.795454545454543,
                "end_time": 26.99772727272727,
                "pitch": 36,
                "velocity": 80,
                "duration": 0.20227272727272805,
                "tempo": 120.0
            },
            {
                "start_time": 26.99772727272727,
                "end_time": 27.19772727272727,
                "pitch": 36,
                "velocity": 80,
                "duration": 0.1999999999999993,
                "tempo": 120.0
            },
            {
                "start_time": 27.2,
                "end_time": 27.4,
                "pitch": 36,
                "velocity": 80,
                "duration": 0.1999999999999993,
                "tempo": 120.0
            },
            {
                "start_time": 27.4,
                "end_time": 27.597727272727273,
                "pitch": 29,
                "velocity": 80,
                "duration": 0.19772727272727408,
                "tempo": 120.0
            },
            {
                "start_time": 27.599999999999998,
                "end_time": 27.799999999999997,
                "pitch": 29,
                "velocity": 80,
                "duration": 0.1999999999999993,
                "tempo": 120.0
            },
            {
                "start_time": 27.799999999999997,
                "end_time": 28.0,
                "pitch": 29,
                "velocity": 80,
                "duration": 0.20000000000000284,
                "tempo": 120.0
            },
            {
                "start_time": 28.0,
                "end_time": 28.2,
                "pitch": 29,
                "velocity": 80,
                "duration": 0.1999999999999993,
                "tempo": 120.0
            },
            {
                "start_time": 28.202272727272724,
                "end_time": 28.402272727272727,
                "pitch": 29,
                "velocity": 80,
                "duration": 0.20000000000000284,
                "tempo": 120.0
            },
            {
                "start_time": 28.404545454545453,
                "end_time": 28.602272727272727,
                "pitch": 29,
                "velocity": 80,
                "duration": 0.19772727272727408,
                "tempo": 120.0
            },
            {
                "start_time": 28.604545454545452,
                "end_time": 28.802272727272726,
                "pitch": 29,
                "velocity": 80,
                "duration": 0.19772727272727408,
                "tempo": 120.0
            },
            {
                "start_time": 28.804545454545455,
                "end_time": 29.206818181818182,
                "pitch": 31,
                "velocity": 80,
                "duration": 0.40227272727272734,
                "tempo": 120.0
            },
            {
                "start_time": 29.206818181818182,
                "end_time": 29.40681818181818,
                "pitch": 31,
                "velocity": 80,
                "duration": 0.1999999999999993,
                "tempo": 120.0
            },
            {
                "start_time": 29.40681818181818,
                "end_time": 29.60681818181818,
                "pitch": 31,
                "velocity": 80,
                "duration": 0.1999999999999993,
                "tempo": 120.0
            },
            {
                "start_time": 29.60681818181818,
                "end_time": 29.80681818181818,
                "pitch": 31,
                "velocity": 80,
                "duration": 0.1999999999999993,
                "tempo": 120.0
            },
            {
                "start_time": 29.80909090909091,
                "end_time": 30.00681818181818,
                "pitch": 32,
                "velocity": 80,
                "duration": 0.19772727272727053,
                "tempo": 120.0
            },
            {
                "start_time": 30.009090909090908,
                "end_time": 30.209090909090907,
                "pitch": 32,
                "velocity": 80,
                "duration": 0.1999999999999993,
                "tempo": 120.0
            },
            {
                "start_time": 30.209090909090907,
                "end_time": 30.411363636363635,
                "pitch": 32,
                "velocity": 80,
                "duration": 0.20227272727272805,
                "tempo": 120.0
            },
            {
                "start_time": 30.411363636363635,
                "end_time": 30.811363636363634,
                "pitch": 33,
                "velocity": 80,
                "duration": 0.3999999999999986,
                "tempo": 120.0
            },
            {
                "start_time": 30.811363636363634,
                "end_time": 31.013636363636362,
                "pitch": 33,
                "velocity": 80,
                "duration": 0.20227272727272805,
                "tempo": 120.0
            },
            {
                "start_time": 31.013636363636362,
                "end_time": 31.21363636363636,
                "pitch": 33,
                "velocity": 80,
                "duration": 0.1999999999999993,
                "tempo": 120.0
            },
            {
                "start_time": 31.21590909090909,
                "end_time": 31.613636363636363,
                "pitch": 31,
                "velocity": 80,
                "duration": 0.3977272727272734,
                "tempo": 120.0
            },
            {
                "start_time": 31.61590909090909,
                "end_time": 31.815909090909088,
                "pitch": 31,
                "velocity": 80,
                "duration": 0.1999999999999993,
                "tempo": 120.0
            },
            {
                "start_time": 31.815909090909088,
                "end_time": 32.01590909090909,
                "pitch": 31,
                "velocity": 80,
                "duration": 0.20000000000000284,
                "tempo": 120.0
            },
            {
                "start_time": 32.01590909090909,
                "end_time": 32.21818181818182,
                "pitch": 31,
                "velocity": 80,
                "duration": 0.20227272727272805,
                "tempo": 120.0
            },
            {
                "start_time": 32.21818181818182,
                "end_time": 32.418181818181814,
                "pitch": 29,
                "velocity": 80,
                "duration": 0.19999999999999574,
                "tempo": 120.0
            },
            {
                "start_time": 32.418181818181814,
                "end_time": 32.62045454545454,
                "pitch": 29,
                "velocity": 80,
                "duration": 0.20227272727272805,
                "tempo": 120.0
            },
            {
                "start_time": 32.62045454545454,
                "end_time": 32.820454545454545,
                "pitch": 29,
                "velocity": 80,
                "duration": 0.20000000000000284,
                "tempo": 120.0
            },
            {
                "start_time": 32.82272727272727,
                "end_time": 33.02272727272727,
                "pitch": 29,
                "velocity": 80,
                "duration": 0.20000000000000284,
                "tempo": 120.0
            },
            {
                "start_time": 33.02272727272727,
                "end_time": 33.22272727272727,
                "pitch": 29,
                "velocity": 80,
                "duration": 0.19999999999999574,
                "tempo": 120.0
            },
            {
                "start_time": 33.22272727272727,
                "end_time": 33.42272727272727,
                "pitch": 29,
                "velocity": 80,
                "duration": 0.20000000000000284,
                "tempo": 120.0
            },
            {
                "start_time": 33.42272727272727,
                "end_time": 33.62272727272727,
                "pitch": 29,
                "velocity": 80,
                "duration": 0.19999999999999574,
                "tempo": 120.0
            },
            {
                "start_time": 33.62272727272727,
                "end_time": 34.02272727272727,
                "pitch": 28,
                "velocity": 80,
                "duration": 0.4000000000000057,
                "tempo": 120.0
            },
            {
                "start_time": 34.02272727272727,
                "end_time": 34.22954545454545,
                "pitch": 28,
                "velocity": 80,
                "duration": 0.20681818181817846,
                "tempo": 120.0
            },
            {
                "start_time": 34.22954545454545,
                "end_time": 34.434090909090905,
                "pitch": 28,
                "velocity": 80,
                "duration": 0.20454545454545325,
                "tempo": 120.0
            },
            {
                "start_time": 34.434090909090905,
                "end_time": 34.63636363636363,
                "pitch": 28,
                "velocity": 80,
                "duration": 0.20227272727272805,
                "tempo": 120.0
            },
            {
                "start_time": 34.63636363636363,
                "end_time": 34.83409090909091,
                "pitch": 28,
                "velocity": 80,
                "duration": 0.19772727272727764,
                "tempo": 120.0
            },
            {
                "start_time": 34.836363636363636,
                "end_time": 35.03636363636363,
                "pitch": 28,
                "velocity": 80,
                "duration": 0.19999999999999574,
                "tempo": 120.0
            },
            {
                "start_time": 35.03636363636363,
                "end_time": 35.23409090909091,
                "pitch": 28,
                "velocity": 80,
                "duration": 0.19772727272727764,
                "tempo": 120.0
            },
            {
                "start_time": 35.236363636363635,
                "end_time": 35.43636363636364,
                "pitch": 28,
                "velocity": 80,
                "duration": 0.20000000000000284,
                "tempo": 120.0
            },
            {
                "start_time": 35.43636363636364,
                "end_time": 35.63636363636363,
                "pitch": 26,
                "velocity": 80,
                "duration": 0.19999999999999574,
                "tempo": 120.0
            },
            {
                "start_time": 35.63636363636363,
                "end_time": 35.836363636363636,
                "pitch": 26,
                "velocity": 80,
                "duration": 0.20000000000000284,
                "tempo": 120.0
            },
            {
                "start_time": 35.836363636363636,
                "end_time": 36.03636363636363,
                "pitch": 26,
                "velocity": 80,
                "duration": 0.19999999999999574,
                "tempo": 120.0
            },
            {
                "start_time": 36.03636363636363,
                "end_time": 36.23863636363636,
                "pitch": 26,
                "velocity": 80,
                "duration": 0.20227272727272805,
                "tempo": 120.0
            },
            {
                "start_time": 36.23863636363636,
                "end_time": 36.43863636363636,
                "pitch": 26,
                "velocity": 80,
                "duration": 0.20000000000000284,
                "tempo": 120.0
            },
            {
                "start_time": 36.44090909090909,
                "end_time": 36.64090909090909,
                "pitch": 26,
                "velocity": 80,
                "duration": 0.20000000000000284,
                "tempo": 120.0
            },
            {
                "start_time": 36.64090909090909,
                "end_time": 36.840909090909086,
                "pitch": 26,
                "velocity": 80,
                "duration": 0.19999999999999574,
                "tempo": 120.0
            },
            {
                "start_time": 36.840909090909086,
                "end_time": 37.24090909090909,
                "pitch": 28,
                "velocity": 80,
                "duration": 0.4000000000000057,
                "tempo": 120.0
            },
            {
                "start_time": 37.24090909090909,
                "end_time": 37.44090909090909,
                "pitch": 40,
                "velocity": 80,
                "duration": 0.19999999999999574,
                "tempo": 120.0
            },
            {
                "start_time": 37.44318181818181,
                "end_time": 37.64090909090909,
                "pitch": 38,
                "velocity": 80,
                "duration": 0.19772727272727764,
                "tempo": 120.0
            },
            {
                "start_time": 37.643181818181816,
                "end_time": 37.840909090909086,
                "pitch": 36,
                "velocity": 80,
                "duration": 0.19772727272727053,
                "tempo": 120.0
            },
            {
                "start_time": 37.84318181818182,
                "end_time": 38.04090909090909,
                "pitch": 35,
                "velocity": 80,
                "duration": 0.19772727272727053,
                "tempo": 120.0
            },
            {
                "start_time": 38.043181818181814,
                "end_time": 38.24318181818182,
                "pitch": 33,
                "velocity": 80,
                "duration": 0.20000000000000284,
                "tempo": 120.0
            },
            {
                "start_time": 38.24545454545454,
                "end_time": 38.445454545454545,
                "pitch": 31,
                "velocity": 80,
                "duration": 0.20000000000000284,
                "tempo": 120.0
            },
            {
                "start_time": 38.445454545454545,
                "end_time": 38.643181818181816,
                "pitch": 29,
                "velocity": 80,
                "duration": 0.19772727272727053,
                "tempo": 120.0
            }
        ],
        "Harpsichord": [
            {
                "start_time": 0.03409090909090909,
                "end_time": 0.2318181818181818,
                "pitch": 52,
                "velocity": 40,
                "duration": 0.19772727272727272,
                "tempo": 120.0
            },
            {
                "start_time": 0.23409090909090907,
                "end_time": 0.3318181818181818,
                "pitch": 52,
                "velocity": 40,
                "duration": 0.09772727272727272,
                "tempo": 120.0
            },
            {
                "start_time": 0.33409090909090905,
                "end_time": 0.4318181818181818,
                "pitch": 52,
                "velocity": 40,
                "duration": 0.09772727272727277,
                "tempo": 120.0
            },
            {
                "start_time": 0.4340909090909091,
                "end_time": 0.6318181818181818,
                "pitch": 52,
                "velocity": 40,
                "duration": 0.19772727272727275,
                "tempo": 120.0
            },
            {
                "start_time": 0.634090909090909,
                "end_time": 0.7318181818181818,
                "pitch": 52,
                "velocity": 40,
                "duration": 0.09772727272727277,
                "tempo": 120.0
            },
            {
                "start_time": 0.734090909090909,
                "end_time": 0.8340909090909091,
                "pitch": 52,
                "velocity": 40,
                "duration": 0.10000000000000009,
                "tempo": 120.0
            },
            {
                "start_time": 0.8340909090909091,
                "end_time": 1.034090909090909,
                "pitch": 52,
                "velocity": 40,
                "duration": 0.19999999999999984,
                "tempo": 120.0
            },
            {
                "start_time": 1.034090909090909,
                "end_time": 1.134090909090909,
                "pitch": 52,
                "velocity": 40,
                "duration": 0.10000000000000009,
                "tempo": 120.0
            },
            {
                "start_time": 1.134090909090909,
                "end_time": 1.2340909090909091,
                "pitch": 52,
                "velocity": 40,
                "duration": 0.10000000000000009,
                "tempo": 120.0
            },
            {
                "start_time": 1.2340909090909091,
                "end_time": 1.434090909090909,
                "pitch": 52,
                "velocity": 40,
                "duration": 0.19999999999999996,
                "tempo": 120.0
            },
            {
                "start_time": 1.434090909090909,
                "end_time": 1.534090909090909,
                "pitch": 52,
                "velocity": 40,
                "duration": 0.09999999999999987,
                "tempo": 120.0
            },
            {
                "start_time": 1.5363636363636364,
                "end_time": 1.634090909090909,
                "pitch": 52,
                "velocity": 40,
                "duration": 0.09772727272727266,
                "tempo": 120.0
            },
            {
                "start_time": 1.6363636363636362,
                "end_time": 1.834090909090909,
                "pitch": 48,
                "velocity": 40,
                "duration": 0.19772727272727275,
                "tempo": 120.0
            },
            {
                "start_time": 1.8363636363636362,
                "end_time": 1.9363636363636363,
                "pitch": 48,
                "velocity": 40,
                "duration": 0.10000000000000009,
                "tempo": 120.0
            },
            {
                "start_time": 1.9363636363636363,
                "end_time": 2.036363636363636,
                "pitch": 48,
                "velocity": 40,
                "duration": 0.09999999999999987,
                "tempo": 120.0
            },
            {
                "start_time": 2.036363636363636,
                "end_time": 2.2386363636363633,
                "pitch": 48,
                "velocity": 40,
                "duration": 0.20227272727272716,
                "tempo": 120.0
            },
            {
                "start_time": 2.2386363636363633,
                "end_time": 2.340909090909091,
                "pitch": 48,
                "velocity": 40,
                "duration": 0.10227272727272751,
                "tempo": 120.0
            },
            {
                "start_time": 2.340909090909091,
                "end_time": 2.443181818181818,
                "pitch": 48,
                "velocity": 40,
                "duration": 0.10227272727272707,
                "tempo": 120.0
            },
            {
                "start_time": 2.4454545454545453,
                "end_time": 2.65,
                "pitch": 48,
                "velocity": 40,
                "duration": 0.20454545454545459,
                "tempo": 120.0
            },
            {
                "start_time": 2.65,
                "end_time": 2.75,
                "pitch": 48,
                "velocity": 40,
                "duration": 0.10000000000000009,
                "tempo": 120.0
            },
            {
                "start_time": 2.75,
                "end_time": 2.8499999999999996,
                "pitch": 48,
                "velocity": 40,
                "duration": 0.09999999999999964,
                "tempo": 120.0
            },
            {
                "start_time": 2.8499999999999996,
                "end_time": 3.05,
                "pitch": 48,
                "velocity": 40,
                "duration": 0.20000000000000018,
                "tempo": 120.0
            },
            {
                "start_time": 3.05,
                "end_time": 3.15,
                "pitch": 48,
                "velocity": 40,
                "duration": 0.10000000000000009,
                "tempo": 120.0
            },
            {
                "start_time": 3.15,
                "end_time": 3.25,
                "pitch": 48,
                "velocity": 40,
                "duration": 0.10000000000000009,
                "tempo": 120.0
            },
            {
                "start_time": 3.252272727272727,
                "end_time": 3.4499999999999997,
                "pitch": 47,
                "velocity": 40,
                "duration": 0.19772727272727275,
                "tempo": 120.0
            },
            {
                "start_time": 3.4499999999999997,
                "end_time": 3.55,
                "pitch": 47,
                "velocity": 40,
                "duration": 0.10000000000000009,
                "tempo": 120.0
            },
            {
                "start_time": 3.55,
                "end_time": 3.65,
                "pitch": 47,
                "velocity": 40,
                "duration": 0.10000000000000009,
                "tempo": 120.0
            },
            {
                "start_time": 3.652272727272727,
                "end_time": 3.8499999999999996,
                "pitch": 47,
                "velocity": 40,
                "duration": 0.19772727272727275,
                "tempo": 120.0
            },
            {
                "start_time": 3.852272727272727,
                "end_time": 3.9499999999999997,
                "pitch": 47,
                "velocity": 40,
                "duration": 0.09772727272727266,
                "tempo": 120.0
            },
            {
                "start_time": 3.952272727272727,
                "end_time": 4.052272727272727,
                "pitch": 47,
                "velocity": 40,
                "duration": 0.09999999999999964,
                "tempo": 120.0
            },
            {
                "start_time": 4.052272727272727,
                "end_time": 4.25,
                "pitch": 47,
                "velocity": 40,
                "duration": 0.1977272727272732,
                "tempo": 120.0
            },
            {
                "start_time": 4.252272727272727,
                "end_time": 4.352272727272727,
                "pitch": 47,
                "velocity": 40,
                "duration": 0.09999999999999964,
                "tempo": 120.0
            },
            {
                "start_time": 4.352272727272727,
                "end_time": 4.454545454545454,
                "pitch": 47,
                "velocity": 40,
                "duration": 0.10227272727272751,
                "tempo": 120.0
            },
            {
                "start_time": 4.454545454545454,
                "end_time": 4.654545454545454,
                "pitch": 47,
                "velocity": 40,
                "duration": 0.20000000000000018,
                "tempo": 120.0
            },
            {
                "start_time": 4.654545454545454,
                "end_time": 4.754545454545454,
                "pitch": 47,
                "velocity": 40,
                "duration": 0.09999999999999964,
                "tempo": 120.0
            },
            {
                "start_time": 4.754545454545454,
                "end_time": 4.8568181818181815,
                "pitch": 47,
                "velocity": 40,
                "duration": 0.10227272727272751,
                "tempo": 120.0
            },
            {
                "start_time": 4.8568181818181815,
                "end_time": 5.054545454545455,
                "pitch": 45,
                "velocity": 40,
                "duration": 0.1977272727272732,
                "tempo": 120.0
            },
            {
                "start_time": 5.054545454545455,
                "end_time": 5.154545454545454,
                "pitch": 45,
                "velocity": 40,
                "duration": 0.09999999999999964,
                "tempo": 120.0
            },
            {
                "start_time": 5.156818181818181,
                "end_time": 5.256818181818182,
                "pitch": 45,
                "velocity": 40,
                "duration": 0.10000000000000053,
                "tempo": 120.0
            },
            {
                "start_time": 5.256818181818182,
                "end_time": 5.459090909090909,
                "pitch": 45,
                "velocity": 40,
                "duration": 0.20227272727272716,
                "tempo": 120.0
            },
            {
                "start_time": 5.459090909090909,
                "end_time": 5.559090909090909,
                "pitch": 45,
                "velocity": 40,
                "duration": 0.09999999999999964,
                "tempo": 120.0
            },
            {
                "start_time": 5.559090909090909,
                "end_time": 5.661363636363636,
                "pitch": 45,
                "velocity": 40,
                "duration": 0.10227272727272751,
                "tempo": 120.0
            },
            {
                "start_time": 5.661363636363636,
                "end_time": 5.861363636363636,
                "pitch": 52,
                "velocity": 40,
                "duration": 0.20000000000000018,
                "tempo": 120.0
            },
            {
                "start_time": 5.863636363636363,
                "end_time": 5.961363636363636,
                "pitch": 52,
                "velocity": 40,
                "duration": 0.09772727272727266,
                "tempo": 120.0
            },
            {
                "start_time": 5.963636363636363,
                "end_time": 6.0613636363636365,
                "pitch": 52,
                "velocity": 40,
                "duration": 0.09772727272727355,
                "tempo": 120.0
            },
            {
                "start_time": 6.0636363636363635,
                "end_time": 6.261363636363636,
                "pitch": 50,
                "velocity": 40,
                "duration": 0.1977272727272723,
                "tempo": 120.0
            },
            {
                "start_time": 6.263636363636364,
                "end_time": 6.363636363636363,
                "pitch": 50,
                "velocity": 40,
                "duration": 0.09999999999999964,
                "tempo": 120.0
            },
            {
                "start_time": 6.363636363636363,
                "end_time": 6.463636363636363,
                "pitch": 50,
                "velocity": 40,
                "duration": 0.09999999999999964,
                "tempo": 120.0
            },
            {
                "start_time": 6.465909090909091,
                "end_time": 6.665909090909091,
                "pitch": 48,
                "velocity": 40,
                "duration": 0.20000000000000018,
                "tempo": 120.0
            },
            {
                "start_time": 6.665909090909091,
                "end_time": 6.765909090909091,
                "pitch": 48,
                "velocity": 40,
                "duration": 0.09999999999999964,
                "tempo": 120.0
            },
            {
                "start_time": 6.765909090909091,
                "end_time": 6.86590909090909,
                "pitch": 48,
                "velocity": 40,
                "duration": 0.09999999999999964,
                "tempo": 120.0
            },
            {
                "start_time": 6.86590909090909,
                "end_time": 7.0659090909090905,
                "pitch": 48,
                "velocity": 40,
                "duration": 0.20000000000000018,
                "tempo": 120.0
            },
            {
                "start_time": 7.0659090909090905,
                "end_time": 7.16590909090909,
                "pitch": 48,
                "velocity": 40,
                "duration": 0.09999999999999964,
                "tempo": 120.0
            },
            {
                "start_time": 7.168181818181818,
                "end_time": 7.268181818181818,
                "pitch": 48,
                "velocity": 40,
                "duration": 0.09999999999999964,
                "tempo": 120.0
            },
            {
                "start_time": 7.268181818181818,
                "end_time": 7.468181818181818,
                "pitch": 48,
                "velocity": 40,
                "duration": 0.20000000000000018,
                "tempo": 120.0
            },
            {
                "start_time": 7.470454545454545,
                "end_time": 7.570454545454545,
                "pitch": 48,
                "velocity": 40,
                "duration": 0.10000000000000053,
                "tempo": 120.0
            },
            {
                "start_time": 7.570454545454545,
                "end_time": 7.670454545454545,
                "pitch": 48,
                "velocity": 40,
                "duration": 0.09999999999999964,
                "tempo": 120.0
            },
            {
                "start_time": 7.672727272727272,
                "end_time": 7.872727272727272,
                "pitch": 48,
                "velocity": 40,
                "duration": 0.20000000000000018,
                "tempo": 120.0
            },
            {
                "start_time": 7.872727272727272,
                "end_time": 7.972727272727273,
                "pitch": 48,
                "velocity": 40,
                "duration": 0.10000000000000053,
                "tempo": 120.0
            },
            {
                "start_time": 7.972727272727273,
                "end_time": 8.072727272727272,
                "pitch": 48,
                "velocity": 40,
                "duration": 0.09999999999999964,
                "tempo": 120.0
            },
            {
                "start_time": 8.075,
                "end_time": 8.272727272727272,
                "pitch": 47,
                "velocity": 40,
                "duration": 0.1977272727272723,
                "tempo": 120.0
            },
            {
                "start_time": 8.272727272727272,
                "end_time": 8.372727272727273,
                "pitch": 47,
                "velocity": 40,
                "duration": 0.10000000000000142,
                "tempo": 120.0
            },
            {
                "start_time": 8.375,
                "end_time": 8.475,
                "pitch": 47,
                "velocity": 40,
                "duration": 0.09999999999999964,
                "tempo": 120.0
            },
            {
                "start_time": 8.475,
                "end_time": 8.674999999999999,
                "pitch": 47,
                "velocity": 40,
                "duration": 0.1999999999999993,
                "tempo": 120.0
            },
            {
                "start_time": 8.677272727272728,
                "end_time": 8.777272727272727,
                "pitch": 47,
                "velocity": 40,
                "duration": 0.09999999999999964,
                "tempo": 120.0
            },
            {
                "start_time": 8.777272727272727,
                "end_time": 8.877272727272727,
                "pitch": 47,
                "velocity": 40,
                "duration": 0.09999999999999964,
                "tempo": 120.0
            },
            {
                "start_time": 8.879545454545454,
                "end_time": 9.079545454545453,
                "pitch": 47,
                "velocity": 40,
                "duration": 0.1999999999999993,
                "tempo": 120.0
            },
            {
                "start_time": 9.079545454545453,
                "end_time": 9.179545454545455,
                "pitch": 47,
                "velocity": 40,
                "duration": 0.10000000000000142,
                "tempo": 120.0
            },
            {
                "start_time": 9.179545454545455,
                "end_time": 9.279545454545454,
                "pitch": 47,
                "velocity": 40,
                "duration": 0.09999999999999964,
                "tempo": 120.0
            },
            {
                "start_time": 9.279545454545454,
                "end_time": 9.479545454545454,
                "pitch": 47,
                "velocity": 40,
                "duration": 0.1999999999999993,
                "tempo": 120.0
            },
            {
                "start_time": 9.479545454545454,
                "end_time": 9.579545454545453,
                "pitch": 47,
                "velocity": 40,
                "duration": 0.09999999999999964,
                "tempo": 120.0
            },
            {
                "start_time": 9.581818181818182,
                "end_time": 9.681818181818182,
                "pitch": 47,
                "velocity": 40,
                "duration": 0.09999999999999964,
                "tempo": 120.0
            },
            {
                "start_time": 9.684090909090909,
                "end_time": 9.881818181818181,
                "pitch": 48,
                "velocity": 40,
                "duration": 0.1977272727272723,
                "tempo": 120.0
            },
            {
                "start_time": 9.884090909090908,
                "end_time": 9.986363636363636,
                "pitch": 48,
                "velocity": 40,
                "duration": 0.1022727272727284,
                "tempo": 120.0
            },
            {
                "start_time": 9.986363636363636,
                "end_time": 10.088636363636363,
                "pitch": 48,
                "velocity": 40,
                "duration": 0.10227272727272663,
                "tempo": 120.0
            },
            {
                "start_time": 10.088636363636363,
                "end_time": 10.293181818181818,
                "pitch": 48,
                "velocity": 40,
                "duration": 0.20454545454545503,
                "tempo": 120.0
            },
            {
                "start_time": 10.295454545454545,
                "end_time": 10.39090909090909,
                "pitch": 48,
                "velocity": 40,
                "duration": 0.09545454545454568,
                "tempo": 120.0
            },
            {
                "start_time": 10.393181818181818,
                "end_time": 10.49090909090909,
                "pitch": 48,
                "velocity": 40,
                "duration": 0.09772727272727266,
                "tempo": 120.0
            },
            {
                "start_time": 10.49090909090909,
                "end_time": 10.686363636363636,
                "pitch": 48,
                "velocity": 40,
                "duration": 0.19545454545454533,
                "tempo": 120.0
            },
            {
                "start_time": 10.688636363636363,
                "end_time": 10.788636363636362,
                "pitch": 48,
                "velocity": 40,
                "duration": 0.09999999999999964,
                "tempo": 120.0
            },
            {
                "start_time": 10.790909090909091,
                "end_time": 10.893181818181818,
                "pitch": 48,
                "velocity": 40,
                "duration": 0.10227272727272663,
                "tempo": 120.0
            },
            {
                "start_time": 10.893181818181818,
                "end_time": 11.097727272727273,
                "pitch": 48,
                "velocity": 40,
                "duration": 0.20454545454545503,
                "tempo": 120.0
            },
            {
                "start_time": 11.1,
                "end_time": 11.197727272727272,
                "pitch": 48,
                "velocity": 40,
                "duration": 0.09772727272727266,
                "tempo": 120.0
            },
            {
                "start_time": 11.2,
                "end_time": 11.299999999999999,
                "pitch": 48,
                "velocity": 40,
                "duration": 0.09999999999999964,
                "tempo": 120.0
            },
            {
                "start_time": 11.302272727272726,
                "end_time": 11.5,
                "pitch": 50,
                "velocity": 40,
                "duration": 0.19772727272727408,
                "tempo": 120.0
            },
            {
                "start_time": 11.502272727272727,
                "end_time": 11.6,
                "pitch": 50,
                "velocity": 40,
                "duration": 0.09772727272727266,
                "tempo": 120.0
            },
            {
                "start_time": 11.602272727272727,
                "end_time": 11.702272727272726,
                "pitch": 50,
                "velocity": 40,
                "duration": 0.09999999999999964,
                "tempo": 120.0
            },
            {
                "start_time": 11.702272727272726,
                "end_time": 11.902272727272727,
                "pitch": 50,
                "velocity": 40,
                "duration": 0.20000000000000107,
                "tempo": 120.0
            },
            {
                "start_time": 11.902272727272727,
                "end_time": 12.002272727272727,
                "pitch": 50,
                "velocity": 40,
                "duration": 0.09999999999999964,
                "tempo": 120.0
            },
            {
                "start_time": 12.002272727272727,
                "end_time": 12.104545454545454,
                "pitch": 50,
                "velocity": 40,
                "duration": 0.10227272727272663,
                "tempo": 120.0
            },
            {
                "start_time": 12.104545454545454,
                "end_time": 12.304545454545455,
                "pitch": 47,
                "velocity": 40,
                "duration": 0.20000000000000107,
                "tempo": 120.0
            },
            {
                "start_time": 12.306818181818182,
                "end_time": 12.406818181818181,
                "pitch": 47,
                "velocity": 40,
                "duration": 0.09999999999999964,
                "tempo": 120.0
            },
            {
                "start_time": 12.406818181818181,
                "end_time": 12.506818181818181,
                "pitch": 47,
                "velocity": 40,
                "duration": 0.09999999999999964,
                "tempo": 120.0
            },
            {
                "start_time": 12.506818181818181,
                "end_time": 12.709090909090909,
                "pitch": 47,
                "velocity": 40,
                "duration": 0.20227272727272805,
                "tempo": 120.0
            },
            {
                "start_time": 12.709090909090909,
                "end_time": 12.809090909090909,
                "pitch": 47,
                "velocity": 40,
                "duration": 0.09999999999999964,
                "tempo": 120.0
            },
            {
                "start_time": 12.809090909090909,
                "end_time": 12.911363636363635,
                "pitch": 47,
                "velocity": 40,
                "duration": 0.10227272727272663,
                "tempo": 120.0
            },
            {
                "start_time": 12.911363636363635,
                "end_time": 13.111363636363636,
                "pitch": 52,
                "velocity": 40,
                "duration": 0.20000000000000107,
                "tempo": 120.0
            },
            {
                "start_time": 13.111363636363636,
                "end_time": 13.211363636363636,
                "pitch": 52,
                "velocity": 40,
                "duration": 0.09999999999999964,
                "tempo": 120.0
            },
            {
                "start_time": 13.213636363636363,
                "end_time": 13.313636363636363,
                "pitch": 52,
                "velocity": 40,
                "duration": 0.09999999999999964,
                "tempo": 120.0
            },
            {
                "start_time": 13.313636363636363,
                "end_time": 13.513636363636364,
                "pitch": 52,
                "velocity": 40,
                "duration": 0.20000000000000107,
                "tempo": 120.0
            },
            {
                "start_time": 13.51590909090909,
                "end_time": 13.613636363636363,
                "pitch": 52,
                "velocity": 40,
                "duration": 0.09772727272727266,
                "tempo": 120.0
            },
            {
                "start_time": 13.61590909090909,
                "end_time": 13.71590909090909,
                "pitch": 52,
                "velocity": 40,
                "duration": 0.09999999999999964,
                "tempo": 120.0
            },
            {
                "start_time": 13.71590909090909,
                "end_time": 13.913636363636362,
                "pitch": 52,
                "velocity": 40,
                "duration": 0.1977272727272723,
                "tempo": 120.0
            },
            {
                "start_time": 13.915909090909091,
                "end_time": 14.01590909090909,
                "pitch": 52,
                "velocity": 40,
                "duration": 0.09999999999999964,
                "tempo": 120.0
            },
            {
                "start_time": 14.01590909090909,
                "end_time": 14.118181818181817,
                "pitch": 52,
                "velocity": 40,
                "duration": 0.10227272727272663,
                "tempo": 120.0
            },
            {
                "start_time": 14.118181818181817,
                "end_time": 14.318181818181818,
                "pitch": 52,
                "velocity": 40,
                "duration": 0.20000000000000107,
                "tempo": 120.0
            },
            {
                "start_time": 14.318181818181818,
                "end_time": 14.418181818181818,
                "pitch": 52,
                "velocity": 40,
                "duration": 0.09999999999999964,
                "tempo": 120.0
            },
            {
                "start_time": 14.420454545454545,
                "end_time": 14.520454545454545,
                "pitch": 52,
                "velocity": 40,
                "duration": 0.09999999999999964,
                "tempo": 120.0
            },
            {
                "start_time": 14.520454545454545,
                "end_time": 14.722727272727273,
                "pitch": 48,
                "velocity": 40,
                "duration": 0.20227272727272805,
                "tempo": 120.0
            },
            {
                "start_time": 14.722727272727273,
                "end_time": 14.822727272727272,
                "pitch": 48,
                "velocity": 40,
                "duration": 0.09999999999999964,
                "tempo": 120.0
            },
            {
                "start_time": 14.822727272727272,
                "end_time": 14.922727272727272,
                "pitch": 48,
                "velocity": 40,
                "duration": 0.09999999999999964,
                "tempo": 120.0
            },
            {
                "start_time": 14.924999999999999,
                "end_time": 15.125,
                "pitch": 48,
                "velocity": 40,
                "duration": 0.20000000000000107,
                "tempo": 120.0
            },
            {
                "start_time": 15.125,
                "end_time": 15.225,
                "pitch": 48,
                "velocity": 40,
                "duration": 0.09999999999999964,
                "tempo": 120.0
            },
            {
                "start_time": 15.225,
                "end_time": 15.327272727272726,
                "pitch": 48,
                "velocity": 40,
                "duration": 0.10227272727272663,
                "tempo": 120.0
            },
            {
                "start_time": 15.327272727272726,
                "end_time": 15.527272727272727,
                "pitch": 48,
                "velocity": 40,
                "duration": 0.20000000000000107,
                "tempo": 120.0
            },
            {
                "start_time": 15.527272727272727,
                "end_time": 15.627272727272727,
                "pitch": 48,
                "velocity": 40,
                "duration": 0.09999999999999964,
                "tempo": 120.0
            },
            {
                "start_time": 15.629545454545454,
                "end_time": 15.729545454545454,
                "pitch": 48,
                "velocity": 40,
                "duration": 0.09999999999999964,
                "tempo": 120.0
            },
            {
                "start_time": 15.729545454545454,
                "end_time": 15.929545454545453,
                "pitch": 48,
                "velocity": 40,
                "duration": 0.1999999999999993,
                "tempo": 120.0
            },
            {
                "start_time": 15.929545454545453,
                "end_time": 16.029545454545453,
                "pitch": 48,
                "velocity": 40,
                "duration": 0.09999999999999964,
                "tempo": 120.0
            },
            {
                "start_time": 16.029545454545453,
                "end_time": 16.131818181818183,
                "pitch": 48,
                "velocity": 40,
                "duration": 0.10227272727273018,
                "tempo": 120.0
            },
            {
                "start_time": 16.131818181818183,
                "end_time": 16.331818181818182,
                "pitch": 47,
                "velocity": 40,
                "duration": 0.1999999999999993,
                "tempo": 120.0
            },
            {
                "start_time": 16.331818181818182,
                "end_time": 16.43181818181818,
                "pitch": 47,
                "velocity": 40,
                "duration": 0.09999999999999787,
                "tempo": 120.0
            },
            {
                "start_time": 16.43181818181818,
                "end_time": 16.53409090909091,
                "pitch": 47,
                "velocity": 40,
                "duration": 0.10227272727273018,
                "tempo": 120.0
            },
            {
                "start_time": 16.53409090909091,
                "end_time": 16.73409090909091,
                "pitch": 47,
                "velocity": 40,
                "duration": 0.1999999999999993,
                "tempo": 120.0
            },
            {
                "start_time": 16.736363636363635,
                "end_time": 16.834090909090907,
                "pitch": 47,
                "velocity": 40,
                "duration": 0.09772727272727266,
                "tempo": 120.0
            },
            {
                "start_time": 16.836363636363636,
                "end_time": 16.936363636363634,
                "pitch": 47,
                "velocity": 40,
                "duration": 0.09999999999999787,
                "tempo": 120.0
            },
            {
                "start_time": 16.936363636363634,
                "end_time": 17.134090909090908,
                "pitch": 47,
                "velocity": 40,
                "duration": 0.19772727272727408,
                "tempo": 120.0
            },
            {
                "start_time": 17.136363636363637,
                "end_time": 17.236363636363635,
                "pitch": 47,
                "velocity": 40,
                "duration": 0.09999999999999787,
                "tempo": 120.0
            },
            {
                "start_time": 17.236363636363635,
                "end_time": 17.336363636363636,
                "pitch": 47,
                "velocity": 40,
                "duration": 0.10000000000000142,
                "tempo": 120.0
            },
            {
                "start_time": 17.33863636363636,
                "end_time": 17.538636363636364,
                "pitch": 47,
                "velocity": 40,
                "duration": 0.20000000000000284,
                "tempo": 120.0
            },
            {
                "start_time": 17.538636363636364,
                "end_time": 17.638636363636362,
                "pitch": 47,
                "velocity": 40,
                "duration": 0.09999999999999787,
                "tempo": 120.0
            },
            {
                "start_time": 17.638636363636362,
                "end_time": 17.738636363636363,
                "pitch": 47,
                "velocity": 40,
                "duration": 0.10000000000000142,
                "tempo": 120.0
            },
            {
                "start_time": 17.74090909090909,
                "end_time": 17.938636363636363,
                "pitch": 45,
                "velocity": 40,
                "duration": 0.19772727272727408,
                "tempo": 120.0
            },
            {
                "start_time": 17.938636363636363,
                "end_time": 18.038636363636364,
                "pitch": 45,
                "velocity": 40,
                "duration": 0.10000000000000142,
                "tempo": 120.0
            },
            {
                "start_time": 18.04090909090909,
                "end_time": 18.14090909090909,
                "pitch": 45,
                "velocity": 40,
                "duration": 0.10000000000000142,
                "tempo": 120.0
            },
            {
                "start_time": 18.14090909090909,
                "end_time": 18.34090909090909,
                "pitch": 45,
                "velocity": 40,
                "duration": 0.1999999999999993,
                "tempo": 120.0
            },
            {
                "start_time": 18.34318181818182,
                "end_time": 18.445454545454545,
                "pitch": 45,
                "velocity": 40,
                "duration": 0.10227272727272663,
                "tempo": 120.0
            },
            {
                "start_time": 18.445454545454545,
                "end_time": 18.547727272727272,
                "pitch": 45,
                "velocity": 40,
                "duration": 0.10227272727272663,
                "tempo": 120.0
            },
            {
                "start_time": 18.55,
                "end_time": 18.754545454545454,
                "pitch": 52,
                "velocity": 40,
                "duration": 0.20454545454545325,
                "tempo": 120.0
            },
            {
                "start_time": 18.754545454545454,
                "end_time": 18.854545454545455,
                "pitch": 52,
                "velocity": 40,
                "duration": 0.10000000000000142,
                "tempo": 120.0
            },
            {
                "start_time": 18.854545454545455,
                "end_time": 18.954545454545453,
                "pitch": 52,
                "velocity": 40,
                "duration": 0.09999999999999787,
                "tempo": 120.0
            },
            {
                "start_time": 18.954545454545453,
                "end_time": 19.154545454545453,
                "pitch": 50,
                "velocity": 40,
                "duration": 0.1999999999999993,
                "tempo": 120.0
            },
            {
                "start_time": 19.154545454545453,
                "end_time": 19.254545454545454,
                "pitch": 50,
                "velocity": 40,
                "duration": 0.10000000000000142,
                "tempo": 120.0
            },
            {
                "start_time": 19.254545454545454,
                "end_time": 19.354545454545452,
                "pitch": 50,
                "velocity": 40,
                "duration": 0.09999999999999787,
                "tempo": 120.0
            },
            {
                "start_time": 19.35681818181818,
                "end_time": 19.554545454545455,
                "pitch": 48,
                "velocity": 40,
                "duration": 0.19772727272727408,
                "tempo": 120.0
            },
            {
                "start_time": 19.554545454545455,
                "end_time": 19.654545454545453,
                "pitch": 48,
                "velocity": 40,
                "duration": 0.09999999999999787,
                "tempo": 120.0
            },
            {
                "start_time": 19.65681818181818,
                "end_time": 19.75681818181818,
                "pitch": 48,
                "velocity": 40,
                "duration": 0.09999999999999787,
                "tempo": 120.0
            },
            {
                "start_time": 19.75681818181818,
                "end_time": 19.956818181818182,
                "pitch": 48,
                "velocity": 40,
                "duration": 0.20000000000000284,
                "tempo": 120.0
            },
            {
                "start_time": 19.959090909090907,
                "end_time": 20.05681818181818,
                "pitch": 48,
                "velocity": 40,
                "duration": 0.09772727272727266,
                "tempo": 120.0
            },
            {
                "start_time": 20.05909090909091,
                "end_time": 20.159090909090907,
                "pitch": 48,
                "velocity": 40,
                "duration": 0.09999999999999787,
                "tempo": 120.0
            },
            {
                "start_time": 20.159090909090907,
                "end_time": 20.35909090909091,
                "pitch": 48,
                "velocity": 40,
                "duration": 0.20000000000000284,
                "tempo": 120.0
            },
            {
                "start_time": 20.35909090909091,
                "end_time": 20.459090909090907,
                "pitch": 48,
                "velocity": 40,
                "duration": 0.09999999999999787,
                "tempo": 120.0
            },
            {
                "start_time": 20.459090909090907,
                "end_time": 20.561363636363634,
                "pitch": 48,
                "velocity": 40,
                "duration": 0.10227272727272663,
                "tempo": 120.0
            },
            {
                "start_time": 20.561363636363634,
                "end_time": 20.761363636363637,
                "pitch": 48,
                "velocity": 40,
                "duration": 0.20000000000000284,
                "tempo": 120.0
            },
            {
                "start_time": 20.763636363636362,
                "end_time": 20.861363636363635,
                "pitch": 48,
                "velocity": 40,
                "duration": 0.09772727272727266,
                "tempo": 120.0
            },
            {
                "start_time": 20.861363636363635,
                "end_time": 20.96363636363636,
                "pitch": 48,
                "velocity": 40,
                "duration": 0.10227272727272663,
                "tempo": 120.0
            },
            {
                "start_time": 20.96363636363636,
                "end_time": 21.161363636363635,
                "pitch": 47,
                "velocity": 40,
                "duration": 0.19772727272727408,
                "tempo": 120.0
            },
            {
                "start_time": 21.163636363636364,
                "end_time": 21.261363636363637,
                "pitch": 47,
                "velocity": 40,
                "duration": 0.09772727272727266,
                "tempo": 120.0
            },
            {
                "start_time": 21.263636363636362,
                "end_time": 21.363636363636363,
                "pitch": 47,
                "velocity": 40,
                "duration": 0.10000000000000142,
                "tempo": 120.0
            },
            {
                "start_time": 21.363636363636363,
                "end_time": 21.561363636363634,
                "pitch": 47,
                "velocity": 40,
                "duration": 0.19772727272727053,
                "tempo": 120.0
            },
            {
                "start_time": 21.563636363636363,
                "end_time": 21.663636363636364,
                "pitch": 47,
                "velocity": 40,
                "duration": 0.10000000000000142,
                "tempo": 120.0
            },
            {
                "start_time": 21.663636363636364,
                "end_time": 21.76590909090909,
                "pitch": 47,
                "velocity": 40,
                "duration": 0.10227272727272663,
                "tempo": 120.0
            },
            {
                "start_time": 21.76590909090909,
                "end_time": 21.96590909090909,
                "pitch": 47,
                "velocity": 40,
                "duration": 0.1999999999999993,
                "tempo": 120.0
            },
            {
                "start_time": 21.96590909090909,
                "end_time": 22.06590909090909,
                "pitch": 47,
                "velocity": 40,
                "duration": 0.10000000000000142,
                "tempo": 120.0
            },
            {
                "start_time": 22.06590909090909,
                "end_time": 22.16590909090909,
                "pitch": 47,
                "velocity": 40,
                "duration": 0.09999999999999787,
                "tempo": 120.0
            },
            {
                "start_time": 22.168181818181818,
                "end_time": 22.36590909090909,
                "pitch": 47,
                "velocity": 40,
                "duration": 0.19772727272727053,
                "tempo": 120.0
            },
            {
                "start_time": 22.368181818181817,
                "end_time": 22.46590909090909,
                "pitch": 47,
                "velocity": 40,
                "duration": 0.09772727272727266,
                "tempo": 120.0
            },
            {
                "start_time": 22.46818181818182,
                "end_time": 22.568181818181817,
                "pitch": 47,
                "velocity": 40,
                "duration": 0.09999999999999787,
                "tempo": 120.0
            },
            {
                "start_time": 22.570454545454545,
                "end_time": 22.770454545454545,
                "pitch": 48,
                "velocity": 40,
                "duration": 0.1999999999999993,
                "tempo": 120.0
            },
            {
                "start_time": 22.770454545454545,
                "end_time": 22.870454545454546,
                "pitch": 48,
                "velocity": 40,
                "duration": 0.10000000000000142,
                "tempo": 120.0
            },
            {
                "start_time": 22.870454545454546,
                "end_time": 22.970454545454544,
                "pitch": 48,
                "velocity": 40,
                "duration": 0.09999999999999787,
                "tempo": 120.0
            },
            {
                "start_time": 22.970454545454544,
                "end_time": 23.170454545454543,
                "pitch": 48,
                "velocity": 40,
                "duration": 0.1999999999999993,
                "tempo": 120.0
            },
            {
                "start_time": 23.170454545454543,
                "end_time": 23.270454545454545,
                "pitch": 48,
                "velocity": 40,
                "duration": 0.10000000000000142,
                "tempo": 120.0
            },
            {
                "start_time": 23.270454545454545,
                "end_time": 23.370454545454546,
                "pitch": 48,
                "velocity": 40,
                "duration": 0.10000000000000142,
                "tempo": 120.0
            },
            {
                "start_time": 23.37272727272727,
                "end_time": 23.570454545454545,
                "pitch": 50,
                "velocity": 40,
                "duration": 0.19772727272727408,
                "tempo": 120.0
            },
            {
                "start_time": 23.57272727272727,
                "end_time": 23.672727272727272,
                "pitch": 50,
                "velocity": 40,
                "duration": 0.10000000000000142,
                "tempo": 120.0
            },
            {
                "start_time": 23.672727272727272,
                "end_time": 23.77272727272727,
                "pitch": 50,
                "velocity": 40,
                "duration": 0.09999999999999787,
                "tempo": 120.0
            },
            {
                "start_time": 23.77272727272727,
                "end_time": 23.974999999999998,
                "pitch": 50,
                "velocity": 40,
                "duration": 0.20227272727272805,
                "tempo": 120.0
            },
            {
                "start_time": 23.974999999999998,
                "end_time": 24.07272727272727,
                "pitch": 50,
                "velocity": 40,
                "duration": 0.09772727272727266,
                "tempo": 120.0
            },
            {
                "start_time": 24.075,
                "end_time": 24.174999999999997,
                "pitch": 50,
                "velocity": 40,
                "duration": 0.09999999999999787,
                "tempo": 120.0
            },
            {
                "start_time": 24.174999999999997,
                "end_time": 24.375,
                "pitch": 52,
                "velocity": 40,
                "duration": 0.20000000000000284,
                "tempo": 120.0
            },
            {
                "start_time": 24.375,
                "end_time": 24.474999999999998,
                "pitch": 52,
                "velocity": 40,
                "duration": 0.09999999999999787,
                "tempo": 120.0
            },
            {
                "start_time": 24.474999999999998,
                "end_time": 24.575,
                "pitch": 52,
                "velocity": 40,
                "duration": 0.10000000000000142,
                "tempo": 120.0
            },
            {
                "start_time": 24.577272727272724,
                "end_time": 24.777272727272727,
                "pitch": 52,
                "velocity": 40,
                "duration": 0.20000000000000284,
                "tempo": 120.0
            },
            {
                "start_time": 24.777272727272727,
                "end_time": 24.877272727272725,
                "pitch": 52,
                "velocity": 40,
                "duration": 0.09999999999999787,
                "tempo": 120.0
            },
            {
                "start_time": 24.877272727272725,
                "end_time": 24.977272727272727,
                "pitch": 52,
                "velocity": 40,
                "duration": 0.10000000000000142,
                "tempo": 120.0
            },
            {
                "start_time": 24.979545454545452,
                "end_time": 25.177272727272726,
                "pitch": 52,
                "velocity": 40,
                "duration": 0.19772727272727408,
                "tempo": 120.0
            },
            {
                "start_time": 25.179545454545455,
                "end_time": 25.279545454545453,
                "pitch": 52,
                "velocity": 40,
                "duration": 0.09999999999999787,
                "tempo": 120.0
            },
            {
                "start_time": 25.28181818181818,
                "end_time": 25.384090909090908,
                "pitch": 52,
                "velocity": 40,
                "duration": 0.10227272727272663,
                "tempo": 120.0
            },
            {
                "start_time": 25.384090909090908,
                "end_time": 25.58863636363636,
                "pitch": 52,
                "velocity": 40,
                "duration": 0.20454545454545325,
                "tempo": 120.0
            },
            {
                "start_time": 25.58863636363636,
                "end_time": 25.686363636363634,
                "pitch": 52,
                "velocity": 40,
                "duration": 0.09772727272727266,
                "tempo": 120.0
            },
            {
                "start_time": 25.688636363636363,
                "end_time": 25.786363636363635,
                "pitch": 52,
                "velocity": 40,
                "duration": 0.09772727272727266,
                "tempo": 120.0
            },
            {
                "start_time": 25.786363636363635,
                "end_time": 25.884090909090908,
                "pitch": 48,
                "velocity": 40,
                "duration": 0.09772727272727266,
                "tempo": 120.0
            },
            {
                "start_time": 25.884090909090908,
                "end_time": 25.98181818181818,
                "pitch": 52,
                "velocity": 40,
                "duration": 0.09772727272727266,
                "tempo": 120.0
            },
            {
                "start_time": 25.98181818181818,
                "end_time": 26.081818181818182,
                "pitch": 55,
                "velocity": 40,
                "duration": 0.10000000000000142,
                "tempo": 120.0
            },
            {
                "start_time": 26.081818181818182,
                "end_time": 26.18181818181818,
                "pitch": 60,
                "velocity": 40,
                "duration": 0.09999999999999787,
                "tempo": 120.0
            },
            {
                "start_time": 26.18409090909091,
                "end_time": 26.28181818181818,
                "pitch": 48,
                "velocity": 40,
                "duration": 0.09772727272727266,
                "tempo": 120.0
            },
            {
                "start_time": 26.284090909090907,
                "end_time": 26.38181818181818,
                "pitch": 52,
                "velocity": 40,
                "duration": 0.09772727272727266,
                "tempo": 120.0
            },
            {
                "start_time": 26.384090909090908,
                "end_time": 26.48409090909091,
                "pitch": 55,
                "velocity": 40,
                "duration": 0.10000000000000142,
                "tempo": 120.0
            },
            {
                "start_time": 26.486363636363635,
                "end_time": 26.58863636363636,
                "pitch": 60,
                "velocity": 40,
                "duration": 0.10227272727272663,
                "tempo": 120.0
            },
            {
                "start_time": 26.58863636363636,
                "end_time": 26.69090909090909,
                "pitch": 48,
                "velocity": 40,
                "duration": 0.10227272727273018,
                "tempo": 120.0
            },
            {
                "start_time": 26.69090909090909,
                "end_time": 26.793181818181818,
                "pitch": 52,
                "velocity": 40,
                "duration": 0.10227272727272663,
                "tempo": 120.0
            },
            {
                "start_time": 26.795454545454543,
                "end_time": 26.895454545454545,
                "pitch": 55,
                "velocity": 40,
                "duration": 0.10000000000000142,
                "tempo": 120.0
            },
            {
                "start_time": 26.895454545454545,
                "end_time": 26.995454545454542,
                "pitch": 60,
                "velocity": 40,
                "duration": 0.09999999999999787,
                "tempo": 120.0
            },
            {
                "start_time": 26.995454545454542,
                "end_time": 27.095454545454544,
                "pitch": 48,
                "velocity": 40,
                "duration": 0.10000000000000142,
                "tempo": 120.0
            },
            {
                "start_time": 27.097727272727273,
                "end_time": 27.19772727272727,
                "pitch": 52,
                "velocity": 40,
                "duration": 0.09999999999999787,
                "tempo": 120.0
            },
            {
                "start_time": 27.19772727272727,
                "end_time": 27.297727272727272,
                "pitch": 55,
                "velocity": 40,
                "duration": 0.10000000000000142,
                "tempo": 120.0
            },
            {
                "start_time": 27.297727272727272,
                "end_time": 27.39772727272727,
                "pitch": 60,
                "velocity": 40,
                "duration": 0.09999999999999787,
                "tempo": 120.0
            },
            {
                "start_time": 27.4,
                "end_time": 27.49772727272727,
                "pitch": 53,
                "velocity": 40,
                "duration": 0.09772727272727266,
                "tempo": 120.0
            },
            {
                "start_time": 27.49772727272727,
                "end_time": 27.597727272727273,
                "pitch": 57,
                "velocity": 40,
                "duration": 0.10000000000000142,
                "tempo": 120.0
            },
            {
                "start_time": 27.597727272727273,
                "end_time": 27.69772727272727,
                "pitch": 60,
                "velocity": 40,
                "duration": 0.09999999999999787,
                "tempo": 120.0
            },
            {
                "start_time": 27.69772727272727,
                "end_time": 27.797727272727272,
                "pitch": 65,
                "velocity": 40,
                "duration": 0.10000000000000142,
                "tempo": 120.0
            },
            {
                "start_time": 27.799999999999997,
                "end_time": 27.89772727272727,
                "pitch": 53,
                "velocity": 40,
                "duration": 0.09772727272727266,
                "tempo": 120.0
            },
            {
                "start_time": 27.9,
                "end_time": 27.99772727272727,
                "pitch": 57,
                "velocity": 40,
                "duration": 0.09772727272727266,
                "tempo": 120.0
            },
            {
                "start_time": 27.99772727272727,
                "end_time": 28.097727272727273,
                "pitch": 60,
                "velocity": 40,
                "duration": 0.10000000000000142,
                "tempo": 120.0
            },
            {
                "start_time": 28.099999999999998,
                "end_time": 28.2,
                "pitch": 69,
                "velocity": 40,
                "duration": 0.10000000000000142,
                "tempo": 120.0
            },
            {
                "start_time": 28.2,
                "end_time": 28.299999999999997,
                "pitch": 53,
                "velocity": 40,
                "duration": 0.09999999999999787,
                "tempo": 120.0
            },
            {
                "start_time": 28.302272727272726,
                "end_time": 28.402272727272727,
                "pitch": 57,
                "velocity": 40,
                "duration": 0.10000000000000142,
                "tempo": 120.0
            },
            {
                "start_time": 28.402272727272727,
                "end_time": 28.502272727272725,
                "pitch": 60,
                "velocity": 40,
                "duration": 0.09999999999999787,
                "tempo": 120.0
            },
            {
                "start_time": 28.502272727272725,
                "end_time": 28.602272727272727,
                "pitch": 65,
                "velocity": 40,
                "duration": 0.10000000000000142,
                "tempo": 120.0
            },
            {
                "start_time": 28.602272727272727,
                "end_time": 28.702272727272724,
                "pitch": 53,
                "velocity": 40,
                "duration": 0.09999999999999787,
                "tempo": 120.0
            },
            {
                "start_time": 28.702272727272724,
                "end_time": 28.802272727272726,
                "pitch": 57,
                "velocity": 40,
                "duration": 0.10000000000000142,
                "tempo": 120.0
            },
            {
                "start_time": 28.802272727272726,
                "end_time": 28.902272727272727,
                "pitch": 62,
                "velocity": 40,
                "duration": 0.10000000000000142,
                "tempo": 120.0
            },
            {
                "start_time": 28.902272727272727,
                "end_time": 29.004545454545454,
                "pitch": 67,
                "velocity": 40,
                "duration": 0.10227272727272663,
                "tempo": 120.0
            },
            {
                "start_time": 29.004545454545454,
                "end_time": 29.104545454545452,
                "pitch": 55,
                "velocity": 40,
                "duration": 0.09999999999999787,
                "tempo": 120.0
            },
            {
                "start_time": 29.104545454545452,
                "end_time": 29.204545454545453,
                "pitch": 59,
                "velocity": 40,
                "duration": 0.10000000000000142,
                "tempo": 120.0
            },
            {
                "start_time": 29.206818181818182,
                "end_time": 29.304545454545455,
                "pitch": 62,
                "velocity": 40,
                "duration": 0.09772727272727266,
                "tempo": 120.0
            },
            {
                "start_time": 29.30681818181818,
                "end_time": 29.404545454545453,
                "pitch": 67,
                "velocity": 40,
                "duration": 0.09772727272727266,
                "tempo": 120.0
            },
            {
                "start_time": 29.40681818181818,
                "end_time": 29.504545454545454,
                "pitch": 55,
                "velocity": 40,
                "duration": 0.09772727272727266,
                "tempo": 120.0
            },
            {
                "start_time": 29.50681818181818,
                "end_time": 29.604545454545452,
                "pitch": 59,
                "velocity": 40,
                "duration": 0.09772727272727266,
                "tempo": 120.0
            },
            {
                "start_time": 29.60681818181818,
                "end_time": 29.704545454545453,
                "pitch": 62,
                "velocity": 40,
                "duration": 0.09772727272727266,
                "tempo": 120.0
            },
            {
                "start_time": 29.706818181818182,
                "end_time": 29.80681818181818,
                "pitch": 67,
                "velocity": 40,
                "duration": 0.09999999999999787,
                "tempo": 120.0
            },
            {
                "start_time": 29.80681818181818,
                "end_time": 29.90681818181818,
                "pitch": 56,
                "velocity": 40,
                "duration": 0.10000000000000142,
                "tempo": 120.0
            },
            {
                "start_time": 29.90681818181818,
                "end_time": 30.00681818181818,
                "pitch": 59,
                "velocity": 40,
                "duration": 0.09999999999999787,
                "tempo": 120.0
            },
            {
                "start_time": 30.00681818181818,
                "end_time": 30.10681818181818,
                "pitch": 62,
                "velocity": 40,
                "duration": 0.10000000000000142,
                "tempo": 120.0
            },
            {
                "start_time": 30.10681818181818,
                "end_time": 30.209090909090907,
                "pitch": 68,
                "velocity": 40,
                "duration": 0.10227272727272663,
                "tempo": 120.0
            },
            {
                "start_time": 30.209090909090907,
                "end_time": 30.30909090909091,
                "pitch": 56,
                "velocity": 40,
                "duration": 0.10000000000000142,
                "tempo": 120.0
            },
            {
                "start_time": 30.30909090909091,
                "end_time": 30.409090909090907,
                "pitch": 59,
                "velocity": 40,
                "duration": 0.09999999999999787,
                "tempo": 120.0
            },
            {
                "start_time": 30.411363636363635,
                "end_time": 30.509090909090908,
                "pitch": 60,
                "velocity": 40,
                "duration": 0.09772727272727266,
                "tempo": 120.0
            },
            {
                "start_time": 30.509090909090908,
                "end_time": 30.60909090909091,
                "pitch": 64,
                "velocity": 40,
                "duration": 0.10000000000000142,
                "tempo": 120.0
            },
            {
                "start_time": 30.611363636363635,
                "end_time": 30.709090909090907,
                "pitch": 57,
                "velocity": 40,
                "duration": 0.09772727272727266,
                "tempo": 120.0
            },
            {
                "start_time": 30.711363636363636,
                "end_time": 30.80909090909091,
                "pitch": 60,
                "velocity": 40,
                "duration": 0.09772727272727266,
                "tempo": 120.0
            },
            {
                "start_time": 30.811363636363634,
                "end_time": 30.911363636363635,
                "pitch": 64,
                "velocity": 40,
                "duration": 0.10000000000000142,
                "tempo": 120.0
            },
            {
                "start_time": 30.911363636363635,
                "end_time": 31.011363636363633,
                "pitch": 69,
                "velocity": 40,
                "duration": 0.09999999999999787,
                "tempo": 120.0
            },
            {
                "start_time": 31.011363636363633,
                "end_time": 31.111363636363635,
                "pitch": 57,
                "velocity": 40,
                "duration": 0.10000000000000142,
                "tempo": 120.0
            },
            {
                "start_time": 31.113636363636363,
                "end_time": 31.21363636363636,
                "pitch": 60,
                "velocity": 40,
                "duration": 0.09999999999999787,
                "tempo": 120.0
            },
            {
                "start_time": 31.21363636363636,
                "end_time": 31.313636363636363,
                "pitch": 62,
                "velocity": 40,
                "duration": 0.10000000000000142,
                "tempo": 120.0
            },
            {
                "start_time": 31.313636363636363,
                "end_time": 31.41363636363636,
                "pitch": 67,
                "velocity": 40,
                "duration": 0.09999999999999787,
                "tempo": 120.0
            },
            {
                "start_time": 31.41363636363636,
                "end_time": 31.513636363636362,
                "pitch": 55,
                "velocity": 40,
                "duration": 0.10000000000000142,
                "tempo": 120.0
            },
            {
                "start_time": 31.513636363636362,
                "end_time": 31.613636363636363,
                "pitch": 59,
                "velocity": 40,
                "duration": 0.10000000000000142,
                "tempo": 120.0
            },
            {
                "start_time": 31.613636363636363,
                "end_time": 31.71363636363636,
                "pitch": 62,
                "velocity": 40,
                "duration": 0.09999999999999787,
                "tempo": 120.0
            },
            {
                "start_time": 31.71363636363636,
                "end_time": 31.813636363636363,
                "pitch": 67,
                "velocity": 40,
                "duration": 0.10000000000000142,
                "tempo": 120.0
            },
            {
                "start_time": 31.815909090909088,
                "end_time": 31.91363636363636,
                "pitch": 55,
                "velocity": 40,
                "duration": 0.09772727272727266,
                "tempo": 120.0
            },
            {
                "start_time": 31.91590909090909,
                "end_time": 32.013636363636365,
                "pitch": 59,
                "velocity": 40,
                "duration": 0.09772727272727622,
                "tempo": 120.0
            },
            {
                "start_time": 32.013636363636365,
                "end_time": 32.11363636363636,
                "pitch": 62,
                "velocity": 40,
                "duration": 0.09999999999999432,
                "tempo": 120.0
            },
            {
                "start_time": 32.11590909090909,
                "end_time": 32.215909090909086,
                "pitch": 67,
                "velocity": 40,
                "duration": 0.09999999999999432,
                "tempo": 120.0
            },
            {
                "start_time": 32.21818181818182,
                "end_time": 32.31590909090909,
                "pitch": 53,
                "velocity": 40,
                "duration": 0.09772727272726911,
                "tempo": 120.0
            },
            {
                "start_time": 32.31818181818182,
                "end_time": 32.41590909090909,
                "pitch": 57,
                "velocity": 40,
                "duration": 0.09772727272726911,
                "tempo": 120.0
            },
            {
                "start_time": 32.418181818181814,
                "end_time": 32.518181818181816,
                "pitch": 60,
                "velocity": 40,
                "duration": 0.10000000000000142,
                "tempo": 120.0
            },
            {
                "start_time": 32.518181818181816,
                "end_time": 32.61818181818182,
                "pitch": 65,
                "velocity": 40,
                "duration": 0.10000000000000142,
                "tempo": 120.0
            },
            {
                "start_time": 32.62045454545454,
                "end_time": 32.720454545454544,
                "pitch": 53,
                "velocity": 40,
                "duration": 0.10000000000000142,
                "tempo": 120.0
            },
            {
                "start_time": 32.720454545454544,
                "end_time": 32.820454545454545,
                "pitch": 57,
                "velocity": 40,
                "duration": 0.10000000000000142,
                "tempo": 120.0
            },
            {
                "start_time": 32.820454545454545,
                "end_time": 32.92045454545455,
                "pitch": 60,
                "velocity": 40,
                "duration": 0.10000000000000142,
                "tempo": 120.0
            },
            {
                "start_time": 32.92045454545455,
                "end_time": 33.02045454545454,
                "pitch": 65,
                "velocity": 40,
                "duration": 0.09999999999999432,
                "tempo": 120.0
            },
            {
                "start_time": 33.02272727272727,
                "end_time": 33.12045454545454,
                "pitch": 53,
                "velocity": 40,
                "duration": 0.09772727272726911,
                "tempo": 120.0
            },
            {
                "start_time": 33.12272727272727,
                "end_time": 33.220454545454544,
                "pitch": 57,
                "velocity": 40,
                "duration": 0.09772727272727622,
                "tempo": 120.0
            },
            {
                "start_time": 33.22272727272727,
                "end_time": 33.320454545454545,
                "pitch": 60,
                "velocity": 40,
                "duration": 0.09772727272727622,
                "tempo": 120.0
            },
            {
                "start_time": 33.32272727272727,
                "end_time": 33.42272727272727,
                "pitch": 65,
                "velocity": 40,
                "duration": 0.10000000000000142,
                "tempo": 120.0
            },
            {
                "start_time": 33.42272727272727,
                "end_time": 33.52045454545454,
                "pitch": 53,
                "velocity": 40,
                "duration": 0.09772727272726911,
                "tempo": 120.0
            },
            {
                "start_time": 33.52272727272727,
                "end_time": 33.62272727272727,
                "pitch": 57,
                "velocity": 40,
                "duration": 0.09999999999999432,
                "tempo": 120.0
            },
            {
                "start_time": 33.62272727272727,
                "end_time": 33.720454545454544,
                "pitch": 60,
                "velocity": 40,
                "duration": 0.09772727272727622,
                "tempo": 120.0
            },
            {
                "start_time": 33.72272727272727,
                "end_time": 33.82272727272727,
                "pitch": 65,
                "velocity": 40,
                "duration": 0.10000000000000142,
                "tempo": 120.0
            },
            {
                "start_time": 33.82272727272727,
                "end_time": 33.92272727272727,
                "pitch": 52,
                "velocity": 40,
                "duration": 0.10000000000000142,
                "tempo": 120.0
            },
            {
                "start_time": 33.92272727272727,
                "end_time": 34.02272727272727,
                "pitch": 55,
                "velocity": 40,
                "duration": 0.10000000000000142,
                "tempo": 120.0
            },
            {
                "start_time": 34.02272727272727,
                "end_time": 34.125,
                "pitch": 71,
                "velocity": 40,
                "duration": 0.10227272727272663,
                "tempo": 120.0
            },
            {
                "start_time": 34.125,
                "end_time": 34.22727272727273,
                "pitch": 64,
                "velocity": 40,
                "duration": 0.10227272727272663,
                "tempo": 120.0
            },
            {
                "start_time": 34.22954545454545,
                "end_time": 34.32954545454545,
                "pitch": 52,
                "velocity": 40,
                "duration": 0.10000000000000142,
                "tempo": 120.0
            },
            {
                "start_time": 34.33181818181818,
                "end_time": 34.434090909090905,
                "pitch": 55,
                "velocity": 40,
                "duration": 0.10227272727272663,
                "tempo": 120.0
            },
            {
                "start_time": 34.434090909090905,
                "end_time": 34.53409090909091,
                "pitch": 59,
                "velocity": 40,
                "duration": 0.10000000000000142,
                "tempo": 120.0
            },
            {
                "start_time": 34.53409090909091,
                "end_time": 34.63409090909091,
                "pitch": 64,
                "velocity": 40,
                "duration": 0.10000000000000142,
                "tempo": 120.0
            },
            {
                "start_time": 34.63409090909091,
                "end_time": 34.73409090909091,
                "pitch": 52,
                "velocity": 40,
                "duration": 0.10000000000000142,
                "tempo": 120.0
            },
            {
                "start_time": 34.73409090909091,
                "end_time": 34.83409090909091,
                "pitch": 55,
                "velocity": 40,
                "duration": 0.10000000000000142,
                "tempo": 120.0
            },
            {
                "start_time": 34.83409090909091,
                "end_time": 34.934090909090905,
                "pitch": 59,
                "velocity": 40,
                "duration": 0.09999999999999432,
                "tempo": 120.0
            },
            {
                "start_time": 34.934090909090905,
                "end_time": 35.03409090909091,
                "pitch": 64,
                "velocity": 40,
                "duration": 0.10000000000000142,
                "tempo": 120.0
            },
            {
                "start_time": 35.03636363636363,
                "end_time": 35.13409090909091,
                "pitch": 52,
                "velocity": 40,
                "duration": 0.09772727272727622,
                "tempo": 120.0
            },
            {
                "start_time": 35.13636363636363,
                "end_time": 35.23409090909091,
                "pitch": 55,
                "velocity": 40,
                "duration": 0.09772727272727622,
                "tempo": 120.0
            },
            {
                "start_time": 35.23409090909091,
                "end_time": 35.33409090909091,
                "pitch": 59,
                "velocity": 40,
                "duration": 0.10000000000000142,
                "tempo": 120.0
            },
            {
                "start_time": 35.336363636363636,
                "end_time": 35.43636363636364,
                "pitch": 64,
                "velocity": 40,
                "duration": 0.10000000000000142,
                "tempo": 120.0
            },
            {
                "start_time": 35.43636363636364,
                "end_time": 35.53409090909091,
                "pitch": 50,
                "velocity": 40,
                "duration": 0.09772727272726911,
                "tempo": 120.0
            },
            {
                "start_time": 35.53636363636363,
                "end_time": 35.63409090909091,
                "pitch": 53,
                "velocity": 40,
                "duration": 0.09772727272727622,
                "tempo": 120.0
            },
            {
                "start_time": 35.63636363636363,
                "end_time": 35.73409090909091,
                "pitch": 57,
                "velocity": 40,
                "duration": 0.09772727272727622,
                "tempo": 120.0
            },
            {
                "start_time": 35.736363636363635,
                "end_time": 35.836363636363636,
                "pitch": 62,
                "velocity": 40,
                "duration": 0.10000000000000142,
                "tempo": 120.0
            },
            {
                "start_time": 35.836363636363636,
                "end_time": 35.93636363636364,
                "pitch": 50,
                "velocity": 40,
                "duration": 0.10000000000000142,
                "tempo": 120.0
            },
            {
                "start_time": 35.93636363636364,
                "end_time": 36.03636363636363,
                "pitch": 53,
                "velocity": 40,
                "duration": 0.09999999999999432,
                "tempo": 120.0
            },
            {
                "start_time": 36.03636363636363,
                "end_time": 36.13636363636363,
                "pitch": 57,
                "velocity": 40,
                "duration": 0.10000000000000142,
                "tempo": 120.0
            },
            {
                "start_time": 36.13636363636363,
                "end_time": 36.23863636363636,
                "pitch": 62,
                "velocity": 40,
                "duration": 0.10227272727272663,
                "tempo": 120.0
            },
            {
                "start_time": 36.23863636363636,
                "end_time": 36.33863636363636,
                "pitch": 50,
                "velocity": 40,
                "duration": 0.10000000000000142,
                "tempo": 120.0
            },
            {
                "start_time": 36.33863636363636,
                "end_time": 36.43863636363636,
                "pitch": 53,
                "velocity": 40,
                "duration": 0.10000000000000142,
                "tempo": 120.0
            },
            {
                "start_time": 36.43863636363636,
                "end_time": 36.538636363636364,
                "pitch": 57,
                "velocity": 40,
                "duration": 0.10000000000000142,
                "tempo": 120.0
            },
            {
                "start_time": 36.538636363636364,
                "end_time": 36.63863636363636,
                "pitch": 62,
                "velocity": 40,
                "duration": 0.09999999999999432,
                "tempo": 120.0
            },
            {
                "start_time": 36.64090909090909,
                "end_time": 36.73863636363636,
                "pitch": 50,
                "velocity": 40,
                "duration": 0.09772727272726911,
                "tempo": 120.0
            },
            {
                "start_time": 36.74090909090909,
                "end_time": 36.83863636363636,
                "pitch": 53,
                "velocity": 40,
                "duration": 0.09772727272726911,
                "tempo": 120.0
            },
            {
                "start_time": 36.840909090909086,
                "end_time": 36.93863636363636,
                "pitch": 59,
                "velocity": 40,
                "duration": 0.09772727272727622,
                "tempo": 120.0
            },
            {
                "start_time": 36.94090909090909,
                "end_time": 37.04090909090909,
                "pitch": 62,
                "velocity": 40,
                "duration": 0.10000000000000142,
                "tempo": 120.0
            },
            {
                "start_time": 37.04090909090909,
                "end_time": 37.14090909090909,
                "pitch": 52,
                "velocity": 40,
                "duration": 0.10000000000000142,
                "tempo": 120.0
            },
            {
                "start_time": 37.14090909090909,
                "end_time": 37.24090909090909,
                "pitch": 56,
                "velocity": 40,
                "duration": 0.10000000000000142,
                "tempo": 120.0
            },
            {
                "start_time": 37.24090909090909,
                "end_time": 37.340909090909086,
                "pitch": 59,
                "velocity": 40,
                "duration": 0.09999999999999432,
                "tempo": 120.0
            },
            {
                "start_time": 37.340909090909086,
                "end_time": 37.44090909090909,
                "pitch": 62,
                "velocity": 40,
                "duration": 0.10000000000000142,
                "tempo": 120.0
            },
            {
                "start_time": 37.44090909090909,
                "end_time": 37.54090909090909,
                "pitch": 64,
                "velocity": 40,
                "duration": 0.10000000000000142,
                "tempo": 120.0
            },
            {
                "start_time": 37.54090909090909,
                "end_time": 37.64090909090909,
                "pitch": 68,
                "velocity": 40,
                "duration": 0.10000000000000142,
                "tempo": 120.0
            },
            {
                "start_time": 37.64090909090909,
                "end_time": 37.74090909090909,
                "pitch": 71,
                "velocity": 40,
                "duration": 0.10000000000000142,
                "tempo": 120.0
            },
            {
                "start_time": 37.74090909090909,
                "end_time": 37.840909090909086,
                "pitch": 74,
                "velocity": 40,
                "duration": 0.09999999999999432,
                "tempo": 120.0
            },
            {
                "start_time": 37.840909090909086,
                "end_time": 37.94090909090909,
                "pitch": 76,
                "velocity": 40,
                "duration": 0.10000000000000142,
                "tempo": 120.0
            },
            {
                "start_time": 37.94090909090909,
                "end_time": 38.04090909090909,
                "pitch": 80,
                "velocity": 40,
                "duration": 0.10000000000000142,
                "tempo": 120.0
            },
            {
                "start_time": 38.04090909090909,
                "end_time": 38.14090909090909,
                "pitch": 83,
                "velocity": 40,
                "duration": 0.10000000000000142,
                "tempo": 120.0
            },
            {
                "start_time": 38.143181818181816,
                "end_time": 38.24318181818182,
                "pitch": 86,
                "velocity": 40,
                "duration": 0.10000000000000142,
                "tempo": 120.0
            },
            {
                "start_time": 38.24318181818182,
                "end_time": 38.34318181818182,
                "pitch": 88,
                "velocity": 40,
                "duration": 0.10000000000000142,
                "tempo": 120.0
            },
            {
                "start_time": 38.345454545454544,
                "end_time": 38.44318181818181,
                "pitch": 92,
                "velocity": 40,
                "duration": 0.09772727272726911,
                "tempo": 120.0
            },
            {
                "start_time": 38.445454545454545,
                "end_time": 38.54545454545455,
                "pitch": 95,
                "velocity": 40,
                "duration": 0.10000000000000142,
                "tempo": 120.0
            },
            {
                "start_time": 38.54545454545455,
                "end_time": 38.643181818181816,
                "pitch": 98,
                "velocity": 40,
                "duration": 0.09772727272726911,
                "tempo": 120.0
            },
            {
                "start_time": 38.65,
                "end_time": 38.652272727272724,
                "pitch": 52,
                "velocity": 40,
                "duration": 0.0022727272727252057,
                "tempo": 120.0
            }
        ],
        "French Horn": [
            {
                "start_time": 25.786363636363635,
                "end_time": 26.793181818181818,
                "pitch": 60,
                "velocity": 101,
                "duration": 1.0068181818181827,
                "tempo": 120.0
            },
            {
                "start_time": 26.793181818181818,
                "end_time": 27.195454545454545,
                "pitch": 64,
                "velocity": 101,
                "duration": 0.40227272727272734,
                "tempo": 120.0
            },
            {
                "start_time": 27.19772727272727,
                "end_time": 27.39772727272727,
                "pitch": 67,
                "velocity": 101,
                "duration": 0.1999999999999993,
                "tempo": 120.0
            },
            {
                "start_time": 27.39772727272727,
                "end_time": 28.4,
                "pitch": 69,
                "velocity": 101,
                "duration": 1.0022727272727288,
                "tempo": 120.0
            },
            {
                "start_time": 28.402272727272727,
                "end_time": 28.802272727272726,
                "pitch": 72,
                "velocity": 101,
                "duration": 0.3999999999999986,
                "tempo": 120.0
            },
            {
                "start_time": 28.802272727272726,
                "end_time": 29.804545454545455,
                "pitch": 71,
                "velocity": 101,
                "duration": 1.0022727272727288,
                "tempo": 120.0
            },
            {
                "start_time": 29.80681818181818,
                "end_time": 30.004545454545454,
                "pitch": 71,
                "velocity": 101,
                "duration": 0.19772727272727408,
                "tempo": 120.0
            },
            {
                "start_time": 30.00681818181818,
                "end_time": 30.206818181818182,
                "pitch": 72,
                "velocity": 101,
                "duration": 0.20000000000000284,
                "tempo": 120.0
            },
            {
                "start_time": 30.209090909090907,
                "end_time": 30.409090909090907,
                "pitch": 74,
                "velocity": 101,
                "duration": 0.1999999999999993,
                "tempo": 120.0
            },
            {
                "start_time": 30.409090909090907,
                "end_time": 31.211363636363636,
                "pitch": 72,
                "velocity": 101,
                "duration": 0.8022727272727295,
                "tempo": 120.0
            },
            {
                "start_time": 31.21363636363636,
                "end_time": 32.215909090909086,
                "pitch": 71,
                "velocity": 101,
                "duration": 1.0022727272727252,
                "tempo": 120.0
            },
            {
                "start_time": 32.215909090909086,
                "end_time": 33.02045454545454,
                "pitch": 69,
                "velocity": 101,
                "duration": 0.8045454545454547,
                "tempo": 120.0
            },
            {
                "start_time": 33.02045454545454,
                "end_time": 33.220454545454544,
                "pitch": 64,
                "velocity": 101,
                "duration": 0.20000000000000284,
                "tempo": 120.0
            },
            {
                "start_time": 33.220454545454544,
                "end_time": 33.42045454545455,
                "pitch": 62,
                "velocity": 101,
                "duration": 0.20000000000000284,
                "tempo": 120.0
            },
            {
                "start_time": 33.42272727272727,
                "end_time": 33.62045454545454,
                "pitch": 67,
                "velocity": 101,
                "duration": 0.19772727272727053,
                "tempo": 120.0
            },
            {
                "start_time": 33.62272727272727,
                "end_time": 34.63409090909091,
                "pitch": 64,
                "velocity": 101,
                "duration": 1.0113636363636402,
                "tempo": 120.0
            },
            {
                "start_time": 34.63409090909091,
                "end_time": 35.03409090909091,
                "pitch": 62,
                "velocity": 101,
                "duration": 0.3999999999999986,
                "tempo": 120.0
            },
            {
                "start_time": 35.03409090909091,
                "end_time": 35.434090909090905,
                "pitch": 64,
                "velocity": 101,
                "duration": 0.3999999999999986,
                "tempo": 120.0
            },
            {
                "start_time": 35.43636363636364,
                "end_time": 36.236363636363635,
                "pitch": 60,
                "velocity": 101,
                "duration": 0.7999999999999972,
                "tempo": 120.0
            },
            {
                "start_time": 36.23863636363636,
                "end_time": 36.63863636363636,
                "pitch": 62,
                "velocity": 101,
                "duration": 0.3999999999999986,
                "tempo": 120.0
            },
            {
                "start_time": 36.63863636363636,
                "end_time": 37.038636363636364,
                "pitch": 64,
                "velocity": 101,
                "duration": 0.4000000000000057,
                "tempo": 120.0
            },
            {
                "start_time": 37.04090909090909,
                "end_time": 37.13863636363636,
                "pitch": 62,
                "velocity": 101,
                "duration": 0.09772727272726911,
                "tempo": 120.0
            },
            {
                "start_time": 37.14090909090909,
                "end_time": 37.23863636363636,
                "pitch": 64,
                "velocity": 101,
                "duration": 0.09772727272726911,
                "tempo": 120.0
            },
            {
                "start_time": 37.24090909090909,
                "end_time": 37.33863636363636,
                "pitch": 66,
                "velocity": 101,
                "duration": 0.09772727272726911,
                "tempo": 120.0
            },
            {
                "start_time": 37.340909090909086,
                "end_time": 37.43863636363636,
                "pitch": 68,
                "velocity": 101,
                "duration": 0.09772727272727622,
                "tempo": 120.0
            },
            {
                "start_time": 37.44090909090909,
                "end_time": 37.538636363636364,
                "pitch": 69,
                "velocity": 101,
                "duration": 0.09772727272727622,
                "tempo": 120.0
            },
            {
                "start_time": 37.54090909090909,
                "end_time": 37.63863636363636,
                "pitch": 71,
                "velocity": 101,
                "duration": 0.09772727272726911,
                "tempo": 120.0
            },
            {
                "start_time": 37.64090909090909,
                "end_time": 37.73863636363636,
                "pitch": 72,
                "velocity": 101,
                "duration": 0.09772727272726911,
                "tempo": 120.0
            },
            {
                "start_time": 37.74090909090909,
                "end_time": 37.840909090909086,
                "pitch": 74,
                "velocity": 101,
                "duration": 0.09999999999999432,
                "tempo": 120.0
            },
            {
                "start_time": 37.840909090909086,
                "end_time": 37.94090909090909,
                "pitch": 76,
                "velocity": 101,
                "duration": 0.10000000000000142,
                "tempo": 120.0
            },
            {
                "start_time": 37.94090909090909,
                "end_time": 38.04090909090909,
                "pitch": 78,
                "velocity": 101,
                "duration": 0.10000000000000142,
                "tempo": 120.0
            },
            {
                "start_time": 38.04090909090909,
                "end_time": 38.14090909090909,
                "pitch": 80,
                "velocity": 101,
                "duration": 0.10000000000000142,
                "tempo": 120.0
            },
            {
                "start_time": 38.14090909090909,
                "end_time": 38.24090909090909,
                "pitch": 81,
                "velocity": 101,
                "duration": 0.10000000000000142,
                "tempo": 120.0
            },
            {
                "start_time": 38.24318181818182,
                "end_time": 38.34318181818182,
                "pitch": 83,
                "velocity": 101,
                "duration": 0.10000000000000142,
                "tempo": 120.0
            },
            {
                "start_time": 38.34318181818182,
                "end_time": 38.44318181818181,
                "pitch": 84,
                "velocity": 101,
                "duration": 0.09999999999999432,
                "tempo": 120.0
            },
            {
                "start_time": 38.44318181818181,
                "end_time": 38.543181818181814,
                "pitch": 86,
                "velocity": 101,
                "duration": 0.10000000000000142,
                "tempo": 120.0
            },
            {
                "start_time": 38.543181818181814,
                "end_time": 38.643181818181816,
                "pitch": 88,
                "velocity": 101,
                "duration": 0.10000000000000142,
                "tempo": 120.0
            }
        ],
        "Violin": [
            {
                "start_time": 0.03409090909090909,
                "end_time": 0.1318181818181818,
                "pitch": 64,
                "velocity": 127,
                "duration": 0.09772727272727272,
                "tempo": 120.0
            },
            {
                "start_time": 0.1318181818181818,
                "end_time": 0.2318181818181818,
                "pitch": 62,
                "velocity": 127,
                "duration": 0.1,
                "tempo": 120.0
            },
            {
                "start_time": 0.2318181818181818,
                "end_time": 0.3318181818181818,
                "pitch": 60,
                "velocity": 127,
                "duration": 0.09999999999999998,
                "tempo": 120.0
            },
            {
                "start_time": 0.3318181818181818,
                "end_time": 1.2340909090909091,
                "pitch": 57,
                "velocity": 127,
                "duration": 0.9022727272727273,
                "tempo": 120.0
            },
            {
                "start_time": 1.2340909090909091,
                "end_time": 1.334090909090909,
                "pitch": 57,
                "velocity": 127,
                "duration": 0.09999999999999987,
                "tempo": 120.0
            },
            {
                "start_time": 1.334090909090909,
                "end_time": 1.434090909090909,
                "pitch": 59,
                "velocity": 127,
                "duration": 0.10000000000000009,
                "tempo": 120.0
            },
            {
                "start_time": 1.434090909090909,
                "end_time": 1.534090909090909,
                "pitch": 60,
                "velocity": 127,
                "duration": 0.09999999999999987,
                "tempo": 120.0
            },
            {
                "start_time": 1.534090909090909,
                "end_time": 1.634090909090909,
                "pitch": 57,
                "velocity": 127,
                "duration": 0.10000000000000009,
                "tempo": 120.0
            },
            {
                "start_time": 1.634090909090909,
                "end_time": 1.734090909090909,
                "pitch": 64,
                "velocity": 127,
                "duration": 0.09999999999999987,
                "tempo": 120.0
            },
            {
                "start_time": 1.734090909090909,
                "end_time": 1.834090909090909,
                "pitch": 62,
                "velocity": 127,
                "duration": 0.10000000000000009,
                "tempo": 120.0
            },
            {
                "start_time": 1.834090909090909,
                "end_time": 1.934090909090909,
                "pitch": 60,
                "velocity": 127,
                "duration": 0.10000000000000009,
                "tempo": 120.0
            },
            {
                "start_time": 1.9363636363636363,
                "end_time": 2.8499999999999996,
                "pitch": 57,
                "velocity": 127,
                "duration": 0.9136363636363634,
                "tempo": 120.0
            },
            {
                "start_time": 2.8499999999999996,
                "end_time": 2.9499999999999997,
                "pitch": 57,
                "velocity": 127,
                "duration": 0.10000000000000009,
                "tempo": 120.0
            },
            {
                "start_time": 2.9499999999999997,
                "end_time": 3.05,
                "pitch": 59,
                "velocity": 127,
                "duration": 0.10000000000000009,
                "tempo": 120.0
            },
            {
                "start_time": 3.05,
                "end_time": 3.15,
                "pitch": 60,
                "velocity": 127,
                "duration": 0.10000000000000009,
                "tempo": 120.0
            },
            {
                "start_time": 3.15,
                "end_time": 3.25,
                "pitch": 64,
                "velocity": 127,
                "duration": 0.10000000000000009,
                "tempo": 120.0
            },
            {
                "start_time": 3.25,
                "end_time": 4.05,
                "pitch": 55,
                "velocity": 127,
                "duration": 0.7999999999999998,
                "tempo": 120.0
            },
            {
                "start_time": 4.052272727272727,
                "end_time": 4.452272727272727,
                "pitch": 52,
                "velocity": 127,
                "duration": 0.40000000000000036,
                "tempo": 120.0
            },
            {
                "start_time": 4.452272727272727,
                "end_time": 4.552272727272727,
                "pitch": 53,
                "velocity": 127,
                "duration": 0.09999999999999964,
                "tempo": 120.0
            },
            {
                "start_time": 4.554545454545455,
                "end_time": 4.654545454545454,
                "pitch": 55,
                "velocity": 127,
                "duration": 0.09999999999999964,
                "tempo": 120.0
            },
            {
                "start_time": 4.654545454545454,
                "end_time": 4.754545454545454,
                "pitch": 57,
                "velocity": 127,
                "duration": 0.09999999999999964,
                "tempo": 120.0
            },
            {
                "start_time": 4.754545454545454,
                "end_time": 4.8545454545454545,
                "pitch": 59,
                "velocity": 127,
                "duration": 0.10000000000000053,
                "tempo": 120.0
            },
            {
                "start_time": 4.8545454545454545,
                "end_time": 5.659090909090909,
                "pitch": 60,
                "velocity": 127,
                "duration": 0.8045454545454547,
                "tempo": 120.0
            },
            {
                "start_time": 5.661363636363636,
                "end_time": 5.761363636363636,
                "pitch": 57,
                "velocity": 127,
                "duration": 0.09999999999999964,
                "tempo": 120.0
            },
            {
                "start_time": 5.761363636363636,
                "end_time": 5.861363636363636,
                "pitch": 59,
                "velocity": 127,
                "duration": 0.10000000000000053,
                "tempo": 120.0
            },
            {
                "start_time": 5.861363636363636,
                "end_time": 5.961363636363636,
                "pitch": 60,
                "velocity": 127,
                "duration": 0.09999999999999964,
                "tempo": 120.0
            },
            {
                "start_time": 5.961363636363636,
                "end_time": 6.463636363636363,
                "pitch": 59,
                "velocity": 127,
                "duration": 0.502272727272727,
                "tempo": 120.0
            },
            {
                "start_time": 6.463636363636363,
                "end_time": 7.468181818181818,
                "pitch": 57,
                "velocity": 127,
                "duration": 1.0045454545454549,
                "tempo": 120.0
            },
            {
                "start_time": 7.468181818181818,
                "end_time": 7.670454545454545,
                "pitch": 59,
                "velocity": 127,
                "duration": 0.20227272727272716,
                "tempo": 120.0
            },
            {
                "start_time": 7.670454545454545,
                "end_time": 7.870454545454545,
                "pitch": 60,
                "velocity": 127,
                "duration": 0.20000000000000018,
                "tempo": 120.0
            },
            {
                "start_time": 7.872727272727272,
                "end_time": 8.072727272727272,
                "pitch": 64,
                "velocity": 127,
                "duration": 0.20000000000000018,
                "tempo": 120.0
            },
            {
                "start_time": 8.072727272727272,
                "end_time": 8.877272727272727,
                "pitch": 62,
                "velocity": 127,
                "duration": 0.8045454545454547,
                "tempo": 120.0
            },
            {
                "start_time": 8.877272727272727,
                "end_time": 8.977272727272727,
                "pitch": 59,
                "velocity": 127,
                "duration": 0.09999999999999964,
                "tempo": 120.0
            },
            {
                "start_time": 8.979545454545454,
                "end_time": 9.077272727272726,
                "pitch": 60,
                "velocity": 127,
                "duration": 0.09772727272727266,
                "tempo": 120.0
            },
            {
                "start_time": 9.079545454545453,
                "end_time": 9.179545454545455,
                "pitch": 62,
                "velocity": 127,
                "duration": 0.10000000000000142,
                "tempo": 120.0
            },
            {
                "start_time": 9.179545454545455,
                "end_time": 9.279545454545454,
                "pitch": 64,
                "velocity": 127,
                "duration": 0.09999999999999964,
                "tempo": 120.0
            },
            {
                "start_time": 9.279545454545454,
                "end_time": 9.479545454545454,
                "pitch": 65,
                "velocity": 127,
                "duration": 0.1999999999999993,
                "tempo": 120.0
            },
            {
                "start_time": 9.479545454545454,
                "end_time": 9.681818181818182,
                "pitch": 67,
                "velocity": 127,
                "duration": 0.20227272727272805,
                "tempo": 120.0
            },
            {
                "start_time": 9.681818181818182,
                "end_time": 10.49090909090909,
                "pitch": 65,
                "velocity": 127,
                "duration": 0.8090909090909086,
                "tempo": 120.0
            },
            {
                "start_time": 10.686363636363636,
                "end_time": 10.89090909090909,
                "pitch": 67,
                "velocity": 127,
                "duration": 0.20454545454545503,
                "tempo": 120.0
            },
            {
                "start_time": 11.097727272727273,
                "end_time": 11.299999999999999,
                "pitch": 69,
                "velocity": 127,
                "duration": 0.20227272727272627,
                "tempo": 120.0
            },
            {
                "start_time": 11.299999999999999,
                "end_time": 12.102272727272727,
                "pitch": 71,
                "velocity": 127,
                "duration": 0.8022727272727277,
                "tempo": 120.0
            },
            {
                "start_time": 12.104545454545454,
                "end_time": 12.204545454545453,
                "pitch": 71,
                "velocity": 127,
                "duration": 0.09999999999999964,
                "tempo": 120.0
            },
            {
                "start_time": 12.204545454545453,
                "end_time": 12.304545454545455,
                "pitch": 72,
                "velocity": 127,
                "duration": 0.10000000000000142,
                "tempo": 120.0
            },
            {
                "start_time": 12.304545454545455,
                "end_time": 12.404545454545454,
                "pitch": 71,
                "velocity": 127,
                "duration": 0.09999999999999964,
                "tempo": 120.0
            },
            {
                "start_time": 12.406818181818181,
                "end_time": 12.506818181818181,
                "pitch": 68,
                "velocity": 127,
                "duration": 0.09999999999999964,
                "tempo": 120.0
            },
            {
                "start_time": 12.506818181818181,
                "end_time": 12.706818181818182,
                "pitch": 69,
                "velocity": 127,
                "duration": 0.20000000000000107,
                "tempo": 120.0
            },
            {
                "start_time": 12.709090909090909,
                "end_time": 12.909090909090908,
                "pitch": 71,
                "velocity": 127,
                "duration": 0.1999999999999993,
                "tempo": 120.0
            },
            {
                "start_time": 12.911363636363635,
                "end_time": 13.009090909090908,
                "pitch": 64,
                "velocity": 127,
                "duration": 0.09772727272727266,
                "tempo": 120.0
            },
            {
                "start_time": 13.011363636363635,
                "end_time": 13.111363636363636,
                "pitch": 62,
                "velocity": 127,
                "duration": 0.10000000000000142,
                "tempo": 120.0
            },
            {
                "start_time": 13.111363636363636,
                "end_time": 13.211363636363636,
                "pitch": 60,
                "velocity": 127,
                "duration": 0.09999999999999964,
                "tempo": 120.0
            },
            {
                "start_time": 13.211363636363636,
                "end_time": 14.11590909090909,
                "pitch": 57,
                "velocity": 127,
                "duration": 0.9045454545454543,
                "tempo": 120.0
            },
            {
                "start_time": 14.11590909090909,
                "end_time": 14.21590909090909,
                "pitch": 57,
                "velocity": 127,
                "duration": 0.09999999999999964,
                "tempo": 120.0
            },
            {
                "start_time": 14.218181818181817,
                "end_time": 14.318181818181818,
                "pitch": 59,
                "velocity": 127,
                "duration": 0.10000000000000142,
                "tempo": 120.0
            },
            {
                "start_time": 14.318181818181818,
                "end_time": 14.418181818181818,
                "pitch": 60,
                "velocity": 127,
                "duration": 0.09999999999999964,
                "tempo": 120.0
            },
            {
                "start_time": 14.418181818181818,
                "end_time": 14.520454545454545,
                "pitch": 57,
                "velocity": 127,
                "duration": 0.10227272727272663,
                "tempo": 120.0
            },
            {
                "start_time": 14.520454545454545,
                "end_time": 14.620454545454544,
                "pitch": 64,
                "velocity": 127,
                "duration": 0.09999999999999964,
                "tempo": 120.0
            },
            {
                "start_time": 14.620454545454544,
                "end_time": 14.720454545454544,
                "pitch": 62,
                "velocity": 127,
                "duration": 0.09999999999999964,
                "tempo": 120.0
            },
            {
                "start_time": 14.720454545454544,
                "end_time": 14.820454545454545,
                "pitch": 60,
                "velocity": 127,
                "duration": 0.10000000000000142,
                "tempo": 120.0
            },
            {
                "start_time": 14.822727272727272,
                "end_time": 15.727272727272727,
                "pitch": 57,
                "velocity": 127,
                "duration": 0.9045454545454543,
                "tempo": 120.0
            },
            {
                "start_time": 15.729545454545454,
                "end_time": 15.827272727272726,
                "pitch": 57,
                "velocity": 127,
                "duration": 0.09772727272727266,
                "tempo": 120.0
            },
            {
                "start_time": 15.829545454545453,
                "end_time": 15.927272727272726,
                "pitch": 59,
                "velocity": 127,
                "duration": 0.09772727272727266,
                "tempo": 120.0
            },
            {
                "start_time": 15.929545454545453,
                "end_time": 16.027272727272727,
                "pitch": 60,
                "velocity": 127,
                "duration": 0.09772727272727444,
                "tempo": 120.0
            },
            {
                "start_time": 16.029545454545453,
                "end_time": 16.129545454545454,
                "pitch": 64,
                "velocity": 127,
                "duration": 0.10000000000000142,
                "tempo": 120.0
            },
            {
                "start_time": 16.131818181818183,
                "end_time": 16.93409090909091,
                "pitch": 55,
                "velocity": 127,
                "duration": 0.8022727272727259,
                "tempo": 120.0
            },
            {
                "start_time": 16.936363636363634,
                "end_time": 17.336363636363636,
                "pitch": 52,
                "velocity": 127,
                "duration": 0.40000000000000213,
                "tempo": 120.0
            },
            {
                "start_time": 17.336363636363636,
                "end_time": 17.436363636363634,
                "pitch": 53,
                "velocity": 127,
                "duration": 0.09999999999999787,
                "tempo": 120.0
            },
            {
                "start_time": 17.438636363636363,
                "end_time": 17.538636363636364,
                "pitch": 55,
                "velocity": 127,
                "duration": 0.10000000000000142,
                "tempo": 120.0
            },
            {
                "start_time": 17.538636363636364,
                "end_time": 17.638636363636362,
                "pitch": 57,
                "velocity": 127,
                "duration": 0.09999999999999787,
                "tempo": 120.0
            },
            {
                "start_time": 17.638636363636362,
                "end_time": 17.738636363636363,
                "pitch": 59,
                "velocity": 127,
                "duration": 0.10000000000000142,
                "tempo": 120.0
            },
            {
                "start_time": 17.738636363636363,
                "end_time": 18.547727272727272,
                "pitch": 60,
                "velocity": 127,
                "duration": 0.8090909090909086,
                "tempo": 120.0
            },
            {
                "start_time": 18.547727272727272,
                "end_time": 18.65,
                "pitch": 57,
                "velocity": 127,
                "duration": 0.10227272727272663,
                "tempo": 120.0
            },
            {
                "start_time": 18.65,
                "end_time": 18.752272727272725,
                "pitch": 59,
                "velocity": 127,
                "duration": 0.10227272727272663,
                "tempo": 120.0
            },
            {
                "start_time": 18.754545454545454,
                "end_time": 18.852272727272727,
                "pitch": 60,
                "velocity": 127,
                "duration": 0.09772727272727266,
                "tempo": 120.0
            },
            {
                "start_time": 18.854545454545455,
                "end_time": 19.354545454545452,
                "pitch": 59,
                "velocity": 127,
                "duration": 0.49999999999999645,
                "tempo": 120.0
            },
            {
                "start_time": 19.354545454545452,
                "end_time": 20.35681818181818,
                "pitch": 57,
                "velocity": 127,
                "duration": 1.0022727272727288,
                "tempo": 120.0
            },
            {
                "start_time": 20.35909090909091,
                "end_time": 20.55909090909091,
                "pitch": 59,
                "velocity": 127,
                "duration": 0.1999999999999993,
                "tempo": 120.0
            },
            {
                "start_time": 20.561363636363634,
                "end_time": 20.761363636363637,
                "pitch": 60,
                "velocity": 127,
                "duration": 0.20000000000000284,
                "tempo": 120.0
            },
            {
                "start_time": 20.761363636363637,
                "end_time": 20.961363636363636,
                "pitch": 64,
                "velocity": 127,
                "duration": 0.1999999999999993,
                "tempo": 120.0
            },
            {
                "start_time": 20.96363636363636,
                "end_time": 21.763636363636362,
                "pitch": 62,
                "velocity": 127,
                "duration": 0.8000000000000007,
                "tempo": 120.0
            },
            {
                "start_time": 21.763636363636362,
                "end_time": 21.863636363636363,
                "pitch": 59,
                "velocity": 127,
                "duration": 0.10000000000000142,
                "tempo": 120.0
            },
            {
                "start_time": 21.86590909090909,
                "end_time": 21.96590909090909,
                "pitch": 60,
                "velocity": 127,
                "duration": 0.10000000000000142,
                "tempo": 120.0
            },
            {
                "start_time": 21.96590909090909,
                "end_time": 22.06590909090909,
                "pitch": 62,
                "velocity": 127,
                "duration": 0.10000000000000142,
                "tempo": 120.0
            },
            {
                "start_time": 22.06590909090909,
                "end_time": 22.16590909090909,
                "pitch": 64,
                "velocity": 127,
                "duration": 0.09999999999999787,
                "tempo": 120.0
            },
            {
                "start_time": 22.16590909090909,
                "end_time": 22.36590909090909,
                "pitch": 65,
                "velocity": 127,
                "duration": 0.1999999999999993,
                "tempo": 120.0
            },
            {
                "start_time": 22.36590909090909,
                "end_time": 22.568181818181817,
                "pitch": 67,
                "velocity": 127,
                "duration": 0.20227272727272805,
                "tempo": 120.0
            },
            {
                "start_time": 22.568181818181817,
                "end_time": 23.370454545454546,
                "pitch": 65,
                "velocity": 127,
                "duration": 0.8022727272727295,
                "tempo": 120.0
            },
            {
                "start_time": 23.370454545454546,
                "end_time": 23.470454545454544,
                "pitch": 71,
                "velocity": 127,
                "duration": 0.09999999999999787,
                "tempo": 120.0
            },
            {
                "start_time": 23.470454545454544,
                "end_time": 23.570454545454545,
                "pitch": 69,
                "velocity": 127,
                "duration": 0.10000000000000142,
                "tempo": 120.0
            },
            {
                "start_time": 23.570454545454545,
                "end_time": 23.670454545454543,
                "pitch": 67,
                "velocity": 127,
                "duration": 0.09999999999999787,
                "tempo": 120.0
            },
            {
                "start_time": 23.670454545454543,
                "end_time": 23.77272727272727,
                "pitch": 64,
                "velocity": 127,
                "duration": 0.10227272727272663,
                "tempo": 120.0
            },
            {
                "start_time": 23.77272727272727,
                "end_time": 23.972727272727273,
                "pitch": 67,
                "velocity": 127,
                "duration": 0.20000000000000284,
                "tempo": 120.0
            },
            {
                "start_time": 23.974999999999998,
                "end_time": 24.174999999999997,
                "pitch": 74,
                "velocity": 127,
                "duration": 0.1999999999999993,
                "tempo": 120.0
            },
            {
                "start_time": 24.174999999999997,
                "end_time": 24.27272727272727,
                "pitch": 72,
                "velocity": 127,
                "duration": 0.09772727272727266,
                "tempo": 120.0
            },
            {
                "start_time": 24.275,
                "end_time": 24.37272727272727,
                "pitch": 71,
                "velocity": 127,
                "duration": 0.09772727272727266,
                "tempo": 120.0
            },
            {
                "start_time": 24.375,
                "end_time": 25.786363636363635,
                "pitch": 69,
                "velocity": 127,
                "duration": 1.4113636363636353,
                "tempo": 120.0
            },
            {
                "start_time": 38.65,
                "end_time": 38.652272727272724,
                "pitch": 64,
                "velocity": 127,
                "duration": 0.0022727272727252057,
                "tempo": 120.0
            }
        ]
    }
}