{
    "track_id": "08 Visual Alien (Visual Scene 1)",
    "mood": "happy",
    "instruments": {
        "Electric Piano 1": [
            {
                "start_time": 1.05,
                "end_time": 1.3,
                "pitch": 50,
                "velocity": 64,
                "duration": 0.25,
                "tempo": 120.0
            },
            {
                "start_time": 1.7999999999999998,
                "end_time": 2.047727272727273,
                "pitch": 50,
                "velocity": 64,
                "duration": 0.24772727272727302,
                "tempo": 120.0
            },
            {
                "start_time": 2.293181818181818,
                "end_time": 3.536363636363636,
                "pitch": 51,
                "velocity": 64,
                "duration": 1.2431818181818182,
                "tempo": 120.0
            },
            {
                "start_time": 4.034090909090909,
                "end_time": 4.284090909090909,
                "pitch": 51,
                "velocity": 64,
                "duration": 0.25,
                "tempo": 120.0
            },
            {
                "start_time": 5.031818181818181,
                "end_time": 5.281818181818181,
                "pitch": 50,
                "velocity": 64,
                "duration": 0.25,
                "tempo": 120.0
            },
            {
                "start_time": 5.781818181818181,
                "end_time": 6.029545454545454,
                "pitch": 50,
                "velocity": 64,
                "duration": 0.24772727272727302,
                "tempo": 120.0
            },
            {
                "start_time": 6.2749999999999995,
                "end_time": 9.511363636363637,
                "pitch": 49,
                "velocity": 64,
                "duration": 3.236363636363637,
                "tempo": 120.0
            },
            {
                "start_time": 10.011363636363637,
                "end_time": 10.254545454545454,
                "pitch": 49,
                "velocity": 64,
                "duration": 0.24318181818181728,
                "tempo": 120.0
            },
            {
                "start_time": 11.002272727272727,
                "end_time": 11.25,
                "pitch": 50,
                "velocity": 64,
                "duration": 0.24772727272727302,
                "tempo": 120.0
            },
            {
                "start_time": 11.75,
                "end_time": 11.997727272727273,
                "pitch": 50,
                "velocity": 64,
                "duration": 0.24772727272727302,
                "tempo": 120.0
            },
            {
                "start_time": 12.247727272727273,
                "end_time": 13.486363636363636,
                "pitch": 51,
                "velocity": 64,
                "duration": 1.2386363636363633,
                "tempo": 120.0
            },
            {
                "start_time": 13.997727272727271,
                "end_time": 14.24090909090909,
                "pitch": 51,
                "velocity": 64,
                "duration": 0.24318181818181905,
                "tempo": 120.0
            },
            {
                "start_time": 14.986363636363636,
                "end_time": 15.236363636363636,
                "pitch": 50,
                "velocity": 64,
                "duration": 0.25,
                "tempo": 120.0
            },
            {
                "start_time": 15.736363636363636,
                "end_time": 15.984090909090908,
                "pitch": 50,
                "velocity": 64,
                "duration": 0.24772727272727124,
                "tempo": 120.0
            },
            {
                "start_time": 16.236363636363635,
                "end_time": 19.470454545454544,
                "pitch": 49,
                "velocity": 64,
                "duration": 3.2340909090909093,
                "tempo": 120.0
            },
            {
                "start_time": 19.970454545454544,
                "end_time": 20.21818181818182,
                "pitch": 49,
                "velocity": 64,
                "duration": 0.2477272727272748,
                "tempo": 120.0
            },
            {
                "start_time": 20.46818181818182,
                "end_time": 20.68409090909091,
                "pitch": 55,
                "velocity": 64,
                "duration": 0.21590909090908994,
                "tempo": 120.0
            },
            {
                "start_time": 20.68409090909091,
                "end_time": 20.73409090909091,
                "pitch": 55,
                "velocity": 64,
                "duration": 0.05000000000000071,
                "tempo": 120.0
            },
            {
                "start_time": 20.73409090909091,
                "end_time": 20.818181818181817,
                "pitch": 55,
                "velocity": 64,
                "duration": 0.08409090909090722,
                "tempo": 120.0
            },
            {
                "start_time": 20.73409090909091,
                "end_time": 20.868181818181817,
                "pitch": 0,
                "velocity": 64,
                "duration": 0.13409090909090793,
                "tempo": 120.0
            },
            {
                "start_time": 20.818181818181817,
                "end_time": 20.868181818181817,
                "pitch": 55,
                "velocity": 64,
                "duration": 0.05000000000000071,
                "tempo": 120.0
            },
            {
                "start_time": 20.868181818181817,
                "end_time": 20.95,
                "pitch": 55,
                "velocity": 64,
                "duration": 0.08181818181818201,
                "tempo": 120.0
            },
            {
                "start_time": 20.68409090909091,
                "end_time": 20.95,
                "pitch": 67,
                "velocity": 64,
                "duration": 0.26590909090909065,
                "tempo": 120.0
            },
            {
                "start_time": 20.868181818181817,
                "end_time": 21.0,
                "pitch": 0,
                "velocity": 64,
                "duration": 0.13181818181818272,
                "tempo": 120.0
            },
            {
                "start_time": 20.95,
                "end_time": 21.0,
                "pitch": 55,
                "velocity": 64,
                "duration": 0.05000000000000071,
                "tempo": 120.0
            },
            {
                "start_time": 21.0,
                "end_time": 21.084090909090907,
                "pitch": 55,
                "velocity": 64,
                "duration": 0.08409090909090722,
                "tempo": 120.0
            },
            {
                "start_time": 20.95,
                "end_time": 21.084090909090907,
                "pitch": 67,
                "velocity": 64,
                "duration": 0.13409090909090793,
                "tempo": 120.0
            },
            {
                "start_time": 21.0,
                "end_time": 21.134090909090908,
                "pitch": 0,
                "velocity": 64,
                "duration": 0.13409090909090793,
                "tempo": 120.0
            },
            {
                "start_time": 21.084090909090907,
                "end_time": 21.134090909090908,
                "pitch": 55,
                "velocity": 64,
                "duration": 0.05000000000000071,
                "tempo": 120.0
            },
            {
                "start_time": 21.134090909090908,
                "end_time": 21.21590909090909,
                "pitch": 55,
                "velocity": 64,
                "duration": 0.08181818181818201,
                "tempo": 120.0
            },
            {
                "start_time": 21.084090909090907,
                "end_time": 21.21590909090909,
                "pitch": 67,
                "velocity": 64,
                "duration": 0.13181818181818272,
                "tempo": 120.0
            },
            {
                "start_time": 21.134090909090908,
                "end_time": 21.26590909090909,
                "pitch": 0,
                "velocity": 64,
                "duration": 0.13181818181818272,
                "tempo": 120.0
            },
            {
                "start_time": 21.21590909090909,
                "end_time": 21.26590909090909,
                "pitch": 55,
                "velocity": 64,
                "duration": 0.05000000000000071,
                "tempo": 120.0
            },
            {
                "start_time": 21.26590909090909,
                "end_time": 21.349999999999998,
                "pitch": 55,
                "velocity": 64,
                "duration": 0.08409090909090722,
                "tempo": 120.0
            },
            {
                "start_time": 21.21590909090909,
                "end_time": 21.349999999999998,
                "pitch": 67,
                "velocity": 64,
                "duration": 0.13409090909090793,
                "tempo": 120.0
            },
            {
                "start_time": 21.26590909090909,
                "end_time": 21.4,
                "pitch": 0,
                "velocity": 64,
                "duration": 0.13409090909090793,
                "tempo": 120.0
            },
            {
                "start_time": 21.349999999999998,
                "end_time": 21.4,
                "pitch": 55,
                "velocity": 64,
                "duration": 0.05000000000000071,
                "tempo": 120.0
            },
            {
                "start_time": 21.4,
                "end_time": 21.46590909090909,
                "pitch": 55,
                "velocity": 64,
                "duration": 0.06590909090909136,
                "tempo": 120.0
            },
            {
                "start_time": 22.095454545454544,
                "end_time": 22.209090909090907,
                "pitch": 60,
                "velocity": 64,
                "duration": 0.11363636363636331,
                "tempo": 120.0
            },
            {
                "start_time": 22.211363636363636,
                "end_time": 22.34090909090909,
                "pitch": 57,
                "velocity": 64,
                "duration": 0.12954545454545396,
                "tempo": 120.0
            },
            {
                "start_time": 22.34090909090909,
                "end_time": 22.454545454545453,
                "pitch": 58,
                "velocity": 64,
                "duration": 0.11363636363636331,
                "tempo": 120.0
            },
            {
                "start_time": 22.456818181818182,
                "end_time": 22.670454545454543,
                "pitch": 55,
                "velocity": 64,
                "duration": 0.21363636363636118,
                "tempo": 120.0
            },
            {
                "start_time": 21.349999999999998,
                "end_time": 22.670454545454543,
                "pitch": 67,
                "velocity": 64,
                "duration": 1.3204545454545453,
                "tempo": 120.0
            },
            {
                "start_time": 21.4,
                "end_time": 22.720454545454544,
                "pitch": 0,
                "velocity": 64,
                "duration": 1.3204545454545453,
                "tempo": 120.0
            },
            {
                "start_time": 22.670454545454543,
                "end_time": 22.720454545454544,
                "pitch": 55,
                "velocity": 64,
                "duration": 0.05000000000000071,
                "tempo": 120.0
            },
            {
                "start_time": 22.720454545454544,
                "end_time": 22.804545454545455,
                "pitch": 55,
                "velocity": 64,
                "duration": 0.08409090909091077,
                "tempo": 120.0
            },
            {
                "start_time": 22.670454545454543,
                "end_time": 22.804545454545455,
                "pitch": 67,
                "velocity": 64,
                "duration": 0.13409090909091148,
                "tempo": 120.0
            },
            {
                "start_time": 22.720454545454544,
                "end_time": 22.854545454545452,
                "pitch": 0,
                "velocity": 64,
                "duration": 0.13409090909090793,
                "tempo": 120.0
            },
            {
                "start_time": 22.804545454545455,
                "end_time": 22.854545454545452,
                "pitch": 55,
                "velocity": 64,
                "duration": 0.04999999999999716,
                "tempo": 120.0
            },
            {
                "start_time": 22.854545454545452,
                "end_time": 22.936363636363634,
                "pitch": 55,
                "velocity": 64,
                "duration": 0.08181818181818201,
                "tempo": 120.0
            },
            {
                "start_time": 22.804545454545455,
                "end_time": 22.936363636363634,
                "pitch": 67,
                "velocity": 64,
                "duration": 0.13181818181817917,
                "tempo": 120.0
            },
            {
                "start_time": 22.854545454545452,
                "end_time": 22.986363636363635,
                "pitch": 0,
                "velocity": 64,
                "duration": 0.13181818181818272,
                "tempo": 120.0
            },
            {
                "start_time": 22.936363636363634,
                "end_time": 22.986363636363635,
                "pitch": 55,
                "velocity": 64,
                "duration": 0.05000000000000071,
                "tempo": 120.0
            },
            {
                "start_time": 22.986363636363635,
                "end_time": 23.070454545454545,
                "pitch": 55,
                "velocity": 64,
                "duration": 0.08409090909091077,
                "tempo": 120.0
            },
            {
                "start_time": 22.936363636363634,
                "end_time": 23.070454545454545,
                "pitch": 67,
                "velocity": 64,
                "duration": 0.13409090909091148,
                "tempo": 120.0
            },
            {
                "start_time": 22.986363636363635,
                "end_time": 23.120454545454546,
                "pitch": 0,
                "velocity": 64,
                "duration": 0.13409090909091148,
                "tempo": 120.0
            },
            {
                "start_time": 23.070454545454545,
                "end_time": 23.120454545454546,
                "pitch": 55,
                "velocity": 64,
                "duration": 0.05000000000000071,
                "tempo": 120.0
            },
            {
                "start_time": 23.120454545454546,
                "end_time": 23.204545454545453,
                "pitch": 55,
                "velocity": 64,
                "duration": 0.08409090909090722,
                "tempo": 120.0
            },
            {
                "start_time": 23.070454545454545,
                "end_time": 23.204545454545453,
                "pitch": 67,
                "velocity": 64,
                "duration": 0.13409090909090793,
                "tempo": 120.0
            },
            {
                "start_time": 23.120454545454546,
                "end_time": 23.252272727272725,
                "pitch": 0,
                "velocity": 64,
                "duration": 0.13181818181817917,
                "tempo": 120.0
            },
            {
                "start_time": 23.204545454545453,
                "end_time": 23.252272727272725,
                "pitch": 55,
                "velocity": 64,
                "duration": 0.04772727272727195,
                "tempo": 120.0
            },
            {
                "start_time": 23.252272727272725,
                "end_time": 23.336363636363636,
                "pitch": 55,
                "velocity": 64,
                "duration": 0.08409090909091077,
                "tempo": 120.0
            },
            {
                "start_time": 23.204545454545453,
                "end_time": 23.336363636363636,
                "pitch": 67,
                "velocity": 64,
                "duration": 0.13181818181818272,
                "tempo": 120.0
            },
            {
                "start_time": 23.336363636363636,
                "end_time": 23.386363636363637,
                "pitch": 55,
                "velocity": 64,
                "duration": 0.05000000000000071,
                "tempo": 120.0
            },
            {
                "start_time": 23.386363636363637,
                "end_time": 23.452272727272724,
                "pitch": 55,
                "velocity": 64,
                "duration": 0.06590909090908781,
                "tempo": 120.0
            },
            {
                "start_time": 24.45,
                "end_time": 24.66590909090909,
                "pitch": 55,
                "velocity": 64,
                "duration": 0.21590909090908994,
                "tempo": 120.0
            },
            {
                "start_time": 23.336363636363636,
                "end_time": 24.66590909090909,
                "pitch": 67,
                "velocity": 64,
                "duration": 1.3295454545454533,
                "tempo": 120.0
            },
            {
                "start_time": 23.252272727272725,
                "end_time": 24.71590909090909,
                "pitch": 0,
                "velocity": 64,
                "duration": 1.4636363636363647,
                "tempo": 120.0
            },
            {
                "start_time": 24.66590909090909,
                "end_time": 24.71590909090909,
                "pitch": 55,
                "velocity": 64,
                "duration": 0.05000000000000071,
                "tempo": 120.0
            },
            {
                "start_time": 24.71590909090909,
                "end_time": 24.797727272727272,
                "pitch": 55,
                "velocity": 64,
                "duration": 0.08181818181818201,
                "tempo": 120.0
            },
            {
                "start_time": 24.66590909090909,
                "end_time": 24.797727272727272,
                "pitch": 67,
                "velocity": 64,
                "duration": 0.13181818181818272,
                "tempo": 120.0
            },
            {
                "start_time": 24.71590909090909,
                "end_time": 24.847727272727273,
                "pitch": 0,
                "velocity": 64,
                "duration": 0.13181818181818272,
                "tempo": 120.0
            },
            {
                "start_time": 24.797727272727272,
                "end_time": 24.847727272727273,
                "pitch": 55,
                "velocity": 64,
                "duration": 0.05000000000000071,
                "tempo": 120.0
            },
            {
                "start_time": 24.847727272727273,
                "end_time": 24.93181818181818,
                "pitch": 55,
                "velocity": 64,
                "duration": 0.08409090909090722,
                "tempo": 120.0
            },
            {
                "start_time": 24.797727272727272,
                "end_time": 24.93181818181818,
                "pitch": 67,
                "velocity": 64,
                "duration": 0.13409090909090793,
                "tempo": 120.0
            },
            {
                "start_time": 24.847727272727273,
                "end_time": 24.98181818181818,
                "pitch": 0,
                "velocity": 64,
                "duration": 0.13409090909090793,
                "tempo": 120.0
            },
            {
                "start_time": 24.93181818181818,
                "end_time": 24.98181818181818,
                "pitch": 55,
                "velocity": 64,
                "duration": 0.05000000000000071,
                "tempo": 120.0
            },
            {
                "start_time": 24.98181818181818,
                "end_time": 25.06590909090909,
                "pitch": 55,
                "velocity": 64,
                "duration": 0.08409090909091077,
                "tempo": 120.0
            },
            {
                "start_time": 24.93181818181818,
                "end_time": 25.06590909090909,
                "pitch": 67,
                "velocity": 64,
                "duration": 0.13409090909091148,
                "tempo": 120.0
            },
            {
                "start_time": 24.98181818181818,
                "end_time": 25.113636363636363,
                "pitch": 0,
                "velocity": 64,
                "duration": 0.13181818181818272,
                "tempo": 120.0
            },
            {
                "start_time": 25.06590909090909,
                "end_time": 25.113636363636363,
                "pitch": 55,
                "velocity": 64,
                "duration": 0.04772727272727195,
                "tempo": 120.0
            },
            {
                "start_time": 25.113636363636363,
                "end_time": 25.19772727272727,
                "pitch": 55,
                "velocity": 64,
                "duration": 0.08409090909090722,
                "tempo": 120.0
            },
            {
                "start_time": 25.06590909090909,
                "end_time": 25.19772727272727,
                "pitch": 67,
                "velocity": 64,
                "duration": 0.13181818181817917,
                "tempo": 120.0
            },
            {
                "start_time": 25.113636363636363,
                "end_time": 25.24772727272727,
                "pitch": 0,
                "velocity": 64,
                "duration": 0.13409090909090793,
                "tempo": 120.0
            },
            {
                "start_time": 25.19772727272727,
                "end_time": 25.24772727272727,
                "pitch": 55,
                "velocity": 64,
                "duration": 0.05000000000000071,
                "tempo": 120.0
            },
            {
                "start_time": 25.24772727272727,
                "end_time": 25.331818181818182,
                "pitch": 55,
                "velocity": 64,
                "duration": 0.08409090909091077,
                "tempo": 120.0
            },
            {
                "start_time": 25.19772727272727,
                "end_time": 25.331818181818182,
                "pitch": 67,
                "velocity": 64,
                "duration": 0.13409090909091148,
                "tempo": 120.0
            },
            {
                "start_time": 25.24772727272727,
                "end_time": 25.38181818181818,
                "pitch": 0,
                "velocity": 64,
                "duration": 0.13409090909090793,
                "tempo": 120.0
            },
            {
                "start_time": 25.331818181818182,
                "end_time": 25.38181818181818,
                "pitch": 55,
                "velocity": 64,
                "duration": 0.04999999999999716,
                "tempo": 120.0
            },
            {
                "start_time": 25.38181818181818,
                "end_time": 25.44772727272727,
                "pitch": 55,
                "velocity": 64,
                "duration": 0.06590909090909136,
                "tempo": 120.0
            },
            {
                "start_time": 26.077272727272724,
                "end_time": 26.19090909090909,
                "pitch": 55,
                "velocity": 64,
                "duration": 0.11363636363636687,
                "tempo": 120.0
            },
            {
                "start_time": 26.19090909090909,
                "end_time": 26.320454545454545,
                "pitch": 62,
                "velocity": 64,
                "duration": 0.12954545454545396,
                "tempo": 120.0
            },
            {
                "start_time": 25.331818181818182,
                "end_time": 26.536363636363635,
                "pitch": 67,
                "velocity": 64,
                "duration": 1.2045454545454533,
                "tempo": 120.0
            },
            {
                "start_time": 26.32272727272727,
                "end_time": 26.536363636363635,
                "pitch": 67,
                "velocity": 64,
                "duration": 0.21363636363636473,
                "tempo": 120.0
            },
            {
                "start_time": 26.536363636363635,
                "end_time": 26.668181818181818,
                "pitch": 67,
                "velocity": 64,
                "duration": 0.13181818181818272,
                "tempo": 120.0
            },
            {
                "start_time": 26.536363636363635,
                "end_time": 26.668181818181818,
                "pitch": 79,
                "velocity": 64,
                "duration": 0.13181818181818272,
                "tempo": 120.0
            },
            {
                "start_time": 26.668181818181818,
                "end_time": 26.802272727272726,
                "pitch": 67,
                "velocity": 64,
                "duration": 0.13409090909090793,
                "tempo": 120.0
            },
            {
                "start_time": 26.802272727272726,
                "end_time": 26.936363636363634,
                "pitch": 67,
                "velocity": 64,
                "duration": 0.13409090909090793,
                "tempo": 120.0
            },
            {
                "start_time": 26.936363636363634,
                "end_time": 27.068181818181817,
                "pitch": 67,
                "velocity": 64,
                "duration": 0.13181818181818272,
                "tempo": 120.0
            },
            {
                "start_time": 27.068181818181817,
                "end_time": 27.2,
                "pitch": 67,
                "velocity": 64,
                "duration": 0.13181818181818272,
                "tempo": 120.0
            },
            {
                "start_time": 27.2,
                "end_time": 27.334090909090907,
                "pitch": 67,
                "velocity": 64,
                "duration": 0.13409090909090793,
                "tempo": 120.0
            },
            {
                "start_time": 27.334090909090907,
                "end_time": 27.43409090909091,
                "pitch": 67,
                "velocity": 64,
                "duration": 0.10000000000000142,
                "tempo": 120.0
            },
            {
                "start_time": 27.93409090909091,
                "end_time": 28.429545454545455,
                "pitch": 62,
                "velocity": 64,
                "duration": 0.49545454545454604,
                "tempo": 120.0
            },
            {
                "start_time": 28.43181818181818,
                "end_time": 29.429545454545455,
                "pitch": 58,
                "velocity": 64,
                "duration": 0.9977272727272748,
                "tempo": 120.0
            },
            {
                "start_time": 30.05909090909091,
                "end_time": 30.172727272727272,
                "pitch": 62,
                "velocity": 64,
                "duration": 0.11363636363636331,
                "tempo": 120.0
            },
            {
                "start_time": 30.172727272727272,
                "end_time": 30.302272727272726,
                "pitch": 58,
                "velocity": 64,
                "duration": 0.12954545454545396,
                "tempo": 120.0
            },
            {
                "start_time": 30.304545454545455,
                "end_time": 30.418181818181818,
                "pitch": 60,
                "velocity": 64,
                "duration": 0.11363636363636331,
                "tempo": 120.0
            },
            {
                "start_time": 30.418181818181818,
                "end_time": 31.41590909090909,
                "pitch": 58,
                "velocity": 64,
                "duration": 0.9977272727272712,
                "tempo": 120.0
            },
            {
                "start_time": 32.413636363636364,
                "end_time": 33.402272727272724,
                "pitch": 58,
                "velocity": 64,
                "duration": 0.9886363636363598,
                "tempo": 120.0
            },
            {
                "start_time": 34.043181818181814,
                "end_time": 34.15681818181818,
                "pitch": 62,
                "velocity": 64,
                "duration": 0.11363636363636687,
                "tempo": 120.0
            },
            {
                "start_time": 34.15909090909091,
                "end_time": 34.288636363636364,
                "pitch": 67,
                "velocity": 64,
                "duration": 0.12954545454545752,
                "tempo": 120.0
            },
            {
                "start_time": 34.288636363636364,
                "end_time": 35.4,
                "pitch": 70,
                "velocity": 64,
                "duration": 1.1113636363636346,
                "tempo": 120.0
            },
            {
                "start_time": 35.9,
                "end_time": 36.11590909090909,
                "pitch": 67,
                "velocity": 64,
                "duration": 0.2159090909090935,
                "tempo": 120.0
            },
            {
                "start_time": 26.668181818181818,
                "end_time": 36.11590909090909,
                "pitch": 79,
                "velocity": 64,
                "duration": 9.447727272727274,
                "tempo": 120.0
            },
            {
                "start_time": 36.11590909090909,
                "end_time": 36.24772727272727,
                "pitch": 67,
                "velocity": 64,
                "duration": 0.13181818181817562,
                "tempo": 120.0
            },
            {
                "start_time": 36.24772727272727,
                "end_time": 36.38181818181818,
                "pitch": 67,
                "velocity": 64,
                "duration": 0.13409090909091503,
                "tempo": 120.0
            },
            {
                "start_time": 36.38181818181818,
                "end_time": 36.39772727272727,
                "pitch": 67,
                "velocity": 64,
                "duration": 0.01590909090909065,
                "tempo": 120.0
            },
            {
                "start_time": 36.89772727272727,
                "end_time": 37.143181818181816,
                "pitch": 50,
                "velocity": 64,
                "duration": 0.24545454545454248,
                "tempo": 120.0
            },
            {
                "start_time": 37.63863636363636,
                "end_time": 37.88636363636363,
                "pitch": 50,
                "velocity": 64,
                "duration": 0.2477272727272748,
                "tempo": 120.0
            },
            {
                "start_time": 38.13636363636363,
                "end_time": 39.38181818181818,
                "pitch": 51,
                "velocity": 64,
                "duration": 1.2454545454545496,
                "tempo": 120.0
            },
            {
                "start_time": 39.88181818181818,
                "end_time": 40.12954545454545,
                "pitch": 51,
                "velocity": 64,
                "duration": 0.2477272727272677,
                "tempo": 120.0
            },
            {
                "start_time": 40.87954545454545,
                "end_time": 41.125,
                "pitch": 50,
                "velocity": 64,
                "duration": 0.2454545454545496,
                "tempo": 120.0
            },
            {
                "start_time": 41.625,
                "end_time": 41.87954545454545,
                "pitch": 50,
                "velocity": 64,
                "duration": 0.2545454545454504,
                "tempo": 120.0
            },
            {
                "start_time": 42.127272727272725,
                "end_time": 45.35454545454545,
                "pitch": 49,
                "velocity": 64,
                "duration": 3.2272727272727266,
                "tempo": 120.0
            },
            {
                "start_time": 45.85681818181818,
                "end_time": 46.10227272727273,
                "pitch": 49,
                "velocity": 64,
                "duration": 0.2454545454545496,
                "tempo": 120.0
            },
            {
                "start_time": 46.85227272727273,
                "end_time": 47.099999999999994,
                "pitch": 50,
                "velocity": 64,
                "duration": 0.2477272727272677,
                "tempo": 120.0
            },
            {
                "start_time": 47.599999999999994,
                "end_time": 47.849999999999994,
                "pitch": 50,
                "velocity": 64,
                "duration": 0.25,
                "tempo": 120.0
            },
            {
                "start_time": 48.099999999999994,
                "end_time": 49.336363636363636,
                "pitch": 51,
                "velocity": 64,
                "duration": 1.2363636363636417,
                "tempo": 120.0
            },
            {
                "start_time": 49.836363636363636,
                "end_time": 50.084090909090904,
                "pitch": 51,
                "velocity": 64,
                "duration": 0.2477272727272677,
                "tempo": 120.0
            },
            {
                "start_time": 50.834090909090904,
                "end_time": 51.08181818181818,
                "pitch": 50,
                "velocity": 64,
                "duration": 0.2477272727272748,
                "tempo": 120.0
            },
            {
                "start_time": 51.58181818181818,
                "end_time": 51.83181818181818,
                "pitch": 50,
                "velocity": 64,
                "duration": 0.25,
                "tempo": 120.0
            },
            {
                "start_time": 52.08181818181818,
                "end_time": 55.31363636363636,
                "pitch": 49,
                "velocity": 64,
                "duration": 3.231818181818184,
                "tempo": 120.0
            },
            {
                "start_time": 55.81363636363636,
                "end_time": 56.06818181818181,
                "pitch": 49,
                "velocity": 64,
                "duration": 0.2545454545454504,
                "tempo": 120.0
            }
        ]
    }
}