{
    "track_id": "08 Village-Town",
    "mood": "happy",
    "instruments": {
        "Electric Piano 1": [
            {
                "start_time": 14.122727272727271,
                "end_time": 14.322727272727272,
                "pitch": 74,
                "velocity": 51,
                "duration": 0.20000000000000107,
                "tempo": 120.0
            },
            {
                "start_time": 14.322727272727272,
                "end_time": 14.524999999999999,
                "pitch": 72,
                "velocity": 51,
                "duration": 0.20227272727272627,
                "tempo": 120.0
            },
            {
                "start_time": 14.524999999999999,
                "end_time": 14.929545454545455,
                "pitch": 70,
                "velocity": 51,
                "duration": 0.4045454545454561,
                "tempo": 120.0
            },
            {
                "start_time": 14.929545454545455,
                "end_time": 15.338636363636363,
                "pitch": 70,
                "velocity": 51,
                "duration": 0.4090909090909083,
                "tempo": 120.0
            },
            {
                "start_time": 15.34090909090909,
                "end_time": 15.74090909090909,
                "pitch": 70,
                "velocity": 51,
                "duration": 0.40000000000000036,
                "tempo": 120.0
            },
            {
                "start_time": 15.743181818181817,
                "end_time": 15.790909090909091,
                "pitch": 82,
                "velocity": 16,
                "duration": 0.04772727272727373,
                "tempo": 120.0
            },
            {
                "start_time": 15.790909090909091,
                "end_time": 15.84090909090909,
                "pitch": 82,
                "velocity": 20,
                "duration": 0.049999999999998934,
                "tempo": 120.0
            },
            {
                "start_time": 15.84090909090909,
                "end_time": 15.888636363636364,
                "pitch": 82,
                "velocity": 25,
                "duration": 0.04772727272727373,
                "tempo": 120.0
            },
            {
                "start_time": 15.888636363636364,
                "end_time": 15.938636363636363,
                "pitch": 82,
                "velocity": 32,
                "duration": 0.049999999999998934,
                "tempo": 120.0
            },
            {
                "start_time": 15.938636363636363,
                "end_time": 15.986363636363636,
                "pitch": 82,
                "velocity": 40,
                "duration": 0.04772727272727373,
                "tempo": 120.0
            },
            {
                "start_time": 15.988636363636363,
                "end_time": 16.036363636363635,
                "pitch": 82,
                "velocity": 51,
                "duration": 0.04772727272727195,
                "tempo": 120.0
            },
            {
                "start_time": 16.036363636363635,
                "end_time": 16.086363636363636,
                "pitch": 82,
                "velocity": 64,
                "duration": 0.05000000000000071,
                "tempo": 120.0
            },
            {
                "start_time": 16.086363636363636,
                "end_time": 16.136363636363637,
                "pitch": 82,
                "velocity": 80,
                "duration": 0.05000000000000071,
                "tempo": 120.0
            },
            {
                "start_time": 16.136363636363637,
                "end_time": 16.186363636363634,
                "pitch": 82,
                "velocity": 80,
                "duration": 0.04999999999999716,
                "tempo": 120.0
            },
            {
                "start_time": 16.188636363636363,
                "end_time": 16.238636363636363,
                "pitch": 82,
                "velocity": 64,
                "duration": 0.05000000000000071,
                "tempo": 120.0
            },
            {
                "start_time": 16.238636363636363,
                "end_time": 16.29090909090909,
                "pitch": 82,
                "velocity": 51,
                "duration": 0.052272727272725916,
                "tempo": 120.0
            },
            {
                "start_time": 16.29090909090909,
                "end_time": 16.34090909090909,
                "pitch": 82,
                "velocity": 40,
                "duration": 0.05000000000000071,
                "tempo": 120.0
            },
            {
                "start_time": 16.34090909090909,
                "end_time": 16.393181818181816,
                "pitch": 82,
                "velocity": 32,
                "duration": 0.052272727272725916,
                "tempo": 120.0
            },
            {
                "start_time": 16.393181818181816,
                "end_time": 16.443181818181817,
                "pitch": 82,
                "velocity": 25,
                "duration": 0.05000000000000071,
                "tempo": 120.0
            },
            {
                "start_time": 16.445454545454545,
                "end_time": 16.495454545454546,
                "pitch": 82,
                "velocity": 20,
                "duration": 0.05000000000000071,
                "tempo": 120.0
            },
            {
                "start_time": 16.495454545454546,
                "end_time": 16.547727272727272,
                "pitch": 82,
                "velocity": 16,
                "duration": 0.052272727272725916,
                "tempo": 120.0
            },
            {
                "start_time": 16.547727272727272,
                "end_time": 16.752272727272725,
                "pitch": 82,
                "velocity": 40,
                "duration": 0.20454545454545325,
                "tempo": 120.0
            },
            {
                "start_time": 16.752272727272725,
                "end_time": 16.956818181818182,
                "pitch": 70,
                "velocity": 51,
                "duration": 0.2045454545454568,
                "tempo": 120.0
            },
            {
                "start_time": 16.956818181818182,
                "end_time": 17.147727272727273,
                "pitch": 75,
                "velocity": 51,
                "duration": 0.19090909090909136,
                "tempo": 120.0
            },
            {
                "start_time": 17.147727272727273,
                "end_time": 17.34090909090909,
                "pitch": 74,
                "velocity": 51,
                "duration": 0.19318181818181657,
                "tempo": 120.0
            },
            {
                "start_time": 17.34090909090909,
                "end_time": 17.752272727272725,
                "pitch": 72,
                "velocity": 51,
                "duration": 0.41136363636363527,
                "tempo": 120.0
            },
            {
                "start_time": 17.752272727272725,
                "end_time": 18.152272727272727,
                "pitch": 72,
                "velocity": 51,
                "duration": 0.40000000000000213,
                "tempo": 120.0
            },
            {
                "start_time": 18.152272727272727,
                "end_time": 18.202272727272728,
                "pitch": 84,
                "velocity": 16,
                "duration": 0.05000000000000071,
                "tempo": 120.0
            },
            {
                "start_time": 18.202272727272728,
                "end_time": 18.252272727272725,
                "pitch": 84,
                "velocity": 20,
                "duration": 0.04999999999999716,
                "tempo": 120.0
            },
            {
                "start_time": 18.252272727272725,
                "end_time": 18.302272727272726,
                "pitch": 84,
                "velocity": 25,
                "duration": 0.05000000000000071,
                "tempo": 120.0
            },
            {
                "start_time": 18.304545454545455,
                "end_time": 18.354545454545455,
                "pitch": 84,
                "velocity": 32,
                "duration": 0.05000000000000071,
                "tempo": 120.0
            },
            {
                "start_time": 18.354545454545455,
                "end_time": 18.404545454545453,
                "pitch": 84,
                "velocity": 40,
                "duration": 0.04999999999999716,
                "tempo": 120.0
            },
            {
                "start_time": 18.404545454545453,
                "end_time": 18.454545454545453,
                "pitch": 84,
                "velocity": 51,
                "duration": 0.05000000000000071,
                "tempo": 120.0
            },
            {
                "start_time": 18.454545454545453,
                "end_time": 18.504545454545454,
                "pitch": 84,
                "velocity": 64,
                "duration": 0.05000000000000071,
                "tempo": 120.0
            },
            {
                "start_time": 18.504545454545454,
                "end_time": 18.554545454545455,
                "pitch": 84,
                "velocity": 64,
                "duration": 0.05000000000000071,
                "tempo": 120.0
            },
            {
                "start_time": 18.554545454545455,
                "end_time": 18.754545454545454,
                "pitch": 84,
                "velocity": 32,
                "duration": 0.1999999999999993,
                "tempo": 120.0
            },
            {
                "start_time": 18.75681818181818,
                "end_time": 18.956818181818182,
                "pitch": 74,
                "velocity": 51,
                "duration": 0.20000000000000284,
                "tempo": 120.0
            },
            {
                "start_time": 18.956818181818182,
                "end_time": 19.161363636363635,
                "pitch": 75,
                "velocity": 51,
                "duration": 0.20454545454545325,
                "tempo": 120.0
            },
            {
                "start_time": 19.161363636363635,
                "end_time": 19.36590909090909,
                "pitch": 76,
                "velocity": 51,
                "duration": 0.20454545454545325,
                "tempo": 120.0
            },
            {
                "start_time": 19.36590909090909,
                "end_time": 19.44772727272727,
                "pitch": 79,
                "velocity": 51,
                "duration": 0.08181818181818201,
                "tempo": 120.0
            },
            {
                "start_time": 19.44772727272727,
                "end_time": 19.611363636363635,
                "pitch": 79,
                "velocity": 51,
                "duration": 0.16363636363636402,
                "tempo": 120.0
            },
            {
                "start_time": 19.44772727272727,
                "end_time": 19.611363636363635,
                "pitch": 91,
                "velocity": 51,
                "duration": 0.16363636363636402,
                "tempo": 120.0
            },
            {
                "start_time": 19.611363636363635,
                "end_time": 19.759090909090908,
                "pitch": 79,
                "velocity": 51,
                "duration": 0.14772727272727337,
                "tempo": 120.0
            },
            {
                "start_time": 19.759090909090908,
                "end_time": 20.170454545454543,
                "pitch": 77,
                "velocity": 51,
                "duration": 0.41136363636363527,
                "tempo": 120.0
            },
            {
                "start_time": 20.170454545454543,
                "end_time": 20.570454545454545,
                "pitch": 75,
                "velocity": 51,
                "duration": 0.40000000000000213,
                "tempo": 120.0
            },
            {
                "start_time": 20.570454545454545,
                "end_time": 20.620454545454546,
                "pitch": 74,
                "velocity": 16,
                "duration": 0.05000000000000071,
                "tempo": 120.0
            },
            {
                "start_time": 20.620454545454546,
                "end_time": 20.668181818181818,
                "pitch": 74,
                "velocity": 20,
                "duration": 0.04772727272727195,
                "tempo": 120.0
            },
            {
                "start_time": 20.668181818181818,
                "end_time": 20.71818181818182,
                "pitch": 74,
                "velocity": 25,
                "duration": 0.05000000000000071,
                "tempo": 120.0
            },
            {
                "start_time": 20.71818181818182,
                "end_time": 20.76590909090909,
                "pitch": 74,
                "velocity": 32,
                "duration": 0.04772727272727195,
                "tempo": 120.0
            },
            {
                "start_time": 20.768181818181816,
                "end_time": 20.81590909090909,
                "pitch": 74,
                "velocity": 40,
                "duration": 0.047727272727275505,
                "tempo": 120.0
            },
            {
                "start_time": 20.81590909090909,
                "end_time": 20.86590909090909,
                "pitch": 74,
                "velocity": 51,
                "duration": 0.04999999999999716,
                "tempo": 120.0
            },
            {
                "start_time": 20.86590909090909,
                "end_time": 20.913636363636364,
                "pitch": 74,
                "velocity": 64,
                "duration": 0.047727272727275505,
                "tempo": 120.0
            },
            {
                "start_time": 20.913636363636364,
                "end_time": 20.96363636363636,
                "pitch": 74,
                "velocity": 64,
                "duration": 0.04999999999999716,
                "tempo": 120.0
            },
            {
                "start_time": 20.96363636363636,
                "end_time": 21.163636363636364,
                "pitch": 74,
                "velocity": 40,
                "duration": 0.20000000000000284,
                "tempo": 120.0
            },
            {
                "start_time": 21.163636363636364,
                "end_time": 21.36590909090909,
                "pitch": 75,
                "velocity": 51,
                "duration": 0.2022727272727245,
                "tempo": 120.0
            },
            {
                "start_time": 21.36590909090909,
                "end_time": 21.570454545454545,
                "pitch": 74,
                "velocity": 51,
                "duration": 0.2045454545454568,
                "tempo": 120.0
            },
            {
                "start_time": 21.570454545454545,
                "end_time": 21.775,
                "pitch": 72,
                "velocity": 51,
                "duration": 0.20454545454545325,
                "tempo": 120.0
            },
            {
                "start_time": 21.775,
                "end_time": 22.168181818181818,
                "pitch": 70,
                "velocity": 51,
                "duration": 0.3931818181818194,
                "tempo": 120.0
            },
            {
                "start_time": 24.195454545454545,
                "end_time": 24.577272727272724,
                "pitch": 58,
                "velocity": 51,
                "duration": 0.38181818181817917,
                "tempo": 120.0
            },
            {
                "start_time": 24.579545454545453,
                "end_time": 25.179545454545455,
                "pitch": 65,
                "velocity": 51,
                "duration": 0.6000000000000014,
                "tempo": 120.0
            },
            {
                "start_time": 25.179545454545455,
                "end_time": 25.379545454545454,
                "pitch": 58,
                "velocity": 51,
                "duration": 0.1999999999999993,
                "tempo": 120.0
            },
            {
                "start_time": 25.379545454545454,
                "end_time": 25.79090909090909,
                "pitch": 58,
                "velocity": 51,
                "duration": 0.41136363636363527,
                "tempo": 120.0
            },
            {
                "start_time": 25.79090909090909,
                "end_time": 26.193181818181817,
                "pitch": 65,
                "velocity": 51,
                "duration": 0.40227272727272734,
                "tempo": 120.0
            },
            {
                "start_time": 26.195454545454545,
                "end_time": 26.311363636363634,
                "pitch": 67,
                "velocity": 51,
                "duration": 0.11590909090908852,
                "tempo": 120.0
            },
            {
                "start_time": 26.311363636363634,
                "end_time": 26.395454545454545,
                "pitch": 67,
                "velocity": 51,
                "duration": 0.08409090909091077,
                "tempo": 120.0
            },
            {
                "start_time": 26.395454545454545,
                "end_time": 26.595454545454544,
                "pitch": 57,
                "velocity": 51,
                "duration": 0.1999999999999993,
                "tempo": 120.0
            },
            {
                "start_time": 26.595454545454544,
                "end_time": 26.795454545454543,
                "pitch": 58,
                "velocity": 51,
                "duration": 0.1999999999999993,
                "tempo": 120.0
            },
            {
                "start_time": 26.797727272727272,
                "end_time": 26.99772727272727,
                "pitch": 62,
                "velocity": 51,
                "duration": 0.1999999999999993,
                "tempo": 120.0
            },
            {
                "start_time": 26.99772727272727,
                "end_time": 27.19772727272727,
                "pitch": 63,
                "velocity": 51,
                "duration": 0.1999999999999993,
                "tempo": 120.0
            },
            {
                "start_time": 27.19772727272727,
                "end_time": 27.39772727272727,
                "pitch": 65,
                "velocity": 51,
                "duration": 0.1999999999999993,
                "tempo": 120.0
            },
            {
                "start_time": 27.39772727272727,
                "end_time": 27.799999999999997,
                "pitch": 70,
                "velocity": 51,
                "duration": 0.40227272727272734,
                "tempo": 120.0
            },
            {
                "start_time": 27.799999999999997,
                "end_time": 27.849999999999998,
                "pitch": 70,
                "velocity": 51,
                "duration": 0.05000000000000071,
                "tempo": 120.0
            },
            {
                "start_time": 27.849999999999998,
                "end_time": 27.9,
                "pitch": 72,
                "velocity": 51,
                "duration": 0.05000000000000071,
                "tempo": 120.0
            },
            {
                "start_time": 27.9,
                "end_time": 27.95,
                "pitch": 70,
                "velocity": 51,
                "duration": 0.05000000000000071,
                "tempo": 120.0
            },
            {
                "start_time": 27.95,
                "end_time": 28.0,
                "pitch": 72,
                "velocity": 51,
                "duration": 0.05000000000000071,
                "tempo": 120.0
            },
            {
                "start_time": 28.0,
                "end_time": 28.049999999999997,
                "pitch": 70,
                "velocity": 40,
                "duration": 0.04999999999999716,
                "tempo": 120.0
            },
            {
                "start_time": 28.052272727272726,
                "end_time": 28.102272727272727,
                "pitch": 72,
                "velocity": 40,
                "duration": 0.05000000000000071,
                "tempo": 120.0
            },
            {
                "start_time": 28.102272727272727,
                "end_time": 28.152272727272727,
                "pitch": 70,
                "velocity": 40,
                "duration": 0.05000000000000071,
                "tempo": 120.0
            },
            {
                "start_time": 28.152272727272727,
                "end_time": 28.202272727272724,
                "pitch": 72,
                "velocity": 40,
                "duration": 0.04999999999999716,
                "tempo": 120.0
            },
            {
                "start_time": 28.202272727272724,
                "end_time": 28.252272727272725,
                "pitch": 70,
                "velocity": 32,
                "duration": 0.05000000000000071,
                "tempo": 120.0
            },
            {
                "start_time": 28.252272727272725,
                "end_time": 28.302272727272726,
                "pitch": 72,
                "velocity": 32,
                "duration": 0.05000000000000071,
                "tempo": 120.0
            },
            {
                "start_time": 28.302272727272726,
                "end_time": 28.352272727272727,
                "pitch": 70,
                "velocity": 32,
                "duration": 0.05000000000000071,
                "tempo": 120.0
            },
            {
                "start_time": 28.352272727272727,
                "end_time": 28.402272727272727,
                "pitch": 72,
                "velocity": 32,
                "duration": 0.05000000000000071,
                "tempo": 120.0
            },
            {
                "start_time": 28.402272727272727,
                "end_time": 28.452272727272724,
                "pitch": 70,
                "velocity": 25,
                "duration": 0.04999999999999716,
                "tempo": 120.0
            },
            {
                "start_time": 28.452272727272724,
                "end_time": 28.502272727272725,
                "pitch": 72,
                "velocity": 25,
                "duration": 0.05000000000000071,
                "tempo": 120.0
            },
            {
                "start_time": 28.502272727272725,
                "end_time": 28.552272727272726,
                "pitch": 70,
                "velocity": 25,
                "duration": 0.05000000000000071,
                "tempo": 120.0
            },
            {
                "start_time": 28.552272727272726,
                "end_time": 28.602272727272727,
                "pitch": 72,
                "velocity": 25,
                "duration": 0.05000000000000071,
                "tempo": 120.0
            },
            {
                "start_time": 28.602272727272727,
                "end_time": 29.00681818181818,
                "pitch": 70,
                "velocity": 51,
                "duration": 0.40454545454545254,
                "tempo": 120.0
            },
            {
                "start_time": 29.00681818181818,
                "end_time": 29.60681818181818,
                "pitch": 72,
                "velocity": 51,
                "duration": 0.6000000000000014,
                "tempo": 120.0
            },
            {
                "start_time": 29.60681818181818,
                "end_time": 29.80681818181818,
                "pitch": 65,
                "velocity": 51,
                "duration": 0.1999999999999993,
                "tempo": 120.0
            },
            {
                "start_time": 29.80681818181818,
                "end_time": 30.209090909090907,
                "pitch": 65,
                "velocity": 51,
                "duration": 0.40227272727272734,
                "tempo": 120.0
            },
            {
                "start_time": 30.211363636363636,
                "end_time": 30.811363636363634,
                "pitch": 72,
                "velocity": 51,
                "duration": 0.5999999999999979,
                "tempo": 120.0
            },
            {
                "start_time": 30.813636363636363,
                "end_time": 31.013636363636362,
                "pitch": 74,
                "velocity": 51,
                "duration": 0.1999999999999993,
                "tempo": 120.0
            },
            {
                "start_time": 31.013636363636362,
                "end_time": 31.21363636363636,
                "pitch": 72,
                "velocity": 51,
                "duration": 0.1999999999999993,
                "tempo": 120.0
            },
            {
                "start_time": 31.21363636363636,
                "end_time": 31.41363636363636,
                "pitch": 70,
                "velocity": 51,
                "duration": 0.1999999999999993,
                "tempo": 120.0
            },
            {
                "start_time": 31.41363636363636,
                "end_time": 31.613636363636363,
                "pitch": 69,
                "velocity": 51,
                "duration": 0.20000000000000284,
                "tempo": 120.0
            },
            {
                "start_time": 31.61590909090909,
                "end_time": 31.815909090909088,
                "pitch": 70,
                "velocity": 51,
                "duration": 0.1999999999999993,
                "tempo": 120.0
            },
            {
                "start_time": 31.815909090909088,
                "end_time": 32.01590909090909,
                "pitch": 69,
                "velocity": 51,
                "duration": 0.20000000000000284,
                "tempo": 120.0
            },
            {
                "start_time": 26.311363636363634,
                "end_time": 32.018181818181816,
                "pitch": 79,
                "velocity": 51,
                "duration": 5.706818181818182,
                "tempo": 120.0
            },
            {
                "start_time": 32.01590909090909,
                "end_time": 32.018181818181816,
                "pitch": 79,
                "velocity": 51,
                "duration": 0.0022727272727252057,
                "tempo": 120.0
            },
            {
                "start_time": 32.01590909090909,
                "end_time": 32.168181818181814,
                "pitch": 67,
                "velocity": 51,
                "duration": 0.15227272727272378,
                "tempo": 120.0
            },
            {
                "start_time": 32.018181818181816,
                "end_time": 32.168181818181814,
                "pitch": 67,
                "velocity": 51,
                "duration": 0.14999999999999858,
                "tempo": 120.0
            },
            {
                "start_time": 32.168181818181814,
                "end_time": 32.21818181818182,
                "pitch": 67,
                "velocity": 51,
                "duration": 0.05000000000000426,
                "tempo": 120.0
            },
            {
                "start_time": 32.21818181818182,
                "end_time": 32.425,
                "pitch": 65,
                "velocity": 51,
                "duration": 0.20681818181817846,
                "tempo": 120.0
            },
            {
                "start_time": 32.425,
                "end_time": 32.62954545454545,
                "pitch": 64,
                "velocity": 51,
                "duration": 0.20454545454545325,
                "tempo": 120.0
            },
            {
                "start_time": 32.62954545454545,
                "end_time": 32.679545454545455,
                "pitch": 64,
                "velocity": 51,
                "duration": 0.05000000000000426,
                "tempo": 120.0
            },
            {
                "start_time": 32.679545454545455,
                "end_time": 32.72954545454545,
                "pitch": 65,
                "velocity": 51,
                "duration": 0.04999999999999716,
                "tempo": 120.0
            },
            {
                "start_time": 32.73181818181818,
                "end_time": 32.78181818181818,
                "pitch": 64,
                "velocity": 51,
                "duration": 0.05000000000000426,
                "tempo": 120.0
            },
            {
                "start_time": 32.78181818181818,
                "end_time": 32.83181818181818,
                "pitch": 65,
                "velocity": 51,
                "duration": 0.04999999999999716,
                "tempo": 120.0
            },
            {
                "start_time": 32.83181818181818,
                "end_time": 32.88181818181818,
                "pitch": 64,
                "velocity": 40,
                "duration": 0.05000000000000426,
                "tempo": 120.0
            },
            {
                "start_time": 32.88181818181818,
                "end_time": 32.93181818181818,
                "pitch": 65,
                "velocity": 40,
                "duration": 0.04999999999999716,
                "tempo": 120.0
            },
            {
                "start_time": 32.93181818181818,
                "end_time": 32.98181818181818,
                "pitch": 64,
                "velocity": 40,
                "duration": 0.04999999999999716,
                "tempo": 120.0
            },
            {
                "start_time": 32.98181818181818,
                "end_time": 33.03181818181818,
                "pitch": 65,
                "velocity": 40,
                "duration": 0.05000000000000426,
                "tempo": 120.0
            },
            {
                "start_time": 33.03409090909091,
                "end_time": 33.08181818181818,
                "pitch": 64,
                "velocity": 32,
                "duration": 0.04772727272727195,
                "tempo": 120.0
            },
            {
                "start_time": 33.08409090909091,
                "end_time": 33.13181818181818,
                "pitch": 65,
                "velocity": 32,
                "duration": 0.04772727272727195,
                "tempo": 120.0
            },
            {
                "start_time": 33.13409090909091,
                "end_time": 33.18181818181818,
                "pitch": 64,
                "velocity": 32,
                "duration": 0.04772727272727195,
                "tempo": 120.0
            },
            {
                "start_time": 33.184090909090905,
                "end_time": 33.23409090909091,
                "pitch": 65,
                "velocity": 32,
                "duration": 0.05000000000000426,
                "tempo": 120.0
            },
            {
                "start_time": 33.23409090909091,
                "end_time": 33.28409090909091,
                "pitch": 64,
                "velocity": 25,
                "duration": 0.04999999999999716,
                "tempo": 120.0
            },
            {
                "start_time": 33.28409090909091,
                "end_time": 33.33409090909091,
                "pitch": 65,
                "velocity": 25,
                "duration": 0.05000000000000426,
                "tempo": 120.0
            },
            {
                "start_time": 33.33409090909091,
                "end_time": 33.38409090909091,
                "pitch": 64,
                "velocity": 25,
                "duration": 0.04999999999999716,
                "tempo": 120.0
            },
            {
                "start_time": 33.38409090909091,
                "end_time": 33.434090909090905,
                "pitch": 65,
                "velocity": 25,
                "duration": 0.04999999999999716,
                "tempo": 120.0
            },
            {
                "start_time": 33.434090909090905,
                "end_time": 33.83409090909091,
                "pitch": 65,
                "velocity": 51,
                "duration": 0.4000000000000057,
                "tempo": 120.0
            },
            {
                "start_time": 33.83409090909091,
                "end_time": 34.23409090909091,
                "pitch": 70,
                "velocity": 51,
                "duration": 0.3999999999999986,
                "tempo": 120.0
            },
            {
                "start_time": 34.23409090909091,
                "end_time": 34.836363636363636,
                "pitch": 77,
                "velocity": 51,
                "duration": 0.6022727272727266,
                "tempo": 120.0
            },
            {
                "start_time": 34.836363636363636,
                "end_time": 35.038636363636364,
                "pitch": 70,
                "velocity": 51,
                "duration": 0.20227272727272805,
                "tempo": 120.0
            },
            {
                "start_time": 35.038636363636364,
                "end_time": 35.43863636363636,
                "pitch": 70,
                "velocity": 51,
                "duration": 0.3999999999999986,
                "tempo": 120.0
            },
            {
                "start_time": 35.43863636363636,
                "end_time": 35.83863636363636,
                "pitch": 77,
                "velocity": 51,
                "duration": 0.3999999999999986,
                "tempo": 120.0
            },
            {
                "start_time": 32.168181818181814,
                "end_time": 35.85681818181818,
                "pitch": 79,
                "velocity": 51,
                "duration": 3.6886363636363626,
                "tempo": 120.0
            },
            {
                "start_time": 35.83863636363636,
                "end_time": 35.85681818181818,
                "pitch": 79,
                "velocity": 51,
                "duration": 0.018181818181815856,
                "tempo": 120.0
            },
            {
                "start_time": 19.611363636363635,
                "end_time": 35.85681818181818,
                "pitch": 91,
                "velocity": 51,
                "duration": 16.245454545454542,
                "tempo": 120.0
            },
            {
                "start_time": 35.85681818181818,
                "end_time": 36.02272727272727,
                "pitch": 79,
                "velocity": 51,
                "duration": 0.16590909090909634,
                "tempo": 120.0
            },
            {
                "start_time": 35.85681818181818,
                "end_time": 36.02272727272727,
                "pitch": 91,
                "velocity": 51,
                "duration": 0.16590909090909634,
                "tempo": 120.0
            },
            {
                "start_time": 36.02272727272727,
                "end_time": 36.038636363636364,
                "pitch": 79,
                "velocity": 51,
                "duration": 0.01590909090909065,
                "tempo": 120.0
            },
            {
                "start_time": 36.038636363636364,
                "end_time": 36.23863636363636,
                "pitch": 69,
                "velocity": 51,
                "duration": 0.19999999999999574,
                "tempo": 120.0
            },
            {
                "start_time": 36.24090909090909,
                "end_time": 36.43863636363636,
                "pitch": 70,
                "velocity": 51,
                "duration": 0.19772727272727053,
                "tempo": 120.0
            },
            {
                "start_time": 36.44090909090909,
                "end_time": 36.64090909090909,
                "pitch": 74,
                "velocity": 51,
                "duration": 0.20000000000000284,
                "tempo": 120.0
            },
            {
                "start_time": 36.64090909090909,
                "end_time": 36.840909090909086,
                "pitch": 75,
                "velocity": 51,
                "duration": 0.19999999999999574,
                "tempo": 120.0
            },
            {
                "start_time": 36.84318181818182,
                "end_time": 37.043181818181814,
                "pitch": 77,
                "velocity": 51,
                "duration": 0.19999999999999574,
                "tempo": 120.0
            },
            {
                "start_time": 37.043181818181814,
                "end_time": 37.44318181818181,
                "pitch": 82,
                "velocity": 51,
                "duration": 0.3999999999999986,
                "tempo": 120.0
            },
            {
                "start_time": 37.44318181818181,
                "end_time": 37.49318181818182,
                "pitch": 82,
                "velocity": 51,
                "duration": 0.05000000000000426,
                "tempo": 120.0
            },
            {
                "start_time": 37.49318181818182,
                "end_time": 37.543181818181814,
                "pitch": 84,
                "velocity": 51,
                "duration": 0.04999999999999716,
                "tempo": 120.0
            },
            {
                "start_time": 37.543181818181814,
                "end_time": 37.59318181818182,
                "pitch": 82,
                "velocity": 51,
                "duration": 0.05000000000000426,
                "tempo": 120.0
            },
            {
                "start_time": 37.59318181818182,
                "end_time": 37.643181818181816,
                "pitch": 84,
                "velocity": 51,
                "duration": 0.04999999999999716,
                "tempo": 120.0
            },
            {
                "start_time": 37.64545454545454,
                "end_time": 37.69318181818181,
                "pitch": 82,
                "velocity": 40,
                "duration": 0.04772727272727195,
                "tempo": 120.0
            },
            {
                "start_time": 37.695454545454545,
                "end_time": 37.74318181818182,
                "pitch": 84,
                "velocity": 40,
                "duration": 0.04772727272727195,
                "tempo": 120.0
            },
            {
                "start_time": 37.74545454545454,
                "end_time": 37.793181818181814,
                "pitch": 82,
                "velocity": 40,
                "duration": 0.04772727272727195,
                "tempo": 120.0
            },
            {
                "start_time": 37.79545454545455,
                "end_time": 37.84318181818182,
                "pitch": 84,
                "velocity": 40,
                "duration": 0.04772727272727195,
                "tempo": 120.0
            },
            {
                "start_time": 37.845454545454544,
                "end_time": 37.893181818181816,
                "pitch": 82,
                "velocity": 32,
                "duration": 0.04772727272727195,
                "tempo": 120.0
            },
            {
                "start_time": 37.89545454545454,
                "end_time": 37.945454545454545,
                "pitch": 84,
                "velocity": 32,
                "duration": 0.05000000000000426,
                "tempo": 120.0
            },
            {
                "start_time": 37.945454545454545,
                "end_time": 37.99545454545454,
                "pitch": 82,
                "velocity": 32,
                "duration": 0.04999999999999716,
                "tempo": 120.0
            },
            {
                "start_time": 37.99545454545454,
                "end_time": 38.04545454545455,
                "pitch": 84,
                "velocity": 32,
                "duration": 0.05000000000000426,
                "tempo": 120.0
            },
            {
                "start_time": 38.04545454545455,
                "end_time": 38.095454545454544,
                "pitch": 82,
                "velocity": 25,
                "duration": 0.04999999999999716,
                "tempo": 120.0
            },
            {
                "start_time": 38.095454545454544,
                "end_time": 38.14545454545454,
                "pitch": 84,
                "velocity": 25,
                "duration": 0.04999999999999716,
                "tempo": 120.0
            },
            {
                "start_time": 38.14545454545454,
                "end_time": 38.195454545454545,
                "pitch": 82,
                "velocity": 25,
                "duration": 0.05000000000000426,
                "tempo": 120.0
            },
            {
                "start_time": 38.195454545454545,
                "end_time": 38.24545454545454,
                "pitch": 84,
                "velocity": 25,
                "duration": 0.04999999999999716,
                "tempo": 120.0
            },
            {
                "start_time": 38.24545454545454,
                "end_time": 38.64545454545454,
                "pitch": 82,
                "velocity": 51,
                "duration": 0.3999999999999986,
                "tempo": 120.0
            },
            {
                "start_time": 38.64545454545454,
                "end_time": 39.24772727272727,
                "pitch": 84,
                "velocity": 51,
                "duration": 0.6022727272727266,
                "tempo": 120.0
            },
            {
                "start_time": 39.25,
                "end_time": 39.449999999999996,
                "pitch": 77,
                "velocity": 51,
                "duration": 0.19999999999999574,
                "tempo": 120.0
            },
            {
                "start_time": 39.449999999999996,
                "end_time": 39.85,
                "pitch": 77,
                "velocity": 51,
                "duration": 0.4000000000000057,
                "tempo": 120.0
            },
            {
                "start_time": 39.85,
                "end_time": 40.449999999999996,
                "pitch": 84,
                "velocity": 51,
                "duration": 0.5999999999999943,
                "tempo": 120.0
            },
            {
                "start_time": 40.449999999999996,
                "end_time": 40.65,
                "pitch": 86,
                "velocity": 51,
                "duration": 0.20000000000000284,
                "tempo": 120.0
            },
            {
                "start_time": 40.652272727272724,
                "end_time": 40.85227272727273,
                "pitch": 84,
                "velocity": 51,
                "duration": 0.20000000000000284,
                "tempo": 120.0
            },
            {
                "start_time": 40.85227272727273,
                "end_time": 41.054545454545455,
                "pitch": 82,
                "velocity": 51,
                "duration": 0.20227272727272805,
                "tempo": 120.0
            },
            {
                "start_time": 41.054545454545455,
                "end_time": 41.875,
                "pitch": 81,
                "velocity": 51,
                "duration": 0.8204545454545453,
                "tempo": 120.0
            },
            {
                "start_time": 41.875,
                "end_time": 42.25909090909091,
                "pitch": 77,
                "velocity": 51,
                "duration": 0.38409090909090793,
                "tempo": 120.0
            },
            {
                "start_time": 42.25909090909091,
                "end_time": 42.668181818181814,
                "pitch": 82,
                "velocity": 51,
                "duration": 0.4090909090909065,
                "tempo": 120.0
            },
            {
                "start_time": 57.57272727272727,
                "end_time": 57.77272727272727,
                "pitch": 74,
                "velocity": 51,
                "duration": 0.20000000000000284,
                "tempo": 120.0
            },
            {
                "start_time": 57.77272727272727,
                "end_time": 57.97272727272727,
                "pitch": 72,
                "velocity": 51,
                "duration": 0.19999999999999574,
                "tempo": 120.0
            },
            {
                "start_time": 57.97272727272727,
                "end_time": 58.37272727272727,
                "pitch": 70,
                "velocity": 51,
                "duration": 0.3999999999999986,
                "tempo": 120.0
            },
            {
                "start_time": 58.37272727272727,
                "end_time": 58.777272727272724,
                "pitch": 70,
                "velocity": 51,
                "duration": 0.4045454545454561,
                "tempo": 120.0
            },
            {
                "start_time": 58.777272727272724,
                "end_time": 59.17727272727272,
                "pitch": 70,
                "velocity": 51,
                "duration": 0.3999999999999986,
                "tempo": 120.0
            },
            {
                "start_time": 59.17727272727272,
                "end_time": 59.22727272727273,
                "pitch": 82,
                "velocity": 16,
                "duration": 0.05000000000000426,
                "tempo": 120.0
            },
            {
                "start_time": 59.22727272727273,
                "end_time": 59.277272727272724,
                "pitch": 82,
                "velocity": 20,
                "duration": 0.04999999999999716,
                "tempo": 120.0
            },
            {
                "start_time": 59.277272727272724,
                "end_time": 59.32727272727272,
                "pitch": 82,
                "velocity": 25,
                "duration": 0.04999999999999716,
                "tempo": 120.0
            },
            {
                "start_time": 59.32727272727272,
                "end_time": 59.377272727272725,
                "pitch": 82,
                "velocity": 32,
                "duration": 0.05000000000000426,
                "tempo": 120.0
            },
            {
                "start_time": 59.377272727272725,
                "end_time": 59.42727272727272,
                "pitch": 82,
                "velocity": 40,
                "duration": 0.04999999999999716,
                "tempo": 120.0
            },
            {
                "start_time": 59.42727272727272,
                "end_time": 59.47727272727273,
                "pitch": 82,
                "velocity": 51,
                "duration": 0.05000000000000426,
                "tempo": 120.0
            },
            {
                "start_time": 59.47727272727273,
                "end_time": 59.527272727272724,
                "pitch": 82,
                "velocity": 64,
                "duration": 0.04999999999999716,
                "tempo": 120.0
            },
            {
                "start_time": 59.527272727272724,
                "end_time": 59.57727272727272,
                "pitch": 82,
                "velocity": 80,
                "duration": 0.04999999999999716,
                "tempo": 120.0
            },
            {
                "start_time": 59.57727272727272,
                "end_time": 59.631818181818176,
                "pitch": 82,
                "velocity": 80,
                "duration": 0.054545454545454675,
                "tempo": 120.0
            },
            {
                "start_time": 59.631818181818176,
                "end_time": 59.684090909090905,
                "pitch": 82,
                "velocity": 64,
                "duration": 0.05227272727272947,
                "tempo": 120.0
            },
            {
                "start_time": 59.684090909090905,
                "end_time": 59.736363636363635,
                "pitch": 82,
                "velocity": 51,
                "duration": 0.05227272727272947,
                "tempo": 120.0
            },
            {
                "start_time": 59.736363636363635,
                "end_time": 59.788636363636364,
                "pitch": 82,
                "velocity": 40,
                "duration": 0.05227272727272947,
                "tempo": 120.0
            },
            {
                "start_time": 59.79090909090909,
                "end_time": 59.84318181818182,
                "pitch": 82,
                "velocity": 32,
                "duration": 0.05227272727272947,
                "tempo": 120.0
            },
            {
                "start_time": 59.84318181818182,
                "end_time": 59.89545454545454,
                "pitch": 82,
                "velocity": 25,
                "duration": 0.052272727272722364,
                "tempo": 120.0
            },
            {
                "start_time": 59.89545454545454,
                "end_time": 59.94772727272727,
                "pitch": 82,
                "velocity": 20,
                "duration": 0.05227272727272947,
                "tempo": 120.0
            },
            {
                "start_time": 59.94772727272727,
                "end_time": 60.0,
                "pitch": 82,
                "velocity": 16,
                "duration": 0.05227272727272947,
                "tempo": 120.0
            },
            {
                "start_time": 60.0,
                "end_time": 60.199999999999996,
                "pitch": 82,
                "velocity": 40,
                "duration": 0.19999999999999574,
                "tempo": 120.0
            },
            {
                "start_time": 60.199999999999996,
                "end_time": 60.4,
                "pitch": 70,
                "velocity": 51,
                "duration": 0.20000000000000284,
                "tempo": 120.0
            },
            {
                "start_time": 60.4,
                "end_time": 60.590909090909086,
                "pitch": 75,
                "velocity": 51,
                "duration": 0.1909090909090878,
                "tempo": 120.0
            },
            {
                "start_time": 60.590909090909086,
                "end_time": 60.78409090909091,
                "pitch": 74,
                "velocity": 51,
                "duration": 0.19318181818182012,
                "tempo": 120.0
            },
            {
                "start_time": 60.78409090909091,
                "end_time": 61.195454545454545,
                "pitch": 72,
                "velocity": 51,
                "duration": 0.4113636363636388,
                "tempo": 120.0
            },
            {
                "start_time": 61.195454545454545,
                "end_time": 61.595454545454544,
                "pitch": 72,
                "velocity": 51,
                "duration": 0.3999999999999986,
                "tempo": 120.0
            },
            {
                "start_time": 61.595454545454544,
                "end_time": 61.643181818181816,
                "pitch": 84,
                "velocity": 16,
                "duration": 0.04772727272727195,
                "tempo": 120.0
            },
            {
                "start_time": 61.643181818181816,
                "end_time": 61.69318181818181,
                "pitch": 84,
                "velocity": 20,
                "duration": 0.04999999999999716,
                "tempo": 120.0
            },
            {
                "start_time": 61.69318181818181,
                "end_time": 61.740909090909085,
                "pitch": 84,
                "velocity": 25,
                "duration": 0.04772727272727195,
                "tempo": 120.0
            },
            {
                "start_time": 61.740909090909085,
                "end_time": 61.79090909090909,
                "pitch": 84,
                "velocity": 32,
                "duration": 0.05000000000000426,
                "tempo": 120.0
            },
            {
                "start_time": 61.79090909090909,
                "end_time": 61.83863636363636,
                "pitch": 84,
                "velocity": 40,
                "duration": 0.04772727272727195,
                "tempo": 120.0
            },
            {
                "start_time": 61.840909090909086,
                "end_time": 61.88863636363636,
                "pitch": 84,
                "velocity": 51,
                "duration": 0.04772727272727195,
                "tempo": 120.0
            },
            {
                "start_time": 61.88863636363636,
                "end_time": 61.93863636363636,
                "pitch": 84,
                "velocity": 64,
                "duration": 0.05000000000000426,
                "tempo": 120.0
            },
            {
                "start_time": 61.93863636363636,
                "end_time": 61.98863636363636,
                "pitch": 84,
                "velocity": 64,
                "duration": 0.04999999999999716,
                "tempo": 120.0
            },
            {
                "start_time": 61.98863636363636,
                "end_time": 62.18863636363636,
                "pitch": 84,
                "velocity": 32,
                "duration": 0.20000000000000284,
                "tempo": 120.0
            },
            {
                "start_time": 62.18863636363636,
                "end_time": 62.38863636363636,
                "pitch": 74,
                "velocity": 51,
                "duration": 0.19999999999999574,
                "tempo": 120.0
            },
            {
                "start_time": 62.38863636363636,
                "end_time": 62.599999999999994,
                "pitch": 75,
                "velocity": 51,
                "duration": 0.21136363636363598,
                "tempo": 120.0
            },
            {
                "start_time": 62.599999999999994,
                "end_time": 62.809090909090905,
                "pitch": 76,
                "velocity": 51,
                "duration": 0.20909090909091077,
                "tempo": 120.0
            },
            {
                "start_time": 62.809090909090905,
                "end_time": 62.88863636363636,
                "pitch": 79,
                "velocity": 51,
                "duration": 0.07954545454545325,
                "tempo": 120.0
            },
            {
                "start_time": 36.02272727272727,
                "end_time": 62.88863636363636,
                "pitch": 91,
                "velocity": 51,
                "duration": 26.865909090909085,
                "tempo": 120.0
            },
            {
                "start_time": 62.88863636363636,
                "end_time": 63.04772727272727,
                "pitch": 79,
                "velocity": 51,
                "duration": 0.1590909090909136,
                "tempo": 120.0
            },
            {
                "start_time": 62.88863636363636,
                "end_time": 63.04772727272727,
                "pitch": 91,
                "velocity": 51,
                "duration": 0.1590909090909136,
                "tempo": 120.0
            },
            {
                "start_time": 63.04772727272727,
                "end_time": 63.19318181818181,
                "pitch": 79,
                "velocity": 51,
                "duration": 0.14545454545454106,
                "tempo": 120.0
            },
            {
                "start_time": 63.19318181818181,
                "end_time": 63.60454545454545,
                "pitch": 77,
                "velocity": 51,
                "duration": 0.4113636363636388,
                "tempo": 120.0
            },
            {
                "start_time": 63.60454545454545,
                "end_time": 64.01363636363637,
                "pitch": 75,
                "velocity": 51,
                "duration": 0.4090909090909136,
                "tempo": 120.0
            },
            {
                "start_time": 64.01363636363637,
                "end_time": 64.06136363636364,
                "pitch": 74,
                "velocity": 16,
                "duration": 0.04772727272727195,
                "tempo": 120.0
            },
            {
                "start_time": 64.06136363636364,
                "end_time": 64.10909090909091,
                "pitch": 74,
                "velocity": 20,
                "duration": 0.04772727272727195,
                "tempo": 120.0
            },
            {
                "start_time": 64.10909090909091,
                "end_time": 64.15681818181818,
                "pitch": 74,
                "velocity": 25,
                "duration": 0.04772727272727195,
                "tempo": 120.0
            },
            {
                "start_time": 64.15681818181818,
                "end_time": 64.20454545454545,
                "pitch": 74,
                "velocity": 32,
                "duration": 0.04772727272727195,
                "tempo": 120.0
            },
            {
                "start_time": 64.20454545454545,
                "end_time": 64.25227272727273,
                "pitch": 74,
                "velocity": 40,
                "duration": 0.04772727272727195,
                "tempo": 120.0
            },
            {
                "start_time": 64.25227272727273,
                "end_time": 64.3,
                "pitch": 74,
                "velocity": 51,
                "duration": 0.04772727272727195,
                "tempo": 120.0
            },
            {
                "start_time": 64.3,
                "end_time": 64.34772727272727,
                "pitch": 74,
                "velocity": 64,
                "duration": 0.04772727272727195,
                "tempo": 120.0
            },
            {
                "start_time": 64.34772727272727,
                "end_time": 64.39772727272727,
                "pitch": 74,
                "velocity": 64,
                "duration": 0.04999999999999716,
                "tempo": 120.0
            },
            {
                "start_time": 64.39772727272727,
                "end_time": 64.60454545454544,
                "pitch": 74,
                "velocity": 40,
                "duration": 0.20681818181817846,
                "tempo": 120.0
            },
            {
                "start_time": 64.60454545454544,
                "end_time": 64.80909090909091,
                "pitch": 75,
                "velocity": 51,
                "duration": 0.20454545454546746,
                "tempo": 120.0
            },
            {
                "start_time": 64.80909090909091,
                "end_time": 65.01136363636364,
                "pitch": 74,
                "velocity": 51,
                "duration": 0.20227272727272805,
                "tempo": 120.0
            },
            {
                "start_time": 65.01136363636364,
                "end_time": 65.21136363636363,
                "pitch": 72,
                "velocity": 51,
                "duration": 0.19999999999998863,
                "tempo": 120.0
            },
            {
                "start_time": 65.21136363636363,
                "end_time": 65.61363636363636,
                "pitch": 70,
                "velocity": 51,
                "duration": 0.4022727272727309,
                "tempo": 120.0
            },
            {
                "start_time": 67.6340909090909,
                "end_time": 68.02727272727273,
                "pitch": 58,
                "velocity": 51,
                "duration": 0.39318181818183007,
                "tempo": 120.0
            },
            {
                "start_time": 68.02727272727273,
                "end_time": 68.62954545454545,
                "pitch": 65,
                "velocity": 51,
                "duration": 0.6022727272727195,
                "tempo": 120.0
            },
            {
                "start_time": 68.62954545454545,
                "end_time": 68.83181818181818,
                "pitch": 58,
                "velocity": 51,
                "duration": 0.20227272727272805,
                "tempo": 120.0
            },
            {
                "start_time": 68.83181818181818,
                "end_time": 69.23409090909091,
                "pitch": 58,
                "velocity": 51,
                "duration": 0.4022727272727309,
                "tempo": 120.0
            },
            {
                "start_time": 69.23409090909091,
                "end_time": 69.6340909090909,
                "pitch": 65,
                "velocity": 51,
                "duration": 0.3999999999999915,
                "tempo": 120.0
            },
            {
                "start_time": 69.6340909090909,
                "end_time": 69.75227272727273,
                "pitch": 67,
                "velocity": 51,
                "duration": 0.11818181818182438,
                "tempo": 120.0
            },
            {
                "start_time": 69.75227272727273,
                "end_time": 69.83636363636363,
                "pitch": 67,
                "velocity": 51,
                "duration": 0.08409090909090366,
                "tempo": 120.0
            },
            {
                "start_time": 69.83636363636363,
                "end_time": 70.03636363636363,
                "pitch": 57,
                "velocity": 51,
                "duration": 0.20000000000000284,
                "tempo": 120.0
            },
            {
                "start_time": 70.03863636363636,
                "end_time": 70.23863636363636,
                "pitch": 58,
                "velocity": 51,
                "duration": 0.20000000000000284,
                "tempo": 120.0
            },
            {
                "start_time": 70.23863636363636,
                "end_time": 70.43863636363636,
                "pitch": 62,
                "velocity": 51,
                "duration": 0.20000000000000284,
                "tempo": 120.0
            },
            {
                "start_time": 70.43863636363636,
                "end_time": 70.64090909090909,
                "pitch": 63,
                "velocity": 51,
                "duration": 0.20227272727272805,
                "tempo": 120.0
            },
            {
                "start_time": 70.64090909090909,
                "end_time": 70.8409090909091,
                "pitch": 65,
                "velocity": 51,
                "duration": 0.20000000000000284,
                "tempo": 120.0
            },
            {
                "start_time": 70.84318181818182,
                "end_time": 71.25227272727273,
                "pitch": 70,
                "velocity": 51,
                "duration": 0.4090909090909065,
                "tempo": 120.0
            },
            {
                "start_time": 71.25227272727273,
                "end_time": 71.3,
                "pitch": 70,
                "velocity": 51,
                "duration": 0.04772727272727195,
                "tempo": 120.0
            },
            {
                "start_time": 71.30227272727272,
                "end_time": 71.35,
                "pitch": 72,
                "velocity": 51,
                "duration": 0.04772727272727195,
                "tempo": 120.0
            },
            {
                "start_time": 71.35,
                "end_time": 71.39999999999999,
                "pitch": 70,
                "velocity": 51,
                "duration": 0.04999999999999716,
                "tempo": 120.0
            },
            {
                "start_time": 71.39999999999999,
                "end_time": 71.44772727272726,
                "pitch": 72,
                "velocity": 51,
                "duration": 0.04772727272727195,
                "tempo": 120.0
            },
            {
                "start_time": 71.44772727272726,
                "end_time": 71.49772727272727,
                "pitch": 70,
                "velocity": 40,
                "duration": 0.05000000000001137,
                "tempo": 120.0
            },
            {
                "start_time": 71.49772727272727,
                "end_time": 71.54545454545455,
                "pitch": 72,
                "velocity": 40,
                "duration": 0.04772727272727195,
                "tempo": 120.0
            },
            {
                "start_time": 71.54772727272727,
                "end_time": 71.59545454545454,
                "pitch": 70,
                "velocity": 40,
                "duration": 0.04772727272727195,
                "tempo": 120.0
            },
            {
                "start_time": 71.59545454545454,
                "end_time": 71.64545454545454,
                "pitch": 72,
                "velocity": 40,
                "duration": 0.04999999999999716,
                "tempo": 120.0
            },
            {
                "start_time": 71.64545454545454,
                "end_time": 71.69772727272726,
                "pitch": 70,
                "velocity": 32,
                "duration": 0.052272727272722364,
                "tempo": 120.0
            },
            {
                "start_time": 71.69772727272726,
                "end_time": 71.74772727272727,
                "pitch": 72,
                "velocity": 32,
                "duration": 0.05000000000001137,
                "tempo": 120.0
            },
            {
                "start_time": 71.75,
                "end_time": 71.8,
                "pitch": 70,
                "velocity": 32,
                "duration": 0.04999999999999716,
                "tempo": 120.0
            },
            {
                "start_time": 71.8,
                "end_time": 71.85227272727272,
                "pitch": 72,
                "velocity": 32,
                "duration": 0.052272727272722364,
                "tempo": 120.0
            },
            {
                "start_time": 71.85227272727272,
                "end_time": 71.90227272727272,
                "pitch": 70,
                "velocity": 25,
                "duration": 0.04999999999999716,
                "tempo": 120.0
            },
            {
                "start_time": 71.90227272727272,
                "end_time": 71.95454545454545,
                "pitch": 72,
                "velocity": 25,
                "duration": 0.052272727272736574,
                "tempo": 120.0
            },
            {
                "start_time": 71.95454545454545,
                "end_time": 72.00681818181818,
                "pitch": 70,
                "velocity": 25,
                "duration": 0.052272727272722364,
                "tempo": 120.0
            },
            {
                "start_time": 72.00681818181818,
                "end_time": 72.05681818181817,
                "pitch": 72,
                "velocity": 25,
                "duration": 0.04999999999999716,
                "tempo": 120.0
            },
            {
                "start_time": 72.05681818181817,
                "end_time": 72.4590909090909,
                "pitch": 70,
                "velocity": 51,
                "duration": 0.4022727272727309,
                "tempo": 120.0
            },
            {
                "start_time": 72.46136363636363,
                "end_time": 73.05909090909091,
                "pitch": 72,
                "velocity": 51,
                "duration": 0.5977272727272833,
                "tempo": 120.0
            },
            {
                "start_time": 73.05909090909091,
                "end_time": 73.25681818181818,
                "pitch": 65,
                "velocity": 51,
                "duration": 0.19772727272726343,
                "tempo": 120.0
            },
            {
                "start_time": 73.25681818181818,
                "end_time": 73.66590909090908,
                "pitch": 65,
                "velocity": 51,
                "duration": 0.4090909090909065,
                "tempo": 120.0
            },
            {
                "start_time": 73.66818181818182,
                "end_time": 74.26818181818182,
                "pitch": 72,
                "velocity": 51,
                "duration": 0.5999999999999943,
                "tempo": 120.0
            },
            {
                "start_time": 74.27045454545454,
                "end_time": 74.47045454545454,
                "pitch": 74,
                "velocity": 51,
                "duration": 0.20000000000000284,
                "tempo": 120.0
            },
            {
                "start_time": 74.47045454545454,
                "end_time": 74.67272727272727,
                "pitch": 72,
                "velocity": 51,
                "duration": 0.20227272727272805,
                "tempo": 120.0
            },
            {
                "start_time": 74.67272727272727,
                "end_time": 74.87272727272727,
                "pitch": 70,
                "velocity": 51,
                "duration": 0.20000000000000284,
                "tempo": 120.0
            },
            {
                "start_time": 74.875,
                "end_time": 75.075,
                "pitch": 69,
                "velocity": 51,
                "duration": 0.20000000000000284,
                "tempo": 120.0
            },
            {
                "start_time": 75.075,
                "end_time": 75.27499999999999,
                "pitch": 70,
                "velocity": 51,
                "duration": 0.19999999999998863,
                "tempo": 120.0
            },
            {
                "start_time": 75.27499999999999,
                "end_time": 75.475,
                "pitch": 69,
                "velocity": 51,
                "duration": 0.20000000000000284,
                "tempo": 120.0
            },
            {
                "start_time": 69.75227272727273,
                "end_time": 75.47727272727272,
                "pitch": 79,
                "velocity": 51,
                "duration": 5.724999999999994,
                "tempo": 120.0
            },
            {
                "start_time": 75.47727272727272,
                "end_time": 75.62727272727273,
                "pitch": 67,
                "velocity": 51,
                "duration": 0.15000000000000568,
                "tempo": 120.0
            },
            {
                "start_time": 75.47727272727272,
                "end_time": 75.62727272727273,
                "pitch": 67,
                "velocity": 51,
                "duration": 0.15000000000000568,
                "tempo": 120.0
            },
            {
                "start_time": 75.47727272727272,
                "end_time": 75.62727272727273,
                "pitch": 79,
                "velocity": 51,
                "duration": 0.15000000000000568,
                "tempo": 120.0
            },
            {
                "start_time": 75.62727272727273,
                "end_time": 75.67727272727272,
                "pitch": 67,
                "velocity": 51,
                "duration": 0.04999999999999716,
                "tempo": 120.0
            },
            {
                "start_time": 75.67727272727272,
                "end_time": 75.87727272727273,
                "pitch": 65,
                "velocity": 51,
                "duration": 0.20000000000000284,
                "tempo": 120.0
            },
            {
                "start_time": 75.87727272727273,
                "end_time": 76.07727272727273,
                "pitch": 64,
                "velocity": 51,
                "duration": 0.20000000000000284,
                "tempo": 120.0
            },
            {
                "start_time": 76.07954545454545,
                "end_time": 76.12954545454545,
                "pitch": 64,
                "velocity": 51,
                "duration": 0.04999999999999716,
                "tempo": 120.0
            },
            {
                "start_time": 76.12954545454545,
                "end_time": 76.17954545454545,
                "pitch": 65,
                "velocity": 51,
                "duration": 0.04999999999999716,
                "tempo": 120.0
            },
            {
                "start_time": 76.17954545454545,
                "end_time": 76.22954545454544,
                "pitch": 64,
                "velocity": 51,
                "duration": 0.04999999999999716,
                "tempo": 120.0
            },
            {
                "start_time": 76.22954545454544,
                "end_time": 76.27954545454546,
                "pitch": 65,
                "velocity": 51,
                "duration": 0.05000000000001137,
                "tempo": 120.0
            },
            {
                "start_time": 76.27954545454546,
                "end_time": 76.32954545454545,
                "pitch": 64,
                "velocity": 40,
                "duration": 0.04999999999999716,
                "tempo": 120.0
            },
            {
                "start_time": 76.32954545454545,
                "end_time": 76.37954545454545,
                "pitch": 65,
                "velocity": 40,
                "duration": 0.04999999999999716,
                "tempo": 120.0
            },
            {
                "start_time": 76.38181818181818,
                "end_time": 76.43181818181817,
                "pitch": 64,
                "velocity": 40,
                "duration": 0.04999999999999716,
                "tempo": 120.0
            },
            {
                "start_time": 76.43181818181817,
                "end_time": 76.48181818181818,
                "pitch": 65,
                "velocity": 40,
                "duration": 0.05000000000001137,
                "tempo": 120.0
            },
            {
                "start_time": 76.48181818181818,
                "end_time": 76.53181818181818,
                "pitch": 64,
                "velocity": 32,
                "duration": 0.04999999999999716,
                "tempo": 120.0
            },
            {
                "start_time": 76.53181818181818,
                "end_time": 76.58181818181818,
                "pitch": 65,
                "velocity": 32,
                "duration": 0.04999999999999716,
                "tempo": 120.0
            },
            {
                "start_time": 76.58181818181818,
                "end_time": 76.63181818181818,
                "pitch": 64,
                "velocity": 32,
                "duration": 0.04999999999999716,
                "tempo": 120.0
            },
            {
                "start_time": 76.63181818181818,
                "end_time": 76.68181818181817,
                "pitch": 65,
                "velocity": 32,
                "duration": 0.04999999999999716,
                "tempo": 120.0
            },
            {
                "start_time": 76.68409090909091,
                "end_time": 76.73409090909091,
                "pitch": 64,
                "velocity": 25,
                "duration": 0.04999999999999716,
                "tempo": 120.0
            },
            {
                "start_time": 76.73409090909091,
                "end_time": 76.7840909090909,
                "pitch": 65,
                "velocity": 25,
                "duration": 0.04999999999999716,
                "tempo": 120.0
            },
            {
                "start_time": 76.7840909090909,
                "end_time": 76.8340909090909,
                "pitch": 64,
                "velocity": 25,
                "duration": 0.04999999999999716,
                "tempo": 120.0
            },
            {
                "start_time": 76.8340909090909,
                "end_time": 76.8840909090909,
                "pitch": 65,
                "velocity": 25,
                "duration": 0.04999999999999716,
                "tempo": 120.0
            },
            {
                "start_time": 76.8840909090909,
                "end_time": 77.2840909090909,
                "pitch": 65,
                "velocity": 51,
                "duration": 0.4000000000000057,
                "tempo": 120.0
            },
            {
                "start_time": 77.28636363636363,
                "end_time": 77.68863636363636,
                "pitch": 70,
                "velocity": 51,
                "duration": 0.4022727272727309,
                "tempo": 120.0
            },
            {
                "start_time": 77.68863636363636,
                "end_time": 78.29090909090908,
                "pitch": 77,
                "velocity": 51,
                "duration": 0.6022727272727195,
                "tempo": 120.0
            },
            {
                "start_time": 78.29090909090908,
                "end_time": 78.49090909090908,
                "pitch": 70,
                "velocity": 51,
                "duration": 0.20000000000000284,
                "tempo": 120.0
            },
            {
                "start_time": 78.49318181818181,
                "end_time": 78.89545454545454,
                "pitch": 70,
                "velocity": 51,
                "duration": 0.4022727272727309,
                "tempo": 120.0
            },
            {
                "start_time": 78.89545454545454,
                "end_time": 79.29545454545455,
                "pitch": 77,
                "velocity": 51,
                "duration": 0.4000000000000057,
                "tempo": 120.0
            },
            {
                "start_time": 75.62727272727273,
                "end_time": 79.31363636363636,
                "pitch": 79,
                "velocity": 51,
                "duration": 3.6863636363636374,
                "tempo": 120.0
            },
            {
                "start_time": 79.29545454545455,
                "end_time": 79.31363636363636,
                "pitch": 79,
                "velocity": 51,
                "duration": 0.018181818181815856,
                "tempo": 120.0
            },
            {
                "start_time": 63.04772727272727,
                "end_time": 79.31363636363636,
                "pitch": 91,
                "velocity": 51,
                "duration": 16.26590909090909,
                "tempo": 120.0
            },
            {
                "start_time": 79.31363636363636,
                "end_time": 79.47954545454544,
                "pitch": 79,
                "velocity": 51,
                "duration": 0.16590909090908212,
                "tempo": 120.0
            },
            {
                "start_time": 79.31363636363636,
                "end_time": 79.47954545454544,
                "pitch": 91,
                "velocity": 51,
                "duration": 0.16590909090908212,
                "tempo": 120.0
            },
            {
                "start_time": 79.47954545454544,
                "end_time": 79.49772727272727,
                "pitch": 79,
                "velocity": 51,
                "duration": 0.018181818181830067,
                "tempo": 120.0
            },
            {
                "start_time": 79.49772727272727,
                "end_time": 79.7,
                "pitch": 69,
                "velocity": 51,
                "duration": 0.20227272727272805,
                "tempo": 120.0
            },
            {
                "start_time": 79.7,
                "end_time": 79.90454545454546,
                "pitch": 70,
                "velocity": 51,
                "duration": 0.20454545454545325,
                "tempo": 120.0
            },
            {
                "start_time": 79.90454545454546,
                "end_time": 80.11136363636363,
                "pitch": 74,
                "velocity": 51,
                "duration": 0.20681818181817846,
                "tempo": 120.0
            },
            {
                "start_time": 80.11136363636363,
                "end_time": 80.31136363636364,
                "pitch": 75,
                "velocity": 51,
                "duration": 0.20000000000000284,
                "tempo": 120.0
            },
            {
                "start_time": 80.31136363636364,
                "end_time": 80.51363636363637,
                "pitch": 77,
                "velocity": 51,
                "duration": 0.20227272727272805,
                "tempo": 120.0
            },
            {
                "start_time": 80.51363636363637,
                "end_time": 80.91363636363636,
                "pitch": 82,
                "velocity": 51,
                "duration": 0.3999999999999915,
                "tempo": 120.0
            },
            {
                "start_time": 80.91363636363636,
                "end_time": 80.96363636363635,
                "pitch": 82,
                "velocity": 51,
                "duration": 0.04999999999999716,
                "tempo": 120.0
            },
            {
                "start_time": 80.9659090909091,
                "end_time": 81.01590909090909,
                "pitch": 84,
                "velocity": 51,
                "duration": 0.04999999999999716,
                "tempo": 120.0
            },
            {
                "start_time": 81.01590909090909,
                "end_time": 81.06590909090909,
                "pitch": 82,
                "velocity": 51,
                "duration": 0.04999999999999716,
                "tempo": 120.0
            },
            {
                "start_time": 81.06590909090909,
                "end_time": 81.11590909090908,
                "pitch": 84,
                "velocity": 51,
                "duration": 0.04999999999999716,
                "tempo": 120.0
            },
            {
                "start_time": 81.11590909090908,
                "end_time": 81.16590909090908,
                "pitch": 82,
                "velocity": 40,
                "duration": 0.04999999999999716,
                "tempo": 120.0
            },
            {
                "start_time": 81.16590909090908,
                "end_time": 81.2159090909091,
                "pitch": 84,
                "velocity": 40,
                "duration": 0.05000000000001137,
                "tempo": 120.0
            },
            {
                "start_time": 81.2159090909091,
                "end_time": 81.26590909090909,
                "pitch": 82,
                "velocity": 40,
                "duration": 0.04999999999999716,
                "tempo": 120.0
            },
            {
                "start_time": 81.26818181818182,
                "end_time": 81.31818181818181,
                "pitch": 84,
                "velocity": 40,
                "duration": 0.04999999999999716,
                "tempo": 120.0
            },
            {
                "start_time": 81.31818181818181,
                "end_time": 81.36818181818181,
                "pitch": 82,
                "velocity": 32,
                "duration": 0.04999999999999716,
                "tempo": 120.0
            },
            {
                "start_time": 81.36818181818181,
                "end_time": 81.41818181818181,
                "pitch": 84,
                "velocity": 32,
                "duration": 0.04999999999999716,
                "tempo": 120.0
            },
            {
                "start_time": 81.41818181818181,
                "end_time": 81.46818181818182,
                "pitch": 82,
                "velocity": 32,
                "duration": 0.05000000000001137,
                "tempo": 120.0
            },
            {
                "start_time": 81.46818181818182,
                "end_time": 81.51818181818182,
                "pitch": 84,
                "velocity": 32,
                "duration": 0.04999999999999716,
                "tempo": 120.0
            },
            {
                "start_time": 81.51818181818182,
                "end_time": 81.56818181818181,
                "pitch": 82,
                "velocity": 25,
                "duration": 0.04999999999999716,
                "tempo": 120.0
            },
            {
                "start_time": 81.56818181818181,
                "end_time": 81.61818181818181,
                "pitch": 84,
                "velocity": 25,
                "duration": 0.04999999999999716,
                "tempo": 120.0
            },
            {
                "start_time": 81.61818181818181,
                "end_time": 81.66818181818181,
                "pitch": 82,
                "velocity": 25,
                "duration": 0.04999999999999716,
                "tempo": 120.0
            },
            {
                "start_time": 81.66818181818181,
                "end_time": 81.71818181818182,
                "pitch": 84,
                "velocity": 25,
                "duration": 0.05000000000001137,
                "tempo": 120.0
            },
            {
                "start_time": 81.71818181818182,
                "end_time": 82.12045454545454,
                "pitch": 82,
                "velocity": 51,
                "duration": 0.4022727272727167,
                "tempo": 120.0
            },
            {
                "start_time": 82.12045454545454,
                "end_time": 82.725,
                "pitch": 84,
                "velocity": 51,
                "duration": 0.6045454545454589,
                "tempo": 120.0
            },
            {
                "start_time": 82.725,
                "end_time": 82.925,
                "pitch": 77,
                "velocity": 51,
                "duration": 0.20000000000000284,
                "tempo": 120.0
            },
            {
                "start_time": 82.925,
                "end_time": 83.32727272727273,
                "pitch": 77,
                "velocity": 51,
                "duration": 0.4022727272727309,
                "tempo": 120.0
            },
            {
                "start_time": 83.32727272727273,
                "end_time": 83.92954545454545,
                "pitch": 84,
                "velocity": 51,
                "duration": 0.6022727272727195,
                "tempo": 120.0
            },
            {
                "start_time": 83.92954545454545,
                "end_time": 84.13181818181818,
                "pitch": 86,
                "velocity": 51,
                "duration": 0.20227272727272805,
                "tempo": 120.0
            },
            {
                "start_time": 84.13181818181818,
                "end_time": 84.3340909090909,
                "pitch": 84,
                "velocity": 51,
                "duration": 0.20227272727272805,
                "tempo": 120.0
            },
            {
                "start_time": 84.3340909090909,
                "end_time": 84.5340909090909,
                "pitch": 82,
                "velocity": 51,
                "duration": 0.20000000000000284,
                "tempo": 120.0
            },
            {
                "start_time": 84.5340909090909,
                "end_time": 85.34545454545454,
                "pitch": 81,
                "velocity": 51,
                "duration": 0.8113636363636374,
                "tempo": 120.0
            },
            {
                "start_time": 85.34545454545454,
                "end_time": 85.73863636363636,
                "pitch": 77,
                "velocity": 51,
                "duration": 0.39318181818181586,
                "tempo": 120.0
            },
            {
                "start_time": 85.73863636363636,
                "end_time": 86.14090909090909,
                "pitch": 82,
                "velocity": 51,
                "duration": 0.4022727272727309,
                "tempo": 120.0
            }
        ],
        "Lead 2 (sawtooth)": [
            {
                "start_time": 12.943181818181818,
                "end_time": 13.093181818181817,
                "pitch": 84,
                "velocity": 64,
                "duration": 0.14999999999999858,
                "tempo": 120.0
            },
            {
                "start_time": 13.297727272727272,
                "end_time": 14.088636363636363,
                "pitch": 84,
                "velocity": 64,
                "duration": 0.790909090909091,
                "tempo": 120.0
            },
            {
                "start_time": 56.381818181818176,
                "end_time": 56.53409090909091,
                "pitch": 84,
                "velocity": 64,
                "duration": 0.1522727272727309,
                "tempo": 120.0
            },
            {
                "start_time": 56.736363636363635,
                "end_time": 57.54090909090909,
                "pitch": 84,
                "velocity": 64,
                "duration": 0.8045454545454547,
                "tempo": 120.0
            }
        ],
        "Violin": [
            {
                "start_time": 0.20454545454545453,
                "end_time": 0.25227272727272726,
                "pitch": 82,
                "velocity": 101,
                "duration": 0.04772727272727273,
                "tempo": 120.0
            },
            {
                "start_time": 0.25227272727272726,
                "end_time": 0.40454545454545454,
                "pitch": 82,
                "velocity": 64,
                "duration": 0.15227272727272728,
                "tempo": 120.0
            },
            {
                "start_time": 0.40454545454545454,
                "end_time": 0.45227272727272727,
                "pitch": 86,
                "velocity": 101,
                "duration": 0.04772727272727273,
                "tempo": 120.0
            },
            {
                "start_time": 0.45454545454545453,
                "end_time": 0.6045454545454545,
                "pitch": 86,
                "velocity": 64,
                "duration": 0.14999999999999997,
                "tempo": 120.0
            },
            {
                "start_time": 0.6045454545454545,
                "end_time": 0.6545454545454545,
                "pitch": 89,
                "velocity": 101,
                "duration": 0.050000000000000044,
                "tempo": 120.0
            },
            {
                "start_time": 0.6545454545454545,
                "end_time": 1.0068181818181818,
                "pitch": 89,
                "velocity": 51,
                "duration": 0.3522727272727273,
                "tempo": 120.0
            },
            {
                "start_time": 1.0068181818181818,
                "end_time": 1.0568181818181817,
                "pitch": 94,
                "velocity": 101,
                "duration": 0.04999999999999982,
                "tempo": 120.0
            },
            {
                "start_time": 1.0568181818181817,
                "end_time": 1.4113636363636364,
                "pitch": 94,
                "velocity": 51,
                "duration": 0.3545454545454547,
                "tempo": 120.0
            },
            {
                "start_time": 1.4136363636363636,
                "end_time": 1.5318181818181817,
                "pitch": 91,
                "velocity": 64,
                "duration": 0.11818181818181817,
                "tempo": 120.0
            },
            {
                "start_time": 1.5318181818181817,
                "end_time": 1.6977272727272728,
                "pitch": 91,
                "velocity": 64,
                "duration": 0.165909090909091,
                "tempo": 120.0
            },
            {
                "start_time": 1.5318181818181817,
                "end_time": 1.6977272727272728,
                "pitch": 103,
                "velocity": 64,
                "duration": 0.165909090909091,
                "tempo": 120.0
            },
            {
                "start_time": 1.6977272727272728,
                "end_time": 1.7477272727272726,
                "pitch": 91,
                "velocity": 64,
                "duration": 0.04999999999999982,
                "tempo": 120.0
            },
            {
                "start_time": 1.75,
                "end_time": 1.8613636363636363,
                "pitch": 91,
                "velocity": 51,
                "duration": 0.11136363636363633,
                "tempo": 120.0
            },
            {
                "start_time": 1.6977272727272728,
                "end_time": 1.8613636363636363,
                "pitch": 103,
                "velocity": 64,
                "duration": 0.16363636363636358,
                "tempo": 120.0
            },
            {
                "start_time": 1.8613636363636363,
                "end_time": 1.9113636363636364,
                "pitch": 91,
                "velocity": 51,
                "duration": 0.050000000000000044,
                "tempo": 120.0
            },
            {
                "start_time": 1.9113636363636364,
                "end_time": 2.077272727272727,
                "pitch": 89,
                "velocity": 80,
                "duration": 0.16590909090909078,
                "tempo": 120.0
            },
            {
                "start_time": 2.077272727272727,
                "end_time": 2.243181818181818,
                "pitch": 86,
                "velocity": 80,
                "duration": 0.165909090909091,
                "tempo": 120.0
            },
            {
                "start_time": 2.243181818181818,
                "end_time": 2.411363636363636,
                "pitch": 84,
                "velocity": 80,
                "duration": 0.168181818181818,
                "tempo": 120.0
            },
            {
                "start_time": 2.7204545454545452,
                "end_time": 2.9204545454545454,
                "pitch": 70,
                "velocity": 127,
                "duration": 0.20000000000000018,
                "tempo": 120.0
            },
            {
                "start_time": 3.215909090909091,
                "end_time": 3.4204545454545454,
                "pitch": 70,
                "velocity": 127,
                "duration": 0.20454545454545459,
                "tempo": 120.0
            },
            {
                "start_time": 3.9204545454545454,
                "end_time": 4.120454545454545,
                "pitch": 70,
                "velocity": 127,
                "duration": 0.19999999999999973,
                "tempo": 120.0
            },
            {
                "start_time": 4.429545454545455,
                "end_time": 4.631818181818182,
                "pitch": 70,
                "velocity": 127,
                "duration": 0.20227272727272716,
                "tempo": 120.0
            },
            {
                "start_time": 5.134090909090909,
                "end_time": 5.334090909090909,
                "pitch": 70,
                "velocity": 127,
                "duration": 0.20000000000000018,
                "tempo": 120.0
            },
            {
                "start_time": 5.636363636363636,
                "end_time": 5.838636363636363,
                "pitch": 70,
                "velocity": 127,
                "duration": 0.20227272727272716,
                "tempo": 120.0
            },
            {
                "start_time": 6.340909090909091,
                "end_time": 6.540909090909091,
                "pitch": 70,
                "velocity": 127,
                "duration": 0.20000000000000018,
                "tempo": 120.0
            },
            {
                "start_time": 6.845454545454545,
                "end_time": 7.05,
                "pitch": 70,
                "velocity": 127,
                "duration": 0.20454545454545503,
                "tempo": 120.0
            },
            {
                "start_time": 7.55,
                "end_time": 7.597727272727273,
                "pitch": 72,
                "velocity": 127,
                "duration": 0.04772727272727284,
                "tempo": 120.0
            },
            {
                "start_time": 7.597727272727273,
                "end_time": 7.75,
                "pitch": 72,
                "velocity": 64,
                "duration": 0.15227272727272734,
                "tempo": 120.0
            },
            {
                "start_time": 8.059090909090909,
                "end_time": 8.10909090909091,
                "pitch": 72,
                "velocity": 127,
                "duration": 0.05000000000000071,
                "tempo": 120.0
            },
            {
                "start_time": 8.10909090909091,
                "end_time": 8.259090909090908,
                "pitch": 72,
                "velocity": 64,
                "duration": 0.14999999999999858,
                "tempo": 120.0
            },
            {
                "start_time": 8.754545454545454,
                "end_time": 8.802272727272728,
                "pitch": 72,
                "velocity": 127,
                "duration": 0.04772727272727373,
                "tempo": 120.0
            },
            {
                "start_time": 8.802272727272728,
                "end_time": 8.954545454545453,
                "pitch": 72,
                "velocity": 64,
                "duration": 0.15227272727272556,
                "tempo": 120.0
            },
            {
                "start_time": 9.263636363636364,
                "end_time": 9.313636363636363,
                "pitch": 72,
                "velocity": 127,
                "duration": 0.049999999999998934,
                "tempo": 120.0
            },
            {
                "start_time": 9.313636363636363,
                "end_time": 9.463636363636363,
                "pitch": 72,
                "velocity": 64,
                "duration": 0.15000000000000036,
                "tempo": 120.0
            },
            {
                "start_time": 9.961363636363636,
                "end_time": 10.009090909090908,
                "pitch": 70,
                "velocity": 127,
                "duration": 0.04772727272727195,
                "tempo": 120.0
            },
            {
                "start_time": 10.009090909090908,
                "end_time": 10.161363636363635,
                "pitch": 70,
                "velocity": 64,
                "duration": 0.15227272727272734,
                "tempo": 120.0
            },
            {
                "start_time": 10.470454545454546,
                "end_time": 10.520454545454545,
                "pitch": 70,
                "velocity": 127,
                "duration": 0.049999999999998934,
                "tempo": 120.0
            },
            {
                "start_time": 10.520454545454545,
                "end_time": 10.670454545454545,
                "pitch": 70,
                "velocity": 64,
                "duration": 0.15000000000000036,
                "tempo": 120.0
            },
            {
                "start_time": 11.170454545454545,
                "end_time": 11.218181818181817,
                "pitch": 70,
                "velocity": 127,
                "duration": 0.04772727272727195,
                "tempo": 120.0
            },
            {
                "start_time": 11.218181818181817,
                "end_time": 11.368181818181817,
                "pitch": 70,
                "velocity": 64,
                "duration": 0.15000000000000036,
                "tempo": 120.0
            },
            {
                "start_time": 11.677272727272726,
                "end_time": 11.727272727272727,
                "pitch": 70,
                "velocity": 127,
                "duration": 0.05000000000000071,
                "tempo": 120.0
            },
            {
                "start_time": 11.727272727272727,
                "end_time": 11.877272727272727,
                "pitch": 70,
                "velocity": 64,
                "duration": 0.15000000000000036,
                "tempo": 120.0
            },
            {
                "start_time": 12.379545454545454,
                "end_time": 12.429545454545455,
                "pitch": 72,
                "velocity": 127,
                "duration": 0.05000000000000071,
                "tempo": 120.0
            },
            {
                "start_time": 12.429545454545455,
                "end_time": 12.584090909090909,
                "pitch": 72,
                "velocity": 64,
                "duration": 0.15454545454545432,
                "tempo": 120.0
            },
            {
                "start_time": 12.893181818181818,
                "end_time": 12.943181818181818,
                "pitch": 72,
                "velocity": 127,
                "duration": 0.05000000000000071,
                "tempo": 120.0
            },
            {
                "start_time": 43.43181818181818,
                "end_time": 43.47954545454545,
                "pitch": 82,
                "velocity": 101,
                "duration": 0.04772727272727195,
                "tempo": 120.0
            },
            {
                "start_time": 43.48181818181818,
                "end_time": 43.63181818181818,
                "pitch": 82,
                "velocity": 64,
                "duration": 0.15000000000000568,
                "tempo": 120.0
            },
            {
                "start_time": 43.63181818181818,
                "end_time": 43.679545454545455,
                "pitch": 86,
                "velocity": 101,
                "duration": 0.04772727272727195,
                "tempo": 120.0
            },
            {
                "start_time": 43.68181818181818,
                "end_time": 43.83181818181818,
                "pitch": 86,
                "velocity": 64,
                "duration": 0.14999999999999858,
                "tempo": 120.0
            },
            {
                "start_time": 43.83181818181818,
                "end_time": 43.88181818181818,
                "pitch": 89,
                "velocity": 101,
                "duration": 0.05000000000000426,
                "tempo": 120.0
            },
            {
                "start_time": 43.88181818181818,
                "end_time": 44.24318181818182,
                "pitch": 89,
                "velocity": 51,
                "duration": 0.36136363636363455,
                "tempo": 120.0
            },
            {
                "start_time": 44.24318181818182,
                "end_time": 44.293181818181814,
                "pitch": 94,
                "velocity": 101,
                "duration": 0.04999999999999716,
                "tempo": 120.0
            },
            {
                "start_time": 44.293181818181814,
                "end_time": 44.64545454545454,
                "pitch": 94,
                "velocity": 51,
                "duration": 0.3522727272727266,
                "tempo": 120.0
            },
            {
                "start_time": 44.64545454545454,
                "end_time": 44.76136363636363,
                "pitch": 91,
                "velocity": 64,
                "duration": 0.11590909090909207,
                "tempo": 120.0
            },
            {
                "start_time": 1.8613636363636363,
                "end_time": 44.76136363636363,
                "pitch": 103,
                "velocity": 51,
                "duration": 42.9,
                "tempo": 120.0
            },
            {
                "start_time": 44.76136363636363,
                "end_time": 44.92727272727272,
                "pitch": 91,
                "velocity": 64,
                "duration": 0.16590909090908923,
                "tempo": 120.0
            },
            {
                "start_time": 44.76136363636363,
                "end_time": 44.92727272727272,
                "pitch": 103,
                "velocity": 64,
                "duration": 0.16590909090908923,
                "tempo": 120.0
            },
            {
                "start_time": 44.92727272727272,
                "end_time": 44.97954545454545,
                "pitch": 91,
                "velocity": 64,
                "duration": 0.05227272727272947,
                "tempo": 120.0
            },
            {
                "start_time": 44.97954545454545,
                "end_time": 45.095454545454544,
                "pitch": 91,
                "velocity": 51,
                "duration": 0.11590909090909207,
                "tempo": 120.0
            },
            {
                "start_time": 44.92727272727272,
                "end_time": 45.095454545454544,
                "pitch": 103,
                "velocity": 64,
                "duration": 0.16818181818182154,
                "tempo": 120.0
            },
            {
                "start_time": 45.095454545454544,
                "end_time": 45.14545454545454,
                "pitch": 91,
                "velocity": 51,
                "duration": 0.04999999999999716,
                "tempo": 120.0
            },
            {
                "start_time": 45.14545454545454,
                "end_time": 45.31363636363636,
                "pitch": 89,
                "velocity": 80,
                "duration": 0.16818181818182154,
                "tempo": 120.0
            },
            {
                "start_time": 45.31363636363636,
                "end_time": 45.47954545454545,
                "pitch": 86,
                "velocity": 80,
                "duration": 0.16590909090908923,
                "tempo": 120.0
            },
            {
                "start_time": 45.47954545454545,
                "end_time": 45.663636363636364,
                "pitch": 84,
                "velocity": 80,
                "duration": 0.1840909090909122,
                "tempo": 120.0
            },
            {
                "start_time": 45.99545454545454,
                "end_time": 46.22954545454545,
                "pitch": 70,
                "velocity": 127,
                "duration": 0.23409090909090935,
                "tempo": 120.0
            },
            {
                "start_time": 46.584090909090904,
                "end_time": 46.809090909090905,
                "pitch": 70,
                "velocity": 127,
                "duration": 0.22500000000000142,
                "tempo": 120.0
            },
            {
                "start_time": 47.36590909090909,
                "end_time": 47.57727272727273,
                "pitch": 70,
                "velocity": 127,
                "duration": 0.21136363636363598,
                "tempo": 120.0
            },
            {
                "start_time": 47.87954545454545,
                "end_time": 48.084090909090904,
                "pitch": 70,
                "velocity": 127,
                "duration": 0.20454545454545325,
                "tempo": 120.0
            },
            {
                "start_time": 48.586363636363636,
                "end_time": 48.78636363636363,
                "pitch": 70,
                "velocity": 127,
                "duration": 0.19999999999999574,
                "tempo": 120.0
            },
            {
                "start_time": 49.095454545454544,
                "end_time": 49.293181818181814,
                "pitch": 70,
                "velocity": 127,
                "duration": 0.19772727272727053,
                "tempo": 120.0
            },
            {
                "start_time": 49.79090909090909,
                "end_time": 49.990909090909085,
                "pitch": 70,
                "velocity": 127,
                "duration": 0.19999999999999574,
                "tempo": 120.0
            },
            {
                "start_time": 50.3,
                "end_time": 50.5,
                "pitch": 70,
                "velocity": 127,
                "duration": 0.20000000000000284,
                "tempo": 120.0
            },
            {
                "start_time": 50.99318181818182,
                "end_time": 51.043181818181814,
                "pitch": 72,
                "velocity": 127,
                "duration": 0.04999999999999716,
                "tempo": 120.0
            },
            {
                "start_time": 51.043181818181814,
                "end_time": 51.195454545454545,
                "pitch": 72,
                "velocity": 64,
                "duration": 0.1522727272727309,
                "tempo": 120.0
            },
            {
                "start_time": 51.51363636363636,
                "end_time": 51.56363636363636,
                "pitch": 72,
                "velocity": 127,
                "duration": 0.05000000000000426,
                "tempo": 120.0
            },
            {
                "start_time": 51.56590909090909,
                "end_time": 51.71363636363636,
                "pitch": 72,
                "velocity": 64,
                "duration": 0.14772727272727337,
                "tempo": 120.0
            },
            {
                "start_time": 52.211363636363636,
                "end_time": 52.25909090909091,
                "pitch": 72,
                "velocity": 127,
                "duration": 0.04772727272727195,
                "tempo": 120.0
            },
            {
                "start_time": 52.25909090909091,
                "end_time": 52.40909090909091,
                "pitch": 72,
                "velocity": 64,
                "duration": 0.14999999999999858,
                "tempo": 120.0
            },
            {
                "start_time": 52.720454545454544,
                "end_time": 52.768181818181816,
                "pitch": 72,
                "velocity": 127,
                "duration": 0.04772727272727195,
                "tempo": 120.0
            },
            {
                "start_time": 52.768181818181816,
                "end_time": 52.91590909090909,
                "pitch": 72,
                "velocity": 64,
                "duration": 0.14772727272727337,
                "tempo": 120.0
            },
            {
                "start_time": 53.413636363636364,
                "end_time": 53.461363636363636,
                "pitch": 70,
                "velocity": 127,
                "duration": 0.04772727272727195,
                "tempo": 120.0
            },
            {
                "start_time": 53.461363636363636,
                "end_time": 53.611363636363635,
                "pitch": 70,
                "velocity": 64,
                "duration": 0.14999999999999858,
                "tempo": 120.0
            },
            {
                "start_time": 53.913636363636364,
                "end_time": 53.96363636363636,
                "pitch": 70,
                "velocity": 127,
                "duration": 0.04999999999999716,
                "tempo": 120.0
            },
            {
                "start_time": 53.96363636363636,
                "end_time": 54.11818181818182,
                "pitch": 70,
                "velocity": 64,
                "duration": 0.1545454545454561,
                "tempo": 120.0
            },
            {
                "start_time": 54.62045454545454,
                "end_time": 54.668181818181814,
                "pitch": 70,
                "velocity": 127,
                "duration": 0.04772727272727195,
                "tempo": 120.0
            },
            {
                "start_time": 54.668181818181814,
                "end_time": 54.81818181818181,
                "pitch": 70,
                "velocity": 64,
                "duration": 0.14999999999999858,
                "tempo": 120.0
            },
            {
                "start_time": 55.12954545454545,
                "end_time": 55.17727272727272,
                "pitch": 70,
                "velocity": 127,
                "duration": 0.04772727272727195,
                "tempo": 120.0
            },
            {
                "start_time": 55.179545454545455,
                "end_time": 55.32727272727273,
                "pitch": 70,
                "velocity": 64,
                "duration": 0.14772727272727337,
                "tempo": 120.0
            },
            {
                "start_time": 55.82272727272727,
                "end_time": 55.87045454545454,
                "pitch": 72,
                "velocity": 127,
                "duration": 0.04772727272727195,
                "tempo": 120.0
            },
            {
                "start_time": 55.87272727272727,
                "end_time": 56.02272727272727,
                "pitch": 72,
                "velocity": 64,
                "duration": 0.15000000000000568,
                "tempo": 120.0
            },
            {
                "start_time": 56.33181818181818,
                "end_time": 56.381818181818176,
                "pitch": 72,
                "velocity": 127,
                "duration": 0.04999999999999716,
                "tempo": 120.0
            },
            {
                "start_time": 86.9090909090909,
                "end_time": 86.95681818181818,
                "pitch": 82,
                "velocity": 101,
                "duration": 0.04772727272727195,
                "tempo": 120.0
            },
            {
                "start_time": 86.95681818181818,
                "end_time": 87.11136363636363,
                "pitch": 82,
                "velocity": 64,
                "duration": 0.1545454545454561,
                "tempo": 120.0
            },
            {
                "start_time": 87.11363636363636,
                "end_time": 87.16363636363636,
                "pitch": 86,
                "velocity": 101,
                "duration": 0.04999999999999716,
                "tempo": 120.0
            },
            {
                "start_time": 87.16363636363636,
                "end_time": 87.31818181818181,
                "pitch": 86,
                "velocity": 64,
                "duration": 0.1545454545454561,
                "tempo": 120.0
            },
            {
                "start_time": 87.31818181818181,
                "end_time": 87.36590909090908,
                "pitch": 89,
                "velocity": 101,
                "duration": 0.04772727272727195,
                "tempo": 120.0
            },
            {
                "start_time": 87.36818181818181,
                "end_time": 87.71818181818182,
                "pitch": 89,
                "velocity": 51,
                "duration": 0.3500000000000085,
                "tempo": 120.0
            },
            {
                "start_time": 87.71818181818182,
                "end_time": 87.76818181818182,
                "pitch": 94,
                "velocity": 101,
                "duration": 0.04999999999999716,
                "tempo": 120.0
            },
            {
                "start_time": 87.76818181818182,
                "end_time": 88.12954545454545,
                "pitch": 94,
                "velocity": 51,
                "duration": 0.36136363636363455,
                "tempo": 120.0
            },
            {
                "start_time": 88.12954545454545,
                "end_time": 88.24545454545454,
                "pitch": 91,
                "velocity": 64,
                "duration": 0.11590909090908497,
                "tempo": 120.0
            },
            {
                "start_time": 45.095454545454544,
                "end_time": 88.24545454545454,
                "pitch": 103,
                "velocity": 51,
                "duration": 43.14999999999999,
                "tempo": 120.0
            },
            {
                "start_time": 88.24545454545454,
                "end_time": 88.32727272727273,
                "pitch": 91,
                "velocity": 64,
                "duration": 0.08181818181819267,
                "tempo": 120.0
            }
        ],
        "Oboe": [
            {
                "start_time": 14.493181818181817,
                "end_time": 14.625,
                "pitch": 82,
                "velocity": 32,
                "duration": 0.13181818181818272,
                "tempo": 120.0
            },
            {
                "start_time": 14.625,
                "end_time": 14.693181818181818,
                "pitch": 84,
                "velocity": 32,
                "duration": 0.06818181818181834,
                "tempo": 120.0
            },
            {
                "start_time": 15.711363636363636,
                "end_time": 15.84090909090909,
                "pitch": 82,
                "velocity": 32,
                "duration": 0.12954545454545396,
                "tempo": 120.0
            },
            {
                "start_time": 15.84090909090909,
                "end_time": 15.906818181818181,
                "pitch": 84,
                "velocity": 32,
                "duration": 0.06590909090909136,
                "tempo": 120.0
            },
            {
                "start_time": 16.925,
                "end_time": 17.004545454545454,
                "pitch": 84,
                "velocity": 32,
                "duration": 0.07954545454545325,
                "tempo": 120.0
            },
            {
                "start_time": 17.004545454545454,
                "end_time": 17.084090909090907,
                "pitch": 86,
                "velocity": 32,
                "duration": 0.07954545454545325,
                "tempo": 120.0
            },
            {
                "start_time": 17.084090909090907,
                "end_time": 17.11590909090909,
                "pitch": 88,
                "velocity": 32,
                "duration": 0.0318181818181813,
                "tempo": 120.0
            },
            {
                "start_time": 18.120454545454546,
                "end_time": 18.202272727272728,
                "pitch": 84,
                "velocity": 32,
                "duration": 0.08181818181818201,
                "tempo": 120.0
            },
            {
                "start_time": 18.202272727272728,
                "end_time": 18.304545454545455,
                "pitch": 87,
                "velocity": 32,
                "duration": 0.10227272727272663,
                "tempo": 120.0
            },
            {
                "start_time": 18.304545454545455,
                "end_time": 18.320454545454545,
                "pitch": 89,
                "velocity": 32,
                "duration": 0.01590909090909065,
                "tempo": 120.0
            },
            {
                "start_time": 19.334090909090907,
                "end_time": 19.46363636363636,
                "pitch": 82,
                "velocity": 32,
                "duration": 0.12954545454545396,
                "tempo": 120.0
            },
            {
                "start_time": 19.46363636363636,
                "end_time": 19.529545454545453,
                "pitch": 84,
                "velocity": 32,
                "duration": 0.06590909090909136,
                "tempo": 120.0
            },
            {
                "start_time": 20.538636363636364,
                "end_time": 20.670454545454543,
                "pitch": 82,
                "velocity": 32,
                "duration": 0.13181818181817917,
                "tempo": 120.0
            },
            {
                "start_time": 20.670454545454543,
                "end_time": 20.736363636363635,
                "pitch": 84,
                "velocity": 32,
                "duration": 0.06590909090909136,
                "tempo": 120.0
            },
            {
                "start_time": 21.743181818181817,
                "end_time": 21.825,
                "pitch": 84,
                "velocity": 32,
                "duration": 0.08181818181818201,
                "tempo": 120.0
            },
            {
                "start_time": 21.825,
                "end_time": 21.90681818181818,
                "pitch": 86,
                "velocity": 32,
                "duration": 0.08181818181818201,
                "tempo": 120.0
            },
            {
                "start_time": 21.90681818181818,
                "end_time": 21.938636363636363,
                "pitch": 88,
                "velocity": 32,
                "duration": 0.0318181818181813,
                "tempo": 120.0
            },
            {
                "start_time": 22.959090909090907,
                "end_time": 23.036363636363635,
                "pitch": 84,
                "velocity": 32,
                "duration": 0.07727272727272805,
                "tempo": 120.0
            },
            {
                "start_time": 23.036363636363635,
                "end_time": 23.11590909090909,
                "pitch": 86,
                "velocity": 32,
                "duration": 0.07954545454545325,
                "tempo": 120.0
            },
            {
                "start_time": 23.11590909090909,
                "end_time": 23.15,
                "pitch": 88,
                "velocity": 32,
                "duration": 0.03409090909091006,
                "tempo": 120.0
            },
            {
                "start_time": 24.163636363636364,
                "end_time": 24.29090909090909,
                "pitch": 82,
                "velocity": 32,
                "duration": 0.1272727272727252,
                "tempo": 120.0
            },
            {
                "start_time": 24.29090909090909,
                "end_time": 24.354545454545452,
                "pitch": 84,
                "velocity": 32,
                "duration": 0.0636363636363626,
                "tempo": 120.0
            },
            {
                "start_time": 25.347727272727273,
                "end_time": 25.48409090909091,
                "pitch": 82,
                "velocity": 32,
                "duration": 0.1363636363636367,
                "tempo": 120.0
            },
            {
                "start_time": 25.48409090909091,
                "end_time": 25.552272727272726,
                "pitch": 84,
                "velocity": 32,
                "duration": 0.06818181818181657,
                "tempo": 120.0
            },
            {
                "start_time": 26.563636363636363,
                "end_time": 26.645454545454545,
                "pitch": 84,
                "velocity": 32,
                "duration": 0.08181818181818201,
                "tempo": 120.0
            },
            {
                "start_time": 26.645454545454545,
                "end_time": 26.729545454545452,
                "pitch": 86,
                "velocity": 32,
                "duration": 0.08409090909090722,
                "tempo": 120.0
            },
            {
                "start_time": 26.729545454545452,
                "end_time": 26.763636363636362,
                "pitch": 88,
                "velocity": 32,
                "duration": 0.03409090909091006,
                "tempo": 120.0
            },
            {
                "start_time": 27.76590909090909,
                "end_time": 27.849999999999998,
                "pitch": 84,
                "velocity": 32,
                "duration": 0.08409090909090722,
                "tempo": 120.0
            },
            {
                "start_time": 27.849999999999998,
                "end_time": 27.93409090909091,
                "pitch": 86,
                "velocity": 32,
                "duration": 0.08409090909091077,
                "tempo": 120.0
            },
            {
                "start_time": 27.93409090909091,
                "end_time": 27.968181818181815,
                "pitch": 88,
                "velocity": 32,
                "duration": 0.03409090909090651,
                "tempo": 120.0
            },
            {
                "start_time": 28.974999999999998,
                "end_time": 29.10681818181818,
                "pitch": 82,
                "velocity": 32,
                "duration": 0.13181818181818272,
                "tempo": 120.0
            },
            {
                "start_time": 29.10681818181818,
                "end_time": 29.172727272727272,
                "pitch": 84,
                "velocity": 32,
                "duration": 0.06590909090909136,
                "tempo": 120.0
            },
            {
                "start_time": 30.177272727272726,
                "end_time": 30.311363636363634,
                "pitch": 82,
                "velocity": 32,
                "duration": 0.13409090909090793,
                "tempo": 120.0
            },
            {
                "start_time": 30.311363636363634,
                "end_time": 30.377272727272725,
                "pitch": 84,
                "velocity": 32,
                "duration": 0.06590909090909136,
                "tempo": 120.0
            },
            {
                "start_time": 31.38181818181818,
                "end_time": 31.46363636363636,
                "pitch": 84,
                "velocity": 32,
                "duration": 0.08181818181818201,
                "tempo": 120.0
            },
            {
                "start_time": 31.46363636363636,
                "end_time": 31.547727272727272,
                "pitch": 86,
                "velocity": 32,
                "duration": 0.08409090909091077,
                "tempo": 120.0
            },
            {
                "start_time": 31.547727272727272,
                "end_time": 31.581818181818182,
                "pitch": 88,
                "velocity": 32,
                "duration": 0.03409090909091006,
                "tempo": 120.0
            },
            {
                "start_time": 32.59772727272727,
                "end_time": 32.68181818181818,
                "pitch": 84,
                "velocity": 32,
                "duration": 0.08409090909091077,
                "tempo": 120.0
            },
            {
                "start_time": 32.68181818181818,
                "end_time": 32.763636363636365,
                "pitch": 86,
                "velocity": 32,
                "duration": 0.08181818181818556,
                "tempo": 120.0
            },
            {
                "start_time": 32.763636363636365,
                "end_time": 32.8,
                "pitch": 88,
                "velocity": 32,
                "duration": 0.03636363636363171,
                "tempo": 120.0
            },
            {
                "start_time": 33.80227272727272,
                "end_time": 33.934090909090905,
                "pitch": 82,
                "velocity": 32,
                "duration": 0.13181818181818272,
                "tempo": 120.0
            },
            {
                "start_time": 33.934090909090905,
                "end_time": 34.0,
                "pitch": 84,
                "velocity": 32,
                "duration": 0.06590909090909491,
                "tempo": 120.0
            },
            {
                "start_time": 35.00681818181818,
                "end_time": 35.138636363636365,
                "pitch": 82,
                "velocity": 32,
                "duration": 0.13181818181818272,
                "tempo": 120.0
            },
            {
                "start_time": 35.138636363636365,
                "end_time": 35.20454545454545,
                "pitch": 84,
                "velocity": 32,
                "duration": 0.06590909090908781,
                "tempo": 120.0
            },
            {
                "start_time": 36.20681818181818,
                "end_time": 36.288636363636364,
                "pitch": 84,
                "velocity": 32,
                "duration": 0.08181818181818556,
                "tempo": 120.0
            },
            {
                "start_time": 36.288636363636364,
                "end_time": 36.39090909090909,
                "pitch": 87,
                "velocity": 32,
                "duration": 0.10227272727272663,
                "tempo": 120.0
            },
            {
                "start_time": 36.39090909090909,
                "end_time": 36.40681818181818,
                "pitch": 89,
                "velocity": 32,
                "duration": 0.01590909090909065,
                "tempo": 120.0
            },
            {
                "start_time": 37.41136363636363,
                "end_time": 37.49545454545454,
                "pitch": 84,
                "velocity": 32,
                "duration": 0.08409090909091077,
                "tempo": 120.0
            },
            {
                "start_time": 37.49545454545454,
                "end_time": 37.57727272727273,
                "pitch": 86,
                "velocity": 32,
                "duration": 0.08181818181818556,
                "tempo": 120.0
            },
            {
                "start_time": 37.57727272727273,
                "end_time": 37.611363636363635,
                "pitch": 88,
                "velocity": 32,
                "duration": 0.03409090909090651,
                "tempo": 120.0
            },
            {
                "start_time": 38.61363636363636,
                "end_time": 38.74545454545454,
                "pitch": 82,
                "velocity": 32,
                "duration": 0.13181818181818272,
                "tempo": 120.0
            },
            {
                "start_time": 38.74545454545454,
                "end_time": 38.81363636363636,
                "pitch": 84,
                "velocity": 32,
                "duration": 0.06818181818182012,
                "tempo": 120.0
            },
            {
                "start_time": 39.81818181818181,
                "end_time": 39.949999999999996,
                "pitch": 82,
                "velocity": 32,
                "duration": 0.13181818181818272,
                "tempo": 120.0
            },
            {
                "start_time": 39.949999999999996,
                "end_time": 40.01590909090909,
                "pitch": 84,
                "velocity": 32,
                "duration": 0.06590909090909491,
                "tempo": 120.0
            },
            {
                "start_time": 41.02272727272727,
                "end_time": 41.10454545454545,
                "pitch": 84,
                "velocity": 32,
                "duration": 0.08181818181817846,
                "tempo": 120.0
            },
            {
                "start_time": 41.10454545454545,
                "end_time": 41.18636363636364,
                "pitch": 86,
                "velocity": 32,
                "duration": 0.08181818181818556,
                "tempo": 120.0
            },
            {
                "start_time": 41.18636363636364,
                "end_time": 41.220454545454544,
                "pitch": 88,
                "velocity": 32,
                "duration": 0.03409090909090651,
                "tempo": 120.0
            },
            {
                "start_time": 41.84318181818182,
                "end_time": 41.92272727272727,
                "pitch": 84,
                "velocity": 32,
                "duration": 0.07954545454545325,
                "tempo": 120.0
            },
            {
                "start_time": 41.92272727272727,
                "end_time": 42.002272727272725,
                "pitch": 86,
                "velocity": 32,
                "duration": 0.07954545454545325,
                "tempo": 120.0
            },
            {
                "start_time": 42.002272727272725,
                "end_time": 42.03409090909091,
                "pitch": 88,
                "velocity": 32,
                "duration": 0.0318181818181813,
                "tempo": 120.0
            },
            {
                "start_time": 42.22727272727273,
                "end_time": 42.31136363636364,
                "pitch": 84,
                "velocity": 32,
                "duration": 0.08409090909091077,
                "tempo": 120.0
            },
            {
                "start_time": 42.31136363636364,
                "end_time": 42.413636363636364,
                "pitch": 87,
                "velocity": 32,
                "duration": 0.10227272727272663,
                "tempo": 120.0
            },
            {
                "start_time": 42.413636363636364,
                "end_time": 42.43181818181818,
                "pitch": 89,
                "velocity": 32,
                "duration": 0.018181818181815856,
                "tempo": 120.0
            },
            {
                "start_time": 57.94090909090909,
                "end_time": 58.07272727272727,
                "pitch": 82,
                "velocity": 32,
                "duration": 0.13181818181818272,
                "tempo": 120.0
            },
            {
                "start_time": 58.07272727272727,
                "end_time": 58.13863636363636,
                "pitch": 84,
                "velocity": 32,
                "duration": 0.06590909090908781,
                "tempo": 120.0
            },
            {
                "start_time": 59.14545454545454,
                "end_time": 59.277272727272724,
                "pitch": 82,
                "velocity": 32,
                "duration": 0.13181818181818272,
                "tempo": 120.0
            },
            {
                "start_time": 59.277272727272724,
                "end_time": 59.345454545454544,
                "pitch": 84,
                "velocity": 32,
                "duration": 0.06818181818182012,
                "tempo": 120.0
            },
            {
                "start_time": 60.36818181818182,
                "end_time": 60.44772727272727,
                "pitch": 84,
                "velocity": 32,
                "duration": 0.07954545454545325,
                "tempo": 120.0
            },
            {
                "start_time": 60.44772727272727,
                "end_time": 60.527272727272724,
                "pitch": 86,
                "velocity": 32,
                "duration": 0.07954545454545325,
                "tempo": 120.0
            },
            {
                "start_time": 60.527272727272724,
                "end_time": 60.559090909090905,
                "pitch": 88,
                "velocity": 32,
                "duration": 0.0318181818181813,
                "tempo": 120.0
            },
            {
                "start_time": 61.56363636363636,
                "end_time": 61.643181818181816,
                "pitch": 84,
                "velocity": 32,
                "duration": 0.07954545454545325,
                "tempo": 120.0
            },
            {
                "start_time": 61.643181818181816,
                "end_time": 61.74318181818182,
                "pitch": 87,
                "velocity": 32,
                "duration": 0.10000000000000142,
                "tempo": 120.0
            },
            {
                "start_time": 61.74318181818182,
                "end_time": 61.75909090909091,
                "pitch": 89,
                "velocity": 32,
                "duration": 0.01590909090909065,
                "tempo": 120.0
            },
            {
                "start_time": 62.777272727272724,
                "end_time": 62.90454545454545,
                "pitch": 82,
                "velocity": 32,
                "duration": 0.1272727272727252,
                "tempo": 120.0
            },
            {
                "start_time": 62.90454545454545,
                "end_time": 62.96818181818181,
                "pitch": 84,
                "velocity": 32,
                "duration": 0.0636363636363626,
                "tempo": 120.0
            },
            {
                "start_time": 63.98409090909091,
                "end_time": 64.10909090909091,
                "pitch": 82,
                "velocity": 32,
                "duration": 0.125,
                "tempo": 120.0
            },
            {
                "start_time": 64.10909090909091,
                "end_time": 64.175,
                "pitch": 84,
                "velocity": 32,
                "duration": 0.06590909090908781,
                "tempo": 120.0
            },
            {
                "start_time": 65.17954545454545,
                "end_time": 65.26136363636364,
                "pitch": 84,
                "velocity": 32,
                "duration": 0.08181818181819267,
                "tempo": 120.0
            },
            {
                "start_time": 65.26136363636364,
                "end_time": 65.34545454545454,
                "pitch": 86,
                "velocity": 32,
                "duration": 0.08409090909090366,
                "tempo": 120.0
            },
            {
                "start_time": 65.34545454545454,
                "end_time": 65.37954545454545,
                "pitch": 88,
                "velocity": 32,
                "duration": 0.03409090909090651,
                "tempo": 120.0
            },
            {
                "start_time": 66.39545454545454,
                "end_time": 66.475,
                "pitch": 84,
                "velocity": 32,
                "duration": 0.07954545454545325,
                "tempo": 120.0
            },
            {
                "start_time": 66.475,
                "end_time": 66.55681818181817,
                "pitch": 86,
                "velocity": 32,
                "duration": 0.08181818181817846,
                "tempo": 120.0
            },
            {
                "start_time": 66.55681818181817,
                "end_time": 66.5909090909091,
                "pitch": 88,
                "velocity": 32,
                "duration": 0.03409090909092072,
                "tempo": 120.0
            },
            {
                "start_time": 67.60227272727272,
                "end_time": 67.73181818181818,
                "pitch": 82,
                "velocity": 32,
                "duration": 0.12954545454546462,
                "tempo": 120.0
            },
            {
                "start_time": 67.73181818181818,
                "end_time": 67.79772727272727,
                "pitch": 84,
                "velocity": 32,
                "duration": 0.06590909090908781,
                "tempo": 120.0
            },
            {
                "start_time": 68.79772727272727,
                "end_time": 68.93181818181817,
                "pitch": 82,
                "velocity": 32,
                "duration": 0.13409090909090082,
                "tempo": 120.0
            },
            {
                "start_time": 68.93181818181817,
                "end_time": 69.0,
                "pitch": 84,
                "velocity": 32,
                "duration": 0.06818181818182723,
                "tempo": 120.0
            },
            {
                "start_time": 70.00454545454545,
                "end_time": 70.08863636363635,
                "pitch": 84,
                "velocity": 32,
                "duration": 0.08409090909090366,
                "tempo": 120.0
            },
            {
                "start_time": 70.08863636363635,
                "end_time": 70.17045454545455,
                "pitch": 86,
                "velocity": 32,
                "duration": 0.08181818181819267,
                "tempo": 120.0
            },
            {
                "start_time": 70.17045454545455,
                "end_time": 70.20454545454545,
                "pitch": 88,
                "velocity": 32,
                "duration": 0.03409090909090651,
                "tempo": 120.0
            },
            {
                "start_time": 71.22045454545454,
                "end_time": 71.30227272727272,
                "pitch": 84,
                "velocity": 32,
                "duration": 0.08181818181817846,
                "tempo": 120.0
            },
            {
                "start_time": 71.30227272727272,
                "end_time": 71.38181818181818,
                "pitch": 86,
                "velocity": 32,
                "duration": 0.07954545454545325,
                "tempo": 120.0
            },
            {
                "start_time": 71.38181818181818,
                "end_time": 71.41590909090908,
                "pitch": 88,
                "velocity": 32,
                "duration": 0.03409090909090651,
                "tempo": 120.0
            },
            {
                "start_time": 72.42727272727272,
                "end_time": 72.56136363636364,
                "pitch": 82,
                "velocity": 32,
                "duration": 0.13409090909091503,
                "tempo": 120.0
            },
            {
                "start_time": 72.56136363636364,
                "end_time": 72.62727272727273,
                "pitch": 84,
                "velocity": 32,
                "duration": 0.06590909090908781,
                "tempo": 120.0
            },
            {
                "start_time": 73.6340909090909,
                "end_time": 73.76590909090909,
                "pitch": 82,
                "velocity": 32,
                "duration": 0.13181818181818983,
                "tempo": 120.0
            },
            {
                "start_time": 73.76590909090909,
                "end_time": 73.8340909090909,
                "pitch": 84,
                "velocity": 32,
                "duration": 0.06818181818181301,
                "tempo": 120.0
            },
            {
                "start_time": 74.8409090909091,
                "end_time": 74.92272727272727,
                "pitch": 84,
                "velocity": 32,
                "duration": 0.08181818181817846,
                "tempo": 120.0
            },
            {
                "start_time": 74.92272727272727,
                "end_time": 75.00681818181818,
                "pitch": 86,
                "velocity": 32,
                "duration": 0.08409090909090366,
                "tempo": 120.0
            },
            {
                "start_time": 75.00681818181818,
                "end_time": 75.04090909090908,
                "pitch": 88,
                "velocity": 32,
                "duration": 0.03409090909090651,
                "tempo": 120.0
            },
            {
                "start_time": 76.04545454545455,
                "end_time": 76.12954545454545,
                "pitch": 84,
                "velocity": 32,
                "duration": 0.08409090909090366,
                "tempo": 120.0
            },
            {
                "start_time": 76.12954545454545,
                "end_time": 76.21363636363635,
                "pitch": 86,
                "velocity": 32,
                "duration": 0.08409090909090366,
                "tempo": 120.0
            },
            {
                "start_time": 76.21363636363635,
                "end_time": 76.24772727272727,
                "pitch": 88,
                "velocity": 32,
                "duration": 0.03409090909092072,
                "tempo": 120.0
            },
            {
                "start_time": 77.25227272727273,
                "end_time": 77.38636363636363,
                "pitch": 82,
                "velocity": 32,
                "duration": 0.13409090909090082,
                "tempo": 120.0
            },
            {
                "start_time": 77.38636363636363,
                "end_time": 77.45227272727273,
                "pitch": 84,
                "velocity": 32,
                "duration": 0.06590909090910202,
                "tempo": 120.0
            },
            {
                "start_time": 78.4590909090909,
                "end_time": 78.59318181818182,
                "pitch": 82,
                "velocity": 32,
                "duration": 0.13409090909091503,
                "tempo": 120.0
            },
            {
                "start_time": 78.59318181818182,
                "end_time": 78.66136363636363,
                "pitch": 84,
                "velocity": 32,
                "duration": 0.06818181818181301,
                "tempo": 120.0
            },
            {
                "start_time": 79.66590909090908,
                "end_time": 79.75,
                "pitch": 84,
                "velocity": 32,
                "duration": 0.08409090909091788,
                "tempo": 120.0
            },
            {
                "start_time": 79.75,
                "end_time": 79.85454545454544,
                "pitch": 87,
                "velocity": 32,
                "duration": 0.10454545454544473,
                "tempo": 120.0
            },
            {
                "start_time": 79.85454545454544,
                "end_time": 79.87272727272727,
                "pitch": 89,
                "velocity": 32,
                "duration": 0.018181818181830067,
                "tempo": 120.0
            },
            {
                "start_time": 80.88181818181818,
                "end_time": 80.9659090909091,
                "pitch": 84,
                "velocity": 32,
                "duration": 0.08409090909091788,
                "tempo": 120.0
            },
            {
                "start_time": 80.9659090909091,
                "end_time": 81.04772727272727,
                "pitch": 86,
                "velocity": 32,
                "duration": 0.08181818181817846,
                "tempo": 120.0
            },
            {
                "start_time": 81.04772727272727,
                "end_time": 81.0840909090909,
                "pitch": 88,
                "velocity": 32,
                "duration": 0.03636363636363171,
                "tempo": 120.0
            },
            {
                "start_time": 82.08863636363635,
                "end_time": 82.22272727272727,
                "pitch": 82,
                "velocity": 32,
                "duration": 0.13409090909091503,
                "tempo": 120.0
            },
            {
                "start_time": 82.22272727272727,
                "end_time": 82.28863636363636,
                "pitch": 84,
                "velocity": 32,
                "duration": 0.06590909090908781,
                "tempo": 120.0
            },
            {
                "start_time": 83.29545454545455,
                "end_time": 83.42727272727272,
                "pitch": 82,
                "velocity": 32,
                "duration": 0.13181818181817562,
                "tempo": 120.0
            },
            {
                "start_time": 83.42727272727272,
                "end_time": 83.49545454545454,
                "pitch": 84,
                "velocity": 32,
                "duration": 0.06818181818181301,
                "tempo": 120.0
            },
            {
                "start_time": 84.50227272727273,
                "end_time": 84.5840909090909,
                "pitch": 84,
                "velocity": 32,
                "duration": 0.08181818181817846,
                "tempo": 120.0
            },
            {
                "start_time": 84.5840909090909,
                "end_time": 84.66818181818181,
                "pitch": 86,
                "velocity": 32,
                "duration": 0.08409090909090366,
                "tempo": 120.0
            },
            {
                "start_time": 84.66818181818181,
                "end_time": 84.70227272727273,
                "pitch": 88,
                "velocity": 32,
                "duration": 0.03409090909092072,
                "tempo": 120.0
            },
            {
                "start_time": 85.31363636363636,
                "end_time": 85.39545454545454,
                "pitch": 84,
                "velocity": 32,
                "duration": 0.08181818181817846,
                "tempo": 120.0
            },
            {
                "start_time": 85.39545454545454,
                "end_time": 85.47727272727272,
                "pitch": 86,
                "velocity": 32,
                "duration": 0.08181818181817846,
                "tempo": 120.0
            },
            {
                "start_time": 85.47727272727272,
                "end_time": 85.5090909090909,
                "pitch": 88,
                "velocity": 32,
                "duration": 0.0318181818181813,
                "tempo": 120.0
            },
            {
                "start_time": 85.70681818181818,
                "end_time": 85.78863636363636,
                "pitch": 84,
                "velocity": 32,
                "duration": 0.08181818181817846,
                "tempo": 120.0
            },
            {
                "start_time": 85.78863636363636,
                "end_time": 85.89090909090909,
                "pitch": 87,
                "velocity": 32,
                "duration": 0.10227272727273373,
                "tempo": 120.0
            },
            {
                "start_time": 85.89090909090909,
                "end_time": 85.90681818181818,
                "pitch": 89,
                "velocity": 32,
                "duration": 0.01590909090909065,
                "tempo": 120.0
            }
        ],
        "Acoustic Bass": [
            {
                "start_time": 0.20681818181818182,
                "end_time": 1.0068181818181818,
                "pitch": 46,
                "velocity": 80,
                "duration": 0.8,
                "tempo": 120.0
            },
            {
                "start_time": 1.009090909090909,
                "end_time": 1.2068181818181818,
                "pitch": 41,
                "velocity": 80,
                "duration": 0.19772727272727275,
                "tempo": 120.0
            },
            {
                "start_time": 1.2068181818181818,
                "end_time": 1.4136363636363636,
                "pitch": 41,
                "velocity": 40,
                "duration": 0.2068181818181818,
                "tempo": 120.0
            },
            {
                "start_time": 1.4136363636363636,
                "end_time": 2.227272727272727,
                "pitch": 41,
                "velocity": 80,
                "duration": 0.8136363636363635,
                "tempo": 120.0
            },
            {
                "start_time": 2.227272727272727,
                "end_time": 2.4272727272727272,
                "pitch": 41,
                "velocity": 80,
                "duration": 0.20000000000000018,
                "tempo": 120.0
            },
            {
                "start_time": 2.4272727272727272,
                "end_time": 3.6409090909090907,
                "pitch": 34,
                "velocity": 80,
                "duration": 1.2136363636363634,
                "tempo": 120.0
            },
            {
                "start_time": 3.643181818181818,
                "end_time": 4.85,
                "pitch": 34,
                "velocity": 80,
                "duration": 1.2068181818181816,
                "tempo": 120.0
            },
            {
                "start_time": 4.85,
                "end_time": 6.056818181818182,
                "pitch": 34,
                "velocity": 80,
                "duration": 1.206818181818182,
                "tempo": 120.0
            },
            {
                "start_time": 6.056818181818182,
                "end_time": 7.2704545454545455,
                "pitch": 34,
                "velocity": 80,
                "duration": 1.2136363636363638,
                "tempo": 120.0
            },
            {
                "start_time": 7.2704545454545455,
                "end_time": 8.475,
                "pitch": 41,
                "velocity": 80,
                "duration": 1.2045454545454541,
                "tempo": 120.0
            },
            {
                "start_time": 8.475,
                "end_time": 9.681818181818182,
                "pitch": 29,
                "velocity": 80,
                "duration": 1.206818181818182,
                "tempo": 120.0
            },
            {
                "start_time": 9.681818181818182,
                "end_time": 10.888636363636364,
                "pitch": 46,
                "velocity": 80,
                "duration": 1.206818181818182,
                "tempo": 120.0
            },
            {
                "start_time": 10.888636363636364,
                "end_time": 12.093181818181817,
                "pitch": 34,
                "velocity": 80,
                "duration": 1.2045454545454533,
                "tempo": 120.0
            },
            {
                "start_time": 12.095454545454546,
                "end_time": 13.311363636363636,
                "pitch": 29,
                "velocity": 80,
                "duration": 1.21590909090909,
                "tempo": 120.0
            },
            {
                "start_time": 13.311363636363636,
                "end_time": 14.509090909090908,
                "pitch": 41,
                "velocity": 80,
                "duration": 1.1977272727272723,
                "tempo": 120.0
            },
            {
                "start_time": 14.509090909090908,
                "end_time": 14.911363636363635,
                "pitch": 34,
                "velocity": 80,
                "duration": 0.40227272727272734,
                "tempo": 120.0
            },
            {
                "start_time": 14.911363636363635,
                "end_time": 15.118181818181817,
                "pitch": 34,
                "velocity": 25,
                "duration": 0.206818181818182,
                "tempo": 120.0
            },
            {
                "start_time": 15.118181818181817,
                "end_time": 15.322727272727272,
                "pitch": 29,
                "velocity": 80,
                "duration": 0.20454545454545503,
                "tempo": 120.0
            },
            {
                "start_time": 15.322727272727272,
                "end_time": 15.524999999999999,
                "pitch": 31,
                "velocity": 80,
                "duration": 0.20227272727272627,
                "tempo": 120.0
            },
            {
                "start_time": 15.524999999999999,
                "end_time": 15.725,
                "pitch": 33,
                "velocity": 80,
                "duration": 0.20000000000000107,
                "tempo": 120.0
            },
            {
                "start_time": 15.727272727272727,
                "end_time": 16.118181818181817,
                "pitch": 34,
                "velocity": 80,
                "duration": 0.39090909090909065,
                "tempo": 120.0
            },
            {
                "start_time": 16.118181818181817,
                "end_time": 16.325,
                "pitch": 29,
                "velocity": 80,
                "duration": 0.206818181818182,
                "tempo": 120.0
            },
            {
                "start_time": 16.325,
                "end_time": 16.529545454545453,
                "pitch": 29,
                "velocity": 25,
                "duration": 0.20454545454545325,
                "tempo": 120.0
            },
            {
                "start_time": 16.53181818181818,
                "end_time": 16.736363636363635,
                "pitch": 29,
                "velocity": 80,
                "duration": 0.20454545454545325,
                "tempo": 120.0
            },
            {
                "start_time": 16.736363636363635,
                "end_time": 16.94090909090909,
                "pitch": 29,
                "velocity": 25,
                "duration": 0.2045454545454568,
                "tempo": 120.0
            },
            {
                "start_time": 16.94090909090909,
                "end_time": 17.32272727272727,
                "pitch": 36,
                "velocity": 80,
                "duration": 0.38181818181817917,
                "tempo": 120.0
            },
            {
                "start_time": 17.325,
                "end_time": 17.529545454545453,
                "pitch": 36,
                "velocity": 25,
                "duration": 0.20454545454545325,
                "tempo": 120.0
            },
            {
                "start_time": 17.529545454545453,
                "end_time": 17.73409090909091,
                "pitch": 31,
                "velocity": 80,
                "duration": 0.2045454545454568,
                "tempo": 120.0
            },
            {
                "start_time": 17.73409090909091,
                "end_time": 17.93409090909091,
                "pitch": 33,
                "velocity": 80,
                "duration": 0.1999999999999993,
                "tempo": 120.0
            },
            {
                "start_time": 17.936363636363634,
                "end_time": 18.136363636363637,
                "pitch": 34,
                "velocity": 80,
                "duration": 0.20000000000000284,
                "tempo": 120.0
            },
            {
                "start_time": 18.136363636363637,
                "end_time": 18.538636363636364,
                "pitch": 36,
                "velocity": 80,
                "duration": 0.40227272727272734,
                "tempo": 120.0
            },
            {
                "start_time": 18.538636363636364,
                "end_time": 18.738636363636363,
                "pitch": 31,
                "velocity": 80,
                "duration": 0.1999999999999993,
                "tempo": 120.0
            },
            {
                "start_time": 18.738636363636363,
                "end_time": 18.938636363636363,
                "pitch": 31,
                "velocity": 25,
                "duration": 0.1999999999999993,
                "tempo": 120.0
            },
            {
                "start_time": 18.938636363636363,
                "end_time": 19.145454545454545,
                "pitch": 31,
                "velocity": 80,
                "duration": 0.206818181818182,
                "tempo": 120.0
            },
            {
                "start_time": 19.145454545454545,
                "end_time": 19.349999999999998,
                "pitch": 31,
                "velocity": 25,
                "duration": 0.20454545454545325,
                "tempo": 120.0
            },
            {
                "start_time": 19.349999999999998,
                "end_time": 19.743181818181817,
                "pitch": 41,
                "velocity": 80,
                "duration": 0.3931818181818194,
                "tempo": 120.0
            },
            {
                "start_time": 19.743181818181817,
                "end_time": 19.94772727272727,
                "pitch": 41,
                "velocity": 25,
                "duration": 0.20454545454545325,
                "tempo": 120.0
            },
            {
                "start_time": 19.95,
                "end_time": 20.154545454545453,
                "pitch": 38,
                "velocity": 80,
                "duration": 0.20454545454545325,
                "tempo": 120.0
            },
            {
                "start_time": 20.154545454545453,
                "end_time": 20.354545454545452,
                "pitch": 39,
                "velocity": 80,
                "duration": 0.1999999999999993,
                "tempo": 120.0
            },
            {
                "start_time": 20.354545454545452,
                "end_time": 20.554545454545455,
                "pitch": 40,
                "velocity": 80,
                "duration": 0.20000000000000284,
                "tempo": 120.0
            },
            {
                "start_time": 20.554545454545455,
                "end_time": 20.94772727272727,
                "pitch": 41,
                "velocity": 80,
                "duration": 0.39318181818181586,
                "tempo": 120.0
            },
            {
                "start_time": 20.94772727272727,
                "end_time": 21.147727272727273,
                "pitch": 41,
                "velocity": 25,
                "duration": 0.20000000000000284,
                "tempo": 120.0
            },
            {
                "start_time": 21.147727272727273,
                "end_time": 21.347727272727273,
                "pitch": 41,
                "velocity": 80,
                "duration": 0.1999999999999993,
                "tempo": 120.0
            },
            {
                "start_time": 21.347727272727273,
                "end_time": 21.554545454545455,
                "pitch": 43,
                "velocity": 80,
                "duration": 0.206818181818182,
                "tempo": 120.0
            },
            {
                "start_time": 21.554545454545455,
                "end_time": 21.759090909090908,
                "pitch": 45,
                "velocity": 80,
                "duration": 0.20454545454545325,
                "tempo": 120.0
            },
            {
                "start_time": 21.759090909090908,
                "end_time": 21.954545454545453,
                "pitch": 46,
                "velocity": 80,
                "duration": 0.19545454545454533,
                "tempo": 120.0
            },
            {
                "start_time": 21.954545454545453,
                "end_time": 22.152272727272727,
                "pitch": 46,
                "velocity": 25,
                "duration": 0.19772727272727408,
                "tempo": 120.0
            },
            {
                "start_time": 22.152272727272727,
                "end_time": 22.35681818181818,
                "pitch": 46,
                "velocity": 16,
                "duration": 0.20454545454545325,
                "tempo": 120.0
            },
            {
                "start_time": 22.35681818181818,
                "end_time": 22.563636363636363,
                "pitch": 46,
                "velocity": 16,
                "duration": 0.206818181818182,
                "tempo": 120.0
            },
            {
                "start_time": 22.563636363636363,
                "end_time": 22.768181818181816,
                "pitch": 29,
                "velocity": 80,
                "duration": 0.20454545454545325,
                "tempo": 120.0
            },
            {
                "start_time": 22.770454545454545,
                "end_time": 22.972727272727273,
                "pitch": 29,
                "velocity": 25,
                "duration": 0.20227272727272805,
                "tempo": 120.0
            },
            {
                "start_time": 22.974999999999998,
                "end_time": 23.16590909090909,
                "pitch": 34,
                "velocity": 80,
                "duration": 0.19090909090909136,
                "tempo": 120.0
            },
            {
                "start_time": 23.16590909090909,
                "end_time": 23.35681818181818,
                "pitch": 34,
                "velocity": 25,
                "duration": 0.19090909090909136,
                "tempo": 120.0
            },
            {
                "start_time": 23.35681818181818,
                "end_time": 23.768181818181816,
                "pitch": 34,
                "velocity": 25,
                "duration": 0.41136363636363527,
                "tempo": 120.0
            },
            {
                "start_time": 23.768181818181816,
                "end_time": 24.179545454545455,
                "pitch": 34,
                "velocity": 25,
                "duration": 0.4113636363636388,
                "tempo": 120.0
            },
            {
                "start_time": 24.179545454545455,
                "end_time": 24.561363636363634,
                "pitch": 34,
                "velocity": 80,
                "duration": 0.38181818181817917,
                "tempo": 120.0
            },
            {
                "start_time": 24.561363636363634,
                "end_time": 24.761363636363637,
                "pitch": 34,
                "velocity": 25,
                "duration": 0.20000000000000284,
                "tempo": 120.0
            },
            {
                "start_time": 24.763636363636362,
                "end_time": 25.163636363636364,
                "pitch": 33,
                "velocity": 80,
                "duration": 0.40000000000000213,
                "tempo": 120.0
            },
            {
                "start_time": 25.163636363636364,
                "end_time": 25.263636363636362,
                "pitch": 29,
                "velocity": 80,
                "duration": 0.09999999999999787,
                "tempo": 120.0
            },
            {
                "start_time": 25.263636363636362,
                "end_time": 25.363636363636363,
                "pitch": 29,
                "velocity": 25,
                "duration": 0.10000000000000142,
                "tempo": 120.0
            },
            {
                "start_time": 25.363636363636363,
                "end_time": 25.568181818181817,
                "pitch": 34,
                "velocity": 80,
                "duration": 0.20454545454545325,
                "tempo": 120.0
            },
            {
                "start_time": 25.570454545454545,
                "end_time": 25.775,
                "pitch": 34,
                "velocity": 40,
                "duration": 0.20454545454545325,
                "tempo": 120.0
            },
            {
                "start_time": 25.775,
                "end_time": 26.177272727272726,
                "pitch": 33,
                "velocity": 80,
                "duration": 0.40227272727272734,
                "tempo": 120.0
            },
            {
                "start_time": 26.177272727272726,
                "end_time": 26.377272727272725,
                "pitch": 29,
                "velocity": 80,
                "duration": 0.1999999999999993,
                "tempo": 120.0
            },
            {
                "start_time": 26.377272727272725,
                "end_time": 26.579545454545453,
                "pitch": 29,
                "velocity": 40,
                "duration": 0.20227272727272805,
                "tempo": 120.0
            },
            {
                "start_time": 26.579545454545453,
                "end_time": 26.98181818181818,
                "pitch": 34,
                "velocity": 80,
                "duration": 0.40227272727272734,
                "tempo": 120.0
            },
            {
                "start_time": 26.98181818181818,
                "end_time": 27.18181818181818,
                "pitch": 34,
                "velocity": 25,
                "duration": 0.1999999999999993,
                "tempo": 120.0
            },
            {
                "start_time": 27.18181818181818,
                "end_time": 27.581818181818182,
                "pitch": 33,
                "velocity": 80,
                "duration": 0.40000000000000213,
                "tempo": 120.0
            },
            {
                "start_time": 27.581818181818182,
                "end_time": 27.68181818181818,
                "pitch": 29,
                "velocity": 80,
                "duration": 0.09999999999999787,
                "tempo": 120.0
            },
            {
                "start_time": 27.68181818181818,
                "end_time": 27.78181818181818,
                "pitch": 29,
                "velocity": 25,
                "duration": 0.10000000000000142,
                "tempo": 120.0
            },
            {
                "start_time": 27.784090909090907,
                "end_time": 27.98409090909091,
                "pitch": 34,
                "velocity": 80,
                "duration": 0.20000000000000284,
                "tempo": 120.0
            },
            {
                "start_time": 27.98409090909091,
                "end_time": 28.186363636363634,
                "pitch": 34,
                "velocity": 40,
                "duration": 0.2022727272727245,
                "tempo": 120.0
            },
            {
                "start_time": 28.186363636363634,
                "end_time": 28.586363636363636,
                "pitch": 33,
                "velocity": 80,
                "duration": 0.40000000000000213,
                "tempo": 120.0
            },
            {
                "start_time": 28.586363636363636,
                "end_time": 28.78863636363636,
                "pitch": 29,
                "velocity": 80,
                "duration": 0.2022727272727245,
                "tempo": 120.0
            },
            {
                "start_time": 28.78863636363636,
                "end_time": 28.988636363636363,
                "pitch": 29,
                "velocity": 40,
                "duration": 0.20000000000000284,
                "tempo": 120.0
            },
            {
                "start_time": 28.99090909090909,
                "end_time": 29.39090909090909,
                "pitch": 36,
                "velocity": 80,
                "duration": 0.40000000000000213,
                "tempo": 120.0
            },
            {
                "start_time": 29.39090909090909,
                "end_time": 29.59090909090909,
                "pitch": 36,
                "velocity": 25,
                "duration": 0.1999999999999993,
                "tempo": 120.0
            },
            {
                "start_time": 29.59090909090909,
                "end_time": 29.79090909090909,
                "pitch": 35,
                "velocity": 80,
                "duration": 0.1999999999999993,
                "tempo": 120.0
            },
            {
                "start_time": 29.79090909090909,
                "end_time": 29.993181818181817,
                "pitch": 36,
                "velocity": 80,
                "duration": 0.20227272727272805,
                "tempo": 120.0
            },
            {
                "start_time": 29.993181818181817,
                "end_time": 30.093181818181815,
                "pitch": 29,
                "velocity": 80,
                "duration": 0.09999999999999787,
                "tempo": 120.0
            },
            {
                "start_time": 30.093181818181815,
                "end_time": 30.193181818181817,
                "pitch": 29,
                "velocity": 25,
                "duration": 0.10000000000000142,
                "tempo": 120.0
            },
            {
                "start_time": 30.193181818181817,
                "end_time": 30.393181818181816,
                "pitch": 36,
                "velocity": 80,
                "duration": 0.1999999999999993,
                "tempo": 120.0
            },
            {
                "start_time": 30.393181818181816,
                "end_time": 30.593181818181815,
                "pitch": 36,
                "velocity": 40,
                "duration": 0.1999999999999993,
                "tempo": 120.0
            },
            {
                "start_time": 30.595454545454544,
                "end_time": 30.795454545454543,
                "pitch": 35,
                "velocity": 80,
                "duration": 0.1999999999999993,
                "tempo": 120.0
            },
            {
                "start_time": 29.79090909090909,
                "end_time": 30.795454545454543,
                "pitch": 40,
                "velocity": 80,
                "duration": 1.004545454545454,
                "tempo": 120.0
            },
            {
                "start_time": 30.795454545454543,
                "end_time": 30.99772727272727,
                "pitch": 36,
                "velocity": 80,
                "duration": 0.20227272727272805,
                "tempo": 120.0
            },
            {
                "start_time": 30.99772727272727,
                "end_time": 31.097727272727273,
                "pitch": 29,
                "velocity": 80,
                "duration": 0.10000000000000142,
                "tempo": 120.0
            },
            {
                "start_time": 31.097727272727273,
                "end_time": 31.19772727272727,
                "pitch": 29,
                "velocity": 25,
                "duration": 0.09999999999999787,
                "tempo": 120.0
            },
            {
                "start_time": 31.19772727272727,
                "end_time": 31.297727272727272,
                "pitch": 29,
                "velocity": 80,
                "duration": 0.10000000000000142,
                "tempo": 120.0
            },
            {
                "start_time": 31.297727272727272,
                "end_time": 31.39772727272727,
                "pitch": 29,
                "velocity": 25,
                "duration": 0.09999999999999787,
                "tempo": 120.0
            },
            {
                "start_time": 31.39772727272727,
                "end_time": 31.597727272727273,
                "pitch": 36,
                "velocity": 80,
                "duration": 0.20000000000000284,
                "tempo": 120.0
            },
            {
                "start_time": 31.597727272727273,
                "end_time": 31.797727272727272,
                "pitch": 38,
                "velocity": 80,
                "duration": 0.1999999999999993,
                "tempo": 120.0
            },
            {
                "start_time": 31.797727272727272,
                "end_time": 32.0,
                "pitch": 36,
                "velocity": 80,
                "duration": 0.20227272727272805,
                "tempo": 120.0
            },
            {
                "start_time": 32.0,
                "end_time": 32.20227272727273,
                "pitch": 34,
                "velocity": 80,
                "duration": 0.20227272727272805,
                "tempo": 120.0
            },
            {
                "start_time": 32.20227272727273,
                "end_time": 32.40681818181818,
                "pitch": 33,
                "velocity": 80,
                "duration": 0.20454545454545325,
                "tempo": 120.0
            },
            {
                "start_time": 32.40681818181818,
                "end_time": 32.61363636363636,
                "pitch": 31,
                "velocity": 80,
                "duration": 0.20681818181817846,
                "tempo": 120.0
            },
            {
                "start_time": 32.61363636363636,
                "end_time": 33.41590909090909,
                "pitch": 28,
                "velocity": 80,
                "duration": 0.8022727272727295,
                "tempo": 120.0
            },
            {
                "start_time": 33.418181818181814,
                "end_time": 33.51590909090909,
                "pitch": 29,
                "velocity": 80,
                "duration": 0.09772727272727622,
                "tempo": 120.0
            },
            {
                "start_time": 33.518181818181816,
                "end_time": 33.61818181818182,
                "pitch": 29,
                "velocity": 40,
                "duration": 0.10000000000000142,
                "tempo": 120.0
            },
            {
                "start_time": 33.61818181818182,
                "end_time": 33.71818181818182,
                "pitch": 29,
                "velocity": 80,
                "duration": 0.10000000000000142,
                "tempo": 120.0
            },
            {
                "start_time": 33.71818181818182,
                "end_time": 33.81818181818181,
                "pitch": 29,
                "velocity": 40,
                "duration": 0.09999999999999432,
                "tempo": 120.0
            },
            {
                "start_time": 33.81818181818181,
                "end_time": 34.21818181818182,
                "pitch": 34,
                "velocity": 80,
                "duration": 0.4000000000000057,
                "tempo": 120.0
            },
            {
                "start_time": 34.21818181818182,
                "end_time": 34.418181818181814,
                "pitch": 34,
                "velocity": 25,
                "duration": 0.19999999999999574,
                "tempo": 120.0
            },
            {
                "start_time": 34.418181818181814,
                "end_time": 34.820454545454545,
                "pitch": 33,
                "velocity": 80,
                "duration": 0.4022727272727309,
                "tempo": 120.0
            },
            {
                "start_time": 34.820454545454545,
                "end_time": 34.92045454545455,
                "pitch": 29,
                "velocity": 80,
                "duration": 0.10000000000000142,
                "tempo": 120.0
            },
            {
                "start_time": 34.92045454545455,
                "end_time": 35.02272727272727,
                "pitch": 29,
                "velocity": 25,
                "duration": 0.10227272727272663,
                "tempo": 120.0
            },
            {
                "start_time": 35.02272727272727,
                "end_time": 35.22272727272727,
                "pitch": 34,
                "velocity": 80,
                "duration": 0.19999999999999574,
                "tempo": 120.0
            },
            {
                "start_time": 35.22272727272727,
                "end_time": 35.42272727272727,
                "pitch": 34,
                "velocity": 40,
                "duration": 0.20000000000000284,
                "tempo": 120.0
            },
            {
                "start_time": 35.42272727272727,
                "end_time": 35.82272727272727,
                "pitch": 33,
                "velocity": 80,
                "duration": 0.3999999999999986,
                "tempo": 120.0
            },
            {
                "start_time": 35.82272727272727,
                "end_time": 36.02272727272727,
                "pitch": 29,
                "velocity": 80,
                "duration": 0.20000000000000284,
                "tempo": 120.0
            },
            {
                "start_time": 36.02272727272727,
                "end_time": 36.22272727272727,
                "pitch": 29,
                "velocity": 40,
                "duration": 0.19999999999999574,
                "tempo": 120.0
            },
            {
                "start_time": 36.22272727272727,
                "end_time": 36.62272727272727,
                "pitch": 34,
                "velocity": 80,
                "duration": 0.3999999999999986,
                "tempo": 120.0
            },
            {
                "start_time": 36.625,
                "end_time": 36.824999999999996,
                "pitch": 34,
                "velocity": 25,
                "duration": 0.19999999999999574,
                "tempo": 120.0
            },
            {
                "start_time": 36.824999999999996,
                "end_time": 37.22727272727273,
                "pitch": 33,
                "velocity": 80,
                "duration": 0.4022727272727309,
                "tempo": 120.0
            },
            {
                "start_time": 37.22727272727273,
                "end_time": 37.32727272727273,
                "pitch": 29,
                "velocity": 80,
                "duration": 0.10000000000000142,
                "tempo": 120.0
            },
            {
                "start_time": 37.32727272727273,
                "end_time": 37.42727272727272,
                "pitch": 29,
                "velocity": 25,
                "duration": 0.09999999999999432,
                "tempo": 120.0
            },
            {
                "start_time": 37.42727272727272,
                "end_time": 37.627272727272725,
                "pitch": 34,
                "velocity": 80,
                "duration": 0.20000000000000284,
                "tempo": 120.0
            },
            {
                "start_time": 37.627272727272725,
                "end_time": 37.82727272727273,
                "pitch": 34,
                "velocity": 40,
                "duration": 0.20000000000000284,
                "tempo": 120.0
            },
            {
                "start_time": 37.82727272727273,
                "end_time": 38.22727272727273,
                "pitch": 33,
                "velocity": 80,
                "duration": 0.3999999999999986,
                "tempo": 120.0
            },
            {
                "start_time": 38.22954545454545,
                "end_time": 38.429545454545455,
                "pitch": 29,
                "velocity": 80,
                "duration": 0.20000000000000284,
                "tempo": 120.0
            },
            {
                "start_time": 38.429545454545455,
                "end_time": 38.62954545454545,
                "pitch": 29,
                "velocity": 40,
                "duration": 0.19999999999999574,
                "tempo": 120.0
            },
            {
                "start_time": 38.62954545454545,
                "end_time": 39.03181818181818,
                "pitch": 36,
                "velocity": 80,
                "duration": 0.4022727272727309,
                "tempo": 120.0
            },
            {
                "start_time": 39.03181818181818,
                "end_time": 39.23181818181818,
                "pitch": 36,
                "velocity": 25,
                "duration": 0.19999999999999574,
                "tempo": 120.0
            },
            {
                "start_time": 39.23181818181818,
                "end_time": 39.43181818181818,
                "pitch": 35,
                "velocity": 80,
                "duration": 0.20000000000000284,
                "tempo": 120.0
            },
            {
                "start_time": 30.795454545454543,
                "end_time": 39.43181818181818,
                "pitch": 40,
                "velocity": 80,
                "duration": 8.636363636363637,
                "tempo": 120.0
            },
            {
                "start_time": 39.43181818181818,
                "end_time": 39.63181818181818,
                "pitch": 36,
                "velocity": 80,
                "duration": 0.20000000000000284,
                "tempo": 120.0
            },
            {
                "start_time": 39.63409090909091,
                "end_time": 39.73409090909091,
                "pitch": 29,
                "velocity": 80,
                "duration": 0.10000000000000142,
                "tempo": 120.0
            },
            {
                "start_time": 39.73409090909091,
                "end_time": 39.834090909090904,
                "pitch": 29,
                "velocity": 25,
                "duration": 0.09999999999999432,
                "tempo": 120.0
            },
            {
                "start_time": 39.834090909090904,
                "end_time": 40.03409090909091,
                "pitch": 36,
                "velocity": 80,
                "duration": 0.20000000000000284,
                "tempo": 120.0
            },
            {
                "start_time": 40.03409090909091,
                "end_time": 40.23409090909091,
                "pitch": 36,
                "velocity": 40,
                "duration": 0.20000000000000284,
                "tempo": 120.0
            },
            {
                "start_time": 40.23409090909091,
                "end_time": 40.434090909090905,
                "pitch": 35,
                "velocity": 80,
                "duration": 0.19999999999999574,
                "tempo": 120.0
            },
            {
                "start_time": 39.43181818181818,
                "end_time": 40.434090909090905,
                "pitch": 40,
                "velocity": 80,
                "duration": 1.0022727272727252,
                "tempo": 120.0
            },
            {
                "start_time": 40.434090909090905,
                "end_time": 40.63409090909091,
                "pitch": 36,
                "velocity": 80,
                "duration": 0.20000000000000284,
                "tempo": 120.0
            },
            {
                "start_time": 40.63409090909091,
                "end_time": 40.73409090909091,
                "pitch": 29,
                "velocity": 80,
                "duration": 0.10000000000000142,
                "tempo": 120.0
            },
            {
                "start_time": 40.736363636363635,
                "end_time": 40.836363636363636,
                "pitch": 29,
                "velocity": 25,
                "duration": 0.10000000000000142,
                "tempo": 120.0
            },
            {
                "start_time": 40.836363636363636,
                "end_time": 40.93636363636364,
                "pitch": 29,
                "velocity": 80,
                "duration": 0.10000000000000142,
                "tempo": 120.0
            },
            {
                "start_time": 40.93636363636364,
                "end_time": 41.03636363636363,
                "pitch": 29,
                "velocity": 25,
                "duration": 0.09999999999999432,
                "tempo": 120.0
            },
            {
                "start_time": 41.038636363636364,
                "end_time": 41.43863636363636,
                "pitch": 29,
                "velocity": 80,
                "duration": 0.3999999999999986,
                "tempo": 120.0
            },
            {
                "start_time": 41.43863636363636,
                "end_time": 41.85909090909091,
                "pitch": 29,
                "velocity": 32,
                "duration": 0.42045454545454675,
                "tempo": 120.0
            },
            {
                "start_time": 41.85909090909091,
                "end_time": 42.24318181818182,
                "pitch": 33,
                "velocity": 80,
                "duration": 0.38409090909090793,
                "tempo": 120.0
            },
            {
                "start_time": 42.24318181818182,
                "end_time": 42.652272727272724,
                "pitch": 34,
                "velocity": 80,
                "duration": 0.4090909090909065,
                "tempo": 120.0
            },
            {
                "start_time": 43.434090909090905,
                "end_time": 44.24318181818182,
                "pitch": 46,
                "velocity": 80,
                "duration": 0.8090909090909122,
                "tempo": 120.0
            },
            {
                "start_time": 44.24318181818182,
                "end_time": 44.44318181818181,
                "pitch": 41,
                "velocity": 80,
                "duration": 0.19999999999999574,
                "tempo": 120.0
            },
            {
                "start_time": 44.445454545454545,
                "end_time": 44.64772727272727,
                "pitch": 41,
                "velocity": 40,
                "duration": 0.20227272727272805,
                "tempo": 120.0
            },
            {
                "start_time": 44.64772727272727,
                "end_time": 45.46363636363636,
                "pitch": 41,
                "velocity": 80,
                "duration": 0.8159090909090878,
                "tempo": 120.0
            },
            {
                "start_time": 45.46363636363636,
                "end_time": 45.68181818181818,
                "pitch": 41,
                "velocity": 80,
                "duration": 0.2181818181818187,
                "tempo": 120.0
            },
            {
                "start_time": 45.68181818181818,
                "end_time": 47.05227272727272,
                "pitch": 34,
                "velocity": 80,
                "duration": 1.3704545454545425,
                "tempo": 120.0
            },
            {
                "start_time": 47.05227272727272,
                "end_time": 48.30681818181818,
                "pitch": 34,
                "velocity": 80,
                "duration": 1.2545454545454575,
                "tempo": 120.0
            },
            {
                "start_time": 48.30681818181818,
                "end_time": 49.51136363636363,
                "pitch": 34,
                "velocity": 80,
                "duration": 1.2045454545454533,
                "tempo": 120.0
            },
            {
                "start_time": 49.51136363636363,
                "end_time": 50.715909090909086,
                "pitch": 34,
                "velocity": 80,
                "duration": 1.2045454545454533,
                "tempo": 120.0
            },
            {
                "start_time": 50.715909090909086,
                "end_time": 51.93181818181818,
                "pitch": 41,
                "velocity": 80,
                "duration": 1.2159090909090935,
                "tempo": 120.0
            },
            {
                "start_time": 51.93181818181818,
                "end_time": 53.127272727272725,
                "pitch": 29,
                "velocity": 80,
                "duration": 1.1954545454545453,
                "tempo": 120.0
            },
            {
                "start_time": 53.12954545454545,
                "end_time": 54.340909090909086,
                "pitch": 46,
                "velocity": 80,
                "duration": 1.211363636363636,
                "tempo": 120.0
            },
            {
                "start_time": 54.340909090909086,
                "end_time": 55.543181818181814,
                "pitch": 34,
                "velocity": 80,
                "duration": 1.202272727272728,
                "tempo": 120.0
            },
            {
                "start_time": 55.54545454545454,
                "end_time": 56.752272727272725,
                "pitch": 29,
                "velocity": 80,
                "duration": 1.2068181818181856,
                "tempo": 120.0
            },
            {
                "start_time": 56.752272727272725,
                "end_time": 57.95681818181818,
                "pitch": 41,
                "velocity": 80,
                "duration": 1.2045454545454533,
                "tempo": 120.0
            },
            {
                "start_time": 57.95681818181818,
                "end_time": 58.35681818181818,
                "pitch": 34,
                "velocity": 80,
                "duration": 0.3999999999999986,
                "tempo": 120.0
            },
            {
                "start_time": 58.35681818181818,
                "end_time": 58.559090909090905,
                "pitch": 34,
                "velocity": 25,
                "duration": 0.20227272727272805,
                "tempo": 120.0
            },
            {
                "start_time": 58.559090909090905,
                "end_time": 58.75909090909091,
                "pitch": 29,
                "velocity": 80,
                "duration": 0.20000000000000284,
                "tempo": 120.0
            },
            {
                "start_time": 58.75909090909091,
                "end_time": 58.959090909090904,
                "pitch": 31,
                "velocity": 80,
                "duration": 0.19999999999999574,
                "tempo": 120.0
            },
            {
                "start_time": 58.961363636363636,
                "end_time": 59.16136363636363,
                "pitch": 33,
                "velocity": 80,
                "duration": 0.19999999999999574,
                "tempo": 120.0
            },
            {
                "start_time": 59.16136363636363,
                "end_time": 59.56136363636363,
                "pitch": 34,
                "velocity": 80,
                "duration": 0.3999999999999986,
                "tempo": 120.0
            },
            {
                "start_time": 59.56136363636363,
                "end_time": 59.77272727272727,
                "pitch": 29,
                "velocity": 80,
                "duration": 0.21136363636364308,
                "tempo": 120.0
            },
            {
                "start_time": 59.77272727272727,
                "end_time": 59.98409090909091,
                "pitch": 29,
                "velocity": 25,
                "duration": 0.21136363636363598,
                "tempo": 120.0
            },
            {
                "start_time": 59.98409090909091,
                "end_time": 60.184090909090905,
                "pitch": 29,
                "velocity": 80,
                "duration": 0.19999999999999574,
                "tempo": 120.0
            },
            {
                "start_time": 60.184090909090905,
                "end_time": 60.38409090909091,
                "pitch": 29,
                "velocity": 25,
                "duration": 0.20000000000000284,
                "tempo": 120.0
            },
            {
                "start_time": 60.38409090909091,
                "end_time": 60.76590909090909,
                "pitch": 36,
                "velocity": 80,
                "duration": 0.3818181818181827,
                "tempo": 120.0
            },
            {
                "start_time": 60.768181818181816,
                "end_time": 60.97272727272727,
                "pitch": 36,
                "velocity": 25,
                "duration": 0.20454545454545325,
                "tempo": 120.0
            },
            {
                "start_time": 60.97272727272727,
                "end_time": 61.17727272727272,
                "pitch": 31,
                "velocity": 80,
                "duration": 0.20454545454545325,
                "tempo": 120.0
            },
            {
                "start_time": 61.17727272727272,
                "end_time": 61.377272727272725,
                "pitch": 33,
                "velocity": 80,
                "duration": 0.20000000000000284,
                "tempo": 120.0
            },
            {
                "start_time": 61.37954545454545,
                "end_time": 61.57727272727272,
                "pitch": 34,
                "velocity": 80,
                "duration": 0.19772727272727053,
                "tempo": 120.0
            },
            {
                "start_time": 61.57954545454545,
                "end_time": 61.970454545454544,
                "pitch": 36,
                "velocity": 80,
                "duration": 0.39090909090909065,
                "tempo": 120.0
            },
            {
                "start_time": 61.97272727272727,
                "end_time": 62.17045454545454,
                "pitch": 31,
                "velocity": 80,
                "duration": 0.19772727272727053,
                "tempo": 120.0
            },
            {
                "start_time": 62.17272727272727,
                "end_time": 62.37272727272727,
                "pitch": 31,
                "velocity": 25,
                "duration": 0.19999999999999574,
                "tempo": 120.0
            },
            {
                "start_time": 62.37272727272727,
                "end_time": 62.584090909090904,
                "pitch": 31,
                "velocity": 80,
                "duration": 0.21136363636363598,
                "tempo": 120.0
            },
            {
                "start_time": 62.584090909090904,
                "end_time": 62.793181818181814,
                "pitch": 31,
                "velocity": 25,
                "duration": 0.20909090909091077,
                "tempo": 120.0
            },
            {
                "start_time": 62.793181818181814,
                "end_time": 63.17727272727272,
                "pitch": 41,
                "velocity": 80,
                "duration": 0.38409090909090793,
                "tempo": 120.0
            },
            {
                "start_time": 63.17727272727272,
                "end_time": 63.381818181818176,
                "pitch": 41,
                "velocity": 25,
                "duration": 0.20454545454545325,
                "tempo": 120.0
            },
            {
                "start_time": 63.381818181818176,
                "end_time": 63.58863636363636,
                "pitch": 38,
                "velocity": 80,
                "duration": 0.20681818181818556,
                "tempo": 120.0
            },
            {
                "start_time": 63.58863636363636,
                "end_time": 63.793181818181814,
                "pitch": 39,
                "velocity": 80,
                "duration": 0.20454545454545325,
                "tempo": 120.0
            },
            {
                "start_time": 40.434090909090905,
                "end_time": 63.99772727272727,
                "pitch": 40,
                "velocity": 80,
                "duration": 23.563636363636363,
                "tempo": 120.0
            },
            {
                "start_time": 63.793181818181814,
                "end_time": 63.99772727272727,
                "pitch": 40,
                "velocity": 80,
                "duration": 0.20454545454545325,
                "tempo": 120.0
            },
            {
                "start_time": 63.99772727272727,
                "end_time": 64.38181818181818,
                "pitch": 41,
                "velocity": 80,
                "duration": 0.38409090909090793,
                "tempo": 120.0
            },
            {
                "start_time": 64.38181818181818,
                "end_time": 64.58636363636363,
                "pitch": 41,
                "velocity": 25,
                "duration": 0.20454545454545325,
                "tempo": 120.0
            },
            {
                "start_time": 64.58636363636363,
                "end_time": 64.79318181818182,
                "pitch": 41,
                "velocity": 80,
                "duration": 0.20681818181819267,
                "tempo": 120.0
            },
            {
                "start_time": 64.79318181818182,
                "end_time": 64.99318181818181,
                "pitch": 43,
                "velocity": 80,
                "duration": 0.19999999999998863,
                "tempo": 120.0
            },
            {
                "start_time": 64.99545454545454,
                "end_time": 65.19545454545454,
                "pitch": 45,
                "velocity": 80,
                "duration": 0.20000000000000284,
                "tempo": 120.0
            },
            {
                "start_time": 65.19545454545454,
                "end_time": 65.39545454545454,
                "pitch": 46,
                "velocity": 80,
                "duration": 0.20000000000000284,
                "tempo": 120.0
            },
            {
                "start_time": 65.39545454545454,
                "end_time": 65.59545454545454,
                "pitch": 46,
                "velocity": 25,
                "duration": 0.20000000000000284,
                "tempo": 120.0
            },
            {
                "start_time": 65.59545454545454,
                "end_time": 65.80227272727272,
                "pitch": 46,
                "velocity": 16,
                "duration": 0.20681818181817846,
                "tempo": 120.0
            },
            {
                "start_time": 65.80227272727272,
                "end_time": 66.00681818181818,
                "pitch": 46,
                "velocity": 16,
                "duration": 0.20454545454545325,
                "tempo": 120.0
            },
            {
                "start_time": 66.0090909090909,
                "end_time": 66.2090909090909,
                "pitch": 29,
                "velocity": 80,
                "duration": 0.20000000000000284,
                "tempo": 120.0
            },
            {
                "start_time": 66.2090909090909,
                "end_time": 66.41136363636363,
                "pitch": 29,
                "velocity": 25,
                "duration": 0.20227272727272805,
                "tempo": 120.0
            },
            {
                "start_time": 66.41136363636363,
                "end_time": 66.60681818181818,
                "pitch": 34,
                "velocity": 80,
                "duration": 0.19545454545455243,
                "tempo": 120.0
            },
            {
                "start_time": 66.60681818181818,
                "end_time": 66.80227272727272,
                "pitch": 34,
                "velocity": 25,
                "duration": 0.19545454545453822,
                "tempo": 120.0
            },
            {
                "start_time": 66.80454545454545,
                "end_time": 67.21363636363635,
                "pitch": 34,
                "velocity": 25,
                "duration": 0.4090909090909065,
                "tempo": 120.0
            },
            {
                "start_time": 67.2159090909091,
                "end_time": 67.61818181818181,
                "pitch": 34,
                "velocity": 25,
                "duration": 0.4022727272727167,
                "tempo": 120.0
            },
            {
                "start_time": 67.61818181818181,
                "end_time": 68.01136363636363,
                "pitch": 34,
                "velocity": 80,
                "duration": 0.39318181818181586,
                "tempo": 120.0
            },
            {
                "start_time": 68.01136363636363,
                "end_time": 68.21136363636363,
                "pitch": 34,
                "velocity": 25,
                "duration": 0.20000000000000284,
                "tempo": 120.0
            },
            {
                "start_time": 68.21136363636363,
                "end_time": 68.61363636363636,
                "pitch": 33,
                "velocity": 80,
                "duration": 0.4022727272727309,
                "tempo": 120.0
            },
            {
                "start_time": 68.61363636363636,
                "end_time": 68.71363636363635,
                "pitch": 29,
                "velocity": 80,
                "duration": 0.09999999999999432,
                "tempo": 120.0
            },
            {
                "start_time": 68.71363636363635,
                "end_time": 68.81363636363636,
                "pitch": 29,
                "velocity": 25,
                "duration": 0.10000000000000853,
                "tempo": 120.0
            },
            {
                "start_time": 68.81590909090909,
                "end_time": 69.01590909090909,
                "pitch": 34,
                "velocity": 80,
                "duration": 0.20000000000000284,
                "tempo": 120.0
            },
            {
                "start_time": 69.01590909090909,
                "end_time": 69.21818181818182,
                "pitch": 34,
                "velocity": 40,
                "duration": 0.20227272727272805,
                "tempo": 120.0
            },
            {
                "start_time": 69.21818181818182,
                "end_time": 69.61818181818181,
                "pitch": 33,
                "velocity": 80,
                "duration": 0.3999999999999915,
                "tempo": 120.0
            },
            {
                "start_time": 69.61818181818181,
                "end_time": 69.82045454545454,
                "pitch": 29,
                "velocity": 80,
                "duration": 0.20227272727272805,
                "tempo": 120.0
            },
            {
                "start_time": 69.82045454545454,
                "end_time": 70.02045454545454,
                "pitch": 29,
                "velocity": 40,
                "duration": 0.20000000000000284,
                "tempo": 120.0
            },
            {
                "start_time": 70.02272727272727,
                "end_time": 70.42272727272727,
                "pitch": 34,
                "velocity": 80,
                "duration": 0.4000000000000057,
                "tempo": 120.0
            },
            {
                "start_time": 70.42272727272727,
                "end_time": 70.62272727272727,
                "pitch": 34,
                "velocity": 25,
                "duration": 0.20000000000000284,
                "tempo": 120.0
            },
            {
                "start_time": 70.62272727272727,
                "end_time": 71.03181818181818,
                "pitch": 33,
                "velocity": 80,
                "duration": 0.4090909090909065,
                "tempo": 120.0
            },
            {
                "start_time": 71.03181818181818,
                "end_time": 71.1340909090909,
                "pitch": 29,
                "velocity": 80,
                "duration": 0.10227272727271952,
                "tempo": 120.0
            },
            {
                "start_time": 71.1340909090909,
                "end_time": 71.23636363636363,
                "pitch": 29,
                "velocity": 25,
                "duration": 0.10227272727273373,
                "tempo": 120.0
            },
            {
                "start_time": 71.23636363636363,
                "end_time": 71.43181818181817,
                "pitch": 34,
                "velocity": 80,
                "duration": 0.19545454545453822,
                "tempo": 120.0
            },
            {
                "start_time": 71.43181818181817,
                "end_time": 71.62954545454545,
                "pitch": 34,
                "velocity": 40,
                "duration": 0.19772727272727764,
                "tempo": 120.0
            },
            {
                "start_time": 71.62954545454545,
                "end_time": 72.04090909090908,
                "pitch": 33,
                "velocity": 80,
                "duration": 0.4113636363636317,
                "tempo": 120.0
            },
            {
                "start_time": 72.04090909090908,
                "end_time": 72.24090909090908,
                "pitch": 29,
                "velocity": 80,
                "duration": 0.20000000000000284,
                "tempo": 120.0
            },
            {
                "start_time": 72.24090909090908,
                "end_time": 72.44318181818181,
                "pitch": 29,
                "velocity": 40,
                "duration": 0.20227272727272805,
                "tempo": 120.0
            },
            {
                "start_time": 72.44318181818181,
                "end_time": 72.84545454545454,
                "pitch": 36,
                "velocity": 80,
                "duration": 0.4022727272727309,
                "tempo": 120.0
            },
            {
                "start_time": 72.84545454545454,
                "end_time": 73.04318181818182,
                "pitch": 36,
                "velocity": 25,
                "duration": 0.19772727272727764,
                "tempo": 120.0
            },
            {
                "start_time": 73.04318181818182,
                "end_time": 73.23863636363636,
                "pitch": 35,
                "velocity": 80,
                "duration": 0.19545454545453822,
                "tempo": 120.0
            },
            {
                "start_time": 73.23863636363636,
                "end_time": 73.44545454545454,
                "pitch": 36,
                "velocity": 80,
                "duration": 0.20681818181817846,
                "tempo": 120.0
            },
            {
                "start_time": 73.44545454545454,
                "end_time": 73.54772727272727,
                "pitch": 29,
                "velocity": 80,
                "duration": 0.10227272727273373,
                "tempo": 120.0
            },
            {
                "start_time": 73.54772727272727,
                "end_time": 73.64999999999999,
                "pitch": 29,
                "velocity": 25,
                "duration": 0.10227272727271952,
                "tempo": 120.0
            },
            {
                "start_time": 73.64999999999999,
                "end_time": 73.85,
                "pitch": 36,
                "velocity": 80,
                "duration": 0.20000000000000284,
                "tempo": 120.0
            },
            {
                "start_time": 73.85,
                "end_time": 74.05,
                "pitch": 36,
                "velocity": 40,
                "duration": 0.20000000000000284,
                "tempo": 120.0
            },
            {
                "start_time": 74.05227272727272,
                "end_time": 74.25227272727273,
                "pitch": 35,
                "velocity": 80,
                "duration": 0.20000000000000284,
                "tempo": 120.0
            },
            {
                "start_time": 73.23863636363636,
                "end_time": 74.25227272727273,
                "pitch": 40,
                "velocity": 80,
                "duration": 1.0136363636363654,
                "tempo": 120.0
            },
            {
                "start_time": 74.25227272727273,
                "end_time": 74.45454545454545,
                "pitch": 36,
                "velocity": 80,
                "duration": 0.20227272727272805,
                "tempo": 120.0
            },
            {
                "start_time": 74.45454545454545,
                "end_time": 74.55454545454545,
                "pitch": 29,
                "velocity": 80,
                "duration": 0.09999999999999432,
                "tempo": 120.0
            },
            {
                "start_time": 74.55454545454545,
                "end_time": 74.65454545454546,
                "pitch": 29,
                "velocity": 25,
                "duration": 0.10000000000000853,
                "tempo": 120.0
            },
            {
                "start_time": 74.65681818181818,
                "end_time": 74.75681818181818,
                "pitch": 29,
                "velocity": 80,
                "duration": 0.09999999999999432,
                "tempo": 120.0
            },
            {
                "start_time": 74.75681818181818,
                "end_time": 74.85681818181818,
                "pitch": 29,
                "velocity": 25,
                "duration": 0.10000000000000853,
                "tempo": 120.0
            },
            {
                "start_time": 74.85681818181818,
                "end_time": 75.05681818181817,
                "pitch": 36,
                "velocity": 80,
                "duration": 0.19999999999998863,
                "tempo": 120.0
            },
            {
                "start_time": 75.05681818181817,
                "end_time": 75.25681818181818,
                "pitch": 38,
                "velocity": 80,
                "duration": 0.20000000000000284,
                "tempo": 120.0
            },
            {
                "start_time": 75.2590909090909,
                "end_time": 75.4590909090909,
                "pitch": 36,
                "velocity": 80,
                "duration": 0.20000000000000284,
                "tempo": 120.0
            },
            {
                "start_time": 75.4590909090909,
                "end_time": 75.66136363636363,
                "pitch": 34,
                "velocity": 80,
                "duration": 0.20227272727272805,
                "tempo": 120.0
            },
            {
                "start_time": 75.66136363636363,
                "end_time": 75.86136363636363,
                "pitch": 33,
                "velocity": 80,
                "duration": 0.20000000000000284,
                "tempo": 120.0
            },
            {
                "start_time": 75.86136363636363,
                "end_time": 76.06136363636364,
                "pitch": 31,
                "velocity": 80,
                "duration": 0.20000000000000284,
                "tempo": 120.0
            },
            {
                "start_time": 76.06136363636364,
                "end_time": 76.86818181818181,
                "pitch": 28,
                "velocity": 80,
                "duration": 0.8068181818181728,
                "tempo": 120.0
            },
            {
                "start_time": 76.86818181818181,
                "end_time": 76.96818181818182,
                "pitch": 29,
                "velocity": 80,
                "duration": 0.10000000000000853,
                "tempo": 120.0
            },
            {
                "start_time": 76.96818181818182,
                "end_time": 77.06818181818181,
                "pitch": 29,
                "velocity": 40,
                "duration": 0.09999999999999432,
                "tempo": 120.0
            },
            {
                "start_time": 77.06818181818181,
                "end_time": 77.16818181818181,
                "pitch": 29,
                "velocity": 80,
                "duration": 0.09999999999999432,
                "tempo": 120.0
            },
            {
                "start_time": 77.16818181818181,
                "end_time": 77.26818181818182,
                "pitch": 29,
                "velocity": 40,
                "duration": 0.10000000000000853,
                "tempo": 120.0
            },
            {
                "start_time": 77.26818181818182,
                "end_time": 77.67045454545455,
                "pitch": 34,
                "velocity": 80,
                "duration": 0.4022727272727309,
                "tempo": 120.0
            },
            {
                "start_time": 77.67272727272727,
                "end_time": 77.87272727272727,
                "pitch": 34,
                "velocity": 25,
                "duration": 0.20000000000000284,
                "tempo": 120.0
            },
            {
                "start_time": 77.87272727272727,
                "end_time": 78.27272727272727,
                "pitch": 33,
                "velocity": 80,
                "duration": 0.3999999999999915,
                "tempo": 120.0
            },
            {
                "start_time": 78.27499999999999,
                "end_time": 78.375,
                "pitch": 29,
                "velocity": 80,
                "duration": 0.10000000000000853,
                "tempo": 120.0
            },
            {
                "start_time": 78.375,
                "end_time": 78.475,
                "pitch": 29,
                "velocity": 25,
                "duration": 0.09999999999999432,
                "tempo": 120.0
            },
            {
                "start_time": 78.475,
                "end_time": 78.67727272727272,
                "pitch": 34,
                "velocity": 80,
                "duration": 0.20227272727272805,
                "tempo": 120.0
            },
            {
                "start_time": 78.67727272727272,
                "end_time": 78.87954545454545,
                "pitch": 34,
                "velocity": 40,
                "duration": 0.20227272727272805,
                "tempo": 120.0
            },
            {
                "start_time": 78.87954545454545,
                "end_time": 79.27954545454546,
                "pitch": 33,
                "velocity": 80,
                "duration": 0.4000000000000057,
                "tempo": 120.0
            },
            {
                "start_time": 79.27954545454546,
                "end_time": 79.48181818181818,
                "pitch": 29,
                "velocity": 80,
                "duration": 0.20227272727272805,
                "tempo": 120.0
            },
            {
                "start_time": 79.48181818181818,
                "end_time": 79.68181818181817,
                "pitch": 29,
                "velocity": 40,
                "duration": 0.19999999999998863,
                "tempo": 120.0
            },
            {
                "start_time": 79.68409090909091,
                "end_time": 80.09318181818182,
                "pitch": 34,
                "velocity": 80,
                "duration": 0.4090909090909065,
                "tempo": 120.0
            },
            {
                "start_time": 80.09318181818182,
                "end_time": 80.29545454545455,
                "pitch": 34,
                "velocity": 25,
                "duration": 0.20227272727272805,
                "tempo": 120.0
            },
            {
                "start_time": 80.29545454545455,
                "end_time": 80.69772727272726,
                "pitch": 33,
                "velocity": 80,
                "duration": 0.4022727272727167,
                "tempo": 120.0
            },
            {
                "start_time": 80.69772727272726,
                "end_time": 80.79772727272727,
                "pitch": 29,
                "velocity": 80,
                "duration": 0.10000000000000853,
                "tempo": 120.0
            },
            {
                "start_time": 80.79772727272727,
                "end_time": 80.89772727272727,
                "pitch": 29,
                "velocity": 25,
                "duration": 0.09999999999999432,
                "tempo": 120.0
            },
            {
                "start_time": 80.89772727272727,
                "end_time": 81.1,
                "pitch": 34,
                "velocity": 80,
                "duration": 0.20227272727272805,
                "tempo": 120.0
            },
            {
                "start_time": 81.1,
                "end_time": 81.3,
                "pitch": 34,
                "velocity": 40,
                "duration": 0.20000000000000284,
                "tempo": 120.0
            },
            {
                "start_time": 81.3,
                "end_time": 81.70227272727273,
                "pitch": 33,
                "velocity": 80,
                "duration": 0.4022727272727309,
                "tempo": 120.0
            },
            {
                "start_time": 81.70227272727273,
                "end_time": 81.90227272727272,
                "pitch": 29,
                "velocity": 80,
                "duration": 0.19999999999998863,
                "tempo": 120.0
            },
            {
                "start_time": 81.90227272727272,
                "end_time": 82.10454545454544,
                "pitch": 29,
                "velocity": 40,
                "duration": 0.20227272727272805,
                "tempo": 120.0
            },
            {
                "start_time": 82.10454545454544,
                "end_time": 82.50681818181818,
                "pitch": 36,
                "velocity": 80,
                "duration": 0.4022727272727309,
                "tempo": 120.0
            },
            {
                "start_time": 82.5090909090909,
                "end_time": 82.70681818181818,
                "pitch": 36,
                "velocity": 25,
                "duration": 0.19772727272727764,
                "tempo": 120.0
            },
            {
                "start_time": 82.7090909090909,
                "end_time": 82.9090909090909,
                "pitch": 35,
                "velocity": 80,
                "duration": 0.20000000000000284,
                "tempo": 120.0
            },
            {
                "start_time": 74.25227272727273,
                "end_time": 82.9090909090909,
                "pitch": 40,
                "velocity": 80,
                "duration": 8.656818181818181,
                "tempo": 120.0
            },
            {
                "start_time": 82.9090909090909,
                "end_time": 83.10909090909091,
                "pitch": 36,
                "velocity": 80,
                "duration": 0.20000000000000284,
                "tempo": 120.0
            },
            {
                "start_time": 83.11136363636363,
                "end_time": 83.21136363636363,
                "pitch": 29,
                "velocity": 80,
                "duration": 0.09999999999999432,
                "tempo": 120.0
            },
            {
                "start_time": 83.21136363636363,
                "end_time": 83.31136363636364,
                "pitch": 29,
                "velocity": 25,
                "duration": 0.10000000000000853,
                "tempo": 120.0
            },
            {
                "start_time": 83.31136363636364,
                "end_time": 83.51136363636363,
                "pitch": 36,
                "velocity": 80,
                "duration": 0.19999999999998863,
                "tempo": 120.0
            },
            {
                "start_time": 83.51136363636363,
                "end_time": 83.71136363636363,
                "pitch": 36,
                "velocity": 40,
                "duration": 0.20000000000000284,
                "tempo": 120.0
            },
            {
                "start_time": 83.71136363636363,
                "end_time": 83.91363636363636,
                "pitch": 35,
                "velocity": 80,
                "duration": 0.20227272727272805,
                "tempo": 120.0
            },
            {
                "start_time": 82.9090909090909,
                "end_time": 83.91363636363636,
                "pitch": 40,
                "velocity": 80,
                "duration": 1.0045454545454504,
                "tempo": 120.0
            },
            {
                "start_time": 83.91363636363636,
                "end_time": 84.11590909090908,
                "pitch": 36,
                "velocity": 80,
                "duration": 0.20227272727272805,
                "tempo": 120.0
            },
            {
                "start_time": 84.11590909090908,
                "end_time": 84.2159090909091,
                "pitch": 29,
                "velocity": 80,
                "duration": 0.10000000000000853,
                "tempo": 120.0
            },
            {
                "start_time": 84.2159090909091,
                "end_time": 84.31590909090909,
                "pitch": 29,
                "velocity": 25,
                "duration": 0.09999999999999432,
                "tempo": 120.0
            },
            {
                "start_time": 84.31818181818181,
                "end_time": 84.41818181818181,
                "pitch": 29,
                "velocity": 80,
                "duration": 0.09999999999999432,
                "tempo": 120.0
            },
            {
                "start_time": 84.41818181818181,
                "end_time": 84.51818181818182,
                "pitch": 29,
                "velocity": 25,
                "duration": 0.10000000000000853,
                "tempo": 120.0
            },
            {
                "start_time": 84.51818181818182,
                "end_time": 84.91818181818181,
                "pitch": 29,
                "velocity": 80,
                "duration": 0.3999999999999915,
                "tempo": 120.0
            },
            {
                "start_time": 84.91818181818181,
                "end_time": 85.32954545454545,
                "pitch": 29,
                "velocity": 32,
                "duration": 0.4113636363636459,
                "tempo": 120.0
            },
            {
                "start_time": 85.32954545454545,
                "end_time": 85.72272727272727,
                "pitch": 33,
                "velocity": 80,
                "duration": 0.39318181818181586,
                "tempo": 120.0
            },
            {
                "start_time": 85.72272727272727,
                "end_time": 86.125,
                "pitch": 34,
                "velocity": 80,
                "duration": 0.4022727272727309,
                "tempo": 120.0
            },
            {
                "start_time": 86.9090909090909,
                "end_time": 87.71818181818182,
                "pitch": 46,
                "velocity": 80,
                "duration": 0.8090909090909122,
                "tempo": 120.0
            },
            {
                "start_time": 87.72045454545454,
                "end_time": 87.92272727272727,
                "pitch": 41,
                "velocity": 80,
                "duration": 0.20227272727272805,
                "tempo": 120.0
            },
            {
                "start_time": 87.92272727272727,
                "end_time": 88.13181818181818,
                "pitch": 41,
                "velocity": 40,
                "duration": 0.20909090909090366,
                "tempo": 120.0
            },
            {
                "start_time": 88.13181818181818,
                "end_time": 88.32727272727273,
                "pitch": 41,
                "velocity": 80,
                "duration": 0.19545454545455243,
                "tempo": 120.0
            }
        ]
    }
}