{
    "track_id": "09 - Game de check! Koutsuu Anzen (FM) - Pyonkichi_s Adventure",
    "mood": "happy",
    "instruments": {
        "Vibraphone": [
            {
                "start_time": 0.0,
                "end_time": 0.1568181818181818,
                "pitch": 70,
                "velocity": 80,
                "duration": 0.1568181818181818,
                "tempo": 120.0
            },
            {
                "start_time": 0.17727272727272728,
                "end_time": 0.7818181818181817,
                "pitch": 75,
                "velocity": 80,
                "duration": 0.6045454545454545,
                "tempo": 120.0
            },
            {
                "start_time": 0.8159090909090909,
                "end_time": 1.0159090909090909,
                "pitch": 75,
                "velocity": 80,
                "duration": 0.19999999999999996,
                "tempo": 120.0
            },
            {
                "start_time": 1.05,
                "end_time": 1.4545454545454546,
                "pitch": 75,
                "velocity": 80,
                "duration": 0.40454545454545454,
                "tempo": 120.0
            },
            {
                "start_time": 1.4863636363636363,
                "end_time": 1.8568181818181817,
                "pitch": 70,
                "velocity": 80,
                "duration": 0.37045454545454537,
                "tempo": 120.0
            },
            {
                "start_time": 1.8909090909090909,
                "end_time": 2.5204545454545455,
                "pitch": 75,
                "velocity": 80,
                "duration": 0.6295454545454546,
                "tempo": 120.0
            },
            {
                "start_time": 2.5522727272727272,
                "end_time": 2.7181818181818183,
                "pitch": 75,
                "velocity": 80,
                "duration": 0.165909090909091,
                "tempo": 120.0
            },
            {
                "start_time": 2.752272727272727,
                "end_time": 3.15,
                "pitch": 75,
                "velocity": 80,
                "duration": 0.39772727272727293,
                "tempo": 120.0
            },
            {
                "start_time": 3.1818181818181817,
                "end_time": 3.5818181818181816,
                "pitch": 70,
                "velocity": 80,
                "duration": 0.3999999999999999,
                "tempo": 120.0
            },
            {
                "start_time": 3.6159090909090907,
                "end_time": 3.9909090909090907,
                "pitch": 75,
                "velocity": 80,
                "duration": 0.375,
                "tempo": 120.0
            },
            {
                "start_time": 4.0249999999999995,
                "end_time": 4.434090909090909,
                "pitch": 79,
                "velocity": 80,
                "duration": 0.40909090909090917,
                "tempo": 120.0
            },
            {
                "start_time": 4.468181818181818,
                "end_time": 4.877272727272727,
                "pitch": 77,
                "velocity": 80,
                "duration": 0.40909090909090917,
                "tempo": 120.0
            },
            {
                "start_time": 4.911363636363636,
                "end_time": 5.320454545454545,
                "pitch": 75,
                "velocity": 80,
                "duration": 0.40909090909090917,
                "tempo": 120.0
            },
            {
                "start_time": 5.3545454545454545,
                "end_time": 6.634090909090909,
                "pitch": 82,
                "velocity": 80,
                "duration": 1.2795454545454543,
                "tempo": 120.0
            },
            {
                "start_time": 6.670454545454545,
                "end_time": 7.084090909090909,
                "pitch": 82,
                "velocity": 80,
                "duration": 0.413636363636364,
                "tempo": 120.0
            },
            {
                "start_time": 7.118181818181818,
                "end_time": 7.725,
                "pitch": 84,
                "velocity": 80,
                "duration": 0.6068181818181815,
                "tempo": 120.0
            },
            {
                "start_time": 7.759090909090909,
                "end_time": 7.959090909090909,
                "pitch": 82,
                "velocity": 80,
                "duration": 0.20000000000000018,
                "tempo": 120.0
            },
            {
                "start_time": 7.993181818181818,
                "end_time": 8.363636363636363,
                "pitch": 80,
                "velocity": 80,
                "duration": 0.37045454545454515,
                "tempo": 120.0
            },
            {
                "start_time": 8.397727272727272,
                "end_time": 8.799999999999999,
                "pitch": 84,
                "velocity": 80,
                "duration": 0.40227272727272734,
                "tempo": 120.0
            },
            {
                "start_time": 8.831818181818182,
                "end_time": 9.420454545454545,
                "pitch": 82,
                "velocity": 80,
                "duration": 0.588636363636363,
                "tempo": 120.0
            },
            {
                "start_time": 9.454545454545453,
                "end_time": 9.65,
                "pitch": 80,
                "velocity": 80,
                "duration": 0.1954545454545471,
                "tempo": 120.0
            },
            {
                "start_time": 9.681818181818182,
                "end_time": 10.075,
                "pitch": 79,
                "velocity": 80,
                "duration": 0.39318181818181763,
                "tempo": 120.0
            },
            {
                "start_time": 10.10681818181818,
                "end_time": 10.46590909090909,
                "pitch": 79,
                "velocity": 80,
                "duration": 0.35909090909090935,
                "tempo": 120.0
            },
            {
                "start_time": 10.5,
                "end_time": 11.138636363636364,
                "pitch": 80,
                "velocity": 80,
                "duration": 0.6386363636363637,
                "tempo": 120.0
            },
            {
                "start_time": 11.172727272727272,
                "end_time": 11.34090909090909,
                "pitch": 74,
                "velocity": 80,
                "duration": 0.168181818181818,
                "tempo": 120.0
            },
            {
                "start_time": 11.375,
                "end_time": 11.777272727272727,
                "pitch": 74,
                "velocity": 80,
                "duration": 0.40227272727272734,
                "tempo": 120.0
            },
            {
                "start_time": 11.811363636363636,
                "end_time": 12.21590909090909,
                "pitch": 74,
                "velocity": 80,
                "duration": 0.4045454545454543,
                "tempo": 120.0
            },
            {
                "start_time": 12.25,
                "end_time": 13.529545454545454,
                "pitch": 82,
                "velocity": 80,
                "duration": 1.2795454545454543,
                "tempo": 120.0
            },
            {
                "start_time": 13.563636363636363,
                "end_time": 13.979545454545454,
                "pitch": 82,
                "velocity": 80,
                "duration": 0.415909090909091,
                "tempo": 120.0
            },
            {
                "start_time": 14.013636363636364,
                "end_time": 14.627272727272727,
                "pitch": 84,
                "velocity": 80,
                "duration": 0.6136363636363633,
                "tempo": 120.0
            },
            {
                "start_time": 14.661363636363635,
                "end_time": 14.83181818181818,
                "pitch": 82,
                "velocity": 80,
                "duration": 0.17045454545454497,
                "tempo": 120.0
            },
            {
                "start_time": 14.86590909090909,
                "end_time": 15.274999999999999,
                "pitch": 80,
                "velocity": 80,
                "duration": 0.4090909090909083,
                "tempo": 120.0
            },
            {
                "start_time": 15.311363636363636,
                "end_time": 15.720454545454544,
                "pitch": 84,
                "velocity": 80,
                "duration": 0.4090909090909083,
                "tempo": 120.0
            },
            {
                "start_time": 15.752272727272727,
                "end_time": 16.349999999999998,
                "pitch": 82,
                "velocity": 80,
                "duration": 0.5977272727272709,
                "tempo": 120.0
            },
            {
                "start_time": 16.384090909090908,
                "end_time": 16.581818181818182,
                "pitch": 80,
                "velocity": 80,
                "duration": 0.19772727272727408,
                "tempo": 120.0
            },
            {
                "start_time": 16.61590909090909,
                "end_time": 16.979545454545455,
                "pitch": 79,
                "velocity": 80,
                "duration": 0.36363636363636687,
                "tempo": 120.0
            },
            {
                "start_time": 17.013636363636362,
                "end_time": 17.411363636363635,
                "pitch": 79,
                "velocity": 80,
                "duration": 0.3977272727272734,
                "tempo": 120.0
            },
            {
                "start_time": 17.443181818181817,
                "end_time": 18.05681818181818,
                "pitch": 80,
                "velocity": 80,
                "duration": 0.6136363636363633,
                "tempo": 120.0
            },
            {
                "start_time": 18.09090909090909,
                "end_time": 18.295454545454543,
                "pitch": 74,
                "velocity": 80,
                "duration": 0.20454545454545325,
                "tempo": 120.0
            },
            {
                "start_time": 18.329545454545453,
                "end_time": 18.738636363636363,
                "pitch": 74,
                "velocity": 80,
                "duration": 0.40909090909091006,
                "tempo": 120.0
            },
            {
                "start_time": 18.772727272727273,
                "end_time": 19.147727272727273,
                "pitch": 74,
                "velocity": 80,
                "duration": 0.375,
                "tempo": 120.0
            },
            {
                "start_time": 19.18181818181818,
                "end_time": 20.87272727272727,
                "pitch": 75,
                "velocity": 80,
                "duration": 1.6909090909090914,
                "tempo": 120.0
            },
            {
                "start_time": 20.90681818181818,
                "end_time": 22.636363636363637,
                "pitch": 87,
                "velocity": 80,
                "duration": 1.7295454545454554,
                "tempo": 120.0
            },
            {
                "start_time": 22.670454545454543,
                "end_time": 24.327272727272724,
                "pitch": 86,
                "velocity": 80,
                "duration": 1.6568181818181813,
                "tempo": 120.0
            },
            {
                "start_time": 24.361363636363635,
                "end_time": 24.972727272727273,
                "pitch": 84,
                "velocity": 80,
                "duration": 0.6113636363636381,
                "tempo": 120.0
            },
            {
                "start_time": 25.00681818181818,
                "end_time": 25.21363636363636,
                "pitch": 80,
                "velocity": 80,
                "duration": 0.206818181818182,
                "tempo": 120.0
            },
            {
                "start_time": 25.24772727272727,
                "end_time": 25.62272727272727,
                "pitch": 80,
                "velocity": 80,
                "duration": 0.375,
                "tempo": 120.0
            },
            {
                "start_time": 25.65681818181818,
                "end_time": 26.06590909090909,
                "pitch": 80,
                "velocity": 80,
                "duration": 0.40909090909091006,
                "tempo": 120.0
            },
            {
                "start_time": 26.099999999999998,
                "end_time": 26.94090909090909,
                "pitch": 80,
                "velocity": 80,
                "duration": 0.8409090909090935,
                "tempo": 120.0
            },
            {
                "start_time": 26.972727272727273,
                "end_time": 27.377272727272725,
                "pitch": 86,
                "velocity": 80,
                "duration": 0.40454545454545254,
                "tempo": 120.0
            },
            {
                "start_time": 27.411363636363635,
                "end_time": 27.779545454545453,
                "pitch": 84,
                "velocity": 80,
                "duration": 0.3681818181818173,
                "tempo": 120.0
            },
            {
                "start_time": 27.813636363636363,
                "end_time": 28.43409090909091,
                "pitch": 82,
                "velocity": 80,
                "duration": 0.620454545454546,
                "tempo": 120.0
            },
            {
                "start_time": 28.46590909090909,
                "end_time": 28.629545454545454,
                "pitch": 79,
                "velocity": 80,
                "duration": 0.16363636363636402,
                "tempo": 120.0
            },
            {
                "start_time": 28.66363636363636,
                "end_time": 29.054545454545455,
                "pitch": 79,
                "velocity": 80,
                "duration": 0.3909090909090942,
                "tempo": 120.0
            },
            {
                "start_time": 29.08863636363636,
                "end_time": 29.479545454545452,
                "pitch": 79,
                "velocity": 80,
                "duration": 0.39090909090909065,
                "tempo": 120.0
            },
            {
                "start_time": 29.513636363636362,
                "end_time": 30.334090909090907,
                "pitch": 79,
                "velocity": 80,
                "duration": 0.8204545454545453,
                "tempo": 120.0
            },
            {
                "start_time": 30.368181818181817,
                "end_time": 30.777272727272727,
                "pitch": 70,
                "velocity": 80,
                "duration": 0.40909090909091006,
                "tempo": 120.0
            },
            {
                "start_time": 30.811363636363634,
                "end_time": 31.220454545454544,
                "pitch": 72,
                "velocity": 80,
                "duration": 0.40909090909091006,
                "tempo": 120.0
            },
            {
                "start_time": 31.254545454545454,
                "end_time": 31.877272727272725,
                "pitch": 70,
                "velocity": 80,
                "duration": 0.6227272727272712,
                "tempo": 120.0
            },
            {
                "start_time": 31.911363636363635,
                "end_time": 32.08409090909091,
                "pitch": 80,
                "velocity": 80,
                "duration": 0.1727272727272755,
                "tempo": 120.0
            },
            {
                "start_time": 32.11818181818182,
                "end_time": 32.53409090909091,
                "pitch": 80,
                "velocity": 80,
                "duration": 0.41590909090908923,
                "tempo": 120.0
            },
            {
                "start_time": 32.56818181818182,
                "end_time": 32.98409090909091,
                "pitch": 80,
                "velocity": 80,
                "duration": 0.41590909090908923,
                "tempo": 120.0
            },
            {
                "start_time": 33.018181818181816,
                "end_time": 33.845454545454544,
                "pitch": 80,
                "velocity": 80,
                "duration": 0.827272727272728,
                "tempo": 120.0
            },
            {
                "start_time": 33.87954545454545,
                "end_time": 34.24318181818182,
                "pitch": 70,
                "velocity": 80,
                "duration": 0.36363636363636687,
                "tempo": 120.0
            },
            {
                "start_time": 34.277272727272724,
                "end_time": 34.675,
                "pitch": 72,
                "velocity": 80,
                "duration": 0.3977272727272734,
                "tempo": 120.0
            },
            {
                "start_time": 34.70909090909091,
                "end_time": 35.32272727272727,
                "pitch": 70,
                "velocity": 80,
                "duration": 0.6136363636363598,
                "tempo": 120.0
            },
            {
                "start_time": 35.35681818181818,
                "end_time": 35.56136363636364,
                "pitch": 79,
                "velocity": 80,
                "duration": 0.20454545454546036,
                "tempo": 120.0
            },
            {
                "start_time": 35.595454545454544,
                "end_time": 36.00454545454545,
                "pitch": 79,
                "velocity": 80,
                "duration": 0.4090909090909065,
                "tempo": 120.0
            },
            {
                "start_time": 36.038636363636364,
                "end_time": 36.413636363636364,
                "pitch": 79,
                "velocity": 80,
                "duration": 0.375,
                "tempo": 120.0
            },
            {
                "start_time": 36.44772727272727,
                "end_time": 37.220454545454544,
                "pitch": 79,
                "velocity": 80,
                "duration": 0.7727272727272734,
                "tempo": 120.0
            },
            {
                "start_time": 38.195454545454545,
                "end_time": 39.925,
                "pitch": 87,
                "velocity": 80,
                "duration": 1.7295454545454518,
                "tempo": 120.0
            },
            {
                "start_time": 39.961363636363636,
                "end_time": 41.64090909090909,
                "pitch": 86,
                "velocity": 80,
                "duration": 1.6795454545454547,
                "tempo": 120.0
            },
            {
                "start_time": 41.675,
                "end_time": 42.27954545454545,
                "pitch": 84,
                "velocity": 80,
                "duration": 0.6045454545454518,
                "tempo": 120.0
            },
            {
                "start_time": 42.31363636363636,
                "end_time": 42.51590909090909,
                "pitch": 80,
                "velocity": 80,
                "duration": 0.20227272727272805,
                "tempo": 120.0
            },
            {
                "start_time": 42.55,
                "end_time": 42.918181818181814,
                "pitch": 80,
                "velocity": 80,
                "duration": 0.3681818181818173,
                "tempo": 120.0
            },
            {
                "start_time": 42.95227272727273,
                "end_time": 43.35681818181818,
                "pitch": 80,
                "velocity": 80,
                "duration": 0.404545454545449,
                "tempo": 120.0
            },
            {
                "start_time": 43.38863636363636,
                "end_time": 44.21818181818182,
                "pitch": 80,
                "velocity": 80,
                "duration": 0.8295454545454604,
                "tempo": 120.0
            },
            {
                "start_time": 44.252272727272725,
                "end_time": 44.65,
                "pitch": 86,
                "velocity": 80,
                "duration": 0.3977272727272734,
                "tempo": 120.0
            },
            {
                "start_time": 44.68181818181818,
                "end_time": 45.04772727272727,
                "pitch": 84,
                "velocity": 80,
                "duration": 0.36590909090909207,
                "tempo": 120.0
            },
            {
                "start_time": 45.07954545454545,
                "end_time": 45.72727272727273,
                "pitch": 82,
                "velocity": 80,
                "duration": 0.6477272727272734,
                "tempo": 120.0
            },
            {
                "start_time": 45.76136363636363,
                "end_time": 45.93181818181818,
                "pitch": 79,
                "velocity": 80,
                "duration": 0.17045454545454675,
                "tempo": 120.0
            },
            {
                "start_time": 45.965909090909086,
                "end_time": 46.375,
                "pitch": 79,
                "velocity": 80,
                "duration": 0.4090909090909136,
                "tempo": 120.0
            },
            {
                "start_time": 46.40909090909091,
                "end_time": 46.81818181818181,
                "pitch": 79,
                "velocity": 80,
                "duration": 0.4090909090909065,
                "tempo": 120.0
            },
            {
                "start_time": 46.85227272727273,
                "end_time": 47.65909090909091,
                "pitch": 79,
                "velocity": 80,
                "duration": 0.8068181818181799,
                "tempo": 120.0
            },
            {
                "start_time": 47.69318181818181,
                "end_time": 48.09772727272727,
                "pitch": 70,
                "velocity": 80,
                "duration": 0.4045454545454561,
                "tempo": 120.0
            },
            {
                "start_time": 48.12954545454545,
                "end_time": 48.53409090909091,
                "pitch": 72,
                "velocity": 80,
                "duration": 0.4045454545454561,
                "tempo": 120.0
            },
            {
                "start_time": 48.56818181818181,
                "end_time": 49.375,
                "pitch": 70,
                "velocity": 80,
                "duration": 0.806818181818187,
                "tempo": 120.0
            },
            {
                "start_time": 49.40681818181818,
                "end_time": 50.24772727272727,
                "pitch": 80,
                "velocity": 80,
                "duration": 0.8409090909090864,
                "tempo": 120.0
            },
            {
                "start_time": 50.28181818181818,
                "end_time": 51.12272727272727,
                "pitch": 79,
                "velocity": 80,
                "duration": 0.8409090909090864,
                "tempo": 120.0
            },
            {
                "start_time": 51.15681818181818,
                "end_time": 51.96363636363636,
                "pitch": 77,
                "velocity": 80,
                "duration": 0.8068181818181799,
                "tempo": 120.0
            },
            {
                "start_time": 51.99545454545454,
                "end_time": 52.836363636363636,
                "pitch": 75,
                "velocity": 80,
                "duration": 0.8409090909090935,
                "tempo": 120.0
            },
            {
                "start_time": 52.87045454545454,
                "end_time": 53.27272727272727,
                "pitch": 82,
                "velocity": 80,
                "duration": 0.4022727272727309,
                "tempo": 120.0
            },
            {
                "start_time": 53.30681818181818,
                "end_time": 53.67727272727272,
                "pitch": 79,
                "velocity": 80,
                "duration": 0.3704545454545425,
                "tempo": 120.0
            },
            {
                "start_time": 53.711363636363636,
                "end_time": 54.04772727272727,
                "pitch": 75,
                "velocity": 80,
                "duration": 0.336363636363636,
                "tempo": 120.0
            }
        ],
        "Acoustic Bass": [
            {
                "start_time": 0.17727272727272728,
                "end_time": 0.5795454545454545,
                "pitch": 51,
                "velocity": 51,
                "duration": 0.4022727272727272,
                "tempo": 120.0
            },
            {
                "start_time": 0.6136363636363636,
                "end_time": 0.7818181818181817,
                "pitch": 55,
                "velocity": 51,
                "duration": 0.1681818181818181,
                "tempo": 120.0
            },
            {
                "start_time": 0.8159090909090909,
                "end_time": 1.218181818181818,
                "pitch": 58,
                "velocity": 51,
                "duration": 0.4022727272727271,
                "tempo": 120.0
            },
            {
                "start_time": 1.2522727272727272,
                "end_time": 1.4545454545454546,
                "pitch": 60,
                "velocity": 51,
                "duration": 0.20227272727272738,
                "tempo": 120.0
            },
            {
                "start_time": 1.4863636363636363,
                "end_time": 1.8568181818181817,
                "pitch": 58,
                "velocity": 51,
                "duration": 0.37045454545454537,
                "tempo": 120.0
            },
            {
                "start_time": 1.8909090909090909,
                "end_time": 2.5204545454545455,
                "pitch": 51,
                "velocity": 51,
                "duration": 0.6295454545454546,
                "tempo": 120.0
            },
            {
                "start_time": 2.5522727272727272,
                "end_time": 3.15,
                "pitch": 55,
                "velocity": 51,
                "duration": 0.5977272727272727,
                "tempo": 120.0
            },
            {
                "start_time": 3.1818181818181817,
                "end_time": 3.5818181818181816,
                "pitch": 58,
                "velocity": 51,
                "duration": 0.3999999999999999,
                "tempo": 120.0
            },
            {
                "start_time": 3.6159090909090907,
                "end_time": 3.9909090909090907,
                "pitch": 51,
                "velocity": 51,
                "duration": 0.375,
                "tempo": 120.0
            },
            {
                "start_time": 4.0249999999999995,
                "end_time": 4.2295454545454545,
                "pitch": 55,
                "velocity": 51,
                "duration": 0.20454545454545503,
                "tempo": 120.0
            },
            {
                "start_time": 4.263636363636364,
                "end_time": 4.672727272727273,
                "pitch": 58,
                "velocity": 51,
                "duration": 0.40909090909090917,
                "tempo": 120.0
            },
            {
                "start_time": 4.706818181818182,
                "end_time": 4.877272727272727,
                "pitch": 60,
                "velocity": 51,
                "duration": 0.17045454545454497,
                "tempo": 120.0
            },
            {
                "start_time": 4.911363636363636,
                "end_time": 5.320454545454545,
                "pitch": 58,
                "velocity": 51,
                "duration": 0.40909090909090917,
                "tempo": 120.0
            },
            {
                "start_time": 5.3545454545454545,
                "end_time": 5.977272727272727,
                "pitch": 51,
                "velocity": 51,
                "duration": 0.6227272727272721,
                "tempo": 120.0
            },
            {
                "start_time": 6.011363636363636,
                "end_time": 6.634090909090909,
                "pitch": 55,
                "velocity": 51,
                "duration": 0.622727272727273,
                "tempo": 120.0
            },
            {
                "start_time": 6.670454545454545,
                "end_time": 7.084090909090909,
                "pitch": 58,
                "velocity": 51,
                "duration": 0.413636363636364,
                "tempo": 120.0
            },
            {
                "start_time": 7.118181818181818,
                "end_time": 7.5227272727272725,
                "pitch": 44,
                "velocity": 51,
                "duration": 0.4045454545454543,
                "tempo": 120.0
            },
            {
                "start_time": 7.556818181818182,
                "end_time": 7.725,
                "pitch": 51,
                "velocity": 51,
                "duration": 0.168181818181818,
                "tempo": 120.0
            },
            {
                "start_time": 7.759090909090909,
                "end_time": 8.161363636363635,
                "pitch": 56,
                "velocity": 51,
                "duration": 0.40227272727272645,
                "tempo": 120.0
            },
            {
                "start_time": 8.195454545454545,
                "end_time": 8.363636363636363,
                "pitch": 58,
                "velocity": 51,
                "duration": 0.168181818181818,
                "tempo": 120.0
            },
            {
                "start_time": 8.397727272727272,
                "end_time": 8.799999999999999,
                "pitch": 56,
                "velocity": 51,
                "duration": 0.40227272727272734,
                "tempo": 120.0
            },
            {
                "start_time": 8.831818181818182,
                "end_time": 9.225,
                "pitch": 46,
                "velocity": 51,
                "duration": 0.39318181818181763,
                "tempo": 120.0
            },
            {
                "start_time": 9.256818181818181,
                "end_time": 9.420454545454545,
                "pitch": 51,
                "velocity": 51,
                "duration": 0.16363636363636402,
                "tempo": 120.0
            },
            {
                "start_time": 9.454545454545453,
                "end_time": 9.845454545454546,
                "pitch": 55,
                "velocity": 51,
                "duration": 0.3909090909090924,
                "tempo": 120.0
            },
            {
                "start_time": 9.879545454545454,
                "end_time": 10.075,
                "pitch": 56,
                "velocity": 51,
                "duration": 0.19545454545454533,
                "tempo": 120.0
            },
            {
                "start_time": 10.10681818181818,
                "end_time": 10.46590909090909,
                "pitch": 55,
                "velocity": 51,
                "duration": 0.35909090909090935,
                "tempo": 120.0
            },
            {
                "start_time": 10.5,
                "end_time": 10.904545454545454,
                "pitch": 46,
                "velocity": 51,
                "duration": 0.4045454545454543,
                "tempo": 120.0
            },
            {
                "start_time": 10.938636363636363,
                "end_time": 11.138636363636364,
                "pitch": 50,
                "velocity": 51,
                "duration": 0.20000000000000107,
                "tempo": 120.0
            },
            {
                "start_time": 11.172727272727272,
                "end_time": 11.543181818181818,
                "pitch": 53,
                "velocity": 51,
                "duration": 0.37045454545454604,
                "tempo": 120.0
            },
            {
                "start_time": 11.577272727272726,
                "end_time": 11.777272727272727,
                "pitch": 56,
                "velocity": 51,
                "duration": 0.20000000000000107,
                "tempo": 120.0
            },
            {
                "start_time": 11.811363636363636,
                "end_time": 12.21590909090909,
                "pitch": 53,
                "velocity": 51,
                "duration": 0.4045454545454543,
                "tempo": 120.0
            },
            {
                "start_time": 12.25,
                "end_time": 12.629545454545454,
                "pitch": 51,
                "velocity": 51,
                "duration": 0.37954545454545396,
                "tempo": 120.0
            },
            {
                "start_time": 12.663636363636362,
                "end_time": 12.872727272727271,
                "pitch": 55,
                "velocity": 51,
                "duration": 0.209090909090909,
                "tempo": 120.0
            },
            {
                "start_time": 12.906818181818181,
                "end_time": 13.322727272727272,
                "pitch": 58,
                "velocity": 51,
                "duration": 0.415909090909091,
                "tempo": 120.0
            },
            {
                "start_time": 13.35681818181818,
                "end_time": 13.529545454545454,
                "pitch": 60,
                "velocity": 51,
                "duration": 0.17272727272727373,
                "tempo": 120.0
            },
            {
                "start_time": 13.563636363636363,
                "end_time": 13.979545454545454,
                "pitch": 58,
                "velocity": 51,
                "duration": 0.415909090909091,
                "tempo": 120.0
            },
            {
                "start_time": 14.013636363636364,
                "end_time": 14.422727272727272,
                "pitch": 44,
                "velocity": 51,
                "duration": 0.4090909090909083,
                "tempo": 120.0
            },
            {
                "start_time": 14.45681818181818,
                "end_time": 14.627272727272727,
                "pitch": 51,
                "velocity": 51,
                "duration": 0.17045454545454675,
                "tempo": 120.0
            },
            {
                "start_time": 14.661363636363635,
                "end_time": 15.070454545454545,
                "pitch": 56,
                "velocity": 51,
                "duration": 0.40909090909091006,
                "tempo": 120.0
            },
            {
                "start_time": 15.104545454545454,
                "end_time": 15.274999999999999,
                "pitch": 58,
                "velocity": 51,
                "duration": 0.17045454545454497,
                "tempo": 120.0
            },
            {
                "start_time": 15.311363636363636,
                "end_time": 15.720454545454544,
                "pitch": 56,
                "velocity": 51,
                "duration": 0.4090909090909083,
                "tempo": 120.0
            },
            {
                "start_time": 15.752272727272727,
                "end_time": 16.15,
                "pitch": 46,
                "velocity": 51,
                "duration": 0.3977272727272716,
                "tempo": 120.0
            },
            {
                "start_time": 16.18409090909091,
                "end_time": 16.349999999999998,
                "pitch": 51,
                "velocity": 51,
                "duration": 0.16590909090908923,
                "tempo": 120.0
            },
            {
                "start_time": 16.384090909090908,
                "end_time": 16.78181818181818,
                "pitch": 55,
                "velocity": 51,
                "duration": 0.3977272727272734,
                "tempo": 120.0
            },
            {
                "start_time": 16.813636363636363,
                "end_time": 16.979545454545455,
                "pitch": 56,
                "velocity": 51,
                "duration": 0.16590909090909278,
                "tempo": 120.0
            },
            {
                "start_time": 17.013636363636362,
                "end_time": 17.411363636363635,
                "pitch": 55,
                "velocity": 51,
                "duration": 0.3977272727272734,
                "tempo": 120.0
            },
            {
                "start_time": 17.443181818181817,
                "end_time": 17.852272727272727,
                "pitch": 46,
                "velocity": 51,
                "duration": 0.40909090909091006,
                "tempo": 120.0
            },
            {
                "start_time": 17.886363636363637,
                "end_time": 18.05681818181818,
                "pitch": 50,
                "velocity": 51,
                "duration": 0.1704545454545432,
                "tempo": 120.0
            },
            {
                "start_time": 18.09090909090909,
                "end_time": 18.5,
                "pitch": 53,
                "velocity": 51,
                "duration": 0.40909090909091006,
                "tempo": 120.0
            },
            {
                "start_time": 18.534090909090907,
                "end_time": 18.738636363636363,
                "pitch": 56,
                "velocity": 51,
                "duration": 0.2045454545454568,
                "tempo": 120.0
            },
            {
                "start_time": 18.772727272727273,
                "end_time": 19.147727272727273,
                "pitch": 53,
                "velocity": 51,
                "duration": 0.375,
                "tempo": 120.0
            },
            {
                "start_time": 19.18181818181818,
                "end_time": 19.579545454545453,
                "pitch": 51,
                "velocity": 51,
                "duration": 0.3977272727272734,
                "tempo": 120.0
            },
            {
                "start_time": 19.613636363636363,
                "end_time": 19.811363636363634,
                "pitch": 55,
                "velocity": 51,
                "duration": 0.19772727272727053,
                "tempo": 120.0
            },
            {
                "start_time": 19.845454545454544,
                "end_time": 20.209090909090907,
                "pitch": 58,
                "velocity": 51,
                "duration": 0.3636363636363633,
                "tempo": 120.0
            },
            {
                "start_time": 20.243181818181817,
                "end_time": 20.44090909090909,
                "pitch": 55,
                "velocity": 51,
                "duration": 0.19772727272727408,
                "tempo": 120.0
            },
            {
                "start_time": 20.474999999999998,
                "end_time": 20.87272727272727,
                "pitch": 58,
                "velocity": 51,
                "duration": 0.3977272727272734,
                "tempo": 120.0
            },
            {
                "start_time": 20.90681818181818,
                "end_time": 21.736363636363635,
                "pitch": 51,
                "velocity": 51,
                "duration": 0.8295454545454533,
                "tempo": 120.0
            },
            {
                "start_time": 21.770454545454545,
                "end_time": 22.636363636363637,
                "pitch": 63,
                "velocity": 51,
                "duration": 0.8659090909090921,
                "tempo": 120.0
            },
            {
                "start_time": 22.670454545454543,
                "end_time": 23.46590909090909,
                "pitch": 51,
                "velocity": 51,
                "duration": 0.7954545454545467,
                "tempo": 120.0
            },
            {
                "start_time": 23.49772727272727,
                "end_time": 24.327272727272724,
                "pitch": 62,
                "velocity": 51,
                "duration": 0.8295454545454533,
                "tempo": 120.0
            },
            {
                "start_time": 24.361363636363635,
                "end_time": 24.768181818181816,
                "pitch": 44,
                "velocity": 51,
                "duration": 0.4068181818181813,
                "tempo": 120.0
            },
            {
                "start_time": 24.802272727272726,
                "end_time": 24.972727272727273,
                "pitch": 51,
                "velocity": 51,
                "duration": 0.17045454545454675,
                "tempo": 120.0
            },
            {
                "start_time": 25.00681818181818,
                "end_time": 25.418181818181818,
                "pitch": 56,
                "velocity": 51,
                "duration": 0.4113636363636388,
                "tempo": 120.0
            },
            {
                "start_time": 25.452272727272724,
                "end_time": 25.62272727272727,
                "pitch": 58,
                "velocity": 51,
                "duration": 0.17045454545454675,
                "tempo": 120.0
            },
            {
                "start_time": 25.65681818181818,
                "end_time": 26.06590909090909,
                "pitch": 56,
                "velocity": 51,
                "duration": 0.40909090909091006,
                "tempo": 120.0
            },
            {
                "start_time": 26.099999999999998,
                "end_time": 26.134090909090908,
                "pitch": 44,
                "velocity": 51,
                "duration": 0.03409090909091006,
                "tempo": 120.0
            },
            {
                "start_time": 26.16590909090909,
                "end_time": 26.502272727272725,
                "pitch": 46,
                "velocity": 51,
                "duration": 0.336363636363636,
                "tempo": 120.0
            },
            {
                "start_time": 26.536363636363635,
                "end_time": 26.704545454545453,
                "pitch": 51,
                "velocity": 51,
                "duration": 0.168181818181818,
                "tempo": 120.0
            },
            {
                "start_time": 26.738636363636363,
                "end_time": 27.14090909090909,
                "pitch": 56,
                "velocity": 51,
                "duration": 0.40227272727272734,
                "tempo": 120.0
            },
            {
                "start_time": 27.174999999999997,
                "end_time": 27.377272727272725,
                "pitch": 58,
                "velocity": 51,
                "duration": 0.20227272727272805,
                "tempo": 120.0
            },
            {
                "start_time": 27.411363636363635,
                "end_time": 27.779545454545453,
                "pitch": 56,
                "velocity": 51,
                "duration": 0.3681818181818173,
                "tempo": 120.0
            },
            {
                "start_time": 27.813636363636363,
                "end_time": 28.204545454545453,
                "pitch": 46,
                "velocity": 51,
                "duration": 0.39090909090909065,
                "tempo": 120.0
            },
            {
                "start_time": 28.238636363636363,
                "end_time": 28.43409090909091,
                "pitch": 51,
                "velocity": 51,
                "duration": 0.19545454545454533,
                "tempo": 120.0
            },
            {
                "start_time": 28.46590909090909,
                "end_time": 28.827272727272724,
                "pitch": 55,
                "velocity": 51,
                "duration": 0.36136363636363455,
                "tempo": 120.0
            },
            {
                "start_time": 28.85909090909091,
                "end_time": 29.054545454545455,
                "pitch": 56,
                "velocity": 51,
                "duration": 0.19545454545454533,
                "tempo": 120.0
            },
            {
                "start_time": 29.08863636363636,
                "end_time": 29.479545454545452,
                "pitch": 55,
                "velocity": 51,
                "duration": 0.39090909090909065,
                "tempo": 120.0
            },
            {
                "start_time": 29.513636363636362,
                "end_time": 29.888636363636362,
                "pitch": 46,
                "velocity": 51,
                "duration": 0.375,
                "tempo": 120.0
            },
            {
                "start_time": 29.922727272727272,
                "end_time": 30.129545454545454,
                "pitch": 51,
                "velocity": 51,
                "duration": 0.206818181818182,
                "tempo": 120.0
            },
            {
                "start_time": 30.16363636363636,
                "end_time": 30.57272727272727,
                "pitch": 55,
                "velocity": 51,
                "duration": 0.40909090909091006,
                "tempo": 120.0
            },
            {
                "start_time": 30.60681818181818,
                "end_time": 30.777272727272727,
                "pitch": 56,
                "velocity": 51,
                "duration": 0.17045454545454675,
                "tempo": 120.0
            },
            {
                "start_time": 30.811363636363634,
                "end_time": 31.220454545454544,
                "pitch": 55,
                "velocity": 51,
                "duration": 0.40909090909091006,
                "tempo": 120.0
            },
            {
                "start_time": 31.254545454545454,
                "end_time": 31.668181818181818,
                "pitch": 46,
                "velocity": 51,
                "duration": 0.413636363636364,
                "tempo": 120.0
            },
            {
                "start_time": 31.704545454545453,
                "end_time": 31.877272727272725,
                "pitch": 50,
                "velocity": 51,
                "duration": 0.17272727272727195,
                "tempo": 120.0
            },
            {
                "start_time": 31.911363636363635,
                "end_time": 32.32727272727273,
                "pitch": 53,
                "velocity": 51,
                "duration": 0.4159090909090928,
                "tempo": 120.0
            },
            {
                "start_time": 32.361363636363635,
                "end_time": 32.53409090909091,
                "pitch": 56,
                "velocity": 51,
                "duration": 0.17272727272727195,
                "tempo": 120.0
            },
            {
                "start_time": 32.56818181818182,
                "end_time": 32.98409090909091,
                "pitch": 53,
                "velocity": 51,
                "duration": 0.41590909090908923,
                "tempo": 120.0
            },
            {
                "start_time": 33.018181818181816,
                "end_time": 33.41590909090909,
                "pitch": 46,
                "velocity": 51,
                "duration": 0.3977272727272734,
                "tempo": 120.0
            },
            {
                "start_time": 33.44772727272727,
                "end_time": 33.61363636363636,
                "pitch": 50,
                "velocity": 51,
                "duration": 0.16590909090908923,
                "tempo": 120.0
            },
            {
                "start_time": 33.64772727272727,
                "end_time": 34.04545454545455,
                "pitch": 53,
                "velocity": 51,
                "duration": 0.3977272727272734,
                "tempo": 120.0
            },
            {
                "start_time": 34.07954545454545,
                "end_time": 34.24318181818182,
                "pitch": 56,
                "velocity": 51,
                "duration": 0.16363636363636402,
                "tempo": 120.0
            },
            {
                "start_time": 34.277272727272724,
                "end_time": 34.675,
                "pitch": 53,
                "velocity": 51,
                "duration": 0.3977272727272734,
                "tempo": 120.0
            },
            {
                "start_time": 34.70909090909091,
                "end_time": 35.11818181818182,
                "pitch": 51,
                "velocity": 51,
                "duration": 0.4090909090909065,
                "tempo": 120.0
            },
            {
                "start_time": 35.152272727272724,
                "end_time": 35.32272727272727,
                "pitch": 55,
                "velocity": 51,
                "duration": 0.17045454545454675,
                "tempo": 120.0
            },
            {
                "start_time": 35.35681818181818,
                "end_time": 35.76590909090909,
                "pitch": 58,
                "velocity": 51,
                "duration": 0.4090909090909136,
                "tempo": 120.0
            },
            {
                "start_time": 35.8,
                "end_time": 36.00454545454545,
                "pitch": 60,
                "velocity": 51,
                "duration": 0.20454545454545325,
                "tempo": 120.0
            },
            {
                "start_time": 36.038636363636364,
                "end_time": 36.413636363636364,
                "pitch": 58,
                "velocity": 51,
                "duration": 0.375,
                "tempo": 120.0
            },
            {
                "start_time": 36.44772727272727,
                "end_time": 36.85,
                "pitch": 51,
                "velocity": 51,
                "duration": 0.4022727272727309,
                "tempo": 120.0
            },
            {
                "start_time": 36.88409090909091,
                "end_time": 37.086363636363636,
                "pitch": 55,
                "velocity": 51,
                "duration": 0.20227272727272805,
                "tempo": 120.0
            },
            {
                "start_time": 37.12045454545454,
                "end_time": 37.49090909090909,
                "pitch": 58,
                "velocity": 51,
                "duration": 0.3704545454545496,
                "tempo": 120.0
            },
            {
                "start_time": 37.52272727272727,
                "end_time": 37.725,
                "pitch": 55,
                "velocity": 51,
                "duration": 0.20227272727272805,
                "tempo": 120.0
            },
            {
                "start_time": 37.75909090909091,
                "end_time": 38.16136363636363,
                "pitch": 58,
                "velocity": 51,
                "duration": 0.4022727272727238,
                "tempo": 120.0
            },
            {
                "start_time": 38.195454545454545,
                "end_time": 39.027272727272724,
                "pitch": 51,
                "velocity": 51,
                "duration": 0.8318181818181785,
                "tempo": 120.0
            },
            {
                "start_time": 39.06136363636364,
                "end_time": 39.925,
                "pitch": 63,
                "velocity": 51,
                "duration": 0.8636363636363598,
                "tempo": 120.0
            },
            {
                "start_time": 39.961363636363636,
                "end_time": 40.768181818181816,
                "pitch": 51,
                "velocity": 51,
                "duration": 0.8068181818181799,
                "tempo": 120.0
            },
            {
                "start_time": 40.80227272727272,
                "end_time": 41.64090909090909,
                "pitch": 62,
                "velocity": 51,
                "duration": 0.8386363636363683,
                "tempo": 120.0
            },
            {
                "start_time": 41.675,
                "end_time": 42.07954545454545,
                "pitch": 44,
                "velocity": 51,
                "duration": 0.4045454545454561,
                "tempo": 120.0
            },
            {
                "start_time": 42.111363636363635,
                "end_time": 42.27954545454545,
                "pitch": 51,
                "velocity": 51,
                "duration": 0.16818181818181444,
                "tempo": 120.0
            },
            {
                "start_time": 42.31363636363636,
                "end_time": 42.71818181818182,
                "pitch": 56,
                "velocity": 51,
                "duration": 0.4045454545454561,
                "tempo": 120.0
            },
            {
                "start_time": 42.75,
                "end_time": 42.918181818181814,
                "pitch": 58,
                "velocity": 51,
                "duration": 0.16818181818181444,
                "tempo": 120.0
            },
            {
                "start_time": 42.95227272727273,
                "end_time": 43.35681818181818,
                "pitch": 56,
                "velocity": 51,
                "duration": 0.404545454545449,
                "tempo": 120.0
            },
            {
                "start_time": 43.38863636363636,
                "end_time": 43.78636363636363,
                "pitch": 44,
                "velocity": 51,
                "duration": 0.3977272727272734,
                "tempo": 120.0
            },
            {
                "start_time": 43.820454545454545,
                "end_time": 43.986363636363635,
                "pitch": 51,
                "velocity": 51,
                "duration": 0.16590909090908923,
                "tempo": 120.0
            },
            {
                "start_time": 44.02045454545454,
                "end_time": 44.418181818181814,
                "pitch": 56,
                "velocity": 51,
                "duration": 0.3977272727272734,
                "tempo": 120.0
            },
            {
                "start_time": 44.449999999999996,
                "end_time": 44.65,
                "pitch": 58,
                "velocity": 51,
                "duration": 0.20000000000000284,
                "tempo": 120.0
            },
            {
                "start_time": 44.68181818181818,
                "end_time": 45.04772727272727,
                "pitch": 56,
                "velocity": 51,
                "duration": 0.36590909090909207,
                "tempo": 120.0
            },
            {
                "start_time": 45.07954545454545,
                "end_time": 45.48863636363636,
                "pitch": 46,
                "velocity": 51,
                "duration": 0.4090909090909065,
                "tempo": 120.0
            },
            {
                "start_time": 45.52272727272727,
                "end_time": 45.72727272727273,
                "pitch": 51,
                "velocity": 51,
                "duration": 0.20454545454545325,
                "tempo": 120.0
            },
            {
                "start_time": 45.76136363636363,
                "end_time": 46.13636363636363,
                "pitch": 55,
                "velocity": 51,
                "duration": 0.375,
                "tempo": 120.0
            },
            {
                "start_time": 46.17045454545455,
                "end_time": 46.375,
                "pitch": 56,
                "velocity": 51,
                "duration": 0.20454545454545325,
                "tempo": 120.0
            },
            {
                "start_time": 46.40909090909091,
                "end_time": 46.81818181818181,
                "pitch": 55,
                "velocity": 51,
                "duration": 0.4090909090909065,
                "tempo": 120.0
            },
            {
                "start_time": 46.85227272727273,
                "end_time": 47.22272727272727,
                "pitch": 46,
                "velocity": 51,
                "duration": 0.3704545454545425,
                "tempo": 120.0
            },
            {
                "start_time": 47.25681818181818,
                "end_time": 47.459090909090904,
                "pitch": 51,
                "velocity": 51,
                "duration": 0.20227272727272094,
                "tempo": 120.0
            },
            {
                "start_time": 47.49090909090909,
                "end_time": 47.89545454545454,
                "pitch": 55,
                "velocity": 51,
                "duration": 0.404545454545449,
                "tempo": 120.0
            },
            {
                "start_time": 47.929545454545455,
                "end_time": 48.09772727272727,
                "pitch": 56,
                "velocity": 51,
                "duration": 0.16818181818181444,
                "tempo": 120.0
            },
            {
                "start_time": 48.12954545454545,
                "end_time": 48.53409090909091,
                "pitch": 55,
                "velocity": 51,
                "duration": 0.4045454545454561,
                "tempo": 120.0
            },
            {
                "start_time": 48.56818181818181,
                "end_time": 48.970454545454544,
                "pitch": 46,
                "velocity": 51,
                "duration": 0.4022727272727309,
                "tempo": 120.0
            },
            {
                "start_time": 49.00454545454545,
                "end_time": 49.17272727272727,
                "pitch": 53,
                "velocity": 51,
                "duration": 0.16818181818182154,
                "tempo": 120.0
            },
            {
                "start_time": 49.20681818181818,
                "end_time": 49.375,
                "pitch": 56,
                "velocity": 51,
                "duration": 0.16818181818182154,
                "tempo": 120.0
            },
            {
                "start_time": 49.40681818181818,
                "end_time": 49.81136363636364,
                "pitch": 46,
                "velocity": 51,
                "duration": 0.4045454545454561,
                "tempo": 120.0
            },
            {
                "start_time": 49.845454545454544,
                "end_time": 50.04545454545454,
                "pitch": 55,
                "velocity": 51,
                "duration": 0.19999999999999574,
                "tempo": 120.0
            },
            {
                "start_time": 50.07954545454545,
                "end_time": 50.24772727272727,
                "pitch": 58,
                "velocity": 51,
                "duration": 0.16818181818181444,
                "tempo": 120.0
            },
            {
                "start_time": 50.28181818181818,
                "end_time": 50.68636363636364,
                "pitch": 46,
                "velocity": 51,
                "duration": 0.4045454545454561,
                "tempo": 120.0
            },
            {
                "start_time": 50.71818181818182,
                "end_time": 50.88636363636363,
                "pitch": 56,
                "velocity": 51,
                "duration": 0.16818181818181444,
                "tempo": 120.0
            },
            {
                "start_time": 50.92045454545454,
                "end_time": 51.12272727272727,
                "pitch": 60,
                "velocity": 51,
                "duration": 0.20227272727272805,
                "tempo": 120.0
            },
            {
                "start_time": 51.15681818181818,
                "end_time": 51.525,
                "pitch": 46,
                "velocity": 51,
                "duration": 0.3681818181818173,
                "tempo": 120.0
            },
            {
                "start_time": 51.559090909090905,
                "end_time": 51.76136363636363,
                "pitch": 58,
                "velocity": 51,
                "duration": 0.20227272727272805,
                "tempo": 120.0
            },
            {
                "start_time": 51.79545454545454,
                "end_time": 51.96363636363636,
                "pitch": 62,
                "velocity": 51,
                "duration": 0.16818181818182154,
                "tempo": 120.0
            },
            {
                "start_time": 51.99545454545454,
                "end_time": 52.4,
                "pitch": 51,
                "velocity": 51,
                "duration": 0.4045454545454561,
                "tempo": 120.0
            },
            {
                "start_time": 52.434090909090905,
                "end_time": 52.60227272727273,
                "pitch": 55,
                "velocity": 51,
                "duration": 0.16818181818182154,
                "tempo": 120.0
            },
            {
                "start_time": 52.63409090909091,
                "end_time": 53.038636363636364,
                "pitch": 58,
                "velocity": 51,
                "duration": 0.4045454545454561,
                "tempo": 120.0
            },
            {
                "start_time": 53.07272727272727,
                "end_time": 53.27272727272727,
                "pitch": 59,
                "velocity": 51,
                "duration": 0.20000000000000284,
                "tempo": 120.0
            },
            {
                "start_time": 53.30681818181818,
                "end_time": 53.474999999999994,
                "pitch": 60,
                "velocity": 51,
                "duration": 0.16818181818181444,
                "tempo": 120.0
            },
            {
                "start_time": 53.50909090909091,
                "end_time": 53.67727272727272,
                "pitch": 62,
                "velocity": 51,
                "duration": 0.16818181818181444,
                "tempo": 120.0
            },
            {
                "start_time": 53.711363636363636,
                "end_time": 54.98863636363636,
                "pitch": 63,
                "velocity": 51,
                "duration": 1.2772727272727238,
                "tempo": 120.0
            }
        ],
        "Clarinet": [
            {
                "start_time": 5.804545454545455,
                "end_time": 5.977272727272727,
                "pitch": 79,
                "velocity": 40,
                "duration": 0.17272727272727195,
                "tempo": 120.0
            },
            {
                "start_time": 6.011363636363636,
                "end_time": 6.184090909090909,
                "pitch": 77,
                "velocity": 40,
                "duration": 0.17272727272727284,
                "tempo": 120.0
            },
            {
                "start_time": 6.220454545454545,
                "end_time": 10.46590909090909,
                "pitch": 75,
                "velocity": 40,
                "duration": 4.245454545454545,
                "tempo": 120.0
            },
            {
                "start_time": 12.663636363636362,
                "end_time": 12.872727272727271,
                "pitch": 79,
                "velocity": 40,
                "duration": 0.209090909090909,
                "tempo": 120.0
            },
            {
                "start_time": 12.906818181818181,
                "end_time": 13.079545454545453,
                "pitch": 80,
                "velocity": 40,
                "duration": 0.17272727272727195,
                "tempo": 120.0
            },
            {
                "start_time": 13.113636363636363,
                "end_time": 17.411363636363635,
                "pitch": 82,
                "velocity": 40,
                "duration": 4.297727272727272,
                "tempo": 120.0
            },
            {
                "start_time": 19.613636363636363,
                "end_time": 19.811363636363634,
                "pitch": 79,
                "velocity": 40,
                "duration": 0.19772727272727053,
                "tempo": 120.0
            },
            {
                "start_time": 19.845454545454544,
                "end_time": 20.011363636363637,
                "pitch": 77,
                "velocity": 40,
                "duration": 0.16590909090909278,
                "tempo": 120.0
            },
            {
                "start_time": 20.043181818181818,
                "end_time": 20.87272727272727,
                "pitch": 75,
                "velocity": 40,
                "duration": 0.8295454545454533,
                "tempo": 120.0
            },
            {
                "start_time": 20.90681818181818,
                "end_time": 22.636363636363637,
                "pitch": 79,
                "velocity": 40,
                "duration": 1.7295454545454554,
                "tempo": 120.0
            },
            {
                "start_time": 22.670454545454543,
                "end_time": 23.46590909090909,
                "pitch": 80,
                "velocity": 40,
                "duration": 0.7954545454545467,
                "tempo": 120.0
            },
            {
                "start_time": 23.49772727272727,
                "end_time": 24.327272727272724,
                "pitch": 82,
                "velocity": 40,
                "duration": 0.8295454545454533,
                "tempo": 120.0
            },
            {
                "start_time": 24.361363636363635,
                "end_time": 26.94090909090909,
                "pitch": 80,
                "velocity": 40,
                "duration": 2.579545454545457,
                "tempo": 120.0
            },
            {
                "start_time": 26.972727272727273,
                "end_time": 27.377272727272725,
                "pitch": 80,
                "velocity": 40,
                "duration": 0.40454545454545254,
                "tempo": 120.0
            },
            {
                "start_time": 27.411363636363635,
                "end_time": 27.779545454545453,
                "pitch": 80,
                "velocity": 40,
                "duration": 0.3681818181818173,
                "tempo": 120.0
            },
            {
                "start_time": 27.813636363636363,
                "end_time": 30.334090909090907,
                "pitch": 79,
                "velocity": 40,
                "duration": 2.5204545454545446,
                "tempo": 120.0
            },
            {
                "start_time": 30.368181818181817,
                "end_time": 30.777272727272727,
                "pitch": 79,
                "velocity": 40,
                "duration": 0.40909090909091006,
                "tempo": 120.0
            },
            {
                "start_time": 30.811363636363634,
                "end_time": 31.220454545454544,
                "pitch": 82,
                "velocity": 40,
                "duration": 0.40909090909091006,
                "tempo": 120.0
            },
            {
                "start_time": 31.254545454545454,
                "end_time": 32.98409090909091,
                "pitch": 80,
                "velocity": 40,
                "duration": 1.7295454545454554,
                "tempo": 120.0
            },
            {
                "start_time": 33.018181818181816,
                "end_time": 33.845454545454544,
                "pitch": 80,
                "velocity": 40,
                "duration": 0.827272727272728,
                "tempo": 120.0
            },
            {
                "start_time": 33.87954545454545,
                "end_time": 34.675,
                "pitch": 80,
                "velocity": 40,
                "duration": 0.7954545454545467,
                "tempo": 120.0
            },
            {
                "start_time": 34.70909090909091,
                "end_time": 35.56136363636364,
                "pitch": 79,
                "velocity": 40,
                "duration": 0.8522727272727266,
                "tempo": 120.0
            },
            {
                "start_time": 35.595454545454544,
                "end_time": 36.413636363636364,
                "pitch": 80,
                "velocity": 40,
                "duration": 0.8181818181818201,
                "tempo": 120.0
            },
            {
                "start_time": 36.44772727272727,
                "end_time": 38.16136363636363,
                "pitch": 82,
                "velocity": 40,
                "duration": 1.7136363636363612,
                "tempo": 120.0
            },
            {
                "start_time": 38.195454545454545,
                "end_time": 39.925,
                "pitch": 79,
                "velocity": 40,
                "duration": 1.7295454545454518,
                "tempo": 120.0
            },
            {
                "start_time": 39.961363636363636,
                "end_time": 40.768181818181816,
                "pitch": 80,
                "velocity": 40,
                "duration": 0.8068181818181799,
                "tempo": 120.0
            },
            {
                "start_time": 40.80227272727272,
                "end_time": 41.64090909090909,
                "pitch": 82,
                "velocity": 40,
                "duration": 0.8386363636363683,
                "tempo": 120.0
            },
            {
                "start_time": 41.675,
                "end_time": 44.21818181818182,
                "pitch": 80,
                "velocity": 40,
                "duration": 2.5431818181818215,
                "tempo": 120.0
            },
            {
                "start_time": 44.252272727272725,
                "end_time": 44.65,
                "pitch": 80,
                "velocity": 40,
                "duration": 0.3977272727272734,
                "tempo": 120.0
            },
            {
                "start_time": 44.68181818181818,
                "end_time": 45.04772727272727,
                "pitch": 80,
                "velocity": 40,
                "duration": 0.36590909090909207,
                "tempo": 120.0
            },
            {
                "start_time": 45.07954545454545,
                "end_time": 47.65909090909091,
                "pitch": 79,
                "velocity": 40,
                "duration": 2.5795454545454533,
                "tempo": 120.0
            },
            {
                "start_time": 47.69318181818181,
                "end_time": 48.09772727272727,
                "pitch": 79,
                "velocity": 40,
                "duration": 0.4045454545454561,
                "tempo": 120.0
            },
            {
                "start_time": 48.12954545454545,
                "end_time": 48.53409090909091,
                "pitch": 82,
                "velocity": 40,
                "duration": 0.4045454545454561,
                "tempo": 120.0
            },
            {
                "start_time": 48.56818181818181,
                "end_time": 50.24772727272727,
                "pitch": 80,
                "velocity": 40,
                "duration": 1.6795454545454547,
                "tempo": 120.0
            },
            {
                "start_time": 50.28181818181818,
                "end_time": 51.12272727272727,
                "pitch": 80,
                "velocity": 40,
                "duration": 0.8409090909090864,
                "tempo": 120.0
            },
            {
                "start_time": 51.15681818181818,
                "end_time": 51.96363636363636,
                "pitch": 80,
                "velocity": 40,
                "duration": 0.8068181818181799,
                "tempo": 120.0
            },
            {
                "start_time": 51.99545454545454,
                "end_time": 54.85454545454545,
                "pitch": 79,
                "velocity": 40,
                "duration": 2.8590909090909093,
                "tempo": 120.0
            }
        ]
    }
}