{
    "track_id": "09 Clear",
    "mood": "happy",
    "instruments": {
        "Trumpet": [
            {
                "start_time": 0.004545454545454545,
                "end_time": 0.2590909090909091,
                "pitch": 66,
                "velocity": 101,
                "duration": 0.2545454545454546,
                "tempo": 120.0
            },
            {
                "start_time": 0.2590909090909091,
                "end_time": 0.3886363636363636,
                "pitch": 64,
                "velocity": 101,
                "duration": 0.12954545454545452,
                "tempo": 120.0
            },
            {
                "start_time": 0.3909090909090909,
                "end_time": 2.9022727272727273,
                "pitch": 66,
                "velocity": 101,
                "duration": 2.5113636363636367,
                "tempo": 120.0
            },
            {
                "start_time": 2.9045454545454543,
                "end_time": 3.2045454545454546,
                "pitch": 71,
                "velocity": 101,
                "duration": 0.30000000000000027,
                "tempo": 120.0
            },
            {
                "start_time": 3.2045454545454546,
                "end_time": 3.4727272727272727,
                "pitch": 71,
                "velocity": 101,
                "duration": 0.2681818181818181,
                "tempo": 120.0
            },
            {
                "start_time": 3.4727272727272727,
                "end_time": 3.7409090909090907,
                "pitch": 71,
                "velocity": 101,
                "duration": 0.2681818181818181,
                "tempo": 120.0
            },
            {
                "start_time": 3.7409090909090907,
                "end_time": 5.168181818181818,
                "pitch": 78,
                "velocity": 101,
                "duration": 1.4272727272727272,
                "tempo": 120.0
            },
            {
                "start_time": 5.168181818181818,
                "end_time": 5.4409090909090905,
                "pitch": 79,
                "velocity": 101,
                "duration": 0.2727272727272725,
                "tempo": 120.0
            },
            {
                "start_time": 5.4409090909090905,
                "end_time": 6.277272727272727,
                "pitch": 81,
                "velocity": 101,
                "duration": 0.8363636363636369,
                "tempo": 120.0
            },
            {
                "start_time": 6.279545454545454,
                "end_time": 6.847727272727273,
                "pitch": 79,
                "velocity": 101,
                "duration": 0.5681818181818183,
                "tempo": 120.0
            },
            {
                "start_time": 6.847727272727273,
                "end_time": 7.11590909090909,
                "pitch": 81,
                "velocity": 101,
                "duration": 0.26818181818181763,
                "tempo": 120.0
            },
            {
                "start_time": 7.11590909090909,
                "end_time": 12.984090909090908,
                "pitch": 83,
                "velocity": 101,
                "duration": 5.868181818181817,
                "tempo": 120.0
            }
        ],
        "French Horn": [
            {
                "start_time": 7.997727272727272,
                "end_time": 8.543181818181818,
                "pitch": 71,
                "velocity": 127,
                "duration": 0.5454545454545459,
                "tempo": 120.0
            },
            {
                "start_time": 8.543181818181818,
                "end_time": 8.815909090909091,
                "pitch": 69,
                "velocity": 127,
                "duration": 0.2727272727272734,
                "tempo": 120.0
            },
            {
                "start_time": 8.815909090909091,
                "end_time": 12.984090909090908,
                "pitch": 71,
                "velocity": 127,
                "duration": 4.168181818181816,
                "tempo": 120.0
            }
        ],
        "Oboe": [
            {
                "start_time": 0.0022727272727272726,
                "end_time": 0.4204545454545454,
                "pitch": 39,
                "velocity": 64,
                "duration": 0.41818181818181815,
                "tempo": 120.0
            },
            {
                "start_time": 0.42272727272727273,
                "end_time": 1.259090909090909,
                "pitch": 42,
                "velocity": 64,
                "duration": 0.8363636363636363,
                "tempo": 120.0
            },
            {
                "start_time": 1.259090909090909,
                "end_time": 2.0977272727272727,
                "pitch": 47,
                "velocity": 64,
                "duration": 0.8386363636363636,
                "tempo": 120.0
            },
            {
                "start_time": 2.0977272727272727,
                "end_time": 2.934090909090909,
                "pitch": 52,
                "velocity": 64,
                "duration": 0.8363636363636364,
                "tempo": 120.0
            },
            {
                "start_time": 2.934090909090909,
                "end_time": 3.7727272727272725,
                "pitch": 51,
                "velocity": 64,
                "duration": 0.8386363636363634,
                "tempo": 120.0
            },
            {
                "start_time": 3.775,
                "end_time": 5.472727272727273,
                "pitch": 43,
                "velocity": 64,
                "duration": 1.6977272727272728,
                "tempo": 120.0
            },
            {
                "start_time": 5.472727272727273,
                "end_time": 7.1477272727272725,
                "pitch": 45,
                "velocity": 64,
                "duration": 1.6749999999999998,
                "tempo": 120.0
            },
            {
                "start_time": 7.1499999999999995,
                "end_time": 12.984090909090908,
                "pitch": 47,
                "velocity": 64,
                "duration": 5.834090909090908,
                "tempo": 120.0
            }
        ]
    }
}