{
    "track_id": "09 Glory",
    "mood": "happy",
    "instruments": {
        "Acoustic Grand Piano": [
            {
                "start_time": 3.1818181818181817,
                "end_time": 3.25,
                "pitch": 71,
                "velocity": 64,
                "duration": 0.06818181818181834,
                "tempo": 120.0
            },
            {
                "start_time": 3.275,
                "end_time": 3.377272727272727,
                "pitch": 71,
                "velocity": 4,
                "duration": 0.10227272727272707,
                "tempo": 120.0
            },
            {
                "start_time": 3.377272727272727,
                "end_time": 3.461363636363636,
                "pitch": 72,
                "velocity": 64,
                "duration": 0.084090909090909,
                "tempo": 120.0
            },
            {
                "start_time": 3.4863636363636363,
                "end_time": 3.5795454545454546,
                "pitch": 72,
                "velocity": 4,
                "duration": 0.09318181818181825,
                "tempo": 120.0
            },
            {
                "start_time": 3.5818181818181816,
                "end_time": 3.6545454545454543,
                "pitch": 74,
                "velocity": 64,
                "duration": 0.07272727272727275,
                "tempo": 120.0
            },
            {
                "start_time": 3.6795454545454542,
                "end_time": 3.75,
                "pitch": 74,
                "velocity": 64,
                "duration": 0.07045454545454577,
                "tempo": 120.0
            },
            {
                "start_time": 3.7727272727272725,
                "end_time": 3.8499999999999996,
                "pitch": 72,
                "velocity": 64,
                "duration": 0.07727272727272716,
                "tempo": 120.0
            },
            {
                "start_time": 3.868181818181818,
                "end_time": 3.9727272727272727,
                "pitch": 72,
                "velocity": 4,
                "duration": 0.1045454545454545,
                "tempo": 120.0
            },
            {
                "start_time": 3.9727272727272727,
                "end_time": 4.047727272727273,
                "pitch": 74,
                "velocity": 64,
                "duration": 0.07500000000000018,
                "tempo": 120.0
            },
            {
                "start_time": 4.068181818181818,
                "end_time": 4.170454545454545,
                "pitch": 74,
                "velocity": 4,
                "duration": 0.10227272727272663,
                "tempo": 120.0
            },
            {
                "start_time": 4.170454545454545,
                "end_time": 4.238636363636363,
                "pitch": 76,
                "velocity": 4,
                "duration": 0.06818181818181834,
                "tempo": 120.0
            },
            {
                "start_time": 4.170454545454545,
                "end_time": 4.238636363636363,
                "pitch": 76,
                "velocity": 64,
                "duration": 0.06818181818181834,
                "tempo": 120.0
            },
            {
                "start_time": 4.261363636363636,
                "end_time": 4.329545454545454,
                "pitch": 74,
                "velocity": 64,
                "duration": 0.06818181818181834,
                "tempo": 120.0
            },
            {
                "start_time": 4.347727272727273,
                "end_time": 4.4409090909090905,
                "pitch": 74,
                "velocity": 4,
                "duration": 0.09318181818181781,
                "tempo": 120.0
            },
            {
                "start_time": 4.4409090909090905,
                "end_time": 4.509090909090909,
                "pitch": 72,
                "velocity": 64,
                "duration": 0.06818181818181834,
                "tempo": 120.0
            },
            {
                "start_time": 4.527272727272727,
                "end_time": 4.625,
                "pitch": 72,
                "velocity": 4,
                "duration": 0.09772727272727266,
                "tempo": 120.0
            },
            {
                "start_time": 4.625,
                "end_time": 4.697727272727272,
                "pitch": 71,
                "velocity": 64,
                "duration": 0.07272727272727231,
                "tempo": 120.0
            },
            {
                "start_time": 4.715909090909091,
                "end_time": 4.8136363636363635,
                "pitch": 71,
                "velocity": 4,
                "duration": 0.09772727272727266,
                "tempo": 120.0
            },
            {
                "start_time": 4.8136363636363635,
                "end_time": 4.886363636363636,
                "pitch": 69,
                "velocity": 4,
                "duration": 0.07272727272727231,
                "tempo": 120.0
            },
            {
                "start_time": 4.8136363636363635,
                "end_time": 4.886363636363636,
                "pitch": 69,
                "velocity": 64,
                "duration": 0.07272727272727231,
                "tempo": 120.0
            },
            {
                "start_time": 4.909090909090909,
                "end_time": 4.9795454545454545,
                "pitch": 71,
                "velocity": 64,
                "duration": 0.07045454545454533,
                "tempo": 120.0
            },
            {
                "start_time": 5.0,
                "end_time": 5.1,
                "pitch": 71,
                "velocity": 4,
                "duration": 0.09999999999999964,
                "tempo": 120.0
            },
            {
                "start_time": 5.1,
                "end_time": 5.168181818181818,
                "pitch": 77,
                "velocity": 4,
                "duration": 0.06818181818181834,
                "tempo": 120.0
            },
            {
                "start_time": 5.102272727272727,
                "end_time": 5.168181818181818,
                "pitch": 77,
                "velocity": 64,
                "duration": 0.06590909090909136,
                "tempo": 120.0
            },
            {
                "start_time": 5.1863636363636365,
                "end_time": 5.288636363636363,
                "pitch": 77,
                "velocity": 4,
                "duration": 0.10227272727272663,
                "tempo": 120.0
            },
            {
                "start_time": 5.288636363636363,
                "end_time": 5.3590909090909085,
                "pitch": 75,
                "velocity": 64,
                "duration": 0.07045454545454533,
                "tempo": 120.0
            },
            {
                "start_time": 5.377272727272727,
                "end_time": 5.4795454545454545,
                "pitch": 75,
                "velocity": 4,
                "duration": 0.10227272727272751,
                "tempo": 120.0
            },
            {
                "start_time": 5.4795454545454545,
                "end_time": 5.552272727272727,
                "pitch": 74,
                "velocity": 64,
                "duration": 0.07272727272727231,
                "tempo": 120.0
            },
            {
                "start_time": 5.574999999999999,
                "end_time": 5.6499999999999995,
                "pitch": 75,
                "velocity": 64,
                "duration": 0.07500000000000018,
                "tempo": 120.0
            },
            {
                "start_time": 5.668181818181818,
                "end_time": 5.763636363636364,
                "pitch": 75,
                "velocity": 4,
                "duration": 0.09545454545454568,
                "tempo": 120.0
            },
            {
                "start_time": 5.765909090909091,
                "end_time": 5.836363636363636,
                "pitch": 74,
                "velocity": 64,
                "duration": 0.07045454545454533,
                "tempo": 120.0
            },
            {
                "start_time": 6.24090909090909,
                "end_time": 6.309090909090909,
                "pitch": 74,
                "velocity": 64,
                "duration": 0.06818181818181834,
                "tempo": 120.0
            },
            {
                "start_time": 6.334090909090909,
                "end_time": 6.436363636363636,
                "pitch": 74,
                "velocity": 4,
                "duration": 0.10227272727272663,
                "tempo": 120.0
            },
            {
                "start_time": 6.436363636363636,
                "end_time": 6.5204545454545455,
                "pitch": 75,
                "velocity": 64,
                "duration": 0.08409090909090988,
                "tempo": 120.0
            },
            {
                "start_time": 6.545454545454545,
                "end_time": 6.640909090909091,
                "pitch": 75,
                "velocity": 4,
                "duration": 0.09545454545454568,
                "tempo": 120.0
            },
            {
                "start_time": 6.640909090909091,
                "end_time": 6.713636363636363,
                "pitch": 77,
                "velocity": 64,
                "duration": 0.07272727272727231,
                "tempo": 120.0
            },
            {
                "start_time": 6.736363636363636,
                "end_time": 6.809090909090909,
                "pitch": 77,
                "velocity": 64,
                "duration": 0.07272727272727231,
                "tempo": 120.0
            },
            {
                "start_time": 6.831818181818181,
                "end_time": 6.906818181818181,
                "pitch": 75,
                "velocity": 64,
                "duration": 0.07500000000000018,
                "tempo": 120.0
            },
            {
                "start_time": 6.925,
                "end_time": 7.027272727272727,
                "pitch": 75,
                "velocity": 4,
                "duration": 0.10227272727272751,
                "tempo": 120.0
            },
            {
                "start_time": 7.027272727272727,
                "end_time": 7.1,
                "pitch": 77,
                "velocity": 64,
                "duration": 0.07272727272727231,
                "tempo": 120.0
            },
            {
                "start_time": 7.118181818181818,
                "end_time": 7.220454545454545,
                "pitch": 77,
                "velocity": 4,
                "duration": 0.10227272727272663,
                "tempo": 120.0
            },
            {
                "start_time": 7.220454545454545,
                "end_time": 7.293181818181818,
                "pitch": 79,
                "velocity": 64,
                "duration": 0.0727272727272732,
                "tempo": 120.0
            },
            {
                "start_time": 7.3159090909090905,
                "end_time": 7.388636363636364,
                "pitch": 77,
                "velocity": 64,
                "duration": 0.0727272727272732,
                "tempo": 120.0
            },
            {
                "start_time": 7.406818181818181,
                "end_time": 7.504545454545454,
                "pitch": 77,
                "velocity": 4,
                "duration": 0.09772727272727266,
                "tempo": 120.0
            },
            {
                "start_time": 7.504545454545454,
                "end_time": 7.577272727272727,
                "pitch": 75,
                "velocity": 64,
                "duration": 0.0727272727272732,
                "tempo": 120.0
            },
            {
                "start_time": 7.595454545454545,
                "end_time": 7.6909090909090905,
                "pitch": 75,
                "velocity": 4,
                "duration": 0.09545454545454568,
                "tempo": 120.0
            },
            {
                "start_time": 7.6931818181818175,
                "end_time": 7.761363636363636,
                "pitch": 74,
                "velocity": 64,
                "duration": 0.06818181818181834,
                "tempo": 120.0
            },
            {
                "start_time": 7.779545454545454,
                "end_time": 7.877272727272727,
                "pitch": 74,
                "velocity": 4,
                "duration": 0.09772727272727266,
                "tempo": 120.0
            },
            {
                "start_time": 7.877272727272727,
                "end_time": 7.947727272727272,
                "pitch": 72,
                "velocity": 64,
                "duration": 0.07045454545454533,
                "tempo": 120.0
            },
            {
                "start_time": 7.968181818181818,
                "end_time": 8.147727272727272,
                "pitch": 74,
                "velocity": 64,
                "duration": 0.1795454545454538,
                "tempo": 120.0
            },
            {
                "start_time": 8.165909090909091,
                "end_time": 8.275,
                "pitch": 74,
                "velocity": 4,
                "duration": 0.10909090909090935,
                "tempo": 120.0
            },
            {
                "start_time": 7.220454545454545,
                "end_time": 8.379545454545454,
                "pitch": 67,
                "velocity": 4,
                "duration": 1.1590909090909092,
                "tempo": 120.0
            },
            {
                "start_time": 8.277272727272727,
                "end_time": 8.379545454545454,
                "pitch": 74,
                "velocity": 4,
                "duration": 0.10227272727272663,
                "tempo": 120.0
            },
            {
                "start_time": 8.379545454545454,
                "end_time": 8.452272727272726,
                "pitch": 79,
                "velocity": 64,
                "duration": 0.07272727272727231,
                "tempo": 120.0
            },
            {
                "start_time": 8.48409090909091,
                "end_time": 8.584090909090909,
                "pitch": 77,
                "velocity": 64,
                "duration": 0.09999999999999964,
                "tempo": 120.0
            },
            {
                "start_time": 8.620454545454544,
                "end_time": 8.718181818181817,
                "pitch": 74,
                "velocity": 64,
                "duration": 0.09772727272727266,
                "tempo": 120.0
            },
            {
                "start_time": 8.754545454545454,
                "end_time": 8.854545454545454,
                "pitch": 73,
                "velocity": 64,
                "duration": 0.09999999999999964,
                "tempo": 120.0
            },
            {
                "start_time": 8.89090909090909,
                "end_time": 8.988636363636363,
                "pitch": 72,
                "velocity": 64,
                "duration": 0.09772727272727266,
                "tempo": 120.0
            },
            {
                "start_time": 9.025,
                "end_time": 9.120454545454544,
                "pitch": 70,
                "velocity": 64,
                "duration": 0.0954545454545439,
                "tempo": 120.0
            },
            {
                "start_time": 8.379545454545454,
                "end_time": 9.343181818181817,
                "pitch": 67,
                "velocity": 4,
                "duration": 0.963636363636363,
                "tempo": 120.0
            },
            {
                "start_time": 9.147727272727272,
                "end_time": 9.343181818181817,
                "pitch": 67,
                "velocity": 64,
                "duration": 0.19545454545454533,
                "tempo": 120.0
            },
            {
                "start_time": 9.375,
                "end_time": 9.454545454545453,
                "pitch": 65,
                "velocity": 64,
                "duration": 0.07954545454545325,
                "tempo": 120.0
            },
            {
                "start_time": 9.48181818181818,
                "end_time": 9.681818181818182,
                "pitch": 67,
                "velocity": 64,
                "duration": 0.20000000000000107,
                "tempo": 120.0
            },
            {
                "start_time": 9.71590909090909,
                "end_time": 9.799999999999999,
                "pitch": 60,
                "velocity": 64,
                "duration": 0.084090909090909,
                "tempo": 120.0
            },
            {
                "start_time": 9.836363636363636,
                "end_time": 9.938636363636363,
                "pitch": 62,
                "velocity": 64,
                "duration": 0.10227272727272663,
                "tempo": 120.0
            },
            {
                "start_time": 9.975,
                "end_time": 10.075,
                "pitch": 65,
                "velocity": 64,
                "duration": 0.09999999999999964,
                "tempo": 120.0
            },
            {
                "start_time": 10.111363636363636,
                "end_time": 10.206818181818182,
                "pitch": 65,
                "velocity": 64,
                "duration": 0.09545454545454568,
                "tempo": 120.0
            },
            {
                "start_time": 10.238636363636363,
                "end_time": 10.313636363636363,
                "pitch": 67,
                "velocity": 64,
                "duration": 0.07499999999999929,
                "tempo": 120.0
            },
            {
                "start_time": 10.347727272727273,
                "end_time": 10.44090909090909,
                "pitch": 70,
                "velocity": 64,
                "duration": 0.09318181818181692,
                "tempo": 120.0
            },
            {
                "start_time": 10.475,
                "end_time": 10.568181818181818,
                "pitch": 72,
                "velocity": 64,
                "duration": 0.0931818181818187,
                "tempo": 120.0
            },
            {
                "start_time": 10.602272727272727,
                "end_time": 10.69090909090909,
                "pitch": 77,
                "velocity": 64,
                "duration": 0.08863636363636296,
                "tempo": 120.0
            },
            {
                "start_time": 10.713636363636363,
                "end_time": 10.827272727272726,
                "pitch": 77,
                "velocity": 4,
                "duration": 0.11363636363636331,
                "tempo": 120.0
            },
            {
                "start_time": 10.827272727272726,
                "end_time": 10.915909090909091,
                "pitch": 77,
                "velocity": 64,
                "duration": 0.08863636363636473,
                "tempo": 120.0
            },
            {
                "start_time": 10.947727272727272,
                "end_time": 11.754545454545454,
                "pitch": 79,
                "velocity": 64,
                "duration": 0.8068181818181817,
                "tempo": 120.0
            },
            {
                "start_time": 11.879545454545454,
                "end_time": 13.56590909090909,
                "pitch": 0,
                "velocity": 127,
                "duration": 1.6863636363636356,
                "tempo": 120.0
            }
        ],
        "Vibraphone": [
            {
                "start_time": 0.020454545454545454,
                "end_time": 0.12727272727272726,
                "pitch": 0,
                "velocity": 4,
                "duration": 0.10681818181818181,
                "tempo": 120.0
            },
            {
                "start_time": 0.12727272727272726,
                "end_time": 0.19545454545454544,
                "pitch": 86,
                "velocity": 40,
                "duration": 0.06818181818181818,
                "tempo": 120.0
            },
            {
                "start_time": 0.22727272727272727,
                "end_time": 0.3090909090909091,
                "pitch": 79,
                "velocity": 40,
                "duration": 0.08181818181818182,
                "tempo": 120.0
            },
            {
                "start_time": 0.3386363636363636,
                "end_time": 0.42272727272727273,
                "pitch": 81,
                "velocity": 40,
                "duration": 0.0840909090909091,
                "tempo": 120.0
            },
            {
                "start_time": 0.45227272727272727,
                "end_time": 0.5454545454545454,
                "pitch": 74,
                "velocity": 40,
                "duration": 0.09318181818181814,
                "tempo": 120.0
            },
            {
                "start_time": 0.5795454545454545,
                "end_time": 0.6727272727272727,
                "pitch": 79,
                "velocity": 40,
                "duration": 0.09318181818181825,
                "tempo": 120.0
            },
            {
                "start_time": 0.7068181818181818,
                "end_time": 0.7999999999999999,
                "pitch": 72,
                "velocity": 40,
                "duration": 0.09318181818181814,
                "tempo": 120.0
            },
            {
                "start_time": 0.8318181818181818,
                "end_time": 0.9249999999999999,
                "pitch": 77,
                "velocity": 40,
                "duration": 0.09318181818181814,
                "tempo": 120.0
            },
            {
                "start_time": 0.959090909090909,
                "end_time": 1.0545454545454545,
                "pitch": 74,
                "velocity": 40,
                "duration": 0.09545454545454546,
                "tempo": 120.0
            },
            {
                "start_time": 1.0795454545454546,
                "end_time": 1.15,
                "pitch": 74,
                "velocity": 40,
                "duration": 0.07045454545454533,
                "tempo": 120.0
            },
            {
                "start_time": 1.15,
                "end_time": 1.2227272727272727,
                "pitch": 72,
                "velocity": 40,
                "duration": 0.07272727272727275,
                "tempo": 120.0
            },
            {
                "start_time": 1.15,
                "end_time": 1.2227272727272727,
                "pitch": 72,
                "velocity": 40,
                "duration": 0.07272727272727275,
                "tempo": 120.0
            },
            {
                "start_time": 1.2227272727272727,
                "end_time": 1.2977272727272726,
                "pitch": 74,
                "velocity": 40,
                "duration": 0.07499999999999996,
                "tempo": 120.0
            },
            {
                "start_time": 1.2249999999999999,
                "end_time": 1.2977272727272726,
                "pitch": 74,
                "velocity": 40,
                "duration": 0.07272727272727275,
                "tempo": 120.0
            },
            {
                "start_time": 1.2977272727272726,
                "end_time": 1.3727272727272726,
                "pitch": 77,
                "velocity": 40,
                "duration": 0.07499999999999996,
                "tempo": 120.0
            },
            {
                "start_time": 1.2977272727272726,
                "end_time": 1.3727272727272726,
                "pitch": 77,
                "velocity": 40,
                "duration": 0.07499999999999996,
                "tempo": 120.0
            },
            {
                "start_time": 1.3727272727272726,
                "end_time": 1.4454545454545453,
                "pitch": 74,
                "velocity": 40,
                "duration": 0.07272727272727275,
                "tempo": 120.0
            },
            {
                "start_time": 1.3727272727272726,
                "end_time": 1.4454545454545453,
                "pitch": 74,
                "velocity": 40,
                "duration": 0.07272727272727275,
                "tempo": 120.0
            },
            {
                "start_time": 1.4454545454545453,
                "end_time": 1.5204545454545453,
                "pitch": 77,
                "velocity": 40,
                "duration": 0.07499999999999996,
                "tempo": 120.0
            },
            {
                "start_time": 1.4477272727272728,
                "end_time": 1.5204545454545453,
                "pitch": 77,
                "velocity": 40,
                "duration": 0.07272727272727253,
                "tempo": 120.0
            },
            {
                "start_time": 1.5204545454545453,
                "end_time": 1.5954545454545455,
                "pitch": 79,
                "velocity": 40,
                "duration": 0.07500000000000018,
                "tempo": 120.0
            },
            {
                "start_time": 1.5977272727272727,
                "end_time": 1.6727272727272726,
                "pitch": 81,
                "velocity": 40,
                "duration": 0.07499999999999996,
                "tempo": 120.0
            },
            {
                "start_time": 1.6727272727272726,
                "end_time": 1.7477272727272726,
                "pitch": 84,
                "velocity": 40,
                "duration": 0.07499999999999996,
                "tempo": 120.0
            },
            {
                "start_time": 1.6727272727272726,
                "end_time": 1.7477272727272726,
                "pitch": 84,
                "velocity": 40,
                "duration": 0.07499999999999996,
                "tempo": 120.0
            },
            {
                "start_time": 1.7477272727272726,
                "end_time": 1.8386363636363636,
                "pitch": 81,
                "velocity": 40,
                "duration": 0.09090909090909105,
                "tempo": 120.0
            },
            {
                "start_time": 1.7477272727272726,
                "end_time": 1.8386363636363636,
                "pitch": 81,
                "velocity": 40,
                "duration": 0.09090909090909105,
                "tempo": 120.0
            },
            {
                "start_time": 1.8772727272727272,
                "end_time": 1.9704545454545455,
                "pitch": 74,
                "velocity": 64,
                "duration": 0.09318181818181825,
                "tempo": 120.0
            },
            {
                "start_time": 1.9931818181818182,
                "end_time": 2.106818181818182,
                "pitch": 74,
                "velocity": 4,
                "duration": 0.11363636363636376,
                "tempo": 120.0
            },
            {
                "start_time": 2.109090909090909,
                "end_time": 2.186363636363636,
                "pitch": 72,
                "velocity": 64,
                "duration": 0.07727272727272716,
                "tempo": 120.0
            },
            {
                "start_time": 2.2068181818181816,
                "end_time": 2.318181818181818,
                "pitch": 72,
                "velocity": 4,
                "duration": 0.11136363636363633,
                "tempo": 120.0
            },
            {
                "start_time": 2.318181818181818,
                "end_time": 2.3977272727272725,
                "pitch": 71,
                "velocity": 64,
                "duration": 0.07954545454545459,
                "tempo": 120.0
            },
            {
                "start_time": 2.425,
                "end_time": 2.5045454545454544,
                "pitch": 72,
                "velocity": 64,
                "duration": 0.07954545454545459,
                "tempo": 120.0
            },
            {
                "start_time": 2.5295454545454543,
                "end_time": 2.618181818181818,
                "pitch": 75,
                "velocity": 64,
                "duration": 0.08863636363636385,
                "tempo": 120.0
            },
            {
                "start_time": 2.643181818181818,
                "end_time": 2.7295454545454545,
                "pitch": 71,
                "velocity": 64,
                "duration": 0.08636363636363642,
                "tempo": 120.0
            }
        ],
        "Acoustic Guitar (nylon)": [
            {
                "start_time": 2.759090909090909,
                "end_time": 2.8431818181818183,
                "pitch": 86,
                "velocity": 80,
                "duration": 0.08409090909090944,
                "tempo": 120.0
            },
            {
                "start_time": 2.870454545454545,
                "end_time": 2.9568181818181816,
                "pitch": 86,
                "velocity": 80,
                "duration": 0.08636363636363642,
                "tempo": 120.0
            },
            {
                "start_time": 2.9818181818181815,
                "end_time": 3.0568181818181817,
                "pitch": 84,
                "velocity": 80,
                "duration": 0.07500000000000018,
                "tempo": 120.0
            },
            {
                "start_time": 3.0795454545454546,
                "end_time": 3.1545454545454543,
                "pitch": 86,
                "velocity": 80,
                "duration": 0.07499999999999973,
                "tempo": 120.0
            },
            {
                "start_time": 5.8568181818181815,
                "end_time": 5.927272727272727,
                "pitch": 89,
                "velocity": 80,
                "duration": 0.07045454545454533,
                "tempo": 120.0
            },
            {
                "start_time": 5.949999999999999,
                "end_time": 6.0204545454545455,
                "pitch": 89,
                "velocity": 80,
                "duration": 0.07045454545454621,
                "tempo": 120.0
            },
            {
                "start_time": 6.043181818181818,
                "end_time": 6.11590909090909,
                "pitch": 87,
                "velocity": 80,
                "duration": 0.07272727272727231,
                "tempo": 120.0
            },
            {
                "start_time": 6.138636363636364,
                "end_time": 6.213636363636363,
                "pitch": 89,
                "velocity": 80,
                "duration": 0.07499999999999929,
                "tempo": 120.0
            }
        ],
        "Trumpet": [
            {
                "start_time": 0.020454545454545454,
                "end_time": 0.09999999999999999,
                "pitch": 74,
                "velocity": 80,
                "duration": 0.07954545454545453,
                "tempo": 120.0
            },
            {
                "start_time": 0.12727272727272726,
                "end_time": 0.19545454545454544,
                "pitch": 67,
                "velocity": 80,
                "duration": 0.06818181818181818,
                "tempo": 120.0
            },
            {
                "start_time": 0.22727272727272727,
                "end_time": 0.3090909090909091,
                "pitch": 69,
                "velocity": 80,
                "duration": 0.08181818181818182,
                "tempo": 120.0
            },
            {
                "start_time": 0.3386363636363636,
                "end_time": 0.42272727272727273,
                "pitch": 62,
                "velocity": 80,
                "duration": 0.0840909090909091,
                "tempo": 120.0
            },
            {
                "start_time": 0.45227272727272727,
                "end_time": 0.5454545454545454,
                "pitch": 67,
                "velocity": 80,
                "duration": 0.09318181818181814,
                "tempo": 120.0
            },
            {
                "start_time": 0.5795454545454545,
                "end_time": 0.6727272727272727,
                "pitch": 60,
                "velocity": 80,
                "duration": 0.09318181818181825,
                "tempo": 120.0
            },
            {
                "start_time": 0.7045454545454545,
                "end_time": 0.7999999999999999,
                "pitch": 65,
                "velocity": 80,
                "duration": 0.09545454545454546,
                "tempo": 120.0
            },
            {
                "start_time": 0.8318181818181818,
                "end_time": 0.9249999999999999,
                "pitch": 62,
                "velocity": 80,
                "duration": 0.09318181818181814,
                "tempo": 120.0
            },
            {
                "start_time": 0.959090909090909,
                "end_time": 1.0454545454545454,
                "pitch": 62,
                "velocity": 80,
                "duration": 0.08636363636363642,
                "tempo": 120.0
            },
            {
                "start_time": 1.0454545454545454,
                "end_time": 1.1204545454545454,
                "pitch": 60,
                "velocity": 80,
                "duration": 0.07499999999999996,
                "tempo": 120.0
            },
            {
                "start_time": 1.1204545454545454,
                "end_time": 1.1977272727272728,
                "pitch": 62,
                "velocity": 80,
                "duration": 0.07727272727272738,
                "tempo": 120.0
            },
            {
                "start_time": 1.1977272727272728,
                "end_time": 1.2704545454545455,
                "pitch": 65,
                "velocity": 80,
                "duration": 0.07272727272727275,
                "tempo": 120.0
            },
            {
                "start_time": 1.1977272727272728,
                "end_time": 1.2704545454545455,
                "pitch": 65,
                "velocity": 80,
                "duration": 0.07272727272727275,
                "tempo": 120.0
            },
            {
                "start_time": 1.2704545454545455,
                "end_time": 1.3454545454545455,
                "pitch": 62,
                "velocity": 80,
                "duration": 0.07499999999999996,
                "tempo": 120.0
            },
            {
                "start_time": 1.2727272727272727,
                "end_time": 1.3454545454545455,
                "pitch": 62,
                "velocity": 80,
                "duration": 0.07272727272727275,
                "tempo": 120.0
            },
            {
                "start_time": 1.3454545454545455,
                "end_time": 1.4204545454545454,
                "pitch": 65,
                "velocity": 80,
                "duration": 0.07499999999999996,
                "tempo": 120.0
            },
            {
                "start_time": 1.3454545454545455,
                "end_time": 1.4204545454545454,
                "pitch": 65,
                "velocity": 80,
                "duration": 0.07499999999999996,
                "tempo": 120.0
            },
            {
                "start_time": 1.4204545454545454,
                "end_time": 1.4931818181818182,
                "pitch": 67,
                "velocity": 80,
                "duration": 0.07272727272727275,
                "tempo": 120.0
            },
            {
                "start_time": 1.4954545454545454,
                "end_time": 1.5704545454545453,
                "pitch": 69,
                "velocity": 80,
                "duration": 0.07499999999999996,
                "tempo": 120.0
            },
            {
                "start_time": 1.5704545454545453,
                "end_time": 1.6454545454545453,
                "pitch": 72,
                "velocity": 80,
                "duration": 0.07499999999999996,
                "tempo": 120.0
            },
            {
                "start_time": 1.5704545454545453,
                "end_time": 1.6454545454545453,
                "pitch": 72,
                "velocity": 80,
                "duration": 0.07499999999999996,
                "tempo": 120.0
            },
            {
                "start_time": 1.6454545454545453,
                "end_time": 1.7204545454545455,
                "pitch": 69,
                "velocity": 80,
                "duration": 0.07500000000000018,
                "tempo": 120.0
            },
            {
                "start_time": 1.6454545454545453,
                "end_time": 1.7204545454545455,
                "pitch": 69,
                "velocity": 80,
                "duration": 0.07500000000000018,
                "tempo": 120.0
            },
            {
                "start_time": 1.7204545454545455,
                "end_time": 1.7954545454545454,
                "pitch": 72,
                "velocity": 80,
                "duration": 0.07499999999999996,
                "tempo": 120.0
            },
            {
                "start_time": 1.7204545454545455,
                "end_time": 1.7954545454545454,
                "pitch": 72,
                "velocity": 80,
                "duration": 0.07499999999999996,
                "tempo": 120.0
            },
            {
                "start_time": 1.7954545454545454,
                "end_time": 1.8772727272727272,
                "pitch": 74,
                "velocity": 80,
                "duration": 0.08181818181818179,
                "tempo": 120.0
            },
            {
                "start_time": 1.8772727272727272,
                "end_time": 3.025,
                "pitch": 67,
                "velocity": 80,
                "duration": 1.1477272727272727,
                "tempo": 120.0
            },
            {
                "start_time": 1.8772727272727272,
                "end_time": 3.025,
                "pitch": 67,
                "velocity": 80,
                "duration": 1.1477272727272727,
                "tempo": 120.0
            },
            {
                "start_time": 3.1818181818181817,
                "end_time": 3.25,
                "pitch": 67,
                "velocity": 80,
                "duration": 0.06818181818181834,
                "tempo": 120.0
            },
            {
                "start_time": 3.2727272727272725,
                "end_time": 3.3477272727272727,
                "pitch": 72,
                "velocity": 80,
                "duration": 0.07500000000000018,
                "tempo": 120.0
            },
            {
                "start_time": 3.377272727272727,
                "end_time": 3.461363636363636,
                "pitch": 74,
                "velocity": 80,
                "duration": 0.084090909090909,
                "tempo": 120.0
            },
            {
                "start_time": 3.4863636363636363,
                "end_time": 4.8136363636363635,
                "pitch": 79,
                "velocity": 80,
                "duration": 1.3272727272727272,
                "tempo": 120.0
            },
            {
                "start_time": 4.997727272727272,
                "end_time": 5.1,
                "pitch": 79,
                "velocity": 4,
                "duration": 0.10227272727272751,
                "tempo": 120.0
            },
            {
                "start_time": 5.1,
                "end_time": 6.084090909090909,
                "pitch": 70,
                "velocity": 80,
                "duration": 0.9840909090909093,
                "tempo": 120.0
            },
            {
                "start_time": 6.24090909090909,
                "end_time": 6.309090909090909,
                "pitch": 70,
                "velocity": 80,
                "duration": 0.06818181818181834,
                "tempo": 120.0
            },
            {
                "start_time": 6.334090909090909,
                "end_time": 6.406818181818181,
                "pitch": 75,
                "velocity": 80,
                "duration": 0.07272727272727231,
                "tempo": 120.0
            },
            {
                "start_time": 6.436363636363636,
                "end_time": 6.5204545454545455,
                "pitch": 77,
                "velocity": 80,
                "duration": 0.08409090909090988,
                "tempo": 120.0
            },
            {
                "start_time": 5.1,
                "end_time": 7.877272727272727,
                "pitch": 82,
                "velocity": 4,
                "duration": 2.7772727272727273,
                "tempo": 120.0
            },
            {
                "start_time": 6.545454545454545,
                "end_time": 7.877272727272727,
                "pitch": 82,
                "velocity": 80,
                "duration": 1.331818181818182,
                "tempo": 120.0
            },
            {
                "start_time": 8.065909090909091,
                "end_time": 8.165909090909091,
                "pitch": 82,
                "velocity": 4,
                "duration": 0.09999999999999964,
                "tempo": 120.0
            },
            {
                "start_time": 8.165909090909091,
                "end_time": 8.275,
                "pitch": 82,
                "velocity": 4,
                "duration": 0.10909090909090935,
                "tempo": 120.0
            },
            {
                "start_time": 8.277272727272727,
                "end_time": 8.35,
                "pitch": 67,
                "velocity": 80,
                "duration": 0.07272727272727231,
                "tempo": 120.0
            },
            {
                "start_time": 8.379545454545454,
                "end_time": 8.452272727272726,
                "pitch": 65,
                "velocity": 80,
                "duration": 0.07272727272727231,
                "tempo": 120.0
            },
            {
                "start_time": 8.48409090909091,
                "end_time": 8.584090909090909,
                "pitch": 62,
                "velocity": 80,
                "duration": 0.09999999999999964,
                "tempo": 120.0
            },
            {
                "start_time": 8.618181818181817,
                "end_time": 8.718181818181817,
                "pitch": 61,
                "velocity": 80,
                "duration": 0.09999999999999964,
                "tempo": 120.0
            },
            {
                "start_time": 8.754545454545454,
                "end_time": 8.854545454545454,
                "pitch": 60,
                "velocity": 80,
                "duration": 0.09999999999999964,
                "tempo": 120.0
            },
            {
                "start_time": 8.89090909090909,
                "end_time": 8.988636363636363,
                "pitch": 58,
                "velocity": 80,
                "duration": 0.09772727272727266,
                "tempo": 120.0
            },
            {
                "start_time": 1.4204545454545454,
                "end_time": 9.23181818181818,
                "pitch": 55,
                "velocity": 80,
                "duration": 7.811363636363636,
                "tempo": 120.0
            },
            {
                "start_time": 9.025,
                "end_time": 9.23181818181818,
                "pitch": 55,
                "velocity": 80,
                "duration": 0.20681818181818024,
                "tempo": 120.0
            },
            {
                "start_time": 9.263636363636364,
                "end_time": 9.343181818181817,
                "pitch": 53,
                "velocity": 80,
                "duration": 0.07954545454545325,
                "tempo": 120.0
            },
            {
                "start_time": 9.375,
                "end_time": 9.56590909090909,
                "pitch": 55,
                "velocity": 80,
                "duration": 0.19090909090908958,
                "tempo": 120.0
            },
            {
                "start_time": 9.597727272727273,
                "end_time": 9.681818181818182,
                "pitch": 48,
                "velocity": 80,
                "duration": 0.084090909090909,
                "tempo": 120.0
            },
            {
                "start_time": 9.71590909090909,
                "end_time": 9.799999999999999,
                "pitch": 50,
                "velocity": 80,
                "duration": 0.084090909090909,
                "tempo": 120.0
            },
            {
                "start_time": 9.836363636363636,
                "end_time": 9.938636363636363,
                "pitch": 53,
                "velocity": 80,
                "duration": 0.10227272727272663,
                "tempo": 120.0
            },
            {
                "start_time": 9.975,
                "end_time": 10.075,
                "pitch": 55,
                "velocity": 80,
                "duration": 0.09999999999999964,
                "tempo": 120.0
            },
            {
                "start_time": 10.111363636363636,
                "end_time": 10.206818181818182,
                "pitch": 65,
                "velocity": 80,
                "duration": 0.09545454545454568,
                "tempo": 120.0
            },
            {
                "start_time": 10.238636363636363,
                "end_time": 10.313636363636363,
                "pitch": 67,
                "velocity": 80,
                "duration": 0.07499999999999929,
                "tempo": 120.0
            },
            {
                "start_time": 10.347727272727273,
                "end_time": 10.44090909090909,
                "pitch": 70,
                "velocity": 80,
                "duration": 0.09318181818181692,
                "tempo": 120.0
            },
            {
                "start_time": 10.475,
                "end_time": 10.568181818181818,
                "pitch": 72,
                "velocity": 80,
                "duration": 0.0931818181818187,
                "tempo": 120.0
            },
            {
                "start_time": 10.602272727272727,
                "end_time": 10.69090909090909,
                "pitch": 77,
                "velocity": 80,
                "duration": 0.08863636363636296,
                "tempo": 120.0
            },
            {
                "start_time": 10.713636363636363,
                "end_time": 10.827272727272726,
                "pitch": 77,
                "velocity": 4,
                "duration": 0.11363636363636331,
                "tempo": 120.0
            },
            {
                "start_time": 10.827272727272726,
                "end_time": 10.915909090909091,
                "pitch": 77,
                "velocity": 80,
                "duration": 0.08863636363636473,
                "tempo": 120.0
            },
            {
                "start_time": 8.275,
                "end_time": 11.752272727272727,
                "pitch": 79,
                "velocity": 4,
                "duration": 3.4772727272727266,
                "tempo": 120.0
            },
            {
                "start_time": 10.947727272727272,
                "end_time": 11.752272727272727,
                "pitch": 79,
                "velocity": 80,
                "duration": 0.8045454545454547,
                "tempo": 120.0
            },
            {
                "start_time": 11.879545454545454,
                "end_time": 13.56590909090909,
                "pitch": 0,
                "velocity": 127,
                "duration": 1.6863636363636356,
                "tempo": 120.0
            }
        ],
        "Acoustic Bass": [
            {
                "start_time": 0.020454545454545454,
                "end_time": 0.08409090909090909,
                "pitch": 38,
                "velocity": 101,
                "duration": 0.06363636363636363,
                "tempo": 120.0
            },
            {
                "start_time": 0.12727272727272726,
                "end_time": 0.17954545454545454,
                "pitch": 31,
                "velocity": 101,
                "duration": 0.052272727272727276,
                "tempo": 120.0
            },
            {
                "start_time": 0.22727272727272727,
                "end_time": 0.29318181818181815,
                "pitch": 33,
                "velocity": 101,
                "duration": 0.06590909090909089,
                "tempo": 120.0
            },
            {
                "start_time": 0.3386363636363636,
                "end_time": 0.4068181818181818,
                "pitch": 26,
                "velocity": 101,
                "duration": 0.06818181818181818,
                "tempo": 120.0
            },
            {
                "start_time": 0.45227272727272727,
                "end_time": 0.5272727272727272,
                "pitch": 31,
                "velocity": 101,
                "duration": 0.07499999999999996,
                "tempo": 120.0
            },
            {
                "start_time": 0.5795454545454545,
                "end_time": 0.6545454545454545,
                "pitch": 24,
                "velocity": 101,
                "duration": 0.07500000000000007,
                "tempo": 120.0
            },
            {
                "start_time": 0.7068181818181818,
                "end_time": 0.7795454545454545,
                "pitch": 29,
                "velocity": 101,
                "duration": 0.07272727272727275,
                "tempo": 120.0
            },
            {
                "start_time": 0.8318181818181818,
                "end_time": 0.9068181818181817,
                "pitch": 26,
                "velocity": 101,
                "duration": 0.07499999999999996,
                "tempo": 120.0
            },
            {
                "start_time": 0.959090909090909,
                "end_time": 1.018181818181818,
                "pitch": 26,
                "velocity": 101,
                "duration": 0.05909090909090908,
                "tempo": 120.0
            },
            {
                "start_time": 1.0477272727272726,
                "end_time": 1.0909090909090908,
                "pitch": 24,
                "velocity": 101,
                "duration": 0.04318181818181821,
                "tempo": 120.0
            },
            {
                "start_time": 1.1204545454545454,
                "end_time": 1.1659090909090908,
                "pitch": 26,
                "velocity": 101,
                "duration": 0.045454545454545414,
                "tempo": 120.0
            },
            {
                "start_time": 1.1977272727272728,
                "end_time": 1.2409090909090907,
                "pitch": 29,
                "velocity": 101,
                "duration": 0.04318181818181799,
                "tempo": 120.0
            },
            {
                "start_time": 1.2727272727272727,
                "end_time": 1.3136363636363635,
                "pitch": 26,
                "velocity": 101,
                "duration": 0.040909090909090784,
                "tempo": 120.0
            },
            {
                "start_time": 1.3454545454545455,
                "end_time": 1.3886363636363637,
                "pitch": 29,
                "velocity": 101,
                "duration": 0.04318181818181821,
                "tempo": 120.0
            },
            {
                "start_time": 1.4204545454545454,
                "end_time": 1.4636363636363636,
                "pitch": 31,
                "velocity": 101,
                "duration": 0.04318181818181821,
                "tempo": 120.0
            },
            {
                "start_time": 1.4954545454545454,
                "end_time": 1.5386363636363636,
                "pitch": 33,
                "velocity": 101,
                "duration": 0.04318181818181821,
                "tempo": 120.0
            },
            {
                "start_time": 1.5704545454545453,
                "end_time": 1.6136363636363635,
                "pitch": 36,
                "velocity": 101,
                "duration": 0.04318181818181821,
                "tempo": 120.0
            },
            {
                "start_time": 1.6454545454545453,
                "end_time": 1.6886363636363635,
                "pitch": 33,
                "velocity": 101,
                "duration": 0.04318181818181821,
                "tempo": 120.0
            },
            {
                "start_time": 1.7204545454545455,
                "end_time": 1.7636363636363634,
                "pitch": 36,
                "velocity": 101,
                "duration": 0.04318181818181799,
                "tempo": 120.0
            },
            {
                "start_time": 1.7954545454545454,
                "end_time": 1.8386363636363636,
                "pitch": 38,
                "velocity": 101,
                "duration": 0.04318181818181821,
                "tempo": 120.0
            },
            {
                "start_time": 1.8772727272727272,
                "end_time": 1.9545454545454544,
                "pitch": 31,
                "velocity": 101,
                "duration": 0.07727272727272716,
                "tempo": 120.0
            },
            {
                "start_time": 1.9931818181818182,
                "end_time": 2.061363636363636,
                "pitch": 31,
                "velocity": 101,
                "duration": 0.0681818181818179,
                "tempo": 120.0
            },
            {
                "start_time": 2.109090909090909,
                "end_time": 2.168181818181818,
                "pitch": 43,
                "velocity": 101,
                "duration": 0.05909090909090908,
                "tempo": 120.0
            },
            {
                "start_time": 2.2068181818181816,
                "end_time": 2.275,
                "pitch": 31,
                "velocity": 101,
                "duration": 0.06818181818181834,
                "tempo": 120.0
            },
            {
                "start_time": 2.318181818181818,
                "end_time": 2.381818181818182,
                "pitch": 41,
                "velocity": 101,
                "duration": 0.06363636363636394,
                "tempo": 120.0
            },
            {
                "start_time": 2.425,
                "end_time": 2.4863636363636363,
                "pitch": 31,
                "velocity": 101,
                "duration": 0.06136363636363651,
                "tempo": 120.0
            },
            {
                "start_time": 2.5295454545454543,
                "end_time": 2.5977272727272727,
                "pitch": 43,
                "velocity": 101,
                "duration": 0.06818181818181834,
                "tempo": 120.0
            },
            {
                "start_time": 2.6454545454545455,
                "end_time": 2.7113636363636364,
                "pitch": 31,
                "velocity": 101,
                "duration": 0.06590909090909092,
                "tempo": 120.0
            },
            {
                "start_time": 2.759090909090909,
                "end_time": 2.8249999999999997,
                "pitch": 29,
                "velocity": 101,
                "duration": 0.06590909090909092,
                "tempo": 120.0
            },
            {
                "start_time": 2.870454545454545,
                "end_time": 2.9386363636363635,
                "pitch": 31,
                "velocity": 101,
                "duration": 0.06818181818181834,
                "tempo": 120.0
            },
            {
                "start_time": 2.9818181818181815,
                "end_time": 3.0409090909090906,
                "pitch": 43,
                "velocity": 101,
                "duration": 0.05909090909090908,
                "tempo": 120.0
            },
            {
                "start_time": 3.0795454545454546,
                "end_time": 3.1363636363636362,
                "pitch": 31,
                "velocity": 101,
                "duration": 0.05681818181818166,
                "tempo": 120.0
            },
            {
                "start_time": 3.1818181818181817,
                "end_time": 3.234090909090909,
                "pitch": 41,
                "velocity": 101,
                "duration": 0.05227272727272725,
                "tempo": 120.0
            },
            {
                "start_time": 3.275,
                "end_time": 3.3318181818181816,
                "pitch": 43,
                "velocity": 101,
                "duration": 0.05681818181818166,
                "tempo": 120.0
            },
            {
                "start_time": 3.377272727272727,
                "end_time": 3.443181818181818,
                "pitch": 31,
                "velocity": 101,
                "duration": 0.06590909090909092,
                "tempo": 120.0
            },
            {
                "start_time": 3.4863636363636363,
                "end_time": 3.6045454545454545,
                "pitch": 31,
                "velocity": 101,
                "duration": 0.11818181818181817,
                "tempo": 120.0
            },
            {
                "start_time": 3.6795454545454542,
                "end_time": 3.734090909090909,
                "pitch": 31,
                "velocity": 101,
                "duration": 0.054545454545454675,
                "tempo": 120.0
            },
            {
                "start_time": 3.7727272727272725,
                "end_time": 3.8318181818181816,
                "pitch": 43,
                "velocity": 101,
                "duration": 0.05909090909090908,
                "tempo": 120.0
            },
            {
                "start_time": 3.868181818181818,
                "end_time": 3.9318181818181817,
                "pitch": 31,
                "velocity": 101,
                "duration": 0.06363636363636349,
                "tempo": 120.0
            },
            {
                "start_time": 3.9727272727272727,
                "end_time": 4.031818181818181,
                "pitch": 41,
                "velocity": 101,
                "duration": 0.05909090909090864,
                "tempo": 120.0
            },
            {
                "start_time": 4.068181818181818,
                "end_time": 4.131818181818182,
                "pitch": 31,
                "velocity": 101,
                "duration": 0.06363636363636349,
                "tempo": 120.0
            },
            {
                "start_time": 4.170454545454545,
                "end_time": 4.225,
                "pitch": 43,
                "velocity": 101,
                "duration": 0.054545454545454675,
                "tempo": 120.0
            },
            {
                "start_time": 4.261363636363636,
                "end_time": 4.3136363636363635,
                "pitch": 31,
                "velocity": 101,
                "duration": 0.05227272727272769,
                "tempo": 120.0
            },
            {
                "start_time": 4.347727272727273,
                "end_time": 4.404545454545454,
                "pitch": 29,
                "velocity": 101,
                "duration": 0.05681818181818166,
                "tempo": 120.0
            },
            {
                "start_time": 4.4409090909090905,
                "end_time": 4.495454545454545,
                "pitch": 31,
                "velocity": 101,
                "duration": 0.054545454545454675,
                "tempo": 120.0
            },
            {
                "start_time": 4.527272727272727,
                "end_time": 4.588636363636364,
                "pitch": 43,
                "velocity": 101,
                "duration": 0.06136363636363651,
                "tempo": 120.0
            },
            {
                "start_time": 4.625,
                "end_time": 4.681818181818182,
                "pitch": 31,
                "velocity": 101,
                "duration": 0.05681818181818166,
                "tempo": 120.0
            },
            {
                "start_time": 4.715909090909091,
                "end_time": 4.7749999999999995,
                "pitch": 41,
                "velocity": 101,
                "duration": 0.05909090909090864,
                "tempo": 120.0
            },
            {
                "start_time": 4.8136363636363635,
                "end_time": 4.870454545454545,
                "pitch": 43,
                "velocity": 101,
                "duration": 0.05681818181818166,
                "tempo": 120.0
            },
            {
                "start_time": 4.909090909090909,
                "end_time": 4.963636363636363,
                "pitch": 31,
                "velocity": 101,
                "duration": 0.054545454545453786,
                "tempo": 120.0
            },
            {
                "start_time": 5.0,
                "end_time": 5.122727272727272,
                "pitch": 34,
                "velocity": 101,
                "duration": 0.12272727272727213,
                "tempo": 120.0
            },
            {
                "start_time": 5.1863636363636365,
                "end_time": 5.247727272727272,
                "pitch": 34,
                "velocity": 101,
                "duration": 0.06136363636363562,
                "tempo": 120.0
            },
            {
                "start_time": 5.288636363636363,
                "end_time": 5.343181818181818,
                "pitch": 34,
                "velocity": 101,
                "duration": 0.054545454545454675,
                "tempo": 120.0
            },
            {
                "start_time": 5.377272727272727,
                "end_time": 5.4409090909090905,
                "pitch": 46,
                "velocity": 101,
                "duration": 0.06363636363636349,
                "tempo": 120.0
            },
            {
                "start_time": 5.4795454545454545,
                "end_time": 5.536363636363636,
                "pitch": 34,
                "velocity": 101,
                "duration": 0.05681818181818166,
                "tempo": 120.0
            },
            {
                "start_time": 5.577272727272727,
                "end_time": 5.634090909090909,
                "pitch": 44,
                "velocity": 101,
                "duration": 0.05681818181818166,
                "tempo": 120.0
            },
            {
                "start_time": 5.668181818181818,
                "end_time": 5.727272727272727,
                "pitch": 34,
                "velocity": 101,
                "duration": 0.05909090909090864,
                "tempo": 120.0
            },
            {
                "start_time": 5.765909090909091,
                "end_time": 5.820454545454545,
                "pitch": 46,
                "velocity": 101,
                "duration": 0.054545454545454675,
                "tempo": 120.0
            },
            {
                "start_time": 5.8568181818181815,
                "end_time": 5.911363636363636,
                "pitch": 34,
                "velocity": 101,
                "duration": 0.054545454545454675,
                "tempo": 120.0
            },
            {
                "start_time": 5.949999999999999,
                "end_time": 6.004545454545454,
                "pitch": 32,
                "velocity": 101,
                "duration": 0.054545454545454675,
                "tempo": 120.0
            },
            {
                "start_time": 6.043181818181818,
                "end_time": 6.1,
                "pitch": 34,
                "velocity": 101,
                "duration": 0.05681818181818166,
                "tempo": 120.0
            },
            {
                "start_time": 6.138636363636364,
                "end_time": 6.197727272727272,
                "pitch": 46,
                "velocity": 101,
                "duration": 0.05909090909090864,
                "tempo": 120.0
            },
            {
                "start_time": 6.24090909090909,
                "end_time": 6.293181818181818,
                "pitch": 34,
                "velocity": 101,
                "duration": 0.05227272727272769,
                "tempo": 120.0
            },
            {
                "start_time": 6.334090909090909,
                "end_time": 6.390909090909091,
                "pitch": 42,
                "velocity": 101,
                "duration": 0.05681818181818166,
                "tempo": 120.0
            },
            {
                "start_time": 6.436363636363636,
                "end_time": 6.502272727272727,
                "pitch": 44,
                "velocity": 101,
                "duration": 0.06590909090909136,
                "tempo": 120.0
            },
            {
                "start_time": 6.545454545454545,
                "end_time": 6.6,
                "pitch": 46,
                "velocity": 101,
                "duration": 0.054545454545454675,
                "tempo": 120.0
            },
            {
                "start_time": 6.643181818181818,
                "end_time": 6.761363636363636,
                "pitch": 34,
                "velocity": 101,
                "duration": 0.11818181818181817,
                "tempo": 120.0
            },
            {
                "start_time": 6.834090909090909,
                "end_time": 6.890909090909091,
                "pitch": 34,
                "velocity": 101,
                "duration": 0.05681818181818166,
                "tempo": 120.0
            },
            {
                "start_time": 6.925,
                "end_time": 6.988636363636363,
                "pitch": 46,
                "velocity": 101,
                "duration": 0.06363636363636349,
                "tempo": 120.0
            },
            {
                "start_time": 7.027272727272727,
                "end_time": 7.084090909090909,
                "pitch": 34,
                "velocity": 101,
                "duration": 0.05681818181818166,
                "tempo": 120.0
            },
            {
                "start_time": 7.118181818181818,
                "end_time": 7.181818181818182,
                "pitch": 44,
                "velocity": 101,
                "duration": 0.06363636363636349,
                "tempo": 120.0
            },
            {
                "start_time": 7.220454545454545,
                "end_time": 7.277272727272727,
                "pitch": 34,
                "velocity": 101,
                "duration": 0.056818181818182545,
                "tempo": 120.0
            },
            {
                "start_time": 7.3159090909090905,
                "end_time": 7.372727272727272,
                "pitch": 46,
                "velocity": 101,
                "duration": 0.05681818181818166,
                "tempo": 120.0
            },
            {
                "start_time": 7.406818181818181,
                "end_time": 7.465909090909091,
                "pitch": 34,
                "velocity": 101,
                "duration": 0.05909090909090953,
                "tempo": 120.0
            },
            {
                "start_time": 7.504545454545454,
                "end_time": 7.561363636363636,
                "pitch": 32,
                "velocity": 101,
                "duration": 0.05681818181818166,
                "tempo": 120.0
            },
            {
                "start_time": 7.595454545454545,
                "end_time": 7.654545454545454,
                "pitch": 34,
                "velocity": 101,
                "duration": 0.05909090909090953,
                "tempo": 120.0
            },
            {
                "start_time": 7.6931818181818175,
                "end_time": 7.747727272727272,
                "pitch": 46,
                "velocity": 101,
                "duration": 0.054545454545454675,
                "tempo": 120.0
            },
            {
                "start_time": 7.779545454545454,
                "end_time": 7.838636363636363,
                "pitch": 34,
                "velocity": 101,
                "duration": 0.05909090909090864,
                "tempo": 120.0
            },
            {
                "start_time": 7.877272727272727,
                "end_time": 7.931818181818182,
                "pitch": 44,
                "velocity": 101,
                "duration": 0.054545454545454675,
                "tempo": 120.0
            },
            {
                "start_time": 7.968181818181818,
                "end_time": 8.027272727272727,
                "pitch": 46,
                "velocity": 101,
                "duration": 0.05909090909090953,
                "tempo": 120.0
            },
            {
                "start_time": 8.065909090909091,
                "end_time": 8.129545454545454,
                "pitch": 34,
                "velocity": 101,
                "duration": 0.0636363636363626,
                "tempo": 120.0
            },
            {
                "start_time": 8.165909090909091,
                "end_time": 8.23181818181818,
                "pitch": 34,
                "velocity": 101,
                "duration": 0.06590909090908958,
                "tempo": 120.0
            },
            {
                "start_time": 8.277272727272727,
                "end_time": 8.334090909090909,
                "pitch": 31,
                "velocity": 101,
                "duration": 0.05681818181818166,
                "tempo": 120.0
            },
            {
                "start_time": 8.379545454545454,
                "end_time": 8.434090909090909,
                "pitch": 31,
                "velocity": 101,
                "duration": 0.054545454545454675,
                "tempo": 120.0
            },
            {
                "start_time": 8.48409090909091,
                "end_time": 8.563636363636363,
                "pitch": 43,
                "velocity": 101,
                "duration": 0.07954545454545325,
                "tempo": 120.0
            },
            {
                "start_time": 8.620454545454544,
                "end_time": 8.7,
                "pitch": 31,
                "velocity": 101,
                "duration": 0.07954545454545503,
                "tempo": 120.0
            },
            {
                "start_time": 8.754545454545454,
                "end_time": 8.834090909090909,
                "pitch": 41,
                "velocity": 101,
                "duration": 0.07954545454545503,
                "tempo": 120.0
            },
            {
                "start_time": 8.89090909090909,
                "end_time": 8.970454545454546,
                "pitch": 31,
                "velocity": 101,
                "duration": 0.07954545454545503,
                "tempo": 120.0
            },
            {
                "start_time": 9.025,
                "end_time": 9.102272727272727,
                "pitch": 43,
                "velocity": 101,
                "duration": 0.07727272727272627,
                "tempo": 120.0
            },
            {
                "start_time": 9.147727272727272,
                "end_time": 9.213636363636363,
                "pitch": 31,
                "velocity": 101,
                "duration": 0.06590909090909136,
                "tempo": 120.0
            },
            {
                "start_time": 9.263636363636364,
                "end_time": 9.325,
                "pitch": 29,
                "velocity": 101,
                "duration": 0.06136363636363562,
                "tempo": 120.0
            },
            {
                "start_time": 9.375,
                "end_time": 9.436363636363636,
                "pitch": 31,
                "velocity": 101,
                "duration": 0.06136363636363562,
                "tempo": 120.0
            },
            {
                "start_time": 9.48181818181818,
                "end_time": 9.547727272727272,
                "pitch": 43,
                "velocity": 101,
                "duration": 0.06590909090909136,
                "tempo": 120.0
            },
            {
                "start_time": 9.597727272727273,
                "end_time": 9.663636363636364,
                "pitch": 31,
                "velocity": 101,
                "duration": 0.06590909090909136,
                "tempo": 120.0
            },
            {
                "start_time": 9.71590909090909,
                "end_time": 9.779545454545454,
                "pitch": 41,
                "velocity": 101,
                "duration": 0.06363636363636438,
                "tempo": 120.0
            },
            {
                "start_time": 9.836363636363636,
                "end_time": 9.918181818181818,
                "pitch": 43,
                "velocity": 101,
                "duration": 0.08181818181818201,
                "tempo": 120.0
            },
            {
                "start_time": 9.975,
                "end_time": 10.054545454545455,
                "pitch": 31,
                "velocity": 101,
                "duration": 0.07954545454545503,
                "tempo": 120.0
            },
            {
                "start_time": 10.111363636363636,
                "end_time": 10.259090909090908,
                "pitch": 29,
                "velocity": 101,
                "duration": 0.1477272727272716,
                "tempo": 120.0
            },
            {
                "start_time": 10.347727272727273,
                "end_time": 10.422727272727272,
                "pitch": 29,
                "velocity": 101,
                "duration": 0.07499999999999929,
                "tempo": 120.0
            },
            {
                "start_time": 10.475,
                "end_time": 10.549999999999999,
                "pitch": 41,
                "velocity": 101,
                "duration": 0.07499999999999929,
                "tempo": 120.0
            },
            {
                "start_time": 10.602272727272727,
                "end_time": 10.672727272727272,
                "pitch": 29,
                "velocity": 101,
                "duration": 0.07045454545454533,
                "tempo": 120.0
            },
            {
                "start_time": 10.713636363636363,
                "end_time": 10.777272727272727,
                "pitch": 36,
                "velocity": 101,
                "duration": 0.06363636363636438,
                "tempo": 120.0
            },
            {
                "start_time": 10.827272727272726,
                "end_time": 10.897727272727272,
                "pitch": 41,
                "velocity": 101,
                "duration": 0.07045454545454533,
                "tempo": 120.0
            },
            {
                "start_time": 10.947727272727272,
                "end_time": 11.002272727272727,
                "pitch": 29,
                "velocity": 101,
                "duration": 0.054545454545454675,
                "tempo": 120.0
            },
            {
                "start_time": 11.043181818181818,
                "end_time": 11.85909090909091,
                "pitch": 31,
                "velocity": 101,
                "duration": 0.8159090909090914,
                "tempo": 120.0
            },
            {
                "start_time": 11.98181818181818,
                "end_time": 13.56590909090909,
                "pitch": 0,
                "velocity": 127,
                "duration": 1.584090909090909,
                "tempo": 120.0
            }
        ]
    }
}