{
    "track_id": "09 Mission 3",
    "mood": "happy",
    "instruments": {
        "Electric Piano 1": [
            {
                "start_time": 0.006818181818181818,
                "end_time": 0.7068181818181818,
                "pitch": 60,
                "velocity": 40,
                "duration": 0.7,
                "tempo": 120.0
            },
            {
                "start_time": 0.7409090909090909,
                "end_time": 0.9909090909090909,
                "pitch": 64,
                "velocity": 40,
                "duration": 0.25,
                "tempo": 120.0
            },
            {
                "start_time": 0.9909090909090909,
                "end_time": 1.059090909090909,
                "pitch": 67,
                "velocity": 40,
                "duration": 0.06818181818181823,
                "tempo": 120.0
            },
            {
                "start_time": 1.059090909090909,
                "end_time": 1.1090909090909091,
                "pitch": 70,
                "velocity": 40,
                "duration": 0.050000000000000044,
                "tempo": 120.0
            },
            {
                "start_time": 1.1090909090909091,
                "end_time": 1.2704545454545455,
                "pitch": 72,
                "velocity": 40,
                "duration": 0.16136363636363638,
                "tempo": 120.0
            },
            {
                "start_time": 1.3045454545454545,
                "end_time": 2.377272727272727,
                "pitch": 71,
                "velocity": 40,
                "duration": 1.0727272727272725,
                "tempo": 120.0
            },
            {
                "start_time": 2.411363636363636,
                "end_time": 2.577272727272727,
                "pitch": 67,
                "velocity": 40,
                "duration": 0.165909090909091,
                "tempo": 120.0
            },
            {
                "start_time": 2.6113636363636363,
                "end_time": 2.7659090909090907,
                "pitch": 69,
                "velocity": 40,
                "duration": 0.15454545454545432,
                "tempo": 120.0
            },
            {
                "start_time": 2.8022727272727272,
                "end_time": 2.9568181818181816,
                "pitch": 71,
                "velocity": 40,
                "duration": 0.15454545454545432,
                "tempo": 120.0
            },
            {
                "start_time": 2.9909090909090907,
                "end_time": 3.5159090909090907,
                "pitch": 67,
                "velocity": 40,
                "duration": 0.5249999999999999,
                "tempo": 120.0
            },
            {
                "start_time": 3.55,
                "end_time": 4.068181818181818,
                "pitch": 69,
                "velocity": 40,
                "duration": 0.5181818181818185,
                "tempo": 120.0
            },
            {
                "start_time": 4.1,
                "end_time": 4.461363636363636,
                "pitch": 71,
                "velocity": 40,
                "duration": 0.36136363636363633,
                "tempo": 120.0
            },
            {
                "start_time": 4.495454545454545,
                "end_time": 5.388636363636364,
                "pitch": 65,
                "velocity": 40,
                "duration": 0.8931818181818185,
                "tempo": 120.0
            },
            {
                "start_time": 5.422727272727273,
                "end_time": 5.572727272727272,
                "pitch": 65,
                "velocity": 40,
                "duration": 0.14999999999999947,
                "tempo": 120.0
            },
            {
                "start_time": 5.6068181818181815,
                "end_time": 5.7704545454545455,
                "pitch": 67,
                "velocity": 40,
                "duration": 0.16363636363636402,
                "tempo": 120.0
            },
            {
                "start_time": 5.802272727272727,
                "end_time": 5.949999999999999,
                "pitch": 69,
                "velocity": 40,
                "duration": 0.14772727272727249,
                "tempo": 120.0
            },
            {
                "start_time": 5.9818181818181815,
                "end_time": 6.5227272727272725,
                "pitch": 67,
                "velocity": 40,
                "duration": 0.540909090909091,
                "tempo": 120.0
            },
            {
                "start_time": 6.556818181818182,
                "end_time": 7.454545454545454,
                "pitch": 62,
                "velocity": 40,
                "duration": 0.8977272727272725,
                "tempo": 120.0
            },
            {
                "start_time": 7.49090909090909,
                "end_time": 7.831818181818181,
                "pitch": 67,
                "velocity": 40,
                "duration": 0.34090909090909083,
                "tempo": 120.0
            },
            {
                "start_time": 7.863636363636363,
                "end_time": 8.21590909090909,
                "pitch": 62,
                "velocity": 40,
                "duration": 0.3522727272727266,
                "tempo": 120.0
            },
            {
                "start_time": 8.23409090909091,
                "end_time": 8.395454545454545,
                "pitch": 62,
                "velocity": 40,
                "duration": 0.16136363636363527,
                "tempo": 120.0
            },
            {
                "start_time": 8.429545454545455,
                "end_time": 8.759090909090908,
                "pitch": 65,
                "velocity": 40,
                "duration": 0.32954545454545325,
                "tempo": 120.0
            },
            {
                "start_time": 8.793181818181818,
                "end_time": 10.447727272727272,
                "pitch": 60,
                "velocity": 40,
                "duration": 1.6545454545454543,
                "tempo": 120.0
            },
            {
                "start_time": 10.479545454545454,
                "end_time": 11.954545454545453,
                "pitch": 56,
                "velocity": 40,
                "duration": 1.4749999999999996,
                "tempo": 120.0
            },
            {
                "start_time": 11.988636363636363,
                "end_time": 12.71590909090909,
                "pitch": 60,
                "velocity": 40,
                "duration": 0.7272727272727266,
                "tempo": 120.0
            },
            {
                "start_time": 12.75,
                "end_time": 12.899999999999999,
                "pitch": 64,
                "velocity": 40,
                "duration": 0.14999999999999858,
                "tempo": 120.0
            },
            {
                "start_time": 12.934090909090909,
                "end_time": 13.279545454545454,
                "pitch": 72,
                "velocity": 40,
                "duration": 0.3454545454545457,
                "tempo": 120.0
            },
            {
                "start_time": 13.297727272727272,
                "end_time": 14.386363636363635,
                "pitch": 71,
                "velocity": 40,
                "duration": 1.088636363636363,
                "tempo": 120.0
            },
            {
                "start_time": 14.420454545454545,
                "end_time": 14.588636363636363,
                "pitch": 67,
                "velocity": 40,
                "duration": 0.168181818181818,
                "tempo": 120.0
            },
            {
                "start_time": 14.604545454545454,
                "end_time": 14.772727272727272,
                "pitch": 69,
                "velocity": 40,
                "duration": 0.168181818181818,
                "tempo": 120.0
            },
            {
                "start_time": 14.806818181818182,
                "end_time": 14.95681818181818,
                "pitch": 71,
                "velocity": 40,
                "duration": 0.14999999999999858,
                "tempo": 120.0
            },
            {
                "start_time": 14.99090909090909,
                "end_time": 15.527272727272727,
                "pitch": 67,
                "velocity": 40,
                "duration": 0.536363636363637,
                "tempo": 120.0
            },
            {
                "start_time": 15.561363636363636,
                "end_time": 16.08863636363636,
                "pitch": 69,
                "velocity": 40,
                "duration": 0.5272727272727256,
                "tempo": 120.0
            },
            {
                "start_time": 16.120454545454546,
                "end_time": 16.472727272727273,
                "pitch": 71,
                "velocity": 40,
                "duration": 0.3522727272727266,
                "tempo": 120.0
            },
            {
                "start_time": 16.488636363636363,
                "end_time": 17.4,
                "pitch": 65,
                "velocity": 40,
                "duration": 0.9113636363636353,
                "tempo": 120.0
            },
            {
                "start_time": 17.43409090909091,
                "end_time": 17.584090909090907,
                "pitch": 65,
                "velocity": 40,
                "duration": 0.14999999999999858,
                "tempo": 120.0
            },
            {
                "start_time": 17.618181818181817,
                "end_time": 17.786363636363635,
                "pitch": 67,
                "velocity": 40,
                "duration": 0.168181818181818,
                "tempo": 120.0
            },
            {
                "start_time": 17.804545454545455,
                "end_time": 17.970454545454544,
                "pitch": 69,
                "velocity": 40,
                "duration": 0.16590909090908923,
                "tempo": 120.0
            },
            {
                "start_time": 18.004545454545454,
                "end_time": 18.536363636363635,
                "pitch": 67,
                "velocity": 40,
                "duration": 0.5318181818181813,
                "tempo": 120.0
            },
            {
                "start_time": 18.570454545454545,
                "end_time": 19.470454545454544,
                "pitch": 62,
                "velocity": 40,
                "duration": 0.8999999999999986,
                "tempo": 120.0
            },
            {
                "start_time": 19.504545454545454,
                "end_time": 19.845454545454544,
                "pitch": 67,
                "velocity": 40,
                "duration": 0.34090909090908994,
                "tempo": 120.0
            },
            {
                "start_time": 19.877272727272725,
                "end_time": 20.220454545454544,
                "pitch": 62,
                "velocity": 40,
                "duration": 0.3431818181818187,
                "tempo": 120.0
            },
            {
                "start_time": 20.25681818181818,
                "end_time": 20.413636363636364,
                "pitch": 62,
                "velocity": 40,
                "duration": 0.15681818181818485,
                "tempo": 120.0
            },
            {
                "start_time": 20.44772727272727,
                "end_time": 20.775,
                "pitch": 67,
                "velocity": 40,
                "duration": 0.32727272727272805,
                "tempo": 120.0
            },
            {
                "start_time": 20.80909090909091,
                "end_time": 23.977272727272727,
                "pitch": 64,
                "velocity": 40,
                "duration": 3.168181818181818,
                "tempo": 120.0
            },
            {
                "start_time": 24.011363636363637,
                "end_time": 24.174999999999997,
                "pitch": 65,
                "velocity": 40,
                "duration": 0.16363636363636047,
                "tempo": 120.0
            },
            {
                "start_time": 24.386363636363637,
                "end_time": 24.720454545454544,
                "pitch": 65,
                "velocity": 40,
                "duration": 0.3340909090909072,
                "tempo": 120.0
            },
            {
                "start_time": 24.95,
                "end_time": 25.095454545454544,
                "pitch": 65,
                "velocity": 40,
                "duration": 0.14545454545454461,
                "tempo": 120.0
            },
            {
                "start_time": 25.129545454545454,
                "end_time": 25.279545454545453,
                "pitch": 65,
                "velocity": 40,
                "duration": 0.14999999999999858,
                "tempo": 120.0
            },
            {
                "start_time": 25.313636363636363,
                "end_time": 25.661363636363635,
                "pitch": 67,
                "velocity": 40,
                "duration": 0.34772727272727266,
                "tempo": 120.0
            },
            {
                "start_time": 25.693181818181817,
                "end_time": 25.759090909090908,
                "pitch": 67,
                "velocity": 40,
                "duration": 0.06590909090909136,
                "tempo": 120.0
            },
            {
                "start_time": 25.775,
                "end_time": 25.84090909090909,
                "pitch": 67,
                "velocity": 40,
                "duration": 0.06590909090909136,
                "tempo": 120.0
            },
            {
                "start_time": 25.87272727272727,
                "end_time": 26.04090909090909,
                "pitch": 67,
                "velocity": 40,
                "duration": 0.168181818181818,
                "tempo": 120.0
            },
            {
                "start_time": 26.05681818181818,
                "end_time": 26.12272727272727,
                "pitch": 67,
                "velocity": 40,
                "duration": 0.06590909090909136,
                "tempo": 120.0
            },
            {
                "start_time": 26.15681818181818,
                "end_time": 26.224999999999998,
                "pitch": 67,
                "velocity": 40,
                "duration": 0.06818181818181657,
                "tempo": 120.0
            },
            {
                "start_time": 26.259090909090908,
                "end_time": 26.409090909090907,
                "pitch": 67,
                "velocity": 40,
                "duration": 0.14999999999999858,
                "tempo": 120.0
            },
            {
                "start_time": 26.443181818181817,
                "end_time": 26.509090909090908,
                "pitch": 67,
                "velocity": 40,
                "duration": 0.06590909090909136,
                "tempo": 120.0
            },
            {
                "start_time": 26.543181818181818,
                "end_time": 26.593181818181815,
                "pitch": 67,
                "velocity": 40,
                "duration": 0.04999999999999716,
                "tempo": 120.0
            },
            {
                "start_time": 26.627272727272725,
                "end_time": 26.79090909090909,
                "pitch": 67,
                "velocity": 40,
                "duration": 0.16363636363636402,
                "tempo": 120.0
            },
            {
                "start_time": 26.82272727272727,
                "end_time": 26.870454545454542,
                "pitch": 67,
                "velocity": 40,
                "duration": 0.04772727272727195,
                "tempo": 120.0
            },
            {
                "start_time": 26.904545454545453,
                "end_time": 26.968181818181815,
                "pitch": 67,
                "velocity": 40,
                "duration": 0.0636363636363626,
                "tempo": 120.0
            },
            {
                "start_time": 27.002272727272725,
                "end_time": 27.15681818181818,
                "pitch": 67,
                "velocity": 40,
                "duration": 0.1545454545454561,
                "tempo": 120.0
            },
            {
                "start_time": 27.379545454545454,
                "end_time": 27.71363636363636,
                "pitch": 67,
                "velocity": 40,
                "duration": 0.3340909090909072,
                "tempo": 120.0
            },
            {
                "start_time": 27.93409090909091,
                "end_time": 28.10681818181818,
                "pitch": 67,
                "velocity": 40,
                "duration": 0.17272727272727195,
                "tempo": 120.0
            },
            {
                "start_time": 28.14090909090909,
                "end_time": 28.29090909090909,
                "pitch": 67,
                "velocity": 40,
                "duration": 0.14999999999999858,
                "tempo": 120.0
            },
            {
                "start_time": 28.325,
                "end_time": 28.668181818181818,
                "pitch": 69,
                "velocity": 40,
                "duration": 0.3431818181818187,
                "tempo": 120.0
            },
            {
                "start_time": 28.7,
                "end_time": 28.74772727272727,
                "pitch": 69,
                "velocity": 40,
                "duration": 0.04772727272727195,
                "tempo": 120.0
            },
            {
                "start_time": 28.779545454545453,
                "end_time": 28.843181818181815,
                "pitch": 69,
                "velocity": 40,
                "duration": 0.0636363636363626,
                "tempo": 120.0
            },
            {
                "start_time": 28.875,
                "end_time": 29.029545454545453,
                "pitch": 69,
                "velocity": 40,
                "duration": 0.15454545454545254,
                "tempo": 120.0
            },
            {
                "start_time": 29.063636363636363,
                "end_time": 29.13181818181818,
                "pitch": 69,
                "velocity": 40,
                "duration": 0.06818181818181657,
                "tempo": 120.0
            },
            {
                "start_time": 29.168181818181818,
                "end_time": 29.236363636363635,
                "pitch": 69,
                "velocity": 40,
                "duration": 0.06818181818181657,
                "tempo": 120.0
            },
            {
                "start_time": 29.254545454545454,
                "end_time": 29.41590909090909,
                "pitch": 69,
                "velocity": 40,
                "duration": 0.16136363636363527,
                "tempo": 120.0
            },
            {
                "start_time": 29.45,
                "end_time": 29.49772727272727,
                "pitch": 69,
                "velocity": 40,
                "duration": 0.04772727272727195,
                "tempo": 120.0
            },
            {
                "start_time": 29.529545454545453,
                "end_time": 29.595454545454544,
                "pitch": 69,
                "velocity": 40,
                "duration": 0.06590909090909136,
                "tempo": 120.0
            },
            {
                "start_time": 29.627272727272725,
                "end_time": 29.779545454545453,
                "pitch": 69,
                "velocity": 40,
                "duration": 0.15227272727272734,
                "tempo": 120.0
            },
            {
                "start_time": 29.811363636363634,
                "end_time": 29.879545454545454,
                "pitch": 69,
                "velocity": 40,
                "duration": 0.06818181818182012,
                "tempo": 120.0
            },
            {
                "start_time": 29.91363636363636,
                "end_time": 29.979545454545452,
                "pitch": 69,
                "velocity": 40,
                "duration": 0.06590909090909136,
                "tempo": 120.0
            },
            {
                "start_time": 30.013636363636362,
                "end_time": 30.168181818181818,
                "pitch": 65,
                "velocity": 40,
                "duration": 0.1545454545454561,
                "tempo": 120.0
            },
            {
                "start_time": 30.393181818181816,
                "end_time": 30.724999999999998,
                "pitch": 65,
                "velocity": 40,
                "duration": 0.331818181818182,
                "tempo": 120.0
            },
            {
                "start_time": 30.945454545454545,
                "end_time": 31.099999999999998,
                "pitch": 65,
                "velocity": 40,
                "duration": 0.15454545454545254,
                "tempo": 120.0
            },
            {
                "start_time": 31.136363636363633,
                "end_time": 31.297727272727272,
                "pitch": 65,
                "velocity": 40,
                "duration": 0.16136363636363882,
                "tempo": 120.0
            },
            {
                "start_time": 31.331818181818182,
                "end_time": 31.65681818181818,
                "pitch": 67,
                "velocity": 40,
                "duration": 0.3249999999999993,
                "tempo": 120.0
            },
            {
                "start_time": 31.688636363636363,
                "end_time": 31.754545454545454,
                "pitch": 67,
                "velocity": 40,
                "duration": 0.06590909090909136,
                "tempo": 120.0
            },
            {
                "start_time": 31.786363636363635,
                "end_time": 31.852272727272727,
                "pitch": 67,
                "velocity": 40,
                "duration": 0.06590909090909136,
                "tempo": 120.0
            },
            {
                "start_time": 31.884090909090908,
                "end_time": 32.038636363636364,
                "pitch": 67,
                "velocity": 40,
                "duration": 0.1545454545454561,
                "tempo": 120.0
            },
            {
                "start_time": 32.07272727272727,
                "end_time": 32.143181818181816,
                "pitch": 67,
                "velocity": 40,
                "duration": 0.07045454545454533,
                "tempo": 120.0
            },
            {
                "start_time": 32.15909090909091,
                "end_time": 32.22727272727273,
                "pitch": 67,
                "velocity": 40,
                "duration": 0.06818181818182012,
                "tempo": 120.0
            },
            {
                "start_time": 32.263636363636365,
                "end_time": 32.425,
                "pitch": 67,
                "velocity": 40,
                "duration": 0.1613636363636317,
                "tempo": 120.0
            },
            {
                "start_time": 32.44318181818182,
                "end_time": 32.50681818181818,
                "pitch": 67,
                "velocity": 40,
                "duration": 0.0636363636363626,
                "tempo": 120.0
            },
            {
                "start_time": 32.54090909090909,
                "end_time": 32.60454545454545,
                "pitch": 67,
                "velocity": 40,
                "duration": 0.0636363636363626,
                "tempo": 120.0
            },
            {
                "start_time": 32.638636363636365,
                "end_time": 32.788636363636364,
                "pitch": 67,
                "velocity": 40,
                "duration": 0.14999999999999858,
                "tempo": 120.0
            },
            {
                "start_time": 32.82272727272727,
                "end_time": 32.888636363636365,
                "pitch": 67,
                "velocity": 40,
                "duration": 0.06590909090909491,
                "tempo": 120.0
            },
            {
                "start_time": 32.92272727272727,
                "end_time": 32.97272727272727,
                "pitch": 67,
                "velocity": 40,
                "duration": 0.04999999999999716,
                "tempo": 120.0
            },
            {
                "start_time": 33.00681818181818,
                "end_time": 33.168181818181814,
                "pitch": 67,
                "velocity": 40,
                "duration": 0.1613636363636317,
                "tempo": 120.0
            },
            {
                "start_time": 33.38181818181818,
                "end_time": 33.73181818181818,
                "pitch": 67,
                "velocity": 40,
                "duration": 0.3499999999999943,
                "tempo": 120.0
            },
            {
                "start_time": 33.945454545454545,
                "end_time": 34.090909090909086,
                "pitch": 67,
                "velocity": 40,
                "duration": 0.14545454545454106,
                "tempo": 120.0
            },
            {
                "start_time": 34.125,
                "end_time": 34.275,
                "pitch": 67,
                "velocity": 40,
                "duration": 0.14999999999999858,
                "tempo": 120.0
            },
            {
                "start_time": 34.309090909090905,
                "end_time": 34.66136363636363,
                "pitch": 68,
                "velocity": 40,
                "duration": 0.3522727272727266,
                "tempo": 120.0
            },
            {
                "start_time": 34.695454545454545,
                "end_time": 34.76136363636363,
                "pitch": 68,
                "velocity": 40,
                "duration": 0.06590909090908781,
                "tempo": 120.0
            },
            {
                "start_time": 34.79545454545455,
                "end_time": 34.845454545454544,
                "pitch": 68,
                "velocity": 40,
                "duration": 0.04999999999999716,
                "tempo": 120.0
            },
            {
                "start_time": 34.87954545454545,
                "end_time": 35.04772727272727,
                "pitch": 68,
                "velocity": 40,
                "duration": 0.16818181818182154,
                "tempo": 120.0
            },
            {
                "start_time": 35.08181818181818,
                "end_time": 35.13181818181818,
                "pitch": 68,
                "velocity": 40,
                "duration": 0.05000000000000426,
                "tempo": 120.0
            },
            {
                "start_time": 35.163636363636364,
                "end_time": 35.23181818181818,
                "pitch": 68,
                "velocity": 40,
                "duration": 0.06818181818181301,
                "tempo": 120.0
            },
            {
                "start_time": 35.26590909090909,
                "end_time": 35.41590909090909,
                "pitch": 68,
                "velocity": 40,
                "duration": 0.14999999999999858,
                "tempo": 120.0
            },
            {
                "start_time": 35.449999999999996,
                "end_time": 35.51590909090909,
                "pitch": 68,
                "velocity": 40,
                "duration": 0.06590909090909491,
                "tempo": 120.0
            },
            {
                "start_time": 35.55,
                "end_time": 35.61818181818182,
                "pitch": 68,
                "velocity": 40,
                "duration": 0.06818181818182012,
                "tempo": 120.0
            },
            {
                "start_time": 35.63409090909091,
                "end_time": 35.793181818181814,
                "pitch": 68,
                "velocity": 40,
                "duration": 0.1590909090909065,
                "tempo": 120.0
            },
            {
                "start_time": 35.824999999999996,
                "end_time": 35.87272727272727,
                "pitch": 68,
                "velocity": 40,
                "duration": 0.04772727272727195,
                "tempo": 120.0
            },
            {
                "start_time": 35.904545454545456,
                "end_time": 35.96818181818182,
                "pitch": 68,
                "velocity": 40,
                "duration": 0.0636363636363626,
                "tempo": 120.0
            },
            {
                "start_time": 36.0,
                "end_time": 36.154545454545456,
                "pitch": 64,
                "velocity": 40,
                "duration": 0.1545454545454561,
                "tempo": 120.0
            },
            {
                "start_time": 36.18863636363636,
                "end_time": 36.361363636363635,
                "pitch": 69,
                "velocity": 40,
                "duration": 0.17272727272727195,
                "tempo": 120.0
            },
            {
                "start_time": 36.39545454545454,
                "end_time": 36.61363636363636,
                "pitch": 72,
                "velocity": 40,
                "duration": 0.2181818181818187,
                "tempo": 120.0
            },
            {
                "start_time": 36.61363636363636,
                "end_time": 36.679545454545455,
                "pitch": 74,
                "velocity": 40,
                "duration": 0.06590909090909491,
                "tempo": 120.0
            },
            {
                "start_time": 1.1090909090909091,
                "end_time": 37.48181818181818,
                "pitch": 76,
                "velocity": 40,
                "duration": 36.37272727272727,
                "tempo": 120.0
            },
            {
                "start_time": 36.679545454545455,
                "end_time": 37.48181818181818,
                "pitch": 76,
                "velocity": 40,
                "duration": 0.8022727272727224,
                "tempo": 120.0
            },
            {
                "start_time": 37.518181818181816,
                "end_time": 37.57954545454545,
                "pitch": 76,
                "velocity": 40,
                "duration": 0.0613636363636374,
                "tempo": 120.0
            },
            {
                "start_time": 37.611363636363635,
                "end_time": 37.675,
                "pitch": 69,
                "velocity": 40,
                "duration": 0.0636363636363626,
                "tempo": 120.0
            },
            {
                "start_time": 37.70681818181818,
                "end_time": 37.75454545454545,
                "pitch": 69,
                "velocity": 40,
                "duration": 0.04772727272727195,
                "tempo": 120.0
            },
            {
                "start_time": 37.78636363636363,
                "end_time": 37.85,
                "pitch": 74,
                "velocity": 40,
                "duration": 0.06363636363636971,
                "tempo": 120.0
            },
            {
                "start_time": 37.88181818181818,
                "end_time": 37.94772727272727,
                "pitch": 69,
                "velocity": 40,
                "duration": 0.06590909090908781,
                "tempo": 120.0
            },
            {
                "start_time": 37.98181818181818,
                "end_time": 38.03181818181818,
                "pitch": 69,
                "velocity": 40,
                "duration": 0.05000000000000426,
                "tempo": 120.0
            },
            {
                "start_time": 38.06590909090909,
                "end_time": 38.13409090909091,
                "pitch": 72,
                "velocity": 40,
                "duration": 0.06818181818182012,
                "tempo": 120.0
            },
            {
                "start_time": 38.168181818181814,
                "end_time": 38.23409090909091,
                "pitch": 69,
                "velocity": 40,
                "duration": 0.06590909090909491,
                "tempo": 120.0
            },
            {
                "start_time": 38.268181818181816,
                "end_time": 38.31818181818181,
                "pitch": 69,
                "velocity": 40,
                "duration": 0.04999999999999716,
                "tempo": 120.0
            },
            {
                "start_time": 38.35454545454545,
                "end_time": 38.42272727272727,
                "pitch": 74,
                "velocity": 40,
                "duration": 0.06818181818182012,
                "tempo": 120.0
            },
            {
                "start_time": 38.45681818181818,
                "end_time": 38.527272727272724,
                "pitch": 69,
                "velocity": 40,
                "duration": 0.07045454545454533,
                "tempo": 120.0
            },
            {
                "start_time": 38.543181818181814,
                "end_time": 38.611363636363635,
                "pitch": 69,
                "velocity": 40,
                "duration": 0.06818181818182012,
                "tempo": 120.0
            },
            {
                "start_time": 38.64545454545454,
                "end_time": 38.709090909090904,
                "pitch": 76,
                "velocity": 40,
                "duration": 0.0636363636363626,
                "tempo": 120.0
            },
            {
                "start_time": 38.74090909090909,
                "end_time": 38.804545454545455,
                "pitch": 69,
                "velocity": 40,
                "duration": 0.0636363636363626,
                "tempo": 120.0
            },
            {
                "start_time": 38.820454545454545,
                "end_time": 38.88409090909091,
                "pitch": 71,
                "velocity": 40,
                "duration": 0.0636363636363626,
                "tempo": 120.0
            },
            {
                "start_time": 38.91590909090909,
                "end_time": 38.97954545454545,
                "pitch": 72,
                "velocity": 40,
                "duration": 0.0636363636363626,
                "tempo": 120.0
            },
            {
                "start_time": 39.01136363636363,
                "end_time": 39.16590909090909,
                "pitch": 64,
                "velocity": 40,
                "duration": 0.1545454545454561,
                "tempo": 120.0
            },
            {
                "start_time": 39.199999999999996,
                "end_time": 39.35454545454545,
                "pitch": 69,
                "velocity": 40,
                "duration": 0.1545454545454561,
                "tempo": 120.0
            },
            {
                "start_time": 39.39090909090909,
                "end_time": 39.60227272727273,
                "pitch": 72,
                "velocity": 40,
                "duration": 0.21136363636363598,
                "tempo": 120.0
            },
            {
                "start_time": 39.60227272727273,
                "end_time": 39.66590909090909,
                "pitch": 74,
                "velocity": 40,
                "duration": 0.0636363636363626,
                "tempo": 120.0
            },
            {
                "start_time": 39.66590909090909,
                "end_time": 40.475,
                "pitch": 76,
                "velocity": 40,
                "duration": 0.8090909090909122,
                "tempo": 120.0
            },
            {
                "start_time": 40.50909090909091,
                "end_time": 40.574999999999996,
                "pitch": 76,
                "velocity": 40,
                "duration": 0.06590909090908781,
                "tempo": 120.0
            },
            {
                "start_time": 40.60909090909091,
                "end_time": 40.65909090909091,
                "pitch": 69,
                "velocity": 40,
                "duration": 0.04999999999999716,
                "tempo": 120.0
            },
            {
                "start_time": 40.69318181818181,
                "end_time": 40.75909090909091,
                "pitch": 69,
                "velocity": 40,
                "duration": 0.06590909090909491,
                "tempo": 120.0
            },
            {
                "start_time": 40.793181818181814,
                "end_time": 40.85909090909091,
                "pitch": 74,
                "velocity": 40,
                "duration": 0.06590909090909491,
                "tempo": 120.0
            },
            {
                "start_time": 40.893181818181816,
                "end_time": 40.945454545454545,
                "pitch": 69,
                "velocity": 40,
                "duration": 0.05227272727272947,
                "tempo": 120.0
            },
            {
                "start_time": 40.97954545454545,
                "end_time": 41.04772727272727,
                "pitch": 69,
                "velocity": 40,
                "duration": 0.06818181818182012,
                "tempo": 120.0
            },
            {
                "start_time": 41.08181818181818,
                "end_time": 41.152272727272724,
                "pitch": 72,
                "velocity": 40,
                "duration": 0.07045454545454533,
                "tempo": 120.0
            },
            {
                "start_time": 41.18636363636364,
                "end_time": 41.23863636363636,
                "pitch": 69,
                "velocity": 40,
                "duration": 0.052272727272722364,
                "tempo": 120.0
            },
            {
                "start_time": 41.27272727272727,
                "end_time": 41.336363636363636,
                "pitch": 69,
                "velocity": 40,
                "duration": 0.0636363636363626,
                "tempo": 120.0
            },
            {
                "start_time": 41.36818181818182,
                "end_time": 41.43181818181818,
                "pitch": 74,
                "velocity": 40,
                "duration": 0.0636363636363626,
                "tempo": 120.0
            },
            {
                "start_time": 41.46363636363636,
                "end_time": 41.51136363636363,
                "pitch": 69,
                "velocity": 40,
                "duration": 0.04772727272727195,
                "tempo": 120.0
            },
            {
                "start_time": 41.543181818181814,
                "end_time": 41.60454545454545,
                "pitch": 69,
                "velocity": 40,
                "duration": 0.0613636363636374,
                "tempo": 120.0
            },
            {
                "start_time": 41.63863636363636,
                "end_time": 41.70454545454545,
                "pitch": 76,
                "velocity": 40,
                "duration": 0.06590909090909491,
                "tempo": 120.0
            },
            {
                "start_time": 41.72272727272727,
                "end_time": 41.79090909090909,
                "pitch": 69,
                "velocity": 40,
                "duration": 0.06818181818182012,
                "tempo": 120.0
            },
            {
                "start_time": 41.82727272727273,
                "end_time": 41.89545454545454,
                "pitch": 71,
                "velocity": 40,
                "duration": 0.06818181818181301,
                "tempo": 120.0
            },
            {
                "start_time": 41.929545454545455,
                "end_time": 41.99772727272727,
                "pitch": 72,
                "velocity": 40,
                "duration": 0.06818181818181301,
                "tempo": 120.0
            },
            {
                "start_time": 42.01590909090909,
                "end_time": 42.179545454545455,
                "pitch": 64,
                "velocity": 40,
                "duration": 0.16363636363636402,
                "tempo": 120.0
            },
            {
                "start_time": 42.211363636363636,
                "end_time": 42.35681818181818,
                "pitch": 69,
                "velocity": 40,
                "duration": 0.14545454545454106,
                "tempo": 120.0
            },
            {
                "start_time": 42.39090909090909,
                "end_time": 42.60909090909091,
                "pitch": 72,
                "velocity": 40,
                "duration": 0.2181818181818187,
                "tempo": 120.0
            },
            {
                "start_time": 42.60909090909091,
                "end_time": 42.675,
                "pitch": 74,
                "velocity": 40,
                "duration": 0.06590909090908781,
                "tempo": 120.0
            },
            {
                "start_time": 42.675,
                "end_time": 43.486363636363635,
                "pitch": 76,
                "velocity": 40,
                "duration": 0.8113636363636374,
                "tempo": 120.0
            },
            {
                "start_time": 43.52045454545454,
                "end_time": 43.586363636363636,
                "pitch": 76,
                "velocity": 40,
                "duration": 0.06590909090909491,
                "tempo": 120.0
            },
            {
                "start_time": 43.60227272727273,
                "end_time": 43.67045454545455,
                "pitch": 69,
                "velocity": 40,
                "duration": 0.06818181818182012,
                "tempo": 120.0
            },
            {
                "start_time": 43.70454545454545,
                "end_time": 43.77045454545454,
                "pitch": 69,
                "velocity": 40,
                "duration": 0.06590909090908781,
                "tempo": 120.0
            },
            {
                "start_time": 43.804545454545455,
                "end_time": 43.85454545454545,
                "pitch": 74,
                "velocity": 40,
                "duration": 0.04999999999999716,
                "tempo": 120.0
            },
            {
                "start_time": 43.88863636363636,
                "end_time": 43.95454545454545,
                "pitch": 69,
                "velocity": 40,
                "duration": 0.06590909090909491,
                "tempo": 120.0
            },
            {
                "start_time": 43.986363636363635,
                "end_time": 44.05227272727272,
                "pitch": 69,
                "velocity": 40,
                "duration": 0.06590909090908781,
                "tempo": 120.0
            },
            {
                "start_time": 44.084090909090904,
                "end_time": 44.13181818181818,
                "pitch": 72,
                "velocity": 40,
                "duration": 0.04772727272727906,
                "tempo": 120.0
            },
            {
                "start_time": 44.16590909090909,
                "end_time": 44.22954545454545,
                "pitch": 69,
                "velocity": 40,
                "duration": 0.0636363636363626,
                "tempo": 120.0
            },
            {
                "start_time": 44.26363636363636,
                "end_time": 44.32954545454545,
                "pitch": 69,
                "velocity": 40,
                "duration": 0.06590909090909491,
                "tempo": 120.0
            },
            {
                "start_time": 44.36363636363636,
                "end_time": 44.413636363636364,
                "pitch": 74,
                "velocity": 40,
                "duration": 0.05000000000000426,
                "tempo": 120.0
            },
            {
                "start_time": 44.44772727272727,
                "end_time": 44.51363636363636,
                "pitch": 69,
                "velocity": 40,
                "duration": 0.06590909090908781,
                "tempo": 120.0
            },
            {
                "start_time": 44.54772727272727,
                "end_time": 44.61590909090909,
                "pitch": 69,
                "velocity": 40,
                "duration": 0.06818181818182012,
                "tempo": 120.0
            },
            {
                "start_time": 44.64772727272727,
                "end_time": 44.699999999999996,
                "pitch": 76,
                "velocity": 40,
                "duration": 0.052272727272722364,
                "tempo": 120.0
            },
            {
                "start_time": 44.73409090909091,
                "end_time": 44.80227272727272,
                "pitch": 69,
                "velocity": 40,
                "duration": 0.06818181818181301,
                "tempo": 120.0
            },
            {
                "start_time": 44.83863636363636,
                "end_time": 44.90681818181818,
                "pitch": 71,
                "velocity": 40,
                "duration": 0.06818181818182012,
                "tempo": 120.0
            },
            {
                "start_time": 44.925,
                "end_time": 44.99318181818182,
                "pitch": 72,
                "velocity": 40,
                "duration": 0.06818181818182012,
                "tempo": 120.0
            },
            {
                "start_time": 45.027272727272724,
                "end_time": 45.19090909090909,
                "pitch": 64,
                "velocity": 40,
                "duration": 0.16363636363636402,
                "tempo": 120.0
            },
            {
                "start_time": 45.20681818181818,
                "end_time": 45.36818181818182,
                "pitch": 68,
                "velocity": 40,
                "duration": 0.16136363636363882,
                "tempo": 120.0
            },
            {
                "start_time": 45.402272727272724,
                "end_time": 45.62045454545454,
                "pitch": 72,
                "velocity": 40,
                "duration": 0.2181818181818187,
                "tempo": 120.0
            },
            {
                "start_time": 45.62045454545454,
                "end_time": 45.68636363636364,
                "pitch": 74,
                "velocity": 40,
                "duration": 0.06590909090909491,
                "tempo": 120.0
            },
            {
                "start_time": 45.68636363636364,
                "end_time": 46.49772727272727,
                "pitch": 76,
                "velocity": 40,
                "duration": 0.8113636363636303,
                "tempo": 120.0
            },
            {
                "start_time": 46.51363636363636,
                "end_time": 46.57954545454545,
                "pitch": 76,
                "velocity": 40,
                "duration": 0.06590909090909491,
                "tempo": 120.0
            },
            {
                "start_time": 46.611363636363635,
                "end_time": 46.67727272727272,
                "pitch": 68,
                "velocity": 40,
                "duration": 0.06590909090908781,
                "tempo": 120.0
            },
            {
                "start_time": 46.709090909090904,
                "end_time": 46.775,
                "pitch": 68,
                "velocity": 40,
                "duration": 0.06590909090909491,
                "tempo": 120.0
            },
            {
                "start_time": 46.79090909090909,
                "end_time": 46.85681818181818,
                "pitch": 74,
                "velocity": 40,
                "duration": 0.06590909090908781,
                "tempo": 120.0
            },
            {
                "start_time": 46.88863636363636,
                "end_time": 46.95454545454545,
                "pitch": 68,
                "velocity": 40,
                "duration": 0.06590909090909491,
                "tempo": 120.0
            },
            {
                "start_time": 46.98863636363636,
                "end_time": 47.038636363636364,
                "pitch": 68,
                "velocity": 40,
                "duration": 0.05000000000000426,
                "tempo": 120.0
            },
            {
                "start_time": 47.07272727272727,
                "end_time": 47.14090909090909,
                "pitch": 72,
                "velocity": 40,
                "duration": 0.06818181818182012,
                "tempo": 120.0
            },
            {
                "start_time": 47.175,
                "end_time": 47.24090909090909,
                "pitch": 68,
                "velocity": 40,
                "duration": 0.06590909090909491,
                "tempo": 120.0
            },
            {
                "start_time": 47.275,
                "end_time": 47.324999999999996,
                "pitch": 68,
                "velocity": 40,
                "duration": 0.04999999999999716,
                "tempo": 120.0
            },
            {
                "start_time": 47.35909090909091,
                "end_time": 47.425,
                "pitch": 74,
                "velocity": 40,
                "duration": 0.06590909090908781,
                "tempo": 120.0
            },
            {
                "start_time": 47.459090909090904,
                "end_time": 47.525,
                "pitch": 68,
                "velocity": 40,
                "duration": 0.06590909090909491,
                "tempo": 120.0
            },
            {
                "start_time": 47.559090909090905,
                "end_time": 47.60909090909091,
                "pitch": 68,
                "velocity": 40,
                "duration": 0.05000000000000426,
                "tempo": 120.0
            },
            {
                "start_time": 47.643181818181816,
                "end_time": 47.709090909090904,
                "pitch": 76,
                "velocity": 40,
                "duration": 0.06590909090908781,
                "tempo": 120.0
            },
            {
                "start_time": 47.74090909090909,
                "end_time": 47.80681818181818,
                "pitch": 68,
                "velocity": 40,
                "duration": 0.06590909090908781,
                "tempo": 120.0
            },
            {
                "start_time": 47.83863636363636,
                "end_time": 47.88863636363636,
                "pitch": 71,
                "velocity": 40,
                "duration": 0.04999999999999716,
                "tempo": 120.0
            },
            {
                "start_time": 47.92045454545454,
                "end_time": 47.986363636363635,
                "pitch": 74,
                "velocity": 40,
                "duration": 0.06590909090909491,
                "tempo": 120.0
            },
            {
                "start_time": 48.018181818181816,
                "end_time": 48.17272727272727,
                "pitch": 64,
                "velocity": 40,
                "duration": 0.1545454545454561,
                "tempo": 120.0
            },
            {
                "start_time": 48.20681818181818,
                "end_time": 48.37954545454545,
                "pitch": 69,
                "velocity": 40,
                "duration": 0.17272727272727195,
                "tempo": 120.0
            },
            {
                "start_time": 48.39772727272727,
                "end_time": 48.61818181818182,
                "pitch": 72,
                "velocity": 40,
                "duration": 0.2204545454545439,
                "tempo": 120.0
            },
            {
                "start_time": 48.61818181818182,
                "end_time": 48.66590909090909,
                "pitch": 74,
                "velocity": 40,
                "duration": 0.04772727272727195,
                "tempo": 120.0
            },
            {
                "start_time": 48.66590909090909,
                "end_time": 49.490909090909085,
                "pitch": 76,
                "velocity": 40,
                "duration": 0.8249999999999957,
                "tempo": 120.0
            },
            {
                "start_time": 49.527272727272724,
                "end_time": 49.590909090909086,
                "pitch": 76,
                "velocity": 40,
                "duration": 0.0636363636363626,
                "tempo": 120.0
            },
            {
                "start_time": 49.625,
                "end_time": 49.68863636363636,
                "pitch": 69,
                "velocity": 40,
                "duration": 0.0636363636363626,
                "tempo": 120.0
            },
            {
                "start_time": 49.70454545454545,
                "end_time": 49.77045454545454,
                "pitch": 69,
                "velocity": 40,
                "duration": 0.06590909090908781,
                "tempo": 120.0
            },
            {
                "start_time": 49.80227272727272,
                "end_time": 49.86818181818182,
                "pitch": 74,
                "velocity": 40,
                "duration": 0.06590909090909491,
                "tempo": 120.0
            },
            {
                "start_time": 49.9,
                "end_time": 49.96818181818182,
                "pitch": 69,
                "velocity": 40,
                "duration": 0.06818181818182012,
                "tempo": 120.0
            },
            {
                "start_time": 49.98409090909091,
                "end_time": 50.05227272727272,
                "pitch": 69,
                "velocity": 40,
                "duration": 0.06818181818181301,
                "tempo": 120.0
            },
            {
                "start_time": 50.084090909090904,
                "end_time": 50.152272727272724,
                "pitch": 72,
                "velocity": 40,
                "duration": 0.06818181818182012,
                "tempo": 120.0
            },
            {
                "start_time": 50.18636363636364,
                "end_time": 50.236363636363635,
                "pitch": 69,
                "velocity": 40,
                "duration": 0.04999999999999716,
                "tempo": 120.0
            },
            {
                "start_time": 50.27045454545454,
                "end_time": 50.334090909090904,
                "pitch": 69,
                "velocity": 40,
                "duration": 0.0636363636363626,
                "tempo": 120.0
            },
            {
                "start_time": 50.36818181818182,
                "end_time": 50.43181818181818,
                "pitch": 74,
                "velocity": 40,
                "duration": 0.0636363636363626,
                "tempo": 120.0
            },
            {
                "start_time": 50.465909090909086,
                "end_time": 50.51363636363636,
                "pitch": 69,
                "velocity": 40,
                "duration": 0.04772727272727195,
                "tempo": 120.0
            },
            {
                "start_time": 50.54545454545454,
                "end_time": 50.611363636363635,
                "pitch": 69,
                "velocity": 40,
                "duration": 0.06590909090909491,
                "tempo": 120.0
            },
            {
                "start_time": 50.643181818181816,
                "end_time": 50.711363636363636,
                "pitch": 76,
                "velocity": 40,
                "duration": 0.06818181818182012,
                "tempo": 120.0
            },
            {
                "start_time": 50.74545454545454,
                "end_time": 50.79545454545454,
                "pitch": 69,
                "velocity": 40,
                "duration": 0.04999999999999716,
                "tempo": 120.0
            },
            {
                "start_time": 50.82954545454545,
                "end_time": 50.89545454545454,
                "pitch": 71,
                "velocity": 40,
                "duration": 0.06590909090908781,
                "tempo": 120.0
            },
            {
                "start_time": 50.929545454545455,
                "end_time": 50.99545454545454,
                "pitch": 72,
                "velocity": 40,
                "duration": 0.06590909090908781,
                "tempo": 120.0
            },
            {
                "start_time": 51.02954545454545,
                "end_time": 51.184090909090905,
                "pitch": 64,
                "velocity": 40,
                "duration": 0.1545454545454561,
                "tempo": 120.0
            },
            {
                "start_time": 51.21818181818182,
                "end_time": 51.375,
                "pitch": 69,
                "velocity": 40,
                "duration": 0.1568181818181813,
                "tempo": 120.0
            },
            {
                "start_time": 51.40909090909091,
                "end_time": 51.615909090909085,
                "pitch": 72,
                "velocity": 40,
                "duration": 0.20681818181817846,
                "tempo": 120.0
            },
            {
                "start_time": 51.615909090909085,
                "end_time": 51.679545454545455,
                "pitch": 74,
                "velocity": 40,
                "duration": 0.06363636363636971,
                "tempo": 120.0
            },
            {
                "start_time": 51.679545454545455,
                "end_time": 52.48409090909091,
                "pitch": 76,
                "velocity": 40,
                "duration": 0.8045454545454547,
                "tempo": 120.0
            },
            {
                "start_time": 52.518181818181816,
                "end_time": 52.586363636363636,
                "pitch": 76,
                "velocity": 40,
                "duration": 0.06818181818182012,
                "tempo": 120.0
            },
            {
                "start_time": 52.62045454545454,
                "end_time": 52.67045454545454,
                "pitch": 69,
                "velocity": 40,
                "duration": 0.04999999999999716,
                "tempo": 120.0
            },
            {
                "start_time": 52.70681818181818,
                "end_time": 52.775,
                "pitch": 69,
                "velocity": 40,
                "duration": 0.06818181818182012,
                "tempo": 120.0
            },
            {
                "start_time": 52.809090909090905,
                "end_time": 52.877272727272725,
                "pitch": 74,
                "velocity": 40,
                "duration": 0.06818181818182012,
                "tempo": 120.0
            },
            {
                "start_time": 52.89545454545454,
                "end_time": 52.959090909090904,
                "pitch": 69,
                "velocity": 40,
                "duration": 0.0636363636363626,
                "tempo": 120.0
            },
            {
                "start_time": 52.990909090909085,
                "end_time": 53.054545454545455,
                "pitch": 69,
                "velocity": 40,
                "duration": 0.06363636363636971,
                "tempo": 120.0
            },
            {
                "start_time": 53.086363636363636,
                "end_time": 53.15,
                "pitch": 72,
                "velocity": 40,
                "duration": 0.0636363636363626,
                "tempo": 120.0
            },
            {
                "start_time": 53.16590909090909,
                "end_time": 53.22954545454545,
                "pitch": 69,
                "velocity": 40,
                "duration": 0.0636363636363626,
                "tempo": 120.0
            },
            {
                "start_time": 53.26136363636363,
                "end_time": 53.32954545454545,
                "pitch": 69,
                "velocity": 40,
                "duration": 0.06818181818182012,
                "tempo": 120.0
            },
            {
                "start_time": 53.36363636363636,
                "end_time": 53.413636363636364,
                "pitch": 74,
                "velocity": 40,
                "duration": 0.05000000000000426,
                "tempo": 120.0
            },
            {
                "start_time": 53.449999999999996,
                "end_time": 53.518181818181816,
                "pitch": 69,
                "velocity": 40,
                "duration": 0.06818181818182012,
                "tempo": 120.0
            },
            {
                "start_time": 53.55227272727272,
                "end_time": 53.62045454545454,
                "pitch": 69,
                "velocity": 40,
                "duration": 0.06818181818182012,
                "tempo": 120.0
            },
            {
                "start_time": 53.65681818181818,
                "end_time": 53.70681818181818,
                "pitch": 76,
                "velocity": 40,
                "duration": 0.04999999999999716,
                "tempo": 120.0
            },
            {
                "start_time": 53.740909090909085,
                "end_time": 53.80681818181818,
                "pitch": 69,
                "velocity": 40,
                "duration": 0.06590909090909491,
                "tempo": 120.0
            },
            {
                "start_time": 53.840909090909086,
                "end_time": 53.90681818181818,
                "pitch": 71,
                "velocity": 40,
                "duration": 0.06590909090909491,
                "tempo": 120.0
            },
            {
                "start_time": 53.94090909090909,
                "end_time": 53.990909090909085,
                "pitch": 72,
                "velocity": 40,
                "duration": 0.04999999999999716,
                "tempo": 120.0
            },
            {
                "start_time": 54.027272727272724,
                "end_time": 54.18863636363636,
                "pitch": 64,
                "velocity": 40,
                "duration": 0.16136363636363882,
                "tempo": 120.0
            },
            {
                "start_time": 54.220454545454544,
                "end_time": 54.365909090909085,
                "pitch": 69,
                "velocity": 40,
                "duration": 0.14545454545454106,
                "tempo": 120.0
            },
            {
                "start_time": 54.4,
                "end_time": 54.61818181818182,
                "pitch": 72,
                "velocity": 40,
                "duration": 0.2181818181818187,
                "tempo": 120.0
            },
            {
                "start_time": 54.61818181818182,
                "end_time": 54.684090909090905,
                "pitch": 74,
                "velocity": 40,
                "duration": 0.06590909090908781,
                "tempo": 120.0
            },
            {
                "start_time": 54.684090909090905,
                "end_time": 55.50454545454545,
                "pitch": 76,
                "velocity": 40,
                "duration": 0.8204545454545453,
                "tempo": 120.0
            },
            {
                "start_time": 55.538636363636364,
                "end_time": 55.58863636363636,
                "pitch": 76,
                "velocity": 40,
                "duration": 0.04999999999999716,
                "tempo": 120.0
            },
            {
                "start_time": 55.62272727272727,
                "end_time": 55.68863636363636,
                "pitch": 69,
                "velocity": 40,
                "duration": 0.06590909090909491,
                "tempo": 120.0
            },
            {
                "start_time": 55.72272727272727,
                "end_time": 55.79090909090909,
                "pitch": 69,
                "velocity": 40,
                "duration": 0.06818181818182012,
                "tempo": 120.0
            },
            {
                "start_time": 55.82272727272727,
                "end_time": 55.875,
                "pitch": 74,
                "velocity": 40,
                "duration": 0.05227272727272947,
                "tempo": 120.0
            },
            {
                "start_time": 55.90681818181818,
                "end_time": 55.970454545454544,
                "pitch": 69,
                "velocity": 40,
                "duration": 0.0636363636363626,
                "tempo": 120.0
            },
            {
                "start_time": 56.002272727272725,
                "end_time": 56.06590909090909,
                "pitch": 69,
                "velocity": 40,
                "duration": 0.0636363636363626,
                "tempo": 120.0
            },
            {
                "start_time": 56.08181818181818,
                "end_time": 56.14545454545454,
                "pitch": 72,
                "velocity": 40,
                "duration": 0.0636363636363626,
                "tempo": 120.0
            },
            {
                "start_time": 56.17727272727272,
                "end_time": 56.240909090909085,
                "pitch": 69,
                "velocity": 40,
                "duration": 0.0636363636363626,
                "tempo": 120.0
            },
            {
                "start_time": 56.27272727272727,
                "end_time": 56.340909090909086,
                "pitch": 69,
                "velocity": 40,
                "duration": 0.06818181818181301,
                "tempo": 120.0
            },
            {
                "start_time": 56.35909090909091,
                "end_time": 56.42727272727272,
                "pitch": 74,
                "velocity": 40,
                "duration": 0.06818181818181301,
                "tempo": 120.0
            },
            {
                "start_time": 56.461363636363636,
                "end_time": 56.53181818181818,
                "pitch": 69,
                "velocity": 40,
                "duration": 0.07045454545454533,
                "tempo": 120.0
            },
            {
                "start_time": 56.56590909090909,
                "end_time": 56.615909090909085,
                "pitch": 69,
                "velocity": 40,
                "duration": 0.04999999999999716,
                "tempo": 120.0
            },
            {
                "start_time": 56.65,
                "end_time": 56.71363636363636,
                "pitch": 76,
                "velocity": 40,
                "duration": 0.0636363636363626,
                "tempo": 120.0
            },
            {
                "start_time": 56.74545454545454,
                "end_time": 56.809090909090905,
                "pitch": 69,
                "velocity": 40,
                "duration": 0.0636363636363626,
                "tempo": 120.0
            },
            {
                "start_time": 56.840909090909086,
                "end_time": 56.88863636363636,
                "pitch": 71,
                "velocity": 40,
                "duration": 0.04772727272727195,
                "tempo": 120.0
            },
            {
                "start_time": 56.92045454545454,
                "end_time": 56.98409090909091,
                "pitch": 72,
                "velocity": 40,
                "duration": 0.06363636363636971,
                "tempo": 120.0
            },
            {
                "start_time": 57.01590909090909,
                "end_time": 57.17045454545454,
                "pitch": 64,
                "velocity": 40,
                "duration": 0.154545454545449,
                "tempo": 120.0
            },
            {
                "start_time": 57.20454545454545,
                "end_time": 57.377272727272725,
                "pitch": 68,
                "velocity": 40,
                "duration": 0.17272727272727195,
                "tempo": 120.0
            },
            {
                "start_time": 57.41136363636363,
                "end_time": 57.62954545454545,
                "pitch": 72,
                "velocity": 40,
                "duration": 0.2181818181818187,
                "tempo": 120.0
            },
            {
                "start_time": 57.62954545454545,
                "end_time": 57.679545454545455,
                "pitch": 74,
                "velocity": 40,
                "duration": 0.05000000000000426,
                "tempo": 120.0
            },
            {
                "start_time": 57.679545454545455,
                "end_time": 58.490909090909085,
                "pitch": 76,
                "velocity": 40,
                "duration": 0.8113636363636303,
                "tempo": 120.0
            },
            {
                "start_time": 58.525,
                "end_time": 58.58863636363636,
                "pitch": 76,
                "velocity": 40,
                "duration": 0.0636363636363626,
                "tempo": 120.0
            },
            {
                "start_time": 58.62272727272727,
                "end_time": 58.68636363636363,
                "pitch": 68,
                "velocity": 40,
                "duration": 0.0636363636363626,
                "tempo": 120.0
            },
            {
                "start_time": 58.720454545454544,
                "end_time": 58.768181818181816,
                "pitch": 68,
                "velocity": 40,
                "duration": 0.04772727272727195,
                "tempo": 120.0
            },
            {
                "start_time": 58.8,
                "end_time": 58.865909090909085,
                "pitch": 74,
                "velocity": 40,
                "duration": 0.06590909090908781,
                "tempo": 120.0
            },
            {
                "start_time": 58.89772727272727,
                "end_time": 58.965909090909086,
                "pitch": 68,
                "velocity": 40,
                "duration": 0.06818181818181301,
                "tempo": 120.0
            },
            {
                "start_time": 59.002272727272725,
                "end_time": 59.05227272727272,
                "pitch": 68,
                "velocity": 40,
                "duration": 0.04999999999999716,
                "tempo": 120.0
            },
            {
                "start_time": 59.086363636363636,
                "end_time": 59.15681818181818,
                "pitch": 72,
                "velocity": 40,
                "duration": 0.07045454545454533,
                "tempo": 120.0
            },
            {
                "start_time": 59.19090909090909,
                "end_time": 59.25909090909091,
                "pitch": 68,
                "velocity": 40,
                "duration": 0.06818181818182012,
                "tempo": 120.0
            },
            {
                "start_time": 59.277272727272724,
                "end_time": 59.340909090909086,
                "pitch": 68,
                "velocity": 40,
                "duration": 0.0636363636363626,
                "tempo": 120.0
            },
            {
                "start_time": 59.37272727272727,
                "end_time": 59.43636363636363,
                "pitch": 74,
                "velocity": 40,
                "duration": 0.0636363636363626,
                "tempo": 120.0
            },
            {
                "start_time": 59.46818181818182,
                "end_time": 59.52954545454545,
                "pitch": 68,
                "velocity": 40,
                "duration": 0.06136363636363029,
                "tempo": 120.0
            },
            {
                "start_time": 59.54772727272727,
                "end_time": 59.60909090909091,
                "pitch": 68,
                "velocity": 40,
                "duration": 0.0613636363636374,
                "tempo": 120.0
            },
            {
                "start_time": 59.643181818181816,
                "end_time": 59.709090909090904,
                "pitch": 76,
                "velocity": 40,
                "duration": 0.06590909090908781,
                "tempo": 120.0
            },
            {
                "start_time": 59.74545454545454,
                "end_time": 59.79545454545454,
                "pitch": 68,
                "velocity": 40,
                "duration": 0.04999999999999716,
                "tempo": 120.0
            },
            {
                "start_time": 59.83181818181818,
                "end_time": 59.9,
                "pitch": 72,
                "velocity": 40,
                "duration": 0.06818181818182012,
                "tempo": 120.0
            },
            {
                "start_time": 59.934090909090905,
                "end_time": 60.002272727272725,
                "pitch": 71,
                "velocity": 40,
                "duration": 0.06818181818182012,
                "tempo": 120.0
            },
            {
                "start_time": 60.038636363636364,
                "end_time": 61.490909090909085,
                "pitch": 69,
                "velocity": 40,
                "duration": 1.452272727272721,
                "tempo": 120.0
            },
            {
                "start_time": 66.02727272727273,
                "end_time": 66.17954545454545,
                "pitch": 60,
                "velocity": 40,
                "duration": 0.15227272727271668,
                "tempo": 120.0
            }
        ],
        "Church Organ": [
            {
                "start_time": 36.39545454545454,
                "end_time": 36.72954545454545,
                "pitch": 69,
                "velocity": 80,
                "duration": 0.33409090909091077,
                "tempo": 120.0
            },
            {
                "start_time": 36.76363636363636,
                "end_time": 37.10454545454545,
                "pitch": 71,
                "velocity": 80,
                "duration": 0.3409090909090935,
                "tempo": 120.0
            },
            {
                "start_time": 37.13863636363636,
                "end_time": 37.48181818181818,
                "pitch": 72,
                "velocity": 80,
                "duration": 0.3431818181818187,
                "tempo": 120.0
            },
            {
                "start_time": 37.51590909090909,
                "end_time": 37.73863636363636,
                "pitch": 71,
                "velocity": 80,
                "duration": 0.2227272727272691,
                "tempo": 120.0
            },
            {
                "start_time": 37.75454545454545,
                "end_time": 37.98181818181818,
                "pitch": 72,
                "velocity": 80,
                "duration": 0.22727272727272663,
                "tempo": 120.0
            },
            {
                "start_time": 38.0,
                "end_time": 38.23409090909091,
                "pitch": 74,
                "velocity": 80,
                "duration": 0.23409090909090935,
                "tempo": 120.0
            },
            {
                "start_time": 38.268181818181816,
                "end_time": 38.49090909090909,
                "pitch": 72,
                "velocity": 80,
                "duration": 0.22272727272727622,
                "tempo": 120.0
            },
            {
                "start_time": 38.525,
                "end_time": 38.74090909090909,
                "pitch": 71,
                "velocity": 80,
                "duration": 0.2159090909090935,
                "tempo": 120.0
            },
            {
                "start_time": 38.77272727272727,
                "end_time": 38.97954545454545,
                "pitch": 69,
                "velocity": 80,
                "duration": 0.20681818181817846,
                "tempo": 120.0
            },
            {
                "start_time": 39.38863636363636,
                "end_time": 39.73181818181818,
                "pitch": 69,
                "velocity": 80,
                "duration": 0.3431818181818187,
                "tempo": 120.0
            },
            {
                "start_time": 39.76363636363636,
                "end_time": 40.11590909090909,
                "pitch": 71,
                "velocity": 80,
                "duration": 0.35227272727273373,
                "tempo": 120.0
            },
            {
                "start_time": 40.13409090909091,
                "end_time": 40.475,
                "pitch": 72,
                "velocity": 80,
                "duration": 0.3409090909090935,
                "tempo": 120.0
            },
            {
                "start_time": 40.50681818181818,
                "end_time": 40.725,
                "pitch": 71,
                "velocity": 80,
                "duration": 0.2181818181818187,
                "tempo": 120.0
            },
            {
                "start_time": 40.75909090909091,
                "end_time": 40.97954545454545,
                "pitch": 72,
                "velocity": 80,
                "duration": 0.2204545454545439,
                "tempo": 120.0
            },
            {
                "start_time": 41.01363636363636,
                "end_time": 41.236363636363635,
                "pitch": 74,
                "velocity": 80,
                "duration": 0.22272727272727622,
                "tempo": 120.0
            },
            {
                "start_time": 41.27272727272727,
                "end_time": 41.47954545454545,
                "pitch": 72,
                "velocity": 80,
                "duration": 0.20681818181817846,
                "tempo": 120.0
            },
            {
                "start_time": 41.51136363636363,
                "end_time": 41.72272727272727,
                "pitch": 71,
                "velocity": 80,
                "duration": 0.21136363636363598,
                "tempo": 120.0
            },
            {
                "start_time": 41.75681818181818,
                "end_time": 41.99772727272727,
                "pitch": 69,
                "velocity": 80,
                "duration": 0.24090909090908497,
                "tempo": 120.0
            },
            {
                "start_time": 42.39090909090909,
                "end_time": 42.74318181818182,
                "pitch": 69,
                "velocity": 80,
                "duration": 0.3522727272727266,
                "tempo": 120.0
            },
            {
                "start_time": 42.775,
                "end_time": 43.111363636363635,
                "pitch": 71,
                "velocity": 80,
                "duration": 0.336363636363636,
                "tempo": 120.0
            },
            {
                "start_time": 43.14545454545454,
                "end_time": 43.486363636363635,
                "pitch": 72,
                "velocity": 80,
                "duration": 0.3409090909090935,
                "tempo": 120.0
            },
            {
                "start_time": 43.52045454545454,
                "end_time": 43.736363636363635,
                "pitch": 71,
                "velocity": 80,
                "duration": 0.2159090909090935,
                "tempo": 120.0
            },
            {
                "start_time": 43.77045454545454,
                "end_time": 43.986363636363635,
                "pitch": 72,
                "velocity": 80,
                "duration": 0.2159090909090935,
                "tempo": 120.0
            },
            {
                "start_time": 44.018181818181816,
                "end_time": 44.22954545454545,
                "pitch": 74,
                "velocity": 80,
                "duration": 0.21136363636363598,
                "tempo": 120.0
            },
            {
                "start_time": 44.26363636363636,
                "end_time": 44.47954545454545,
                "pitch": 72,
                "velocity": 80,
                "duration": 0.2159090909090935,
                "tempo": 120.0
            },
            {
                "start_time": 44.51363636363636,
                "end_time": 44.73409090909091,
                "pitch": 71,
                "velocity": 80,
                "duration": 0.220454545454551,
                "tempo": 120.0
            },
            {
                "start_time": 44.768181818181816,
                "end_time": 44.99318181818182,
                "pitch": 72,
                "velocity": 80,
                "duration": 0.22500000000000142,
                "tempo": 120.0
            },
            {
                "start_time": 45.027272727272724,
                "end_time": 45.736363636363635,
                "pitch": 74,
                "velocity": 80,
                "duration": 0.7090909090909108,
                "tempo": 120.0
            },
            {
                "start_time": 45.77045454545454,
                "end_time": 45.98181818181818,
                "pitch": 71,
                "velocity": 80,
                "duration": 0.21136363636363598,
                "tempo": 120.0
            },
            {
                "start_time": 46.01590909090909,
                "end_time": 46.24545454545454,
                "pitch": 72,
                "velocity": 80,
                "duration": 0.22954545454545183,
                "tempo": 120.0
            },
            {
                "start_time": 46.26363636363636,
                "end_time": 46.49772727272727,
                "pitch": 74,
                "velocity": 80,
                "duration": 0.23409090909090935,
                "tempo": 120.0
            },
            {
                "start_time": 46.51363636363636,
                "end_time": 47.98409090909091,
                "pitch": 76,
                "velocity": 80,
                "duration": 1.470454545454551,
                "tempo": 120.0
            },
            {
                "start_time": 48.39545454545454,
                "end_time": 48.72954545454545,
                "pitch": 69,
                "velocity": 80,
                "duration": 0.33409090909091077,
                "tempo": 120.0
            },
            {
                "start_time": 48.76136363636363,
                "end_time": 49.11363636363636,
                "pitch": 71,
                "velocity": 80,
                "duration": 0.3522727272727266,
                "tempo": 120.0
            },
            {
                "start_time": 49.14772727272727,
                "end_time": 49.490909090909085,
                "pitch": 72,
                "velocity": 80,
                "duration": 0.3431818181818116,
                "tempo": 120.0
            },
            {
                "start_time": 49.527272727272724,
                "end_time": 49.73863636363636,
                "pitch": 71,
                "velocity": 80,
                "duration": 0.21136363636363598,
                "tempo": 120.0
            },
            {
                "start_time": 49.77045454545454,
                "end_time": 49.98409090909091,
                "pitch": 72,
                "velocity": 80,
                "duration": 0.2136363636363683,
                "tempo": 120.0
            },
            {
                "start_time": 50.018181818181816,
                "end_time": 50.236363636363635,
                "pitch": 74,
                "velocity": 80,
                "duration": 0.2181818181818187,
                "tempo": 120.0
            },
            {
                "start_time": 50.27045454545454,
                "end_time": 50.49772727272727,
                "pitch": 72,
                "velocity": 80,
                "duration": 0.22727272727272663,
                "tempo": 120.0
            },
            {
                "start_time": 50.51363636363636,
                "end_time": 50.74318181818182,
                "pitch": 71,
                "velocity": 80,
                "duration": 0.22954545454545894,
                "tempo": 120.0
            },
            {
                "start_time": 50.76136363636363,
                "end_time": 50.99545454545454,
                "pitch": 69,
                "velocity": 80,
                "duration": 0.23409090909090935,
                "tempo": 120.0
            },
            {
                "start_time": 51.40909090909091,
                "end_time": 51.740909090909085,
                "pitch": 69,
                "velocity": 80,
                "duration": 0.33181818181817846,
                "tempo": 120.0
            },
            {
                "start_time": 51.77272727272727,
                "end_time": 52.10909090909091,
                "pitch": 71,
                "velocity": 80,
                "duration": 0.336363636363636,
                "tempo": 120.0
            },
            {
                "start_time": 52.143181818181816,
                "end_time": 52.48409090909091,
                "pitch": 72,
                "velocity": 80,
                "duration": 0.3409090909090935,
                "tempo": 120.0
            },
            {
                "start_time": 52.518181818181816,
                "end_time": 52.740909090909085,
                "pitch": 71,
                "velocity": 80,
                "duration": 0.2227272727272691,
                "tempo": 120.0
            },
            {
                "start_time": 52.775,
                "end_time": 52.990909090909085,
                "pitch": 72,
                "velocity": 80,
                "duration": 0.2159090909090864,
                "tempo": 120.0
            },
            {
                "start_time": 53.02272727272727,
                "end_time": 53.22954545454545,
                "pitch": 74,
                "velocity": 80,
                "duration": 0.20681818181817846,
                "tempo": 120.0
            },
            {
                "start_time": 53.26136363636363,
                "end_time": 53.48409090909091,
                "pitch": 72,
                "velocity": 80,
                "duration": 0.22272727272727622,
                "tempo": 120.0
            },
            {
                "start_time": 53.518181818181816,
                "end_time": 53.73863636363636,
                "pitch": 71,
                "velocity": 80,
                "duration": 0.2204545454545439,
                "tempo": 120.0
            },
            {
                "start_time": 53.77272727272727,
                "end_time": 53.990909090909085,
                "pitch": 69,
                "velocity": 80,
                "duration": 0.2181818181818116,
                "tempo": 120.0
            },
            {
                "start_time": 54.4,
                "end_time": 54.752272727272725,
                "pitch": 69,
                "velocity": 80,
                "duration": 0.3522727272727266,
                "tempo": 120.0
            },
            {
                "start_time": 54.768181818181816,
                "end_time": 55.10909090909091,
                "pitch": 71,
                "velocity": 80,
                "duration": 0.3409090909090935,
                "tempo": 120.0
            },
            {
                "start_time": 55.143181818181816,
                "end_time": 55.50454545454545,
                "pitch": 72,
                "velocity": 80,
                "duration": 0.36136363636363455,
                "tempo": 120.0
            },
            {
                "start_time": 55.538636363636364,
                "end_time": 55.756818181818176,
                "pitch": 71,
                "velocity": 80,
                "duration": 0.2181818181818116,
                "tempo": 120.0
            },
            {
                "start_time": 55.79090909090909,
                "end_time": 56.002272727272725,
                "pitch": 72,
                "velocity": 80,
                "duration": 0.21136363636363598,
                "tempo": 120.0
            },
            {
                "start_time": 56.03409090909091,
                "end_time": 56.240909090909085,
                "pitch": 74,
                "velocity": 80,
                "duration": 0.20681818181817846,
                "tempo": 120.0
            },
            {
                "start_time": 56.27272727272727,
                "end_time": 56.49545454545454,
                "pitch": 72,
                "velocity": 80,
                "duration": 0.2227272727272691,
                "tempo": 120.0
            },
            {
                "start_time": 56.52954545454545,
                "end_time": 56.74545454545454,
                "pitch": 71,
                "velocity": 80,
                "duration": 0.2159090909090935,
                "tempo": 120.0
            },
            {
                "start_time": 56.777272727272724,
                "end_time": 56.98409090909091,
                "pitch": 72,
                "velocity": 80,
                "duration": 0.20681818181818556,
                "tempo": 120.0
            },
            {
                "start_time": 57.01590909090909,
                "end_time": 57.74772727272727,
                "pitch": 74,
                "velocity": 80,
                "duration": 0.731818181818177,
                "tempo": 120.0
            },
            {
                "start_time": 57.78181818181818,
                "end_time": 57.99318181818182,
                "pitch": 71,
                "velocity": 80,
                "duration": 0.21136363636363598,
                "tempo": 120.0
            },
            {
                "start_time": 58.025,
                "end_time": 58.23863636363636,
                "pitch": 72,
                "velocity": 80,
                "duration": 0.21363636363636118,
                "tempo": 120.0
            },
            {
                "start_time": 58.27272727272727,
                "end_time": 58.490909090909085,
                "pitch": 74,
                "velocity": 80,
                "duration": 0.2181818181818116,
                "tempo": 120.0
            },
            {
                "start_time": 58.525,
                "end_time": 59.25909090909091,
                "pitch": 76,
                "velocity": 80,
                "duration": 0.7340909090909093,
                "tempo": 120.0
            },
            {
                "start_time": 59.46818181818182,
                "end_time": 59.60909090909091,
                "pitch": 74,
                "velocity": 80,
                "duration": 0.14090909090909065,
                "tempo": 120.0
            },
            {
                "start_time": 59.64090909090909,
                "end_time": 59.79545454545454,
                "pitch": 72,
                "velocity": 80,
                "duration": 0.154545454545449,
                "tempo": 120.0
            },
            {
                "start_time": 59.82954545454545,
                "end_time": 60.002272727272725,
                "pitch": 71,
                "velocity": 80,
                "duration": 0.17272727272727195,
                "tempo": 120.0
            },
            {
                "start_time": 60.03636363636363,
                "end_time": 61.490909090909085,
                "pitch": 69,
                "velocity": 80,
                "duration": 1.4545454545454533,
                "tempo": 120.0
            }
        ],
        "Acoustic Bass": [
            {
                "start_time": 0.00909090909090909,
                "end_time": 0.15454545454545454,
                "pitch": 33,
                "velocity": 101,
                "duration": 0.14545454545454545,
                "tempo": 120.0
            },
            {
                "start_time": 0.18863636363636363,
                "end_time": 0.3409090909090909,
                "pitch": 33,
                "velocity": 101,
                "duration": 0.15227272727272725,
                "tempo": 120.0
            },
            {
                "start_time": 0.375,
                "end_time": 0.5340909090909091,
                "pitch": 33,
                "velocity": 101,
                "duration": 0.15909090909090906,
                "tempo": 120.0
            },
            {
                "start_time": 0.5499999999999999,
                "end_time": 0.6113636363636363,
                "pitch": 33,
                "velocity": 101,
                "duration": 0.0613636363636364,
                "tempo": 120.0
            },
            {
                "start_time": 0.6431818181818182,
                "end_time": 0.7886363636363636,
                "pitch": 33,
                "velocity": 101,
                "duration": 0.1454545454545454,
                "tempo": 120.0
            },
            {
                "start_time": 0.8227272727272726,
                "end_time": 0.8909090909090909,
                "pitch": 33,
                "velocity": 101,
                "duration": 0.06818181818181823,
                "tempo": 120.0
            },
            {
                "start_time": 0.9249999999999999,
                "end_time": 0.9909090909090909,
                "pitch": 33,
                "velocity": 101,
                "duration": 0.06590909090909092,
                "tempo": 120.0
            },
            {
                "start_time": 1.025,
                "end_time": 1.075,
                "pitch": 33,
                "velocity": 101,
                "duration": 0.050000000000000044,
                "tempo": 120.0
            },
            {
                "start_time": 1.1090909090909091,
                "end_time": 1.2704545454545455,
                "pitch": 33,
                "velocity": 101,
                "duration": 0.16136363636363638,
                "tempo": 120.0
            },
            {
                "start_time": 1.3045454545454545,
                "end_time": 1.3522727272727273,
                "pitch": 33,
                "velocity": 101,
                "duration": 0.04772727272727284,
                "tempo": 120.0
            },
            {
                "start_time": 1.384090909090909,
                "end_time": 1.45,
                "pitch": 33,
                "velocity": 101,
                "duration": 0.06590909090909092,
                "tempo": 120.0
            },
            {
                "start_time": 1.4840909090909091,
                "end_time": 1.634090909090909,
                "pitch": 33,
                "velocity": 101,
                "duration": 0.1499999999999999,
                "tempo": 120.0
            },
            {
                "start_time": 1.6681818181818182,
                "end_time": 1.834090909090909,
                "pitch": 33,
                "velocity": 101,
                "duration": 0.16590909090909078,
                "tempo": 120.0
            },
            {
                "start_time": 1.8522727272727273,
                "end_time": 2.0136363636363637,
                "pitch": 33,
                "velocity": 101,
                "duration": 0.16136363636363638,
                "tempo": 120.0
            },
            {
                "start_time": 2.047727272727273,
                "end_time": 2.1113636363636363,
                "pitch": 33,
                "velocity": 101,
                "duration": 0.06363636363636349,
                "tempo": 120.0
            },
            {
                "start_time": 2.1295454545454544,
                "end_time": 2.293181818181818,
                "pitch": 33,
                "velocity": 101,
                "duration": 0.16363636363636358,
                "tempo": 120.0
            },
            {
                "start_time": 2.327272727272727,
                "end_time": 2.377272727272727,
                "pitch": 33,
                "velocity": 101,
                "duration": 0.04999999999999982,
                "tempo": 120.0
            },
            {
                "start_time": 2.411363636363636,
                "end_time": 2.477272727272727,
                "pitch": 33,
                "velocity": 101,
                "duration": 0.06590909090909092,
                "tempo": 120.0
            },
            {
                "start_time": 2.5113636363636362,
                "end_time": 2.5795454545454546,
                "pitch": 33,
                "velocity": 101,
                "duration": 0.06818181818181834,
                "tempo": 120.0
            },
            {
                "start_time": 2.6136363636363633,
                "end_time": 2.7659090909090907,
                "pitch": 33,
                "velocity": 101,
                "duration": 0.15227272727272734,
                "tempo": 120.0
            },
            {
                "start_time": 2.8022727272727272,
                "end_time": 2.870454545454545,
                "pitch": 33,
                "velocity": 101,
                "duration": 0.0681818181818179,
                "tempo": 120.0
            },
            {
                "start_time": 2.9045454545454543,
                "end_time": 2.9568181818181816,
                "pitch": 33,
                "velocity": 101,
                "duration": 0.05227272727272725,
                "tempo": 120.0
            },
            {
                "start_time": 2.9909090909090907,
                "end_time": 3.1545454545454543,
                "pitch": 29,
                "velocity": 101,
                "duration": 0.16363636363636358,
                "tempo": 120.0
            },
            {
                "start_time": 3.186363636363636,
                "end_time": 3.3318181818181816,
                "pitch": 29,
                "velocity": 101,
                "duration": 0.1454545454545455,
                "tempo": 120.0
            },
            {
                "start_time": 3.3659090909090907,
                "end_time": 3.5159090909090907,
                "pitch": 29,
                "velocity": 101,
                "duration": 0.1499999999999999,
                "tempo": 120.0
            },
            {
                "start_time": 3.55,
                "end_time": 3.6159090909090907,
                "pitch": 29,
                "velocity": 101,
                "duration": 0.06590909090909092,
                "tempo": 120.0
            },
            {
                "start_time": 3.65,
                "end_time": 3.7977272727272724,
                "pitch": 29,
                "velocity": 101,
                "duration": 0.14772727272727249,
                "tempo": 120.0
            },
            {
                "start_time": 3.829545454545454,
                "end_time": 3.893181818181818,
                "pitch": 29,
                "velocity": 101,
                "duration": 0.06363636363636394,
                "tempo": 120.0
            },
            {
                "start_time": 3.925,
                "end_time": 3.9727272727272727,
                "pitch": 29,
                "velocity": 101,
                "duration": 0.04772727272727284,
                "tempo": 120.0
            },
            {
                "start_time": 4.004545454545454,
                "end_time": 4.068181818181818,
                "pitch": 29,
                "velocity": 101,
                "duration": 0.06363636363636438,
                "tempo": 120.0
            },
            {
                "start_time": 4.1,
                "end_time": 4.254545454545454,
                "pitch": 29,
                "velocity": 101,
                "duration": 0.15454545454545432,
                "tempo": 120.0
            },
            {
                "start_time": 4.288636363636363,
                "end_time": 4.3568181818181815,
                "pitch": 29,
                "velocity": 101,
                "duration": 0.06818181818181834,
                "tempo": 120.0
            },
            {
                "start_time": 4.390909090909091,
                "end_time": 4.461363636363636,
                "pitch": 29,
                "velocity": 101,
                "duration": 0.07045454545454533,
                "tempo": 120.0
            },
            {
                "start_time": 4.495454545454545,
                "end_time": 4.6454545454545455,
                "pitch": 29,
                "velocity": 101,
                "duration": 0.15000000000000036,
                "tempo": 120.0
            },
            {
                "start_time": 4.679545454545455,
                "end_time": 4.829545454545454,
                "pitch": 29,
                "velocity": 101,
                "duration": 0.14999999999999947,
                "tempo": 120.0
            },
            {
                "start_time": 4.863636363636363,
                "end_time": 5.027272727272727,
                "pitch": 29,
                "velocity": 101,
                "duration": 0.16363636363636402,
                "tempo": 120.0
            },
            {
                "start_time": 5.043181818181818,
                "end_time": 5.1090909090909085,
                "pitch": 29,
                "velocity": 101,
                "duration": 0.06590909090909047,
                "tempo": 120.0
            },
            {
                "start_time": 5.140909090909091,
                "end_time": 5.304545454545455,
                "pitch": 29,
                "velocity": 101,
                "duration": 0.16363636363636402,
                "tempo": 120.0
            },
            {
                "start_time": 5.322727272727272,
                "end_time": 5.388636363636364,
                "pitch": 29,
                "velocity": 101,
                "duration": 0.06590909090909136,
                "tempo": 120.0
            },
            {
                "start_time": 5.422727272727273,
                "end_time": 5.488636363636363,
                "pitch": 29,
                "velocity": 101,
                "duration": 0.06590909090909047,
                "tempo": 120.0
            },
            {
                "start_time": 5.5227272727272725,
                "end_time": 5.574999999999999,
                "pitch": 29,
                "velocity": 101,
                "duration": 0.052272727272726804,
                "tempo": 120.0
            },
            {
                "start_time": 5.6090909090909085,
                "end_time": 5.7704545454545455,
                "pitch": 29,
                "velocity": 101,
                "duration": 0.16136363636363704,
                "tempo": 120.0
            },
            {
                "start_time": 5.804545454545455,
                "end_time": 5.852272727272727,
                "pitch": 29,
                "velocity": 101,
                "duration": 0.04772727272727195,
                "tempo": 120.0
            },
            {
                "start_time": 5.884090909090909,
                "end_time": 5.949999999999999,
                "pitch": 29,
                "velocity": 101,
                "duration": 0.06590909090909047,
                "tempo": 120.0
            },
            {
                "start_time": 5.9818181818181815,
                "end_time": 6.131818181818182,
                "pitch": 31,
                "velocity": 101,
                "duration": 0.15000000000000036,
                "tempo": 120.0
            },
            {
                "start_time": 6.165909090909091,
                "end_time": 6.334090909090909,
                "pitch": 31,
                "velocity": 101,
                "duration": 0.168181818181818,
                "tempo": 120.0
            },
            {
                "start_time": 6.368181818181818,
                "end_time": 6.5227272727272725,
                "pitch": 31,
                "velocity": 101,
                "duration": 0.15454545454545432,
                "tempo": 120.0
            },
            {
                "start_time": 6.556818181818182,
                "end_time": 6.625,
                "pitch": 31,
                "velocity": 101,
                "duration": 0.06818181818181834,
                "tempo": 120.0
            },
            {
                "start_time": 6.643181818181818,
                "end_time": 6.809090909090909,
                "pitch": 31,
                "velocity": 101,
                "duration": 0.165909090909091,
                "tempo": 120.0
            },
            {
                "start_time": 6.840909090909091,
                "end_time": 6.904545454545454,
                "pitch": 31,
                "velocity": 101,
                "duration": 0.06363636363636349,
                "tempo": 120.0
            },
            {
                "start_time": 6.920454545454545,
                "end_time": 6.9840909090909085,
                "pitch": 31,
                "velocity": 101,
                "duration": 0.06363636363636349,
                "tempo": 120.0
            },
            {
                "start_time": 7.015909090909091,
                "end_time": 7.079545454545454,
                "pitch": 31,
                "velocity": 101,
                "duration": 0.06363636363636349,
                "tempo": 120.0
            },
            {
                "start_time": 7.111363636363636,
                "end_time": 7.265909090909091,
                "pitch": 31,
                "velocity": 101,
                "duration": 0.15454545454545432,
                "tempo": 120.0
            },
            {
                "start_time": 7.3,
                "end_time": 7.368181818181818,
                "pitch": 31,
                "velocity": 101,
                "duration": 0.06818181818181834,
                "tempo": 120.0
            },
            {
                "start_time": 7.404545454545454,
                "end_time": 7.454545454545454,
                "pitch": 31,
                "velocity": 101,
                "duration": 0.04999999999999982,
                "tempo": 120.0
            },
            {
                "start_time": 7.49090909090909,
                "end_time": 7.652272727272727,
                "pitch": 31,
                "velocity": 101,
                "duration": 0.16136363636363704,
                "tempo": 120.0
            },
            {
                "start_time": 7.686363636363636,
                "end_time": 7.831818181818181,
                "pitch": 31,
                "velocity": 101,
                "duration": 0.1454545454545455,
                "tempo": 120.0
            },
            {
                "start_time": 7.86590909090909,
                "end_time": 8.01590909090909,
                "pitch": 31,
                "velocity": 101,
                "duration": 0.15000000000000036,
                "tempo": 120.0
            },
            {
                "start_time": 8.047727272727272,
                "end_time": 8.11590909090909,
                "pitch": 31,
                "velocity": 101,
                "duration": 0.06818181818181834,
                "tempo": 120.0
            },
            {
                "start_time": 8.15,
                "end_time": 8.297727272727272,
                "pitch": 31,
                "velocity": 101,
                "duration": 0.1477272727272716,
                "tempo": 120.0
            },
            {
                "start_time": 8.331818181818182,
                "end_time": 8.395454545454545,
                "pitch": 31,
                "velocity": 101,
                "duration": 0.0636363636363626,
                "tempo": 120.0
            },
            {
                "start_time": 8.429545454545455,
                "end_time": 8.493181818181817,
                "pitch": 31,
                "velocity": 101,
                "duration": 0.0636363636363626,
                "tempo": 120.0
            },
            {
                "start_time": 8.509090909090908,
                "end_time": 8.575,
                "pitch": 31,
                "velocity": 101,
                "duration": 0.06590909090909136,
                "tempo": 120.0
            },
            {
                "start_time": 8.60681818181818,
                "end_time": 8.759090909090908,
                "pitch": 31,
                "velocity": 101,
                "duration": 0.15227272727272734,
                "tempo": 120.0
            },
            {
                "start_time": 8.793181818181818,
                "end_time": 8.85909090909091,
                "pitch": 31,
                "velocity": 101,
                "duration": 0.06590909090909136,
                "tempo": 120.0
            },
            {
                "start_time": 8.893181818181818,
                "end_time": 8.959090909090909,
                "pitch": 31,
                "velocity": 101,
                "duration": 0.06590909090909136,
                "tempo": 120.0
            },
            {
                "start_time": 8.993181818181817,
                "end_time": 9.143181818181818,
                "pitch": 36,
                "velocity": 101,
                "duration": 0.15000000000000036,
                "tempo": 120.0
            },
            {
                "start_time": 9.177272727272728,
                "end_time": 9.329545454545453,
                "pitch": 36,
                "velocity": 101,
                "duration": 0.15227272727272556,
                "tempo": 120.0
            },
            {
                "start_time": 9.363636363636363,
                "end_time": 9.525,
                "pitch": 36,
                "velocity": 101,
                "duration": 0.16136363636363704,
                "tempo": 120.0
            },
            {
                "start_time": 9.556818181818182,
                "end_time": 9.60681818181818,
                "pitch": 36,
                "velocity": 101,
                "duration": 0.049999999999998934,
                "tempo": 120.0
            },
            {
                "start_time": 9.638636363636364,
                "end_time": 9.804545454545455,
                "pitch": 36,
                "velocity": 101,
                "duration": 0.165909090909091,
                "tempo": 120.0
            },
            {
                "start_time": 9.820454545454545,
                "end_time": 9.888636363636364,
                "pitch": 36,
                "velocity": 101,
                "duration": 0.06818181818181834,
                "tempo": 120.0
            },
            {
                "start_time": 9.920454545454545,
                "end_time": 9.988636363636363,
                "pitch": 36,
                "velocity": 101,
                "duration": 0.06818181818181834,
                "tempo": 120.0
            },
            {
                "start_time": 10.022727272727272,
                "end_time": 10.088636363636363,
                "pitch": 36,
                "velocity": 101,
                "duration": 0.06590909090909136,
                "tempo": 120.0
            },
            {
                "start_time": 10.10681818181818,
                "end_time": 10.268181818181818,
                "pitch": 36,
                "velocity": 101,
                "duration": 0.16136363636363704,
                "tempo": 120.0
            },
            {
                "start_time": 10.302272727272726,
                "end_time": 10.35,
                "pitch": 36,
                "velocity": 101,
                "duration": 0.04772727272727373,
                "tempo": 120.0
            },
            {
                "start_time": 10.381818181818181,
                "end_time": 10.447727272727272,
                "pitch": 36,
                "velocity": 101,
                "duration": 0.06590909090909136,
                "tempo": 120.0
            },
            {
                "start_time": 10.48181818181818,
                "end_time": 10.634090909090908,
                "pitch": 28,
                "velocity": 101,
                "duration": 0.15227272727272734,
                "tempo": 120.0
            },
            {
                "start_time": 10.668181818181818,
                "end_time": 10.84090909090909,
                "pitch": 28,
                "velocity": 101,
                "duration": 0.17272727272727195,
                "tempo": 120.0
            },
            {
                "start_time": 10.875,
                "end_time": 11.027272727272727,
                "pitch": 28,
                "velocity": 101,
                "duration": 0.15227272727272734,
                "tempo": 120.0
            },
            {
                "start_time": 11.061363636363636,
                "end_time": 11.127272727272727,
                "pitch": 28,
                "velocity": 101,
                "duration": 0.06590909090909136,
                "tempo": 120.0
            },
            {
                "start_time": 11.161363636363635,
                "end_time": 11.309090909090909,
                "pitch": 28,
                "velocity": 101,
                "duration": 0.14772727272727337,
                "tempo": 120.0
            },
            {
                "start_time": 11.34090909090909,
                "end_time": 11.402272727272727,
                "pitch": 28,
                "velocity": 101,
                "duration": 0.0613636363636374,
                "tempo": 120.0
            },
            {
                "start_time": 11.420454545454545,
                "end_time": 11.48181818181818,
                "pitch": 28,
                "velocity": 101,
                "duration": 0.06136363636363562,
                "tempo": 120.0
            },
            {
                "start_time": 11.513636363636364,
                "end_time": 11.577272727272726,
                "pitch": 28,
                "velocity": 101,
                "duration": 0.0636363636363626,
                "tempo": 120.0
            },
            {
                "start_time": 11.60909090909091,
                "end_time": 11.763636363636364,
                "pitch": 28,
                "velocity": 101,
                "duration": 0.15454545454545432,
                "tempo": 120.0
            },
            {
                "start_time": 11.799999999999999,
                "end_time": 11.868181818181817,
                "pitch": 28,
                "velocity": 101,
                "duration": 0.06818181818181834,
                "tempo": 120.0
            },
            {
                "start_time": 11.902272727272727,
                "end_time": 11.954545454545453,
                "pitch": 28,
                "velocity": 101,
                "duration": 0.052272727272725916,
                "tempo": 120.0
            },
            {
                "start_time": 11.99090909090909,
                "end_time": 12.152272727272727,
                "pitch": 33,
                "velocity": 101,
                "duration": 0.16136363636363704,
                "tempo": 120.0
            },
            {
                "start_time": 12.184090909090909,
                "end_time": 12.329545454545453,
                "pitch": 33,
                "velocity": 101,
                "duration": 0.14545454545454461,
                "tempo": 120.0
            },
            {
                "start_time": 12.363636363636363,
                "end_time": 12.513636363636364,
                "pitch": 33,
                "velocity": 101,
                "duration": 0.15000000000000036,
                "tempo": 120.0
            },
            {
                "start_time": 12.547727272727272,
                "end_time": 12.613636363636363,
                "pitch": 33,
                "velocity": 101,
                "duration": 0.06590909090909136,
                "tempo": 120.0
            },
            {
                "start_time": 12.647727272727272,
                "end_time": 12.797727272727272,
                "pitch": 33,
                "velocity": 101,
                "duration": 0.15000000000000036,
                "tempo": 120.0
            },
            {
                "start_time": 12.831818181818182,
                "end_time": 12.899999999999999,
                "pitch": 33,
                "velocity": 101,
                "duration": 0.06818181818181657,
                "tempo": 120.0
            },
            {
                "start_time": 12.934090909090909,
                "end_time": 13.0,
                "pitch": 33,
                "velocity": 101,
                "duration": 0.06590909090909136,
                "tempo": 120.0
            },
            {
                "start_time": 13.018181818181818,
                "end_time": 13.084090909090909,
                "pitch": 33,
                "velocity": 101,
                "duration": 0.06590909090909136,
                "tempo": 120.0
            },
            {
                "start_time": 13.118181818181817,
                "end_time": 13.281818181818181,
                "pitch": 33,
                "velocity": 101,
                "duration": 0.16363636363636402,
                "tempo": 120.0
            },
            {
                "start_time": 13.297727272727272,
                "end_time": 13.361363636363636,
                "pitch": 33,
                "velocity": 101,
                "duration": 0.06363636363636438,
                "tempo": 120.0
            },
            {
                "start_time": 13.395454545454545,
                "end_time": 13.459090909090909,
                "pitch": 33,
                "velocity": 101,
                "duration": 0.06363636363636438,
                "tempo": 120.0
            },
            {
                "start_time": 13.493181818181817,
                "end_time": 13.645454545454545,
                "pitch": 33,
                "velocity": 101,
                "duration": 0.15227272727272734,
                "tempo": 120.0
            },
            {
                "start_time": 13.681818181818182,
                "end_time": 13.836363636363636,
                "pitch": 33,
                "velocity": 101,
                "duration": 0.15454545454545432,
                "tempo": 120.0
            },
            {
                "start_time": 13.870454545454544,
                "end_time": 14.029545454545454,
                "pitch": 33,
                "velocity": 101,
                "duration": 0.15909090909091006,
                "tempo": 120.0
            },
            {
                "start_time": 14.061363636363636,
                "end_time": 14.109090909090908,
                "pitch": 33,
                "velocity": 101,
                "duration": 0.04772727272727195,
                "tempo": 120.0
            },
            {
                "start_time": 14.14090909090909,
                "end_time": 14.302272727272726,
                "pitch": 33,
                "velocity": 101,
                "duration": 0.16136363636363527,
                "tempo": 120.0
            },
            {
                "start_time": 14.336363636363636,
                "end_time": 14.386363636363635,
                "pitch": 33,
                "velocity": 101,
                "duration": 0.049999999999998934,
                "tempo": 120.0
            },
            {
                "start_time": 14.420454545454545,
                "end_time": 14.486363636363636,
                "pitch": 33,
                "velocity": 101,
                "duration": 0.06590909090909136,
                "tempo": 120.0
            },
            {
                "start_time": 14.520454545454545,
                "end_time": 14.588636363636363,
                "pitch": 33,
                "velocity": 101,
                "duration": 0.06818181818181834,
                "tempo": 120.0
            },
            {
                "start_time": 14.60681818181818,
                "end_time": 14.772727272727272,
                "pitch": 33,
                "velocity": 101,
                "duration": 0.165909090909091,
                "tempo": 120.0
            },
            {
                "start_time": 14.806818181818182,
                "end_time": 14.872727272727271,
                "pitch": 33,
                "velocity": 101,
                "duration": 0.06590909090908958,
                "tempo": 120.0
            },
            {
                "start_time": 14.89090909090909,
                "end_time": 14.95681818181818,
                "pitch": 33,
                "velocity": 101,
                "duration": 0.06590909090908958,
                "tempo": 120.0
            },
            {
                "start_time": 14.993181818181817,
                "end_time": 15.14090909090909,
                "pitch": 29,
                "velocity": 101,
                "duration": 0.14772727272727337,
                "tempo": 120.0
            },
            {
                "start_time": 15.174999999999999,
                "end_time": 15.343181818181817,
                "pitch": 29,
                "velocity": 101,
                "duration": 0.168181818181818,
                "tempo": 120.0
            },
            {
                "start_time": 15.377272727272727,
                "end_time": 15.527272727272727,
                "pitch": 29,
                "velocity": 101,
                "duration": 0.15000000000000036,
                "tempo": 120.0
            },
            {
                "start_time": 15.561363636363636,
                "end_time": 15.627272727272727,
                "pitch": 29,
                "velocity": 101,
                "duration": 0.06590909090909136,
                "tempo": 120.0
            },
            {
                "start_time": 15.661363636363635,
                "end_time": 15.811363636363636,
                "pitch": 29,
                "velocity": 101,
                "duration": 0.15000000000000036,
                "tempo": 120.0
            },
            {
                "start_time": 15.843181818181817,
                "end_time": 15.909090909090908,
                "pitch": 29,
                "velocity": 101,
                "duration": 0.06590909090909136,
                "tempo": 120.0
            },
            {
                "start_time": 15.94090909090909,
                "end_time": 15.99090909090909,
                "pitch": 29,
                "velocity": 101,
                "duration": 0.05000000000000071,
                "tempo": 120.0
            },
            {
                "start_time": 16.022727272727273,
                "end_time": 16.08863636363636,
                "pitch": 29,
                "velocity": 101,
                "duration": 0.06590909090908781,
                "tempo": 120.0
            },
            {
                "start_time": 16.120454545454546,
                "end_time": 16.270454545454545,
                "pitch": 29,
                "velocity": 101,
                "duration": 0.14999999999999858,
                "tempo": 120.0
            },
            {
                "start_time": 16.304545454545455,
                "end_time": 16.37272727272727,
                "pitch": 29,
                "velocity": 101,
                "duration": 0.06818181818181657,
                "tempo": 120.0
            },
            {
                "start_time": 16.404545454545453,
                "end_time": 16.472727272727273,
                "pitch": 29,
                "velocity": 101,
                "duration": 0.06818181818182012,
                "tempo": 120.0
            },
            {
                "start_time": 16.49090909090909,
                "end_time": 16.652272727272727,
                "pitch": 29,
                "velocity": 101,
                "duration": 0.16136363636363882,
                "tempo": 120.0
            },
            {
                "start_time": 16.68409090909091,
                "end_time": 16.831818181818182,
                "pitch": 29,
                "velocity": 101,
                "duration": 0.14772727272727337,
                "tempo": 120.0
            },
            {
                "start_time": 16.863636363636363,
                "end_time": 17.013636363636362,
                "pitch": 29,
                "velocity": 101,
                "duration": 0.14999999999999858,
                "tempo": 120.0
            },
            {
                "start_time": 17.047727272727272,
                "end_time": 17.11590909090909,
                "pitch": 29,
                "velocity": 101,
                "duration": 0.06818181818181657,
                "tempo": 120.0
            },
            {
                "start_time": 17.147727272727273,
                "end_time": 17.3,
                "pitch": 29,
                "velocity": 101,
                "duration": 0.15227272727272734,
                "tempo": 120.0
            },
            {
                "start_time": 17.334090909090907,
                "end_time": 17.4,
                "pitch": 29,
                "velocity": 101,
                "duration": 0.06590909090909136,
                "tempo": 120.0
            },
            {
                "start_time": 17.43409090909091,
                "end_time": 17.5,
                "pitch": 29,
                "velocity": 101,
                "duration": 0.06590909090909136,
                "tempo": 120.0
            },
            {
                "start_time": 17.534090909090907,
                "end_time": 17.586363636363636,
                "pitch": 29,
                "velocity": 101,
                "duration": 0.05227272727272947,
                "tempo": 120.0
            },
            {
                "start_time": 17.620454545454546,
                "end_time": 17.786363636363635,
                "pitch": 29,
                "velocity": 101,
                "duration": 0.16590909090908923,
                "tempo": 120.0
            },
            {
                "start_time": 17.804545454545455,
                "end_time": 17.870454545454546,
                "pitch": 29,
                "velocity": 101,
                "duration": 0.06590909090909136,
                "tempo": 120.0
            },
            {
                "start_time": 17.904545454545453,
                "end_time": 17.970454545454544,
                "pitch": 29,
                "velocity": 101,
                "duration": 0.06590909090909136,
                "tempo": 120.0
            },
            {
                "start_time": 18.00681818181818,
                "end_time": 18.154545454545453,
                "pitch": 31,
                "velocity": 101,
                "duration": 0.14772727272727337,
                "tempo": 120.0
            },
            {
                "start_time": 18.188636363636363,
                "end_time": 18.34090909090909,
                "pitch": 31,
                "velocity": 101,
                "duration": 0.15227272727272734,
                "tempo": 120.0
            },
            {
                "start_time": 18.37272727272727,
                "end_time": 18.536363636363635,
                "pitch": 31,
                "velocity": 101,
                "duration": 0.16363636363636402,
                "tempo": 120.0
            },
            {
                "start_time": 18.570454545454545,
                "end_time": 18.618181818181817,
                "pitch": 31,
                "velocity": 101,
                "duration": 0.04772727272727195,
                "tempo": 120.0
            },
            {
                "start_time": 18.65,
                "end_time": 18.81590909090909,
                "pitch": 31,
                "velocity": 101,
                "duration": 0.16590909090909278,
                "tempo": 120.0
            },
            {
                "start_time": 18.847727272727273,
                "end_time": 18.897727272727273,
                "pitch": 31,
                "velocity": 101,
                "duration": 0.05000000000000071,
                "tempo": 120.0
            },
            {
                "start_time": 18.93181818181818,
                "end_time": 19.0,
                "pitch": 31,
                "velocity": 101,
                "duration": 0.06818181818182012,
                "tempo": 120.0
            },
            {
                "start_time": 19.034090909090907,
                "end_time": 19.099999999999998,
                "pitch": 31,
                "velocity": 101,
                "duration": 0.06590909090909136,
                "tempo": 120.0
            },
            {
                "start_time": 19.134090909090908,
                "end_time": 19.284090909090907,
                "pitch": 31,
                "velocity": 101,
                "duration": 0.14999999999999858,
                "tempo": 120.0
            },
            {
                "start_time": 19.318181818181817,
                "end_time": 19.386363636363637,
                "pitch": 31,
                "velocity": 101,
                "duration": 0.06818181818182012,
                "tempo": 120.0
            },
            {
                "start_time": 19.402272727272727,
                "end_time": 19.470454545454544,
                "pitch": 31,
                "velocity": 101,
                "duration": 0.06818181818181657,
                "tempo": 120.0
            },
            {
                "start_time": 19.504545454545454,
                "end_time": 19.66590909090909,
                "pitch": 31,
                "velocity": 101,
                "duration": 0.16136363636363527,
                "tempo": 120.0
            },
            {
                "start_time": 19.68181818181818,
                "end_time": 19.845454545454544,
                "pitch": 31,
                "velocity": 101,
                "duration": 0.16363636363636402,
                "tempo": 120.0
            },
            {
                "start_time": 19.877272727272725,
                "end_time": 20.03181818181818,
                "pitch": 31,
                "velocity": 101,
                "duration": 0.1545454545454561,
                "tempo": 120.0
            },
            {
                "start_time": 20.06590909090909,
                "end_time": 20.134090909090908,
                "pitch": 31,
                "velocity": 101,
                "duration": 0.06818181818181657,
                "tempo": 120.0
            },
            {
                "start_time": 20.170454545454543,
                "end_time": 20.318181818181817,
                "pitch": 31,
                "velocity": 101,
                "duration": 0.14772727272727337,
                "tempo": 120.0
            },
            {
                "start_time": 20.349999999999998,
                "end_time": 20.413636363636364,
                "pitch": 31,
                "velocity": 101,
                "duration": 0.06363636363636616,
                "tempo": 120.0
            },
            {
                "start_time": 20.44772727272727,
                "end_time": 20.493181818181817,
                "pitch": 31,
                "velocity": 101,
                "duration": 0.045454545454546746,
                "tempo": 120.0
            },
            {
                "start_time": 20.525,
                "end_time": 20.58863636363636,
                "pitch": 31,
                "velocity": 101,
                "duration": 0.0636363636363626,
                "tempo": 120.0
            },
            {
                "start_time": 20.620454545454546,
                "end_time": 20.775,
                "pitch": 31,
                "velocity": 101,
                "duration": 0.15454545454545254,
                "tempo": 120.0
            },
            {
                "start_time": 20.811363636363634,
                "end_time": 20.877272727272725,
                "pitch": 31,
                "velocity": 101,
                "duration": 0.06590909090909136,
                "tempo": 120.0
            },
            {
                "start_time": 20.913636363636364,
                "end_time": 20.98181818181818,
                "pitch": 31,
                "velocity": 101,
                "duration": 0.06818181818181657,
                "tempo": 120.0
            },
            {
                "start_time": 21.0,
                "end_time": 21.15681818181818,
                "pitch": 33,
                "velocity": 101,
                "duration": 0.1568181818181813,
                "tempo": 120.0
            },
            {
                "start_time": 21.188636363636363,
                "end_time": 21.331818181818182,
                "pitch": 33,
                "velocity": 101,
                "duration": 0.1431818181818194,
                "tempo": 120.0
            },
            {
                "start_time": 21.363636363636363,
                "end_time": 21.518181818181816,
                "pitch": 33,
                "velocity": 101,
                "duration": 0.15454545454545254,
                "tempo": 120.0
            },
            {
                "start_time": 21.552272727272726,
                "end_time": 21.62272727272727,
                "pitch": 33,
                "velocity": 101,
                "duration": 0.07045454545454533,
                "tempo": 120.0
            },
            {
                "start_time": 21.65681818181818,
                "end_time": 21.80909090909091,
                "pitch": 33,
                "velocity": 101,
                "duration": 0.15227272727272734,
                "tempo": 120.0
            },
            {
                "start_time": 21.84318181818182,
                "end_time": 21.911363636363635,
                "pitch": 33,
                "velocity": 101,
                "duration": 0.06818181818181657,
                "tempo": 120.0
            },
            {
                "start_time": 21.943181818181817,
                "end_time": 22.011363636363637,
                "pitch": 33,
                "velocity": 101,
                "duration": 0.06818181818182012,
                "tempo": 120.0
            },
            {
                "start_time": 22.045454545454543,
                "end_time": 22.095454545454544,
                "pitch": 33,
                "velocity": 101,
                "duration": 0.05000000000000071,
                "tempo": 120.0
            },
            {
                "start_time": 22.129545454545454,
                "end_time": 22.29090909090909,
                "pitch": 33,
                "velocity": 101,
                "duration": 0.16136363636363527,
                "tempo": 120.0
            },
            {
                "start_time": 22.325,
                "end_time": 22.37272727272727,
                "pitch": 33,
                "velocity": 101,
                "duration": 0.04772727272727195,
                "tempo": 120.0
            },
            {
                "start_time": 22.404545454545453,
                "end_time": 22.470454545454544,
                "pitch": 33,
                "velocity": 101,
                "duration": 0.06590909090909136,
                "tempo": 120.0
            },
            {
                "start_time": 22.504545454545454,
                "end_time": 22.654545454545453,
                "pitch": 33,
                "velocity": 101,
                "duration": 0.14999999999999858,
                "tempo": 120.0
            },
            {
                "start_time": 22.688636363636363,
                "end_time": 22.854545454545452,
                "pitch": 33,
                "velocity": 101,
                "duration": 0.16590909090908923,
                "tempo": 120.0
            },
            {
                "start_time": 22.87272727272727,
                "end_time": 23.034090909090907,
                "pitch": 33,
                "velocity": 101,
                "duration": 0.16136363636363527,
                "tempo": 120.0
            },
            {
                "start_time": 23.068181818181817,
                "end_time": 23.11590909090909,
                "pitch": 33,
                "velocity": 101,
                "duration": 0.04772727272727195,
                "tempo": 120.0
            },
            {
                "start_time": 23.15,
                "end_time": 23.313636363636363,
                "pitch": 33,
                "velocity": 101,
                "duration": 0.16363636363636402,
                "tempo": 120.0
            },
            {
                "start_time": 23.347727272727273,
                "end_time": 23.39772727272727,
                "pitch": 33,
                "velocity": 101,
                "duration": 0.04999999999999716,
                "tempo": 120.0
            },
            {
                "start_time": 23.43181818181818,
                "end_time": 23.49772727272727,
                "pitch": 33,
                "velocity": 101,
                "duration": 0.06590909090909136,
                "tempo": 120.0
            },
            {
                "start_time": 23.53181818181818,
                "end_time": 23.597727272727273,
                "pitch": 33,
                "velocity": 101,
                "duration": 0.06590909090909136,
                "tempo": 120.0
            },
            {
                "start_time": 23.63181818181818,
                "end_time": 23.786363636363635,
                "pitch": 33,
                "velocity": 101,
                "duration": 0.1545454545454561,
                "tempo": 120.0
            },
            {
                "start_time": 23.82272727272727,
                "end_time": 23.89090909090909,
                "pitch": 33,
                "velocity": 101,
                "duration": 0.06818181818182012,
                "tempo": 120.0
            },
            {
                "start_time": 23.924999999999997,
                "end_time": 23.977272727272727,
                "pitch": 33,
                "velocity": 101,
                "duration": 0.05227272727272947,
                "tempo": 120.0
            },
            {
                "start_time": 24.013636363636362,
                "end_time": 24.174999999999997,
                "pitch": 38,
                "velocity": 101,
                "duration": 0.16136363636363527,
                "tempo": 120.0
            },
            {
                "start_time": 24.386363636363637,
                "end_time": 24.720454545454544,
                "pitch": 38,
                "velocity": 101,
                "duration": 0.3340909090909072,
                "tempo": 120.0
            },
            {
                "start_time": 24.754545454545454,
                "end_time": 24.918181818181818,
                "pitch": 38,
                "velocity": 101,
                "duration": 0.16363636363636402,
                "tempo": 120.0
            },
            {
                "start_time": 24.95,
                "end_time": 25.097727272727273,
                "pitch": 38,
                "velocity": 101,
                "duration": 0.14772727272727337,
                "tempo": 120.0
            },
            {
                "start_time": 25.129545454545454,
                "end_time": 25.279545454545453,
                "pitch": 38,
                "velocity": 101,
                "duration": 0.14999999999999858,
                "tempo": 120.0
            },
            {
                "start_time": 25.313636363636363,
                "end_time": 25.661363636363635,
                "pitch": 43,
                "velocity": 101,
                "duration": 0.34772727272727266,
                "tempo": 120.0
            },
            {
                "start_time": 25.693181818181817,
                "end_time": 25.84090909090909,
                "pitch": 43,
                "velocity": 101,
                "duration": 0.14772727272727337,
                "tempo": 120.0
            },
            {
                "start_time": 25.87272727272727,
                "end_time": 26.04090909090909,
                "pitch": 43,
                "velocity": 101,
                "duration": 0.168181818181818,
                "tempo": 120.0
            },
            {
                "start_time": 26.05681818181818,
                "end_time": 26.224999999999998,
                "pitch": 43,
                "velocity": 101,
                "duration": 0.168181818181818,
                "tempo": 120.0
            },
            {
                "start_time": 26.259090909090908,
                "end_time": 26.409090909090907,
                "pitch": 43,
                "velocity": 101,
                "duration": 0.14999999999999858,
                "tempo": 120.0
            },
            {
                "start_time": 26.443181818181817,
                "end_time": 26.593181818181815,
                "pitch": 43,
                "velocity": 101,
                "duration": 0.14999999999999858,
                "tempo": 120.0
            },
            {
                "start_time": 26.627272727272725,
                "end_time": 26.79090909090909,
                "pitch": 43,
                "velocity": 101,
                "duration": 0.16363636363636402,
                "tempo": 120.0
            },
            {
                "start_time": 26.82272727272727,
                "end_time": 26.968181818181815,
                "pitch": 43,
                "velocity": 101,
                "duration": 0.14545454545454461,
                "tempo": 120.0
            },
            {
                "start_time": 27.002272727272725,
                "end_time": 27.15681818181818,
                "pitch": 40,
                "velocity": 101,
                "duration": 0.1545454545454561,
                "tempo": 120.0
            },
            {
                "start_time": 27.379545454545454,
                "end_time": 27.71363636363636,
                "pitch": 40,
                "velocity": 101,
                "duration": 0.3340909090909072,
                "tempo": 120.0
            },
            {
                "start_time": 27.745454545454542,
                "end_time": 27.9,
                "pitch": 40,
                "velocity": 101,
                "duration": 0.1545454545454561,
                "tempo": 120.0
            },
            {
                "start_time": 27.93409090909091,
                "end_time": 28.10681818181818,
                "pitch": 40,
                "velocity": 101,
                "duration": 0.17272727272727195,
                "tempo": 120.0
            },
            {
                "start_time": 28.14090909090909,
                "end_time": 28.29090909090909,
                "pitch": 40,
                "velocity": 101,
                "duration": 0.14999999999999858,
                "tempo": 120.0
            },
            {
                "start_time": 28.327272727272724,
                "end_time": 28.668181818181818,
                "pitch": 45,
                "velocity": 101,
                "duration": 0.3409090909090935,
                "tempo": 120.0
            },
            {
                "start_time": 28.7,
                "end_time": 28.843181818181815,
                "pitch": 45,
                "velocity": 101,
                "duration": 0.14318181818181586,
                "tempo": 120.0
            },
            {
                "start_time": 28.875,
                "end_time": 29.029545454545453,
                "pitch": 45,
                "velocity": 101,
                "duration": 0.15454545454545254,
                "tempo": 120.0
            },
            {
                "start_time": 29.063636363636363,
                "end_time": 29.236363636363635,
                "pitch": 45,
                "velocity": 101,
                "duration": 0.17272727272727195,
                "tempo": 120.0
            },
            {
                "start_time": 29.254545454545454,
                "end_time": 29.41590909090909,
                "pitch": 45,
                "velocity": 101,
                "duration": 0.16136363636363527,
                "tempo": 120.0
            },
            {
                "start_time": 29.45,
                "end_time": 29.595454545454544,
                "pitch": 45,
                "velocity": 101,
                "duration": 0.14545454545454461,
                "tempo": 120.0
            },
            {
                "start_time": 29.629545454545454,
                "end_time": 29.779545454545453,
                "pitch": 45,
                "velocity": 101,
                "duration": 0.14999999999999858,
                "tempo": 120.0
            },
            {
                "start_time": 29.813636363636363,
                "end_time": 29.979545454545452,
                "pitch": 45,
                "velocity": 101,
                "duration": 0.16590909090908923,
                "tempo": 120.0
            },
            {
                "start_time": 30.01590909090909,
                "end_time": 30.168181818181818,
                "pitch": 38,
                "velocity": 101,
                "duration": 0.15227272727272734,
                "tempo": 120.0
            },
            {
                "start_time": 30.393181818181816,
                "end_time": 30.724999999999998,
                "pitch": 38,
                "velocity": 101,
                "duration": 0.331818181818182,
                "tempo": 120.0
            },
            {
                "start_time": 30.75681818181818,
                "end_time": 30.911363636363635,
                "pitch": 38,
                "velocity": 101,
                "duration": 0.1545454545454561,
                "tempo": 120.0
            },
            {
                "start_time": 30.94772727272727,
                "end_time": 31.102272727272727,
                "pitch": 38,
                "velocity": 101,
                "duration": 0.1545454545454561,
                "tempo": 120.0
            },
            {
                "start_time": 31.136363636363633,
                "end_time": 31.299999999999997,
                "pitch": 38,
                "velocity": 101,
                "duration": 0.16363636363636402,
                "tempo": 120.0
            },
            {
                "start_time": 31.331818181818182,
                "end_time": 31.65681818181818,
                "pitch": 43,
                "velocity": 101,
                "duration": 0.3249999999999993,
                "tempo": 120.0
            },
            {
                "start_time": 31.690909090909088,
                "end_time": 31.852272727272727,
                "pitch": 43,
                "velocity": 101,
                "duration": 0.16136363636363882,
                "tempo": 120.0
            },
            {
                "start_time": 31.884090909090908,
                "end_time": 32.038636363636364,
                "pitch": 43,
                "velocity": 101,
                "duration": 0.1545454545454561,
                "tempo": 120.0
            },
            {
                "start_time": 32.074999999999996,
                "end_time": 32.22954545454545,
                "pitch": 43,
                "velocity": 101,
                "duration": 0.1545454545454561,
                "tempo": 120.0
            },
            {
                "start_time": 32.263636363636365,
                "end_time": 32.425,
                "pitch": 43,
                "velocity": 101,
                "duration": 0.1613636363636317,
                "tempo": 120.0
            },
            {
                "start_time": 32.44318181818182,
                "end_time": 32.60454545454545,
                "pitch": 43,
                "velocity": 101,
                "duration": 0.1613636363636317,
                "tempo": 120.0
            },
            {
                "start_time": 32.638636363636365,
                "end_time": 32.788636363636364,
                "pitch": 43,
                "velocity": 101,
                "duration": 0.14999999999999858,
                "tempo": 120.0
            },
            {
                "start_time": 32.82272727272727,
                "end_time": 32.97272727272727,
                "pitch": 43,
                "velocity": 101,
                "duration": 0.14999999999999858,
                "tempo": 120.0
            },
            {
                "start_time": 33.00909090909091,
                "end_time": 33.17045454545455,
                "pitch": 40,
                "velocity": 101,
                "duration": 0.16136363636363882,
                "tempo": 120.0
            },
            {
                "start_time": 33.38181818181818,
                "end_time": 33.73409090909091,
                "pitch": 40,
                "velocity": 101,
                "duration": 0.3522727272727266,
                "tempo": 120.0
            },
            {
                "start_time": 33.75,
                "end_time": 33.913636363636364,
                "pitch": 40,
                "velocity": 101,
                "duration": 0.16363636363636402,
                "tempo": 120.0
            },
            {
                "start_time": 33.945454545454545,
                "end_time": 34.090909090909086,
                "pitch": 40,
                "velocity": 101,
                "duration": 0.14545454545454106,
                "tempo": 120.0
            },
            {
                "start_time": 34.125,
                "end_time": 34.275,
                "pitch": 40,
                "velocity": 101,
                "duration": 0.14999999999999858,
                "tempo": 120.0
            },
            {
                "start_time": 34.309090909090905,
                "end_time": 34.66136363636363,
                "pitch": 40,
                "velocity": 101,
                "duration": 0.3522727272727266,
                "tempo": 120.0
            },
            {
                "start_time": 34.695454545454545,
                "end_time": 34.845454545454544,
                "pitch": 40,
                "velocity": 101,
                "duration": 0.14999999999999858,
                "tempo": 120.0
            },
            {
                "start_time": 34.87954545454545,
                "end_time": 35.04772727272727,
                "pitch": 40,
                "velocity": 101,
                "duration": 0.16818181818182154,
                "tempo": 120.0
            },
            {
                "start_time": 35.08181818181818,
                "end_time": 35.23181818181818,
                "pitch": 40,
                "velocity": 101,
                "duration": 0.14999999999999858,
                "tempo": 120.0
            },
            {
                "start_time": 35.26590909090909,
                "end_time": 35.41590909090909,
                "pitch": 40,
                "velocity": 101,
                "duration": 0.14999999999999858,
                "tempo": 120.0
            },
            {
                "start_time": 35.449999999999996,
                "end_time": 35.61818181818182,
                "pitch": 40,
                "velocity": 101,
                "duration": 0.16818181818182154,
                "tempo": 120.0
            },
            {
                "start_time": 35.63409090909091,
                "end_time": 35.793181818181814,
                "pitch": 40,
                "velocity": 101,
                "duration": 0.1590909090909065,
                "tempo": 120.0
            },
            {
                "start_time": 35.824999999999996,
                "end_time": 35.96818181818182,
                "pitch": 40,
                "velocity": 101,
                "duration": 0.14318181818182296,
                "tempo": 120.0
            },
            {
                "start_time": 36.002272727272725,
                "end_time": 36.154545454545456,
                "pitch": 33,
                "velocity": 101,
                "duration": 0.1522727272727309,
                "tempo": 120.0
            },
            {
                "start_time": 36.18863636363636,
                "end_time": 36.361363636363635,
                "pitch": 33,
                "velocity": 101,
                "duration": 0.17272727272727195,
                "tempo": 120.0
            },
            {
                "start_time": 36.39545454545454,
                "end_time": 36.54545454545455,
                "pitch": 33,
                "velocity": 101,
                "duration": 0.15000000000000568,
                "tempo": 120.0
            },
            {
                "start_time": 36.57954545454545,
                "end_time": 36.64772727272727,
                "pitch": 33,
                "velocity": 101,
                "duration": 0.06818181818182012,
                "tempo": 120.0
            },
            {
                "start_time": 36.68181818181818,
                "end_time": 36.82954545454545,
                "pitch": 33,
                "velocity": 101,
                "duration": 0.14772727272727337,
                "tempo": 120.0
            },
            {
                "start_time": 36.861363636363635,
                "end_time": 36.92727272727272,
                "pitch": 33,
                "velocity": 101,
                "duration": 0.06590909090908781,
                "tempo": 120.0
            },
            {
                "start_time": 36.94318181818181,
                "end_time": 37.00909090909091,
                "pitch": 33,
                "velocity": 101,
                "duration": 0.06590909090909491,
                "tempo": 120.0
            },
            {
                "start_time": 37.04090909090909,
                "end_time": 37.10681818181818,
                "pitch": 33,
                "velocity": 101,
                "duration": 0.06590909090908781,
                "tempo": 120.0
            },
            {
                "start_time": 37.13863636363636,
                "end_time": 37.293181818181814,
                "pitch": 33,
                "velocity": 101,
                "duration": 0.1545454545454561,
                "tempo": 120.0
            },
            {
                "start_time": 37.32727272727273,
                "end_time": 37.39545454545454,
                "pitch": 33,
                "velocity": 101,
                "duration": 0.06818181818181301,
                "tempo": 120.0
            },
            {
                "start_time": 37.429545454545455,
                "end_time": 37.48181818181818,
                "pitch": 33,
                "velocity": 101,
                "duration": 0.052272727272722364,
                "tempo": 120.0
            },
            {
                "start_time": 37.518181818181816,
                "end_time": 37.675,
                "pitch": 33,
                "velocity": 101,
                "duration": 0.1568181818181813,
                "tempo": 120.0
            },
            {
                "start_time": 37.70681818181818,
                "end_time": 37.85,
                "pitch": 33,
                "velocity": 101,
                "duration": 0.14318181818182296,
                "tempo": 120.0
            },
            {
                "start_time": 37.88181818181818,
                "end_time": 38.03181818181818,
                "pitch": 33,
                "velocity": 101,
                "duration": 0.14999999999999858,
                "tempo": 120.0
            },
            {
                "start_time": 38.06590909090909,
                "end_time": 38.13409090909091,
                "pitch": 33,
                "velocity": 101,
                "duration": 0.06818181818182012,
                "tempo": 120.0
            },
            {
                "start_time": 38.168181818181814,
                "end_time": 38.320454545454545,
                "pitch": 33,
                "velocity": 101,
                "duration": 0.1522727272727309,
                "tempo": 120.0
            },
            {
                "start_time": 38.35454545454545,
                "end_time": 38.42272727272727,
                "pitch": 33,
                "velocity": 101,
                "duration": 0.06818181818182012,
                "tempo": 120.0
            },
            {
                "start_time": 38.45681818181818,
                "end_time": 38.527272727272724,
                "pitch": 33,
                "velocity": 101,
                "duration": 0.07045454545454533,
                "tempo": 120.0
            },
            {
                "start_time": 38.543181818181814,
                "end_time": 38.611363636363635,
                "pitch": 33,
                "velocity": 101,
                "duration": 0.06818181818182012,
                "tempo": 120.0
            },
            {
                "start_time": 38.64772727272727,
                "end_time": 38.804545454545455,
                "pitch": 33,
                "velocity": 101,
                "duration": 0.1568181818181813,
                "tempo": 120.0
            },
            {
                "start_time": 38.820454545454545,
                "end_time": 38.88409090909091,
                "pitch": 33,
                "velocity": 101,
                "duration": 0.0636363636363626,
                "tempo": 120.0
            },
            {
                "start_time": 38.91590909090909,
                "end_time": 38.97954545454545,
                "pitch": 33,
                "velocity": 101,
                "duration": 0.0636363636363626,
                "tempo": 120.0
            },
            {
                "start_time": 39.01363636363636,
                "end_time": 39.16590909090909,
                "pitch": 31,
                "velocity": 101,
                "duration": 0.1522727272727309,
                "tempo": 120.0
            },
            {
                "start_time": 39.199999999999996,
                "end_time": 39.35454545454545,
                "pitch": 31,
                "velocity": 101,
                "duration": 0.1545454545454561,
                "tempo": 120.0
            },
            {
                "start_time": 39.39090909090909,
                "end_time": 39.55227272727272,
                "pitch": 31,
                "velocity": 101,
                "duration": 0.1613636363636317,
                "tempo": 120.0
            },
            {
                "start_time": 39.586363636363636,
                "end_time": 39.63409090909091,
                "pitch": 31,
                "velocity": 101,
                "duration": 0.04772727272727195,
                "tempo": 120.0
            },
            {
                "start_time": 39.668181818181814,
                "end_time": 39.83181818181818,
                "pitch": 31,
                "velocity": 101,
                "duration": 0.16363636363636402,
                "tempo": 120.0
            },
            {
                "start_time": 39.86590909090909,
                "end_time": 39.91590909090909,
                "pitch": 31,
                "velocity": 101,
                "duration": 0.04999999999999716,
                "tempo": 120.0
            },
            {
                "start_time": 39.949999999999996,
                "end_time": 40.01590909090909,
                "pitch": 31,
                "velocity": 101,
                "duration": 0.06590909090909491,
                "tempo": 120.0
            },
            {
                "start_time": 40.05,
                "end_time": 40.11590909090909,
                "pitch": 31,
                "velocity": 101,
                "duration": 0.06590909090909491,
                "tempo": 120.0
            },
            {
                "start_time": 40.13409090909091,
                "end_time": 40.29545454545455,
                "pitch": 31,
                "velocity": 101,
                "duration": 0.16136363636363882,
                "tempo": 120.0
            },
            {
                "start_time": 40.32954545454545,
                "end_time": 40.393181818181816,
                "pitch": 31,
                "velocity": 101,
                "duration": 0.0636363636363626,
                "tempo": 120.0
            },
            {
                "start_time": 40.41136363636363,
                "end_time": 40.475,
                "pitch": 31,
                "velocity": 101,
                "duration": 0.06363636363636971,
                "tempo": 120.0
            },
            {
                "start_time": 40.50909090909091,
                "end_time": 40.65909090909091,
                "pitch": 31,
                "velocity": 101,
                "duration": 0.14999999999999858,
                "tempo": 120.0
            },
            {
                "start_time": 40.69318181818181,
                "end_time": 40.85909090909091,
                "pitch": 31,
                "velocity": 101,
                "duration": 0.16590909090909634,
                "tempo": 120.0
            },
            {
                "start_time": 40.893181818181816,
                "end_time": 41.04772727272727,
                "pitch": 31,
                "velocity": 101,
                "duration": 0.1545454545454561,
                "tempo": 120.0
            },
            {
                "start_time": 41.084090909090904,
                "end_time": 41.152272727272724,
                "pitch": 31,
                "velocity": 101,
                "duration": 0.06818181818182012,
                "tempo": 120.0
            },
            {
                "start_time": 41.18636363636364,
                "end_time": 41.336363636363636,
                "pitch": 31,
                "velocity": 101,
                "duration": 0.14999999999999858,
                "tempo": 120.0
            },
            {
                "start_time": 41.36818181818182,
                "end_time": 41.43181818181818,
                "pitch": 31,
                "velocity": 101,
                "duration": 0.0636363636363626,
                "tempo": 120.0
            },
            {
                "start_time": 41.46363636363636,
                "end_time": 41.51136363636363,
                "pitch": 31,
                "velocity": 101,
                "duration": 0.04772727272727195,
                "tempo": 120.0
            },
            {
                "start_time": 41.543181818181814,
                "end_time": 41.60681818181818,
                "pitch": 31,
                "velocity": 101,
                "duration": 0.0636363636363626,
                "tempo": 120.0
            },
            {
                "start_time": 41.63863636363636,
                "end_time": 41.79090909090909,
                "pitch": 31,
                "velocity": 101,
                "duration": 0.1522727272727309,
                "tempo": 120.0
            },
            {
                "start_time": 41.82727272727273,
                "end_time": 41.89545454545454,
                "pitch": 31,
                "velocity": 101,
                "duration": 0.06818181818181301,
                "tempo": 120.0
            },
            {
                "start_time": 41.929545454545455,
                "end_time": 41.99772727272727,
                "pitch": 31,
                "velocity": 101,
                "duration": 0.06818181818181301,
                "tempo": 120.0
            },
            {
                "start_time": 42.018181818181816,
                "end_time": 42.179545454545455,
                "pitch": 29,
                "velocity": 101,
                "duration": 0.16136363636363882,
                "tempo": 120.0
            },
            {
                "start_time": 42.211363636363636,
                "end_time": 42.35909090909091,
                "pitch": 29,
                "velocity": 101,
                "duration": 0.14772727272727337,
                "tempo": 120.0
            },
            {
                "start_time": 42.39090909090909,
                "end_time": 42.54090909090909,
                "pitch": 29,
                "velocity": 101,
                "duration": 0.14999999999999858,
                "tempo": 120.0
            },
            {
                "start_time": 42.574999999999996,
                "end_time": 42.643181818181816,
                "pitch": 29,
                "velocity": 101,
                "duration": 0.06818181818182012,
                "tempo": 120.0
            },
            {
                "start_time": 42.675,
                "end_time": 42.82727272727273,
                "pitch": 29,
                "velocity": 101,
                "duration": 0.1522727272727309,
                "tempo": 120.0
            },
            {
                "start_time": 42.85909090909091,
                "end_time": 42.92727272727272,
                "pitch": 29,
                "velocity": 101,
                "duration": 0.06818181818181301,
                "tempo": 120.0
            },
            {
                "start_time": 42.961363636363636,
                "end_time": 43.027272727272724,
                "pitch": 29,
                "velocity": 101,
                "duration": 0.06590909090908781,
                "tempo": 120.0
            },
            {
                "start_time": 43.06136363636364,
                "end_time": 43.111363636363635,
                "pitch": 29,
                "velocity": 101,
                "duration": 0.04999999999999716,
                "tempo": 120.0
            },
            {
                "start_time": 43.14545454545454,
                "end_time": 43.30681818181818,
                "pitch": 29,
                "velocity": 101,
                "duration": 0.16136363636363882,
                "tempo": 120.0
            },
            {
                "start_time": 43.324999999999996,
                "end_time": 43.38863636363636,
                "pitch": 29,
                "velocity": 101,
                "duration": 0.0636363636363626,
                "tempo": 120.0
            },
            {
                "start_time": 43.42272727272727,
                "end_time": 43.486363636363635,
                "pitch": 29,
                "velocity": 101,
                "duration": 0.0636363636363626,
                "tempo": 120.0
            },
            {
                "start_time": 43.52045454545454,
                "end_time": 43.67045454545455,
                "pitch": 29,
                "velocity": 101,
                "duration": 0.15000000000000568,
                "tempo": 120.0
            },
            {
                "start_time": 43.70454545454545,
                "end_time": 43.85454545454545,
                "pitch": 29,
                "velocity": 101,
                "duration": 0.14999999999999858,
                "tempo": 120.0
            },
            {
                "start_time": 43.88863636363636,
                "end_time": 44.05227272727272,
                "pitch": 29,
                "velocity": 101,
                "duration": 0.16363636363636402,
                "tempo": 120.0
            },
            {
                "start_time": 44.084090909090904,
                "end_time": 44.13181818181818,
                "pitch": 29,
                "velocity": 101,
                "duration": 0.04772727272727906,
                "tempo": 120.0
            },
            {
                "start_time": 44.16590909090909,
                "end_time": 44.32954545454545,
                "pitch": 29,
                "velocity": 101,
                "duration": 0.16363636363636402,
                "tempo": 120.0
            },
            {
                "start_time": 44.36363636363636,
                "end_time": 44.413636363636364,
                "pitch": 29,
                "velocity": 101,
                "duration": 0.05000000000000426,
                "tempo": 120.0
            },
            {
                "start_time": 44.44772727272727,
                "end_time": 44.51590909090909,
                "pitch": 29,
                "velocity": 101,
                "duration": 0.06818181818182012,
                "tempo": 120.0
            },
            {
                "start_time": 44.54772727272727,
                "end_time": 44.61590909090909,
                "pitch": 29,
                "velocity": 101,
                "duration": 0.06818181818182012,
                "tempo": 120.0
            },
            {
                "start_time": 44.65,
                "end_time": 44.804545454545455,
                "pitch": 29,
                "velocity": 101,
                "duration": 0.1545454545454561,
                "tempo": 120.0
            },
            {
                "start_time": 44.83863636363636,
                "end_time": 44.90681818181818,
                "pitch": 29,
                "velocity": 101,
                "duration": 0.06818181818182012,
                "tempo": 120.0
            },
            {
                "start_time": 44.925,
                "end_time": 44.99318181818182,
                "pitch": 29,
                "velocity": 101,
                "duration": 0.06818181818182012,
                "tempo": 120.0
            },
            {
                "start_time": 45.02954545454545,
                "end_time": 45.19090909090909,
                "pitch": 28,
                "velocity": 101,
                "duration": 0.16136363636363882,
                "tempo": 120.0
            },
            {
                "start_time": 45.20681818181818,
                "end_time": 45.37045454545454,
                "pitch": 28,
                "velocity": 101,
                "duration": 0.16363636363636402,
                "tempo": 120.0
            },
            {
                "start_time": 45.402272727272724,
                "end_time": 45.55227272727272,
                "pitch": 28,
                "velocity": 101,
                "duration": 0.14999999999999858,
                "tempo": 120.0
            },
            {
                "start_time": 45.586363636363636,
                "end_time": 45.65454545454545,
                "pitch": 28,
                "velocity": 101,
                "duration": 0.06818181818181301,
                "tempo": 120.0
            },
            {
                "start_time": 45.68863636363636,
                "end_time": 45.836363636363636,
                "pitch": 28,
                "velocity": 101,
                "duration": 0.14772727272727337,
                "tempo": 120.0
            },
            {
                "start_time": 45.86818181818182,
                "end_time": 45.934090909090905,
                "pitch": 28,
                "velocity": 101,
                "duration": 0.06590909090908781,
                "tempo": 120.0
            },
            {
                "start_time": 45.965909090909086,
                "end_time": 46.01590909090909,
                "pitch": 28,
                "velocity": 101,
                "duration": 0.05000000000000426,
                "tempo": 120.0
            },
            {
                "start_time": 46.04772727272727,
                "end_time": 46.11363636363636,
                "pitch": 28,
                "velocity": 101,
                "duration": 0.06590909090908781,
                "tempo": 120.0
            },
            {
                "start_time": 46.14545454545454,
                "end_time": 46.29545454545455,
                "pitch": 28,
                "velocity": 101,
                "duration": 0.15000000000000568,
                "tempo": 120.0
            },
            {
                "start_time": 46.32954545454545,
                "end_time": 46.39772727272727,
                "pitch": 28,
                "velocity": 101,
                "duration": 0.06818181818182012,
                "tempo": 120.0
            },
            {
                "start_time": 46.429545454545455,
                "end_time": 46.49772727272727,
                "pitch": 28,
                "velocity": 101,
                "duration": 0.06818181818181301,
                "tempo": 120.0
            },
            {
                "start_time": 46.51590909090909,
                "end_time": 46.67727272727272,
                "pitch": 28,
                "velocity": 101,
                "duration": 0.1613636363636317,
                "tempo": 120.0
            },
            {
                "start_time": 46.711363636363636,
                "end_time": 46.85681818181818,
                "pitch": 28,
                "velocity": 101,
                "duration": 0.14545454545454106,
                "tempo": 120.0
            },
            {
                "start_time": 46.88863636363636,
                "end_time": 47.038636363636364,
                "pitch": 28,
                "velocity": 101,
                "duration": 0.15000000000000568,
                "tempo": 120.0
            },
            {
                "start_time": 47.07272727272727,
                "end_time": 47.14090909090909,
                "pitch": 28,
                "velocity": 101,
                "duration": 0.06818181818182012,
                "tempo": 120.0
            },
            {
                "start_time": 47.175,
                "end_time": 47.324999999999996,
                "pitch": 28,
                "velocity": 101,
                "duration": 0.14999999999999858,
                "tempo": 120.0
            },
            {
                "start_time": 47.35909090909091,
                "end_time": 47.425,
                "pitch": 28,
                "velocity": 101,
                "duration": 0.06590909090908781,
                "tempo": 120.0
            },
            {
                "start_time": 47.459090909090904,
                "end_time": 47.527272727272724,
                "pitch": 28,
                "velocity": 101,
                "duration": 0.06818181818182012,
                "tempo": 120.0
            },
            {
                "start_time": 47.56136363636364,
                "end_time": 47.60909090909091,
                "pitch": 28,
                "velocity": 101,
                "duration": 0.04772727272727195,
                "tempo": 120.0
            },
            {
                "start_time": 47.643181818181816,
                "end_time": 47.80681818181818,
                "pitch": 28,
                "velocity": 101,
                "duration": 0.16363636363636402,
                "tempo": 120.0
            },
            {
                "start_time": 47.83863636363636,
                "end_time": 47.88863636363636,
                "pitch": 28,
                "velocity": 101,
                "duration": 0.04999999999999716,
                "tempo": 120.0
            },
            {
                "start_time": 47.92045454545454,
                "end_time": 47.986363636363635,
                "pitch": 28,
                "velocity": 101,
                "duration": 0.06590909090909491,
                "tempo": 120.0
            },
            {
                "start_time": 48.02045454545454,
                "end_time": 48.17272727272727,
                "pitch": 33,
                "velocity": 101,
                "duration": 0.1522727272727309,
                "tempo": 120.0
            },
            {
                "start_time": 48.20681818181818,
                "end_time": 48.37954545454545,
                "pitch": 33,
                "velocity": 101,
                "duration": 0.17272727272727195,
                "tempo": 120.0
            },
            {
                "start_time": 48.39772727272727,
                "end_time": 48.554545454545455,
                "pitch": 33,
                "velocity": 101,
                "duration": 0.1568181818181813,
                "tempo": 120.0
            },
            {
                "start_time": 48.586363636363636,
                "end_time": 48.63409090909091,
                "pitch": 33,
                "velocity": 101,
                "duration": 0.04772727272727195,
                "tempo": 120.0
            },
            {
                "start_time": 48.66590909090909,
                "end_time": 48.82954545454545,
                "pitch": 33,
                "velocity": 101,
                "duration": 0.16363636363636402,
                "tempo": 120.0
            },
            {
                "start_time": 48.861363636363635,
                "end_time": 48.91136363636363,
                "pitch": 33,
                "velocity": 101,
                "duration": 0.04999999999999716,
                "tempo": 120.0
            },
            {
                "start_time": 48.945454545454545,
                "end_time": 49.01363636363636,
                "pitch": 33,
                "velocity": 101,
                "duration": 0.06818181818181301,
                "tempo": 120.0
            },
            {
                "start_time": 49.04772727272727,
                "end_time": 49.11363636363636,
                "pitch": 33,
                "velocity": 101,
                "duration": 0.06590909090908781,
                "tempo": 120.0
            },
            {
                "start_time": 49.14772727272727,
                "end_time": 49.30227272727272,
                "pitch": 33,
                "velocity": 101,
                "duration": 0.154545454545449,
                "tempo": 120.0
            },
            {
                "start_time": 49.336363636363636,
                "end_time": 49.40454545454545,
                "pitch": 33,
                "velocity": 101,
                "duration": 0.06818181818181301,
                "tempo": 120.0
            },
            {
                "start_time": 49.44090909090909,
                "end_time": 49.490909090909085,
                "pitch": 33,
                "velocity": 101,
                "duration": 0.04999999999999716,
                "tempo": 120.0
            },
            {
                "start_time": 49.527272727272724,
                "end_time": 49.68863636363636,
                "pitch": 33,
                "velocity": 101,
                "duration": 0.16136363636363882,
                "tempo": 120.0
            },
            {
                "start_time": 49.70681818181818,
                "end_time": 49.86818181818182,
                "pitch": 33,
                "velocity": 101,
                "duration": 0.16136363636363882,
                "tempo": 120.0
            },
            {
                "start_time": 49.902272727272724,
                "end_time": 50.05227272727272,
                "pitch": 33,
                "velocity": 101,
                "duration": 0.14999999999999858,
                "tempo": 120.0
            },
            {
                "start_time": 50.086363636363636,
                "end_time": 50.152272727272724,
                "pitch": 33,
                "velocity": 101,
                "duration": 0.06590909090908781,
                "tempo": 120.0
            },
            {
                "start_time": 50.18636363636364,
                "end_time": 50.334090909090904,
                "pitch": 33,
                "velocity": 101,
                "duration": 0.14772727272726627,
                "tempo": 120.0
            },
            {
                "start_time": 50.36818181818182,
                "end_time": 50.43181818181818,
                "pitch": 33,
                "velocity": 101,
                "duration": 0.0636363636363626,
                "tempo": 120.0
            },
            {
                "start_time": 50.465909090909086,
                "end_time": 50.51363636363636,
                "pitch": 33,
                "velocity": 101,
                "duration": 0.04772727272727195,
                "tempo": 120.0
            },
            {
                "start_time": 50.54772727272727,
                "end_time": 50.611363636363635,
                "pitch": 33,
                "velocity": 101,
                "duration": 0.0636363636363626,
                "tempo": 120.0
            },
            {
                "start_time": 50.64545454545454,
                "end_time": 50.79545454545454,
                "pitch": 33,
                "velocity": 101,
                "duration": 0.14999999999999858,
                "tempo": 120.0
            },
            {
                "start_time": 50.82954545454545,
                "end_time": 50.89545454545454,
                "pitch": 33,
                "velocity": 101,
                "duration": 0.06590909090908781,
                "tempo": 120.0
            },
            {
                "start_time": 50.929545454545455,
                "end_time": 50.99545454545454,
                "pitch": 33,
                "velocity": 101,
                "duration": 0.06590909090908781,
                "tempo": 120.0
            },
            {
                "start_time": 51.03181818181818,
                "end_time": 51.184090909090905,
                "pitch": 31,
                "velocity": 101,
                "duration": 0.15227272727272378,
                "tempo": 120.0
            },
            {
                "start_time": 51.220454545454544,
                "end_time": 51.375,
                "pitch": 31,
                "velocity": 101,
                "duration": 0.1545454545454561,
                "tempo": 120.0
            },
            {
                "start_time": 51.40909090909091,
                "end_time": 51.56818181818181,
                "pitch": 31,
                "velocity": 101,
                "duration": 0.1590909090909065,
                "tempo": 120.0
            },
            {
                "start_time": 51.584090909090904,
                "end_time": 51.64772727272727,
                "pitch": 31,
                "velocity": 101,
                "duration": 0.06363636363636971,
                "tempo": 120.0
            },
            {
                "start_time": 51.679545454545455,
                "end_time": 51.824999999999996,
                "pitch": 31,
                "velocity": 101,
                "duration": 0.14545454545454106,
                "tempo": 120.0
            },
            {
                "start_time": 51.85681818181818,
                "end_time": 51.925,
                "pitch": 31,
                "velocity": 101,
                "duration": 0.06818181818182012,
                "tempo": 120.0
            },
            {
                "start_time": 51.959090909090904,
                "end_time": 52.025,
                "pitch": 31,
                "velocity": 101,
                "duration": 0.06590909090909491,
                "tempo": 120.0
            },
            {
                "start_time": 52.059090909090905,
                "end_time": 52.10909090909091,
                "pitch": 31,
                "velocity": 101,
                "duration": 0.05000000000000426,
                "tempo": 120.0
            },
            {
                "start_time": 52.143181818181816,
                "end_time": 52.304545454545455,
                "pitch": 31,
                "velocity": 101,
                "duration": 0.16136363636363882,
                "tempo": 120.0
            },
            {
                "start_time": 52.33863636363636,
                "end_time": 52.38636363636363,
                "pitch": 31,
                "velocity": 101,
                "duration": 0.04772727272727195,
                "tempo": 120.0
            },
            {
                "start_time": 52.42045454545454,
                "end_time": 52.48409090909091,
                "pitch": 31,
                "velocity": 101,
                "duration": 0.06363636363636971,
                "tempo": 120.0
            },
            {
                "start_time": 52.518181818181816,
                "end_time": 52.67272727272727,
                "pitch": 31,
                "velocity": 101,
                "duration": 0.1545454545454561,
                "tempo": 120.0
            },
            {
                "start_time": 52.70681818181818,
                "end_time": 52.877272727272725,
                "pitch": 31,
                "velocity": 101,
                "duration": 0.17045454545454675,
                "tempo": 120.0
            },
            {
                "start_time": 52.89545454545454,
                "end_time": 53.054545454545455,
                "pitch": 31,
                "velocity": 101,
                "duration": 0.1590909090909136,
                "tempo": 120.0
            },
            {
                "start_time": 53.086363636363636,
                "end_time": 53.15,
                "pitch": 31,
                "velocity": 101,
                "duration": 0.0636363636363626,
                "tempo": 120.0
            },
            {
                "start_time": 53.16590909090909,
                "end_time": 53.32954545454545,
                "pitch": 31,
                "velocity": 101,
                "duration": 0.16363636363636402,
                "tempo": 120.0
            },
            {
                "start_time": 53.36363636363636,
                "end_time": 53.41590909090909,
                "pitch": 31,
                "velocity": 101,
                "duration": 0.05227272727272947,
                "tempo": 120.0
            },
            {
                "start_time": 53.449999999999996,
                "end_time": 53.518181818181816,
                "pitch": 31,
                "velocity": 101,
                "duration": 0.06818181818182012,
                "tempo": 120.0
            },
            {
                "start_time": 53.55227272727272,
                "end_time": 53.62272727272727,
                "pitch": 31,
                "velocity": 101,
                "duration": 0.07045454545454533,
                "tempo": 120.0
            },
            {
                "start_time": 53.65681818181818,
                "end_time": 53.80681818181818,
                "pitch": 31,
                "velocity": 101,
                "duration": 0.14999999999999858,
                "tempo": 120.0
            },
            {
                "start_time": 53.840909090909086,
                "end_time": 53.90681818181818,
                "pitch": 31,
                "velocity": 101,
                "duration": 0.06590909090909491,
                "tempo": 120.0
            },
            {
                "start_time": 53.94090909090909,
                "end_time": 53.990909090909085,
                "pitch": 31,
                "velocity": 101,
                "duration": 0.04999999999999716,
                "tempo": 120.0
            },
            {
                "start_time": 54.027272727272724,
                "end_time": 54.18863636363636,
                "pitch": 29,
                "velocity": 101,
                "duration": 0.16136363636363882,
                "tempo": 120.0
            },
            {
                "start_time": 54.220454545454544,
                "end_time": 54.36818181818182,
                "pitch": 29,
                "velocity": 101,
                "duration": 0.14772727272727337,
                "tempo": 120.0
            },
            {
                "start_time": 54.4,
                "end_time": 54.55,
                "pitch": 29,
                "velocity": 101,
                "duration": 0.14999999999999858,
                "tempo": 120.0
            },
            {
                "start_time": 54.584090909090904,
                "end_time": 54.652272727272724,
                "pitch": 29,
                "velocity": 101,
                "duration": 0.06818181818182012,
                "tempo": 120.0
            },
            {
                "start_time": 54.68636363636363,
                "end_time": 54.834090909090904,
                "pitch": 29,
                "velocity": 101,
                "duration": 0.14772727272727337,
                "tempo": 120.0
            },
            {
                "start_time": 54.865909090909085,
                "end_time": 54.93181818181818,
                "pitch": 29,
                "velocity": 101,
                "duration": 0.06590909090909491,
                "tempo": 120.0
            },
            {
                "start_time": 54.96363636363636,
                "end_time": 55.01363636363636,
                "pitch": 29,
                "velocity": 101,
                "duration": 0.04999999999999716,
                "tempo": 120.0
            },
            {
                "start_time": 55.04545454545454,
                "end_time": 55.111363636363635,
                "pitch": 29,
                "velocity": 101,
                "duration": 0.06590909090909491,
                "tempo": 120.0
            },
            {
                "start_time": 55.143181818181816,
                "end_time": 55.29772727272727,
                "pitch": 29,
                "velocity": 101,
                "duration": 0.1545454545454561,
                "tempo": 120.0
            },
            {
                "start_time": 55.33181818181818,
                "end_time": 55.4,
                "pitch": 29,
                "velocity": 101,
                "duration": 0.06818181818182012,
                "tempo": 120.0
            },
            {
                "start_time": 55.434090909090905,
                "end_time": 55.50454545454545,
                "pitch": 29,
                "velocity": 101,
                "duration": 0.07045454545454533,
                "tempo": 120.0
            },
            {
                "start_time": 55.538636363636364,
                "end_time": 55.68863636363636,
                "pitch": 29,
                "velocity": 101,
                "duration": 0.14999999999999858,
                "tempo": 120.0
            },
            {
                "start_time": 55.72272727272727,
                "end_time": 55.875,
                "pitch": 29,
                "velocity": 101,
                "duration": 0.1522727272727309,
                "tempo": 120.0
            },
            {
                "start_time": 55.90909090909091,
                "end_time": 56.06590909090909,
                "pitch": 29,
                "velocity": 101,
                "duration": 0.1568181818181813,
                "tempo": 120.0
            },
            {
                "start_time": 56.08181818181818,
                "end_time": 56.14545454545454,
                "pitch": 29,
                "velocity": 101,
                "duration": 0.0636363636363626,
                "tempo": 120.0
            },
            {
                "start_time": 56.17727272727272,
                "end_time": 56.340909090909086,
                "pitch": 29,
                "velocity": 101,
                "duration": 0.16363636363636402,
                "tempo": 120.0
            },
            {
                "start_time": 56.35909090909091,
                "end_time": 56.42727272727272,
                "pitch": 29,
                "velocity": 101,
                "duration": 0.06818181818181301,
                "tempo": 120.0
            },
            {
                "start_time": 56.461363636363636,
                "end_time": 56.53181818181818,
                "pitch": 29,
                "velocity": 101,
                "duration": 0.07045454545454533,
                "tempo": 120.0
            },
            {
                "start_time": 56.56590909090909,
                "end_time": 56.615909090909085,
                "pitch": 29,
                "velocity": 101,
                "duration": 0.04999999999999716,
                "tempo": 120.0
            },
            {
                "start_time": 56.652272727272724,
                "end_time": 56.809090909090905,
                "pitch": 29,
                "velocity": 101,
                "duration": 0.1568181818181813,
                "tempo": 120.0
            },
            {
                "start_time": 56.840909090909086,
                "end_time": 56.88863636363636,
                "pitch": 29,
                "velocity": 101,
                "duration": 0.04772727272727195,
                "tempo": 120.0
            },
            {
                "start_time": 56.92045454545454,
                "end_time": 56.98409090909091,
                "pitch": 29,
                "velocity": 101,
                "duration": 0.06363636363636971,
                "tempo": 120.0
            },
            {
                "start_time": 57.018181818181816,
                "end_time": 57.17045454545454,
                "pitch": 28,
                "velocity": 101,
                "duration": 0.15227272727272378,
                "tempo": 120.0
            },
            {
                "start_time": 57.20454545454545,
                "end_time": 57.377272727272725,
                "pitch": 28,
                "velocity": 101,
                "duration": 0.17272727272727195,
                "tempo": 120.0
            },
            {
                "start_time": 57.41136363636363,
                "end_time": 57.56363636363636,
                "pitch": 28,
                "velocity": 101,
                "duration": 0.1522727272727309,
                "tempo": 120.0
            },
            {
                "start_time": 57.59772727272727,
                "end_time": 57.663636363636364,
                "pitch": 28,
                "velocity": 101,
                "duration": 0.06590909090909491,
                "tempo": 120.0
            },
            {
                "start_time": 57.68181818181818,
                "end_time": 57.845454545454544,
                "pitch": 28,
                "velocity": 101,
                "duration": 0.16363636363636402,
                "tempo": 120.0
            },
            {
                "start_time": 57.87954545454545,
                "end_time": 57.94318181818181,
                "pitch": 28,
                "velocity": 101,
                "duration": 0.0636363636363626,
                "tempo": 120.0
            },
            {
                "start_time": 57.959090909090904,
                "end_time": 58.025,
                "pitch": 28,
                "velocity": 101,
                "duration": 0.06590909090909491,
                "tempo": 120.0
            },
            {
                "start_time": 58.05681818181818,
                "end_time": 58.12272727272727,
                "pitch": 28,
                "velocity": 101,
                "duration": 0.06590909090908781,
                "tempo": 120.0
            },
            {
                "start_time": 58.15454545454545,
                "end_time": 58.30681818181818,
                "pitch": 28,
                "velocity": 101,
                "duration": 0.1522727272727309,
                "tempo": 120.0
            },
            {
                "start_time": 58.33863636363636,
                "end_time": 58.40681818181818,
                "pitch": 28,
                "velocity": 101,
                "duration": 0.06818181818182012,
                "tempo": 120.0
            },
            {
                "start_time": 58.44090909090909,
                "end_time": 58.490909090909085,
                "pitch": 28,
                "velocity": 101,
                "duration": 0.04999999999999716,
                "tempo": 120.0
            },
            {
                "start_time": 58.525,
                "end_time": 58.68636363636363,
                "pitch": 28,
                "velocity": 101,
                "duration": 0.1613636363636317,
                "tempo": 120.0
            },
            {
                "start_time": 58.720454545454544,
                "end_time": 58.865909090909085,
                "pitch": 28,
                "velocity": 101,
                "duration": 0.14545454545454106,
                "tempo": 120.0
            },
            {
                "start_time": 58.9,
                "end_time": 59.05227272727272,
                "pitch": 28,
                "velocity": 101,
                "duration": 0.15227272727272378,
                "tempo": 120.0
            },
            {
                "start_time": 59.08863636363636,
                "end_time": 59.15681818181818,
                "pitch": 28,
                "velocity": 101,
                "duration": 0.06818181818182012,
                "tempo": 120.0
            },
            {
                "start_time": 59.19090909090909,
                "end_time": 59.340909090909086,
                "pitch": 28,
                "velocity": 101,
                "duration": 0.14999999999999858,
                "tempo": 120.0
            },
            {
                "start_time": 59.37272727272727,
                "end_time": 59.43636363636363,
                "pitch": 28,
                "velocity": 101,
                "duration": 0.0636363636363626,
                "tempo": 120.0
            },
            {
                "start_time": 59.46818181818182,
                "end_time": 59.53181818181818,
                "pitch": 28,
                "velocity": 101,
                "duration": 0.0636363636363626,
                "tempo": 120.0
            },
            {
                "start_time": 59.54772727272727,
                "end_time": 59.611363636363635,
                "pitch": 28,
                "velocity": 101,
                "duration": 0.0636363636363626,
                "tempo": 120.0
            },
            {
                "start_time": 59.643181818181816,
                "end_time": 59.79545454545454,
                "pitch": 28,
                "velocity": 101,
                "duration": 0.15227272727272378,
                "tempo": 120.0
            },
            {
                "start_time": 59.83181818181818,
                "end_time": 59.9,
                "pitch": 28,
                "velocity": 101,
                "duration": 0.06818181818182012,
                "tempo": 120.0
            },
            {
                "start_time": 59.934090909090905,
                "end_time": 60.002272727272725,
                "pitch": 28,
                "velocity": 101,
                "duration": 0.06818181818182012,
                "tempo": 120.0
            },
            {
                "start_time": 60.038636363636364,
                "end_time": 60.18863636363636,
                "pitch": 33,
                "velocity": 101,
                "duration": 0.14999999999999858,
                "tempo": 120.0
            },
            {
                "start_time": 60.22272727272727,
                "end_time": 60.37272727272727,
                "pitch": 33,
                "velocity": 101,
                "duration": 0.14999999999999858,
                "tempo": 120.0
            },
            {
                "start_time": 60.40681818181818,
                "end_time": 60.570454545454545,
                "pitch": 33,
                "velocity": 101,
                "duration": 0.16363636363636402,
                "tempo": 120.0
            },
            {
                "start_time": 60.60227272727273,
                "end_time": 60.65,
                "pitch": 33,
                "velocity": 101,
                "duration": 0.04772727272727195,
                "tempo": 120.0
            },
            {
                "start_time": 60.684090909090905,
                "end_time": 60.84772727272727,
                "pitch": 33,
                "velocity": 101,
                "duration": 0.16363636363636402,
                "tempo": 120.0
            },
            {
                "start_time": 60.865909090909085,
                "end_time": 60.93181818181818,
                "pitch": 33,
                "velocity": 101,
                "duration": 0.06590909090909491,
                "tempo": 120.0
            },
            {
                "start_time": 60.965909090909086,
                "end_time": 61.03181818181818,
                "pitch": 33,
                "velocity": 101,
                "duration": 0.06590909090909491,
                "tempo": 120.0
            },
            {
                "start_time": 61.06590909090909,
                "end_time": 61.13409090909091,
                "pitch": 33,
                "velocity": 101,
                "duration": 0.06818181818182012,
                "tempo": 120.0
            },
            {
                "start_time": 61.15,
                "end_time": 61.31363636363636,
                "pitch": 33,
                "velocity": 101,
                "duration": 0.16363636363636402,
                "tempo": 120.0
            },
            {
                "start_time": 61.345454545454544,
                "end_time": 61.393181818181816,
                "pitch": 33,
                "velocity": 101,
                "duration": 0.04772727272727195,
                "tempo": 120.0
            },
            {
                "start_time": 61.42727272727272,
                "end_time": 61.490909090909085,
                "pitch": 33,
                "velocity": 101,
                "duration": 0.0636363636363626,
                "tempo": 120.0
            },
            {
                "start_time": 61.525,
                "end_time": 61.675,
                "pitch": 33,
                "velocity": 101,
                "duration": 0.14999999999999858,
                "tempo": 120.0
            },
            {
                "start_time": 61.709090909090904,
                "end_time": 61.877272727272725,
                "pitch": 33,
                "velocity": 101,
                "duration": 0.16818181818182154,
                "tempo": 120.0
            },
            {
                "start_time": 61.91136363636363,
                "end_time": 62.06136363636363,
                "pitch": 33,
                "velocity": 101,
                "duration": 0.14999999999999858,
                "tempo": 120.0
            },
            {
                "start_time": 62.095454545454544,
                "end_time": 62.16136363636363,
                "pitch": 33,
                "velocity": 101,
                "duration": 0.06590909090908781,
                "tempo": 120.0
            },
            {
                "start_time": 62.195454545454545,
                "end_time": 62.345454545454544,
                "pitch": 33,
                "velocity": 101,
                "duration": 0.14999999999999858,
                "tempo": 120.0
            },
            {
                "start_time": 62.377272727272725,
                "end_time": 62.44318181818181,
                "pitch": 33,
                "velocity": 101,
                "duration": 0.06590909090908781,
                "tempo": 120.0
            },
            {
                "start_time": 62.459090909090904,
                "end_time": 62.522727272727266,
                "pitch": 33,
                "velocity": 101,
                "duration": 0.0636363636363626,
                "tempo": 120.0
            },
            {
                "start_time": 62.55681818181818,
                "end_time": 62.62045454545454,
                "pitch": 33,
                "velocity": 101,
                "duration": 0.0636363636363626,
                "tempo": 120.0
            },
            {
                "start_time": 62.65454545454545,
                "end_time": 62.804545454545455,
                "pitch": 33,
                "velocity": 101,
                "duration": 0.15000000000000568,
                "tempo": 120.0
            },
            {
                "start_time": 62.83863636363636,
                "end_time": 62.90454545454545,
                "pitch": 33,
                "velocity": 101,
                "duration": 0.06590909090908781,
                "tempo": 120.0
            },
            {
                "start_time": 62.93863636363636,
                "end_time": 62.98863636363636,
                "pitch": 33,
                "velocity": 101,
                "duration": 0.04999999999999716,
                "tempo": 120.0
            },
            {
                "start_time": 63.025,
                "end_time": 63.18636363636363,
                "pitch": 33,
                "velocity": 101,
                "duration": 0.1613636363636317,
                "tempo": 120.0
            },
            {
                "start_time": 63.21818181818181,
                "end_time": 63.36363636363636,
                "pitch": 33,
                "velocity": 101,
                "duration": 0.14545454545454817,
                "tempo": 120.0
            },
            {
                "start_time": 63.397727272727266,
                "end_time": 63.54772727272727,
                "pitch": 33,
                "velocity": 101,
                "duration": 0.15000000000000568,
                "tempo": 120.0
            },
            {
                "start_time": 63.58181818181818,
                "end_time": 63.647727272727266,
                "pitch": 33,
                "velocity": 101,
                "duration": 0.06590909090908781,
                "tempo": 120.0
            },
            {
                "start_time": 63.68181818181818,
                "end_time": 63.834090909090904,
                "pitch": 33,
                "velocity": 101,
                "duration": 0.15227272727272378,
                "tempo": 120.0
            },
            {
                "start_time": 63.86818181818182,
                "end_time": 63.934090909090905,
                "pitch": 33,
                "velocity": 101,
                "duration": 0.06590909090908781,
                "tempo": 120.0
            },
            {
                "start_time": 63.96818181818181,
                "end_time": 64.0340909090909,
                "pitch": 33,
                "velocity": 101,
                "duration": 0.06590909090909491,
                "tempo": 120.0
            },
            {
                "start_time": 64.05227272727272,
                "end_time": 64.11818181818181,
                "pitch": 33,
                "velocity": 101,
                "duration": 0.06590909090908781,
                "tempo": 120.0
            },
            {
                "start_time": 64.15227272727273,
                "end_time": 64.32045454545454,
                "pitch": 33,
                "velocity": 101,
                "duration": 0.16818181818180733,
                "tempo": 120.0
            },
            {
                "start_time": 64.33636363636363,
                "end_time": 64.40454545454546,
                "pitch": 33,
                "velocity": 101,
                "duration": 0.06818181818182723,
                "tempo": 120.0
            },
            {
                "start_time": 64.43863636363636,
                "end_time": 64.50454545454545,
                "pitch": 33,
                "velocity": 101,
                "duration": 0.06590909090908781,
                "tempo": 120.0
            },
            {
                "start_time": 64.53863636363636,
                "end_time": 64.68863636363636,
                "pitch": 33,
                "velocity": 101,
                "duration": 0.15000000000000568,
                "tempo": 120.0
            },
            {
                "start_time": 64.72272727272727,
                "end_time": 64.87272727272727,
                "pitch": 33,
                "velocity": 101,
                "duration": 0.15000000000000568,
                "tempo": 120.0
            },
            {
                "start_time": 64.90681818181818,
                "end_time": 65.07045454545454,
                "pitch": 33,
                "velocity": 101,
                "duration": 0.16363636363635692,
                "tempo": 120.0
            },
            {
                "start_time": 65.10227272727272,
                "end_time": 65.15227272727273,
                "pitch": 33,
                "velocity": 101,
                "duration": 0.05000000000001137,
                "tempo": 120.0
            },
            {
                "start_time": 65.18409090909091,
                "end_time": 65.34772727272727,
                "pitch": 33,
                "velocity": 101,
                "duration": 0.16363636363635692,
                "tempo": 120.0
            },
            {
                "start_time": 65.38181818181818,
                "end_time": 65.43181818181817,
                "pitch": 33,
                "velocity": 101,
                "duration": 0.04999999999999716,
                "tempo": 120.0
            },
            {
                "start_time": 65.4659090909091,
                "end_time": 65.5340909090909,
                "pitch": 33,
                "velocity": 101,
                "duration": 0.06818181818181301,
                "tempo": 120.0
            },
            {
                "start_time": 65.56818181818181,
                "end_time": 65.6340909090909,
                "pitch": 33,
                "velocity": 101,
                "duration": 0.06590909090908781,
                "tempo": 120.0
            },
            {
                "start_time": 65.64999999999999,
                "end_time": 65.81363636363636,
                "pitch": 33,
                "velocity": 101,
                "duration": 0.16363636363637113,
                "tempo": 120.0
            },
            {
                "start_time": 65.84545454545454,
                "end_time": 65.91136363636363,
                "pitch": 33,
                "velocity": 101,
                "duration": 0.06590909090908781,
                "tempo": 120.0
            },
            {
                "start_time": 65.92727272727272,
                "end_time": 65.99318181818181,
                "pitch": 33,
                "velocity": 101,
                "duration": 0.06590909090908781,
                "tempo": 120.0
            },
            {
                "start_time": 66.02727272727273,
                "end_time": 66.17954545454545,
                "pitch": 33,
                "velocity": 101,
                "duration": 0.15227272727271668,
                "tempo": 120.0
            }
        ],
        "Violin": [
            {
                "start_time": 0.00909090909090909,
                "end_time": 0.1568181818181818,
                "pitch": 69,
                "velocity": 101,
                "duration": 0.1477272727272727,
                "tempo": 120.0
            },
            {
                "start_time": 0.1909090909090909,
                "end_time": 0.3409090909090909,
                "pitch": 76,
                "velocity": 101,
                "duration": 0.15,
                "tempo": 120.0
            },
            {
                "start_time": 0.375,
                "end_time": 0.5340909090909091,
                "pitch": 81,
                "velocity": 101,
                "duration": 0.15909090909090906,
                "tempo": 120.0
            },
            {
                "start_time": 0.5499999999999999,
                "end_time": 0.7090909090909091,
                "pitch": 69,
                "velocity": 101,
                "duration": 0.15909090909090917,
                "tempo": 120.0
            },
            {
                "start_time": 0.7409090909090909,
                "end_time": 0.8909090909090909,
                "pitch": 76,
                "velocity": 101,
                "duration": 0.15000000000000002,
                "tempo": 120.0
            },
            {
                "start_time": 0.9249999999999999,
                "end_time": 1.075,
                "pitch": 81,
                "velocity": 101,
                "duration": 0.15000000000000002,
                "tempo": 120.0
            },
            {
                "start_time": 1.1090909090909091,
                "end_time": 1.2727272727272727,
                "pitch": 69,
                "velocity": 101,
                "duration": 0.16363636363636358,
                "tempo": 120.0
            },
            {
                "start_time": 1.3045454545454545,
                "end_time": 1.45,
                "pitch": 76,
                "velocity": 101,
                "duration": 0.1454545454545455,
                "tempo": 120.0
            },
            {
                "start_time": 1.4840909090909091,
                "end_time": 1.634090909090909,
                "pitch": 67,
                "velocity": 101,
                "duration": 0.1499999999999999,
                "tempo": 120.0
            },
            {
                "start_time": 1.6681818181818182,
                "end_time": 1.834090909090909,
                "pitch": 71,
                "velocity": 101,
                "duration": 0.16590909090909078,
                "tempo": 120.0
            },
            {
                "start_time": 1.8522727272727273,
                "end_time": 2.0136363636363637,
                "pitch": 74,
                "velocity": 101,
                "duration": 0.16136363636363638,
                "tempo": 120.0
            },
            {
                "start_time": 2.047727272727273,
                "end_time": 2.193181818181818,
                "pitch": 67,
                "velocity": 101,
                "duration": 0.14545454545454506,
                "tempo": 120.0
            },
            {
                "start_time": 2.227272727272727,
                "end_time": 2.377272727272727,
                "pitch": 71,
                "velocity": 101,
                "duration": 0.1499999999999999,
                "tempo": 120.0
            },
            {
                "start_time": 2.411363636363636,
                "end_time": 2.5795454545454546,
                "pitch": 74,
                "velocity": 101,
                "duration": 0.16818181818181843,
                "tempo": 120.0
            },
            {
                "start_time": 2.6136363636363633,
                "end_time": 2.768181818181818,
                "pitch": 67,
                "velocity": 101,
                "duration": 0.15454545454545476,
                "tempo": 120.0
            },
            {
                "start_time": 2.8022727272727272,
                "end_time": 2.9568181818181816,
                "pitch": 71,
                "velocity": 101,
                "duration": 0.15454545454545432,
                "tempo": 120.0
            },
            {
                "start_time": 2.993181818181818,
                "end_time": 3.1545454545454543,
                "pitch": 65,
                "velocity": 101,
                "duration": 0.16136363636363615,
                "tempo": 120.0
            },
            {
                "start_time": 3.186363636363636,
                "end_time": 3.3318181818181816,
                "pitch": 72,
                "velocity": 101,
                "duration": 0.1454545454545455,
                "tempo": 120.0
            },
            {
                "start_time": 3.3659090909090907,
                "end_time": 3.5159090909090907,
                "pitch": 77,
                "velocity": 101,
                "duration": 0.1499999999999999,
                "tempo": 120.0
            },
            {
                "start_time": 3.55,
                "end_time": 3.718181818181818,
                "pitch": 65,
                "velocity": 101,
                "duration": 0.168181818181818,
                "tempo": 120.0
            },
            {
                "start_time": 3.734090909090909,
                "end_time": 3.893181818181818,
                "pitch": 72,
                "velocity": 101,
                "duration": 0.15909090909090917,
                "tempo": 120.0
            },
            {
                "start_time": 3.925,
                "end_time": 4.068181818181818,
                "pitch": 77,
                "velocity": 101,
                "duration": 0.14318181818181852,
                "tempo": 120.0
            },
            {
                "start_time": 4.1,
                "end_time": 4.254545454545454,
                "pitch": 65,
                "velocity": 101,
                "duration": 0.15454545454545432,
                "tempo": 120.0
            },
            {
                "start_time": 4.288636363636363,
                "end_time": 4.461363636363636,
                "pitch": 72,
                "velocity": 101,
                "duration": 0.17272727272727284,
                "tempo": 120.0
            },
            {
                "start_time": 4.497727272727272,
                "end_time": 4.6454545454545455,
                "pitch": 65,
                "velocity": 101,
                "duration": 0.14772727272727337,
                "tempo": 120.0
            },
            {
                "start_time": 4.679545454545455,
                "end_time": 4.829545454545454,
                "pitch": 72,
                "velocity": 101,
                "duration": 0.14999999999999947,
                "tempo": 120.0
            },
            {
                "start_time": 4.863636363636363,
                "end_time": 5.027272727272727,
                "pitch": 77,
                "velocity": 101,
                "duration": 0.16363636363636402,
                "tempo": 120.0
            },
            {
                "start_time": 5.043181818181818,
                "end_time": 5.206818181818181,
                "pitch": 65,
                "velocity": 101,
                "duration": 0.16363636363636314,
                "tempo": 120.0
            },
            {
                "start_time": 5.238636363636363,
                "end_time": 5.388636363636364,
                "pitch": 72,
                "velocity": 101,
                "duration": 0.15000000000000036,
                "tempo": 120.0
            },
            {
                "start_time": 5.425,
                "end_time": 5.574999999999999,
                "pitch": 77,
                "velocity": 101,
                "duration": 0.14999999999999947,
                "tempo": 120.0
            },
            {
                "start_time": 5.6090909090909085,
                "end_time": 5.7704545454545455,
                "pitch": 65,
                "velocity": 101,
                "duration": 0.16136363636363704,
                "tempo": 120.0
            },
            {
                "start_time": 5.804545454545455,
                "end_time": 5.949999999999999,
                "pitch": 72,
                "velocity": 101,
                "duration": 0.14545454545454461,
                "tempo": 120.0
            },
            {
                "start_time": 5.9840909090909085,
                "end_time": 6.131818181818182,
                "pitch": 67,
                "velocity": 101,
                "duration": 0.14772727272727337,
                "tempo": 120.0
            },
            {
                "start_time": 6.165909090909091,
                "end_time": 6.334090909090909,
                "pitch": 71,
                "velocity": 101,
                "duration": 0.168181818181818,
                "tempo": 120.0
            },
            {
                "start_time": 6.368181818181818,
                "end_time": 6.5227272727272725,
                "pitch": 74,
                "velocity": 101,
                "duration": 0.15454545454545432,
                "tempo": 120.0
            },
            {
                "start_time": 6.559090909090909,
                "end_time": 6.711363636363636,
                "pitch": 67,
                "velocity": 101,
                "duration": 0.15227272727272734,
                "tempo": 120.0
            },
            {
                "start_time": 6.745454545454545,
                "end_time": 6.904545454545454,
                "pitch": 71,
                "velocity": 101,
                "duration": 0.15909090909090917,
                "tempo": 120.0
            },
            {
                "start_time": 6.920454545454545,
                "end_time": 7.079545454545454,
                "pitch": 74,
                "velocity": 101,
                "duration": 0.15909090909090917,
                "tempo": 120.0
            },
            {
                "start_time": 7.111363636363636,
                "end_time": 7.265909090909091,
                "pitch": 67,
                "velocity": 101,
                "duration": 0.15454545454545432,
                "tempo": 120.0
            },
            {
                "start_time": 7.3,
                "end_time": 7.454545454545454,
                "pitch": 71,
                "velocity": 101,
                "duration": 0.15454545454545432,
                "tempo": 120.0
            },
            {
                "start_time": 7.49090909090909,
                "end_time": 7.652272727272727,
                "pitch": 67,
                "velocity": 101,
                "duration": 0.16136363636363704,
                "tempo": 120.0
            },
            {
                "start_time": 7.686363636363636,
                "end_time": 7.831818181818181,
                "pitch": 69,
                "velocity": 101,
                "duration": 0.1454545454545455,
                "tempo": 120.0
            },
            {
                "start_time": 7.86590909090909,
                "end_time": 8.01590909090909,
                "pitch": 71,
                "velocity": 101,
                "duration": 0.15000000000000036,
                "tempo": 120.0
            },
            {
                "start_time": 8.049999999999999,
                "end_time": 8.21590909090909,
                "pitch": 72,
                "velocity": 101,
                "duration": 0.165909090909091,
                "tempo": 120.0
            },
            {
                "start_time": 8.23409090909091,
                "end_time": 8.297727272727272,
                "pitch": 74,
                "velocity": 101,
                "duration": 0.0636363636363626,
                "tempo": 120.0
            },
            {
                "start_time": 8.331818181818182,
                "end_time": 8.395454545454545,
                "pitch": 76,
                "velocity": 101,
                "duration": 0.0636363636363626,
                "tempo": 120.0
            },
            {
                "start_time": 8.429545454545455,
                "end_time": 8.493181818181817,
                "pitch": 77,
                "velocity": 101,
                "duration": 0.0636363636363626,
                "tempo": 120.0
            },
            {
                "start_time": 8.511363636363637,
                "end_time": 8.575,
                "pitch": 79,
                "velocity": 101,
                "duration": 0.0636363636363626,
                "tempo": 120.0
            },
            {
                "start_time": 8.60909090909091,
                "end_time": 8.674999999999999,
                "pitch": 77,
                "velocity": 101,
                "duration": 0.06590909090908958,
                "tempo": 120.0
            },
            {
                "start_time": 8.709090909090909,
                "end_time": 8.759090909090908,
                "pitch": 76,
                "velocity": 101,
                "duration": 0.049999999999998934,
                "tempo": 120.0
            },
            {
                "start_time": 8.793181818181818,
                "end_time": 8.85909090909091,
                "pitch": 74,
                "velocity": 101,
                "duration": 0.06590909090909136,
                "tempo": 120.0
            },
            {
                "start_time": 8.893181818181818,
                "end_time": 8.959090909090909,
                "pitch": 79,
                "velocity": 101,
                "duration": 0.06590909090909136,
                "tempo": 120.0
            },
            {
                "start_time": 8.995454545454544,
                "end_time": 9.145454545454545,
                "pitch": 64,
                "velocity": 101,
                "duration": 0.15000000000000036,
                "tempo": 120.0
            },
            {
                "start_time": 9.179545454545455,
                "end_time": 9.329545454545453,
                "pitch": 67,
                "velocity": 101,
                "duration": 0.14999999999999858,
                "tempo": 120.0
            },
            {
                "start_time": 9.363636363636363,
                "end_time": 9.525,
                "pitch": 72,
                "velocity": 101,
                "duration": 0.16136363636363704,
                "tempo": 120.0
            },
            {
                "start_time": 9.559090909090909,
                "end_time": 9.704545454545453,
                "pitch": 64,
                "velocity": 101,
                "duration": 0.14545454545454461,
                "tempo": 120.0
            },
            {
                "start_time": 9.736363636363636,
                "end_time": 9.888636363636364,
                "pitch": 67,
                "velocity": 101,
                "duration": 0.15227272727272734,
                "tempo": 120.0
            },
            {
                "start_time": 9.922727272727272,
                "end_time": 10.088636363636363,
                "pitch": 76,
                "velocity": 101,
                "duration": 0.165909090909091,
                "tempo": 120.0
            },
            {
                "start_time": 10.10681818181818,
                "end_time": 10.268181818181818,
                "pitch": 64,
                "velocity": 101,
                "duration": 0.16136363636363704,
                "tempo": 120.0
            },
            {
                "start_time": 10.302272727272726,
                "end_time": 10.447727272727272,
                "pitch": 68,
                "velocity": 101,
                "duration": 0.1454545454545464,
                "tempo": 120.0
            },
            {
                "start_time": 10.48181818181818,
                "end_time": 10.634090909090908,
                "pitch": 64,
                "velocity": 101,
                "duration": 0.15227272727272734,
                "tempo": 120.0
            },
            {
                "start_time": 10.670454545454545,
                "end_time": 10.84090909090909,
                "pitch": 68,
                "velocity": 101,
                "duration": 0.17045454545454497,
                "tempo": 120.0
            },
            {
                "start_time": 10.875,
                "end_time": 11.027272727272727,
                "pitch": 71,
                "velocity": 101,
                "duration": 0.15227272727272734,
                "tempo": 120.0
            },
            {
                "start_time": 11.061363636363636,
                "end_time": 11.211363636363636,
                "pitch": 64,
                "velocity": 101,
                "duration": 0.15000000000000036,
                "tempo": 120.0
            },
            {
                "start_time": 11.245454545454544,
                "end_time": 11.404545454545454,
                "pitch": 68,
                "velocity": 101,
                "duration": 0.15909090909091006,
                "tempo": 120.0
            },
            {
                "start_time": 11.420454545454545,
                "end_time": 11.577272727272726,
                "pitch": 71,
                "velocity": 101,
                "duration": 0.1568181818181813,
                "tempo": 120.0
            },
            {
                "start_time": 11.611363636363636,
                "end_time": 11.763636363636364,
                "pitch": 64,
                "velocity": 101,
                "duration": 0.15227272727272734,
                "tempo": 120.0
            },
            {
                "start_time": 11.799999999999999,
                "end_time": 11.954545454545453,
                "pitch": 68,
                "velocity": 101,
                "duration": 0.15454545454545432,
                "tempo": 120.0
            },
            {
                "start_time": 11.99090909090909,
                "end_time": 12.152272727272727,
                "pitch": 69,
                "velocity": 101,
                "duration": 0.16136363636363704,
                "tempo": 120.0
            },
            {
                "start_time": 12.184090909090909,
                "end_time": 12.329545454545453,
                "pitch": 76,
                "velocity": 101,
                "duration": 0.14545454545454461,
                "tempo": 120.0
            },
            {
                "start_time": 12.363636363636363,
                "end_time": 12.513636363636364,
                "pitch": 81,
                "velocity": 101,
                "duration": 0.15000000000000036,
                "tempo": 120.0
            },
            {
                "start_time": 12.547727272727272,
                "end_time": 12.71590909090909,
                "pitch": 69,
                "velocity": 101,
                "duration": 0.168181818181818,
                "tempo": 120.0
            },
            {
                "start_time": 12.75,
                "end_time": 12.899999999999999,
                "pitch": 76,
                "velocity": 101,
                "duration": 0.14999999999999858,
                "tempo": 120.0
            },
            {
                "start_time": 12.934090909090909,
                "end_time": 13.084090909090909,
                "pitch": 81,
                "velocity": 101,
                "duration": 0.15000000000000036,
                "tempo": 120.0
            },
            {
                "start_time": 13.118181818181817,
                "end_time": 13.281818181818181,
                "pitch": 69,
                "velocity": 101,
                "duration": 0.16363636363636402,
                "tempo": 120.0
            },
            {
                "start_time": 13.297727272727272,
                "end_time": 13.459090909090909,
                "pitch": 76,
                "velocity": 101,
                "duration": 0.16136363636363704,
                "tempo": 120.0
            },
            {
                "start_time": 13.493181818181817,
                "end_time": 13.645454545454545,
                "pitch": 67,
                "velocity": 101,
                "duration": 0.15227272727272734,
                "tempo": 120.0
            },
            {
                "start_time": 13.681818181818182,
                "end_time": 13.836363636363636,
                "pitch": 71,
                "velocity": 101,
                "duration": 0.15454545454545432,
                "tempo": 120.0
            },
            {
                "start_time": 13.870454545454544,
                "end_time": 14.029545454545454,
                "pitch": 74,
                "velocity": 101,
                "duration": 0.15909090909091006,
                "tempo": 120.0
            },
            {
                "start_time": 14.061363636363636,
                "end_time": 14.204545454545453,
                "pitch": 67,
                "velocity": 101,
                "duration": 0.14318181818181763,
                "tempo": 120.0
            },
            {
                "start_time": 14.236363636363636,
                "end_time": 14.386363636363635,
                "pitch": 71,
                "velocity": 101,
                "duration": 0.14999999999999858,
                "tempo": 120.0
            },
            {
                "start_time": 14.422727272727272,
                "end_time": 14.588636363636363,
                "pitch": 74,
                "velocity": 101,
                "duration": 0.165909090909091,
                "tempo": 120.0
            },
            {
                "start_time": 14.60681818181818,
                "end_time": 14.772727272727272,
                "pitch": 67,
                "velocity": 101,
                "duration": 0.165909090909091,
                "tempo": 120.0
            },
            {
                "start_time": 14.806818181818182,
                "end_time": 14.95681818181818,
                "pitch": 71,
                "velocity": 101,
                "duration": 0.14999999999999858,
                "tempo": 120.0
            },
            {
                "start_time": 14.993181818181817,
                "end_time": 15.14090909090909,
                "pitch": 65,
                "velocity": 101,
                "duration": 0.14772727272727337,
                "tempo": 120.0
            },
            {
                "start_time": 15.174999999999999,
                "end_time": 15.343181818181817,
                "pitch": 72,
                "velocity": 101,
                "duration": 0.168181818181818,
                "tempo": 120.0
            },
            {
                "start_time": 15.377272727272727,
                "end_time": 15.527272727272727,
                "pitch": 77,
                "velocity": 101,
                "duration": 0.15000000000000036,
                "tempo": 120.0
            },
            {
                "start_time": 15.563636363636363,
                "end_time": 15.711363636363636,
                "pitch": 65,
                "velocity": 101,
                "duration": 0.14772727272727337,
                "tempo": 120.0
            },
            {
                "start_time": 15.745454545454544,
                "end_time": 15.909090909090908,
                "pitch": 72,
                "velocity": 101,
                "duration": 0.16363636363636402,
                "tempo": 120.0
            },
            {
                "start_time": 15.94090909090909,
                "end_time": 16.08863636363636,
                "pitch": 77,
                "velocity": 101,
                "duration": 0.1477272727272716,
                "tempo": 120.0
            },
            {
                "start_time": 16.120454545454546,
                "end_time": 16.270454545454545,
                "pitch": 65,
                "velocity": 101,
                "duration": 0.14999999999999858,
                "tempo": 120.0
            },
            {
                "start_time": 16.304545454545455,
                "end_time": 16.472727272727273,
                "pitch": 72,
                "velocity": 101,
                "duration": 0.168181818181818,
                "tempo": 120.0
            },
            {
                "start_time": 16.49090909090909,
                "end_time": 16.652272727272727,
                "pitch": 65,
                "velocity": 101,
                "duration": 0.16136363636363882,
                "tempo": 120.0
            },
            {
                "start_time": 16.68409090909091,
                "end_time": 16.831818181818182,
                "pitch": 72,
                "velocity": 101,
                "duration": 0.14772727272727337,
                "tempo": 120.0
            },
            {
                "start_time": 16.863636363636363,
                "end_time": 17.013636363636362,
                "pitch": 77,
                "velocity": 101,
                "duration": 0.14999999999999858,
                "tempo": 120.0
            },
            {
                "start_time": 17.047727272727272,
                "end_time": 17.21590909090909,
                "pitch": 65,
                "velocity": 101,
                "duration": 0.168181818181818,
                "tempo": 120.0
            },
            {
                "start_time": 17.25,
                "end_time": 17.4,
                "pitch": 72,
                "velocity": 101,
                "duration": 0.14999999999999858,
                "tempo": 120.0
            },
            {
                "start_time": 17.436363636363634,
                "end_time": 17.586363636363636,
                "pitch": 77,
                "velocity": 101,
                "duration": 0.15000000000000213,
                "tempo": 120.0
            },
            {
                "start_time": 17.620454545454546,
                "end_time": 17.786363636363635,
                "pitch": 65,
                "velocity": 101,
                "duration": 0.16590909090908923,
                "tempo": 120.0
            },
            {
                "start_time": 17.804545454545455,
                "end_time": 17.970454545454544,
                "pitch": 72,
                "velocity": 101,
                "duration": 0.16590909090908923,
                "tempo": 120.0
            },
            {
                "start_time": 18.00681818181818,
                "end_time": 18.15681818181818,
                "pitch": 67,
                "velocity": 101,
                "duration": 0.15000000000000213,
                "tempo": 120.0
            },
            {
                "start_time": 18.188636363636363,
                "end_time": 18.34090909090909,
                "pitch": 71,
                "velocity": 101,
                "duration": 0.15227272727272734,
                "tempo": 120.0
            },
            {
                "start_time": 18.375,
                "end_time": 18.536363636363635,
                "pitch": 74,
                "velocity": 101,
                "duration": 0.16136363636363527,
                "tempo": 120.0
            },
            {
                "start_time": 18.570454545454545,
                "end_time": 18.71590909090909,
                "pitch": 67,
                "velocity": 101,
                "duration": 0.14545454545454461,
                "tempo": 120.0
            },
            {
                "start_time": 18.74772727272727,
                "end_time": 18.9,
                "pitch": 71,
                "velocity": 101,
                "duration": 0.15227272727272734,
                "tempo": 120.0
            },
            {
                "start_time": 18.93409090909091,
                "end_time": 19.099999999999998,
                "pitch": 74,
                "velocity": 101,
                "duration": 0.16590909090908923,
                "tempo": 120.0
            },
            {
                "start_time": 19.134090909090908,
                "end_time": 19.284090909090907,
                "pitch": 67,
                "velocity": 101,
                "duration": 0.14999999999999858,
                "tempo": 120.0
            },
            {
                "start_time": 19.318181818181817,
                "end_time": 19.470454545454544,
                "pitch": 71,
                "velocity": 101,
                "duration": 0.15227272727272734,
                "tempo": 120.0
            },
            {
                "start_time": 19.504545454545454,
                "end_time": 19.66590909090909,
                "pitch": 67,
                "velocity": 101,
                "duration": 0.16136363636363527,
                "tempo": 120.0
            },
            {
                "start_time": 19.68181818181818,
                "end_time": 19.845454545454544,
                "pitch": 69,
                "velocity": 101,
                "duration": 0.16363636363636402,
                "tempo": 120.0
            },
            {
                "start_time": 19.879545454545454,
                "end_time": 20.03181818181818,
                "pitch": 71,
                "velocity": 101,
                "duration": 0.15227272727272734,
                "tempo": 120.0
            },
            {
                "start_time": 20.06590909090909,
                "end_time": 20.220454545454544,
                "pitch": 72,
                "velocity": 101,
                "duration": 0.15454545454545254,
                "tempo": 120.0
            },
            {
                "start_time": 20.25681818181818,
                "end_time": 20.320454545454545,
                "pitch": 74,
                "velocity": 101,
                "duration": 0.06363636363636616,
                "tempo": 120.0
            },
            {
                "start_time": 20.352272727272727,
                "end_time": 20.41590909090909,
                "pitch": 76,
                "velocity": 101,
                "duration": 0.0636363636363626,
                "tempo": 120.0
            },
            {
                "start_time": 20.44772727272727,
                "end_time": 20.493181818181817,
                "pitch": 77,
                "velocity": 101,
                "duration": 0.045454545454546746,
                "tempo": 120.0
            },
            {
                "start_time": 20.527272727272727,
                "end_time": 20.58863636363636,
                "pitch": 79,
                "velocity": 101,
                "duration": 0.061363636363633844,
                "tempo": 120.0
            },
            {
                "start_time": 20.620454545454546,
                "end_time": 20.688636363636363,
                "pitch": 77,
                "velocity": 101,
                "duration": 0.06818181818181657,
                "tempo": 120.0
            },
            {
                "start_time": 20.722727272727273,
                "end_time": 20.775,
                "pitch": 76,
                "velocity": 101,
                "duration": 0.052272727272725916,
                "tempo": 120.0
            },
            {
                "start_time": 20.811363636363634,
                "end_time": 20.879545454545454,
                "pitch": 74,
                "velocity": 101,
                "duration": 0.06818181818182012,
                "tempo": 120.0
            },
            {
                "start_time": 20.913636363636364,
                "end_time": 20.98181818181818,
                "pitch": 67,
                "velocity": 101,
                "duration": 0.06818181818181657,
                "tempo": 120.0
            },
            {
                "start_time": 21.0,
                "end_time": 21.15681818181818,
                "pitch": 69,
                "velocity": 101,
                "duration": 0.1568181818181813,
                "tempo": 120.0
            },
            {
                "start_time": 21.19090909090909,
                "end_time": 21.331818181818182,
                "pitch": 76,
                "velocity": 101,
                "duration": 0.14090909090909065,
                "tempo": 120.0
            },
            {
                "start_time": 21.363636363636363,
                "end_time": 21.518181818181816,
                "pitch": 81,
                "velocity": 101,
                "duration": 0.15454545454545254,
                "tempo": 120.0
            },
            {
                "start_time": 21.554545454545455,
                "end_time": 21.724999999999998,
                "pitch": 69,
                "velocity": 101,
                "duration": 0.1704545454545432,
                "tempo": 120.0
            },
            {
                "start_time": 21.759090909090908,
                "end_time": 21.911363636363635,
                "pitch": 76,
                "velocity": 101,
                "duration": 0.15227272727272734,
                "tempo": 120.0
            },
            {
                "start_time": 21.945454545454545,
                "end_time": 22.095454545454544,
                "pitch": 81,
                "velocity": 101,
                "duration": 0.14999999999999858,
                "tempo": 120.0
            },
            {
                "start_time": 22.129545454545454,
                "end_time": 22.29090909090909,
                "pitch": 69,
                "velocity": 101,
                "duration": 0.16136363636363527,
                "tempo": 120.0
            },
            {
                "start_time": 22.325,
                "end_time": 22.470454545454544,
                "pitch": 76,
                "velocity": 101,
                "duration": 0.14545454545454461,
                "tempo": 120.0
            },
            {
                "start_time": 22.504545454545454,
                "end_time": 22.654545454545453,
                "pitch": 69,
                "velocity": 101,
                "duration": 0.14999999999999858,
                "tempo": 120.0
            },
            {
                "start_time": 22.688636363636363,
                "end_time": 22.854545454545452,
                "pitch": 76,
                "velocity": 101,
                "duration": 0.16590909090908923,
                "tempo": 120.0
            },
            {
                "start_time": 22.87272727272727,
                "end_time": 23.034090909090907,
                "pitch": 81,
                "velocity": 101,
                "duration": 0.16136363636363527,
                "tempo": 120.0
            },
            {
                "start_time": 23.068181818181817,
                "end_time": 23.21363636363636,
                "pitch": 69,
                "velocity": 101,
                "duration": 0.14545454545454461,
                "tempo": 120.0
            },
            {
                "start_time": 23.24772727272727,
                "end_time": 23.39772727272727,
                "pitch": 76,
                "velocity": 101,
                "duration": 0.14999999999999858,
                "tempo": 120.0
            },
            {
                "start_time": 23.43181818181818,
                "end_time": 23.599999999999998,
                "pitch": 81,
                "velocity": 101,
                "duration": 0.168181818181818,
                "tempo": 120.0
            },
            {
                "start_time": 23.634090909090908,
                "end_time": 23.68409090909091,
                "pitch": 69,
                "velocity": 101,
                "duration": 0.05000000000000071,
                "tempo": 120.0
            },
            {
                "start_time": 23.71818181818182,
                "end_time": 23.786363636363635,
                "pitch": 71,
                "velocity": 101,
                "duration": 0.06818181818181657,
                "tempo": 120.0
            },
            {
                "start_time": 23.82272727272727,
                "end_time": 23.89090909090909,
                "pitch": 72,
                "velocity": 101,
                "duration": 0.06818181818182012,
                "tempo": 120.0
            },
            {
                "start_time": 23.924999999999997,
                "end_time": 23.977272727272727,
                "pitch": 69,
                "velocity": 101,
                "duration": 0.05227272727272947,
                "tempo": 120.0
            },
            {
                "start_time": 66.02954545454546,
                "end_time": 66.17954545454545,
                "pitch": 69,
                "velocity": 101,
                "duration": 0.14999999999999147,
                "tempo": 120.0
            }
        ],
        "Acoustic Grand Piano": [
            {
                "start_time": 0.011363636363636364,
                "end_time": 1.45,
                "pitch": 64,
                "velocity": 64,
                "duration": 1.4386363636363635,
                "tempo": 120.0
            },
            {
                "start_time": 1.4863636363636363,
                "end_time": 2.193181818181818,
                "pitch": 62,
                "velocity": 64,
                "duration": 0.7068181818181816,
                "tempo": 120.0
            },
            {
                "start_time": 2.4136363636363636,
                "end_time": 2.9568181818181816,
                "pitch": 62,
                "velocity": 64,
                "duration": 0.543181818181818,
                "tempo": 120.0
            },
            {
                "start_time": 2.993181818181818,
                "end_time": 3.5159090909090907,
                "pitch": 62,
                "velocity": 64,
                "duration": 0.5227272727272725,
                "tempo": 120.0
            },
            {
                "start_time": 3.5522727272727272,
                "end_time": 5.949999999999999,
                "pitch": 60,
                "velocity": 64,
                "duration": 2.397727272727272,
                "tempo": 120.0
            },
            {
                "start_time": 5.9840909090909085,
                "end_time": 7.456818181818181,
                "pitch": 62,
                "velocity": 64,
                "duration": 1.4727272727272727,
                "tempo": 120.0
            },
            {
                "start_time": 7.493181818181818,
                "end_time": 8.218181818181817,
                "pitch": 62,
                "velocity": 64,
                "duration": 0.7249999999999988,
                "tempo": 120.0
            },
            {
                "start_time": 8.795454545454545,
                "end_time": 10.268181818181818,
                "pitch": 64,
                "velocity": 64,
                "duration": 1.4727272727272727,
                "tempo": 120.0
            },
            {
                "start_time": 10.302272727272726,
                "end_time": 11.76590909090909,
                "pitch": 68,
                "velocity": 64,
                "duration": 1.4636363636363647,
                "tempo": 120.0
            },
            {
                "start_time": 11.99090909090909,
                "end_time": 13.459090909090909,
                "pitch": 64,
                "velocity": 64,
                "duration": 1.4681818181818187,
                "tempo": 120.0
            },
            {
                "start_time": 13.495454545454544,
                "end_time": 14.204545454545453,
                "pitch": 62,
                "velocity": 64,
                "duration": 0.709090909090909,
                "tempo": 120.0
            },
            {
                "start_time": 14.422727272727272,
                "end_time": 14.959090909090909,
                "pitch": 62,
                "velocity": 64,
                "duration": 0.536363636363637,
                "tempo": 120.0
            },
            {
                "start_time": 14.993181818181817,
                "end_time": 15.529545454545454,
                "pitch": 62,
                "velocity": 64,
                "duration": 0.536363636363637,
                "tempo": 120.0
            },
            {
                "start_time": 15.563636363636363,
                "end_time": 17.972727272727273,
                "pitch": 60,
                "velocity": 64,
                "duration": 2.40909090909091,
                "tempo": 120.0
            },
            {
                "start_time": 18.00681818181818,
                "end_time": 19.470454545454544,
                "pitch": 62,
                "velocity": 64,
                "duration": 1.4636363636363647,
                "tempo": 120.0
            },
            {
                "start_time": 19.50681818181818,
                "end_time": 20.222727272727273,
                "pitch": 62,
                "velocity": 64,
                "duration": 0.7159090909090935,
                "tempo": 120.0
            },
            {
                "start_time": 20.811363636363634,
                "end_time": 22.293181818181818,
                "pitch": 64,
                "velocity": 64,
                "duration": 1.4818181818181841,
                "tempo": 120.0
            },
            {
                "start_time": 22.325,
                "end_time": 23.788636363636364,
                "pitch": 64,
                "velocity": 64,
                "duration": 1.4636363636363647,
                "tempo": 120.0
            },
            {
                "start_time": 66.03181818181818,
                "end_time": 66.17954545454545,
                "pitch": 64,
                "velocity": 64,
                "duration": 0.14772727272726627,
                "tempo": 120.0
            }
        ],
        "Clarinet": [
            {
                "start_time": 24.01590909090909,
                "end_time": 24.174999999999997,
                "pitch": 77,
                "velocity": 40,
                "duration": 0.1590909090909065,
                "tempo": 120.0
            },
            {
                "start_time": 24.388636363636362,
                "end_time": 25.28181818181818,
                "pitch": 77,
                "velocity": 40,
                "duration": 0.8931818181818194,
                "tempo": 120.0
            },
            {
                "start_time": 25.31590909090909,
                "end_time": 26.79090909090909,
                "pitch": 79,
                "velocity": 40,
                "duration": 1.4749999999999979,
                "tempo": 120.0
            },
            {
                "start_time": 27.004545454545454,
                "end_time": 27.15681818181818,
                "pitch": 76,
                "velocity": 40,
                "duration": 0.15227272727272734,
                "tempo": 120.0
            },
            {
                "start_time": 27.38181818181818,
                "end_time": 28.293181818181818,
                "pitch": 76,
                "velocity": 40,
                "duration": 0.9113636363636388,
                "tempo": 120.0
            },
            {
                "start_time": 28.327272727272724,
                "end_time": 29.779545454545453,
                "pitch": 81,
                "velocity": 40,
                "duration": 1.452272727272728,
                "tempo": 120.0
            },
            {
                "start_time": 30.018181818181816,
                "end_time": 30.168181818181818,
                "pitch": 77,
                "velocity": 40,
                "duration": 0.15000000000000213,
                "tempo": 120.0
            },
            {
                "start_time": 30.395454545454545,
                "end_time": 31.299999999999997,
                "pitch": 77,
                "velocity": 40,
                "duration": 0.9045454545454525,
                "tempo": 120.0
            },
            {
                "start_time": 31.334090909090907,
                "end_time": 32.788636363636364,
                "pitch": 79,
                "velocity": 40,
                "duration": 1.4545454545454568,
                "tempo": 120.0
            },
            {
                "start_time": 33.00909090909091,
                "end_time": 33.17045454545455,
                "pitch": 76,
                "velocity": 40,
                "duration": 0.16136363636363882,
                "tempo": 120.0
            },
            {
                "start_time": 33.38409090909091,
                "end_time": 34.275,
                "pitch": 76,
                "velocity": 40,
                "duration": 0.8909090909090907,
                "tempo": 120.0
            },
            {
                "start_time": 34.31136363636364,
                "end_time": 35.793181818181814,
                "pitch": 76,
                "velocity": 40,
                "duration": 1.481818181818177,
                "tempo": 120.0
            }
        ]
    }
}