{
    "track_id": "10 - Game de check! Koutsuu Anzen (FM) - Pyonko-Chan - Well Done",
    "mood": "happy",
    "instruments": {
        "Church Organ": [
            {
                "start_time": 0.0,
                "end_time": 0.09999999999999999,
                "pitch": 82,
                "velocity": 64,
                "duration": 0.09999999999999999,
                "tempo": 120.0
            },
            {
                "start_time": 0.11818181818181818,
                "end_time": 0.23409090909090907,
                "pitch": 82,
                "velocity": 64,
                "duration": 0.11590909090909089,
                "tempo": 120.0
            },
            {
                "start_time": 0.25227272727272726,
                "end_time": 0.36818181818181817,
                "pitch": 82,
                "velocity": 64,
                "duration": 0.1159090909090909,
                "tempo": 120.0
            },
            {
                "start_time": 0.38636363636363635,
                "end_time": 0.6363636363636364,
                "pitch": 84,
                "velocity": 64,
                "duration": 0.25,
                "tempo": 120.0
            },
            {
                "start_time": 0.6545454545454545,
                "end_time": 0.7704545454545454,
                "pitch": 84,
                "velocity": 64,
                "duration": 0.11590909090909085,
                "tempo": 120.0
            },
            {
                "start_time": 0.7886363636363636,
                "end_time": 1.284090909090909,
                "pitch": 86,
                "velocity": 64,
                "duration": 0.49545454545454537,
                "tempo": 120.0
            },
            {
                "start_time": 1.3181818181818181,
                "end_time": 1.5522727272727272,
                "pitch": 86,
                "velocity": 64,
                "duration": 0.23409090909090913,
                "tempo": 120.0
            },
            {
                "start_time": 1.5863636363636362,
                "end_time": 2.0886363636363634,
                "pitch": 84,
                "velocity": 64,
                "duration": 0.5022727272727272,
                "tempo": 120.0
            },
            {
                "start_time": 2.1227272727272726,
                "end_time": 2.359090909090909,
                "pitch": 84,
                "velocity": 64,
                "duration": 0.23636363636363633,
                "tempo": 120.0
            },
            {
                "start_time": 2.3909090909090907,
                "end_time": 2.6227272727272726,
                "pitch": 82,
                "velocity": 64,
                "duration": 0.23181818181818192,
                "tempo": 120.0
            },
            {
                "start_time": 2.6568181818181817,
                "end_time": 2.8886363636363637,
                "pitch": 82,
                "velocity": 64,
                "duration": 0.23181818181818192,
                "tempo": 120.0
            },
            {
                "start_time": 2.9204545454545454,
                "end_time": 3.1522727272727273,
                "pitch": 82,
                "velocity": 64,
                "duration": 0.23181818181818192,
                "tempo": 120.0
            },
            {
                "start_time": 3.186363636363636,
                "end_time": 3.6818181818181817,
                "pitch": 84,
                "velocity": 64,
                "duration": 0.4954545454545456,
                "tempo": 120.0
            },
            {
                "start_time": 3.715909090909091,
                "end_time": 3.9477272727272728,
                "pitch": 84,
                "velocity": 64,
                "duration": 0.23181818181818192,
                "tempo": 120.0
            },
            {
                "start_time": 3.9795454545454545,
                "end_time": 4.4840909090909085,
                "pitch": 86,
                "velocity": 64,
                "duration": 0.504545454545454,
                "tempo": 120.0
            },
            {
                "start_time": 4.518181818181818,
                "end_time": 4.752272727272727,
                "pitch": 86,
                "velocity": 64,
                "duration": 0.23409090909090935,
                "tempo": 120.0
            },
            {
                "start_time": 4.786363636363636,
                "end_time": 5.288636363636363,
                "pitch": 86,
                "velocity": 64,
                "duration": 0.502272727272727,
                "tempo": 120.0
            },
            {
                "start_time": 5.322727272727272,
                "end_time": 5.556818181818182,
                "pitch": 86,
                "velocity": 64,
                "duration": 0.23409090909090935,
                "tempo": 120.0
            },
            {
                "start_time": 5.590909090909091,
                "end_time": 8.818181818181818,
                "pitch": 87,
                "velocity": 64,
                "duration": 3.2272727272727275,
                "tempo": 120.0
            }
        ],
        "Acoustic Bass": [
            {
                "start_time": 0.0,
                "end_time": 0.09999999999999999,
                "pitch": 79,
                "velocity": 51,
                "duration": 0.09999999999999999,
                "tempo": 120.0
            },
            {
                "start_time": 0.11818181818181818,
                "end_time": 0.23409090909090907,
                "pitch": 79,
                "velocity": 51,
                "duration": 0.11590909090909089,
                "tempo": 120.0
            },
            {
                "start_time": 0.25227272727272726,
                "end_time": 0.36818181818181817,
                "pitch": 79,
                "velocity": 51,
                "duration": 0.1159090909090909,
                "tempo": 120.0
            },
            {
                "start_time": 0.38636363636363635,
                "end_time": 0.6363636363636364,
                "pitch": 80,
                "velocity": 51,
                "duration": 0.25,
                "tempo": 120.0
            },
            {
                "start_time": 0.6545454545454545,
                "end_time": 0.7704545454545454,
                "pitch": 80,
                "velocity": 51,
                "duration": 0.11590909090909085,
                "tempo": 120.0
            },
            {
                "start_time": 0.7886363636363636,
                "end_time": 1.284090909090909,
                "pitch": 82,
                "velocity": 51,
                "duration": 0.49545454545454537,
                "tempo": 120.0
            },
            {
                "start_time": 1.3181818181818181,
                "end_time": 1.5522727272727272,
                "pitch": 82,
                "velocity": 51,
                "duration": 0.23409090909090913,
                "tempo": 120.0
            },
            {
                "start_time": 1.5863636363636362,
                "end_time": 2.0886363636363634,
                "pitch": 80,
                "velocity": 51,
                "duration": 0.5022727272727272,
                "tempo": 120.0
            },
            {
                "start_time": 2.1227272727272726,
                "end_time": 2.359090909090909,
                "pitch": 80,
                "velocity": 51,
                "duration": 0.23636363636363633,
                "tempo": 120.0
            },
            {
                "start_time": 2.3909090909090907,
                "end_time": 2.6227272727272726,
                "pitch": 79,
                "velocity": 51,
                "duration": 0.23181818181818192,
                "tempo": 120.0
            },
            {
                "start_time": 2.6568181818181817,
                "end_time": 2.8886363636363637,
                "pitch": 79,
                "velocity": 51,
                "duration": 0.23181818181818192,
                "tempo": 120.0
            },
            {
                "start_time": 2.9204545454545454,
                "end_time": 3.1522727272727273,
                "pitch": 79,
                "velocity": 51,
                "duration": 0.23181818181818192,
                "tempo": 120.0
            },
            {
                "start_time": 3.186363636363636,
                "end_time": 3.6818181818181817,
                "pitch": 80,
                "velocity": 51,
                "duration": 0.4954545454545456,
                "tempo": 120.0
            },
            {
                "start_time": 3.715909090909091,
                "end_time": 3.9477272727272728,
                "pitch": 80,
                "velocity": 51,
                "duration": 0.23181818181818192,
                "tempo": 120.0
            },
            {
                "start_time": 3.9795454545454545,
                "end_time": 4.4840909090909085,
                "pitch": 82,
                "velocity": 51,
                "duration": 0.504545454545454,
                "tempo": 120.0
            },
            {
                "start_time": 4.518181818181818,
                "end_time": 4.752272727272727,
                "pitch": 82,
                "velocity": 51,
                "duration": 0.23409090909090935,
                "tempo": 120.0
            },
            {
                "start_time": 4.786363636363636,
                "end_time": 5.288636363636363,
                "pitch": 82,
                "velocity": 51,
                "duration": 0.502272727272727,
                "tempo": 120.0
            },
            {
                "start_time": 5.322727272727272,
                "end_time": 5.556818181818182,
                "pitch": 82,
                "velocity": 51,
                "duration": 0.23409090909090935,
                "tempo": 120.0
            },
            {
                "start_time": 5.590909090909091,
                "end_time": 8.818181818181818,
                "pitch": 82,
                "velocity": 51,
                "duration": 3.2272727272727275,
                "tempo": 120.0
            }
        ],
        "Flute": [
            {
                "start_time": 0.0,
                "end_time": 0.09999999999999999,
                "pitch": 75,
                "velocity": 40,
                "duration": 0.09999999999999999,
                "tempo": 120.0
            },
            {
                "start_time": 0.11818181818181818,
                "end_time": 0.23409090909090907,
                "pitch": 75,
                "velocity": 40,
                "duration": 0.11590909090909089,
                "tempo": 120.0
            },
            {
                "start_time": 0.25227272727272726,
                "end_time": 0.36818181818181817,
                "pitch": 75,
                "velocity": 40,
                "duration": 0.1159090909090909,
                "tempo": 120.0
            },
            {
                "start_time": 0.38636363636363635,
                "end_time": 0.6363636363636364,
                "pitch": 77,
                "velocity": 40,
                "duration": 0.25,
                "tempo": 120.0
            },
            {
                "start_time": 0.6545454545454545,
                "end_time": 0.7704545454545454,
                "pitch": 77,
                "velocity": 40,
                "duration": 0.11590909090909085,
                "tempo": 120.0
            },
            {
                "start_time": 0.7886363636363636,
                "end_time": 1.284090909090909,
                "pitch": 77,
                "velocity": 40,
                "duration": 0.49545454545454537,
                "tempo": 120.0
            },
            {
                "start_time": 1.3181818181818181,
                "end_time": 1.5522727272727272,
                "pitch": 77,
                "velocity": 40,
                "duration": 0.23409090909090913,
                "tempo": 120.0
            },
            {
                "start_time": 1.5863636363636362,
                "end_time": 2.0886363636363634,
                "pitch": 75,
                "velocity": 40,
                "duration": 0.5022727272727272,
                "tempo": 120.0
            },
            {
                "start_time": 2.1227272727272726,
                "end_time": 2.359090909090909,
                "pitch": 75,
                "velocity": 40,
                "duration": 0.23636363636363633,
                "tempo": 120.0
            },
            {
                "start_time": 2.3909090909090907,
                "end_time": 2.6227272727272726,
                "pitch": 75,
                "velocity": 40,
                "duration": 0.23181818181818192,
                "tempo": 120.0
            },
            {
                "start_time": 2.6568181818181817,
                "end_time": 2.8886363636363637,
                "pitch": 75,
                "velocity": 40,
                "duration": 0.23181818181818192,
                "tempo": 120.0
            },
            {
                "start_time": 2.9204545454545454,
                "end_time": 3.1522727272727273,
                "pitch": 75,
                "velocity": 40,
                "duration": 0.23181818181818192,
                "tempo": 120.0
            },
            {
                "start_time": 3.186363636363636,
                "end_time": 3.6818181818181817,
                "pitch": 77,
                "velocity": 40,
                "duration": 0.4954545454545456,
                "tempo": 120.0
            },
            {
                "start_time": 3.715909090909091,
                "end_time": 3.9477272727272728,
                "pitch": 77,
                "velocity": 40,
                "duration": 0.23181818181818192,
                "tempo": 120.0
            },
            {
                "start_time": 3.9795454545454545,
                "end_time": 4.4840909090909085,
                "pitch": 77,
                "velocity": 40,
                "duration": 0.504545454545454,
                "tempo": 120.0
            },
            {
                "start_time": 4.518181818181818,
                "end_time": 4.752272727272727,
                "pitch": 77,
                "velocity": 40,
                "duration": 0.23409090909090935,
                "tempo": 120.0
            },
            {
                "start_time": 4.786363636363636,
                "end_time": 5.288636363636363,
                "pitch": 77,
                "velocity": 40,
                "duration": 0.502272727272727,
                "tempo": 120.0
            },
            {
                "start_time": 5.322727272727272,
                "end_time": 5.556818181818182,
                "pitch": 77,
                "velocity": 40,
                "duration": 0.23409090909090935,
                "tempo": 120.0
            },
            {
                "start_time": 5.590909090909091,
                "end_time": 8.818181818181818,
                "pitch": 79,
                "velocity": 40,
                "duration": 3.2272727272727275,
                "tempo": 120.0
            }
        ]
    }
}