{
    "track_id": "10 Castle",
    "mood": "happy",
    "instruments": {
        "Trumpet": [
            {
                "start_time": 0.1659090909090909,
                "end_time": 0.2818181818181818,
                "pitch": 60,
                "velocity": 51,
                "duration": 0.1159090909090909,
                "tempo": 120.0
            },
            {
                "start_time": 0.3318181818181818,
                "end_time": 0.33409090909090905,
                "pitch": 60,
                "velocity": 51,
                "duration": 0.0022727272727272596,
                "tempo": 120.0
            },
            {
                "start_time": 0.33409090909090905,
                "end_time": 0.44999999999999996,
                "pitch": 64,
                "velocity": 51,
                "duration": 0.1159090909090909,
                "tempo": 120.0
            },
            {
                "start_time": 0.5,
                "end_time": 0.6159090909090909,
                "pitch": 67,
                "velocity": 51,
                "duration": 0.11590909090909085,
                "tempo": 120.0
            },
            {
                "start_time": 0.6659090909090909,
                "end_time": 1.6204545454545454,
                "pitch": 72,
                "velocity": 51,
                "duration": 0.9545454545454545,
                "tempo": 120.0
            },
            {
                "start_time": 1.6704545454545454,
                "end_time": 2.131818181818182,
                "pitch": 71,
                "velocity": 51,
                "duration": 0.4613636363636364,
                "tempo": 120.0
            },
            {
                "start_time": 2.1818181818181817,
                "end_time": 2.631818181818182,
                "pitch": 64,
                "velocity": 51,
                "duration": 0.4500000000000002,
                "tempo": 120.0
            },
            {
                "start_time": 0.5,
                "end_time": 2.6818181818181817,
                "pitch": 77,
                "velocity": 51,
                "duration": 2.1818181818181817,
                "tempo": 120.0
            },
            {
                "start_time": 2.6818181818181817,
                "end_time": 4.134090909090909,
                "pitch": 69,
                "velocity": 51,
                "duration": 1.4522727272727272,
                "tempo": 120.0
            },
            {
                "start_time": 4.184090909090909,
                "end_time": 4.3,
                "pitch": 64,
                "velocity": 51,
                "duration": 0.11590909090909118,
                "tempo": 120.0
            },
            {
                "start_time": 4.352272727272727,
                "end_time": 4.468181818181818,
                "pitch": 64,
                "velocity": 51,
                "duration": 0.11590909090909118,
                "tempo": 120.0
            },
            {
                "start_time": 4.518181818181818,
                "end_time": 4.634090909090909,
                "pitch": 67,
                "velocity": 51,
                "duration": 0.11590909090909118,
                "tempo": 120.0
            },
            {
                "start_time": 4.684090909090909,
                "end_time": 5.252272727272727,
                "pitch": 67,
                "velocity": 51,
                "duration": 0.5681818181818183,
                "tempo": 120.0
            },
            {
                "start_time": 5.252272727272727,
                "end_time": 5.468181818181818,
                "pitch": 69,
                "velocity": 51,
                "duration": 0.21590909090909083,
                "tempo": 120.0
            },
            {
                "start_time": 4.184090909090909,
                "end_time": 5.5204545454545455,
                "pitch": 30,
                "velocity": 51,
                "duration": 1.3363636363636369,
                "tempo": 120.0
            },
            {
                "start_time": 5.5204545454545455,
                "end_time": 5.636363636363636,
                "pitch": 60,
                "velocity": 51,
                "duration": 0.1159090909090903,
                "tempo": 120.0
            },
            {
                "start_time": 5.6863636363636365,
                "end_time": 6.138636363636364,
                "pitch": 60,
                "velocity": 51,
                "duration": 0.45227272727272716,
                "tempo": 120.0
            },
            {
                "start_time": 6.1909090909090905,
                "end_time": 6.6499999999999995,
                "pitch": 62,
                "velocity": 51,
                "duration": 0.459090909090909,
                "tempo": 120.0
            },
            {
                "start_time": 2.6818181818181817,
                "end_time": 6.699999999999999,
                "pitch": 77,
                "velocity": 51,
                "duration": 4.018181818181818,
                "tempo": 120.0
            },
            {
                "start_time": 0.6659090909090909,
                "end_time": 7.329545454545454,
                "pitch": 0,
                "velocity": 51,
                "duration": 6.663636363636363,
                "tempo": 120.0
            },
            {
                "start_time": 6.699999999999999,
                "end_time": 7.329545454545454,
                "pitch": 67,
                "velocity": 51,
                "duration": 0.6295454545454549,
                "tempo": 120.0
            },
            {
                "start_time": 7.329545454545454,
                "end_time": 7.379545454545454,
                "pitch": 67,
                "velocity": 51,
                "duration": 0.04999999999999982,
                "tempo": 120.0
            },
            {
                "start_time": 7.329545454545454,
                "end_time": 7.461363636363636,
                "pitch": 0,
                "velocity": 51,
                "duration": 0.13181818181818183,
                "tempo": 120.0
            },
            {
                "start_time": 7.379545454545454,
                "end_time": 7.461363636363636,
                "pitch": 67,
                "velocity": 51,
                "duration": 0.08181818181818201,
                "tempo": 120.0
            },
            {
                "start_time": 7.461363636363636,
                "end_time": 7.509090909090909,
                "pitch": 67,
                "velocity": 51,
                "duration": 0.04772727272727284,
                "tempo": 120.0
            },
            {
                "start_time": 7.379545454545454,
                "end_time": 7.509090909090909,
                "pitch": 79,
                "velocity": 51,
                "duration": 0.12954545454545485,
                "tempo": 120.0
            },
            {
                "start_time": 7.461363636363636,
                "end_time": 7.593181818181818,
                "pitch": 0,
                "velocity": 51,
                "duration": 0.13181818181818183,
                "tempo": 120.0
            },
            {
                "start_time": 7.509090909090909,
                "end_time": 7.593181818181818,
                "pitch": 67,
                "velocity": 51,
                "duration": 0.084090909090909,
                "tempo": 120.0
            },
            {
                "start_time": 7.593181818181818,
                "end_time": 7.643181818181818,
                "pitch": 67,
                "velocity": 51,
                "duration": 0.04999999999999982,
                "tempo": 120.0
            },
            {
                "start_time": 7.509090909090909,
                "end_time": 7.643181818181818,
                "pitch": 79,
                "velocity": 51,
                "duration": 0.13409090909090882,
                "tempo": 120.0
            },
            {
                "start_time": 7.593181818181818,
                "end_time": 7.727272727272727,
                "pitch": 0,
                "velocity": 51,
                "duration": 0.13409090909090882,
                "tempo": 120.0
            },
            {
                "start_time": 7.643181818181818,
                "end_time": 7.727272727272727,
                "pitch": 67,
                "velocity": 51,
                "duration": 0.084090909090909,
                "tempo": 120.0
            },
            {
                "start_time": 7.727272727272727,
                "end_time": 7.777272727272727,
                "pitch": 67,
                "velocity": 51,
                "duration": 0.05000000000000071,
                "tempo": 120.0
            },
            {
                "start_time": 7.643181818181818,
                "end_time": 7.777272727272727,
                "pitch": 79,
                "velocity": 51,
                "duration": 0.1340909090909097,
                "tempo": 120.0
            },
            {
                "start_time": 7.727272727272727,
                "end_time": 7.8590909090909085,
                "pitch": 0,
                "velocity": 51,
                "duration": 0.13181818181818183,
                "tempo": 120.0
            },
            {
                "start_time": 7.777272727272727,
                "end_time": 7.8590909090909085,
                "pitch": 67,
                "velocity": 51,
                "duration": 0.08181818181818112,
                "tempo": 120.0
            },
            {
                "start_time": 7.8590909090909085,
                "end_time": 7.909090909090908,
                "pitch": 67,
                "velocity": 51,
                "duration": 0.04999999999999982,
                "tempo": 120.0
            },
            {
                "start_time": 7.777272727272727,
                "end_time": 7.911363636363636,
                "pitch": 79,
                "velocity": 51,
                "duration": 0.13409090909090882,
                "tempo": 120.0
            },
            {
                "start_time": 7.909090909090908,
                "end_time": 7.911363636363636,
                "pitch": 79,
                "velocity": 51,
                "duration": 0.0022727272727278702,
                "tempo": 120.0
            },
            {
                "start_time": 7.8590909090909085,
                "end_time": 7.993181818181818,
                "pitch": 0,
                "velocity": 51,
                "duration": 0.1340909090909097,
                "tempo": 120.0
            },
            {
                "start_time": 7.911363636363636,
                "end_time": 7.993181818181818,
                "pitch": 67,
                "velocity": 51,
                "duration": 0.08181818181818201,
                "tempo": 120.0
            },
            {
                "start_time": 7.993181818181818,
                "end_time": 8.043181818181818,
                "pitch": 67,
                "velocity": 51,
                "duration": 0.04999999999999982,
                "tempo": 120.0
            },
            {
                "start_time": 7.993181818181818,
                "end_time": 8.127272727272727,
                "pitch": 0,
                "velocity": 51,
                "duration": 0.13409090909090882,
                "tempo": 120.0
            },
            {
                "start_time": 8.043181818181818,
                "end_time": 8.127272727272727,
                "pitch": 67,
                "velocity": 51,
                "duration": 0.084090909090909,
                "tempo": 120.0
            },
            {
                "start_time": 8.127272727272727,
                "end_time": 8.143181818181818,
                "pitch": 67,
                "velocity": 51,
                "duration": 0.01590909090909065,
                "tempo": 120.0
            },
            {
                "start_time": 8.127272727272727,
                "end_time": 8.195454545454545,
                "pitch": 0,
                "velocity": 51,
                "duration": 0.06818181818181834,
                "tempo": 120.0
            },
            {
                "start_time": 8.195454545454545,
                "end_time": 8.311363636363636,
                "pitch": 64,
                "velocity": 51,
                "duration": 0.1159090909090903,
                "tempo": 120.0
            },
            {
                "start_time": 8.361363636363636,
                "end_time": 8.477272727272727,
                "pitch": 64,
                "velocity": 51,
                "duration": 0.1159090909090903,
                "tempo": 120.0
            },
            {
                "start_time": 4.518181818181818,
                "end_time": 8.527272727272727,
                "pitch": 78,
                "velocity": 51,
                "duration": 4.00909090909091,
                "tempo": 120.0
            },
            {
                "start_time": 8.527272727272727,
                "end_time": 8.647727272727272,
                "pitch": 67,
                "velocity": 51,
                "duration": 0.12045454545454426,
                "tempo": 120.0
            },
            {
                "start_time": 8.697727272727272,
                "end_time": 9.270454545454545,
                "pitch": 67,
                "velocity": 51,
                "duration": 0.5727272727272723,
                "tempo": 120.0
            },
            {
                "start_time": 9.270454545454545,
                "end_time": 9.48409090909091,
                "pitch": 69,
                "velocity": 51,
                "duration": 0.21363636363636473,
                "tempo": 120.0
            },
            {
                "start_time": 5.5204545454545455,
                "end_time": 9.534090909090908,
                "pitch": 30,
                "velocity": 51,
                "duration": 4.013636363636363,
                "tempo": 120.0
            },
            {
                "start_time": 9.534090909090908,
                "end_time": 9.652272727272727,
                "pitch": 62,
                "velocity": 51,
                "duration": 0.11818181818181905,
                "tempo": 120.0
            },
            {
                "start_time": 9.704545454545453,
                "end_time": 10.163636363636364,
                "pitch": 62,
                "velocity": 51,
                "duration": 0.45909090909091077,
                "tempo": 120.0
            },
            {
                "start_time": 10.213636363636363,
                "end_time": 10.663636363636362,
                "pitch": 72,
                "velocity": 51,
                "duration": 0.4499999999999993,
                "tempo": 120.0
            },
            {
                "start_time": 1.6704545454545454,
                "end_time": 10.713636363636363,
                "pitch": 76,
                "velocity": 51,
                "duration": 9.043181818181818,
                "tempo": 120.0
            },
            {
                "start_time": 10.713636363636363,
                "end_time": 12.177272727272726,
                "pitch": 71,
                "velocity": 51,
                "duration": 1.463636363636363,
                "tempo": 120.0
            },
            {
                "start_time": 12.227272727272727,
                "end_time": 12.34090909090909,
                "pitch": 67,
                "velocity": 51,
                "duration": 0.11363636363636331,
                "tempo": 120.0
            },
            {
                "start_time": 12.39090909090909,
                "end_time": 12.504545454545454,
                "pitch": 67,
                "velocity": 51,
                "duration": 0.11363636363636331,
                "tempo": 120.0
            },
            {
                "start_time": 12.227272727272727,
                "end_time": 13.511363636363635,
                "pitch": 71,
                "velocity": 51,
                "duration": 1.2840909090909083,
                "tempo": 120.0
            },
            {
                "start_time": 12.554545454545455,
                "end_time": 13.511363636363635,
                "pitch": 71,
                "velocity": 51,
                "duration": 0.9568181818181802,
                "tempo": 120.0
            },
            {
                "start_time": 13.561363636363636,
                "end_time": 13.679545454545455,
                "pitch": 64,
                "velocity": 51,
                "duration": 0.11818181818181905,
                "tempo": 120.0
            },
            {
                "start_time": 13.729545454545454,
                "end_time": 14.188636363636363,
                "pitch": 64,
                "velocity": 51,
                "duration": 0.459090909090909,
                "tempo": 120.0
            },
            {
                "start_time": 10.713636363636363,
                "end_time": 14.238636363636363,
                "pitch": 76,
                "velocity": 51,
                "duration": 3.5250000000000004,
                "tempo": 120.0
            },
            {
                "start_time": 14.236363636363636,
                "end_time": 14.238636363636363,
                "pitch": 76,
                "velocity": 51,
                "duration": 0.002272727272726982,
                "tempo": 120.0
            },
            {
                "start_time": 10.213636363636363,
                "end_time": 14.684090909090909,
                "pitch": 74,
                "velocity": 51,
                "duration": 4.470454545454546,
                "tempo": 120.0
            },
            {
                "start_time": 14.238636363636363,
                "end_time": 14.684090909090909,
                "pitch": 74,
                "velocity": 51,
                "duration": 0.4454545454545453,
                "tempo": 120.0
            },
            {
                "start_time": 14.736363636363636,
                "end_time": 16.19772727272727,
                "pitch": 72,
                "velocity": 51,
                "duration": 1.4613636363636342,
                "tempo": 120.0
            },
            {
                "start_time": 12.554545454545455,
                "end_time": 16.363636363636363,
                "pitch": 69,
                "velocity": 51,
                "duration": 3.8090909090909086,
                "tempo": 120.0
            },
            {
                "start_time": 16.24772727272727,
                "end_time": 16.363636363636363,
                "pitch": 69,
                "velocity": 51,
                "duration": 0.11590909090909207,
                "tempo": 120.0
            },
            {
                "start_time": 16.413636363636364,
                "end_time": 16.529545454545453,
                "pitch": 71,
                "velocity": 51,
                "duration": 0.11590909090908852,
                "tempo": 120.0
            },
            {
                "start_time": 16.581818181818182,
                "end_time": 17.53181818181818,
                "pitch": 72,
                "velocity": 51,
                "duration": 0.9499999999999993,
                "tempo": 120.0
            },
            {
                "start_time": 6.1909090909090905,
                "end_time": 17.581818181818182,
                "pitch": 60,
                "velocity": 51,
                "duration": 11.39090909090909,
                "tempo": 120.0
            },
            {
                "start_time": 17.581818181818182,
                "end_time": 17.7,
                "pitch": 65,
                "velocity": 51,
                "duration": 0.11818181818181728,
                "tempo": 120.0
            },
            {
                "start_time": 17.75,
                "end_time": 18.2,
                "pitch": 65,
                "velocity": 51,
                "duration": 0.4499999999999993,
                "tempo": 120.0
            },
            {
                "start_time": 6.699999999999999,
                "end_time": 18.7,
                "pitch": 77,
                "velocity": 51,
                "duration": 12.0,
                "tempo": 120.0
            },
            {
                "start_time": 18.25,
                "end_time": 18.7,
                "pitch": 77,
                "velocity": 51,
                "duration": 0.4499999999999993,
                "tempo": 120.0
            },
            {
                "start_time": 16.24772727272727,
                "end_time": 18.75,
                "pitch": 76,
                "velocity": 51,
                "duration": 2.5022727272727288,
                "tempo": 120.0
            },
            {
                "start_time": 14.736363636363636,
                "end_time": 19.534090909090907,
                "pitch": 74,
                "velocity": 51,
                "duration": 4.79772727272727,
                "tempo": 120.0
            },
            {
                "start_time": 18.75,
                "end_time": 19.534090909090907,
                "pitch": 74,
                "velocity": 51,
                "duration": 0.7840909090909065,
                "tempo": 120.0
            },
            {
                "start_time": 19.586363636363636,
                "end_time": 19.704545454545453,
                "pitch": 68,
                "velocity": 51,
                "duration": 0.11818181818181728,
                "tempo": 120.0
            },
            {
                "start_time": 19.754545454545454,
                "end_time": 20.21363636363636,
                "pitch": 68,
                "velocity": 51,
                "duration": 0.4590909090909072,
                "tempo": 120.0
            },
            {
                "start_time": 9.534090909090908,
                "end_time": 20.263636363636362,
                "pitch": 30,
                "velocity": 51,
                "duration": 10.729545454545454,
                "tempo": 120.0
            },
            {
                "start_time": 19.586363636363636,
                "end_time": 20.709090909090907,
                "pitch": 77,
                "velocity": 51,
                "duration": 1.1227272727272712,
                "tempo": 120.0
            },
            {
                "start_time": 20.263636363636362,
                "end_time": 20.709090909090907,
                "pitch": 77,
                "velocity": 51,
                "duration": 0.4454545454545453,
                "tempo": 120.0
            },
            {
                "start_time": 20.761363636363637,
                "end_time": 24.23181818181818,
                "pitch": 77,
                "velocity": 51,
                "duration": 3.470454545454544,
                "tempo": 120.0
            },
            {
                "start_time": 18.75,
                "end_time": 24.74090909090909,
                "pitch": 76,
                "velocity": 51,
                "duration": 5.9909090909090885,
                "tempo": 120.0
            },
            {
                "start_time": 24.28181818181818,
                "end_time": 24.74090909090909,
                "pitch": 76,
                "velocity": 51,
                "duration": 0.4590909090909072,
                "tempo": 120.0
            },
            {
                "start_time": 24.79090909090909,
                "end_time": 25.736363636363635,
                "pitch": 76,
                "velocity": 51,
                "duration": 0.9454545454545453,
                "tempo": 120.0
            },
            {
                "start_time": 25.786363636363635,
                "end_time": 26.73409090909091,
                "pitch": 72,
                "velocity": 51,
                "duration": 0.9477272727272741,
                "tempo": 120.0
            },
            {
                "start_time": 27.279545454545453,
                "end_time": 28.252272727272725,
                "pitch": 74,
                "velocity": 51,
                "duration": 0.9727272727272727,
                "tempo": 120.0
            },
            {
                "start_time": 28.302272727272726,
                "end_time": 28.752272727272725,
                "pitch": 74,
                "velocity": 51,
                "duration": 0.4499999999999993,
                "tempo": 120.0
            },
            {
                "start_time": 27.279545454545453,
                "end_time": 30.602272727272727,
                "pitch": 72,
                "velocity": 51,
                "duration": 3.322727272727274,
                "tempo": 120.0
            },
            {
                "start_time": 28.799999999999997,
                "end_time": 30.602272727272727,
                "pitch": 72,
                "velocity": 51,
                "duration": 1.8022727272727295,
                "tempo": 120.0
            },
            {
                "start_time": 8.527272727272727,
                "end_time": 62.98181818181818,
                "pitch": 78,
                "velocity": 51,
                "duration": 54.45454545454545,
                "tempo": 120.0
            },
            {
                "start_time": 16.413636363636364,
                "end_time": 63.095454545454544,
                "pitch": 69,
                "velocity": 51,
                "duration": 46.68181818181818,
                "tempo": 120.0
            },
            {
                "start_time": 62.98181818181818,
                "end_time": 63.095454545454544,
                "pitch": 69,
                "velocity": 51,
                "duration": 0.11363636363636687,
                "tempo": 120.0
            },
            {
                "start_time": 20.263636363636362,
                "end_time": 63.14545454545454,
                "pitch": 30,
                "velocity": 51,
                "duration": 42.881818181818176,
                "tempo": 120.0
            },
            {
                "start_time": 63.14545454545454,
                "end_time": 63.25909090909091,
                "pitch": 64,
                "velocity": 51,
                "duration": 0.11363636363636687,
                "tempo": 120.0
            },
            {
                "start_time": 63.309090909090905,
                "end_time": 63.425,
                "pitch": 71,
                "velocity": 51,
                "duration": 0.11590909090909207,
                "tempo": 120.0
            },
            {
                "start_time": 2.1818181818181817,
                "end_time": 63.47727272727273,
                "pitch": 43,
                "velocity": 51,
                "duration": 61.29545454545455,
                "tempo": 120.0
            },
            {
                "start_time": 63.47727272727273,
                "end_time": 63.59318181818181,
                "pitch": 62,
                "velocity": 51,
                "duration": 0.11590909090908497,
                "tempo": 120.0
            },
            {
                "start_time": 63.309090909090905,
                "end_time": 63.643181818181816,
                "pitch": 77,
                "velocity": 51,
                "duration": 0.33409090909091077,
                "tempo": 120.0
            },
            {
                "start_time": 63.643181818181816,
                "end_time": 63.75909090909091,
                "pitch": 67,
                "velocity": 51,
                "duration": 0.11590909090909207,
                "tempo": 120.0
            },
            {
                "start_time": 8.195454545454545,
                "end_time": 63.81136363636363,
                "pitch": 0,
                "velocity": 51,
                "duration": 55.615909090909085,
                "tempo": 120.0
            },
            {
                "start_time": 63.81136363636363,
                "end_time": 63.92727272727272,
                "pitch": 64,
                "velocity": 51,
                "duration": 0.11590909090909207,
                "tempo": 120.0
            },
            {
                "start_time": 63.97727272727273,
                "end_time": 64.09318181818182,
                "pitch": 64,
                "velocity": 51,
                "duration": 0.11590909090909207,
                "tempo": 120.0
            },
            {
                "start_time": 62.98181818181818,
                "end_time": 64.14318181818182,
                "pitch": 78,
                "velocity": 51,
                "duration": 1.1613636363636388,
                "tempo": 120.0
            },
            {
                "start_time": 64.14318181818182,
                "end_time": 64.26136363636364,
                "pitch": 67,
                "velocity": 51,
                "duration": 0.11818181818182438,
                "tempo": 120.0
            },
            {
                "start_time": 64.31136363636364,
                "end_time": 64.42954545454545,
                "pitch": 67,
                "velocity": 51,
                "duration": 0.11818181818181017,
                "tempo": 120.0
            },
            {
                "start_time": 64.48181818181818,
                "end_time": 64.6,
                "pitch": 71,
                "velocity": 51,
                "duration": 0.11818181818181017,
                "tempo": 120.0
            },
            {
                "start_time": 16.581818181818182,
                "end_time": 64.65227272727273,
                "pitch": 55,
                "velocity": 51,
                "duration": 48.07045454545455,
                "tempo": 120.0
            },
            {
                "start_time": 64.65227272727273,
                "end_time": 64.77272727272727,
                "pitch": 72,
                "velocity": 51,
                "duration": 0.12045454545453538,
                "tempo": 120.0
            },
            {
                "start_time": 28.799999999999997,
                "end_time": 64.93863636363636,
                "pitch": 74,
                "velocity": 51,
                "duration": 36.138636363636365,
                "tempo": 120.0
            },
            {
                "start_time": 64.825,
                "end_time": 64.93863636363636,
                "pitch": 74,
                "velocity": 51,
                "duration": 0.11363636363635976,
                "tempo": 120.0
            },
            {
                "start_time": 25.786363636363635,
                "end_time": 65.18409090909091,
                "pitch": 76,
                "velocity": 51,
                "duration": 39.39772727272728,
                "tempo": 120.0
            },
            {
                "start_time": 64.98863636363636,
                "end_time": 65.18409090909091,
                "pitch": 76,
                "velocity": 51,
                "duration": 0.19545454545455243,
                "tempo": 120.0
            },
            {
                "start_time": 64.98863636363636,
                "end_time": 65.43181818181817,
                "pitch": 74,
                "velocity": 51,
                "duration": 0.443181818181813,
                "tempo": 120.0
            },
            {
                "start_time": 65.23409090909091,
                "end_time": 65.43181818181817,
                "pitch": 74,
                "velocity": 51,
                "duration": 0.19772727272726343,
                "tempo": 120.0
            },
            {
                "start_time": 63.643181818181816,
                "end_time": 65.48409090909091,
                "pitch": 77,
                "velocity": 51,
                "duration": 1.8409090909090935,
                "tempo": 120.0
            },
            {
                "start_time": 64.48181818181818,
                "end_time": 68.2090909090909,
                "pitch": 69,
                "velocity": 51,
                "duration": 3.7272727272727195,
                "tempo": 120.0
            },
            {
                "start_time": 65.48409090909091,
                "end_time": 68.2090909090909,
                "pitch": 69,
                "velocity": 51,
                "duration": 2.7249999999999943,
                "tempo": 120.0
            },
            {
                "start_time": 63.47727272727273,
                "end_time": 68.2590909090909,
                "pitch": 43,
                "velocity": 51,
                "duration": 4.781818181818174,
                "tempo": 120.0
            },
            {
                "start_time": 65.23409090909091,
                "end_time": 68.46136363636363,
                "pitch": 76,
                "velocity": 51,
                "duration": 3.2272727272727195,
                "tempo": 120.0
            },
            {
                "start_time": 68.2590909090909,
                "end_time": 68.46136363636363,
                "pitch": 76,
                "velocity": 51,
                "duration": 0.20227272727272805,
                "tempo": 120.0
            },
            {
                "start_time": 68.75681818181818,
                "end_time": 69.21363636363635,
                "pitch": 76,
                "velocity": 51,
                "duration": 0.45681818181817846,
                "tempo": 120.0
            },
            {
                "start_time": 69.26590909090909,
                "end_time": 69.71818181818182,
                "pitch": 74,
                "velocity": 51,
                "duration": 0.45227272727272805,
                "tempo": 120.0
            },
            {
                "start_time": 65.48409090909091,
                "end_time": 69.76818181818182,
                "pitch": 77,
                "velocity": 51,
                "duration": 4.2840909090909065,
                "tempo": 120.0
            },
            {
                "start_time": 69.76818181818182,
                "end_time": 70.21363636363635,
                "pitch": 69,
                "velocity": 51,
                "duration": 0.4454545454545382,
                "tempo": 120.0
            },
            {
                "start_time": 64.825,
                "end_time": 70.46136363636363,
                "pitch": 72,
                "velocity": 51,
                "duration": 5.636363636363626,
                "tempo": 120.0
            },
            {
                "start_time": 70.26363636363637,
                "end_time": 70.46136363636363,
                "pitch": 72,
                "velocity": 51,
                "duration": 0.19772727272726343,
                "tempo": 120.0
            },
            {
                "start_time": 69.26590909090909,
                "end_time": 70.51136363636363,
                "pitch": 76,
                "velocity": 51,
                "duration": 1.2454545454545354,
                "tempo": 120.0
            },
            {
                "start_time": 70.51136363636363,
                "end_time": 70.71136363636363,
                "pitch": 71,
                "velocity": 51,
                "duration": 0.20000000000000284,
                "tempo": 120.0
            },
            {
                "start_time": 63.81136363636363,
                "end_time": 71.39772727272727,
                "pitch": 0,
                "velocity": 51,
                "duration": 7.586363636363636,
                "tempo": 120.0
            },
            {
                "start_time": 70.76136363636363,
                "end_time": 71.39772727272727,
                "pitch": 67,
                "velocity": 51,
                "duration": 0.6363636363636402,
                "tempo": 120.0
            },
            {
                "start_time": 71.39772727272727,
                "end_time": 71.44772727272726,
                "pitch": 67,
                "velocity": 51,
                "duration": 0.04999999999999716,
                "tempo": 120.0
            },
            {
                "start_time": 8.043181818181818,
                "end_time": 71.44772727272726,
                "pitch": 79,
                "velocity": 51,
                "duration": 63.40454545454544,
                "tempo": 120.0
            },
            {
                "start_time": 71.39772727272727,
                "end_time": 71.5340909090909,
                "pitch": 0,
                "velocity": 51,
                "duration": 0.13636363636364024,
                "tempo": 120.0
            },
            {
                "start_time": 71.44772727272726,
                "end_time": 71.5340909090909,
                "pitch": 67,
                "velocity": 51,
                "duration": 0.08636363636364308,
                "tempo": 120.0
            },
            {
                "start_time": 71.5340909090909,
                "end_time": 71.58636363636363,
                "pitch": 67,
                "velocity": 51,
                "duration": 0.052272727272722364,
                "tempo": 120.0
            },
            {
                "start_time": 71.44772727272726,
                "end_time": 71.58636363636363,
                "pitch": 79,
                "velocity": 51,
                "duration": 0.13863636363636545,
                "tempo": 120.0
            },
            {
                "start_time": 71.5340909090909,
                "end_time": 71.67045454545455,
                "pitch": 0,
                "velocity": 51,
                "duration": 0.13636363636364024,
                "tempo": 120.0
            },
            {
                "start_time": 71.58636363636363,
                "end_time": 71.67045454545455,
                "pitch": 67,
                "velocity": 51,
                "duration": 0.08409090909091788,
                "tempo": 120.0
            },
            {
                "start_time": 71.67045454545455,
                "end_time": 71.72272727272727,
                "pitch": 67,
                "velocity": 51,
                "duration": 0.052272727272722364,
                "tempo": 120.0
            },
            {
                "start_time": 71.58636363636363,
                "end_time": 71.72272727272727,
                "pitch": 79,
                "velocity": 51,
                "duration": 0.13636363636364024,
                "tempo": 120.0
            },
            {
                "start_time": 71.67045454545455,
                "end_time": 71.80909090909091,
                "pitch": 0,
                "velocity": 51,
                "duration": 0.13863636363636545,
                "tempo": 120.0
            },
            {
                "start_time": 71.72272727272727,
                "end_time": 71.80909090909091,
                "pitch": 67,
                "velocity": 51,
                "duration": 0.08636363636364308,
                "tempo": 120.0
            },
            {
                "start_time": 71.80909090909091,
                "end_time": 71.85909090909091,
                "pitch": 67,
                "velocity": 51,
                "duration": 0.04999999999999716,
                "tempo": 120.0
            },
            {
                "start_time": 71.72272727272727,
                "end_time": 71.85909090909091,
                "pitch": 79,
                "velocity": 51,
                "duration": 0.13636363636364024,
                "tempo": 120.0
            },
            {
                "start_time": 71.80909090909091,
                "end_time": 71.94318181818181,
                "pitch": 0,
                "velocity": 51,
                "duration": 0.13409090909090082,
                "tempo": 120.0
            },
            {
                "start_time": 71.85909090909091,
                "end_time": 71.94318181818181,
                "pitch": 67,
                "velocity": 51,
                "duration": 0.08409090909090366,
                "tempo": 120.0
            },
            {
                "start_time": 71.94318181818181,
                "end_time": 71.99318181818181,
                "pitch": 67,
                "velocity": 51,
                "duration": 0.04999999999999716,
                "tempo": 120.0
            },
            {
                "start_time": 71.85909090909091,
                "end_time": 71.99318181818181,
                "pitch": 79,
                "velocity": 51,
                "duration": 0.13409090909090082,
                "tempo": 120.0
            },
            {
                "start_time": 71.94318181818181,
                "end_time": 72.07727272727273,
                "pitch": 0,
                "velocity": 51,
                "duration": 0.13409090909091503,
                "tempo": 120.0
            },
            {
                "start_time": 71.99318181818181,
                "end_time": 72.07727272727273,
                "pitch": 67,
                "velocity": 51,
                "duration": 0.08409090909091788,
                "tempo": 120.0
            },
            {
                "start_time": 72.07727272727273,
                "end_time": 72.12727272727273,
                "pitch": 67,
                "velocity": 51,
                "duration": 0.04999999999999716,
                "tempo": 120.0
            },
            {
                "start_time": 71.99318181818181,
                "end_time": 72.12727272727273,
                "pitch": 79,
                "velocity": 51,
                "duration": 0.13409090909091503,
                "tempo": 120.0
            },
            {
                "start_time": 72.07727272727273,
                "end_time": 72.21136363636363,
                "pitch": 0,
                "velocity": 51,
                "duration": 0.13409090909090082,
                "tempo": 120.0
            },
            {
                "start_time": 72.12727272727273,
                "end_time": 72.21136363636363,
                "pitch": 67,
                "velocity": 51,
                "duration": 0.08409090909090366,
                "tempo": 120.0
            },
            {
                "start_time": 72.21136363636363,
                "end_time": 72.26136363636363,
                "pitch": 67,
                "velocity": 51,
                "duration": 0.04999999999999716,
                "tempo": 120.0
            },
            {
                "start_time": 72.12727272727273,
                "end_time": 72.26136363636363,
                "pitch": 79,
                "velocity": 51,
                "duration": 0.13409090909090082,
                "tempo": 120.0
            },
            {
                "start_time": 72.26136363636363,
                "end_time": 72.31136363636364,
                "pitch": 67,
                "velocity": 51,
                "duration": 0.05000000000001137,
                "tempo": 120.0
            },
            {
                "start_time": 72.21136363636363,
                "end_time": 72.52499999999999,
                "pitch": 0,
                "velocity": 51,
                "duration": 0.3136363636363626,
                "tempo": 120.0
            },
            {
                "start_time": 17.581818181818182,
                "end_time": 72.63863636363637,
                "pitch": 60,
                "velocity": 51,
                "duration": 55.05681818181819,
                "tempo": 120.0
            },
            {
                "start_time": 72.52499999999999,
                "end_time": 72.63863636363637,
                "pitch": 60,
                "velocity": 51,
                "duration": 0.11363636363637397,
                "tempo": 120.0
            },
            {
                "start_time": 72.68863636363636,
                "end_time": 72.80454545454545,
                "pitch": 64,
                "velocity": 51,
                "duration": 0.11590909090908497,
                "tempo": 120.0
            }
        ],
        "Clarinet": [
            {
                "start_time": 32.64090909090909,
                "end_time": 33.336363636363636,
                "pitch": 67,
                "velocity": 64,
                "duration": 0.6954545454545453,
                "tempo": 120.0
            },
            {
                "start_time": 33.336363636363636,
                "end_time": 33.37045454545454,
                "pitch": 67,
                "velocity": 64,
                "duration": 0.03409090909090651,
                "tempo": 120.0
            },
            {
                "start_time": 33.404545454545456,
                "end_time": 33.62045454545454,
                "pitch": 71,
                "velocity": 64,
                "duration": 0.2159090909090864,
                "tempo": 120.0
            },
            {
                "start_time": 33.404545454545456,
                "end_time": 34.340909090909086,
                "pitch": 67,
                "velocity": 64,
                "duration": 0.9363636363636303,
                "tempo": 120.0
            },
            {
                "start_time": 33.654545454545456,
                "end_time": 34.340909090909086,
                "pitch": 67,
                "velocity": 64,
                "duration": 0.6863636363636303,
                "tempo": 120.0
            },
            {
                "start_time": 33.336363636363636,
                "end_time": 34.340909090909086,
                "pitch": 79,
                "velocity": 64,
                "duration": 1.0045454545454504,
                "tempo": 120.0
            },
            {
                "start_time": 34.340909090909086,
                "end_time": 34.377272727272725,
                "pitch": 67,
                "velocity": 64,
                "duration": 0.03636363636363882,
                "tempo": 120.0
            },
            {
                "start_time": 33.654545454545456,
                "end_time": 34.63181818181818,
                "pitch": 71,
                "velocity": 64,
                "duration": 0.9772727272727266,
                "tempo": 120.0
            },
            {
                "start_time": 34.41136363636363,
                "end_time": 34.63181818181818,
                "pitch": 71,
                "velocity": 64,
                "duration": 0.220454545454551,
                "tempo": 120.0
            },
            {
                "start_time": 34.668181818181814,
                "end_time": 35.88181818181818,
                "pitch": 64,
                "velocity": 64,
                "duration": 1.2136363636363683,
                "tempo": 120.0
            },
            {
                "start_time": 35.918181818181814,
                "end_time": 36.13863636363636,
                "pitch": 60,
                "velocity": 64,
                "duration": 0.2204545454545439,
                "tempo": 120.0
            },
            {
                "start_time": 35.918181818181814,
                "end_time": 36.38636363636363,
                "pitch": 64,
                "velocity": 64,
                "duration": 0.4681818181818187,
                "tempo": 120.0
            },
            {
                "start_time": 36.175,
                "end_time": 36.38636363636363,
                "pitch": 64,
                "velocity": 64,
                "duration": 0.21136363636363598,
                "tempo": 120.0
            },
            {
                "start_time": 36.42045454545455,
                "end_time": 37.902272727272724,
                "pitch": 69,
                "velocity": 64,
                "duration": 1.481818181818177,
                "tempo": 120.0
            },
            {
                "start_time": 36.175,
                "end_time": 38.14772727272727,
                "pitch": 60,
                "velocity": 64,
                "duration": 1.9727272727272762,
                "tempo": 120.0
            },
            {
                "start_time": 37.93636363636364,
                "end_time": 38.14772727272727,
                "pitch": 60,
                "velocity": 64,
                "duration": 0.21136363636363598,
                "tempo": 120.0
            },
            {
                "start_time": 38.18181818181818,
                "end_time": 38.39772727272727,
                "pitch": 66,
                "velocity": 64,
                "duration": 0.2159090909090935,
                "tempo": 120.0
            },
            {
                "start_time": 38.43181818181818,
                "end_time": 39.06590909090909,
                "pitch": 66,
                "velocity": 64,
                "duration": 0.6340909090909079,
                "tempo": 120.0
            },
            {
                "start_time": 39.06590909090909,
                "end_time": 39.4,
                "pitch": 64,
                "velocity": 64,
                "duration": 0.33409090909091077,
                "tempo": 120.0
            },
            {
                "start_time": 39.434090909090905,
                "end_time": 39.65,
                "pitch": 64,
                "velocity": 64,
                "duration": 0.2159090909090935,
                "tempo": 120.0
            },
            {
                "start_time": 39.684090909090905,
                "end_time": 40.663636363636364,
                "pitch": 62,
                "velocity": 64,
                "duration": 0.9795454545454589,
                "tempo": 120.0
            },
            {
                "start_time": 34.41136363636363,
                "end_time": 41.37272727272727,
                "pitch": 67,
                "velocity": 64,
                "duration": 6.961363636363636,
                "tempo": 120.0
            },
            {
                "start_time": 40.69772727272727,
                "end_time": 41.37272727272727,
                "pitch": 67,
                "velocity": 64,
                "duration": 0.6749999999999972,
                "tempo": 120.0
            },
            {
                "start_time": 34.340909090909086,
                "end_time": 41.37272727272727,
                "pitch": 79,
                "velocity": 64,
                "duration": 7.031818181818181,
                "tempo": 120.0
            },
            {
                "start_time": 41.37272727272727,
                "end_time": 41.40681818181818,
                "pitch": 67,
                "velocity": 64,
                "duration": 0.03409090909091361,
                "tempo": 120.0
            },
            {
                "start_time": 41.44090909090909,
                "end_time": 41.65681818181818,
                "pitch": 71,
                "velocity": 64,
                "duration": 0.2159090909090935,
                "tempo": 120.0
            },
            {
                "start_time": 41.69090909090909,
                "end_time": 42.413636363636364,
                "pitch": 68,
                "velocity": 64,
                "duration": 0.7227272727272762,
                "tempo": 120.0
            },
            {
                "start_time": 42.44772727272727,
                "end_time": 42.67045454545455,
                "pitch": 68,
                "velocity": 64,
                "duration": 0.22272727272727622,
                "tempo": 120.0
            },
            {
                "start_time": 42.70454545454545,
                "end_time": 43.17272727272727,
                "pitch": 68,
                "velocity": 64,
                "duration": 0.4681818181818187,
                "tempo": 120.0
            },
            {
                "start_time": 39.684090909090905,
                "end_time": 43.66590909090909,
                "pitch": 65,
                "velocity": 64,
                "duration": 3.981818181818184,
                "tempo": 120.0
            },
            {
                "start_time": 43.20454545454545,
                "end_time": 43.66590909090909,
                "pitch": 65,
                "velocity": 64,
                "duration": 0.461363636363636,
                "tempo": 120.0
            },
            {
                "start_time": 36.42045454545455,
                "end_time": 43.69772727272727,
                "pitch": 78,
                "velocity": 64,
                "duration": 7.277272727272724,
                "tempo": 120.0
            },
            {
                "start_time": 43.69772727272727,
                "end_time": 43.92045454545455,
                "pitch": 69,
                "velocity": 64,
                "duration": 0.22272727272727622,
                "tempo": 120.0
            },
            {
                "start_time": 37.93636363636364,
                "end_time": 43.95454545454545,
                "pitch": 31,
                "velocity": 64,
                "duration": 6.018181818181816,
                "tempo": 120.0
            },
            {
                "start_time": 38.18181818181818,
                "end_time": 44.17727272727272,
                "pitch": 60,
                "velocity": 64,
                "duration": 5.9954545454545425,
                "tempo": 120.0
            },
            {
                "start_time": 43.95454545454545,
                "end_time": 44.17727272727272,
                "pitch": 60,
                "velocity": 64,
                "duration": 0.2227272727272691,
                "tempo": 120.0
            },
            {
                "start_time": 44.211363636363636,
                "end_time": 44.42727272727272,
                "pitch": 64,
                "velocity": 64,
                "duration": 0.2159090909090864,
                "tempo": 120.0
            },
            {
                "start_time": 43.69772727272727,
                "end_time": 44.461363636363636,
                "pitch": 78,
                "velocity": 64,
                "duration": 0.7636363636363654,
                "tempo": 120.0
            },
            {
                "start_time": 44.461363636363636,
                "end_time": 44.67727272727272,
                "pitch": 69,
                "velocity": 64,
                "duration": 0.2159090909090864,
                "tempo": 120.0
            },
            {
                "start_time": 43.95454545454545,
                "end_time": 44.711363636363636,
                "pitch": 31,
                "velocity": 64,
                "duration": 0.7568181818181827,
                "tempo": 120.0
            },
            {
                "start_time": 44.711363636363636,
                "end_time": 45.429545454545455,
                "pitch": 63,
                "velocity": 64,
                "duration": 0.7181818181818187,
                "tempo": 120.0
            },
            {
                "start_time": 40.69772727272727,
                "end_time": 45.46363636363636,
                "pitch": 77,
                "velocity": 64,
                "duration": 4.765909090909091,
                "tempo": 120.0
            },
            {
                "start_time": 45.46363636363636,
                "end_time": 45.929545454545455,
                "pitch": 68,
                "velocity": 64,
                "duration": 0.4659090909090935,
                "tempo": 120.0
            },
            {
                "start_time": 45.96363636363636,
                "end_time": 46.179545454545455,
                "pitch": 68,
                "velocity": 64,
                "duration": 0.2159090909090935,
                "tempo": 120.0
            },
            {
                "start_time": 46.21363636363636,
                "end_time": 46.43181818181818,
                "pitch": 70,
                "velocity": 64,
                "duration": 0.2181818181818187,
                "tempo": 120.0
            },
            {
                "start_time": 46.465909090909086,
                "end_time": 46.68181818181818,
                "pitch": 68,
                "velocity": 64,
                "duration": 0.2159090909090935,
                "tempo": 120.0
            },
            {
                "start_time": 43.20454545454545,
                "end_time": 46.715909090909086,
                "pitch": 38,
                "velocity": 64,
                "duration": 3.511363636363633,
                "tempo": 120.0
            },
            {
                "start_time": 46.715909090909086,
                "end_time": 48.695454545454545,
                "pitch": 64,
                "velocity": 64,
                "duration": 1.979545454545459,
                "tempo": 120.0
            },
            {
                "start_time": 45.46363636363636,
                "end_time": 48.986363636363635,
                "pitch": 77,
                "velocity": 64,
                "duration": 3.5227272727272734,
                "tempo": 120.0
            },
            {
                "start_time": 48.986363636363635,
                "end_time": 50.21363636363636,
                "pitch": 69,
                "velocity": 40,
                "duration": 1.2272727272727266,
                "tempo": 120.0
            },
            {
                "start_time": 44.711363636363636,
                "end_time": 50.25,
                "pitch": 31,
                "velocity": 64,
                "duration": 5.538636363636364,
                "tempo": 120.0
            },
            {
                "start_time": 50.25,
                "end_time": 50.46363636363636,
                "pitch": 64,
                "velocity": 40,
                "duration": 0.21363636363636118,
                "tempo": 120.0
            },
            {
                "start_time": 48.986363636363635,
                "end_time": 50.49545454545454,
                "pitch": 77,
                "velocity": 40,
                "duration": 1.509090909090908,
                "tempo": 120.0
            },
            {
                "start_time": 50.49545454545454,
                "end_time": 50.709090909090904,
                "pitch": 69,
                "velocity": 40,
                "duration": 0.21363636363636118,
                "tempo": 120.0
            },
            {
                "start_time": 50.74318181818182,
                "end_time": 50.959090909090904,
                "pitch": 72,
                "velocity": 40,
                "duration": 0.2159090909090864,
                "tempo": 120.0
            },
            {
                "start_time": 50.99318181818182,
                "end_time": 51.72727272727273,
                "pitch": 74,
                "velocity": 40,
                "duration": 0.7340909090909093,
                "tempo": 120.0
            },
            {
                "start_time": 50.49545454545454,
                "end_time": 51.76363636363636,
                "pitch": 77,
                "velocity": 40,
                "duration": 1.2681818181818159,
                "tempo": 120.0
            },
            {
                "start_time": 51.76363636363636,
                "end_time": 51.974999999999994,
                "pitch": 69,
                "velocity": 40,
                "duration": 0.21136363636363598,
                "tempo": 120.0
            },
            {
                "start_time": 52.00681818181818,
                "end_time": 52.465909090909086,
                "pitch": 65,
                "velocity": 40,
                "duration": 0.45909090909090366,
                "tempo": 120.0
            },
            {
                "start_time": 52.5,
                "end_time": 52.965909090909086,
                "pitch": 62,
                "velocity": 40,
                "duration": 0.4659090909090864,
                "tempo": 120.0
            },
            {
                "start_time": 51.76363636363636,
                "end_time": 53.0,
                "pitch": 77,
                "velocity": 40,
                "duration": 1.2363636363636417,
                "tempo": 120.0
            },
            {
                "start_time": 41.44090909090909,
                "end_time": 53.65,
                "pitch": 67,
                "velocity": 64,
                "duration": 12.20909090909091,
                "tempo": 120.0
            },
            {
                "start_time": 53.0,
                "end_time": 53.65,
                "pitch": 67,
                "velocity": 40,
                "duration": 0.6499999999999986,
                "tempo": 120.0
            },
            {
                "start_time": 53.65,
                "end_time": 53.70227272727273,
                "pitch": 67,
                "velocity": 40,
                "duration": 0.05227272727272947,
                "tempo": 120.0
            },
            {
                "start_time": 41.37272727272727,
                "end_time": 53.70227272727273,
                "pitch": 79,
                "velocity": 64,
                "duration": 12.32954545454546,
                "tempo": 120.0
            },
            {
                "start_time": 53.65,
                "end_time": 53.788636363636364,
                "pitch": 0,
                "velocity": 40,
                "duration": 0.13863636363636545,
                "tempo": 120.0
            },
            {
                "start_time": 53.70227272727273,
                "end_time": 53.788636363636364,
                "pitch": 67,
                "velocity": 40,
                "duration": 0.08636363636363598,
                "tempo": 120.0
            },
            {
                "start_time": 53.788636363636364,
                "end_time": 53.83863636363636,
                "pitch": 67,
                "velocity": 40,
                "duration": 0.04999999999999716,
                "tempo": 120.0
            },
            {
                "start_time": 53.70227272727273,
                "end_time": 53.83863636363636,
                "pitch": 79,
                "velocity": 40,
                "duration": 0.13636363636363313,
                "tempo": 120.0
            },
            {
                "start_time": 53.788636363636364,
                "end_time": 53.92045454545454,
                "pitch": 0,
                "velocity": 40,
                "duration": 0.13181818181817562,
                "tempo": 120.0
            },
            {
                "start_time": 53.83863636363636,
                "end_time": 53.92045454545454,
                "pitch": 67,
                "velocity": 40,
                "duration": 0.08181818181817846,
                "tempo": 120.0
            },
            {
                "start_time": 53.92045454545454,
                "end_time": 53.970454545454544,
                "pitch": 67,
                "velocity": 40,
                "duration": 0.05000000000000426,
                "tempo": 120.0
            },
            {
                "start_time": 53.83863636363636,
                "end_time": 53.970454545454544,
                "pitch": 79,
                "velocity": 40,
                "duration": 0.13181818181818272,
                "tempo": 120.0
            },
            {
                "start_time": 53.92045454545454,
                "end_time": 54.05227272727272,
                "pitch": 0,
                "velocity": 40,
                "duration": 0.13181818181818272,
                "tempo": 120.0
            },
            {
                "start_time": 53.970454545454544,
                "end_time": 54.05227272727272,
                "pitch": 67,
                "velocity": 40,
                "duration": 0.08181818181817846,
                "tempo": 120.0
            },
            {
                "start_time": 54.05227272727272,
                "end_time": 54.099999999999994,
                "pitch": 67,
                "velocity": 40,
                "duration": 0.04772727272727195,
                "tempo": 120.0
            },
            {
                "start_time": 53.970454545454544,
                "end_time": 54.099999999999994,
                "pitch": 79,
                "velocity": 40,
                "duration": 0.1295454545454504,
                "tempo": 120.0
            },
            {
                "start_time": 54.05227272727272,
                "end_time": 54.18181818181818,
                "pitch": 0,
                "velocity": 40,
                "duration": 0.12954545454545752,
                "tempo": 120.0
            },
            {
                "start_time": 54.099999999999994,
                "end_time": 54.18181818181818,
                "pitch": 67,
                "velocity": 40,
                "duration": 0.08181818181818556,
                "tempo": 120.0
            },
            {
                "start_time": 54.18181818181818,
                "end_time": 54.23181818181818,
                "pitch": 67,
                "velocity": 40,
                "duration": 0.04999999999999716,
                "tempo": 120.0
            },
            {
                "start_time": 53.0,
                "end_time": 54.51136363636363,
                "pitch": 77,
                "velocity": 40,
                "duration": 1.5113636363636331,
                "tempo": 120.0
            },
            {
                "start_time": 54.51136363636363,
                "end_time": 54.724999999999994,
                "pitch": 67,
                "velocity": 40,
                "duration": 0.21363636363636118,
                "tempo": 120.0
            },
            {
                "start_time": 41.69090909090909,
                "end_time": 54.97272727272727,
                "pitch": 71,
                "velocity": 64,
                "duration": 13.281818181818181,
                "tempo": 120.0
            },
            {
                "start_time": 54.756818181818176,
                "end_time": 54.97272727272727,
                "pitch": 71,
                "velocity": 40,
                "duration": 0.2159090909090935,
                "tempo": 120.0
            },
            {
                "start_time": 50.99318181818182,
                "end_time": 55.98863636363636,
                "pitch": 72,
                "velocity": 40,
                "duration": 4.9954545454545425,
                "tempo": 120.0
            },
            {
                "start_time": 55.006818181818176,
                "end_time": 55.98863636363636,
                "pitch": 72,
                "velocity": 40,
                "duration": 0.9818181818181841,
                "tempo": 120.0
            },
            {
                "start_time": 32.64090909090909,
                "end_time": 56.02272727272727,
                "pitch": 76,
                "velocity": 64,
                "duration": 23.381818181818183,
                "tempo": 120.0
            },
            {
                "start_time": 56.02272727272727,
                "end_time": 56.47954545454545,
                "pitch": 71,
                "velocity": 40,
                "duration": 0.45681818181817846,
                "tempo": 120.0
            },
            {
                "start_time": 56.51363636363636,
                "end_time": 56.73181818181818,
                "pitch": 64,
                "velocity": 40,
                "duration": 0.2181818181818187,
                "tempo": 120.0
            },
            {
                "start_time": 56.76590909090909,
                "end_time": 58.01363636363636,
                "pitch": 64,
                "velocity": 64,
                "duration": 1.2477272727272677,
                "tempo": 120.0
            },
            {
                "start_time": 44.211363636363636,
                "end_time": 58.27045454545454,
                "pitch": 60,
                "velocity": 64,
                "duration": 14.059090909090905,
                "tempo": 120.0
            },
            {
                "start_time": 58.04772727272727,
                "end_time": 58.27045454545454,
                "pitch": 60,
                "velocity": 64,
                "duration": 0.2227272727272691,
                "tempo": 120.0
            },
            {
                "start_time": 58.04772727272727,
                "end_time": 58.51590909090909,
                "pitch": 64,
                "velocity": 64,
                "duration": 0.4681818181818187,
                "tempo": 120.0
            },
            {
                "start_time": 58.304545454545455,
                "end_time": 58.51590909090909,
                "pitch": 64,
                "velocity": 64,
                "duration": 0.21136363636363598,
                "tempo": 120.0
            },
            {
                "start_time": 44.461363636363636,
                "end_time": 58.54772727272727,
                "pitch": 78,
                "velocity": 64,
                "duration": 14.086363636363636,
                "tempo": 120.0
            },
            {
                "start_time": 58.54772727272727,
                "end_time": 58.756818181818176,
                "pitch": 69,
                "velocity": 64,
                "duration": 0.20909090909090366,
                "tempo": 120.0
            },
            {
                "start_time": 58.79090909090909,
                "end_time": 59.51590909090909,
                "pitch": 69,
                "velocity": 64,
                "duration": 0.7250000000000014,
                "tempo": 120.0
            },
            {
                "start_time": 52.5,
                "end_time": 59.775,
                "pitch": 65,
                "velocity": 40,
                "duration": 7.274999999999999,
                "tempo": 120.0
            },
            {
                "start_time": 59.55,
                "end_time": 59.775,
                "pitch": 65,
                "velocity": 64,
                "duration": 0.22500000000000142,
                "tempo": 120.0
            },
            {
                "start_time": 59.81136363636363,
                "end_time": 60.26363636363636,
                "pitch": 62,
                "velocity": 64,
                "duration": 0.45227272727272805,
                "tempo": 120.0
            },
            {
                "start_time": 59.81136363636363,
                "end_time": 60.76363636363636,
                "pitch": 65,
                "velocity": 64,
                "duration": 0.952272727272728,
                "tempo": 120.0
            },
            {
                "start_time": 60.29772727272727,
                "end_time": 60.76363636363636,
                "pitch": 65,
                "velocity": 64,
                "duration": 0.4659090909090864,
                "tempo": 120.0
            },
            {
                "start_time": 54.51136363636363,
                "end_time": 60.79772727272727,
                "pitch": 77,
                "velocity": 40,
                "duration": 6.286363636363639,
                "tempo": 120.0
            },
            {
                "start_time": 60.79772727272727,
                "end_time": 61.78409090909091,
                "pitch": 74,
                "velocity": 64,
                "duration": 0.9863636363636346,
                "tempo": 120.0
            },
            {
                "start_time": 61.81818181818181,
                "end_time": 62.78181818181818,
                "pitch": 74,
                "velocity": 64,
                "duration": 0.9636363636363683,
                "tempo": 120.0
            }
        ],
        "Acoustic Bass": [
            {
                "start_time": 0.5,
                "end_time": 0.984090909090909,
                "pitch": 36,
                "velocity": 64,
                "duration": 0.484090909090909,
                "tempo": 120.0
            },
            {
                "start_time": 1.0,
                "end_time": 1.4840909090909091,
                "pitch": 36,
                "velocity": 64,
                "duration": 0.4840909090909091,
                "tempo": 120.0
            },
            {
                "start_time": 1.5022727272727272,
                "end_time": 1.9954545454545454,
                "pitch": 35,
                "velocity": 64,
                "duration": 0.49318181818181817,
                "tempo": 120.0
            },
            {
                "start_time": 2.0136363636363637,
                "end_time": 2.4977272727272726,
                "pitch": 35,
                "velocity": 64,
                "duration": 0.4840909090909089,
                "tempo": 120.0
            },
            {
                "start_time": 2.5159090909090907,
                "end_time": 2.9977272727272726,
                "pitch": 33,
                "velocity": 64,
                "duration": 0.4818181818181819,
                "tempo": 120.0
            },
            {
                "start_time": 3.0159090909090907,
                "end_time": 3.5,
                "pitch": 33,
                "velocity": 64,
                "duration": 0.48409090909090935,
                "tempo": 120.0
            },
            {
                "start_time": 3.5159090909090907,
                "end_time": 4.0,
                "pitch": 33,
                "velocity": 64,
                "duration": 0.48409090909090935,
                "tempo": 120.0
            },
            {
                "start_time": 4.018181818181818,
                "end_time": 4.5,
                "pitch": 31,
                "velocity": 64,
                "duration": 0.48181818181818237,
                "tempo": 120.0
            },
            {
                "start_time": 0.5,
                "end_time": 4.518181818181818,
                "pitch": 0,
                "velocity": 64,
                "duration": 4.018181818181818,
                "tempo": 120.0
            },
            {
                "start_time": 4.518181818181818,
                "end_time": 5.002272727272727,
                "pitch": 29,
                "velocity": 64,
                "duration": 0.48409090909090935,
                "tempo": 120.0
            },
            {
                "start_time": 5.018181818181818,
                "end_time": 5.502272727272727,
                "pitch": 29,
                "velocity": 64,
                "duration": 0.48409090909090935,
                "tempo": 120.0
            },
            {
                "start_time": 5.5204545454545455,
                "end_time": 6.002272727272727,
                "pitch": 29,
                "velocity": 64,
                "duration": 0.4818181818181815,
                "tempo": 120.0
            },
            {
                "start_time": 6.0204545454545455,
                "end_time": 6.515909090909091,
                "pitch": 30,
                "velocity": 64,
                "duration": 0.49545454545454515,
                "tempo": 120.0
            },
            {
                "start_time": 6.534090909090909,
                "end_time": 7.015909090909091,
                "pitch": 31,
                "velocity": 64,
                "duration": 0.4818181818181815,
                "tempo": 120.0
            },
            {
                "start_time": 7.034090909090909,
                "end_time": 7.511363636363636,
                "pitch": 31,
                "velocity": 64,
                "duration": 0.4772727272727266,
                "tempo": 120.0
            },
            {
                "start_time": 7.527272727272727,
                "end_time": 8.011363636363637,
                "pitch": 31,
                "velocity": 64,
                "duration": 0.48409090909090935,
                "tempo": 120.0
            },
            {
                "start_time": 8.027272727272727,
                "end_time": 8.511363636363637,
                "pitch": 31,
                "velocity": 64,
                "duration": 0.48409090909090935,
                "tempo": 120.0
            },
            {
                "start_time": 4.518181818181818,
                "end_time": 8.529545454545454,
                "pitch": 0,
                "velocity": 64,
                "duration": 4.011363636363637,
                "tempo": 120.0
            },
            {
                "start_time": 8.529545454545454,
                "end_time": 9.022727272727272,
                "pitch": 38,
                "velocity": 64,
                "duration": 0.4931818181818173,
                "tempo": 120.0
            },
            {
                "start_time": 9.040909090909091,
                "end_time": 9.518181818181818,
                "pitch": 38,
                "velocity": 64,
                "duration": 0.4772727272727266,
                "tempo": 120.0
            },
            {
                "start_time": 9.534090909090908,
                "end_time": 10.029545454545454,
                "pitch": 38,
                "velocity": 64,
                "duration": 0.49545454545454604,
                "tempo": 120.0
            },
            {
                "start_time": 10.047727272727272,
                "end_time": 10.529545454545454,
                "pitch": 38,
                "velocity": 64,
                "duration": 0.48181818181818237,
                "tempo": 120.0
            },
            {
                "start_time": 10.547727272727272,
                "end_time": 11.031818181818181,
                "pitch": 31,
                "velocity": 64,
                "duration": 0.48409090909090935,
                "tempo": 120.0
            },
            {
                "start_time": 11.047727272727272,
                "end_time": 11.531818181818181,
                "pitch": 31,
                "velocity": 64,
                "duration": 0.48409090909090935,
                "tempo": 120.0
            },
            {
                "start_time": 8.529545454545454,
                "end_time": 11.549999999999999,
                "pitch": 0,
                "velocity": 64,
                "duration": 3.0204545454545446,
                "tempo": 120.0
            },
            {
                "start_time": 11.549999999999999,
                "end_time": 12.045454545454545,
                "pitch": 29,
                "velocity": 64,
                "duration": 0.49545454545454604,
                "tempo": 120.0
            },
            {
                "start_time": 12.061363636363636,
                "end_time": 12.538636363636362,
                "pitch": 29,
                "velocity": 64,
                "duration": 0.4772727272727266,
                "tempo": 120.0
            },
            {
                "start_time": 12.554545454545455,
                "end_time": 13.049999999999999,
                "pitch": 29,
                "velocity": 64,
                "duration": 0.49545454545454426,
                "tempo": 120.0
            },
            {
                "start_time": 13.068181818181818,
                "end_time": 13.543181818181818,
                "pitch": 28,
                "velocity": 64,
                "duration": 0.47499999999999964,
                "tempo": 120.0
            },
            {
                "start_time": 13.561363636363636,
                "end_time": 14.054545454545455,
                "pitch": 28,
                "velocity": 64,
                "duration": 0.49318181818181905,
                "tempo": 120.0
            },
            {
                "start_time": 14.072727272727272,
                "end_time": 14.549999999999999,
                "pitch": 28,
                "velocity": 64,
                "duration": 0.4772727272727266,
                "tempo": 120.0
            },
            {
                "start_time": 6.534090909090909,
                "end_time": 14.56590909090909,
                "pitch": 42,
                "velocity": 64,
                "duration": 8.031818181818181,
                "tempo": 120.0
            },
            {
                "start_time": 14.56590909090909,
                "end_time": 15.061363636363636,
                "pitch": 33,
                "velocity": 64,
                "duration": 0.49545454545454604,
                "tempo": 120.0
            },
            {
                "start_time": 15.079545454545453,
                "end_time": 15.563636363636363,
                "pitch": 33,
                "velocity": 64,
                "duration": 0.48409090909090935,
                "tempo": 120.0
            },
            {
                "start_time": 15.579545454545453,
                "end_time": 16.063636363636363,
                "pitch": 33,
                "velocity": 64,
                "duration": 0.48409090909090935,
                "tempo": 120.0
            },
            {
                "start_time": 16.081818181818182,
                "end_time": 16.563636363636363,
                "pitch": 31,
                "velocity": 64,
                "duration": 0.4818181818181806,
                "tempo": 120.0
            },
            {
                "start_time": 11.549999999999999,
                "end_time": 16.581818181818182,
                "pitch": 0,
                "velocity": 64,
                "duration": 5.031818181818183,
                "tempo": 120.0
            },
            {
                "start_time": 16.581818181818182,
                "end_time": 17.06590909090909,
                "pitch": 29,
                "velocity": 64,
                "duration": 0.48409090909090935,
                "tempo": 120.0
            },
            {
                "start_time": 17.081818181818182,
                "end_time": 17.56590909090909,
                "pitch": 29,
                "velocity": 64,
                "duration": 0.48409090909090935,
                "tempo": 120.0
            },
            {
                "start_time": 17.584090909090907,
                "end_time": 18.06590909090909,
                "pitch": 29,
                "velocity": 64,
                "duration": 0.48181818181818414,
                "tempo": 120.0
            },
            {
                "start_time": 18.084090909090907,
                "end_time": 18.56590909090909,
                "pitch": 29,
                "velocity": 64,
                "duration": 0.48181818181818414,
                "tempo": 120.0
            },
            {
                "start_time": 14.56590909090909,
                "end_time": 18.584090909090907,
                "pitch": 42,
                "velocity": 64,
                "duration": 4.018181818181818,
                "tempo": 120.0
            },
            {
                "start_time": 18.584090909090907,
                "end_time": 19.068181818181817,
                "pitch": 31,
                "velocity": 64,
                "duration": 0.48409090909090935,
                "tempo": 120.0
            },
            {
                "start_time": 19.084090909090907,
                "end_time": 19.568181818181817,
                "pitch": 31,
                "velocity": 64,
                "duration": 0.48409090909090935,
                "tempo": 120.0
            },
            {
                "start_time": 16.581818181818182,
                "end_time": 19.586363636363636,
                "pitch": 0,
                "velocity": 64,
                "duration": 3.004545454545454,
                "tempo": 120.0
            },
            {
                "start_time": 19.586363636363636,
                "end_time": 20.081818181818182,
                "pitch": 28,
                "velocity": 64,
                "duration": 0.49545454545454604,
                "tempo": 120.0
            },
            {
                "start_time": 20.097727272727273,
                "end_time": 20.575,
                "pitch": 28,
                "velocity": 64,
                "duration": 0.4772727272727266,
                "tempo": 120.0
            },
            {
                "start_time": 18.584090909090907,
                "end_time": 20.59090909090909,
                "pitch": 42,
                "velocity": 64,
                "duration": 2.0068181818181827,
                "tempo": 120.0
            },
            {
                "start_time": 20.59090909090909,
                "end_time": 21.086363636363636,
                "pitch": 33,
                "velocity": 64,
                "duration": 0.49545454545454604,
                "tempo": 120.0
            },
            {
                "start_time": 21.104545454545452,
                "end_time": 21.579545454545453,
                "pitch": 33,
                "velocity": 64,
                "duration": 0.4750000000000014,
                "tempo": 120.0
            },
            {
                "start_time": 21.597727272727273,
                "end_time": 22.09318181818182,
                "pitch": 33,
                "velocity": 64,
                "duration": 0.49545454545454604,
                "tempo": 120.0
            },
            {
                "start_time": 22.10909090909091,
                "end_time": 22.59318181818182,
                "pitch": 32,
                "velocity": 64,
                "duration": 0.48409090909090935,
                "tempo": 120.0
            },
            {
                "start_time": 22.611363636363635,
                "end_time": 23.095454545454544,
                "pitch": 32,
                "velocity": 64,
                "duration": 0.48409090909090935,
                "tempo": 120.0
            },
            {
                "start_time": 23.111363636363635,
                "end_time": 23.595454545454544,
                "pitch": 31,
                "velocity": 64,
                "duration": 0.48409090909090935,
                "tempo": 120.0
            },
            {
                "start_time": 19.586363636363636,
                "end_time": 23.611363636363635,
                "pitch": 0,
                "velocity": 64,
                "duration": 4.024999999999999,
                "tempo": 120.0
            },
            {
                "start_time": 23.611363636363635,
                "end_time": 24.095454545454544,
                "pitch": 30,
                "velocity": 64,
                "duration": 0.48409090909090935,
                "tempo": 120.0
            },
            {
                "start_time": 24.113636363636363,
                "end_time": 24.60681818181818,
                "pitch": 30,
                "velocity": 64,
                "duration": 0.4931818181818173,
                "tempo": 120.0
            },
            {
                "start_time": 24.625,
                "end_time": 25.102272727272727,
                "pitch": 30,
                "velocity": 64,
                "duration": 0.4772727272727266,
                "tempo": 120.0
            },
            {
                "start_time": 25.118181818181817,
                "end_time": 25.602272727272727,
                "pitch": 29,
                "velocity": 64,
                "duration": 0.48409090909090935,
                "tempo": 120.0
            },
            {
                "start_time": 25.620454545454542,
                "end_time": 26.102272727272727,
                "pitch": 29,
                "velocity": 64,
                "duration": 0.48181818181818414,
                "tempo": 120.0
            },
            {
                "start_time": 26.120454545454542,
                "end_time": 26.604545454545452,
                "pitch": 29,
                "velocity": 64,
                "duration": 0.48409090909090935,
                "tempo": 120.0
            },
            {
                "start_time": 20.59090909090909,
                "end_time": 27.113636363636363,
                "pitch": 42,
                "velocity": 64,
                "duration": 6.522727272727273,
                "tempo": 120.0
            },
            {
                "start_time": 27.113636363636363,
                "end_time": 28.118181818181817,
                "pitch": 31,
                "velocity": 64,
                "duration": 1.004545454545454,
                "tempo": 120.0
            },
            {
                "start_time": 28.136363636363637,
                "end_time": 28.620454545454542,
                "pitch": 31,
                "velocity": 64,
                "duration": 0.4840909090909058,
                "tempo": 120.0
            },
            {
                "start_time": 23.611363636363635,
                "end_time": 28.636363636363637,
                "pitch": 0,
                "velocity": 64,
                "duration": 5.025000000000002,
                "tempo": 120.0
            },
            {
                "start_time": 28.636363636363637,
                "end_time": 28.86590909090909,
                "pitch": 36,
                "velocity": 64,
                "duration": 0.22954545454545183,
                "tempo": 120.0
            },
            {
                "start_time": 29.129545454545454,
                "end_time": 29.613636363636363,
                "pitch": 36,
                "velocity": 64,
                "duration": 0.48409090909090935,
                "tempo": 120.0
            },
            {
                "start_time": 1.5022727272727272,
                "end_time": 29.629545454545454,
                "pitch": 40,
                "velocity": 64,
                "duration": 28.127272727272725,
                "tempo": 120.0
            },
            {
                "start_time": 29.629545454545454,
                "end_time": 30.134090909090908,
                "pitch": 31,
                "velocity": 64,
                "duration": 0.504545454545454,
                "tempo": 120.0
            },
            {
                "start_time": 28.636363636363637,
                "end_time": 30.152272727272727,
                "pitch": 0,
                "velocity": 64,
                "duration": 1.5159090909090907,
                "tempo": 120.0
            },
            {
                "start_time": 30.152272727272727,
                "end_time": 30.636363636363633,
                "pitch": 28,
                "velocity": 64,
                "duration": 0.4840909090909058,
                "tempo": 120.0
            },
            {
                "start_time": 29.629545454545454,
                "end_time": 30.654545454545453,
                "pitch": 40,
                "velocity": 64,
                "duration": 1.0249999999999986,
                "tempo": 120.0
            },
            {
                "start_time": 30.654545454545453,
                "end_time": 31.136363636363633,
                "pitch": 36,
                "velocity": 64,
                "duration": 0.4818181818181806,
                "tempo": 120.0
            },
            {
                "start_time": 30.654545454545453,
                "end_time": 32.138636363636365,
                "pitch": 40,
                "velocity": 64,
                "duration": 1.484090909090913,
                "tempo": 120.0
            },
            {
                "start_time": 32.138636363636365,
                "end_time": 32.62272727272727,
                "pitch": 31,
                "velocity": 64,
                "duration": 0.48409090909090224,
                "tempo": 120.0
            },
            {
                "start_time": 30.152272727272727,
                "end_time": 32.64090909090909,
                "pitch": 0,
                "velocity": 64,
                "duration": 2.4886363636363633,
                "tempo": 120.0
            },
            {
                "start_time": 32.64090909090909,
                "end_time": 33.13409090909091,
                "pitch": 36,
                "velocity": 64,
                "duration": 0.4931818181818173,
                "tempo": 120.0
            },
            {
                "start_time": 33.152272727272724,
                "end_time": 33.63636363636363,
                "pitch": 36,
                "velocity": 64,
                "duration": 0.48409090909090935,
                "tempo": 120.0
            },
            {
                "start_time": 32.138636363636365,
                "end_time": 33.654545454545456,
                "pitch": 40,
                "velocity": 64,
                "duration": 1.5159090909090907,
                "tempo": 120.0
            },
            {
                "start_time": 2.5159090909090907,
                "end_time": 34.13636363636363,
                "pitch": 35,
                "velocity": 64,
                "duration": 31.620454545454542,
                "tempo": 120.0
            },
            {
                "start_time": 33.654545454545456,
                "end_time": 34.13636363636363,
                "pitch": 35,
                "velocity": 64,
                "duration": 0.48181818181817704,
                "tempo": 120.0
            },
            {
                "start_time": 34.154545454545456,
                "end_time": 34.65,
                "pitch": 35,
                "velocity": 64,
                "duration": 0.4954545454545425,
                "tempo": 120.0
            },
            {
                "start_time": 34.668181818181814,
                "end_time": 35.152272727272724,
                "pitch": 33,
                "velocity": 64,
                "duration": 0.48409090909090935,
                "tempo": 120.0
            },
            {
                "start_time": 35.168181818181814,
                "end_time": 35.64545454545454,
                "pitch": 33,
                "velocity": 64,
                "duration": 0.4772727272727266,
                "tempo": 120.0
            },
            {
                "start_time": 35.66136363636363,
                "end_time": 36.15681818181818,
                "pitch": 33,
                "velocity": 64,
                "duration": 0.4954545454545496,
                "tempo": 120.0
            },
            {
                "start_time": 36.175,
                "end_time": 36.65,
                "pitch": 31,
                "velocity": 64,
                "duration": 0.4750000000000014,
                "tempo": 120.0
            },
            {
                "start_time": 32.64090909090909,
                "end_time": 36.66590909090909,
                "pitch": 0,
                "velocity": 64,
                "duration": 4.024999999999999,
                "tempo": 120.0
            },
            {
                "start_time": 36.66590909090909,
                "end_time": 37.15,
                "pitch": 29,
                "velocity": 64,
                "duration": 0.48409090909090935,
                "tempo": 120.0
            },
            {
                "start_time": 37.168181818181814,
                "end_time": 37.67045454545455,
                "pitch": 29,
                "velocity": 64,
                "duration": 0.5022727272727323,
                "tempo": 120.0
            },
            {
                "start_time": 37.68863636363636,
                "end_time": 38.16590909090909,
                "pitch": 29,
                "velocity": 64,
                "duration": 0.4772727272727266,
                "tempo": 120.0
            },
            {
                "start_time": 38.18181818181818,
                "end_time": 38.66590909090909,
                "pitch": 30,
                "velocity": 64,
                "duration": 0.48409090909090935,
                "tempo": 120.0
            },
            {
                "start_time": 27.113636363636363,
                "end_time": 38.68181818181818,
                "pitch": 42,
                "velocity": 64,
                "duration": 11.568181818181817,
                "tempo": 120.0
            },
            {
                "start_time": 38.68181818181818,
                "end_time": 39.16590909090909,
                "pitch": 31,
                "velocity": 64,
                "duration": 0.48409090909090935,
                "tempo": 120.0
            },
            {
                "start_time": 39.184090909090905,
                "end_time": 39.66590909090909,
                "pitch": 31,
                "velocity": 64,
                "duration": 0.48181818181818414,
                "tempo": 120.0
            },
            {
                "start_time": 39.684090909090905,
                "end_time": 40.168181818181814,
                "pitch": 31,
                "velocity": 64,
                "duration": 0.48409090909090935,
                "tempo": 120.0
            },
            {
                "start_time": 40.184090909090905,
                "end_time": 40.679545454545455,
                "pitch": 31,
                "velocity": 64,
                "duration": 0.4954545454545496,
                "tempo": 120.0
            },
            {
                "start_time": 36.66590909090909,
                "end_time": 40.69772727272727,
                "pitch": 0,
                "velocity": 64,
                "duration": 4.031818181818181,
                "tempo": 120.0
            },
            {
                "start_time": 40.69772727272727,
                "end_time": 41.17272727272727,
                "pitch": 36,
                "velocity": 64,
                "duration": 0.4750000000000014,
                "tempo": 120.0
            },
            {
                "start_time": 41.19090909090909,
                "end_time": 41.67272727272727,
                "pitch": 36,
                "velocity": 64,
                "duration": 0.48181818181818414,
                "tempo": 120.0
            },
            {
                "start_time": 33.654545454545456,
                "end_time": 41.69090909090909,
                "pitch": 40,
                "velocity": 64,
                "duration": 8.036363636363632,
                "tempo": 120.0
            },
            {
                "start_time": 34.668181818181814,
                "end_time": 42.175,
                "pitch": 35,
                "velocity": 64,
                "duration": 7.506818181818183,
                "tempo": 120.0
            },
            {
                "start_time": 41.69090909090909,
                "end_time": 42.175,
                "pitch": 35,
                "velocity": 64,
                "duration": 0.48409090909090935,
                "tempo": 120.0
            },
            {
                "start_time": 42.19090909090909,
                "end_time": 42.68636363636364,
                "pitch": 35,
                "velocity": 64,
                "duration": 0.4954545454545496,
                "tempo": 120.0
            },
            {
                "start_time": 42.70454545454545,
                "end_time": 43.18863636363636,
                "pitch": 35,
                "velocity": 64,
                "duration": 0.48409090909090935,
                "tempo": 120.0
            },
            {
                "start_time": 43.20681818181818,
                "end_time": 43.68181818181818,
                "pitch": 34,
                "velocity": 64,
                "duration": 0.4750000000000014,
                "tempo": 120.0
            },
            {
                "start_time": 43.699999999999996,
                "end_time": 44.19318181818181,
                "pitch": 34,
                "velocity": 64,
                "duration": 0.4931818181818173,
                "tempo": 120.0
            },
            {
                "start_time": 44.211363636363636,
                "end_time": 44.695454545454545,
                "pitch": 33,
                "velocity": 64,
                "duration": 0.48409090909090935,
                "tempo": 120.0
            },
            {
                "start_time": 44.71363636363636,
                "end_time": 45.195454545454545,
                "pitch": 33,
                "velocity": 64,
                "duration": 0.48181818181818414,
                "tempo": 120.0
            },
            {
                "start_time": 45.21363636363636,
                "end_time": 45.69772727272727,
                "pitch": 32,
                "velocity": 64,
                "duration": 0.48409090909090935,
                "tempo": 120.0
            },
            {
                "start_time": 45.71363636363636,
                "end_time": 46.19772727272727,
                "pitch": 34,
                "velocity": 64,
                "duration": 0.48409090909090935,
                "tempo": 120.0
            },
            {
                "start_time": 46.215909090909086,
                "end_time": 46.69772727272727,
                "pitch": 34,
                "velocity": 64,
                "duration": 0.48181818181818414,
                "tempo": 120.0
            },
            {
                "start_time": 46.715909090909086,
                "end_time": 47.19772727272727,
                "pitch": 36,
                "velocity": 64,
                "duration": 0.48181818181818414,
                "tempo": 120.0
            },
            {
                "start_time": 47.215909090909086,
                "end_time": 47.699999999999996,
                "pitch": 36,
                "velocity": 64,
                "duration": 0.48409090909090935,
                "tempo": 120.0
            },
            {
                "start_time": 47.715909090909086,
                "end_time": 48.199999999999996,
                "pitch": 36,
                "velocity": 64,
                "duration": 0.48409090909090935,
                "tempo": 120.0
            },
            {
                "start_time": 41.69090909090909,
                "end_time": 48.21818181818182,
                "pitch": 40,
                "velocity": 64,
                "duration": 6.527272727272731,
                "tempo": 120.0
            },
            {
                "start_time": 48.21818181818182,
                "end_time": 48.71363636363636,
                "pitch": 35,
                "velocity": 64,
                "duration": 0.4954545454545425,
                "tempo": 120.0
            },
            {
                "start_time": 48.73181818181818,
                "end_time": 49.974999999999994,
                "pitch": 33,
                "velocity": 64,
                "duration": 1.2431818181818173,
                "tempo": 120.0
            },
            {
                "start_time": 38.68181818181818,
                "end_time": 50.25,
                "pitch": 42,
                "velocity": 64,
                "duration": 11.56818181818182,
                "tempo": 120.0
            },
            {
                "start_time": 50.25,
                "end_time": 50.47954545454545,
                "pitch": 33,
                "velocity": 64,
                "duration": 0.22954545454545183,
                "tempo": 120.0
            },
            {
                "start_time": 50.49772727272727,
                "end_time": 50.724999999999994,
                "pitch": 36,
                "velocity": 64,
                "duration": 0.22727272727272663,
                "tempo": 120.0
            },
            {
                "start_time": 50.74318181818182,
                "end_time": 51.48409090909091,
                "pitch": 38,
                "velocity": 64,
                "duration": 0.7409090909090921,
                "tempo": 120.0
            },
            {
                "start_time": 10.547727272727272,
                "end_time": 51.502272727272725,
                "pitch": 41,
                "velocity": 64,
                "duration": 40.95454545454545,
                "tempo": 120.0
            },
            {
                "start_time": 51.502272727272725,
                "end_time": 51.74545454545454,
                "pitch": 33,
                "velocity": 64,
                "duration": 0.24318181818181728,
                "tempo": 120.0
            },
            {
                "start_time": 50.25,
                "end_time": 52.25,
                "pitch": 42,
                "velocity": 64,
                "duration": 2.0,
                "tempo": 120.0
            },
            {
                "start_time": 52.25,
                "end_time": 52.73181818181818,
                "pitch": 33,
                "velocity": 64,
                "duration": 0.48181818181817704,
                "tempo": 120.0
            },
            {
                "start_time": 52.75,
                "end_time": 54.002272727272725,
                "pitch": 33,
                "velocity": 64,
                "duration": 1.2522727272727252,
                "tempo": 120.0
            },
            {
                "start_time": 54.02045454545454,
                "end_time": 54.49545454545454,
                "pitch": 31,
                "velocity": 64,
                "duration": 0.4750000000000014,
                "tempo": 120.0
            },
            {
                "start_time": 48.73181818181818,
                "end_time": 54.740909090909085,
                "pitch": 35,
                "velocity": 64,
                "duration": 6.009090909090908,
                "tempo": 120.0
            },
            {
                "start_time": 54.51136363636363,
                "end_time": 54.740909090909085,
                "pitch": 35,
                "velocity": 64,
                "duration": 0.22954545454545183,
                "tempo": 120.0
            },
            {
                "start_time": 50.74318181818182,
                "end_time": 55.76136363636363,
                "pitch": 36,
                "velocity": 64,
                "duration": 5.018181818181816,
                "tempo": 120.0
            },
            {
                "start_time": 54.75909090909091,
                "end_time": 55.76136363636363,
                "pitch": 36,
                "velocity": 64,
                "duration": 1.0022727272727252,
                "tempo": 120.0
            },
            {
                "start_time": 48.21818181818182,
                "end_time": 55.77954545454545,
                "pitch": 40,
                "velocity": 64,
                "duration": 7.56136363636363,
                "tempo": 120.0
            },
            {
                "start_time": 55.77954545454545,
                "end_time": 56.24772727272727,
                "pitch": 35,
                "velocity": 64,
                "duration": 0.4681818181818187,
                "tempo": 120.0
            },
            {
                "start_time": 50.49772727272727,
                "end_time": 56.26590909090909,
                "pitch": 7,
                "velocity": 64,
                "duration": 5.768181818181823,
                "tempo": 120.0
            },
            {
                "start_time": 56.26590909090909,
                "end_time": 56.74772727272727,
                "pitch": 28,
                "velocity": 64,
                "duration": 0.48181818181817704,
                "tempo": 120.0
            },
            {
                "start_time": 52.25,
                "end_time": 56.76590909090909,
                "pitch": 42,
                "velocity": 64,
                "duration": 4.515909090909091,
                "tempo": 120.0
            },
            {
                "start_time": 56.76590909090909,
                "end_time": 58.03181818181818,
                "pitch": 33,
                "velocity": 64,
                "duration": 1.2659090909090907,
                "tempo": 120.0
            },
            {
                "start_time": 56.76590909090909,
                "end_time": 58.30681818181818,
                "pitch": 42,
                "velocity": 64,
                "duration": 1.5409090909090892,
                "tempo": 120.0
            },
            {
                "start_time": 58.30681818181818,
                "end_time": 58.53181818181818,
                "pitch": 33,
                "velocity": 64,
                "duration": 0.22500000000000142,
                "tempo": 120.0
            },
            {
                "start_time": 56.26590909090909,
                "end_time": 58.55,
                "pitch": 7,
                "velocity": 64,
                "duration": 2.2840909090909065,
                "tempo": 120.0
            },
            {
                "start_time": 58.55,
                "end_time": 58.775,
                "pitch": 36,
                "velocity": 64,
                "duration": 0.22500000000000142,
                "tempo": 120.0
            },
            {
                "start_time": 58.79090909090909,
                "end_time": 59.53181818181818,
                "pitch": 38,
                "velocity": 64,
                "duration": 0.7409090909090921,
                "tempo": 120.0
            },
            {
                "start_time": 51.502272727272725,
                "end_time": 59.55,
                "pitch": 41,
                "velocity": 64,
                "duration": 8.047727272727272,
                "tempo": 120.0
            },
            {
                "start_time": 59.55,
                "end_time": 59.793181818181814,
                "pitch": 33,
                "velocity": 64,
                "duration": 0.24318181818181728,
                "tempo": 120.0
            },
            {
                "start_time": 58.30681818181818,
                "end_time": 60.29772727272727,
                "pitch": 42,
                "velocity": 64,
                "duration": 1.990909090909092,
                "tempo": 120.0
            },
            {
                "start_time": 60.29772727272727,
                "end_time": 60.77954545454545,
                "pitch": 33,
                "velocity": 64,
                "duration": 0.48181818181817704,
                "tempo": 120.0
            },
            {
                "start_time": 60.79772727272727,
                "end_time": 61.80227272727272,
                "pitch": 33,
                "velocity": 64,
                "duration": 1.0045454545454504,
                "tempo": 120.0
            },
            {
                "start_time": 54.51136363636363,
                "end_time": 62.8,
                "pitch": 31,
                "velocity": 64,
                "duration": 8.288636363636364,
                "tempo": 120.0
            },
            {
                "start_time": 61.820454545454545,
                "end_time": 62.8,
                "pitch": 31,
                "velocity": 64,
                "duration": 0.9795454545454518,
                "tempo": 120.0
            },
            {
                "start_time": 45.71363636363636,
                "end_time": 63.793181818181814,
                "pitch": 32,
                "velocity": 64,
                "duration": 18.079545454545453,
                "tempo": 120.0
            },
            {
                "start_time": 62.81818181818181,
                "end_time": 63.793181818181814,
                "pitch": 32,
                "velocity": 64,
                "duration": 0.9750000000000014,
                "tempo": 120.0
            },
            {
                "start_time": 63.81136363636363,
                "end_time": 64.12727272727273,
                "pitch": 33,
                "velocity": 64,
                "duration": 0.3159090909090949,
                "tempo": 120.0
            },
            {
                "start_time": 64.14545454545454,
                "end_time": 64.46363636363635,
                "pitch": 32,
                "velocity": 64,
                "duration": 0.318181818181813,
                "tempo": 120.0
            },
            {
                "start_time": 40.69772727272727,
                "end_time": 64.48181818181818,
                "pitch": 0,
                "velocity": 64,
                "duration": 23.784090909090914,
                "tempo": 120.0
            },
            {
                "start_time": 64.48181818181818,
                "end_time": 64.80681818181817,
                "pitch": 30,
                "velocity": 64,
                "duration": 0.32499999999998863,
                "tempo": 120.0
            },
            {
                "start_time": 64.825,
                "end_time": 65.3,
                "pitch": 30,
                "velocity": 64,
                "duration": 0.4749999999999943,
                "tempo": 120.0
            },
            {
                "start_time": 65.31818181818181,
                "end_time": 65.8,
                "pitch": 29,
                "velocity": 64,
                "duration": 0.48181818181818414,
                "tempo": 120.0
            },
            {
                "start_time": 65.81818181818181,
                "end_time": 66.30227272727272,
                "pitch": 29,
                "velocity": 64,
                "duration": 0.48409090909090935,
                "tempo": 120.0
            },
            {
                "start_time": 66.31818181818181,
                "end_time": 66.82272727272726,
                "pitch": 29,
                "velocity": 64,
                "duration": 0.5045454545454504,
                "tempo": 120.0
            },
            {
                "start_time": 66.83863636363635,
                "end_time": 67.31590909090909,
                "pitch": 29,
                "velocity": 64,
                "duration": 0.47727272727273373,
                "tempo": 120.0
            },
            {
                "start_time": 67.3340909090909,
                "end_time": 67.81590909090909,
                "pitch": 29,
                "velocity": 64,
                "duration": 0.48181818181818414,
                "tempo": 120.0
            },
            {
                "start_time": 67.8340909090909,
                "end_time": 68.32727272727273,
                "pitch": 29,
                "velocity": 64,
                "duration": 0.4931818181818244,
                "tempo": 120.0
            },
            {
                "start_time": 68.34545454545454,
                "end_time": 68.82272727272726,
                "pitch": 29,
                "velocity": 64,
                "duration": 0.4772727272727195,
                "tempo": 120.0
            },
            {
                "start_time": 60.29772727272727,
                "end_time": 68.83863636363635,
                "pitch": 42,
                "velocity": 64,
                "duration": 8.540909090909082,
                "tempo": 120.0
            },
            {
                "start_time": 68.83863636363635,
                "end_time": 69.3340909090909,
                "pitch": 31,
                "velocity": 64,
                "duration": 0.4954545454545496,
                "tempo": 120.0
            },
            {
                "start_time": 69.35227272727272,
                "end_time": 69.83636363636363,
                "pitch": 31,
                "velocity": 64,
                "duration": 0.48409090909090935,
                "tempo": 120.0
            },
            {
                "start_time": 69.85227272727272,
                "end_time": 70.32954545454545,
                "pitch": 31,
                "velocity": 64,
                "duration": 0.47727272727273373,
                "tempo": 120.0
            },
            {
                "start_time": 70.34545454545454,
                "end_time": 70.82954545454545,
                "pitch": 31,
                "velocity": 64,
                "duration": 0.48409090909090935,
                "tempo": 120.0
            },
            {
                "start_time": 70.84545454545454,
                "end_time": 71.32954545454545,
                "pitch": 31,
                "velocity": 64,
                "duration": 0.48409090909090935,
                "tempo": 120.0
            },
            {
                "start_time": 71.34772727272727,
                "end_time": 71.84318181818182,
                "pitch": 31,
                "velocity": 64,
                "duration": 0.4954545454545496,
                "tempo": 120.0
            },
            {
                "start_time": 71.85909090909091,
                "end_time": 72.34318181818182,
                "pitch": 31,
                "velocity": 64,
                "duration": 0.48409090909090935,
                "tempo": 120.0
            }
        ],
        "French Horn": [
            {
                "start_time": 0.004545454545454545,
                "end_time": 0.1318181818181818,
                "pitch": 48,
                "velocity": 64,
                "duration": 0.12727272727272726,
                "tempo": 120.0
            },
            {
                "start_time": 0.16818181818181818,
                "end_time": 0.3,
                "pitch": 52,
                "velocity": 64,
                "duration": 0.1318181818181818,
                "tempo": 120.0
            },
            {
                "start_time": 0.33409090909090905,
                "end_time": 0.4659090909090909,
                "pitch": 55,
                "velocity": 64,
                "duration": 0.13181818181818183,
                "tempo": 120.0
            },
            {
                "start_time": 1.5022727272727272,
                "end_time": 1.9795454545454545,
                "pitch": 55,
                "velocity": 64,
                "duration": 0.4772727272727273,
                "tempo": 120.0
            },
            {
                "start_time": 2.0159090909090907,
                "end_time": 2.4818181818181815,
                "pitch": 55,
                "velocity": 64,
                "duration": 0.46590909090909083,
                "tempo": 120.0
            },
            {
                "start_time": 2.5159090909090907,
                "end_time": 2.9818181818181815,
                "pitch": 56,
                "velocity": 64,
                "duration": 0.46590909090909083,
                "tempo": 120.0
            },
            {
                "start_time": 3.0159090909090907,
                "end_time": 3.484090909090909,
                "pitch": 72,
                "velocity": 64,
                "duration": 0.46818181818181825,
                "tempo": 120.0
            },
            {
                "start_time": 3.518181818181818,
                "end_time": 3.984090909090909,
                "pitch": 71,
                "velocity": 64,
                "duration": 0.46590909090909083,
                "tempo": 120.0
            },
            {
                "start_time": 3.518181818181818,
                "end_time": 4.4840909090909085,
                "pitch": 76,
                "velocity": 64,
                "duration": 0.9659090909090904,
                "tempo": 120.0
            },
            {
                "start_time": 4.018181818181818,
                "end_time": 4.4840909090909085,
                "pitch": 76,
                "velocity": 64,
                "duration": 0.46590909090909083,
                "tempo": 120.0
            },
            {
                "start_time": 4.5204545454545455,
                "end_time": 5.320454545454545,
                "pitch": 52,
                "velocity": 64,
                "duration": 0.7999999999999998,
                "tempo": 120.0
            },
            {
                "start_time": 0.16818181818181818,
                "end_time": 5.486363636363636,
                "pitch": 48,
                "velocity": 64,
                "duration": 5.318181818181818,
                "tempo": 120.0
            },
            {
                "start_time": 5.3545454545454545,
                "end_time": 5.486363636363636,
                "pitch": 48,
                "velocity": 64,
                "duration": 0.13181818181818183,
                "tempo": 120.0
            },
            {
                "start_time": 5.5204545454545455,
                "end_time": 5.986363636363636,
                "pitch": 52,
                "velocity": 64,
                "duration": 0.46590909090909083,
                "tempo": 120.0
            },
            {
                "start_time": 0.33409090909090905,
                "end_time": 6.0204545454545455,
                "pitch": 66,
                "velocity": 64,
                "duration": 5.6863636363636365,
                "tempo": 120.0
            },
            {
                "start_time": 6.0204545454545455,
                "end_time": 6.497727272727272,
                "pitch": 57,
                "velocity": 64,
                "duration": 0.4772727272727266,
                "tempo": 120.0
            },
            {
                "start_time": 6.534090909090909,
                "end_time": 7.0,
                "pitch": 50,
                "velocity": 64,
                "duration": 0.46590909090909083,
                "tempo": 120.0
            },
            {
                "start_time": 8.531818181818181,
                "end_time": 9.336363636363636,
                "pitch": 62,
                "velocity": 64,
                "duration": 0.8045454545454547,
                "tempo": 120.0
            },
            {
                "start_time": 5.3545454545454545,
                "end_time": 9.5,
                "pitch": 53,
                "velocity": 64,
                "duration": 4.1454545454545455,
                "tempo": 120.0
            },
            {
                "start_time": 9.370454545454544,
                "end_time": 9.5,
                "pitch": 53,
                "velocity": 64,
                "duration": 0.12954545454545574,
                "tempo": 120.0
            },
            {
                "start_time": 9.536363636363635,
                "end_time": 10.011363636363637,
                "pitch": 53,
                "velocity": 64,
                "duration": 0.4750000000000014,
                "tempo": 120.0
            },
            {
                "start_time": 6.0204545454545455,
                "end_time": 10.047727272727272,
                "pitch": 66,
                "velocity": 64,
                "duration": 4.0272727272727264,
                "tempo": 120.0
            },
            {
                "start_time": 10.047727272727272,
                "end_time": 10.513636363636364,
                "pitch": 57,
                "velocity": 64,
                "duration": 0.4659090909090917,
                "tempo": 120.0
            },
            {
                "start_time": 10.549999999999999,
                "end_time": 11.35,
                "pitch": 69,
                "velocity": 64,
                "duration": 0.8000000000000007,
                "tempo": 120.0
            },
            {
                "start_time": 11.549999999999999,
                "end_time": 12.027272727272727,
                "pitch": 62,
                "velocity": 64,
                "duration": 0.4772727272727284,
                "tempo": 120.0
            },
            {
                "start_time": 12.063636363636363,
                "end_time": 12.522727272727272,
                "pitch": 71,
                "velocity": 64,
                "duration": 0.459090909090909,
                "tempo": 120.0
            },
            {
                "start_time": 1.5022727272727272,
                "end_time": 13.363636363636363,
                "pitch": 64,
                "velocity": 64,
                "duration": 11.861363636363636,
                "tempo": 120.0
            },
            {
                "start_time": 12.556818181818182,
                "end_time": 13.363636363636363,
                "pitch": 64,
                "velocity": 64,
                "duration": 0.8068181818181817,
                "tempo": 120.0
            },
            {
                "start_time": 10.047727272727272,
                "end_time": 13.397727272727272,
                "pitch": 66,
                "velocity": 64,
                "duration": 3.3499999999999996,
                "tempo": 120.0
            },
            {
                "start_time": 13.397727272727272,
                "end_time": 13.527272727272727,
                "pitch": 55,
                "velocity": 64,
                "duration": 0.12954545454545574,
                "tempo": 120.0
            },
            {
                "start_time": 13.563636363636363,
                "end_time": 14.038636363636362,
                "pitch": 55,
                "velocity": 64,
                "duration": 0.47499999999999964,
                "tempo": 120.0
            },
            {
                "start_time": 4.018181818181818,
                "end_time": 14.075,
                "pitch": 56,
                "velocity": 64,
                "duration": 10.056818181818182,
                "tempo": 120.0
            },
            {
                "start_time": 14.075,
                "end_time": 14.534090909090908,
                "pitch": 59,
                "velocity": 64,
                "duration": 0.459090909090909,
                "tempo": 120.0
            },
            {
                "start_time": 12.556818181818182,
                "end_time": 14.568181818181818,
                "pitch": 44,
                "velocity": 64,
                "duration": 2.0113636363636367,
                "tempo": 120.0
            },
            {
                "start_time": 8.531818181818181,
                "end_time": 15.379545454545454,
                "pitch": 60,
                "velocity": 64,
                "duration": 6.847727272727273,
                "tempo": 120.0
            },
            {
                "start_time": 14.568181818181818,
                "end_time": 15.379545454545454,
                "pitch": 60,
                "velocity": 64,
                "duration": 0.8113636363636356,
                "tempo": 120.0
            },
            {
                "start_time": 15.413636363636362,
                "end_time": 15.547727272727272,
                "pitch": 64,
                "velocity": 64,
                "duration": 0.1340909090909097,
                "tempo": 120.0
            },
            {
                "start_time": 15.58181818181818,
                "end_time": 16.047727272727272,
                "pitch": 64,
                "velocity": 64,
                "duration": 0.4659090909090917,
                "tempo": 120.0
            },
            {
                "start_time": 16.081818181818182,
                "end_time": 16.547727272727272,
                "pitch": 76,
                "velocity": 64,
                "duration": 0.46590909090908994,
                "tempo": 120.0
            },
            {
                "start_time": 16.581818181818182,
                "end_time": 17.381818181818183,
                "pitch": 62,
                "velocity": 64,
                "duration": 0.8000000000000007,
                "tempo": 120.0
            },
            {
                "start_time": 17.41590909090909,
                "end_time": 17.418181818181818,
                "pitch": 65,
                "velocity": 64,
                "duration": 0.0022727272727287584,
                "tempo": 120.0
            },
            {
                "start_time": 17.418181818181818,
                "end_time": 17.55,
                "pitch": 57,
                "velocity": 64,
                "duration": 0.13181818181818272,
                "tempo": 120.0
            },
            {
                "start_time": 17.584090909090907,
                "end_time": 18.05,
                "pitch": 57,
                "velocity": 64,
                "duration": 0.4659090909090935,
                "tempo": 120.0
            },
            {
                "start_time": 15.413636363636362,
                "end_time": 18.55,
                "pitch": 60,
                "velocity": 64,
                "duration": 3.1363636363636385,
                "tempo": 120.0
            },
            {
                "start_time": 18.084090909090907,
                "end_time": 18.55,
                "pitch": 60,
                "velocity": 64,
                "duration": 0.4659090909090935,
                "tempo": 120.0
            },
            {
                "start_time": 18.586363636363636,
                "end_time": 19.386363636363637,
                "pitch": 71,
                "velocity": 64,
                "duration": 0.8000000000000007,
                "tempo": 120.0
            },
            {
                "start_time": 14.568181818181818,
                "end_time": 19.420454545454543,
                "pitch": 44,
                "velocity": 64,
                "duration": 4.852272727272725,
                "tempo": 120.0
            },
            {
                "start_time": 19.420454545454543,
                "end_time": 19.552272727272726,
                "pitch": 62,
                "velocity": 64,
                "duration": 0.13181818181818272,
                "tempo": 120.0
            },
            {
                "start_time": 19.586363636363636,
                "end_time": 20.063636363636363,
                "pitch": 62,
                "velocity": 64,
                "duration": 0.4772727272727266,
                "tempo": 120.0
            },
            {
                "start_time": 20.099999999999998,
                "end_time": 20.55909090909091,
                "pitch": 74,
                "velocity": 64,
                "duration": 0.45909090909091077,
                "tempo": 120.0
            },
            {
                "start_time": 20.59318181818182,
                "end_time": 21.236363636363635,
                "pitch": 72,
                "velocity": 64,
                "duration": 0.6431818181818159,
                "tempo": 120.0
            },
            {
                "start_time": 16.581818181818182,
                "end_time": 21.4,
                "pitch": 64,
                "velocity": 64,
                "duration": 4.818181818181817,
                "tempo": 120.0
            },
            {
                "start_time": 21.270454545454545,
                "end_time": 21.4,
                "pitch": 64,
                "velocity": 64,
                "duration": 0.12954545454545396,
                "tempo": 120.0
            },
            {
                "start_time": 21.43409090909091,
                "end_time": 21.563636363636363,
                "pitch": 64,
                "velocity": 64,
                "duration": 0.12954545454545396,
                "tempo": 120.0
            },
            {
                "start_time": 21.597727272727273,
                "end_time": 21.73409090909091,
                "pitch": 68,
                "velocity": 64,
                "duration": 0.1363636363636367,
                "tempo": 120.0
            },
            {
                "start_time": 6.534090909090909,
                "end_time": 21.768181818181816,
                "pitch": 19,
                "velocity": 64,
                "duration": 15.234090909090906,
                "tempo": 120.0
            },
            {
                "start_time": 21.768181818181816,
                "end_time": 21.904545454545453,
                "pitch": 62,
                "velocity": 64,
                "duration": 0.1363636363636367,
                "tempo": 120.0
            },
            {
                "start_time": 21.938636363636363,
                "end_time": 22.075,
                "pitch": 64,
                "velocity": 64,
                "duration": 0.1363636363636367,
                "tempo": 120.0
            },
            {
                "start_time": 22.111363636363635,
                "end_time": 22.243181818181817,
                "pitch": 64,
                "velocity": 64,
                "duration": 0.13181818181818272,
                "tempo": 120.0
            },
            {
                "start_time": 13.397727272727272,
                "end_time": 22.277272727272727,
                "pitch": 66,
                "velocity": 64,
                "duration": 8.879545454545456,
                "tempo": 120.0
            },
            {
                "start_time": 22.277272727272727,
                "end_time": 22.411363636363635,
                "pitch": 59,
                "velocity": 64,
                "duration": 0.13409090909090793,
                "tempo": 120.0
            },
            {
                "start_time": 19.420454545454543,
                "end_time": 22.445454545454545,
                "pitch": 44,
                "velocity": 64,
                "duration": 3.025000000000002,
                "tempo": 120.0
            },
            {
                "start_time": 21.938636363636363,
                "end_time": 22.577272727272724,
                "pitch": 62,
                "velocity": 64,
                "duration": 0.6386363636363619,
                "tempo": 120.0
            },
            {
                "start_time": 22.445454545454545,
                "end_time": 22.577272727272724,
                "pitch": 62,
                "velocity": 64,
                "duration": 0.13181818181817917,
                "tempo": 120.0
            },
            {
                "start_time": 22.611363636363635,
                "end_time": 22.745454545454546,
                "pitch": 64,
                "velocity": 64,
                "duration": 0.13409090909091148,
                "tempo": 120.0
            },
            {
                "start_time": 22.611363636363635,
                "end_time": 22.911363636363635,
                "pitch": 62,
                "velocity": 64,
                "duration": 0.3000000000000007,
                "tempo": 120.0
            },
            {
                "start_time": 22.779545454545453,
                "end_time": 22.911363636363635,
                "pitch": 62,
                "velocity": 64,
                "duration": 0.13181818181818272,
                "tempo": 120.0
            },
            {
                "start_time": 21.270454545454545,
                "end_time": 23.077272727272724,
                "pitch": 60,
                "velocity": 64,
                "duration": 1.8068181818181799,
                "tempo": 120.0
            },
            {
                "start_time": 22.945454545454545,
                "end_time": 23.077272727272724,
                "pitch": 60,
                "velocity": 64,
                "duration": 0.13181818181817917,
                "tempo": 120.0
            },
            {
                "start_time": 22.779545454545453,
                "end_time": 23.113636363636363,
                "pitch": 64,
                "velocity": 64,
                "duration": 0.33409090909091077,
                "tempo": 120.0
            },
            {
                "start_time": 23.113636363636363,
                "end_time": 23.745454545454546,
                "pitch": 57,
                "velocity": 64,
                "duration": 0.6318181818181827,
                "tempo": 120.0
            },
            {
                "start_time": 23.779545454545453,
                "end_time": 23.913636363636364,
                "pitch": 57,
                "velocity": 64,
                "duration": 0.13409090909091148,
                "tempo": 120.0
            },
            {
                "start_time": 18.084090909090907,
                "end_time": 23.94772727272727,
                "pitch": 31,
                "velocity": 64,
                "duration": 5.863636363636363,
                "tempo": 120.0
            },
            {
                "start_time": 23.94772727272727,
                "end_time": 24.079545454545453,
                "pitch": 60,
                "velocity": 64,
                "duration": 0.13181818181818272,
                "tempo": 120.0
            },
            {
                "start_time": 23.113636363636363,
                "end_time": 24.59090909090909,
                "pitch": 64,
                "velocity": 64,
                "duration": 1.4772727272727266,
                "tempo": 120.0
            },
            {
                "start_time": 24.113636363636363,
                "end_time": 24.59090909090909,
                "pitch": 64,
                "velocity": 64,
                "duration": 0.4772727272727266,
                "tempo": 120.0
            },
            {
                "start_time": 24.113636363636363,
                "end_time": 25.586363636363636,
                "pitch": 60,
                "velocity": 64,
                "duration": 1.4727272727272727,
                "tempo": 120.0
            },
            {
                "start_time": 24.627272727272725,
                "end_time": 25.586363636363636,
                "pitch": 60,
                "velocity": 80,
                "duration": 0.9590909090909108,
                "tempo": 120.0
            },
            {
                "start_time": 24.627272727272725,
                "end_time": 25.620454545454542,
                "pitch": 64,
                "velocity": 80,
                "duration": 0.9931818181818173,
                "tempo": 120.0
            },
            {
                "start_time": 25.620454545454542,
                "end_time": 26.586363636363636,
                "pitch": 57,
                "velocity": 80,
                "duration": 0.9659090909090935,
                "tempo": 120.0
            },
            {
                "start_time": 21.768181818181816,
                "end_time": 27.11590909090909,
                "pitch": 19,
                "velocity": 64,
                "duration": 5.347727272727273,
                "tempo": 120.0
            },
            {
                "start_time": 27.113636363636363,
                "end_time": 27.11590909090909,
                "pitch": 19,
                "velocity": 80,
                "duration": 0.0022727272727252057,
                "tempo": 120.0
            },
            {
                "start_time": 27.11590909090909,
                "end_time": 28.099999999999998,
                "pitch": 53,
                "velocity": 80,
                "duration": 0.9840909090909093,
                "tempo": 120.0
            },
            {
                "start_time": 28.136363636363637,
                "end_time": 28.602272727272727,
                "pitch": 53,
                "velocity": 80,
                "duration": 0.46590909090908994,
                "tempo": 120.0
            },
            {
                "start_time": 21.597727272727273,
                "end_time": 28.638636363636362,
                "pitch": 78,
                "velocity": 64,
                "duration": 7.040909090909089,
                "tempo": 120.0
            },
            {
                "start_time": 28.638636363636362,
                "end_time": 28.768181818181816,
                "pitch": 67,
                "velocity": 80,
                "duration": 0.12954545454545396,
                "tempo": 120.0
            },
            {
                "start_time": 25.620454545454542,
                "end_time": 28.96590909090909,
                "pitch": 64,
                "velocity": 80,
                "duration": 3.3454545454545475,
                "tempo": 120.0
            },
            {
                "start_time": 22.945454545454545,
                "end_time": 29.095454545454544,
                "pitch": 62,
                "velocity": 64,
                "duration": 6.149999999999999,
                "tempo": 120.0
            },
            {
                "start_time": 28.96590909090909,
                "end_time": 29.095454545454544,
                "pitch": 62,
                "velocity": 80,
                "duration": 0.12954545454545396,
                "tempo": 120.0
            },
            {
                "start_time": 29.129545454545454,
                "end_time": 29.263636363636362,
                "pitch": 59,
                "velocity": 80,
                "duration": 0.13409090909090793,
                "tempo": 120.0
            },
            {
                "start_time": 29.297727272727272,
                "end_time": 29.429545454545455,
                "pitch": 55,
                "velocity": 80,
                "duration": 0.13181818181818272,
                "tempo": 120.0
            },
            {
                "start_time": 9.370454545454544,
                "end_time": 29.768181818181816,
                "pitch": 50,
                "velocity": 64,
                "duration": 20.397727272727273,
                "tempo": 120.0
            },
            {
                "start_time": 29.63181818181818,
                "end_time": 29.768181818181816,
                "pitch": 50,
                "velocity": 80,
                "duration": 0.1363636363636367,
                "tempo": 120.0
            },
            {
                "start_time": 29.804545454545455,
                "end_time": 29.943181818181817,
                "pitch": 47,
                "velocity": 80,
                "duration": 0.1386363636363619,
                "tempo": 120.0
            },
            {
                "start_time": 3.0159090909090907,
                "end_time": 30.11590909090909,
                "pitch": 43,
                "velocity": 64,
                "duration": 27.099999999999998,
                "tempo": 120.0
            },
            {
                "start_time": 29.977272727272727,
                "end_time": 30.11590909090909,
                "pitch": 43,
                "velocity": 80,
                "duration": 0.1386363636363619,
                "tempo": 120.0
            },
            {
                "start_time": 29.63181818181818,
                "end_time": 30.320454545454545,
                "pitch": 52,
                "velocity": 80,
                "duration": 0.6886363636363662,
                "tempo": 120.0
            },
            {
                "start_time": 5.5204545454545455,
                "end_time": 30.452272727272724,
                "pitch": 48,
                "velocity": 64,
                "duration": 24.93181818181818,
                "tempo": 120.0
            },
            {
                "start_time": 30.320454545454545,
                "end_time": 30.452272727272724,
                "pitch": 48,
                "velocity": 80,
                "duration": 0.13181818181817917,
                "tempo": 120.0
            },
            {
                "start_time": 30.320454545454545,
                "end_time": 30.486363636363635,
                "pitch": 52,
                "velocity": 80,
                "duration": 0.16590909090908923,
                "tempo": 120.0
            },
            {
                "start_time": 29.977272727272727,
                "end_time": 30.620454545454542,
                "pitch": 47,
                "velocity": 80,
                "duration": 0.6431818181818159,
                "tempo": 120.0
            },
            {
                "start_time": 30.486363636363635,
                "end_time": 30.620454545454542,
                "pitch": 47,
                "velocity": 80,
                "duration": 0.13409090909090793,
                "tempo": 120.0
            },
            {
                "start_time": 30.654545454545453,
                "end_time": 31.120454545454542,
                "pitch": 43,
                "velocity": 80,
                "duration": 0.46590909090908994,
                "tempo": 120.0
            },
            {
                "start_time": 32.14090909090909,
                "end_time": 32.44090909090909,
                "pitch": 55,
                "velocity": 80,
                "duration": 0.29999999999999716,
                "tempo": 120.0
            },
            {
                "start_time": 28.96590909090909,
                "end_time": 34.63409090909091,
                "pitch": 64,
                "velocity": 80,
                "duration": 5.668181818181818,
                "tempo": 120.0
            },
            {
                "start_time": 34.154545454545456,
                "end_time": 34.63409090909091,
                "pitch": 64,
                "velocity": 80,
                "duration": 0.47954545454545183,
                "tempo": 120.0
            },
            {
                "start_time": 34.67045454545455,
                "end_time": 35.62954545454545,
                "pitch": 64,
                "velocity": 80,
                "duration": 0.9590909090909037,
                "tempo": 120.0
            },
            {
                "start_time": 35.663636363636364,
                "end_time": 37.13409090909091,
                "pitch": 60,
                "velocity": 80,
                "duration": 1.470454545454544,
                "tempo": 120.0
            },
            {
                "start_time": 35.663636363636364,
                "end_time": 37.168181818181814,
                "pitch": 64,
                "velocity": 80,
                "duration": 1.5045454545454504,
                "tempo": 120.0
            },
            {
                "start_time": 37.168181818181814,
                "end_time": 38.15,
                "pitch": 57,
                "velocity": 80,
                "duration": 0.9818181818181841,
                "tempo": 120.0
            },
            {
                "start_time": 23.94772727272727,
                "end_time": 38.184090909090905,
                "pitch": 31,
                "velocity": 64,
                "duration": 14.236363636363635,
                "tempo": 120.0
            },
            {
                "start_time": 38.184090909090905,
                "end_time": 39.4,
                "pitch": 60,
                "velocity": 80,
                "duration": 1.2159090909090935,
                "tempo": 120.0
            },
            {
                "start_time": 39.434090909090905,
                "end_time": 39.65,
                "pitch": 62,
                "velocity": 80,
                "duration": 0.2159090909090935,
                "tempo": 120.0
            },
            {
                "start_time": 29.129545454545454,
                "end_time": 39.68636363636364,
                "pitch": 65,
                "velocity": 80,
                "duration": 10.556818181818183,
                "tempo": 120.0
            },
            {
                "start_time": 29.297727272727272,
                "end_time": 40.15,
                "pitch": 59,
                "velocity": 80,
                "duration": 10.852272727272727,
                "tempo": 120.0
            },
            {
                "start_time": 39.68636363636364,
                "end_time": 40.15,
                "pitch": 59,
                "velocity": 80,
                "duration": 0.4636363636363612,
                "tempo": 120.0
            },
            {
                "start_time": 22.445454545454545,
                "end_time": 40.18636363636364,
                "pitch": 44,
                "velocity": 64,
                "duration": 17.740909090909092,
                "tempo": 120.0
            },
            {
                "start_time": 37.168181818181814,
                "end_time": 41.65681818181818,
                "pitch": 64,
                "velocity": 80,
                "duration": 4.488636363636367,
                "tempo": 120.0
            },
            {
                "start_time": 40.18636363636364,
                "end_time": 41.65681818181818,
                "pitch": 64,
                "velocity": 80,
                "duration": 1.470454545454544,
                "tempo": 120.0
            },
            {
                "start_time": 41.69318181818181,
                "end_time": 42.15909090909091,
                "pitch": 64,
                "velocity": 80,
                "duration": 0.4659090909090935,
                "tempo": 120.0
            },
            {
                "start_time": 28.638636363636362,
                "end_time": 42.19318181818181,
                "pitch": 78,
                "velocity": 80,
                "duration": 13.554545454545451,
                "tempo": 120.0
            },
            {
                "start_time": 42.19318181818181,
                "end_time": 42.67045454545455,
                "pitch": 71,
                "velocity": 80,
                "duration": 0.47727272727273373,
                "tempo": 120.0
            },
            {
                "start_time": 42.70681818181818,
                "end_time": 43.66590909090909,
                "pitch": 71,
                "velocity": 80,
                "duration": 0.9590909090909108,
                "tempo": 120.0
            },
            {
                "start_time": 43.699999999999996,
                "end_time": 44.17727272727272,
                "pitch": 72,
                "velocity": 80,
                "duration": 0.4772727272727266,
                "tempo": 120.0
            },
            {
                "start_time": 18.586363636363636,
                "end_time": 44.21363636363636,
                "pitch": 76,
                "velocity": 64,
                "duration": 25.627272727272725,
                "tempo": 120.0
            },
            {
                "start_time": 44.21363636363636,
                "end_time": 44.429545454545455,
                "pitch": 69,
                "velocity": 80,
                "duration": 0.2159090909090935,
                "tempo": 120.0
            },
            {
                "start_time": 38.184090909090905,
                "end_time": 44.46363636363636,
                "pitch": 31,
                "velocity": 80,
                "duration": 6.279545454545456,
                "tempo": 120.0
            },
            {
                "start_time": 44.46363636363636,
                "end_time": 44.679545454545455,
                "pitch": 64,
                "velocity": 80,
                "duration": 0.2159090909090935,
                "tempo": 120.0
            },
            {
                "start_time": 39.434090909090905,
                "end_time": 44.929545454545455,
                "pitch": 60,
                "velocity": 80,
                "duration": 5.49545454545455,
                "tempo": 120.0
            },
            {
                "start_time": 44.71363636363636,
                "end_time": 44.929545454545455,
                "pitch": 60,
                "velocity": 80,
                "duration": 0.2159090909090935,
                "tempo": 120.0
            },
            {
                "start_time": 44.96363636363636,
                "end_time": 45.179545454545455,
                "pitch": 62,
                "velocity": 80,
                "duration": 0.2159090909090935,
                "tempo": 120.0
            },
            {
                "start_time": 45.215909090909086,
                "end_time": 45.429545454545455,
                "pitch": 62,
                "velocity": 80,
                "duration": 0.2136363636363683,
                "tempo": 120.0
            },
            {
                "start_time": 12.063636363636363,
                "end_time": 45.465909090909086,
                "pitch": 77,
                "velocity": 64,
                "duration": 33.402272727272724,
                "tempo": 120.0
            },
            {
                "start_time": 45.465909090909086,
                "end_time": 45.93181818181818,
                "pitch": 68,
                "velocity": 80,
                "duration": 0.4659090909090935,
                "tempo": 120.0
            },
            {
                "start_time": 45.965909090909086,
                "end_time": 46.18181818181818,
                "pitch": 68,
                "velocity": 80,
                "duration": 0.2159090909090935,
                "tempo": 120.0
            },
            {
                "start_time": 39.68636363636364,
                "end_time": 46.43181818181818,
                "pitch": 65,
                "velocity": 80,
                "duration": 6.7454545454545425,
                "tempo": 120.0
            },
            {
                "start_time": 46.215909090909086,
                "end_time": 46.43181818181818,
                "pitch": 65,
                "velocity": 80,
                "duration": 0.2159090909090935,
                "tempo": 120.0
            },
            {
                "start_time": 46.465909090909086,
                "end_time": 46.68181818181818,
                "pitch": 62,
                "velocity": 80,
                "duration": 0.2159090909090935,
                "tempo": 120.0
            },
            {
                "start_time": 44.96363636363636,
                "end_time": 47.684090909090905,
                "pitch": 60,
                "velocity": 80,
                "duration": 2.720454545454544,
                "tempo": 120.0
            },
            {
                "start_time": 46.71818181818182,
                "end_time": 47.684090909090905,
                "pitch": 60,
                "velocity": 80,
                "duration": 0.9659090909090864,
                "tempo": 120.0
            },
            {
                "start_time": 30.486363636363635,
                "end_time": 48.184090909090905,
                "pitch": 52,
                "velocity": 80,
                "duration": 17.69772727272727,
                "tempo": 120.0
            },
            {
                "start_time": 47.96818181818182,
                "end_time": 48.184090909090905,
                "pitch": 52,
                "velocity": 101,
                "duration": 0.2159090909090864,
                "tempo": 120.0
            },
            {
                "start_time": 48.21818181818182,
                "end_time": 48.695454545454545,
                "pitch": 52,
                "velocity": 101,
                "duration": 0.4772727272727266,
                "tempo": 120.0
            },
            {
                "start_time": 48.73181818181818,
                "end_time": 49.459090909090904,
                "pitch": 45,
                "velocity": 101,
                "duration": 0.7272727272727266,
                "tempo": 120.0
            },
            {
                "start_time": 49.490909090909085,
                "end_time": 50.215909090909086,
                "pitch": 52,
                "velocity": 101,
                "duration": 0.7250000000000014,
                "tempo": 120.0
            },
            {
                "start_time": 22.277272727272727,
                "end_time": 50.252272727272725,
                "pitch": 66,
                "velocity": 64,
                "duration": 27.974999999999998,
                "tempo": 120.0
            },
            {
                "start_time": 50.252272727272725,
                "end_time": 50.46363636363636,
                "pitch": 57,
                "velocity": 101,
                "duration": 0.21136363636363598,
                "tempo": 120.0
            },
            {
                "start_time": 50.49772727272727,
                "end_time": 50.959090909090904,
                "pitch": 57,
                "velocity": 101,
                "duration": 0.461363636363636,
                "tempo": 120.0
            },
            {
                "start_time": 50.99318181818182,
                "end_time": 51.209090909090904,
                "pitch": 57,
                "velocity": 101,
                "duration": 0.2159090909090864,
                "tempo": 120.0
            },
            {
                "start_time": 49.490909090909085,
                "end_time": 51.24318181818182,
                "pitch": 19,
                "velocity": 101,
                "duration": 1.7522727272727323,
                "tempo": 120.0
            },
            {
                "start_time": 29.804545454545455,
                "end_time": 52.465909090909086,
                "pitch": 53,
                "velocity": 80,
                "duration": 22.66136363636363,
                "tempo": 120.0
            },
            {
                "start_time": 51.24318181818182,
                "end_time": 52.465909090909086,
                "pitch": 53,
                "velocity": 101,
                "duration": 1.222727272727269,
                "tempo": 120.0
            },
            {
                "start_time": 50.252272727272725,
                "end_time": 52.5,
                "pitch": 66,
                "velocity": 101,
                "duration": 2.247727272727275,
                "tempo": 120.0
            },
            {
                "start_time": 52.5,
                "end_time": 52.965909090909086,
                "pitch": 57,
                "velocity": 101,
                "duration": 0.4659090909090864,
                "tempo": 120.0
            },
            {
                "start_time": 53.0,
                "end_time": 53.215909090909086,
                "pitch": 57,
                "velocity": 101,
                "duration": 0.2159090909090864,
                "tempo": 120.0
            },
            {
                "start_time": 51.24318181818182,
                "end_time": 53.252272727272725,
                "pitch": 19,
                "velocity": 101,
                "duration": 2.009090909090908,
                "tempo": 120.0
            },
            {
                "start_time": 53.252272727272725,
                "end_time": 54.47954545454545,
                "pitch": 50,
                "velocity": 101,
                "duration": 1.2272727272727266,
                "tempo": 120.0
            },
            {
                "start_time": 46.465909090909086,
                "end_time": 54.51363636363636,
                "pitch": 65,
                "velocity": 80,
                "duration": 8.047727272727272,
                "tempo": 120.0
            },
            {
                "start_time": 54.51363636363636,
                "end_time": 54.974999999999994,
                "pitch": 55,
                "velocity": 101,
                "duration": 0.461363636363636,
                "tempo": 120.0
            },
            {
                "start_time": 55.00909090909091,
                "end_time": 55.82954545454545,
                "pitch": 55,
                "velocity": 101,
                "duration": 0.8204545454545453,
                "tempo": 120.0
            },
            {
                "start_time": 56.02272727272727,
                "end_time": 56.73181818181818,
                "pitch": 55,
                "velocity": 101,
                "duration": 0.7090909090909037,
                "tempo": 120.0
            },
            {
                "start_time": 40.18636363636364,
                "end_time": 57.5,
                "pitch": 44,
                "velocity": 80,
                "duration": 17.313636363636363,
                "tempo": 120.0
            },
            {
                "start_time": 56.768181818181816,
                "end_time": 57.5,
                "pitch": 44,
                "velocity": 101,
                "duration": 0.7318181818181841,
                "tempo": 120.0
            },
            {
                "start_time": 53.252272727272725,
                "end_time": 57.53636363636363,
                "pitch": 19,
                "velocity": 101,
                "duration": 4.2840909090909065,
                "tempo": 120.0
            },
            {
                "start_time": 57.53636363636363,
                "end_time": 58.27045454545454,
                "pitch": 52,
                "velocity": 101,
                "duration": 0.7340909090909093,
                "tempo": 120.0
            },
            {
                "start_time": 52.5,
                "end_time": 58.30681818181818,
                "pitch": 66,
                "velocity": 101,
                "duration": 5.80681818181818,
                "tempo": 120.0
            },
            {
                "start_time": 58.30681818181818,
                "end_time": 58.51590909090909,
                "pitch": 57,
                "velocity": 101,
                "duration": 0.20909090909091077,
                "tempo": 120.0
            },
            {
                "start_time": 58.55,
                "end_time": 59.006818181818176,
                "pitch": 57,
                "velocity": 101,
                "duration": 0.45681818181817846,
                "tempo": 120.0
            },
            {
                "start_time": 59.04090909090909,
                "end_time": 59.256818181818176,
                "pitch": 57,
                "velocity": 101,
                "duration": 0.2159090909090864,
                "tempo": 120.0
            },
            {
                "start_time": 57.53636363636363,
                "end_time": 59.29090909090909,
                "pitch": 19,
                "velocity": 101,
                "duration": 1.7545454545454575,
                "tempo": 120.0
            },
            {
                "start_time": 59.29090909090909,
                "end_time": 60.51363636363636,
                "pitch": 53,
                "velocity": 101,
                "duration": 1.222727272727269,
                "tempo": 120.0
            },
            {
                "start_time": 58.30681818181818,
                "end_time": 60.54772727272727,
                "pitch": 66,
                "velocity": 101,
                "duration": 2.240909090909092,
                "tempo": 120.0
            },
            {
                "start_time": 60.54772727272727,
                "end_time": 61.01363636363636,
                "pitch": 59,
                "velocity": 101,
                "duration": 0.4659090909090864,
                "tempo": 120.0
            },
            {
                "start_time": 61.04772727272727,
                "end_time": 61.26363636363636,
                "pitch": 59,
                "velocity": 101,
                "duration": 0.2159090909090864,
                "tempo": 120.0
            },
            {
                "start_time": 61.3,
                "end_time": 62.02954545454545,
                "pitch": 50,
                "velocity": 101,
                "duration": 0.7295454545454518,
                "tempo": 120.0
            },
            {
                "start_time": 54.51363636363636,
                "end_time": 62.06363636363636,
                "pitch": 65,
                "velocity": 101,
                "duration": 7.550000000000004,
                "tempo": 120.0
            },
            {
                "start_time": 14.075,
                "end_time": 62.525,
                "pitch": 56,
                "velocity": 64,
                "duration": 48.45,
                "tempo": 120.0
            },
            {
                "start_time": 62.06363636363636,
                "end_time": 62.525,
                "pitch": 56,
                "velocity": 101,
                "duration": 0.461363636363636,
                "tempo": 120.0
            },
            {
                "start_time": 62.56136363636363,
                "end_time": 64.78863636363636,
                "pitch": 52,
                "velocity": 101,
                "duration": 2.2272727272727266,
                "tempo": 120.0
            },
            {
                "start_time": 64.82727272727273,
                "end_time": 68.80681818181817,
                "pitch": 52,
                "velocity": 64,
                "duration": 3.9795454545454447,
                "tempo": 120.0
            },
            {
                "start_time": 60.54772727272727,
                "end_time": 68.8409090909091,
                "pitch": 66,
                "velocity": 101,
                "duration": 8.293181818181822,
                "tempo": 120.0
            },
            {
                "start_time": 68.8409090909091,
                "end_time": 72.32727272727273,
                "pitch": 55,
                "velocity": 64,
                "duration": 3.4863636363636346,
                "tempo": 120.0
            },
            {
                "start_time": 47.96818181818182,
                "end_time": 72.52727272727272,
                "pitch": 48,
                "velocity": 101,
                "duration": 24.559090909090898,
                "tempo": 120.0
            },
            {
                "start_time": 72.52727272727272,
                "end_time": 72.65681818181818,
                "pitch": 52,
                "velocity": 64,
                "duration": 0.12954545454546462,
                "tempo": 120.0
            },
            {
                "start_time": 68.8409090909091,
                "end_time": 72.69090909090909,
                "pitch": 66,
                "velocity": 64,
                "duration": 3.8499999999999943,
                "tempo": 120.0
            },
            {
                "start_time": 72.69090909090909,
                "end_time": 72.82045454545454,
                "pitch": 55,
                "velocity": 64,
                "duration": 0.1295454545454504,
                "tempo": 120.0
            }
        ],
        "Acoustic Guitar (nylon)": [
            {
                "start_time": 7.036363636363636,
                "end_time": 7.16590909090909,
                "pitch": 47,
                "velocity": 64,
                "duration": 0.12954545454545396,
                "tempo": 120.0
            },
            {
                "start_time": 7.199999999999999,
                "end_time": 7.329545454545454,
                "pitch": 48,
                "velocity": 64,
                "duration": 0.12954545454545485,
                "tempo": 120.0
            },
            {
                "start_time": 7.363636363636363,
                "end_time": 7.493181818181818,
                "pitch": 50,
                "velocity": 64,
                "duration": 0.12954545454545485,
                "tempo": 120.0
            },
            {
                "start_time": 7.527272727272727,
                "end_time": 7.661363636363636,
                "pitch": 52,
                "velocity": 64,
                "duration": 0.13409090909090882,
                "tempo": 120.0
            },
            {
                "start_time": 7.695454545454545,
                "end_time": 7.827272727272727,
                "pitch": 52,
                "velocity": 64,
                "duration": 0.13181818181818183,
                "tempo": 120.0
            },
            {
                "start_time": 7.861363636363636,
                "end_time": 7.993181818181818,
                "pitch": 55,
                "velocity": 64,
                "duration": 0.13181818181818183,
                "tempo": 120.0
            },
            {
                "start_time": 8.029545454545454,
                "end_time": 8.161363636363635,
                "pitch": 57,
                "velocity": 64,
                "duration": 0.13181818181818095,
                "tempo": 120.0
            },
            {
                "start_time": 8.195454545454545,
                "end_time": 8.327272727272726,
                "pitch": 59,
                "velocity": 64,
                "duration": 0.13181818181818095,
                "tempo": 120.0
            },
            {
                "start_time": 8.363636363636363,
                "end_time": 8.495454545454544,
                "pitch": 60,
                "velocity": 64,
                "duration": 0.13181818181818095,
                "tempo": 120.0
            }
        ],
        "Flute": [
            {
                "start_time": 64.825,
                "end_time": 65.5340909090909,
                "pitch": 93,
                "velocity": 80,
                "duration": 0.7090909090909037,
                "tempo": 120.0
            },
            {
                "start_time": 65.56590909090909,
                "end_time": 65.7840909090909,
                "pitch": 88,
                "velocity": 80,
                "duration": 0.2181818181818187,
                "tempo": 120.0
            },
            {
                "start_time": 65.81818181818181,
                "end_time": 66.0340909090909,
                "pitch": 86,
                "velocity": 80,
                "duration": 0.2159090909090935,
                "tempo": 120.0
            },
            {
                "start_time": 66.06818181818181,
                "end_time": 66.54318181818182,
                "pitch": 81,
                "velocity": 80,
                "duration": 0.4750000000000085,
                "tempo": 120.0
            },
            {
                "start_time": 66.57727272727273,
                "end_time": 66.80454545454545,
                "pitch": 76,
                "velocity": 80,
                "duration": 0.22727272727271952,
                "tempo": 120.0
            },
            {
                "start_time": 66.8409090909091,
                "end_time": 67.05454545454545,
                "pitch": 74,
                "velocity": 80,
                "duration": 0.21363636363635408,
                "tempo": 120.0
            },
            {
                "start_time": 67.08636363636363,
                "end_time": 67.55,
                "pitch": 69,
                "velocity": 80,
                "duration": 0.4636363636363683,
                "tempo": 120.0
            },
            {
                "start_time": 67.5840909090909,
                "end_time": 67.8,
                "pitch": 64,
                "velocity": 80,
                "duration": 0.2159090909090935,
                "tempo": 120.0
            },
            {
                "start_time": 67.8340909090909,
                "end_time": 68.05454545454545,
                "pitch": 62,
                "velocity": 80,
                "duration": 0.2204545454545439,
                "tempo": 120.0
            },
            {
                "start_time": 68.0909090909091,
                "end_time": 68.80681818181817,
                "pitch": 57,
                "velocity": 80,
                "duration": 0.7159090909090793,
                "tempo": 120.0
            },
            {
                "start_time": 68.83863636363635,
                "end_time": 69.56818181818181,
                "pitch": 69,
                "velocity": 80,
                "duration": 0.7295454545454589,
                "tempo": 120.0
            },
            {
                "start_time": 65.56590909090909,
                "end_time": 69.60227272727272,
                "pitch": 54,
                "velocity": 80,
                "duration": 4.036363636363632,
                "tempo": 120.0
            },
            {
                "start_time": 65.81818181818181,
                "end_time": 69.81818181818181,
                "pitch": 88,
                "velocity": 80,
                "duration": 4.0,
                "tempo": 120.0
            },
            {
                "start_time": 69.60227272727272,
                "end_time": 69.81818181818181,
                "pitch": 88,
                "velocity": 80,
                "duration": 0.2159090909090935,
                "tempo": 120.0
            },
            {
                "start_time": 69.85227272727272,
                "end_time": 69.85454545454544,
                "pitch": 88,
                "velocity": 80,
                "duration": 0.0022727272727252057,
                "tempo": 120.0
            },
            {
                "start_time": 69.85454545454544,
                "end_time": 70.06590909090909,
                "pitch": 86,
                "velocity": 80,
                "duration": 0.21136363636364308,
                "tempo": 120.0
            },
            {
                "start_time": 66.06818181818181,
                "end_time": 70.1,
                "pitch": 89,
                "velocity": 80,
                "duration": 4.031818181818181,
                "tempo": 120.0
            },
            {
                "start_time": 70.1,
                "end_time": 70.56136363636364,
                "pitch": 81,
                "velocity": 80,
                "duration": 0.4613636363636431,
                "tempo": 120.0
            },
            {
                "start_time": 66.57727272727273,
                "end_time": 70.59545454545454,
                "pitch": 43,
                "velocity": 80,
                "duration": 4.018181818181816,
                "tempo": 120.0
            },
            {
                "start_time": 66.8409090909091,
                "end_time": 70.81136363636364,
                "pitch": 76,
                "velocity": 80,
                "duration": 3.970454545454544,
                "tempo": 120.0
            },
            {
                "start_time": 70.59545454545454,
                "end_time": 70.81136363636364,
                "pitch": 76,
                "velocity": 80,
                "duration": 0.2159090909090935,
                "tempo": 120.0
            },
            {
                "start_time": 70.84545454545454,
                "end_time": 70.84772727272727,
                "pitch": 76,
                "velocity": 80,
                "duration": 0.0022727272727252057,
                "tempo": 120.0
            },
            {
                "start_time": 70.84772727272727,
                "end_time": 71.06363636363636,
                "pitch": 74,
                "velocity": 80,
                "duration": 0.2159090909090935,
                "tempo": 120.0
            },
            {
                "start_time": 67.08636363636363,
                "end_time": 71.09545454545454,
                "pitch": 77,
                "velocity": 80,
                "duration": 4.009090909090915,
                "tempo": 120.0
            },
            {
                "start_time": 71.09545454545454,
                "end_time": 71.31363636363636,
                "pitch": 69,
                "velocity": 80,
                "duration": 0.2181818181818187,
                "tempo": 120.0
            },
            {
                "start_time": 71.34772727272727,
                "end_time": 71.56818181818181,
                "pitch": 69,
                "velocity": 80,
                "duration": 0.2204545454545439,
                "tempo": 120.0
            },
            {
                "start_time": 71.60227272727272,
                "end_time": 72.22727272727272,
                "pitch": 67,
                "velocity": 80,
                "duration": 0.625,
                "tempo": 120.0
            },
            {
                "start_time": 72.22727272727272,
                "end_time": 72.32727272727273,
                "pitch": 67,
                "velocity": 80,
                "duration": 0.10000000000000853,
                "tempo": 120.0
            }
        ]
    }
}