{
    "track_id": "10 Dungeon",
    "mood": "happy",
    "instruments": {
        "Acoustic Bass": [
            {
                "start_time": 0.031818181818181815,
                "end_time": 0.12727272727272726,
                "pitch": 40,
                "velocity": 80,
                "duration": 0.09545454545454544,
                "tempo": 120.0
            },
            {
                "start_time": 0.22727272727272727,
                "end_time": 0.32727272727272727,
                "pitch": 40,
                "velocity": 80,
                "duration": 0.1,
                "tempo": 120.0
            },
            {
                "start_time": 0.42727272727272725,
                "end_time": 0.5295454545454545,
                "pitch": 40,
                "velocity": 80,
                "duration": 0.10227272727272729,
                "tempo": 120.0
            },
            {
                "start_time": 0.634090909090909,
                "end_time": 0.7363636363636363,
                "pitch": 40,
                "velocity": 80,
                "duration": 0.10227272727272729,
                "tempo": 120.0
            },
            {
                "start_time": 0.8386363636363636,
                "end_time": 0.9386363636363636,
                "pitch": 40,
                "velocity": 80,
                "duration": 0.09999999999999998,
                "tempo": 120.0
            },
            {
                "start_time": 1.0386363636363636,
                "end_time": 1.1386363636363637,
                "pitch": 40,
                "velocity": 80,
                "duration": 0.10000000000000009,
                "tempo": 120.0
            },
            {
                "start_time": 1.2409090909090907,
                "end_time": 1.3386363636363636,
                "pitch": 40,
                "velocity": 80,
                "duration": 0.09772727272727288,
                "tempo": 120.0
            },
            {
                "start_time": 1.440909090909091,
                "end_time": 1.5386363636363636,
                "pitch": 40,
                "velocity": 80,
                "duration": 0.09772727272727266,
                "tempo": 120.0
            },
            {
                "start_time": 1.6409090909090909,
                "end_time": 1.7386363636363635,
                "pitch": 40,
                "velocity": 80,
                "duration": 0.09772727272727266,
                "tempo": 120.0
            },
            {
                "start_time": 1.8409090909090908,
                "end_time": 1.940909090909091,
                "pitch": 40,
                "velocity": 80,
                "duration": 0.10000000000000009,
                "tempo": 120.0
            },
            {
                "start_time": 2.040909090909091,
                "end_time": 2.1386363636363637,
                "pitch": 40,
                "velocity": 80,
                "duration": 0.09772727272727266,
                "tempo": 120.0
            },
            {
                "start_time": 2.2409090909090907,
                "end_time": 2.340909090909091,
                "pitch": 40,
                "velocity": 80,
                "duration": 0.10000000000000009,
                "tempo": 120.0
            },
            {
                "start_time": 2.440909090909091,
                "end_time": 2.540909090909091,
                "pitch": 40,
                "velocity": 80,
                "duration": 0.10000000000000009,
                "tempo": 120.0
            },
            {
                "start_time": 2.643181818181818,
                "end_time": 2.743181818181818,
                "pitch": 40,
                "velocity": 80,
                "duration": 0.10000000000000009,
                "tempo": 120.0
            },
            {
                "start_time": 2.8454545454545452,
                "end_time": 2.9454545454545453,
                "pitch": 40,
                "velocity": 80,
                "duration": 0.10000000000000009,
                "tempo": 120.0
            },
            {
                "start_time": 3.0454545454545454,
                "end_time": 3.1454545454545455,
                "pitch": 40,
                "velocity": 80,
                "duration": 0.10000000000000009,
                "tempo": 120.0
            },
            {
                "start_time": 3.2477272727272726,
                "end_time": 3.3454545454545452,
                "pitch": 40,
                "velocity": 80,
                "duration": 0.09772727272727266,
                "tempo": 120.0
            },
            {
                "start_time": 3.4477272727272728,
                "end_time": 3.5454545454545454,
                "pitch": 40,
                "velocity": 80,
                "duration": 0.09772727272727266,
                "tempo": 120.0
            },
            {
                "start_time": 3.6477272727272725,
                "end_time": 3.745454545454545,
                "pitch": 40,
                "velocity": 80,
                "duration": 0.09772727272727266,
                "tempo": 120.0
            },
            {
                "start_time": 3.8477272727272727,
                "end_time": 3.9454545454545453,
                "pitch": 40,
                "velocity": 80,
                "duration": 0.09772727272727266,
                "tempo": 120.0
            },
            {
                "start_time": 4.047727272727273,
                "end_time": 4.1477272727272725,
                "pitch": 40,
                "velocity": 80,
                "duration": 0.09999999999999964,
                "tempo": 120.0
            },
            {
                "start_time": 4.25,
                "end_time": 4.35,
                "pitch": 40,
                "velocity": 80,
                "duration": 0.09999999999999964,
                "tempo": 120.0
            },
            {
                "start_time": 4.45,
                "end_time": 4.55,
                "pitch": 40,
                "velocity": 80,
                "duration": 0.09999999999999964,
                "tempo": 120.0
            },
            {
                "start_time": 4.6499999999999995,
                "end_time": 4.75,
                "pitch": 40,
                "velocity": 80,
                "duration": 0.10000000000000053,
                "tempo": 120.0
            },
            {
                "start_time": 4.852272727272727,
                "end_time": 4.95,
                "pitch": 40,
                "velocity": 80,
                "duration": 0.09772727272727355,
                "tempo": 120.0
            },
            {
                "start_time": 5.052272727272727,
                "end_time": 5.152272727272727,
                "pitch": 40,
                "velocity": 80,
                "duration": 0.10000000000000053,
                "tempo": 120.0
            },
            {
                "start_time": 5.254545454545454,
                "end_time": 5.352272727272727,
                "pitch": 40,
                "velocity": 80,
                "duration": 0.09772727272727266,
                "tempo": 120.0
            },
            {
                "start_time": 5.456818181818181,
                "end_time": 5.556818181818182,
                "pitch": 40,
                "velocity": 80,
                "duration": 0.10000000000000053,
                "tempo": 120.0
            },
            {
                "start_time": 5.659090909090909,
                "end_time": 5.756818181818182,
                "pitch": 40,
                "velocity": 80,
                "duration": 0.09772727272727266,
                "tempo": 120.0
            },
            {
                "start_time": 5.8568181818181815,
                "end_time": 5.956818181818181,
                "pitch": 40,
                "velocity": 80,
                "duration": 0.09999999999999964,
                "tempo": 120.0
            },
            {
                "start_time": 6.059090909090909,
                "end_time": 6.159090909090909,
                "pitch": 40,
                "velocity": 80,
                "duration": 0.10000000000000053,
                "tempo": 120.0
            },
            {
                "start_time": 6.263636363636364,
                "end_time": 6.36590909090909,
                "pitch": 40,
                "velocity": 80,
                "duration": 0.10227272727272663,
                "tempo": 120.0
            },
            {
                "start_time": 6.470454545454545,
                "end_time": 6.5659090909090905,
                "pitch": 40,
                "velocity": 80,
                "duration": 0.09545454545454568,
                "tempo": 120.0
            },
            {
                "start_time": 6.665909090909091,
                "end_time": 6.763636363636364,
                "pitch": 40,
                "velocity": 80,
                "duration": 0.09772727272727266,
                "tempo": 120.0
            },
            {
                "start_time": 6.861363636363636,
                "end_time": 6.963636363636363,
                "pitch": 40,
                "velocity": 80,
                "duration": 0.10227272727272663,
                "tempo": 120.0
            },
            {
                "start_time": 7.0681818181818175,
                "end_time": 7.170454545454545,
                "pitch": 40,
                "velocity": 80,
                "duration": 0.10227272727272751,
                "tempo": 120.0
            },
            {
                "start_time": 7.2727272727272725,
                "end_time": 7.370454545454545,
                "pitch": 40,
                "velocity": 80,
                "duration": 0.09772727272727266,
                "tempo": 120.0
            },
            {
                "start_time": 7.468181818181818,
                "end_time": 7.5659090909090905,
                "pitch": 40,
                "velocity": 80,
                "duration": 0.09772727272727266,
                "tempo": 120.0
            },
            {
                "start_time": 7.66590909090909,
                "end_time": 7.765909090909091,
                "pitch": 40,
                "velocity": 80,
                "duration": 0.10000000000000053,
                "tempo": 120.0
            },
            {
                "start_time": 7.870454545454545,
                "end_time": 7.972727272727273,
                "pitch": 40,
                "velocity": 80,
                "duration": 0.10227272727272751,
                "tempo": 120.0
            },
            {
                "start_time": 8.077272727272726,
                "end_time": 8.174999999999999,
                "pitch": 40,
                "velocity": 80,
                "duration": 0.09772727272727266,
                "tempo": 120.0
            },
            {
                "start_time": 8.277272727272727,
                "end_time": 8.377272727272727,
                "pitch": 40,
                "velocity": 80,
                "duration": 0.09999999999999964,
                "tempo": 120.0
            },
            {
                "start_time": 8.477272727272727,
                "end_time": 8.577272727272726,
                "pitch": 40,
                "velocity": 80,
                "duration": 0.09999999999999964,
                "tempo": 120.0
            },
            {
                "start_time": 8.679545454545455,
                "end_time": 8.779545454545454,
                "pitch": 40,
                "velocity": 80,
                "duration": 0.09999999999999964,
                "tempo": 120.0
            },
            {
                "start_time": 8.879545454545454,
                "end_time": 8.979545454545454,
                "pitch": 40,
                "velocity": 80,
                "duration": 0.09999999999999964,
                "tempo": 120.0
            },
            {
                "start_time": 9.081818181818182,
                "end_time": 9.181818181818182,
                "pitch": 40,
                "velocity": 80,
                "duration": 0.09999999999999964,
                "tempo": 120.0
            },
            {
                "start_time": 9.284090909090908,
                "end_time": 9.384090909090908,
                "pitch": 40,
                "velocity": 80,
                "duration": 0.09999999999999964,
                "tempo": 120.0
            },
            {
                "start_time": 9.486363636363636,
                "end_time": 9.586363636363636,
                "pitch": 40,
                "velocity": 80,
                "duration": 0.09999999999999964,
                "tempo": 120.0
            },
            {
                "start_time": 9.688636363636363,
                "end_time": 9.786363636363635,
                "pitch": 40,
                "velocity": 80,
                "duration": 0.09772727272727266,
                "tempo": 120.0
            },
            {
                "start_time": 9.888636363636364,
                "end_time": 9.988636363636363,
                "pitch": 40,
                "velocity": 80,
                "duration": 0.09999999999999964,
                "tempo": 120.0
            },
            {
                "start_time": 10.09090909090909,
                "end_time": 10.188636363636363,
                "pitch": 40,
                "velocity": 80,
                "duration": 0.09772727272727266,
                "tempo": 120.0
            },
            {
                "start_time": 10.290909090909091,
                "end_time": 10.388636363636364,
                "pitch": 40,
                "velocity": 80,
                "duration": 0.09772727272727266,
                "tempo": 120.0
            },
            {
                "start_time": 10.49090909090909,
                "end_time": 10.59090909090909,
                "pitch": 40,
                "velocity": 80,
                "duration": 0.09999999999999964,
                "tempo": 120.0
            },
            {
                "start_time": 10.693181818181818,
                "end_time": 10.793181818181818,
                "pitch": 40,
                "velocity": 80,
                "duration": 0.09999999999999964,
                "tempo": 120.0
            },
            {
                "start_time": 10.893181818181818,
                "end_time": 10.993181818181817,
                "pitch": 40,
                "velocity": 80,
                "duration": 0.09999999999999964,
                "tempo": 120.0
            },
            {
                "start_time": 11.095454545454546,
                "end_time": 11.195454545454545,
                "pitch": 40,
                "velocity": 80,
                "duration": 0.09999999999999964,
                "tempo": 120.0
            },
            {
                "start_time": 11.297727272727272,
                "end_time": 11.397727272727272,
                "pitch": 40,
                "velocity": 80,
                "duration": 0.09999999999999964,
                "tempo": 120.0
            },
            {
                "start_time": 11.497727272727273,
                "end_time": 11.597727272727273,
                "pitch": 40,
                "velocity": 80,
                "duration": 0.09999999999999964,
                "tempo": 120.0
            },
            {
                "start_time": 11.7,
                "end_time": 11.799999999999999,
                "pitch": 40,
                "velocity": 80,
                "duration": 0.09999999999999964,
                "tempo": 120.0
            },
            {
                "start_time": 11.902272727272727,
                "end_time": 12.002272727272727,
                "pitch": 40,
                "velocity": 80,
                "duration": 0.09999999999999964,
                "tempo": 120.0
            },
            {
                "start_time": 12.104545454545454,
                "end_time": 12.202272727272726,
                "pitch": 40,
                "velocity": 80,
                "duration": 0.09772727272727266,
                "tempo": 120.0
            },
            {
                "start_time": 12.304545454545455,
                "end_time": 12.402272727272727,
                "pitch": 40,
                "velocity": 80,
                "duration": 0.09772727272727266,
                "tempo": 120.0
            },
            {
                "start_time": 12.504545454545454,
                "end_time": 12.602272727272727,
                "pitch": 40,
                "velocity": 80,
                "duration": 0.09772727272727266,
                "tempo": 120.0
            },
            {
                "start_time": 12.706818181818182,
                "end_time": 12.804545454545455,
                "pitch": 40,
                "velocity": 80,
                "duration": 0.09772727272727266,
                "tempo": 120.0
            },
            {
                "start_time": 12.909090909090908,
                "end_time": 13.006818181818181,
                "pitch": 42,
                "velocity": 80,
                "duration": 0.09772727272727266,
                "tempo": 120.0
            },
            {
                "start_time": 13.109090909090908,
                "end_time": 13.209090909090909,
                "pitch": 42,
                "velocity": 80,
                "duration": 0.10000000000000142,
                "tempo": 120.0
            },
            {
                "start_time": 13.311363636363636,
                "end_time": 13.409090909090908,
                "pitch": 42,
                "velocity": 80,
                "duration": 0.09772727272727266,
                "tempo": 120.0
            },
            {
                "start_time": 13.511363636363635,
                "end_time": 13.611363636363636,
                "pitch": 42,
                "velocity": 80,
                "duration": 0.10000000000000142,
                "tempo": 120.0
            },
            {
                "start_time": 13.713636363636363,
                "end_time": 13.813636363636363,
                "pitch": 42,
                "velocity": 80,
                "duration": 0.09999999999999964,
                "tempo": 120.0
            },
            {
                "start_time": 13.915909090909091,
                "end_time": 14.01590909090909,
                "pitch": 42,
                "velocity": 80,
                "duration": 0.09999999999999964,
                "tempo": 120.0
            },
            {
                "start_time": 14.11590909090909,
                "end_time": 14.218181818181817,
                "pitch": 42,
                "velocity": 80,
                "duration": 0.10227272727272663,
                "tempo": 120.0
            },
            {
                "start_time": 14.322727272727272,
                "end_time": 14.424999999999999,
                "pitch": 42,
                "velocity": 80,
                "duration": 0.10227272727272663,
                "tempo": 120.0
            },
            {
                "start_time": 14.529545454545454,
                "end_time": 14.625,
                "pitch": 42,
                "velocity": 80,
                "duration": 0.09545454545454568,
                "tempo": 120.0
            },
            {
                "start_time": 14.725,
                "end_time": 14.820454545454545,
                "pitch": 42,
                "velocity": 80,
                "duration": 0.09545454545454568,
                "tempo": 120.0
            },
            {
                "start_time": 14.920454545454545,
                "end_time": 15.022727272727272,
                "pitch": 42,
                "velocity": 80,
                "duration": 0.10227272727272663,
                "tempo": 120.0
            },
            {
                "start_time": 15.127272727272727,
                "end_time": 15.227272727272727,
                "pitch": 42,
                "velocity": 80,
                "duration": 0.09999999999999964,
                "tempo": 120.0
            },
            {
                "start_time": 15.33181818181818,
                "end_time": 15.431818181818182,
                "pitch": 42,
                "velocity": 80,
                "duration": 0.10000000000000142,
                "tempo": 120.0
            },
            {
                "start_time": 15.534090909090908,
                "end_time": 15.631818181818181,
                "pitch": 42,
                "velocity": 80,
                "duration": 0.09772727272727266,
                "tempo": 120.0
            },
            {
                "start_time": 15.736363636363636,
                "end_time": 15.834090909090909,
                "pitch": 42,
                "velocity": 80,
                "duration": 0.09772727272727266,
                "tempo": 120.0
            },
            {
                "start_time": 15.936363636363636,
                "end_time": 16.036363636363635,
                "pitch": 42,
                "velocity": 80,
                "duration": 0.09999999999999964,
                "tempo": 120.0
            },
            {
                "start_time": 16.14090909090909,
                "end_time": 16.238636363636363,
                "pitch": 40,
                "velocity": 80,
                "duration": 0.09772727272727266,
                "tempo": 120.0
            },
            {
                "start_time": 16.34090909090909,
                "end_time": 16.44090909090909,
                "pitch": 40,
                "velocity": 80,
                "duration": 0.10000000000000142,
                "tempo": 120.0
            },
            {
                "start_time": 16.54090909090909,
                "end_time": 16.64090909090909,
                "pitch": 40,
                "velocity": 80,
                "duration": 0.10000000000000142,
                "tempo": 120.0
            },
            {
                "start_time": 16.74090909090909,
                "end_time": 16.84090909090909,
                "pitch": 40,
                "velocity": 80,
                "duration": 0.10000000000000142,
                "tempo": 120.0
            },
            {
                "start_time": 16.943181818181817,
                "end_time": 17.04090909090909,
                "pitch": 40,
                "velocity": 80,
                "duration": 0.09772727272727266,
                "tempo": 120.0
            },
            {
                "start_time": 17.143181818181816,
                "end_time": 17.243181818181817,
                "pitch": 40,
                "velocity": 80,
                "duration": 0.10000000000000142,
                "tempo": 120.0
            },
            {
                "start_time": 17.345454545454544,
                "end_time": 17.443181818181817,
                "pitch": 40,
                "velocity": 80,
                "duration": 0.09772727272727266,
                "tempo": 120.0
            },
            {
                "start_time": 17.545454545454543,
                "end_time": 17.645454545454545,
                "pitch": 40,
                "velocity": 80,
                "duration": 0.10000000000000142,
                "tempo": 120.0
            },
            {
                "start_time": 17.74772727272727,
                "end_time": 17.845454545454544,
                "pitch": 40,
                "velocity": 80,
                "duration": 0.09772727272727266,
                "tempo": 120.0
            },
            {
                "start_time": 17.945454545454545,
                "end_time": 18.045454545454543,
                "pitch": 40,
                "velocity": 80,
                "duration": 0.09999999999999787,
                "tempo": 120.0
            },
            {
                "start_time": 18.145454545454545,
                "end_time": 18.245454545454546,
                "pitch": 40,
                "velocity": 80,
                "duration": 0.10000000000000142,
                "tempo": 120.0
            },
            {
                "start_time": 18.347727272727273,
                "end_time": 18.44772727272727,
                "pitch": 40,
                "velocity": 80,
                "duration": 0.09999999999999787,
                "tempo": 120.0
            },
            {
                "start_time": 18.55,
                "end_time": 18.647727272727273,
                "pitch": 40,
                "velocity": 80,
                "duration": 0.09772727272727266,
                "tempo": 120.0
            },
            {
                "start_time": 18.75,
                "end_time": 18.849999999999998,
                "pitch": 40,
                "velocity": 80,
                "duration": 0.09999999999999787,
                "tempo": 120.0
            },
            {
                "start_time": 18.95,
                "end_time": 19.05,
                "pitch": 40,
                "velocity": 80,
                "duration": 0.10000000000000142,
                "tempo": 120.0
            },
            {
                "start_time": 19.152272727272727,
                "end_time": 19.252272727272725,
                "pitch": 40,
                "velocity": 80,
                "duration": 0.09999999999999787,
                "tempo": 120.0
            },
            {
                "start_time": 19.354545454545452,
                "end_time": 19.452272727272728,
                "pitch": 36,
                "velocity": 80,
                "duration": 0.09772727272727622,
                "tempo": 120.0
            },
            {
                "start_time": 19.554545454545455,
                "end_time": 19.652272727272727,
                "pitch": 36,
                "velocity": 80,
                "duration": 0.09772727272727266,
                "tempo": 120.0
            },
            {
                "start_time": 19.754545454545454,
                "end_time": 19.852272727272727,
                "pitch": 36,
                "velocity": 80,
                "duration": 0.09772727272727266,
                "tempo": 120.0
            },
            {
                "start_time": 19.954545454545453,
                "end_time": 20.054545454545455,
                "pitch": 36,
                "velocity": 80,
                "duration": 0.10000000000000142,
                "tempo": 120.0
            },
            {
                "start_time": 20.154545454545453,
                "end_time": 20.254545454545454,
                "pitch": 36,
                "velocity": 80,
                "duration": 0.10000000000000142,
                "tempo": 120.0
            },
            {
                "start_time": 20.35681818181818,
                "end_time": 20.456818181818182,
                "pitch": 36,
                "velocity": 80,
                "duration": 0.10000000000000142,
                "tempo": 120.0
            },
            {
                "start_time": 20.55909090909091,
                "end_time": 20.65681818181818,
                "pitch": 36,
                "velocity": 80,
                "duration": 0.09772727272727266,
                "tempo": 120.0
            },
            {
                "start_time": 20.75681818181818,
                "end_time": 20.85681818181818,
                "pitch": 36,
                "velocity": 80,
                "duration": 0.10000000000000142,
                "tempo": 120.0
            },
            {
                "start_time": 20.959090909090907,
                "end_time": 21.05681818181818,
                "pitch": 36,
                "velocity": 80,
                "duration": 0.09772727272727266,
                "tempo": 120.0
            },
            {
                "start_time": 21.159090909090907,
                "end_time": 21.259090909090908,
                "pitch": 36,
                "velocity": 80,
                "duration": 0.10000000000000142,
                "tempo": 120.0
            },
            {
                "start_time": 21.361363636363635,
                "end_time": 21.459090909090907,
                "pitch": 36,
                "velocity": 80,
                "duration": 0.09772727272727266,
                "tempo": 120.0
            },
            {
                "start_time": 21.561363636363634,
                "end_time": 21.661363636363635,
                "pitch": 36,
                "velocity": 80,
                "duration": 0.10000000000000142,
                "tempo": 120.0
            },
            {
                "start_time": 21.761363636363637,
                "end_time": 21.85909090909091,
                "pitch": 36,
                "velocity": 80,
                "duration": 0.09772727272727266,
                "tempo": 120.0
            },
            {
                "start_time": 21.961363636363636,
                "end_time": 22.161363636363635,
                "pitch": 40,
                "velocity": 80,
                "duration": 0.1999999999999993,
                "tempo": 120.0
            },
            {
                "start_time": 22.163636363636364,
                "end_time": 22.263636363636362,
                "pitch": 42,
                "velocity": 80,
                "duration": 0.09999999999999787,
                "tempo": 120.0
            },
            {
                "start_time": 22.368181818181817,
                "end_time": 22.470454545454544,
                "pitch": 43,
                "velocity": 80,
                "duration": 0.10227272727272663,
                "tempo": 120.0
            },
            {
                "start_time": 22.575,
                "end_time": 22.670454545454543,
                "pitch": 43,
                "velocity": 80,
                "duration": 0.0954545454545439,
                "tempo": 120.0
            },
            {
                "start_time": 22.770454545454545,
                "end_time": 22.86590909090909,
                "pitch": 43,
                "velocity": 80,
                "duration": 0.0954545454545439,
                "tempo": 120.0
            },
            {
                "start_time": 22.96590909090909,
                "end_time": 23.068181818181817,
                "pitch": 43,
                "velocity": 80,
                "duration": 0.10227272727272663,
                "tempo": 120.0
            },
            {
                "start_time": 23.172727272727272,
                "end_time": 23.272727272727273,
                "pitch": 43,
                "velocity": 80,
                "duration": 0.10000000000000142,
                "tempo": 120.0
            },
            {
                "start_time": 23.377272727272725,
                "end_time": 23.477272727272727,
                "pitch": 43,
                "velocity": 80,
                "duration": 0.10000000000000142,
                "tempo": 120.0
            },
            {
                "start_time": 23.579545454545453,
                "end_time": 23.679545454545455,
                "pitch": 43,
                "velocity": 80,
                "duration": 0.10000000000000142,
                "tempo": 120.0
            },
            {
                "start_time": 23.78181818181818,
                "end_time": 23.879545454545454,
                "pitch": 43,
                "velocity": 80,
                "duration": 0.09772727272727266,
                "tempo": 120.0
            },
            {
                "start_time": 23.98181818181818,
                "end_time": 24.079545454545453,
                "pitch": 43,
                "velocity": 80,
                "duration": 0.09772727272727266,
                "tempo": 120.0
            },
            {
                "start_time": 24.18181818181818,
                "end_time": 24.279545454545453,
                "pitch": 43,
                "velocity": 80,
                "duration": 0.09772727272727266,
                "tempo": 120.0
            },
            {
                "start_time": 24.38181818181818,
                "end_time": 24.48181818181818,
                "pitch": 43,
                "velocity": 80,
                "duration": 0.10000000000000142,
                "tempo": 120.0
            },
            {
                "start_time": 24.581818181818182,
                "end_time": 24.679545454545455,
                "pitch": 43,
                "velocity": 80,
                "duration": 0.09772727272727266,
                "tempo": 120.0
            },
            {
                "start_time": 24.784090909090907,
                "end_time": 24.884090909090908,
                "pitch": 43,
                "velocity": 80,
                "duration": 0.10000000000000142,
                "tempo": 120.0
            },
            {
                "start_time": 24.98409090909091,
                "end_time": 25.084090909090907,
                "pitch": 43,
                "velocity": 80,
                "duration": 0.09999999999999787,
                "tempo": 120.0
            },
            {
                "start_time": 25.18409090909091,
                "end_time": 25.284090909090907,
                "pitch": 43,
                "velocity": 80,
                "duration": 0.09999999999999787,
                "tempo": 120.0
            },
            {
                "start_time": 25.386363636363637,
                "end_time": 25.48409090909091,
                "pitch": 43,
                "velocity": 80,
                "duration": 0.09772727272727266,
                "tempo": 120.0
            },
            {
                "start_time": 25.586363636363636,
                "end_time": 25.686363636363634,
                "pitch": 43,
                "velocity": 80,
                "duration": 0.09999999999999787,
                "tempo": 120.0
            },
            {
                "start_time": 25.79090909090909,
                "end_time": 25.888636363636362,
                "pitch": 42,
                "velocity": 80,
                "duration": 0.09772727272727266,
                "tempo": 120.0
            },
            {
                "start_time": 25.988636363636363,
                "end_time": 26.08863636363636,
                "pitch": 42,
                "velocity": 80,
                "duration": 0.09999999999999787,
                "tempo": 120.0
            },
            {
                "start_time": 26.188636363636363,
                "end_time": 26.288636363636364,
                "pitch": 42,
                "velocity": 80,
                "duration": 0.10000000000000142,
                "tempo": 120.0
            },
            {
                "start_time": 26.388636363636362,
                "end_time": 26.488636363636363,
                "pitch": 42,
                "velocity": 80,
                "duration": 0.10000000000000142,
                "tempo": 120.0
            },
            {
                "start_time": 26.59090909090909,
                "end_time": 26.688636363636363,
                "pitch": 42,
                "velocity": 80,
                "duration": 0.09772727272727266,
                "tempo": 120.0
            },
            {
                "start_time": 26.79090909090909,
                "end_time": 26.89090909090909,
                "pitch": 42,
                "velocity": 80,
                "duration": 0.10000000000000142,
                "tempo": 120.0
            },
            {
                "start_time": 26.993181818181817,
                "end_time": 27.09090909090909,
                "pitch": 42,
                "velocity": 80,
                "duration": 0.09772727272727266,
                "tempo": 120.0
            },
            {
                "start_time": 27.193181818181817,
                "end_time": 27.293181818181818,
                "pitch": 42,
                "velocity": 80,
                "duration": 0.10000000000000142,
                "tempo": 120.0
            },
            {
                "start_time": 27.393181818181816,
                "end_time": 27.493181818181817,
                "pitch": 42,
                "velocity": 80,
                "duration": 0.10000000000000142,
                "tempo": 120.0
            },
            {
                "start_time": 27.595454545454544,
                "end_time": 27.695454545454545,
                "pitch": 42,
                "velocity": 80,
                "duration": 0.10000000000000142,
                "tempo": 120.0
            },
            {
                "start_time": 27.797727272727272,
                "end_time": 27.895454545454545,
                "pitch": 42,
                "velocity": 80,
                "duration": 0.09772727272727266,
                "tempo": 120.0
            },
            {
                "start_time": 27.99772727272727,
                "end_time": 28.095454545454544,
                "pitch": 42,
                "velocity": 80,
                "duration": 0.09772727272727266,
                "tempo": 120.0
            },
            {
                "start_time": 28.19772727272727,
                "end_time": 28.295454545454543,
                "pitch": 42,
                "velocity": 80,
                "duration": 0.09772727272727266,
                "tempo": 120.0
            },
            {
                "start_time": 28.39772727272727,
                "end_time": 28.495454545454542,
                "pitch": 42,
                "velocity": 80,
                "duration": 0.09772727272727266,
                "tempo": 120.0
            },
            {
                "start_time": 28.597727272727273,
                "end_time": 28.69772727272727,
                "pitch": 42,
                "velocity": 80,
                "duration": 0.09999999999999787,
                "tempo": 120.0
            },
            {
                "start_time": 28.799999999999997,
                "end_time": 28.9,
                "pitch": 42,
                "velocity": 80,
                "duration": 0.10000000000000142,
                "tempo": 120.0
            },
            {
                "start_time": 29.402272727272727,
                "end_time": 29.802272727272726,
                "pitch": 40,
                "velocity": 80,
                "duration": 0.3999999999999986,
                "tempo": 120.0
            },
            {
                "start_time": 30.004545454545454,
                "end_time": 30.61590909090909,
                "pitch": 35,
                "velocity": 80,
                "duration": 0.6113636363636346,
                "tempo": 120.0
            },
            {
                "start_time": 32.61363636363636,
                "end_time": 33.01136363636363,
                "pitch": 40,
                "velocity": 80,
                "duration": 0.3977272727272734,
                "tempo": 120.0
            },
            {
                "start_time": 33.215909090909086,
                "end_time": 33.61818181818182,
                "pitch": 35,
                "velocity": 80,
                "duration": 0.4022727272727309,
                "tempo": 120.0
            },
            {
                "start_time": 33.82727272727273,
                "end_time": 34.225,
                "pitch": 43,
                "velocity": 80,
                "duration": 0.3977272727272734,
                "tempo": 120.0
            },
            {
                "start_time": 34.42727272727272,
                "end_time": 34.82272727272727,
                "pitch": 42,
                "velocity": 80,
                "duration": 0.39545454545454817,
                "tempo": 120.0
            },
            {
                "start_time": 34.82272727272727,
                "end_time": 35.22272727272727,
                "pitch": 40,
                "velocity": 80,
                "duration": 0.3999999999999986,
                "tempo": 120.0
            },
            {
                "start_time": 35.83409090909091,
                "end_time": 36.23181818181818,
                "pitch": 40,
                "velocity": 80,
                "duration": 0.39772727272726627,
                "tempo": 120.0
            },
            {
                "start_time": 36.43636363636364,
                "end_time": 37.03409090909091,
                "pitch": 35,
                "velocity": 80,
                "duration": 0.5977272727272691,
                "tempo": 120.0
            },
            {
                "start_time": 39.04545454545455,
                "end_time": 39.44318181818181,
                "pitch": 40,
                "velocity": 80,
                "duration": 0.39772727272726627,
                "tempo": 120.0
            },
            {
                "start_time": 39.64772727272727,
                "end_time": 40.04545454545455,
                "pitch": 35,
                "velocity": 80,
                "duration": 0.3977272727272734,
                "tempo": 120.0
            },
            {
                "start_time": 40.25,
                "end_time": 40.65681818181818,
                "pitch": 45,
                "velocity": 80,
                "duration": 0.4068181818181813,
                "tempo": 120.0
            },
            {
                "start_time": 40.85681818181818,
                "end_time": 41.05,
                "pitch": 40,
                "velocity": 80,
                "duration": 0.19318181818182012,
                "tempo": 120.0
            },
            {
                "start_time": 41.87045454545454,
                "end_time": 42.06363636363636,
                "pitch": 40,
                "velocity": 80,
                "duration": 0.19318181818182012,
                "tempo": 120.0
            },
            {
                "start_time": 42.06363636363636,
                "end_time": 42.25681818181818,
                "pitch": 52,
                "velocity": 80,
                "duration": 0.19318181818182012,
                "tempo": 120.0
            },
            {
                "start_time": 42.25909090909091,
                "end_time": 42.46363636363636,
                "pitch": 40,
                "velocity": 80,
                "duration": 0.20454545454545325,
                "tempo": 120.0
            },
            {
                "start_time": 42.465909090909086,
                "end_time": 42.67045454545455,
                "pitch": 52,
                "velocity": 80,
                "duration": 0.20454545454546036,
                "tempo": 120.0
            },
            {
                "start_time": 42.67272727272727,
                "end_time": 42.87045454545454,
                "pitch": 40,
                "velocity": 80,
                "duration": 0.19772727272727053,
                "tempo": 120.0
            },
            {
                "start_time": 42.87045454545454,
                "end_time": 43.070454545454545,
                "pitch": 52,
                "velocity": 80,
                "duration": 0.20000000000000284,
                "tempo": 120.0
            },
            {
                "start_time": 43.070454545454545,
                "end_time": 43.27045454545454,
                "pitch": 40,
                "velocity": 80,
                "duration": 0.19999999999999574,
                "tempo": 120.0
            },
            {
                "start_time": 43.27272727272727,
                "end_time": 43.47272727272727,
                "pitch": 52,
                "velocity": 80,
                "duration": 0.19999999999999574,
                "tempo": 120.0
            },
            {
                "start_time": 43.475,
                "end_time": 43.67272727272727,
                "pitch": 36,
                "velocity": 80,
                "duration": 0.19772727272727053,
                "tempo": 120.0
            },
            {
                "start_time": 43.675,
                "end_time": 43.875,
                "pitch": 48,
                "velocity": 80,
                "duration": 0.20000000000000284,
                "tempo": 120.0
            },
            {
                "start_time": 43.875,
                "end_time": 44.074999999999996,
                "pitch": 36,
                "velocity": 80,
                "duration": 0.19999999999999574,
                "tempo": 120.0
            },
            {
                "start_time": 44.074999999999996,
                "end_time": 44.275,
                "pitch": 48,
                "velocity": 80,
                "duration": 0.20000000000000284,
                "tempo": 120.0
            },
            {
                "start_time": 44.275,
                "end_time": 44.474999999999994,
                "pitch": 36,
                "velocity": 80,
                "duration": 0.19999999999999574,
                "tempo": 120.0
            },
            {
                "start_time": 44.474999999999994,
                "end_time": 44.675,
                "pitch": 48,
                "velocity": 80,
                "duration": 0.20000000000000284,
                "tempo": 120.0
            },
            {
                "start_time": 44.675,
                "end_time": 44.875,
                "pitch": 36,
                "velocity": 80,
                "duration": 0.20000000000000284,
                "tempo": 120.0
            },
            {
                "start_time": 44.877272727272725,
                "end_time": 45.07727272727273,
                "pitch": 48,
                "velocity": 80,
                "duration": 0.20000000000000284,
                "tempo": 120.0
            },
            {
                "start_time": 45.07727272727273,
                "end_time": 45.277272727272724,
                "pitch": 38,
                "velocity": 80,
                "duration": 0.19999999999999574,
                "tempo": 120.0
            },
            {
                "start_time": 45.27954545454545,
                "end_time": 45.47727272727273,
                "pitch": 50,
                "velocity": 80,
                "duration": 0.19772727272727764,
                "tempo": 120.0
            },
            {
                "start_time": 45.47954545454545,
                "end_time": 45.679545454545455,
                "pitch": 38,
                "velocity": 80,
                "duration": 0.20000000000000284,
                "tempo": 120.0
            },
            {
                "start_time": 45.679545454545455,
                "end_time": 45.88181818181818,
                "pitch": 50,
                "velocity": 80,
                "duration": 0.20227272727272805,
                "tempo": 120.0
            },
            {
                "start_time": 45.88181818181818,
                "end_time": 46.07954545454545,
                "pitch": 38,
                "velocity": 80,
                "duration": 0.19772727272727053,
                "tempo": 120.0
            },
            {
                "start_time": 46.08181818181818,
                "end_time": 46.27954545454545,
                "pitch": 50,
                "velocity": 80,
                "duration": 0.19772727272727053,
                "tempo": 120.0
            },
            {
                "start_time": 46.27954545454545,
                "end_time": 46.48409090909091,
                "pitch": 38,
                "velocity": 80,
                "duration": 0.20454545454546036,
                "tempo": 120.0
            },
            {
                "start_time": 46.486363636363635,
                "end_time": 46.69090909090909,
                "pitch": 50,
                "velocity": 80,
                "duration": 0.20454545454545325,
                "tempo": 120.0
            },
            {
                "start_time": 46.69090909090909,
                "end_time": 46.88636363636363,
                "pitch": 35,
                "velocity": 80,
                "duration": 0.19545454545454533,
                "tempo": 120.0
            },
            {
                "start_time": 46.88636363636363,
                "end_time": 47.084090909090904,
                "pitch": 47,
                "velocity": 80,
                "duration": 0.19772727272727053,
                "tempo": 120.0
            },
            {
                "start_time": 47.084090909090904,
                "end_time": 47.288636363636364,
                "pitch": 35,
                "velocity": 80,
                "duration": 0.20454545454546036,
                "tempo": 120.0
            },
            {
                "start_time": 47.29090909090909,
                "end_time": 47.49545454545454,
                "pitch": 47,
                "velocity": 80,
                "duration": 0.20454545454545325,
                "tempo": 120.0
            },
            {
                "start_time": 47.49545454545454,
                "end_time": 47.695454545454545,
                "pitch": 35,
                "velocity": 80,
                "duration": 0.20000000000000284,
                "tempo": 120.0
            },
            {
                "start_time": 47.695454545454545,
                "end_time": 47.89545454545454,
                "pitch": 47,
                "velocity": 80,
                "duration": 0.19999999999999574,
                "tempo": 120.0
            },
            {
                "start_time": 47.89545454545454,
                "end_time": 48.095454545454544,
                "pitch": 35,
                "velocity": 80,
                "duration": 0.20000000000000284,
                "tempo": 120.0
            },
            {
                "start_time": 48.09772727272727,
                "end_time": 48.29772727272727,
                "pitch": 47,
                "velocity": 80,
                "duration": 0.20000000000000284,
                "tempo": 120.0
            },
            {
                "start_time": 48.3,
                "end_time": 48.49772727272727,
                "pitch": 36,
                "velocity": 80,
                "duration": 0.19772727272727053,
                "tempo": 120.0
            },
            {
                "start_time": 48.5,
                "end_time": 48.69772727272727,
                "pitch": 48,
                "velocity": 80,
                "duration": 0.19772727272727053,
                "tempo": 120.0
            },
            {
                "start_time": 48.699999999999996,
                "end_time": 48.89772727272727,
                "pitch": 36,
                "velocity": 80,
                "duration": 0.19772727272727764,
                "tempo": 120.0
            },
            {
                "start_time": 48.9,
                "end_time": 49.099999999999994,
                "pitch": 48,
                "velocity": 80,
                "duration": 0.19999999999999574,
                "tempo": 120.0
            },
            {
                "start_time": 49.099999999999994,
                "end_time": 49.3,
                "pitch": 36,
                "velocity": 80,
                "duration": 0.20000000000000284,
                "tempo": 120.0
            },
            {
                "start_time": 49.3,
                "end_time": 49.5,
                "pitch": 48,
                "velocity": 80,
                "duration": 0.20000000000000284,
                "tempo": 120.0
            },
            {
                "start_time": 49.5,
                "end_time": 49.70227272727273,
                "pitch": 36,
                "velocity": 80,
                "duration": 0.20227272727272805,
                "tempo": 120.0
            },
            {
                "start_time": 49.70227272727273,
                "end_time": 49.902272727272724,
                "pitch": 48,
                "velocity": 80,
                "duration": 0.19999999999999574,
                "tempo": 120.0
            },
            {
                "start_time": 49.902272727272724,
                "end_time": 50.099999999999994,
                "pitch": 37,
                "velocity": 80,
                "duration": 0.19772727272727053,
                "tempo": 120.0
            },
            {
                "start_time": 50.099999999999994,
                "end_time": 50.3,
                "pitch": 49,
                "velocity": 80,
                "duration": 0.20000000000000284,
                "tempo": 120.0
            },
            {
                "start_time": 50.30227272727272,
                "end_time": 50.502272727272725,
                "pitch": 37,
                "velocity": 80,
                "duration": 0.20000000000000284,
                "tempo": 120.0
            },
            {
                "start_time": 50.502272727272725,
                "end_time": 50.70454545454545,
                "pitch": 49,
                "velocity": 80,
                "duration": 0.20227272727272805,
                "tempo": 120.0
            },
            {
                "start_time": 50.70454545454545,
                "end_time": 50.90454545454545,
                "pitch": 37,
                "velocity": 80,
                "duration": 0.19999999999999574,
                "tempo": 120.0
            },
            {
                "start_time": 50.90681818181818,
                "end_time": 51.10454545454545,
                "pitch": 49,
                "velocity": 80,
                "duration": 0.19772727272727053,
                "tempo": 120.0
            },
            {
                "start_time": 51.10454545454545,
                "end_time": 51.304545454545455,
                "pitch": 37,
                "velocity": 80,
                "duration": 0.20000000000000284,
                "tempo": 120.0
            },
            {
                "start_time": 51.30681818181818,
                "end_time": 51.50681818181818,
                "pitch": 49,
                "velocity": 80,
                "duration": 0.20000000000000284,
                "tempo": 120.0
            },
            {
                "start_time": 51.50909090909091,
                "end_time": 51.70681818181818,
                "pitch": 38,
                "velocity": 80,
                "duration": 0.19772727272727053,
                "tempo": 120.0
            },
            {
                "start_time": 51.70681818181818,
                "end_time": 51.90454545454545,
                "pitch": 50,
                "velocity": 80,
                "duration": 0.19772727272727053,
                "tempo": 120.0
            },
            {
                "start_time": 51.90681818181818,
                "end_time": 52.10681818181818,
                "pitch": 38,
                "velocity": 80,
                "duration": 0.19999999999999574,
                "tempo": 120.0
            },
            {
                "start_time": 52.10681818181818,
                "end_time": 52.309090909090905,
                "pitch": 50,
                "velocity": 80,
                "duration": 0.20227272727272805,
                "tempo": 120.0
            },
            {
                "start_time": 52.309090909090905,
                "end_time": 52.50909090909091,
                "pitch": 38,
                "velocity": 80,
                "duration": 0.20000000000000284,
                "tempo": 120.0
            },
            {
                "start_time": 52.50909090909091,
                "end_time": 52.709090909090904,
                "pitch": 50,
                "velocity": 80,
                "duration": 0.19999999999999574,
                "tempo": 120.0
            },
            {
                "start_time": 52.709090909090904,
                "end_time": 52.90909090909091,
                "pitch": 38,
                "velocity": 80,
                "duration": 0.20000000000000284,
                "tempo": 120.0
            },
            {
                "start_time": 52.90909090909091,
                "end_time": 53.10909090909091,
                "pitch": 50,
                "velocity": 80,
                "duration": 0.20000000000000284,
                "tempo": 120.0
            },
            {
                "start_time": 53.111363636363635,
                "end_time": 53.309090909090905,
                "pitch": 35,
                "velocity": 80,
                "duration": 0.19772727272727053,
                "tempo": 120.0
            },
            {
                "start_time": 53.31136363636363,
                "end_time": 53.50909090909091,
                "pitch": 47,
                "velocity": 80,
                "duration": 0.19772727272727764,
                "tempo": 120.0
            },
            {
                "start_time": 53.51136363636363,
                "end_time": 53.711363636363636,
                "pitch": 35,
                "velocity": 80,
                "duration": 0.20000000000000284,
                "tempo": 120.0
            },
            {
                "start_time": 53.711363636363636,
                "end_time": 53.91590909090909,
                "pitch": 47,
                "velocity": 80,
                "duration": 0.20454545454545325,
                "tempo": 120.0
            },
            {
                "start_time": 53.91590909090909,
                "end_time": 54.018181818181816,
                "pitch": 47,
                "velocity": 80,
                "duration": 0.10227272727272663,
                "tempo": 120.0
            },
            {
                "start_time": 54.018181818181816,
                "end_time": 54.115909090909085,
                "pitch": 47,
                "velocity": 80,
                "duration": 0.09772727272726911,
                "tempo": 120.0
            },
            {
                "start_time": 54.324999999999996,
                "end_time": 54.42272727272727,
                "pitch": 47,
                "velocity": 80,
                "duration": 0.09772727272727622,
                "tempo": 120.0
            },
            {
                "start_time": 54.425,
                "end_time": 54.518181818181816,
                "pitch": 47,
                "velocity": 80,
                "duration": 0.0931818181818187,
                "tempo": 120.0
            }
        ],
        "Electric Piano 1": [
            {
                "start_time": 2.8431818181818183,
                "end_time": 2.943181818181818,
                "pitch": 45,
                "velocity": 101,
                "duration": 0.09999999999999964,
                "tempo": 120.0
            },
            {
                "start_time": 2.9454545454545453,
                "end_time": 3.043181818181818,
                "pitch": 47,
                "velocity": 101,
                "duration": 0.09772727272727266,
                "tempo": 120.0
            },
            {
                "start_time": 3.0454545454545454,
                "end_time": 3.143181818181818,
                "pitch": 48,
                "velocity": 101,
                "duration": 0.09772727272727266,
                "tempo": 120.0
            },
            {
                "start_time": 3.1454545454545455,
                "end_time": 3.243181818181818,
                "pitch": 50,
                "velocity": 101,
                "duration": 0.09772727272727266,
                "tempo": 120.0
            },
            {
                "start_time": 3.245454545454545,
                "end_time": 5.654545454545454,
                "pitch": 52,
                "velocity": 101,
                "duration": 2.409090909090909,
                "tempo": 120.0
            },
            {
                "start_time": 5.656818181818181,
                "end_time": 5.954545454545454,
                "pitch": 55,
                "velocity": 101,
                "duration": 0.29772727272727284,
                "tempo": 120.0
            },
            {
                "start_time": 5.956818181818181,
                "end_time": 6.261363636363636,
                "pitch": 54,
                "velocity": 101,
                "duration": 0.3045454545454547,
                "tempo": 120.0
            },
            {
                "start_time": 6.261363636363636,
                "end_time": 6.465909090909091,
                "pitch": 50,
                "velocity": 101,
                "duration": 0.20454545454545503,
                "tempo": 120.0
            },
            {
                "start_time": 6.468181818181818,
                "end_time": 7.0636363636363635,
                "pitch": 52,
                "velocity": 101,
                "duration": 0.5954545454545457,
                "tempo": 120.0
            },
            {
                "start_time": 7.0659090909090905,
                "end_time": 8.877272727272727,
                "pitch": 47,
                "velocity": 101,
                "duration": 1.8113636363636365,
                "tempo": 120.0
            },
            {
                "start_time": 9.079545454545453,
                "end_time": 9.179545454545455,
                "pitch": 45,
                "velocity": 101,
                "duration": 0.10000000000000142,
                "tempo": 120.0
            },
            {
                "start_time": 9.181818181818182,
                "end_time": 9.279545454545454,
                "pitch": 47,
                "velocity": 101,
                "duration": 0.09772727272727266,
                "tempo": 120.0
            },
            {
                "start_time": 9.281818181818181,
                "end_time": 9.381818181818181,
                "pitch": 48,
                "velocity": 101,
                "duration": 0.09999999999999964,
                "tempo": 120.0
            },
            {
                "start_time": 9.384090909090908,
                "end_time": 9.48181818181818,
                "pitch": 47,
                "velocity": 101,
                "duration": 0.09772727272727266,
                "tempo": 120.0
            },
            {
                "start_time": 9.48409090909091,
                "end_time": 9.584090909090909,
                "pitch": 48,
                "velocity": 101,
                "duration": 0.09999999999999964,
                "tempo": 120.0
            },
            {
                "start_time": 9.584090909090909,
                "end_time": 9.684090909090909,
                "pitch": 50,
                "velocity": 101,
                "duration": 0.09999999999999964,
                "tempo": 120.0
            },
            {
                "start_time": 9.686363636363636,
                "end_time": 11.093181818181817,
                "pitch": 52,
                "velocity": 101,
                "duration": 1.4068181818181813,
                "tempo": 120.0
            },
            {
                "start_time": 11.093181818181817,
                "end_time": 11.193181818181818,
                "pitch": 50,
                "velocity": 101,
                "duration": 0.10000000000000142,
                "tempo": 120.0
            },
            {
                "start_time": 11.195454545454545,
                "end_time": 11.293181818181818,
                "pitch": 52,
                "velocity": 101,
                "duration": 0.09772727272727266,
                "tempo": 120.0
            },
            {
                "start_time": 11.295454545454545,
                "end_time": 11.663636363636362,
                "pitch": 55,
                "velocity": 101,
                "duration": 0.3681818181818173,
                "tempo": 120.0
            },
            {
                "start_time": 11.663636363636362,
                "end_time": 11.697727272727272,
                "pitch": 55,
                "velocity": 101,
                "duration": 0.03409090909091006,
                "tempo": 120.0
            },
            {
                "start_time": 11.697727272727272,
                "end_time": 11.831818181818182,
                "pitch": 55,
                "velocity": 101,
                "duration": 0.1340909090909097,
                "tempo": 120.0
            },
            {
                "start_time": 11.663636363636362,
                "end_time": 11.831818181818182,
                "pitch": 67,
                "velocity": 101,
                "duration": 0.16818181818181976,
                "tempo": 120.0
            },
            {
                "start_time": 11.697727272727272,
                "end_time": 11.86590909090909,
                "pitch": 43,
                "velocity": 101,
                "duration": 0.168181818181818,
                "tempo": 120.0
            },
            {
                "start_time": 11.831818181818182,
                "end_time": 11.86590909090909,
                "pitch": 55,
                "velocity": 101,
                "duration": 0.034090909090908283,
                "tempo": 120.0
            },
            {
                "start_time": 11.86590909090909,
                "end_time": 11.897727272727272,
                "pitch": 55,
                "velocity": 101,
                "duration": 0.0318181818181813,
                "tempo": 120.0
            },
            {
                "start_time": 11.899999999999999,
                "end_time": 12.5,
                "pitch": 54,
                "velocity": 101,
                "duration": 0.6000000000000014,
                "tempo": 120.0
            },
            {
                "start_time": 12.502272727272727,
                "end_time": 12.904545454545454,
                "pitch": 52,
                "velocity": 101,
                "duration": 0.40227272727272734,
                "tempo": 120.0
            },
            {
                "start_time": 12.906818181818181,
                "end_time": 14.318181818181818,
                "pitch": 54,
                "velocity": 101,
                "duration": 1.411363636363637,
                "tempo": 120.0
            },
            {
                "start_time": 14.320454545454545,
                "end_time": 14.524999999999999,
                "pitch": 50,
                "velocity": 101,
                "duration": 0.20454545454545325,
                "tempo": 120.0
            },
            {
                "start_time": 14.527272727272727,
                "end_time": 14.720454545454544,
                "pitch": 59,
                "velocity": 101,
                "duration": 0.19318181818181657,
                "tempo": 120.0
            },
            {
                "start_time": 14.722727272727273,
                "end_time": 14.786363636363635,
                "pitch": 57,
                "velocity": 101,
                "duration": 0.0636363636363626,
                "tempo": 120.0
            },
            {
                "start_time": 14.918181818181818,
                "end_time": 15.122727272727271,
                "pitch": 57,
                "velocity": 101,
                "duration": 0.20454545454545325,
                "tempo": 120.0
            },
            {
                "start_time": 15.125,
                "end_time": 15.19090909090909,
                "pitch": 55,
                "velocity": 101,
                "duration": 0.06590909090908958,
                "tempo": 120.0
            },
            {
                "start_time": 15.329545454545453,
                "end_time": 15.529545454545454,
                "pitch": 55,
                "velocity": 101,
                "duration": 0.20000000000000107,
                "tempo": 120.0
            },
            {
                "start_time": 15.531818181818181,
                "end_time": 15.597727272727273,
                "pitch": 54,
                "velocity": 101,
                "duration": 0.06590909090909136,
                "tempo": 120.0
            },
            {
                "start_time": 15.734090909090908,
                "end_time": 15.83181818181818,
                "pitch": 54,
                "velocity": 101,
                "duration": 0.09772727272727266,
                "tempo": 120.0
            },
            {
                "start_time": 15.834090909090909,
                "end_time": 15.934090909090909,
                "pitch": 52,
                "velocity": 101,
                "duration": 0.09999999999999964,
                "tempo": 120.0
            },
            {
                "start_time": 15.934090909090909,
                "end_time": 16.03409090909091,
                "pitch": 50,
                "velocity": 101,
                "duration": 0.10000000000000142,
                "tempo": 120.0
            },
            {
                "start_time": 16.036363636363635,
                "end_time": 16.136363636363637,
                "pitch": 47,
                "velocity": 101,
                "duration": 0.10000000000000142,
                "tempo": 120.0
            },
            {
                "start_time": 16.136363636363637,
                "end_time": 18.545454545454543,
                "pitch": 52,
                "velocity": 101,
                "duration": 2.4090909090909065,
                "tempo": 120.0
            },
            {
                "start_time": 18.547727272727272,
                "end_time": 18.847727272727273,
                "pitch": 50,
                "velocity": 101,
                "duration": 0.3000000000000007,
                "tempo": 120.0
            },
            {
                "start_time": 18.847727272727273,
                "end_time": 19.147727272727273,
                "pitch": 52,
                "velocity": 101,
                "duration": 0.3000000000000007,
                "tempo": 120.0
            },
            {
                "start_time": 19.15,
                "end_time": 19.349999999999998,
                "pitch": 54,
                "velocity": 101,
                "duration": 0.1999999999999993,
                "tempo": 120.0
            },
            {
                "start_time": 19.352272727272727,
                "end_time": 19.71818181818182,
                "pitch": 55,
                "velocity": 101,
                "duration": 0.36590909090909207,
                "tempo": 120.0
            },
            {
                "start_time": 11.831818181818182,
                "end_time": 19.71818181818182,
                "pitch": 67,
                "velocity": 101,
                "duration": 7.886363636363637,
                "tempo": 120.0
            },
            {
                "start_time": 11.86590909090909,
                "end_time": 19.752272727272725,
                "pitch": 43,
                "velocity": 101,
                "duration": 7.886363636363635,
                "tempo": 120.0
            },
            {
                "start_time": 19.71818181818182,
                "end_time": 19.752272727272725,
                "pitch": 55,
                "velocity": 101,
                "duration": 0.03409090909090651,
                "tempo": 120.0
            },
            {
                "start_time": 19.752272727272725,
                "end_time": 19.886363636363637,
                "pitch": 55,
                "velocity": 101,
                "duration": 0.13409090909091148,
                "tempo": 120.0
            },
            {
                "start_time": 19.71818181818182,
                "end_time": 19.886363636363637,
                "pitch": 67,
                "velocity": 101,
                "duration": 0.168181818181818,
                "tempo": 120.0
            },
            {
                "start_time": 19.752272727272725,
                "end_time": 19.918181818181818,
                "pitch": 43,
                "velocity": 101,
                "duration": 0.16590909090909278,
                "tempo": 120.0
            },
            {
                "start_time": 19.886363636363637,
                "end_time": 19.918181818181818,
                "pitch": 55,
                "velocity": 101,
                "duration": 0.0318181818181813,
                "tempo": 120.0
            },
            {
                "start_time": 19.918181818181818,
                "end_time": 19.95,
                "pitch": 55,
                "velocity": 101,
                "duration": 0.0318181818181813,
                "tempo": 120.0
            },
            {
                "start_time": 19.952272727272728,
                "end_time": 20.554545454545455,
                "pitch": 50,
                "velocity": 101,
                "duration": 0.6022727272727266,
                "tempo": 120.0
            },
            {
                "start_time": 20.55681818181818,
                "end_time": 21.759090909090908,
                "pitch": 52,
                "velocity": 101,
                "duration": 1.202272727272728,
                "tempo": 120.0
            },
            {
                "start_time": 21.961363636363636,
                "end_time": 22.159090909090907,
                "pitch": 55,
                "velocity": 101,
                "duration": 0.19772727272727053,
                "tempo": 120.0
            },
            {
                "start_time": 22.161363636363635,
                "end_time": 22.363636363636363,
                "pitch": 54,
                "velocity": 101,
                "duration": 0.20227272727272805,
                "tempo": 120.0
            },
            {
                "start_time": 22.36590909090909,
                "end_time": 22.73409090909091,
                "pitch": 55,
                "velocity": 101,
                "duration": 0.36818181818182083,
                "tempo": 120.0
            },
            {
                "start_time": 19.886363636363637,
                "end_time": 22.73409090909091,
                "pitch": 67,
                "velocity": 101,
                "duration": 2.8477272727272727,
                "tempo": 120.0
            },
            {
                "start_time": 19.918181818181818,
                "end_time": 22.768181818181816,
                "pitch": 43,
                "velocity": 101,
                "duration": 2.849999999999998,
                "tempo": 120.0
            },
            {
                "start_time": 22.73409090909091,
                "end_time": 22.768181818181816,
                "pitch": 55,
                "velocity": 101,
                "duration": 0.03409090909090651,
                "tempo": 120.0
            },
            {
                "start_time": 22.768181818181816,
                "end_time": 22.897727272727273,
                "pitch": 55,
                "velocity": 101,
                "duration": 0.12954545454545752,
                "tempo": 120.0
            },
            {
                "start_time": 22.73409090909091,
                "end_time": 22.897727272727273,
                "pitch": 67,
                "velocity": 101,
                "duration": 0.16363636363636402,
                "tempo": 120.0
            },
            {
                "start_time": 22.768181818181816,
                "end_time": 22.93181818181818,
                "pitch": 43,
                "velocity": 101,
                "duration": 0.16363636363636402,
                "tempo": 120.0
            },
            {
                "start_time": 22.897727272727273,
                "end_time": 22.93181818181818,
                "pitch": 55,
                "velocity": 101,
                "duration": 0.03409090909090651,
                "tempo": 120.0
            },
            {
                "start_time": 22.93181818181818,
                "end_time": 23.06590909090909,
                "pitch": 55,
                "velocity": 101,
                "duration": 0.13409090909091148,
                "tempo": 120.0
            },
            {
                "start_time": 22.897727272727273,
                "end_time": 23.06590909090909,
                "pitch": 67,
                "velocity": 101,
                "duration": 0.168181818181818,
                "tempo": 120.0
            },
            {
                "start_time": 22.93181818181818,
                "end_time": 23.099999999999998,
                "pitch": 43,
                "velocity": 101,
                "duration": 0.168181818181818,
                "tempo": 120.0
            },
            {
                "start_time": 23.06590909090909,
                "end_time": 23.099999999999998,
                "pitch": 55,
                "velocity": 101,
                "duration": 0.03409090909090651,
                "tempo": 120.0
            },
            {
                "start_time": 23.099999999999998,
                "end_time": 23.238636363636363,
                "pitch": 55,
                "velocity": 101,
                "duration": 0.13863636363636545,
                "tempo": 120.0
            },
            {
                "start_time": 23.06590909090909,
                "end_time": 23.238636363636363,
                "pitch": 67,
                "velocity": 101,
                "duration": 0.17272727272727195,
                "tempo": 120.0
            },
            {
                "start_time": 23.099999999999998,
                "end_time": 23.272727272727273,
                "pitch": 43,
                "velocity": 101,
                "duration": 0.1727272727272755,
                "tempo": 120.0
            },
            {
                "start_time": 23.238636363636363,
                "end_time": 23.272727272727273,
                "pitch": 55,
                "velocity": 101,
                "duration": 0.03409090909091006,
                "tempo": 120.0
            },
            {
                "start_time": 23.272727272727273,
                "end_time": 23.409090909090907,
                "pitch": 55,
                "velocity": 101,
                "duration": 0.13636363636363313,
                "tempo": 120.0
            },
            {
                "start_time": 23.238636363636363,
                "end_time": 23.409090909090907,
                "pitch": 67,
                "velocity": 101,
                "duration": 0.1704545454545432,
                "tempo": 120.0
            },
            {
                "start_time": 23.272727272727273,
                "end_time": 23.443181818181817,
                "pitch": 43,
                "velocity": 101,
                "duration": 0.1704545454545432,
                "tempo": 120.0
            },
            {
                "start_time": 23.409090909090907,
                "end_time": 23.443181818181817,
                "pitch": 55,
                "velocity": 101,
                "duration": 0.03409090909091006,
                "tempo": 120.0
            },
            {
                "start_time": 23.443181818181817,
                "end_time": 23.577272727272724,
                "pitch": 55,
                "velocity": 101,
                "duration": 0.13409090909090793,
                "tempo": 120.0
            },
            {
                "start_time": 23.409090909090907,
                "end_time": 23.577272727272724,
                "pitch": 67,
                "velocity": 101,
                "duration": 0.168181818181818,
                "tempo": 120.0
            },
            {
                "start_time": 23.443181818181817,
                "end_time": 23.611363636363635,
                "pitch": 43,
                "velocity": 101,
                "duration": 0.168181818181818,
                "tempo": 120.0
            },
            {
                "start_time": 23.577272727272724,
                "end_time": 23.611363636363635,
                "pitch": 55,
                "velocity": 101,
                "duration": 0.03409090909091006,
                "tempo": 120.0
            },
            {
                "start_time": 23.611363636363635,
                "end_time": 23.745454545454546,
                "pitch": 55,
                "velocity": 101,
                "duration": 0.13409090909091148,
                "tempo": 120.0
            },
            {
                "start_time": 23.577272727272724,
                "end_time": 23.745454545454546,
                "pitch": 67,
                "velocity": 101,
                "duration": 0.16818181818182154,
                "tempo": 120.0
            },
            {
                "start_time": 23.611363636363635,
                "end_time": 23.779545454545453,
                "pitch": 43,
                "velocity": 101,
                "duration": 0.168181818181818,
                "tempo": 120.0
            },
            {
                "start_time": 23.745454545454546,
                "end_time": 23.779545454545453,
                "pitch": 55,
                "velocity": 101,
                "duration": 0.03409090909090651,
                "tempo": 120.0
            },
            {
                "start_time": 23.779545454545453,
                "end_time": 23.911363636363635,
                "pitch": 55,
                "velocity": 101,
                "duration": 0.13181818181818272,
                "tempo": 120.0
            },
            {
                "start_time": 23.745454545454546,
                "end_time": 23.911363636363635,
                "pitch": 67,
                "velocity": 101,
                "duration": 0.16590909090908923,
                "tempo": 120.0
            },
            {
                "start_time": 23.779545454545453,
                "end_time": 23.945454545454545,
                "pitch": 43,
                "velocity": 101,
                "duration": 0.16590909090909278,
                "tempo": 120.0
            },
            {
                "start_time": 23.911363636363635,
                "end_time": 23.945454545454545,
                "pitch": 55,
                "velocity": 101,
                "duration": 0.03409090909091006,
                "tempo": 120.0
            },
            {
                "start_time": 23.945454545454545,
                "end_time": 24.079545454545453,
                "pitch": 55,
                "velocity": 101,
                "duration": 0.13409090909090793,
                "tempo": 120.0
            },
            {
                "start_time": 23.911363636363635,
                "end_time": 24.079545454545453,
                "pitch": 67,
                "velocity": 101,
                "duration": 0.168181818181818,
                "tempo": 120.0
            },
            {
                "start_time": 23.945454545454545,
                "end_time": 24.111363636363635,
                "pitch": 43,
                "velocity": 101,
                "duration": 0.16590909090908923,
                "tempo": 120.0
            },
            {
                "start_time": 24.079545454545453,
                "end_time": 24.111363636363635,
                "pitch": 55,
                "velocity": 101,
                "duration": 0.0318181818181813,
                "tempo": 120.0
            },
            {
                "start_time": 24.111363636363635,
                "end_time": 24.177272727272726,
                "pitch": 55,
                "velocity": 101,
                "duration": 0.06590909090909136,
                "tempo": 120.0
            },
            {
                "start_time": 24.179545454545455,
                "end_time": 24.779545454545453,
                "pitch": 57,
                "velocity": 101,
                "duration": 0.5999999999999979,
                "tempo": 120.0
            },
            {
                "start_time": 24.78181818181818,
                "end_time": 25.38181818181818,
                "pitch": 52,
                "velocity": 101,
                "duration": 0.5999999999999979,
                "tempo": 120.0
            },
            {
                "start_time": 25.384090909090908,
                "end_time": 25.752272727272725,
                "pitch": 55,
                "velocity": 101,
                "duration": 0.3681818181818173,
                "tempo": 120.0
            },
            {
                "start_time": 24.079545454545453,
                "end_time": 25.752272727272725,
                "pitch": 67,
                "velocity": 101,
                "duration": 1.672727272727272,
                "tempo": 120.0
            },
            {
                "start_time": 25.752272727272725,
                "end_time": 25.786363636363635,
                "pitch": 55,
                "velocity": 101,
                "duration": 0.03409090909091006,
                "tempo": 120.0
            },
            {
                "start_time": 25.788636363636364,
                "end_time": 28.99772727272727,
                "pitch": 54,
                "velocity": 101,
                "duration": 3.209090909090907,
                "tempo": 120.0
            },
            {
                "start_time": 25.752272727272725,
                "end_time": 42.15909090909091,
                "pitch": 67,
                "velocity": 101,
                "duration": 16.40681818181818,
                "tempo": 120.0
            },
            {
                "start_time": 41.86590909090909,
                "end_time": 42.15909090909091,
                "pitch": 67,
                "velocity": 80,
                "duration": 0.29318181818181444,
                "tempo": 120.0
            },
            {
                "start_time": 42.15909090909091,
                "end_time": 42.46363636363636,
                "pitch": 66,
                "velocity": 80,
                "duration": 0.3045454545454547,
                "tempo": 120.0
            },
            {
                "start_time": 42.46363636363636,
                "end_time": 42.668181818181814,
                "pitch": 62,
                "velocity": 80,
                "duration": 0.20454545454545325,
                "tempo": 120.0
            },
            {
                "start_time": 42.67045454545455,
                "end_time": 43.87272727272727,
                "pitch": 64,
                "velocity": 80,
                "duration": 1.202272727272721,
                "tempo": 120.0
            },
            {
                "start_time": 43.87272727272727,
                "end_time": 44.27272727272727,
                "pitch": 67,
                "velocity": 80,
                "duration": 0.4000000000000057,
                "tempo": 120.0
            },
            {
                "start_time": 44.275,
                "end_time": 44.57272727272727,
                "pitch": 69,
                "velocity": 80,
                "duration": 0.29772727272727195,
                "tempo": 120.0
            },
            {
                "start_time": 44.574999999999996,
                "end_time": 44.875,
                "pitch": 67,
                "velocity": 80,
                "duration": 0.30000000000000426,
                "tempo": 120.0
            },
            {
                "start_time": 44.875,
                "end_time": 45.074999999999996,
                "pitch": 64,
                "velocity": 80,
                "duration": 0.19999999999999574,
                "tempo": 120.0
            },
            {
                "start_time": 45.074999999999996,
                "end_time": 45.377272727272725,
                "pitch": 67,
                "velocity": 80,
                "duration": 0.30227272727272947,
                "tempo": 120.0
            },
            {
                "start_time": 45.377272727272725,
                "end_time": 45.67727272727272,
                "pitch": 66,
                "velocity": 80,
                "duration": 0.29999999999999716,
                "tempo": 120.0
            },
            {
                "start_time": 45.679545454545455,
                "end_time": 45.877272727272725,
                "pitch": 62,
                "velocity": 80,
                "duration": 0.19772727272727053,
                "tempo": 120.0
            },
            {
                "start_time": 45.87954545454545,
                "end_time": 47.08181818181818,
                "pitch": 57,
                "velocity": 80,
                "duration": 1.202272727272728,
                "tempo": 120.0
            },
            {
                "start_time": 47.084090909090904,
                "end_time": 47.49318181818182,
                "pitch": 59,
                "velocity": 80,
                "duration": 0.4090909090909136,
                "tempo": 120.0
            },
            {
                "start_time": 47.49545454545454,
                "end_time": 47.793181818181814,
                "pitch": 62,
                "velocity": 80,
                "duration": 0.29772727272727195,
                "tempo": 120.0
            },
            {
                "start_time": 47.79545454545454,
                "end_time": 48.09318181818182,
                "pitch": 67,
                "velocity": 80,
                "duration": 0.29772727272727906,
                "tempo": 120.0
            },
            {
                "start_time": 48.095454545454544,
                "end_time": 48.29545454545454,
                "pitch": 66,
                "velocity": 80,
                "duration": 0.19999999999999574,
                "tempo": 120.0
            },
            {
                "start_time": 48.29545454545454,
                "end_time": 49.49772727272727,
                "pitch": 64,
                "velocity": 80,
                "duration": 1.202272727272728,
                "tempo": 120.0
            },
            {
                "start_time": 49.5,
                "end_time": 49.699999999999996,
                "pitch": 71,
                "velocity": 80,
                "duration": 0.19999999999999574,
                "tempo": 120.0
            },
            {
                "start_time": 49.699999999999996,
                "end_time": 50.70227272727273,
                "pitch": 69,
                "velocity": 80,
                "duration": 1.0022727272727323,
                "tempo": 120.0
            },
            {
                "start_time": 50.70454545454545,
                "end_time": 51.002272727272725,
                "pitch": 64,
                "velocity": 80,
                "duration": 0.29772727272727195,
                "tempo": 120.0
            },
            {
                "start_time": 51.00454545454545,
                "end_time": 51.304545454545455,
                "pitch": 66,
                "velocity": 80,
                "duration": 0.30000000000000426,
                "tempo": 120.0
            },
            {
                "start_time": 51.304545454545455,
                "end_time": 51.50454545454545,
                "pitch": 67,
                "velocity": 80,
                "duration": 0.19999999999999574,
                "tempo": 120.0
            },
            {
                "start_time": 51.50454545454545,
                "end_time": 52.10454545454545,
                "pitch": 67,
                "velocity": 80,
                "duration": 0.6000000000000014,
                "tempo": 120.0
            },
            {
                "start_time": 52.10681818181818,
                "end_time": 52.20454545454545,
                "pitch": 66,
                "velocity": 80,
                "duration": 0.09772727272727622,
                "tempo": 120.0
            },
            {
                "start_time": 52.20681818181818,
                "end_time": 52.304545454545455,
                "pitch": 64,
                "velocity": 80,
                "duration": 0.09772727272727622,
                "tempo": 120.0
            },
            {
                "start_time": 52.30681818181818,
                "end_time": 53.90909090909091,
                "pitch": 66,
                "velocity": 80,
                "duration": 1.6022727272727266,
                "tempo": 120.0
            },
            {
                "start_time": 53.913636363636364,
                "end_time": 54.01363636363636,
                "pitch": 71,
                "velocity": 101,
                "duration": 0.09999999999999432,
                "tempo": 120.0
            },
            {
                "start_time": 54.01363636363636,
                "end_time": 54.115909090909085,
                "pitch": 71,
                "velocity": 101,
                "duration": 0.10227272727272663,
                "tempo": 120.0
            },
            {
                "start_time": 54.32272727272727,
                "end_time": 54.418181818181814,
                "pitch": 71,
                "velocity": 101,
                "duration": 0.0954545454545439,
                "tempo": 120.0
            },
            {
                "start_time": 54.42045454545454,
                "end_time": 54.51590909090909,
                "pitch": 71,
                "velocity": 101,
                "duration": 0.09545454545455101,
                "tempo": 120.0
            }
        ],
        "Vibraphone": [
            {
                "start_time": 0.029545454545454545,
                "end_time": 0.125,
                "pitch": 52,
                "velocity": 101,
                "duration": 0.09545454545454546,
                "tempo": 120.0
            },
            {
                "start_time": 0.12727272727272726,
                "end_time": 0.22499999999999998,
                "pitch": 59,
                "velocity": 101,
                "duration": 0.09772727272727272,
                "tempo": 120.0
            },
            {
                "start_time": 0.22727272727272727,
                "end_time": 0.325,
                "pitch": 52,
                "velocity": 101,
                "duration": 0.09772727272727275,
                "tempo": 120.0
            },
            {
                "start_time": 0.32727272727272727,
                "end_time": 0.42727272727272725,
                "pitch": 59,
                "velocity": 101,
                "duration": 0.09999999999999998,
                "tempo": 120.0
            },
            {
                "start_time": 0.42727272727272725,
                "end_time": 0.6318181818181818,
                "pitch": 64,
                "velocity": 101,
                "duration": 0.20454545454545459,
                "tempo": 120.0
            },
            {
                "start_time": 0.6318181818181818,
                "end_time": 0.734090909090909,
                "pitch": 52,
                "velocity": 101,
                "duration": 0.10227272727272718,
                "tempo": 120.0
            },
            {
                "start_time": 0.7363636363636363,
                "end_time": 0.8386363636363636,
                "pitch": 59,
                "velocity": 101,
                "duration": 0.10227272727272729,
                "tempo": 120.0
            },
            {
                "start_time": 0.8386363636363636,
                "end_time": 0.9363636363636363,
                "pitch": 52,
                "velocity": 101,
                "duration": 0.09772727272727266,
                "tempo": 120.0
            },
            {
                "start_time": 0.9386363636363636,
                "end_time": 1.0386363636363636,
                "pitch": 59,
                "velocity": 101,
                "duration": 0.09999999999999998,
                "tempo": 120.0
            },
            {
                "start_time": 1.0386363636363636,
                "end_time": 1.1386363636363637,
                "pitch": 52,
                "velocity": 101,
                "duration": 0.10000000000000009,
                "tempo": 120.0
            },
            {
                "start_time": 1.1386363636363637,
                "end_time": 1.2386363636363635,
                "pitch": 59,
                "velocity": 101,
                "duration": 0.09999999999999987,
                "tempo": 120.0
            },
            {
                "start_time": 1.2386363636363635,
                "end_time": 1.4386363636363635,
                "pitch": 64,
                "velocity": 101,
                "duration": 0.19999999999999996,
                "tempo": 120.0
            },
            {
                "start_time": 1.4386363636363635,
                "end_time": 1.5386363636363636,
                "pitch": 52,
                "velocity": 101,
                "duration": 0.10000000000000009,
                "tempo": 120.0
            },
            {
                "start_time": 1.5386363636363636,
                "end_time": 1.6386363636363634,
                "pitch": 59,
                "velocity": 101,
                "duration": 0.09999999999999987,
                "tempo": 120.0
            },
            {
                "start_time": 1.6409090909090909,
                "end_time": 1.7386363636363635,
                "pitch": 52,
                "velocity": 101,
                "duration": 0.09772727272727266,
                "tempo": 120.0
            },
            {
                "start_time": 1.7386363636363635,
                "end_time": 1.8386363636363636,
                "pitch": 59,
                "velocity": 101,
                "duration": 0.10000000000000009,
                "tempo": 120.0
            },
            {
                "start_time": 1.8386363636363636,
                "end_time": 1.9386363636363635,
                "pitch": 52,
                "velocity": 101,
                "duration": 0.09999999999999987,
                "tempo": 120.0
            },
            {
                "start_time": 1.940909090909091,
                "end_time": 2.0386363636363636,
                "pitch": 59,
                "velocity": 101,
                "duration": 0.09772727272727266,
                "tempo": 120.0
            },
            {
                "start_time": 2.040909090909091,
                "end_time": 2.2386363636363633,
                "pitch": 64,
                "velocity": 101,
                "duration": 0.1977272727272723,
                "tempo": 120.0
            },
            {
                "start_time": 2.2409090909090907,
                "end_time": 2.3386363636363634,
                "pitch": 52,
                "velocity": 101,
                "duration": 0.09772727272727266,
                "tempo": 120.0
            },
            {
                "start_time": 2.340909090909091,
                "end_time": 2.4386363636363635,
                "pitch": 59,
                "velocity": 101,
                "duration": 0.09772727272727266,
                "tempo": 120.0
            },
            {
                "start_time": 2.440909090909091,
                "end_time": 2.540909090909091,
                "pitch": 52,
                "velocity": 101,
                "duration": 0.10000000000000009,
                "tempo": 120.0
            },
            {
                "start_time": 2.540909090909091,
                "end_time": 2.6409090909090907,
                "pitch": 59,
                "velocity": 101,
                "duration": 0.09999999999999964,
                "tempo": 120.0
            },
            {
                "start_time": 2.643181818181818,
                "end_time": 2.7409090909090907,
                "pitch": 52,
                "velocity": 101,
                "duration": 0.09772727272727266,
                "tempo": 120.0
            },
            {
                "start_time": 2.743181818181818,
                "end_time": 2.8454545454545452,
                "pitch": 59,
                "velocity": 101,
                "duration": 0.10227272727272707,
                "tempo": 120.0
            },
            {
                "start_time": 2.8454545454545452,
                "end_time": 3.0454545454545454,
                "pitch": 64,
                "velocity": 101,
                "duration": 0.20000000000000018,
                "tempo": 120.0
            },
            {
                "start_time": 3.0454545454545454,
                "end_time": 3.1454545454545455,
                "pitch": 52,
                "velocity": 101,
                "duration": 0.10000000000000009,
                "tempo": 120.0
            },
            {
                "start_time": 3.1454545454545455,
                "end_time": 3.245454545454545,
                "pitch": 59,
                "velocity": 101,
                "duration": 0.09999999999999964,
                "tempo": 120.0
            },
            {
                "start_time": 3.245454545454545,
                "end_time": 3.3454545454545452,
                "pitch": 52,
                "velocity": 80,
                "duration": 0.10000000000000009,
                "tempo": 120.0
            },
            {
                "start_time": 3.3454545454545452,
                "end_time": 3.4454545454545453,
                "pitch": 59,
                "velocity": 80,
                "duration": 0.10000000000000009,
                "tempo": 120.0
            },
            {
                "start_time": 3.4454545454545453,
                "end_time": 3.5454545454545454,
                "pitch": 52,
                "velocity": 80,
                "duration": 0.10000000000000009,
                "tempo": 120.0
            },
            {
                "start_time": 3.5454545454545454,
                "end_time": 3.645454545454545,
                "pitch": 59,
                "velocity": 80,
                "duration": 0.09999999999999964,
                "tempo": 120.0
            },
            {
                "start_time": 3.645454545454545,
                "end_time": 3.8454545454545452,
                "pitch": 64,
                "velocity": 80,
                "duration": 0.20000000000000018,
                "tempo": 120.0
            },
            {
                "start_time": 3.8454545454545452,
                "end_time": 3.9454545454545453,
                "pitch": 52,
                "velocity": 80,
                "duration": 0.10000000000000009,
                "tempo": 120.0
            },
            {
                "start_time": 3.9454545454545453,
                "end_time": 4.045454545454545,
                "pitch": 59,
                "velocity": 80,
                "duration": 0.09999999999999964,
                "tempo": 120.0
            },
            {
                "start_time": 4.047727272727273,
                "end_time": 4.1454545454545455,
                "pitch": 52,
                "velocity": 80,
                "duration": 0.09772727272727266,
                "tempo": 120.0
            },
            {
                "start_time": 4.1477272727272725,
                "end_time": 4.247727272727272,
                "pitch": 59,
                "velocity": 80,
                "duration": 0.09999999999999964,
                "tempo": 120.0
            },
            {
                "start_time": 4.247727272727272,
                "end_time": 4.347727272727273,
                "pitch": 52,
                "velocity": 80,
                "duration": 0.10000000000000053,
                "tempo": 120.0
            },
            {
                "start_time": 4.347727272727273,
                "end_time": 4.45,
                "pitch": 59,
                "velocity": 80,
                "duration": 0.10227272727272751,
                "tempo": 120.0
            },
            {
                "start_time": 4.45,
                "end_time": 4.6499999999999995,
                "pitch": 64,
                "velocity": 80,
                "duration": 0.1999999999999993,
                "tempo": 120.0
            },
            {
                "start_time": 4.6499999999999995,
                "end_time": 4.75,
                "pitch": 52,
                "velocity": 80,
                "duration": 0.10000000000000053,
                "tempo": 120.0
            },
            {
                "start_time": 4.75,
                "end_time": 4.85,
                "pitch": 59,
                "velocity": 80,
                "duration": 0.09999999999999964,
                "tempo": 120.0
            },
            {
                "start_time": 4.85,
                "end_time": 4.95,
                "pitch": 52,
                "velocity": 80,
                "duration": 0.10000000000000053,
                "tempo": 120.0
            },
            {
                "start_time": 4.95,
                "end_time": 5.05,
                "pitch": 59,
                "velocity": 80,
                "duration": 0.09999999999999964,
                "tempo": 120.0
            },
            {
                "start_time": 5.052272727272727,
                "end_time": 5.152272727272727,
                "pitch": 52,
                "velocity": 80,
                "duration": 0.10000000000000053,
                "tempo": 120.0
            },
            {
                "start_time": 5.152272727272727,
                "end_time": 5.252272727272727,
                "pitch": 59,
                "velocity": 80,
                "duration": 0.09999999999999964,
                "tempo": 120.0
            },
            {
                "start_time": 5.254545454545454,
                "end_time": 5.454545454545454,
                "pitch": 64,
                "velocity": 80,
                "duration": 0.20000000000000018,
                "tempo": 120.0
            },
            {
                "start_time": 5.454545454545454,
                "end_time": 5.554545454545455,
                "pitch": 52,
                "velocity": 80,
                "duration": 0.10000000000000053,
                "tempo": 120.0
            },
            {
                "start_time": 5.556818181818182,
                "end_time": 5.656818181818181,
                "pitch": 59,
                "velocity": 80,
                "duration": 0.09999999999999964,
                "tempo": 120.0
            },
            {
                "start_time": 5.656818181818181,
                "end_time": 5.754545454545454,
                "pitch": 52,
                "velocity": 80,
                "duration": 0.09772727272727266,
                "tempo": 120.0
            },
            {
                "start_time": 5.756818181818182,
                "end_time": 5.8568181818181815,
                "pitch": 59,
                "velocity": 80,
                "duration": 0.09999999999999964,
                "tempo": 120.0
            },
            {
                "start_time": 5.8568181818181815,
                "end_time": 5.956818181818181,
                "pitch": 52,
                "velocity": 80,
                "duration": 0.09999999999999964,
                "tempo": 120.0
            },
            {
                "start_time": 5.956818181818181,
                "end_time": 6.056818181818182,
                "pitch": 59,
                "velocity": 80,
                "duration": 0.10000000000000053,
                "tempo": 120.0
            },
            {
                "start_time": 6.056818181818182,
                "end_time": 6.261363636363636,
                "pitch": 64,
                "velocity": 80,
                "duration": 0.20454545454545414,
                "tempo": 120.0
            },
            {
                "start_time": 6.263636363636364,
                "end_time": 6.363636363636363,
                "pitch": 52,
                "velocity": 80,
                "duration": 0.09999999999999964,
                "tempo": 120.0
            },
            {
                "start_time": 6.36590909090909,
                "end_time": 6.468181818181818,
                "pitch": 59,
                "velocity": 80,
                "duration": 0.10227272727272751,
                "tempo": 120.0
            },
            {
                "start_time": 6.468181818181818,
                "end_time": 6.5659090909090905,
                "pitch": 52,
                "velocity": 80,
                "duration": 0.09772727272727266,
                "tempo": 120.0
            },
            {
                "start_time": 6.5659090909090905,
                "end_time": 6.663636363636363,
                "pitch": 59,
                "velocity": 80,
                "duration": 0.09772727272727266,
                "tempo": 120.0
            },
            {
                "start_time": 6.663636363636363,
                "end_time": 6.761363636363636,
                "pitch": 52,
                "velocity": 80,
                "duration": 0.09772727272727266,
                "tempo": 120.0
            },
            {
                "start_time": 6.763636363636364,
                "end_time": 6.8590909090909085,
                "pitch": 59,
                "velocity": 80,
                "duration": 0.09545454545454479,
                "tempo": 120.0
            },
            {
                "start_time": 6.861363636363636,
                "end_time": 7.0659090909090905,
                "pitch": 64,
                "velocity": 80,
                "duration": 0.20454545454545414,
                "tempo": 120.0
            },
            {
                "start_time": 7.0659090909090905,
                "end_time": 7.168181818181818,
                "pitch": 52,
                "velocity": 80,
                "duration": 0.10227272727272751,
                "tempo": 120.0
            },
            {
                "start_time": 7.170454545454545,
                "end_time": 7.2704545454545455,
                "pitch": 59,
                "velocity": 80,
                "duration": 0.10000000000000053,
                "tempo": 120.0
            },
            {
                "start_time": 7.2727272727272725,
                "end_time": 7.368181818181818,
                "pitch": 52,
                "velocity": 80,
                "duration": 0.09545454545454568,
                "tempo": 120.0
            },
            {
                "start_time": 7.370454545454545,
                "end_time": 7.468181818181818,
                "pitch": 59,
                "velocity": 80,
                "duration": 0.09772727272727266,
                "tempo": 120.0
            },
            {
                "start_time": 7.468181818181818,
                "end_time": 7.5659090909090905,
                "pitch": 52,
                "velocity": 80,
                "duration": 0.09772727272727266,
                "tempo": 120.0
            },
            {
                "start_time": 7.5659090909090905,
                "end_time": 7.663636363636363,
                "pitch": 59,
                "velocity": 80,
                "duration": 0.09772727272727266,
                "tempo": 120.0
            },
            {
                "start_time": 7.663636363636363,
                "end_time": 7.868181818181818,
                "pitch": 64,
                "velocity": 80,
                "duration": 0.20454545454545503,
                "tempo": 120.0
            },
            {
                "start_time": 7.870454545454545,
                "end_time": 7.972727272727273,
                "pitch": 52,
                "velocity": 80,
                "duration": 0.10227272727272751,
                "tempo": 120.0
            },
            {
                "start_time": 7.972727272727273,
                "end_time": 8.075,
                "pitch": 59,
                "velocity": 80,
                "duration": 0.10227272727272663,
                "tempo": 120.0
            },
            {
                "start_time": 8.075,
                "end_time": 8.174999999999999,
                "pitch": 52,
                "velocity": 80,
                "duration": 0.09999999999999964,
                "tempo": 120.0
            },
            {
                "start_time": 8.174999999999999,
                "end_time": 8.275,
                "pitch": 59,
                "velocity": 80,
                "duration": 0.10000000000000142,
                "tempo": 120.0
            },
            {
                "start_time": 8.275,
                "end_time": 8.375,
                "pitch": 52,
                "velocity": 80,
                "duration": 0.09999999999999964,
                "tempo": 120.0
            },
            {
                "start_time": 8.377272727272727,
                "end_time": 8.475,
                "pitch": 59,
                "velocity": 80,
                "duration": 0.09772727272727266,
                "tempo": 120.0
            },
            {
                "start_time": 8.477272727272727,
                "end_time": 8.677272727272728,
                "pitch": 64,
                "velocity": 80,
                "duration": 0.20000000000000107,
                "tempo": 120.0
            },
            {
                "start_time": 8.677272727272728,
                "end_time": 8.777272727272727,
                "pitch": 52,
                "velocity": 80,
                "duration": 0.09999999999999964,
                "tempo": 120.0
            },
            {
                "start_time": 8.779545454545454,
                "end_time": 8.877272727272727,
                "pitch": 59,
                "velocity": 80,
                "duration": 0.09772727272727266,
                "tempo": 120.0
            },
            {
                "start_time": 8.879545454545454,
                "end_time": 8.977272727272727,
                "pitch": 52,
                "velocity": 80,
                "duration": 0.09772727272727266,
                "tempo": 120.0
            },
            {
                "start_time": 8.979545454545454,
                "end_time": 9.079545454545453,
                "pitch": 59,
                "velocity": 80,
                "duration": 0.09999999999999964,
                "tempo": 120.0
            },
            {
                "start_time": 9.081818181818182,
                "end_time": 9.181818181818182,
                "pitch": 52,
                "velocity": 80,
                "duration": 0.09999999999999964,
                "tempo": 120.0
            },
            {
                "start_time": 9.181818181818182,
                "end_time": 9.281818181818181,
                "pitch": 59,
                "velocity": 80,
                "duration": 0.09999999999999964,
                "tempo": 120.0
            },
            {
                "start_time": 9.284090909090908,
                "end_time": 9.48409090909091,
                "pitch": 64,
                "velocity": 80,
                "duration": 0.20000000000000107,
                "tempo": 120.0
            },
            {
                "start_time": 9.48409090909091,
                "end_time": 9.584090909090909,
                "pitch": 52,
                "velocity": 80,
                "duration": 0.09999999999999964,
                "tempo": 120.0
            },
            {
                "start_time": 9.586363636363636,
                "end_time": 9.686363636363636,
                "pitch": 59,
                "velocity": 80,
                "duration": 0.09999999999999964,
                "tempo": 120.0
            },
            {
                "start_time": 9.686363636363636,
                "end_time": 9.786363636363635,
                "pitch": 52,
                "velocity": 80,
                "duration": 0.09999999999999964,
                "tempo": 120.0
            },
            {
                "start_time": 9.786363636363635,
                "end_time": 9.886363636363637,
                "pitch": 59,
                "velocity": 80,
                "duration": 0.10000000000000142,
                "tempo": 120.0
            },
            {
                "start_time": 9.888636363636364,
                "end_time": 9.988636363636363,
                "pitch": 52,
                "velocity": 80,
                "duration": 0.09999999999999964,
                "tempo": 120.0
            },
            {
                "start_time": 9.988636363636363,
                "end_time": 10.088636363636363,
                "pitch": 59,
                "velocity": 80,
                "duration": 0.09999999999999964,
                "tempo": 120.0
            },
            {
                "start_time": 10.088636363636363,
                "end_time": 10.288636363636364,
                "pitch": 64,
                "velocity": 80,
                "duration": 0.20000000000000107,
                "tempo": 120.0
            },
            {
                "start_time": 10.288636363636364,
                "end_time": 10.388636363636364,
                "pitch": 52,
                "velocity": 80,
                "duration": 0.09999999999999964,
                "tempo": 120.0
            },
            {
                "start_time": 10.388636363636364,
                "end_time": 10.488636363636363,
                "pitch": 59,
                "velocity": 80,
                "duration": 0.09999999999999964,
                "tempo": 120.0
            },
            {
                "start_time": 10.49090909090909,
                "end_time": 10.588636363636363,
                "pitch": 52,
                "velocity": 80,
                "duration": 0.09772727272727266,
                "tempo": 120.0
            },
            {
                "start_time": 10.59090909090909,
                "end_time": 10.69090909090909,
                "pitch": 59,
                "velocity": 80,
                "duration": 0.09999999999999964,
                "tempo": 120.0
            },
            {
                "start_time": 10.69090909090909,
                "end_time": 10.790909090909091,
                "pitch": 52,
                "velocity": 80,
                "duration": 0.10000000000000142,
                "tempo": 120.0
            },
            {
                "start_time": 10.793181818181818,
                "end_time": 10.89090909090909,
                "pitch": 59,
                "velocity": 80,
                "duration": 0.09772727272727266,
                "tempo": 120.0
            },
            {
                "start_time": 10.893181818181818,
                "end_time": 11.093181818181817,
                "pitch": 64,
                "velocity": 80,
                "duration": 0.1999999999999993,
                "tempo": 120.0
            },
            {
                "start_time": 11.095454545454546,
                "end_time": 11.195454545454545,
                "pitch": 52,
                "velocity": 80,
                "duration": 0.09999999999999964,
                "tempo": 120.0
            },
            {
                "start_time": 11.195454545454545,
                "end_time": 11.295454545454545,
                "pitch": 59,
                "velocity": 80,
                "duration": 0.09999999999999964,
                "tempo": 120.0
            },
            {
                "start_time": 11.297727272727272,
                "end_time": 11.395454545454545,
                "pitch": 52,
                "velocity": 80,
                "duration": 0.09772727272727266,
                "tempo": 120.0
            },
            {
                "start_time": 11.397727272727272,
                "end_time": 11.497727272727273,
                "pitch": 59,
                "velocity": 80,
                "duration": 0.10000000000000142,
                "tempo": 120.0
            },
            {
                "start_time": 11.497727272727273,
                "end_time": 11.597727272727273,
                "pitch": 52,
                "velocity": 80,
                "duration": 0.09999999999999964,
                "tempo": 120.0
            },
            {
                "start_time": 11.597727272727273,
                "end_time": 11.697727272727272,
                "pitch": 59,
                "velocity": 80,
                "duration": 0.09999999999999964,
                "tempo": 120.0
            },
            {
                "start_time": 11.7,
                "end_time": 11.899999999999999,
                "pitch": 64,
                "velocity": 80,
                "duration": 0.1999999999999993,
                "tempo": 120.0
            },
            {
                "start_time": 11.902272727272727,
                "end_time": 12.0,
                "pitch": 52,
                "velocity": 80,
                "duration": 0.09772727272727266,
                "tempo": 120.0
            },
            {
                "start_time": 12.002272727272727,
                "end_time": 12.102272727272727,
                "pitch": 59,
                "velocity": 80,
                "duration": 0.09999999999999964,
                "tempo": 120.0
            },
            {
                "start_time": 12.102272727272727,
                "end_time": 12.202272727272726,
                "pitch": 52,
                "velocity": 80,
                "duration": 0.09999999999999964,
                "tempo": 120.0
            },
            {
                "start_time": 12.202272727272726,
                "end_time": 12.302272727272726,
                "pitch": 59,
                "velocity": 80,
                "duration": 0.09999999999999964,
                "tempo": 120.0
            },
            {
                "start_time": 12.302272727272726,
                "end_time": 12.402272727272727,
                "pitch": 52,
                "velocity": 80,
                "duration": 0.10000000000000142,
                "tempo": 120.0
            },
            {
                "start_time": 12.402272727272727,
                "end_time": 12.502272727272727,
                "pitch": 59,
                "velocity": 80,
                "duration": 0.09999999999999964,
                "tempo": 120.0
            },
            {
                "start_time": 12.504545454545454,
                "end_time": 12.704545454545453,
                "pitch": 64,
                "velocity": 80,
                "duration": 0.1999999999999993,
                "tempo": 120.0
            },
            {
                "start_time": 12.704545454545453,
                "end_time": 12.804545454545455,
                "pitch": 52,
                "velocity": 80,
                "duration": 0.10000000000000142,
                "tempo": 120.0
            },
            {
                "start_time": 12.804545454545455,
                "end_time": 12.906818181818181,
                "pitch": 59,
                "velocity": 80,
                "duration": 0.10227272727272663,
                "tempo": 120.0
            },
            {
                "start_time": 12.906818181818181,
                "end_time": 13.006818181818181,
                "pitch": 54,
                "velocity": 80,
                "duration": 0.09999999999999964,
                "tempo": 120.0
            },
            {
                "start_time": 13.006818181818181,
                "end_time": 13.10681818181818,
                "pitch": 61,
                "velocity": 80,
                "duration": 0.09999999999999964,
                "tempo": 120.0
            },
            {
                "start_time": 13.10681818181818,
                "end_time": 13.209090909090909,
                "pitch": 54,
                "velocity": 80,
                "duration": 0.1022727272727284,
                "tempo": 120.0
            },
            {
                "start_time": 13.209090909090909,
                "end_time": 13.309090909090909,
                "pitch": 61,
                "velocity": 80,
                "duration": 0.09999999999999964,
                "tempo": 120.0
            },
            {
                "start_time": 13.309090909090909,
                "end_time": 13.511363636363635,
                "pitch": 66,
                "velocity": 80,
                "duration": 0.20227272727272627,
                "tempo": 120.0
            },
            {
                "start_time": 13.511363636363635,
                "end_time": 13.611363636363636,
                "pitch": 54,
                "velocity": 80,
                "duration": 0.10000000000000142,
                "tempo": 120.0
            },
            {
                "start_time": 13.611363636363636,
                "end_time": 13.711363636363636,
                "pitch": 61,
                "velocity": 80,
                "duration": 0.09999999999999964,
                "tempo": 120.0
            },
            {
                "start_time": 13.713636363636363,
                "end_time": 13.811363636363636,
                "pitch": 54,
                "velocity": 80,
                "duration": 0.09772727272727266,
                "tempo": 120.0
            },
            {
                "start_time": 13.813636363636363,
                "end_time": 13.913636363636362,
                "pitch": 61,
                "velocity": 80,
                "duration": 0.09999999999999964,
                "tempo": 120.0
            },
            {
                "start_time": 13.913636363636362,
                "end_time": 14.013636363636364,
                "pitch": 54,
                "velocity": 80,
                "duration": 0.10000000000000142,
                "tempo": 120.0
            },
            {
                "start_time": 14.01590909090909,
                "end_time": 14.11590909090909,
                "pitch": 61,
                "velocity": 80,
                "duration": 0.09999999999999964,
                "tempo": 120.0
            },
            {
                "start_time": 14.11590909090909,
                "end_time": 14.320454545454545,
                "pitch": 66,
                "velocity": 80,
                "duration": 0.20454545454545503,
                "tempo": 120.0
            },
            {
                "start_time": 14.322727272727272,
                "end_time": 14.422727272727272,
                "pitch": 54,
                "velocity": 80,
                "duration": 0.09999999999999964,
                "tempo": 120.0
            },
            {
                "start_time": 14.424999999999999,
                "end_time": 14.527272727272727,
                "pitch": 61,
                "velocity": 80,
                "duration": 0.1022727272727284,
                "tempo": 120.0
            },
            {
                "start_time": 14.527272727272727,
                "end_time": 14.625,
                "pitch": 54,
                "velocity": 80,
                "duration": 0.09772727272727266,
                "tempo": 120.0
            },
            {
                "start_time": 14.625,
                "end_time": 14.722727272727273,
                "pitch": 61,
                "velocity": 80,
                "duration": 0.09772727272727266,
                "tempo": 120.0
            },
            {
                "start_time": 14.725,
                "end_time": 14.820454545454545,
                "pitch": 54,
                "velocity": 80,
                "duration": 0.09545454545454568,
                "tempo": 120.0
            },
            {
                "start_time": 14.820454545454545,
                "end_time": 14.918181818181818,
                "pitch": 61,
                "velocity": 80,
                "duration": 0.09772727272727266,
                "tempo": 120.0
            },
            {
                "start_time": 14.920454545454545,
                "end_time": 15.125,
                "pitch": 66,
                "velocity": 80,
                "duration": 0.20454545454545503,
                "tempo": 120.0
            },
            {
                "start_time": 15.125,
                "end_time": 15.225,
                "pitch": 54,
                "velocity": 80,
                "duration": 0.09999999999999964,
                "tempo": 120.0
            },
            {
                "start_time": 15.227272727272727,
                "end_time": 15.329545454545453,
                "pitch": 61,
                "velocity": 80,
                "duration": 0.10227272727272663,
                "tempo": 120.0
            },
            {
                "start_time": 15.33181818181818,
                "end_time": 15.431818181818182,
                "pitch": 54,
                "velocity": 80,
                "duration": 0.10000000000000142,
                "tempo": 120.0
            },
            {
                "start_time": 15.431818181818182,
                "end_time": 15.531818181818181,
                "pitch": 61,
                "velocity": 80,
                "duration": 0.09999999999999964,
                "tempo": 120.0
            },
            {
                "start_time": 15.534090909090908,
                "end_time": 15.631818181818181,
                "pitch": 54,
                "velocity": 80,
                "duration": 0.09772727272727266,
                "tempo": 120.0
            },
            {
                "start_time": 15.631818181818181,
                "end_time": 15.734090909090908,
                "pitch": 61,
                "velocity": 80,
                "duration": 0.10227272727272663,
                "tempo": 120.0
            },
            {
                "start_time": 15.734090909090908,
                "end_time": 15.936363636363636,
                "pitch": 66,
                "velocity": 80,
                "duration": 0.20227272727272805,
                "tempo": 120.0
            },
            {
                "start_time": 15.936363636363636,
                "end_time": 16.036363636363635,
                "pitch": 54,
                "velocity": 80,
                "duration": 0.09999999999999964,
                "tempo": 120.0
            },
            {
                "start_time": 16.036363636363635,
                "end_time": 16.136363636363637,
                "pitch": 61,
                "velocity": 80,
                "duration": 0.10000000000000142,
                "tempo": 120.0
            },
            {
                "start_time": 16.138636363636362,
                "end_time": 16.236363636363635,
                "pitch": 52,
                "velocity": 80,
                "duration": 0.09772727272727266,
                "tempo": 120.0
            },
            {
                "start_time": 16.238636363636363,
                "end_time": 16.33863636363636,
                "pitch": 59,
                "velocity": 80,
                "duration": 0.09999999999999787,
                "tempo": 120.0
            },
            {
                "start_time": 16.33863636363636,
                "end_time": 16.438636363636363,
                "pitch": 52,
                "velocity": 80,
                "duration": 0.10000000000000142,
                "tempo": 120.0
            },
            {
                "start_time": 16.44090909090909,
                "end_time": 16.54090909090909,
                "pitch": 59,
                "velocity": 80,
                "duration": 0.09999999999999787,
                "tempo": 120.0
            },
            {
                "start_time": 16.54090909090909,
                "end_time": 16.74090909090909,
                "pitch": 64,
                "velocity": 80,
                "duration": 0.1999999999999993,
                "tempo": 120.0
            },
            {
                "start_time": 16.74090909090909,
                "end_time": 16.84090909090909,
                "pitch": 52,
                "velocity": 80,
                "duration": 0.10000000000000142,
                "tempo": 120.0
            },
            {
                "start_time": 16.84090909090909,
                "end_time": 16.94090909090909,
                "pitch": 59,
                "velocity": 80,
                "duration": 0.10000000000000142,
                "tempo": 120.0
            },
            {
                "start_time": 16.94090909090909,
                "end_time": 17.04090909090909,
                "pitch": 52,
                "velocity": 80,
                "duration": 0.09999999999999787,
                "tempo": 120.0
            },
            {
                "start_time": 17.04090909090909,
                "end_time": 17.14090909090909,
                "pitch": 59,
                "velocity": 80,
                "duration": 0.10000000000000142,
                "tempo": 120.0
            },
            {
                "start_time": 17.143181818181816,
                "end_time": 17.243181818181817,
                "pitch": 52,
                "velocity": 80,
                "duration": 0.10000000000000142,
                "tempo": 120.0
            },
            {
                "start_time": 17.243181818181817,
                "end_time": 17.34318181818182,
                "pitch": 59,
                "velocity": 80,
                "duration": 0.10000000000000142,
                "tempo": 120.0
            },
            {
                "start_time": 17.345454545454544,
                "end_time": 17.543181818181818,
                "pitch": 64,
                "velocity": 80,
                "duration": 0.19772727272727408,
                "tempo": 120.0
            },
            {
                "start_time": 17.545454545454543,
                "end_time": 17.643181818181816,
                "pitch": 52,
                "velocity": 80,
                "duration": 0.09772727272727266,
                "tempo": 120.0
            },
            {
                "start_time": 17.645454545454545,
                "end_time": 17.745454545454546,
                "pitch": 59,
                "velocity": 80,
                "duration": 0.10000000000000142,
                "tempo": 120.0
            },
            {
                "start_time": 17.745454545454546,
                "end_time": 17.84318181818182,
                "pitch": 52,
                "velocity": 80,
                "duration": 0.09772727272727266,
                "tempo": 120.0
            },
            {
                "start_time": 17.845454545454544,
                "end_time": 17.943181818181817,
                "pitch": 59,
                "velocity": 80,
                "duration": 0.09772727272727266,
                "tempo": 120.0
            },
            {
                "start_time": 17.945454545454545,
                "end_time": 18.045454545454543,
                "pitch": 52,
                "velocity": 80,
                "duration": 0.09999999999999787,
                "tempo": 120.0
            },
            {
                "start_time": 18.045454545454543,
                "end_time": 18.145454545454545,
                "pitch": 59,
                "velocity": 80,
                "duration": 0.10000000000000142,
                "tempo": 120.0
            },
            {
                "start_time": 18.145454545454545,
                "end_time": 18.345454545454544,
                "pitch": 64,
                "velocity": 80,
                "duration": 0.1999999999999993,
                "tempo": 120.0
            },
            {
                "start_time": 18.347727272727273,
                "end_time": 18.44772727272727,
                "pitch": 52,
                "velocity": 80,
                "duration": 0.09999999999999787,
                "tempo": 120.0
            },
            {
                "start_time": 18.44772727272727,
                "end_time": 18.547727272727272,
                "pitch": 59,
                "velocity": 80,
                "duration": 0.10000000000000142,
                "tempo": 120.0
            },
            {
                "start_time": 18.55,
                "end_time": 18.647727272727273,
                "pitch": 52,
                "velocity": 80,
                "duration": 0.09772727272727266,
                "tempo": 120.0
            },
            {
                "start_time": 18.647727272727273,
                "end_time": 18.74772727272727,
                "pitch": 59,
                "velocity": 80,
                "duration": 0.09999999999999787,
                "tempo": 120.0
            },
            {
                "start_time": 18.75,
                "end_time": 18.847727272727273,
                "pitch": 52,
                "velocity": 80,
                "duration": 0.09772727272727266,
                "tempo": 120.0
            },
            {
                "start_time": 18.849999999999998,
                "end_time": 18.94772727272727,
                "pitch": 59,
                "velocity": 80,
                "duration": 0.09772727272727266,
                "tempo": 120.0
            },
            {
                "start_time": 18.95,
                "end_time": 19.15,
                "pitch": 64,
                "velocity": 80,
                "duration": 0.1999999999999993,
                "tempo": 120.0
            },
            {
                "start_time": 19.152272727272727,
                "end_time": 19.25,
                "pitch": 52,
                "velocity": 80,
                "duration": 0.09772727272727266,
                "tempo": 120.0
            },
            {
                "start_time": 19.252272727272725,
                "end_time": 19.352272727272727,
                "pitch": 59,
                "velocity": 80,
                "duration": 0.10000000000000142,
                "tempo": 120.0
            },
            {
                "start_time": 19.352272727272727,
                "end_time": 19.452272727272728,
                "pitch": 52,
                "velocity": 80,
                "duration": 0.10000000000000142,
                "tempo": 120.0
            },
            {
                "start_time": 19.452272727272728,
                "end_time": 19.552272727272726,
                "pitch": 59,
                "velocity": 80,
                "duration": 0.09999999999999787,
                "tempo": 120.0
            },
            {
                "start_time": 19.552272727272726,
                "end_time": 19.652272727272727,
                "pitch": 52,
                "velocity": 80,
                "duration": 0.10000000000000142,
                "tempo": 120.0
            },
            {
                "start_time": 19.652272727272727,
                "end_time": 19.752272727272725,
                "pitch": 59,
                "velocity": 80,
                "duration": 0.09999999999999787,
                "tempo": 120.0
            },
            {
                "start_time": 19.752272727272725,
                "end_time": 19.952272727272728,
                "pitch": 64,
                "velocity": 80,
                "duration": 0.20000000000000284,
                "tempo": 120.0
            },
            {
                "start_time": 19.954545454545453,
                "end_time": 20.052272727272726,
                "pitch": 52,
                "velocity": 80,
                "duration": 0.09772727272727266,
                "tempo": 120.0
            },
            {
                "start_time": 20.052272727272726,
                "end_time": 20.152272727272727,
                "pitch": 59,
                "velocity": 80,
                "duration": 0.10000000000000142,
                "tempo": 120.0
            },
            {
                "start_time": 20.154545454545453,
                "end_time": 20.252272727272725,
                "pitch": 52,
                "velocity": 80,
                "duration": 0.09772727272727266,
                "tempo": 120.0
            },
            {
                "start_time": 20.254545454545454,
                "end_time": 20.354545454545452,
                "pitch": 59,
                "velocity": 80,
                "duration": 0.09999999999999787,
                "tempo": 120.0
            },
            {
                "start_time": 20.354545454545452,
                "end_time": 20.454545454545453,
                "pitch": 52,
                "velocity": 80,
                "duration": 0.10000000000000142,
                "tempo": 120.0
            },
            {
                "start_time": 20.456818181818182,
                "end_time": 20.55681818181818,
                "pitch": 59,
                "velocity": 80,
                "duration": 0.09999999999999787,
                "tempo": 120.0
            },
            {
                "start_time": 20.55681818181818,
                "end_time": 20.75681818181818,
                "pitch": 64,
                "velocity": 80,
                "duration": 0.1999999999999993,
                "tempo": 120.0
            },
            {
                "start_time": 20.75681818181818,
                "end_time": 20.85681818181818,
                "pitch": 52,
                "velocity": 80,
                "duration": 0.10000000000000142,
                "tempo": 120.0
            },
            {
                "start_time": 20.85681818181818,
                "end_time": 20.956818181818182,
                "pitch": 59,
                "velocity": 80,
                "duration": 0.10000000000000142,
                "tempo": 120.0
            },
            {
                "start_time": 20.956818181818182,
                "end_time": 21.05681818181818,
                "pitch": 52,
                "velocity": 80,
                "duration": 0.09999999999999787,
                "tempo": 120.0
            },
            {
                "start_time": 21.05681818181818,
                "end_time": 21.15681818181818,
                "pitch": 59,
                "velocity": 80,
                "duration": 0.10000000000000142,
                "tempo": 120.0
            },
            {
                "start_time": 21.159090909090907,
                "end_time": 21.259090909090908,
                "pitch": 52,
                "velocity": 80,
                "duration": 0.10000000000000142,
                "tempo": 120.0
            },
            {
                "start_time": 21.259090909090908,
                "end_time": 21.35909090909091,
                "pitch": 59,
                "velocity": 80,
                "duration": 0.10000000000000142,
                "tempo": 120.0
            },
            {
                "start_time": 21.361363636363635,
                "end_time": 21.55909090909091,
                "pitch": 64,
                "velocity": 80,
                "duration": 0.19772727272727408,
                "tempo": 120.0
            },
            {
                "start_time": 21.561363636363634,
                "end_time": 21.659090909090907,
                "pitch": 52,
                "velocity": 80,
                "duration": 0.09772727272727266,
                "tempo": 120.0
            },
            {
                "start_time": 21.661363636363635,
                "end_time": 21.759090909090908,
                "pitch": 59,
                "velocity": 80,
                "duration": 0.09772727272727266,
                "tempo": 120.0
            },
            {
                "start_time": 21.759090909090908,
                "end_time": 21.85909090909091,
                "pitch": 52,
                "velocity": 80,
                "duration": 0.10000000000000142,
                "tempo": 120.0
            },
            {
                "start_time": 21.85909090909091,
                "end_time": 21.961363636363636,
                "pitch": 59,
                "velocity": 80,
                "duration": 0.10227272727272663,
                "tempo": 120.0
            },
            {
                "start_time": 21.961363636363636,
                "end_time": 22.061363636363634,
                "pitch": 52,
                "velocity": 80,
                "duration": 0.09999999999999787,
                "tempo": 120.0
            },
            {
                "start_time": 22.061363636363634,
                "end_time": 22.161363636363635,
                "pitch": 59,
                "velocity": 80,
                "duration": 0.10000000000000142,
                "tempo": 120.0
            },
            {
                "start_time": 22.161363636363635,
                "end_time": 22.36590909090909,
                "pitch": 64,
                "velocity": 80,
                "duration": 0.20454545454545325,
                "tempo": 120.0
            },
            {
                "start_time": 22.368181818181817,
                "end_time": 22.46818181818182,
                "pitch": 52,
                "velocity": 80,
                "duration": 0.10000000000000142,
                "tempo": 120.0
            },
            {
                "start_time": 22.470454545454544,
                "end_time": 22.57272727272727,
                "pitch": 59,
                "velocity": 80,
                "duration": 0.10227272727272663,
                "tempo": 120.0
            },
            {
                "start_time": 22.57272727272727,
                "end_time": 22.670454545454543,
                "pitch": 55,
                "velocity": 80,
                "duration": 0.09772727272727266,
                "tempo": 120.0
            },
            {
                "start_time": 22.670454545454543,
                "end_time": 22.768181818181816,
                "pitch": 62,
                "velocity": 80,
                "duration": 0.09772727272727266,
                "tempo": 120.0
            },
            {
                "start_time": 22.768181818181816,
                "end_time": 22.86590909090909,
                "pitch": 55,
                "velocity": 80,
                "duration": 0.09772727272727266,
                "tempo": 120.0
            },
            {
                "start_time": 22.86590909090909,
                "end_time": 22.96363636363636,
                "pitch": 62,
                "velocity": 80,
                "duration": 0.09772727272727266,
                "tempo": 120.0
            },
            {
                "start_time": 22.96590909090909,
                "end_time": 23.170454545454543,
                "pitch": 67,
                "velocity": 80,
                "duration": 0.20454545454545325,
                "tempo": 120.0
            },
            {
                "start_time": 23.170454545454543,
                "end_time": 23.272727272727273,
                "pitch": 55,
                "velocity": 80,
                "duration": 0.10227272727273018,
                "tempo": 120.0
            },
            {
                "start_time": 23.272727272727273,
                "end_time": 23.375,
                "pitch": 62,
                "velocity": 80,
                "duration": 0.10227272727272663,
                "tempo": 120.0
            },
            {
                "start_time": 23.377272727272725,
                "end_time": 23.474999999999998,
                "pitch": 55,
                "velocity": 80,
                "duration": 0.09772727272727266,
                "tempo": 120.0
            },
            {
                "start_time": 23.477272727272727,
                "end_time": 23.577272727272724,
                "pitch": 62,
                "velocity": 80,
                "duration": 0.09999999999999787,
                "tempo": 120.0
            },
            {
                "start_time": 23.577272727272724,
                "end_time": 23.677272727272726,
                "pitch": 55,
                "velocity": 80,
                "duration": 0.10000000000000142,
                "tempo": 120.0
            },
            {
                "start_time": 23.679545454545455,
                "end_time": 23.779545454545453,
                "pitch": 62,
                "velocity": 80,
                "duration": 0.09999999999999787,
                "tempo": 120.0
            },
            {
                "start_time": 23.779545454545453,
                "end_time": 23.979545454545452,
                "pitch": 67,
                "velocity": 80,
                "duration": 0.1999999999999993,
                "tempo": 120.0
            },
            {
                "start_time": 23.979545454545452,
                "end_time": 24.079545454545453,
                "pitch": 55,
                "velocity": 80,
                "duration": 0.10000000000000142,
                "tempo": 120.0
            },
            {
                "start_time": 24.079545454545453,
                "end_time": 24.179545454545455,
                "pitch": 62,
                "velocity": 80,
                "duration": 0.10000000000000142,
                "tempo": 120.0
            },
            {
                "start_time": 24.18181818181818,
                "end_time": 24.279545454545453,
                "pitch": 55,
                "velocity": 80,
                "duration": 0.09772727272727266,
                "tempo": 120.0
            },
            {
                "start_time": 24.279545454545453,
                "end_time": 24.379545454545454,
                "pitch": 62,
                "velocity": 80,
                "duration": 0.10000000000000142,
                "tempo": 120.0
            },
            {
                "start_time": 24.379545454545454,
                "end_time": 24.479545454545452,
                "pitch": 55,
                "velocity": 80,
                "duration": 0.09999999999999787,
                "tempo": 120.0
            },
            {
                "start_time": 24.479545454545452,
                "end_time": 24.579545454545453,
                "pitch": 62,
                "velocity": 80,
                "duration": 0.10000000000000142,
                "tempo": 120.0
            },
            {
                "start_time": 24.581818181818182,
                "end_time": 24.78181818181818,
                "pitch": 67,
                "velocity": 80,
                "duration": 0.1999999999999993,
                "tempo": 120.0
            },
            {
                "start_time": 24.78181818181818,
                "end_time": 24.88181818181818,
                "pitch": 55,
                "velocity": 80,
                "duration": 0.09999999999999787,
                "tempo": 120.0
            },
            {
                "start_time": 24.884090909090908,
                "end_time": 24.98409090909091,
                "pitch": 62,
                "velocity": 80,
                "duration": 0.10000000000000142,
                "tempo": 120.0
            },
            {
                "start_time": 24.98409090909091,
                "end_time": 25.084090909090907,
                "pitch": 55,
                "velocity": 80,
                "duration": 0.09999999999999787,
                "tempo": 120.0
            },
            {
                "start_time": 25.084090909090907,
                "end_time": 25.18409090909091,
                "pitch": 62,
                "velocity": 80,
                "duration": 0.10000000000000142,
                "tempo": 120.0
            },
            {
                "start_time": 25.18409090909091,
                "end_time": 25.284090909090907,
                "pitch": 55,
                "velocity": 80,
                "duration": 0.09999999999999787,
                "tempo": 120.0
            },
            {
                "start_time": 25.284090909090907,
                "end_time": 25.384090909090908,
                "pitch": 62,
                "velocity": 80,
                "duration": 0.10000000000000142,
                "tempo": 120.0
            },
            {
                "start_time": 25.384090909090908,
                "end_time": 25.586363636363636,
                "pitch": 67,
                "velocity": 80,
                "duration": 0.20227272727272805,
                "tempo": 120.0
            },
            {
                "start_time": 25.586363636363636,
                "end_time": 25.686363636363634,
                "pitch": 55,
                "velocity": 80,
                "duration": 0.09999999999999787,
                "tempo": 120.0
            },
            {
                "start_time": 25.686363636363634,
                "end_time": 25.788636363636364,
                "pitch": 62,
                "velocity": 80,
                "duration": 0.10227272727273018,
                "tempo": 120.0
            },
            {
                "start_time": 25.788636363636364,
                "end_time": 25.886363636363637,
                "pitch": 54,
                "velocity": 80,
                "duration": 0.09772727272727266,
                "tempo": 120.0
            },
            {
                "start_time": 25.888636363636362,
                "end_time": 25.986363636363635,
                "pitch": 61,
                "velocity": 80,
                "duration": 0.09772727272727266,
                "tempo": 120.0
            },
            {
                "start_time": 25.988636363636363,
                "end_time": 26.086363636363636,
                "pitch": 54,
                "velocity": 80,
                "duration": 0.09772727272727266,
                "tempo": 120.0
            },
            {
                "start_time": 26.08863636363636,
                "end_time": 26.186363636363634,
                "pitch": 61,
                "velocity": 80,
                "duration": 0.09772727272727266,
                "tempo": 120.0
            },
            {
                "start_time": 26.188636363636363,
                "end_time": 26.388636363636362,
                "pitch": 66,
                "velocity": 80,
                "duration": 0.1999999999999993,
                "tempo": 120.0
            },
            {
                "start_time": 26.388636363636362,
                "end_time": 26.488636363636363,
                "pitch": 54,
                "velocity": 80,
                "duration": 0.10000000000000142,
                "tempo": 120.0
            },
            {
                "start_time": 26.488636363636363,
                "end_time": 26.58863636363636,
                "pitch": 61,
                "velocity": 80,
                "duration": 0.09999999999999787,
                "tempo": 120.0
            },
            {
                "start_time": 26.58863636363636,
                "end_time": 26.688636363636363,
                "pitch": 54,
                "velocity": 80,
                "duration": 0.10000000000000142,
                "tempo": 120.0
            },
            {
                "start_time": 26.688636363636363,
                "end_time": 26.788636363636364,
                "pitch": 61,
                "velocity": 80,
                "duration": 0.10000000000000142,
                "tempo": 120.0
            },
            {
                "start_time": 26.79090909090909,
                "end_time": 26.89090909090909,
                "pitch": 54,
                "velocity": 80,
                "duration": 0.10000000000000142,
                "tempo": 120.0
            },
            {
                "start_time": 26.89090909090909,
                "end_time": 26.99090909090909,
                "pitch": 61,
                "velocity": 80,
                "duration": 0.09999999999999787,
                "tempo": 120.0
            },
            {
                "start_time": 26.99090909090909,
                "end_time": 27.19090909090909,
                "pitch": 66,
                "velocity": 80,
                "duration": 0.20000000000000284,
                "tempo": 120.0
            },
            {
                "start_time": 27.193181818181817,
                "end_time": 27.29090909090909,
                "pitch": 54,
                "velocity": 80,
                "duration": 0.09772727272727266,
                "tempo": 120.0
            },
            {
                "start_time": 27.293181818181818,
                "end_time": 27.39090909090909,
                "pitch": 61,
                "velocity": 80,
                "duration": 0.09772727272727266,
                "tempo": 120.0
            },
            {
                "start_time": 27.393181818181816,
                "end_time": 27.493181818181817,
                "pitch": 54,
                "velocity": 80,
                "duration": 0.10000000000000142,
                "tempo": 120.0
            },
            {
                "start_time": 27.493181818181817,
                "end_time": 27.593181818181815,
                "pitch": 61,
                "velocity": 80,
                "duration": 0.09999999999999787,
                "tempo": 120.0
            },
            {
                "start_time": 27.593181818181815,
                "end_time": 27.693181818181817,
                "pitch": 54,
                "velocity": 80,
                "duration": 0.10000000000000142,
                "tempo": 120.0
            },
            {
                "start_time": 27.695454545454545,
                "end_time": 27.795454545454543,
                "pitch": 61,
                "velocity": 80,
                "duration": 0.09999999999999787,
                "tempo": 120.0
            },
            {
                "start_time": 27.795454545454543,
                "end_time": 27.995454545454542,
                "pitch": 66,
                "velocity": 80,
                "duration": 0.1999999999999993,
                "tempo": 120.0
            },
            {
                "start_time": 27.995454545454542,
                "end_time": 28.095454545454544,
                "pitch": 54,
                "velocity": 80,
                "duration": 0.10000000000000142,
                "tempo": 120.0
            },
            {
                "start_time": 28.095454545454544,
                "end_time": 28.195454545454545,
                "pitch": 61,
                "velocity": 80,
                "duration": 0.10000000000000142,
                "tempo": 120.0
            },
            {
                "start_time": 28.195454545454545,
                "end_time": 28.295454545454543,
                "pitch": 54,
                "velocity": 80,
                "duration": 0.09999999999999787,
                "tempo": 120.0
            },
            {
                "start_time": 28.295454545454543,
                "end_time": 28.395454545454545,
                "pitch": 61,
                "velocity": 80,
                "duration": 0.10000000000000142,
                "tempo": 120.0
            },
            {
                "start_time": 28.395454545454545,
                "end_time": 28.495454545454542,
                "pitch": 54,
                "velocity": 80,
                "duration": 0.09999999999999787,
                "tempo": 120.0
            },
            {
                "start_time": 28.495454545454542,
                "end_time": 28.595454545454544,
                "pitch": 61,
                "velocity": 80,
                "duration": 0.10000000000000142,
                "tempo": 120.0
            },
            {
                "start_time": 28.597727272727273,
                "end_time": 28.797727272727272,
                "pitch": 66,
                "velocity": 80,
                "duration": 0.1999999999999993,
                "tempo": 120.0
            },
            {
                "start_time": 28.797727272727272,
                "end_time": 28.89772727272727,
                "pitch": 54,
                "velocity": 80,
                "duration": 0.09999999999999787,
                "tempo": 120.0
            },
            {
                "start_time": 28.9,
                "end_time": 28.99772727272727,
                "pitch": 61,
                "velocity": 80,
                "duration": 0.09772727272727266,
                "tempo": 120.0
            }
        ],
        "Lead 2 (sawtooth)": [
            {
                "start_time": 29.4,
                "end_time": 29.768181818181816,
                "pitch": 67,
                "velocity": 101,
                "duration": 0.3681818181818173,
                "tempo": 120.0
            },
            {
                "start_time": 29.768181818181816,
                "end_time": 29.802272727272726,
                "pitch": 67,
                "velocity": 101,
                "duration": 0.03409090909091006,
                "tempo": 120.0
            },
            {
                "start_time": 30.002272727272725,
                "end_time": 32.199999999999996,
                "pitch": 66,
                "velocity": 101,
                "duration": 2.1977272727272705,
                "tempo": 120.0
            },
            {
                "start_time": 32.61363636363636,
                "end_time": 32.945454545454545,
                "pitch": 67,
                "velocity": 101,
                "duration": 0.33181818181818556,
                "tempo": 120.0
            },
            {
                "start_time": 29.768181818181816,
                "end_time": 32.945454545454545,
                "pitch": 79,
                "velocity": 101,
                "duration": 3.1772727272727295,
                "tempo": 120.0
            },
            {
                "start_time": 32.945454545454545,
                "end_time": 32.97954545454545,
                "pitch": 67,
                "velocity": 101,
                "duration": 0.03409090909090651,
                "tempo": 120.0
            },
            {
                "start_time": 32.97954545454545,
                "end_time": 33.01136363636363,
                "pitch": 67,
                "velocity": 101,
                "duration": 0.0318181818181813,
                "tempo": 120.0
            },
            {
                "start_time": 33.21363636363636,
                "end_time": 33.61818181818182,
                "pitch": 66,
                "velocity": 101,
                "duration": 0.4045454545454561,
                "tempo": 120.0
            },
            {
                "start_time": 33.824999999999996,
                "end_time": 34.22272727272727,
                "pitch": 62,
                "velocity": 101,
                "duration": 0.3977272727272734,
                "tempo": 120.0
            },
            {
                "start_time": 34.425,
                "end_time": 35.22272727272727,
                "pitch": 64,
                "velocity": 101,
                "duration": 0.797727272727272,
                "tempo": 120.0
            },
            {
                "start_time": 35.83409090909091,
                "end_time": 36.15,
                "pitch": 67,
                "velocity": 101,
                "duration": 0.3159090909090878,
                "tempo": 120.0
            },
            {
                "start_time": 32.945454545454545,
                "end_time": 36.15,
                "pitch": 79,
                "velocity": 101,
                "duration": 3.2045454545454533,
                "tempo": 120.0
            },
            {
                "start_time": 32.97954545454545,
                "end_time": 36.16590909090909,
                "pitch": 55,
                "velocity": 101,
                "duration": 3.1863636363636374,
                "tempo": 120.0
            },
            {
                "start_time": 36.15,
                "end_time": 36.16590909090909,
                "pitch": 67,
                "velocity": 101,
                "duration": 0.01590909090909065,
                "tempo": 120.0
            },
            {
                "start_time": 36.16590909090909,
                "end_time": 36.23181818181818,
                "pitch": 67,
                "velocity": 101,
                "duration": 0.06590909090908781,
                "tempo": 120.0
            },
            {
                "start_time": 36.434090909090905,
                "end_time": 38.64090909090909,
                "pitch": 66,
                "velocity": 101,
                "duration": 2.2068181818181856,
                "tempo": 120.0
            },
            {
                "start_time": 39.043181818181814,
                "end_time": 39.44090909090909,
                "pitch": 67,
                "velocity": 101,
                "duration": 0.3977272727272734,
                "tempo": 120.0
            },
            {
                "start_time": 39.64545454545454,
                "end_time": 40.04545454545455,
                "pitch": 66,
                "velocity": 101,
                "duration": 0.4000000000000057,
                "tempo": 120.0
            },
            {
                "start_time": 40.24772727272727,
                "end_time": 40.65681818181818,
                "pitch": 69,
                "velocity": 101,
                "duration": 0.4090909090909136,
                "tempo": 120.0
            },
            {
                "start_time": 40.85454545454545,
                "end_time": 41.05,
                "pitch": 64,
                "velocity": 101,
                "duration": 0.19545454545454533,
                "tempo": 120.0
            }
        ]
    }
}