{
    "track_id": "10 Demo 1",
    "mood": "happy",
    "instruments": {
        "Lead 2 (sawtooth)": [
            {
                "start_time": 62.675,
                "end_time": 62.85681818181818,
                "pitch": 79,
                "velocity": 101,
                "duration": 0.18181818181817988,
                "tempo": 120.0
            },
            {
                "start_time": 62.85681818181818,
                "end_time": 63.04090909090909,
                "pitch": 74,
                "velocity": 101,
                "duration": 0.1840909090909122,
                "tempo": 120.0
            },
            {
                "start_time": 63.04090909090909,
                "end_time": 63.224999999999994,
                "pitch": 81,
                "velocity": 101,
                "duration": 0.18409090909090509,
                "tempo": 120.0
            },
            {
                "start_time": 63.224999999999994,
                "end_time": 63.425,
                "pitch": 74,
                "velocity": 101,
                "duration": 0.20000000000000284,
                "tempo": 120.0
            },
            {
                "start_time": 63.425,
                "end_time": 63.61363636363636,
                "pitch": 83,
                "velocity": 101,
                "duration": 0.1886363636363626,
                "tempo": 120.0
            },
            {
                "start_time": 63.61363636363636,
                "end_time": 63.804545454545455,
                "pitch": 74,
                "velocity": 101,
                "duration": 0.19090909090909491,
                "tempo": 120.0
            },
            {
                "start_time": 63.804545454545455,
                "end_time": 63.98863636363636,
                "pitch": 79,
                "velocity": 101,
                "duration": 0.18409090909090509,
                "tempo": 120.0
            },
            {
                "start_time": 63.98863636363636,
                "end_time": 64.18863636363636,
                "pitch": 74,
                "velocity": 101,
                "duration": 0.20000000000000284,
                "tempo": 120.0
            },
            {
                "start_time": 64.18863636363636,
                "end_time": 64.38181818181818,
                "pitch": 76,
                "velocity": 101,
                "duration": 0.19318181818181301,
                "tempo": 120.0
            },
            {
                "start_time": 64.38181818181818,
                "end_time": 64.57727272727273,
                "pitch": 71,
                "velocity": 101,
                "duration": 0.19545454545455243,
                "tempo": 120.0
            },
            {
                "start_time": 64.57727272727273,
                "end_time": 64.76136363636364,
                "pitch": 78,
                "velocity": 101,
                "duration": 0.1840909090909122,
                "tempo": 120.0
            },
            {
                "start_time": 64.76136363636364,
                "end_time": 64.96136363636363,
                "pitch": 71,
                "velocity": 101,
                "duration": 0.19999999999998863,
                "tempo": 120.0
            },
            {
                "start_time": 64.96136363636363,
                "end_time": 65.14999999999999,
                "pitch": 79,
                "velocity": 101,
                "duration": 0.1886363636363626,
                "tempo": 120.0
            },
            {
                "start_time": 65.14999999999999,
                "end_time": 65.3409090909091,
                "pitch": 71,
                "velocity": 101,
                "duration": 0.19090909090910202,
                "tempo": 120.0
            },
            {
                "start_time": 65.3409090909091,
                "end_time": 65.52499999999999,
                "pitch": 76,
                "velocity": 101,
                "duration": 0.18409090909089798,
                "tempo": 120.0
            },
            {
                "start_time": 65.52499999999999,
                "end_time": 65.72727272727272,
                "pitch": 71,
                "velocity": 101,
                "duration": 0.20227272727272805,
                "tempo": 120.0
            },
            {
                "start_time": 65.72727272727272,
                "end_time": 65.91363636363636,
                "pitch": 72,
                "velocity": 101,
                "duration": 0.1863636363636374,
                "tempo": 120.0
            },
            {
                "start_time": 65.91363636363636,
                "end_time": 66.10454545454544,
                "pitch": 67,
                "velocity": 101,
                "duration": 0.1909090909090878,
                "tempo": 120.0
            },
            {
                "start_time": 66.10454545454544,
                "end_time": 66.28863636363636,
                "pitch": 74,
                "velocity": 101,
                "duration": 0.1840909090909122,
                "tempo": 120.0
            },
            {
                "start_time": 66.28863636363636,
                "end_time": 66.48863636363636,
                "pitch": 67,
                "velocity": 101,
                "duration": 0.20000000000000284,
                "tempo": 120.0
            },
            {
                "start_time": 66.48863636363636,
                "end_time": 66.67727272727272,
                "pitch": 76,
                "velocity": 101,
                "duration": 0.1886363636363626,
                "tempo": 120.0
            },
            {
                "start_time": 66.67727272727272,
                "end_time": 66.86818181818181,
                "pitch": 67,
                "velocity": 101,
                "duration": 0.1909090909090878,
                "tempo": 120.0
            },
            {
                "start_time": 66.86818181818181,
                "end_time": 67.05227272727272,
                "pitch": 72,
                "velocity": 101,
                "duration": 0.1840909090909122,
                "tempo": 120.0
            },
            {
                "start_time": 67.05227272727272,
                "end_time": 67.25227272727273,
                "pitch": 67,
                "velocity": 101,
                "duration": 0.20000000000000284,
                "tempo": 120.0
            },
            {
                "start_time": 67.25227272727273,
                "end_time": 67.44090909090909,
                "pitch": 71,
                "velocity": 101,
                "duration": 0.1886363636363626,
                "tempo": 120.0
            },
            {
                "start_time": 67.44090909090909,
                "end_time": 67.63181818181818,
                "pitch": 62,
                "velocity": 101,
                "duration": 0.1909090909090878,
                "tempo": 120.0
            },
            {
                "start_time": 67.63181818181818,
                "end_time": 67.81363636363636,
                "pitch": 69,
                "velocity": 101,
                "duration": 0.18181818181818699,
                "tempo": 120.0
            },
            {
                "start_time": 67.81590909090909,
                "end_time": 68.01590909090909,
                "pitch": 62,
                "velocity": 101,
                "duration": 0.20000000000000284,
                "tempo": 120.0
            },
            {
                "start_time": 68.01590909090909,
                "end_time": 68.20454545454545,
                "pitch": 67,
                "velocity": 101,
                "duration": 0.1886363636363626,
                "tempo": 120.0
            },
            {
                "start_time": 68.20454545454545,
                "end_time": 68.39545454545454,
                "pitch": 62,
                "velocity": 101,
                "duration": 0.1909090909090878,
                "tempo": 120.0
            },
            {
                "start_time": 68.39545454545454,
                "end_time": 68.57727272727273,
                "pitch": 66,
                "velocity": 101,
                "duration": 0.18181818181818699,
                "tempo": 120.0
            },
            {
                "start_time": 68.57727272727273,
                "end_time": 68.77954545454546,
                "pitch": 62,
                "velocity": 101,
                "duration": 0.20227272727272805,
                "tempo": 120.0
            },
            {
                "start_time": 68.77954545454546,
                "end_time": 68.96818181818182,
                "pitch": 79,
                "velocity": 101,
                "duration": 0.1886363636363626,
                "tempo": 120.0
            },
            {
                "start_time": 68.96818181818182,
                "end_time": 69.1590909090909,
                "pitch": 74,
                "velocity": 101,
                "duration": 0.1909090909090878,
                "tempo": 120.0
            },
            {
                "start_time": 69.1590909090909,
                "end_time": 69.3409090909091,
                "pitch": 81,
                "velocity": 101,
                "duration": 0.18181818181818699,
                "tempo": 120.0
            },
            {
                "start_time": 69.3409090909091,
                "end_time": 69.54318181818182,
                "pitch": 74,
                "velocity": 101,
                "duration": 0.20227272727272805,
                "tempo": 120.0
            },
            {
                "start_time": 69.54318181818182,
                "end_time": 69.73181818181818,
                "pitch": 83,
                "velocity": 101,
                "duration": 0.1886363636363626,
                "tempo": 120.0
            },
            {
                "start_time": 69.73181818181818,
                "end_time": 69.92272727272727,
                "pitch": 74,
                "velocity": 101,
                "duration": 0.1909090909090878,
                "tempo": 120.0
            },
            {
                "start_time": 69.92272727272727,
                "end_time": 70.10454545454544,
                "pitch": 79,
                "velocity": 101,
                "duration": 0.18181818181817277,
                "tempo": 120.0
            },
            {
                "start_time": 70.10454545454544,
                "end_time": 70.30681818181817,
                "pitch": 74,
                "velocity": 101,
                "duration": 0.20227272727272805,
                "tempo": 120.0
            },
            {
                "start_time": 70.30681818181817,
                "end_time": 70.5,
                "pitch": 76,
                "velocity": 101,
                "duration": 0.19318181818182723,
                "tempo": 120.0
            },
            {
                "start_time": 70.5,
                "end_time": 70.69545454545454,
                "pitch": 71,
                "velocity": 101,
                "duration": 0.19545454545453822,
                "tempo": 120.0
            },
            {
                "start_time": 70.69545454545454,
                "end_time": 70.87727272727273,
                "pitch": 78,
                "velocity": 101,
                "duration": 0.18181818181818699,
                "tempo": 120.0
            },
            {
                "start_time": 70.87954545454545,
                "end_time": 71.07954545454545,
                "pitch": 71,
                "velocity": 101,
                "duration": 0.20000000000000284,
                "tempo": 120.0
            },
            {
                "start_time": 71.07954545454545,
                "end_time": 71.26818181818182,
                "pitch": 79,
                "velocity": 101,
                "duration": 0.1886363636363626,
                "tempo": 120.0
            },
            {
                "start_time": 71.26818181818182,
                "end_time": 71.4590909090909,
                "pitch": 71,
                "velocity": 101,
                "duration": 0.1909090909090878,
                "tempo": 120.0
            },
            {
                "start_time": 71.4590909090909,
                "end_time": 71.64318181818182,
                "pitch": 76,
                "velocity": 101,
                "duration": 0.1840909090909122,
                "tempo": 120.0
            },
            {
                "start_time": 71.64318181818182,
                "end_time": 71.84318181818182,
                "pitch": 71,
                "velocity": 101,
                "duration": 0.20000000000000284,
                "tempo": 120.0
            },
            {
                "start_time": 71.84318181818182,
                "end_time": 72.03181818181818,
                "pitch": 72,
                "velocity": 101,
                "duration": 0.1886363636363626,
                "tempo": 120.0
            },
            {
                "start_time": 72.03181818181818,
                "end_time": 72.22272727272727,
                "pitch": 67,
                "velocity": 101,
                "duration": 0.1909090909090878,
                "tempo": 120.0
            },
            {
                "start_time": 72.22272727272727,
                "end_time": 72.40681818181818,
                "pitch": 74,
                "velocity": 101,
                "duration": 0.1840909090909122,
                "tempo": 120.0
            },
            {
                "start_time": 72.40681818181818,
                "end_time": 72.60681818181818,
                "pitch": 67,
                "velocity": 101,
                "duration": 0.20000000000000284,
                "tempo": 120.0
            },
            {
                "start_time": 72.60681818181818,
                "end_time": 72.79545454545455,
                "pitch": 76,
                "velocity": 101,
                "duration": 0.1886363636363626,
                "tempo": 120.0
            },
            {
                "start_time": 72.79545454545455,
                "end_time": 72.98636363636363,
                "pitch": 67,
                "velocity": 101,
                "duration": 0.1909090909090878,
                "tempo": 120.0
            },
            {
                "start_time": 72.98636363636363,
                "end_time": 73.16818181818182,
                "pitch": 72,
                "velocity": 101,
                "duration": 0.18181818181818699,
                "tempo": 120.0
            },
            {
                "start_time": 73.16818181818182,
                "end_time": 73.37045454545454,
                "pitch": 67,
                "velocity": 101,
                "duration": 0.20227272727271384,
                "tempo": 120.0
            },
            {
                "start_time": 73.37045454545454,
                "end_time": 73.55909090909091,
                "pitch": 71,
                "velocity": 101,
                "duration": 0.1886363636363768,
                "tempo": 120.0
            },
            {
                "start_time": 73.55909090909091,
                "end_time": 73.74772727272727,
                "pitch": 62,
                "velocity": 101,
                "duration": 0.1886363636363626,
                "tempo": 120.0
            },
            {
                "start_time": 73.75,
                "end_time": 73.93181818181817,
                "pitch": 69,
                "velocity": 101,
                "duration": 0.18181818181817277,
                "tempo": 120.0
            },
            {
                "start_time": 73.93181818181817,
                "end_time": 74.1340909090909,
                "pitch": 62,
                "velocity": 101,
                "duration": 0.20227272727272805,
                "tempo": 120.0
            },
            {
                "start_time": 74.1340909090909,
                "end_time": 74.32272727272726,
                "pitch": 67,
                "velocity": 101,
                "duration": 0.1886363636363626,
                "tempo": 120.0
            },
            {
                "start_time": 74.32272727272726,
                "end_time": 74.51363636363637,
                "pitch": 62,
                "velocity": 101,
                "duration": 0.19090909090910202,
                "tempo": 120.0
            },
            {
                "start_time": 74.51363636363637,
                "end_time": 74.69545454545454,
                "pitch": 66,
                "velocity": 101,
                "duration": 0.18181818181817277,
                "tempo": 120.0
            },
            {
                "start_time": 74.69545454545454,
                "end_time": 74.89772727272727,
                "pitch": 62,
                "velocity": 101,
                "duration": 0.20227272727272805,
                "tempo": 120.0
            }
        ],
        "Trumpet": [
            {
                "start_time": 25.96590909090909,
                "end_time": 27.493181818181817,
                "pitch": 28,
                "velocity": 80,
                "duration": 1.5272727272727273,
                "tempo": 120.0
            },
            {
                "start_time": 27.493181818181817,
                "end_time": 29.029545454545453,
                "pitch": 27,
                "velocity": 80,
                "duration": 1.5363636363636353,
                "tempo": 120.0
            },
            {
                "start_time": 29.029545454545453,
                "end_time": 30.55681818181818,
                "pitch": 28,
                "velocity": 80,
                "duration": 1.5272727272727273,
                "tempo": 120.0
            },
            {
                "start_time": 30.55681818181818,
                "end_time": 32.08409090909091,
                "pitch": 24,
                "velocity": 80,
                "duration": 1.527272727272731,
                "tempo": 120.0
            },
            {
                "start_time": 32.08409090909091,
                "end_time": 33.60909090909091,
                "pitch": 28,
                "velocity": 80,
                "duration": 1.5249999999999986,
                "tempo": 120.0
            },
            {
                "start_time": 33.611363636363635,
                "end_time": 35.13636363636363,
                "pitch": 27,
                "velocity": 80,
                "duration": 1.5249999999999986,
                "tempo": 120.0
            },
            {
                "start_time": 35.13636363636363,
                "end_time": 36.67272727272727,
                "pitch": 28,
                "velocity": 80,
                "duration": 1.5363636363636388,
                "tempo": 120.0
            },
            {
                "start_time": 36.675,
                "end_time": 38.199999999999996,
                "pitch": 24,
                "velocity": 80,
                "duration": 1.5249999999999986,
                "tempo": 120.0
            }
        ],
        "Electric Piano 1": [
            {
                "start_time": 6.088636363636363,
                "end_time": 6.284090909090909,
                "pitch": 28,
                "velocity": 80,
                "duration": 0.1954545454545462,
                "tempo": 120.0
            },
            {
                "start_time": 6.284090909090909,
                "end_time": 6.477272727272727,
                "pitch": 28,
                "velocity": 80,
                "duration": 0.19318181818181746,
                "tempo": 120.0
            },
            {
                "start_time": 6.477272727272727,
                "end_time": 6.661363636363636,
                "pitch": 40,
                "velocity": 80,
                "duration": 0.18409090909090953,
                "tempo": 120.0
            },
            {
                "start_time": 6.661363636363636,
                "end_time": 6.861363636363636,
                "pitch": 28,
                "velocity": 80,
                "duration": 0.20000000000000018,
                "tempo": 120.0
            },
            {
                "start_time": 6.861363636363636,
                "end_time": 7.052272727272727,
                "pitch": 28,
                "velocity": 80,
                "duration": 0.19090909090909047,
                "tempo": 120.0
            },
            {
                "start_time": 7.052272727272727,
                "end_time": 7.138636363636364,
                "pitch": 28,
                "velocity": 80,
                "duration": 0.08636363636363686,
                "tempo": 120.0
            },
            {
                "start_time": 7.138636363636364,
                "end_time": 7.24090909090909,
                "pitch": 28,
                "velocity": 80,
                "duration": 0.10227272727272663,
                "tempo": 120.0
            },
            {
                "start_time": 7.24090909090909,
                "end_time": 7.340909090909091,
                "pitch": 40,
                "velocity": 80,
                "duration": 0.10000000000000053,
                "tempo": 120.0
            },
            {
                "start_time": 7.340909090909091,
                "end_time": 7.5249999999999995,
                "pitch": 28,
                "velocity": 80,
                "duration": 0.18409090909090864,
                "tempo": 120.0
            },
            {
                "start_time": 7.5249999999999995,
                "end_time": 7.625,
                "pitch": 28,
                "velocity": 80,
                "duration": 0.10000000000000053,
                "tempo": 120.0
            },
            {
                "start_time": 7.625,
                "end_time": 7.8159090909090905,
                "pitch": 26,
                "velocity": 80,
                "duration": 0.19090909090909047,
                "tempo": 120.0
            },
            {
                "start_time": 7.8159090909090905,
                "end_time": 8.004545454545454,
                "pitch": 26,
                "velocity": 80,
                "duration": 0.1886363636363635,
                "tempo": 120.0
            },
            {
                "start_time": 8.004545454545454,
                "end_time": 8.188636363636363,
                "pitch": 38,
                "velocity": 80,
                "duration": 0.18409090909090864,
                "tempo": 120.0
            },
            {
                "start_time": 8.188636363636363,
                "end_time": 8.388636363636364,
                "pitch": 26,
                "velocity": 80,
                "duration": 0.20000000000000107,
                "tempo": 120.0
            },
            {
                "start_time": 8.388636363636364,
                "end_time": 8.579545454545453,
                "pitch": 26,
                "velocity": 80,
                "duration": 0.19090909090908958,
                "tempo": 120.0
            },
            {
                "start_time": 8.579545454545453,
                "end_time": 8.663636363636364,
                "pitch": 26,
                "velocity": 80,
                "duration": 0.08409090909091077,
                "tempo": 120.0
            },
            {
                "start_time": 8.665909090909091,
                "end_time": 8.768181818181818,
                "pitch": 26,
                "velocity": 80,
                "duration": 0.10227272727272663,
                "tempo": 120.0
            },
            {
                "start_time": 8.768181818181818,
                "end_time": 8.868181818181817,
                "pitch": 38,
                "velocity": 80,
                "duration": 0.09999999999999964,
                "tempo": 120.0
            },
            {
                "start_time": 8.868181818181817,
                "end_time": 9.052272727272728,
                "pitch": 26,
                "velocity": 80,
                "duration": 0.18409090909091042,
                "tempo": 120.0
            },
            {
                "start_time": 9.052272727272728,
                "end_time": 9.152272727272727,
                "pitch": 26,
                "velocity": 80,
                "duration": 0.09999999999999964,
                "tempo": 120.0
            },
            {
                "start_time": 9.152272727272727,
                "end_time": 9.34090909090909,
                "pitch": 24,
                "velocity": 80,
                "duration": 0.1886363636363626,
                "tempo": 120.0
            },
            {
                "start_time": 9.343181818181817,
                "end_time": 9.531818181818181,
                "pitch": 24,
                "velocity": 80,
                "duration": 0.18863636363636438,
                "tempo": 120.0
            },
            {
                "start_time": 9.531818181818181,
                "end_time": 9.71590909090909,
                "pitch": 36,
                "velocity": 80,
                "duration": 0.18409090909090864,
                "tempo": 120.0
            },
            {
                "start_time": 9.71590909090909,
                "end_time": 9.915909090909091,
                "pitch": 24,
                "velocity": 80,
                "duration": 0.20000000000000107,
                "tempo": 120.0
            },
            {
                "start_time": 9.915909090909091,
                "end_time": 10.10909090909091,
                "pitch": 24,
                "velocity": 80,
                "duration": 0.19318181818181834,
                "tempo": 120.0
            },
            {
                "start_time": 10.10909090909091,
                "end_time": 10.197727272727272,
                "pitch": 24,
                "velocity": 80,
                "duration": 0.08863636363636296,
                "tempo": 120.0
            },
            {
                "start_time": 10.197727272727272,
                "end_time": 10.304545454545455,
                "pitch": 24,
                "velocity": 80,
                "duration": 0.10681818181818237,
                "tempo": 120.0
            },
            {
                "start_time": 10.304545454545455,
                "end_time": 10.404545454545454,
                "pitch": 36,
                "velocity": 80,
                "duration": 0.09999999999999964,
                "tempo": 120.0
            },
            {
                "start_time": 10.404545454545454,
                "end_time": 10.588636363636363,
                "pitch": 24,
                "velocity": 80,
                "duration": 0.18409090909090864,
                "tempo": 120.0
            },
            {
                "start_time": 10.588636363636363,
                "end_time": 10.688636363636363,
                "pitch": 24,
                "velocity": 80,
                "duration": 0.09999999999999964,
                "tempo": 120.0
            },
            {
                "start_time": 10.688636363636363,
                "end_time": 10.879545454545454,
                "pitch": 21,
                "velocity": 80,
                "duration": 0.19090909090909136,
                "tempo": 120.0
            },
            {
                "start_time": 10.879545454545454,
                "end_time": 11.068181818181818,
                "pitch": 21,
                "velocity": 80,
                "duration": 0.18863636363636438,
                "tempo": 120.0
            },
            {
                "start_time": 11.068181818181818,
                "end_time": 11.252272727272727,
                "pitch": 33,
                "velocity": 80,
                "duration": 0.18409090909090864,
                "tempo": 120.0
            },
            {
                "start_time": 11.252272727272727,
                "end_time": 11.452272727272726,
                "pitch": 21,
                "velocity": 80,
                "duration": 0.1999999999999993,
                "tempo": 120.0
            },
            {
                "start_time": 11.452272727272726,
                "end_time": 11.643181818181818,
                "pitch": 23,
                "velocity": 80,
                "duration": 0.19090909090909136,
                "tempo": 120.0
            },
            {
                "start_time": 11.643181818181818,
                "end_time": 11.831818181818182,
                "pitch": 35,
                "velocity": 80,
                "duration": 0.18863636363636438,
                "tempo": 120.0
            },
            {
                "start_time": 11.831818181818182,
                "end_time": 12.01590909090909,
                "pitch": 26,
                "velocity": 80,
                "duration": 0.18409090909090864,
                "tempo": 120.0
            },
            {
                "start_time": 12.01590909090909,
                "end_time": 12.21590909090909,
                "pitch": 27,
                "velocity": 80,
                "duration": 0.1999999999999993,
                "tempo": 120.0
            },
            {
                "start_time": 18.325,
                "end_time": 18.513636363636362,
                "pitch": 28,
                "velocity": 80,
                "duration": 0.1886363636363626,
                "tempo": 120.0
            },
            {
                "start_time": 18.513636363636362,
                "end_time": 18.702272727272728,
                "pitch": 28,
                "velocity": 80,
                "duration": 0.18863636363636616,
                "tempo": 120.0
            },
            {
                "start_time": 18.702272727272728,
                "end_time": 18.886363636363637,
                "pitch": 40,
                "velocity": 80,
                "duration": 0.18409090909090864,
                "tempo": 120.0
            },
            {
                "start_time": 18.886363636363637,
                "end_time": 19.086363636363636,
                "pitch": 28,
                "velocity": 80,
                "duration": 0.1999999999999993,
                "tempo": 120.0
            },
            {
                "start_time": 19.086363636363636,
                "end_time": 19.28181818181818,
                "pitch": 28,
                "velocity": 80,
                "duration": 0.19545454545454533,
                "tempo": 120.0
            },
            {
                "start_time": 19.28181818181818,
                "end_time": 19.370454545454546,
                "pitch": 28,
                "velocity": 80,
                "duration": 0.08863636363636473,
                "tempo": 120.0
            },
            {
                "start_time": 19.370454545454546,
                "end_time": 19.474999999999998,
                "pitch": 28,
                "velocity": 80,
                "duration": 0.10454545454545183,
                "tempo": 120.0
            },
            {
                "start_time": 19.474999999999998,
                "end_time": 19.577272727272728,
                "pitch": 40,
                "velocity": 80,
                "duration": 0.10227272727273018,
                "tempo": 120.0
            },
            {
                "start_time": 19.577272727272728,
                "end_time": 19.759090909090908,
                "pitch": 28,
                "velocity": 80,
                "duration": 0.18181818181817988,
                "tempo": 120.0
            },
            {
                "start_time": 19.761363636363637,
                "end_time": 19.861363636363635,
                "pitch": 28,
                "velocity": 80,
                "duration": 0.09999999999999787,
                "tempo": 120.0
            },
            {
                "start_time": 19.861363636363635,
                "end_time": 20.05,
                "pitch": 26,
                "velocity": 80,
                "duration": 0.18863636363636616,
                "tempo": 120.0
            },
            {
                "start_time": 20.05,
                "end_time": 20.238636363636363,
                "pitch": 26,
                "velocity": 80,
                "duration": 0.1886363636363626,
                "tempo": 120.0
            },
            {
                "start_time": 20.238636363636363,
                "end_time": 20.422727272727272,
                "pitch": 38,
                "velocity": 80,
                "duration": 0.18409090909090864,
                "tempo": 120.0
            },
            {
                "start_time": 20.422727272727272,
                "end_time": 20.62272727272727,
                "pitch": 26,
                "velocity": 80,
                "duration": 0.1999999999999993,
                "tempo": 120.0
            },
            {
                "start_time": 20.625,
                "end_time": 20.813636363636363,
                "pitch": 26,
                "velocity": 80,
                "duration": 0.1886363636363626,
                "tempo": 120.0
            },
            {
                "start_time": 20.813636363636363,
                "end_time": 20.9,
                "pitch": 26,
                "velocity": 80,
                "duration": 0.08636363636363598,
                "tempo": 120.0
            },
            {
                "start_time": 20.9,
                "end_time": 21.002272727272725,
                "pitch": 26,
                "velocity": 80,
                "duration": 0.10227272727272663,
                "tempo": 120.0
            },
            {
                "start_time": 21.002272727272725,
                "end_time": 21.102272727272727,
                "pitch": 38,
                "velocity": 80,
                "duration": 0.10000000000000142,
                "tempo": 120.0
            },
            {
                "start_time": 21.102272727272727,
                "end_time": 21.286363636363635,
                "pitch": 26,
                "velocity": 80,
                "duration": 0.18409090909090864,
                "tempo": 120.0
            },
            {
                "start_time": 21.286363636363635,
                "end_time": 21.386363636363637,
                "pitch": 26,
                "velocity": 80,
                "duration": 0.10000000000000142,
                "tempo": 120.0
            },
            {
                "start_time": 21.386363636363637,
                "end_time": 21.577272727272724,
                "pitch": 24,
                "velocity": 80,
                "duration": 0.1909090909090878,
                "tempo": 120.0
            },
            {
                "start_time": 21.577272727272724,
                "end_time": 21.76590909090909,
                "pitch": 24,
                "velocity": 80,
                "duration": 0.18863636363636616,
                "tempo": 120.0
            },
            {
                "start_time": 21.76590909090909,
                "end_time": 21.95,
                "pitch": 36,
                "velocity": 80,
                "duration": 0.18409090909090864,
                "tempo": 120.0
            },
            {
                "start_time": 21.95,
                "end_time": 22.15,
                "pitch": 24,
                "velocity": 80,
                "duration": 0.1999999999999993,
                "tempo": 120.0
            },
            {
                "start_time": 22.15,
                "end_time": 22.34090909090909,
                "pitch": 24,
                "velocity": 80,
                "duration": 0.19090909090909136,
                "tempo": 120.0
            },
            {
                "start_time": 22.34090909090909,
                "end_time": 22.427272727272726,
                "pitch": 24,
                "velocity": 80,
                "duration": 0.08636363636363598,
                "tempo": 120.0
            },
            {
                "start_time": 22.427272727272726,
                "end_time": 22.529545454545453,
                "pitch": 24,
                "velocity": 80,
                "duration": 0.10227272727272663,
                "tempo": 120.0
            },
            {
                "start_time": 22.529545454545453,
                "end_time": 22.629545454545454,
                "pitch": 36,
                "velocity": 80,
                "duration": 0.10000000000000142,
                "tempo": 120.0
            },
            {
                "start_time": 22.629545454545454,
                "end_time": 22.813636363636363,
                "pitch": 24,
                "velocity": 80,
                "duration": 0.18409090909090864,
                "tempo": 120.0
            },
            {
                "start_time": 22.813636363636363,
                "end_time": 22.913636363636364,
                "pitch": 24,
                "velocity": 80,
                "duration": 0.10000000000000142,
                "tempo": 120.0
            },
            {
                "start_time": 22.913636363636364,
                "end_time": 23.104545454545452,
                "pitch": 21,
                "velocity": 80,
                "duration": 0.1909090909090878,
                "tempo": 120.0
            },
            {
                "start_time": 23.104545454545452,
                "end_time": 23.293181818181818,
                "pitch": 21,
                "velocity": 80,
                "duration": 0.18863636363636616,
                "tempo": 120.0
            },
            {
                "start_time": 23.293181818181818,
                "end_time": 23.477272727272727,
                "pitch": 33,
                "velocity": 80,
                "duration": 0.18409090909090864,
                "tempo": 120.0
            },
            {
                "start_time": 23.477272727272727,
                "end_time": 23.677272727272726,
                "pitch": 21,
                "velocity": 80,
                "duration": 0.1999999999999993,
                "tempo": 120.0
            },
            {
                "start_time": 23.677272727272726,
                "end_time": 23.868181818181817,
                "pitch": 23,
                "velocity": 80,
                "duration": 0.19090909090909136,
                "tempo": 120.0
            },
            {
                "start_time": 23.868181818181817,
                "end_time": 24.05681818181818,
                "pitch": 35,
                "velocity": 80,
                "duration": 0.1886363636363626,
                "tempo": 120.0
            },
            {
                "start_time": 24.05681818181818,
                "end_time": 24.24090909090909,
                "pitch": 26,
                "velocity": 80,
                "duration": 0.18409090909090864,
                "tempo": 120.0
            },
            {
                "start_time": 24.24090909090909,
                "end_time": 24.44090909090909,
                "pitch": 27,
                "velocity": 80,
                "duration": 0.20000000000000284,
                "tempo": 120.0
            },
            {
                "start_time": 24.44090909090909,
                "end_time": 24.634090909090908,
                "pitch": 28,
                "velocity": 80,
                "duration": 0.19318181818181657,
                "tempo": 120.0
            },
            {
                "start_time": 24.636363636363637,
                "end_time": 24.829545454545453,
                "pitch": 28,
                "velocity": 64,
                "duration": 0.19318181818181657,
                "tempo": 120.0
            },
            {
                "start_time": 24.829545454545453,
                "end_time": 25.013636363636362,
                "pitch": 28,
                "velocity": 51,
                "duration": 0.18409090909090864,
                "tempo": 120.0
            },
            {
                "start_time": 25.013636363636362,
                "end_time": 25.21363636363636,
                "pitch": 28,
                "velocity": 40,
                "duration": 0.1999999999999993,
                "tempo": 120.0
            },
            {
                "start_time": 25.21363636363636,
                "end_time": 25.39772727272727,
                "pitch": 28,
                "velocity": 32,
                "duration": 0.18409090909090864,
                "tempo": 120.0
            },
            {
                "start_time": 25.39772727272727,
                "end_time": 25.581818181818182,
                "pitch": 28,
                "velocity": 25,
                "duration": 0.1840909090909122,
                "tempo": 120.0
            },
            {
                "start_time": 25.581818181818182,
                "end_time": 25.76590909090909,
                "pitch": 28,
                "velocity": 20,
                "duration": 0.18409090909090864,
                "tempo": 120.0
            },
            {
                "start_time": 25.76590909090909,
                "end_time": 25.96590909090909,
                "pitch": 28,
                "velocity": 16,
                "duration": 0.1999999999999993,
                "tempo": 120.0
            },
            {
                "start_time": 38.20227272727273,
                "end_time": 38.39090909090909,
                "pitch": 28,
                "velocity": 80,
                "duration": 0.1886363636363626,
                "tempo": 120.0
            },
            {
                "start_time": 38.39090909090909,
                "end_time": 38.57954545454545,
                "pitch": 28,
                "velocity": 80,
                "duration": 0.1886363636363626,
                "tempo": 120.0
            },
            {
                "start_time": 38.57954545454545,
                "end_time": 38.76363636363636,
                "pitch": 40,
                "velocity": 80,
                "duration": 0.18409090909090509,
                "tempo": 120.0
            },
            {
                "start_time": 38.76363636363636,
                "end_time": 38.96363636363636,
                "pitch": 28,
                "velocity": 80,
                "duration": 0.20000000000000284,
                "tempo": 120.0
            },
            {
                "start_time": 38.96363636363636,
                "end_time": 39.15909090909091,
                "pitch": 28,
                "velocity": 80,
                "duration": 0.19545454545454533,
                "tempo": 120.0
            },
            {
                "start_time": 39.15909090909091,
                "end_time": 39.24772727272727,
                "pitch": 28,
                "velocity": 80,
                "duration": 0.08863636363636118,
                "tempo": 120.0
            },
            {
                "start_time": 39.24772727272727,
                "end_time": 39.35227272727273,
                "pitch": 28,
                "velocity": 80,
                "duration": 0.10454545454545894,
                "tempo": 120.0
            },
            {
                "start_time": 39.35227272727273,
                "end_time": 39.449999999999996,
                "pitch": 40,
                "velocity": 80,
                "duration": 0.09772727272726911,
                "tempo": 120.0
            },
            {
                "start_time": 39.449999999999996,
                "end_time": 39.62954545454545,
                "pitch": 28,
                "velocity": 80,
                "duration": 0.17954545454545467,
                "tempo": 120.0
            },
            {
                "start_time": 39.62954545454545,
                "end_time": 39.72727272727273,
                "pitch": 28,
                "velocity": 80,
                "duration": 0.09772727272727622,
                "tempo": 120.0
            },
            {
                "start_time": 39.72727272727273,
                "end_time": 39.92272727272727,
                "pitch": 26,
                "velocity": 80,
                "duration": 0.19545454545454533,
                "tempo": 120.0
            },
            {
                "start_time": 39.92272727272727,
                "end_time": 40.11590909090909,
                "pitch": 26,
                "velocity": 80,
                "duration": 0.19318181818182012,
                "tempo": 120.0
            },
            {
                "start_time": 40.11590909090909,
                "end_time": 40.3,
                "pitch": 38,
                "velocity": 80,
                "duration": 0.18409090909090509,
                "tempo": 120.0
            },
            {
                "start_time": 40.3,
                "end_time": 40.5,
                "pitch": 26,
                "velocity": 80,
                "duration": 0.20000000000000284,
                "tempo": 120.0
            },
            {
                "start_time": 40.502272727272725,
                "end_time": 40.69090909090909,
                "pitch": 26,
                "velocity": 80,
                "duration": 0.1886363636363626,
                "tempo": 120.0
            },
            {
                "start_time": 40.69090909090909,
                "end_time": 40.777272727272724,
                "pitch": 26,
                "velocity": 80,
                "duration": 0.08636363636363598,
                "tempo": 120.0
            },
            {
                "start_time": 40.777272727272724,
                "end_time": 40.87954545454545,
                "pitch": 26,
                "velocity": 80,
                "duration": 0.10227272727272663,
                "tempo": 120.0
            },
            {
                "start_time": 40.87954545454545,
                "end_time": 40.97727272727273,
                "pitch": 38,
                "velocity": 80,
                "duration": 0.09772727272727622,
                "tempo": 120.0
            },
            {
                "start_time": 40.97727272727273,
                "end_time": 41.15681818181818,
                "pitch": 26,
                "velocity": 80,
                "duration": 0.17954545454545467,
                "tempo": 120.0
            },
            {
                "start_time": 41.15681818181818,
                "end_time": 41.25454545454545,
                "pitch": 26,
                "velocity": 80,
                "duration": 0.09772727272726911,
                "tempo": 120.0
            },
            {
                "start_time": 41.25454545454545,
                "end_time": 41.449999999999996,
                "pitch": 24,
                "velocity": 80,
                "duration": 0.19545454545454533,
                "tempo": 120.0
            },
            {
                "start_time": 41.449999999999996,
                "end_time": 41.643181818181816,
                "pitch": 24,
                "velocity": 80,
                "duration": 0.19318181818182012,
                "tempo": 120.0
            },
            {
                "start_time": 41.643181818181816,
                "end_time": 41.82727272727273,
                "pitch": 36,
                "velocity": 80,
                "duration": 0.1840909090909122,
                "tempo": 120.0
            },
            {
                "start_time": 41.82727272727273,
                "end_time": 42.027272727272724,
                "pitch": 24,
                "velocity": 80,
                "duration": 0.19999999999999574,
                "tempo": 120.0
            },
            {
                "start_time": 42.027272727272724,
                "end_time": 42.21818181818182,
                "pitch": 24,
                "velocity": 80,
                "duration": 0.19090909090909491,
                "tempo": 120.0
            },
            {
                "start_time": 42.21818181818182,
                "end_time": 42.304545454545455,
                "pitch": 24,
                "velocity": 80,
                "duration": 0.08636363636363598,
                "tempo": 120.0
            },
            {
                "start_time": 42.304545454545455,
                "end_time": 42.40681818181818,
                "pitch": 24,
                "velocity": 80,
                "duration": 0.10227272727272663,
                "tempo": 120.0
            },
            {
                "start_time": 42.40681818181818,
                "end_time": 42.50681818181818,
                "pitch": 36,
                "velocity": 80,
                "duration": 0.10000000000000142,
                "tempo": 120.0
            },
            {
                "start_time": 42.50681818181818,
                "end_time": 42.69090909090909,
                "pitch": 24,
                "velocity": 80,
                "duration": 0.18409090909090509,
                "tempo": 120.0
            },
            {
                "start_time": 42.69090909090909,
                "end_time": 42.79090909090909,
                "pitch": 24,
                "velocity": 80,
                "duration": 0.10000000000000142,
                "tempo": 120.0
            },
            {
                "start_time": 42.79090909090909,
                "end_time": 42.98181818181818,
                "pitch": 21,
                "velocity": 80,
                "duration": 0.1909090909090878,
                "tempo": 120.0
            },
            {
                "start_time": 42.98181818181818,
                "end_time": 43.17045454545455,
                "pitch": 21,
                "velocity": 80,
                "duration": 0.1886363636363697,
                "tempo": 120.0
            },
            {
                "start_time": 43.17045454545455,
                "end_time": 43.35454545454545,
                "pitch": 33,
                "velocity": 80,
                "duration": 0.18409090909090509,
                "tempo": 120.0
            },
            {
                "start_time": 43.35454545454545,
                "end_time": 43.554545454545455,
                "pitch": 21,
                "velocity": 80,
                "duration": 0.20000000000000284,
                "tempo": 120.0
            },
            {
                "start_time": 43.554545454545455,
                "end_time": 43.74545454545454,
                "pitch": 23,
                "velocity": 80,
                "duration": 0.1909090909090878,
                "tempo": 120.0
            },
            {
                "start_time": 43.74545454545454,
                "end_time": 43.934090909090905,
                "pitch": 35,
                "velocity": 80,
                "duration": 0.1886363636363626,
                "tempo": 120.0
            },
            {
                "start_time": 43.934090909090905,
                "end_time": 44.11818181818182,
                "pitch": 26,
                "velocity": 80,
                "duration": 0.1840909090909122,
                "tempo": 120.0
            },
            {
                "start_time": 44.11818181818182,
                "end_time": 44.31818181818181,
                "pitch": 27,
                "velocity": 80,
                "duration": 0.19999999999999574,
                "tempo": 120.0
            },
            {
                "start_time": 44.31818181818181,
                "end_time": 44.50681818181818,
                "pitch": 24,
                "velocity": 80,
                "duration": 0.1886363636363697,
                "tempo": 120.0
            },
            {
                "start_time": 44.50909090909091,
                "end_time": 44.69772727272727,
                "pitch": 24,
                "velocity": 80,
                "duration": 0.1886363636363626,
                "tempo": 120.0
            },
            {
                "start_time": 44.69772727272727,
                "end_time": 44.88181818181818,
                "pitch": 36,
                "velocity": 80,
                "duration": 0.1840909090909122,
                "tempo": 120.0
            },
            {
                "start_time": 44.88181818181818,
                "end_time": 45.08181818181818,
                "pitch": 24,
                "velocity": 80,
                "duration": 0.19999999999999574,
                "tempo": 120.0
            },
            {
                "start_time": 45.08181818181818,
                "end_time": 45.27045454545454,
                "pitch": 24,
                "velocity": 80,
                "duration": 0.1886363636363626,
                "tempo": 120.0
            },
            {
                "start_time": 45.27272727272727,
                "end_time": 45.35681818181818,
                "pitch": 24,
                "velocity": 80,
                "duration": 0.08409090909090366,
                "tempo": 120.0
            },
            {
                "start_time": 45.35681818181818,
                "end_time": 45.461363636363636,
                "pitch": 24,
                "velocity": 80,
                "duration": 0.10454545454545894,
                "tempo": 120.0
            },
            {
                "start_time": 45.461363636363636,
                "end_time": 45.56136363636364,
                "pitch": 36,
                "velocity": 80,
                "duration": 0.10000000000000142,
                "tempo": 120.0
            },
            {
                "start_time": 45.56136363636364,
                "end_time": 45.74545454545454,
                "pitch": 24,
                "velocity": 80,
                "duration": 0.18409090909090509,
                "tempo": 120.0
            },
            {
                "start_time": 45.74545454545454,
                "end_time": 45.845454545454544,
                "pitch": 24,
                "velocity": 80,
                "duration": 0.10000000000000142,
                "tempo": 120.0
            },
            {
                "start_time": 45.845454545454544,
                "end_time": 46.03409090909091,
                "pitch": 23,
                "velocity": 80,
                "duration": 0.1886363636363626,
                "tempo": 120.0
            },
            {
                "start_time": 46.03409090909091,
                "end_time": 46.224999999999994,
                "pitch": 23,
                "velocity": 80,
                "duration": 0.1909090909090878,
                "tempo": 120.0
            },
            {
                "start_time": 46.224999999999994,
                "end_time": 46.40909090909091,
                "pitch": 35,
                "velocity": 80,
                "duration": 0.1840909090909122,
                "tempo": 120.0
            },
            {
                "start_time": 46.40909090909091,
                "end_time": 46.60909090909091,
                "pitch": 23,
                "velocity": 80,
                "duration": 0.20000000000000284,
                "tempo": 120.0
            },
            {
                "start_time": 46.60909090909091,
                "end_time": 46.79772727272727,
                "pitch": 23,
                "velocity": 80,
                "duration": 0.1886363636363626,
                "tempo": 120.0
            },
            {
                "start_time": 46.79772727272727,
                "end_time": 46.88409090909091,
                "pitch": 23,
                "velocity": 80,
                "duration": 0.08636363636363598,
                "tempo": 120.0
            },
            {
                "start_time": 46.88409090909091,
                "end_time": 46.98863636363636,
                "pitch": 23,
                "velocity": 80,
                "duration": 0.10454545454545183,
                "tempo": 120.0
            },
            {
                "start_time": 46.98863636363636,
                "end_time": 47.090909090909086,
                "pitch": 35,
                "velocity": 80,
                "duration": 0.10227272727272663,
                "tempo": 120.0
            },
            {
                "start_time": 47.090909090909086,
                "end_time": 47.28181818181818,
                "pitch": 23,
                "velocity": 80,
                "duration": 0.19090909090909491,
                "tempo": 120.0
            },
            {
                "start_time": 47.28181818181818,
                "end_time": 47.38409090909091,
                "pitch": 23,
                "velocity": 80,
                "duration": 0.10227272727272663,
                "tempo": 120.0
            },
            {
                "start_time": 47.38409090909091,
                "end_time": 47.574999999999996,
                "pitch": 24,
                "velocity": 80,
                "duration": 0.1909090909090878,
                "tempo": 120.0
            },
            {
                "start_time": 47.574999999999996,
                "end_time": 47.76363636363636,
                "pitch": 24,
                "velocity": 80,
                "duration": 0.1886363636363626,
                "tempo": 120.0
            },
            {
                "start_time": 47.76363636363636,
                "end_time": 47.94772727272727,
                "pitch": 36,
                "velocity": 80,
                "duration": 0.1840909090909122,
                "tempo": 120.0
            },
            {
                "start_time": 47.94772727272727,
                "end_time": 48.14772727272727,
                "pitch": 24,
                "velocity": 80,
                "duration": 0.20000000000000284,
                "tempo": 120.0
            },
            {
                "start_time": 48.14772727272727,
                "end_time": 48.336363636363636,
                "pitch": 24,
                "velocity": 80,
                "duration": 0.1886363636363626,
                "tempo": 120.0
            },
            {
                "start_time": 48.33863636363636,
                "end_time": 48.42272727272727,
                "pitch": 24,
                "velocity": 80,
                "duration": 0.08409090909091077,
                "tempo": 120.0
            },
            {
                "start_time": 48.42272727272727,
                "end_time": 48.527272727272724,
                "pitch": 24,
                "velocity": 80,
                "duration": 0.10454545454545183,
                "tempo": 120.0
            },
            {
                "start_time": 48.527272727272724,
                "end_time": 48.627272727272725,
                "pitch": 36,
                "velocity": 80,
                "duration": 0.10000000000000142,
                "tempo": 120.0
            },
            {
                "start_time": 48.627272727272725,
                "end_time": 48.81136363636364,
                "pitch": 24,
                "velocity": 80,
                "duration": 0.1840909090909122,
                "tempo": 120.0
            },
            {
                "start_time": 48.81136363636364,
                "end_time": 48.91136363636363,
                "pitch": 24,
                "velocity": 80,
                "duration": 0.09999999999999432,
                "tempo": 120.0
            },
            {
                "start_time": 48.91136363636363,
                "end_time": 49.099999999999994,
                "pitch": 26,
                "velocity": 80,
                "duration": 0.1886363636363626,
                "tempo": 120.0
            },
            {
                "start_time": 49.099999999999994,
                "end_time": 49.29090909090909,
                "pitch": 26,
                "velocity": 80,
                "duration": 0.19090909090909491,
                "tempo": 120.0
            },
            {
                "start_time": 49.29090909090909,
                "end_time": 49.474999999999994,
                "pitch": 38,
                "velocity": 80,
                "duration": 0.18409090909090509,
                "tempo": 120.0
            },
            {
                "start_time": 49.474999999999994,
                "end_time": 49.675,
                "pitch": 26,
                "velocity": 80,
                "duration": 0.20000000000000284,
                "tempo": 120.0
            },
            {
                "start_time": 49.675,
                "end_time": 49.86363636363636,
                "pitch": 26,
                "velocity": 80,
                "duration": 0.1886363636363626,
                "tempo": 120.0
            },
            {
                "start_time": 49.86363636363636,
                "end_time": 50.054545454545455,
                "pitch": 38,
                "velocity": 80,
                "duration": 0.19090909090909491,
                "tempo": 120.0
            },
            {
                "start_time": 50.054545454545455,
                "end_time": 50.23863636363636,
                "pitch": 27,
                "velocity": 80,
                "duration": 0.18409090909090509,
                "tempo": 120.0
            },
            {
                "start_time": 50.23863636363636,
                "end_time": 50.43863636363636,
                "pitch": 39,
                "velocity": 80,
                "duration": 0.20000000000000284,
                "tempo": 120.0
            },
            {
                "start_time": 50.43863636363636,
                "end_time": 50.627272727272725,
                "pitch": 40,
                "velocity": 80,
                "duration": 0.1886363636363626,
                "tempo": 120.0
            },
            {
                "start_time": 50.627272727272725,
                "end_time": 50.81590909090909,
                "pitch": 40,
                "velocity": 64,
                "duration": 0.1886363636363626,
                "tempo": 120.0
            },
            {
                "start_time": 50.81590909090909,
                "end_time": 51.0,
                "pitch": 40,
                "velocity": 51,
                "duration": 0.1840909090909122,
                "tempo": 120.0
            },
            {
                "start_time": 51.0,
                "end_time": 51.199999999999996,
                "pitch": 40,
                "velocity": 40,
                "duration": 0.19999999999999574,
                "tempo": 120.0
            },
            {
                "start_time": 51.20227272727273,
                "end_time": 51.39090909090909,
                "pitch": 40,
                "velocity": 32,
                "duration": 0.1886363636363626,
                "tempo": 120.0
            },
            {
                "start_time": 51.39090909090909,
                "end_time": 51.57954545454545,
                "pitch": 40,
                "velocity": 25,
                "duration": 0.1886363636363626,
                "tempo": 120.0
            },
            {
                "start_time": 51.57954545454545,
                "end_time": 51.76363636363636,
                "pitch": 40,
                "velocity": 20,
                "duration": 0.18409090909090509,
                "tempo": 120.0
            },
            {
                "start_time": 51.76363636363636,
                "end_time": 51.96363636363636,
                "pitch": 40,
                "velocity": 16,
                "duration": 0.20000000000000284,
                "tempo": 120.0
            },
            {
                "start_time": 51.96363636363636,
                "end_time": 52.15909090909091,
                "pitch": 40,
                "velocity": 13,
                "duration": 0.19545454545454533,
                "tempo": 120.0
            },
            {
                "start_time": 52.15909090909091,
                "end_time": 52.35227272727273,
                "pitch": 40,
                "velocity": 10,
                "duration": 0.19318181818182012,
                "tempo": 120.0
            },
            {
                "start_time": 52.35227272727273,
                "end_time": 52.53181818181818,
                "pitch": 40,
                "velocity": 8,
                "duration": 0.17954545454545467,
                "tempo": 120.0
            },
            {
                "start_time": 52.53181818181818,
                "end_time": 52.72727272727273,
                "pitch": 40,
                "velocity": 6,
                "duration": 0.19545454545454533,
                "tempo": 120.0
            },
            {
                "start_time": 52.72727272727273,
                "end_time": 53.490909090909085,
                "pitch": 40,
                "velocity": 5,
                "duration": 0.7636363636363583,
                "tempo": 120.0
            }
        ],
        "Violin": [
            {
                "start_time": 6.088636363636363,
                "end_time": 6.284090909090909,
                "pitch": 67,
                "velocity": 127,
                "duration": 0.1954545454545462,
                "tempo": 120.0
            },
            {
                "start_time": 6.284090909090909,
                "end_time": 6.477272727272727,
                "pitch": 67,
                "velocity": 127,
                "duration": 0.19318181818181746,
                "tempo": 120.0
            },
            {
                "start_time": 6.4795454545454545,
                "end_time": 6.661363636363636,
                "pitch": 67,
                "velocity": 101,
                "duration": 0.18181818181818166,
                "tempo": 120.0
            },
            {
                "start_time": 6.661363636363636,
                "end_time": 6.863636363636363,
                "pitch": 67,
                "velocity": 80,
                "duration": 0.20227272727272716,
                "tempo": 120.0
            },
            {
                "start_time": 6.863636363636363,
                "end_time": 7.052272727272727,
                "pitch": 67,
                "velocity": 64,
                "duration": 0.1886363636363635,
                "tempo": 120.0
            },
            {
                "start_time": 7.052272727272727,
                "end_time": 7.24090909090909,
                "pitch": 67,
                "velocity": 51,
                "duration": 0.1886363636363635,
                "tempo": 120.0
            },
            {
                "start_time": 7.24090909090909,
                "end_time": 7.425,
                "pitch": 67,
                "velocity": 40,
                "duration": 0.18409090909090953,
                "tempo": 120.0
            },
            {
                "start_time": 7.425,
                "end_time": 7.625,
                "pitch": 67,
                "velocity": 32,
                "duration": 0.20000000000000018,
                "tempo": 120.0
            },
            {
                "start_time": 7.627272727272727,
                "end_time": 8.388636363636364,
                "pitch": 54,
                "velocity": 127,
                "duration": 0.7613636363636367,
                "tempo": 120.0
            },
            {
                "start_time": 8.388636363636364,
                "end_time": 9.152272727272727,
                "pitch": 57,
                "velocity": 127,
                "duration": 0.7636363636363637,
                "tempo": 120.0
            },
            {
                "start_time": 9.152272727272727,
                "end_time": 9.343181818181817,
                "pitch": 67,
                "velocity": 127,
                "duration": 0.19090909090908958,
                "tempo": 120.0
            },
            {
                "start_time": 9.343181818181817,
                "end_time": 9.531818181818181,
                "pitch": 67,
                "velocity": 127,
                "duration": 0.18863636363636438,
                "tempo": 120.0
            },
            {
                "start_time": 9.531818181818181,
                "end_time": 9.71590909090909,
                "pitch": 67,
                "velocity": 101,
                "duration": 0.18409090909090864,
                "tempo": 120.0
            },
            {
                "start_time": 9.71590909090909,
                "end_time": 9.915909090909091,
                "pitch": 67,
                "velocity": 80,
                "duration": 0.20000000000000107,
                "tempo": 120.0
            },
            {
                "start_time": 9.915909090909091,
                "end_time": 10.111363636363636,
                "pitch": 67,
                "velocity": 64,
                "duration": 0.19545454545454533,
                "tempo": 120.0
            },
            {
                "start_time": 10.111363636363636,
                "end_time": 10.304545454545455,
                "pitch": 67,
                "velocity": 51,
                "duration": 0.19318181818181834,
                "tempo": 120.0
            },
            {
                "start_time": 10.304545454545455,
                "end_time": 10.488636363636363,
                "pitch": 67,
                "velocity": 40,
                "duration": 0.18409090909090864,
                "tempo": 120.0
            },
            {
                "start_time": 10.488636363636363,
                "end_time": 10.688636363636363,
                "pitch": 67,
                "velocity": 32,
                "duration": 0.1999999999999993,
                "tempo": 120.0
            },
            {
                "start_time": 10.69090909090909,
                "end_time": 11.452272727272726,
                "pitch": 62,
                "velocity": 127,
                "duration": 0.7613636363636367,
                "tempo": 120.0
            },
            {
                "start_time": 11.452272727272726,
                "end_time": 12.21590909090909,
                "pitch": 66,
                "velocity": 127,
                "duration": 0.7636363636363637,
                "tempo": 120.0
            },
            {
                "start_time": 18.325,
                "end_time": 18.513636363636362,
                "pitch": 67,
                "velocity": 127,
                "duration": 0.1886363636363626,
                "tempo": 120.0
            },
            {
                "start_time": 18.513636363636362,
                "end_time": 18.702272727272728,
                "pitch": 67,
                "velocity": 127,
                "duration": 0.18863636363636616,
                "tempo": 120.0
            },
            {
                "start_time": 18.704545454545453,
                "end_time": 18.886363636363637,
                "pitch": 67,
                "velocity": 101,
                "duration": 0.18181818181818343,
                "tempo": 120.0
            },
            {
                "start_time": 18.886363636363637,
                "end_time": 19.086363636363636,
                "pitch": 67,
                "velocity": 80,
                "duration": 0.1999999999999993,
                "tempo": 120.0
            },
            {
                "start_time": 19.08863636363636,
                "end_time": 19.28181818181818,
                "pitch": 67,
                "velocity": 64,
                "duration": 0.19318181818182012,
                "tempo": 120.0
            },
            {
                "start_time": 19.28181818181818,
                "end_time": 19.477272727272727,
                "pitch": 67,
                "velocity": 51,
                "duration": 0.19545454545454533,
                "tempo": 120.0
            },
            {
                "start_time": 19.477272727272727,
                "end_time": 19.659090909090907,
                "pitch": 67,
                "velocity": 40,
                "duration": 0.18181818181817988,
                "tempo": 120.0
            },
            {
                "start_time": 19.659090909090907,
                "end_time": 19.861363636363635,
                "pitch": 67,
                "velocity": 32,
                "duration": 0.20227272727272805,
                "tempo": 120.0
            },
            {
                "start_time": 19.861363636363635,
                "end_time": 20.625,
                "pitch": 54,
                "velocity": 127,
                "duration": 0.7636363636363654,
                "tempo": 120.0
            },
            {
                "start_time": 20.625,
                "end_time": 21.388636363636362,
                "pitch": 57,
                "velocity": 127,
                "duration": 0.7636363636363619,
                "tempo": 120.0
            },
            {
                "start_time": 21.388636363636362,
                "end_time": 21.577272727272724,
                "pitch": 67,
                "velocity": 127,
                "duration": 0.1886363636363626,
                "tempo": 120.0
            },
            {
                "start_time": 21.577272727272724,
                "end_time": 21.76590909090909,
                "pitch": 67,
                "velocity": 127,
                "duration": 0.18863636363636616,
                "tempo": 120.0
            },
            {
                "start_time": 21.768181818181816,
                "end_time": 21.95,
                "pitch": 67,
                "velocity": 101,
                "duration": 0.18181818181818343,
                "tempo": 120.0
            },
            {
                "start_time": 21.95,
                "end_time": 22.15,
                "pitch": 67,
                "velocity": 80,
                "duration": 0.1999999999999993,
                "tempo": 120.0
            },
            {
                "start_time": 22.152272727272727,
                "end_time": 22.34090909090909,
                "pitch": 67,
                "velocity": 64,
                "duration": 0.1886363636363626,
                "tempo": 120.0
            },
            {
                "start_time": 22.34090909090909,
                "end_time": 22.529545454545453,
                "pitch": 67,
                "velocity": 51,
                "duration": 0.1886363636363626,
                "tempo": 120.0
            },
            {
                "start_time": 22.529545454545453,
                "end_time": 22.71363636363636,
                "pitch": 67,
                "velocity": 40,
                "duration": 0.18409090909090864,
                "tempo": 120.0
            },
            {
                "start_time": 22.71363636363636,
                "end_time": 22.913636363636364,
                "pitch": 67,
                "velocity": 32,
                "duration": 0.20000000000000284,
                "tempo": 120.0
            },
            {
                "start_time": 22.91590909090909,
                "end_time": 23.677272727272726,
                "pitch": 62,
                "velocity": 127,
                "duration": 0.7613636363636367,
                "tempo": 120.0
            },
            {
                "start_time": 23.677272727272726,
                "end_time": 24.44090909090909,
                "pitch": 66,
                "velocity": 127,
                "duration": 0.7636363636363654,
                "tempo": 120.0
            },
            {
                "start_time": 38.20227272727273,
                "end_time": 38.39090909090909,
                "pitch": 67,
                "velocity": 127,
                "duration": 0.1886363636363626,
                "tempo": 120.0
            },
            {
                "start_time": 38.39090909090909,
                "end_time": 38.57954545454545,
                "pitch": 67,
                "velocity": 127,
                "duration": 0.1886363636363626,
                "tempo": 120.0
            },
            {
                "start_time": 38.57954545454545,
                "end_time": 38.76363636363636,
                "pitch": 67,
                "velocity": 101,
                "duration": 0.18409090909090509,
                "tempo": 120.0
            },
            {
                "start_time": 38.76363636363636,
                "end_time": 38.96363636363636,
                "pitch": 67,
                "velocity": 80,
                "duration": 0.20000000000000284,
                "tempo": 120.0
            },
            {
                "start_time": 38.965909090909086,
                "end_time": 39.15909090909091,
                "pitch": 67,
                "velocity": 64,
                "duration": 0.19318181818182012,
                "tempo": 120.0
            },
            {
                "start_time": 39.15909090909091,
                "end_time": 39.35227272727273,
                "pitch": 67,
                "velocity": 51,
                "duration": 0.19318181818182012,
                "tempo": 120.0
            },
            {
                "start_time": 39.35454545454545,
                "end_time": 39.53181818181818,
                "pitch": 67,
                "velocity": 40,
                "duration": 0.17727272727272947,
                "tempo": 120.0
            },
            {
                "start_time": 39.53181818181818,
                "end_time": 39.72727272727273,
                "pitch": 67,
                "velocity": 32,
                "duration": 0.19545454545454533,
                "tempo": 120.0
            },
            {
                "start_time": 39.72727272727273,
                "end_time": 40.502272727272725,
                "pitch": 54,
                "velocity": 127,
                "duration": 0.7749999999999986,
                "tempo": 120.0
            },
            {
                "start_time": 40.502272727272725,
                "end_time": 41.25454545454545,
                "pitch": 57,
                "velocity": 127,
                "duration": 0.7522727272727252,
                "tempo": 120.0
            },
            {
                "start_time": 41.25454545454545,
                "end_time": 41.449999999999996,
                "pitch": 67,
                "velocity": 127,
                "duration": 0.19545454545454533,
                "tempo": 120.0
            },
            {
                "start_time": 41.449999999999996,
                "end_time": 41.643181818181816,
                "pitch": 67,
                "velocity": 127,
                "duration": 0.19318181818182012,
                "tempo": 120.0
            },
            {
                "start_time": 41.643181818181816,
                "end_time": 41.82727272727273,
                "pitch": 67,
                "velocity": 101,
                "duration": 0.1840909090909122,
                "tempo": 120.0
            },
            {
                "start_time": 41.82727272727273,
                "end_time": 42.02954545454545,
                "pitch": 67,
                "velocity": 80,
                "duration": 0.20227272727272094,
                "tempo": 120.0
            },
            {
                "start_time": 42.02954545454545,
                "end_time": 42.21818181818182,
                "pitch": 67,
                "velocity": 64,
                "duration": 0.1886363636363697,
                "tempo": 120.0
            },
            {
                "start_time": 42.21818181818182,
                "end_time": 42.40681818181818,
                "pitch": 67,
                "velocity": 51,
                "duration": 0.1886363636363626,
                "tempo": 120.0
            },
            {
                "start_time": 42.40681818181818,
                "end_time": 42.590909090909086,
                "pitch": 67,
                "velocity": 40,
                "duration": 0.18409090909090509,
                "tempo": 120.0
            },
            {
                "start_time": 42.590909090909086,
                "end_time": 42.79090909090909,
                "pitch": 67,
                "velocity": 32,
                "duration": 0.20000000000000284,
                "tempo": 120.0
            },
            {
                "start_time": 42.793181818181814,
                "end_time": 43.554545454545455,
                "pitch": 62,
                "velocity": 127,
                "duration": 0.7613636363636402,
                "tempo": 120.0
            },
            {
                "start_time": 43.554545454545455,
                "end_time": 44.31818181818181,
                "pitch": 66,
                "velocity": 127,
                "duration": 0.7636363636363583,
                "tempo": 120.0
            }
        ],
        "Acoustic Grand Piano": [
            {
                "start_time": 44.31818181818181,
                "end_time": 44.40454545454545,
                "pitch": 84,
                "velocity": 64,
                "duration": 0.08636363636363598,
                "tempo": 120.0
            },
            {
                "start_time": 44.40454545454545,
                "end_time": 44.50909090909091,
                "pitch": 81,
                "velocity": 64,
                "duration": 0.10454545454545894,
                "tempo": 120.0
            },
            {
                "start_time": 44.50909090909091,
                "end_time": 44.59318181818182,
                "pitch": 76,
                "velocity": 64,
                "duration": 0.08409090909091077,
                "tempo": 120.0
            },
            {
                "start_time": 44.59318181818182,
                "end_time": 44.69772727272727,
                "pitch": 72,
                "velocity": 64,
                "duration": 0.10454545454545183,
                "tempo": 120.0
            },
            {
                "start_time": 44.69772727272727,
                "end_time": 44.79772727272727,
                "pitch": 84,
                "velocity": 64,
                "duration": 0.10000000000000142,
                "tempo": 120.0
            },
            {
                "start_time": 44.79772727272727,
                "end_time": 44.88181818181818,
                "pitch": 81,
                "velocity": 64,
                "duration": 0.08409090909091077,
                "tempo": 120.0
            },
            {
                "start_time": 44.88181818181818,
                "end_time": 44.98181818181818,
                "pitch": 76,
                "velocity": 64,
                "duration": 0.09999999999999432,
                "tempo": 120.0
            },
            {
                "start_time": 44.98181818181818,
                "end_time": 45.08181818181818,
                "pitch": 72,
                "velocity": 64,
                "duration": 0.10000000000000142,
                "tempo": 120.0
            },
            {
                "start_time": 45.08181818181818,
                "end_time": 45.168181818181814,
                "pitch": 84,
                "velocity": 64,
                "duration": 0.08636363636363598,
                "tempo": 120.0
            },
            {
                "start_time": 45.168181818181814,
                "end_time": 45.27272727272727,
                "pitch": 81,
                "velocity": 64,
                "duration": 0.10454545454545894,
                "tempo": 120.0
            },
            {
                "start_time": 45.27272727272727,
                "end_time": 45.35909090909091,
                "pitch": 76,
                "velocity": 64,
                "duration": 0.08636363636363598,
                "tempo": 120.0
            },
            {
                "start_time": 45.35909090909091,
                "end_time": 45.461363636363636,
                "pitch": 72,
                "velocity": 64,
                "duration": 0.10227272727272663,
                "tempo": 120.0
            },
            {
                "start_time": 45.461363636363636,
                "end_time": 45.56136363636364,
                "pitch": 84,
                "velocity": 64,
                "duration": 0.10000000000000142,
                "tempo": 120.0
            },
            {
                "start_time": 45.56136363636364,
                "end_time": 45.643181818181816,
                "pitch": 81,
                "velocity": 64,
                "duration": 0.08181818181817846,
                "tempo": 120.0
            },
            {
                "start_time": 45.64545454545454,
                "end_time": 45.74545454545454,
                "pitch": 76,
                "velocity": 64,
                "duration": 0.10000000000000142,
                "tempo": 120.0
            },
            {
                "start_time": 45.74545454545454,
                "end_time": 45.845454545454544,
                "pitch": 72,
                "velocity": 64,
                "duration": 0.10000000000000142,
                "tempo": 120.0
            },
            {
                "start_time": 45.845454545454544,
                "end_time": 45.93181818181818,
                "pitch": 83,
                "velocity": 64,
                "duration": 0.08636363636363598,
                "tempo": 120.0
            },
            {
                "start_time": 45.93181818181818,
                "end_time": 46.03636363636363,
                "pitch": 78,
                "velocity": 64,
                "duration": 0.10454545454545183,
                "tempo": 120.0
            },
            {
                "start_time": 46.03636363636363,
                "end_time": 46.12045454545454,
                "pitch": 75,
                "velocity": 64,
                "duration": 0.08409090909091077,
                "tempo": 120.0
            },
            {
                "start_time": 46.12045454545454,
                "end_time": 46.224999999999994,
                "pitch": 71,
                "velocity": 64,
                "duration": 0.10454545454545183,
                "tempo": 120.0
            },
            {
                "start_time": 46.224999999999994,
                "end_time": 46.324999999999996,
                "pitch": 83,
                "velocity": 64,
                "duration": 0.10000000000000142,
                "tempo": 120.0
            },
            {
                "start_time": 46.324999999999996,
                "end_time": 46.40909090909091,
                "pitch": 78,
                "velocity": 64,
                "duration": 0.08409090909091077,
                "tempo": 120.0
            },
            {
                "start_time": 46.40909090909091,
                "end_time": 46.50681818181818,
                "pitch": 75,
                "velocity": 64,
                "duration": 0.09772727272727622,
                "tempo": 120.0
            },
            {
                "start_time": 46.50909090909091,
                "end_time": 46.60909090909091,
                "pitch": 71,
                "velocity": 64,
                "duration": 0.10000000000000142,
                "tempo": 120.0
            },
            {
                "start_time": 46.60909090909091,
                "end_time": 46.695454545454545,
                "pitch": 83,
                "velocity": 64,
                "duration": 0.08636363636363598,
                "tempo": 120.0
            },
            {
                "start_time": 46.695454545454545,
                "end_time": 46.79772727272727,
                "pitch": 78,
                "velocity": 64,
                "duration": 0.10227272727272663,
                "tempo": 120.0
            },
            {
                "start_time": 46.8,
                "end_time": 46.88409090909091,
                "pitch": 75,
                "velocity": 64,
                "duration": 0.08409090909091077,
                "tempo": 120.0
            },
            {
                "start_time": 46.88636363636363,
                "end_time": 46.98863636363636,
                "pitch": 71,
                "velocity": 64,
                "duration": 0.10227272727272663,
                "tempo": 120.0
            },
            {
                "start_time": 46.98863636363636,
                "end_time": 47.090909090909086,
                "pitch": 83,
                "velocity": 64,
                "duration": 0.10227272727272663,
                "tempo": 120.0
            },
            {
                "start_time": 47.09318181818182,
                "end_time": 47.17727272727272,
                "pitch": 78,
                "velocity": 64,
                "duration": 0.08409090909090366,
                "tempo": 120.0
            },
            {
                "start_time": 47.17727272727272,
                "end_time": 47.28181818181818,
                "pitch": 75,
                "velocity": 64,
                "duration": 0.10454545454545894,
                "tempo": 120.0
            },
            {
                "start_time": 47.28181818181818,
                "end_time": 47.38409090909091,
                "pitch": 71,
                "velocity": 64,
                "duration": 0.10227272727272663,
                "tempo": 120.0
            },
            {
                "start_time": 47.38409090909091,
                "end_time": 47.470454545454544,
                "pitch": 84,
                "velocity": 64,
                "duration": 0.08636363636363598,
                "tempo": 120.0
            },
            {
                "start_time": 47.470454545454544,
                "end_time": 47.574999999999996,
                "pitch": 81,
                "velocity": 64,
                "duration": 0.10454545454545183,
                "tempo": 120.0
            },
            {
                "start_time": 47.574999999999996,
                "end_time": 47.65909090909091,
                "pitch": 76,
                "velocity": 64,
                "duration": 0.08409090909091077,
                "tempo": 120.0
            },
            {
                "start_time": 47.65909090909091,
                "end_time": 47.76363636363636,
                "pitch": 72,
                "velocity": 64,
                "duration": 0.10454545454545183,
                "tempo": 120.0
            },
            {
                "start_time": 47.76363636363636,
                "end_time": 47.86363636363636,
                "pitch": 84,
                "velocity": 64,
                "duration": 0.10000000000000142,
                "tempo": 120.0
            },
            {
                "start_time": 47.86363636363636,
                "end_time": 47.94772727272727,
                "pitch": 81,
                "velocity": 64,
                "duration": 0.08409090909091077,
                "tempo": 120.0
            },
            {
                "start_time": 47.94772727272727,
                "end_time": 48.04772727272727,
                "pitch": 76,
                "velocity": 64,
                "duration": 0.10000000000000142,
                "tempo": 120.0
            },
            {
                "start_time": 48.04772727272727,
                "end_time": 48.14772727272727,
                "pitch": 72,
                "velocity": 64,
                "duration": 0.10000000000000142,
                "tempo": 120.0
            },
            {
                "start_time": 48.14772727272727,
                "end_time": 48.23409090909091,
                "pitch": 84,
                "velocity": 64,
                "duration": 0.08636363636363598,
                "tempo": 120.0
            },
            {
                "start_time": 48.23409090909091,
                "end_time": 48.33863636363636,
                "pitch": 81,
                "velocity": 64,
                "duration": 0.10454545454545183,
                "tempo": 120.0
            },
            {
                "start_time": 48.33863636363636,
                "end_time": 48.425,
                "pitch": 76,
                "velocity": 64,
                "duration": 0.08636363636363598,
                "tempo": 120.0
            },
            {
                "start_time": 48.425,
                "end_time": 48.527272727272724,
                "pitch": 72,
                "velocity": 64,
                "duration": 0.10227272727272663,
                "tempo": 120.0
            },
            {
                "start_time": 48.527272727272724,
                "end_time": 48.627272727272725,
                "pitch": 84,
                "velocity": 64,
                "duration": 0.10000000000000142,
                "tempo": 120.0
            },
            {
                "start_time": 48.627272727272725,
                "end_time": 48.711363636363636,
                "pitch": 81,
                "velocity": 64,
                "duration": 0.08409090909091077,
                "tempo": 120.0
            },
            {
                "start_time": 48.711363636363636,
                "end_time": 48.81136363636364,
                "pitch": 76,
                "velocity": 64,
                "duration": 0.10000000000000142,
                "tempo": 120.0
            },
            {
                "start_time": 48.81136363636364,
                "end_time": 48.91136363636363,
                "pitch": 72,
                "velocity": 64,
                "duration": 0.09999999999999432,
                "tempo": 120.0
            },
            {
                "start_time": 48.91136363636363,
                "end_time": 48.99772727272727,
                "pitch": 72,
                "velocity": 64,
                "duration": 0.08636363636363598,
                "tempo": 120.0
            },
            {
                "start_time": 48.99772727272727,
                "end_time": 49.10227272727273,
                "pitch": 79,
                "velocity": 64,
                "duration": 0.10454545454545894,
                "tempo": 120.0
            },
            {
                "start_time": 49.10227272727273,
                "end_time": 49.18636363636364,
                "pitch": 76,
                "velocity": 64,
                "duration": 0.08409090909091077,
                "tempo": 120.0
            },
            {
                "start_time": 49.18636363636364,
                "end_time": 49.29090909090909,
                "pitch": 60,
                "velocity": 64,
                "duration": 0.10454545454545183,
                "tempo": 120.0
            },
            {
                "start_time": 49.29090909090909,
                "end_time": 49.39090909090909,
                "pitch": 72,
                "velocity": 64,
                "duration": 0.10000000000000142,
                "tempo": 120.0
            },
            {
                "start_time": 49.39090909090909,
                "end_time": 49.474999999999994,
                "pitch": 79,
                "velocity": 64,
                "duration": 0.08409090909090366,
                "tempo": 120.0
            },
            {
                "start_time": 49.474999999999994,
                "end_time": 49.574999999999996,
                "pitch": 76,
                "velocity": 64,
                "duration": 0.10000000000000142,
                "tempo": 120.0
            },
            {
                "start_time": 49.574999999999996,
                "end_time": 49.675,
                "pitch": 60,
                "velocity": 64,
                "duration": 0.10000000000000142,
                "tempo": 120.0
            },
            {
                "start_time": 49.675,
                "end_time": 49.76136363636363,
                "pitch": 71,
                "velocity": 64,
                "duration": 0.08636363636363598,
                "tempo": 120.0
            },
            {
                "start_time": 49.76136363636363,
                "end_time": 49.865909090909085,
                "pitch": 66,
                "velocity": 64,
                "duration": 0.10454545454545183,
                "tempo": 120.0
            },
            {
                "start_time": 49.865909090909085,
                "end_time": 49.949999999999996,
                "pitch": 63,
                "velocity": 64,
                "duration": 0.08409090909091077,
                "tempo": 120.0
            },
            {
                "start_time": 49.949999999999996,
                "end_time": 50.054545454545455,
                "pitch": 59,
                "velocity": 64,
                "duration": 0.10454545454545894,
                "tempo": 120.0
            },
            {
                "start_time": 50.054545454545455,
                "end_time": 50.15454545454545,
                "pitch": 71,
                "velocity": 64,
                "duration": 0.09999999999999432,
                "tempo": 120.0
            },
            {
                "start_time": 50.15454545454545,
                "end_time": 50.23863636363636,
                "pitch": 66,
                "velocity": 64,
                "duration": 0.08409090909091077,
                "tempo": 120.0
            },
            {
                "start_time": 50.23863636363636,
                "end_time": 50.33863636363636,
                "pitch": 63,
                "velocity": 64,
                "duration": 0.10000000000000142,
                "tempo": 120.0
            },
            {
                "start_time": 50.33863636363636,
                "end_time": 50.43863636363636,
                "pitch": 59,
                "velocity": 64,
                "duration": 0.10000000000000142,
                "tempo": 120.0
            },
            {
                "start_time": 50.43863636363636,
                "end_time": 50.627272727272725,
                "pitch": 79,
                "velocity": 16,
                "duration": 0.1886363636363626,
                "tempo": 120.0
            },
            {
                "start_time": 50.627272727272725,
                "end_time": 50.81818181818181,
                "pitch": 74,
                "velocity": 16,
                "duration": 0.1909090909090878,
                "tempo": 120.0
            },
            {
                "start_time": 50.81818181818181,
                "end_time": 51.0,
                "pitch": 81,
                "velocity": 16,
                "duration": 0.18181818181818699,
                "tempo": 120.0
            },
            {
                "start_time": 51.002272727272725,
                "end_time": 51.20227272727273,
                "pitch": 74,
                "velocity": 16,
                "duration": 0.20000000000000284,
                "tempo": 120.0
            },
            {
                "start_time": 51.20227272727273,
                "end_time": 51.39090909090909,
                "pitch": 83,
                "velocity": 16,
                "duration": 0.1886363636363626,
                "tempo": 120.0
            },
            {
                "start_time": 51.39090909090909,
                "end_time": 51.57954545454545,
                "pitch": 74,
                "velocity": 16,
                "duration": 0.1886363636363626,
                "tempo": 120.0
            },
            {
                "start_time": 51.58181818181818,
                "end_time": 51.76363636363636,
                "pitch": 79,
                "velocity": 16,
                "duration": 0.18181818181817988,
                "tempo": 120.0
            },
            {
                "start_time": 51.76363636363636,
                "end_time": 51.965909090909086,
                "pitch": 74,
                "velocity": 16,
                "duration": 0.20227272727272805,
                "tempo": 120.0
            },
            {
                "start_time": 51.965909090909086,
                "end_time": 52.15909090909091,
                "pitch": 76,
                "velocity": 20,
                "duration": 0.19318181818182012,
                "tempo": 120.0
            },
            {
                "start_time": 52.15909090909091,
                "end_time": 52.35454545454545,
                "pitch": 71,
                "velocity": 20,
                "duration": 0.19545454545454533,
                "tempo": 120.0
            },
            {
                "start_time": 52.35454545454545,
                "end_time": 52.53181818181818,
                "pitch": 78,
                "velocity": 20,
                "duration": 0.17727272727272947,
                "tempo": 120.0
            },
            {
                "start_time": 52.53409090909091,
                "end_time": 52.72954545454545,
                "pitch": 71,
                "velocity": 20,
                "duration": 0.19545454545454533,
                "tempo": 120.0
            },
            {
                "start_time": 52.72954545454545,
                "end_time": 52.918181818181814,
                "pitch": 79,
                "velocity": 20,
                "duration": 0.1886363636363626,
                "tempo": 120.0
            },
            {
                "start_time": 52.918181818181814,
                "end_time": 53.10681818181818,
                "pitch": 71,
                "velocity": 20,
                "duration": 0.1886363636363626,
                "tempo": 120.0
            },
            {
                "start_time": 53.10681818181818,
                "end_time": 53.29090909090909,
                "pitch": 76,
                "velocity": 20,
                "duration": 0.1840909090909122,
                "tempo": 120.0
            },
            {
                "start_time": 53.29090909090909,
                "end_time": 53.490909090909085,
                "pitch": 71,
                "velocity": 20,
                "duration": 0.19999999999999574,
                "tempo": 120.0
            },
            {
                "start_time": 53.49318181818182,
                "end_time": 53.68181818181818,
                "pitch": 72,
                "velocity": 25,
                "duration": 0.1886363636363626,
                "tempo": 120.0
            },
            {
                "start_time": 53.68181818181818,
                "end_time": 53.87045454545454,
                "pitch": 67,
                "velocity": 25,
                "duration": 0.1886363636363626,
                "tempo": 120.0
            },
            {
                "start_time": 53.87045454545454,
                "end_time": 54.054545454545455,
                "pitch": 74,
                "velocity": 25,
                "duration": 0.1840909090909122,
                "tempo": 120.0
            },
            {
                "start_time": 54.054545454545455,
                "end_time": 54.25454545454545,
                "pitch": 67,
                "velocity": 25,
                "duration": 0.19999999999999574,
                "tempo": 120.0
            },
            {
                "start_time": 54.25454545454545,
                "end_time": 54.445454545454545,
                "pitch": 76,
                "velocity": 25,
                "duration": 0.19090909090909491,
                "tempo": 120.0
            },
            {
                "start_time": 54.445454545454545,
                "end_time": 54.63409090909091,
                "pitch": 67,
                "velocity": 25,
                "duration": 0.1886363636363626,
                "tempo": 120.0
            },
            {
                "start_time": 54.63409090909091,
                "end_time": 54.81818181818181,
                "pitch": 72,
                "velocity": 25,
                "duration": 0.18409090909090509,
                "tempo": 120.0
            },
            {
                "start_time": 54.81818181818181,
                "end_time": 55.018181818181816,
                "pitch": 67,
                "velocity": 25,
                "duration": 0.20000000000000284,
                "tempo": 120.0
            },
            {
                "start_time": 55.018181818181816,
                "end_time": 55.209090909090904,
                "pitch": 71,
                "velocity": 32,
                "duration": 0.1909090909090878,
                "tempo": 120.0
            },
            {
                "start_time": 55.209090909090904,
                "end_time": 55.39772727272727,
                "pitch": 62,
                "velocity": 32,
                "duration": 0.1886363636363697,
                "tempo": 120.0
            },
            {
                "start_time": 55.39772727272727,
                "end_time": 55.58181818181818,
                "pitch": 69,
                "velocity": 32,
                "duration": 0.18409090909090509,
                "tempo": 120.0
            },
            {
                "start_time": 55.58181818181818,
                "end_time": 55.78181818181818,
                "pitch": 62,
                "velocity": 32,
                "duration": 0.20000000000000284,
                "tempo": 120.0
            },
            {
                "start_time": 55.78181818181818,
                "end_time": 55.97727272727273,
                "pitch": 67,
                "velocity": 32,
                "duration": 0.19545454545454533,
                "tempo": 120.0
            },
            {
                "start_time": 55.97727272727273,
                "end_time": 56.17045454545454,
                "pitch": 62,
                "velocity": 32,
                "duration": 0.19318181818181301,
                "tempo": 120.0
            },
            {
                "start_time": 56.17045454545454,
                "end_time": 56.349999999999994,
                "pitch": 66,
                "velocity": 32,
                "duration": 0.17954545454545467,
                "tempo": 120.0
            },
            {
                "start_time": 56.349999999999994,
                "end_time": 56.54545454545454,
                "pitch": 62,
                "velocity": 32,
                "duration": 0.19545454545454533,
                "tempo": 120.0
            },
            {
                "start_time": 56.54545454545454,
                "end_time": 56.73863636363636,
                "pitch": 79,
                "velocity": 40,
                "duration": 0.19318181818182012,
                "tempo": 120.0
            },
            {
                "start_time": 56.740909090909085,
                "end_time": 56.934090909090905,
                "pitch": 74,
                "velocity": 40,
                "duration": 0.19318181818182012,
                "tempo": 120.0
            },
            {
                "start_time": 56.934090909090905,
                "end_time": 57.11818181818182,
                "pitch": 81,
                "velocity": 40,
                "duration": 0.1840909090909122,
                "tempo": 120.0
            },
            {
                "start_time": 57.11818181818182,
                "end_time": 57.31818181818181,
                "pitch": 74,
                "velocity": 40,
                "duration": 0.19999999999999574,
                "tempo": 120.0
            },
            {
                "start_time": 57.31818181818181,
                "end_time": 57.50909090909091,
                "pitch": 83,
                "velocity": 40,
                "duration": 0.19090909090909491,
                "tempo": 120.0
            },
            {
                "start_time": 57.50909090909091,
                "end_time": 57.69772727272727,
                "pitch": 74,
                "velocity": 40,
                "duration": 0.1886363636363626,
                "tempo": 120.0
            },
            {
                "start_time": 57.69772727272727,
                "end_time": 57.881818181818176,
                "pitch": 79,
                "velocity": 40,
                "duration": 0.18409090909090509,
                "tempo": 120.0
            },
            {
                "start_time": 57.881818181818176,
                "end_time": 58.08181818181818,
                "pitch": 74,
                "velocity": 40,
                "duration": 0.20000000000000284,
                "tempo": 120.0
            },
            {
                "start_time": 58.08181818181818,
                "end_time": 58.27272727272727,
                "pitch": 76,
                "velocity": 51,
                "duration": 0.19090909090909491,
                "tempo": 120.0
            },
            {
                "start_time": 58.27272727272727,
                "end_time": 58.461363636363636,
                "pitch": 71,
                "velocity": 51,
                "duration": 0.1886363636363626,
                "tempo": 120.0
            },
            {
                "start_time": 58.461363636363636,
                "end_time": 58.64545454545454,
                "pitch": 78,
                "velocity": 51,
                "duration": 0.18409090909090509,
                "tempo": 120.0
            },
            {
                "start_time": 58.64545454545454,
                "end_time": 58.845454545454544,
                "pitch": 71,
                "velocity": 51,
                "duration": 0.20000000000000284,
                "tempo": 120.0
            },
            {
                "start_time": 58.845454545454544,
                "end_time": 59.03409090909091,
                "pitch": 79,
                "velocity": 51,
                "duration": 0.1886363636363626,
                "tempo": 120.0
            },
            {
                "start_time": 59.03636363636363,
                "end_time": 59.224999999999994,
                "pitch": 71,
                "velocity": 51,
                "duration": 0.1886363636363626,
                "tempo": 120.0
            },
            {
                "start_time": 59.224999999999994,
                "end_time": 59.40909090909091,
                "pitch": 76,
                "velocity": 51,
                "duration": 0.1840909090909122,
                "tempo": 120.0
            },
            {
                "start_time": 59.40909090909091,
                "end_time": 59.60909090909091,
                "pitch": 71,
                "velocity": 51,
                "duration": 0.20000000000000284,
                "tempo": 120.0
            },
            {
                "start_time": 59.60909090909091,
                "end_time": 59.80227272727272,
                "pitch": 72,
                "velocity": 64,
                "duration": 0.19318181818181301,
                "tempo": 120.0
            },
            {
                "start_time": 59.80227272727272,
                "end_time": 59.99772727272727,
                "pitch": 67,
                "velocity": 64,
                "duration": 0.19545454545454533,
                "tempo": 120.0
            },
            {
                "start_time": 59.99772727272727,
                "end_time": 60.18181818181818,
                "pitch": 74,
                "velocity": 64,
                "duration": 0.1840909090909122,
                "tempo": 120.0
            },
            {
                "start_time": 60.18181818181818,
                "end_time": 60.381818181818176,
                "pitch": 67,
                "velocity": 64,
                "duration": 0.19999999999999574,
                "tempo": 120.0
            },
            {
                "start_time": 60.381818181818176,
                "end_time": 60.57272727272727,
                "pitch": 76,
                "velocity": 64,
                "duration": 0.19090909090909491,
                "tempo": 120.0
            },
            {
                "start_time": 60.57272727272727,
                "end_time": 60.76136363636363,
                "pitch": 67,
                "velocity": 64,
                "duration": 0.1886363636363626,
                "tempo": 120.0
            },
            {
                "start_time": 60.76136363636363,
                "end_time": 60.945454545454545,
                "pitch": 72,
                "velocity": 64,
                "duration": 0.1840909090909122,
                "tempo": 120.0
            },
            {
                "start_time": 60.945454545454545,
                "end_time": 61.14545454545454,
                "pitch": 67,
                "velocity": 64,
                "duration": 0.19999999999999574,
                "tempo": 120.0
            },
            {
                "start_time": 61.14545454545454,
                "end_time": 61.334090909090904,
                "pitch": 71,
                "velocity": 80,
                "duration": 0.1886363636363626,
                "tempo": 120.0
            },
            {
                "start_time": 61.336363636363636,
                "end_time": 61.525,
                "pitch": 62,
                "velocity": 80,
                "duration": 0.1886363636363626,
                "tempo": 120.0
            },
            {
                "start_time": 61.525,
                "end_time": 61.709090909090904,
                "pitch": 69,
                "velocity": 80,
                "duration": 0.18409090909090509,
                "tempo": 120.0
            },
            {
                "start_time": 61.709090909090904,
                "end_time": 61.90909090909091,
                "pitch": 62,
                "velocity": 80,
                "duration": 0.20000000000000284,
                "tempo": 120.0
            },
            {
                "start_time": 61.90909090909091,
                "end_time": 62.09772727272727,
                "pitch": 67,
                "velocity": 80,
                "duration": 0.1886363636363626,
                "tempo": 120.0
            },
            {
                "start_time": 62.099999999999994,
                "end_time": 62.288636363636364,
                "pitch": 62,
                "velocity": 80,
                "duration": 0.1886363636363697,
                "tempo": 120.0
            },
            {
                "start_time": 62.288636363636364,
                "end_time": 62.47272727272727,
                "pitch": 66,
                "velocity": 80,
                "duration": 0.18409090909090509,
                "tempo": 120.0
            },
            {
                "start_time": 62.47272727272727,
                "end_time": 62.67272727272727,
                "pitch": 62,
                "velocity": 80,
                "duration": 0.20000000000000284,
                "tempo": 120.0
            }
        ],
        "Electric Guitar (clean)": [
            {
                "start_time": 0.0022727272727272726,
                "end_time": 0.18636363636363634,
                "pitch": 28,
                "velocity": 80,
                "duration": 0.18409090909090908,
                "tempo": 120.0
            },
            {
                "start_time": 0.18636363636363634,
                "end_time": 0.36818181818181817,
                "pitch": 40,
                "velocity": 80,
                "duration": 0.18181818181818182,
                "tempo": 120.0
            },
            {
                "start_time": 0.3704545454545454,
                "end_time": 0.5477272727272727,
                "pitch": 22,
                "velocity": 80,
                "duration": 0.1772727272727273,
                "tempo": 120.0
            },
            {
                "start_time": 0.5499999999999999,
                "end_time": 0.7454545454545454,
                "pitch": 34,
                "velocity": 80,
                "duration": 0.19545454545454544,
                "tempo": 120.0
            },
            {
                "start_time": 0.7454545454545454,
                "end_time": 0.9340909090909091,
                "pitch": 23,
                "velocity": 80,
                "duration": 0.1886363636363637,
                "tempo": 120.0
            },
            {
                "start_time": 0.9340909090909091,
                "end_time": 1.1227272727272726,
                "pitch": 35,
                "velocity": 80,
                "duration": 0.1886363636363635,
                "tempo": 120.0
            },
            {
                "start_time": 1.1227272727272726,
                "end_time": 1.3068181818181817,
                "pitch": 26,
                "velocity": 80,
                "duration": 0.18409090909090908,
                "tempo": 120.0
            },
            {
                "start_time": 1.3068181818181817,
                "end_time": 1.5068181818181818,
                "pitch": 38,
                "velocity": 80,
                "duration": 0.20000000000000018,
                "tempo": 120.0
            },
            {
                "start_time": 1.509090909090909,
                "end_time": 1.6977272727272728,
                "pitch": 28,
                "velocity": 80,
                "duration": 0.1886363636363637,
                "tempo": 120.0
            },
            {
                "start_time": 1.6977272727272728,
                "end_time": 1.8863636363636362,
                "pitch": 40,
                "velocity": 80,
                "duration": 0.1886363636363635,
                "tempo": 120.0
            },
            {
                "start_time": 1.8863636363636362,
                "end_time": 2.0704545454545453,
                "pitch": 22,
                "velocity": 80,
                "duration": 0.18409090909090908,
                "tempo": 120.0
            },
            {
                "start_time": 2.0704545454545453,
                "end_time": 2.2704545454545455,
                "pitch": 34,
                "velocity": 80,
                "duration": 0.20000000000000018,
                "tempo": 120.0
            },
            {
                "start_time": 2.2704545454545455,
                "end_time": 2.4613636363636364,
                "pitch": 23,
                "velocity": 80,
                "duration": 0.19090909090909092,
                "tempo": 120.0
            },
            {
                "start_time": 2.4613636363636364,
                "end_time": 2.65,
                "pitch": 35,
                "velocity": 80,
                "duration": 0.1886363636363635,
                "tempo": 120.0
            },
            {
                "start_time": 2.65,
                "end_time": 2.834090909090909,
                "pitch": 18,
                "velocity": 80,
                "duration": 0.18409090909090908,
                "tempo": 120.0
            },
            {
                "start_time": 2.834090909090909,
                "end_time": 3.0340909090909087,
                "pitch": 30,
                "velocity": 80,
                "duration": 0.19999999999999973,
                "tempo": 120.0
            },
            {
                "start_time": 3.0340909090909087,
                "end_time": 3.2249999999999996,
                "pitch": 28,
                "velocity": 80,
                "duration": 0.19090909090909092,
                "tempo": 120.0
            },
            {
                "start_time": 3.2249999999999996,
                "end_time": 3.4136363636363636,
                "pitch": 40,
                "velocity": 80,
                "duration": 0.18863636363636394,
                "tempo": 120.0
            },
            {
                "start_time": 3.4136363636363636,
                "end_time": 3.5977272727272727,
                "pitch": 22,
                "velocity": 80,
                "duration": 0.18409090909090908,
                "tempo": 120.0
            },
            {
                "start_time": 3.5977272727272727,
                "end_time": 3.7977272727272724,
                "pitch": 34,
                "velocity": 80,
                "duration": 0.19999999999999973,
                "tempo": 120.0
            },
            {
                "start_time": 3.7977272727272724,
                "end_time": 3.9886363636363633,
                "pitch": 23,
                "velocity": 80,
                "duration": 0.19090909090909092,
                "tempo": 120.0
            },
            {
                "start_time": 3.9886363636363633,
                "end_time": 4.177272727272727,
                "pitch": 35,
                "velocity": 80,
                "duration": 0.1886363636363635,
                "tempo": 120.0
            },
            {
                "start_time": 4.177272727272727,
                "end_time": 4.36590909090909,
                "pitch": 26,
                "velocity": 80,
                "duration": 0.1886363636363635,
                "tempo": 120.0
            },
            {
                "start_time": 4.368181818181818,
                "end_time": 4.572727272727272,
                "pitch": 38,
                "velocity": 80,
                "duration": 0.20454545454545414,
                "tempo": 120.0
            },
            {
                "start_time": 4.572727272727272,
                "end_time": 4.756818181818182,
                "pitch": 28,
                "velocity": 80,
                "duration": 0.18409090909090953,
                "tempo": 120.0
            },
            {
                "start_time": 4.756818181818182,
                "end_time": 4.9409090909090905,
                "pitch": 40,
                "velocity": 80,
                "duration": 0.18409090909090864,
                "tempo": 120.0
            },
            {
                "start_time": 4.9409090909090905,
                "end_time": 5.125,
                "pitch": 22,
                "velocity": 80,
                "duration": 0.18409090909090953,
                "tempo": 120.0
            },
            {
                "start_time": 5.125,
                "end_time": 5.325,
                "pitch": 34,
                "velocity": 80,
                "duration": 0.20000000000000018,
                "tempo": 120.0
            },
            {
                "start_time": 5.325,
                "end_time": 5.5204545454545455,
                "pitch": 23,
                "velocity": 80,
                "duration": 0.19545454545454533,
                "tempo": 120.0
            },
            {
                "start_time": 5.5204545454545455,
                "end_time": 5.713636363636363,
                "pitch": 35,
                "velocity": 80,
                "duration": 0.19318181818181746,
                "tempo": 120.0
            },
            {
                "start_time": 5.713636363636363,
                "end_time": 5.893181818181818,
                "pitch": 18,
                "velocity": 80,
                "duration": 0.17954545454545467,
                "tempo": 120.0
            },
            {
                "start_time": 5.893181818181818,
                "end_time": 6.088636363636363,
                "pitch": 30,
                "velocity": 80,
                "duration": 0.19545454545454533,
                "tempo": 120.0
            },
            {
                "start_time": 12.21590909090909,
                "end_time": 12.404545454545454,
                "pitch": 28,
                "velocity": 80,
                "duration": 0.18863636363636438,
                "tempo": 120.0
            },
            {
                "start_time": 12.406818181818181,
                "end_time": 12.595454545454546,
                "pitch": 40,
                "velocity": 80,
                "duration": 0.18863636363636438,
                "tempo": 120.0
            },
            {
                "start_time": 12.595454545454546,
                "end_time": 12.779545454545454,
                "pitch": 22,
                "velocity": 80,
                "duration": 0.18409090909090864,
                "tempo": 120.0
            },
            {
                "start_time": 12.779545454545454,
                "end_time": 12.979545454545454,
                "pitch": 34,
                "velocity": 80,
                "duration": 0.1999999999999993,
                "tempo": 120.0
            },
            {
                "start_time": 12.979545454545454,
                "end_time": 13.168181818181818,
                "pitch": 23,
                "velocity": 80,
                "duration": 0.18863636363636438,
                "tempo": 120.0
            },
            {
                "start_time": 13.168181818181818,
                "end_time": 13.359090909090908,
                "pitch": 35,
                "velocity": 80,
                "duration": 0.19090909090908958,
                "tempo": 120.0
            },
            {
                "start_time": 13.359090909090908,
                "end_time": 13.543181818181818,
                "pitch": 26,
                "velocity": 80,
                "duration": 0.18409090909091042,
                "tempo": 120.0
            },
            {
                "start_time": 13.543181818181818,
                "end_time": 13.743181818181817,
                "pitch": 38,
                "velocity": 80,
                "duration": 0.1999999999999993,
                "tempo": 120.0
            },
            {
                "start_time": 13.743181818181817,
                "end_time": 13.931818181818182,
                "pitch": 28,
                "velocity": 80,
                "duration": 0.18863636363636438,
                "tempo": 120.0
            },
            {
                "start_time": 13.931818181818182,
                "end_time": 14.122727272727271,
                "pitch": 40,
                "velocity": 80,
                "duration": 0.19090909090908958,
                "tempo": 120.0
            },
            {
                "start_time": 14.122727272727271,
                "end_time": 14.306818181818182,
                "pitch": 22,
                "velocity": 80,
                "duration": 0.18409090909091042,
                "tempo": 120.0
            },
            {
                "start_time": 14.306818181818182,
                "end_time": 14.506818181818181,
                "pitch": 34,
                "velocity": 80,
                "duration": 0.1999999999999993,
                "tempo": 120.0
            },
            {
                "start_time": 14.506818181818181,
                "end_time": 14.695454545454545,
                "pitch": 23,
                "velocity": 80,
                "duration": 0.18863636363636438,
                "tempo": 120.0
            },
            {
                "start_time": 14.695454545454545,
                "end_time": 14.886363636363635,
                "pitch": 35,
                "velocity": 80,
                "duration": 0.19090909090908958,
                "tempo": 120.0
            },
            {
                "start_time": 14.886363636363635,
                "end_time": 15.068181818181817,
                "pitch": 18,
                "velocity": 80,
                "duration": 0.18181818181818166,
                "tempo": 120.0
            },
            {
                "start_time": 15.070454545454545,
                "end_time": 15.270454545454545,
                "pitch": 30,
                "velocity": 80,
                "duration": 0.1999999999999993,
                "tempo": 120.0
            },
            {
                "start_time": 15.270454545454545,
                "end_time": 15.459090909090909,
                "pitch": 28,
                "velocity": 80,
                "duration": 0.18863636363636438,
                "tempo": 120.0
            },
            {
                "start_time": 15.459090909090909,
                "end_time": 15.649999999999999,
                "pitch": 40,
                "velocity": 80,
                "duration": 0.19090909090908958,
                "tempo": 120.0
            },
            {
                "start_time": 15.649999999999999,
                "end_time": 15.83181818181818,
                "pitch": 22,
                "velocity": 80,
                "duration": 0.18181818181818166,
                "tempo": 120.0
            },
            {
                "start_time": 15.83181818181818,
                "end_time": 16.03409090909091,
                "pitch": 34,
                "velocity": 80,
                "duration": 0.20227272727272982,
                "tempo": 120.0
            },
            {
                "start_time": 16.03409090909091,
                "end_time": 16.222727272727273,
                "pitch": 23,
                "velocity": 80,
                "duration": 0.1886363636363626,
                "tempo": 120.0
            },
            {
                "start_time": 16.222727272727273,
                "end_time": 16.411363636363635,
                "pitch": 35,
                "velocity": 80,
                "duration": 0.1886363636363626,
                "tempo": 120.0
            },
            {
                "start_time": 16.413636363636364,
                "end_time": 16.595454545454544,
                "pitch": 26,
                "velocity": 80,
                "duration": 0.18181818181817988,
                "tempo": 120.0
            },
            {
                "start_time": 16.595454545454544,
                "end_time": 16.797727272727272,
                "pitch": 38,
                "velocity": 80,
                "duration": 0.20227272727272805,
                "tempo": 120.0
            },
            {
                "start_time": 16.797727272727272,
                "end_time": 16.986363636363635,
                "pitch": 28,
                "velocity": 80,
                "duration": 0.1886363636363626,
                "tempo": 120.0
            },
            {
                "start_time": 16.986363636363635,
                "end_time": 17.175,
                "pitch": 40,
                "velocity": 80,
                "duration": 0.18863636363636616,
                "tempo": 120.0
            },
            {
                "start_time": 17.175,
                "end_time": 17.35909090909091,
                "pitch": 22,
                "velocity": 80,
                "duration": 0.18409090909090864,
                "tempo": 120.0
            },
            {
                "start_time": 17.35909090909091,
                "end_time": 17.55909090909091,
                "pitch": 34,
                "velocity": 80,
                "duration": 0.1999999999999993,
                "tempo": 120.0
            },
            {
                "start_time": 17.561363636363634,
                "end_time": 17.75,
                "pitch": 23,
                "velocity": 80,
                "duration": 0.18863636363636616,
                "tempo": 120.0
            },
            {
                "start_time": 17.75,
                "end_time": 17.938636363636363,
                "pitch": 35,
                "velocity": 80,
                "duration": 0.1886363636363626,
                "tempo": 120.0
            },
            {
                "start_time": 17.938636363636363,
                "end_time": 18.12272727272727,
                "pitch": 18,
                "velocity": 80,
                "duration": 0.18409090909090864,
                "tempo": 120.0
            },
            {
                "start_time": 18.12272727272727,
                "end_time": 18.32272727272727,
                "pitch": 30,
                "velocity": 80,
                "duration": 0.1999999999999993,
                "tempo": 120.0
            }
        ],
        "Oboe": [
            {
                "start_time": 62.67272727272727,
                "end_time": 63.804545454545455,
                "pitch": 40,
                "velocity": 101,
                "duration": 1.1318181818181827,
                "tempo": 120.0
            },
            {
                "start_time": 63.804545454545455,
                "end_time": 63.90454545454545,
                "pitch": 40,
                "velocity": 101,
                "duration": 0.09999999999999432,
                "tempo": 120.0
            },
            {
                "start_time": 63.90454545454545,
                "end_time": 63.986363636363635,
                "pitch": 39,
                "velocity": 101,
                "duration": 0.08181818181818556,
                "tempo": 120.0
            },
            {
                "start_time": 63.986363636363635,
                "end_time": 64.18863636363636,
                "pitch": 38,
                "velocity": 101,
                "duration": 0.20227272727272805,
                "tempo": 120.0
            },
            {
                "start_time": 64.18863636363636,
                "end_time": 65.3409090909091,
                "pitch": 36,
                "velocity": 101,
                "duration": 1.152272727272731,
                "tempo": 120.0
            },
            {
                "start_time": 65.3409090909091,
                "end_time": 65.44090909090909,
                "pitch": 36,
                "velocity": 101,
                "duration": 0.09999999999999432,
                "tempo": 120.0
            },
            {
                "start_time": 65.44090909090909,
                "end_time": 65.52499999999999,
                "pitch": 35,
                "velocity": 101,
                "duration": 0.08409090909090366,
                "tempo": 120.0
            },
            {
                "start_time": 65.52499999999999,
                "end_time": 65.725,
                "pitch": 34,
                "velocity": 101,
                "duration": 0.20000000000000284,
                "tempo": 120.0
            },
            {
                "start_time": 65.725,
                "end_time": 66.86818181818181,
                "pitch": 33,
                "velocity": 101,
                "duration": 1.1431818181818159,
                "tempo": 120.0
            },
            {
                "start_time": 66.86818181818181,
                "end_time": 66.96818181818182,
                "pitch": 33,
                "velocity": 101,
                "duration": 0.10000000000000853,
                "tempo": 120.0
            },
            {
                "start_time": 66.96818181818182,
                "end_time": 67.05,
                "pitch": 32,
                "velocity": 101,
                "duration": 0.08181818181817846,
                "tempo": 120.0
            },
            {
                "start_time": 67.05,
                "end_time": 67.25227272727273,
                "pitch": 31,
                "velocity": 101,
                "duration": 0.20227272727272805,
                "tempo": 120.0
            },
            {
                "start_time": 67.25227272727273,
                "end_time": 68.01590909090909,
                "pitch": 30,
                "velocity": 101,
                "duration": 0.7636363636363654,
                "tempo": 120.0
            },
            {
                "start_time": 68.01590909090909,
                "end_time": 68.39545454545454,
                "pitch": 35,
                "velocity": 101,
                "duration": 0.3795454545454504,
                "tempo": 120.0
            },
            {
                "start_time": 68.39545454545454,
                "end_time": 68.77954545454546,
                "pitch": 38,
                "velocity": 101,
                "duration": 0.38409090909091503,
                "tempo": 120.0
            },
            {
                "start_time": 68.77954545454546,
                "end_time": 69.92045454545455,
                "pitch": 40,
                "velocity": 101,
                "duration": 1.1409090909090907,
                "tempo": 120.0
            },
            {
                "start_time": 69.92272727272727,
                "end_time": 70.02045454545454,
                "pitch": 40,
                "velocity": 101,
                "duration": 0.09772727272726911,
                "tempo": 120.0
            },
            {
                "start_time": 70.02045454545454,
                "end_time": 70.10454545454544,
                "pitch": 39,
                "velocity": 101,
                "duration": 0.08409090909090366,
                "tempo": 120.0
            },
            {
                "start_time": 70.10454545454544,
                "end_time": 70.30681818181817,
                "pitch": 38,
                "velocity": 101,
                "duration": 0.20227272727272805,
                "tempo": 120.0
            },
            {
                "start_time": 70.30681818181817,
                "end_time": 71.45681818181818,
                "pitch": 36,
                "velocity": 101,
                "duration": 1.1500000000000057,
                "tempo": 120.0
            },
            {
                "start_time": 71.45681818181818,
                "end_time": 71.55681818181817,
                "pitch": 36,
                "velocity": 101,
                "duration": 0.09999999999999432,
                "tempo": 120.0
            },
            {
                "start_time": 71.55909090909091,
                "end_time": 71.64090909090909,
                "pitch": 35,
                "velocity": 101,
                "duration": 0.08181818181817846,
                "tempo": 120.0
            },
            {
                "start_time": 71.64090909090909,
                "end_time": 71.84318181818182,
                "pitch": 34,
                "velocity": 101,
                "duration": 0.20227272727272805,
                "tempo": 120.0
            },
            {
                "start_time": 71.84318181818182,
                "end_time": 72.98409090909091,
                "pitch": 33,
                "velocity": 101,
                "duration": 1.1409090909090907,
                "tempo": 120.0
            },
            {
                "start_time": 72.98636363636363,
                "end_time": 73.0840909090909,
                "pitch": 33,
                "velocity": 101,
                "duration": 0.09772727272726911,
                "tempo": 120.0
            },
            {
                "start_time": 73.0840909090909,
                "end_time": 73.16818181818182,
                "pitch": 32,
                "velocity": 101,
                "duration": 0.08409090909091788,
                "tempo": 120.0
            },
            {
                "start_time": 73.16818181818182,
                "end_time": 73.37045454545454,
                "pitch": 31,
                "velocity": 101,
                "duration": 0.20227272727271384,
                "tempo": 120.0
            },
            {
                "start_time": 73.37045454545454,
                "end_time": 74.13181818181818,
                "pitch": 30,
                "velocity": 101,
                "duration": 0.7613636363636402,
                "tempo": 120.0
            },
            {
                "start_time": 74.1340909090909,
                "end_time": 74.51136363636363,
                "pitch": 35,
                "velocity": 101,
                "duration": 0.3772727272727252,
                "tempo": 120.0
            },
            {
                "start_time": 74.51136363636363,
                "end_time": 74.89545454545454,
                "pitch": 38,
                "velocity": 101,
                "duration": 0.38409090909091503,
                "tempo": 120.0
            },
            {
                "start_time": 75.27499999999999,
                "end_time": 75.6590909090909,
                "pitch": 40,
                "velocity": 101,
                "duration": 0.38409090909091503,
                "tempo": 120.0
            },
            {
                "start_time": 75.6590909090909,
                "end_time": 75.85,
                "pitch": 38,
                "velocity": 101,
                "duration": 0.1909090909090878,
                "tempo": 120.0
            },
            {
                "start_time": 75.85,
                "end_time": 76.22272727272727,
                "pitch": 40,
                "velocity": 101,
                "duration": 0.3727272727272748,
                "tempo": 120.0
            },
            {
                "start_time": 76.22272727272727,
                "end_time": 76.42272727272727,
                "pitch": 40,
                "velocity": 101,
                "duration": 0.20000000000000284,
                "tempo": 120.0
            },
            {
                "start_time": 76.42272727272727,
                "end_time": 76.61136363636363,
                "pitch": 40,
                "velocity": 40,
                "duration": 0.1886363636363626,
                "tempo": 120.0
            },
            {
                "start_time": 76.61136363636363,
                "end_time": 76.80227272727272,
                "pitch": 40,
                "velocity": 32,
                "duration": 0.1909090909090878,
                "tempo": 120.0
            },
            {
                "start_time": 76.80227272727272,
                "end_time": 76.99090909090908,
                "pitch": 40,
                "velocity": 25,
                "duration": 0.1886363636363626,
                "tempo": 120.0
            },
            {
                "start_time": 76.99090909090908,
                "end_time": 77.19772727272726,
                "pitch": 40,
                "velocity": 20,
                "duration": 0.20681818181817846,
                "tempo": 120.0
            },
            {
                "start_time": 77.19772727272726,
                "end_time": 77.38863636363637,
                "pitch": 40,
                "velocity": 16,
                "duration": 0.19090909090910202,
                "tempo": 120.0
            },
            {
                "start_time": 77.38863636363637,
                "end_time": 77.57727272727273,
                "pitch": 40,
                "velocity": 13,
                "duration": 0.1886363636363626,
                "tempo": 120.0
            },
            {
                "start_time": 77.57727272727273,
                "end_time": 77.76136363636363,
                "pitch": 40,
                "velocity": 10,
                "duration": 0.18409090909089798,
                "tempo": 120.0
            },
            {
                "start_time": 77.76136363636363,
                "end_time": 77.96363636363635,
                "pitch": 40,
                "velocity": 8,
                "duration": 0.20227272727272805,
                "tempo": 120.0
            }
        ]
    }
}