{
    "track_id": "10 Light Step",
    "mood": "happy",
    "instruments": {
        "Acoustic Grand Piano": [
            {
                "start_time": 0.011363636363636364,
                "end_time": 0.10454545454545454,
                "pitch": 0,
                "velocity": 4,
                "duration": 0.09318181818181817,
                "tempo": 120.0
            },
            {
                "start_time": 0.10454545454545454,
                "end_time": 1.05,
                "pitch": 0,
                "velocity": 4,
                "duration": 0.9454545454545455,
                "tempo": 120.0
            },
            {
                "start_time": 1.05,
                "end_time": 1.093181818181818,
                "pitch": 35,
                "velocity": 101,
                "duration": 0.04318181818181799,
                "tempo": 120.0
            },
            {
                "start_time": 1.1636363636363636,
                "end_time": 1.2909090909090908,
                "pitch": 35,
                "velocity": 4,
                "duration": 0.1272727272727272,
                "tempo": 120.0
            },
            {
                "start_time": 1.2909090909090908,
                "end_time": 1.334090909090909,
                "pitch": 35,
                "velocity": 101,
                "duration": 0.04318181818181821,
                "tempo": 120.0
            },
            {
                "start_time": 1.409090909090909,
                "end_time": 1.5318181818181817,
                "pitch": 35,
                "velocity": 4,
                "duration": 0.1227272727272728,
                "tempo": 120.0
            },
            {
                "start_time": 1.5318181818181817,
                "end_time": 1.5727272727272728,
                "pitch": 38,
                "velocity": 4,
                "duration": 0.040909090909091006,
                "tempo": 120.0
            },
            {
                "start_time": 1.5318181818181817,
                "end_time": 1.5727272727272728,
                "pitch": 38,
                "velocity": 101,
                "duration": 0.040909090909091006,
                "tempo": 120.0
            },
            {
                "start_time": 1.6522727272727271,
                "end_time": 1.690909090909091,
                "pitch": 40,
                "velocity": 101,
                "duration": 0.0386363636363638,
                "tempo": 120.0
            },
            {
                "start_time": 1.7613636363636362,
                "end_time": 1.809090909090909,
                "pitch": 28,
                "velocity": 101,
                "duration": 0.04772727272727284,
                "tempo": 120.0
            },
            {
                "start_time": 1.8863636363636362,
                "end_time": 1.9272727272727272,
                "pitch": 40,
                "velocity": 101,
                "duration": 0.040909090909091006,
                "tempo": 120.0
            },
            {
                "start_time": 2.0045454545454544,
                "end_time": 2.077272727272727,
                "pitch": 28,
                "velocity": 101,
                "duration": 0.07272727272727275,
                "tempo": 120.0
            },
            {
                "start_time": 2.2363636363636363,
                "end_time": 2.2772727272727273,
                "pitch": 31,
                "velocity": 101,
                "duration": 0.040909090909091006,
                "tempo": 120.0
            },
            {
                "start_time": 2.35,
                "end_time": 2.4681818181818183,
                "pitch": 31,
                "velocity": 4,
                "duration": 0.11818181818181817,
                "tempo": 120.0
            },
            {
                "start_time": 2.4681818181818183,
                "end_time": 2.5113636363636362,
                "pitch": 33,
                "velocity": 4,
                "duration": 0.04318181818181799,
                "tempo": 120.0
            },
            {
                "start_time": 2.4681818181818183,
                "end_time": 2.5113636363636362,
                "pitch": 33,
                "velocity": 101,
                "duration": 0.04318181818181799,
                "tempo": 120.0
            },
            {
                "start_time": 2.584090909090909,
                "end_time": 2.693181818181818,
                "pitch": 33,
                "velocity": 4,
                "duration": 0.1090909090909089,
                "tempo": 120.0
            },
            {
                "start_time": 2.693181818181818,
                "end_time": 2.7409090909090907,
                "pitch": 31,
                "velocity": 4,
                "duration": 0.04772727272727284,
                "tempo": 120.0
            },
            {
                "start_time": 2.6954545454545453,
                "end_time": 2.7409090909090907,
                "pitch": 31,
                "velocity": 101,
                "duration": 0.045454545454545414,
                "tempo": 120.0
            },
            {
                "start_time": 2.8136363636363635,
                "end_time": 2.925,
                "pitch": 31,
                "velocity": 4,
                "duration": 0.11136363636363633,
                "tempo": 120.0
            },
            {
                "start_time": 2.925,
                "end_time": 3.0568181818181817,
                "pitch": 33,
                "velocity": 4,
                "duration": 0.13181818181818183,
                "tempo": 120.0
            },
            {
                "start_time": 2.9272727272727272,
                "end_time": 3.0568181818181817,
                "pitch": 33,
                "velocity": 101,
                "duration": 0.1295454545454544,
                "tempo": 120.0
            },
            {
                "start_time": 3.275,
                "end_time": 3.3249999999999997,
                "pitch": 35,
                "velocity": 101,
                "duration": 0.04999999999999982,
                "tempo": 120.0
            },
            {
                "start_time": 3.3909090909090907,
                "end_time": 3.5113636363636362,
                "pitch": 35,
                "velocity": 4,
                "duration": 0.12045454545454559,
                "tempo": 120.0
            },
            {
                "start_time": 3.5113636363636362,
                "end_time": 3.5545454545454542,
                "pitch": 33,
                "velocity": 101,
                "duration": 0.04318181818181799,
                "tempo": 120.0
            },
            {
                "start_time": 3.625,
                "end_time": 3.6704545454545454,
                "pitch": 31,
                "velocity": 101,
                "duration": 0.045454545454545414,
                "tempo": 120.0
            },
            {
                "start_time": 3.7363636363636363,
                "end_time": 3.818181818181818,
                "pitch": 28,
                "velocity": 101,
                "duration": 0.08181818181818157,
                "tempo": 120.0
            },
            {
                "start_time": 3.9704545454545452,
                "end_time": 4.018181818181818,
                "pitch": 40,
                "velocity": 101,
                "duration": 0.047727272727272396,
                "tempo": 120.0
            },
            {
                "start_time": 4.088636363636364,
                "end_time": 4.134090909090909,
                "pitch": 31,
                "velocity": 101,
                "duration": 0.04545454545454497,
                "tempo": 120.0
            },
            {
                "start_time": 4.211363636363636,
                "end_time": 4.252272727272727,
                "pitch": 43,
                "velocity": 101,
                "duration": 0.040909090909091006,
                "tempo": 120.0
            },
            {
                "start_time": 4.322727272727272,
                "end_time": 4.404545454545454,
                "pitch": 33,
                "velocity": 101,
                "duration": 0.08181818181818201,
                "tempo": 120.0
            },
            {
                "start_time": 4.5636363636363635,
                "end_time": 4.6045454545454545,
                "pitch": 31,
                "velocity": 101,
                "duration": 0.040909090909091006,
                "tempo": 120.0
            },
            {
                "start_time": 4.675,
                "end_time": 4.722727272727273,
                "pitch": 28,
                "velocity": 101,
                "duration": 0.04772727272727284,
                "tempo": 120.0
            },
            {
                "start_time": 4.793181818181818,
                "end_time": 4.838636363636363,
                "pitch": 45,
                "velocity": 101,
                "duration": 0.04545454545454497,
                "tempo": 120.0
            },
            {
                "start_time": 4.915909090909091,
                "end_time": 4.956818181818182,
                "pitch": 28,
                "velocity": 101,
                "duration": 0.040909090909091006,
                "tempo": 120.0
            },
            {
                "start_time": 5.0249999999999995,
                "end_time": 5.075,
                "pitch": 46,
                "velocity": 101,
                "duration": 0.05000000000000071,
                "tempo": 120.0
            },
            {
                "start_time": 5.1454545454545455,
                "end_time": 5.225,
                "pitch": 47,
                "velocity": 101,
                "duration": 0.07954545454545414,
                "tempo": 120.0
            },
            {
                "start_time": 5.375,
                "end_time": 5.422727272727273,
                "pitch": 28,
                "velocity": 101,
                "duration": 0.04772727272727284,
                "tempo": 120.0
            },
            {
                "start_time": 5.493181818181818,
                "end_time": 5.538636363636363,
                "pitch": 42,
                "velocity": 101,
                "duration": 0.04545454545454497,
                "tempo": 120.0
            },
            {
                "start_time": 5.6068181818181815,
                "end_time": 5.652272727272727,
                "pitch": 43,
                "velocity": 101,
                "duration": 0.04545454545454586,
                "tempo": 120.0
            },
            {
                "start_time": 5.725,
                "end_time": 5.802272727272727,
                "pitch": 28,
                "velocity": 101,
                "duration": 0.07727272727272716,
                "tempo": 120.0
            },
            {
                "start_time": 5.956818181818181,
                "end_time": 6.002272727272727,
                "pitch": 31,
                "velocity": 101,
                "duration": 0.04545454545454586,
                "tempo": 120.0
            },
            {
                "start_time": 6.074999999999999,
                "end_time": 6.1909090909090905,
                "pitch": 31,
                "velocity": 4,
                "duration": 0.11590909090909118,
                "tempo": 120.0
            },
            {
                "start_time": 6.1909090909090905,
                "end_time": 6.1931818181818175,
                "pitch": 33,
                "velocity": 4,
                "duration": 0.002272727272726982,
                "tempo": 120.0
            },
            {
                "start_time": 6.1931818181818175,
                "end_time": 6.238636363636363,
                "pitch": 33,
                "velocity": 101,
                "duration": 0.04545454545454586,
                "tempo": 120.0
            },
            {
                "start_time": 6.311363636363636,
                "end_time": 6.425,
                "pitch": 33,
                "velocity": 4,
                "duration": 0.1136363636363642,
                "tempo": 120.0
            },
            {
                "start_time": 6.425,
                "end_time": 6.472727272727273,
                "pitch": 31,
                "velocity": 4,
                "duration": 0.04772727272727284,
                "tempo": 120.0
            },
            {
                "start_time": 6.425,
                "end_time": 6.472727272727273,
                "pitch": 31,
                "velocity": 101,
                "duration": 0.04772727272727284,
                "tempo": 120.0
            },
            {
                "start_time": 6.547727272727273,
                "end_time": 6.661363636363636,
                "pitch": 31,
                "velocity": 4,
                "duration": 0.11363636363636331,
                "tempo": 120.0
            },
            {
                "start_time": 6.661363636363636,
                "end_time": 6.790909090909091,
                "pitch": 33,
                "velocity": 4,
                "duration": 0.12954545454545485,
                "tempo": 120.0
            },
            {
                "start_time": 6.661363636363636,
                "end_time": 6.790909090909091,
                "pitch": 33,
                "velocity": 101,
                "duration": 0.12954545454545485,
                "tempo": 120.0
            },
            {
                "start_time": 7.011363636363636,
                "end_time": 7.059090909090909,
                "pitch": 35,
                "velocity": 101,
                "duration": 0.04772727272727284,
                "tempo": 120.0
            },
            {
                "start_time": 7.127272727272727,
                "end_time": 7.245454545454545,
                "pitch": 35,
                "velocity": 4,
                "duration": 0.11818181818181817,
                "tempo": 120.0
            },
            {
                "start_time": 7.245454545454545,
                "end_time": 7.29090909090909,
                "pitch": 33,
                "velocity": 101,
                "duration": 0.04545454545454497,
                "tempo": 120.0
            },
            {
                "start_time": 7.3590909090909085,
                "end_time": 7.404545454545454,
                "pitch": 31,
                "velocity": 101,
                "duration": 0.04545454545454586,
                "tempo": 120.0
            },
            {
                "start_time": 7.472727272727273,
                "end_time": 7.552272727272727,
                "pitch": 28,
                "velocity": 101,
                "duration": 0.07954545454545414,
                "tempo": 120.0
            },
            {
                "start_time": 7.706818181818181,
                "end_time": 7.752272727272727,
                "pitch": 40,
                "velocity": 101,
                "duration": 0.04545454545454586,
                "tempo": 120.0
            },
            {
                "start_time": 7.822727272727272,
                "end_time": 7.870454545454545,
                "pitch": 31,
                "velocity": 101,
                "duration": 0.04772727272727284,
                "tempo": 120.0
            },
            {
                "start_time": 7.9431818181818175,
                "end_time": 7.988636363636363,
                "pitch": 43,
                "velocity": 101,
                "duration": 0.04545454545454586,
                "tempo": 120.0
            },
            {
                "start_time": 8.063636363636363,
                "end_time": 8.138636363636364,
                "pitch": 33,
                "velocity": 101,
                "duration": 0.07500000000000107,
                "tempo": 120.0
            },
            {
                "start_time": 8.297727272727272,
                "end_time": 8.34090909090909,
                "pitch": 31,
                "velocity": 101,
                "duration": 0.04318181818181799,
                "tempo": 120.0
            },
            {
                "start_time": 8.415909090909091,
                "end_time": 8.456818181818182,
                "pitch": 28,
                "velocity": 101,
                "duration": 0.040909090909091006,
                "tempo": 120.0
            },
            {
                "start_time": 8.531818181818181,
                "end_time": 8.575,
                "pitch": 45,
                "velocity": 101,
                "duration": 0.04318181818181799,
                "tempo": 120.0
            },
            {
                "start_time": 8.65,
                "end_time": 8.693181818181818,
                "pitch": 28,
                "velocity": 101,
                "duration": 0.04318181818181799,
                "tempo": 120.0
            },
            {
                "start_time": 8.768181818181818,
                "end_time": 8.809090909090909,
                "pitch": 46,
                "velocity": 101,
                "duration": 0.040909090909091006,
                "tempo": 120.0
            },
            {
                "start_time": 8.886363636363637,
                "end_time": 8.961363636363636,
                "pitch": 47,
                "velocity": 101,
                "duration": 0.07499999999999929,
                "tempo": 120.0
            },
            {
                "start_time": 9.11590909090909,
                "end_time": 9.159090909090908,
                "pitch": 28,
                "velocity": 101,
                "duration": 0.04318181818181799,
                "tempo": 120.0
            },
            {
                "start_time": 9.229545454545454,
                "end_time": 9.272727272727272,
                "pitch": 42,
                "velocity": 101,
                "duration": 0.04318181818181799,
                "tempo": 120.0
            },
            {
                "start_time": 9.343181818181817,
                "end_time": 9.388636363636364,
                "pitch": 43,
                "velocity": 101,
                "duration": 0.045454545454546746,
                "tempo": 120.0
            },
            {
                "start_time": 9.461363636363636,
                "end_time": 9.536363636363635,
                "pitch": 28,
                "velocity": 101,
                "duration": 0.07499999999999929,
                "tempo": 120.0
            },
            {
                "start_time": 9.695454545454545,
                "end_time": 9.738636363636363,
                "pitch": 31,
                "velocity": 101,
                "duration": 0.04318181818181799,
                "tempo": 120.0
            },
            {
                "start_time": 9.811363636363636,
                "end_time": 9.927272727272726,
                "pitch": 31,
                "velocity": 4,
                "duration": 0.1159090909090903,
                "tempo": 120.0
            },
            {
                "start_time": 9.927272727272726,
                "end_time": 9.972727272727273,
                "pitch": 33,
                "velocity": 4,
                "duration": 0.045454545454546746,
                "tempo": 120.0
            },
            {
                "start_time": 9.927272727272726,
                "end_time": 9.972727272727273,
                "pitch": 33,
                "velocity": 101,
                "duration": 0.045454545454546746,
                "tempo": 120.0
            },
            {
                "start_time": 10.045454545454545,
                "end_time": 10.154545454545454,
                "pitch": 33,
                "velocity": 4,
                "duration": 0.10909090909090935,
                "tempo": 120.0
            },
            {
                "start_time": 10.154545454545454,
                "end_time": 10.202272727272726,
                "pitch": 31,
                "velocity": 4,
                "duration": 0.04772727272727195,
                "tempo": 120.0
            },
            {
                "start_time": 10.154545454545454,
                "end_time": 10.202272727272726,
                "pitch": 31,
                "velocity": 101,
                "duration": 0.04772727272727195,
                "tempo": 120.0
            },
            {
                "start_time": 10.275,
                "end_time": 10.386363636363637,
                "pitch": 31,
                "velocity": 4,
                "duration": 0.11136363636363633,
                "tempo": 120.0
            },
            {
                "start_time": 10.386363636363637,
                "end_time": 10.518181818181818,
                "pitch": 33,
                "velocity": 4,
                "duration": 0.13181818181818095,
                "tempo": 120.0
            },
            {
                "start_time": 10.386363636363637,
                "end_time": 10.518181818181818,
                "pitch": 33,
                "velocity": 101,
                "duration": 0.13181818181818095,
                "tempo": 120.0
            },
            {
                "start_time": 10.743181818181817,
                "end_time": 10.793181818181818,
                "pitch": 35,
                "velocity": 101,
                "duration": 0.05000000000000071,
                "tempo": 120.0
            },
            {
                "start_time": 10.863636363636363,
                "end_time": 10.98181818181818,
                "pitch": 35,
                "velocity": 4,
                "duration": 0.11818181818181728,
                "tempo": 120.0
            },
            {
                "start_time": 10.98181818181818,
                "end_time": 11.027272727272727,
                "pitch": 33,
                "velocity": 101,
                "duration": 0.045454545454546746,
                "tempo": 120.0
            },
            {
                "start_time": 11.095454545454546,
                "end_time": 11.14090909090909,
                "pitch": 31,
                "velocity": 101,
                "duration": 0.04545454545454497,
                "tempo": 120.0
            },
            {
                "start_time": 11.206818181818182,
                "end_time": 11.288636363636362,
                "pitch": 28,
                "velocity": 101,
                "duration": 0.08181818181818024,
                "tempo": 120.0
            },
            {
                "start_time": 11.443181818181818,
                "end_time": 11.488636363636363,
                "pitch": 40,
                "velocity": 101,
                "duration": 0.04545454545454497,
                "tempo": 120.0
            },
            {
                "start_time": 11.559090909090909,
                "end_time": 11.60681818181818,
                "pitch": 31,
                "velocity": 101,
                "duration": 0.04772727272727195,
                "tempo": 120.0
            },
            {
                "start_time": 11.681818181818182,
                "end_time": 11.722727272727273,
                "pitch": 43,
                "velocity": 101,
                "duration": 0.040909090909091006,
                "tempo": 120.0
            },
            {
                "start_time": 11.793181818181818,
                "end_time": 11.872727272727273,
                "pitch": 33,
                "velocity": 101,
                "duration": 0.07954545454545503,
                "tempo": 120.0
            },
            {
                "start_time": 12.027272727272727,
                "end_time": 12.068181818181818,
                "pitch": 31,
                "velocity": 101,
                "duration": 0.040909090909091006,
                "tempo": 120.0
            },
            {
                "start_time": 12.136363636363635,
                "end_time": 12.184090909090909,
                "pitch": 28,
                "velocity": 101,
                "duration": 0.04772727272727373,
                "tempo": 120.0
            },
            {
                "start_time": 12.254545454545454,
                "end_time": 12.299999999999999,
                "pitch": 45,
                "velocity": 101,
                "duration": 0.04545454545454497,
                "tempo": 120.0
            },
            {
                "start_time": 12.375,
                "end_time": 12.418181818181818,
                "pitch": 28,
                "velocity": 101,
                "duration": 0.04318181818181799,
                "tempo": 120.0
            },
            {
                "start_time": 12.486363636363636,
                "end_time": 12.534090909090908,
                "pitch": 46,
                "velocity": 101,
                "duration": 0.04772727272727195,
                "tempo": 120.0
            },
            {
                "start_time": 12.604545454545454,
                "end_time": 12.686363636363636,
                "pitch": 47,
                "velocity": 101,
                "duration": 0.08181818181818201,
                "tempo": 120.0
            },
            {
                "start_time": 12.838636363636363,
                "end_time": 12.886363636363635,
                "pitch": 28,
                "velocity": 101,
                "duration": 0.04772727272727195,
                "tempo": 120.0
            },
            {
                "start_time": 12.959090909090909,
                "end_time": 13.004545454545454,
                "pitch": 42,
                "velocity": 101,
                "duration": 0.04545454545454497,
                "tempo": 120.0
            },
            {
                "start_time": 13.075,
                "end_time": 13.122727272727271,
                "pitch": 43,
                "velocity": 101,
                "duration": 0.04772727272727195,
                "tempo": 120.0
            },
            {
                "start_time": 13.195454545454545,
                "end_time": 13.272727272727272,
                "pitch": 28,
                "velocity": 101,
                "duration": 0.07727272727272627,
                "tempo": 120.0
            },
            {
                "start_time": 13.429545454545455,
                "end_time": 13.475,
                "pitch": 31,
                "velocity": 101,
                "duration": 0.04545454545454497,
                "tempo": 120.0
            },
            {
                "start_time": 13.545454545454545,
                "end_time": 13.663636363636362,
                "pitch": 31,
                "velocity": 4,
                "duration": 0.11818181818181728,
                "tempo": 120.0
            },
            {
                "start_time": 13.663636363636362,
                "end_time": 13.706818181818182,
                "pitch": 33,
                "velocity": 4,
                "duration": 0.043181818181819764,
                "tempo": 120.0
            },
            {
                "start_time": 13.663636363636362,
                "end_time": 13.706818181818182,
                "pitch": 33,
                "velocity": 101,
                "duration": 0.043181818181819764,
                "tempo": 120.0
            },
            {
                "start_time": 13.779545454545454,
                "end_time": 13.888636363636364,
                "pitch": 33,
                "velocity": 4,
                "duration": 0.10909090909090935,
                "tempo": 120.0
            },
            {
                "start_time": 13.888636363636364,
                "end_time": 13.936363636363636,
                "pitch": 31,
                "velocity": 4,
                "duration": 0.04772727272727195,
                "tempo": 120.0
            },
            {
                "start_time": 13.89090909090909,
                "end_time": 13.936363636363636,
                "pitch": 31,
                "velocity": 101,
                "duration": 0.04545454545454497,
                "tempo": 120.0
            },
            {
                "start_time": 14.009090909090908,
                "end_time": 14.122727272727271,
                "pitch": 31,
                "velocity": 4,
                "duration": 0.11363636363636331,
                "tempo": 120.0
            },
            {
                "start_time": 14.122727272727271,
                "end_time": 14.252272727272727,
                "pitch": 33,
                "velocity": 4,
                "duration": 0.12954545454545574,
                "tempo": 120.0
            },
            {
                "start_time": 14.122727272727271,
                "end_time": 14.252272727272727,
                "pitch": 33,
                "velocity": 101,
                "duration": 0.12954545454545574,
                "tempo": 120.0
            },
            {
                "start_time": 14.470454545454544,
                "end_time": 14.520454545454545,
                "pitch": 35,
                "velocity": 101,
                "duration": 0.05000000000000071,
                "tempo": 120.0
            },
            {
                "start_time": 14.586363636363636,
                "end_time": 14.70681818181818,
                "pitch": 35,
                "velocity": 4,
                "duration": 0.12045454545454426,
                "tempo": 120.0
            },
            {
                "start_time": 14.70681818181818,
                "end_time": 14.75,
                "pitch": 33,
                "velocity": 101,
                "duration": 0.043181818181819764,
                "tempo": 120.0
            },
            {
                "start_time": 14.818181818181818,
                "end_time": 14.86590909090909,
                "pitch": 31,
                "velocity": 101,
                "duration": 0.04772727272727195,
                "tempo": 120.0
            },
            {
                "start_time": 14.931818181818182,
                "end_time": 15.013636363636364,
                "pitch": 28,
                "velocity": 101,
                "duration": 0.08181818181818201,
                "tempo": 120.0
            },
            {
                "start_time": 15.170454545454545,
                "end_time": 15.252272727272727,
                "pitch": 40,
                "velocity": 101,
                "duration": 0.08181818181818201,
                "tempo": 120.0
            },
            {
                "start_time": 15.411363636363635,
                "end_time": 15.45681818181818,
                "pitch": 40,
                "velocity": 101,
                "duration": 0.04545454545454497,
                "tempo": 120.0
            },
            {
                "start_time": 15.536363636363635,
                "end_time": 15.577272727272726,
                "pitch": 30,
                "velocity": 101,
                "duration": 0.040909090909091006,
                "tempo": 120.0
            },
            {
                "start_time": 15.647727272727272,
                "end_time": 15.727272727272727,
                "pitch": 42,
                "velocity": 101,
                "duration": 0.07954545454545503,
                "tempo": 120.0
            },
            {
                "start_time": 15.884090909090908,
                "end_time": 15.929545454545453,
                "pitch": 42,
                "velocity": 101,
                "duration": 0.04545454545454497,
                "tempo": 120.0
            },
            {
                "start_time": 16.004545454545454,
                "end_time": 16.045454545454543,
                "pitch": 31,
                "velocity": 101,
                "duration": 0.04090909090908923,
                "tempo": 120.0
            },
            {
                "start_time": 16.11590909090909,
                "end_time": 16.15909090909091,
                "pitch": 43,
                "velocity": 101,
                "duration": 0.04318181818182154,
                "tempo": 120.0
            },
            {
                "start_time": 16.229545454545455,
                "end_time": 16.275,
                "pitch": 45,
                "velocity": 101,
                "duration": 0.045454545454543194,
                "tempo": 120.0
            },
            {
                "start_time": 16.345454545454544,
                "end_time": 16.388636363636362,
                "pitch": 31,
                "velocity": 101,
                "duration": 0.04318181818181799,
                "tempo": 120.0
            },
            {
                "start_time": 16.46363636363636,
                "end_time": 16.504545454545454,
                "pitch": 50,
                "velocity": 101,
                "duration": 0.04090909090909278,
                "tempo": 120.0
            },
            {
                "start_time": 16.575,
                "end_time": 16.62272727272727,
                "pitch": 28,
                "velocity": 101,
                "duration": 0.04772727272727195,
                "tempo": 120.0
            },
            {
                "start_time": 16.693181818181817,
                "end_time": 16.74090909090909,
                "pitch": 50,
                "velocity": 101,
                "duration": 0.04772727272727195,
                "tempo": 120.0
            },
            {
                "start_time": 16.813636363636363,
                "end_time": 16.85681818181818,
                "pitch": 52,
                "velocity": 101,
                "duration": 0.04318181818181799,
                "tempo": 120.0
            },
            {
                "start_time": 16.93409090909091,
                "end_time": 16.974999999999998,
                "pitch": 28,
                "velocity": 101,
                "duration": 0.04090909090908923,
                "tempo": 120.0
            },
            {
                "start_time": 17.045454545454543,
                "end_time": 17.125,
                "pitch": 40,
                "velocity": 101,
                "duration": 0.0795454545454568,
                "tempo": 120.0
            },
            {
                "start_time": 17.279545454545453,
                "end_time": 17.327272727272728,
                "pitch": 40,
                "velocity": 101,
                "duration": 0.047727272727275505,
                "tempo": 120.0
            },
            {
                "start_time": 17.402272727272727,
                "end_time": 17.445454545454545,
                "pitch": 42,
                "velocity": 101,
                "duration": 0.04318181818181799,
                "tempo": 120.0
            },
            {
                "start_time": 17.513636363636362,
                "end_time": 17.561363636363634,
                "pitch": 30,
                "velocity": 101,
                "duration": 0.04772727272727195,
                "tempo": 120.0
            },
            {
                "start_time": 17.631818181818183,
                "end_time": 17.679545454545455,
                "pitch": 42,
                "velocity": 101,
                "duration": 0.04772727272727195,
                "tempo": 120.0
            },
            {
                "start_time": 17.754545454545454,
                "end_time": 17.797727272727272,
                "pitch": 30,
                "velocity": 101,
                "duration": 0.04318181818181799,
                "tempo": 120.0
            },
            {
                "start_time": 17.86590909090909,
                "end_time": 17.913636363636364,
                "pitch": 43,
                "velocity": 101,
                "duration": 0.047727272727275505,
                "tempo": 120.0
            },
            {
                "start_time": 17.979545454545455,
                "end_time": 18.027272727272727,
                "pitch": 28,
                "velocity": 101,
                "duration": 0.04772727272727195,
                "tempo": 120.0
            },
            {
                "start_time": 18.097727272727273,
                "end_time": 18.143181818181816,
                "pitch": 45,
                "velocity": 101,
                "duration": 0.045454545454543194,
                "tempo": 120.0
            },
            {
                "start_time": 18.209090909090907,
                "end_time": 18.29090909090909,
                "pitch": 43,
                "velocity": 101,
                "duration": 0.08181818181818201,
                "tempo": 120.0
            },
            {
                "start_time": 18.438636363636363,
                "end_time": 18.486363636363635,
                "pitch": 35,
                "velocity": 101,
                "duration": 0.04772727272727195,
                "tempo": 120.0
            },
            {
                "start_time": 18.55681818181818,
                "end_time": 18.602272727272727,
                "pitch": 38,
                "velocity": 101,
                "duration": 0.045454545454546746,
                "tempo": 120.0
            },
            {
                "start_time": 18.668181818181818,
                "end_time": 18.71590909090909,
                "pitch": 40,
                "velocity": 101,
                "duration": 0.04772727272727195,
                "tempo": 120.0
            },
            {
                "start_time": 18.788636363636364,
                "end_time": 18.831818181818182,
                "pitch": 28,
                "velocity": 101,
                "duration": 0.04318181818181799,
                "tempo": 120.0
            },
            {
                "start_time": 18.90681818181818,
                "end_time": 18.986363636363635,
                "pitch": 40,
                "velocity": 101,
                "duration": 0.07954545454545325,
                "tempo": 120.0
            },
            {
                "start_time": 19.147727272727273,
                "end_time": 19.193181818181817,
                "pitch": 40,
                "velocity": 101,
                "duration": 0.045454545454543194,
                "tempo": 120.0
            },
            {
                "start_time": 19.268181818181816,
                "end_time": 19.311363636363634,
                "pitch": 43,
                "velocity": 101,
                "duration": 0.04318181818181799,
                "tempo": 120.0
            },
            {
                "start_time": 19.379545454545454,
                "end_time": 19.425,
                "pitch": 31,
                "velocity": 101,
                "duration": 0.045454545454546746,
                "tempo": 120.0
            },
            {
                "start_time": 19.495454545454546,
                "end_time": 19.54090909090909,
                "pitch": 43,
                "velocity": 101,
                "duration": 0.045454545454543194,
                "tempo": 120.0
            },
            {
                "start_time": 19.61590909090909,
                "end_time": 19.654545454545453,
                "pitch": 31,
                "velocity": 101,
                "duration": 0.038636363636364024,
                "tempo": 120.0
            },
            {
                "start_time": 19.722727272727273,
                "end_time": 19.770454545454545,
                "pitch": 45,
                "velocity": 101,
                "duration": 0.04772727272727195,
                "tempo": 120.0
            },
            {
                "start_time": 19.84090909090909,
                "end_time": 19.888636363636362,
                "pitch": 28,
                "velocity": 101,
                "duration": 0.04772727272727195,
                "tempo": 120.0
            },
            {
                "start_time": 19.959090909090907,
                "end_time": 20.00681818181818,
                "pitch": 46,
                "velocity": 101,
                "duration": 0.04772727272727195,
                "tempo": 120.0
            },
            {
                "start_time": 20.075,
                "end_time": 20.15681818181818,
                "pitch": 47,
                "velocity": 101,
                "duration": 0.08181818181818201,
                "tempo": 120.0
            },
            {
                "start_time": 20.30909090909091,
                "end_time": 20.354545454545452,
                "pitch": 45,
                "velocity": 101,
                "duration": 0.045454545454543194,
                "tempo": 120.0
            },
            {
                "start_time": 20.425,
                "end_time": 20.46818181818182,
                "pitch": 47,
                "velocity": 101,
                "duration": 0.04318181818181799,
                "tempo": 120.0
            },
            {
                "start_time": 20.538636363636364,
                "end_time": 20.584090909090907,
                "pitch": 26,
                "velocity": 101,
                "duration": 0.045454545454543194,
                "tempo": 120.0
            },
            {
                "start_time": 20.65681818181818,
                "end_time": 20.7,
                "pitch": 28,
                "velocity": 101,
                "duration": 0.04318181818181799,
                "tempo": 120.0
            },
            {
                "start_time": 20.772727272727273,
                "end_time": 20.854545454545452,
                "pitch": 40,
                "velocity": 101,
                "duration": 0.08181818181817846,
                "tempo": 120.0
            },
            {
                "start_time": 21.013636363636362,
                "end_time": 21.061363636363634,
                "pitch": 40,
                "velocity": 101,
                "duration": 0.04772727272727195,
                "tempo": 120.0
            },
            {
                "start_time": 21.136363636363637,
                "end_time": 21.179545454545455,
                "pitch": 42,
                "velocity": 101,
                "duration": 0.04318181818181799,
                "tempo": 120.0
            },
            {
                "start_time": 21.24772727272727,
                "end_time": 21.293181818181818,
                "pitch": 30,
                "velocity": 101,
                "duration": 0.045454545454546746,
                "tempo": 120.0
            },
            {
                "start_time": 21.363636363636363,
                "end_time": 21.409090909090907,
                "pitch": 42,
                "velocity": 101,
                "duration": 0.045454545454543194,
                "tempo": 120.0
            },
            {
                "start_time": 21.48181818181818,
                "end_time": 21.522727272727273,
                "pitch": 30,
                "velocity": 101,
                "duration": 0.04090909090909278,
                "tempo": 120.0
            },
            {
                "start_time": 21.59090909090909,
                "end_time": 21.638636363636362,
                "pitch": 43,
                "velocity": 101,
                "duration": 0.04772727272727195,
                "tempo": 120.0
            },
            {
                "start_time": 21.706818181818182,
                "end_time": 21.75681818181818,
                "pitch": 28,
                "velocity": 101,
                "duration": 0.04999999999999716,
                "tempo": 120.0
            },
            {
                "start_time": 21.827272727272724,
                "end_time": 21.875,
                "pitch": 45,
                "velocity": 101,
                "duration": 0.047727272727275505,
                "tempo": 120.0
            },
            {
                "start_time": 21.943181818181817,
                "end_time": 22.025,
                "pitch": 43,
                "velocity": 101,
                "duration": 0.08181818181818201,
                "tempo": 120.0
            },
            {
                "start_time": 22.174999999999997,
                "end_time": 22.222727272727273,
                "pitch": 35,
                "velocity": 101,
                "duration": 0.047727272727275505,
                "tempo": 120.0
            },
            {
                "start_time": 22.293181818181818,
                "end_time": 22.336363636363636,
                "pitch": 38,
                "velocity": 101,
                "duration": 0.04318181818181799,
                "tempo": 120.0
            },
            {
                "start_time": 22.404545454545453,
                "end_time": 22.452272727272724,
                "pitch": 40,
                "velocity": 101,
                "duration": 0.04772727272727195,
                "tempo": 120.0
            },
            {
                "start_time": 22.525,
                "end_time": 22.568181818181817,
                "pitch": 38,
                "velocity": 101,
                "duration": 0.04318181818181799,
                "tempo": 120.0
            },
            {
                "start_time": 22.638636363636362,
                "end_time": 22.68409090909091,
                "pitch": 28,
                "velocity": 101,
                "duration": 0.045454545454546746,
                "tempo": 120.0
            },
            {
                "start_time": 22.75681818181818,
                "end_time": 22.802272727272726,
                "pitch": 38,
                "velocity": 101,
                "duration": 0.045454545454546746,
                "tempo": 120.0
            },
            {
                "start_time": 22.877272727272725,
                "end_time": 22.952272727272724,
                "pitch": 40,
                "velocity": 101,
                "duration": 0.07499999999999929,
                "tempo": 120.0
            },
            {
                "start_time": 23.10909090909091,
                "end_time": 23.154545454545453,
                "pitch": 26,
                "velocity": 101,
                "duration": 0.045454545454543194,
                "tempo": 120.0
            },
            {
                "start_time": 23.227272727272727,
                "end_time": 23.272727272727273,
                "pitch": 27,
                "velocity": 101,
                "duration": 0.045454545454546746,
                "tempo": 120.0
            },
            {
                "start_time": 23.34318181818182,
                "end_time": 23.422727272727272,
                "pitch": 28,
                "velocity": 101,
                "duration": 0.07954545454545325,
                "tempo": 120.0
            },
            {
                "start_time": 23.577272727272724,
                "end_time": 23.625,
                "pitch": 42,
                "velocity": 101,
                "duration": 0.047727272727275505,
                "tempo": 120.0
            },
            {
                "start_time": 23.693181818181817,
                "end_time": 23.74090909090909,
                "pitch": 28,
                "velocity": 101,
                "duration": 0.04772727272727195,
                "tempo": 120.0
            },
            {
                "start_time": 23.813636363636363,
                "end_time": 23.85909090909091,
                "pitch": 42,
                "velocity": 101,
                "duration": 0.045454545454546746,
                "tempo": 120.0
            },
            {
                "start_time": 23.929545454545455,
                "end_time": 23.974999999999998,
                "pitch": 28,
                "velocity": 101,
                "duration": 0.045454545454543194,
                "tempo": 120.0
            },
            {
                "start_time": 24.045454545454543,
                "end_time": 24.09090909090909,
                "pitch": 42,
                "velocity": 101,
                "duration": 0.045454545454546746,
                "tempo": 120.0
            },
            {
                "start_time": 24.159090909090907,
                "end_time": 24.236363636363635,
                "pitch": 43,
                "velocity": 101,
                "duration": 0.07727272727272805,
                "tempo": 120.0
            },
            {
                "start_time": 24.393181818181816,
                "end_time": 24.436363636363634,
                "pitch": 28,
                "velocity": 101,
                "duration": 0.04318181818181799,
                "tempo": 120.0
            },
            {
                "start_time": 24.504545454545454,
                "end_time": 24.586363636363636,
                "pitch": 40,
                "velocity": 101,
                "duration": 0.08181818181818201,
                "tempo": 120.0
            },
            {
                "start_time": 24.74090909090909,
                "end_time": 24.788636363636364,
                "pitch": 40,
                "velocity": 101,
                "duration": 0.047727272727275505,
                "tempo": 120.0
            },
            {
                "start_time": 24.861363636363635,
                "end_time": 24.904545454545453,
                "pitch": 42,
                "velocity": 101,
                "duration": 0.04318181818181799,
                "tempo": 120.0
            },
            {
                "start_time": 24.974999999999998,
                "end_time": 25.02272727272727,
                "pitch": 30,
                "velocity": 101,
                "duration": 0.04772727272727195,
                "tempo": 120.0
            },
            {
                "start_time": 25.09318181818182,
                "end_time": 25.138636363636362,
                "pitch": 42,
                "velocity": 101,
                "duration": 0.045454545454543194,
                "tempo": 120.0
            },
            {
                "start_time": 25.21590909090909,
                "end_time": 25.25681818181818,
                "pitch": 30,
                "velocity": 101,
                "duration": 0.04090909090908923,
                "tempo": 120.0
            },
            {
                "start_time": 25.327272727272724,
                "end_time": 25.375,
                "pitch": 43,
                "velocity": 101,
                "duration": 0.047727272727275505,
                "tempo": 120.0
            },
            {
                "start_time": 25.443181818181817,
                "end_time": 25.49090909090909,
                "pitch": 28,
                "velocity": 101,
                "duration": 0.04772727272727195,
                "tempo": 120.0
            },
            {
                "start_time": 25.563636363636363,
                "end_time": 25.60909090909091,
                "pitch": 45,
                "velocity": 101,
                "duration": 0.045454545454546746,
                "tempo": 120.0
            },
            {
                "start_time": 25.677272727272726,
                "end_time": 25.761363636363637,
                "pitch": 43,
                "velocity": 101,
                "duration": 0.08409090909091077,
                "tempo": 120.0
            },
            {
                "start_time": 25.909090909090907,
                "end_time": 25.956818181818182,
                "pitch": 35,
                "velocity": 101,
                "duration": 0.047727272727275505,
                "tempo": 120.0
            },
            {
                "start_time": 26.027272727272727,
                "end_time": 26.07272727272727,
                "pitch": 38,
                "velocity": 101,
                "duration": 0.045454545454543194,
                "tempo": 120.0
            },
            {
                "start_time": 26.14090909090909,
                "end_time": 26.186363636363634,
                "pitch": 40,
                "velocity": 101,
                "duration": 0.045454545454543194,
                "tempo": 120.0
            },
            {
                "start_time": 26.259090909090908,
                "end_time": 26.302272727272726,
                "pitch": 28,
                "velocity": 101,
                "duration": 0.04318181818181799,
                "tempo": 120.0
            },
            {
                "start_time": 26.375,
                "end_time": 26.454545454545453,
                "pitch": 40,
                "velocity": 101,
                "duration": 0.07954545454545325,
                "tempo": 120.0
            },
            {
                "start_time": 26.611363636363635,
                "end_time": 26.654545454545453,
                "pitch": 40,
                "velocity": 101,
                "duration": 0.04318181818181799,
                "tempo": 120.0
            },
            {
                "start_time": 26.729545454545452,
                "end_time": 26.77272727272727,
                "pitch": 43,
                "velocity": 101,
                "duration": 0.04318181818181799,
                "tempo": 120.0
            },
            {
                "start_time": 26.843181818181815,
                "end_time": 26.89090909090909,
                "pitch": 31,
                "velocity": 101,
                "duration": 0.047727272727275505,
                "tempo": 120.0
            },
            {
                "start_time": 26.961363636363636,
                "end_time": 27.00681818181818,
                "pitch": 43,
                "velocity": 101,
                "duration": 0.045454545454543194,
                "tempo": 120.0
            },
            {
                "start_time": 27.084090909090907,
                "end_time": 27.125,
                "pitch": 31,
                "velocity": 101,
                "duration": 0.04090909090909278,
                "tempo": 120.0
            },
            {
                "start_time": 27.193181818181817,
                "end_time": 27.243181818181817,
                "pitch": 45,
                "velocity": 101,
                "duration": 0.05000000000000071,
                "tempo": 120.0
            },
            {
                "start_time": 27.313636363636363,
                "end_time": 27.35909090909091,
                "pitch": 28,
                "velocity": 101,
                "duration": 0.045454545454546746,
                "tempo": 120.0
            },
            {
                "start_time": 27.43181818181818,
                "end_time": 27.477272727272727,
                "pitch": 46,
                "velocity": 101,
                "duration": 0.045454545454546746,
                "tempo": 120.0
            },
            {
                "start_time": 27.547727272727272,
                "end_time": 27.627272727272725,
                "pitch": 47,
                "velocity": 101,
                "duration": 0.07954545454545325,
                "tempo": 120.0
            },
            {
                "start_time": 27.779545454545453,
                "end_time": 27.825,
                "pitch": 45,
                "velocity": 101,
                "duration": 0.045454545454546746,
                "tempo": 120.0
            },
            {
                "start_time": 27.895454545454545,
                "end_time": 27.940909090909088,
                "pitch": 47,
                "velocity": 101,
                "duration": 0.045454545454543194,
                "tempo": 120.0
            },
            {
                "start_time": 28.009090909090908,
                "end_time": 28.054545454545455,
                "pitch": 26,
                "velocity": 101,
                "duration": 0.045454545454546746,
                "tempo": 120.0
            },
            {
                "start_time": 28.127272727272725,
                "end_time": 28.170454545454543,
                "pitch": 28,
                "velocity": 101,
                "duration": 0.04318181818181799,
                "tempo": 120.0
            },
            {
                "start_time": 28.24090909090909,
                "end_time": 28.32272727272727,
                "pitch": 40,
                "velocity": 101,
                "duration": 0.08181818181818201,
                "tempo": 120.0
            },
            {
                "start_time": 28.474999999999998,
                "end_time": 28.52272727272727,
                "pitch": 40,
                "velocity": 101,
                "duration": 0.04772727272727195,
                "tempo": 120.0
            },
            {
                "start_time": 28.597727272727273,
                "end_time": 28.64090909090909,
                "pitch": 42,
                "velocity": 101,
                "duration": 0.04318181818181799,
                "tempo": 120.0
            },
            {
                "start_time": 28.709090909090907,
                "end_time": 28.75681818181818,
                "pitch": 30,
                "velocity": 101,
                "duration": 0.04772727272727195,
                "tempo": 120.0
            },
            {
                "start_time": 28.827272727272724,
                "end_time": 28.875,
                "pitch": 42,
                "velocity": 101,
                "duration": 0.047727272727275505,
                "tempo": 120.0
            },
            {
                "start_time": 28.952272727272724,
                "end_time": 28.993181818181817,
                "pitch": 30,
                "velocity": 101,
                "duration": 0.04090909090909278,
                "tempo": 120.0
            },
            {
                "start_time": 29.061363636363634,
                "end_time": 29.10909090909091,
                "pitch": 43,
                "velocity": 101,
                "duration": 0.047727272727275505,
                "tempo": 120.0
            },
            {
                "start_time": 29.179545454545455,
                "end_time": 29.227272727272727,
                "pitch": 28,
                "velocity": 101,
                "duration": 0.04772727272727195,
                "tempo": 120.0
            },
            {
                "start_time": 29.297727272727272,
                "end_time": 29.345454545454544,
                "pitch": 45,
                "velocity": 101,
                "duration": 0.04772727272727195,
                "tempo": 120.0
            },
            {
                "start_time": 29.41363636363636,
                "end_time": 29.495454545454542,
                "pitch": 43,
                "velocity": 101,
                "duration": 0.08181818181818201,
                "tempo": 120.0
            },
            {
                "start_time": 29.645454545454545,
                "end_time": 29.693181818181817,
                "pitch": 35,
                "velocity": 101,
                "duration": 0.04772727272727195,
                "tempo": 120.0
            },
            {
                "start_time": 29.763636363636362,
                "end_time": 29.80909090909091,
                "pitch": 38,
                "velocity": 101,
                "duration": 0.045454545454546746,
                "tempo": 120.0
            },
            {
                "start_time": 29.875,
                "end_time": 29.922727272727272,
                "pitch": 40,
                "velocity": 101,
                "duration": 0.04772727272727195,
                "tempo": 120.0
            },
            {
                "start_time": 29.995454545454542,
                "end_time": 30.03863636363636,
                "pitch": 33,
                "velocity": 101,
                "duration": 0.04318181818181799,
                "tempo": 120.0
            },
            {
                "start_time": 30.11590909090909,
                "end_time": 30.24090909090909,
                "pitch": 45,
                "velocity": 101,
                "duration": 0.125,
                "tempo": 120.0
            },
            {
                "start_time": 30.470454545454544,
                "end_time": 30.509090909090908,
                "pitch": 31,
                "velocity": 101,
                "duration": 0.038636363636364024,
                "tempo": 120.0
            },
            {
                "start_time": 30.577272727272724,
                "end_time": 30.695454545454545,
                "pitch": 31,
                "velocity": 4,
                "duration": 0.11818181818182083,
                "tempo": 120.0
            },
            {
                "start_time": 30.69772727272727,
                "end_time": 30.743181818181817,
                "pitch": 31,
                "velocity": 101,
                "duration": 0.045454545454546746,
                "tempo": 120.0
            },
            {
                "start_time": 30.815909090909088,
                "end_time": 30.936363636363634,
                "pitch": 31,
                "velocity": 4,
                "duration": 0.12045454545454604,
                "tempo": 120.0
            },
            {
                "start_time": 30.936363636363634,
                "end_time": 30.977272727272727,
                "pitch": 42,
                "velocity": 4,
                "duration": 0.04090909090909278,
                "tempo": 120.0
            },
            {
                "start_time": 30.936363636363634,
                "end_time": 30.977272727272727,
                "pitch": 42,
                "velocity": 101,
                "duration": 0.04090909090909278,
                "tempo": 120.0
            },
            {
                "start_time": 31.047727272727272,
                "end_time": 31.095454545454544,
                "pitch": 30,
                "velocity": 101,
                "duration": 0.04772727272727195,
                "tempo": 120.0
            },
            {
                "start_time": 31.16590909090909,
                "end_time": 31.21363636363636,
                "pitch": 42,
                "velocity": 101,
                "duration": 0.04772727272727195,
                "tempo": 120.0
            },
            {
                "start_time": 31.284090909090907,
                "end_time": 31.363636363636363,
                "pitch": 30,
                "velocity": 101,
                "duration": 0.0795454545454568,
                "tempo": 120.0
            },
            {
                "start_time": 31.513636363636362,
                "end_time": 31.561363636363634,
                "pitch": 31,
                "velocity": 101,
                "duration": 0.04772727272727195,
                "tempo": 120.0
            },
            {
                "start_time": 31.629545454545454,
                "end_time": 31.674999999999997,
                "pitch": 28,
                "velocity": 101,
                "duration": 0.045454545454543194,
                "tempo": 120.0
            },
            {
                "start_time": 31.752272727272725,
                "end_time": 31.79090909090909,
                "pitch": 52,
                "velocity": 101,
                "duration": 0.038636363636364024,
                "tempo": 120.0
            },
            {
                "start_time": 31.85681818181818,
                "end_time": 33.71818181818182,
                "pitch": 52,
                "velocity": 4,
                "duration": 1.861363636363638,
                "tempo": 120.0
            },
            {
                "start_time": 33.71818181818182,
                "end_time": 33.79772727272727,
                "pitch": 28,
                "velocity": 101,
                "duration": 0.07954545454545325,
                "tempo": 120.0
            },
            {
                "start_time": 33.95909090909091,
                "end_time": 34.00454545454545,
                "pitch": 31,
                "velocity": 101,
                "duration": 0.04545454545453964,
                "tempo": 120.0
            },
            {
                "start_time": 34.07954545454545,
                "end_time": 34.19772727272727,
                "pitch": 31,
                "velocity": 4,
                "duration": 0.11818181818181728,
                "tempo": 120.0
            },
            {
                "start_time": 34.19772727272727,
                "end_time": 34.24318181818182,
                "pitch": 33,
                "velocity": 4,
                "duration": 0.045454545454546746,
                "tempo": 120.0
            },
            {
                "start_time": 34.199999999999996,
                "end_time": 34.24318181818182,
                "pitch": 33,
                "velocity": 101,
                "duration": 0.04318181818182154,
                "tempo": 120.0
            },
            {
                "start_time": 34.31590909090909,
                "end_time": 34.425,
                "pitch": 33,
                "velocity": 4,
                "duration": 0.10909090909090935,
                "tempo": 120.0
            },
            {
                "start_time": 34.425,
                "end_time": 34.47272727272727,
                "pitch": 31,
                "velocity": 4,
                "duration": 0.04772727272727195,
                "tempo": 120.0
            },
            {
                "start_time": 34.425,
                "end_time": 34.47272727272727,
                "pitch": 31,
                "velocity": 101,
                "duration": 0.04772727272727195,
                "tempo": 120.0
            },
            {
                "start_time": 34.54545454545455,
                "end_time": 34.65681818181818,
                "pitch": 31,
                "velocity": 4,
                "duration": 0.11136363636363455,
                "tempo": 120.0
            },
            {
                "start_time": 34.65681818181818,
                "end_time": 34.78636363636363,
                "pitch": 33,
                "velocity": 4,
                "duration": 0.1295454545454504,
                "tempo": 120.0
            },
            {
                "start_time": 34.65681818181818,
                "end_time": 34.78636363636363,
                "pitch": 33,
                "velocity": 101,
                "duration": 0.1295454545454504,
                "tempo": 120.0
            },
            {
                "start_time": 35.00681818181818,
                "end_time": 35.054545454545455,
                "pitch": 35,
                "velocity": 101,
                "duration": 0.04772727272727195,
                "tempo": 120.0
            },
            {
                "start_time": 35.12272727272727,
                "end_time": 35.24318181818182,
                "pitch": 35,
                "velocity": 4,
                "duration": 0.12045454545454959,
                "tempo": 120.0
            },
            {
                "start_time": 35.24318181818182,
                "end_time": 35.288636363636364,
                "pitch": 33,
                "velocity": 101,
                "duration": 0.045454545454546746,
                "tempo": 120.0
            },
            {
                "start_time": 35.361363636363635,
                "end_time": 35.40681818181818,
                "pitch": 31,
                "velocity": 101,
                "duration": 0.045454545454546746,
                "tempo": 120.0
            },
            {
                "start_time": 35.475,
                "end_time": 35.559090909090905,
                "pitch": 28,
                "velocity": 101,
                "duration": 0.08409090909090366,
                "tempo": 120.0
            },
            {
                "start_time": 35.71363636363636,
                "end_time": 35.75909090909091,
                "pitch": 40,
                "velocity": 101,
                "duration": 0.045454545454546746,
                "tempo": 120.0
            },
            {
                "start_time": 35.82954545454545,
                "end_time": 35.877272727272725,
                "pitch": 31,
                "velocity": 101,
                "duration": 0.04772727272727195,
                "tempo": 120.0
            },
            {
                "start_time": 35.95227272727273,
                "end_time": 35.99318181818182,
                "pitch": 43,
                "velocity": 101,
                "duration": 0.04090909090908923,
                "tempo": 120.0
            },
            {
                "start_time": 36.06363636363636,
                "end_time": 36.143181818181816,
                "pitch": 33,
                "velocity": 101,
                "duration": 0.07954545454545325,
                "tempo": 120.0
            },
            {
                "start_time": 36.3,
                "end_time": 36.340909090909086,
                "pitch": 31,
                "velocity": 101,
                "duration": 0.04090909090908923,
                "tempo": 120.0
            },
            {
                "start_time": 36.40681818181818,
                "end_time": 36.45454545454545,
                "pitch": 28,
                "velocity": 101,
                "duration": 0.04772727272727195,
                "tempo": 120.0
            },
            {
                "start_time": 36.525,
                "end_time": 36.570454545454545,
                "pitch": 45,
                "velocity": 101,
                "duration": 0.045454545454546746,
                "tempo": 120.0
            },
            {
                "start_time": 36.64545454545454,
                "end_time": 36.68863636363636,
                "pitch": 28,
                "velocity": 101,
                "duration": 0.04318181818182154,
                "tempo": 120.0
            },
            {
                "start_time": 36.75681818181818,
                "end_time": 36.804545454545455,
                "pitch": 46,
                "velocity": 101,
                "duration": 0.04772727272727195,
                "tempo": 120.0
            },
            {
                "start_time": 36.875,
                "end_time": 36.95681818181818,
                "pitch": 47,
                "velocity": 101,
                "duration": 0.08181818181817846,
                "tempo": 120.0
            },
            {
                "start_time": 37.10909090909091,
                "end_time": 37.15681818181818,
                "pitch": 28,
                "velocity": 101,
                "duration": 0.04772727272727195,
                "tempo": 120.0
            },
            {
                "start_time": 37.22954545454545,
                "end_time": 37.275,
                "pitch": 42,
                "velocity": 101,
                "duration": 0.045454545454546746,
                "tempo": 120.0
            },
            {
                "start_time": 37.34772727272727,
                "end_time": 37.393181818181816,
                "pitch": 43,
                "velocity": 101,
                "duration": 0.045454545454546746,
                "tempo": 120.0
            },
            {
                "start_time": 37.465909090909086,
                "end_time": 37.543181818181814,
                "pitch": 28,
                "velocity": 101,
                "duration": 0.07727272727272805,
                "tempo": 120.0
            },
            {
                "start_time": 37.699999999999996,
                "end_time": 37.74545454545454,
                "pitch": 31,
                "velocity": 101,
                "duration": 0.045454545454546746,
                "tempo": 120.0
            },
            {
                "start_time": 37.81590909090909,
                "end_time": 37.934090909090905,
                "pitch": 31,
                "velocity": 4,
                "duration": 0.11818181818181728,
                "tempo": 120.0
            },
            {
                "start_time": 37.934090909090905,
                "end_time": 37.97727272727273,
                "pitch": 33,
                "velocity": 4,
                "duration": 0.04318181818182154,
                "tempo": 120.0
            },
            {
                "start_time": 37.934090909090905,
                "end_time": 37.97727272727273,
                "pitch": 33,
                "velocity": 101,
                "duration": 0.04318181818182154,
                "tempo": 120.0
            },
            {
                "start_time": 38.05,
                "end_time": 38.15909090909091,
                "pitch": 33,
                "velocity": 4,
                "duration": 0.10909090909090935,
                "tempo": 120.0
            },
            {
                "start_time": 38.15909090909091,
                "end_time": 38.16136363636363,
                "pitch": 31,
                "velocity": 4,
                "duration": 0.0022727272727252057,
                "tempo": 120.0
            },
            {
                "start_time": 38.16136363636363,
                "end_time": 38.20681818181818,
                "pitch": 31,
                "velocity": 101,
                "duration": 0.045454545454546746,
                "tempo": 120.0
            },
            {
                "start_time": 38.279545454545456,
                "end_time": 38.39090909090909,
                "pitch": 31,
                "velocity": 4,
                "duration": 0.11136363636363455,
                "tempo": 120.0
            },
            {
                "start_time": 38.39090909090909,
                "end_time": 38.393181818181816,
                "pitch": 33,
                "velocity": 4,
                "duration": 0.0022727272727252057,
                "tempo": 120.0
            },
            {
                "start_time": 38.393181818181816,
                "end_time": 38.52272727272727,
                "pitch": 33,
                "velocity": 101,
                "duration": 0.12954545454545752,
                "tempo": 120.0
            },
            {
                "start_time": 38.74318181818182,
                "end_time": 38.79090909090909,
                "pitch": 35,
                "velocity": 101,
                "duration": 0.04772727272727195,
                "tempo": 120.0
            },
            {
                "start_time": 38.85681818181818,
                "end_time": 38.97727272727273,
                "pitch": 35,
                "velocity": 4,
                "duration": 0.12045454545454959,
                "tempo": 120.0
            },
            {
                "start_time": 38.97727272727273,
                "end_time": 39.02045454545454,
                "pitch": 33,
                "velocity": 101,
                "duration": 0.043181818181814435,
                "tempo": 120.0
            },
            {
                "start_time": 39.08863636363636,
                "end_time": 39.13636363636363,
                "pitch": 31,
                "velocity": 101,
                "duration": 0.04772727272727195,
                "tempo": 120.0
            },
            {
                "start_time": 39.20227272727273,
                "end_time": 39.28409090909091,
                "pitch": 28,
                "velocity": 101,
                "duration": 0.08181818181817846,
                "tempo": 120.0
            },
            {
                "start_time": 39.43863636363636,
                "end_time": 39.48409090909091,
                "pitch": 40,
                "velocity": 101,
                "duration": 0.045454545454546746,
                "tempo": 120.0
            },
            {
                "start_time": 39.55227272727272,
                "end_time": 39.60227272727273,
                "pitch": 31,
                "velocity": 101,
                "duration": 0.05000000000000426,
                "tempo": 120.0
            },
            {
                "start_time": 39.675,
                "end_time": 39.71818181818182,
                "pitch": 43,
                "velocity": 101,
                "duration": 0.04318181818182154,
                "tempo": 120.0
            },
            {
                "start_time": 39.79545454545455,
                "end_time": 39.87272727272727,
                "pitch": 33,
                "velocity": 101,
                "duration": 0.07727272727272094,
                "tempo": 120.0
            },
            {
                "start_time": 40.03409090909091,
                "end_time": 40.07727272727273,
                "pitch": 31,
                "velocity": 101,
                "duration": 0.04318181818182154,
                "tempo": 120.0
            },
            {
                "start_time": 40.154545454545456,
                "end_time": 40.19772727272727,
                "pitch": 28,
                "velocity": 101,
                "duration": 0.043181818181814435,
                "tempo": 120.0
            },
            {
                "start_time": 40.27272727272727,
                "end_time": 40.31590909090909,
                "pitch": 45,
                "velocity": 101,
                "duration": 0.043181818181814435,
                "tempo": 120.0
            },
            {
                "start_time": 40.38863636363636,
                "end_time": 40.43181818181818,
                "pitch": 28,
                "velocity": 101,
                "duration": 0.04318181818182154,
                "tempo": 120.0
            },
            {
                "start_time": 40.50454545454545,
                "end_time": 40.54545454545455,
                "pitch": 46,
                "velocity": 101,
                "duration": 0.040909090909096335,
                "tempo": 120.0
            },
            {
                "start_time": 40.61818181818182,
                "end_time": 40.69318181818181,
                "pitch": 47,
                "velocity": 101,
                "duration": 0.07499999999999574,
                "tempo": 120.0
            },
            {
                "start_time": 40.84772727272727,
                "end_time": 40.88863636363636,
                "pitch": 28,
                "velocity": 101,
                "duration": 0.04090909090908923,
                "tempo": 120.0
            },
            {
                "start_time": 40.961363636363636,
                "end_time": 41.00454545454545,
                "pitch": 42,
                "velocity": 101,
                "duration": 0.043181818181814435,
                "tempo": 120.0
            },
            {
                "start_time": 41.07272727272727,
                "end_time": 41.11818181818182,
                "pitch": 43,
                "velocity": 101,
                "duration": 0.045454545454546746,
                "tempo": 120.0
            },
            {
                "start_time": 41.19318181818181,
                "end_time": 41.268181818181816,
                "pitch": 28,
                "velocity": 101,
                "duration": 0.07500000000000284,
                "tempo": 120.0
            },
            {
                "start_time": 41.429545454545455,
                "end_time": 41.475,
                "pitch": 31,
                "velocity": 101,
                "duration": 0.045454545454546746,
                "tempo": 120.0
            },
            {
                "start_time": 41.54772727272727,
                "end_time": 41.66590909090909,
                "pitch": 31,
                "velocity": 4,
                "duration": 0.11818181818181728,
                "tempo": 120.0
            },
            {
                "start_time": 41.66590909090909,
                "end_time": 41.711363636363636,
                "pitch": 33,
                "velocity": 4,
                "duration": 0.045454545454546746,
                "tempo": 120.0
            },
            {
                "start_time": 41.66590909090909,
                "end_time": 41.711363636363636,
                "pitch": 33,
                "velocity": 101,
                "duration": 0.045454545454546746,
                "tempo": 120.0
            },
            {
                "start_time": 41.78409090909091,
                "end_time": 41.893181818181816,
                "pitch": 33,
                "velocity": 4,
                "duration": 0.10909090909090935,
                "tempo": 120.0
            },
            {
                "start_time": 41.893181818181816,
                "end_time": 41.94090909090909,
                "pitch": 31,
                "velocity": 4,
                "duration": 0.04772727272727195,
                "tempo": 120.0
            },
            {
                "start_time": 41.893181818181816,
                "end_time": 41.94090909090909,
                "pitch": 31,
                "velocity": 101,
                "duration": 0.04772727272727195,
                "tempo": 120.0
            },
            {
                "start_time": 42.01363636363636,
                "end_time": 42.125,
                "pitch": 31,
                "velocity": 4,
                "duration": 0.11136363636364166,
                "tempo": 120.0
            },
            {
                "start_time": 42.125,
                "end_time": 42.25454545454545,
                "pitch": 33,
                "velocity": 4,
                "duration": 0.1295454545454504,
                "tempo": 120.0
            },
            {
                "start_time": 42.125,
                "end_time": 42.25454545454545,
                "pitch": 33,
                "velocity": 101,
                "duration": 0.1295454545454504,
                "tempo": 120.0
            },
            {
                "start_time": 42.475,
                "end_time": 42.52272727272727,
                "pitch": 35,
                "velocity": 101,
                "duration": 0.04772727272727195,
                "tempo": 120.0
            },
            {
                "start_time": 42.590909090909086,
                "end_time": 42.709090909090904,
                "pitch": 35,
                "velocity": 4,
                "duration": 0.11818181818181728,
                "tempo": 120.0
            },
            {
                "start_time": 42.709090909090904,
                "end_time": 42.75454545454545,
                "pitch": 33,
                "velocity": 101,
                "duration": 0.045454545454546746,
                "tempo": 120.0
            },
            {
                "start_time": 42.82272727272727,
                "end_time": 42.86818181818182,
                "pitch": 31,
                "velocity": 101,
                "duration": 0.045454545454546746,
                "tempo": 120.0
            },
            {
                "start_time": 42.934090909090905,
                "end_time": 43.01590909090909,
                "pitch": 28,
                "velocity": 101,
                "duration": 0.08181818181818556,
                "tempo": 120.0
            },
            {
                "start_time": 43.17045454545455,
                "end_time": 43.215909090909086,
                "pitch": 40,
                "velocity": 101,
                "duration": 0.04545454545453964,
                "tempo": 120.0
            },
            {
                "start_time": 43.28636363636363,
                "end_time": 43.334090909090904,
                "pitch": 31,
                "velocity": 101,
                "duration": 0.04772727272727195,
                "tempo": 120.0
            },
            {
                "start_time": 43.40909090909091,
                "end_time": 43.45227272727273,
                "pitch": 43,
                "velocity": 101,
                "duration": 0.04318181818182154,
                "tempo": 120.0
            },
            {
                "start_time": 43.52045454545454,
                "end_time": 43.60227272727273,
                "pitch": 33,
                "velocity": 101,
                "duration": 0.08181818181818556,
                "tempo": 120.0
            },
            {
                "start_time": 43.76136363636363,
                "end_time": 43.80227272727272,
                "pitch": 31,
                "velocity": 101,
                "duration": 0.04090909090908923,
                "tempo": 120.0
            },
            {
                "start_time": 43.87272727272727,
                "end_time": 43.92045454545455,
                "pitch": 28,
                "velocity": 101,
                "duration": 0.04772727272727906,
                "tempo": 120.0
            },
            {
                "start_time": 43.99318181818182,
                "end_time": 44.038636363636364,
                "pitch": 45,
                "velocity": 101,
                "duration": 0.045454545454546746,
                "tempo": 120.0
            },
            {
                "start_time": 44.11363636363636,
                "end_time": 44.15454545454545,
                "pitch": 28,
                "velocity": 101,
                "duration": 0.04090909090908923,
                "tempo": 120.0
            },
            {
                "start_time": 44.224999999999994,
                "end_time": 44.27272727272727,
                "pitch": 46,
                "velocity": 101,
                "duration": 0.04772727272727906,
                "tempo": 120.0
            },
            {
                "start_time": 44.34318181818182,
                "end_time": 44.425,
                "pitch": 47,
                "velocity": 101,
                "duration": 0.08181818181817846,
                "tempo": 120.0
            },
            {
                "start_time": 44.57727272727273,
                "end_time": 44.625,
                "pitch": 28,
                "velocity": 101,
                "duration": 0.04772727272727195,
                "tempo": 120.0
            },
            {
                "start_time": 44.69772727272727,
                "end_time": 44.74318181818182,
                "pitch": 42,
                "velocity": 101,
                "duration": 0.045454545454546746,
                "tempo": 120.0
            },
            {
                "start_time": 44.81363636363636,
                "end_time": 44.85909090909091,
                "pitch": 43,
                "velocity": 101,
                "duration": 0.045454545454546746,
                "tempo": 120.0
            },
            {
                "start_time": 44.934090909090905,
                "end_time": 45.01136363636363,
                "pitch": 28,
                "velocity": 101,
                "duration": 0.07727272727272805,
                "tempo": 120.0
            },
            {
                "start_time": 45.168181818181814,
                "end_time": 45.211363636363636,
                "pitch": 31,
                "velocity": 101,
                "duration": 0.04318181818182154,
                "tempo": 120.0
            },
            {
                "start_time": 45.28409090909091,
                "end_time": 45.402272727272724,
                "pitch": 31,
                "velocity": 4,
                "duration": 0.11818181818181728,
                "tempo": 120.0
            },
            {
                "start_time": 45.402272727272724,
                "end_time": 45.445454545454545,
                "pitch": 33,
                "velocity": 4,
                "duration": 0.04318181818182154,
                "tempo": 120.0
            },
            {
                "start_time": 45.402272727272724,
                "end_time": 45.445454545454545,
                "pitch": 33,
                "velocity": 101,
                "duration": 0.04318181818182154,
                "tempo": 120.0
            },
            {
                "start_time": 45.518181818181816,
                "end_time": 45.627272727272725,
                "pitch": 33,
                "velocity": 4,
                "duration": 0.10909090909090935,
                "tempo": 120.0
            },
            {
                "start_time": 45.627272727272725,
                "end_time": 45.675,
                "pitch": 31,
                "velocity": 4,
                "duration": 0.04772727272727195,
                "tempo": 120.0
            },
            {
                "start_time": 45.62954545454545,
                "end_time": 45.675,
                "pitch": 31,
                "velocity": 101,
                "duration": 0.045454545454546746,
                "tempo": 120.0
            },
            {
                "start_time": 45.74772727272727,
                "end_time": 45.85909090909091,
                "pitch": 31,
                "velocity": 4,
                "duration": 0.11136363636364166,
                "tempo": 120.0
            },
            {
                "start_time": 45.85909090909091,
                "end_time": 45.98863636363636,
                "pitch": 33,
                "velocity": 4,
                "duration": 0.1295454545454504,
                "tempo": 120.0
            },
            {
                "start_time": 45.861363636363635,
                "end_time": 45.98863636363636,
                "pitch": 33,
                "velocity": 101,
                "duration": 0.1272727272727252,
                "tempo": 120.0
            },
            {
                "start_time": 46.209090909090904,
                "end_time": 46.25909090909091,
                "pitch": 35,
                "velocity": 101,
                "duration": 0.05000000000000426,
                "tempo": 120.0
            },
            {
                "start_time": 46.324999999999996,
                "end_time": 46.44318181818181,
                "pitch": 35,
                "velocity": 4,
                "duration": 0.11818181818181728,
                "tempo": 120.0
            }
        ],
        "Lead 2 (sawtooth)": [
            {
                "start_time": 0.011363636363636364,
                "end_time": 0.10454545454545454,
                "pitch": 0,
                "velocity": 4,
                "duration": 0.09318181818181817,
                "tempo": 120.0
            },
            {
                "start_time": 0.10454545454545454,
                "end_time": 1.05,
                "pitch": 0,
                "velocity": 4,
                "duration": 0.9454545454545455,
                "tempo": 120.0
            },
            {
                "start_time": 1.05,
                "end_time": 1.1454545454545455,
                "pitch": 74,
                "velocity": 80,
                "duration": 0.09545454545454546,
                "tempo": 120.0
            },
            {
                "start_time": 1.1636363636363636,
                "end_time": 1.2909090909090908,
                "pitch": 74,
                "velocity": 4,
                "duration": 0.1272727272727272,
                "tempo": 120.0
            },
            {
                "start_time": 1.2909090909090908,
                "end_time": 1.3863636363636362,
                "pitch": 73,
                "velocity": 80,
                "duration": 0.09545454545454546,
                "tempo": 120.0
            },
            {
                "start_time": 1.409090909090909,
                "end_time": 1.5318181818181817,
                "pitch": 73,
                "velocity": 4,
                "duration": 0.1227272727272728,
                "tempo": 120.0
            },
            {
                "start_time": 1.5318181818181817,
                "end_time": 1.625,
                "pitch": 74,
                "velocity": 80,
                "duration": 0.09318181818181825,
                "tempo": 120.0
            },
            {
                "start_time": 1.6522727272727271,
                "end_time": 1.7409090909090907,
                "pitch": 76,
                "velocity": 80,
                "duration": 0.08863636363636362,
                "tempo": 120.0
            },
            {
                "start_time": 1.7613636363636362,
                "end_time": 1.8863636363636362,
                "pitch": 76,
                "velocity": 4,
                "duration": 0.125,
                "tempo": 120.0
            },
            {
                "start_time": 1.8863636363636362,
                "end_time": 1.977272727272727,
                "pitch": 76,
                "velocity": 80,
                "duration": 0.09090909090909083,
                "tempo": 120.0
            },
            {
                "start_time": 2.0045454545454544,
                "end_time": 2.4136363636363636,
                "pitch": 76,
                "velocity": 80,
                "duration": 0.40909090909090917,
                "tempo": 120.0
            },
            {
                "start_time": 2.4681818181818183,
                "end_time": 3.8545454545454545,
                "pitch": 76,
                "velocity": 4,
                "duration": 1.3863636363636362,
                "tempo": 120.0
            },
            {
                "start_time": 3.8545454545454545,
                "end_time": 5.722727272727273,
                "pitch": 76,
                "velocity": 4,
                "duration": 1.8681818181818182,
                "tempo": 120.0
            },
            {
                "start_time": 5.725,
                "end_time": 7.588636363636363,
                "pitch": 76,
                "velocity": 4,
                "duration": 1.8636363636363633,
                "tempo": 120.0
            },
            {
                "start_time": 7.588636363636363,
                "end_time": 9.461363636363636,
                "pitch": 76,
                "velocity": 4,
                "duration": 1.872727272727273,
                "tempo": 120.0
            },
            {
                "start_time": 9.461363636363636,
                "end_time": 11.325,
                "pitch": 76,
                "velocity": 4,
                "duration": 1.8636363636363633,
                "tempo": 120.0
            },
            {
                "start_time": 11.325,
                "end_time": 13.195454545454545,
                "pitch": 76,
                "velocity": 4,
                "duration": 1.870454545454546,
                "tempo": 120.0
            },
            {
                "start_time": 13.195454545454545,
                "end_time": 15.054545454545455,
                "pitch": 76,
                "velocity": 4,
                "duration": 1.8590909090909093,
                "tempo": 120.0
            },
            {
                "start_time": 15.054545454545455,
                "end_time": 15.147727272727272,
                "pitch": 76,
                "velocity": 80,
                "duration": 0.09318181818181692,
                "tempo": 120.0
            },
            {
                "start_time": 15.170454545454545,
                "end_time": 15.268181818181818,
                "pitch": 76,
                "velocity": 80,
                "duration": 0.09772727272727266,
                "tempo": 120.0
            },
            {
                "start_time": 15.288636363636362,
                "end_time": 15.388636363636364,
                "pitch": 74,
                "velocity": 80,
                "duration": 0.10000000000000142,
                "tempo": 120.0
            },
            {
                "start_time": 15.411363636363635,
                "end_time": 15.509090909090908,
                "pitch": 71,
                "velocity": 80,
                "duration": 0.09772727272727266,
                "tempo": 120.0
            },
            {
                "start_time": 15.536363636363635,
                "end_time": 15.627272727272727,
                "pitch": 74,
                "velocity": 80,
                "duration": 0.09090909090909172,
                "tempo": 120.0
            },
            {
                "start_time": 15.647727272727272,
                "end_time": 15.745454545454544,
                "pitch": 74,
                "velocity": 80,
                "duration": 0.09772727272727266,
                "tempo": 120.0
            },
            {
                "start_time": 15.763636363636364,
                "end_time": 15.861363636363636,
                "pitch": 73,
                "velocity": 80,
                "duration": 0.09772727272727266,
                "tempo": 120.0
            },
            {
                "start_time": 15.884090909090908,
                "end_time": 15.979545454545454,
                "pitch": 69,
                "velocity": 80,
                "duration": 0.09545454545454568,
                "tempo": 120.0
            },
            {
                "start_time": 16.004545454545454,
                "end_time": 16.095454545454544,
                "pitch": 71,
                "velocity": 80,
                "duration": 0.09090909090908994,
                "tempo": 120.0
            },
            {
                "start_time": 16.11590909090909,
                "end_time": 16.209090909090907,
                "pitch": 71,
                "velocity": 80,
                "duration": 0.0931818181818187,
                "tempo": 120.0
            },
            {
                "start_time": 16.229545454545455,
                "end_time": 16.325,
                "pitch": 69,
                "velocity": 80,
                "duration": 0.0954545454545439,
                "tempo": 120.0
            },
            {
                "start_time": 16.345454545454544,
                "end_time": 16.438636363636363,
                "pitch": 70,
                "velocity": 80,
                "duration": 0.0931818181818187,
                "tempo": 120.0
            },
            {
                "start_time": 16.46363636363636,
                "end_time": 16.65681818181818,
                "pitch": 71,
                "velocity": 80,
                "duration": 0.19318181818182012,
                "tempo": 120.0
            },
            {
                "start_time": 16.693181818181817,
                "end_time": 16.79090909090909,
                "pitch": 74,
                "velocity": 80,
                "duration": 0.09772727272727266,
                "tempo": 120.0
            },
            {
                "start_time": 16.813636363636363,
                "end_time": 16.90681818181818,
                "pitch": 76,
                "velocity": 80,
                "duration": 0.0931818181818187,
                "tempo": 120.0
            },
            {
                "start_time": 16.93409090909091,
                "end_time": 17.34318181818182,
                "pitch": 76,
                "velocity": 80,
                "duration": 0.40909090909091006,
                "tempo": 120.0
            },
            {
                "start_time": 17.402272727272727,
                "end_time": 18.788636363636364,
                "pitch": 76,
                "velocity": 4,
                "duration": 1.3863636363636367,
                "tempo": 120.0
            },
            {
                "start_time": 18.788636363636364,
                "end_time": 20.19090909090909,
                "pitch": 76,
                "velocity": 4,
                "duration": 1.4022727272727273,
                "tempo": 120.0
            },
            {
                "start_time": 20.19090909090909,
                "end_time": 20.30909090909091,
                "pitch": 76,
                "velocity": 4,
                "duration": 0.11818181818181728,
                "tempo": 120.0
            },
            {
                "start_time": 20.30909090909091,
                "end_time": 20.404545454545453,
                "pitch": 76,
                "velocity": 80,
                "duration": 0.0954545454545439,
                "tempo": 120.0
            },
            {
                "start_time": 20.425,
                "end_time": 20.538636363636364,
                "pitch": 76,
                "velocity": 4,
                "duration": 0.11363636363636331,
                "tempo": 120.0
            },
            {
                "start_time": 20.538636363636364,
                "end_time": 20.63181818181818,
                "pitch": 76,
                "velocity": 80,
                "duration": 0.09318181818181515,
                "tempo": 120.0
            },
            {
                "start_time": 20.65681818181818,
                "end_time": 22.522727272727273,
                "pitch": 76,
                "velocity": 4,
                "duration": 1.865909090909092,
                "tempo": 120.0
            },
            {
                "start_time": 22.525,
                "end_time": 23.10681818181818,
                "pitch": 76,
                "velocity": 4,
                "duration": 0.581818181818182,
                "tempo": 120.0
            },
            {
                "start_time": 23.10681818181818,
                "end_time": 23.204545454545453,
                "pitch": 74,
                "velocity": 4,
                "duration": 0.09772727272727266,
                "tempo": 120.0
            },
            {
                "start_time": 23.10909090909091,
                "end_time": 23.204545454545453,
                "pitch": 74,
                "velocity": 80,
                "duration": 0.0954545454545439,
                "tempo": 120.0
            },
            {
                "start_time": 23.227272727272727,
                "end_time": 23.32272727272727,
                "pitch": 75,
                "velocity": 80,
                "duration": 0.0954545454545439,
                "tempo": 120.0
            },
            {
                "start_time": 23.34318181818182,
                "end_time": 23.438636363636363,
                "pitch": 76,
                "velocity": 80,
                "duration": 0.0954545454545439,
                "tempo": 120.0
            },
            {
                "start_time": 23.459090909090907,
                "end_time": 23.55681818181818,
                "pitch": 67,
                "velocity": 80,
                "duration": 0.09772727272727266,
                "tempo": 120.0
            },
            {
                "start_time": 23.577272727272724,
                "end_time": 23.674999999999997,
                "pitch": 64,
                "velocity": 80,
                "duration": 0.09772727272727266,
                "tempo": 120.0
            },
            {
                "start_time": 23.693181818181817,
                "end_time": 23.813636363636363,
                "pitch": 64,
                "velocity": 4,
                "duration": 0.12045454545454604,
                "tempo": 120.0
            },
            {
                "start_time": 23.813636363636363,
                "end_time": 23.909090909090907,
                "pitch": 74,
                "velocity": 80,
                "duration": 0.0954545454545439,
                "tempo": 120.0
            },
            {
                "start_time": 23.929545454545455,
                "end_time": 24.025,
                "pitch": 75,
                "velocity": 80,
                "duration": 0.0954545454545439,
                "tempo": 120.0
            },
            {
                "start_time": 24.045454545454543,
                "end_time": 24.138636363636362,
                "pitch": 76,
                "velocity": 80,
                "duration": 0.0931818181818187,
                "tempo": 120.0
            },
            {
                "start_time": 24.159090909090907,
                "end_time": 24.254545454545454,
                "pitch": 67,
                "velocity": 80,
                "duration": 0.09545454545454746,
                "tempo": 120.0
            },
            {
                "start_time": 24.27272727272727,
                "end_time": 24.368181818181817,
                "pitch": 64,
                "velocity": 80,
                "duration": 0.09545454545454746,
                "tempo": 120.0
            },
            {
                "start_time": 24.393181818181816,
                "end_time": 24.62272727272727,
                "pitch": 76,
                "velocity": 4,
                "duration": 0.22954545454545539,
                "tempo": 120.0
            },
            {
                "start_time": 24.625,
                "end_time": 24.820454545454545,
                "pitch": 76,
                "velocity": 80,
                "duration": 0.19545454545454533,
                "tempo": 120.0
            },
            {
                "start_time": 24.861363636363635,
                "end_time": 26.259090909090908,
                "pitch": 76,
                "velocity": 4,
                "duration": 1.3977272727272734,
                "tempo": 120.0
            },
            {
                "start_time": 26.259090909090908,
                "end_time": 27.193181818181817,
                "pitch": 76,
                "velocity": 4,
                "duration": 0.9340909090909086,
                "tempo": 120.0
            },
            {
                "start_time": 27.193181818181817,
                "end_time": 27.313636363636363,
                "pitch": 76,
                "velocity": 4,
                "duration": 0.12045454545454604,
                "tempo": 120.0
            },
            {
                "start_time": 27.313636363636363,
                "end_time": 27.409090909090907,
                "pitch": 69,
                "velocity": 4,
                "duration": 0.0954545454545439,
                "tempo": 120.0
            },
            {
                "start_time": 27.313636363636363,
                "end_time": 27.409090909090907,
                "pitch": 69,
                "velocity": 80,
                "duration": 0.0954545454545439,
                "tempo": 120.0
            },
            {
                "start_time": 27.43181818181818,
                "end_time": 27.527272727272727,
                "pitch": 70,
                "velocity": 80,
                "duration": 0.09545454545454746,
                "tempo": 120.0
            },
            {
                "start_time": 27.547727272727272,
                "end_time": 27.645454545454545,
                "pitch": 71,
                "velocity": 80,
                "duration": 0.09772727272727266,
                "tempo": 120.0
            },
            {
                "start_time": 27.663636363636364,
                "end_time": 27.759090909090908,
                "pitch": 74,
                "velocity": 80,
                "duration": 0.0954545454545439,
                "tempo": 120.0
            },
            {
                "start_time": 27.779545454545453,
                "end_time": 27.875,
                "pitch": 76,
                "velocity": 80,
                "duration": 0.09545454545454746,
                "tempo": 120.0
            },
            {
                "start_time": 27.895454545454545,
                "end_time": 28.009090909090908,
                "pitch": 76,
                "velocity": 4,
                "duration": 0.11363636363636331,
                "tempo": 120.0
            },
            {
                "start_time": 28.009090909090908,
                "end_time": 28.104545454545452,
                "pitch": 76,
                "velocity": 80,
                "duration": 0.0954545454545439,
                "tempo": 120.0
            },
            {
                "start_time": 28.127272727272725,
                "end_time": 29.995454545454542,
                "pitch": 76,
                "velocity": 4,
                "duration": 1.8681818181818173,
                "tempo": 120.0
            },
            {
                "start_time": 29.995454545454542,
                "end_time": 30.08863636363636,
                "pitch": 69,
                "velocity": 4,
                "duration": 0.0931818181818187,
                "tempo": 120.0
            },
            {
                "start_time": 29.995454545454542,
                "end_time": 30.08863636363636,
                "pitch": 69,
                "velocity": 80,
                "duration": 0.0931818181818187,
                "tempo": 120.0
            },
            {
                "start_time": 30.11590909090909,
                "end_time": 30.206818181818182,
                "pitch": 69,
                "velocity": 80,
                "duration": 0.09090909090909349,
                "tempo": 120.0
            },
            {
                "start_time": 30.224999999999998,
                "end_time": 30.32272727272727,
                "pitch": 67,
                "velocity": 80,
                "duration": 0.09772727272727266,
                "tempo": 120.0
            },
            {
                "start_time": 30.345454545454544,
                "end_time": 30.440909090909088,
                "pitch": 64,
                "velocity": 80,
                "duration": 0.0954545454545439,
                "tempo": 120.0
            },
            {
                "start_time": 30.468181818181815,
                "end_time": 30.55909090909091,
                "pitch": 71,
                "velocity": 80,
                "duration": 0.09090909090909349,
                "tempo": 120.0
            },
            {
                "start_time": 30.577272727272724,
                "end_time": 30.674999999999997,
                "pitch": 71,
                "velocity": 80,
                "duration": 0.09772727272727266,
                "tempo": 120.0
            },
            {
                "start_time": 30.69772727272727,
                "end_time": 30.793181818181818,
                "pitch": 67,
                "velocity": 80,
                "duration": 0.09545454545454746,
                "tempo": 120.0
            },
            {
                "start_time": 30.813636363636363,
                "end_time": 30.911363636363635,
                "pitch": 64,
                "velocity": 80,
                "duration": 0.09772727272727266,
                "tempo": 120.0
            },
            {
                "start_time": 30.936363636363634,
                "end_time": 31.027272727272727,
                "pitch": 71,
                "velocity": 80,
                "duration": 0.09090909090909349,
                "tempo": 120.0
            },
            {
                "start_time": 31.047727272727272,
                "end_time": 31.16590909090909,
                "pitch": 71,
                "velocity": 4,
                "duration": 0.11818181818181728,
                "tempo": 120.0
            },
            {
                "start_time": 31.16590909090909,
                "end_time": 31.263636363636362,
                "pitch": 71,
                "velocity": 80,
                "duration": 0.09772727272727266,
                "tempo": 120.0
            },
            {
                "start_time": 31.284090909090907,
                "end_time": 31.404545454545453,
                "pitch": 71,
                "velocity": 4,
                "duration": 0.12045454545454604,
                "tempo": 120.0
            },
            {
                "start_time": 31.404545454545453,
                "end_time": 31.593181818181815,
                "pitch": 71,
                "velocity": 80,
                "duration": 0.1886363636363626,
                "tempo": 120.0
            },
            {
                "start_time": 31.629545454545454,
                "end_time": 31.724999999999998,
                "pitch": 74,
                "velocity": 80,
                "duration": 0.0954545454545439,
                "tempo": 120.0
            },
            {
                "start_time": 31.752272727272725,
                "end_time": 32.25,
                "pitch": 76,
                "velocity": 80,
                "duration": 0.4977272727272748,
                "tempo": 120.0
            },
            {
                "start_time": 32.31590909090909,
                "end_time": 33.71818181818182,
                "pitch": 76,
                "velocity": 4,
                "duration": 1.402272727272731,
                "tempo": 120.0
            },
            {
                "start_time": 33.71818181818182,
                "end_time": 34.19772727272727,
                "pitch": 76,
                "velocity": 4,
                "duration": 0.47954545454545183,
                "tempo": 120.0
            },
            {
                "start_time": 34.199999999999996,
                "end_time": 35.595454545454544,
                "pitch": 76,
                "velocity": 4,
                "duration": 1.3954545454545482,
                "tempo": 120.0
            },
            {
                "start_time": 35.595454545454544,
                "end_time": 37.465909090909086,
                "pitch": 76,
                "velocity": 4,
                "duration": 1.8704545454545425,
                "tempo": 120.0
            },
            {
                "start_time": 37.465909090909086,
                "end_time": 39.31818181818181,
                "pitch": 76,
                "velocity": 4,
                "duration": 1.8522727272727266,
                "tempo": 120.0
            },
            {
                "start_time": 39.320454545454545,
                "end_time": 41.19090909090909,
                "pitch": 76,
                "velocity": 4,
                "duration": 1.8704545454545425,
                "tempo": 120.0
            },
            {
                "start_time": 41.19318181818181,
                "end_time": 43.05227272727272,
                "pitch": 76,
                "velocity": 4,
                "duration": 1.8590909090909093,
                "tempo": 120.0
            },
            {
                "start_time": 43.05227272727272,
                "end_time": 44.93181818181818,
                "pitch": 76,
                "velocity": 4,
                "duration": 1.8795454545454575,
                "tempo": 120.0
            },
            {
                "start_time": 44.934090909090905,
                "end_time": 46.44318181818181,
                "pitch": 76,
                "velocity": 4,
                "duration": 1.509090909090908,
                "tempo": 120.0
            }
        ],
        "Trumpet": [
            {
                "start_time": 2.35,
                "end_time": 2.4136363636363636,
                "pitch": 64,
                "velocity": 25,
                "duration": 0.06363636363636349,
                "tempo": 120.0
            },
            {
                "start_time": 2.4681818181818183,
                "end_time": 2.584090909090909,
                "pitch": 64,
                "velocity": 4,
                "duration": 0.11590909090909074,
                "tempo": 120.0
            },
            {
                "start_time": 2.584090909090909,
                "end_time": 2.643181818181818,
                "pitch": 66,
                "velocity": 4,
                "duration": 0.05909090909090908,
                "tempo": 120.0
            },
            {
                "start_time": 2.584090909090909,
                "end_time": 2.643181818181818,
                "pitch": 66,
                "velocity": 25,
                "duration": 0.05909090909090908,
                "tempo": 120.0
            },
            {
                "start_time": 2.6954545454545453,
                "end_time": 2.8136363636363635,
                "pitch": 66,
                "velocity": 4,
                "duration": 0.11818181818181817,
                "tempo": 120.0
            },
            {
                "start_time": 2.8136363636363635,
                "end_time": 2.8727272727272726,
                "pitch": 67,
                "velocity": 25,
                "duration": 0.05909090909090908,
                "tempo": 120.0
            },
            {
                "start_time": 2.9272727272727272,
                "end_time": 2.9886363636363633,
                "pitch": 69,
                "velocity": 25,
                "duration": 0.061363636363636065,
                "tempo": 120.0
            },
            {
                "start_time": 3.0386363636363636,
                "end_time": 3.161363636363636,
                "pitch": 69,
                "velocity": 4,
                "duration": 0.12272727272727257,
                "tempo": 120.0
            },
            {
                "start_time": 3.161363636363636,
                "end_time": 3.1636363636363636,
                "pitch": 76,
                "velocity": 4,
                "duration": 0.002272727272727426,
                "tempo": 120.0
            },
            {
                "start_time": 3.1636363636363636,
                "end_time": 3.340909090909091,
                "pitch": 64,
                "velocity": 25,
                "duration": 0.17727272727272725,
                "tempo": 120.0
            },
            {
                "start_time": 3.5113636363636362,
                "end_time": 3.5704545454545453,
                "pitch": 62,
                "velocity": 25,
                "duration": 0.05909090909090908,
                "tempo": 120.0
            },
            {
                "start_time": 3.625,
                "end_time": 4.211363636363636,
                "pitch": 62,
                "velocity": 4,
                "duration": 0.586363636363636,
                "tempo": 120.0
            },
            {
                "start_time": 6.074999999999999,
                "end_time": 6.136363636363636,
                "pitch": 64,
                "velocity": 32,
                "duration": 0.06136363636363651,
                "tempo": 120.0
            },
            {
                "start_time": 6.1931818181818175,
                "end_time": 6.311363636363636,
                "pitch": 64,
                "velocity": 4,
                "duration": 0.11818181818181817,
                "tempo": 120.0
            },
            {
                "start_time": 6.311363636363636,
                "end_time": 6.372727272727272,
                "pitch": 66,
                "velocity": 4,
                "duration": 0.06136363636363651,
                "tempo": 120.0
            },
            {
                "start_time": 6.311363636363636,
                "end_time": 6.372727272727272,
                "pitch": 66,
                "velocity": 32,
                "duration": 0.06136363636363651,
                "tempo": 120.0
            },
            {
                "start_time": 2.8136363636363635,
                "end_time": 6.545454545454545,
                "pitch": 55,
                "velocity": 4,
                "duration": 3.7318181818181815,
                "tempo": 120.0
            },
            {
                "start_time": 6.425,
                "end_time": 6.545454545454545,
                "pitch": 66,
                "velocity": 4,
                "duration": 0.12045454545454515,
                "tempo": 120.0
            },
            {
                "start_time": 6.547727272727273,
                "end_time": 6.6068181818181815,
                "pitch": 67,
                "velocity": 32,
                "duration": 0.05909090909090864,
                "tempo": 120.0
            },
            {
                "start_time": 6.661363636363636,
                "end_time": 6.725,
                "pitch": 71,
                "velocity": 32,
                "duration": 0.06363636363636349,
                "tempo": 120.0
            },
            {
                "start_time": 6.7749999999999995,
                "end_time": 6.8977272727272725,
                "pitch": 71,
                "velocity": 4,
                "duration": 0.12272727272727302,
                "tempo": 120.0
            },
            {
                "start_time": 6.8977272727272725,
                "end_time": 7.077272727272727,
                "pitch": 69,
                "velocity": 32,
                "duration": 0.17954545454545467,
                "tempo": 120.0
            },
            {
                "start_time": 7.245454545454545,
                "end_time": 7.306818181818182,
                "pitch": 66,
                "velocity": 32,
                "duration": 0.06136363636363651,
                "tempo": 120.0
            },
            {
                "start_time": 7.3590909090909085,
                "end_time": 7.9431818181818175,
                "pitch": 66,
                "velocity": 4,
                "duration": 0.584090909090909,
                "tempo": 120.0
            },
            {
                "start_time": 9.811363636363636,
                "end_time": 9.872727272727273,
                "pitch": 64,
                "velocity": 25,
                "duration": 0.0613636363636374,
                "tempo": 120.0
            },
            {
                "start_time": 9.927272727272726,
                "end_time": 10.043181818181818,
                "pitch": 64,
                "velocity": 4,
                "duration": 0.11590909090909207,
                "tempo": 120.0
            },
            {
                "start_time": 10.043181818181818,
                "end_time": 10.102272727272727,
                "pitch": 66,
                "velocity": 4,
                "duration": 0.05909090909090864,
                "tempo": 120.0
            },
            {
                "start_time": 10.045454545454545,
                "end_time": 10.102272727272727,
                "pitch": 66,
                "velocity": 25,
                "duration": 0.05681818181818166,
                "tempo": 120.0
            },
            {
                "start_time": 6.545454545454545,
                "end_time": 10.272727272727272,
                "pitch": 55,
                "velocity": 4,
                "duration": 3.7272727272727266,
                "tempo": 120.0
            },
            {
                "start_time": 10.154545454545454,
                "end_time": 10.272727272727272,
                "pitch": 66,
                "velocity": 4,
                "duration": 0.11818181818181728,
                "tempo": 120.0
            },
            {
                "start_time": 10.275,
                "end_time": 10.331818181818182,
                "pitch": 67,
                "velocity": 25,
                "duration": 0.05681818181818166,
                "tempo": 120.0
            },
            {
                "start_time": 10.386363636363637,
                "end_time": 10.45,
                "pitch": 69,
                "velocity": 25,
                "duration": 0.0636363636363626,
                "tempo": 120.0
            },
            {
                "start_time": 10.502272727272727,
                "end_time": 10.627272727272727,
                "pitch": 69,
                "velocity": 4,
                "duration": 0.125,
                "tempo": 120.0
            },
            {
                "start_time": 10.629545454545454,
                "end_time": 10.811363636363636,
                "pitch": 64,
                "velocity": 25,
                "duration": 0.18181818181818166,
                "tempo": 120.0
            },
            {
                "start_time": 10.98181818181818,
                "end_time": 11.043181818181818,
                "pitch": 62,
                "velocity": 25,
                "duration": 0.0613636363636374,
                "tempo": 120.0
            },
            {
                "start_time": 11.095454545454546,
                "end_time": 11.681818181818182,
                "pitch": 62,
                "velocity": 4,
                "duration": 0.586363636363636,
                "tempo": 120.0
            },
            {
                "start_time": 13.545454545454545,
                "end_time": 13.609090909090908,
                "pitch": 64,
                "velocity": 32,
                "duration": 0.0636363636363626,
                "tempo": 120.0
            },
            {
                "start_time": 13.663636363636362,
                "end_time": 13.779545454545454,
                "pitch": 64,
                "velocity": 4,
                "duration": 0.11590909090909207,
                "tempo": 120.0
            },
            {
                "start_time": 13.779545454545454,
                "end_time": 13.838636363636363,
                "pitch": 66,
                "velocity": 4,
                "duration": 0.05909090909090864,
                "tempo": 120.0
            },
            {
                "start_time": 13.779545454545454,
                "end_time": 13.838636363636363,
                "pitch": 66,
                "velocity": 32,
                "duration": 0.05909090909090864,
                "tempo": 120.0
            },
            {
                "start_time": 10.272727272727272,
                "end_time": 14.009090909090908,
                "pitch": 55,
                "velocity": 4,
                "duration": 3.7363636363636363,
                "tempo": 120.0
            },
            {
                "start_time": 13.89090909090909,
                "end_time": 14.009090909090908,
                "pitch": 66,
                "velocity": 4,
                "duration": 0.11818181818181728,
                "tempo": 120.0
            },
            {
                "start_time": 14.009090909090908,
                "end_time": 14.068181818181818,
                "pitch": 67,
                "velocity": 32,
                "duration": 0.059090909090910415,
                "tempo": 120.0
            },
            {
                "start_time": 14.122727272727271,
                "end_time": 14.184090909090909,
                "pitch": 71,
                "velocity": 32,
                "duration": 0.0613636363636374,
                "tempo": 120.0
            },
            {
                "start_time": 14.236363636363636,
                "end_time": 14.359090909090908,
                "pitch": 71,
                "velocity": 4,
                "duration": 0.12272727272727124,
                "tempo": 120.0
            },
            {
                "start_time": 14.359090909090908,
                "end_time": 14.536363636363635,
                "pitch": 69,
                "velocity": 32,
                "duration": 0.1772727272727277,
                "tempo": 120.0
            },
            {
                "start_time": 14.70681818181818,
                "end_time": 14.76590909090909,
                "pitch": 66,
                "velocity": 32,
                "duration": 0.059090909090910415,
                "tempo": 120.0
            },
            {
                "start_time": 14.818181818181818,
                "end_time": 15.054545454545455,
                "pitch": 66,
                "velocity": 4,
                "duration": 0.23636363636363633,
                "tempo": 120.0
            },
            {
                "start_time": 34.07954545454545,
                "end_time": 34.143181818181816,
                "pitch": 64,
                "velocity": 25,
                "duration": 0.0636363636363626,
                "tempo": 120.0
            },
            {
                "start_time": 34.199999999999996,
                "end_time": 34.31363636363636,
                "pitch": 64,
                "velocity": 4,
                "duration": 0.11363636363636687,
                "tempo": 120.0
            },
            {
                "start_time": 34.31590909090909,
                "end_time": 34.375,
                "pitch": 66,
                "velocity": 25,
                "duration": 0.05909090909091219,
                "tempo": 120.0
            },
            {
                "start_time": 14.009090909090908,
                "end_time": 34.543181818181814,
                "pitch": 55,
                "velocity": 4,
                "duration": 20.534090909090907,
                "tempo": 120.0
            },
            {
                "start_time": 34.425,
                "end_time": 34.543181818181814,
                "pitch": 66,
                "velocity": 4,
                "duration": 0.11818181818181728,
                "tempo": 120.0
            },
            {
                "start_time": 34.54545454545455,
                "end_time": 34.60227272727273,
                "pitch": 67,
                "velocity": 25,
                "duration": 0.05681818181817988,
                "tempo": 120.0
            },
            {
                "start_time": 34.65681818181818,
                "end_time": 34.720454545454544,
                "pitch": 69,
                "velocity": 25,
                "duration": 0.0636363636363626,
                "tempo": 120.0
            },
            {
                "start_time": 34.77045454545454,
                "end_time": 34.893181818181816,
                "pitch": 69,
                "velocity": 4,
                "duration": 0.1227272727272748,
                "tempo": 120.0
            },
            {
                "start_time": 10.627272727272727,
                "end_time": 34.893181818181816,
                "pitch": 76,
                "velocity": 4,
                "duration": 24.26590909090909,
                "tempo": 120.0
            },
            {
                "start_time": 34.893181818181816,
                "end_time": 35.07272727272727,
                "pitch": 64,
                "velocity": 25,
                "duration": 0.17954545454545467,
                "tempo": 120.0
            },
            {
                "start_time": 35.24318181818182,
                "end_time": 35.30681818181818,
                "pitch": 62,
                "velocity": 25,
                "duration": 0.0636363636363626,
                "tempo": 120.0
            },
            {
                "start_time": 35.361363636363635,
                "end_time": 35.95227272727273,
                "pitch": 62,
                "velocity": 4,
                "duration": 0.5909090909090935,
                "tempo": 120.0
            },
            {
                "start_time": 37.81590909090909,
                "end_time": 37.87954545454545,
                "pitch": 64,
                "velocity": 32,
                "duration": 0.0636363636363626,
                "tempo": 120.0
            },
            {
                "start_time": 37.934090909090905,
                "end_time": 38.05,
                "pitch": 64,
                "velocity": 4,
                "duration": 0.11590909090909207,
                "tempo": 120.0
            },
            {
                "start_time": 38.05,
                "end_time": 38.10909090909091,
                "pitch": 66,
                "velocity": 32,
                "duration": 0.05909090909091219,
                "tempo": 120.0
            },
            {
                "start_time": 34.543181818181814,
                "end_time": 38.279545454545456,
                "pitch": 55,
                "velocity": 4,
                "duration": 3.7363636363636417,
                "tempo": 120.0
            },
            {
                "start_time": 38.16136363636363,
                "end_time": 38.279545454545456,
                "pitch": 66,
                "velocity": 4,
                "duration": 0.11818181818182438,
                "tempo": 120.0
            },
            {
                "start_time": 38.279545454545456,
                "end_time": 38.33863636363636,
                "pitch": 67,
                "velocity": 32,
                "duration": 0.059090909090905086,
                "tempo": 120.0
            },
            {
                "start_time": 38.393181818181816,
                "end_time": 38.45454545454545,
                "pitch": 71,
                "velocity": 32,
                "duration": 0.0613636363636374,
                "tempo": 120.0
            },
            {
                "start_time": 38.50681818181818,
                "end_time": 38.62954545454545,
                "pitch": 71,
                "velocity": 4,
                "duration": 0.12272727272726769,
                "tempo": 120.0
            },
            {
                "start_time": 38.62954545454545,
                "end_time": 38.80681818181818,
                "pitch": 69,
                "velocity": 4,
                "duration": 0.17727272727272947,
                "tempo": 120.0
            },
            {
                "start_time": 38.62954545454545,
                "end_time": 38.80681818181818,
                "pitch": 69,
                "velocity": 32,
                "duration": 0.17727272727272947,
                "tempo": 120.0
            },
            {
                "start_time": 38.97727272727273,
                "end_time": 39.038636363636364,
                "pitch": 66,
                "velocity": 32,
                "duration": 0.0613636363636374,
                "tempo": 120.0
            },
            {
                "start_time": 39.08863636363636,
                "end_time": 39.67272727272727,
                "pitch": 66,
                "velocity": 4,
                "duration": 0.5840909090909108,
                "tempo": 120.0
            },
            {
                "start_time": 41.54772727272727,
                "end_time": 41.60909090909091,
                "pitch": 64,
                "velocity": 25,
                "duration": 0.0613636363636374,
                "tempo": 120.0
            },
            {
                "start_time": 41.66590909090909,
                "end_time": 41.78181818181818,
                "pitch": 64,
                "velocity": 4,
                "duration": 0.11590909090909207,
                "tempo": 120.0
            },
            {
                "start_time": 41.78181818181818,
                "end_time": 41.840909090909086,
                "pitch": 66,
                "velocity": 25,
                "duration": 0.059090909090905086,
                "tempo": 120.0
            },
            {
                "start_time": 38.279545454545456,
                "end_time": 42.01136363636363,
                "pitch": 55,
                "velocity": 4,
                "duration": 3.731818181818177,
                "tempo": 120.0
            },
            {
                "start_time": 41.893181818181816,
                "end_time": 42.01136363636363,
                "pitch": 66,
                "velocity": 4,
                "duration": 0.11818181818181728,
                "tempo": 120.0
            },
            {
                "start_time": 42.01363636363636,
                "end_time": 42.070454545454545,
                "pitch": 67,
                "velocity": 25,
                "duration": 0.056818181818186986,
                "tempo": 120.0
            },
            {
                "start_time": 42.125,
                "end_time": 42.18636363636364,
                "pitch": 69,
                "velocity": 25,
                "duration": 0.0613636363636374,
                "tempo": 120.0
            },
            {
                "start_time": 42.23863636363636,
                "end_time": 42.361363636363635,
                "pitch": 69,
                "velocity": 4,
                "duration": 0.1227272727272748,
                "tempo": 120.0
            },
            {
                "start_time": 34.893181818181816,
                "end_time": 42.361363636363635,
                "pitch": 76,
                "velocity": 4,
                "duration": 7.468181818181819,
                "tempo": 120.0
            },
            {
                "start_time": 42.361363636363635,
                "end_time": 42.538636363636364,
                "pitch": 64,
                "velocity": 25,
                "duration": 0.17727272727272947,
                "tempo": 120.0
            },
            {
                "start_time": 42.709090909090904,
                "end_time": 42.77045454545454,
                "pitch": 62,
                "velocity": 25,
                "duration": 0.0613636363636374,
                "tempo": 120.0
            },
            {
                "start_time": 42.82272727272727,
                "end_time": 43.40909090909091,
                "pitch": 62,
                "velocity": 4,
                "duration": 0.586363636363636,
                "tempo": 120.0
            },
            {
                "start_time": 45.28409090909091,
                "end_time": 45.345454545454544,
                "pitch": 64,
                "velocity": 32,
                "duration": 0.0613636363636374,
                "tempo": 120.0
            },
            {
                "start_time": 45.402272727272724,
                "end_time": 45.518181818181816,
                "pitch": 64,
                "velocity": 4,
                "duration": 0.11590909090909207,
                "tempo": 120.0
            },
            {
                "start_time": 45.518181818181816,
                "end_time": 45.57727272727273,
                "pitch": 66,
                "velocity": 32,
                "duration": 0.05909090909091219,
                "tempo": 120.0
            },
            {
                "start_time": 42.01136363636363,
                "end_time": 45.74772727272727,
                "pitch": 55,
                "velocity": 4,
                "duration": 3.7363636363636346,
                "tempo": 120.0
            },
            {
                "start_time": 45.62954545454545,
                "end_time": 45.74772727272727,
                "pitch": 66,
                "velocity": 4,
                "duration": 0.11818181818181728,
                "tempo": 120.0
            },
            {
                "start_time": 45.74772727272727,
                "end_time": 45.80681818181818,
                "pitch": 67,
                "velocity": 32,
                "duration": 0.05909090909091219,
                "tempo": 120.0
            },
            {
                "start_time": 45.861363636363635,
                "end_time": 45.92272727272727,
                "pitch": 71,
                "velocity": 32,
                "duration": 0.0613636363636374,
                "tempo": 120.0
            },
            {
                "start_time": 45.97272727272727,
                "end_time": 46.09772727272727,
                "pitch": 71,
                "velocity": 4,
                "duration": 0.125,
                "tempo": 120.0
            },
            {
                "start_time": 46.09772727272727,
                "end_time": 46.275,
                "pitch": 69,
                "velocity": 4,
                "duration": 0.17727272727272947,
                "tempo": 120.0
            },
            {
                "start_time": 46.09772727272727,
                "end_time": 46.275,
                "pitch": 69,
                "velocity": 32,
                "duration": 0.17727272727272947,
                "tempo": 120.0
            }
        ],
        "Harpsichord": [
            {
                "start_time": 16.93409090909091,
                "end_time": 16.99090909090909,
                "pitch": 55,
                "velocity": 64,
                "duration": 0.05681818181817988,
                "tempo": 120.0
            },
            {
                "start_time": 17.043181818181818,
                "end_time": 17.4,
                "pitch": 55,
                "velocity": 4,
                "duration": 0.3568181818181806,
                "tempo": 120.0
            },
            {
                "start_time": 17.4,
                "end_time": 17.461363636363636,
                "pitch": 59,
                "velocity": 4,
                "duration": 0.0613636363636374,
                "tempo": 120.0
            },
            {
                "start_time": 17.402272727272727,
                "end_time": 17.461363636363636,
                "pitch": 59,
                "velocity": 64,
                "duration": 0.05909090909090864,
                "tempo": 120.0
            },
            {
                "start_time": 17.513636363636362,
                "end_time": 17.754545454545454,
                "pitch": 59,
                "velocity": 4,
                "duration": 0.24090909090909207,
                "tempo": 120.0
            },
            {
                "start_time": 17.754545454545454,
                "end_time": 18.159090909090907,
                "pitch": 57,
                "velocity": 4,
                "duration": 0.40454545454545254,
                "tempo": 120.0
            },
            {
                "start_time": 17.754545454545454,
                "end_time": 18.159090909090907,
                "pitch": 57,
                "velocity": 64,
                "duration": 0.40454545454545254,
                "tempo": 120.0
            },
            {
                "start_time": 18.55681818181818,
                "end_time": 18.788636363636364,
                "pitch": 57,
                "velocity": 4,
                "duration": 0.23181818181818414,
                "tempo": 120.0
            },
            {
                "start_time": 18.788636363636364,
                "end_time": 18.849999999999998,
                "pitch": 55,
                "velocity": 4,
                "duration": 0.061363636363633844,
                "tempo": 120.0
            },
            {
                "start_time": 18.788636363636364,
                "end_time": 18.849999999999998,
                "pitch": 55,
                "velocity": 64,
                "duration": 0.061363636363633844,
                "tempo": 120.0
            },
            {
                "start_time": 18.90681818181818,
                "end_time": 19.027272727272727,
                "pitch": 55,
                "velocity": 4,
                "duration": 0.12045454545454604,
                "tempo": 120.0
            },
            {
                "start_time": 19.027272727272727,
                "end_time": 19.09090909090909,
                "pitch": 55,
                "velocity": 64,
                "duration": 0.0636363636363626,
                "tempo": 120.0
            },
            {
                "start_time": 19.147727272727273,
                "end_time": 19.268181818181816,
                "pitch": 55,
                "velocity": 4,
                "duration": 0.12045454545454248,
                "tempo": 120.0
            },
            {
                "start_time": 19.268181818181816,
                "end_time": 19.327272727272728,
                "pitch": 57,
                "velocity": 4,
                "duration": 0.05909090909091219,
                "tempo": 120.0
            },
            {
                "start_time": 19.268181818181816,
                "end_time": 19.327272727272728,
                "pitch": 57,
                "velocity": 64,
                "duration": 0.05909090909091219,
                "tempo": 120.0
            },
            {
                "start_time": 19.379545454545454,
                "end_time": 19.613636363636363,
                "pitch": 57,
                "velocity": 4,
                "duration": 0.23409090909090935,
                "tempo": 120.0
            },
            {
                "start_time": 19.61590909090909,
                "end_time": 20.022727272727273,
                "pitch": 57,
                "velocity": 64,
                "duration": 0.40681818181818485,
                "tempo": 120.0
            },
            {
                "start_time": 20.425,
                "end_time": 20.654545454545453,
                "pitch": 57,
                "velocity": 4,
                "duration": 0.22954545454545183,
                "tempo": 120.0
            },
            {
                "start_time": 20.654545454545453,
                "end_time": 20.65681818181818,
                "pitch": 55,
                "velocity": 4,
                "duration": 0.0022727272727287584,
                "tempo": 120.0
            },
            {
                "start_time": 20.65681818181818,
                "end_time": 20.71818181818182,
                "pitch": 55,
                "velocity": 64,
                "duration": 0.0613636363636374,
                "tempo": 120.0
            },
            {
                "start_time": 20.772727272727273,
                "end_time": 21.136363636363637,
                "pitch": 55,
                "velocity": 4,
                "duration": 0.3636363636363633,
                "tempo": 120.0
            },
            {
                "start_time": 21.136363636363637,
                "end_time": 21.195454545454545,
                "pitch": 59,
                "velocity": 4,
                "duration": 0.05909090909090864,
                "tempo": 120.0
            },
            {
                "start_time": 21.136363636363637,
                "end_time": 21.195454545454545,
                "pitch": 59,
                "velocity": 64,
                "duration": 0.05909090909090864,
                "tempo": 120.0
            },
            {
                "start_time": 21.24772727272727,
                "end_time": 21.48181818181818,
                "pitch": 59,
                "velocity": 4,
                "duration": 0.23409090909090935,
                "tempo": 120.0
            },
            {
                "start_time": 21.48181818181818,
                "end_time": 21.89090909090909,
                "pitch": 57,
                "velocity": 4,
                "duration": 0.40909090909091006,
                "tempo": 120.0
            },
            {
                "start_time": 21.48181818181818,
                "end_time": 21.89090909090909,
                "pitch": 57,
                "velocity": 64,
                "duration": 0.40909090909091006,
                "tempo": 120.0
            },
            {
                "start_time": 22.293181818181818,
                "end_time": 22.522727272727273,
                "pitch": 57,
                "velocity": 4,
                "duration": 0.22954545454545539,
                "tempo": 120.0
            },
            {
                "start_time": 22.525,
                "end_time": 22.638636363636362,
                "pitch": 54,
                "velocity": 64,
                "duration": 0.11363636363636331,
                "tempo": 120.0
            },
            {
                "start_time": 22.75681818181818,
                "end_time": 22.877272727272725,
                "pitch": 54,
                "velocity": 4,
                "duration": 0.12045454545454604,
                "tempo": 120.0
            },
            {
                "start_time": 22.877272727272725,
                "end_time": 22.936363636363634,
                "pitch": 55,
                "velocity": 64,
                "duration": 0.05909090909090864,
                "tempo": 120.0
            },
            {
                "start_time": 22.988636363636363,
                "end_time": 24.39090909090909,
                "pitch": 55,
                "velocity": 4,
                "duration": 1.4022727272727273,
                "tempo": 120.0
            },
            {
                "start_time": 24.393181818181816,
                "end_time": 24.452272727272724,
                "pitch": 55,
                "velocity": 64,
                "duration": 0.05909090909090864,
                "tempo": 120.0
            },
            {
                "start_time": 24.504545454545454,
                "end_time": 24.861363636363635,
                "pitch": 55,
                "velocity": 4,
                "duration": 0.3568181818181806,
                "tempo": 120.0
            },
            {
                "start_time": 24.861363636363635,
                "end_time": 24.922727272727272,
                "pitch": 59,
                "velocity": 4,
                "duration": 0.0613636363636374,
                "tempo": 120.0
            },
            {
                "start_time": 24.861363636363635,
                "end_time": 24.922727272727272,
                "pitch": 59,
                "velocity": 64,
                "duration": 0.0613636363636374,
                "tempo": 120.0
            },
            {
                "start_time": 24.974999999999998,
                "end_time": 25.21590909090909,
                "pitch": 59,
                "velocity": 4,
                "duration": 0.24090909090909207,
                "tempo": 120.0
            },
            {
                "start_time": 25.21590909090909,
                "end_time": 25.627272727272725,
                "pitch": 57,
                "velocity": 4,
                "duration": 0.41136363636363527,
                "tempo": 120.0
            },
            {
                "start_time": 25.21590909090909,
                "end_time": 25.627272727272725,
                "pitch": 57,
                "velocity": 64,
                "duration": 0.41136363636363527,
                "tempo": 120.0
            },
            {
                "start_time": 26.027272727272727,
                "end_time": 26.259090909090908,
                "pitch": 57,
                "velocity": 4,
                "duration": 0.2318181818181806,
                "tempo": 120.0
            },
            {
                "start_time": 26.259090909090908,
                "end_time": 26.320454545454545,
                "pitch": 55,
                "velocity": 4,
                "duration": 0.0613636363636374,
                "tempo": 120.0
            },
            {
                "start_time": 26.259090909090908,
                "end_time": 26.320454545454545,
                "pitch": 55,
                "velocity": 64,
                "duration": 0.0613636363636374,
                "tempo": 120.0
            },
            {
                "start_time": 26.375,
                "end_time": 26.493181818181817,
                "pitch": 55,
                "velocity": 4,
                "duration": 0.11818181818181728,
                "tempo": 120.0
            },
            {
                "start_time": 26.493181818181817,
                "end_time": 26.554545454545455,
                "pitch": 55,
                "velocity": 64,
                "duration": 0.0613636363636374,
                "tempo": 120.0
            },
            {
                "start_time": 26.60909090909091,
                "end_time": 26.729545454545452,
                "pitch": 55,
                "velocity": 4,
                "duration": 0.12045454545454248,
                "tempo": 120.0
            },
            {
                "start_time": 26.729545454545452,
                "end_time": 26.788636363636364,
                "pitch": 57,
                "velocity": 4,
                "duration": 0.05909090909091219,
                "tempo": 120.0
            },
            {
                "start_time": 26.729545454545452,
                "end_time": 26.788636363636364,
                "pitch": 57,
                "velocity": 64,
                "duration": 0.05909090909091219,
                "tempo": 120.0
            },
            {
                "start_time": 26.843181818181815,
                "end_time": 27.081818181818182,
                "pitch": 57,
                "velocity": 4,
                "duration": 0.23863636363636687,
                "tempo": 120.0
            },
            {
                "start_time": 27.084090909090907,
                "end_time": 27.493181818181817,
                "pitch": 57,
                "velocity": 64,
                "duration": 0.40909090909091006,
                "tempo": 120.0
            },
            {
                "start_time": 27.895454545454545,
                "end_time": 28.127272727272725,
                "pitch": 57,
                "velocity": 4,
                "duration": 0.2318181818181806,
                "tempo": 120.0
            },
            {
                "start_time": 28.127272727272725,
                "end_time": 28.188636363636363,
                "pitch": 55,
                "velocity": 4,
                "duration": 0.0613636363636374,
                "tempo": 120.0
            },
            {
                "start_time": 28.127272727272725,
                "end_time": 28.188636363636363,
                "pitch": 55,
                "velocity": 64,
                "duration": 0.0613636363636374,
                "tempo": 120.0
            },
            {
                "start_time": 28.24090909090909,
                "end_time": 28.595454545454544,
                "pitch": 55,
                "velocity": 4,
                "duration": 0.3545454545454554,
                "tempo": 120.0
            },
            {
                "start_time": 28.595454545454544,
                "end_time": 28.65681818181818,
                "pitch": 59,
                "velocity": 4,
                "duration": 0.0613636363636374,
                "tempo": 120.0
            },
            {
                "start_time": 28.597727272727273,
                "end_time": 28.65681818181818,
                "pitch": 59,
                "velocity": 64,
                "duration": 0.05909090909090864,
                "tempo": 120.0
            },
            {
                "start_time": 28.709090909090907,
                "end_time": 28.95,
                "pitch": 59,
                "velocity": 4,
                "duration": 0.24090909090909207,
                "tempo": 120.0
            },
            {
                "start_time": 28.95,
                "end_time": 29.361363636363635,
                "pitch": 57,
                "velocity": 4,
                "duration": 0.41136363636363527,
                "tempo": 120.0
            },
            {
                "start_time": 28.952272727272724,
                "end_time": 29.361363636363635,
                "pitch": 57,
                "velocity": 64,
                "duration": 0.40909090909091006,
                "tempo": 120.0
            },
            {
                "start_time": 29.763636363636362,
                "end_time": 29.995454545454542,
                "pitch": 57,
                "velocity": 4,
                "duration": 0.2318181818181806,
                "tempo": 120.0
            }
        ]
    }
}